<?xml version="1.0" encoding="UTF-8" standalone="no"?>
<!-- Created with Inkscape (http://www.inkscape.org/) -->

<svg
   xmlns:dc="http://purl.org/dc/elements/1.1/"
   xmlns:cc="http://creativecommons.org/ns#"
   xmlns:rdf="http://www.w3.org/1999/02/22-rdf-syntax-ns#"
   xmlns:svg="http://www.w3.org/2000/svg"
   xmlns="http://www.w3.org/2000/svg"
   xmlns:sodipodi="http://sodipodi.sourceforge.net/DTD/sodipodi-0.dtd"
   xmlns:inkscape="http://www.inkscape.org/namespaces/inkscape"
   width="500"
   height="250"
   viewBox="0 0 499.99999 249.99999"
   id="svg2"
   version="1.1"
   inkscape:version="0.91 r13725"
   sodipodi:docname="bb320900.svg">
  <defs
     id="defs4" />
  <sodipodi:namedview
     id="base"
     pagecolor="#595959"
     bordercolor="#3a3a3a"
     borderopacity="1"
     inkscape:pageopacity="1"
     inkscape:pageshadow="2"
     inkscape:zoom="1.979899"
     inkscape:cx="245.40876"
     inkscape:cy="149.30395"
     inkscape:document-units="px"
     inkscape:current-layer="layer1"
     showgrid="false"
     fit-margin-top="0"
     fit-margin-left="0"
     fit-margin-right="0"
     fit-margin-bottom="0"
     inkscape:window-width="1440"
     inkscape:window-height="810"
     inkscape:window-x="0"
     inkscape:window-y="0"
     inkscape:window-maximized="0"
     inkscape:showpageshadow="true"
     units="px" />
  <metadata
     id="metadata7">
    <rdf:RDF>
      <cc:Work
         rdf:about="">
        <dc:format>image/svg+xml</dc:format>
        <dc:type
           rdf:resource="http://purl.org/dc/dcmitype/StillImage" />
        <dc:title></dc:title>
      </cc:Work>
    </rdf:RDF>
  </metadata>
  <g
     inkscape:label="Layer 1"
     inkscape:groupmode="layer"
     id="layer1"
     transform="translate(-70.35714,-308.52291)">
    <g
       id="g4266"
       transform="translate(-2.5229828e-6,-2.3699341e-4)">
      <g
         id="g4247">
        <path
           style="color:#000000;font-style:normal;font-variant:normal;font-weight:normal;font-stretch:normal;font-size:medium;line-height:normal;font-family:sans-serif;text-indent:0;text-align:start;text-decoration:none;text-decoration-line:none;text-decoration-style:solid;text-decoration-color:#000000;letter-spacing:normal;word-spacing:normal;text-transform:none;direction:ltr;block-progression:tb;writing-mode:lr-tb;baseline-shift:baseline;text-anchor:start;white-space:normal;clip-rule:nonzero;display:inline;overflow:visible;visibility:visible;opacity:1;isolation:auto;mix-blend-mode:normal;color-interpolation:sRGB;color-interpolation-filters:linearRGB;solid-color:#000000;solid-opacity:1;fill:#000000;fill-opacity:1;fill-rule:evenodd;stroke:none;stroke-width:1px;stroke-linecap:butt;stroke-linejoin:miter;stroke-miterlimit:4;stroke-dasharray:none;stroke-dashoffset:0;stroke-opacity:1;color-rendering:auto;image-rendering:auto;shape-rendering:auto;text-rendering:auto;enable-background:accumulate"
           d="m 125.15039,34.636719 c -2.0694,-0.0698 -3.40142,1.961005 -3.67187,5.759765 -0.34029,4.77958 1.3831,4.256092 1.91015,-0.580078 0.18641,-1.71036 0.87198,-2.882812 1.68555,-2.882812 1.00128,0 1.39096,1.335925 1.44336,4.947265 0.049,3.3829 0.63305,5.568244 1.8457,6.908203 1.74976,1.93347 1.72428,1.973487 -1.92383,2.904297 -2.03391,0.51895 -10.61991,2.340188 -19.08007,4.048829 -8.46019,1.708629 -15.775954,3.456815 -16.255864,3.884765 -1.28297,1.14403 1.229615,3.741513 3.634765,3.757813 1.12497,0.008 8.436929,-1.137229 16.248049,-2.542969 7.81111,-1.40574 14.40191,-2.353945 14.64648,-2.109375 0.24459,0.24459 0.95895,3.753338 1.58789,7.798828 0.8689,5.58898 0.87541,7.941838 0.0293,9.798828 -1.11659,2.45066 -0.5895,15.728904 1.72656,43.580082 0.49734,5.98067 0.66243,12.08236 0.36719,13.55859 -0.34742,1.73707 0.19081,4.11261 1.52734,6.73242 1.39662,2.73762 2.59364,3.94743 3.69727,3.73633 1.44608,-0.27661 1.69911,-2.50056 2.22266,-19.5293 0.32496,-10.56914 0.6491,-22.57007 0.7207,-26.667966 L 137.64258,90.289062 142.25,90.0625 c 1.37907,-0.15757 5.55838,-0.938399 10.60352,-1.949219 0.19542,0.373 0.39019,0.721529 0.58593,1.011719 0.30828,0.45703 0.60294,0.812371 1,1.019531 1.22035,0.6367 2.59234,0.367973 3.55078,-0.185547 0.47922,-0.27675 0.87119,-0.623028 1.10157,-1.048828 0.23038,-0.42579 0.24481,-1.031092 -0.1211,-1.433594 -0.0491,-0.054 -0.17727,-0.260045 -0.34179,-0.546874 1.39867,-0.29235 2.7856,-0.577983 4.20312,-0.882813 13.42951,-2.88791 17.33472,-4.08197 20.85547,-6.375 7.30609,-4.75837 5.1215,-5.279634 -12.00195,-2.865234 -5.77159,0.81379 -11.67594,1.538862 -16.54883,2.138671 -1.19415,-3.075859 -2.54477,-6.801992 -3.91992,-10.976562 -1.24643,-3.78379 -2.14266,-6.958416 -3.36914,-9.566406 -1.22648,-2.60798 -2.81106,-4.659368 -5.36914,-6.054688 l -0.81055,-0.443359 c -0.0225,-0.0145 -0.0472,-0.02411 -0.0703,-0.03711 -0.10238,-0.0575 -0.20773,-0.106323 -0.32227,-0.132813 -2.28558,-0.70182 -2.43305,-1.484927 -1.83203,-2.085937 0.59602,-0.59603 1.08398,-3.159216 1.08398,-5.697266 0,-6.19022 -2.41868,-8.717677 -8.01172,-8.373047 -2.2033,0.13577 -4.82114,-0.114307 -5.81835,-0.554687 -0.55223,-0.24388 -1.06933,-0.370619 -1.54688,-0.386719 z m 17.98438,26.498047 c 0.46478,1.34213 4.04616,11.675963 4.91406,13.845703 0.27419,0.68547 0.87318,2.56019 1.56055,4.65625 -0.11709,0.0154 -0.41327,0.04995 -0.52149,0.06445 -6.83955,0.9173 -6.68128,-0.304885 -7.2832,-2.703125 -0.46707,-1.86095 0.45224,-11.421331 1.33008,-15.863281 z"
           transform="translate(70.35714,308.5229)"
           id="path4226"
           inkscape:connector-curvature="0" />
        <path
           style="color:#000000;font-style:normal;font-variant:normal;font-weight:normal;font-stretch:normal;font-size:medium;line-height:normal;font-family:sans-serif;text-indent:0;text-align:start;text-decoration:none;text-decoration-line:none;text-decoration-style:solid;text-decoration-color:#000000;letter-spacing:normal;word-spacing:normal;text-transform:none;direction:ltr;block-progression:tb;writing-mode:lr-tb;baseline-shift:baseline;text-anchor:start;white-space:normal;clip-rule:nonzero;display:inline;overflow:visible;visibility:visible;opacity:1;isolation:auto;mix-blend-mode:normal;color-interpolation:sRGB;color-interpolation-filters:linearRGB;solid-color:#000000;solid-opacity:1;fill:#ffffff;fill-opacity:1;fill-rule:evenodd;stroke:none;stroke-width:1px;stroke-linecap:butt;stroke-linejoin:miter;stroke-miterlimit:4;stroke-dasharray:none;stroke-dashoffset:0;stroke-opacity:1;color-rendering:auto;image-rendering:auto;shape-rendering:auto;text-rendering:auto;enable-background:accumulate"
           d="m 135.31836,43.214844 c -1.58163,-0.06423 -3.29456,0.402863 -4.49609,1.490234 -2.24728,2.03377 -2.29383,3.101904 -0.24024,5.371094 3.27154,3.61501 9.50553,0.666145 8.82031,-4.171875 -0.23323,-1.646674 -2.05046,-2.60687 -4.08398,-2.689453 z m -7.74219,9.769531 c -0.35684,-0.35685 -35.224875,6.537529 -35.935545,7.105469 -0.18513,0.14795 -0.02687,0.770482 0.351563,1.382812 0.845489,1.36802 4.588938,1.026729 21.798832,-1.988281 11.25891,-1.97245 13.23516,-2.582224 13.6621,-4.214844 0.27453,-1.04976 0.33013,-2.078076 0.12305,-2.285156 z m 15.34375,0.982422 0.89844,6.085937 c 0.0229,0.06617 4.29948,12.409831 5.1582,14.556641 0.32812,0.820291 0.94689,2.760087 1.64844,4.900391 0.89284,-0.114642 2.27995,-0.286362 3.48828,-0.435547 -1.17717,-3.045579 -2.50177,-6.71321 -3.8457,-10.792969 -1.25358,-3.8055 -2.15343,-6.961358 -3.32617,-9.455078 -0.98766,-2.10016 -2.27424,-3.632185 -4.02149,-4.859375 z m 43.43946,22.15625 c -2.19468,-0.0092 -11.56951,0.876408 -22.67188,2.314453 l -22.57812,2.923828 -1.17969,3.261719 c -0.64892,1.79425 -1.21176,3.587805 -1.25196,3.984375 -0.22018,2.17058 38.07072,-5.862856 43.93165,-9.322266 2.36529,-1.39612 4.27067,-2.791102 4.23437,-3.101562 -0.005,-0.03881 -0.17085,-0.05924 -0.48437,-0.06055 z m -57.35547,8.398437 c -1.33218,0 -1.20168,8.653138 0.4414,29.392576 0.75716,9.55673 1.12416,18.3388 0.81641,19.51563 -0.30775,1.17682 0.21038,3.84861 1.15234,5.9375 3.46208,7.67751 3.96033,5.28979 4.66406,-22.39844 l 0.66602,-26.199219 -3.38281,-3.123047 c -1.86018,-1.71848 -3.82089,-3.125 -4.35742,-3.125 z m 28.58984,2.626954 c -1.29971,0.269799 -2.49605,0.512351 -3.7207,0.759765 0.13563,0.24606 0.26821,0.468986 0.39453,0.65625 0.26391,0.39124 0.51841,0.632661 0.63476,0.693359 0.83321,0.43472 1.87221,0.249248 2.58789,-0.164062 0.35783,-0.20666 0.61906,-0.472276 0.72071,-0.660156 0.1016,-0.18785 0.10006,-0.196558 0.0195,-0.285156 -0.19843,-0.218278 -0.40681,-0.567786 -0.63672,-1 z"
           transform="translate(70.35714,308.5229)"
           id="path4198"
           inkscape:connector-curvature="0" />
        <path
           inkscape:connector-curvature="0"
           id="path4176"
           d="m 203.34197,394.87099 c -1.7686,-1.60813 -3.82355,-2.69058 -4.56657,-2.40545 -1.71046,0.65636 -1.84704,-4.01024 -0.22178,-7.57731 0.85437,-1.87513 0.86575,-4.17255 0.0467,-9.44053 -0.75072,-4.82877 -0.7842,-8.13713 -0.10927,-10.79613 l 0.97313,-3.83384 5.60379,-0.0761 5.60379,-0.0761 1.09937,3.66938 c 0.82648,2.75854 0.82385,5.25152 -0.0106,10.04319 -0.61047,3.50561 -0.85888,8.20557 -0.55202,10.44435 0.30686,2.23879 0.19527,4.46381 -0.24796,4.94449 -0.44325,0.48067 -1.32434,2.49629 -1.95798,4.47914 -0.63364,1.98285 -1.44299,3.59251 -1.79855,3.57701 -0.35557,-0.0155 -2.09352,-1.34392 -3.86212,-2.95203 z"
           style="fill:#008080" />
      </g>
      <path
         sodipodi:nodetypes="sscccccss"
         inkscape:connector-curvature="0"
         id="path8102"
         d="m 150.21697,458.66676 c -0.36666,-0.36666 -0.66666,-1.94166 -0.66666,-3.5 l 0,-2.83333 131,0 211,0 0,3.5 0,3.5 -210.33333,0 c -71.68334,0 -130.63334,-0.3 -131.00001,-0.66667 z"
         style="fill:#fefefe" />
      <g
         id="g4260">
        <path
           style="fill:#000000"
           d="m 262.42969,36.068359 c -0.47755,0.0161 -0.99466,0.144802 -1.54688,0.388672 -0.99721,0.44039 -3.61503,0.688485 -5.81836,0.552735 -3.00066,-0.18491 -4.50975,0.255839 -6.00976,1.755859 -2.38729,2.38729 -2.64392,7.387758 -0.53516,10.398437 1.11581,1.593051 1.21737,2.005262 -0.48242,2.544922 -0.35283,0.100167 -0.65711,0.281064 -0.91992,0.533204 -6.5e-4,6.16e-4 -0.001,0.0013 -0.002,0.002 l -0.18945,0.103515 c -2.55808,1.39532 -4.14265,3.446708 -5.36914,6.054688 -1.22648,2.60799 -2.12466,5.782616 -3.37109,9.566406 -1.46451,4.445794 -2.78652,8.336836 -3.95508,11.654297 -4.93719,-0.361164 -11.79883,-1.060849 -17.82617,-1.853516 -17.14521,-2.25477 -19.32667,-1.713547 -11.97657,2.976563 3.54196,2.26012 7.45824,3.417007 20.91407,6.179687 1.87388,0.384735 3.72904,0.754739 5.55468,1.115235 -0.0125,0.01757 -0.0543,0.0966 -0.0605,0.103515 -0.33192,0.36511 -0.42068,0.881995 -0.28321,1.302735 0.13747,0.42075 0.4465,0.761821 0.8418,1.013672 0.79061,0.503679 1.98705,0.656135 3.16602,0.04102 0.39913,-0.20824 0.69896,-0.567843 1.01757,-1.033203 0.0957,-0.139715 0.19289,-0.309029 0.28907,-0.46875 4.81013,0.9129 8.76127,1.610741 10.09375,1.75 l 4.9375,0.0098 0,6.582031 c 0,3.620103 0.28144,10.542743 0.625,15.382813 0.34356,4.84008 0.78881,8.80078 0.99023,8.80078 0.20143,0 0.0732,-6.85888 -0.28515,-15.24219 l -0.65235,-15.244138 2.78516,-0.666015 c 1.5319,-0.36633 3.6069,-0.910928 4.61133,-1.210938 1.74471,-0.52112 1.79861,-0.0574 1.17968,10.38086 -0.35631,6.009301 -0.9108,13.520801 -1.23242,16.693361 -0.32163,3.17256 -0.31236,5.51679 0.0215,5.20898 0.33383,-0.30782 1.27465,-9.74646 2.08984,-20.97461 1.17476,-16.180894 1.24173,-21.077901 0.32422,-23.615231 -0.90261,-2.49702 -0.90198,-4.747602 0.004,-10.232422 0.63868,-3.86743 1.34907,-7.220169 1.57812,-7.449219 0.22905,-0.22905 6.80607,0.734885 14.61719,2.140625 7.81112,1.40574 15.12307,2.549016 16.24804,2.541016 2.40515,-0.0163 4.91774,-2.613783 3.63477,-3.757813 -0.47991,-0.42794 -7.79569,-2.176125 -16.25586,-3.884765 -8.46017,-1.70864 -17.04617,-3.529889 -19.08008,-4.048829 -3.5368,-0.902408 -3.62622,-1.022917 -2.07031,-2.742187 1.17867,-1.30242 1.53565,-3.073504 1.29492,-6.427734 -0.25995,-3.62198 -0.0188,-4.628907 1.10938,-4.628907 0.89153,0 1.56154,1.101696 1.75586,2.884766 0.52706,4.83618 2.25044,5.357695 1.91015,0.578125 -0.27045,-3.79877 -1.60248,-5.829546 -3.67187,-5.759766 z m -16.69727,26.59961 c 0.0248,0.42802 0.0487,0.858035 0.0762,1.28125 0.72296,4.8642 1.32183,11.949301 0.92774,13.519531 -0.58303,2.322974 -0.82244,2.497765 -7.10742,2.419922 0.7692,-2.210353 1.44009,-4.196931 1.72461,-4.908203 0.75802,-1.895063 3.32116,-9.26479 4.3789,-12.3125 z m 6.68946,61.259761 -0.31836,9.0625 c -0.17572,4.98355 -0.10089,9.63337 0.16796,10.33399 0.8681,2.26224 3.34143,1.35533 5.05079,-1.85156 1.11288,-2.08786 1.68852,-5.44419 1.73632,-10.11719 0.0495,-4.84481 -0.18025,-6.32128 -0.74609,-4.80664 -0.44922,1.20245 -0.55177,3.9724 -0.22852,6.15429 0.64831,4.37615 -1.74934,10.9336 -3.99804,10.9336 -0.94924,0 -1.31501,-2.45331 -1.46485,-9.85352 l -0.19921,-9.85547 z"
           transform="translate(70.35714,308.5229)"
           id="path4238"
           inkscape:connector-curvature="0" />
        <path
           style="fill:#fefefe"
           d="m 261.49609,53.408203 c -0.30311,-0.01275 -0.48802,0.0036 -0.53906,0.05469 -0.20247,0.20246 -0.11952,1.323614 0.18555,2.490234 0.38577,1.47516 1.32721,2.147684 3.08789,2.208984 1.39242,0.04853 7.50519,1.081885 13.58594,2.296875 11.50223,2.29825 18.36741,2.644225 18.92187,0.953125 0.28595,-0.872137 -30.69551,-7.812587 -35.24219,-8.003906 z m -15.01171,0.558594 c -1.74726,1.22719 -3.03578,2.759215 -4.02344,4.859375 -1.17275,2.49372 -2.07259,5.649578 -3.32617,9.455078 -1.77599,5.39138 -3.41703,10.237504 -4.72852,13.865234 -0.65574,1.81387 -1.22844,3.321776 -1.69727,4.447266 -0.23442,0.56274 -0.44207,1.029954 -0.625,1.396484 -0.18294,0.36653 -0.3231,0.622795 -0.50976,0.828125 -0.1145,0.12596 -0.11421,0.18402 -0.0703,0.31836 0.0439,0.13433 0.18687,0.328972 0.42773,0.482422 0.48172,0.3068 1.29337,0.452403 2.16797,-0.0039 0.11426,-0.05961 0.37679,-0.308487 0.65234,-0.710937 0.27554,-0.40244 0.58036,-0.949894 0.89453,-1.589844 0.62833,-1.27989 1.29686,-2.933623 1.92969,-4.626953 1.26567,-3.38666 2.37521,-6.892115 2.84961,-8.078125 0.85825,-2.14561 5.12855,-14.468928 5.15625,-14.548828 l 0.90235,-6.09375 z m -44.77149,23.234375 c -0.3044,0.0037 -0.46656,0.02599 -0.4707,0.06445 -0.0331,0.3077 1.46623,1.534886 3.33203,2.728516 2.24068,1.43345 8.36407,3.260459 18.03516,5.380859 2.90789,0.637562 5.87347,1.272897 8.71484,1.865234 0.14037,-0.298291 0.28388,-0.606195 0.46094,-1.03125 0.458,-1.09949 1.02895,-2.596943 1.68164,-4.402343 0.15822,-0.437669 0.36162,-1.043042 0.52929,-1.515625 -2.83812,-0.330433 -5.83138,-0.67052 -10.23437,-1.148438 -10.80881,-1.17327 -19.91804,-1.967425 -22.04883,-1.941406 z m 37.54688,3.732422 c -0.25524,0.720463 -0.47282,1.37228 -0.7461,2.103515 -0.63883,1.70937 -1.31409,3.38523 -1.96875,4.71875 -0.0845,0.1721 -0.16825,0.320334 -0.25195,0.480469 2.81087,0.542468 5.23201,0.971423 6.49414,1.070313 l 6.29687,0.492187 -1.49609,-2.136719 c -0.82312,-1.17517 -1.4957,-3.013887 -1.49609,-4.085937 -4.5e-4,-1.260814 -0.32745,-1.761295 -6.83203,-2.642578 z m 20.49609,8.095703 c -0.064,-0.0067 -0.13193,-0.0054 -0.20508,0.002 -0.1672,0.01681 -0.35808,0.06572 -0.57617,0.130859 -1.00442,0.3 -3.01661,0.828972 -4.4707,1.175782 -2.56021,0.61062 -2.64454,0.836505 -2.64453,7.109375 0,3.562774 0.28143,10.437274 0.625,15.277344 0.62348,8.78354 0.62915,8.80078 3.24023,8.80078 2.47636,0 2.64679,-0.29644 3.19727,-5.5293 0.31983,-3.04037 0.87414,-10.44382 1.23046,-16.453121 0.50774,-8.562595 0.56295,-10.412851 -0.39648,-10.513672 z m -6.93359,35.378903 0,9.61524 c 0,7.39268 0.29685,9.61328 1.28711,9.61328 2.23025,0 3.85571,-5.03395 3.95898,-12.25781 l 0.0996,-6.97071 -2.67383,0 -2.67187,0 z"
           transform="translate(70.35714,308.5229)"
           id="path4193"
           inkscape:connector-curvature="0" />
        <path
           inkscape:connector-curvature="0"
           id="path4166"
           d="m 318.84588,396.0439 c -1.32889,-2.02814 -1.51137,-3.71846 -0.97645,-9.045 0.3813,-3.79681 0.20377,-9.05494 -0.4223,-12.50745 -0.80759,-4.45359 -0.80048,-6.89019 0.0282,-9.65588 l 1.1083,-3.69917 5.60379,0.0762 5.60378,0.0761 0.97314,3.83384 c 0.67492,2.659 0.64144,5.96736 -0.10928,10.79614 -0.81899,5.26797 -0.80761,7.56539 0.0467,9.44053 0.62104,1.36303 1.12916,4.17314 1.12916,6.2447 0,4.26088 -1.25382,5.31973 -7.47772,6.31498 -3.44697,0.55119 -4.05278,0.34494 -5.50731,-1.87496 z"
           style="fill:#008080" />
        <path
           style="fill:#ff0000"
           d="m 318.33442,431.6268 c -7.18718,-1.43713 -10.58658,-4.88485 -9.41579,-9.54963 0.87414,-3.48286 2.72577,-3.20833 1.95736,0.29021 -1.10624,5.03669 5.44279,8.11107 17.39271,8.16482 9.02782,0.0406 17.09187,-5.16708 15.54553,-10.03916 -0.69117,-2.17769 -4.47981,-4.69079 -4.47981,-2.97158 0,1.93607 -1.6748,1.04433 -2.83948,-1.51187 -1.58862,-3.48662 -1.61225,-3.45294 2.42281,-3.45294 2.39123,0 3.44693,0.40921 3.17332,1.23005 -0.22551,0.67653 0.3928,1.91403 1.37403,2.75 0.98122,0.83597 2.08192,2.777 2.44599,4.31341 0.56689,2.39227 0.0647,3.34486 -3.49692,6.63291 -2.28738,2.1117 -5.54732,4.11714 -7.24431,4.45654 -3.84335,0.76867 -12.20388,0.61335 -16.83544,-0.31276 z"
           id="path8096"
           inkscape:connector-curvature="0" />
      </g>
      <path
         sodipodi:nodetypes="cccsscccccscccssscccccsscccssccccc"
         inkscape:connector-curvature="0"
         id="path8094"
         d="m 482.9776,451.46233 -332.66406,0.35157 -1.26367,0.0195 -0.32227,2.81054 c -0.436,3.80247 1.38353,5.68946 5.48633,5.68946 4.05237,0 4.07874,0.0229 18.16992,15.93945 l 11.01367,12.43945 -11.67383,17.24805 -11.67382,17.24609 -8,0.35938 c -4.4,0.19809 52.3,0.34261 126,0.32031 l 134,-0.041 -124.09961,-0.50586 -124.09961,-0.50586 20.34961,-29.96485 c 11.19223,-16.48055 20.34961,-30.54305 20.34961,-31.25 0,-1.03732 20.02126,-1.33204 103.75,-1.52929 l 183.75,-0.24414 -211,-0.50586 -131,-0.50586 -0.3125,-3.25 -0.31446,-3.25 131.31446,-0.20313 c 72.22235,-0.11195 207.7125,-0.38595 203.3125,-0.60937 -0.40374,-0.0205 -0.70745,-0.0392 -1.07227,-0.0586 z m -320.57227,8.8711 19.47852,0 c 18.06725,0 19.44386,0.12685 19,1.75 -0.2632,0.9625 -3.95107,6.76985 -8.19726,12.90625 l -7.72071,11.1582 -8.45898,-9.54297 c -4.65161,-5.24885 -9.72675,-11.05815 -11.2793,-12.9082 z"
         style="fill:#000000" />
      <g
         transform="translate(220,0)"
         id="g4252">
        <path
           inkscape:connector-curvature="0"
           id="path4254"
           transform="translate(70.35714,308.5229)"
           d="m 125.15039,34.636719 c -2.0694,-0.0698 -3.40142,1.961005 -3.67187,5.759765 -0.34029,4.77958 1.3831,4.256092 1.91015,-0.580078 0.18641,-1.71036 0.87198,-2.882812 1.68555,-2.882812 1.00128,0 1.39096,1.335925 1.44336,4.947265 0.049,3.3829 0.63305,5.568244 1.8457,6.908203 1.74976,1.93347 1.72428,1.973487 -1.92383,2.904297 -2.03391,0.51895 -10.61991,2.340188 -19.08007,4.048829 -8.46019,1.708629 -15.775954,3.456815 -16.255864,3.884765 -1.28297,1.14403 1.229615,3.741513 3.634765,3.757813 1.12497,0.008 8.436929,-1.137229 16.248049,-2.542969 7.81111,-1.40574 14.40191,-2.353945 14.64648,-2.109375 0.24459,0.24459 0.95895,3.753338 1.58789,7.798828 0.8689,5.58898 0.87541,7.941838 0.0293,9.798828 -1.11659,2.45066 -0.5895,15.728904 1.72656,43.580082 0.49734,5.98067 0.66243,12.08236 0.36719,13.55859 -0.34742,1.73707 0.19081,4.11261 1.52734,6.73242 1.39662,2.73762 2.59364,3.94743 3.69727,3.73633 1.44608,-0.27661 1.69911,-2.50056 2.22266,-19.5293 0.32496,-10.56914 0.6491,-22.57007 0.7207,-26.667966 L 137.64258,90.289062 142.25,90.0625 c 1.37907,-0.15757 5.55838,-0.938399 10.60352,-1.949219 0.19542,0.373 0.39019,0.721529 0.58593,1.011719 0.30828,0.45703 0.60294,0.812371 1,1.019531 1.22035,0.6367 2.59234,0.367973 3.55078,-0.185547 0.47922,-0.27675 0.87119,-0.623028 1.10157,-1.048828 0.23038,-0.42579 0.24481,-1.031092 -0.1211,-1.433594 -0.0491,-0.054 -0.17727,-0.260045 -0.34179,-0.546874 1.39867,-0.29235 2.7856,-0.577983 4.20312,-0.882813 13.42951,-2.88791 17.33472,-4.08197 20.85547,-6.375 7.30609,-4.75837 5.1215,-5.279634 -12.00195,-2.865234 -5.77159,0.81379 -11.67594,1.538862 -16.54883,2.138671 -1.19415,-3.075859 -2.54477,-6.801992 -3.91992,-10.976562 -1.24643,-3.78379 -2.14266,-6.958416 -3.36914,-9.566406 -1.22648,-2.60798 -2.81106,-4.659368 -5.36914,-6.054688 l -0.81055,-0.443359 c -0.0225,-0.0145 -0.0472,-0.02411 -0.0703,-0.03711 -0.10238,-0.0575 -0.20773,-0.106323 -0.32227,-0.132813 -2.28558,-0.70182 -2.43305,-1.484927 -1.83203,-2.085937 0.59602,-0.59603 1.08398,-3.159216 1.08398,-5.697266 0,-6.19022 -2.41868,-8.717677 -8.01172,-8.373047 -2.2033,0.13577 -4.82114,-0.114307 -5.81835,-0.554687 -0.55223,-0.24388 -1.06933,-0.370619 -1.54688,-0.386719 z m 17.98438,26.498047 c 0.46478,1.34213 4.04616,11.675963 4.91406,13.845703 0.27419,0.68547 0.87318,2.56019 1.56055,4.65625 -0.11709,0.0154 -0.41327,0.04995 -0.52149,0.06445 -6.83955,0.9173 -6.68128,-0.304885 -7.2832,-2.703125 -0.46707,-1.86095 0.45224,-11.421331 1.33008,-15.863281 z"
           style="color:#000000;font-style:normal;font-variant:normal;font-weight:normal;font-stretch:normal;font-size:medium;line-height:normal;font-family:sans-serif;text-indent:0;text-align:start;text-decoration:none;text-decoration-line:none;text-decoration-style:solid;text-decoration-color:#000000;letter-spacing:normal;word-spacing:normal;text-transform:none;direction:ltr;block-progression:tb;writing-mode:lr-tb;baseline-shift:baseline;text-anchor:start;white-space:normal;clip-rule:nonzero;display:inline;overflow:visible;visibility:visible;opacity:1;isolation:auto;mix-blend-mode:normal;color-interpolation:sRGB;color-interpolation-filters:linearRGB;solid-color:#000000;solid-opacity:1;fill:#000000;fill-opacity:1;fill-rule:evenodd;stroke:none;stroke-width:1px;stroke-linecap:butt;stroke-linejoin:miter;stroke-miterlimit:4;stroke-dasharray:none;stroke-dashoffset:0;stroke-opacity:1;color-rendering:auto;image-rendering:auto;shape-rendering:auto;text-rendering:auto;enable-background:accumulate" />
        <path
           inkscape:connector-curvature="0"
           id="path4256"
           transform="translate(70.35714,308.5229)"
           d="m 135.31836,43.214844 c -1.58163,-0.06423 -3.29456,0.402863 -4.49609,1.490234 -2.24728,2.03377 -2.29383,3.101904 -0.24024,5.371094 3.27154,3.61501 9.50553,0.666145 8.82031,-4.171875 -0.23323,-1.646674 -2.05046,-2.60687 -4.08398,-2.689453 z m -7.74219,9.769531 c -0.35684,-0.35685 -35.224875,6.537529 -35.935545,7.105469 -0.18513,0.14795 -0.02687,0.770482 0.351563,1.382812 0.845489,1.36802 4.588938,1.026729 21.798832,-1.988281 11.25891,-1.97245 13.23516,-2.582224 13.6621,-4.214844 0.27453,-1.04976 0.33013,-2.078076 0.12305,-2.285156 z m 15.34375,0.982422 0.89844,6.085937 c 0.0229,0.06617 4.29948,12.409831 5.1582,14.556641 0.32812,0.820291 0.94689,2.760087 1.64844,4.900391 0.89284,-0.114642 2.27995,-0.286362 3.48828,-0.435547 -1.17717,-3.045579 -2.50177,-6.71321 -3.8457,-10.792969 -1.25358,-3.8055 -2.15343,-6.961358 -3.32617,-9.455078 -0.98766,-2.10016 -2.27424,-3.632185 -4.02149,-4.859375 z m 43.43946,22.15625 c -2.19468,-0.0092 -11.56951,0.876408 -22.67188,2.314453 l -22.57812,2.923828 -1.17969,3.261719 c -0.64892,1.79425 -1.21176,3.587805 -1.25196,3.984375 -0.22018,2.17058 38.07072,-5.862856 43.93165,-9.322266 2.36529,-1.39612 4.27067,-2.791102 4.23437,-3.101562 -0.005,-0.03881 -0.17085,-0.05924 -0.48437,-0.06055 z m -57.35547,8.398437 c -1.33218,0 -1.20168,8.653138 0.4414,29.392576 0.75716,9.55673 1.12416,18.3388 0.81641,19.51563 -0.30775,1.17682 0.21038,3.84861 1.15234,5.9375 3.46208,7.67751 3.96033,5.28979 4.66406,-22.39844 l 0.66602,-26.199219 -3.38281,-3.123047 c -1.86018,-1.71848 -3.82089,-3.125 -4.35742,-3.125 z m 28.58984,2.626954 c -1.29971,0.269799 -2.49605,0.512351 -3.7207,0.759765 0.13563,0.24606 0.26821,0.468986 0.39453,0.65625 0.26391,0.39124 0.51841,0.632661 0.63476,0.693359 0.83321,0.43472 1.87221,0.249248 2.58789,-0.164062 0.35783,-0.20666 0.61906,-0.472276 0.72071,-0.660156 0.1016,-0.18785 0.10006,-0.196558 0.0195,-0.285156 -0.19843,-0.218278 -0.40681,-0.567786 -0.63672,-1 z"
           style="color:#000000;font-style:normal;font-variant:normal;font-weight:normal;font-stretch:normal;font-size:medium;line-height:normal;font-family:sans-serif;text-indent:0;text-align:start;text-decoration:none;text-decoration-line:none;text-decoration-style:solid;text-decoration-color:#000000;letter-spacing:normal;word-spacing:normal;text-transform:none;direction:ltr;block-progression:tb;writing-mode:lr-tb;baseline-shift:baseline;text-anchor:start;white-space:normal;clip-rule:nonzero;display:inline;overflow:visible;visibility:visible;opacity:1;isolation:auto;mix-blend-mode:normal;color-interpolation:sRGB;color-interpolation-filters:linearRGB;solid-color:#000000;solid-opacity:1;fill:#ffffff;fill-opacity:1;fill-rule:evenodd;stroke:none;stroke-width:1px;stroke-linecap:butt;stroke-linejoin:miter;stroke-miterlimit:4;stroke-dasharray:none;stroke-dashoffset:0;stroke-opacity:1;color-rendering:auto;image-rendering:auto;shape-rendering:auto;text-rendering:auto;enable-background:accumulate" />
        <path
           style="fill:#008080"
           d="m 203.34197,394.87099 c -1.7686,-1.60813 -3.82355,-2.69058 -4.56657,-2.40545 -1.71046,0.65636 -1.84704,-4.01024 -0.22178,-7.57731 0.85437,-1.87513 0.86575,-4.17255 0.0467,-9.44053 -0.75072,-4.82877 -0.7842,-8.13713 -0.10927,-10.79613 l 0.97313,-3.83384 5.60379,-0.0761 5.60379,-0.0761 1.09937,3.66938 c 0.82648,2.75854 0.82385,5.25152 -0.0106,10.04319 -0.61047,3.50561 -0.85888,8.20557 -0.55202,10.44435 0.30686,2.23879 0.19527,4.46381 -0.24796,4.94449 -0.44325,0.48067 -1.32434,2.49629 -1.95798,4.47914 -0.63364,1.98285 -1.44299,3.59251 -1.79855,3.57701 -0.35557,-0.0155 -2.09352,-1.34392 -3.86212,-2.95203 z"
           id="path4258"
           inkscape:connector-curvature="0" />
      </g>
    </g>
  </g>
</svg>
