<?xml version="1.0" encoding="UTF-8" standalone="no"?>
<!-- Created with Inkscape (http://www.inkscape.org/) -->

<svg
   xmlns:dc="http://purl.org/dc/elements/1.1/"
   xmlns:cc="http://creativecommons.org/ns#"
   xmlns:rdf="http://www.w3.org/1999/02/22-rdf-syntax-ns#"
   xmlns:svg="http://www.w3.org/2000/svg"
   xmlns="http://www.w3.org/2000/svg"
   xmlns:sodipodi="http://sodipodi.sourceforge.net/DTD/sodipodi-0.dtd"
   xmlns:inkscape="http://www.inkscape.org/namespaces/inkscape"
   id="svg3366"
   version="1.1"
   inkscape:version="0.91 r13725"
   width="500"
   height="250"
   viewBox="0 0 500 250"
   sodipodi:docname="bb320100.svg">
  <metadata
     id="metadata3372">
    <rdf:RDF>
      <cc:Work
         rdf:about="">
        <dc:format>image/svg+xml</dc:format>
        <dc:type
           rdf:resource="http://purl.org/dc/dcmitype/StillImage" />
        <dc:title></dc:title>
      </cc:Work>
    </rdf:RDF>
  </metadata>
  <defs
     id="defs3370" />
  <sodipodi:namedview
     pagecolor="#9a9a9a"
     bordercolor="#666666"
     borderopacity="1"
     objecttolerance="10"
     gridtolerance="10"
     guidetolerance="10"
     inkscape:pageopacity="0"
     inkscape:pageshadow="2"
     inkscape:window-width="1609"
     inkscape:window-height="847"
     id="namedview3368"
     showgrid="false"
     inkscape:zoom="0.96694494"
     inkscape:cx="29.793968"
     inkscape:cy="150.82943"
     inkscape:window-x="0"
     inkscape:window-y="0"
     inkscape:window-maximized="0"
     inkscape:current-layer="svg3366" />
  <g
     id="g3376"
     transform="translate(42.055674,9.4280446)">
    <path
       style="fill:#fefefe"
       d="m 52.1875,151.25 c -0.34375,-0.34375 -0.625,-1.82031 -0.625,-3.28125 l 0,-2.65625 156.5625,0 156.5625,0 0,3.28125 0,3.28125 -155.9375,0 c -85.76563,0 -156.21875,-0.28125 -156.5625,-0.625 z m 14.468372,-11.5355 c -0.868161,-4.0481 -0.762304,-5.06441 0.805592,-7.73438 0.9928,-1.69063 3.748879,-10.24574 6.124619,-19.01137 4.56993,-16.861397 5.789179,-19.627029 9.372467,-21.259685 5.856248,-2.668285 6.728949,2.223513 1.928174,10.808105 -6.62084,11.83916 -15.511724,35.66092 -15.511724,41.56126 0,0.16312 -0.386917,0.29657 -0.859815,0.29657 -0.472898,0 -1.309589,-2.09723 -1.859313,-4.6605 z m 24.86203,-3.54263 c 0.269022,-4.51171 0.880979,-10.2263 1.359904,-12.69908 0.780039,-4.02747 0.528938,-5.40863 -2.409766,-13.25472 -1.804297,-4.81732 -3.28054,-9.14577 -3.28054,-9.61878 0,-0.47301 1.029209,-2.255034 2.287132,-3.960046 l 2.287131,-3.100035 1.376432,3.294266 c 0.757033,1.811841 2.539999,6.947035 3.96213,11.411545 l 2.5857,8.11728 -2.487947,11.77043 c -1.368375,6.47374 -2.277262,12.11133 -2.019759,12.52797 0.257503,0.41665 1.728965,1.03446 3.269934,1.37291 4.537797,0.99667 3.211767,2.34139 -2.308866,2.34139 l -5.110615,0 0.48913,-8.20313 z m 36.574648,3.75 c -2.10476,-4.16279 -2.29708,-5.85767 -2.95,-25.99704 -0.65583,-20.229556 -0.60105,-21.46308 0.89802,-20.218963 0.87806,0.728724 2.43798,2.974458 3.4665,4.990524 1.61881,3.173119 1.78768,4.755909 1.25695,11.781469 -0.57264,7.58028 0.6416,27.04007 1.98348,31.78776 1.14281,4.04341 -2.30267,2.30863 -4.65495,-2.34375 z m 59.16199,0.46875 c 1.00749,-5.62052 0.67437,-23.72494 -0.68429,-37.18879 -1.06499,-10.553814 -1.0269,-11.557727 0.50277,-13.247985 2.14455,-2.369704 3.42375,-2.307086 5.73085,0.28053 1.75243,1.965493 1.82737,2.812798 1.09864,12.421875 -0.43016,5.67188 -0.69323,15.16406 -0.58463,21.09375 0.18513,10.10721 0.0378,11.08897 -2.35725,15.70312 -3.13334,6.03665 -4.69073,6.43061 -3.70609,0.9375 z m 37.34944,-0.55959 c -2.15736,-4.25736 -2.24266,-4.97652 -1.35231,-11.40145 0.52267,-3.77161 0.75676,-7.5976 0.5202,-8.50218 -0.26411,-1.00997 0.73235,-2.77138 2.582,-4.56413 l 3.0121,-2.91945 -1.25335,9.63747 c -1.18085,9.08004 -0.77028,15.65958 1.31656,21.09777 0.25349,0.66059 -0.2084,1.19594 -1.03184,1.19594 -0.84092,0 -2.49448,-1.98077 -3.79336,-4.54397 z m 59.12638,0.55959 c -0.78359,-2.1914 -2.09782,-12 -2.92054,-21.79687 -0.8227,-9.79687 -1.74464,-19.054988 -2.04874,-20.573588 l -0.55293,-2.761078 2.56202,1.678697 c 1.42086,0.930985 3.55981,1.487953 4.80217,1.250466 2.72868,-0.521625 2.74503,-0.357703 0.29486,2.956333 -2.54133,3.43734 -3.0729,11.88288 -0.73712,11.71134 1.36753,-0.10042 1.4877,1.1356 1.09376,11.25 -0.32948,8.45928 -0.0867,12.50074 0.95004,15.81595 1.31067,4.19108 1.29224,4.45313 -0.31309,4.45313 -1.15824,0 -2.16299,-1.27885 -3.13043,-3.98438 z m 26.58854,3.28125 c 0.004,-0.38671 1.46245,-1.69463 3.24206,-2.90648 2.44834,-1.66724 3.56825,-3.37807 4.60264,-7.03125 4.15977,-14.69114 5.45593,-19.98829 7.15842,-29.25471 2.06223,-11.22451 3.78555,-14.20913 7.63956,-13.231032 1.20707,0.306337 2.75082,1.456805 3.43058,2.556596 1.04158,1.685212 1.01205,2.246972 -0.1878,3.572794 -0.78304,0.865237 -3.09239,6.414672 -5.13191,12.332062 -11.24167,32.61635 -10.99937,32.04738 -14.22492,33.40362 -3.29085,1.3837 -6.53868,1.66149 -6.52863,0.5584 z m 26.65716,-0.73293 c 1.00089,-0.75704 2.32033,-1.37644 2.93208,-1.37644 0.61175,0 1.55367,-0.53184 2.09315,-1.18189 1.30892,-1.57714 -2.74668,-20.65707 -6.078,-28.59443 -2.19182,-5.22236 -2.34373,-6.27041 -1.37667,-9.49816 0.96342,-3.215608 3.5006,-6.620261 4.1916,-5.624739 1.73301,2.496694 8.13678,37.961509 8.13678,45.062409 0,2.628 -0.0472,2.64907 -5.85938,2.6195 -5.35623,-0.0273 -5.70311,-0.14802 -4.03956,-1.40625 z m -185.8509,-12.36717 c -2.16571,-1.40427 -3.93855,-2.9863 -3.93964,-3.51562 -0.001,-0.52932 -2.55719,-4.75928 -5.68023,-9.3999 -6.41588,-9.53357 -13.06779,-22.073766 -13.06779,-24.63544 0,-2.268267 1.79499,-3.95831 4.20412,-3.95831 2.44045,0 3.35868,1.554151 12.12951,20.52967 3.86143,8.35415 8.30511,16.81095 9.87483,18.79289 1.56972,1.98193 2.85404,3.85921 2.85404,4.17172 0,1.25648 -2.64679,0.43231 -6.37484,-1.98501 z m 27.49237,-7.52489 c -0.39922,-2.70241 -2.46823,-7.59878 -5.2627,-12.45435 -2.53266,-4.40067 -4.60483,-8.93859 -4.60483,-10.08427 0,-1.557498 1.69061,-3.166707 6.70077,-6.378141 9.31325,-5.969643 9.23673,-5.957765 9.23673,-1.433714 0,3.659695 -0.21369,3.942801 -4.6875,6.209845 -2.57813,1.30643 -4.6875,2.58969 -4.6875,2.8517 0,0.262 1.47656,3.40842 3.28125,6.99205 3.32288,6.59838 3.7271,8.89652 2.67952,15.23438 -0.79235,4.79369 -1.865,4.41504 -2.65574,-0.9375 z m 39.81997,-3.07804 c 0,-1.47546 4.81042,-10.70589 5.7696,-11.07095 1.493,-0.56823 4.58558,-7.51086 3.61337,-8.11172 -0.50357,-0.31122 -3.05076,-1.199933 -5.66041,-1.974917 -5.39849,-1.603181 -7.46196,-4.390097 -5.695,-7.691674 1.83153,-3.422266 4.3913,-3.376086 10.77594,0.194403 3.27307,1.830408 6.681,4.442071 7.57317,5.803696 1.54346,2.355628 1.53805,2.66355 -0.11165,6.349932 -0.95357,2.13083 -4.63506,6.93326 -8.18108,10.67207 -6.20835,6.54587 -8.08394,7.89831 -8.08394,5.82916 z m 65.63023,-9.57821 c 0.0136,-5.46915 2.02864,-9.12193 8.22619,-14.911711 3.4649,-3.236936 4.82327,-4.723235 3.01858,-3.302887 -7.33717,5.774596 -13.3671,6.811096 -13.8799,2.385862 -0.37982,-3.277703 2.59599,-5.55045 11.5374,-8.811563 5.72291,-2.08726 7.27212,-2.341471 8.42722,-1.382823 2.09724,1.740548 1.74404,3.693517 -1.63548,9.043431 C 295.51406,100.13519 285.87867,112.5 284.88641,112.5 c -0.45315,0 -0.82156,-0.94922 -0.81868,-2.10937 z M 90.46875,83.4375 c -0.870686,-1.408801 0.343139,-2.8125 2.432062,-2.8125 1.01896,0 2.905979,-0.690166 4.193382,-1.533701 2.059781,-1.349621 2.180597,-1.71532 1.006575,-3.046875 -0.733772,-0.832246 -1.610231,-3.411612 -1.947675,-5.731924 -0.581635,-3.999409 -0.53431,-4.121265 0.910218,-2.34375 0.83806,1.03125 2.577882,3.930188 3.866258,6.442085 2.70441,5.27266 2.45691,5.768733 -4.12542,8.268629 -5.1768,1.966089 -5.560415,2.011989 -6.3354,0.758036 z M 81.198602,68.934702 C 80.352414,67.643256 77.887964,65.682552 75.722047,64.577584 70.824095,62.078835 63.75,56.242651 63.75,54.700552 c 0,-2.653825 2.23456,-2.19155 4.871773,1.007846 2.737996,3.321664 12.3514,8.979102 15.257742,8.979102 1.814094,0 1.920655,4.053187 0.145298,5.526601 -1.009042,0.83743 -1.620611,0.560578 -2.826211,-1.279399 z M 325.79482,68.480234 C 325.19253,66.5826 327.63828,61.875 329.22644,61.875 c 2.04938,0 11.50144,-10.252448 13.9821,-15.166081 1.47785,-2.927282 3.14638,-5.606245 3.70785,-5.953252 3.76013,-2.323885 0.87577,6.665676 -4.19841,13.084983 -2.05545,2.600341 -5.54692,6.537635 -7.75883,8.749542 -2.21191,2.211908 -4.02165,4.41758 -4.02165,4.901494 0,0.794021 -2.94156,2.820814 -4.09394,2.820814 -0.25697,0 -0.7289,-0.82452 -1.04874,-1.832266 z M 136.99005,63.67704 c -0.87447,-2.508488 -0.62322,-3.641427 1.92312,-8.671875 3.75232,-7.412913 5.46786,-13.929112 4.78119,-18.160555 -0.42378,-2.611444 -0.25427,-3.250971 0.77193,-2.912364 0.85744,0.282922 1.41562,2.180189 1.60425,5.452977 0.22983,3.987363 -0.51657,7.296526 -3.63102,16.098185 -2.15617,6.093501 -4.03805,11.079092 -4.18195,11.079092 -0.14391,0 -0.71429,-1.298457 -1.26752,-2.88546 z M 89.0625,62.410715 c 0,-3.571223 1.998412,-6.160715 4.754466,-6.160715 2.492625,0 2.448122,4.984913 -0.06694,7.5 -2.913624,2.913624 -4.6875,2.406802 -4.6875,-1.339285 z m 97.66621,2.399346 c -0.86129,-0.546082 -1.04836,-1.807996 -0.61247,-4.131477 0.82075,-4.37498 -1.11878,-22.207772 -2.87165,-26.402961 -1.56153,-3.73728 -1.80852,-8.025623 -0.46222,-8.025623 1.15889,0 5.28946,13.605999 6.54604,21.5625 0.52931,3.351562 1.38915,7.567527 1.91074,9.368811 1.26918,4.383033 1.20458,5.241033 -0.52487,6.970474 -1.6727,1.672705 -2.23828,1.766118 -3.98557,0.658276 z m 33.27636,-0.508975 c -0.27942,-0.728154 -1.02587,-4.706662 -1.65879,-8.84113 -1.02566,-6.70005 -0.96925,-8.008375 0.51892,-12.03546 4.51883,-12.228301 8.0098,-18.287789 8.0098,-13.903112 0,0.76801 -1.26988,5.918838 -2.82196,11.446285 -2.74711,9.783332 -2.78376,10.181335 -1.38147,15.005028 1.31528,4.524426 1.30673,5.159266 -0.0984,7.303715 -1.79242,2.735578 -1.89578,2.776818 -2.56813,1.024674 z m 13.65721,-0.900872 c -0.73688,-1.617286 -0.73012,-2.519869 0.0245,-3.274504 1.07217,-1.072168 2.09815,-14.252654 1.85243,-23.797585 -0.0763,-2.964844 0.17894,-5.390625 0.56725,-5.390625 1.82716,0 2.95601,2.667402 2.95581,6.984375 -2.1e-4,4.548133 -3.22358,26.551922 -4.00394,27.332287 -0.20832,0.208319 -0.83654,-0.625957 -1.39605,-1.853948 z m 45.381,0.688699 c -0.28844,-0.95984 -1.00936,-4.601134 -1.60206,-8.091766 -0.83956,-4.944515 -0.82319,-6.653188 0.0742,-7.734375 2.12636,-2.562099 2.8176,-1.422232 2.22015,3.661067 -0.4679,3.981141 -0.22873,5.666158 1.13099,7.967971 1.58617,2.685179 1.60322,3.040277 0.21281,4.430699 -1.39043,1.390422 -1.55361,1.371701 -2.036,-0.233596 z M 119.76563,58.219204 C 117.83203,54.66854 116.25,50.770457 116.25,49.556797 c 0,-3.878524 4.7414,-16.744297 6.17074,-16.744297 1.70405,0 1.69204,0.199454 -0.59077,9.811289 l -1.92002,8.084333 2.90782,5.082342 c 2.37419,4.14965 2.72049,5.43237 1.88705,6.989688 -0.56144,1.049041 -1.11141,1.904526 -1.22218,1.901076 -0.11076,-0.0035 -1.78342,-2.91136 -3.71701,-6.462024 z m 170.94743,5.168149 c -0.91167,-1.098493 -0.8077,-2.300538 0.51021,-5.899108 1.93977,-5.296485 2.15802,-18.464809 0.36167,-21.821304 -0.93272,-1.742821 -0.91068,-2.309273 0.11514,-2.959311 2.18285,-1.383211 2.45547,-0.987527 3.51619,5.103538 1.4017,8.049226 1.30385,11.791259 -0.50165,19.183661 -1.77341,7.261042 -2.42151,8.296375 -4.00156,6.392524 z m 32.32266,-2.985568 c -0.81028,-0.810267 -1.47322,-2.919642 -1.47322,-4.6875 0,-2.729037 0.32552,-3.214285 2.15625,-3.214285 1.18594,0 2.6625,0.50625 3.28125,1.125 1.66481,1.664816 1.4162,7.000154 -0.35793,7.680948 -1.98483,0.761649 -1.92573,0.776465 -3.60635,-0.904163 z m -96.86385,-0.05038 C 225.5187,60.068447 225,58.209608 225,56.151776 c 0,-3.028337 0.42129,-3.883927 2.34375,-4.759858 1.76849,-0.805779 2.94345,-0.794642 4.78709,0.04537 2.20249,1.003518 2.37908,1.457335 1.79139,4.603608 -0.35857,1.919691 -0.75056,3.591421 -0.87107,3.714955 -0.5737,0.588057 -5.84345,1.044262 -6.87928,0.595542 z m -92.07615,-2.929526 c 0.0183,-1.417969 0.59101,-3.584445 1.27277,-4.814392 l 1.23955,-2.236265 0.60661,2.41692 C 137.83293,55.251562 136.27567,60 134.84951,60 c -0.43285,0 -0.77206,-1.160156 -0.75378,-2.578125 z m 47.5449,0.626317 C 179.6286,56.878399 179.2729,49.6875 181.22707,49.6875 c 2.73633,0 4.54879,2.392818 4.23735,5.594183 -0.33937,3.488409 -1.33864,4.211379 -3.8238,2.766509 z m 96.20346,-15.626317 c 0.27118,-1.417969 0.76366,-4.371094 1.09439,-6.5625 0.62386,-4.133601 1.68401,-5.096894 2.69885,-2.452272 0.66077,1.721925 -0.19277,7.456848 -1.4812,9.952272 -1.32871,2.573434 -2.8644,1.950732 -2.31204,-0.9375 z"
       id="path3386"
       inkscape:connector-curvature="0" />
    <path
       style="fill:#007f7f"
       d="m 88.920116,93.815784 c -0.515578,-3.503963 -3.112481,-4.588016 -6.438072,-2.687512 -1.536999,0.878361 -2.794544,1.440681 -2.794544,1.249598 0,-0.191082 0.873152,-2.384404 1.940338,-4.874048 1.539288,-3.591013 1.815884,-5.598932 1.33821,-9.714598 -0.522857,-4.504971 -0.346325,-5.419471 1.340912,-6.946399 1.068672,-0.967134 1.94304,-2.762572 1.94304,-3.98986 0,-1.915565 0.256664,-2.094073 1.813181,-1.261049 0.99725,0.533712 2.752226,0.864961 3.899946,0.73611 4.401626,-0.494159 4.786095,11.684516 0.42126,13.344024 -3.096972,1.177467 -3.750497,2.675452 -2.007475,4.601469 1.818883,2.009844 1.887434,6.309496 0.150609,9.44652 l -1.281038,2.313786 -0.326367,-2.218041 z m 190.223854,0.641569 c -0.3544,-0.900013 -0.1895,-4.064075 0.36646,-7.031246 0.55596,-2.967172 0.80506,-8.787999 0.55355,-12.935174 -0.41825,-6.896768 -0.27097,-7.756914 1.72565,-10.078125 2.68095,-3.116787 5.95455,-3.260559 8.66036,-0.38035 1.95907,2.085339 1.9833,2.375218 0.72472,8.671875 -0.71615,3.58293 -1.5736,8.095398 -1.90545,10.027709 -0.43472,2.53135 -1.31278,3.880154 -3.14164,4.825893 -3.19499,1.652189 -5.51671,4.238075 -5.98041,6.660815 -0.32334,1.689459 -0.42263,1.713066 -1.00324,0.238603 z m 57.46743,-1.55349 c -1.26803,-2.369345 -5.21885,-3.511109 -7.00886,-2.025528 -1.53525,1.274148 -1.68819,1.062607 -3.68482,-5.097085 -3.80896,-11.750808 -3.77724,-20.032641 0.0884,-23.093917 1.52597,-1.208426 1.52558,-1.136735 -0.007,1.264058 -1.95198,3.058318 -1.98902,3.629161 -0.37835,5.831873 1.04467,1.428684 1.58359,1.523507 3.33412,0.586649 1.14842,-0.614617 2.42443,-2.026798 2.83555,-3.13818 0.51433,-1.390377 0.96388,0.748903 1.44118,6.85816 0.47397,6.066697 1.4255,10.618384 3.00426,14.37108 2.23392,5.309961 2.49521,8.40419 0.37519,4.44289 z M 125.68682,92.418234 c -1.11631,-1.345072 -0.93418,-7.483373 0.2574,-8.674951 0.21966,-0.21967 2.55802,-0.113048 5.19634,0.236938 4.14844,0.55031 4.79694,0.919286 4.79694,2.729303 0,1.728253 -0.40935,2.014714 -2.34914,1.6439 -2.56089,-0.489545 -4.99014,1.048762 -6.01004,3.805822 -0.58903,1.592301 -0.76496,1.616395 -1.8915,0.258988 z m 100.71943,-2.484157 c -2.57813,-1.531175 -5.39509,-2.61213 -6.25991,-2.402123 -1.35702,0.329528 -1.42612,0.06077 -0.50447,-1.96204 1.00654,-2.209109 1.36439,-2.309029 6.22406,-1.737869 2.83587,0.3333 5.4822,1.119159 5.88074,1.746352 0.93282,1.468013 0.9732,7.248874 0.0503,7.186868 -0.38672,-0.02598 -2.8125,-1.300013 -5.39062,-2.831188 z m -33.66093,-0.761851 c -2.13849,-2.37654 -3.64315,-2.508973 -5.33566,-0.469621 -1.10406,1.330313 -1.39678,0.968836 -2.4,-2.963758 -2.0898,-8.192024 -2.57104,-20.189489 -0.95722,-23.863847 l 1.44116,-3.28125 -0.50295,2.960426 c -0.40006,2.354809 -0.0989,3.176645 1.47195,4.01736 2.13826,1.144362 5.16106,0.121305 6.04281,-2.045168 0.26473,-0.65044 0.24577,1.41218 -0.0421,4.5836 -0.35256,3.883992 9.4e-4,7.907723 1.08431,12.326735 0.88426,3.608284 1.46732,7.496456 1.2957,8.640383 l -0.31207,2.079867 -1.78593,-1.984727 z M 128.4375,81.666351 c -1.73048,-0.477519 -2.41286,-1.372981 -2.60786,-3.422175 -0.14526,-1.526485 -0.67263,-4.800228 -1.17193,-7.274986 -0.71655,-3.551489 -0.60644,-5.08238 0.52255,-7.265625 1.25291,-2.422869 1.93868,-2.766065 5.5271,-2.766065 3.85842,0 4.20673,0.2224 5.98852,3.82372 1.65214,3.339266 1.78188,4.600142 1.02398,9.951881 -0.47732,3.370487 -1.09852,6.501376 -1.38044,6.957529 -0.58631,0.948663 -4.45616,0.946567 -7.90192,-0.0043 z m 96.43435,0.172411 c -2.30187,-0.354144 -2.54389,-0.864396 -3.51864,-7.418126 -1.01739,-6.840441 -0.9809,-7.124153 1.30108,-10.115983 1.98122,-2.597511 2.88302,-3.045666 5.77533,-2.870066 3.99044,0.242271 6.3889,3.577827 5.58419,7.765948 -2.87982,14.987967 -1.97745,13.74049 -9.14196,12.638227 z"
       id="path3382"
       inkscape:connector-curvature="0" />
    <path
       style="fill:#fe0000"
       d="m 127.5,83.503267 c -6.73798,-1.347305 -9.92492,-4.579546 -8.8273,-8.95278 0.8195,-3.265183 2.55541,-3.007809 1.83502,0.272071 -1.0371,4.7219 5.10262,7.604128 16.30567,7.654524 8.46358,0.03807 16.02363,-4.844139 14.57393,-9.411715 -0.64797,-2.041582 -4.19982,-4.397616 -4.19982,-2.785852 0,1.815063 -1.57013,0.979055 -2.66201,-1.417377 -1.48933,-3.268713 -1.51149,-3.237138 2.27138,-3.237138 2.24178,0 3.2315,0.383638 2.97499,1.153173 -0.21142,0.634244 0.36825,1.7944 1.28815,2.578125 0.9199,0.783724 1.9518,2.603442 2.29312,4.04382 0.53146,2.242756 0.0607,3.135811 -3.27836,6.218355 -2.14442,1.979718 -5.20062,3.859821 -6.79155,4.178007 -3.60314,0.720629 -11.44113,0.575018 -15.78322,-0.293212 z m 96.5625,0 c -6.73798,-1.347305 -9.92492,-4.579546 -8.8273,-8.95278 0.8195,-3.265183 2.55541,-3.007809 1.83502,0.272071 -1.0371,4.7219 5.10262,7.604128 16.30567,7.654524 8.46358,0.03807 16.02363,-4.844139 14.57393,-9.411715 -0.64797,-2.041582 -4.19982,-4.397616 -4.19982,-2.785852 0,1.815063 -1.57013,0.979055 -2.66201,-1.417377 -1.48933,-3.268713 -1.51149,-3.237138 2.27138,-3.237138 2.24178,0 3.2315,0.383638 2.97499,1.153173 -0.21142,0.634244 0.36825,1.7944 1.28815,2.578125 0.9199,0.783724 1.9518,2.603442 2.29312,4.04382 0.53146,2.242756 0.0607,3.135811 -3.27836,6.218355 -2.14442,1.979718 -5.20062,3.859821 -6.79155,4.178007 -3.60314,0.720629 -11.44113,0.575018 -15.78322,-0.293212 z"
       id="path3380"
       inkscape:connector-curvature="0" />
    <path
       style="fill:#000000"
       d="m 53.90625,212.0932 7.5,-0.33765 L 72.350436,195.58707 83.294622,179.41859 72.96973,167.75617 C 59.759256,152.83435 59.73434,152.8125 55.935242,152.8125 c -3.84637,0 -5.552362,-1.76912 -5.143609,-5.33393 0.301012,-2.62517 0.330424,-2.63581 8.036492,-2.90711 4.253906,-0.14976 7.724062,-0.57164 7.711457,-0.9375 -0.01261,-0.36587 -0.432096,-2.43811 -0.9322,-4.60498 -0.759643,-3.2914 -0.610511,-4.44853 0.906195,-7.03125 0.998513,-1.70031 3.719498,-10.05242 6.046633,-18.56023 2.327135,-8.50781 5.403926,-18.421875 6.837313,-22.03125 2.144604,-5.400272 2.566539,-7.778183 2.38245,-13.426833 C 81.508149,69.638706 80.745796,68.07801 75.681387,65.494341 70.825625,63.017116 62.8125,56.365366 62.8125,54.811789 c 0,-0.629588 0.681177,-1.710032 1.513726,-2.400987 1.314822,-1.091205 1.886857,-0.791162 4.353374,2.283421 2.928729,3.650744 12.293632,9.055777 15.690277,9.055777 1.8357,0 1.853418,-0.106725 0.38882,-2.341984 C 83.84153,60.008241 83.392781,57.917212 83.643275,56.210489 84.137666,52.841986 83.254254,52.030366 80.625,53.4375 c -1.052562,0.563315 -2.383901,0.733639 -2.958531,0.378498 -1.927434,-1.191221 3.071409,-2.927114 8.657268,-3.006316 7.102942,-0.100712 10.238763,2.105707 10.238763,7.204178 0,1.926524 -0.587044,4.305601 -1.304541,5.286838 -1.154128,1.57837 -1.08209,1.896278 0.624835,2.757309 1.061147,0.535283 3.392184,3.643871 5.180076,6.907972 3.00048,5.4779 3.13346,6.051982 1.72746,7.457972 -0.83778,0.837784 -3.320052,2.184621 -5.516155,2.992972 -3.737814,1.375827 -4.011184,1.719661 -4.278709,5.381576 -0.199279,2.727767 0.913131,7.403523 3.675081,15.447301 l 3.960873,11.53545 -2.144008,10.63016 c -1.179206,5.84659 -2.34389,11.39452 -2.588193,12.32873 -0.33825,1.29347 0.261937,1.85364 2.516643,2.34886 1.628458,0.35766 3.188398,1.24334 3.466538,1.96816 0.40207,1.04776 3.27433,1.31784 14.01494,1.31784 l 13.50924,0 -2.28198,-4.50329 c -2.17715,-4.29638 -2.31147,-5.59932 -2.92354,-28.35938 -0.42784,-15.909099 -0.31502,-24.636834 0.33866,-26.19983 0.81545,-1.949771 0.89339,-1.628478 0.46372,1.911353 -0.39152,3.225397 -0.15194,4.557669 0.99003,5.505417 1.26731,1.05178 1.50653,1.031858 1.50653,-0.125427 0,-2.29817 3.46016,-4.752831 6.01207,-4.265002 1.93412,0.369729 2.39155,0.03255 2.70489,-1.993805 0.29253,-1.89179 0.40861,-1.68607 0.51757,0.917204 0.17243,4.119633 14.85424,36.07911 18.94992,41.25033 2.79062,3.52344 2.97856,5.54993 0.5147,5.54993 -1.78657,0 -9.94717,-5.63995 -9.96241,-6.88522 -0.007,-0.59595 -3.13366,-5.81588 -6.94748,-11.59986 l -6.93422,-10.51632 -0.65655,4.77368 c -0.75316,5.47615 0.12344,22.35375 1.53833,29.61834 l 0.95862,4.92188 25.61314,0 25.61315,0 0.51797,-2.10938 c 1.50981,-6.14854 1.67812,-13.39211 0.64159,-27.61044 -0.63147,-8.66191 -1.33885,-16.062196 -1.57196,-16.44508 -0.32928,-0.540816 -7.12508,2.25172 -8.58512,3.52781 -0.162,0.14158 1.20909,3.24327 3.04687,6.89261 2.22663,4.42149 3.30442,7.8159 3.2305,10.17421 -0.31731,10.12417 -3.35321,12.52332 -5.0715,4.00777 -0.59593,-2.95337 -2.91534,-8.35207 -5.429,-12.63665 -2.41372,-4.11422 -4.38858,-8.43579 -4.38858,-9.60349 0,-2.242757 3.21098,-4.936813 12.04225,-10.10361 3.32472,-1.945152 4.64184,-3.246174 4.27094,-4.21875 -1.41225,-3.703225 -2.51625,-19.847273 -1.56843,-22.935532 0.89826,-2.926815 0.78055,-3.368904 -1.25162,-4.700431 -1.95765,-1.282701 -2.24314,-2.193283 -2.24314,-7.154584 0,-5.428015 0.12434,-5.731757 2.75249,-6.723771 2.4099,-0.909637 2.69019,-1.395407 2.25204,-3.90294 -0.27524,-1.575196 -1.12846,-4.602426 -1.89606,-6.727179 -1.63835,-4.535022 -1.34632,-8.324313 0.64153,-8.324313 1.25884,0 2.4571,3.054584 7.07726,18.041179 0.27924,0.905764 0.89173,0.923684 2.74289,0.08024 1.85906,-0.84704 2.89721,-0.810937 4.71911,0.164115 2.63771,1.411658 3.22117,3.372136 0.69511,2.335622 -3.93881,-1.616207 -4.39283,-1.134567 -5.13959,5.452178 -0.44911,3.961445 -0.36329,7.059792 0.22608,8.161033 0.55253,1.032404 0.7077,4.440676 0.37086,8.145413 -0.41149,4.525652 -0.12984,8.089187 0.97268,12.306685 1.36759,5.231477 1.42557,7.736482 0.48827,21.093745 -0.58499,8.33651 -0.93274,19.1651 -0.77277,24.06354 0.26739,8.18832 0.0837,9.303 -2.27907,13.82812 l -2.56991,4.92188 18.31283,0 18.31283,0 -2.3073,-4.55326 c -2.10382,-4.15168 -2.2309,-5.08188 -1.4409,-10.54688 0.47654,-3.29649 0.8749,-7.00821 0.88527,-8.24829 0.0185,-2.20421 -0.0236,-2.21624 -1.8783,-0.53778 -1.46327,1.32425 -2.15147,1.46259 -3.00919,0.60487 -0.85771,-0.85771 -0.42584,-2.50357 1.8884,-7.1966 1.65024,-3.34651 3.34811,-6.08456 3.77305,-6.08456 0.42494,0 1.46503,-1.45202 2.31132,-3.2267 l 1.53871,-3.2267 -5.10957,-1.485389 c -3.44204,-1.000632 -5.62983,-2.27941 -6.70373,-3.918385 -1.54161,-2.352806 -1.50317,-2.601892 1.16638,-7.558084 1.5183,-2.818802 3.11903,-5.349739 3.55719,-5.624305 0.43816,-0.274565 0.29851,0.431584 -0.31033,1.56922 -0.60885,1.137635 -0.96734,2.137765 -0.79666,2.222509 0.17068,0.08475 2.8062,1.419707 5.8567,2.966582 3.0505,1.546875 5.95929,2.9735 6.46396,3.170278 0.56151,0.218938 0.72213,-1.376302 0.41392,-4.110803 -0.30794,-2.73199 -0.18414,-3.964031 0.31855,-3.170278 0.45223,0.714066 0.83808,2.985803 0.85744,5.048303 0.0212,2.252585 0.76727,4.685888 1.86851,6.09375 2.44977,3.13185 2.39898,3.465762 -1.50565,9.898902 -2.86776,4.72483 -3.58108,7.06327 -4.70183,15.4136 -1.28057,9.54121 -1.20807,11.51974 0.69565,18.98437 l 0.8966,3.51563 26.78291,0 c 25.13586,0 26.74203,-0.1009 26.11799,-1.64063 -1.8363,-4.53072 -2.33609,-7.71086 -3.8676,-24.60937 -1.84055,-20.308577 -1.92702,-23.895996 -0.87,-36.093752 0.59394,-6.853949 0.3494,-10.632375 -1.30291,-20.132262 -1.11875,-6.432119 -2.52183,-11.996208 -3.11797,-12.364642 -0.77849,-0.481135 -0.64706,-1.15256 0.46647,-2.382998 0.8527,-0.942217 2.01567,-4.625903 2.58439,-8.185971 1.10212,-6.898991 1.50209,-8.027875 2.84429,-8.027875 1.9713,0 2.91541,3.874697 1.9953,8.188812 -0.76026,3.56459 -0.64794,4.701983 0.63944,6.47567 0.85892,1.183378 2.21932,2.164853 3.02311,2.181057 0.80379,0.0162 2.28036,0.648856 3.28125,1.405896 1.00089,0.757038 2.19072,1.389851 2.64407,1.40625 1.06228,0.03843 -0.19563,-12.91971 -1.48873,-15.335892 -0.7706,-1.439878 -0.61249,-2.097735 0.74224,-3.088337 2.64735,-1.935791 3.5796,-1.060888 4.7537,4.461292 1.61347,7.588592 1.46529,13.343696 -0.54936,21.336552 -1.69494,6.724452 -3.79282,16.774365 -5.149,24.66631 l -0.58708,3.416359 5.19018,-1.911923 c 5.00441,-1.843494 5.25693,-1.851518 7.05511,-0.224184 1.02571,0.928257 1.86319,2.360636 1.86105,3.183064 -0.005,1.897679 -4.69727,9.353515 -10.93027,17.367484 -4.73164,6.08362 -4.85543,6.40396 -5.50962,14.25744 -0.7627,9.15609 -0.18581,19.28475 1.31418,23.07352 1.01872,2.57318 1.03874,2.57813 10.41889,2.57813 7.82072,0 9.68313,-0.28493 11.09575,-1.69755 0.93365,-0.93365 2.64467,-2.36093 3.80226,-3.17174 2.37421,-1.66297 7.41554,-18.2942 10.03324,-33.09946 0.8205,-4.64063 1.88555,-9.726347 2.36678,-11.301609 0.66315,-2.170809 0.42557,-4.170237 -0.98149,-8.259918 -3.24379,-9.42822 -4.02986,-15.818929 -2.49409,-20.276556 1.2505,-3.629571 1.21778,-4.051139 -0.4433,-5.712224 -2.57038,-2.570376 -2.46097,-9.563427 0.19112,-12.215517 1.60712,-1.607119 2.76894,-1.896165 6.10857,-1.51974 2.26819,0.255658 4.35316,0.09403 4.63325,-0.359176 0.93855,-1.518606 4.96563,-0.844226 6.29535,1.054227 1.25985,1.798683 1.38673,1.720444 2.99552,-1.847214 1.94956,-4.323345 4.62045,-7.043967 6.04867,-6.161283 2.73366,1.689502 -0.96215,9.451248 -8.85975,18.606734 l -6.31449,7.320223 0.66091,8.617277 c 0.39373,5.133699 1.39478,10.290664 2.47628,12.756714 2.91559,6.648168 8.27738,30.409232 10.00642,44.343932 l 1.59549,12.85839 8.45023,0.30642 c 4.64763,0.16854 -62.13509,0.39399 -148.40605,0.501 l -156.856267,0.19457 0.293774,3.04687 0.293773,3.04688 156.5625,0.47288 156.5625,0.47287 -131.01563,0.23025 c -105.99029,0.18627 -131.01562,0.46042 -131.01562,1.43527 0,0.66277 -8.584941,13.84636 -19.077649,29.29688 l -19.077648,28.09185 150.093277,0.47303 150.09327,0.47305 -159.375,0.0393 c -87.65625,0.0216 -156,-0.11268 -151.875,-0.29839 z m 45.782081,-57.64008 c 0.416109,-1.5217 -0.875062,-1.64062 -17.813104,-1.64062 l -18.261735,0 2.646379,3.1535 c 1.455508,1.73442 6.214379,7.1796 10.575267,12.10039 l 7.92889,8.9469 7.237831,-10.45977 c 3.980807,-5.75287 7.439722,-11.19805 7.686472,-12.1004 z M 69.375,144.07843 c 0,-5.90034 8.890884,-29.7221 15.511724,-41.56126 4.800775,-8.584592 3.928074,-13.47639 -1.928174,-10.808105 -3.583288,1.632656 -4.802537,4.398288 -9.372467,21.259685 -2.37574,8.76563 -5.131819,17.32074 -6.124619,19.01137 -1.567896,2.66997 -1.673753,3.68628 -0.805592,7.73438 0.549724,2.56327 1.386415,4.6605 1.859313,4.6605 0.472898,0 0.859815,-0.13345 0.859815,-0.29657 z m 20.960768,-3.21906 c 0.319603,-1.93359 0.596053,-5.83593 0.614332,-8.67187 0.01828,-2.83594 0.442627,-6.93009 0.942993,-9.09813 0.771848,-3.34434 0.538308,-4.97864 -1.540634,-10.78125 -3.946876,-11.01626 -4.026417,-11.10255 -6.2473,-6.7777 -6.091448,11.86223 -13.792659,33.38574 -13.792659,38.54801 0,0.16312 4.374488,0.29657 9.721086,0.29657 l 9.721084,0 0.581098,-3.51563 z M 101.25,143.51199 c 0,-0.47465 -1.260788,-1.13993 -2.801747,-1.47838 -1.540969,-0.33845 -3.012431,-0.95626 -3.269934,-1.37291 -0.257503,-0.41664 0.651384,-6.05423 2.019759,-12.52797 l 2.487947,-11.77043 -2.5857,-8.11728 c -1.422131,-4.46451 -3.205097,-9.599704 -3.96213,-11.411545 l -1.376432,-3.294266 -2.287131,3.100035 c -1.257923,1.705012 -2.287132,3.487036 -2.287132,3.960046 0,0.47301 1.476243,4.80146 3.28054,9.61878 2.938704,7.84609 3.189805,9.22725 2.409766,13.25472 -0.478925,2.47278 -1.090882,8.18737 -1.359904,12.69908 l -0.48913,8.20313 5.110616,0 c 2.81084,0 5.110612,-0.38836 5.110612,-0.86301 z m 31.4975,-1.24637 c -1.34188,-4.74769 -2.55612,-24.20748 -1.98348,-31.78776 0.53073,-7.02556 0.36186,-8.60835 -1.25695,-11.781469 -1.02852,-2.016066 -2.58844,-4.2618 -3.4665,-4.990524 -1.49907,-1.244117 -1.55385,-0.01059 -0.89802,20.218963 0.65292,20.13937 0.84524,21.83425 2.95,25.99704 2.35228,4.65238 5.79776,6.38716 4.65495,2.34375 z m 58.21313,-2.8125 c 2.395,-4.61415 2.54238,-5.59591 2.35725,-15.70312 -0.1086,-5.92969 0.15447,-15.42187 0.58463,-21.09375 0.72873,-9.609077 0.65379,-10.456382 -1.09864,-12.421875 -2.3071,-2.587616 -3.5863,-2.650234 -5.73085,-0.28053 -1.52967,1.690258 -1.56776,2.694171 -0.50277,13.247985 1.35866,13.46385 1.69178,31.56827 0.68429,37.18879 -0.98464,5.49311 0.57275,5.09915 3.70609,-0.9375 z m 38.46855,3.72594 c -2.08684,-5.43819 -2.49741,-12.01773 -1.31656,-21.09777 l 1.25335,-9.63746 -3.0121,2.91944 c -1.84965,1.79275 -2.84611,3.55416 -2.582,4.56413 0.23656,0.90458 0.003,4.73057 -0.5202,8.50218 -0.89035,6.42493 -0.80505,7.1441 1.35231,11.40145 1.29888,2.5632 2.95244,4.54397 3.79336,4.54397 0.82344,0 1.28533,-0.53535 1.03184,-1.19594 z m 57.7447,-3.25719 c -1.03676,-3.31521 -1.27952,-7.35667 -0.95004,-15.81595 0.39394,-10.1144 0.27377,-11.35042 -1.09376,-11.25 -2.33578,0.17154 -1.80421,-8.274 0.73712,-11.71134 2.422,-3.275927 2.42293,-3.593946 0.008,-2.962614 -3.0198,0.789703 -6.36878,-1.424935 -5.78659,-3.826604 0.63875,-2.635072 2.89007,-5.169404 6.03831,-6.797427 1.82887,-0.945739 2.70693,-2.294543 3.14165,-4.825893 0.33185,-1.932311 1.18929,-6.44478 1.90545,-10.02771 1.25858,-6.296656 1.23435,-6.586535 -0.72472,-8.671875 -2.69601,-2.869767 -6.11288,-2.759432 -8.49933,0.274453 -1.64496,2.091225 -1.96137,4.094066 -2.25867,14.296875 -0.19016,6.525731 -0.40864,13.97434 -0.48553,16.552465 -0.24531,8.22607 3.04063,41.10112 4.52128,45.23437 0.96886,2.70457 1.97522,3.98438 3.13305,3.98438 1.60533,0 1.62375,-0.26205 0.31309,-4.45313 z m 29.67365,3.1916 c 3.22304,-1.35519 2.98168,-0.78912 14.15521,-33.19826 2.00117,-5.80446 4.52484,-11.752407 5.60816,-13.217672 l 1.96967,-2.664122 -2.32747,-5.532331 c -1.59635,-3.794482 -2.54537,-8.321419 -3.02115,-14.411192 -0.4773,-6.109257 -0.92685,-8.248537 -1.44118,-6.85816 -0.41113,1.111382 -1.68713,2.523563 -2.83555,3.13818 -1.75054,0.936858 -2.28945,0.842035 -3.33412,-0.586649 -1.53875,-2.104354 -1.57644,-3.45293 -0.13673,-4.892639 0.61016,-0.610157 0.85528,-1.363476 0.54471,-1.674044 -1.18085,-1.18085 -2.95406,4.009209 -2.90681,8.507997 0.0449,4.273373 1.7571,11.735831 4.11665,17.941925 0.7559,1.988149 1.15954,2.211132 2.2957,1.268206 1.90664,-1.582374 5.80803,-0.418382 7.11651,2.123235 l 1.08026,2.098306 -2.02722,-2.109375 c -4.92764,-5.127347 -7.95458,-1.780413 -10.39301,11.491695 -1.69266,9.2129 -2.99009,14.51255 -7.14756,29.19557 -1.03439,3.65318 -2.1543,5.36401 -4.60264,7.03125 -1.77961,1.21185 -3.23853,2.51977 -3.24206,2.90648 -0.01,1.10309 3.23778,0.8253 6.52863,-0.5584 z m 18.36784,0.22838 c 0.35119,-0.56824 2.0871,-1.63842 3.85758,-2.37817 2.31371,-0.96673 3.08755,-1.79676 2.75147,-2.95122 -0.25716,-0.88342 -1.39055,-6.00137 -2.51863,-11.37324 -1.12808,-5.37186 -3.00932,-11.91092 -4.18052,-14.53125 -2.05056,-4.58769 -2.16182,-4.67738 -3.00269,-2.42047 -1.10235,2.95871 -10.59112,30.05722 -11.08712,31.66314 -0.2029,0.65693 -1.32747,1.5794 -2.49905,2.04996 -1.51382,0.60801 0.49858,0.87275 6.95513,0.91497 5.66839,0.037 9.32545,-0.32914 9.72383,-0.97372 z m 11.65963,-1.61616 c 0,-7.1009 -6.40377,-42.565715 -8.13678,-45.062409 -0.691,-0.995522 -3.22818,2.409131 -4.1916,5.624739 -0.96706,3.22775 -0.81515,4.27581 1.37667,9.49816 3.33132,7.93736 7.38692,27.01729 6.078,28.59443 -0.53948,0.65005 -1.4814,1.18189 -2.09315,1.18189 -0.61175,0 -1.93119,0.6194 -2.93208,1.37644 -1.66355,1.25823 -1.31667,1.37898 4.03956,1.40625 5.81225,0.0295 5.85938,0.008 5.85938,-2.6195 z M 157.5,132.55678 c 0,-0.31251 -1.28432,-2.18979 -2.85404,-4.17172 -1.56972,-1.98194 -6.0134,-10.43874 -9.87483,-18.79288 -8.77083,-18.975529 -9.68906,-20.52968 -12.12951,-20.52968 -2.40913,0 -4.20412,1.690043 -4.20412,3.95831 0,2.561674 6.65191,15.10187 13.06779,24.63544 3.12304,4.64062 5.67914,8.87058 5.68023,9.3999 0.003,1.15536 7.36663,6.06885 9.09589,6.06885 0.67023,0 1.21859,-0.25569 1.21859,-0.56822 z m 23.77327,-8.5724 c 1.04758,-6.33786 0.64336,-8.636 -2.67952,-15.23438 -1.80469,-3.58363 -3.28125,-6.73005 -3.28125,-6.99205 0,-0.26201 2.10937,-1.54527 4.6875,-2.8517 4.47381,-2.267044 4.6875,-2.55015 4.6875,-6.209845 0,-4.524051 0.0765,-4.535929 -9.23673,1.433714 -5.01016,3.211434 -6.70077,4.820644 -6.70077,6.378141 0,1.14568 2.07217,5.6836 4.60483,10.08427 2.79447,4.85557 4.86348,9.75195 5.2627,12.45435 0.79074,5.35254 1.86339,5.73119 2.65574,0.9375 z m 45.24817,-9.8447 c 3.54602,-3.73881 7.22751,-8.54124 8.18108,-10.67207 1.64167,-3.668438 1.6488,-4.00396 0.13401,-6.315798 -2.12603,-3.244743 -17.86887,-12.163521 -15.92853,-9.023978 0.31771,0.514066 0.14573,0.934666 -0.38219,0.934666 -0.52791,0 -1.43996,0.897114 -2.02678,1.993587 -1.802,3.367066 0.22216,6.139994 5.66103,7.755166 2.60965,0.774984 5.15684,1.663697 5.66041,1.974917 0.97221,0.60086 -2.12037,7.54349 -3.61337,8.11172 -0.46366,0.17648 -1.95151,2.52168 -3.30631,5.21157 -4.59082,9.1148 -3.0036,9.12333 5.62065,0.0302 z m 64.6931,-8.77562 c 6.95511,-9.016951 11.58908,-16.329636 11.59408,-18.296143 0.002,-0.839209 -0.63299,-2.054392 -1.4114,-2.700409 -1.1551,-0.958648 -2.70431,-0.704437 -8.42722,1.382823 -8.94141,3.261113 -11.91722,5.53386 -11.5374,8.811563 0.5128,4.425234 6.54272,3.388734 13.8799,-2.385862 1.80469,-1.420348 0.44632,0.06595 -3.01858,3.302887 -4.34781,4.061737 -6.59747,6.956971 -7.2604,9.343841 -1.18116,4.25277 -1.24679,7.67724 -0.14711,7.67724 0.45315,0 3.30081,-3.21117 6.32813,-7.13594 z M 91.84178,88.66757 c 0.01827,-1.506275 -0.64092,-3.483598 -1.464868,-4.394051 -1.743022,-1.926017 -1.089497,-3.424002 2.007475,-4.601469 2.658219,-1.010653 3.785272,-5.634266 2.524832,-10.357873 -0.685453,-2.568833 -1.281546,-3.173026 -2.946092,-2.986151 -1.14772,0.128851 -2.902696,-0.202398 -3.899946,-0.73611 C 86.506664,64.758892 86.25,64.9374 86.25,66.852965 c 0,1.227288 -0.874368,3.022726 -1.94304,3.98986 -1.687237,1.526928 -1.863769,2.441428 -1.340912,6.946399 0.477674,4.115666 0.201078,6.123585 -1.33821,9.714598 -1.067186,2.489644 -1.940338,4.682966 -1.940338,4.874048 0,0.191083 1.257545,-0.371237 2.794544,-1.249598 3.325591,-1.900504 5.922494,-0.816451 6.438072,2.687512 l 0.326366,2.218041 1.281039,-2.313786 c 0.704571,-1.272584 1.295987,-3.546196 1.314259,-5.052469 z M 193.5492,80.443226 c -1.03267,-4.213899 -1.42103,-8.347439 -1.08772,-11.576966 0.31347,-3.037224 -0.008,-6.987193 -0.81394,-9.991492 -0.7328,-2.732685 -1.77092,-7.710706 -2.30694,-11.062268 -1.27882,-7.996043 -5.40506,-21.5625 -6.55823,-21.5625 -1.3463,0 -1.09931,4.288343 0.46222,8.025623 1.75287,4.195189 3.6924,22.027981 2.87165,26.402961 -0.43589,2.323481 -0.24882,3.585395 0.61247,4.131477 1.74729,1.107842 2.31287,1.014429 3.98557,-0.658276 0.81028,-0.810267 1.47322,-1.036048 1.47322,-0.501734 0,1.794898 -3.58843,3.064887 -5.60723,1.984464 -1.66537,-0.891282 -1.80042,-1.660544 -1.30742,-7.447113 0.49765,-5.841185 0.36845,-6.550208 -1.3624,-7.47653 C 180.72709,49.007186 180,49.517898 180,53.457599 c 0,3.117413 0.40808,3.956034 2.35721,4.844119 1.86311,0.848884 2.20701,1.483355 1.64063,3.026776 -1.07136,2.919524 -0.65064,16.730728 0.70413,23.114676 1.09745,5.171463 1.31228,5.495168 2.77081,4.175217 2.11505,-1.914103 3.14959,-1.805433 5.27254,0.553839 l 1.78593,1.984727 0.31205,-2.079867 c 0.17163,-1.143927 -0.41072,-5.029164 -1.2941,-8.63386 z m -96.74505,2.236238 c 6.58233,-2.499896 6.82983,-2.995969 4.12542,-8.268629 C 99.641194,71.898938 97.901372,69 97.063312,67.96875 c -1.444528,-1.777515 -1.491853,-1.655659 -0.910218,2.34375 0.337443,2.320312 1.213903,4.899678 1.947675,5.731924 1.174022,1.331555 1.053206,1.697254 -1.006575,3.046875 -1.287403,0.843535 -3.174422,1.533701 -4.193382,1.533701 -2.088923,0 -3.302748,1.403699 -2.432062,2.8125 0.774985,1.253953 1.1586,1.208053 6.3354,-0.758036 z m 1.048631,-5.992106 c -0.813215,-1.315816 -1.99395,-0.807781 -2.484768,1.069125 -0.407607,1.55868 -0.230691,1.665989 1.236262,0.749859 0.941569,-0.588019 1.503394,-1.406562 1.248506,-1.818984 z M 85.3125,66.916458 c 0,-1.374778 -0.549147,-2.228958 -1.432985,-2.228958 -2.906342,0 -12.519746,-5.657438 -15.257742,-8.979102 C 65.98456,52.509002 63.75,52.046727 63.75,54.700552 c 0,1.542099 7.074095,7.378283 11.972047,9.877032 2.165917,1.104968 4.630367,3.065672 5.476555,4.357118 1.2056,1.839977 1.817169,2.116829 2.826211,1.279399 0.708228,-0.587777 1.287687,-2.071716 1.287687,-3.297643 z m 243.81163,2.425557 c 0.99735,-0.533767 1.81337,-1.366415 1.81337,-1.850329 0,-0.483914 1.80974,-2.689586 4.02165,-4.901494 2.21191,-2.211907 5.70338,-6.149201 7.75883,-8.749542 5.07418,-6.419307 7.95854,-15.408868 4.19841,-13.084983 -0.56147,0.347007 -2.23,3.02597 -3.70785,5.953252 -1.47868,2.928929 -5.02747,7.535651 -7.89165,10.244206 -4.76917,4.510058 -6.24904,5.38913 -8.43345,5.009666 -0.42504,-0.07384 -0.49419,0.31656 -0.15366,0.867548 0.34052,0.550987 0.12609,1.595883 -0.47653,2.321989 -0.60261,0.726107 -0.82143,2.18419 -0.48628,3.240183 0.70071,2.207738 0.90054,2.264253 3.35716,0.949504 z M 93.75,63.75 c 2.515088,-2.515087 2.559591,-7.5 0.06694,-7.5 -2.756025,0 -4.754437,2.589492 -4.754437,6.160715 0,3.746087 1.773876,4.252909 4.6875,1.339285 z m 187.11647,-3.85819 c -1.35971,-2.301813 -1.59889,-3.98683 -1.13098,-7.967971 0.59744,-5.083299 -0.0938,-6.223166 -2.22015,-3.661067 -0.89731,1.081187 -0.91368,2.78986 -0.0742,7.734375 1.65769,9.762752 1.82281,10.140614 3.63806,8.325362 1.39042,-1.390422 1.37337,-1.74552 -0.21281,-4.430699 z m 13.84815,-2.896981 c 1.8055,-7.392402 1.90335,-11.134435 0.50165,-19.183661 -1.06072,-6.091065 -1.33334,-6.486749 -3.51619,-5.103538 -1.02582,0.650038 -1.04786,1.21649 -0.11514,2.959311 1.79635,3.356495 1.5781,16.524819 -0.36167,21.821304 -1.31791,3.59857 -1.42188,4.800615 -0.51021,5.899108 1.58005,1.903851 2.22815,0.868518 4.00156,-6.392524 z m 31.92745,4.311119 C 328.4162,60.625154 328.66481,55.289816 327,53.625 326.38125,53.00625 324.90469,52.5 323.71875,52.5 c -1.83073,0 -2.15625,0.485248 -2.15625,3.214285 0,1.767858 0.66294,3.877233 1.47322,4.6875 1.68062,1.680628 1.62152,1.665812 3.60635,0.904163 z M 338.47116,49.75038 c -1.93558,-3.61665 -4.18353,-2.034009 -4.22008,2.971086 l -0.0324,4.426989 2.67504,-2.673538 c 2.31555,-2.314262 2.52751,-2.949156 1.57737,-4.724537 z m -58.31504,-6.391005 c 1.28843,-2.495424 2.14197,-8.230347 1.4812,-9.952272 -1.01484,-2.644622 -2.07499,-1.681329 -2.69885,2.452272 -0.33073,2.191406 -0.82321,5.144531 -1.09439,6.5625 -0.55236,2.888232 0.98333,3.510934 2.31204,0.9375 z m -143.8989,38.54563 c 0.32713,-0.58506 0.98532,-3.821417 1.46264,-7.191904 0.7579,-5.351739 0.62816,-6.612615 -1.02398,-9.951881 -1.78179,-3.60132 -2.1301,-3.82372 -5.98852,-3.82372 -3.61861,0 -4.26927,0.333692 -5.57534,2.859355 -0.81325,1.572645 -1.25281,3.576552 -0.97682,4.453125 1.03598,3.290348 2.05401,13.20483 1.30858,12.744128 -0.42696,-0.263871 -0.77628,-1.699727 -0.77628,-3.190792 0,-5.497818 -2.16975,-12.822706 -5.72437,-19.32498 -2.00785,-3.672853 -3.65063,-7.679227 -3.65063,-8.903054 0,-3.588755 4.76173,-16.850115 6.25628,-17.423622 2.66339,-1.02204 3.40856,1.169736 2.16296,6.36196 -1.04488,4.355572 -1.00209,5.044703 0.37585,6.052279 0.92882,0.679171 3.20214,0.951387 5.64538,0.675999 3.30326,-0.372325 4.47228,-0.07914 6.07496,1.523528 1.09151,1.091516 1.99799,3.14473 2.01438,4.562699 0.0288,2.485851 0.0798,2.512053 1.42543,0.732092 2.07291,-2.741929 3.58509,-8.822474 3.43823,-13.825305 -0.13931,-4.745779 0.92661,-6.268149 3.11634,-4.450829 2.53659,2.105177 1.67123,10.204331 -2.26685,21.216124 -1.99763,5.585823 -4.10969,13.723576 -4.69348,18.083895 -0.58379,4.360318 -1.54251,8.36813 -2.13049,8.90625 -0.75202,0.68824 -0.89267,0.662929 -0.47427,-0.08535 z m 6.1823,-26.421597 c 3.11445,-8.801659 3.86085,-12.110822 3.63102,-16.098185 -0.18863,-3.272788 -0.74681,-5.170055 -1.60425,-5.452977 -1.0262,-0.338607 -1.19571,0.30092 -0.77193,2.912364 0.68667,4.231443 -1.02887,10.747642 -4.78119,18.160555 -2.54634,5.030448 -2.79759,6.163388 -1.92312,8.671875 0.55323,1.587003 1.12361,2.88546 1.26752,2.88546 0.1439,0 2.02578,-4.985591 4.18195,-11.079092 z m -17.22991,6.288406 c 0.98954,-1.913566 1.10417,-2.666253 0.33351,-2.189958 -0.83233,0.514409 -0.9945,0.257293 -0.55692,-0.883006 0.35384,-0.922112 0.23632,-1.37326 -0.27536,-1.057026 -0.53644,0.331539 -0.80102,-1.69808 -0.66299,-5.085913 0.14999,-3.681435 -0.1573,-5.786127 -0.88561,-6.065604 -1.84647,-0.708558 -2.38755,3.912968 -0.81431,6.955283 0.79763,1.542425 1.23928,2.80441 0.98147,2.80441 -0.25781,0 -1.12665,-1.272232 -1.93074,-2.827181 -1.34648,-2.603798 -1.31134,-3.461508 0.44467,-10.855272 2.26838,-9.551085 2.28045,-9.755047 0.57741,-9.755047 -1.42934,0 -6.17074,12.865773 -6.17074,16.744297 0,1.746679 6.39313,15.09913 7.24155,15.124431 0.11567,0.0035 0.88879,-1.305786 1.71806,-2.909414 z m 11.51928,-4.169286 c 0.60081,-1.318608 0.81939,-3.485085 0.48576,-4.81439 l -0.60661,-2.41692 -1.23955,2.236265 C 133.98057,55.111417 133.63738,60 134.84951,60 c 0.43287,0 1.27858,-1.078862 1.87938,-2.397472 z M 231.8367,80.625 c 3.38922,-14.765721 2.66916,-18.821508 -3.40708,-19.190413 -2.89762,-0.175923 -3.79359,0.271866 -5.79545,2.896443 -2.27022,2.97641 -2.32677,3.362276 -1.37028,9.349717 0.54873,3.43485 0.82072,6.422144 0.60443,6.638432 -0.21628,0.216287 -0.62275,-0.997516 -0.90327,-2.69734 -0.28051,-1.699824 -1.45978,-8.96876 -2.62061,-16.153191 l -2.11057,-13.062601 2.17683,-6.156149 c 2.83918,-8.029333 6.37477,-15.062398 7.57202,-15.062398 1.99878,0 2.00778,3.199415 0.0285,10.143676 -1.1287,3.96004 -2.28726,8.043824 -2.57458,9.075074 -0.42468,1.524269 -0.29226,1.655793 0.70797,0.703125 0.67669,-0.644531 2.15554,-1.171875 3.28631,-1.171875 1.13077,0 2.29878,-0.632813 2.59558,-1.40625 0.29679,-0.773438 1.36819,-1.40625 2.38087,-1.40625 2.36624,0 3.18294,-2.663361 2.40581,-7.84564 -0.72878,-4.859826 0.61658,-6.312241 3.46184,-3.737318 1.65044,1.49363 1.86147,2.625322 1.56912,8.414748 -0.25794,5.10792 -0.0578,6.581606 0.84653,6.234567 1.68037,-0.644821 1.4749,1.365348 -0.23752,2.323666 -0.84461,0.472668 -1.95413,3.631469 -2.73304,7.780959 -2.46087,13.109873 -5.25229,25.611244 -5.83729,26.142416 -0.32124,0.291694 -0.342,-0.524336 -0.0461,-1.813398 z m -9.26349,-17.348588 c 1.40509,-2.144449 1.41364,-2.779289 0.0984,-7.303715 -1.40229,-4.823693 -1.36564,-5.221696 1.38147,-15.005028 1.55208,-5.527447 2.82196,-10.678275 2.82196,-11.446285 0,-4.384677 -3.49097,1.674811 -8.0098,13.903112 -1.48817,4.027085 -1.54458,5.33541 -0.51892,12.03546 1.08133,7.063682 1.82195,10.165044 2.42745,10.165044 0.14334,0 0.95311,-1.056864 1.79948,-2.348588 z m 14.67637,-9.510587 c 2.07554,-12.722022 2.30884,-20.082405 0.68792,-21.703325 -2.04949,-2.04949 -2.53847,-1.17978 -2.39828,4.265625 0.24571,9.544931 -0.78026,22.725417 -1.85243,23.797585 -0.75463,0.754635 -0.76139,1.657218 -0.0245,3.274504 0.55951,1.227991 1.18774,2.062267 1.39605,1.853948 0.20832,-0.208319 1.19439,-5.37807 2.19125,-11.488337 z m -4.19842,5.990034 c 0.12051,-0.123534 0.5125,-1.795265 0.87107,-3.714955 0.58769,-3.146273 0.4111,-3.60009 -1.79139,-4.603608 -1.84364,-0.84002 -3.0186,-0.851157 -4.78709,-0.04537 C 225.42129,52.267852 225,53.123442 225,56.151779 c 0,2.057832 0.5187,3.916671 1.17187,4.199625 1.03584,0.448719 6.30559,-0.0075 6.87929,-0.595542 z m 1.08933,-14.365361 c -0.89339,-0.893398 -2.68452,0.553686 -2.01871,1.630969 0.39573,0.640315 0.92011,0.624138 1.59341,-0.04915 0.55196,-0.551958 0.74335,-1.263775 0.4253,-1.581813 z m 68.6532,-16.819404 c -1.55742,-1.876586 -0.44349,-2.934354 1.44214,-1.369421 1.04356,0.866079 1.75911,0.928389 2.47222,0.215281 1.57434,-1.574344 -0.0861,-3.26016 -2.59157,-2.631306 -2.37841,0.596941 -2.6742,-0.106668 -1.65058,-3.926273 0.42049,-1.569088 1.25766,-2.109375 3.26844,-2.109375 1.48673,0 2.70316,0.421875 2.70316,0.9375 0,0.515625 -0.84375,0.9375 -1.875,0.9375 -2.4976,0 -2.38022,1.208155 0.2289,2.355817 2.46285,1.083324 3.21369,3.724095 1.60872,5.65797 -1.46847,1.769404 -4.10822,1.737531 -5.60643,-0.0677 z M 315,29.0625 c 0,-0.515625 -1.05469,-0.9375 -2.34375,-0.9375 -1.28906,0 -2.34375,-0.43092 -2.34375,-0.9576 0,-1.319396 4.76875,-8.4174 5.65518,-8.4174 0.81352,0 1.72463,8.282288 1.10867,10.078125 C 316.59797,30.222808 315,30.403185 315,29.0625 Z m 0,-4.84375 c 0,-1.117187 -0.11938,-1.855468 -0.26528,-1.640625 -0.14591,0.214844 -0.83038,1.128906 -1.52104,2.03125 C 312.13876,26.013733 312.17696,26.25 313.47896,26.25 314.414,26.25 315,25.467438 315,24.21875 Z m 4.7418,4.440426 c -1.59559,-1.92256 -0.85594,-8.104519 1.11757,-9.340684 2.54601,-1.594766 4.87016,0.416187 5.21675,4.513756 C 326.39998,27.661194 325.04392,30 322.5,30 c -0.90498,0 -2.14617,-0.60337 -2.7582,-1.340824 z m 4.16445,-4.362301 c 0,-2.222222 -0.43064,-3.203125 -1.40625,-3.203125 -1.50097,0 -2.37963,3.426487 -1.4799,5.771141 0.95091,2.478017 2.88615,0.756091 2.88615,-2.568016 z m 4.58437,-1.258837 c -0.85294,-2.22271 0.3539,-4.4675 2.20967,-4.110112 1.03783,0.19987 1.64346,1.170727 1.64346,2.634574 0,2.672463 -2.95901,3.805599 -3.85313,1.475538 z m 2.13027,-2.647413 c -0.26007,-0.644531 -0.47287,-0.117188 -0.47287,1.171875 0,1.289062 0.2128,1.816406 0.47287,1.171875 0.26007,-0.644531 0.26007,-1.699219 0,-2.34375 z"
       id="path3378"
       inkscape:connector-curvature="0" />
  </g>
</svg>
