<?xml version="1.0" encoding="UTF-8" standalone="no"?>
<!-- Created with Inkscape (http://www.inkscape.org/) -->

<svg
   xmlns:dc="http://purl.org/dc/elements/1.1/"
   xmlns:cc="http://creativecommons.org/ns#"
   xmlns:rdf="http://www.w3.org/1999/02/22-rdf-syntax-ns#"
   xmlns:svg="http://www.w3.org/2000/svg"
   xmlns="http://www.w3.org/2000/svg"
   xmlns:sodipodi="http://sodipodi.sourceforge.net/DTD/sodipodi-0.dtd"
   xmlns:inkscape="http://www.inkscape.org/namespaces/inkscape"
   id="svg3396"
   version="1.1"
   inkscape:version="0.91 r13725"
   width="500"
   height="250"
   viewBox="0 0 500 250"
   sodipodi:docname="bb330602.svg">
  <metadata
     id="metadata3402">
    <rdf:RDF>
      <cc:Work
         rdf:about="">
        <dc:format>image/svg+xml</dc:format>
        <dc:type
           rdf:resource="http://purl.org/dc/dcmitype/StillImage" />
        <dc:title></dc:title>
      </cc:Work>
    </rdf:RDF>
  </metadata>
  <defs
     id="defs3400" />
  <sodipodi:namedview
     pagecolor="#aeaeae"
     bordercolor="#666666"
     borderopacity="1"
     objecttolerance="10"
     gridtolerance="10"
     guidetolerance="10"
     inkscape:pageopacity="0"
     inkscape:pageshadow="2"
     inkscape:window-width="1865"
     inkscape:window-height="1017"
     id="namedview3398"
     showgrid="false"
     inkscape:zoom="1.0088463"
     inkscape:cx="237.70996"
     inkscape:cy="55.349943"
     inkscape:window-x="0"
     inkscape:window-y="0"
     inkscape:window-maximized="0"
     inkscape:current-layer="svg3396" />
  <g
     id="g4716"
     transform="translate(13.281554,17.186822)">
    <path
       id="path4237"
       d="m 408.30273,30.693359 c -0.56536,-0.0275 -1.16941,0.139445 -1.98828,0.802735 -0.81887,0.66329 -0.7226,1.421286 0.17578,1.441406 2.3305,-0.0773 3.12593,-0.409842 3.2793,0.767578 0.0632,0.51077 -1.33008,1.486121 -1.33008,2.519531 0,0.50024 2.35992,1.838682 2.09375,2.832032 -0.335,1.25026 -2.03168,1.765172 -3.03515,-0.273438 -0.56296,-1.14367 -2.29184,-0.392629 -1.54102,1.400391 0.0795,0.14506 0.16541,0.278491 0.26172,0.394531 0.61203,0.73745 1.85479,1.339844 2.75977,1.339844 1.82596,0 2.8339,-0.239946 3.15039,-2.353516 0.31012,-2.07107 -0.19305,-2.885185 -1.46289,-3.578125 0.90486,-0.59094 1.36136,-1.959728 1.20117,-2.861328 -0.47663,-1.667 -1.82045,-2.346751 -3.56446,-2.431641 z m 8.875,0 c -0.58134,-0.0283 -1.20334,0.144279 -1.83984,0.542969 -1.97351,1.23617 -2.71475,7.419237 -1.11914,9.341797 0.61203,0.73745 1.85479,1.339844 2.75977,1.339844 2.54392,0 3.89807,-2.337076 3.57421,-6.166016 -0.25994,-3.07318 -1.63099,-4.973704 -3.375,-5.058594 z m -16.26367,0.07422 c -2.01078,0 -3.03555,0.59848 -3.50195,1.40625 -0.78226,1.35481 -0.82323,2.499694 -1.00586,3.771484 -0.19937,1.8037 -0.044,3.252752 0.86523,4.544922 1.49821,1.80523 4.137,1.835827 5.60547,0.06641 1.60497,-1.93387 0.85543,-4.57293 -1.60742,-5.65625 -2.60912,-1.14766 -2.29057,-2.189453 0.20703,-2.189453 1.03125,0 1.875,0.0469 1.875,-0.46875 0,-0.51562 -0.95077,-1.47461 -2.4375,-1.47461 z m 23.92383,0.04102 c -1.65858,-0.0397 -2.6688,2.064637 -1.86914,4.148437 0.89411,2.33006 3.85352,1.195908 3.85352,-1.476562 0,-1.46384 -0.60671,-2.432943 -1.64454,-2.632813 -0.11599,-0.0223 -0.22927,-0.03636 -0.33984,-0.03906 z m 0.0762,1.230468 c 0.0565,0.0211 0.11858,0.108402 0.1836,0.269532 0.26007,0.64453 0.26007,1.69922 0,2.34375 -0.26007,0.64453 -0.47265,0.117195 -0.47266,-1.171875 0,-0.96679 0.11949,-1.504576 0.28906,-1.441407 z m -7.93554,0.972657 c 0.97561,0 1.40625,0.980905 1.40625,3.203125 0,3.32411 -1.93581,5.046379 -2.88672,2.568359 -0.89973,-2.34466 -0.0205,-5.771484 1.48047,-5.771484 z M 304.7598,35.601567 c -1.03399,-0.34035 -5.90625,7.88815 -5.90625,9.97461 0,0.4992 -0.47889,2.095345 -1.0625,3.546875 -1.43358,3.56557 -1.07343,9.737962 1.02734,17.638672 0.95973,3.60938 2.04177,8.988285 2.4043,11.953125 0.14387,2.93895 -0.57723,5.743425 -1.34571,9.509765 -0.34302,1.88022 -1.02343,4.268495 -1.02343,6.234375 0,4.31158 2.8438,6.984591 8.4375,7.929691 l 3.69336,0.62305 -3.25391,4.83203 c -1.78958,2.65738 -3.25195,5.17525 -3.25195,5.59375 0,0.33186 0.87378,0.98796 2.0664,1.60938 1.90141,0.78945 3.64176,1.434 5.27344,1.87109 l -56.76758,0 c 0.41908,-0.26909 0.86004,-0.59871 1.35742,-1.07422 l 1.48828,-1.55273 c 2.82393,-2.94755 3.09948,-4.53982 1.25586,-7.24024 -0.69436,-1.01708 -2.00736,-3.00769 -2.91796,-4.42383 l -1.65626,-2.57617 5.4961,0.56641 c 4.78411,0.49196 5.8416,0.2918 8.16016,-1.544929 2.25312,-1.78495 2.59825,-2.630855 2.23632,-5.490235 -0.23531,-1.85916 -0.97607,-4.692912 -1.64648,-6.294922 -1.00125,-2.39263 -0.9985,-4.949113 0.0156,-14.314453 1.12453,-10.38314 1.38902,-11.352332 2.9668,-10.851562 2.29324,0.72784 2.23197,-1.119049 -0.0781,-2.355469 -0.99633,-0.53322 -2.07156,-1.919378 -2.38868,-3.080078 -1.16821,-4.27591 -7.39191,-15.703125 -8.55273,-15.703125 -2.42165,0 -2.3314,2.0712 0.33789,7.77539 l 2.73242,5.837891 -3.66797,-0.349609 -3.66797,-0.34961 0.30664,-5.285156 c 0.27218,-4.70618 0.10717,-5.285156 -1.50781,-5.285156 -3.77965,0 -5.23292,15.07117 -2.21484,22.96875 0.80332,2.10209 3.56055,18.407071 3.56055,21.05664 0,0.721991 -1.92539,0.940591 -5.99219,0.681641 -5.06174,-0.32231 -6.2828,-0.0902 -7.87305,1.5 -2.3393,2.33929 -5.67746,3.091395 -17.04101,3.833985 -10.68101,0.69799 -11.73613,2.178683 -3.78125,5.308593 4.56107,1.794544 6.18428,1.953664 14.0625,1.367194 l 8.90625,-0.664069 2.66015,2.910159 c 1.46312,1.60094 3.71295,4.26196 5,5.91406 2.30941,2.96444 2.31705,3.04127 0.65235,5.85938 l -0.42774,0.72266 c -0.29707,0.86377 -0.47254,1.61737 -0.42773,2.13281 l -76.62891,0 c 0.18887,-0.2535 0.27926,-0.56502 0.22266,-0.91016 l -1.12891,-1.98437 c -0.90234,-1.58541 -1.64062,-3.20782 -1.64062,-3.60742 0,-0.39961 2.21677,-2.38675 4.92773,-4.41407 4.77481,-3.57083 5.2949,-3.72355 16.64063,-4.9375 10.63725,-1.138152 12.03918,-1.510969 15.26953,-4.060549 5.50872,-4.34778 4.37085,-4.973132 -8.36719,-4.601562 -9.40314,0.2743 -11.41385,0.0851 -12.45703,-1.171875 -1.37437,-1.65601 -6.44226,-1.908675 -12.9668,-0.646485 -4.39148,0.84955 -4.40869,0.838233 -2.99609,-2.085937 0.42867,-0.88736 0.62728,-1.320634 0.62695,-1.433594 0.72792,-1.65308 1.52879,-3.517465 2.32031,-5.390625 0.005,-0.011 0.009,-0.0222 0.0137,-0.0332 0.16121,-0.34452 0.32087,-0.673474 0.48633,-1.052734 6.93135,-15.88789 7.07604,-16.379045 7.17969,-24.171875 0.11078,-8.33135 -1.0479,-11.052904 -4.50195,-10.558594 -1.37499,0.19677 -1.86291,0.83922 -1.63868,2.15625 1.53984,9.04399 1.16614,13.10949 -1.00585,10.9375 -1.44849,-1.44849 -6.58442,-1.401058 -8.14649,0.07617 -1.8876,1.785 -0.71013,-7.350628 1.22266,-9.486328 1.72853,-1.91001 1.98109,-4.412248 0.53711,-5.304688 -0.24549,-0.15172 -0.51034,-0.214229 -0.78907,-0.199219 -2.69437,0.1451 -6.66796,7.606191 -6.66796,13.212891 0,4.34941 -1.35359,5.795414 -4.34766,4.646484 -1.06049,-0.40682 -1.39142,-0.180608 -1.07031,0.732422 0.25646,0.72921 1.52014,1.25019 2.81836,1.16211 2.17876,-0.14782 2.40455,0.23258 3.0625,5.15625 0.57846,4.32874 0.74076,7.925315 0.50586,10.884765 -1.09964,4.94224 -1.60289,6.623135 -2.63672,10.490235 -0.61867,1.90151 -0.98979,4.165953 -0.72266,5.589843 0.76181,4.06081 3.6407,6.005865 8.88672,6.005865 l 4.20508,0 -3.94531,4.02148 c -2.16988,2.21092 -3.94336,4.49309 -3.94336,5.07227 0,0.57917 1.29638,2.14556 2.88281,3.48047 l 2.56836,2.16015 c 0.14433,0.10242 0.32365,0.18186 0.49609,0.26563 l -44.625,0 c 0.41908,-0.26909 0.86004,-0.59871 1.35742,-1.07422 l 1.48828,-1.55273 c 2.82393,-2.94755 3.09948,-4.53982 1.25586,-7.24024 -0.69436,-1.01708 -2.00736,-3.00769 -2.91796,-4.42383 l -1.65626,-2.57617 5.4961,0.56641 c 4.78411,0.49196 5.84159,0.2918 8.16016,-1.544928 2.25312,-1.78495 2.59825,-2.630855 2.23632,-5.490235 -0.23531,-1.85916 -0.97607,-4.692912 -1.64648,-6.294922 -1.00125,-2.39263 -0.9985,-4.949113 0.0156,-14.314453 1.12453,-10.38314 1.38902,-11.352332 2.9668,-10.851562 2.29324,0.72784 2.23197,-1.119049 -0.0781,-2.355469 -0.99633,-0.53322 -2.07156,-1.919378 -2.38868,-3.080078 -1.16821,-4.27591 -7.39191,-15.703125 -8.55273,-15.703125 -2.42165,0 -2.3314,2.0712 0.33789,7.77539 l 2.73242,5.837891 -3.66797,-0.349609 -3.66797,-0.34961 0.30664,-5.285156 c 0.27218,-4.70618 0.10717,-5.285156 -1.50781,-5.285156 -3.77965,0 -5.23292,15.07117 -2.21484,22.96875 0.80332,2.10209 3.56055,18.407071 3.56055,21.05664 0,0.721991 -1.92539,0.940591 -5.99219,0.681641 -5.06174,-0.32231 -6.2828,-0.0902 -7.87305,1.5 -2.3393,2.33929 -5.67746,3.091395 -17.041014,3.833985 -10.68101,0.69799 -11.73613,2.178683 -3.78125,5.308593 4.56107,1.794543 6.184284,1.953663 14.062504,1.367193 l 8.90625,-0.664068 2.66015,2.910158 c 1.46312,1.60094 3.71295,4.26196 5,5.91406 2.30941,2.96444 2.31705,3.04127 0.65235,5.85938 l -0.42774,0.72266 c -0.29707,0.86377 -0.47254,1.61737 -0.42773,2.13281 l -7.99219,0 c -15.99426,0.0109 -32.225365,-0.0358 -47.910157,-0.0352 -15.684795,6.7e-4 -30.823289,0.0487 -44.630859,0.25 l -17.6738284,0.25391 -0.3027344,2.63476 c -0.4087529,3.56481 1.2962082,5.33399 5.1425778,5.33399 3.799098,0 3.824683,0.0235 17.035157,14.94531 l 10.324218,11.66211 -10.943359,16.16797 -10.943359,16.16797 -7.5000004,0.33789 c -4.125,0.18571 88.4765564,0.31909 205.7812544,0.29687 l 213.28125,-0.0391 -204,-0.47265 -204.000004,-0.47266 19.078125,-28.0918 c 10.492698,-15.45052 19.078125,-28.63409 19.078125,-29.29687 0,-0.63537 142.502394,-1.24954 194.111324,-1.45899 96.72571,0 215.24414,-0.88672 215.24414,-0.88672 L 7.1347656,123.94922 6.8398438,120.90234 6.546875,117.85547 467.58398,117.73633 c 0,0 -5.93569,-0.81836 -14.98242,-0.81836 l -20.88672,0 c 1.53622,-0.42845 3.39219,-1.22022 4.03321,-1.64063 2.32527,-1.73987 2.31664,-3.68343 -0.0293,-7.53125 l -1.87695,-3.07617 4.04492,-1.73437 c 4.34148,-1.86097 7.2168,-5.306951 7.2168,-8.648441 0,-1.13954 -1.10014,-5.254864 -2.44336,-9.146484 -3.92043,-11.35854 -2.43892,-17.081481 5.92382,-22.894531 7.83072,-5.44325 8.36637,-6.000491 7.05664,-7.332032 -0.95888,-0.97484 -1.7289,-0.878221 -4.09179,0.517579 -1.60076,0.94559 -3.17808,1.35107 -3.50586,0.90039 -0.7843,-1.07842 -4.49279,-2.376189 -6.57031,-2.542969 -0.49561,-0.109439 -0.9058,0.07521 -1.31836,0.203126 -0.444,0.444 -2.68719,0.594867 -4.98438,0.335937 -5.89665,-0.66464 -7.8789,1.293314 -7.8789,7.777344 0,3.27108 0.47991,5.294456 1.44726,6.097656 0.96159,0.79803 1.26167,2.04719 0.89453,3.71875 -0.33864,1.5418 0.37237,5.27091 1.83399,9.625 1.31238,3.90953 2.38672,7.350714 2.38672,7.646484 0,0.29583 -2.34891,0.539063 -5.21875,0.539063 -8.96644,0 -11.11006,2.945427 -6.52149,8.960937 l 2.32227,3.044921 -9.47461,6.1836 c -5.21091,3.40108 -10.48751,6.18359 -11.72656,6.18359 -1.20716,0 -2.42504,0.6015 -2.76172,1.34765 -0.14535,0.45915 -0.2009,1.05824 0.14257,1.46485 l -30.83984,0 c 0.18887,-0.2535 0.27926,-0.56502 0.22266,-0.91016 l -1.12891,-1.98437 c -0.90234,-1.58541 -1.64062,-3.20782 -1.64062,-3.60742 0,-0.39961 2.21677,-2.38675 4.92773,-4.41407 4.77481,-3.57083 5.2949,-3.72355 16.64063,-4.9375 10.63726,-1.138147 12.03918,-1.510964 15.26953,-4.060544 5.50872,-4.34778 4.37085,-4.973132 -8.36719,-4.601562 -9.40314,0.2743 -11.41385,0.0851 -12.45703,-1.171875 -1.37437,-1.65601 -6.44226,-1.908675 -12.9668,-0.646485 -4.39148,0.84955 -4.40869,0.838233 -2.99609,-2.085937 0.42867,-0.88736 0.62728,-1.320634 0.62695,-1.433594 0.72792,-1.65308 1.52879,-3.517465 2.32031,-5.390625 0.005,-0.011 0.009,-0.0222 0.0137,-0.0332 0.16121,-0.34452 0.32087,-0.673474 0.48633,-1.052734 6.93135,-15.88789 7.07604,-16.379045 7.17969,-24.171875 0.11078,-8.33135 -1.0479,-11.052904 -4.50195,-10.558594 -1.37499,0.19677 -1.86291,0.83922 -1.63868,2.15625 1.53985,9.04399 1.16614,13.10949 -1.00585,10.9375 -1.44849,-1.44849 -6.58442,-1.401058 -8.14649,0.07617 -1.8876,1.785 -0.71013,-7.350628 1.22266,-9.486328 1.72853,-1.91001 1.98109,-4.412248 0.53711,-5.304688 -0.24549,-0.15172 -0.51034,-0.214229 -0.78907,-0.199219 -2.69437,0.1451 -6.66796,7.606191 -6.66796,13.212891 0,4.34941 -1.35359,5.795414 -4.34766,4.646484 -1.06049,-0.40682 -1.39142,-0.180608 -1.07031,0.732422 0.25646,0.72921 1.52014,1.25019 2.81836,1.16211 2.17876,-0.14782 2.40455,0.23258 3.0625,5.15625 0.57846,4.32874 0.74076,7.925315 0.50586,10.884765 -1.09964,4.94224 -1.60289,6.623135 -2.63672,10.490235 -0.61867,1.90151 -0.98979,4.165953 -0.72266,5.589843 0.76181,4.06081 3.6407,6.00586 8.88672,6.00586 l 4.20508,0 -3.94531,4.02148 c -2.16988,2.21092 -3.94336,4.49309 -3.94336,5.07227 0,0.57917 1.29638,2.14556 2.88281,3.48047 l 2.56836,2.16015 c 0.14433,0.10242 0.32365,0.18186 0.49609,0.26563 l -48.74414,0 c -0.0246,-0.94865 -2.15015,-2.75415 -3.49023,-3.49219 l -2.63477,-1.36133 4.40234,-4.4707 4.40235,-4.46875 8.65039,0.45312 c 8.17184,0.42745 8.79851,0.32465 11.33984,-1.86132 4.44321,-3.821892 2.84649,-5.421877 -5.4082,-5.421877 -3.79743,0 -7.15754,-0.25325 -7.4668,-0.5625 -0.30925,-0.30926 -0.10577,-1.562806 0.45117,-2.785156 0.76771,-1.68495 0.70808,-2.588969 -0.24414,-3.736328 -1.24738,-1.50299 -4.189,-1.456471 -12.51757,0.193359 -2.64134,0.52323 -2.69927,0.451405 -2.09961,-2.546875 0.3567,-2.36381 0.60051,-4.74473 1.11328,-7.09375 0.33295,-1.47881 0.98262,-4.166013 1.44531,-5.970703 1.39281,-5.43227 0.96586,-15.550473 -1.08203,-25.632813 -2.03615,-10.02455 -2.96715,-12.026995 -4.75977,-10.234375 -1.1504,1.15039 -1.23255,4.075073 -0.28906,10.195313 0.55272,3.58539 0.42647,3.89159 -1.77539,4.3125 -4.22693,0.80803 -4.65457,-0.344465 -2.5,-6.740235 2.08035,-6.17543 2.17596,-9.471347 0.29102,-10.091797 z m 94.73046,0.970704 c 1.97476,-0.0771 3.07287,1.386122 1.69532,2.763672 -0.71311,0.71311 -1.4291,0.651236 -2.47266,-0.214844 -1.02788,-0.73645 -0.12532,-1.949647 0.23047,-2.466797 0.18439,-0.0312 0.37473,-0.07533 0.54687,-0.08203 z m 42.13868,19.578125 c 0.75219,-0.006 1.96981,0.28663 3.94336,0.74414 1.90605,0.43666 3.76668,0.120526 1,1.728516 -0.23888,0.15137 -0.49421,0.322918 -0.76563,0.517578 -5.19037,3.72249 -5.39062,3.727447 -5.39062,0.154297 0,-2.29362 -0.0408,-3.134331 1.21289,-3.144531 z m -380.531254,1.86914 c -8.37093,-0.0788 -10.228515,1.416066 -10.228515,8.228516 0,3.43089 0.427765,4.889273 1.640625,5.595703 1.45654,0.84835 1.399665,0.959075 -0.521485,0.984375 -3.05923,0.0403 -10.99571,7.679331 -10.18164,9.800781 0.34069,0.88784 3.15266,2.707379 6.248047,4.042969 7.517049,3.24344 7.420683,4.933594 -0.279297,4.933594 -6.47636,0 -8.15625,0.963568 -8.15625,4.673828 0,1.69431 1.55017,3.952388 5.15625,7.513678 2.83594,2.8007 5.144006,5.52925 5.128906,6.0625 -0.0151,0.53324 -1.274328,2.33983 -2.798828,4.01561 -0.72791,0.79972 -2.057668,2.12325 -1.767578,2.6504 0.18937,0.33141 0.822265,0.39063 1.884765,0.39063 0.95084,0 3.346139,-0.42817 4.949219,-1.23438 0.96571,-0.61694 2.606046,-1.7829 3.660156,-2.60351 l 1.927735,-1.5 -2.216797,-3.65625 c -1.2186,-2.01083 -2.756759,-4.51134 -3.417969,-5.55859 -0.88079,-1.39504 -1.027129,-1.76428 1.744141,-1.70508 0.92376,0.0197 2.170848,0.0871 3.824218,0.17968 6.23595,0.34942 7.934751,0.96301 21.535157,7.76954 8.029979,4.01873 14.591511,7.50578 14.738281,7.83007 0.2945,0.16684 1.023079,0.44336 2.787109,0.44336 l 5.160154,0 c 1.09163,-0.0181 2.54549,-0.58334 3.4336,-1.48633 1.0405,-1.25372 0.95404,-1.69259 -0.55078,-2.79296 -0.98145,-0.71764 -2.40621,-1.30469 -3.16602,-1.30469 -2.610986,0 -29.770537,-15.709659 -34.589844,-20.007819 -1.800304,-1.60562 -2.109375,-2.824545 -2.109375,-8.322265 l 0,-6.441407 3.515625,0.570313 c 4.825651,0.78402 11.629279,3.239139 13.52539,4.880859 2.11369,1.83011 4.990235,1.161494 4.990235,-1.160156 0,-2.66455 -12.249938,-8.647932 -19.34961,-9.451172 l -5.384765,-0.609375 1.470703,-2.248047 c 0.97236,-1.48403 1.293099,-3.354555 0.943359,-5.509765 -0.6267,-3.86192 1.127067,-4.466017 3.353516,-1.154297 0.779962,1.16016 1.709077,1.830261 2.064453,1.488281 0.355376,-0.34198 -0.03583,-1.661814 -0.869141,-2.933594 -1.364494,-2.08248 -2.168394,-2.3192 -8.09375,-2.375 z m -10.912109,22 c 0.34914,0.0391 0.641036,0.246904 0.878906,0.621094 1.55884,2.45211 0.498031,3.260902 -2.068359,1.576172 l -0.002,0 c -1.23557,-0.8112 -1.237462,-1.030217 -0.02344,-1.810547 0.46059,-0.29602 0.865704,-0.425819 1.214844,-0.386719 z m 379.292973,17.66211 c 0.20761,-0.019 0.58257,0.01313 1.05468,0.07813 0.72894,0.0704 0.11247,0.417156 -0.53125,0.410156 -0.63205,0 -0.95554,-0.194841 -0.71875,-0.431641 0.0296,-0.0296 0.0954,-0.04764 0.19532,-0.05664 z m 0.18945,10.978524 c 0.6247,0.0237 0.93366,0.40428 1.33008,1.03906 1.28179,2.05246 1.48788,1.72899 -3.07032,4.82226 -0.34376,0.23328 -0.67622,0.44529 -1.00195,0.63868 -0.0915,0.0835 -0.19941,0.16464 -0.28125,0.24414 -0.52133,0.50643 -0.9388,1.14556 -0.8125,1.51367 l -12.05859,0 c 0.10427,-0.11183 0.21941,-0.23997 0.40429,-0.40625 -9.4e-4,-0.003 -0.0117,-0.007 -0.0117,-0.01 0,-0.22956 3.53567,-2.25344 7.85937,-4.49804 4.67966,-2.42939 6.60143,-3.38329 7.64258,-3.34375 z m -410.951173,16.69531 18.261719,0 c 16.938039,0 18.228617,0.11892 17.8125,1.64062 -0.24675,0.90235 -3.706692,6.34869 -7.6875,12.10156 l -7.236328,10.45898 -7.929688,-8.94726 c -4.360888,-4.92079 -9.118711,-10.36519 -10.574219,-12.09961 l -2.646484,-3.1543 z"
       style="fill:#000000"
       inkscape:connector-curvature="0" />
    <path
       id="path4502"
       d="m 304.8125,36.367188 c -0.59225,0.05253 -1.6123,1.404446 -2.93945,4.378906 -2.96469,6.64458 -3.40358,8.793841 -1.97657,9.675781 1.62222,1.00259 1.74195,0.84429 3.75,-4.96875 1.95133,-5.64885 2.15311,-9.173437 1.16602,-9.085937 z m 5.20898,1.767578 c -0.15957,0.007 -0.32841,0.131158 -0.52148,0.324218 -1.60604,1.60604 0.34923,13.51914 2.58594,15.75586 1.95464,1.95464 2.41463,8.17869 0.82422,11.15039 -0.65728,1.22815 -0.58648,2.543389 0.23437,4.355469 2.1898,4.83406 2.01073,-10.246545 -0.25391,-21.359375 -1.65158,-8.10451 -2.17767,-10.257062 -2.86914,-10.226562 z m -177.43554,3.83789 c -1.55875,-0.06863 -0.86564,2.292934 2.84179,9.683594 2.62832,5.23952 2.71842,5.800078 1.77735,11.142578 -1.0777,6.11821 -0.75709,7.512849 1.625,7.042969 1.28381,-0.25323 1.55469,-1.549639 1.55469,-7.474609 0,-6.312951 -0.39152,-7.954297 -3.28125,-13.753907 -1.80469,-3.62196 -3.8383,-6.610725 -4.51758,-6.640625 z m 128,0 c -1.55875,-0.06863 -0.86564,2.292934 2.84179,9.683594 2.62832,5.23952 2.71842,5.800078 1.77735,11.142578 -1.0777,6.11821 -0.75709,7.512849 1.625,7.042969 1.28381,-0.25323 1.55469,-1.549639 1.55469,-7.474609 0,-6.312951 -0.39152,-7.954297 -3.28125,-13.753907 -1.80469,-3.62196 -3.8383,-6.610725 -4.51758,-6.640625 z m -133.14649,1.820313 c -2.00835,0 -3.64016,9.00803 -2.81445,15.53125 0.38737,3.05999 0.82812,4.50782 0.98047,3.21875 0.15235,-1.28906 0.67343,-3.82031 1.15625,-5.625 0.48282,-1.80468 1.12187,-5.496095 1.42187,-8.203125 0.42289,-3.81608 0.25554,-4.921875 -0.74414,-4.921875 z m 128,0 c -2.00835,0 -3.64016,9.00803 -2.81445,15.53125 0.38737,3.05999 0.82812,4.50782 0.98047,3.21875 0.15235,-1.28906 0.67343,-3.82031 1.15625,-5.625 0.48282,-1.80468 1.12187,-5.496095 1.42187,-8.203125 0.42289,-3.81608 0.25554,-4.921875 -0.74414,-4.921875 z m -85.90625,1.107422 c -0.0897,0.0067 -0.18476,0.02625 -0.28906,0.06055 -2.04025,0.67096 -5.36095,7.601159 -5.37695,11.224609 -0.0212,4.79131 2.39114,3.794159 3.07031,-1.269531 0.2779,-2.07183 1.17505,-4.507227 1.99219,-5.410157 1.65526,-1.82903 1.94826,-4.705068 0.60351,-4.605468 z m 194,0 c -0.0897,0.0067 -0.18476,0.02625 -0.28906,0.06055 -2.04025,0.67096 -5.36095,7.601159 -5.37695,11.224609 -0.0212,4.79131 2.39114,3.794159 3.07031,-1.269531 0.2779,-2.07183 1.17505,-4.507227 1.99219,-5.410157 1.65526,-1.82903 1.94826,-4.705068 0.60351,-4.605468 z m -184.77343,1.759765 c -0.81212,0.01768 -0.80115,0.415006 -0.27344,1.503906 0.94252,1.944922 0.95827,11.543841 0.0312,19.431641 -0.33996,2.893 -0.38121,5.259766 -0.0899,5.259766 0.29132,0 1.3081,-1.792965 2.25977,-3.984375 2.07809,-4.78517 3.12897,-13.987245 2.11328,-18.515625 -0.55193,-2.46077 -1.28852,-3.360017 -2.94336,-3.597657 -0.46482,-0.0668 -0.82694,-0.103656 -1.09765,-0.09766 z m 194,0 c -0.81212,0.01768 -0.80115,0.415006 -0.27344,1.503906 0.94252,1.944922 0.95827,11.543841 0.0312,19.431641 -0.33996,2.893 -0.38121,5.259766 -0.0899,5.259766 0.29132,0 1.3081,-1.792965 2.25977,-3.984375 2.07809,-4.78517 3.12897,-13.987245 2.11328,-18.515625 -0.55193,-2.46077 -1.28852,-3.360017 -2.94336,-3.597657 -0.46482,-0.0668 -0.82694,-0.103656 -1.09765,-0.09766 z m -74.14063,5.585938 c -1.21814,-0.02487 -0.76688,7.322487 0.8457,13.742187 l 1.55078,6.173828 1.36719,-2.607421 c 0.87566,-1.67133 1.15865,-3.817999 0.78907,-5.980469 -0.31712,-1.85545 -0.84472,-4.85156 -1.17188,-6.65625 -0.55383,-3.05519 -1.69832,-4.637475 -3.38086,-4.671875 z m 155.82617,2.796875 c -0.53377,0 -1.90485,0.613088 -3.04687,1.361328 -0.25086,0.16437 -0.49832,0.297385 -0.7461,0.416015 -2.01707,1.218402 -4.43249,2.85865 -5.91601,3.88086 -0.7573,0.56105 -1.57883,1.157972 -2.47852,1.789062 -5.94601,4.17089 -8.97808,7.744109 -7.96289,9.386719 0.68055,1.10115 2.43165,1.256306 4.63672,0.410156 0.81562,-0.31298 1.48438,-1.141467 1.48438,-1.841797 0,-2.01585 5.24992,-7.465528 10.33789,-10.730468 4.4031,-2.82546 5.8617,-4.671875 3.6914,-4.671875 z m -145.39062,1.966797 c -2.92575,0.06814 -4.57617,1.983986 -4.57617,5.410156 0,4.25584 0.44657,4.810547 3.87304,4.810547 1.68353,0 2.98958,-0.686859 3.64844,-1.917969 0.56467,-1.05507 0.89613,-3.269925 0.73633,-4.921875 -0.21938,-2.26799 -0.79528,-3.075445 -2.35156,-3.296875 -0.46889,-0.0667 -0.91211,-0.09398 -1.33008,-0.08398 z m -180.54102,2.720703 c -0.96511,0 -1.62245,1.323917 -1.88867,3.310547 0.0916,2.12143 0.84413,3.652398 3.14062,3.980468 0.007,0.001 0.008,0.0029 0.0156,0.0039 0.27345,0.0171 0.49221,0.01928 0.82227,0.05078 3.41706,0.32587 3.6875,0.177791 3.6875,-2.03711 0,-2.54133 -3.01141,-5.308593 -5.77735,-5.308593 z m 128,0 c -0.96511,0 -1.62245,1.323917 -1.88867,3.310547 0.0916,2.12143 0.84413,3.652398 3.14062,3.980468 0.007,0.001 0.008,0.0029 0.0156,0.0039 0.27345,0.0171 0.49221,0.01928 0.82227,0.05078 3.41706,0.32587 3.6875,0.177791 3.6875,-2.03711 0,-2.54133 -3.01141,-5.308593 -5.77735,-5.308593 z m 173.81641,0.896484 c -0.12233,-0.0083 -0.23963,-0.0077 -0.35156,0.002 -1.15132,0.09922 -1.75,1.147413 -1.75,3.132813 0,3.36234 1.39046,5.34375 3.75,5.34375 0.825,0 2.00625,-0.50625 2.625,-1.125 1.74384,-1.74384 1.33343,-4.245893 -0.95899,-5.851563 -1.34826,-0.944352 -2.45812,-1.443607 -3.31445,-1.501953 z m -264.85156,1.552735 c -0.10443,3e-4 -0.21553,0.02286 -0.33399,0.06836 -1.39027,0.5335 -1.68212,4.677277 -0.68164,9.679687 l 0.61133,3.054688 1.17578,-2.242188 c 0.70779,-1.35094 0.97681,-3.977351 0.67969,-6.613281 -0.31625,-2.80584 -0.72016,-3.949267 -1.45117,-3.947265 z m 194,0 c -0.10443,3e-4 -0.21553,0.02286 -0.33399,0.06836 -1.39027,0.5335 -1.68212,4.677277 -0.68164,9.679687 l 0.61133,3.054688 1.17578,-2.242188 c 0.70779,-1.35094 0.97681,-3.977351 0.67969,-6.613281 -0.31625,-2.80584 -0.72016,-3.949267 -1.45117,-3.947265 z m -307.843754,4.125 c -0.03115,0.01747 -0.04687,0.05851 -0.04687,0.128906 0,4.75696 2.154062,5.479039 3.144531,5.230468 1.076459,-0.288438 -2.63013,-5.621404 -3.097656,-5.359374 z m 74.953124,0.662109 c 0.0839,0.99593 0.216,2.025672 0.44336,3.076172 0.0284,0.13137 0.0901,0.508175 0.12305,0.671875 0.19534,-0.54054 0.51776,-1.246708 1.02929,-1.773438 0.008,-0.39891 -0.11752,-0.832988 -0.40039,-1.173828 -0.0296,-0.0356 -0.0395,-0.06446 -0.0625,-0.09766 -0.4546,-0.22874 -0.84785,-0.492275 -1.13281,-0.703125 z m 128,0 c 0.0839,0.99593 0.216,2.025672 0.44336,3.076172 0.0284,0.13137 0.0901,0.508175 0.12305,0.671875 0.19534,-0.54054 0.51776,-1.246708 1.02929,-1.773438 0.008,-0.39891 -0.11752,-0.832988 -0.40039,-1.173828 -0.0296,-0.0356 -0.0395,-0.06446 -0.0625,-0.09766 -0.4546,-0.22874 -0.84785,-0.492275 -1.13281,-0.703125 z M 64.720703,72.037109 c -1.250957,0.0057 -1.657491,0.297854 -1.650391,0.933594 0.0256,2.30242 1.319173,3.161362 5.142579,3.419922 4.312886,0.29167 11.500514,2.69104 13.667968,4.5625 1.95279,1.68625 4.613282,1.63177 4.613282,-0.09375 0,-1.94645 -12.615745,-7.763169 -18.515625,-8.537109 -1.452357,-0.19055 -2.507239,-0.288157 -3.257813,-0.285157 z m -13.849609,1.75586 c -1.52185,0 -8.439453,6.665039 -8.439453,8.130859 0,0.74181 2.332953,2.379935 5.183593,3.640625 2.902934,1.28381 4.340328,1.881695 5.363282,2.046875 -0.24979,-0.83885 -0.500192,-1.712477 -0.796875,-3.085937 -2.36565,-0.78972 -5.0625,-2.325528 -5.0625,-3.148438 0,-0.44309 1.05469,-1.495274 2.34375,-2.339844 2.27895,-1.49325 3.285833,-5.24414 1.408203,-5.24414 z m 70.226566,15.076172 c -4.44987,0.06728 -7.43164,1.379826 -7.43164,3.716797 0,0.46562 2.79827,4.338394 6.21875,8.605472 3.42047,4.26708 6.63292,8.28383 7.14062,8.92578 0.62898,0.7953 0.44,1.9047 -0.59375,3.48242 -2.72826,4.16384 -1.51462,4.56658 2.41602,0.80078 1.44619,-1.38553 2.63086,-3.18686 2.63086,-4.00195 0,-1.80743 -3.90873,-7.82709 -7.86329,-12.109378 -2.02478,-2.19256 -2.34392,-2.872246 -1.04296,-2.222656 10.36576,5.175814 17.34375,5.423814 17.34375,0.617188 0,-2.75978 -2.96101,-4.786916 -9.55079,-6.541016 -3.39842,-0.9046 -6.59765,-1.313837 -9.26757,-1.273437 z m 128,0 c -4.44987,0.06728 -7.43164,1.379826 -7.43164,3.716797 0,0.46562 2.79827,4.338394 6.21875,8.605472 3.42047,4.26708 6.63292,8.28383 7.14062,8.92578 0.62898,0.7953 0.44,1.9047 -0.59375,3.48242 -2.72826,4.16384 -1.51462,4.56658 2.41602,0.80078 1.44619,-1.38553 2.63086,-3.18686 2.63086,-4.00195 0,-1.80743 -3.90873,-7.82709 -7.86329,-12.109378 -2.02478,-2.19256 -2.34392,-2.872246 -1.04296,-2.222656 10.36576,5.175814 17.34375,5.423814 17.34375,0.617188 0,-2.75978 -2.96101,-4.786916 -9.55079,-6.541016 -3.39842,-0.9046 -6.59765,-1.313837 -9.26757,-1.273437 z m 75.19726,0.257812 c -0.9436,-0.05829 -2.1529,0.01048 -3.64258,0.193359 -2.9667,0.364201 -6.44726,1.078971 -7.73632,1.587891 -2.12408,0.83858 -1.72866,1.079185 4.21875,2.578125 3.60937,0.90969 6.86385,1.702519 7.23242,1.761719 0.36858,0.05925 1.13942,-0.768304 1.71289,-1.839844 1.49332,-2.79029 1.04564,-4.10639 -1.78516,-4.28125 z m 104.16797,1.554688 c -2.88155,0.03414 -5.35424,0.21215 -6.25195,0.55664 -2.81994,1.08211 -1.45955,4.661121 4.60547,12.109379 3.34917,4.113 6.09175,7.80878 6.09375,8.21289 0.003,0.4041 -1.4707,1.60512 -3.27539,2.66992 -1.80469,1.06479 -3.28125,2.10562 -3.28125,2.3125 0,0.94083 5.05219,0.23435 7.54492,-1.05469 1.58796,-0.82116 2.76758,-2.18813 2.76758,-3.20898 0,-0.97797 -2.10345,-4.86817 -4.67383,-8.64649 -2.57039,-3.778315 -4.29903,-6.996691 -3.83985,-7.152341 0.45919,-0.15564 3.41108,0.383628 6.5586,1.199219 7.19838,1.865285 9.86199,0.858755 9.02344,-4.94336 -0.0717,-0.824886 -1.81846,-1.29089 -2.92383,-1.417969 -1.76841,-0.279044 -7.54508,-0.693625 -12.34766,-0.636718 z m -243.30078,0.175781 c -1.27441,-0.0222 -2.79867,0.0564 -4.26367,0.24414 -1.25831,0.161282 -2.82721,0.355331 -4.4668,0.556641 -4.99186,0.42549 -1.044,0.492221 1.21484,0.675781 1.55453,0.181 3.13486,0.258102 4.48829,0.294922 5.21897,-0.41597 6.98066,-0.843937 5.79492,-1.404297 -0.4686,-0.22146 -1.49316,-0.344987 -2.76758,-0.367187 z m 194,0 c -1.27441,-0.0222 -2.79867,0.0564 -4.26367,0.24414 -1.25831,0.161282 -2.82721,0.355331 -4.4668,0.556641 -4.99186,0.42549 -1.044,0.492221 1.21484,0.675781 1.55453,0.181 3.13486,0.258102 4.48829,0.294922 5.21897,-0.41597 6.98066,-0.843937 5.79492,-1.404297 -0.4686,-0.22146 -1.49316,-0.344987 -2.76758,-0.367187 z m -206.98633,1.324219 c -0.69938,0.0852 -1.51583,0.191338 -2.10351,0.261718 -7.08949,0.84903 -10.69522,5.054591 -6.45313,7.525391 2.24414,1.30713 22.70845,1.25472 33.80469,-0.08594 7.07791,-0.855198 9.75929,-1.604988 12.13281,-3.392578 1.67579,-1.26209 3.04653,-2.561198 3.04688,-2.886718 3.4e-4,-0.32552 -8.54262,-0.542975 -18.98438,-0.484375 -7.9454,0.0446 -12.48522,-0.0233 -13.21289,-0.185547 -2.44851,-0.11734 -5.22653,-0.394713 -8.23047,-0.751953 z m 194,0 c -0.69938,0.0852 -1.51583,0.191338 -2.10351,0.261718 -7.08949,0.84903 -10.69522,5.054591 -6.45313,7.525391 2.24414,1.30713 22.70845,1.25472 33.80469,-0.08594 7.07791,-0.855198 9.75929,-1.604988 12.13281,-3.392578 1.67579,-1.26209 3.04653,-2.561198 3.04688,-2.886718 3.4e-4,-0.32552 -8.54262,-0.542975 -18.98438,-0.484375 -7.9454,0.0446 -12.48522,-0.0233 -13.21289,-0.185547 -2.44851,-0.11734 -5.22653,-0.394713 -8.23047,-0.751953 z m -299.164061,0.08594 c -0.08221,1.81509 -0.385168,2.720184 -0.695313,4.027344 -0.37136,1.41701 -1.566898,3.51228 -1.384765,4.193355 1.181729,0.39721 2.380835,0.92687 3.339843,1.49414 2.351695,1.3401 5.561642,2.98422 9.857422,5.11524 8.289349,4.11213 15.513325,8.00389 16.052735,8.64843 1.12465,1.34383 5.850789,1.45206 8.953129,0.20508 3.09168,-1.24271 2.58178,-2.57978 -1.40625,-3.6875 C 98.077088,111.24945 87.506795,105.50112 75.03125,97.742191 73.090423,96.53514 71.725698,95.70332 70.630859,95.0918 c -1.19212,-0.84269 -2.468997,-1.780549 -3.61914,-2.824219 z m -12.773438,0.201172 -6.607422,0.271484 c -6.58505,0.27074 -6.606626,0.280395 -6.878906,3.083985 -0.22709,2.33825 0.602845,3.677339 4.921875,7.937498 2.85726,2.81833 5.195313,5.5918 5.195313,6.16406 0,0.57226 -1.05469,2.03117 -2.34375,3.24219 -4.40148,4.13497 -2.24011,5.07031 3.52539,1.52539 1.93837,-1.1918 3.775245,-2.41979 4.083985,-2.72852 0.92658,-0.92658 -6.268897,-11.994404 -8.423828,-12.957025 -1.812748,-0.80978 -1.780587,-0.844076 0.345703,-0.373046 1.28906,0.28556 4.347693,0.935079 6.830078,1.099609 l 3.435547,0.226563 c 0,0 -1.780124,-3.571968 -2.34961,-4.710938 -0.744713,-1.22659 -1.734375,-2.78125 -1.734375,-2.78125 z m 252.162109,0.300781 c -4.51907,-0.11374 -6.60937,1.086418 -6.60937,3.617188 0,3.26018 4.29701,4.921378 14.41015,5.568358 17.51961,1.12081 22.51993,1.00751 24.75586,-0.5586 3.99073,-2.795199 2.64425,-4.166008 -4.08984,-4.166008 -3.39455,0 -9.40628,-0.816456 -13.35938,-1.816407 -6.60992,-1.672028 -11.59259,-2.556031 -15.10742,-2.644531 z m -195.49414,0.189453 c -0.93967,-0.0079 -2.2463,0.19579 -4.29492,0.53125 -3.08087,0.50449 -8.238289,0.920828 -11.460939,0.923828 -3.22266,0.0028 -5.859375,0.369847 -5.859375,0.816407 0,0.44657 2.161217,1.634232 4.804687,2.638672 3.82792,1.45448 6.451987,1.745557 12.890627,1.429687 4.44638,-0.21813 8.37052,-0.667517 8.71875,-0.998047 0.34823,-0.33054 -0.29515,-1.754232 -1.42969,-3.164062 -1.25736,-1.56242 -1.80303,-2.164535 -3.36914,-2.177735 z m 128,0 c -0.93967,-0.0079 -2.2463,0.19579 -4.29492,0.53125 -3.08087,0.50449 -8.23829,0.920828 -11.46094,0.923828 -3.22266,0.0028 -5.85937,0.369847 -5.85937,0.816407 0,0.44657 2.16121,1.634232 4.80468,2.638672 3.82792,1.45448 6.45199,1.745557 12.89063,1.429687 4.44638,-0.21813 8.37052,-0.667517 8.71875,-0.998047 0.34823,-0.33054 -0.29515,-1.754232 -1.42969,-3.164062 -1.25736,-1.56242 -1.80303,-2.164535 -3.36914,-2.177735 z m 193.07227,5.042969 c -0.46704,-0.0704 -0.98481,0.535492 -1.3125,0.951172 -0.43553,0.70471 1.86565,4.841792 2.69336,4.841792 0.18581,0 2.27171,-0.82887 4.63476,-1.8418 l 0,-0.002 c 2.36306,-1.01296 4.29688,-2.091863 4.29688,-2.398433 0,-0.30647 -0.40891,-0.305103 -0.90821,0.0039 -0.4993,0.30858 -3.32986,-0.071 -6.28906,-0.84375 -1.13708,-0.29693 -2.19508,-0.532288 -3.11523,-0.710938 z m -253.5586,3.968744 c -3.13659,-0.044 -4.33993,0.5612 -7.73437,3.89258 -2.21093,2.16986 -4.01953,4.46115 -4.01953,5.08984 0,1.35977 5.58877,5.94018 7.26562,5.95508 0.64454,0.006 1.17188,-0.23971 1.17188,-0.54687 l 0,-0.002 c 0,-0.30716 -0.73828,-1.81588 -1.64063,-3.35352 -1.81162,-3.08708 -1.82193,-3.07352 5.94141,-8.92578 l 2.73047,-2.05664 -3.71485,-0.0527 z m 194,0 c -3.13659,-0.044 -4.33993,0.5612 -7.73437,3.89258 -2.21093,2.16986 -4.01953,4.46115 -4.01953,5.08984 0,1.35977 5.58877,5.94018 7.26562,5.95508 0.64454,0.006 1.17188,-0.23971 1.17188,-0.54687 l 0,-0.002 c 0,-0.30716 -0.73828,-1.81588 -1.64063,-3.35352 -1.81162,-3.08708 -1.82193,-3.07352 5.94141,-8.92578 l 2.73047,-2.05664 -3.71485,-0.0527 z m 52.52735,0.29492 -9.69922,6.38868 c -5.33436,3.5139 -10.71326,6.38867 -11.95313,6.38867 -1.23986,0 -2.2539,0.42188 -2.2539,0.9375 0,1.24395 11.90019,1.22203 12.66992,-0.0234 0.32724,-0.52947 3.95802,-2.65407 8.06836,-4.7207 l 7.47461,-3.75781 -2.1543,-2.60547 -2.15234,-2.60743 z m -109.48047,0.58985 c -3.16821,0 -3.7687,0.45225 -6.90235,5.17187 -1.88812,2.84371 -3.26371,5.33315 -3.05664,5.53321 0.20707,0.20005 1.85352,1.00379 3.65821,1.78515 3.61944,1.56708 6.56368,1.9569 6.55468,0.86914 -0.003,-0.38672 -1.33811,-1.4615 -2.96679,-2.38867 l -2.96094,-1.68555 4.57226,-4.64257 4.57227,-4.64258 -3.4707,0 z m -308.8027375,15 0,2.65625 c 0,1.46094 0.28125,2.9375 0.625,3.28125 0.34375,0.34375 95.0546775,0.625 210.4687475,0.625 l 249.84375,0 0,-3.28125 0,-3.28125 -250.46875,0 -210.4687475,0 z"
       style="fill:#fefefe"
       inkscape:connector-curvature="0" />
    <path
       id="path4227"
       d="m 306.02539,67.886719 c -1.62833,0.04881 -2.17047,0.643627 -3.11328,2.466797 -1.04134,2.01372 -1.2401,4.146315 -0.76563,8.234375 0.59823,6.00212 -3.54295,12.292244 -1.14843,14.115234 0.89005,-0.73523 3.15948,-1.128141 5.52929,-0.957031 3.98408,0.28766 4.02291,0.261016 4.58789,-3.214844 0.55057,-3.30226 0.97644,-6.368959 1.89649,-10.949219 1.39059,-6.18907 -0.12606,-9.12868 -4.94141,-9.58789 -0.83949,-0.08003 -1.50215,-0.123722 -2.04492,-0.107422 z m -173.46484,0.326172 c -1.4549,-0.0453 -2.95979,0.315163 -3.88477,1.095703 -0.3981,0.42073 -0.7426,0.94226 -1.0039,1.90039 -0.12265,0.44973 -0.16164,0.952695 -0.17383,1.390625 0.4275,2.36767 0.94495,5.436155 1.4082,8.546875 l 1.16602,7.824219 3.57617,1.228516 c 4.15284,1.42669 7.14335,3.872559 7.34375,6.005859 0.0773,0.82243 0.3243,0.267971 0.54687,-1.230469 0.22257,-1.49847 -0.32316,-4.333994 -1.21094,-6.302734 -1.29582,-2.87364 -1.48787,-4.970716 -0.9746,-10.634766 0.52271,-5.76839 0.39643,-7.05664 -0.69141,-7.05664 -0.73181,0 -1.85419,-0.63281 -2.49609,-1.40625 -0.70892,-0.85419 -2.13021,-1.315418 -3.60547,-1.361328 z m 128,0 c -1.4549,-0.0453 -2.95979,0.315163 -3.88477,1.095703 -0.3981,0.42073 -0.74259,0.94226 -1.0039,1.90039 -0.12265,0.44973 -0.16164,0.952695 -0.17383,1.390625 0.4275,2.36767 0.94495,5.436155 1.4082,8.546875 l 1.16602,7.824219 3.57617,1.228516 c 4.15284,1.42669 7.14335,3.872559 7.34375,6.005859 0.0773,0.82243 0.3243,0.267971 0.54687,-1.230469 0.22257,-1.49847 -0.32316,-4.333994 -1.21094,-6.302734 -1.29583,-2.87364 -1.48787,-4.970716 -0.9746,-10.634766 0.52271,-5.76839 0.39643,-7.05664 -0.69141,-7.05664 -0.73181,0 -1.85419,-0.63281 -2.49609,-1.40625 -0.70892,-0.85419 -2.13021,-1.315418 -3.60547,-1.361328 z m 171.05468,1.675781 c -1.53886,-0.21377 -1.40632,4.91473 0.84766,11.84375 2.51414,7.72879 2.56388,7.797427 6.12695,8.367187 0.66148,0.105776 1.28487,0.25678 1.86914,0.423829 1.93386,0.451853 2.99408,0.495596 2.84571,-0.0293 -0.40954,-1.724773 -1.02238,-3.748981 -1.83399,-6.123047 -1.09614,-3.20639 -1.99218,-7.051329 -1.99218,-8.542969 0,-2.36574 -0.29229,-2.656814 -2.27735,-2.277344 -1.60586,0.30698 -2.63713,-0.144096 -3.50586,-1.535156 -0.86789,-1.3897 -1.56713,-2.055756 -2.08008,-2.126953 z m -263.00781,1.714844 c -1.4171,0.75773 -2.45231,3.211197 -3.02539,5.210937 -1.12058,6.22893 -4.10157,11.714895 -4.54101,17.515625 0,1.76559 0.13846,1.740435 2.30078,-0.421875 1.43572,-1.43572 3.37489,-2.302734 5.15625,-2.302734 1.57031,0 2.85547,-0.340733 2.85547,-0.757813 1.28906,-3.37123 3.10115,-6.776256 4.67773,-10.472656 1.09789,-2.15206 1.86466,-4.828649 1.70508,-5.949219 -0.23953,-1.6819 -0.81493,-1.98853 -3.29688,-1.75 -1.87644,0.15875 -3.99569,-0.365935 -5.83203,-1.072265 z m 194,0 c -1.4171,0.75773 -2.45231,3.211197 -3.02539,5.210937 -1.12058,6.22893 -4.10157,11.714895 -4.54101,17.515625 0,1.76559 0.13846,1.740435 2.30078,-0.421875 1.43572,-1.43572 3.37489,-2.302734 5.15625,-2.302734 1.57031,0 2.85547,-0.340733 2.85547,-0.757813 1.28906,-3.37123 3.10115,-6.776256 4.67773,-10.472656 1.09789,-2.15206 1.86466,-4.828649 1.70508,-5.949219 -0.23953,-1.6819 -0.81493,-1.98853 -3.29688,-1.75 -1.87644,0.15875 -3.99569,-0.365935 -5.83203,-1.072265 z M 60.798828,72.248047 c -0.285327,-0.01534 -0.609941,0.04771 -0.996094,0.171875 -1.04566,0.33622 -3.017229,0.823834 -4.380859,1.083984 -1.84382,0.35177 -2.624689,1.193787 -3.042969,3.285156 -0.352585,1.7629 -0.332225,3.369736 -0.04297,4.640626 0.176913,0.97042 0.384318,1.931712 0.597656,2.882812 0.442973,1.66362 0.946426,3.583967 1.392578,5.335938 0.606476,2.02799 1.475062,4.157752 2.902344,6.101562 1.913164,2.76034 1.57393,4.34289 4.158203,4.49609 3.340319,0.26963 3.446205,-2.952662 4.060547,-4.478512 0.39761,-1.42461 1.0115,-4.123549 0.474609,-4.568359 -1.447796,-1.55292 -1.927734,-3.79169 -1.927734,-7.56836 0,-3.0165 -0.514412,-6.911706 -1.144532,-8.654297 -0.698107,-1.930569 -1.194794,-2.682515 -2.050781,-2.728515 z"
       style="fill:#008080"
       inkscape:connector-curvature="0" />
    <path
       sodipodi:nodetypes="scsssssssscccscssscsscsssssssscsssscssscsscssssssssccscssscs"
       inkscape:connector-curvature="0"
       id="path4418"
       d="m 321.74023,65.714844 c -0.0885,0.0083 -0.15229,0.0312 -0.18945,0.06836 -0.74662,0.74663 0.7906,7.072266 1.71875,7.072266 0.49226,0 0.89453,-0.42188 0.89453,-0.9375 0,-0.51563 0.42187,-0.9375 0.9375,-0.9375 1.97443,0 0.81341,4.539998 -1.88281,7.361328 -1.55135,1.62334 -2.98136,2.951172 -3.17773,2.951172 -0.19637,0 -3.75479,0.645703 -7.90821,1.433593 -6.03312,1.14446 -8.82642,1.227599 -13.89453,0.417969 -9.35263,-1.49409 -11.10416,-3.940771 -6.27539,-8.769531 1.36718,-1.36719 2.27192,-2.700761 2.00977,-2.962891 -0.89766,-0.89767 -3.48673,0.677317 -4.05469,2.466797 -1.94309,2.584433 -3.17332,6.094632 -0.58399,8.691406 0.95257,0.862071 4.22211,1.930971 7.26563,2.375 3.04352,0.444041 6.16601,0.849644 6.93945,0.902344 2.5737,0.17547 15.43189,-2.421371 18.04297,-3.644531 3.0087,-1.40942 6.33203,-6.590271 6.33203,-9.869141 0,-1.25959 0.42187,-2.291015 0.9375,-2.291015 0.51562,0 0.93469,-0.316405 0.92969,-0.703125 -0.0109,-0.802969 -6.71352,-3.74969 -8.04102,-3.625001 z m -135,1.875 c -0.0885,0.0083 -0.15229,0.0312 -0.18945,0.06836 -0.74662,0.74663 0.7906,7.072266 1.71875,7.072266 0.49226,0 0.89453,-0.42188 0.89453,-0.9375 0,-0.51563 0.42187,-0.9375 0.9375,-0.9375 1.97443,0 0.81341,4.539998 -1.88281,7.361328 -1.55135,1.62334 -2.98136,2.951172 -3.17773,2.951172 -0.19637,0 -3.75479,0.645703 -7.90821,1.433593 -6.03312,1.14446 -8.82642,1.227599 -13.89453,0.417969 -9.35263,-1.49409 -11.10416,-3.940771 -6.27539,-8.769531 1.36718,-1.36719 2.27192,-2.700761 2.00977,-2.962891 -0.89766,-0.89767 -3.48673,0.677317 -4.05469,2.466797 -0.31218,0.98361 -0.96053,1.789063 -1.44141,1.789063 -1.5741,0 -0.91613,5.297314 0.85742,6.902343 0.95257,0.862071 4.22211,1.930971 7.26563,2.375 3.04352,0.444041 6.16601,0.849644 6.93945,0.902344 2.5737,0.17547 15.43189,-2.421371 18.04297,-3.644531 3.0087,-1.40942 6.33203,-6.590271 6.33203,-9.869141 0,-1.25959 0.42187,-2.291015 0.9375,-2.291015 0.51562,0 0.93469,-0.316405 0.92969,-0.703125 -0.0109,-0.802969 -6.71352,-3.74969 -8.04102,-3.625001 z m 194.0625,0 c -0.0885,0.0083 -0.15229,0.0312 -0.18945,0.06836 -0.74662,0.74663 0.7906,7.072266 1.71875,7.072266 0.49226,0 0.89453,-0.42188 0.89453,-0.9375 0,-0.51563 0.42187,-0.9375 0.9375,-0.9375 1.97443,0 0.81341,4.539998 -1.88281,7.361328 -1.55135,1.62334 -2.98136,2.951172 -3.17773,2.951172 -0.19637,0 -3.75479,0.645703 -7.90821,1.433593 -6.03312,1.14446 -8.82642,1.227599 -13.89453,0.417969 -9.35263,-1.49409 -11.10416,-3.940771 -6.27539,-8.769531 1.36718,-1.36719 2.27192,-2.700761 2.00977,-2.962891 -4.96799,-0.165334 -7.80608,7.981704 -4.63868,11.158203 0.95257,0.862071 4.22211,1.930971 7.26563,2.375 3.04352,0.444041 6.16601,0.849644 6.93945,0.902344 2.5737,0.17547 15.43189,-2.421371 18.04297,-3.644531 3.0087,-1.40942 6.33203,-6.590271 6.33203,-9.869141 0,-1.25959 0.42187,-2.291015 0.9375,-2.291015 0.51562,0 0.93469,-0.316405 0.92969,-0.703125 -0.0109,-0.802969 -6.71352,-3.74969 -8.04102,-3.625001 z"
       style="fill:#fe0000" />
  </g>
</svg>
