<?xml version="1.0" encoding="UTF-8" standalone="no"?>
<!-- Created with Inkscape (http://www.inkscape.org/) -->

<svg
   xmlns:dc="http://purl.org/dc/elements/1.1/"
   xmlns:cc="http://creativecommons.org/ns#"
   xmlns:rdf="http://www.w3.org/1999/02/22-rdf-syntax-ns#"
   xmlns:svg="http://www.w3.org/2000/svg"
   xmlns="http://www.w3.org/2000/svg"
   xmlns:sodipodi="http://sodipodi.sourceforge.net/DTD/sodipodi-0.dtd"
   xmlns:inkscape="http://www.inkscape.org/namespaces/inkscape"
   width="500"
   height="225"
   viewBox="0 0 500 224.99999"
   id="svg4197"
   version="1.1"
   inkscape:version="0.91 r13725"
   sodipodi:docname="bb510401.svg">
  <defs
     id="defs4199" />
  <sodipodi:namedview
     id="base"
     pagecolor="#b1b1b1"
     bordercolor="#666666"
     borderopacity="1.0"
     inkscape:pageopacity="0"
     inkscape:pageshadow="2"
     inkscape:zoom="1.4"
     inkscape:cx="155.96984"
     inkscape:cy="152.75125"
     inkscape:document-units="px"
     inkscape:current-layer="layer1"
     showgrid="false"
     fit-margin-top="0"
     fit-margin-left="0"
     fit-margin-right="0"
     fit-margin-bottom="0"
     inkscape:window-width="1440"
     inkscape:window-height="810"
     inkscape:window-x="0"
     inkscape:window-y="0"
     inkscape:window-maximized="0"
     units="px" />
  <metadata
     id="metadata4202">
    <rdf:RDF>
      <cc:Work
         rdf:about="">
        <dc:format>image/svg+xml</dc:format>
        <dc:type
           rdf:resource="http://purl.org/dc/dcmitype/StillImage" />
        <dc:title></dc:title>
      </cc:Work>
    </rdf:RDF>
  </metadata>
  <g
     inkscape:label="Layer 1"
     inkscape:groupmode="layer"
     id="layer1"
     transform="translate(-161.95985,-630.84841)">
    <g
       id="g4668"
       transform="translate(-12.498598,0.70046132)">
      <path
         inkscape:connector-curvature="0"
         id="path4559"
         d="m 414.4858,672.94195 c -2.10581,-0.048 -3.39025,5.16724 -5.21093,19.96875 -0.83315,6.77315 -1.67599,18.03514 -1.98438,22.29687 -0.17729,1.68557 -0.29875,3.70775 -0.46484,6.14453 -0.21719,3.18644 -0.42847,5.52851 -0.67969,7.32618 l 0.004,0.0254 c -0.004,0.0189 -0.01,0.0358 -0.0137,0.0547 -0.36169,2.55341 -0.81366,3.95724 -1.50976,4.89258 -0.33519,0.96369 -0.48135,1.57979 -0.0859,1.65039 0.88389,0.15783 13.06777,2.74741 13.32031,0.28516 0.2233,-2.17706 0.21606,-3.18164 0.0605,-5.16016 -0.18797,-1.43782 -0.4263,-3.58874 -0.6582,-6.08398 l -0.55274,-5.95313 c -0.0825,-0.75674 -0.15671,-1.39199 -0.23437,-2.07031 -0.34901,-5.55857 -0.24789,-13.80617 0.12695,-19.99805 l 0,-0.89453 c 0,-6.20834 0.476,-11.01506 1.1582,-11.69726 0.83749,-0.83749 0.83749,-1.75743 0,-3.32227 -0.63691,-1.19009 -1.1582,-3.12126 -1.1582,-4.29101 0,-1.16975 -0.5213,-2.44891 -1.16015,-2.84375 -0.3383,-0.20908 -0.6562,-0.32323 -0.95704,-0.33008 z"
         style="fill:#000000" />
      <path
         inkscape:connector-curvature="0"
         id="path4573"
         d="m 414.28268,673.88531 c -0.51671,-0.0355 -1.07354,0.37275 -1.42383,1.30468 -0.27388,0.72864 -1.43309,8.89973 -2.57617,18.16016 -0.90083,7.29799 -1.14532,12.29847 -1.40039,15.33789 l -0.29102,3.46289 c -0.39453,2.17631 -0.54353,6.32244 -0.79882,14.9336 -0.046,1.55104 -0.24828,2.80237 -0.64649,3.91796 1.19898,-0.89662 2.32269,-1.55716 3.9375,-1.48046 1.77789,-0.046 3.80763,0.49121 4.50977,1.19335 0.9956,0.9956 1.12423,-0.52251 0.58593,-6.89062 l -0.60351,-7.14258 c -1.9e-4,-0.0259 0.008,-0.016 0.006,-0.0508 -0.25718,-4.31535 0,-8.44933 0,-10.09961 l -0.0371,-10.57226 c -0.0232,-6.59394 0.46852,-11.5408 1.1582,-12.23047 0.83748,-0.83749 0.83748,-1.75743 0,-3.32227 -0.63692,-1.19008 -1.1582,-3.14936 -1.1582,-4.35351 0,-1.34327 -0.59738,-2.12238 -1.26172,-2.16797 z"
         style="fill:#ffffff" />
      <path
         inkscape:transform-center-y="2.2822777"
         inkscape:transform-center-x="20.079316"
         sodipodi:nodetypes="ccscssssssssscsssccccccssc"
         inkscape:connector-curvature="0"
         id="path4541"
         d="m 412.40688,715.77069 c -0.0881,-0.0726 -0.1893,-0.12988 -0.30496,-0.17116 -0.85749,-0.30617 -3.81118,2.30347 -8.57861,7.5801 -3.99931,4.42645 -8.21011,8.4628 -9.35642,8.96999 -1.14634,0.50724 -3.06566,2.17816 -4.264,3.7132 -1.84469,2.36301 -3.88272,2.99549 -13.30135,4.12368 -11.30908,1.35462 -13.55523,2.30752 -11.9057,5.04967 0.60678,1.00873 3.34401,1.2528 7.99468,0.71563 6.52257,-0.75333 7.00148,-0.64762 6.14766,1.33278 -0.51193,1.18749 -0.11575,3.47846 0.88739,5.12553 1.67751,2.75439 1.58095,3.2786 -1.30221,6.97184 -3.06594,3.92737 -3.11063,6.05085 -0.0881,4.23267 0.84628,-0.50908 2.54259,-2.20957 3.7687,-3.78017 1.35972,-1.74177 3.38922,-2.99873 5.20389,-3.22227 3.85398,-0.47468 6.33695,-3.72764 5.85168,-7.6672 -0.27987,-2.27198 0.0604,-3.17868 1.2505,-3.32527 0.9,-0.11085 2.28139,-1.02754 3.06924,-2.03675 1.21424,-1.5554 10.41586,-3.16752 11.82037,-2.07108 2.33158,1.37634 6.73004,1.29896 8.39005,-1.50838 1.21736,-2.11776 -4.05724,-8.19658 -1.66231,-6.4685 0.42071,0.30356 2.0219,1.50723 3.54109,2.71972 -1.06259,-2.18478 -2.5068,-4.74718 -3.36225,-5.38007 -1.16128,-0.99879 -5.67153,-0.79405 -7.42428,-0.79564 -0.35833,0.1169 -0.70906,0.2011 -1.06161,0.22678 -2.64391,0.19262 -2.62532,0.0779 0.59995,-4.05361 3.65176,-4.67778 5.40642,-9.19112 4.08712,-10.28132 z"
         style="fill:#000000" />
      <path
         inkscape:transform-center-y="-8.5308476"
         inkscape:transform-center-x="10.384366"
         id="path4537"
         d="m 411.72736,716.31655 c 0.72601,0.56676 -0.41712,4.11205 -1.9532,6.22823 -1.53609,2.11622 -4.39478,5.82203 -5.70658,7.4782 -1.31181,1.65617 -1.99419,2.60356 -2.95967,3.88647 -5.46907,7.26671 -5.96037,8.08321 -2.46403,4.03555 0.42561,1.26647 -0.97102,2.34224 -1.95865,3.15647 -0.49339,0.32105 -1.60684,0.63496 -2.67262,0.65901 -1.8272,-0.10146 -3.09502,-0.66003 -2.72956,-2.35635 0.28806,-0.65668 2.49678,-3.58364 3.81757,-5.23616 0.1396,-0.16911 0.2156,-0.25213 0.36872,-0.44063 2.04812,-2.52072 3.93553,-4.63086 5.59312,-6.29812 0.69277,-0.80502 5.09345,-5.97218 6.9972,-8.17289 1.90375,-2.20069 3.26179,-3.25666 3.66768,-2.93979 z"
         style="fill:#ffffff"
         inkscape:connector-curvature="0" />
      <path
         inkscape:transform-center-y="-0.030927963"
         inkscape:transform-center-x="10.270244"
         id="path4535"
         d="m 414.56197,730.59629 c 0.0394,0.52201 -0.60453,0.69767 -2.11394,0.6194 -3.51759,-0.18246 -5.3397,2.31778 -4.35935,5.97777 l 0.78854,2.94471 -5.40815,0.38926 c -3.11923,0.2246 -6.0139,1.16204 -6.83509,2.21397 -0.78328,1.00335 -2.22705,1.92326 -3.20888,2.04421 -0.98181,0.12094 -2.38582,-0.24946 -3.12099,-0.82338 -2.23699,-1.74632 -1.91519,-4.44643 0.94729,-7.93278 2.32728,-2.8346 2.57835,-2.94145 1.7848,-0.77228 -0.96842,1.81447 -2.30942,2.92204 -2.66975,3.74361 -0.88889,2.49152 1.53832,3.78871 3.66903,3.75875 1.22583,-0.0276 2.42259,-0.31797 3.19537,-0.82081 1.74868,-1.34883 3.10469,-2.85636 2.07663,-4.75174 4.29786,-4.98779 5.59432,-5.90646 8.95027,-6.39301 0.53601,-0.0777 1.02613,-0.1872 1.49739,-0.31524 3.27569,-0.26371 3.93533,-0.48087 4.80683,0.11756 z"
         style="fill:#008080"
         inkscape:connector-curvature="0" />
      <path
         inkscape:transform-center-y="5.1216315"
         inkscape:transform-center-x="35.411675"
         id="path4531"
         d="m 388.01656,740.4271 c 0.0363,0.0373 0.0521,0.0789 0.0473,0.12362 -0.0725,0.66034 -1.39953,1.29401 -2.94923,1.40692 -1.54972,0.11291 -3.15065,0.63017 -3.55691,1.15059 -0.40625,0.5204 -3.91914,1.31276 -7.80778,1.76187 -7.04305,0.81346 -9.85082,0.19247 -8.27002,-1.83249 1.16701,-1.4949 21.41473,-3.76802 22.53671,-2.61048 z"
         style="fill:#ffffff"
         inkscape:connector-curvature="0" />
      <path
         inkscape:transform-center-y="8.6693709"
         inkscape:transform-center-x="27.430686"
         id="path4825"
         d="m 388.14736,743.62398 c 1.77134,1.38281 -1.03612,5.71453 -3.93452,6.07155 -3.37856,0.41616 -4.93951,-1.93771 -2.96458,-4.46752 2.09736,-2.68666 4.72911,-3.29805 6.8991,-1.60403 z"
         style="fill:#ffffff"
         inkscape:connector-curvature="0" />
      <g
         transform="matrix(0.99990738,-0.01361032,0.01361032,0.99990738,-0.57283833,5.5634208)"
         inkscape:transform-center-y="-11.748608"
         inkscape:transform-center-x="-18.283304"
         id="g4658">
        <path
           style="fill:#000000"
           d="m 416.29376,716.47579 c -1.07216,0.67247 -2.30614,1.80039 -3.8711,3.41224 l -6.6495,6.90851 -2.74318,2.10023 c -0.96382,0.73751 -1.99659,1.37423 -2.78331,2.17527 -0.79205,0.90117 -1.36879,1.92279 -1.66106,3.01358 0,0 -1.17888,2.90981 1.15886,6.0697 1.15828,0.7897 2.49034,1.2621 3.93079,1.34349 0.55215,0.0312 1.0241,0.0195 1.4866,-0.0306 0.83721,-0.19176 2.2537,-0.63383 3.37629,-1.69897 4.26643,-4.46516 6.2012,-7.15505 9.70853,-11.41481 0.69047,-1.12414 1.94229,-2.42493 1.94229,-2.42493 3.64652,1.81412 7.09999,4.93757 10.51145,7.64779 1.99544,1.48342 3.66731,2.82853 3.90948,3.24798 0.42072,0.72871 2.8559,2.3802 5.41192,3.67057 2.55601,1.29039 5.00258,1.95066 5.43625,1.46665 1.5061,-1.68099 -2.34958,-7.49674 -8.5766,-12.93713 -2.44072,-2.13238 -4.59802,-4.09179 -5.75063,-5.20256 -0.002,-10e-4 -0.005,-0.002 -0.006,-0.003 -3.41566,-3.00007 -6.71942,-6.62675 -10.73186,-8.12719 -1.48899,-0.27211 -2.6817,-0.10553 -4.09891,0.78329 z"
           id="path4656"
           inkscape:connector-curvature="0" />
        <path
           style="fill:#ffffff"
           d="m 416.85711,717.53754 c 3.6799,-2.13383 6.37254,0.31087 14.89674,8.12222 5.81343,5.32727 11.30803,10.96497 12.21058,12.52826 0.90255,1.56326 1.32065,3.0029 0.92974,3.20019 -0.98143,0.49516 -8.4224,-3.45912 -9.26915,-4.92574 -0.37914,-0.65669 -4.13444,-3.58368 -8.34544,-6.50549 l -7.65695,-5.31301 c -1.27866,1.78633 -2.70553,3.76533 -3.92223,5.47601 -2.15266,2.99416 -5.43715,6.79754 -7.10423,8.42949 -2.8322,2.39566 -5.3039,2.30725 -8.20978,0.96831 -1.51087,-1.25727 -1.51851,-3.10985 -0.91796,-5.41864 0.33528,-1.25129 1.68998,-2.89945 3.00998,-3.66155 1.31999,-0.7621 4.96876,-4.01362 8.10744,-7.22704 2.72244,-2.78727 4.59851,-4.70322 6.27126,-5.67301 z"
           id="path4321"
           inkscape:connector-curvature="0"
           sodipodi:nodetypes="csscsccccccssc" />
      </g>
      <g
         transform="translate(352.10974,-306.78901)"
         id="g4502">
        <path
           id="path4175-8"
           transform="translate(-190.14989,937.63741)"
           d="m 240.51367,111.00391 0,2.79101 c 0,1.5361 0.29678,3.08977 0.65821,3.45117 0.2415,0.24149 40.4206,0.4444 81.57226,0.5586 l 0,-6.80078 -82.23047,0 z"
           style="fill:#ffffff"
           inkscape:connector-curvature="0" />
        <path
           id="path18303-9"
           transform="translate(-190.14989,937.63741)"
           d="m 322.74414,109.80078 c -11.70937,0.14672 -20.43904,0.2168 -38.36523,0.2168 l -44.85157,0 0,3.25195 c 0,4.1235 1.50638,5.61914 5.66016,5.61914 3.91132,0 3.96831,0.0491 17.83398,15.71094 l 10.85743,12.26172 -11.50977,17.00195 -11.50586,17 -7.88476,0.35547 c -2.97341,0.13389 37.53204,0.23883 79.76562,0.28711 l 0,-0.75391 -68.13476,-0.25586 20.05859,-29.53711 c 11.78541,-15.7073 20.06055,-30.10583 20.06055,-30.80273 0,-0.46792 11.23841,-0.77902 28.01562,-1.00195 l 0,-1.44922 -81.73828,-0.29492 -0.30859,-3.20313 -0.3086,-3.20312 82.35547,-0.14063 0,-1.0625 z m -69.56055,9.08789 19.20118,0 c 17.80908,0 19.16602,0.12471 18.72851,1.72461 -0.25944,0.9488 -3.89455,6.67396 -8.08008,12.72266 l -7.61132,10.99804 -8.33594,-9.40625 c -3.81881,-5.7627 -9.58879,-10.89895 -11.11914,-12.72265 l -2.78321,-3.31641 z"
           style="fill:#000000"
           inkscape:connector-curvature="0" />
      </g>
    </g>
  </g>
</svg>
