<?xml version="1.0" encoding="UTF-8" standalone="no"?>
<!-- Created with Inkscape (http://www.inkscape.org/) -->

<svg
   xmlns:dc="http://purl.org/dc/elements/1.1/"
   xmlns:cc="http://creativecommons.org/ns#"
   xmlns:rdf="http://www.w3.org/1999/02/22-rdf-syntax-ns#"
   xmlns:svg="http://www.w3.org/2000/svg"
   xmlns="http://www.w3.org/2000/svg"
   xmlns:sodipodi="http://sodipodi.sourceforge.net/DTD/sodipodi-0.dtd"
   xmlns:inkscape="http://www.inkscape.org/namespaces/inkscape"
   id="svg18871"
   version="1.1"
   inkscape:version="0.91 r13725"
   width="500"
   height="225"
   viewBox="0 0 500 225"
   sodipodi:docname="bb530602.svg">
  <metadata
     id="metadata18877">
    <rdf:RDF>
      <cc:Work
         rdf:about="">
        <dc:format>image/svg+xml</dc:format>
        <dc:type
           rdf:resource="http://purl.org/dc/dcmitype/StillImage" />
        <dc:title></dc:title>
      </cc:Work>
    </rdf:RDF>
  </metadata>
  <defs
     id="defs18875" />
  <sodipodi:namedview
     pagecolor="#ffffff"
     bordercolor="#666666"
     borderopacity="1"
     objecttolerance="10"
     gridtolerance="10"
     guidetolerance="10"
     inkscape:pageopacity="0"
     inkscape:pageshadow="2"
     inkscape:window-width="1679"
     inkscape:window-height="963"
     id="namedview18873"
     showgrid="false"
     inkscape:zoom="2.0737299"
     inkscape:cx="146.52494"
     inkscape:cy="125.40976"
     inkscape:window-x="0"
     inkscape:window-y="0"
     inkscape:window-maximized="0"
     inkscape:current-layer="svg18871" />
  <g
     id="g19421"
     transform="translate(70.582394,-31.60725)">
    <path
       style="fill:#ffffff"
       d="m 182.48905,218.59806 c -2.01661,-2.22833 -1.96447,-4.18378 0.16289,-6.10901 2.19716,-1.9884 3.25477,-1.95508 5.17151,0.16289 2.01661,2.22833 1.96447,4.18378 -0.16289,6.10901 -2.19716,1.9884 -3.25477,1.95508 -5.17151,-0.16289 z m -1.15898,-78.04197 c -0.36829,-0.3683 -0.627,-2.3764 -0.627,-3.83734 0,-2.52861 0.44,-2.65625 4.51258,-2.65625 4.26188,0 4.27703,0.0115 3.98437,3.04687 -0.2646,2.74432 -0.62293,3.50081 -3.60853,3.7521 -1.82312,0.15345 -3.89313,0.0629 -4.26142,-0.30538 z m 0.94004,-23.13421 c 0.23974,-15.1144 0.32249,-15.71405 2.2073,-15.99439 3.08187,-0.4584 4.25343,2.73935 3.12863,8.53951 -0.52015,2.68221 -1.44223,8.01541 -2.04907,11.85155 -1.05419,6.66401 -0.59264,7.04667 1.31055,8.58777 2.73749,2.2167 2.77308,3.3073 -0.94505,3.02007 l -3.90144,-0.30139 z m 8.65644,-9.44882 c -1.86494,-2.06074 -1.93143,-3.03268 -0.35494,-5.18865 1.59146,-2.17646 4.09704,-1.14457 5.95772,2.4536 1.20849,2.33696 1.24289,2.9609 0.1997,3.62204 -2.01948,1.2799 -4.13399,0.95667 -5.80248,-0.88699 z M 178.62788,79.742737 c -0.36083,-0.58385 -0.38056,-2.69226 -0.0439,-4.685356 0.53315,-3.155654 0.99722,-3.69276 3.59222,-4.157522 7.0543,-1.26342 47.88816,-5.330818 49.04831,-4.885627 2.17412,0.834287 1.43815,1.862558 -3.17867,4.44116 -3.42247,1.911533 -8.2022,3.097784 -20.66648,5.129093 -7.85088,2.012468 -13.18627,4.356298 -17.19481,4.406907 -2.32031,0.01971 -5.62308,-0.185731 -7.49577,0.168618 -2.17929,0.412363 -3.64106,0.262164 -4.06097,-0.417273 z m 31.88873,-3.667996 c 7.9758,-1.407277 15.19607,-3.201061 16.60764,-4.125959 2.99729,-1.963905 3.50075,-2.020034 3.50075,-0.390285 0,2.501928 -8.5534,5.285098 -19.21875,6.253536 -15.99614,1.452488 -16.24239,0.971598 -0.88964,-1.737292 z"
       id="path19429"
       inkscape:connector-curvature="0"
       sodipodi:nodetypes="ssssscsssscsssssscssssssccsssccsccsssss" />
    <path
       style="fill:#007f7f"
       d="m 187.70258,102.16351 c -1.25515,-2.00982 -3.93233,-2.43376 -5.49583,-0.87026 -1.52553,1.52553 -5.50373,-4.399447 -7.33423,-10.923291 -1.47895,-5.270936 -1.48187,-6.013996 -0.043,-10.963477 1.65689,-5.699492 3.65323,-8.304538 2.6959,-3.517912 -0.68614,3.430821 0.88184,5.67393 3.96623,5.67393 1.56186,0 2.04438,0.404332 1.66434,1.394681 -0.29435,0.767075 0.58535,3.306727 1.95489,5.643671 3.064,5.22832 5.59128,12.942048 4.67242,14.583968 -0.51746,0.92464 -1.20565,0.37984 -2.08069,-1.02131 z"
       id="path19425"
       inkscape:connector-curvature="0"
       sodipodi:nodetypes="cssssscsscc" />
    <path
       style="fill:#000000"
       d="m 180.42614,220.82386 c -1.45054,-1.45053 -2.30114,-3.37226 -2.30114,-5.19886 0,-3.5995 3.65672,-7.5 7.03125,-7.5 3.37453,0 7.03125,3.9005 7.03125,7.5 0,3.5995 -3.65672,7.5 -7.03125,7.5 -1.33594,0 -3.46448,-1.03552 -4.73011,-2.30114 z m 7.23442,-2.06291 c 2.12736,-1.92523 2.1795,-3.88068 0.16289,-6.10901 -1.91674,-2.11797 -2.97435,-2.15129 -5.17151,-0.16289 -2.12736,1.92523 -2.1795,3.88068 -0.16289,6.10901 1.91674,2.11797 2.97435,2.15129 5.17151,0.16289 z m -72.11368,-17.90148 68.20312,-0.24671 0,-29.52513 c 0,-24.61172 -0.21733,-29.52513 -1.30595,-29.52513 -2.21926,0 -2.44404,-2.44236 -1.40497,-15.26541 1.29561,-15.98923 0.60229,-22.48051 -2.87021,-26.872327 -1.44856,-1.832054 -3.35072,-5.89105 -4.22703,-9.019984 -1.47639,-5.271533 -1.48263,-6.069637 -0.0851,-10.876783 2.653,-9.125984 2.37098,-9.016383 31.48483,-12.236026 23.81519,-2.633675 25.57336,-2.714832 27.01875,-1.247178 1.3847,1.406028 1.39572,1.686087 0.10561,2.684381 -0.7922,0.613017 -1.29261,1.832102 -1.11201,2.709076 0.2303,1.118371 -1.05297,2.294473 -4.29756,3.938629 -3.91902,1.985915 -7.15874,2.566014 -21.20051,3.796126 -9.11606,0.798598 -17.57978,1.451996 -18.8083,1.451996 -3.58088,0 -3.81724,3.069094 -0.66834,8.678201 1.51775,2.703552 3.03007,6.069283 3.36071,7.479396 l 0.60117,2.563847 1.9535,-1.953507 c 1.41552,-1.415521 2.76333,-1.834659 4.89404,-1.521937 1.61729,0.237375 3.66132,-0.01856 4.54228,-0.568725 1.2297,-0.767963 2.04942,-0.595153 3.52918,0.744019 2.0474,1.852875 2.54614,4.710676 0.98994,5.672456 -0.51562,0.31868 -0.9375,-0.23758 -0.9375,-1.23613 0,-1.853101 -2.12973,-4.290395 -2.99388,-3.426236 -0.26269,0.262688 -0.27973,2.5371 -0.0379,5.054256 0.3898,4.05676 0.18205,4.7455 -1.82888,6.06312 -3.58319,2.34779 -7.69961,2.85511 -9.13481,1.1258 -1.99808,-2.40754 -2.73053,-1.75539 -3.33136,2.96606 -0.31166,2.44922 -1.02927,7.14904 -1.59467,10.44405 -0.96165,5.60429 -0.9022,6.08832 0.92115,7.5 3.45204,2.67267 3.94039,11.35283 0.63871,11.35283 -1.19679,0 -1.38839,4.07429 -1.38839,29.52436 l 0,29.52436 60.23437,0.24828 c 33.12891,0.13654 1.80469,0.24792 -69.60937,0.24748 -71.41406,-4.3e-4 -99.152344,-0.11182 -61.64062,-0.24751 z m 73.65314,-63.7501 c 0.29266,-3.03529 0.27751,-3.04687 -3.98437,-3.04687 -4.07258,0 -4.27815,0.12764 -4.27815,2.65625 0,3.4965 0.69297,4.04987 4.65399,3.71649 2.9856,-0.25129 3.34393,-0.58155 3.60853,-3.32587 z m -0.76252,-4.53722 c 0,-0.30407 -0.89637,-1.27869 -1.99193,-2.16583 -1.90319,-1.5411 -1.94279,-1.92376 -0.8886,-8.58777 0.60684,-3.83614 1.52892,-9.16934 2.04907,-11.85155 1.1248,-5.80016 -0.0468,-8.99791 -3.12863,-8.53951 -1.88481,0.28034 -1.96756,0.87999 -2.2073,15.99438 l -0.24908,15.70313 3.20824,0 c 1.76453,0 3.20823,-0.24878 3.20823,-0.55285 z m 8.29153,-23.7121 c 1.04319,-0.66114 1.00879,-1.28508 -0.1997,-3.62204 -1.86068,-3.59817 -4.36626,-4.63006 -5.95772,-2.4536 -1.57648,2.15597 -1.51,3.12791 0.35494,5.18865 1.66849,1.84366 3.783,2.16689 5.80248,0.88699 z m -7.81569,-11.649381 c -0.72183,-2.398453 -2.43296,-6.272874 -3.80249,-8.609817 -1.36954,-2.336944 -2.24924,-4.876596 -1.95489,-5.643671 0.38004,-0.990349 -0.10248,-1.394681 -1.66434,-1.394681 -3.08439,0 -4.65237,-2.243109 -3.96621,-5.67393 0.95733,-4.786626 -1.03901,-2.18158 -2.6959,3.517912 -1.43886,4.949481 -1.43594,5.692541 0.043,10.963477 1.8305,6.523844 5.8087,12.448821 7.33423,10.923291 1.5635,-1.5635 4.24068,-1.13956 5.49583,0.87026 1.92567,3.08347 2.68926,-0.0401 1.21076,-4.952841 z m 1.39916,-17.730752 c 5.61732,-1.305721 11.07333,-2.908874 17.06693,-3.895432 12.46429,-2.031309 17.24401,-3.21756 20.66649,-5.129093 4.61682,-2.578602 5.35279,-3.606873 3.17867,-4.44116 -1.16015,-0.445191 -41.99401,3.622207 -49.04831,4.885627 -2.595,0.464762 -3.05908,1.001868 -3.59222,4.157522 -0.8289,4.906199 -0.0399,5.886901 4.10479,5.102629 1.8727,-0.354349 5.30334,-0.660392 7.62365,-0.680093 z m 21.09375,-1.667884 c 10.66535,-0.968438 19.21875,-3.751608 19.21875,-6.253536 0,-1.629749 -0.50346,-1.57362 -3.50075,0.390285 -1.41157,0.924898 -8.63184,2.718682 -16.60764,4.125959 -15.35275,2.70889 -15.1065,3.18978 0.88964,1.737292 z"
       id="path19423"
       inkscape:connector-curvature="0"
       sodipodi:nodetypes="sssssssssssscssssssssscssssscsssscsscssssssscsssssssssssssscssssssscscssssssccccssssscsssss" />
  </g>
</svg>
