<?xml version="1.0" encoding="UTF-8" standalone="no"?>
<!-- Created with Inkscape (http://www.inkscape.org/) -->

<svg
   xmlns:dc="http://purl.org/dc/elements/1.1/"
   xmlns:cc="http://creativecommons.org/ns#"
   xmlns:rdf="http://www.w3.org/1999/02/22-rdf-syntax-ns#"
   xmlns:svg="http://www.w3.org/2000/svg"
   xmlns="http://www.w3.org/2000/svg"
   xmlns:sodipodi="http://sodipodi.sourceforge.net/DTD/sodipodi-0.dtd"
   xmlns:inkscape="http://www.inkscape.org/namespaces/inkscape"
   id="svg3478"
   version="1.1"
   inkscape:version="0.91 r13725"
   width="472.89719"
   height="171.5625"
   viewBox="0 0 472.89719 171.5625"
   sodipodi:docname="bb620505.svg">
  <metadata
     id="metadata3484">
    <rdf:RDF>
      <cc:Work
         rdf:about="">
        <dc:format>image/svg+xml</dc:format>
        <dc:type
           rdf:resource="http://purl.org/dc/dcmitype/StillImage" />
        <dc:title></dc:title>
      </cc:Work>
    </rdf:RDF>
  </metadata>
  <defs
     id="defs3482" />
  <sodipodi:namedview
     pagecolor="#ffffff"
     bordercolor="#666666"
     borderopacity="1"
     objecttolerance="10"
     gridtolerance="10"
     guidetolerance="10"
     inkscape:pageopacity="0"
     inkscape:pageshadow="2"
     inkscape:window-width="1606"
     inkscape:window-height="835"
     id="namedview3480"
     showgrid="false"
     inkscape:zoom="2.7172925"
     inkscape:cx="226.14422"
     inkscape:cy="87.98933"
     inkscape:window-x="0"
     inkscape:window-y="0"
     inkscape:window-maximized="0"
     inkscape:current-layer="svg3478" />
  <g
     id="g3498"
     transform="translate(-1.6558765,-1.7372666)">
    <path
       style="fill:#fefefe"
       d="m 55.14368,81.796875 c 0.0052,-2.467855 2.909001,-6.528162 10.056861,-14.0625 6.563978,-6.918887 8.437666,-7.883827 10.490515,-5.402564 1.496344,1.808618 0.548979,4.230689 -1.654784,4.230689 -2.06582,0 -15.737121,12.400385 -16.568606,15.028349 -0.723912,2.287968 -2.328723,2.430237 -2.323986,0.206026 z m 282.24299,0 c 0.006,-2.467855 2.909,-6.528162 10.05686,-14.0625 6.56398,-6.918887 8.43766,-7.883827 10.49051,-5.402564 1.49635,1.808618 0.54898,4.230689 -1.65478,4.230689 -2.06582,0 -15.73712,12.400385 -16.56861,15.028349 -0.72391,2.287968 -2.32872,2.430237 -2.32398,0.206026 z M 121.49533,73.49401 c -4.88318,-1.805688 -12.03271,-4.118938 -15.88785,-5.140552 -7.122584,-1.887489 -10.280378,-4.177926 -10.280378,-7.456642 0,-3.616128 3.49657,-2.814663 20.201948,4.630574 9.19267,4.096979 18.29104,7.740366 20.21861,8.096416 1.92757,0.356051 3.50467,0.96709 3.50467,1.357865 0,0.638371 -5.59887,1.931011 -7.94392,1.834053 -0.51402,-0.02125 -4.92991,-1.516024 -9.81308,-3.321714 z m 282.24298,0 c -4.88318,-1.805688 -12.03271,-4.118938 -15.88785,-5.140552 -7.12258,-1.887489 -10.28037,-4.177926 -10.28037,-7.456642 0,-3.616128 3.49657,-2.814663 20.20195,4.630574 9.19266,4.096979 18.29104,7.740366 20.21861,8.096416 1.92757,0.356051 3.50467,0.96709 3.50467,1.357865 0,0.638371 -5.59888,1.931011 -7.94392,1.834053 -0.51402,-0.02125 -4.92991,-1.516024 -9.81309,-3.321714 z M 85.71426,69.732117 c -0.367143,-0.368289 -0.667532,-1.864929 -0.667532,-3.325867 0,-2.528612 0.204933,-2.65625 4.26482,-2.65625 4.24861,0 4.263712,0.01158 3.971963,3.046875 -0.263777,2.744317 -0.620992,3.074579 -3.597289,3.325867 -1.817437,0.153446 -3.60482,-0.02233 -3.971962,-0.390625 z m 96.26168,0 c -0.36714,-0.368289 -0.66753,-1.864929 -0.66753,-3.325867 0,-2.528612 0.20493,-2.65625 4.26482,-2.65625 4.24861,0 4.26371,0.01158 3.97196,3.046875 -0.26377,2.744317 -0.62099,3.074579 -3.59729,3.325867 -1.81744,0.153446 -3.60482,-0.02233 -3.97196,-0.390625 z m 100,0 c -0.36714,-0.368289 -0.66753,-1.864929 -0.66753,-3.325867 0,-2.528612 0.20493,-2.65625 4.26482,-2.65625 4.24861,0 4.26371,0.01158 3.97196,3.046875 -0.26377,2.744317 -0.62099,3.074579 -3.59729,3.325867 -1.81744,0.153446 -3.60482,-0.02233 -3.97196,-0.390625 z m 37.65022,-1.35364 c -3.85514,-0.956514 -9.95327,-1.774783 -13.5514,-1.818376 -6.74102,-0.08167 -14.09734,-1.170247 -15.16833,-2.244586 -0.33455,-0.335587 0.0618,-1.282279 0.88069,-2.10376 1.36221,-1.36647 2.93114,-1.178467 18.43238,2.208729 9.31889,2.036283 16.61448,3.397559 16.21243,3.025059 -0.40205,-0.3725 -7.79949,-2.19823 -16.43877,-4.057177 -8.63927,-1.858946 -16.52478,-3.818526 -17.52336,-4.354619 -1.98961,-1.068133 -2.39168,-3.70586 -0.80719,-5.295311 1.72433,-1.729718 32.63378,5.676402 40.34673,9.667357 3.00057,1.552602 3.38288,4.529391 0.76238,5.936222 -2.39783,1.287287 -4.77654,1.112933 -13.14556,-0.963538 z m 48.33109,1.35364 c -0.36714,-0.368289 -0.66754,-1.864929 -0.66754,-3.325867 0,-2.528612 0.20494,-2.65625 4.26483,-2.65625 4.2486,0 4.26371,0.01158 3.97196,3.046875 -0.26378,2.744317 -0.62099,3.074579 -3.59729,3.325867 -1.81744,0.153446 -3.60482,-0.02233 -3.97196,-0.390625 z M 143.5318,66.721853 c -3.04349,-0.861081 -5.70704,-2.092947 -5.91901,-2.737478 -0.4676,-1.421901 2.02497,-1.532658 4.50682,-0.200259 0.99542,0.534388 4.20522,1.101316 7.13291,1.259839 5.5167,0.298709 7.55721,1.789226 3.82308,2.792627 -2.79681,0.751533 -3.05346,0.721556 -9.5438,-1.114729 z m 13.09878,-0.73476 c -0.58893,-1.539494 -0.0172,-1.901733 4.2766,-2.709777 3.73714,-0.703283 7.97669,0.200986 6.71026,1.431257 -0.43726,0.424774 -2.98149,1.165109 -5.65385,1.645191 -3.78991,0.680846 -4.96315,0.60018 -5.33301,-0.366671 z m -92.1446,-1.52375 c 0,-3.595191 2.028314,-5.589799 5.328813,-5.240261 l 2.909858,0.308168 -4.119335,3.581034 c -3.960427,3.442891 -4.119336,3.495011 -4.119336,1.351059 z m 183.79939,0.685968 c -5.27022,-1.45279 -6.0079,-1.996406 -4.6108,-3.397863 0.74574,-0.748071 2.20099,-0.579894 5.31931,0.614727 4.95337,1.897619 13.95828,1.449213 16.20754,-0.807067 1.18226,-1.185954 1.55055,-1.162876 2.90386,0.181964 1.44013,1.431128 1.15181,1.654008 -4.0721,3.147866 -6.62353,1.8941 -9.64026,1.943979 -15.74781,0.260373 z m 98.4436,-0.685968 c 0,-3.595191 2.02832,-5.589799 5.32881,-5.240261 l 2.90986,0.308168 -4.11934,3.581034 c -3.96043,3.442891 -4.11933,3.495011 -4.11933,1.351059 z m -142.05608,0.174179 c -6.93925,-0.366311 -12.96057,-0.715858 -13.38073,-0.776771 -0.60945,-0.08836 -0.0565,-3.620174 0.71262,-4.552212 0.10109,-0.12249 6.25211,0.396519 13.66895,1.153353 14.83208,1.513507 16.32784,1.608432 15.71887,0.997569 -0.22783,-0.228547 -5.02923,-0.861467 -10.66978,-1.406489 -19.89869,-1.922728 -19.13404,-1.725598 -19.13404,-4.93278 0,-2.678379 0.16158,-2.799858 3.03739,-2.283632 1.67056,0.299876 9.87643,1.412818 18.23528,2.473203 17.0681,2.165225 19.84883,3.035774 19.84883,6.213985 0,4.268541 -1.98527,4.489022 -28.03739,3.113774 z m 56.22049,-7.034847 c -1.86398,-4.103772 1.56236,-7.690831 5.08421,-5.322694 1.716,1.153854 2.5155,6.033866 1.13268,6.91361 -2.40619,1.530801 -5.11368,0.837947 -6.21689,-1.590916 z M 138.31776,53.18279 c 0,-1.618833 3.04775,-2.940957 10.35023,-4.489964 5.29885,-1.123995 16.38123,-0.03626 19.53191,1.917053 2.07547,1.286715 -3.12181,2.273972 -5.43459,1.032338 -3.58641,-1.925383 -14.8772,-0.7883 -22.81204,2.297374 -1.10823,0.430967 -1.63551,0.186979 -1.63551,-0.756801 z m 125.37206,-3.145509 c -4.18652,-2.516718 -6.11815,-2.603099 -15.91169,-0.711554 -2.45036,0.473268 -3.06018,0.319945 -2.72611,-0.6854 0.23668,-0.712275 3.07018,-1.906814 6.29667,-2.654534 5.73861,-1.32989 6.03922,-1.300606 13.80702,1.345005 7.06002,2.404551 7.75435,2.841168 6.26059,3.936848 -2.30848,1.693276 -3.06288,1.573145 -7.72648,-1.230365 z"
       id="path3506"
       inkscape:connector-curvature="0" />
    <path
       style="fill:#007f7f"
       d="m 76.813027,65.688248 c 0.984471,-1.581314 0.837798,-2.199947 -0.982387,-4.1435 l -2.139637,-2.284658 4.824748,-1.607532 c 3.761666,-1.253329 6.364826,-1.462764 11.814303,-0.950511 6.119945,0.575279 6.778431,0.811884 5.292608,1.901734 -1.478476,1.084471 -1.551757,1.630541 -0.569224,4.241718 1.071598,2.847849 1.044664,2.921605 -0.541121,1.482003 -2.242572,-2.035843 -8.134227,-1.918286 -11.190477,0.223284 -1.364395,0.956058 -3.647421,2.021341 -5.073392,2.367296 -2.402837,0.582954 -2.507938,0.492906 -1.435421,-1.229834 z m 282.242983,0 c 0.98447,-1.581314 0.8378,-2.199947 -0.98238,-4.1435 l -2.13964,-2.284658 4.82475,-1.607532 c 3.76167,-1.253329 6.36483,-1.462764 11.8143,-0.950511 6.11995,0.575279 6.77843,0.811884 5.29261,1.901734 -1.47848,1.084471 -1.55176,1.630541 -0.56923,4.241718 1.0716,2.847849 1.04467,2.921605 -0.54112,1.482003 -2.24257,-2.035843 -8.13422,-1.918286 -11.19047,0.223284 -1.3644,0.956058 -3.64742,2.021341 -5.0734,2.367296 -2.40284,0.582954 -2.50793,0.492906 -1.43542,-1.229834 z M 167.64375,63.061292 c -2.58068,-1.46422 -2.80272,-1.907104 -1.92582,-3.841234 0.72105,-1.590376 0.68609,-2.67626 -0.12831,-3.984375 -1.33793,-2.149066 -2.46896,-1.954664 13.19358,-2.267716 l 11.96077,-0.239063 -0.27852,4.807423 -0.27854,4.807423 -5.14018,0.698518 c -12.57398,1.708724 -14.42134,1.710744 -17.40298,0.01902 z m 102.83912,-0.3349 c -1.52071,-0.779844 -1.94705,-1.888778 -1.94705,-5.064394 0,-5.503812 2.49981,-6.774537 9.38362,-4.769969 3.50118,1.019548 5.79715,1.160577 8.52915,0.523898 4.98318,-1.161305 5.72351,-1.126068 4.39253,0.209073 -1.52282,1.527577 -1.40951,3.564368 0.30395,5.463635 1.14374,1.267771 1.18992,1.772968 0.23365,2.556338 -1.74278,1.427669 -18.52685,2.29629 -20.89585,1.081419 z"
       id="path3502"
       inkscape:connector-curvature="0" />
    <path
       style="fill:#000000"
       d="m 61.448597,130.54747 26.401869,-0.26417 0,-29.51665 c 0,-25.827079 -0.178153,-29.51665 -1.425233,-29.51665 -0.835929,0 -1.657091,-1.16291 -1.985982,-2.8125 -0.555161,-2.784476 -1.608372,-3.587651 -2.598073,-1.981278 -0.281667,0.457172 -1.946055,1.10107 -3.698639,1.430885 -3.900424,0.73401 -6.925692,5.838321 -5.284038,8.915366 1.178358,2.208663 1.222599,2.885027 0.188708,2.885027 -1.171877,0 -2.977725,-4.471482 -2.40767,-5.961664 0.274085,-0.716486 -0.255772,-1.585734 -1.184518,-1.943241 -1.257581,-0.484087 -2.858511,0.612741 -6.362122,4.358818 -2.574927,2.753122 -5.163828,5.837425 -5.753114,6.854007 -0.828437,1.429143 -1.33221,1.598124 -2.221293,0.745095 -1.900488,-1.823419 -0.216268,-5.787857 4.652928,-10.952404 3.753099,-3.980749 4.459042,-5.268795 4.053636,-7.396163 -0.300066,-1.574604 0.121664,-3.513779 1.084877,-4.988424 1.28068,-1.960673 2.21986,-2.371196 5.015162,-2.192169 1.891665,0.121153 5.852379,-0.556915 8.801588,-1.506818 8.796926,-2.833379 16.504204,-1.271284 34.824717,7.058195 8.2243,3.739204 17.47664,7.523964 20.56075,8.410576 6.73471,1.936077 7.32293,3.833332 1.54393,4.979755 -3.55982,0.706187 -5.58721,0.28539 -16.35514,-3.394605 -6.76038,-2.310395 -14.89994,-4.935319 -18.08791,-5.833163 -3.187985,-0.897844 -5.747499,-1.888179 -5.687816,-2.200745 0.05972,-0.312565 -0.232785,-1.794096 -0.649907,-3.292292 -0.584448,-2.099167 -0.391093,-2.993419 0.842944,-3.89859 1.355589,-0.99433 0.528654,-1.275434 -5.388197,-1.83162 -5.449477,-0.512254 -8.052637,-0.302819 -11.814303,0.95051 l -4.824748,1.607532 2.139637,2.284658 c 1.820185,1.943553 1.966858,2.562186 0.982387,4.1435 -1.072517,1.72274 -0.967416,1.812788 1.435421,1.229835 1.425971,-0.345956 3.708997,-1.411239 5.073392,-2.367297 2.83425,-1.986011 9.445346,-2.332134 10.81871,-0.566411 1.262823,1.623607 -0.376598,7.265625 -2.111198,7.265625 -1.181374,0 -1.375148,4.161291 -1.375148,29.53125 l 0,29.53125 46.728976,0 46.72897,0 0,-29.53125 c 0,-24.616948 -0.21665,-29.53125 -1.30188,-29.53125 -1.40777,0 -2.43644,-1.96283 -2.43644,-4.649016 0,-1.900163 -2.97683,-1.861157 -15.79697,0.206985 -5.25329,0.847458 -7.02282,1.516342 -7.35199,2.779059 -0.54114,2.075791 -2.08469,2.190622 -2.08469,0.15509 0,-1.137735 -0.56994,-1.364389 -2.32178,-0.92333 -2.89697,0.729364 -14.06423,-2.00543 -15.55709,-3.809835 -1.91008,-2.308702 0.44335,-3.722635 4.09444,-2.459918 7.58078,2.621789 15.06896,2.114503 12.14111,-0.822497 -1.68477,-1.690036 -1.42163,-6.440887 0.4751,-8.577579 1.60772,-1.811122 1.55876,-1.831115 -2.88166,-1.17653 -2.48444,0.366246 -6.20913,1.264724 -8.27709,1.996619 -3.98238,1.409459 -5.43003,1.134446 -5.43003,-1.031551 0,-1.80313 3.98673,-3.666533 10.89909,-5.094234 6.7228,-1.388554 15.09576,-0.308864 22.26094,2.870543 3.76657,1.671338 5.43904,1.853216 12.00983,1.306045 8.92267,-0.743019 43.95633,3.389366 48.4363,5.71329 3.40546,1.766532 3.58506,5.362674 0.37326,7.473705 -1.94593,1.279003 -4.39063,1.415567 -16.58879,0.926671 -7.86859,-0.31537 -16.51447,-0.800094 -19.21306,-1.077167 -4.44364,-0.45624 -4.90655,-0.327742 -4.90655,1.362015 0,2.857614 -0.99544,4.831635 -2.43644,4.831635 -1.08523,0 -1.30187,4.914302 -1.30187,29.53125 l 0,29.53125 48.59813,0 48.59813,0 0,-29.53125 c 0,-24.616948 -0.21665,-29.53125 -1.30188,-29.53125 -1.4124,0 -2.43644,-1.964379 -2.43644,-4.673694 0,-2.599168 -8.09641,-2.888099 -16.92434,-0.60397 -6.37007,1.648187 -7.70884,1.712745 -12.84486,0.619402 -3.15348,-0.671306 -6.47211,-1.770475 -7.37473,-2.442599 -1.53504,-1.143056 -1.53997,-1.32505 -0.0762,-2.815705 1.45982,-1.486603 1.8221,-1.490451 5.39274,-0.0573 4.07006,1.633603 8.17747,1.921745 13.15605,0.922919 l 3.05767,-0.613447 -4.10907,-1.517044 c -3.76495,-1.389993 -4.13369,-1.815187 -4.40303,-5.07698 -0.16166,-1.957965 0.20525,-4.163307 0.81537,-4.90076 0.90234,-1.090648 0.74172,-1.340822 -0.86086,-1.340822 -1.0836,0 -3.86629,0.508715 -6.18374,1.130477 -3.29648,0.88443 -4.46029,0.882973 -5.34719,-0.0067 -1.82425,-1.829952 0.85697,-3.651764 7.31394,-4.969622 5.42218,-1.106656 6.11198,-1.031014 13.08411,1.434773 4.0481,1.431662 7.99101,3.116944 8.76204,3.745073 2.82658,2.302712 8.50765,3.312957 13.08847,2.327477 3.71155,-0.798472 6.3867,-0.501158 17.53938,1.949312 13.92431,3.059451 25.28209,6.575952 28.88237,8.942317 2.86764,1.884824 2.75416,4.708548 -0.26911,6.695655 -2.30817,1.517101 -2.85537,1.512399 -10.04673,-0.08633 -4.18308,-0.929948 -12.27142,-2.014839 -17.97409,-2.410869 -5.70266,-0.39603 -11.22033,-0.991266 -12.26148,-1.322745 -1.55327,-0.494529 -1.9945,-0.09356 -2.45861,2.234241 -0.33283,1.66931 -1.1522,2.836892 -1.99085,2.836892 -1.2471,0 -1.42524,3.691086 -1.42524,29.531249 l 0,29.53125 41.58879,0 41.58878,0 0,-29.53125 c 0,-25.840163 -0.17814,-29.531249 -1.42523,-29.531249 -0.83593,0 -1.65709,-1.16291 -1.98598,-2.8125 -0.55516,-2.784476 -1.60838,-3.587651 -2.59808,-1.981278 -0.28166,0.457172 -1.94605,1.10107 -3.69863,1.430885 -3.90043,0.73401 -6.92569,5.838321 -5.28404,8.915366 1.17836,2.208663 1.2226,2.885027 0.18871,2.885027 -1.17188,0 -2.97773,-4.471482 -2.40767,-5.961664 0.27408,-0.716486 -0.25578,-1.585734 -1.18453,-1.943241 -1.25757,-0.484087 -2.8585,0.612741 -6.36212,4.358818 -2.57492,2.753122 -5.16382,5.837425 -5.75311,6.854007 -0.82844,1.429143 -1.3322,1.598124 -2.22129,0.745095 -1.90048,-1.823419 -0.21627,-5.787857 4.65293,-10.952404 3.7531,-3.980749 4.45903,-5.268795 4.05363,-7.396163 -0.30006,-1.574604 0.12167,-3.513779 1.08488,-4.988424 1.28068,-1.960673 2.21986,-2.371196 5.01516,-2.192169 1.89166,0.121153 5.85238,-0.556915 8.80159,-1.506818 8.79692,-2.833379 16.5042,-1.271284 34.82472,7.058195 8.2243,3.739204 17.47663,7.523964 20.56074,8.410576 6.73471,1.936077 7.32294,3.833332 1.54394,4.979755 -3.55982,0.706187 -5.58722,0.28539 -16.35514,-3.394605 -6.76038,-2.310395 -14.89994,-4.935319 -18.08792,-5.833163 -3.18798,-0.897844 -5.74749,-1.888179 -5.68781,-2.200745 0.0597,-0.312565 -0.23278,-1.794096 -0.64991,-3.292292 -0.58444,-2.099167 -0.39109,-2.993419 0.84295,-3.89859 1.35559,-0.99433 0.52865,-1.275434 -5.3882,-1.83162 -5.44947,-0.512254 -8.05263,-0.302819 -11.8143,0.95051 l -4.82475,1.607532 2.13964,2.284658 c 1.82018,1.943553 1.96685,2.562186 0.98238,4.1435 -1.07251,1.72274 -0.96742,1.812788 1.43542,1.229835 1.42598,-0.345956 3.709,-1.411239 5.0734,-2.367297 2.83425,-1.986011 9.44534,-2.332134 10.81871,-0.566411 1.26282,1.623607 -0.3766,7.265625 -2.1112,7.265625 -1.18135,0 -1.37515,4.159013 -1.37515,29.512229 l 0,29.51223 19.39252,0.27348 c 10.66589,0.15042 -65.35046,0.27129 -168.92523,0.2686 -103.57476,-0.003 -176.436911,-0.12377 -161.915883,-0.26907 z M 57.467666,81.590849 C 58.299151,78.962885 71.970452,66.5625 74.036272,66.5625 c 2.203763,0 3.151128,-2.422071 1.654784,-4.230689 -2.052849,-2.481263 -3.926537,-1.516323 -10.490515,5.402564 -7.14786,7.534338 -10.051606,11.594645 -10.056861,14.0625 -0.0048,2.224211 1.600074,2.081942 2.323986,-0.206026 z m 282.242984,0 c 0.83149,-2.627964 14.50279,-15.028349 16.56861,-15.028349 2.20376,0 3.15113,-2.422071 1.65478,-4.230689 -2.05285,-2.481263 -3.92653,-1.516323 -10.49051,5.402564 -7.14786,7.534338 -10.05161,11.594645 -10.05686,14.0625 -0.005,2.224211 1.60007,2.081942 2.32398,-0.206026 z M 135.74766,76.273268 c 1.92757,-0.319604 3.50467,-0.900823 3.50467,-1.291597 0,-0.390775 -1.5771,-1.001814 -3.50467,-1.357865 -1.92757,-0.35605 -11.02594,-3.999437 -20.21861,-8.096416 -16.705378,-7.445238 -20.201948,-8.246703 -20.201948,-4.630574 0,3.278716 3.157794,5.569153 10.280378,7.456642 3.85514,1.021614 11.00467,3.334864 15.88785,5.140552 9.92935,3.671652 9.44262,3.576738 14.25233,2.779257 z m 282.24299,0 c 1.92757,-0.319604 3.50467,-0.900823 3.50467,-1.291597 0,-0.390775 -1.5771,-1.001814 -3.50467,-1.357865 -1.92757,-0.35605 -11.02595,-3.999437 -20.21861,-8.096416 -16.70538,-7.445238 -20.20195,-8.246703 -20.20195,-4.630574 0,3.278716 3.15779,5.569153 10.28037,7.456642 3.85514,1.021614 11.00467,3.334864 15.88785,5.140552 9.92936,3.671652 9.44263,3.576738 14.25234,2.779257 z M 93.283511,66.796875 C 93.57526,63.761579 93.560158,63.75 89.311548,63.75 c -4.059887,0 -4.26482,0.127638 -4.26482,2.65625 0,3.4965 0.690812,4.049879 4.639494,3.716492 2.976297,-0.251288 3.333512,-0.58155 3.597289,-3.325867 z m 96.261679,0 C 189.83694,63.761579 189.82184,63.75 185.57323,63.75 c -4.05989,0 -4.26482,0.127638 -4.26482,2.65625 0,3.4965 0.69081,4.049879 4.63949,3.716492 2.9763,-0.251288 3.33352,-0.58155 3.59729,-3.325867 z m 100,0 C 289.83694,63.761579 289.82184,63.75 285.57323,63.75 c -4.05989,0 -4.26482,0.127638 -4.26482,2.65625 0,3.4965 0.69081,4.049879 4.63949,3.716492 2.9763,-0.251288 3.33352,-0.58155 3.59729,-3.325867 z m 43.22653,2.54514 c 2.6205,-1.406831 2.23819,-4.38362 -0.76238,-5.936222 -7.71295,-3.990955 -38.6224,-11.397075 -40.34673,-9.667357 -1.58449,1.589451 -1.18242,4.227178 0.80719,5.295311 0.99858,0.536093 8.88409,2.495673 17.52336,4.354619 8.63928,1.858947 16.03672,3.684677 16.43877,4.057177 0.40205,0.3725 -6.89354,-0.988776 -16.21243,-3.025059 -15.50124,-3.387196 -17.07017,-3.575199 -18.43238,-2.208729 -0.81892,0.821481 -1.21524,1.768173 -0.88069,2.10376 1.07099,1.074339 8.42731,2.162917 15.16833,2.244586 3.59813,0.04359 9.69626,0.861862 13.5514,1.818376 8.36902,2.076471 10.74773,2.250825 13.14556,0.963538 z m 42.75478,-2.54514 C 375.81825,63.761579 375.80314,63.75 371.55454,63.75 c -4.05989,0 -4.26483,0.127638 -4.26483,2.65625 0,3.4965 0.69082,4.049879 4.6395,3.716492 2.9763,-0.251288 3.33351,-0.58155 3.59729,-3.325867 z m -222.4509,1.039707 c 3.73413,-1.003401 1.69362,-2.493918 -3.82308,-2.792627 -2.92769,-0.158523 -6.13749,-0.725451 -7.13291,-1.259839 -2.48185,-1.332399 -4.97442,-1.221642 -4.50682,0.200259 0.21197,0.644531 2.87552,1.876397 5.91901,2.737478 6.49034,1.836285 6.74699,1.866262 9.5438,1.114729 z m 14.58294,-3.169242 c 1.10375,-1.073948 -2.62707,-1.87114 -7.48987,-1.600424 -2.85066,0.1587 -3.77893,0.579352 -3.57618,1.620584 0.15062,0.773437 0.30602,1.665064 0.34535,1.981392 0.0987,0.793819 9.68772,-0.99645 10.7207,-2.001552 z M 69.814793,59.223082 c -3.300499,-0.349538 -5.328813,1.64507 -5.328813,5.240261 0,2.143952 0.158909,2.091832 4.119336,-1.351059 l 4.119335,-3.581034 -2.909858,-0.308168 z m 193.213417,5.9142 c 2.53936,-0.772709 9.63882,-1.606088 15.7766,-1.851955 12.02377,-0.481648 14.83067,-1.43622 12.34026,-4.196692 -1.71346,-1.899267 -1.82677,-3.936058 -0.30395,-5.463635 1.33098,-1.335141 0.59065,-1.370378 -4.39253,-0.209073 -2.732,0.636679 -5.02797,0.49565 -8.52915,-0.523898 -6.84991,-1.994697 -9.47732,-0.699095 -9.37811,4.624444 0.0399,2.139377 0.51054,4.199723 1.04596,4.578546 0.627,0.443634 0.54724,0.693879 -0.2241,0.703125 -0.65866,0.0079 -1.4466,-0.636669 -1.75099,-1.432368 -0.49502,-1.294032 -0.72833,-1.287937 -2.21068,0.05775 -2.6273,2.385105 -11.33632,2.885452 -16.40764,0.942646 -3.11832,-1.19462 -4.57357,-1.362798 -5.31931,-0.614727 -1.3971,1.401457 -0.65942,1.945073 4.6108,3.397863 6.04362,1.665983 9.23694,1.663378 14.74284,-0.01203 z m 89.02957,-5.9142 c -3.30049,-0.349538 -5.32881,1.64507 -5.32881,5.240261 0,2.143952 0.1589,2.091832 4.11933,-1.351059 l 4.11934,-3.581034 -2.90986,-0.308168 z m -121.15522,5.431433 c 2.6131,-1.402859 2.31518,-5.059116 -0.51775,-6.353913 -1.279,-0.584575 -9.16451,-1.930452 -17.52336,-2.990839 -8.35885,-1.060385 -16.56472,-2.173327 -18.23528,-2.473203 -2.87581,-0.516226 -3.03739,-0.394747 -3.03739,2.283632 0,3.207182 -0.76465,3.010052 19.13404,4.93278 5.64055,0.545022 10.44195,1.177942 10.66978,1.406489 0.60897,0.610863 -0.88679,0.515938 -15.71887,-0.997569 -7.41684,-0.756834 -13.56786,-1.275843 -13.66895,-1.153353 -0.76918,0.932038 -1.32207,4.463855 -0.71262,4.552212 1.43765,0.208427 25.98949,1.442573 31.90012,1.60352 3.24641,0.0884 6.71603,-0.275989 7.71028,-0.809756 z m -45.85583,-1.612247 5.14018,-0.698518 0.27854,-4.807423 0.27852,-4.807423 -11.96077,0.239063 c -15.66254,0.313052 -14.53151,0.11865 -13.19358,2.267716 0.8144,1.308115 0.84936,2.393999 0.12831,3.984375 -0.8769,1.93413 -0.65486,2.377014 1.92582,3.841234 2.98164,1.69172 4.829,1.6897 17.40298,-0.01902 z m 82.06354,-3.848677 c 1.38282,-0.879744 0.58332,-5.759756 -1.13268,-6.91361 -3.52185,-2.368137 -6.94819,1.218921 -5.08421,5.322694 1.10321,2.428863 3.8107,3.121717 6.21689,1.590916 z M 146.69168,51.964289 c 6.0621,-1.591041 13.43476,-1.738768 16.07363,-0.322072 2.31278,1.241634 7.51006,0.254377 5.43459,-1.032338 -3.15068,-1.953315 -14.23306,-3.041048 -19.53191,-1.917053 -7.30248,1.549006 -10.35023,2.871131 -10.35023,4.489964 0,0.94378 0.52728,1.187768 1.63551,0.756801 0.89953,-0.349807 3.93181,-1.238693 6.73841,-1.975302 z M 271.4163,51.267646 c 1.49376,-1.09568 0.79943,-1.532297 -6.26059,-3.936848 -7.7678,-2.645611 -8.06841,-2.674895 -13.80702,-1.345005 -3.22649,0.74772 -6.05999,1.94226 -6.29667,2.654534 -0.33407,1.005345 0.27575,1.158668 2.72611,0.6854 9.79354,-1.891545 11.72517,-1.805164 15.91169,0.711554 4.6636,2.80351 5.418,2.923641 7.72648,1.230365 z"
       id="path3500"
       inkscape:connector-curvature="0" />
  </g>
</svg>
