<?xml version="1.0" encoding="UTF-8" standalone="no"?>
<!-- Created with Inkscape (http://www.inkscape.org/) -->

<svg
   xmlns:dc="http://purl.org/dc/elements/1.1/"
   xmlns:cc="http://creativecommons.org/ns#"
   xmlns:rdf="http://www.w3.org/1999/02/22-rdf-syntax-ns#"
   xmlns:svg="http://www.w3.org/2000/svg"
   xmlns="http://www.w3.org/2000/svg"
   xmlns:sodipodi="http://sodipodi.sourceforge.net/DTD/sodipodi-0.dtd"
   xmlns:inkscape="http://www.inkscape.org/namespaces/inkscape"
   id="svg3336"
   version="1.1"
   inkscape:version="0.91 r13725"
   width="530.84113"
   height="218.4375"
   viewBox="0 0 530.84113 218.4375"
   sodipodi:docname="bb720303.svg">
  <metadata
     id="metadata3342">
    <rdf:RDF>
      <cc:Work
         rdf:about="">
        <dc:format>image/svg+xml</dc:format>
        <dc:type
           rdf:resource="http://purl.org/dc/dcmitype/StillImage" />
        <dc:title></dc:title>
      </cc:Work>
    </rdf:RDF>
  </metadata>
  <defs
     id="defs3340" />
  <sodipodi:namedview
     pagecolor="#ffffff"
     bordercolor="#666666"
     borderopacity="1"
     objecttolerance="10"
     gridtolerance="10"
     guidetolerance="10"
     inkscape:pageopacity="0"
     inkscape:pageshadow="2"
     inkscape:window-width="1404"
     inkscape:window-height="796"
     id="namedview3338"
     showgrid="false"
     inkscape:zoom="1.1773768"
     inkscape:cx="164.65517"
     inkscape:cy="168.93274"
     inkscape:window-x="0"
     inkscape:window-y="0"
     inkscape:window-maximized="0"
     inkscape:current-layer="svg3336" />
  <g
     id="g3346"
     transform="translate(-0.75447014,-3.3560349)">
    <path
       style="fill:#fefefe"
       d="m 37.071652,138.125 c -0.342679,-0.34375 -0.623053,-1.82031 -0.623053,-3.28125 l 0,-2.65625 229.906541,0 229.90655,0 0,3.28125 0,3.28125 -229.28349,0 c -126.10593,0 -229.563869,-0.28125 -229.906548,-0.625 z m 36.762192,-8.04688 c 0.01395,-7.90636 2.221828,-37.116287 2.901835,-38.390863 1.303974,-2.444111 5.329504,-2.16695 6.517579,0.44874 1.006677,2.216319 0.631088,4.535178 -3.919128,24.196443 -1.144142,4.94378 -1.827244,9.65009 -1.518005,10.45847 0.309238,0.80838 1.85235,1.75403 3.429138,2.10143 4.602694,1.01407 3.307189,2.35766 -2.273299,2.35766 -3.490199,0 -5.139524,-0.37617 -5.13812,-1.17188 z m 48.596066,0.72178 c 0,-1.85277 4.06794,-7.67141 12.28267,-17.56867 5.11691,-6.16494 10.2293,-12.65496 11.36086,-14.422274 2.53252,-3.955322 5.34329,-3.947531 6.39419,0.01772 0.68075,2.568594 -0.10224,3.611624 -13.01964,17.343754 -11.80704,12.55176 -17.01808,17.03138 -17.01808,14.62947 z m 38.8644,-3.18503 -2.51129,-3.63513 3.08112,-6.26771 3.08112,-6.26772 -5.35858,-5.16553 -5.35857,-5.16554 1.47776,-2.866606 1.47777,-2.866603 6.4549,6.425469 c 3.55021,3.53401 6.45492,6.97465 6.45492,7.64588 0,0.67124 -1.47887,4.16625 -3.28637,7.76669 l -3.28639,6.54626 1.90351,3.74284 c 1.83884,3.61569 1.84368,3.74283 0.14245,3.74283 -0.99045,0 -2.85994,-1.59065 -4.27235,-3.63513 z m 30.82912,1.97301 c -0.89085,-2.81559 1.00156,-7.42125 5.41146,-13.17014 2.32102,-3.02576 6.99552,-11.29202 10.38779,-18.369443 3.70837,-7.736926 6.61929,-12.719624 7.30011,-12.49581 0.62279,0.204737 1.66447,1.974861 2.31482,3.93361 1.14576,3.450798 1.04672,3.797444 -3.19003,11.165673 -2.40488,4.18238 -7.87858,12.23375 -12.16377,17.89194 -4.28521,5.65819 -7.79128,10.83182 -7.79128,11.49695 0,1.79596 -1.66256,1.46421 -2.2691,-0.45278 z m 42.03815,-2.791 c -0.29281,-2.44922 -1.1393,-8.86813 -1.88108,-14.26424 -0.74179,-5.39611 -1.26395,-9.89401 -1.16039,-9.99534 0.10357,-0.10132 1.34485,0.0386 2.7584,0.31103 l 2.57009,0.49525 0.0932,10.43759 c 0.11161,12.50433 0.67469,15.02196 3.44982,15.42466 3.49637,0.50735 2.28103,2.04417 -1.61656,2.04417 l -3.68105,0 -0.53239,-4.45312 z m 43.40852,3.5486 c 0,-0.49748 0.84112,-1.35607 1.86916,-1.90798 1.5916,-0.85447 1.86916,-1.96296 1.86916,-7.46514 0,-8.29157 1.59248,-19.76663 3.31811,-23.909554 l 1.34744,-3.234947 2.35065,2.357991 2.35065,2.358 -2.81427,6.43208 c -2.44592,5.59022 -2.81427,7.53652 -2.81427,14.87016 0,4.64093 -0.25527,9.10538 -0.56728,9.92098 -0.62171,1.62522 -6.90935,2.15158 -6.90935,0.57841 z m 19.62617,0.41107 c 0,-0.33674 0.82497,-1.31269 1.83326,-2.16878 1.71897,-1.45948 1.75881,-1.94263 0.63907,-7.74952 -0.65679,-3.40617 -2.06032,-7.6656 -3.11894,-9.46543 -1.39029,-2.36374 -1.6758,-3.71869 -1.02816,-4.87956 0.49313,-0.88393 0.65122,-2.24861 0.3513,-3.03263 -0.29992,-0.78401 0.0854,-2.32882 0.85637,-3.4329 1.37713,-1.97228 1.40168,-1.974024 1.40168,-0.09969 0,1.04925 1.27473,5.67828 2.83275,10.28672 2.2308,6.59843 2.77695,9.67392 2.5701,14.47274 l -0.26267,6.09375 -3.03738,0.29377 c -1.67056,0.16158 -3.03738,0.0183 -3.03738,-0.31847 z m 20.56074,-0.0594 c 0,-0.30407 0.88076,-1.26827 1.95724,-2.14268 1.52593,-1.23948 2.53955,-4.55158 4.59968,-15.02995 1.45335,-7.39206 3.02563,-13.824505 3.49396,-14.294305 1.3484,-1.352606 3.96782,0.152991 3.96782,2.280645 0,1.06439 -0.63457,2.63864 -1.41017,3.49834 -1.00238,1.11108 -5.98498,22.48899 -6.06138,26.00643 -0.0112,0.5144 -6.54715,0.19647 -6.54715,-0.31844 z m 18.69159,-0.38461 c 0,-0.51563 0.60602,-0.9375 1.34671,-0.9375 0.7407,0 1.56195,-0.34933 1.82499,-0.77629 0.44298,-0.71897 -4.32043,-17.92096 -5.48665,-19.81383 -0.28561,-0.46355 -0.0919,-1.10781 0.43055,-1.43168 0.5224,-0.32387 0.94982,-1.70302 0.94982,-3.06478 0,-1.54201 0.32848,-2.13998 0.87085,-1.58529 1.09817,1.12313 6.60579,22.92439 6.60579,26.14829 0,2.11623 -0.38504,2.39858 -3.27103,2.39858 -1.79906,0 -3.27103,-0.42187 -3.27103,-0.9375 z m 128.97197,0.11479 c 0,-0.45249 0.61455,-1.33434 1.36567,-1.95966 2.96612,-2.46935 2.52491,-4.5061 -2.68486,-12.39396 -5.13905,-7.78078 -5.14835,-7.80813 -6.22839,-18.308554 -0.59491,-5.783874 -0.80979,-11.602719 -0.47751,-12.930768 0.7736,-3.091898 2.95339,-3.924491 5.12152,-1.956226 1.51598,1.376233 1.65005,2.75245 1.24034,12.731709 l -0.45937,11.188699 5.41608,8.97983 5.41608,8.97985 -3.13624,3.24589 c -2.97913,3.08329 -5.57332,4.2112 -5.57332,2.42319 z m -353.92535,-6.02708 c -1.64493,-0.61543 -8.47904,-6.1381 -15.186919,-12.27261 C 83.732382,100.62665 83.601708,100.42196 84.92366,94.295109 c 0.575111,-2.665477 0.982619,-2.310813 15.77728,13.731361 8.3528,9.05712 15.18691,16.72198 15.18691,17.03301 0,0.77967 -0.91279,0.64268 -4.39263,-0.65927 z m 147.38329,-6.15989 c 0,-1.93783 -12.21186,-17.39146 -14.41263,-18.23861 -1.4919,-0.574285 -4.70257,-6.139285 -3.96744,-6.87671 0.84912,-0.851775 5.76501,2.319653 7.72975,4.986747 1.08157,1.468228 4.5512,5.525573 7.71028,9.016313 5.50122,6.07879 6.42793,8.11766 5.1765,11.38901 -0.78223,2.04483 -2.23646,1.86487 -2.23646,-0.27675 z m 183.52291,-2.53613 c -2.35186,-3.09309 -20.75713,-19.567634 -31.03483,-27.779265 -5.50059,-4.394837 -5.90256,-7.374769 -1.12696,-8.354536 3.19526,-0.655544 3.39281,-0.495115 18.2243,14.800611 13.5048,13.92749 17.90597,19.72389 18.21423,23.98837 0.12336,1.70671 -1.92896,0.43255 -4.27674,-2.65518 z m -65.36961,-2.68545 c -0.31565,-1.26157 0.33892,-6.85141 1.45458,-12.42188 3.83174,-19.131639 4.41355,-20.316528 8.95639,-18.240202 2.88377,1.318036 2.87028,2.45065 -0.0596,5.006107 -1.28505,1.120825 -2.33645,2.771921 -2.33645,3.669101 0,0.897181 -1.30312,5.33479 -2.89583,9.861364 -1.96775,5.5925 -2.73538,9.22187 -2.3952,11.3247 0.60581,3.74486 -1.80962,4.45499 -2.7239,0.80081 z m -89.65649,-3.34399 c -0.69965,-1.1356 3.27346,-8.60166 4.85113,-9.11598 1.53695,-0.50104 3.32656,3.18783 2.62392,5.40859 -1.22323,3.86611 -5.9369,6.20393 -7.47505,3.70739 z m 42.40986,-2.02912 c 0.41839,-1.13452 1.66825,-2.66724 2.77748,-3.40605 1.85048,-1.23251 2.01678,-1.18122 2.01678,0.622 0,1.2313 -1.03729,2.50336 -2.77747,3.40605 -2.71539,1.40856 -2.76047,1.39466 -2.01679,-0.622 z m -90.39115,-3.47545 c -1.80504,-1.14748 -0.92967,-4.285321 1.26973,-4.551421 1.02279,-0.12375 2.65799,0.390401 3.6338,1.142571 3.19739,2.46458 -1.38157,5.6478 -4.90353,3.40885 z M 373.30947,89.530626 c -1.78029,-1.380622 -1.77297,-1.441852 0.3922,-3.28125 2.90809,-2.47054 6.67217,-2.507965 6.67217,-0.06634 0,2.036106 -2.34059,4.754465 -4.09374,4.754465 -0.63607,0 -1.97285,-0.633094 -2.97063,-1.406874 z m -155.9224,-6.244734 c -0.9745,-0.56765 -3.0773,-2.558196 -4.6729,-4.423435 -1.5956,-1.86524 -8.10257,-9.002258 -14.45994,-15.860041 -6.35738,-6.857784 -11.3384,-12.689849 -11.06895,-12.960146 1.28963,-1.293664 7.94332,1.912441 13.5723,6.539869 9.18568,7.551284 22.60691,21.642025 22.60691,23.73464 0,1.979334 -1.67655,4.074677 -3.2243,4.029713 -0.53972,-0.01568 -1.77863,-0.492949 -2.75312,-1.0606 z m 62.01881,-4.858678 c -2.04421,-1.882582 -29.01374,-18.148345 -31.93776,-19.262194 -2.42914,-0.925329 -7.08214,-8.1147 -5.97238,-9.227935 0.27755,-0.27842 3.14568,1.202854 6.37361,3.29172 3.22793,2.088865 13.27607,7.490956 22.32919,12.004645 13.73414,6.847551 16.38482,8.495891 16.00501,9.952809 -0.41153,1.578585 -3.59492,4.501241 -4.90282,4.501241 -0.28949,0 -1.14218,-0.567128 -1.89485,-1.260286 z M 161.40303,78.157409 c -1.5536,-1.558451 -0.15849,-6.939172 5.13322,-19.798034 1.59938,-3.886518 3.35998,-6.796875 4.11172,-6.796875 1.65605,0 1.73331,-0.474113 -1.07864,6.619112 -4.08284,10.299074 -4.97538,13.424862 -4.79267,16.784429 0.17093,3.14277 -1.67826,4.892046 -3.37363,3.191368 z m 6.49348,-1.516784 c -0.38125,-1.448575 0.29642,-1.628714 5.78912,-1.538874 9.1953,0.150399 17.24665,1.176254 17.5962,2.241999 0.19393,0.591301 -3.98743,0.9375 -11.32303,0.9375 -10.28912,0 -11.6803,-0.189217 -12.06229,-1.640625 z M 337.5701,77.625 c -0.61682,-0.61875 -1.1215,-2.674395 -1.1215,-4.5681 0,-4.30011 3.12119,-7.340423 19.62617,-19.117624 11.16769,-7.968752 14.93848,-9.713172 21.26168,-9.835947 3.46737,-0.06732 2.39863,1.376719 -2.80001,3.783293 -3.63485,1.682651 -8.59553,5.967123 -19.18114,16.566503 C 347.50223,72.316406 340.54029,78.75 339.8843,78.75 c -0.65599,0 -1.69738,-0.50625 -2.3142,-1.125 z M 288.696,73.503025 285.33592,72.102666 281.78026,56.441958 C 279.82465,47.828569 277.85193,39.764651 277.39644,38.522141 276.51889,36.128305 278.2206,26.25 279.51054,26.25 c 0.38962,0 1.1793,2.214844 1.75483,4.921875 0.57552,2.707031 2.89339,11.25 5.1508,18.984375 5.38134,18.437572 6.99933,24.854402 6.25212,24.795442 -0.33672,-0.02657 -2.12425,-0.678469 -3.97229,-1.448667 z M 80.971773,71.930512 c -1.168346,-0.856985 -1.416866,-1.747106 -0.879561,-3.150308 0.945939,-2.470369 20.694838,-21.428202 21.490688,-20.629858 0.79488,0.797361 -1.30247,5.287154 -2.469814,5.287154 -1.701384,0 -12.893043,14.036978 -13.460369,16.882471 -0.600421,3.011491 -2.077942,3.519851 -4.680944,1.610541 z m 84.448787,0.442747 c 0,-0.499395 0.63143,-2.32752 1.40319,-4.0625 l 1.40319,-3.154509 -0.23497,3.677531 c -0.12923,2.022643 -0.76066,3.850768 -1.40318,4.062501 -0.64253,0.211732 -1.16823,-0.02362 -1.16823,-0.523023 z M 358.87851,61.876666 c 6.54063,-6.385929 12.5768,-11.394417 15.42056,-12.795132 l 4.6729,-2.301676 -2.95059,2.625696 c -1.62282,1.444133 -6.22423,5.156946 -10.22536,8.250696 -4.00112,3.09375 -9.6126,7.669996 -12.46997,10.169436 -2.85736,2.499439 -0.35875,-0.177619 5.55246,-5.94902 z M 82.242992,62.52238 c 0,-1.887438 2.384962,-3.678264 4.384226,-3.292038 1.354721,0.261711 1.098353,0.731195 -1.356972,2.485004 -2.269302,1.620934 -3.027254,1.822996 -3.027254,0.807034 z m 362.616828,0.258508 c -2.31308,-0.421799 -6.72897,-0.84023 -9.81308,-0.929848 -6.34205,-0.184285 -9.99963,-1.005721 -10.44442,-2.345649 -0.1873,-0.564294 5.1276,-0.906894 13.94941,-0.899182 l 14.25202,0.01246 0,2.331289 c 0,2.684613 -1.44106,3.016751 -7.94393,1.830929 z m -0.49586,-5.465793 c -0.24129,-0.242053 -0.43872,-1.635407 -0.43872,-3.096345 0,-2.191894 0.39919,-2.65625 2.28346,-2.65625 2.00199,0 5.19318,2.945602 5.19318,4.793531 0,0.734685 -6.39312,1.605881 -7.03792,0.959064 z"
       id="path3354"
       inkscape:connector-curvature="0" />
    <path
       style="fill:#007f7f"
       d="m 233.44745,101.91992 c -2.12591,-0.51425 -3.69008,-1.53951 -4.04105,-2.648786 -0.31495,-0.995381 -2.6641,-2.872931 -5.22034,-4.172325 -2.55624,-1.299393 -4.87245,-3.083668 -5.14712,-3.965048 -0.42671,-1.369222 -1.69634,-4.365074 -2.9714,-7.011409 -0.19118,-0.396768 0.79101,-0.200995 2.18262,0.435051 2.29775,1.050193 2.73055,0.922822 4.71058,-1.386288 l 2.18036,-2.542735 2.31546,3.045185 c 1.27352,1.674852 4.39225,4.300753 6.93052,5.835336 5.2163,3.153664 7.85028,7.758899 5.26712,9.209024 -0.80064,0.449466 -1.74431,1.542555 -2.09702,2.429095 -0.5359,1.34698 -1.2113,1.474 -4.10973,0.7729 z m 99.26284,-0.52214 c 0,-2.514686 -3.33969,-4.45923 -5.11714,-2.97948 -2.76634,2.30304 -0.41086,-7.57589 5.24845,-22.01205 2.09584,-5.346195 2.21956,-5.475103 2.49631,-2.600775 0.17725,1.840982 1.1813,3.726585 2.56622,4.81937 2.02347,1.596639 2.21455,2.2989 1.72792,6.350775 -0.72837,6.064817 -3.89,15.85496 -5.57255,17.25572 -1.10261,0.91794 -1.34921,0.76558 -1.34921,-0.83356 z M 153.10032,98.283028 c -0.16312,-1.098787 -1.1377,-2.462747 -2.16574,-3.031031 -1.02804,-0.568285 -2.03077,-1.125056 -2.22831,-1.237275 -0.19753,-0.11221 1.37957,-3.090695 3.50468,-6.618852 2.1251,-3.528158 3.86382,-6.822945 3.86382,-7.321752 0,-0.498805 0.70181,-1.912026 1.55958,-3.14049 l 1.55958,-2.233571 0.75442,2.045752 c 1.14812,3.113386 3.61179,3.604195 5.61778,1.119168 1.53827,-1.905626 1.72194,-1.947634 1.70822,-0.390712 -0.0175,1.978757 -2.07987,5.569885 -9.03384,15.729876 -3.83504,5.603109 -4.90538,6.660675 -5.14019,5.078887 z m 136.73482,-1.611403 c -2.94809,-2.785181 -3.85383,-4.342223 -3.85383,-6.625049 0,-1.733638 -0.9729,-4.263713 -2.32165,-6.037542 l -2.32166,-3.053363 2.78895,-2.068401 c 1.53391,-1.137622 2.78894,-2.717014 2.78894,-3.509762 0,-1.44463 2.2384,-1.212837 5.54898,0.574615 1.32625,0.716064 4.42041,9.749391 5.38095,15.709539 0.56114,3.481876 -1.22176,8.650838 -2.98387,8.650838 -0.64514,0 -2.90721,-1.638394 -5.02681,-3.640875 z M 83.196315,90.491406 c -1.41368,-1.708704 -4.811939,-1.870732 -6.373884,-0.303906 -1.782753,1.788324 -1.412136,-0.628211 0.747664,-4.875 1.134129,-2.230023 1.869159,-5.525405 1.869159,-8.380053 l 0,-4.704749 2.438829,1.114677 c 2.093557,0.956869 2.622802,0.862294 3.738317,-0.668033 0.714719,-0.98049 1.305929,-2.440359 1.3138,-3.244151 0.01259,-1.285832 0.123172,-1.292464 0.920269,-0.05519 1.392627,2.161671 1.113145,6.499702 -0.936733,14.539695 -1.029222,4.036793 -2.020694,7.489473 -2.20327,7.67262 -0.182578,0.183148 -0.863945,-0.310012 -1.514151,-1.095909 z M 388.25216,87.635134 c 3.05635,-2.841385 2.80206,-4.167017 -1.19013,-6.204162 l -3.01357,-1.537776 3.06923,-1.137181 c 4.32029,-1.60071 20.58881,-2.379266 22.79987,-1.091124 1.68049,0.979038 1.66982,1.029453 -0.22368,1.056601 -2.62588,0.03765 -4.4346,2.341541 -3.78739,4.824241 0.47339,1.815882 0.23072,1.946193 -2.72743,1.464651 -2.3491,-0.382398 -5.1114,0.233545 -9.98875,2.227309 -3.70794,1.515733 -6.90826,2.757324 -7.11182,2.759092 -0.20357,0.0018 0.77459,-1.060975 2.17367,-2.361651 z m 64.70832,-12.195472 c -1.88527,-4.896976 -3.42776,-9.219482 -3.42776,-9.605569 0,-0.386087 0.94626,-1.118422 2.1028,-1.627411 1.46462,-0.64457 2.09163,-1.707872 2.06596,-3.503557 -0.0203,-1.417969 0.28546,-2.578125 0.6794,-2.578125 1.12278,0 3.31914,3.927158 3.9803,7.116937 0.33041,1.594005 1.84365,5.961935 3.36277,9.706514 3.20304,7.895369 3.41869,9.375768 1.05294,7.2281 -2.24113,-2.034531 -3.50862,-1.957948 -5.09052,0.307575 -1.19923,1.717507 -1.55923,1.18089 -4.72589,-7.044464 z"
       id="path3350"
       inkscape:connector-curvature="0" />
    <path
       style="fill:#000000"
       d="M 39.719627,198.97106 46.261683,198.62719 57.171775,182.46038 68.081867,166.29359 57.78914,154.63117 C 44.619819,139.70935 44.594981,139.6875 40.807718,139.6875 c -3.834387,0 -5.535064,-1.76912 -5.127585,-5.33393 l 0.301176,-2.63482 18.338912,-0.25379 18.338913,-0.2538 0.56835,-8.1837 c 0.312593,-4.50104 0.840758,-14.08996 1.1737,-21.30871 0.423941,-9.191732 1.049448,-13.967843 2.08727,-15.9375 1.268096,-2.406692 3.114427,-15.257002 2.929722,-20.390625 -0.227484,-6.322604 -0.626601,-8.157846 -1.955111,-8.990108 -1.24868,-0.782249 -1.698381,-0.310861 -2.60761,2.733358 -0.604289,2.023244 -1.530729,3.678625 -2.058752,3.678625 -0.92895,0 -0.653089,-1.52928 1.145842,-6.352149 0.92082,-2.468684 3.339596,-3.686704 4.670316,-2.351826 0.504421,0.505997 2.992443,0.719959 5.52894,0.475472 3.747781,-0.36124 4.726532,-0.144633 5.224135,1.156152 0.503309,1.315702 1.57109,0.648947 5.997654,-3.745117 5.02317,-4.986285 7.44015,-5.890614 7.44015,-2.783775 0,0.708455 -2.72913,4.066492 -6.064738,7.462304 -8.021656,8.166441 -9.302158,10.174426 -8.020376,12.57694 1.453888,2.725102 1.239649,6.38855 -0.853765,14.5993 l -1.854767,7.274732 15.546796,16.827917 c 9.59134,10.38171 15.21364,17.16211 14.67709,17.70034 -2.15518,2.16192 -7.66502,-1.28901 -19.505006,-12.21642 -6.682244,-6.16719 -12.389785,-11.22114 -12.683425,-11.23097 -0.643901,-0.0216 -5.540875,20.50639 -5.540875,23.22719 0,1.3787 0.806558,2.09614 2.866888,2.55007 1.576788,0.3474 3.093746,1.22468 3.371017,1.9495 0.408954,1.06904 3.904459,1.31784 18.515061,1.31784 l 18.01092,0 1.17539,-2.8465 c 0.64646,-1.56557 5.94926,-8.63198 11.78399,-15.70313 5.83474,-7.07114 12.14323,-15.809745 14.01888,-19.41912 1.87564,-3.609375 4.535,-8.761448 5.90968,-11.44905 1.37468,-2.687603 3.26782,-5.738283 4.20698,-6.779289 1.37043,-1.519038 1.48265,-2.164603 0.56837,-3.269677 -0.62655,-0.757315 -1.01139,-2.864923 -0.85519,-4.683572 0.29695,-3.457551 -1.2542,-6.25919 -2.41885,-4.368848 -0.89928,1.45962 -2.38678,1.257766 -2.38678,-0.323888 0,-2.064536 3.61951,-2.805387 5.47527,-1.120694 2.73797,2.485573 5.1591,0.904735 7.80229,-5.094406 2.26576,-5.142495 4.45883,-6.938147 5.80507,-4.75309 0.27574,0.447555 -0.50278,3.38396 -1.73004,6.525345 -1.59654,4.086596 -2.08766,6.786542 -1.72621,9.489793 0.29247,2.18736 0.0611,4.314889 -0.5494,5.052848 -0.87496,1.057556 0.89509,1.384842 10.39216,1.921542 7.67541,0.433752 11.86808,1.068174 12.72555,1.925594 2.43671,2.436532 0.23991,3.031174 -9.57974,2.593084 -11.67428,-0.520833 -13.92971,-0.06639 -15.36616,3.096139 -0.5997,1.320296 -2.84416,4.730706 -4.98771,7.578689 l -3.89737,5.178155 6.69666,6.762705 c 3.68314,3.71949 6.69664,7.29066 6.69664,7.93594 0,0.64529 -1.47887,4.11906 -3.28637,7.7195 l -3.28639,6.54626 1.90351,3.74284 1.9035,3.74283 11.72623,0 c 10.8003,0 11.6847,-0.13124 11.20033,-1.66212 -0.89675,-2.83426 1.01115,-7.43375 5.52388,-13.31671 2.38286,-3.10637 6.62956,-10.552 9.43713,-16.545836 2.80756,-5.993835 5.9758,-12.125098 7.04052,-13.625027 2.47233,-3.482931 2.81802,-2.962301 -14.11536,-21.25935 -13.76713,-14.875827 -14.99725,-17.224036 -8.00892,-15.288438 5.77455,1.599414 18.62838,13.227537 37.15305,33.610243 3.02401,3.32732 6.50903,5.837603 11.21496,8.078223 4.80816,2.289293 7.7911,4.458209 10.08522,7.333024 1.79171,2.245241 5.47162,6.504361 8.17757,9.464721 5.09194,5.57066 5.9629,8.29709 3.65983,11.45657 -1.43262,1.96536 -3.4128,1.22376 -3.4128,-1.27814 0,-0.91971 -2.40478,-4.65405 -5.34394,-8.29854 l -5.34394,-6.62633 -2.1528,2.33016 c -1.7246,1.8667 -2.70647,2.20818 -4.93643,1.71687 l -2.78364,-0.6133 0,7.92605 c 0,10.56133 0.68992,13.78543 2.94989,13.78543 0.97992,0 2.02375,0.63281 2.31962,1.40625 0.44957,1.17522 3.20149,1.40625 16.75061,1.40625 15.96941,0 16.24712,-0.0345 18.50772,-2.30222 2.12257,-2.1292 2.303,-3.02748 2.40094,-11.95312 0.0855,-7.79203 -0.32734,-17.929823 -0.78532,-19.28436 -0.048,-0.142144 -1.32818,0.3852 -2.84471,1.171875 -3.21748,1.669025 -3.78473,1.749475 -3.78473,0.536812 0,-1.499615 6.82096,-4.360903 7.25832,-3.044746 1.12076,3.372778 4.89121,-0.848691 4.89121,-5.476296 0,-6.987704 -3.95471,-10.888227 -21.87285,-21.573155 -8.78769,-5.240266 -16.60846,-9.836836 -17.37948,-10.214599 -0.77103,-0.377764 -2.39835,-2.475478 -3.61626,-4.661588 -3.3083,-5.938286 -1.52101,-6.895818 4.89503,-2.622494 5.00759,3.335241 37.03898,19.804083 37.03898,19.043477 0,-0.480729 -4.07376,-18.022422 -6.55207,-28.213336 -1.60705,-6.608257 -1.67984,-8.05734 -0.61223,-12.1875 1.42976,-5.531176 3.45475,-6.143022 4.65418,-1.40625 0.99645,3.935156 9.62592,34.777471 13.77108,49.21875 1.62803,5.671875 3.28167,13.898437 3.67475,18.28125 0.40869,4.5566 1.78606,10.97947 3.21672,15 1.97147,5.54033 2.44253,8.37353 2.22152,13.36148 l -0.28049,6.33025 5.87262,-0.002 c 8.12198,-0.003 10.62407,-2.52713 12.31101,-12.41985 1.14887,-6.73735 1.11598,-7.12859 -0.75724,-9.00767 -2.20083,-2.2077 -3.41401,-5.98429 -2.60324,-8.10374 0.69201,-1.808987 -1.85722,-1.810056 -5.01006,-0.002 -2.57473,1.47645 -4.67483,1.79268 -4.6694,0.70312 0.005,-0.97036 8.55112,-4.501056 10.27687,-4.245643 0.77103,0.114112 2.55841,-0.253472 3.97197,-0.816863 1.87757,-0.748331 2.57831,-1.688381 2.6006,-3.488728 0.0294,-2.372625 1.13547,-5.774258 5.56608,-17.117602 2.66463,-6.822057 8.19469,-12.235479 24.1184,-23.609723 11.03572,-7.882774 13.00729,-8.948266 17.62974,-9.527607 6.27731,-0.786749 7.83613,0.220341 5.61186,3.625603 -0.83978,1.285671 -2.60127,3.100301 -3.91442,4.032512 -5.43146,3.855796 -19.17095,15.136962 -26.33226,21.620797 -7.09326,6.4222 -7.70375,7.265047 -8.19857,11.319012 -0.29406,2.409066 -1.39818,7.251499 -2.45362,10.760961 -1.31033,4.356985 -1.62225,6.739501 -0.98345,7.511611 1.17855,1.42405 6.68274,23.13953 6.68274,26.36475 l 0,2.39858 60.04673,-0.007 60.04673,-0.007 2.1028,-3.09847 c 1.15654,-1.70417 2.10281,-3.39293 2.10281,-3.75279 0,-0.35988 -2.2992,-4.13065 -5.10933,-8.37949 l -5.10933,-7.72518 -1.04774,-11.249999 c -0.86064,-9.240818 -1.70058,-12.960113 -4.70375,-20.828319 -2.01082,-5.268245 -3.65602,-10.225277 -3.65602,-11.015625 0,-0.790348 -0.73598,-1.455386 -1.63552,-1.477862 -9.27764,-0.231809 -21.22236,-1.86166 -22.41557,-3.058593 -2.63885,-2.647101 -0.52505,-3.27525 9.32461,-2.770948 l 9.58629,0.490817 -0.31815,-4.725441 c -0.4133,-6.138785 2.08238,-9.135583 6.94829,-8.343487 1.73179,0.281907 3.39151,0.118463 3.68826,-0.363212 0.97611,-1.584301 4.03442,-0.914682 5.51646,1.207828 1.63982,2.348495 1.93452,5.416401 0.52028,5.416401 -0.51402,0 -0.93458,-0.792094 -0.93458,-1.760208 0,-2.067115 -2.32045,-4.27507 -3.63584,-3.459574 -0.50269,0.311651 -0.68404,1.988046 -0.403,3.725322 0.28105,1.737276 0.0871,3.918439 -0.43092,4.847029 -0.74234,1.330655 -0.47242,2.058793 1.27412,3.436905 1.2188,0.961708 2.67451,3.518908 3.2349,5.682668 0.5604,2.163759 2.23402,6.998032 3.71918,10.742829 2.64298,6.664205 2.68826,7.075775 2.13335,19.390682 l -0.56695,12.581967 5.43069,9.00404 5.43067,9.00405 -3.11115,3.21992 -3.11115,3.21992 13.94328,0.28742 c 7.66881,0.15808 -89.64644,0.38071 -216.25612,0.49473 l -230.199398,0.2073 0.292858,3.04687 0.292858,3.04688 229.906542,0.47157 229.90655,0.47156 -204.43926,0.23157 c -165.80807,0.1878 -204.439251,0.45925 -204.439251,1.43657 0,0.66277 -8.558188,13.84636 -19.018197,29.29688 l -19.018196,28.09185 223.457454,0.47165 223.45745,0.47163 -231.7757,0.0452 c -127.47664,0.0248 -228.831784,-0.10955 -225.233653,-0.29868 z m 44.704875,-57.64294 c 0.414821,-1.5217 -0.872335,-1.64062 -17.757607,-1.64062 l -18.204846,0 2.638135,3.1535 c 1.450974,1.73442 6.19502,7.1796 10.542323,12.10039 l 7.904189,8.9469 7.215283,-10.45977 c 3.968406,-5.75287 7.416542,-11.19805 7.662523,-12.1004 z m -0.312351,-10.94113 c 0,-0.47465 -1.290099,-1.14725 -2.866888,-1.49465 -1.576788,-0.3474 -3.1199,-1.29305 -3.429138,-2.10143 -0.309239,-0.80838 0.373863,-5.51469 1.518005,-10.45847 4.550216,-19.661265 4.925805,-21.980124 3.919128,-24.196443 -1.188075,-2.61569 -5.213605,-2.892851 -6.517579,-0.44874 -0.680007,1.274576 -2.887885,30.484503 -2.901835,38.390863 -0.0014,0.79571 1.647921,1.17188 5.13812,1.17188 2.827103,0 5.140187,-0.38836 5.140187,-0.86301 z m 55.335839,-14.21655 c 12.9174,-13.73212 13.70039,-14.77516 13.01964,-17.343746 -1.0509,-3.965269 -3.86167,-3.97306 -6.39419,-0.01772 -1.13156,1.767306 -6.24395,8.257336 -11.36086,14.422276 -8.21473,9.89724 -12.28267,15.71588 -12.28267,17.56865 0,2.40191 5.21104,-2.07771 17.01808,-14.62946 z m 22.583,13.90768 c -0.38288,-0.64453 -1.48839,-2.26446 -2.45669,-3.59985 -1.75399,-2.41892 -1.74901,-2.45144 1.33911,-8.7334 l 3.09968,-6.30544 -5.03608,-4.81908 -5.03607,-4.81909 -12.49509,13.08374 c -6.8723,7.19606 -12.92567,13.82203 -13.45194,14.72437 -0.89744,1.53873 0.15143,1.64063 16.88818,1.64063 14.02426,0 17.696,-0.25091 17.1489,-1.17188 z m 3.39322,-2.57095 -1.90351,-3.74284 3.28639,-6.54626 c 1.8075,-3.60044 3.28637,-7.09545 3.28637,-7.76669 0,-0.67123 -2.90273,-4.1099 -6.45051,-7.6415 l -6.45053,-6.421102 -1.45599,2.696241 c -0.80079,1.482928 -1.47282,2.213221 -1.4934,1.622878 -0.0206,-0.590344 2.28431,-4.319475 5.12198,-8.286956 5.85142,-8.181153 7.89562,-11.830588 7.9904,-14.26501 0.053,-1.360993 0.1885,-1.415306 0.70094,-0.280931 0.51377,1.137366 2.82429,1.409512 12.08384,1.423308 10.17728,0.01516 13.7932,-0.651697 10.28037,-1.895939 -2.06022,-0.729731 -23.91421,-1.915395 -23.52031,-1.276069 0.2087,0.33874 -0.39391,1.573938 -1.33913,2.744882 -2.00116,2.479056 -4.4658,1.984891 -5.61277,-1.125373 l -0.75442,-2.045752 -1.55958,2.233571 c -0.85777,1.228464 -1.55958,2.641685 -1.55958,3.14049 0,0.498807 -1.73872,3.793594 -3.86382,7.321752 -2.12511,3.528157 -3.70221,6.506642 -3.50468,6.618852 0.19754,0.112219 1.17862,0.658181 2.1802,1.213256 1.00157,0.555075 2.09636,2.041931 2.43288,3.304125 0.33651,1.262203 3.09001,4.683797 6.11888,7.603557 l 5.50703,5.30865 -3.08112,6.26772 -3.08112,6.26771 2.51129,3.63513 c 1.41241,2.04448 3.2819,3.63513 4.27235,3.63513 1.70123,0 1.69639,-0.12714 -0.14245,-3.74283 z m 28.96832,2.53349 c 0,-0.66513 3.50607,-5.83876 7.79128,-11.49695 4.28519,-5.65819 9.75889,-13.70956 12.16377,-17.89194 4.23675,-7.368229 4.33579,-7.714875 3.19003,-11.165673 -0.65035,-1.95875 -1.69203,-3.728873 -2.31482,-3.93361 -0.68082,-0.223814 -3.59174,4.758884 -7.30011,12.49581 -3.39227,7.077423 -8.06677,15.343673 -10.38779,18.369443 -4.4099,5.74889 -6.30231,10.35455 -5.41146,13.17014 0.60654,1.91699 2.2691,2.24874 2.2691,0.45278 z m 38.72832,-4.18128 c -1.00313,-10.00769 -3.24598,-23.65338 -4.25165,-25.867505 -0.8338,-1.835709 -8.99527,-6.93395 -9.6857,-6.050391 -0.11917,0.152494 -2.03759,3.441328 -4.26316,7.308516 -2.22557,3.86719 -7.54451,11.65502 -11.81986,17.30629 -4.27536,5.65128 -7.77337,10.81924 -7.77337,11.48437 0,0.94814 4.13982,1.20934 19.16704,1.20934 l 19.16704,0 -0.54034,-5.39062 z m 8.93523,4.51832 c 0,-0.47976 -0.92902,-1.00711 -2.0645,-1.17187 -2.77513,-0.40271 -3.33821,-2.92033 -3.44982,-15.42466 l -0.0932,-10.43759 -2.57009,-0.49526 c -1.41355,-0.27239 -2.65483,-0.41235 -2.7584,-0.31102 -0.10356,0.10133 0.4186,4.59923 1.16039,9.99534 0.74178,5.39611 1.58827,11.81502 1.88108,14.26423 l 0.5324,4.45313 3.68104,0 c 2.02458,0 3.68106,-0.39253 3.68106,-0.8723 z m 42.42337,-0.61063 c 0.31201,-0.8156 0.56728,-5.28005 0.56728,-9.92098 0,-7.37531 0.36255,-9.26665 2.87849,-15.01692 l 2.87848,-6.578851 -1.9439,-1.365825 c -1.06915,-0.7512 -1.94391,-1.756313 -1.94391,-2.233594 0,-0.477272 1.50807,0.601331 3.35126,2.396916 3.35534,3.268654 5.99454,4.224454 5.99454,2.170931 0,-0.601556 0.27021,-0.822694 0.60046,-0.4914 0.33027,0.331284 0.11272,1.191881 -0.48341,1.912423 -0.59614,0.72055 -0.83116,1.97074 -0.52226,2.77821 0.30889,0.80748 0.15815,2.19135 -0.33498,3.07528 -0.64764,1.16087 -0.36213,2.51582 1.02816,4.87956 1.05862,1.79983 2.46215,6.05926 3.11894,9.46543 1.11974,5.80689 1.0799,6.29004 -0.63907,7.74952 -2.59065,2.19958 -2.28787,2.825 1.20412,2.48725 l 3.03738,-0.29377 0.28059,-5.95009 c 0.22126,-4.69202 -0.34138,-7.82283 -2.66104,-14.80741 -1.85251,-5.57796 -3.03541,-11.184784 -3.19491,-15.143659 -0.28939,-7.182487 -3.23794,-17.851987 -5.2308,-18.927968 -3.31058,-1.787452 -5.54898,-2.019246 -5.54898,-0.574615 0,0.792748 -1.25503,2.37214 -2.78894,3.509762 l -2.78895,2.068401 2.32166,3.053363 c 2.67551,3.518745 3.01847,8.128278 0.97054,13.04496 -1.7289,4.150776 -3.32178,15.620256 -3.32178,23.918366 0,5.50218 -0.27756,6.61067 -1.86916,7.46514 -2.8371,1.52311 -2.24025,2.8125 1.30188,2.8125 2.02943,0 3.37526,-0.53387 3.73831,-1.48293 z m 13.04643,-0.65073 c 2.14913,-1.99796 2.23952,-2.46002 1.42129,-7.26562 -1.27699,-7.50005 -3.57884,-12.40972 -5.41502,-11.54982 -0.81184,0.38019 -2.84289,0.68247 -4.51345,0.67172 l -3.03739,-0.0195 0,8.66553 c 0,4.76605 -0.25527,9.33285 -0.56728,10.14846 -0.47532,1.24257 0.27426,1.48293 4.62475,1.48293 4.1065,0 5.67187,-0.4461 7.4871,-2.13366 z m 26.77828,1.89928 c 0.0764,-3.51743 5.059,-24.89535 6.06138,-26.00642 2.78509,-3.08712 0.6789,-7.837691 -2.64613,-5.968456 -0.8143,0.457772 -0.81828,0.320344 -0.016,-0.552563 0.78348,-0.85245 1.56194,-0.896643 2.92301,-0.165947 2.5875,1.389113 3.16544,5.197156 0.99512,6.556786 -1.70645,1.06902 -2.40064,3.87098 -0.95904,3.87098 2.02535,0 4.17603,-2.6549 3.68294,-4.54638 -0.2888,-1.10783 -0.17679,-2.23019 0.24892,-2.49412 1.15739,-0.71755 4.41289,-11.531434 5.03769,-16.73388 0.48663,-4.051875 0.29555,-4.754136 -1.72792,-6.350775 -1.38492,-1.092785 -2.38897,-2.978388 -2.56622,-4.81937 -0.27675,-2.874328 -0.40048,-2.74542 -2.49631,2.600775 -4.7004,11.990123 -5.62007,15.219213 -6.14116,21.5625 -0.2965,3.60938 -1.53403,11.59761 -2.75008,17.75163 -1.69428,8.57423 -2.67633,11.56711 -4.20217,12.80652 -1.09515,0.88958 -1.99118,1.86618 -1.99118,2.17025 0,0.51491 6.53598,0.83284 6.54715,0.31848 z m 11.54784,-1.17187 c 0.29587,-0.77344 1.21032,-1.40625 2.03212,-1.40625 0.99591,0 1.32266,-0.5471 0.97984,-1.64062 -1.03778,-3.31029 -5.21909,-17.44605 -5.21909,-17.64417 0,-0.73874 -4.37279,0.25437 -4.41869,1.00354 -0.0316,0.51563 -0.94155,5.36719 -2.02215,10.78125 -1.08059,5.41406 -1.966,9.94922 -1.96755,10.07812 -0.002,0.12891 2.26526,0.23438 5.03737,0.23438 3.61803,0 5.19199,-0.3968 5.57815,-1.40625 z m 7.13866,-0.99233 c 0,-3.2239 -5.50762,-25.02516 -6.60579,-26.14829 -0.54237,-0.55469 -0.87085,0.0433 -0.87085,1.58529 0,1.36175 -0.42742,2.74091 -0.94982,3.06478 -0.5224,0.32387 -0.71616,0.96813 -0.43055,1.43168 1.16622,1.89287 5.92963,19.09486 5.48665,19.81383 -0.26304,0.42696 -1.08429,0.77629 -1.82499,0.77629 -0.74069,0 -1.34671,0.42187 -1.34671,0.9375 0,0.51562 1.47197,0.9375 3.27103,0.9375 2.88599,0 3.27103,-0.28235 3.27103,-2.39858 z m 128.00323,-0.84732 3.13624,-3.24589 -5.41608,-8.97985 -5.41608,-8.97983 0.45937,-11.188699 c 0.40971,-9.979259 0.27564,-11.355476 -1.24034,-12.731709 -2.16813,-1.968265 -4.34792,-1.135672 -5.12152,1.956226 -0.33228,1.328049 -0.1174,7.146894 0.47751,12.930768 1.08004,10.500424 1.08934,10.527774 6.22839,18.308554 5.20977,7.88786 5.65098,9.92461 2.68486,12.39396 -0.75112,0.62532 -1.36567,1.50717 -1.36567,1.95966 0,1.78801 2.59419,0.6601 5.57332,-2.42319 z m -355.10604,-2.95363 c 0,-0.31599 -6.93277,-8.0786 -15.40617,-17.25023 L 85.075514,91.124533 86.930282,83.849801 C 88.964545,75.871048 89.240359,71.532424 87.850469,69.375 87.053372,68.137727 86.942792,68.144359 86.9302,69.43019 c -0.0079,0.803792 -0.599081,2.263661 -1.3138,3.244151 -1.115515,1.530327 -1.64476,1.624902 -3.738317,0.668033 l -2.438829,-1.114677 0,4.704749 c 0,2.854648 -0.73503,6.15003 -1.869159,8.380053 -2.1598,4.246789 -2.530417,6.663324 -0.747664,4.875 1.674799,-1.680033 4.91937,-1.359428 6.747297,0.666718 1.255466,1.391611 1.47971,2.70629 1.004182,5.887251 l -0.612249,4.095522 12.271397,11.22213 c 6.749262,6.17217 13.617232,11.72566 15.262162,12.34109 3.48914,1.30542 4.39263,1.43917 4.39263,0.65026 z m 145.22712,-6.5334 c 1.25143,-3.27135 0.32472,-5.31022 -5.1765,-11.38901 -3.15908,-3.49074 -6.62871,-7.548085 -7.71028,-9.016313 -1.96474,-2.667094 -6.88063,-5.838522 -7.72975,-4.986747 -0.73513,0.737425 2.47554,6.302425 3.96744,6.87671 2.20077,0.84715 14.41263,16.30078 14.41263,18.23861 0,2.14162 1.45423,2.32158 2.23646,0.27675 z m 31.74771,-9.30387 c 0.77407,-0.77649 1.66853,-2.23712 1.98769,-3.24584 0.70264,-2.22076 -1.08697,-5.90963 -2.62392,-5.40859 -1.57767,0.51432 -5.55078,7.98038 -4.85113,9.11598 0.86632,1.40611 3.87806,1.15279 5.48736,-0.46155 z m -47.97862,-5.64876 c 0.98193,-1.18683 0.88032,-1.67248 -0.5865,-2.80311 -2.34277,-1.805833 -5.40905,-1.361252 -5.82857,0.84508 -0.6015,3.16355 4.20415,4.63036 6.41507,1.95803 z m -5.22986,-4.846515 c 2.58316,-1.450125 -0.0508,-6.05536 -5.26712,-9.209024 -2.53827,-1.534583 -5.657,-4.160484 -6.93052,-5.835336 l -2.31546,-3.045185 -2.18036,2.542735 c -1.98003,2.30911 -2.41283,2.436481 -4.71058,1.386288 -1.39161,-0.636046 -2.3738,-0.831819 -2.18262,-0.435051 1.27506,2.646335 2.54469,5.642187 2.9714,7.011409 0.27467,0.88138 2.59088,2.665655 5.14712,3.965048 2.55624,1.299394 4.90539,3.176944 5.22034,4.172325 0.35097,1.109276 1.91514,2.134536 4.04105,2.648786 2.89843,0.7011 3.57383,0.57408 4.10973,-0.7729 0.35271,-0.88654 1.29638,-1.979629 2.09702,-2.429095 z M 222.24299,83.25 c 0.61683,-0.61875 1.1215,-1.938699 1.1215,-2.933221 0,-2.092615 -13.42123,-16.183356 -22.60691,-23.73464 -5.62898,-4.627428 -12.28267,-7.833533 -13.5723,-6.539869 -0.26945,0.270297 4.71157,6.102362 11.06895,12.960146 6.35737,6.857783 12.86434,13.994801 14.45994,15.860041 4.45014,5.202182 7.37443,6.548668 9.52882,4.387543 z m 237.78315,-2.625 c 0.5729,0 1.81074,0.698197 2.75075,1.551551 2.36575,2.147668 2.1501,0.667269 -1.05294,-7.2281 -1.51912,-3.744579 -3.03236,-8.112509 -3.36277,-9.706514 -0.66116,-3.189779 -2.85752,-7.116937 -3.9803,-7.116937 -0.39394,0 -0.69966,1.160156 -0.6794,2.578125 0.0257,1.795685 -0.60134,2.858987 -2.06596,3.503557 -1.15654,0.508989 -2.1028,1.241324 -2.1028,1.627411 0,0.386087 1.54249,4.708593 3.42776,9.605569 3.16666,8.225354 3.52666,8.761971 4.72589,7.044464 0.71397,-1.022519 1.76687,-1.859126 2.33977,-1.859126 z M 283.78772,78.309929 c 1.07835,-0.757664 2.16547,-2.163316 2.41583,-3.12367 0.37981,-1.456918 -2.27087,-3.105258 -16.00501,-9.952809 -9.05312,-4.513689 -19.10126,-9.91578 -22.32919,-12.004645 -3.22793,-2.088866 -6.09606,-3.57014 -6.37361,-3.29172 -1.10976,1.113235 3.54324,8.302606 5.97238,9.227935 2.92402,1.113849 29.89355,17.379612 31.93776,19.262194 1.7141,1.578563 1.97829,1.571491 4.38184,-0.117285 z M 164.77666,74.966041 c -0.18271,-3.359567 0.70983,-6.485355 4.79267,-16.784429 2.81195,-7.093225 2.73469,-6.619112 1.07864,-6.619112 -1.267,0 -5.1901,8.43926 -8.40455,18.079638 -2.26731,6.799825 -1.87957,9.524763 1.26241,8.871937 1.01491,-0.210873 1.39467,-1.271108 1.27083,-3.548034 z M 355.3553,64.453125 c 10.58561,-10.59938 15.54629,-14.883852 19.18114,-16.566503 5.19864,-2.406574 6.26738,-3.850617 2.80001,-3.783293 -6.3232,0.122775 -10.09399,1.867195 -21.26168,9.835947 C 339.56979,65.716477 336.4486,68.75679 336.4486,73.0569 c 0,3.520908 1.31088,5.6931 3.4357,5.6931 0.65599,0 7.61793,-6.433594 15.471,-14.296875 z m -63.45476,5.15625 c -0.75898,-2.964844 -3.22695,-11.71875 -5.48437,-19.453125 -2.25741,-7.734375 -4.57528,-16.277344 -5.1508,-18.984375 C 280.68984,28.464844 279.90016,26.25 279.51054,26.25 c -1.28994,0 -2.99165,9.878305 -2.1141,12.272141 0.45549,1.24251 2.42821,9.306428 4.38382,17.919817 l 3.55566,15.660708 3.36008,1.400359 c 1.84804,0.770198 3.63557,1.422098 3.97229,1.448667 0.33672,0.02657 -0.008,-2.377473 -0.76775,-5.342317 z M 85.652717,70.319971 C 86.220043,67.474478 97.411702,53.4375 99.113086,53.4375 c 1.167344,0 3.264694,-4.489793 2.469814,-5.287154 -0.79585,-0.798344 -20.544749,18.159489 -21.490688,20.629858 -0.537305,1.403202 -0.288785,2.293323 0.879561,3.150308 2.603002,1.90931 4.080523,1.40095 4.680944,-1.610541 z m 82.339253,-1.48619 0.23497,-3.677531 -1.40319,3.154509 c -1.70937,3.842844 -1.7734,5.092489 -0.23496,4.585523 0.64252,-0.211733 1.27395,-2.039858 1.40318,-4.062501 z M 365.79602,57.65625 c 4.00113,-3.09375 8.60254,-6.806563 10.22536,-8.250696 l 2.95059,-2.625696 -4.6729,2.301676 c -2.84376,1.400715 -8.87993,6.409203 -15.42056,12.795132 -5.91121,5.771401 -8.40982,8.448459 -5.55246,5.94902 2.85737,-2.49944 8.46885,-7.075686 12.46997,-10.169436 z M 86.627218,59.230342 c -1.999264,-0.386226 -4.384226,1.4046 -4.384226,3.292038 0,1.015962 0.757952,0.8139 3.027254,-0.807034 2.455325,-1.753809 2.711693,-2.223293 1.356972,-2.485004 z m 366.176532,1.719617 0,-2.331289 -14.25202,-0.01246 c -8.82181,-0.0077 -14.13671,0.334888 -13.94941,0.899182 0.44479,1.339928 4.10237,2.161364 10.44442,2.345649 3.08411,0.08962 7.5,0.508049 9.81308,0.929848 6.50287,1.185822 7.94393,0.853684 7.94393,-1.830929 z m -1.40187,-4.593928 c 0,-1.847929 -3.19119,-4.793531 -5.19318,-4.793531 -1.88427,0 -2.28346,0.464356 -2.28346,2.65625 0,1.460938 0.19743,2.854292 0.43872,3.096345 0.6448,0.646817 7.03792,-0.224379 7.03792,-0.959064 z m -9.50789,59.831919 c -2.55062,-3.18383 -14.60132,-14.05416 -29.45999,-26.57438 -2.08474,-1.756647 -4.88997,-2.991802 -7.86698,-3.463876 -3.96718,-0.629086 -5.56829,-0.349387 -11.22962,1.961708 -3.63151,1.482471 -6.70236,2.830277 -6.8241,2.995125 -1.54322,2.08953 -6.19117,18.654603 -5.96491,21.258653 0.3717,4.27796 -2.3541,5.34725 -4.05956,1.5925 -0.89485,-1.97013 -0.72122,-4.24547 0.9243,-12.11218 1.11437,-5.327494 2.02613,-9.969262 2.02613,-10.315039 0,-0.345776 -0.99964,-0.377006 -2.22142,-0.0694 -1.66078,0.418133 -3.09691,-0.211807 -5.69038,-2.496022 -2.97816,-2.623028 -3.38908,-3.455943 -2.90439,-5.886976 0.31052,-1.55742 1.40307,-3.727002 2.4279,-4.821292 C 373.02829,76.145438 372.67699,75 370.05214,75 c -1.82476,0 -4.27544,-2.544745 -3.3473,-3.47578 0.33882,-0.339883 1.1137,-0.118752 1.72196,0.491405 0.60825,0.610156 1.85936,1.109375 2.78024,1.109375 0.92088,0 2.19961,0.84375 2.84163,1.875 0.64202,1.03125 1.87675,1.875 2.74383,1.875 0.86709,0 2.42319,1.079737 3.45801,2.399414 1.8667,2.380539 1.89587,2.385005 3.70757,0.567644 3.85886,-3.870923 22.14047,-5.329622 27.88097,-2.224637 1.6283,0.880731 9.73117,8.634809 18.00639,17.231282 11.04426,11.473037 15.41279,16.673307 16.42562,19.552947 2.33955,6.65168 0.21521,7.51862 -4.37707,1.7863 z m 4.78417,2.17143 C 446.3699,114.09489 441.96873,108.29849 428.46393,94.371 413.63244,79.075274 413.43489,78.914845 410.23963,79.570389 c -4.7756,0.979767 -4.37363,3.959699 1.12696,8.354536 10.2777,8.211631 28.68297,24.686175 31.03483,27.779265 2.34778,3.08773 4.4001,4.36189 4.27674,2.65519 z m -66.92245,-6.14146 c -0.34018,-2.10282 0.42745,-5.73219 2.3952,-11.32469 1.5927,-4.526574 2.89583,-8.964183 2.89583,-9.861364 0,-0.89718 1.0514,-2.548276 2.33644,-3.669101 2.92988,-2.555457 2.94337,-3.688071 0.0596,-5.006107 -4.54284,-2.076326 -5.12465,-0.891437 -8.95639,18.240202 -2.06504,10.31063 -1.93195,14.71564 0.44462,14.71564 0.97747,0 1.19392,-0.81221 0.8247,-3.09458 z m -0.8505,-22.753635 c 0.80775,-0.810267 1.46863,-2.286829 1.46863,-3.28125 0,-2.441624 -3.76408,-2.404199 -6.67217,0.06634 -2.16517,1.839398 -2.17249,1.900628 -0.3922,3.28125 2.31426,1.794715 3.75755,1.777605 5.59574,-0.06634 z m 14.2851,-2.226592 c 4.87735,-1.993764 7.63965,-2.609707 9.98875,-2.227309 2.95815,0.481542 3.20082,0.351231 2.72743,-1.464651 -0.64721,-2.4827 1.16151,-4.786592 3.78739,-4.824241 1.8935,-0.02715 1.90417,-0.07756 0.22368,-1.056601 -2.21106,-1.288142 -18.47958,-0.509586 -22.79987,1.091124 l -3.06923,1.137181 3.01357,1.537776 c 3.99219,2.037145 4.24648,3.362777 1.19013,6.204162 -1.39908,1.300676 -2.37724,2.363419 -2.17367,2.361651 0.20356,-0.0018 3.40388,-1.243359 7.11182,-2.759092 z"
       id="path3348"
       inkscape:connector-curvature="0" />
  </g>
</svg>
