<?xml version="1.0" encoding="UTF-8" standalone="no"?>
<!-- Created with Inkscape (http://www.inkscape.org/) -->

<svg
   xmlns:dc="http://purl.org/dc/elements/1.1/"
   xmlns:cc="http://creativecommons.org/ns#"
   xmlns:rdf="http://www.w3.org/1999/02/22-rdf-syntax-ns#"
   xmlns:svg="http://www.w3.org/2000/svg"
   xmlns="http://www.w3.org/2000/svg"
   xmlns:sodipodi="http://sodipodi.sourceforge.net/DTD/sodipodi-0.dtd"
   xmlns:inkscape="http://www.inkscape.org/namespaces/inkscape"
   id="svg3422"
   version="1.1"
   inkscape:version="0.91 r13725"
   width="569.15887"
   height="221.25"
   viewBox="0 0 569.15887 221.25"
   sodipodi:docname="bb720702.svg">
  <metadata
     id="metadata3428">
    <rdf:RDF>
      <cc:Work
         rdf:about="">
        <dc:format>image/svg+xml</dc:format>
        <dc:type
           rdf:resource="http://purl.org/dc/dcmitype/StillImage" />
        <dc:title></dc:title>
      </cc:Work>
    </rdf:RDF>
  </metadata>
  <defs
     id="defs3426" />
  <sodipodi:namedview
     pagecolor="#ffffff"
     bordercolor="#666666"
     borderopacity="1"
     objecttolerance="10"
     gridtolerance="10"
     guidetolerance="10"
     inkscape:pageopacity="0"
     inkscape:pageshadow="2"
     inkscape:window-width="1586"
     inkscape:window-height="964"
     id="namedview3424"
     showgrid="false"
     inkscape:zoom="1.5529644"
     inkscape:cx="222.52916"
     inkscape:cy="73.273601"
     inkscape:window-x="0"
     inkscape:window-y="0"
     inkscape:window-maximized="0"
     inkscape:current-layer="svg3422" />
  <g
     id="g3432"
     transform="translate(1.6355158,4.9455715)">
    <path
       style="fill:#fefefe"
       d="m 13.707165,142.8125 c -0.342679,-0.34375 -0.623053,-1.82031 -0.623053,-3.28125 l 0,-2.65625 270.093458,0 270.09345,0 0,3.28125 0,3.28125 -269.4704,0 c -148.20872,0 -269.750776,-0.28125 -270.093455,-0.625 z m 24.048575,-9.26358 c -0.328696,-1.31372 0.510724,-9.43481 1.865375,-18.04688 1.354653,-8.61206 2.456694,-18.105024 2.448982,-21.095471 -0.01746,-6.770586 1.941212,-10.969069 5.117282,-10.969069 3.007201,0 4.454674,2.864432 3.678153,7.278763 -0.338865,1.926368 -2.459621,11.057717 -4.712789,20.291887 -2.253168,9.23417 -4.096669,17.77147 -4.096669,18.97179 0,1.60803 0.86088,2.54322 3.271028,3.55339 1.799066,0.75405 3.271028,1.60346 3.271028,1.88758 0,0.28413 -2.305072,0.51659 -5.122381,0.51659 -4.710081,0 -5.170484,-0.19225 -5.720009,-2.38858 z m 55.751343,-1.12705 c -1.362182,-4.9203 -1.470326,-4.53085 3.57171,-12.86279 3.948797,-6.52534 4.766117,-8.7763 6.137487,-16.90283 0.87013,-5.15625 1.76952,-9.951016 1.99866,-10.655036 0.22914,-0.70402 1.63172,1.136448 3.11685,4.08993 l 2.70023,5.369966 -2.24831,6.63098 c -1.47228,4.34219 -4.05079,8.99161 -7.47037,13.47012 -4.902379,6.4205 -5.183192,7.06981 -4.587416,10.60722 0.512729,3.04427 0.358009,3.76807 -0.805458,3.76807 -0.868019,0 -1.826729,-1.39657 -2.413383,-3.51563 z m 33.136017,2.34375 c -0.22057,-0.64453 -1.29012,-5.99973 -2.37678,-11.90044 -1.08667,-5.90072 -2.59691,-11.93352 -3.35611,-13.40623 -1.91278,-3.71049 -0.88502,-6.5255 2.24684,-6.15408 3.00617,0.35651 3.4583,1.96628 4.78525,17.03743 0.96277,10.93495 1.85905,13.7202 4.41512,13.7202 0.70809,0 1.28744,0.42187 1.28744,0.9375 0,1.36811 -6.52814,1.14959 -7.00176,-0.23438 z m 29.51434,-10.78124 c 0.0751,-6.57422 -0.0179,-13.64063 -0.20665,-15.70313 -0.29921,-3.26831 -0.0813,-3.78742 1.69625,-4.04126 3.25676,-0.4651 4.20545,2.48654 3.1708,9.86517 -2.16229,15.42032 -2.17694,17.9176 -0.11268,19.21078 2.80191,1.75529 2.34381,2.62156 -1.38636,2.62156 l -3.29803,0 0.13667,-11.95312 z m 36.82744,10.0599 c -0.55663,-1.7593 -0.263,-8.99459 1.06226,-26.17471 l 0.53798,-6.97418 1.75208,2.28668 c 1.91133,2.49452 2.25377,7.45455 0.93459,13.53668 -0.44734,2.0625 -1.08874,6.38624 -1.42532,9.60832 -0.58851,5.63391 -0.52068,5.90003 1.77079,6.94736 3.32436,1.51941 2.96993,2.66307 -0.82531,2.66307 -2.39753,0 -3.35939,-0.47832 -3.80707,-1.89322 z m 46.26745,1.05602 c 0,-0.46046 0.68783,-1.10196 1.52851,-1.42557 1.33334,-0.51325 1.44459,-1.73508 0.87126,-9.56988 -0.4597,-6.28218 -0.35732,-8.79557 0.34066,-8.36285 0.54884,0.34026 0.99789,1.35314 0.99789,2.25083 0,0.8977 0.41865,2.05213 0.93034,2.56541 0.51169,0.51329 1.20424,4.18361 1.53901,8.15625 l 0.60866,7.22301 -3.40816,0 c -1.87449,0 -3.40817,-0.37674 -3.40817,-0.8372 z m 42.05608,0.12522 c 0,-0.3916 0.86025,-1.25091 1.91166,-1.90958 2.06425,-1.29318 2.04961,-3.79046 -0.11268,-19.21078 -1.03466,-7.37863 -0.086,-10.33027 3.17079,-9.86517 1.77759,0.25384 1.99547,0.77295 1.69625,4.04126 -0.18882,2.0625 -0.28181,9.12891 -0.20664,15.70313 l 0.13666,11.95312 -3.29802,0 c -1.81391,0 -3.29802,-0.32039 -3.29802,-0.71198 z M 351.40186,135 c 0,-0.51563 0.8163,-0.9375 1.814,-0.9375 0.9977,0 2.01991,-0.3342 2.27157,-0.74267 0.9014,-1.46304 -2.10558,-20.22415 -3.72491,-23.24046 -1.35558,-2.52502 -1.4561,-3.51075 -0.55936,-5.48505 1.07511,-2.36695 3.34013,-3.19657 4.332,-1.58669 0.51797,0.84073 1.84065,12.74123 2.85243,25.66424 l 0.56885,7.26563 -3.77729,0 c -2.0775,0 -3.77729,-0.42188 -3.77729,-0.9375 z m 63.5514,0.38465 c 0,-0.30407 0.93429,-1.31176 2.07621,-2.23932 l 2.0762,-1.68646 -1.68327,-10.18256 c -0.92581,-5.60041 -2.35049,-12.37523 -3.16598,-15.05517 -1.21638,-3.9974 -1.26641,-5.13405 -0.27849,-6.328124 0.66231,-0.800532 1.75873,-1.455516 2.43648,-1.455516 2.6202,0 2.65346,0.198863 4.66518,27.89063 l 0.69809,9.60937 -3.41221,0 c -1.87671,0 -3.41221,-0.24878 -3.41221,-0.55285 z m 31.77571,-0.006 c 0,-0.30712 0.80522,-1.69277 1.78938,-3.07922 1.78238,-2.51093 1.77718,-2.57072 -1.32762,-15.26382 -1.71434,-7.00866 -3.41126,-16.12693 -3.77091,-20.262814 -0.63499,-7.301983 -0.58681,-7.563907 1.66321,-9.042785 4.99389,-3.282271 6.31883,-0.247964 6.31883,14.471109 0,5.51578 0.74879,12.80514 1.88381,18.33865 l 1.8838,9.18403 -3.00172,3.10667 c -2.67909,2.77276 -5.43878,4.06577 -5.43878,2.54826 z m 83.17756,-0.0843 c 0,-0.35348 0.90874,-1.61303 2.01943,-2.799 l 2.01943,-2.15631 -3.90101,-18.06036 c -2.14557,-9.93315 -3.89543,-18.975035 -3.88859,-20.09302 0.0196,-3.20994 1.01127,-4.99855 2.7713,-4.99855 3.59486,0 4.52658,2.815736 5.5839,16.875 0.56228,7.47656 1.6449,16.5279 2.40582,20.11408 l 1.3835,6.52033 -2.50258,2.6203 c -2.26218,2.36857 -5.8912,3.58679 -5.8912,1.97759 z m -142.8723,-15.06036 -1.11248,-11.95313 3.72161,-9.718997 c 2.04689,-5.345446 3.91679,-9.914783 4.15534,-10.15408 0.23856,-0.239297 1.28239,0.02052 2.31964,0.577375 3.57491,1.919215 3.34655,4.411396 -1.29347,14.116112 -4.1671,8.71561 -4.38176,9.5452 -3.92496,15.16847 0.47278,5.81979 -0.73609,13.91737 -2.07769,13.91737 -0.37152,0 -1.17612,-5.37891 -1.78799,-11.95312 z m -179.46705,9.21659 c -1.87022,-1.18776 -0.77848,-13.8768 1.37134,-15.93884 1.43048,-1.37206 1.49859,-1.06755 0.92683,4.14412 -0.89389,8.14799 -0.9039,9.19622 -0.1052,11.01562 0.78138,1.78001 -0.11535,2.09859 -2.19297,0.7791 z m 21.47049,-1.30885 c -1.56394,-4.12634 -2.1136,-12.43104 -1.08526,-16.39727 0.56075,-2.16279 1.47073,-5.67351 2.02217,-7.8016 0.69801,-2.69376 1.2997,-3.57124 1.9805,-2.88831 0.6808,0.68293 0.63102,2.43138 -0.16386,5.75515 -0.62796,2.62581 -0.92051,5.35252 -0.65012,6.05935 0.27039,0.70684 0.0693,2.95427 -0.44693,4.99431 -0.73304,2.89699 -0.61644,4.48248 0.53257,7.24104 0.80913,1.94255 1.23882,3.90895 0.95488,4.3698 -0.91386,1.48328 -2.29929,0.89612 -3.14395,-1.33247 z M 79.528031,120.46204 c -4.426088,-1.38426 -8.368208,-4.8862 -20.788854,-18.46751 l -7.464215,-8.16173 0.646455,-4.324343 0.646455,-4.324342 2.7756,2.642317 c 1.526581,1.453275 7.557106,8.126693 13.401167,14.829818 5.844061,6.70313 12.113064,13.36564 13.931117,14.80559 5.434123,4.30399 4.343832,5.34318 -3.147725,3.0002 z m 269.070099,-4.566 c 0,-3.02901 2.12826,-6.18836 3.10298,-4.6063 0.2561,0.41568 0.7609,2.3346 1.12179,4.26428 0.62188,3.32529 0.52872,3.50848 -1.78432,3.50848 -2.14918,0 -2.44045,-0.37792 -2.44045,-3.16646 z m -187.19687,-0.34916 c 0.21692,-1.41797 0.61345,-3.6324 0.8812,-4.92095 l 0.48679,-2.34282 1.29253,2.34282 c 0.7109,1.28855 1.30745,3.50298 1.32566,4.92095 0.0269,2.094 -0.38128,2.57812 -2.17373,2.57812 -1.88003,0 -2.14844,-0.38181 -1.81245,-2.57812 z m 116.16883,-0.55783 c 0,-1.92005 0.70762,-3.77833 1.82503,-4.79273 1.75878,-1.59666 1.84152,-1.57641 2.27974,0.55782 1.45603,7.09132 1.40177,7.37086 -1.43063,7.37086 -2.40951,0 -2.67414,-0.31033 -2.67414,-3.13595 z m -33.82231,-0.27959 c -0.94603,-1.84841 -0.23962,-10.97625 0.87838,-11.35008 0.83833,-0.28032 1.16419,1.02133 1.15392,4.60937 -0.0136,4.73973 -1.14157,8.48108 -2.0323,6.74071 z M 199.06542,110.625 c 0,-2.98612 0.34268,-3.75 1.68224,-3.75 2.42754,0 3.92523,1.86008 3.92523,4.875 0,2.29166 -0.35602,2.625 -2.80373,2.625 -2.64798,0 -2.80374,-0.20833 -2.80374,-3.75 z m -71.0408,0.70313 c -0.007,-1.16016 -0.26635,-3.0586 -0.57629,-4.21875 -0.40035,-1.49857 -0.15917,-2.10938 0.8329,-2.10938 1.91487,0 3.37108,1.95922 4.07303,5.47998 0.5418,2.71746 0.39054,2.95752 -1.86361,2.95752 -1.9173,0 -2.45605,-0.46084 -2.46603,-2.10937 z m 174.7855,0.46875 c 0.004,-0.38672 1.58061,-1.72529 3.50467,-2.9746 1.92406,-1.2493 9.40597,-8.37635 16.62648,-15.837879 12.11217,-12.516502 13.28585,-13.481773 15.16549,-12.472674 2.49685,1.34045 4.27378,4.475349 3.57384,6.30506 -0.28567,0.746775 -2.31573,2.140075 -4.51122,3.09622 -2.1955,0.956146 -8.55872,5.84688 -14.14049,10.868303 -8.32134,7.48597 -11.01376,9.36091 -14.95327,10.41315 -5.70299,1.52325 -5.27342,1.47409 -5.2655,0.60242 z m 117.48946,-9.2981 c -0.64428,-3.364849 -0.1121,-3.900002 1.88555,-1.8961 1.44075,1.44525 1.44968,1.71543 0.10135,3.06797 -1.34832,1.35253 -1.5233,1.24933 -1.9869,-1.17187 z M 521.49532,91.839184 c -1.79907,-0.957622 -8.52804,-4.105862 -14.95327,-6.996089 -10.69057,-4.808878 -20.85803,-11.732386 -19.39085,-13.204152 0.28237,-0.283252 2.71143,0.602301 5.3979,1.967897 4.34675,2.209546 10.47292,4.700867 26.81142,10.903362 4.32033,1.640104 4.94406,2.222236 5.48601,5.120111 0.33631,1.798288 0.45585,3.422702 0.26565,3.609808 -0.19021,0.187106 -1.8178,-0.443315 -3.61686,-1.400937 z M 106.01052,87.407519 C 105.46117,87.028696 100.92762,79.125 95.93598,69.84375 90.944336,60.5625 85.538065,51.178728 83.922045,48.990923 c -1.61602,-2.187804 -2.706974,-4.209792 -2.424343,-4.493306 0.887797,-0.890571 7.122171,2.580034 7.544459,4.199916 0.221511,0.849709 4.775305,7.851081 10.119548,15.558606 8.893721,12.82663 12.862731,20.859033 11.444461,23.161026 -0.5535,0.898369 -3.28721,0.892631 -4.59565,-0.0096 z M 433.23184,72.86383 C 428.63553,64.499661 424.15639,56.601562 423.2782,55.3125 421.41066,52.571199 420.07966,45 421.46528,45 c 0.50965,0 1.83584,1.792969 2.94711,3.984375 1.11125,2.191406 6.08596,9.890625 11.0549,17.109375 4.96895,7.21875 9.35485,13.660038 9.74646,14.313972 0.54188,0.904864 -2.58538,7.840638 -3.46755,7.690483 -0.0865,-0.01474 -3.91805,-6.870206 -8.51436,-15.234375 z m -39.7739,12.101314 c 0,-3.092646 -3.02802,-33.945715 -3.38905,-34.531704 -0.67669,-1.098326 2.41154,-10.12094 3.46416,-10.12094 0.47271,0 0.86041,2.214844 0.86156,4.921875 9.4e-4,2.707031 1.43321,12.304687 3.18234,21.328125 1.74914,9.023437 2.90474,16.67821 2.568,17.010607 -0.81405,0.803558 -6.68701,2.026135 -6.68701,1.392037 z M 156.78716,80.556341 c -3.43755,-2.009004 -3.5521,-3.816063 -1.63702,-25.827033 1.02256,-11.75283 1.8592,-24.867089 1.8592,-29.142795 0,-4.275707 0.38627,-7.774013 0.85839,-7.774013 0.47211,0 1.7229,2.636719 2.77955,5.859375 1.71215,5.221854 1.93375,8.369745 2.03669,28.931887 0.0982,19.61069 -0.11213,23.5141 -1.40168,26.015625 -1.64632,3.193573 -2.04846,3.366856 -4.49513,1.936954 z m 125.36305,-1.571966 c -1.06469,-1.326255 -1.25878,-5.547792 -1.01294,-22.03125 0.28947,-19.409503 0.39085,-20.390625 2.10678,-20.390625 0.99147,0 1.80267,-0.593317 1.80267,-1.318481 0,-0.856923 -0.65433,-1.146836 -1.86915,-0.828159 -1.55428,0.407722 -1.86916,0.02876 -1.86916,-2.249482 0,-3.439691 3.61834,-14.353878 4.75869,-14.353878 0.46683,0 0.84878,3.493609 0.84878,7.763574 0,4.269966 0.85589,17.614914 1.90197,29.65544 1.78677,20.565999 1.8063,21.997902 0.32244,23.642676 -1.98605,2.201422 -5.26973,2.253183 -6.99008,0.110185 z m 60.11938,-0.560789 c -3.89735,-1.054213 -3.94235,-1.110895 -1.89664,-2.388803 1.15248,-0.719932 7.43083,-5.675134 13.95188,-11.011561 10.71299,-8.766863 19.85452,-14.362055 21.22268,-12.989618 0.28414,0.285023 -1.14221,1.853522 -3.16966,3.485551 -2.02744,1.632029 -8.54405,7.737555 -14.48135,13.567836 -5.9373,5.830279 -10.98403,10.559091 -11.21495,10.50847 -0.23093,-0.05062 -2.21631,-0.577965 -4.41196,-1.171875 z M 233.09457,70.585847 c 0.31998,-3.501903 0.99912,-14.59366 1.5092,-24.648347 1.31291,-25.880093 1.83737,-28.125 6.57064,-28.125 2.0115,0 3.03566,0.589066 3.66738,2.109375 0.78753,1.89529 2.83088,38.837296 2.82437,51.062133 l -0.003,4.890257 -3.27103,-1.935985 -3.27103,-1.935985 -0.20552,-19.829272 -0.20552,-19.829273 -0.49542,19.853073 -0.49541,19.853074 -3.60343,2.451523 -3.60342,2.451524 0.5818,-6.367097 z m 231.41368,3.034825 c -0.80142,-0.968665 -0.76466,-1.767331 0.14888,-3.234709 0.66717,-1.071655 1.44495,-1.948463 1.72839,-1.948463 0.28344,0 4.18266,-2.109375 8.66494,-4.6875 8.42142,-4.843846 10.69545,-5.486133 12.61308,-3.5625 1.72242,1.727799 1.35743,2.311954 -1.44859,2.318449 -1.62661,0.0037 -5.88732,2.281075 -11.60632,6.203459 -7.39937,5.074873 -9.22898,5.964515 -10.10038,4.911264 z M 194.74259,72.93473 c -1.05147,-1.706629 -1.54131,-51.625464 -0.52119,-53.113179 2.22063,-3.238505 7.16341,2.345127 6.65228,7.514777 -0.11937,1.207207 0.0209,2.827734 0.31183,3.601172 0.29087,0.773438 0.77113,7.945312 1.06725,15.9375 0.29612,7.992187 0.80486,17.0625 1.13054,20.15625 0.40658,3.862318 0.28951,5.331219 -0.3736,4.6875 -0.80278,-0.779302 -3.02107,-29.027718 -3.01227,-38.359375 0.002,-1.503906 -0.25286,-2.478147 -0.56506,-2.164979 -0.31219,0.313167 -0.0577,9.462587 0.56556,20.332044 0.8946,15.601845 0.89163,20.054604 -0.0141,21.149354 -1.38406,1.672901 -4.28189,1.816063 -5.24124,0.258936 z m 270.67796,-6.226929 c 0,-1.102247 3.1963,-3.895301 4.45769,-3.895301 2.33912,0 1.96476,1.888897 -0.6424,3.241324 -3.19068,1.655118 -3.81529,1.762183 -3.81529,0.653977 z M 525.85669,65 c -1.35921,-1.363457 -0.33292,-3.359739 6.94223,-13.503643 4.16089,-5.801642 8.01345,-11.53516 8.56122,-12.741149 0.54778,-1.205989 1.30341,-2.192708 1.67921,-2.192708 1.1365,0 2.05818,5.076758 0.98673,5.435029 -1.44459,0.483033 -10.95714,14.389109 -12.6918,18.55369 -1.81019,4.345954 -3.89342,6.037902 -5.47759,4.448781 z M 48.323522,61.776911 C 47.198005,61.119939 46.840817,60.185905 47.236661,58.934814 47.822345,57.083721 67.36635,36.5625 68.543611,36.5625 c 1.432647,0 0.446044,3.059634 -1.601531,4.96664 -4.75376,4.427407 -13.514524,16.045142 -14.023155,18.596245 -0.563328,2.825444 -1.814142,3.27497 -4.595403,1.651526 z M 522.66354,60.853267 c -1.70234,-0.641856 -2.1028,-1.512756 -2.1028,-4.573057 0,-3.08132 0.32643,-3.78021 1.76563,-3.78021 0.97108,0 2.73182,0.784828 3.91273,1.744063 l 2.14712,1.744063 -1.80994,2.828994 c -1.50284,2.348995 -2.16672,2.694469 -3.91274,2.036147 z M 49.53271,52.20988 c 0,-1.887438 2.384961,-3.678264 4.384226,-3.292038 1.35472,0.261711 1.098352,0.731195 -1.356972,2.485004 -2.269302,1.620934 -3.027254,1.822996 -3.027254,0.807034 z"
       id="path3442"
       inkscape:connector-curvature="0" />
    <path
       style="fill:#007f7f"
       d="m 114.33447,103.78556 c -2.97661,-3.82316 -8.72699,-13.891095 -8.72699,-15.279498 0,-0.113039 0.84336,0.01571 1.87414,0.286104 2.63087,0.690142 4.85624,-1.400897 4.09347,-3.8464 -1.4901,-4.777432 -1.12107,-4.334695 2.64994,3.179234 2.9833,5.944378 4.99044,8.683237 7.9009,10.78125 2.1459,1.54687 4.16849,3.44531 4.49463,4.21875 0.47505,1.12658 0.35893,1.1732 -0.58388,0.23437 -2.87707,-2.86487 -8.39909,0.34562 -6.9791,4.05764 1.04631,2.73514 -0.97804,1.17869 -4.72311,-3.63145 z m 46.61514,1.19045 c -1.24505,-1.99989 -4.37531,-2.48275 -5.39246,-0.83183 -2.16226,3.50955 -3.71531,-6.162774 -2.78614,-17.352086 l 0.6681,-8.045557 2.37844,1.876731 c 3.17145,2.502458 3.70759,2.395672 5.87493,-1.170143 2.0641,-3.395933 2.234,-2.915443 0.9117,2.578125 -0.60241,2.502711 -0.55271,6.742155 0.14943,12.745969 1.13188,9.678461 0.41063,13.756041 -1.804,10.198791 z m 119.85622,-0.25203 c -0.33311,-1.33133 -0.13427,-6.138083 0.44185,-10.681667 0.72023,-5.680156 0.75235,-9.266787 0.1028,-11.48022 -1.08677,-3.703331 -0.81224,-4.466356 0.87376,-2.428499 1.5265,1.845071 4.57441,1.825934 6.63162,-0.04163 1.52115,-1.380927 1.6609,-0.976435 2.29317,6.637576 0.93385,11.245835 -0.61313,20.93322 -2.78095,17.41465 -1.04022,-1.68839 -4.05864,-1.14995 -5.55328,0.99061 l -1.40333,2.0098 -0.60564,-2.42062 z m 66.97061,-0.73957 c -0.57611,-1.65781 -1.04747,-4.544882 -1.04747,-6.41571 0,-4.871885 -2.23389,-7.74024 -5.42952,-6.971583 l -2.51441,0.604803 2.19102,-2.396201 c 2.60765,-2.851846 2.15022,-5.304363 -1.54533,-8.285486 l -2.51485,-2.028679 4.20561,0.640765 c 3.29011,0.501281 5.19485,1.600826 8.74999,5.051098 2.49941,2.425683 5.0879,5.675958 5.75219,7.222833 1.74995,4.074994 2.75898,11.71875 1.54694,11.71875 -0.54205,0 -1.24546,-0.42187 -1.56314,-0.9375 -1.09534,-1.77783 -3.30335,-0.92948 -5.04102,1.9368 l -1.74252,2.8743 -1.04749,-3.01419 z m -151.67759,-2.14293 c -0.86059,-1.18915 -1.85767,-3.728599 -2.21573,-5.643208 l -0.65103,-3.481123 5.95405,0.28205 5.95404,0.282051 0.28739,3.984375 c 0.24287,3.367255 0.0172,3.984375 -1.45689,3.984375 -0.95936,0 -2.56064,0.6194 -3.55841,1.37644 -2.35342,1.7856 -2.46824,1.7647 -4.31342,-0.78496 z m 36.8058,-0.44294 c -0.74107,-1.573549 -0.75648,-3.697484 -0.0544,-7.500002 0.53871,-2.917633 0.71158,-7.687321 0.38417,-10.599303 -0.55499,-4.936085 -0.4295,-5.425342 1.85378,-7.226986 3.63095,-2.865027 5.61728,-3.211189 8.83838,-1.540286 3.96981,2.059282 4.28701,3.484135 2.40021,10.781549 -1.15876,4.481571 -1.44646,7.806261 -0.99157,11.458435 0.74161,5.954153 0.12501,6.537023 -7.1043,6.715703 -3.63811,0.0899 -4.45002,-0.22852 -5.32629,-2.08911 z m 177.39096,-0.3466 c -0.58336,-0.66451 -1.88932,-2.610052 -2.90212,-4.323446 -1.59281,-2.694628 -2.20094,-3.036057 -4.5038,-2.528681 -2.303,0.507403 -2.74412,0.25965 -3.26838,-1.835702 -0.33333,-1.33225 -1.87708,-3.197642 -3.43055,-4.145318 l -2.82449,-1.723046 4.38295,-1.107089 c 3.74198,-0.945188 5.06509,-0.861029 9.04743,0.575475 6.50541,2.346621 14.17354,11.535867 9.62632,11.535867 -0.73372,0 -2.17389,1.071028 -3.20037,2.380069 -1.48894,1.898801 -2.08079,2.135751 -2.92699,1.171871 z M 193.80346,88.828125 c 0.30995,-1.160156 0.56928,-4.917535 0.5763,-8.349731 0.0119,-5.809593 0.14391,-6.205954 1.91265,-5.741972 1.1144,0.292332 2.672,-0.202546 3.76741,-1.196979 1.65421,-1.501723 2.02652,-1.53586 3.25965,-0.298877 1.12381,1.127315 1.27176,2.967434 0.76762,9.54671 l -0.62452,8.150224 -5.11132,0 c -4.84454,0 -5.0819,-0.110094 -4.54779,-2.109375 z m 257.64192,0.501735 c -0.0239,-1.142015 -0.93509,-2.555033 -2.02478,-3.140042 -1.63727,-0.878981 -2.4884,-0.687531 -4.90229,1.102712 l -2.92104,2.166364 3.26679,-4.324064 c 9.36,-12.389338 11.73259,-14.877632 15.18869,-15.929379 3.94483,-1.200476 5.2916,-0.591334 3.49465,1.580626 -1.00658,1.216646 -0.86881,1.815288 0.83692,3.636629 l 2.04185,2.180242 -5.26614,3.1829 c -3.80789,2.301519 -5.87605,4.351124 -7.46864,7.401652 -1.66866,3.196213 -2.21304,3.715477 -2.24601,2.14236 z m 73.8154,-0.26736 c -0.0164,-0.257813 -0.65939,-4.054688 -1.42901,-8.4375 -1.48272,-8.443723 -1.76361,-13.901031 -0.83979,-16.316 0.47824,-1.250152 0.80127,-1.173045 2.16543,0.516875 1.33676,1.65599 1.93233,1.809605 3.58208,0.923925 1.08831,-0.584265 2.15801,-1.0623 2.37712,-1.0623 0.2191,0 0.62254,4.746094 0.89654,10.546875 0.27399,5.800781 0.82452,11.390625 1.22341,12.421875 0.6972,1.802519 0.65304,1.811579 -1.14234,0.234375 C 531.06706,86.988281 529.54467,86.25 528.71116,86.25 c -0.83351,0 -1.94416,0.738281 -2.46808,1.640625 -0.52394,0.902344 -0.96597,1.429687 -0.9823,1.171875 z M 42.056074,85.191981 c 0,-0.811371 1.051402,-3.458815 2.336449,-5.883208 1.849564,-3.489423 2.336448,-5.77206 2.336448,-10.953865 0,-6.181207 0.100708,-6.491811 1.807719,-5.575393 2.859911,1.535362 3.80494,1.173389 5.118557,-1.960549 1.295615,-3.090988 1.78389,-2.872462 2.761795,1.236033 0.515084,2.16403 -0.132694,5.926346 -3.659304,21.25336 -0.473969,2.05992 -0.625857,2.109033 -2.174529,0.703125 -2.339147,-2.123514 -5.360735,-1.879081 -7.072271,0.572115 -1.066495,1.527393 -1.454864,1.689797 -1.454864,0.608382 z"
       id="path3438"
       inkscape:connector-curvature="0" />
    <path
       style="fill:#fe0000"
       d="m 189.71962,91.929663 c -1.28504,-0.363549 -3.72154,-1.002848 -5.41444,-1.420665 -5.02336,-1.239796 -7.26282,-8.740046 -3.31502,-11.102457 1.45575,-0.871144 1.69409,-3.469041 0.31825,-3.469041 -0.51402,0 -0.93458,-0.421875 -0.93458,-0.9375 0,-0.515625 1.89252,-0.9375 4.20561,-0.9375 4.58548,0 4.92346,0.57559 2.77973,4.734056 -1.53774,2.982962 -3.24702,3.669599 -3.24702,1.304366 0,-2.026617 -1.80078,-0.715909 -2.86153,2.082779 -1.41723,3.739255 0.30787,5.547222 7.0362,7.374187 4.63848,1.2595 7.83042,1.50999 13.34426,1.047198 9.46996,-0.794839 11.94071,-2.505305 11.86807,-8.216095 -0.0288,-2.259257 -0.38916,-4.846022 -0.80093,-5.748366 C 212.27115,75.704744 212.32952,75 212.83411,75 c 1.38277,0 3.05374,4.435198 3.05374,8.105478 0,4.603558 -4.01452,8.295642 -9.89998,9.104856 -5.37934,0.739624 -13.13473,0.605822 -16.26825,-0.280671 z M 305.97876,76.319155 c 0.3142,-0.821339 0.82856,-2.521726 1.14305,-3.778637 0.39705,-1.586953 1.04519,-2.134573 2.12097,-1.792066 0.94928,0.302234 3.3501,-1.010019 6.19993,-3.388781 6.75117,-5.635252 21.73971,-12.047171 28.16154,-12.047171 4.7306,0 3.73933,1.540809 -1.38277,2.149342 -10.44079,1.240423 -31.10363,12.303061 -30.27391,16.208283 0.14594,0.686864 -0.98971,1.899888 -2.52368,2.695609 -3.52159,1.826778 -4.15847,1.818167 -3.44513,-0.04658 z M 266.46592,44.446266 c 0.20121,-0.468884 0.97392,-2.434547 1.71714,-4.368141 1.38647,-3.607102 2.84497,-4.657742 2.84497,-2.049389 0,1.254013 0.50727,1.192164 3.50468,-0.427315 5.2906,-2.858477 10.51401,-4.035707 10.51401,-2.369602 0,0.731874 -0.8326,1.330681 -1.85024,1.330681 -3.03241,0 -9.6621,2.986222 -8.38604,3.777337 1.64728,1.021248 0.36828,2.501957 -2.60274,3.013233 -1.41984,0.244338 -3.3749,0.782079 -4.34457,1.19498 -1.00635,0.428521 -1.60603,0.384835 -1.39721,-0.101784 z"
       id="path3436"
       inkscape:connector-curvature="0" />
    <path
       style="fill:#000000"
       d="M 15.420561,203.6557 22.897196,203.31805 33.807287,187.14957 44.71738,170.98109 34.424653,159.31867 C 21.278228,144.4228 21.224142,144.375 17.515713,144.375 c -3.93831,0 -5.36618,-1.42191 -5.36618,-5.34375 l 0,-3.09375 12.593457,0 12.593458,0 -0.530231,-2.65943 c -0.291626,-1.4627 0.56001,-9.46514 1.892524,-17.78322 1.332514,-8.31807 2.422754,-18.844619 2.422754,-23.392331 0,-6.718536 0.380178,-8.964766 2.028046,-11.982417 1.49446,-2.736725 2.231147,-6.303775 2.799989,-13.557602 0.424569,-5.414063 0.744836,-10.6875 0.711704,-11.71875 -0.03313,-1.03125 -0.08052,-3.74012 -0.105311,-6.019711 l -0.04507,-4.144711 -1.739318,2.269711 c -1.690174,2.205581 -1.739905,2.213355 -1.760099,0.275128 -0.02941,-2.822867 1.658473,-3.817389 6.747647,-3.975802 3.127116,-0.09734 4.915649,0.348646 6.074766,1.514791 1.568492,1.578 1.878336,1.401592 6.851134,-3.900628 3.18268,-3.393518 5.636191,-5.288126 6.308411,-4.871373 1.798218,1.114833 1.264535,3.306323 -1.462269,6.004584 -3.707311,3.668506 -12.390934,14.359726 -12.390934,15.255639 0,0.419631 0.36624,0.990021 0.813867,1.267535 1.93243,1.198039 1.818354,6.685493 -0.337549,16.237163 L 53.33962,84.84375 58.271068,90 c 2.712297,2.835937 8.023048,8.742187 11.801667,13.125 3.778621,4.38281 9.219269,10.14943 12.09033,12.81471 3.967211,3.68286 4.962147,5.1117 4.145323,5.95314 -0.825388,0.85027 -2.27138,0.75825 -6.231525,-0.3966 -4.723892,-1.37756 -6.143056,-2.5403 -16.907299,-13.85236 -6.462809,-6.79172 -11.909146,-12.168928 -12.102971,-11.949356 -0.674689,0.764297 -8.08181,32.288876 -8.078885,34.383586 0.0016,1.16016 0.577071,2.10938 1.278778,2.10938 0.701709,0 2.345146,0.84375 3.652084,1.875 2.220889,1.75241 3.791387,1.875 24.020791,1.875 20.175895,0 21.611572,-0.11132 21.158652,-1.64063 -1.881216,-6.35202 -1.806263,-6.72291 2.942453,-14.5602 4.289144,-7.07882 4.838024,-8.67592 6.749834,-19.63995 L 104.87133,88.162191 95.403055,70.56547 C 90.195511,60.887274 84.604654,51.170573 82.978932,48.972802 c -3.848981,-5.203339 -2.654739,-6.867865 2.891181,-4.029706 2.117231,1.083506 3.849512,2.509282 3.849512,3.16839 0,0.659108 5.113056,8.548544 11.362335,17.532079 6.24929,8.983535 12.75815,19.406188 14.46415,23.161452 2.44781,5.388158 3.99828,7.461617 7.35362,9.834064 2.70799,1.914729 4.06551,3.493279 3.73875,4.347469 -0.42244,1.10429 -0.26028,1.13072 0.91813,0.14967 0.8782,-0.73112 2.69197,-0.98624 4.69429,-0.66029 2.3973,0.39024 3.26312,0.19046 3.26312,-0.75294 0,-0.70628 -0.84112,-1.55193 -1.86916,-1.87924 C 131.69017,99.221419 131.04887,97.5 132.77172,97.5 c 3.32562,0 4.42454,1.881787 4.42454,7.57657 0,6.61696 -1.80704,9.29843 -6.26621,9.29843 -2.57729,0 -2.69679,0.17809 -2.35916,3.51562 1.49841,14.8121 1.38828,14.36336 3.74573,15.26247 1.24456,0.47464 2.26282,1.29532 2.26282,1.82371 0,0.59712 3.85155,0.9607 10.1771,0.9607 l 10.17709,0 0.66674,-11.13138 c 0.45186,-7.54405 0.33455,-11.754 -0.36402,-13.06337 -0.5669,-1.06259 -1.03074,-2.93003 -1.03074,-4.14987 0,-1.21984 -0.52571,-2.74848 -1.16823,-3.39699 -1.70363,-1.71951 -1.27312,-21.344862 1.07232,-48.88339 1.07593,-12.632813 2.06336,-26.34375 2.1943,-30.46875 0.30341,-9.558988 2.08,-10.166408 5.07571,-1.7354 1.92858,5.427713 2.04789,7.345303 2.04163,32.8125 -0.004,14.876345 -0.0332,28.7354 -0.0655,30.7979 -0.0324,2.0625 0.10349,7.439222 0.302,11.948259 0.39437,8.958671 0.25551,8.796731 7.0764,8.252591 2.51406,-0.20057 5.25358,3.65418 4.76024,6.69807 -0.31213,1.92587 -0.52017,1.77731 -1.89355,-1.35204 -1.94514,-4.43219 -3.24942,-4.52366 -2.74536,-0.19256 0.52023,4.4704 -1.77889,6.98943 -6.37928,6.98943 l -3.45833,0 -0.58094,6.2406 c -0.54361,5.83958 -0.42909,6.38179 1.78217,8.4375 2.25561,2.09697 2.98792,2.19693 16.09999,2.19749 l 13.7369,6e-4 0.0383,-5.85997 c 0.0211,-3.22298 0.23136,-12.92803 0.46729,-21.56676 0.34862,-12.765085 0.60399,-15.043818 1.36353,-12.166951 0.51402,1.946916 1.6378,4.526761 2.49728,5.732981 1.47721,2.07316 1.68033,2.1105 3.71263,0.68258 1.18246,-0.83082 2.95097,-1.51057 3.93004,-1.51057 1.57689,0 1.72799,-0.54416 1.3235,-4.766869 -0.26623,-2.779333 -0.12693,-4.24517 0.33407,-3.515629 0.43487,0.688186 0.79713,3.03367 0.805,5.212185 0.0138,3.837823 0.0958,3.944583 2.63674,3.434813 3.14711,-0.63139 5.17076,1.33988 4.6255,4.50577 -0.36428,2.11507 -0.39509,2.10621 -1.45049,-0.41714 -0.59305,-1.41797 -1.27206,-2.57813 -1.50889,-2.57813 -0.23684,0 -0.21915,3.5997 0.0393,7.99932 0.27926,4.75406 0.0421,9.29948 -0.58448,11.2041 -0.78856,2.39683 -0.78248,3.71441 0.0241,5.22632 1.47584,2.76624 -0.0647,4.24394 -2.85987,2.7433 -1.95953,-1.05198 -2.06299,-1.57339 -1.58091,-7.96747 l 0.51583,-6.84183 -4.07101,-0.3248 -4.07102,-0.32478 -0.57209,4.68979 c -0.31466,2.57939 -0.79558,6.39896 -1.06873,8.48792 -0.44488,3.40225 -0.24495,3.91315 1.91808,4.90178 1.3281,0.60701 2.41472,1.53457 2.41472,2.06125 0,0.61906 6.44282,0.9576 18.2243,0.9576 17.3562,0 18.31925,-0.0952 20.21749,-1.99942 1.82665,-1.83236 1.94061,-2.63187 1.36384,-9.5694 -0.34614,-4.16348 -0.71737,-7.63539 -0.82496,-7.71534 -0.10759,-0.08 -1.94467,-0.36905 -4.0824,-0.64243 -3.79862,-0.48579 -3.90006,-0.42605 -4.47236,2.63412 -0.36698,1.96227 -0.0404,4.44007 0.87478,6.63727 1.30964,3.14421 1.31306,3.65383 0.0331,4.93777 -2.22134,2.22828 -4.06972,-0.33227 -5.30081,-7.34314 -1.14118,-6.49881 -0.34369,-12.01598 3.12613,-21.62693 1.53488,-4.251431 1.91241,-8.035222 2.1514,-21.5625 0.31513,-17.836561 2.01337,-50.051834 2.91583,-55.3125 0.87316,-5.089895 2.78857,-7.5 5.96057,-7.5 5.09572,0 5.37929,1.406532 6.66208,33.045234 0.98179,24.215176 0.96333,29.614089 -0.11544,33.75 -1.36623,5.238001 -2.03715,30.778636 -1.16984,44.532886 l 0.48772,7.73438 16.17847,0 c 15.6733,0 16.25225,-0.0686 18.54157,-2.1969 2.21125,-2.05571 2.32578,-2.59792 1.78217,-8.4375 l -0.58081,-6.2406 -3.13588,0 c -4.5244,0 -7.14797,-2.93546 -6.71298,-7.51103 0.47049,-4.94904 -0.8425,-3.72983 -1.62575,1.50961 -0.4163,2.78474 -0.95593,3.94841 -1.55316,3.34931 -1.19747,-1.20121 -0.0126,-8.17971 1.61953,-9.53849 0.69271,-0.5767 1.81639,-0.97287 2.49704,-0.88039 3.83327,0.52082 6.29563,-0.11534 5.76953,-1.49059 -0.30225,-0.79011 -0.0695,-5.32527 0.51717,-10.078123 0.61938,-5.017696 0.74054,-9.820975 0.28894,-11.454047 -0.42778,-1.546875 -0.49557,-12.726563 -0.15063,-24.84375 l 0.62715,-22.03125 -0.0322,20.801607 c -0.0342,22.144941 0.26413,23.729643 4.46751,23.729643 1.14244,0 2.78796,-0.787865 3.65669,-1.75081 1.48386,-1.644774 1.46433,-3.076677 -0.32244,-23.642676 -1.04608,-12.040526 -1.90197,-25.385474 -1.90197,-29.65544 0,-4.269965 -0.38627,-7.763574 -0.85838,-7.763574 -0.94802,0 -4.4444,10.098217 -5.03128,14.53125 -0.34908,2.636876 -0.37761,2.607607 -0.4568,-0.46875 -0.11505,-4.468555 3.63528,-14.53125 5.41573,-14.53125 1.10464,0 1.44799,1.573922 1.63608,7.5 0.13093,4.125 1.11836,17.835937 2.1943,30.46875 2.34544,27.538528 2.77594,47.16388 1.07232,48.88339 -0.64253,0.64851 -1.16823,2.17715 -1.16823,3.39699 0,1.21984 -0.46384,3.08728 -1.03075,4.14987 -0.69857,1.30937 -0.81587,5.51932 -0.36401,13.06337 l 0.66673,11.13138 30.63785,0 c 26.37152,0 30.71278,-0.19582 31.17582,-1.40625 0.29587,-0.77344 1.41131,-1.40625 2.47878,-1.40625 1.71809,0 1.87732,-0.40349 1.38737,-3.51563 -0.30441,-1.93359 -0.76309,-4.88671 -1.01928,-6.56249 C 353.23742,120.3342 352.85499,120 350.16559,120 c -4.54903,0 -7.17494,-2.27827 -7.17494,-6.22504 0,-2.23853 -0.37725,-3.17387 -1.16823,-2.8964 -0.67543,0.23694 -1.12325,1.85176 -1.06162,3.82813 0.12272,3.93525 -1.18509,4.56846 -2.07656,1.00543 -0.85725,-3.4262 0.88266,-6.59559 3.99216,-7.27208 4.41931,-0.96143 5.18694,-1.85335 4.08878,-4.75073 -0.53393,-1.40875 -0.97723,-4.115935 -0.9851,-6.015966 -0.0205,-4.94607 -1.11078,-6.114029 -5.97187,-6.397338 -4.80572,-0.280081 -4.93056,-0.198518 -18.55376,12.120994 -6.52621,5.90167 -9.16236,7.66022 -13.00893,8.6781 -7.77625,2.05774 -8.53851,0.38577 -1.93711,-4.24901 2.44159,-1.71421 10.95794,-9.701452 18.92523,-17.74942 22.51319,-22.741157 47.62027,-41.74803 50.85502,-38.498886 0.72947,0.73273 -0.16634,1.977511 -3.19147,4.434712 -2.31308,1.878829 -9.02606,8.155406 -14.91773,13.947948 l -10.71212,10.531894 4.77122,5.060635 c 3.95399,4.193823 4.96424,5.993261 5.89806,10.505508 0.76308,3.687225 0.8299,6.098619 0.20698,7.470039 -0.59118,1.30157 -0.61571,5.35969 -0.0686,11.3577 0.46818,5.13289 1.08425,11.96925 1.36906,15.19191 l 0.51783,5.85937 26.51297,0 26.51298,0 2.54882,-2.36954 2.54881,-2.36954 -1.22265,-7.70859 c -0.67247,-4.23972 -1.63827,-8.51432 -2.14624,-9.49911 -0.87289,-1.69228 -0.97435,-1.69953 -1.84883,-0.13204 -0.624,1.1185 -0.58725,2.40264 0.11286,3.94402 1.25267,2.7579 1.27875,3.1348 0.21692,3.1348 -1.64102,0 -3.13657,-5.33693 -2.06068,-7.35356 0.71694,-1.3438 0.72467,-2.65937 0.0265,-4.50159 -0.5426,-1.43161 -0.74492,-3.5686 -0.44961,-4.74888 0.2953,-1.18029 0.1169,-2.14597 -0.39646,-2.14597 -0.51337,0 -1.80609,-1.71595 -2.87269,-3.813225 -1.8097,-3.558356 -2.13889,-3.770344 -4.92555,-3.171731 -1.64243,0.352819 -3.04248,0.697669 -3.11124,0.76635 -0.0688,0.06872 -1.90951,3.702459 -4.09058,8.075086 -3.79237,7.60299 -3.94517,8.23767 -3.49815,14.53125 0.5236,7.37175 -0.93626,14.08102 -3.06387,14.08102 -1.07021,0 -1.64315,-2.63356 -2.6052,-11.97508 l -1.23327,-11.97509 3.90689,-10.370711 3.9069,-10.370708 -1.11192,-14.216705 c -0.61157,-7.819188 -1.48072,-16.67252 -1.93147,-19.674071 -0.6561,-4.368996 -0.49577,-6.332146 0.80401,-9.84375 2.28212,-6.165659 4.29345,-5.831762 4.63749,0.769865 0.23229,4.457309 5.04817,32.276902 6.35599,36.716236 0.25276,0.857992 2.60022,2.332157 5.21656,3.275922 5.13179,1.851152 11.99045,8.544976 11.99045,11.702333 0,0.958659 0.60032,1.743009 1.33404,1.743009 1.88165,0 5.20802,4.52567 5.20802,7.08575 0,1.17996 -1.02943,3.37263 -2.28763,4.87257 -2.15149,2.5649 -2.23603,3.08521 -1.42065,8.74381 0.47682,3.30914 0.87541,8.4424 0.88575,11.40724 l 0.0188,5.39063 11.4486,-0.0116 11.4486,-0.0116 2.01114,-3.11622 2.01114,-3.11622 -3.07882,-12.5869 c -1.69335,-6.92279 -3.38845,-15.90154 -3.7669,-19.952763 -0.6544,-7.005214 -1.09974,-8.106354 -9.09517,-22.488409 C 428.7846,66.336386 424.03247,58.054687 422.8482,56.25 c -2.61561,-3.985872 -3.51078,-11.71875 -1.35658,-11.71875 0.769,0 2.45124,1.950503 3.73832,4.334452 3.18852,5.90582 20.86064,31.713392 21.73364,31.738839 0.38606,0.01125 2.66486,-2.515153 5.06402,-5.614235 3.3501,-4.327459 5.24706,-5.899794 8.17659,-6.777379 2.09797,-0.628477 4.8122,-2.328382 6.03163,-3.777567 1.85957,-2.209945 2.85326,-2.601849 6.16148,-2.430067 2.69801,0.140096 4.98538,-0.440593 7.23897,-1.83774 4.09692,-2.539944 6.50079,-2.58472 8.68667,-0.161805 2.02174,2.24099 1.32515,3.198408 -2.46626,3.389684 -1.53976,0.07768 -3.78098,1.066109 -4.98048,2.196508 -2.47671,2.334014 -3.70193,7.53306 -1.77526,7.53306 1.36289,0 2.59231,2.059437 3.49786,5.859375 0.37171,1.559799 0.22897,2.578125 -0.36138,2.578125 -0.53666,0 -1.22983,-1.274404 -1.54038,-2.832008 -0.71946,-3.60852 -0.99713,-3.752595 -7.76557,-4.029222 -4.07818,-0.166675 -5.64176,0.10171 -5.64176,0.968393 0,0.659435 -2.47553,2.751246 -5.50119,4.648471 -7.81433,4.899942 -9.45208,8.594462 -9.45208,21.322496 0,6.07809 0.70528,13.15388 1.88381,18.89951 l 1.8838,9.18403 -3.00172,3.10667 -3.00171,3.10666 39.20202,-0.0518 39.20202,-0.0519 2.23681,-2.83683 2.23681,-2.83685 -3.45819,-16.09566 c -1.902,-8.85261 -3.67627,-16.84467 -3.94284,-17.760129 -0.50975,-1.750707 -7.07343,-5.310286 -21.83894,-11.843655 -9.73421,-4.307141 -18.95228,-11.449183 -17.13284,-13.274301 0.73399,-0.736288 2.36564,-0.335819 5.85173,1.436236 2.65867,1.351461 10.75242,4.740677 17.98611,7.531592 l 13.15216,5.07439 -0.6098,-3.473676 c -1.33894,-7.627236 -1.70372,-15.913934 -0.77391,-17.580624 0.73122,-1.310695 0.84719,-0.686059 0.47975,2.584045 -0.42364,3.770195 0.33999,10.651458 2.20649,19.883378 0.46165,2.28333 0.69724,2.477029 1.42537,1.171875 1.12725,-2.020591 3.41787,-1.990017 5.77085,0.07702 1.79538,1.577204 1.83954,1.568144 1.14234,-0.234375 -0.39889,-1.03125 -0.94942,-6.621094 -1.22341,-12.421875 -0.274,-5.800782 -0.67744,-10.546876 -0.89654,-10.546876 -0.21911,0 -1.23444,0.448846 -2.2563,0.997435 -1.5705,0.843132 -2.42848,0.425096 -5.54604,-2.702205 -3.10018,-3.109877 -3.68811,-4.315017 -3.68811,-7.559936 0,-4.894571 2.48159,-7.610294 6.95419,-7.610294 1.76873,0 3.50027,-0.461602 3.84787,-1.025784 0.34759,-0.564181 1.60258,-0.839665 2.78885,-0.612186 2.29515,0.440116 4.26937,-1.591958 7.34716,-7.562448 1.85231,-3.593238 3.34286,-3.510388 4.5942,0.25536 0.72282,2.175234 0.55123,2.928916 -0.94715,4.160156 -2.56677,2.10915 -10.0861,13.066958 -11.81511,17.217979 -0.84943,2.039317 -1.08145,3.687388 -0.56426,4.008025 0.4831,0.299506 0.87836,3.817176 0.87836,7.817045 0,3.99987 0.39711,9.564817 0.88248,12.366548 0.48535,2.80173 1.32957,11.42218 1.87603,19.15656 0.54646,7.73438 1.61739,16.99665 2.37984,20.58283 l 1.38627,6.52033 -2.46976,2.58593 -2.46975,2.58592 9.72146,0.3054 c 5.34681,0.16797 -111.95237,0.39438 -260.66484,0.50312 l -270.386315,0.19772 0.292859,3.04687 0.292858,3.04688 270.093458,0.47115 270.09345,0.47116 -244.62617,0.23196 c -198.54699,0.18828 -244.62616,0.45897 -244.62616,1.437 0,0.66277 -8.558186,13.84636 -19.018191,29.29688 l -19.018191,28.09185 263.644362,0.47121 263.64435,0.4712 -272.89719,0.0411 C 130.74766,203.97485 11.308411,203.8414 15.420561,203.65569 Z m 45.639453,-57.64008 c 0.414821,-1.5217 -0.872335,-1.64062 -17.757607,-1.64062 l -18.204845,0 2.638135,3.1535 c 1.450974,1.73442 6.195019,7.1796 10.542322,12.10039 l 7.904189,8.9469 7.215283,-10.45977 c 3.968406,-5.75287 7.416542,-11.19805 7.662523,-12.1004 z M 48.59813,135.42091 c 0,-0.28412 -1.471962,-1.13353 -3.271028,-1.88758 -2.410148,-1.01017 -3.271028,-1.94536 -3.271028,-3.55339 0,-1.20032 1.843501,-9.73762 4.096669,-18.97179 2.253168,-9.23417 4.373924,-18.365519 4.712789,-20.291887 0.776521,-4.414331 -0.670952,-7.278763 -3.678153,-7.278763 -3.17607,0 -5.134744,4.198483 -5.117282,10.969069 0.0078,2.990447 -1.094329,12.483411 -2.448982,21.095471 -1.354651,8.61207 -2.194071,16.73316 -1.865375,18.04688 0.549525,2.19633 1.009928,2.38858 5.720009,2.38858 2.817309,0 5.122381,-0.23246 5.122381,-0.51659 z m 48.127794,-3.25148 c -0.595776,-3.53741 -0.314963,-4.18672 4.587416,-10.60722 3.41958,-4.47851 5.99809,-9.12793 7.47037,-13.47012 l 2.24831,-6.63098 -2.70023,-5.369966 c -1.48513,-2.953481 -2.88771,-4.79395 -3.11685,-4.08993 -0.22914,0.70402 -1.12853,5.498786 -1.99866,10.655036 -1.37137,8.12653 -2.18869,10.37749 -6.137487,16.90283 -2.505486,4.1403 -4.553084,7.93718 -4.550218,8.4375 0.01707,2.97987 2.136143,7.94092 3.391891,7.94092 1.163467,0 1.318187,-0.7238 0.805458,-3.76807 z m 26.961126,-7.65726 c -2.6362,-13.83712 -2.93162,-14.82467 -4.43473,-14.82467 -0.65037,0 -2.59199,-1.75943 -4.31474,-3.90985 l -3.13225,-3.90987 -2.15657,6.41309 c -1.39587,4.15098 -4.00247,8.83062 -7.38972,13.26679 -4.913714,6.43534 -5.194425,7.08371 -4.598537,10.62177 l 0.634636,3.76807 13.784311,0 13.78431,0 -2.17671,-11.42533 z M 133.64486,135 c 0,-0.51563 -0.57935,-0.9375 -1.28744,-0.9375 -2.55607,0 -3.45235,-2.78525 -4.41512,-13.7202 -1.32695,-15.07115 -1.77908,-16.68092 -4.78525,-17.03743 -3.13186,-0.37142 -4.15962,2.44359 -2.24684,6.15408 0.7592,1.47271 2.26944,7.50551 3.35611,13.40623 1.08666,5.90071 2.15621,11.25591 2.37678,11.90044 0.47362,1.38397 7.00176,1.60249 7.00176,0.23438 z m 28.97196,0.22552 c 0,-0.3916 -0.86025,-1.25091 -1.91166,-1.90958 -2.06426,-1.29318 -2.04961,-3.79046 0.11268,-19.21078 1.03465,-7.37863 0.086,-10.33027 -3.1708,-9.86517 -1.77758,0.25384 -1.99546,0.77295 -1.69625,4.04126 0.18882,2.0625 0.28182,9.12891 0.20665,15.70313 l -0.13667,11.95312 3.29803,0 c 1.81391,0 3.29802,-0.32039 3.29802,-0.71198 z M 200,135.15052 c 0,-0.43287 -1.07224,-1.2771 -2.38274,-1.87606 -2.29147,-1.04733 -2.3593,-1.31345 -1.77079,-6.94737 0.33658,-3.22207 0.97798,-7.54581 1.42532,-9.60831 1.31918,-6.08214 0.97674,-11.04216 -0.93459,-13.53668 l -1.75208,-2.28668 -0.53798,6.97418 c -2.11893,27.46878 -2.06034,28.0679 2.74481,28.0679 1.76442,0 3.20805,-0.35416 3.20805,-0.78701 z m 45.46,-6.436 c -0.33477,-3.97265 -1.02732,-7.64296 -1.53901,-8.15625 -0.51169,-0.51328 -0.93034,-1.66772 -0.93034,-2.56541 0,-0.89769 -0.44905,-1.91057 -0.99789,-2.25083 -0.69798,-0.43273 -0.80036,2.08066 -0.34066,8.36285 0.57333,7.8348 0.46208,9.05663 -0.87126,9.56988 -2.67335,1.02906 -1.64853,2.26277 1.87966,2.26277 l 3.40816,0 -0.60866,-7.22301 z m 42.30779,-4.73014 c -0.0751,-6.57422 0.0179,-13.64063 0.20664,-15.70313 0.29922,-3.26831 0.0813,-3.78742 -1.69625,-4.04126 -3.25675,-0.4651 -4.20545,2.48654 -3.17079,9.86517 2.16229,15.42032 2.17693,17.9176 0.11268,19.21078 -2.80192,1.75529 -2.34381,2.62156 1.38636,2.62156 l 3.29802,0 -0.13666,-11.95312 z m 70.6198,4.68749 c -1.01178,-12.92301 -2.33446,-24.82351 -2.85243,-25.66424 -0.99187,-1.60988 -3.25689,-0.78026 -4.332,1.58669 -0.89674,1.9743 -0.79622,2.96003 0.55936,5.48505 1.61933,3.01631 4.62631,21.77742 3.72491,23.24046 -0.25166,0.40847 -1.27387,0.74267 -2.27157,0.74267 -0.9977,0 -1.814,0.42187 -1.814,0.9375 0,0.51562 1.69979,0.9375 3.77729,0.9375 l 3.77729,0 -0.56885,-7.26563 z m 62.692,-2.34374 c -2.01172,-27.691767 -2.04498,-27.89063 -4.66518,-27.89063 -0.67775,0 -1.77417,0.654984 -2.43648,1.455516 -0.98792,1.194074 -0.93789,2.330724 0.27849,6.328124 0.81549,2.67994 2.24017,9.45476 3.16598,15.05517 l 1.68327,10.18256 -2.0762,1.68646 c -2.8515,2.31623 -2.62378,2.79217 1.336,2.79217 l 3.41221,0 -0.69809,-9.60937 z m 31.08816,6.50271 3.00172,-3.10667 -1.8838,-9.18403 c -1.13502,-5.53351 -1.88381,-12.82287 -1.88381,-18.33865 0,-14.719073 -1.32494,-17.75338 -6.31883,-14.471034 -2.25002,1.478878 -2.2982,1.740802 -1.66321,9.042785 0.35965,4.135889 2.05657,13.254149 3.77091,20.262819 3.1048,12.6931 3.11,12.75288 1.32762,15.26382 -2.10941,2.97167 -2.21393,3.63762 -0.57085,3.63762 0.67019,0 2.56931,-1.398 4.22025,-3.10666 z m 83.62998,0.48637 2.50258,-2.6203 -1.3835,-6.52033 c -0.76092,-3.58618 -1.84354,-12.63752 -2.40582,-20.11408 -1.05732,-14.059264 -1.98904,-16.875 -5.5839,-16.875 -1.76003,0 -2.75168,1.78861 -2.7713,4.99855 -0.007,1.117985 1.74302,10.15987 3.88859,20.09308 l 3.90101,18.06036 -2.01943,2.15631 c -2.46299,2.62992 -2.53967,3.4417 -0.32512,3.4417 0.93187,0 2.82047,-1.17913 4.19689,-2.62029 z m -145.3573,-5.11409 c 0.5185,-2.1914 0.72527,-6.66125 0.45948,-9.93299 -0.4568,-5.62327 -0.24214,-6.45286 3.92496,-15.16847 4.64002,-9.704716 4.86838,-12.196897 1.29347,-14.116112 -1.03725,-0.556853 -2.08108,-0.816672 -2.31964,-0.577375 -0.23855,0.239297 -2.10845,4.808634 -4.15534,10.15408 l -3.72161,9.718997 1.11248,11.95313 c 0.61187,6.57421 1.41647,11.95312 1.78799,11.95312 0.37153,0 1.09973,-1.79297 1.61821,-3.98438 z m -180.68028,0.46875 c -0.7987,-1.8194 -0.78869,-2.86763 0.1052,-11.01562 0.57176,-5.21167 0.50365,-5.51618 -0.92683,-4.14412 -2.14982,2.06204 -3.24156,14.75108 -1.37134,15.93884 2.07762,1.31949 2.97435,1.00091 2.19297,-0.7791 z m 22.42147,0.80272 c 0.28394,-0.46085 -0.14575,-2.42725 -0.95488,-4.3698 -1.14901,-2.75856 -1.26561,-4.34405 -0.53257,-7.24104 0.5162,-2.04004 0.71732,-4.28747 0.44693,-4.99431 -0.27039,-0.70683 0.0222,-3.43354 0.65012,-6.05935 0.79488,-3.32377 0.84466,-5.07222 0.16386,-5.75515 -0.6808,-0.68293 -1.28249,0.19455 -1.9805,2.88831 -0.55144,2.12809 -1.46142,5.63881 -2.02217,7.8016 -2.0122,7.76093 1.44406,22.25029 4.22921,17.72974 z M 85.981307,120.97747 c 0,-0.49364 -1.486086,-2.07568 -3.302414,-3.51563 C 80.862565,116.02189 75.722604,110.625 71.256755,105.46875 66.790907,100.3125 60.727375,93.548059 57.782239,90.436657 l -5.354793,-5.657092 2.284959,-10.141141 c 2.042504,-9.065078 2.206597,-13.164034 0.637672,-15.928833 -0.256444,-0.451911 -1.019117,0.497307 -1.69483,2.109375 -1.313617,3.133938 -2.258646,3.495911 -5.118557,1.960549 -1.707011,-0.916418 -1.807719,-0.605814 -1.807719,5.575393 0,5.181805 -0.486884,7.464442 -2.336448,10.953865 -2.655097,5.009154 -3.271557,8.697652 -0.881585,5.274826 1.78586,-2.55764 5.182688,-2.692562 7.348507,-0.291881 1.246112,1.381242 1.481315,2.723605 1.02665,5.859375 l -0.58978,4.067657 11.804343,12.41378 c 9.984033,10.4995 12.478216,12.62182 16.174272,13.76283 5.297989,1.63555 6.706377,1.7578 6.706377,0.58211 z M 352.8229,115.55402 c -0.36089,-1.92968 -0.86569,-3.8486 -1.12179,-4.26428 -0.97472,-1.58206 -3.10298,1.57729 -3.10298,4.6063 0,2.78854 0.29127,3.16646 2.44045,3.16646 2.31304,0 2.4062,-0.18319 1.78432,-3.50848 z m -187.43546,-0.007 c -0.0182,-1.41797 -0.61476,-3.6324 -1.32566,-4.92095 l -1.29253,-2.34282 -0.48679,2.34282 c -1.4448,6.95336 -1.37703,7.49907 0.93125,7.49907 1.79245,0 2.20063,-0.48412 2.17373,-2.57812 z m 117.13653,0 c -1.08678,-7.10415 -1.12507,-7.16963 -3.12885,-5.35056 -1.11741,1.0144 -1.82503,2.87268 -1.82503,4.79273 0,2.82562 0.26463,3.13595 2.67414,3.13595 2.38979,0 2.63221,-0.27412 2.27974,-2.57812 z m -36.74389,-7.57813 c 0.0103,-3.58804 -0.31559,-4.88969 -1.15392,-4.60937 -1.118,0.37383 -1.82441,9.50167 -0.87838,11.35008 0.89073,1.74037 2.01873,-2.00098 2.0323,-6.74071 z M 204.67289,111.75 c 0,-3.01492 -1.49769,-4.875 -3.92523,-4.875 -1.33956,0 -1.68224,0.76388 -1.68224,3.75 0,3.54167 0.15576,3.75 2.80374,3.75 2.44771,0 2.80373,-0.33334 2.80373,-2.625 z m -72.31863,-1.27002 C 131.65231,106.95922 130.1961,105 128.28123,105 c -0.99207,0 -1.23325,0.61081 -0.8329,2.10938 0.30994,1.16015 0.56928,3.05859 0.57629,4.21875 0.01,1.64853 0.54873,2.10937 2.46603,2.10937 2.25415,0 2.40541,-0.24006 1.86361,-2.95752 z m 175.72136,0.71448 c 3.93951,-1.05224 6.63193,-2.92718 14.95327,-10.41315 5.58177,-5.021422 11.94499,-9.912157 14.14049,-10.868303 2.19549,-0.956145 4.22555,-2.349445 4.51122,-3.09622 0.69994,-1.829711 -1.07699,-4.96461 -3.57384,-6.30506 -1.87964,-1.009099 -3.05332,-0.04383 -15.16549,12.472674 -7.22051,7.461529 -14.70242,14.588579 -16.62648,15.837879 -1.92406,1.24931 -3.50116,2.58788 -3.50467,2.9746 -0.007,0.87167 -0.43749,0.92083 5.2655,-0.60242 z m -189.01804,-3.77745 c -0.28046,-0.73315 -0.0195,-2.25208 0.57975,-3.37542 0.83389,-1.56303 1.72824,-1.94841 3.81028,-1.64188 3.61595,0.53237 3.36586,-0.13535 -1.30845,-3.49346 -2.93085,-2.105578 -4.92009,-4.815459 -7.91413,-10.78125 -3.77101,-7.513929 -4.14004,-7.956666 -2.64994,-3.179234 0.76277,2.445503 -1.4626,4.536542 -4.09347,3.8464 -1.03078,-0.270396 -1.87414,-0.399143 -1.87414,-0.286104 0,1.388403 5.75038,11.456338 8.72699,15.279498 3.74507,4.81014 5.76942,6.36659 4.72311,3.63145 z m 43.69603,-12.639791 c -0.70214,-6.003814 -0.75184,-10.243258 -0.14943,-12.745969 1.3223,-5.493568 1.1524,-5.974058 -0.9117,-2.578125 -2.16734,3.565815 -2.70348,3.672601 -5.87493,1.170143 l -2.37844,-1.876731 -0.6681,8.045557 c -0.92917,11.189312 0.62388,20.861636 2.78614,17.352086 1.01715,-1.65092 4.14741,-1.16806 5.39246,0.83183 2.21463,3.55725 2.93588,-0.52033 1.804,-10.198791 z M 285.97915,103.125 c 0.96855,0 2.04357,0.45863 2.38893,1.01918 2.16782,3.51857 3.7148,-6.168811 2.78095,-17.414646 -0.63227,-7.614011 -0.77202,-8.018503 -2.29317,-6.637576 -2.05721,1.86757 -5.10512,1.886707 -6.63162,0.04163 -1.686,-2.037856 -1.96053,-1.274832 -0.87376,2.428499 0.64955,2.213433 0.61743,5.800064 -0.1028,11.48022 -0.57612,4.543584 -0.77496,9.350343 -0.44185,10.681673 l 0.60564,2.42062 1.40333,-2.00981 c 0.77183,-1.10538 2.19578,-2.00979 3.16435,-2.00979 z m 67.69027,-1.875 c 0.74825,0 1.62037,0.42188 1.93805,0.9375 0.31768,0.51563 1.02109,0.9375 1.56314,0.9375 1.21204,0 0.20301,-7.643756 -1.54694,-11.71875 -0.66429,-1.546875 -3.25278,-4.79715 -5.75219,-7.222833 -3.55514,-3.450272 -5.45988,-4.549817 -8.74999,-5.051098 l -4.20561,-0.640765 2.51485,2.028679 c 3.69555,2.981123 4.15298,5.43364 1.54533,8.285486 l -2.19102,2.396201 2.51441,-0.604803 c 3.19563,-0.768657 5.42952,2.099698 5.42952,6.971583 0,1.870828 0.47136,4.7579 1.04747,6.41571 l 1.04749,3.01419 1.74252,-2.8743 c 0.95839,-1.58087 2.35472,-2.8743 3.10297,-2.8743 z m 68.51571,-0.64732 c -1.99765,-2.003902 -2.52983,-1.468749 -1.88555,1.8961 0.4636,2.4212 0.63858,2.5244 1.9869,1.17187 1.34833,-1.35254 1.3394,-1.62272 -0.10135,-3.06797 z m -177.93541,2.04659 c 1.50053,-0.63652 1.64252,-1.4053 1.08552,-5.877323 -0.45489,-3.652174 -0.16719,-6.976864 0.99157,-11.458435 1.8868,-7.297414 1.5696,-8.722267 -2.40021,-10.781549 -3.2211,-1.670903 -5.20744,-1.324741 -8.83838,1.540286 -2.28328,1.801644 -2.40877,2.290901 -1.85378,7.226986 0.32741,2.911983 0.15454,7.68167 -0.38417,10.599303 -1.41503,7.663752 -0.25648,9.728442 5.38067,9.589112 2.36083,-0.0583 5.06928,-0.43562 6.01878,-0.83838 z M 416.42297,97.5 c 4.54722,0 -3.12091,-9.189246 -9.62632,-11.535867 -3.98234,-1.436504 -5.30545,-1.520663 -9.04743,-0.575475 l -4.38295,1.107089 2.82449,1.723046 c 1.55347,0.947676 3.09722,2.813068 3.43055,4.145318 0.52426,2.095352 0.96538,2.343105 3.26838,1.835702 2.30286,-0.507376 2.91099,-0.165947 4.5038,2.528681 3.27851,5.546366 3.75094,5.801786 5.82911,3.151575 C 414.24908,98.571028 415.68925,97.5 416.42297,97.5 Z m 108.42356,-7.869687 c -0.54195,-2.897875 -1.16568,-3.480007 -5.48601,-5.120111 -16.3385,-6.202495 -22.46467,-8.693816 -26.81142,-10.903362 -2.68647,-1.365596 -5.11553,-2.251149 -5.3979,-1.967897 -1.46718,1.471766 8.70028,8.395274 19.39085,13.204152 6.42523,2.890227 13.1542,6.038467 14.95327,6.996089 1.79906,0.957622 3.42665,1.588043 3.61686,1.400937 0.1902,-0.187106 0.0707,-1.81152 -0.26565,-3.609808 z m -63.6865,-9.844465 5.26614,-3.1829 -2.04185,-2.180242 c -1.70573,-1.821341 -1.8435,-2.419983 -0.83692,-3.636629 0.66271,-0.801014 0.93743,-1.724723 0.61049,-2.052688 -1.16545,-1.169087 -7.90309,1.632593 -9.38606,3.902954 -0.83008,1.270821 -3.29472,4.336784 -5.47699,6.813252 -2.18226,2.476468 -4.72804,5.547003 -5.6573,6.823411 -1.05147,1.444301 -0.93843,0.999504 0.29934,-1.177784 1.12872,-1.98547 1.68095,-4.012739 1.27687,-4.6875 C 444.82214,79.753788 440.43624,73.3125 435.46729,66.09375 430.49835,58.875 425.52364,51.175781 424.41239,48.984375 423.30112,46.792969 421.97493,45 421.46528,45 c -1.54846,0 0.0711,7.701743 2.36575,11.25 1.16708,1.804687 5.78702,9.907359 10.26654,18.005938 l 8.14458,14.724689 2.5986,-1.92723 c 2.12235,-1.574025 2.9617,-1.732294 4.57985,-0.863579 1.08969,0.585009 2.00084,1.998027 2.02478,3.140042 0.033,1.573117 0.57735,1.053853 2.24601,-2.14236 1.59259,-3.050528 3.66075,-5.100133 7.46864,-7.401652 z M 110.60617,87.417165 C 112.02444,85.115172 108.05543,77.082769 99.161709,64.256139 93.817466,56.548614 89.263672,49.547242 89.042161,48.697533 c -0.422288,-1.619882 -6.656662,-5.090487 -7.544459,-4.199916 -0.282631,0.283514 0.808323,2.305502 2.424343,4.493306 1.61602,2.187805 7.022291,11.571577 12.013935,20.852827 4.99164,9.28125 9.52519,17.184946 10.07454,17.563769 1.30844,0.902277 4.04215,0.908015 4.59565,0.0096 z m 289.53878,-3.844058 c 0.33674,-0.332397 -0.81886,-7.98717 -2.568,-17.010607 -1.74913,-9.023438 -3.18119,-18.621094 -3.18234,-21.328125 -9.3e-4,-2.707031 -0.38885,-4.921875 -0.86156,-4.921875 -1.05262,0 -4.14085,9.022614 -3.46416,10.12094 0.36103,0.585989 3.38905,31.439058 3.38905,34.531704 0,0.634098 5.87296,-0.588479 6.68701,-1.392037 z m -238.86266,-4.95372 c 1.28955,-2.501525 1.49987,-6.404935 1.40168,-26.015625 -0.10294,-20.562142 -0.32454,-23.710033 -2.03669,-28.931887 -1.05665,-3.222656 -2.30744,-5.859375 -2.77955,-5.859375 -0.47212,0 -0.85839,3.498306 -0.85839,7.774013 0,4.275706 -0.83664,17.389965 -1.8592,29.142795 -1.91508,22.01097 -1.80053,23.818029 1.63702,25.827033 2.44667,1.429902 2.84881,1.256619 4.49513,-1.936954 z M 357.8965,69.086991 c 5.9373,-5.830281 12.45391,-11.935807 14.48135,-13.567836 2.02745,-1.632029 3.4538,-3.200528 3.16966,-3.485551 -1.36816,-1.372437 -10.50969,4.222755 -21.22268,12.989618 -6.52105,5.336427 -12.7994,10.291629 -13.95188,11.011561 -2.04571,1.277908 -2.00071,1.33459 1.89664,2.388803 2.19565,0.59391 4.18103,1.121254 4.41196,1.171875 0.23092,0.05062 5.27765,-4.678191 11.21495,-10.50847 z m -117.68147,-16.890168 0.49542,-19.853073 0.20552,19.829273 0.20552,19.829272 3.27103,1.935985 3.27103,1.935985 0.003,-4.890257 c 0.006,-12.224837 -2.03703,-49.166843 -2.82456,-51.062133 -0.63172,-1.520309 -1.65588,-2.109375 -3.66738,-2.109375 -4.73327,0 -5.25773,2.244907 -6.57064,28.125 -0.51008,10.054687 -1.18922,21.146444 -1.5092,24.648347 l -0.5818,6.367097 3.60342,-2.451524 3.60343,-2.451523 0.49541,-19.853074 z m 245.99992,10.309126 c 2.80602,-0.0065 3.17101,-0.59065 1.44859,-2.318449 -1.91763,-1.923633 -4.19166,-1.281346 -12.61308,3.5625 -4.48228,2.578125 -8.3815,4.6875 -8.66494,4.6875 -0.28344,0 -1.06122,0.876808 -1.72839,1.948463 -0.91354,1.467378 -0.9503,2.266044 -0.14888,3.234709 0.8714,1.053251 2.70101,0.163609 10.10038,-4.911264 5.719,-3.922384 9.97971,-6.199694 11.60632,-6.203459 z m -16.97911,3.547875 c 2.60716,-1.352427 2.98152,-3.241324 0.6424,-3.241324 -1.26139,0 -4.45769,2.793054 -4.45769,3.895301 0,1.108206 0.62461,1.001142 3.81529,-0.653977 z m 59.46622,-1.17916 c 0.62259,-0.396893 1.80709,-2.342443 2.63222,-4.323445 1.73466,-4.164581 11.24721,-18.070657 12.6918,-18.55369 1.07145,-0.358271 0.14977,-5.435029 -0.98673,-5.435029 -0.3758,0 -1.13143,0.986719 -1.67921,2.192708 -0.54777,1.205989 -4.40033,6.939507 -8.56122,12.741149 -7.27515,10.143904 -8.30144,12.140186 -6.94223,13.503643 0.79685,0.799339 1.43926,0.771042 2.84537,-0.125336 z M 52.918925,60.125385 C 53.427556,57.574283 62.18832,45.956547 66.94208,41.52914 c 2.047575,-1.907006 3.034178,-4.96664 1.601531,-4.96664 -1.177261,0 -20.721266,20.521221 -21.30695,22.372314 -0.395844,1.251091 -0.03865,2.185125 1.086861,2.842097 2.781261,1.623444 4.032075,1.173918 4.595403,-1.651526 z M 526.2391,54.244063 C 525.05819,53.284828 523.29745,52.5 522.32637,52.5 c -1.4392,0 -1.76563,0.69889 -1.76563,3.78021 0,3.060301 0.40046,3.931201 2.1028,4.573057 1.74602,0.658322 2.4099,0.312848 3.91274,-2.036147 l 1.80994,-2.828994 -2.14712,-1.744063 z M 53.916936,48.917842 c -1.999265,-0.386226 -4.384226,1.4046 -4.384226,3.292038 0,1.015962 0.757952,0.8139 3.027254,-0.807034 2.455324,-1.753809 2.711692,-2.223293 1.356972,-2.485003 z M 533.12823,48.669928 c -0.30091,-0.488407 -0.94547,-0.641043 -1.43236,-0.339191 -0.48689,0.301852 -0.63905,0.948428 -0.33813,1.436835 0.30091,0.488407 0.94547,0.641043 1.43235,0.339191 0.48689,-0.301852 0.63905,-0.948428 0.33814,-1.436835 z m -340.44655,7.283661 c -0.33415,-37.700992 -0.16515,-39.162269 4.36239,-37.720791 3.95493,1.259167 4.86417,5.081113 5.77615,24.279717 0.47155,9.926877 1.27538,21.824901 1.7863,26.440051 0.5805,5.243632 0.61041,10.852793 0.0797,14.953684 l -0.84919,6.5625 0.45488,-8.057548 c 0.3695,-6.545118 0.18152,-8.285132 -1.00149,-9.270011 -1.20886,-1.006396 -1.76585,-0.931517 -3.27728,0.440576 -1.05822,0.960668 -2.61666,1.444293 -3.72079,1.154655 -1.77525,-0.465691 -1.9042,-0.05827 -1.96558,6.210722 -0.0361,3.690008 -0.35154,7.419471 -0.70093,8.287695 -0.34939,0.868223 -0.77428,-14.108339 -0.94422,-33.28125 z m 7.30215,16.722205 c 0.90573,-1.09475 0.9087,-5.547509 0.0141,-21.149354 -0.62325,-10.869457 -0.87775,-20.018877 -0.56556,-20.332044 0.3122,-0.313168 0.56647,0.661073 0.56506,2.164979 -0.008,9.32412 2.20917,37.579966 3.01103,38.359375 0.66189,0.643358 0.76432,-1.121498 0.32646,-5.625 -0.35093,-3.609375 -1.01052,-14.399865 -1.46576,-23.978867 -0.46355,-9.753787 -1.3248,-18.510772 -1.95756,-19.903854 -1.331,-2.930352 -4.42766,-4.23073 -5.6902,-2.389478 -1.02012,1.487715 -0.53028,51.40655 0.52119,53.113179 0.95935,1.557127 3.85718,1.413965 5.24124,-0.258936 z m 11.23112,-58.259336 c 0,-3.745741 -0.19015,-4.175239 -1.40187,-3.166458 -0.77103,0.641896 -1.40187,0.758938 -1.40187,0.260092 0,-0.994586 3.04217,-4.010092 4.04555,-4.010092 0.34504,0 0.62735,2.53125 0.62735,5.625 0,3.125 -0.41537,5.625 -0.93458,5.625 -0.51402,0 -0.93458,-1.950094 -0.93458,-4.333542 z m 5.83296,3.161667 c -0.51588,-0.644531 -0.88279,-2.813781 -0.81536,-4.820553 0.23982,-7.1379408 6.54741,-7.1379408 6.78723,0 0.13699,4.077281 -0.94759,5.992428 -3.39362,5.992428 -0.90215,0 -2.06237,-0.527344 -2.57825,-1.171875 z m 4.44741,-2.109375 c 0,-0.78125 -0.83073,-1.40625 -1.86916,-1.40625 -1.03842,0 -1.86915,0.625 -1.86915,1.40625 0,0.78125 0.83073,1.40625 1.86915,1.40625 1.03843,0 1.86916,-0.625 1.86916,-1.40625 z m 0,-4.6875 c 0,-0.78125 -0.83073,-1.40625 -1.86916,-1.40625 -1.03842,0 -1.86915,0.625 -1.86915,1.40625 0,0.78125 0.83073,1.40625 1.86915,1.40625 1.03843,0 1.86916,-0.625 1.86916,-1.40625 z m 3.79245,6.627926 c -1.59061,-1.92256 -0.85327,-8.1045184 1.1141,-9.3406839 2.53807,-1.5947656 4.85498,0.4161866 5.20049,4.5137559 0.32285,3.828946 -1.02898,6.167752 -3.56498,6.167752 -0.90216,0 -2.13949,-0.60337 -2.74961,-1.340824 z m 4.15148,-4.362301 c 0,-2.222223 -0.4293,-3.203125 -1.40187,-3.203125 -1.49629,0 -2.37222,3.426488 -1.47529,5.771141 0.94794,2.478017 2.87716,0.756091 2.87716,-2.568016 z m 4.57008,-1.258837 c -0.85028,-2.2227105 0.35281,-4.4674996 2.2028,-4.1101113 1.0346,0.1998685 1.63833,1.1707265 1.63833,2.6345733 0,2.672463 -2.94979,3.805599 -3.84113,1.475538 z m 2.12364,-2.647413 c -0.25926,-0.6445312 -0.47139,-0.1171875 -0.47139,1.171875 0,1.289063 0.21213,1.816406 0.47139,1.171875 0.25926,-0.644531 0.25926,-1.6992187 0,-2.34375 z"
       id="path3434"
       inkscape:connector-curvature="0" />
  </g>
</svg>
