<?xml version="1.0" encoding="UTF-8" standalone="no"?>
<!-- Created with Inkscape (http://www.inkscape.org/) -->

<svg
   xmlns:dc="http://purl.org/dc/elements/1.1/"
   xmlns:cc="http://creativecommons.org/ns#"
   xmlns:rdf="http://www.w3.org/1999/02/22-rdf-syntax-ns#"
   xmlns:svg="http://www.w3.org/2000/svg"
   xmlns="http://www.w3.org/2000/svg"
   xmlns:sodipodi="http://sodipodi.sourceforge.net/DTD/sodipodi-0.dtd"
   xmlns:inkscape="http://www.inkscape.org/namespaces/inkscape"
   id="svg3394"
   version="1.1"
   inkscape:version="0.91 r13725"
   width="547.66357"
   height="210.9375"
   viewBox="0 0 547.66357 210.9375"
   sodipodi:docname="bb540904.svg">
  <metadata
     id="metadata3400">
    <rdf:RDF>
      <cc:Work
         rdf:about="">
        <dc:format>image/svg+xml</dc:format>
        <dc:type
           rdf:resource="http://purl.org/dc/dcmitype/StillImage" />
        <dc:title></dc:title>
      </cc:Work>
    </rdf:RDF>
  </metadata>
  <defs
     id="defs3398" />
  <sodipodi:namedview
     pagecolor="#ffffff"
     bordercolor="#666666"
     borderopacity="1"
     objecttolerance="10"
     gridtolerance="10"
     guidetolerance="10"
     inkscape:pageopacity="0"
     inkscape:pageshadow="2"
     inkscape:window-width="640"
     inkscape:window-height="480"
     id="namedview3396"
     showgrid="false"
     inkscape:zoom="2.2824231"
     inkscape:cx="273.83179"
     inkscape:cy="105.46875"
     inkscape:window-x="0"
     inkscape:window-y="0"
     inkscape:window-maximized="0"
     inkscape:current-layer="svg3394" />
  <g
     id="g3404">
    <path
       style="fill:#fefefe"
       d="m 18.380063,135.3125 c -0.342679,-0.34375 -0.623053,-1.82031 -0.623053,-3.28125 l 0,-2.65625 257.00935,0 257.00936,0 0,3.28125 0,3.28125 -256.3863,0 c -141.01247,0 -256.666678,-0.28125 -257.009357,-0.625 z m 61.059192,-8.06018 c -1.285047,-0.58205 -2.469865,-1.14437 -2.632928,-1.24958 -0.893173,-0.57631 5.187348,-10.49194 9.07395,-14.79707 4.829928,-5.35004 6.512464,-10.71216 5.217337,-16.627258 -1.053418,-4.811169 4.125417,-8.561806 7.009193,-5.076217 0.905841,1.094888 0.736075,3.134444 -0.828215,9.949727 -1.93914,8.448398 -2.071944,8.687798 -9.172263,16.533098 -6.812115,7.52685 -7.107446,8.03184 -5.420779,9.26902 0.98112,0.71965 2.124033,1.30846 2.539808,1.30846 0.415774,0 0.755953,0.42187 0.755953,0.9375 0,1.22685 -3.586386,1.09107 -6.542056,-0.24768 z M 116.26542,127.011 c -2.84492,-1.25219 -2.90329,-1.41247 -3.47944,-9.55478 -0.82508,-11.66013 -1.79925,-13.94058 -7.10794,-16.6391 -5.957943,-3.028558 -7.17742,-4.609183 -5.835476,-7.563633 1.389766,-3.05974 2.337506,-2.934928 7.700396,1.014097 8.64939,6.369076 9.27947,7.643386 9.27947,18.767216 l 0,9.76594 3.87855,2.81838 3.87854,2.81838 -2.71032,-0.0765 c -1.49067,-0.0421 -4.01237,-0.64958 -5.60378,-1.35003 z m 47.91699,-1.72278 -2.39459,-3.14928 3.86698,-7.39759 c 2.12684,-4.06868 4.17428,-9.0851 4.54986,-11.1476 2.35182,-12.914906 3.14444,-16.40625 3.72464,-16.40625 0.35884,0 1.5266,1.486242 2.59504,3.302761 1.81526,3.086261 1.8621,3.685439 0.71444,9.14063 -1.2997,6.177949 -3.2307,10.600269 -6.64267,15.212859 -4.05469,5.48149 -4.42906,6.75949 -2.86746,9.78873 1.75622,3.40677 1.7708,3.80502 0.13929,3.80502 -0.71002,0 -2.36851,-1.41717 -3.68553,-3.14928 z m 199.39185,2.44616 c 0.0125,-0.38672 0.44295,-2.5305 0.95641,-4.76393 0.67756,-2.94726 0.55672,-6.93201 -0.44069,-14.53125 -0.75584,-5.75875 -1.50164,-14.056388 -1.65734,-18.4392 -0.26985,-7.596036 -0.187,-7.982466 1.7715,-8.261992 1.13002,-0.161282 2.93669,0.180314 4.01479,0.759104 1.91876,1.030096 1.94772,1.43272 1.36982,19.043238 -0.60949,18.57337 -2.06726,26.89715 -4.71058,26.89715 -0.72972,0 -1.31648,-0.31641 -1.30391,-0.70312 z m 49.42827,-2.94354 2.8792,-3.64665 -3.30188,-9.15014 -3.3019,-9.15013 2.34488,-7.932189 c 1.28969,-4.362698 3.11591,-9.256486 4.05828,-10.87508 2.196,-3.771817 5.62656,-3.985352 7.59209,-0.472569 1.31928,2.357804 1.15984,2.856887 -3.5001,10.956393 l -4.88234,8.486065 2.41864,9.57127 2.41863,9.57127 -3.038,3.14421 c -1.67089,1.72932 -3.83195,3.14421 -4.80235,3.14421 -1.53835,0 -1.39554,-0.46712 1.11485,-3.64666 z M 471.02805,127.5 c 0,-0.51563 1.0646,-0.9375 2.36578,-0.9375 1.3474,0 2.62349,-0.67365 2.96444,-1.56495 0.32926,-0.86072 -0.52452,-6.14725 -1.8973,-11.74785 l -2.49595,-10.18291 2.90402,-5.830265 c 4.54685,-9.128492 7.95025,-11.908446 10.92537,-8.924025 1.98901,1.995229 1.21723,4.273819 -3.61816,10.682222 -3.30336,4.377988 -4.59814,6.878888 -4.27267,8.252778 0.25683,1.08419 0.74148,4.08063 1.07699,6.65875 0.33551,2.57813 1.02235,6.03793 1.52632,7.68847 1.44303,4.72612 -0.19828,6.84278 -5.30611,6.84278 -2.295,0 -4.17273,-0.42188 -4.17273,-0.9375 z m 44.84639,-1.90752 c -0.64613,-1.56476 -7.6298,-9.09913 -15.51926,-16.74304 -14.0935,-13.654837 -14.31203,-13.927462 -12.49,-15.581523 1.01995,-0.925935 1.85446,-2.310341 1.85446,-3.076459 0,-0.766116 1.76874,0.670363 3.93053,3.192176 2.16179,2.52181 8.55218,9.331316 14.20087,15.132226 10.20416,10.47915 10.27102,10.57731 10.37631,15.23437 0.12094,5.34925 -0.65419,5.95614 -2.35291,1.84225 z M 357.30072,118.9836 c 0.75068,-2.87961 -2.21796,-8.95892 -7.74406,-15.8586 -7.31893,-9.138131 -7.67485,-10.3125 -3.12546,-10.3125 2.50122,0 3.42055,1.328925 10.74067,15.52612 4.24862,8.24009 4.75471,9.7677 3.67026,11.07846 -1.85904,2.24702 -4.16656,1.96457 -3.54141,-0.43348 z M 242.27881,103.91092 c -2.35641,-2.36377 -1.14267,-9.22342 1.63198,-9.22342 2.56556,0 3.90162,2.337609 3.57943,6.2627 -0.22588,2.75181 -0.72931,3.64364 -2.17402,3.85135 -1.03404,0.14867 -2.40086,-0.25211 -3.03739,-0.89063 z m -54.74109,-1.26161 c -2.48511,-0.68504 -4.74521,-1.47307 -5.02245,-1.75119 -0.95702,-0.960011 -3.13162,-11.924403 -2.55169,-12.865681 1.2809,-2.079035 2.76666,0.05468 3.66671,5.26582 0.90149,5.219566 1.1134,5.537885 4.22018,6.339391 3.48851,0.89998 5.60748,2.26117 5.60748,3.60214 0,0.9997 -0.23755,0.97601 -5.92023,-0.59048 z m 10.6378,-0.88286 c -2.49349,-2.662481 -2.0608,-4.749816 1.30329,-6.287391 1.79551,-0.82065 2.66529,-0.792253 3.76455,0.122897 2.66809,2.221238 1.29236,8.460544 -1.86549,8.460544 -0.57862,0 -2.01968,-1.03322 -3.20235,-2.29605 z m 258.59839,-6.672741 c -2.88669,-1.507341 -9.33721,-3.199679 -18.43011,-4.835256 -12.77637,-2.298141 -13.86994,-2.648298 -12.61502,-4.039306 0.75572,-0.837669 1.37404,-2.484172 1.37404,-3.658893 0,-1.655884 0.36753,-1.990312 1.63551,-1.488184 0.89954,0.356221 7.94393,2.782591 15.65421,5.391933 8.91004,3.015369 14.95528,5.612946 16.58878,7.128026 4.78017,4.433618 2.77682,5.14864 -4.20741,1.50168 z M 118.52447,93.046875 c -3.5773,-3.753934 -5.4647,-6.844617 -5.40118,-8.844618 0.0215,-0.678428 0.80158,0.202093 1.73341,1.956716 0.93183,1.754623 3.29872,4.285873 5.25974,5.625 3.78532,2.58488 5.18469,4.778527 3.04831,4.778527 -0.70954,0 -2.79767,-1.582031 -4.64028,-3.515625 z m 217.7408,0.424118 c 1.64289,-1.700328 3.02323,-3.915172 3.06741,-4.921875 0.056,-1.274853 0.32148,-1.023834 0.8749,0.827083 1.33093,4.451274 -0.41329,7.145377 -4.64324,7.171946 -2.28167,0.01434 -2.28029,0.0084 0.70093,-3.077154 z M 123.07876,91.645117 c -4.66026,-1.65306 -5.69302,-2.467171 -7.31874,-5.769259 -1.04105,-2.114534 -2.97084,-4.752761 -4.28842,-5.862726 C 108.79713,77.760092 109.09124,75 112.00577,75 c 2.2536,0 3.20363,1.228802 5.30354,6.859807 1.48739,3.98844 2.32164,4.838867 7.14068,7.27912 3.00111,1.519686 5.45656,3.178866 5.45656,3.687068 0,1.182249 -0.32345,1.126308 -6.82779,-1.180877 z m 76.2988,-0.0045 c -0.40303,-0.644531 -0.6226,-1.845572 -0.48795,-2.66898 0.13466,-0.823407 -0.36949,-2.008539 -1.12032,-2.633625 -1.08947,-0.907004 -2.12697,-0.746663 -5.13747,0.793979 -4.05987,2.077667 -5.71593,2.403208 -5.71593,1.123618 0,-0.73833 10.28517,-6.693117 11.56043,-6.693117 1.23782,0 4.38419,7.718693 3.84327,9.428317 -0.66008,2.086205 -1.87595,2.354754 -2.94203,0.649808 z m 34.50095,-0.810982 c -3.57076,-2.293925 -3.69901,-3.331838 -1.06275,-8.601366 3.46437,-6.924835 7.60701,-10.145691 8.8546,-6.884354 0.38659,1.010576 1.37668,1.091764 4.68427,0.384117 6.46417,-1.382982 7.16923,-0.766208 6.39772,5.59671 -0.74186,6.118527 -2.80893,10.915525 -4.30415,9.98854 -0.96168,-0.596206 -0.64511,-5.777999 0.67543,-11.055918 0.52528,-2.099377 0.27058,-2.269819 -3.95399,-2.646042 -6.06569,-0.540185 -6.58611,-0.262596 -9.19681,4.905466 -2.19633,4.347795 -2.20795,4.483503 -0.42393,4.951491 1.22787,0.322101 1.83429,1.285025 1.83429,2.912694 0,2.897751 0.25651,2.864913 -3.50468,0.448662 z m 64.78676,-2.795237 c -12.86997,-1.857119 -14.95954,-2.715988 -12.53209,-5.151024 1.31529,-1.319405 1.91346,-1.33189 5.56742,-0.116203 2.25159,0.749112 8.82511,1.895525 14.60782,2.547583 5.78271,0.652059 10.51402,1.53627 10.51402,1.964915 0,1.00409 -3.2484,2.753473 -4.8451,2.609263 -0.67632,-0.06108 -6.66675,-0.895624 -13.31207,-1.854534 z m -22.96433,-1.362212 c 0,-1.135125 2.76766,-5.787569 4.10548,-6.901334 2.27567,-1.894544 3.18237,3.161089 1.00063,5.579417 -1.49662,1.658915 -5.10611,2.593373 -5.10611,1.321917 z M 156.64943,71.25 c -9.18296,-6.703125 -17.06424,-12.1875 -17.51398,-12.1875 -0.44973,0 -0.81769,-0.421875 -0.81769,-0.9375 0,-1.440641 4.41922,-1.112776 7.75669,0.575475 1.64504,0.832135 9.82509,5.315786 18.17789,9.963668 15.93083,8.86464 17.36677,10.322938 13.10981,13.313947 -1.14241,0.802675 -2.51346,1.45941 -3.04678,1.45941 -0.53332,0 -8.48299,-5.484375 -17.66594,-12.1875 z m 209.81659,6.464039 c -1.2029,-0.977096 -2.83653,-1.776539 -3.63028,-1.776539 -1.25882,0 -1.24384,-0.220958 0.11725,-1.729651 0.85825,-0.951308 5.67949,-9.25646 10.71387,-18.455892 5.0344,-9.199432 9.71594,-16.914326 10.40344,-17.14421 2.7855,-0.931401 -0.0547,9.23082 -6.50666,23.281337 -3.57076,7.776011 -7.03639,14.917443 -7.70141,15.869848 -1.17404,1.681418 -1.27255,1.680115 -3.39621,-0.0449 z m -248.46512,-2.401992 -2.09257,-1.464605 2.23998,-1.767471 c 2.54906,-2.011355 4.50682,-2.214265 7.23463,-0.749823 1.88521,1.012087 1.88399,1.030015 -0.22435,3.28125 -2.43436,2.599354 -4.19821,2.772014 -7.15769,0.700649 z m 279.7302,-0.0048 c -0.61818,-1.615996 3.9416,-7.067332 8.9387,-10.686443 2.42506,-1.756331 2.47164,-1.755981 2.93517,0.02207 0.3449,1.323039 -0.51986,2.495545 -3.23014,4.379641 -2.03563,1.415099 -4.31352,3.760813 -5.06198,5.212698 -1.54736,3.001608 -2.71043,3.349723 -3.58175,1.07203 z M 278.81465,72.051862 c 0.30521,-1.730086 1.03434,-5.993268 1.62028,-9.473737 0.69495,-4.127895 1.50025,-6.328125 2.31615,-6.328125 2.29107,0 2.45358,1.869432 0.82131,9.447681 -1.17397,5.450431 -2.12675,7.789418 -3.46586,8.508325 -1.70756,0.916713 -1.80496,0.754296 -1.29188,-2.154144 z m -55.38424,-4.018395 c -4.84692,-3.300898 -13.99411,-8.419385 -20.3271,-11.374417 -6.33299,-2.955033 -11.51452,-5.732508 -11.51452,-6.172168 0,-2.109715 6.77896,-0.195799 22.06407,6.229382 9.19654,3.865819 17.24668,7.743328 17.8892,8.616684 0.95304,1.295428 1.75387,8.763893 0.93458,8.715851 -0.1285,-0.0075 -4.19931,-2.714434 -9.04623,-6.015332 z m 93.46162,1.576629 C 299.38012,69.326708 297.19627,68.884844 297.19627,65.625 c 0,-3.845883 1.80898,-4.011285 21.02581,-1.922474 17.05229,1.853533 24.76859,3.674806 24.76859,5.84611 0,0.420126 -1.99767,0.668523 -4.43926,0.551995 -2.44159,-0.116528 -12.18831,-0.337269 -21.65938,-0.490535 z m 161.34056,-2.69555 c -1.38425,-1.388569 -0.54566,-3.554149 2.84219,-7.339729 1.92757,-2.153862 5.93187,-7.324825 8.89845,-11.491027 2.96658,-4.166202 6.02581,-8.10109 6.79829,-8.744197 1.9784,-1.647062 2.89316,-0.316868 1.14863,1.670284 -0.79496,0.905505 -2.51103,3.780518 -3.81351,6.388917 -1.30248,2.608399 -3.97893,7.259939 -5.94766,10.336756 -1.96874,3.076817 -4.04304,6.427047 -4.60955,7.444956 -1.06048,1.905464 -4.14356,2.910984 -5.31684,1.73404 z M 236.61754,63.621824 c -2.7252,-0.787647 -3.0432,-1.20449 -2.61736,-3.431074 0.26659,-1.393975 1.14901,-7.175125 1.96092,-12.847 2.06897,-14.453415 2.001,-14.244466 4.80943,-14.783009 l 2.47281,-0.474185 -0.61424,9.503597 c -1.05343,16.299048 -1.74426,23.100473 -2.33744,23.012796 -0.31461,-0.0465 -1.96797,-0.488009 -3.67412,-0.981125 z M 413.70718,63.125 c -0.34268,-0.34375 -0.62305,-1.815998 -0.62305,-3.271661 0,-3.630963 -7.61458,-15.329446 -11.18278,-17.180398 -3.19007,-1.654807 -3.58299,-2.809763 -1.26007,-3.703938 1.13491,-0.436864 3.48646,1.29718 8.40392,6.197084 5.62393,5.603852 7.08823,7.701425 8.30335,11.894355 1.21145,4.180268 1.25454,5.231074 0.24094,5.875759 -1.50012,0.954137 -3.04449,1.02924 -3.88231,0.188799 z M 291.58879,61.468881 c 0,-0.444209 12.98426,-27.533084 16.43177,-34.281381 1.61626,-3.163736 4.14305,-3.641214 4.08467,-0.771866 -0.0244,1.197963 -2.66302,9.133551 -5.86367,17.63464 l -5.81936,15.456523 -3.28022,0.534851 c -1.80412,0.294168 -3.79164,0.851911 -4.41671,1.23943 -0.62505,0.387518 -1.13648,0.472029 -1.13648,0.187803 z m 182.88645,-1.273616 c -0.86792,-0.962034 -1.57803,-2.876091 -1.57803,-4.25346 0,-2.16151 0.38653,-2.504305 2.82378,-2.504305 2.12777,0 3.09432,0.595627 3.9214,2.416555 1.98821,4.377273 -2.06354,7.781373 -5.16715,4.34121 z m -64.95217,-3.551238 c -1.23841,-0.870126 -2.04642,-2.428194 -2.04642,-3.946063 0,-2.445408 0.0606,-2.418776 2.41953,1.063569 2.74011,4.045031 2.61851,4.984453 -0.37311,2.882494 z M 238.89591,26.484375 c 0.54833,-4.501931 2.74244,-8.688447 4.93834,-9.4227 0.93825,-0.313728 1.05069,0.991331 0.51993,6.034639 -0.68241,6.484165 -1.41956,7.800531 -4.38302,7.82683 -1.38406,0.01228 -1.53932,-0.628656 -1.07525,-4.438769 z"
       id="path3414"
       inkscape:connector-curvature="0" />
    <path
       style="fill:#bfbfbf"
       d="M 0,105.46875 0,0 l 273.83179,0 273.83178,0 0,105.46875 0,105.46875 -273.83178,0 L 0,210.9375 0,105.46875 Z M 281.68275,195.94009 31.122495,195.46875 50.140688,167.3769 c 10.460006,-15.45052 19.018193,-28.63411 19.018193,-29.29688 0,-0.97845 43.491069,-1.20502 231.308419,-1.20502 l 231.30842,0 0,-4.21875 0,-4.21875 -6.01179,0 c -6.60247,0 -7.77675,-1.07691 -6.54452,-6.00184 0.53173,-2.12519 -0.712,-3.77533 -10.48251,-13.90785 -16.80985,-17.432666 -19.82928,-21.307833 -21.88424,-28.086531 -0.9854,-3.250516 -1.79485,-8.356312 -1.79877,-11.346214 -0.007,-4.800069 0.43905,-6.110046 3.80602,-11.194955 2.09724,-3.167324 4.87883,-7.892917 6.18131,-10.501316 1.30248,-2.608399 3.02522,-5.490794 3.8283,-6.405321 1.10996,-1.263986 1.19945,-1.9243 0.37313,-2.753209 -1.28589,-1.289906 -4.77704,1.621658 -7.7707,6.480648 -1.63087,2.647051 -2.09844,2.890641 -3.66489,1.909319 -1.4563,-0.912319 -2.08177,-0.837683 -3.31066,0.395053 -1.07314,1.076488 -2.54543,1.381259 -5.04679,1.044707 -2.76068,-0.37144 -3.96339,-0.04209 -5.50931,1.508668 -2.61216,2.620316 -2.69763,8.539649 -0.15661,10.84642 1.71722,1.558924 1.73811,1.861124 0.36631,5.300301 -1.33138,3.337838 -1.31683,4.22361 0.17147,10.445244 0.89442,3.73897 2.16531,8.133735 2.82419,9.766146 1.11544,2.763563 0.94397,3.454253 -2.48917,10.026489 l -3.68712,7.058471 2.36579,9.36216 c 3.03459,12.00878 3.03459,13.24111 1e-5,13.24111 -1.30118,0 -2.60785,0.63281 -2.90372,1.40625 -0.46142,1.20616 -4.4727,1.40625 -28.1914,1.40625 l -27.65343,0 3.03799,-3.14421 3.038,-3.14421 -2.4235,-9.59051 -2.4235,-9.59052 4.0081,-6.941275 c 2.46175,-4.263322 4.61506,-6.945714 5.58138,-6.952777 5.17021,-0.03779 27.54766,4.99958 32.05042,7.214836 4.05834,1.996613 5.39319,2.291082 6.29319,1.388269 0.89999,-0.902803 0.45507,-1.811241 -2.09759,-4.282865 -2.59718,-2.514718 -6.3987,-4.204973 -19.16361,-8.520646 -15.34609,-5.188344 -15.99733,-5.51193 -17.95294,-8.920499 -1.1862,-2.067499 -2.29132,-6.1031 -2.66012,-9.713967 -0.43264,-4.236103 -1.17762,-6.673439 -2.37085,-7.756668 -1.33301,-1.210126 -1.49286,-1.878245 -0.68344,-2.856581 0.63921,-0.77261 0.83759,-2.879301 0.50225,-5.333569 -0.68083,-4.982625 0.7297,-6.982185 3.28741,-4.660256 2.31263,2.099451 3.34508,0.783783 1.22717,-1.563804 -1.98947,-2.205207 -3.56383,-2.38609 -5.05724,-0.581036 -0.701,0.847297 -2.56499,1.20565 -5.35494,1.029491 -3.48033,-0.219751 -4.93974,-0.916804 -7.81392,-3.732129 -3.06142,-2.998741 -3.79822,-3.320205 -5.50715,-2.402757 -2.7783,1.491547 -2.46759,2.638617 1.3223,4.881695 3.96177,2.344805 5.11604,4.293709 5.11604,8.638061 0,2.414524 0.64171,3.781185 2.4427,5.202276 l 2.44271,1.927436 -7.71329,7.332833 c -7.06479,6.716326 -7.62098,7.505839 -6.61543,9.390607 1.48422,2.781945 2.60598,2.590149 4.65918,-0.796611 2.0434,-3.370613 7.66347,-7.766401 8.63924,-6.757266 0.37514,0.387971 1.7568,3.584055 3.07035,7.102407 2.36269,6.328503 2.37009,6.433915 0.69185,9.84375 -0.93302,1.89571 -2.62332,6.653019 -3.75622,10.571801 l -2.05981,7.125054 3.3019,9.15016 3.3019,9.15017 -2.8792,3.64665 -2.87921,3.64666 -20.9495,0 c -11.52223,0 -20.94951,-0.15789 -20.94951,-0.35088 0,-0.19298 0.56901,-1.98595 1.26447,-3.98437 1.56895,-4.50847 2.92223,-40.470102 1.59978,-42.512086 -0.61889,-0.955616 -0.35993,-2.249988 0.84404,-4.21875 4.06767,-6.651537 14.04417,-30.011343 14.59447,-34.172677 0.64734,-4.895112 -0.64718,-6.951045 -2.92018,-4.637791 -0.69326,0.705542 -5.40906,8.876554 -10.47955,18.157804 -8.36617,15.313807 -9.55981,17.035455 -12.90217,18.609366 -2.02571,0.9539 -4.52422,2.483094 -5.55226,3.398206 -1.02804,0.915114 -4.04474,2.372613 -6.70378,3.23889 -2.65903,0.866275 -5.3134,2.15375 -5.89858,2.861055 -0.82363,0.995517 -1.70077,1.063324 -3.88309,0.300184 -2.01126,-0.703321 -3.47683,-0.685219 -5.11424,0.06317 -1.85174,0.846347 -2.39861,0.778432 -2.83088,-0.351563 -0.29467,-0.770308 -1.40993,-1.400557 -2.47835,-1.400557 -2.20666,0 -6.26865,3.447064 -6.26865,5.319669 0,2.002421 1.4523,1.432159 2.80374,-1.100919 1.31703,-2.468596 4.22493,-3.158796 4.93726,-1.171875 0.23106,0.644531 0.21877,2.495477 -0.0273,4.113212 -0.32781,2.154861 0.0805,3.47091 1.52692,4.921879 3.26067,3.270862 11.31556,2.155443 11.32365,-1.568072 0.002,-1.00659 0.7373,-0.400178 1.96621,1.621969 1.07948,1.77629 3.86917,5.573167 6.19929,8.437497 4.89455,6.01668 7.80613,12.17061 7.0786,14.96135 -0.76434,2.93199 2.20476,3.63129 4.69005,1.10462 l 2.02497,-2.0587 -5.94346,-11.41764 -5.94345,-11.417643 3.60701,-3.142075 c 6.61921,-5.766025 6.87568,-5.72983 6.89515,0.973118 0.009,3.240801 0.64644,10.32205 1.41562,15.73611 1.08214,7.61704 1.16899,10.95711 0.38391,14.76563 l -1.01459,4.92187 -96.02233,0 -96.02233,0 -1.58246,-3.32883 c -1.72156,-3.62143 -1.43693,-4.71281 2.67708,-10.26492 3.39872,-4.58679 5.81424,-10.06508 6.52022,-14.78763 0.63631,-4.256454 2.31935,-6.241339 2.31935,-2.735304 0,3.008334 2.23235,4.885204 7.45395,6.266934 4.77096,1.26248 5.23178,1.23461 7.00407,-0.42372 1.86627,-1.74627 1.93974,-1.73816 4.51932,0.49917 3.11966,2.70575 4.57916,2.81738 8.2843,0.63368 2.67919,-1.57905 2.83334,-1.57282 4.10651,0.16593 0.72755,0.99361 1.57151,1.55709 1.87548,1.25217 0.73872,-0.74107 -1.29246,-4.46498 -2.43543,-4.46498 -0.49593,0 -0.9017,-0.916 -0.9017,-2.035556 0,-2.921813 -2.66726,-5.464444 -5.73229,-5.464444 -2.43222,0 -2.56034,-0.172862 -1.6361,-2.207665 0.80068,-1.762813 0.61102,-2.977909 -0.94126,-6.030143 -1.06921,-2.102361 -2.35482,-4.077159 -2.85691,-4.388438 -0.50209,-0.31128 -3.12145,0.556695 -5.82079,1.928832 l -4.90791,2.494795 -3.772,-4.291906 C 179.53901,75.481971 145.79607,56.25 140.74043,56.25 c -2.99406,0 -4.19102,1.92865 -2.00041,3.223254 1.36455,0.806422 32.91897,23.514845 33.99847,24.467315 0.16971,0.149745 -0.39591,3.789219 -1.25695,8.087723 -0.86104,4.298502 -1.86452,9.502958 -2.22994,11.565458 -0.36542,2.0625 -2.40454,7.07892 -4.53138,11.1476 l -3.86698,7.39759 2.39459,3.14928 2.39459,3.14928 -19.80236,0 -19.80235,0 -4.14034,-2.85754 -4.14036,-2.85753 0,-9.79602 0,-9.79601 -3.25476,-3.613894 c -1.79012,-1.98764 -4.94433,-4.788422 -7.00935,-6.223951 -2.06502,-1.435532 -3.75155,-2.869087 -3.74785,-3.185681 0.004,-0.316593 1.78859,-1.718047 3.96643,-3.114343 l 3.9597,-2.538719 1.27975,2.538719 C 114.6038,90.271418 121.54223,97.5 123.03663,97.5 c 2.05376,0 2.42147,-1.947319 0.72318,-3.829776 -1.63707,-1.814587 -1.61426,-1.818734 1.9006,-0.345545 2.43184,1.019265 3.86095,1.186712 4.51643,0.529187 1.40057,-1.404944 -0.35717,-3.135077 -5.76775,-5.677174 -3.78751,-1.779518 -4.88994,-2.874808 -6.10446,-6.064923 -0.81521,-2.141263 -1.4822,-4.406445 -1.4822,-5.033737 0,-1.376327 1.53157,-1.509418 2.33645,-0.203032 1.07092,1.738198 3.63129,0.955046 6.73121,-2.058907 4.87726,-4.741993 3.95849,-7.841392 -3.38009,-11.402596 -2.66472,-1.293118 -3.70501,-1.36199 -6.30841,-0.417649 -1.7146,0.62195 -3.11747,1.467943 -3.11747,1.879985 0,1.074724 2.58453,0.925917 3.27102,-0.188333 0.31769,-0.515625 1.20503,-0.9375 1.97188,-0.9375 1.03868,0 0.78627,0.799625 -0.98974,3.135367 -1.3112,1.724451 -2.38401,3.622889 -2.38401,4.21875 0,0.59586 -1.17278,1.083383 -2.60618,1.083383 -2.48725,0 -6.32993,2.891775 -19.218537,14.462729 -3.481417,3.125498 -3.579956,3.381617 -2.981197,7.748718 0.964284,7.033083 -0.576674,11.907823 -5.398965,17.079353 -4.497846,4.82359 -9.479613,13.62432 -8.558508,15.11935 0.30577,0.49629 1.267107,0.99926 2.136304,1.11769 0.869197,0.11845 -12.508428,0.43485 -29.728055,0.70313 l -31.308412,0.48778 -0.301175,2.63482 c -0.40748,3.56481 1.293198,5.33393 5.127585,5.33393 3.787262,0 3.812101,0.0218 16.981422,14.94367 l 10.292727,11.66242 -10.910093,16.16679 -10.910092,16.16681 -6.542056,0.34387 c -3.598131,0.18913 109.953272,0.3234 252.336462,0.29837 l 258.87851,-0.0456 -250.56026,-0.47133 z M 42.950918,152.12889 C 38.603615,147.2081 33.859569,141.76292 32.408595,140.0285 l -2.638134,-3.1535 18.204845,0 c 16.885273,0 18.172429,0.11892 17.757608,1.64062 -0.245981,0.90235 -3.694117,6.34753 -7.662523,12.1004 l -7.215284,10.45977 -7.904189,-8.9469 z m 42.913571,-25.52732 c -0.835281,-0.92384 -2.096963,-1.87681 -2.803739,-2.11774 -0.856014,-0.29179 1.130502,-3.1126 5.950065,-8.44892 6.135422,-6.79328 7.403796,-8.77505 8.344908,-13.03853 0.610383,-2.76519 1.195467,-5.153949 1.300178,-5.308346 0.10471,-0.154387 1.743449,0.776522 3.641649,2.068697 1.89818,1.292179 4.23459,2.598809 5.19201,2.903639 2.34839,0.74767 3.59456,4.96606 4.42902,14.99266 0.63864,7.67357 0.89769,8.49077 3.03469,9.57329 1.97247,0.99916 0.007,1.17352 -12.61682,1.11923 -13.135236,-0.0564 -15.137913,-0.26852 -16.471961,-1.74398 z m 395.483021,-0.11233 c 0.57168,-1.07154 0.76426,-2.65357 0.42795,-3.51562 -0.3363,-0.86205 -1.2,-5.15331 -1.91934,-9.53612 l -1.30787,-7.96875 3.3954,-4.96897 3.39539,-4.968989 3.82582,3.547612 c 17.26678,16.011197 26.72301,26.217877 26.72301,28.843787 0,0.28342 -8.00545,0.51531 -17.78989,0.51531 -17.72326,0 -17.786,-0.007 -16.75047,-1.94826 z M 185.04674,97.444669 c 0,-0.546057 0.42056,-0.732094 0.93457,-0.413419 0.51402,0.318675 0.93458,0.76545 0.93458,0.992831 0,0.227382 -0.42056,0.413419 -0.93458,0.413419 -0.51401,0 -0.93457,-0.446775 -0.93457,-0.992831 z m 10.41424,-9.216837 c -0.88394,-0.561837 -0.9547,-1.000193 -0.23365,-1.447223 1.18544,-0.734933 2.90352,0.09331 2.90352,1.399719 0,1.090081 -1.00156,1.107901 -2.66987,0.0475 z M 484.61153,51.614558 c -0.40914,-0.66407 -0.11469,-1.777223 0.68134,-2.575736 1.8328,-1.838532 2.87562,-0.145947 1.26846,2.058836 -0.92507,1.269069 -1.40758,1.396982 -1.9498,0.5169 z M 232.71029,110.22322 c 0,-1.25224 0.68082,-2.95975 1.51294,-3.79447 1.36689,-1.37115 1.66723,-1.37762 3.11098,-0.0669 2.27971,2.06956 6.57555,1.79216 9.10089,-0.5877 2.40041,-2.26212 2.99504,-8.001982 1.03288,-9.970272 -0.88382,-0.886585 -0.67896,-1.450716 0.93992,-2.588161 2.85523,-2.006136 4.49486,-5.601234 5.24686,-11.504483 0.73259,-5.750892 -0.25969,-7.647498 -4.00283,-7.650893 -2.01972,-0.0019 -2.9209,-0.895448 -5.07637,-5.03371 l -2.62071,-5.031482 1.12935,-15.975279 1.12936,-15.975278 4.01726,-0.604309 c 4.46287,-0.671367 10.64769,0.186342 10.64769,1.476592 0,0.458241 2.10281,0.833165 4.6729,0.833165 2.57009,0 4.6729,-0.342946 4.6729,-0.762102 0,-0.419156 -1.29293,-2.001188 -2.87316,-3.515625 -2.51547,-2.410723 -3.00995,-2.572871 -3.97196,-1.302442 -0.84293,1.113164 -2.91696,1.440641 -8.9063,1.40625 l -7.80751,-0.04483 0.61273,-6.242903 c 0.43754,-4.458033 0.28824,-6.444069 -0.5222,-6.94652 -1.56645,-0.971143 -6.43814,4.675316 -6.43814,7.462026 0,5.868581 -1.03041,7.880508 -4.35654,8.506444 -5.88048,1.106635 -23.44318,14.178119 -21.57178,16.05536 0.31869,0.319685 1.8696,-0.892769 3.44647,-2.694341 3.3788,-3.860258 14.29969,-10.701644 18.39435,-11.523138 l 2.86951,-0.575695 -2.17984,14.385633 c -1.19891,7.912099 -2.18655,14.747176 -2.19475,15.189061 -0.008,0.441885 -0.5406,0.575328 -1.18313,0.296541 -23.62401,-10.250331 -35.23427,-14.734881 -37.54331,-14.501376 -5.68747,0.575152 -3.60829,2.617808 8.48647,8.337388 10.57586,5.001295 29.57991,16.555502 31.32153,19.043069 0.34604,0.494259 -0.38994,2.916051 -1.63552,5.38176 -1.24557,2.465711 -2.26468,5.139238 -2.26468,5.941172 0,0.801936 1.87846,2.653067 4.17434,4.113626 3.84233,2.444346 4.0677,2.796893 2.83346,4.432474 -0.73748,0.977307 -1.35425,2.543344 -1.3706,3.480094 -0.0164,0.936755 -1.08113,3.085945 -2.36617,4.775995 -2.32074,3.05215 -3.19123,8.05208 -1.40187,8.05208 0.51402,0 0.93458,-1.02456 0.93458,-2.27678 z m 3.2207,-24.054906 c -0.34537,-0.560553 -0.1599,-1.488678 0.41213,-2.0625 0.7637,-0.766085 1.04007,-0.495267 1.04007,1.019186 0,2.263604 -0.48548,2.612389 -1.4522,1.043314 z m 80.08698,2.960733 c 1.44491,-1.184339 1.88381,-2.114513 1.27176,-2.695298 -0.51402,-0.487763 -6.37212,-1.563647 -13.018,-2.390853 -6.64588,-0.827206 -12.41896,-1.840594 -12.82906,-2.251976 -0.4101,-0.411382 1.18518,-3.215718 3.54508,-6.231858 l 4.2907,-5.48389 22.01008,0.353039 c 23.64029,0.379188 26.20471,-0.126661 19.09286,-3.766192 -2.67501,-1.368955 -8.41919,-2.397015 -21.24731,-3.802718 -9.66964,-1.059598 -17.70367,-2.04943 -17.8534,-2.199627 -0.14973,-0.150198 2.4448,-7.534517 5.7656,-16.409598 3.32081,-8.875082 6.03784,-16.990929 6.03784,-18.035217 0,-3.21396 -2.85242,-3.406673 -5.28498,-0.35706 -1.20031,1.504774 -2.18446,3.267513 -2.18701,3.917199 -0.008,2.082449 -17.55274,36.213688 -20.11473,39.131252 -1.35834,1.546875 -2.27512,2.168858 -2.03727,1.382185 0.23785,-0.786672 0.94261,-3.895358 1.56612,-6.908192 0.97064,-4.690133 0.92965,-5.682529 -0.28503,-6.901007 -2.5754,-2.583444 -4.11717,-0.712914 -5.32293,6.457965 -0.63068,3.750795 -1.19939,8.104809 -1.26379,9.675587 -0.10868,2.650345 -0.41989,2.89755 -4.32271,3.433604 -2.31309,0.317701 -4.60515,0.212233 -5.09346,-0.234375 -1.60082,-1.464079 -3.33891,-0.853672 -4.43394,1.557164 -0.74902,1.649042 -0.77894,2.667276 -0.0985,3.34989 0.68049,0.682612 1.16404,0.235784 1.59084,-1.470023 0.87812,-3.509643 2.40371,-2.015664 1.7935,1.756342 -0.72265,4.467123 2.06427,7.11961 7.48048,7.11961 3.08256,0 4.55391,-0.545869 6.1952,-2.298404 2.12898,-2.273266 2.16909,-2.278156 3.66758,-0.447051 1.1975,1.463285 4.06179,2.216551 13.66461,3.593594 15.73691,2.25667 14.86638,2.248878 17.41983,0.155908 z"
       id="path3412"
       inkscape:connector-curvature="0" />
    <path
       style="fill:#007f7f"
       d="m 190.65421,99.734728 c -4.63402,-3.233006 -6.54205,-5.795587 -6.54205,-8.786296 0,-3.445775 -2.24428,-5.393786 -4.27058,-3.706839 -0.80677,0.671646 -1.2667,1.988928 -1.02208,2.927291 0.70755,2.714146 -0.59719,1.91707 -2.97671,-1.818497 -1.25866,-1.975954 -1.77688,-3.584926 -1.21512,-3.772762 2.2424,-0.749803 5.74635,-4.200477 5.74869,-5.661294 0.002,-1.02061 1.28074,-0.09181 3.64419,2.646169 2.71533,3.145634 3.3904,4.526945 2.6539,5.430358 -1.75244,2.149604 0.62338,3.464246 3.84298,2.126478 3.06584,-1.273884 5.03715,-0.617938 7.99455,2.660158 1.73674,1.925078 1.72591,1.9817 -0.75309,3.937784 -1.561,1.231716 -2.41072,2.713481 -2.23984,3.905897 0.38927,2.716185 -1.08311,2.749945 -4.86484,0.111553 z m 47.6508,-10.437853 c -0.007,-2.449219 -0.24996,-5.339452 -0.53986,-6.422741 -0.80182,-2.996187 1.84932,-5.126033 5.49532,-4.414772 4.00543,0.781378 4.5196,1.775475 3.84973,7.442925 -0.3886,3.287761 -0.21163,5.029694 0.55957,5.507812 1.834,1.137016 -0.87797,2.309274 -5.38004,2.325545 l -3.97196,0.01436 -0.0128,-4.453125 z m 110.69677,3.412301 c -0.37528,-0.609102 -1.94754,-0.828181 -3.79054,-0.528169 -2.73327,0.444933 -3.22232,0.220694 -3.70227,-1.697525 -1.05755,-4.226797 -0.10024,-5.566626 5.36931,-7.514732 2.89537,-1.03125 6.0439,-2.55907 6.99675,-3.395157 4.78958,-4.202652 10.04084,-4.143778 13.92003,0.156065 1.62966,1.806391 1.60167,1.833683 -1.28654,1.254235 -3.43548,-0.689243 -5.73535,0.790298 -5.81407,3.740274 -0.0335,1.252451 -1.76535,3.302655 -4.6548,5.510208 -4.89361,3.738731 -6.01599,4.133409 -7.03787,2.474801 z m 138.38141,-2.812848 c -1.45126,-3.240358 -3.82843,-4.333638 -6.19678,-2.849955 -2.60257,1.63041 -2.95785,1.027561 -5.51679,-9.36105 -1.77428,-7.203118 -1.86458,-8.571741 -0.76655,-11.617794 1.11139,-3.083081 1.29808,-3.225847 1.74346,-1.333268 0.7266,3.087522 3.26631,4.443066 5.59324,2.985331 1.76648,-1.106629 1.8724,-0.940661 1.8724,2.934047 0,2.258865 1.06922,7.392738 2.37604,11.408608 2.29321,7.046993 2.8927,12.29454 0.89498,7.834081 z m -388.805,-0.855935 c -1.723813,-1.910743 -4.045514,-2.380703 -5.680114,-1.149768 -0.513537,0.386719 0.29333,-0.351563 1.793039,-1.640625 1.499711,-1.289063 5.499425,-4.769531 8.888265,-7.734375 6.41486,-5.612261 10.00118,-6.773189 12.30847,-3.984375 1.38943,1.679396 0.63144,1.817709 -1.75803,0.320793 -2.06338,-1.292622 -4.59131,-0.509147 -5.42984,1.682848 -0.40742,1.065007 0.24268,2.254187 2.00124,3.660797 l 2.60466,2.083378 -5.48472,3.697205 c -3.01659,2.033462 -5.9542,3.971662 -6.52803,4.307109 -0.57383,0.335448 -1.795547,-0.223897 -2.71494,-1.242987 z m 324.92034,-6.542467 c -1.79287,-2.446053 -2.6708,-2.910862 -4.7211,-2.499521 -2.42314,0.486143 -2.63595,0.187827 -5.61081,-7.864991 -2.31326,-6.261891 -2.90605,-9.021359 -2.35333,-10.954982 0.67373,-2.356966 0.77009,-2.40484 1.09365,-0.543389 0.57242,3.293147 2.67449,4.523384 5.51255,3.226234 1.74382,-0.797025 2.27743,-1.613667 1.92864,-2.951627 -0.26522,-1.017356 -0.16016,-1.650076 0.23345,-1.406047 0.39363,0.244029 1.0032,3.258807 1.35461,6.699505 0.41741,4.086973 1.45796,7.657754 3.00135,10.29957 1.36013,2.32815 2.23534,5.095142 2.06291,6.521917 l -0.2995,2.47816 -2.20242,-3.004829 z m -141.58675,-2.940445 -2.52799,-3.873229 1.94206,-1.364517 c 1.06813,-0.750484 3.65043,-3.54116 5.73844,-6.201501 4.1909,-5.339632 6.66096,-7.097523 10.04319,-7.147514 2.11865,-0.03131 2.15888,0.06517 0.70093,1.681225 -1.90616,2.112861 -1.97864,4.258881 -0.19404,5.744598 1.1453,0.95349 0.69368,1.941193 -2.94602,6.442917 -2.36427,2.924234 -4.97064,5.465812 -5.79192,5.647951 -0.82129,0.182137 -2.15551,0.918891 -2.96496,1.637229 -1.29211,1.146676 -1.78024,0.833377 -3.99969,-2.567159 z M 234.21999,74.884286 C 233.34816,70.609997 232.74986,63.75 233.2489,63.75 c 0.27657,0 2.3922,0.477232 4.70142,1.060515 3.69708,0.933847 4.47396,1.605697 6.50435,5.625 C 246.70406,74.888341 246.71405,75 244.86289,75 c -1.04368,0 -2.71519,-0.512198 -3.71449,-1.138218 -1.53317,-0.960473 -2.18052,-0.795543 -4.14543,1.05616 l -2.32853,2.19438 -0.45445,-2.228036 z"
       id="path3410"
       inkscape:connector-curvature="0" />
    <path
       style="fill:#fe0000"
       d="m 212.14954,48.007695 c 0,-1.296201 7.74943,-8.145053 13.19104,-11.658083 6.55116,-4.229339 22.46583,-7.882752 29.98155,-6.88264 3.89041,0.517692 4.89587,0.337298 5.92102,-1.062319 1.16224,-1.586788 1.40376,-1.524021 4.108,1.06762 1.58023,1.514437 2.87316,3.096469 2.87316,3.515625 0,1.280891 -9.14763,0.889604 -9.57978,-0.409773 -0.5645,-1.697312 -11.7992,-1.367236 -20.32676,0.597203 -7.93923,1.828904 -18.0386,7.419603 -22.39567,12.397536 -2.78738,3.184574 -3.77256,3.820412 -3.77256,2.434831 z"
       id="path3408"
       inkscape:connector-curvature="0" />
    <path
       style="fill:#000000"
       d="m 21.028038,196.15856 6.542056,-0.34387 10.910092,-16.16681 10.910093,-16.16679 -10.292727,-11.66242 C 25.928231,136.89685 25.903392,136.875 22.11613,136.875 c -3.834387,0 -5.535065,-1.76912 -5.127585,-5.33393 l 0.301175,-2.63482 31.308412,-0.48778 c 17.219627,-0.26828 30.597252,-0.58468 29.728055,-0.70313 -0.869197,-0.11843 -1.830534,-0.6214 -2.136304,-1.11769 -0.921105,-1.49503 4.060662,-10.29576 8.558508,-15.11935 4.822291,-5.17153 6.363249,-10.04627 5.398965,-17.079353 -0.598759,-4.367101 -0.50022,-4.62322 2.981197,-7.748718 C 106.01716,75.079275 109.85984,72.1875 112.34709,72.1875 c 1.4334,0 2.60618,-0.487523 2.60618,-1.083383 0,-0.595861 1.07281,-2.494299 2.38401,-4.21875 1.77601,-2.335742 2.02842,-3.135367 0.98974,-3.135367 -0.76685,0 -1.65419,0.421875 -1.97188,0.9375 -0.68649,1.11425 -3.27102,1.263057 -3.27102,0.188333 0,-0.412042 1.40287,-1.258035 3.11747,-1.879985 2.6034,-0.944341 3.64369,-0.875469 6.30841,0.417649 7.33858,3.561204 8.25735,6.660603 3.38009,11.402596 -3.26751,3.17689 -5.19254,3.69613 -6.996,1.887032 -1.90975,-1.915717 -2.42498,0.0073 -1.08952,4.06643 1.50756,4.582209 1.78345,4.866651 7.89637,8.14106 6.5783,3.52369 6.26285,6.524757 -0.45996,4.375898 -2.06271,-0.65932 -2.18713,-0.572855 -1.08777,0.75594 1.33978,1.619381 0.74617,3.457547 -1.11658,3.457547 -1.4944,0 -8.43283,-7.228582 -10.0857,-10.507469 l -1.27975,-2.538719 -3.9597,2.538719 c -2.17784,1.396296 -3.96273,2.79775 -3.96643,3.114343 -0.004,0.316594 1.68283,1.750149 3.74785,3.185681 2.06502,1.435529 5.21923,4.236311 7.00935,6.223951 l 3.25476,3.613894 0,9.79601 0,9.79602 4.14036,2.85753 4.14034,2.85754 19.80235,0 19.80236,0 -2.39459,-3.14928 -2.39459,-3.14928 3.86698,-7.39759 c 2.12684,-4.06868 4.16596,-9.0851 4.53138,-11.1476 0.36542,-2.0625 1.3689,-7.266956 2.22994,-11.565458 0.86104,-4.298504 1.42666,-7.937978 1.25695,-8.087723 -1.0795,-0.95247 -32.63392,-23.660893 -33.99847,-24.467315 C 136.54941,58.17865 137.74637,56.25 140.74043,56.25 c 5.05564,0 38.79858,19.231971 43.87269,25.005475 l 3.772,4.291906 4.90791,-2.494795 c 2.69934,-1.372137 5.3187,-2.240112 5.82079,-1.928832 0.50209,0.311279 1.7877,2.286077 2.85691,4.388438 1.55228,3.052234 1.74194,4.26733 0.94126,6.030143 -0.92424,2.034803 -0.79612,2.207665 1.6361,2.207665 3.06503,0 5.73229,2.542631 5.73229,5.464444 0,1.119556 0.40577,2.035556 0.9017,2.035556 1.14297,0 3.17415,3.72391 2.43539,4.46498 -0.30397,0.30492 -1.14793,-0.25856 -1.87548,-1.25217 -1.27317,-1.73875 -1.42732,-1.74498 -4.10651,-0.16594 -3.70514,2.18371 -5.16464,2.07208 -8.2843,-0.63367 -2.57958,-2.23733 -2.65304,-2.24544 -4.51931,-0.49917 -1.77229,1.65833 -2.23312,1.6862 -7.00408,0.42372 -5.2216,-1.38173 -7.45395,-3.2586 -7.45395,-6.266934 0,-3.506035 -1.68304,-1.52115 -2.31935,2.735304 -0.70598,4.72255 -3.12149,10.20084 -6.52021,14.78763 -4.11401,5.55211 -4.39865,6.64349 -2.67709,10.26492 l 1.58246,3.32883 96.02233,0 96.02233,0 1.01459,-4.92187 c 0.78508,-3.80852 0.69823,-7.14859 -0.38391,-14.76563 -0.76917,-5.41406 -1.40619,-12.495309 -1.41561,-15.73611 -0.0194,-6.702948 -0.27595,-6.739143 -6.89516,-0.973118 l -3.607,3.142075 5.94345,11.417643 5.94345,11.41764 -2.02497,2.0587 c -2.48529,2.52667 -5.45439,1.82737 -4.69004,-1.10462 0.72752,-2.79074 -2.18406,-8.94467 -7.0786,-14.96135 -2.33012,-2.86433 -5.11982,-6.661207 -6.1993,-8.437497 -1.22891,-2.022147 -1.96402,-2.628559 -1.96621,-1.621969 -0.008,3.723515 -8.06298,4.838934 -11.32365,1.568072 -1.44645,-1.450969 -1.85473,-2.767018 -1.52692,-4.921879 0.2461,-1.617735 0.25839,-3.468681 0.0273,-4.113212 -0.71233,-1.986921 -3.62022,-1.296721 -4.93726,1.171875 -1.35144,2.533078 -2.80374,3.10334 -2.80374,1.100919 4e-5,-1.872605 4.06203,-5.319669 6.26869,-5.319669 1.06842,0 2.18368,0.630249 2.47835,1.400554 0.43227,1.129995 0.97914,1.19791 2.83088,0.351563 1.63741,-0.748385 3.10298,-0.766487 5.11424,-0.06317 2.18232,0.76314 3.05946,0.695333 3.88309,-0.300184 0.58518,-0.707305 3.23955,-1.99478 5.89858,-2.861055 2.65904,-0.866276 5.67574,-2.323776 6.70378,-3.238889 1.02804,-0.915113 3.52655,-2.444307 5.55226,-3.398207 3.34236,-1.573911 4.536,-3.295559 12.90217,-18.609366 5.07049,-9.28125 9.78629,-17.452262 10.47955,-18.157804 2.273,-2.313254 3.56752,-0.257321 2.92018,4.637791 -0.5503,4.161334 -10.5268,27.52114 -14.59447,34.172677 -1.20397,1.968762 -1.46293,3.263135 -0.84404,4.21875 1.32245,2.041985 -0.0308,38.003619 -1.59978,42.512079 -0.69546,1.99843 -1.26447,3.79139 -1.26447,3.98438 0,0.19298 9.42728,0.35088 20.94951,0.35088 l 20.9495,0 2.87921,-3.64666 2.8792,-3.64665 -3.3019,-9.15017 -3.3019,-9.15016 2.05981,-7.125057 c 1.1329,-3.918781 2.8232,-8.676091 3.75622,-10.571801 1.67824,-3.409835 1.67084,-3.515247 -0.69185,-9.84375 -1.31355,-3.518352 -2.69521,-6.714436 -3.07035,-7.102407 -0.97577,-1.009135 -6.59584,3.386653 -8.63924,6.757267 -2.0532,3.38676 -3.17496,3.578555 -4.65918,0.79661 -1.00516,-1.88402 -0.45592,-2.668041 6.5045,-9.285147 5.78731,-5.50186 7.46732,-6.687697 7.03678,-4.966918 -0.35838,1.432377 0.56719,5.326764 2.52658,10.630754 2.95991,8.012343 3.19823,8.349016 5.57281,7.872616 2.00359,-0.401972 2.95447,0.105503 4.94437,2.638768 l 2.46371,3.136452 0.0104,-2.730133 c 0.006,-1.501574 -1.02308,-4.499097 -2.28619,-6.661163 -1.495,-2.558995 -2.52498,-6.167507 -2.95101,-10.338779 -0.47338,-4.63484 -0.85553,-5.86245 -1.38124,-4.436905 -1.45043,3.933107 -7.38989,3.438607 -7.38989,-0.615254 0,-0.871146 -1.26169,-2.51962 -2.80374,-3.663275 -2.19579,-1.62849 -2.80374,-2.79814 -2.80374,-5.394187 0,-4.384776 -1.1457,-6.328162 -5.11604,-8.678039 -3.78989,-2.243078 -4.1006,-3.390148 -1.3223,-4.881695 1.70893,-0.917448 2.44573,-0.595984 5.50715,2.402757 2.87418,2.815325 4.33359,3.512378 7.81392,3.732129 2.78995,0.176159 4.65394,-0.182194 5.35494,-1.029491 1.49341,-1.805054 3.06777,-1.624171 5.05724,0.581036 2.11791,2.347587 1.08546,3.663255 -1.22717,1.563804 -2.55771,-2.321929 -3.96824,-0.322369 -3.28741,4.660255 0.33534,2.454269 0.13696,4.56096 -0.50225,5.33357 -0.80942,0.978336 -0.64957,1.646455 0.68344,2.856581 1.19323,1.083229 1.93821,3.520565 2.37085,7.756668 0.3688,3.610867 1.47392,7.646468 2.66012,9.713967 1.95561,3.408569 2.60685,3.732155 17.95294,8.920499 12.76491,4.315673 16.56643,6.005928 19.16361,8.520646 2.55266,2.471624 2.99758,3.380062 2.09759,4.282865 -0.9,0.902813 -2.23485,0.608344 -6.29319,-1.388269 -4.50276,-2.215256 -26.88021,-7.252622 -32.05042,-7.214836 -0.96632,0.007 -3.11963,2.689455 -5.58138,6.952777 l -4.0081,6.941275 2.4235,9.59052 2.4235,9.59051 -3.038,3.14421 -3.03799,3.14421 27.65343,0 c 23.7187,0 27.72998,-0.20009 28.1914,-1.40625 0.29587,-0.77344 1.60254,-1.40625 2.90372,-1.40625 3.03458,0 3.03458,-1.23233 -1e-5,-13.24111 l -2.36579,-9.36216 3.68712,-7.058471 c 3.43314,-6.572236 3.60461,-7.262926 2.48917,-10.026489 -0.65888,-1.632411 -1.92977,-6.027176 -2.82419,-9.766146 -1.4883,-6.221634 -1.50285,-7.107406 -0.17147,-10.445244 1.3718,-3.439177 1.35091,-3.741377 -0.36631,-5.300301 -2.54102,-2.306771 -2.45555,-8.226104 0.15661,-10.84642 1.54592,-1.550758 2.74863,-1.880108 5.50931,-1.508668 2.50136,0.336552 3.97365,0.03178 5.04679,-1.044707 1.22889,-1.232736 1.85436,-1.307372 3.31066,-0.395053 1.56645,0.981321 2.03402,0.737732 3.66489,-1.909319 2.99366,-4.85899 6.48481,-7.770554 7.7707,-6.480648 0.82632,0.828909 0.73683,1.489223 -0.37313,2.753209 -0.80308,0.914527 -2.52582,3.796922 -3.8283,6.405321 -1.30248,2.608399 -4.08407,7.333992 -6.18131,10.501316 -3.36697,5.084909 -3.81233,6.394886 -3.80602,11.194955 0.004,2.989902 0.81337,8.095698 1.79877,11.346214 2.05376,6.77471 5.07692,10.656372 21.83546,28.036171 10.42759,10.81417 11.00741,11.61656 10.50046,14.53125 -0.29512,1.69678 -0.20135,3.58981 0.20839,4.20674 0.40974,0.61692 3.46771,1.27392 6.79551,1.45999 3.32779,0.18606 -109.73547,0.41959 -251.25169,0.51893 l -257.302207,0.18064 0.292859,3.04687 0.292858,3.04688 257.00935,0.47127 257.00936,0.47128 -231.54207,0.23185 c -187.88781,0.18813 -231.542059,0.45904 -231.542059,1.43687 0,0.66277 -8.558187,13.84636 -19.018193,29.29688 l -19.018193,28.09185 250.560255,0.47134 250.56026,0.47133 -258.87851,0.0456 c -142.38319,0.025 -255.934593,-0.10924 -252.336462,-0.29837 z m 44.704876,-57.64294 c 0.414821,-1.5217 -0.872335,-1.64062 -17.757608,-1.64062 l -18.204845,0 2.638134,3.1535 c 1.450974,1.73442 6.19502,7.1796 10.542323,12.10039 l 7.904189,8.9469 7.215284,-10.45977 c 3.968406,-5.75287 7.416542,-11.19805 7.662523,-12.1004 z M 85.981311,127.5 c 0,-0.51563 -0.340179,-0.9375 -0.755953,-0.9375 -0.415775,0 -1.558688,-0.58881 -2.539808,-1.30846 -1.686667,-1.23718 -1.391336,-1.74216 5.420779,-9.26902 7.100319,-7.8453 7.233123,-8.0847 9.172263,-16.533098 2.170935,-9.458333 1.611514,-11.870314 -2.567299,-11.068988 -1.172252,0.22479 -1.908987,0.04777 -1.637197,-0.393362 0.849244,-1.378406 3.451272,-0.880425 5.503104,1.053197 l 1.96869,1.855269 6.39093,-4.300741 6.39093,-4.300742 -2.6156,-2.092122 c -1.76717,-1.413502 -2.41987,-2.60379 -2.01217,-3.669542 0.83501,-2.182804 3.36376,-2.977161 5.40557,-1.698049 0.93962,0.58864 2.31334,0.837398 3.0527,0.552794 0.73935,-0.284604 1.62191,-0.06682 1.96126,0.483951 1.04348,1.693665 3.81293,1.114839 6.03908,-1.262189 2.10834,-2.251235 2.10956,-2.269163 0.22435,-3.28125 -2.68951,-1.443879 -4.87145,-1.263525 -6.89068,0.569566 -1.10974,1.007433 -3.03062,1.511319 -5.25864,1.379446 -3.04955,-0.1805 -4.24028,0.443957 -9.07286,4.758089 -3.05945,2.731219 -7.147607,6.145779 -9.084804,7.587909 -1.937202,1.44213 -3.297165,2.987281 -3.022142,3.433669 0.275024,0.446388 0.03485,1.100015 -0.533713,1.452506 -0.633672,0.392855 -0.800824,1.886404 -0.431896,3.859104 1.207119,6.454603 -0.334002,11.436453 -5.207928,16.835233 -3.886602,4.30513 -9.967123,14.22076 -9.07395,14.79707 3.346582,2.15936 9.174984,3.11049 9.174984,1.49726 z m 28.971959,-0.27368 c -2.137,-1.08252 -2.39605,-1.89972 -3.03469,-9.5733 -0.83446,-10.0266 -2.08063,-14.24498 -4.42902,-14.99265 -0.95742,-0.30483 -3.29383,-1.61146 -5.19201,-2.903639 -1.8982,-1.292175 -3.536939,-2.223084 -3.641649,-2.068697 -0.104711,0.154397 -0.689795,2.543156 -1.300178,5.308346 -0.941112,4.26348 -2.209486,6.24524 -8.344908,13.03853 -4.819563,5.33632 -6.806079,8.15713 -5.950065,8.44892 0.706776,0.24093 1.968458,1.1939 2.803739,2.11774 1.334048,1.47546 3.336725,1.6875 16.471961,1.74398 12.62377,0.0543 14.58929,-0.12007 12.61682,-1.11923 z m 5.74771,-1.6072 -3.87855,-2.81838 0,-9.76594 c 0,-11.12383 -0.63008,-12.39814 -9.27947,-18.767216 -5.36289,-3.949025 -6.31063,-4.073837 -7.700396,-1.014097 -1.341944,2.95445 -0.122467,4.535075 5.835476,7.563633 5.30869,2.69852 6.28286,4.97897 7.10794,16.6391 0.57615,8.14231 0.63452,8.30259 3.47944,9.55478 1.59141,0.70045 4.11311,1.30796 5.60378,1.35003 l 2.71032,0.0765 -3.87854,-2.81838 z m 48.4579,2.30307 c 0,-0.28341 -0.6436,-1.76379 -1.43023,-3.28971 -1.5616,-3.02924 -1.18723,-4.30724 2.86746,-9.78873 3.41197,-4.61259 5.34297,-9.03491 6.64267,-15.212859 1.14766,-5.455191 1.10082,-6.054369 -0.71444,-9.14063 -1.06844,-1.816519 -2.2362,-3.302761 -2.59504,-3.302761 -0.5802,0 -1.37282,3.491344 -3.72464,16.40625 -0.37558,2.0625 -2.42302,7.07892 -4.54986,11.1476 l -3.86698,7.39759 2.39459,3.14928 c 2.05742,2.70586 4.97647,4.25086 4.97647,2.63397 z m 198.44278,-3.93781 c 0.91709,-2.92397 1.59945,-10.63103 1.98709,-22.44403 0.5779,-17.610518 0.54894,-18.013142 -1.36982,-19.043238 -1.0781,-0.57879 -2.88477,-0.920386 -4.01479,-0.759104 -1.9585,0.279526 -2.04135,0.665956 -1.7715,8.261992 0.1557,4.382812 0.9015,12.68045 1.65734,18.4392 0.99741,7.59924 1.11825,11.58399 0.44069,14.53125 -1.2197,5.30542 -1.20942,5.46705 0.3475,5.46705 0.76372,0 1.9195,-1.88979 2.72349,-4.45312 z m 49.08837,1.30891 3.038,-3.14421 -2.41863,-9.57127 -2.41864,-9.57127 4.88234,-8.486065 c 4.65994,-8.099506 4.81938,-8.598589 3.5001,-10.956393 -1.96553,-3.512783 -5.39609,-3.299248 -7.59209,0.472569 -0.94237,1.618594 -2.76859,6.512382 -4.05828,10.87508 l -2.34488,7.932189 3.3019,9.15013 3.30188,9.15014 -2.8792,3.64665 c -2.51039,3.17954 -2.6532,3.64666 -1.11485,3.64666 0.9704,0 3.13146,-1.41489 4.80235,-3.14421 z m 63.70831,1.2233 c 0.70215,-1.31608 0.73633,-2.8658 0.10855,-4.92187 -0.50397,-1.65054 -1.19081,-5.11035 -1.52632,-7.68847 -0.33551,-2.57813 -0.82016,-5.57456 -1.07699,-6.65875 -0.32547,-1.37389 0.96931,-3.87479 4.27267,-8.252778 4.83539,-6.408403 5.60717,-8.686993 3.61816,-10.682222 -2.97512,-2.984421 -6.37852,-0.204467 -10.92537,8.924025 l -2.90402,5.830265 2.49595,10.18291 c 1.37278,5.6006 2.22656,10.88713 1.8973,11.74785 -0.34095,0.8913 -1.61704,1.56495 -2.96444,1.56495 -1.30118,0 -2.36578,0.42187 -2.36578,0.9375 0,0.51562 1.87773,0.9375 4.17273,0.9375 3.24947,0 4.39948,-0.42503 5.19756,-1.92091 z m 35.48953,1.4056 c 0,-2.25662 -4.68386,-7.70461 -16.54809,-19.24772 -7.60416,-7.39836 -10.88182,-10.869736 -7.28369,-7.71418 9.63406,8.44906 23.48227,22.94385 24.23622,25.36784 1.11382,3.58096 2.04619,2.33883 1.93504,-2.5779 -0.10529,-4.65706 -0.17215,-4.75522 -10.37631,-15.23437 -5.64869,-5.80091 -12.03908,-12.610416 -14.20087,-15.132226 -2.16179,-2.521813 -3.93053,-3.966446 -3.93053,-3.210294 0,0.756152 -1.04934,2.363714 -2.33189,3.572362 -1.28253,1.208648 -3.7961,4.340779 -5.58569,6.960298 l -3.25381,4.76275 1.30787,7.96875 c 0.71934,4.38281 1.58304,8.67407 1.91934,9.53612 0.33631,0.86205 0.14373,2.44408 -0.42795,3.51562 -1.03553,1.94097 -0.97279,1.94826 16.75047,1.94826 9.78444,0 17.78989,-0.23189 17.78989,-0.51531 z m -155.04574,-8.50511 c 1.08445,-1.31076 0.57836,-2.83837 -3.67026,-11.07846 -7.32012,-14.197195 -8.23945,-15.52612 -10.74067,-15.52612 -4.54939,0 -4.19347,1.174369 3.12546,10.3125 5.5261,6.89968 8.49474,12.97899 7.74406,15.8586 -0.62515,2.39805 1.68237,2.6805 3.54141,0.43348 z M 193.45795,103.23979 c 0,-1.34097 -2.11897,-2.70216 -5.60748,-3.60214 -3.10678,-0.801506 -3.31869,-1.119825 -4.22018,-6.339391 -0.90005,-5.211136 -2.38581,-7.344855 -3.66671,-5.26582 -0.57993,0.941278 1.59467,11.90567 2.55169,12.865681 0.4515,0.45292 8.49156,2.87123 10.24175,3.08055 0.38551,0.0461 0.70093,-0.28639 0.70093,-0.73888 z m 10.09346,-0.30229 c 1.57758,-1.58251 1.39555,-5.917266 -0.30805,-7.335544 -1.09926,-0.91515 -1.96904,-0.943547 -3.76455,-0.122897 -3.36409,1.537575 -3.79678,3.62491 -1.30329,6.287391 2.39231,2.55445 3.71053,2.84161 5.37589,1.17105 z m -8.03236,-3.314325 c -0.17088,-1.192416 0.67884,-2.674181 2.23984,-3.905897 2.479,-1.956084 2.48983,-2.012706 0.75309,-3.937784 -2.9574,-3.278096 -4.92871,-3.934042 -7.99455,-2.660158 -3.2196,1.337768 -5.59542,0.02313 -3.84298,-2.126478 0.7365,-0.903413 0.0614,-2.284724 -2.6539,-5.430358 -2.36345,-2.737983 -3.64254,-3.666779 -3.64419,-2.646169 -0.003,1.460817 -3.50629,4.911491 -5.74869,5.661294 -0.56176,0.187836 -0.0435,1.796808 1.21512,3.772762 2.37952,3.735567 3.68426,4.532643 2.97671,1.818497 -0.24462,-0.938363 0.21531,-2.255645 1.02208,-2.927291 2.0263,-1.686947 4.27058,0.261064 4.27058,3.706839 0,2.990709 1.90803,5.55329 6.54205,8.786296 3.78173,2.638392 5.25411,2.604632 4.86484,-0.111553 z m -8.60316,-1.599094 c 0,-0.227381 -0.42056,-0.674156 -0.93458,-0.992831 -0.51401,-0.318675 -0.93457,-0.132638 -0.93457,0.413419 0,0.546056 0.42056,0.992831 0.93457,0.992831 0.51402,0 0.93458,-0.186037 0.93458,-0.413419 z m 276.63553,-1.286184 c 0,-2.538985 -6.32426,-5.930354 -19.15888,-10.273894 -7.71028,-2.609342 -14.75467,-5.035712 -15.65421,-5.391933 -1.26798,-0.502128 -1.63551,-0.1677 -1.63551,1.488184 0,1.174721 -0.61832,2.821223 -1.37404,3.658893 -1.25492,1.391008 -0.16135,1.741165 12.61502,4.039306 9.0929,1.635577 15.54342,3.327915 18.43011,4.835256 4.62935,2.417307 6.77751,2.938444 6.77751,1.644188 z M 124.06839,95.390625 c -0.21254,-0.644531 -1.99092,-2.267525 -3.95195,-3.606652 -1.96102,-1.339127 -4.32791,-3.870377 -5.25974,-5.625 -0.93183,-1.754623 -1.71186,-2.635144 -1.73341,-1.956716 -0.0635,2.000001 1.82388,5.090684 5.40118,8.844618 3.25545,3.416194 6.32559,4.714125 5.54392,2.34375 z m 214.78484,0.454397 c 1.66683,-1.144913 2.19373,-3.661542 1.35435,-6.468821 -0.55342,-1.850917 -0.81895,-2.101936 -0.8749,-0.827083 -0.0442,1.006703 -1.42452,3.221547 -3.06741,4.921875 -2.98122,3.08546 -2.9826,3.091479 -0.70093,3.077154 1.25737,-0.0075 2.73737,-0.3243 3.28889,-0.703125 z M 129.90655,92.825995 c 0,-0.508202 -2.45545,-2.167383 -5.45656,-3.687068 -4.81904,-2.440253 -5.65329,-3.29068 -7.14068,-7.27912 C 115.2094,76.228802 114.25937,75 112.00577,75 c -2.91453,0 -3.20864,2.760092 -0.53417,5.013132 1.31758,1.109965 3.2863,3.824741 4.37494,6.032837 1.48607,3.014234 2.66567,4.152417 4.73347,4.567269 1.56165,0.313306 2.49586,0.971767 2.15762,1.520758 -0.32808,0.532514 -0.14982,0.691268 0.39615,0.352787 0.54596,-0.33848 1.97777,-0.219467 3.18179,0.264474 2.9016,1.166274 3.59098,1.180618 3.59098,0.07474 z m 226.1331,-2.59162 c 2.88945,-2.207553 4.62138,-4.257757 4.6548,-5.510208 0.0789,-2.955378 2.378,-4.429634 5.82852,-3.737374 1.63181,0.327381 2.68773,0.315185 2.34652,-0.0271 -0.34123,-0.342286 0.17863,-1.928712 1.1552,-3.52539 0.97659,-1.596678 4.53406,-8.935644 7.90549,-16.308814 6.10794,-13.357794 8.85302,-23.424865 6.14012,-22.51774 -0.6875,0.229884 -5.36904,7.944778 -10.40344,17.14421 -5.03438,9.199432 -9.85562,17.504584 -10.71387,18.455892 -1.36109,1.508694 -1.37607,1.729652 -0.11725,1.729652 0.79375,0 2.43603,0.827327 3.64952,1.838504 2.11416,1.761697 2.04218,1.758489 -1.72291,-0.07677 -4.30581,-2.098827 -6.21382,-1.85111 -10.19635,1.323784 -1.42861,1.138905 -4.92725,2.914486 -7.77475,3.945736 -5.37528,1.946712 -6.33412,3.310785 -5.28228,7.514732 0.47995,1.918219 0.969,2.142458 3.70227,1.697524 1.843,-0.300011 3.41526,-0.08093 3.79054,0.52817 1.02188,1.658608 2.14426,1.26393 7.03787,-2.474801 z m -153.72006,0.756442 c 0.54092,-1.709624 -2.60545,-9.428317 -3.84327,-9.428317 -1.27526,0 -11.56043,5.954787 -11.56043,6.693117 0,1.27959 1.65606,0.954049 5.71593,-1.123618 3.0105,-1.540642 4.048,-1.700983 5.13747,-0.793979 0.75083,0.625086 1.25498,1.810218 1.12032,2.633625 -0.28195,1.724124 0.84074,3.840855 2.03715,3.840855 0.44905,0 1.07582,-0.819758 1.39283,-1.821683 z m 284.16862,-8.92857 c -1.30682,-4.01587 -2.37604,-9.149743 -2.37604,-11.408608 0,-3.874708 -0.10592,-4.040676 -1.8724,-2.934047 -2.32693,1.457735 -4.86664,0.102191 -5.59324,-2.985331 -0.44538,-1.892579 -0.63207,-1.749813 -1.74346,1.333268 -1.09803,3.046053 -1.00773,4.414676 0.76655,11.617794 2.55894,10.388611 2.91422,10.99146 5.51679,9.36105 2.36835,-1.483683 4.74552,-0.390403 6.19678,2.849955 1.99772,4.460459 1.39823,-0.787088 -0.89498,-7.834081 z m -288.35736,6.118081 c 0,-1.306408 -1.71808,-2.134652 -2.90352,-1.399719 -0.72105,0.44703 -0.65029,0.885386 0.23365,1.447223 1.66831,1.060397 2.66987,1.042577 2.66987,-0.0475 z m -20.7687,-6.202238 c 4.25696,-2.991009 2.82102,-4.449307 -13.10981,-13.313947 -8.3528,-4.647882 -16.53285,-9.131533 -18.17789,-9.963668 -3.33747,-1.688251 -7.75669,-2.016116 -7.75669,-0.575475 0,0.515625 0.36796,0.9375 0.81769,0.9375 0.44974,0 8.33102,5.484375 17.51398,12.1875 9.18295,6.703125 17.13262,12.1875 17.66594,12.1875 0.53332,0 1.90437,-0.656735 3.04678,-1.45941 z m 223.9507,-7.74288 c 0.74846,-1.451885 3.02635,-3.797599 5.06198,-5.212698 2.71028,-1.884095 3.57504,-3.056601 3.23014,-4.379641 -0.46353,-1.778055 -0.51011,-1.778404 -2.93517,-0.02207 -4.9971,3.61911 -9.55688,9.070446 -8.9387,10.686442 0.87132,2.277693 2.03439,1.929578 3.58175,-1.07203 z m 82.23658,-9.054704 c 0.56651,-1.017908 2.64081,-4.368139 4.60955,-7.444956 1.96873,-3.076817 4.64518,-7.728357 5.94766,-10.336756 1.30248,-2.608399 3.01855,-5.483412 3.81351,-6.388917 1.74453,-1.987152 0.82977,-3.317346 -1.14863,-1.670284 -0.77248,0.643107 -3.83171,4.577995 -6.79829,8.744197 -2.96658,4.166202 -6.97088,9.337165 -8.89845,11.491028 -3.38785,3.785579 -4.22644,5.95116 -2.84219,7.339728 1.17328,1.176944 4.25636,0.171424 5.31684,-1.73404 z M 417.3579,63.032519 c 1.20796,-0.829727 2.59574,-4.283686 1.43102,-3.561605 -0.44871,0.278189 -1.26799,-1.281931 -1.82062,-3.466933 -1.26671,-5.008398 -13.74578,-18.028584 -16.32702,-17.034978 -2.32292,0.894175 -1.93,2.049131 1.26007,3.703938 3.5682,1.850952 11.18278,13.549435 11.18278,17.180398 0,3.691563 1.69363,4.951428 4.27377,3.17918 z m 62.39793,-3.194089 c 1.68601,-2.685836 -0.6558,-6.40093 -4.03484,-6.40093 -2.43725,0 -2.82378,0.342795 -2.82378,2.504305 0,4.870736 4.60483,7.486908 6.85862,3.896625 z m -69.85965,-6.076897 c -2.35894,-3.482345 -2.41953,-3.508977 -2.41953,-1.063569 0,1.517869 0.80801,3.075937 2.04642,3.946063 2.99162,2.101959 3.11322,1.162537 0.37311,-2.882494 z m 77.34649,-5.239611 c -0.31209,-0.506567 -1.15131,-0.284089 -1.9498,0.5169 -0.79603,0.798513 -1.09048,1.911666 -0.68134,2.575736 0.54222,0.880082 1.02473,0.752169 1.9498,-0.5169 0.67611,-0.927512 0.98271,-2.086594 0.68134,-2.575736 z M 230.84113,110.01037 c 0,-1.3693 1.0514,-3.8724 2.33645,-5.56245 1.28504,-1.69005 2.34982,-3.83924 2.36617,-4.775995 0.0164,-0.93675 0.63312,-2.502787 1.3706,-3.480094 1.23424,-1.635581 1.00887,-1.988128 -2.83346,-4.432474 -2.29588,-1.460559 -4.17434,-3.31169 -4.17434,-4.113626 0,-0.801934 1.01911,-3.475461 2.26468,-5.941172 1.24558,-2.465709 1.98156,-4.887501 1.63552,-5.38176 -1.74162,-2.487567 -20.74567,-14.041774 -31.32153,-19.043069 -12.09476,-5.71958 -14.17394,-7.762236 -8.48647,-8.337388 2.26392,-0.228941 16.59204,5.305458 37.42879,14.457292 1.1657,0.511993 1.3707,-0.425807 3.71477,-16.993384 0.87544,-6.1875 1.8877,-11.590247 2.24947,-12.006104 0.36178,-0.415857 -0.098,4.224768 -1.02173,10.3125 -0.92371,6.087732 -1.91651,12.630325 -2.20619,14.539097 -0.50884,3.352902 -0.40959,3.502925 2.92928,4.427714 1.90078,0.526472 3.55909,0.853781 3.68513,0.727354 0.12603,-0.126428 0.74953,-7.591037 1.38557,-16.588022 0.63603,-8.996985 1.3416,-15.800884 1.56793,-15.119776 0.22632,0.681108 -0.0876,7.988501 -0.69762,16.238653 l -1.10912,15.000276 2.63562,5.060052 c 2.16957,4.165305 3.06984,5.060445 5.09128,5.062279 3.74314,0.0034 4.73542,1.900001 4.00283,7.650893 -0.752,5.903249 -2.39163,9.498347 -5.24686,11.504482 -1.61888,1.137446 -1.82374,1.701577 -0.93992,2.588161 1.96216,1.968291 1.36753,7.708151 -1.03288,9.970271 -2.52534,2.37986 -6.82118,2.65726 -9.10089,0.5877 -1.44375,-1.31065 -1.74409,-1.30418 -3.11098,0.0669 -0.83212,0.83475 -1.51294,2.54226 -1.51294,3.7945 0,1.25222 -0.42056,2.27678 -0.93458,2.27678 -0.51402,0 -0.93458,-1.12033 -0.93458,-2.48963 z m 16.64909,-9.06017 c 0.32219,-3.925091 -1.01387,-6.2627 -3.57943,-6.2627 -1.87821,0 -2.78929,1.801097 -2.78929,5.51418 0,3.11561 1.68284,4.961 4.1947,4.59987 1.44471,-0.20771 1.94814,-1.09954 2.17402,-3.85135 z m 0.22511,-8.165491 c 2.76768,-1.485846 4.4526,-5.620936 4.78552,-11.744431 l 0.3029,-5.571528 -4.63919,0.247435 c -5.9313,0.316351 -8.06653,2.096315 -2.51473,2.096315 l 3.96759,0 -0.73354,3.515625 c -0.40344,1.933594 -0.73792,5.057371 -0.74328,6.941726 -0.006,1.884356 -0.36727,3.204448 -0.80426,2.933538 -0.43697,-0.27091 -0.53873,-2.656406 -0.22614,-5.301102 0.66987,-5.66745 0.1557,-6.661547 -3.84973,-7.442925 -3.646,-0.711261 -6.29714,1.418585 -5.49532,4.414772 0.2899,1.083288 0.53284,3.973522 0.53986,6.422741 l 0.0128,4.453125 3.79975,0 c 2.08987,0 4.60888,-0.434381 5.59781,-0.965291 z m -10.47537,-4.659421 c -0.0215,-2.788352 -0.40427,-4.459015 -0.94477,-4.123922 -0.49972,0.309811 -0.68284,1.153431 -0.40692,1.874713 0.29106,0.760853 -0.0812,1.311421 -0.88661,1.311421 -2.04126,0 2.71494,-9.057249 5.16599,-9.837615 2.24026,-0.71325 2.46501,-2.186786 0.45175,-2.961759 -0.79017,-0.304166 -2.30759,0.236418 -3.37204,1.201298 -2.16548,1.962916 -6.40623,9.869252 -6.40623,11.943596 0,1.00346 4.92378,5.146975 6.2549,5.263686 0.0991,0.0087 0.16384,-2.093452 0.14393,-4.671418 z M 241.1484,73.861782 C 242.1477,74.487802 243.81921,75 244.86289,75 c 1.85116,0 1.84117,-0.111659 -0.40822,-4.564485 -2.03039,-4.019303 -2.80727,-4.691153 -6.50435,-5.625 C 235.6411,64.227232 233.52547,63.75 233.2489,63.75 c -0.49904,0 0.0993,6.859997 0.97109,11.134286 l 0.45445,2.228036 2.32853,-2.19438 c 1.96491,-1.851703 2.61226,-2.016633 4.14543,-1.05616 z m -8.43811,-3.370098 c 0,-1.963949 -0.5257,-4.285381 -1.16823,-5.158736 -0.64252,-0.873356 -8.69266,-4.750865 -17.8892,-8.616684 -15.28511,-6.425181 -22.06407,-8.339097 -22.06407,-6.229382 0,0.43966 5.18153,3.217135 11.51452,6.172168 6.33299,2.955032 15.48018,8.073519 20.3271,11.374417 4.84692,3.300898 8.91773,6.007797 9.04623,6.015332 0.12851,0.0075 0.23365,-1.593167 0.23365,-3.557115 z m 65.88785,18.481455 c -9.60282,-1.377043 -12.46711,-2.130309 -13.66461,-3.593594 -1.49849,-1.831105 -1.5386,-1.826215 -3.66758,0.447051 -1.64129,1.752535 -3.11264,2.298404 -6.1952,2.298404 -5.41621,0 -8.20313,-2.652487 -7.48048,-7.11961 0.61021,-3.772006 -0.91538,-5.265985 -1.7935,-1.756342 -0.4268,1.705807 -0.91035,2.152635 -1.59084,1.470023 -0.68048,-0.682614 -0.65056,-1.700848 0.0985,-3.34989 1.09503,-2.410836 2.83312,-3.021243 4.43394,-1.557164 0.48831,0.446608 2.78037,0.552076 5.09345,0.234375 3.90283,-0.536055 4.21404,-0.783259 4.32272,-3.433604 0.0644,-1.570778 0.63311,-5.924792 1.26379,-9.675587 1.20576,-7.170879 2.74753,-9.041409 5.32293,-6.457965 1.21468,1.218478 1.25567,2.210874 0.28503,6.901007 -0.62351,3.012834 -1.32827,6.12152 -1.56612,6.908192 -0.23785,0.786673 0.67893,0.16469 2.03727,-1.382185 2.56199,-2.917564 20.10654,-37.048803 20.11473,-39.131252 0.003,-0.649686 0.9867,-2.412426 2.18701,-3.917199 2.43256,-3.049613 5.28498,-2.8569 5.28498,0.35706 0,1.044288 -2.71703,9.160135 -6.03784,18.035217 -3.3208,8.875081 -5.91533,16.2594 -5.7656,16.409598 0.14973,0.150197 8.18376,1.140029 17.8534,2.199627 12.82812,1.405703 18.5723,2.433763 21.24731,3.802718 7.11185,3.639531 4.54743,4.14538 -19.09286,3.766192 l -22.01008,-0.353039 -4.2907,5.48389 c -2.3599,3.01614 -3.95518,5.820476 -3.54508,6.231858 0.4101,0.411382 6.18318,1.42477 12.82906,2.251976 6.64588,0.827206 12.50398,1.90309 13.018,2.390853 1.1578,1.09867 -2.7833,4.55412 -5.01007,4.392691 -0.84259,-0.06108 -6.99928,-0.895069 -13.68152,-1.853301 z m 16.41658,0.05637 c 0.99424,-0.533763 1.80772,-1.321189 1.80772,-1.749834 0,-0.428645 -4.73131,-1.312856 -10.51402,-1.964915 -5.78271,-0.652058 -12.35623,-1.798471 -14.60782,-2.547583 -3.65396,-1.215687 -4.25213,-1.203202 -5.56742,0.116203 -2.42745,2.435035 -0.33788,3.293905 12.53209,5.151024 15.24282,2.199518 14.22177,2.137371 16.34945,0.995109 z m -34.20767,-3.679238 c 2.18174,-2.418327 1.27504,-7.473961 -1.00063,-5.579417 -1.33782,1.113769 -4.10548,5.766213 -4.10548,6.901338 0,1.271456 3.60949,0.336998 5.10611,-1.321917 z m 8.06938,-4.862866 c 0.82128,-0.182139 3.42765,-2.723717 5.79192,-5.647951 3.6397,-4.501724 4.09132,-5.489427 2.94602,-6.442917 -1.7846,-1.485716 -1.71212,-3.631736 0.19404,-5.744598 1.45399,-1.611665 1.4232,-1.714441 -0.5137,-1.714441 -2.29884,0 -7.57507,2.476707 -7.57507,3.555802 0,1.19791 -8.50272,10.506698 -9.5969,10.506698 -0.5724,0 -0.36557,-0.527344 0.45962,-1.171875 1.65659,-1.293922 4.98891,-15.030808 4.02552,-16.594488 -0.69164,-1.122586 -3.29793,-1.343966 -3.30244,-0.280512 -0.002,0.386719 -0.65006,4.413869 -1.44092,8.949222 l -1.43792,8.246097 3.00116,4.64605 c 2.64601,4.096238 3.17596,4.490908 4.4783,3.335062 0.81242,-0.721041 2.14908,-1.460008 2.97037,-1.642145 z m 54.11424,-10.938771 c 0,-2.171304 -7.7163,-3.992577 -24.76859,-5.84611 -19.21683,-2.088811 -21.02581,-1.923409 -21.02581,1.922474 0,3.259844 2.18385,3.701708 19.69576,3.985096 9.47107,0.153266 19.21779,0.374007 21.65938,0.490535 2.44159,0.116528 4.43926,-0.131869 4.43926,-0.551995 z m -45.84869,-9.506988 3.28022,-0.534851 5.81936,-15.456523 c 3.20065,-8.501089 5.8393,-16.436676 5.86367,-17.63464 0.0584,-2.869348 -2.46841,-2.39187 -4.08467,0.771866 -3.44751,6.748297 -16.43177,33.837172 -16.43177,34.281381 0,0.284226 0.51143,0.199715 1.13648,-0.187803 0.62507,-0.387519 2.61259,-0.945262 4.41671,-1.23943 z M 237.86312,29.179687 c 0.25006,-1.740234 0.45465,-4.15936 0.45465,-5.375834 0,-1.216474 1.23356,-3.589521 2.74125,-5.273437 3.98832,-4.45451 5.1575,-2.815919 3.92089,5.495048 l -0.95871,6.443286 0.4759,-6.796875 c 0.2922,-4.173215 0.11949,-6.796875 -0.44744,-6.796875 -1.72919,0 -4.79703,4.931134 -4.89047,7.860805 -0.0512,1.606244 -0.46611,3.975132 -0.92194,5.264195 -0.70844,2.003458 -0.76277,1.884356 -0.37413,-0.820313 z"
       id="path3406"
       inkscape:connector-curvature="0" />
  </g>
</svg>
