<?xml version="1.0" encoding="UTF-8" standalone="no"?>
<!-- Created with Inkscape (http://www.inkscape.org/) -->

<svg
   xmlns:dc="http://purl.org/dc/elements/1.1/"
   xmlns:cc="http://creativecommons.org/ns#"
   xmlns:rdf="http://www.w3.org/1999/02/22-rdf-syntax-ns#"
   xmlns:svg="http://www.w3.org/2000/svg"
   xmlns="http://www.w3.org/2000/svg"
   xmlns:sodipodi="http://sodipodi.sourceforge.net/DTD/sodipodi-0.dtd"
   xmlns:inkscape="http://www.inkscape.org/namespaces/inkscape"
   id="svg3396"
   version="1.1"
   inkscape:version="0.91 r13725"
   width="419.62616"
   height="231.5625"
   viewBox="0 0 419.62616 231.5625"
   sodipodi:docname="bb930901.svg">
  <metadata
     id="metadata3402">
    <rdf:RDF>
      <cc:Work
         rdf:about="">
        <dc:format>image/svg+xml</dc:format>
        <dc:type
           rdf:resource="http://purl.org/dc/dcmitype/StillImage" />
        <dc:title></dc:title>
      </cc:Work>
    </rdf:RDF>
  </metadata>
  <defs
     id="defs3400" />
  <sodipodi:namedview
     pagecolor="#ffffff"
     bordercolor="#666666"
     borderopacity="1"
     objecttolerance="10"
     gridtolerance="10"
     guidetolerance="10"
     inkscape:pageopacity="0"
     inkscape:pageshadow="2"
     inkscape:window-width="1430"
     inkscape:window-height="819"
     id="namedview3398"
     showgrid="false"
     inkscape:zoom="1.3840756"
     inkscape:cx="160.60757"
     inkscape:cy="157.07349"
     inkscape:window-x="0"
     inkscape:window-y="0"
     inkscape:window-maximized="0"
     inkscape:current-layer="svg3396" />
  <g
     id="g3406"
     transform="translate(2.5700863,0.43535317)">
    <path
       style="fill:#fefefe"
       d="m 167.28972,210.46875 0,-3.28125 114.95327,0 114.95326,0 0,3.28125 0,3.28125 -114.95326,0 -114.95327,0 0,-3.28125 z m 188.18587,-5.63169 c -0.29856,-0.78046 1.20452,-4.35943 3.35787,-7.99538 l 3.89836,-6.58244 -2.72214,-3.48899 c -6.37389,-8.16945 -7.79223,-11.02175 -6.79242,-13.65967 1.47233,-3.88462 5.08505,-3.3639 7.92039,1.14159 1.96688,3.12548 2.31307,4.90841 2.50293,12.89062 0.17537,7.37239 -0.11985,9.91943 -1.44608,12.47675 -1.5286,2.94753 -1.54139,3.30501 -0.15477,4.32211 2.36911,1.73775 1.81146,2.30835 -2.25598,2.30835 -2.49481,0 -3.95025,-0.47734 -4.30816,-1.41294 z m 9.28033,-10.07312 c -0.10854,-6.31548 -0.66291,-17.08454 -1.23193,-23.93127 -0.76563,-9.21256 -0.76005,-13.28294 0.0214,-15.65833 1.18178,-3.59201 3.65581,-4.85204 6.51402,-3.31759 1.85964,0.99836 1.88877,1.49317 1.20353,20.44256 -0.38624,10.68069 -0.70225,21.94449 -0.70225,25.03066 0,5.46417 0.0715,5.62386 2.72664,6.09375 1.49965,0.2654 2.90152,1.00987 3.11527,1.6544 0.28364,0.8553 -1.2104,1.17142 -5.53038,1.17019 l -5.91896,-0.002 -0.19734,-11.48269 z m 8.14127,-34.99437 c 0,-2.4507 0.007,-2.45287 5.69597,-1.79052 4.49715,0.52359 6.47066,0.31273 9.3768,-1.00185 2.72546,-1.23286 3.95357,-1.3914 4.73171,-0.61083 2.14602,2.15273 -0.9637,3.77514 -8.40821,4.38675 -3.95487,0.32491 -8.13693,0.78861 -9.29347,1.03043 -1.7567,0.3673 -2.1028,0.0358 -2.1028,-2.01398 z m 0,-5.01403 c 0,-1.93552 4.09264,-5.69304 6.2008,-5.69304 1.5978,0 1.71425,4.81021 0.15434,6.375 -0.61682,0.61875 -2.29907,1.125 -3.73832,1.125 -1.96092,0 -2.61682,-0.45291 -2.61682,-1.80696 z m -71.27126,-6.50871 -1.61653,-4.56568 3.17112,-6.9187 c 3.03446,-6.62052 4.95798,-12.59327 8.46745,-26.2923 1.36221,-5.31735 2.00386,-6.41607 4.30541,-7.37238 3.28271,-1.36399 5.24621,-0.72723 6.50722,2.1103 0.8034,1.8078 -0.12861,4.20933 -6.07072,15.64257 -8.4644,16.28639 -10.78241,22.25817 -10.78241,27.77828 0,5.63793 -1.91516,5.45414 -3.98154,-0.38209 z m -284.8035,-0.58472 0,-3.28711 71.554538,0 71.554542,0 -0.29286,3.04687 -0.29286,3.04688 -71.26168,0.24023 -71.26168,0.24023 0,-3.2871 z m 69.859811,-7.15948 c -2.157821,-1.76829 -3.504673,-3.68036 -3.504673,-4.97547 0,-3.39148 3.774245,-20.60081 4.731484,-21.57403 1.612877,-1.63982 0.900387,-4.84399 -2.111455,-9.49553 -3.849486,-5.945194 -7.292926,-10.1757 -7.292926,-8.959856 0,0.524756 0.454648,1.235962 1.010329,1.580465 0.555682,0.344503 1.761267,1.865044 2.679078,3.378981 1.472252,2.42849 1.523187,3.16159 0.432562,6.22584 -0.679903,1.91027 -1.254647,4.15984 -1.277209,4.99906 -0.06524,2.42689 -2.197079,3.62615 -11.454862,6.44388 -7.873728,2.39647 -8.788085,2.50244 -9.847841,1.1412 -1.64801,-2.1168 -1.467952,-2.79852 0.934579,-3.53835 1.156542,-0.35614 4.724563,-1.8662 7.928934,-3.35567 4.635605,-2.15475 5.935412,-3.23266 6.360929,-5.27503 2.896952,-13.904484 5.676656,-20.935471 8.216267,-20.782228 4.177402,0.25207 4.810318,1.276721 9.755056,15.792858 l 2.368281,6.95251 -4.003148,11.79749 c -2.201732,6.48863 -4.169092,12.23601 -4.371912,12.77196 -0.202819,0.53594 1.11421,2.71238 2.926733,4.83652 1.812522,2.12414 3.295495,4.11142 3.295495,4.41617 0,1.46917 -3.637191,0.19117 -6.775701,-2.38077 z m 61.915889,0.94819 c -1.79907,-1.08882 -3.37887,-2.07432 -3.51067,-2.19001 -0.13181,-0.11569 -0.85147,-5.1578 -1.59926,-11.20469 -1.12511,-9.09808 -1.87267,-11.91323 -4.33431,-16.32209 C 129.33354,94.145522 129.60688,94.817166 131.24731,92.305718 132.19126,90.860564 133.6372,90 135.12145,90 c 2.03641,0 2.80804,0.968489 5.50952,6.915019 5.03981,11.093691 6.07432,15.069561 7.05548,27.116101 0.91393,11.22116 0.97011,11.4186 4.19004,14.72642 1.79503,1.84402 3.26369,3.65138 3.26369,4.01636 0,1.29818 -3.32053,0.62663 -6.54205,-1.32308 z m 210.74766,-17.84097 c -9.16088,-10.68391 -10.79423,-13.92235 -7.02189,-13.92235 1.21308,0 2.29862,1.06117 3.13181,3.06152 1.35632,3.25626 6.49592,8.24238 11.6256,11.27842 2.45588,1.45354 3.05283,2.36053 2.8288,4.29806 -0.55515,4.80122 -3.55059,3.46413 -10.56432,-4.71565 z m -21.58907,1.29767 c -3.42925,-2.29693 -3.77503,-8.3797 -1.15827,-20.37627 1.19474,-5.477288 3.05669,-7.96875 5.95532,-7.96875 3.38519,0 4.69153,2.351128 2.86234,5.15155 -0.84369,1.29165 -1.96629,2.34845 -2.4947,2.34845 -2.70001,0 -5.00271,13.25306 -3.29848,18.98438 0.75932,2.55358 0.11999,3.191 -1.86621,1.86064 z M 46.728971,123.0078 c 0,-0.40822 2.303301,-1.87538 5.118446,-3.26037 4.947036,-2.43384 5.150472,-2.45814 6.074766,-0.72568 1.35961,2.54839 1.381419,2.52329 -3.195848,3.67946 -4.867358,1.22944 -7.997364,1.34944 -7.997364,0.30659 z m 320.249219,0.1172 c -2.16044,-2.16719 1.4413,-7.8125 4.98442,-7.8125 1.44366,0 1.86916,0.625 1.86916,2.74553 0,4.12932 -4.48374,7.44421 -6.85358,5.06697 z m -122.02441,-9.24512 c -2.21056,-2.00335 -4.9989,-6.16221 -7.07122,-10.54688 C 233.55498,94.176619 226.55151,81.892804 223.69221,78.443695 219.94079,73.918437 221.15627,65.625 225.5709,65.625 c 3.68186,0 6.00077,3.82016 12.84152,21.155056 3.64929,9.247535 8.0648,19.385484 9.81225,22.528784 1.74746,3.1433 3.17719,6.20189 3.17719,6.79688 0,2.0447 -2.8038,1.07685 -6.44808,-2.22584 z m 103.87316,-11.92675 c -0.51405,-0.64454 -1.22472,-2.121099 -1.57928,-3.281255 -0.57943,-1.895972 -0.32839,-2.109375 2.48141,-2.109375 3.79907,0 7.28027,2.266828 7.28027,4.74066 0,1.49089 -0.6583,1.82184 -3.62389,1.82184 -1.99313,0 -4.04447,-0.52734 -4.55851,-1.17187 z m -78.11043,-0.39063 c -1.24844,-1.25234 -0.57945,-5.686484 1.08605,-7.198447 2.67262,-2.426256 6.03814,-1.958246 7.43485,1.033884 1.10656,2.370582 0.99737,2.734744 -1.40187,4.675533 -2.5359,2.05133 -5.86445,2.74754 -7.11903,1.48903 z m 9.61738,-5.517012 c -1.01029,-1.221141 -0.56795,-2.65081 2.75684,-8.91028 l 3.96023,-7.455762 -1.46775,-7.119443 C 284.08033,65.270114 284.22191,63.75 286.40376,63.75 c 1.42423,0 2.65261,2.551157 1.85315,3.848744 -0.2938,0.476873 -0.0229,3.158734 0.60194,5.959692 0.9604,4.304873 0.88428,6.369236 -0.49205,13.345232 -0.89551,4.53892 -2.06037,8.779926 -2.58857,9.424457 -1.31887,1.609322 -3.99393,1.47045 -5.44434,-0.282637 z M 140.22616,93.823547 c -0.53561,-1.003903 -0.97383,-2.644506 -0.97383,-3.645779 0,-1.108407 6.62298,-8.484727 16.93201,-18.857959 9.31261,-9.370604 17.07325,-16.895779 17.24589,-16.72261 0.17263,0.173168 -0.30491,2.432286 -1.06119,5.020263 -0.98915,3.384852 -2.68171,5.996442 -6.03092,9.305607 -2.56074,2.530108 -4.65588,4.982791 -4.65588,5.450406 0,1.155389 -16.68284,19.235614 -18.79543,20.369769 -1.29688,0.696243 -1.91196,0.483628 -2.66065,-0.919697 z M 66.355139,87.619538 c 0,-1.757283 2.752456,-5.254623 10.514018,-13.359375 10.898293,-11.380178 14.719626,-13.768567 14.719626,-9.199981 0,1.67039 -0.987363,3.04525 -3.337331,4.647085 C 83.266963,73.104899 69.158877,87.103966 69.158877,88.652305 69.158877,89.393538 68.528036,90 67.757008,90 66.878969,90 66.355139,89.110504 66.355139,87.619538 Z M 298.04601,84.543483 c -4.08209,-1.749681 -7.00445,-5.483143 -8.13036,-10.386969 -0.63926,-2.784228 -0.958,-5.267157 -0.70833,-5.517616 0.24968,-0.25046 1.41336,0.166432 2.58594,0.926427 1.17258,0.759994 4.15171,2.14854 6.62029,3.085654 6.92628,2.629343 8.94277,6.67493 5.28835,10.609745 -1.96788,2.118879 -3.10401,2.376554 -5.65589,1.282759 z M 66.355139,76.04136 c 0,-1.93624 3.733347,-4.931444 10.631364,-8.529369 4.048185,-2.111487 7.594205,-3.604467 7.880044,-3.317734 0.956236,0.959225 -5.676478,6.961665 -8.341474,7.548825 -1.447171,0.318845 -4.135827,1.603964 -5.974791,2.855819 -3.672209,2.499816 -4.195143,2.679622 -4.195143,1.442459 z M 273.83177,68.723827 c -5.91121,-3.435092 -13.4566,-7.361655 -16.7675,-8.725695 -9.35817,-3.855403 -8.31361,-5.979172 1.81423,-3.688653 6.46305,1.461686 24.22857,9.46747 24.68698,11.124843 0.81194,2.935565 1.62249,7.565317 1.32186,7.550402 -0.16935,-0.0084 -5.14435,-2.825805 -11.05557,-6.260897 z M 128.66044,70.625 c -1.19508,-1.198806 -0.61087,-4.719773 1.01245,-6.102073 0.89954,-0.76597 3.72648,-2.167614 6.28209,-3.114763 2.55562,-0.947149 6.59456,-3.549894 8.97543,-5.783877 3.9134,-3.671965 7.40604,-5.240786 7.40604,-3.326637 0,1.655139 -10.14358,10.492902 -14.59872,12.719377 -2.79452,1.396568 -4.99397,3.190758 -5.28634,4.312306 -0.48622,1.865123 -2.52771,2.56286 -3.79095,1.295667 z m 104.04984,-0.88798 c 0,-0.83214 -0.8805,-3.084501 -1.95666,-5.005249 l -1.95664,-3.492269 9.35674,-18.197877 c 5.14621,-10.008831 9.87832,-19.990844 10.5158,-22.18225 0.63748,-2.191406 1.45872,-3.984375 1.82498,-3.984375 0.36626,0 0.95249,2.540677 1.30271,5.645947 0.52833,4.684441 0.33794,6.081435 -1.11798,8.203125 -0.96511,1.406448 -2.21131,3.822803 -2.76932,5.369678 -0.55802,1.546875 -3.86235,10.089844 -7.34298,18.984375 -5.80708,14.839667 -7.85665,18.663743 -7.85665,14.658895 z M 91.775699,62.625 c -2.498908,-2.506718 -0.560463,-6.375 3.194589,-6.375 5.028448,0 6.657842,2.918855 3.320607,5.948449 -2.007766,1.822683 -4.932526,2.014167 -6.515196,0.426551 z m 34.579441,0 c -1.51838,-1.523116 -1.41595,-5.612695 0.19596,-7.823995 1.29282,-1.77356 1.354,-1.774194 3.27103,-0.03388 2.40894,2.186874 2.5137,5.371285 0.24447,7.431328 -2.04038,1.852281 -2.2645,1.878039 -3.71146,0.426551 z m 71.82651,-8.957707 -2.13475,-1.734021 2.02667,-7.451011 c 1.11467,-4.098056 3.01344,-8.927574 4.2195,-10.732261 1.20606,-1.804687 2.48111,-4.254461 2.83347,-5.443941 0.39734,-1.341391 1.23141,-2.049801 2.1963,-1.865423 2.6583,0.507968 2.27325,4.085834 -0.93039,8.645073 -2.65064,3.772253 -3.04082,5.062807 -2.93582,9.710491 0.0666,2.948027 0.26238,6.414737 0.43504,7.7038 0.40384,3.01497 -2.6634,3.642003 -5.71002,1.167293 z m -9.81091,-6.063392 c -2.41952,-3.465158 -1.84741,-5.257566 1.90347,-5.963433 4.31149,-0.811369 7.05327,1.575919 6.281,5.468907 -0.43505,2.193039 -0.97583,2.578125 -3.62051,2.578125 -2.15339,0 -3.5563,-0.640478 -4.56396,-2.083599 z"
       id="path3416"
       inkscape:connector-curvature="0" />
    <path
       style="fill:#007f7f"
       d="m 351.41564,172.44485 c -0.0158,-2.74902 5.60658,-12.70935 8.59938,-15.2343 1.85895,-1.56836 2.02285,-2.65974 2.18227,-14.53125 0.21155,-15.75448 0.11358,-15.09716 1.87439,-12.5754 2.75375,3.94383 7.6281,1.65267 6.71194,-3.15491 -0.39117,-2.05262 -0.26432,-2.23609 0.80463,-1.16381 1.0034,1.00654 1.14559,3.86094 0.67938,13.63798 -0.55965,11.73673 -0.67915,12.31695 -2.35178,11.419 -5.14885,-2.76419 -8.78631,3.49004 -7.81003,13.42856 0.72341,7.36444 0.15391,9.04415 -2.30845,6.80877 -2.3149,-2.1015 -5.76243,-1.42039 -7.19012,1.42051 l -1.17784,2.34375 -0.0137,-2.3989 z m -27.39091,-64.61877 c 0.23133,-0.8874 -0.62768,-2.8355 -1.90891,-4.32914 -2.18611,-2.54851 -2.5175,-2.6446 -5.38317,-1.56094 -1.67951,0.63511 -2.64657,0.7464 -2.14903,0.2473 2.47923,-2.486981 26.95168,-9.194116 29.69446,-8.138325 2.41602,0.930009 1.7541,2.303119 -0.86787,1.800328 -3.0721,-0.589106 -6.58209,2.612578 -7.34678,6.701487 -0.51171,2.73617 -1.10998,3.19124 -6.51139,4.95286 -5.4527,1.77834 -5.9129,1.80552 -5.52731,0.32643 z M 283.17756,99.375 c -1.22608,-0.794831 -1.21495,-0.910584 0.0888,-0.923147 2.28221,-0.02194 4.35534,-2.894147 5.0855,-7.045603 0.36276,-2.0625 1.73562,-4.906919 3.0508,-6.320931 2.09067,-2.247775 2.5757,-2.404256 3.85877,-1.244916 2.75448,2.488852 6.27155,2.746829 8.39589,0.615839 1.07259,-1.075933 1.95016,-1.513417 1.95016,-0.972186 0,3.728766 -8.60465,13.032507 -14.22232,15.377813 -3.9887,1.665231 -6.21562,1.804461 -8.20759,0.513131 z M 77.570092,90.827452 c 0,-0.81554 1.254029,-3.339254 2.786732,-5.608251 1.833407,-2.714159 2.792549,-5.312718 2.803738,-7.596038 0.01498,-3.058029 0.524389,-3.820766 4.28529,-6.416421 2.347557,-1.620208 4.6118,-3.85532 5.031652,-4.966913 0.631142,-1.671003 0.881703,-1.248299 1.44655,2.440382 0.791916,5.171459 0.499299,6.800492 -2.486852,13.844602 -2.132099,5.02947 -2.264557,5.146453 -4.527064,3.998195 -3.534195,-1.793659 -4.396523,-1.510539 -6.969905,2.288369 -1.314047,1.939835 -2.370141,2.838165 -2.370141,2.016075 z m 52.336448,-1.939404 c 0,-1.802654 -0.6216,-5.348508 -1.38133,-7.879675 -1.83291,-6.106657 -2.79626,-15.000386 -1.69851,-15.68095 0.48993,-0.303742 0.70684,0.591154 0.4947,2.041041 -0.68029,4.6496 4.86846,6.549113 6.03699,2.066656 0.70614,-2.708728 2.99306,-3.186044 3.49831,-0.730155 0.23493,1.141957 0.68976,6.34775 1.01072,11.568429 l 0.58357,9.492145 -2.43582,-0.467091 c -1.55514,-0.298214 -3.09976,0.135655 -4.27222,1.200032 -1.79222,1.627007 -1.83641,1.588256 -1.83641,-1.610432 z m 88.31663,-19.644763 c -2.09745,-4.475096 -2.47349,-4.733694 -10.22198,-7.029371 -3.05261,-0.90441 -6.9428,-2.870918 -8.64486,-4.370016 -3.4737,-3.05948 -4.22197,-5.30479 -1.01754,-3.053308 4.52208,3.177284 8.17672,0.733683 6.42812,-4.298029 -0.57036,-1.641258 -0.81309,-3.208736 -0.5394,-3.483283 1.90716,-1.913118 22.92764,13.121113 26.02804,18.615722 l 1.85148,3.28125 -2.32871,-2.109375 c -4.17378,-3.780679 -7.90334,-2.316853 -9.10427,3.573364 l -0.58284,2.858681 -1.86804,-3.985635 z"
       id="path3412"
       inkscape:connector-curvature="0" />
    <path
       style="fill:#fe0000"
       d="m 74.766354,131.26564 c -6.848896,-1.47873 -12.193077,-4.7069 -14.912043,-9.00766 -3.284116,-5.1947 -5.148553,-9.6347 -4.372632,-10.41304 0.326197,-0.32721 0.698226,-0.41916 0.826731,-0.20432 0.128505,0.21485 1.621468,3.19013 3.317696,6.61174 2.840319,5.72945 3.505059,6.41017 8.411215,8.61343 2.92994,1.31578 7.527098,2.68284 10.215908,3.03793 2.68881,0.35508 4.661653,1.01419 4.384096,1.46469 -0.580267,0.94183 -3.190664,0.90774 -7.870971,-0.10277 z m 14.018691,-0.84185 c 0,-0.45441 1.997664,-1.32365 4.439252,-1.93163 7.222183,-1.79842 14.311713,-5.37111 13.721233,-6.91467 -0.34632,-0.9053 0.34497,-1.55212 2.11088,-1.97509 1.4442,-0.34592 3.36181,-0.84827 4.26134,-1.11635 2.50378,-0.74616 1.99026,1.63883 -1.14103,5.29936 -2.13521,2.4961 -2.96941,2.95577 -3.61154,1.99003 -0.67652,-1.01747 -1.61288,-0.85688 -4.93373,0.84611 -3.54134,1.81607 -12.019785,4.58358 -14.14547,4.61732 -0.385514,0.007 -0.700935,-0.36066 -0.700935,-0.81508 z M 308.73883,97.495547 c 2.72556,-3.249272 3.93096,-9.020474 3.74994,-17.953821 -0.13236,-6.531822 -2.30391,-11.857293 -7.39503,-18.135476 -2.15853,-2.661816 -2.28097,-2.699486 -2.28536,-0.703125 -0.003,1.160156 -0.38926,2.109375 -0.85933,2.109375 -0.89782,0 -5.95154,-8.485008 -5.3895,-9.048798 0.17883,-0.179391 2.70833,0.153941 5.62111,0.740741 5.15293,1.038089 6.77299,2.234024 3.85894,2.848691 -1.09143,0.230218 -0.25287,2.106831 3.4868,7.803116 4.90648,7.473572 4.92385,7.526428 4.92907,15 0.003,4.125 -0.32123,9.069612 -0.72025,10.988028 -0.7312,3.515463 -4.69244,9.168222 -6.42475,9.168222 -0.51402,0 0.12874,-1.267631 1.42836,-2.816953 z"
       id="path3410"
       inkscape:connector-curvature="0" />
    <path
       style="fill:#000000"
       d="m 84.446271,213.76033 68.091129,-0.47908 -21.82945,-28.19188 c -12.0062,-15.50554 -22.66525,-29.32195 -23.68678,-30.70313 l -1.85734,-2.51124 -44.404344,-0.22558 c -38.545809,-0.19583 -34.971529,-0.28859 27.09098,-0.70313 l 71.495324,-0.47754 0.29286,-3.04688 0.29286,-3.04687 -71.788186,-0.21782 c -57.627741,-0.17484 -64.644507,-0.31354 -35.572393,-0.70312 l 36.21579,-0.48531 -3.271866,-2.61809 c -2.033135,-1.62688 -3.271866,-3.43377 -3.271866,-4.77254 0,-3.42986 3.766343,-20.64373 4.731484,-21.62499 1.298414,-1.32011 1.066633,-3.98894 -0.632719,-7.28538 -1.68906,-3.2765 -2.458623,-2.63599 -3.628229,3.01975 -1.022366,4.94375 -2.786293,6.3048 -11.581224,8.93609 -4.426504,1.32433 -8.679031,2.62267 -9.450059,2.88519 -0.878495,0.2991 -1.052953,0.16258 -0.46729,-0.36571 0.514019,-0.46366 4.299065,-1.80031 8.411215,-2.97034 8.618531,-2.45224 11.665431,-4.11495 11.723264,-6.39746 0.02256,-0.89046 0.589055,-3.1579 1.258875,-5.03875 1.314455,-3.69098 0.953913,-4.93006 -2.737148,-9.406761 l -2.072794,-2.51399 -1.145104,5.795241 c -0.629806,3.18739 -1.342232,6.53947 -1.583166,7.44908 -0.41992,1.58534 -9.442554,6.37969 -14.322432,7.6105 l -2.336448,0.58929 2.336448,-1.1089 c 1.285047,-0.6099 4.649533,-2.152 7.476636,-3.42687 2.827102,-1.27489 5.273473,-2.42353 5.436379,-2.55253 0.662622,-0.52475 2.974836,-13.312214 2.974836,-16.452029 0,-2.19795 0.971834,-4.813594 2.786731,-7.50035 1.532702,-2.268998 2.794384,-5.349213 2.803739,-6.844921 l 0.01701,-2.71947 -5.027785,4.59447 c -2.765281,2.526958 -5.740694,5.990414 -6.612028,7.696569 -1.890795,3.702358 -4.575188,3.717489 -5.002253,0.0282 -0.225038,-1.94404 0.957174,-3.812776 5.480987,-8.663859 5.951776,-6.38235 5.725323,-8.033136 -0.518876,-3.782466 -4.403096,2.99736 -6.53986,1.79693 -3.668503,-2.060958 1.815365,-2.439088 14.606322,-9.785766 19.006823,-10.91686 1.92172,-0.493953 2.077088,-0.796853 1.047226,-2.041639 -0.728927,-0.881049 -1.008823,-2.700715 -0.70464,-4.581032 0.277547,-1.715668 0.138322,-3.713948 -0.309388,-4.440624 -0.668855,-1.08561 -1.065299,-0.987668 -2.22307,0.549206 -0.774975,1.028738 -1.422423,2.186839 -1.438771,2.573558 -0.01635,0.386719 -0.495875,0.703125 -1.065617,0.703125 -1.188179,0 -0.326212,-4.447382 1.225464,-6.322881 1.315618,-1.590176 3.99879,-1.486145 5.401609,0.209431 0.833352,1.007265 1.614799,1.13549 2.856732,0.46875 7.247015,-3.890603 14.174627,7.238385 8.080641,12.981281 -1.189673,1.121131 -2.655187,2.038419 -3.256701,2.038419 -0.774598,0 -0.928336,1.586659 -0.526972,5.438726 0.455804,4.374536 0.199075,6.163074 -1.312074,9.140625 -1.033316,2.036045 -2.391278,5.422992 -3.01769,7.526548 -1.002362,3.366033 -0.915682,4.265363 0.722865,7.500004 1.023988,2.021438 2.592208,6.296837 3.484946,9.500877 l 1.62314,5.82553 -3.516705,9.90145 c -1.93419,5.44578 -3.671619,9.74604 -3.860953,9.55611 -0.189333,-0.18993 1.204984,-4.7419 3.098485,-10.11551 l 3.442725,-9.77019 -2.389196,-7.01772 C 89.100293,89.945781 88.100231,87.770484 86.318538,87.067735 83.227267,85.848451 82.431232,86.1919 80.28879,89.669278 c -2.368633,3.844504 -2.743838,2.721541 4.524292,13.540872 3.908949,5.81886 4.822217,8.98789 3.09597,10.74298 -0.959128,0.97515 -4.731484,18.18555 -4.731484,21.58619 0,2.31547 6.20555,7.89818 8.77935,7.89818 1.900931,0 1.926108,-1.29153 0.05553,-2.84882 -3.322168,-2.76577 -5.233058,-6.45081 -4.227894,-8.15324 0.872038,-1.47695 0.952926,-1.43348 0.754943,0.40571 -0.127355,1.1831 1.170593,3.8616 3.049287,6.29264 l 3.271028,4.23273 27.570098,0.0197 27.57009,0.0197 -3.03738,-1.95128 c -1.67056,-1.07319 -3.03739,-2.03134 -3.03739,-2.12921 0,-0.0979 -0.61452,-5.14722 -1.3656,-11.22079 -1.13055,-9.14201 -1.87717,-11.95993 -4.33748,-16.37061 -9.24175,-16.568066 -9.20734,-16.488454 -9.22896,-21.350656 -0.0117,-2.625082 -0.64282,-6.843832 -1.40255,-9.375 -0.75975,-2.531149 -1.59075,-7.133354 -1.84672,-10.227104 -0.46169,-5.580519 -0.45497,-5.5694 0.84938,1.40625 0.7231,3.867187 1.7644,8.505027 2.31399,10.306311 0.54959,1.801283 0.99925,4.714324 0.99925,6.473426 0,3.11997 0.0451,3.157502 1.83641,1.531243 1.17246,-1.064377 2.71708,-1.498246 4.27222,-1.200032 l 2.43582,0.467091 -0.58357,-9.492145 c -0.32096,-5.220679 -0.77579,-10.426472 -1.01072,-11.568429 -0.50525,-2.455889 -2.79217,-1.978573 -3.49831,0.730155 -1.14207,4.38094 -6.72013,2.602395 -6.05681,-1.931195 0.31335,-2.141676 0.006,-2.473393 -2.46813,-2.662492 -1.55435,-0.118808 -3.81056,-0.863082 -5.01381,-1.653945 -2.51624,-1.653858 -4.86637,-0.447988 -4.86637,2.496976 0,0.937684 -0.42056,1.965612 -0.93458,2.284286 -0.54337,0.336867 -0.93458,-0.592583 -0.93458,-2.220378 0,-1.869812 0.77607,-3.41215 2.33645,-4.643378 1.28505,-1.013977 2.33645,-2.732097 2.33645,-3.818044 0,-2.824302 3.27803,-5.72445 6.47034,-5.72445 1.59554,0 3.96295,1.038978 5.69105,2.49762 2.33724,1.972813 2.87689,3.058823 2.56822,5.168461 -0.34279,2.342939 -0.15226,2.597025 1.55196,2.069588 4.12012,-1.275131 8.61431,-4.081628 11.7055,-7.309767 3.22987,-3.372966 5.93074,-4.258241 7.11703,-2.332782 0.78952,1.28147 -9.26763,11.616425 -12.68661,13.037036 -2.46648,1.024847 -2.49738,1.147481 -2.07899,8.25195 0.2336,3.966404 0.73269,8.688206 1.1091,10.492894 l 0.6844,3.28125 16.60034,-16.73157 c 9.23016,-9.303121 16.95623,-16.374587 17.4019,-15.927516 0.44568,0.447072 0.18792,2.903882 -0.58056,5.533632 -0.99685,3.411194 -2.67996,6.011895 -6.03799,9.329773 -2.56074,2.530108 -4.65772,5.037931 -4.65996,5.572938 -0.002,0.535009 -4.6524,5.824305 -10.33367,11.753993 -10.14263,10.586128 -10.31024,10.832147 -9.26117,13.59375 4.03909,10.63253 4.74708,13.67693 5.59141,24.04357 0.9199,11.29441 0.95334,11.41031 4.42982,15.35242 1.92661,2.18466 4.34404,4.12834 5.37208,4.31931 1.24577,0.2314 1.96961,1.22595 2.17034,2.98202 0.45138,3.9489 -1.26276,5.32499 -6.72402,5.39798 l -4.79211,0.064 -5.36818,6.73282 c -2.9525,3.70306 -7.70475,9.3314 -10.56057,12.50745 l -5.19239,5.77463 14.23596,18.36599 14.23597,18.366 4.91305,0 4.91305,0 0.29005,-3.51562 0.29007,-3.51563 94.12783,-0.23885 c 83.28616,-0.21135 94.06577,-0.40109 93.58903,-1.64731 -0.29632,-0.77466 1.19157,-4.33019 3.30646,-7.9012 l 3.84523,-6.49272 -5.15508,-7.20758 c -2.8353,-3.96417 -5.41924,-8.26333 -5.74209,-9.55368 -0.71134,-2.84303 1.72664,-8.1977 6.718,-14.75514 l 3.55581,-4.67147 0.1647,-13.60978 0.1647,-13.60977 -4.85305,-5.625 c -5.63649,-6.53307 -7.35654,-9.46395 -6.64528,-11.32325 0.60223,-1.57427 3.50607,-1.76134 4.94439,-0.31853 0.72536,0.72763 1.53597,0.68579 2.86686,-0.14796 1.14662,-0.71832 2.52768,-0.86459 3.61485,-0.38285 0.96762,0.42875 3.51177,0.67124 5.65367,0.53885 2.917,-0.18031 4.38293,0.24939 5.84112,1.71214 2.57953,2.5876 2.65609,8.74131 0.14014,11.26512 -1.60276,1.60778 -1.64594,1.94604 -0.38268,2.99773 1.17502,0.97823 1.31011,2.628 0.77282,9.43772 l -0.6511,8.25231 2.43566,0 c 5.31388,0 8.38167,8.18652 4.62726,12.34806 -1.47137,1.63093 -1.38187,1.71444 1.83746,1.71444 1.86129,0 4.87867,-0.71491 6.7053,-1.58869 3.09717,-1.48155 3.42597,-1.48352 4.87578,-0.0291 1.44981,1.45434 1.44321,1.68302 -0.0978,3.39117 -1.24878,1.38419 -3.40248,1.97535 -8.81603,2.41986 -10.86344,0.89202 -11.22436,1.02987 -11.74601,4.48627 -0.25229,1.67163 -0.68095,10.5276 -0.95258,19.67994 l -0.49387,16.64063 2.26051,0 c 1.24328,0 2.83877,0.82814 3.54552,1.84032 1.11372,1.59503 2.58444,1.87618 11.0343,2.10937 l 9.7493,0.26903 0,3.75 0,3.75 -190.6542,0.0103 c -104.85981,0.006 -160.013194,-0.20526 -122.563072,-0.46875 z m 312.749979,-3.29158 0,-3.28125 -114.95326,0 -114.95327,0 0,3.28125 0,3.28125 114.95327,0 114.95326,0 0,-3.28125 z m -33.64486,-4.81853 c 0,-0.32986 -0.68024,-1.09873 -1.51166,-1.70857 -1.38662,-1.0171 -1.37383,-1.37458 0.15477,-4.32211 1.32623,-2.55732 1.62145,-5.10436 1.44608,-12.47675 -0.18986,-7.98221 -0.53605,-9.76514 -2.50293,-12.89062 -2.70131,-4.29252 -6.43588,-5.01575 -7.83751,-1.5178 -0.51847,1.29394 -0.86812,1.54763 -0.90446,0.65625 -0.14066,-3.45029 5.13961,-5.05001 7.45027,-2.25714 0.7062,0.85358 1.53987,1.10137 2.03486,0.60483 1.04534,-1.04861 -0.14849,-15.17581 -1.28244,-15.17581 -0.95151,0 -7.90621,10.52384 -8.78022,13.28619 -0.95433,3.01623 0.21035,5.77371 5.65233,13.38239 l 5.15508,7.20759 -3.84523,6.49272 c -2.12083,3.58103 -3.60285,7.12637 -3.30474,7.90567 0.35791,0.9356 1.81335,1.41294 4.30816,1.41294 2.07221,0 3.76764,-0.2699 3.76764,-0.59978 z m 12.85126,-0.5721 c -0.21375,-0.64453 -1.61562,-1.389 -3.11527,-1.6544 -2.65518,-0.46989 -2.72664,-0.62958 -2.72664,-6.09375 0,-3.08617 0.31601,-14.34997 0.70224,-25.03066 0.68525,-18.94939 0.65612,-19.4442 -1.20352,-20.44256 -2.66628,-1.43141 -5.2814,-0.34799 -6.37066,2.63929 -0.59161,1.62249 -0.95098,1.94456 -0.9982,0.89458 -0.0799,-1.77711 3.0442,-5.39062 4.66055,-5.39062 0.54781,0 1.74546,0.40234 2.66145,0.89409 1.54585,0.82991 1.70775,0.007 2.25503,-11.47093 0.46621,-9.77704 0.32402,-12.63144 -0.67938,-13.63798 -1.06895,-1.07228 -1.1958,-0.88881 -0.80463,1.16381 0.89311,4.68665 -3.9423,7.12149 -6.59579,3.32126 -0.94664,-1.35575 -1.46946,-1.56167 -1.78517,-0.70313 -0.75164,2.04406 -0.0423,29.60392 1.06889,41.52663 0.57665,6.1875 1.14593,16.62812 1.26508,23.20137 l 0.21663,11.95136 5.919,0.002 c 4.32,9.4e-4 5.81402,-0.31482 5.53039,-1.17012 z m -12.13619,-4.99417 0.24778,-2.7402 -1.38289,2.34375 c -1.71265,2.90265 -1.80197,4.02247 -0.28089,3.52145 0.64252,-0.21163 1.27972,-1.61788 1.416,-3.125 z M 131.85337,168.5151 c 2.86982,-3.22237 7.18541,-8.28463 9.5902,-11.24948 l 4.37232,-5.39062 -18.70003,0 -18.70003,0 8.64255,11.21034 c 4.7534,6.1657 8.85283,11.22796 9.10984,11.24949 0.25701,0.0215 2.81533,-2.59736 5.68515,-5.81973 z m 252.44009,-7.76198 c 7.44451,-0.61161 10.55423,-2.23402 8.40821,-4.38675 -0.77814,-0.78057 -2.00625,-0.62203 -4.73171,0.61083 -2.90614,1.31457 -4.87965,1.52544 -9.3768,1.00185 -5.68908,-0.66235 -5.69597,-0.66018 -5.69597,1.79052 0,2.0498 0.3461,2.38128 2.1028,2.01398 1.15654,-0.24182 5.3386,-0.70552 9.29347,-1.03043 z m -5.04113,-5.31562 c 1.55991,-1.56479 1.44346,-6.375 -0.15434,-6.375 -2.10816,0 -6.2008,3.75752 -6.2008,5.69304 0,1.35405 0.6559,1.80696 2.61682,1.80696 1.43925,0 3.1215,-0.50625 3.73832,-1.125 z M 155.14018,142.7739 c 0,-0.36498 -1.46866,-2.17234 -3.26369,-4.01636 -3.21993,-3.30782 -3.27611,-3.50526 -4.19004,-14.72642 -0.98116,-12.04654 -2.01567,-16.02241 -7.05548,-27.116101 C 137.92949,90.968489 137.15786,90 135.12145,90 c -1.48425,0 -2.93019,0.860564 -3.87414,2.305718 -1.64043,2.511448 -1.91377,1.839804 7.90658,19.428312 2.46164,4.40886 3.2092,7.22401 4.33431,16.32209 0.74779,6.04689 1.46745,11.089 1.59926,11.20469 3.19453,2.80397 10.05272,5.20068 10.05272,3.51309 z m 214.76993,-14.4484 c 0.22403,-1.93753 -0.37292,-2.84452 -2.8288,-4.29806 -5.12968,-3.03604 -10.26928,-8.02216 -11.6256,-11.27842 -0.83319,-2.00035 -1.91873,-3.06152 -3.13181,-3.06152 -3.77234,0 -2.13899,3.23844 7.02189,13.92235 7.01373,8.17978 10.00917,9.51687 10.56432,4.71565 z m 2.45303,-6.04872 c 0.80775,-0.81026 1.46863,-2.7087 1.46863,-4.21875 0,-2.12053 -0.4255,-2.74553 -1.86916,-2.74553 -3.54312,0 -7.14486,5.64531 -4.98442,7.8125 1.10125,1.1047 3.87343,0.66803 5.38495,-0.84822 z m -11.63807,-11.09642 c -0.93066,-0.95091 -3.71573,0.94728 -3.71573,2.53248 0,0.5408 0.73209,1.79475 1.62687,2.78656 1.58484,1.7567 1.6436,1.72228 2.27425,-1.33243 0.35607,-1.72464 0.27264,-3.51862 -0.18539,-3.98661 z M 153.12794,84.530673 c 4.70487,-5.118843 8.5543,-9.689582 8.5543,-10.157198 0,-0.467615 2.09514,-2.920298 4.65588,-5.450406 3.34921,-3.309165 5.04177,-5.920755 6.03092,-9.305607 0.75628,-2.587977 1.23382,-4.847095 1.06119,-5.020263 -0.17264,-0.173169 -7.93328,7.352006 -17.24589,16.72261 -10.30903,10.373232 -16.93201,17.749552 -16.93201,18.857959 0,1.001273 0.43822,2.641876 0.97383,3.645779 1.4054,2.634225 2.98502,1.496456 12.90178,-9.292874 z m -69.683034,0.795648 c 0.623992,0.0076 2.183347,0.54611 3.465232,1.196687 2.262507,1.148258 2.394965,1.031275 4.527064,-3.998195 2.986151,-7.04411 3.278768,-8.673143 2.486852,-13.844602 -0.564847,-3.688681 -0.815408,-4.111385 -1.44655,-2.440382 -0.419852,1.111593 -2.684095,3.346705 -5.031652,4.966913 -3.760901,2.595655 -4.270305,3.358392 -4.28529,6.416421 -0.01119,2.28332 -0.970331,4.881879 -2.803738,7.596038 -1.532703,2.268997 -2.786732,4.792711 -2.786732,5.608251 0,0.82209 1.056094,-0.07624 2.370141,-2.016075 1.303578,-1.924382 2.88068,-3.492658 3.504673,-3.485056 z m -14.286029,3.325984 c 0,-1.548339 14.108086,-15.547406 19.092575,-18.945038 2.349968,-1.601835 3.337331,-2.976695 3.337331,-4.647085 0,-4.568586 -3.821333,-2.180197 -14.719626,9.199981 -7.761562,8.104752 -10.514018,11.602092 -10.514018,13.359375 0,1.490966 0.52383,2.380462 1.401869,2.380462 0.771028,0 1.401869,-0.606462 1.401869,-1.347695 z m 1.57045,-14.175287 c 1.937438,-1.31889 4.269779,-2.201984 5.18298,-1.96243 0.9132,0.239554 1.424683,0.05302 1.136629,-0.414518 -0.288054,-0.467538 0.04943,-0.85007 0.749956,-0.85007 1.509844,0 7.820762,-6.300282 7.067655,-7.055743 -0.781259,-0.7837 -14.996209,6.868912 -16.875894,9.085131 -1.547646,1.824733 -2.143451,3.595612 -1.209728,3.595612 0.234182,0 2.010962,-1.079092 3.948402,-2.397982 z m 61.722063,-5.147685 c 0.29237,-1.121548 2.49182,-2.915738 5.28634,-4.312306 4.45514,-2.226475 14.59872,-11.064238 14.59872,-12.719377 0,-1.914149 -3.49264,-0.345328 -7.40604,3.326637 -2.38087,2.233983 -6.41981,4.836728 -8.97543,5.783877 -5.7679,2.137669 -7.9176,3.915958 -7.9176,6.549637 0,3.673152 3.52821,4.769445 4.41401,1.371532 z M 98.290895,62.198449 C 100.392,60.291038 100.50815,57.583709 98.52169,56.819052 94.550821,55.290524 90.654204,56.865988 90.654204,60 c 0,3.627251 4.603103,4.952391 7.636691,2.198449 z m 31.775705,0 c 2.26923,-2.060043 2.16447,-5.244454 -0.24447,-7.431327 -1.91703,-1.740311 -1.97821,-1.739677 -3.27103,0.03388 -1.61191,2.2113 -1.71434,6.300879 -0.19596,7.823995 1.44696,1.451488 1.67108,1.42573 3.71146,-0.426551 z m 171.78024,89.041641 c -0.52928,-1.45549 -1.40361,-3.7604 -1.94296,-5.12203 -0.78861,-1.99092 -0.6016,-3.22101 0.95504,-6.28181 3.33916,-6.56574 5.56528,-12.91922 8.50213,-24.26557 1.56353,-6.04061 3.42564,-11.87526 4.138,-12.96587 2.11025,-3.23071 25.26615,-10.462733 30.36781,-9.484441 1.68344,0.322816 2.96488,-0.219404 4.53503,-1.918916 1.8822,-2.037269 2.77073,-2.303051 6.34736,-1.898654 2.28732,0.258621 4.38724,0.09942 4.66646,-0.353789 0.8344,-1.354317 5.68619,-0.932536 6.95817,0.604896 1.61296,1.94958 0.58236,2.709768 -1.88089,1.38736 -3.43143,-1.84218 -4.46919,-0.668358 -3.97455,4.495606 0.36975,3.860025 0.10739,4.997828 -1.53146,6.641808 -2.33788,2.34519 -8.06507,2.68713 -10.34472,0.61764 -1.3352,-1.21212 -1.84408,-1.04819 -4.51284,1.45377 -1.65436,1.55097 -3.01037,2.90403 -3.01334,3.00681 -0.003,0.10277 -0.41997,2.7181 -0.92666,5.81185 -0.64119,3.91505 -0.60888,6.57746 0.10628,8.75818 1.83348,5.59071 -2.53837,6.34369 -5.33492,0.91886 -1.09182,-2.11796 -1.26791,-4.28684 -0.76427,-9.41395 0.53989,-5.49605 0.4262,-6.57711 -0.64956,-6.1772 -0.71718,0.26662 -3.51312,1.21333 -6.2132,2.1038 l -4.90923,1.61904 -5.83843,11.39635 c -7.88639,15.39385 -9.25761,18.9101 -9.93325,25.47186 -0.44429,4.31514 -0.95595,5.68692 -2.21087,5.92759 -1.0906,0.20917 -1.95235,-0.56561 -2.59513,-2.33319 z m 3.76063,-2.61117 c 0,-5.52011 2.31801,-11.49189 10.78241,-27.77828 5.94211,-11.43324 6.87412,-13.83477 6.07072,-15.64257 -1.26101,-2.83753 -3.22451,-3.47429 -6.50722,-2.1103 -2.30155,0.95631 -2.9432,2.05503 -4.30541,7.37238 -3.50947,13.69903 -5.43299,19.67178 -8.46745,26.2923 l -3.17112,6.9187 1.61653,4.56568 c 2.06638,5.83623 3.98154,6.02002 3.98154,0.38209 z m 34.01546,-25.58204 c -1.70423,-5.73132 0.59847,-18.98438 3.29848,-18.98438 0.52841,0 1.65101,-1.0568 2.4947,-2.34845 1.23615,-1.8925 1.30884,-2.620534 0.3744,-3.749997 -1.56543,-1.892109 -4.99274,-1.770572 -6.74175,0.239072 -2.87664,3.305325 -5.35852,20.233165 -3.48836,23.792575 2.20639,4.19935 5.23139,4.98206 4.06253,1.05118 z m -3.5595,-20.50009 c 0.76469,-4.088909 4.27468,-7.290593 7.34678,-6.701487 2.62197,0.502791 3.28389,-0.870319 0.86787,-1.800328 -2.74278,-1.055791 -27.21523,5.651344 -29.69446,8.138325 -0.49754,0.4991 0.46952,0.38781 2.14903,-0.2473 2.86567,-1.08366 3.19706,-0.98757 5.38317,1.56094 1.28123,1.49364 2.14024,3.44174 1.90891,4.32913 -0.38559,1.4791 0.0746,1.45192 5.52731,-0.32642 5.40141,-1.76162 5.99968,-2.21669 6.51139,-4.95286 z m 20.94591,-1.24363 c 0,-2.473832 -3.4812,-4.74066 -7.28027,-4.74066 -2.8098,0 -3.06084,0.213403 -2.48141,2.109375 1.07809,3.527635 2.3537,4.453125 6.13779,4.453125 2.96559,0 3.62389,-0.33095 3.62389,-1.82184 z M 46.417445,124.0625 c -1.340577,-1.34476 -0.412986,-2.26688 5.076675,-5.04672 3.13485,-1.58741 5.475533,-2.52231 5.201518,-2.07756 -0.274016,0.44475 -2.628613,1.80959 -5.232438,3.03296 -7.794222,3.66203 -5.584363,4.61879 5.546145,2.40122 1.285046,-0.25602 0.654205,0.12772 -1.401869,0.85275 -4.089212,1.44199 -8.212732,1.8177 -9.190031,0.83735 z m 198.038205,-9.72922 c -2.62516,-2.42736 -5.32925,-6.39109 -7.51494,-11.01562 -4.41927,-9.350413 -11.3526,-21.463691 -14.33023,-25.03641 -1.28921,-1.546875 -3.32985,-5.040832 -4.53476,-7.764349 -1.2049,-2.723516 -2.71579,-5.114581 -3.35753,-5.313476 -0.64174,-0.198895 -3.69016,-1.105554 -6.77427,-2.014798 -4.02081,-1.185399 -6.71803,-2.750564 -9.5323,-5.531505 -3.04032,-3.004317 -4.27625,-3.681047 -5.48427,-3.002898 -0.85769,0.481491 -3.22323,0.651578 -5.25676,0.377974 -2.85054,-0.383532 -3.58695,-0.208936 -3.21539,0.762343 0.93725,2.450084 1.72596,7.955459 1.13969,7.955459 -1.2187,0 -2.58829,-5.365446 -3.02193,-11.838647 -0.4266,-6.367953 -0.3305,-6.774854 2.04244,-8.647236 3.64579,-2.876744 8.48345,-3.568207 10.72532,-1.533008 1.74172,1.581161 1.84261,1.542274 2.75153,-1.060506 0.51892,-1.486019 1.57044,-3.756541 2.33669,-5.045603 0.76624,-1.289063 2.22993,-4.136719 3.25264,-6.328125 1.8925,-4.055155 3.46624,-4.876714 5.47729,-2.859375 1.78282,1.78838 1.32594,4.147917 -1.63751,8.456966 -1.51746,2.206482 -3.01133,5.488346 -3.31969,7.293034 -0.54291,3.177228 -0.42721,3.335629 3.64977,4.996561 2.31575,0.943421 7.77576,4.41297 12.13336,7.71011 l 7.9229,5.994797 5.56412,-10.522608 c 8.74011,-16.528904 12.46213,-24.212309 14.18033,-29.27261 2.22459,-6.551636 4.02336,-6.137449 4.99671,1.150555 0.6778,5.075002 0.53956,6.177811 -1.05764,8.4375 -1.01055,1.429694 -2.47778,4.497883 -3.26051,6.818195 -2.27493,6.743734 -12.90964,33.18846 -13.76539,34.229606 -0.93044,1.132022 10.48469,30.388304 14.90621,38.203674 4.87794,8.62215 2.14402,11.02038 -5.01588,4.4 z m 6.94621,1.77244 c 0,-0.59499 -1.42973,-3.65358 -3.17719,-6.79688 -1.74745,-3.1433 -6.16296,-13.281249 -9.81225,-22.528784 C 231.57167,69.44516 229.25276,65.625 225.5709,65.625 c -4.41463,0 -5.63011,8.293437 -1.87869,12.818695 2.8593,3.449109 9.86277,15.732924 14.19035,24.889305 2.07232,4.38467 4.86066,8.54353 7.07122,10.54688 3.64428,3.30269 6.44808,4.27054 6.44808,2.22584 z M 222.42512,66.099528 c 1.67523,-2.024837 4.66052,-1.741724 7.3532,0.697347 l 2.32871,2.109375 -1.85148,-3.28125 c -3.1004,-5.494609 -24.12088,-20.52884 -26.02804,-18.615722 -0.27369,0.274547 -0.0309,1.842025 0.5394,3.483283 1.7486,5.031712 -1.90604,7.475313 -6.42812,4.298029 -3.20443,-2.251482 -2.45616,-0.0062 1.01754,3.053308 1.70206,1.499098 5.59225,3.465606 8.64486,4.370016 7.74849,2.295677 8.12453,2.554275 10.22198,7.029371 l 1.86804,3.985635 0.58284,-2.858681 c 0.32056,-1.572276 1.10854,-3.494096 1.75107,-4.270711 z m 18.14181,-11.021403 c 3.48063,-8.894531 6.78496,-17.4375 7.34298,-18.984375 0.55801,-1.546875 1.80421,-3.96323 2.76932,-5.369678 1.45592,-2.12169 1.64631,-3.518684 1.11798,-8.203125 -0.35022,-3.10527 -0.93645,-5.645947 -1.30271,-5.645947 -0.36626,0 -1.1875,1.792969 -1.82498,3.984375 -0.63748,2.191406 -5.36959,12.173419 -10.5158,22.18225 l -9.35674,18.197877 1.95664,3.492269 c 1.07616,1.920748 1.95666,4.173109 1.95666,5.005249 0,4.004848 2.04957,0.180772 7.85665,-14.658895 z M 203.89167,52.5 c -0.17266,-1.289063 -0.36843,-4.755773 -0.43504,-7.7038 -0.105,-4.647684 0.28518,-5.938238 2.93582,-9.710491 3.20364,-4.559239 3.58869,-8.137105 0.93039,-8.645073 -0.96489,-0.184378 -1.79896,0.524032 -2.1963,1.865423 -0.35236,1.18948 -1.62741,3.639254 -2.83347,5.443941 -1.20606,1.804687 -3.10483,6.634205 -4.2195,10.732261 l -2.02667,7.451011 2.13475,1.734021 c 3.04662,2.47471 6.11386,1.847677 5.71002,-1.167293 z m -7.33646,-5.390625 c 0.77227,-3.892988 -1.96951,-6.280276 -6.281,-5.468907 -3.75088,0.705867 -4.32299,2.498275 -1.90347,5.963433 1.00766,1.443122 2.41057,2.083599 4.56396,2.083599 2.64468,0 3.18546,-0.385086 3.62051,-2.578125 z m 83.35133,64.049695 c 3.60942,-2.92118 2.17332,-4.80577 -3.35688,-4.40523 -5.14609,0.37272 -7.39079,-1.72048 -7.39079,-6.891968 0,-5.0814 3.17625,-8.420033 7.41655,-7.795744 2.70961,0.398931 3.01582,0.0929 6.28925,-6.285874 1.89252,-3.687871 3.19078,-7.359182 2.88503,-8.158469 -0.68092,-1.779968 -23.99617,-15.197349 -29.9365,-17.227747 -5.05864,-1.729043 -7.10548,-3.69148 -5.51464,-5.28728 1.75194,-1.75742 11.71568,0.638202 22.52835,5.416587 8.80942,3.893098 9.96385,4.186913 12.05012,3.066885 2.04308,-1.096834 2.42574,-1.031327 3.34131,0.571993 1.91644,3.356008 5.00882,5.696635 9.81835,7.43152 5.67264,2.046229 8.50536,5.267831 8.50536,9.672994 0,4.435733 -1.80078,7.509758 -7.65005,13.059038 -5.29505,5.0235 -10.61617,7.469875 -14.25499,6.553745 -1.77985,-0.44812 -2.261,-0.12167 -2.62337,1.77991 -0.25174,1.32098 0.10629,2.7866 0.82737,3.3869 2.77041,2.30643 0.0534,7.39688 -3.94264,7.38651 -1.49495,-0.004 -1.32617,-0.38455 1.00817,-2.27377 z m -2.071,-11.0856 c 2.39924,-1.940789 2.50843,-2.304951 1.40187,-4.675533 -1.39671,-2.99213 -4.76223,-3.460139 -7.43485,-1.033884 -1.6655,1.511963 -2.33449,5.946107 -1.08605,7.198447 1.25458,1.25851 4.58313,0.5623 7.11903,-1.48903 z m 13.54961,-1.211601 c 5.61767,-2.345307 14.22232,-11.649047 14.22232,-15.377813 0,-0.541231 -0.87757,-0.103747 -1.95015,0.972186 -2.12434,2.13099 -5.64141,1.873013 -8.39589,-0.615839 -1.28307,-1.15934 -1.7681,-1.002859 -3.85877,1.244916 -1.31518,1.414012 -2.68804,4.258431 -3.0508,6.320931 -0.73016,4.151456 -2.80329,7.023628 -5.0855,7.045603 -1.30375,0.01256 -1.31488,0.128316 -0.0888,0.923147 1.99197,1.29133 4.21889,1.1521 8.20759,-0.513131 z m -5.60692,-2.533744 c 0.5282,-0.644531 1.69306,-4.885537 2.58857,-9.424457 1.37633,-6.975996 1.45245,-9.040359 0.49205,-13.345232 -0.62486,-2.800958 -0.89574,-5.482819 -0.60194,-5.959692 0.79946,-1.297587 -0.42892,-3.848744 -1.85315,-3.848744 -2.18185,0 -2.32343,1.520114 -0.82055,8.810003 l 1.46775,7.119443 -3.96023,7.455762 c -3.32479,6.25947 -3.76713,7.689139 -2.75684,8.91028 1.45041,1.753087 4.12547,1.891959 5.44434,0.282637 z m 6.7283,-15.157511 c -1.097,-1.100427 -2.74694,0.753454 -2.7726,3.115312 -0.0108,0.996788 0.44571,0.89956 1.87693,-0.399724 1.33808,-1.214729 1.60005,-2.009001 0.89567,-2.715588 z m 11.19537,2.09011 c 3.65442,-3.934815 1.63793,-7.980402 -5.28835,-10.609745 -2.46858,-0.937114 -5.44771,-2.32566 -6.62029,-3.085654 -1.17258,-0.759995 -2.33626,-1.176887 -2.58594,-0.926428 -0.24967,0.25046 0.0691,2.733389 0.70833,5.517617 0.81443,3.547164 1.98254,5.763695 3.90297,7.405986 4.95236,4.235096 7.17284,4.616636 9.88328,1.698224 z M 284.58392,71.953125 c -0.33622,-1.675781 -0.79452,-3.709242 -1.01844,-4.518802 -0.45841,-1.657374 -18.22393,-9.663158 -24.68698,-11.124844 -10.12784,-2.290519 -11.1724,-0.16675 -1.81423,3.688654 3.3109,1.364039 10.85629,5.290602 16.7675,8.725694 5.91122,3.435092 10.88622,6.252496 11.05557,6.260897 0.16935,0.0084 0.0328,-1.355818 -0.30342,-3.031599 z"
       id="path3408"
       inkscape:connector-curvature="0" />
  </g>
</svg>
