<?xml version="1.0" encoding="UTF-8" standalone="no"?>
<!-- Created with Inkscape (http://www.inkscape.org/) -->

<svg
   xmlns:dc="http://purl.org/dc/elements/1.1/"
   xmlns:cc="http://creativecommons.org/ns#"
   xmlns:rdf="http://www.w3.org/1999/02/22-rdf-syntax-ns#"
   xmlns:svg="http://www.w3.org/2000/svg"
   xmlns="http://www.w3.org/2000/svg"
   xmlns:sodipodi="http://sodipodi.sourceforge.net/DTD/sodipodi-0.dtd"
   xmlns:inkscape="http://www.inkscape.org/namespaces/inkscape"
   id="svg3486"
   version="1.1"
   inkscape:version="0.91 r13725"
   width="611.21497"
   height="238.125"
   viewBox="0 0 611.21497 238.125"
   sodipodi:docname="bb930802.svg">
  <metadata
     id="metadata3492">
    <rdf:RDF>
      <cc:Work
         rdf:about="">
        <dc:format>image/svg+xml</dc:format>
        <dc:type
           rdf:resource="http://purl.org/dc/dcmitype/StillImage" />
        <dc:title></dc:title>
      </cc:Work>
    </rdf:RDF>
  </metadata>
  <defs
     id="defs3490" />
  <sodipodi:namedview
     pagecolor="#bcbcbc"
     bordercolor="#666666"
     borderopacity="1"
     objecttolerance="10"
     gridtolerance="10"
     guidetolerance="10"
     inkscape:pageopacity="0"
     inkscape:pageshadow="2"
     inkscape:window-width="1720"
     inkscape:window-height="824"
     id="namedview3488"
     showgrid="false"
     inkscape:zoom="2.045107"
     inkscape:cx="305.60748"
     inkscape:cy="119.0625"
     inkscape:window-x="0"
     inkscape:window-y="0"
     inkscape:window-maximized="0"
     inkscape:current-layer="svg3486" />
  <g
     id="g3496"
     transform="translate(4.5129453,4.13808)">
    <path
       style="fill:#fefefe"
       d="m 16.82243,217.96875 0,-3.28125 286.44861,0 286.4486,0 0,3.28125 0,3.28125 -286.4486,0 -286.44861,0 0,-3.28125 z m 480.60671,-5.39063 c 0.21374,-0.64453 1.61561,-1.39215 3.11527,-1.6614 l 2.72663,-0.48953 -0.23642,-12.63547 c -0.13004,-6.9495 -0.48035,-17.55892 -0.77848,-23.57648 -0.51872,-10.46964 -0.45669,-10.98684 1.43994,-12.00506 5.90049,-3.16771 8.23578,3.08 6.64592,17.78018 -0.5861,5.41936 -1.15516,15.23151 -1.26457,21.80476 l -0.19891,11.95136 -5.919,0.002 c -4.32,9.4e-4 -5.81402,-0.31482 -5.53038,-1.17012 z m 12.85125,0.34372 c 0,-0.45548 0.9342,-1.07322 2.07601,-1.37274 2.06515,-0.54174 2.06196,-0.5593 -0.60767,-3.3545 -2.48425,-2.60109 -2.61926,-3.10868 -1.81687,-6.83038 l 0.86681,-4.02047 4.04902,6.79018 c 2.24963,3.77264 3.80881,7.4181 3.5085,8.20313 -0.58705,1.53463 -8.0758,2.0769 -8.0758,0.58478 z m 0,-22.23547 c 0,-4.41085 0.49108,-6.28858 2.37014,-9.0625 2.91736,-4.3067 6.52315,-4.81482 7.92478,-1.11674 0.91357,2.41039 0.68224,2.76681 -9.96447,15.35225 -0.18175,0.21484 -0.33045,-2.11301 -0.33045,-5.17301 z m -80.37384,-13.04574 c 0,-0.78202 2.25427,-5.94999 5.0095,-11.48437 2.75521,-5.53439 5.53753,-11.75001 6.18292,-13.81251 1.91541,-6.12124 9.67801,-21.19403 11.38782,-22.11195 3.18747,-1.71122 5.41058,0.88884 5.44439,6.36757 0.007,1.13746 -1.17542,4.09059 -2.62764,6.5625 -1.45223,2.47191 -6.05285,10.8225 -10.22362,18.55688 -5.46404,10.13265 -8.3576,14.52098 -10.35426,15.70312 -3.40425,2.01552 -4.81911,2.07975 -4.81911,0.21876 z m 61.21496,-9.06289 c -8.7189,-0.88854 -12.19284,-2.50305 -10.03767,-4.66495 0.83984,-0.84247 1.96046,-0.71009 4.77799,0.56441 2.90613,1.31457 4.87964,1.52544 9.37679,1.00185 5.67968,-0.66125 5.69597,-0.65618 5.69597,1.77265 0,1.33969 -0.31542,2.37897 -0.70093,2.30952 -0.38552,-0.0695 -4.48598,-0.51202 -9.11215,-0.98348 z m 3.45794,-5.64024 c -1.57902,-1.58395 -1.45811,-7.3125 0.15434,-7.3125 2.35805,0 6.2008,3.81858 6.2008,6.16179 0,1.86745 -0.46946,2.27571 -2.61682,2.27571 -1.43925,0 -3.12149,-0.50625 -3.73832,-1.125 z m -487.1028143,-7.78125 0,-3.28125 216.3551443,0 c 118.99533,0 216.35515,0.14798 216.35515,0.32886 0,0.18086 -0.4617,1.65742 -1.02601,3.28125 l -1.026,2.95239 -215.32915,0 -215.3291343,0 0,-3.28125 z m 441.9257943,0.23437 1.92243,-3.04687 21.17338,-0.25225 c 19.09275,-0.22746 21.11696,-0.10477 20.59926,1.24855 -0.31577,0.82544 -0.57412,2.31005 -0.57412,3.29913 0,1.72301 -0.94314,1.79832 -22.52168,1.79832 l -22.52169,0 1.92242,-3.04688 z m 62.74712,-0.22042 0,-3.2952 28.0966,0 28.09659,0 -0.29286,3.04687 -0.29286,3.04688 -27.80373,0.24832 -27.80374,0.24833 0,-3.2952 z M 61.4486,148.00263 c -2.157822,-1.76829 -3.504673,-3.68036 -3.504673,-4.97547 0,-3.39148 3.774245,-20.60081 4.731484,-21.57404 1.612877,-1.63981 0.900387,-4.84398 -2.111455,-9.49552 -3.849486,-5.94519 -7.292927,-10.1757 -7.292927,-8.95986 0,0.52476 0.454648,1.23597 1.010329,1.58047 0.555682,0.3445 1.761267,1.86504 2.679078,3.37898 1.472253,2.42849 1.523187,3.16159 0.432562,6.22584 -0.679903,1.91027 -1.254647,4.15984 -1.277209,4.99906 -0.06524,2.42689 -2.197079,3.62615 -11.454863,6.44388 -7.873728,2.39647 -8.788085,2.50244 -9.847841,1.1412 -1.64801,-2.1168 -1.467951,-2.79852 0.93458,-3.53835 1.156542,-0.35614 4.724562,-1.8662 7.928933,-3.35567 4.635606,-2.15475 5.935413,-3.23266 6.36093,-5.27503 2.896952,-13.90449 5.676656,-20.935471 8.216267,-20.782223 4.177403,0.252065 4.810319,1.276715 9.755057,15.792853 l 2.368283,6.95251 -4.00315,11.79749 c -2.201733,6.48862 -4.169093,12.23601 -4.371912,12.77196 -0.20282,0.53594 1.11421,2.71238 2.926733,4.83652 1.812522,2.12414 3.295495,4.11142 3.295495,4.41617 0,1.46917 -3.637192,0.19117 -6.775701,-2.38077 z m 61.91589,0.94819 c -1.79907,-1.08882 -3.37887,-2.07432 -3.51067,-2.19001 -0.13181,-0.11569 -0.85147,-5.1578 -1.59926,-11.20469 -1.12511,-9.09808 -1.87267,-11.91323 -4.33431,-16.32209 -9.82035,-17.58851 -9.54701,-16.91686 -7.90658,-19.428314 0.94395,-1.445157 2.38989,-2.305716 3.87414,-2.305716 2.03641,0 2.80804,0.968484 5.50952,6.91502 5.03981,11.09369 6.07432,15.06956 7.05548,27.1161 0.91393,11.22116 0.97011,11.4186 4.19004,14.72642 1.79503,1.84402 3.2637,3.65138 3.2637,4.01636 0,1.29818 -3.32054,0.62663 -6.54206,-1.32308 z m 380.90789,-7.92404 c -2.16366,-2.17041 -1.85367,-2.94693 2.20148,-5.51484 5.88903,-3.7292 10.52991,-8.21828 11.90221,-11.51292 0.8332,-2.00035 1.91873,-3.06152 3.13181,-3.06152 3.71127,0 1.98374,3.51847 -6.44419,13.125 -8.24995,9.40365 -8.31664,9.44669 -10.79131,6.96428 z m -2.80374,-7.5 c -1.58326,-1.5882 -2.0451,-7.90178 -0.57802,-7.90178 0.48983,0 1.94114,0.48015 3.22512,1.06701 2.33903,1.06906 4.07434,5.45408 2.90771,7.34761 -0.88469,1.43595 -3.88857,1.15861 -5.55481,-0.51284 z M 21.495328,130.5078 c 0,-0.40822 2.303301,-1.87538 5.118446,-3.26037 4.947036,-2.43384 5.150472,-2.45814 6.074766,-0.72568 1.35961,2.54839 1.381419,2.52329 -3.195848,3.67946 -4.867359,1.22944 -7.997364,1.34944 -7.997364,0.30659 z m 198.133542,-9.21064 c -2.05756,-1.86469 -3.74101,-4.01882 -3.74101,-4.78696 0,-1.73487 -13.42922,-25.741711 -17.00276,-30.39511 -4.14309,-5.395069 -3.1998,-12.99009 1.61336,-12.99009 3.25999,0 6.76217,5.983573 13.16923,22.5 2.90031,7.47656 6.89942,16.59881 8.88691,20.27167 1.9875,3.67285 3.61363,7.15332 3.61363,7.73437 0,2.03646 -2.83244,1.02557 -6.53936,-2.33388 z m 248.82909,-1.88609 c -0.64253,-0.27765 -1.16823,-1.72725 -1.16823,-3.22133 0,-3.22434 2.78845,-4.36204 6.87302,-2.80423 4.01346,1.53068 7.2508,1.19623 13.64361,-1.40953 5.56657,-2.26896 8.45534,-2.46215 8.45534,-0.56545 0,1.3881 -11.29754,5.92806 -16.82243,6.76016 -2.82711,0.42579 -6.19159,0.99265 -7.47664,1.25969 -1.28505,0.26703 -2.86215,0.25835 -3.50467,-0.0193 z m -58.99313,-7.35888 c -2.12154,-2.30879 -3.85734,-4.82875 -3.85734,-5.59992 0,-2.82092 4.10171,-9.88977 5.73855,-9.88977 2.35069,0 3.07335,1.742578 1.48244,3.5747 -0.75533,0.86986 -1.88563,2.57369 -2.51177,3.7863 -1.00428,1.94493 -0.83263,2.52493 1.45663,4.92187 1.42729,1.49442 3.09573,2.71713 3.70765,2.71713 0.61192,0 1.6118,0.60339 2.22194,1.34087 0.88589,1.07076 0.73305,1.54289 -0.7587,2.34375 -2.84627,1.52804 -3.32894,1.32186 -7.4794,-3.19493 z m 13.66602,3.18522 c -2.12063,-1.23902 -2.08715,-3.91181 0.0736,-5.87336 2.32638,-2.11192 5.01274,-1.94823 8.10794,0.49407 l 2.59248,2.0456 -2.51857,2.17315 c -2.67995,2.3124 -5.585,2.72079 -8.25543,1.16054 z m -91.35514,-6.84834 c 0,-2.38518 0.60517,-3.57119 2.43636,-4.77478 3.85231,-2.53202 4.53796,-0.4317 1.31571,4.03039 -1.55607,2.1548 -3.03686,3.91782 -3.29064,3.91782 -0.25379,0 -0.46143,-1.42805 -0.46143,-3.17343 z m 136.48037,1.80558 c -1.36591,-1.65097 -0.50018,-6.4501 1.45757,-8.07997 1.10714,-0.92172 1.81113,-0.72341 3.67825,1.03614 2.74466,2.58653 2.93317,4.742 0.59994,6.86013 -2.11033,1.91579 -4.24614,1.9842 -5.73576,0.1837 z m -41.51177,-7.27415 c -0.75635,-1.17659 -1.89375,-3.299406 -2.52752,-4.717375 -1.29714,-2.902153 -2.61383,-3.166903 -6.28327,-1.263431 -2.23952,1.161722 -2.76507,1.127343 -4.51657,-0.29536 -1.97351,-1.60304 -1.96531,-1.617431 1.87989,-3.300805 2.12413,-0.929909 5.11024,-1.746215 6.63581,-1.814012 2.40958,-0.107083 3.11227,0.492178 5.352,4.564233 1.41803,2.578125 2.58806,5.40088 2.60007,6.27279 0.0353,2.56447 -1.65616,2.86284 -3.14041,0.55396 z m -311.75179,-1.59695 c -0.53561,-1.00391 -0.97383,-2.644513 -0.97383,-3.645781 0,-1.108406 6.62299,-8.484728 16.93201,-18.85796 9.31261,-9.370604 17.07326,-16.895779 17.24589,-16.72261 0.17263,0.173168 -0.3049,2.432286 -1.06118,5.020263 -0.98915,3.384852 -2.68171,5.996442 -6.03093,9.305607 -2.56074,2.530108 -4.65588,4.982791 -4.65588,5.450406 0,1.155389 -16.68284,19.235615 -18.79543,20.369765 -1.29688,0.69625 -1.91196,0.48363 -2.66065,-0.91969 z m 217.91637,-2.124331 c -1.81434,-1.820006 -1.29892,-7.39651 1.17663,-12.7305 2.12205,-4.572292 4.48957,-6.835585 5.78797,-5.533136 0.29729,0.298221 -0.58556,2.469764 -1.96191,4.82565 -2.2975,3.932627 -2.405,4.553735 -1.31268,7.583912 1.64878,4.573889 -0.91366,8.639105 -3.69001,5.854074 z M 41.121496,95.119538 c 0,-1.757283 2.752457,-5.254623 10.514019,-13.359375 10.898293,-11.380178 14.719627,-13.768567 14.719627,-9.199981 0,1.67039 -0.987364,3.04525 -3.337332,4.647085 -4.984489,3.397632 -19.092575,17.396702 -19.092575,18.945039 0,0.741235 -0.630841,1.347694 -1.401869,1.347694 -0.87804,0 -1.40187,-0.8895 -1.40187,-2.380462 z M 392.56508,88.583157 c -4.64911,-4.563608 -8.45292,-8.771495 -8.45292,-9.35086 0,-1.727326 6.19918,-7.982297 7.9111,-7.982297 0.87133,0 5.37095,3.222746 9.99913,7.161657 6.12956,5.216672 8.07633,7.376952 7.16823,7.954395 -2.7413,1.743133 -4.14781,0.843731 -18.30276,-11.703869 -1.15654,-1.025212 -2.1028,-1.625189 -2.1028,-1.333282 0,0.291906 3.61664,3.610813 8.03698,7.375348 7.76091,6.609492 8.0188,6.956935 7.50798,10.114629 -0.29095,1.798511 -1.15519,3.898163 -1.92051,4.665881 -1.2323,1.23616 -2.35869,0.446485 -9.84443,-6.901602 z M 250.69854,86.015625 c -2.50879,-3.153774 -3.99209,-7.783606 -4.98702,-15.565933 -0.96515,-7.549298 -0.91288,-8.810151 0.45186,-10.899515 1.06583,-1.631735 2.38694,-2.362677 4.27031,-2.362677 3.84766,0 4.45088,1.730244 1.44221,4.136768 l -2.568,2.054052 1.10217,8.308192 c 0.6062,4.569505 1.72537,9.517086 2.48705,10.994622 1.87908,3.645097 0.14302,6.278106 -2.19858,3.334491 z M 41.121496,83.54136 c 0,-1.93624 3.733348,-4.931444 10.631365,-8.529369 4.048185,-2.111487 7.594205,-3.604467 7.880044,-3.317734 0.956237,0.959225 -5.676477,6.961665 -8.341474,7.548825 -1.447171,0.318845 -4.135827,1.603964 -5.974791,2.855819 -3.67221,2.499816 -4.195144,2.679622 -4.195144,1.442459 z M 184.11877,78.221701 c -3.25683,-2.305991 -9.21663,-12.342222 -9.30706,-15.672999 -0.0607,-2.234519 2.34613,-3.038094 5.19691,-1.73513 2.00515,0.916463 2.24003,1.484101 1.7339,4.190441 -0.8856,4.735386 1.57446,9.758376 5.60703,11.448558 3.42185,1.434209 4.54354,4.207252 1.66915,4.126457 -0.89954,-0.02528 -3.1045,-1.086082 -4.89993,-2.357327 z M 103.4268,78.125 c -1.19508,-1.198806 -0.61087,-4.719773 1.01246,-6.102073 0.89953,-0.76597 3.72647,-2.167614 6.28208,-3.114763 2.55562,-0.947149 6.59456,-3.549894 8.97543,-5.783877 3.9134,-3.671965 7.40604,-5.240786 7.40604,-3.326637 0,1.655139 -10.14358,10.492902 -14.59872,12.719377 -2.79452,1.396568 -4.99397,3.190758 -5.28634,4.312306 -0.48622,1.865123 -2.52771,2.56286 -3.79095,1.295667 z m 101.8115,-4.364884 -1.69082,-4.989883 9.36468,-18.213242 c 5.15057,-10.017282 9.88625,-20.00621 10.52372,-22.197616 0.63748,-2.191406 1.45872,-3.984375 1.82499,-3.984375 0.36626,0 0.95914,2.599743 1.31751,5.777207 0.54575,4.838852 0.36721,6.171234 -1.09918,8.203125 -0.96291,1.334255 -2.21577,3.691543 -2.78413,5.238418 C 216.78367,59.682757 208.7958,78.75 207.96702,78.75 c -0.57084,0 -1.79875,-2.245447 -2.72872,-4.989884 z m 48.24069,3.530474 c -2.69846,-1.895978 -2.7533,-4.383157 -0.088,-3.990144 1.7029,0.251099 2.33233,-0.684747 4.37416,-6.503571 2.34149,-6.672757 4.19696,-8.46802 5.26459,-5.093729 0.51028,1.612788 -1.58119,8.831814 -4.19182,14.468729 -1.3669,2.951406 -2.43362,3.174091 -5.35894,1.118715 z m 121.98043,-5.812365 c -4.96186,-5.015802 -6.57486,-7.377044 -7.74924,-11.343996 -3.08856,-10.432823 0.69209,-10.329302 13.42168,0.367507 5.2373,4.400955 9.52236,8.363631 9.52236,8.805948 0,0.442317 -0.69169,1.070466 -1.53709,1.395888 -1.56696,0.603181 -10.07311,-5.930514 -15.62152,-11.999119 -1.60258,-1.752828 -2.28432,-2.153792 -1.70275,-1.001473 0.53344,1.05695 4.15435,4.596449 8.04646,7.865552 3.89212,3.269102 7.07658,6.136074 7.07658,6.371048 0,0.841575 -3.87911,5.87292 -4.52795,5.87292 -0.3643,0 -3.48214,-2.850424 -6.92853,-6.334275 z m -137.14166,-0.02353 c 0,-2.698326 2.41447,-5.829699 4.49504,-5.829699 1.2396,0 2.36565,3.729059 1.88849,6.253973 -0.21939,1.160843 -1.30278,1.809676 -3.3538,2.00855 -2.78923,0.270455 -3.02973,0.07734 -3.02973,-2.432824 z m 59.09087,1.401027 c -17.27618,-0.741507 -20.63802,-1.10813 -19.771,-2.156106 1.13245,-1.36878 4.41443,-1.303628 35.64722,0.70765 9.10572,0.586377 16.33558,1.423684 16.06634,1.860684 -0.54446,0.883707 -2.26671,0.861481 -31.94256,-0.412228 z m 46.6334,-0.995818 c -1.28257,-1.550231 -0.68085,-3.587548 7.71498,-26.121549 3.41885,-9.176003 6.18693,-18.116788 6.18693,-19.983507 0,-3.528595 1.3601,-7.004852 2.74068,-7.004852 0.44317,0 1.254,2.636719 1.80184,5.859375 1.06901,6.288299 0.79915,7.751095 -4.79931,26.015625 -1.34343,4.382812 -3.16609,10.710937 -4.05036,14.0625 -0.88428,3.351562 -2.24983,6.621094 -3.03455,7.265625 -1.87709,1.541739 -5.24717,1.493853 -6.56021,-0.09322 z m 9.68433,-0.629331 c -0.72159,-1.171216 0.57681,-6.557016 5.2152,-21.632653 5.12597,-16.66038 5.58771,-19.113078 4.59085,-24.385939 -1.2046,-6.371669 -1.16723,-6.901076 0.39528,-5.600255 3.00553,2.502162 2.36565,9.247962 -2.89732,30.54452 -2.80336,11.34375 -5.43829,20.978166 -5.8554,21.409811 -0.41711,0.431647 -1.06899,0.280678 -1.44861,-0.335484 z M 66.542058,70.125 c -2.498909,-2.506717 -0.560464,-6.375 3.194592,-6.375 5.028446,0 6.657839,2.918855 3.320603,5.948449 -2.007766,1.822683 -4.932525,2.014167 -6.515195,0.426551 z m 34.579442,0 c -1.518376,-1.523116 -1.415946,-5.612695 0.19596,-7.823995 1.29282,-1.77356 1.354,-1.774194 3.27103,-0.03388 2.40894,2.186874 2.5137,5.371285 0.24447,7.431328 -2.04038,1.852281 -2.2645,1.878039 -3.71146,0.426551 z m 211.49533,0.15644 c -3.59813,-0.370451 -11.16822,-0.750259 -16.82243,-0.84402 -14.41862,-0.239098 -17.51358,-0.90272 -18.59493,-3.987118 -0.65939,-1.880816 -0.48649,-3.085502 0.70453,-4.908899 1.96666,-3.010901 5.25942,-3.134073 16.99958,-0.635908 4.6021,0.979272 13.62447,2.512466 20.0497,3.407097 12.36381,1.7215 15.88785,3.070978 15.88785,6.08402 0,1.664223 -0.59617,1.838333 -5.84112,1.70588 -3.21262,-0.08113 -8.78505,-0.450603 -12.38318,-0.821052 z M 168.27121,59.587942 c -1.50971,-1.824775 -0.88106,-6.199712 1.06661,-7.422723 3.36947,-2.115818 7.22156,4.723661 4.30704,7.647281 -1.51772,1.522465 -4.01459,1.418123 -5.37365,-0.224558 z m 7.78965,-6.853567 c 0.26725,-0.902344 0.74762,-2.90625 1.06752,-4.453125 1.41476,-6.841307 4.45025,-13.679052 5.94575,-13.393387 2.24166,0.428197 2.36258,4.162829 0.22311,6.891223 -1.03418,1.318843 -2.39222,4.692451 -3.01787,7.496905 -0.89095,3.993638 -1.52416,5.099009 -2.92097,5.099009 -1.26054,0 -1.64097,-0.481013 -1.29754,-1.640625 z"
       id="path3506"
       inkscape:connector-curvature="0" />
    <path
       style="fill:#007f7f"
       d="m 521.0228,179.78142 c -1.06353,-2.43208 -4.58476,-3.28153 -6.61083,-1.59479 -1.98089,1.64913 -2.63929,0.47312 -2.39421,-4.27639 0.47626,-9.22936 -3.34102,-15.31145 -8.02995,-12.79417 -1.75733,0.94342 -1.89781,0.58676 -2.63928,-6.70043 -1.24282,-12.21441 -1.06386,-15.43478 0.96123,-17.29734 1.5301,-1.40731 1.61993,-1.41742 0.6116,-0.0688 -1.36895,1.83087 -0.18832,4.86297 2.26058,5.80564 1.8005,0.69308 5.0872,-0.90797 5.12687,-2.49745 0.0156,-0.62639 0.48489,-0.35077 1.0428,0.61248 0.62639,1.0815 0.77809,3.84651 0.39659,7.22902 -0.72501,6.42825 0.40631,21.39611 1.34072,17.73836 0.55855,-2.18646 0.86277,-1.9376 4.53293,3.70806 3.90701,6.01003 5.29354,9.36223 4.66043,11.26751 -0.18158,0.54644 -0.74835,0.0372 -1.25948,-1.13165 z m -62.50012,-45.9419 c -0.65282,-3.47042 -3.42952,-6.06292 -5.27096,-4.9213 -1.79603,1.11349 -0.84773,-0.74104 3.90683,-7.64024 6.40346,-9.29189 10.06672,-11.44916 9.37692,-5.52202 -0.32468,2.78987 -0.0248,3.41785 2.09538,4.38686 l 2.47431,1.13089 -5.06933,5.22252 c -2.78814,2.87239 -5.47089,6.48815 -5.96167,8.03502 l -0.89232,2.8125 -0.65916,-3.50423 z m -43.53042,-24.58094 c -3.75465,-3.83766 -4.01327,-4.39962 -3.02548,-6.57433 0.61168,-1.3467 2.96607,-3.2914 5.42891,-4.484228 4.21257,-2.040291 4.38151,-2.051231 5.39245,-0.349284 0.57401,0.966346 1.98545,3.193332 3.13654,4.948862 l 2.09289,3.19187 -2.20433,0.84071 c -1.21239,0.46238 -3.21933,2.14167 -4.45986,3.73173 l -2.25554,2.89104 -4.10558,-4.19637 z m -77.43867,-7.40561 c -1.93031,-1.07439 -2.00659,-1.33834 -0.70094,-2.42532 1.70689,-1.421016 1.86904,-3.762647 0.47332,-6.83548 -0.81586,-1.796218 -0.50157,-3.1184 1.77177,-7.453583 1.51995,-2.898514 3.06145,-7.038724 3.42553,-9.200464 0.47994,-2.849586 0.94363,-3.647904 1.68618,-2.903029 1.42126,1.425708 4.61669,1.283639 6.77751,-0.301328 1.27849,-0.937774 2.156,-1.041921 2.98237,-0.353958 1.73827,1.447148 1.45745,3.071514 -1.55363,8.98672 -1.49847,2.943723 -2.99983,7.250659 -3.33635,9.570972 -1.62442,11.20024 -5.10011,14.49189 -11.52576,10.91547 z m 66.34567,-3.260989 c -1.93262,-1.491393 -2.01364,-1.813593 -0.72566,-2.885859 0.79741,-0.663863 1.70301,-2.560732 2.01244,-4.21526 0.40853,-2.184513 1.29147,-3.284212 3.22446,-4.016118 2.35597,-0.892055 2.94276,-0.713791 5.10595,1.551149 2.55402,2.674152 2.23901,3.643644 -1.63471,5.031045 -0.91832,0.328912 -2.39028,1.868296 -3.27103,3.420862 -1.8713,3.29871 -1.87844,3.30039 -4.71145,1.114181 z M 52.33645,98.327456 c 0,-0.81554 1.254029,-3.339253 2.786732,-5.608255 1.833407,-2.714159 2.792549,-5.312718 2.803738,-7.596038 0.01498,-3.058029 0.524389,-3.820766 4.285291,-6.416421 2.347557,-1.620208 4.6118,-3.85532 5.031652,-4.966913 0.631142,-1.671003 0.881702,-1.248299 1.446554,2.440382 0.79191,5.171459 0.499292,6.800492 -2.486856,13.844602 -2.132099,5.029474 -2.264557,5.146456 -4.527064,3.998196 -3.534195,-1.79366 -4.396523,-1.51054 -6.969906,2.288363 -1.314047,1.939837 -2.370141,2.838169 -2.370141,2.016084 z M 104.6729,96.38805 c 0,-1.802653 -0.6216,-5.34851 -1.38133,-7.879677 -1.83291,-6.106657 -2.79626,-15.000386 -1.69851,-15.68095 0.48993,-0.303742 0.70684,0.591154 0.4947,2.041041 -0.68029,4.6496 4.86846,6.549113 6.03699,2.066656 0.70614,-2.708728 2.99306,-3.186044 3.49831,-0.730155 0.23493,1.141957 0.68977,6.34775 1.01072,11.568429 l 0.58357,9.492147 -2.43581,-0.467091 c -1.55515,-0.298219 -3.09977,0.135656 -4.27223,1.200028 -1.79222,1.627013 -1.83641,1.588256 -1.83641,-1.610428 z m 88.62776,-19.275415 c -1.21531,-3.10356 -2.45508,-4.333842 -6.37546,-6.326655 -4.70842,-2.393391 -4.84746,-2.577177 -4.27308,-5.648398 0.50647,-2.708204 0.24522,-3.403546 -1.77854,-4.733706 -1.30472,-0.857556 -3.14328,-1.356924 -4.08569,-1.109707 -1.37843,0.361594 -1.63092,0.01626 -1.29127,-1.766092 0.34591,-1.815146 1.00045,-2.215577 3.62153,-2.215577 1.75962,0 4.96994,0.898086 7.13404,1.995744 5.72547,2.90403 15.57848,11.149924 17.2191,14.410506 0.98945,1.966457 1.04568,2.459982 0.18689,1.640625 -1.67696,-1.599965 -5.04786,-1.47478 -6.4667,0.240153 -0.64252,0.776615 -1.44135,2.751644 -1.77518,4.388952 l -0.60694,2.976924 -1.5087,-3.852769 z m 57.56981,-9.24596 c -0.5941,-3.974154 -0.43663,-4.48823 1.96266,-6.407332 1.73433,-1.387225 2.35275,-2.50175 1.84522,-3.325494 -0.60435,-0.980925 -0.003,-1.113026 2.88663,-0.634235 2.00749,0.332613 4.51292,0.609393 5.56764,0.615068 1.6823,0.0091 2.02751,0.873285 2.81267,7.041568 l 0.89501,7.03125 -2.57902,0 c -1.41847,0 -2.57903,-0.135786 -2.57903,-0.301745 0,-0.16596 0.66075,-2.247005 1.46834,-4.624547 1.14084,-3.35865 1.231,-4.767654 0.40423,-6.317314 -1.81999,-3.411317 -3.91309,-1.794301 -6.36271,4.915481 -1.6835,4.611319 -2.76679,6.328125 -3.99299,6.328125 -1.28373,0 -1.83587,-1.024493 -2.32865,-4.320825 z m 17.91844,3.541278 c -0.26415,-0.428751 -0.76761,-3.592813 -1.11879,-7.03125 l -0.63851,-6.251703 5.69306,0 5.69308,0 -1.59205,2.8125 c -1.48714,2.627167 -1.48977,2.993243 -0.0398,5.55534 1.45458,2.570372 1.44996,2.835645 -0.0736,4.21875 -1.7106,1.552916 -7.10358,2.026892 -7.92333,0.696363 z"
       id="path3502"
       inkscape:connector-curvature="0" />
    <path
       style="fill:#fe0000"
       d="m 49.532712,138.76564 c -6.848896,-1.47873 -12.193077,-4.7069 -14.912044,-9.00766 -3.284116,-5.1947 -5.148553,-9.6347 -4.372632,-10.41304 0.326198,-0.32721 0.698227,-0.41916 0.826731,-0.20432 0.128505,0.21485 1.621468,3.19013 3.317697,6.61174 2.840318,5.72945 3.505059,6.41017 8.411215,8.61343 2.92994,1.31578 7.527098,2.68284 10.215908,3.03793 2.68881,0.35508 4.661653,1.01419 4.384097,1.46469 -0.580267,0.94183 -3.190665,0.90774 -7.870972,-0.10277 z m 14.018692,-0.84185 c 0,-0.45441 1.997663,-1.32365 4.439252,-1.93163 7.222188,-1.79842 14.311708,-5.37111 13.721232,-6.91467 -0.346317,-0.9053 0.344969,-1.55212 2.110877,-1.97509 1.444209,-0.34592 3.361817,-0.84827 4.26135,-1.11635 2.50378,-0.74616 1.990256,1.63883 -1.141035,5.29936 -2.13521,2.4961 -2.969418,2.95577 -3.61154,1.99003 -0.676521,-1.01747 -1.612888,-0.85688 -4.933732,0.84611 -3.541343,1.81607 -12.019784,4.58358 -14.14547,4.61732 -0.385514,0.007 -0.700934,-0.36066 -0.700934,-0.81508 z M 274.60537,90.903191 c -3.15355,-1.845866 -5.50528,-7.425048 -7.33053,-17.390717 -3.69891,-20.195649 -1.48643,-32.106535 5.98729,-32.232659 2.14345,-0.03617 9.91545,3.744905 9.91545,4.823862 0,1.055867 -0.11548,1.029353 -5.04672,-1.158788 -7.73365,-3.431652 -10.84113,-0.121993 -10.84113,11.546472 0,6.501459 2.94931,25.72899 4.32084,28.168911 2.72498,4.847699 6.118,6.324091 9.88555,4.301459 1.51938,-0.815688 1.66227,-1.206716 0.66656,-1.824025 -0.69708,-0.432166 -1.06932,-0.91559 -0.8272,-1.074274 0.24213,-0.158685 1.84011,-1.273461 3.55108,-2.477278 1.71097,-1.203818 3.33547,-1.963445 3.60999,-1.68806 0.76088,0.763253 -1.64802,9.976906 -2.60845,9.976906 -0.46275,0 -0.84136,-0.681332 -0.84136,-1.514072 0,-1.393762 -0.18305,-1.393762 -2.30357,0 -2.58346,1.69804 -5.79736,1.912197 -8.1378,0.542263 z m 106.00212,-0.85028 c -3.24776,-2.717854 -2.57522,-7.013402 1.83382,-11.712601 0.99805,-1.063733 2.5038,-3.094216 3.34611,-4.512185 0.84232,-1.417969 1.78926,-2.578125 2.10433,-2.578125 0.83758,0 9.66537,-5.870987 10.38194,-6.904579 0.33557,-0.484037 2.50945,-0.921491 4.83084,-0.972119 3.2606,-0.07111 4.76942,0.424954 6.63286,2.180742 1.32669,1.250038 2.41215,3.029766 2.41215,3.954952 0,1.110086 0.47675,1.49864 1.40187,1.142528 0.77103,-0.296795 1.40187,-0.151547 1.40187,0.322776 0,1.073954 -5.44256,6.380658 -5.98166,5.832354 -0.99076,-1.007653 -1.63239,-7.431654 -0.74228,-7.431654 0.52838,0 1.17283,0.527344 1.43209,1.171875 0.30551,0.759487 0.49736,0.645664 0.54517,-0.323449 0.11875,-2.406645 -3.45859,-4.975885 -6.79616,-4.880983 -4.5629,0.129745 -14.36231,6.882864 -19.06464,13.138107 -2.18457,2.906026 -3.97196,5.870715 -3.97196,6.588199 0,2.876687 1.96063,4.931251 4.70578,4.931251 1.52397,0 2.77086,0.421875 2.77086,0.9375 0,1.588392 -5.02056,0.97523 -7.24299,-0.884589 z M 325.58813,23.671875 c 0.26424,-0.902344 0.75995,-3.222656 1.10157,-5.15625 0.63421,-3.58964 1.9041,-4.665848 2.44739,-2.074104 0.2295,1.094842 2.10026,0.253662 7.77881,-3.497697 7.45029,-4.9218134 7.50298,-4.9392364 14.95327,-4.9444748 4.11215,-0.00289 9.04135,0.3222341 10.95379,0.7225007 3.50452,0.7334807 9.13967,4.7071051 9.13967,6.4448251 0,0.515625 -1.26369,-0.12914 -2.80818,-1.432812 -3.23915,-2.734077 -8.99237,-3.9432533 -17.89789,-3.7616633 -6.51148,0.1327743 -11.82035,2.3111053 -18.07898,7.4181383 -2.65352,2.165273 -2.69108,2.288098 -0.70094,2.292505 3.20938,0.0071 2.5147,1.630763 -1.59828,3.735603 -4.54336,2.325092 -5.91615,2.390856 -5.29023,0.253429 z"
       id="path3500"
       inkscape:connector-curvature="0" />
    <path
       style="fill:#000000"
       d="m 11.395105,221.50059 c 4.309246,-0.34285 4.390768,-0.40941 4.672897,-3.81539 l 0.287139,-3.46645 239.632899,-0.23618 c 238.36203,-0.23493 239.63984,-0.24612 240.94085,-2.10938 C 497.64827,210.84293 499.25408,210 500.49736,210 l 2.26051,0 -0.49387,-16.64063 c -0.27163,-9.15234 -0.70029,-18.00831 -0.95258,-19.67994 -0.52165,-3.4564 -0.88257,-3.59425 -11.746,-4.48626 -5.41356,-0.44452 -7.56726,-1.03568 -8.81604,-2.41987 -1.54103,-1.70814 -1.54763,-1.93683 -0.0978,-3.39117 1.44981,-1.45434 1.77861,-1.45237 4.87578,0.0292 1.82663,0.87378 4.84401,1.58869 6.7053,1.58869 3.21934,0 3.30883,-0.0835 1.83746,-1.71444 -0.8507,-0.94295 -1.54672,-2.20857 -1.54672,-2.8125 0,-0.80914 -5.96311,-1.09563 -22.66355,-1.08882 l -22.66356,0.009 -4.46083,8.36519 c -4.54391,8.52097 -9.29462,13.08291 -12.38532,11.89318 -2.16112,-0.83189 -1.68318,-2.83004 2.83584,-11.85607 l 4.21398,-8.41676 -215.1953,-0.2385 -215.195294,-0.23839 215.562784,-0.23237 215.56279,-0.23236 1.026,-2.95239 c 0.56431,-1.62383 1.02601,-3.10039 1.02601,-3.28125 0,-0.18088 -97.46496,-0.42501 -216.58879,-0.54253 -119.12384,-0.1175 -203.866228,-0.43391 -188.316426,-0.70312 l 28.272368,-0.48946 -3.272367,-2.61809 c -2.033658,-1.62705 -3.272368,-3.43363 -3.272368,-4.77254 0,-3.42986 3.766343,-20.64373 4.731485,-21.62499 1.298414,-1.32011 1.066632,-3.98894 -0.632719,-7.28538 -1.689061,-3.2765 -2.458624,-2.63599 -3.628229,3.01975 -1.022367,4.94375 -2.786294,6.3048 -11.581225,8.93609 -4.426505,1.32433 -8.679032,2.62267 -9.45006,2.88519 -0.878494,0.2991 -1.052952,0.16258 -0.46729,-0.36571 0.514019,-0.46366 4.299066,-1.80031 8.411216,-2.97034 8.618531,-2.45224 11.665432,-4.11495 11.723264,-6.39746 0.02256,-0.89046 0.589056,-3.1579 1.258875,-5.03875 1.314455,-3.69098 0.953913,-4.93006 -2.737148,-9.40676 l -2.072794,-2.51399 -1.145104,5.79524 c -0.629806,3.18739 -1.342232,6.53947 -1.583166,7.44908 -0.41992,1.58534 -9.442555,6.37969 -14.322432,7.6105 l -2.336449,0.58929 2.336449,-1.1089 c 1.285046,-0.6099 4.649533,-2.152 7.476635,-3.42687 2.827103,-1.27489 5.273474,-2.42353 5.43638,-2.55253 0.662621,-0.52475 2.974836,-13.31221 2.974836,-16.45203 0,-2.197953 0.971834,-4.813597 2.786731,-7.500349 1.532702,-2.268998 2.794385,-5.349213 2.803739,-6.844921 l 0.01701,-2.71947 -5.027785,4.59447 c -2.765281,2.526958 -5.740694,5.990414 -6.612028,7.696573 -1.890795,3.702356 -4.575188,3.717488 -5.002253,0.02822 -0.225039,-1.94404 0.957173,-3.812775 5.480987,-8.663859 5.951776,-6.38235 5.725323,-8.033135 -0.518876,-3.782465 -4.403096,2.99736 -6.53986,1.796929 -3.668503,-2.060959 1.815365,-2.439111 14.606322,-9.785789 19.006824,-10.916883 1.92172,-0.493953 2.077088,-0.796853 1.047225,-2.041639 -0.728927,-0.881049 -1.008822,-2.700715 -0.704639,-4.581032 0.277547,-1.715668 0.138321,-3.713948 -0.309389,-4.440624 -0.668854,-1.08561 -1.065299,-0.987668 -2.223069,0.549206 -0.774976,1.028738 -1.422424,2.186839 -1.438771,2.573558 -0.01635,0.386719 -0.495876,0.703125 -1.065618,0.703125 -1.188179,0 -0.326212,-4.447382 1.225465,-6.322881 1.315617,-1.590176 3.998789,-1.486145 5.401608,0.209431 0.833352,1.007265 1.614799,1.13549 2.856733,0.46875 7.24701,-3.890603 14.174628,7.238385 8.08064,12.981281 -1.189671,1.121131 -2.655186,2.038419 -3.256699,2.038419 -0.774603,0 -0.928338,1.586659 -0.526972,5.438726 0.455806,4.374536 0.199073,6.163074 -1.312073,9.140625 -1.033319,2.036045 -2.39128,5.422992 -3.017692,7.526552 -1.002362,3.366028 -0.915683,4.265363 0.722865,7.499996 1.023988,2.02144 2.592212,6.29684 3.484943,9.50088 l 1.623146,5.82553 -3.516709,9.90145 c -1.934189,5.44578 -3.671618,9.74604 -3.860952,9.55611 -0.189334,-0.18993 1.204984,-4.7419 3.098485,-10.11551 l 3.442728,-9.77019 -2.389199,-7.01772 C 63.866651,97.445784 62.86659,95.270484 61.084897,94.567734 57.993625,93.348451 57.19759,93.6919 55.055148,97.169278 c -2.368633,3.844502 -2.743838,2.721544 4.524293,13.540872 3.908949,5.81886 4.822217,8.98789 3.09597,10.74297 -0.959128,0.97516 -4.731484,18.18556 -4.731484,21.5862 0,2.31547 6.20555,7.89818 8.77935,7.89818 1.90093,0 1.926103,-1.29153 0.05553,-2.84882 -3.322167,-2.76577 -5.233058,-6.45081 -4.227893,-8.15324 0.872037,-1.47695 0.952926,-1.43348 0.754943,0.40571 -0.127355,1.1831 1.170592,3.8616 3.049287,6.29264 l 3.271028,4.23273 27.570094,0.0197 27.570094,0.0197 -3.03738,-1.95128 c -1.67056,-1.07319 -3.03738,-2.03134 -3.03738,-2.12921 0,-0.0979 -0.61453,-5.14722 -1.36561,-11.22079 -1.13055,-9.14201 -1.87717,-11.95993 -4.33748,-16.37061 -9.24175,-16.56807 -9.20734,-16.48845 -9.22896,-21.350657 -0.0117,-2.625084 -0.64282,-6.843831 -1.40255,-9.374999 -0.75974,-2.531149 -1.59075,-7.133354 -1.84672,-10.227104 -0.46169,-5.580519 -0.45497,-5.5694 0.84938,1.40625 0.7231,3.867187 1.7644,8.505027 2.31399,10.306311 0.54959,1.801283 0.99925,4.714323 0.99925,6.47343 0,3.119962 0.0451,3.1575 1.83641,1.531237 1.17246,-1.064372 2.71708,-1.498247 4.27223,-1.200028 l 2.43581,0.467091 -0.58357,-9.492147 c -0.32095,-5.220679 -0.77579,-10.426472 -1.01072,-11.568429 -0.50525,-2.455889 -2.79217,-1.978573 -3.49831,0.730155 -1.14207,4.38094 -6.72013,2.602395 -6.05681,-1.931195 0.31335,-2.141676 0.006,-2.473393 -2.468136,-2.662492 -1.554345,-0.118808 -3.81056,-0.863082 -5.013803,-1.653945 -2.516246,-1.653858 -4.866374,-0.447988 -4.866374,2.496976 0,0.937684 -0.420561,1.965612 -0.93458,2.284286 -0.543364,0.336867 -0.934579,-0.592583 -0.934579,-2.220378 0,-1.869812 0.776072,-3.41215 2.336448,-4.643378 1.285047,-1.013977 2.336449,-2.732096 2.336449,-3.818044 0,-2.824302 3.278037,-5.72445 6.470346,-5.72445 1.595549,0 3.962949,1.038978 5.691049,2.49762 2.33724,1.972813 2.87689,3.058823 2.56822,5.168461 -0.34279,2.342939 -0.15226,2.597025 1.55196,2.069588 4.12012,-1.275131 8.61431,-4.081628 11.7055,-7.309767 3.22987,-3.372966 5.93074,-4.258241 7.11703,-2.332782 0.78952,1.28147 -9.26763,11.616425 -12.68661,13.037036 -2.46648,1.024847 -2.49738,1.147481 -2.07899,8.25195 0.2336,3.966404 0.73269,8.688207 1.10911,10.492894 l 0.68439,3.28125 16.60034,-16.73157 c 9.23016,-9.303121 16.95623,-16.374587 17.4019,-15.927516 0.44568,0.447072 0.18793,2.903882 -0.58056,5.533632 -0.99685,3.411194 -2.67996,6.011895 -6.03799,9.329773 -2.56074,2.530108 -4.65772,5.037931 -4.65996,5.572939 -0.002,0.535008 -4.6524,5.824305 -10.33367,11.753992 -10.14263,10.58613 -10.31024,10.83215 -9.26117,13.59375 4.03909,10.63253 4.74708,13.67693 5.59142,24.04357 0.9193,11.28717 0.95557,11.41304 4.42981,15.37695 l 3.50292,3.99661 154.90655,0.0883 c 115.79131,0.066 154.90655,-0.1828 154.90655,-0.98531 0,-0.9938 5.40209,-12.07401 10.24914,-21.02197 1.13641,-2.09788 4.13822,-6.6449 6.67071,-10.10448 3.4161,-4.66669 5.32826,-6.43535 7.40872,-6.85273 2.23211,-0.44783 2.58919,-0.82249 1.75028,-1.83648 -2.60374,-3.14712 2.94707,-11.61073 7.61482,-11.61073 1.37657,0 3.57217,0.84375 4.8791,1.875 1.30694,1.03125 3.02205,1.875 3.81137,1.875 1.56073,0 4.34483,3.43771 4.34483,5.36485 0,1.99739 -1.50294,1.34337 -2.63369,-1.1461 -1.21663,-2.67856 -2.97379,-3.12039 -2.97379,-0.74776 0,0.8778 -1.34418,2.98718 -2.98707,4.6875 l -2.98707,3.09151 2.73028,0 c 1.50167,0 5.5965,-1.12803 9.09963,-2.50673 5.80138,-2.28321 6.50084,-2.37483 7.84401,-1.02747 0.81107,0.8136 1.21386,1.90258 0.8951,2.41995 -1.13333,1.83951 -14.48125,6.73925 -18.35909,6.73925 -3.53109,0 -4.49084,0.57785 -10.29384,6.19768 -3.82426,3.70354 -6.63447,7.26999 -6.98311,8.86223 -0.32086,1.4655 -1.31627,3.63357 -2.212,4.81794 -1.9242,2.54425 -6.65338,10.69064 -6.65338,11.46097 0,0.71367 41.04346,0.69246 44.6099,-0.0231 2.7283,-0.54736 2.78533,-0.6759 2.68692,-6.05614 -0.0722,-3.95001 0.33152,-5.93149 1.43483,-7.04121 1.42422,-1.43251 1.40731,-1.67276 -0.23365,-3.31885 -2.40079,-2.4083 -2.38353,-8.65813 0.0306,-11.07982 1.43155,-1.43601 3.10417,-1.79975 8.17757,-1.77836 3.50786,0.0148 6.84784,0.41048 7.42216,0.87932 0.66061,0.53927 1.47516,0.33156 2.21725,-0.56539 1.48088,-1.78994 4.57961,-1.83998 5.25104,-0.0848 0.70742,1.84928 -1.01102,4.78262 -6.55965,11.19716 -4.72543,5.46286 -4.7566,5.54109 -4.7566,11.93877 l 0,6.43987 28.03738,0.24872 28.03739,0.24873 0.30118,2.63482 c 0.45138,3.9489 -1.26276,5.32499 -6.72402,5.39798 l -4.79212,0.064 -5.36817,6.73282 c -2.9525,3.70306 -7.70708,9.33405 -10.56572,12.51332 l -5.19756,5.78049 11.3288,14.58775 11.32879,14.58774 15.59207,0.25676 15.59212,0.25683 0.28714,3.46645 c 0.28213,3.40598 0.36365,3.47254 4.6729,3.81539 2.41217,0.19192 -128.932,0.34894 -291.87593,0.34894 -162.94393,0 -294.2881046,-0.15702 -291.875937,-0.34894 z m 578.324535,-3.53184 0,-3.28125 -286.4486,0 -286.44861,0 0,3.28125 0,3.28125 286.44861,0 286.4486,0 0,-3.28125 z m -80.64221,-16.17363 c 0.10941,-6.57325 0.67847,-16.3854 1.26457,-21.80476 1.58986,-14.70018 -0.74543,-20.94789 -6.64592,-17.78018 -1.89663,1.01822 -1.95866,1.53542 -1.43994,12.00506 0.29813,6.01756 0.64844,16.62698 0.77848,23.57648 l 0.23642,12.63547 -2.72663,0.48953 c -1.49966,0.26925 -2.90153,1.01687 -3.11527,1.6614 -0.28364,0.8553 1.21038,1.1714 5.53038,1.17013 l 5.919,-0.002 0.19891,-11.95136 z m 9.27178,10.5602 c 0.46995,-1.22852 -1.73366,-5.79914 -5.99449,-12.43345 -0.7451,-1.16015 -1.11486,-2.10937 -0.82169,-2.10937 1.19873,0 8.258,13.21684 7.75774,14.52456 -0.47025,1.22929 1.83931,1.41294 17.7689,1.41294 14.49935,0 18.12411,-0.24386 17.41898,-1.17188 -13.27344,-17.46903 -24.76573,-32.07978 -27.837,-35.39062 -2.15242,-2.32031 -5.9387,-6.86 -8.41395,-10.08817 -2.47527,-3.22819 -4.67394,-5.69543 -4.88595,-5.48276 -0.21202,0.21267 1.13903,2.39014 3.00232,4.83881 4.10112,5.38955 7.02043,10.95854 7.02043,13.39244 0,1.38605 -5.44769,8.77413 -11.80634,16.01156 -0.18875,0.21484 -0.34319,0.11505 -0.34319,-0.22176 0,-0.3368 2.30922,-3.34297 5.1316,-6.68037 4.54984,-5.38007 5.02925,-6.33804 4.22874,-8.45012 -1.43576,-3.78815 -5.05855,-3.19606 -8.03314,1.3129 -2.08421,3.1593 -2.40037,4.55249 -2.18066,9.60937 0.14134,3.25289 -0.0726,7.74445 -0.47541,9.98123 -0.66379,3.68598 -0.48518,4.32573 1.90696,6.83039 2.63136,2.75512 2.63307,2.76514 0.56334,3.30808 -3.37991,0.88663 -2.36974,2.2009 1.69163,2.2009 2.473,0 3.95098,-0.47925 4.30118,-1.39468 z m -6.67214,-3.29857 c -1.85948,-2.06111 -2.87899,-1.84081 -2.00876,0.43407 0.30438,0.79567 1.26264,1.44668 2.12946,1.44668 1.43823,0 1.42768,-0.16446 -0.1207,-1.88075 z m 2.72858,-30.88862 c 2.97722,-1.59834 5.41655,-0.94004 6.81879,1.84018 l 1.17793,2.33544 0.0137,-2.15593 c 0.0159,-2.49267 -1.85819,-6.40535 -5.92025,-12.35997 -2.77475,-4.06753 -2.88583,-4.12814 -3.43657,-1.875 -0.90275,3.69323 -2.02148,-11.45533 -1.31113,-17.7537 0.3815,-3.38251 0.22981,-6.14753 -0.39659,-7.22903 -0.55791,-0.96325 -1.02717,-1.23887 -1.0428,-0.61248 -0.0396,1.58948 -3.32636,3.19053 -5.12687,2.49745 -2.4489,-0.94267 -3.62953,-3.97477 -2.26058,-5.80564 1.00833,-1.34857 0.91851,-1.33846 -0.6116,0.0688 -2.02374,1.86132 -2.20407,5.0871 -0.96465,17.2563 0.76179,7.47956 0.82788,7.63384 2.87014,6.70042 5.1628,-2.35968 8.44808,4.1105 7.68339,15.1321 -0.23417,3.37515 -0.25438,5.45937 -0.0449,4.63162 0.20946,-0.82777 1.35783,-2.02954 2.55194,-2.6706 z M 540.208,176.0151 c 2.83869,-3.22237 7.20053,-8.28463 9.69297,-11.24948 l 4.53171,-5.39062 -19.24725,0 -19.24726,0 7.68512,9.44712 c 4.22683,5.19592 8.31598,10.24268 9.087,11.21502 0.77103,0.97234 1.61215,1.7834 1.86916,1.80236 0.25701,0.0189 2.78985,-2.60202 5.62855,-5.8244 z m -105.48234,1.40677 c 1.99666,-1.18214 4.89022,-5.57047 10.35426,-15.70312 4.17077,-7.73438 8.77139,-16.08497 10.22362,-18.55688 4.43439,-7.54804 2.62547,-15.85176 -2.81675,-12.93007 -1.70981,0.91792 -9.47241,15.99071 -11.38782,22.11195 -0.64539,2.0625 -3.42771,8.27813 -6.18292,13.81251 -6.4736,13.00344 -6.50744,15.00568 -0.19039,11.26561 z m 66.20893,-10.17017 c 0,-2.42883 -0.0163,-2.4339 -5.69597,-1.77265 -4.49715,0.52359 -6.47066,0.31273 -9.37679,-1.00185 -2.81753,-1.2745 -3.93815,-1.40687 -4.77799,-0.56441 -2.15517,2.1619 1.31877,3.77641 10.03767,4.66495 4.62617,0.47146 8.72663,0.91402 9.11215,0.98348 0.38551,0.0695 0.70093,-0.96983 0.70093,-2.30952 z m 0,-5.46491 c 0,-2.34321 -3.84275,-6.16179 -6.2008,-6.16179 -1.61245,0 -1.73336,5.72855 -0.15434,7.3125 0.61683,0.61875 2.29907,1.125 3.73832,1.125 2.14736,0 2.61682,-0.40826 2.61682,-2.27571 z m -8.41121,-5.14761 c 0,-0.98908 0.25835,-2.47369 0.57412,-3.29913 0.5177,-1.35332 -1.50651,-1.47601 -20.59926,-1.24855 l -21.17338,0.25225 -1.92243,3.04687 -1.92242,3.04688 22.52169,0 c 21.57854,0 22.52168,-0.0753 22.52168,-1.79832 z m 75.5265,-1.71731 0.29286,-3.04687 -28.09659,0 -28.0966,0 0,3.2952 0,3.2952 27.80374,-0.24833 27.80373,-0.24832 0.29286,-3.04688 z M 129.90655,150.2739 c 0,-0.36498 -1.46867,-2.17234 -3.2637,-4.01636 -3.21993,-3.30782 -3.27611,-3.50526 -4.19004,-14.72642 -0.98116,-12.04654 -2.01567,-16.02241 -7.05548,-27.1161 C 112.69585,98.468484 111.92422,97.5 109.88781,97.5 c -1.48425,0 -2.93019,0.860559 -3.87414,2.305716 -1.64043,2.511454 -1.91377,1.839804 7.90658,19.428304 2.46164,4.40887 3.2092,7.22402 4.33431,16.3221 0.74779,6.04689 1.46745,11.089 1.59926,11.20469 3.19453,2.80397 10.05273,5.20068 10.05273,3.51309 z m 378.04567,-8.49138 c 0.51857,-0.37882 3.71873,-3.85283 7.11147,-7.72002 8.42793,-9.60653 10.15546,-13.125 6.44419,-13.125 -1.21308,0 -2.29861,1.06117 -3.13181,3.06152 -1.3723,3.29464 -6.01318,7.78372 -11.90221,11.51292 -4.05515,2.56791 -4.36514,3.34443 -2.20148,5.51484 1.62991,1.63501 2.29048,1.77068 3.67984,0.75574 z m -41.91639,-15.28629 5.06933,-5.22252 -2.47431,-1.13089 c -2.12011,-0.96901 -2.42006,-1.59699 -2.09538,-4.38686 0.6898,-5.92714 -2.97346,-3.76987 -9.37692,5.52202 -4.75456,6.89919 -5.70286,8.75373 -3.90683,7.64024 1.84144,-1.14162 4.61814,1.45088 5.27096,4.9213 l 0.65916,3.50423 0.89232,-2.8125 c 0.49078,-1.54688 3.17353,-5.16263 5.96167,-8.03502 z m 40.98762,7.54339 c 1.16663,-1.89353 -0.56868,-6.27855 -2.90771,-7.34761 -1.28398,-0.58686 -2.73529,-1.06701 -3.22512,-1.06701 -1.46708,0 -1.00524,6.31358 0.57802,7.90178 1.66624,1.67145 4.67012,1.94879 5.55481,0.51284 z m 8.90884,-9.76716 c -1.64209,-1.98479 -5.11106,-1.96647 -4.35002,0.023 0.31201,0.8156 0.56728,2.59898 0.56728,3.96306 l 0,2.48015 2.49531,-2.50312 c 2.10167,-2.10823 2.30477,-2.73343 1.28743,-3.96306 z m -36.49302,-6.10177 c 5.52489,-0.8321 16.82243,-5.37206 16.82243,-6.76016 0,-1.8967 -2.88877,-1.70351 -8.45534,0.56545 -6.39281,2.60576 -9.63015,2.94021 -13.64361,1.40953 -4.08457,-1.55781 -6.87302,-0.42011 -6.87302,2.80423 0,3.06724 1.26978,3.94782 4.6729,3.24064 1.28505,-0.26704 4.64953,-0.8339 7.47664,-1.25969 z m -5.44743,-8.15974 c 2.33323,-2.11813 2.14472,-4.2736 -0.59994,-6.86013 -2.74379,-2.58572 -4.67451,-1.5995 -5.65747,2.88986 -1.05531,4.81978 2.69822,7.20136 6.25741,3.97027 z M 127.8943,92.030673 c 4.70487,-5.118843 8.5543,-9.689582 8.5543,-10.157198 0,-0.467615 2.09514,-2.920298 4.65588,-5.450406 3.34922,-3.309165 5.04178,-5.920755 6.03093,-9.305607 0.75628,-2.587977 1.23381,-4.847095 1.06118,-5.020263 -0.17263,-0.173169 -7.93328,7.352006 -17.24589,16.72261 -10.30902,10.373232 -16.93201,17.749554 -16.93201,18.85796 0,1.001269 0.43822,2.641871 0.97383,3.645781 1.4054,2.63422 2.98503,1.49645 12.90178,-9.292877 z m -69.683036,0.795648 c 0.623993,0.0076 2.183347,0.54611 3.465233,1.196688 2.262507,1.14826 2.394965,1.031278 4.527064,-3.998196 2.986148,-7.04411 3.278766,-8.673143 2.486856,-13.844602 -0.564852,-3.688681 -0.815412,-4.111385 -1.446554,-2.440382 -0.419852,1.111593 -2.684095,3.346705 -5.031652,4.966913 -3.760902,2.595655 -4.270306,3.358392 -4.285291,6.416421 -0.01119,2.28332 -0.970331,4.881879 -2.803738,7.596038 -1.532703,2.269002 -2.786732,4.792715 -2.786732,5.608255 0,0.822085 1.056094,-0.07622 2.370141,-2.016084 1.303578,-1.924378 2.880681,-3.492653 3.504673,-3.485051 z m -14.286029,3.325985 c 0,-1.548337 14.108086,-15.547407 19.092575,-18.945039 2.349968,-1.601835 3.337332,-2.976695 3.337332,-4.647085 0,-4.568586 -3.821334,-2.180197 -14.719627,9.199981 -7.761562,8.104752 -10.514019,11.602092 -10.514019,13.359375 0,1.490962 0.52383,2.380462 1.40187,2.380462 0.771028,0 1.401869,-0.606459 1.401869,-1.347694 z m 1.570449,-14.175288 c 1.937439,-1.31889 4.26978,-2.201984 5.182981,-1.96243 0.9132,0.239554 1.424683,0.05302 1.136629,-0.414518 C 51.52724,79.132532 51.86472,78.75 52.56525,78.75 c 1.509844,0 7.820763,-6.300282 7.067655,-7.055743 -0.781259,-0.7837 -14.996209,6.868912 -16.875894,9.085131 -1.547646,1.824733 -2.143452,3.595612 -1.209729,3.595612 0.234183,0 2.010963,-1.079092 3.948402,-2.397982 z m 61.722066,-5.147685 c 0.29237,-1.121548 2.49182,-2.915738 5.28634,-4.312306 4.45514,-2.226475 14.59872,-11.064238 14.59872,-12.719377 0,-1.914149 -3.49264,-0.345328 -7.40604,3.326637 -2.38087,2.233983 -6.41981,4.836728 -8.97543,5.783877 -5.7679,2.137669 -7.9176,3.915958 -7.9176,6.549637 0,3.673152 3.52821,4.769445 4.41401,1.371532 z M 73.057253,69.698449 c 2.1011,-1.907411 2.217256,-4.61474 0.230799,-5.379397 -3.970871,-1.528528 -7.867489,0.04694 -7.867489,3.180948 0,3.627251 4.603099,4.952391 7.63669,2.198449 z m 31.775707,0 c 2.26923,-2.060043 2.16447,-5.244454 -0.24447,-7.431327 -1.91703,-1.740311 -1.97821,-1.739677 -3.27103,0.03388 -1.611906,2.2113 -1.714336,6.300879 -0.19596,7.823995 1.44696,1.451488 1.67108,1.42573 3.71146,-0.426551 z M 21.183802,131.5625 c -1.340577,-1.34476 -0.412986,-2.26688 5.076674,-5.04672 3.134851,-1.58741 5.475534,-2.52231 5.201519,-2.07756 -0.274016,0.44475 -2.628613,1.80959 -5.232438,3.03296 -7.794223,3.66203 -5.584363,4.61879 5.546145,2.40122 1.285047,-0.25602 0.654205,0.12772 -1.401869,0.85275 -4.089212,1.44199 -8.212732,1.8177 -9.190031,0.83735 z m 322.771158,-6.12777 c -0.0164,-0.87808 0.45268,-2.65855 1.04226,-3.9566 1.67516,-3.68805 -0.0708,-5.0494 -5.77132,-4.49994 -6.33609,0.61073 -8.38477,-1.19315 -8.38477,-7.38283 0,-3.55823 0.42506,-4.78769 2.04994,-5.92937 l 2.04995,-1.44031 -2.04995,-2.18889 c -2.59475,-2.770621 -2.63276,-7.250847 -0.10886,-12.832431 2.3605,-5.220247 4.38157,-7.516859 6.61499,-7.516859 0.94836,0 1.72748,-0.316406 1.73136,-0.703125 0.0479,-4.769521 3.08218,-15.350659 8.85742,-30.887582 4.26592,-11.476417 7.02338,-20.312506 7.02338,-22.5059 0,-6.442065 4.36401,-9.921656 7.69784,-6.137768 3.18922,3.619763 2.61645,9.024611 -3.65117,34.453125 -3.30437,13.40625 -6.86513,25.832766 -7.91281,27.61448 -1.04768,1.781713 -2.49614,6.339386 -3.21879,10.128162 -1.50231,7.87638 -2.48226,10.089758 -5.08603,11.487608 -1.73614,0.93206 -1.75664,1.13143 -0.33953,3.30097 0.93742,1.43516 1.33966,3.46086 1.06287,5.35266 -0.26453,1.80801 0.11355,3.89928 0.93128,5.15119 1.50389,2.30241 1.10485,5.29447 -1.0956,8.21493 -1.2265,1.62784 -1.41665,1.66455 -1.44246,0.27848 z m -8.42718,-17.79005 c 3.22225,-4.46209 2.5366,-6.56241 -1.31571,-4.03039 -1.83119,1.20359 -2.43636,2.3896 -2.43636,4.77478 0,1.74538 0.20764,3.17343 0.46143,3.17343 0.25378,0 1.73457,-1.76302 3.29064,-3.91782 z m 9.31864,-5.44998 c 1.89321,-1.01638 3.28417,-4.715559 4.23293,-11.2572 0.33652,-2.320313 1.83788,-6.627249 3.33635,-9.570972 3.01108,-5.915206 3.2919,-7.539572 1.55363,-8.98672 -0.82637,-0.687963 -1.70388,-0.583816 -2.98237,0.353958 -2.16082,1.584967 -5.35625,1.727036 -6.77751,0.301328 -0.74255,-0.744875 -1.20624,0.05345 -1.68618,2.903029 -0.36408,2.16174 -1.90558,6.301949 -3.42553,9.200464 -2.27334,4.335183 -2.58763,5.657365 -1.77177,7.453583 1.41521,3.115752 1.22821,5.419752 -0.56022,6.902418 -1.41761,1.175242 -1.44064,1.107252 -0.26595,-0.785007 1.06116,-1.70939 1.07825,-2.648175 0.0977,-5.368295 -1.09059,-3.025411 -0.98248,-3.649015 1.31408,-7.580053 1.37635,-2.355886 2.2592,-4.527429 1.96191,-4.82565 -2.42332,-2.43089 -8.41457,8.465849 -7.92195,14.408233 0.24834,2.995603 0.8445,3.828937 4.02978,5.633024 4.11494,2.33064 6.24681,2.6235 8.8651,1.21786 z m 5.75582,-30.241575 c 0.78472,-0.644531 2.15027,-3.914063 3.03455,-7.265625 0.88427,-3.351563 2.70693,-9.679688 4.05036,-14.0625 5.59846,-18.26453 5.86832,-19.727326 4.79931,-26.015625 C 361.93862,21.386719 361.12779,18.75 360.68462,18.75 c -1.38058,0 -2.74068,3.476257 -2.74068,7.004852 0,1.866719 -2.76808,10.807504 -6.18693,19.983507 -8.39583,22.534001 -8.99755,24.571318 -7.71498,26.121549 1.31304,1.58707 4.68312,1.634956 6.56021,0.09322 z M 361.03037,50.15625 c 5.26297,-21.296558 5.90285,-28.042358 2.89732,-30.54452 -1.56251,-1.300821 -1.59988,-0.771414 -0.39528,5.600255 0.99686,5.272861 0.53512,7.725559 -4.59085,24.385939 -4.63839,15.075637 -5.93679,20.461437 -5.2152,21.632653 0.37962,0.616162 1.0315,0.767131 1.44861,0.335484 0.41711,-0.431645 3.05204,-10.066061 5.8554,-21.409811 z m 52.98833,75.88478 c 0,-0.2868 1.89597,-1.36276 4.21327,-2.39101 3.64462,-1.61723 4.0861,-2.10793 3.27103,-3.63566 -0.51823,-0.97135 -0.94224,-2.87914 -0.94224,-4.23952 l 0,-2.47343 -2.46249,1.94305 c -1.35436,1.06867 -2.97905,1.94304 -3.61043,1.94304 -1.63886,0 -9.81493,-8.99892 -9.81493,-10.80272 0,-0.82942 0.42951,-2.3131 0.95447,-3.29705 0.80657,-1.51181 0.40832,-2.14227 -2.5701,-4.068764 -1.9385,-1.25386 -7.30961,-6.212406 -11.93577,-11.018994 l -8.41122,-8.739251 9.15094,8.812881 c 8.11246,7.812782 9.30916,8.654142 10.54535,7.414092 0.76695,-0.769341 1.63249,-2.870305 1.92344,-4.668816 0.51082,-3.157694 0.25293,-3.505137 -7.50798,-10.114629 -4.42034,-3.764535 -8.03698,-7.083442 -8.03698,-7.375348 0,-0.291907 0.94626,0.30807 2.1028,1.333282 14.17075,12.561603 15.55931,13.448084 18.31788,11.694492 0.92619,-0.588767 -1.14155,-2.829159 -7.77404,-8.423145 -4.96971,-4.191566 -8.76321,-7.62103 -8.43002,-7.62103 0.87255,0 16.15916,13.195292 20.3963,17.605932 3.38533,3.523951 3.76043,3.677633 6.73843,2.760802 3.90289,-1.201573 5.28946,-0.211463 8.44118,6.027585 2.63669,5.219531 2.78621,6.690961 0.84414,8.307781 -1.23038,1.02432 -0.91924,1.61114 2.33645,4.40659 2.73172,2.34556 3.75585,3.94358 3.75585,5.8605 0,3.80825 -2.66766,6.5577 -7.00935,7.22426 -2.05607,0.31565 -5.29866,1.35752 -7.20575,2.31524 -3.31034,1.66241 -7.28023,2.32759 -7.28023,1.21984 z m 6.11198,-14.10198 c 2.17006,-2.37102 4.90068,-4.79681 6.06804,-5.39063 4.17018,-2.12129 4.42146,-3.91006 1.37139,-9.762448 -2.50631,-4.809028 -3.10117,-5.366646 -5.60748,-5.256455 -1.54206,0.0678 -4.54166,0.884103 -6.66579,1.814012 -3.8452,1.683374 -3.8534,1.697765 -1.87989,3.300805 1.7515,1.422703 2.27705,1.457082 4.51657,0.29536 3.92191,-2.034441 4.7814,-1.644488 7.42631,3.369396 1.35445,2.56758 2.08442,4.43384 1.62216,4.14725 -0.46225,-0.28658 -1.68413,-2.17994 -2.71526,-4.20745 -1.03114,-2.027512 -2.30357,-3.68639 -2.82762,-3.68639 -2.30988,0 -8.52481,4.03567 -9.49109,6.16305 -0.9634,2.12103 -0.67963,2.7331 3.07476,6.63225 2.89537,3.00698 3.43522,3.91165 1.79966,3.01576 -2.78811,-1.52721 -7.47663,-5.59115 -7.47663,-6.48063 0,-0.3472 1.05835,-2.19572 2.35188,-4.10781 2.46998,-3.651089 2.36416,-5.22262 -0.35165,-5.22262 -1.63684,0 -5.73855,7.06885 -5.73855,9.88977 0,1.90825 7.36482,9.79773 9.14617,9.79773 0.7873,0 3.20697,-1.93993 5.37702,-4.31095 z m 11.25561,2.13782 2.51856,-2.17315 -2.59247,-2.0456 c -3.0952,-2.4423 -5.78156,-2.60599 -8.10794,-0.49407 -5.34526,4.85252 2.66955,9.46911 8.18185,4.71282 z m -16.43301,-3.7572 c 0,-0.16793 -1.15654,-1.32809 -2.57009,-2.57813 l -2.57009,-2.27279 2.26571,2.57813 c 2.11765,2.40964 2.87447,3.00805 2.87447,2.27279 z M 408.61071,97.4778 c 0.88075,-1.552566 2.35271,-3.09195 3.27103,-3.420862 3.87372,-1.387401 4.18873,-2.356893 1.63471,-5.031046 -2.16319,-2.26494 -2.74998,-2.443203 -5.10595,-1.551148 -1.93299,0.731906 -2.81593,1.831605 -3.22446,4.016118 -0.30943,1.654528 -1.21503,3.551397 -2.01244,4.21526 -1.28798,1.072265 -1.20696,1.394466 0.72566,2.885859 2.83301,2.186209 2.84015,2.184529 4.71145,-1.114181 z m -189.4727,24.2778 c -2.3016,-2.12817 -4.18473,-4.49324 -4.18473,-5.25571 0,-1.97789 -13.70651,-26.1027 -17.88251,-31.474968 -1.92658,-2.47848 -3.984,-5.968709 -4.57204,-7.756065 -0.76801,-2.334354 -2.12526,-3.790196 -4.81844,-5.168448 -2.0621,-1.055291 -3.95734,-1.709985 -4.21166,-1.454875 -0.95982,0.962822 1.48108,3.792541 4.50823,5.226363 3.38733,1.604417 4.34861,4.963587 1.57382,5.499633 -3.33908,0.645057 -9.21079,-4.610946 -12.52405,-11.210779 -1.75717,-3.500169 -3.19459,-6.901819 -3.19427,-7.559222 4.2e-4,-0.853521 -1.34251,-1.101932 -4.69681,-0.868804 -3.28838,0.228546 -5.42434,-0.15132 -7.12085,-1.266395 -2.15039,-1.413383 -2.37124,-2.057589 -1.96005,-5.7171 0.25488,-2.268326 0.3156,-4.12423 0.13492,-4.12423 -0.18066,0 -1.05411,1.371094 -1.94099,3.046875 -1.27026,2.400203 -1.68848,2.688884 -1.97053,1.360154 -0.19691,-0.927696 0.26795,-2.645082 1.03305,-3.816412 1.14735,-1.756555 2.30098,-2.153708 6.58433,-2.266756 4.32237,-0.114079 5.669,0.264493 8.03016,2.2575 3.13958,2.650038 3.12708,2.661915 4.65737,-4.422269 C 177.9139,40.62275 181.02872,33.75 182.49015,33.75 c 3.2587,0 4.73659,5.296069 2.09225,7.497545 -1.26901,1.05647 -4.21358,9.219239 -4.20506,11.656987 0.002,0.550945 1.95576,1.807226 4.34185,2.791735 2.3861,0.984511 7.32611,4.219623 10.97781,7.18914 3.6517,2.969517 6.91011,5.117133 7.24091,4.772482 1.48632,-1.548537 17.30066,-33.07754 19.12219,-38.123857 2.68349,-7.434225 4.34827,-7.328899 5.37229,0.33989 0.7019,5.256391 0.57365,6.270535 -1.07594,8.508697 -1.03004,1.397563 -2.50499,4.407423 -3.27767,6.688578 -2.29145,6.765018 -12.90232,33.130614 -13.74709,34.158409 -0.93044,1.132022 10.48469,30.388304 14.9062,38.203674 4.90574,8.67127 2.13924,11.01597 -5.09988,4.32232 z m 7.03022,1.87544 c 0,-0.58105 -1.62613,-4.06152 -3.61363,-7.73437 -1.98749,-3.67286 -5.9866,-12.79511 -8.88691,-20.27167 -6.40706,-16.516427 -9.90924,-22.5 -13.16923,-22.5 -4.81316,0 -5.75645,7.595021 -1.61336,12.99009 3.57354,4.653399 17.00276,28.66024 17.00276,30.39511 0,0.76814 1.68345,2.92228 3.74101,4.78696 3.70692,3.35945 6.53936,4.37034 6.53936,2.33388 z M 190.65421,79.231331 c 0,-0.766518 -1.4871,-2.01696 -3.30466,-2.77876 -4.03257,-1.690182 -6.49263,-6.713172 -5.60703,-11.448558 0.50613,-2.70634 0.27125,-3.273978 -1.7339,-4.190441 -2.85078,-1.302964 -5.25759,-0.499389 -5.19691,1.73513 0.0905,3.330777 6.05023,13.367008 9.30706,15.672999 3.71082,2.627435 6.53544,3.063797 6.53544,1.00963 z m 6.53727,-5.631803 c 1.41884,-1.714933 4.78974,-1.840118 6.4667,-0.240153 0.85879,0.819357 0.80256,0.325832 -0.18689,-1.640625 -1.64062,-3.260582 -11.49363,-11.506476 -17.2191,-14.410506 -2.1641,-1.097658 -5.37442,-1.995744 -7.13404,-1.995744 -2.62108,0 -3.27562,0.400431 -3.62153,2.215577 -0.33965,1.782349 -0.0872,2.127686 1.29127,1.766092 0.94241,-0.247217 2.78097,0.252151 4.08569,1.109707 2.02376,1.33016 2.28501,2.025502 1.77854,4.733706 -0.57438,3.071221 -0.43534,3.255007 4.27308,5.648398 3.92038,1.992812 5.16015,3.223095 6.37546,6.326655 l 1.5087,3.852769 0.60694,-2.976924 c 0.33383,-1.637308 1.13266,-3.612337 1.77518,-4.388952 z M 215.3333,62.578125 c 3.48062,-8.894531 6.79343,-17.4375 7.36177,-18.984375 0.56836,-1.546875 1.82122,-3.904163 2.78413,-5.238418 1.46639,-2.031891 1.64493,-3.364273 1.09918,-8.203125 -0.35837,-3.177464 -0.95125,-5.777207 -1.31751,-5.777207 -0.36627,0 -1.18751,1.792969 -1.82499,3.984375 -0.63747,2.191406 -5.37315,12.180334 -10.52372,22.197616 l -9.36468,18.213242 1.69082,4.989883 c 0.92997,2.744437 2.15788,4.989884 2.72872,4.989884 0.57083,0 3.88566,-7.277344 7.36628,-16.171875 z M 173.64486,59.8125 c 2.91452,-2.92362 -0.93757,-9.763099 -4.30704,-7.647281 -1.94767,1.223011 -2.57632,5.597948 -1.06661,7.422723 1.35906,1.642681 3.85593,1.747023 5.37365,0.224558 z m 6.63451,-10.536509 c 0.62565,-2.804454 1.98369,-6.178062 3.01787,-7.496905 2.13947,-2.728394 2.01855,-6.463026 -0.22311,-6.891223 -1.4955,-0.285665 -4.53099,6.55208 -5.94575,13.393387 -0.3199,1.546875 -0.80027,3.550781 -1.06752,4.453125 -0.34343,1.159612 0.037,1.640625 1.29754,1.640625 1.39681,0 2.03002,-1.105371 2.92097,-5.099009 z m 69.98558,37.208384 c -2.04564,-2.3525 -3.77272,-5.900019 -4.42849,-9.096417 -0.54943,-2.678042 -0.72481,-2.759941 -5.3794,-2.512123 -6.70916,0.357207 -8.91338,-1.859628 -8.55646,-8.605406 0.2427,-4.586816 0.085,-4.963434 -2.92998,-7.001639 -4.24872,-2.872156 -4.35313,-3.01879 -2.14961,-3.01879 1.04439,0 3.08042,0.932296 4.52451,2.071768 1.74887,1.37996 3.6426,1.983877 5.67119,1.808557 1.67506,-0.144766 3.85023,0.168776 4.8337,0.69676 1.47328,0.790937 2.14743,0.47248 3.82862,-1.808557 1.82272,-2.473051 2.56116,-2.761111 6.91905,-2.699038 2.68321,0.03822 6.77109,0.440244 9.08417,0.893385 3.7091,0.726628 3.50538,0.76706 -1.72565,0.342477 -4.53771,-0.368309 -5.76487,-0.211353 -5.22308,0.668032 0.43734,0.709836 -0.28948,1.947446 -1.90039,3.235958 -2.39929,1.919103 -2.55676,2.433179 -1.96266,6.407333 0.49278,3.296332 1.04492,4.320825 2.32865,4.320825 1.2262,0 2.30949,-1.716806 3.99299,-6.328125 2.44962,-6.709782 4.54272,-8.326798 6.36271,-4.915481 0.82677,1.54966 0.73661,2.958664 -0.40423,6.317314 -0.80759,2.377542 -1.46834,4.431858 -1.46834,4.565148 0,0.133291 1.36682,0.412498 3.03738,0.62046 l 3.03739,0.378115 -3.33158,0.150034 c -2.82423,0.127187 -3.56912,0.649723 -4.89142,3.431285 -1.65933,3.490516 -2.51167,3.855935 -5.38984,2.310765 -2.25977,-1.21317 -2.3661,-0.01956 -0.34714,3.896887 1.13889,2.209245 1.2166,3.128187 0.35285,4.172193 -1.44267,1.743753 -2.15434,1.688482 -3.88494,-0.30172 z m 3.45641,-0.206842 c 0.30836,-0.500483 -0.0625,-2.118862 -0.82424,-3.596399 -0.76168,-1.477536 -1.88085,-6.425117 -2.48705,-10.994622 l -1.10217,-8.308192 2.568,-2.054052 c 3.00867,-2.406524 2.40545,-4.136768 -1.44221,-4.136768 -1.88337,0 -3.20448,0.730942 -4.27031,2.362677 -1.36474,2.089364 -1.41701,3.350217 -0.45186,10.899515 1.47398,11.529458 5.61572,19.713722 8.00984,15.827841 z m 5.11656,-10.105658 c 2.61064,-5.636915 4.70211,-12.855941 4.19183,-14.468729 -1.06763,-3.374291 -2.92311,-1.579029 -5.26459,5.093729 -2.04184,5.818824 -2.67127,6.75467 -4.37416,6.503571 -2.66531,-0.393013 -2.61047,2.094166 0.088,3.990144 2.92532,2.055376 3.99204,1.832691 5.35894,-1.118715 z M 244.70129,71.878973 C 245.17845,69.354059 244.0524,65.625 242.8128,65.625 c -2.08057,0 -4.49504,3.131373 -4.49504,5.829699 0,2.510162 0.2405,2.703279 3.02973,2.432824 2.05102,-0.198874 3.13441,-0.847707 3.3538,-2.00855 z m 129.95622,-0.394598 c -5.83302,-6.076031 -7.17544,-8.075723 -8.19899,-12.213421 -1.37913,-5.575205 -0.5197,-7.708454 3.10554,-7.708454 1.83579,0 19.88481,14.160166 21.60236,16.947903 0.36116,0.586199 -3.8801,-2.776333 -9.42503,-7.472293 -13.31427,-11.275759 -17.1752,-11.523913 -14.03059,-0.901792 1.19468,4.035515 2.79557,6.336622 8.21821,11.812745 3.70397,3.740515 6.50253,6.800937 6.21903,6.800937 -0.28352,0 -3.65425,-3.269531 -7.49053,-7.265625 z m -69.05003,2.528147 c -6.93925,-0.366311 -18.08411,-0.783374 -24.76635,-0.926806 -6.68224,-0.143432 -10.67757,-0.437189 -8.87851,-0.652793 1.79907,-0.215605 3.96952,-1.023186 4.82323,-1.794626 1.44653,-1.307142 1.44653,-1.589318 0,-4.145457 -1.44785,-2.558457 -1.44682,-2.929017 0.0152,-5.512377 l 1.56747,-2.769536 -5.77308,-0.331077 c -3.8482,-0.220687 -2.48658,-0.391304 4.08377,-0.511712 6.76003,-0.123885 12.48572,0.381179 18.2243,1.607568 4.6021,0.983515 13.7915,2.553662 20.42087,3.489218 15.50553,2.188181 19.04419,4.654387 14.9964,10.451477 -1.62511,2.327419 -1.49636,2.321708 -24.71336,1.096121 z m 23.74371,-0.744568 c 0.26924,-0.437 -6.96062,-1.274307 -16.06634,-1.860684 -31.23279,-2.011278 -34.51477,-2.07643 -35.64722,-0.70765 -0.86702,1.047976 2.49482,1.414599 19.771,2.156106 29.67585,1.273709 31.3981,1.295935 31.94256,0.412228 z m 1.48994,-3.871342 c 0,-3.013042 -3.52404,-4.36252 -15.88785,-6.08402 -6.42523,-0.894631 -15.4476,-2.427824 -20.0497,-3.407097 -11.74016,-2.498165 -15.03292,-2.374993 -16.99958,0.635908 -1.19102,1.823397 -1.36392,3.028083 -0.70453,4.9089 1.08135,3.084397 4.17631,3.748019 18.59493,3.987117 5.65421,0.09376 13.2243,0.473569 16.82243,0.84402 3.59813,0.370449 9.17056,0.739923 12.38318,0.821052 5.24495,0.132453 5.84112,-0.04165 5.84112,-1.70588 z m 48.75963,-4.02592 c -3.76633,-3.224341 -7.31208,-6.701014 -7.87944,-7.72594 -0.56738,-1.024926 0.41135,-0.376061 2.17495,1.441924 1.7636,1.817984 5.51963,5.288163 8.34673,7.711508 2.8271,2.423344 4.92991,4.412576 4.6729,4.420515 -0.25701,0.008 -3.54882,-2.623665 -7.31514,-5.848007 z m 43.74499,-13.362098 c -1.61314,-1.949799 -0.31997,-2.984311 1.95162,-1.561248 1.52329,0.954279 1.94378,0.906876 2.39393,-0.269864 1.00112,-2.617028 -0.35061,-4.335595 -2.90441,-3.692627 -2.70598,0.681279 -2.69551,0.706606 -1.33096,-3.219958 0.83295,-2.396903 1.53632,-2.952397 3.73832,-2.952397 1.49176,0 2.7123,0.421875 2.7123,0.9375 0,0.515625 -0.84112,0.9375 -1.86916,0.9375 -2.49202,0 -2.37212,1.209033 0.23365,2.355817 2.414,1.06239 3.15493,4.171271 1.66132,6.970822 -1.21218,2.27205 -4.88766,2.547967 -6.58661,0.494455 z m 13.10286,0.02266 c 0,-0.875 -0.88265,-1.40625 -2.33645,-1.40625 -2.92236,0 -2.91432,-0.601683 0.0799,-5.975669 3.14381,-5.642481 5.06028,-5.716789 5.06028,-0.196206 0,2.395833 0.49227,4.371069 1.16822,4.6875 0.93458,0.4375 0.93458,0.65625 0,1.09375 -0.64252,0.300782 -1.16822,1.144532 -1.16822,1.875 0,0.730469 -0.63084,1.328125 -1.40187,1.328125 -0.77103,0 -1.40187,-0.632813 -1.40187,-1.40625 z m 0,-5.3125 c 0,-1.117187 -0.11901,-1.855468 -0.26446,-1.640625 -0.14545,0.214844 -0.82778,1.128906 -1.5163,2.03125 -1.07157,1.404358 -1.03348,1.640625 0.26446,1.640625 0.93212,0 1.5163,-0.782562 1.5163,-2.03125 z m 8.01068,5.245535 c -3.10372,-3.11342 -1.09807,-11.651785 2.73698,-11.651785 2.34879,0 4.20561,2.897416 4.20561,6.5625 0,3.665084 -1.85682,6.5625 -4.20561,6.5625 -0.69759,0 -1.92924,-0.662947 -2.73698,-1.473215 z m 3.96897,-5.668867 c -0.16357,-2.001543 -0.71797,-3.639168 -1.23199,-3.639168 -1.09176,0 -1.79234,5.595759 -0.96979,7.746013 0.99994,2.613955 2.5194,-0.220204 2.20178,-4.106845 z m 5.2059,-1.698415 c -0.93053,-2.432504 0.37372,-4.442986 2.67009,-4.115881 1.5446,0.220021 2.10698,0.925695 2.10698,2.643878 0,1.718183 -0.56238,2.423857 -2.10698,2.643878 -1.26382,0.180024 -2.33233,-0.288936 -2.67009,-1.171875 z m 3.3752,-1.472003 c 0,-0.515625 -0.42056,-0.9375 -0.93458,-0.9375 -0.51402,0 -0.93458,0.421875 -0.93458,0.9375 0,0.515625 0.42056,0.9375 0.93458,0.9375 0.51402,0 0.93458,-0.421875 0.93458,-0.9375 z"
       id="path3498"
       inkscape:connector-curvature="0" />
  </g>
</svg>
