<?xml version="1.0" encoding="UTF-8" standalone="no"?>
<!-- Created with Inkscape (http://www.inkscape.org/) -->

<svg
   xmlns:dc="http://purl.org/dc/elements/1.1/"
   xmlns:cc="http://creativecommons.org/ns#"
   xmlns:rdf="http://www.w3.org/1999/02/22-rdf-syntax-ns#"
   xmlns:svg="http://www.w3.org/2000/svg"
   xmlns="http://www.w3.org/2000/svg"
   xmlns:sodipodi="http://sodipodi.sourceforge.net/DTD/sodipodi-0.dtd"
   xmlns:inkscape="http://www.inkscape.org/namespaces/inkscape"
   id="svg3376"
   version="1.1"
   inkscape:version="0.91 r13725"
   width="293.45795"
   height="142.5"
   viewBox="0 0 293.45795 142.5"
   sodipodi:docname="fx120601.svg">
  <metadata
     id="metadata3382">
    <rdf:RDF>
      <cc:Work
         rdf:about="">
        <dc:format>image/svg+xml</dc:format>
        <dc:type
           rdf:resource="http://purl.org/dc/dcmitype/StillImage" />
        <dc:title></dc:title>
      </cc:Work>
    </rdf:RDF>
  </metadata>
  <defs
     id="defs3380" />
  <sodipodi:namedview
     pagecolor="#ffffff"
     bordercolor="#666666"
     borderopacity="1"
     objecttolerance="10"
     gridtolerance="10"
     guidetolerance="10"
     inkscape:pageopacity="0"
     inkscape:pageshadow="2"
     inkscape:window-width="1310"
     inkscape:window-height="796"
     id="namedview3378"
     showgrid="false"
     inkscape:zoom="0.98140126"
     inkscape:cx="128.89733"
     inkscape:cy="71.25"
     inkscape:window-x="0"
     inkscape:window-y="0"
     inkscape:window-maximized="0"
     inkscape:current-layer="svg3376" />
  <g
     id="g3386"
     transform="translate(0.49386404,-3.7414703)">
    <path
       style="fill:#fefefe"
       d="m 48.831777,128.23282 c -4.471149,-3.31276 -4.822323,-4.55257 -2.028941,-7.16313 1.212696,-1.13334 2.772089,-5.08438 4.148745,-10.51171 l 2.205726,-8.69586 -8.729152,-9.455993 C 39.627122,87.205331 35.565148,82.32151 35.401547,81.553192 34.970888,79.530687 38.253165,75 40.149039,75 c 2.563749,0 5.891626,3.55947 12.173148,13.0203 8.497137,12.79784 8.548454,13.2025 3.237439,25.52826 l -4.399812,10.21103 2.470738,3.74521 c 2.147313,3.25494 2.254909,3.74033 0.821961,3.70806 -0.906825,-0.0204 -3.436157,-1.36145 -5.620736,-2.98004 z m 202.191643,1.24065 c -1.51884,-1.68355 -1.47168,-2.26011 0.90115,-11.01563 1.37714,-5.08149 3.30102,-11.27429 4.2753,-13.76175 l 1.77143,-4.52266 -5.24446,-9.807818 -5.24447,-9.807819 1.53631,-3.247646 c 3.33262,-7.044934 7.41579,-3.091659 11.98299,11.60179 l 3.30436,10.630688 -3.04855,9.080715 c -1.67671,4.9944 -3.73902,10.42011 -4.58292,12.05714 -2.41846,4.6914 -2.01574,7.40527 1.26937,8.55405 3.9052,1.3656 3.49989,2.01547 -1.25702,2.01547 -2.79882,0 -4.55883,-0.55208 -5.66349,-1.77653 z M 137.24668,102.95802 c -3.96751,-1.06035 -11.92196,-7.441686 -25.13916,-20.167527 -11.51972,-11.091461 -11.88722,-11.69577 -9.64839,-15.866016 2.93787,-5.472337 3.08109,-5.363901 22.44807,16.996052 7.65107,8.83347 12.90451,14.028271 16.10295,15.923221 2.61094,1.54687 4.7555,3.12891 4.7657,3.51562 0.0246,0.93373 -4.29416,0.7305 -8.52917,-0.40135 z m 30.74398,-35.488964 c -0.92989,-0.568403 -1.63552,-2.130364 -1.63552,-3.62034 0,-4.194851 2.34474,-5.409983 11.68225,-6.054183 17.03003,-1.174911 36.57946,-4.146761 40.50994,-6.158206 2.09447,-1.071855 4.03515,-1.948827 4.31264,-1.948827 1.4562,0 0.13971,2.79751 -2.53286,5.382236 -2.68303,2.594844 -5.21802,3.482645 -21.72898,7.609901 -20.5753,5.143225 -28.1019,6.320977 -30.60747,4.789419 z M 19.005452,56.655734 c -0.949121,-2.481097 1.073966,-3.387236 8.286,-3.711291 3.807716,-0.17109 10.335036,-1.184935 14.505155,-2.252987 9.055573,-2.319319 10.786286,-1.992905 9.472853,1.786585 -1.182606,3.403026 -2.669095,3.743729 -16.401219,3.759157 -6.573034,0.0074 -11.637818,0.409445 -11.971044,0.950302 -0.886027,1.438102 -3.262405,1.113395 -3.891745,-0.531766 z M 51.510281,46.028518 c 1.479987,-4.25876 3.936535,-6.003349 7.383816,-5.243833 2.626714,0.578726 2.877799,0.916873 2.324082,3.129949 C 60.24487,47.804722 58.952451,48.75 54.607081,48.75 l -4.042558,0 0.945758,-2.721482 z m 205.010189,2.004001 c -0.52589,-0.378823 -1.62809,-1.750886 -2.44932,-3.04903 -0.82125,-1.298144 -3.65388,-4.884082 -6.29475,-7.96875 -4.78732,-5.591836 -7.18997,-11.087665 -6.09669,-13.945595 0.81971,-2.142817 2.24553,-1.866109 2.24553,0.43579 0,4.294967 8.64229,15.3494 14.15575,18.106746 2.5458,1.273187 3.29848,3.838801 1.69484,5.777107 -1.2615,1.52476 -1.86627,1.644351 -3.25536,0.643732 z M 109.96885,44.375 c -0.34268,-0.34375 -0.62305,-1.55206 -0.62305,-2.685133 0,-1.568643 0.97365,-2.433135 4.08116,-3.623611 4.63908,-1.777222 16.84905,-10.575556 19.9429,-14.370586 2.4093,-2.955344 3.10853,-2.681897 2.41418,0.944124 -0.33959,1.773377 -3.08095,4.890659 -8.56234,9.736459 -10.98797,9.713885 -15.13876,12.119442 -17.25285,9.998747 z m 149.5218,-2.964445 c -2.01033,-2.228327 -1.95835,-4.183768 0.16238,-6.109004 2.13245,-1.935868 6.70212,-2.07655 6.70212,-0.206332 0,2.105864 -1.87006,6.511358 -3.09585,7.29322 -1.62014,1.033388 -2.05624,0.920228 -3.76865,-0.977884 z m -56.21962,-1.622727 c -11.57871,-1.473228 -17.84911,-1.617721 -20.0038,-0.46096 -2.67861,1.438028 -5.69713,0.153154 -5.69713,-2.425059 0,-3.578236 3.26048,-4.504674 9.87264,-2.805226 3.05136,0.784255 10.38437,2.126881 16.29558,2.983615 11.29828,1.6375 12.14953,1.867846 12.14953,3.28763 0,1.014249 -0.13614,1.00799 -12.61682,-0.58 z m -92.046,-3.681904 c -1.36435,-1.649075 -0.54856,-5.813175 1.60946,-8.215299 1.96776,-2.190354 2.55562,-2.075899 3.83792,0.747237 1.52593,3.359501 1.36017,4.835707 -0.78456,6.987138 -2.23323,2.240211 -3.13071,2.332777 -4.66282,0.480924 z m 73.12077,-3.914312 c -2.98138,-1.206771 0.0764,-7.059292 4.34205,-8.310513 2.18086,-0.639708 2.22236,-0.550911 1.59158,3.406065 -0.79038,4.958232 -2.43744,6.319604 -5.93363,4.904448 z"
       id="path3394"
       inkscape:connector-curvature="0" />
    <path
       style="fill:#fefe00"
       d="m 34.609047,78.384937 c -0.01628,-0.458598 1.206276,-2.848657 2.7168,-5.311243 1.510524,-2.462585 3.217799,-6.306119 3.793945,-8.541186 0.576145,-2.235067 1.244669,-4.750027 1.485609,-5.588799 0.267977,-0.932901 1.901086,-1.759717 4.206028,-2.129445 3.230539,-0.518198 3.980411,-1.102969 5.257514,-4.099958 l 1.489558,-3.495556 0.860282,3.212242 c 1.208299,4.511711 -0.493716,10.50387 -5.126224,18.047521 -3.625152,5.903258 -3.952524,6.183567 -5.748231,4.921875 -2.835676,-1.992391 -4.849733,-1.634943 -6.988171,1.240237 -1.054626,1.417969 -1.930825,2.202908 -1.94711,1.744312 z m 213.068283,-2.25041 c -0.008,-1.180698 0.82735,-3.80061 1.85539,-5.822027 1.4339,-2.819467 1.86915,-5.525405 1.86915,-11.620371 0,-4.369787 0.41302,-9.034784 0.91783,-10.36666 l 0.91781,-2.421593 1.88593,1.891812 c 2.63663,2.644875 4.32844,2.300137 6.27781,-1.279218 0.84246,-1.546901 1.03783,-1.354587 1.58248,1.557712 0.4332,2.316375 -0.27843,6.967235 -2.35,15.35853 -1.63426,6.61982 -3.11572,12.209233 -3.29215,12.420915 -0.17643,0.211683 -1.13318,-0.352639 -2.12613,-1.254049 -2.33991,-2.124215 -4.86634,-1.588299 -6.34642,1.346226 -1.17388,2.327439 -1.17797,2.328086 -1.1917,0.188723 z M 100.972,67.236052 c -0.0206,-0.402985 0.75716,-3.145172 1.72832,-6.09375 0.97116,-2.948579 2.52885,-8.390742 3.46153,-12.093695 1.57668,-6.259733 1.78889,-6.599311 3.0212,-4.834451 1.29292,1.851682 3.11863,1.954265 6.81942,0.38317 1.23405,-0.523891 0.89532,1.447336 -1.81874,10.584158 l -3.33522,11.227952 -2.27926,-1.798468 c -3.09651,-2.443322 -4.51983,-2.263338 -6.16554,0.779657 -0.76686,1.417969 -1.41113,2.248411 -1.43171,1.845427 z M 164.174,63.75 c -0.50278,-1.81536 0.82328,-5.302734 5.88196,-15.46875 3.69002,-7.415551 6.54161,-12.197317 6.55531,-10.992421 0.0268,2.35599 3.63695,4.31043 6.16472,3.337403 1.00457,-0.386693 0.0986,2.195577 -2.805,7.995048 -4.11007,8.209213 -4.41795,8.56622 -7.38755,8.56622 -3.54157,0 -6.78184,2.881473 -7.37966,6.5625 L 164.82313,66.09375 164.174,63.75 Z"
       id="path3390"
       inkscape:connector-curvature="0" />
    <path
       style="fill:#000000"
       d="m 30.299887,131.48486 21.421382,-0.27088 -3.898018,-2.87559 c -4.407156,-3.2512 -4.761823,-4.65939 -1.89724,-7.53292 1.223242,-1.22706 2.835512,-5.29789 4.148746,-10.47519 l 2.14797,-8.46816 -8.754358,-9.483298 c -4.814896,-5.215814 -9.037751,-10.615957 -9.38412,-12.000316 -0.47464,-1.897025 0.07018,-3.658124 2.211831,-7.149629 1.562877,-2.547936 3.312986,-6.461302 3.889132,-8.696369 0.576146,-2.235067 1.261126,-4.802039 1.52218,-5.704383 0.428598,-1.481471 -0.393984,-1.640625 -8.479523,-1.640625 -5.301137,0 -9.680592,0.455078 -10.734755,1.115471 -1.396397,0.87479 -2.099439,0.850021 -3.258346,-0.114792 -3.928554,-3.270598 -0.603105,-5.79213 8.157943,-6.185785 5.702,-0.256206 14.812816,-1.949831 20.003335,-3.718454 0.855948,-0.291658 0.887693,-1.096332 0.129341,-3.27854 -0.692289,-1.992108 -0.712674,-4.047372 -0.06551,-6.604958 1.097931,-4.339025 0.187015,-4.762292 -2.445939,-1.136533 -2.669883,3.676614 -3.567983,1.958175 -0.940511,-1.799587 1.200068,-1.716314 2.27834,-3.286158 2.39616,-3.488542 0.11782,-0.202382 0.849761,0.161133 1.626536,0.807814 0.776775,0.64668 2.389664,0.929717 3.5842,0.628971 3.203491,-0.806537 8.890706,1.067118 10.095911,3.326102 2.370234,4.442658 -0.91028,12.948833 -4.993878,12.948833 -1.568203,0 -1.729456,0.46368 -1.222627,3.515625 0.764059,4.600902 -1.130845,10.696276 -5.41251,17.410511 -1.880034,2.94815 -3.418242,5.861124 -3.418242,6.473276 0,0.612151 2.906162,5.560991 6.458138,10.99742 3.551976,5.436431 6.719532,11.163871 7.039015,12.727648 0.442618,2.1665 -0.429958,5.16173 -3.666034,12.58416 -2.3358,5.3575 -4.033928,10.40617 -3.773618,11.21927 0.26031,0.81308 1.47102,2.6385 2.690465,4.05646 l 2.217172,2.57813 96.998725,0 c 95.14739,0 96.96814,-0.0339 95.396,-1.77653 -1.51884,-1.68355 -1.47168,-2.26011 0.90115,-11.01563 1.37714,-5.08149 3.30102,-11.27429 4.27531,-13.76175 l 1.77142,-4.52266 -5.15387,-9.638401 c -5.63491,-10.537995 -6.32989,-14.378929 -3.54029,-19.56596 1.12222,-2.086698 1.77819,-6.186971 2.1542,-13.465238 0.29735,-5.755705 1.0177,-11.041547 1.60079,-11.746316 0.83393,-1.007967 -0.1251,-2.675851 -4.49438,-7.816331 -5.97184,-7.025907 -8.17402,-12.269114 -6.48376,-15.437268 1.79737,-3.368913 2.92662,-2.568728 4.11578,2.916421 0.5041,2.325174 0.71293,2.405569 4.05003,1.559127 2.4653,-0.625313 5.33415,-0.517279 9.584,0.360913 5.15781,1.065812 6.25502,1.651109 7.33209,3.911241 1.55056,3.253712 0.74338,8.469496 -1.68819,10.908668 -1.46887,1.473461 -1.59568,2.304787 -0.81947,5.372372 0.76739,3.032714 0.38533,5.750858 -2.32467,16.538765 l -3.24299,12.909596 3.55982,11.273343 3.55981,11.273338 -3.05105,9.08819 c -1.67809,4.9985 -3.74153,10.42756 -4.58543,12.06459 -1.98914,3.85859 -1.95021,6.73044 0.10115,7.46019 0.89953,0.32 2.28486,1.13726 3.07853,1.81612 0.98766,0.84482 5.26384,1.32722 13.5514,1.52876 6.65961,0.16195 -50.34489,0.289 -126.67667,0.28232 -76.331769,-0.007 -129.145419,-0.13402 -117.363659,-0.28301 z m 23.330665,-3.98006 -2.470738,-3.74521 4.399812,-10.21103 C 60.870641,101.2228 60.819324,100.81814 52.322187,88.0203 46.040665,78.55947 42.712788,75 40.149039,75 c -1.895874,0 -5.178151,4.530687 -4.747492,6.553192 0.163601,0.768318 4.225575,5.652139 9.026608,10.852935 l 8.729152,9.455993 -2.205726,8.69586 c -1.376656,5.42733 -2.936049,9.37837 -4.148745,10.51171 -1.068662,0.99872 -1.943022,2.35683 -1.943022,3.01804 0,1.5516 7.438402,7.07659 9.592699,7.12513 1.432948,0.0323 1.325352,-0.45312 -0.821961,-3.70806 z m 207.117118,3.22768 c 0,-0.28463 -1.26168,-0.95871 -2.80374,-1.49796 -3.28511,-1.14877 -3.68783,-3.86265 -1.26937,-8.55405 0.8439,-1.63702 2.90621,-7.06273 4.58292,-12.05713 l 3.04855,-9.080715 -3.30436,-10.630688 c -4.5672,-14.693449 -8.65037,-18.646725 -11.98299,-11.60179 l -1.53631,3.247646 5.24447,9.807819 5.24446,9.807818 -1.77143,4.52266 c -0.97428,2.48746 -2.89816,8.68026 -4.2753,13.76175 -2.37283,8.75552 -2.41999,9.33208 -0.90115,11.01563 1.10466,1.22445 2.86467,1.77653 5.66349,1.77653 2.23341,0 4.06076,-0.23288 4.06076,-0.51752 z M 40.056917,74.0625 c 0.870792,0 2.440128,0.602049 3.487411,1.337888 1.795707,1.261692 2.123079,0.981383 5.748231,-4.921875 4.632508,-7.543651 6.334523,-13.53581 5.126224,-18.047521 l -0.860282,-3.212242 -1.489558,3.495556 c -1.277103,2.996989 -2.026975,3.58176 -5.257514,4.099958 -2.304942,0.369728 -3.938051,1.196544 -4.206028,2.129445 -0.24094,0.838772 -0.909464,3.353732 -1.485609,5.588799 -0.576146,2.235067 -2.283421,6.078601 -3.793945,8.541186 -3.137825,5.115551 -3.634946,7.419334 -0.76969,3.566931 1.054625,-1.417969 2.629967,-2.578125 3.50076,-2.578125 z M 251.72853,73.285505 c 0.92487,-0.17867 2.49398,0.412663 3.48692,1.314073 0.99295,0.90141 1.9497,1.465732 2.12613,1.25405 0.17643,-0.211683 1.65789,-5.801096 3.29215,-12.420916 2.07157,-8.391295 2.7832,-13.042154 2.35,-15.35853 -0.54465,-2.912299 -0.74002,-3.104613 -1.58248,-1.557712 -1.94937,3.579355 -3.64118,3.924093 -6.27781,1.279218 l -1.88593,-1.891812 -0.91781,2.421593 c -0.50481,1.331876 -0.91783,5.996873 -0.91783,10.36666 0,6.094966 -0.43525,8.800904 -1.86915,11.620371 -1.02804,2.021417 -1.86297,4.641329 -1.85539,5.822027 0.0137,2.139363 0.0178,2.138716 1.1917,-0.188723 0.64785,-1.284495 1.93463,-2.48163 2.8595,-2.660299 z M 22.897197,57.1875 c 0.333226,-0.540857 5.39801,-0.942916 11.971044,-0.950302 13.732124,-0.01543 15.218613,-0.356131 16.401219,-3.759157 1.313433,-3.77949 -0.41728,-4.105904 -9.472853,-1.786585 -4.170119,1.068052 -10.697439,2.081897 -14.505155,2.252987 -7.212034,0.324055 -9.235121,1.230194 -8.286,3.711291 0.62934,1.645161 3.005718,1.969868 3.891745,0.531766 z m 36.726319,-9.614619 c 0.535634,-0.647416 1.253232,-2.293628 1.594663,-3.658247 0.553717,-2.213076 0.302632,-2.551223 -2.324082,-3.129949 -3.447281,-0.759516 -5.903829,0.985073 -7.383816,5.243833 L 50.564523,48.75 l 4.042558,0 c 2.223405,0 4.480802,-0.529703 5.016435,-1.177119 z M 259.77583,47.388787 c 1.60364,-1.938306 0.85096,-4.50392 -1.69484,-5.777107 -5.51346,-2.757346 -14.15575,-13.811779 -14.15575,-18.106746 0,-2.301899 -1.42582,-2.578607 -2.24553,-0.43579 -1.09328,2.85793 1.30937,8.353759 6.09669,13.945595 2.64087,3.084668 5.4735,6.670606 6.29475,7.96875 2.51035,3.968143 3.91995,4.562481 5.70468,2.405298 z m 3.48347,-5.000348 c 1.22579,-0.781862 3.09585,-5.187356 3.09585,-7.29322 0,-1.870218 -4.56967,-1.729536 -6.70212,0.206332 -2.12073,1.925236 -2.17271,3.880676 -0.16238,6.109004 1.71241,1.898112 2.14851,2.011272 3.76865,0.977884 z m -10.38871,-8.404064 c 0.0367,-1.417969 0.39718,-3.316406 0.80092,-4.21875 0.56593,-1.264833 0.30055,-1.640625 -1.15863,-1.640625 -2.46453,0 -4.84932,0.936039 -4.84932,1.903373 0,0.633705 4.50571,6.534127 4.98961,6.534127 0.0828,0 0.18066,-1.160156 0.21742,-2.578125 z M 137.38318,103.92006 C 132.7959,102.58285 125.89028,97.016212 111.97379,83.4375 98.59632,70.384731 98.676011,70.558518 101.75036,61.142302 c 0.96269,-2.948579 2.50306,-8.314177 3.42304,-11.923552 0.91999,-3.609375 2.04237,-7.305895 2.4942,-8.214489 0.62015,-1.247077 0.19866,-2.189414 -1.71963,-3.844609 -1.92287,-1.659152 -2.58741,-3.149847 -2.73133,-6.126944 -0.10462,-2.163878 -0.45498,-4.199923 -0.77859,-4.524545 -0.32362,-0.324621 -1.84129,0.613893 -3.372627,2.085587 -1.531337,1.471694 -3.073393,2.385757 -3.426795,2.03125 -1.092607,-1.096028 4.644492,-6.344847 6.676462,-6.108217 1.03978,0.121086 3.46102,-0.313685 5.38052,-0.96616 1.9195,-0.652475 4.34478,-0.914175 5.3895,-0.581554 2.31658,0.737552 5.93734,7.535499 5.30518,9.960435 -0.25205,0.966898 -0.25544,1.757996 -0.007,1.757996 1.03776,0 12.18942,-8.931992 14.50333,-11.616549 2.87241,-3.332492 4.65699,-2.593071 3.83898,1.590627 -0.35399,1.810413 -3.17198,4.973403 -9.04026,10.147025 l -8.52596,7.516697 -3.83278,12.352976 c -4.47957,14.437539 -5.82621,10.603643 10.20973,29.067326 7.11605,8.193365 12.16724,13.097201 15.84718,15.384879 2.97094,1.846919 5.25163,3.817649 5.06822,4.379399 -0.44855,1.37377 -5.04866,1.58184 -9.06805,0.41018 z m 8.39267,-0.56068 c -0.0102,-0.38672 -2.15476,-1.96875 -4.7657,-3.51563 C 137.81171,97.9488 132.55827,92.753999 124.9072,83.920529 110.56562,67.3626 107.08305,63.75 105.46267,63.75 c -2.13089,0 -4.88775,6.011619 -3.74185,8.159459 1.2236,2.293469 17.85029,18.332157 25.96288,25.044719 3.38549,2.801231 7.68883,5.502962 9.56298,6.003842 4.23501,1.13185 8.5538,1.33508 8.52917,0.40136 z M 105.044,62.8125 c 0.68529,0 2.27166,0.809311 3.52525,1.798468 l 2.27926,1.798468 3.33522,-11.227952 c 2.71406,-9.136822 3.05279,-11.108049 1.81874,-10.584158 -3.70079,1.571095 -5.5265,1.468512 -6.81942,-0.38317 -1.23231,-1.76486 -1.44452,-1.425282 -3.0212,4.834451 -0.93268,3.702953 -2.49037,9.145116 -3.46153,12.093695 -2.10255,6.383678 -2.19907,7.766076 -0.29661,4.248323 0.76687,-1.417969 1.955,-2.578125 2.64029,-2.578125 z m 11.31114,-19.563921 c 6.30768,-3.92447 18.93247,-16.016362 19.4289,-18.608785 0.69435,-3.626021 -0.005,-3.899468 -2.41418,-0.944124 -3.09385,3.79503 -15.30382,12.593364 -19.9429,14.370586 -3.10751,1.190476 -4.08116,2.054968 -4.08116,3.623611 0,3.813405 2.49403,4.368019 7.00934,1.558712 z M 115.88785,35.625 c 2.14473,-2.151431 2.31049,-3.627637 0.78456,-6.987138 -1.2823,-2.823136 -1.87016,-2.937591 -3.83792,-0.747237 -2.15802,2.402124 -2.97381,6.566224 -1.60946,8.215299 1.53211,1.851853 2.42959,1.759287 4.66282,-0.480924 z m 50.78439,31.981364 c -1.62468,-1.018597 -3.23369,-2.736176 -3.57562,-3.816842 -0.79174,-2.502347 11.60831,-28.083366 14.46403,-29.83897 l 1.96122,-1.205698 -1.91046,-2.436357 c -2.10155,-2.680023 -2.40641,-5.1272 -0.97337,-7.813234 1.43425,-2.688294 -0.69942,-3.358588 -3.19745,-1.004481 -1.28659,1.212464 -2.73106,1.765263 -3.66913,1.404169 -2.20722,-0.849638 -1.92097,-2.586694 0.32901,-1.996474 1.14864,0.301315 2.32645,-0.134558 3.03738,-1.124037 0.93159,-1.296609 2.5651,-1.604038 8.26074,-1.554695 9.38826,0.08134 10.59083,1.052965 9.87802,7.981041 -0.32211,3.130725 -1.11624,5.592853 -2.01702,6.253571 -1.60161,1.174795 1.85041,1.983026 17.74976,4.155794 7.44197,1.017003 11.07508,2.811407 9.29916,4.592884 -0.57843,0.580237 -4.91477,0.425249 -12.10949,-0.432811 -6.1646,-0.735206 -12.90083,-1.349898 -14.9694,-1.365982 l -3.76105,-0.02924 -4.44559,8.977353 -4.4456,8.977352 5.40289,-0.638396 c 26.99539,-3.189716 33.03072,-4.182735 36.63634,-6.027939 6.50748,-3.330241 7.74795,-0.556093 2.17779,4.870362 -3.27615,3.191632 -4.72347,3.718816 -22.19627,8.085007 -23.70629,5.923846 -27.98517,6.45829 -31.92589,3.987625 z m 31.92589,-4.926727 c 16.51096,-4.127256 19.04595,-5.015057 21.72898,-7.609901 2.67257,-2.584726 3.98906,-5.382236 2.53286,-5.382236 -0.27749,0 -2.21817,0.876972 -4.31264,1.948827 -3.93048,2.011445 -23.47991,4.983295 -40.50994,6.158206 -9.33751,0.6442 -11.68225,1.859332 -11.68225,6.054183 0,5.858026 4.8322,5.682818 32.24299,-1.169079 z m -31.06357,-3.382762 c 1.26662,-1.370041 3.03625,-2.109375 5.04888,-2.109375 2.9696,0 3.27748,-0.357007 7.38755,-8.56622 2.90359,-5.799471 3.80957,-8.381741 2.805,-7.995048 -2.52777,0.973027 -6.13793,-0.981413 -6.16472,-3.337403 -0.0137,-1.204896 -2.86529,3.57687 -6.55531,10.992421 -5.05868,10.166016 -6.38474,13.65339 -5.88196,15.46875 l 0.64913,2.34375 0.38065,-2.34375 c 0.20935,-1.289063 1.2582,-3.292969 2.33078,-4.453125 z m 48.35329,-18.929047 c 0,-1.419784 -0.85125,-1.65013 -12.14953,-3.28763 -5.91121,-0.856734 -13.24422,-2.19936 -16.29558,-2.983616 -6.61216,-1.699447 -9.87264,-0.773009 -9.87264,2.805227 0,2.578213 3.01852,3.863087 5.69713,2.425059 2.15469,-1.156761 8.42509,-1.012268 20.0038,0.46096 12.48068,1.58799 12.61682,1.594249 12.61682,0.58 z m -27.38037,-8.300904 c 0.61837,-0.394275 1.41574,-2.545167 1.77195,-4.77976 0.63078,-3.956976 0.58928,-4.045773 -1.59158,-3.406065 -2.75952,0.80944 -5.51028,3.876875 -5.51028,6.144636 0,2.347618 3.02963,3.507872 5.32991,2.041189 z"
       id="path3388"
       inkscape:connector-curvature="0" />
  </g>
</svg>
