<?xml version="1.0" encoding="UTF-8" standalone="no"?>
<!-- Created with Inkscape (http://www.inkscape.org/) -->

<svg
   xmlns:dc="http://purl.org/dc/elements/1.1/"
   xmlns:cc="http://creativecommons.org/ns#"
   xmlns:rdf="http://www.w3.org/1999/02/22-rdf-syntax-ns#"
   xmlns:svg="http://www.w3.org/2000/svg"
   xmlns="http://www.w3.org/2000/svg"
   xmlns:sodipodi="http://sodipodi.sourceforge.net/DTD/sodipodi-0.dtd"
   xmlns:inkscape="http://www.inkscape.org/namespaces/inkscape"
   id="svg3528"
   version="1.1"
   inkscape:version="0.91 r13725"
   width="572.5"
   height="255"
   viewBox="0 0 572.5 255"
   sodipodi:docname="fx121502.svg">
  <metadata
     id="metadata3534">
    <rdf:RDF>
      <cc:Work
         rdf:about="">
        <dc:format>image/svg+xml</dc:format>
        <dc:type
           rdf:resource="http://purl.org/dc/dcmitype/StillImage" />
        <dc:title></dc:title>
      </cc:Work>
    </rdf:RDF>
  </metadata>
  <defs
     id="defs3532" />
  <sodipodi:namedview
     pagecolor="#ffffff"
     bordercolor="#666666"
     borderopacity="1"
     objecttolerance="10"
     gridtolerance="10"
     guidetolerance="10"
     inkscape:pageopacity="0"
     inkscape:pageshadow="2"
     inkscape:window-width="1442"
     inkscape:window-height="796"
     id="namedview3530"
     showgrid="false"
     inkscape:zoom="0.77195063"
     inkscape:cx="281.38981"
     inkscape:cy="-46.168103"
     inkscape:window-x="0"
     inkscape:window-y="0"
     inkscape:window-maximized="0"
     inkscape:current-layer="svg3528" />
  <g
     id="g3538"
     transform="translate(-8.4138544,10.892424)">
    <path
       style="fill:#fefefe"
       d="m 103.34357,208.58084 c -1.06974,-4.09074 0.45511,-23.46407 2.38309,-30.27715 2.10265,-7.43035 1.69339,-8.32592 -9.015456,-19.72809 C 92.332541,153.91345 88.75,149.77737 88.75,149.38432 c 0,-0.39303 0.815048,-2.6653 1.811216,-5.04947 2.142866,-5.1286 4.726222,-5.52064 7.817928,-1.18641 1.235221,1.73165 5.187426,7.00837 8.782676,11.72607 9.69821,12.72603 9.70879,12.78721 5.28007,30.51606 -2.09308,8.37894 -4.0967,16.211 -4.45248,17.4046 -0.46693,1.56647 0.59208,2.761 3.80685,4.29402 6.0872,2.90278 5.58817,4.16081 -1.65047,4.16081 -5.18192,0 -6.20967,-0.40329 -6.80222,-2.66916 z m 385,0 c -1.06975,-4.09074 0.45512,-23.46407 2.38309,-30.27715 2.10265,-7.43035 1.69339,-8.32592 -9.01546,-19.72809 -4.37866,-4.66215 -7.9612,-8.79823 -7.9612,-9.19128 0,-2.47758 3.91251,-9.38432 5.31601,-9.38432 3.47065,0 18.23333,18.55505 20.74678,26.07639 1.18808,3.5553 0.82112,6.53482 -2.38625,19.375 -2.08464,8.34548 -4.08135,16.15018 -4.43713,17.34378 -0.46693,1.56647 0.59209,2.761 3.80685,4.29402 6.0872,2.90279 5.58818,4.16081 -1.65047,4.16081 -5.18191,0 -6.20968,-0.40329 -6.80221,-2.66916 z m -71.55322,-20.98455 -3.24512,-4.9037 3.15773,-16.0338 3.15774,-16.03379 -4.30535,-9.19224 c -2.36794,-5.05574 -4.30535,-10.25886 -4.30535,-11.5625 0,-2.81794 2.82177,-3.11986 4.96971,-0.53175 0.83922,1.01118 2.67637,1.7143 4.08256,1.5625 2.15509,-0.23265 3.00686,1.18099 5.42209,8.99889 l 2.86536,9.27491 -3.01139,8.97081 c -4.30478,12.8237 -5.16065,21.76242 -2.52164,26.33583 1.15634,2.00395 1.64476,2.51855 1.08537,1.14355 -1.91809,-4.71475 -0.75279,-17.35897 2.47683,-26.875 l 3.18174,-9.375 -2.62713,-8.98228 c -1.99879,-6.83393 -2.31757,-9.67415 -1.33285,-11.875 1.15808,-2.58831 1.66333,-1.76053 4.8013,7.86617 l 3.50701,10.75888 -3.94948,15.7708 c -2.17222,8.67395 -3.94948,17.43646 -3.94948,19.47224 0,5.21149 -2.09713,10.11419 -4.32633,10.11419 -1.03851,0 -3.34851,-2.20668 -5.13332,-4.90371 z M 180.7841,173.08885 c -1.4666,-3.82189 -0.79031,-11.5963 1.69977,-19.53999 1.36613,-4.35812 2.49113,-8.62071 2.5,-9.47241 0.009,-0.8517 -4.55456,-3.84664 -10.14095,-6.65543 -7.19896,-3.61957 -9.76848,-5.49546 -8.82282,-6.44112 0.94567,-0.94568 4.35884,0.22082 11.71957,4.00531 5.71193,2.93676 10.91227,5.82156 11.55632,6.41066 0.71941,0.65805 0.28742,3.84919 -1.1202,8.27512 -3.27504,10.29746 -4.3418,15.42465 -3.04217,14.62142 0.61402,-0.37947 1.11638,-1.67254 1.11638,-2.87347 0,-1.20093 1.18064,-5.67958 2.62364,-9.95254 1.443,-4.27296 2.31161,-8.58215 1.93025,-9.57599 -0.38138,-0.99382 -5.17573,-4.06062 -10.65413,-6.81511 -5.4784,-2.75449 -10.31051,-5.57414 -10.73805,-6.26589 -1.16907,-1.89162 1.48295,-6.02816 4.47328,-6.97725 2.90351,-0.92154 16.28613,7.42049 22.78296,14.20173 l 3.53449,3.68921 -6.93523,17.32595 c -5.20567,13.0051 -7.52924,17.42036 -9.31712,17.70454 -1.31899,0.20965 -2.73179,-0.53323 -3.16599,-1.66474 z m 176.22464,-17.56609 c -0.41731,-1.08747 -0.7639,-2.9156 -0.77022,-4.0625 -0.006,-1.14689 -3.10006,-8.47622 -6.875,-16.28741 C 345.58859,127.36168 342.5,120.17723 342.5,119.20742 342.5,116.00424 352.5793,106.25 355.88924,106.25 l 3.07083,0 -4.16753,5.10968 c -2.29215,2.81033 -4.73004,5.92652 -5.41754,6.92487 -0.9209,1.33729 0.31002,4.84621 4.6754,13.32782 3.25896,6.33194 6.12206,13.48138 6.36245,15.88763 l 0.43706,4.375 0.20004,-4.69938 c 0.14673,-3.44665 -1.29942,-7.47263 -5.42495,-15.10275 -3.09375,-5.72185 -5.625,-11.15658 -5.625,-12.07719 0,-3.28167 3.88053,-6.15708 7.368,-5.45958 2.79383,0.55877 3.89146,-0.11056 6.73491,-4.10692 l 3.39709,-4.77448 0,3.80244 c 0,2.67894 -1.24841,5.01246 -4.2252,7.89767 l -4.22521,4.09523 2.50371,6.46249 c 1.37705,3.55436 3.27839,8.30968 4.22521,10.56738 3.25968,7.77273 1.39097,16.89421 -3.74339,18.27208 -3.85609,1.03482 -4.18881,0.95346 -5.02638,-1.22923 z M 230,137.5 c -3.09396,-3.09396 -3.09334,-3.14006 0.17586,-13.09875 2.5889,-7.88632 2.81235,-8.15125 6.875,-8.15125 4.82145,0 4.8347,0.0309 2.30636,5.37458 -1.8955,4.00618 -1.2791,3.24186 4.20746,-5.21723 1.61681,-2.49279 2.20743,-3.82922 1.3125,-2.96985 -0.89495,0.85938 -2.72685,1.5625 -4.07092,1.5625 -2.28148,0 -2.30742,-0.15062 -0.39061,-2.26867 1.12921,-1.24776 2.67766,-4.06026 3.44101,-6.25 2.15329,-6.17691 7.39334,-4.44249 7.39334,2.44716 0,6.19188 -6.418,21.14285 -11.26178,26.23471 -5.25386,5.52295 -6.50853,5.81649 -9.98822,2.3368 z m 280.9257,-9.30763 c -5.64588,-5.31197 -9.99786,-8.31583 -13.11653,-9.05338 -2.65087,-0.62691 -4.83287,-1.96388 -5.05063,-3.09466 -0.41268,-2.14285 2.81848,-6.04433 5.00585,-6.04433 1.55528,0 25.98561,23.72366 25.98561,25.23397 0,2.94183 -5.31539,0.0232 -12.8243,-7.0416 z M 289.92795,112.74793 c -4.13525,-12.30912 -6.30384,-20.616889 -5.75501,-22.047114 0.75836,-1.97624 1.78855,-2.182799 7.41637,-1.487025 3.59463,0.444408 11.02337,1.790945 16.50829,2.992306 8.80491,1.928534 10.11076,2.577143 11.15254,5.539414 C 320.71736,101.91754 318.52983,105 314.10183,105 c -5.66399,0 -17.19583,-3.92772 -19.58078,-6.669181 -2.33466,-2.683663 -2.34726,-2.684362 -1.5392,-0.08533 C 298.80131,116.963 300.87673,132.5 297.5575,132.5 c -0.54661,0 -3.97991,-8.88843 -7.62955,-19.75207 z M 413.00069,123.4375 C 409.64411,118.78428 407.805,114.51113 406.67937,108.75 404.569,97.948759 404.5968,92.922194 406.77155,92.087664 409.24348,91.139099 410,93.863686 410,103.71472 c 0,8.12956 0.25337,8.85444 5.66392,16.20415 5.12125,6.95673 6.09119,10.08113 3.12957,10.08113 -0.58244,0 -3.1892,-2.95312 -5.7928,-6.5625 z M 78.75,120.71429 c 0,-2.9258 3.67903,-5.71429 7.539223,-5.71429 1.985857,0 9.275611,-0.89724 16.199447,-1.99387 6.92384,-1.09663 13.41512,-1.67678 14.42507,-1.28923 2.39051,0.91732 2.36612,6.28724 -0.0376,8.28216 -1.49941,1.2444 -2.68593,1.21459 -5.9375,-0.14915 -5.80978,-2.43669 -23.678364,-2.04939 -27.723206,0.6009 C 79.38646,122.95964 78.75,122.99719 78.75,120.71429 Z M 444.13906,119.0625 C 443.31927,116.77068 431.35531,101.79336 428.12359,99.013216 426.15894,97.323093 425.52025,92.5 427.26109,92.5 c 2.01552,0 5.104,3.320334 12.59986,13.54574 7.11536,9.70636 9.41147,15.20426 6.34982,15.20426 -0.70908,0 -1.64135,-0.98437 -2.07171,-2.1875 z m -320.47277,-4.21891 c -1.19885,-2.24008 -0.93567,-3.14239 1.67932,-5.75738 3.56573,-3.56573 7.52154,-3.07148 9.82212,1.22719 1.18733,2.21855 0.96366,3.00962 -1.38981,4.91535 -3.79316,3.0715 -8.35466,2.89776 -10.11163,-0.38516 z M 356.25,112.06874 c 0,-0.9247 1.11997,-2.69484 2.48884,-3.93364 1.36886,-1.2388 3.89403,-4.65015 5.6115,-7.58078 l 3.12266,-5.328415 -3.1115,-8.266489 c -3.65344,-9.70629 -3.79249,-11.029691 -1.10203,-10.488571 2.77143,0.557404 8.34458,15.638788 7.45704,20.179309 -0.97649,4.995476 -9.65246,17.067256 -12.27901,17.085036 -1.20313,0.008 -2.1875,-0.74176 -2.1875,-1.66646 z m 140.3125,-3.59436 c -3.31586,-1.59918 -3.5118,-3.16972 -0.86663,-6.94625 1.26137,-1.800836 3.24013,-2.77813 5.625,-2.77813 3.21004,0 3.67913,0.453417 3.67913,3.55626 0,1.95595 -1.02866,4.4872 -2.28592,5.625 -2.61079,2.36273 -2.41458,2.34541 -6.15158,0.54312 z M 349.17136,102.5242 c -4.80299,-2.14988 -5.31147,-2.848665 -6.60424,-9.07584 -1.51361,-7.291045 0.21419,-15.859285 3.40941,-16.907376 1.25623,-0.412074 1.42476,1.594042 0.78167,9.305191 l -0.81983,9.830523 6.43431,3.013668 c 6.08246,2.848864 7.7033,5.393194 3.77373,5.923844 -0.97427,0.13157 -4.11305,-0.80893 -6.97505,-2.09 z M 245,97.196629 c 0,-2.945604 4.9436,-8.446629 7.59072,-8.446629 4.1709,0 2.51049,2.658104 -5.40322,8.649874 C 245.34225,98.796979 245,98.76518 245,97.196629 Z m -68.36316,-2.991533 c -1.16458,-3.034832 0.93957,-5.498935 6.25654,-7.326817 6.4421,-2.21469 13.91676,-7.454394 21.93905,-15.379185 3.68908,-3.644248 6.95083,-6.382498 7.24833,-6.084998 2.69808,2.698076 -13.99727,21.7061 -24.90847,28.358858 -4.92513,3.00293 -9.4773,3.189651 -10.53545,0.432142 z m 46.80066,-3.05522 C 222.23437,90.44912 221.25,88.96877 221.25,87.860209 c 0,-1.886388 6.18564,-13.540809 6.71184,-12.645841 0.63442,1.079032 -0.78025,17.280823 -1.506,17.247621 -0.45697,-0.0209 -1.81522,-0.611356 -3.01834,-1.312113 z m 189.11229,-0.464891 c -3.0898,-3.722969 2.39256,-11.21893 7.65962,-10.472933 2.14874,0.304337 3.02243,1.34614 3.32179,3.96099 0.74289,6.489045 -7.1272,11.155985 -10.98141,6.511943 z M 177.90844,84.261382 C 177.02525,81.959836 180.59566,73.75 182.47978,73.75 c 0.69862,0 1.27022,2.1375 1.27022,4.75 0,6.450191 -4.04598,10.440626 -5.84156,5.761382 z m 70.3503,0.01138 C 247.84143,83.185286 247.5,80.585161 247.5,78.49471 c 0,-3.307909 0.25385,-3.590145 1.95742,-2.176306 1.82961,1.518431 5.54258,7.711347 5.54258,9.244521 0,1.652375 -6.05693,0.493185 -6.74126,-1.290159 z m 44.93713,-3.300898 c -3.74557,-5.347569 -0.97898,-10.206478 3.04838,-5.353799 1.33878,1.613126 2.37941,1.173945 7.6252,-3.218076 6.18976,-5.182363 10.05424,-5.757798 11.60084,-1.727409 0.97421,2.538754 -0.38673,5.577425 -2.49797,5.577425 -0.96811,0 -4.75028,1.6875 -8.40483,3.75 -7.95068,4.487086 -8.8553,4.564399 -11.37162,0.971868 z m 57.9784,-6.047589 c -3.7495,-3.749509 -2.86657,-9.176109 1.57642,-9.688841 7.54267,-0.870447 11.00272,4.761156 5.99931,9.764562 -3.14741,3.147411 -4.36475,3.135244 -7.57573,-0.07572 z m -54.26637,0.128956 c -0.4068,-0.658221 1.10687,-2.136039 3.36372,-3.284039 l 4.10338,-2.087275 -3.03039,3.28404 c -3.43046,3.717587 -3.42942,3.717099 -4.43671,2.087274 z M 182.90557,69.905564 c -1.62753,-1.627539 3.08857,-11.129139 5.53193,-11.145262 2.1893,-0.01445 1.95502,1.819865 -0.9629,7.539487 -2.82651,5.540421 -2.71912,5.455673 -4.56903,3.605775 z m 48.88964,-1.653432 c -0.41382,-1.648822 -0.54614,-4.320697 -0.29402,-5.9375 0.43558,-2.793355 0.59601,-2.721927 3.22393,1.435359 3.42264,5.414518 3.50569,7.5 0.29869,7.5 -1.57077,0 -2.7513,-1.096161 -3.2286,-2.997859 z m 68.58699,-3.879957 c -3.42077,-3.050738 -3.44741,-3.17395 -1.08079,-5 3.09744,-2.38994 5.68279,-2.369164 9.17045,0.0737 3.42029,2.395661 3.5616,5.046866 0.36032,6.76014 -3.50257,1.874519 -4.54564,1.648149 -8.44998,-1.833836 z"
       id="path3548"
       inkscape:connector-curvature="0" />
    <path
       style="fill:#fefe00"
       d="m 87.548927,145.22094 c -0.033,-1.95882 3.286937,-6.43438 10.199632,-13.75 5.636711,-5.96527 10.345271,-11.00763 10.463471,-11.20524 0.1182,-0.19762 1.69156,0.31351 3.49636,1.13583 2.77179,1.26291 3.67053,1.14302 5.78653,-0.77194 1.3778,-1.24688 2.50508,-3.61933 2.50508,-5.2721 0,-1.68505 0.54907,-2.66569 1.25,-2.23249 0.6875,0.4249 1.25,2.49928 1.25,4.60973 0,3.13672 -1.98138,5.862 -10.85395,14.92903 l -10.85395,11.09185 -2.83245,-2.66095 c -3.541115,-3.3267 -6.267724,-2.39052 -8.588005,2.94868 -1.536234,3.53502 -1.780342,3.69273 -1.822717,1.1776 z m 384.999993,0.69733 c -0.0561,-2.53105 14.24117,-31.68527 17.15463,-34.98077 1.06366,-1.20312 2.97174,-2.1875 4.24019,-2.1875 2.1771,0 2.16626,0.14001 -0.19374,2.5 -1.375,1.375 -2.5,3.23125 -2.5,4.125 0,2.32292 2.61941,4.625 5.26255,4.625 1.92974,0 1.41209,1.70073 -3.51935,11.5625 -3.18003,6.35937 -6.00039,11.79909 -6.26746,12.08826 -0.26708,0.28918 -1.86101,-0.76637 -3.54206,-2.34564 -3.76587,-3.53785 -6.44663,-2.70483 -8.81203,2.73822 -1.03647,2.38502 -1.79414,3.16438 -1.82272,1.87493 z M 161.6946,126.60126 c -0.53258,-2.12196 -0.039,-5.52638 1.31391,-9.0625 2.69761,-7.05084 5.17377,-14.79065 7.71057,-24.10126 1.74115,-6.390423 2.31652,-7.1875 5.18836,-7.1875 3.05002,0 3.11474,0.127392 1.1613,2.285926 -4.06975,4.497026 -1.13433,9.79375 4.79907,8.659509 4.08176,-0.780279 4.00896,0.404751 -0.77587,12.628785 -3.10135,7.92317 -4.53412,10.14123 -6.94098,10.74531 -1.6681,0.41867 -4.18379,2.7118 -5.59041,5.09584 -3.07085,5.20472 -5.70444,5.5637 -6.86595,0.93589 z m 260.8054,2.3451 c 0,-0.8545 -2.39063,-4.71747 -5.3125,-8.58438 -5.06659,-6.70531 -5.34435,-7.52735 -6.00052,-17.75887 -0.37842,-5.900459 -0.53264,-10.948891 -0.34272,-11.218736 0.18993,-0.269844 1.18321,0.20476 2.2073,1.054676 1.20782,1.002397 3.5794,1.255145 6.75039,0.71941 4.78346,-0.80816 4.90235,-0.736876 5.53744,3.320324 1.22847,7.848026 0.30364,30.878196 -1.30458,32.486406 -1.21308,1.21308 -1.53481,1.20913 -1.53481,-0.0188 z M 410,124.12744 c 0,-1.81176 0.15917,-3.05973 0.35371,-2.77327 0.19454,0.28646 1.05265,1.43952 1.9069,2.56235 1.26621,1.66432 1.20086,2.17673 -0.35371,2.77327 C 410.49499,127.2316 410,126.56646 410,124.12744 Z M 227.36979,112.36979 c -2.85225,-2.85226 -2.71963,-6.12113 0.56755,-13.988451 1.57677,-3.773755 2.64188,-4.469576 9.47738,-6.191443 l 7.70097,-1.939878 -0.76327,5.812491 c -1.35815,10.342701 -1.98318,12.516581 -4.52957,15.753791 -3.13089,3.98028 -8.77539,4.23116 -12.45306,0.55349 z m 141.06857,-4.27462 c -0.3317,-1.73516 -0.116,-3.45586 0.47928,-3.82378 0.5953,-0.36791 1.08236,1.05176 1.08236,3.15484 0,4.64054 -0.74169,4.95824 -1.56164,0.66894 z m -9.06886,-4.32785 c 0.62189,-1.9594 -0.12915,-2.92002 -3.56338,-4.557685 -3.48308,-1.660973 -4.62118,-3.146684 -5.70373,-7.445848 C 348.67252,86.085264 348.26347,76.25 349.45717,76.25 c 0.38895,0 1.80265,0.58628 3.14157,1.302844 1.58156,0.846429 3.18419,0.883236 4.5747,0.105075 1.84002,-1.02973 2.62205,0.123612 5.57409,8.220678 l 3.43377,9.418457 -3.20942,5.476476 c -3.41969,5.83526 -4.89278,7.05948 -3.60238,2.9938 z m -39.12549,-0.97026 c 1.36176,-2.36745 1.31488,-3.385158 -0.28796,-6.249996 -1.05303,-1.882135 -3.17251,-3.603264 -4.70995,-3.82473 -1.90264,-0.274071 -3.78519,-2.355995 -5.89476,-6.519039 -3.02027,-5.96018 -3.03769,-6.149401 -0.68255,-7.409832 1.32927,-0.711405 3.2778,-1.293463 4.33005,-1.293463 1.6878,0 4.50116,-3.501749 4.50116,-5.602509 0,-0.421775 -1.54688,-2.209524 -3.4375,-3.972776 -2.94036,-2.742269 -3.07595,-3.138416 -0.9375,-2.73921 3.00429,0.560845 10.04106,17.311682 11.31887,26.944256 0.73404,5.533452 0.4739,6.55534 -2.50367,9.835149 -2.39708,2.64038 -2.86964,2.87222 -1.69619,0.83215 z m -91.2744,-19.569869 c 0.62758,-9.855878 1.6518,-10.882238 10.40539,-10.427132 l 6.25,0.324941 0.37296,7.123041 0.37295,7.12304 -4.81605,1.29683 c -2.64883,0.713255 -6.68445,1.670507 -8.96803,2.127224 l -4.15198,0.830395 0.53476,-8.398339 z"
       id="path3544"
       inkscape:connector-curvature="0" />
    <path
       style="fill:#fe0000"
       d="m 262.8125,106.04257 c -5.64144,-1.26336 -6.82194,-2.89503 -2.97735,-4.11525 1.28432,-0.40763 3.34025,-1.85178 4.56872,-3.209231 2.97362,-3.285807 4.69628,-3.127139 3.73929,0.344411 l -0.7753,2.8125 2.56607,-2.95098 c 5.10785,-5.874021 2.55268,-8.677875 -8.85248,-9.714062 -9.70758,-0.881958 -26.83648,2.832448 -38.50123,8.349004 -8.59175,4.063258 -8.83022,4.135698 -8.83022,2.682528 0,-1.857405 16.76009,-8.932321 27.5,-11.608541 13.45479,-3.352725 27.08275,-2.800193 31.14573,1.262771 3.43872,3.438727 3.28663,5.351522 -0.81286,10.2235 -2.26576,2.6927 -2.89752,4.23423 -1.875,4.57507 2.01654,0.67218 1.99998,2.84494 -0.0204,2.67185 -0.85938,-0.0736 -3.95313,-0.66923 -6.875,-1.32357 z"
       id="path3542"
       inkscape:connector-curvature="0" />
    <path
       style="fill:#000000"
       d="m 67.5,211.5619 34.375,-0.3543 0.34853,-13.3882 c 0.19169,-7.36351 1.17048,-16.15599 2.17508,-19.53885 1.69828,-5.71873 1.65719,-6.42295 -0.58518,-10.0281 -1.32645,-2.1326 -5.02223,-6.4087 -8.212837,-9.50245 C 89.551411,152.88445 86.25,147.79866 86.25,144.34551 c 0,-1.11576 4.619802,-6.85259 10.266229,-12.7485 10.046471,-10.49039 10.200321,-10.74437 7.187501,-11.86465 -4.037946,-1.50146 -17.278745,-0.004 -21.024858,2.37735 -2.085641,1.32597 -3.335306,1.48386 -4.278592,0.54057 -2.00214,-2.00214 0.929361,-7.46589 4.369709,-8.14429 9.846388,-1.94161 33.512181,-4.63365 34.634851,-3.9398 0.83945,0.51881 1.34516,-0.50162 1.34516,-2.71429 0,-1.9501 0.87565,-4.79579 1.94588,-6.32377 2.37114,-3.385276 0.0696,-3.85834 -3.41762,-0.70246 -3.17756,2.87566 -4.59066,0.93118 -1.54016,-2.119326 2.15476,-2.154759 3.50295,-2.366688 10.44191,-1.641424 9.48993,0.991894 12.56999,3.41925 12.56999,9.90623 0,6.19524 -5.97638,12.28622 -11.28988,11.50636 -2.66951,-0.3918 -3.71012,-0.0321 -3.71012,1.28236 0,1.00479 -5.12292,7.05082 -11.38427,13.43562 -7.84502,7.99968 -11.07132,12.12492 -10.37764,13.26911 0.55366,0.91323 3.68668,5.08378 6.96227,9.2679 9.07851,11.59655 9.14674,12.02333 4.74153,29.65807 -2.09308,8.37894 -4.06547,16.11262 -4.38309,17.18596 -0.3831,1.29465 0.8983,2.65528 3.80686,4.04228 2.41139,1.1499 4.38434,2.66234 4.38434,3.36097 0,0.85457 60.43425,1.26957 184.6875,1.26822 l 184.6875,-0.002 0.34852,-13.40739 c 0.19171,-7.37407 1.16364,-16.15215 2.15988,-19.50682 2.21215,-7.44911 1.82124,-8.31718 -8.87275,-19.70354 -4.35146,-4.6332 -8.25723,-9.80047 -8.67948,-11.48284 -0.56676,-2.25817 1.35308,-7.29111 7.33457,-19.22781 4.45625,-8.89293 8.96058,-16.88129 10.00963,-17.75192 1.68999,-1.40258 1.61534,-1.87496 -0.65511,-4.14542 -2.05409,-2.05409 -2.4395,-3.65334 -1.94267,-8.061107 0.83245,-7.385522 -1.0769,-8.10049 -4.02827,-1.50841 -1.78222,3.980727 -2.61081,4.843497 -3.19343,3.325188 -0.94888,-2.47272 2.52415,-9.616493 5.16848,-10.63122 1.04153,-0.399667 2.44567,-0.174672 3.12033,0.499989 0.67466,0.674663 3.94656,0.96531 7.27089,0.645884 4.96805,-0.477366 6.51518,-0.109813 8.68931,2.064321 3.62125,3.621246 3.6748,12.575755 0.0946,15.815805 -2.53462,2.29379 -2.47525,2.38372 9.53119,14.43537 11.32478,11.36797 13.32411,14.89442 8.4441,14.89442 -1.0602,0 -5.87673,-3.65625 -10.7034,-8.125 -4.82666,-4.46875 -9.42407,-8.125 -10.21647,-8.125 -0.7924,0 -4.11808,5.38974 -7.39039,11.9772 l -5.94966,11.9772 6.11082,8.3353 c 9.4119,12.83802 9.60949,14.0622 5.15083,31.91169 -2.08464,8.34548 -4.05011,16.0518 -4.36774,17.12513 -0.3831,1.29465 0.8983,2.65529 3.80686,4.04229 2.41139,1.1499 4.38434,2.64601 4.38434,3.32469 0,0.7303 6.76011,1.39244 16.5625,1.62225 9.10937,0.21357 -96.5,0.3798 -234.6875,0.36939 -138.1875,-0.01 -235.78125,-0.17838 -216.875,-0.37324 z m 48.75,-1.33039 c 0,-0.56016 -2.00418,-1.97421 -4.45374,-3.14232 -3.21477,-1.53302 -4.27378,-2.72755 -3.80685,-4.29402 0.35578,-1.1936 2.3594,-9.02566 4.45248,-17.4046 4.42872,-17.72885 4.41814,-17.79003 -5.28007,-30.51606 -3.59525,-4.7177 -7.547455,-9.99442 -8.782676,-11.72607 -3.042124,-4.26472 -5.647964,-3.95799 -7.765559,0.91406 -0.971151,2.23437 -1.787747,3.20329 -1.814657,2.15314 -0.06369,-2.48559 3.440983,-7.46564 5.253888,-7.46564 0.77608,0 2.609906,1.12626 4.075168,2.5028 l 2.664116,2.50281 10.85395,-11.09185 C 120.51862,123.59673 122.5,120.87145 122.5,117.73473 c 0,-2.11045 -0.5625,-4.18483 -1.25,-4.60973 -0.70093,-0.4332 -1.25,0.54744 -1.25,2.23249 0,1.65277 -1.12728,4.02522 -2.50508,5.2721 -2.07249,1.87559 -3.04534,2.02091 -5.63372,0.84157 -2.93802,-1.33866 -3.71833,-0.8096 -12.807419,8.6836 -5.32333,5.56 -10.151409,10.93423 -10.729066,11.94271 -1.927339,3.3648 0.454966,8.03309 8.435936,16.53078 10.655299,11.34516 11.067409,12.24951 8.966009,19.67544 -1.92798,6.81308 -3.45283,26.18641 -2.38309,30.27715 0.59255,2.26587 1.62031,2.66916 6.80222,2.66916 3.35732,0 6.10421,-0.45831 6.10421,-1.01849 z m 385,0 c 0,-0.56016 -2.00419,-1.97421 -4.45374,-3.14232 -3.21476,-1.53302 -4.27379,-2.72755 -3.80685,-4.29402 0.35578,-1.1936 2.35249,-8.9983 4.43713,-17.34378 3.20737,-12.84018 3.57433,-15.8197 2.38625,-19.375 C 497.30083,158.55949 482.53705,140 479.06945,140 c -0.92957,0 -2.48471,1.82812 -3.45586,4.0625 -0.97115,2.23437 -1.78775,3.20329 -1.81466,2.15314 -0.0637,-2.48559 3.44098,-7.46564 5.25388,-7.46564 0.77609,0 2.71073,1.22096 4.2992,2.71326 1.58848,1.4923 3.10665,2.47668 3.37373,2.1875 0.26707,-0.28917 3.08743,-5.72889 6.26746,-12.08826 4.93144,-9.86177 5.44909,-11.5625 3.51935,-11.5625 -2.64314,0 -5.26255,-2.30208 -5.26255,-4.625 0,-0.89375 1.125,-2.75 2.5,-4.125 2.36,-2.35999 2.37084,-2.5 0.19374,-2.5 -3.4232,0 -5.39774,2.81995 -13.90244,19.85482 -5.68289,11.38283 -7.52508,16.28967 -6.96036,18.53963 0.42237,1.6829 4.32825,6.8506 8.67971,11.4838 10.6553,11.34516 11.06741,12.24951 8.96601,19.67544 -1.92797,6.81308 -3.45284,26.18641 -2.38309,30.27715 0.59254,2.26587 1.6203,2.66916 6.80222,2.66916 3.35731,0 6.10421,-0.45831 6.10421,-1.01849 z m 22.5,-74.99754 C 523.75,133.72366 499.31967,110 497.76439,110 c -2.18737,0 -5.41853,3.90148 -5.00585,6.04433 0.21776,1.13078 2.39976,2.46775 5.05063,3.09466 3.11867,0.73755 7.47065,3.74141 13.11653,9.05338 7.50891,7.06484 12.8243,9.98343 12.8243,7.0416 z M 83.215424,120.45081 c 4.044842,-2.65029 21.913426,-3.03759 27.723206,-0.6009 3.25157,1.36374 4.43809,1.39355 5.9375,0.14915 2.40373,-1.99492 2.42812,-7.36484 0.0376,-8.28216 -1.00995,-0.38755 -7.50123,0.1926 -14.42507,1.28923 C 95.564834,114.10276 88.27508,115 86.289223,115 82.42903,115 78.75,117.78849 78.75,120.71429 c 0,2.2829 0.63646,2.24535 4.465424,-0.26348 z m 50.562496,-5.22206 c 2.35347,-1.90572 2.57714,-2.6968 1.3898,-4.91535 -2.30057,-4.29867 -6.25638,-4.79292 -9.82211,-1.22719 -2.61499,2.61499 -2.87817,3.5173 -1.67932,5.75738 1.75697,3.28292 6.31847,3.45666 10.11163,0.38516 z m 368.93616,-7.29749 c 1.25726,-1.1378 2.28592,-3.66905 2.28592,-5.625 0,-3.102843 -0.46909,-3.55626 -3.67913,-3.55626 -2.38487,0 -4.36363,0.977294 -5.625,2.77813 -2.64517,3.77653 -2.44923,5.34707 0.86663,6.94625 3.737,1.80229 3.54079,1.81961 6.15158,-0.54312 z m -86.39893,80.7103 c -2.09834,-2.89666 -3.79511,-5.88539 -3.77062,-6.64161 0.0245,-0.75623 1.40037,-8.12495 3.05751,-16.37495 l 3.013,-15 -4.35692,-9.29625 c -2.3963,-5.11293 -4.87117,-12.42543 -5.49973,-16.25 -0.62855,-3.82456 -1.9919,-10.89125 -3.02966,-15.70375 -2.80998,-13.030969 -2.59382,-16.648342 1.09529,-18.329217 2.44922,-1.115933 2.83032,-1.856003 1.875,-3.641025 -2.75633,-5.15028 -1.40016,-9.802541 4.54071,-15.576388 3.15683,-3.068104 6.25058,-5.57837 6.875,-5.57837 2.09195,0 1.16332,2.397029 -1.47582,3.809455 -2.50795,1.342214 -2.44624,1.479739 1.5625,3.48148 3.75657,1.875824 4.21205,2.687048 4.55854,8.118683 0.21541,3.376826 -0.26489,6.81764 -1.09055,7.8125 -1.20914,1.456918 -0.90872,1.777882 1.66406,1.777882 4.17814,0 6.74738,2.410048 15.86195,14.87913 4.80379,6.57177 7.53811,11.48529 7.30391,13.125 -0.4745,3.32224 -3.4252,3.39033 -5.23808,0.12087 -2.2454,-4.04945 -13.61422,-18.125 -14.63955,-18.125 -1.4141,0 -2.74296,12.88755 -1.8233,17.68275 0.44221,2.30574 2.56642,9.56362 4.72046,16.12862 l 3.91643,11.93638 -3.96764,15.84331 c -2.1822,8.71383 -3.97593,17.68621 -3.98606,19.93863 -0.023,5.12131 -2.51214,10.1966 -5.26033,10.72585 -1.29244,0.2489 -3.54791,-1.6086 -5.9061,-4.86398 z m 8.71579,0.65206 c 0.67049,-1.7635 1.21906,-4.87202 1.21906,-6.90781 0,-2.03578 1.77726,-10.79829 3.94947,-19.47224 l 3.94949,-15.7708 -3.50701,-10.75888 c -3.13798,-9.6267 -3.64323,-10.45448 -4.8013,-7.86617 -0.98473,2.20085 -0.66594,5.04107 1.33285,11.875 l 2.62712,8.98228 -3.18173,9.375 c -3.22962,9.51603 -4.39492,22.16025 -2.47683,26.875 0.55939,1.375 0.071,0.8604 -1.08537,-1.14355 -2.63902,-4.57341 -1.78314,-13.51212 2.52163,-26.33583 l 3.0114,-8.97081 -2.86536,-9.27491 c -2.41524,-7.8179 -3.267,-9.23154 -5.42209,-8.99889 -1.4062,0.1518 -3.24335,-0.55132 -4.08256,-1.5625 -0.8392,-1.01118 -2.44132,-1.84712 -3.56026,-1.85765 -1.36158,-0.0128 -1.55291,-0.3255 -0.5785,-0.94542 1.0713,-0.68156 0.95312,-1.58465 -0.44733,-3.41836 -3.49777,-4.57988 -0.65736,8.53382 4.00523,18.49152 l 4.22185,9.0164 -3.15774,16.03379 -3.15774,16.0338 3.24513,4.9037 c 3.75647,5.67641 6.51196,6.24397 8.24059,1.69734 z m -4.44079,-60.48723 c 0.40574,-0.65649 -1.81106,-4.65587 -4.92623,-8.88752 C 410.25337,112.56916 410,111.84428 410,103.71472 c 0,-9.851034 -0.75652,-12.575621 -3.22845,-11.627056 -2.17475,0.83453 -2.20255,5.861095 -0.0921,16.662336 1.12562,5.76113 2.96473,10.03428 6.32131,14.6875 4.73607,6.56562 6.20682,7.60605 7.58946,5.36889 z m 5.18886,-14.77871 c 0.11513,-7.37147 -0.0826,-15.268478 -0.43962,-17.548896 -0.63509,-4.0572 -0.75398,-4.128484 -5.53744,-3.320324 -3.17099,0.535735 -5.54258,0.282987 -6.75039,-0.71941 -1.02409,-0.849916 -2.01737,-1.32452 -2.2073,-1.054676 -0.18992,0.269845 -0.0358,5.318277 0.34271,11.218736 0.65618,10.23152 0.93394,11.05356 6.00053,17.75887 2.92187,3.86691 5.3125,7.72988 5.3125,8.58438 0,1.22796 0.32172,1.23191 1.53481,0.0189 0.99275,-0.99275 1.60878,-6.26839 1.7442,-14.93751 z M 447.5,118.85824 c 0,-1.31546 -3.43758,-7.08109 -7.63905,-12.8125 C 432.36509,95.820334 429.27661,92.5 427.26109,92.5 c -1.74084,0 -1.10215,4.823093 0.8625,6.513216 3.23172,2.780144 15.19568,17.757464 16.01547,20.049284 1.0484,2.93093 3.36094,2.79039 3.36094,-0.20426 z M 421.77496,90.110543 c 3.12783,-3.456214 2.19311,-9.366134 -1.56555,-9.89849 -5.26706,-0.745998 -10.74942,6.749963 -7.65962,10.472932 2.11042,2.542906 6.66041,2.259583 9.22517,-0.574442 z M 180.04397,173.83217 c -1.99991,-3.73687 -1.54015,-11.57411 1.1899,-20.28331 1.36613,-4.35812 2.49113,-8.51831 2.5,-9.24487 0.009,-0.72655 -3.98914,-3.2578 -8.88447,-5.625 C 165.11581,133.9722 160,128.99827 160,124.24143 c 0,-1.68672 1.34266,-6.28419 2.9837,-10.2166 1.64102,-3.93241 4.17872,-11.80041 5.63931,-17.484454 2.4854,-9.672164 2.5242,-10.535214 0.60526,-13.463881 -1.41448,-2.158784 -1.84348,-4.671721 -1.38326,-8.102876 0.7963,-5.936884 -0.64021,-6.356098 -5.57607,-1.627247 -4.73757,4.538878 -6.14039,2.596915 -1.57007,-2.173477 2.66858,-2.7854 4.64822,-3.735358 7.40888,-3.555253 11.16077,0.72813 12.96032,0.139377 15.64225,-5.117642 2.56504,-5.027886 5.75094,-6.505011 7.00146,-3.24619 0.37015,0.964596 -0.59843,4.198971 -2.15241,7.1875 C 185.92131,71.591003 183.34429,85 185.03232,85 c 2.09367,0 13.81545,-8.787132 19.75107,-14.80621 6.91945,-7.016744 9.87441,-7.370976 8.27333,-0.991782 C 212.25961,72.377954 189.72515,95 187.3586,95 c -0.60973,0 -1.1086,1.110357 -1.1086,2.467461 0,1.357103 -1.6875,6.715499 -3.75,11.907539 -2.0625,5.19204 -3.75,9.93856 -3.75,10.54782 0,0.60925 3.51562,3.63111 7.8125,6.71523 4.29687,3.08412 9.40493,7.28995 11.35122,9.34627 l 3.53872,3.73878 -6.70133,16.70095 c -3.68573,9.18552 -7.13949,17.40407 -7.675,18.26345 -1.47567,2.36814 -5.57375,1.86968 -7.03213,-0.85533 z m 13.22324,-16.78312 6.93523,-17.32595 -3.53449,-3.68921 c -6.49683,-6.78124 -19.87945,-15.12327 -22.78296,-14.20173 -2.99033,0.94909 -5.64235,5.08563 -4.47328,6.97725 0.42754,0.69175 5.25965,3.5114 10.73805,6.26589 5.4784,2.75449 10.27275,5.82129 10.65413,6.81511 0.38136,0.99384 -0.48725,5.30303 -1.93025,9.57599 -1.443,4.27296 -2.66805,8.92544 -2.72233,10.33881 -0.0632,1.64651 -0.34666,1.94405 -0.78889,0.82813 -0.37961,-0.95792 0.61081,-5.89004 2.20092,-10.96028 1.76045,-5.61342 2.4356,-9.63505 1.72637,-10.28345 -0.64059,-0.58565 -5.83811,-3.46763 -11.55004,-6.4044 -7.36073,-3.78449 -10.7739,-4.95098 -11.71957,-4.00531 -0.94566,0.94566 1.62386,2.82155 8.82282,6.44113 5.58639,2.80878 10.14982,5.80372 10.14095,6.65542 -0.009,0.8517 -1.13387,5.11429 -2.5,9.47241 -3.85803,12.30764 -3.19165,21.94508 1.46622,21.20473 1.78788,-0.28418 4.11145,-4.69944 9.31712,-17.70454 z m -24.70666,-31.38367 c 1.40663,-2.38405 3.92231,-4.67718 5.59041,-5.09584 2.40686,-0.60409 3.83963,-2.82214 6.94098,-10.74532 4.78483,-12.224034 4.85764,-13.409064 0.77587,-12.628785 -5.9334,1.134241 -8.86882,-4.162483 -4.79907,-8.659509 1.95343,-2.158534 1.88872,-2.285926 -1.1613,-2.285926 -2.87184,0 -3.44721,0.797077 -5.18836,7.1875 -2.5368,9.31061 -5.01295,17.05042 -7.71057,24.10127 C 160.6648,123.66458 161.30887,130 164.27535,130 c 0.95024,0 2.87859,-1.95059 4.2852,-4.33462 z m 18.61174,-31.892426 c 10.9112,-6.652758 27.60655,-25.660782 24.90847,-28.358858 -0.2975,-0.2975 -3.55925,2.44075 -7.24833,6.084998 -8.02229,7.924791 -15.49695,13.164495 -21.93905,15.379185 -5.31697,1.827882 -7.42112,4.291985 -6.25654,7.326817 1.05815,2.757509 5.61032,2.570788 10.53545,-0.432142 z m -3.57248,-14.022991 c 0.32439,-7.109128 -1.51626,-7.832748 -4.42237,-1.738581 -2.34159,4.910357 -1.60267,8.171773 1.79347,7.915949 1.91285,-0.14409 2.40654,-1.304162 2.6289,-6.177368 z m 3.87479,-13.450165 c 2.91792,-5.719622 3.1522,-7.553934 0.9629,-7.539487 -2.44336,0.01612 -7.15946,9.517723 -5.53193,11.145262 1.8499,1.849898 1.74252,1.934646 4.56903,-3.605775 z m 168.81937,90.032372 c -0.71168,-1.3298 -1.29913,-3.43917 -1.30545,-4.6875 -0.006,-1.24832 -3.10006,-8.66063 -6.875,-16.47182 -3.77493,-7.81117 -6.86352,-15.00715 -6.86352,-15.99105 0,-0.9839 2.5545,-4.51987 5.67666,-7.85772 l 5.67668,-6.06882 -4.73918,-2.31513 c -4.1451,-2.02492 -4.94445,-3.155125 -6.3769,-9.016219 -1.9693,-8.057738 -0.0431,-16.310395 4.24669,-18.195177 2.23883,-0.983649 2.52979,-1.970149 2.05093,-6.953692 -0.50834,-5.29046 -0.16298,-6.226288 3.87976,-10.512841 4.49087,-4.761712 9.37974,-5.813982 10.54729,-2.270181 0.38802,1.177747 -0.4343,1.410991 -3.02709,0.8586 -3.1828,-0.678093 -3.29505,-0.60121 -1.05984,0.725884 1.375,0.816368 3.20313,2.365633 4.0625,3.442812 1.86646,2.3395 2.08016,9.763209 0.3125,10.855684 -1.94677,1.203175 -1.48845,2.421835 1.41641,3.76609 3.90882,1.808846 9.01419,16.12584 7.79479,21.85891 -0.5118,2.40625 -0.79386,6.34375 -0.6268,8.75 0.25798,3.71597 -0.53084,5.19172 -5.23659,9.79687 l -5.54032,5.42187 2.49976,6.45313 c 1.37488,3.54922 3.27444,8.30034 4.22126,10.55804 4.22327,10.07043 -0.005,20.08985 -8.54703,20.25303 -0.49144,0.01 -1.47582,-1.07097 -2.1875,-2.40077 z m 5.74115,0.41982 c 5.13435,-1.37787 7.00307,-10.49935 3.74339,-18.27208 -0.94682,-2.2577 -2.84816,-7.01302 -4.22521,-10.56739 l -2.50371,-6.46248 4.22521,-4.09523 c 2.97679,-2.88521 4.2252,-5.21873 4.2252,-7.89767 l 0,-3.80244 -3.39709,4.77448 c -2.84345,3.99636 -3.94108,4.66569 -6.73491,4.10692 -3.48747,-0.6975 -7.368,2.17791 -7.368,5.45958 0,0.92061 2.53125,6.35534 5.625,12.07719 4.12552,7.63012 5.57167,11.6561 5.42495,15.10275 l -0.20004,4.69938 -0.43706,-4.375 c -0.24039,-2.40625 -3.10349,-9.55569 -6.36245,-15.88762 -4.36538,-8.48162 -5.5963,-11.99054 -4.6754,-13.32783 0.6875,-0.99835 3.12539,-4.11454 5.41754,-6.92487 l 4.16754,-5.10968 -3.07084,0 c -3.30994,0 -13.38924,9.75424 -13.38924,12.95742 0,0.96981 3.08859,8.15426 6.86352,15.96543 3.77494,7.81119 6.86869,15.14052 6.875,16.28741 0.0149,2.70719 1.30749,6.04444 2.33272,6.02268 0.44206,-0.01 2.00082,-0.33832 3.46388,-0.73095 z m 3.2911,-49.80414 c 2.58567,-3.7249 5.0113,-8.358861 5.39029,-10.297696 0.88754,-4.540522 -4.68561,-19.621905 -7.45704,-20.179309 -2.69046,-0.54112 -2.55141,0.782281 1.10203,10.488571 l 3.1115,8.266489 -3.12266,5.328415 c -1.71747,2.93063 -4.24264,6.34198 -5.6115,7.58078 -3.07389,2.78183 -3.2266,5.61989 -0.30134,5.60009 1.22594,-0.008 4.25402,-2.99182 6.88873,-6.78734 z M 370,107.42623 c 0,-2.10307 -0.48706,-3.52275 -1.08236,-3.15483 -1.00697,0.62233 -0.45765,6.9786 0.60308,6.9786 0.2636,0 0.47928,-1.7207 0.47928,-3.82377 z m -7.02813,-6.65271 3.20943,-5.476472 -3.43378,-9.418457 c -2.95203,-8.097063 -3.73406,-9.250408 -5.57408,-8.220678 -1.39052,0.778167 -2.99314,0.74136 -4.5747,-0.105075 C 351.25982,76.83628 349.84612,76.25 349.45717,76.25 c -1.1937,0 -0.78465,9.835264 0.64522,15.513787 1.08255,4.299164 2.22065,5.784875 5.70373,7.445848 3.43423,1.637665 4.18527,2.598285 3.56338,4.557685 -1.2904,4.06569 0.18269,2.84146 3.60237,-2.9938 z m -4.60946,2.266 c 0.24451,-0.73452 -2.45086,-2.69164 -5.98973,-4.349154 l -6.43431,-3.013668 0.81983,-9.830523 c 0.64309,-7.711149 0.47456,-9.717265 -0.78167,-9.305191 -3.19522,1.048091 -4.92302,9.616331 -3.40941,16.907376 1.29277,6.227175 1.80125,6.92596 6.60424,9.07585 5.57535,2.4956 8.47765,2.65833 9.19105,0.51531 z m -9.5463,-11.227354 c -1.08131,-3.62047 -1.10317,-3.628753 -1.20867,-0.458 -0.0591,1.776043 0.26756,3.604168 0.7259,4.0625 1.45138,1.451395 1.61901,0.199903 0.48277,-3.6045 z M 358.75,75 c 5.00341,-5.003406 1.54336,-10.635009 -5.99931,-9.764562 -4.44299,0.512732 -5.32592,5.939332 -1.57641,9.688841 3.21097,3.210965 4.42831,3.223132 7.57572,0.07572 z m -129.43181,63.18181 c -3.70878,-3.70876 -3.7141,-3.84332 -0.52644,-13.30573 l 2.54174,-7.54506 -3.79174,-3.54202 c -2.08546,-1.94811 -3.79175,-4.34114 -3.79175,-5.31784 0,-2.41898 3.9078,-13.730025 4.52894,-13.108894 0.27376,0.273769 -0.352,2.906225 -1.39059,5.849904 -2.45794,6.96653 -2.38623,8.28995 0.61165,11.28783 3.55186,3.55186 9.23937,3.23631 12.32285,-0.6837 2.54227,-3.23198 3.17453,-5.42538 4.51708,-15.670466 0.48088,-3.669629 1.36978,-5.729168 2.47273,-5.729168 1.41544,0 1.38644,0.512069 -0.16287,2.876613 -3.54709,5.413545 -0.97956,5.908106 4.35027,0.837956 2.88746,-2.746779 5.24994,-4.562505 5.24994,-4.034948 0,0.527559 -2.67188,3.249333 -5.9375,6.048385 -3.52864,3.024485 -5.12863,5.092458 -3.94374,5.097258 2.93417,0.0119 6.13124,4.10387 6.13124,7.84748 0,6.48305 -6.51254,21.1407 -11.88366,26.7463 -2.85329,2.97786 -5.87229,5.41429 -6.70889,5.41429 -0.8366,0 -2.90176,-1.38069 -4.58926,-3.06819 z m 10.67003,-3.01861 C 244.832,130.07134 251.25,115.12037 251.25,108.92849 c 0,-6.88965 -5.24005,-8.62407 -7.39334,-2.44716 -0.76335,2.18974 -2.3118,5.00224 -3.44101,6.25 -1.91681,2.11805 -1.89088,2.26867 0.39061,2.26867 1.34407,0 3.17597,-0.70312 4.07092,-1.5625 0.89493,-0.85937 0.30431,0.47706 -1.3125,2.96985 -5.48656,8.45909 -6.10296,9.22341 -4.20746,5.21723 2.52834,-5.34371 2.51509,-5.37458 -2.30636,-5.37458 -4.06265,0 -4.2861,0.26493 -6.875,8.15125 -3.2692,9.95869 -3.26982,10.00479 -0.17586,13.09875 3.47969,3.47969 4.73436,3.18615 9.98822,-2.3368 z m 54.5756,-5.5291 c -0.94586,-2.26374 -4.17617,-11.55884 -7.17847,-20.65577 -5.94664,-18.018209 -5.86491,-20.485365 0.70436,-21.263441 1.9044,-0.225563 7.35868,0.544681 12.1206,1.711651 4.76193,1.166971 8.95415,1.825669 9.31604,1.463775 0.51816,-0.518166 -2.46768,-7.690348 -3.90556,-9.38139 -0.1712,-0.201343 -2.40643,0.633035 -4.96718,1.85417 l -4.6559,2.220246 -3.06637,-3.56487 c -3.59917,-4.18427 -3.49831,-8.856066 0.19366,-8.971922 1.375,-0.04315 4.27499,-1.014488 6.44441,-2.158533 l 3.9444,-2.080081 -4.8819,-4.881909 c -5.83382,-5.83382 -6.32171,-10.099861 -1.68532,-14.736245 2.57565,-2.575655 4.09321,-3.089452 7.8125,-2.64507 2.53875,0.303333 5.51538,-0.0024 6.61475,-0.67946 2.40648,-1.482024 7.08157,-0.463645 10.50116,2.287473 2.40914,1.9382 2.36371,1.983102 -1.25,1.235476 -8.02501,-1.66026 -8.78654,-1.488251 -8.24268,1.8618 0.27903,1.71875 0.56028,5.09375 0.625,7.5 0.0674,2.504365 1.00493,5.039721 2.19275,5.929635 2.69209,2.016895 9.48263,19.827546 10.50878,27.563084 0.70622,5.323707 0.41275,6.468066 -2.56685,10.009111 -4.06265,4.82818 -8.57496,5.17784 -20.40288,1.581 -5.20614,-1.58318 -7.68611,-1.89851 -7.29801,-0.92796 0.32334,0.80857 1.80046,6.53704 3.28253,12.72994 2.08281,8.70317 2.39875,12.03809 1.39145,14.6875 -1.72645,4.5409 -3.456,4.32648 -5.55127,-0.68821 z m 4.74623,-0.58836 c 0.634,-2.88663 -2.71026,-19.16364 -6.3282,-30.800249 -0.80806,-2.599034 -0.79546,-2.598335 1.5392,0.08532 2.78364,3.199739 14.88239,6.871849 21.23219,6.444209 6.70638,-0.45165 9.71643,-4.869869 8.67625,-12.735171 -1.26321,-9.551655 -8.31169,-26.295653 -11.30449,-26.854352 -2.13845,-0.399206 -2.00286,-0.003 0.9375,2.73921 1.89062,1.763253 3.4375,3.551002 3.4375,3.972777 0,2.100762 -2.81336,5.602511 -4.50116,5.602511 -1.05225,0 -3.00078,0.582058 -4.33005,1.293463 -2.35339,1.259495 -2.33427,1.456447 0.72823,7.5 2.13125,4.205828 3.92134,6.206537 5.55315,6.206537 4.16673,0 8.36525,8.575955 5.1664,10.552945 -0.62338,0.38528 -0.85407,-0.36777 -0.51262,-1.67343 1.32197,-5.055239 -1.48638,-7.111937 -12.97378,-9.501367 -17.19098,-3.575804 -21.45456,-3.79024 -22.47525,-1.130388 -0.93522,2.437161 11.68502,41.752235 13.40258,41.752235 0.54662,0 1.33526,-1.55441 1.75255,-3.45426 z M 304.56749,80 c 3.65455,-2.0625 7.43672,-3.75 8.40483,-3.75 2.11124,0 3.47218,-3.038671 2.49797,-5.577416 -0.95152,-2.479622 -5.22059,-3.68593 -7.20779,-2.036702 -0.88964,0.738335 -2.03451,0.925433 -2.54418,0.415773 -0.50966,-0.50966 -0.73916,-0.314094 -0.50998,0.434592 0.22916,0.748687 -1.34648,2.853379 -3.50142,4.677095 -3.40822,2.884359 -4.11945,3.073209 -5.46556,1.451253 -4.0251,-4.849951 -6.78921,0.01238 -3.04549,5.357272 2.51632,3.592532 3.42094,3.515219 11.37162,-0.971867 z m -3.22288,-7.034039 3.03039,-3.28404 -4.10338,2.087275 c -2.25685,1.148 -3.77052,2.625818 -3.36372,3.284039 1.00729,1.629825 1.00625,1.630313 4.43671,-2.087274 z m 7.48756,-6.759941 c 3.20129,-1.713274 3.05998,-4.364479 -0.36031,-6.76014 -3.48766,-2.44286 -6.07301,-2.463636 -9.17045,-0.0737 -2.36662,1.82605 -2.33999,1.949262 1.08079,5 3.90434,3.481985 4.94741,3.708355 8.44997,1.833836 z m -86.05403,25.5981 C 221.25016,90.733886 220,88.875263 220,87.673846 c 0,-3.357906 6.97589,-13.589031 9.89771,-14.51638 2.09052,-0.663505 2.35549,-1.282967 1.35135,-3.159225 -2.08946,-3.904182 -1.47471,-11.02259 1.18128,-13.678581 1.91754,-1.917539 4.09347,-2.411591 10.3125,-2.341481 7.82806,0.08825 17.88951,3.484123 13.26017,4.475482 -1.1671,0.24993 -3.23948,-0.14365 -4.60532,-0.874622 -4.15005,-2.221035 -4.94242,-1.572249 -4.26333,3.490766 0.36138,2.694283 -0.0271,6.078338 -0.88085,7.673636 -1.36951,2.558945 -1.12313,3.170159 2.38436,5.915183 3.78102,2.959087 8.3694,10.000767 7.24756,11.12262 -0.30192,0.301905 -1.23854,-1.115953 -2.08139,-3.150795 -0.84286,-2.034843 -2.6857,-4.724754 -4.0952,-5.977582 -2.55072,-2.267184 -2.55968,-2.249928 -1.9121,3.679383 0.35784,3.276487 0.18475,6.245174 -0.38465,6.597081 -0.56939,0.351907 -1.20443,-2.610106 -1.41118,-6.58225 L 245.625,73.125 l -6.25,-0.324941 c -3.4375,-0.178719 -7.05449,0.198371 -8.03774,0.837976 -1.11531,0.725505 -2.13401,4.609072 -2.70832,10.324941 l -0.9206,9.162024 0.2492,-9.0625 C 228.09459,79.078125 228.07142,75 227.90605,75 227.04712,75 221.25,86.121969 221.25,87.769856 c 0,1.058868 1.26562,2.808069 2.8125,3.887114 1.54687,1.079045 2.51579,1.991405 2.15314,2.027465 -0.36267,0.03606 -1.90954,-0.810081 -3.4375,-1.880315 z M 237.49532,69.6875 c -0.002,-0.859375 -1.24916,-3.53125 -2.7702,-5.9375 -2.62792,-4.157286 -2.78835,-4.228714 -3.22393,-1.435359 -0.76923,4.933062 0.80861,8.935359 3.52262,8.935359 1.3619,0 2.47409,-0.703125 2.47151,-1.5625 z m 24.9796,-35.342708 c -2.07656,-2.502115 -0.59132,-3.912472 1.92285,-1.825895 1.54478,1.282057 2.27687,1.301895 3.4677,0.09398 1.18148,-1.198422 1.03414,-1.882392 -0.67797,-3.147326 C 264.50452,27.483335 264.38468,26.25 266.875,26.25 c 1.03125,0 1.875,-0.632813 1.875,-1.40625 0,-0.908039 -1.38256,-1.129738 -3.90243,-0.625766 -3.42322,0.684646 -3.70497,0.542581 -2.29448,-1.156948 0.89455,-1.077875 3.04182,-1.77075 4.83991,-1.561733 2.90306,0.337461 3.25364,0.947397 3.44461,5.992982 0.11688,3.089506 -0.37382,6.323881 -1.09056,7.1875 -1.77649,2.140534 -5.3544,1.975716 -7.27213,-0.334993 z m 11.35965,-0.43676 c -3.17625,-5.93488 -0.31825,-13.223378 4.88755,-12.464245 4.26421,0.621828 4.76787,3.484554 0.55909,3.177797 -1.86075,-0.135622 -3.60067,0.362238 -3.86651,1.106353 -0.26583,0.744117 0.72405,1.306617 2.19974,1.25 3.61159,-0.138561 5.95909,3.536163 4.12651,6.459563 -1.99753,3.186536 -6.31529,3.443499 -7.90637,0.470532 z M 280,31.948771 c 0,-0.990676 -0.61151,-2.179164 -1.35891,-2.641085 -1.76503,-1.090846 -4.17425,1.318372 -3.0834,3.083399 C 276.78295,34.373611 280,34.053296 280,31.948771 Z m 5.0724,2.513464 c -2.12745,-2.563414 -1.14125,-10.806025 1.4901,-12.454245 3.39467,-2.126355 6.49354,0.554915 6.95566,6.018341 C 293.94997,33.131592 292.1419,36.25 288.75,36.25 c -1.20664,0 -2.86156,-0.804494 -3.6776,-1.787765 z m 5.5526,-5.816401 c 0,-2.962964 -0.57419,-4.270834 -1.875,-4.270834 -2.00129,0 -3.17284,4.56865 -1.9732,7.694855 1.26787,3.304022 3.8482,1.008121 3.8482,-3.424021 z m 6.11249,-1.67845 c -1.13725,-2.963614 0.47187,-5.956667 2.94623,-5.480149 1.38378,0.266493 2.19128,1.560969 2.19128,3.512765 0,3.563284 -3.94535,5.074132 -5.13751,1.967384 z m 2.84036,-3.529884 c -0.34676,-0.859375 -0.63049,-0.15625 -0.63049,1.5625 0,1.71875 0.28373,2.421875 0.63049,1.5625 0.34676,-0.859375 0.34676,-2.265625 0,-3.125 z"
       id="path3540"
       inkscape:connector-curvature="0" />
  </g>
</svg>
