<?xml version="1.0" encoding="UTF-8" standalone="no"?>
<!-- Created with Inkscape (http://www.inkscape.org/) -->

<svg
   xmlns:dc="http://purl.org/dc/elements/1.1/"
   xmlns:cc="http://creativecommons.org/ns#"
   xmlns:rdf="http://www.w3.org/1999/02/22-rdf-syntax-ns#"
   xmlns:svg="http://www.w3.org/2000/svg"
   xmlns="http://www.w3.org/2000/svg"
   xmlns:sodipodi="http://sodipodi.sourceforge.net/DTD/sodipodi-0.dtd"
   xmlns:inkscape="http://www.inkscape.org/namespaces/inkscape"
   id="svg3438"
   version="1.1"
   inkscape:version="0.91 r13725"
   width="505"
   height="261.25"
   viewBox="0 0 505 261.25"
   sodipodi:docname="fx121301.svg">
  <metadata
     id="metadata3444">
    <rdf:RDF>
      <cc:Work
         rdf:about="">
        <dc:format>image/svg+xml</dc:format>
        <dc:type
           rdf:resource="http://purl.org/dc/dcmitype/StillImage" />
        <dc:title></dc:title>
      </cc:Work>
    </rdf:RDF>
  </metadata>
  <defs
     id="defs3442" />
  <sodipodi:namedview
     pagecolor="#b9b9b9"
     bordercolor="#666666"
     borderopacity="1"
     objecttolerance="10"
     gridtolerance="10"
     guidetolerance="10"
     inkscape:pageopacity="0"
     inkscape:pageshadow="2"
     inkscape:window-width="1081"
     inkscape:window-height="1012"
     id="namedview3440"
     showgrid="false"
     inkscape:zoom="1.6130436"
     inkscape:cx="414.39653"
     inkscape:cy="-29.928626"
     inkscape:window-x="0"
     inkscape:window-y="0"
     inkscape:window-maximized="0"
     inkscape:current-layer="svg3438" />
  <path
     style="fill:#000000"
     d="m 450.13086,283.64062 c -3.38958,0 -2.52564,3.17268 2.48437,9.13282 5.41662,6.44387 5.4374,6.51317 3.33985,10.58203 -1.24974,2.42428 -1.54188,4.09767 -0.7168,4.09765 0.76679,0 1.73482,-0.89291 2.15234,-1.98437 1.17918,-3.08249 2.43655,-2.38465 4.84961,2.69141 2.60047,5.47027 2.8135,8.75415 0.70704,10.86718 -1.13545,1.13902 -1.14079,3.38169 -0.0234,8.96289 1.31371,6.56186 1.19326,8.03202 -1.02539,12.39454 -1.3845,2.72224 -3.37621,5.66267 -4.42188,6.5332 -1.04567,0.87054 -7.46638,2.1377 -14.27148,2.81641 -31.59677,3.15138 -47.60362,6.11481 -48.5918,8.99804 0.0185,0.5643 -0.68992,2.26652 0.14063,2.26563 27.20758,-0.0292 51.39607,0.0965 72.86914,0.0586 45.70643,-0.0804 75.80897,-0.33894 73.33398,-0.46289 -11.12587,-0.5572 -11.1732,-0.57231 -5.9375,-2.16406 2.90386,-0.88284 5.27539,-2.44407 5.27539,-3.47071 0,-1.48672 -2.2674,-1.78833 -11.20898,-1.49218 -16.38036,0.54254 -51.75008,-3.09692 -55.09571,-5.66992 -0.19957,-0.15346 0.87638,-3.17904 2.39063,-6.72266 2.16371,-5.06353 2.56227,-7.86495 1.86328,-13.08594 -0.48919,-3.65386 -1.50052,-7.40293 -2.24805,-8.33008 -0.74761,-0.92714 -1.12456,-1.82004 -0.83984,-1.98437 0.28469,-0.16432 1.70355,-0.95524 3.1543,-1.75781 2.00062,-1.1068 2.73279,-3.08685 3.0332,-8.19532 0.35157,-5.97851 0.0205,-6.98247 -2.96289,-8.94336 -2.14545,-1.41015 -4.91468,-1.97253 -7.65234,-1.55468 -3.77337,0.57593 -5.18748,-0.20333 -11.77344,-6.4668 -4.11705,-3.91543 -8.0878,-7.11523 -8.82422,-7.11524 z"
     id="path4386" />
  <path
     style="fill:#ffff00"
     d="m 473.29297,318.80469 c 1.67424,0.13575 2.81545,3.08384 3.62891,9.16015 0.77336,5.7769 0.27132,8.10096 -3.93946,18.19141 -2.65509,6.36244 -5.1063,11.56836 -5.44531,11.56836 -0.33903,0 -0.22695,-1.23281 0.25,-2.74023 1.02342,-3.2346 -2.5448,-7.84376 -6.07422,-7.84376 -2.10656,0 -2.01839,-0.57857 0.88477,-5.78906 2.96224,-5.31662 3.10519,-6.34424 1.76367,-12.61914 -1.83013,-8.56019 -1.01684,-11.41718 2.60156,-9.15039 1.995,1.25025 2.98226,1.25449 4.4707,0.0156 0.68365,-0.56914 1.30132,-0.83627 1.85938,-0.79102 l 0,-0.002 z"
     id="path4313" />
  <path
     style="fill:#000000"
     d="m 406.65625,250.49414 c -0.27196,0.004 -0.53529,0.11271 -0.75391,0.33203 -0.58296,0.5848 0.89349,2.81494 3.28125,4.95508 l 4.3418,3.88867 -2.33398,3.96485 c -1.4237,2.41766 -3.06009,3.68384 -4.19727,3.24609 -3.59356,-1.38328 -6.84979,0.91819 -11.4082,8.06641 -2.52886,3.9656 -7.86915,11.6666 -9.37696,12.55273 -9.80597,5.76283 -18.07993,8.60656 -32.93554,17.30859 -9.18353,5.37946 -17.97227,10.45392 -19.53125,11.27735 -1.559,0.82345 -4.64144,2.98925 -6.84961,4.8164 -3.04676,2.52104 -3.69591,3.64803 -2.68946,4.66797 1.49568,1.51572 4.77129,0.32238 35.19336,-12.80664 10.14175,-4.3768 22.57398,-7.95508 24.24805,-7.95508 4.00791,0 12.19996,5.38769 12.2207,8.03711 0.0253,3.22869 6.10314,8.31334 8.72852,7.30274 1.47505,-0.56779 6.62491,1.75417 14.90625,6.72265 6.95802,4.17455 15.31979,8.33206 18.58398,9.23633 12.95397,3.58862 15.20858,-0.48919 3.82032,-6.91211 -4.06567,-2.29301 -13.70999,-9.0615 -21.43164,-15.04101 -15.02769,-11.63719 -15.23585,-11.99413 -12.64258,-21.91407 2.3489,-8.98522 4.1817,-13.3998 5.89062,-11.68554 2.83883,2.84769 7.25021,1.63971 11.42578,-3.13086 2.25357,-2.57469 4.0918,-6.17128 4.0918,-8 0,-3.64401 -5.31476,-9.81448 -8.45312,-9.81445 -2.21663,0 -11.41394,-5.93401 -12.87696,-8.3086 -0.26022,-0.42237 -0.61487,-0.68973 -0.97851,-0.77539 -0.0909,-0.0214 -0.18279,-0.0326 -0.27344,-0.0312 z"
     id="path4381" />
  <path
     style="fill:#ffff00"
     d="m 405.13281,267.54688 c 1.82991,0 1.68021,0.41722 -0.77539,2.14257 -2.5034,1.75891 -2.90369,2.91594 -2.23633,6.48438 0.44699,2.38999 -1.26441,10.87192 -1.7207,13.73047 -0.37044,2.32385 -0.67445,3.23692 -1.80664,4.49609 -2.26909,-2.16282 -4.45379,-3.92539 -6.48633,-4.83398 -1.10525,-0.49408 -2.17708,-0.74524 -3.19726,-0.63672 -1.02019,0.10851 -1.97012,0.59474 -2.75196,1.46679 -1.59344,1.77731 -1.7793,4.5928 -1.35742,7.28711 0.21144,1.35034 0.5783,2.67684 1.04102,3.85157 -0.63232,-0.83125 -1.30478,-1.96093 -1.69532,-3.40821 -0.45803,-1.69741 -0.68822,-3.14685 -0.35546,-4.66797 0.31153,-1.42412 1.16017,-2.96377 2.8496,-4.82226 1.71677,-1.39465 6.13426,-7.82907 8.17579,-10.78906 5.65691,-8.20199 7.75926,-10.30083 10.3164,-10.30078 z"
     id="path4379" />
  <path
     style="fill:#ffffff"
     d="M 407.18555 270.40625 C 406.95263 270.39245 406.71662 270.40135 406.47656 270.43555 C 403.9159 270.80071 403.56464 271.5586 403.8457 276.11328 C 404.02408 279.00391 401.24584 292.03341 399.75586 299.95312 C 397.19516 313.5642 397.17094 314.4882 399.30664 316.85547 C 400.54931 318.23291 402.3642 319.36133 403.33984 319.36133 C 405.49241 319.36133 405.54953 318.70161 403.66211 315.66992 C 402.56516 313.90792 402.91381 309.99104 405.0918 299.61719 C 406.67646 292.0693 410.33745 280.65068 411.14258 279.35742 C 413.24541 275.97975 410.67933 270.61262 407.18555 270.40625 z M 416.48047 271.51758 C 412.30949 271.51758 412.09518 271.73596 412.91016 275.15625 C 413.38696 277.15726 414.02682 279.24138 414.33203 279.78711 C 415.32055 281.55464 420.39321 280.8384 422.88086 278.58008 C 425.1446 276.52501 425.16092 276.22108 423.11133 273.94922 C 421.81056 272.50739 419.11163 271.51758 416.48047 271.51758 z M 389.625 289.91406 C 389.4147 289.90106 389.21159 289.90498 389.01562 289.92578 C 388.23181 290.00915 387.5452 290.34742 386.90234 291.06445 C 385.6464 292.46532 385.39176 294.99197 385.78906 297.5293 C 386.08123 299.39514 386.72225 301.24742 387.43945 302.59766 C 387.89274 303.24837 388.36289 303.87015 388.84961 304.41211 C 389.12944 304.72375 390.75002 306.25122 392.80469 307.60938 L 396.54102 310.08008 L 397.375 306.45117 C 397.8332 304.45572 398.27748 301.50197 398.36328 299.88672 L 398.79297 296.12695 C 398.59027 295.86269 398.40063 295.64214 398.20898 295.41211 C 395.86352 293.1476 393.61992 291.33712 391.69922 290.47852 C 390.95017 290.14367 390.25591 289.95316 389.625 289.91406 z M 384.26562 290.00391 C 380.94514 291.80794 378.19507 292.99911 374.43555 294.94922 C 370.47826 296.6679 362.51442 300.4735 350.57617 307.5625 C 349.70257 308.08125 349.13536 308.39994 348.29688 308.89453 C 341.25942 312.99628 335.45734 316.31445 335.23047 316.31445 C 334.66163 316.31445 332.01043 318.15107 329.49805 320.09961 C 329.30719 320.24763 329.13164 320.39245 328.94336 320.54102 C 326.6434 322.34909 324.59766 324.14523 324.59766 324.56445 C 324.59766 324.75829 324.61653 324.92216 324.67383 325.05078 C 324.70242 325.11514 324.74062 325.16904 324.79102 325.21484 C 324.84163 325.26112 324.90267 325.29822 324.98047 325.32422 C 325.13446 325.37582 325.34837 325.38621 325.63867 325.34961 L 325.64062 325.34961 C 326.51498 325.23885 328.09553 324.7027 330.92188 323.58398 C 332.80609 322.83817 335.24363 321.83415 338.39453 320.52344 C 348.0414 316.51052 355.82241 313.32246 362.58203 310.53516 C 368.41491 308.28447 379.93196 305.01309 384.66211 303.49219 C 385.00558 303.37402 385.41247 303.23357 385.8457 303.08789 C 384.99294 302.19017 383.77899 300.60767 383.17969 298.38672 C 382.70619 296.63198 382.43254 294.98994 382.81445 293.24414 C 383.04213 292.20338 383.50709 291.13985 384.26562 290.00391 z M 405.31445 303.66797 L 404.43164 308.91406 C 403.88445 312.1629 404.11697 314.84752 405.04297 315.9668 C 407.81153 319.31312 432.09642 333.12483 438.08594 334.75977 C 450.20247 338.06718 452.49998 335.927 442.37109 330.76758 C 438.92557 329.01253 429.17881 322.19568 420.71094 315.62109 L 405.31445 303.66797 z "
     id="path4377" />
  <path
     id="path3458"
     d="m 253.87413,60.02541 c -1.40313,0 -2.67084,3.242336 -4.69726,12.011719 -2.94665,12.751719 -2.70143,15.289768 2.86718,29.664061 1.16052,2.99566 1.5555,3.2328 2.51758,1.51367 0.74368,-1.32889 0.36785,-5.033422 -1.07812,-10.646481 -1.92871,-7.487087 -2.01453,-9.639354 -0.66602,-16.513672 3.10474,-15.827037 3.11723,-16.029297 1.05664,-16.029297 z m 17.29688,1.25 c -1.20441,0 -1.43969,2.622734 -0.98047,10.9375 0.42812,7.751785 0.0139,13.18758 -1.41992,18.664062 -1.6256,6.2089 -1.729,8.371201 -0.53125,10.999998 1.85218,4.0651 2.48684,2.98652 5.41211,-9.187498 3.07381,-12.792251 1.60342,-31.414062 -2.48047,-31.414062 z m 51.90039,0 c -1.27367,0 -5.04883,11.384957 -5.04883,15.226562 0,1.25022 0.5625,2.273438 1.25,2.273438 0.6875,0 1.25913,-0.984375 1.26953,-2.1875 0.0104,-1.203125 0.8296,-4.4375 1.82031,-7.1875 2.14465,-5.953004 2.33383,-8.125 0.70899,-8.125 z m 9.08203,1.132812 c -0.76422,0.172197 -0.5953,4.002325 1.10156,11.353516 1.38554,6.002512 0.39805,16.157963 -2.24023,23.033203 -0.35006,0.912268 0.28049,2.573465 1.40039,3.693359 1.11989,1.1199 2.23858,2.03711 2.48633,2.03711 0.24774,0 1.40411,-4.289443 2.57031,-9.53125 2.09423,-9.413156 2.08398,-9.659526 -0.81641,-20 -2.04022,-7.273823 -3.73773,-10.758134 -4.50195,-10.585938 z M 319.22765,81.27541 c -2.30574,0 -2.63937,3.024975 -1.1836,10.740234 1.23178,6.528203 1.84524,7.804343 3.20508,6.675782 1.39916,-1.161197 1.3472,-1.904589 -0.30859,-4.431641 -1.35505,-2.06794 -1.77655,-4.624824 -1.32227,-8.011719 0.3669,-2.73549 0.19089,-4.972656 -0.39062,-4.972656 z m -58.90039,5.056641 c -1.93879,0.06467 -3.84674,0.665086 -4.76172,1.767578 -1.94951,2.349019 -0.54612,9.003845 2.24219,10.630859 2.96898,1.732442 3.65581,1.603942 6.46484,-1.205078 2.79681,-2.796809 3.27647,-7.473528 1,-9.75 -1.03737,-1.037369 -3.00652,-1.508029 -4.94531,-1.443359 z m -82.51953,6.193359 c -3.90467,0 -7.28516,3.570138 -7.28516,7.69336 0,3.06162 0.48681,3.55664 3.5,3.55664 4.60256,0 6.5,-2.07988 6.5,-7.125 0,-3.40012 -0.47771,-4.125 -2.71484,-4.125 z m 18.43164,0 c -1.08165,0 -1.9668,0.235917 -1.9668,0.523438 0,0.28752 -0.36258,1.469745 -0.80664,2.626953 -0.60763,1.58349 -0.22591,1.991798 1.54687,1.65039 2.92405,-0.56312 4.00681,-4.800781 1.22657,-4.800781 z m 7.45508,2.826172 c -0.741,-0.04461 -4.87848,1.605604 -9.61329,3.849609 -5.05046,2.393609 -11.94155,4.823629 -15.3125,5.400389 -6.387,1.09281 -9.19742,3.642 -7.85937,7.12891 1.06055,2.76374 3.7457,2.57543 6.48828,-0.45508 1.24436,-1.375 3.45631,-2.5 4.91602,-2.5 6.78042,0 24.08807,-10.788888 21.48437,-13.392578 -0.0184,-0.01837 -0.0541,-0.02828 -0.10351,-0.03125 z m -85.14844,8.874998 c -4.23438,0.15105 -9.4663,5.67793 -6.76758,8.92969 2.16925,2.61379 4.96839,2.32871 8.35156,-0.84961 3.34144,-3.13912 3.6353,-5.11015 1.07813,-7.23242 -0.76123,-0.63176 -1.68495,-0.88252 -2.66211,-0.84766 z m 72.9082,3.23047 c -0.70647,0.0329 -2.18774,0.43989 -4.70117,1.23438 -4.34187,1.37243 -6.20159,2.62128 -6.21289,4.17187 -0.0157,2.07814 0.27334,2.06512 4.7539,-0.2207 2.62412,-1.33872 5.41979,-3.21625 6.2129,-4.17188 0.58491,-0.70478 0.65373,-1.04653 -0.0527,-1.01367 z m -86.58984,4.64844 c -0.32081,0.006 -0.6803,0.0255 -1.08594,0.0547 -4.884532,0.35121 -34.50586,15.31705 -34.50586,17.43358 0,1.93308 2.683665,2.24147 4.4375,0.50976 2.908565,-2.87187 22.8486,-10.35242 28.0625,-10.52734 5.37255,-0.18024 5.625,-0.35598 5.625,-3.93164 0,-2.93674 -0.28755,-3.5805 -2.5332,-3.53906 z m 234.25781,15.41992 c -12.19596,0 -15.27741,1.54877 -14.60547,7.34375 0.36356,3.13543 0.7122,3.28008 7.88086,3.26758 4.125,-0.007 9.26112,-0.45876 11.41406,-1.00391 l 3.91406,-0.99023 0.56055,12.2539 c 0.38838,8.49078 1.27404,13.69353 2.88086,16.94141 1.27549,2.57812 2.64587,4.6875 3.04688,4.6875 0.40101,0 0.71978,-8.76306 0.70703,-19.47461 -0.0281,-23.63118 0.38716,-23.02539 -15.79883,-23.02539 z m -91.55859,2.77539 c -2.01007,0.0709 -3.6422,0.51758 -4.42188,1.45703 -0.90904,1.0954 -1.32573,3.27364 -0.92773,4.85938 0.39679,1.58091 1.5993,10.38412 2.67187,19.5625 1.07258,9.17837 2.25045,17.17417 2.61719,17.76758 1.31549,2.12849 2.62314,1.00316 3.98242,-3.42579 0.98047,-3.19468 1.0161,-7.77446 0.125,-15.75586 -1.57764,-14.13059 -1.17374,-15.49463 3.82031,-12.91211 3.504,1.81199 3.8098,1.76566 5.64844,-0.85937 1.06895,-1.52613 1.94336,-3.48133 1.94336,-4.34375 0,-3.39412 -9.4288,-6.56236 -15.45898,-6.34961 z m 25.11132,0.97461 c -3.54638,0 -8.40234,3.28911 -8.40234,5.69141 0,0.99029 -2.07559,4.09753 -4.61133,6.90429 l -4.60937,5.10352 6.39843,12.86719 c 3.51946,7.07666 6.79382,15.04745 7.27539,17.71289 0.48158,2.66543 1.11612,5.26757 1.41016,5.7832 0.94571,1.65847 2.70008,1.001 3.33594,-1.25 2.56764,-9.08965 2.17256,-12.12607 -2.95899,-22.70898 l -5.10156,-10.51954 5.05469,-5.15234 c 4.07459,-4.1517 5.05664,-6.05139 5.05664,-9.79102 0,-3.99531 -0.39645,-4.64062 -2.84766,-4.64062 z m 44.26954,5.42578 c -0.11109,0.009 -0.17188,0.0532 -0.17188,0.13281 0,0.31836 2.8125,10.86576 6.25,23.43946 3.4375,12.57371 6.25,23.99895 6.25,25.39062 0,1.39167 1.42639,4.62946 3.16992,7.19531 1.74354,2.56584 3.99354,4.66602 5,4.66602 2.3548,0 2.31162,-0.71033 -0.55859,-9.05273 -1.9808,-5.7573 -5.78778,-25.53856 -8.54297,-44.39649 -0.46396,-3.17562 -1.32221,-4.22404 -3.89453,-4.76172 -1.81471,-0.37932 -4.28321,-1.2232 -5.48633,-1.875 -0.90235,-0.48882 -1.68237,-0.76529 -2.01562,-0.73828 z m -124.64454,1.00586 c -2.27082,-0.0337 -5.46557,0.72001 -10.15625,1.7793 l -8.68554,1.96094 -3.31055,6.75195 -3.31055,6.75 4.0293,-0.79297 c 2.21675,-0.43664 7.53152,-2.35936 11.81055,-4.27148 5.07171,-2.26631 8.06612,-3.01555 8.59961,-2.15235 1.28587,2.0806 5.45091,18.85274 5.47461,22.04492 0.0127,1.70657 1.92774,4.62717 4.70898,7.18164 7.387,6.78469 8.47181,5.52868 3.5957,-4.16211 -1.63167,-3.24278 -3.90922,-11.46736 -5.06054,-18.27734 -2.1723,-12.84884 -2.69951,-16.7383 -7.69532,-16.8125 z m -30.19726,4.92774 c -1.72628,0.0319 -3.70352,1.35746 -5.51563,3.90234 -2.45374,3.44595 -3.06724,6.66313 -4.34961,22.8125 -0.82112,10.34044 -1.87285,23.01953 -2.33593,28.17578 -0.82253,9.1585 -0.74991,9.49769 3.12304,14.6875 2.18049,2.92187 4.47744,5.3125 5.10547,5.3125 1.41028,0 1.47236,0.54993 -0.74804,-6.76953 -2.46024,-8.10996 -0.66605,-23.30364 5.15624,-43.65625 4.58316,-16.02106 4.90821,-18.47761 2.93946,-22.15625 -0.84323,-1.57558 -2.03234,-2.33342 -3.375,-2.30859 z m -67.777346,6.21484 c -1.432053,0.0114 -2.816708,0.61424 -3.804687,1.80469 -2.763472,3.32979 -0.286222,9.17241 8.099609,19.10351 4.478004,5.30318 7.896144,10.20508 7.595704,10.89258 -0.30044,0.6875 -3.12519,7.39509 -6.277344,14.90625 l -5.732422,13.65625 4.029297,4.15625 c 2.267639,2.3396 5.286969,4.15625 6.908199,4.15625 3.70648,0 3.6394,-1.34978 -0.24609,-5 -1.71875,-1.61469 -3.125,-3.97258 -3.125,-5.24023 0,-1.26765 2.85448,-7.99411 6.34375,-14.94727 7.38034,-14.70703 7.37216,-14.93803 -1.01367,-28.44141 -3.16089,-5.08985 -5.7461,-10.01172 -5.7461,-10.9375 0,-0.92576 -0.25539,-1.42819 -0.5664,-1.11718 -0.31102,0.31102 -1.38235,-0.25148 -2.380861,-1.25 -1.173286,-1.1733 -2.651931,-1.75355 -4.083985,-1.74219 z m -2.714843,14.30078 0.796875,7.54102 0.796875,7.54101 -12.84961,6.20899 c -13.638952,6.59065 -12.800721,5.69348 -16.613281,17.77148 -1.34046,4.24651 0.671178,3.41314 6.777344,-2.80859 4.015051,-4.09103 8.522584,-6.86835 16.558594,-10.19922 6.073124,-2.51728 11.282401,-4.96338 11.574218,-5.43555 0.291818,-0.47218 0.840353,-3.05386 1.220703,-5.73828 0.610871,-4.31142 0.169431,-5.46413 -3.785156,-9.88086 l -4.476562,-5 z m 311.695309,53.57031 c 3.38332,0.91146 6.7517,1.01608 7.16211,0 l -7.16211,0 z"
     style="fill:#fefefe"
     inkscape:connector-curvature="0" />
  <path
     id="path3454"
     d="m 325.77257,97.52541 c -4.44684,0 -5.57921,2.99955 -4.64453,12.30664 0.73863,7.35501 0.4831,9.35695 -1.74609,13.72656 -2.93641,5.75581 -3.33498,10.2412 -1.10938,12.4668 2.48048,2.48048 4.75,1.70406 4.75,-1.625 0,-3.69256 4.01829,-8.125 7.36523,-8.125 2.66145,0 3.32389,-1.93409 4.58789,-13.37891 0.82595,-7.47848 0.7203,-7.88908 -2.95312,-11.5625 -2.09476,-2.094762 -4.9063,-3.80859 -6.25,-3.80859 z m -61.0957,1.992188 c -0.46125,-0.04141 -0.96755,0.139203 -1.60157,0.478515 -1.30452,0.698157 -3.21933,0.944627 -4.25585,0.546877 -2.4007,-0.921233 -5.23894,7.80692 -4.0625,12.49414 0.69395,2.76494 1.49451,3.2353 5.47656,3.2207 10.89075,-0.0399 12.66877,-2.91888 7.75195,-12.55664 -1.49227,-2.9251 -2.29384,-4.092493 -3.30859,-4.183592 z m -94.11914,5.507812 c -2.27288,0 -6.08129,9.43747 -8.09571,20.05664 -1.24865,6.58235 -3.15313,12.18691 -5.09179,14.98438 -3.74034,5.39731 -4.16392,9.14993 -0.50782,4.50195 3.43478,-4.36661 7.00971,-4.2019 9.65625,0.44531 l 2.12891,3.74024 1.43164,-3.42774 c 2.2355,-5.35227 8.10055,-25.44736 8.84375,-30.30078 0.6681,-4.36294 0.66295,-4.36781 -1.94336,-2.03516 -4.436,3.97022 -9.80108,-0.57641 -6.64453,-5.63086 0.86644,-1.38738 0.95675,-2.33398 0.22266,-2.33398 z m -61.56055,7 c -0.39432,-0.0119 -0.34938,0.70691 -0.0312,2.37109 0.82715,4.32699 -1.68198,6.9118 -6.36133,6.55274 -3.846189,-0.29513 -3.89362,-0.22433 -4.833983,7.05859 -0.572694,4.43539 -2.449372,10.01147 -4.724609,14.04297 -2.075599,3.67775 -3.773438,6.9818 -3.773438,7.3418 0,0.35999 1.084144,-0.0227 2.408203,-0.84961 1.880436,-1.17436 3.145662,-1.16553 5.785156,0.0371 1.858532,0.8468 3.522951,1.37729 3.697271,1.17969 0.17431,-0.19761 2.43255,-4.57812 5.01953,-9.73437 5.43333,-10.82948 7.44527,-24.40423 4.03515,-27.23438 -0.58833,-0.48827 -0.98411,-0.75846 -1.2207,-0.76562 z m 159.77734,5.98242 c -0.1458,0.002 -0.29338,0.0323 -0.44336,0.0898 -0.97011,0.37227 -4.29852,0.67773 -7.39648,0.67773 l -5.63281,0 0.86914,5.3125 c 0.57624,3.52723 1.96977,6.21182 4.14844,7.98828 3.23267,2.63588 3.32555,2.64052 6.28515,0.3125 1.6523,-1.2997 4.10183,-2.36328 5.44141,-2.36328 1.46071,0 2.17571,-0.62541 1.78711,-1.5625 -0.35638,-0.85937 -1.34382,-3.69609 -2.19336,-6.30273 -0.91934,-2.82084 -1.84459,-4.16806 -2.86524,-4.15235 z"
     style="fill:#fefe00"
     inkscape:connector-curvature="0" />
  <path
     inkscape:connector-curvature="0"
     id="path3452"
     d="m 234.53387,118.79486 c -8.2122,-1.94569 -11.29274,-7.56731 -6.51571,-11.89046 1.92765,-1.7445 2.17158,-2.64886 1.07187,-3.97394 -0.78305,-0.9435 -1.18477,-1.9544 -0.89275,-2.24643 0.5237,-0.5237 11.20535,1.79897 12.22605,2.65849 0.28918,0.24351 -0.79326,1.84678 -2.40539,3.56282 -3.42443,3.64514 -6.53556,4.1817 -5.4073,0.93257 0.58562,-1.68642 0.0755,-1.52581 -2.22672,0.70115 l -2.98635,2.88865 2.8449,2.33795 c 3.2533,2.67358 14.4075,4.42459 20.15035,3.16325 2.24333,-0.49272 3.87975,-0.34451 3.87975,0.35139 0,2.61916 -11.3883,3.49299 -19.7387,1.51456 z m 20.9887,-1.26945 c 0,-0.6875 2.24409,-1.25 4.98685,-1.25 7.05066,0 20.51086,-5.6337 22.54609,-9.43655 1.55506,-2.90566 3.72425,-4.14839 3.71085,-2.12595 -0.0188,2.8397 -6.56942,8.33109 -13.11879,10.99749 -7.55413,3.07547 -18.125,4.13402 -18.125,1.81501 z"
     style="fill:#fe0000" />
  <path
     id="path3450"
     d="m 300.78819,35.058613 c -0.77511,-0.03772 -1.60445,0.193021 -2.45312,0.724609 -2.63135,1.648221 -3.61768,9.891665 -1.49023,12.455079 0.81604,0.983271 2.47109,1.787109 3.67773,1.787109 3.3919,0 5.19939,-3.119348 4.76758,-8.224609 -0.34659,-4.09757 -2.17661,-6.629039 -4.50196,-6.742188 z m -11.24023,0.109375 c -4.5918,0.196966 -6.91914,6.951675 -3.94141,12.515625 1.59108,2.972967 5.90872,2.715833 7.90625,-0.470703 1.83258,-2.9234 -0.51341,-6.597545 -4.125,-6.458984 -1.47569,0.05662 -2.467,-0.505883 -2.20117,-1.25 0.26584,-0.744115 2.00644,-1.243044 3.86719,-1.107422 4.20878,0.306757 3.70562,-2.555907 -0.55859,-3.177735 -0.32537,-0.04744 -0.64115,-0.06391 -0.94727,-0.05078 z m 21.45508,0.04492 c -2.21143,-0.05296 -3.55836,2.750909 -2.49219,5.529297 1.19216,3.106748 5.13672,1.596487 5.13672,-1.966797 0,-1.951796 -0.80763,-3.247179 -2.19141,-3.513672 -0.15464,-0.02978 -0.30569,-0.0453 -0.45312,-0.04883 z m -32.52539,0.02539 c -1.62781,0.0073 -3.36961,0.654515 -4.15235,1.597656 -1.41049,1.699529 -1.12829,1.842849 2.29493,1.158203 2.51987,-0.503972 3.90234,-0.283039 3.90234,0.625 0,0.773437 -0.84375,1.40625 -1.875,1.40625 -2.49032,0 -2.37048,1.232628 0.3125,3.214844 1.71211,1.264934 1.85921,1.950015 0.67773,3.148437 -1.19083,1.207915 -1.92201,1.188307 -3.46679,-0.09375 -2.51417,-2.086577 -4.00039,-0.675943 -1.92383,1.826172 1.91773,2.310709 5.49499,2.474519 7.27148,0.333985 0.71674,-0.863619 1.20868,-4.097994 1.0918,-7.1875 -0.19097,-5.045585 -0.54225,-5.654727 -3.44531,-5.992188 -0.22476,-0.02613 -0.45496,-0.03816 -0.6875,-0.03711 z m 32.6289,1.615234 c 0.0754,0.02808 0.15746,0.144531 0.24414,0.359375 0.34677,0.859375 0.34677,2.265625 0,3.125 -0.34676,0.859375 -0.63085,0.15625 -0.63085,-1.5625 0,-1.289062 0.16063,-2.006104 0.38671,-1.921875 z m -10.58398,1.296878 c 1.30081,0 1.875,1.30852 1.875,4.271484 0,4.432142 -2.57979,6.72785 -3.84766,3.423828 -1.19964,-3.126205 -0.0286,-7.695312 1.97266,-7.695312 z m -11.14258,4.660156 c 0.34892,-0.01425 0.70226,0.0689 1.0332,0.273438 0.74741,0.461921 1.35938,1.649949 1.35938,2.640625 0,2.104525 -3.21615,2.423932 -4.44141,0.441406 -0.88631,-1.434084 0.53685,-3.293734 2.04883,-3.355469 z m -36.11328,16.101563 c -1.99545,0.21535 -3.11384,3.446641 -5.44141,13.701172 l -2.68359,11.824218 3.42578,9.982422 c 1.88407,5.489682 4.18187,14.761719 5.10742,20.605469 2.51702,15.89182 2.681,15.1624 -3.18359,14.22461 -6.6478,-1.06303 -10.52781,2.0406 -9.42773,7.54101 0.40679,2.03392 1.59758,11.04741 2.64648,20.0293 2.38023,20.38229 5.32506,24.75838 9.08398,13.4961 0.94108,-2.81964 0.99842,-7.27174 0.18164,-14.375 -1.73956,-15.12859 -1.77865,-14.87519 1.92969,-13.18555 2.98191,1.35865 3.03086,1.54284 0.99805,3.78906 -2.03369,2.24722 -1.82895,2.97972 4.2793,15.26172 3.52892,7.09565 6.81009,15.08261 7.29101,17.74805 0.48093,2.66543 1.43321,5.54882 2.11524,6.4082 2.82612,3.56094 5.12961,0.53669 6.42968,-8.44141 0.71393,-4.93035 0.18367,-6.93185 -4.27148,-16.14453 l -5.08594,-10.51758 5.05469,-5.15234 c 6.06581,-6.1806 6.321,-8.95082 1.95312,-21.30664 -1.70125,-4.8125 -3.10659,-7.74669 -3.12109,-6.52148 -0.0145,1.22521 0.81836,4.24671 1.84961,6.71484 2.33508,5.58861 2.3476,5.43164 -0.45703,5.43164 -1.28229,0 -3.68364,1.06358 -5.33594,2.36328 -2.95951,2.32795 -3.0532,2.3233 -6.32812,-0.3125 -2.82983,-2.27758 -3.53362,-4.22182 -4.73438,-13.06836 -1.58572,-11.68275 -0.13036,-19.771406 3.32031,-18.44726 1.01217,0.38841 2.90547,0.13603 4.20704,-0.56055 1.98866,-1.064303 2.70667,-0.615129 4.49414,2.81641 1.16989,2.24592 2.5389,5.77148 3.04101,7.83398 0.89085,3.65931 0.91419,3.63483 1.03906,-1.04102 0.0704,-2.63545 1.31466,-9.38545 2.76368,-14.999996 2.05727,-7.971404 2.47728,-12.333229 1.91406,-19.90625 -0.80403,-10.810996 -2.4341,-15.029187 -5.57031,-14.417968 -1.83147,0.356935 -2.04494,1.916659 -1.64649,12.074218 l 0.45899,11.664063 -3.27149,-2.142578 c -4.00924,-2.626954 -4.13109,-4.104742 -0.45703,-5.521485 2.51241,-0.968803 2.57769,-1.17758 0.60938,-1.972656 -2.35689,-0.952034 -5.92188,1.240314 -5.92188,3.642578 0,0.796344 -1.74706,2.107907 -3.88281,2.914063 l -3.88281,1.464843 0.88085,-5.878906 c 0.48485,-3.233556 1.38817,-6.826446 2.00782,-7.984375 1.77977,-3.325861 1.31727,-8.524845 -0.83203,-9.349609 -0.57955,-0.222391 -1.08639,-0.332899 -1.54688,-0.283203 z m 0.60742,1.113281 c 2.06059,0 2.0481,0.20226 -1.05664,16.029297 -1.34851,6.874318 -1.26269,9.026585 0.66602,16.513672 1.44597,5.613058 1.8218,9.317591 1.07812,10.646481 -1.2957,2.3153 -2.22603,0.44901 -6.02734,-12.115231 -2.06954,-6.840313 -2.04966,-7.41175 0.64258,-19.0625 2.02642,-8.769383 3.29413,-12.011719 4.69726,-12.011719 z m 69.53125,0.04102 c -0.41674,-0.0179 -0.91628,0.140165 -1.49219,0.496093 -1.54809,0.956768 -5.14062,12.416457 -5.14062,16.396481 0,1.501252 -1.125,4.160173 -2.5,5.908203 -2.97294,3.779475 -3.18742,5.188983 -0.63867,4.210937 1.28391,-0.492686 2.10084,0.340148 2.62695,2.679688 0.4197,1.866359 1.22947,5.361328 1.80078,7.767578 0.57133,2.40625 1.4154,8.08368 1.875,12.61719 0.70669,6.97064 0.43063,9.03773 -1.78906,13.38867 -1.44361,2.82973 -2.625,7.1093 -2.625,9.51172 0,2.40241 2.8125,14.65677 6.25,27.23047 3.4375,12.57371 6.25,24.04603 6.25,25.49414 0,1.44812 1.691,4.96716 3.75781,7.82031 3.67995,5.08003 6.55627,6.46228 8.13477,3.9082 0.43496,-0.70377 -0.36169,-4.7819 -1.77149,-9.0625 -2.12188,-6.44266 -5.76044,-25.27792 -8.53125,-44.1582 -0.56557,-3.85365 -0.53195,-3.88119 6.10743,-4.58594 3.67261,-0.38984 7.59358,-1.06996 8.71289,-1.51172 1.7703,-0.6987 2.10707,0.71054 2.58203,10.83399 0.41503,8.84606 1.21655,12.93291 3.34375,17.0332 4.64584,8.95512 5.65422,6.44043 5.9082,-14.73828 0.22296,-18.59197 0.13995,-19.26043 -2.70117,-22.10156 -2.48596,-2.48596 -4.18873,-2.92969 -11.24609,-2.92969 -7.99935,0 -8.29204,-0.10753 -7.61915,-2.8125 0.3848,-1.54687 1.04112,-6.75 1.45704,-11.5625 0.4159,-4.8125 1.62007,-13.53125 2.67578,-19.375 1.8868,-10.444103 1.86688,-10.795256 -1.14844,-20.625 -4.50584,-14.688723 -8.72599,-12.266064 -5.44336,3.125 l 0.93359,4.375 -5.70117,0.0332 c -6.62682,0.03847 -6.92143,-0.833728 -3.65625,-10.816406 1.66037,-5.076313 1.39377,-8.473232 -0.41211,-8.550781 z m -52.23437,1.20898 c 4.08389,0 5.55428,18.621812 2.48047,31.414062 -2.92527,12.174018 -3.55993,13.252598 -5.41211,9.187498 -1.19775,-2.628798 -1.09435,-4.791098 0.53125,-10.999998 1.43384,-5.476482 1.84804,-10.912277 1.41992,-18.664062 -0.45921,-8.314766 -0.22394,-10.9375 0.98047,-10.9375 z m 51.90039,0 c 1.62484,0 1.43566,2.171996 -0.70899,8.125 -0.99071,2.75 -1.81031,5.984375 -1.82031,7.1875 -0.0103,1.203125 -0.58203,2.1875 -1.26953,2.1875 -0.6875,0 -1.25,-1.023218 -1.25,-2.273438 0,-3.841605 3.77516,-15.226562 5.04883,-15.226562 z m 9.08203,1.132812 c 0.76422,-0.172197 2.46173,3.312115 4.50195,10.585938 2.90039,10.340474 2.91063,10.586844 0.81641,20 -1.16621,5.241807 -2.32257,9.53125 -2.57031,9.53125 -1.47349,0 -4.41921,-4.342812 -3.88672,-5.730469 2.63828,-6.87524 3.62577,-17.030691 2.24023,-23.033203 -1.69686,-7.351191 -1.86578,-11.181318 -1.10156,-11.353516 z M 319.11437,81.27541 c 0.64365,0 0.8708,2.237166 0.5039,4.972656 -0.45066,3.359886 -0.0332,5.941936 1.28711,7.957032 1.52287,2.324214 1.62656,3.366142 0.47266,4.714843 -1.22516,1.431969 -1.16741,1.460589 0.33203,0.167969 2.94039,-2.534821 6.25323,-1.813181 10.3125,2.24609 3.67342,3.67342 3.77907,4.08402 2.95312,11.5625 -1.26399,11.44482 -1.92644,13.37891 -4.58789,13.37891 -3.34694,0 -7.36523,4.43244 -7.36523,8.125 0,3.32906 -2.26953,4.10548 -4.75,1.625 -2.23131,-2.23131 -1.82427,-6.71355 1.13672,-12.51758 2.95033,-5.7831 2.73978,-12.44677 -0.93164,-29.433592 -1.91657,-8.867501 -1.7213,-12.798828 0.63672,-12.798828 z m -58.78711,5.056641 c 1.93879,-0.06467 3.90794,0.40599 4.94531,1.443359 2.27647,2.276473 1.79681,6.953191 -1,9.75 -2.80903,2.80902 -3.49586,2.93752 -6.46484,1.205078 -2.78831,-1.627014 -4.1917,-8.28184 -2.24219,-10.630859 0.91498,-1.102492 2.82293,-1.702909 4.76172,-1.767578 z m -89.33985,0.169921 c -0.56868,-0.006 -1.16351,-0.0015 -1.78515,0.01563 -6.44682,0.177675 -7.97186,0.676649 -10.01758,3.277343 -2.62042,3.331331 -3.14809,7.12807 -1.16211,8.355469 0.6875,0.424899 1.25,-0.322699 1.25,-1.662109 0,-1.33941 1.07163,-3.75818 2.38086,-5.375 l 2.38086,-2.939453 -0.65234,5.779296 c -0.53726,4.766589 -0.18429,6.247362 2.01171,8.443362 2.66201,2.66201 2.66258,2.66401 0.23829,7.41601 -1.33382,2.61449 -3.32283,9.48612 -4.41993,15.26953 -1.24465,6.5613 -3.15441,12.18697 -5.07812,14.96289 -2.77365,4.00236 -3.26634,6.7025 -4.90625,26.9082 -1.00255,12.3526 -2.21362,26.27595 -2.69141,30.93946 -0.83753,8.17493 -0.72479,8.67958 3.13672,14.05664 l 4.00586,5.57617 -22.5957,0 -22.59571,0 -3.69531,-4.0625 c -2.03265,-2.23438 -3.71227,-5.05783 -3.73242,-6.27344 -0.0202,-1.21561 2.81737,-7.89838 6.30664,-14.85156 7.35761,-14.66176 7.34933,-14.97553 -0.80469,-28.10742 -3.0463,-4.90601 -5.53906,-10.40447 -5.53906,-12.21875 0,-1.81426 2.03176,-7.33335 4.51563,-12.26563 3.02302,-6.00292 4.7337,-11.36504 5.17382,-16.21875 0.49393,-5.44712 1.14202,-7.25195 2.60352,-7.25195 1.07002,0 3.52293,-1.51201 5.45117,-3.35938 7.45647,-7.14375 2.4036,-19.053168 -7.4082,-17.460932 -2.222,0.36058 -4.3648,0.130513 -4.76172,-0.511719 -1.31469,-2.127205 -5.09734,-1.21341 -8.07031,1.951172 -3.81559,4.061509 -2.18977,5.695839 1.87109,1.880859 3.72943,-3.50362 4.91501,-2.831688 3.1582,1.78906 -0.70786,1.86181 -0.97347,4.6356 -0.58984,6.16406 0.60895,2.42627 -0.22391,3.15127 -6.560548,5.70899 -12.24526,4.94269 -30.382812,15.14343 -30.382812,17.08789 0,2.41027 3.359429,3.6311 5.378906,1.95508 1.560655,-1.29523 21.66857,-10.20508 23.03125,-10.20508 2.079983,0 -1.153115,14.60461 -4.576172,20.66992 -3.895388,6.90225 -4.694563,11.84822 -2.757812,17.06055 0.591404,1.59163 1.464839,6.42834 1.941406,10.74805 l 0.865234,7.85546 -11.636718,5.4004 c -6.400652,2.97073 -12.25824,6.18693 -13.015625,7.14648 -0.757385,0.95955 -2.303044,4.52453 -3.435547,7.92383 -3.047287,9.14669 -0.94187,9.87358 6.982422,2.41015 4.708878,-4.43502 9.534481,-7.39226 16.855468,-10.33203 11.161754,-4.48206 12.095244,-5.2246 13.392578,-10.64062 0.78147,-3.26242 1.06558,-3.43637 2.78516,-1.7168 1.70162,1.70162 1.70804,2.31277 0.0586,5.50586 -1.02079,1.9761 -3.88509,8.62812 -6.365238,14.78125 l -4.509765,11.1875 3.978515,4.10547 3.978518,4.10351 -34.289065,0.35352 c -18.858311,0.19467 63.869145,0.35542 183.837895,0.35742 119.96875,0.002 205.32812,-0.15712 189.6875,-0.35547 -13.88506,-0.17609 -23.30461,-0.58063 -26.83203,-1.11914 l -2.88672,0 c -0.30166,1.34454 -3.50426,1.05712 -6.94141,0 l -10.03711,0 c -10.12097,0.59974 -39.45562,0.72345 -112.64257,0.75391 l -120.27735,0.0508 -1.91601,-6.58594 c -1.69446,-5.82872 -1.70787,-8.09303 -0.12891,-19.6875 1.9485,-14.30812 7.32386,-33.63319 9.79297,-35.20117 0.85565,-0.54336 2.48792,-0.99586 3.62695,-1.00586 1.13904,-0.0105 5.76711,-1.67687 10.28321,-3.70312 l 8.21093,-3.6836 1.4043,5.21875 c 0.77293,2.87043 2.16858,8.86697 3.10156,13.32617 1.4282,6.82609 2.44567,8.74924 6.4375,12.16797 2.6077,2.2333 5.18155,4.08172 5.71875,4.10742 2.38892,0.11481 2.07801,-3.92934 -0.73242,-9.51367 -1.69216,-3.36235 -3.99077,-11.63353 -5.1582,-18.56445 -2.26344,-13.43783 -4.37391,-18.125 -8.16211,-18.125 -1.31649,0 -6.1519,0.87054 -10.74414,1.93555 -4.59224,1.065 -8.54354,1.74358 -8.78125,1.50586 -0.51084,-0.51084 2.38235,-10.5938 5.20898,-18.15625 1.36448,-3.6506 3.24328,-5.97529 5.94336,-7.35352 2.17192,-1.10864 6.28377,-4.05102 9.13672,-6.53711 2.85296,-2.48609 6.40935,-5.36328 7.90234,-6.39453 3.57359,-2.468381 4.06273,-6.954399 0.72657,-6.660156 -1.33855,0.118058 -3.08642,-0.676487 -3.88282,-1.765625 -2.06574,-2.825067 -5.46986,-1.076482 -6.33593,3.253906 -0.7263,3.631497 -4.62835,6.421875 -8.97852,6.421875 -1.75978,0 -2.05989,-0.97316 -1.69922,-5.507812 0.60896,-7.656818 -2.04984,-10.425317 -10.58008,-10.515626 z m 6.82032,6.023438 c 2.23713,0 2.71484,0.72488 2.71484,4.125 0,2.26875 -0.675,4.8 -1.5,5.625 -0.825,0.825 -3.075,1.5 -5,1.5 -3.01319,0 -3.5,-0.49502 -3.5,-3.55664 0,-4.123222 3.38049,-7.69336 7.28516,-7.69336 z m 18.43164,0 c 1.19521,0 1.80317,0.853129 1.54882,2.173828 -0.23017,1.195231 -1.47985,2.377454 -2.77539,2.626953 -1.77278,0.341407 -2.1545,-0.0669 -1.54687,-1.65039 0.44406,-1.157208 0.80664,-2.339433 0.80664,-2.626953 0,-0.287522 0.88515,-0.523438 1.9668,-0.523438 z m 7.45508,2.826172 c 0.0494,0.003 0.0851,0.01288 0.10351,0.03125 2.60369,2.60369 -14.70395,13.392578 -21.48437,13.392578 -1.45971,0 -3.67166,1.125 -4.91602,2.5 -2.74258,3.03051 -5.42773,3.21882 -6.48828,0.45508 -1.33805,-3.48691 1.47237,-6.0361 7.85937,-7.12891 3.37095,-0.57676 10.26204,-3.00678 15.3125,-5.400389 4.73482,-2.244005 8.87228,-3.894222 9.61329,-3.849609 z m -85.14844,8.874998 c 0.97716,-0.0349 1.90088,0.2159 2.66211,0.84766 2.55718,2.12227 2.26331,4.0933 -1.07813,7.23242 -3.38318,3.17832 -6.18231,3.4634 -8.35156,0.84961 -2.69872,-3.25176 2.5332,-8.77864 6.76758,-8.92969 z m 52.01172,0.79883 c 0.73409,0 0.64378,0.9466 -0.22266,2.33398 -3.15655,5.05445 2.20853,9.60108 6.64453,5.63086 2.60631,-2.33265 2.61146,-2.32778 1.94336,2.03516 -0.36847,2.40625 -2.18674,9.4375 -4.04101,15.625 -1.85431,6.1875 -4.01559,12.79117 -4.80274,14.67578 l -1.43164,3.42774 -2.12891,-3.74024 c -2.64654,-4.64721 -6.22147,-4.81192 -9.65625,-0.44531 -3.6561,4.64798 -3.23252,0.89536 0.50782,-4.50195 1.93866,-2.79747 3.84314,-8.40203 5.09179,-14.98438 2.01442,-10.61917 5.82283,-20.05664 8.09571,-20.05664 z m 20.89648,2.43164 c 0.70647,-0.0329 0.63764,0.30889 0.0527,1.01367 -0.7931,0.95563 -3.58878,2.83315 -6.2129,4.17188 -4.48056,2.28581 -4.7696,2.29883 -4.7539,0.2207 0.0117,-1.5506 1.87102,-2.79944 6.21289,-4.17187 2.51343,-0.79449 3.9947,-1.20152 4.70117,-1.23438 z m -84.38477,4.2832 c 1.73486,0.0395 1.62772,0.80586 1.03516,3.70313 -0.75254,3.6795 -1.18555,3.96009 -6.38281,4.13476 -5.164842,0.17358 -25.12281,7.67294 -28.01172,10.52539 -1.753835,1.73171 -4.4375,1.42332 -4.4375,-0.50976 0,-2.21874 29.949105,-17.19667 35.39844,-17.70313 1.03786,-0.0965 1.82015,-0.16355 2.39844,-0.15039 z m 3.01172,1.3418 c 0.17371,-0.0268 0.37413,0.0259 0.59766,0.16406 0.91506,0.56555 1.19637,3.75521 0.80664,9.13672 -0.45425,6.27238 -1.73419,10.52991 -5.30273,17.64258 -2.58698,5.15625 -4.84522,9.53677 -5.01954,9.73438 -0.17431,0.1976 -1.838729,-0.33289 -3.697261,-1.17969 -2.639494,-1.20262 -3.90472,-1.21146 -5.785156,-0.0371 -3.200247,1.99859 -3.067419,1.36203 1.365235,-6.49219 2.274738,-4.03061 4.151744,-9.60855 4.724609,-14.04297 0.924951,-7.1598 1.048324,-7.3506 4.589843,-7.08984 4.54296,0.33449 6.91211,-1.54853 6.91211,-5.49415 0,-1.45289 0.28748,-2.26129 0.80859,-2.3418 z m 229.04102,14.44336 c 16.18599,0 15.77075,-0.60579 15.79883,23.02539 0.0127,10.71155 -0.30602,19.47461 -0.70703,19.47461 -0.40101,0 -1.77139,-2.10938 -3.04688,-4.6875 -1.60682,-3.24788 -2.49249,-8.45064 -2.88086,-16.94141 l -0.56055,-12.2539 -3.91406,0.99023 c -2.15294,0.54515 -7.28906,0.99691 -11.41406,1.00391 -7.16866,0.0125 -7.5173,-0.13215 -7.88086,-3.26758 -0.67194,-5.79498 2.40951,-7.34375 14.60547,-7.34375 z m -91.625,2.85156 c 1.04962,-0.0297 2.24725,0.0439 3.5957,0.22071 6.7597,0.88622 11.92969,3.50916 11.92969,6.05273 0,0.86242 -0.87441,2.81762 -1.94336,4.34375 -1.83864,2.62503 -2.14444,2.67137 -5.64844,0.85937 -4.99405,-2.58252 -5.39795,-1.21848 -3.82031,12.91211 0.8911,7.9814 0.85547,12.56118 -0.125,15.75586 -1.35928,4.42895 -2.66694,5.55429 -3.98242,3.42579 -0.36674,-0.5934 -1.54461,-8.58921 -2.61719,-17.76758 -1.07257,-9.17838 -2.27508,-17.98159 -2.67187,-19.5625 -1.01397,-4.04 0.73484,-6.11141 5.2832,-6.24024 z m 25.17773,0.89844 c 2.45121,0 2.84766,0.64531 2.84766,4.64062 0,3.73963 -0.98205,5.63932 -5.05664,9.79102 l -5.05469,5.15234 5.10156,10.51954 c 5.13155,10.58291 5.52663,13.61933 2.95899,22.70898 -0.63586,2.251 -2.39023,2.90847 -3.33594,1.25 -0.29404,-0.51563 -0.92858,-3.11777 -1.41016,-5.7832 -0.48158,-2.66544 -3.75593,-10.63623 -7.27539,-17.71289 l -6.39843,-12.86719 4.60937,-5.10352 c 2.53574,-2.80676 4.61133,-5.914 4.61133,-6.90429 0,-2.4023 4.85596,-5.69141 8.40234,-5.69141 z m 44.26954,5.42578 c 0.33325,-0.027 1.11327,0.24943 2.01562,0.73828 1.20312,0.6518 3.67162,1.49568 5.48633,1.875 2.57232,0.53768 3.43057,1.5861 3.89453,4.76172 2.75519,18.85793 6.56217,38.63919 8.54297,44.39649 1.31409,3.81945 2.38867,7.41816 2.38867,7.99804 0,0.57987 -0.82362,1.05469 -1.83008,1.05469 -2.31495,0 -8.16992,-8.50067 -8.16992,-11.86133 0,-1.39167 -2.8125,-12.81691 -6.25,-25.39062 -3.4375,-12.5737 -6.25,-23.1211 -6.25,-23.43946 0,-0.0796 0.0608,-0.1238 0.17188,-0.13281 z m -124.64454,1.00586 c 4.99581,0.0742 5.52302,3.96366 7.69532,16.8125 1.15132,6.80997 3.42887,15.03457 5.06054,18.27734 1.63166,3.24276 2.9668,6.47714 2.9668,7.1875 0,2.2188 -1.71166,1.42993 -6.5625,-3.02539 -2.78124,-2.55447 -4.69618,-5.47508 -4.70898,-7.18164 -0.0238,-3.19219 -4.18874,-19.96432 -5.47461,-22.04492 -0.53349,-0.8632 -3.5279,-0.114 -8.59961,2.15235 -4.27903,1.91212 -9.5938,3.83483 -11.81055,4.27148 l -4.0293,0.79297 3.31055,-6.75 3.31055,-6.75195 8.68554,-1.96094 c 4.69068,-1.05929 7.88543,-1.81303 10.15625,-1.7793 z m -30.19726,4.92774 c 1.34266,-0.0248 2.53177,0.73301 3.375,2.30859 1.96875,3.67864 1.6437,6.13519 -2.93946,22.15625 -5.82228,20.35261 -7.61647,35.54629 -5.15624,43.65625 1.02524,3.37969 1.86895,6.28515 1.87695,6.45703 0.007,0.17187 -0.50089,0.3125 -1.12891,0.3125 -0.62803,0 -2.92498,-2.39063 -5.10547,-5.3125 -3.87295,-5.18981 -3.94557,-5.529 -3.12304,-14.6875 0.46308,-5.15625 1.51481,-17.83534 2.33593,-28.17578 1.28237,-16.14937 1.89587,-19.36655 4.34961,-22.8125 1.81211,-2.54488 3.78935,-3.87043 5.51563,-3.90234 z m -68.164064,6.22851 c 2.97824,-0.0574 6.306214,3.70247 11.800784,12.68945 3.89999,6.37887 7.45759,13.07115 7.90625,14.8711 0.61857,2.4816 -0.71861,6.32762 -5.5293,15.91406 -3.48927,6.95318 -6.34375,13.67962 -6.34375,14.94727 0,1.26765 1.40625,3.62554 3.125,5.24023 1.71875,1.61469 3.125,3.4011 3.125,3.96875 0,2.60476 -6.13176,0.64636 -9.787109,-3.125 l -4.029297,-4.15625 5.732422,-13.65625 c 3.152154,-7.51116 5.976904,-14.21875 6.277344,-14.90625 0.30044,-0.6875 -3.14482,-5.62194 -7.656251,-10.96484 -8.807912,-10.43123 -11.169244,-16.54186 -7.550781,-19.54493 0.982499,-0.8154 1.936941,-1.25819 2.929688,-1.27734 z m -2.328125,14.28711 4.476562,5 c 3.954587,4.41673 4.396027,5.56944 3.785156,9.88086 -0.38035,2.68442 -0.928885,5.2661 -1.220703,5.73828 -0.291817,0.47217 -5.501095,2.91827 -11.574218,5.43555 -8.036009,3.33087 -12.543543,6.10819 -16.558594,10.19922 -6.106167,6.22172 -8.117804,7.0551 -6.777344,2.80859 3.81256,-12.078 2.974329,-11.18083 16.613281,-17.77148 l 12.84961,-6.20899 -0.796875,-7.54101 -0.796875,-7.54102 z"
     style="fill:#000000"
     inkscape:connector-curvature="0" />
  <path
     style="fill:#fefefe"
     d="m 395.88155,359.20429 c 0,-1.67393 9.45161,-3.60189 29.67436,-6.05307 9.42984,-1.14299 21.79335,-2.74348 27.47446,-3.55666 9.11838,-1.30517 10.58569,-1.22127 12.51662,0.71568 1.98334,1.98954 1.99936,2.53025 0.17178,5.79772 l -2.01556,3.60354 -33.91083,0.35308 c -19.9414,0.20762 -33.91083,-0.14677 -33.91083,-0.86029 z"
     id="path4349" />
  <path
     style="fill:#fefefe"
     d="m 470.177,354.99564 c 2.69245,-5.0661 3.12503,-5.33069 7.47388,-4.5716 2.5388,0.44315 8.47367,1.45628 13.18859,2.25138 4.71492,0.79511 17.62327,1.46481 28.6852,1.48821 11.06195,0.0234 20.10754,0.38824 20.10135,0.81073 -0.007,0.42251 -3.41876,1.82099 -7.58344,3.10775 -6.26518,1.93574 -12.50451,2.33536 -36.14781,2.31522 l -28.57564,-0.0243 2.85787,-5.37735 z"
     id="path4347" />
  <path
     style="fill:#fefefe"
     d="m 466.66038,318.47858 c -0.48358,-0.4851 -0.87925,-1.99324 -0.87925,-3.35144 0,-3.79913 -6.2976,-15.57901 -12.00918,-22.46357 -2.82479,-3.4049 -5.13599,-6.53046 -5.13599,-6.94564 0,-2.25222 3.67371,0.0491 10.49007,6.57103 5.83482,5.58289 8.3469,9.22521 10.55805,15.30847 1.59583,4.39039 2.57612,8.83317 2.17839,9.87283 -0.75278,1.96785 -3.67996,2.5352 -5.20209,1.00832 z"
     id="path4339" />
  <path
     style="fill:#fefefe"
     d="m 473.183,313.64698 c -1.3099,-4.89939 -0.94023,-5.91832 3.22723,-8.89507 l 4.03477,-2.88199 -0.40791,6.28562 c -0.32578,5.01974 -0.97934,6.49624 -3.24524,7.33143 -2.26873,0.83623 -2.99193,0.4675 -3.60885,-1.83999 z"
     id="path4337" />
</svg>
