<?xml version="1.0" encoding="UTF-8" standalone="no"?>
<!-- Created with Inkscape (http://www.inkscape.org/) -->

<svg
   xmlns:dc="http://purl.org/dc/elements/1.1/"
   xmlns:cc="http://creativecommons.org/ns#"
   xmlns:rdf="http://www.w3.org/1999/02/22-rdf-syntax-ns#"
   xmlns:svg="http://www.w3.org/2000/svg"
   xmlns="http://www.w3.org/2000/svg"
   xmlns:sodipodi="http://sodipodi.sourceforge.net/DTD/sodipodi-0.dtd"
   xmlns:inkscape="http://www.inkscape.org/namespaces/inkscape"
   id="svg3466"
   version="1.1"
   inkscape:version="0.91 r13725"
   width="513.08411"
   height="203.4375"
   viewBox="0 0 513.08411 203.4375"
   sodipodi:docname="fx120203.svg">
  <metadata
     id="metadata3472">
    <rdf:RDF>
      <cc:Work
         rdf:about="">
        <dc:format>image/svg+xml</dc:format>
        <dc:type
           rdf:resource="http://purl.org/dc/dcmitype/StillImage" />
        <dc:title></dc:title>
      </cc:Work>
    </rdf:RDF>
  </metadata>
  <defs
     id="defs3470" />
  <sodipodi:namedview
     pagecolor="#ffffff"
     bordercolor="#666666"
     borderopacity="1"
     objecttolerance="10"
     gridtolerance="10"
     guidetolerance="10"
     inkscape:pageopacity="0"
     inkscape:pageshadow="2"
     inkscape:window-width="1519"
     inkscape:window-height="801"
     id="namedview3468"
     showgrid="false"
     inkscape:zoom="0.56131148"
     inkscape:cx="225.36507"
     inkscape:cy="101.71875"
     inkscape:window-x="0"
     inkscape:window-y="0"
     inkscape:window-maximized="0"
     inkscape:current-layer="svg3466" />
  <g
     id="g3476"
     transform="translate(-5.7808717,0.51628328)">
    <path
       style="fill:#fefefe"
       d="m 65.116691,169.56063 c -0.799812,-3.06806 0.340267,-17.59805 1.781745,-22.70786 1.572075,-5.57277 1.266086,-6.24444 -6.740527,-14.79607 -3.273766,-3.49661 -5.952302,-6.59867 -5.952302,-6.89346 0,-0.29477 0.609382,-1.99897 1.354181,-3.7871 1.602143,-3.84645 3.533623,-4.14048 5.845179,-0.88981 0.92353,1.29874 3.878448,5.25628 6.566484,8.79455 7.250999,9.54452 7.258913,9.59041 3.94772,22.88705 -1.564921,6.2842 -3.062953,12.15825 -3.32896,13.05345 -0.349105,1.17485 0.442682,2.07075 2.846248,3.22051 4.551172,2.17709 4.178071,3.12061 -1.234,3.12061 -3.874328,0 -4.642746,-0.30247 -5.085768,-2.00187 z m 379.743119,1.31723 c 0,-0.37654 1.42377,-3.01326 3.16392,-5.85937 2.87737,-4.70608 8.75052,-21.67705 13.51595,-39.05549 1.00946,-3.68129 2.31042,-7.58364 2.89102,-8.67188 1.48683,-2.78685 5.23426,-2.56865 7.18534,0.41837 1.4818,2.26857 1.46386,2.5825 -0.33468,5.85938 -2.26717,4.13069 -18.00719,41.58794 -18.01753,42.87711 -0.004,0.49377 -1.66438,1.84699 -3.68983,3.00714 -3.95368,2.26463 -4.71419,2.49448 -4.71419,1.42474 z m 24.29907,-0.25286 c 0,-0.51563 0.58425,-0.9375 1.29833,-0.9375 0.71408,0 2.24364,-0.76786 3.39902,-1.70634 l 2.10068,-1.70636 -1.60781,-8.84052 c -0.88429,-4.8623 -2.5865,-12.63741 -3.78268,-17.27803 l -2.17487,-8.4375 1.91285,-4.48165 c 1.05207,-2.46492 2.10205,-4.29188 2.33327,-4.05993 2.021,2.02731 7.73616,36.71385 7.73616,46.95242 0,1.12634 -1.19973,1.43291 -5.60748,1.43291 -3.11526,0 -5.60747,-0.41666 -5.60747,-0.9375 z m -42.43085,-14.96751 c -0.33858,-2.56024 -2.22593,-8.16808 -4.19412,-12.46185 -2.18035,-4.7566 -3.82067,-9.98897 -4.19828,-13.39187 -0.34086,-3.07176 -0.85623,-7.5597 -1.14527,-9.9732 -0.49814,-4.15956 -0.37776,-4.46482 2.3106,-5.85937 4.9968,-2.59202 5.08018,-2.41915 4.37725,9.07568 l -0.64495,10.54687 3.88113,8.73883 c 3.75984,8.46573 3.8466,8.88324 2.77614,13.35938 -0.60776,2.5413 -1.42943,4.62054 -1.82596,4.62054 -0.39653,0 -0.99797,-2.09475 -1.33654,-4.65501 z m -336.073825,-5.9555 c 0,-5.1943 7.188215,-24.39106 11.648465,-31.10824 2.95868,-4.45581 5.36747,-10.22691 6.49071,-15.5508 0.67114,-3.181041 4.03729,-7.41795 5.89342,-7.41795 0.80686,0 9.71326,3.867319 19.79198,8.59403 10.07872,4.72672 21.45557,9.92914 25.28186,11.56094 9.19412,3.921 9.86187,5.66446 1.81996,4.75179 -3.27504,-0.37169 -6.43755,-1.07785 -7.02782,-1.56925 -0.59025,-0.4914 -8.84508,-3.16425 -18.34405,-5.93967 -16.57893,-4.84403 -24.67982,-8.02214 -26.14769,-10.25815 -0.48584,-0.74009 -0.69081,-0.70884 -0.70094,0.10688 -0.007,0.63405 1.68279,2.02132 3.75702,3.08282 3.92161,2.00691 3.92921,2.07851 0.71488,6.73746 -3.5059,5.08156 -15.143711,26.70786 -18.030421,33.50555 -3.5473,8.35323 -5.147374,9.44264 -5.147374,3.50459 z M 374.76635,130.326 c 0,-0.50821 2.62851,-2.25398 5.84113,-3.87951 3.21261,-1.62552 12.61186,-7.30291 20.88721,-12.61643 17.41094,-11.17937 19.45286,-11.99927 21.06178,-8.45704 2.17653,4.79187 0.42726,6.22552 -16.61804,13.61958 -8.66334,3.75806 -16.72719,7.44961 -17.91968,8.20344 -2.24573,1.41964 -10.03437,4.026 -12.08417,4.04382 -0.64253,0.006 -1.16823,-0.40566 -1.16823,-0.91386 z M 359.0525,116.01563 c -2.09987,-1.67579 -8.51382,-8.88288 -14.25321,-16.015777 l -10.43526,-12.968894 3.04823,-3.154813 3.04824,-3.154814 5.90677,8.86198 c 3.24872,4.874088 9.07501,13.058618 12.94732,18.187848 3.8723,5.12923 7.04055,9.7681 7.04055,10.30861 0,1.93383 -3.5504,0.93029 -7.30264,-2.06414 z M 46.728972,103.66072 c 0,-2.19435 2.750676,-4.28572 5.636802,-4.28572 1.484753,0 6.935036,-0.672928 12.111739,-1.495406 5.176703,-0.822469 10.029995,-1.257582 10.785094,-0.966919 1.787297,0.687994 1.769067,4.715425 -0.02812,6.211625 -1.121052,0.9333 -2.008169,0.91094 -4.439253,-0.11187 -4.343759,-1.82751 -17.703449,-1.53704 -20.72763,0.45067 -2.862773,1.88163 -3.338631,1.90979 -3.338631,0.19762 z M 80.311247,99.2577 c -0.896342,-1.680066 -0.699568,-2.3568 1.255562,-4.318041 2.665965,-2.674297 5.623581,-2.303613 7.343641,0.920391 0.887725,1.663913 0.720492,2.257219 -1.039107,3.686513 -2.836004,2.303627 -6.246479,2.173317 -7.560096,-0.288863 z m 72.959783,1.22422 c 0,-0.579998 2.41822,-1.750064 5.37383,-2.600161 2.95561,-0.850087 5.79439,-1.862372 6.30841,-2.249512 0.51402,-0.38715 7.93777,-0.996319 16.49721,-1.353703 8.55944,-0.357385 17.63099,-1.197117 20.15899,-1.866075 l 4.59636,-1.216286 -0.0655,4.557508 -0.0655,4.557499 -15.88785,0.005 c -8.73832,0.003 -20.61916,0.2784 -26.40187,0.61265 -7.52335,0.43486 -10.51402,0.30776 -10.51402,-0.44683 z m 56.54898,-2.012789 c -1.19785,-5.47081 -0.53837,-5.636751 24.34001,-6.124572 12.31012,-0.241379 23.85122,-0.867651 25.64689,-1.391715 4.07419,-1.189045 8.41739,-1.233295 8.41739,-0.08576 0,0.476896 -2.23846,2.083273 -4.97435,3.569727 -4.28696,2.329172 -7.02999,2.92919 -19.85024,4.342078 -8.18174,0.901687 -18.93392,1.887431 -23.89374,2.190541 l -9.01785,0.55111 -0.66811,-3.051411 z m 174.29214,-6.430712 c 0,-2.644247 3.3055,-5.094821 14.69636,-10.895309 11.77415,-5.995674 14.74289,-6.383178 14.74289,-1.92436 0,2.549355 -0.26233,2.791719 -2.80374,2.590401 -3.687,-0.292068 -20.66864,6.968036 -22.87257,9.778632 -2.0359,2.596308 -3.76294,2.803129 -3.76294,0.450636 z m 79.28789,-1.52851 c -0.97236,-2.140775 -0.41269,-2.988478 7.96397,-12.062627 4.9554,-5.36802 9.00982,-10.238104 9.00982,-10.822409 0,-0.584305 0.63084,-1.062373 1.40187,-1.062373 0.77103,0 1.40187,0.550218 1.40187,1.222705 0,1.53729 -4.27827,8.127662 -9.2481,14.246045 -2.09415,2.578125 -4.52269,6.058594 -5.39675,7.734375 -1.89437,3.631967 -3.702,3.89409 -5.13268,0.744284 z M 280.14019,87.594343 c -2.44159,-0.770594 -4.43926,-1.749608 -4.43926,-2.175588 0,-0.425978 2.83879,-1.043665 6.30841,-1.372638 5.93363,-0.562596 33.40914,-4.684653 38.58418,-5.788652 2.06171,-0.439829 2.6265,0.02577 4.35141,3.587267 l 1.98219,4.092696 -18.83739,1.108205 c -10.36056,0.609514 -19.8888,1.297562 -21.17384,1.528998 -1.28505,0.231436 -4.33412,-0.209694 -6.7757,-0.980288 z M 460.93458,84.1875 c -0.61682,-0.61875 -1.1215,-2.517188 -1.1215,-4.21875 0,-2.603261 0.3408,-3.09375 2.14953,-3.09375 1.18225,0 2.65421,0.50625 3.27103,1.125 2.23115,2.238119 0.73952,7.3125 -2.14953,7.3125 -0.56542,0 -1.53271,-0.50625 -2.14953,-1.125 z m -339.6729,-9.723727 c -1.43638,-0.781686 -2.57009,-2.19799 -2.57009,-3.21073 0,-3.188073 2.86805,-3.829597 12.59674,-2.817632 8.19506,0.852441 9.30185,0.771326 12.61578,-0.924601 1.99794,-1.022459 3.89625,-2.28692 4.21848,-2.809913 0.6913,-1.122044 5.14844,-1.293416 5.14844,-0.197952 0,0.41412 -2.46499,2.496736 -5.47776,4.628036 -5.07292,3.588697 -6.07634,3.923811 -13.57695,4.53431 -4.45457,0.362569 -8.32281,1.022141 -8.5961,1.465713 -0.66655,1.081873 -1.33155,0.98007 -4.35854,-0.667231 z m 284.11215,-0.476366 c -2.34238,-1.368578 -2.28469,-7.424907 0.0707,-7.424907 2.29415,0 5.77038,3.848633 5.77038,6.388548 0,2.263023 -2.87007,2.772244 -5.84112,1.036359 z M 211.83801,71.5625 c -1.57866,-1.583586 -0.32024,-5.492606 3.06449,-9.519307 5.09301,-6.058966 7.61876,-12.221551 7.8713,-19.205237 0.15758,-4.357677 0.549,-5.806706 1.56855,-5.806706 1.10093,0 1.29943,1.418574 1.0467,7.480052 -0.17155,4.114028 -0.87537,9.120635 -1.56404,11.125794 -0.68868,2.005158 -1.06476,4.135616 -0.83572,4.734349 0.22905,0.598733 -0.24688,1.92025 -1.05761,2.936706 -1.41734,1.776992 -1.43319,1.76385 -0.41219,-0.341569 0.58402,-1.204318 0.88882,-2.363247 0.67733,-2.575399 -0.37005,-0.371206 -3.75116,6.775806 -4.80445,10.155692 -0.50126,1.608485 -4.2754,2.298591 -5.55436,1.015625 z M 202.04882,57.304809 C 197.07769,46.673541 196.1937,43.125 198.51643,43.125 c 0.77046,0 2.33769,2.671171 3.76388,6.415121 1.34404,3.528317 3.48361,7.829029 4.7546,9.557138 2.64031,3.589922 2.7945,4.568415 1.08868,6.908557 -1.08848,1.493233 -1.75313,0.541229 -6.07477,-8.701007 z M 121.1838,65.9375 c -2.22359,-2.230534 1.88893,-8.75 5.51955,-8.75 2.0203,0 2.26861,0.406837 2.26861,3.717015 0,2.715414 -0.48711,3.978526 -1.80772,4.6875 -2.05258,1.101941 -5.05352,1.275303 -5.98044,0.345485 z M 317.16136,51.342953 c -7.3412,-7.516332 -11.85536,-14.539719 -11.38959,-17.720596 0.38733,-2.645189 2.63944,-3.481416 2.63944,-0.980044 0,2.33542 12.67541,18.920187 14.46031,18.920187 1.89709,0 2.37682,1.213537 1.61273,4.079529 -0.66478,2.493479 -0.72059,2.460718 -7.32289,-4.299076 z m 20.40812,2.599076 c -0.98058,-2.158877 -0.85692,-2.409839 1.47447,-2.992171 6.00538,-1.500013 15.66056,-6.183818 19.01618,-9.224893 3.09497,-2.804855 6.42585,-4.292682 6.42585,-2.870276 0,0.229454 -1.99766,2.369136 -4.43925,4.754849 -2.60988,2.550152 -7.71287,5.9352 -12.38318,8.214333 -4.36916,2.132171 -8.18688,4.011226 -8.48382,4.175679 -0.29694,0.164452 -1.02155,-0.761432 -1.61025,-2.057521 z"
       id="path3486"
       inkscape:connector-curvature="0" />
    <path
       style="fill:#fefe00"
       d="m 53.307609,122.0407 c -0.02467,-1.46911 2.457523,-4.82578 7.625893,-10.3125 4.214359,-4.47394 7.734779,-8.25572 7.823153,-8.40392 0.08837,-0.14821 1.264719,0.23513 2.614103,0.85186 2.072369,0.94719 2.744324,0.85727 4.32638,-0.57894 1.030125,-0.93517 1.872955,-2.7145 1.872955,-3.954075 0,-1.263797 0.410521,-1.999275 0.93458,-1.674375 0.514018,0.318675 0.934579,1.874456 0.934579,3.4573 0,2.35254 -1.481406,4.39649 -8.115104,11.19677 l -8.115104,8.31889 -2.117717,-1.99571 c -2.647563,-2.49503 -4.686149,-1.7929 -6.420938,2.2115 -1.148586,2.65127 -1.331098,2.76956 -1.36278,0.8832 z m 417.805471,-6.15665 c -1.42519,-1.72263 -4.83533,-1.99392 -6.3217,-0.50291 -1.22062,1.22444 -1.6508,-0.32935 -3.11971,-11.26804 -0.58481,-4.354981 -0.79279,-9.364531 -0.46219,-11.13232 0.58864,-3.14753 0.62994,-3.172876 1.9918,-1.222474 2.02652,2.902316 3.80866,2.451416 5.81482,-1.471198 1.71029,-3.344115 1.79498,-3.387195 2.4693,-1.255971 0.38405,1.213806 0.40504,6.745391 0.0466,12.292423 -0.44871,6.94479 -0.31873,10.70946 0.41737,12.08919 1.40009,2.62426 0.78761,4.43413 -0.83633,2.4713 z m -47.21575,-6.59358 c 0.66141,-2.64346 -1.59764,-7.10724 -3.59177,-7.09719 -0.63067,0.003 -2.2961,0.60726 -3.70094,1.34241 -1.40486,0.73515 -2.74226,1.03153 -2.97201,0.65861 -1.4209,-2.30625 -5.05737,-13.513368 -5.62361,-17.331248 l -0.67382,-4.543197 2.72555,0.600501 c 3.40775,0.750809 5.31055,-1.245283 4.62356,-4.850266 -0.43691,-2.292692 -0.35952,-2.388139 0.7274,-0.897049 0.66898,0.917749 1.73067,4.495664 2.3593,7.950922 0.62863,3.455258 2.5649,9.572256 4.30281,13.593325 3.23197,7.477922 3.91179,11.330882 2.18781,12.399682 -0.63063,0.39097 -0.75857,-0.25055 -0.36428,-1.8265 z M 108.41121,99.358622 c 0,-0.5409 1.02804,-3.018535 2.28454,-5.505853 1.25649,-2.487313 2.96498,-8.45646 3.79663,-13.264768 1.76568,-10.208493 3.85559,-15.554894 3.76876,-9.641268 -0.0451,3.065025 5.41332,6.929828 7.22311,5.114378 3.11579,-3.125522 2.38273,0.892471 -2.50261,13.717211 l -2.50731,6.582072 -3.34186,-1.02885 c -3.15374,-0.970931 -3.49328,-0.858863 -6.03156,1.990837 -1.47933,1.660838 -2.6897,2.577141 -2.6897,2.036241 z m 98.61841,-0.857063 c -0.31514,-0.996009 0.0717,-5.515767 0.85958,-10.043894 0.90723,-5.213913 1.22189,-10.50671 0.85807,-14.433497 C 208.16455,67.734692 209.20685,63.75 211.43475,63.75 c 0.81016,0 0.80175,0.287757 -0.0329,1.125 -0.61682,0.61875 -1.1215,2.221875 -1.1215,3.5625 0,2.947968 1.56071,4.6875 4.20561,4.6875 2.42745,0 4.20561,-1.688198 4.20561,-3.992828 0,-1.060117 0.41502,-1.48553 1.05947,-1.085997 1.21576,0.753735 0.64267,11.079134 -1.04169,18.7678 -0.92261,4.211516 -1.29568,4.735181 -3.12368,4.384644 -1.22392,-0.234699 -3.15882,0.456384 -4.71442,1.683845 -2.1353,1.684877 -2.53682,2.591898 -2.10535,4.755977 0.59494,2.983979 -0.83964,3.697109 -1.7363,0.863118 z M 326.10606,82.377778 c -2.29913,-4.520757 -1.87593,-10.77717 0.66289,-9.799887 0.78172,0.300909 3.47283,0.547109 5.98025,0.547109 4.51337,0 4.57021,0.03771 5.68539,3.771471 1.07081,3.585238 0.99481,3.90929 -1.53921,6.5625 -1.90046,1.989844 -3.54897,2.791029 -5.74283,2.791029 -2.66532,0 -3.34076,-0.51827 -5.04649,-3.872222 z m 0.57413,-11.99277 c -1.49848,-2.432167 -2.32045,-10.879424 -1.39435,-14.329462 0.92027,-3.428289 1.1734,-3.640407 3.6842,-3.08722 1.48282,0.326699 3.54737,0.136954 4.58788,-0.421657 3.00719,-1.614425 5.05365,3.220211 4.27483,10.099025 -0.97984,8.65428 -0.94462,8.604306 -6.06487,8.604306 -2.50512,0 -4.79458,-0.389246 -5.08769,-0.864992 z"
       id="path3482"
       inkscape:connector-curvature="0" />
    <path
       style="fill:#fe0000"
       d="m 322.89719,72.245723 c -5.72611,-0.856684 -13.14298,-4.200844 -13.94046,-6.285555 -0.80025,-2.091901 0.32045,-3.037592 1.37007,-1.156142 0.46245,0.828935 3.05941,2.483167 5.77103,3.676071 4.26539,1.876449 6.45747,2.168429 16.25628,2.165305 12.13841,-0.0038 16.70237,-1.100856 17.70014,-4.254377 0.63395,-2.003658 -0.51037,-3.859905 -1.19466,-1.9379 -0.68798,1.932382 -1.99722,1.337537 -3.50849,-1.594069 -0.78422,-1.521269 -1.42587,-2.997831 -1.42587,-3.28125 0,-0.283418 1.89253,-0.515306 4.20561,-0.515306 3.98198,0 5.3861,1.032478 3.22564,2.371885 -0.67402,0.417873 -0.64991,1.006458 0.0772,1.88534 1.47123,1.778257 0.32448,4.737245 -2.6572,6.856456 -2.90291,2.063231 -17.90345,3.26281 -25.8793,2.069542 z"
       id="path3480"
       inkscape:connector-curvature="0" />
    <path
       style="fill:#000000"
       d="m 38.317757,171.79642 25.700934,-0.26572 0.260584,-10.04115 c 0.143322,-5.52263 0.875124,-12.11699 1.626228,-14.65414 1.269743,-4.28904 1.239018,-4.81721 -0.437519,-7.52107 -0.991739,-1.59945 -3.754938,-4.80653 -6.140438,-7.12684 -4.522753,-4.39916 -6.991098,-8.2135 -6.991098,-10.80337 0,-0.83682 3.454058,-5.13944 7.675685,-9.56137 7.511379,-7.86779 7.626412,-8.05827 5.373832,-8.89849 -3.019024,-1.1261 -12.918687,-0.003 -15.719518,1.78301 -1.559358,0.99449 -2.493687,1.11289 -3.198948,0.40543 -1.496927,-1.50161 0.694849,-5.599419 3.267072,-6.108219 7.361786,-1.4562 25.055837,-3.475238 25.895219,-2.95485 0.627625,0.389109 1.005724,-0.37621 1.005724,-2.035716 0,-1.462573 0.654688,-3.596845 1.454863,-4.742826 1.772816,-2.538959 0.05203,-2.893757 -2.555228,-0.526847 -2.37575,2.156744 -3.432272,0.698382 -1.151522,-1.589494 1.611033,-1.616069 2.619028,-1.775016 7.807035,-1.231068 7.095272,0.74392 9.398123,2.564437 9.398123,7.429675 0,4.646426 -4.468319,9.214665 -8.441024,8.629765 -1.995903,-0.29385 -2.77393,-0.0241 -2.77393,0.96177 0,0.75359 -3.830222,5.28812 -8.511606,10.07672 -5.865434,5.99976 -8.277622,9.09369 -7.758978,9.95183 0.413946,0.68492 2.756393,3.81283 5.205436,6.95092 6.78767,8.69742 6.838684,9.0175 3.545067,22.24356 -1.56492,6.2842 -3.039604,12.08446 -3.277075,12.88946 -0.286431,0.97099 0.67162,1.99147 2.846247,3.03172 1.802907,0.86242 3.278012,1.99675 3.278012,2.52072 0,0.64212 59.939696,0.94045 183.878506,0.91521 l 183.8785,-0.0375 3.40766,-5.85872 c 3.10396,-5.33659 10.44605,-26.76845 14.35721,-41.90927 1.38315,-5.35444 1.37556,-6.67227 -0.0998,-17.31428 -1.43992,-10.386679 -1.45829,-11.940932 -0.18699,-15.814673 1.31693,-4.012722 1.29558,-4.399702 -0.32384,-5.869834 -2.54732,-2.31251 -2.39917,-9.990753 0.24396,-12.642132 1.56253,-1.567421 2.73954,-1.881332 5.6073,-1.495483 1.99629,0.268596 3.86481,0.106638 4.15226,-0.359909 0.711,-1.154027 4.83425,-1.076538 5.56191,0.104525 0.81402,1.321217 2.27966,0.231762 3.29612,-2.45011 0.93846,-2.476035 3.46868,-3.020697 4.2724,-0.919689 0.65649,1.716153 -0.66359,4.191574 -6.5384,12.260757 l -4.77786,6.5625 0.15445,13.59375 c 0.17507,15.408348 1.08659,23.427708 3.88945,34.218748 1.57612,6.06806 4.83461,30.66407 4.83461,36.49301 0,1.05875 1.50361,1.46824 6.30841,1.71804 3.46963,0.18038 -101.98598,0.31207 -234.34579,0.29266 -132.35982,-0.0194 -229.088787,-0.15489 -214.953273,-0.30103 z m 36.448598,-0.99779 c 0,-0.42012 -1.498453,-1.48066 -3.329896,-2.35674 -2.403566,-1.14976 -3.195353,-2.04566 -2.846248,-3.22051 0.266007,-0.8952 1.764039,-6.76925 3.32896,-13.05345 3.311193,-13.29664 3.303279,-13.34253 -3.94772,-22.88705 -2.688036,-3.53827 -5.642954,-7.49581 -6.566484,-8.79455 -2.274485,-3.19854 -4.222777,-2.96849 -5.806025,0.68554 -0.726095,1.67579 -1.336634,2.40247 -1.356753,1.61486 -0.04762,-1.86419 2.572698,-5.59923 3.928141,-5.59923 0.580246,0 1.951331,0.8447 3.046854,1.8771 l 1.99186,1.87711 8.115104,-8.31889 c 6.633698,-6.80028 8.115104,-8.84423 8.115104,-11.19677 0,-1.582844 -0.420561,-3.138625 -0.934579,-3.4573 -0.524059,-0.3249 -0.93458,0.410578 -0.93458,1.674375 0,1.239575 -0.84283,3.018905 -1.872955,3.954075 -1.54953,1.40668 -2.27689,1.51568 -4.212127,0.63116 -2.196654,-1.00398 -2.780059,-0.60719 -9.575642,6.51271 -3.98006,4.17 -7.589838,8.20067 -8.021732,8.95704 -1.441001,2.5236 0.340162,6.02481 6.307242,12.39808 7.96658,8.50887 8.274696,9.18713 6.703557,14.75658 -1.441478,5.10981 -2.581557,19.63981 -1.781745,22.70786 0.443022,1.6994 1.21144,2.00187 5.085768,2.00187 2.510143,0 4.563896,-0.34373 4.563896,-0.76387 z M 449.574,169.45312 c 2.02545,-1.16015 3.68587,-2.51337 3.68983,-3.00714 0.0104,-1.28917 15.75036,-38.74642 18.01753,-42.87711 1.79854,-3.27688 1.81648,-3.59081 0.33468,-5.85938 -1.95108,-2.98702 -5.69851,-3.20522 -7.18534,-0.41837 -0.5806,1.08824 -1.88156,4.99059 -2.89102,8.67188 -4.76543,17.37844 -10.63858,34.34941 -13.51595,39.05549 -4.48828,7.3408 -4.32732,7.80125 1.55027,4.43463 z m 18.6503,1.18446 c 0,-0.50871 1.47196,-1.54187 3.27103,-2.29591 1.79906,-0.75405 3.27095,-1.91987 3.27086,-2.5907 -2.6e-4,-1.99311 -2.67928,-15.63656 -4.72558,-24.066 -1.04761,-4.31545 -1.72428,-8.02728 -1.50373,-8.24853 0.45811,-0.45955 4.52819,16.63301 6.27086,26.33485 1.13064,6.29458 1.10224,6.54164 -0.94322,8.20313 -1.15994,0.94219 -2.69323,1.71308 -3.40731,1.71308 -0.71408,0 -1.29833,0.42187 -1.29833,0.9375 0,0.52084 2.49221,0.9375 5.60747,0.9375 4.40775,0 5.60748,-0.30657 5.60748,-1.43291 0,-4.84671 -3.11779,-29.97071 -4.30127,-34.66084 -2.88312,-11.42583 -3.30741,-12.83629 -3.73294,-12.40943 -0.81827,0.82082 -18.12987,42.4074 -18.13195,43.55723 -0.001,0.63129 -1.26375,1.80228 -2.8058,2.6022 -1.54206,0.79992 -2.80374,1.6545 -2.80374,1.89907 0,0.24458 4.41589,0.44468 9.81308,0.44468 5.83002,0 9.81309,-0.37542 9.81309,-0.92492 z m 3.72511,-57.22483 c -0.7361,-1.37973 -0.86608,-5.1444 -0.41737,-12.08919 0.3584,-5.547032 0.33741,-11.078617 -0.0466,-12.292423 -0.67432,-2.131224 -0.75901,-2.088144 -2.4693,1.255971 -0.97407,1.904591 -2.30772,3.462892 -2.96366,3.462892 -1.45554,0 -3.44603,-1.889529 -3.4072,-3.234375 0.0156,-0.541406 0.45709,-0.246094 0.98102,0.65625 1.43549,2.472284 3.138,1.984324 4.90646,-1.40625 0.87406,-1.675781 3.3026,-5.15625 5.39675,-7.734375 4.96983,-6.118383 9.2481,-12.708755 9.2481,-14.246045 0,-0.672487 -0.63084,-1.222705 -1.40187,-1.222705 -0.77103,0 -1.40187,0.478068 -1.40187,1.062373 0,0.584305 -3.93248,5.330399 -8.73884,10.546875 -10.84788,11.773497 -11.50187,13.45746 -9.96941,25.670372 1.2642,10.07506 2.15213,13.3135 3.18894,11.63066 0.98305,-1.59557 4.80607,-1.34435 6.25856,0.41127 1.62394,1.96283 2.23642,0.15296 0.83633,-2.4713 z M 50.067606,103.4631 c 3.024182,-1.98771 16.383871,-2.27818 20.727631,-0.45067 2.431084,1.02281 3.318201,1.04517 4.439252,0.11187 1.797185,-1.4962 1.815415,-5.523631 0.02812,-6.211625 -0.755099,-0.290663 -5.608392,0.14445 -10.785094,0.966919 C 59.30081,98.702072 53.850527,99.375 52.365774,99.375 c -2.886126,0 -5.636802,2.09137 -5.636802,4.28572 0,1.71217 0.475858,1.68401 3.338634,-0.19762 z m 37.803737,-3.916537 c 1.759599,-1.429294 1.926832,-2.0226 1.039107,-3.686513 -1.72006,-3.224004 -4.677676,-3.594688 -7.343641,-0.920391 -1.95513,1.961241 -2.151904,2.637975 -1.255562,4.318041 1.313617,2.46218 4.724092,2.59249 7.560096,0.288862 z M 465.23364,84.1875 c 2.69263,-2.701037 0.62983,-7.3125 -3.27103,-7.3125 -1.80873,0 -2.14953,0.490489 -2.14953,3.09375 0,3.113155 1.36539,5.34375 3.27103,5.34375 0.56542,0 1.53271,-0.50625 2.14953,-1.125 z m 9.92281,-12.125294 c -0.65775,-1.067581 -2.94205,-1.041825 -3.609,0.04069 -0.28901,0.469095 -0.26187,1.541995 0.0603,2.384224 0.53941,1.41007 0.72291,1.406847 2.31744,-0.04069 0.95241,-0.86461 1.50646,-1.937511 1.23124,-2.384224 z m -48.31621,88.534164 c -0.23862,-0.41395 -0.72664,-2.77762 -1.0845,-5.25261 -0.35785,-2.475 -2.25939,-8.00962 -4.22565,-12.29916 -2.84606,-6.20893 -3.77691,-9.66314 -4.5653,-16.94092 -0.54466,-5.02796 -1.20955,-9.36171 -1.47754,-9.63053 -0.51585,-0.51747 -23.34234,9.18322 -28.10407,11.94353 -4.31175,2.49945 -11.59028,4.23808 -12.77345,3.0512 -1.5211,-1.52584 -0.21226,-2.81745 6.06583,-5.98594 4.25077,-2.14534 30.29061,-18.29962 32.16887,-19.95654 0.12519,-0.11043 -0.84203,-2.91054 -2.14936,-6.222466 -1.30733,-3.311925 -2.77955,-8.098882 -3.2716,-10.63768 -0.49203,-2.538798 -1.04167,-4.763511 -1.22141,-4.943807 -0.86591,-0.868618 -16.26131,6.634496 -18.02698,8.785636 -2.22046,2.705239 -4.99751,2.467808 -4.99751,-0.427262 0,-2.741255 4.44455,-6.228111 14.01869,-10.998006 4.88318,-2.432828 9.06341,-4.59525 9.28941,-4.805383 0.22599,-0.210133 -0.50999,-1.02909 -1.63551,-1.819905 -1.63622,-1.149629 -2.04642,-2.366806 -2.04642,-6.072187 0,-6.258555 2.27241,-8.616384 7.96573,-8.265179 4.24028,0.261571 7.92212,-1.822023 7.92212,-4.483212 0,-0.693522 0.42056,-1.260949 0.93458,-1.260949 1.56536,0 1.04822,2.41471 -1.10529,5.161019 -1.42397,1.815934 -2.05962,3.967719 -2.10527,7.12667 -0.0411,2.845315 -0.62659,5.088241 -1.57708,6.04169 -1.39251,1.396867 -1.34812,1.680459 0.56309,3.597644 1.37736,1.381669 2.47344,4.269973 3.26084,8.592735 0.65234,3.581321 2.59302,9.76727 4.31262,13.746545 l 3.12654,7.235067 -1.02446,13.64776 -1.02447,13.64777 3.95973,9.02154 c 3.93146,8.9571 3.95069,9.05516 2.69328,13.72979 -1.18165,4.393 -2.85839,6.42009 -3.86546,4.67314 z m 3.05029,-4.90441 c 1.07046,-4.47613 0.9837,-4.89365 -2.77614,-13.35938 l -3.88113,-8.73883 0.64495,-10.54687 c 0.70293,-11.49483 0.61955,-11.6677 -4.37725,-9.07568 -2.68836,1.39455 -2.80874,1.69981 -2.3106,5.85938 0.28904,2.4135 0.80441,6.90143 1.14527,9.9732 0.37761,3.40289 2.01793,8.63526 4.19828,13.39186 1.96819,4.29377 3.85554,9.90161 4.19412,12.46185 0.33857,2.56026 0.94001,4.65501 1.33654,4.65501 0.39653,0 1.2182,-2.07924 1.82596,-4.62054 z m -48.41384,-25.79378 c 2.40564,-0.73235 5.34956,-1.9483 6.54206,-2.70214 1.19249,-0.75383 9.25634,-4.44538 17.91968,-8.20344 17.0453,-7.39406 18.79457,-8.82771 16.61804,-13.61958 -1.60892,-3.54223 -3.65084,-2.72233 -21.06178,8.45704 -8.27535,5.31352 -17.6746,10.99091 -20.88721,12.61643 -8.38736,4.24384 -7.91354,6.12538 0.86921,3.45169 z m 43.75695,-21.69284 c 0,-1.26996 -1.2882,-5.1474 -2.86268,-8.616552 -1.57448,-3.469144 -3.51457,-9.471601 -4.31132,-13.338788 -0.79674,-3.867188 -1.78714,-7.677159 -2.20087,-8.466604 -1.5826,-3.019794 -6.40061,-2.062641 -17.13777,3.404618 -11.30588,5.756845 -14.60885,8.210056 -14.60885,10.850405 0,2.352493 1.72704,2.145672 3.76294,-0.450636 2.19199,-2.795381 19.18651,-10.071456 22.83967,-9.778632 2.38951,0.191535 2.85659,-0.164942 3.39409,-2.590401 0.60276,-2.719937 0.62691,-2.731429 0.73385,-0.349167 0.14442,3.21736 -1.8504,4.81582 -5.01551,4.018947 l -2.50114,-0.629707 0.67839,4.573713 c 0.5698,3.841668 4.20247,15.047744 5.62817,17.361764 0.22975,0.37292 1.56715,0.0765 2.97201,-0.65861 1.40484,-0.73515 3.07027,-1.33924 3.70094,-1.34241 1.99413,-0.01 4.25318,4.45373 3.59177,7.09719 -0.39429,1.57595 -0.26635,2.21747 0.36428,1.8265 0.53461,-0.33144 0.97203,-1.64168 0.97203,-2.91163 z M 411.21495,72.951048 c 0,-2.539915 -3.47623,-6.388548 -5.77038,-6.388548 -2.35543,0 -2.41312,6.056329 -0.0707,7.424907 2.97105,1.735885 5.84112,1.226664 5.84112,-1.036359 z M 90.342679,154.0625 c -2.638398,-2.64664 4.512722,-26.01287 10.597751,-34.62805 3.68297,-5.21435 6.53621,-12.77188 6.53621,-17.31282 0,-2.11514 0.99474,-5.715646 2.28453,-8.268861 1.25649,-2.487313 2.96545,-8.485007 3.79768,-13.328205 C 115.03756,71.919237 116.80942,67.5 118.78096,67.5 c 0.53948,0 0.10923,-1.111581 -0.95612,-2.47018 -1.25543,-1.601005 -1.93699,-3.844157 -1.93699,-6.375 0,-4.896624 -1.5361,-6.747775 -3.85358,-4.643931 -0.89987,0.816909 -2.09727,1.19939 -2.6609,0.849958 -0.65,-0.402977 -0.19038,-1.293724 1.25674,-2.435588 2.74173,-2.163383 3.72937,-2.241337 5.24144,-0.413709 0.83336,1.007265 1.6148,1.13549 2.85673,0.46875 2.82137,-1.514673 7.30447,-1.053703 9.3091,0.9572 2.65334,2.661633 2.64452,10.598903 -0.0138,12.466721 -1.71017,1.201587 -1.22342,1.373082 5.30226,1.868161 7.32518,0.555733 10.54757,-0.276196 14.49434,-3.74202 1.7457,-1.532964 5.58247,-1.326384 6.12563,0.329816 0.19462,0.593412 -2.24619,2.913724 -5.42401,5.15625 -4.89839,3.456699 -6.83016,4.220023 -12.69122,5.014822 l -6.91336,0.9375 -3.32135,9.375 C 123.7691,90 122.06812,94.888031 121.8159,95.706047 c -0.35723,1.158515 4.15333,3.598847 20.40482,11.039503 26.17991,11.98633 25.53632,11.65137 25.53632,13.29039 0,1.08377 -1.25037,1.32118 -5.97967,1.13539 -3.28881,-0.12921 -6.50123,-0.66914 -7.13871,-1.19985 -0.97715,-0.8135 -35.19263,-11.23763 -36.80573,-11.21328 -1.49142,0.0225 -18.189089,29.7556 -21.580015,38.42696 -2.68356,6.86245 -4.184242,8.6087 -5.910208,6.87734 z m 5.4589,-7.8651 c 2.88671,-6.79769 14.524521,-28.42399 18.030421,-33.50555 3.21433,-4.65895 3.20673,-4.73055 -0.71488,-6.73746 -2.07423,-1.0615 -3.76489,-2.44877 -3.75702,-3.08282 0.0101,-0.81572 0.2151,-0.84697 0.70094,-0.10688 1.46787,2.23601 9.56876,5.41412 26.14769,10.25815 9.49897,2.77542 17.7538,5.44827 18.34405,5.93967 0.59027,0.4914 3.75278,1.19756 7.02782,1.56925 8.04191,0.91267 7.37416,-0.83079 -1.81996,-4.75179 -3.82629,-1.6318 -15.20314,-6.83422 -25.28186,-11.56094 C 124.40006,99.492319 115.49366,95.625 114.6868,95.625 c -0.80687,0 -2.33867,1.111584 -3.40402,2.470181 -1.06534,1.358597 -1.93699,2.064949 -1.93699,1.569666 0,-0.495281 1.0492,-1.889259 2.33156,-3.097734 2.063,-1.944141 2.70389,-2.082582 5.56426,-1.201969 l 3.23272,0.99525 2.50731,-6.582072 c 4.88534,-12.82474 5.6184,-16.842733 2.50261,-13.717211 -1.57545,1.580366 -7.22436,-1.968103 -7.3843,-4.638575 -0.10843,-1.810436 -0.07,-1.833042 0.29999,-0.17656 0.5313,2.378504 5.58768,5.164736 7.13448,3.931339 0.60561,-0.482892 4.64093,-1.177347 8.96741,-1.543234 7.20731,-0.609514 8.32302,-0.988327 13.31776,-4.521719 2.99829,-2.121059 5.45144,-4.195297 5.45144,-4.609417 0,-1.095464 -4.45714,-0.924092 -5.14844,0.197952 -0.32223,0.522993 -2.22054,1.787454 -4.21848,2.809913 -3.31393,1.695927 -4.42072,1.777042 -12.61578,0.924601 -5.78221,-0.601458 -9.58318,-0.612289 -10.66707,-0.0304 -0.92615,0.49721 -1.91541,0.671791 -2.19836,0.387959 -1.02814,-1.031359 -2.45059,3.238693 -3.93196,11.803352 -0.83245,4.812886 -2.40338,10.479652 -3.49095,12.592814 -1.08758,2.113165 -2.10521,5.805594 -2.26143,8.205394 -0.34686,5.32871 -3.22082,12.88253 -6.86355,18.03992 -3.986543,5.64414 -11.220805,25.1582 -11.220805,30.26754 0,5.93805 1.600074,4.84864 5.147374,-3.50459 z M 127.16424,65.592015 c 1.32061,-0.708974 1.80772,-1.972086 1.80772,-4.6875 0,-3.310178 -0.24831,-3.717015 -2.26861,-3.717015 -3.63062,0 -7.74314,6.519466 -5.51955,8.75 0.92692,0.929818 3.92786,0.756456 5.98044,-0.345485 z M 359.5825,117.51664 c -1.91367,-1.36586 -8.59797,-8.81025 -14.85401,-16.54311 l -11.37461,-14.059736 -17.84517,0.650823 c -9.81483,0.357953 -20.67981,1.050238 -24.14438,1.538412 -5.18861,0.731096 -7.16594,0.599153 -11.21496,-0.748345 -7.18132,-2.389915 -6.5914,-4.264279 1.62633,-5.167399 7.14532,-0.785263 36.13443,-5.18993 39.43784,-5.99227 1.13008,-0.274473 2.48316,-1.618917 3.00688,-2.987653 0.86017,-2.248082 0.90214,-2.160632 0.43427,0.904791 -0.36664,2.402154 0.0573,4.524522 1.45137,7.265625 1.70573,3.353952 2.38117,3.872222 5.04649,3.872222 2.2085,0 3.84603,-0.805012 5.80073,-2.851651 l 2.72354,-2.851651 -1.49829,-4.179599 c -1.81913,-5.074598 -1.27051,-5.554796 0.75857,-0.663974 1.90814,4.599273 9.95369,16.733937 20.24306,30.531465 4.82581,6.47118 8.04781,11.63708 7.7476,12.42188 -0.77928,2.0371 -3.48165,1.61775 -7.34526,-1.13983 z m 6.77264,0.56313 c 0,-0.54051 -3.16825,-5.17938 -7.04055,-10.30861 -3.87231,-5.12923 -9.6986,-13.31376 -12.94732,-18.187848 l -5.90677,-8.86198 -3.04824,3.154814 -3.04823,3.154813 10.43526,12.968894 c 5.73939,7.132897 12.15334,14.339987 14.25321,16.015777 3.75224,2.99443 7.30264,3.99797 7.30264,2.06414 z m -58.26541,-31.034137 18.83739,-1.108205 -1.98219,-4.092696 c -1.72491,-3.561495 -2.2897,-4.027096 -4.35141,-3.587267 -5.17504,1.103999 -32.65055,5.226056 -38.58418,5.788653 -3.46962,0.328972 -6.30841,0.946659 -6.30841,1.372637 0,1.205043 8.60381,3.626143 11.21496,3.155876 1.28504,-0.231436 10.81328,-0.919484 21.17384,-1.528998 z M 152.65929,101.01563 c -0.87951,-1.427696 0.83937,-2.591602 6.03314,-4.085236 2.92944,-0.842456 5.74682,-1.84636 6.26084,-2.230894 0.51402,-0.384534 7.66355,-0.974284 15.88785,-1.31056 17.6757,-0.722726 24.42314,-1.951124 25.93686,-4.721912 0.5854,-1.071553 1.02979,-5.534216 0.98751,-9.917028 -0.0751,-7.78154 -0.21251,-8.250341 -5.85101,-19.954925 -5.88801,-12.222498 -6.70242,-16.138825 -3.35611,-16.138825 1.40307,0 2.53146,1.707273 4.84192,7.325829 1.65689,4.029207 3.5673,7.998377 4.24536,8.82038 1.06993,1.297034 1.31244,0.948361 1.83509,-2.638329 0.62375,-4.280459 0.52256,-4.467931 -4.28417,-7.937511 -3.19741,-2.307952 -0.75068,-2.582782 2.89145,-0.324786 2.54201,1.575955 4.81662,2.154412 8.22673,2.092135 l 4.71329,-0.08608 0.65714,-3.62582 c 0.36143,-1.994201 0.44787,-4.718755 0.19209,-6.054563 -0.61641,-3.219257 1.74289,-5.397298 3.90061,-3.600948 1.21672,1.01294 1.36318,2.404092 0.8264,7.849167 -0.93592,9.493965 -2.89575,18.271063 -4.48094,20.067937 -0.97209,1.1019 -1.23197,2.912847 -0.89883,6.263302 0.25776,2.592269 -0.19836,8.260788 -1.0136,12.596709 -0.81526,4.335921 -1.27763,8.08877 -1.02752,8.339664 0.25011,0.250893 9.80953,-0.05505 21.24315,-0.679882 11.43363,-0.62483 22.47066,-1.225188 24.52673,-1.33413 5.41393,-0.28686 4.8433,1.910926 -1.41218,5.438979 -8.27902,4.669322 -26.58637,6.277007 -73.20983,6.429027 -20.48135,0.0667 -37.43375,-0.19499 -37.67197,-0.58171 z m 37.52763,-0.69952 15.88785,-0.005 0.0655,-4.557495 0.0655,-4.557507 -4.59636,1.216285 c -2.528,0.668958 -11.59954,1.508691 -20.15899,1.866075 -8.55944,0.357385 -15.98319,0.966553 -16.49721,1.353703 -0.51402,0.387141 -3.3528,1.399425 -6.30841,2.249513 -8.85804,2.547736 -6.84695,3.739866 5.14019,3.046996 5.78271,-0.33426 17.66355,-0.60995 26.40187,-0.61265 z m 53.21279,-1.537219 c 12.82025,-1.412888 15.56328,-2.012907 19.85024,-4.342079 2.73589,-1.486454 4.97435,-3.09283 4.97435,-3.569727 0,-1.147536 -4.3432,-1.103286 -8.41739,0.08576 -1.79567,0.524064 -13.33677,1.150336 -25.64689,1.391715 -24.87838,0.48782 -25.53786,0.653762 -24.34001,6.124572 l 0.66811,3.051418 9.01785,-0.55111 c 4.95982,-0.30311 15.712,-1.288861 23.89374,-2.190549 z m -34.63379,-1.14045 c -0.43147,-2.164079 -0.0299,-3.0711 2.10535,-4.755977 1.5556,-1.227461 3.4905,-1.918544 4.71442,-1.683845 1.828,0.350537 2.20107,-0.173128 3.12368,-4.384644 1.68436,-7.688666 2.25745,-18.014065 1.04169,-18.7678 -0.64445,-0.399533 -1.05947,0.02588 -1.05947,1.085997 0,2.30463 -1.77816,3.992828 -4.20561,3.992828 -2.64491,0 -4.20561,-1.739532 -4.20561,-4.6875 0,-1.340625 0.50468,-2.94375 1.1215,-3.5625 0.83463,-0.837243 0.84304,-1.125 0.0329,-1.125 -2.2279,0 -3.2702,3.984692 -2.68748,10.274168 0.36382,3.926787 0.0492,9.219584 -0.85808,14.433497 -1.3857,7.963554 -1.20134,11.854835 0.56162,11.854835 0.46652,0 0.60832,-1.203328 0.31509,-2.674059 z m 8.62645,-27.091566 c 1.05329,-3.379886 4.4344,-10.526898 4.80445,-10.155692 0.21149,0.212152 -0.0933,1.371081 -0.67733,2.575399 -1.021,2.105419 -1.00515,2.118561 0.41219,0.341569 0.81073,-1.016456 1.28666,-2.337973 1.05761,-2.936706 -0.22904,-0.598733 0.14704,-2.729191 0.83572,-4.734349 0.68867,-2.005159 1.39249,-7.011766 1.56404,-11.125794 0.25273,-6.061478 0.0542,-7.480052 -1.0467,-7.480052 -1.01955,0 -1.41097,1.449029 -1.56855,5.806706 -0.25254,6.983686 -2.77829,13.146271 -7.8713,19.205237 -3.38473,4.026701 -4.64315,7.935721 -3.06449,9.519307 1.27896,1.282966 5.0531,0.59286 5.55436,-1.015625 z m -8.04658,-7.262672 c 0,-0.574711 -1.03989,-2.458836 -2.31088,-4.186944 -1.27099,-1.728109 -3.41056,-6.028821 -4.7546,-9.557138 -1.42619,-3.74395 -2.99342,-6.415121 -3.76388,-6.415121 -2.32273,0 -1.43874,3.548541 3.53239,14.179809 4.32164,9.242236 4.98629,10.19424 6.07477,8.701007 0.67221,-0.922176 1.2222,-2.146902 1.2222,-2.721613 z m 115.88785,6.887978 c 0,-0.249051 -0.45053,-2.956082 -1.00118,-6.015626 -0.92277,-5.127114 -1.53607,-6.113508 -7.83041,-12.594055 -10.06349,-10.361185 -13.78301,-17.748034 -10.36822,-20.590917 1.67095,-1.391103 3.31196,-0.509829 3.31196,1.778627 0,1.790056 11.7919,17.87479 13.10421,17.87479 0.41889,0 1.47577,0.274907 2.34864,0.610903 1.35822,0.522825 1.43661,0.32896 0.54372,-1.344617 -1.78482,-3.345405 -1.26392,-8.106536 1.13418,-10.36647 2.44016,-2.299576 8.92696,-2.660736 14.41131,-0.802367 3.22973,1.094393 4.3362,3.147932 1.16822,2.168143 -5.71462,-1.767416 -6.11073,-1.809245 -4.90654,-0.518133 1.54869,1.66047 1.46798,4.497639 -0.22033,7.744703 l -1.37704,2.648412 2.89493,-0.63782 c 5.90733,-1.301521 16.0977,-6.154468 19.61304,-9.340289 3.67072,-3.326632 5.83764,-4.063125 6.89678,-2.344064 1.11705,1.813086 -9.18065,10.327871 -16.94572,14.011769 -4.17796,1.982103 -7.86057,4.032787 -8.18359,4.557074 -0.32301,0.524287 -0.85615,3.533479 -1.18474,6.687093 -0.32859,3.153615 -0.87739,5.907408 -1.21956,6.119541 -0.34217,0.212133 -0.25032,-2.50477 0.20413,-6.037563 0.67399,-5.239612 0.54948,-6.960148 -0.67569,-9.33678 -1.29755,-2.516993 -1.75943,-2.775291 -3.39382,-1.897866 -1.04051,0.558611 -3.10506,0.748356 -4.58788,0.421657 -2.5108,-0.553187 -2.76393,-0.341069 -3.6842,3.08722 -0.67766,2.524524 -0.69287,5.243135 -0.0484,8.652076 0.51687,2.733972 0.72747,5.183825 0.46798,5.444118 -0.25947,0.260293 -0.47177,0.269491 -0.47177,0.02044 z m -0.56219,-17.82623 C 324.40596,51.915053 323.596,51.5625 322.87152,51.5625 c -1.7849,0 -14.46031,-16.584767 -14.46031,-18.920187 0,-2.501372 -2.25211,-1.665146 -2.63944,0.980044 -0.46577,3.180877 4.04839,10.204264 11.38959,17.720596 6.6023,6.759794 6.65811,6.792555 7.32289,4.299076 0.36843,-1.381945 0.45267,-2.86518 0.1872,-3.296078 z m 22.9921,-0.52208 c 4.67031,-2.279133 9.7733,-5.664181 12.38318,-8.214333 2.44159,-2.385713 4.43925,-4.525395 4.43925,-4.754849 0,-1.422406 -3.33088,0.06542 -6.42585,2.870276 -3.35562,3.041075 -13.0108,7.72488 -19.01618,9.224893 -2.33139,0.582332 -2.45505,0.833294 -1.47447,2.992171 0.5887,1.296089 1.31331,2.221973 1.61025,2.057521 0.29694,-0.164453 4.11466,-2.043508 8.48382,-4.175679 z M 257.00934,38.791458 c 0,-3.745741 -0.19014,-4.175239 -1.40186,-3.166458 -0.77103,0.641896 -1.40187,0.758938 -1.40187,0.260092 0,-0.994586 3.04216,-4.010092 4.04555,-4.010092 0.34504,0 0.62734,2.53125 0.62734,5.625 0,3.125 -0.41536,5.625 -0.93458,5.625 -0.51401,0 -0.93458,-1.950094 -0.93458,-4.333542 z m 5.83297,3.161667 c -1.53857,-1.922281 -0.90225,-8.336798 0.94274,-9.503258 2.65024,-1.675573 4.88543,0.405644 5.02913,4.682705 0.13699,4.077281 -0.94759,5.992428 -3.39362,5.992428 -0.90216,0 -2.06237,-0.527344 -2.57825,-1.171875 z m 4.44741,-2.109375 c 0,-0.78125 -0.83074,-1.40625 -1.86916,-1.40625 -1.03842,0 -1.86916,0.625 -1.86916,1.40625 0,0.78125 0.83074,1.40625 1.86916,1.40625 1.03842,0 1.86916,-0.625 1.86916,-1.40625 z m 0,-4.6875 c 0,-0.78125 -0.83074,-1.40625 -1.86916,-1.40625 -1.03842,0 -1.86916,0.625 -1.86916,1.40625 0,0.78125 0.83074,1.40625 1.86916,1.40625 1.03842,0 1.86916,-0.625 1.86916,-1.40625 z m 3.79245,6.627926 c -1.59062,-1.92256 -0.85327,-8.104518 1.11409,-9.340684 2.53808,-1.594766 4.85498,0.416187 5.2005,4.513756 0.32285,3.828946 -1.02899,6.167752 -3.56499,6.167752 -0.90215,0 -2.13948,-0.60337 -2.7496,-1.340824 z m 4.15147,-4.362301 c 0,-2.222223 -0.4293,-3.203125 -1.40187,-3.203125 -1.49629,0 -2.37221,3.426487 -1.47529,5.771141 0.94795,2.478017 2.87716,0.756091 2.87716,-2.568016 z m 4.57009,-1.258837 c -0.85028,-2.222711 0.3528,-4.4675 2.20279,-4.110112 1.0346,0.19987 1.63834,1.170727 1.63834,2.634574 0,2.672463 -2.9498,3.805599 -3.84113,1.475538 z m 2.12363,-2.647413 c -0.25926,-0.644531 -0.47139,-0.117188 -0.47139,1.171875 0,1.289062 0.21213,1.816406 0.47139,1.171875 0.25926,-0.644531 0.25926,-1.699219 0,-2.34375 z"
       id="path3478"
       inkscape:connector-curvature="0" />
  </g>
</svg>
