<?xml version="1.0" encoding="UTF-8" standalone="no"?>
<!-- Created with Inkscape (http://www.inkscape.org/) -->

<svg
   xmlns:dc="http://purl.org/dc/elements/1.1/"
   xmlns:cc="http://creativecommons.org/ns#"
   xmlns:rdf="http://www.w3.org/1999/02/22-rdf-syntax-ns#"
   xmlns:svg="http://www.w3.org/2000/svg"
   xmlns="http://www.w3.org/2000/svg"
   xmlns:sodipodi="http://sodipodi.sourceforge.net/DTD/sodipodi-0.dtd"
   xmlns:inkscape="http://www.inkscape.org/namespaces/inkscape"
   id="svg3570"
   version="1.1"
   inkscape:version="0.91 r13725"
   width="535.51404"
   height="238.125"
   viewBox="0 0 535.51404 238.125"
   sodipodi:docname="fx131400.svg">
  <metadata
     id="metadata3576">
    <rdf:RDF>
      <cc:Work
         rdf:about="">
        <dc:format>image/svg+xml</dc:format>
        <dc:type
           rdf:resource="http://purl.org/dc/dcmitype/StillImage" />
        <dc:title></dc:title>
      </cc:Work>
    </rdf:RDF>
  </metadata>
  <defs
     id="defs3574" />
  <sodipodi:namedview
     pagecolor="#a5a5a5"
     bordercolor="#666666"
     borderopacity="1"
     objecttolerance="10"
     gridtolerance="10"
     guidetolerance="10"
     inkscape:pageopacity="0"
     inkscape:pageshadow="2"
     inkscape:window-width="1479"
     inkscape:window-height="910"
     id="namedview3572"
     showgrid="false"
     inkscape:zoom="1"
     inkscape:cx="324.54835"
     inkscape:cy="73.678041"
     inkscape:window-x="0"
     inkscape:window-y="0"
     inkscape:window-maximized="0"
     inkscape:current-layer="svg3570" />
  <g
     id="g5049"
     transform="translate(6.0745206,1.4306628)">
    <path
       id="path3692-0"
       d="m 278.5293,47.052734 c -1.77939,0 -2.04623,0.570831 -5.21485,11.195313 -2.662,8.925786 -2.74625,9.727667 -1.80859,17.296875 0.54077,4.365467 1.61116,9.72344 2.37891,11.90625 1.67024,4.74877 1.0196,11.830448 -1.56055,16.986328 -2.18137,4.35901 -2.21699,8.0308 -0.10352,10.375 1.40645,1.56 1.62086,3.67157 1.53516,15.07422 -0.0548,7.29286 -0.52875,15.75955 -1.05274,18.81445 -0.95395,5.56175 -0.0369,9.97711 2.79297,13.46094 1.70986,2.10495 3.04088,0.59288 2.79883,-3.17969 -0.18432,-2.87275 5.87575,-42.49483 6.59766,-43.13672 0.3601,-0.32021 13.35428,-3.9657 16.23437,-4.55468 3.11292,-0.6366 7.77539,-5.68819 7.77539,-8.42383 0,-2.51608 -2.36412,-2.63399 -11.41211,-0.56836 -4.77434,1.08997 -9.6828,2.20515 -10.90625,2.47851 -2.45905,0.54942 -2.46264,0.62752 0.38477,-7.099606 0.85502,-2.32031 2.57991,-9.703117 3.83398,-16.40625 1.86304,-9.958222 2.16548,-13.730843 1.65235,-20.625 -0.71046,-9.54539 -1.58765,-12.65625 -3.56836,-12.65625 -2.17559,0 -2.37713,1.135457 -1.41602,7.94336 0.49696,3.520154 0.63959,7.805773 0.31836,9.523437 -0.55453,2.965115 -0.68408,3.052804 -2.56054,1.734375 -1.08701,-0.763754 -2.65819,-1.388672 -3.49219,-1.388672 -0.834,0 -2.26706,-0.833473 -3.18555,-1.851562 -1.90891,-2.115904 -1.47738,-7.575724 0.97656,-12.335938 1.49634,-2.902682 1.13434,-4.5625 -0.99804,-4.5625 z m 78.29687,4.173828 c -2.00452,0 -2.84057,0.540296 -3.25976,2.109376 -1.02042,3.819609 -0.72452,4.522721 1.64648,3.925781 2.4977,-0.62886 4.15343,1.056519 2.58399,2.630859 -0.7109,0.71311 -1.42455,0.651236 -2.46485,-0.214844 -1.87976,-1.56493 -2.99007,-0.507439 -1.4375,1.369141 1.49354,1.80523 4.124,1.837719 5.58789,0.06836 1.59997,-1.93388 0.85167,-4.574883 -1.60351,-5.658203 -2.60099,-1.14767 -2.71835,-2.355469 -0.22852,-2.355469 1.02803,0 1.86914,-0.421889 1.86914,-0.9375 0,-0.515639 -1.21126,-0.937499 -2.69336,-0.9375 z m 10.20117,0 c -0.88366,0 -5.63867,7.098569 -5.63867,8.417969 0,0.52668 1.05286,0.957031 2.33789,0.957031 1.28505,0 2.33594,0.42188 2.33594,0.9375 0,1.340691 1.59341,1.160326 2.07031,-0.234374 0.61404,-1.795831 -0.29448,-10.078126 -1.10547,-10.078126 z m 6.71094,0.02539 c -0.57952,-0.0283 -1.19946,0.144279 -1.83398,0.542969 -1.96736,1.23617 -2.70586,7.417284 -1.11524,9.339844 0.61012,0.73746 1.84785,1.341797 2.75,1.341796 2.53601,0 3.88731,-2.339028 3.56446,-6.167968 -0.25914,-3.07317 -1.62666,-4.971771 -3.36524,-5.056641 z m 7.63672,0.115235 c -1.6534,-0.0397 -2.66042,2.062694 -1.86328,4.146484 0.89134,2.33006 3.83984,1.197851 3.83984,-1.47461 10e-6,-1.46385 -0.60407,-2.434895 -1.63867,-2.634765 -0.11562,-0.0223 -0.22766,-0.03451 -0.33789,-0.03711 z m 0.0762,1.230468 c 0.0564,0.0211 0.11878,0.108391 0.1836,0.269532 0.25927,0.644539 0.25927,1.699219 0,2.34375 -0.25926,0.644539 -0.47071,0.117185 -0.47071,-1.171876 0,-0.96679 0.11808,-1.504576 0.28711,-1.441406 z m -7.91211,0.972656 c 0.97258,0 1.40235,0.980906 1.40235,3.203126 0,3.324109 -1.92902,5.046389 -2.87696,2.568359 -0.89693,-2.34465 -0.0217,-5.771485 1.47461,-5.771485 z m -7.6875,1.447266 c 0.12022,0.0127 0.21094,0.700195 0.21094,1.677734 0,1.248691 -0.5835,2.03125 -1.51562,2.03125 -1.29794,0 -1.3372,-0.236264 -0.26563,-1.640624 0.68852,-0.902341 1.37213,-1.816401 1.51758,-2.03125 0.0182,-0.0269 0.0356,-0.03891 0.0527,-0.03711 z M 335.98438,56.4375 c -0.54715,0.0031 -1.14664,0.01341 -1.8086,0.03125 -5.3427,0.143966 -6.67292,0.509186 -8.33984,2.289062 -2.56853,2.742624 -1.40446,3.961968 1.32617,1.388672 0,0 1.70898,-2.02539 4.64648,-1.71289 -1.81249,1.125 -2.60156,2.733437 -2.60156,4.523437 -0.0173,2.189795 -0.31524,4.647419 0.6875,5.847657 0.39126,0.468322 -2.98208,-0.616709 -3.47461,-0.414063 -2.25437,0.927552 -1.97861,3.542086 0.8086,7.662109 2.3346,3.45098 2.38664,3.827732 1.84375,13.345704 -0.30914,5.419989 -1.17695,11.280292 -1.94532,13.125002 -0.76364,1.83335 -1.35468,3.59282 -1.3125,3.9082 0.0422,0.3154 0.88244,-1.18421 1.86719,-3.33398 1.33033,-2.90424 1.92893,-6.77759 2.32617,-15.070316 0.52538,-10.968231 1.85685,-16.183594 4.13086,-16.183594 0.8056,0 0.79779,0.269922 -0.0254,1.095703 -0.6009,0.602776 -1.0918,2.370569 -1.0918,3.927735 0,4.817713 3.22941,6.479798 6.65235,3.423828 1.76604,-1.576708 1.7841,-1.511883 1.22461,4.794922 -0.31193,3.516181 -0.81959,8.447434 -1.12891,10.958984 l -0.5625,4.566408 -3.89258,-0.31055 c -3.23594,-0.25892 -4.14484,0.0446 -5.37109,1.80078 -0.81147,1.16216 -1.45757,2.53661 -1.4375,3.05274 0.0201,0.51612 0.64747,-0.19287 1.39453,-1.57422 1.12446,-2.07916 1.96974,-2.51172 4.91602,-2.51172 1.95743,0 3.8116,0.41174 4.12109,0.91406 0.30948,0.50231 2.48697,0.84168 4.83594,0.75391 l 4.26953,-0.16016 -3.97656,-0.35351 -3.97657,-0.35743 0.56446,-5.191402 c 0.31093,-2.856497 0.82486,-7.959482 1.14062,-11.339844 0.65313,-6.992168 -0.725,-6.169424 13.36133,-7.998046 3.91254,-0.507908 7.95427,-1.375756 8.98242,-1.927735 1.71188,-0.919031 1.74905,-1.125697 0.41797,-2.460937 -1.27551,-1.279504 -2.43258,-1.331911 -9.43945,-0.416016 -4.39163,0.574051 -9.77128,0.75721 -11.95508,0.40625 l -3.9707,-0.636719 1.92187,-1.740234 c 2.65548,-2.403768 2.71213,-9.799239 0.0937,-12.425781 -1.33413,-1.338299 -3.48628,-1.697266 -5.22265,-1.697266 z m -88.23829,2.794922 c -2.0883,0 -2.78844,3.386043 -1.46875,7.101562 0.71866,2.023361 1.32516,5.050782 1.34766,6.726563 0.0335,2.490169 -0.3199,3.046875 -1.93555,3.046875 -1.83969,0 -1.93408,-0.341419 -1.36328,-4.923828 0.45336,-3.639994 0.25441,-5.412811 -0.76367,-6.796875 -0.9561,-1.299798 -1.68041,-1.574124 -2.36523,-0.898438 -1.49431,1.474384 -1.64487,23.746236 -0.2461,36.386719 0.67618,6.11075 0.95564,11.38419 0.6211,11.71875 -0.33456,0.33457 -10.32678,0.64314 -22.20508,0.68555 -15.70045,0.056 -21.6977,0.3777 -21.96485,1.18164 -0.46027,1.38513 11.47588,7.09101 13.33594,6.375 0.74925,-0.28841 4.84291,0.0907 9.09766,0.84179 4.25476,0.75113 11.35825,1.36649 15.78515,1.36719 l 8.04883,0 0.56446,4.92188 c 2.50491,21.85041 2.78999,30.44011 1.21874,36.71484 -0.86483,3.45369 -1.32559,6.67681 -1.02539,7.16406 1.30134,2.1122 3.39859,0.51449 5.91016,-4.5039 2.64455,-5.28407 2.71576,-5.8443 3.6875,-28.30469 0.72415,-16.7369 0.71221,-23.43364 -0.0469,-24.84375 -0.64286,-1.19425 -1.06437,-8.25972 -1.10547,-18.527344 l -0.0664,-16.597657 2.10156,0.527344 c 1.21532,0.304579 2.10352,0.0961 2.10352,-0.494141 0,-0.5617 -0.99793,-1.271251 -2.2168,-1.578124 -1.891,-0.476094 -2.30308,-1.314983 -2.81836,-5.712891 -0.67804,-5.78718 -2.79468,-11.578125 -4.23047,-11.578125 z M 412.60547,61.125 c -2.0883,0 -2.78844,3.386043 -1.46875,7.101562 0.71866,2.023361 1.32515,5.050782 1.34766,6.726563 C 412.51788,77.443294 412.16448,78 410.54883,78 c -1.83969,0 -1.93408,-0.341419 -1.36328,-4.923828 0.45336,-3.639994 0.2544,-5.412811 -0.76367,-6.796875 -0.9561,-1.299798 -1.68042,-1.574124 -2.36524,-0.898438 -1.49431,1.474384 -1.64486,23.746233 -0.24609,36.386721 0.67618,6.11075 0.95563,11.38419 0.62109,11.71875 -0.33456,0.33457 -10.32678,0.64313 -22.20508,0.68555 -15.70045,0.056 -21.69769,0.3777 -21.96484,1.18164 -0.46027,1.38513 11.47588,7.09101 13.33594,6.375 0.74925,-0.28841 4.8429,0.0907 9.09765,0.84179 4.25476,0.75113 11.35826,1.36649 15.78516,1.36719 l 8.04883,0 0.56445,4.92188 c 2.50492,21.85041 2.79,30.44011 1.21875,36.71484 -0.86484,3.45369 -1.32559,6.67681 -1.02539,7.16406 1.30134,2.1122 3.39859,0.51448 5.91016,-4.5039 2.64455,-5.28407 2.71576,-5.8443 3.6875,-28.30469 0.72415,-16.7369 0.7122,-23.43364 -0.0469,-24.84375 -0.64286,-1.19425 -1.06437,-8.25972 -1.10547,-18.527346 l -0.0664,-16.597656 2.10156,0.527343 c 1.21532,0.304579 2.10351,0.0961 2.10351,-0.49414 0,-0.5617 -0.99792,-1.271251 -2.21679,-1.578125 -1.891,-0.476093 -2.30308,-1.314983 -2.81836,-5.712891 C 416.1579,66.915945 414.04126,61.125 412.60547,61.125 Z M 163.33398,80.027344 c -0.56166,0.0032 -1.17791,0.01489 -1.85742,0.0332 -5.48431,0.147782 -6.84944,0.522557 -8.56054,2.349609 -2.63661,2.815318 -1.44168,4.065331 1.36132,1.423828 l 2.13868,-2.013672 -0.0391,4.900391 c -0.0298,3.763062 -0.41823,5.059562 -1.67383,5.576172 -2.31414,0.952125 -2.03101,3.636004 0.83008,7.865235 2.39648,3.54245 2.44986,3.92897 1.89258,13.69922 -0.31733,5.56365 -1.20932,11.58101 -1.99805,13.47461 -0.78388,1.88195 -1.39095,3.68798 -1.34765,4.01172 0.0433,0.32376 0.90712,-1.21708 1.91797,-3.42383 1.3656,-2.98122 1.97895,-6.95622 2.38672,-15.46875 0.53931,-11.25895 1.90595,-16.613283 4.24023,-16.613283 0.82695,0 0.81965,0.277331 -0.0254,1.125 -0.61682,0.618753 -1.12109,2.432807 -1.12109,4.031253 0,4.94541 3.3164,6.65259 6.83007,3.51562 1.81285,-1.6185 1.83018,-1.55209 1.25586,4.92188 -0.32019,3.60938 -0.84068,8.67188 -1.1582,11.25 l -0.57813,4.6875 -3.99609,-0.32032 c -3.32171,-0.26579 -4.25297,0.0469 -5.51172,1.84961 -0.83298,1.19296 -1.49716,2.60301 -1.47656,3.13282 0.0206,0.5298 0.66478,-0.19727 1.43164,-1.61524 1.15426,-2.13427 2.02251,-2.57812 5.04688,-2.57812 2.00932,0 3.91277,0.42187 4.23046,0.9375 0.31768,0.51562 2.55167,0.86353 4.96289,0.77343 l 4.38282,-0.16406 -4.08203,-0.36328 -4.08203,-0.36523 0.58007,-5.33008 c 0.31917,-2.93221 0.8458,-8.17067 1.16993,-11.64063 0.67044,-7.1775 -0.7429,-6.33189 13.71679,-8.20898 4.01625,-0.52137 8.1653,-1.4119 9.22071,-1.978517 1.75726,-0.94339 1.79409,-1.156713 0.42773,-2.527344 -1.30932,-1.313418 -2.49685,-1.365953 -9.68945,-0.425781 -4.50803,0.589266 -10.02981,0.776278 -12.27149,0.416016 l -4.07617,-0.654297 1.97266,-1.785156 c 2.72587,-2.467481 2.78346,-10.0597 0.0957,-12.75586 -1.36949,-1.373772 -2.61526,-1.764258 -6.54688,-1.742187 z m -47.89257,6.568359 c -0.59301,-4.42e-4 -1.24434,0.0058 -1.96289,0.01953 -6.66579,0.127097 -6.98035,0.238995 -9.44532,3.337891 -1.40249,1.763182 -2.27579,3.479034 -1.9414,3.814453 0.33437,0.335427 1.66774,-0.748143 2.96289,-2.408203 1.29514,-1.660054 2.68266,-3.017578 3.08398,-3.017578 0.40131,0 0.53224,2.059855 0.29102,4.578125 -0.36579,3.81868 -0.0991,4.920912 1.61328,6.638672 l 2.05469,2.060546 -5.47071,5.7832 c -8.549881,9.03923 -14.115966,15.9384 -15.230466,18.87891 -2.16529,5.71292 1.768492,7.28429 4.419922,1.76563 0.90358,-1.88071 3.818869,-5.28075 6.476564,-7.55665 l 4.83203,-4.13867 0.66211,5.32227 c 0.50487,4.05347 0.30056,6.08733 -0.85938,8.52734 -0.83772,1.76222 -1.52343,3.82987 -1.52343,4.59375 0,1.52756 -2.89934,6.25601 -14.628909,23.85938 -7.86851,11.8088 -9.669922,15.77166 -9.669922,21.26758 0,6.21406 3.676474,4.72349 6.052734,-2.45313 1.34627,-4.06591 9.172557,-13.90074 17.957027,-22.56445 l 2.37696,-2.34375 -0.6875,15 c -0.37854,8.25 -0.74325,16.16016 -0.81055,17.57812 l -0.12305,2.57813 -19.873043,0 -19.873047,0 -2.763672,-3.04688 c -1.51975,-1.67578 -2.774062,-3.79337 -2.789062,-4.70508 -0.0151,-0.91171 2.099288,-5.91026 4.699218,-11.10742 5.55084,-11.09591 5.540564,-11.31478 -0.972656,-21.82422 l -4.58789,-7.40429 1.71289,-3.37696 c 2.61189,-5.15012 5.66211,-16.24177 5.66211,-20.58984 0,-3.02563 0.349534,-3.88281 1.583984,-3.88281 0.87141,0 2.765361,-1.134 4.207031,-2.51953 3.32915,-3.1995 3.629518,-8.65608 0.642578,-11.652348 -1.63346,-1.638558 -2.777162,-1.906631 -6.570312,-1.541016 -2.52581,0.24345 -4.813968,0.08205 -5.085938,-0.359375 -0.9414,-1.527984 -3.806231,-0.79284 -5.988281,1.53711 -2.85278,3.046129 -1.637722,4.271389 1.398438,1.410156 1.28099,-1.20719 2.612734,-1.909843 2.958984,-1.5625 0.34626,0.347342 0.700862,2.689485 0.789062,5.205083 l 0.160157,4.57226 -5.22461,2.11524 c -8.97236,3.62918 -22.515625,11.28759 -22.515625,12.73242 0,1.80771 2.511595,2.72381 4.021485,1.46679 1.160064,-0.96577 16.199287,-7.65429 17.210937,-7.65429 1.41274,0 -1.043055,13.84115 -3.259766,18.375 -2.251139,4.60432 -2.362789,5.38003 -1.380859,9.49218 0.58801,2.46252 1.341058,6.69807 1.673828,9.41211 l 0.605469,4.9336 -8.742188,4.07031 c -4.807274,2.23818 -9.203262,4.65729 -9.769531,5.37695 -0.566269,0.71966 -1.721627,3.39389 -2.568359,5.94336 -2.278344,6.86002 -0.704001,7.40617 5.220703,1.8086 3.520657,-3.32627 7.127914,-5.54517 12.601563,-7.75 8.34523,-3.36155 9.043711,-3.91846 10.013671,-7.98047 0.58428,-2.44682 0.796372,-2.57874 2.082032,-1.28906 1.27223,1.2762 1.276098,1.73604 0.04297,4.13085 -0.76321,1.48208 -2.903492,6.47109 -4.757812,11.08594 l -3.373047,8.39063 2.976562,3.08008 2.97461,3.08007 -28.439453,0.26172 c -13.977483,0.12906 258.438001,0.22416 403.244141,0.24414 1.82517,0.0292 18.52388,-0.0205 44.96289,0.0156 6e-4,-0.001 0.001,-0.003 0.002,-0.004 3.34416,1.1e-4 11.49568,0.004 14.52539,0.004 l -0.10156,-0.50977 c -3.01703,-0.001 -10.5073,-0.01 -14.15234,-0.0117 0.17905,-0.34474 0.35019,-0.67899 0.5625,-1.07422 0.30159,-0.76354 0.93244,-2.12813 1.67383,-3.58593 2.05208,-4.03497 2.3594,-6.6323 0.95312,-8.04297 -1.83691,-1.84267 -3.04005,-15.78541 -2.43945,-28.27149 0.57203,-11.89183 0.50333,-12.5945 -1.67578,-16.9082 -1.65595,-3.27807 -2.45497,-6.83694 -2.94336,-13.09961 l -0.67188,-8.59765 5.78125,-6.72071 c 7.12582,-8.284641 8.80646,-10.810122 8.03125,-12.068358 -0.39889,-0.647428 -0.96517,-0.977994 -1.62109,-1.021484 -1.44302,-0.09568 -3.32226,1.197467 -4.82422,3.558594 -1.22999,1.933594 -3.23116,4.438243 -4.44922,5.566406 l -2.21484,2.050781 0.0312,-4.394531 c 0.0328,-4.475771 1.59239,-6.131863 2.13867,-2.271484 0.34585,2.443988 2.03516,1.897478 2.03516,-0.658203 -10e-6,-2.382236 -2.41997,-4.17825 -4.42774,-3.28711 -0.90605,0.402161 -3.60827,0.624942 -6.00586,0.494141 -5.99984,-0.327322 -8.25781,1.951864 -8.25781,8.33789 0,3.932628 0.36446,4.905218 2.31836,6.189458 1.97898,1.30073 2.16272,1.81316 1.26172,3.50195 -0.79149,1.48354 -0.75388,4.21455 0.15039,10.91992 0.66321,4.91784 1.54154,9.84891 1.95117,10.95898 0.72909,1.9758 0.50455,2.03329 -10.64649,2.67774 -6.26503,0.36212 -16.64702,0.50731 -23.07226,0.32422 -9.90865,-0.28234 -11.68359,-0.11853 -11.68359,1.07422 0,3.1167 8.08939,5.53946 22.12109,6.62695 7.36698,0.57096 16.10416,1.31701 19.41602,1.6582 l 6.02148,0.6211 1.60156,9.11914 c 0.88124,5.01507 2.70362,13.40241 4.04883,18.64062 1.34522,5.23822 2.26285,10.20639 2.04102,11.03907 -0.22182,0.83265 -0.65952,2.66984 -0.97266,4.08203 l -0.56641,2.55664 c -93.36955,-0.0531 -354.29396,-0.30869 -354.66601,-1.28125 -0.27602,-0.72154 -2.00283,-1.80852 -3.83789,-2.41602 -2.22233,-0.73574 -3.33594,-1.68169 -3.33594,-2.83398 0,-0.95147 1.04781,-8.82935 2.32812,-17.50586 1.2803,-8.6765 2.33094,-18.94039 2.33594,-22.8086 0.005,-3.86821 0.84892,-11.46102 1.87696,-16.87304 2.24308,-11.80846 2.322,-15.15262 0.44335,-18.79688 -1.01847,-1.97569 -1.10568,-2.76562 -0.30664,-2.76562 4.46718,0 6.42644,-10.292277 2.67579,-14.054691 -1.35709,-1.361322 -2.64196,-1.75081 -6.79297,-1.753906 z m 262.5664,15.933597 c -19.99305,0.34214 -28.38582,0.86619 -25.61523,1.59375 1.68947,0.44366 7.66303,0.34673 14.10156,-0.22852 18.1306,-1.61986 20.39989,-1.17046 12.27734,2.43555 -3.16687,1.40594 -8.53102,2.31925 -20.03906,3.4082 -17.51567,1.65741 -27.91077,1.21293 -29.34765,-1.2539 -0.49073,-0.84249 -0.8729,-0.99961 -0.88868,-0.36524 -0.0152,0.61209 -0.64145,0.87702 -1.39257,0.58789 -1.15275,-0.44373 -1.37135,0.80627 -1.39649,8.01953 -0.0302,8.67723 -0.69928,15.12022 -2.81055,27.04492 -1.15116,6.50188 -1.12624,6.72483 1.3125,11.7129 3.1512,6.44523 4.70615,6.09323 4.7461,-1.07227 0.018,-3.23103 1.00859,-8.52268 2.4707,-13.1875 1.3432,-4.28542 2.86894,-11.68327 3.39063,-16.43945 1.44231,-13.14914 1.54822,-13.47524 4.18945,-12.96875 1.24155,0.23808 9.92893,-0.29587 19.30469,-1.1875 14.06093,-1.3372 17.81459,-2.00477 21.43164,-3.81055 5.77044,-2.88083 5.15364,-4.40695 -1.73438,-4.28906 z M 207.6582,127.3418 c -20.52298,0.35121 -29.13895,0.88791 -26.29492,1.63476 1.73425,0.45542 7.86737,0.35613 14.47656,-0.23437 18.61116,-1.66279 20.93941,-1.20159 12.60157,2.5 -3.25081,1.4432 -8.75726,2.38023 -20.57032,3.49804 -17.97994,1.70134 -28.65003,1.24512 -30.125,-1.28711 -0.50374,-0.86482 -0.89591,-1.02618 -0.91211,-0.375 -0.0156,0.62833 -0.65865,0.90031 -1.42968,0.60352 -1.1833,-0.4555 -1.4078,0.82797 -1.4336,8.23242 -0.031,8.90722 -0.71753,15.52095 -2.88476,27.76172 -1.18167,6.67421 -1.15573,6.90317 1.34765,12.02344 3.23472,6.61606 4.8301,6.25582 4.8711,-1.09961 0.0185,-3.31667 1.03624,-8.74865 2.53711,-13.53711 1.3788,-4.39901 2.94495,-11.99276 3.48047,-16.875 1.48053,-13.49767 1.58954,-13.83241 4.30078,-13.3125 1.27445,0.24439 10.19018,-0.30348 19.81445,-1.21875 14.43362,-1.37264 18.28707,-2.05847 22,-3.91211 5.92339,-2.95719 5.29129,-4.52335 -1.7793,-4.40234 z m 265.73828,4.02734 c 0.73572,0.0366 1.36329,0.19922 1.73047,0.56641 l 0.10157,0.10156 c 1.40502,1.40488 3.23895,4.98942 3.5039,6.26172 0.3819,1.83393 0.30979,4.53695 0.0391,10.30078 -0.50009,10.64703 0.85181,24.6942 2.53907,26.38672 1.42339,1.42784 1.09453,3.87133 -1.14063,8.48633 -1.05787,2.18422 -2.4335,3.7451 -3.34961,4.21484 -0.22186,-1.2e-4 -0.61591,1.3e-4 -0.83984,0 -0.18917,-0.23868 -0.20921,-0.75775 0.0215,-1.61133 1.4959,-5.53497 1.46069,-7.47677 -0.24414,-13.65234 -1.86542,-6.75737 -4.61573,-19.84869 -5.42773,-25.43945 -0.37705,-2.19523 -0.72356,-4.13532 -1.00586,-5.64258 -0.001,-4e-5 -0.003,4e-5 -0.004,0 -0.46259,-3.34504 -1.06403,-8.12477 -0.75781,-8.7168 0.15161,-0.29312 0.28572,-0.47612 0.4082,-0.61914 1.11048,-0.29344 2.97464,-0.70895 4.42578,-0.63672 z m -6.37304,0.94531 c 0.3132,2.19168 0.86978,5.96767 1.42968,8.97852 -1.37324,-0.068 -2.89391,-0.18342 -4.71679,-0.37695 -4.9944,-0.53026 -14.6553,-1.41304 -21.46875,-1.96094 -11.99984,-0.96494 -20.78906,-3.2852 -20.78906,-5.48828 0,-0.52201 7.12755,-0.82143 17.52343,-0.73633 9.19071,0.0752 22.36271,-0.16967 28.02149,-0.41602 z"
       style="fill:#000000"
       inkscape:connector-curvature="0" />
    <path
       id="path4633"
       d="m 278.5918,47.990234 c -0.73639,0 -1.55188,0.738281 -1.8125,1.640625 -0.26064,0.902344 -1.56842,5.30806 -2.90625,9.789063 -2.54195,8.514129 -2.57964,11.287712 -0.31055,23.216797 l 0.97266,5.117187 1.41406,-2.707031 c 1.18969,-2.27769 1.2501,-3.904375 0.3789,-10.271484 -1.14823,-8.391826 -0.1908,-18.395348 2.20508,-23.042969 1.73053,-3.356867 1.73603,-3.742188 0.0586,-3.742188 z m 10.13281,0.9375 c -1.31091,0 -1.25626,3.110721 0.18164,10.16211 0.52774,2.588059 -1.23451,16.565418 -2.47266,19.609375 -0.61579,1.513906 -0.40597,3.071282 0.74024,5.482422 l 1.60156,3.367187 1.65039,-8.763672 c 2.26639,-12.029491 1.25125,-29.857422 -1.70117,-29.857422 z m -41.05078,11.242188 c -1.48325,0 -1.70761,2.671751 -0.52344,6.21875 0.66578,1.994187 1.49492,8.650031 1.84375,14.791016 0.34883,6.140983 1.13921,12.047233 1.75586,13.125 0.97103,1.697124 1.15961,1.142833 1.41016,-4.134766 0.53409,-11.25015 -2.26982,-30 -4.48633,-30 z m 93.64062,1.822266 c -0.10004,-0.01856 -0.20802,-0.01163 -0.32617,0.02734 -1.284,0.423578 -5.1977,6.931652 -5.2207,8.681641 -0.0214,1.628154 2.7314,1.411953 4.69336,-0.369141 1.84119,-1.671463 2.3542,-8.061406 0.85351,-8.339843 z m 71.22071,0.07031 c -1.48325,0 -1.70956,2.671751 -0.52539,6.21875 0.66578,1.994187 1.49687,8.650032 1.8457,14.791016 0.34883,6.140983 1.13921,12.047233 1.75586,13.125 0.97103,1.697125 1.1596,1.142833 1.41015,-4.134766 0.53409,-11.25015 -2.26981,-30 -4.48632,-30 z m -170.20313,1.841797 c -0.69538,-0.164192 -1.21218,1.64924 -1.2207,4.9375 -0.007,2.707031 -0.26814,5.877103 -0.58008,7.044922 -0.43442,1.626337 -0.24202,1.998323 0.82422,1.58789 1.51031,-0.581372 2.98997,-9.494618 2.00391,-12.072265 -0.35924,-0.93907 -0.71126,-1.423415 -1.02735,-1.498047 z m 164.85938,1.892578 c -0.69539,-0.164191 -1.21218,1.64924 -1.22071,4.9375 -0.007,2.707031 -0.26814,5.877103 -0.58008,7.044922 -0.43442,1.626337 -0.24006,1.998323 0.82618,1.587891 1.51031,-0.581373 2.98996,-9.494619 2.0039,-12.072266 -0.35923,-0.93907 -0.71321,-1.423415 -1.02929,-1.498047 z m -79.89258,3.357422 c -0.91002,-0.01275 -1.56055,0.440753 -1.56055,1.365234 0,0.778408 0.6247,2.62738 1.38867,4.109375 0.76398,1.481989 1.57223,2.69336 1.79688,2.69336 0.22466,0 1.01827,-1.182924 1.76367,-2.628907 1.23383,-2.393434 1.20964,-2.761236 -0.27539,-4.109375 -1.03433,-0.938959 -2.20327,-1.416937 -3.11328,-1.429687 z m -44.86719,1.4375 c -1.01201,-0.101127 -1.82083,0.465457 -3.31445,1.861328 -1.67814,1.568307 -1.97385,2.557782 -1.46875,4.921875 0.34771,1.627412 0.81802,3.275389 1.04492,3.662109 0.2269,0.38671 1.41506,0.703125 2.64062,0.703125 4.45189,0 7.12238,-8.243379 3.33008,-10.279296 -0.94615,-0.507946 -1.62521,-0.808465 -2.23242,-0.869141 z m 79.34961,2.365234 c -1.69932,-0.02614 -4.04345,0.153271 -6.79297,0.570313 -4.99862,0.758177 -8.57875,0.787321 -12.77734,0.09961 -3.20793,-0.525442 -6.38378,-0.743385 -7.05664,-0.484375 -1.24952,0.480982 -1.72847,6.107908 -0.61524,7.22461 1.01123,1.014403 3.26161,0.685644 4.78711,-0.699219 0.83349,-0.756674 5.96779,-1.90324 12.18164,-2.720703 5.90797,-0.777209 11.43888,-1.804384 12.28907,-2.283204 1.85761,-1.046214 0.81657,-1.663462 -2.01563,-1.707031 z m -118.66211,8.945313 c -0.15938,-0.01186 -0.31476,-0.0081 -0.4668,0.01367 -2.62918,0.376133 -3.2336,4.909406 -0.98632,7.40039 0.88923,0.985651 2.81299,1.791016 4.27539,1.791016 2.17266,0 2.6582,-0.404951 2.6582,-2.216797 0,-2.999831 -3.08979,-6.810397 -5.48047,-6.988281 z m 164.86133,1.892578 c -0.15938,-0.01186 -0.31672,-0.0081 -0.46875,0.01367 -2.62918,0.376133 -3.23361,4.909406 -0.98633,7.40039 C 407.41462,92.194635 409.34033,93 410.80273,93 c 2.17266,0 2.65821,-0.404951 2.65821,-2.216797 0,-2.999831 -3.08979,-6.810397 -5.48047,-6.988281 z m -237.98828,1.933594 c -0.1027,-0.01905 -0.21465,-0.0088 -0.33594,0.03125 -1.31804,0.434804 -5.33382,7.113784 -5.35742,8.910156 -0.0219,1.67131 2.80244,1.449398 4.8164,-0.378906 1.89,-1.715766 2.41741,-8.276683 0.87696,-8.5625 z m 316.91992,3.410156 c -1.20881,-0.04963 -3.27464,1.121209 -4.11328,2.748047 -1.63636,3.174272 -9.37295,10.383991 -13.54102,12.619141 -2.47695,1.32827 -2.98913,2.11588 -2.74804,4.21875 0.56737,4.94865 3.49661,3.67399 10.57617,-4.60547 7.56725,-8.849819 10.74804,-13.01797 10.74804,-14.083984 0,-0.599222 -0.37241,-0.873927 -0.92187,-0.896484 z m -245.07422,1.404297 c -0.40629,-0.07111 -0.71484,0.518295 -0.71484,1.447265 0,2.263654 0.52039,2.492607 1.26172,0.554688 0.28955,-0.756924 0.12438,-1.626885 -0.36719,-1.931641 -0.0615,-0.03809 -0.12165,-0.06015 -0.17969,-0.07031 z m 164.86133,1.890625 c -0.4063,-0.07111 -0.71484,0.520249 -0.71484,1.449218 -10e-6,2.263655 0.52038,2.492607 1.26171,0.554688 0.28955,-0.756924 0.12439,-1.626885 -0.36718,-1.931641 -0.0615,-0.03809 -0.12165,-0.06211 -0.17969,-0.07227 z m -285.80664,0.595703 c -2.75834,0 -6.14258,4.008584 -6.14258,7.275393 0,2.11933 0.27071,2.27918 2.94727,1.74219 4.17111,-0.83682 5.46289,-2.220661 5.46289,-5.851568 0,-2.727309 -0.31359,-3.166015 -2.26758,-3.166015 z m 34.71289,0.05273 c -0.93414,-0.01309 -1.60352,0.451407 -1.60352,1.400391 0,0.799041 0.64156,2.697474 1.42578,4.21875 0.78423,1.521268 1.6151,2.765628 1.84571,2.765628 0.23061,0 1.04538,-1.21491 1.81054,-2.699222 1.26653,-2.456873 1.2412,-2.834878 -0.2832,-4.21875 -1.06174,-0.963849 -2.26118,-1.453708 -3.19531,-1.466797 z m 307.92969,1.822266 c -1.55487,0 -1.86914,0.62478 -1.86914,3.716797 0,2.715416 0.48604,3.978516 1.80664,4.687496 2.07138,1.11202 4.14149,1.25393 5.04687,0.34571 2.35615,-2.36351 -1.28186,-8.750003 -4.98437,-8.750003 z M 191,96.986328 c -1.74436,-0.02683 -4.15026,0.157842 -6.97266,0.585938 -5.13111,0.77827 -8.80535,0.805549 -13.11523,0.09961 -3.29296,-0.539371 -6.5515,-0.761969 -7.24219,-0.496094 -1.28264,0.493732 -1.77555,6.269719 -0.63281,7.416019 1.03804,1.04129 3.34812,0.70477 4.91406,-0.7168 0.85558,-0.77673 6.1273,-1.95384 12.50586,-2.79297 6.06456,-0.79781 11.74056,-1.854192 12.61328,-2.345702 1.90685,-1.073944 0.83696,-1.705276 -2.07031,-1.75 z m 143.82031,4.082032 c -2.58394,0 -3.8132,0.48395 -4.49804,1.76758 -0.51837,0.9716 -0.94336,1.99902 -0.94336,2.2832 0,0.73177 2.20712,0.55032 10.01562,-0.82422 4.90008,-0.86258 5.87828,-1.23018 3.4668,-1.30078 -1.84826,-0.0541 -3.6124,-0.50941 -3.92188,-1.01172 -0.30949,-0.50232 -2.16333,-0.91406 -4.11914,-0.91406 z m -29.24414,0.35937 c -1.5698,0 -2.16231,0.37161 -1.72461,1.08204 0.41203,0.66877 0.2573,0.82933 -0.40625,0.41796 -0.59063,-0.36618 -5.0644,0.19982 -9.9414,1.25977 -4.87701,1.05995 -10.88492,1.92773 -13.34961,1.92773 -2.5433,0 -5.37976,0.63071 -6.5586,1.45899 -2.25973,1.58772 -2.73946,5.00104 -0.95508,6.79101 1.37428,1.37857 9.97596,1.47989 13.44141,0.15821 1.39448,-0.53184 5.94273,-1.84197 10.10742,-2.91211 5.58395,-1.43481 8.11669,-2.59651 9.64258,-4.42383 2.8673,-3.43372 2.7636,-5.75977 -0.25586,-5.75977 z m -236.037108,0.32618 c -0.908695,-0.005 -1.619381,0.36143 -2.507812,1.16797 -1.75108,1.58964 -2.472686,6.00964 -1.191406,7.29492 1.33847,1.34266 4.75992,0.51732 6.77539,-1.63477 2.67078,-2.85179 2.234489,-5.30039 -1.144531,-6.42969 -0.770681,-0.25756 -1.386423,-0.39525 -1.931641,-0.39843 z m 44.224608,0.97461 c -1.98922,-0.14707 -5.34067,3.13463 -14.003904,13.33789 -5.76465,6.78941 -8.375,11.02265 -8.375,13.58593 0,1.91948 2.804536,0.73131 3.341796,-1.41601 0.66967,-2.67651 15.836938,-16.91293 19.511718,-18.31445 1.98261,-0.75615 2.44302,-1.47405 2.20899,-3.43946 -0.16263,-1.36571 -1.01847,-2.9371 -1.90235,-3.49219 -0.24008,-0.15077 -0.49707,-0.24071 -0.78125,-0.26171 z m 266.33008,0.34765 c -1.41939,-0.004 -3.3731,0.10269 -5.875,0.3125 -4.88228,0.40942 -12.76831,0.80415 -17.52539,0.87695 -4.75709,0.0728 -9.26451,0.37012 -10.01563,0.66016 -0.75112,0.29005 -4.97018,1.02496 -9.375,1.63281 -8.75425,1.20806 -10.16193,2.80088 -3.30078,3.73438 6.92567,0.94226 9.07724,0.8907 24.9668,-0.5957 11.33151,-1.06001 16.63657,-1.96158 19.80273,-3.36719 5.0257,-2.23112 5.58044,-3.24224 1.32227,-3.25391 z m -319.107422,5.57617 c -0.239856,0.004 -0.50922,0.0191 -0.8125,0.041 -3.65199,0.26341 -25.798828,11.48682 -25.798828,13.07422 0,1.44981 2.00708,1.68158 3.318359,0.38281 2.174628,-2.15391 17.084172,-7.76335 20.982422,-7.89453 4.01686,-0.13518 4.205078,-0.26748 4.205078,-2.94922 0,-2.20259 -0.215536,-2.68538 -1.894531,-2.6543 z m 265.662112,0.68164 -0.0293,7.96875 c -0.0304,8.12473 -0.72909,14.7071 -2.80273,26.41602 -1.11181,6.27789 -1.06835,6.78281 0.98828,11.1875 2.72152,5.8287 4.05747,5.93765 3.38672,0.27539 -0.38817,-3.27683 0.1319,-6.46195 2.125,-13.01562 1.45125,-4.77196 3.06535,-12.57962 3.58789,-17.35157 0.52254,-4.77196 1.18616,-9.80615 1.47265,-11.1875 0.45889,-2.2125 0.24709,-2.51172 -1.76953,-2.51172 -1.25904,0 -3.34053,-0.40073 -4.625,-0.89062 l -2.33398,-0.89063 z m -114.44727,3.78516 c -7.83279,0.0315 -14.06855,0.21785 -14.06836,0.5957 5.7e-4,1.1047 11.25741,5.6316 12.86524,5.17383 0.89195,-0.25393 4.56593,0.094 8.16406,0.77344 3.59813,0.67941 10.64065,1.28194 15.65234,1.33984 l 9.11328,0.10547 -0.0137,-3.04687 c -0.008,-1.67579 -0.32352,-3.46875 -0.70117,-3.98438 -0.46396,-0.63349 -17.95706,-1.00952 -31.01172,-0.95703 z m 37.51758,1.5332 c -0.26628,0.009 -0.54966,0.0342 -0.84961,0.0703 -4.34348,0.52284 -4.50421,1.92771 -2.64453,23.0664 1.62164,18.43288 1.63387,20.02284 0.18359,25.81446 -0.84996,3.39428 -1.54687,6.40089 -1.54687,6.68164 0,0.28074 0.55396,0.50976 1.23047,0.50976 0.67652,0 2.34543,-2.42578 3.70898,-5.39062 2.33252,-5.07176 2.52913,-6.61067 3.32227,-26.01563 0.87994,-21.52911 0.58992,-24.87784 -3.4043,-24.73633 z m 127.3418,0.35938 c -7.8328,0.0315 -14.0666,0.21784 -14.06641,0.5957 5.7e-4,1.1047 11.25545,5.6316 12.86328,5.17383 0.89195,-0.25393 4.56593,0.094 8.16406,0.77344 3.59813,0.67941 10.64261,1.28194 15.6543,1.33984 l 9.11133,0.10547 -0.0137,-3.04688 c -0.008,-1.67578 -0.32352,-3.46874 -0.70117,-3.98437 -0.46397,-0.63349 -17.95707,-1.00952 -31.01172,-0.95703 z m -97.75586,1.41601 -4.51367,0.002 -0.0996,13.35742 c -0.0548,7.34735 -0.53079,15.86867 -1.05664,18.93555 -0.81566,4.75711 -0.70274,6.16853 0.76757,9.60937 2.1297,4.98389 4.1305,5.44177 3.25196,0.74414 -0.5091,-2.72225 2.72382,-25.68754 5.64062,-40.07031 0.51289,-2.52908 0.43738,-2.57866 -3.99023,-2.57813 z m 135.27539,0.11719 c -0.26628,0.009 -0.54966,0.0342 -0.84961,0.0703 -4.34348,0.52284 -4.50421,1.92772 -2.64453,23.06641 1.62164,18.43288 1.63192,20.02283 0.18164,25.81445 -0.84996,3.39428 -1.54492,6.40089 -1.54492,6.68164 0,0.28074 0.55395,0.50977 1.23046,0.50977 0.67653,0 2.34544,-2.42578 3.70899,-5.39062 2.33252,-5.07176 2.52913,-6.61067 3.32227,-26.01563 0.87994,-21.52912 0.58992,-24.87784 -3.4043,-24.73633 z m -251.25391,9.29688 c -2.65243,0 -3.91614,0.49679 -4.61914,1.81445 -0.5321,0.99735 -0.9668,2.05204 -0.9668,2.34375 0,0.75117 2.26578,0.56332 10.28125,-0.84766 5.02996,-0.88544 6.034,-1.26148 3.5586,-1.33398 -1.89724,-0.0556 -3.70967,-0.52344 -4.02735,-1.03906 -0.31769,-0.51563 -2.21891,-0.9375 -4.22656,-0.9375 z m 46.47266,2.06054 c -1.45701,-0.004 -3.46304,0.1069 -6.03125,0.32227 -5.01168,0.42028 -13.10707,0.82569 -17.99024,0.90039 -4.88318,0.0747 -9.50826,0.37805 -10.27929,0.67578 -0.77103,0.29774 -5.10148,1.05182 -9.62305,1.67578 -8.98629,1.24008 -10.43168,2.87575 -3.38867,3.83399 7.10924,0.96724 9.31818,0.91447 25.6289,-0.61133 11.63186,-1.08811 17.0761,-2.01416 20.32618,-3.45703 5.1589,-2.29025 5.72845,-3.32786 1.35742,-3.33985 z m 263.48047,3.58399 c -0.75228,-0.0298 -1.62412,0.0264 -2.32813,0.15039 -1.76924,0.31157 -1.99549,0.39911 -2.2539,0.8789 -0.21361,0.39662 -0.21868,0.55289 -0.0801,2.25782 0.1947,2.39505 0.68806,6.19712 1.07812,8.31445 0.17099,0.92813 0.56592,3.20625 0.87891,5.0625 1.11045,6.58564 3.00058,15.49852 4.65234,21.9375 1.30475,5.08623 1.62532,6.47507 1.7793,7.73047 0.27536,2.24512 0.10999,3.9847 -0.67578,7.16211 -0.49184,1.98887 -0.52804,2.37819 -0.25196,2.6543 0.29508,0.29506 0.88812,0.0198 1.69336,-0.78711 0.8946,-0.8965 1.57712,-1.91396 2.41407,-3.59571 1.1323,-2.27523 1.95312,-4.79998 1.95312,-6.00976 0,-0.6361 -0.36219,-1.60284 -0.8125,-2.16602 -1.69459,-2.11929 -2.85606,-12.77665 -2.61328,-23.98828 0.0603,-2.78437 0.10842,-6.72187 0.10742,-8.75 -0.002,-3.52818 -0.0136,-3.7226 -0.28906,-4.5 -0.71124,-2.00715 -2.66775,-5.25074 -3.59375,-5.95703 -0.41111,-0.31357 -0.57437,-0.35153 -1.6582,-0.39453 z m -6.30664,0.8457 -0.88477,0.0684 c -2.15725,0.16788 -12.40653,0.32771 -24.51172,0.38281 -14.96208,0.0681 -19.52622,0.22278 -19.98242,0.67578 -0.19035,0.18902 0.31191,0.83788 1,1.29102 1.38487,0.91201 3.95499,1.75708 7.65039,2.51758 3.77613,0.77712 7.25977,1.22996 13.58203,1.76172 5.76463,0.48486 11.62377,1.01631 17.1875,1.55859 2.78438,0.27138 5.31563,0.51251 5.625,0.53711 0.30938,0.0246 0.8359,0.0544 1.16992,0.0664 0.57144,0.0206 0.60261,0.005 0.53711,-0.25977 -0.11078,-0.44729 -0.78923,-4.59942 -1.09375,-6.68945 l -0.27929,-1.91016 z m -354.47657,0.41992 c -2.56992,-0.01 -5.32296,2.52802 -9.03515,8.16602 -1.84007,2.79465 -6.994357,10.56445 -11.453128,17.26758 -8.204559,12.33437 -9.96875,16.20416 -9.96875,21.86914 0,4.42597 1.957084,3.37427 4.001954,-2.15039 1.93288,-5.22209 2.320084,-5.72823 16.605464,-21.70703 12.8609,-14.38547 13.97266,-15.92347 13.97266,-19.33399 0,-1.89716 -0.65451,-2.92211 -2.36328,-3.70312 -0.583,-0.26646 -1.16671,-0.40601 -1.75977,-0.40821 z m 42.44141,1.57422 -0.0312,8.17969 c -0.0312,8.34008 -0.74835,15.09792 -2.87695,27.11719 -1.14128,6.44429 -1.09552,6.96294 1.01562,11.48437 2.79365,5.9832 4.16509,6.09359 3.47656,0.28125 -0.39846,-3.36369 0.13572,-6.63199 2.18164,-13.35937 1.48972,-4.89844 3.14721,-12.91406 3.6836,-17.8125 0.53639,-4.89844 1.21567,-10.06641 1.50976,-11.48438 0.47105,-2.27114 0.25562,-2.57812 -1.81445,-2.57812 -1.29242,0 -3.42954,-0.4112 -4.74805,-0.91407 l -2.39648,-0.91406 z M 53.751953,136.2207 c -0.742241,0.0144 -1.454873,0.34548 -2.189453,0.95703 -2.70539,2.2523 -0.940819,6.83674 5.644531,14.66016 3.37304,4.00717 5.94924,7.70703 5.72461,8.22266 -0.22462,0.51562 -2.3366,5.5463 -4.69336,11.17968 l -4.285156,10.24415 3.011719,3.11523 c 1.69543,1.7547 3.951922,3.11719 5.164062,3.11719 2.7712,0 2.721437,-1.01233 -0.183594,-3.75 -1.285049,-1.21102 -2.335937,-2.97895 -2.335937,-3.92969 0,-0.95074 2.135341,-5.99605 4.744141,-11.21094 3.59678,-7.18983 4.595292,-10.07435 4.132812,-11.93555 -0.33545,-1.34996 -2.996239,-6.36819 -5.912109,-11.15234 -4.108088,-6.74024 -6.595543,-9.56066 -8.822266,-9.51758 z m 62.867187,5.35547 -4.375,4.88086 -4.375,4.88086 0.19531,9.51758 c 0.10753,5.23466 -0.22392,13.05844 -0.73828,17.38476 -0.51432,4.32632 -0.71251,8.22867 -0.43945,8.67188 0.64425,1.04571 12.53711,1.05488 12.53711,0.01 0,-0.43742 -1.68221,-1.45741 -3.73828,-2.26758 -2.62863,-1.03579 -3.73828,-2.03099 -3.73828,-3.35157 0,-1.03295 1.04761,-8.97778 2.32812,-17.65429 1.2803,-8.6765 2.33094,-17.19228 2.33594,-18.92383 l 0.008,-3.14844 z m -64.607421,5.35938 0.595703,5.65625 0.595703,5.65429 -9.607422,4.65821 c -10.197352,4.94298 -9.56941,4.26963 -12.419922,13.32812 -1.002213,3.18489 0.501049,2.56082 5.066407,-2.10547 3.001906,-3.06828 6.372622,-5.15223 12.380859,-7.65039 4.54065,-1.88796 8.434164,-3.72204 8.652344,-4.07617 0.21818,-0.35413 0.629682,-2.29137 0.914062,-4.30469 0.45673,-3.23356 0.126632,-4.09761 -2.830078,-7.41015 l -3.347656,-3.75 z"
       style="fill:#fefefe"
       inkscape:connector-curvature="0" />
    <path
       id="path4645"
       d="m 334.13672,71.84375 c -2.27011,0 -3.6046,5.213827 -4.12695,16.121094 -0.3269,6.826207 -1.07696,12.406636 -1.94727,14.496096 -0.77828,1.86849 -1.41406,3.55238 -1.41406,3.74218 0,1.34704 1.59982,-0.20151 2.73047,-2.64257 1.24255,-2.68263 1.73524,-2.94922 5.46289,-2.94922 l 4.09765,0 0.64649,-4.109377 c 0.35568,-2.260395 0.92663,-7.191649 1.26953,-10.958984 0.61623,-6.770358 0.60242,-6.83171 -1.17383,-5.251953 -3.43362,3.053768 -6.66016,1.395357 -6.66016,-3.423828 0,-1.557166 0.4909,-3.324962 1.0918,-3.927735 0.82323,-0.825781 0.82904,-1.095703 0.0234,-1.095703 z m -52.3457,10.322266 c -4.59637,0.05527 -5.71318,2.142291 -6.14063,11.482422 -0.20736,4.53081 -0.96057,8.034332 -2.29101,10.650392 l -1.98243,3.89844 2.14844,-1.50977 c 1.18181,-0.83035 3.84189,-1.51167 5.91211,-1.51367 3.55585,-0.003 3.8512,-0.22367 5.3418,-3.98438 3.60073,-9.084417 3.97522,-11.662167 2.25,-15.499997 -1.46542,-3.25985 -1.91658,-3.563337 -5.23828,-3.523437 z m -36.15235,9.878906 c -3.40698,0 -4.01948,2.423709 -3.14648,12.462888 0.73864,8.49403 1.91016,11.81184 3.57812,10.13867 1.48646,-1.4911 4.90601,-1.2787 6.28711,0.39063 1.83038,2.21237 2.14859,0.933 0.54297,-2.18164 -1.07761,-2.09037 -1.29983,-4.34357 -0.87891,-8.86524 0.50034,-5.374748 0.31683,-6.39574 -1.60546,-9.003902 -1.52996,-2.075834 -2.93539,-2.941406 -4.77735,-2.941406 z M 410.5,93.9375 c -3.40698,0 -4.01948,2.423709 -3.14648,12.46289 0.73864,8.49403 1.90821,11.81184 3.57617,10.13867 1.48646,-1.4911 4.90796,-1.2787 6.28906,0.39063 1.83038,2.21237 2.14859,0.933 0.54297,-2.18164 -1.07761,-2.09037 -1.30178,-4.34357 -0.88086,-8.86524 0.50034,-5.37475 0.31877,-6.395742 -1.60352,-9.003904 C 413.74738,94.803072 412.34196,93.9375 410.5,93.9375 Z m -247.875,1.904297 c -2.33028,0 -3.70209,5.352453 -4.23828,16.548823 -0.33557,7.00715 -1.10467,12.73601 -1.99805,14.88086 -0.7989,1.91801 -1.45117,3.64696 -1.45117,3.8418 0,1.38273 1.64211,-0.20713 2.80273,-2.71289 1.27549,-2.75374 1.78097,-3.02734 5.60743,-3.02734 l 4.20507,0 0.66407,-4.21875 c 0.36511,-2.32031 0.95269,-7.38281 1.30468,-11.25 0.63256,-6.94981 0.61826,-7.01226 -1.20507,-5.39063 -3.52463,3.13471 -6.83789,1.4313 -6.83789,-3.51562 0,-1.598446 0.50426,-3.412503 1.12109,-4.031253 0.84503,-0.847669 0.85234,-1.125 0.0254,-1.125 z m -45.00195,7.632813 c -0.36741,0.10607 -0.55033,1.06923 -0.54493,2.88867 0.007,2.44298 -0.52814,3.27528 -2.79492,4.34375 -5.76899,2.71926 -6.28395,3.68979 -5.59765,10.54492 0.48133,4.80788 0.28387,6.89374 -0.86133,9.11524 -0.81686,1.58456 -1.48633,3.33786 -1.48633,3.89453 0,0.55667 1.25299,0.0821 2.7832,-1.05274 2.35049,-1.74323 3.14649,-1.89631 5.12891,-0.99023 2.68246,1.22603 2.38964,1.88164 4.71094,-10.5957 1.67841,-9.02174 1.75233,-12.72264 0.3125,-15.89258 -0.73124,-1.60992 -1.28299,-2.36193 -1.65039,-2.25586 z m 346.87304,4.08594 0.004,2.8125 c 0.003,3.41689 2.48313,18.92636 3.2168,20.11718 0.28922,0.46943 1.91557,0.62628 3.61523,0.34961 2.63324,-0.42866 3.45952,-0.0612 5.58985,2.47852 1.37477,1.63925 2.5,2.51178 2.5,1.93945 0,-0.57232 -1.00405,-3.03082 -2.23243,-5.46289 -1.56798,-3.10446 -2.43734,-6.87931 -2.91797,-12.66992 -0.63291,-7.62531 -0.7887,-8.09774 -2.0625,-6.27344 -1.78951,2.56286 -5.00574,2.09607 -6.53515,-0.94726 l -1.17774,-2.34375 z m -399.642574,2.73047 c -0.335135,0.0688 -0.570313,0.56944 -0.570313,1.31836 0,2.51131 -1.94688,3.89043 -5.15625,3.65234 -2.70381,-0.20058 -2.711916,-0.18759 -3.728515,7.29883 -0.560151,4.125 -1.711727,8.80896 -2.560547,10.4082 -1.53125,2.88495 -1.527697,2.90437 0.652343,2.48633 1.36943,-0.2626 2.849442,0.25041 3.925782,1.36328 1.6973,1.75493 1.746942,1.75251 2.882812,-0.14258 3.92878,-6.5548 7.340099,-24.80109 4.917969,-26.30273 -0.128505,-0.0797 -0.25157,-0.10497 -0.363281,-0.082 z"
       style="fill:#fefe00"
       inkscape:connector-curvature="0" />
    <path
       id="path3584"
       d="m 356.19141,86.048828 c -1.76201,0.01784 -7.72758,1.255393 -8.45508,1.841797 -0.4975,0.401011 3.76613,5.871094 4.57617,5.871094 0.40657,0 0.73828,-0.615672 0.73828,-1.369141 0,-1.764815 1.28181,-1.751964 2.75391,0.02734 1.79173,2.165658 -0.18336,5.391343 -5.05274,8.253908 -2.9896,1.75749 -7.18423,2.97487 -14.38867,4.17578 -15.24718,2.5416 -22.97668,1.0056 -20.99609,-4.17188 0.30215,-0.789849 0.14137,-1.435542 -0.35938,-1.435542 -1.68002,-10e-7 -2.01672,2.831962 -0.65039,5.482422 1.04289,2.02303 2.13979,2.71995 4.77344,3.0332 4.05612,0.48244 9.8714,0.0517 19.80859,-1.46875 11.79819,-1.80516 20.78298,-8.183287 19.08594,-13.546872 -0.29977,-0.947437 -1.37194,-2.165379 -2.38086,-2.707032 -1.76505,-0.947574 -1.77,-1.030496 -0.16601,-2.207031 0.91687,-0.672524 1.44933,-1.440457 1.18359,-1.707031 -0.0526,-0.05274 -0.21899,-0.07482 -0.4707,-0.07227 z M 185.26367,110.42383 c -1.80871,0.0183 -7.9329,1.28868 -8.67969,1.89062 -0.51069,0.41164 3.86576,6.02735 4.69727,6.02735 0.41735,0 0.75781,-0.63281 0.75781,-1.40625 0,-1.81159 1.31702,-1.79913 2.82813,0.0273 1.83922,2.22306 -0.18906,5.53423 -5.1875,8.47266 -3.06884,1.80408 -7.37609,3.05436 -14.77149,4.28711 -15.65132,2.60896 -23.58387,1.03346 -21.55078,-4.28125 0.31016,-0.81078 0.14293,-1.47461 -0.37109,-1.47461 -1.72455,0 -2.06857,2.90623 -0.66602,5.62695 1.07053,2.07665 2.19693,2.79367 4.90039,3.11523 4.16363,0.49523 10.13145,0.051 20.33203,-1.50976 12.11091,-1.85301 21.33382,-8.39659 19.5918,-13.90234 -0.30771,-0.97256 -1.40573,-2.22329 -2.44141,-2.7793 -1.81183,-0.97269 -1.81838,-1.05986 -0.17187,-2.26758 0.94117,-0.69035 1.48762,-1.47831 1.21484,-1.75195 -0.054,-0.0541 -0.22403,-0.0768 -0.48242,-0.0742 z"
       style="fill:#fe0000"
       inkscape:connector-curvature="0" />
  </g>
</svg>
