<?xml version="1.0" encoding="UTF-8" standalone="no"?>
<!-- Created with Inkscape (http://www.inkscape.org/) -->

<svg
   xmlns:dc="http://purl.org/dc/elements/1.1/"
   xmlns:cc="http://creativecommons.org/ns#"
   xmlns:rdf="http://www.w3.org/1999/02/22-rdf-syntax-ns#"
   xmlns:svg="http://www.w3.org/2000/svg"
   xmlns="http://www.w3.org/2000/svg"
   xmlns:sodipodi="http://sodipodi.sourceforge.net/DTD/sodipodi-0.dtd"
   xmlns:inkscape="http://www.inkscape.org/namespaces/inkscape"
   id="svg3506"
   version="1.1"
   inkscape:version="0.91 r13725"
   width="500"
   height="182.8125"
   viewBox="0 0 500 182.8125"
   sodipodi:docname="fx131101.svg">
  <metadata
     id="metadata3512">
    <rdf:RDF>
      <cc:Work
         rdf:about="">
        <dc:format>image/svg+xml</dc:format>
        <dc:type
           rdf:resource="http://purl.org/dc/dcmitype/StillImage" />
        <dc:title></dc:title>
      </cc:Work>
    </rdf:RDF>
  </metadata>
  <defs
     id="defs3510" />
  <sodipodi:namedview
     pagecolor="#ffffff"
     bordercolor="#666666"
     borderopacity="1"
     objecttolerance="10"
     gridtolerance="10"
     guidetolerance="10"
     inkscape:pageopacity="0"
     inkscape:pageshadow="2"
     inkscape:window-width="874"
     inkscape:window-height="884"
     id="namedview3508"
     showgrid="false"
     inkscape:zoom="0.576"
     inkscape:cx="-121.52777"
     inkscape:cy="91.40625"
     inkscape:window-x="0"
     inkscape:window-y="0"
     inkscape:window-maximized="0"
     inkscape:current-layer="svg3506" />
  <g
     id="g3516"
     transform="translate(12.725051,-1.2238855)">
    <path
       style="fill:#fefefe"
       d="m 63.263389,146.5083 c -5.221581,-2.91497 -5.220754,-2.5498 -0.03435,-15.19262 5.653441,-13.78133 5.648646,-13.74072 2.442401,-20.69068 -1.546185,-3.35156 -3.32848,-7.70405 -3.960654,-9.67219 -0.632173,-1.968138 -1.341055,-3.386191 -1.575292,-3.151216 -0.234239,0.234965 0.845586,3.743696 2.399608,7.797186 2.673549,6.97363 2.761308,7.62205 1.631907,12.05747 l -1.193589,4.6875 -9.865667,4.05728 c -9.690167,3.98511 -9.903997,4.13938 -12.020294,8.67188 -1.185045,2.53803 -2.503298,4.61459 -2.929451,4.61459 -1.078918,0 -0.967316,-4.96935 0.21701,-9.66298 0.94544,-3.7469 1.421126,-4.16031 10.169183,-8.83778 l 9.177349,-4.90701 0.610503,-7.28049 c 1.323601,-15.784452 1.605077,-17.162544 3.800153,-18.605308 4.702734,-3.090979 7.692626,1.49958 10.760347,16.520998 l 2.209934,10.82118 -5.30825,11.60268 c -2.919538,6.38148 -5.308251,12.12679 -5.308251,12.76736 0,0.64057 1.261683,2.22962 2.803739,3.53124 5.012883,4.23124 2.836348,4.70204 -4.026331,0.87091 z m 37.857421,-1.68963 c -2.242969,-4.63113 -2.563492,-7.05898 -1.122735,-8.50424 2.008295,-2.01457 3.859795,-22.0244 3.244485,-35.06443 -0.56836,-12.045064 -0.50135,-12.758114 1.38755,-14.765625 1.09162,-1.160156 2.79981,-2.109375 3.79596,-2.109375 2.55057,0 4.9417,4.019128 4.29991,7.227525 -0.28784,1.438924 -0.96945,7.678725 -1.51469,13.866225 -0.64299,7.29677 -2.14001,15.43601 -4.26015,23.16242 -3.08811,11.25393 -3.23844,12.95449 -1.66111,18.7907 0.92833,3.43488 -2.18689,1.48978 -4.16922,-2.6032 z m 306.91195,2.4673 c -1.51868,-1.68336 -1.47395,-2.25071 0.85284,-10.81827 1.35056,-4.97295 3.06868,-10.51369 3.81804,-12.31277 1.34764,-3.23545 1.30119,-3.38647 -4.26871,-13.87907 -3.09715,-5.83442 -5.63119,-11.241351 -5.63119,-12.015397 0,-1.748194 2.94282,-4.510463 4.80528,-4.510463 3.0515,0 6.19728,5.251556 9.48417,15.83285 l 3.31648,10.6766 -3.07667,8.54215 c -1.69217,4.69818 -3.61949,9.85103 -4.28294,11.45078 -1.42178,3.42826 -0.6904,5.98312 1.90793,6.66472 3.13905,0.82344 2.07365,2.1454 -1.72903,2.1454 -2.34017,0 -4.15246,-0.6196 -5.1962,-1.77653 z M 169.56057,125.54776 c 0.73745,-6.53855 0.19399,-5.02148 9.04002,-25.23526 3.72321,-8.507813 7.82682,-16.628906 9.11911,-18.046875 3.99501,-4.383514 7.6074,-2.90673 7.6074,3.109982 0,2.712919 -1.44396,5.601116 -6.84581,13.692915 -3.7652,5.640138 -9.29243,15.188308 -12.28275,21.218138 -2.99031,6.02984 -5.85187,10.96334 -6.35901,10.96334 -0.57582,0 -0.68058,-2.14134 -0.27896,-5.70224 z m 213.13355,0.41927 c -1.83862,-0.92135 -3.40913,-2.84214 -4.51319,-5.51982 -1.89288,-4.59089 -16.33435,-26.707043 -20.00718,-30.639698 -2.27689,-2.437954 -2.30829,-2.628684 -0.81041,-4.921875 1.69594,-2.596425 2.92688,-2.870126 6.60289,-1.468145 1.9316,0.736689 4.05165,4.346285 10.75828,18.317098 4.59394,9.5698 9.6369,19.02623 11.20657,21.0143 1.56969,1.98807 2.85397,3.87038 2.85397,4.18289 0,0.99789 -3.17918,0.49434 -6.09093,-0.96475 z m -229.8064,-18.84051 c -1.49587,-0.22277 -3.59867,-0.94084 -4.6729,-1.59573 -1.07422,-0.65487 -9.10267,-3.22421 -17.84099,-5.709634 -8.73832,-2.485425 -16.21303,-4.793615 -16.61047,-5.129306 -0.39743,-0.335691 -0.23594,-2.725342 0.35889,-5.310331 l 1.08151,-4.699979 19.26728,8.991635 c 10.597,4.945403 21.05466,9.694055 23.23924,10.552565 6.91074,2.71582 4.33575,4.26468 -4.82256,2.90078 z m 82.38234,-3.02594 c -4.42271,-0.86037 -4.83202,-1.29107 -3.4051,-3.58307 1.14453,-1.838407 1.19999,-1.836794 7.25252,0.21126 7.11142,2.40636 8.60892,4.32469 3.25012,4.16342 -1.9704,-0.0593 -5.1643,-0.41552 -7.09754,-0.79161 z m -24.3232,-7.501742 c -8.11475,-2.464247 -15.00957,-4.736748 -15.32184,-5.049996 -0.75248,-0.754819 2.49407,-9.222281 3.39736,-8.860842 0.38591,0.154412 7.894,3.614132 16.68467,7.688266 14.32222,6.6378 15.88693,7.5876 15.05837,9.140625 -1.29284,2.423239 -3.11159,2.155449 -19.81856,-2.918053 z m 71.51011,-10.038801 c -1.84379,-0.744165 -4.11243,-5.82703 -3.48535,-7.808936 0.8138,-2.572098 3.73912,-3.16366 6.54022,-1.322573 2.15305,1.415142 4.73055,1.537024 23.40709,1.106851 11.54318,-0.265872 20.98474,-0.220879 20.98123,0.09998 -0.004,0.320864 -1.37034,1.501169 -3.03738,2.6229 -2.54842,1.714783 -6.08495,2.349172 -22.21177,3.984375 -20.31665,2.060039 -20.34923,2.061972 -22.19404,1.3174 z m -26.3822,-1.520165 c -2.20436,-1.115636 -2.36922,-1.737613 -2.91608,-11.001804 -0.31879,-5.400625 -0.89789,-12.708223 -1.28689,-16.239108 -0.64849,-5.886435 -0.5673,-6.392703 0.97743,-6.09375 2.34706,0.454231 4.66441,7.049153 6.19604,17.633258 1.44096,9.957607 1.55183,10.068483 10.25494,10.255582 3.936,0.08462 4.52939,0.403641 6.27689,3.3747 l 1.92996,3.28125 -9.54793,-0.01382 c -5.79894,-0.0084 -10.46532,-0.478123 -11.88436,-1.196309 z m 91.35497,-0.89579 c -7.38158,-2.239196 -7.37498,-2.225759 -9.09449,-18.519082 -0.57137,-5.414063 -1.27734,-11.214844 -1.56883,-12.890625 -0.31048,-1.785001 -0.13721,-3.046875 0.41837,-3.046875 2.07602,0 4.63443,6.624491 6.16198,15.955182 1.70405,10.408894 2.72065,12.16139 7.0655,12.180136 1.31531,0.0057 3.90478,0.261427 5.75438,0.568338 l 3.36292,0.558021 -2.19469,2.201548 c -1.20709,1.210851 -2.19469,2.853536 -2.19469,3.650411 0,1.729267 0.21716,1.747773 -7.71045,-0.657054 z M 39.252336,75.709807 c 0,-1.508396 7.900141,-6.648135 18.691589,-12.160531 5.557839,-2.839008 7.880251,-3.528692 11.214954,-3.330491 3.665055,0.217837 4.247045,0.544459 4.528009,2.541189 0.501383,3.563202 -1.962779,4.734681 -8.642971,4.108926 -5.696443,-0.533604 -5.82424,-0.491961 -13.08827,4.264867 -4.034611,2.642053 -7.878141,4.803733 -8.541178,4.803733 -0.663036,0 -1.870758,0.256073 -2.683827,0.569052 -0.931128,0.358424 -1.478306,0.06352 -1.478306,-0.796745 z M 412.20607,68.253305 c -0.57486,-0.672131 -2.18957,-2.743403 -3.58826,-4.602827 -1.39867,-1.859425 -4.33043,-5.588714 -6.51501,-8.287311 -3.93832,-4.864985 -5.10883,-8.488167 -2.74218,-8.488167 0.67637,0 2.16476,1.668798 3.30754,3.70844 1.14277,2.039641 4.89663,6.260518 8.34191,9.379727 5.20172,4.709415 6.09563,5.939278 5.27055,7.251386 -1.34314,2.135975 -2.81516,2.511246 -4.07455,1.038752 z M 367.47664,63.5625 c -2.00471,-2.010976 -1.21281,-3.576645 4.48598,-8.869205 3.08411,-2.864267 5.60982,-5.900597 5.61269,-6.747401 0.003,-0.846804 0.44319,-3.121675 0.9785,-5.055269 0.70019,-2.529143 1.48546,-3.515625 2.79853,-3.515625 1.87402,0 2.47192,1.363417 0.99849,2.276893 -0.45471,0.281904 -1.09919,2.334989 -1.43217,4.562413 -0.39806,2.662822 -1.79536,5.521807 -4.07979,8.347626 -1.91092,2.36377 -4.1908,5.609019 -5.06643,7.211666 -1.72957,3.16561 -2.57318,3.516913 -4.2958,1.788902 z m 48.08578,-0.592755 c -2.19197,-2.429672 -1.91798,-4.413353 0.91876,-6.651701 3.56489,-2.812905 5.01673,-2.492378 4.99984,1.103831 -0.0151,3.228252 -0.48075,4.212429 -2.88122,6.09044 -1.22534,0.958654 -1.77095,0.861192 -3.03738,-0.54257 z m -300.3755,-2.156708 c -1.47805,-1.50311 -1.47802,-2.842172 8e-5,-4.869914 1.05021,-1.440745 2.09359,-1.506497 10.32265,-0.65052 8.38046,0.871724 9.46145,0.795066 12.78699,-0.906793 1.99793,-1.022459 3.89625,-2.28692 4.21847,-2.809913 0.6913,-1.122044 5.14844,-1.293416 5.14844,-0.197952 0,0.41412 -2.41822,2.463295 -5.37383,4.553722 -4.60198,3.254867 -6.31348,3.892927 -11.91589,4.442347 -3.59813,0.352863 -8.2243,0.863305 -10.28037,1.134315 -2.37657,0.313255 -4.16386,0.05998 -4.90654,-0.695292 z M 74.454829,60.3125 c -1.248438,-1.25234 -0.579447,-5.686485 1.08605,-7.198449 0.940007,-0.853354 2.83253,-1.551551 4.205608,-1.551551 2.267635,0 2.496504,0.326594 2.496504,3.5625 0,1.959375 -0.504673,4.06875 -1.121496,4.6875 -1.199436,1.203185 -5.634108,1.535785 -6.666666,0.5 z M 196.29456,58.186632 c -1.24958,-2.342164 -1.21898,-3.110922 0.20077,-5.043328 1.04735,-1.425551 2.16635,-1.494206 10.81546,-0.663575 8.82314,0.847346 9.95536,0.768802 13.25434,-0.919473 1.98392,-1.015279 3.87075,-2.273866 4.19297,-2.796859 0.6913,-1.122044 5.14844,-1.293416 5.14844,-0.197952 0,0.41412 -2.46499,2.496736 -5.47775,4.628036 -5.07292,3.588697 -6.07634,3.923811 -13.57696,4.53431 -4.45457,0.362569 -8.3228,1.022141 -8.59609,1.465713 -0.93036,1.510048 -4.98361,0.825433 -5.96118,-1.006872 z m 77.1548,-2.210436 C 271.9055,53.945779 267.81207,51.12322 262.16057,48.192212 254.0436,43.982545 251.10201,41.25 254.68727,41.25 c 2.42716,0 23.86544,11.222226 24.47317,12.810888 0.61934,1.619017 -0.61613,4.207109 -2.27277,4.761047 -0.55889,0.18688 -2.10614,-1.093703 -3.43831,-2.845739 z m 92.58334,-0.503141 c -1.94265,-2.153313 -1.95399,-3.847571 -0.044,-6.582898 l 1.50266,-2.152041 2.23566,2.106861 c 2.67474,2.520642 2.84281,4.688242 0.52656,6.790972 -2.13806,1.940971 -2.32944,1.933585 -4.22081,-0.162894 z M 114.95327,51.22018 c 0,-3.165697 3.42585,-7.15768 6.1426,-7.15768 1.96064,0 2.26862,0.436343 2.26862,3.214285 0,3.938758 -2.0465,6.160715 -5.67424,6.160715 -2.25477,0 -2.73698,-0.390649 -2.73698,-2.21732 z m 85.98131,-3.469312 c 0,-3.564088 1.49255,-6.500868 3.30391,-6.500868 2.21404,0 1.83915,7.181622 -0.43873,8.404515 -2.63709,1.415735 -2.86518,1.264186 -2.86518,-1.903647 z m 72.19626,1.237837 c -3.50632,-1.750492 -3.61667,-2.132358 -1.40187,-4.851227 1.52705,-1.87459 1.77497,-1.90904 3.73832,-0.51945 1.36834,0.968463 2.1028,2.45207 2.1028,4.247632 0,3.141252 -0.26327,3.207856 -4.43925,1.123045 z"
       id="path3526"
       inkscape:connector-curvature="0" />
    <path
       style="fill:#fefe00"
       d="m 410.74766,94.6875 c -2.08245,-2.308269 -3.96921,-2.378009 -6.34082,-0.234375 -1.79222,1.619953 -1.79448,1.593375 -0.17818,-2.109375 1.79713,-4.117006 3.07392,-10.962553 3.17975,-17.048344 0.0375,-2.15784 0.48124,-5.013061 0.98605,-6.344937 l 0.91781,-2.421593 1.88593,1.891812 c 2.44017,2.447802 3.233,2.384594 5.44316,-0.43396 l 1.82375,-2.325771 0.61139,3.028896 c 0.61214,3.032569 -4.77618,27.872647 -6.04614,27.872647 -0.32513,0 -1.35233,-0.84375 -2.2827,-1.875 z M 69.158879,92.084112 c 0,-0.606863 -1.051402,-1.794445 -2.336449,-2.639072 -2.178066,-1.431583 -2.509276,-1.422089 -4.885981,0.140054 l -2.549532,1.675738 1.83765,-2.739791 c 1.228497,-1.831592 1.868981,-4.449009 1.932165,-7.896041 0.05198,-2.835938 0.599814,-6.952925 1.217404,-9.14886 1.010818,-3.594119 1.352949,-3.934689 3.427915,-3.412279 2.993942,0.75378 6.94544,-1.817251 7.023543,-4.569848 0.05702,-2.009551 0.09399,-2.00038 0.986778,0.244824 0.708658,1.782144 0.230335,5.321839 -2.026967,15 -2.572844,11.031041 -4.626526,16.954919 -4.626526,13.345275 z M 111.82164,85.60323 c -2.00212,-2.662559 -4.6759,-2.771298 -7.14874,-0.29073 -1.68991,1.695191 -1.86808,1.717667 -1.8579,0.234375 0.007,-0.902344 1.04968,-3.462698 2.31888,-5.689675 1.3717,-2.406836 2.9074,-7.539961 3.78643,-12.65625 1.42537,-8.296234 3.22649,-12.82595 5.09989,-12.82595 0.52225,0 0.45174,0.971479 -0.16983,2.339942 -1.55329,3.419748 1.31612,6.460315 5.46004,5.785746 l 2.97698,-0.484606 -1.429,4.851333 c -0.78595,2.668235 -1.63114,5.186098 -1.87819,5.595254 -0.24705,0.409155 -1.59238,4.020452 -2.98961,8.025104 -2.53951,7.27854 -2.54102,7.280399 -4.16895,5.115457 z m 164.80363,-2.400105 c -2.39326,-3.937507 -2.34179,-4.868093 0.54229,-9.804788 2.90133,-4.966209 2.49725,-8.182581 -1.51204,-12.035727 -3.05106,-2.932243 -3.8666,-5.471826 -0.88916,-2.76886 1.80491,1.63853 1.93578,1.636369 3.80759,-0.06289 1.2157,-1.103632 1.78959,-2.540775 1.53924,-3.854539 -0.32205,-1.689927 -0.10763,-1.938264 1.1094,-1.284895 4.48805,2.409433 6.96448,9.150215 6.0815,16.553633 -0.81266,6.813848 -1.07036,7.369671 -2.76339,5.960193 -1.06276,-0.884772 -1.97714,-0.925581 -3.6462,-0.162733 -3.0092,1.375372 -3.72686,4.194893 -1.94669,7.648126 1.98834,3.857047 0.0402,3.699755 -2.32254,-0.18752 z m -80.25611,0.145301 C 196.2392,81.540248 193.33044,78.75 191.57543,78.75 c -0.69742,0 -2.27564,0.949219 -3.50715,2.109375 l -2.2391,2.109375 0.65454,-2.8125 c 0.36,-1.546875 1.21425,-3.714589 1.89835,-4.817141 0.68411,-1.102554 1.922,-5.925569 2.75087,-10.717813 C 192.54514,56.456531 193.79293,52.5 194.95567,52.5 c 0.27356,0 0.22389,0.864406 -0.11038,1.920903 -1.36599,4.317318 4.66879,8.50403 7.77153,5.391597 2.04238,-2.048753 1.27915,2.452587 -1.80921,10.67042 -1.61189,4.289081 -3.24577,9.274892 -3.63084,11.07958 -0.38508,1.804687 -0.7485,2.608354 -0.80761,1.785926 z m 160.24218,-0.222714 c 0.33934,-0.887102 2.43616,-2.682346 4.65959,-3.989431 4.84426,-2.847795 6.50772,-6.657274 5.083,-11.640501 -1.33096,-4.655296 -1.17686,-5.194928 0.93579,-3.27703 1.79527,1.629772 1.9421,1.630628 3.71446,0.02166 1.01491,-0.921355 2.0966,-2.469429 2.40374,-3.440164 0.79802,-2.522225 2.08213,-1.317473 3.25572,3.054531 1.33207,4.962384 -0.66568,11.056963 -5.44022,16.596631 -3.47162,4.027935 -3.49835,4.038936 -6.28017,2.5839 -3.57714,-1.871025 -5.03737,-1.847649 -7.1996,0.115254 -1.64551,1.493819 -1.71271,1.492344 -1.13231,-0.02485 z"
       id="path3522"
       inkscape:connector-curvature="0" />
    <path
       style="fill:#fe0000"
       d="m 165.18692,137.27628 c -1.41356,-0.76927 -2.5701,-1.80706 -2.5701,-2.30622 0,-1.26484 1.08805,-1.08603 3.21601,0.5285 2.71393,2.05913 7.58071,1.66986 13.7294,-1.09813 4.45817,-2.00696 5.29396,-2.71986 4.42294,-3.77266 -0.59067,-0.71394 -0.90889,-1.44078 -0.70713,-1.61519 0.6006,-0.5192 8.31075,-1.37018 8.31075,-0.91728 0,0.2293 -0.84968,2.08759 -1.88815,4.12955 -1.88746,3.71127 -3.71933,4.88688 -3.71933,2.38687 0,-0.98685 -1.43727,-0.62737 -5.62237,1.40625 -6.2112,3.01816 -11.18085,3.43032 -15.17202,1.25831 z m 52.34121,-27.44445 c -1.92495,-0.85282 -3.48835,-1.76152 -3.47424,-2.01933 0.0141,-0.25781 1.57074,-1.19651 3.45916,-2.08599 2.51306,-1.18372 3.61295,-1.32597 4.10297,-0.53062 1.30106,2.11176 8.29639,-3.68275 10.48686,-8.686687 1.8718,-4.275981 3.41114,-5.927328 3.41114,-3.659355 0,3.828358 -7.67148,13.068182 -11.99213,14.443782 -1.2642,0.4025 -1.68525,1.1569 -1.35427,2.42649 0.56471,2.1662 0.0271,2.17915 -4.63949,0.11171 z"
       id="path3520"
       inkscape:connector-curvature="0" />
    <path
       style="fill:#000000"
       d="m 45.794393,149.29655 20.093457,-0.27403 -4.048524,-2.4227 c -4.717624,-2.8231 -4.722392,-2.66296 0.455127,-15.28414 4.678868,-11.40562 5.604571,-14.82947 4.349755,-16.08821 -0.749038,-0.75138 -1.202582,-0.002 -1.666705,2.75365 -0.3507,2.08226 -1.185825,4.24232 -1.855834,4.80011 -0.670008,0.5578 -5.158161,2.61033 -9.973671,4.56119 -8.31227,3.36747 -8.883041,3.78156 -11.275538,8.18042 -4.207924,7.73672 -6.739459,4.98411 -4.529609,-4.92517 l 1.086291,-4.87108 9.056457,-4.86567 c 4.981051,-2.67613 9.121648,-4.91383 9.201324,-4.97267 0.07967,-0.0589 0.642847,-5.80231 1.251489,-12.76325 0.843057,-9.641903 1.555201,-13.390166 2.990056,-15.737723 1.329536,-2.175243 1.720866,-3.967352 1.330649,-6.09375 -0.304032,-1.656752 0.06764,-5.33259 0.825947,-8.168527 0.758303,-2.835938 1.383724,-5.261719 1.389825,-5.390625 C 64.480964,67.605469 63.201223,67.5 61.630964,67.5 c -1.812872,0 -4.964431,1.436951 -8.633869,3.936606 -9.0582,6.170528 -16.149545,7.821401 -14.443852,3.362543 1.215816,-3.178266 24.83318,-15.717991 29.624327,-15.729143 2.507788,-0.0058 2.975078,-0.257506 2.102804,-1.132506 -1.398828,-1.403199 -1.44646,-4.951665 -0.100336,-7.474782 1.67939,-3.147775 -0.451765,-4.418541 -3.99202,-2.380363 -3.620032,2.084105 -4.819539,1.141404 -1.737136,-1.365229 1.692517,-1.376367 3.052377,-1.712374 5.140187,-1.270085 1.561361,0.330765 4.406477,0.566937 6.322481,0.524829 4.99849,-0.109854 7.26402,2.465629 7.26402,8.257829 0,4.826911 -1.873243,7.645301 -5.081448,7.645301 -1.308843,0 -1.537895,0.500975 -1.074975,2.351156 0.348735,1.393816 -0.740911,7.881953 -2.676085,15.934363 l -3.26435,13.583206 2.486151,11.978755 2.48615,11.97876 -5.316226,11.62012 c -2.923924,6.39106 -5.316226,12.1041 -5.316226,12.69563 0,0.59153 1.512499,2.41876 3.361109,4.06051 l 3.361109,2.985 14.86319,0 c 8.174751,0 14.863191,-0.22775 14.863191,-0.5061 0,-0.27835 -0.84112,-2.15998 -1.86916,-4.1814 -2.059748,-4.05007 -2.359822,-6.6328 -0.936505,-8.06057 2.114935,-2.12154 3.825485,-22.06144 3.181825,-37.09048 -0.62701,-14.640202 -0.62179,-14.694914 1.82189,-19.080784 1.49123,-2.676443 3.02751,-7.755842 3.924,-12.973949 1.29319,-7.527018 3.21523,-12.794217 4.66871,-12.794217 0.25701,0 -0.14654,0.949219 -0.89676,2.109375 -0.75023,1.160156 -2.02951,5.982615 -2.84285,10.716575 -0.87903,5.116289 -2.41473,10.249414 -3.78643,12.65625 -1.2692,2.226978 -2.31269,4.787331 -2.31888,5.689675 -0.0102,1.483292 0.16799,1.460816 1.8579,-0.234375 2.54978,-2.557749 5.09689,-2.35313 7.4088,0.59518 1.31234,1.673576 1.93699,2.001843 1.93699,1.017919 0,-0.798743 1.43649,-5.228266 3.1922,-9.843384 1.75571,-4.615119 3.6051,-9.8912 4.10975,-11.724625 l 0.91757,-3.333501 -2.95239,0.480603 c -4.03795,0.657316 -6.98179,-2.385284 -5.48861,-5.672721 0.8773,-1.931476 0.71633,-2.356986 -1.2278,-3.245558 -2.62819,-1.201224 -3.64505,-4.462661 -2.96864,-9.521427 0.58686,-4.389043 -0.008,-5.204599 -2.28767,-3.135279 -2.45514,2.228817 -3.39789,0.663672 -1.0306,-1.71101 1.39218,-1.396532 2.47747,-1.756481 3.6864,-1.222642 0.94234,0.416118 3.67501,0.649559 6.0726,0.518758 3.3808,-0.18444 4.79673,0.201041 6.30841,1.717434 2.5895,2.597601 2.70849,9.631044 0.20541,12.14195 -1.70195,1.707263 -1.57483,1.762012 5.30226,2.283751 7.1758,0.544401 10.43075,-0.306479 14.35506,-3.752586 1.74571,-1.532964 5.58247,-1.326384 6.12564,0.329816 0.19462,0.593412 -2.2462,2.913724 -5.42402,5.15625 -4.89838,3.456699 -6.83016,4.220023 -12.69121,5.014822 l -6.91337,0.9375 -3.32134,9.375 c -1.82674,5.15625 -3.52772,10.044282 -3.77995,10.862293 -0.35722,1.158521 4.15334,3.598846 20.40482,11.039502 26.17992,11.986335 25.53632,11.651375 25.53632,13.290395 0,1.08377 -1.25036,1.32119 -5.97966,1.13539 -3.28881,-0.12921 -6.50285,-0.67049 -7.14229,-1.20283 -1.12041,-0.93277 -35.22387,-11.236406 -35.71971,-10.791956 -0.13394,0.120056 -0.67467,4.819296 -1.20163,10.442746 -0.56105,5.98737 -2.31139,15.16105 -4.22371,22.13688 -3.08473,11.2526 -3.23498,12.95549 -1.65792,18.7907 0.41996,1.5539 8.42663,1.64063 151.45986,1.64063 148.16706,0 150.9862,-0.0336 149.41371,-1.77653 -1.51868,-1.68336 -1.47395,-2.25071 0.85284,-10.81827 1.35056,-4.97295 3.06868,-10.51369 3.81804,-12.31277 1.34764,-3.23545 1.30119,-3.38647 -4.26871,-13.87907 -3.09715,-5.83442 -5.62196,-11.623138 -5.61067,-12.863826 0.0113,-1.240678 0.83017,-4.044985 1.81973,-6.231785 1.05993,-2.342302 2.06029,-7.350026 2.43461,-12.1875 0.34948,-4.516325 1.16408,-9.517069 1.81025,-11.112765 1.14068,-2.816899 1.01457,-3.089521 -4.33675,-9.375 -5.47648,-6.432503 -7.15566,-9.679528 -5.9868,-11.576701 0.87307,-1.417054 3.27349,-1.223517 3.86061,0.311265 0.39722,1.038379 1.053,1.091939 3.23833,0.264487 2.22838,-0.843746 3.0171,-0.759853 4.22229,0.449108 1.06632,1.069649 2.60955,1.359184 5.50161,1.032189 3.23012,-0.36522 4.40812,-0.06471 5.99795,1.530094 2.64501,2.653274 2.75288,9.645168 0.18849,12.217569 -1.52405,1.528817 -1.6535,2.334525 -0.87159,5.424663 0.76739,3.032714 0.38533,5.750858 -2.32467,16.538765 l -3.24299,12.909599 3.56102,11.277148 3.56102,11.27714 -2.59166,7.6911 c -1.42542,4.23012 -3.27912,9.02465 -4.11934,10.65454 -2.19929,4.26624 -1.94579,6.6935 0.80877,7.74405 1.28505,0.4901 2.33645,1.31485 2.33645,1.83277 0,0.59154 7.21074,1.04338 19.39252,1.21517 10.66589,0.15042 -77.54673,0.27329 -196.02803,0.27307 -118.48131,-2.4e-4 -206.378509,-0.12374 -195.327107,-0.27446 z m 24.299065,-0.76333 c 0,-0.2911 -1.261682,-1.59422 -2.803738,-2.89583 -1.542056,-1.30162 -2.803739,-2.89067 -2.803739,-3.53124 0,-0.64057 2.388713,-6.38588 5.308251,-12.76736 l 5.30825,-11.60268 -2.209934,-10.82118 C 69.878594,92.15679 67.104628,87.735088 62.315475,90.05508 c -1.967115,0.952923 -1.974496,0.93715 -0.220961,-0.472112 2.416872,-1.942366 3.014582,-1.855633 5.687114,0.82525 1.251858,1.25577 2.444904,1.994052 2.651213,1.640625 0.206309,-0.353426 1.709799,-6.342929 3.341089,-13.310006 2.267351,-9.683635 2.747501,-13.216848 2.038442,-15 -0.892791,-2.245204 -0.929757,-2.254375 -0.986778,-0.244824 -0.0781,2.752597 -4.029601,5.323628 -7.023543,4.569848 -2.074966,-0.52241 -2.417097,-0.18184 -3.427915,3.412279 -0.61759,2.195935 -1.160496,6.353615 -1.206457,9.239288 -0.04596,2.885673 -0.625152,5.901224 -1.287089,6.701223 -0.661938,0.800001 -1.396729,2.446808 -1.63287,3.659573 -0.48342,2.482722 -2.30181,21.028476 -2.303013,23.488426 -5.21e-4,1.06233 -3.106254,3.25639 -9.28932,6.5625 -8.86494,4.7401 -9.333771,5.14586 -10.280374,8.89737 -1.184326,4.69363 -1.295928,9.66298 -0.21701,9.66298 0.426153,0 1.744406,-2.07656 2.92945,-4.61459 2.116297,-4.5325 2.330127,-4.68677 12.020294,-8.67188 l 9.865667,-4.05728 1.193589,-4.6875 c 1.129401,-4.43543 1.041642,-5.08384 -1.631907,-12.05747 -1.554022,-4.05349 -2.633846,-7.562221 -2.399608,-7.797186 0.234237,-0.234975 0.943119,1.183078 1.575292,3.151216 0.632174,1.96814 2.414469,6.32063 3.960654,9.67219 3.206245,6.94996 3.21104,6.90935 -2.442401,20.69068 -5.186398,12.64282 -5.187225,12.27765 0.03435,15.19262 4.308646,2.40532 6.83007,3.15286 6.83007,2.02492 z m 35.196572,-1.11135 c -1.57733,-5.83621 -1.427,-7.53677 1.66111,-18.7907 2.12014,-7.72641 3.61716,-15.86565 4.26015,-23.16242 0.54524,-6.1875 1.22685,-12.427301 1.51469,-13.866225 0.64179,-3.208397 -1.74934,-7.227525 -4.29991,-7.227525 -0.99615,0 -2.70434,0.949219 -3.79596,2.109375 -1.8889,2.007511 -1.95591,2.720561 -1.38755,14.765625 0.61531,13.04002 -1.23619,33.04986 -3.244485,35.06443 -1.440757,1.44526 -1.120234,3.87311 1.122735,8.50424 1.98233,4.09298 5.09755,6.03808 4.16922,2.6032 z m 311.5324,0.81247 c 0,-0.45548 -0.839,-1.04825 -1.86444,-1.31724 -2.59833,-0.6816 -3.32971,-3.23646 -1.90793,-6.66472 0.66345,-1.59975 2.59077,-6.7526 4.28294,-11.45078 l 3.07667,-8.54215 -3.31648,-10.6766 c -4.23326,-13.627906 -8.26166,-18.382416 -12.42195,-14.660975 -1.11451,0.996947 -1.12533,0.926972 -0.0725,-0.46875 1.65618,-2.195539 3.7062,-2.067605 6.31864,0.394322 1.18764,1.119225 2.30793,1.857506 2.48953,1.640625 0.18161,-0.216881 1.66731,-5.81054 3.30156,-12.43036 2.00676,-8.128768 2.77749,-13.072691 2.37416,-15.229361 l -0.5972,-3.193322 -1.83392,2.338736 c -2.22064,2.831904 -3.01119,2.896693 -5.45333,0.446923 l -1.88593,-1.891812 -0.78695,2.126187 c -0.43283,1.169403 -1.08416,5.892921 -1.4474,10.496707 -0.36324,4.603786 -1.26177,9.536983 -1.99672,10.96266 -3.18638,6.181042 -2.79167,8.584717 3.29147,20.04414 5.63373,10.61285 5.67916,10.75962 4.33097,13.99636 -0.74936,1.79908 -2.46748,7.33982 -3.81804,12.31277 -2.32678,8.56756 -2.37151,9.13491 -0.85284,10.81827 1.64604,1.82453 8.78967,2.59531 8.78967,0.94837 z M 161.68224,106.79958 c 0,-0.5571 -1.78738,-1.71534 -3.97196,-2.57384 -2.18458,-0.85851 -12.64224,-5.607162 -23.23924,-10.552565 l -19.26728,-8.991635 -1.08151,4.699979 c -0.59483,2.584989 -0.75632,4.97464 -0.35889,5.310331 0.39744,0.335691 7.87215,2.643881 16.61047,5.129306 8.73832,2.485424 16.76677,5.054764 17.84099,5.709634 3.30886,2.01718 13.46742,2.97423 13.46742,1.26879 z M 43.414469,75.9375 c 0.663037,0 4.506567,-2.16168 8.541178,-4.803733 7.26403,-4.756828 7.391827,-4.798471 13.08827,-4.264867 6.680192,0.625755 9.144354,-0.545724 8.642971,-4.108926 -0.280964,-1.99673 -0.862954,-2.323352 -4.528009,-2.541189 -3.334703,-0.198201 -5.657115,0.491483 -11.214954,3.330491 -10.791448,5.512396 -18.691589,10.652135 -18.691589,12.160531 0,0.860264 0.547178,1.155169 1.478306,0.796745 0.813069,-0.312979 2.020791,-0.569052 2.683827,-0.569052 z M 416.28062,67.214553 c 0.82508,-1.312108 -0.0688,-2.541971 -5.27055,-7.251386 -3.44528,-3.119209 -7.19914,-7.340086 -8.34191,-9.379727 -1.14278,-2.039642 -2.63117,-3.70844 -3.30754,-3.70844 -2.36665,0 -1.19614,3.623182 2.74218,8.488167 2.18458,2.698597 5.11634,6.427886 6.51501,8.287311 4.89855,6.51221 5.60295,6.839834 7.66281,3.564075 z m 4.49946,-5.808303 c 0.37765,-0.515625 0.69307,-2.308594 0.70094,-3.984375 0.0169,-3.596209 -1.43495,-3.916736 -4.99984,-1.103831 -2.83674,2.238348 -3.11073,4.222029 -0.91876,6.651701 1.55389,1.72239 3.16458,1.239739 5.21766,-1.563495 z M 130.37383,60.374014 c 5.60241,-0.54942 7.31391,-1.18748 11.91589,-4.442347 2.95561,-2.090427 5.37383,-4.139602 5.37383,-4.553722 0,-1.095464 -4.45714,-0.924092 -5.14844,0.197952 -0.32222,0.522993 -2.22054,1.787454 -4.21847,2.809913 -3.32554,1.701859 -4.40653,1.778517 -12.78699,0.906793 -8.22906,-0.855977 -9.27244,-0.790225 -10.32265,0.65052 -2.67353,3.667698 -0.38564,6.262756 4.90646,5.565206 2.05607,-0.27101 6.68224,-0.781452 10.28037,-1.134315 z M 81.121495,59.8125 c 0.616823,-0.61875 1.121496,-2.728125 1.121496,-4.6875 0,-3.235906 -0.228869,-3.5625 -2.496504,-3.5625 -1.373078,0 -3.265601,0.698197 -4.205608,1.551551 -1.665497,1.511964 -2.334488,5.946109 -1.08605,7.198449 1.032558,1.035785 5.46723,0.703185 6.666666,-0.5 z M 408.08834,49.89933 c -1.19446,-1.198198 -4.35002,-0.690743 -4.35002,0.699542 0,0.390922 0.92573,1.891325 2.05718,3.334227 l 2.05719,2.62346 0.72504,-2.719502 c 0.48878,-1.833353 0.32932,-3.116461 -0.48939,-3.937727 z m -286.19248,2.064955 c 0.80775,-0.810267 1.46863,-2.919642 1.46863,-4.6875 0,-2.777942 -0.30798,-3.214285 -2.26862,-3.214285 -2.71675,0 -6.1426,3.991983 -6.1426,7.15768 0,1.826671 0.48221,2.21732 2.73698,2.21732 1.50535,0 3.39787,-0.662947 4.20561,-1.473215 z m 46.78252,79.264285 c -1.05764,-1.71665 0.44658,-10.79238 2.75311,-16.61094 1.17709,-2.96938 4.68262,-11.09419 7.79007,-18.05513 3.10745,-6.960938 5.9409,-14.132813 6.29656,-15.9375 0.35567,-1.804688 1.21513,-4.183339 1.90994,-5.285891 0.69479,-1.102554 1.9419,-5.954116 2.77136,-10.78125 1.47414,-8.578988 3.24712,-12.995359 5.21706,-12.995359 0.53947,0 0.10922,-1.111581 -0.95612,-2.47018 -1.06535,-1.358599 -1.937,-3.805137 -1.937,-5.436749 0,-2.859538 -0.12261,-2.952209 -3.39857,-2.568565 -2.35835,0.276184 -3.19963,0.07509 -2.74858,-0.657001 0.35749,-0.580252 1.25754,-1.055005 2.00009,-1.055005 0.74256,0 2.91945,-0.84375 4.83755,-1.875 4.49056,-2.414319 9.05225,-2.414319 11.45905,0 2.65333,2.661633 2.64451,10.598902 -0.0138,12.466721 -1.71017,1.201587 -1.22343,1.373082 5.30226,1.868161 7.32517,0.555733 10.54757,-0.276196 14.49433,-3.74202 1.73665,-1.525012 5.58151,-1.329455 6.11947,0.311247 0.19122,0.583199 -2.31218,2.964322 -5.56311,5.291386 -5.37054,3.844317 -6.57014,4.293006 -13.12494,4.90916 -6.18772,0.581647 -7.21418,0.927999 -7.21418,2.434241 0,0.965859 -1.46897,5.662388 -3.26436,10.43673 -1.79539,4.774344 -3.26735,8.942577 -3.27103,9.262742 -0.004,0.320165 7.55837,4.086954 16.80453,8.370644 9.24616,4.283689 16.66162,7.93856 16.47882,8.121944 -0.18281,0.183375 -7.61414,-3.056072 -16.51407,-7.198772 C 206.00685,85.889483 198.62616,82.5 198.50526,82.5 c -0.64604,0 -3.35766,8.569932 -2.86728,9.061848 0.3194,0.3204 8.05535,2.818368 17.191,5.551049 9.13565,2.732672 16.04516,4.992373 15.35447,5.021553 -1.55952,0.0659 -29.92124,-8.2703 -32.13248,-9.444492 -1.32809,-0.705239 -2.48218,0.388279 -6.54205,6.198704 -2.71122,3.880258 -7.90142,12.828608 -11.53378,19.885238 -6.46673,12.56299 -7.98054,14.59101 -9.29676,12.45467 z m 7.52016,-10.94191 c 2.99032,-6.02983 8.51755,-15.578 12.28275,-21.218138 5.40185,-8.091799 6.84581,-10.979996 6.84581,-13.692915 0,-6.016712 -3.61239,-7.493496 -7.6074,-3.109982 -1.84666,2.026248 -11.54349,22.664165 -16.7023,35.547755 -1.32748,3.31525 -2.21474,13.43662 -1.17787,13.43662 0.50714,0 3.3687,-4.9335 6.35901,-10.96334 z m 24.60907,-49.80374 c 3.08836,-8.217833 3.85159,-12.719173 1.80921,-10.67042 -3.10274,3.112433 -9.13752,-1.074279 -7.77153,-5.391597 0.33427,-1.056497 0.38394,-1.920903 0.11038,-1.920903 -1.16274,0 -2.41053,3.956531 -3.82273,12.121296 -0.82887,4.792244 -2.06676,9.615259 -2.75087,10.717813 -0.6841,1.102552 -1.53835,3.270266 -1.89835,4.817141 l -0.65454,2.8125 2.2391,-2.109375 c 1.23151,-1.160156 2.80973,-2.109375 3.50715,-2.109375 1.75501,0 4.66377,2.790248 4.79373,4.598426 0.0591,0.822428 0.42253,0.01876 0.80761,-1.785926 0.38507,-1.804688 2.01895,-6.790499 3.63084,-11.07958 z m 1.44813,-11.289416 c 0.27329,-0.443572 4.14152,-1.103144 8.59609,-1.465713 7.50062,-0.610499 8.50404,-0.945613 13.57696,-4.53431 3.01276,-2.1313 5.47775,-4.213916 5.47775,-4.628036 0,-1.095464 -4.45714,-0.924092 -5.14844,0.197952 -0.32222,0.522993 -2.20905,1.78158 -4.19297,2.796859 -3.29898,1.688275 -4.4312,1.766819 -13.25434,0.919473 -8.64911,-0.830631 -9.76811,-0.761976 -10.81546,0.663575 -1.41975,1.932406 -1.45035,2.701164 -0.20077,5.043328 0.97757,1.832306 5.03082,2.516921 5.96118,1.006872 z m 1.54402,-9.538989 c 2.27788,-1.222893 2.65277,-8.404515 0.43873,-8.404515 -1.81136,0 -3.30391,2.93678 -3.30391,6.500868 0,3.167833 0.22809,3.319382 2.86518,1.903647 z m 178.63566,77.057615 c -2.10603,-1.12655 -3.80419,-3.2178 -5.37542,-6.61975 -2.70932,-5.86604 -17.37128,-28.064503 -20.45736,-30.972792 -1.17846,-1.110565 -5.24896,-2.9656 -9.04555,-4.122299 -8.24028,-2.510547 -8.39035,-2.796117 -10.18117,-19.372289 -1.55691,-14.410931 -1.58607,-16.16187 -0.27669,-16.612701 2.34284,-0.80666 5.56276,6.605335 7.21142,16.600128 0.89192,5.407148 2.11634,10.146781 2.72093,10.532519 0.6046,0.385738 2.57122,0.757717 4.37029,0.826618 1.79906,0.0689 4.53271,0.41627 6.07477,0.771929 6.25136,1.441809 9.70196,-3.320241 7.82473,-10.798653 -0.56573,-2.25376 -0.78355,-4.738341 -0.48403,-5.521292 C 365.19268,60.442357 364.77996,60 363.48919,60 c -1.02999,0 -2.98095,-0.728413 -4.33546,-1.618696 l -2.46274,-1.618696 0.6031,3.024946 c 0.34305,1.720613 0.21787,3.024946 -0.2903,3.024946 -1.45898,0 -2.2275,-4.825196 -1.06574,-6.691277 0.58921,-0.94643 1.0713,-2.7243 1.0713,-3.950822 0,-3.666777 3.40493,-7.170401 6.96843,-7.170401 2.41314,0 3.82236,0.808241 6.40064,3.671002 3.0301,3.364447 3.41952,3.540596 4.66327,2.109375 0.74639,-0.858895 1.65795,-3.241361 2.02569,-5.294368 0.90599,-5.057935 2.09741,-7.048509 4.21876,-7.048509 2.21654,0 3.28441,1.587211 2.07755,3.087942 -0.50015,0.621944 -1.19843,2.889731 -1.55173,5.039528 -0.39743,2.418328 -1.8246,5.27807 -3.74293,7.5 -2.8188,3.264902 -2.99258,3.804282 -1.91232,5.93503 3.42522,6.755973 2.11514,13.065769 -4.31152,20.7657 l -3.87229,4.639474 3.55158,7.688038 c 7.19453,15.573878 12.89322,26.527998 15.57421,29.937028 4.11071,5.22702 1.73376,7.10374 -4.66327,3.68188 z m 6.34963,0.21965 c 0,-0.31251 -1.28428,-2.19482 -2.85397,-4.18289 -1.56967,-1.98807 -6.61263,-11.4445 -11.20657,-21.0143 -6.70663,-13.970812 -8.82668,-17.580409 -10.75828,-18.317098 -3.67601,-1.401981 -4.90695,-1.12828 -6.60289,1.468146 -1.49788,2.29319 -1.46648,2.48392 0.81041,4.921875 3.67283,3.932655 18.1143,26.048817 20.00718,30.639697 1.10406,2.67768 2.67457,4.59847 4.51319,5.51982 2.91175,1.45909 6.09093,1.96265 6.09093,0.96475 z M 355.14019,84.801136 c 0,-0.796875 0.9876,-2.43956 2.19469,-3.650411 l 2.19469,-2.201548 -3.36292,-0.558021 c -1.8496,-0.306911 -4.43907,-0.562663 -5.75438,-0.568338 -4.34485,-0.01875 -5.36145,-1.771242 -7.0655,-12.180136 -1.52755,-9.330691 -4.08596,-15.955182 -6.16198,-15.955182 -0.55558,0 -0.72885,1.261874 -0.41837,3.046875 0.29149,1.675781 0.99746,7.476562 1.56883,12.890625 1.71951,16.293323 1.71291,16.279886 9.09449,18.519082 7.92761,2.404827 7.71045,2.386321 7.71045,0.657054 z m 5.68106,-3.23286 c 0.73055,0.0032 2.58545,0.663341 4.122,1.467032 2.78182,1.455035 2.80855,1.444035 6.28017,-2.5839 4.77454,-5.539668 6.77229,-11.634247 5.44022,-16.596631 -1.17359,-4.372004 -2.4577,-5.576756 -3.25572,-3.054532 -0.30714,0.970736 -1.40192,2.530693 -2.43284,3.466574 -1.81192,1.644898 -1.92792,1.642919 -3.48081,-0.05939 -1.49049,-1.633915 -1.49135,-1.674307 -0.0119,-0.559752 1.98203,1.493125 3.13268,0.814235 5.09149,-3.004003 0.84292,-1.643084 2.92525,-4.624909 4.62741,-6.626279 2.016,-2.370392 3.30884,-5.07052 3.70879,-7.745903 0.33769,-2.258877 0.986,-4.337697 1.44071,-4.619601 1.47346,-0.913474 0.87556,-2.276891 -0.99846,-2.276891 -1.31307,0 -2.09834,0.986482 -2.79853,3.515625 -0.53531,1.933594 -0.97564,4.208465 -0.9785,5.055269 -0.003,0.846803 -2.46193,3.821236 -5.46458,6.609848 -5.96749,5.542108 -7.12262,8.162821 -5.73584,13.01332 1.40196,4.903641 -0.28944,8.736905 -5.10396,11.567219 -2.22343,1.307085 -4.32025,3.102329 -4.65959,3.989431 -0.5804,1.517194 -0.5132,1.518668 1.13231,0.02485 0.96213,-0.873434 2.34705,-1.585463 3.0776,-1.582286 z m 9.43226,-25.932327 c 2.31626,-2.10273 2.14818,-4.27033 -0.52656,-6.790972 l -2.23566,-2.106861 -1.50265,2.152041 c -1.90993,2.735327 -1.89859,4.429585 0.044,6.582898 1.89138,2.096479 2.08275,2.103865 4.22082,0.162894 z M 235.23285,105.03202 c -1.9537,-0.37942 -4.0565,-1.2263 -4.6729,-1.88194 -0.90078,-0.95816 -0.73477,-0.99347 0.84598,-0.17994 1.08166,0.55669 4.81789,1.30519 8.30273,1.66333 8.24538,0.84741 8.00723,-0.98363 -0.51411,-3.95294 -3.30934,-1.153149 -5.56619,-2.129574 -5.01524,-2.16983 1.7462,-0.127594 10.16045,2.92956 11.49202,4.1754 3.06829,2.87075 -1.94018,3.99634 -10.43848,2.34592 z m 34.72214,-17.785219 c -16.89875,-0.651825 -17.61854,-1.060843 -17.61854,-10.011584 0,-3.251426 -0.46377,-10.188013 -1.03059,-15.414639 -0.76326,-7.037958 -0.75659,-9.777813 0.0257,-10.562571 3.05867,-3.068227 6.75754,4.612015 8.57234,17.799354 1.15653,8.40403 1.24106,8.600475 3.9334,9.140625 1.51331,0.303607 4.276,0.550539 6.13932,0.548736 3.12662,-0.003 3.59187,-0.382722 6.03376,-4.924371 3.10293,-5.771069 2.81273,-8.517315 -1.31966,-12.488769 -1.50045,-1.442033 -2.7281,-3.597636 -2.7281,-4.79023 0,-1.560206 -0.53675,-2.168352 -1.91379,-2.168352 -1.05258,0 -2.84698,-1.010081 -3.98755,-2.244625 l -2.07377,-2.244626 -1.77028,3.650876 c -1.74062,3.58971 -3.34429,4.782485 -3.33297,2.479 0.003,-0.644531 0.63401,-2.380254 1.40187,-3.857163 0.76786,-1.476908 1.39611,-2.840895 1.39611,-3.031082 0,-0.190187 -2.1028,-1.414696 -4.67289,-2.72113 -7.94574,-4.038994 -5.24085,-7.99841 2.86301,-4.190896 4.30095,2.020749 4.70089,2.058518 6.31187,0.59605 2.37703,-2.157908 6.89871,-1.953379 9.94435,0.449811 2.06563,1.629901 2.47949,2.607495 2.18286,5.15625 -0.24483,2.103726 0.0252,3.145035 0.81566,3.145035 0.64994,0 2.61827,1.265278 4.3741,2.811728 4.85232,4.273709 5.97964,10.680356 3.77464,21.451496 l -0.45691,2.231974 21.69761,-0.356974 c 15.15206,-0.249285 21.80088,-0.04796 22.03995,0.667345 0.18828,0.563376 -1.24775,2.11481 -3.19119,3.447632 -3.20245,2.196262 -5.33066,2.605361 -22.71429,4.366306 -10.54942,1.068646 -19.59148,1.864209 -20.09346,1.767919 -0.50198,-0.09629 -7.07313,-0.412697 -14.60256,-0.703125 z m 34.69602,-2.004164 c 16.12682,-1.635203 19.66335,-2.269592 22.21177,-3.984375 1.66704,-1.121731 3.03386,-2.302036 3.03738,-2.622899 0.004,-0.320863 -9.43805,-0.365856 -20.98123,-0.09998 -18.67654,0.430173 -21.25404,0.308291 -23.40709,-1.106851 -4.72293,-3.104254 -8.36051,0.664326 -5.67311,5.877417 1.34922,2.61728 2.61269,3.636748 4.71882,3.807542 0.50198,0.04071 9.54404,-0.801175 20.09346,-1.870849 z M 275.5771,82.96875 c -1.7475,-2.971059 -2.34089,-3.290084 -6.27689,-3.3747 -8.70311,-0.187099 -8.81398,-0.297975 -10.25494,-10.255583 -1.53163,-10.584104 -3.84898,-17.179026 -6.19604,-17.633257 -1.54473,-0.298953 -1.62592,0.207315 -0.97743,6.09375 0.389,3.530885 0.9681,10.838483 1.28689,16.239108 0.71296,12.078068 0.83409,12.177895 14.80044,12.198111 l 9.54793,0.01382 -1.92996,-3.28125 z m 3.37071,0.421895 c -1.78017,-3.453233 -1.06251,-6.272754 1.94669,-7.648126 1.66906,-0.762848 2.58344,-0.722038 3.6462,0.162733 1.69303,1.409478 1.95073,0.853656 2.76339,-5.960193 0.88298,-7.403418 -1.59345,-14.144199 -6.0815,-16.553632 -1.21703,-0.653369 -1.43145,-0.405033 -1.1094,1.284894 0.25035,1.313764 -0.32354,2.750907 -1.53924,3.854539 -1.87181,1.699259 -2.00268,1.70142 -3.80759,0.06289 -2.97744,-2.702966 -2.1619,-0.163383 0.88916,2.76886 4.00929,3.853146 4.41337,7.069518 1.51204,12.035727 -2.88408,4.936695 -2.93555,5.867281 -0.54229,9.804788 2.36274,3.887275 4.31088,4.044567 2.32254,0.18752 z m -0.12753,-26.365891 c 0.50405,-0.801569 0.65711,-2.135309 0.34016,-2.963866 C 278.55271,52.472226 257.11443,41.25 254.68727,41.25 c -3.58526,0 -0.64367,2.732545 7.4733,6.942212 5.6515,2.931008 9.74493,5.753567 11.28879,7.783984 2.50616,3.296027 3.79897,3.548418 5.37092,1.048558 z m -1.25019,-9.159094 c 0,-1.795562 -0.73446,-3.279169 -2.1028,-4.247632 -1.96335,-1.38959 -2.21127,-1.35514 -3.73832,0.51945 -2.2148,2.71887 -2.10445,3.100735 1.40187,4.851227 4.17598,2.084811 4.43925,2.018207 4.43925,-1.123045 z"
       id="path3518"
       inkscape:connector-curvature="0" />
  </g>
</svg>
