<?xml version="1.0" encoding="UTF-8" standalone="no"?>
<!-- Created with Inkscape (http://www.inkscape.org/) -->

<svg
   xmlns:dc="http://purl.org/dc/elements/1.1/"
   xmlns:cc="http://creativecommons.org/ns#"
   xmlns:rdf="http://www.w3.org/1999/02/22-rdf-syntax-ns#"
   xmlns:svg="http://www.w3.org/2000/svg"
   xmlns="http://www.w3.org/2000/svg"
   xmlns:sodipodi="http://sodipodi.sourceforge.net/DTD/sodipodi-0.dtd"
   xmlns:inkscape="http://www.inkscape.org/namespaces/inkscape"
   id="svg3336"
   version="1.1"
   inkscape:version="0.91 r13725"
   width="568.2243"
   height="210.9375"
   viewBox="0 0 568.2243 210.9375"
   sodipodi:docname="fx130505.svg">
  <metadata
     id="metadata3342">
    <rdf:RDF>
      <cc:Work
         rdf:about="">
        <dc:format>image/svg+xml</dc:format>
        <dc:type
           rdf:resource="http://purl.org/dc/dcmitype/StillImage" />
        <dc:title></dc:title>
      </cc:Work>
    </rdf:RDF>
  </metadata>
  <defs
     id="defs3340" />
  <sodipodi:namedview
     pagecolor="#ababab"
     bordercolor="#666666"
     borderopacity="1"
     objecttolerance="10"
     gridtolerance="10"
     guidetolerance="10"
     inkscape:pageopacity="0"
     inkscape:pageshadow="2"
     inkscape:window-width="1361"
     inkscape:window-height="894"
     id="namedview3338"
     showgrid="false"
     inkscape:zoom="1.0999178"
     inkscape:cx="220.94699"
     inkscape:cy="46.012259"
     inkscape:window-x="0"
     inkscape:window-y="0"
     inkscape:window-maximized="0"
     inkscape:current-layer="svg3336" />
  <g
     id="g4946"
     transform="translate(-4.1329804e-7,9.0360411)">
    <path
       id="path4619"
       d="m 345.8313,35.83398 c -1.25809,0 -3.60489,2.97207 -4.98632,6.31641 -0.68968,1.66967 -4.82811,6.22197 -9.19727,10.11719 l -7.94336,7.08203 -0.29687,-4.02344 c -0.17299,-2.35326 -1.04965,-4.83163 -2.11133,-5.96875 -2.14151,-2.2937 -1.46326,-3.39909 1.61133,-2.625 1.29982,0.32725 2.19922,0.13722 2.19922,-0.4668 0,-0.5617 -1.126,-1.30446 -2.5,-1.65039 -2.00584,-0.505 -2.88596,-0.1387 -4.47266,1.85742 -1.0869,1.36736 -2.85539,2.48633 -3.92969,2.48633 -3.00373,0 -4.28225,2.29015 -3.9082,7.00782 0.18494,2.33265 -0.0324,4.24218 -0.48438,4.24218 -1.58019,0 -16.67429,-15.50064 -18.42578,-18.92187 -2.24026,-4.37589 -3.46303,-5.119 -5.33594,-3.24024 -1.36287,1.36712 -1.36586,1.76831 -0.0234,4.56446 0.80942,1.68594 6.14665,8.33984 11.86132,14.78515 6.63274,7.48073 10.2024,12.22342 9.86915,13.11524 -0.2871,0.76839 -0.002,4.01972 0.63281,7.22461 0.93265,4.70679 0.92128,6.53715 -0.0625,9.52734 l -1.21875,3.70313 -12.6543,0.67968 c -6.96014,0.3739 -16.05333,0.34677 -20.20703,-0.0605 -11.95631,-1.17241 -14.0957,-1.09635 -14.0957,0.49804 0,0.77344 2.21431,2.59632 4.91992,4.05078 3.99492,2.14756 6.71729,2.79055 14.48633,3.42383 12.46652,1.01618 59.4256,0.48143 70.64843,-0.80468 6.89139,-0.78974 9.59488,-1.55322 12.74805,-3.60157 2.20087,-1.42972 4.78393,-3.08465 5.74024,-3.67578 1.34985,-0.83438 1.49068,-1.33483 0.63085,-2.23633 -0.84228,-0.88311 -2.07376,-0.92226 -5.14062,-0.16406 -2.21795,0.54834 -11.6251,1.29439 -20.9043,1.65625 l -16.87109,0.6582 -1.67969,-5.56836 c -1.36774,-4.53149 -1.49089,-6.25313 -0.6582,-9.26171 0.5626,-2.03275 1.0263,-5.04773 1.0293,-6.69922 0.004,-2.38531 0.7938,-3.63824 3.83984,-6.09375 3.81085,-3.07204 14.85123,-15.70392 18.09766,-20.70703 1.37751,-2.12289 1.49996,-3.05147 0.65039,-4.92188 -0.57591,-1.26794 -1.41207,-2.30469 -1.85743,-2.30469 z"
       style="fill:#000000"
       inkscape:connector-curvature="0" />
    <path
       id="path4617"
       d="m 254.19459,41.70703 c -0.9117,0.0573 -1.7005,1.62335 -2.125,4.51562 -0.76866,5.23708 -4.00087,13.74407 -6.38282,16.79883 l -1.82812,2.34375 0.51562,-4.6875 c 0.71039,-6.47699 -0.5694,-7.89307 -8.08984,-8.95508 -3.32145,-0.46903 -7.19582,-1.12115 -8.60938,-1.44921 -1.62425,-0.37696 -2.56835,-0.21039 -2.56835,0.45117 0,0.57573 0.61058,1.04687 1.35742,1.04687 0.74684,0 2.42525,0.48744 3.73047,1.08399 1.83017,0.83649 2.13692,1.36901 1.34179,2.33008 -1.05683,1.27738 -0.75848,6.00428 0.57422,9.10546 0.57295,1.33325 -0.37945,1.00499 -4.08008,-1.40625 -3.73317,-2.43244 -5.76778,-4.76634 -8.97461,-10.29492 -4.14533,-7.14654 -6.49335,-9.23695 -8.3164,-7.4082 -0.66868,0.67077 0.32012,3.60635 3.18945,9.47851 3.3004,6.7544 5.07461,9.21091 8.61328,11.91797 5.69761,4.35863 9.10547,9.29261 9.10547,13.1836 0,1.67519 -0.67183,6.01197 -1.49414,9.63867 -1.08678,4.79316 -1.25527,7.54274 -0.61719,10.06445 0.4828,1.90803 4.73733,9.25325 9.45508,16.32422 4.71775,7.07097 8.78792,12.85742 9.04492,12.85742 0.25701,0 -3.37871,-5.76317 -8.07812,-12.80664 -9.27108,-13.8955 -11.22797,-18.41924 -8.95899,-20.69531 0.81398,-0.81649 2.13571,-1.13682 3.24024,-0.78516 2.32396,0.7399 4.63089,4.18624 13.6914,20.45899 3.94755,7.08985 7.4079,12.89062 7.68946,12.89062 0.28157,0 -0.37237,-1.50177 -1.45117,-3.33593 -2.7066,-4.60166 -2.46531,-4.98748 1.10742,-1.77149 1.68762,1.51911 1.0825,0.74127 -1.34571,-1.72851 -2.4282,-2.46978 -6.38311,-8.11149 -8.78906,-12.53907 -4.13376,-7.60717 -4.30431,-8.20104 -3.08984,-10.77343 l 1.28515,-2.72266 10.03125,13.38867 c 10.61749,14.17065 14.43126,18.99265 13.16407,16.64063 -0.42518,-0.78919 -5.76495,-8.06549 -11.86719,-16.16993 l -11.0957,-14.73632 0.99218,-9.47461 c 0.58851,-5.61863 1.54213,-10.10329 2.3418,-11.01758 5.86231,-6.70267 11.48815,-25.5536 9.01172,-30.19531 -0.58312,-1.09298 -1.17369,-1.60082 -1.7207,-1.56641 z"
       style="fill:#000000"
       inkscape:connector-curvature="0" />
    <path
       sodipodi:nodetypes="cssscssssssssccscccccssssssssccccsssssssscccssssssscccsccssssssssssscssccssssssssscc"
       inkscape:connector-curvature="0"
       id="path4698"
       d="m 164.72779,62.16992 c -0.82825,0.0971 -1.71789,0.69224 -2.71094,1.79297 -2.11792,2.34759 -1.08608,3.6639 1.22656,1.56445 2.47412,-2.24604 3.76787,-0.40349 3.20899,4.57031 -0.3264,2.90495 -0.004,4.84138 1.08203,6.50391 1.45686,2.2304 1.43993,2.51422 -0.30664,4.93945 -1.08588,1.50782 -2.45137,6.06816 -3.29492,11.01172 -0.8058,4.72223 -2.50559,10.50154 -3.86133,13.125 -2.39216,4.62905 -2.41455,4.86871 -1.83594,19.21875 0.59974,14.8742 -1.14421,34.85256 -3.22461,36.93946 -1.42332,1.42777 -1.1242,4.01047 0.93555,8.06054 1.02804,2.02142 1.86914,3.90134 1.86914,4.17969 0,0.27835 -7.57636,0.50781 -16.83594,0.50781 l -16.83398,0 -2.76367,-3.04687 c -1.51974,-1.67579 -2.77592,-3.50306 -2.79102,-4.06055 -0.0151,-0.55751 2.36513,-6.24369 5.28906,-12.63476 l 5.31641,-11.61915 -2.48633,-11.98046 -2.48633,-11.97852 3.29688,-13.7168 c 1.81304,-7.5442 3.07598,-14.29202 2.80664,-14.99609 -0.31165,-0.81469 0.17873,-1.2793 1.34961,-1.2793 3.24952,0 5.57812,-3.3266 5.57812,-7.96875 0,-5.90648 -2.41381,-8.21338 -8.25781,-7.88867 -2.39759,0.13322 -5.54084,-0.0931 -6.98633,-0.50391 -1.89345,-0.53813 -3.52704,-0.26218 -5.84179,0.98829 -1.76714,0.95463 -3.2129,2.06256 -3.2129,2.46093 0,1.12575 1.25859,0.86033 3.54493,-0.74609 1.15035,-0.80825 2.99527,-1.3356 4.09961,-1.17187 1.79396,0.26594 2.01599,0.91313 2.08789,6.06835 l 0.0801,5.76954 -4.3457,0.57812 c -5.91506,0.7867 -25.56996,11.37691 -26.72656,14.40039 -1.7057,4.45885 5.38516,2.80724 14.44336,-3.36328 3.75665,-2.55907 6.80745,-3.93555 8.7168,-3.93555 2.86422,0 2.9235,0.0873 2.4121,3.51563 -0.28844,1.9336 -0.79562,5.62499 -1.12695,8.20312 -0.33133,2.57813 -1.3547,5.95313 -2.27344,7.5 -1.1457,1.92902 -1.99924,6.48608 -2.71875,14.50782 -0.57698,6.43262 -1.57915,12.49455 -2.22656,13.47265 -0.64742,0.97811 -4.72645,3.74005 -9.06445,6.13672 l -7.88672,4.35742 -1.74805,5.86914 c -1.38891,4.66576 -1.51274,6.15379 -0.60742,7.24805 1.78677,2.15964 2.47911,1.70783 5.28906,-3.44727 2.47072,-4.53276 3.12772,-5.03838 10.88868,-8.36718 9.70996,-4.16478 11.59608,-5.67083 12.38671,-9.89844 0.32343,-1.72938 0.96227,-2.91264 1.41993,-2.62891 1.41633,0.87808 0.92139,4.99201 -1.07227,8.91211 -2.00431,3.94106 -7.44141,18.25452 -7.44141,19.58985 0,0.42953 1.57634,1.77134 3.50391,2.98242 l 3.50586,2.20312 -23.83203,0.49219 c -13.10748,0.27118 70.16369,0.49409 185.04687,0.49609 73.18953,0.001 138.68519,-0.0527 172.41703,-0.13086 l -0.34375,-0.38867 -144.19046,0 c -136.90212,0 -144.60358,-0.0871 -145.02344,-1.64062 -1.57706,-5.83521 -1.42653,-7.53842 1.6582,-18.79102 1.91231,-6.97583 3.66355,-16.14935 4.22461,-22.13672 0.52695,-5.62345 1.06724,-10.32462 1.20117,-10.44726 0.13395,-0.12266 7.11882,1.79724 15.52149,4.26758 8.40267,2.47034 14.91974,4.1575 14.48437,3.74804 -0.43539,-0.40947 -7.45336,-2.67663 -15.5957,-5.03711 -16.78575,-4.86626 -22.42626,-7.51762 -22.88672,-10.75781 -0.34311,-2.41444 2.17195,-5.76758 4.32617,-5.76758 0.76546,0 10.00556,4.02357 20.5332,8.94336 10.52769,4.91979 19.29403,8.79251 19.48047,8.60547 0.18645,-0.18702 -7.25684,-3.85884 -16.54101,-8.16016 -13.05883,-6.05007 -16.77672,-8.15777 -16.42188,-9.30859 0.25227,-0.81818 1.95649,-5.70508 3.78711,-10.86133 l 3.32813,-9.375 6.32812,-0.95703 c 5.27169,-0.79725 7.38899,-1.718 12.67774,-5.5039 3.49209,-2.49977 6.19317,-5.02227 6.00195,-5.60547 -0.53853,-1.64245 -4.3837,-1.83484 -6.11914,-0.30664 -4.11162,3.62067 -8.92313,5.0639 -15.39063,4.61718 -5.84797,-0.40393 -6.20335,-0.54581 -4.43945,-1.78515 1.49365,-1.04947 1.91602,-2.37207 1.91602,-5.98242 0,-6.38988 -2.36203,-8.78402 -8.03516,-8.14258 -2.79131,0.31561 -4.41466,0.056 -5.14453,-0.82617 -0.74241,-0.89735 -1.50964,-1.30019 -2.33789,-1.20313 z"
       style="fill:#000000" />
    <path
       id="path4611"
       d="m 208.28248,126.85351 c -0.77103,0.003 0.88203,0.94869 3.67187,2.10157 2.78983,1.15288 5.26282,2.66905 5.49609,3.37109 0.57628,1.73422 -10.29399,0.53905 -13.73242,-1.50976 l -2.44336,-1.45508 2.33594,1.93945 c 1.28505,1.06689 3.59857,2.11374 5.14063,2.32617 5.4738,0.75406 9.3457,0.24448 9.3457,-1.23047 0,-1.43787 -7.28487,-5.55197 -9.81445,-5.54297 z"
       style="fill:#000000"
       inkscape:connector-curvature="0" />
    <path
       id="path4609"
       d="m 259.43677,127.70898 c -0.4913,0 0.099,0.82966 1.3125,1.84375 2.85593,2.38667 3.40876,2.40028 1.27149,0.0312 -0.93037,-1.03125 -2.09269,-1.875 -2.58399,-1.875 z"
       style="fill:#000000"
       inkscape:connector-curvature="0" />
    <path
       id="path4607"
       d="m 256.71216,129.96289 c -0.29005,-0.0169 0.77369,1.99824 2.4961,4.69922 4.32517,6.78245 4.78518,8.04687 2.92578,8.04687 -2.64454,0 -8.495,-4.93791 -10.27149,-8.66797 -0.95039,-1.99552 -1.88522,-3.46888 -2.07812,-3.27539 -0.92885,0.93175 3.60718,7.64837 6.78516,10.04688 3.7428,2.82481 6.33783,3.49209 7.32812,1.88476 0.58718,-0.95306 -5.39353,-11.63937 -7.10937,-12.70312 -0.0316,-0.0196 -0.0568,-0.0301 -0.0762,-0.0312 z"
       style="fill:#000000"
       inkscape:connector-curvature="0" />
    <path
       id="path4602"
       d="m 271.43677,130.05273 1.76563,2.13086 c 2.81388,3.39695 0.6353,4.54766 -4.06055,2.14453 -2.11723,-1.08351 -3.84961,-1.76183 -3.84961,-1.50586 0,0.25598 1.57829,1.30149 3.50586,2.32227 4.29884,2.27653 4.39137,2.28316 5.88281,0.48047 1.01209,-1.22331 0.84799,-1.78793 -1.01953,-3.51563 l -2.22461,-2.05664 z"
       style="fill:#000000"
       inkscape:connector-curvature="0" />
    <path
       inkscape:connector-curvature="0"
       id="path4332"
       d="m 375.00667,59.10654 c -0.53322,-0.0718 -1.15464,0.12873 -1.78125,0.65039 -3.41479,2.84289 0.3037,10.23062 10.36719,20.5918 6.29434,6.48055 6.90731,7.46664 7.83008,12.59375 0.55065,3.05955 1.00195,5.76657 1.00195,6.01563 0,0.24909 0.21319,0.24075 0.47266,-0.0195 0.25949,-0.26029 0.0481,-2.71134 -0.46875,-5.44531 -0.63276,-3.34453 -0.62951,-6.12383 0.008,-8.49805 0.92009,-3.42764 1.0834,-3.53874 5.70508,-3.85351 4.42539,-0.3014 4.854,-0.13739 6.13086,2.33984 1.08251,2.10016 1.19838,4.02106 0.54687,9.08594 -0.45445,3.5328 -0.54724,6.24924 -0.20507,6.03711 0.34217,-0.21214 0.89016,-2.96553 1.21875,-6.11914 0.32859,-3.15362 0.86253,-6.16321 1.18554,-6.6875 0.32302,-0.52428 4.00563,-2.57669 8.1836,-4.5625 11.35692,-5.39805 20.95241,-14.94922 15.01953,-14.94922 -0.7392,0 -2.97559,1.479 -4.97071,3.28711 -3.51037,3.18132 -13.70426,8.03834 -19.59375,9.33594 l -2.875,0.63476 1.4668,-2.94922 c 0.90738,-1.82465 1.24916,-4.02996 0.89844,-5.78906 -0.48702,-2.44268 -0.33618,-2.74728 1.06641,-2.16797 3.25665,1.34511 4.90234,1.59879 4.90234,0.75782 0,-1.29337 -5.46443,-2.79677 -10.9375,-3.00977 -6.30771,-0.24549 -8.68945,1.86023 -8.68945,7.68164 0,2.21719 0.5274,4.60028 1.16992,5.29492 0.95581,1.03334 0.85576,1.15266 -0.54492,0.65625 -0.94157,-0.3337 -2.05377,-0.60742 -2.47266,-0.60742 -1.31231,0 -13.10547,-16.08494 -13.10547,-17.875 0,-1.43029 -0.64058,-2.30999 -1.5293,-2.42969 z"
       style="fill:#000000" />
    <path
       inkscape:connector-curvature="0"
       id="path4324"
       d="m 404.20199,100.97373 c -0.25701,0 0.16648,1.52239 0.9414,3.38282 0.7749,1.86042 1.27972,3.5023 1.1211,3.64844 -2.5428,2.34292 -8.5592,7.03024 -9.02149,7.0293 -0.33689,-9.2e-4 -1.80373,-1.89317 -3.25976,-4.20508 -2.0335,-3.22879 -2.52505,-4.91283 -2.11524,-7.26367 0.50713,-2.90907 0.48615,-2.93776 -0.4375,-0.57227 -0.53443,1.36873 -1.89531,2.7138 -3.02539,2.98828 -3.30341,0.80234 -32.29413,5.20693 -39.43945,5.99219 -8.21773,0.90312 -8.80632,2.77805 -1.625,5.16797 4.03637,1.34329 6.04245,1.47869 11.21484,0.75976 4.88291,-0.67871 21.48149,-1.65189 40.52344,-2.375 0.31836,-0.0121 6.06945,6.72852 12.78125,14.97852 6.71178,8.25 13.59398,15.94923 15.29492,17.10937 3.54407,2.41731 6.21862,2.71123 6.96289,0.76563 0.30079,-0.78631 -2.93278,-5.93827 -7.79687,-12.42187 -8.7311,-11.63814 -17.8718,-25.9091 -20.2461,-31.60938 -0.77313,-1.85614 -1.61603,-3.37501 -1.87304,-3.37501 z"
       style="fill:#000000" />
    <path
       inkscape:connector-curvature="0"
       id="path4765"
       d="m 374.65316,59.93467 c -0.66521,0.0711 -1.47354,0.98669 -1.69141,2.47461 -0.46577,3.18088 4.04943,10.20437 11.39063,17.7207 6.6023,6.7598 6.65748,6.79231 7.32226,4.29883 0.7641,-2.86599 0.28381,-4.08008 -1.61328,-4.08008 -1.7849,0 -14.45898,-16.5845 -14.45898,-18.91992 0,-1.09435 -0.43184,-1.54945 -0.94922,-1.49414 z"
       style="fill:#fefefe" />
    <path
       inkscape:connector-curvature="0"
       id="path4761"
       d="m 430.86214,67.16514 c -1.13117,0.0222 -3.31406,1.26378 -5.61133,3.3457 -3.35562,3.04108 -13.01024,7.7246 -19.01562,9.22461 -2.33139,0.58234 -2.45519,0.83331 -1.47461,2.99219 0.5887,1.29609 1.31243,2.22029 1.60937,2.05274 0.29695,-0.16756 3.83657,-1.87321 7.86524,-3.78907 6.5583,-3.11885 17.39909,-11.24433 17.42969,-13.06445 0.009,-0.52918 -0.28857,-0.77179 -0.80274,-0.76172 z"
       style="fill:#fefefe" />
    <path
       inkscape:connector-curvature="0"
       id="path4735"
       d="m 389.17074,106.91124 c -0.39334,-0.038 -0.82384,0.0118 -1.33594,0.12109 -5.20745,1.11166 -32.66872,5.23512 -38.63477,5.80079 -3.46962,0.32896 -6.30859,0.94511 -6.30859,1.37109 0,0.42598 1.99786,1.40518 4.43945,2.17578 2.44158,0.77058 5.49034,1.21191 6.77539,0.98047 1.28504,-0.23144 10.95872,-0.91202 21.4961,-1.51367 10.53739,-0.60166 19.29588,-1.20353 19.46289,-1.33594 0.16701,-0.1324 -0.84713,-1.98475 -2.25391,-4.11719 -1.62462,-2.46265 -2.46061,-3.36826 -3.64062,-3.48242 z"
       style="fill:#fefefe" />
    <path
       inkscape:connector-curvature="0"
       id="path4733"
       d="m 406.69222,109.44444 c -0.63442,-0.0183 -2.43719,1.12696 -4.00586,2.54492 l -2.85351,2.57813 11.72265,14.53125 c 6.44729,7.99219 13.26721,15.69142 15.1543,17.10938 3.46788,2.60579 6.83594,3.39451 6.83594,1.60156 0,-0.53665 -3.7111,-5.91556 -8.2461,-11.95313 -4.535,-6.03755 -10.31685,-14.44211 -12.84961,-18.67773 -2.53275,-4.23563 -5.1234,-7.71608 -5.75781,-7.73438 z"
       style="fill:#fefefe" />
    <path
       inkscape:connector-curvature="0"
       id="path4771"
       d="m 393.9827,110.82942 c -2.07257,-3.29086 -2.50985,-4.83139 -2.01406,-7.09572 0.44719,-2.04239 1.04157,-2.73507 2.02283,-2.35736 0.76426,0.29419 3.41683,0.53489 5.8946,0.53489 4.21668,0 4.57098,0.18975 5.53525,2.96453 0.56663,1.63049 0.92319,3.06129 0.79237,3.17956 -2.84173,2.56901 -8.51228,6.9805 -8.97114,6.97924 -0.33689,-9.2e-4 -1.80382,-1.89323 -3.25985,-4.20514 z"
       style="fill:#fefe00" />
    <path
       inkscape:connector-curvature="0"
       id="path3352"
       d="m 393.87097,99.17124 c -1.46167,-2.37241 -2.32225,-10.87274 -1.43528,-14.17695 0.92009,-3.42765 1.08348,-3.53799 5.70516,-3.85276 4.41866,-0.30094 4.85521,-0.13537 6.12166,2.32165 0.98025,1.90179 1.19423,4.14242 0.76102,7.96875 -0.97984,8.65428 -0.94462,8.6043 -6.06487,8.6043 -2.50512,0 -4.79458,-0.38925 -5.08769,-0.86499 z"
       style="fill:#fefe00" />
    <path
       inkscape:connector-curvature="0"
       id="path3350"
       d="m 405.34642,101.03196 c 5.72612,-0.85668 13.14299,-4.20085 13.94047,-6.28556 0.80024,-2.0919 -0.32045,-3.03759 -1.37007,-1.15614 -0.46245,0.82894 -3.05941,2.48317 -5.77103,3.67607 -4.26539,1.87645 -6.45747,2.16843 -16.25628,2.16531 -12.13841,-0.004 -16.70238,-1.10086 -17.70014,-4.25438 -0.63395,-2.00366 0.51037,-3.85991 1.19466,-1.9379 0.68798,1.93238 1.99722,1.33754 3.50849,-1.59407 0.78422,-1.52127 1.42587,-2.99783 1.42587,-3.28125 0,-0.28342 -1.89253,-0.51531 -4.20561,-0.51531 -3.98198,0 -5.3861,1.03248 -3.22565,2.37189 0.67403,0.41787 0.64992,1.00646 -0.0772,1.88534 -1.47123,1.77826 -0.32448,4.73724 2.65719,6.85645 2.90292,2.06323 17.90346,3.26281 25.87931,2.06955 z"
       style="fill:#fe0000" />
    <path
       id="path4679"
       d="m 116.52371,172.30884 c -1.37904,-1.21826 -3.04056,-2.39332 -3.69227,-2.61123 -1.30241,-0.43549 2.24223,-11.42513 6.36727,-19.74081 1.9136,-3.85763 2.13384,-5.28824 1.60748,-10.44184 -0.55861,-5.46938 0.58983,-13.85107 2.35703,-17.20241 0.3413,-0.64724 1.62001,3.81019 2.84158,9.90538 l 2.22104,11.08218 -5.29832,11.58099 c -2.91408,6.36954 -5.29832,12.06905 -5.29832,12.66558 0,0.59653 1.0514,2.07541 2.33644,3.28643 1.28505,1.21102 2.33645,2.55018 2.33645,2.97592 0,1.53231 -3.32191,0.66988 -5.77838,-1.50019 z"
       style="fill:#fefefe"
       inkscape:connector-curvature="0" />
    <path
       id="path4677"
       d="m 157.06777,170.33928 c -2.24437,-4.634 -2.56351,-7.05897 -1.11962,-8.50737 2.01345,-2.01974 3.91645,-22.8995 3.23325,-35.47541 l -0.65913,-12.13287 2.91291,2.45871 c 1.6021,1.35229 3.7563,2.72723 4.7871,3.05542 1.03081,0.32819 1.87385,0.88468 1.87342,1.23665 -0.008,7.11052 -2.61786,23.75527 -5.20079,33.17737 -3.08473,11.2526 -3.23499,12.95549 -1.65793,18.7907 0.92833,3.43488 -2.18689,1.48978 -4.16921,-2.6032 z"
       style="fill:#fefefe"
       inkscape:connector-curvature="0" />
    <path
       id="path4671"
       d="m 90.06378,164.2782 c -0.31511,-0.51145 0.13329,-3.45469 0.99644,-6.54054 l 1.56935,-5.61063 7.56544,-4.10446 c 4.161,-2.25745 8.30416,-5.11499 9.20703,-6.35009 1.13766,-1.55628 1.93222,-5.38536 2.58838,-12.47373 1.0194,-11.01239 2.24215,-13.67814 6.27404,-13.67814 1.53132,0 2.50294,0.76041 3.14871,2.46422 1.34006,3.53562 -3.97257,27.3618 -6.58981,29.55409 -1.01745,0.85226 -5.11312,2.90206 -9.10148,4.55512 -8.54921,3.5434 -9.72306,4.46698 -11.93695,9.39186 -1.68889,3.75698 -2.6722,4.49485 -3.72115,2.7923 z"
       style="fill:#fefefe"
       inkscape:connector-curvature="0" />
    <path
       id="path4667"
       d="m 256.87256,140.1199 c -2.78046,-2.07316 -6.53308,-7.76344 -6.53308,-9.90642 0,-0.34671 1.2669,-0.63037 2.81534,-0.63037 2.39109,0 3.31109,0.77738 6.10502,5.15865 1.80932,2.83726 3.53134,5.79038 3.8267,6.5625 0.85034,2.22287 -2.50095,1.58412 -6.21398,-1.18436 z"
       style="fill:#fefefe"
       inkscape:connector-curvature="0" />
    <path
       id="path4665"
       d="m 269.26471,134.50582 c -3.51736,-1.75195 -3.76357,-2.59188 -1.16822,-3.98521 1.02803,-0.55191 1.86915,-0.66679 1.86915,-0.25529 0,0.4115 0.94627,1.16462 2.10281,1.67361 2.13362,0.939 2.87665,3.37546 1.16822,3.83073 -0.51402,0.13698 -2.3014,-0.43175 -3.97196,-1.26384 z"
       style="fill:#fefefe"
       inkscape:connector-curvature="0" />
    <path
       id="path4663"
       d="m 208.7938,132.64318 c -1.51835,-0.22495 -3.51624,-0.9399 -4.43975,-1.58878 -1.61053,-1.13158 -1.60727,-1.24501 0.0795,-2.77636 1.66189,-1.50868 2.05691,-1.47631 7.17575,0.58786 8.70643,3.51089 7.38174,5.28805 -2.81556,3.77728 z"
       style="fill:#fefefe"
       inkscape:connector-curvature="0" />
    <path
       id="path4661"
       d="m 262.03759,129.6007 c -1.38398,-1.53406 -1.46737,-2.10924 -0.47896,-3.30391 1.45202,-1.75506 0.52632,-3.00993 -1.17533,-1.59327 -2.01531,1.67777 -10.2277,-7.14248 -15.24212,-16.37032 -4.12876,-7.59797 -4.30248,-8.20238 -3.09276,-10.76087 l 1.28171,-2.71074 10.74766,14.28057 c 5.91122,7.85432 11.12736,15.03384 11.59141,15.95451 0.46407,0.92067 1.70232,1.67394 2.75167,1.67394 1.58511,0 1.3721,0.39654 -1.25896,2.34375 -1.74179,1.28906 -3.23028,2.34375 -3.30775,2.34375 -0.0775,0 -0.89494,-0.83584 -1.81657,-1.85741 z"
       style="fill:#fefefe"
       inkscape:connector-curvature="0" />
    <path
       id="path4659"
       d="m 184.11852,124.8143 c -17.36871,-5.1991 -22.88224,-7.80366 -23.34013,-11.02571 -0.34337,-2.41632 2.17297,-5.76798 4.33048,-5.76798 0.76757,0 9.21874,3.64352 18.78038,8.09671 23.64541,11.0125 21.39797,9.6086 18.7056,11.68484 -1.24046,0.95659 -2.46565,1.70521 -2.72266,1.66359 -0.25701,-0.0416 -7.34616,-2.13477 -15.75367,-4.65145 z"
       style="fill:#fefefe"
       inkscape:connector-curvature="0" />
    <path
       id="path4657"
       d="m 239.94324,115.81571 c -8.969,-13.44274 -11.09547,-18.19649 -9.17703,-20.5153 3.08427,-3.72792 5.83678,-0.69194 16.20735,17.87645 4.3197,7.73438 7.79045,14.10737 7.71277,14.16221 -0.0777,0.0549 -1.50772,0.36063 -3.17785,0.67953 -3.01966,0.57658 -3.08422,0.50846 -11.56524,-12.20289 z"
       style="fill:#fefefe"
       inkscape:connector-curvature="0" />
    <path
       id="path4645"
       d="m 92.39555,102.16792 c 0,-1.39124 7.50753,-6.39024 16.88432,-11.24268 6.66279,-3.44795 15.47943,-4.58885 16.42194,-2.12504 1.31347,3.43355 -0.82999,4.71296 -7.3193,4.36883 -5.90168,-0.31298 -6.20792,-0.21068 -13.32988,4.45312 -4.00918,2.6254 -7.83191,4.77346 -8.49495,4.77346 -0.66303,0 -1.87075,0.25607 -2.68382,0.56905 -0.93113,0.35843 -1.47831,0.0635 -1.47831,-0.79674 z"
       style="fill:#fefefe"
       inkscape:connector-curvature="0" />
    <path
       id="path4643"
       d="m 279.65682,98.58476 c -7.34898,-0.56778 -10.53842,-1.27573 -14.25233,-3.1636 -6.62925,-3.36979 -6.25724,-4.66012 1.05648,-3.66447 3.21262,0.43734 13.98327,0.70039 23.9348,0.58456 17.67277,-0.20572 18.13512,-0.1621 19.87557,1.875 4.68809,5.48714 4.86756,5.37956 -8.73076,5.23341 -6.82883,-0.0734 -16.67652,-0.4626 -21.88376,-0.8649 z"
       style="fill:#fefefe"
       inkscape:connector-curvature="0" />
    <path
       id="path4641"
       d="m 320.74506,97.07161 c 0.78858,-1.52972 1.98722,-3.22436 2.66363,-3.76586 0.68981,-0.55222 9.02711,-1.27042 18.98686,-1.63559 9.76636,-0.35807 19.56051,-1.09861 21.76478,-1.64563 2.20426,-0.54703 4.30706,-0.67175 4.67289,-0.27716 0.36583,0.39459 0.17807,0.89285 -0.41724,1.10726 -0.5953,0.2144 -2.96278,1.63924 -5.26106,3.16631 -4.56394,3.03248 -11.40646,4.11773 -33.23609,5.27139 l -10.60757,0.56059 1.4338,-2.78131 z"
       style="fill:#fefefe"
       inkscape:connector-curvature="0" />
    <path
       id="path4639"
       d="m 127.34533,87.01148 c -0.65916,-1.72312 1.93598,-6.72379 3.87714,-7.47101 3.68708,-1.41929 5.09831,-0.69077 5.09831,2.63193 0,1.76785 -0.66088,3.87723 -1.46862,4.6875 -1.82603,1.83173 -6.82549,1.93268 -7.50683,0.15158 z"
       style="fill:#fefefe"
       inkscape:connector-curvature="0" />
    <path
       id="path4637"
       d="m 171.55277,86.80019 c -0.94368,-0.94662 -0.80243,-5.7635 0.18698,-6.3769 0.46174,-0.28626 4.55467,-0.14273 9.09541,0.31896 7.73245,0.7862 8.53422,0.69795 12.64574,-1.39203 2.41442,-1.2273 4.65472,-2.66135 4.97844,-3.18678 0.70483,-1.14402 5.15116,-1.29147 5.15116,-0.17083 0,0.43147 -2.83878,2.72442 -6.30841,5.09545 -5.20413,3.55631 -7.28999,4.40948 -11.91589,4.87385 -3.08411,0.3096 -7.31149,0.77215 -9.39418,1.02788 -2.0827,0.25574 -4.08037,0.17041 -4.43925,-0.1896 z"
       style="fill:#fefefe"
       inkscape:connector-curvature="0" />
    <path
       id="path4635"
       d="m 171.8348,76.30903 c 0,-2.91197 3.34638,-6.72592 5.90136,-6.72592 1.21245,0 1.57528,0.85615 1.57528,3.71701 0,3.9385 -1.68547,5.65799 -5.54604,5.65799 -1.49559,0 -1.9306,-0.5969 -1.9306,-2.64908 z"
       style="fill:#fefefe"
       inkscape:connector-curvature="0" />
    <path
       id="path4631"
       d="m 229.03515,71.73843 c -1.02887,-1.44324 -3.72965,-4.01631 -6.00173,-5.71795 -3.19363,-2.39179 -5.05871,-4.99231 -8.21893,-11.45981 -2.24831,-4.60126 -3.85665,-8.59785 -3.57408,-8.88131 1.28408,-1.28809 3.56811,1.06099 6.9399,7.1375 2.86513,5.16343 4.86569,7.43953 9.26197,10.53761 4.97119,3.50323 5.60748,4.31131 5.60748,7.12139 0,4.0743 -1.64202,4.5907 -4.01461,1.26257 z"
       style="fill:#fefefe"
       inkscape:connector-curvature="0" />
    <path
       id="path4629"
       d="m 244.73826,70.53577 c -1.05073,-2.5446 -0.89247,-3.20788 1.75168,-7.3413 3.34554,-5.22986 6.65327,-14.24491 6.65327,-18.13313 0,-1.46615 0.39223,-2.66573 0.8716,-2.66573 3.33996,0 0.60512,16.38969 -4.16155,24.93993 -1.83897,3.29866 -3.48225,5.99757 -3.65175,5.99757 -0.16949,0 -0.82795,-1.2588 -1.46325,-2.79734 z"
       style="fill:#fefefe"
       inkscape:connector-curvature="0" />
    <path
       id="path4627"
       d="m 236.08714,66.69552 c -3.85487,-2.25227 -0.43788,-8.36241 4.67653,-8.36241 2.89262,0 3.4421,1.89234 1.73769,5.98431 -1.4609,3.50738 -3.3088,4.19249 -6.41422,2.3781 z"
       style="fill:#fefefe"
       inkscape:connector-curvature="0" />
    <path
       id="path4625"
       d="M 298.11163,56.60564 C 287.90717,44.95301 285.38406,41.225 286.22112,39.03684 c 0.85974,-2.24746 2.31599,-1.48905 4.19914,2.18689 1.81268,3.53839 17.21586,19.28338 19.62219,20.05762 1.06806,0.34365 1.02345,0.93607 -0.25765,3.42119 -0.85217,1.65306 -1.64374,3.0009 -1.75904,2.99519 -0.11531,-0.006 -4.57667,-4.99716 -9.91413,-11.09209 z"
       style="fill:#fefefe"
       inkscape:connector-curvature="0" />
    <path
       id="path4623"
       d="m 323.47254,65.56963 c -0.48368,-0.62852 -1.14966,-1.62087 -1.47995,-2.20521 -0.34606,-0.61221 3.38332,-4.58505 8.80047,-9.375 6.24179,-5.51912 10.08498,-9.71441 11.43632,-12.48411 2.32383,-4.76287 3.93495,-5.71723 4.83726,-2.8654 0.74551,2.35621 -0.55002,4.49216 -8.53284,14.0682 -7.53058,9.03353 -13.85256,14.43217 -15.06126,12.86152 z"
       style="fill:#fefefe"
       inkscape:connector-curvature="0" />
    <path
       id="path3538"
       d="m 312.542,60.93701 c -2.85932,-4.09502 -1.22532,-7.2914 3.72739,-7.2914 2.8071,0 6.0327,2.33312 6.0327,4.36352 0,1.63747 -4.25206,5.01148 -6.31565,5.01148 -1.09426,0 -2.64426,-0.93762 -3.44444,-2.0836 z"
       style="fill:#fefefe"
       inkscape:connector-curvature="0" />
    <path
       sodipodi:nodetypes="cscsscssssscssccccccscsssssssssssc"
       inkscape:connector-curvature="0"
       id="path4613"
       d="m 443.44088,81.30947 c -1.9215,0.0752 -1.14312,1.72423 2.08228,2.85213 2.11339,0.73903 2.95437,1.59046 2.56691,2.60336 -0.31677,0.82803 -0.57686,2.98824 -0.57686,4.7993 0,1.55585 1.93743,2.48393 1.31338,3.16693 -0.45213,0.49485 -3.25658,0.86108 -4.26844,1.24421 -1.87143,0.70857 -3.99655,2.96221 -5.79217,6.14386 -5.11673,9.06633 -8.00652,12.86602 -10.93887,14.38715 -3.61267,1.87401 -3.66465,3.25986 -0.1737,4.59127 2.41013,0.91919 3.16044,0.59815 6.68212,-2.85641 2.18196,-2.14041 5.40574,-6.10947 7.16462,-8.82014 1.75888,-2.71067 3.46786,-4.65854 3.7957,-4.32965 0.32785,0.32887 0.65075,7.17817 0.71838,15.22134 0.0745,8.86401 0.82235,18.4767 1.89785,24.40389 1.11928,6.16853 1.66428,13.48393 1.47538,19.81477 l -0.29379,9.82374 c 0.008,0.47763 0.9472,0.6219 2.42455,0.6219 16.34386,-0.045 25.6978,-0.0949 23.17381,-0.15011 l -14.38071,-0.3131 1.35101,-18.24501 c 0.74281,-10.03419 1.12704,-24.03292 0.85349,-31.10962 -0.4821,-12.47135 -0.0637,-18.54815 1.27809,-18.51093 0.35748,0.01 2.0361,2.39644 3.72921,5.30324 1.69312,2.90679 4.35408,6.23484 5.91226,7.39622 2.71015,2.02003 2.90988,2.03182 4.61701,0.28736 1.69814,-1.73528 1.63921,-1.93886 -1.20733,-4.24173 -1.64526,-1.33104 -4.87645,-6.04885 -7.18178,-10.4821 -2.47234,-4.75436 -5.14016,-8.476 -6.50198,-9.07533 -0.82338,-0.36236 -2.87294,-0.46901 -3.23012,-1.10439 -0.42617,-0.75812 0.92269,-2.13683 0.92269,-3.78497 0,-5.0847 -3.02624,-8.24198 -7.52704,-7.853 -1.80253,0.15578 -3.73268,0.0204 -4.28891,-0.30021 -0.55625,-0.32065 -2.28013,-0.88668 -3.83215,-1.2588 -0.73408,-0.17601 -1.32145,-0.24252 -1.76489,-0.22517 z"
       style="fill:#000000" />
    <path
       sodipodi:nodetypes="cssssssscc"
       inkscape:connector-curvature="0"
       id="path4675"
       d="m 450.46666,173.86616 c -0.0689,-0.46398 -0.0378,-5.01242 0.0692,-10.10764 0.10694,-5.09523 -0.57131,-13.66447 -1.50733,-19.04276 -0.93602,-5.3783 -1.94784,-10.75199 -2.24851,-12.53581 -0.62487,-3.70731 0.46329,-4.10561 5.00231,-1.8311 2.55781,1.28173 2.77959,-0.77539 3.16046,11.8077 0.25407,8.39349 -0.14687,16.82758 0.007,22.64 0.22603,8.55688 0.076,9.28159 -2.04863,9.58428 -1.26984,0.1809 -2.3652,-0.0507 -2.43413,-0.51467 z"
       style="fill:#fefefe" />
    <path
       sodipodi:nodetypes="cssssscc"
       inkscape:connector-curvature="0"
       id="path4673"
       d="m 455.96845,164.97116 c -0.14576,-6.2527 0.28002,-13.8853 0.005,-22.41451 -0.38067,-11.80358 -0.23502,-10.58905 1.32917,-12.02629 0.95399,-0.87654 2.74839,-2.34237 3.53003,-2.34237 1.75595,0 1.39377,5.45641 -0.33162,29.38339 -0.96555,13.38973 -1.48226,16.51483 -2.77134,16.76142 -1.38777,0.26548 -1.56525,-0.95791 -1.76115,-9.36164 z"
       style="fill:#fefefe" />
    <path
       inkscape:connector-curvature="0"
       id="path4655"
       d="m 427.76056,120.33142 c -2.38876,-0.62619 -2.28005,-2.08554 0.21452,-2.87975 2.43446,-0.77508 7.17176,-6.65208 10.20936,-12.66548 2.38213,-4.71581 5.59758,-8.44934 7.2769,-8.44934 0.56438,0 1.02613,1.62121 1.02613,3.60269 0,1.98148 -0.43958,3.60268 -0.97684,3.60268 -0.53726,0 -2.46872,2.20022 -4.29215,4.88936 -3.14091,4.63216 -10.47285,12.74702 -11.28493,12.48999 -0.20749,-0.0657 -1.18534,-0.33124 -2.17299,-0.59015 z"
       style="fill:#fefefe" />
    <path
       inkscape:connector-curvature="0"
       id="path4653"
       d="m 473.46533,118.45853 c -1.21576,-0.85422 -3.64196,-4.06293 -5.39158,-7.13049 -1.74961,-3.06757 -3.57372,-5.72689 -4.05355,-5.9096 -0.47985,-0.18272 -1.20773,-2.35611 -1.61749,-4.82976 -1.13132,-6.82938 1.26604,-5.1111 6.30722,4.52064 2.34584,4.48197 5.52158,9.15402 7.0572,10.38232 1.53563,1.22829 2.47506,2.74778 2.08762,3.37662 -0.93616,1.51946 -1.7521,1.44329 -4.38942,-0.40973 z"
       style="fill:#fefefe" />
    <path
       sodipodi:nodetypes="ccscssscsscc"
       inkscape:connector-curvature="0"
       id="path4691"
       d="m 450.63386,128.95878 c -2.06744,-0.82422 -3.66493,-0.71848 -3.6678,-1.75989 -0.003,-1.0645 -0.15205,-14.27281 0.38308,-27.07673 l 0.16447,-3.93473 2.7037,0.26172 c 1.48704,0.14395 3.27181,0.26172 3.96615,0.26172 0.69434,0 2.4791,-0.11777 3.96614,-0.26172 l 2.70372,-0.26172 0.20517,2.39072 c 0.75243,8.76743 0.49321,26.25443 0.48337,28.06561 -0.003,0.65839 -1.85651,1.47666 -3.32794,2.25187 -1.94135,1.1355 -4.30111,1.37036 -7.58006,0.0631 z"
       style="fill:#fefe00" />
    <path
       id="path4689"
       d="m 121.81185,117.13578 c -1.15678,-2.64433 -4.73559,-3.18973 -7.06346,-1.07645 -2.2748,2.06509 -2.28779,0.9751 -0.0331,-2.77182 0.96747,-1.60772 2.03013,-5.03252 2.36146,-7.61065 1.5787,-12.284 1.42819,-11.88068 4.20513,-11.26886 3.21767,0.70893 6.18876,-2.19714 5.38774,-5.26982 l -0.53939,-2.06908 1.94863,1.95471 1.94863,1.95472 -3.03553,12.97416 c -3.52528,15.06742 -3.9183,16.06763 -5.18016,13.18309 z"
       style="fill:#fefe00"
       inkscape:connector-curvature="0" />
    <path
       id="path4687"
       d="m 158.80993,112.16387 c -0.0326,-1.07277 0.99328,-4.02589 2.27971,-6.5625 1.28642,-2.5366 2.99538,-8.40889 3.79769,-13.04951 1.37004,-7.92453 3.21619,-12.65625 4.938,-12.65625 0.41314,0 0.56543,1.26949 0.33841,2.82109 -0.58527,4.0002 1.27672,5.89929 5.08193,5.1832 l 3.06345,-0.57651 -1.24034,4.13424 c -0.68219,2.27383 -2.36864,7.09616 -3.74766,10.7163 l -2.50732,6.58207 -3.21795,-0.9907 c -2.73053,-0.84065 -3.51927,-0.71884 -5.20728,0.80418 -1.09414,0.98719 -2.3336,2.63863 -2.75437,3.66988 -0.75177,1.84251 -0.76606,1.8412 -0.82427,-0.0755 z"
       style="fill:#fefe00"
       inkscape:connector-curvature="0" />
    <path
       id="path4683"
       d="m 311.6731,94.93133 c -3.40027,-4.47266 -3.49042,-4.77945 -2.34122,-7.96741 0.95843,-2.65878 0.96739,-4.42207 0.0452,-8.90068 -1.19127,-5.78558 -0.85409,-8.9197 1.45343,-13.50973 0.99293,-1.97509 1.62597,-2.40925 2.39221,-1.64062 1.32452,1.32867 4.66284,1.35052 5.97018,0.0391 0.71427,-0.7165 1.57516,-0.0774 2.99066,2.22003 2.25569,3.6612 2.41908,5.61214 0.95759,11.43438 -0.84463,3.36481 -0.74236,4.97252 0.56807,8.9302 l 1.59815,4.82661 -2.32304,2.50058 c -1.27767,1.37531 -2.80978,3.44979 -3.4047,4.60995 -1.68333,3.28273 -4.05879,2.51889 -7.90656,-2.54241 z"
       style="fill:#fefe00"
       inkscape:connector-curvature="0" />
    <path
       id="path3534"
       d="m 237.85504,96.37296 c -1.88327,-2.8832 -4.91021,-3.88361 -6.8541,-2.26528 -1.29564,1.07865 -1.41716,0.99636 -0.92401,-0.62567 1.53536,-5.05003 2.59049,-11.57947 2.36883,-14.65902 -0.1357,-1.88542 0.2198,-3.99742 0.79001,-4.69333 0.57022,-0.69592 1.18219,-2.29962 1.35995,-3.5638 0.28202,-2.00567 0.82448,-2.31063 4.2579,-2.39377 5.62274,-0.13615 6.29037,1.90069 4.94837,15.09696 -1.01828,10.01306 -2.3259,15.37656 -3.74879,15.37656 -0.39254,0 -1.38171,-1.02269 -2.19816,-2.27265 z"
       style="fill:#fefe00"
       inkscape:connector-curvature="0" />
    <path
       inkscape:connector-curvature="0"
       id="path3532"
       d="m 242.5944,137.43883 c -1.4022,-1.40658 -0.49979,-1.76197 4.47405,-1.76197 3.0082,0 5.01298,0.38885 4.83348,0.9375 -0.35939,1.09858 -8.3304,1.80466 -9.30753,0.82447 z m -52.06801,-2.87369 c 0,-0.43556 2.02228,-1.51243 4.49396,-2.39303 5.86534,-2.0897 16.26123,-11.45791 14.2247,-12.81853 -0.75614,-0.50519 -1.1767,-1.04835 -0.93458,-1.20704 0.24212,-0.15868 1.8401,-1.27346 3.55107,-2.47728 1.71097,-1.20382 3.33874,-1.96016 3.61726,-1.68076 0.81478,0.81732 -0.68154,9.03211 -1.64518,9.03211 -0.48253,0 -0.89312,-0.73828 -0.91242,-1.64063 -0.026,-1.21563 -0.8128,-0.76247 -3.03738,1.74934 -4.2496,4.79833 -12.73825,10.8232 -16.32004,11.58325 -1.67057,0.35448 -3.03739,0.28815 -3.03739,-0.14743 z m 69.68215,-0.20367 c -0.32141,-0.52168 0.79619,-1.65894 2.48355,-2.52724 1.68738,-0.86831 4.07093,-2.36283 5.29679,-3.32118 2.22489,-1.73936 2.22521,-1.74244 0.17848,-1.74244 -1.12769,0 -1.85007,-0.31641 -1.60529,-0.70312 0.81276,-1.28403 7.14295,-4.29583 7.7497,-3.68717 0.79268,0.79516 -2.39056,9.07779 -3.48885,9.07779 -0.4715,0 -0.85728,-0.47039 -0.85728,-1.04532 0,-0.64376 -0.89754,-0.4637 -2.33644,0.46875 -1.28505,0.83274 -3.34891,2.1698 -4.58636,2.97126 -1.42613,0.92366 -2.46388,1.1099 -2.8343,0.50867 z m -26.98393,-4.59529 c -1.38122,-1.44617 -2.5113,-2.92274 -2.5113,-3.28124 0,-0.3585 2.1028,-0.65183 4.67289,-0.65183 4.33876,0 6.21338,1.15003 3.50468,2.15003 -0.64253,0.23722 -0.0116,0.74001 1.40213,1.11734 3.32436,0.88727 14.28607,-1.17383 18.34182,-3.44877 3.16,-1.7725 4.56704,-1.73408 3.44078,0.0939 -1.67345,2.71614 -17.65846,6.54235 -22.37327,5.35531 -1.44055,-0.36268 -2.44698,-0.22313 -2.44698,0.33929 0,1.64542 -1.42607,1.05313 -4.03075,-1.67406 z"
       style="fill:#fe0000" />
    <path
       sodipodi:nodetypes="sssccssssssssssssssssssssccsssssscssssssscssc"
       inkscape:connector-curvature="0"
       id="path3468"
       d="m 311.40617,17.761894 c -2.31308,0 -4.20704,0.42188 -4.20704,0.9375 0,0.51563 1.27459,0.9375 2.83204,0.9375 l 2.83203,0 -1.88477,2.57812 c -1.03641,1.41796 -2.15219,3.94921 -2.48047,5.625 -0.46218,2.35929 -0.27707,3.04688 0.81836,3.04688 0.86879,0 1.64384,-1.22885 2.00977,-3.18555 0.32773,-1.75238 1.42688,-4.24526 2.4414,-5.53906 2.7731,-3.53644 2.30926,-4.40039 -2.36132,-4.40039 z m 10.27929,0 c -3.83506,0 -5.84005,8.53891 -2.73632,11.65234 0.80774,0.81026 2.03872,1.47266 2.73632,1.47266 2.34878,0 4.20704,-2.89742 4.20704,-6.5625 0,-3.66508 -1.85826,-6.5625 -4.20704,-6.5625 z m -20.56054,0.041 c -1.18166,0 -2.36319,0.36094 -3.08399,1.08399 -1.52636,1.53113 -1.40865,2.625 0.28125,2.625 0.77103,0 1.40039,-0.42187 1.40039,-0.9375 0,-0.51562 0.63132,-0.9375 1.40235,-0.9375 2.22693,0 1.56539,3.0009 -1.43946,6.52734 -1.52117,1.78521 -2.76562,3.57819 -2.76562,3.98438 0,0.4062 1.89199,0.73828 4.20508,0.73828 2.31308,0 4.20507,-0.42187 4.20507,-0.9375 0,-0.51562 -1.08722,-0.9375 -2.41796,-0.9375 l -2.41993,0 2.41993,-2.88477 c 2.63055,-3.136 3.04996,-5.48166 1.29687,-7.24023 -0.72079,-0.72305 -1.90232,-1.08399 -3.08398,-1.08399 z m 29.25,0.0937 c -2.03203,-0.0397 -3.12433,1.86992 -2.25196,4.15039 0.33776,0.88294 1.40806,1.3519 2.67188,1.17188 1.54461,-0.22002 2.10547,-0.92635 2.10547,-2.64453 0,-1.71818 -0.56086,-2.42451 -2.10547,-2.64453 -0.14352,-0.0205 -0.28445,-0.0306 -0.41992,-0.0332 z m 0.18945,1.74024 c 0.51402,0 0.93555,0.42188 0.93555,0.9375 0,0.51563 -0.42153,0.9375 -0.93555,0.9375 -0.51402,0 -0.93359,-0.42187 -0.93359,-0.9375 0,-0.51562 0.41957,-0.9375 0.93359,-0.9375 z m -8.87891,0.46875 c 0.51401,0 1.06886,1.63713 1.23243,3.63867 0.31762,3.88664 -1.20124,6.72138 -2.20118,4.10742 -0.82255,-2.15025 -0.12302,-7.74609 0.96875,-7.74609 z"
       style="fill:#000000" />
  </g>
</svg>
