<?xml version="1.0" encoding="UTF-8" standalone="no"?>
<!-- Created with Inkscape (http://www.inkscape.org/) -->

<svg
   xmlns:dc="http://purl.org/dc/elements/1.1/"
   xmlns:cc="http://creativecommons.org/ns#"
   xmlns:rdf="http://www.w3.org/1999/02/22-rdf-syntax-ns#"
   xmlns:svg="http://www.w3.org/2000/svg"
   xmlns="http://www.w3.org/2000/svg"
   xmlns:sodipodi="http://sodipodi.sourceforge.net/DTD/sodipodi-0.dtd"
   xmlns:inkscape="http://www.inkscape.org/namespaces/inkscape"
   id="svg3986"
   version="1.1"
   inkscape:version="0.91 r13725"
   width="400"
   height="225"
   viewBox="0 0 400 225"
   sodipodi:docname="fx310103.svg">
  <metadata
     id="metadata3992">
    <rdf:RDF>
      <cc:Work
         rdf:about="">
        <dc:format>image/svg+xml</dc:format>
        <dc:type
           rdf:resource="http://purl.org/dc/dcmitype/StillImage" />
        <dc:title></dc:title>
      </cc:Work>
    </rdf:RDF>
  </metadata>
  <defs
     id="defs3990" />
  <sodipodi:namedview
     pagecolor="#ffffff"
     bordercolor="#666666"
     borderopacity="1"
     objecttolerance="10"
     gridtolerance="10"
     guidetolerance="10"
     inkscape:pageopacity="0"
     inkscape:pageshadow="2"
     inkscape:window-width="1550"
     inkscape:window-height="910"
     id="namedview3988"
     showgrid="false"
     inkscape:zoom="1.6993064"
     inkscape:cx="145.84869"
     inkscape:cy="194.7299"
     inkscape:window-x="44"
     inkscape:window-y="22"
     inkscape:window-maximized="0"
     inkscape:current-layer="svg3986" />
  <g
     id="g3996"
     transform="translate(35.835015,-208.56543)">
    <path
       style="fill:#fefefe"
       d="m 95.51334,374.50617 c -1.90872,-3.94099 -2.053299,-5.56335 -2.026028,-22.73437 l 0.02935,-18.49055 2.356598,-1.72186 c 3.525701,-2.57607 5.43635,-1.39584 4.71153,2.91035 -1.783502,10.59592 -3.401072,36.11517 -2.496334,39.38301 1.167412,4.21662 1.199187,4.89725 0.228599,4.89725 -0.411599,0 -1.673281,-1.90972 -2.803739,-4.24383 z m 8.70047,3.31964 c -0.31317,-0.50831 0.50707,-6.16576 1.82276,-12.57211 1.78271,-8.68027 2.15851,-12.2644 1.47505,-14.06766 -1.2264,-3.23576 -0.31806,-5.24854 2.36858,-5.24854 4.02578,0 4.18423,2.47318 0.90101,14.0632 -4.48193,15.82155 -4.50258,15.9368 -2.85508,15.9368 0.78082,0 1.41967,0.63281 1.41967,1.40625 0,1.58514 -4.2088,1.98049 -5.13199,0.48206 z m 44.39029,-1.65394 c 0.004,-1.41796 1.27639,-7.42461 2.82914,-13.3481 1.55276,-5.92349 2.60491,-11.82974 2.33812,-13.125 -0.30363,-1.47414 0.15666,-3.18566 1.23054,-4.57571 1.46333,-1.89414 2.01195,-2.06161 3.73069,-1.1389 2.50437,1.34449 2.51188,2.51169 0.0594,9.24238 -1.07558,2.95197 -2.95749,9.16408 -4.18202,13.80471 -1.94122,7.3566 -2.04986,8.57084 -0.84814,9.47835 2.16001,1.63117 1.64532,2.2404 -1.89271,2.2404 -2.94678,0 -3.27043,-0.25556 -3.26506,-2.57813 z m 42.98469,1.55922 c 0,-0.5604 0.64568,-6.2736 1.43486,-12.696 1.02668,-8.35524 1.17056,-12.63728 0.5058,-15.05239 -1.15025,-4.17886 0.0677,-6.8577 3.11798,-6.8577 4.49521,0 4.66666,1.74246 1.5409,15.6605 -1.59753,7.11329 -3.14357,13.8418 -3.43564,14.95225 -0.39324,1.49508 -0.0238,2.18047 1.42356,2.64129 3.06474,0.97575 2.29008,2.37096 -1.31643,2.37096 -1.79906,0 -3.27103,-0.45851 -3.27103,-1.01891 z m 33.72754,-10.93422 c 0.0751,-6.57421 -0.0178,-13.64062 -0.20665,-15.70312 -0.29921,-3.26831 -0.0813,-3.78742 1.69625,-4.04126 3.25988,-0.46555 4.20658,2.48603 3.16419,9.86517 -0.49441,3.49998 -1.16097,9.17345 -1.48125,12.60772 -0.53676,5.75556 -0.43095,6.29231 1.35226,6.86004 3.05718,0.97335 2.25497,2.36458 -1.36344,2.36458 l -3.29803,0 z m -87.69721,3.28125 c -2.11428,-4.39606 -2.01797,-7.21035 0.7459,-21.79687 3.70721,-19.56502 4.51067,-22.57377 6.51363,-24.3921 1.41678,-1.28617 1.97113,-1.32936 3.6404,-0.28362 2.80027,1.75426 3.22541,3.9819 1.62685,8.52439 -4.74548,13.48479 -9.95898,32.93064 -9.95898,37.14602 0,3.4209 -1.13745,3.77624 -2.5678,0.80218 z m 5.40222,-4.37882 c -0.96758,-2.34324 -0.75427,-4.09619 1.47881,-12.15283 1.4352,-5.17805 2.71196,-9.31183 2.83723,-9.18617 0.52402,0.52565 -1.97148,24.0772 -2.5512,24.0772 -0.34879,0 -1.14298,-1.23219 -1.76484,-2.7382 z m 87.81979,-8.43512 c 0,-1.50471 0.26002,-3.41554 0.57782,-4.24631 0.51914,-1.35709 0.70593,-1.34108 1.83943,0.1577 0.69389,0.9175 1.27499,2.82834 1.29135,4.2463 0.0226,1.96306 -0.41621,2.57813 -1.83944,2.57813 -1.44215,0 -1.86916,-0.625 -1.86916,-2.73582 z m -116.11928,-1.25341 c -0.95437,-1.4611 -1.13137,-2.7911 -0.57297,-4.30533 0.44441,-1.20511 0.57211,-2.57402 0.28376,-3.04202 -1.15536,-1.87527 0.64421,-0.65516 4.2212,2.86195 4.72947,4.65032 4.9104,6.59963 0.61253,6.59963 -2.25157,0 -3.56165,-0.60948 -4.54452,-2.11423 z m 44.58909,1.12014 c -0.82154,-1.33343 1.3768,-6.50591 2.76507,-6.50591 1.88086,0 3.34456,2.13348 3.34456,4.875 0,2.27996 -0.36128,2.625 -2.74858,2.625 -1.51172,0 -3.0242,-0.44734 -3.36105,-0.99409 z m 40.17305,-0.17779 c 0.19794,-0.64453 0.61301,-2.33078 0.92236,-3.74722 0.50195,-2.29829 0.7617,-2.45053 2.41451,-1.41511 1.11947,0.7013 1.85205,2.18352 1.85205,3.74723 0,2.24335 -0.36854,2.58698 -2.77442,2.58698 -1.78841,0 -2.64649,-0.41647 -2.4145,-1.17188 z m -29.39053,-25.51506 c 0,-3.64713 3.19172,-7.86234 7.47827,-9.87632 4.59092,-2.157 6.82902,-2.03699 10.97968,0.58874 3.17454,2.00823 2.57028,2.85825 -2.5127,3.53465 -2.97517,0.39589 -6.33001,1.77155 -9.43971,3.87078 -5.31714,3.58935 -6.50554,3.93317 -6.50554,1.88215 z m 20.30729,-8.46709 c -0.91042,-1.25544 -3.43378,-2.78986 -5.60747,-3.40984 -2.17368,-0.61996 -4.35168,-1.47797 -4.84,-1.90667 -0.48832,-0.4287 -2.43449,-0.77946 -4.32482,-0.77946 -2.00529,0 -3.95207,-0.6226 -4.67356,-1.49466 -1.05559,-1.27587 -0.90133,-1.75143 1.05379,-3.24882 5.35109,-4.09831 6.60562,-4.13175 16.92318,-0.45118 5.28077,1.88381 10.08747,3.82977 10.68156,4.32436 1.79858,1.49735 -1.35364,7.20428 -4.60782,8.34225 -3.2982,1.15335 -2.62466,1.35461 -4.60486,-1.37598 z m 34.22269,-0.99786 c -2.14924,-2.15596 -2.33628,-2.89991 -1.82667,-7.26563 1.0715,-9.17956 3.37146,-40.47133 3.37146,-45.87003 0,-2.96997 0.36421,-5.39995 0.80936,-5.39995 0.44514,0 1.68845,2.42578 2.7629,5.39062 1.7566,4.8472 1.96717,7.62148 2.08875,27.51975 0.11478,18.78515 -0.0945,22.57474 -1.38503,25.07812 -1.84285,3.57482 -2.72029,3.65729 -5.82077,0.54712 z"
       id="path4004"
       inkscape:connector-curvature="0"
       sodipodi:nodetypes="cscssssccsssssssscsssscsssccsssssssssccsssssccssssssssssssssscsssscssssssssssssssssssssssssssssssssssssss" />
    <path
       style="fill:#fefe00"
       d="m 230.1085,347.78851 c -1.24505,-1.99989 -4.37531,-2.48275 -5.39246,-0.83183 -2.16227,3.50955 -3.71531,-6.16277 -2.78614,-17.35209 l 0.6681,-8.04555 2.37844,1.87673 c 3.17145,2.50245 3.70759,2.39567 5.87493,-1.17015 2.0641,-3.39593 2.234,-2.91544 0.91169,2.57813 -0.6024,2.50271 -0.5527,6.74215 0.14944,12.74597 1.13188,9.67846 0.41063,13.75604 -1.804,10.19879 z m -126.35823,-5.22769 c -1.15234,-3.04126 -2.15214,-6.95971 -2.22178,-8.70766 -0.1688,-4.23693 -2.578692,-5.82472 -5.212094,-3.43407 -1.058131,0.96058 -1.923869,1.28318 -1.923869,0.71687 0,-1.64289 3.922458,-3.94846 6.717483,-3.94846 5.35212,0 12.90869,9.88702 12.90869,16.88974 0,2.4677 -0.24923,2.92276 -1.1215,2.04776 -1.61916,-1.62422 -5.1842,-1.3822 -6.18973,0.4202 -0.68297,1.22422 -1.29726,0.39657 -2.9572,-3.98438 z m 47.23924,-0.80315 c -1.63708,-4.8313 -1.64831,-5.35915 -0.19503,-9.17639 2.04112,-5.36131 1.97054,-6.02238 -0.93094,-8.7198 -2.96396,-2.75548 -1.56646,-2.96943 3.26056,-0.49918 1.9343,0.9899 4.066,2.99381 4.73711,4.45313 2.06471,4.48972 3.8003,10.93823 3.81093,14.1593 l 0.0101,3.0685 -2.46071,-1.61737 c -2.40815,-1.5828 -2.5038,-1.56314 -4.47787,0.9203 l -2.01715,2.53766 z m 41.17422,0.42983 c 0.42647,-2.32031 0.78979,-6.89259 0.80738,-10.16063 0.0311,-5.78858 0.10933,-5.9745 3.03058,-7.20662 1.99617,-0.84195 3.22026,-2.14636 3.66163,-3.90188 l 0.66302,-2.63712 0.79301,2.8125 c 0.43616,1.54687 0.68046,7.53062 0.54289,13.29722 -0.22662,9.49953 -0.38924,10.35842 -1.7307,9.14062 -2.17334,-1.97298 -5.21494,-1.6399 -6.98811,0.76528 -1.5046,2.04089 -1.52992,1.97239 -0.7797,-2.10937 z"
       id="path4000"
       inkscape:connector-curvature="0"
       sodipodi:nodetypes="ssscsssssssssssssssssssscsscssssscsssss" />
    <path
       style="fill:#000000"
       d="m 82.476639,378.98638 c 7.581776,-0.15757 13.785047,-0.50297 13.785047,-0.76754 0,-0.26457 -0.864486,-2.18086 -1.921075,-4.25842 -1.789081,-3.51785 -1.901454,-5.13133 -1.635514,-23.4831 l 0.285561,-19.70569 2.622205,-2.26082 c 3.786552,-3.26468 7.374557,-2.93645 11.806477,1.08004 3.92956,3.56121 7.53394,9.96933 7.53394,13.39438 0,1.82492 0.2419,1.95087 1.96757,1.02444 1.08311,-0.58148 3.36094,-0.79409 5.0673,-0.47297 1.77,0.33309 3.35513,0.16882 3.69507,-0.38294 1.02375,-1.66163 2.25336,-1.06868 3.73204,1.79968 1.63241,3.1666 1.73882,3.79656 0.64131,3.79656 -0.43152,0 -1.27443,-1.07847 -1.87314,-2.39662 -1.4199,-3.12606 -3.20473,-2.14813 -1.97949,1.08459 1.39187,3.67233 1.07592,6.45838 -1.03812,9.15435 -2.56262,3.26802 -8.44685,3.50867 -10.59424,0.43327 -1.67311,-2.39616 -1.49428,-2.75094 -4.65508,9.23511 -1.8848,7.14729 -2.04612,8.69026 -0.95259,9.1112 0.72406,0.27872 1.31647,1.1528 1.31647,1.94243 0,1.24137 2.52964,1.43567 18.69159,1.43567 l 18.69159,0 0,-2.48849 c 0,-1.36867 1.29579,-7.48637 2.87955,-13.5949 l 2.87955,-11.10642 -2.15733,-6.32697 -2.15732,-6.32697 -1.42316,14.92293 c -1.483,15.55039 -2.4104,17.93589 -5.06391,13.02571 l -1.4246,-2.63614 -0.0374,3.92904 c -0.0455,4.77739 -1.58693,6.01305 -3.81112,3.05516 -2.81958,-3.74969 -2.81197,-7.97611 0.0411,-22.80221 3.89512,-20.24092 4.49175,-22.31916 7.23379,-25.19761 2.93341,-3.07935 3.86077,-3.15317 8.67296,-0.69051 5.04831,2.58351 8.79589,10.67718 9.54217,20.60828 0.21184,2.81912 0.63812,3.35252 3.05,3.81646 1.7749,0.34141 3.39112,0.0431 4.40443,-0.81273 2.11735,-1.78841 4.48151,-0.78152 4.44435,1.89283 -0.0279,2.01288 -0.10521,2.03891 -1.31215,0.44207 -1.69865,-2.24742 -2.87869,-0.42933 -2.50972,3.86672 0.37988,4.423 -1.97381,6.73625 -6.85401,6.73625 -2.13061,0 -4.3479,-0.47554 -4.9273,-1.05675 -1.09284,-1.09626 -1.05512,-1.19793 -4.33162,11.6742 -1.3144,5.16375 -1.29213,5.55947 0.40871,7.26563 1.64209,1.64724 3.26419,1.80442 18.62121,1.80442 11.488,0 16.82243,-0.3231 16.82243,-1.01891 0,-0.5604 0.65328,-6.33537 1.45172,-12.83327 1.32057,-10.74693 1.31787,-12.22488 -0.0298,-16.35803 -1.24438,-3.81637 -1.30419,-5.40493 -0.37364,-9.9243 0.60934,-2.95935 0.81398,-6.95222 0.45475,-8.87306 -0.59492,-3.18111 -0.92013,-3.48876 -3.64818,-3.45128 -4.11645,0.0565 -9.36849,2.06227 -13.32303,5.08798 -5.53426,4.23437 -7.64949,1.73617 -4.22736,-4.99271 1.21921,-2.39731 3.01985,-4.09079 5.582,-5.24977 4.46738,-2.02079 4.1733,-3.32415 -0.75003,-3.32415 -2.40706,0 -4.10591,-0.62916 -5.31366,-1.96787 -1.75657,-1.94706 -1.74586,-1.99146 1.01197,-4.19735 5.74465,-4.59495 6.88344,-4.6491 17.65302,-0.83949 5.41017,1.91379 10.59218,4.31688 11.51558,5.3402 1.42778,1.58228 1.69489,3.7501 1.78572,14.49226 l 0.1068,12.63167 3.01347,1.83832 c 1.68598,1.02851 3.78097,1.59398 4.75574,1.28363 1.34318,-0.42765 2.1805,0.30699 3.65543,3.20712 2.11894,4.16645 2.26551,4.77401 1.15167,4.77401 -0.41881,0 -1.4741,-1.49905 -2.34508,-3.33123 -1.92174,-4.04251 -3.43549,-3.44051 -3.43549,1.36626 0,4.44865 -2.26312,6.65247 -6.83148,6.65247 -2.95964,0 -3.49052,0.34265 -3.99444,2.57812 -0.31965,1.41797 -1.1486,4.86883 -1.84212,7.66857 -1.23372,4.9804 -1.2104,5.13744 1.07879,7.26562 2.19479,2.04041 3.08316,2.17519 14.33787,2.17519 l 11.9981,0 0.66674,-11.13138 c 0.45186,-7.54405 0.33455,-11.754 -0.36402,-13.06337 -0.5669,-1.06259 -1.03075,-2.93003 -1.03075,-4.14987 0,-1.21984 -0.5257,-2.7481 -1.16822,-3.39614 -1.61546,-1.62934 -1.34464,-20.20804 0.63058,-43.25924 0.86156,-10.05469 1.8607,-23.34375 2.22029,-29.53125 0.76677,-13.19368 2.0608,-14.57668 5.44311,-5.81732 1.96951,5.10052 2.11159,7.02417 2.32394,31.46228 0.1244,14.31628 -0.0825,26.53071 -0.45992,27.14319 -0.37735,0.61248 -0.18573,5.25507 0.42584,10.31688 1.03202,8.54174 1.28781,9.2813 3.55845,10.28888 1.34557,0.5971 3.31739,0.85689 4.38183,0.57732 1.60524,-0.42161 2.1233,0.12104 3.03739,3.1815 1.32709,4.44329 1.34866,4.87852 0.24172,4.87852 -0.47317,0 -1.13743,-1.26563 -1.47613,-2.8125 -0.91225,-4.16643 -3.30028,-3.71973 -2.61927,0.48996 0.7188,4.44321 -1.57652,7.01004 -6.26853,7.01004 l -3.45793,0 -0.56221,6.72713 c -0.5276,6.31286 -0.41967,6.85966 1.75263,8.87917 2.13172,1.98178 3.29306,2.17508 14.67901,2.44315 6.80029,0.16011 -30.32276,0.28994 -82.49566,0.28852 -52.1729,-0.002 -88.656547,-0.1315 -81.074771,-0.28909 z m 16.58357,-0.93951 c -0.0028,-0.38671 -0.44014,-2.27407 -0.971729,-4.19412 -0.904738,-3.26784 0.712832,-28.78709 2.49634,-39.38301 0.72482,-4.30619 -1.185835,-5.48642 -4.711536,-2.91035 l -2.356598,1.72186 -0.02935,18.49055 c -0.02729,17.17102 0.117308,18.79338 2.026028,22.73437 1.826664,3.77158 3.561421,5.50332 3.546869,3.5407 z m 4.219021,-0.22106 c -0.31317,-0.50831 0.51596,-6.20904 1.84252,-12.6683 l 2.41193,-11.74412 -2.71846,-6.31607 c -1.49515,-3.47384 -2.92473,-6.94888 -3.17683,-7.72232 -0.57732,-1.77114 -1.33793,3.77321 -2.592732,18.89914 -1.142981,13.77813 -0.165075,20.47586 2.989612,20.47586 0.99735,0 1.55714,-0.41588 1.24396,-0.92419 z m 6.06657,-0.48206 c 0,-0.77344 -0.63885,-1.40625 -1.41967,-1.40625 -1.6475,0 -1.62685,-0.11525 2.85508,-15.9368 3.28741,-11.6048 3.12604,-14.0632 -0.92312,-14.0632 -1.22413,0 -2.43947,0.43242 -2.70077,0.96094 -0.26129,0.52851 -0.36853,0.42304 -0.23832,-0.23438 0.32154,-1.62334 4.08328,-2.07071 5.74927,-0.68374 1.13121,0.94176 1.35043,0.62103 1.35043,-1.97579 0,-6.93518 -7.58528,-16.81703 -12.90869,-16.81703 -2.795025,0 -6.717483,2.30557 -6.717483,3.94846 0,0.56631 0.865738,0.24371 1.923869,-0.71687 2.507234,-2.27611 5.054294,-0.81107 5.163814,2.97016 0.0985,3.39926 0.84447,5.79977 4.2601,13.70807 l 2.72795,6.31607 -2.41193,11.74412 c -1.32656,6.45926 -2.15569,12.15999 -1.84252,12.6683 0.92319,1.49843 5.13199,1.10308 5.13199,-0.48206 z m 45.79439,0.80647 c 0,-0.32986 -0.62023,-1.06815 -1.3783,-1.64062 -1.20172,-0.90751 -1.09307,-2.12175 0.84814,-9.47835 1.22454,-4.64063 3.09426,-10.81792 4.15492,-13.72732 2.80836,-7.70329 3.33046,-12.36089 1.95599,-17.44914 -2.09678,-7.76221 -4.18978,-10.98858 -8.34896,-12.86997 -3.77731,-1.70865 -3.88363,-1.70619 -6.35827,0.14717 -3.01191,2.25573 -3.90336,5.18057 -7.66514,25.14926 -2.74827,14.58856 -2.84246,17.40344 -0.72945,21.79687 1.56083,3.24533 2.25855,2.55331 2.83568,-2.8125 0.45996,-4.2764 2.20853,-10.7357 8.69218,-32.10937 2.55157,-8.41136 2.55463,-8.5495 0.23866,-10.77952 -2.09474,-2.017 -2.10121,-2.06265 -0.14986,-1.05592 2.96563,1.52999 3.45604,4.27685 1.62311,9.09128 -1.60041,4.20372 -1.59091,4.31978 0.95301,11.65042 l 2.56953,7.40441 -2.89165,11.15305 c -1.5904,6.13418 -2.89164,12.27287 -2.89164,13.64154 0,2.21899 0.35425,2.48849 3.27102,2.48849 1.79907,0 3.27103,-0.2699 3.27103,-0.59978 z m -0.73568,-33.09884 c 1.75316,-2.94869 2.72779,-3.22636 4.97908,-1.41855 1.74499,1.40124 1.72529,1.41869 -0.41735,0.37006 -1.95603,-0.95729 -2.48795,-0.81149 -4.0867,1.12017 l -1.83797,2.22069 z m 43.72634,32.76112 c 0,-0.51563 -0.31542,-0.94396 -0.70094,-0.95185 -3.01763,-0.0618 -2.98477,-1.72586 0.31551,-15.97824 3.48755,-15.06114 4.90715,-29.87419 3.6615,-38.20669 l -0.65028,-4.3499 -1.21499,2.89864 c -0.77017,1.83742 -2.27339,3.26876 -4.10593,3.90958 -2.78526,0.97398 -2.87006,1.16378 -2.31962,5.19221 0.31423,2.29971 0.0713,6.27204 -0.5398,8.82742 -0.93108,3.89332 -0.86588,5.3983 0.40241,9.28798 1.38535,4.24871 1.39059,5.64235 0.0618,16.45617 -0.79841,6.4979 -1.45169,12.27287 -1.45169,12.83327 0,0.5604 1.47197,1.01891 3.27103,1.01891 1.79907,0 3.27103,-0.42188 3.27103,-0.9375 z m -5.57906,-32.39063 c -0.0913,-3.16285 5.45268,-4.33744 7.52236,-1.59375 1.05285,1.39573 1.04203,1.4657 -0.0725,0.46875 -1.89076,-1.69131 -5.36063,-1.43987 -6.46885,0.46875 -0.52393,0.90235 -0.96539,1.19766 -0.98101,0.65625 z m 39.22392,32.45381 c 0,-0.48088 -0.87056,-1.1515 -1.93458,-1.49026 -1.78321,-0.56773 -1.88902,-1.10448 -1.35226,-6.86005 0.32028,-3.43426 0.98684,-9.10773 1.48125,-12.60771 1.04239,-7.37914 0.0957,-10.33072 -3.16419,-9.86517 -1.77758,0.25384 -1.99546,0.77295 -1.69625,4.04126 0.18882,2.0625 0.28181,9.12891 0.20665,15.70312 l -0.13667,11.95313 3.29803,0 c 1.81391,0 3.29802,-0.39345 3.29802,-0.87432 z m -85.28297,-21.36254 c 0.58982,-6.55841 0.9699,-12.02718 0.84464,-12.15284 -0.12527,-0.12566 -1.40203,4.00812 -2.83723,9.18617 -2.23308,8.05664 -2.44639,9.80959 -1.47881,12.15283 0.62186,1.50601 1.41605,2.7382 1.76484,2.7382 0.3488,0 1.11675,-5.36596 1.70656,-11.92436 z m 88.05699,0.90873 c -0.0164,-1.41796 -0.59746,-3.3288 -1.29135,-4.2463 -1.1335,-1.49878 -1.32029,-1.51479 -1.83943,-0.1577 -0.3178,0.83077 -0.57782,2.7416 -0.57782,4.24631 0,2.11082 0.42701,2.73582 1.86916,2.73582 1.42323,0 1.86206,-0.61507 1.83944,-2.57813 z m -112.11982,-0.74025 c 0,-0.79385 -1.69923,-3.11416 -3.77607,-5.15625 -3.57699,-3.51711 -5.37656,-4.73722 -4.2212,-2.86195 0.28835,0.468 0.16065,1.83691 -0.28376,3.04202 -1.24286,3.37028 1.18795,6.41956 5.11749,6.41956 2.22515,0 3.16354,-0.42815 3.16354,-1.44338 z M 165.42057,355.5 c 0,-5.08755 -3.76794,-6.51743 -5.58412,-2.11909 -1.42978,3.4626 -0.66384,4.74409 2.83554,4.74409 2.3873,0 2.74858,-0.34504 2.74858,-2.625 z m 39.25234,0.038 c 0,-1.5637 -0.73258,-3.04593 -1.85205,-3.74723 -1.65281,-1.03542 -1.91256,-0.88318 -2.41451,1.41511 -0.30935,1.41644 -0.72442,3.1027 -0.92236,3.74723 -0.23199,0.75541 0.62609,1.17187 2.4145,1.17187 2.40588,0 2.77442,-0.34363 2.77442,-2.58698 z m 27.23959,-17.9483 c -0.70214,-6.00381 -0.75184,-10.24325 -0.14944,-12.74597 1.32231,-5.49357 1.15241,-5.97406 -0.91169,-2.57812 -2.16734,3.56582 -2.70348,3.6726 -5.87493,1.17014 l -2.37844,-1.87673 -0.6681,8.04555 c -0.92917,11.18932 0.62387,20.86165 2.78614,17.3521 1.01715,-1.65093 4.14741,-1.16806 5.39246,0.83182 2.21463,3.55725 2.93588,-0.52033 1.804,-10.19879 z m -55.3135,-8.03381 c 3.1097,-2.09922 6.46454,-3.47488 9.43971,-3.87078 5.08298,-0.6764 5.68724,-1.52642 2.5127,-3.53465 -4.15066,-2.62573 -6.38876,-2.74574 -10.97968,-0.58874 -4.28655,2.01398 -7.47827,6.22919 -7.47827,9.87632 0,2.05102 1.1884,1.7072 6.50554,-1.88215 z m 18.40661,-5.20896 c 3.25418,-1.13796 6.4064,-6.8449 4.60782,-8.34225 -0.59409,-0.49458 -5.40079,-2.44054 -10.68156,-4.32436 -10.31756,-3.68057 -11.57209,-3.64712 -16.92318,0.45119 -1.95512,1.49738 -2.10938,1.97295 -1.05379,3.24882 0.72149,0.87205 2.66827,1.49465 4.67356,1.49465 1.89033,0 3.8365,0.35076 4.32482,0.77946 0.48832,0.4287 2.66632,1.28671 4.84,1.90668 2.17369,0.61998 4.69705,2.15439 5.60747,3.40984 1.9802,2.73059 1.30666,2.52932 4.60486,1.37597 z m 35.4386,-2.92096 c 1.29052,-2.50337 1.49981,-6.29296 1.38503,-25.07812 -0.12158,-19.89827 -0.33215,-22.67255 -2.08875,-27.51974 -1.07445,-2.96485 -2.31776,-5.39063 -2.7629,-5.39063 -0.44515,0 -0.80936,2.42998 -0.80936,5.39996 0,5.39869 -2.29996,36.69047 -3.37146,45.87002 -0.50961,4.36573 -0.32257,5.10967 1.82667,7.26563 3.10048,3.11017 3.97792,3.0277 5.82077,-0.54712 z"
       id="path3998"
       inkscape:connector-curvature="0"
       sodipodi:nodetypes="cssscsssssssssssssssscsscccsscsssssssccsssssssssssscssssssssscssssssssssscsssssssscsssssssscsssccccssscsscccscscsscssssscssssscscsssssssssssssssssscsssssssscsccsscsssssssscccssscsssscsscssscsssscsssscsscssssssssssssssssscssssssssssssssssssssssssssss" />
  </g>
</svg>
