<?xml version="1.0" encoding="UTF-8" standalone="no"?>
<!-- Created with Inkscape (http://www.inkscape.org/) -->

<svg
   xmlns:dc="http://purl.org/dc/elements/1.1/"
   xmlns:cc="http://creativecommons.org/ns#"
   xmlns:rdf="http://www.w3.org/1999/02/22-rdf-syntax-ns#"
   xmlns:svg="http://www.w3.org/2000/svg"
   xmlns="http://www.w3.org/2000/svg"
   xmlns:sodipodi="http://sodipodi.sourceforge.net/DTD/sodipodi-0.dtd"
   xmlns:inkscape="http://www.inkscape.org/namespaces/inkscape"
   id="svg3478"
   version="1.1"
   inkscape:version="0.91 r13725"
   width="536.07068"
   height="181.875"
   viewBox="0 0 536.07068 181.875"
   sodipodi:docname="fx520102.svg">
  <metadata
     id="metadata3484">
    <rdf:RDF>
      <cc:Work
         rdf:about="">
        <dc:format>image/svg+xml</dc:format>
        <dc:type
           rdf:resource="http://purl.org/dc/dcmitype/StillImage" />
        <dc:title />
      </cc:Work>
    </rdf:RDF>
  </metadata>
  <defs
     id="defs3482" />
  <sodipodi:namedview
     pagecolor="#ffffff"
     bordercolor="#666666"
     borderopacity="1"
     objecttolerance="10"
     gridtolerance="10"
     guidetolerance="10"
     inkscape:pageopacity="0"
     inkscape:pageshadow="2"
     inkscape:window-width="1437"
     inkscape:window-height="835"
     id="namedview3480"
     showgrid="false"
     inkscape:zoom="2.1489704"
     inkscape:cx="131.11662"
     inkscape:cy="109.08628"
     inkscape:window-x="0"
     inkscape:window-y="0"
     inkscape:window-maximized="0"
     inkscape:current-layer="svg3478" />
  <g
     id="g3488"
     transform="translate(14.161615,11.420399)">
    <path
       style="fill:#fefefe"
       d="m 23.622661,143.4664 c -2.18685,-0.75753 -3.976092,-1.64613 -3.976092,-1.97465 0,-0.32852 5.367724,-0.878 11.928275,-1.22106 6.560551,-0.34306 13.507016,-0.87172 15.43659,-1.17479 2.76494,-0.43428 3.508316,-0.24712 3.508316,0.88329 0,0.83845 -1.192267,1.69674 -2.869868,2.06597 -1.578427,0.3474 -3.085673,1.1952 -3.349437,1.88398 -0.656387,1.71409 -15.342529,1.38543 -20.677784,-0.46274 z m 21.283783,1.04422 c 0,-0.44104 1.368244,-1.19659 3.040541,-1.67901 l 3.04054,-0.87713 0,-10.74286 c 0,-10.08496 0.113546,-10.74287 1.854061,-10.74287 1.241487,0 3.647677,2.47797 7.282737,7.5 8.15221,11.2627 8.617434,12.30244 6.769332,15.12888 -2.455453,3.75529 -5.191991,2.60923 -8.142559,-3.41013 -1.390121,-2.83594 -2.888141,-7.05469 -3.328935,-9.375 -0.583635,-3.07223 -0.689073,-1.60721 -0.38797,5.39062 l 0.413474,9.60938 -5.27061,0 c -2.898836,0 -5.270611,-0.36084 -5.270611,-0.80188 z m 11.226611,-3.10437 c 0,-2.14843 0.134438,-3.73047 0.298751,-3.51563 0.164313,0.21485 1.202609,1.97266 2.307325,3.90625 l 2.008575,3.51563 -2.307325,0 c -2.083561,0 -2.307326,-0.37883 -2.307326,-3.90625 z m 26.524253,2.71774 c 1.5224,-1.11552 1.471918,-1.59046 -0.822115,-7.73437 -3.036071,-8.13126 -6.681426,-14.51462 -8.288883,-14.51462 -1.932638,0 -4.422927,-3.31623 -3.770229,-5.02067 0.613751,-1.60274 2.945955,-2.01634 4.648386,-0.82435 2.76956,1.93916 7.262751,10.16697 10.210227,18.6967 1.818901,5.26374 3.307093,9.79889 3.307093,10.07813 0,0.27923 -1.553958,0.50769 -3.45324,0.50769 -3.017625,0 -3.24863,-0.14993 -1.831239,-1.18851 z m 16.521213,0.95413 c 0.0056,-0.1289 0.641301,-2.31941 1.412729,-4.86779 1.28968,-4.26037 1.24883,-5.4813 -0.50737,-15.16472 l -1.909963,-10.53132 5.390053,-10.85089 c 2.96454,-5.967997 5.70422,-10.8509 6.0882,-10.8509 0.38398,0 1.49616,1.558753 2.47153,3.463903 l 1.77339,3.463894 -5.11446,8.246203 -5.11447,8.2462 1.0841,8.16348 c 0.59626,4.48992 1.32229,8.54968 1.61341,9.0217 0.78801,1.27769 -4.5371,11.89462 -5.96597,11.89462 -0.677213,0 -1.226746,-0.10547 -1.221179,-0.23438 z m 35.540809,-0.39493 c 0,-0.34611 0.63091,-1.3279 1.40203,-2.18175 1.25276,-1.38717 1.04058,-3.11586 -1.99285,-16.23701 -2.76353,-11.9537 -3.17694,-14.9477 -2.22302,-16.0995 2.69906,-3.25894 6.23426,0.21307 5.16841,5.076 -0.31716,1.44703 0.29178,7.81609 1.35321,14.15347 1.75061,10.45222 1.79639,11.72663 0.49281,13.72029 -1.30926,2.00234 -4.20059,3.08197 -4.20059,1.5685 z m 72.03742,-0.1577 c 0,-0.43287 1.04273,-1.26311 2.31718,-1.84499 l 2.31716,-1.05798 0.2556,-16.67064 c 0.2447,-15.96026 0.33532,-16.67063 2.1267,-16.67063 1.75424,0 1.85824,0.55623 1.66522,8.90625 -0.11323,4.89844 -0.4695,13.23047 -0.79169,18.51562 l -0.58581,9.60938 -3.65218,0 c -2.00869,0 -3.65218,-0.35416 -3.65218,-0.78701 z m 58.00416,0.075 c 0,-0.3916 0.86115,-1.25091 1.91365,-1.90958 2.0664,-1.29318 2.05174,-3.79046 -0.1128,-19.21078 -1.03573,-7.37863 -0.0861,-10.33026 3.17409,-9.86517 1.77944,0.25385 1.99755,0.77295 1.69802,4.04126 -0.18902,2.0625 -0.28211,9.12891 -0.20686,15.70313 l 0.13681,11.95312 -3.30146,0 c -1.81579,3e-5 -3.30145,-0.32036 -3.30145,-0.71195 z m 50.27313,-0.94949 c 2.02542,-1.56804 2.06207,-1.88525 1.14718,-9.93044 -0.51979,-4.57087 -0.69664,-9.63776 -0.39298,-11.25976 0.30366,-1.622 0.10016,-4.14026 -0.4522,-5.59613 -1.37749,-3.63061 -0.1186,-5.28026 1.56794,-2.05466 1.40314,2.68356 2.9853,15.80005 3.02908,25.11184 l 0.0254,5.39065 -3.50832,-0.0208 -3.50832,-0.0208 2.09226,-1.61978 z m 34.86201,-2.67975 c 0,-2.38769 0.58399,-8.39941 1.29777,-13.35938 0.71378,-4.95996 1.24003,-10.70562 1.16944,-12.76812 -0.11668,-3.40929 0.0842,-3.75 2.21054,-3.75 1.94778,0 2.38736,0.50224 2.62881,3.00355 0.15947,1.65196 -0.15906,3.84429 -0.70785,4.87184 -1.24083,2.32334 -3.79169,15.45029 -3.7919,19.5135 -1.1e-4,2.05451 0.59545,3.33331 1.87094,4.01736 2.86712,1.53763 2.23101,2.8125 -1.40333,2.8125 -3.27078,0 -3.27442,-0.005 -3.27442,-4.34125 z m 42.18255,-7.61188 c 0.0752,-6.57421 -0.0179,-13.64062 -0.20686,-15.70312 -0.29953,-3.26831 -0.0814,-3.78742 1.69801,-4.04126 3.26327,-0.46555 4.21095,2.48603 3.16748,9.86517 -0.49493,3.49998 -1.16218,9.17345 -1.48279,12.60771 -0.53732,5.75557 -0.4314,6.29232 1.35366,6.86005 3.06036,0.97335 2.25732,2.36458 -1.36485,2.36458 l -3.30146,0 0.13681,-11.95313 z m 38.91401,10.65645 c -0.91636,-2.39298 -1.68912,-27.26807 -0.9259,-29.80499 0.67052,-2.22878 0.94395,-2.3685 2.45667,-1.25529 1.98899,1.46368 2.53598,10.58132 1.29831,21.64132 -0.72784,6.50405 -0.6972,6.64843 1.63721,7.71427 1.30841,0.5974 2.37893,1.51709 2.37893,2.04377 0,1.46838 -6.27204,1.1577 -6.84522,-0.33908 z m 48.00946,0.5847 c 0,-0.3916 0.86115,-1.25091 1.91365,-1.90958 2.0664,-1.29318 2.05174,-3.79046 -0.1128,-19.21078 -1.03572,-7.37863 -0.0861,-10.33027 3.1741,-9.86517 1.77943,0.25384 1.99754,0.77295 1.69801,4.04126 -0.18902,2.0625 -0.28211,9.12891 -0.20686,15.70312 l 0.13681,11.95313 -3.30146,0 c -1.81579,0 -3.30145,-0.32039 -3.30145,-0.71198 z m -179.37939,-5.21428 c -0.55637,-1.22364 -1.30474,-4.57609 -1.66306,-7.44988 -0.56688,-4.54663 -0.2577,-6.27056 2.3812,-13.27698 2.52807,-6.71215 3.25496,-7.86703 4.36864,-6.94083 1.59372,1.32543 1.11105,3.77935 -2.20974,11.23454 -2.24182,5.03287 -2.29856,5.57013 -1.13856,10.78125 1.51281,6.79608 1.52507,7.12449 0.28133,7.53994 -0.55452,0.18523 -1.46344,-0.66439 -2.01981,-1.88804 z m -74.58399,-0.40187 c 0.38866,-0.90234 1.15539,-3.67902 1.70384,-6.17039 0.91358,-4.14998 0.78429,-4.93722 -1.54211,-9.38985 -1.39662,-2.67305 -2.54189,-5.9081 -2.54506,-7.18899 -0.003,-1.28089 -0.60601,-3.4819 -1.33963,-4.89113 -0.73362,-1.40924 -0.96457,-2.79097 -0.5132,-3.0705 0.95801,-0.59333 10.24193,16.11992 10.26378,18.47722 0.0343,3.70264 -2.22142,11.5948 -3.61874,12.66097 -2.17358,1.65844 -3.22679,1.47161 -2.40888,-0.42733 z m 141.86543,-1.43758 c -0.95439,-1.15237 -4.84591,-9.71167 -4.84591,-10.65847 0,-0.25092 0.88383,-0.32141 1.96407,-0.15665 1.33897,0.20424 2.36993,1.49307 3.23928,4.04958 0.70137,2.0625 2.13302,4.45043 3.18147,5.30652 1.04843,0.85609 1.90624,1.80531 1.90624,2.10938 0,1.07077 -4.46098,0.53796 -5.44515,-0.65036 z m 80.58732,-4.69061 c 0.19354,-5.01133 -4.60084,-15.22331 -9.80152,-20.87714 -4.19024,-4.55534 -4.50398,-6.60389 -1.23971,-8.09429 3.1919,-1.45735 4.00357,-0.25633 9.78959,14.48553 4.85462,12.3688 5.48991,15.4589 3.57308,17.37972 -1.9343,1.93834 -2.48171,1.25596 -2.32144,-2.89382 z m -292.87082,-1.88911 c -0.86284,-1.89769 -8.86771,-9.4128 -14.71111,-13.81107 -1.77906,-1.33908 -1.78514,-1.31461 -0.23389,0.94323 1.91987,2.79437 2.08648,7.13524 0.30023,7.82211 -1.62922,0.6265 -2.5972,-6.45102 -1.67884,-12.27502 l 0.6323,-4.00992 9.0959,9.16617 c 5.57764,5.62074 9.19631,10.03276 9.35551,11.40659 0.34822,3.00509 -1.50675,3.51445 -2.7601,0.75791 z m 107.36339,-6.98269 c 0.0164,-1.41797 0.59808,-3.32881 1.29269,-4.24631 1.13468,-1.49878 1.32166,-1.51479 1.84134,-0.1577 0.31813,0.83077 0.57842,2.7416 0.57842,4.24631 0,2.11082 -0.42745,2.73582 -1.8711,2.73582 -1.42471,0 -1.864,-0.61507 -1.84135,-2.57813 z m 45.11058,1.61141 c -1.15774,-0.46633 -2.10499,-1.36771 -2.10499,-2.00308 0,-0.89849 0.24948,-0.90521 1.12266,-0.0302 0.61747,0.61875 1.88046,1.125 2.80666,1.125 0.92619,0 1.68399,0.42187 1.68399,0.9375 0,1.11276 -0.68736,1.10704 -3.50832,-0.0293 z m 90.51455,-1.76911 c 0,-1.50471 0.26029,-3.41554 0.57843,-4.2463 0.51968,-1.3571 0.70666,-1.34109 1.84134,0.15769 0.69461,0.9175 1.27631,2.82834 1.29269,4.24631 0.0226,1.96305 -0.41664,2.57812 -1.84136,2.57812 -1.44364,0 -1.8711,-0.625 -1.8711,-2.73582 z m 78.58628,0.0381 c 0,-2.70193 1.96973,-5.32845 3.12662,-4.16916 0.33857,0.33929 0.61558,2.02312 0.61558,3.74188 0,2.49999 -0.37422,3.12499 -1.8711,3.12499 -1.4376,0 -1.8711,-0.625 -1.8711,-2.69771 z m -119.47896,0.71984 c -1.29291,-1.29556 0.2944,-6.45958 1.98556,-6.45958 0.93562,0 4.29174,5.52329 4.29174,7.06306 0,0.90219 -5.28145,0.39449 -6.2773,-0.60343 z M 216.4631,118.94531 c 0.32159,-1.61133 0.58471,-4.35351 0.58471,-6.09375 0,-3.87094 2.40107,-4.35512 3.76536,-0.75928 1.49573,3.94227 1.10948,7.73605 -0.8972,8.81224 -3.18949,1.71051 -4.084,1.20296 -3.45287,-1.95921 z M 436.15384,120.75 c -1.54597,-1.54919 -1.41076,-5.90581 0.22552,-7.26663 1.32352,-1.10072 2.08297,-0.25602 6.49118,7.21976 0.92342,1.56599 -5.15838,1.60844 -6.7167,0.0469 z M 56.171216,113.41898 c -5.513354,-3.49288 -9.863264,-5.60648 -11.538462,-5.60648 -1.748091,0 -2.544113,-0.41002 -2.27511,-1.17187 0.801111,-2.26886 7.378958,-0.79067 15.101822,3.3937 4.184051,2.26699 8.314983,4.27652 9.179847,4.46561 1.468332,0.32104 1.466807,0.4823 -0.02302,2.43467 l -1.5955,2.09087 -8.849573,-5.6065 z m 10.865674,-0.75842 c -0.851579,-0.94295 -1.548325,-2.18872 -1.548325,-2.76839 0,-1.97552 2.168228,-5.82967 3.279599,-5.82967 1.706111,0 4.204808,3.20167 4.204808,5.38777 0,4.92539 -2.947552,6.51945 -5.936082,3.21029 z m 88.26456,-2.87828 c 0,-0.46349 6.42022,-4.95888 14.26716,-9.989746 7.84693,-5.030868 17.76447,-11.65875 22.03898,-14.728628 4.27452,-3.069878 7.94683,-5.406239 8.16072,-5.191913 0.21388,0.214328 -0.0445,1.962485 -0.57417,3.884795 -0.52967,1.922309 -0.74052,4.218901 -0.46856,5.103535 0.39381,1.280965 -2.2144,3.018346 -12.81097,8.533655 -7.318,3.808872 -14.02833,7.553072 -14.91181,8.320432 -0.8835,0.76737 -4.45287,2.18618 -7.93194,3.15291 -7.22389,2.00729 -7.76941,2.07154 -7.76941,0.91496 z m -40.97053,-19.53319 -4.01628,-0.360833 0.60839,-19.397254 c 0.51933,-16.557112 0.90191,-20.184533 2.61296,-24.774119 1.1025,-2.957276 2.3203,-5.383058 2.70621,-5.390625 0.38592,-0.0076 0.71501,6.630772 0.7313,14.751866 0.0163,8.121094 0.63447,19.195313 1.37369,24.609375 1.60729,11.771745 1.57683,11.2905 0.70167,11.086212 -0.38592,-0.09008 -2.50899,-0.326164 -4.71794,-0.524622 z m 151.81547,-2.158677 c -1.21118,-2.347035 -1.47621,-6.776818 -1.50897,-25.221306 -0.0222,-12.47795 0.3557,-23.140214 0.85429,-24.106038 0.49172,-0.952501 1.4031,-3.31385 2.02528,-5.247444 1.64422,-5.109878 2.85723,-4.309909 2.85723,1.884324 0,5.398701 2.30235,36.690471 3.37497,45.870032 0.51014,4.365718 0.3229,5.10967 -1.82857,7.265625 -3.08756,3.093998 -3.98349,3.024922 -5.77423,-0.445193 z m 125.2386,0.445193 c -2.15148,-2.155955 -2.33871,-2.899907 -1.82857,-7.265625 1.07262,-9.179561 3.37497,-40.471331 3.37497,-45.870032 0,-6.194233 1.21301,-6.994202 2.85723,-1.884324 0.62218,1.933594 1.53355,4.294943 2.02528,5.247444 0.49859,0.965824 0.87646,11.628088 0.85429,24.106038 -0.0327,18.444488 -0.2978,22.874271 -1.50897,25.221306 -1.79074,3.470115 -2.68667,3.539191 -5.77423,0.445193 z m 88.54728,-0.420624 c -1.2811,-2.398751 -1.46201,-46.906329 -0.20059,-49.349681 0.49238,-0.953728 1.40429,-3.316082 2.02647,-5.249676 C 482.38033,31.582031 483.21289,30 483.60829,30 c 0.3954,0 0.99452,5.378906 1.33138,11.953125 0.33686,6.574219 1.24299,19.094672 2.01361,27.823229 1.25229,14.184114 1.24993,16.101358 -0.0222,18.046875 -1.78181,2.725055 -5.61395,2.884801 -6.99883,0.291753 z M 316.85908,86.204856 c -3.12709,-3.288446 -4.57617,-3.426237 -8.27511,-0.786871 l -2.77555,1.980484 0.56066,-5.964859 c 1.58728,-16.886894 1.3019,-15.80861 4.18369,-15.80861 l 2.62187,0 -0.27678,8.671875 -0.27678,8.671875 0.65981,-7.688003 c 0.3629,-4.228403 0.9417,-7.970475 1.28623,-8.315716 0.34452,-0.345241 1.69851,-0.358071 3.00885,-0.02851 2.37983,0.598543 2.38245,0.611018 2.38245,11.36259 0,5.919864 -0.10525,10.743074 -0.23389,10.718245 -0.12864,-0.02484 -1.41809,-1.290455 -2.86545,-2.8125 z m 37.2508,1.217019 c -0.36526,-0.902344 -0.78671,-10.312708 -0.93654,-20.911921 -0.14985,-10.599213 -0.55949,-22.833588 -0.91032,-27.1875 -0.50832,-6.308261 -0.35373,-8.297055 0.76105,-9.791204 1.38818,-1.860583 1.41729,-1.857722 3.78606,0.372234 3.48981,3.285306 4.05384,6.142162 5.20154,26.346516 0.57116,10.054687 1.28639,21.234375 1.58939,24.84375 0.37689,4.489425 0.24687,6.266347 -0.41159,5.625 -0.53846,-0.524453 -1.46521,-10.850607 -2.10347,-23.4375 -0.62751,-12.375 -1.35432,-22.710938 -1.61513,-22.96875 -0.44973,-0.444555 0.0223,12.108295 1.32709,35.298258 l 0.58827,10.454509 -2.89198,1.498616 c -3.58322,1.856816 -3.57517,1.857077 -4.38437,-0.142008 z m 85.56264,-0.66692 C 436.18685,84.854618 435.33541,82.284217 434.19135,70.207878 432.79815,55.501571 432.70891,56.25 435.85567,56.25 c 2.40358,0 2.8075,0.445363 3.72867,4.111304 1.07779,4.28922 3.8668,23.079661 3.8668,26.051886 0,2.021265 -0.59869,2.075415 -3.77862,0.341765 z m -8.75693,-3.527465 c -0.33935,-1.689182 -0.88013,-8.239209 -1.20174,-14.555615 -0.50334,-9.885791 -0.38768,-11.484375 0.83089,-11.484375 1.09882,0 1.65453,2.105481 2.48325,9.408602 1.3704,12.076685 1.3438,14.218648 -0.21388,17.22735 l -1.28152,2.475278 -0.617,-3.07124 z m -223.86734,-3.754888 -3.91849,-1.973581 17.2306,-9.638248 c 14.73462,-8.242084 18.04652,-9.730752 22.86338,-10.276853 7.33885,-0.832027 7.25718,0.508868 -0.21439,3.519413 -3.21595,1.295818 -11.50893,6.429238 -18.42883,11.4076 -6.91992,4.978362 -12.81389,9.025396 -13.09772,8.993409 -0.28383,-0.03199 -2.27938,-0.946269 -4.43455,-2.031739 z m 109.2742,-14.525989 c -2.14211,-0.405893 -2.20985,-0.657299 -1.67081,-6.200455 1.36566,-14.043393 1.34246,-17.04663 -0.05,-6.480533 L 313.08807,63.75 l -2.65697,0 c -2.53228,0 -2.63434,-0.164975 -2.17483,-3.515625 0.26518,-1.933594 0.91193,-8.519655 1.43724,-14.635691 1.17812,-13.716581 2.38467,-16.488526 7.19144,-16.521828 3.73006,-0.02585 4.18906,2.644182 3.47297,20.202526 -0.36666,8.99009 -0.92229,16.288166 -1.23474,16.217947 -0.31246,-0.07022 -1.57279,-0.318041 -2.80074,-0.550716 z M 428.94119,44.707177 C 428.20967,32.975139 428.67537,30 431.24336,30 c 2.19772,0 5.44876,7.864079 6.62663,16.029434 1.21728,8.438578 1.23849,8.345566 -1.90326,8.345566 -2.75478,0 -2.80772,-0.09098 -2.86434,-4.921875 -0.0317,-2.707031 -0.65597,-7.664063 -1.3872,-11.015625 -1.31083,-6.008179 -1.32041,-6.021343 -0.68217,-0.9375 1.0331,8.229147 0.85516,17.134273 -0.35052,17.541937 -0.74263,0.251098 -1.28018,-2.939283 -1.74131,-10.33476 z"
       id="path3498"
       inkscape:connector-curvature="0" />
    <path
       style="fill:#fefe00"
       d="m 67.800982,143.14079 c 1.691075,-2.58628 1.315094,-3.93066 -2.582504,-9.23411 -1.510094,-2.05478 -1.716889,-3.30205 -1.162116,-7.00925 0.645784,-4.31537 3.673942,-11.58493 4.825739,-11.58493 0.301869,0 0.281412,0.6984 -0.04546,1.55199 -0.659416,1.72199 2.727637,5.94801 4.767189,5.94801 1.706495,0 1.557785,1.32597 -0.630855,5.625 -1.029106,2.02142 -1.894864,5.0632 -1.923906,6.75952 -0.06996,4.08631 -1.971749,9.40283 -3.548464,9.91986 -0.926778,0.30391 -0.846921,-0.22144 0.30038,-1.97609 z M 264.25217,114.07647 c -0.33655,-1.34372 -0.13862,-6.00703 0.43983,-10.36291 0.72338,-5.447154 0.7594,-9.190076 0.11542,-11.988543 -1.34668,-5.852006 -1.20447,-6.320802 0.87879,-2.896892 2.1696,3.565815 2.7063,3.672601 5.88104,1.170143 l 2.38091,-1.876731 0.6688,8.045554 c 0.93013,11.189319 -0.62453,20.861639 -2.78904,17.352089 -1.0413,-1.68838 -4.06286,-1.14994 -5.55905,0.99061 l -1.40479,2.00981 -0.61191,-2.44313 z m 132.62359,0.27454 c -1.24635,-1.99989 -4.37987,-2.48275 -5.39808,-0.83183 -2.16451,3.50955 -3.71917,-6.16277 -2.78903,-17.352089 l 0.66879,-8.045554 2.38092,1.876731 c 3.17474,2.502458 3.71144,2.395672 5.88104,-1.170143 2.06624,-3.395933 2.23632,-2.915443 0.91264,2.578125 -0.60303,2.502712 -0.55328,6.742153 0.14959,12.74597 1.13306,9.67846 0.41105,13.75604 -1.80587,10.19879 z m 81.61757,-0.27454 c -0.33655,-1.34372 -0.13623,-6.02502 0.44514,-10.40289 0.96184,-7.242799 0.88662,-9.205943 -0.57774,-15.07983 -0.42267,-1.695378 -0.31963,-1.672925 1.07555,0.234375 1.79849,2.458654 4.81591,2.729346 7.1211,0.638833 1.52273,-1.380927 1.66262,-0.976435 2.29555,6.637573 0.93482,11.245839 -0.61377,20.933219 -2.78385,17.414649 -1.0413,-1.68838 -4.06286,-1.14994 -5.55905,0.99061 l -1.40478,2.00981 -0.61192,-2.44313 z m -352.17979,-6.21003 c -1.79314,-3.72787 -3.54706,-6.95556 -3.89758,-7.17265 -0.35053,-0.21709 -1.75849,0.0324 -3.12881,0.55453 -1.62871,0.62052 -3.03278,0.63272 -4.0546,0.0352 -0.85971,-0.5027 -1.21137,-0.92685 -0.78147,-0.94252 0.42991,-0.0157 -0.30683,-1.980088 -1.63721,-4.365341 -1.33038,-2.385297 -2.41886,-4.554771 -2.41886,-4.821092 0,-1.262673 11.74018,0.95044 15.67399,2.95467 5.37669,2.739347 11.345,10.025103 11.42383,13.945533 0.0282,1.39942 -0.24172,1.47655 -1.78561,0.51036 -1.49938,-0.93832 -2.14736,-0.8402 -3.68994,0.55871 -1.02914,0.9333 -1.99994,2.55722 -2.15732,3.6087 -0.19766,1.32058 -1.29441,-0.18431 -3.54642,-4.86615 z m 231.52265,4.39919 c -0.65473,-1.49546 -1.74038,-2.12139 -3.73016,-2.15065 -2.65171,-0.039 -2.80247,-0.24601 -2.73071,-3.75 0.0417,-2.0398 0.41788,-7.187117 0.83579,-11.438483 0.63207,-6.429937 0.95225,-7.466059 1.90408,-6.16164 1.0588,1.451011 1.39614,1.419178 4.51746,-0.426284 4.25985,-2.518608 4.93007,-1.476457 2.93039,4.556558 -1.27957,3.860457 -1.37792,5.480972 -0.53598,8.831579 1.94774,7.75129 1.13548,12.64829 -2.09795,12.64829 -0.0932,0 -0.58499,-0.94922 -1.09292,-2.10937 z m -52.70725,-1.02325 c -2.00951,-2.14349 -2.02468,-2.33645 -0.64469,-8.20312 0.77729,-3.30441 1.41947,-7.983191 1.42708,-10.397297 0.0119,-3.766961 0.39907,-4.66418 2.73101,-6.328125 3.55895,-2.539476 4.94108,-2.446436 7.91408,0.532753 2.89219,2.898217 2.8675,2.716112 1.06312,7.840909 -0.77183,2.192156 -1.40333,6.80145 -1.40333,10.24287 0,3.61665 -0.47375,6.73187 -1.12266,7.38213 -1.96786,1.97196 -7.68864,1.35758 -9.96461,-1.07012 z m 127.1403,0.54491 c -1.23496,-1.00208 -2.23228,-3.13395 -2.53935,-5.42804 -0.51695,-3.86217 1.48226,-16.496726 3.39727,-21.469956 l 1.06545,-2.766957 2.0565,2.444266 c 1.13107,1.344347 3.00621,2.92205 4.16697,3.506009 2.0189,1.015669 2.04713,1.184504 0.65053,3.890861 -1.32163,2.561052 -1.32214,3.304171 -0.006,7.842739 1.87266,6.455138 1.81059,7.113978 -0.40096,4.256288 -1.72596,-2.23021 -1.9399,-2.27407 -4.41644,-0.90528 -3.32487,1.83767 -3.77682,4.2638 -1.28866,6.91784 3.03233,3.23448 0.88064,4.6062 -2.68582,1.71223 z m -216.61935,-3.96603 c -0.35142,-0.56979 -1.51727,-0.91033 -2.59079,-0.75674 -1.61411,0.23091 -2.14494,-0.47309 -3.0678,-4.06858 -1.17991,-4.596962 -5.69608,-11.120866 -7.69847,-11.120913 -2.1545,-5e-5 -3.27932,-4.06733 -2.20406,-7.969743 0.54149,-1.965189 0.78295,-3.899919 0.53657,-4.299398 -1.1493,-1.863483 1.81314,-1.642431 5.91707,0.441521 4.94343,2.510244 8.08434,6.422655 11.91783,14.845218 3.08125,6.769795 3.00823,13.224945 -0.15471,13.676615 -1.10919,0.15839 -2.30423,-0.1782 -2.65564,-0.74798 z"
       id="path3494"
       inkscape:connector-curvature="0" />
    <path
       style="fill:#fe0000"
       d="m 30.896051,109.92188 c 0.188024,-5.78058 4.676911,-15.865758 10.029715,-22.533754 3.16341,-3.940665 14.032441,-10.421145 17.756699,-10.587139 0.97969,-0.04367 1.181067,-0.2679 0.491131,-0.546875 -1.969744,-0.796465 -1.299741,-2.191612 1.052495,-2.191612 6.294374,0 10.183023,2.098068 6.431912,3.470252 -0.900467,0.329397 -2.641234,1.370844 -3.868371,2.314326 -2.704998,2.079734 -4.24142,2.215005 -3.511604,0.309172 0.815163,-2.128705 -1.134685,-1.723085 -8.331851,1.733251 -3.998999,1.92046 -7.479054,4.377614 -8.962497,6.328125 -3.642265,4.789049 -7.256026,12.415494 -8.386928,17.699704 -0.554135,2.58922 -1.393629,4.70767 -1.865544,4.70767 -0.471915,0 -0.847735,-0.31641 -0.835157,-0.70312 z M 328.61226,86.566612 c -2.18685,-0.775699 -3.97609,-1.706121 -3.97609,-2.067605 0,-0.361483 1.26299,-1.404866 2.80665,-2.318628 1.54366,-0.913762 2.80666,-2.059408 2.80666,-2.545882 0,-0.486473 0.47009,-0.884497 1.04466,-0.884497 0.58407,0 0.82893,0.826699 0.55536,1.875 -0.59074,2.263714 0.93366,2.431021 3.80261,0.417346 1.96073,-1.376208 1.99721,-1.611828 0.65286,-4.216933 -2.7061,-5.243918 -18.69717,-11.277403 -29.50404,-11.131973 -8.01551,0.107867 -14.85089,1.346499 -16.48892,2.987937 -1.28013,1.282805 -1.32933,1.932202 -0.32958,4.35082 0.64632,1.563623 1.97186,3.096348 2.94563,3.406054 1.86867,0.594328 2.45735,2.311749 0.79241,2.311749 -1.64663,0 -5.45794,-4.379287 -6.1233,-7.035804 -1.27376,-5.085624 5.79424,-7.945198 19.67163,-7.958766 11.19299,-0.01094 28.12212,6.735381 31.02692,12.364346 1.41234,2.736868 1.37316,2.929538 -1.12769,5.545303 -1.42497,1.490457 -3.45934,2.72275 -4.52082,2.738429 -1.76008,0.026 -1.78585,0.112619 -0.29274,0.984085 1.62645,0.949294 2.2783,2.805031 0.93555,2.663394 -0.38592,-0.04071 -2.49091,-0.708676 -4.67776,-1.484375 z M 450.70166,70.56293 c -1.92958,-0.793299 -3.47792,-1.70152 -3.44077,-2.01827 0.0371,-0.31675 1.52596,-1.791027 3.30847,-3.276171 3.25602,-2.712838 5.40177,-2.803529 3.19161,-0.134895 -1.63632,1.975747 0.6856,1.955598 3.51526,-0.03051 2.37593,-1.667628 2.70523,-4.352921 0.73478,-5.991658 -2.39082,-1.988347 -19.43943,-3.311908 -27.16242,-2.108741 -12.46501,1.941931 -17.56249,5.34862 -15.89254,10.621136 0.30506,0.963147 0.1133,1.751175 -0.42612,1.751175 -1.30446,0 -2.27248,-4.073665 -1.52719,-6.426763 1.30598,-4.123333 14.37865,-8.573237 25.18597,-8.573237 8.08116,0 19.60572,1.886634 21.40068,3.503408 3.15767,2.844222 1.62016,7.687045 -3.05684,9.628356 -2.03133,0.843159 -2.59995,1.496535 -1.90685,2.191078 1.14375,1.146132 1.30889,2.531375 0.28594,2.398553 -0.38592,-0.05011 -2.28041,-0.740168 -4.20998,-1.533465 z"
       id="path3492"
       inkscape:connector-curvature="0" />
    <path
       style="fill:#000000"
       d="m 16.839917,145.49518 c 8.414388,-0.3462 8.713343,-0.42767 5.613305,-1.52969 -5.627066,-2.00036 -4.171261,-3.78209 3.274428,-4.0075 3.601871,-0.10904 10.548337,-0.67036 15.436591,-1.24738 l 8.887733,-1.04912 -0.330764,-7.91459 c -0.509105,-12.1819 2.086287,-13.87589 8.511041,-5.55511 4.254745,5.51037 4.484334,5.45487 5.705297,-1.37929 l 0.586214,-3.28125 -8.620091,-5.39062 C 50.925337,111.02739 46.211899,108.75 44.746898,108.75 c -3.074733,0 -4.164809,-1.44872 -2.553758,-3.39397 1.767059,-2.13361 6.555066,-0.92517 15.568241,3.92925 8.323514,4.48297 9.5186,4.90899 7.737266,2.75815 -1.440498,-1.73932 -0.668342,-5.01448 1.976624,-8.38402 1.75269,-2.23282 2.48426,-2.50508 5.399745,-2.00954 1.854811,0.31526 4.35366,0.67067 5.552997,0.78979 2.608887,0.25912 4.836019,3.03187 4.836019,6.02077 0,3.11844 -1.537257,2.66539 -2.198544,-0.64793 -0.633931,-3.17625 -2.47921,-3.8347 -2.47921,-0.88465 0,1.06031 -1.356819,3.16968 -3.015151,4.6875 -1.658333,1.51781 -2.533621,2.75965 -1.945082,2.75965 2.364356,0 8.700142,10.90985 12.07722,20.79624 l 3.464132,10.14126 4.496481,0 4.496483,0 1.446539,-4.88118 c 1.34594,-4.54172 1.31315,-5.61666 -0.471499,-15.45699 l -1.918029,-10.57581 6.078668,-11.97922 6.07866,-11.979216 0.65869,-20.016261 c 0.58521,-17.783327 0.89767,-20.605487 2.80095,-25.298166 3.75824,-9.266232 4.51219,-7.362955 5.14934,12.999343 0.46925,14.995899 1.98406,31.592209 2.95811,32.409097 0.11663,0.09781 2.31704,1.237918 4.88981,2.533568 4.7591,2.396694 9.83879,7.784045 11.84862,12.566265 0.61193,1.45603 5.4163,7.07701 10.67638,12.49107 10.1939,10.49231 11.70748,12.98427 9.16885,15.09554 -1.35582,1.12758 -1.69596,1.05274 -2.59389,-0.57077 -0.56839,-1.02769 -3.55942,-4.33461 -6.64674,-7.34872 l -5.6133,-5.48022 -0.2921,2.66772 c -0.16065,1.46723 -0.98251,3.19845 -1.82635,3.84714 -1.36512,1.04942 -1.40807,1.91682 -0.38961,7.86841 0.98759,5.77118 0.9464,6.99216 -0.30021,8.89868 l -1.44485,2.20972 33.70141,0 c 22.31546,0 33.70139,-0.32352 33.70139,-0.9576 0,-0.52668 1.0525,-1.43814 2.33888,-2.02548 2.25307,-1.02871 2.33888,-1.39084 2.33888,-9.8702 0,-6.20301 -0.43819,-9.65145 -1.48386,-11.67779 -0.81613,-1.58149 -1.27654,-3.66992 -1.02314,-4.64094 0.35177,-1.34798 -0.044,-1.76549 -1.67362,-1.76549 -1.62306,0 -2.26882,0.67374 -2.69568,2.8125 -0.30873,1.54688 -1.02122,2.8125 -1.58332,2.8125 -0.56209,0 -0.8031,-0.73828 -0.53559,-1.64062 0.26752,-0.90235 0.76253,-2.80079 1.10002,-4.21875 0.68709,-2.88679 0.79119,-2.94181 3.16118,-1.6708 1.2733,0.68287 2.09824,0.45734 3.33456,-0.91163 1.52303,-1.68642 1.54028,-2.2265 0.23679,-7.41191 -0.77327,-3.07612 -2.40675,-6.853243 -3.62995,-8.393612 -3.95707,-4.983058 -5.98833,-4.745787 -19.29279,2.253572 -6.56333,3.45292 -13.40681,7.25363 -15.20774,8.44605 -6.39875,4.23667 -18.70925,6.0871 -16.48312,2.47763 0.31239,-0.50651 6.99064,-5.03866 14.84053,-10.071427 7.84989,-5.032781 17.66611,-11.587169 21.81383,-14.565319 4.1477,-2.97815 16.30464,-10.304359 27.0154,-16.280466 18.3665,-10.247648 19.79996,-10.877829 25.20299,-11.079808 7.79813,-0.291514 7.66029,1.651976 -0.35221,4.965872 -4.48716,1.855848 -24.9959,15.359478 -30.80673,20.284159 -0.22072,0.187066 0.54327,1.620391 1.69775,3.185168 3.5399,4.797936 7.58979,14.294741 7.59057,17.799501 5.1e-4,2.27177 1.62943,6.27775 5.14627,12.65613 2.83004,5.13274 5.14553,10.00024 5.14553,10.81666 0,0.81641 -0.47673,3.86312 -1.05939,6.77048 -0.77912,3.88759 -1.67188,5.68825 -3.37445,6.80614 -3.18923,2.09402 -4.17519,0.63835 -2.58969,-3.82341 1.83204,-5.15551 1.72327,-8.3534 -0.42782,-12.57869 l -1.83805,-3.61038 -3.27702,1.53836 c -2.95279,1.38615 -3.28003,1.91856 -3.30748,5.38127 -0.0167,2.11362 -0.30274,7.07065 -0.63552,11.01563 l -0.60505,7.1727 23.94562,0 c 23.7629,0 23.96354,-0.0166 26.29205,-2.17912 2.20859,-2.05111 2.31335,-2.57427 1.78361,-8.90625 l -0.5628,-6.72713 -3.13875,0 c -4.18337,0 -6.88094,-2.77819 -6.88094,-7.08658 0,-4.1836 -1.45179,-3.43962 -2.92894,1.50094 -1.19002,3.98017 -3.27263,5.2495 -2.31054,1.40823 1.19173,-4.75813 2.45534,-7.13636 4.056,-7.6338 0.9082,-0.28224 2.38229,-0.90424 3.27578,-1.38223 0.89349,-0.47798 2.19659,-0.86906 2.89577,-0.86906 0.91098,0 1.59267,-2.65748 2.40541,-9.37725 0.62377,-5.157488 0.84717,-9.842522 0.49645,-10.411188 -0.35072,-0.568666 -0.60876,-12.69656 -0.57341,-26.950875 0.0661,-26.632077 0.0174,-26.194091 3.95793,-35.599953 1.97079,-4.704139 3.21761,-1.569125 3.88108,9.758595 0.35996,6.145932 1.36014,19.400984 2.22259,29.455671 1.97727,23.051204 2.24838,41.6299 0.63124,43.25924 -0.64319,0.64804 -1.16944,2.1763 -1.16944,3.39614 0,1.21984 -0.46432,3.08728 -1.03182,4.14987 -0.6993,1.30937 -0.81673,5.51932 -0.3644,13.06337 l 0.66744,11.13138 19.77706,-0.0312 c 24.94785,-0.0394 24.3958,0.23356 22.95141,-11.34576 -0.538,-4.31299 -1.01624,-8.35059 -1.06274,-8.97243 -0.0465,-0.62186 -0.4634,-0.89602 -0.92643,-0.60926 -0.46302,0.28677 -0.61818,0.74556 -0.34476,1.01954 0.2734,0.27397 0.0708,1.29637 -0.45027,2.272 -0.84864,1.58899 -1.09594,1.625 -2.37279,0.34549 -0.78398,-0.78559 -2.00297,-1.42836 -2.70886,-1.42836 -0.7059,0 -1.88235,-0.85682 -2.61432,-1.90404 -1.29824,-1.85735 -1.35993,-1.83375 -2.5155,0.96186 -0.97802,2.36605 -0.93753,3.8795 0.23215,8.67741 1.50048,6.15478 1.30628,8.20227 -0.77794,8.20227 -1.95758,0 -3.93663,-4.66798 -4.5961,-10.8408 -0.50081,-4.68777 -0.21143,-6.52643 1.835,-11.6592 3.46136,-8.68162 5.88852,-21.983353 6.58789,-36.104095 0.33227,-6.708815 0.9658,-13.669753 1.40784,-15.46875 0.82786,-3.369213 0.57819,2.460149 -0.59795,13.961268 l -0.51588,5.044674 2.79981,-1.997799 c 3.74073,-2.66918 5.11414,-2.526227 8.52009,0.886817 l 2.87862,2.884616 0.19869,-11.087741 0.19869,-11.08774 0.30231,10.234369 c 0.24751,8.379042 -0.0429,11.258766 -1.60201,15.885161 -2.26236,6.713182 -2.52857,17.94502 -0.5595,23.60601 0.72469,2.08344 1.61992,9.36078 1.9894,16.17188 l 0.67179,12.38383 13.90135,0 13.90136,0 0.004,-4.45313 c 0.002,-2.44921 0.61772,-8.24487 1.36838,-12.87923 1.03792,-6.40782 1.14211,-9.99972 0.43501,-14.99583 -0.66125,-4.6722 -0.60996,-8.60175 0.17763,-13.605138 1.24643,-7.918441 1.53219,-45.452667 0.45,-59.107097 -0.64656,-8.157869 -0.54416,-9.149753 1.16154,-11.25 l 1.87063,-2.303325 2.90081,2.773569 c 1.59544,1.525464 3.30055,4.267651 3.78912,6.09375 0.48858,1.826099 1.52604,13.907338 2.30547,26.847198 1.40333,23.297596 1.39805,23.583699 -0.54173,29.339671 -1.67059,4.957187 -1.80644,6.419349 -0.92302,9.935002 0.56972,2.26729 1.03586,5.80304 1.03586,7.85722 0,4.02144 1.79105,5.32088 4.83567,3.50835 2.20135,-1.31053 4.51984,0.85866 4.51984,4.22878 0,3.32642 -1.63594,3.58653 -2.04285,0.32481 -0.44912,-3.60008 -2.15722,-2.74493 -1.84194,0.92217 0.15136,1.76038 -0.1914,4.07434 -0.76167,5.14213 -1.44491,2.70545 0.3661,9.02335 3.39207,11.83356 2.66021,2.47054 2.22454,4.16254 -1.07181,4.16254 -2.66505,0 -5.20652,-3.02648 -7.42108,-8.83727 -1.06414,-2.79175 -2.19481,-4.28773 -3.24088,-4.28773 -0.88364,0 -2.04933,-0.44363 -2.59043,-0.98587 -0.68805,-0.68948 -1.30681,0.6258 -2.05821,4.37511 -1.59948,7.98098 -1.36632,10.2955 1.307,12.9744 2.36843,2.37336 2.46979,2.38636 18.60764,2.38636 l 16.22623,0 0.66743,-11.13138 c 0.45233,-7.54405 0.3349,-11.754 -0.3644,-13.06337 -0.56749,-1.06259 -1.03181,-2.93003 -1.03181,-4.14987 0,-1.21984 -0.52625,-2.7481 -1.16944,-3.39614 -1.61714,-1.62934 -1.34604,-20.208036 0.63123,-43.25924 0.86246,-10.054687 1.86264,-23.309739 2.2226,-29.455671 0.71882,-12.272977 1.96659,-14.620407 4.4444,-8.361274 0.78343,1.979007 1.85387,4.619903 2.37876,5.868658 1.06751,2.539724 1.47621,53.608687 0.44243,55.284849 -0.35072,0.568666 -0.13819,5.163813 0.4723,10.211448 1.01961,8.43027 1.30579,9.2701 3.51478,10.31475 1.32263,0.62548 3.15314,1.13724 4.0678,1.13724 2.17842,0 4.4588,3.58434 5.15576,8.10397 0.67655,4.38717 -0.54726,3.52467 -2.49821,-1.76066 -1.86205,-5.04451 -3.8613,-5.83229 -3.11562,-1.22767 0.73019,4.50904 -1.54023,7.07186 -6.26504,7.07186 l -3.46152,0 -0.5628,6.72713 c -0.52975,6.33198 -0.42499,6.85514 1.78361,8.90625 2.2519,2.09134 2.94816,2.17912 17.28485,2.17912 l 14.93844,0 -0.67093,-2.57813 c -0.56638,-2.17638 -0.60369,-30.17275 -0.0721,-54.14062 0.0801,-3.609375 -0.12213,-12.257813 -0.44928,-19.21875 -0.57598,-12.255518 -0.5697,-12.31727 0.19852,-1.950314 0.43633,5.888264 1.07774,12.606416 1.42534,14.929227 l 0.632,4.223292 1.47501,-3.051894 c 1.30343,-2.696901 1.33742,-4.413429 0.29213,-14.757069 -0.65057,-6.437846 -0.98428,-11.904182 -0.74155,-12.147414 0.24272,-0.243231 0.95415,5.163672 1.58094,12.015341 0.6268,6.851669 1.61329,13.442791 2.19221,14.646938 1.06569,2.216653 6.0142,5.404976 6.94353,4.473715 0.65544,-0.656808 -1.41812,-17.117081 -3.13017,-24.847734 -0.73048,-3.298438 -1.14561,-6.180072 -0.92252,-6.40363 0.59666,-0.597903 3.13576,12.057839 4.38047,21.833784 1.02177,8.024977 0.9693,8.716235 -0.94742,12.481148 -1.95743,3.844863 -1.97655,4.166838 -0.54115,9.114701 0.81837,2.820979 1.21935,5.564559 0.89105,6.096849 -1.03554,1.67904 2.5199,3.59461 4.44073,2.39254 1.9283,-1.20675 3.87951,0.31177 4.93567,3.84115 0.87962,2.93941 -0.82095,2.64749 -2.19614,-0.377 -0.8282,-1.8215 -1.40813,-2.20816 -2.16872,-1.44598 -0.7606,0.76218 -0.72027,1.4243 0.15083,2.47609 0.75382,0.91019 0.97011,2.60519 0.59091,4.6307 -0.40878,2.18353 0.002,4.72049 1.29728,8.01373 2.37139,6.02878 2.39197,8.69592 0.0833,10.78961 -2.39571,2.17261 -4.13031,0.99959 -3.46337,-2.34209 0.28946,-1.4503 -0.11496,-4.52278 -0.8987,-6.82772 -1.36922,-4.02683 -1.58747,-4.20377 -5.57757,-4.52177 -2.28391,-0.18203 -4.15602,-0.11698 -4.16024,0.14454 -0.005,0.26153 -0.43359,4.20076 -0.95415,8.75384 l -0.94647,8.27834 2.92419,2.73729 2.92418,2.73729 18.56388,0 c 18.13079,0 18.61862,-0.0508 20.9103,-2.17912 2.20859,-2.05111 2.31336,-2.57427 1.78361,-8.90625 l -0.5628,-6.72713 -3.13875,0 c -4.4811,0 -7.24702,-3.0012 -6.57729,-7.13678 0.29383,-1.81446 0.118,-3.17572 -0.4102,-3.17572 -1.38171,0 -3.7084,6.21916 -3.0095,8.04427 0.42597,1.11237 0.21347,1.44768 -0.71096,1.12189 -1.58265,-0.55777 -1.45699,-4.39039 0.25826,-7.87661 0.84597,-1.71943 2.57541,-2.92545 5.54034,-3.86354 l 4.31045,-1.36382 1.12279,-9.28335 c 0.61753,-5.105831 0.83583,-9.748612 0.48511,-10.317278 -0.35073,-0.568666 -0.60877,-12.69656 -0.57342,-26.950875 0.066,-26.632077 0.0174,-26.194091 3.95793,-35.599953 1.9708,-4.704139 3.21761,-1.569125 3.88108,9.758595 0.35996,6.145932 1.36014,19.400983 2.2226,29.455671 1.97726,23.051204 2.24837,41.6299 0.63123,43.25924 -0.64319,0.64804 -1.16944,2.1763 -1.16944,3.39614 0,1.21984 -0.46432,3.08728 -1.03182,4.14987 -0.69866,1.30817 -0.81723,5.51094 -0.36723,13.01612 l 0.6646,11.08413 4.34331,0.34702 c 2.38883,0.19085 -105.32663,0.3355 -239.36769,0.32143 -134.04106,-0.0141 -239.711537,-0.19015 -234.823283,-0.39127 z m 27.460528,-1.56604 c 0.263764,-0.68878 1.77101,-1.53658 3.349437,-1.88398 1.677601,-0.36923 2.869868,-1.22752 2.869868,-2.06597 0,-1.13041 -0.743376,-1.31757 -3.508316,-0.88329 -1.929574,0.30307 -8.876039,0.83173 -15.43659,1.17479 -6.560551,0.34306 -11.928275,0.89254 -11.928275,1.22106 0,2.73661 23.64415,5.07419 24.653876,2.43739 z m 10.733746,-8.22602 c -0.301103,-6.99783 -0.195665,-8.46285 0.38797,-5.39062 0.440794,2.32031 1.938814,6.53906 3.328935,9.375 2.950568,6.01936 5.687106,7.16542 8.142559,3.41013 1.848102,-2.82644 1.382878,-3.86618 -6.769332,-15.12888 -3.63506,-5.02203 -6.04125,-7.5 -7.282737,-7.5 -1.740515,0 -1.854061,0.65791 -1.854061,10.74287 l 0,10.74286 -3.04054,0.87713 c -4.65174,1.34192 -3.627923,2.48089 2.23007,2.48089 l 5.27061,0 -0.413474,-9.60938 z m 3.70494,6.09375 c -1.104716,-1.93359 -2.143012,-3.6914 -2.307325,-3.90625 -0.164313,-0.21484 -0.298751,1.3672 -0.298751,3.51563 0,3.52742 0.223765,3.90625 2.307326,3.90625 l 2.307325,0 -2.008575,-3.51563 z m 22.893402,2.22457 c 1.555519,-1.20032 1.523052,-1.58626 -0.610237,-7.25398 -3.044299,-8.08808 -4.483636,-11.14246 -5.250755,-11.14246 -1.124875,0 -3.57596,6.86627 -4.123837,11.55217 -0.290722,2.48652 -0.985253,5.2287 -1.5434,6.09375 -0.878777,1.362 -0.933733,1.32149 -0.409964,-0.30217 0.332667,-1.03125 0.844981,-3.98438 1.138474,-6.5625 0.293494,-2.57813 1.316093,-6.25272 2.272442,-8.16578 2.05921,-4.11917 2.179425,-5.42797 0.498571,-5.42797 -2.039552,0 -5.426605,-4.22602 -4.767188,-5.94801 0.326874,-0.85359 0.347331,-1.55199 0.04546,-1.55199 -1.151797,0 -4.179954,7.26956 -4.825739,11.58493 -0.554772,3.70719 -0.347977,4.95447 1.162116,7.00925 3.813045,5.1884 4.262146,6.66531 2.736369,8.99879 l -1.408905,2.15474 6.721831,0.11451 c 4.372634,0.0744 7.296015,-0.32858 8.364761,-1.15328 z m 6.309254,0.78337 c 0,-0.27924 -1.488192,-4.81439 -3.307093,-10.07813 -2.947476,-8.52973 -7.440667,-16.75754 -10.210227,-18.6967 -1.702431,-1.19199 -4.034635,-0.77839 -4.648386,0.82435 -0.652698,1.70444 1.837591,5.02067 3.770229,5.02067 1.607457,0 5.252812,6.38336 8.288883,14.51462 2.294033,6.14391 2.344515,6.61885 0.822115,7.73437 -1.417391,1.03858 -1.186386,1.18851 1.831239,1.18851 1.899282,0 3.45324,-0.22846 3.45324,-0.50769 z m 16.321203,-5.01051 c 1.44758,-3.03502 2.39379,-5.9044 2.10268,-6.37642 -0.29112,-0.47202 -1.01715,-4.53178 -1.61341,-9.0217 l -1.0841,-8.16348 5.11447,-8.2462 5.11446,-8.246203 -1.77339,-3.463894 c -0.97537,-1.90515 -2.08755,-3.463903 -2.47153,-3.463903 -0.38398,0 -3.12366,4.882903 -6.0882,10.8509 l -5.390053,10.85089 1.909963,10.53132 c 1.7562,9.68342 1.79705,10.90435 0.50737,15.16472 -1.69651,5.60433 -1.677659,5.10217 -0.19155,5.10217 0.67722,0 2.4157,-2.48319 3.86329,-5.5182 z m 30.70899,3.1781 c 1.56261,-2.15259 1.56939,-2.62655 0.12014,-8.40804 -1.33876,-5.34075 -1.81423,-6.12686 -3.70574,-6.12686 -1.19346,0 -2.43436,-0.42876 -2.75756,-0.95279 -0.96246,-1.56054 -2.07704,-0.22061 -2.73356,3.28618 -0.33892,1.81039 -1.03722,3.29161 -1.55178,3.29161 -1.28426,0 0.0298,-6.64133 1.63171,-8.24657 0.69286,-0.6943 1.25974,-1.88599 1.25974,-2.6482 0,-0.76222 0.60969,-2.56734 1.35489,-4.01138 1.28034,-2.48105 1.14394,-3.03309 -2.47851,-10.03157 -2.10837,-4.07331 -3.92267,-7.5233 -4.03179,-7.66664 -0.10912,-0.14333 -1.34263,0.17534 -2.74113,0.70816 -1.57156,0.59875 -3.12546,0.64197 -4.06844,0.11314 -1.23137,-0.69054 -1.08171,-0.83646 0.77576,-0.75636 1.26582,0.0546 3.23203,-0.21857 4.36936,-0.60703 1.85534,-0.6337 2.4515,0.0457 5.80042,6.6107 2.20369,4.31994 3.75171,6.51251 3.77932,5.35293 0.0257,-1.08025 0.91231,-2.74901 1.97021,-3.70839 1.58994,-1.44187 2.23878,-1.54696 3.7422,-0.60611 1.54389,0.96619 1.81375,0.88906 1.78561,-0.51036 -0.0789,-3.92043 -6.04714,-11.206186 -11.42383,-13.945532 -3.97112,-2.023236 -15.67399,-4.212602 -15.67399,-2.932285 0,0.278635 1.01365,2.294888 2.25255,4.480566 l 2.25256,3.97395 -5.13105,8.272941 c -5.08018,8.19091 -5.12478,8.32675 -4.49796,13.69986 0.34821,2.98482 1.01545,7.22717 1.48275,9.42748 0.72972,3.43587 0.51845,4.65552 -1.4968,8.64071 -1.29055,2.55209 -2.34646,4.86512 -2.34646,5.14008 0,0.27495 6.84122,0.48665 15.2027,0.47045 15.01216,-0.0291 15.22346,-0.058 16.85868,-2.31064 z m 3.94794,0.14229 c 1.30358,-1.99366 1.2578,-3.26807 -0.49281,-13.72029 -1.06143,-6.33738 -1.67037,-12.70644 -1.35321,-14.15347 1.06585,-4.86293 -2.46935,-8.33494 -5.16841,-5.076 -0.95392,1.1518 -0.54051,4.1458 2.22302,16.0995 3.03343,13.12115 3.24561,14.84984 1.99285,16.23701 -1.77164,1.96172 -1.77776,2.81106 -0.0203,2.81106 0.75996,0 2.02843,-0.98902 2.81882,-2.19781 z m 75.727,-7.41157 c 0.32219,-5.28515 0.67846,-13.61718 0.79169,-18.51562 0.19302,-8.35002 0.089,-8.90625 -1.66522,-8.90625 -1.79138,0 -1.882,0.71037 -2.1267,16.67063 l -0.2556,16.67064 -2.31716,1.05798 c -3.38573,1.54585 -2.83482,2.632 1.335,2.632 l 3.65218,0 0.58581,-9.60938 z m 56.58009,-2.34375 c -0.0752,-6.57421 0.0179,-13.64062 0.20686,-15.70312 0.29953,-3.26831 0.0814,-3.78742 -1.69802,-4.04126 -3.26014,-0.4651 -4.20982,2.48654 -3.17409,9.86517 2.16454,15.42032 2.1792,17.9176 0.1128,19.21078 -2.80483,1.75529 -2.34625,2.62156 1.3878,2.62156 l 3.30146,0 -0.13681,-11.95313 z m 48.70605,6.5625 c -0.0438,-9.31178 -1.62594,-22.42828 -3.02908,-25.11183 -1.68654,-3.2256 -2.94543,-1.57595 -1.56794,2.05466 0.55236,1.45587 0.75586,3.97413 0.4522,5.59612 -0.30366,1.62201 -0.12681,6.6889 0.39298,11.25976 0.91489,8.0452 0.87824,8.36241 -1.14718,9.93044 l -2.09226,1.61979 3.50832,0.0208 3.50832,0.0209 -0.0254,-5.39063 z m 36.51184,4.48611 c 0,-0.49748 -0.84199,-1.35607 -1.8711,-1.90798 -1.27549,-0.68405 -1.87105,-1.96285 -1.87094,-4.01736 2.1e-4,-4.06321 2.55107,-17.19016 3.7919,-19.5135 0.54879,-1.02755 0.86732,-3.21988 0.70785,-4.87184 -0.24145,-2.50131 -0.68103,-3.00355 -2.62881,-3.00355 -2.12638,0 -2.32722,0.34071 -2.21054,3.75 0.0705,2.0625 -0.45566,7.80816 -1.16944,12.76812 -0.71378,4.95997 -1.29777,10.97169 -1.29777,13.35938 0,4.33643 0.004,4.34125 3.27442,4.34125 1.80094,0 3.27443,-0.40703 3.27443,-0.90452 z m 42.09979,0.0302 c 0,-0.48088 -0.87146,-1.1515 -1.93659,-1.49026 -1.78506,-0.56773 -1.89098,-1.10448 -1.35366,-6.86004 0.32061,-3.43427 0.98786,-9.10774 1.48279,-12.60772 1.04347,-7.37914 0.0958,-10.33072 -3.16748,-9.86517 -1.77943,0.25385 -1.99754,0.77295 -1.69801,4.04126 0.18902,2.0625 0.2821,9.12891 0.20686,15.70313 l -0.13681,11.95312 3.30146,0 c 1.81579,1e-5 3.30144,-0.39344 3.30144,-0.87431 z m 39.29314,-0.0833 c 0,-0.52668 -1.07052,-1.44638 -2.37893,-2.04377 -2.33441,-1.06584 -2.36505,-1.21022 -1.63721,-7.71428 1.23767,-11.05999 0.69068,-20.17763 -1.29831,-21.64131 -1.51272,-1.11321 -1.78615,-0.97349 -2.45667,1.25529 -0.76322,2.53692 0.01,27.41201 0.9259,29.80499 0.57318,1.49678 6.84522,1.80746 6.84522,0.33908 z m 47.63034,-10.99555 c -0.0752,-6.57421 0.0179,-13.64062 0.20686,-15.70312 0.29953,-3.26831 0.0814,-3.78742 -1.69801,-4.04126 -3.26015,-0.4651 -4.20982,2.48654 -3.1741,9.86517 2.16454,15.42032 2.1792,17.9176 0.1128,19.21078 -2.80482,1.75529 -2.34625,2.62156 1.3878,2.62156 l 3.30146,0 -0.13681,-11.95313 z m -182.85181,6.71876 c -0.0189,-0.47266 -0.58374,-3.32737 -1.2552,-6.34379 -1.16,-5.21112 -1.10326,-5.74838 1.13856,-10.78125 3.32079,-7.45519 3.80346,-9.90911 2.20974,-11.23454 -1.11368,-0.9262 -1.84057,0.22868 -4.36864,6.94083 -2.6389,7.00642 -2.94808,8.73035 -2.3812,13.27698 0.7545,6.05139 2.2407,9.81964 3.68287,9.33792 0.55453,-0.18523 0.99277,-0.7235 0.97387,-1.19615 z m -75.16879,-0.66643 c 1.39732,-1.06617 3.65304,-8.95833 3.61874,-12.66097 -0.0218,-2.3573 -9.30577,-19.07055 -10.26378,-18.47722 -0.45137,0.27953 -0.22042,1.66126 0.5132,3.0705 0.73362,1.40923 1.33646,3.61024 1.33963,4.89113 0.003,1.28089 1.14844,4.51594 2.54506,7.18899 2.3264,4.45263 2.45569,5.23987 1.54211,9.38985 -0.54845,2.49137 -1.31518,5.26805 -1.70384,6.17039 -0.81791,1.89894 0.2353,2.08577 2.40888,0.42733 z m 144.9017,-1.21455 c 0,-0.30407 -0.85781,-1.25329 -1.90624,-2.10938 -1.04845,-0.85609 -2.4801,-3.24402 -3.18147,-5.30652 -0.86935,-2.55651 -1.90031,-3.84534 -3.23928,-4.04958 -1.08024,-0.16476 -1.96407,-0.0943 -1.96407,0.15665 0,0.9468 3.89152,9.5061 4.84591,10.65847 0.98417,1.18832 5.44515,1.72113 5.44515,0.65036 z M 449.81288,135.75 c 1.91683,-1.92082 1.28154,-5.01092 -3.57308,-17.37972 -5.78602,-14.74186 -6.59769,-15.94288 -9.78959,-14.48553 -3.26427,1.4904 -2.95053,3.53895 1.23971,8.09429 5.20068,5.65383 9.99506,15.86581 9.80152,20.87714 -0.16027,4.14978 0.38714,4.83216 2.32144,2.89382 z m -292.43216,-5.54084 c -0.1592,-1.37383 -3.77787,-5.78585 -9.35551,-11.40659 l -9.0959,-9.16617 -0.6323,4.00992 c -0.91836,5.824 0.0496,12.90152 1.67884,12.27502 1.78625,-0.68687 1.61964,-5.02774 -0.30023,-7.82211 -1.55125,-2.25784 -1.54517,-2.28231 0.23389,-0.94323 5.8434,4.39827 13.84827,11.91338 14.71111,13.81107 1.25335,2.75654 3.10832,2.24718 2.7601,-0.75791 z m 108.31574,-6.38248 c 0,-1.50471 -0.26029,-3.41554 -0.57842,-4.2463 -0.51968,-1.3571 -0.70666,-1.34109 -1.84134,0.15769 -0.69461,0.9175 -1.27632,2.82834 -1.29269,4.24631 -0.0226,1.96305 0.41664,2.57812 1.84135,2.57812 1.44365,0 1.8711,-0.625 1.8711,-2.73582 z m 44.90645,1.79832 c 0,-0.51563 -0.7578,-0.9375 -1.68399,-0.9375 -0.9262,0 -2.18919,-0.50625 -2.80666,-1.125 -0.87318,-0.875 -1.12266,-0.86828 -1.12266,0.0302 0,0.63537 0.94725,1.53675 2.10499,2.00308 2.82096,1.13625 3.50832,1.14197 3.50832,0.0293 z m 90.71869,-1.64062 c -0.0164,-1.41797 -0.59808,-3.32881 -1.29269,-4.24631 -1.13468,-1.49878 -1.32166,-1.51479 -1.84134,-0.1577 -0.31814,0.83077 -0.57843,2.7416 -0.57843,4.24631 0,2.11082 0.42746,2.73582 1.8711,2.73582 1.42472,0 1.86401,-0.61507 1.84136,-2.57813 z m 78.61602,-0.54688 c 0,-1.71875 -0.27701,-3.40259 -0.61558,-3.74187 -1.15689,-1.15929 -3.12662,1.46723 -3.12662,4.16916 0,2.07271 0.4335,2.69771 1.8711,2.69771 1.49688,0 1.8711,-0.625 1.8711,-3.125 z m -116.94386,1.75056 c 0,-1.53977 -3.35612,-7.06306 -4.29174,-7.06306 -1.69116,0 -3.27847,5.16402 -1.98556,6.45963 0.99585,0.99792 6.2773,1.50562 6.2773,0.60343 z m -143.07779,-4.28354 c 2.00668,-1.07619 2.39293,-4.86997 0.8972,-8.81224 -1.36429,-3.59584 -3.76536,-3.11166 -3.76536,0.75928 0,1.74024 -0.26312,4.48242 -0.58471,6.09375 -0.63113,3.16217 0.26338,3.66972 3.45287,1.95921 z m 221.59506,-2.54514 c -1.15099,-1.9336 -3.54068,-5.05088 -5.3104,-6.92731 -3.71117,-3.93489 -3.69935,-6.2064 0.0431,-8.27485 2.47654,-1.36879 2.69048,-1.32493 4.41644,0.90528 2.21155,2.85769 2.27362,2.19885 0.40096,-4.256288 -1.31666,-4.538568 -1.31614,-5.281687 0.006,-7.842739 1.3966,-2.706357 1.36838,-2.875192 -0.65052,-3.890861 -1.16076,-0.583959 -3.0359,-2.161662 -4.16697,-3.506009 l -2.0565,-2.444266 -1.06546,2.766957 c -1.915,4.97323 -3.91421,17.607786 -3.39726,21.469956 0.55609,4.15457 3.70657,7.52908 6.15714,6.59497 1.18839,-0.453 1.25069,-0.33077 0.31359,0.61523 -1.48651,1.50063 -1.51394,5.71033 -0.0468,7.18055 0.61746,0.61875 2.54629,1.125 4.28628,1.125 l 3.16362,0 -2.09271,-3.51562 z M 66.639313,114.49994 c -0.864864,-0.18909 -4.995796,-2.19862 -9.179847,-4.46561 -7.722864,-4.18437 -14.300711,-5.66256 -15.101822,-3.39371 -0.269003,0.76186 0.527019,1.17188 2.27511,1.17188 1.675198,0 6.025108,2.1136 11.538462,5.60648 l 8.849573,5.6065 1.595504,-2.09087 c 1.489827,-1.95237 1.491352,-2.11363 0.02302,-2.43467 z M 269.43651,112.5 c 0.96955,0 2.04569,0.45863 2.39141,1.01918 2.16451,3.50955 3.71917,-6.16277 2.78904,-17.352089 l -0.6688,-8.045554 -2.38091,1.876731 c -3.17474,2.502458 -3.71144,2.395672 -5.88104,-1.170143 -2.08326,-3.42391 -2.22547,-2.955114 -0.87879,2.896892 0.64398,2.798467 0.60796,6.541389 -0.11542,11.988543 -0.57845,4.35588 -0.77638,9.01919 -0.43983,10.36291 l 0.61191,2.44313 1.40479,-2.00981 c 0.77263,-1.10538 2.19807,-2.00979 3.16764,-2.00979 z m 129.24512,-8.34778 c -0.70287,-6.003817 -0.75262,-10.243258 -0.14959,-12.74597 1.32368,-5.493568 1.1536,-5.974058 -0.91264,-2.578125 -2.1696,3.565815 -2.7063,3.672601 -5.88104,1.170143 l -2.38092,-1.876731 -0.66879,8.045554 c -0.93014,11.189319 0.62452,20.861639 2.78903,17.352089 1.01821,-1.65092 4.15173,-1.16806 5.39808,0.83183 2.21692,3.55725 2.93893,-0.52033 1.80587,-10.19879 z M 483.67767,112.5 c 0.96956,0 2.04569,0.45863 2.39141,1.01918 2.17008,3.51857 3.71867,-6.16881 2.78385,-17.414649 -0.63293,-7.614008 -0.77282,-8.0185 -2.29555,-6.637573 -2.71931,2.466064 -7.61594,1.318593 -7.52686,-1.763833 0.0156,-0.541406 0.45756,-0.246094 0.98204,0.65625 1.37054,2.357974 5.22131,2.059562 6.91854,-0.536146 1.27211,-1.945517 1.27447,-3.862761 0.0222,-18.046875 -0.77061,-8.728557 -1.67674,-21.24901 -2.0136,-27.823229 C 484.60281,35.378906 484.00369,30 483.60829,30 c -0.3954,0 -1.22796,1.582031 -1.85014,3.515625 -0.62218,1.933594 -1.5254,4.279667 -2.00715,5.213497 -0.98953,1.918131 -1.26169,53.431028 -0.2906,55.005555 0.34519,0.559692 0.13367,4.825982 -0.47004,9.480663 -0.60371,4.65467 -0.82484,9.55231 -0.49139,10.88364 l 0.60628,2.42062 1.40478,-2.00981 c 0.77264,-1.10538 2.19807,-2.00979 3.16764,-2.00979 z m -411.272567,0.39207 c 0.994326,-2.59656 0.615134,-5.34834 -0.980456,-7.11513 -2.122621,-2.35036 -3.566661,-2.14986 -4.850361,0.67342 -1.446929,3.18228 -1.372763,4.17791 0.462604,6.2102 1.903445,2.10767 4.605146,2.22418 5.368213,0.23151 z m 288.173257,0.91388 c 1.77868,-0.68397 1.97409,-6.00875 0.44399,-12.09801 -0.88342,-3.515652 -0.74757,-4.977815 0.92302,-9.935002 1.93978,-5.755972 1.94506,-6.042075 0.54173,-29.339671 -0.77942,-12.939859 -1.8192,-25.028844 -2.31061,-26.86441 -0.49141,-1.835567 -1.98697,-4.366817 -3.32347,-5.625 -2.40967,-2.268455 -2.44172,-2.271909 -3.82895,-0.412607 -1.11478,1.494149 -1.26937,3.482943 -0.76105,9.791204 0.35083,4.353912 0.74692,16.629407 0.8802,27.278876 0.13329,10.64947 0.65623,20.103809 1.16211,21.009644 0.8704,1.558562 1.08514,1.561281 4.00034,0.05063 l 3.08056,-1.59634 -0.58827,-10.454508 C 360.47441,69.860779 360.02148,59.460937 359.79142,52.5 L 359.37316,39.84375 360.25185,52.5 c 1.87777,27.046679 2.27231,34.532166 1.81416,34.419227 -0.26157,-0.06448 -1.91855,0.651879 -3.68219,1.591905 -2.93404,1.563849 -3.30039,1.580628 -4.30974,0.197377 -0.89593,-1.227812 -1.24585,-0.05992 -1.86297,6.217988 -0.41791,4.251366 -0.79402,9.398683 -0.83579,11.438483 -0.0718,3.50399 0.079,3.71101 2.73071,3.75 1.98978,0.0292 3.07543,0.65519 3.73016,2.15065 0.50793,1.16015 0.99974,2.10937 1.09292,2.10937 0.0932,0 0.83534,-0.25607 1.64925,-0.56905 z m -45.48481,-1.49345 c 0.64891,-0.65026 1.12266,-3.76548 1.12266,-7.38213 0,-3.44142 0.6315,-8.050714 1.40333,-10.24287 1.80438,-5.124797 1.82907,-4.942692 -1.06312,-7.840909 -2.973,-2.979189 -4.35513,-3.072229 -7.91408,-0.532753 -2.33194,1.663945 -2.71915,2.561164 -2.73101,6.328125 -0.007,2.414106 -0.64979,7.092887 -1.42708,10.397297 -1.37999,5.86667 -1.36482,6.05963 0.64469,8.20312 2.27597,2.4277 7.99675,3.04208 9.96461,1.07012 z m -152.02269,-3.44518 c 3.47907,-0.96673 7.04844,-2.38554 7.93194,-3.15291 0.88348,-0.76736 7.59381,-4.51156 14.91181,-8.320432 10.59657,-5.515309 13.20478,-7.25269 12.81097,-8.533655 -0.27196,-0.884634 -0.0611,-3.181226 0.46856,-5.103535 0.52968,-1.92231 0.78805,-3.670467 0.57417,-3.884795 -0.21389,-0.214326 -3.8862,2.122035 -8.16072,5.191913 -4.27451,3.069878 -14.19205,9.69776 -22.03898,14.728628 -12.59957,8.077896 -16.04395,10.832466 -13.54525,10.832466 0.39706,0 3.56843,-0.79096 7.0475,-1.75768 z m 57.54231,-4.63712 c 0.21398,-2.97945 -0.45294,-5.643984 -2.52116,-10.072884 -3.82908,-8.199598 -6.90898,-12.000934 -11.34886,-14.007211 -2.06122,-0.93142 -3.57368,-1.867846 -3.36102,-2.080948 0.21266,-0.213103 2.15472,0.516422 4.3157,1.621167 l 3.92905,2.008627 5.75101,-4.004934 c 3.16305,-2.202714 9.0509,-6.414654 13.08411,-9.359868 4.03319,-2.945212 9.82192,-6.287631 12.86382,-7.427596 7.23289,-2.710554 7.20173,-4.150687 -0.0719,-3.326049 -4.80185,0.544399 -8.23661,2.102499 -24.03001,10.900645 -12.38409,6.898901 -18.47462,10.804055 -18.57151,11.907778 -0.0793,0.903278 -0.45027,2.988673 -0.82438,4.634212 -0.73068,3.213963 0.60611,6.851842 2.51782,6.851888 1.95693,4.8e-5 6.47963,6.578636 7.6455,11.120913 0.92286,3.59549 1.45369,4.29949 3.0678,4.06858 1.07352,-0.15359 2.23937,0.18695 2.59079,0.75674 0.35141,0.56978 1.54645,0.90637 2.65564,0.74798 1.65427,-0.23623 2.069,-1.01603 2.30764,-4.33904 z M 119.72088,90.234375 c -0.0163,-0.386719 -0.63446,-5.132813 -1.37369,-10.546875 -0.73922,-5.414063 -1.35738,-16.488281 -1.37369,-24.609375 -0.0163,-8.121094 -0.34538,-14.759434 -0.7313,-14.751866 -0.38591,0.0076 -1.60371,2.433349 -2.70621,5.390625 -1.71105,4.589586 -2.09363,8.217007 -2.61296,24.774119 l -0.60839,19.397254 4.01628,0.360833 c 2.20895,0.198458 4.33202,0.434539 4.71794,0.524622 0.38591,0.09009 0.68832,-0.152618 0.67202,-0.539337 z m 152.19974,-1.698769 c 2.15147,-2.155955 2.33871,-2.899907 1.82857,-7.265625 -1.07262,-9.179561 -3.37497,-40.471331 -3.37497,-45.870032 0,-6.194233 -1.21301,-6.994202 -2.85723,-1.884324 -0.62218,1.933594 -1.53356,4.294943 -2.02528,5.247444 -0.49859,0.965824 -0.87646,11.628088 -0.85429,24.106038 0.0327,18.444488 0.29779,22.874271 1.50897,25.221306 1.79074,3.470115 2.68667,3.539191 5.77423,0.445193 z m 125.2386,-0.445193 c 1.21117,-2.347035 1.4762,-6.776818 1.50897,-25.221306 0.0222,-12.47795 -0.3557,-23.140214 -0.85429,-24.106038 -0.49173,-0.952501 -1.4031,-3.31385 -2.02528,-5.247444 -1.64422,-5.109878 -2.85723,-4.309909 -2.85723,1.884324 0,5.398701 -2.30235,36.690471 -3.37497,45.870032 -0.51014,4.365718 -0.32291,5.10967 1.82857,7.265625 3.08756,3.093998 3.98349,3.024922 5.77423,-0.445193 z M 312.61362,76.40625 c -0.005,-3.609375 0.32384,-7.40625 0.72954,-8.4375 0.40878,-1.03909 0.55568,1.468638 0.3295,5.625 -0.53032,9.745605 -1.04878,11.12245 -1.05904,2.8125 z m 7.95217,-26.892493 c 0.49093,-17.741874 9.3e-4,-20.46241 -3.68083,-20.436901 -4.92352,0.03411 -6.08422,2.892426 -7.30284,17.983798 -0.55385,6.858828 -1.3704,13.525283 -1.81456,14.814346 -0.63415,1.840462 -0.71707,1.538491 -0.38613,-1.40625 0.23178,-2.0625 0.85054,-8.746577 1.37501,-14.853504 0.52446,-6.106928 1.5599,-12.278461 2.30097,-13.714518 2.27164,-4.402022 7.02912,-5.141766 9.43217,-1.466614 1.34031,2.049847 1.4036,4.181418 0.56365,18.984375 l -0.9462,16.675261 0.45876,-16.579993 z M 313.60755,60.9375 c -0.0204,-1.804688 0.50527,-7.078125 1.1682,-11.71875 0.66294,-4.640625 1.22205,-6.960938 1.24247,-5.15625 0.0204,1.804687 -0.50527,7.078125 -1.1682,11.71875 -0.66293,4.640625 -1.22205,6.960937 -1.24247,5.15625 z M 427.99008,44.457757 c -0.74278,-11.91267 0.0106,-15.395257 3.33032,-15.395257 1.45835,0 2.51766,1.302922 4.24919,5.226368 2.23231,5.058165 4.81274,18.786338 3.73432,19.867003 -0.29179,0.292396 -0.53899,-0.06603 -0.54934,-0.796496 C 438.62343,44.100379 434.08945,30 431.24336,30 c -2.56612,0 -3.03375,2.974241 -2.30506,14.660844 0.36529,5.858411 0.45366,10.651656 0.19638,10.651656 -0.25727,0 -0.77234,-4.884635 -1.1446,-10.854743 z m 3.97312,2.885993 c -0.40101,-4.125 -0.91689,-9.1875 -1.14641,-11.25 -0.2295,-2.0625 0.20966,-0.796875 0.97592,2.8125 0.76628,3.609375 1.28216,8.671875 1.14641,11.25 -0.21834,4.146717 -0.33093,3.822247 -0.97592,-2.8125 z M 363.91054,22.946094 c -1.55418,-1.876586 -0.44257,-2.934354 1.43914,-1.369421 1.15617,0.961542 1.7041,0.976421 2.59537,0.07048 0.88426,-0.898817 0.77399,-1.411794 -0.50742,-2.360494 -2.00805,-1.486659 -2.09775,-2.41166 -0.23389,-2.41166 0.77183,0 1.40332,-0.474609 1.40332,-1.054687 0,-0.68103 -1.03476,-0.847304 -2.92073,-0.469325 -2.56208,0.513484 -2.77295,0.406936 -1.71729,-0.867711 0.66952,-0.808406 2.27663,-1.328062 3.62239,-1.1713 2.17277,0.253096 2.43516,0.710548 2.57809,4.494737 0.0875,2.317129 -0.27979,4.742911 -0.81622,5.390625 -1.3296,1.6054 -4.00745,1.481787 -5.44276,-0.251245 z m 8.50203,-0.32757 c -2.37724,-4.45116 -0.23819,-9.917534 3.65804,-9.348183 3.1915,0.46637 3.56846,2.613415 0.41844,2.383347 -1.39266,-0.101716 -2.69489,0.271679 -2.89385,0.829765 -0.19896,0.558087 0.54191,0.979962 1.64637,0.9375 2.70306,-0.103921 4.46002,2.652122 3.08845,4.844672 -1.49503,2.389902 -4.72662,2.582624 -5.91745,0.352899 z m 4.61445,-1.469446 c 0,-0.743007 -0.45768,-1.634372 -1.01706,-1.980813 -1.32102,-0.818135 -3.12418,0.988778 -2.30774,2.312549 0.91703,1.486894 3.3248,1.246658 3.3248,-0.331736 z m 3.79639,1.885098 c -1.59227,-1.92256 -0.85415,-8.104518 1.11526,-9.340683 2.54071,-1.594767 4.86002,0.416186 5.2059,4.513755 0.32318,3.828946 -1.03005,6.167752 -3.56869,6.167752 -0.9031,0 -2.14171,-0.60337 -2.75247,-1.340824 z m 4.1558,-4.362301 c 0,-2.222222 -0.42975,-3.203125 -1.40333,-3.203125 -1.49785,0 -2.37468,3.426487 -1.47682,5.771141 0.94893,2.478017 2.88015,0.756091 2.88015,-2.568016 z m 4.55069,-2.259354 c -0.32403,-0.846204 -0.14056,-1.988089 0.40773,-2.537521 1.42541,-1.428383 4.12616,-0.122895 3.75382,1.814524 -0.41473,2.158014 -3.41257,2.678838 -4.16155,0.722997 z m 2.16947,-1.588302 c -0.29865,-0.747875 -0.52033,-0.525728 -0.56522,0.566406 -0.0406,0.988281 0.18049,1.541992 0.49137,1.230469 0.31087,-0.311524 0.3441,-1.120117 0.0738,-1.796875 z"
       id="path3490"
       inkscape:connector-curvature="0" />
  </g>
</svg>
