<?xml version="1.0" encoding="UTF-8" standalone="no"?>
<!-- Created with Inkscape (http://www.inkscape.org/) -->

<svg
   xmlns:dc="http://purl.org/dc/elements/1.1/"
   xmlns:cc="http://creativecommons.org/ns#"
   xmlns:rdf="http://www.w3.org/1999/02/22-rdf-syntax-ns#"
   xmlns:svg="http://www.w3.org/2000/svg"
   xmlns="http://www.w3.org/2000/svg"
   xmlns:sodipodi="http://sodipodi.sourceforge.net/DTD/sodipodi-0.dtd"
   xmlns:inkscape="http://www.inkscape.org/namespaces/inkscape"
   id="svg2"
   version="1.1"
   inkscape:version="0.91 r13725"
   width="501"
   height="227"
   sodipodi:docname="fx650204.svg">
  <metadata
     id="metadata8">
    <rdf:RDF>
      <cc:Work
         rdf:about="">
        <dc:format>image/svg+xml</dc:format>
        <dc:type
           rdf:resource="http://purl.org/dc/dcmitype/StillImage" />
        <dc:title></dc:title>
      </cc:Work>
    </rdf:RDF>
  </metadata>
  <defs
     id="defs6" />
  <sodipodi:namedview
     pagecolor="#ffccdd"
     bordercolor="#666666"
     borderopacity="1"
     objecttolerance="10"
     gridtolerance="10"
     guidetolerance="10"
     inkscape:pageopacity="0"
     inkscape:pageshadow="2"
     inkscape:window-width="1598"
     inkscape:window-height="969"
     id="namedview4"
     showgrid="false"
     inkscape:zoom="1.614631"
     inkscape:cx="242.82795"
     inkscape:cy="78.769215"
     inkscape:window-x="0"
     inkscape:window-y="0"
     inkscape:window-maximized="0"
     inkscape:current-layer="svg2" />
  <g
     id="g4738"
     transform="translate(5.213263e-5,-1.1627589)">
    <g
       id="g4731">
      <path
         style="fill:#000000"
         d="m 450.91992,110.59766 c -0.7828,0 -2.19291,0.9 -3.13476,2 -0.94185,1.1 -2.60038,2 -3.68555,2 -2.91466,0 -7.58203,4.91532 -7.58203,7.98437 0,3.29098 7.09444,10.57505 9.42773,9.67969 2.56587,-0.98462 1.7927,0.97083 -1.4707,3.7168 -1.9246,1.61945 -4.85746,2.80225 -7.98242,3.21679 -5.12555,0.67993 -7.67486,2.46091 -6.42188,4.48828 0.50793,0.82185 2.86019,0.98431 7.83594,0.53907 6.80258,-0.60872 7.2709,-0.82016 10.83008,-4.88086 2.52665,-2.88269 3.7297,-3.70216 3.75,-2.55274 0.0164,0.9308 2.48327,3.81084 5.48047,6.39844 2.9972,2.58759 5.71734,5.40221 6.04492,6.25586 0.3629,0.94571 -1.66021,4.87241 -5.17774,10.05078 -4.51007,6.63955 -5.74976,9.27569 -5.66796,12.05078 0.11956,4.05536 4.39686,15.20337 7.41406,19.32422 2.22802,3.04299 1.84542,4.72852 -1.07227,4.72852 -1.04021,0 -2.26948,0.67429 -2.73047,1.49804 -0.73979,1.32193 -26.36337,1.52729 -218.29882,1.75196 l -217.460942,0.2539 235.000002,0.0332 c 129.25,0.0187 229.91015,-0.10942 223.6914,-0.28516 -10.31088,-0.29138 -11.25564,-0.4757 -10.74023,-2.09961 0.31085,-0.97943 -1.25759,-6.25203 -3.48437,-11.7168 -2.55447,-6.26896 -3.83911,-10.78025 -3.48047,-12.22265 0.31263,-1.25737 3.93147,-5.62604 8.04101,-9.70899 8.86423,-8.80688 9.09034,-9.96485 4.00781,-20.57031 -4.48573,-9.36015 -6.52445,-11.44577 -15.28515,-15.62891 -5.75316,-2.74707 -7.25,-3.91481 -7.25,-5.66015 0,-1.20968 -0.65927,-3.14089 -1.46485,-4.29102 -0.80564,-1.15013 -1.18123,-2.3754 -0.83398,-2.72265 1.42107,-1.42107 3.08548,-0.4393 4.86719,2.86914 1.68312,3.12537 4.43164,4.79795 4.43164,2.69726 0,-1.65482 -6.23085,-9.19726 -7.59766,-9.19726 z"
         id="path4689"
         inkscape:connector-curvature="0" />
      <path
         style="fill:#fefefe"
         d="m 457.51674,197.59709 c 0,-0.55 0.8449,-1 1.87756,-1 1.03265,0 2.41574,-0.64847 3.07352,-1.44105 0.9502,-1.14492 0.77327,-2.01828 -0.86096,-4.25 -3.0295,-4.13711 -7.32182,-15.28571 -7.43412,-19.30895 -0.076,-2.72156 1.34148,-5.68078 6.37315,-13.30517 6.16043,-9.33481 6.61238,-9.77782 9.42114,-9.23494 3.45284,0.66736 4.51335,2.01722 4.5344,5.77159 0.0114,2.03769 -1.62764,4.37443 -6.45305,9.19984 -3.5576,3.5576 -6.72573,7.50343 -7.0403,8.76852 -0.36306,1.46008 0.90674,5.92904 3.47672,12.23611 4.93126,12.1019 4.71184,13.56405 -2.03545,13.56405 -2.71293,0 -4.93261,-0.45 -4.93261,-1 z"
         id="path4635"
         inkscape:connector-curvature="0" />
      <path
         style="fill:#fefefe"
         d="m 430.6924,142.57012 c 0.24554,-0.73663 3.09134,-1.86746 6.32399,-2.51295 5.38467,-1.0752 6.34694,-1.6984 11.47473,-7.43143 6.04169,-6.7548 9.52562,-7.86094 9.52562,-3.02435 0,1.84292 -0.8839,2.89427 -3.45329,4.10748 -1.89931,0.89681 -4.82431,3.25396 -6.5,5.23811 -2.8461,3.37002 -3.53299,3.65216 -10.4321,4.28501 -5.94447,0.54529 -7.2983,0.41616 -6.93895,-0.66187 z"
         id="path4629"
         inkscape:connector-curvature="0" />
      <path
         style="fill:#fefefe"
         d="m 441.7346,129.32899 -2.22907,-2.37274 2.32005,-2.17958 c 2.99431,-2.813 5.79413,-2.76333 8.53236,0.15139 2.08484,2.2192 2.10518,2.40726 0.42432,3.92209 -3.23304,2.91367 -6.59319,3.09151 -9.04766,0.47884 z"
         id="path4627"
         inkscape:connector-curvature="0" />
      <path
         style="fill:#fefe00"
         d="m 475.01674,152.59772 c -0.77933,-2.69135 -1.72668,-3.65878 -4.29301,-4.38402 -2.07812,-0.58728 -3.64887,-0.57473 -4.2576,0.034 -1.18055,1.18055 -12.95985,-9.42558 -12.95361,-11.66348 0.002,-0.83208 0.97991,-1.95708 2.17242,-2.5 1.78772,-0.81391 3.00685,-2.25628 4.48887,-5.31087 0.32564,-0.67117 5.92071,2.69972 7.64676,4.60698 3.27653,3.62052 8.81258,16.41112 8.49574,19.62871 l -0.29957,3.04211 z"
         id="path4714"
         inkscape:connector-curvature="0" />
    </g>
    <g
       id="g4716">
      <path
         style="fill:#000000"
         d="m 98.728516,86.164062 c -0.998203,0.04935 -2.486033,0.922872 -5.576172,2.97461 -4.367141,2.899618 -5.914539,3.472201 -6.982422,2.585937 -1.4187,-1.177417 -10.207969,-4.098097 -12.390625,-4.117187 -1.068638,-0.0093 -6.261719,7.016158 -6.261719,8.470703 0,0.285931 0.618679,0.519531 1.376953,0.519531 0.758273,0 1.939595,-1.35 2.623047,-3 0.683452,-1.650001 1.684445,-3 2.226563,-3 0.557177,0 0.661345,0.760762 0.238281,1.75 -0.41163,0.9625 -0.975484,3.091937 -1.253906,4.732422 -0.295175,1.739185 -2.257164,4.683402 -4.705078,7.062502 -2.312507,2.2475 -4.908763,6.07343 -5.779297,8.51758 -3.193379,8.96587 -6.677507,27.81888 -7.751953,41.9375 -0.606907,7.975 -1.778367,17.49958 -2.601563,21.16601 -1.504689,6.70172 -1.19154,9.92284 1.701172,17.53125 1.621787,4.26562 4.334048,2.53213 5.023437,-3.20898 0.660955,-5.50431 4.612048,-24.99697 7.902344,-38.98828 1.164076,-4.95 2.797915,-12.6 3.63086,-17 0.981889,-5.18679 2.556909,-9.63176 4.476562,-12.64063 1.801276,-2.82333 3.194327,-6.62161 3.558594,-9.69726 0.533102,-4.50122 0.881861,-5.08907 3.175781,-5.35938 1.675898,-0.19747 3.48353,-1.64334 5.171875,-4.13672 1.427566,-2.10827 4.938305,-5.186075 7.802734,-6.839842 6.170636,-3.56259 8.093826,-6.343673 5.902346,-8.535156 -0.487493,-0.48749 -0.908893,-0.754221 -1.507814,-0.72461 z"
         id="path4694"
         inkscape:connector-curvature="0" />
      <path
         style="fill:#fefefe"
         d="m 53.087592,188.56435 c -1.554853,-5.54146 -1.566912,-6.6205 -0.148083,-13.25 0.849541,-3.96949 2.012286,-12.84226 2.583879,-19.71726 0.593023,-7.13276 1.742848,-14.1194 2.677876,-16.2715 2.011928,-4.63072 5.563701,-5.92472 8.420595,-3.06783 1.897543,1.89754 1.878255,2.12238 -1.448169,16.88124 -5.966831,26.47398 -7.656947,34.9099 -7.656947,38.21835 0,5.48483 -2.559349,3.87092 -4.429151,-2.793 z"
         id="path4633"
         inkscape:connector-curvature="0" />
      <path
         style="fill:#fefefe"
         d="m 70.516743,110.59709 c -2.730904,-2.7309 -2.509759,-4.83395 0.590122,-5.61197 1.424567,-0.35755 6.037067,-3.19879 10.25,-6.313887 13.588599,-10.047572 17.288966,-12.345053 18.282683,-11.351336 1.866032,1.866033 -0.419393,4.183039 -9.611884,9.7447 -7.113117,4.303593 -10.143478,6.829423 -12.679029,10.568073 -1.832541,2.70207 -3.669392,4.92445 -4.081892,4.93863 -0.4125,0.0142 -1.65,-0.87421 -2.75,-1.97421 z"
         id="path4623"
         inkscape:connector-curvature="0" />
      <path
         style="fill:#fefefe"
         d="m 80.516743,104.6961 c 0,-0.57621 1.445273,-1.79503 3.211717,-2.70849 l 3.211717,-1.66084 -1.581197,2.38516 c -1.650241,2.48931 -4.842237,3.79727 -4.842237,1.98417 z"
         id="path4619"
         inkscape:connector-curvature="0" />
      <path
         style="fill:#fefefe"
         d="m 77.516743,99.282018 c 0,-2.110596 3.861817,-5.223108 5.030494,-4.054431 0.644316,0.644316 -0.05323,1.749528 -2.023628,3.206309 -2.140001,1.582174 -3.006866,1.826684 -3.006866,0.848122 z"
         id="path4615"
         inkscape:connector-curvature="0" />
      <path
         style="fill:#fefe00"
         d="m 56.988996,137.59709 c 0.322971,-1.375 1.726651,-7.45 3.119288,-13.5 3.183351,-13.82936 7.607263,-21.68011 12.092718,-21.45996 0.448657,0.022 -0.421759,0.71139 -1.934259,1.53194 -1.5125,0.82054 -2.75,1.95711 -2.75,2.5257 0,1.9282 2.036854,4.85168 4.179049,5.99814 1.807919,0.96757 2.425456,0.78046 4.049682,-1.22708 l 1.91647,-2.36874 -0.649569,4 c -0.357264,2.2 -1.919462,6.025 -3.471552,8.5 -1.55209,2.475 -3.12605,6.075 -3.497688,8 -1.397915,7.24088 -1.474197,7.35721 -3.576663,5.45451 -2.513392,-2.27459 -6.451778,-1.20283 -8.481934,2.3082 -1.556679,2.69218 -1.573085,2.69609 -0.995542,0.23729 z"
         id="path4712"
         inkscape:connector-curvature="0" />
    </g>
    <g
       id="g4724">
      <path
         style="fill:#000000"
         d="m 163.48438,82.583984 c -0.58989,-0.03187 -0.9668,0.235313 -0.9668,0.857422 0,0.464758 0.89803,1.658612 1.99609,2.652344 1.55594,1.408112 1.74124,2.113512 0.8418,3.197266 -0.80067,0.964753 -1.47409,1.070831 -2.19727,0.347656 -1.37273,-1.372736 -5.94846,-1.334739 -7.34375,0.06055 -0.80296,0.802967 -1.95571,0.470696 -4.24609,-1.222657 -2.62927,-1.943902 -4.32323,-2.314528 -10.34766,-2.267578 -9.81693,0.07651 -15.42007,1.825962 -19.25586,6.013672 -2.91261,3.17983 -3.28108,4.407178 -4.85351,16.158201 -0.9359,6.99412 -2.46523,17.6668 -3.39844,23.7168 -1.61316,10.45807 -1.96197,22.06124 -0.75781,25.19922 0.30541,0.79589 1.34442,1.30138 2.30859,1.12109 1.32359,-0.2475 2.29913,-2.6543 3.98242,-9.82422 8.03157,-34.21017 10.55307,-43.99907 11.75391,-45.64063 1.08438,-1.48234 2.68161,-1.85546 7.94922,-1.85546 l 6.59375,0 -0.63867,11.5 c -0.61268,11.01782 -0.5475,11.5829 1.57617,13.48632 2.19918,1.97111 2.22795,1.97194 3.64844,0.0293 0.82385,-1.12668 1.11119,-2.60865 0.67773,-3.48828 -1.11932,-2.27148 -0.83211,-10.95422 0.51563,-15.61133 l 1.18164,-4.08203 5.5039,0.45703 c 7.05938,0.58542 8.72751,-0.67899 8.37891,-6.347651 -0.16687,-2.713635 0.37304,-5.165234 1.52148,-6.917969 1.73414,-2.646631 1.72206,-2.776608 -0.48047,-5.121094 -1.38846,-1.477948 -2.96021,-2.364846 -3.94335,-2.417969 z"
         id="path4696"
         inkscape:connector-curvature="0" />
      <path
         style="fill:#fefefe"
         d="m 113.11704,151.78089 c -0.36191,-3.19891 -0.2002,-8.03641 0.35937,-10.75 0.55956,-2.71359 1.92425,-12.1338 3.03263,-20.9338 1.10838,-8.8 2.2719,-17.125 2.5856,-18.5 0.79188,-3.470982 4.33041,-6.999998 7.01886,-6.999998 2.87306,0 5.12626,5.780508 3.46393,8.886598 -1.04921,1.96047 -6.91276,25.44091 -11.07845,44.3634 -2.51861,11.44068 -4.3788,12.80034 -5.38194,3.9338 z"
         id="path4631"
         inkscape:connector-curvature="0" />
      <path
         style="fill:#fefefe"
         d="m 146.57468,125.1669 c -0.80743,-0.9729 -1.13798,-5.84902 -1.03378,-15.25 0.0842,-7.60089 0.035,-15.29406 -0.10937,-17.095922 -0.35163,-4.387468 1.23984,-5.930093 4.55808,-4.418199 2.19319,0.999282 2.52487,1.781947 2.50999,5.922874 -0.009,2.624292 -0.90171,8.146437 -1.98286,12.271437 -2.20693,8.42031 -2.46422,12.26408 -1.00359,14.9933 1.0174,1.90102 0.40891,5.0067 -0.98095,5.0067 -0.42382,0 -1.3047,-0.64359 -1.95752,-1.43019 z"
         id="path4625"
         inkscape:connector-curvature="0" />
      <path
         style="fill:#fefefe"
         d="m 153.94352,101.99374 c -1.55406,-0.64504 -0.45373,-6.449077 1.35413,-7.142818 1.82435,-0.700068 5.21909,3.109571 5.21909,5.856958 0,1.41343 -0.69256,1.86933 -2.75,1.81027 -1.5125,-0.0434 -3.23295,-0.27941 -3.82322,-0.52441 z"
         id="path4617"
         inkscape:connector-curvature="0" />
      <path
         style="fill:#fefe00"
         d="m 129.98431,96.847093 c -1.64031,-3.904016 -4.71122,-4.309179 -8.15312,-1.075687 -3.3037,3.103667 -2.8676,0.877031 0.56411,-2.880207 2.90074,-3.175911 6.63399,-4.595693 15.35916,-5.841205 6.74488,-0.962827 7.9557,-0.306195 6.60105,3.57976 -0.80331,2.304361 -0.78039,3.800053 0.0874,5.704646 1.59558,3.501918 0.10952,4.32281 -7.25963,4.01018 -5.54397,-0.23521 -5.90122,-0.408767 -7.19897,-3.497488 z"
         id="path4710"
         inkscape:connector-curvature="0" />
    </g>
    <path
       id="path4704"
       d="m 88.516743,126.34391 c 0,-0.13925 0.853687,-3.17675 1.897083,-6.75 2.833785,-9.70468 6.932384,-18.04116 10.937564,-22.246817 2.66707,-2.800561 3.14009,-3.75 1.8683,-3.75 -2.98719,0 -1.83106,-1.641633 2.04705,-2.906689 2.0625,-0.672795 4.3125,-1.456525 5,-1.741621 1.8614,-0.771896 1.51903,2.200639 -0.77032,6.688148 -2.10148,4.119237 -4.60189,5.447499 -3.68993,1.960162 1.4228,-5.440776 -4.2334,0.837933 -8.580832,9.525217 -1.38314,2.76388 -3.502307,8.27638 -4.709259,12.25 -1.206952,3.97363 -2.600628,7.22478 -3.097057,7.22478 -0.49643,0 -0.902599,-0.11393 -0.902599,-0.25318 z"
       style="fill:#fe0000"
       inkscape:connector-curvature="0" />
    <path
       inkscape:connector-curvature="0"
       id="path2991"
       d="m 270.62859,44.021791 c -4.04338,-2.145566 -4.1605,-2.301768 -2.4968,-3.329994 1.07463,-0.664158 -0.34329,-1.731753 -5.52896,-4.162902 -9.34472,-4.381002 -18.35192,-4.560683 -26.191,-0.522473 -5.66366,2.917572 -6.28324,3.10209 -6.28324,1.871223 0,-1.187118 10.87752,-6.038109 15.14779,-6.755385 6.70994,-1.127065 22.17362,3.811694 25.0869,8.012206 0.43758,0.630935 0.74088,0.351626 0.75,-0.69069 0.027,-3.084165 1.66177,-1.873382 2.85702,2.116019 1.78315,5.951625 1.63646,6.103595 -3.34171,3.461997 z"
       style="fill:#fe0000" />
    <path
       style="fill:#000000"
       d="m 307.62226,30.189198 c -1.30112,-0.01295 -2.63599,0.47045 -3.60819,1.645542 -1.05932,1.280397 -1.08516,2.04586 -0.11784,3.599625 0.9546,1.533338 0.9546,2.413396 0,3.946734 -0.96732,1.553765 -0.94148,2.319228 0.11784,3.599625 0.73998,0.894407 2.38583,1.626256 3.65747,1.626256 3.37988,0 5.33784,-2.712611 3.77318,-5.225881 -0.9546,-1.533338 -0.95461,-2.413396 0,-3.946734 1.73209,-2.782207 -0.95999,-5.216666 -3.82246,-5.245167 z m 0.0493,2.076214 c 0.84584,0 1.53626,0.667596 1.53626,1.482699 0,1.718199 -1.46221,2.877462 -2.41903,1.917661 -1.22535,-1.229177 -0.66151,-3.40036 0.88277,-3.40036 z m 0.011,6.935698 c 0.56488,-0.04245 1.12248,0.465206 1.33057,1.549125 0.21613,1.125759 -0.28531,1.799817 -1.34129,1.799817 -0.985,0 -1.55185,-0.664492 -1.35843,-1.596264 0.23185,-1.116972 0.80427,-1.710212 1.36915,-1.752678 z"
       id="path8374-8"
       inkscape:connector-curvature="0" />
    <path
       style="fill:#000000"
       d="m 298.4068,30.208506 c -1.54866,0 -5.60299,3.525618 -5.60299,4.872352 0,1.261462 0.28706,1.311728 1.53841,0.269968 1.33296,-1.109732 1.53842,-0.578836 1.53842,3.987434 0,3.997253 0.37155,5.268742 1.5384,5.268742 1.22056,0 1.53627,-1.485563 1.53627,-7.199248 0,-3.959592 -0.24672,-7.199248 -0.54851,-7.199248 z"
       id="path8372-8"
       inkscape:connector-curvature="0" />
    <path
       style="fill:#000000"
       d="m 318.94822,30.208484 c -4.20716,0 -6.4067,9.367437 -3.00183,12.782947 0.88611,0.888889 2.23655,1.615549 3.00183,1.615549 2.57669,0 4.61523,-3.178552 4.61523,-7.199248 0,-4.020696 -2.03854,-7.199248 -4.61523,-7.199248 z m 0,2.57116 c 0.5639,0 1.17256,1.795978 1.352,3.991724 0.34845,4.263754 -1.31778,7.373544 -2.41474,4.505956 -0.90236,-2.358885 -0.13495,-8.49768 1.06274,-8.49768 z"
       id="path8370-5"
       inkscape:connector-curvature="0" />
    <path
       style="fill:#000000"
       d="m 328.48079,30.356319 c -2.22918,-0.04355 -3.42746,2.051355 -2.47045,4.553107 0.37053,0.968599 1.54468,1.483061 2.93112,1.285574 1.69448,-0.241368 2.30976,-1.016232 2.30976,-2.901124 0,-1.884892 -0.61528,-2.657617 -2.30976,-2.898985 -0.15745,-0.02238 -0.31205,-0.03554 -0.46067,-0.03862 z m 0.20784,1.909093 c 0.5639,0 1.02632,0.462803 1.02632,1.028464 0,0.56565 -0.46242,1.028464 -1.02632,1.028464 -0.56388,0 -1.02418,-0.462814 -1.02418,-1.028464 0,-0.565661 0.46029,-1.028464 1.02418,-1.028464 z"
       id="path8368-5"
       inkscape:connector-curvature="0" />
    <g
       transform="translate(-11.767395,-206.54874)"
       id="g4598">
      <path
         inkscape:connector-curvature="0"
         id="path4269"
         d="m 208.26405,292.45423 c -1.61588,-1.79111 -1.55779,-2.04029 1.78992,-7.67767 3.33286,-5.61237 3.44503,-6.08692 3.05265,-12.91443 -0.22404,-3.89838 -0.56898,-7.93171 -0.76654,-8.96296 -0.26164,-1.36579 0.14414,-1.875 1.49412,-1.875 1.42864,0 2.0052,0.85926 2.51623,3.75 2.15101,12.16767 -1.26228,29.53125 -5.80518,29.53125 -0.33612,0 -1.36265,-0.83304 -2.2812,-1.85119 z"
         style="fill:#ffffff" />
      <path
         inkscape:connector-curvature="0"
         id="path4261"
         d="m 204.03697,285.18458 c -2.93467,-1.12061 -3.6395,-4.37425 -1.5643,-7.22112 1.5614,-2.14202 4.76474,-1.29053 6.78588,1.80377 1.1982,1.83439 1.23391,2.51516 0.21759,4.14765 -1.20688,1.93854 -2.74644,2.29794 -5.43917,1.26971 z"
         style="fill:#ffffff" />
      <path
         inkscape:connector-curvature="0"
         id="path4257"
         d="m 222.90084,281.3268 c -2.3048,-1.50307 -4.17436,-6.23017 -5.21144,-13.17698 -1.15512,-7.73732 -3.05626,-10.18798 -5.78221,-7.45351 -1.24089,1.24477 -1.31021,1.89104 -0.3882,3.61921 0.61734,1.15711 -4.80889,-3.89568 -12.0583,-11.22843 -11.1083,-11.23602 -14.398,-15.05429 -12.94709,-15.02733 1.65091,0.0307 11.48966,4.88994 12.09393,5.97308 0.44609,0.79962 7.35132,7.0083 15.34494,13.79706 7.99363,6.78877 14.94253,13.24293 15.44201,14.34259 1.31919,2.90435 -0.95189,9.40285 -3.39566,9.71642 -1.02762,0.13186 -2.42171,-0.12109 -3.09798,-0.56211 z"
         style="fill:#ffffff" />
      <path
         inkscape:connector-curvature="0"
         id="path4293"
         d="m 214.67939,292.66479 c 0.26841,-0.90234 0.98476,-3.75 1.59191,-6.32812 1.48383,-6.30077 2.05858,-6.74575 5.9781,-4.62835 4.02759,2.17578 6.04199,1.27086 7.63599,-3.4303 0.88755,-2.61761 1.20263,-2.88837 1.7526,-1.50605 1.14493,2.87769 -0.21802,9.0192 -2.73667,12.33165 -1.85143,2.43493 -3.4992,3.40049 -7.13959,4.18365 -6.59125,1.41799 -7.66131,1.32394 -7.08234,-0.62248 z"
         style="fill:#fefe00" />
      <path
         id="path4174"
         d="m 187.04511,237.80151 c -1.0551,-0.0163 -1.69922,0.34929 -1.69922,1.19141 0,0.45445 6.09751,6.98636 13.55078,14.51562 l 13.55078,13.68946 0,6.4668 c 0,6.1651 -1.06153,9.10384 -2.20703,6.10937 -0.78808,-2.06011 -6.29475,-5.14834 -9.1875,-5.15234 -2.91182,-0.004 -5.42773,2.99554 -5.42773,6.47265 0,1.27001 -0.87304,3.24203 -1.94141,4.38282 -1.83101,1.95512 -1.85929,2.23812 -0.46875,4.93554 0.81136,1.57388 1.47657,3.51541 1.47657,4.31446 0,0.79904 0.63131,1.45312 1.40234,1.45312 1.89877,0 1.79442,-3.63555 -0.16602,-5.80859 -1.18287,-1.31113 -1.30166,-2.00048 -0.48828,-2.81641 0.81339,-0.81593 1.52379,-0.67316 2.9043,0.58008 1.33243,1.20961 2.60644,1.48756 4.69531,1.02734 2.13765,-0.47098 2.86719,-0.29682 2.86719,0.68555 0,0.72453 1.03833,2.29706 2.30859,3.49414 2.0744,1.95488 2.91118,2.12126 8.20899,1.625 3.24412,-0.30389 6.99937,-0.97286 8.3457,-1.48633 3.634,-1.38596 7.46293,-6.98091 7.99023,-11.67383 0.75197,-6.6922 -1.9514,-10.53374 -15.41992,-21.91797 -6.546,-5.53298 -13.77843,-11.96673 -16.07226,-14.29687 -4.20163,-4.26815 -11.05737,-7.74202 -14.22266,-7.79102 z m -0.53125,0.25782 c 1.65091,0.0307 11.48948,4.88951 12.09375,5.97265 0.44609,0.79963 7.35208,7.01007 15.3457,13.79883 7.99363,6.78877 14.94193,13.24214 15.44141,14.3418 0.6238,1.37339 0.52591,3.17017 -0.31055,5.73828 -0.82175,2.52296 -1.82508,3.81673 -3.08593,3.97851 -4.17971,0.53633 -6.83244,-3.85228 -8.3086,-13.74023 -1.15512,-7.73732 -3.05725,-10.18759 -5.7832,-7.45313 -1.24089,1.24478 -1.30873,1.89098 -0.38672,3.61915 0.61734,1.15711 -4.80918,-3.89577 -12.05859,-11.22852 -11.1083,-11.23602 -14.39818,-15.05434 -12.94727,-15.02734 z m 27.32031,22.96484 c 1.42864,0 2.0046,0.85926 2.51563,3.75 1.69216,9.57209 -0.43249,25.70799 -3.73438,28.35937 -1.94541,1.56216 -2.39235,1.49199 -4.35156,-0.67968 -1.61588,-1.79111 -1.55669,-2.04036 1.79102,-7.67774 3.33286,-5.61237 3.44316,-6.08655 3.05078,-12.91406 -0.22404,-3.89838 -0.56807,-7.93164 -0.76563,-8.96289 -0.26164,-1.36579 0.14416,-1.875 1.49414,-1.875 z m 17.24219,14.92578 c 0.18275,0.0169 0.35626,0.3039 0.5625,0.82227 1.14493,2.87769 -0.21963,9.01958 -2.73828,12.33203 -1.85143,2.43493 -3.49828,3.40042 -7.13867,4.18359 -6.59125,1.41798 -7.661,1.32337 -7.08203,-0.62304 0.26841,-0.90236 0.98464,-3.75001 1.59179,-6.32813 1.48383,-6.30077 2.059,-6.74631 5.97852,-4.62891 4.02759,2.17578 6.04077,1.27148 7.63476,-3.42968 0.55472,-1.63601 0.88683,-2.35622 1.19141,-2.32813 z m -26.30273,0.82617 c 1.49732,-0.002 3.22116,1.0563 4.48437,2.99024 1.1982,1.83439 1.23507,2.51594 0.21875,4.14844 -1.20688,1.93855 -2.74672,2.29777 -5.43945,1.26953 -2.93467,-1.12061 -3.63965,-4.37384 -1.56445,-7.22071 0.58552,-0.80325 1.40239,-1.18658 2.30078,-1.1875 z m 13.85351,0.0762 c 0.11171,-0.005 0.23478,0.0297 0.36328,0.10937 0.51401,0.31867 0.9336,0.97574 0.9336,1.46094 0,0.48519 -0.41959,0.88281 -0.9336,0.88281 -0.51402,0 -0.93554,-0.65707 -0.93554,-1.46094 0,-0.6029 0.23713,-0.97729 0.57226,-0.99218 z"
         style="fill:#000000"
         inkscape:connector-curvature="0" />
    </g>
    <g
       transform="translate(-8.3610435,-203.45206)"
       id="g4590">
      <path
         style="fill:#ffffff"
         d="m 264.79756,256.37533 c 1.61588,1.79111 1.55779,2.04029 -1.78992,7.67767 -3.33286,5.61237 -3.44503,6.08692 -3.05265,12.91443 0.22404,3.89838 0.56898,7.93171 0.76654,8.96296 0.26164,1.36579 -0.14414,1.875 -1.49412,1.875 -1.42864,0 -2.0052,-0.85926 -2.51623,-3.75 -2.15101,-12.16767 1.26228,-29.53125 5.80518,-29.53125 0.33612,0 1.36265,0.83304 2.2812,1.85119 z"
         id="path4356"
         inkscape:connector-curvature="0" />
      <path
         style="fill:#ffffff"
         d="m 269.02464,263.64498 c 2.93467,1.12061 3.6395,4.37425 1.5643,7.22112 -1.5614,2.14202 -4.76474,1.29053 -6.78588,-1.80377 -1.1982,-1.83439 -1.23391,-2.51516 -0.21759,-4.14765 1.20688,-1.93854 2.74644,-2.29794 5.43917,-1.26971 z"
         id="path4358"
         inkscape:connector-curvature="0" />
      <path
         style="fill:#ffffff"
         d="m 250.16077,267.50276 c 2.3048,1.50307 4.17436,6.23017 5.21144,13.17698 1.15512,7.73732 3.05626,10.18798 5.78221,7.45351 1.24089,-1.24477 1.31021,-1.89104 0.3882,-3.61921 -0.61734,-1.15711 4.80889,3.89568 12.0583,11.22843 11.1083,11.23602 14.398,15.05429 12.94709,15.02733 -1.65091,-0.0307 -11.48966,-4.88994 -12.09393,-5.97308 -0.44609,-0.79962 -7.35132,-7.0083 -15.34494,-13.79706 -7.99363,-6.78877 -14.94253,-13.24293 -15.44201,-14.34259 -1.31919,-2.90435 0.95189,-9.40285 3.39566,-9.71642 1.02762,-0.13186 2.42171,0.12109 3.09798,0.56211 z"
         id="path4360"
         inkscape:connector-curvature="0" />
      <path
         style="fill:#fefe00"
         d="m 258.38222,256.16477 c -0.26841,0.90234 -0.98476,3.75 -1.59191,6.32812 -1.48383,6.30077 -2.05858,6.74575 -5.9781,4.62835 -4.02759,-2.17578 -6.04199,-1.27086 -7.63599,3.4303 -0.88755,2.61761 -1.20263,2.88837 -1.7526,1.50605 -1.14493,-2.87769 0.21802,-9.0192 2.73667,-12.33165 1.85143,-2.43493 3.4992,-3.40049 7.13959,-4.18365 6.59125,-1.41799 7.66131,-1.32394 7.08234,0.62248 z"
         id="path4362"
         inkscape:connector-curvature="0" />
      <path
         inkscape:connector-curvature="0"
         style="fill:#000000"
         d="m 286.0165,311.02805 c 1.0551,0.0163 1.69922,-0.34929 1.69922,-1.19141 0,-0.45445 -6.09751,-6.98636 -13.55078,-14.51562 l -13.55078,-13.68946 0,-6.4668 c 0,-6.1651 1.06153,-9.10384 2.20703,-6.10937 0.78808,2.06011 6.29475,5.14834 9.1875,5.15234 2.91182,0.004 5.42773,-2.99554 5.42773,-6.47265 0,-1.27001 0.87304,-3.24203 1.94141,-4.38282 1.83101,-1.95512 1.85929,-2.23812 0.46875,-4.93554 -0.81136,-1.57388 -1.47657,-3.51541 -1.47657,-4.31446 0,-0.79904 -0.63131,-1.45312 -1.40234,-1.45312 -1.89877,0 -1.79442,3.63555 0.16602,5.80859 1.18287,1.31113 1.30166,2.00048 0.48828,2.81641 -0.81339,0.81593 -1.52379,0.67316 -2.9043,-0.58008 -1.33243,-1.20961 -2.60644,-1.48756 -4.69531,-1.02734 -2.13765,0.47098 -2.86719,0.29682 -2.86719,-0.68555 0,-0.72453 -1.03833,-2.29706 -2.30859,-3.49414 -2.0744,-1.95488 -2.91118,-2.12126 -8.20899,-1.625 -3.24412,0.30389 -6.99937,0.97286 -8.3457,1.48633 -3.634,1.38596 -7.46293,6.98091 -7.99023,11.67383 -0.75197,6.6922 1.9514,10.53374 15.41992,21.91797 6.546,5.53298 13.77843,11.96673 16.07226,14.29687 4.20163,4.26815 11.05737,7.74202 14.22266,7.79102 z m 0.53125,-0.25782 c -1.65091,-0.0307 -11.48948,-4.88951 -12.09375,-5.97265 -0.44609,-0.79963 -7.35208,-7.01007 -15.3457,-13.79883 -7.99363,-6.78877 -14.94193,-13.24214 -15.44141,-14.3418 -0.6238,-1.37339 -0.52591,-3.17017 0.31055,-5.73828 0.82175,-2.52296 1.82508,-3.81673 3.08593,-3.97851 4.17971,-0.53633 6.83244,3.85228 8.3086,13.74023 1.15512,7.73732 3.05725,10.18759 5.7832,7.45313 1.24089,-1.24478 1.30873,-1.89098 0.38672,-3.61915 -0.61734,-1.15711 4.80918,3.89577 12.05859,11.22852 11.1083,11.23602 14.39818,15.05434 12.94727,15.02734 z m -27.32031,-22.96484 c -1.42864,0 -2.0046,-0.85926 -2.51563,-3.75 -1.69216,-9.57209 0.43249,-25.70799 3.73438,-28.35937 1.94541,-1.56216 2.39235,-1.49199 4.35156,0.67968 1.61588,1.79111 1.55669,2.04036 -1.79102,7.67774 -3.33286,5.61237 -3.44316,6.08655 -3.05078,12.91406 0.22404,3.89838 0.56807,7.93164 0.76563,8.96289 0.26164,1.36579 -0.14416,1.875 -1.49414,1.875 z m -17.24219,-14.92578 c -0.18275,-0.0169 -0.35626,-0.3039 -0.5625,-0.82227 -1.14493,-2.87769 0.21963,-9.01958 2.73828,-12.33203 1.85143,-2.43493 3.49828,-3.40042 7.13867,-4.18359 6.59125,-1.41798 7.661,-1.32337 7.08203,0.62304 -0.26841,0.90236 -0.98464,3.75001 -1.59179,6.32813 -1.48383,6.30077 -2.059,6.74631 -5.97852,4.62891 -4.02759,-2.17578 -6.04077,-1.27148 -7.63476,3.42968 -0.55472,1.63601 -0.88683,2.35622 -1.19141,2.32813 z m 26.30273,-0.82617 c -1.49732,0.002 -3.22116,-1.0563 -4.48437,-2.99024 -1.1982,-1.83439 -1.23507,-2.51594 -0.21875,-4.14844 1.20688,-1.93855 2.74672,-2.29777 5.43945,-1.26953 2.93467,1.12061 3.63965,4.37384 1.56445,7.22071 -0.58552,0.80325 -1.40239,1.18658 -2.30078,1.1875 z m -13.85351,-0.0762 c -0.11171,0.005 -0.23478,-0.0297 -0.36328,-0.10937 -0.51401,-0.31867 -0.9336,-0.97574 -0.9336,-1.46094 0,-0.48519 0.41959,-0.88281 0.9336,-0.88281 0.51402,0 0.93554,0.65707 0.93554,1.46094 0,0.6029 -0.23713,0.97729 -0.57226,0.99218 z"
         id="path4366" />
    </g>
    <g
       id="g5154"
       transform="matrix(-0.68775756,-0.81669183,-0.81669183,0.68775756,571.84054,232.43709)">
      <path
         sodipodi:nodetypes="cssscsssscsscssssscccssscccccccccccccccccssscccsscsc"
         inkscape:connector-curvature="0"
         id="path5133"
         d="m 255.60938,66.007812 c -0.93801,1.570928 -0.97979,3.214831 -0.1504,4.861329 0.64507,1.280606 1.81718,2.562363 3.50196,3.8125 1.46071,1.083865 5.99896,5.889348 10.08594,10.677734 1.63367,1.91406 3.12949,3.657808 4.51367,5.154297 l -7.31446,5.300781 c -7.76532,5.627457 -8.14534,5.959837 -8.27148,8.412107 -0.0725,1.40968 0.59755,3.29287 1.48828,4.1836 1.53887,1.53887 1.49235,1.64121 -0.93359,2.07226 -3.66721,0.65163 -6.98524,4.33026 -6.99024,7.74805 -0.004,2.31549 0.62323,3.35781 3.29688,5.48828 3.92458,3.12725 3.88436,4.67907 -0.12696,4.81055 -1.61409,0.0529 -3.14534,0.3055 -3.40039,0.56054 -0.92054,0.92054 0.71056,1.57592 3.68164,1.47852 3.15106,-0.1033 5.40211,-1.58333 5.00196,-3.28906 -0.12753,-0.54361 1.14025,-2.03804 2.81836,-3.32032 2.0419,-1.56026 3.23052,-3.19537 3.59765,-4.94531 0.52363,-2.49596 0.67167,-2.56059 3.22852,-1.4082 0.47666,0.21483 1.05114,0.36418 1.6543,0.45898 l -0.0566,0.0859 0.18554,-0.0645 c 1.2266,0.17375 2.56285,0.10294 3.49805,-0.24805 2.25634,-0.84684 2.85545,-1.71802 4.51367,-6.54883 1.44747,-4.21678 2.57604,-6.02615 4.63672,-7.4375 2.09596,-1.43552 3.28003,-3.39327 5.14062,-8.50781 1.40054,-3.562171 2.32784,-7.424261 0.0801,-9.8125 -1.63275,-1.741609 -5.9522,-4.498927 -8.05664,-6.167969 -3.41437,-3.181104 -7.64186,-6.366417 -9.9414,-10.83789 -1.51107,-3.097268 -4.89506,-4.73438 -9.95899,-4.81836 -2.88104,0.106691 -4.78959,0.754938 -5.72271,2.300871 z m 6.24804,-1.441406 c 4.58933,0.07612 7.10755,1.375217 8.60156,4.4375 0.51624,1.058148 3.05264,4.116696 5.63282,6.796875 l 1.75586,1.824219 c 0.14422,0.156584 0.29269,0.312858 0.45312,0.470703 0.0129,0.01265 0.0261,0.0264 0.0391,0.03906 2.986,2.917453 8.52975,6.005189 10.22266,7.832031 2.18408,2.703205 0.97435,6.19224 0.46484,7.648437 -0.95808,2.356899 -1.18065,2.592784 -1.93554,1.837891 -0.886,-0.901363 -1.68605,-2.016257 -2.34766,-2.349609 -0.47855,-0.260237 -2.71803,-0.82806 -5.18359,-0.984375 l -3.4043,-0.214844 c -1.59602,-1.700556 -4.3011,-4.692149 -6.24414,-6.966797 -4.08933,-4.787228 -8.63304,-9.591919 -10.09375,-10.675781 -6.42305,-4.766032 -5.36017,-9.818022 2.03906,-9.695313 z m 12.36328,26.646485 c 0.24749,0.259004 0.49071,0.510474 0.73047,0.75 l -7.58203,7.582031 c -7.5904,7.590388 -9.06658,8.374158 -8.71289,4.630858 0.14542,-1.539 1.625,-2.90588 7.91016,-7.308592 5.29554,-3.709492 6.17048,-4.668725 7.65429,-5.654297 z"
         style="fill:#000000" />
      <path
         sodipodi:nodetypes="cssccsscc"
         inkscape:transform-center-y="5.3809073"
         inkscape:transform-center-x="-4.5028912"
         inkscape:connector-curvature="0"
         id="path4442"
         d="m 264.85136,67.207645 c -0.0599,0.03295 0.16384,0.271685 0.63604,0.736535 0.58436,0.575243 3.41145,3.667586 6.28128,6.872783 3.1714,3.542035 10.50759,9.477153 11.9978,9.985179 1.2317,0.432373 1.84244,0.507703 1.00281,-0.02364 -1.01198,-0.680161 -9.66026,-7.648094 -12.14773,-10.433642 -2.86477,-3.208019 -5.87939,-6.19571 -6.701,-6.639039 -0.66393,-0.358244 -1.00926,-0.531103 -1.06923,-0.498156 z"
         style="fill:#000000" />
      <path
         id="path4468"
         d="m 254.7997,115.14756 c 0.56148,-0.005 1.95018,-0.95717 3.08599,-2.11555 1.74832,-1.78295 1.7734,-2.02863 0.16378,-1.60109 -2.09952,0.55765 -4.8748,3.73164 -3.24977,3.71664 z"
         style="fill:#fefefe"
         inkscape:connector-curvature="0" />
      <path
         id="path4460"
         d="m 261.28711,64.613281 c -0.6514,0.01475 -1.26773,0.05256 -1.60156,0.109375 -1.93235,0.328848 -3.20502,1.066916 -3.76172,2.179688 -0.2448,0.489308 -0.3077,0.834836 -0.2793,1.517578 0.037,0.889089 0.3407,1.678976 1.0332,2.689453 0.67231,0.981011 1.64279,1.960098 2.95313,2.978516 1.83342,1.42497 5.44613,5.219635 10.14062,10.65039 2.05833,2.381161 4.63382,5.257617 6.18164,6.90625 l 0.23047,0.246094 1.76953,0.107422 c 2.06433,0.124247 2.64822,0.175966 3.5918,0.316406 1.30142,0.193701 2.74124,0.538081 3.17578,0.759766 0.36347,0.185428 0.71347,0.508773 1.53321,1.421875 0.8478,0.944371 1.0434,1.143494 1.21875,1.240234 0.39001,0.215181 0.67059,-0.104078 1.22656,-1.394531 1.61126,-3.739905 1.42867,-6.862276 -0.50781,-8.695313 -0.52045,-0.492648 -1.47819,-1.223255 -2.97657,-2.269531 -3.92315,-2.739429 -4.46032,-3.132063 -5.72461,-4.1875 -0.93841,-0.7834 -3.59951,-3.505492 -5.38867,-5.511719 -1.70714,-1.914256 -3.13009,-3.710374 -3.54883,-4.478515 -0.66144,-1.213362 -1.01829,-1.725627 -1.61523,-2.320313 -1.31956,-1.314572 -3.15784,-2.018009 -5.83203,-2.232422 -0.47901,-0.03841 -1.16696,-0.04795 -1.81836,-0.0332 z m 3.59819,2.577565 c 0.0591,0.01236 0.15856,0.05285 0.29451,0.113559 0.70049,0.312795 1.10274,0.587183 1.86849,1.272487 1.20775,1.080875 2.75729,2.662444 5.13993,5.249161 0.64801,0.70352 1.42838,1.525362 1.73535,1.828005 1.84992,1.823887 5.40481,5.025421 8.85376,7.609614 1.0301,0.771823 1.99518,1.495484 2.14454,1.607422 0.1493,0.111939 0.25723,0.226456 0.24023,0.253906 -0.0313,0.05068 -0.17141,0.05519 -0.35742,0.01367 -0.42833,-0.09561 -1.19362,-0.366136 -1.50586,-0.533203 -1.98073,-1.059803 -7.64376,-5.703836 -10.47268,-8.629892 -0.27869,-0.288266 -1.25687,-1.354552 -2.1743,-2.370916 -2.34627,-2.599304 -4.34765,-4.77836 -5.11292,-5.568431 -0.64704,-0.668011 -0.83098,-0.882476 -0.65363,-0.845384 z m 9.31197,24.090404 c -0.0654,0 -0.72495,0.483172 -1.78516,1.308594 -1.54194,1.20047 -3.44974,2.609468 -5.31055,3.923828 -5.09607,3.599558 -6.76987,4.916338 -7.66992,6.035158 -0.60453,0.75148 -0.7752,1.26818 -0.7832,2.35351 -0.005,0.76252 0.055,1.05498 0.26758,1.26758 0.55391,0.55391 1.95019,-0.39135 5.35742,-3.62304 0.56704,-0.53783 3.19718,-3.135858 5.84375,-5.773442 l 4.8125,-4.794922 -0.34766,-0.34961 c -0.19051,-0.19198 -0.36296,-0.347656 -0.38476,-0.347656 z m 4.8789,17.11328 c -0.22093,0.0641 -0.69115,0.52733 -1.4414,1.27539 -1.11753,1.11464 -3.01572,3.47877 -4.2168,5.25391 l -2.18359,3.22656 2.79492,-0.97851 c 2.4752,-0.86657 2.95569,-1.46692 4.21484,-5.25391 0.87468,-2.63069 1.20025,-3.63029 0.83203,-3.52344 z"
         style="fill:#fefefe"
         inkscape:connector-curvature="0"
         sodipodi:nodetypes="ssccssscccssscsssssssssscssssccsssssssssscsscccsscccsss" />
      <path
         id="path4494"
         d="m 278.11357,108.31984 c 4.71693,-4.84579 8.71036,-9.375182 8.87429,-10.065313 0.52443,-2.207736 -3.4102,-5.104485 -7.39054,-5.44104 l -3.82583,-0.323495 -7.71863,7.718638 -7.71864,7.71863 4.60157,4.60156 4.60156,4.60157 8.57622,-8.81055 z"
         style="fill:#fefe00"
         inkscape:connector-curvature="0" />
    </g>
    <g
       id="g5064"
       transform="matrix(1.0134788,0.36385453,-0.36385453,1.0134788,253.99408,-321.32378)">
      <path
         id="path4962"
         d="m 257.39648,314.50586 c -2.82139,0 -27.83667,8.7818 -29.60937,10.39453 -0.46425,0.42236 -1.66758,0.32536 -2.67383,-0.21484 -1.00623,-0.54022 -3.5586,-0.81741 -5.67187,-0.61524 -3.20684,0.30677 -4.18475,-0.0262 -5.91602,-2.01953 -1.97427,-2.27314 -2.20163,-2.32025 -4.69336,-0.95117 -1.43993,0.79116 -2.77127,2.26772 -2.95898,3.28125 -0.30637,1.65432 -0.0837,1.60407 2.17578,-0.5 l 2.51758,-2.34375 1.6582,2.05078 c 1.2614,1.55958 1.5508,3.15974 1.21289,6.6875 -0.3724,3.88769 -0.10948,4.97301 1.61914,6.70703 1.68123,1.68645 2.90504,2.00824 6.625,1.74805 l 4.5625,-0.31836 -0.62891,3.75 c -1.12571,6.72363 -0.89814,8.4375 1.11719,8.4375 1.31967,0 2.11068,-0.97199 2.80274,-3.43945 0.53049,-1.8914 1.24875,-3.72305 1.5957,-4.07032 1.01378,-1.0147 1.99322,7.75098 1.41406,12.65625 -0.29204,2.47355 -0.27484,4.75348 0.0371,5.06641 2.09583,2.10237 5.53498,-2.07138 6.29883,-7.64258 0.3517,-2.56519 0.18755,-7.11753 -0.36524,-10.11719 -1.35816,-7.36998 -1.31492,-7.70229 1.09766,-8.42773 1.15654,-0.34777 3.99551,-1.80767 6.3086,-3.24414 8.17033,-5.07393 6.81932,-5.73426 24.69531,12.0918 8.84321,8.81849 16.56864,16.0332 17.16601,16.0332 0.59738,0 1.79524,-1.08497 2.66211,-2.41211 1.49499,-2.28878 1.47677,-2.61449 -0.3457,-6.32813 -3.08483,-6.28596 -13.08612,-19.19839 -21.73242,-28.05664 -6.73356,-6.89863 -8.4789,-8.20312 -10.97071,-8.20312 z"
         style="fill:#000000"
         inkscape:connector-curvature="0" />
      <path
         id="path5010"
         d="m 233.50141,355.29671 c 0.53575,-5.2071 -0.91453,-15.10863 -2.78484,-19.013 -1.25481,-2.61946 -0.31775,-3.71068 3.91582,-4.56004 l 3.13902,-0.62976 -0.60317,3.22517 c -0.33174,1.77385 -0.14861,5.69174 0.40695,8.70643 1.58617,8.60722 -0.33753,17.41777 -3.80301,17.41777 -0.44015,0 -0.56201,-2.31595 -0.27077,-5.14657 z"
         style="fill:#fefefe"
         inkscape:connector-curvature="0" />
      <path
         id="path5006"
         d="m 271.01855,342.86515 c -8.94876,-8.96983 -15.90285,-16.7081 -16.21801,-18.04688 -0.78262,-3.32459 1.42282,-6.05801 4.30285,-5.33291 2.61966,0.65955 12.91565,12.76045 19.85655,23.33746 2.60706,3.9728 4.87694,7.08603 5.04416,6.91829 0.58379,-0.58561 -8.90322,-14.20108 -15.05727,-21.60974 -3.4119,-4.10748 -6.18634,-8.1153 -6.1654,-8.90625 0.021,-0.79608 3.04598,1.73439 6.7757,5.66814 7.66322,8.08246 18.01607,21.97446 17.82447,23.9178 -0.0705,0.71474 0.19615,1.0985 0.59247,0.85279 0.39633,-0.24571 1.22519,0.77524 1.8419,2.26878 1.20782,2.92504 0.0611,6.63564 -2.05064,6.63564 -0.59428,0 -8.13033,-7.06641 -16.74678,-15.70313 z"
         style="fill:#fefefe"
         inkscape:connector-curvature="0" />
      <path
         id="path4996"
         d="m 225.8206,346.1464 c 0.34357,-2.19141 1.04327,-5.62483 1.55487,-7.62981 0.82015,-3.21417 1.09341,-3.48172 2.30975,-2.26156 1.21636,1.22016 1.19453,2.12275 -0.18448,7.62981 -1.03916,4.14987 -2.02393,6.24593 -2.93444,6.24593 -1.08717,0 -1.24129,-0.82347 -0.7457,-3.98437 z"
         style="fill:#fefefe"
         inkscape:connector-curvature="0" />
      <path
         id="path4982"
         d="m 221.67374,335.0577 c 2.92168,-4.11593 7.42478,-5.56675 7.42478,-2.39213 0,2.28093 -3.7715,5.2777 -6.64211,5.2777 l -2.83096,0 2.04829,-2.88557 z"
         style="fill:#fefefe"
         inkscape:connector-curvature="0" />
      <path
         id="path3524-2"
         d="m 238.44432,332.73438 c 0,-2.00603 -2.32268,-2.64277 -5.53832,-1.51828 -3.11778,1.09025 -4.34708,0.21692 -4.88453,-3.47008 -0.30149,-2.06847 0.61471,-2.58648 12.75928,-7.21379 7.19628,-2.74191 14.20628,-5.00862 15.57777,-5.03713 3.38678,-0.0704 5.45027,0.82642 5.45027,2.36877 0,0.91592 -0.77663,1.1267 -2.71701,0.73741 -2.20992,-0.44336 -3.00931,-0.0976 -4.28311,1.85254 -0.8856,1.35581 -1.31609,3.1878 -0.99073,4.21613 0.45043,1.4236 -0.0491,2.03687 -2.30028,2.82409 -1.58161,0.55307 -4.0638,1.85427 -5.51599,2.89155 -1.45219,1.03729 -3.74667,2.30791 -5.09885,2.82362 -1.98071,0.75541 -2.45851,0.66313 -2.45851,-0.47483 z"
         style="fill:#fefe00"
         inkscape:connector-curvature="0" />
    </g>
  </g>
</svg>
