<?xml version="1.0" encoding="UTF-8" standalone="no"?>
<svg
   xmlns:dc="http://purl.org/dc/elements/1.1/"
   xmlns:cc="http://creativecommons.org/ns#"
   xmlns:rdf="http://www.w3.org/1999/02/22-rdf-syntax-ns#"
   xmlns:svg="http://www.w3.org/2000/svg"
   xmlns="http://www.w3.org/2000/svg"
   xmlns:sodipodi="http://sodipodi.sourceforge.net/DTD/sodipodi-0.dtd"
   xmlns:inkscape="http://www.inkscape.org/namespaces/inkscape"
   version="1.0"
   width="69.000000pt"
   height="67.000000pt"
   viewBox="0 0 69.000000 67.000000"
   preserveAspectRatio="xMidYMid meet"
   id="svg2"
   inkscape:version="0.91 r13725"
   sodipodi:docname="fx850301.svg">
  <defs
     id="defs18" />
  <sodipodi:namedview
     pagecolor="#ffffff"
     bordercolor="#666666"
     borderopacity="1"
     objecttolerance="10"
     gridtolerance="10"
     guidetolerance="10"
     inkscape:pageopacity="0"
     inkscape:pageshadow="2"
     inkscape:window-width="1178"
     inkscape:window-height="792"
     id="namedview16"
     showgrid="false"
     inkscape:zoom="2.8284271"
     inkscape:cx="88.727214"
     inkscape:cy="46.060444"
     inkscape:window-x="714"
     inkscape:window-y="24"
     inkscape:window-maximized="0"
     inkscape:current-layer="svg2"
     showguides="true"
     inkscape:guide-bbox="true"
     borderlayer="true" />
  <metadata
     id="metadata4">
Created by potrace 1.11, written by Peter Selinger 2001-2013
<rdf:RDF>
  <cc:Work
     rdf:about="">
    <dc:format>image/svg+xml</dc:format>
    <dc:type
       rdf:resource="http://purl.org/dc/dcmitype/StillImage" />
    <dc:title></dc:title>
  </cc:Work>
</rdf:RDF>
</metadata>
  <path
     style="color:#000000;clip-rule:nonzero;display:inline;overflow:visible;visibility:visible;opacity:1;isolation:auto;mix-blend-mode:normal;color-interpolation:sRGB;color-interpolation-filters:linearRGB;solid-color:#000000;solid-opacity:1;fill:none;fill-opacity:1;fill-rule:evenodd;stroke:#000000;stroke-width:2.4000001;stroke-linecap:round;stroke-linejoin:round;stroke-miterlimit:4;stroke-dasharray:none;stroke-dashoffset:0;stroke-opacity:1;color-rendering:auto;image-rendering:auto;shape-rendering:auto;text-rendering:auto;enable-background:accumulate"
     d="m 21.492729,14.257336 c -6.905422,-4.332773 -13.3369645,2.011039 -13.3369645,9.1492 0,7.196653 13.3369645,8.768872 13.3369645,2.269628 0,-6.49924 -13.3369645,-3.362475 -13.3369645,8.011199 0,11.373589 13.3369645,9.50061 13.3369645,3.407553 0,-6.092978 -13.3369645,-3.281773 -13.3369645,6.87327 0,10.155042 11.4413665,10.50314 13.4096985,4.402676 0.07273,4.501798 5.099609,6.254543 8.045504,5.465193 4.64429,-1.251099 7.243898,-5.24831 8.58866,-10.040467 1.218499,-5.135573 0.129718,-10.271146 -3.130788,-10.271146 -7.308368,0 -6.381904,20.542292 6.172292,20.542292 11.928087,0 14.094168,-20.542292 7.573107,-20.542292 -3.654184,0 -5.249672,5.135573 -4.361257,10.271146 0.780057,4.278736 3.576918,8.915485 8.322219,10.040467 3.769694,1.010055 8.068915,-0.619346 8.068915,-5.608075"
     id="path9029-4-6"
     inkscape:connector-curvature="0"
     sodipodi:nodetypes="cssssscccscsccc" />
</svg>
