<?xml version="1.0" encoding="UTF-8" standalone="no"?>
<!-- Created with Inkscape (http://www.inkscape.org/) -->

<svg
   xmlns:dc="http://purl.org/dc/elements/1.1/"
   xmlns:cc="http://creativecommons.org/ns#"
   xmlns:rdf="http://www.w3.org/1999/02/22-rdf-syntax-ns#"
   xmlns:svg="http://www.w3.org/2000/svg"
   xmlns="http://www.w3.org/2000/svg"
   xmlns:sodipodi="http://sodipodi.sourceforge.net/DTD/sodipodi-0.dtd"
   xmlns:inkscape="http://www.inkscape.org/namespaces/inkscape"
   version="1.1"
   width="625"
   height="300"
   id="svg2"
   inkscape:version="0.91 r13725"
   sodipodi:docname="ub141003.svg">
  <sodipodi:namedview
     pagecolor="#a3a3a3"
     bordercolor="#666666"
     borderopacity="1"
     objecttolerance="10"
     gridtolerance="10"
     guidetolerance="10"
     inkscape:pageopacity="0"
     inkscape:pageshadow="2"
     inkscape:window-width="1303"
     inkscape:window-height="861"
     id="namedview11"
     showgrid="false"
     inkscape:zoom="0.89889565"
     inkscape:cx="247.3699"
     inkscape:cy="263.57108"
     inkscape:window-x="0"
     inkscape:window-y="0"
     inkscape:window-maximized="0"
     inkscape:current-layer="svg2" />
  <metadata
     id="metadata8">
    <rdf:RDF>
      <cc:Work
         rdf:about="">
        <dc:format>image/svg+xml</dc:format>
        <dc:type
           rdf:resource="http://purl.org/dc/dcmitype/StillImage" />
        <dc:title></dc:title>
      </cc:Work>
    </rdf:RDF>
  </metadata>
  <defs
     id="defs6" />
  <g
     id="g4311"
     transform="translate(-21.913621,9.649191)">
    <path
       id="path4257"
       d="m 333.3823,91.34071 c -0.43907,-0.007 -5.06414,4.14262 -10.27929,9.22265 -8.53721,8.31603 -9.91858,9.3019 -13.86328,9.89258 -3.51745,0.52669 -5.15614,0.26073 -8.30664,-1.35156 -3.80469,-1.94707 -4.03403,-1.95896 -7.50977,-0.38672 -1.97171,0.8919 -3.38135,1.94939 -3.13477,2.34961 0.24657,0.40021 -0.81849,0.24775 -2.36523,-0.33789 -2.44849,-0.9271 -3.06992,-0.80467 -4.80859,0.93945 -1.36254,1.3668 -1.77794,2.54805 -1.30664,3.72071 0.64202,1.59743 0.74602,1.57841 1.46679,-0.29297 0.42651,-1.1074 1.26261,-2.31678 1.85742,-2.68555 1.88864,-1.17088 2.58961,0.84658 1.30665,3.75977 -0.97971,2.22459 -1.24785,2.41076 -1.28125,0.89062 -0.0232,-1.05703 0.48443,-2.51159 1.12695,-3.23437 0.99384,-1.11799 0.92263,-1.13038 -0.46875,-0.0742 -2.08275,1.58093 -2.0545,2.60185 0.20117,7.28515 2.03573,4.22663 3.27677,4.97657 8.23633,4.97657 l 3.3789,0 -3.19531,3.30859 c -1.8814,1.94718 -5.45355,4.13233 -8.68554,5.31445 -5.55563,2.03202 -6.88199,3.35755 -5.90625,5.90821 0.29587,0.77344 1.30029,1.40625 2.23046,1.40625 3.4915,0 14.79278,-6.41925 18.92774,-10.75196 3.71915,-3.89703 13.2976,-9.87304 15.82617,-9.87304 0.50939,0 3.30544,-0.89121 6.21289,-1.98243 5.15412,-1.93443 5.36602,-2.15708 8.47461,-8.90625 1.75357,-3.80722 3.68444,-6.92382 4.29102,-6.92382 0.60657,0 4.27443,1.12667 8.15039,2.5039 8.09321,2.87566 10.63784,2.61963 15.23047,-1.5332 l 3.02929,-2.74024 -1.91406,-1.94726 c -1.22888,-1.2499 -6.25151,-3.11006 -14.01953,-5.19531 -6.65714,-1.78706 -12.46328,-3.25472 -12.90235,-3.26172 z"
       style="fill:#000000"
       inkscape:connector-curvature="0" />
    <path
       sodipodi:nodetypes="ssssssssssscssccccsssccsssscsssscssscsss"
       inkscape:connector-curvature="0"
       id="path3754"
       d="m 280.44262,139.26596 c 0,-1.28309 1.47822,-2.29006 5.54578,-3.7778 4.12396,-1.50837 6.61654,-3.22307 9.72221,-6.68812 4.03791,-4.50515 7.24737,-5.85885 8.61766,-3.63475 1.11515,1.80998 -7.26737,9.37522 -14.0462,12.67672 -7.43089,3.61906 -9.83945,3.96763 -9.83945,1.42395 z m 11.25927,-15.55063 c 0.7954,-0.80956 2.81947,-1.86702 4.49791,-2.3499 2.82365,-0.81234 3.02988,-0.72394 2.75942,1.18286 -0.24412,1.72115 -0.98543,2.10844 -4.49791,2.34989 -3.81399,0.26217 -4.07094,0.15202 -2.75942,-1.18285 z m -6.51259,-6.72583 c -0.0406,-1.09701 0.62591,-2.57358 1.4811,-3.28125 1.38995,-1.15018 1.45291,-1.08778 0.59357,0.58834 -0.52871,1.03125 -1.19521,2.50781 -1.4811,3.28125 -0.35691,0.96562 -0.5429,0.78127 -0.59357,-0.58834 z m 11.66348,-4.59772 c -0.99778,-0.75704 -2.68002,-1.39333 -3.73832,-1.41398 -1.6258,-0.0317 -1.50345,-0.26608 0.78905,-1.51142 2.47765,-1.34592 2.99269,-1.34019 5.9321,0.0659 2.67103,1.27771 3.02485,1.77428 2.07888,2.91767 -1.42238,1.71922 -2.73905,1.70409 -5.06171,-0.0581 z m 31.60346,-2.07957 c -0.84257,-1.32631 -0.4943,-2.40908 1.81796,-5.65186 1.57311,-2.20619 3.75147,-4.23564 4.8408,-4.5099 1.08933,-0.27426 4.21827,0.38611 6.95319,1.46748 2.73493,1.08137 5.14188,1.79631 5.34881,1.58875 0.86038,-0.86308 -10.88146,-4.51097 -12.67842,-3.93886 -1.05943,0.3373 -3.28786,2.51522 -4.95206,4.83982 -2.84418,3.97284 -3.22386,4.19008 -6.32505,3.61917 -1.81457,-0.33405 -3.62126,-0.91869 -4.01487,-1.29918 -0.73986,-0.71521 12.51122,-14.17187 13.9338,-14.14996 2.95228,0.0455 25.2669,6.78983 26.44573,7.99297 1.32298,1.35026 1.21614,1.69808 -1.15684,3.76574 -4.21738,3.67477 -6.83758,3.8432 -14.94922,0.96099 -4.00672,-1.42366 -7.90839,-2.34848 -8.67038,-2.05516 -0.762,0.29331 -2.20051,2.44071 -3.19669,4.77197 -0.99618,2.33126 -1.93348,4.23866 -2.08288,4.23866 -0.14941,0 -0.74065,-0.73828 -1.31388,-1.64063 z"
       style="fill:#fefefe" />
    <path
       sodipodi:nodetypes="csssscssssc"
       inkscape:connector-curvature="0"
       id="path3750"
       d="m 304.2744,124.14034 c -0.31769,-0.51562 -1.39391,-0.9375 -2.39161,-0.9375 -1.51729,0 -1.814,-0.66628 -1.814,-4.07345 0,-5.15177 1.74001,-6.76919 8.21644,-7.6376 3.14143,-0.42123 5.92843,-1.49286 7.64021,-2.93773 1.48214,-1.25104 2.93883,-1.87856 3.23706,-1.39449 0.29824,0.48407 2.22777,1.16578 4.28786,1.51492 4.05864,0.68784 6.07613,3.07874 5.1276,6.07665 -0.49954,1.57884 -8.96189,5.6392 -11.75287,5.6392 -0.51182,0 -3.00543,1.05469 -5.54135,2.34375 -5.08072,2.58264 -6.15213,2.79759 -7.00934,1.40625 z"
       style="fill:#0000fe" />
    <path
       inkscape:connector-curvature="0"
       id="path4268"
       d="m 305.34843,67.649542 c -1.18604,-0.0118 -2.40481,0.42884 -3.29102,1.5 -0.96562,1.16714 -0.98724,1.86491 -0.10547,3.28125 0.87017,1.39771 0.87017,2.19994 0,3.59765 -0.88177,1.41634 -0.86015,2.11411 0.10547,3.28125 0.67453,0.815309 2.17481,1.482429 3.33398,1.482429 3.08095,0 4.8677,-2.472699 3.44141,-4.763679 -0.87016,-1.39771 -0.87016,-2.19994 0,-3.59765 1.57891,-2.53613 -0.87509,-4.75527 -3.48437,-4.78125 z m -8.40039,0.01758 c -1.41168,0 -5.10743,3.21379 -5.10743,4.4414 0,1.1499 0.26168,1.19572 1.40235,0.2461 1.21507,-1.01158 1.40234,-0.5257 1.40234,3.63672 0,3.6437 0.33673,4.800779 1.40039,4.800779 1.11259,0 1.40235,-1.354169 1.40235,-6.562499 0,-3.60938 -0.22491,-6.5625 -0.5,-6.5625 z m 18.7246,0 c -3.83506,0 -5.84004,8.53892 -2.73632,11.65234 0.80774,0.810269 2.03872,1.472659 2.73632,1.472659 2.34878,0 4.20508,-2.897419 4.20508,-6.562499 0,-3.66508 -1.8563,-6.5625 -4.20508,-6.5625 z m 8.68946,0.13476 c -2.03203,-0.0397 -3.12433,1.86992 -2.25196,4.15039 0.33776,0.88294 1.40611,1.3519 2.66993,1.17188 1.54461,-0.22002 2.10742,-0.92635 2.10742,-2.64453 0,-1.71818 -0.56281,-2.42256 -2.10742,-2.64258 -0.14353,-0.0204 -0.2825,-0.03246 -0.41797,-0.03516 z m -18.97071,1.74024 c 0.77103,0 1.40235,0.60855 1.40235,1.35156 0,1.56623 -1.3329,2.62297 -2.20508,1.74805 -1.11697,-1.12046 -0.60496,-3.09961 0.80273,-3.09961 z m 19.16016,0 c 0.51402,0 0.93359,0.42187 0.93359,0.9375 0,0.51562 -0.41957,0.9375 -0.93359,0.9375 -0.51402,0 -0.93555,-0.42188 -0.93555,-0.9375 0,-0.51563 0.42153,-0.9375 0.93555,-0.9375 z m -8.87891,0.46875 c 0.51401,0 1.06886,1.63907 1.23243,3.64062 0.31762,3.88664 -1.20318,6.719429 -2.20313,4.10547 -0.82255,-2.15025 -0.12107,-7.74609 0.9707,-7.74609 z m -10.27148,5.85351 c 0.51492,-0.0387 1.02516,0.42406 1.21484,1.41211 0.19701,1.02619 -0.26203,1.64063 -1.22461,1.64063 -0.89788,0 -1.41262,-0.60572 -1.23632,-1.45508 0.21134,-1.01818 0.73117,-1.55898 1.24609,-1.59766 z"
       style="fill:#000000" />
    <path
       sodipodi:nodetypes="ssssssssscccscssssssssssssscsssssssscccsssssscssssssssssssssssssscssssssssssssssssssssssssssscssssssccssccssscssssssss"
       d="M 65.448973,229.53212 C 64.652038,227.62478 64,225.61261 64,225.06063 c 0,-1.97805 4.709647,-11.58791 6.338309,-12.93307 2.087648,-1.72426 2.082438,-1.60869 -0.358471,7.95141 -1.111089,4.3517 -1.737305,9.03918 -1.391592,10.41661 0.960274,3.82603 -1.446755,3.0873 -3.139273,-0.96346 z M 92.5,231.97108 c 3.593759,-1.60563 37.80213,-7.91994 46,-8.49086 4.4,-0.30643 10.25,-0.1828 13,0.27474 l 5,0.83187 -7.5,2.37039 -7.5,2.37038 7.35028,1.2863 c 4.04266,0.70746 7.86766,1.49822 8.5,1.75725 0.63235,0.25902 -14.15028,0.47603 -32.85028,0.48222 -20.7824,0.007 -33.222494,-0.33611 -32,-0.88229 z m 46.63725,-12.84287 C 136.05609,216.24997 136,216.0314 136,206.90174 c 0,-16.92631 1.89258,-31.88438 4.63738,-36.65174 2.8511,-4.952 5.78823,-5.60475 7.5749,-1.68345 0.98673,2.16566 0.68108,4.0791 -1.95685,12.25 -1.71944,5.3259 -3.84835,14.35055 -4.73091,20.05479 -1.4816,9.57603 -1.47874,10.75041 0.0373,15.31478 0.90307,2.71889 1.43286,5.15253 1.17731,5.40808 -0.25555,0.25555 -1.8764,-0.85415 -3.60188,-2.46599 z M 63,215.821 c 0,-3.88485 2.806663,-8.04413 7.704326,-11.41728 l 5.32938,-3.67049 -2.430357,-4.14709 c -3.259696,-5.56225 -4.352836,-11.3613 -2.290799,-12.15258 2.885751,-1.10737 5.252843,1.40912 8.041662,8.54921 3.380567,8.65512 3.209671,9.05656 -7.236123,16.99786 C 68.20314,212.95693 65,215.75387 65,216.19604 65,216.63822 64.55,217 64,217 c -0.55,0 -1,-0.53055 -1,-1.179 z m 6.304655,-18.22617 0.177973,-6.40517 2.673736,4.57807 2.673737,4.57807 -2.32278,1.8271 C 71.229792,203.17781 69.946523,204 69.655612,204 c -0.290911,0 -0.448842,-2.88233 -0.350957,-6.40517 z m 5.76475,-30.73487 c -4.312724,-4.02143 -5.224328,-5.3908 -4.428557,-6.65236 2.1556,-3.41734 3.820773,-2.58471 9.564644,4.78255 l 2.705492,3.47014 5.663621,-2.7777 c 5.526455,-2.71042 7.313793,-2.92906 5.95364,-0.72829 -0.968298,1.56674 -10.752649,7.03221 -12.528245,6.99819 -0.825,-0.0158 -3.943768,-2.30744 -6.930595,-5.09253 z M 74,156.5322 C 74,153.9317 77.078699,150 79.11501,150 80.433112,150 81,150.71502 81,152.37756 c 0,2.61061 -1.316164,4.01474 -4.75,5.06744 -1.684283,0.51635 -2.25,0.28684 -2.25,-0.9128 z m 144.58799,-0.38983 c -0.70292,-1.13734 0.67025,-5.76555 3.16599,-10.67084 2.54203,-4.99628 4.52459,-17.0825 3.20621,-19.54591 -2.08185,-3.88999 2.21954,-6.82384 5.03352,-3.4332 2.11125,2.5439 -0.51895,16.7618 -4.53372,24.50758 -1.85298,3.575 -3.6004,7.2875 -3.88314,8.25 -0.54524,1.85607 -2.10538,2.32188 -2.98886,0.89237 z M 165,154.26833 c 0,-0.52276 2.1984,-2.14699 4.88533,-3.6094 C 174.14415,148.34099 175.92114,148 183.74185,148 l 8.97119,0 0.68218,-9.03669 C 194.29285,127.0726 195.11588,125 198.94007,125 c 5.07813,0 5.61167,2.60475 3.04739,14.87756 -1.2207,5.84234 -2.58607,11.29744 -3.03417,12.12244 -0.6546,1.20521 -3.33405,1.51777 -13.634,1.59042 -7.05061,0.0497 -14.50679,0.43646 -16.56929,0.8594 -2.24245,0.45985 -3.75,0.38689 -3.75,-0.18149 z m -15.33333,-11.935 C 149.3,141.96667 149,141.08086 149,140.36488 c 0,-1.389 8.06132,-7.87471 16.09021,-12.94534 2.6827,-1.69426 5.70781,-3.83176 6.72246,-4.75 2.37773,-2.15182 3.18733,-2.10865 3.18733,0.16994 0,1.01172 -1.03906,2.31292 -2.30903,2.89155 -1.26996,0.57864 -6.4481,4.70087 -11.50696,9.16052 -9.0966,8.01911 -10.21644,8.74268 -11.51734,7.44178 z M 231,132.58179 c 0,-1.33002 0.27755,-3.1415 0.61678,-4.02553 0.95178,-2.48028 3.38322,0.0827 3.38322,3.56618 0,2.21089 -0.46336,2.87756 -2,2.87756 -1.44863,0 -2,-0.66667 -2,-2.41821 z m -78,-0.9268 c 0,-1.28976 0.86419,-3.12709 1.92042,-4.08297 1.83488,-1.66054 1.97442,-1.63703 3.13312,0.52801 1.04962,1.96124 0.91095,2.51031 -1.0312,4.08297 C 154.02793,134.60772 153,134.47279 153,131.65499 Z m 110.01618,-12.91728 c -1.35013,-1.06899 -1.44121,-2.37446 -0.62892,-9.01511 l 0.94983,-7.76511 -6.2334,-7.013696 c -4.19855,-4.724117 -5.90356,-7.343545 -5.22297,-8.024134 0.68059,-0.680588 3.21295,1.149128 7.75741,5.604994 6.53541,6.408 6.77609,6.82114 7.67608,13.176246 0.51102,3.60846 1.19748,7.63002 1.52546,8.93681 1.04809,4.17593 -2.53843,6.701 -5.82349,4.1 z m -6.52359,-1.77009 c -2.11938,-0.85281 -4.15309,-5.44008 -2.94664,-6.64652 0.3154,-0.31541 2.16945,-0.27406 4.12009,0.0919 3.59548,0.67452 4.37258,2.25876 2.93964,5.99294 -0.6823,1.77805 -0.98684,1.81964 -4.11309,0.5617 z m 17.2555,-17.922596 c -0.3594,-0.58152 -2.10172,-1.05731 -3.87182,-1.05731 -2.37655,0 -4.51903,-1.144553 -8.19098,-4.37576 l -4.97262,-4.375754 0,-16.124197 c 0,-8.868308 0.24349,-16.124217 0.54109,-16.124243 0.2976,-2.5e-5 1.7601,2.407415 3.25,5.349867 2.41026,4.760107 2.70891,6.457124 2.70891,15.393011 0,11.224484 -0.32074,10.747679 7.96957,11.847427 6.41308,0.850729 8.15134,2.192759 8.36072,6.454939 0.14966,3.04665 -0.14396,3.49101 -2.48585,3.76202 -1.46056,0.16902 -2.94962,-0.16848 -3.30902,-0.75 z"
       id="path2997"
       style="fill:#fefefe"
       inkscape:connector-curvature="0" />
    <path
       sodipodi:nodetypes="ssssssssssss"
       d="m 278.21267,60.807646 c -4.3542,-1.243675 -4.55522,-1.446002 -3.13587,-3.156225 0.93172,-1.122648 0.06,-1.871287 -4.60749,-3.956786 -9.1002,-4.066118 -14.50804,-5.054307 -24.09921,-4.403704 -9.21569,0.625133 -20.09306,3.813084 -27.90186,8.177506 -5.09217,2.846066 -5.25557,2.893751 -5.25557,1.533672 0,-1.302235 10.08413,-6.347731 18.05059,-9.031439 8.13931,-2.741934 21.8543,-3.678067 29.04095,-1.982223 2.97465,0.701934 8.39915,2.771005 12.05443,4.597937 5.92899,2.963344 6.59067,3.110226 6.13337,1.361512 -0.90334,-3.454359 1.61104,-2.095371 3.70034,1.99998 3.23607,6.343227 2.85277,6.811296 -3.97968,4.85977 z"
       id="path2993"
       style="fill:#fe0000"
       inkscape:connector-curvature="0" />
    <path
       sodipodi:nodetypes="ssssssssscssscsssssscsssssssssssssscssss"
       d="m 68.468615,188.5 c -0.257738,-0.825 -0.702225,-2.23424 -0.987749,-3.13165 -0.592036,-1.86078 1.439374,-18.15974 2.522947,-20.24278 0.542661,-1.04321 1.690447,-0.49314 4.762727,2.28248 3.971557,3.58806 4.01994,3.71268 2.569873,6.61941 -0.81284,1.62938 -1.558558,4.51806 -1.657152,6.41929 -0.153543,2.96084 -0.47684,3.38274 -2.253464,2.94073 -2.576884,-0.64112 -4.848436,1.88834 -4.137441,4.60719 0.604533,2.31174 -0.116534,2.75624 -0.819741,0.50533 z m 70.563065,-18.78984 c -0.0174,-0.43441 0.80904,-2.45941 1.83659,-4.5 1.02755,-2.04059 2.40305,-7.42865 3.05666,-11.97347 0.65362,-4.54482 1.66802,-9.63917 2.25423,-11.32078 l 1.06584,-3.05747 1.18599,2.32078 c 1.19285,2.33419 2.58615,2.65142 5.81901,1.32488 2.4483,-1.00461 2.26683,0.59174 -1.25,10.9959 -1.65,4.88135 -3,10.21051 -3,11.84258 0,2.81142 -0.0961,2.88041 -1.82874,1.31241 -2.623,-2.37378 -4.70978,-2.04994 -7.05617,1.09501 -1.12845,1.5125 -2.06599,2.39457 -2.08341,1.96016 z m 64.80197,-42.67729 c -1.07991,-1.88163 -2.64058,-3.00932 -4.49406,-3.24724 -2.48758,-0.31933 -2.15778,-0.58028 2.66041,-2.10508 7.19734,-2.27771 18.10837,-3.80888 21.83326,-3.0639 2.94499,0.589 2.94946,0.60063 0.98525,2.56484 -1.24075,1.24075 -1.71675,2.59402 -1.28238,3.64583 2.10076,5.08691 1.96892,5.36297 -2.15102,4.50377 -4.80344,-1.00175 -10.08763,-1.04918 -13.39106,-0.1202 -2.07912,0.58468 -2.78774,0.21371 -4.1604,-2.17802 z m 65.46188,-15.09438 c -0.59557,-2.77707 -1.08286,-5.84863 -1.08286,-6.82569 0,-2.31917 4.55168,-6.659496 5.45352,-5.200296 0.98523,1.594126 5.11285,1.302626 6.57958,-0.46467 0.98846,-1.19102 1.02647,-2.38039 0.16776,-5.25 l -1.11023,-3.71012 1.95469,2.36078 c 2.50891,3.030141 2.46723,6.01966 -0.1736,12.453836 -1.99761,4.86702 -7.70078,11.68538 -9.77417,11.68538 -0.5125,0 -1.41911,-2.27215 -2.01469,-5.04922 z"
       id="path2991"
       style="fill:#0000fe"
       inkscape:connector-curvature="0" />
    <path
       sodipodi:nodetypes="sssssssssssssssssscccssssssssssssscccsssccssssccccsssssssssscccsssscscsscsscssssssscccccsssssssssssssssssssssssssssscccsccccsssssssccccscccsscsssssssscccssssssssssssssssscscssscsssssccsscccsssssscssssssssssscssssccsscssssccssccccssssssssssscccsscsccsscsssscscscssscsssssssscccsscsscccsccccccsscccccsscccsscsscscccccccsssssccc"
       inkscape:connector-curvature="0"
       id="path2989"
       d="m 257.08376,56.388105 c -0.98824,0.173049 -1.25963,2.99101 -1.02539,8.646484 0.46817,11.303533 -0.60539,20.981748 -2.25781,20.347656 -0.69661,-0.267314 -1.84894,0.216781 -2.56055,1.074219 -1.10471,1.331096 -0.3972,2.566368 4.83985,8.45898 6.01615,6.769246 6.69996,8.354526 5.51758,12.763676 -0.53265,1.98626 -1.04681,2.13507 -5.50196,1.60742 -7.30514,-0.86518 -8.90335,0.96145 -8.76562,10.00976 0.0903,5.93354 0.46599,7.36638 2.44922,9.34961 1.28825,1.28825 2.81367,2.3418 3.38867,2.3418 1.92827,0 1.0696,-2.5157 -1.19922,-3.51367 -1.23429,-0.54292 -2.37495,-1.68472 -2.53516,-2.53906 -0.22967,-1.22475 0.45279,-1.46663 3.22852,-1.14258 2.36021,0.27554 4.68084,-0.27269 7.03906,-1.66407 1.9346,-1.14144 4.20662,-1.81026 5.05078,-1.48632 0.84416,0.32393 2.30603,-0.0874 3.24805,-0.91407 0.94201,-0.82665 2.63988,-1.78478 3.77344,-2.1289 4.90939,-1.49041 12.43945,-13.59084 12.43945,-19.990236 0,-4.65309 -3.74144,-7.40752 -12,-8.833981 l -7.5,-1.296875 -0.56055,-10.99414 c -0.49309,-9.664368 -0.90002,-11.577406 -3.36133,-15.792969 -1.73581,-2.973025 -2.93839,-4.437328 -3.70703,-4.302734 z m 0.16993,0.599609 c 0.2976,-2.5e-5 1.7601,2.407157 3.25,5.349609 2.41491,4.769277 2.70898,6.448974 2.70898,15.480469 0,11.400728 -1.02509,10.085383 9.5,12.207032 2.75,0.55434 5.62509,1.14567 6.38867,1.31445 2.03658,0.45017 4.11133,3.68209 4.11133,6.4043 0,4.007116 -4.07541,12.569066 -7.61328,15.994136 -1.84637,1.7875 -3.77656,3.25 -4.28906,3.25 -0.91348,0 -3.09766,-8.37302 -3.09766,-11.875 0,-2.31917 4.55129,-6.660366 5.45312,-5.201166 0.98027,1.586106 5.10931,1.307616 6.5625,-0.44336 0.94111,-1.13396 0.99926,-2.34009 0.22657,-4.75 l -1.03516,-3.23047 0.14649,4 c 0.12822,3.49556 -0.15159,4.04132 -2.21875,4.33398 -1.30093,0.184186 -2.85265,-0.15343 -3.44922,-0.75 -0.59656,-0.59656 -2.46955,-1.08398 -4.16211,-1.08398 -2.21006,0 -4.47964,-1.2325 -8.05078,-4.375 l -4.97266,-4.376953 0,-16.123047 c 0,-8.868308 0.24342,-16.124974 0.54102,-16.125 z M 358.5,92 c -1.97596,-1.99e-4 -1.99613,0.565106 -1.69531,47.01367 l 0.30469,47.01367 -34.25391,-0.26367 -34.25391,-0.26367 -3.71679,-17.37891 c -2.26505,-10.59264 -3.50325,-18.69597 -3.16993,-20.75 C 282.22525,144.22577 282.07746,144 279.5,144 c -3.26935,0 -3.56674,-2.82956 2.99609,28.5 2.53467,12.1 6.18198,29.875 8.10547,39.5 1.92348,9.625 3.7308,18.2875 4.01563,19.25 0.48964,1.6546 -3.19213,1.75 -67.54883,1.75 C 185.87519,233 159,232.6339 159,232.07227 c 0,-0.51043 -2.4814,-1.23833 -5.51367,-1.61719 -3.03226,-0.37886 -5.71502,-1.0169 -5.96289,-1.41797 -0.24787,-0.40107 2.34407,-1.51962 5.76172,-2.48633 7.0108,-1.98307 6.34292,-2.76925 -3.36914,-3.96484 l -5.58399,-0.6875 -1.69726,-5.38477 c -1.57675,-5.00201 -1.58439,-6.11865 -0.10938,-15.69922 0.87336,-5.67267 2.89031,-14.36445 4.48047,-19.31445 1.59015,-4.95 3.1745,-11.25 3.52148,-14 0.34698,-2.75 1.97932,-9.1518 3.62696,-14.22656 1.64763,-5.07475 2.74044,-10.02867 2.42968,-11.00782 -0.40985,-1.29131 1.19204,-3.3518 5.83204,-7.50195 3.51826,-3.14683 8.01383,-6.67571 9.99023,-7.84179 3.52628,-2.08058 4.70851,-5.11394 2.51953,-6.4668 -0.59071,-0.36508 -2.05321,0.22149 -3.25,1.30469 -2.49915,2.26196 -11.63813,7.66725 -12.02344,7.11132 -0.14162,-0.20432 -1.03853,-1.61872 -1.99218,-3.14257 -1.639,-2.61896 -2.08791,-2.75582 -8.19727,-2.5 -3.55474,0.14885 -6.46274,0.576 -6.46289,0.94921 -1.4e-4,0.37322 -0.72866,1.40835 -1.61914,2.29883 -2.19058,2.19059 -0.86973,3.27515 1.44141,1.1836 2.54493,-2.30314 2.89657,-2.10548 2.39062,1.34179 -0.25452,1.73418 0.21997,4.00845 1.12305,5.38672 1.43314,2.18726 1.40897,2.68878 -0.28516,6.01172 -1.01635,1.99352 -2.39981,7.55558 -3.07422,12.36133 -0.67441,4.80576 -2.01544,10.31328 -2.98047,12.23828 -2.32797,4.64374 -3.9703,17.12103 -4.69726,35.67969 l -0.59571,15.17773 3.0293,3.02735 3.02735,3.02929 -4.63086,0.57032 c -10.30809,1.2717 -45.652143,8.59179 -45.962894,9.51953 C 89.97512,232.57383 85.642454,233 80.025391,233 c -9.607188,0 -9.821932,-0.0512 -10.431641,-2.48047 -0.342359,-1.36407 0.340765,-6.42657 1.517578,-11.25 1.89281,-7.75812 2.589174,-9.15659 6.03125,-12.11719 6.335693,-5.44944 6.417778,-6.01948 2.369141,-16.25781 -3.449683,-8.72368 -3.532013,-9.23127 -2.251953,-13.72656 1.119514,-3.93148 1.676086,-4.61887 3.533203,-4.35547 2.453435,0.34798 11.226331,-4.07078 13.861328,-6.98242 1.170417,-1.29329 1.377253,-2.19892 0.664062,-2.91211 -0.713191,-0.71319 -2.78655,-0.17707 -6.667968,1.72656 -5.544005,2.71903 -5.655362,2.73178 -7.15625,0.80859 C 76.734056,159.35375 75.936202,158 77.103516,158 79.692799,158 82,154.68537 82,150.9668 c 0,-4.59363 -1.68632,-6.09597 -6.658203,-5.9336 -2.113194,0.069 -4.773687,-0.16645 -5.912109,-0.52343 -2.252129,-0.70621 -3.761,0.60644 -4.875,4.24023 -0.411152,1.34114 -0.2655,2.25 0.359374,2.25 0.576586,0 1.334432,-1.14402 1.685547,-2.54297 0.957091,-3.81336 2.595285,-2.45545 2.828125,2.3457 0.112806,2.32604 0.731429,4.75682 1.375,5.40039 0.893506,0.89351 0.848478,1.53843 -0.191406,2.73243 -0.749005,0.86001 -2.087031,6.62718 -2.972656,12.81445 -1.397837,9.76576 -1.429655,12.07401 -0.244141,17.5 1.843202,8.43617 1.390091,15.51122 -1.103515,17.25781 -1.058304,0.74126 -2.54609,3.23261 -3.306641,5.53711 -1.258963,3.81469 -1.221595,4.30826 0.408203,5.5 1.559936,1.14065 1.634095,1.7366 0.583984,4.64063 -0.991227,2.7412 -0.92791,3.99324 0.34961,7.05078 l 1.552734,3.71679 -17.189453,0.29883 C 39.235384,233.41616 134.775,233.5555 261,233.5625 c 45.63475,0.002 325.03333,-0.0184 359.7832,-0.0488 l 0,-0.51367 -260.85937,0 0.28711,-70.5 C 360.49684,92.570359 360.48381,92.0002 358.5,92 Z M 252.22244,86.782636 c 1.00278,-0.0448 3.43961,1.843304 7.41601,5.742188 6.53541,6.408 6.77579,6.82067 7.67578,13.175776 0.51102,3.60846 1.19741,7.63071 1.52539,8.9375 0.32799,1.30678 0.0401,3.04542 -0.63867,3.86328 -1.50659,1.81532 -3.10014,1.88749 -5.18555,0.23633 -1.35013,-1.06899 -1.44119,-2.37498 -0.6289,-9.01562 l 0.95117,-7.76368 -6.23438,-7.013666 c -4.19854,-4.72411 -5.90324,-7.3448 -5.22265,-8.025389 0.0851,-0.08507 0.19854,-0.130319 0.3418,-0.136719 z m 16.2832,12.259768 c 0.16552,-0.01192 0.3469,-0.01036 0.54492,0.0039 0.22631,0.0163 0.47333,0.05143 0.74023,0.10352 1.56224,0.30488 1.57754,0.46678 0.16602,1.636716 -1.12456,0.93209 -1.76118,0.98399 -2.25586,0.18359 -0.70051,-1.133446 -0.35398,-1.844316 0.80469,-1.927726 z m -31.49197,13.977126 c -0.16817,-0.019 -0.34163,0.0402 -0.49805,0.18555 -0.41712,0.38765 0.46087,2.7851 1.95118,5.32812 2.60203,4.44004 2.78413,7.11812 0.3164,4.65039 C 238.13237,122.53276 235.95983,122 233.95508,122 c -2.30105,0 -4.27452,-0.69466 -5.35156,-1.88477 -0.93836,-1.03688 -3.0605,-2.15702 -4.7168,-2.48828 -3.84365,-0.76873 -15.20473,0.83336 -22.07227,3.11133 -6.7778,2.2482 -8.43479,5.31808 -9.3789,17.38672 l -0.69336,8.875 -8.6211,0.01 c -7.77052,0.008 -9.14548,0.30971 -13.93554,3.05664 -6.13523,3.51834 -6.37937,5.61112 -0.5918,5.0664 2.14865,-0.20223 9.68018,-0.4272 16.73633,-0.5 14.87653,-0.15342 14.72742,-0.0654 16.60742,-9.90039 2.5128,-13.14543 2.71767,-13.56225 7.25195,-14.7832 3.75077,-1.00998 8.15785,-0.77432 13.17578,0.70703 1.62287,0.47909 1.77722,1.20521 1.19532,5.5918 -0.3678,2.77264 -1.60424,6.87709 -2.74805,9.11914 -3.10518,6.08666 -3.95951,9.75109 -2.64258,11.33789 1.32038,1.59097 2.91614,1.27441 3.83985,-0.76367 0.35907,-0.79226 2.30454,-4.65543 4.32226,-8.58399 2.01772,-3.92855 3.66797,-8.09105 3.66797,-9.25 0,-1.85995 0.58251,-2.10742 4.96484,-2.10742 5.71086,0 7.55442,-2.00172 6.76954,-7.34961 -0.25191,-1.71638 -0.0191,-3.82152 0.51562,-4.67773 0.71003,-1.13695 0.28752,-2.56495 -1.56641,-5.29688 -1.39616,-2.05735 -2.73511,-4.28958 -2.97461,-4.95898 -0.14969,-0.41837 -0.41503,-0.66554 -0.69531,-0.69727 z m -14.89258,5.42188 c 0.66889,0.025 1.24728,0.0827 1.71289,0.17578 2.94499,0.589 2.94859,0.60024 0.98438,2.56445 -1.24078,1.24075 -1.71757,2.59468 -1.2832,3.64648 2.10076,5.08691 1.96955,5.36311 -2.15039,4.50391 -2.13681,-0.44563 -5.45977,-0.81436 -7.38477,-0.81836 -1.925,-0.004 -4.62759,0.30967 -6.00586,0.69727 -2.07912,0.58468 -2.7875,0.21399 -4.16016,-2.17774 -1.07991,-1.88163 -2.64066,-3.01012 -4.49414,-3.24804 -2.48758,-0.31933 -2.15803,-0.58067 2.66016,-2.10547 6.29767,-1.993 15.43887,-3.41315 20.12109,-3.23828 z m 32.87088,-8.33065 c 0.74676,0.0166 1.69851,0.11976 2.67382,0.30273 3.59549,0.67452 4.3724,2.25801 2.93946,5.99219 -0.6823,1.77805 -0.98703,1.82044 -4.11328,0.5625 -2.11938,-0.85281 -4.15177,-5.44005 -2.94532,-6.64649 0.1577,-0.15769 0.69855,-0.22759 1.44532,-0.21093 z m -27.83181,10.89119 c 0.92968,-0.0118 1.95461,0.43066 2.83398,1.49024 2.11125,2.5439 -0.51843,16.76203 -4.5332,24.50781 -1.85298,3.575 -3.60203,7.2875 -3.88477,8.25 -0.54524,1.85607 -2.1048,2.32209 -2.98828,0.89258 -0.70292,-1.13734 0.67028,-5.76659 3.16602,-10.67188 2.54203,-4.99628 4.52541,-17.08151 3.20703,-19.54492 -1.43127,-2.67437 0.15391,-4.89776 2.19922,-4.92383 z m -52.86133,0.0918 c 0.49961,0.0266 0.70117,0.6068 0.70117,1.74609 0,1.01172 -1.03862,2.312 -2.30859,2.89063 -1.26996,0.57864 -6.44896,4.70051 -11.50782,9.16015 C 156.12472,139.35028 151.61466,143 151.16016,143 149.94494,143 149,141.84796 149,140.36523 c 0,-1.389 8.06095,-7.87468 16.08984,-12.94531 2.6827,-1.69426 5.70801,-3.83176 6.72266,-4.75 1.18887,-1.07591 1.98671,-1.60281 2.48633,-1.57617 z M 198.93945,125 c 5.07813,0 5.61311,2.60414 3.04883,14.87695 -1.2207,5.84234 -2.58705,11.29805 -3.03516,12.12305 -0.65459,1.20521 -3.33481,1.51724 -13.63476,1.58984 -7.05061,0.0497 -14.50586,0.43644 -16.56836,0.85938 -5.24017,1.07457 -4.7414,-0.59281 1.13477,-3.79102 4.25882,-2.31794 6.03671,-2.6582 13.85742,-2.6582 l 8.9707,0 0.68164,-9.03711 C 194.29216,127.07218 195.11526,125 198.93945,125 Z m -42.19922,1.40234 c 0.40909,0.0689 0.73315,0.61475 1.3125,1.69727 1.04962,1.96124 0.9109,2.51132 -1.03125,4.08398 -1.23415,0.99935 -2.64375,1.81641 -3.13281,1.81641 -1.65329,0 -0.90283,-4.67741 1.03125,-6.42773 0.91744,-0.83027 1.41123,-1.23887 1.82031,-1.16993 z m 76.01368,1.17188 C 233.79849,127.68021 235,129.6737 235,132.12305 235,134.33394 234.53664,135 233,135 c -2.06577,0 -2.70753,-2.99118 -1.38281,-6.44336 0.23794,-0.62007 0.56789,-0.92442 0.92969,-0.97852 0.0678,-0.0101 0.13739,-0.011 0.20703,-0.004 z m -85.50977,11.28516 1.1875,2.32031 c 1.19285,2.33419 2.5855,2.65076 5.81836,1.32422 2.4483,-1.00461 2.26683,0.59193 -1.25,10.99609 -1.65,4.88135 -3,10.20973 -3,11.8418 0,2.86583 -0.0661,2.90761 -1.92578,1.22461 -2.47744,-2.24205 -4.95831,-1.71734 -6.78516,1.43359 -1.44391,2.49045 -1.44152,2.4914 0.25391,0.25 2.26922,-2.99995 5.22269,-2.85991 6.66992,0.31641 0.98673,2.16566 0.6809,4.0791 -1.95703,12.25 -1.71944,5.3259 -3.84791,14.35044 -4.73047,20.05468 -1.4816,9.57603 -1.47893,10.75009 0.0371,15.31446 0.90307,2.71889 1.43133,5.15265 1.17578,5.4082 -0.25555,0.25555 -1.94525,-0.91801 -3.75586,-2.60937 l -3.29101,-3.07618 0.70312,-16.20312 c 0.38766,-8.91232 1.13908,-18.68008 1.66992,-21.70508 0.53084,-3.025 1.11012,-6.625 1.28516,-8 0.17504,-1.375 1.00856,-3.85 1.85351,-5.5 0.84499,-1.65 2.0699,-6.71885 2.72266,-11.26367 0.65276,-4.54482 1.6677,-9.6387 2.25391,-11.32031 z m -68.138671,11.13867 c 1.0802,-0.0175 1.894531,0.77199 1.894531,2.3789 0,1.30765 -0.5625,2.82888 -1.25,3.37891 -0.6875,0.55003 -2.2625,1.31007 -3.5,1.68945 -2.763871,0.84731 -3.03885,-1.31138 -0.634766,-4.98047 1.064189,-1.62418 2.410034,-2.44928 3.490235,-2.46679 z m -6.00586,8.27929 c 1.518946,0.0571 3.51555,2.10836 7.105469,6.71289 l 2.705078,3.47071 5.664063,-2.7793 c 8.852917,-4.34187 8.933964,-1.73442 0.103515,3.33008 -2.84796,1.63338 -5.852734,2.95722 -6.677734,2.9414 -0.825,-0.0158 -3.942859,-2.30866 -6.929688,-5.09374 -4.312724,-4.02144 -5.225458,-5.39079 -4.429687,-6.65235 0.80835,-1.2815 1.547617,-1.96397 2.458984,-1.92969 z m -2.267578,6.36328 c 0.731265,0.0832 1.91741,0.94609 3.933594,2.76758 3.971557,3.58806 4.02038,3.71241 2.570313,6.61914 -0.81284,1.62938 -1.55766,4.5187 -1.65625,6.41993 -0.153544,2.96083 -0.477283,3.38146 -2.253907,2.93945 -2.576884,-0.64112 -4.847712,1.88857 -4.136719,4.60742 0.604535,2.31174 -0.117105,2.75677 -0.820312,0.50586 -0.257738,-0.825 -0.702757,-2.23345 -0.988281,-3.13086 -0.592036,-1.86078 1.439864,-18.1611 2.523437,-20.24414 0.135665,-0.2608 0.309095,-0.42089 0.541016,-0.47266 0.08697,-0.0194 0.182643,-0.0236 0.287109,-0.0117 z m 1.541016,19.54883 c 2.424432,-0.16256 4.540252,2.54539 6.980469,8.79297 3.381505,8.65752 3.212941,9.05581 -7.259766,17.01758 -4.156844,3.16019 -6.937421,5.96685 -6.650391,6.71484 0.581502,1.51537 0.500676,1.53507 -1.378906,0.34571 -1.221456,-0.77291 -1.237849,-1.50463 -0.113281,-4.91211 0.999257,-3.02778 2.632363,-4.90669 6.701172,-7.70899 l 5.380859,-3.70703 -2.429687,-4.14648 c -3.259696,-5.56225 -4.353053,-11.36107 -2.291016,-12.15235 0.360719,-0.13842 0.714199,-0.22091 1.060547,-0.24414 z M 288.7832,188 l 34.10742,0 34.10938,0 0,22.5 0,22.5 -29.5,0 c -16.225,0 -29.5,-0.14394 -29.5,-0.32031 0,-0.6393 -7.84915,-39.25229 -8.52344,-41.92969 z m -219.300778,3.18945 2.673828,4.57813 2.673828,4.57812 -2.322266,1.82813 C 71.230283,203.17874 69.947161,204 69.65625,204 c -0.290911,0 -0.449449,-2.88146 -0.351562,-6.4043 z m 2.189453,20.0918 c 0.512965,0.11569 -0.01328,2.22432 -1.691406,8.79687 -1.111089,4.35171 -1.738291,9.04054 -1.392578,10.41797 0.960274,3.82603 -1.446154,3.08592 -3.138672,-0.96484 C 64.652284,227.62391 64,225.61253 64,225.06055 c 0,-1.97805 4.709229,-11.58844 6.337891,-12.9336 0.65239,-0.53883 1.100818,-0.89829 1.333984,-0.8457 z m 73.054685,12.03711 c 2.69901,0.029 5.22656,0.18013 6.77344,0.4375 l 5,0.83008 -7.5,2.37109 -7.5,2.37109 7.34961,1.28516 c 4.04266,0.70746 7.86766,1.49878 8.5,1.75781 0.63235,0.25902 -14.14961,0.47643 -32.84961,0.48243 -20.7824,0.007 -33.222494,-0.33664 -32,-0.88282 3.593759,-1.60563 37.80213,-7.91931 46,-8.49023 1.1,-0.0766 2.28984,-0.12604 3.5,-0.15039 0.90762,-0.0183 1.82689,-0.0214 2.72656,-0.0117 z"
       style="fill:#000000" />
    <path
       style="fill:#fefefe"
       d="m 497.8613,131.01551 c 1.42752,0 2.90793,0.82766 3.51758,1.9668 0.9188,1.71681 0.63718,2.08711 -2.21484,2.91015 -1.7971,0.51861 -3.38008,0.98361 -3.51758,1.03321 -0.1375,0.0496 -0.25,-1.26016 -0.25,-2.91016 0,-2.52191 0.39282,-3 2.46484,-3 z m 7.68164,4.24805 c 2.43913,0.0406 4.08389,1.98772 3.22852,4.21679 -0.52601,1.37076 -1.49197,1.61183 -4.76758,1.18946 -2.2592,-0.29131 -8.83242,0.28902 -14.60742,1.28906 -11.03006,1.91006 -16.72285,2.4455 -15.75977,1.48242 0.51108,-0.51108 24.28201,-6.73939 30.81641,-8.07422 0.37587,-0.0768 0.7414,-0.10932 1.08984,-0.10351 z m 31.08594,7.27343 c 1.82203,-0.0896 4.13388,0.63358 6.51758,2.1211 1.92995,1.20436 2.25,2.2633 2.25,7.44336 l 0,6.03906 -4.4707,-3.21094 c -8.84029,-6.34862 -10.02324,-8.27754 -6.95703,-11.34375 0.64968,-0.64968 1.56694,-0.99507 2.66015,-1.04883 z m -65.79101,0.47852 c 0.85746,0 1.55859,0.45 1.55859,1 0,0.55 -0.42387,1 -0.94141,1 -0.51754,0 -1.21867,-0.45 -1.55859,-1 -0.33992,-0.55 0.0839,-1 0.94141,-1 z m 1.74414,2.51367 c 1.44863,0.13341 4.22835,2.36996 9.7539,7.76758 4.70859,4.59957 9.79805,8.88328 11.31055,9.51953 3.13375,1.31823 3.57197,3.85941 1,5.79883 -2.14144,1.61478 -5.24132,0.89143 -7.25,-1.69141 -0.825,-1.06081 -4.34724,-5.63618 -7.82617,-10.16797 -3.47893,-4.53178 -6.97957,-8.74864 -7.7793,-9.37109 -1.25252,-0.97487 -1.21452,-1.22303 0.26563,-1.79102 0.0789,-0.0303 0.16305,-0.0524 0.2539,-0.0625 0.0852,-0.009 0.17491,-0.0108 0.27149,-0.002 z m -6.18555,3.35156 0,2.51758 c 0,1.75429 -1.13536,3.34397 -3.75,5.25196 -2.0625,1.50507 -6,4.82196 -8.75,7.37109 -2.75,2.54913 -6.125,5.36679 -7.5,6.26172 -3.01552,1.96269 -3.58015,2.02786 -6.06641,0.69726 -3.27137,-1.75079 -2.3871,-4.66683 1.81641,-5.99218 3.85818,-1.21647 12.51209,-6.71344 20,-12.70508 z m 82,0.75 10.84961,10.69141 c 5.9678,5.88082 11.31249,10.69336 11.87695,10.69336 1.00741,0 5.27344,8.84619 5.27344,10.93555 0,2.16943 -1.92145,0.93589 -5.84961,-3.75586 -2.22007,-2.65163 -8.1126,-7.66562 -13.09375,-11.14063 l -9.05664,-6.31836 0,-5.55273 z m -57.53906,3.38477 c 3.04614,0 4.60625,4.53437 2.33984,6.80078 -1.54237,1.54237 -1.79236,1.51657 -3.90625,-0.39648 -1.4348,-1.29848 -1.55911,-2.04415 -0.66797,-4 0.60244,-1.3222 1.60766,-2.4043 2.23438,-2.4043 z m -40.96094,4 c 2.27058,0 1.80371,1.61632 -1.13477,3.92773 -2.876,2.26226 -4.36523,2.62786 -4.36523,1.07227 0,-1.53371 3.81292,-5 5.5,-5 z m -31.54883,20.21289 c 1.51969,0.0651 2.22375,0.54079 3.09375,1.32813 1.07547,0.97328 1.95508,2.29179 1.95508,2.92968 0,2.26427 -6.78289,4.33615 -18.06445,5.51953 -6.28948,0.65973 -13.91055,1.55299 -16.93555,1.98438 -3.025,0.43139 -6.04074,0.8379 -6.70117,0.9043 -2.23856,0.22509 -11.29883,-2.03946 -11.29883,-2.82422 0,-0.42896 3.4875,-1.3304 7.75,-2.00196 4.2625,-0.67157 13.825,-2.59754 21.25,-4.28125 11.61838,-2.63461 16.41835,-3.66703 18.95117,-3.55859 z m 81.50195,11.78711 c 2.62239,0 4.8445,2.67454 4.23633,5.09766 -0.49829,1.98536 -2.50198,3.13801 -11.39648,6.55078 -5.93605,2.27763 -11.07962,4.18819 -11.42969,4.24609 -0.35008,0.058 -0.83488,-1.25094 -1.07812,-2.9082 -0.42636,-2.905 -0.10307,-3.19229 9.02929,-8 5.20989,-2.74274 9.99787,-4.98633 10.63867,-4.98633 z m -22.8789,12 c 0.23408,0 0.42578,1.11493 0.42578,2.47656 0,2.09053 -1.12792,3.00961 -7.25,5.91211 -7.46125,3.53741 -10.2269,4.06595 -15.625,2.98633 -4.40392,-0.88078 -3.88028,-2.03379 1.27344,-2.80664 2.41888,-0.36273 8.07718,-2.4405 12.57422,-4.61524 4.49703,-2.17471 8.36747,-3.95312 8.60156,-3.95312 z"
       id="path2997-19"
       inkscape:connector-curvature="0"
       sodipodi:nodetypes="sssssscssssccsssccssssssscsssssscccccsssssscccssssscccssssssssscsssscssscssscssssssssss" />
    <path
       style="fill:#fe0000"
       d="m 446.89646,227.28319 c 7.51067,-1.08317 26.5,-9.16766 26.5,-11.28208 0,-1.36007 -0.1634,-1.31239 -5.25557,1.53368 -12.0808,6.75209 -30.88096,10.1829 -41.40186,7.55536 -7.73282,-1.93122 -16.60241,-6.2148 -15.38636,-7.43085 0.57409,-0.57409 1.04379,-1.35037 1.04379,-1.72508 0,-0.90653 -9.08438,-3.16766 -9.81025,-2.4418 -0.80935,0.80935 3.58019,9.52309 4.79725,9.52309 0.55715,0 1.013,-0.675 1.013,-1.5 0,-1.97703 0.1995,-1.9405 6.28324,1.15052 9.43374,4.79307 20.24922,6.34309 32.21676,4.61716 z"
       id="path8179"
       inkscape:connector-curvature="0" />
    <path
       style="fill:#0000fe"
       d="m 510.1113,134.0409 c 2.51949,0.0356 28.38668,6.73362 29.15235,7.54883 0.34767,0.37052 -0.35704,0.3695 -1.56641,-0.002 -2.85585,-0.87719 -6.71366,2.74358 -5.9668,5.59961 0.37841,1.447 0.12345,1.83365 -0.93945,1.42578 -2.58773,-0.99301 -12.76407,-3.40864 -17.39453,-4.12891 -5.96729,-0.92821 -6.24059,-1.17342 -4.41797,-3.95508 1.20981,-1.84641 1.31108,-2.84417 0.45313,-4.44726 -0.92709,-1.73228 -0.81638,-2.06212 0.67968,-2.04102 z m -12.01367,30.87695 c 1.56538,0.1948 5.35992,6.81678 7.32813,13.69922 1.08415,3.79109 1.9707,7.00528 1.9707,7.14453 0,0.13925 -2.19696,0.25391 -4.88281,0.25391 -3.76015,0 -5.01989,-0.40251 -5.47266,-1.75 -0.32341,-0.9625 -2.17449,-3.93681 -4.11523,-6.60938 -3.76189,-5.18043 -4.60246,-8.26741 -1.97657,-7.25976 1.89966,0.72897 6.44727,-2.08955 6.44727,-3.99609 0,-1.0886 0.26287,-1.53697 0.70117,-1.48243 z m -61.6289,2.60938 c 0.53513,-0.0616 0.73733,0.44213 1.11132,1.45312 1.24862,3.37534 5.08872,4.55768 8.19336,2.52344 3.05621,-2.0025 3.27385,-1.39743 0.92774,2.57422 -1.58975,2.69123 -7.9109,5.81237 -19.80469,9.7793 -4.1535,1.38531 -6.57037,1.42961 -4.25,0.0781 2.28681,-1.33194 2.21012,-2.80093 -0.28516,-5.45703 l -2.03515,-2.16601 4.78515,-2.1543 c 2.63191,-1.1845 6.34397,-3.29576 8.24805,-4.69141 1.70624,-1.25064 2.57424,-1.8778 3.10938,-1.93945 z m 67.70507,20.48828 c 2.59003,0 3.22266,0.40611 3.22266,2.06641 0,1.13616 -0.46581,2.93616 -1.03516,4 -1.38247,2.58316 -1.78342,2.43709 -1.23242,-0.44532 0.32164,-1.68256 -0.2228,-2.85233 -1.86133,-4 l -2.3164,-1.62109 z"
       id="path2991-58"
       inkscape:connector-curvature="0"
       sodipodi:nodetypes="cccsssssccssssssssscssssscccsccssssccs" />
    <path
       sodipodi:nodetypes="scccsscssscsccssscsssssscsssssscssssssssssssssssssssssscssccsssccsssccsssscccccccsssscccssccsssssssscccccccssccssccsscscssscscssssssccscccssssccsscscsccscssssscssssssscssccssssssccccccccsssssssscssssccccscssccsscssssscccscsccccssssssssssssssssss"
       inkscape:connector-curvature="0"
       id="path2989-5"
       d="m 546.89742,84.01262 c 1.96522,1e-5 1.99542,0.56219 1.68359,32.25195 l -0.31836,32.25 11.31836,10.82422 c 6.22454,5.95328 12.04274,11.40462 12.93164,12.11523 0.8889,0.71062 2.42124,3.39853 3.4043,5.97266 1.41591,3.7075 1.5307,4.93131 0.55273,5.88476 -0.96941,0.94507 -2.3435,-0.0129 -6.40234,-4.45898 -4.2107,-4.61241 -13.64484,-12.09635 -20.41992,-16.19922 -0.99076,-0.59999 -1.25,6.61847 -1.25,34.80274 l 0,35.55859 32.56836,0 c 9.8284,0 16.46769,0.13844 21.25195,0.0685 l 0,0.40411 c -111.88045,-0.039 -193.60228,-0.11421 -172.00586,-0.22266 50.12823,-0.25175 53.28412,-0.37262 52.8086,-2.00977 -0.27816,-0.95766 -1.48925,-6.69023 -2.69141,-12.74023 -1.20216,-6.05 -2.31093,-11.14636 -2.46484,-11.32422 -0.1539,-0.17786 -3.75989,1.28464 -8.01368,3.25 -7.53506,3.48142 -11.34023,4.1019 -16.45312,2.67969 -4.35477,-1.21134 -2.90396,-3.35538 3.21094,-4.74414 3.14139,-0.71345 8.92901,-2.91816 12.86132,-4.89844 6.64052,-3.34412 7.11037,-3.7908 6.58594,-6.28125 -0.31055,-1.47476 -2.37144,-11.40427 -4.58008,-22.06641 -2.20861,-10.66215 -4.23118,-19.60228 -4.49414,-19.86523 -0.26296,-0.26296 -1.94403,0.66915 -3.73437,2.07031 -2.67149,2.09075 -3.27187,3.27459 -3.35547,6.60742 -0.0785,3.12962 0.32259,4.19736 1.75,4.65039 1.01872,0.32333 2.50608,0.0456 3.30469,-0.61718 1.1698,-0.97085 1.45117,-0.88514 1.45117,0.44726 0,2.30672 -2.19768,2.90653 -6.40039,1.7461 -2.15602,-0.59531 -3.80928,-0.62413 -4.15039,-0.0723 -0.31178,0.50447 -1.85309,0.91797 -3.42578,0.91797 -2.17223,0 -3.3635,0.81613 -4.95704,3.39453 -1.65422,2.67661 -3.73301,4.0346 -9.83203,6.42383 -11.26839,4.41427 -13.35676,4.90567 -28.23437,6.65625 -7.425,0.87367 -17.1,2.02187 -21.5,2.55078 -9.14884,1.09975 -18,-0.38806 -18,-3.02539 0,-1.11742 2.55055,-1.94301 10,-3.23828 5.5,-0.9563 15.175,-2.92747 21.5,-4.38086 6.325,-1.45338 13.3,-2.97644 15.5,-3.38281 5.20965,-0.9623 11.3039,-3.65639 14.66016,-6.48047 1.4728,-1.2393 4.73856,-3.09945 7.25585,-4.13477 2.51728,-1.03532 4.57808,-2.46523 4.58008,-3.17773 0.002,-0.7125 1.14243,-2.43344 2.53321,-3.82422 1.91289,-1.91289 3.37078,-2.45581 5.98632,-2.23047 5.01808,0.43236 13.48438,-5.93145 13.48438,-10.13477 0,-3.28605 2.87451,-5.50744 5.88867,-4.55078 1.63089,0.51762 8.96889,-0.83155 19.36133,-3.55859 3.60598,-0.94623 3.75,-1.1499 3.75,-5.32227 0,-5.49254 1.63042,-6.89464 7.47656,-6.42968 2.48816,0.19789 4.52344,-0.0363 4.52344,-0.52149 0,-0.48522 1.38701,-0.60462 3.08203,-0.26562 1.69503,0.33901 3.98386,0.13279 5.08594,-0.45703 1.10208,-0.58981 2.27283,-0.80334 2.60156,-0.47461 1.21158,1.21158 -1.79653,2.88825 -5.4082,3.01367 -2.046,0.0711 -3.87105,0.57994 -4.05469,1.13086 -0.84369,2.53107 3.03434,4.3657 15.69336,7.42578 9.71677,2.34884 14.71287,4.09836 17.82812,6.24609 l 4.32813,2.98438 -0.32813,-30.61914 C 544.90333,84.57 544.93382,84.01253 546.89742,84.01254 Z m -49.03516,47.00195 c -2.07202,0 -2.46484,0.47809 -2.46484,3 0,1.65 0.1125,2.95977 0.25,2.91016 0.1375,-0.0496 1.72048,-0.5146 3.51758,-1.03321 2.85202,-0.82304 3.13364,-1.19334 2.21484,-2.91015 -0.60965,-1.13914 -2.09006,-1.9668 -3.51758,-1.9668 z m 12.25,3.02539 c -1.49606,-0.0211 -1.60679,0.30874 -0.67968,2.04102 0.85793,1.60309 0.75668,2.60281 -0.45313,4.44921 -1.82262,2.78166 -1.54932,3.02492 4.41797,3.95313 2.475,0.38499 7.07393,1.34584 10.21875,2.13476 3.14481,0.78893 6.37323,1.68618 7.17578,1.99415 1.0629,0.40787 1.31786,0.0212 0.93945,-1.42579 -0.74686,-2.85603 3.11095,-6.47484 5.9668,-5.59765 1.20937,0.37109 1.91408,0.37391 1.56641,0.004 -0.76567,-0.81521 -26.63286,-7.51518 -29.15235,-7.55078 z m -4.56836,1.22266 c -0.34844,-0.006 -0.71397,0.0267 -1.08984,0.10351 -6.5344,1.33483 -30.30533,7.56314 -30.81641,8.07422 -0.96308,0.96308 4.72971,0.42764 15.75977,-1.48242 5.775,-1.00004 12.34822,-1.58037 14.60742,-1.28906 3.27561,0.42237 4.24157,0.1813 4.76758,-1.18946 0.85537,-2.22907 -0.78939,-4.17616 -3.22852,-4.21679 z m -3.72265,6.32031 c -2.66142,-0.076 -6.52145,0.40554 -12.77149,1.4082 -6.94041,1.11342 -12.95111,2.02344 -13.35547,2.02344 -0.40441,0 1.9383,2.70073 5.20508,6.00195 l 5.93945,6.00196 1.4043,-2.75196 c 3.61072,-7.07663 6.30533,-7.81369 11.58985,-3.17383 1.92775,1.6926 3.97934,2.78379 4.55859,2.42579 1.17417,-0.72568 7.00586,1.55534 7.00586,2.74023 0,1.01059 -2.17177,0.93376 -3.86133,-0.13672 -2.00303,-1.2691 -5.13867,-0.13831 -5.13867,1.85352 0,0.95061 -0.87583,2.52042 -1.94531,3.48828 -1.91432,1.73244 -1.89104,1.83789 1.5,6.76758 1.89448,2.7541 3.44531,5.45105 3.44531,5.99218 0,0.54114 0.70628,3.41457 1.57031,6.38672 l 1.57227,5.4043 18.42773,0 18.42969,0 0,-13.37891 0,-13.38086 -5.66406,-4.27539 c -6.00311,-4.53239 -13.02206,-7.17237 -24.07422,-9.05273 -3.71869,-0.63267 -7.43672,-1.71767 -8.26172,-2.41211 -1.45227,-1.22245 -2.91475,-1.85569 -5.57617,-1.93164 z m 34.80859,0.95312 c -1.09321,0.0538 -2.01048,0.39915 -2.66016,1.04883 -2.11499,2.11498 -1.97858,3.97307 0.45704,6.24219 1.11584,1.03957 4.04084,3.33553 6.5,5.10156 l 4.4707,3.21094 0,-6.03906 c 0,-5.18006 -0.32005,-6.239 -2.25,-7.44336 -2.3837,-1.48752 -4.69555,-2.21068 -6.51758,-2.1211 z m -65.79102,0.47852 c -0.85748,0 -1.28132,0.45 -0.9414,1 0.33992,0.55 1.04105,1 1.55859,1 0.51754,0 0.94141,-0.45 0.94141,-1 0,-0.55 -0.70114,-1 -1.5586,-1 z m 1.74415,2.51367 c -0.0966,-0.009 -0.18632,-0.006 -0.27149,0.004 -0.0908,0.0101 -0.17506,0.0322 -0.2539,0.0625 -1.48015,0.56799 -1.51815,0.81614 -0.26563,1.79101 0.79973,0.62245 4.30037,4.83932 7.7793,9.3711 3.47893,4.53179 7.00117,9.10716 7.82617,10.16797 2.00868,2.58284 5.10856,3.30618 7.25,1.6914 2.57197,-1.93942 2.13375,-4.4806 -1,-5.79883 -1.5125,-0.63625 -6.60196,-4.91996 -11.31055,-9.51953 -5.52555,-5.39762 -8.30527,-7.63417 -9.7539,-7.76758 z m -1.93555,2.49219 c -1.71283,-0.008 -1.68496,0.21431 2.57617,19.99414 l 3.77149,17.5 9.70117,0.28711 c 6.54269,0.19302 9.70117,-0.0713 9.70117,-0.81055 0,-0.60291 -1.58643,-3.17351 -3.52539,-5.71289 -1.93896,-2.53938 -3.80837,-5.74476 -4.1543,-7.12305 -1.07725,-4.2921 -15.9267,-24.12476 -18.07031,-24.13476 z m -4.25,0.85937 -4.25,3.40235 c -7.48791,5.99164 -16.14182,11.48861 -20,12.70508 -4.20351,1.32535 -5.08778,4.24139 -1.81641,5.99218 1.06384,0.56935 2.30134,1.01133 2.75,0.98243 1.46564,-0.0942 5.72078,-3.21798 10.81641,-7.94141 2.75,-2.54913 6.6875,-5.86604 8.75,-7.37109 2.61464,-1.90801 3.75,-3.49767 3.75,-5.25196 z m 82,0.75 0,5.55274 0,5.55273 9.05664,6.31836 c 4.98115,3.47501 10.87368,8.489 13.09375,11.14063 3.92816,4.69175 5.84961,5.92529 5.84961,3.75586 0,-2.08936 -4.26603,-10.93555 -5.27344,-10.93555 -0.56446,0 -5.90915,-4.81254 -11.87695,-10.69336 z m -57.53906,3.38477 c -0.62672,0 -1.63194,1.0821 -2.23438,2.4043 -0.89114,1.95585 -0.76683,2.70152 0.66797,4 0.96996,0.8778 1.97519,1.5957 2.23437,1.5957 1.06921,0 2.8711,-2.51047 2.8711,-4 0,-1.86005 -1.89316,-4 -3.53906,-4 z m -40.96094,4 c -1.68708,0 -5.5,3.46629 -5.5,5 0,1.55559 1.48923,1.18999 4.36523,-1.07227 2.93848,-2.31141 3.40535,-3.92773 1.13477,-3.92773 z m 48.20117,7.90234 c -0.4383,-0.0545 -0.70117,0.39381 -0.70117,1.48243 0,1.90652 -4.54761,4.72506 -6.44727,3.99609 -2.62589,-1.00765 -1.78532,2.07934 1.97657,7.25976 1.94074,2.67256 3.79182,5.64688 4.11523,6.60938 0.45277,1.34749 1.71251,1.75 5.47266,1.75 2.68585,0 4.88281,-0.11466 4.88281,-0.25391 0,-0.13925 -0.88655,-3.35344 -1.9707,-7.14453 -1.96821,-6.88244 -5.76275,-13.50442 -7.32813,-13.69922 z m -61.62891,2.61133 c -0.53514,0.0617 -1.40313,0.68881 -3.10937,1.93945 -1.90408,1.39565 -5.61614,3.50691 -8.24805,4.69141 l -4.78515,2.1543 2.16211,2.30078 c 2.21305,2.35568 2.0312,5.4685 -0.31055,5.32422 -1.00366,-0.0618 -1.01041,-0.18893 -0.0312,-0.58399 1.82791,-0.73758 1.5285,-2.77551 -0.70508,-4.79687 -2.32,-2.09957 -3.45552,-1.98687 -22.04492,2.22851 -7.425,1.68371 -16.9875,3.60968 -21.25,4.28125 -4.2625,0.67156 -7.75,1.57495 -7.75,2.00391 0,0.42897 2.27176,1.2677 5.04883,1.86328 2.77707,0.59557 5.58957,1.01284 6.25,0.92774 0.66043,-0.0851 4.80117,-0.57268 9.20117,-1.08399 4.4,-0.51132 12.5,-1.58114 18,-2.37695 5.5,-0.7958 10.9,-1.48515 12,-1.53125 2.9912,-0.12529 8.13518,-1.66887 16.55469,-4.96485 5.51752,-2.15993 8.01136,-3.72933 9.25,-5.82617 2.34611,-3.97165 2.12847,-4.57672 -0.92774,-2.57422 -3.10464,2.03424 -6.94474,0.85191 -8.19336,-2.52343 -0.37399,-1.01099 -0.5762,-1.51478 -1.11133,-1.45313 z m 108.92774,20.48633 -18.5,0 -18.5,0 0,2.27734 c 0,2.30698 -0.7635,3.95632 -3.19336,5.63867 0.81769,-0.56421 2.19336,-4.1064 2.19336,-5.8496 0,-1.6603 -0.63263,-2.06641 -3.22266,-2.06641 l -3.22265,0 2.3164,1.62109 c 1.63853,1.14767 2.18297,2.31744 1.86133,4 -0.25002,1.30789 -0.30829,2.37891 -0.12891,2.37891 0.0436,0 0.0899,-0.016 0.13868,-0.041 -2.20069,1.50623 -5.7383,3.0447 -11.32032,5.11329 -6.39739,2.37072 -11.81716,4.79514 -12.04492,5.38867 -0.22776,0.59353 0.71818,6.64522 2.10352,13.44726 1.38534,6.80201 2.51953,12.52915 2.51953,12.72852 0,0.19936 13.275,0.36328 29.5,0.36328 l 29.5,0 0,-22.5 z m -61.25,0.13672 c -3.61154,-0.0342 -6.27402,0.0533 -6.46094,0.24023 -0.24922,0.24922 0.14629,2.49038 0.87891,4.98047 l 1.33203,4.52735 9,-4.69141 9,-4.69336 -9.87891,-0.28711 c -1.35834,-0.0396 -2.66724,-0.0648 -3.87109,-0.0762 z m 15.70312,0.86328 c -0.64079,0 -5.42878,2.24359 -10.63867,4.98633 -9.13236,4.80771 -9.45567,5.095 -9.02929,8 0.24324,1.65726 0.72804,2.9661 1.07812,2.9082 0.35007,-0.0579 5.49364,-1.96846 11.42969,-4.24609 8.8945,-3.41277 10.89819,-4.56542 11.39648,-6.55078 0.60817,-2.42312 -1.61393,-5.09766 -4.23633,-5.09766 z m -22.8789,12 c -0.23409,0 -4.10455,1.77841 -8.60156,3.95312 -4.49704,2.17473 -10.15534,4.25251 -12.57422,4.61524 -5.15372,0.77285 -5.67736,1.92586 -1.27344,2.80664 5.3981,1.07962 8.16375,0.55108 15.625,-2.98633 6.12208,-2.9025 7.25,-3.82158 7.25,-5.91211 0,-1.36163 -0.1917,-2.47656 -0.42578,-2.47656 z"
       style="fill:#000000" />
  </g>
</svg>
