<?xml version="1.0" encoding="UTF-8" standalone="no"?>
<!-- Created with Inkscape (http://www.inkscape.org/) -->

<svg
   xmlns:dc="http://purl.org/dc/elements/1.1/"
   xmlns:cc="http://creativecommons.org/ns#"
   xmlns:rdf="http://www.w3.org/1999/02/22-rdf-syntax-ns#"
   xmlns:svg="http://www.w3.org/2000/svg"
   xmlns="http://www.w3.org/2000/svg"
   xmlns:sodipodi="http://sodipodi.sourceforge.net/DTD/sodipodi-0.dtd"
   xmlns:inkscape="http://www.inkscape.org/namespaces/inkscape"
   version="1.1"
   width="521"
   height="285"
   id="svg2"
   inkscape:version="0.91 r13725"
   sodipodi:docname="ub141001.svg">
  <sodipodi:namedview
     pagecolor="#ffffff"
     bordercolor="#666666"
     borderopacity="1"
     objecttolerance="10"
     gridtolerance="10"
     guidetolerance="10"
     inkscape:pageopacity="0"
     inkscape:pageshadow="2"
     inkscape:window-width="792"
     inkscape:window-height="480"
     id="namedview11"
     showgrid="false"
     inkscape:zoom="0.58541267"
     inkscape:cx="33.309836"
     inkscape:cy="142.5"
     inkscape:window-x="0"
     inkscape:window-y="0"
     inkscape:window-maximized="0"
     inkscape:current-layer="svg2" />
  <metadata
     id="metadata8">
    <rdf:RDF>
      <cc:Work
         rdf:about="">
        <dc:format>image/svg+xml</dc:format>
        <dc:type
           rdf:resource="http://purl.org/dc/dcmitype/StillImage" />
        <dc:title></dc:title>
      </cc:Work>
    </rdf:RDF>
  </metadata>
  <defs
     id="defs6" />
  <g
     id="g2987"
     transform="translate(-3.5108068,-2.8571746)">
    <path
       d="M 65.448973,229.53212 C 64.652038,227.62478 64,225.61261 64,225.06063 c 0,-1.97805 4.709647,-11.58791 6.338309,-12.93307 2.087648,-1.72426 2.082438,-1.60869 -0.358471,7.95141 -1.111089,4.3517 -1.737305,9.03918 -1.391592,10.41661 0.960274,3.82603 -1.446755,3.0873 -3.139273,-0.96346 z M 92.5,231.97108 c 3.593759,-1.60563 37.80213,-7.91994 46,-8.49086 4.4,-0.30643 10.25,-0.1828 13,0.27474 l 5,0.83187 -7.5,2.37039 -7.5,2.37038 7.35028,1.2863 c 4.04266,0.70746 7.86766,1.49822 8.5,1.75725 0.63235,0.25902 -14.15028,0.47603 -32.85028,0.48222 -20.7824,0.007 -33.222494,-0.33611 -32,-0.88229 z m 46.63725,-12.84287 C 136.05609,216.24997 136,216.0314 136,206.90174 c 0,-16.92631 1.89258,-31.88438 4.63738,-36.65174 2.8511,-4.952 5.78823,-5.60475 7.5749,-1.68345 0.98673,2.16566 0.68108,4.0791 -1.95685,12.25 -1.71944,5.3259 -3.84835,14.35055 -4.73091,20.05479 -1.4816,9.57603 -1.47874,10.75041 0.0373,15.31478 0.90307,2.71889 1.43286,5.15253 1.17731,5.40808 -0.25555,0.25555 -1.8764,-0.85415 -3.60188,-2.46599 z M 63,215.821 c 0,-3.88485 2.806663,-8.04413 7.704326,-11.41728 l 5.32938,-3.67049 -2.430357,-4.14709 c -3.259696,-5.56225 -4.352836,-11.3613 -2.290799,-12.15258 2.885751,-1.10737 5.252843,1.40912 8.041662,8.54921 3.380567,8.65512 3.209671,9.05656 -7.236123,16.99786 C 68.20314,212.95693 65,215.75387 65,216.19604 65,216.63822 64.55,217 64,217 c -0.55,0 -1,-0.53055 -1,-1.179 z m 6.304655,-18.22617 0.177973,-6.40517 2.673736,4.57807 2.673737,4.57807 -2.32278,1.8271 C 71.229792,203.17781 69.946523,204 69.655612,204 c -0.290911,0 -0.448842,-2.88233 -0.350957,-6.40517 z m 5.76475,-30.73487 c -4.312724,-4.02143 -5.224328,-5.3908 -4.428557,-6.65236 2.1556,-3.41734 3.820773,-2.58471 9.564644,4.78255 l 2.705492,3.47014 5.663621,-2.7777 c 5.526455,-2.71042 7.313793,-2.92906 5.95364,-0.72829 -0.968298,1.56674 -10.752649,7.03221 -12.528245,6.99819 -0.825,-0.0158 -3.943768,-2.30744 -6.930595,-5.09253 z M 383,168.46016 C 383,167.12609 387.13044,160 387.90369,160 c 2.2192,0 1.70714,3.99867 -0.8224,6.42212 C 384.51804,168.87787 383,169.63592 383,168.46016 Z M 287.5524,158.75 c 1.74093,-5.70027 3.69559,-8.75457 9.91889,-15.49899 l 6.68888,-7.249 0.56545,-9.47772 c 0.44295,-7.42451 0.96164,-9.83628 2.39429,-11.13281 1.70261,-1.54084 2.00815,-1.53759 4.42654,0.047 2.50039,1.63832 2.57212,1.95226 1.91515,8.38179 -1.4244,13.94007 -1.86199,15.13983 -7.10939,19.4925 -2.66871,2.21367 -7.78413,7.09889 -11.36758,10.85604 -6.88863,7.22253 -8.55208,8.24787 -7.43223,4.58119 z M 392,159.11281 c 0,-1.18854 3.7946,-4.95115 10.25,-10.16356 5.6375,-4.552 11.825,-9.74423 13.75,-11.53828 4.06746,-3.79076 9.97858,-5.34663 11.83138,-3.11414 1.52349,1.83568 0.55641,4.42728 -2.19903,5.89304 -1.17279,0.62386 -8.98996,5.56136 -17.37147,10.97222 C 399.87936,156.57294 392.79186,161 392.51088,161 392.22989,161 392,160.15076 392,159.11281 Z M 74,156.5322 C 74,153.9317 77.078699,150 79.11501,150 80.433112,150 81,150.71502 81,152.37756 c 0,2.61061 -1.316164,4.01474 -4.75,5.06744 -1.684283,0.51635 -2.25,0.28684 -2.25,-0.9128 z m 144.58799,-0.38983 c -0.70292,-1.13734 0.67025,-5.76555 3.16599,-10.67084 2.54203,-4.99628 4.52459,-17.0825 3.20621,-19.54591 -2.08185,-3.88999 2.21954,-6.82384 5.03352,-3.4332 2.11125,2.5439 -0.51895,16.7618 -4.53372,24.50758 -1.85298,3.575 -3.6004,7.2875 -3.88314,8.25 -0.54524,1.85607 -2.10538,2.32188 -2.98886,0.89237 z M 165,154.26833 c 0,-0.52276 2.1984,-2.14699 4.88533,-3.6094 C 174.14415,148.34099 175.92114,148 183.74185,148 l 8.97119,0 0.68218,-9.03669 C 194.29285,127.0726 195.11588,125 198.94007,125 c 5.07813,0 5.61167,2.60475 3.04739,14.87756 -1.2207,5.84234 -2.58607,11.29744 -3.03417,12.12244 -0.6546,1.20521 -3.33405,1.51777 -13.634,1.59042 -7.05061,0.0497 -14.50679,0.43646 -16.56929,0.8594 -2.24245,0.45985 -3.75,0.38689 -3.75,-0.18149 z m -15.33333,-11.935 C 149.3,141.96667 149,141.08086 149,140.36488 c 0,-1.389 8.06132,-7.87471 16.09021,-12.94534 2.6827,-1.69426 5.70781,-3.83176 6.72246,-4.75 2.37773,-2.15182 3.18733,-2.10865 3.18733,0.16994 0,1.01172 -1.03906,2.31292 -2.30903,2.89155 -1.26996,0.57864 -6.4481,4.70087 -11.50696,9.16052 -9.0966,8.01911 -10.21644,8.74268 -11.51734,7.44178 z M 231,132.58179 c 0,-1.33002 0.27755,-3.1415 0.61678,-4.02553 0.95178,-2.48028 3.38322,0.0827 3.38322,3.56618 0,2.21089 -0.46336,2.87756 -2,2.87756 -1.44863,0 -2,-0.66667 -2,-2.41821 z m -78,-0.9268 c 0,-1.28976 0.86419,-3.12709 1.92042,-4.08297 1.83488,-1.66054 1.97442,-1.63703 3.13312,0.52801 1.04962,1.96124 0.91095,2.51031 -1.0312,4.08297 C 154.02793,134.60772 153,134.47279 153,131.65499 Z M 270.80351,128.75 c -1.35013,-1.06899 -1.44121,-2.37447 -0.62892,-9.01511 l 0.94983,-7.76511 -6.2334,-7.0137 c -4.19855,-4.72411 -5.90356,-7.343545 -5.22297,-8.024134 0.68059,-0.680588 3.21295,1.149128 7.75741,5.604994 6.53541,6.408 6.77609,6.82114 7.67608,13.17625 0.51102,3.60846 1.19748,7.63002 1.52546,8.93681 1.04809,4.17593 -2.53843,6.701 -5.82349,4.1 z m -6.52359,-1.77009 c -2.11938,-0.85281 -4.15309,-5.44008 -2.94664,-6.64652 0.3154,-0.31541 2.16945,-0.27406 4.12009,0.0919 3.59548,0.67452 4.37258,2.25876 2.93964,5.99294 -0.6823,1.77805 -0.98684,1.81964 -4.11309,0.5617 z m 177.38675,-4.64658 c -1.79402,-1.79401 -0.48041,-5.28533 2.73669,-7.27361 3.44166,-2.12705 5.66679,-4.47757 15.56854,-16.445832 4.28773,-5.182595 6.01899,-6.581463 8,-6.464056 2.46402,0.146034 2.4584,0.160391 -0.2219,0.566422 -2.18172,0.330503 -2.75,0.949715 -2.75,2.996463 0,1.624206 -1.57433,4.337473 -4.25,7.324603 -8.03195,8.96694 -12.25214,14.34832 -13.45173,17.15299 -1.1286,2.63873 -4.03131,3.74331 -5.6316,2.14302 z m 8.99085,-5.00914 c -0.3717,-0.3717 0.30147,-1.71608 1.49592,-2.98752 1.67789,-1.78603 2.48158,-2.05454 3.53437,-1.1808 1.13912,0.94538 1.08703,1.43545 -0.31757,2.98751 -1.73147,1.91326 -3.52971,2.36382 -4.71272,1.18081 z m -169.1221,-8.26688 C 281.17602,108.47579 279.4337,108 277.6636,108 c -2.37655,0 -4.51903,-1.14455 -8.19098,-4.37576 L 264.5,99.248486 l 0,-16.124197 c 0,-8.868308 0.24349,-16.124217 0.54109,-16.124243 0.2976,-2.5e-5 1.7601,2.407415 3.25,5.349867 C 270.70135,77.11002 271,78.807037 271,87.742924 c 0,11.224484 -0.32074,10.747679 7.96957,11.847427 6.41308,0.850729 8.15134,2.192759 8.36072,6.454939 0.14966,3.04665 -0.14396,3.49101 -2.48585,3.76202 -1.46056,0.16902 -2.94962,-0.16848 -3.30902,-0.75 z m 43.51477,-9.496838 c -0.65709,-0.791741 -1.04969,-2.704241 -0.87245,-4.25 0.29066,-2.5349 0.68203,-2.799991 3.99141,-2.703579 2.01804,0.05879 5.54235,1.083255 7.83181,2.276587 l 4.16265,2.169695 5.39706,-3.087888 c 2.96839,-1.698339 5.65813,-3.510303 5.97722,-4.026588 1.29024,-2.087652 2.33934,-0.763348 1.26434,1.596013 -0.63519,1.394091 -3.70678,4.084901 -6.82575,5.979578 l -5.67087,3.44487 -4.1178,-1.617523 c -3.80128,-1.493183 -4.30997,-1.491613 -6.61763,0.02042 -3.03582,1.989153 -3.03389,1.989063 -4.51999,0.198414 z m 7.04023,-7.483426 c -1.17687,-0.745018 -1.19812,-1.402829 -0.12868,-3.984687 1.34615,-3.249889 2.89809,-3.772926 6.104,-2.057175 C 340.52032,87.348837 340.50515,88.49485 338,91 c -2.17585,2.175853 -3.7272,2.458593 -5.90958,1.077046 z"
       id="path2997"
       style="fill:#fefefe"
       inkscape:connector-curvature="0" />
    <path
       d="m 286,70.819932 c -4.3542,-1.243675 -4.55522,-1.446002 -3.13587,-3.156225 0.93172,-1.122648 0.06,-1.871287 -4.60749,-3.956786 -9.1002,-4.066118 -14.50804,-5.054307 -24.09921,-4.403704 -9.21569,0.625133 -20.09306,3.813084 -27.90186,8.177506 C 221.1634,70.326789 221,70.374474 221,69.014395 c 0,-1.302235 10.08413,-6.347731 18.05059,-9.031439 8.13931,-2.741934 21.8543,-3.678067 29.04095,-1.982223 2.97465,0.701934 8.39915,2.771005 12.05443,4.597937 5.92899,2.963344 6.59067,3.110226 6.13337,1.361512 -0.90334,-3.454359 1.61104,-2.095371 3.70034,1.99998 3.23607,6.343227 2.85277,6.811296 -3.97968,4.85977 z"
       id="path2993"
       style="fill:#fe0000"
       inkscape:connector-curvature="0" />
    <path
       d="m 68.468615,188.5 c -0.257738,-0.825 -0.702225,-2.23424 -0.987749,-3.13165 -0.592036,-1.86078 1.439374,-18.15974 2.522947,-20.24278 0.542661,-1.04321 1.690447,-0.49314 4.762727,2.28248 3.971557,3.58806 4.01994,3.71268 2.569873,6.61941 -0.81284,1.62938 -1.558558,4.51806 -1.657152,6.41929 -0.153543,2.96084 -0.47684,3.38274 -2.253464,2.94073 -2.576884,-0.64112 -4.848436,1.88834 -4.137441,4.60719 0.604533,2.31174 -0.116534,2.75624 -0.819741,0.50533 z m 70.563065,-18.78984 c -0.0174,-0.43441 0.80904,-2.45941 1.83659,-4.5 1.02755,-2.04059 2.40305,-7.42865 3.05666,-11.97347 0.65362,-4.54482 1.66802,-9.63917 2.25423,-11.32078 l 1.06584,-3.05747 1.18599,2.32078 c 1.19285,2.33419 2.58615,2.65142 5.81901,1.32488 2.4483,-1.00461 2.26683,0.59174 -1.25,10.9959 -1.65,4.88135 -3,10.21051 -3,11.84258 0,2.81142 -0.0961,2.88041 -1.82874,1.31241 -2.623,-2.37378 -4.70978,-2.04994 -7.05617,1.09501 -1.12845,1.5125 -2.06599,2.39457 -2.08341,1.96016 z m 290.5421,-33.04182 c 0.84782,-2.20941 -3.1571,-4.98974 -6.11727,-4.24678 -3.4569,0.86763 -2.36407,-0.91734 1.8569,-3.03295 1.75263,-0.87844 6.33179,-4.58774 10.17592,-8.24289 3.84413,-3.65514 6.43163,-5.99322 5.75,-5.19572 -1.57519,1.84295 -1.59501,5.29432 -0.0393,6.85 1.8601,1.8601 4.53058,1.42274 6.2433,-1.02251 0.85618,-1.22237 1.5567,-1.63832 1.5567,-0.92433 0,1.43188 -0.97609,2.31829 -12.21149,11.08952 -4.24132,3.3111 -7.48795,5.43765 -7.21473,4.72566 z m -225.74013,-9.63547 c -1.07991,-1.88163 -2.64058,-3.00932 -4.49406,-3.24724 -2.48758,-0.31933 -2.15778,-0.58028 2.66041,-2.10508 7.19734,-2.27771 18.10837,-3.80888 21.83326,-3.0639 2.94499,0.589 2.94946,0.60063 0.98525,2.56484 -1.24075,1.24075 -1.71675,2.59402 -1.28238,3.64583 2.10076,5.08691 1.96892,5.36297 -2.15102,4.50377 -4.80344,-1.00175 -10.08763,-1.04918 -13.39106,-0.1202 -2.07912,0.58468 -2.78774,0.21371 -4.1604,-2.17802 z m 73.24921,-5.08209 C 276.48729,119.17371 276,116.10215 276,115.12509 c 0,-2.31917 4.55168,-6.6595 5.45352,-5.2003 0.98523,1.59413 5.11285,1.30263 6.57958,-0.46467 0.98846,-1.19102 1.02647,-2.38039 0.16776,-5.25 l -1.11023,-3.71012 1.95469,2.36078 c 2.5089,3.03015 2.46723,6.01966 -0.1736,12.45384 C 286.87411,120.18164 281.17094,127 279.09755,127 c -0.5125,0 -1.41911,-2.27215 -2.01469,-5.04922 z m 27.9224,-6.54579 c 0.0134,-2.29657 10.26257,-15.609157 14.51362,-18.851595 L 323,93.898217 l 0,2.395904 c 0,3.17409 3.58297,6.522909 5.22363,4.882249 1.4397,-1.439703 2.77637,-1.524114 2.77637,-0.17533 0,0.55058 -2.79815,3.13808 -6.2181,5.75 -3.41996,2.61193 -7.26359,5.75963 -8.54139,6.99489 -2.2,2.12675 -2.45512,2.15956 -4.80752,0.61821 -2.31297,-1.51552 -2.62036,-1.50455 -4.45861,0.15905 -1.08591,0.98273 -1.97201,1.37954 -1.96912,0.8818 z"
       id="path2991"
       style="fill:#0000fe"
       inkscape:connector-curvature="0" />
    <path
       d="m 48.689216,233.25187 17.189216,-0.29858 -1.553132,-3.71716 c -1.27752,-3.05754 -1.339284,-4.30855 -0.348055,-7.04975 1.05011,-2.90403 0.974875,-3.50091 -0.585061,-4.64156 -1.629798,-1.19174 -1.666281,-1.68427 -0.407318,-5.49896 0.760551,-2.3045 2.248706,-4.79648 3.30701,-5.53774 2.493606,-1.74659 2.945556,-8.82237 1.102354,-17.25854 -1.185514,-5.42599 -1.153253,-7.73424 0.244584,-17.5 0.885625,-6.18727 2.223048,-11.95322 2.972053,-12.81323 1.039884,-1.194 1.085202,-1.84028 0.191696,-2.73379 -0.643571,-0.64357 -1.262425,-3.07326 -1.375231,-5.3993 -0.23284,-4.80115 -1.869954,-6.16017 -2.827045,-2.34681 C 66.249172,149.8554 65.490145,151 64.91356,151 c -0.624874,0 -0.769709,-0.90886 -0.358559,-2.25 1.114,-3.63379 2.623014,-4.9462 4.875142,-4.23999 1.138422,0.35698 3.798835,0.59259 5.912029,0.52357 C 80.314055,144.87121 82,146.37383 82,150.96746 82,154.68603 79.692448,158 77.103165,158 c -1.167314,0 -0.36952,1.3544 4.390565,7.45378 1.500888,1.92318 1.612994,1.91051 7.156999,-0.80852 3.881418,-1.90363 5.953929,-2.4406 6.66712,-1.72741 0.713191,0.71319 0.506949,1.61827 -0.663468,2.91156 -2.634997,2.91164 -11.407294,7.33132 -13.860729,6.98334 -1.857117,-0.2634 -2.414868,0.42392 -3.534382,4.3554 -1.28006,4.49529 -1.196626,5.00362 2.253057,13.7273 4.048637,10.23833 3.965528,10.80841 -2.370165,16.25785 -3.442076,2.9606 -4.137818,4.35846 -6.030628,12.11658 -1.176813,4.82343 -1.859547,9.88593 -1.517188,11.25 0.609709,2.42928 0.823541,2.48012 10.430729,2.48012 5.617063,0 9.950696,-0.42524 10.141592,-0.99516 0.310751,-0.92774 35.655073,-8.24847 45.963163,-9.52017 l 4.62982,-0.57117 -3.02787,-3.02788 -3.02788,-3.02787 0.59456,-15.17888 c 0.72696,-18.55866 2.36966,-31.03513 4.69763,-35.67887 0.96503,-1.925 2.30639,-7.43198 2.9808,-12.23774 0.67441,-4.80575 2.05777,-10.36879 3.07412,-12.36231 1.69413,-3.32294 1.71782,-3.82312 0.28468,-6.01038 -0.90308,-1.37827 -1.37718,-3.65351 -1.12266,-5.38769 0.50595,-3.44727 0.15451,-3.64448 -2.39042,-1.34134 -2.31114,2.09155 -3.63224,1.00624 -1.44166,-1.18435 0.89048,-0.89048 1.61917,-1.9244 1.61931,-2.29762 1.5e-4,-0.37321 2.90869,-0.80036 6.46343,-0.94921 6.10936,-0.25582 6.55808,-0.11896 8.19708,2.5 0.95365,1.52385 1.84978,2.93781 1.9914,3.14213 0.38531,0.55593 9.52465,-4.84961 12.0238,-7.11157 1.19679,-1.0832 2.65929,-1.67075 3.25,-1.30567 2.18898,1.35286 1.00686,4.38783 -2.51942,6.46839 -1.9764,1.1661 -6.47203,4.69487 -9.99029,7.8417 -4.64,4.15015 -6.24165,6.21044 -5.8318,7.50176 0.31076,0.97914 -0.78304,5.93232 -2.43067,11.00707 -1.64764,5.07476 -3.27959,11.47683 -3.62657,14.22683 -0.34698,2.75 -1.93191,9.05 -3.52206,14 -1.59016,4.95 -3.60576,13.64128 -4.47912,19.31395 -1.47501,9.58057 -1.46723,10.69684 0.10952,15.69885 l 1.69743,5.38489 5.58351,0.68735 c 9.71206,1.19559 10.38041,1.98206 3.36961,3.96513 -3.41765,0.96671 -6.01109,2.0858 -5.76322,2.48687 0.24787,0.40107 2.93163,1.03918 5.96389,1.41804 3.03227,0.37886 5.51322,1.10645 5.51322,1.61688 0,0.56163 26.87422,0.92804 68.06739,0.92804 64.3567,0 68.03915,-0.0954 67.54951,-1.75 -0.28483,-0.9625 -2.09164,-9.625 -4.01512,-19.25 -1.92349,-9.625 -5.57108,-27.4 -8.10575,-39.5 C 275.9332,141.17044 276.23065,144 279.5,144 c 2.57746,0 2.7252,0.22481 2.21479,3.37013 -0.33332,2.05403 0.90443,10.15736 3.16948,20.75 l 3.71638,17.37987 34.25416,0.26319 34.25416,0.26319 -0.30449,-47.01367 C 356.50366,92.564142 356.52404,91.99903 358.5,91.999229 c 1.98381,2e-4 1.99767,0.57085 1.71177,70.500491 L 359.92355,233 l 22.05728,0 22.05727,0 -0.53278,-2.25 C 403.21228,229.5125 400.28489,215.225 397,199 c -3.28489,-16.225 -6.22765,-30.57375 -6.53948,-31.88611 l -0.56695,-2.38611 -2.95338,2.82952 c -2.10531,2.01702 -3.2619,2.52099 -4.0278,1.75509 -1.21975,-1.21975 2.07993,-8.6283 4.45779,-10.00876 1.17759,-0.68365 1.1728,-1.6222 -0.032,-6.28633 -1.77956,-6.88905 -1.45871,-9.5173 1.16184,-9.5173 1.64532,0 2.02271,0.70935 2.12805,4 0.34344,10.72788 -0.88148,10.6325 11.12195,0.86594 5.9125,-4.81069 13.52355,-11.36104 16.91345,-14.55633 3.38989,-3.19528 6.68089,-5.80961 7.31332,-5.80961 0.63243,0 4.69288,-3.375 9.02323,-7.5 4.33035,-4.125 8.2956,-7.5 8.81168,-7.5 0.51608,0 1.18806,-1.2375 1.49329,-2.75 0.30523,-1.5125 0.87904,-3.58809 1.27513,-4.61243 0.63107,-1.63202 0.35597,-1.78244 -2.22359,-1.21587 -2.35145,0.51646 -3.42203,0.13746 -5.32074,-1.88363 -1.30735,-1.3916 -2.08647,-2.820706 -1.73138,-3.17579 0.35508,-0.355083 1.52755,0.430643 2.60548,1.74606 1.6122,1.96739 2.28805,2.19225 3.80986,1.26754 1.17648,-0.71486 3.59246,-0.85967 6.63622,-0.39774 l 4.78623,0.72637 5.17891,-5.891187 c 4.07892,-4.639911 5.7099,-5.829817 7.67891,-5.602254 1.92031,0.221935 2.39759,0.752682 2.05833,2.288931 -0.24292,1.1 -0.59235,32.92215 -0.77651,70.7159 l -0.33482,68.7159 10.7765,0.32172 c 5.92707,0.17694 -92.4985,0.31614 -218.7235,0.30932 -126.225,-0.007 -221.764853,-0.14676 -212.310784,-0.31097 z m 19.89903,-2.75629 c -0.345713,-1.37743 0.280503,-6.06491 1.391592,-10.41661 2.440909,-9.5601 2.446119,-9.67567 0.358471,-7.95141 C 68.709647,213.47272 64,223.08258 64,225.06063 c 0,0.55198 0.652038,2.56415 1.448973,4.47149 1.692518,4.05076 4.099547,4.78949 3.139273,0.96346 z m 88.762034,1.87557 c -0.63234,-0.25903 -4.45734,-1.04979 -8.5,-1.75725 l -7.35028,-1.2863 7.5,-2.37038 7.5,-2.37039 -5,-0.83187 c -2.75,-0.45754 -8.6,-0.58117 -13,-0.27474 -8.19787,0.57092 -42.406241,6.88523 -46,8.49086 -1.222494,0.54618 11.2176,0.88918 32,0.88229 18.7,-0.006 33.48263,-0.2232 32.85028,-0.48222 z M 357,210.5 l 0,-22.5 -34.10841,0 -34.10841,0 0.69257,2.75 C 290.15004,193.4274 298,232.04003 298,232.67933 298,232.8557 311.275,233 327.5,233 l 29.5,0 0,-22.5 z m 109,0 0,-22.5 -34.10841,0 -34.10841,0 0.69257,2.75 C 399.15004,193.4274 407,232.04003 407,232.67933 407,232.8557 420.275,233 436.5,233 l 29.5,0 0,-22.5 z m -324.43818,5.68612 c -1.51604,-4.56437 -1.5189,-5.73875 -0.0373,-15.31478 0.88256,-5.70424 3.01147,-14.72889 4.73091,-20.05479 2.63793,-8.1709 2.94358,-10.08434 1.95685,-12.25 -1.44723,-3.17632 -4.40106,-3.3165 -6.67028,-0.31655 -1.69543,2.2414 -1.6964,2.24045 -0.25249,-0.25 1.82685,-3.15093 4.30745,-3.67472 6.78489,-1.43267 1.8597,1.683 1.9256,1.64108 1.9256,-1.22475 0,-1.63207 1.35,-6.96123 3,-11.84258 3.51683,-10.40416 3.6983,-12.00051 1.25,-10.9959 -3.23286,1.32654 -4.62616,1.00931 -5.81901,-1.32488 l -1.18599,-2.32078 -1.06584,3.05747 c -0.58621,1.68161 -1.59992,6.77596 -2.25268,11.32078 -0.65276,4.54482 -1.87818,9.61331 -2.72316,11.26331 -0.84497,1.65 -1.67953,4.125 -1.85457,5.5 -0.17504,1.375 -0.75258,4.975 -1.28342,8 -0.53084,3.025 -1.28235,12.7919 -1.67001,21.70422 l -0.70485,16.20421 3.29201,3.07521 c 1.81061,1.69136 3.5011,2.86611 3.75665,2.61056 0.25555,-0.25555 -0.27424,-2.68919 -1.17731,-5.40808 z m -76.117792,0.52862 c -0.28703,-0.74799 2.49263,-3.55522 6.649474,-6.71541 10.472707,-7.96177 10.642215,-8.35904 7.26071,-17.01656 -2.788819,-7.14009 -5.155911,-9.65658 -8.041662,-8.54921 -2.062037,0.79128 -0.968897,6.59033 2.290799,12.15258 l 2.430357,4.14709 -5.380703,3.70583 c -4.068809,2.8023 -5.702891,4.68207 -6.702148,7.70985 -1.124568,3.40748 -1.107606,4.13933 0.11385,4.91224 1.879582,1.18936 1.960825,1.16896 1.379323,-0.34641 z m 7.063293,-14.54184 2.32278,-1.8271 -2.673737,-4.57807 -2.673736,-4.57807 -0.177973,6.40517 C 69.20677,201.11767 69.364701,204 69.655612,204 c 0.290911,0 1.57418,-0.82219 2.851709,-1.8271 z m -3.218965,-14.17823 c -0.710995,-2.71885 1.560557,-5.24831 4.137441,-4.60719 1.776624,0.44201 2.099921,0.0201 2.253464,-2.94073 0.09859,-1.90123 0.844312,-4.78991 1.657152,-6.41929 1.450067,-2.90673 1.401684,-3.03135 -2.569873,-6.61941 -3.07228,-2.77562 -4.220066,-3.32569 -4.762727,-2.28248 -1.083573,2.08304 -3.114983,18.382 -2.522947,20.24278 0.285524,0.89741 0.730011,2.30665 0.987749,3.13165 0.703207,2.25091 1.424274,1.80641 0.819741,-0.50533 z M 466,143 c 0,-23.65 -0.36581,-43 -0.81291,-43 -0.4471,0 -2.02733,1.26759 -3.51163,2.81686 -2.10634,2.19854 -2.57471,3.46069 -2.13379,5.75 0.72182,3.74769 -4.58015,10.69134 -7.80939,10.22747 -1.55258,-0.22302 -2.09517,0.30311 -2.23944,2.1715 -0.10854,1.40565 -1.40108,3.34042 -3.00627,4.5 -1.54872,1.11879 -6.06616,4.58687 -10.03875,7.70683 -3.97258,3.11996 -10.76099,7.89387 -15.08535,10.60868 C 403.06087,155.27101 393,162.10123 393,163.03635 c 0,1.14184 3.88817,19.81964 4.52014,21.71365 0.32278,0.96734 8.11248,1.25 34.44848,1.25 L 466,186 466,143 Z M 88.678109,169.01145 c 8.830449,-5.0645 8.749413,-7.67073 -0.103504,-3.32886 l -5.663621,2.7777 -2.705492,-3.47014 c -5.743871,-7.36726 -7.409044,-8.19989 -9.564644,-4.78255 -0.795771,1.26156 0.115833,2.63093 4.428557,6.65236 2.986827,2.78509 6.105595,5.07673 6.930595,5.09253 0.825,0.0158 3.830149,-1.30766 6.678109,-2.94104 z m 298.403181,-2.58933 c 1.73269,-1.66002 2.51177,-3.26227 2.18809,-4.5 -0.76538,-2.92682 -2.02421,-2.32302 -4.24906,2.03804 -3.05495,5.98821 -2.41614,6.75131 2.06097,2.46196 z m 21.17959,-15.26003 c 8.38151,-5.41086 16.19868,-10.34836 17.37147,-10.97222 2.75544,-1.46576 3.72252,-4.05736 2.19903,-5.89304 -1.8528,-2.23249 -7.76392,-0.67662 -11.83138,3.11414 -1.925,1.79405 -8.1125,6.98628 -13.75,11.53828 -6.4554,5.21241 -10.25,8.97502 -10.25,10.16356 0,1.03795 0.22989,1.88719 0.51088,1.88719 0.28098,0 7.36848,-4.42706 15.75,-9.83791 z M 79.75,155.75517 c 0.6875,-0.55003 1.25,-2.06996 1.25,-3.37761 0,-3.21383 -3.256612,-3.16106 -5.38499,0.0873 -2.404084,3.66909 -2.128881,5.82749 0.63499,4.98018 1.2375,-0.37938 2.8125,-1.1398 3.5,-1.68983 z m 81.43401,-20.86362 c 5.05886,-4.45965 10.237,-8.58188 11.50696,-9.16052 C 173.96094,125.1524 175,123.8512 175,122.83948 c 0,-2.27859 -0.8096,-2.32176 -3.18733,-0.16994 -1.01465,0.91824 -4.03976,3.05574 -6.72246,4.75 C 157.06132,132.49017 149,138.97588 149,140.36488 c 0,1.48273 0.94448,2.63512 2.1597,2.63512 0.4545,0 4.96544,-3.6488 10.02431,-8.10845 z m 285.63725,-10.91811 c 1.62525,-1.36465 2.12862,-2.55601 1.67878,-3.97332 -0.64779,-2.04099 1.02088,-4.34871 12.24996,-16.94142 2.67014,-2.9944 4.25,-5.72513 4.25,-7.345983 0,-2.046748 0.56828,-2.66596 2.75,-2.996463 2.6803,-0.406031 2.68592,-0.420388 0.2219,-0.566422 -1.98859,-0.117857 -3.69585,1.277312 -8,6.53761 -8.80995,10.767018 -14.73808,16.575108 -16.07459,15.749088 -0.82114,-0.50749 -0.94496,-0.32264 -0.38777,0.5789 0.57973,0.93803 0.37272,1.15337 -0.7095,0.73808 -1.00166,-0.38437 -3.55566,1.47866 -7.41404,5.40825 -3.2373,3.29704 -7.54297,6.853 -9.56815,7.90214 -4.66472,2.41654 -5.96217,4.26141 -2.36134,3.35766 2.96017,-0.74296 6.96509,2.03737 6.11727,4.24678 -0.42321,1.10284 9.60952,-6.28168 17.24748,-12.6949 z M 441.2,122.8 c -1.3296,-1.3296 -1.62616,-5.41858 -0.44589,-6.14803 0.41476,-0.25634 0.75226,0.94335 0.75,2.66597 -0.005,3.71992 3.08051,4.97061 5.17979,2.09967 0.72386,-0.98993 1.3161,-1.35386 1.3161,-0.80874 0,1.51644 -2.21129,3.39113 -4,3.39113 -0.88,0 -2.14,-0.54 -2.8,-1.2 z m -284.17766,9.383 c 1.94215,-1.57266 2.08082,-2.12173 1.0312,-4.08297 -1.1587,-2.16504 -1.29824,-2.18855 -3.13312,-0.52801 -1.93408,1.75032 -2.68449,6.42798 -1.0312,6.42798 0.48906,0 1.89897,-0.81765 3.13312,-1.817 z m 298.3479,-16.03962 c 1.4046,-1.55206 1.45669,-2.04213 0.31757,-2.98751 -1.05279,-0.87374 -1.85648,-0.60523 -3.53437,1.1808 -2.12698,2.26407 -1.99014,3.66333 0.35824,3.66333 0.64809,0 1.93444,-0.83548 2.85856,-1.85662 z m -168.79307,44.98148 c -1.41102,-2.28307 2.87863,-10.10431 9.55438,-17.42031 l 7.11323,-7.79546 0.51735,-10.91498 c 0.36296,-7.65776 0.99788,-11.63843 2.12761,-13.33929 5.12275,-7.71251 10.75892,-14.026384 15.49893,-17.362557 4.38185,-3.084088 5.48384,-4.44586 5.90114,-7.292263 0.28222,-1.925 0.86059,-4.365624 1.28527,-5.423609 0.6515,-1.623072 0.4716,-1.79451 -1.15147,-1.097303 -2.85073,1.224558 -6.67414,1.177575 -7.1121,-0.0874 -0.39482,-1.140385 1.75821,-1.389318 11.68849,-1.351426 4.32675,0.01651 5.87331,0.464725 7.25,2.101144 2.51272,2.986767 2.2107,7.488798 -0.69747,10.396971 -2.40276,2.402759 -2.41092,2.467037 -0.44663,3.518291 1.60323,0.858028 2.93414,0.533777 6.69747,-1.631716 2.58315,-1.486394 5.45577,-3.359162 6.38362,-4.161707 0.92784,-0.802545 2.16369,-1.164552 2.74633,-0.804461 2.08957,1.291425 -1.88329,6.366013 -7.79579,9.957664 -5.76617,3.502772 -5.97623,3.548882 -9.48503,2.082822 -4.47426,-1.869467 -4.31904,-1.882431 -4.91873,0.41081 -0.27473,1.05054 -3.33869,4.08804 -6.8088,6.75 -9.87212,7.57299 -9.48945,6.90648 -10.83606,18.87371 -0.67105,5.96353 -1.59994,11.54556 -2.06421,12.40449 -0.46427,0.85894 -3.76569,3.97258 -7.33649,6.9192 -3.57079,2.94661 -8.58735,7.78411 -11.14791,10.75 -4.62207,5.35371 -5.92416,6.19846 -6.96313,4.51737 z m 8.40746,-6.95605 c 3.58345,-3.75715 8.69887,-8.64237 11.36758,-10.85604 5.2474,-4.35267 5.68499,-5.55243 7.10939,-19.4925 0.65697,-6.42953 0.58524,-6.74347 -1.91515,-8.38179 -2.41839,-1.58459 -2.72393,-1.58784 -4.42654,-0.047 -1.43265,1.29653 -1.95134,3.7083 -2.39429,11.13281 l -0.56545,9.47772 -6.68888,7.249 c -6.2233,6.74442 -8.17796,9.79872 -9.91889,15.49899 -1.11985,3.66668 0.5436,2.64134 7.43223,-4.58119 z m 16.44836,-39.80467 c 2.3524,1.54135 2.60752,1.50854 4.80752,-0.61821 1.2778,-1.23526 5.12143,-4.38296 8.54139,-6.99489 3.41995,-2.61192 6.2181,-5.19942 6.2181,-5.75 0,-1.348784 -1.33667,-1.264373 -2.77637,0.17533 C 326.58297,102.81703 323,99.468211 323,96.294121 l 0,-2.395904 -3.48112,2.655178 c -3.14522,2.398975 -8.05108,8.294595 -12.76362,15.338655 -2.33334,3.48778 -2.2208,4.83923 0.21912,2.63114 1.83825,-1.6636 2.14564,-1.67457 4.45861,-0.15905 z m 18.13719,-15.002082 c 2.30766,-1.512034 2.81635,-1.513604 6.61763,-0.02042 l 4.1178,1.617522 5.67087,-3.444869 c 3.11897,-1.894677 6.19056,-4.585487 6.82575,-5.979578 1.075,-2.359361 0.0259,-3.683665 -1.26434,-1.596013 -0.31909,0.516285 -3.00883,2.328249 -5.97722,4.026588 l -5.39706,3.087888 -4.16265,-2.169695 c -2.28946,-1.193332 -5.81377,-2.217796 -7.83181,-2.276587 -3.30938,-0.09641 -3.70075,0.168679 -3.99141,2.703579 -0.27595,2.406665 1.15494,5.689527 2.47989,5.689527 0.227,0 1.53765,-0.73707 2.91255,-1.637941 z M 338,91 c 2.50515,-2.50515 2.52032,-3.651163 0.0657,-4.964816 -3.20591,-1.715751 -4.75785,-1.192714 -6.104,2.057175 -1.06944,2.581858 -1.04819,3.239669 0.12868,3.984687 C 334.2728,93.458593 335.82415,93.175853 338,91 Z m -119.82948,65.70546 c -1.31693,-1.5868 -0.46273,-5.2522 2.64245,-11.33886 1.14381,-2.24205 2.38059,-6.34498 2.74839,-9.11762 0.5819,-4.38659 0.42656,-5.11267 -1.19631,-5.59176 -5.01793,-1.48135 -9.42469,-1.71825 -13.17546,-0.70827 -4.53428,1.22095 -4.73864,1.63756 -7.25144,14.78299 -1.88,9.83502 -1.73225,9.74695 -16.60878,9.90037 -7.05615,0.0728 -14.58735,0.29777 -16.736,0.5 -5.78757,0.54472 -5.54294,-1.54761 0.59229,-5.06595 4.79006,-2.74693 6.16484,-3.04852 13.93536,-3.05698 l 8.62101,-0.009 0.69434,-8.87577 c 0.94411,-12.06864 2.6,-15.13874 9.3778,-17.38694 6.86754,-2.27797 18.22849,-3.87876 22.07214,-3.11003 1.6563,0.33126 3.7792,1.45064 4.71756,2.48752 1.07704,1.19011 3.05007,1.88522 5.35112,1.88522 2.00475,0 4.17751,0.5325 4.82834,1.18333 2.46773,2.46773 2.28537,-0.20996 -0.31666,-4.65 -1.49031,-2.54302 -2.36838,-4.94085 -1.95126,-5.3285 0.41712,-0.38766 0.95435,-0.15714 1.19386,0.51225 0.2395,0.6694 1.57776,2.90037 2.97392,4.95772 1.85393,2.73193 2.27629,4.16043 1.56626,5.29738 -0.53471,0.85621 -0.76609,2.96106 -0.51418,4.67744 0.7849,5.34789 -1.05959,7.35038 -6.77045,7.35038 -4.38233,0 -4.96482,0.24722 -4.96482,2.10717 0,1.15895 -1.65086,5.32145 -3.66858,9.25 -2.01772,3.92856 -3.96237,7.79105 -4.32144,8.58331 -0.92371,2.03808 -2.51908,2.35595 -3.83946,0.76498 z m 3.40633,-1.45546 c 0.28274,-0.9625 2.03016,-4.675 3.88314,-8.25 4.01477,-7.74578 6.64497,-21.96368 4.53372,-24.50758 -2.81398,-3.39064 -7.11537,-0.45679 -5.03352,3.4332 1.31838,2.46341 -0.66418,14.54963 -3.20621,19.54591 -2.49574,4.90529 -3.86891,9.5335 -3.16599,10.67084 0.88348,1.42951 2.44362,0.9637 2.98886,-0.89237 z m -36.25756,-1.65958 c 10.29995,-0.0726 12.9794,-0.38521 13.634,-1.59042 0.4481,-0.825 1.81347,-6.2801 3.03417,-12.12244 C 204.55174,127.60475 204.0182,125 198.94007,125 c -3.82419,0 -4.64722,2.0726 -5.54485,13.96331 L 192.71304,148 l -8.97119,0 c -7.82071,0 -9.5977,0.34099 -13.85652,2.65893 -5.87617,3.19821 -6.3755,4.86546 -1.13533,3.79089 2.0625,-0.42294 9.51868,-0.80967 16.56929,-0.8594 z M 235,132.12244 c 0,-3.48352 -2.43144,-6.04646 -3.38322,-3.56618 C 230.29206,132.00844 230.93423,135 233,135 c 1.53664,0 2,-0.66667 2,-2.87756 z m -21,-3.60892 c 1.925,0.004 5.2483,0.37194 7.38511,0.81757 4.11994,0.8592 4.25178,0.58314 2.15102,-4.50377 -0.43437,-1.05181 0.0416,-2.40508 1.28238,-3.64583 1.96421,-1.96421 1.95974,-1.97584 -0.98525,-2.56484 -3.72489,-0.74498 -14.63592,0.78619 -21.83326,3.0639 -4.81819,1.5248 -5.14799,1.78575 -2.66041,2.10508 1.85348,0.23792 3.41415,1.36561 4.49406,3.24724 1.37266,2.39173 2.08128,2.7627 4.1604,2.17802 1.37827,-0.3876 4.08095,-0.70141 6.00595,-0.69737 z m 43.56681,10.1442 c -1.98323,-1.98323 -2.35864,-3.41654 -2.44896,-9.35008 -0.13773,-9.04831 1.4605,-10.87303 8.76564,-10.00785 4.45515,0.52765 4.96903,0.37737 5.50168,-1.60889 1.18238,-4.40915 0.49736,-5.99329 -5.51879,-12.76254 -5.23705,-5.89262 -5.9445,-7.129304 -4.83979,-8.4604 0.71161,-0.857438 1.86379,-1.340266 2.5604,-1.072952 1.65242,0.634092 2.72678,-9.045387 2.25861,-20.34892 -0.41643,-10.054176 0.76446,-11.137797 4.73205,-4.342312 2.46129,4.215563 2.86824,6.127416 3.36133,15.791784 L 272.5,97.491119 280,98.786557 c 8.25856,1.426463 12,4.180733 12,8.833823 0,6.3994 -7.5296,18.50009 -12.43899,19.9905 -1.13356,0.34412 -2.83175,1.30203 -3.77376,2.12868 -0.94202,0.82665 -2.40344,1.23796 -3.2476,0.91403 -0.84416,-0.32394 -3.11769,0.34493 -5.05229,1.48637 -2.35822,1.39138 -4.67764,1.93989 -7.03785,1.66435 -2.77573,-0.32405 -3.45879,-0.0824 -3.22912,1.14235 0.16021,0.85434 1.30116,1.99755 2.53545,2.54047 2.26882,0.99797 3.12698,3.51287 1.19871,3.51287 -0.575,0 -2.09949,-1.05403 -3.38774,-2.34228 z m 18.42241,-10.14473 c 0.67876,-0.81786 0.96577,-2.55621 0.63778,-3.86299 -0.32798,-1.30679 -1.01444,-5.32835 -1.52546,-8.93681 -0.89999,-6.35511 -1.14067,-6.76825 -7.67608,-13.17625 -4.54446,-4.455866 -7.07682,-6.285582 -7.75741,-5.604994 -0.68059,0.680589 1.02442,3.300024 5.22297,8.024134 l 6.2334,7.0137 -0.94983,7.76511 c -0.81229,6.64064 -0.72121,7.94612 0.62892,9.01511 2.08541,1.65116 3.67912,1.57831 5.18571,-0.23701 z m -7.59621,-2.09478 c 1.43294,-3.73418 0.65584,-5.31842 -2.93964,-5.99294 -1.95064,-0.36594 -3.80469,-0.40729 -4.12009,-0.0919 -1.20645,1.20644 0.82726,5.79371 2.94664,6.64652 3.12625,1.25794 3.43079,1.21635 4.11309,-0.5617 z M 283.38641,123.75 C 286.92428,120.32493 291,111.76287 291,107.75575 c 0,-2.72221 -2.07509,-5.95458 -4.11167,-6.40475 -0.76358,-0.16878 -3.63833,-0.76043 -6.38833,-1.31477 -10.52509,-2.121647 -9.5,-0.804641 -9.5,-12.205369 0,-9.031495 -0.294,-10.711671 -2.70891,-15.480948 -1.4899,-2.942452 -2.9524,-5.349892 -3.25,-5.349867 -0.2976,2.6e-5 -0.54109,7.255935 -0.54109,16.124243 l 0,16.124197 4.97262,4.375754 c 3.57114,3.1425 5.83994,4.37576 8.05,4.37576 1.69256,0 3.56548,0.4881 4.16204,1.08466 0.59657,0.59657 2.14907,0.93398 3.45,0.74979 2.06716,-0.29266 2.34684,-0.8391 2.21862,-4.33466 l -0.14672,-3.99979 1.03568,3.23011 c 0.77269,2.40991 0.71537,3.61604 -0.22573,4.75 -1.45319,1.75098 -5.58273,2.03079 -6.56299,0.44468 -0.90184,-1.4592 -5.45352,2.88113 -5.45352,5.2003 0,3.50198 2.18407,11.87491 3.09755,11.87491 0.5125,0 2.44249,-1.4625 4.28886,-3.25 z m -5.80895,-14.5884 c -2.13533,-0.41672 -3.00352,0.34001 -2.08857,1.82043 0.49468,0.8004 1.1313,0.74862 2.25586,-0.18347 1.41152,-1.16994 1.39495,-1.33208 -0.16729,-1.63696 z"
       id="path2989"
       style="fill:#000000"
       inkscape:connector-curvature="0" />
  </g>
</svg>
