<?xml version="1.0" encoding="UTF-8" standalone="no"?>
<!-- Created with Inkscape (http://www.inkscape.org/) -->

<svg
   xmlns:dc="http://purl.org/dc/elements/1.1/"
   xmlns:cc="http://creativecommons.org/ns#"
   xmlns:rdf="http://www.w3.org/1999/02/22-rdf-syntax-ns#"
   xmlns:svg="http://www.w3.org/2000/svg"
   xmlns="http://www.w3.org/2000/svg"
   version="1.1"
   width="593"
   height="262"
   id="svg2">
  <metadata
     id="metadata8">
    <rdf:RDF>
      <cc:Work
         rdf:about="">
        <dc:format>image/svg+xml</dc:format>
        <dc:type
           rdf:resource="http://purl.org/dc/dcmitype/StillImage" />
        <dc:title></dc:title>
      </cc:Work>
    </rdf:RDF>
  </metadata>
  <defs
     id="defs6" />
  <g
     id="g2987">
    <path
       d="m 115.30318,193.35544 c -0.65826,-0.26766 -5.67846,-4.84463 -11.15601,-10.17105 L 94.187992,173.5 92.673653,166.00368 c -0.832886,-4.12298 -1.343679,-7.66699 -1.135094,-7.87557 0.442823,-0.44283 4.669733,4.46694 8.859721,10.291 3.71013,5.15705 16.82813,20.69398 18.98003,22.4799 0.89193,0.74023 1.62169,1.74078 1.62169,2.22343 0,0.91945 -3.64232,1.06842 -5.69682,0.233 z M 84.574112,165.0759 c -3.810787,-3.9026 -5.223005,-8.69315 -3.928377,-13.3259 0.536838,-1.92104 3.846616,-2.38041 4.897679,-0.67975 0.638257,1.03272 4.420737,15.65258 4.444779,17.17975 0.0255,1.61973 -1.74873,0.57956 -5.414081,-3.1741 z m 3.993819,-14.00084 c -1.467192,-1.62123 -1.717216,-3.62028 -1.53289,-12.25613 0.121138,-5.67541 -0.119813,-12.44844 -0.535446,-15.05118 -0.642651,-4.02434 -0.491821,-4.8335 1.008276,-5.40914 0.970186,-0.3723 2.490309,-0.21388 3.378052,0.35203 2.058912,1.31251 1.985259,5.93082 -0.289546,18.15541 -1.415487,7.6067 -1.515988,9.91381 -0.535024,12.28207 1.498755,3.61831 0.824534,4.48826 -1.493422,1.92694 z m 108.734879,0.27166 c -0.34894,-0.90931 -0.16909,-5.97181 0.39966,-11.25 0.56875,-5.2782 0.82811,-11.67063 0.57635,-14.2054 -0.47536,-4.78619 0.88844,-6.53184 4.13093,-5.28758 2.6161,1.00389 2.51355,4.84859 -0.43733,16.39626 -2.91937,11.42434 -2.92566,11.51092 -0.95556,13.16029 2.62502,2.19768 2.50107,2.83971 -0.54824,2.83971 -1.43194,0 -2.80694,-0.71806 -3.16581,-1.65328 z M 264.00589,150.75 c 0.003,-1.2375 1.32632,-7.12082 2.9402,-13.07405 1.61387,-5.95322 2.70157,-11.43056 2.41711,-12.17186 -0.7797,-2.03184 1.45953,-5.50409 3.54954,-5.50409 4.28823,0 4.96361,5.09724 1.23689,9.33519 -2.31911,2.63726 -7.32174,19.8927 -6.1166,21.09784 C 269.66999,152.06999 269.11458,153 266.5,153 c -1.92767,0 -2.49865,-0.5151 -2.49411,-2.25 z M 379,151.24055 c 0,-0.4177 0.92941,-1.33988 2.06535,-2.04929 1.91932,-1.19863 2.02912,-1.97576 1.55282,-10.99055 -0.2819,-5.33539 -0.64881,-11.50071 -0.81535,-13.70071 -0.26213,-3.4625 -0.01,-4.04175 1.87952,-4.31068 3.40074,-0.48414 4.68104,2.88908 3.38688,8.9235 C 386.48115,131.85491 386,138.12629 386,143.04922 l 0,8.95078 -3.5,0 c -1.925,0 -3.5,-0.34175 -3.5,-0.75945 z M 323.89566,148.75 c -0.0574,-0.1375 -0.2078,-1.87587 -0.33426,-3.86304 -0.19202,-3.01732 0.0611,-3.53693 1.53516,-3.15146 2.14092,0.55987 3.15735,2.88915 2.35873,5.40538 -0.47134,1.48505 -3.11302,2.67922 -3.55963,1.60912 z m -0.63375,-10.5 c -0.6675,-1.72972 -0.76939,-4.96411 -0.40166,-12.75 0.10391,-2.2 0.0654,-5.8 -0.0857,-8 -0.23698,-3.45209 0.0243,-4.04256 1.90775,-4.31068 3.60693,-0.5135 4.55874,2.69731 3.12377,10.53767 -0.68179,3.72515 -1.20903,8.91051 -1.17166,11.52301 0.0488,3.40904 -0.32236,4.75 -1.31463,4.75 -0.76043,0 -1.68648,-0.7875 -2.05791,-1.75 z m 64.76989,-9 c 0.0305,-2.63406 0.0937,-2.66816 1.5,-0.80887 1.87079,2.4734 1.86109,3.55887 -0.0318,3.55887 -0.97741,0 -1.48892,-0.95809 -1.4682,-2.75 z m -112.25853,1.18994 C 275.03122,129.69789 277.90078,124 279.01654,124 c 1.13972,0 3.98346,4.08522 3.98346,5.72251 0,1.26711 -6.07404,1.87011 -7.22673,0.71743 z m -69.73809,-5.3742 c -1.69462,-3.16643 -1.19348,-4.98791 1.56263,-5.67965 2.06205,-0.51754 3.23453,-0.0153 5.68513,2.43532 l 3.08733,3.08732 -2.75024,1.04563 c -4.08172,1.55187 -6.42571,1.27725 -7.58485,-0.88862 z M 329.0318,123.25 c 0.0298,-3.5142 0.12413,-3.62794 1.5,-1.80887 1.90187,2.51449 1.88445,5.55887 -0.0318,5.55887 -1.07232,0 -1.49093,-1.0692 -1.4682,-3.75 z m -234.474272,1.5 C 92.94405,119.43835 93.089935,119 96.471175,119 c 1.806165,0 3.886945,0.72658 4.623945,1.61462 1.1488,1.38422 1.00777,1.88364 -0.98834,3.5 -2.683664,2.1731 -5.001535,2.43849 -5.549252,0.63538 z m 41.442382,-4.81479 c 2.9e-4,-1.82006 8.79208,-4.46681 18.50009,-5.56941 l 11,-1.24934 -10.48716,0.53873 c -5.99441,0.30793 -11.64949,1.13979 -13.20034,1.94177 -3.21468,1.66237 -3.8125,1.72876 -3.8125,0.42336 0,-0.53882 1.90996,-1.95406 4.24436,-3.14498 4.05559,-2.06901 4.75275,-2.1155 15.67492,-1.04541 6.2868,0.61595 11.89184,1.58119 12.45564,2.14499 0.56379,0.56379 1.77998,1.02508 2.70264,1.02508 2.15757,0 4.10992,2.34824 3.42812,4.12325 -0.42461,1.10544 -4.46782,1.37675 -20.51734,1.37675 -10.99369,0 -19.98848,-0.25415 -19.98843,-0.56479 z m 99.05194,-26.335904 c -9.59649,-7.308527 -17.61391,-13.785489 -17.8165,-14.393248 -0.24993,-0.749795 1.69829,-1.010305 6.06047,-0.81039 6.22555,0.285311 6.78096,0.541332 17.56649,8.097377 11.22047,7.860747 14.31969,10.583447 7.38769,6.490169 -2.0625,-1.217886 -7.35,-4.280058 -11.75,-6.804827 -4.4,-2.524769 -8.48924,-5.234687 -9.0872,-6.022038 -0.59796,-0.787352 -1.72296,-1.180155 -2.5,-0.872896 -1.04078,0.411546 -0.95198,0.579441 0.3372,0.6376 0.9625,0.04342 1.75,0.467054 1.75,0.941406 0,1.502713 24.91946,15.301903 26.25022,14.536097 0.68738,-0.395563 0.91514,-0.349923 0.50614,0.101424 -0.409,0.451347 0.0986,1.41053 1.12792,2.131518 3.75529,2.630312 3.2012,9.449012 -0.75672,9.312272 -0.89516,-0.0309 -9.47923,-6.03594 -19.07571,-13.344464 z m 145.61786,-0.851551 c -1.57407,-1.15099 -1.62718,-2.626674 -0.65678,-18.25 C 380.5936,65.14899 381.49939,52.55 382.02579,46.5 c 0.52641,-6.05 0.96095,-13.8125 0.96566,-17.25 0.005,-3.4375 0.39825,-6.25 0.87456,-6.25 0.4763,0 1.8263,2.633702 3,5.852671 1.97921,5.428182 2.13399,7.788977 2.13399,32.54966 0,21.974515 -0.26988,27.218879 -1.52568,29.647329 -1.62505,3.142496 -4.01398,3.738655 -6.80461,1.698095 z M 329,85.366667 C 329,83.115148 327.20778,81 325.3,81 c -0.715,0 -2.23665,0.93665 -3.38144,2.081444 l -2.08145,2.081444 0.65583,-9.331444 C 320.85365,70.69915 321.7903,58.179476 322.57439,48.009946 323.35847,37.840416 324,26.927916 324,23.759946 324,20.591976 324.3897,18 324.86601,18 c 0.4763,0 1.79697,2.5875 2.93481,5.75 1.87811,5.219999 2.09296,8.351134 2.33087,33.969788 0.14414,15.520884 -0.0515,28.533384 -0.43481,28.916667 C 329.3136,87.019738 329,86.448333 329,85.366667 z"
       id="path2997"
       style="fill:#fefefe" />
    <path
       d="M 0,131 0,0 296.5,0 593,0 l 0,131 0,131 -296.5,0 L 0,262 0,131 z m 467.21371,110.26602 -4.28629,-0.38456 0.28629,-74.44099 C 463.4978,92.570764 463.48465,91.999475 461.5,91.999296 c -1.9778,-1.79e-4 -1.99666,0.566162 -1.69918,51.013454 l 0.30082,51.01362 -34.25049,-0.26318 -34.2505,-0.26319 -3.65215,-17.07952 c -3.42073,-15.99726 -3.93245,-22.69433 -1.8332,-23.99174 0.48658,-0.30072 0.8847,-4.79522 0.8847,-9.98776 L 387,133 l 3.84501,0 c 4.81447,0 7.68639,-2.74659 6.75446,-6.45971 C 397.13785,124.70104 397.35918,124 398.40149,124 c 0.79178,0 1.73611,1.35 2.09851,3 0.3624,1.65 1.07316,3 1.57946,3 1.18442,0 1.16134,-0.46424 -0.25865,-5.20375 -0.97807,-3.26449 -1.5324,-3.84332 -3.25,-3.3936 -1.13895,0.2982 -3.23636,0.0266 -4.66093,-0.60357 -2.41535,-1.06845 -2.67131,-1.84423 -3.79343,-11.49764 -0.66182,-5.69353 -0.90497,-10.83461 -0.54032,-11.424626 0.36465,-0.590015 0.5876,-15.163229 0.49545,-32.384921 -0.16011,-29.920646 -0.26808,-31.571691 -2.42959,-37.15203 -2.87857,-7.431582 -5.04527,-7.769029 -5.39266,-0.839863 -0.13786,2.75 -0.90872,14 -1.71302,25 -0.8043,11 -1.99571,29.25858 -2.64757,40.574622 -1.22809,21.318918 -0.962,24.204478 3.20189,34.722428 0.50016,1.26338 0.90937,6.27099 0.90937,11.12803 0,8.03266 -0.20216,8.9652 -2.23627,10.3158 -1.72123,1.14286 -1.98244,1.8043 -1.13419,2.87197 0.60614,0.76293 1.33664,2.51215 1.62334,3.88715 0.2867,1.375 1.27369,5.875 2.1933,10 0.91962,4.125 4.56368,21.675 8.0979,39 3.53423,17.325 6.66621,32.5125 6.95995,33.75 l 0.53407,2.25 -27.01905,0 C 356.15857,241 344,240.8557 344,240.67933 c 0,-0.6393 -7.84996,-39.25193 -8.52425,-41.92933 l -0.69257,-2.75 12.10841,0 c 16.07476,0 16.00503,-1.8487 -0.0837,-2.21922 L 334.61577,193.5 l -3.34153,-15 c -1.83784,-8.25 -3.35182,-17.5875 -3.3644,-20.75 -0.0226,-5.69251 -0.0523,-5.75 -2.96636,-5.75 -2.483,0 -2.94348,0.39612 -2.94348,2.53212 0,1.39266 0.69745,4.20136 1.54989,6.24154 1.91,4.57125 2.1,5.41116 10.00492,44.22634 3.52833,17.325 6.65548,32.5125 6.94922,33.75 l 0.53407,2.25 -28.01905,0 C 297.60857,241 285,240.8557 285,240.67933 c 0,-0.6393 -7.84996,-39.25193 -8.52425,-41.92933 l -0.69257,-2.75 10.10841,0 c 13.32454,0 13.2472,-1.84235 -0.093,-2.21502 L 275.59722,193.5 271.89675,176.18651 c -2.97928,-13.93922 -3.51188,-17.99654 -2.73277,-20.81821 0.6487,-2.34941 0.62494,-3.91771 -0.0721,-4.75758 -0.73742,-0.88854 -0.30489,-3.70394 1.48742,-9.68179 3.64225,-12.14793 3.31396,-11.43566 4.65347,-10.09615 0.64197,0.64197 3.31139,1.16722 5.93204,1.16722 3.8276,0 4.98744,-0.41598 5.89664,-2.11484 1.1174,-2.08787 0.91148,-5.77664 -0.50705,-9.08313 -0.62616,-1.45951 -0.13451,-1.67016 3.50101,-1.5 2.70856,0.12678 4.39323,-0.26721 4.68489,-1.09565 0.33175,-0.9423 -0.2536,-1.11566 -2.15542,-0.63833 -1.55151,0.3894 -3.22183,0.14823 -4.11663,-0.59439 -1.21833,-1.01113 -1.83626,-0.95297 -3.23702,0.30466 -0.95218,0.8549 -3.07399,1.7045 -4.71512,1.88802 -2.60835,0.29167 -3.23761,-0.16761 -5,-3.64936 -1.26486,-2.49885 -5.26752,-6.60726 -10.74177,-11.02558 -4.79911,-3.8734 -9.29911,-7.760102 -10,-8.637112 -0.70089,-0.87701 -6.65812,-5.353954 -13.23828,-9.948765 l -11.96392,-8.354202 -6.53608,-0.02566 c -5.09862,-0.02002 -6.53607,0.297969 -6.53607,1.44588 0,0.809348 7.875,7.431904 17.5,14.716791 15.9313,12.057938 24.76397,20.167128 32.20961,29.571318 l 2.7096,3.42235 -3.05924,11.35028 c -3.32903,12.35122 -3.37971,10.26348 0.6911,28.46772 0.86093,3.85 4.45738,21.175 7.99211,38.5 3.53473,17.325 6.66711,32.5125 6.96085,33.75 l 0.53407,2.25 -31.51905,0 C 233.18357,241 219,240.8557 219,240.67933 c 0,-0.6393 -7.84996,-39.25193 -8.52425,-41.92933 l -0.69257,-2.75 18.10841,0 C 239.01858,196 246,195.62316 246,195.02256 c 0,-0.5908 -7.19934,-1.08526 -18.20022,-1.25 L 209.59957,193.5 205.90838,176.23542 c -2.86624,-13.40611 -3.50023,-18.09941 -2.83678,-21 0.71339,-3.11891 0.53923,-3.98299 -1.05521,-5.23542 -1.87163,-1.47017 -1.85793,-1.70884 0.68845,-12 l 2.59806,-10.5 4.4369,0 c 5.21254,0 8.2602,-2.85053 8.2602,-7.72591 0,-3.42572 -5.29712,-9.05426 -10.71788,-11.38846 C 203.48604,106.75103 203,106.69845 203,107.92245 c 0,0.50734 1.64262,1.46456 3.65026,2.12714 l 3.65026,1.20469 -3.05481,1.28446 c -1.68015,0.70644 -3.35309,2.22423 -3.71765,3.37285 -0.77793,2.45105 -1.35713,2.53227 -3.96919,0.55661 C 198.31262,115.52558 195.28179,115 191.0923,115 c -3.58899,0 -8.34048,-0.63455 -10.55887,-1.41012 -2.21839,-0.77556 -10.86634,-1.9506 -19.21766,-2.6112 -15.18101,-1.20083 -15.18516,-1.20058 -19.5,1.17963 -2.37368,1.30939 -4.31577,3.04693 -4.31577,3.8612 0,0.81427 -0.67429,2.0062 -1.49843,2.64873 -0.82413,0.64253 -1.13566,1.531 -0.69229,1.97437 0.44338,0.44338 9.44267,0.84725 19.99843,0.8975 15.90364,0.0757 19.96338,0.39653 23.69229,1.87232 2.475,0.97954 7.40545,2.19879 10.95655,2.70945 3.5511,0.51067 6.81221,1.47965 7.2469,2.1533 0.4347,0.67365 0.45426,3.92482 0.0435,7.22482 -1.19015,9.56064 -0.6697,20.57173 1.18127,24.99154 2.04233,4.87676 2.16716,5.4254 10.12663,44.50846 3.52833,17.325 6.65548,32.5125 6.94922,33.75 l 0.53407,2.25 -54.01905,0 C 132.30857,241 108,240.8557 108,240.67933 108,240.04003 100.15004,201.4274 99.475754,198.75 l -0.69257,-2.75 19.108406,0 C 129.96386,196 137,195.63178 137,195 c 0,-0.56874 -3.12661,-1.02799 -7.25,-1.06491 l -7.25,-0.0649 -6.18964,-7.18508 C 110.51359,179.95606 106.19645,174.60357 96.5,162.12373 c -5.760167,-7.41363 -7.144588,-17.25097 -4.22708,-30.03655 1.094963,-4.79852 1.531257,-5.42577 3.844398,-5.52703 C 100.29514,126.37726 106,121.4392 106,118.00581 106,114.68938 102.91299,112 99.106234,112 c -1.346814,0 -3.210375,-0.68926 -4.141246,-1.53169 -1.523791,-1.37901 -2.004473,-1.35409 -4.822418,0.25 -3.306471,1.88219 -4.369563,4.0008 -1.39257,2.77523 0.9625,-0.39625 2.65,-0.96106 3.75,-1.25515 1.82075,-0.48678 1.78272,-0.29736 -0.424314,2.11346 C 90.742313,115.80833 89.094815,117 88.41458,117 c -2.213757,0 -6.364254,6.01172 -7.812926,11.3165 -0.778552,2.85093 -1.971166,9.99891 -2.650253,15.88442 -1.50983,13.08538 -0.997925,14.68893 7.075189,22.16321 l 5.777758,5.34919 6.661167,32.89334 c 3.663645,18.09134 6.883385,33.66634 7.154985,34.61111 0.44342,1.54245 -0.71124,1.75014 -11.313342,2.03497 -6.493937,0.17446 75.942842,0.33534 183.192842,0.35752 107.25,0.0222 193.07117,-0.13273 190.71371,-0.34424 z M 401,240.67933 c 0,-0.6393 -7.84996,-39.25193 -8.52425,-41.92933 l -0.69257,-2.75 34.10841,0 34.10841,0 0,22.5 0,22.5 -29.5,0 C 414.275,241 401,240.8557 401,240.67933 z M 98.534811,192.75 C 98.004016,191.10123 95,177.28119 95,176.48802 c 0,-1.05279 12.96173,10.77303 15.60227,14.23494 l 2.49951,3.27704 -7.08227,0 c -4.78453,0 -7.212839,-0.40555 -7.484699,-1.25 z M 328.02022,147.96223 c 0.59982,-1.12078 0.80878,-2.92565 0.46435,-4.01084 -0.50963,-1.60572 -0.05,-2.08831 2.46899,-2.5921 1.80981,-0.36196 3.96096,-1.83488 5.17992,-3.54674 2.66923,-3.74859 1.48847,-5.0798 -1.42773,-1.60965 -1.21316,1.4436 -3.1786,2.90626 -4.36764,3.25034 -1.80118,0.52122 -2.27326,0.11849 -2.82945,-2.41382 C 327.1415,135.36774 327.1376,132.65 327.5,131 c 0.58985,-2.68555 1.05361,-3 4.42447,-3 5.08942,0 7.54618,-2.71229 6.77291,-7.47738 -0.72868,-4.49033 1.82651,-4.96681 2.80262,-0.52262 0.3624,1.65 1.07316,3 1.57946,3 1.30189,0 1.147,-1.52225 -0.57401,-5.6412 -1.10462,-2.64373 -1.92369,-3.41228 -3.13941,-2.94577 -0.90467,0.34716 -2.86017,0.0932 -4.34556,-0.56426 -2.5519,-1.12958 -2.76702,-1.76587 -3.90403,-11.54733 -0.66182,-5.693527 -0.88379,-10.868881 -0.49325,-11.500782 0.39054,-0.631901 0.60637,-14.773486 0.47963,-31.425744 -0.21841,-28.697591 -0.34759,-30.579312 -2.47665,-36.075874 -2.9447,-7.602306 -5.03422,-7.718239 -5.38973,-0.29904 -0.14495,3.025 -0.91369,14.05 -1.7083,24.5 -0.79462,10.45 -1.98176,28.02871 -2.63809,39.063799 -1.23582,20.778021 -0.96154,23.714751 3.19634,34.223971 0.55689,1.40756 0.51179,4.04299 -0.11722,6.84977 -0.56231,2.50911 -0.73532,6.09211 -0.38448,7.96223 0.58082,3.09605 0.42419,3.40023 -1.7509,3.40023 -2.85317,0 -6.8338,-2.58292 -6.8338,-4.43426 0,-0.72647 0.675,-1.88105 1.5,-2.56574 1.23868,-1.02801 1.5,-0.93187 1.5,0.55187 0,1.58185 0.29903,1.51584 2.5,-0.55187 1.375,-1.29175 2.5,-2.66545 2.5,-3.05268 0,-0.81257 -8.22201,-3.05865 -8.86023,-2.42042 -0.23362,0.23362 0.0521,0.99942 0.63505,1.70177 0.75981,0.91552 0.65862,1.82567 -0.3575,3.21529 -1.96605,2.68874 -1.79042,3.86142 1.03493,6.91002 1.59492,1.72095 3.49421,2.64602 5.43261,2.64602 3.03853,0 5.00368,2.7533 3.5936,5.03486 -0.80369,1.30039 1.28556,3.96514 3.1088,3.96514 0.73831,0 1.83313,-0.917 2.43296,-2.03777 z M 67.02582,137.84692 c 1.613112,-9.56361 7.536384,-22.10907 13.378904,-28.33645 3.733951,-3.97991 4.863823,-4.69399 5.583849,-3.52896 0.496475,0.80331 1.094919,1.2486 1.329878,0.98953 1.065443,-1.17479 3.786006,-7.199916 3.417443,-7.568479 -0.403025,-0.403025 -6.777881,1.499659 -7.706934,2.300269 -0.259071,0.22325 0.137886,0.78225 0.882128,1.24222 1.063708,0.65741 0.950557,0.97764 -0.52896,1.49703 -5.583091,1.95995 -16.212452,21.02012 -18.251171,32.72731 C 63.768238,144.9947 63.768088,145 64.909649,145 c 0.500306,0 1.452584,-3.21889 2.116171,-7.15308 z"
       id="path2995"
       style="fill:#bfbfbf" />
    <path
       d="m 64,144.33191 c 0,-4.14291 2.949112,-15.16491 5.634017,-21.05655 3.682026,-8.07967 10.768482,-17.78728 13.748111,-18.83328 1.479517,-0.51939 1.592668,-0.83962 0.52896,-1.49703 -0.744242,-0.45997 -1.141199,-1.01897 -0.882128,-1.24222 0.929053,-0.80061 7.303909,-2.703294 7.706934,-2.300269 0.368563,0.368563 -2.352,6.393689 -3.417443,7.568479 -0.234959,0.25907 -0.833403,-0.18622 -1.329878,-0.98953 -0.720026,-1.16503 -1.849898,-0.45095 -5.583849,3.52896 -5.84252,6.22738 -11.765792,18.77284 -13.378904,28.33645 C 66.362233,141.78111 65.409955,145 64.909649,145 64.409342,145 64,144.69936 64,144.33191 z m 255.64982,-3.27261 c -3.45951,-0.48037 -5.38854,-1.37392 -6.72777,-3.11638 -2.26931,-2.9526 -2.34887,-3.97695 -0.50473,-6.49896 1.01612,-1.38962 1.11731,-2.29977 0.3575,-3.21529 -0.5829,-0.70235 -0.86867,-1.46815 -0.63505,-1.70177 0.63822,-0.63823 8.86023,1.60785 8.86023,2.42042 0,0.38723 -1.125,1.76093 -2.5,3.05268 -2.20097,2.06771 -2.5,2.13372 -2.5,0.55187 0,-1.48374 -0.26132,-1.57988 -1.5,-0.55187 -4.31897,3.58443 0.63849,7.03455 10.49482,7.30381 6.86224,0.18746 7.28692,0.0645 9.54915,-2.76473 3.00165,-3.75398 4.38194,-2.64814 1.58951,1.27347 -1.23438,1.73352 -3.36931,3.18462 -5.23409,3.55757 -3.46092,0.69219 -4.1666,0.67269 -11.24957,-0.31082 z"
       id="path2993"
       style="fill:#fe0000" />
    <path
       d="m 78.405802,156.48071 c -0.887686,-3.53682 2.178237,-26.40065 4.22671,-31.52029 l 1.69995,-4.24859 1.228651,4.83892 c 0.775827,3.05552 1.032868,8.39192 0.697432,14.47935 -0.516363,9.37086 -0.594836,9.62827 -2.806363,9.20551 -2.915363,-0.55731 -4.831397,2.76135 -3.9393,6.82304 0.786205,3.57957 -0.218465,3.96258 -1.10708,0.42206 z M 189,125.03702 c -2.475,-0.38266 -6.41822,-1.24142 -8.76272,-1.90835 -3.86272,-1.09882 -4.16021,-1.40415 -3.1703,-3.25383 1.29379,-2.41746 -0.90731,-5.49542 -4.42141,-6.18279 -1.41087,-0.27598 -1.02169,-0.46632 1.13655,-0.55587 1.80516,-0.0749 4.89762,0.53882 6.87212,1.36382 1.97657,0.82586 6.5952,1.5 10.27675,1.5 4.0795,0 7.41642,0.53354 8.5581,1.36836 1.80842,1.32236 1.79804,1.40761 -0.30887,2.53519 -1.33501,0.71447 -2.18022,2.12236 -2.18022,3.63163 0,2.667 -0.20953,2.70634 -8,1.50184 z m 75.70676,-4.6471 c -1.37224,-2.13946 -4.31791,-5.6446 -6.54593,-7.78922 l -4.05094,-3.8993 2.44575,-1.92383 c 1.88894,-1.48584 2.3002,-2.50375 1.80643,-4.47109 -0.55944,-2.22902 0.31761,-1.77144 7.0198,3.66241 9.18515,7.44693 13.78415,14.6718 8.4517,13.27734 -1.58188,-0.41367 -2.76887,0.18899 -4.39913,2.23353 l -2.2327,2.80007 -2.49498,-3.88991 z m 122.84494,0.77297 c -0.74284,-2.34049 -4.35181,-2.96278 -6.23883,-1.07576 -0.78285,0.78285 -1.27964,0.77565 -1.77491,-0.0257 -1.26225,-2.04236 -1.80235,-11.74751 -1.08173,-19.43761 0.65496,-6.98942 0.86202,-7.523855 2.56241,-6.613832 3.15492,1.688459 4.93587,1.112839 6.99232,-2.259978 2.16604,-3.55256 2.46198,-2.42403 0.98338,3.75 -0.63653,2.657886 -0.57564,7.37446 0.18147,14.05715 0.7926,6.99588 0.82331,10.62201 0.10089,11.91289 -0.98501,1.76012 -1.0739,1.7443 -1.725,-0.30715 z m -59,-7 c -0.74284,-2.34049 -4.35181,-2.96278 -6.23883,-1.07576 -4.22195,4.22195 -4.41854,-24.449835 -0.1987,-28.979303 2.38887,-2.564153 4.75366,-2.717785 5.50789,-0.357827 0.30761,0.9625 1.02157,2.719591 1.58657,3.904647 0.56499,1.185056 0.72965,2.636209 0.36589,3.224785 -0.36376,0.588575 -0.12091,5.719701 0.53966,11.402498 0.83831,7.21176 0.88739,10.89285 0.16252,12.18811 -0.98501,1.76012 -1.0739,1.7443 -1.725,-0.30715 z"
       id="path2991"
       style="fill:#0000fe" />
    <path
       d="m 93.307158,241.25274 c 10.602102,-0.28483 11.756762,-0.49252 11.313342,-2.03497 -0.2716,-0.94477 -3.49134,-16.51977 -7.154985,-34.61111 l -6.661167,-32.89334 -5.777758,-5.34919 c -8.073114,-7.47428 -8.585019,-9.07783 -7.075189,-22.16321 0.679087,-5.88551 1.871701,-13.03349 2.650253,-15.88442 C 82.050326,123.01172 86.200823,117 88.41458,117 c 0.680235,0 2.327733,-1.19167 3.661106,-2.64815 2.207034,-2.41082 2.245064,-2.60024 0.424314,-2.11346 -1.1,0.29409 -2.7875,0.8589 -3.75,1.25515 -2.976993,1.22557 -1.913901,-0.89304 1.39257,-2.77523 2.817945,-1.60409 3.298627,-1.62901 4.822418,-0.25 C 95.895859,111.31074 97.75942,112 99.106234,112 102.91299,112 106,114.68938 106,118.00581 c 0,3.43339 -5.70486,8.37145 -9.882682,8.55434 -2.313141,0.10126 -2.749435,0.72851 -3.844398,5.52703 -2.917508,12.78558 -1.533087,22.62292 4.22708,30.03655 9.69645,12.47984 14.01359,17.83233 19.81036,24.56136 l 6.18964,7.18508 7.25,0.0649 c 4.12339,0.0369 7.25,0.49617 7.25,1.06491 0,0.63178 -7.03614,1 -19.10841,1 l -19.108406,0 0.69257,2.75 C 100.15004,201.4274 108,240.04003 108,240.67933 108,240.8557 132.30857,241 162.01905,241 l 54.01905,0 -0.53407,-2.25 c -0.29374,-1.2375 -3.42089,-16.425 -6.94922,-33.75 -7.95947,-39.08306 -8.0843,-39.6317 -10.12663,-44.50846 -1.85097,-4.41981 -2.37142,-15.4309 -1.18127,-24.99154 0.4108,-3.3 0.39124,-6.55117 -0.0435,-7.22482 -0.43469,-0.67365 -3.6958,-1.64263 -7.2469,-2.1533 -3.5511,-0.51066 -8.48155,-1.72991 -10.95655,-2.70945 -3.72891,-1.47579 -7.78865,-1.79661 -23.69229,-1.87232 -10.55576,-0.0503 -19.55505,-0.45412 -19.99843,-0.8975 -0.44337,-0.44337 -0.13184,-1.33184 0.69229,-1.97437 0.82414,-0.64253 1.49843,-1.83446 1.49843,-2.64873 0,-0.81427 1.94209,-2.55181 4.31577,-3.8612 4.31484,-2.38021 4.31899,-2.38046 19.5,-1.17963 8.35132,0.6606 16.99927,1.83564 19.21766,2.6112 2.21839,0.77557 6.96988,1.41012 10.55887,1.41012 4.18949,0 7.22032,0.52558 8.46657,1.4682 2.61206,1.97566 3.19126,1.89444 3.96919,-0.55661 0.36456,-1.14862 2.0375,-2.66641 3.71765,-3.37285 l 3.05481,-1.28446 -3.65026,-1.20469 C 204.64262,109.38701 203,108.42979 203,107.92245 c 0,-1.224 0.48604,-1.17142 4.28212,0.46318 5.42076,2.3342 10.71788,7.96274 10.71788,11.38846 0,4.87538 -3.04766,7.72591 -8.2602,7.72591 l -4.4369,0 -2.59806,10.5 c -2.54638,10.29116 -2.56008,10.52983 -0.68845,12 1.59444,1.25243 1.7686,2.11651 1.05521,5.23542 -0.66345,2.90059 -0.0295,7.59389 2.83678,21 l 3.69119,17.26458 18.20021,0.27256 C 238.80066,193.9373 246,194.43176 246,195.02256 246,195.62316 239.01858,196 227.89159,196 l -18.10841,0 0.69257,2.75 C 211.15004,201.4274 219,240.04003 219,240.67933 219,240.8557 233.18357,241 250.51905,241 l 31.51905,0 -0.53407,-2.25 c -0.29374,-1.2375 -3.42612,-16.425 -6.96085,-33.75 -3.53473,-17.325 -7.13118,-34.65 -7.99211,-38.5 -4.07081,-18.20424 -4.02013,-16.1165 -0.6911,-28.46772 l 3.05924,-11.35028 -2.7096,-3.42235 C 258.76397,113.85546 249.9313,105.74627 234,93.688332 224.375,86.403445 216.5,79.780889 216.5,78.971541 c 0,-1.147911 1.43745,-1.465898 6.53607,-1.44588 l 6.53608,0.02566 11.96392,8.354202 c 6.58016,4.594811 12.53739,9.071755 13.23828,9.948765 0.70089,0.87701 5.20089,4.763712 10,8.637112 5.47425,4.41832 9.47691,8.52673 10.74177,11.02558 1.76239,3.48175 2.39165,3.94103 5,3.64936 1.64113,-0.18352 3.76294,-1.03312 4.71512,-1.88802 1.40076,-1.25763 2.01869,-1.31579 3.23702,-0.30466 0.8948,0.74262 2.56512,0.98379 4.11663,0.59439 1.90182,-0.47733 2.48717,-0.30397 2.15542,0.63833 -0.29166,0.82844 -1.97633,1.22243 -4.68489,1.09565 -3.63552,-0.17016 -4.12717,0.0405 -3.50101,1.5 1.41853,3.30649 1.62445,6.99526 0.50705,9.08313 -0.9092,1.69886 -2.06904,2.11484 -5.89664,2.11484 -2.62065,0 -5.29007,-0.52525 -5.93204,-1.16722 -1.33951,-1.33951 -1.01122,-2.05178 -4.65347,10.09615 -1.79231,5.97785 -2.22484,8.79325 -1.48742,9.68179 0.69703,0.83987 0.72079,2.40817 0.0721,4.75758 -0.77911,2.82167 -0.24651,6.87899 2.73277,20.81821 l 3.70047,17.31349 10.20139,0.28498 C 299.1388,194.15765 299.21614,196 285.89162,196 l -10.10841,0 0.69257,2.75 C 277.15004,201.4274 285,240.04003 285,240.67933 285,240.8557 297.60857,241 313.01905,241 l 28.01905,0 -0.53407,-2.25 c -0.29374,-1.2375 -3.42089,-16.425 -6.94922,-33.75 -7.90492,-38.81518 -8.09492,-39.65509 -10.00492,-44.22634 C 322.69745,158.73348 322,155.92478 322,154.53212 322,152.39612 322.46048,152 324.94348,152 c 2.91405,0 2.94371,0.0575 2.96636,5.75 0.0126,3.1625 1.52656,12.5 3.3644,20.75 l 3.34153,15 12.19212,0.28078 C 362.89662,194.1513 362.96635,196 346.89159,196 l -12.10841,0 0.69257,2.75 C 336.15004,201.4274 344,240.04003 344,240.67933 344,240.8557 356.15857,241 371.01905,241 l 27.01905,0 -0.53407,-2.25 c -0.29374,-1.2375 -3.42572,-16.425 -6.95995,-33.75 -3.53422,-17.325 -7.17828,-34.875 -8.0979,-39 -0.91961,-4.125 -1.9066,-8.625 -2.1933,-10 -0.2867,-1.375 -1.0172,-3.12422 -1.62334,-3.88715 -0.84825,-1.06767 -0.58704,-1.72911 1.13419,-2.87197 2.03411,-1.3506 2.23627,-2.28314 2.23627,-10.3158 0,-4.85704 -0.40921,-9.86465 -0.90937,-11.12803 -4.16389,-10.51795 -4.42998,-13.40351 -3.20189,-34.722428 C 378.5406,81.75858 379.73201,63.5 380.53631,52.5 c 0.8043,-11 1.57516,-22.25 1.71302,-25 0.34739,-6.929166 2.51409,-6.591719 5.39266,0.839863 2.16151,5.580339 2.26948,7.231384 2.42959,37.15203 0.0922,17.221692 -0.1308,31.794906 -0.49545,32.384921 -0.36465,0.590016 -0.1215,5.731096 0.54032,11.424626 1.12212,9.65341 1.37808,10.42919 3.79343,11.49764 1.42457,0.63016 3.52198,0.90177 4.66093,0.60357 1.7176,-0.44972 2.27193,0.12911 3.25,3.3936 1.41999,4.73951 1.44307,5.20375 0.25865,5.20375 -0.5063,0 -1.21706,-1.35 -1.57946,-3 -0.3624,-1.65 -1.30673,-3 -2.09851,-3 -1.04231,0 -1.26364,0.70104 -0.80202,2.54029 C 398.5314,130.25341 395.65948,133 390.84501,133 L 387,133 l 0,9.44098 c 0,5.19254 -0.39812,9.68704 -0.8847,9.98776 -2.09925,1.29741 -1.58753,7.99448 1.8332,23.99174 l 3.65215,17.07952 34.2505,0.26319 34.25049,0.26318 -0.30082,-51.01362 C 459.50334,92.565458 459.5222,91.999117 461.5,91.999296 c 1.98465,1.79e-4 1.9978,0.571468 1.71371,74.441174 l -0.28629,74.44099 4.28629,0.38456 C 469.57117,241.47753 383.75,241.63244 276.5,241.61026 169.25,241.58808 86.813221,241.4272 93.307158,241.25274 z M 460,218.5 l 0,-22.5 -34.10841,0 -34.10841,0 0.69257,2.75 C 393.15004,201.4274 401,240.04003 401,240.67933 401,240.8557 414.275,241 430.5,241 l 29.5,0 0,-22.5 z M 110.60227,190.72296 C 107.96173,187.26105 95,175.43523 95,176.48802 c 0,0.79317 3.004016,14.61321 3.534811,16.26198 0.27186,0.84445 2.700169,1.25 7.484699,1.25 l 7.08227,0 -2.49951,-3.27704 z M 121,193.12244 c 0,-0.48265 -0.72976,-1.4832 -1.62169,-2.22343 -2.1519,-1.78592 -15.2699,-17.32285 -18.98003,-22.4799 -4.189988,-5.82406 -8.416898,-10.73383 -8.859721,-10.291 -0.208585,0.20858 0.302208,3.75259 1.135094,7.87557 l 1.514339,7.49632 9.959178,9.68439 c 5.47755,5.32642 10.49775,9.90339 11.15601,10.17105 2.0545,0.83542 5.69682,0.68645 5.69682,-0.233 z M 89.988193,168.25 c -0.02404,-1.52717 -3.806522,-16.14703 -4.444779,-17.17975 -1.051063,-1.70066 -4.360841,-1.24129 -4.897679,0.67975 -1.294628,4.63275 0.11759,9.4233 3.928377,13.3259 3.665351,3.75366 5.43958,4.79383 5.414081,3.1741 z M 79.512882,156.05865 c -0.892097,-4.06169 1.023937,-7.38035 3.9393,-6.82304 2.211527,0.42276 2.29,0.16535 2.806363,-9.20551 0.335436,-6.08743 0.0784,-11.42383 -0.697432,-14.47935 l -1.228651,-4.83892 -1.69995,4.24859 c -2.048473,5.11964 -5.114396,27.98347 -4.22671,31.52029 0.888615,3.54052 1.893285,3.15751 1.10708,-0.42206 z m 10.548471,-6.91053 c -0.980964,-2.36826 -0.880463,-4.67537 0.535024,-12.28207 2.274805,-12.22459 2.348458,-16.8429 0.289546,-18.15541 -0.887743,-0.56591 -2.407866,-0.72433 -3.378052,-0.35203 -1.500097,0.57564 -1.650927,1.3848 -1.008276,5.40914 0.415633,2.60274 0.656584,9.37577 0.535446,15.05118 -0.184326,8.63585 0.0657,10.6349 1.53289,12.25613 2.317956,2.56132 2.992177,1.69137 1.493422,-1.92694 z M 203,152.41029 c 0,-0.32434 -0.89241,-1.33684 -1.98314,-2.25 -1.9701,-1.64937 -1.96381,-1.73595 0.95556,-13.16029 2.76597,-10.82405 3.04423,-16 0.86015,-16 -0.52283,0 -0.67038,-0.45341 -0.32788,-1.00759 0.34849,-0.56387 -0.54365,-0.47615 -2.02584,0.19918 -2.4169,1.10122 -2.60892,1.60479 -2.19542,5.75759 0.24922,2.50295 -0.0122,8.86934 -0.58096,14.14754 -0.56875,5.27819 -0.7486,10.34069 -0.39966,11.25 0.57949,1.51013 5.69719,2.46552 5.69719,1.06357 z M 269,152.2 c 0,-0.44 -0.43514,-1.23514 -0.96697,-1.76697 -1.20514,-1.20514 3.79749,-18.46058 6.1166,-21.09784 3.72672,-4.23795 3.05134,-9.33519 -1.23689,-9.33519 -2.09001,0 -4.32924,3.47225 -3.54954,5.50409 0.28446,0.7413 -0.80324,6.21864 -2.41711,12.17186 C 263.25296,151.2991 263.20344,153 266.5,153 c 1.375,0 2.5,-0.36 2.5,-0.8 z m 117,-9.15078 c 0,-4.92293 0.48115,-11.19431 1.06922,-13.9364 1.29416,-6.03442 0.0139,-9.40764 -3.38688,-8.9235 -1.88909,0.26893 -2.14165,0.84818 -1.87952,4.31068 0.16654,2.2 0.53345,8.36532 0.81535,13.70071 0.4763,9.01479 0.3665,9.79192 -1.55282,10.99055 C 378.0538,151.07201 378.5278,152 382.5,152 l 3.5,0 0,-8.95078 z m 5,-11.85809 c 0,-0.44488 -0.66069,-1.68238 -1.4682,-2.75 -1.4063,-1.85929 -1.46953,-1.82519 -1.5,0.80887 -0.0207,1.79191 0.49079,2.75 1.4682,2.75 0.825,0 1.5,-0.36399 1.5,-0.80887 z M 283,129.72251 C 283,128.08522 280.15626,124 279.01654,124 c -1.11576,0 -3.98532,5.69789 -3.24327,6.43994 1.15269,1.15268 7.22673,0.54968 7.22673,-0.71743 z m -69.37997,-3.76815 2.75024,-1.04563 -3.08733,-3.08732 c -2.4506,-2.45061 -3.62308,-2.95286 -5.68513,-2.43532 -2.75611,0.69174 -3.25725,2.51322 -1.56263,5.67965 1.15914,2.16587 3.50313,2.44049 7.58485,0.88862 z m -113.51325,-1.83974 c 1.99611,-1.61636 2.13714,-2.11578 0.98834,-3.5 C 100.35812,119.72658 98.27734,119 96.471175,119 c -3.38124,0 -3.527125,0.43835 -1.913647,5.75 0.547717,1.80311 2.865588,1.53772 5.549252,-0.63538 z M 197,123.53518 c 0,-1.50927 0.84521,-2.91716 2.18022,-3.63163 2.10691,-1.12758 2.11729,-1.21283 0.30887,-2.53519 -1.14168,-0.83482 -4.4786,-1.36836 -8.5581,-1.36836 -3.68155,0 -8.30018,-0.67414 -10.27675,-1.5 -1.9745,-0.825 -5.06696,-1.43872 -6.87212,-1.36382 -2.15824,0.0896 -2.54742,0.27989 -1.13655,0.55587 3.5141,0.68737 5.7152,3.76533 4.42141,6.18279 -0.98991,1.84968 -0.69242,2.15501 3.1703,3.25383 4.02414,1.14473 11.13672,2.44178 15.01272,2.73772 1.22948,0.0939 1.75,-0.59953 1.75,-2.33121 z m 76.83357,-4.28895 c 5.33245,1.39446 0.73345,-5.83041 -8.4517,-13.27734 -6.70219,-5.43385 -7.57924,-5.89143 -7.0198,-3.66241 0.49377,1.96734 0.0825,2.98525 -1.80643,4.47109 l -2.44575,1.92383 4.05094,3.8993 c 2.22802,2.14462 5.17369,5.64976 6.54593,7.78922 l 2.49498,3.88991 2.2327,-2.80007 c 1.63026,-2.04454 2.81725,-2.6472 4.39913,-2.23353 z m 115.28061,-9.9643 c -0.66057,-5.6828 -0.90206,-10.816124 -0.53664,-11.40739 0.36542,-0.591265 0.59007,-15.092419 0.49922,-32.224784 C 388.92373,36.79259 388.75776,34.076806 386.82179,28.75 385.67242,25.5875 384.34231,23 383.86601,23 c -0.47631,0 -0.86986,2.8125 -0.87456,6.25 -0.005,3.4375 -0.43925,11.2 -0.96566,17.25 -0.5264,6.05 -1.43219,18.64899 -2.01286,27.997755 -0.9704,15.623326 -0.91729,17.09901 0.65678,18.25 2.73457,1.999567 5.15158,1.463918 6.75832,-1.497755 0.82054,-1.5125 1.50991,-2.237353 1.53193,-1.610784 0.022,0.626569 -0.82073,2.201569 -1.87278,3.5 -1.70545,2.104846 -2.23943,2.237736 -4.92546,1.225785 l -3.01263,-1.134999 -0.7027,7.498828 c -0.71222,7.60045 -0.16455,17.30015 1.09157,19.33259 0.49527,0.80136 0.99206,0.80856 1.77491,0.0257 1.88702,-1.88702 5.49599,-1.26473 6.23883,1.07576 0.6511,2.05145 0.73999,2.06727 1.725,0.30715 0.72487,-1.29526 0.67579,-4.97635 -0.16252,-12.18811 z m -212.6085,9.84132 C 177.18748,117.34824 175.23513,115 173.07756,115 c -0.92266,0 -2.13885,-0.46129 -2.70264,-1.02508 -0.5638,-0.5638 -6.16884,-1.52904 -12.45564,-2.14499 -10.92217,-1.07009 -11.61933,-1.0236 -15.67492,1.04541 -2.3344,1.19092 -4.24436,2.60616 -4.24436,3.14498 0,1.3054 0.59782,1.23901 3.8125,-0.42336 1.55085,-0.80198 7.20593,-1.63384 13.20034,-1.94177 l 10.48716,-0.53873 -11,1.24934 c -9.70801,1.1026 -18.4998,3.74935 -18.50009,5.56941 -5e-5,0.31064 8.99474,0.56479 19.98843,0.56479 16.04952,0 20.09273,-0.27131 20.51734,-1.37675 z M 256.7889,105.75 c 1.45297,-1.75686 0.32726,-6.555227 -1.90462,-8.118502 -1.02936,-0.720988 -1.53692,-1.680171 -1.12792,-2.131518 0.409,-0.451347 0.18124,-0.496987 -0.50614,-0.101424 C 251.91946,96.164362 227,82.365172 227,80.862459 c 0,-0.474352 -0.7875,-0.897985 -1.75,-0.941406 -1.28918,-0.05816 -1.37798,-0.226054 -0.3372,-0.6376 0.77704,-0.307259 1.90204,0.08554 2.5,0.872896 0.59796,0.787351 4.6872,3.497269 9.0872,6.022038 4.4,2.524769 9.6875,5.586941 11.75,6.804827 6.932,4.093278 3.83278,1.370578 -7.38769,-6.490169 -10.78553,-7.556045 -11.34094,-7.812066 -17.56649,-8.097377 -4.36218,-0.199915 -6.3104,0.0606 -6.06047,0.81039 0.57963,1.738891 35.07557,27.674942 36.89221,27.737712 0.89515,0.0309 2.09275,-0.50627 2.66134,-1.19377 z m 66.54926,43 c -0.42893,-0.6875 -0.83451,-2.75474 -0.9013,-4.59387 -0.0899,-2.47609 0.11298,-2.925 0.78184,-1.72982 0.4968,0.88773 0.6198,2.50718 0.27333,3.5988 -0.42588,1.34183 -0.089,2.19231 1.03994,2.62553 2.17234,0.83361 3.63301,-1.45806 2.96424,-4.65064 -0.46235,-2.20721 -0.39199,-2.28226 0.60083,-0.64084 0.81785,1.35214 0.82744,2.51117 0.0352,4.25 -1.17815,2.58575 -3.54167,3.1482 -4.79406,1.14084 z m 3.09727,-12.24247 c -0.36035,-1.92086 -0.38546,-4.19536 -0.0558,-5.05444 0.32966,-0.85909 1.0644,-4.47284 1.63274,-8.03055 1.20626,-7.55086 0.17118,-10.73167 -3.33003,-10.23322 -1.87834,0.2674 -2.1476,0.86788 -1.93294,4.31068 0.33724,5.40867 0.34943,7.37954 0.0944,15.24588 -0.19293,5.94958 -0.32154,6.3492 -1.08954,3.3854 -0.53153,-2.05126 -0.46395,-5.25746 0.17346,-8.22964 0.63838,-2.97665 0.69626,-5.74998 0.14892,-7.1354 C 317.92776,110.26476 317.65471,107.334 318.89006,86.563799 319.54639,75.52871 320.73353,57.95 321.52815,47.5 c 0.79461,-10.45 1.56335,-21.475 1.7083,-24.5 0.35551,-7.419199 2.44503,-7.303266 5.38973,0.29904 2.12906,5.496562 2.25824,7.378283 2.47665,36.075874 0.12674,16.652258 -0.0891,30.793843 -0.47963,31.425744 -0.39054,0.631901 -0.16857,5.807255 0.49325,11.500782 1.13701,9.78146 1.35213,10.41775 3.90403,11.54733 1.48539,0.6575 3.44089,0.91142 4.34556,0.56426 1.21572,-0.46651 2.03479,0.30204 3.13941,2.94577 1.72101,4.11895 1.8759,5.6412 0.57401,5.6412 -0.5063,0 -1.21706,-1.35 -1.57946,-3 -0.97611,-4.44419 -3.5313,-3.96771 -2.80262,0.52262 0.77327,4.76509 -1.68349,7.47738 -6.77291,7.47738 -3.37086,0 -3.83462,0.31445 -4.42447,3 -0.3624,1.65 -0.3624,4.35 0,6 0.3624,1.65 0.41855,3 0.12477,3 -0.29378,0 -0.82898,-1.57161 -1.18934,-3.49247 z M 332,125.19113 c 0,-0.99488 -0.66069,-2.68238 -1.4682,-3.75 -1.37587,-1.81907 -1.47019,-1.70533 -1.5,1.80887 -0.0227,2.6808 0.39588,3.75 1.4682,3.75 0.825,0 1.5,-0.81399 1.5,-1.80887 z m -1.88582,-22.9092 c -0.66057,-5.682797 -0.90342,-10.813923 -0.53966,-11.402498 0.36376,-0.588576 0.1991,-2.039729 -0.36589,-3.224785 -0.565,-1.185056 -1.27896,-2.942147 -1.58657,-3.904647 -0.75423,-2.359958 -3.11902,-2.206326 -5.50789,0.357827 -2.28344,2.450982 -3.70976,13.832471 -2.81723,22.480293 0.65607,6.35667 1.44918,8.06576 3.01593,6.49901 1.88702,-1.88702 5.49599,-1.26473 6.23883,1.07576 0.6511,2.05145 0.73999,2.06727 1.725,0.30715 0.72487,-1.29526 0.67579,-4.97635 -0.16252,-12.18811 z m 0.0175,-44.562142 C 329.89378,32.101134 329.67893,28.969999 327.80082,23.75 326.66298,20.5875 325.34231,18 324.86601,18 324.3897,18 324,20.591976 324,23.759946 c 0,3.16797 -0.64153,14.08047 -1.42561,24.25 -0.78409,10.16953 -1.72074,22.689204 -2.08145,27.821498 l -0.65583,9.331444 2.08145,-2.081444 C 323.06335,81.93665 324.585,81 325.3,81 c 1.90778,0 3.7,2.115148 3.7,4.366667 0,1.081666 0.3136,1.653071 0.69688,1.269788 0.38328,-0.383283 0.57895,-13.395783 0.43481,-28.916667 z"
       id="path2989"
       style="fill:#000000" />
  </g>
</svg>
