<?xml version="1.0" encoding="UTF-8" standalone="no"?>
<!-- Created with Inkscape (http://www.inkscape.org/) -->

<svg
   xmlns:dc="http://purl.org/dc/elements/1.1/"
   xmlns:cc="http://creativecommons.org/ns#"
   xmlns:rdf="http://www.w3.org/1999/02/22-rdf-syntax-ns#"
   xmlns:svg="http://www.w3.org/2000/svg"
   xmlns="http://www.w3.org/2000/svg"
   xmlns:sodipodi="http://sodipodi.sourceforge.net/DTD/sodipodi-0.dtd"
   xmlns:inkscape="http://www.inkscape.org/namespaces/inkscape"
   id="svg3366"
   version="1.1"
   inkscape:version="0.91 r13725"
   width="620.56073"
   height="298.125"
   viewBox="0 0 620.56073 298.125"
   sodipodi:docname="ub240104.svg">
  <metadata
     id="metadata3372">
    <rdf:RDF>
      <cc:Work
         rdf:about="">
        <dc:format>image/svg+xml</dc:format>
        <dc:type
           rdf:resource="http://purl.org/dc/dcmitype/StillImage" />
        <dc:title></dc:title>
      </cc:Work>
    </rdf:RDF>
  </metadata>
  <defs
     id="defs3370" />
  <sodipodi:namedview
     pagecolor="#b3b3b3"
     bordercolor="#666666"
     borderopacity="1"
     objecttolerance="10"
     gridtolerance="10"
     guidetolerance="10"
     inkscape:pageopacity="0"
     inkscape:pageshadow="2"
     inkscape:window-width="1307"
     inkscape:window-height="900"
     id="namedview3368"
     showgrid="false"
     inkscape:zoom="1.0071537"
     inkscape:cx="259.41332"
     inkscape:cy="165.55029"
     inkscape:window-x="0"
     inkscape:window-y="0"
     inkscape:window-maximized="0"
     inkscape:current-layer="svg3366" />
  <g
     id="g3376"
     transform="translate(4.5510253,3.9551768)">
    <path
       style="fill:#fefefe"
       d="m 116.16896,182.20748 c -0.61641,-0.25134 -5.98026,-5.17506 -11.91967,-10.94161 l -10.798917,-10.48462 0.0037,-5.85938 c 0.0021,-3.22265 0.241214,-5.85937 0.531411,-5.85937 0.652439,0 4.602962,4.67437 8.255306,9.76792 1.50884,2.1042 6.24806,7.97723 10.53161,13.05117 4.28354,5.07393 7.78826,9.60909 7.78826,10.07812 0,0.89212 -2.46982,1.03146 -4.39179,0.24777 z M 86.978423,155.22097 c -3.07894,-3.18659 -4.338601,-7.92123 -3.197365,-12.01785 0.625541,-2.24545 3.775227,-2.06875 5.029472,0.28215 1.019112,1.91018 2.497804,14.95223 1.695266,14.95223 -0.230728,0 -1.818046,-1.44743 -3.527373,-3.21653 z m 405.544927,-9.01328 c -0.77103,-0.41795 -2.09377,-0.97107 -2.93942,-1.22917 -1.26981,-0.38754 -1.65421,-2.49818 -2.2075,-12.12118 -0.36849,-6.40856 -0.37859,-13.38199 -0.0224,-15.49652 0.57347,-3.40501 0.83944,-3.72435 2.32619,-2.79296 2.23572,1.40059 2.98986,9.06479 1.86114,18.91434 -0.80287,7.00605 -0.71761,7.82251 1.07177,10.26337 2.11732,2.88821 2.08979,3.64356 -0.0897,2.46212 z m -163.5514,-0.67667 c 0,-0.56732 -1.15654,-1.16497 -2.57009,-1.32813 l -2.57009,-0.29664 -0.82109,-11.39048 c -0.4516,-6.26477 -0.53269,-13.31969 -0.18019,-15.67759 0.57556,-3.85015 0.81422,-4.17851 2.34163,-3.22165 2.25931,1.41538 3.01719,9.03281 1.88322,18.92817 -0.80287,7.00605 -0.71761,7.82251 1.07176,10.26337 1.06922,1.45851 1.69671,2.89991 1.39444,3.20313 -0.30227,0.30322 -0.54959,0.0871 -0.54959,-0.48018 z m 82.2573,0.45162 c -0.007,-0.40486 0.60758,-1.6882 1.36766,-2.85186 1.12803,-1.72696 1.22634,-3.57285 0.53501,-10.04515 -0.84863,-7.94495 -0.71389,-18.35498 0.2501,-19.32197 1.18656,-1.19027 2.46628,7.49408 2.71085,18.39611 0.24788,11.05037 0.15983,11.71131 -1.6069,12.06157 -1.02804,0.20381 -2.17814,0.84911 -2.55579,1.43399 -0.37764,0.58488 -0.69306,0.73217 -0.70093,0.32731 z m 129.42494,-0.61793 -2.80374,-0.53492 -0.62715,-12.05962 c -0.34492,-6.6328 -1.05935,-12.49319 -1.58761,-13.02311 -1.63213,-1.63722 1.4527,-6.48327 3.90423,-6.1333 1.76614,0.25213 2.01665,0.80992 1.8155,4.04249 -1.50348,24.16214 -1.4931,24.50937 0.78087,26.10711 2.62397,1.84364 2.19833,2.30354 -1.4821,1.60135 z m 36.89737,-7.02669 c -0.0102,-4.51171 -0.43248,-11.07525 -0.93845,-14.58562 -1.06557,-7.39282 -0.13961,-10.31219 3.123,-9.84626 1.76641,0.25225 2.00107,0.79351 1.75206,4.04126 -0.15813,2.0625 -0.49932,8.25931 -0.75819,13.77068 -0.43298,9.2179 1.16333,12.20398 2.72494,13.77046 2.28234,2.28947 0.27411,3.77749 -1.18491,2.52908 l -4.69993,-4.02153 -0.0185,-5.65807 z m -486.36658,4.23235 c -1.371208,-1.5199 -1.604875,-3.39401 -1.432608,-11.49012 0.113213,-5.3207 -0.111975,-11.67042 -0.500417,-14.11048 -0.600608,-3.77282 -0.459645,-4.53141 0.942314,-5.07107 0.906716,-0.34903 2.327392,-0.20052 3.157058,0.33002 1.924222,1.23048 1.855381,5.56015 -0.270603,17.0207 -1.322885,7.13128 -1.416812,9.2942 -0.500023,11.51444 1.400708,3.39217 0.770593,4.20775 -1.395721,1.80651 z m 96.94848,0.25468 c -0.32611,-0.85248 -0.15803,-5.59857 0.37352,-10.54688 0.53154,-4.94831 0.77393,-10.94121 0.53864,-13.31756 -0.44426,-4.48705 0.83032,-6.1236 3.86068,-4.9571 2.44496,0.94114 2.34912,4.54555 -0.40872,15.37149 -2.72838,10.71032 -2.73426,10.79149 -0.89304,12.33777 2.45329,2.06033 2.33745,2.66223 -0.51238,2.66223 -1.33826,0 -2.62331,-0.67318 -2.9587,-1.54995 z m 49.25522,-0.55943 c 0.003,-1.16015 1.23955,-6.67576 2.74785,-12.25692 1.50829,-5.58114 2.52483,-10.71615 2.25898,-11.41112 -0.72869,-1.90485 1.36404,-5.16008 3.31732,-5.16008 4.0077,0 4.63889,4.77866 1.15598,8.75174 -2.1674,2.47243 -6.84275,18.64941 -5.71645,19.77923 1.52987,1.53465 1.01079,2.40653 -1.43274,2.40653 -1.80156,0 -2.33519,-0.48291 -2.33094,-2.10938 z m 44.01527,-10.3125 c 0.0732,-6.83203 -0.0236,-14.10937 -0.21492,-16.17187 -0.30338,-3.27 -0.0868,-3.78728 1.69165,-4.04126 3.2761,-0.46786 4.16374,2.42856 3.15855,10.30647 -2.21245,17.33975 -2.22454,19.29499 -0.12335,19.96396 3.05426,0.97242 2.25639,2.36458 -1.35518,2.36458 l -3.28976,0 z m 84.0166,11.7099 c 0,-0.3916 0.84112,-1.23893 1.86916,-1.88295 1.57022,-0.98369 1.86803,-2.18174 1.8621,-7.49114 -0.004,-3.4761 -0.43493,-8.96499 -0.95788,-12.19753 -1.11392,-6.88561 -0.11869,-9.87799 3.13098,-9.41391 1.76788,0.25247 2.00028,0.79078 1.74466,4.04126 -0.16221,2.0625 -0.501,9.12891 -0.7529,15.70313 l -0.45798,11.95312 -3.21906,0 c -1.7705,0 -3.21908,-0.32039 -3.21908,-0.71198 z m 86.07685,-11.7099 c 0.0732,-6.83203 -0.0236,-14.10937 -0.21492,-16.17187 -0.30338,-3.27 -0.0868,-3.78728 1.69166,-4.04126 3.27609,-0.46786 4.16373,2.42856 3.15855,10.30647 -2.21246,17.33975 -2.22454,19.29499 -0.12336,19.96396 3.05426,0.97242 2.2564,2.36458 -1.35517,2.36458 l -3.28977,0 z m 94.51965,7.96875 c 0.11036,-0.90234 -1.00409,-4.00604 -2.47656,-6.89709 -2.18528,-4.29062 -2.55456,-5.91226 -2.00975,-8.82546 0.66409,-3.55091 0.68379,-3.52199 3.88648,5.7024 1.77046,5.09927 3.01335,9.80901 2.762,10.4661 -0.6851,1.79091 -2.39266,1.43874 -2.16217,-0.44595 z M 396.5078,138.44874 c -0.55579,-1.22364 -1.30339,-4.57609 -1.66133,-7.44988 -0.56629,-4.54663 -0.25743,-6.27056 2.37872,-13.27698 2.52544,-6.71215 3.25158,-7.86703 4.36411,-6.94083 1.59206,1.32543 1.10989,3.77935 -2.20745,11.23454 -2.23949,5.03287 -2.29617,5.57013 -1.13738,10.78125 1.51125,6.79608 1.52349,7.12449 0.28104,7.53994 -0.55394,0.18523 -1.46191,-0.66439 -2.01771,-1.88804 z m 108.46287,-3.71756 c 0.19523,-5.06025 -4.43466,-14.86695 -9.68591,-20.516 -4.27801,-4.60209 -4.65025,-6.94423 -1.34385,-8.45543 3.18858,-1.45735 3.99941,-0.25633 9.77942,14.48553 4.84958,12.3688 5.48421,15.4589 3.56938,17.37972 -1.9323,1.93834 -2.47914,1.25596 -2.31904,-2.89382 z m -164.48598,-0.9375 c 0.19523,-5.06025 -4.43465,-14.86695 -9.68591,-20.516 -4.278,-4.60209 -4.65025,-6.94423 -1.34385,-8.45543 3.18858,-1.45735 3.99942,-0.25633 9.77942,14.48553 4.84958,12.3688 5.48421,15.4589 3.56938,17.37972 -1.9323,1.93834 -2.47914,1.25596 -2.31904,-2.89382 z m 192.22558,-4.94906 c 0,-0.80734 0.4866,-2.37996 1.08134,-3.49472 1.05684,-1.98089 1.09772,-1.98481 1.80348,-0.17274 1.30688,3.35548 0.95486,5.13534 -1.01567,5.13534 -1.07329,0 -1.86915,-0.625 -1.86915,-1.46788 z m 40.5549,-4.07105 c 0.96851,-4.85766 2.43575,-5.41181 2.43575,-0.91992 0,3.00962 -0.35789,3.9375 -1.51869,3.9375 -1.21193,0 -1.39717,-0.60953 -0.91706,-3.01758 z M 286.91588,121.6875 c 0,-4.49189 1.46724,-3.93774 2.43575,0.91992 0.48011,2.40805 0.29487,3.01758 -0.91706,3.01758 -1.1608,0 -1.51869,-0.92788 -1.51869,-3.9375 z m 77.57009,2.24168 c 0,-0.9327 0.61747,-2.51473 1.37215,-3.51562 1.28586,-1.70538 1.37401,-1.59875 1.40187,1.69582 0.0212,2.51325 -0.36998,3.51562 -1.37215,3.51562 -0.77103,0 -1.40187,-0.76312 -1.40187,-1.69582 z m 39.48598,0.72911 c -3.83723,-1.54721 -2.06718,-3.99848 3.62989,-5.02688 3.99388,-0.72094 5.20451,0.88571 3.02232,4.01097 -1.47458,2.11184 -3.25851,2.38427 -6.65221,1.01591 z m 53.03738,-2.97079 c 0,-4.49189 1.46725,-3.93774 2.43575,0.91992 0.48011,2.40805 0.29487,3.01758 -0.91706,3.01758 -1.1608,0 -1.51869,-0.92788 -1.51869,-3.9375 z m -208.6231,1.53744 c -0.69351,-0.69567 1.98832,-6.03744 3.03109,-6.03744 1.06516,0 3.72286,3.82989 3.72286,5.36485 0,1.18792 -5.67667,1.75323 -6.75395,0.67259 z m 245.30534,-0.0958 c -1.71464,-0.69404 -1.48715,-6.81519 0.27855,-7.49487 1.45864,-0.56148 2.637,0.61502 5.54638,5.53764 l 1.52374,2.57812 -3.09022,-0.074 c -1.69962,-0.0407 -3.61592,-0.2868 -4.25845,-0.54687 z m -164.48597,-0.9375 c -1.71465,-0.69404 -1.48716,-6.81519 0.27854,-7.49487 1.45864,-0.56148 2.637,0.61502 5.54638,5.53764 l 1.52374,2.57812 -3.09021,-0.074 c -1.69963,-0.0407 -3.61593,-0.2868 -4.25845,-0.54687 z m -132.91104,-4.00498 c -1.58376,-2.96853 -1.11541,-4.67616 1.4604,-5.32467 1.92715,-0.48519 3.02292,-0.0143 5.3132,2.28311 l 2.88536,2.89436 -2.57032,0.98028 c -3.81469,1.45488 -6.00534,1.19742 -7.08864,-0.83308 z m -99.511824,-0.296 C 95.27481,112.91095 95.411156,112.5 98.571184,112.5 c 1.688006,0 3.632666,0.68117 4.321446,1.51371 1.07365,1.2977 0.94184,1.76591 -0.92368,3.28125 -2.508093,2.03728 -4.674336,2.28608 -5.186214,0.59567 z m 19.104924,-4.52725 c 1e-4,-0.29858 1.99785,-1.44953 4.43944,-2.55768 3.70937,-1.68354 7.48934,-2.18777 22.99034,-3.06681 13.4951,-0.76529 18.83137,-0.77086 19.57944,-0.0204 0.56559,0.56736 1.73386,1.03156 2.59616,1.03156 2.01639,0 3.84104,2.20145 3.20393,3.86555 -0.4033,1.05338 -5.30368,1.2907 -26.65182,1.2907 -14.38672,0 -26.15759,-0.24429 -26.15749,-0.54287 z M 222.66624,98.075794 C 216.09383,92.1277 202.35378,81.467266 194.62616,76.320474 187.29309,71.436454 185.37932,69.375 188.17829,69.375 c 2.86541,0 8.10098,2.540122 16.49013,8.000451 4.88564,3.17996 12.63824,8.059658 17.22799,10.843772 6.56429,3.981848 8.50163,5.650261 9.07892,7.818643 1.54294,5.795564 -2.94169,6.895494 -8.30909,2.037928 z M 536.00529,87.234056 c -1.15246,-2.23559 -1.42587,-6.756073 -1.42587,-23.575621 0,-18.906093 0.18244,-21.311595 1.99439,-26.296556 1.09691,-3.017783 2.3586,-5.486879 2.80374,-5.486879 0.44514,0 0.80935,2.435409 0.80935,5.412022 0,5.249339 2.18422,34.626014 3.37226,45.355144 0.52207,4.714792 0.37542,5.41184 -1.33134,6.328125 -3.09173,1.659812 -4.7037,1.210032 -6.22253,-1.736235 z M 332.6739,87.692455 c -3.48206,-1.900337 -4.33261,-4.470738 -5.47548,-16.547077 -1.39176,-14.706307 -1.48091,-13.957878 1.66259,-13.957878 2.40108,0 2.80458,0.445363 3.72479,4.111304 1.07668,4.28922 3.86279,23.079661 3.86279,26.051886 0,2.021265 -0.59807,2.075415 -3.77469,0.341765 z m 35.1071,-2.333399 c -1.16958,-2.268785 -1.42587,-7.096109 -1.42587,-26.856871 0,-22.256019 0.15191,-24.508841 1.99438,-29.577806 1.09692,-3.017783 2.3586,-5.486879 2.80374,-5.486879 0.44515,0 0.81295,2.636719 0.81735,5.859375 0.005,3.222656 0.40545,10.5 0.89123,16.171875 0.48579,5.671875 1.34116,17.055068 1.90083,25.295985 0.93942,13.832556 0.89314,15.074768 -0.60257,16.171875 -2.6272,1.927062 -4.85665,1.375718 -6.37909,-1.577554 z m 45.9453,-0.0917 c -3.13241,-3.297463 -4.56969,-3.427471 -8.31513,-0.752143 l -2.82129,2.015212 0.53568,-4.593337 c 0.29462,-2.526339 0.78957,-7.968341 1.09988,-12.093341 0.74697,-9.929666 1.05011,-10.78125 3.83775,-10.78125 l 2.32977,0 -0.48922,11.484375 c -0.58631,13.763528 0.0205,12.794564 0.88063,-1.40625 l 0.61044,-10.078125 2.7138,0 2.71381,0 0,14.53125 c 0,7.992187 -0.10514,14.510935 -0.23365,14.486106 -0.1285,-0.02484 -1.41661,-1.290455 -2.86247,-2.812497 z m 83.43357,1.4876 C 493.67782,84.854622 492.82727,82.28422 491.6844,70.207882 490.29264,55.501571 490.20349,56.25 493.34699,56.25 c 2.40108,0 2.80458,0.445363 3.72479,4.111304 1.07667,4.28922 3.86279,23.079661 3.86279,26.051886 0,2.021265 -0.59807,2.075415 -3.7747,0.341766 z m 79.03234,-0.167251 c -1.16285,-2.255739 -1.42587,-6.950383 -1.42587,-25.450625 0,-20.820336 0.16391,-23.135616 1.99438,-28.171556 1.09692,-3.017783 2.3586,-5.486879 2.80374,-5.486879 0.44515,0 0.80936,2.362901 0.80936,5.250892 0,2.88799 0.86761,16.268745 1.92803,29.735012 1.83576,23.312219 1.84958,24.541678 0.28867,25.686609 -2.64594,1.9408 -4.87228,1.396781 -6.39831,-1.563453 z M 280.02484,85.983957 c -1.55708,-1.142122 -1.56454,-2.206673 -0.14623,-20.859375 0.82202,-10.810707 1.75448,-24.612862 2.07216,-30.671456 0.31766,-6.058594 0.87758,-11.015625 1.24424,-11.015625 0.36667,0 1.56415,2.469095 2.66107,5.486879 1.83863,5.058394 1.99438,7.331598 1.99438,29.109056 0,19.340588 -0.25844,24.123513 -1.42587,26.388121 -1.5263,2.960758 -3.75241,3.50423 -6.39975,1.5624 z m 43.90122,-1.818967 c -0.339,-1.689185 -0.87922,-8.239212 -1.20049,-14.555618 -0.50282,-9.885791 -0.38728,-11.484375 0.83002,-11.484375 1.09768,0 1.65281,2.105481 2.48067,9.408602 1.36898,12.076685 1.34241,14.218648 -0.21365,17.22735 l -1.28019,2.475278 z m 126.19224,1.81897 c -1.55709,-1.142122 -1.56455,-2.206673 -0.14624,-20.859375 0.82202,-10.810707 1.75449,-24.612862 2.07216,-30.671456 0.31766,-6.058594 0.87758,-11.015625 1.24424,-11.015625 0.36668,0 1.56415,2.469095 2.66107,5.486879 1.83863,5.058394 1.99438,7.331598 1.99438,29.109056 0,19.340588 -0.25844,24.123513 -1.42587,26.388121 -1.5263,2.960758 -3.75241,3.50423 -6.39974,1.5624 z m 38.29373,-2.756467 c -0.339,-1.689185 -0.87921,-8.239212 -1.20048,-14.555618 -0.50283,-9.885791 -0.38728,-11.484375 0.83002,-11.484375 1.09768,0 1.65281,2.105481 2.48067,9.408602 1.36898,12.076685 1.34241,14.218648 -0.21366,17.22735 L 489.0284,86.29873 Z M 405.63158,55.078125 c 0.065,-5.679019 1.9449,-21.145691 2.83406,-23.315888 0.55356,-1.351082 2.12412,-2.967338 3.49013,-3.591678 2.19329,-1.002455 2.68141,-0.890182 4.17521,0.96034 1.45585,1.803512 1.63185,3.414384 1.26306,11.560429 -0.23567,5.205708 -0.4607,11.046953 -0.50005,12.980547 -0.0668,3.28281 -0.26141,3.515625 -2.93829,3.515625 -2.2913,0 -2.76969,-0.329309 -2.38332,-1.640625 0.26587,-0.902344 0.69408,-4.804688 0.9516,-8.671875 l 0.4682,-7.03125 -1.27557,8.4375 c -0.70156,4.640625 -1.31172,8.542969 -1.3559,8.671875 -0.0442,0.128906 -1.13175,0.234375 -2.4168,0.234375 -1.80707,0 -2.33098,-0.477925 -2.31233,-2.109375 z M 321.95371,45.644677 C 321.22294,33.912639 321.68817,30.9375 324.25349,30.9375 c 2.19544,0 5.4431,7.864079 6.61974,16.029434 1.21602,8.438578 1.23721,8.345566 -1.90128,8.345566 -2.75191,0 -2.8048,-0.09098 -2.86136,-4.921875 -0.0317,-2.707031 -0.65529,-7.664063 -1.38576,-11.015625 -1.30947,-6.008179 -1.31904,-6.021343 -0.68147,-0.9375 1.03203,8.229147 0.85428,17.134273 -0.35015,17.541937 -0.74186,0.251098 -1.27885,-2.939283 -1.7395,-10.33476 z m 164.48128,-1.969091 c -0.7586,-13.19342 -0.31048,-16.488086 2.24262,-16.488086 2.18542,0 5.27245,8.117707 6.6053,17.36939 1.40272,9.736695 1.38758,9.81811 -1.82498,9.81811 -2.78194,0 -2.80429,-0.04191 -2.8749,-5.390625 -0.0392,-2.964844 -0.65764,-8.554688 -1.37446,-12.421875 l -1.3033,-7.03125 0.64342,6.09375 c 1.01935,9.654162 0.84215,19.007736 -0.36785,19.416811 -0.7451,0.251899 -1.27691,-3.210464 -1.74585,-11.366225 z"
       id="path3386"
       inkscape:connector-curvature="0"
       sodipodi:nodetypes="csccssssccsssssccscsssccsscssssssscsssssccscsssssscsssssscccsssssssscssssssccsssssscscsssscssscsssscssscsssscssssscsssssssssssssssssssssssssssssssssssscsssssssssssssscsscscccsscsccssscsscscscccsscsssccssssssssssssssssssssssssscsssssscssscsscccscsssssssssssssssssssssssssssscsssssssssssssscscsssssssscscscssssssssssssscscsss" />
    <path
       style="fill:#0000fe"
       d="m 81.687663,147.63817 c -0.829613,-3.31577 2.035736,-24.75061 3.950196,-29.55028 l 1.588739,-3.98305 1.148271,4.53649 c 0.725072,2.86455 0.965298,7.86742 0.651806,13.57439 -0.482582,8.78518 -0.555921,9.0265 -2.622769,8.63016 -2.724638,-0.52247 -4.515324,2.58877 -3.681589,6.3966 0.734771,3.35585 -0.204173,3.71492 -1.034654,0.39569 z m 98.686167,-29.47846 c -2.31309,-0.35875 -5.99834,-1.16384 -8.18946,-1.78908 -3.61002,-1.03015 -3.88805,-1.31639 -2.9629,-3.05047 1.20915,-2.26637 -0.84795,-5.15195 -4.13216,-5.79636 -1.31857,-0.25873 -0.95485,-0.43718 1.0622,-0.52113 1.68706,-0.0702 4.57721,0.50514 6.42254,1.27858 1.84726,0.77424 6.16374,1.40625 9.60444,1.40625 3.81262,0 6.93123,0.50019 7.99822,1.28284 1.69012,1.23971 1.68042,1.31963 -0.28866,2.37674 -1.24767,0.66981 -2.03759,1.98971 -2.03759,3.40465 0,2.50031 -0.19582,2.5372 -7.47663,1.40798 z m 353.81942,-8.94096 c 0.94436,-12.305381 0.95323,-15.111825 0.0637,-20.15625 l -0.74393,-4.21875 1.92134,3.046875 c 1.98629,3.149876 3.66258,3.698002 6.55706,2.144077 1.49253,-0.801267 1.74746,-0.353179 2.26689,3.984379 0.75818,6.331259 0.76249,16.501519 0.008,20.282729 -0.58412,2.92977 -0.60863,2.94189 -1.65891,0.82031 -1.69705,-3.42806 -4.84467,-3.26853 -7.15565,0.36269 l -1.97858,3.10894 0.71948,-9.375 z m -296.14956,4.5843 c -1.28246,-2.00574 -4.03543,-5.29181 -6.11769,-7.30239 l -3.78592,-3.6556 2.28575,-1.80359 c 1.76536,-1.392973 2.14971,-2.347264 1.68825,-4.191645 -0.52284,-2.089706 0.29683,-1.660725 6.56056,3.433505 8.58425,6.9815 12.88238,13.75482 7.89878,12.44751 -1.47839,-0.38782 -2.58773,0.17718 -4.11133,2.09394 l -2.08664,2.62506 z m 127.83935,-0.63741 c -0.37613,-1.43857 -0.21488,-6.50107 0.35832,-11.25 0.69834,-5.785562 0.74222,-9.871664 0.13299,-12.38439 -1.40011,-5.774703 -1.12276,-6.851977 0.90512,-3.515625 1.92191,3.162016 3.58635,3.70166 6.53487,2.118729 1.58915,-0.853146 1.78267,-0.352113 2.39478,6.200468 1.03338,11.062188 -0.60985,21.792458 -2.79432,18.246858 -1.12618,-1.8279 -4.85064,-1.13694 -5.87639,1.0902 -0.9661,2.09764 -0.97531,2.09483 -1.65537,-0.50624 z m 122.72077,-0.7032 c -2.39735,-2.40483 -2.74524,-3.32016 -2.22701,-5.85937 0.3378,-1.65513 1.04898,-6.38432 1.58041,-10.50932 0.53142,-4.125 1.61163,-8.925994 2.40045,-10.668876 l 1.43423,-3.168875 2.00125,2.377435 c 1.10068,1.307589 2.94997,2.855219 4.10952,3.439178 2.02084,1.017705 2.04735,1.179941 0.63916,3.911594 -1.47943,2.86985 -1.41777,3.686863 1.05319,13.953294 l 0.56411,2.34375 -1.91228,-2.34375 c -1.81813,-2.22835 -2.04063,-2.27297 -4.51883,-0.90617 -3.22066,1.77629 -3.78744,4.87782 -1.34001,7.33289 1.76783,1.77336 1.73104,2.94828 -0.0923,2.94828 -0.46789,0 -2.12924,-1.28253 -3.69189,-2.85006 z m 85.69044,1.93185 c -0.37614,-1.43857 -0.21488,-6.50107 0.35832,-11.25 0.69834,-5.785564 0.74222,-9.871666 0.13299,-12.384392 -1.40011,-5.774703 -1.12276,-6.851977 0.90512,-3.515625 1.92191,3.162016 3.58635,3.70166 6.53487,2.118729 1.58915,-0.853146 1.78267,-0.352113 2.39478,6.200468 1.03338,11.06219 -0.60985,21.79246 -2.79432,18.24686 -1.12619,-1.8279 -4.85064,-1.13694 -5.87639,1.0902 -0.9661,2.09764 -0.97531,2.09483 -1.65537,-0.50624 z m -287.79734,-1.74158 c -0.69425,-2.19421 -4.06711,-2.77761 -5.83068,-1.00853 -0.73164,0.73393 -1.19593,0.72718 -1.6588,-0.0241 -1.17967,-1.91471 -1.68444,-11.01329 -1.01096,-18.222761 0.61211,-6.552579 0.80562,-7.053612 2.39477,-6.200465 2.94853,1.58293 4.61297,1.043286 6.53488,-2.11873 2.02434,-3.330525 2.30092,-2.272528 0.91905,3.515625 -0.59489,2.491768 -0.53798,6.913557 0.1696,13.178581 0.74075,6.55863 0.76945,9.95813 0.0943,11.16833 -0.92057,1.65011 -1.00365,1.63528 -1.61215,-0.28795 z m 38.9519,0.26797 c -3.79228,-2.66453 -4.08339,-4.35598 -2.44483,-14.205221 0.84037,-5.051316 2.15209,-10.610203 2.91494,-12.353085 l 1.387,-3.168875 2.00124,2.377435 c 1.10068,1.307589 2.94997,2.855219 4.10952,3.439178 2.01681,1.015669 2.045,1.184504 0.64985,3.890861 -1.32025,2.561052 -1.32076,3.304171 -0.006,7.842737 1.87071,6.45514 1.80871,7.11398 -0.40055,4.25629 -1.72429,-2.23038 -1.93802,-2.27421 -4.41847,-0.90617 -3.22067,1.77629 -3.78744,4.87782 -1.34002,7.33289 2.86989,2.87887 1.07423,3.97239 -2.45321,1.49396 z m 84.91156,-0.60219 c -0.47439,-1.18924 -1.09382,-2.90052 -1.37651,-3.80286 -0.55105,-1.7589 -3.37639,-2.30097 -3.37639,-0.6478 0,0.54606 0.42056,0.7321 0.93457,0.41342 1.52466,-0.94523 1.06219,2.00793 -0.52083,3.32582 -1.22316,1.01831 -1.82469,0.84121 -3.76969,-1.10987 -2.31283,-2.32005 -2.31339,-2.32536 -0.89486,-8.36249 0.78069,-3.322529 1.42566,-8.016141 1.43325,-10.430247 0.0119,-3.766961 0.39867,-4.66418 2.72818,-6.328125 3.55525,-2.539476 4.93595,-2.446436 7.90586,0.532753 2.88919,2.898217 2.86452,2.716112 1.06202,7.840909 -0.81516,2.317622 -1.40187,7.24835 -1.40187,11.78129 0,7.88758 -1.14582,10.74282 -2.72373,6.7872 z m 46.22999,0.33422 c -0.69424,-2.19421 -4.06711,-2.77761 -5.83068,-1.00853 -0.73164,0.73393 -1.19593,0.72718 -1.6588,-0.0241 -1.17967,-1.91471 -1.68443,-11.01329 -1.01096,-18.222761 0.61211,-6.552579 0.80563,-7.053612 2.39478,-6.200465 2.94852,1.58293 4.61296,1.043286 6.53488,-2.11873 2.02433,-3.330525 2.30091,-2.272528 0.91904,3.515625 -0.59489,2.491768 -0.53798,6.913557 0.1696,13.178581 0.74075,6.55863 0.76945,9.95813 0.0943,11.16833 -0.92057,1.65011 -1.00364,1.63528 -1.61215,-0.28795 z"
       id="path3382"
       inkscape:connector-curvature="0"
       sodipodi:nodetypes="sscsssssssssssssssscscssscsscccsscssssscsssssssssssssscsssscssssscsssssssccsssssssscccsscssscsssccssscssscssssscsssssssscc" />
    <path
       style="fill:#fe0000"
       d="m 63.5514,136.24867 c 0,-0.34448 0.478314,-3.3816 1.062919,-6.74914 1.576642,-9.08204 7.053767,-20.22629 13.077618,-26.6089 C 80.490129,99.925781 82.448551,97.5 82.043985,97.5 c -0.404567,0 -0.735576,-0.351094 -0.735576,-0.780206 0,-0.819572 6.65962,-3.164362 7.264377,-2.557716 0.319173,0.320175 -2.286499,6.018912 -3.228442,7.060772 -0.219588,0.24288 -0.778881,-0.17458 -1.242876,-0.92768 -0.672922,-1.09222 -1.728877,-0.42277 -5.218551,3.3084 -5.460299,5.83816 -10.996067,17.59953 -12.503648,26.56542 -0.620175,3.6883 -1.510154,6.70601 -1.97773,6.70601 -0.467576,0 -0.850139,-0.28185 -0.850139,-0.62633 z M 423.59812,75.316612 c -2.18458,-0.775699 -3.96676,-1.691612 -3.96039,-2.035362 0.0124,-0.670008 6.11708,-4.84375 7.08465,-4.84375 0.31922,0 0.33832,0.632812 0.0424,1.40625 -0.69942,1.828357 1.22693,1.802742 3.86584,-0.0514 1.94618,-1.367416 1.98839,-1.624903 0.68189,-4.159301 -1.58189,-3.06858 -2.52557,-3.805902 -5.43137,-4.243634 -1.12718,-0.169799 -4.58698,-0.820314 -7.68843,-1.44559 -7.47292,-1.506589 -21.11772,-0.436292 -23.96952,1.880167 -1.85245,1.504711 -1.92848,1.921556 -0.83399,4.572159 0.66237,1.604076 2.00019,3.169898 2.97295,3.479604 1.86672,0.594328 2.4548,2.311749 0.79158,2.311749 -1.64491,0 -5.45227,-4.379287 -6.11694,-7.035804 -0.91851,-3.671093 1.83088,-5.937403 8.53998,-7.039471 11.10768,-1.8246 25.31616,-0.3946 30.6025,3.079964 3.48892,2.293179 4.20101,6.807899 1.52453,9.665785 -1.16772,1.246865 -2.99609,2.279855 -4.06302,2.295534 -1.76643,0.02596 -1.79365,0.113954 -0.30438,0.984085 1.62476,0.949294 2.27593,2.805031 0.93458,2.663394 -0.38552,-0.04071 -2.48832,-0.708676 -4.6729,-1.484375 z M 343.69158,71.50043 c -1.92757,-0.793299 -3.47431,-1.70152 -3.4372,-2.01827 0.0371,-0.31675 1.52438,-1.791027 3.30504,-3.276171 3.25264,-2.712838 5.39616,-2.803529 3.18829,-0.134895 -1.63462,1.975747 0.6849,1.955598 3.51162,-0.03051 2.37345,-1.667628 2.70242,-4.352921 0.73402,-5.991658 -2.38835,-1.988347 -19.41926,-3.311908 -27.13422,-2.108741 -12.45207,1.941931 -17.54425,5.34862 -15.87604,10.621136 0.30474,0.963147 0.11318,1.751175 -0.42568,1.751175 -1.3031,0 -2.27012,-4.073665 -1.5256,-6.426763 1.30462,-4.123333 14.36371,-8.573237 25.15982,-8.573237 8.07276,0 19.58536,1.886634 21.37845,3.503408 3.1544,2.844222 1.61848,7.687045 -3.05366,9.628356 -2.02922,0.843159 -2.59725,1.496535 -1.90487,2.191078 1.14256,1.146132 1.30752,2.531375 0.28564,2.398553 -0.38552,-0.05011 -2.27804,-0.740168 -4.20561,-1.533465 z m 164.48598,-0.9375 c -1.92757,-0.793299 -3.47431,-1.70152 -3.4372,-2.01827 0.0371,-0.31675 1.52437,-1.791027 3.30504,-3.276171 3.25263,-2.712838 5.39616,-2.803529 3.18829,-0.134895 -1.63462,1.975747 0.68489,1.955598 3.51161,-0.03051 2.37346,-1.667628 2.70242,-4.352921 0.73402,-5.991658 -2.38834,-1.988347 -19.41925,-3.311908 -27.13421,-2.108741 -12.45208,1.941931 -17.54425,5.34862 -15.87604,10.621136 0.30474,0.963147 0.11318,1.751175 -0.42568,1.751175 -1.3031,0 -2.27012,-4.073665 -1.5256,-6.426763 1.30462,-4.123333 14.36371,-8.573237 25.15981,-8.573237 8.07277,0 19.58537,1.886634 21.37846,3.503408 3.15439,2.844222 1.61848,7.687045 -3.05366,9.628356 -2.02923,0.843159 -2.59726,1.496535 -1.90487,2.191078 1.14256,1.146132 1.30752,2.531375 0.28563,2.398553 -0.38551,-0.05011 -2.27803,-0.740168 -4.2056,-1.533465 z"
       id="path3380"
       inkscape:connector-curvature="0" />
    <path
       style="fill:#000000"
       d="m 20.381352,276.79894 c 11.249431,-0.26377 12.39203,-0.44569 11.962162,-1.90466 -0.261395,-0.88716 -1.946072,-8.99584 -3.743724,-18.01928 -1.797653,-9.02344 -5.206614,-25.6875 -7.575468,-37.03125 -6.133484,-29.37146 -5.855491,-26.71875 -2.800023,-26.71875 2.40884,0 2.546917,0.21076 2.069894,3.1595 -0.311516,1.92565 0.845262,9.52252 2.962134,19.45312 l 3.473254,16.29363 31.962311,0.24668 31.962311,0.24669 0,-36.38455 0,-36.38454 -3.815347,-3.70589 c -6.52019,-6.33313 -6.918017,-7.73017 -5.59027,-19.63124 0.63353,-5.67856 1.7509,-12.51143 2.483046,-15.18418 1.363281,-4.97674 5.244208,-10.60922 7.310029,-10.60922 0.635734,0 2.175451,-1.11719 3.421598,-2.48264 2.062645,-2.26014 2.098187,-2.43773 0.396551,-1.98137 -1.028037,0.27571 -2.60514,0.80522 -3.504672,1.1767 -2.782237,1.14898 -1.788693,-0.83722 1.301467,-2.60177 2.633598,-1.50384 3.082832,-1.5272 4.506934,-0.23438 0.869972,0.78978 2.611617,1.43596 3.870321,1.43596 3.55772,0 6.44277,2.52129 6.44277,5.63045 0,3.2188 -5.33164,7.84823 -9.236147,8.01969 -2.161813,0.0949 -2.56957,0.68298 -3.592897,5.18159 -2.566411,11.28209 -1.440315,21.59978 2.926215,26.81095 1.648037,1.96684 3.986459,5.00111 5.196499,6.74281 1.21002,1.74171 5.93167,7.60732 10.49255,13.03469 4.56087,5.42738 8.12903,10.33047 7.92925,10.89576 -0.19978,0.56529 -1.75996,0.95745 -3.46708,0.87146 -2.4223,-0.12201 -4.04218,-1.17631 -7.37705,-4.80129 -2.35026,-2.55473 -7.11199,-7.29733 -10.581618,-10.53913 l -6.308411,-5.89418 0,57.3361 0,57.3361 47.663549,0 47.66355,0 0,-21.09375 0,-21.09375 -9.81308,0 c -5.919,0 -9.81309,-0.37203 -9.81309,-0.9375 0,-0.56578 3.91104,-0.9375 9.86397,-0.9375 l 9.86395,0 -0.51019,-44.29687 c -0.2806,-24.36329 -0.61891,-46.61719 -0.75181,-49.45313 -0.13289,-2.83594 0.0725,-7.6875 0.45643,-10.78125 0.38392,-3.09375 0.36564,-6.14172 -0.0407,-6.77327 -0.40625,-0.63155 -3.45401,-1.53996 -6.7728,-2.01872 -3.31878,-0.47874 -7.92668,-1.63136 -10.23976,-2.56137 -3.66814,-1.47482 -7.4832,-1.7052 -29.8524,-1.80269 -18.05425,-0.0787 -25.75037,-0.42352 -25.99671,-1.16485 -0.19246,-0.5792 1.72601,-2.10835 4.26328,-3.39809 4.27372,-2.17243 6.23002,-2.43004 26.58179,-3.50039 20.05942,-1.05498 22.32651,-1.01825 26.08763,0.42262 2.33794,0.89566 6.75617,1.57801 10.21762,1.57801 3.91541,0 6.74796,0.49273 7.91268,1.37644 2.44118,1.85218 2.98249,1.77604 3.70953,-0.52182 0.34071,-1.07684 1.9042,-2.49976 3.47443,-3.16205 l 2.85497,-1.20418 -3.41146,-1.1294 c -1.87626,-0.62117 -3.41142,-1.51856 -3.41142,-1.99419 0,-1.1475 0.45424,-1.09821 4.00198,0.43423 5.06613,2.18831 10.01671,7.46507 10.01671,10.67668 0,4.57067 -2.84828,7.24304 -7.71981,7.24304 l -4.14664,0 -2.42809,9.84375 c -2.36604,9.59216 -2.38321,9.87969 -0.67202,11.25 1.78325,1.42802 1.72033,5.97294 -0.0983,7.10043 -0.4612,0.28593 -0.82299,28.51071 -0.82299,64.2049 l 0,63.69467 23.36448,0 23.36449,0 0,-21.09375 0,-21.09375 -10.28037,0 c -6.23054,0 -10.28038,-0.36932 -10.28038,-0.9375 0,-0.56818 4.04984,-0.9375 10.28038,-0.9375 l 10.28037,0 0,-40.62489 c 0,-25.80016 -0.37503,-42.49812 -1.0277,-45.75818 -0.92998,-4.64518 -0.75583,-6.14508 1.83141,-15.77417 l 2.8591,-10.64088 -2.53233,-3.27894 c -7.93971,-10.28054 -28.77927,-28.498641 -44.7627,-39.13188 -8.37954,-5.574622 -9.41388,-6.641687 -7.90512,-8.155156 1.60963,-1.61467 8.07016,0.800744 15.49829,5.794379 3.62989,2.440232 11.22597,7.238453 16.88017,10.662715 13.51807,8.186721 26.55295,18.817892 28.98703,23.641672 1.64709,3.26414 2.23519,3.69471 4.6729,3.42127 1.53376,-0.17205 3.51676,-0.96855 4.40665,-1.77001 1.30912,-1.17903 1.88663,-1.23356 3.02525,-0.28562 0.83626,0.6962 2.39731,0.9223 3.84732,0.55724 1.7774,-0.4475 2.32446,-0.28497 2.01441,0.59843 -0.27258,0.77666 -1.84704,1.14603 -4.3784,1.02717 -3.39768,-0.15952 -3.85717,0.038 -3.27197,1.40625 1.32573,3.09984 1.51818,6.55806 0.47388,8.51544 -0.84972,1.59268 -1.93369,1.98266 -5.51088,1.98266 -2.44921,0 -4.94399,-0.49242 -5.54396,-1.09427 -1.25188,-1.25579 -0.94507,-1.92354 -4.34904,9.46514 -1.67506,5.60424 -2.07929,8.24367 -1.39011,9.07668 0.67314,0.81362 0.66726,2.27455 -0.0192,4.75413 -0.65269,2.35783 -0.99268,25.09807 -0.99611,66.62645 l -0.005,63.04687 21.02804,0 21.02803,0 0,-21.09375 0,-21.09375 -9.34579,0 c -5.60748,0 -9.3458,-0.375 -9.3458,-0.9375 0,-0.56273 3.75021,-0.9375 9.38146,-0.9375 l 9.38146,0 -0.26931,-42.98192 c -0.21556,-34.40422 -0.52116,-43.28612 -1.53128,-44.50625 -0.9898,-1.19558 -1.11678,-3.85554 -0.58871,-12.33338 0.42057,-6.75208 0.31636,-11.77564 -0.27764,-13.38437 -4.65714,-12.61281 -4.66396,-12.87044 -1.48389,-56.01283 0.79816,-10.828125 1.72714,-24.328125 2.06441,-30 0.72754,-12.235035 2.09179,-13.453822 5.41784,-4.840169 2.00939,5.203822 2.121,6.843502 2.27467,33.417237 0.0889,15.369698 -0.11903,28.400417 -0.46204,28.957154 -0.34302,0.556737 -0.11759,5.379444 0.50093,10.717128 1.04871,9.05007 1.28793,9.77737 3.54526,10.77904 1.33138,0.59077 3.29157,0.84541 4.35601,0.56584 1.60523,-0.42161 2.1233,0.12105 3.03738,3.1815 1.31798,4.41276 1.38348,5.81602 0.27148,5.81602 -0.45681,0 -1.10671,-1.47656 -1.44421,-3.28125 -0.90286,-4.82769 -3.30232,-4.38431 -2.6506,0.48979 0.66192,4.95049 -1.46758,7.47896 -6.29887,7.47896 l -3.45793,0 -0.57592,6.79687 c -0.52835,6.23529 -0.40822,6.92513 1.4539,8.3491 1.80585,1.38094 1.88022,1.73298 0.67402,3.19043 -1.1503,1.38994 -1.39495,11.49185 -1.61409,66.65092 l -0.25828,65.01268 19.6508,0 19.65082,0 0,-21.09375 0,-21.09375 -7.94393,0 c -4.6729,0 -7.94392,-0.38603 -7.94392,-0.9375 0,-0.55187 3.28552,-0.9375 7.9874,-0.9375 l 7.98739,0 -0.27711,-43.45075 c -0.22502,-35.28158 -0.51988,-43.74397 -1.56833,-45.01033 -0.96816,-1.16939 -1.34755,-5.6357 -1.51641,-17.85171 -0.12386,-8.96067 -0.50108,-16.73991 -0.83827,-17.28718 -0.33719,-0.54729 0.0885,-4.84157 0.9459,-9.542861 1.33369,-7.31257 1.40507,-10.070605 0.49397,-19.085547 -0.58576,-5.795759 -1.00316,-13.25521 -0.92756,-16.576558 0.10156,-4.462161 0.32407,-3.243638 0.85224,4.667122 0.39313,5.888264 0.9989,12.606416 1.34614,14.929227 l 0.63135,4.223292 1.47347,-3.051894 c 1.30208,-2.696901 1.33603,-4.413429 0.29182,-14.757068 -0.64989,-6.437847 -0.98325,-11.904183 -0.74077,-12.147415 0.24247,-0.243231 0.95316,5.163672 1.5793,12.015341 0.62614,6.851669 1.61161,13.442791 2.18992,14.646938 1.06459,2.216653 6.00797,5.404976 6.93633,4.473715 0.65476,-0.656808 -1.41665,-17.117081 -3.12693,-24.847734 -0.72971,-3.298438 -1.14442,-6.180072 -0.92156,-6.40363 0.59604,-0.597903 3.13251,12.057839 4.37593,21.833784 1.02071,8.024977 0.96829,8.716235 -0.94644,12.481148 -1.95539,3.844863 -1.9745,4.166838 -0.54059,9.1147 0.81752,2.82098 1.21809,5.56456 0.89013,6.09685 -0.99203,1.61016 2.57397,3.62525 4.5439,2.56769 1.92329,-1.03253 4.39279,0.43413 4.39279,2.60891 0,1.80149 -1.54486,1.61644 -2.26709,-0.27156 -0.44285,-1.15765 -0.87056,-1.28952 -1.64917,-0.50848 -0.77862,0.78105 -0.74319,1.42688 0.13657,2.49024 0.75304,0.91019 0.9691,2.60519 0.5903,4.6307 -0.40835,2.18353 0.002,4.72049 1.29594,8.01373 2.36892,6.02878 2.38948,8.69592 0.0832,10.78961 -2.39322,2.17261 -4.12602,0.9996 -3.45977,-2.34209 0.28916,-1.4503 -0.11484,-4.52278 -0.89777,-6.82772 -1.3678,-4.02683 -1.58582,-4.20377 -5.57177,-4.52177 -2.28155,-0.18203 -4.15146,-0.11698 -4.15536,0.14454 -0.004,0.26154 -0.42111,4.06145 -0.92714,8.44426 -0.84946,7.35731 -0.77407,8.1679 0.9825,10.5643 1.74555,2.38138 1.78349,2.76606 0.45985,4.66173 -1.26608,1.81324 -1.44269,9.8445 -1.44269,65.60757 l 0,63.5414 19.62617,0 19.62617,0 0,-21.09375 0,-21.09375 -9.34579,0 c -5.60748,0 -9.3458,-0.375 -9.3458,-0.9375 0,-0.56273 3.75021,-0.9375 9.38146,-0.9375 l 9.38146,0 -0.26931,-42.98192 c -0.2279,-36.37235 -0.48291,-43.23994 -1.65835,-44.65982 -1.25183,-1.51218 -1.1826,-1.81541 0.70094,-3.06993 1.84933,-1.23176 2.08997,-2.18842 2.08997,-8.30893 l 0,-6.9169 -3.59347,0 c -4.83462,0 -7.1314,-2.5141 -6.40408,-7.01004 0.68101,-4.20969 -1.70702,-4.65639 -2.61927,-0.48996 -0.3387,1.54688 -1.00296,2.8125 -1.47613,2.8125 -1.10694,0 -1.08537,-0.43522 0.24172,-4.87852 0.91409,-3.06045 1.43215,-3.60311 3.03739,-3.1815 1.06444,0.27957 3.02463,0.0249 4.35601,-0.56584 2.25733,-1.00167 2.49655,-1.72897 3.54526,-10.77904 0.61852,-5.337684 0.84457,-10.159388 0.50231,-10.714898 -0.34226,-0.555511 -0.55032,-13.796788 -0.46238,-29.42506 0.15231,-27.066105 0.26024,-28.674866 2.2733,-33.888216 2.76568,-7.162437 4.7184,-7.284954 5.05125,-0.316926 0.13547,2.835937 0.85392,13.171875 1.59655,22.96875 0.74263,9.796875 1.85211,26.276916 2.4655,36.622312 1.15516,19.482558 0.89835,22.238048 -2.99119,32.093668 -0.46744,1.18442 -0.84987,7.11177 -0.84987,13.17188 0,7.56494 -0.36615,11.38555 -1.16823,12.18984 -0.90708,0.90959 -1.22596,15.72559 -1.42651,66.28125 l -0.25828,65.1098 21.51996,0 21.51997,0 0,-21.09375 0,-21.09375 -7.94392,0 c -4.6729,0 -7.94393,-0.38603 -7.94393,-0.9375 0,-0.55148 3.27103,-0.9375 7.94393,-0.9375 l 7.94392,0 0,-41.51015 c 0,-35.85183 -0.1961,-41.791 -1.43862,-43.57048 -1.28827,-1.84502 -1.29025,-2.28746 -0.0189,-4.23382 1.18327,-1.81154 1.26838,-3.49373 0.51112,-10.1014 -0.49971,-4.36035 -0.91176,-8.08502 -0.91566,-8.27706 -0.004,-0.19205 -0.62071,0.16167 -1.37068,0.78604 -1.82941,1.52302 -6.69495,0.38517 -8.32296,-1.9464 -1.22473,-1.75402 -1.32667,-1.7111 -2.46105,1.03609 -0.97831,2.36922 -0.93547,3.87715 0.24721,8.70092 1.37784,5.61983 0.97919,8.17876 -1.27415,8.17876 -1.44883,0 -3.44535,-5.07871 -4.11728,-10.47346 -0.57057,-4.58101 -0.2709,-6.39394 2.16939,-13.12402 3.78749,-10.44553 5.47134,-20.502436 6.71301,-40.09396 0.56984,-8.99123 1.45348,-17.006855 1.96363,-17.8125 0.76053,-1.201023 0.84589,-1.127154 0.47402,0.41019 -0.24945,1.03125 -0.70743,5.25 -1.01774,9.375 -0.3103,4.125 -0.80525,9.567002 -1.09987,12.093337 l -0.53569,4.593337 2.82129,-2.015212 c 3.76226,-2.687333 5.12872,-2.548152 8.53563,0.869403 l 2.87559,2.884616 0.20585,-14.368991 0.20585,-14.36899 0.28817,13.53484 c 0.24747,11.62389 0.0205,14.329948 -1.60772,19.166412 -2.28284,6.78097 -2.50987,17.952388 -0.48343,23.787748 1.64287,4.73081 1.64719,5.17237 0.92398,94.21412 l -0.53873,66.32813 18.72731,0 18.72732,0 0,-21.5625 0,-21.5625 -9.3458,0 c -5.60748,0 -9.34579,-0.375 -9.34579,-0.9375 0,-0.56274 3.75031,-0.9375 9.3818,-0.9375 l 9.3818,0 -0.26965,-42.51318 c -0.21572,-34.01015 -0.52207,-42.81806 -1.53163,-44.0375 -0.98981,-1.19557 -1.11677,-3.85553 -0.58871,-12.33337 0.42057,-6.75208 0.31637,-11.77564 -0.27763,-13.38437 -4.65714,-12.61281 -4.66396,-12.87044 -1.4839,-56.01283 0.79816,-10.828125 1.72714,-24.328125 2.06441,-30 0.72754,-12.235035 2.0918,-13.453822 5.41784,-4.840169 2.0094,5.203822 2.121,6.843502 2.27468,33.417237 0.0889,15.369698 -0.11904,28.400417 -0.46205,28.957154 -0.34302,0.556737 -0.11759,5.379444 0.50093,10.717128 1.04871,9.05007 1.28793,9.77737 3.54526,10.77904 1.33138,0.59077 3.29157,0.84541 4.35601,0.56584 1.60524,-0.42161 2.1233,0.12105 3.03739,3.1815 1.31797,4.41276 1.38347,5.81602 0.27147,5.81602 -0.45681,0 -1.10671,-1.47656 -1.44421,-3.28125 -0.90286,-4.82769 -3.30232,-4.38431 -2.6506,0.48979 0.66193,4.95049 -1.46758,7.47896 -6.29887,7.47896 l -3.45792,0 -0.57593,6.79687 c -0.52834,6.23529 -0.40821,6.92513 1.4539,8.3491 1.80585,1.38094 1.88022,1.73298 0.67403,3.19043 -1.15031,1.38994 -1.39496,11.49185 -1.6141,66.65092 l -0.25828,65.01268 16.84707,0 16.84707,0 0,-20.625 0,-20.625 -7.94392,0 c -4.6729,0 -7.94393,-0.38603 -7.94393,-0.9375 0,-0.55187 3.28553,-0.9375 7.9874,-0.9375 l 7.9874,0 -0.27712,-43.45075 c -0.22501,-35.28158 -0.51987,-43.74397 -1.56832,-45.01033 -0.95265,-1.15064 -1.40053,-5.92012 -1.70812,-18.18988 -0.2293,-9.14666 -0.4547,-17.68498 -0.50086,-18.97404 -0.0462,-1.28906 0.45328,-6.17725 1.10989,-10.862653 0.92196,-6.57874 0.95761,-10.697236 0.15655,-18.083638 -0.5705,-5.260609 -0.97543,-12.395855 -0.89984,-15.856102 0.10766,-4.927732 0.29238,-3.970892 0.85225,4.414579 0.39313,5.888264 0.99889,12.606416 1.34614,14.929227 l 0.63134,4.223292 1.47348,-3.051894 c 1.30207,-2.696901 1.33603,-4.413429 0.29182,-14.757069 -0.6499,-6.437846 -0.98325,-11.904182 -0.74077,-12.147414 0.24246,-0.243231 0.95315,5.163672 1.57929,12.015341 0.62614,6.851669 1.61161,13.442791 2.18993,14.646938 1.06459,2.216653 6.00796,5.404976 6.93633,4.473715 0.65475,-0.656808 -1.41666,-17.117081 -3.12693,-24.847734 -0.72972,-3.298438 -1.14442,-6.180072 -0.92156,-6.40363 0.57572,-0.577525 3.0825,11.83725 4.37059,21.64533 1.03146,7.853895 0.97795,8.549088 -0.98084,12.744266 -2.0148,4.315102 -2.03065,4.598424 -0.57604,10.294066 0.82268,3.22126 1.24226,6.26831 0.93241,6.77123 -0.96713,1.56974 2.64252,3.55271 4.57681,2.51427 1.92329,-1.03252 4.39279,0.43414 4.39279,2.60892 0,1.80149 -1.54486,1.61643 -2.26709,-0.27156 -0.44285,-1.15765 -0.87056,-1.28952 -1.64917,-0.50848 -0.77862,0.78105 -0.7432,1.42687 0.13657,2.49024 0.75304,0.91018 0.9691,2.60518 0.5903,4.6307 -0.40836,2.18353 0.002,4.72049 1.29593,8.01373 2.36893,6.02878 2.38949,8.69592 0.0832,10.78961 -2.39322,2.17261 -4.12603,0.99959 -3.45978,-2.34209 0.28916,-1.4503 -0.11484,-4.52278 -0.89776,-6.82772 -1.36781,-4.02683 -1.58582,-4.20377 -5.57178,-4.52177 -2.28154,-0.18203 -4.15146,-0.11698 -4.15535,0.14454 -0.004,0.26153 -0.42112,4.06145 -0.92714,8.44426 -0.84946,7.35731 -0.77408,8.1679 0.98249,10.5643 1.74555,2.38137 1.7835,2.76606 0.45985,4.66173 -1.26582,1.81287 -1.44268,9.79831 -1.44268,65.13882 l 0,63.07265 23.36449,0 23.36448,0 0,-21.09375 0,-21.09375 -8.41121,0 c -4.98442,0 -8.41122,-0.38195 -8.41122,-0.9375 0,-0.55592 3.44142,-0.9375 8.45509,-0.9375 l 8.4551,0 -0.27753,-43.07903 c -0.21199,-32.90681 -0.55337,-43.35552 -1.44574,-44.25 -0.70561,-0.70726 -1.16823,-3.69549 -1.16823,-7.54597 l 0,-6.375 -3.59346,0 c -6.07035,0 -7.99839,-3.94616 -5.26756,-10.78125 0.66185,-1.6566 0.45996,-1.61066 -1.7333,0.39432 -3.20072,2.92597 -4.44847,1.75754 -1.49309,-1.39816 1.80169,-1.92379 2.83026,-2.29353 5.16055,-1.85499 l 2.91038,0.5477 0.77302,-9.15694 c 0.42516,-5.03631 0.73707,-10.84443 0.69313,-12.90693 -0.0439,-2.0625 -0.0975,-15.000594 -0.11894,-28.751321 -0.0371,-23.768347 0.0651,-25.270956 2.07215,-30.46875 2.76357,-7.156958 4.7164,-7.277322 5.04868,-0.311179 0.13527,2.835937 0.88144,13.171875 1.65816,22.96875 3.11026,39.230306 3.41359,44.29452 3.0055,50.17862 -0.23331,3.36386 -0.95138,6.96292 -1.59572,7.9979 -0.9943,1.59711 -0.64396,3.41421 2.3159,12.01191 3.13209,9.0979 3.34157,10.27645 2.05589,11.56615 -1.61932,1.62439 -3.86522,0.76071 -3.11585,-1.19821 0.27041,-0.70688 -0.53698,-3.08999 -1.79419,-5.2958 l -2.28584,-4.01057 -0.0112,5.74503 c -0.009,4.77662 0.31474,5.96215 1.92271,7.03314 1.82555,1.21591 1.85206,1.44569 0.47305,4.09872 -1.28242,2.46718 -1.46163,10.51432 -1.46669,65.85748 l -0.006,63.04688 18.69159,0 18.69159,0 0,-21.09375 0,-21.09375 -7.47664,0 c -4.36137,0 -7.47663,-0.39063 -7.47663,-0.9375 0,-0.54725 3.12727,-0.9375 7.51264,-0.9375 l 7.51264,0 -0.26965,-42.61021 c -0.20592,-32.54036 -0.0506,-42.16135 -0.83674,-42.94943 -0.67603,-0.67767 -1.76936,-3.76752 -1.76936,-9.49296 l 0,-8.71875 -3.59347,0 c -4.97522,0 -7.10363,-2.47393 -6.43442,-7.47896 0.65172,-4.8741 -1.74774,-5.31748 -2.6506,-0.48979 -0.3375,1.80469 -0.9874,3.28125 -1.44421,3.28125 -1.112,0 -1.0465,-1.40326 0.27147,-5.81602 0.91409,-3.06045 1.43215,-3.60311 3.03739,-3.1815 1.06444,0.27957 3.02463,0.0249 4.35601,-0.56584 2.25733,-1.00167 2.49655,-1.72897 3.54526,-10.77904 0.61852,-5.337686 0.84267,-10.162469 0.49809,-10.721744 -0.34457,-0.559275 -0.5522,-13.168873 -0.4614,-28.021329 0.15643,-25.588733 0.27583,-27.291268 2.27751,-32.475122 2.76449,-7.159336 4.7162,-7.280751 5.054,-0.314407 0.13752,2.835937 1.06555,15.914062 2.06228,29.0625 3.5785,47.205712 3.56087,48.265322 -0.99514,59.809732 -0.46744,1.18442 -0.84988,6.33596 -0.84988,11.44786 0,8.30495 0.90467,10.52647 2.4878,12.006 1.54754,1.44624 2.01679,3.90748 0.65635,4.71295 -0.75298,0.44583 -1.01367,-0.40443 -1.21314,2.66004 -0.46325,7.11694 -0.63729,22.61011 -0.78756,60.12671 l -0.25842,64.51733 12.87525,0.28972 c 7.08138,0.15936 -122.12476,0.29015 -287.12475,0.29065 -165,5e-4 -294.403153,-0.13032 -287.562568,-0.2907 z m 70.272851,-21.33019 0,-21.09375 -31.877016,0 -31.877016,0 0.647262,2.57812 c 0.630175,2.51007 7.966585,38.70941 7.966585,39.30875 0,0.16535 12.406541,0.30063 27.570092,0.30063 l 27.570093,0 z m 29.906537,-73.50904 c 0,-0.46903 -3.50472,-5.00418 -7.78826,-10.07812 -4.28355,-5.07394 -9.02276,-10.94697 -10.5316,-13.05117 -3.65235,-5.09355 -7.602873,-9.76792 -8.255313,-9.76792 -0.290196,0 -0.529329,2.63672 -0.53141,5.85937 l -0.0037,5.85938 10.798913,10.48463 c 5.93941,5.76654 11.30326,10.69026 11.91968,10.9416 1.92196,0.78369 4.39178,0.64435 4.39178,-0.24777 z M 90.38083,151.92277 c -0.624392,-7.47103 -1.842926,-10.36027 -4.369427,-10.36027 -4.058947,0 -3.412865,9.12546 0.96702,13.65847 1.709327,1.7691 3.296645,3.21653 3.527373,3.21653 0.230728,0 0.174493,-2.93163 -0.124966,-6.51473 z m -7.658513,-4.68029 c -0.833735,-3.80783 0.956951,-6.91907 3.681589,-6.3966 2.066848,0.39634 2.140187,0.15502 2.622769,-8.63016 0.313492,-5.70697 0.07327,-10.70984 -0.651806,-13.57439 l -1.148271,-4.53649 -1.588739,3.98305 c -1.91446,4.79967 -4.779809,26.23451 -3.950196,29.55028 0.830481,3.31923 1.769425,2.96016 1.034654,-0.39569 z m 409.890763,-3.49691 c -1.78937,-2.44086 -1.87464,-3.25732 -1.07177,-10.26337 1.12872,-9.84955 0.37458,-17.51375 -1.86114,-18.91434 -1.48674,-0.93139 -1.75272,-0.61205 -2.32619,2.79296 -0.35614,2.11453 -0.34604,9.08796 0.0224,15.49652 0.5533,9.623 0.93769,11.73364 2.2075,12.12118 0.84566,0.2581 2.16839,0.81122 2.93942,1.22917 2.17953,1.18144 2.20705,0.42609 0.0897,-2.46212 z m -164.48598,-0.9375 c -1.78937,-2.44086 -1.87463,-3.25732 -1.07176,-10.26337 1.13397,-9.89536 0.37609,-17.51279 -1.88322,-18.92817 -1.52741,-0.95686 -1.76607,-0.6285 -2.34163,3.22165 -0.3525,2.3579 -0.27141,9.41282 0.18019,15.67759 l 0.82109,11.39048 2.57009,0.29664 c 1.41355,0.16316 2.57009,0.76081 2.57009,1.32813 0,0.56731 0.24732,0.7834 0.54959,0.48018 0.30227,-0.30322 -0.32522,-1.74462 -1.39444,-3.20313 z m 86.35887,1.41362 c 1.7704,-0.35065 1.85466,-1.00589 1.59479,-12.40111 -0.1679,-7.36305 -0.79718,-13.53598 -1.6219,-15.91011 -1.7655,-5.08235 -1.75079,-17.105629 0.0271,-22.16047 1.8025,-5.124797 1.82717,-4.942692 -1.06202,-7.840909 -2.9699,-2.979189 -4.35061,-3.072229 -7.90586,-0.532753 -2.32951,1.663945 -2.71633,2.561164 -2.72818,6.328125 -0.007,2.414106 -0.65256,7.107718 -1.43325,10.430247 -1.41853,6.03713 -1.41797,6.04244 0.89486,8.36249 1.945,1.95108 2.54653,2.12818 3.76969,1.10987 1.58302,-1.31789 2.04549,-4.27105 0.52084,-3.32582 -0.51402,0.31868 -0.93458,0.1017 -0.93458,-0.48217 0,-2.35975 3.10336,-0.23665 4.13067,2.82592 0.60536,1.80469 1.57882,3.18482 2.16324,3.06697 0.73583,-0.1484 0.95653,1.7114 0.71775,6.04821 -0.18965,3.44438 0.0392,9.63961 0.50845,13.76719 0.6947,6.11012 0.59627,7.89812 -0.52969,9.62192 -0.76062,1.16448 -1.37651,2.44849 -1.36864,2.85335 0.007,0.40486 0.32329,0.25757 0.70094,-0.32732 0.37764,-0.58487 1.52774,-1.23001 2.55579,-1.43363 z m 127.65032,-0.45833 c -2.27397,-1.59774 -2.28435,-1.94497 -0.78087,-26.10711 0.20097,-3.22952 -0.0502,-3.79049 -1.80965,-4.04172 -1.44626,-0.20651 -2.45902,0.47809 -3.46726,2.34375 -0.78334,1.44951 -1.44109,2.202 -1.46167,1.6722 -0.0206,-0.52981 0.63403,-1.92491 1.4547,-3.10022 1.85715,-2.65975 5.07081,-2.36876 6.53646,0.59186 1.05028,2.12158 1.07479,2.10946 1.65891,-0.82031 0.74979,-3.76068 0.75084,-13.94128 0.002,-20.192307 l -0.57457,-4.79674 -2.7698,1.046744 c -2.45548,0.927952 -2.9727,0.795572 -4.5575,-1.166492 -0.98322,-1.217279 -1.77084,-2.693842 -1.75026,-3.28125 0.0206,-0.587408 0.66485,0.09214 1.43171,1.51011 1.49819,2.770207 3.13803,3.181123 6.17926,1.548416 1.70677,-0.916285 1.85341,-1.613333 1.33135,-6.328125 -1.18785,-10.72913 -3.37207,-40.105805 -3.37207,-45.355144 0,-2.976613 -0.36421,-5.412022 -0.80935,-5.412022 -0.44514,0 -1.68744,2.425781 -2.76067,5.390625 -1.79932,4.970734 -1.94797,7.325774 -1.90844,30.234375 0.0236,13.664062 0.0828,26.53125 0.13157,28.59375 0.0488,2.0625 -0.26089,7.65729 -0.68816,12.43288 -0.68011,7.60165 -0.57607,8.90543 0.8355,10.47007 1.26691,1.40429 1.74634,4.36313 2.23773,13.81014 l 0.62537,12.02295 2.80374,0.53492 c 3.68043,0.70219 4.10607,0.24229 1.4821,-1.60135 z m 41.31863,1.72518 c -1.56161,-1.56648 -3.15792,-4.55256 -2.72494,-13.77046 0.25887,-5.51137 0.60006,-11.70818 0.75819,-13.77068 0.24901,-3.24775 0.0144,-3.78901 -1.75206,-4.04126 -3.26261,-0.46593 -4.18857,2.45344 -3.123,9.84626 0.50597,3.51038 0.92828,10.07391 0.93845,14.58562 0,0 0.5352,4.99127 0.7841,5.92017 0.12359,0.46125 0.80812,1.05874 0.80812,1.05874 l 3.12621,2.70069 c 1.19972,1.03641 2.1285,-0.16656 2.1285,-0.47108 10e-6,-0.30453 -0.01,-1.12139 -0.94357,-2.058 z M 92.580701,140.76386 c -0.916789,-2.22024 -0.822862,-4.38316 0.500023,-11.51444 2.125984,-11.46055 2.194825,-15.79022 0.270603,-17.0207 -0.829666,-0.53054 -2.250342,-0.67905 -3.157058,-0.33002 -1.401959,0.53966 -1.542922,1.29825 -0.942314,5.07107 0.388442,2.44006 0.61363,8.78978 0.500417,14.11048 -0.172267,8.09611 0.0614,9.97022 1.432608,11.49012 2.166314,2.40124 2.796429,1.58566 1.395721,-1.80651 z m 100.877239,3.05829 c 0,-0.30407 -0.83403,-1.25329 -1.8534,-2.10938 -1.84122,-1.54628 -1.83534,-1.62745 0.89304,-12.33777 2.58502,-10.14755 2.84508,-15 0.80388,-15 -0.48862,0 -0.62652,-0.42507 -0.30643,-0.94462 0.32569,-0.52862 -0.50808,-0.44639 -1.89331,0.18674 -2.25878,1.03239 -2.43824,1.50449 -2.05179,5.39774 0.23292,2.34651 -0.0114,8.315 -0.54295,13.26331 -0.53155,4.94831 -0.69963,9.6944 -0.37352,10.54688 0.54158,1.41575 5.32448,2.31142 5.32448,0.9971 z m 48.59813,-0.19715 c 0,-0.4125 -0.40668,-1.15794 -0.90371,-1.65653 -1.1263,-1.12982 3.54905,-17.3068 5.71645,-19.77923 3.48291,-3.97308 2.85172,-8.75174 -1.15598,-8.75174 -1.95328,0 -4.04601,3.25523 -3.31732,5.16008 0.26585,0.69497 -0.75069,5.82998 -2.25898,11.41112 -3.45153,12.77171 -3.49781,14.3663 -0.41691,14.3663 1.28505,0 2.33645,-0.3375 2.33645,-0.75 z m 45.79439,-0.12432 c 0,-0.48088 -0.87056,-1.1515 -1.93458,-1.49026 -2.10119,-0.66897 -2.0891,-2.62421 0.12335,-19.96396 1.00519,-7.87791 0.11755,-10.77433 -3.15855,-10.30647 -1.7785,0.25398 -1.99503,0.77126 -1.69165,4.04126 0.19135,2.0625 0.28806,9.33984 0.21492,16.17187 l -0.13301,12.42188 3.28976,0 c 1.80937,0 3.28976,-0.39345 3.28976,-0.87432 z m 84.46621,-11.07881 c 0.2519,-6.57421 0.59069,-13.64062 0.7529,-15.70312 0.25562,-3.25048 0.0232,-3.78879 -1.74466,-4.04126 -3.24967,-0.46408 -4.2449,2.5283 -3.13098,9.41391 0.52295,3.23254 0.95399,8.72143 0.95788,12.19753 0.006,5.3094 -0.29188,6.50745 -1.8621,7.49114 -2.74452,1.71934 -2.28904,2.59493 1.34992,2.59493 l 3.21906,0 0.45798,-11.95312 z m 85.62724,11.07881 c 0,-0.48088 -0.87056,-1.1515 -1.93458,-1.49026 -2.10118,-0.66897 -2.0891,-2.62421 0.12336,-19.96396 1.00518,-7.87791 0.11754,-10.77433 -3.15855,-10.30647 -1.77851,0.25398 -1.99504,0.77126 -1.69166,4.04126 0.19136,2.0625 0.28807,9.33984 0.21492,16.17187 l -0.13301,12.42188 3.28977,0 c 1.80936,0 3.28975,-0.39345 3.28975,-0.87432 z m 90.23531,-3.13286 c 0.25135,-0.65709 -0.99154,-5.36683 -2.762,-10.4661 -3.20269,-9.2244 -3.22239,-9.25331 -3.88648,-5.7024 -0.54481,2.9132 -0.17553,4.53484 2.00975,8.82546 1.47247,2.89105 2.58692,5.99475 2.47656,6.89709 -0.23049,1.88469 1.47707,2.23686 2.16217,0.44595 z m -148.68085,-1.22719 c -0.0189,-0.47266 -0.58313,-3.32737 -1.2539,-6.34379 -1.15879,-5.21112 -1.10211,-5.74838 1.13738,-10.78125 3.31734,-7.45519 3.79951,-9.90912 2.20745,-11.23454 -1.11253,-0.9262 -1.83867,0.22868 -4.36411,6.94083 -2.63615,7.00642 -2.94501,8.73035 -2.37872,13.27698 0.75372,6.05139 2.23837,9.81964 3.67904,9.33792 0.55396,-0.18523 0.99174,-0.7235 0.97286,-1.19615 z M 507.28971,137.625 c 1.91483,-1.92082 1.2802,-5.01092 -3.56938,-17.37972 -5.78001,-14.74186 -6.59084,-15.94288 -9.77942,-14.48553 -3.3064,1.5112 -2.93416,3.85334 1.34385,8.45543 5.25125,5.64905 9.88114,15.45575 9.68591,20.516 -0.1601,4.14978 0.38674,4.83216 2.31904,2.89382 z m -164.48598,-0.9375 c 1.91483,-1.92082 1.2802,-5.01092 -3.56938,-17.37972 -5.78,-14.74186 -6.59084,-15.94288 -9.77942,-14.48553 -3.3064,1.5112 -2.93415,3.85334 1.34385,8.45543 5.25126,5.64905 9.88114,15.45575 9.68591,20.516 -0.1601,4.14978 0.38674,4.83216 2.31904,2.89382 z m 193.57916,-8.01563 c -0.0361,-0.90234 -0.39063,-2.47496 -0.7878,-3.49471 -0.70576,-1.81207 -0.74664,-1.80815 -1.80348,0.17274 -1.62731,3.05016 -1.32371,4.9626 0.78781,4.9626 1.18213,0 1.84502,-0.60304 1.80347,-1.64063 z m 39.31803,-4.81822 c 0,-4.49189 -1.46724,-3.93774 -2.43575,0.91992 -0.48011,2.40805 -0.29487,3.01758 0.91706,3.01758 1.1608,0 1.51869,-0.92788 1.51869,-3.9375 z M 289.35163,122.6074 c -0.96851,-4.85762 -2.43575,-5.41177 -2.43575,-0.91988 0,3.00962 0.35789,3.9375 1.51869,3.9375 1.21193,0 1.39717,-0.60953 0.91706,-3.01758 z m 77.90836,-0.498 c -0.0279,-3.29457 -0.11601,-3.4012 -1.40187,-1.69582 -1.77745,2.35733 -1.76117,5.21144 0.0297,5.21144 1.00217,0 1.39339,-1.00237 1.37215,-3.51562 z m 43.36417,1.533 c 2.18219,-3.12526 0.97156,-4.73191 -3.02232,-4.01097 -5.69707,1.0284 -7.46712,3.47967 -3.62989,5.02688 3.3937,1.36836 5.17763,1.09593 6.65221,-1.01591 z m 48.82092,-1.03496 c -0.9685,-4.85766 -2.43575,-5.41181 -2.43575,-0.91992 0,3.00962 0.35789,3.9375 1.51869,3.9375 1.21193,0 1.39717,-0.60953 0.91706,-3.01758 z m -204.3049,-0.0551 c 0,-1.53496 -2.6577,-5.36485 -3.72286,-5.36485 -1.04277,0 -3.7246,5.34177 -3.03109,6.03744 1.07728,1.08064 6.75395,0.51533 6.75395,-0.67259 z m 244.37632,-1.38047 c -2.90938,-4.92262 -4.08774,-6.09912 -5.54638,-5.53764 -1.7657,0.67968 -1.99319,6.80083 -0.27855,7.49487 0.64253,0.26007 2.55883,0.50617 4.25845,0.54687 l 3.09022,0.074 -1.52374,-2.57812 z m -164.48598,-0.9375 c -2.90938,-4.92262 -4.08774,-6.09912 -5.54638,-5.53764 -1.7657,0.67968 -1.99319,6.80083 -0.27854,7.49487 0.64252,0.26007 2.55882,0.50617 4.25845,0.54687 l 3.09021,0.074 -1.52374,-2.57812 z m -131.64732,-1.21467 2.57032,-0.98028 -2.88536,-2.89436 c -2.29028,-2.29745 -3.38605,-2.7683 -5.3132,-2.28311 -2.57581,0.64851 -3.04416,2.35614 -1.4604,5.32467 1.0833,2.0305 3.27395,2.28796 7.08864,0.83308 z m -101.41425,-1.72475 c 1.86552,-1.51534 1.99733,-1.98355 0.92368,-3.28125 -0.68878,-0.83254 -2.63344,-1.51371 -4.321446,-1.51371 -3.160028,0 -3.296374,0.41095 -1.788448,5.39062 0.511878,1.69042 2.678121,1.44162 5.186214,-0.59566 z m 85.88151,-0.54323 c 0,-1.41494 0.78992,-2.73484 2.03759,-3.40465 1.96908,-1.05711 1.97878,-1.13703 0.28866,-2.37674 -1.06699,-0.78265 -4.1856,-1.28284 -7.99822,-1.28284 -3.4407,0 -7.75718,-0.63201 -9.60444,-1.40625 -1.84533,-0.77344 -4.73548,-1.3488 -6.42254,-1.27858 -2.01705,0.084 -2.38077,0.2624 -1.0622,0.52113 3.28421,0.64441 5.34131,3.52999 4.13216,5.79636 -0.92515,1.73408 -0.64712,2.02032 2.9629,3.05047 3.76088,1.07318 10.40815,2.28917 14.03058,2.56661 1.14904,0.088 1.63551,-0.56206 1.63551,-2.18551 z m 58.72296,-4.02089 c 4.9836,1.30731 0.68547,-5.46601 -7.89878,-12.44751 -6.26373,-5.09423 -7.0834,-5.523211 -6.56056,-3.433505 0.46146,1.844381 0.0771,2.798672 -1.68825,4.191645 l -2.28575,1.80359 3.78592,3.6556 c 2.08226,2.01058 4.83523,5.29665 6.11769,7.30239 l 2.33176,3.64679 2.08664,-2.62506 c 1.5236,-1.91676 2.63294,-2.48176 4.11133,-2.09394 z M 370.6484,111.5625 c 1.17616,0 2.42104,0.45863 2.7664,1.01918 2.17508,3.53035 3.82868,-7.1742 2.80352,-18.148402 l -0.65673,-7.030151 -2.81554,1.064061 c -2.51031,0.948704 -3.00936,0.82412 -4.60324,-1.149173 -0.98322,-1.217279 -1.77084,-2.693842 -1.75026,-3.28125 0.0206,-0.587408 0.66485,0.09214 1.43171,1.51011 1.50538,2.783509 3.76112,3.278295 6.33583,1.389735 1.49571,-1.097107 1.54199,-2.339319 0.60257,-16.171875 -0.55967,-8.240917 -1.41504,-19.62411 -1.90083,-25.295985 -0.48578,-5.671875 -0.88683,-12.949219 -0.89123,-16.171875 -0.004,-3.222656 -0.3722,-5.859375 -0.81735,-5.859375 -0.44514,0 -1.68805,2.425781 -2.76202,5.390625 -1.80267,4.976541 -1.96476,7.561511 -2.11016,33.651611 -0.0866,15.543543 0.13435,28.734668 0.49104,29.313611 0.35669,0.578945 0.1487,5.03604 -0.4622,9.904663 -0.61091,4.86862 -0.803,10.02906 -0.42687,11.46763 0.68006,2.60107 0.68927,2.60388 1.65537,0.50624 0.59367,-1.28899 1.80322,-2.10938 3.10999,-2.10938 z m 123.04317,3.20313 c 0.29985,-0.30079 -0.28676,-1.38142 -1.30357,-2.40141 -2.44743,-2.45507 -1.88065,-5.5566 1.34001,-7.33289 2.4782,-1.3668 2.7007,-1.32218 4.51883,0.90617 l 1.91228,2.34375 -0.56411,-2.34375 c -2.47096,-10.266431 -2.53262,-11.083444 -1.05319,-13.953294 1.40819,-2.731653 1.38168,-2.893889 -0.63916,-3.911594 -1.15955,-0.583959 -3.00884,-2.131589 -4.10952,-3.439178 l -2.00125,-2.377435 -1.43423,3.168875 c -0.78882,1.742882 -1.86903,6.543876 -2.40045,10.668876 -0.53143,4.125 -1.24261,8.85419 -1.58041,10.50932 -0.51823,2.53921 -0.17034,3.45454 2.22701,5.85937 2.80808,2.81685 4.02605,3.36822 5.08776,2.30319 z m 85.36804,-1.97448 c 1.17616,0 2.42104,0.45863 2.7664,1.01918 2.17508,3.53035 3.82869,-7.1742 2.80352,-18.148404 l -0.65673,-7.030151 -2.81555,1.064061 c -2.5103,0.9487 -3.00935,0.82412 -4.60323,-1.149173 -0.98322,-1.217279 -1.77084,-2.693842 -1.75026,-3.28125 0.0206,-0.587408 0.66485,0.09214 1.43171,1.51011 1.50902,2.790241 3.7617,3.277866 6.35505,1.375638 1.56091,-1.144931 1.54709,-2.37439 -0.28867,-25.686609 -1.06042,-13.466267 -1.92803,-26.847022 -1.92803,-29.735012 0,-2.887991 -0.36421,-5.250892 -0.80936,-5.250892 -0.44514,0 -1.68778,2.425781 -2.76143,5.390625 -1.79185,4.948157 -1.96541,7.594317 -2.11448,32.238359 -0.0893,14.766254 0.1314,27.324566 0.49046,27.907362 0.35907,0.582795 0.15301,5.043042 -0.4579,9.911666 -0.6109,4.86862 -0.803,10.02906 -0.42686,11.46763 0.68006,2.60107 0.68927,2.60388 1.65537,0.50624 0.59367,-1.28899 1.80321,-2.10938 3.10999,-2.10938 z m -410.36264,-0.1756 c 0.63711,-1.6641 -1.18754,-3.86555 -3.20393,-3.86555 -0.8623,0 -2.03057,-0.4642 -2.59616,-1.03156 -0.74807,-0.75041 -6.08434,-0.74484 -19.57944,0.0204 -15.501,0.87904 -19.28097,1.38327 -22.99034,3.06681 -2.44159,1.10815 -4.43934,2.2591 -4.43944,2.55768 -1e-4,0.29858 11.77077,0.54287 26.15749,0.54287 21.34814,0 26.24852,-0.23732 26.65182,-1.2907 z m 119.2602,-11.10124 c -0.61736,-5.327626 -0.8412,-10.143127 -0.49741,-10.701119 0.34378,-0.557991 0.55347,-13.52001 0.46597,-28.804486 -0.14661,-25.608194 -0.31238,-28.213168 -2.11157,-33.18058 -1.07386,-2.964844 -2.25248,-5.390625 -2.61915,-5.390625 -0.36666,0 -0.92658,4.957031 -1.24424,11.015625 -0.31768,6.058594 -1.25014,19.860749 -2.07216,30.671456 -1.41831,18.652703 -1.41085,19.717254 0.14623,20.859375 2.59474,1.903253 4.8472,1.416162 6.35649,-1.374581 0.76686,-1.417969 1.41113,-2.097518 1.43171,-1.51011 0.0206,0.587408 -0.76704,2.063971 -1.75026,3.28125 -1.59388,1.973293 -2.09293,2.097877 -4.60324,1.149173 l -2.81554,-1.064061 -0.65673,7.030153 c -0.66562,7.12542 -0.15378,16.21889 1.02016,18.1243 0.46287,0.75128 0.92716,0.75803 1.6588,0.0241 1.76357,-1.76909 5.13643,-1.18569 5.83068,1.00852 0.6085,1.92323 0.69158,1.93807 1.61215,0.28795 0.67745,-1.2143 0.63158,-4.66533 -0.15189,-11.42635 z m 41.24843,12.31382 c 0.29984,-0.30079 -0.28677,-1.38142 -1.30358,-2.40141 -2.44742,-2.45507 -1.88065,-5.5566 1.34002,-7.33289 2.48045,-1.36804 2.69418,-1.32421 4.41847,0.90617 2.20926,2.85769 2.27126,2.19885 0.40055,-4.25629 -1.31529,-4.538566 -1.31478,-5.281685 0.006,-7.842737 1.39515,-2.706357 1.36696,-2.875192 -0.64985,-3.890861 -1.15955,-0.583959 -3.00884,-2.131589 -4.10952,-3.439178 l -2.00124,-2.377435 -1.387,3.168875 c -0.76285,1.742882 -2.07457,7.301769 -2.91494,12.353085 -1.63856,9.849241 -1.34745,11.540691 2.44483,14.205211 2.2504,1.58115 2.92318,1.74367 3.75679,0.90746 z m 128.84502,-12.31382 c -0.61735,-5.327626 -0.84119,-10.143127 -0.49741,-10.701119 0.34379,-0.557991 0.55347,-13.52001 0.46597,-28.804486 -0.1466,-25.608194 -0.31238,-28.213168 -2.11157,-33.18058 -1.07386,-2.964844 -2.25247,-5.390625 -2.61915,-5.390625 -0.36666,0 -0.92658,4.957031 -1.24424,11.015625 -0.31767,6.058594 -1.25014,19.860749 -2.07216,30.671456 -1.41831,18.652703 -1.41085,19.717254 0.14624,20.859375 2.59473,1.903253 4.84719,1.416162 6.35648,-1.374581 0.76686,-1.417969 1.41113,-2.097518 1.43171,-1.51011 0.0206,0.587408 -0.76704,2.063971 -1.75026,3.28125 -1.59388,1.973293 -2.09293,2.097877 -4.60323,1.149173 l -2.81555,-1.064061 -0.65672,7.030153 c -0.66563,7.12542 -0.15379,16.21889 1.02015,18.1243 0.46287,0.75128 0.92716,0.75803 1.6588,0.0241 1.76357,-1.76909 5.13644,-1.18569 5.83068,1.00852 0.60851,1.92323 0.69158,1.93807 1.61215,0.28795 0.67745,-1.2143 0.63158,-4.66533 -0.15189,-11.42635 z m -227.35718,-1.49207 c 0.6247,-0.755071 0.73323,-2.289056 0.28189,-3.984374 -0.57729,-2.168382 -2.51463,-3.836795 -9.07892,-7.818643 C 217.30666,85.435109 209.55406,80.555411 204.66842,77.375451 196.27927,71.915122 191.0437,69.375 188.17829,69.375 c -2.79897,0 -0.8852,2.061454 6.44787,6.945474 7.72762,5.146792 21.46767,15.807226 28.04008,21.75532 3.69606,3.344986 6.33977,3.986036 8.0272,1.946446 z M 409.44721,75.859375 c 0.0558,-3.308594 0.43286,-8.546875 0.83793,-11.640625 0.49431,-3.775312 0.57509,-1.925625 0.24566,5.625 -0.5233,11.994191 -1.25267,16.043374 -1.08359,6.015625 z m -4.75021,-20.625 c 0.0636,-5.971102 1.9465,-21.305707 2.90254,-23.637961 0.59121,-1.442284 2.35876,-3.288296 3.92786,-4.102247 2.76466,-1.434132 2.9196,-1.402146 5.00855,1.033989 1.85044,2.157989 2.13919,3.468784 2.03954,9.258498 -0.0638,3.709528 -0.43561,9.697721 -0.82615,13.307096 -0.46276,4.276907 -0.54535,1.991314 -0.23716,-6.5625 0.42911,-11.909269 0.30871,-13.32743 -1.29992,-15.310429 -1.56437,-1.92845 -2.06019,-2.054091 -4.2166,-1.068495 -3.52184,1.609675 -4.38696,4.280408 -5.54524,17.118916 -0.95052,10.535535 -1.81158,15.428221 -1.75342,9.963133 z M 410.83237,54.375 c 2.07123,-14.431174 2.17994,-14.89672 1.64194,-7.03125 -0.28215,4.125 -0.87298,8.132812 -1.31294,8.90625 -0.50659,0.890568 -0.62723,0.20299 -0.329,-1.875 z M 321.00359,45.395257 C 320.26158,33.482587 321.01415,30 324.33045,30 c 1.45683,0 2.51505,1.302922 4.24477,5.226368 2.22999,5.058165 4.80774,18.786338 3.73044,19.867003 -0.29148,0.292396 -0.53843,-0.06603 -0.54876,-0.796496 -0.131,-9.258996 -4.66027,-23.359375 -7.50341,-23.359375 -2.56346,0 -3.0306,2.974241 -2.30267,14.660844 0.36491,5.858411 0.45319,10.651656 0.19618,10.651656 -0.25701,0 -0.77154,-4.884635 -1.14341,-10.854743 z m 3.96899,2.885993 c -0.4006,-4.125 -0.91594,-9.1875 -1.14522,-11.25 -0.22927,-2.0625 0.20944,-0.796875 0.97491,2.8125 0.76548,3.609375 1.28082,8.671875 1.14522,11.25 -0.21812,4.146717 -0.33059,3.822247 -0.97491,-2.8125 z m 160.51354,-4.854137 c -0.77456,-13.471094 -0.1419,-16.708363 3.26532,-16.708363 1.89221,0 2.60544,0.900171 4.40423,5.558577 2.02458,5.24317 4.73968,20.771387 3.79718,21.716836 -0.23919,0.239935 -0.90202,-3.193787 -1.47296,-7.630491 C 494.15142,36.04019 491.032,27.1875 488.72279,27.1875 c -2.58627,0 -3.02064,3.037612 -2.30098,16.090802 0.36492,6.618809 0.45744,12.034198 0.2056,12.034198 -0.25185,0 -0.76542,-5.348424 -1.14129,-11.885387 z m 4.01506,3.447887 c -0.37714,-4.382813 -0.89322,-10.078125 -1.14684,-12.65625 -0.25362,-2.578125 0.17456,-1.101563 0.95152,3.28125 0.77696,4.382812 1.29304,10.078125 1.14685,12.65625 -0.22285,3.93009 -0.3766,3.399903 -0.95153,-3.28125 z M 423.38316,22.991335 c -0.67079,-0.810781 -0.94507,-1.74956 -0.6095,-2.086177 0.33557,-0.336617 1.17282,0.159904 1.86056,1.103382 1.44723,1.985382 3.40315,1.190207 3.40315,-1.38354 0,-2.238339 -1.71379,-3.343354 -3.07208,-1.980814 -1.79787,1.803483 -2.5354,1.152485 -2.5354,-2.237936 0,-3.258829 0.0271,-3.280224 3.97197,-3.131215 3.44308,0.130057 3.56753,0.200381 0.93458,0.528149 -3.42673,0.426581 -4.17215,2.772055 -1.03003,3.240987 1.10405,0.164768 2.46872,1.03786 3.03261,1.940204 2.1715,3.474908 -3.33245,7.177846 -5.95586,4.00696 z m 13.06543,-0.02258 c 0,-0.875 -0.88266,-1.40625 -2.33645,-1.40625 -1.28505,0 -2.33645,-0.219983 -2.33645,-0.48885 0,-0.980764 4.94196,-7.94865 5.63756,-7.94865 0.77486,0 1.56298,7.138747 1.06962,9.688417 -0.3761,1.943574 -2.03428,2.07019 -2.03428,0.155333 z m 0,-4.375 c 0,-1.117187 -0.11901,-1.855468 -0.26446,-1.640625 -0.14545,0.214844 -0.82779,1.128906 -1.5163,2.03125 -1.07157,1.404358 -1.03349,1.640625 0.26446,1.640625 0.93212,0 1.5163,-0.782562 1.5163,-2.03125 z m 5.67071,4.024774 c -1.35475,-2.539284 -1.25532,-5.969391 0.23218,-8.010034 2.95773,-4.057578 7.57296,1.376263 5.70731,6.719635 -1.12186,3.213096 -4.51984,3.951334 -5.93949,1.290399 z m 4.22588,-1.524774 c 0.69338,-2.771272 -0.20656,-7.03125 -1.48538,-7.03125 -1.27882,0 -2.17876,4.259978 -1.48538,7.03125 0.32253,1.289062 0.99095,2.34375 1.48538,2.34375 0.49443,0 1.16285,-1.054688 1.48538,-2.34375 z m 4.46246,-4.681229 c -0.3237,-0.846204 -0.14042,-1.988089 0.4073,-2.537521 1.42393,-1.428383 4.12188,-0.122895 3.74993,1.814524 -0.4143,2.158014 -3.40903,2.678838 -4.15723,0.722997 z m 2.16722,-1.588302 c -0.29834,-0.747875 -0.5198,-0.525728 -0.56464,0.566406 -0.0406,0.988281 0.18031,1.541992 0.49086,1.230469 0.31055,-0.311524 0.34375,-1.120117 0.0737,-1.796875 z"
       id="path3378"
       inkscape:connector-curvature="0"
       sodipodi:nodetypes="csssssscccccssssssssssscsssssssscccccccssscssscssssssssssscssssscsssscccccssscssscsssssssssssscssssscscccccssscsssssssscscsssssscsssscccccssscssscssssscsscsssssssscsssssscsssscsssscccccssscsssscsssssscssssssssssscccccssscsssscsssssssssssscsscccsssscccccssscsssssssscscsssssscsssscccccssscssscssssscsscsscsssssssssssscsssscsssscccccssscssscssssscscssssssssssccssscccccssscssscsssssscscsssssssssscssccccccssscccsssccscccssssssssscssscssssssccssssscsssssssssscsssssscssscsscssscsssccsscsscsssscssscsccssssssccscssssssssssssscssssssssssssssssssscsscssscsscccsssssscsscssssccsssssscsssssssssssscssscsssscsscccssccsssssssssssscscsccccssscccscssssscsssssssscssssssssscsscssssscsscsssscsssssssssssscsssscsssssssscsscssssssscscsscssssssccccssssssscsscssssscccsssscsscsssccccssssssscsscsssssccsssssssssssssssscssssssssssssssssssssssssssssssssssssssssssssssssssssssssssssssssssssscsscccscc" />
  </g>
</svg>
