<?xml version="1.0" encoding="UTF-8" standalone="no"?>
<!-- Created with Inkscape (http://www.inkscape.org/) -->

<svg
   xmlns:dc="http://purl.org/dc/elements/1.1/"
   xmlns:cc="http://creativecommons.org/ns#"
   xmlns:rdf="http://www.w3.org/1999/02/22-rdf-syntax-ns#"
   xmlns:svg="http://www.w3.org/2000/svg"
   xmlns="http://www.w3.org/2000/svg"
   xmlns:sodipodi="http://sodipodi.sourceforge.net/DTD/sodipodi-0.dtd"
   xmlns:inkscape="http://www.inkscape.org/namespaces/inkscape"
   version="1.1"
   width="669"
   height="228"
   id="svg2"
   inkscape:version="0.91 r13725"
   sodipodi:docname="ub330102.svg">
  <sodipodi:namedview
     pagecolor="#a3a3a3"
     bordercolor="#666666"
     borderopacity="1"
     objecttolerance="10"
     gridtolerance="10"
     guidetolerance="10"
     inkscape:pageopacity="0"
     inkscape:pageshadow="2"
     inkscape:window-width="1372"
     inkscape:window-height="790"
     id="namedview11"
     showgrid="false"
     inkscape:zoom="0.64474609"
     inkscape:cx="224.89039"
     inkscape:cy="98.835253"
     inkscape:window-x="0"
     inkscape:window-y="0"
     inkscape:window-maximized="0"
     inkscape:current-layer="svg2" />
  <metadata
     id="metadata8">
    <rdf:RDF>
      <cc:Work
         rdf:about="">
        <dc:format>image/svg+xml</dc:format>
        <dc:type
           rdf:resource="http://purl.org/dc/dcmitype/StillImage" />
        <dc:title></dc:title>
      </cc:Work>
    </rdf:RDF>
  </metadata>
  <defs
     id="defs6" />
  <g
     id="g4319"
     transform="translate(16.711841,3.7285441)">
    <g
       id="g4313">
      <path
         inkscape:connector-curvature="0"
         style="fill:#fefefe"
         id="path2997"
         d="m 208.90085,162.36396 c -2.36106,-0.617 -2.202,-1.88067 0.47251,-3.75397 2.33397,-1.63478 7.77749,-2.14642 7.77749,-0.73101 0,1.16496 -4.43674,5.19814 -5.56445,5.05831 -0.51455,-0.0638 -1.72305,-0.3218 -2.68555,-0.57333 z m 9.16983,-4.02154 c -0.86425,-2.27314 -0.0188,-5.91371 5.23574,-22.54578 4.90857,-15.53695 6.44292,-19.35777 7.08098,-17.63294 0.49857,1.34776 0.25546,4.178 -0.62667,7.29578 -2.31258,8.17345 -5.77074,27.73224 -5.17691,29.27974 0.69339,1.80692 -2.21384,6.31407 -4.07273,6.31407 -0.77536,0 -1.87354,-1.21989 -2.44041,-2.71087 z m -47.66983,-7.32029 c -1.2375,-0.49742 -2.25,-1.55709 -2.25,-2.35483 0,-0.79774 -0.26721,-2.14677 -0.59379,-2.99784 -0.4614,-1.20238 0.82064,-0.95273 5.75,1.11972 7.75276,3.2595 7.62022,3.16141 5.81483,4.30317 -1.8272,1.15556 -5.75005,1.12397 -8.72104,-0.0702 z m -10.03305,-3.06965 c -4.45598,-1.91975 -28.01902,-15.74327 -28.63207,-16.79732 -0.77618,-1.33453 1.50152,-5.19828 3.50028,-5.93767 1.70158,-0.62946 4.80682,0.96967 15.37557,7.91807 12.48293,8.20688 13.2788,8.92519 13.86049,12.50977 0.33943,2.09162 0.51851,3.88157 0.39796,3.97767 -0.12055,0.0961 -2.14655,-0.65564 -4.50223,-1.67052 z m 81.33975,-9.1217 c -0.85618,-1.22237 -1.5567,-3.53118 -1.5567,-5.13067 0,-5.99907 -3.29456,-23.64701 -7.10191,-38.042709 -2.1668,-8.192742 -3.70351,-15.132016 -3.41492,-15.42061 1.05156,-1.051565 5.50454,4.223956 6.93597,8.217175 0.80821,2.254631 3.35304,10.174328 5.65519,17.599324 2.30215,7.425 5.02721,16.0733 6.0557,19.21845 2.492,7.62067 2.38323,10.95074 -0.44448,13.60724 -2.92315,2.74615 -4.17853,2.73628 -6.12885,-0.0482 z m 73.63293,-7.492 c 0.2755,-3.29712 0.67556,-3.78858 3.56037,-4.3737 3.5606,-0.72219 3.75924,-0.3814 2.18744,3.75276 -2.12857,5.59855 -6.20046,6.03844 -5.74781,0.62094 z m 0.30335,-6.11178 c -0.54614,-0.50174 -5.26798,-1.71347 -10.49298,-2.69273 -11.84164,-2.21935 -13.12257,-2.66462 -12.15752,-4.2261 0.59927,-0.96965 2.46906,-0.93083 8.80297,0.18278 4.42314,0.77767 9.84751,1.17178 12.05415,0.87581 5.06576,-0.67947 8.53411,1.03275 8.11108,4.00419 -0.33262,2.33648 -4.47128,3.55235 -6.3177,1.85605 z M 75.150846,115.05329 c 0,-0.55 -1.125,-1 -2.5,-1 -2.92139,0 -3.017617,-0.86619 -1.531808,-13.78852 0.591495,-5.144329 0.599258,-9.218969 0.02046,-10.741314 -1.632105,-4.29276 1.586055,-7.897936 4.724802,-5.293007 1.594551,1.323359 1.575576,1.535266 -1.550564,17.316561 -2.054082,10.36939 -2.014943,11.50628 0.396127,11.50628 0.792541,0 1.440983,0.675 1.440983,1.5 0,0.825 -0.225,1.5 -0.5,1.5 -0.275,0 -0.5,-0.45 -0.5,-1 z m 71.500004,-3.64514 c -16.70099,-7.40723 -17,-7.5894 -17,-10.3568 0,-3.916364 3.6979,-3.783041 8.74726,0.31537 6.51085,5.28465 14.64351,9.96029 19.69315,11.32201 2.51333,0.67777 3.54983,1.25986 2.30959,1.29707 -1.2375,0.0371 -2.25,0.51749 -2.25,1.06749 0,1.41065 -0.35317,1.2987 -11.5,-3.64514 z M 130.81752,96.386627 c -1.74029,-1.740285 -0.52818,-5.353588 2.28367,-6.807653 4.01205,-2.07471 4.04966,-2.052723 4.04966,2.367331 0,2.627427 -0.51423,4.090338 -1.58179,4.5 -2.06815,0.793623 -3.92152,0.770345 -4.75154,-0.05968 z m 184.58333,-0.364495 c -1.2375,-0.497414 -2.24039,-1.25639 -2.22865,-1.686614 0.0117,-0.430223 1.35755,-10.007224 2.99069,-21.282224 1.63314,-11.275 2.97353,-22.364355 2.97865,-24.643011 0.0105,-4.65121 2.28489,-6.579099 3.99406,-3.385492 1.59388,2.978204 1.1172,3.810223 -0.58926,1.028503 -1.02781,-1.675454 -1.30793,-1.840363 -0.84931,-0.5 1.94181,5.675144 2.22333,9.769088 1.40139,20.379449 -1.01811,13.142502 -0.98215,18.831259 0.0766,12.120551 0.41433,-2.626175 0.50734,-0.75235 0.22336,4.5 -0.36473,6.745875 -0.97464,9.68876 -2.43517,11.75 -2.126,3.000429 -2.26618,3.043744 -5.56237,1.718838 z M 78.757835,91.471507 c -1.224871,-3.191963 -0.652507,-5.418213 1.393011,-5.418213 2.348764,0 6,3.346967 6,5.5 0,2.124527 -6.574278,2.051797 -7.393011,-0.08179 z M 324.52267,60.346512 c 0.0638,-6.16373 0.43936,-10.332672 0.83457,-9.264317 0.39522,1.068356 0.34301,6.111408 -0.116,11.206782 l -0.83458,9.264317 z M 53.650846,63.126707 C 51.55167,62.247678 47.64585,57.609308 42.642148,50.053294 c -1.63898,-2.475 -6.470015,-8.667277 -10.735633,-13.760616 -7.665362,-9.152785 -8.884631,-11.239384 -6.567549,-11.239384 2.355364,0 7.543572,4.616802 20.81188,18.519753 11.015598,11.54249 13.5,14.682588 13.5,17.062986 0,3.168252 -2.200508,4.08171 -6,2.490674 z"
         sodipodi:nodetypes="sssssssssssscssssccssssssssssssssssssssssssssssssssssssssssscsssssssccscsssssssccssssssscssssssss" />
      <path
         inkscape:connector-curvature="0"
         style="fill:#fe0000"
         id="path2993"
         d="m 214.15085,181.40085 c -3.80503,-0.57849 -10.38487,-2.59547 -11.43333,-3.50477 -1.90227,-1.64979 0.25001,-1.81875 4.42116,-0.34708 2.3649,0.83438 7.2726,1.78111 10.90599,2.10384 5.71989,0.50806 7.74372,0.18016 15.08519,-2.44405 8.0626,-2.88198 11.81171,-3.3176 7.51266,-0.87292 -7.36681,4.18918 -18.3899,6.2967 -26.49167,5.06498 z m 31,-9.11149 c 0,-0.42016 1.73176,-1.83422 3.84835,-3.14234 4.52495,-2.79658 7.04642,-6.09373 4.66012,-6.09373 -0.82966,0 -1.50476,-0.3375 -1.50022,-0.75 0.0103,-0.9379 8.15378,-5.42131 8.75499,-4.82009 0.24229,0.24229 -0.31648,2.71968 -1.24172,5.50531 -1.66178,5.00314 -3.4929,6.712 -3.55193,3.31478 -0.0286,-1.64879 -0.0903,-1.64711 -1.06598,0.0291 -0.92857,1.59529 -8.08497,6.7209 -9.38374,6.7209 -0.28593,0 -0.51987,-0.34377 -0.51987,-0.76393 z M 63.784922,146.46683 C 51.103107,143.39723 39.526674,134.88426 31.292116,122.57257 22.488003,109.40933 18.472445,94.451042 19.475128,78.553294 c 0.497471,-7.887518 2.898279,-20.055894 4.217235,-21.37485 1.393089,-1.393089 1.385931,1.361987 -0.01693,6.517419 -3.828546,14.069651 -2.714818,32.826806 2.722837,45.857427 11.768884,28.20258 39.540855,42.62141 64.91515,33.70306 7.135766,-2.50802 14.98189,-7.48506 12.58743,-7.98461 -3.16566,-0.66044 -1.83367,-2.04348 3.46357,-3.59632 2.86747,-0.84058 5.3638,-1.37809 5.54742,-1.19448 0.18361,0.18361 -0.92172,2.41251 -2.4563,4.9531 -2.65218,4.39087 -4.30469,5.78751 -4.30469,3.63817 0,-0.53959 -2.8125,0.5646 -6.250004,2.45376 -11.157021,6.13162 -23.960083,7.88315 -36.115924,4.94086 z M 300.57361,91.803294 c -3.28775,-6.968038 -3.87012,-9.182336 -3.74778,-14.25 0.13886,-5.751813 3.10562,-14.628337 5.35349,-16.017597 1.48763,-0.919401 1.15488,-2.482403 -0.52847,-2.482403 -0.825,0 -1.49629,-0.3375 -1.49175,-0.75 0.01,-0.90178 8.14204,-5.433043 8.71759,-4.857491 0.59783,0.597828 -0.73582,7.014751 -1.8024,8.672347 -0.79047,1.228489 -1.05371,1.232855 -1.82814,0.03032 -0.67895,-1.054274 -1.58198,-0.06828 -3.61891,3.951407 -4.1956,8.279627 -3.97827,15.317757 0.78146,25.307205 4.10226,8.609568 4.11455,8.646208 2.89984,8.646208 -0.46326,0 -2.59398,-3.7125 -4.73493,-8.249996 z"
         sodipodi:nodetypes="sssssssssscsscsssssssssssscsssssssscsssssss" />
      <path
         inkscape:connector-curvature="0"
         style="fill:#0000fe"
         id="path2991"
         d="m 224.03257,159.21939 c 1.262,-1.77231 1.80102,-3.66331 1.43891,-5.04803 -0.66246,-2.53324 2.13351,-6.00844 7.2745,-9.0417 l 3.22934,-1.90535 1.12358,6.45204 c 0.61796,3.54862 0.83288,6.92238 0.47759,7.49725 -1.03039,1.66722 -9.31004,4.87969 -12.57664,4.87969 l -2.98519,0 z m 15.77918,-12.75247 c -1.84016,-8.06729 -1.30527,-10.50253 1.51837,-6.91285 2.31583,2.9441 3.49921,3.10016 6.04409,0.79708 1.81226,-1.64007 1.84245,-1.60115 0.8279,1.06732 -1.45042,3.8149 -3.03263,6.72634 -5.11323,9.40892 -1.75866,2.26749 -1.76817,2.25485 -3.27713,-4.36047 z M 128.88097,125.68886 c -2.59178,-6.30666 -3.03481,-9.89157 -2.25322,-18.23235 0.63168,-6.74099 0.85383,-7.3666 1.87329,-5.27558 0.63614,1.3048 2.97146,3.2905 5.1896,4.41267 3.98228,2.01465 4.02231,2.09009 3.1843,6 -0.46677,2.17783 -0.60663,5.54521 -0.3108,7.48308 0.45074,2.95264 0.18023,3.68158 -1.66996,4.5 -1.2143,0.53713 -2.68164,1.93762 -3.26074,3.11218 -0.98606,1.99996 -1.16085,1.87295 -2.75247,-2 z m 193.47498,-4.67876 c -0.69308,-1.1098 -2.569,-2.27959 -4.1687,-2.59953 -3.72325,-0.74465 -4.149,-1.91322 -4.78554,-13.13488 l -0.52626,-9.277602 2.88103,1.095368 c 2.53212,0.962708 3.1304,0.805472 4.93997,-1.298278 l 2.05893,-2.393646 1.39514,7.575878 c 1.52281,8.2692 1.65141,16.3067 0.317,19.81319 -0.84362,2.2168 -0.86298,2.21881 -2.11157,0.2195 z M 66.800062,85.803294 c -1.348911,-1.7875 -3.187393,-5.029746 -4.085515,-7.20499 -0.898121,-2.175245 -3.39529,-6.289195 -5.549264,-9.142112 l -3.916315,-5.187123 3.193128,0.142113 c 2.370545,0.105502 3.434341,-0.402458 4.129478,-1.971816 0.878231,-1.982716 1.189069,-1.805303 5.007811,2.858242 8.976613,10.962465 13.081575,18.656137 9.14878,17.146982 -1.847789,-0.709063 -5.895086,3.338234 -5.186023,5.186023 0.888626,2.315722 -0.125671,1.639795 -2.74208,-1.827319 z"
         sodipodi:nodetypes="ssscssscssssssssssssssssssscsscsssssscssssss" />
      <path
         style="fill:#000000"
         d="m 25.15625,24.425781 c -1.194125,-0.03152 -2.005859,0.493062 -2.005859,1.585938 0,0.561423 3.490241,5.187911 7.755859,10.28125 4.265618,5.093339 9.103118,11.277353 10.75,13.742187 1.646882,2.464835 6.328415,8.764835 10.402344,14 4.073928,5.235166 8.449043,11.865017 9.722656,14.734375 1.273613,2.869358 3.885083,6.95356 5.802734,9.076172 l 3.486328,3.859375 -1.0625,9.765622 c -1.033663,9.51239 -0.961496,10.21367 2.734376,27.17383 2.557798,11.7376 4.219801,17.4082 5.101562,17.4082 1.778698,0 1.686405,-1.08283 -1.224609,-14.54687 C 74.261224,120.6 74.198119,119.6307 75.695312,117.3457 c 1.804034,-2.75331 1.309952,-5.29297 -1.03125,-5.29297 -1.083329,0 -1.407433,-0.67788 -1.072265,-2.25 0.263829,-1.2375 0.965294,-4.95 1.558594,-8.25 1.990126,-11.069296 2.03323,-11.192234 3.128906,-9.234371 1.156858,2.067192 9.746203,2.460829 11.671875,0.535157 1.695208,-1.695208 1.487302,-6.437811 -0.44336,-10.146485 -0.903133,-1.734861 -1.965603,-3.829297 -2.363281,-4.654297 -0.397677,-0.825 -1.643086,-1.5 -2.767578,-1.5 -1.124492,0 -2.386371,-0.3375 -2.802734,-0.75 -1.206642,-1.195446 -2.628993,-0.868237 -2.173828,0.5 0.228707,0.6875 1.690748,1.475 3.25,1.75 1.559252,0.275 3.010328,1.027652 3.224609,1.671875 0.242991,0.730533 -0.345221,0.978993 -1.564453,0.660157 -1.07518,-0.281166 -2.855887,-0.02877 -3.957031,0.560546 -1.779155,0.952175 -2.454272,0.377557 -6.066407,-5.160156 -2.235604,-3.427372 -6.666194,-9.382422 -9.84375,-13.232422 -7.369967,-8.92962 -30.768082,-33.259515 -34.982421,-36.375 -1.53308,-1.133341 -3.110563,-1.720434 -4.304688,-1.751953 z m 0.183594,0.626953 c 2.355364,0 7.542239,4.616581 20.810547,18.519532 11.015598,11.54249 13.5,14.684055 13.5,17.064453 0,2.182109 -0.504002,2.967413 -2,3.121093 -4.385572,0.450523 -7.543993,-2.434075 -15.007813,-13.705078 -1.63898,-2.475 -6.47071,-8.666426 -10.736328,-13.759765 C 24.240888,27.140184 23.022762,25.052734 25.339844,25.052734 Z M 320.92188,42.367188 c -1.56672,0.133648 -2.77149,2.434333 -2.77149,5.902343 0,2.184658 -1.39778,13.71841 -3.10742,25.628907 -2.40169,16.731807 -2.99827,23.814246 -2.61914,31.154292 0.26988,5.225 0.80211,10.24735 1.18164,11.16016 0.46851,1.12681 0.0995,1.84744 -1.15039,2.24414 -2.43891,0.77408 -18.70888,-2.11686 -19.13672,-3.40039 -0.18387,-0.55162 -1.47973,-1.00391 -2.88086,-1.00391 -3.01745,0 -3.31826,-2.65964 3.20898,28.5 2.53467,12.1 6.18198,29.875 8.10547,39.5 1.92348,9.625 3.7308,18.2875 4.01563,19.25 0.48437,1.63679 -1.26077,1.75 -26.97852,1.75 l -27.49609,0 -1.06055,-5.25 c -0.58359,-2.8875 -2.62264,-12.88106 -4.5293,-22.20898 -1.90664,-9.32792 -3.33289,-17.09288 -3.16992,-17.25586 0.16298,-0.16297 6.21875,-0.33627 13.45703,-0.38477 7.23827,-0.0485 13.16016,-0.49604 13.16016,-0.99414 0,-0.4981 -5.9987,-0.90625 -13.33203,-0.90625 -7.33334,0 -13.63205,-0.29807 -13.99609,-0.66211 -0.36403,-0.36403 0.54179,-2.24019 2.01367,-4.16992 3.33936,-4.37813 7.25951,-13.75957 7.29101,-17.44922 0.0131,-1.52985 -0.81722,-5.35485 -1.8457,-8.5 -1.02849,-3.14515 -3.75449,-11.79375 -6.05664,-19.21875 -6.08335,-19.620306 -6.80061,-21.364657 -10.09766,-24.523433 -5.22078,-5.001818 -5.42854,-2.317751 -1.08593,14.101562 3.85466,14.574401 7.10937,32.078201 7.10937,38.236331 0,1.82439 0.99168,4.21615 2.4375,5.88086 2.13974,2.46366 2.68841,2.6519 4.5,1.54687 1.32478,-0.80809 2.0625,-0.88062 2.0625,-0.20117 0,1.41343 -2.85292,6.90789 -5.05469,9.73437 -1.7673,2.26873 -1.77365,2.25748 -3.30078,-4.4375 -0.84191,-3.69095 -1.29329,-7.09696 -1.00195,-7.56835 0.29134,-0.4714 0.0905,-1.3991 -0.44727,-2.0625 -1.52052,-1.87585 -3.54307,-12.68864 -3.35937,-17.95704 0.16135,-4.62759 0.0881,-4.75 -2.77735,-4.75 -2.93851,0 -2.94625,0.0178 -8.90234,18.75 -3.27896,10.3125 -6.26151,19.7625 -6.62695,21 -0.46531,1.57571 -1.43254,2.25 -3.22852,2.25 -2.79707,0 -9.30078,6.03927 -9.30078,8.63672 0,2.58356 2.02773,5.42374 4.56055,6.38672 2.54726,0.96846 3.35193,2.97866 1.18945,2.97266 -0.6875,-0.002 -2.76375,-0.92515 -4.61328,-2.05274 -1.84953,-1.12758 -3.59928,-1.81283 -3.89063,-1.52148 -0.97521,0.97521 1.59085,3.11796 5.375,4.48633 3.48479,1.26011 3.86976,1.20652 5.47461,-0.77539 0.94925,-1.17227 2.33984,-2.13282 3.0918,-2.13282 2.54055,0 5.54555,-2.90939 6.15625,-5.96289 0.50891,-2.54452 1.07673,-3.03711 3.50977,-3.03711 3.25169,0 9.82589,-2.46927 12.21679,-4.58984 1.40847,-1.24924 2.0038,0.78706 5.80274,19.84961 2.32826,11.68289 4.46495,22.02773 4.74804,22.99023 0.48319,1.64284 -1.602,1.75 -34.05273,1.75 -19.01207,0 -34.56836,-0.14394 -34.56836,-0.32031 0,-0.6393 -7.84915,-39.25229 -8.52344,-41.92969 l -0.69336,-2.75 11.60938,0 c 15.41331,0 15.30403,-1.84632 -0.13086,-2.21679 -10.22773,-0.24549 -11.77962,-0.50672 -12.07031,-2.02344 -0.28831,-1.50434 0.25351,-1.66358 3.98828,-1.17188 3.03281,0.39928 4.91673,0.11898 6.32031,-0.9414 2.50032,-1.88893 1.70919,-2.66006 -5.7832,-5.6211 -3.18145,-1.25732 -6.15119,-3.01336 -6.59766,-3.90429 -1.52081,-3.03478 -4.46677,-18.60416 -4.54297,-24.00781 l -0.0762,-5.38672 -4.55859,-1.16016 c -4.76619,-1.21256 -12.74581,-5.70245 -19.28516,-10.85352 -3.20876,-2.527541 -3.58028,-3.175455 -2.25,-3.919917 1.11235,-0.622505 1.59375,-2.339839 1.59375,-5.6875 0,-6.249148 -2.23989,-8.482903 -7.95898,-7.9375 -4.35903,0.4157 -4.99198,-0.953416 -1.22657,-2.654297 1.20192,-0.542921 2.18555,-1.330421 2.18555,-1.75 0,-1.415855 -2.71265,-0.7759 -5.2832,1.246094 -2.16245,1.700962 -2.50863,2.688122 -2.25586,6.4375 0.1642,2.435467 1.29685,6.042403 2.51758,8.017578 1.83182,2.963949 1.99874,3.8604 0.94921,5.125 -0.83708,1.008622 -1.28946,5.013232 -1.32226,11.720702 -0.0415,8.48819 0.31555,10.95152 2.13672,14.75195 1.20241,2.50919 2.99019,5.25356 3.97265,6.09766 2.89181,2.48454 23.55918,14.60087 28.56836,16.74805 5.43306,2.32889 4.85924,0.71861 10.73438,30.09179 2.25519,11.275 4.32964,21.2875 4.60937,22.25 0.47874,1.64722 -1.99114,1.75 -42.05859,1.75 -23.41207,0 -42.568359,-0.14394 -42.568359,-0.32031 0,-0.6393 -7.849151,-39.25229 -8.523438,-41.92969 l -0.693359,-2.75 16.609375,0 c 10.405611,0 16.607421,-0.37347 16.607421,-1 0,-0.62634 -6.177,-1 -16.531249,-1 -12.353063,0 -16.628256,-0.31594 -16.916016,-1.25 -0.211801,-0.6875 -0.656865,-2.4875 -0.988281,-4 -0.353506,-1.61331 -1.269273,-2.75 -2.214844,-2.75 -1.272371,0 -1.487583,0.6844 -1.023438,3.25 0.719792,3.97871 9.437707,46.37635 10.175782,49.48829 l 0.529297,2.23632 -34.265625,0.27539 c -18.846164,0.1522 107.709374,0.27544 281.234374,0.27344 12.22373,-1.5e-4 17.67808,-0.0104 29.33399,-0.0117 l 0,-0.55078 c -4.87824,0.0294 -10.78451,0.0391 -18.76563,0.0391 -20.11207,0 -36.56836,-0.14394 -36.56836,-0.32031 0,-0.6393 -7.84915,-39.25229 -8.52344,-41.92969 l -0.69336,-2.75 22.10938,0 c 13.7848,0 22.10742,-0.36888 22.10742,-0.98046 0,-0.60363 -8.53989,-1.08437 -22.20508,-1.25 l -22.20508,-0.26954 -3.65039,-17 c -2.00785,-9.35 -3.56368,-17.11384 -3.45703,-17.2539 0.21367,-0.2806 20.16849,3.58277 22.43555,4.34375 1.08016,0.36259 1.13962,0.75296 0.25,1.64258 -1.71922,1.71922 -1.41874,7.83222 0.48828,9.93945 3.29488,3.6408 12.22928,1.42585 12.4082,-3.07617 0.0387,-0.97379 0.43661,-0.66332 1.02149,0.79883 0.5269,1.31721 0.69297,3.22971 0.36914,4.25 -0.32383,1.02029 -0.1176,1.85546 0.45898,1.85546 1.61217,0 2.31454,-4.26931 1.18946,-7.22851 -0.55418,-1.45759 -1.92837,-3.14331 -3.05469,-3.7461 -1.12633,-0.60278 -2.04883,-1.65014 -2.04883,-2.32812 0,-2.72839 -5.17948,-8.78238 -7.99609,-9.3457 -3.6871,-0.73742 -4.11634,-1.92339 -4.75196,-13.12891 l -0.52734,-9.277343 2.88086,1.095703 c 2.56496,0.975188 3.12958,0.806399 5.13867,-1.529297 l 2.25586,-2.623047 0,2.609375 c 0,1.434597 0.71219,5.736099 1.58203,9.560549 1.2694,5.58112 1.36325,7.96839 0.47852,12.09375 -0.60631,2.82689 -0.91043,5.32981 -0.67774,5.5625 0.23269,0.23269 0.93783,-1.96907 1.56836,-4.89453 0.9488,-4.40209 0.84656,-6.81457 -0.59961,-13.99219 -1.65035,-8.191116 -1.65708,-9.840215 -0.0957,-29.705079 1.48945,-18.949862 1.50313,-21.476751 0.12695,-25.515625 -0.84009,-2.465532 -2.17018,-5.016553 -2.95508,-5.667968 -0.57171,-0.474477 -1.13401,-0.66955 -1.65624,-0.625 z m 0.53124,1.091796 c 0.55818,0.0709 1.14753,0.568404 1.68165,1.566407 1.59388,2.978204 1.11856,3.809063 -0.58789,1.027343 -1.02782,-1.675454 -1.30823,-1.840363 -0.84961,-0.5 1.94181,5.675144 2.22233,9.770499 1.40039,20.38086 -1.01812,13.142502 -0.98064,18.829848 0.0781,12.11914 0.41433,-2.626175 0.50664,-0.75235 0.22266,4.5 -0.36473,6.745875 -0.97502,9.68876 -2.43555,11.75 -1.07171,1.5125 -2.25582,2.72236 -2.63086,2.6875 -1.69806,-0.157842 -5.17945,-1.948632 -5.16015,-2.654296 0.0117,-0.430224 1.35709,-10.008204 2.99023,-21.283204 1.63314,-11.275 2.97352,-22.363922 2.97851,-24.642578 0.007,-3.197707 1.08451,-5.107144 2.3125,-4.951172 z m 3.75782,7.460938 c 0.0482,-0.02379 0.0971,0.02857 0.14648,0.162109 0.39522,1.068356 0.34378,6.111658 -0.11523,11.207031 l -0.83594,9.263672 0.11719,-11.207031 c 0.0558,-5.393264 0.34998,-9.259264 0.6875,-9.425781 z M 61.535156,61.242188 c 0.64111,-0.0222 1.658208,1.139971 4.044922,4.054687 8.976613,10.962465 13.081233,18.657593 9.148438,17.148437 -1.847789,-0.709063 -5.89461,3.337758 -5.185547,5.185547 1.883364,4.907966 -4.629522,-3.708202 -6.828125,-9.033203 -0.898121,-2.175245 -3.394854,-6.287708 -5.548828,-9.140625 l -3.917969,-5.1875 3.193359,0.142578 c 2.370545,0.105502 3.435723,-0.403298 4.13086,-1.972656 0.329336,-0.743518 0.578225,-1.183944 0.96289,-1.197265 z m 168.333984,18.86914 c 1.36092,-0.272253 5.35921,4.598154 6.70117,8.341797 0.80821,2.254631 3.35215,10.174613 5.6543,17.599605 2.30215,7.425 5.02815,16.0736 6.05664,19.21875 2.0664,6.31916 2.41407,11.32655 0.85352,12.29102 -0.55897,0.34546 -0.71466,1.11786 -0.34571,1.71484 0.38514,0.62317 0.20911,0.79921 -0.41406,0.41407 -0.59698,-0.36895 -1.36938,-0.21327 -1.71484,0.3457 -1.92717,3.11823 -6.50977,-1.34376 -6.50977,-6.33789 0,-5.99907 -3.29421,-23.64532 -7.10156,-38.041017 -2.1668,-8.192742 -3.70265,-15.133281 -3.41406,-15.421875 0.0657,-0.06572 0.14364,-0.10685 0.23437,-0.125 z M 73.572266,83.355469 c 0.717587,-0.03874 1.508282,0.223768 2.292968,0.875 1.594551,1.323359 1.575359,1.535111 -1.550781,17.316411 -2.054086,10.36939 -2.016539,11.50585 0.394531,11.50585 0.792541,0 1.441407,0.675 1.441407,1.5 0,0.825 -0.225,1.5 -0.5,1.5 -0.275,0 -0.5,-0.45 -0.5,-1 0,-0.55 -1.125,-1 -2.5,-1 -2.92139,0 -3.017063,-0.86477 -1.53125,-13.78711 0.591491,-5.144324 0.598325,-9.219837 0.01953,-10.742182 -1.224079,-3.21957 0.280832,-6.051745 2.433594,-6.167969 z m 6.578125,2.697265 c 2.348764,0 6,3.346967 6,5.5 0,2.124524 -6.573846,2.051553 -7.392579,-0.08203 -1.22487,-3.191963 -0.652939,-5.417969 1.392579,-5.417969 z M 136.14648,88.25 c 0.99053,-0.111598 1.00391,0.934732 1.00391,3.697266 0,2.627427 -0.51447,4.090338 -1.58203,4.5 -3.72542,1.42958 -5.41797,0.480522 -5.41797,-3.035157 0,-1.544014 0.97714,-2.813176 2.95117,-3.833984 1.50452,-0.778016 2.45061,-1.261166 3.04492,-1.328125 z m -4.01562,9.953125 c 1.55564,0.05609 3.7429,1.114857 6.26758,3.164065 6.51085,5.28465 14.64372,9.96054 19.69336,11.32226 2.51333,0.67777 3.54883,1.25968 2.30859,1.29688 -1.2375,0.0371 -2.25,0.5164 -2.25,1.0664 0,1.41065 -0.35317,1.29931 -11.5,-3.64453 -16.70099,-7.40723 -17,-7.59002 -17,-10.35742 0,-1.958181 0.92482,-2.903742 2.48047,-2.847655 z m -4.38867,2.906255 c 0.19905,0.0262 0.44067,0.41777 0.75976,1.07226 0.63614,1.3048 2.97132,3.28994 5.18946,4.41211 3.98228,2.01465 4.0216,2.09009 3.18359,6 -0.46677,2.17783 -0.59115,5.64648 -0.27539,7.70898 0.42452,2.77289 0.22203,3.75 -0.78125,3.75 -1.74919,0 -4.68552,3.24078 -4.60352,5.08008 0.0349,0.78169 0.47437,0.39692 0.97657,-0.85351 2.01332,-5.01299 4.34407,-4.39867 18.41992,4.85547 12.48293,8.20688 13.27964,8.92518 13.86133,12.50976 0.33946,2.09162 0.51703,3.89731 0.39648,4.01172 -0.56924,0.54024 -13.28384,-6.07041 -22.71875,-11.8125 -8.99666,-5.47537 -10.80883,-7.02722 -12.66406,-10.83984 -2.97933,-6.12269 -3.66955,-10.89387 -2.84571,-19.68555 0.42713,-4.55797 0.66366,-6.26662 1.10157,-6.20898 z m 11.47851,7.94335 c 2.32493,0 18.94309,8.47923 19.36524,9.88086 0.26826,0.8907 1.40212,5.8602 2.51953,11.04297 1.11742,5.18276 1.91307,9.54201 1.76758,9.6875 -0.14549,0.14549 -5.72485,-3.27505 -12.39844,-7.60156 -10.08588,-6.53871 -12.24513,-8.3766 -12.79688,-10.88867 -0.77662,-3.53597 0.3158,-12.1211 1.54297,-12.1211 z m 156.02344,8.56641 c 1.3341,0.0277 3.38578,0.31429 6.55274,0.87109 4.42313,0.77771 9.84609,1.17293 12.05273,0.87696 5.06576,-0.67947 8.53436,1.03246 8.11133,4.0039 -0.33262,2.33648 -4.46999,3.55177 -6.31641,1.85547 -0.54614,-0.50174 -5.26914,-1.71214 -10.49414,-2.6914 -11.84164,-2.21935 -13.1213,-2.66509 -12.15625,-4.22657 0.29964,-0.48482 0.91591,-0.71715 2.25,-0.68945 z m -65.14258,0.16992 c 0.11261,0.0302 0.2054,0.1594 0.28516,0.375 0.49857,1.34776 0.25518,4.17714 -0.62695,7.29492 -2.31258,8.17345 -5.76962,27.7318 -5.17579,29.2793 0.29946,0.78037 -0.17843,2.6335 -1.0625,4.11719 l -1.60742,2.69726 2.04688,-2.48046 c 1.36134,-1.64981 1.87335,-3.34807 1.52929,-5.06836 -0.50941,-2.54706 2.08955,-5.60703 8.25586,-9.72071 1.61941,-1.08034 1.53025,-1.09901 -0.5957,-0.125 -1.375,0.62996 -3.5125,2.06817 -4.75,3.19532 -2.72227,2.4795 -2.71703,2.62656 -0.32812,-9.80274 3.18367,-16.56431 3.26089,-16.5426 6.94335,1.92969 1.81016,9.08026 2.98225,17.01222 2.60352,17.625 -0.37872,0.61279 -2.7021,1.97677 -5.16211,3.03125 -7.02648,3.0119 -12.84715,2.25266 -14.41797,-1.87891 -0.82249,-2.16331 0.10648,-6.12467 5.26758,-22.46093 4.295,-13.59484 6.00668,-18.21957 6.79492,-18.00782 z m 91.09375,8.94727 c 0.58907,0.0271 0.95508,0.15654 0.95508,0.3789 0,1.72078 -2.18304,6.43417 -3.3125,7.15235 -2.71154,1.72414 -3.80999,0.80373 -3.49805,-2.92969 0.2755,-3.29712 0.67574,-3.78793 3.56055,-4.37305 0.89375,-0.18127 1.70586,-0.25559 2.29492,-0.22851 z m -153.32226,18.21289 c 0.69619,-0.0383 2.35274,0.54456 5.43359,1.83984 7.75276,3.2595 7.61984,3.16098 5.81445,4.30274 -3.14439,1.98857 -10.9707,0.25978 -10.9707,-2.42383 0,-0.79774 -0.26717,-2.14698 -0.59375,-2.99805 -0.17302,-0.45089 -0.10131,-0.69774 0.31641,-0.7207 z m 47.43164,12.10742 c 1.07995,0.0312 1.8457,0.29149 1.8457,0.82227 0,0.45412 -1.0415,1.80412 -2.31445,3 -2.3399,2.19821 -2.78253,2.30834 -5.93555,1.48437 -2.36106,-0.617 -2.20185,-1.8806 0.47266,-3.7539 1.45873,-1.02174 4.13172,-1.60472 5.93164,-1.55274 z"
         id="path2989"
         inkscape:connector-curvature="0"
         sodipodi:nodetypes="sssssscccsssssssssssssssssssssssssssssssssssssssssccscssssssssssssssssssssssssscssssssssssssccssssssscccssssssssssssssssssccssssssscccsccssccsscccscsscssssssscccccsscsssssssssssssssscscsccccccssssscccsssssssssssscsssssssssssssssssssssssssssssscssssscsscsssscsssssssscssssssscsscccsssssscssssssssssssssssssssss" />
    </g>
    <g
       transform="translate(-32.319006,-289.57812)"
       id="g4289">
      <path
         sodipodi:nodetypes="ccsssscccssccsssssccccccccssssscsccccsscccccccsssssccccccscssscsssssssssssssscccsscccccccsscccccccsscc"
         inkscape:connector-curvature="0"
         style="fill:#000000"
         d="m 567.50977,341.88086 c -0.38306,-0.0192 -0.73066,0.10871 -1.10352,0.3418 -0.96858,0.60548 -1.90895,2.40548 -2.08789,4 -0.47254,4.21078 -5.85715,9.51624 -8.88672,8.75586 -3.79713,-0.95302 -9.60148,5.35442 -7.38476,8.02539 0.78336,0.94391 0.0853,1.67851 -2.8125,2.95703 -3.67854,1.62296 -10.34379,7.98075 -14.61524,13.93945 l -1.99219,2.77734 -24.26757,-2.20117 c -18.65601,-1.69299 -24.54146,-1.92924 -25.44922,-1.02148 -2.91673,2.91673 3.00655,4.74639 38,11.74219 l 13.26757,2.65234 4.5,-3.86328 c 11.73392,-10.07702 15.42258,-13.7537 16.875,-16.81445 0.86472,-1.82225 2.57029,-3.57386 3.78907,-3.89258 3.01453,-0.78832 3.20717,-0.34004 1.37695,3.19922 -1.78698,3.45562 -1.91365,4.14257 -0.75977,4.14257 1.65891,0 4.59902,-7.65259 4.73047,-12.3125 0.098,-3.47295 0.73669,-5.41444 2.29493,-6.97265 l 2.16015,-2.15821 0,45.23438 0,45.23633 -34.19922,-0.26367 -34.20117,-0.26368 -3.71484,-17.3789 c -2.26505,-10.59264 -3.50327,-18.69597 -3.16992,-20.75 0.5104,-3.14532 0.36261,-3.3711 -2.21485,-3.3711 -3.26935,0 -3.56672,-2.82956 2.99609,28.5 2.53468,12.1 6.18198,29.875 8.10547,39.5 1.92348,9.625 3.7308,18.2875 4.01563,19.25 0.47809,1.61554 -0.71789,1.75 -15.55078,1.75 l -16.06641,0 0,-47.39257 c 0,-8.65324 -0.0172,-14.99835 -0.043,-20.83985 0.0814,-2.84771 0.15198,-6.15004 0.21289,-10.26172 l 0.33008,-70.50586 -2.38086,0 c -2.19468,3.6e-4 -2.33309,0.29322 -1.76172,3.75 0.16153,0.97727 0.30944,3.88758 0.42188,7.84766 0.12487,4.39755 0.20582,58.34549 0.20898,64.12305 5.4e-4,0.9252 0.01,1.37665 0.0117,2.21875 l 0,24.08789 -34.19922,-0.26367 -34.20117,-0.26368 -3.71484,-17.3789 c -2.26505,-10.59264 -3.50327,-18.69597 -3.16992,-20.75 0.5104,-3.14532 0.36261,-3.3711 -2.21485,-3.3711 -3.26935,0 -3.56672,-2.82956 2.99609,28.5 2.53468,12.1 6.18198,29.875 8.10547,39.5 1.92348,9.625 3.7308,18.2875 4.01563,19.25 0.48608,1.64256 -1.57503,1.75 -33.55078,1.75 -8.63288,0 -26.07931,-0.0337 -32.09963,-0.084 l 0,0.60547 c 2.34662,2e-5 13.16816,0.002 15.53322,0.002 168.3,-0.002 284.95755,-0.12492 259.23828,-0.27344 l -46.76367,-0.26953 0.0391,-71.44726 c 0.0274,-51.96175 0.34486,-71.63703 1.16602,-72.14453 0.68561,-0.42373 0.85193,-0.2493 0.42383,0.44335 -0.4061,0.65709 0.82173,2.48109 2.89648,4.30274 2.5185,2.21124 3.28589,3.47973 2.55078,4.21484 -1.77515,1.77515 -1.18695,4.02984 2.08399,7.99805 2.54649,3.08937 3.59329,3.68614 5.58008,3.1875 2.12833,-0.53419 2.3579,-0.34392 1.7832,1.4668 -0.48747,1.53588 0.0823,2.72248 2.17187,4.53125 8.25667,7.14703 23.66742,18.37059 38.33008,27.91601 9.075,5.90784 17.73974,11.91102 19.25586,13.33985 4.21629,3.97352 5.46858,1.76675 2.67773,-4.72071 -1.95109,-4.53549 -3.3907,-5.98608 -11.67187,-11.75976 -5.19508,-3.62204 -13.2449,-9.89837 -17.88867,-13.94727 -4.64378,-4.04891 -8.90498,-7.36133 -9.4707,-7.36133 -0.56575,0 -4.572,-3.375 -8.90235,-7.5 -4.33035,-4.125 -8.29642,-7.5 -8.8125,-7.5 -0.51608,0 -1.18696,-1.2375 -1.49219,-2.75 -0.30523,-1.5125 -0.8793,-3.58698 -1.27539,-4.61132 -0.63016,-1.62968 -0.35551,-1.78377 2.19922,-1.22266 3.00063,0.65905 7.57492,-1.554 6.15235,-2.97656 -0.39834,-0.39834 -1.44517,-0.12536 -2.32813,0.60742 -1.28117,1.06329 -2.00263,1.08597 -3.56641,0.10937 -1.07771,-0.67302 -2.42442,-0.93609 -2.99414,-0.58398 -0.56972,0.3521 -2.63189,0.71494 -4.58203,0.80664 -3.1587,0.14856 -4.1312,-0.48982 -8.91211,-5.85547 -3.40881,-3.82574 -4.87427,-5.20595 -6.02343,-5.26367 z m -167.58204,105.74023 34.10743,0 34.10937,0 0,22.5 0,22.5 -29.5,0 c -16.225,0 -29.5,-0.14394 -29.5,-0.32031 0,-0.6393 -7.8511,-39.25229 -8.52539,-41.92969 z m 97,0 34.10743,0 34.10937,0 0,22.5 0,22.5 -29.5,0 c -16.225,0 -29.5,-0.14394 -29.5,-0.32031 0,-0.6393 -7.8511,-39.25229 -8.52539,-41.92969 z"
         id="path4202" />
      <path
         inkscape:connector-curvature="0"
         style="fill:#fefefe"
         d="m 645.0167,415.93776 c -0.75484,-0.92595 -9.74302,-7.17703 -19.97374,-13.8913 -10.23071,-6.71426 -18.90975,-13.01156 -19.28674,-13.99399 -0.39823,-1.03776 -0.10113,-2.37056 0.70902,-3.18071 2.42297,-2.42297 8.06417,-0.51619 14.10058,4.76614 3.02164,2.64417 9.53027,7.60008 14.46363,11.01313 7.61247,5.26655 9.28334,6.93455 11.04227,11.0233 1.1399,2.64976 2.07254,5.07182 2.07254,5.38236 0,1.15387 -1.79961,0.51003 -3.12756,-1.11893 z"
         id="path4234" />
      <path
         inkscape:connector-curvature="0"
         style="fill:#fefefe"
         d="m 504.14426,387.64037 c -9.625,-2.0931 -19.04439,-4.21183 -20.93198,-4.70829 -4.38352,-1.15292 -5.26297,-3.31077 -1.34934,-3.31077 4.18239,0 46.55072,3.96086 48.03132,4.49027 3.61741,1.29347 -1.02968,7.56456 -5.5,7.42208 -1.5125,-0.0482 -10.625,-1.80019 -20.25,-3.89329 z"
         id="path4230" />
      <path
         inkscape:connector-curvature="0"
         style="fill:#fefefe"
         d="m 586.763,370.85093 c -0.8232,-1.59189 -3.10782,-4.88229 -5.07694,-7.31199 -1.96912,-2.4297 -5.03407,-6.20496 -6.81101,-8.38948 -3.65697,-4.49577 -5.73079,-8.13953 -5.73079,-10.06913 0,-0.72181 -0.7875,-1.51817 -1.75,-1.76969 -1.3046,-0.34093 -1.36107,-0.48685 -0.2219,-0.57333 0.84046,-0.0638 3.99046,2.86025 7,6.49789 9.91972,11.98997 12.12845,14.31974 15.62379,16.47998 2.73988,1.69335 3.39519,2.68498 3.15337,4.77184 -0.45353,3.9138 -4.23575,4.13628 -6.18652,0.36391 z"
         id="path4222" />
      <path
         inkscape:connector-curvature="0"
         style="fill:#fefefe"
         d="m 542.65703,371.64198 c -0.92995,-1.5047 1.34786,-5.02067 3.25263,-5.02067 0.93227,0 5.64144,-3.92812 10.46482,-8.72915 7.29529,-7.26149 8.76978,-8.34186 8.76978,-6.42564 0,3.21246 -16.7001,21.15361 -19.69098,21.15429 -1.20504,2.7e-4 -2.46335,-0.4402 -2.79625,-0.97883 z"
         id="path4220" />
      <path
         inkscape:connector-curvature="0"
         style="fill:#fefefe"
         d="m 578.8129,366.80766 c -1.25536,-1.38716 -1.36556,-2.08943 -0.46864,-2.98635 0.89692,-0.89692 1.59919,-0.78672 2.98635,0.46864 0.99751,0.90273 1.81365,2.24659 1.81365,2.98635 0,1.92112 -2.40406,1.661 -4.33136,-0.46864 z"
         id="path4216" />
      <path
         inkscape:connector-curvature="0"
         style="fill:#fefefe"
         d="m 548.68135,362.68132 c -0.77425,-1.25277 1.94425,-6.06001 3.42695,-6.06001 2.19676,0 2.08567,2.40483 -0.21747,4.70798 -1.69613,1.69613 -2.72813,2.13087 -3.20948,1.35203 z"
         id="path4214" />
      <path
         inkscape:connector-curvature="0"
         style="fill:#fefefe"
         d="m 568.14426,350.68033 c 0,-0.51754 0.44485,-1.21592 0.98855,-1.55194 0.56686,-0.35034 0.7345,0.0511 0.39301,0.94098 -0.66479,1.73242 -1.38156,2.04939 -1.38156,0.61096 z"
         id="path2997-9" />
      <path
         inkscape:connector-curvature="0"
         style="fill:#0000fe"
         d="m 529.68971,390.16676 c 2.69444,-2.69444 3.07044,-4.52956 1.29235,-6.30765 -0.88293,-0.88293 -0.52245,-2.08535 1.50018,-5.004 2.58461,-3.7296 10.70427,-12.03749 9.22611,-9.44 -0.99074,1.74098 1.19517,4.2062 3.72961,4.2062 1.12685,0 2.87175,-0.74474 3.87756,-1.65499 1.70318,-1.54136 1.82874,-1.53883 1.82874,0.0368 0,2.81449 -19.26789,20.61822 -22.31383,20.61822 -1.22696,0 -1.02857,-0.56669 0.85928,-2.45455 z"
         id="path4242" />
      <path
         inkscape:connector-curvature="0"
         style="fill:#0000fe"
         d="m 597.14426,382.51184 c -11.31547,-9.00565 -12,-9.63527 -12,-11.03737 0,-0.71399 0.70052,-0.29804 1.5567,0.92433 1.71272,2.44525 4.3832,2.88261 6.2433,1.02251 1.55568,-1.55568 1.53586,-5.00705 -0.0393,-6.85 -0.68163,-0.7975 1.90587,1.54058 5.75,5.19572 3.84413,3.65515 8.42329,7.36445 10.17592,8.24289 4.22097,2.11561 5.3138,3.90058 1.8569,3.03295 -2.97197,-0.74592 -6.96382,2.0407 -6.11014,4.26534 0.65913,1.71767 1.14693,2.03242 -7.43335,-4.79637 z"
         id="path4240" />
      <g
         id="g4269">
        <path
           inkscape:connector-curvature="0"
           id="path4204"
           d="m 457.3896,415.55776 c -0.24584,2.78895 -2.69235,4.35057 -5.87704,3.75372 -2.61106,-0.48933 -5.2544,-3.58305 -25.83988,-30.24924 -4.55322,-5.8982 -7.44341,-10.6614 -8.04717,-13.26322 -0.51815,-2.23291 -2.07686,-5.46667 -3.46534,-7.18599 -3.05415,-3.78188 -3.23604,-4.22228 -1.09861,-2.65704 2.29661,1.68181 4.48453,5.58851 5.5853,9.97082 0.6292,2.50493 1.3563,3.53249 2.22165,3.1387 0.70789,-0.32211 2.64573,-0.28407 4.30604,0.0849 2.73115,0.60688 3.06598,0.41508 3.51882,-2.01972 0.27526,-1.48014 1.09272,-3.4323 1.81458,-4.33865 1.14724,-1.44043 0.69608,-2.47264 -3.58148,-8.19645 -2.69156,-3.60158 -4.91955,-7.04438 -4.9493,-7.64963 -0.0297,-0.60527 1.09433,0.63327 2.49952,2.752 1.40519,2.11873 3.90889,5.57333 5.56341,7.67693 5.12687,6.51842 27.54132,46.00672 27.3495,48.1829 z"
           style="fill:#000000" />
        <path
           inkscape:connector-curvature="0"
           id="path4195"
           d="m 427.54288,320.57689 c 0.0407,1.07718 -0.25703,2.71432 -0.86656,5.61167 -0.74143,3.52435 -2.96265,9.5265 -4.93507,13.3373 -2.38073,4.59956 -3.34873,7.60515 -2.87941,8.94096 2.40028,6.83196 2.40642,6.62743 -0.0986,3.85485 -2.3088,-2.55542 -2.33856,-2.5588 -4.16288,-0.49862 -1.01036,1.141 -2.90661,2.13909 -4.21508,2.21854 -3.26426,0.19821 -3.79267,4.4136 -0.95294,7.60494 1.14742,1.2895 1.8439,2.35938 1.54735,2.37739 -0.29657,0.018 -2.53344,-2.29817 -4.96958,-5.14772 -3.1332,-3.66488 -4.88452,-4.97326 -5.98711,-4.47152 -1.19145,0.54218 -1.4222,0.27537 -0.9785,-1.13027 0.31927,-1.01141 0.10702,-2.34275 -0.47124,-2.9593 -0.57827,-0.61654 -2.29212,-5.52697 -3.80896,-10.91226 -1.51687,-5.38529 -3.17941,-10.44291 -3.69378,-11.2382 -1.2996,-2.00929 -1.32883,-3.68636 -0.0816,-4.56594 2.07662,-1.46446 4.99316,2.90565 7.84177,11.74943 l 2.89356,8.98373 3.05313,-3.0833 c 3.48793,-3.51919 5.53343,-3.94372 8.30316,-1.72712 1.81992,1.45645 2.02566,1.42817 3.26591,-0.44877 1.74777,-2.64497 6.52707,-16.88176 6.3894,-19.03358 -0.1588,-2.48314 1.75733,-3.38398 3.64303,-1.71417 0.74388,0.65871 1.12333,1.17477 1.16402,2.25194 z"
           style="fill:#000000" />
        <path
           inkscape:connector-curvature="0"
           id="path4232"
           d="m 392.0689,328.10432 c 0.51437,0.79529 2.18357,5.87777 3.70939,11.29439 2.82496,10.0287 4.1088,12.46064 5.6122,10.63095 0.91448,-1.11297 -5.70838,-22.76143 -7.57085,-24.7472 -2.44431,-2.60612 -3.8236,-0.38297 -1.75074,2.82186 z"
           style="fill:#fefefe" />
        <path
           inkscape:connector-curvature="0"
           id="path4228"
           d="m 404.46016,355.9049 c 2.30874,2.55178 2.56451,2.63065 2.4552,0.75708 -0.13169,-2.25141 -3.82921,-5.84561 -4.5787,-4.45031 -0.24955,0.46459 0.70599,2.12655 2.1235,3.69323 z"
           style="fill:#fefefe" />
        <path
           inkscape:connector-curvature="0"
           id="path4226"
           d="m 412.21672,347.00529 c 2.61338,2.85136 3.11858,2.27655 2.22167,-2.52776 -0.52298,-2.80139 -1.11291,-3.66036 -2.30418,-3.35503 -2.35086,0.60252 -2.31346,3.2686 0.0825,5.88279 z"
           style="fill:#fefefe" />
        <path
           inkscape:connector-curvature="0"
           id="path4224"
           d="m 416.46909,348.41278 c 1.2998,2.74078 2.5113,2.83214 1.46191,0.11023 -0.53487,-1.38732 0.33077,-4.14996 2.80002,-8.93613 3.69703,-7.166 6.63361,-17.83007 5.55975,-20.18993 -0.89792,-1.97317 -2.69094,-1.52765 -2.55957,0.63598 0.15254,2.51204 -4.47366,15.82054 -6.78789,19.52718 -2.00174,3.20613 -2.11848,5.38556 -0.47422,8.85267 z"
           style="fill:#fefefe" />
        <path
           inkscape:connector-curvature="0"
           id="path4218"
           d="m 434.54962,399.20139 c 13.902,17.87294 16.87622,20.61035 20.56795,18.93041 0.86704,-0.39454 1.52119,-1.62712 1.45364,-2.73903 -0.0675,-1.1119 -5.51953,-11.36523 -12.11559,-22.78517 -9.01789,-15.61293 -12.2805,-20.49376 -13.15245,-19.67595 -1.60779,1.50798 -2.3158,6.85666 -1.09198,8.24943 1.71575,1.95262 17.11332,27.72278 16.58347,27.75496 -0.27449,0.0167 -4.12388,-5.94849 -8.55421,-13.25591 -4.43031,-7.30742 -8.79269,-13.69226 -9.69416,-14.18854 -2.63224,-1.4491 -6.60957,-2.11538 -7.387,-1.23745 -0.3945,0.44551 5.63116,8.97175 13.3903,18.94722 z"
           style="fill:#fefefe" />
        <path
           inkscape:connector-curvature="0"
           id="path4210"
           d="m 376.58451,324.89455 c -0.58299,1.2567 -0.72176,2.84634 -0.3084,3.53252 0.55243,0.91708 0.91533,0.7302 1.36964,-0.70535 1.30928,-4.13709 7.21192,-11.14799 11.63401,-13.81835 4.89075,-2.95337 14.47561,-4.98847 21.53987,-4.57344 5.30706,0.3118 6.20015,0.74497 4.83396,2.34458 -0.53579,0.62735 -0.632,1.43286 -0.21377,1.79006 0.41822,0.35719 1.03023,0.33352 1.36004,-0.0526 0.32977,-0.38615 2.40916,-1.00233 4.62083,-1.36932 2.21168,-0.36699 4.00074,-0.92792 3.97565,-1.24651 -0.0251,-0.31858 -2.30629,-1.59343 -5.06934,-2.83299 -3.21665,-1.44303 -5.18377,-1.80211 -5.46853,-0.99826 -0.24461,0.69052 -1.87436,1.00526 -3.62165,0.69939 -4.76242,-0.83362 -19.76845,2.32904 -23.83198,5.02284 -3.82171,2.53378 -9.08956,8.47659 -10.82033,12.20743 z"
           style="fill:#fe0000" />
        <path
           inkscape:connector-curvature="0"
           id="path2993-9"
           d="m 402.94876,388.00115 c 1.49976,1.68546 2.93237,2.37334 4.12774,1.98193 1.14522,-0.37498 1.86266,-0.0738 1.91597,0.80435 0.13247,2.18153 1.34226,1.48445 4.20924,-2.42539 l 2.6355,-3.59413 -4.55872,0.2768 c -3.64209,0.22115 -4.4249,0.57083 -3.89325,1.73916 0.94735,2.08181 -0.89203,1.91345 -3.14111,-0.28753 -2.91175,-2.84946 -1.89046,-8.2059 2.88304,-15.12091 5.15744,-7.47119 14.73286,-16.31868 21.26642,-19.6497 2.79684,-1.42592 5.07236,-2.92992 5.05672,-3.34223 -0.053,-1.39719 -2.22779,-0.62528 -7.69151,2.73032 -11.5151,7.07127 -25.70322,24.48508 -25.30417,31.05712 0.10972,1.80684 1.21693,4.39505 2.49427,5.83053 z"
           style="fill:#fe0000" />
        <path
           inkscape:connector-curvature="0"
           id="path4238"
           d="m 409.19638,361.35978 1.85465,2.02589 4.40313,-4.07832 c 4.81092,-4.45602 5.11014,-5.3595 2.59138,-7.82436 -1.60033,-1.56611 -1.77409,-1.54698 -3.48318,0.38307 -0.98935,1.11727 -2.86939,2.09641 -4.17786,2.17586 -3.1305,0.19009 -3.82086,4.44209 -1.18812,7.31786 z"
           style="fill:#0000fe" />
        <path
           inkscape:connector-curvature="0"
           id="path2991-9"
           d="m 415.15784,368.55257 c 1.38848,1.71932 2.94184,4.92453 3.45193,7.12268 0.6428,2.77005 1.32934,3.81375 2.23689,3.40076 0.72021,-0.32774 2.6679,-0.29404 4.32819,0.0749 2.73117,0.60689 3.0664,0.41442 3.51923,-2.02038 0.27528,-1.48014 1.10138,-3.44552 1.83575,-4.3675 1.17213,-1.47156 0.97911,-2.13294 -1.58021,-5.41418 -1.6035,-2.05581 -3.99133,-5.3694 -5.30629,-7.36355 l -2.39084,-3.6257 -4.43773,3.83577 c -2.44076,2.10967 -4.38007,4.14973 -4.30958,4.53348 0.0705,0.38373 1.26418,2.10442 2.65266,3.82373 z"
           style="fill:#0000fe" />
      </g>
    </g>
  </g>
</svg>
