<?xml version="1.0" encoding="UTF-8" standalone="no"?>
<!-- Created with Inkscape (http://www.inkscape.org/) -->

<svg
   xmlns:dc="http://purl.org/dc/elements/1.1/"
   xmlns:cc="http://creativecommons.org/ns#"
   xmlns:rdf="http://www.w3.org/1999/02/22-rdf-syntax-ns#"
   xmlns:svg="http://www.w3.org/2000/svg"
   xmlns="http://www.w3.org/2000/svg"
   version="1.1"
   width="575"
   height="301"
   id="svg2">
  <metadata
     id="metadata8">
    <rdf:RDF>
      <cc:Work
         rdf:about="">
        <dc:format>image/svg+xml</dc:format>
        <dc:type
           rdf:resource="http://purl.org/dc/dcmitype/StillImage" />
        <dc:title></dc:title>
      </cc:Work>
    </rdf:RDF>
  </metadata>
  <defs
     id="defs6" />
  <g
     id="g2987">
    <path
       d="m 305.35745,252.25 c -1.81964,-2.47886 -7.27609,-25.76075 -6.24347,-26.63997 0.21231,-0.18077 1.56301,-0.61037 3.00156,-0.95466 l 2.61553,-0.62598 1.7009,12.69249 c 0.9355,6.98087 1.95226,13.94926 2.25947,15.48531 0.71121,3.55606 -0.74136,3.57471 -3.33399,0.0428 z M 198.32168,225.60409 c 0.29462,-0.76775 1.09059,-3.2481 1.76884,-5.51188 1.38384,-4.61885 3.61861,-7.19292 4.30171,-4.95483 0.22875,0.74944 0.69899,2.2258 1.04499,3.28081 0.44166,1.34669 -0.33304,2.91084 -2.60023,5.25 -3.35129,3.45765 -5.44347,4.35465 -4.51531,1.9359 z M 297.10123,219.25 c -4.06969,-15.63892 -3.98712,-14.96369 -2.28808,-18.71219 1.71312,-3.77957 2.88338,-4.2793 5.35757,-2.28781 1.675,1.34822 4.53256,20.47489 3.47193,23.23886 -0.31893,0.83112 -1.70166,1.51114 -3.07272,1.51114 -2.04046,0 -2.66993,-0.68051 -3.4687,-3.75 z m -89.53803,-4.76483 c -0.78126,-4.16445 -0.93805,-3.86938 7.31053,-13.75811 l 6.48371,-7.77294 3.32932,3.2269 3.32932,3.2269 -4.25804,4.379 c -2.34192,2.40845 -6.79528,6.59265 -9.89634,9.29822 l -5.6383,4.91922 -0.6602,-3.51919 z m 77.90973,-8.52897 c -0.35481,-0.5741 -0.17259,-1.61316 0.40493,-2.30903 0.57752,-0.69587 1.5884,-7.53866 2.24639,-15.2062 1.25399,-14.61268 2.39097,-17.91812 5.32556,-15.48262 1.77824,1.47581 2.00077,4.33122 0.54895,7.04397 -0.55069,1.02897 -1.46469,5.38688 -2.03112,9.68426 -1.9399,14.71758 -4.10378,20.13822 -6.49471,16.26962 z m -59.49005,-11.47386 -3.36609,-3.47292 2.76483,-2.88585 c 3.99899,-4.17405 10.12441,-6.77842 12.0954,-5.14264 2.58765,2.14756 1.83573,6.33821 -1.72702,9.62507 -6.19586,5.71607 -6.06911,5.69172 -9.76712,1.87634 z m 156.33975,-17.07456 -10.17737,-3.52603 1.0252,-2.94087 C 373.73431,169.32339 374.36847,168 374.57969,168 c 0.21122,0 4.20377,1.76472 8.87234,3.92161 4.66857,2.15688 10.97673,4.47849 14.01814,5.15913 5.27178,1.17977 7.49961,2.90687 3.77983,2.93027 -0.9625,0.006 -3.325,0.21615 -5.25,0.46689 -2.3654,0.30811 -6.79921,-0.68714 -13.67737,-3.07012 z M 227,175.11129 c 0,-0.48879 1.6082,-1.19041 3.57377,-1.55915 1.96558,-0.36875 8.31213,-3.14422 14.10346,-6.16773 11.02874,-5.75783 15.82277,-6.66993 15.82277,-3.01043 0,1.40523 -1.62591,2.44601 -6.5,4.16082 -3.575,1.25777 -9.65,3.44248 -13.5,4.85493 -6.99849,2.56753 -13.5,3.39662 -13.5,1.72156 z m 134.14247,-4.58273 C 354.48015,168.37166 349,164.91278 349,162.86464 c 0,-0.4327 0.94879,-1.67066 2.10843,-2.75103 2.10278,-1.95904 2.12887,-1.95489 9.75,1.55031 4.20286,1.93303 8.66854,3.9188 9.92373,4.41282 2.1906,0.86218 2.21966,1.01906 0.72432,3.91074 -0.85681,1.65688 -1.88378,2.99239 -2.28216,2.96778 -0.39838,-0.0246 -4.03521,-1.11662 -8.08185,-2.4267 z m -70.60631,-2.4886 c -1.53679,-1.69814 -1.65918,-2.47455 -0.71626,-4.54402 2.05061,-4.50061 7.60065,-2.08518 7.01589,3.05337 -0.41838,3.67645 -3.6331,4.43713 -6.29963,1.49065 z m -30.09786,-7.10814 c -2.45875,-2.71688 -1.11704,-6.3647 3.31002,-8.99927 2.06342,-1.22796 6.56418,-4.96463 10.00168,-8.30371 8.16993,-7.93603 8.57467,-4.99848 0.56786,4.1214 -5.22105,5.94685 -5.78909,6.3258 -7,4.66978 -1.59842,-2.18597 -1.65139,-1.67524 -0.24474,2.35988 1.93739,5.55759 -3.01611,10.15056 -6.63482,6.15192 z M 285.83362,156.25 c -1.37812,-3.39325 -2.29585,-15.72845 -0.94859,-12.75 0.49757,1.1 2.05682,5.0375 3.46501,8.75 2.47756,6.53177 2.49632,6.75 0.5804,6.75 -1.22251,0 -2.40721,-1.05202 -3.09682,-2.75 z m 30.20273,-0.7062 c -0.66469,-0.8009 -0.90997,-1.93927 -0.54506,-2.52971 0.36491,-0.59044 5.10301,-3.30138 10.52911,-6.02433 5.42611,-2.72295 11.41319,-6.30957 13.30464,-7.97029 3.89672,-3.42137 5.68198,-3.8218 5.65965,-1.26947 -0.0236,2.70167 -0.96193,3.60159 -8.48469,8.1378 -3.85,2.32155 -9.18664,5.77151 -11.85919,7.6666 -5.37318,3.81006 -6.81649,4.14377 -8.60446,1.9894 z M 305.27768,151.75 c -2.40022,-3.10199 -2.21574,-4.73067 0.70707,-6.24211 1.60376,-0.82934 3.52727,-1.50789 4.27446,-1.50789 2.03022,0 4.4526,2.20969 5.2072,4.75 0.53716,1.80832 0.27412,2.25 -1.34001,2.25 -1.1046,0 -2.28648,0.45 -2.6264,1 -0.87283,1.41226 -5.06649,1.24377 -6.22232,-0.25 z m -11.25563,-7.4543 c -4.11288,-2.35455 -7.89288,-4.41931 -8.4,-4.58835 -0.50713,-0.16904 -0.73875,-0.85726 -0.51471,-1.52938 0.27757,-0.83271 3.11295,0.0862 8.9,2.88432 9.9246,4.79871 9.40564,4.4157 8.33432,6.15106 -0.66525,1.07759 -2.40903,0.46606 -8.31961,-2.91765 z m -13.67748,-11.06848 c 0.0781,-2.04997 -0.21483,-6.53972 -0.65095,-9.97722 l -0.79293,-6.25 3.13755,0 c 3.0544,0 3.12333,0.0994 2.60066,3.75 -0.29529,2.0625 -0.82575,6.45 -1.17881,9.75 l -0.64192,6 3.34091,-2.98175 c 1.83751,-1.63996 5.65905,-5.18077 8.49233,-7.86847 4.83864,-4.59003 5.21593,-4.76617 6.21406,-2.90115 0.92997,1.73766 0.20737,2.71498 -5.78699,7.82697 -5.54489,4.72867 -7.61409,5.89256 -10.86277,6.1101 l -4.01312,0.26873 0.14198,-3.72721 z m -9.11823,-0.55208 c -4.73226,-2.43476 -5.99078,-3.5107 -5.12231,-4.37917 1.56193,-1.56193 13.94319,4.4174 13.19333,6.3715 -0.67989,1.77178 -0.8243,1.73613 -8.07102,-1.99233 z M 218,130.15499 c 0,-2.30418 4.91917,-4.58149 15.66477,-7.25194 8.41041,-2.09012 12.23224,-3.51447 13.2072,-4.92215 1.5321,-2.2121 7.13685,-2.78791 7.11438,-0.7309 -0.0648,5.93139 -1.59856,6.68549 -18.86606,9.27575 -5.70884,0.85638 -11.649,2.21342 -13.20034,3.01565 C 218.66949,131.22227 218,131.32707 218,130.15499 z m 38.26581,-1.85865 c -1.85032,-0.35719 -2.17459,-0.97812 -1.8873,-3.61382 0.22181,-2.03489 0.96949,-3.30531 2.07341,-3.52302 2.17464,-0.42889 6.54808,3.58839 6.54808,6.01481 0,1.84287 -1.61027,2.11117 -6.73419,1.12203 z m 44.99524,-10.92002 c 0.28664,-2.54303 1.13266,-5.01746 1.88005,-5.49875 4.63787,-2.98657 6.60856,3.59639 2.27808,7.60975 -3.90573,3.61971 -4.75544,3.18833 -4.15813,-2.111 z m -25.2858,-3.94142 C 274.50471,109.56709 274.79004,108 276.96482,108 c 2.17059,0 4.03518,2.74212 4.03518,5.93426 0,3.08793 -3.80462,2.70983 -5.02475,-0.49936 z M 220,111.87638 c -5.03072,-2.03603 -37.97202,-10.35744 -45.08456,-11.38896 -5.18428,-0.751865 -7.74201,-1.994263 -6.55297,-3.183047 1.06208,-1.06185 19.52435,-0.705161 27.13753,0.524295 3.3,0.532918 11.69174,2.464532 18.64831,4.292472 13.28683,3.49132 15.86365,5.11949 13.90233,8.78424 -1.49021,2.78449 -3.09233,2.97772 -8.05064,0.971 z m 92.80905,1.44567 c -1.86228,-0.49114 -3.50817,-4.72371 -6.54148,-16.82205 -1.10317,-4.4 -2.60684,-9.445326 -3.3415,-11.211835 -1.47835,-3.554758 -0.61888,-5.474937 1.44513,-3.228641 0.72798,0.792262 3.01846,6.0389 5.08996,11.659196 2.48833,6.7512 4.37578,10.41214 5.5623,10.78873 3.3811,1.07311 4.34799,3.18158 2.97691,6.49165 -1.22167,2.94939 -1.81289,3.21393 -5.19132,2.32295 z m -36.24772,-11.5881 c -0.86071,-1.31361 -3.32746,-6.78561 -5.48166,-12.159994 -2.1542,-5.374384 -4.85339,-10.768639 -5.9982,-11.987233 C 263.01076,75.382553 262.25043,72 263.82569,72 c 1.85687,0 5.23693,5.032631 9.51043,14.160235 3.10351,6.628665 5.19052,9.872138 6.65036,10.335474 1.67859,0.532764 2.06271,1.341218 1.8205,3.831571 -0.38544,3.963 -3.09465,4.6895 -5.24565,1.40667 z m 55.9775,-13.337978 c -1.47204,-1.472038 -1.24676,-2.027475 2.73777,-6.75 C 350.98374,63.029598 361.63928,49.985245 363.78206,46.75 366.02691,43.360647 369,41.705299 369,43.844774 c 0,4.17072 -5.10272,13.745103 -14.20604,26.655226 -9.09719,12.901426 -11.22546,15.314786 -15.21221,17.25 -5.52275,2.680802 -5.05133,2.637563 -7.04292,0.645972 z M 281.0137,69.516507 c -0.9802,-1.181071 -0.80041,-5.614988 0.88196,-21.75 1.16224,-11.146579 2.11117,-22.666507 2.10875,-25.59984 -0.006,-6.690106 1.73813,-6.522542 4.33437,0.416528 1.60222,4.282301 1.79585,7.377272 1.50042,23.983107 l -0.3392,19.066301 -2.89602,2.683699 c -3.34353,3.098391 -3.91339,3.220737 -5.59028,1.200205 z"
       id="path2997"
       style="fill:#fefefe" />
    <path
       d="M 0,150.5 0,0 287.5,0 575,0 575,150.5 575,301 287.5,301 0,301 0,150.5 z M 314.75,285.25054 284,284.9711 284,254.98555 284,225 l 6.81652,0 6.81651,0 2.33909,12.35278 c 1.88715,9.96605 2.87672,13.00917 5.12164,15.75 4.58709,5.6004 5.1612,3.21006 2.91625,-12.14198 -1.08262,-7.40344 -1.97776,-14.16916 -1.9892,-15.03493 -0.0152,-1.14812 1.95135,-2.0021 7.26647,-3.15552 14.22065,-3.086 25.87523,-8.66342 40.46272,-19.36384 2.06349,-1.51365 2.25,-1.51601 2.25,-0.0285 0,3.19084 1.83998,1.53985 3.406,-3.05617 C 361.36615,194.56912 361.37767,194 359.53393,194 357.57891,194 351,197.17282 351,198.11566 c 0,0.40988 1.00331,0.88904 2.22958,1.06479 1.88709,0.27046 1.23424,1.06672 -4.25,5.1836 -11.13719,8.3604 -27.0143,15.31894 -39.08179,17.12857 l -4.46391,0.6694 -1.71174,-13.83101 c -0.94146,-7.60705 -2.00688,-17.58061 -2.3676,-22.16346 -0.50646,-6.43453 -1.20529,-9.14211 -3.06809,-11.8871 -1.70334,-2.51 -2.09989,-3.86701 -1.34935,-4.61755 0.58459,-0.58459 1.0629,-2.34383 1.0629,-3.90941 0,-2.10513 -0.77114,-3.28909 -2.96079,-4.54577 -2.33092,-1.33777 -3.68768,-3.61478 -6.37766,-10.70349 -1.87928,-4.95233 -3.26867,-9.16998 -3.08754,-9.37257 0.45379,-0.50754 13.58095,6.70675 15.3988,8.46272 1.29567,1.25156 1.25773,1.82205 -0.31537,4.74313 -1.70723,3.17014 -1.70894,3.48665 -0.0376,6.99147 0.96282,2.01906 2.11724,3.67102 2.56537,3.67102 1.15388,0 1.02803,-0.68697 -0.75895,-4.14259 -1.90647,-3.68672 -1.24514,-4.63362 2.01689,-2.88783 2.03134,1.08714 3.18397,1.06104 6.88012,-0.15578 4.07701,-1.34221 4.64365,-1.31333 6.93145,0.35322 1.37031,0.9982 7.16108,2.93499 12.86838,4.30398 10.16799,2.43896 36.40601,10.72478 37.53437,11.85314 0.31445,0.31445 -0.60484,2.67683 -2.04287,5.24974 -2.93821,5.25703 -2.98984,5.42612 -1.65675,5.42612 0.52681,0 2.1819,-2.1375 3.67796,-4.75 1.49607,-2.6125 2.83669,-4.90915 2.97916,-5.10367 0.14247,-0.19452 5.18392,1.28737 11.20323,3.29309 9.49551,3.16404 11.58867,3.53871 15.81299,2.8305 7.01081,-1.17537 6.377,-3.24923 -1.63119,-5.33734 -3.575,-0.93217 -10.03219,-3.33235 -14.34931,-5.33373 -6.38474,-2.95991 -7.72154,-3.96166 -7.16455,-5.36886 2.44096,-6.16693 4.71348,-18.30817 5.19033,-27.72999 0.68233,-13.48186 -1.25149,-25.8108 -6.05392,-38.596303 C 372.16666,92.36539 371.63973,90 372.63909,90 373.38759,90 374,89.41673 374,88.703844 374,87.48122 363.97816,83.707775 363.08042,84.59238 362.47197,85.191936 367.20013,95 368.09761,95 c 0.41566,0 0.90858,-0.7875 1.09538,-1.75 0.45837,-2.361768 4.3605,6.83459 7.03305,16.57518 3.07131,11.19394 3.03314,35.28649 -0.0739,46.63858 -1.19881,4.38007 -2.51174,8.29584 -2.91763,8.70173 -0.40588,0.40588 -7.26219,-2.22436 -15.23624,-5.84497 -7.97405,-3.62062 -17.08577,-7.07685 -20.24827,-7.68053 -3.1625,-0.60367 -5.75,-1.35113 -5.75,-1.66101 0,-0.30989 2.88398,-2.25048 6.40883,-4.31244 3.52486,-2.06195 6.67486,-4.44226 7,-5.28956 2.04168,-5.32052 -1.18772,-6.65631 -5.96073,-2.46555 -4.23985,3.72263 -21.12865,12.40404 -22.49182,11.56155 C 316.43032,149.14792 316,148.2439 316,147.46404 c 0,-0.77987 -1.16301,-2.17996 -2.58446,-3.11134 -2.18524,-1.43182 -3.0989,-1.50737 -5.91486,-0.48911 -3.05873,1.10605 -3.94916,0.89812 -10.91554,-2.54893 -4.17183,-2.06428 -7.55924,-3.99205 -7.52758,-4.28395 0.13816,-1.27377 13.27483,-11.49075 14.30267,-11.12381 0.62687,0.22379 3.16477,0.46485 5.63977,0.53569 2.475,0.0708 4.4452,0.56274 4.37822,1.09311 -0.067,0.53036 -0.40014,2.15031 -0.74034,3.59988 -0.62496,2.6629 1.64471,5.91516 3.10733,4.45255 0.38328,-0.38328 0.15812,-1.02984 -0.50036,-1.4368 -0.89707,-0.55443 -0.93113,-1.70365 -0.13584,-4.58396 0.71461,-2.58811 0.73007,-4.04879 0.0473,-4.47076 -0.68503,-0.42337 -0.68221,-2.18274 0.009,-5.42211 0.74991,-3.51611 1.62286,-5.02355 3.27229,-5.65066 1.23724,-0.4704 5.30886,-4.6057 9.04805,-9.18955 3.73918,-4.58386 8.96094,-10.35929 11.6039,-12.83429 6.88126,-6.443942 26.88704,-35.273192 29.12584,-41.971678 2.99672,-8.966201 0.0289,-11.150125 -5.07383,-3.733617 -6.35909,9.242619 -30.15528,36.775543 -39.69368,45.926822 l -10.05244,9.644443 -3.33857,-9.182986 c -3.70897,-10.201772 -6.26346,-13.876085 -8.25941,-11.880129 -0.96677,0.966769 -0.94625,1.907395 0.0973,4.461111 1.93672,4.739255 4.7063,14.607704 5.46394,19.468824 0.64136,4.11506 0.5627,4.27333 -2.82795,5.69003 -2.95999,1.23677 -3.58685,2.07757 -4.1433,5.55741 -0.55513,3.47158 -1.81196,5.16565 -8.19803,11.05002 -4.14831,3.82241 -7.65053,6.8417 -7.7827,6.70952 -0.13217,-0.13217 0.1865,-4.05524 0.70816,-8.71794 0.62978,-5.62912 1.44188,-8.75375 2.41693,-9.29942 0.84877,-0.47499 1.46847,-2.27784 1.46847,-4.2721 0,-4.24439 1.60325,-4.53318 2.5,-0.45031 0.3624,1.65 1.07316,3 1.57946,3 1.1819,0 1.16023,-0.46793 -0.23775,-5.13398 -1.1711,-3.90879 -2.18056,-4.7448 -3.38197,-2.80088 -0.43188,0.69881 -1.3011,0.48341 -2.52728,-0.62626 -1.67673,-1.51742 -1.71795,-1.90705 -0.40072,-3.78765 C 287.62312,100.09305 288,96.499541 288,87.651359 288,81.104364 288.70626,71.604383 289.56947,66.54029 291.88863,52.934666 291.2636,26.027199 288.5,20.5 c -2.92674,-5.853476 -4.93592,-5.282133 -5.27489,1.5 -0.4738,9.479827 -5.21399,53.611046 -6.38441,59.439038 C 276.22646,84.497567 275.41882,87 275.04596,87 c -0.37286,0 -1.67422,-2.403726 -2.89191,-5.341614 -2.38204,-5.747115 -7.31348,-11.295918 -9.07279,-10.208608 -1.69385,1.046856 -1.27316,3.717048 0.96015,6.094296 2.73893,2.915461 11.25232,23.311066 11.04304,26.455926 -0.54502,8.19018 -0.36574,10.03191 1.1386,11.6968 1.35273,1.49709 4.12802,15.13319 3.27691,16.10075 -0.14395,0.16366 -2.70934,-0.90286 -5.70087,-2.37005 -4.75745,-2.33327 -5.46017,-3.05987 -5.60697,-5.79755 -0.55709,-10.38875 -0.62587,-10.60738 -3.97891,-12.64648 C 260.50872,108.73063 260,108.60878 260,109.97432 c 0,0.53588 1.39182,1.69406 3.09293,2.57374 3.72496,1.92625 3.20398,2.63924 -2.88784,3.9522 -4.1973,0.90464 -4.8755,0.78293 -7.09405,-1.27316 -1.34919,-1.25038 -5.63861,-3.22719 -9.53205,-4.3929 -3.89345,-1.16571 -8.65767,-2.90892 -10.58717,-3.87379 -4.13692,-2.06873 -28.88619,-8.762497 -37.49182,-10.140156 -9.65384,-1.545466 -26.17562,-1.547216 -27.69981,-0.0029 -1.85215,1.876558 1.01625,3.784226 6.99491,4.652046 7.38039,1.0713 40.15993,9.3763 45.7049,11.57977 2.75,1.09279 7.46846,3.39841 10.48547,5.12359 l 5.48547,3.13669 -7.34296,1.7255 c -7.90872,1.85846 -13.62485,5.86821 -11.45652,8.03654 0.79831,0.79831 1.92263,0.67269 4.11196,-0.45946 1.65727,-0.85701 8.64749,-2.43494 15.53381,-3.50652 6.88633,-1.07158 13.47158,-2.45727 14.63389,-3.07932 1.9313,-1.0336 2.06048,-0.92058 1.50006,1.31232 -0.75018,2.98897 0.42713,3.81466 5.93328,4.16124 2.44155,0.15368 7.42148,1.8879 11.918,4.15036 l 7.72397,3.88637 -5.94385,5.88183 c -5.84368,5.7827 -5.99633,5.86009 -9.05827,4.59179 -2.38616,-0.98838 -3.69949,-1.02347 -5.61642,-0.15005 -3.38878,1.54403 -3.13502,1.69869 -5.51289,-3.36002 -1.16339,-2.475 -2.5157,-4.5 -3.00513,-4.5 -1.27938,0 -1.16488,0.43973 1.61495,6.20204 1.37765,2.85573 2.2463,6.00675 1.93033,7.00227 -0.31596,0.99552 0.0651,3.09201 0.8467,4.65886 l 1.42119,2.84883 -11.10152,5.62543 c -6.10584,3.09399 -12.67652,5.9999 -14.60152,6.45757 -5.42805,1.29053 -4.56717,3.71956 1.28994,3.63966 l 4.78994,-0.0653 -6.76312,6.81535 C 225.59704,186.9331 222.23965,190 221.8559,190 c -1.2962,0 -8.92371,-11.4521 -12.32166,-18.5 -4.73743,-9.82621 -7.35713,-18.44307 -8.72069,-28.6846 -1.38141,-10.37555 -3.4059,-12.17444 -2.32442,-2.0654 1.67683,15.67402 8.75808,33.91887 17.74412,45.71775 l 4.54505,5.96775 -5.99517,7.24779 c -8.11171,9.80657 -8.73963,10.27544 -8.95816,6.68915 -0.0963,-1.57984 -0.0659,-4.55994 0.0675,-6.62244 0.22134,-3.42259 0.0183,-3.75 -2.32497,-3.75 -3.03405,0 -3.09696,0.59281 -1.01545,9.56811 1.4803,6.38291 1.46343,6.7902 -0.36497,8.81206 -1.05435,1.1659 -2.65526,4.34483 -3.55759,7.06427 -2.2101,6.66089 -0.77174,8.05503 3.76944,3.65354 3.02238,-2.92941 3.46301,-3.09129 3.9414,-1.44805 0.29623,1.01754 3.07017,14.45007 6.16431,29.85007 3.09413,15.4 5.84998,28.78206 6.12409,29.73791 0.4661,1.6253 -1.95187,1.7557 -37.31516,2.01239 -20.79745,0.15097 7.63645,0.27565 63.18645,0.27708 55.55,0.001 87.1625,-0.12314 70.25,-0.27684 z M 222,284.67933 c 0,-0.6393 -7.84996,-39.25193 -8.52425,-41.92933 l -0.69257,-2.75 34.10841,0 34.10841,0 0,22.5 0,22.5 -29.5,0 C 235.275,285 222,284.8557 222,284.67933 z M 212.70262,237.25 c -0.22848,-0.4125 -1.22557,-4.68849 -2.21577,-9.50219 l -1.80035,-8.7522 9.8483,-9.30409 9.84831,-9.3041 7.01398,5.27651 c 3.85769,2.90209 9.53152,6.61835 12.60851,8.25837 6.70069,3.57143 21.64462,8.65926 28.2444,9.61612 l 4.75,0.68867 0,6.88645 0,6.88646 -33.94098,0 c -18.66754,0 -34.12792,-0.3375 -34.3564,-0.75 z M 284,214.37756 c 0,-7.5182 0.19047,-8.46437 1.48727,-7.38813 2.30812,1.91558 4.18988,0.53683 4.99472,-3.65959 0.6948,-3.62266 0.88882,-3.20772 3.58653,7.67016 1.5686,6.325 2.86988,11.6125 2.89174,11.75 0.0219,0.1375 -2.88526,0.25 -6.46026,0.25 l -6.5,0 0,-8.62244 z m -15,5.5831 c -9.47981,-2.43849 -25.75773,-10.48425 -33.2723,-16.44567 l -5.7723,-4.57924 5.91643,-5.47757 c 3.25403,-3.01266 9.45157,-8.11513 13.7723,-11.33882 8.86485,-6.61405 12.49857,-10.97736 12.84872,-15.4285 0.15983,-2.03166 0.92934,-3.30289 2.30808,-3.81292 2.33499,-0.86377 4.58219,-4.43548 3.90465,-6.20608 -0.24663,-0.64452 2.4232,-4.32186 5.93297,-8.17186 l 6.38138,-7 -0.25996,14.5 -0.25997,14.5 -3.78918,-0.11754 c -4.93458,-0.15306 -4.38658,2.00512 0.61648,2.42791 l 3.6727,0.31036 0,24.43964 0,24.43963 -2.25,-0.0551 c -1.2375,-0.0303 -5.625,-0.92321 -9.75,-1.98428 z m 15,-32.91565 c 0,-17.29164 0.007,-17.34838 2,-15.54501 2.35731,2.13334 2.51007,5.63323 0.90395,20.71078 C 285.17573,208.43457 284,206.3431 284,187.04501 z M 284.09379,158.5 c 0.0288,-3.49852 0.15045,-3.70687 0.96997,-1.66188 0.5907,1.47402 0.57852,2.95231 -0.033,4 -0.73961,1.26721 -0.96213,0.71195 -0.93699,-2.33812 z"
       id="path2995"
       style="fill:#bfbfbf" />
    <path
       d="m 276.34157,223.52053 c -13.97368,-2.53566 -26.30779,-7.61228 -37.80479,-15.56015 -8.01389,-5.54 -19.14295,-16.62072 -24.47086,-24.36457 -4.75139,-6.90591 -10.84933,-20.42857 -12.99256,-28.81203 C 198.70489,145.51929 197.41958,134 198.75434,134 c 0.54303,0 1.29193,2.8125 1.66422,6.25 3.47255,32.06317 23.13852,59.59032 52.65306,73.70034 14.07046,6.72666 21.95374,8.38146 39.92838,8.38146 12.78455,0 16.90152,-0.38039 23.5,-2.17127 10.32565,-2.80247 24.27499,-9.57487 32.47958,-15.76884 5.49003,-4.14463 6.13908,-4.94049 4.25,-5.21124 C 352.00331,199.0047 351,198.52554 351,198.11566 351,197.17282 357.57891,194 359.53393,194 c 1.84374,0 1.83222,0.56912 -0.12793,6.32186 -1.61153,4.72957 -2.99069,5.944 -3.58268,3.15475 -0.24178,-1.13921 -1.83643,-0.38656 -6.32332,2.98452 -20.08992,15.09391 -48.05436,21.61478 -73.15843,17.0594 z M 364.20443,184.25 c 0.2041,-0.4125 2.48919,-5.025 5.07797,-10.25 7.34785,-14.83038 9.0494,-22.53954 9.0494,-41 0,-12.66304 -0.38542,-16.90472 -2.10576,-23.17482 -2.67255,-9.74059 -6.57468,-18.936948 -7.03305,-16.57518 -0.1868,0.9625 -0.67972,1.75 -1.09538,1.75 -0.89748,0 -5.62564,-9.808064 -5.01719,-10.40762 C 363.97816,83.707775 374,87.48122 374,88.703844 374,89.41673 373.38759,90 372.63909,90 c -0.99966,0 -0.47584,2.356302 1.97344,8.87701 8.23775,21.93136 8.37062,45.28391 0.38292,67.2994 C 371.61671,175.48878 366.51387,185 364.89644,185 c -0.58471,0 -0.89611,-0.3375 -0.69201,-0.75 z"
       id="path2993"
       style="fill:#fe0000" />
    <path
       d="m 292.87499,199 c -0.37793,-6.50668 0.32948,-13.47868 1.81398,-17.87808 0.81252,-2.40794 1.25702,-5.22044 0.98779,-6.25 -0.26924,-1.02956 -0.0932,-1.87192 0.39118,-1.87192 1.94656,0 3.73819,5.98983 4.42585,14.79662 l 0.72591,9.29663 -2.61228,-0.65565 c -2.27071,-0.56991 -2.80299,-0.21641 -4.07071,2.70338 L 293.07828,202.5 292.87499,199 z M 240,186.27743 c 0,-1.0821 -0.90183,-2.7836 -2.00406,-3.78111 -1.71139,-1.54878 -2.40508,-1.63521 -4.75,-0.59179 -2.43089,1.08167 -2.28701,0.77176 1.25406,-2.70112 3.62724,-3.55738 13.43773,-8.24728 22.5,-10.75608 1.375,-0.38066 3.12741,-1.196 3.89425,-1.81188 1.14891,-0.92274 1.25614,-0.68466 0.6094,1.35305 -1.33425,4.20384 -4.60471,7.81489 -11.94556,13.18959 -3.88195,2.84221 -7.62059,5.59497 -8.30809,6.11723 -0.8982,0.68232 -1.25,0.39585 -1.25,-1.01789 z M 345.5,165.3805 c -2.2,-0.81322 -8.8375,-2.61922 -14.75,-4.01332 C 324.8375,159.97307 320,158.42014 320,157.91622 320,157.4123 320.38529,157 320.8562,157 c 0.47091,0 2.91921,-1.57523 5.44067,-3.50051 2.62557,-2.00477 4.84868,-3.07299 5.20282,-2.5 0.34009,0.55028 1.82929,1.01 3.30933,1.0216 2.75498,0.0216 15.8917,4.30337 17.04867,5.55684 0.35327,0.38273 0.0747,0.89849 -0.61915,1.14613 -0.6938,0.24763 -1.74217,1.34846 -2.3297,2.44628 -0.83247,1.55549 -0.68538,2.4191 0.66644,3.91285 2.03469,2.2483 1.33987,2.29899 -4.07528,0.29731 z M 231.89146,117.71154 226.28293,114.5 l 2.01931,-2.70382 c 1.67413,-2.24163 1.79995,-2.96812 0.73609,-4.25 -1.68219,-2.02691 -0.76734,-1.95102 3.75151,0.31118 2.04059,1.02155 7.08516,2.87545 11.21016,4.11978 6.39059,1.92775 7.1639,2.38906 5.22783,3.11861 -1.24969,0.47091 -2.51975,1.5014 -2.82235,2.28998 -0.30261,0.78858 -1.75513,1.72076 -3.22784,2.07151 -1.4727,0.35075 -3.35264,0.82406 -4.17764,1.05178 -0.825,0.22773 -4.02384,-1.03114 -7.10854,-2.79748 z m 87.34403,-7.32904 c 1.06965,-2.34762 0.91277,-2.85822 -1.52144,-4.95204 C 316.22132,104.14647 315,102.72558 315,102.27294 c 0,-1.68209 15.23672,-15.76221 15.70351,-14.511481 1.0899,2.920312 4.15623,3.348804 8.53227,1.192312 L 343.5,86.85239 l -5.12451,4.823805 c -2.81848,2.653093 -8.14481,8.536305 -11.83629,13.073805 -6.7851,8.34013 -9.48664,10.42351 -7.30371,5.6325 z M 283,99.978561 c 0,-2.215268 -0.63762,-3.311957 -2.38973,-4.110272 -4.20015,-1.913715 -4.82404,-4.988067 -2.98061,-14.687485 2.28575,-12.026748 2.13441,-11.621498 3.81825,-10.224034 1.56338,1.297493 5.05657,0.0298 5.76373,-2.091691 0.21227,-0.636811 0.1996,5.995532 -0.0282,14.738541 -0.22776,8.743009 -0.82805,16.68388 -1.33398,17.64638 C 284.42614,103.95787 283,103.32153 283,99.978561 z"
       id="path2991"
       style="fill:#0000fe" />
    <path
       d="m 181.31355,285.2503 c 35.36329,-0.25669 37.78126,-0.38709 37.31516,-2.01239 C 218.3546,282.28206 215.59875,268.9 212.50462,253.5 c -3.09414,-15.4 -5.86808,-28.83253 -6.16431,-29.85007 -0.47839,-1.64324 -0.91902,-1.48136 -3.9414,1.44805 -4.54118,4.40149 -5.97954,3.00735 -3.76944,-3.65354 0.90233,-2.71944 2.50324,-5.89837 3.55759,-7.06427 1.8284,-2.02186 1.84527,-2.42915 0.36497,-8.81206 -2.08914,-9.00817 -2.026,-9.56811 1.07881,-9.56811 2.42215,0 2.58802,0.26392 2.09093,3.32708 -0.29695,1.82989 -0.22817,4.85127 0.15283,6.71418 l 0.69274,3.3871 6.87585,-8.21418 C 217.2249,196.69638 220.542,193 220.81451,193 c 0.2725,0 -0.17015,0.7875 -0.98368,1.75 -13.44616,15.90834 -13.43637,15.89113 -11.97997,21.06402 0.60761,2.15814 1.32507,1.69726 10.65032,-6.84156 l 9.99882,-9.15559 -9.90951,9.59197 -9.9095,9.59198 1.95037,9.24959 1.95036,9.24959 34.20914,0.26313 34.20914,0.26313 0,-7.09647 c 0,-5.23253 0.32832,-6.98711 1.25,-6.68015 0.95523,0.31813 1.31241,7.52682 1.51464,30.5689 l 0.26464,30.1526 30.73536,0.27942 c 16.90445,0.15369 -14.71464,0.27826 -70.26464,0.27682 -55.55,-10e-4 -83.9839,-0.12611 -63.18645,-0.27708 z M 281,262.5 l 0,-22.5 -34.10841,0 -34.10841,0 0.69257,2.75 C 214.15004,245.4274 222,284.04003 222,284.67933 222,284.8557 235.275,285 251.5,285 l 29.5,0 0,-22.5 z m -78.16301,-38.83181 c 2.26719,-2.33916 3.04189,-3.90331 2.60023,-5.25 -0.346,-1.05501 -0.81624,-2.53137 -1.04499,-3.28081 -0.6831,-2.23809 -2.91787,0.33598 -4.30171,4.95483 -0.67825,2.26378 -1.47422,4.74413 -1.76884,5.51188 -0.92816,2.41875 1.16402,1.52175 4.51531,-1.9359 z M 304.78222,252.75 c -1.76377,-2.33479 -3.10271,-6.56747 -4.7547,-15.03065 -1.26476,-6.47936 -2.09471,-11.98549 -1.84434,-12.23586 0.25036,-0.25037 1.50363,5.08153 2.78504,11.84866 1.683,8.88797 2.97023,13.10703 4.63655,15.19678 1.2687,1.5911 2.54502,2.65462 2.83627,2.36337 0.29125,-0.29125 -0.37666,-6.79091 -1.48425,-14.44368 -1.10758,-7.65277 -1.87436,-14.59689 -1.70395,-15.43137 0.1704,-0.83449 1.29047,5.41695 2.48904,13.89209 1.19856,8.47513 1.9454,15.78763 1.65964,16.25 -0.93495,1.51278 -2.1255,0.89182 -4.6193,-2.40934 z M 282.25,222.25271 C 281.29569,221.93254 281,216.07174 281,197.47703 l 0,-24.3563 -3.6727,-0.31036 c -5.00306,-0.42279 -5.55106,-2.58097 -0.61648,-2.42791 L 280.5,170.5 l 0.30474,-12 c 0.16761,-6.6 0.0261,-13.92206 -0.31446,-16.27125 -0.60638,-4.18281 -0.78792,-4.35608 -8.76781,-8.36829 -4.82583,-2.42638 -9.85789,-4.20463 -12.34033,-4.36089 -5.50379,-0.34643 -6.68107,-1.1724 -5.93096,-4.16109 0.56042,-2.2329 0.43124,-2.34592 -1.50006,-1.31232 -1.16231,0.62205 -7.74756,2.00774 -14.63389,3.07932 -6.88632,1.07158 -13.87654,2.64951 -15.53381,3.50652 -2.18933,1.13215 -3.31365,1.25777 -4.11196,0.45946 -2.16833,-2.16833 3.5478,-6.17808 11.45652,-8.03654 l 7.34296,-1.7255 -5.48547,-3.13669 c -3.01701,-1.72518 -7.73547,-4.0308 -10.48547,-5.12359 -5.54497,-2.20347 -38.32451,-10.50847 -45.7049,-11.57977 -5.97866,-0.86782 -8.84706,-2.775491 -6.99491,-4.652049 1.52419,-1.544283 18.04597,-1.542533 27.69981,0.0029 8.60563,1.377659 33.3549,8.071429 37.49182,10.140159 1.9295,0.96487 6.69372,2.70808 10.58717,3.87379 3.89344,1.16571 8.18286,3.14252 9.53205,4.3929 2.21855,2.05609 2.89675,2.1778 7.09405,1.27316 6.09182,-1.31296 6.6128,-2.02595 2.88784,-3.9522 C 261.39182,111.66838 260,110.5102 260,109.97432 c 0,-1.36554 0.50872,-1.24369 4.21321,1.00915 3.35304,2.0391 3.42182,2.25773 3.97891,12.64648 0.1468,2.73768 0.84952,3.46428 5.60697,5.79755 2.99153,1.46719 5.55692,2.53371 5.70087,2.37005 0.85111,-0.96756 -1.92418,-14.60366 -3.27691,-16.10075 -1.50434,-1.66489 -1.68362,-3.50662 -1.1386,-11.6968 0.20928,-3.14486 -8.30411,-23.540465 -11.04304,-26.455926 -2.23331,-2.377248 -2.654,-5.04744 -0.96015,-6.094296 1.75931,-1.08731 6.69075,4.461493 9.07279,10.208608 C 273.37174,84.596274 274.6731,87 275.04596,87 c 0.37286,0 1.1805,-2.502433 1.79474,-5.560962 1.17042,-5.827992 5.91061,-49.959211 6.38441,-59.439038 0.33897,-6.782133 2.34815,-7.353476 5.27489,-1.5 2.7636,5.527199 3.38863,32.434666 1.06947,46.04029 C 288.70626,71.604383 288,81.104364 288,87.651359 c 0,8.848182 -0.37688,12.441691 -1.46826,13.999871 -1.31723,1.8806 -1.27601,2.27023 0.40072,3.78765 1.22618,1.10967 2.0954,1.32507 2.52728,0.62626 1.20141,-1.94392 2.21087,-1.10791 3.38197,2.80088 1.39798,4.66605 1.41965,5.13398 0.23775,5.13398 -0.5063,0 -1.21706,-1.35 -1.57946,-3 -0.89675,-4.08287 -2.5,-3.79408 -2.5,0.45031 0,1.99426 -0.6197,3.79711 -1.46847,4.2721 -0.97505,0.54567 -1.78715,3.6703 -2.41693,9.29942 -0.52166,4.6627 -0.84033,8.58577 -0.70816,8.71794 0.13217,0.13218 3.63439,-2.88711 7.7827,-6.70952 6.38607,-5.88437 7.6429,-7.57844 8.19803,-11.05002 0.55645,-3.47984 1.18331,-4.32064 4.1433,-5.55741 3.39065,-1.4167 3.46931,-1.57497 2.82795,-5.69003 -0.75764,-4.86112 -3.52722,-14.729569 -5.46394,-19.468824 -1.04358,-2.553716 -1.0641,-3.494342 -0.0973,-4.461111 1.99595,-1.995956 4.55044,1.678357 8.25941,11.880129 l 3.33857,9.182986 10.05244,-9.644443 c 9.5384,-9.151279 33.33459,-36.684203 39.69368,-45.926822 5.10269,-7.416508 8.07055,-5.232584 5.07383,3.733617 C 365.97628,56.726808 345.9705,85.556058 339.08924,92 c -2.64296,2.475 -7.86472,8.25043 -11.6039,12.83429 -3.73919,4.58385 -7.81081,8.71915 -9.04805,9.18955 -1.64943,0.62711 -2.52238,2.13455 -3.27229,5.65066 -0.69089,3.23937 -0.69371,4.99874 -0.009,5.42211 0.68276,0.42197 0.6673,1.88265 -0.0473,4.47076 -0.79529,2.88031 -0.76123,4.02953 0.13584,4.58396 0.65848,0.40696 0.88364,1.05352 0.50036,1.4368 -1.46262,1.46261 -3.73229,-1.78965 -3.10733,-4.45255 0.3402,-1.44957 0.67335,-3.06952 0.74034,-3.59988 0.067,-0.53037 -1.90322,-1.02227 -4.37822,-1.09311 -2.475,-0.0708 -5.0129,-0.3119 -5.63977,-0.53569 -1.02784,-0.36694 -14.16451,9.85004 -14.30267,11.12381 -0.0317,0.2919 3.35575,2.21967 7.52758,4.28395 6.96638,3.44705 7.85681,3.65498 10.91554,2.54893 2.81596,-1.01826 3.72962,-0.94271 5.91486,0.48911 1.42145,0.93138 2.58446,2.33147 2.58446,3.11134 0,0.77986 0.43032,1.68388 0.95628,2.00894 1.36317,0.84249 18.25197,-7.83892 22.49182,-11.56155 4.77301,-4.19076 8.00241,-2.85497 5.96073,2.46555 -0.32514,0.8473 -3.47514,3.22761 -7,5.28956 -3.52485,2.06196 -6.40883,4.00255 -6.40883,4.31244 0,0.30988 2.5875,1.05539 5.75,1.65669 5.14485,0.97821 32.24233,12.36169 34.75,14.59826 1.28652,1.14744 -2.10644,-0.1845 -11.64157,-4.57001 -7.62113,-3.5052 -7.64722,-3.50935 -9.75,-1.55031 -1.15964,1.08037 -2.10843,2.35677 -2.10843,2.83645 0,2.10674 6.3104,5.85074 13.41724,7.96053 4.24332,1.2597 7.50813,2.49738 7.25512,2.75038 -0.25301,0.25301 -7.37029,-1.79143 -15.81619,-4.5432 C 345.41028,166.366 334.45,163.17182 329.5,162.01959 c -4.95,-1.15224 -10.05761,-2.90148 -11.35025,-3.8872 -2.15667,-1.64461 -2.71742,-1.67135 -6.80835,-0.32456 -3.7127,1.22227 -4.8661,1.24932 -6.89825,0.16175 -3.26203,-1.74579 -3.92336,-0.79889 -2.01689,2.88783 1.78698,3.45562 1.91283,4.14259 0.75895,4.14259 -0.44813,0 -1.60255,-1.65196 -2.56537,-3.67102 -1.67134,-3.50482 -1.66963,-3.82133 0.0376,-6.99147 1.5731,-2.92108 1.61104,-3.49157 0.31537,-4.74313 -2.54769,-2.46096 -14.87114,-8.77525 -15.8934,-8.14346 -0.53914,0.33321 -0.94477,5.12085 -0.90544,10.68699 0.0413,5.84355 0.42267,9.51474 0.90703,8.73103 0.45968,-0.74378 0.61916,-2.48106 0.35439,-3.86063 -0.46613,-2.42879 -0.44998,-2.43698 0.50939,-0.25831 0.54877,1.24623 1.87739,2.25 2.97818,2.25 1.92482,0 1.9062,-0.21258 -0.59124,-6.75 -1.41826,-3.7125 -2.75896,-7.65 -2.97933,-8.75 -0.22038,-1.1 1.20283,2.0519 3.16268,7.00423 2.7649,6.98663 4.22678,9.38499 6.52414,10.70349 2.18965,1.25668 2.96079,2.44064 2.96079,4.54577 0,1.56558 -0.47831,3.32482 -1.0629,3.90941 -0.75054,0.75054 -0.35184,2.11071 1.35666,4.62833 1.90828,2.81201 2.56167,5.42957 3.09204,12.3871 0.36985,4.85192 1.37159,14.08715 2.22608,20.52273 0.85449,6.43559 1.38743,12.51059 1.18431,13.5 -0.20312,0.98942 -0.99125,-3.51334 -1.7514,-10.00613 -1.09303,-9.33614 -1.75134,-12.0027 -3.14769,-12.75 -2.77399,-1.48459 -3.37391,-1.17988 -5.07767,2.57901 -1.50456,3.31945 -1.46152,4.05739 0.74176,12.71656 1.28646,5.05594 2.16605,9.36559 1.95464,9.577 -0.42603,0.42604 -1.50418,-3.3592 -4.36289,-15.3175 -1.8951,-7.92745 -1.91921,-7.96527 -2.65896,-4.17016 -0.81349,4.1734 -2.69861,5.57515 -4.96648,3.69298 -1.23998,-1.02909 -1.48856,0.005 -1.73727,7.22417 -0.21359,6.20046 -0.62029,8.31436 -1.54023,8.00572 z M 289.77983,202.25 c 0.63686,-2.6125 1.62138,-8.26604 2.18781,-12.56342 0.56643,-4.29738 1.48043,-8.65529 2.03112,-9.68426 1.45182,-2.71275 1.22929,-5.56816 -0.54895,-7.04397 -2.93667,-2.43722 -4.07156,0.86993 -5.33004,15.53218 -0.66045,7.69478 -1.56966,14.35936 -2.02046,14.81016 -0.4508,0.4508 -0.44069,-1.56993 0.0225,-4.49052 0.46317,-2.9206 1.13059,-9.81017 1.48315,-15.31017 0.59988,-9.35817 0.50477,-10.12227 -1.48196,-11.90499 l -2.123,-1.90499 0,16.72073 c 0,9.61368 0.44,17.54288 1.03518,18.65499 1.7352,3.24224 3.5271,2.17882 4.74465,-2.81574 z m 8.82759,-5.8124 2.61228,0.65565 -0.72591,-9.29663 C 299.80613,178.98983 298.0145,173 296.06794,173 c -0.48439,0 -0.66042,0.84236 -0.39118,1.87192 0.26923,1.02956 -0.17527,3.84206 -0.98779,6.25 -1.4845,4.3994 -2.19191,11.3714 -1.81398,17.87808 l 0.20329,3.5 1.45843,-3.35902 c 1.26772,-2.91979 1.8,-3.27329 4.07071,-2.70338 z m -1.77163,-29.88829 c 0.58476,-5.13855 -4.96528,-7.55398 -7.01589,-3.05337 -0.94292,2.06947 -0.82053,2.84588 0.71626,4.54402 2.66653,2.94648 5.88125,2.1858 6.29963,-1.49065 z m 52.73949,-1.46612 c -1.35182,-1.49375 -1.49891,-2.35736 -0.66644,-3.91285 0.58753,-1.09782 1.6359,-2.19865 2.3297,-2.44628 0.6938,-0.24764 0.97242,-0.7634 0.61915,-1.14613 -1.15697,-1.25347 -14.29369,-5.53524 -17.04867,-5.55684 -1.48004,-0.0116 -2.96924,-0.47132 -3.30933,-1.0216 -0.35414,-0.57299 -2.57725,0.49523 -5.20282,2.5 C 323.77541,155.42477 321.32711,157 320.8562,157 320.38529,157 320,157.4123 320,157.91622 c 0,0.50392 4.8375,2.05685 10.75,3.45096 5.9125,1.3941 12.55,3.2001 14.75,4.01332 5.41515,2.00168 6.10997,1.95099 4.07528,-0.29731 z M 324.64081,153.5544 c 2.67255,-1.89509 8.00919,-5.34505 11.85919,-7.6666 7.52276,-4.53621 8.46105,-5.43613 8.48469,-8.1378 0.0223,-2.55233 -1.76293,-2.1519 -5.65965,1.26947 -1.89145,1.66072 -7.87853,5.24734 -13.30464,7.97029 -5.4261,2.72295 -10.1642,5.43389 -10.52911,6.02433 -0.79812,1.2914 1.24475,3.98591 3.02196,3.98591 0.6976,0 3.455,-1.55052 6.12756,-3.4456 z M 311.5,152 c 0.33992,-0.55 1.5218,-1 2.6264,-1 1.61413,0 1.87717,-0.44168 1.34001,-2.25 -0.7546,-2.54031 -3.17698,-4.75 -5.2072,-4.75 -0.74719,0 -2.6707,0.67855 -4.27446,1.50789 -2.92281,1.51144 -3.10729,3.14012 -0.70707,6.24211 1.15583,1.49377 5.34949,1.66226 6.22232,0.25 z m -8.65834,-6.49069 c -0.18791,-0.18737 -4.16336,-2.18853 -8.83432,-4.44702 -5.78705,-2.79814 -8.62243,-3.71703 -8.9,-2.88432 -0.22404,0.67212 0.008,1.36034 0.51471,1.52938 0.50712,0.16904 4.28712,2.2338 8.4,4.58835 5.91058,3.38371 7.65436,3.99524 8.31961,2.91765 0.46292,-0.74985 0.68792,-1.51666 0.5,-1.70404 z m -7.76318,-14.93371 c 5.99436,-5.11199 6.71696,-6.08931 5.78699,-7.82697 -0.99813,-1.86502 -1.37542,-1.68888 -6.21406,2.90115 -2.83328,2.6877 -6.65482,6.22851 -8.49233,7.86847 l -3.34091,2.98175 0.64192,-6 c 0.35306,-3.3 0.88352,-7.6875 1.17881,-9.75 0.52267,-3.65061 0.45374,-3.75 -2.60066,-3.75 l -3.13755,0 0.79293,6.25 c 0.43612,3.4375 0.72904,7.92725 0.65095,9.97722 l -0.14198,3.72721 4.01312,-0.26873 c 3.24868,-0.21754 5.31788,-1.38143 10.86277,-6.1101 z m -15.78112,4.09187 c 0.74986,-1.9541 -11.6314,-7.93343 -13.19333,-6.3715 -0.86847,0.86847 0.39005,1.94441 5.12231,4.37917 7.24672,3.72846 7.39113,3.76411 8.07102,1.99233 z m -57.37741,-5.12607 c 1.55134,-0.80223 7.4915,-2.15927 13.20034,-3.01565 17.2675,-2.59026 18.80126,-3.34436 18.86606,-9.27575 0.0225,-2.05701 -5.58228,-1.4812 -7.11438,0.7309 -0.97496,1.40768 -4.79679,2.83203 -13.2072,4.92215 C 222.91917,125.5735 218,127.85081 218,130.15499 c 0,1.17208 0.66949,1.06728 3.91995,-0.61359 z M 263,127.17431 c 0,-2.42642 -4.37344,-6.4437 -6.54808,-6.01481 -1.10392,0.21771 -1.8516,1.48813 -2.07341,3.52302 -0.28729,2.6357 0.037,3.25663 1.8873,3.61382 5.12392,0.98914 6.73419,0.72084 6.73419,-1.12203 z m 42.41918,-7.68699 c 4.33048,-4.01336 2.35979,-10.59632 -2.27808,-7.60975 C 301.53532,112.91162 300.26291,122 301.72392,122 c 0.54122,0 2.20408,-1.1307 3.69526,-2.51268 z m -62.24154,-0.0301 c 1.47271,-0.35075 2.92523,-1.28293 3.22784,-2.07151 0.3026,-0.78858 1.57266,-1.81907 2.82235,-2.28998 1.93607,-0.72955 1.16276,-1.19086 -5.22783,-3.11861 -4.125,-1.24433 -9.16957,-3.09823 -11.21016,-4.11978 -4.51885,-2.2622 -5.4337,-2.33809 -3.75151,-0.31118 1.06386,1.28188 0.93804,2.00837 -0.73609,4.25 l -2.01931,2.70382 5.60853,3.21154 c 3.0847,1.76634 6.28354,3.02521 7.10854,2.79748 0.825,-0.22772 2.70494,-0.70103 4.17764,-1.05178 z M 281,113.93426 C 281,110.74212 279.13541,108 276.96482,108 c -2.17478,0 -2.46011,1.56709 -0.98957,5.4349 1.22013,3.20919 5.02475,3.58729 5.02475,0.49936 z m -52.94936,-3.02888 c 1.96132,-3.66475 -0.6155,-5.29292 -13.90233,-8.78424 C 207.19174,100.2932 198.8,98.361586 195.5,97.828668 c -7.61318,-1.229456 -26.07545,-1.586145 -27.13753,-0.524295 -1.18904,1.188784 1.36869,2.431182 6.55297,3.183047 7.11254,1.03152 40.05384,9.35293 45.08456,11.38896 4.95831,2.00672 6.56043,1.81349 8.05064,-0.971 z m 89.94973,0.0937 c 1.37108,-3.31007 0.40419,-5.41854 -2.97691,-6.49165 -1.18652,-0.37659 -3.07397,-4.03753 -5.5623,-10.78873 -2.0715,-5.620296 -4.36198,-10.866934 -5.08996,-11.659196 -2.06401,-2.246296 -2.92348,-0.326117 -1.44513,3.228641 0.73466,1.766509 2.23833,6.811835 3.3415,11.211835 3.86293,15.40728 4.66762,16.90162 9.36111,17.384 0.62077,0.0638 1.68804,-1.23441 2.37169,-2.8849 z m 8.53883,-6.2491 c 3.69148,-4.5375 9.01781,-10.420712 11.83629,-13.073805 L 343.5,86.85239 l -4.26422,2.101381 c -4.37604,2.156492 -7.44237,1.728 -8.53227,-1.192312 C 330.23672,86.51073 315,100.59085 315,102.27294 c 0,0.45264 1.22132,1.87353 2.71405,3.15752 2.43421,2.09382 2.59109,2.60442 1.52144,4.95204 -2.18293,4.79101 0.51861,2.70763 7.30371,-5.6325 z m -44.73222,-4.42272 c 0.24221,-2.490353 -0.14191,-3.298807 -1.8205,-3.831571 C 278.52664,96.032373 276.43963,92.7889 273.33612,86.160235 269.06262,77.032631 265.68256,72 263.82569,72 c -1.57526,0 -0.81493,3.382553 1.25578,5.586723 1.14481,1.218594 3.844,6.612849 5.9982,11.987233 2.1542,5.374384 4.62095,10.846384 5.48166,12.159994 2.151,3.28283 4.86021,2.55633 5.24565,-1.40667 z m 4.04252,0.92272 c 0.50593,-0.9625 1.10622,-8.903371 1.33398,-17.64638 0.22776,-8.743009 0.24043,-15.375352 0.0282,-14.738541 -0.70716,2.121488 -4.20035,3.389184 -5.76373,2.091691 -1.68384,-1.397464 -1.5325,-1.802714 -3.81825,10.224034 -1.84343,9.699418 -1.21954,12.77377 2.98061,14.687485 1.75211,0.798315 2.38973,1.895004 2.38973,4.110272 0,3.342969 1.42614,3.979309 2.8495,1.271439 z m 53.73225,-13.5 C 343.5685,85.814786 345.69677,83.401426 354.79396,70.5 363.89728,57.589877 369,48.015494 369,43.844774 c 0,-2.139475 -2.97309,-0.484127 -5.21794,2.905226 -2.14278,3.235245 -12.79832,16.279598 -28.50546,34.895972 -3.98453,4.722525 -4.20981,5.277962 -2.73777,6.75 1.99159,1.991591 1.52017,2.03483 7.04292,-0.645972 z M 286.60398,68.316302 289.5,65.632603 289.8392,46.566302 c 0.29543,-16.605835 0.1018,-19.700806 -1.50042,-23.983107 -2.59624,-6.93907 -4.3399,-7.106634 -4.33437,-0.416528 0.002,2.933333 -0.94651,14.453261 -2.10875,25.59984 -1.68237,16.135012 -1.86216,20.568929 -0.88196,21.75 1.67689,2.020532 2.24675,1.898186 5.59028,-1.200205 z M 234.35921,193.91501 C 237.79717,190.8888 239,189.10623 239,187.03746 c 0,-6.39788 -5.5051,-6.04036 -13.49266,0.87625 -2.20404,1.90852 -0.7261,0.0917 3.28431,-4.03729 l 7.29166,-7.50732 -4.79166,0.0654 c -5.85865,0.08 -6.72063,-2.3488 -1.29165,-3.63955 1.925,-0.45767 8.49568,-3.36358 14.60152,-6.45757 l 11.10152,-5.62543 -1.42119,-2.84883 c -0.78165,-1.56685 -1.16266,-3.66334 -0.8467,-4.65886 0.31597,-0.99552 -0.55268,-4.14654 -1.93033,-7.00227 C 248.72499,140.43973 248.61049,140 249.88987,140 c 0.48943,0 1.84174,2.025 3.00513,4.5 2.37787,5.05871 2.12411,4.90405 5.51289,3.36002 1.91693,-0.87342 3.23026,-0.83833 5.61642,0.15005 3.04199,1.26003 3.24734,1.16444 8.82893,-4.11002 l 5.71451,-5.40005 -6.10906,6.18668 c -4.99698,5.06047 -5.92906,6.50833 -5.12024,7.95362 0.86499,1.54564 1.73648,0.95867 6.95851,-4.68668 4.48158,-4.8449 4.9671,-5.20725 1.94769,-1.45362 -2.21209,2.75 -4.94174,5.82978 -6.06588,6.84396 -1.12414,1.01417 -1.81459,2.44151 -1.53433,3.17186 0.73067,1.90409 -1.42119,5.46604 -3.84351,6.36212 -1.38601,0.51272 -2.14832,1.78212 -2.31084,3.84802 -0.34098,4.33454 -4.38105,9.18656 -12.77201,15.33885 -3.96994,2.91079 -9.77217,7.68698 -12.89384,10.61376 -3.12167,2.92679 -5.99753,5.32143 -6.39079,5.32143 -0.39327,0 1.37333,-1.83824 3.92576,-4.08499 z m 15.19888,-12.73692 c 9.92625,-7.26763 13.20258,-12.04718 11.43861,-16.68677 -1.43146,-3.76502 -4.68533,-3.1808 -16.42757,2.94953 -5.73187,2.99246 -12.02978,5.74254 -13.99536,6.11129 -1.96557,0.36874 -3.57377,1.13304 -3.57377,1.69844 0,1.78258 9.14235,0.0704 17.54392,-3.28559 9.7454,-3.89279 16.61771,-6.03552 15.96372,-4.97736 -0.26881,0.43495 -1.73049,1.08239 -3.24819,1.43876 -7.94036,1.8645 -19.02262,7.11216 -22.75945,10.77702 -3.54107,3.47288 -3.68495,3.78279 -1.25406,2.70112 2.34492,-1.04342 3.03861,-0.95699 4.75,0.59179 1.10223,0.99751 2.00406,2.69901 2.00406,3.78111 0,1.41374 0.3518,1.70021 1.25,1.01789 0.6875,-0.52226 4.42614,-3.27502 8.30809,-6.11723 z m 17.53497,-21.35197 C 268.17334,157.80759 266.61177,151 265.06847,151 263.52896,151 259,155.94319 259,157.62351 c 0,4.69793 5.89846,6.30325 8.09306,2.20261 z m 115.09444,18.521 c -5.67188,-1.9555 -10.13776,-3.7302 -9.92418,-3.94377 0.21358,-0.21358 5.06315,1.186 10.77683,3.11017 8.49846,2.862 11.2592,3.383 15.17418,2.86366 2.63212,-0.34916 4.78567,-0.95526 4.78567,-1.34688 0,-0.39162 -2.48842,-1.26893 -5.52983,-1.94956 C 392.26225,175.91526 375,168.58088 375,167.53363 c 0,-0.26573 3.4875,1.13431 7.75,3.11119 4.2625,1.97688 10.45,4.27798 13.75,5.11357 9.67092,2.44875 10.05381,4.58953 1,5.59108 -4.06674,0.44987 -6.92486,-0.11053 -15.3125,-3.00235 z"
       id="path2989"
       style="fill:#000000" />
  </g>
</svg>
