<?xml version="1.0" encoding="UTF-8" standalone="no"?>
<!-- Created with Inkscape (http://www.inkscape.org/) -->

<svg
   xmlns:dc="http://purl.org/dc/elements/1.1/"
   xmlns:cc="http://creativecommons.org/ns#"
   xmlns:rdf="http://www.w3.org/1999/02/22-rdf-syntax-ns#"
   xmlns:svg="http://www.w3.org/2000/svg"
   xmlns="http://www.w3.org/2000/svg"
   version="1.1"
   width="648"
   height="300"
   id="svg2">
  <metadata
     id="metadata8">
    <rdf:RDF>
      <cc:Work
         rdf:about="">
        <dc:format>image/svg+xml</dc:format>
        <dc:type
           rdf:resource="http://purl.org/dc/dcmitype/StillImage" />
        <dc:title></dc:title>
      </cc:Work>
    </rdf:RDF>
  </metadata>
  <defs
     id="defs6" />
  <g
     id="g2987">
    <path
       d="m 48.586055,222.36366 c -0.906928,-2.36342 1.228624,-6.41512 5.149442,-9.76984 3.332386,-2.85125 3.43103,-2.87015 5.218784,-1 1.773692,1.85544 1.668337,2.04601 -3.957877,7.15925 -4.691063,4.26334 -5.898822,4.94361 -6.410349,3.61059 z m 12.080131,-12.18003 c -1.553675,-1.71679 -1.027669,-2.42179 9.595012,-12.86015 12.721618,-12.50087 14.766106,-13.91442 17.78686,-12.29776 2.289342,1.22522 1.937478,4.05496 -0.916339,7.36933 C 85.163152,194.68131 63.76922,212 62.913552,212 c -0.331967,0 -1.343282,-0.81736 -2.247366,-1.81637 z m 556.844154,-3.1722 c -0.9898,-1.09372 -3.98454,-3.39063 -6.65499,-5.10425 -4.94727,-3.17466 -5.84591,-5.21349 -3.60535,-8.17984 1.12341,-1.48731 1.68005,-1.25016 5.49638,2.34162 3.55405,3.34493 8.25362,10.40042 8.25362,12.3912 0,1.17635 -1.7844,0.43555 -3.48966,-1.44873 z m -25.81442,-18.12175 c -11.37854,-7.8024 -11.7515,-8.17162 -10.34567,-10.24194 2.53729,-3.73659 7.73657,-2.55916 14.43776,3.2696 3.1416,2.73258 6.8283,5.84726 8.19267,6.9215 2.36131,1.85918 2.40943,2.10214 1,5.0491 L 603.5,196.98387 591.69592,188.88968 z M 475.41016,189.75 c 0.35388,-1.2375 2.28534,-13.05 4.29214,-26.25 2.0068,-13.2 3.81921,-24.21197 4.02758,-24.47104 0.55192,-0.6862 2.21457,2.2519 1.72375,3.04606 -0.22792,0.36879 -1.76454,9.66835 -3.41472,20.66569 -1.65018,10.99734 -3.26798,20.84209 -3.59512,21.87723 -0.5147,1.62861 -0.45251,1.6629 0.46178,0.25466 0.58113,-0.89507 2.41849,-10.70357 4.08304,-21.79667 2.92921,-19.52128 4.76007,-25.65281 7.4006,-24.78453 0.61093,0.20089 1.26641,1.45501 1.45661,2.78693 0.1902,1.33192 0.69227,2.87167 1.11572,3.42167 0.90394,1.17408 -6.92719,35.83693 -8.92395,39.5 -2.75124,5.04717 -5.4613,8 -7.34228,8 -1.52398,0 -1.79359,-0.47203 -1.28515,-2.25 z M 98.75,167.9199 c -2.456395,-1.43072 -2.176667,-3.59423 0.70919,-5.48512 1.35255,-0.88622 6.13147,-7.89268 10.61981,-15.56991 4.48834,-7.67722 8.39233,-13.72688 8.67553,-13.44368 0.97832,0.97833 -14.0701,33.20863 -16.25453,34.8135 -1.28557,0.94449 -1.63886,0.91484 -3.75,-0.31479 z m 7.25,-3.39573 c 0,-0.26171 0.89832,-1.94921 1.99626,-3.75 1.95119,-3.20024 1.99635,-3.2166 2,-0.72417 0.002,1.4025 -0.53626,3.09 -1.19626,3.75 -1.20302,1.20302 -2.8,1.61605 -2.8,0.72417 z m 72.1782,-4.02475 c -2.70483,-3.43864 -2.71454,-4.14201 -0.0767,-5.55376 1.5814,-0.84634 7.08847,-0.71327 22.25,0.53764 11.76502,0.97067 22.95702,1.38178 26.89846,0.98803 3.84393,-0.384 6.75,-0.28588 6.75,0.22791 0,0.49623 -1.95346,1.85129 -4.34102,3.01126 -3.84929,1.87013 -6.88752,2.1911 -26.8218,2.83354 l -22.48078,0.72451 -2.1782,-2.76913 z m 386.55376,-0.23719 c -1.17769,-2.75466 -4.80472,-7.42685 -12.98196,-16.72284 -2.0625,-2.34468 -3.75,-5.19223 -3.75,-6.3279 0,-1.13566 -0.7875,-2.27064 -1.75,-2.52216 -1.45261,-0.37961 -1.47587,-0.47704 -0.13684,-0.57333 1.56495,-0.11253 6.86955,5.21662 13.73709,13.80067 1.84264,2.3032 5.12781,5.36397 7.30038,6.80171 3.14707,2.08263 3.88907,3.13936 3.64975,5.19785 -0.4535,3.90087 -4.45116,4.1288 -6.06842,0.346 z m -8.10108,-4.11761 c -0.98063,-1.08359 -1.4067,-2.56524 -1.02427,-3.56185 0.57627,-1.50173 0.99483,-1.38074 3.48856,1.0084 2.8011,2.68363 2.99706,4.40883 0.5008,4.40883 -0.7073,0 -2.04159,-0.83492 -2.96509,-1.85538 z M 149.5,154.83574 c -1.1,-0.60689 -3.21875,-2.23443 -4.70833,-3.61676 C 141.2307,147.91442 130.23245,140.33473 126.75,138.78517 123.96661,137.54667 123.06303,136 125.12287,136 c 0.61757,0 5.90507,2.41378 11.75,5.36395 5.84492,2.95017 12.29313,5.90297 14.32935,6.56178 4.4144,1.42826 5.99303,4.72712 3.2292,6.74807 -2.15724,1.57742 -2.35413,1.58389 -4.93142,0.16194 z m -9.4721,-3.30212 c -1.97732,-2.38253 -0.78809,-3.75438 1.7273,-1.99253 1.23464,0.86478 2.2448,1.9968 2.2448,2.51561 0,1.45843 -2.6132,1.1143 -3.9721,-0.52308 z M 401.25,136.33772 c -2.26643,-0.91452 -1.30483,-2.06714 2.19891,-2.63572 1.8969,-0.30782 4.98455,-1.28839 6.86144,-2.17903 3.82064,-1.81301 6.44206,-6.17056 4.73752,-7.8751 -1.78903,-1.78903 -1.17262,-2.41997 2.20213,-2.25403 4.36841,0.2148 4.69465,3.00203 0.95556,8.1637 -2.23582,3.08646 -4.10784,4.36163 -8.38014,5.70836 -5.73393,1.80746 -6.51147,1.90464 -8.57542,1.07182 z m 85.41667,-1.00439 c -1.22332,-1.22332 -0.68805,-2.19221 1.58333,-2.86598 6.5113,-1.93148 11.86316,-8.04331 8.73571,-9.97618 -0.55786,-0.34478 -1.90451,-2.37185 -2.99256,-4.5046 -2.09143,-4.09955 -1.19788,-6.23129 1.62866,-3.88547 1.89916,1.57616 6.37819,10.27515 6.37819,12.38746 0,0.85528 -2.76977,3.34524 -6.15504,5.53325 -6.1089,3.94837 -7.89648,4.59333 -9.17829,3.31152 z M 119.75,131.31067 c -1.54752,-0.4044 -1.75,-1.88632 -1.75,-12.8077 0,-6.79272 -0.52246,-14.6138 -1.16102,-17.3802 C 115.55212,95.547792 116.58978,93 120.1472,93 c 3.26227,0 4.07563,4.312971 2.3703,12.56898 -2.04406,9.89594 -2.0538,23.28799 -0.0175,24.06939 0.825,0.31659 1.5,0.97746 1.5,1.46862 0,0.92666 -1.25355,0.98674 -4.25,0.20368 z m 16.25,-1.1944 c 0,-0.53589 2.5875,-1.69723 5.75,-2.58074 17.83022,-4.98128 26.43823,-9.26322 25.49664,-12.68297 -0.285,-1.0351 4.17801,0.36045 4.98805,1.55972 2.68834,3.98014 -0.91576,6.0174 -19.23469,10.87263 -12.36774,3.27793 -17,4.04943 -17,2.83136 z m 130.86271,-1.29158 C 263.42211,126.041 260.92349,113 263.83074,113 c 0.38278,0 1.25361,2.34759 1.93519,5.21686 0.68157,2.86928 1.80576,5.7834 2.49819,6.47583 1.78371,1.78371 8.55093,0.52142 9.80922,-1.82972 1.59275,-2.97609 2.93173,-2.15773 2.26942,1.38703 -0.81015,4.33603 -1.05819,4.52681 -6.84276,5.26302 -3.48106,0.44304 -5.49739,0.23393 -6.63729,-0.68833 z M 105.5,119.53911 c -6.05,-5.3591 -11.642306,-10.35614 -12.427346,-11.10453 -1.152712,-1.09889 -1.198953,-1.86197 -0.240327,-3.96592 1.674609,-3.67537 5.165675,-2.97446 7.390833,1.48386 0.94774,1.89889 5.14275,7.18892 9.32224,11.75562 4.35872,4.76253 7.46168,9.00065 7.27684,9.93895 -0.23215,1.17849 -3.39764,-1.08835 -11.32224,-8.10798 z m 364.60507,4.37611 c -1.31721,-0.5269 -3.22971,-0.69305 -4.25,-0.36922 -1.24709,0.39581 -1.85507,0.0944 -1.85507,-0.9196 0,-2.37233 1.62772,-2.80373 6.06776,-1.60815 3.93587,1.05982 4.31184,0.95356 8.68719,-2.45525 2.5153,-1.95965 4.96098,-3.563 5.43484,-3.563 2.14248,0 -2.63522,6.18659 -6.17056,7.99019 -4.40409,2.2468 -4.56333,2.26541 -7.91416,0.92503 z M 295.54258,119.75 c 0.38582,-1.7875 1.56109,-4.94802 2.61171,-7.02338 1.58584,-3.13263 1.73435,-4.42646 0.87457,-7.61945 -0.5696,-2.11534 -1.93412,-4.9883 -3.03225,-6.384352 -2.50431,-3.183714 -2.62916,-5.988451 -0.24661,-5.540284 1.99707,0.375657 8.17946,11.236016 8.22188,14.443036 0.0343,2.59481 -4.7222,13.5912 -6.31922,14.60912 -2.22543,1.41845 -2.80519,0.73575 -2.11008,-2.48469 z M 161,119.2 c 0,-1.03498 2.16502,-3.2 3.2,-3.2 1.46453,0 0.82479,2.77651 -0.78179,3.39301 C 161.34794,120.18745 161,120.15968 161,119.2 z m 198.82951,-0.14745 c -8.06877,-0.3039 -14.92658,-0.81036 -15.23958,-1.12547 -0.313,-0.3151 -0.84674,-1.96111 -1.18607,-3.65778 -0.47847,-2.39236 -0.2002,-3.30192 1.23958,-4.05171 2.33407,-1.21552 40.67415,-2.62384 45.71029,-1.67905 2.09537,0.39309 3.56948,1.19638 3.3599,1.83091 -0.24736,0.74896 -7.94077,1.51876 -22.79351,2.2807 L 348.5,113.8003 l 21.61736,-0.50632 c 21.68542,-0.50792 24.95442,-0.13352 27.11733,3.10572 2.58814,3.8761 -0.0187,4.06099 -37.40518,2.65285 z m -75.60301,-1.2137 c 1.61007,-1.02183 7.50282,-1.08632 8.11809,-0.0888 0.25444,0.4125 -1.75458,0.78309 -4.46449,0.82354 -2.86261,0.0427 -4.3935,-0.26511 -3.6536,-0.73469 z m 130.38049,-0.42064 c -0.84975,-2.2144 -0.75777,-7.20717 0.14301,-7.7628 0.4125,-0.25444 0.78287,1.744 0.82304,4.44099 0.0792,5.31398 -0.0419,5.73017 -0.96605,3.32181 z m 68.45835,-6.55116 c -3.33437,-5.48294 1.34823,-8.24908 5.85085,-3.45626 2.92442,3.1129 2.40713,5.99207 -1.15047,6.40329 -2.16223,0.24993 -3.12222,-0.35196 -4.70038,-2.94703 z M 103.2357,109.73899 C 101.66848,107.77943 100.75647,104 101.85082,104 c 2.49734,0 4.14918,1.41249 4.14918,3.54797 0,2.79991 -1.39379,3.90464 -2.7643,2.19102 z M 390.18253,106.25 c 0.37566,-1.99707 11.23602,-8.179463 14.44304,-8.221884 2.59481,-0.03432 13.5912,4.722204 14.60912,6.319224 0.40408,0.63396 0.74158,1.52591 0.75,1.98212 0.0218,1.18018 -5.80948,-0.23172 -10.25807,-2.48375 -3.13263,-1.58584 -4.42646,-1.73435 -7.61945,-0.87457 -2.11534,0.5696 -4.9883,1.93412 -6.38435,3.03225 -3.18372,2.50431 -5.98845,2.62916 -5.54029,0.24661 z m -266.57247,-2 c 0.35648,-1.5125 1.02099,-3.15843 1.47667,-3.65762 1.27278,-1.394306 3.91327,1.32499 3.91327,4.03006 0,1.9784 -0.50686,2.37756 -3.01905,2.37756 -2.78398,0 -2.96859,-0.21413 -2.37089,-2.75 z M 283,88.567388 c 0,-11.704839 0.12149,-12.471171 2.07536,-13.091306 1.14145,-0.362282 2.23886,-0.4952 2.43868,-0.295374 0.30356,0.303559 0.74726,17.710489 0.54797,21.497863 C 287.98691,98.105839 285.21865,101 283.92857,101 283.40694,101 283,95.551559 283,88.567388 z m -99.69138,9.228121 c -0.70131,-0.897948 0.0398,-7.279591 2.41493,-20.795509 2.3479,-13.360844 3.44207,-22.726992 3.47545,-29.75 0.0268,-5.6375 0.39072,-10.25 0.80872,-10.25 0.418,0 1.77967,2.512328 3.02595,5.582952 2.14913,5.29513 2.23096,6.416424 1.58729,21.75 -1.10876,26.412771 -1.46462,28.810634 -4.66145,31.40986 -3.76261,3.059239 -5.45647,3.582023 -6.65089,2.052697 z M 290.2,95.8 c -0.7681,-0.768103 -1.2,-4.685205 -1.2,-10.883423 0,-9.421578 0.0648,-9.695802 2.39492,-10.141241 2.09152,-0.399819 2.47018,-0.0029 2.989,3.133423 C 295.3174,83.551784 295.09985,91.820258 294,92.5 c -0.55,0.339919 -1,1.491476 -1,2.559017 0,2.212331 -1.05062,2.490364 -2.8,0.740983 z M 70.891565,85.285539 c -3.025462,-2.632046 -7.051253,-5.97138 -8.946202,-7.420742 -3.419748,-2.615611 -3.4312,-2.650925 -1.540375,-4.75 C 61.452731,71.951659 62.654595,71 63.075796,71 c 1.521745,0 16.252063,9.541297 17.28683,11.197231 1.342572,2.148514 -0.269361,7.161127 -2.437089,7.578593 -0.843223,0.16239 -4.008511,-1.858238 -7.033972,-4.490285 z M 51,69.34269 C 47.975,66.856236 42.4625,62.839896 38.75,60.417489 32.293789,56.20481 30.438817,54 33.350777,54 c 3.185355,0 8.778307,2.723575 17.979688,8.755489 l 9.830464,6.444307 -2.254778,2.400102 c -1.240129,1.320056 -2.288838,2.369393 -2.330465,2.331859 C 56.534059,73.894224 54.025,71.829144 51,69.34269 z m 233.43486,-9.439498 c 0.39469,-7.775324 0.95794,-14.763241 1.25168,-15.528704 0.757,-1.972714 5.05749,-2.831817 6.82645,-1.363711 1.18428,0.982867 1.48701,4.037574 1.48701,15.004679 0,13.88038 -0.28023,14.976379 -3.83179,14.986436 -0.36751,0.001 -0.53091,-5.292728 -0.36311,-11.763932 0.16781,-6.471203 -0.0572,-12.748607 -0.5,-13.949786 -0.4745,-1.287164 -0.8051,3.391593 -0.8051,11.39412 0,13.404065 -0.0306,13.589487 -2.39137,14.467967 l -2.39138,0.889885 0.71761,-14.136954 z M 118.09085,70.773861 C 116.47248,68.182443 116.18394,63.671946 115.62644,32.25 115.39956,19.4625 115.5558,9 115.97364,9 c 1.51778,0 5.02643,10.383219 5.02932,14.883353 0.002,2.539156 0.76247,11.591647 1.69075,20.116647 0.92829,8.525 1.67921,17.835813 1.66871,20.690695 -0.0278,7.550501 -3.3455,10.768558 -6.27157,6.083166 z"
       id="path2997"
       style="fill:#fefefe" />
    <path
       d="M 0,150 0,0 l 324,0 324,0 0,150 0,150 -324,0 -324,0 0,-150 z m 591.75,134.25026 -44.75,-0.27085 0,-72.1768 0,-72.17679 3.00866,2.88248 c 2.45206,2.34922 2.9059,3.44757 2.4532,5.93709 -0.71625,3.93885 4.52887,10.81212 7.89749,10.34894 1.68032,-0.23104 2.07758,0.16469 1.84735,1.84024 -0.20688,1.50556 1.1645,3.42097 4.65381,6.5 2.72091,2.40099 6.75777,6.67341 8.97079,9.49428 2.55148,3.25228 8.16639,7.96274 15.34619,12.87419 6.22738,4.25995 11.46872,7.87317 11.64742,8.0294 0.1787,0.15623 -0.90712,2.14577 -2.41293,4.4212 -1.91074,2.88733 -2.97429,3.75456 -3.52053,2.87072 -0.43049,-0.69654 -0.93489,-1.05447 -1.1209,-0.7954 -0.74832,1.04228 -2.93041,8.14452 -2.60293,8.472 0.19318,0.19317 2.03449,-0.17563 4.0918,-0.81956 3.76192,-1.17746 5.0238,-2.6814 2.24982,-2.6814 -1.10957,0 -0.70409,-1.27849 1.58578,-5 1.69209,-2.75 3.29435,-5 3.56058,-5 0.88565,0 9.80323,6.25641 12.60099,8.84063 1.96504,1.81504 3.06512,2.23766 3.83102,1.47176 1.64034,-1.64034 -2.53947,-8.99131 -7.84245,-13.7924 l -4.51322,-4.08609 1.63403,-5.62086 C 612.24526,179.34851 612.28704,179 611.18262,179 c -0.44956,0 -1.60258,2.49096 -2.56228,5.53548 l -1.74491,5.53547 -5.16112,-4.10935 c -7.44809,-5.93026 -18.36927,-16.77549 -24.67569,-24.5041 -3.00376,-3.68115 -6.47824,-7.15631 -7.72107,-7.72258 -2.0458,-0.93213 -5.23045,-7.51213 -4.22761,-8.73492 0.22553,-0.275 1.71867,-0.5 3.31809,-0.5 1.59941,0 3.11515,-0.60972 3.36831,-1.35494 0.32879,-0.96787 -0.12082,-1.1705 -1.57387,-0.70932 -1.11879,0.35509 -2.3349,0.15901 -2.70247,-0.43574 -0.37854,-0.61249 -1.60739,-0.78199 -2.83416,-0.39091 -5.14358,1.63972 -7.12606,0.99223 -12.43379,-4.06093 -8.90136,-8.47444 -8.46388,-11.01992 -8.28713,48.21871 L 544.09778,237 533.04889,237 C 526.34963,237 522,237.39367 522,238 c 0,0.60606 4.33333,1 11,1 l 11,0 0,22.5 0,22.5 -46.53638,0 -46.53638,0 0.28638,-74.50026 c 0.28418,-73.92901 0.27104,-74.50027 -1.71362,-74.50044 -1.97779,-1.8e-4 -1.99666,0.56617 -1.69922,51.00026 L 448.10156,237 437.05078,237 C 430.35026,237 426,237.39366 426,238 c 0,0.60606 4.33333,1 11,1 l 11,0 0,22.5 0,22.5 -56.03638,0 -56.03638,0 0.28638,-74.50026 c 0.28418,-73.92901 0.27104,-74.50027 -1.71362,-74.50044 -1.97779,-1.8e-4 -1.99666,0.56617 -1.69922,51.00026 L 333.10156,237 322.05078,237 C 315.35026,237 311,237.39366 311,238 c 0,0.60606 4.33333,1 11,1 l 11,0 0,22.5 0,22.5 -45.03638,0 -45.03638,0 0.28638,-74.50026 c 0.28418,-73.92901 0.27104,-74.50027 -1.71362,-74.50044 -1.97779,-1.8e-4 -1.99666,0.56617 -1.69922,51.00026 L 240.10156,237 l -9.05078,0 C 225.68359,237 222,237.40699 222,238 c 0,0.59259 3.66667,1 9,1 l 9,0 0,22.5 0,22.5 -58.5,0 -58.5,0 0,-24.28037 0,-24.28037 10.0491,-1.20174 c 16.82655,-2.01224 32.7759,-8.25099 45.4509,-17.77859 5.40956,-4.06628 6.03145,-4.31077 6.31955,-2.48452 0.49847,3.15974 1.91371,2.3905 3.17257,-1.72441 0.63097,-2.0625 1.64155,-4.76182 2.24573,-5.99849 1.75699,-3.59635 0.23157,-3.74469 -6.69373,-0.65095 -7.12121,3.18126 -8.51041,4.9909 -3.04412,3.96542 1.925,-0.36113 3.5,-0.44936 3.5,-0.19606 0,0.25331 -2.8125,2.58746 -6.25,5.18701 -12.76798,9.65556 -30.82819,16.5512 -47.24522,18.03887 L 123,233.27586 l 0,-46.57891 c 0,-30.07776 0.35545,-46.7986 1.00336,-47.19902 0.55184,-0.34106 4.06992,1.28011 7.81795,3.6026 l 6.8146,4.22272 -1.54239,4.28918 c -1.48715,4.13561 -1.45886,4.40215 0.79035,7.44437 2.15297,2.91204 2.20755,3.28035 0.70826,4.77964 -1.37122,1.37122 -1.9489,1.42184 -3.70567,0.32472 -2.70391,-1.68861 -3.97944,-0.43354 -1.44376,1.4206 2.84359,2.07928 5.30233,1.737 7.08688,-0.98656 0.86663,-1.32264 2.68845,-2.68409 4.04849,-3.02544 1.36004,-0.34135 3.33298,-1.48081 4.3843,-2.53213 1.52569,-1.52569 2.47929,-1.72679 4.72457,-0.99633 1.54718,0.50335 9.06729,2.10251 16.71134,3.55369 13.30332,2.52557 14.78022,2.6072 34.5,1.90686 19.05372,-0.67668 20.96363,-0.91467 25.41821,-3.16729 6.73236,-3.40447 5.67059,-4.90545 -3.20746,-4.53426 -7.95789,0.33271 -43.23762,-2.30253 -52.56656,-3.92649 -3.27663,-0.5704 -7.32663,-1.75252 -9,-2.62695 -1.67336,-0.87442 -5.65762,-1.65797 -8.85392,-1.74121 -4.93452,-0.12851 -7.57521,-1.03844 -17.5,-6.03015 -6.4287,-3.23334 -11.83012,-6.21278 -12.00316,-6.62097 -0.17303,-0.4082 -0.96053,-0.49431 -1.75,-0.19136 -0.78946,0.30294 -1.43539,0.0902 -1.43539,-0.47285 0,-0.56301 0.53437,-1.20178 1.1875,-1.41949 0.76429,-0.25476 0.40789,-1.17544 -1,-2.58333 -1.87666,-1.87666 -2.18556,-3.28875 -2.17385,-9.9375 0.0199,-11.2674 0.42712,-12.25 5.0773,-12.25 3.30462,0 4.08809,-0.44555 5.46475,-3.1077 0.95601,-1.84873 1.35408,-4.11561 0.98262,-5.595657 -0.79949,-3.185398 1.13957,-5.808857 3.09436,-4.186529 C 137.38471,95.73424 138,96.864789 138,97.622445 138,98.3801 138.45,99 139,99 c 1.25762,0 1.26418,-1.174963 0.0248,-4.4349 -1.06781,-2.808561 -3.51748,-3.2661 -6.27593,-1.172193 -0.96314,0.731114 -2.76314,1.135576 -4,0.898803 -2.1948,-0.420155 -2.24537,-0.7231 -2.1051,-12.611103 C 126.72277,74.981273 126.18284,65.45 125.44388,60.5 123.82526,49.657488 122,30.167034 122,23.72556 122,16.51081 116.61746,5.5229378 114.66404,8.75 c -0.24969,0.4125 -0.0908,15.375 0.35312,33.25 0.53728,21.634943 0.45771,34.729142 -0.23802,39.167899 -0.77782,4.962513 -0.72184,8.543162 0.21888,14 0.69521,4.032656 1.43787,12.282101 1.65037,18.332101 l 0.38636,11 -6.13183,-6.5 c -5.35808,-5.6798 -5.86474,-6.54036 -4.01518,-6.81984 2.82064,-0.42621 4.43646,-3.68996 3.7354,-7.545 -0.31358,-1.72434 -0.7719,-5.012492 -1.01849,-7.307009 -0.26567,-2.471993 -1.32906,-5.052565 -2.60983,-6.333334 -2.52082,-2.520819 -4.07484,-1.849231 -1.73327,0.749052 0.87045,0.965872 1.89147,2.993631 2.26895,4.506131 0.63526,2.545438 0.46118,2.75 -2.3403,2.75 -1.66465,0 -3.62593,0.225702 -4.35841,0.50156 C 100.0769,98.785857 98.799339,97.767821 97.8825,96.151389 95.947202,92.739363 79.274839,79.270446 70.939461,74.385215 67.672757,72.470652 65,70.479208 65,69.959782 c 0,-0.519426 2.241915,-2.410369 4.982033,-4.202096 2.740118,-1.791727 4.990118,-3.854978 5,-4.585002 0.01039,-0.767378 -2.688198,0.564429 -6.396915,3.157007 L 62.170236,68.814013 51.796513,62.010484 C 40.779787,54.785245 33.734817,51.865183 31.855036,53.744964 c -1.556546,1.556546 -0.357098,2.959373 6.005266,7.023521 3.101834,1.981389 8.456628,5.813606 11.899543,8.516038 l 6.259845,4.913514 -5.0398,5.514345 c -6.905471,7.555685 -10.498524,12.98356 -15.112971,22.830528 -6.595763,14.075 -8.19265,21.66839 -8.19265,38.95709 0,18.23894 1.749257,25.80197 9.647608,41.71213 4.141365,8.34222 5.001925,10.83337 3.889776,11.26015 -1.61632,0.62024 -1.432055,2.82963 1.21162,14.52772 0.932218,4.125 4.586583,21.675 8.120812,39 3.534229,17.325 6.663997,32.50371 6.95504,33.73046 l 0.52917,2.23046 -21.764148,0.29008 C 24.293866,284.41055 154.45,284.5366 325.5,284.5311 c 171.05,-0.005 290.8625,-0.13187 266.25,-0.28084 z M 61,283.67933 C 61,283.04003 53.150041,244.4274 52.475754,241.75 L 51.783184,239 85.891592,239 120,239 l 0,22.5 0,22.5 -29.5,0 C 74.275,284 61,283.8557 61,283.67933 z M 51.559308,235.75 c -0.207857,-0.6875 -0.849711,-3.275 -1.426342,-5.75 -1.026781,-4.40712 -0.971895,-4.57913 2.659307,-8.33376 2.03925,-2.10856 4.889669,-4.68714 6.334265,-5.73018 l 2.626537,-1.89642 8.018251,5.36692 C 82.005064,227.59507 97.46781,232.99601 113.25,234.59311 128.26238,236.11231 118.2007,237 85.968615,237 59.611733,237 51.852004,236.71811 51.559308,235.75 z m 53.782262,-4.22947 c -3.93713,-0.71443 -9.562132,-2.08025 -12.499997,-3.03515 -7.101343,-2.30816 -21.550612,-9.75345 -25.643667,-13.21343 L 63.91877,212.5 l 10.17922,-8 c 17.206777,-13.52306 28.49645,-26.81487 30.36502,-35.75 0.3163,-1.5125 1.17178,-2.75 1.90105,-2.75 2.4794,0 4.72419,-3.61986 4.48131,-7.22638 -0.28922,-4.29452 7.04491,-21.55007 8.31124,-19.55446 0.44702,0.70446 0.81966,22.09334 0.82808,47.53084 L 120,233 l -3.75,-0.0902 c -2.0625,-0.0496 -6.97129,-0.67479 -10.90843,-1.38922 z M 47.630545,217 c -1.512854,-3.76766 -3.353573,-15.38401 -2.77409,-17.50664 0.60678,-2.22262 0.95527,-2.00972 6.100086,3.7266 l 5.456541,6.08389 -3.55407,3.09808 c -1.954738,1.70394 -3.795291,3.77307 -4.090116,4.59807 -0.476485,1.33333 -0.602969,1.33333 -1.138351,0 z m 5.733783,-14.21671 C 43.298412,192.42286 35.630453,178.3412 31.428651,162.5 c -2.603567,-9.8157 -2.603567,-32.1843 0,-42 4.129194,-15.56746 12.665853,-31.269204 21.95885,-40.389591 l 4.426364,-4.344147 4.843067,3.690653 c 8.433245,6.426542 21.420391,18.705316 23.842261,22.541805 1.283905,2.03384 8.880326,9.49649 16.880937,16.58368 l 14.54656,12.88579 -3.14842,5.5159 c -1.73163,3.03375 -4.06851,7.16695 -5.19306,9.18489 -1.86679,3.34984 -2.47352,3.6979 -6.97518,4.00151 -4.144376,0.2795 -5.357023,-0.0663 -7.605256,-2.16898 C 93.533682,146.62568 92.092405,144.825 91.801935,144 c -0.290469,-0.825 -0.847914,-1.20432 -1.238767,-0.84293 -0.948199,0.87672 2.022002,6.5114 4.022476,7.63092 1.033123,0.57817 1.707354,2.64691 1.934827,5.93664 0.30155,4.36102 0.0036,5.37133 -2.1859,7.4123 -1.394271,1.29969 -3.793517,4.84579 -5.331657,7.88022 -3.808848,7.51407 -7.697916,12.40614 -20.0042,25.16335 l -10.501287,10.88607 -5.133099,-5.28328 z M 481.2331,189.75 c 1.35876,-1.7875 3.15618,-4.6 3.99427,-6.25 1.32639,-2.61136 8.67763,-32.65136 10.76746,-44 1.03082,-5.59777 2.04776,-7.72217 4.70201,-9.82258 C 501.96358,128.675 503,127.19754 503,126.39418 c 0,-2.5114 -4.86736,-11.20076 -7.30341,-13.03828 -2.22125,-1.67549 -2.26286,-1.93563 -0.92839,-5.805 0.9946,-2.88388 1.09874,-4.52944 0.3615,-5.71197 -0.78191,-1.2542 -0.65427,-1.80739 0.52112,-2.25843 1.03554,-0.397374 1.30986,-1.180405 0.81942,-2.338929 -0.4055,-0.957864 -0.70516,-2.529071 -0.66591,-3.491571 0.0393,-0.9625 -0.3241,-1.75 -0.80746,-1.75 -1.61164,0 -2.10184,1.935338 -1.00793,3.979333 1.12952,2.110525 0.2264,2.5711 -4.28131,2.183393 -0.9858,-0.08479 -3.33229,0.489258 -5.21441,1.275659 -4.56677,1.908115 -5.54423,5.643645 -2.79168,10.668795 l 2.02248,3.69232 -4.79513,3.6568 c -4.62292,3.52549 -4.94614,3.61614 -9.00046,2.52443 -3.47941,-0.93691 -4.46399,-0.87375 -5.70363,0.3659 -1.91532,1.91532 -0.83364,5.10098 1.43625,4.22994 0.90431,-0.34701 3.11986,-0.14392 4.92346,0.45132 2.73918,0.90401 3.93943,0.74546 7.28763,-0.96266 l 4.00836,-2.04491 0.48902,4.23984 c 0.26896,2.33191 0.47806,5.36484 0.46467,6.73984 -0.0356,3.65817 -6.79718,49.84438 -7.94543,54.27307 -0.53805,2.07519 -0.70658,4.21269 -0.3745,4.75 1.20627,1.9518 4.30394,0.90381 6.71884,-2.27307 z m 27.99196,-50.5 C 512.66281,134.44075 515,126.16922 515,118.81193 c 0,-3.58283 -1.74864,-8.94238 -4.58793,-14.06193 -1.37285,-2.47539 -1.36971,-2.75 0.0314,-2.75 2.60908,0 1.73435,-1.91942 -1.19346,-2.618835 -1.5125,-0.361317 -3.32337,-1.109016 -4.02417,-1.661553 -2.06057,-1.624656 -2.44885,-0.196011 -1.13685,4.183028 1.2957,4.32467 2.53793,5.26409 3.10401,2.34736 0.52334,-2.69651 5.04998,8.54428 5.53709,13.75 0.54244,5.79701 -1.94683,16.22719 -4.91215,20.58215 -1.27486,1.8723 -2.65543,3.40726 -3.06793,3.41102 -0.4125,0.004 -0.75,0.45683 -0.75,1.00683 0,2.19707 2.00004,0.76164 5.22506,-3.75 z m -99.6532,-2.84121 c 5.54218,-1.78948 11.24869,-7.27565 12.12705,-11.65879 0.3031,-1.5125 1.13722,-2.75 1.85361,-2.75 0.71639,0 2.40827,-1.41288 3.75974,-3.13974 l 2.45722,-3.13975 1.31615,3.63975 C 432.29993,122.71835 434,124.28567 434,122.04705 434,118.55801 425.65307,108 422.89471,108 c -0.51567,0 -1.47951,-1.18939 -2.14186,-2.64309 C 419.51,102.62915 408.817,97 404.87827,97 c -2.76853,0 -13.48394,5.59893 -15.08205,7.88055 -1.22869,1.75419 -3.23229,1.98975 -22.63276,2.66082 -24.18863,0.8367 -26.00068,1.37031 -24.70386,7.27469 0.38663,1.76032 1.53881,3.6479 2.56039,4.19464 1.56676,0.8385 53.53444,1.58872 63.37291,0.91486 2.02173,-0.13847 3.44544,0.52046 4.72776,2.18815 2.34015,3.04342 2.32675,3.27142 -0.37066,6.30602 -1.33475,1.50159 -4.28388,3.02774 -7.25,3.75179 -6.40515,1.56355 -7.54928,2.55772 -5.05887,4.3958 2.4409,1.80155 3.09537,1.79018 9.13073,-0.15853 z M 405,104 c -1.33333,-0.86167 -1.33333,-0.96937 0,-0.96937 0.825,0 2.175,0.43621 3,0.96937 1.33333,0.86167 1.33333,0.96937 0,0.96937 -0.825,0 -2.175,-0.43621 -3,-0.96937 z M 283.70295,135.80185 C 286.66733,134.53203 294,127.47702 294,125.89471 c 0,-0.51567 1.18939,-1.47951 2.64309,-2.14186 C 299.37246,122.50927 305,111.81614 305,107.87354 305,105.56887 300.51659,96.337605 298.0191,93.5 c -1.26953,-1.442427 -1.9229,-4.449604 -2.3436,-10.786666 l -0.58332,-8.786667 3.70391,0.655254 c 8.91428,1.577013 13.18176,5.763441 11.59936,11.379046 -0.55649,1.974873 -0.8073,2.150192 -1.12878,0.789033 C 309.03935,85.7875 308.46699,85 307.99477,85 307.1301,85 303,90.295684 303,91.40437 303,91.731967 304.9774,92 307.39421,92 c 4.79952,0 4.53448,0.463824 4.81634,-8.42845 0.10481,-3.306577 -0.40422,-4.369862 -3.2156,-6.716907 -1.86321,-1.555479 -5.69575,-3.315624 -8.66754,-3.980679 L 295,71.68174 295,57.995858 c 0,-12.32209 -0.19528,-13.862612 -1.95971,-15.459392 -2.32218,-2.101552 -6.48568,-1.441289 -7.93007,1.257584 -0.52113,0.973739 -1.2741,8.204268 -1.67326,16.067843 -0.71861,14.156644 -0.75109,14.307041 -3.29927,15.275856 -7.21498,2.74313 -14.17495,11.213461 -15.6427,19.037282 -0.75449,4.021747 1.30755,9.151479 4.11115,10.227329 2.74797,1.05449 2.68738,-0.0179 -0.16199,-2.8673 -2.3212,-2.321204 -2.59159,-3.211534 -2.03411,-6.697826 0.35362,-2.211421 1.51387,-5.72793 2.57834,-7.814465 C 270.8902,83.294909 278.20256,77 280.63115,77 c 1.48329,0 2.37653,32.33032 1.04989,38 -1.14043,4.87387 -4.67498,8.58868 -8.93172,9.38725 -4.13431,0.7756 -4.27513,0.62583 -6.09398,-6.48133 -1.51959,-5.93781 -2.94718,-7.09765 -4.70147,-3.81973 -0.94729,1.77003 -0.82416,3.38806 0.6211,8.16142 2.2808,7.53298 4.6012,9.25099 11.17321,8.27262 2.6135,-0.38907 5.20182,-1.07479 5.75182,-1.52382 0.56458,-0.46094 2.2529,0.18469 3.87745,1.48277 l 2.87744,2.29919 -3.62744,1.31171 c -1.9951,0.72143 -3.62745,1.6713 -3.62745,2.11081 0,1.11908 1.44517,0.99646 4.70295,-0.39904 z M 297.03063,111 c 0,-0.825 0.43621,-2.175 0.96937,-3 0.86167,-1.33333 0.96937,-1.33333 0.96937,0 0,0.825 -0.43621,2.175 -0.96937,3 -0.86167,1.33333 -0.96937,1.33333 -0.96937,0 z m -121.88959,22.5898 c 0.86834,-1.9058 0.75921,-2.89412 -0.52144,-4.72251 -2.75594,-3.93466 -2.07204,-6.59582 2.26349,-8.80765 2.75029,-1.40309 5.22995,-4.08617 8.5,-9.19728 2.5393,-3.96895 4.61691,-7.82957 4.61691,-8.57916 0,-0.74958 0.87418,-3.076416 1.94263,-5.170743 1.49489,-2.930221 2.18633,-7.469127 3,-19.693095 1.64497,-24.712905 1.45675,-29.459271 -1.42679,-35.979462 -3.63831,-8.226862 -4.98671,-6.880797 -5.15285,5.143944 -0.11629,8.416054 -4.96002,42.231473 -6.98364,48.754757 -0.84539,2.725146 -14.09079,17.915869 -17.19618,19.721729 -1.47574,0.85819 -3.12079,2.53039 -3.65566,3.71601 -0.72951,1.61707 -3.47787,2.9324 -11,5.26447 -13.27496,4.11559 -14.76325,4.76571 -14.24725,6.22354 0.58988,1.66653 5.36722,1.22311 15.94656,-1.48012 8.47432,-2.16536 8.76614,-2.17612 10.08544,-0.37186 1.40454,1.92082 5.49769,2.42222 9.29983,1.13921 2.40135,-0.81032 4.20446,2.03187 2.42069,3.81564 -1.3208,1.3208 -1.32646,2.63278 -0.0113,2.63278 0.56179,0 1.51561,-1.08459 2.1196,-2.4102 z"
       id="path2995"
       style="fill:#bfbfbf" />
    <path
       d="M 105.34157,233.52053 C 84.992966,229.82808 67.157109,220.2669 53.191455,205.5647 44.599235,196.51933 40.842758,191.07525 35.866919,180.45709 29.271156,166.38209 27.674269,158.7887 27.674269,141.5 c 0,-17.2887 1.596887,-24.88209 8.19265,-38.95709 4.975839,-10.618158 8.732316,-16.06224 17.324536,-25.107613 7.242796,-7.624781 21.809803,-18.476607 21.806757,-16.245145 -9.84e-4,0.720416 -2.138484,2.653677 -4.75,4.296136 C 63.044639,70.016823 49.805874,83.195498 44.472001,91.145502 39.054358,99.220361 34.13846,110.28376 31.428651,120.5 c -2.603567,9.8157 -2.603567,32.1843 0,42 7.314854,27.57771 25.20981,49.2915 50.642973,61.45034 14.07046,6.72666 21.953736,8.38146 39.928376,8.38146 18.20103,0 25.97048,-1.66813 40.5,-8.69548 7.74836,-3.74757 21.5,-12.87252 21.5,-14.2664 0,-0.2533 -1.575,-0.16507 -3.5,0.19606 -5.46629,1.02548 -4.07709,-0.78416 3.04412,-3.96542 6.9253,-3.09374 8.45072,-2.9454 6.69373,0.65095 -0.60418,1.23667 -1.61476,3.93599 -2.24573,5.99849 -1.25886,4.11491 -2.6741,4.88415 -3.17257,1.72441 -0.2881,-1.82625 -0.90999,-1.58176 -6.31955,2.48452 -20.07993,15.09377 -48.05236,21.61735 -73.15843,17.0616 z M 593,212.42799 c 0,-0.87272 2.23799,-7.65727 2.77055,-8.39903 0.18601,-0.25907 0.67747,0.0779 1.09213,0.74885 1.57988,2.55629 10.20854,-13.12584 12.67042,-23.02781 0.37604,-1.5125 1.08493,-2.75 1.57531,-2.75 1.18481,0 1.14859,0.34352 -0.66917,6.34609 -1.73801,5.73923 -4.34523,11.01688 -9.18,18.58259 -2.37163,3.71126 -2.84095,5.07132 -1.75,5.07132 2.32575,0 1.74973,1.71068 -0.75924,2.25483 -1.2375,0.26839 -3.0375,0.81899 -4,1.22356 -0.9625,0.40457 -1.75,0.38189 -1.75,-0.0504 z M 504,143 c 0,-0.55 0.3375,-1.00307 0.75,-1.00683 0.4125,-0.004 1.79307,-1.53872 3.06793,-3.41102 2.96532,-4.35496 5.45459,-14.78514 4.91215,-20.58215 -0.48711,-5.20572 -5.01375,-16.44651 -5.53709,-13.75 -0.56608,2.91673 -1.80831,1.97731 -3.10401,-2.34736 -1.312,-4.379039 -0.92372,-5.807684 1.13685,-4.183028 0.7008,0.552537 2.51167,1.300236 4.02417,1.661553 2.92781,0.699415 3.80254,2.618835 1.19346,2.618835 -1.4011,0 -1.40424,0.27461 -0.0314,2.75 2.83929,5.11955 4.58793,10.4791 4.58793,14.06193 0,7.35729 -2.33719,15.62882 -5.77494,20.43807 C 506.00004,143.76164 504,145.19707 504,143 z M 268.22896,104.33071 c -0.69907,-0.28127 -1.9764,-1.87541 -2.8385,-3.54254 -4.23714,-8.193731 4.69103,-22.215566 16.63326,-26.122785 11.22067,-3.671145 20.90693,-2.873443 27.01366,2.224683 2.76768,2.310558 3.27768,3.384422 3.17317,6.681482 C 311.92869,92.463824 312.19373,92 307.39421,92 304.9774,92 303,91.731967 303,91.40437 303,90.295684 307.1301,85 307.99477,85 c 0.47222,0 1.04458,0.7875 1.2719,1.75 0.32148,1.361159 0.57229,1.18584 1.12878,-0.789033 1.93755,-6.875955 -4.46396,-11.403331 -15.93242,-11.267978 -15.85744,0.187153 -26.02977,7.491683 -28.05299,20.144245 -0.5548,3.469494 -0.28422,4.379497 1.97351,6.637216 3.41538,3.41539 3.36891,4.27393 -0.15459,2.85626 z"
       id="path2993"
       style="fill:#fe0000" />
    <path
       d="m 90.56181,187.82444 c 0.394994,-1.11226 -0.271796,-2.24353 -1.983386,-3.36501 -2.394022,-1.56862 -2.757218,-1.5723 -5.078424,-0.0514 -3.3338,2.18439 -3.154808,1.10178 0.507457,-3.06931 1.654102,-1.88392 4.317381,-6.02025 5.918399,-9.19185 C 93.13548,165.78865 96,162.58542 96,165.3545 c 0,1.93166 4.49111,5.07804 5.95602,4.17268 1.69311,-1.0464 1.19705,2.26593 -0.93789,6.26266 -2.189085,4.09808 -11.404442,14.7044 -10.45632,12.0346 z m 485.37653,-12.26077 c -1.77533,-2.4721 -5.41273,-6.33703 -8.08311,-8.58873 C 565.18485,164.72325 563,162.13261 563,161.21797 c 0,-1.31102 0.32947,-1.1926 1.5567,0.55952 1.71272,2.44525 4.3832,2.88261 6.2433,1.02251 1.34439,-1.34439 1.59401,-4.88432 0.45,-6.38159 -0.4125,-0.53987 1.59496,1.50763 4.46102,4.55 2.86605,3.04238 5.22855,5.93821 5.25,6.4352 0.0214,0.49699 1.91901,2.63924 4.21682,4.76057 l 4.17783,3.85695 -3.03016,-0.60603 c -2.47903,-0.4958 -3.40567,-0.12865 -5.09473,2.01864 l -2.06456,2.62467 -3.22788,-4.49474 z M 165,159.45859 c -6.325,-1.25125 -11.71263,-2.31631 -11.97251,-2.36679 -0.25987,-0.0505 0.56367,-0.81756 1.8301,-1.70461 1.72396,-1.20751 2.15065,-2.21822 1.69794,-4.02195 -0.89545,-3.56777 1.72957,-4.02958 8.03935,-1.41432 2.97104,1.23143 7.217,2.48242 9.43546,2.77997 3.84228,0.51536 3.95466,0.6282 2.36981,2.37944 -1.5488,1.7114 -1.54941,2.01292 -0.009,4.36405 0.91017,1.38909 1.30698,2.46568 0.8818,2.39242 -0.42518,-0.0733 -5.94805,-1.15695 -12.27305,-2.40821 z m 328,-17.77713 c 0,-1.34011 -0.68703,-3.00676 -1.52674,-3.70365 -1.32959,-1.10346 -1.13278,-1.50666 1.52417,-3.12244 3.84712,-2.33957 4.32543,-2.32715 3.03775,0.0789 -0.56935,1.06384 -1.03518,3.28728 -1.03518,4.94098 0,1.6537 -0.45,3.28484 -1,3.62476 -0.56216,0.34743 -1,-0.4488 -1,-1.81854 z m -7.83021,-2.78118 c -0.67014,-1.07308 -1.40904,-5.60733 -1.64199,-10.07612 -0.48928,-9.38603 0.89203,-13.28894 4.97974,-14.07035 2.19454,-0.41951 2.87692,0.0795 4.52411,3.30823 1.06687,2.09124 2.3962,4.08435 2.95406,4.42913 1.57533,0.97361 1.19748,3.6412 -0.73571,5.19405 -0.9625,0.77313 -3.6625,2.26925 -6,3.3247 -4.69438,2.11966 -5.18988,3.21836 -2.34884,5.2083 1.553,1.08776 1.68011,1.63394 0.69412,2.98236 -1.10704,1.51397 -1.30799,1.48909 -2.42549,-0.3003 z M 173.33824,117.08515 c -0.68835,-1.82366 -1.94784,-3.04032 -3.3644,-3.25 -2.05646,-0.30441 -1.61529,-1.08635 4.80924,-8.52408 5.88279,-6.81054 7.27441,-7.94672 8.26761,-6.749998 1.64362,1.980448 2.32091,1.838578 5.99943,-1.256695 l 3.20356,-2.695623 -1.62684,3.145963 C 189.73208,99.484997 189,101.5184 189,102.27338 c 0,2.53783 -8.94289,15.37957 -11.53161,16.55907 -1.40937,0.64215 -2.66767,1.16755 -2.79621,1.16755 -0.12854,0 -0.72881,-1.31168 -1.33394,-2.91485 z m 119.90329,0.94209 c -1.4062,-2.2652 -6.05804,-2.73099 -9.4019,-0.94141 -1.83832,0.98383 -1.95426,0.86642 -1.23437,-1.25 0.43699,-1.28471 0.70254,-4.89236 0.59013,-8.01701 -0.1784,-4.95879 0.0583,-5.76455 1.86107,-6.33674 1.136,-0.36055 2.55865,-1.738002 3.16145,-3.060999 0.80035,-1.756581 1.42989,-2.128344 2.33378,-1.378179 0.68079,0.564999 1.79881,0.898982 2.4845,0.742185 0.68569,-0.156798 2.09489,1.126737 3.13154,2.852303 1.59158,2.64925 1.72672,3.81614 0.86861,7.5 -0.55892,2.39943 -1.35825,6.06237 -1.77628,8.13985 -0.71004,3.52867 -0.84288,3.64384 -2.01853,1.75 z M 411,119.03985 c -1.375,-0.41844 -4.5891,-0.54163 -7.14245,-0.27377 -4.11437,0.43163 -4.72142,0.2382 -5.33673,-1.70049 -0.38186,-1.20313 -1.77674,-2.6807 -3.09974,-3.2835 -1.75658,-0.80035 -2.12834,-1.42989 -1.37818,-2.33378 0.565,-0.68079 0.89898,-1.79881 0.74219,-2.4845 -0.1568,-0.68569 1.17027,-2.12031 2.94905,-3.18805 2.63787,-1.58342 3.83625,-1.75663 6.5,-0.9395 1.79622,0.551 5.45341,1.29834 8.12708,1.66073 4.63539,0.6283 4.76314,0.72761 2.75,2.13766 -2.31297,1.62007 -2.8302,6.15341 -1.07604,9.43109 1.1074,2.06919 0.8426,2.15418 -3.03518,0.97411 z M 87.737526,102.43367 c -1.3857,-2.16352 -4.122653,-5.46422 -6.082119,-7.334892 l -3.562665,-3.401222 1.953629,-2.483637 C 81.120867,87.847919 82,85.883377 82,84.848271 82,83.340388 83.31888,84.002727 88.63448,88.180095 97.794103,95.378363 101.03464,101 96.02439,101 c -1.021668,0 -2.737289,1.20765 -3.812494,2.68367 l -1.954916,2.68367 -2.519454,-3.93367 z M 123.70863,94.9938 c -0.66418,-2.53984 -3.47227,-3.622502 -5.73328,-2.210476 -2.38214,1.487671 -2.98639,0.616733 -2.9139,-4.199991 0.0983,-6.532432 2.40582,-18.342088 3.1914,-16.333333 1.33105,3.403553 6.01474,0.87334 6.94164,-3.75 0.22054,-1.1 0.43513,4.646088 0.47687,12.769084 0.0697,13.572766 -0.66284,18.695516 -1.96273,13.724716 z"
       id="path2991"
       style="fill:#0000fe" />
    <path
       d="m 36.264147,284.251 21.764148,-0.29008 -0.52917,-2.23046 C 57.208082,280.50371 54.078314,265.325 50.544085,248 c -3.534229,-17.325 -7.188594,-34.875 -8.120812,-39 -2.756711,-12.19826 -2.864496,-13.89346 -0.93057,-14.63557 2.270632,-0.87133 3.530426,1.28759 3.288527,5.63557 -0.240834,4.32884 2.130939,16.82768 3.334343,17.57143 0.486435,0.30063 0.892539,-0.0425 0.902453,-0.76241 0.0099,-0.71996 1.922414,-2.8171 4.25,-4.66031 L 57.5,208.79742 54,212.25133 c -4.646737,4.58554 -6.230022,7.44857 -5.460296,9.87377 0.571219,1.79975 1.170738,1.49311 5.987675,-3.06255 C 57.471474,216.27815 60.144191,214 60.466751,214 c 0.32256,0 -2.11281,2.5875 -5.411933,5.75 l -5.998406,5.75 1.297114,5.5 1.297115,5.5 34.174679,0.26313 C 108.41013,236.93702 120,236.68267 120,236.01313 120,235.45591 120.675,235 121.5,235 c 1.29252,0 1.5,3.38889 1.5,24.5 l 0,24.5 58.5,0 58.5,0 0,-22.5 0,-22.5 -9,0 c -5.33333,0 -9,-0.40741 -9,-1 0,-0.59301 3.68359,-1 9.05078,-1 l 9.05078,0 -0.30078,-51.00044 c -0.29744,-50.43409 -0.27857,-51.00044 1.69922,-51.00026 1.98466,1.7e-4 1.9978,0.57143 1.71362,74.50044 L 242.92724,284 l 45.03638,0 45.03638,0 0,-22.5 0,-22.5 -11,0 c -6.66667,0 -11,-0.39394 -11,-1 0,-0.60634 4.35026,-1 11.05078,-1 l 11.05078,0 -0.30078,-51.00044 c -0.29744,-50.43409 -0.27857,-51.00044 1.69922,-51.00026 1.98466,1.7e-4 1.9978,0.57143 1.71362,74.50044 L 335.92724,284 l 56.03638,0 56.03638,0 0,-22.5 0,-22.5 -11,0 c -6.66667,0 -11,-0.39394 -11,-1 0,-0.60634 4.35026,-1 11.05078,-1 l 11.05078,0 -0.30078,-51.00044 c -0.29744,-50.43409 -0.27857,-51.00044 1.69922,-51.00026 1.98466,1.7e-4 1.9978,0.57143 1.71362,74.50044 L 450.92724,284 l 46.53638,0 46.53638,0 0,-22.5 0,-22.5 -11,0 c -6.66667,0 -11,-0.39394 -11,-1 0,-0.60633 4.34963,-1 11.04889,-1 l 11.04889,0 -0.15286,-51.23313 c -0.17675,-59.23863 -0.61423,-56.69315 8.28713,-48.21871 5.30773,5.05316 7.29021,5.70065 12.43379,4.06093 1.22677,-0.39108 2.45562,-0.22158 2.83416,0.39091 0.36757,0.59475 1.58368,0.79083 2.70247,0.43574 1.45305,-0.46118 1.90266,-0.25855 1.57387,0.70932 -0.25316,0.74522 -1.7689,1.35494 -3.36831,1.35494 -1.59942,0 -3.09256,0.225 -3.31809,0.5 -0.93685,1.14234 2.17728,7.95004 3.88457,8.49191 1.75524,0.55709 11.65252,11.18501 13.60917,14.61384 0.8871,1.55454 11.304,11.35921 20.4492,19.24733 l 4.46712,3.85308 -5,-3.76854 c -2.75,-2.0727 -6.59702,-5.27206 -8.54893,-7.10969 -4.49545,-4.23225 -10.3404,-5.0091 -12.60413,-1.67521 -1.41074,2.07766 -1.04128,2.43996 10.59568,10.39018 6.63156,4.5306 12.05738,8.42594 12.05738,8.6563 0,0.57005 -0.89911,-0.005 -13.32251,-8.52205 -6.72537,-4.61062 -12.34579,-9.36112 -14.84619,-12.5483 -2.21302,-2.82087 -6.24988,-7.09329 -8.97079,-9.49428 -3.48931,-3.07903 -4.86069,-4.99444 -4.65381,-6.5 0.23023,-1.67555 -0.16703,-2.07128 -1.84735,-1.84024 -3.32427,0.45708 -8.63488,-6.41724 -7.90102,-10.22747 0.41684,-2.1643 -0.0279,-3.61849 -1.6967,-5.54772 -1.2439,-1.43801 -0.68663,-0.9537 1.23837,1.07624 6.25333,6.59423 11.47299,13.22207 12.73196,16.16685 1.61726,3.7828 5.61492,3.55487 6.06842,-0.346 0.23932,-2.05849 -0.50268,-3.11522 -3.64975,-5.19785 -2.17257,-1.43774 -5.45774,-4.49393 -7.30038,-6.79154 -1.84264,-2.2976 -5.15025,-6.20756 -7.35025,-8.68879 l -4,-4.51133 -0.63169,2.88664 c -0.34742,1.58765 -0.68492,35.16951 -0.75,74.62634 L 547,283.97941 l 44.75,0.27085 c 24.6125,0.14897 -95.2,0.27535 -266.25,0.28084 -171.05,0.006 -301.206134,-0.12055 -289.235853,-0.2801 z M 120,261.5 l 0,-22.5 -34.108408,0 -34.108408,0 0.69257,2.75 C 53.150041,244.4274 61,283.04003 61,283.67933 61,283.8557 74.275,284 90.5,284 l 29.5,0 0,-22.5 z m 466.32551,-86.0849 3.03016,0.60603 -4.17783,-3.85695 c -2.29781,-2.12133 -4.19538,-4.26358 -4.21682,-4.76057 -0.0214,-0.49699 -2.38395,-3.39282 -5.25,-6.4352 -2.86606,-3.04237 -4.87352,-5.08987 -4.46102,-4.55 1.14401,1.49727 0.89439,5.0372 -0.45,6.38159 -1.8601,1.8601 -4.53058,1.42274 -6.2433,-1.02251 -1.22723,-1.75212 -1.5567,-1.87054 -1.5567,-0.55952 0,0.91464 2.18485,3.50528 4.85523,5.75697 2.67038,2.2517 6.30778,6.11663 8.08311,8.58873 l 3.22788,4.49474 2.06456,-2.62467 c 1.68906,-2.14729 2.6157,-2.51444 5.09473,-2.01864 z m -24.92008,-18.26208 c 0.2879,-0.46583 -0.75172,-2.06866 -2.31026,-3.56185 -2.49373,-2.38914 -2.91229,-2.51013 -3.48856,-1.0084 -1.13475,2.95711 4.19816,7.16017 5.79882,4.57025 z m -13.67626,-22.75719 c -0.33229,-0.33229 -1.1948,-0.36781 -1.91667,-0.0789 -0.79773,0.31922 -0.56078,0.55618 0.60417,0.60416 1.05416,0.0434 1.64479,-0.19293 1.3125,-0.52522 z M 119.62246,185.75 c -0.44147,-50.12649 -0.4947,-52.75 -1.0703,-52.75 -0.20203,0 -4.02728,6.26028 -8.50055,13.91173 -4.47328,7.65145 -9.23987,14.63683 -10.59242,15.52305 C 98.106635,163.32101 97,164.6949 97,165.48787 c 0,1.763 3.36407,3.69965 5.17756,2.98064 1.28752,-0.51047 6.9425,-11.56385 12.40318,-24.24359 1.48634,-3.45129 2.8794,-6.09812 3.09568,-5.88183 0.21628,0.21628 -1.24698,3.94007 -3.2517,8.27508 -2.40112,5.19216 -3.60754,9.22013 -3.5353,11.80361 0.1124,4.02013 -2.01232,7.57822 -4.52536,7.57822 -0.72927,0 -1.58475,1.2375 -1.90105,2.75 -1.17004,5.59492 -4.494456,10.94948 -11.524798,18.56275 C 87.074254,193.66292 71.012966,207.56707 64,212.36437 c -3.665255,2.50726 2.005029,-2.46182 11.5,-10.07788 11.075218,-8.88359 12.953409,-10.76796 13.929777,-13.97559 0.912354,-2.99732 -2.447766,-4.89411 -5.679777,-3.20623 -1.2375,0.64626 -7.425,6.1746 -13.75,12.28518 L 58.5,208.5 69,197.39021 c 12.492363,-13.21785 16.271239,-18.01124 20.002914,-25.37306 1.53814,-3.03443 3.937386,-6.58053 5.331657,-7.88022 2.189508,-2.04097 2.48745,-3.05128 2.1859,-7.4123 -0.227473,-3.28973 -0.901704,-5.35847 -1.934827,-5.93664 -2.000474,-1.11952 -4.970675,-6.7542 -4.022476,-7.63092 0.390853,-0.36139 0.948298,0.0179 1.238767,0.84293 0.29047,0.825 1.731747,2.62568 3.202839,4.00151 2.248233,2.10264 3.46088,2.44848 7.605256,2.16898 4.50166,-0.30361 5.10839,-0.65167 6.97518,-4.00151 1.12455,-2.01794 3.46143,-6.15114 5.19306,-9.18489 l 3.14842,-5.5159 -14.42946,-12.78206 C 95.561023,111.656 87.815018,104.04628 86.283883,101.77565 83.818247,98.11918 72.987914,87.830088 61.458264,78.190677 59.281219,76.37055 60.2,76.933166 63.5,79.440935 c 3.3,2.50777 7.661896,5.967435 9.693102,7.688145 4.170928,3.533349 6.407582,3.310105 7.424353,-0.741037 0.963739,-3.839839 -0.273547,-5.262556 -9.425483,-10.83808 -4.468877,-2.72252 -7.979285,-5.095983 -7.800906,-5.274362 0.178378,-0.178379 3.384144,1.53458 7.123923,3.806574 9.400661,5.7111 25.413174,18.623621 27.367511,22.069214 0.916839,1.616432 2.1944,2.634468 2.94929,2.350171 C 101.56427,98.225702 103.52555,98 105.1902,98 c 2.80148,0 2.97556,-0.204562 2.3403,-2.75 -0.37748,-1.5125 -1.3985,-3.540259 -2.26895,-4.506131 -2.34157,-2.598283 -0.78755,-3.269871 1.73327,-0.749052 1.28077,1.280769 2.34416,3.861341 2.60983,6.333334 0.24659,2.294517 0.70491,5.582669 1.01849,7.307009 0.70106,3.85504 -0.91476,7.11879 -3.7354,7.545 -1.84956,0.27948 -1.3429,1.14004 4.01518,6.81984 l 6.13183,6.5 -0.38636,-11 c -0.2125,-6.05 -0.95516,-14.299445 -1.65037,-18.332101 -0.94072,-5.456838 -0.9967,-9.037487 -0.21888,-14 C 115.47487,76.729142 115.55444,63.634943 115.01716,42 114.57325,24.125 114.41435,9.1625 114.66404,8.75 116.61746,5.5229378 122,16.51081 122,23.72556 c 0,6.441474 1.82526,25.931928 3.44388,36.77444 0.73896,4.95 1.27889,14.481273 1.19984,21.180607 -0.14027,11.888003 -0.0897,12.190948 2.1051,12.611103 1.23686,0.236773 3.03686,-0.167689 4,-0.898803 2.75845,-2.093907 5.20812,-1.636368 6.27593,1.172193 C 140.26418,97.825037 140.25762,99 139,99 c -0.55,0 -1,-0.6199 -1,-1.377555 0,-0.757656 -0.61529,-1.888205 -1.36732,-2.512331 -1.95479,-1.622328 -3.89385,1.001131 -3.09436,4.186529 0.37146,1.480047 -0.0266,3.746927 -0.98262,5.595657 -1.37666,2.66215 -2.16013,3.1077 -5.46475,3.1077 -4.65018,0 -5.05744,0.9826 -5.0773,12.25 -0.0117,6.64875 0.29719,8.06084 2.17385,9.9375 1.40789,1.40789 1.76429,2.32857 1,2.58333 -0.65313,0.21771 -1.1875,0.85648 -1.1875,1.41949 0,0.56301 0.64593,0.77579 1.43539,0.47285 0.78947,-0.30295 1.57697,-0.21684 1.75,0.19136 0.17304,0.40819 5.57446,3.38763 12.00316,6.62097 9.92479,4.99171 12.56548,5.90164 17.5,6.03015 3.1963,0.0832 7.18056,0.86679 8.85392,1.74121 1.67337,0.87443 5.72337,2.05655 9,2.62695 9.32894,1.62396 44.60867,4.2592 52.56656,3.92649 8.87805,-0.37119 9.93982,1.12979 3.20746,4.53426 -4.45458,2.25262 -6.36449,2.49061 -25.41821,3.16729 -19.71978,0.70034 -21.19668,0.61871 -34.5,-1.90686 -7.64405,-1.45118 -15.16416,-3.05034 -16.71134,-3.55369 -2.24528,-0.73046 -3.19888,-0.52936 -4.72457,0.99633 -1.05132,1.05132 -3.02426,2.19078 -4.3843,2.53213 -1.36004,0.34135 -3.18186,1.7028 -4.04849,3.02544 -1.78455,2.72356 -4.24329,3.06584 -7.08688,0.98656 -2.53568,-1.85414 -1.26015,-3.10921 1.44376,-1.4206 1.75677,1.09712 2.33445,1.0465 3.70567,-0.32472 1.49929,-1.49929 1.44471,-1.8676 -0.70826,-4.77964 -2.24921,-3.04222 -2.2775,-3.30876 -0.79035,-7.44437 l 1.54239,-4.28918 -6.8146,-4.22272 c -3.74803,-2.32249 -7.26611,-3.94366 -7.81795,-3.6026 C 123.35552,139.89831 123,156.57352 123,186.55902 123,226.90421 122.80564,233 121.5193,233 c -1.28084,0 -1.53687,-6.37773 -1.89684,-47.25 z m -18.60433,-9.96016 c 2.13494,-3.99673 2.631,-7.30906 0.93789,-6.26266 C 100.49111,170.43254 96,167.28616 96,165.3545 c 0,-2.76908 -2.86452,0.43415 -6.074144,6.79238 -1.601018,3.1716 -4.264297,7.30793 -5.918399,9.19185 -3.662265,4.17109 -3.841257,5.2537 -0.507457,3.06931 2.321206,-1.52091 2.684402,-1.51723 5.078424,0.0514 1.71159,1.12148 2.37838,2.25275 1.983386,3.36501 -0.948122,2.6698 8.267235,-7.93652 10.45632,-12.0346 z M 108.8,163.8 c 0.66,-0.66 1.19832,-2.3475 1.19626,-3.75 -0.004,-2.49243 -0.0488,-2.47607 -2,0.72417 -1.09794,1.80079 -1.99626,3.48829 -1.99626,3.75 0,0.89188 1.59698,0.47885 2.8,-0.72417 z m 120.85898,-4.0895 C 232.04654,158.55053 234,157.19547 234,156.69924 c 0,-0.51379 -2.90607,-0.61191 -6.75,-0.22791 -3.94144,0.39375 -15.13344,-0.0174 -26.89846,-0.98803 -15.16153,-1.25091 -20.6686,-1.38398 -22.25,-0.53764 -2.63788,1.41175 -2.62817,2.11512 0.0767,5.55376 l 2.1782,2.76913 22.48078,-0.72451 c 19.93428,-0.64244 22.97251,-0.96341 26.8218,-2.83354 z m -53.26773,-0.23612 c -1.54051,-2.35113 -1.5399,-2.65265 0.009,-4.36405 1.58485,-1.75124 1.47247,-1.86408 -2.36981,-2.37944 -2.21846,-0.29755 -6.46442,-1.54854 -9.43546,-2.77997 -6.30978,-2.61526 -8.9348,-2.15345 -8.03935,1.41432 0.45271,1.80373 0.026,2.81444 -1.69794,4.02195 -1.26643,0.88705 -2.08997,1.65412 -1.8301,1.70461 0.25988,0.0505 5.64751,1.11554 11.97251,2.36679 6.325,1.25126 11.84787,2.33495 12.27305,2.40821 0.42518,0.0733 0.0284,-1.00333 -0.8818,-2.39242 z m -21.95983,-4.80058 c 2.76383,-2.02095 1.1852,-5.31981 -3.2292,-6.74807 -2.03622,-0.65881 -8.48443,-3.61161 -14.32935,-6.56178 C 131.02794,138.41378 125.74044,136 125.12287,136 c -2.05984,0 -1.15626,1.54667 1.62713,2.78517 3.48245,1.54956 14.4807,9.12925 18.04167,12.43381 2.5913,2.40472 6.08118,4.68608 7.2672,4.75061 0.30738,0.0167 1.37503,-0.56638 2.37255,-1.29579 z M 144,152.0567 c 0,-0.51881 -1.01016,-1.65083 -2.2448,-2.51561 -2.51539,-1.76185 -3.70462,-0.39 -1.7273,1.99253 1.3589,1.63738 3.9721,1.98151 3.9721,0.52308 z m -20,-20.94971 c 0,-0.49116 -0.675,-1.15203 -1.5,-1.46862 -2.0363,-0.7814 -2.02656,-14.17345 0.0175,-24.06939 C 124.22283,97.312971 123.40947,93 120.1472,93 c -3.55742,0 -4.59508,2.547792 -3.30822,8.12277 0.63856,2.7664 1.16102,10.58748 1.16102,17.3802 0,10.92138 0.20248,12.4033 1.75,12.8077 2.99645,0.78306 4.25,0.72298 4.25,-0.20368 z m -14.4546,-13.39885 c -4.17949,-4.5667 -8.3745,-9.85673 -9.32224,-11.75562 -2.225158,-4.45832 -5.716224,-5.15923 -7.390833,-1.48386 -0.958626,2.10395 -0.912385,2.86703 0.240327,3.96592 0.78504,0.74839 6.377346,5.74543 12.427346,11.10453 7.9246,7.01963 11.09009,9.28647 11.32224,8.10798 0.18484,-0.9383 -2.91812,-5.17642 -7.27684,-9.93895 z M 106,107.54797 C 106,105.41249 104.34816,104 101.85082,104 c -0.55981,0 -0.68761,0.97201 -0.29582,2.25 1.5372,5.01424 4.445,5.86334 4.445,1.29797 z m 23,-2.92553 c 0,-2.70507 -2.64049,-5.424366 -3.91327,-4.03006 -0.45568,0.49919 -1.12019,2.14512 -1.47667,3.65762 -0.5977,2.53587 -0.41309,2.75 2.37089,2.75 C 128.49314,107 129,106.60084 129,104.62244 z M 96.02439,101 c 5.01025,0 1.769713,-5.621637 -7.38991,-12.819905 C 83.31888,84.002727 82,83.340388 82,84.848271 c 0,1.035106 -0.879133,2.999648 -1.953629,4.365648 l -1.953629,2.483637 3.562665,3.401222 c 1.959466,1.870672 4.696419,5.171372 6.082119,7.334892 l 2.519454,3.93367 1.954916,-2.68367 C 93.287101,102.20765 95.002722,101 96.02439,101 z m 29.55716,-22.405838 c -0.17273,-9.543778 -0.61031,-17.83168 -0.9724,-18.41756 -0.78076,-1.263294 -3.60193,-29.656034 -3.60619,-36.293249 C 121.00011,19.43547 117.49805,9 116.00822,9 c -0.77963,0 -0.27254,49.856928 0.57466,56.5 0.68621,5.380637 2.89421,8.319616 5.17128,6.883277 0.93519,-0.589907 2.00323,-2.154969 2.37342,-3.477917 0.52951,-1.892353 0.69432,-1.995601 0.77274,-0.484101 C 125.01741,70.67811 122.28624,74 120.31363,74 c -0.75702,0 -1.68437,-0.7875 -2.06078,-1.75 -0.78558,-2.008755 -3.09309,9.800901 -3.1914,16.333333 -0.0725,4.816724 0.53176,5.687662 2.9139,4.199991 2.26101,-1.412026 5.0691,-0.329364 5.73328,2.210476 0.28531,1.091038 0.8941,1.751726 1.35286,1.468195 0.45877,-0.28353 0.69279,-8.324056 0.52006,-17.867833 z M 617.91273,208.39485 c -0.73269,-0.88284 -3.93779,-3.3746 -7.12244,-5.53726 C 607.60563,200.69493 605,198.69563 605,198.4147 c 0,-0.75202 9.05807,5.47164 12.23957,8.40962 6.95855,6.42593 2.33906,-4.16302 -4.97464,-11.40303 l -4.76493,-4.71693 5,4.33941 C 619.37728,201.01244 623.92233,210 620.06343,210 c -0.4502,0 -1.41801,-0.72232 -2.1507,-1.60515 z M 474.51426,192.02307 c -0.33208,-0.53731 -0.16355,-2.67481 0.3745,-4.75 1.14825,-4.42869 7.90979,-50.6149 7.94543,-54.27307 0.0134,-1.375 -0.19571,-4.40793 -0.46467,-6.73984 l -0.48902,-4.23984 -4.00836,2.04491 c -3.3482,1.70812 -4.54845,1.86667 -7.28763,0.96266 -1.8036,-0.59524 -4.01915,-0.79833 -4.92346,-0.45132 -2.26989,0.87104 -3.35157,-2.31462 -1.43625,-4.22994 1.23964,-1.23965 2.22422,-1.30281 5.70363,-0.3659 4.05432,1.09171 4.37754,1.00106 9.00046,-2.52443 l 4.79513,-3.6568 -2.02248,-3.69232 c -2.75255,-5.02515 -1.77509,-8.76068 2.79168,-10.668795 1.88212,-0.786401 4.22861,-1.360447 5.21441,-1.275659 4.50771,0.387707 5.41083,-0.07287 4.28131,-2.183393 C 492.89503,93.935338 493.38523,92 494.99687,92 c 0.48336,0 0.84672,0.7875 0.80746,1.75 -0.0392,0.9625 0.26041,2.533707 0.66591,3.491571 0.49044,1.158524 0.21612,1.941555 -0.81942,2.338929 -1.17539,0.45104 -1.30303,1.00423 -0.52112,2.25843 0.73724,1.18253 0.6331,2.82809 -0.3615,5.71197 -1.33447,3.86937 -1.29286,4.12951 0.92839,5.805 2.43605,1.83752 7.30341,10.52688 7.30341,13.03828 0,0.80336 -1.03642,2.28082 -2.30316,3.28324 -2.65425,2.10041 -3.67119,4.22481 -4.70201,9.82258 -2.08983,11.34864 -9.44107,41.38864 -10.76746,44 -3.89192,7.66229 -8.82135,11.58401 -10.71311,8.52307 z m 6.1351,-2.77307 c 1.11401,-1.5125 2.63871,-3.875 3.38823,-5.25 1.99676,-3.66307 9.82789,-38.32592 8.92395,-39.5 -0.42345,-0.55 -0.92552,-2.08975 -1.11572,-3.42167 -0.1902,-1.33192 -0.84568,-2.58604 -1.45661,-2.78693 -2.64053,-0.86828 -4.47139,5.26325 -7.4006,24.78453 -1.66455,11.0931 -3.50191,20.9016 -4.08304,21.79667 -0.91429,1.40824 -0.97648,1.37395 -0.46178,-0.25466 0.32714,-1.03514 1.94494,-10.87989 3.59512,-21.87723 1.65018,-10.99734 3.1868,-20.2969 3.41472,-20.66569 0.49082,-0.79416 -1.17183,-3.73226 -1.72375,-3.04606 -0.20837,0.25907 -2.02078,11.27104 -4.02758,24.47104 -2.0068,13.2 -3.93826,25.0125 -4.29214,26.25 -0.9498,3.32139 2.67973,2.97501 5.2392,-0.5 z M 495,139.87524 c 0,-1.6537 0.46583,-3.87714 1.03518,-4.94098 1.28768,-2.40604 0.80937,-2.41846 -3.03775,-0.0789 -2.65695,1.61578 -2.85376,2.01898 -1.52417,3.12244 0.83971,0.69689 1.52674,2.36354 1.52674,3.70365 0,1.36974 0.43784,2.16597 1,1.81854 0.55,-0.33992 1,-1.97106 1,-3.62476 z m -8.09884,-3.65702 c -2.84104,-1.98994 -2.34554,-3.08864 2.34884,-5.2083 2.3375,-1.05545 5.0375,-2.55157 6,-3.3247 1.93319,-1.55285 2.31104,-4.22044 0.73571,-5.19405 -0.55786,-0.34478 -1.88719,-2.33789 -2.95406,-4.42913 -1.64719,-3.22875 -2.32957,-3.72774 -4.52411,-3.30823 -4.08771,0.78141 -5.46902,4.68432 -4.97974,14.07035 0.23295,4.46879 0.97185,9.00304 1.64199,10.07612 1.1175,1.78939 1.31845,1.81427 2.42549,0.3003 0.98599,-1.34842 0.85888,-1.8946 -0.69412,-2.98236 z m 8.9438,-4.19641 C 499.23023,129.8338 502,127.34384 502,126.48856 c 0,-2.11231 -4.47903,-10.8113 -6.37819,-12.38746 -2.82654,-2.34582 -3.72009,-0.21408 -1.62866,3.88547 1.08805,2.13275 2.4347,4.15982 2.99256,4.5046 3.12745,1.93287 -2.22441,8.0447 -8.73571,9.97618 -2.27138,0.67377 -2.80665,1.64266 -1.58333,2.86598 1.28181,1.28181 3.06939,0.63685 9.17829,-3.31152 z m -17.82573,-9.03162 c 3.53534,-1.8036 8.31304,-7.99019 6.17056,-7.99019 -0.47386,0 -2.91954,1.60335 -5.43484,3.563 -4.37535,3.40881 -4.75132,3.51507 -8.68719,2.45525 C 465.62772,119.82267 464,120.25407 464,122.6264 c 0,1.01402 0.60798,1.31541 1.85507,0.9196 1.02029,-0.32383 2.93279,-0.15768 4.25,0.36922 3.35083,1.34038 3.51007,1.32177 7.91416,-0.92503 z m 12.81272,-11.3294 C 491.25269,109.44387 487.32718,105 484.94813,105 c -3.26727,0 -4.02148,2.35025 -1.88279,5.86705 1.57816,2.59507 2.53815,3.19696 4.70038,2.94703 1.68853,-0.19518 2.84932,-1.01036 3.06623,-2.15329 z m -90.39082,24.90653 c -2.49041,-1.83808 -1.34628,-2.83225 5.05887,-4.3958 2.96612,-0.72405 5.91525,-2.2502 7.25,-3.75179 2.69741,-3.0346 2.71081,-3.2626 0.37066,-6.30602 -1.28232,-1.66769 -2.70603,-2.32662 -4.72776,-2.18815 -9.83847,0.67386 -61.80615,-0.0764 -63.37291,-0.91486 -1.02158,-0.54674 -2.17376,-2.43432 -2.56039,-4.19464 -1.29682,-5.90438 0.51523,-6.43799 24.70386,-7.27469 19.40047,-0.67107 21.40407,-0.90663 22.63276,-2.66082 C 391.39433,102.59893 402.10974,97 404.87827,97 c 3.93873,0 14.63173,5.62915 15.87458,8.35691 0.66235,1.4537 1.62619,2.64309 2.14186,2.64309 2.75836,0 11.10529,10.55801 11.10529,14.04705 0,2.23862 -1.70007,0.6713 -2.91437,-2.68679 l -1.31615,-3.63975 -2.45722,3.13975 C 425.96079,120.58712 424.26891,122 423.55252,122 c -0.71639,0 -1.55051,1.2375 -1.85361,2.75 -0.87836,4.38314 -6.58487,9.86931 -12.12705,11.65879 -6.03536,1.94871 -6.68983,1.96008 -9.13073,0.15853 z m 9.38429,-1.30142 c 4.2723,-1.34673 6.14432,-2.6219 8.38014,-5.70836 3.42174,-4.72358 3.41427,-8.17897 -0.0169,-7.80904 -1.31227,0.14149 -2.04215,-0.17656 -1.69482,-0.73854 0.3493,-0.56519 -0.0533,-0.73252 -0.94191,-0.39152 -1.81425,0.69619 -1.96019,1.57331 -0.50407,3.02943 1.70454,1.70454 -0.91688,6.06209 -4.73752,7.8751 -1.87689,0.89064 -4.96454,1.87121 -6.86144,2.17903 -3.50374,0.56858 -4.46534,1.7212 -2.19891,2.63572 2.06395,0.83282 2.84149,0.73564 8.57542,-1.07182 z M 397.98469,118.75 c -0.0228,-1.86303 -1.20711,-3.30428 -3.86733,-4.70647 -1.79041,-0.94371 -7.75589,-1.13002 -24,-0.74955 L 348.5,113.8003 l 22.42012,-1.15015 c 14.85274,-0.76194 22.54615,-1.53174 22.79351,-2.2807 0.20958,-0.63453 -1.26453,-1.43782 -3.3599,-1.83091 -5.03614,-0.94479 -43.37622,0.46353 -45.71029,1.67905 -1.43978,0.74979 -1.71805,1.65935 -1.23958,4.05171 0.33933,1.69667 0.87307,3.34268 1.18607,3.65778 0.59322,0.59721 21.43998,1.5357 41.66007,1.87547 8.8454,0.14864 11.74621,-0.11155 11.73469,-1.05255 z M 415.5,114.26216 c 0,-2.78915 -0.38941,-4.83051 -0.86536,-4.53635 -0.47595,0.29415 -0.63689,2.56187 -0.35764,5.03936 0.31332,2.77978 0.17191,3.97429 -0.36932,3.11969 -1.67369,-2.64274 -1.01629,-7.69538 1.20354,-9.25021 2.01314,-1.41005 1.88539,-1.50936 -2.75,-2.13766 -2.67367,-0.36239 -6.33086,-1.10973 -8.12708,-1.66073 -2.66375,-0.81713 -3.86213,-0.64392 -6.5,0.9395 -1.77878,1.06774 -3.10585,2.50236 -2.94905,3.18805 0.15679,0.68569 -0.17719,1.80371 -0.74219,2.4845 -0.75016,0.90389 -0.3784,1.53343 1.37818,2.33378 1.323,0.6028 2.71788,2.08037 3.09974,3.2835 0.61531,1.93869 1.22236,2.13212 5.33673,1.70049 2.55335,-0.26786 5.76745,-0.1471 7.14245,0.26837 3.95712,1.19568 4.5,0.61995 4.5,-4.77229 z m -19.77718,-8.25877 c 1.39605,-1.09813 4.26901,-2.46265 6.38435,-3.03225 3.19299,-0.85978 4.48682,-0.71127 7.61945,0.87457 4.44859,2.25203 10.27985,3.66393 10.25807,2.48375 -0.008,-0.45621 -0.34592,-1.34816 -0.75,-1.98212 -1.01792,-1.59702 -12.01431,-6.353547 -14.60912,-6.319224 -3.20702,0.04242 -14.06738,6.224814 -14.44304,8.221884 -0.44816,2.38255 2.35657,2.2577 5.54029,-0.24661 z M 408,104 c -0.825,-0.53316 -2.175,-0.96937 -3,-0.96937 -1.33333,0 -1.33333,0.1077 0,0.96937 0.825,0.53316 2.175,0.96937 3,0.96937 1.33333,0 1.33333,-0.1077 0,-0.96937 z m -129,32.20089 c 0,-0.43951 1.63235,-1.38938 3.62745,-2.11081 l 3.62744,-1.31171 -2.87744,-2.29919 c -1.62455,-1.29808 -3.31287,-1.94371 -3.87745,-1.48277 -0.55,0.44903 -3.13832,1.13475 -5.75182,1.52382 -6.57201,0.97837 -8.89241,-0.73964 -11.17321,-8.27262 -1.44526,-4.77336 -1.56839,-6.39139 -0.6211,-8.16142 1.75429,-3.27792 3.18188,-2.11808 4.70147,3.81973 0.74697,2.91876 1.61518,5.72278 1.92937,6.23114 0.99709,1.61332 7.78961,-0.34321 9.7225,-2.80049 1.01912,-1.29559 2.15441,-2.16931 2.52286,-1.94159 0.89195,0.55125 1.01778,-1.69893 1.30829,-23.39498 0.19801,-14.788749 0.31546,-16.142854 0.58545,-6.75 0.18576,6.4625 0.74175,11.75 1.23554,11.75 1.26608,0 4.02883,-2.911373 4.10082,-4.321429 C 288.09326,96.030357 288.17727,91 288.24684,85.5 l 0.1265,-10 0.35188,9.443989 C 289.05274,93.734208 289.973,97 292.12244,97 292.6051,97 293,96.126558 293,95.059017 c 0,-1.067541 0.51239,-2.257658 1.13865,-2.644705 0.7778,-0.480708 0.98165,-3.58924 0.64324,-9.809017 -0.27247,-5.007912 -0.1631,-7.755295 0.24304,-6.105295 0.40614,1.65 0.79168,5.7574 0.85676,9.127555 0.0822,4.254659 0.60173,6.528757 1.69991,7.440168 2.09968,1.742575 7.4184,12.361197 7.4184,14.810547 0,3.93873 -5.62915,14.63173 -8.35691,15.87458 -1.4537,0.66235 -2.64309,1.62619 -2.64309,2.14186 0,1.58231 -7.33267,8.63732 -10.29705,9.90714 -3.25778,1.3955 -4.70295,1.51812 -4.70295,0.39904 z m 0.11776,-8.01256 c 0.33977,-0.37858 0.89102,-2.15083 1.225,-3.93833 0.66231,-3.54476 -0.67667,-4.36312 -2.26942,-1.38703 -1.25829,2.35114 -8.02551,3.61343 -9.80922,1.82972 -0.69243,-0.69243 -1.81662,-3.60655 -2.49819,-6.47583 C 265.08435,115.34759 264.21352,113 263.83074,113 c -2.90725,0 -0.40863,13.041 3.03197,15.82469 1.65585,1.3397 10.91299,0.85901 12.25505,-0.63636 z m 18.5349,-5.95364 c 1.59702,-1.01792 6.35355,-12.01431 6.31922,-14.60912 -0.0424,-3.20702 -6.22481,-14.067379 -8.22188,-14.443036 -2.38255,-0.448167 -2.2577,2.35657 0.24661,5.540284 1.09813,1.396052 2.46265,4.269012 3.03225,6.384352 0.85978,3.19299 0.71127,4.48682 -0.87457,7.61945 -2.25203,4.44859 -3.66393,10.27985 -2.48375,10.25807 0.45621,-0.008 1.34816,-0.34592 1.98212,-0.75 z m -0.61632,-14.0973 c 0.85811,-3.68386 0.72297,-4.85075 -0.86861,-7.5 -1.03665,-1.725566 -2.44585,-3.009101 -3.13154,-2.852303 -0.68569,0.156797 -1.80371,-0.177186 -2.4845,-0.742185 -0.90389,-0.750165 -1.53343,-0.378402 -2.33378,1.378179 -0.6028,1.322997 -2.0114,2.695989 -3.13022,3.051089 -1.76418,0.55993 -2.02819,1.46753 -1.98873,6.83673 0.025,3.40511 -0.0995,7.08024 -0.27673,8.16698 -0.28564,1.75151 0.26307,1.97861 4.83228,2 2.83498,0.0133 4.91384,-0.36529 4.61968,-0.84124 -0.29415,-0.47595 -2.56187,-0.63689 -5.03936,-0.35764 -2.77978,0.31332 -3.97429,0.17191 -3.11969,-0.36932 2.62329,-1.66137 7.79379,-1.02709 9.12639,1.11956 1.17565,1.89384 1.30849,1.77867 2.01853,-1.75 0.41803,-2.07748 1.21736,-5.74042 1.77628,-8.13985 z M 298.96937,108 c 0,-1.33333 -0.1077,-1.33333 -0.96937,0 -0.53316,0.825 -0.96937,2.175 -0.96937,3 0,1.33333 0.1077,1.33333 0.96937,0 0.53316,-0.825 0.96937,-2.175 0.96937,-3 z M 172,135.2 c 0,-0.44 0.46475,-1.26475 1.03278,-1.83278 1.78377,-1.78377 -0.0193,-4.62596 -2.42069,-3.81564 -3.80214,1.28301 -7.89529,0.78161 -9.29983,-1.13921 -1.3193,-1.80426 -1.61112,-1.7935 -10.08544,0.37186 -10.57934,2.70323 -15.35668,3.14665 -15.94656,1.48012 -0.516,-1.45783 0.97229,-2.10795 14.24725,-6.22354 7.52213,-2.33207 10.27049,-3.6474 11,-5.26447 0.53487,-1.18562 2.17992,-2.85782 3.65566,-3.71601 3.10539,-1.80586 16.35079,-16.996583 17.19618,-19.721729 2.02362,-6.523284 6.86735,-40.338703 6.98364,-48.754757 0.16614,-12.024741 1.51454,-13.370806 5.15285,-5.143944 2.88354,6.520191 3.07176,11.266557 1.42679,35.979462 -0.81367,12.223968 -1.50511,16.762874 -3,19.693095 C 190.87418,99.206784 190,101.53362 190,102.2832 c 0,0.74959 -2.07761,4.61021 -4.61691,8.57916 -3.27005,5.11111 -5.74971,7.79419 -8.5,9.19728 -4.33553,2.21183 -5.01943,4.87299 -2.26349,8.80765 1.28065,1.82839 1.38978,2.81671 0.52144,4.72251 C 174.10558,135.86239 172,136.94178 172,135.2 z m -19,-7.91509 c 12.98203,-3.44074 20,-6.16897 20,-7.77497 0,-4.80721 -3.92475,-6.08061 -6.52233,-2.1162 -1.55859,2.3787 -11.42564,6.42556 -24.72767,10.14179 -6.44669,1.80102 -7.9061,3.92533 -2,2.91117 2.0625,-0.35416 8.025,-1.77697 13.25,-3.16179 z m 10.41821,-7.8919 C 165.02479,118.77651 165.66453,116 164.2,116 c -1.03498,0 -3.2,2.16502 -3.2,3.2 0,0.95968 0.34794,0.98745 2.41821,0.19301 z m 14.05018,-0.56056 C 180.05711,117.65295 189,104.81121 189,102.27338 c 0,-0.75498 0.73208,-2.788383 1.62684,-4.518663 l 1.62684,-3.145963 -3.20356,2.695623 c -3.67392,3.091393 -4.3566,3.236193 -5.98829,1.270119 -0.97955,-1.180286 -2.24777,-0.190078 -7.37245,5.756304 -9.4047,10.91269 -9.13378,10.47681 -6.15815,9.90798 2.1315,-0.40746 2.74177,0.0242 3.72798,2.637 0.6486,1.71832 1.28443,3.12422 1.41297,3.12422 0.12854,0 1.38684,-0.5254 2.79621,-1.16755 z m 12.49112,-23.089638 c 3.19683,-2.599226 3.55269,-4.997089 4.66145,-31.40986 0.64367,-15.333576 0.56184,-16.45487 -1.58729,-21.75 C 191.78739,39.512328 190.42572,37 190.00772,37 c -0.418,0 -0.78192,4.6125 -0.80872,10.25 -0.0334,7.023008 -1.12755,16.389156 -3.47545,29.75 -4.0643,23.12806 -3.61308,25.12458 4.23596,18.742812 z m 93.32741,-35.08778 c 0.4328,-7.785268 1.205,-15.155118 1.71599,-16.377444 1.28841,-3.08198 5.53842,-4.002651 8.03738,-1.741122 1.79174,1.621495 1.94083,2.981646 1.73945,15.868522 L 294.55948,72.5 294.25289,58.350165 c -0.23623,-10.902954 -0.64164,-14.427907 -1.76675,-15.361667 -1.74559,-1.44871 -6.04838,-0.571653 -6.7996,1.38599 -0.29374,0.765463 -0.85719,7.757228 -1.25211,15.537256 -0.39492,7.780028 -0.99173,14.314888 -1.32624,14.521912 -0.3345,0.207025 -0.25408,-5.993356 0.17873,-13.778624 z M 50.5,69.876863 c -2.75,-2.210444 -7.9905,-5.978934 -11.645555,-8.374422 -7.385157,-4.840162 -8.585917,-6.170969 -6.999409,-7.757477 1.886113,-1.886113 8.937422,1.048591 20.08327,8.358513 C 57.721839,65.896565 62.094743,69 61.655869,69 61.216996,69 56.502386,66.145016 51.178959,62.655591 42.113201,56.713126 36.524893,54 33.350777,54 30.53755,54 32.199051,56.151995 37.75,59.697926 c 8.141516,5.200778 20.133451,14.694392 18,14.25 -0.1375,-0.02864 -2.5,-1.86062 -5.25,-4.071063 z m 238,-10.945761 c 0,-7.629436 0.30587,-13.097566 0.67971,-12.151402 0.93604,2.369031 0.99825,24.993019 0.0703,25.562684 -0.4125,0.25323 -0.75,-5.781847 -0.75,-13.411282 z"
       id="path2989"
       style="fill:#000000" />
  </g>
</svg>
