<?xml version="1.0" encoding="UTF-8" standalone="no"?>
<!-- Created with Inkscape (http://www.inkscape.org/) -->

<svg
   xmlns:dc="http://purl.org/dc/elements/1.1/"
   xmlns:cc="http://creativecommons.org/ns#"
   xmlns:rdf="http://www.w3.org/1999/02/22-rdf-syntax-ns#"
   xmlns:svg="http://www.w3.org/2000/svg"
   xmlns="http://www.w3.org/2000/svg"
   xmlns:sodipodi="http://sodipodi.sourceforge.net/DTD/sodipodi-0.dtd"
   xmlns:inkscape="http://www.inkscape.org/namespaces/inkscape"
   version="1.1"
   width="583"
   height="305"
   id="svg2"
   inkscape:version="0.91 r13725"
   sodipodi:docname="ub550201.svg">
  <sodipodi:namedview
     pagecolor="#ffffff"
     bordercolor="#666666"
     borderopacity="1"
     objecttolerance="10"
     gridtolerance="10"
     guidetolerance="10"
     inkscape:pageopacity="0"
     inkscape:pageshadow="2"
     inkscape:window-width="1486"
     inkscape:window-height="880"
     id="namedview11"
     showgrid="false"
     inkscape:zoom="0.52315609"
     inkscape:cx="37.27377"
     inkscape:cy="152.5"
     inkscape:window-x="0"
     inkscape:window-y="0"
     inkscape:window-maximized="0"
     inkscape:current-layer="svg2" />
  <metadata
     id="metadata8">
    <rdf:RDF>
      <cc:Work
         rdf:about="">
        <dc:format>image/svg+xml</dc:format>
        <dc:type
           rdf:resource="http://purl.org/dc/dcmitype/StillImage" />
        <dc:title></dc:title>
      </cc:Work>
    </rdf:RDF>
  </metadata>
  <defs
     id="defs6" />
  <g
     id="g2987"
     transform="translate(-8.1789025,3.2071691)">
    <path
       d="m 235.52455,252.25 c -1.50225,-3.05189 -1.99263,-7.43921 -2.63415,-23.56717 -0.75042,-18.8654 -0.68982,-20.00606 1.26163,-23.75 C 235.27948,202.76977 236.6065,201 237.10097,201 237.61122,201 238,212.89228 238,228.5 c 0,15.125 -0.14165,27.5 -0.31479,27.5 -0.17313,0 -1.14543,-1.6875 -2.16066,-3.75 z m -67.3566,-28.77537 c -1.83263,-0.79589 -9.25763,-7.03845 -16.5,-13.87235 -12.55657,-11.84836 -13.16428,-12.60348 -13.08886,-16.26377 0.12327,-5.98273 0.2749,-6.33851 2.7014,-6.33851 1.75152,0 4.40452,2.84141 11.4377,12.25 5.03646,6.7375 11.88525,14.93591 15.21951,18.2187 7.81268,7.69205 7.87533,9.32613 0.23025,6.00593 z m 68.18794,-44.98957 c -0.31973,-0.83322 -0.34786,-2.40778 -0.0625,-3.49901 0.28536,-1.09123 0.11109,-2.23606 -0.38728,-2.54407 -1.41589,-0.87507 -1.06308,-5.06683 0.53832,-6.39587 1.23765,-1.02716 1.44445,-0.11408 1.44445,6.37755 0,7.47256 -0.39387,9.02991 -1.533,6.0614 z M 241.38735,160.25 c 0.13171,-17.51309 0.058,-18.25 -1.82505,-18.25 -1.34973,0 -1.63989,-0.32241 -0.92952,-1.03278 0.56803,-0.56803 1.78303,-0.74489 2.7,-0.39301 1.37753,0.5286 1.66846,2.14154 1.67433,9.28278 0.004,4.75365 0.17002,11.56801 0.36914,15.14301 0.23595,4.23627 0.15824,4.9328 -0.22313,2 -0.53819,-4.13872 -0.63807,-3.85772 -1.2441,3.5 -0.44554,5.40934 -0.61448,2.09007 -0.52167,-10.25 z m -117.1605,7.5 c -0.55992,-0.6875 -1.69921,-2.89478 -2.53176,-4.90508 -0.83254,-2.01029 -4.25452,-6.99448 -7.6044,-11.07597 C 108.55522,145.02454 106.5989,141 108.85591,141 c 0.47075,0 4.59356,4.3875 9.16179,9.75 4.56824,5.3625 9.19928,10.55074 10.29121,11.52942 1.66809,1.49509 1.80545,2.17418 0.85964,4.25 -1.22209,2.68219 -3.32774,3.20228 -4.9417,1.22058 z m 0.92392,-9.90796 c -1.9786,-2.44079 -2.14304,-3.14643 -1.04234,-4.47269 1.17266,-1.41297 1.49095,-1.34737 3.09922,0.63876 1.83793,2.26975 2.37851,5.53855 1.04235,6.30289 -0.4125,0.23597 -1.80715,-0.87506 -3.09923,-2.46896 z M 319,146.89964 c -1.925,-0.4926 -6.03724,-0.63318 -9.13831,-0.31241 -3.41655,0.3534 -5.88818,0.17893 -6.27241,-0.44277 -0.41298,-0.66821 0.6814,-0.82293 3.13831,-0.44368 2.07483,0.32026 3.46608,0.24978 3.09169,-0.15663 -0.3744,-0.40641 -3.27965,-0.85404 -6.45611,-0.99473 -6.68405,-0.29605 -9.03929,-2.30187 -6.12492,-5.21624 1.6058,-1.6058 2.18305,-1.55176 9.98305,0.93462 4.55329,1.45144 10.85788,3.36446 14.01022,4.25117 3.15233,0.88671 5.99139,2.03269 6.30901,2.54662 0.70403,1.13914 -3.781,1.052 -8.54053,-0.16595 z m 50.39356,-8.30278 c -4.45855,-4.48925 -9.17279,-8.8703 -10.47609,-9.73566 -2.1368,-1.41878 -2.24821,-1.83989 -1.13388,-4.28558 1.69039,-3.71 5.18207,-3.14534 7.34669,1.18809 0.89665,1.79504 4.03606,6.15152 6.97648,9.68107 4.70659,5.6496 7.95319,11.77899 6.05676,11.43479 -0.36494,-0.0662 -4.31142,-3.79345 -8.76996,-8.28271 z M 522,143.18983 c 0,-0.58028 0.9,-1.3407 2,-1.68983 1.86424,-0.59169 2.01244,-1.59748 2.18331,-14.81739 C 526.49616,102.47725 526.54028,102 528.46482,102 c 3.58213,0 4.57842,7.35221 1.90254,14.0399 -1.27992,3.19883 -1.48981,5.84974 -0.9715,12.27023 0.85407,10.57992 0.0549,14.96772 -2.57406,14.13331 -1.05478,-0.33477 -2.57118,-0.0664 -3.36979,0.59639 -0.92373,0.76663 -1.45201,0.82121 -1.45201,0.15 z M 59,141.41029 c 0,-0.32434 0.889087,-1.33684 1.975749,-2.25 1.967213,-1.65312 1.967239,-1.72228 0.0059,-16.00971 C 58.702255,106.54626 58.970803,104 63.001419,104 c 3.555277,0 4.305825,2.02041 2.423814,6.5247 -1.258126,3.01112 -1.326409,5.51046 -0.433752,15.87637 0.582691,6.76646 0.774837,13.04432 0.42699,13.9508 C 64.831919,141.8804 59,142.8421 59,141.41029 Z M 103,141 c 0,-0.55 0.51303,-1 1.14008,-1 0.62704,0 5.46454,-4.21864 10.75,-9.37475 C 127.12429,118.69043 131,116.62009 131,122.01959 c 0,2.2167 -0.27634,2.46735 -9.5,8.61657 -3.85,2.56672 -8.7685,6.1736 -10.93,8.0153 -3.79839,3.2364 -7.57,4.40652 -7.57,2.34854 z m 314,0.0376 c 0,-0.25433 1.2031,-1.42175 2.67356,-2.59425 l 2.67356,-2.13183 -1.65822,-8.26751 c -1.59252,-7.93998 -1.5841,-8.36174 0.21247,-10.64571 l 1.87069,-2.3782 0.59528,5.23997 C 425.62335,140.11875 425.40895,141.5 420.07034,141.5 418.38165,141.5 417,141.2919 417,141.03756 Z m 47.371,-15.80111 c 0.17752,-8.94495 0.5172,-16.45798 0.75484,-16.69563 0.23765,-0.23764 1.043,-0.0545 1.78967,0.40696 1.95968,1.21115 2.43193,9.13017 1.19581,20.05222 -1.01514,8.96953 -0.96483,9.58376 0.90105,11 1.87718,1.42482 1.80231,1.5 -1.49395,1.5 l -3.47018,0 0.32276,-16.26355 z m -197.13082,0.78597 c -9.56661,-7.26313 -21.73828,-15.19524 -29.007,-18.90346 -6.07814,-3.10084 -5.49969,-4.50765 1.49415,-3.63382 6.08667,0.76048 11.78482,3.31186 24.90949,11.15339 4.47526,2.67381 9.5105,5.6124 11.18944,6.5302 2.21161,1.20899 3.23829,2.65841 3.72653,5.26097 0.62493,3.33118 -0.58778,6.5703 -2.45989,6.5703 -0.36422,0 -4.79794,-3.13991 -9.85272,-6.97758 z m 132.7528,4.46912 c -2.30703,-2.7798 0.0712,-9.94027 8.54498,-25.72779 2.65465,-4.945874 5.6241,-7.299274 8.04018,-6.372138 3.08894,1.185336 1.17396,5.360988 -5.89046,12.844298 -5.14112,5.44596 -8.87736,13.56569 -8.07899,17.55756 0.69008,3.45039 -0.51315,4.2315 -2.61571,1.69807 z m -33.04571,-3.13023 c -0.55177,-1.45128 -0.74405,-2.89786 -0.42728,-3.21463 1.03148,-1.03149 3.97182,1.50256 4.29956,3.70545 0.46757,3.14278 -2.64057,2.74882 -3.87228,-0.49082 z M 119.45272,122.9235 C 118.53097,121.43208 121.5715,119 124.3578,119 c 1.08654,0 1.78803,0.1125 1.55887,0.25 -0.22917,0.1375 -1.6067,1.29634 -3.06117,2.57521 -1.94137,1.70696 -2.84612,1.99898 -3.40278,1.09829 z M 493,117.43501 c -13.01192,-6.83995 -13.59296,-7.37811 -12.41018,-11.49429 l 0.91018,-3.1675 7.39151,6.62866 c 4.06533,3.64577 9.57859,7.63201 12.25169,8.85832 4.45601,2.04423 5.67177,3.66973 3.2943,4.40456 -0.51563,0.15937 -5.6625,-2.19401 -11.4375,-5.22975 z m -22.82267,-1.08826 c 0.26721,-2.30436 0.9766,-2.93636 4.12712,-3.67692 4.58521,-1.07779 5.3676,-0.48822 4.11351,3.09968 -0.78029,2.23241 -1.64838,2.7879 -4.75884,3.04519 -3.63336,0.30054 -3.78994,0.18955 -3.48179,-2.46795 z M 416.7329,116.25 c -1.94655,-2.15999 -3.01285,-6.36838 -1.99285,-7.86522 1.41753,-2.08021 4.96942,-2.53245 6.65458,-0.8473 2.00437,2.00438 2.02293,3.75436 0.0797,7.51218 -1.76437,3.41191 -2.56559,3.61475 -4.74142,1.20034 z m 114.82394,-0.5 c 0.95621,-3.11081 1.40605,-3.4227 2.48222,-1.72104 1.52638,2.41356 1.09243,3.97104 -1.10645,3.97104 -1.68221,0 -1.93853,-0.4192 -1.37577,-2.25 z M 57.666667,113.33333 c -0.366667,-0.36666 -0.638143,-1.60416 -0.603281,-2.75 0.05828,-1.91559 0.140529,-1.89048 1.021483,0.31185 0.979312,2.44822 0.776174,3.63253 -0.418202,2.43815 z M 148.2,111.8 c -2.53094,-2.53094 -0.9586,-5.47344 7.73418,-14.473837 l 8.8603,-9.173837 2.10276,2.238288 C 168.05376,91.621673 169,93.24083 169,93.988741 c 0,1.494082 -13.30075,15.782979 -16.5,17.725819 -2.53375,1.5387 -2.84064,1.5448 -4.3,0.0854 z m 189.76762,-6.99957 C 329.87827,92.316439 316.46031,74.243882 313.1273,71.343171 c -4.41186,-3.839629 -3.64736,-5.028683 2.18355,-3.39613 3.60641,1.009733 5.2636,2.385354 9.50257,7.88799 2.8239,3.665733 8.74611,11.294004 13.16047,16.951712 8.17668,10.479727 8.81399,11.872577 6.99093,15.278997 -1.65848,3.09889 -3.39993,2.28622 -6.9972,-3.26531 z M 168.54919,89.76677 c -1.50801,-2.152986 -1.33172,-2.465724 4.90626,-8.703703 3.55876,-3.558761 6.76275,-6.178197 7.11998,-5.820968 1.2358,1.235793 -2.61352,10.201986 -5.78434,13.473443 -3.77272,3.892454 -4.20127,3.964629 -6.2419,1.051228 z M 166.69865,84.75 c 4.5127,-5.978401 8.69476,-10.75 9.42181,-10.75 2.09732,0 0.5364,2.913159 -3.90481,7.287592 -4.38805,4.322067 -7.76622,6.442174 -5.517,3.462408 z M 406,84.668198 c 0,-0.986003 -8.02665,-42.76951 -9.08132,-47.273711 -2.58412,-11.036035 1.79792,-16.778743 6.21475,-8.144487 3.32451,6.498944 13.72859,41.301404 14.39938,48.167097 0.57529,5.888141 0.54677,5.986849 -0.89081,3.082903 -0.81682,-1.65 -4.02081,-11.1 -7.11997,-21 -8.23218,-26.296967 -8.6894,-27.66596 -9.10219,-27.253169 -0.20702,0.207017 2.80695,10.422684 6.6977,22.701481 6.34019,20.008941 6.93815,22.579121 5.76364,24.773701 C 411.79356,81.754261 406,85.918661 406,84.668198 Z m 56,-10.952279 0,-7.380357 3.5,-1.07418 3.5,-1.074181 0,5.055381 c 0,4.463452 -0.40981,5.453383 -3.5,8.454537 l -3.5,3.399156 0,-7.380356 z m 64.55182,5.945634 c -1.76685,-1.291953 -1.77314,-2.325378 -0.18122,-29.75 0.90706,-15.626354 1.64475,-29.424053 1.6393,-30.661553 -0.0166,-3.77503 1.66393,-2.516802 3.33912,2.5 2.36995,7.097477 3.18412,51.87401 1.02203,56.208025 -1.66415,3.335875 -3.03717,3.737815 -5.81923,1.703528 z M 64,79.018158 c -1.27293,-0.805621 -1.5,-5.041616 -1.5,-27.982575 0,-14.868284 0.260578,-27.03377 0.579063,-27.034414 0.318484,-6.43e-4 1.561269,2.136331 2.761745,4.748831 1.78172,3.877418 2.452578,8.413048 3.65189,24.690226 1.37765,18.697591 1.360768,20.125903 -0.270911,22.919722 C 67.222191,79.783731 66.106808,80.351529 64,79.018158 Z m 409.26311,-2.33031 c -2.95638,-1.998244 -3.23803,-2.642825 -3.25,-7.437848 -0.0109,-4.344102 0.28886,-5.247358 1.73689,-5.234687 3.16925,0.02773 3.94458,1.406987 4.62903,8.234687 0.37217,3.7125 0.55164,6.722031 0.39882,6.687848 -0.15282,-0.03418 -1.73445,-1.046684 -3.51474,-2.25 z M 461.92543,54.25 c -0.041,-5.3625 -0.27663,-14.074535 -0.52359,-19.360077 -0.38287,-8.194193 -0.18405,-9.937312 1.34946,-11.831124 1.59754,-1.972873 2.10085,-2.083288 4.50438,-0.988166 3.86265,1.759944 4.19379,2.924569 6.23509,21.929367 2.0157,18.766461 2.07918,18 -1.49077,18 -2.94146,0 -3.00168,-0.102438 -3.08597,-5.25 -0.0473,-2.8875 -0.70278,-9.3 -1.45667,-14.25 -0.9276,-6.090671 -1.2174,-7.060447 -0.89648,-3 1.90633,24.119991 1.93411,23.135959 -0.67276,23.833594 -1.31346,0.351503 -2.72562,0.645241 -3.13812,0.652751 -0.4125,0.0075 -0.78356,-4.373845 -0.82457,-9.736345 z"
       id="path2997"
       style="fill:#fefefe"
       inkscape:connector-curvature="0" />
    <path
       d="m 179,148.45616 c 0,-3.76806 0.29792,-4.49367 1.74497,-4.25 1.4786,0.24899 1.87093,-0.88433 2.57017,-7.42451 0.73816,-6.90425 0.54367,-8.64133 -1.84391,-16.46897 -2.93447,-9.62063 -9.00028,-22.399579 -13.84677,-29.171244 -1.85323,-2.589397 -5.0485,-5.3361 -7.87194,-6.766846 C 157.13863,83.050035 155,81.523889 155,80.983154 c 0,-1.361341 0.15472,-1.314795 5.42968,1.633432 8.19812,4.58202 17.67177,20.091334 23.05693,37.746514 2.46724,8.0888 2.60906,9.46202 1.75256,16.96896 -0.65076,5.70359 -0.60644,8.37994 0.14689,8.87061 C 186.47085,146.90923 181.47701,153 179.81291,153 179.36581,153 179,150.95527 179,148.45616 Z m 94,-61.885446 c 0,-1.380481 8.60695,-12.800767 12.68412,-16.830159 8.67425,-8.572597 20.61557,-15.785381 28.59191,-17.270053 3.09956,-0.576937 3.56669,-0.955087 2.6075,-2.110842 -0.64269,-0.774396 -0.93512,-1.641404 -0.64984,-1.926686 C 316.89678,47.76989 324,51.127169 324,52.103653 324,52.897345 317.73667,57 316.52498,57 316.11855,57 316.05873,56.289342 316.39203,55.420759 317.25122,53.181752 312.21532,54.385917 304.5,58.264336 293.31816,63.885341 283.9167,72.153825 278.36476,81.25 276.4345,84.4125 274.43777,87 273.9276,87 273.41742,87 273,86.806821 273,86.570714 Z m 213.75,-2.26004 c -2.28505,-0.597145 -2.2735,-0.63333 1.36322,-4.270046 2.68282,-2.682819 3.27037,-2.903406 4.25,-1.59558 1.44645,1.931055 3.29048,0.782897 4.13282,-2.573237 0.52046,-2.073703 0.10987,-3.03664 -2.00371,-4.699186 -3.91675,-3.080916 -12.10874,-5.83389 -19.49233,-6.550532 -5.62251,-0.545714 -7.30999,-0.282242 -12.5,1.95166 -7.74616,3.334129 -9.50576,3.852837 -9.4742,2.792878 0.0285,-0.957334 5.05116,-3.425076 11.9742,-5.883185 8.32444,-2.955692 22.79595,0.117488 30.17075,6.407081 3.30939,2.82241 3.8725,3.82777 3.36069,6 -0.33816,1.43521 -1.83358,3.619738 -3.32314,4.854506 -1.48957,1.234768 -2.1458,2.247268 -1.4583,2.25 C 494.4375,82.997765 495,83.45 495,84 c 0,0.995856 -4.91921,1.181101 -8.25,0.310674 z"
       id="path2993"
       style="fill:#fe0000"
       inkscape:connector-curvature="0" />
    <path
       d="m 241.17553,193 c -0.0746,-9.43469 0.2125,-13.94023 0.82197,-12.8976 0.56775,0.97126 0.61293,6.68242 0.11472,14.5 L 241.29025,207.5 241.17553,193 Z m -8.51473,7.5419 c -0.96563,-7.04504 -0.8123,-12.733 0.49605,-18.40107 l 1.15685,-5.01174 1.84315,2.34318 c 2.48452,3.15855 2.74122,19.96913 0.31913,20.89858 -0.83822,0.32165 -1.89086,1.57645 -2.33921,2.78845 -0.67389,1.82171 -0.92971,1.36806 -1.47597,-2.6174 z m -97.5794,-9.84135 c -1.18299,-2.9147 -4.16026,-7.74901 -6.61615,-10.74291 -2.45589,-2.9939 -4.47139,-5.89665 -4.4789,-6.45055 -0.008,-0.5539 -0.31055,-2.13209 -0.67342,-3.50709 -0.59048,-2.23746 -0.48536,-2.35698 1.00092,-1.13812 2.286,1.87468 4.51733,0.76924 6.11446,-3.02921 l 1.34466,-3.19801 1.94948,3.93267 c 1.07222,2.16297 2.98174,6.75473 4.24339,10.20392 1.26165,3.44918 2.68546,6.51324 3.16403,6.80901 1.38966,0.85886 1.00605,2.41974 -0.59469,2.41974 -2.17202,0 -3.75872,3.70577 -3.0223,7.05865 0.99232,4.51799 -0.0516,3.50559 -2.43148,-2.3581 z m 155.31947,-46.49247 c -1.70452,-0.93944 -5.28446,-3.5955 -7.95543,-5.90235 -4.76352,-4.11414 -4.82135,-4.23287 -3.02759,-6.21496 1.1689,-1.29162 1.6514,-2.9482 1.33728,-4.59139 -0.44008,-2.30214 -0.32237,-2.42174 1.12672,-1.14488 0.88998,0.7842 5.66815,3.47747 10.61815,5.98504 4.95,2.50758 8.28224,4.58201 7.40499,4.60985 -0.87726,0.0278 -2.43228,0.97578 -3.45561,2.10655 -1.53242,1.6933 -1.64795,2.39645 -0.65499,3.98643 0.66308,1.06177 1.20561,2.1616 1.20561,2.44406 0,1.06616 -3.61632,0.36563 -6.59913,-1.27835 z M 130.4433,125.77749 c 1.97582,-2.82088 1.96844,-4.66504 -0.0275,-6.87053 -1.78699,-1.9746 -2.47834,-1.36696 9.3342,-8.20407 5.35007,-3.09662 6.25,-3.35799 6.25,-1.81518 0,2.36623 3.52736,5.52243 5.0915,4.55574 0.78115,-0.48278 0.95921,-0.33452 0.49681,0.41366 -1.23386,1.99643 -19.94549,14.06308 -21.89501,14.11953 -0.44369,0.0129 -0.10619,-0.97677 0.75,-2.19915 z m 222.29423,-3.34382 c -1.3857,-2.16352 -4.12266,-5.46422 -6.08212,-7.33489 l -3.56267,-3.40122 1.95363,-2.48364 c 1.0745,-1.366 1.95363,-3.33054 1.95363,-4.36565 0,-1.50788 1.31888,-0.84554 6.63448,3.33183 9.15962,7.19826 12.40016,12.8199 7.38991,12.8199 -1.02167,0 -2.73729,1.20765 -3.81249,2.68367 l -1.95492,2.68367 -2.51945,-3.93367 z M 466,99.625727 C 466,94.738129 465.37547,89.481336 464.5,87 c -1.92868,-5.46645 -1.95507,-5.272205 1.13636,-8.363636 3.1778,-3.177802 4.65515,-3.277045 8.45927,-0.56827 2.49228,1.774663 2.90659,2.732386 2.91999,6.75 0.009,2.575048 0.66756,7.381906 1.46438,10.681906 2.14661,8.89014 2.05129,9.69919 -0.98,8.31805 -1.375,-0.6265 -2.5,-1.74185 -2.5,-2.47857 C 475,100.60277 474.14886,100 473.10858,100 c -1.27324,0 -2.41451,1.30733 -3.4919,4 C 467.11672,110.248 466,108.89736 466,99.625727 Z M 67.084441,105.15089 c -1.027465,-1.91422 -1.8925,-2.27537 -4.672665,-1.9508 -3.097332,0.3616 -3.410336,0.16336 -3.396155,-2.15089 0.0086,-1.40206 0.667562,-5.2492 1.464378,-8.5492 0.796817,-3.3 1.464788,-7.703333 1.484379,-9.785184 0.03368,-3.579095 0.154631,-3.721492 2.221442,-2.615368 1.892839,1.013016 2.496005,0.809203 4.5,-1.52058 L 71,75.888473 70.954896,88.694236 C 70.926393,96.786611 70.437844,102.6042 69.627561,104.5 l -1.282232,3 -1.260888,-2.34911 z M 417,105.27215 c 0,-0.16461 0.55922,-1.19474 1.24271,-2.28917 0.91966,-1.47263 0.95679,-2.4439 0.14281,-3.736436 -1.78423,-2.833236 -4.18617,-2.599741 -7.51661,0.730699 l -3.12505,3.125057 0.50028,-5.801151 c 0.33212,-3.851076 0.037,-6.712688 -0.87779,-8.512827 -1.27241,-2.503763 -1.20511,-2.798514 0.87779,-3.844203 1.24072,-0.622889 3.24504,-2.305772 4.45403,-3.739742 l 2.19817,-2.607217 1.13504,2.95142 c 0.92294,2.399917 4.96862,21.5226 4.96862,23.48515 0,0.29574 -0.9,0.5377 -2,0.5377 -1.1,0 -2,-0.13468 -2,-0.29928 z M 524.35026,96.846375 C 524.70762,91.811882 525,85.971529 525,83.867814 c 0,-3.704792 0.0776,-3.789581 2.47039,-2.699353 C 530.1844,82.40505 533,80.983963 533,78.377555 533,77.6199 533.413,77 533.91777,77 c 0.90205,0 0.46844,21.043107 -0.53357,25.89378 l -0.49448,2.39379 -1.50156,-2.14379 c -2.00135,-2.85732 -4.2222,-2.7105 -5.38816,0.35622 -1.77253,4.66212 -2.30152,2.52865 -1.64974,-6.653625 z"
       id="path2991"
       style="fill:#0000fe"
       inkscape:connector-curvature="0" />
    <path
       d="M 46.75,291.25228 61,290.94509 61,218.97254 C 61,178.51204 60.616895,147 60.125,147 c -0.48125,0 -1.165689,-1.45344 -1.520975,-3.22988 -0.504553,-2.52276 -0.216041,-3.56267 1.317828,-4.75 1.842134,-1.42594 1.895816,-2.04675 0.866442,-10.02012 -0.808724,-6.26424 -1.582776,-8.8437 -2.942829,-9.8067 -2.286763,-1.61917 -2.576972,-9.34131 -0.418386,-11.13278 0.953786,-0.79157 1.246305,-2.29836 0.882005,-4.54328 -0.299791,-1.84739 0.187203,-6.657026 1.082208,-10.68807 1.249689,-5.628516 1.717702,-14.514569 2.016956,-38.295491 0.256872,-20.412897 0.747688,-31.085658 1.440175,-31.316487 0.577775,-0.192592 2.176829,1.872534 3.553452,4.589169 2.212935,4.367017 2.682269,7.326011 4.050537,25.537266 2.146947,28.575238 2.043957,46.953013 -0.292286,52.156373 -1.959832,4.365 -2.115089,12.94504 -0.267672,14.79246 1.590673,1.59067 1.364077,5.24975 -0.416621,6.7276 -1.972426,1.63696 -3.141057,0.48641 -1.506459,-1.48316 C 69.347931,123.87584 68.705977,121 66.956634,121 c -0.749606,0 -1.025728,3.14263 -0.85667,9.75 0.137207,5.3625 -0.26842,11.55 -0.901392,13.75 -0.794279,2.76065 -1.15825,18.79476 -1.174715,51.75 L 64,244 l 9.5,0 c 5.666667,0 9.5,0.40351 9.5,1 0,0.59649 -3.833333,1 -9.5,1 l -9.5,0 0,22.5 0,22.5 20,0 20,0 0,-71.13398 c 0,-52.70929 -0.31299,-72.17866 -1.2084,-75.16726 -1.09285,-3.64762 -1.02462,-4.1368 0.71358,-5.11602 1.05708,-0.5955 4.46201,-3.45283 7.5665,-6.34961 4.40994,-4.11489 5.54744,-5.77476 5.20064,-7.58893 -0.55981,-2.92843 4.91717,-7.89354 8.22863,-7.4596 2.54218,0.33314 5.49905,-1.74566 5.49905,-3.86606 0,-0.79012 0.47035,-1.14588 1.04522,-0.7906 0.57486,0.35529 4.46037,-1.30565 8.63446,-3.69098 5.42387,-3.09954 10.09651,-6.98493 16.37679,-13.617665 4.83315,-5.104387 9.04269,-8.867876 9.35453,-8.363307 0.31184,0.504569 -0.10307,1.473487 -0.92201,2.15315 C 163.67005,90.688801 163,91.019773 163,90.74463 c 0,-0.275143 -3.6,3.187979 -8,7.695826 -8.0104,8.206734 -9.43064,11.127324 -6.56685,13.504064 2.13051,1.76816 4.89847,-0.15808 13.83977,-9.6312 C 166.52281,97.810647 170,94.356877 170,94.638276 c 0,0.281399 -4.3875,5.240853 -9.75,11.021004 -9.31568,10.04124 -14.29152,14.09758 -25.642,20.90359 -4.79538,2.87542 -5.09041,3.28563 -4.82065,6.70247 0.23499,2.97632 -0.18074,3.94631 -2.28121,5.32259 -3.28065,2.14957 -4.30346,1.20939 -1.61215,-1.48192 2.33022,-2.33022 1.87694,-5.99071 -0.49779,-4.01987 -0.75362,0.62546 -2.41835,0.87413 -3.69938,0.55261 -2.33888,-0.58702 -5.06209,0.76035 -9.4071,4.65438 l -2.21028,1.98087 4.43674,5.19326 c 3.77941,4.42385 4.86039,5.13109 7.29615,4.77359 3.95289,-0.58016 8.63279,4.78355 7.80127,8.94117 -0.41111,2.05553 -0.17075,2.81798 0.88835,2.81798 2.00052,0 4.06985,3.43361 7.60989,12.62696 3.53423,9.17825 17.93148,29.29637 29.79659,41.63651 5.40593,5.62236 7.16278,8.06532 6.37016,8.85794 -2.56844,2.56844 -8.53834,-1.30927 -23.10268,-15.00615 -12.19303,-11.46681 -14.9053,-14.56204 -17.18831,-19.61526 -1.49091,-3.3 -4.55846,-8.2241 -6.81676,-10.94244 -2.84037,-3.41898 -4.3063,-6.27807 -4.75579,-9.27551 -0.79638,-5.31059 -3.48892,-7.54642 -8.05611,-6.68961 -2.68255,0.50325 -3.46085,0.18165 -4.90893,-2.02839 -1.89093,-2.88592 -1.18001,-4.90026 0.81032,-2.29601 2.47123,3.23349 4.03283,2.48796 4.01067,-1.91473 -0.0152,-3.02716 -0.78333,-5.10225 -2.84496,-7.68601 -1.55325,-1.94663 -3.18453,-3.31656 -3.62507,-3.04429 C 107.36044,146.89527 107,168.92238 107,195.57214 l 0,48.45412 34.1712,-0.26313 34.1712,-0.26313 1.3549,-5.96699 c 0.74519,-3.28184 1.24188,-6.65684 1.10376,-7.5 -0.13813,-0.84315 0.0909,-2.0781 0.50901,-2.74432 1.49187,-2.37734 4.39475,-17.93983 3.93307,-21.08545 C 181.8122,203.26708 182.00037,203 184.5,203 c 3.08584,0 3.08362,-0.43542 0.0662,13 -0.92642,4.125 -4.57605,21.675 -8.11027,39 -3.53423,17.325 -6.66621,32.5125 -6.95995,33.75 l -0.53407,2.25 34.51905,0 34.51905,0 0,-16.37405 c 0,-15.45983 -0.13537,-16.61837 -2.42453,-20.75 -3.33767,-6.02402 -3.50361,-7.63936 -4.04188,-39.34499 -0.39016,-22.98191 -0.20266,-29.01937 1.05157,-33.85961 1.42292,-5.49123 1.40585,-6.0238 -0.25185,-7.85554 -1.07863,-1.19188 -1.80025,-3.60769 -1.83417,-6.14038 -0.0308,-2.29649 -0.65679,-5.25392 -1.39119,-6.57207 -1.15253,-2.06863 -1.11443,-2.52023 0.27839,-3.29969 C 230.27385,156.30699 231,155.24798 231,154.45031 231,153.65264 231.45,153 232,153 c 1.48585,0 1.21076,2.10963 -0.52523,4.02788 -2.29615,2.53722 0.25758,4.40458 4.05111,2.96228 l 2.76916,-1.05283 -0.62902,-8.86158 c -0.49737,-7.00707 -0.33235,-9.10779 0.78856,-10.03806 0.99994,-0.82987 1.98037,-0.87528 3.32787,-0.15412 1.70955,0.91492 1.97198,2.62753 2.49734,16.29716 0.33067,8.60405 0.19245,15.75025 -0.3165,16.36351 -1.15462,1.39122 -1.57222,6.66147 -0.64654,8.15926 0.38964,0.63045 0.27875,8.26757 -0.24642,16.97138 -0.52517,8.70382 -1.26346,22.68762 -1.64064,31.07512 l -0.68578,15.25 16.12805,0 C 266.95732,244 273,244.37467 273,245 c 0,0.625 -6,1 -16,1 l -16,0 0,22.5 0,22.5 43.5,0 43.5,0 0,-70.79645 0,-70.79645 -6.75,-1.133 c -3.7125,-0.62314 -8.89853,-0.87997 -11.5245,-0.57073 -3.60761,0.42484 -5.21696,0.16184 -6.58487,-1.0761 -1.5067,-1.36355 -2.35903,-1.4471 -5.08136,-0.49809 -4.24306,1.47914 -8.1864,-0.3296 -16.47977,-7.55896 -10.32256,-8.99823 -23.60464,-18.69198 -34.5795,-25.2374 -13.91562,-8.29929 -14.48871,-8.73306 -13.54828,-10.2547 1.26241,-2.04262 11.13949,-0.3125 18.02561,3.15746 3.31247,1.66918 8.37019,4.53385 11.23939,6.36593 2.8692,1.83209 7.3692,4.4267 10,5.76579 2.6308,1.3391 5.90828,3.65067 7.28328,5.13682 1.375,1.48615 6.92452,4.92838 12.33227,7.64939 10.48299,5.27472 11.71538,5.37528 19.4557,1.58752 1.95871,-0.9585 2.67063,-0.73697 4.94697,1.53937 1.46245,1.46244 2.33501,2.98298 1.93903,3.37896 -0.39599,0.39599 -1.41541,-0.2729 -2.26539,-1.48642 -2.06101,-2.9425 -3.31689,-1.95971 -2.51377,1.96713 0.50775,2.48259 1.40667,3.43254 4.12716,4.36146 7.0931,2.42195 8.97803,2.63557 8.97803,1.01752 0,-0.90851 0.90432,-1.51923 2.25,-1.51949 l 2.25,-4.4e-4 -0.30078,51.00044 -0.30078,51.00044 8.55078,0 c 5.03385,0 8.55078,0.4113 8.55078,1 0,0.58824 -3.5,1 -8.5,1 l -8.5,0 0,22.5 0,22.5 24,0 24,0 -0.0496,-71.25 -0.0496,-71.25 -9.60278,-9 c -17.26039,-16.17692 -27.60565,-27.6092 -35.29177,-39 -10.03171,-14.866981 -18.40389,-25.984352 -21.96383,-29.16565 -2.76702,-2.472719 -3.28078,-3.434806 -2.34714,-4.395282 0.94555,-0.97272 2.14073,-0.964921 5.72042,0.03733 3.83147,1.072743 5.37134,2.359692 10.0452,8.395282 17.13313,22.124855 20.51472,25.96987 27.89577,31.71869 4.32116,3.36559 8.59616,7.40909 9.5,8.98554 1.49699,2.61104 1.99952,2.81194 5.64333,2.25603 2.2,-0.33564 4.19303,-0.77817 4.42897,-0.9834 0.23593,-0.20522 -0.55157,-1.69938 -1.75,-3.32035 -2.31707,-3.13399 -2.6363,-4.03236 -1.42897,-4.02136 1.26227,0.0115 5.16126,6.36799 5.2096,8.49317 0.025,1.1 0.30828,3.82509 0.62946,6.05576 0.61498,4.27119 -0.36642,5.90089 -3.96645,6.58663 -1.61411,0.30746 -1.2635,1.09137 2.5,5.58968 2.57004,3.07184 5.20316,5.2393 6.37739,5.24958 1.97749,0.0173 1.9967,0.59149 1.70706,51.01793 L 381.91412,244 l 10.54294,0 c 6.36196,0 10.54294,0.39657 10.54294,1 0,0.60317 -4.16667,1 -10.5,1 l -10.5,0 0,22.5 0,22.5 18,0 18,0 -0.006,-71.25 c -0.004,-48.71439 -0.35334,-72.50261 -1.10508,-75.21034 -1.0362,-3.73232 -0.94096,-4.08677 1.65417,-6.15605 2.75097,-2.19355 2.75249,-2.20192 1.54808,-8.53966 -1.86841,-9.83175 -1.99039,-10.08617 -4.53034,-9.44868 -1.58273,0.39724 -2.93266,-0.16172 -4.55107,-1.88444 -1.2655,-1.34705 -2.73648,-2.17999 -3.26886,-1.85096 -2.04667,1.26492 -4.73388,9.12734 -4.13793,12.10708 0.36151,1.80756 0.13776,3.27499 -0.56566,3.70973 -1.68664,1.0424 -5.03773,-2.3844 -5.03773,-5.15154 0,-2.8765 4.23278,-13.51675 7.2883,-18.32112 1.83915,-2.89179 2.20495,-4.81443 2.0936,-11.00402 -0.0742,-4.125 -0.44657,-8.4 -0.82748,-9.5 -0.468,-1.351501 -0.22017,-1.208275 0.7643,0.441718 1.0323,1.730155 1.30157,4.154218 0.924,8.318144 l -0.53286,5.876428 3.14205,-3.142051 c 3.34625,-3.346242 5.74712,-3.584523 7.53361,-0.747695 0.81398,1.292536 0.77685,2.263806 -0.14281,3.736436 -1.60458,2.56933 -1.59898,2.58845 0.75729,2.58845 1.1,0 2,-0.24196 2,-0.5377 0,-1.96255 -4.04568,-21.085233 -4.96862,-23.48515 l -1.13504,-2.95142 -2.19817,2.607217 c -2.67472,3.172447 -6.35215,5.164518 -7.15018,3.873272 -0.31536,-0.510268 -2.35109,-10.298985 -4.52383,-21.752704 C 398.85099,51.871225 396.52556,39.968484 395.8561,36.874408 394.24618,29.431813 395.50615,24.5 399.01792,24.5 c 3.60982,0 6.22837,5.541604 13.12641,27.779249 4.88733,15.755574 6.04385,20.843299 6.41502,28.220751 0.24904,4.95 1.38417,13.275 2.52252,18.5 1.13834,5.225 2.20773,11.075 2.37642,13 0.16869,1.925 0.86741,8.59875 1.55272,14.83055 1.24108,11.2858 1.23661,11.34307 -1.1325,14.5 L 421.5,144.5 l -0.28546,49.75 -0.28547,49.75 13.03547,0 c 8.02364,0 13.03546,0.38448 13.03546,1 0,0.61538 -5,1 -13,1 l -13,0 0,22.5 0,22.5 22.52505,0 22.52505,0 -0.27505,-73.34681 c -0.20993,-55.98016 -0.56444,-73.69539 -1.49728,-74.81901 -1.19066,-1.43416 -1.05506,-16.48762 0.3793,-42.10649 0.40235,-7.186309 0.10708,-9.92641 -1.63313,-15.155743 -1.52981,-4.597073 -2.02423,-8.158832 -1.76678,-12.727691 L 461.61464,66.5 l 0.19268,7.298138 0.19268,7.298137 3.44057,-3.341441 c 2.9364,-2.851793 3.49544,-4.141054 3.81502,-8.798137 L 469.63004,63.5 469.8274,69 c 0.18287,5.096341 0.45393,5.666209 3.69332,7.764663 l 3.49597,2.264664 -0.64719,-7.264664 c -0.35595,-3.995564 -0.38575,-7.028205 -0.0662,-6.739201 0.31953,0.289004 1.01987,7.039004 1.5563,15 0.53643,7.960996 1.57497,16.13478 2.30787,18.163964 1.69801,4.701304 14.02066,15.808174 21.4246,19.310794 5.6928,2.69313 6.29785,3.51633 3.99144,5.43048 -1.12234,0.93146 -3.13344,0.31233 -9.6845,-2.98148 -4.5474,-2.28639 -9.98498,-5.24095 -12.0835,-6.56569 L 480,110.97491 l 0,2.29004 c 0,3.93892 -2.72209,6.73505 -6.5567,6.73505 -1.89382,0 -3.44672,0.3375 -3.45089,0.75 -0.004,0.4125 -0.44035,4.51406 -0.96928,9.11458 -0.92047,8.00607 -0.86657,8.44453 1.25759,10.22969 1.89908,1.596 2.00286,2.00697 0.71928,2.84841 -1.2938,0.84814 -1.53924,7.86164 -1.78546,51.02031 L 468.92907,244 l 9.03547,0 c 5.35697,0 9.03546,0.40712 9.03546,1 0,0.59259 -3.66667,1 -9,1 l -9,0 0,22.5 0,22.5 27.5,0 27.5,0 0,-71.77749 c 0,-65.07866 -0.15396,-71.99731 -1.6497,-74.13278 -1.55935,-2.22627 -1.53613,-2.44387 0.42387,-3.97251 1.90947,-1.48923 2.09548,-2.80438 2.35027,-16.61722 0.19452,-10.54545 -0.0927,-15.67266 -0.96713,-17.26509 -1.37396,-2.50206 -1.19862,-9.641493 1.47932,-60.23491 1.77882,-33.606642 2.60489,-36.607901 6.88108,-25 1.24446,3.378164 1.63003,7.616212 1.54662,17 -0.0611,6.875 0.26797,19.025 0.7313,27 0.46333,7.975 0.58536,19.9 0.27117,26.5 -0.63106,13.25647 -0.0174,14.95612 5.07617,14.05855 2.40352,-0.42354 2.74163,-0.0739 3.73198,3.8591 0.59895,2.37867 1.37026,5.05778 1.71402,5.9536 0.34636,0.9026 0.12977,1.62875 -0.48582,1.62875 -0.61095,0 -1.65243,-2.025 -2.31439,-4.5 -0.67403,-2.52012 -1.79824,-4.5 -2.55518,-4.5 -0.74339,0 -1.06671,0.46098 -0.7185,1.0244 0.34821,0.56342 0.35267,2.30126 0.01,3.86186 -0.63635,2.89729 -3.91271,5.11374 -7.55914,5.11374 -1.81915,0 -1.92528,0.70106 -1.70295,11.25 0.19273,9.14446 -0.0904,11.84897 -1.51289,14.45034 -1.59798,2.92234 -1.75,7.37426 -1.75,51.25 L 527,244 l 13,0 c 8,0 13,0.38462 13,1 0,0.61538 -5,1 -13,1 l -13,0 0,22.47012 0,22.47013 12.75,0.31254 c 7.0125,0.1719 -104.25,0.31123 -247.25,0.30962 -143,-0.002 -253.5875,-0.14117 -245.75,-0.31013 z M 166,290.67933 c 0,-0.6393 7.84996,-39.25193 8.52425,-41.92933 l 0.69257,-2.75 -34.10841,0 -34.10841,0 0,22.5 0,22.5 29.5,0 c 16.225,0 29.5,-0.1443 29.5,-0.32067 z M 238,228.5 c 0,-15.60772 -0.38878,-27.5 -0.89903,-27.5 -0.49447,0 -1.82149,1.76977 -2.94894,3.93283 -1.95145,3.74394 -2.01205,4.8846 -1.26163,23.75 0.64152,16.12796 1.1319,20.51528 2.63415,23.56717 1.01523,2.0625 1.98753,3.75 2.16066,3.75 C 237.85835,256 238,243.625 238,228.5 Z m -64,-4.2813 c 0,-0.42972 -2.72803,-3.46722 -6.0623,-6.75 -3.33426,-3.28279 -10.18305,-11.4812 -15.21951,-18.2187 -6.89074,-9.21803 -9.70497,-12.25 -11.37031,-12.25 -2.57449,0 -3.67593,2.54695 -2.88229,6.66496 l 0.54637,2.83504 -1.12192,-2.84783 c -1.3178,-3.34501 0.1392,-7.65217 2.58852,-7.65217 1.64637,0 2.06287,-1.54735 0.65131,-2.41974 -0.47857,-0.29577 -1.90238,-3.35983 -3.16403,-6.80901 -1.26165,-3.44919 -3.17117,-8.04095 -4.24339,-10.20392 l -1.94948,-3.93267 -1.34466,3.19801 c -1.59713,3.79845 -3.82846,4.90389 -6.11446,3.02921 -1.48628,-1.21886 -1.5914,-1.09934 -1.00092,1.13812 0.36287,1.375 0.66591,2.95825 0.67342,3.51833 0.008,0.56008 1.87594,3.26008 4.15207,6 2.27613,2.73992 5.36399,7.68167 6.8619,10.98167 2.26518,4.99034 5.00463,8.14784 16.27953,18.76377 12.22609,11.51155 17.79351,15.58196 21.47015,15.69709 0.6875,0.0215 1.25,-0.31245 1.25,-0.74216 z m 67.9975,-44.1163 c -0.60947,-1.04263 -0.89661,3.46291 -0.82197,12.8976 l 0.11472,14.5 0.82197,-12.8976 c 0.49821,-7.81758 0.45303,-13.52874 -0.11472,-14.5 z m -5.52152,20.26845 c 2.42209,-0.92945 2.16539,-17.74003 -0.31913,-20.89858 l -1.84315,-2.34318 -1.15685,5.01174 c -1.30835,5.66807 -1.46168,11.35603 -0.49605,18.40107 0.54626,3.98546 0.80208,4.43911 1.47597,2.6174 0.44835,-1.212 1.50099,-2.4668 2.33921,-2.78845 z m 1.41291,-27.94719 c 0,-6.49163 -0.2068,-7.40471 -1.44445,-6.37755 -1.6014,1.32904 -1.95421,5.5208 -0.53832,6.39587 0.49837,0.30801 0.67264,1.45284 0.38728,2.54407 -0.50812,1.94303 0.17765,5.01395 1.11966,5.01395 0.26171,0 0.47583,-3.40935 0.47583,-7.57634 z M 243.15312,167 c 0.38137,2.9328 0.45908,2.23627 0.22313,-2 -0.19912,-3.575 -0.36523,-10.38936 -0.36914,-15.14301 -0.006,-7.14124 -0.2968,-8.75418 -1.67433,-9.28278 -0.91697,-0.35188 -2.13197,-0.17502 -2.7,0.39301 -0.71037,0.71037 -0.42021,1.03278 0.92952,1.03278 1.88306,0 1.95676,0.73691 1.82505,18.25 -0.0928,12.34007 0.0761,15.65934 0.52167,10.25 0.60603,-7.35772 0.70591,-7.63872 1.2441,-3.5 z m -113.98457,-0.47058 c 0.94581,-2.07582 0.80845,-2.75491 -0.85964,-4.25 -1.09193,-0.97868 -5.72297,-6.16692 -10.29121,-11.52942 -4.56823,-5.3625 -8.69104,-9.75 -9.16179,-9.75 -2.25701,0 -0.30069,4.02454 5.23478,10.76895 3.34988,4.08149 6.77186,9.06568 7.6044,11.07597 2.79645,6.75241 5.47414,8.07254 7.47346,3.6845 z M 129,158.05177 c 0,-1.00661 -0.80656,-2.82626 -1.79235,-4.04366 -1.60827,-1.98613 -1.92656,-2.05173 -3.09922,-0.63876 -1.1007,1.32626 -0.93626,2.0319 1.04234,4.47269 2.51112,3.0977 3.84923,3.17061 3.84923,0.20973 z m 198.54053,-10.98618 c -0.31762,-0.51393 -3.15668,-1.65991 -6.30901,-2.54662 -3.15234,-0.88671 -9.45693,-2.79973 -14.01022,-4.25117 -7.8,-2.48638 -8.37725,-2.54042 -9.98305,-0.93462 -2.91437,2.91437 -0.55913,4.92019 6.12492,5.21624 3.17646,0.14069 6.08171,0.58832 6.45611,0.99473 0.37439,0.40641 -1.01686,0.47689 -3.09169,0.15663 -2.45691,-0.37925 -3.55129,-0.22453 -3.13831,0.44368 0.38423,0.6217 2.85586,0.79617 6.27241,0.44277 3.10107,-0.32077 7.21331,-0.18019 9.13831,0.31241 4.75953,1.21795 9.24456,1.30509 8.54053,0.16595 z M 378.14,144.43107 c -0.37787,-1.41291 -3.09283,-5.45674 -6.03324,-8.98629 -2.94042,-3.52955 -6.07983,-7.88603 -6.97648,-9.68107 -2.16462,-4.33343 -5.6563,-4.89809 -7.34669,-1.18809 -1.11433,2.44569 -1.00292,2.8668 1.13388,4.28558 1.3033,0.86536 6.01754,5.24641 10.47609,9.73566 4.45854,4.48926 8.40502,8.21648 8.76996,8.28271 0.36493,0.0662 0.35435,-1.03559 -0.0235,-2.4485 z M 297,145.48643 c 0,-0.28246 -0.54253,-1.38229 -1.20561,-2.44406 -0.99296,-1.58998 -0.87743,-2.29313 0.65499,-3.98643 1.02333,-1.13077 2.57835,-2.07872 3.45561,-2.10655 0.87725,-0.0278 -2.45499,-2.10227 -7.40499,-4.60985 -4.95,-2.50757 -9.72817,-5.20084 -10.61815,-5.98504 -1.44909,-1.27686 -1.5668,-1.15726 -1.12672,1.14488 0.31412,1.64319 -0.16838,3.29977 -1.33728,4.59139 -1.79376,1.98209 -1.73593,2.10082 3.02759,6.21496 2.67097,2.30685 6.25091,4.96291 7.95543,5.90235 2.98281,1.64398 6.59913,2.34451 6.59913,1.27835 z m 229.8218,-3.04299 c 2.629,0.83441 3.42813,-3.55339 2.57406,-14.13331 -0.51831,-6.42049 -0.30842,-9.0714 0.9715,-12.27023 2.67588,-6.68769 1.67959,-14.0399 -1.90254,-14.0399 -1.92454,0 -1.96866,0.47725 -2.28151,24.68261 -0.17087,13.21991 -0.31907,14.2257 -2.18331,14.81739 -1.1,0.34913 -2,1.10955 -2,1.68983 0,0.67121 0.52828,0.61663 1.45201,-0.15 0.79861,-0.66279 2.31501,-0.93116 3.36979,-0.59639 z M 65.450387,140.15632 c 0.32184,-1.01403 0.118392,-7.16819 -0.452106,-13.67592 -1.034523,-11.80093 -0.15844,-19.31545 2.089898,-17.9259 0.509848,0.3151 0.40135,-0.58075 -0.241106,-1.99079 -1.60378,-3.51992 -6.363322,-3.62726 -7.232764,-0.16313 -0.331379,1.32032 0.283925,8.85782 1.367341,16.75 1.961338,14.28743 1.961312,14.35659 -0.0059,16.00971 C 58.289627,141.41754 58.485892,142 61.932612,142 c 1.971474,0 3.124395,-0.60425 3.517775,-1.84368 z M 110.57,138.65146 c 2.1615,-1.8417 7.08,-5.44858 10.93,-8.0153 9.22366,-6.14922 9.5,-6.39987 9.5,-8.61657 0,-5.3995 -3.87571,-3.32916 -16.10992,8.60566 C 109.60462,135.78136 104.76712,140 104.14008,140 103.51303,140 103,140.45 103,141 c 0,2.05798 3.77161,0.88786 7.57,-2.34854 z m 313.61614,0.98041 c 0.98268,-1.75596 0.86433,-4.55593 -0.8188,-19.37184 l -0.59528,-5.23997 -1.87069,2.3782 c -1.79657,2.28397 -1.80499,2.70573 -0.21247,10.64571 l 1.65822,8.26751 -2.67356,2.13183 c -3.40133,2.71212 -3.3566,3.05669 0.39678,3.05669 1.95835,0 3.44898,-0.67659 4.1158,-1.86813 z M 469.01237,140 c -1.86588,-1.41624 -1.91619,-2.03047 -0.90105,-11 1.24188,-10.97296 0.76276,-18.83258 -1.22477,-20.09128 -1.00983,-0.63952 -1.04473,-0.88225 -0.12845,-0.89341 0.69195,-0.008 1.97831,-1.81531 2.85858,-4.01531 1.07739,-2.69267 2.21866,-4 3.4919,-4 1.04028,0 1.89142,0.60277 1.89142,1.33948 0,0.73672 1.125,1.85207 2.5,2.47857 3.03129,1.38114 3.12661,0.57209 0.98,-8.31805 -0.79682,-3.3 -1.45579,-8.106858 -1.46438,-10.681906 -0.0134,-4.017614 -0.42771,-4.975337 -2.91999,-6.75 -3.29979,-2.349657 -4.94599,-2.532078 -7.09563,-0.786291 -3.96324,3.218669 -4.26905,4.392072 -2.51838,9.662867 1.24836,3.758463 1.54335,7.216978 1.17586,13.78621 -0.26981,4.82302 -0.74226,15.96912 -1.0499,24.76912 l -0.55934,16 3.47018,0 c 3.29626,0 3.37113,-0.0752 1.49395,-1.5 z M 278.9909,131.51096 c 2.1417,-2.58059 0.35553,-8.4179 -3.16464,-10.34223 -1.67894,-0.9178 -6.71418,-3.85639 -11.18944,-6.5302 -13.12467,-7.84153 -18.82282,-10.39291 -24.90949,-11.15339 -6.99384,-0.87383 -7.57229,0.53298 -1.49415,3.63382 7.26872,3.70822 19.44039,11.64033 29.007,18.90346 5.05478,3.83767 9.4885,6.97758 9.85272,6.97758 0.36421,0 1.21832,-0.67007 1.898,-1.48904 z m 123.61779,-2.71749 c -0.79837,-3.99187 2.93787,-12.1116 8.07899,-17.55756 7.06442,-7.48331 8.9794,-11.658962 5.89046,-12.844298 -2.41608,-0.927136 -5.38553,1.426264 -8.04018,6.372138 -8.4738,15.78752 -10.85201,22.94799 -8.54498,25.72779 2.10256,2.53343 3.30579,1.75232 2.61571,-1.69807 z m -31.78914,-0.94134 c -0.32774,-2.20289 -3.26808,-4.73694 -4.29956,-3.70545 -0.31677,0.31677 -0.12449,1.76335 0.42728,3.21463 1.23171,3.23964 4.33985,3.6336 3.87228,0.49082 z m -235.69416,-2.62549 c 7.25587,-4.27729 15.67178,-10.08944 16.46292,-11.36953 0.4624,-0.74818 0.28434,-0.89644 -0.49681,-0.41366 -1.56414,0.96669 -5.0915,-2.18951 -5.0915,-4.55574 0,-1.54281 -0.89993,-1.28144 -6.25,1.81518 -11.81254,6.83711 -11.12119,6.22947 -9.3342,8.20407 1.99594,2.20549 2.00332,4.04965 0.0275,6.87053 -2.03204,2.90114 -0.95976,2.77499 4.68209,-0.55085 z M 361.02439,121 c 5.01025,0 1.76971,-5.62164 -7.38991,-12.8199 C 348.31888,104.00273 347,103.34039 347,104.84827 c 0,1.03511 -0.87913,2.99965 -1.95363,4.36565 l -1.95363,2.48364 3.56267,3.40122 c 1.95946,1.87067 4.69642,5.17137 6.08212,7.33489 l 2.51945,3.93367 1.95492,-2.68367 C 358.2871,122.20765 360.00272,121 361.02439,121 Z m -235.10772,-1.75 c 0.22916,-0.1375 -0.47233,-0.25 -1.55887,-0.25 -2.7863,0 -5.82683,2.43208 -4.90508,3.9235 0.55666,0.90069 1.46141,0.60867 3.40278,-1.09829 1.45447,-1.27887 2.832,-2.43771 3.06117,-2.57521 z m 379.77252,2.18242 c 0.17281,-0.51841 -1.87289,-1.94592 -4.54599,-3.17222 -2.6731,-1.22631 -8.18636,-5.21255 -12.25169,-8.85832 l -7.39151,-6.62866 -0.91018,3.1675 c -1.18278,4.11618 -0.60174,4.65434 12.41018,11.49429 10.22499,5.37495 12.03948,5.94656 12.68919,3.99741 z m -27.27123,-5.66291 c 1.25409,-3.5879 0.4717,-4.17747 -4.11351,-3.09968 -3.15052,0.74056 -3.85991,1.37256 -4.12712,3.67692 -0.30815,2.6575 -0.15157,2.76849 3.48179,2.46795 3.11046,-0.25729 3.97855,-0.81278 4.75884,-3.04519 z m -56.94364,-0.71985 c 1.94324,-3.75782 1.92468,-5.5078 -0.0797,-7.51218 -1.68516,-1.68515 -5.23705,-1.23291 -6.65458,0.8473 -1.53529,2.25302 1.82549,9.61522 4.38926,9.61522 0.45063,0 1.50589,-1.32765 2.34501,-2.95034 z M 534.98469,116.75 c -0.0194,-1.5816 -1.73372,-4.34782 -2.30609,-3.72104 -0.23658,0.25907 -0.74137,1.48354 -1.12176,2.72104 -0.56276,1.8308 -0.30644,2.25 1.37577,2.25 1.13707,0 2.0605,-0.5625 2.05208,-1.25 z M 58.084869,110.89518 c -0.880954,-2.20233 -0.9632,-2.22744 -1.021483,-0.31185 -0.03486,1.14584 0.236614,2.38334 0.603281,2.75 1.194376,1.19438 1.397514,0.0101 0.418202,-2.43815 z m 286.879951,-2.82944 c 1.82306,-3.40642 1.18575,-4.79927 -6.99093,-15.278997 -4.41436,-5.657708 -10.33657,-13.285979 -13.16047,-16.951712 -4.23897,-5.502636 -5.89616,-6.878257 -9.50257,-7.88799 -5.83091,-1.632553 -6.59541,-0.443499 -2.18355,3.39613 3.33301,2.900711 16.75097,20.973268 24.84032,33.457259 3.59727,5.55153 5.33872,6.3642 6.9972,3.26531 z M 70.954896,88.694236 71,75.888473 68.68582,78.578868 c -2.003995,2.329783 -2.607161,2.533596 -4.5,1.52058 -2.066811,-1.106124 -2.187759,-0.963727 -2.221442,2.615368 C 61.944787,84.796667 61.276816,89.2 60.479999,92.5 c -0.796816,3.3 -1.455787,7.14714 -1.464378,8.5492 -0.01418,2.31425 0.298823,2.51249 3.396155,2.15089 2.780165,-0.32457 3.6452,0.0366 4.672665,1.9508 l 1.260888,2.34911 1.282232,-3 c 0.810283,-1.8958 1.298832,-7.713389 1.327335,-15.805764 z M 526,103.5 c 1.16596,-3.06672 3.38681,-3.21354 5.38816,-0.35622 l 1.50156,2.14379 0.49448,-2.39379 C 534.38621,98.043107 534.81982,77 533.91777,77 533.413,77 533,77.6199 533,78.377555 c 0,2.606408 -2.8156,4.027495 -5.52961,2.790906 C 525.0776,80.078233 525,80.163022 525,83.867814 c 0,2.103715 -0.29238,7.944068 -0.64974,12.978561 C 523.69848,106.02865 524.22747,108.16212 526,103.5 Z M 412.88118,79.722013 c 1.17451,-2.19458 0.57655,-4.76476 -5.76364,-24.773701 -3.89075,-12.278797 -6.90472,-22.494464 -6.6977,-22.701481 0.41279,-0.412791 0.87001,0.956202 9.10219,27.253169 3.09916,9.9 6.30315,19.35 7.11997,21 1.43758,2.903946 1.4661,2.805238 0.89081,-3.082903 C 416.86202,70.551404 406.45794,35.748944 403.13343,29.25 398.7166,20.615744 394.33456,26.358452 396.91868,37.394487 397.97335,41.898688 406,83.682195 406,84.668198 c 0,1.250463 5.79356,-2.913937 6.88118,-4.946185 z m 119.48987,-1.763988 c 2.16209,-4.334015 1.34792,-49.110548 -1.02203,-56.208025 -1.67519,-5.016802 -3.35573,-6.27503 -3.33912,-2.5 0.005,1.2375 -0.73224,15.035199 -1.6393,30.661553 -1.59192,27.424622 -1.58563,28.458047 0.18122,29.75 2.78206,2.034287 4.15508,1.632347 5.81923,-1.703528 z M 69.221787,76.359948 C 70.853466,73.566129 70.870348,72.137817 69.492698,53.440226 68.293386,37.163048 67.622528,32.627418 65.840808,28.75 64.640332,26.1375 63.397547,24.000526 63.079063,24.001169 62.760578,24.001813 62.5,36.167299 62.5,51.035583 c 0,22.940959 0.22707,27.176954 1.5,27.982575 2.106808,1.333371 3.222191,0.765573 5.221787,-2.65821 z M 174.23446,89.473755 c 3.62037,-3.903247 7.64853,-12.924094 6.35067,-14.221963 -0.3519,-0.351898 -3.66423,2.259991 -7.36073,5.804197 -5.77721,5.539186 -5.98399,5.667323 -1.47266,0.912566 C 176.6982,76.755198 178.19001,74 176.06635,74 c -0.51351,0 -3.05489,2.7 -5.64752,6 -2.59262,3.3 -4.90312,6 -5.13444,6 -0.62162,0 3.03259,-4.931914 7.03886,-9.5 2.70337,-3.082478 3.78473,-3.731199 4.71426,-2.828145 0.66341,0.64452 1.78085,0.951342 2.48319,0.681826 4.75245,-1.823684 1.11822,9.718183 -4.78988,15.212098 L 170.5,93.5 174.23446,89.473755 Z M 460.99545,56.25 c -0.002,-4.8125 -0.29062,-13.714024 -0.64027,-19.781165 -0.61677,-10.702484 -0.56281,-11.115922 1.81108,-13.875731 2.3704,-2.755763 2.5404,-2.796154 5.44558,-1.29383 1.64933,0.852904 3.52259,2.700355 4.16279,4.105447 1.22454,2.687562 4.60755,33.468587 3.99988,36.393671 -0.19443,0.935885 -1.12471,-6.267967 -2.0673,-16.00856 -0.94258,-9.740592 -2.21193,-18.803469 -2.82077,-20.139728 -0.60884,-1.336258 -2.28366,-2.965688 -3.72181,-3.620956 -2.29364,-1.045052 -2.8362,-0.918015 -4.41703,1.034224 -1.65568,2.044676 -1.74669,3.839881 -1.11949,22.081124 C 462.0036,56.065023 462.01588,65 461.65541,65 c -0.36048,0 -0.65746,-3.9375 -0.65996,-8.75 z M 467.7746,54 c -0.39898,-4.675 -0.94286,-10.975 -1.20862,-14 -0.26577,-3.025 0.18436,-1.225 1.00029,4 0.81592,5.225 1.3598,11.525 1.20861,14 -0.2029,3.321675 -0.46483,2.274276 -1.00028,-4 z M 437.97994,17.475834 c -1.66125,-2.001692 -0.47306,-3.129978 1.53828,-1.460716 1.23582,1.025645 1.82149,1.041516 2.77416,0.07518 0.94518,-0.958738 0.82731,-1.505914 -0.54238,-2.517861 C 439.60362,11.986668 439.50774,11 441.5,11 c 0.825,0 1.5,-0.50625 1.5,-1.125 0,-0.7264311 -1.10605,-0.9037899 -3.12194,-0.5006128 -2.73858,0.5477168 -2.96398,0.4340647 -1.83559,-0.925558 0.71564,-0.8623006 2.43346,-1.4166005 3.87193,-1.2493873 2.32245,0.2699688 2.60291,0.7579177 2.75569,4.7943861 0.0935,2.471605 -0.29906,5.059105 -0.87245,5.75 -1.42119,1.712427 -4.28352,1.580573 -5.8177,-0.267994 z m 9.08772,-0.349408 c -2.541,-4.747904 -0.2546,-10.5787032 3.91004,-9.9713958 3.41136,0.4974617 3.81429,2.7876426 0.44727,2.5422367 -1.4886,-0.1084968 -2.88054,0.2897907 -3.09321,0.8850831 -0.21266,0.595293 0.57924,1.045293 1.75979,1 2.88927,-0.110849 4.76727,2.82893 3.30121,5.16765 -1.59802,2.549229 -5.05223,2.754799 -6.3251,0.376426 z M 452,15.559017 c 0,-0.792541 -0.48921,-1.743331 -1.08713,-2.112868 -1.41202,-0.872677 -3.3394,1.054697 -2.46672,2.466719 C 449.42636,17.498889 452,17.242637 452,15.559017 Z m 4.05792,2.010771 c -1.70196,-2.050731 -0.913,-8.6448199 1.19208,-9.9633964 2.71574,-1.7010833 5.19483,0.4439324 5.56453,4.8146734 C 463.15998,16.505274 461.71352,19 459,19 c -0.96531,0 -2.28925,-0.643595 -2.94208,-1.430212 z M 460.5,12.916667 C 460.5,10.546296 460.04065,9.5 459,9.5 c -1.60103,0 -2.53827,3.65492 -1.57856,6.155884 1.0143,2.643218 3.07856,0.806497 3.07856,-2.739217 z m 4.88999,-1.34276 c -0.9098,-2.3708913 0.3775,-4.7653327 2.35699,-4.3841185 C 468.854,7.4029816 469.5,8.4385634 469.5,10 c 0,2.850627 -3.15628,4.059306 -4.11001,1.573907 z M 467.66228,8.75 c -0.27741,-0.6875 -0.50439,-0.125 -0.50439,1.25 0,1.375 0.22698,1.9375 0.50439,1.25 0.27741,-0.6875 0.27741,-1.8125 0,-2.5 z"
       id="path2989"
       style="fill:#000000"
       inkscape:connector-curvature="0" />
  </g>
</svg>
