<?xml version="1.0" encoding="UTF-8" standalone="no"?>
<!-- Created with Inkscape (http://www.inkscape.org/) -->

<svg
   xmlns:dc="http://purl.org/dc/elements/1.1/"
   xmlns:cc="http://creativecommons.org/ns#"
   xmlns:rdf="http://www.w3.org/1999/02/22-rdf-syntax-ns#"
   xmlns:svg="http://www.w3.org/2000/svg"
   xmlns="http://www.w3.org/2000/svg"
   xmlns:sodipodi="http://sodipodi.sourceforge.net/DTD/sodipodi-0.dtd"
   xmlns:inkscape="http://www.inkscape.org/namespaces/inkscape"
   version="1.1"
   width="806"
   height="302"
   id="svg2"
   inkscape:version="0.91 r13725"
   sodipodi:docname="ub550504.svg">
  <sodipodi:namedview
     pagecolor="#ffffff"
     bordercolor="#666666"
     borderopacity="1"
     objecttolerance="10"
     gridtolerance="10"
     guidetolerance="10"
     inkscape:pageopacity="0"
     inkscape:pageshadow="2"
     inkscape:window-width="792"
     inkscape:window-height="480"
     id="namedview11"
     showgrid="false"
     inkscape:zoom="0.37841191"
     inkscape:cx="574.77049"
     inkscape:cy="193.28197"
     inkscape:window-x="0"
     inkscape:window-y="0"
     inkscape:window-maximized="0"
     inkscape:current-layer="svg2" />
  <metadata
     id="metadata8">
    <rdf:RDF>
      <cc:Work
         rdf:about="">
        <dc:format>image/svg+xml</dc:format>
        <dc:type
           rdf:resource="http://purl.org/dc/dcmitype/StillImage" />
        <dc:title></dc:title>
      </cc:Work>
    </rdf:RDF>
  </metadata>
  <defs
     id="defs6" />
  <g
     id="g2987"
     transform="translate(7.7073209,6.0443168)">
    <path
       d="m 174.24346,228.75 c -0.55079,-0.6875 -1.98688,-3.20532 -3.19131,-5.59516 -2.08911,-4.14519 -2.10957,-4.43391 -0.44465,-6.27363 0.95988,-1.06066 2.081,-1.58033 2.49138,-1.15484 0.65349,0.67757 3.90112,12.05596 3.90112,13.66797 0,1.0555 -1.7161,0.65436 -2.75654,-0.64434 z m -16.42074,-25.8974 c -11.13738,-15.904 -11.77686,-17.27159 -8.81684,-18.85575 3.92375,-2.09993 7.46163,1.53308 15.54714,15.96518 4.09584,7.31079 7.44698,13.40836 7.44698,13.55015 0,0.14179 -1.0125,0.91067 -2.25,1.70861 -2.19253,1.41376 -2.49717,1.09786 -11.92728,-12.36819 z M 768,196.94293 c -3.025,-1.58996 -10.4287,-5.94005 -16.45266,-9.66688 -11.01781,-6.81635 -15.26085,-11.25311 -13.97252,-14.61044 1.58465,-4.12951 4.25916,-2.92413 18.67207,8.41536 8.83618,6.95196 16.81846,12.35451 21.00311,14.2153 3.7125,1.65083 6.75,3.38452 6.75,3.85262 0,0.46811 -2.3625,0.81371 -5.25,0.76799 -3.73677,-0.0592 -6.83529,-0.91636 -10.75,-2.97395 z m -633.5,-29.709 c -2.3038,-1.69431 -15.78305,-30.94096 -14.59775,-31.67352 0.40711,-0.2516 3.98732,5.10355 7.95604,11.90034 3.96871,6.79679 8.32416,13.084 9.67877,13.97158 2.95747,1.93781 3.1661,4.12098 0.52868,5.53249 -2.27588,1.21801 -2.27553,1.21798 -3.56574,0.26911 z M 535.11866,163.75 c -0.57005,-1.7875 -2.64994,-9.775 -4.62197,-17.75 -1.97203,-7.975 -3.80902,-15.25021 -4.08219,-16.16712 -0.3816,-1.28088 -0.0162,-1.54147 1.5773,-1.12477 1.23157,0.32206 2.87295,-0.18073 4.04108,-1.23787 1.08192,-0.97912 1.96712,-1.30226 1.96712,-0.71808 0,0.58417 1.1243,8.79087 2.49844,18.23711 2.32724,15.99808 2.45582,22.01073 0.4707,22.01073 -0.44772,0 -1.28044,-1.4625 -1.85048,-3.25 z M 128.2,162.8 c -0.66,-0.66 -1.19832,-2.3475 -1.19626,-3.75 0.004,-2.49243 0.0488,-2.47607 2,0.72417 1.09794,1.80079 1.99626,3.48829 1.99626,3.75 0,0.89188 -1.59698,0.47885 -2.8,-0.72417 z m -75.7,-2.84249 c -6.861241,-1.91605 -25.735831,-7.86001 -26.092986,-8.21716 -0.212399,-0.2124 -0.664376,-1.77716 -1.004392,-3.47724 l -0.61821,-3.09105 7.357794,1.94523 c 4.046787,1.06988 9.672316,2.04367 12.501176,2.16397 2.828859,0.12031 4.939802,0.55624 4.690983,0.96874 -0.24882,0.4125 1.124065,0.75 3.050854,0.75 2.244,0 4.493802,0.85203 6.258967,2.37037 2.696148,2.31912 2.71847,2.4272 1.032711,5 -1.824372,2.78434 -2.418947,2.91583 -7.176897,1.58714 z m 168.89534,-2.57134 C 220.31584,156.94061 220.68297,152 221.79558,152 c 1.36586,0 7.20442,2.46396 7.20442,3.04037 0,0.69503 -4.65622,3.00881 -5.79705,2.88068 -0.38662,-0.0434 -1.20005,-0.28412 -1.80761,-0.53488 z M 716.75,155.30445 c -0.9625,-0.2481 -1.75,-0.81761 -1.75,-1.26556 0,-1.34005 -7.00126,-11.27742 -10.62519,-15.08105 C 702.51866,137.00965 701,134.45514 701,133.28116 c 0,-1.19198 -0.77274,-2.33645 -1.75,-2.59183 -1.56908,-0.41005 -1.57576,-0.46932 -0.0646,-0.57333 0.92711,-0.0638 4.30155,2.90965 7.5,6.6088 7.81672,9.04035 11.42404,12.7086 13.81458,14.04789 1.58798,0.88966 1.77927,1.47976 0.92856,2.86438 -1.21263,1.97369 -2.16859,2.31438 -4.67856,1.66738 z M 82.568579,153.6738 c -2.763103,-2.02043 -1.185063,-5.31935 3.229199,-6.7507 C 87.834,146.26284 93.1,143.87503 97.5,141.61685 c 20.35098,-10.4446 23.35557,-10.51998 7.1342,-0.17901 -5.701197,3.63446 -11.212635,7.54384 -12.247644,8.68751 C 90.791054,151.88836 85.910527,155 84.74079,155 c -0.197192,0 -1.174687,-0.59679 -2.172211,-1.3262 z m 9.98091,-1.59373 c -0.3127,-0.50595 0.644985,-1.87448 2.128188,-3.04117 2.399939,-1.88779 2.79488,-1.94587 3.588519,-0.52772 1.64264,2.93524 -3.950362,6.4269 -5.716707,3.56889 z m 120.891431,-7.07923 c -7.11751,-4.39953 -13.27842,-7.99953 -13.69092,-8 C 199.3375,137.00038 199,136.55 199,136 c 0,-1.97561 3.21738,-0.90645 14.90901,4.95439 9.70554,4.86523 12.4977,5.85387 15.26472,5.40484 2.87749,-0.46695 3.58753,-0.17384 4.72431,1.95026 1.79834,3.36022 0.73021,4.69051 -3.76614,4.69051 -2.94235,0 -6.53734,-1.7229 -16.69098,-7.99916 z M 16.5,148.42691 c -6.222518,-2.58085 -10.4236764,-5.83657 -9.1609198,-7.09932 0.7539525,-0.75396 13.6840358,2.30597 14.7818118,3.49813 1.027725,1.11609 1.975421,6.17748 1.14816,6.13201 C 22.846073,150.93448 19.8,149.79561 16.5,148.42691 Z m 305.5,1.11252 c 0,-0.80332 0.5625,-1.9117 1.25,-2.46308 9.57162,-7.67644 19.7541,-17.75904 21.22165,-21.01348 2.00458,-4.44536 3.78525,-5.53093 6.60079,-4.0241 3.17125,1.6972 1.68501,7.96123 -1.88893,7.96123 -0.96036,0 -4.43203,2.72943 -7.71481,6.0654 C 336.16705,141.45295 324.08643,151 322.57081,151 322.25686,151 322,150.34274 322,149.53943 Z m 396.08938,-1.47201 c -1.82315,-1.3752 -2.2279,-2.37936 -1.74101,-4.31929 1.3089,-5.21506 6.65163,-3.75276 6.65163,1.82055 0,3.4954 -2.1434,4.58606 -4.91062,2.49874 z M 42.5,148.35147 c -14.896815,-3.1025 -18.767095,-4.41771 -17.304374,-5.88043 0.32845,-0.32845 18.018415,4.62308 21.304374,5.96323 1.272906,0.51914 -1.372693,0.46437 -4,-0.0828 z m -25.219006,-6.26325 c -5.24811,-1.59708 -8.1695619,-3.53299 -7.038479,-4.66407 1.037505,-1.0375 11.818675,2.57173 12.428415,4.16069 0.845924,2.20444 0.351587,2.25061 -5.389936,0.50338 z M 255.6952,141.75 c -1.49309,-1.10628 -1.5261,-1.55806 -0.28711,-3.92931 0.76998,-1.47362 1.25722,-2.82362 1.08277,-3 -0.17446,-0.17638 7.74373,-5.44741 17.59597,-11.7134 9.85225,-6.266 17.91317,-11.8005 17.91317,-12.2989 0,-1.10456 7.81928,-4.75592 10.25,-4.78643 0.9625,-0.0121 1.75,0.54479 1.75,1.23749 0,0.6927 -0.7875,1.75888 -1.75,2.36929 -0.9625,0.6104 -10.68868,8.36865 -21.61374,17.24054 C 269.71121,135.74118 260.00971,143 259.07739,143 c -0.93232,0 -2.45431,-0.5625 -3.38219,-1.25 z m 88.85194,-7.7992 c 3.05623,-3.19002 4.2258,-3.26357 2.56555,-0.16136 -0.57715,1.0784 -2.02209,2.21511 -3.21098,2.52601 -1.9683,0.51473 -1.91058,0.30325 0.64543,-2.36465 z M 653.5,133.10511 c -22.43719,-4.66181 -20.89075,-4.10223 -18.95891,-6.86031 2.2956,-3.27743 6.98441,-2.84282 27.95891,2.59153 13.26059,3.43572 18,5.05862 18,6.16367 0,2.61584 -7.98827,2.05522 -27,-1.89489 z m -65.07346,0.50135 c -5.91424,-1.07745 -11.51123,-3.77685 -10.34907,-4.99129 0.31761,-0.3319 4.44051,0.24073 9.162,1.27251 6.23576,1.36269 9.77142,1.6466 12.92252,1.03769 C 605.74728,129.84608 611,129.7809 611,130.79088 c 0,0.9391 -12.02198,4.27216 -14.66413,4.06558 -1.00973,-0.0789 -4.56893,-0.64144 -7.90933,-1.25 z m -249.39327,-2.73402 c -0.035,-1.71303 2.65833,-4.51417 3.5159,-3.6566 0.27546,0.27546 -0.39544,1.57708 -1.4909,2.8925 -1.54056,1.8499 -1.99927,2.02298 -2.025,0.7641 z M 98.7411,125.03727 C 87.269686,120.75085 84,119.13074 84,117.73316 c 0,-2.60026 2.907369,-3.31923 5.906823,-1.46071 1.426247,0.88373 7.655677,4.2589 13.843177,7.50037 l 11.25,5.89359 -0.008,-7.0832 c -0.004,-3.89577 -0.46538,-9.90434 -1.02493,-13.35238 -1.1919,-7.34465 -0.127,-10.53653 3.35014,-10.041514 1.88959,0.269007 2.14138,0.847274 1.87703,4.310684 -1.35713,17.78036 -1.29245,24.52526 0.24084,25.11363 2.71464,1.04171 1.70352,1.93182 -2.19443,1.93182 -2.10611,0 -10.24059,-2.42195 -18.5,-5.50818 z m 398.26726,2.98906 c -2.58396,-1.63363 -0.99074,-2.49567 17.59302,-9.51895 l 6.10139,-2.30587 -0.0395,2.64924 c -0.0217,1.45709 0.15766,3.27696 0.39862,4.04417 0.31978,1.01817 -1.99261,2.02431 -8.56189,3.72533 -9.81583,2.54167 -13.2084,2.84959 -15.49164,1.40608 z m 102.54834,-1.24884 c -3.63621,-5.19142 0.0475,-10.5773 5.01036,-7.32551 2.65812,1.74167 2.93894,3.08693 1.45769,6.98292 -1.21573,3.19762 -4.35196,3.36374 -6.46805,0.34259 z m 40.1174,-6.15213 c -1.87636,-2.86368 -2.09297,-4.24845 -0.79046,-5.05345 0.7082,-0.43769 37.11002,-3.53708 41.86636,-3.56466 1.46326,-0.008 1.68714,2.60455 0.29678,3.46384 -0.52427,0.32402 -8.28677,1.89477 -17.25,3.49055 -8.96323,1.59579 -17.68094,3.19782 -19.37268,3.56008 -2.58037,0.55253 -3.3456,0.24703 -4.75,-1.89636 z M 580,121.19927 c 0,-1.63581 8.86923,-5.03145 16.06608,-6.15101 6.04878,-0.94096 8.27239,-0.89525 11.93392,0.24534 l 4.5,1.40177 -2.75,1.31283 c -2.13796,1.02065 -3.31687,1.05455 -5.29705,0.15232 -3.91033,-1.78167 -8.5036,-1.39837 -16.05182,1.33948 C 580.89861,122.22128 580,122.40303 580,121.19927 Z m -487.108337,-4.141 c -1.849898,-1.54056 -2.022986,-1.99927 -0.764108,-2.025 1.713034,-0.035 4.514174,2.65833 3.656608,3.5159 -0.275461,0.27546 -1.577086,-0.39544 -2.8925,-1.4909 z M 109.0318,110.25 c 0.0175,-1.5125 0.63928,-3.55073 1.38174,-4.52939 1.21285,-1.5987 1.41271,-1.61578 1.96819,-0.16821 0.34005,0.88615 0.61827,2.92437 0.61827,4.52939 0,2.25154 -0.4569,2.91821 -2,2.91821 -1.52286,0 -1.99241,-0.65607 -1.9682,-2.75 z M 549,109.38321 c 0,-1.81846 1.53892,-4.36112 4.75,-7.84812 2.6125,-2.836984 6.44589,-8.392964 8.51864,-12.346622 C 564.3414,85.234811 566.4789,82 567.01864,82 c 1.52651,0 1.21983,1.257116 -2.26864,9.299502 -2.30518,5.314399 -5.06697,9.423118 -9.5,14.133138 -5.80528,6.16802 -6.25,6.44913 -6.25,3.95057 z m -98.6579,0.0659 c -0.33274,-0.8671 0.30468,-2.52047 1.44573,-3.75 1.1415,-1.23002 2.5767,-4.95378 3.25681,-8.450084 1.15394,-5.932161 1.0818,-6.560278 -1.41435,-12.315913 C 452.18363,81.5974 451,77.960334 451,76.850753 c 0,-4.006797 2.28519,-1.111667 5.67163,7.185439 2.55197,6.252599 3.31283,9.378199 2.9123,11.963808 -1.16057,7.49216 -2.36078,12.02619 -3.56876,13.48172 -1.63489,1.96992 -4.91185,1.95109 -5.67307,-0.0326 z m -86.83926,-1.44017 c -0.34756,-1.09508 -0.35784,-2.43454 -0.0228,-2.97658 0.54518,-0.88213 1.47585,-5.528653 1.75024,-8.738381 0.0567,-0.663307 0.55457,-0.926986 1.10637,-0.585955 0.60395,0.373266 0.74118,-0.06293 0.34478,-1.095927 -0.36773,-0.95831 -0.24872,-1.462738 0.26954,-1.142432 0.51042,0.315453 0.88005,-0.223675 0.82141,-1.198062 -0.201,-3.339903 12.36586,-29.21011 15.44982,-31.805097 3.16785,-2.665566 4.33014,-2.99992 5.25069,-1.510448 0.32498,0.525837 -0.57977,1.723111 -2.01058,2.660608 -1.44981,0.949956 -4.39658,5.28564 -6.65649,9.793932 C 377.57551,75.859774 374.9859,80.625 374.05109,82 c -3.10277,4.563858 -6.22103,10 -5.73615,10 0.75957,0 9.1427,-13.869064 12.69341,-21 3.12412,-6.274208 8.15486,-11.875256 10.74165,-11.959359 1.83505,-0.05966 1.52408,1.999406 -0.89999,5.959359 -1.17839,1.925 -6.36985,12.484653 -11.53658,23.465896 -5.16673,10.981243 -9.93841,20.311854 -10.60374,20.734684 -2.17765,1.38396 -4.56263,0.83813 -5.20685,-1.19163 z M 459.01365,105.25 c 0.0234,-4.71111 1.11003,-7.25 3.10298,-7.25 2.61385,0 2.51537,4.94451 -0.15559,7.81144 -2.63001,2.82299 -2.96387,2.75939 -2.94739,-0.56144 z m -395.347472,1.08285 c -0.366935,-0.36694 -1.499712,-0.7285 -2.517282,-0.80346 -1.01757,-0.075 -4.729851,-2.6521 -8.249512,-5.726961 -3.519661,-3.074861 -7.726861,-6.704969 -9.349334,-8.066908 -2.92825,-2.458036 -2.93682,-2.49629 -1.165033,-5.200378 1.778244,-2.713945 1.793009,-2.716873 3.94995,-0.783437 2.107174,1.888826 14.377282,10.288599 19.92531,13.640311 2.677821,1.617743 2.714394,1.756283 1.22432,4.637773 -1.529438,2.9576 -2.548955,3.57252 -3.818419,2.30306 z m 364.567982,-3.28924 c -3.05143,-2.54508 -4.06409,-8.283154 -4.86471,-27.565055 -0.61869,-14.900272 -0.51887,-16.352347 1.42642,-20.75 2.99026,-6.759973 4.63155,-6.223102 3.78733,1.238845 -0.79258,7.005438 2.75733,35.856642 4.92846,40.055141 1.43354,2.772163 0.96504,6.936249 -0.92394,8.212149 -1.51311,1.02201 -1.79148,0.94586 -4.35356,-1.19108 z m 107.80077,-6.80764 c 1.01806,-2.604784 2.0792,-5.501688 2.35809,-6.437565 0.67061,-2.250425 15.52246,-12.044816 17.25574,-11.379693 2.5388,0.974227 1.34985,2.354182 -5.57063,6.465562 -5.68972,3.380202 -7.14181,4.780047 -8.15747,7.863966 -1.18657,3.602894 -2.48777,5.15581 -6.0787,7.25462 -1.48828,0.86985 -1.46852,0.48415 0.19297,-3.76689 z M 432.74503,90.75 c -0.28417,-1.7875 -1.3117,-9.775 -2.28342,-17.75 l -1.76675,-14.5 2.25135,-3.75 c 1.23824,-2.0625 2.70697,-3.75 3.26386,-3.75 0.65647,0 0.70964,1.318669 0.15122,3.75 -0.47371,2.0625 -0.73336,11.7375 -0.577,21.5 0.15636,9.7625 0.10273,17.75 -0.11916,17.75 -0.22189,0 -0.63594,-1.4625 -0.9201,-3.25 z M 33.965936,82.71148 c -6.521783,-6.119853 -9.716319,-14.809598 -3.703963,-10.075484 1.302014,1.025202 4.500647,3.742684 7.108072,6.038849 4.31158,3.796886 4.623447,4.362713 3.444817,6.25 -0.712775,1.141335 -1.52521,2.067531 -1.805409,2.058212 -0.280199,-0.0093 -2.549782,-1.931528 -5.043517,-4.271577 z M 113.4247,71.854391 c -1.38085,-2.670272 -1.60479,-6.712497 -1.48198,-26.75 0.13009,-21.224817 0.3554,-24.184052 2.23497,-29.354391 1.14966,-3.1625 2.48,-5.75 2.9563,-5.75 0.47631,0 0.86601,2.591976 0.86601,5.759946 0,5.758614 2.46096,39.136502 3.60747,48.928034 0.54528,4.656766 0.34515,5.450314 -1.95454,7.75 -3.31752,3.317519 -4.25638,3.229547 -6.22823,-0.583589 z"
       id="path2997"
       style="fill:#fefefe"
       inkscape:connector-curvature="0" />
    <path
       d="M 101.34157,231.52053 C 80.992966,227.82808 63.157109,218.2669 49.191455,203.5647 40.599235,194.51933 36.842758,189.07525 31.866919,178.45709 25.271156,164.38209 23.674269,156.7887 23.674269,139.5 c 0,-17.2887 1.596887,-24.88209 8.19265,-38.95709 4.975839,-10.618158 8.732316,-16.06224 17.324536,-25.107613 7.242796,-7.624781 21.809803,-18.476607 21.806757,-16.245145 -9.84e-4,0.720416 -2.138484,2.653677 -4.75,4.296136 C 59.044639,68.016823 45.805874,81.195498 40.472001,89.145502 35.054358,97.220361 30.13846,108.28376 27.428651,118.5 c -2.603567,9.8157 -2.603567,32.1843 0,42 7.314854,27.57771 25.20981,49.2915 50.642973,61.45034 14.07046,6.72666 21.953736,8.38146 39.928376,8.38146 18.30867,0 25.90411,-1.65098 41,-8.91192 8.24275,-3.96467 10.6884,-5.78367 18.47975,-13.74464 7.80421,-7.97411 8.68785,-9.21707 6.75,-9.49479 C 183.00339,198.0047 182,197.52554 182,197.11566 182,196.17282 188.57891,193 190.53393,193 c 1.84374,0 1.83222,0.56912 -0.12793,6.32186 -1.57967,4.63606 -3.406,6.23984 -3.406,2.99096 0,-1.04478 -3.71242,1.95194 -9.75,7.87032 -5.53824,5.42891 -11.90988,10.63991 -14.75,12.0632 -18.7184,9.38046 -41.51891,12.83798 -61.15843,9.27419 z M 758.04059,167.60676 C 756.3998,163.29116 755.71948,158 756.80538,158 c 0.56537,0 1.25493,0.5625 1.53234,1.25 0.27741,0.6875 0.53991,0.0752 0.58333,-1.36076 0.14846,-4.90952 -4.14735,-23.38273 -6.53585,-28.106 C 749.78191,124.63521 749.60688,124 750.79168,124 c 1.97838,0 6.34425,11.88253 8.44002,22.97108 1.97365,10.44242 2.49562,11.92947 4.0183,11.44777 1.85631,-0.58726 2.44083,1.03616 0.74945,2.08149 -0.5503,0.3401 -1.50372,2.61666 -2.11871,5.05902 -1.2492,4.96099 -2.48242,5.61849 -3.84015,2.0474 z M 430.82772,132.53402 c -4.68363,-1.29027 -9.37019,-4.07287 -11.80903,-7.01151 -2.08568,-2.51308 -0.37773,-2.93762 2.16519,-0.5382 5.58245,5.26741 17.0524,7.97345 25.81612,6.09065 5.87604,-1.2624 13.77494,-4.96059 10.75,-5.03304 -3.13471,-0.0751 -1.84566,-1.69668 2.34736,-2.95294 2.25354,-0.67518 4.2737,-1.05125 4.48924,-0.83571 0.21554,0.21554 -0.34653,2.27173 -1.24904,4.56931 -1.64835,4.19629 -3.33756,5.52278 -3.33756,2.62088 0,-1.4011 -0.27461,-1.40424 -2.75,-0.0314 -8.5322,4.73194 -16.96239,5.72801 -26.42228,3.12195 z m 113.32812,-13.40434 c -2.48516,-0.93229 -7.00512,-4.19727 -10.56233,-7.62968 -5.49947,-5.30653 -6.36673,-6.67804 -7.50362,-11.866498 -1.12556,-5.136737 -1.08967,-6.062293 0.28851,-7.440476 1.90285,-1.902847 3.40396,-0.840641 1.705,1.206479 -1.44873,1.745622 -0.0242,8.005135 2.92574,12.855925 2.7883,4.58499 9.50203,9.48828 15.64151,11.42358 5.09768,1.6069 5.49337,1.60552 7.12342,-0.025 1.30987,-1.31021 1.42749,-1.9109 0.48791,-2.49183 -0.97561,-0.6032 -0.98213,-1.44337 -0.0308,-3.96383 1.70374,-4.51372 1.94963,-4.379 5.57003,3.05161 0.20098,0.4125 -0.34708,0.75 -1.21792,0.75 -0.87083,0 -1.58333,0.45 -1.58333,1 0,1.8798 -3.99665,5.00018 -6.25,4.87968 -1.2375,-0.0662 -4.20487,-0.85368 -6.59416,-1.75 z M 533.49529,74.25 c 0.3901,-0.9625 1.15727,-2.9875 1.70482,-4.5 C 536.28946,66.740868 538,66.047468 538,68.61501 c 0,1.430079 0.25764,1.451953 2.25,0.191029 5.59331,-3.539897 11.89606,-5.065293 18.61393,-4.504954 3.64984,0.304435 8.24936,1.036894 10.22116,1.627687 3.95427,1.184783 11.81378,7.462916 10.73103,8.571887 -0.37614,0.385244 -1.72614,-0.282991 -3,-1.484967 -5.58245,-5.267411 -17.0524,-7.973453 -25.81612,-6.090656 -5.87604,1.262409 -13.77494,4.960596 -10.75,5.033048 3.06646,0.07345 1.88369,1.685288 -2.11602,2.883628 -5.08708,1.524128 -5.47612,1.474502 -4.63869,-0.591712 z"
       id="path2993"
       style="fill:#fe0000"
       inkscape:connector-curvature="0" />
    <path
       d="M 141.84084,182.74063 C 136.96723,177.09555 134,172.08132 134,169.49064 c 0,-0.88477 0.46979,-1.31833 1.04398,-0.96346 1.46491,0.90536 5.95602,-2.24102 5.95602,-4.17268 0,-2.73393 2.84706,0.40173 5.97954,6.58567 1.54898,3.05791 4.21226,7.30921 5.9184,9.44733 3.75415,4.7047 3.84153,5.14313 0.60206,3.02054 -2.32121,-1.52091 -2.6844,-1.51723 -5.07842,0.0514 -1.51473,0.99249 -2.35275,2.27754 -2.03139,3.11501 0.86503,2.25424 0.28385,1.76446 -4.54935,-3.83381 z m 593.72367,-6.00182 C 734.6871,175.39971 730.38307,171.24225 726,167.5 c -4.38307,-3.74225 -8.70182,-7.92217 -9.59721,-9.28871 -1.59793,-2.43875 -1.58234,-2.47317 0.84426,-1.86413 2.89821,0.7274 6.3514,-2.34524 5.40562,-4.80991 -1.2816,-3.3398 2.30937,-1.29322 6.51448,3.71275 8.84488,10.52938 11.30992,14.09098 10.04452,14.51278 -2.24501,0.74833 -3.37841,4.05715 -2.16583,6.32287 1.6099,3.00813 0.40874,3.53775 -1.48133,0.65316 z M 60.507355,158.62912 c 1.639407,-2.50205 1.64556,-2.80267 0.09249,-4.51879 -1.584853,-1.75124 -1.472473,-1.86408 2.369814,-2.37944 2.218461,-0.29755 6.464415,-1.54854 9.435454,-2.77997 5.923863,-2.4553 9.095444,-2.10341 8.141159,0.90328 -0.809103,2.54926 0.331641,5.1458 2.260713,5.1458 4.390869,0 -1.44956,1.87222 -10.771535,3.45295 -5.755501,0.97596 -11.099001,2.01794 -11.874445,2.31551 -1.053958,0.40444 -0.966521,-0.13565 0.346346,-2.13934 z M 234.75,153.42648 c 1.9544,-0.9274 1.47308,-3.89372 -1.07855,-6.64698 -2.30234,-2.48426 -2.30608,-2.52658 -0.33292,-3.75884 1.09759,-0.68546 5.64268,-2.2497 10.1002,-3.47608 4.45751,-1.22639 9.08175,-2.75277 10.27609,-3.39196 2.11597,-1.13243 2.13437,-1.09169 0.71943,1.59261 -1.36512,2.58977 -1.29862,2.87936 1.11024,4.83492 l 2.56233,2.08015 -9.00979,4.18613 c -4.95538,2.30236 -10.49191,4.40821 -12.3034,4.67966 -1.8115,0.27145 -2.73113,0.22662 -2.04363,-0.0996 z M 611.5,130 c -0.33992,-0.55 -1.69307,-1 -3.007,-1 -2.21635,0 -2.31393,-0.21523 -1.35056,-2.97875 0.57112,-1.63831 0.85287,-3.53532 0.62611,-4.21559 -0.22675,-0.68026 1.19506,-2.3451 3.15959,-3.69965 3.22273,-2.22208 4.7154,-2.4893 15.27108,-2.73386 9.5679,-0.22167 11.60353,-0.0217 11.17401,1.09761 -0.28886,0.75277 0.23574,2.53002 1.16579,3.94945 1.62755,2.48395 1.61436,2.58079 -0.35143,2.58079 -1.12334,0 -2.99749,1.21416 -4.16479,2.69814 -1.78148,2.26479 -2.79695,2.65917 -6.32258,2.45554 -2.31012,-0.13343 -6.45022,0.44754 -9.20022,1.29104 -5.94387,1.82314 -6.20368,1.84375 -7,0.55528 z m -257.86133,-3.94333 c 0.46067,-2.30337 0.0867,-3.19051 -1.89132,-4.48656 -1.44825,-0.94893 -3.24573,-1.33512 -4.35645,-0.936 -1.03999,0.37372 1.75913,-3.10357 6.22029,-7.72731 4.46115,-4.62374 8.43974,-9.45321 8.8413,-10.73216 0.40157,-1.27895 0.91606,-2.13942 1.14333,-1.91216 0.22726,0.22726 -0.0717,1.80428 -0.66443,3.50448 -1.46878,4.21335 0.28849,7.61532 3.60605,6.98113 2.33372,-0.44612 2.3423,-0.41622 0.75956,2.64448 -2.78324,5.38217 -9.19922,13.24185 -11.76318,14.41007 -2.36226,1.07631 -2.44446,1.00058 -1.89515,-1.74597 z M 524.25,124.25021 c -1.7875,-2.02514 -3.25,-4.23895 -3.25,-4.91958 0,-0.68063 2.07519,-3.28335 4.61153,-5.78381 l 4.61154,-4.54629 4.87525,4.08179 4.87526,4.08179 -4.67752,5.41795 c -2.57263,2.97987 -5.37918,5.4027 -6.23679,5.38408 -0.8576,-0.0186 -3.02177,-1.69079 -4.80927,-3.71593 z M 76.372654,117.09347 c -3.37004,-2.13815 -6.442964,-4.39822 -6.82872,-5.02238 -0.385755,-0.62417 -2.708257,-2.0782 -5.161115,-3.23118 -2.452858,-1.15297 -4.255974,-2.30009 -4.006926,-2.54914 0.249048,-0.24904 1.473704,0.0936 2.721457,0.76133 1.954641,1.04609 2.509217,0.91704 4.006773,-0.93236 0.955971,-1.18057 1.887342,-2.59413 2.069711,-3.14124 0.41294,-1.23882 15.874267,6.41266 17.558298,8.68922 1.032744,1.39612 0.870919,1.84841 -1,2.79494 -1.501365,0.75957 -2.219226,2.01454 -2.192711,3.83331 0.02168,1.48722 -0.203319,2.69975 -0.5,2.69453 -0.296682,-0.005 -3.296727,-1.75889 -6.666767,-3.89703 z M 442.5,115.10581 c -4.92175,-1.27589 -11.16995,-4.87077 -13.40547,-7.71277 -2.62253,-3.33401 -2.73944,-5.28665 -0.17772,-2.96832 1.52918,1.38388 2.3381,1.50923 4,0.6198 1.14576,-0.61319 2.08319,-2.00664 2.08319,-3.09655 0,-1.90371 0.19537,-1.88266 4.96676,0.53518 2.73171,1.38427 6.07893,2.51685 7.43826,2.51685 2.04531,0 2.43904,0.44995 2.28324,2.60926 -0.24977,3.46176 2.53,5.36004 5.30828,3.62497 2.87518,-1.79558 2.50139,0.39341 -0.39077,2.28842 -2.95676,1.93735 -8.12981,2.61386 -12.10577,1.58316 z m 94.8875,-2.15616 c -2.13812,-1.67769 -4.41991,-3.74755 -5.07064,-4.59969 -1.73335,-2.26985 0.0739,-5.34999 5.01489,-8.54694 l 4.16825,-2.696981 0.81498,2.391927 c 0.44824,1.315564 2.14086,2.978814 3.76138,3.696134 1.75968,0.7789 2.74043,1.84095 2.43502,2.63684 -0.28126,0.73295 -0.51138,2.63427 -0.51138,4.22517 0,2.19169 -0.71485,3.26219 -2.95034,4.41821 -3.72155,1.92449 -3.11175,2.04583 -7.66216,-1.52467 z M 111.45621,99.681568 c -0.35973,-1.433299 -0.14817,-6.407493 0.47013,-11.053765 0.77321,-5.810305 0.81172,-9.802755 0.12337,-12.787785 -1.43945,-6.24214 -1.28744,-6.742189 0.93933,-3.090018 2.31906,3.803536 2.89273,3.917441 6.28618,1.248153 l 2.54493,-2.001847 0.71487,8.581928 c 0.99421,11.935264 -0.66755,22.252416 -2.98117,18.508898 -1.11304,-1.800938 -4.34275,-1.226608 -5.94201,1.056648 l -1.50156,2.14379 -0.65407,-2.606002 z"
       id="path2991"
       style="fill:#0000fe"
       inkscape:connector-curvature="0" />
    <path
       d="m 34.263735,280.2512 19.763734,-0.29357 -0.528757,-2.22882 C 53.207896,276.50297 50.078314,261.325 46.544085,244 43.009856,226.675 39.36023,209.125 38.433806,205 c -2.910127,-12.95764 -2.91213,-13 -0.614693,-13 1.992313,0 3.834366,3.13363 2.813261,4.78581 -0.273196,0.44205 1.182914,8.65857 3.2358,18.25895 L 47.600694,232.5 83.300347,232.76263 119,233.02526 l 0,23.48737 0,23.48737 38,0 38,0 0,-22.5 0,-22.5 -5.5,0 c -3.025,0 -5.5,-0.45 -5.5,-1 0,-0.55 2.50457,-1 5.5657,-1 l 5.5657,0 -0.3157,-51.00044 -0.3157,-51.00044 2.25,4.4e-4 c 1.33314,2.6e-4 2.25,0.61168 2.25,1.50044 0,0.825 0.68996,1.5 1.53324,1.5 0.84329,0 3.68514,1.09045 6.31523,2.42321 3.22316,1.6333 5.24969,2.12726 6.21676,1.51532 2.40287,-1.5205 5.38518,-1.04821 6.7027,1.06147 0.68696,1.1 1.73824,2 2.33617,2 0.59794,0 2.31607,0.87506 3.81808,1.94459 2.713,1.93182 2.75336,1.93094 6.14925,-0.13422 1.88008,-1.14335 7.15471,-3.10679 11.72139,-4.36321 7.05108,-1.93995 11.19848,-4.1325 27.50513,-14.54076 10.56113,-6.741 19.7638,-13.04011 20.45038,-13.99803 1.57307,-2.19477 9.66739,-5.34656 11.71396,-4.56121 2.22611,0.85424 1.88709,3.19172 -0.71229,4.91108 -1.2375,0.81854 -11.25,8.8132 -22.25,17.76591 -16.67087,13.56813 -21.74779,17.12436 -30.5,21.36434 -8.48089,4.10854 -11.4134,5.06003 -15.25,4.94804 -2.6125,-0.0763 -4.75,0.25527 -4.75,0.73673 0,0.48146 -1.35169,1.57436 -3.00375,2.42868 -6.02057,3.11336 -14.72577,-2.41065 -12.27508,-7.78933 1.00343,-2.20227 0.5907,-2.63616 -6.77337,-7.12063 -4.31305,-2.6265 -8.31573,-4.48262 -8.89485,-4.1247 C 198.33181,138.91296 198,161.3157 198,209.55902 L 198,280 l 53,0 53,0 0,-22.5 0,-22.5 -12.5,0 c -7.66667,0 -12.5,-0.38667 -12.5,-1 0,-0.61355 4.85026,-1 12.55078,-1 l 12.55078,0 -0.30078,-51.00044 c -0.29744,-50.43409 -0.27857,-51.00044 1.69922,-51.00026 1.98466,1.7e-4 1.9978,0.57143 1.71362,74.50044 L 306.92724,280 l 45.53638,0 45.53638,0 0,-22.5 0,-22.5 -13,0 c -8,0 -13,-0.38462 -13,-1 0,-0.61558 5.01693,-1 13.05078,-1 l 13.05078,0 -0.30078,-51.00044 c -0.29744,-50.43409 -0.27857,-51.00044 1.69922,-51.00026 1.98466,1.7e-4 1.9978,0.57143 1.71362,74.50044 L 400.92724,280 l 41.53638,0 41.53638,0 0,-22.5 0,-22.5 -13.5,0 c -8.33333,0 -13.5,-0.38272 -13.5,-1 0,-0.61747 5.18374,-1 13.55121,-1 l 13.55121,0 -0.30121,-50.50045 c -0.29783,-49.93423 -0.27879,-50.50044 1.69879,-50.50026 1.98456,1.8e-4 1.99779,0.57137 1.7134,74.00045 L 486.9268,280 l 44.5366,0 44.5366,0 0,-22.5 0,-22.5 -13.5,0 c -8.33333,0 -13.5,-0.38272 -13.5,-1 0,-0.61747 5.18374,-1 13.55121,-1 l 13.55121,0 -0.30121,-50.50045 c -0.29103,-48.79442 -0.23795,-50.50043 1.57123,-50.5 1.5739,3.8e-4 1.66835,-0.24548 0.59239,-1.54193 -2.54247,-3.06349 0.34956,-3.52032 9.55327,-1.50905 4.90482,1.07184 9.09787,1.76879 9.31788,1.54878 0.22001,-0.22001 -0.78995,-0.69868 -2.24436,-1.06371 C 592.0762,128.80231 590,126.3751 590,124.06574 c 0,-1.86984 1.65873,-1.14476 2.70919,1.18426 0.91079,2.01936 1.0573,1.81435 1.42924,-2 0.22793,-2.3375 -0.0155,-4.25 -0.54101,-4.25 -1.65926,0 -8.07076,2.45269 -8.71051,3.33216 -0.86775,1.19291 -5.15143,0.4073 -5.62507,-1.03162 -1.19618,-3.63404 19.92377,-9.37164 27.36986,-7.43549 4.71874,1.22697 25.76465,0.67935 53.65094,-1.39603 11.43046,-0.85069 21.21796,-1.27767 21.75,-0.94884 1.39291,0.86086 1.18995,3.0502 -0.40551,4.37432 -0.75509,0.62666 -9.1809,2.50757 -18.72404,4.17981 -9.54314,1.67224 -17.45572,3.14499 -17.58352,3.27278 -0.12779,0.1278 7.60429,2.1708 17.1824,4.54 17.73878,4.38779 20.8156,5.8204 18.49803,8.61291 -1.88468,2.2709 -5.6797,1.89139 -30,-3 -12.30585,-2.475 -23.48348,-4.5 -24.83919,-4.5 -1.3557,0 -8.29492,1.60721 -15.42048,3.57159 -12.46626,3.43669 -13.22531,3.52803 -20.09794,2.41841 -3.92832,-0.63425 -7.87587,-1.53654 -8.77234,-2.00509 -1.32855,-0.69438 -1.74257,-0.17079 -2.23899,2.83159 -0.33498,2.02592 -0.614,35.296 -0.62005,73.9335 L 579,280 l 59,0 59,0 0,-22.5 0,-22.5 -10,0 c -6,0 -10,-0.4 -10,-1 0,-0.60032 4.0163,-1 10.04889,-1 l 10.04889,0 -0.15286,-51.23313 c -0.17724,-59.40391 -0.56857,-57.1422 8.28684,-47.89388 4.37311,4.56714 5.41442,5.20456 6.94291,4.25 3.22243,-2.01244 6.50938,-1.28719 9.32349,2.05719 1.85172,2.20065 2.55396,4.01137 2.27989,5.87873 -0.25978,1.76994 0.18268,3.05998 1.28578,3.74888 0.92502,0.57768 4.64394,4.75249 8.26428,9.27735 8.33165,10.41327 33.44324,30.45338 44.5107,35.52142 8.45143,3.87009 8.93472,5.73766 1.60635,6.20749 -5.90512,0.37858 -8.55553,-0.82259 -27.91279,-12.65011 -12.96459,-7.92153 -18.72355,-12.58396 -33.08371,-26.78444 -2.29176,-2.26627 -4.47874,-5.41627 -4.85996,-7 -0.76031,-3.15865 -5.16789,-9.93154 -9.9946,-15.35818 -2.02284,-2.27427 -2.26891,-2.79361 -0.71072,-1.5 2.82091,2.34191 9.65678,11.37533 11.24369,14.85823 1.27367,2.7954 4.64411,4.05525 6.57089,2.45615 1.99154,-1.65283 1.56227,-3.35847 -1.22,-4.8475 -1.38712,-0.74236 -5.99441,-5.4309 -10.23842,-10.41898 l -7.71639,-9.06922 -0.64326,3 c -0.35379,1.65 -0.6965,35.28326 -0.76158,74.74058 L 700,279.98115 l 49.25,0.26907 c 27.0875,0.14798 -127.15,0.2748 -342.75,0.28181 -215.6,0.007 -383.106319,-0.11936 -372.236265,-0.28083 z M 116,257.5 l 0,-22.5 -34.108408,0 -34.108408,0 0.69257,2.75 C 49.150041,240.4274 57,279.04003 57,279.67933 57,279.8557 70.275,280 86.5,280 l 29.5,0 0,-22.5 z m 668,-58.35111 c 0,-0.4681 -3.0375,-2.20179 -6.75,-3.85262 -4.18465,-1.86079 -12.16693,-7.26334 -21.00311,-14.2153 -14.41291,-11.33949 -17.08742,-12.54487 -18.67207,-8.41536 -1.28833,3.35733 2.95471,7.79409 13.97252,14.61044 17.34488,10.73071 21.25269,12.54663 27.20266,12.64083 2.8875,0.0457 5.25,-0.29988 5.25,-0.76799 z m -46.95416,-23.06324 c -1.21258,-2.26572 -0.0792,-5.57454 2.16583,-6.32287 1.2654,-0.4218 -1.19964,-3.9834 -10.04452,-14.51278 -4.20511,-5.00597 -7.79608,-7.05255 -6.51448,-3.71275 0.94578,2.46467 -2.50741,5.53731 -5.40562,4.80991 -2.4266,-0.60904 -2.44219,-0.57462 -0.84426,1.86413 0.89539,1.36654 5.21414,5.54646 9.59721,9.28871 4.38307,3.74225 8.6871,7.89971 9.56451,9.23881 1.89007,2.88459 3.09123,2.35497 1.48133,-0.65316 z M 226.45295,156.83948 C 227.85383,156.2012 229,155.3916 229,155.04037 229,154.46396 223.16144,152 221.79558,152 c -1.11261,0 -1.47974,4.94061 -0.40024,5.38617 1.78876,0.73829 2.37693,0.67471 5.05761,-0.54669 z m 22.68895,-8.0139 9.05465,-4.20697 -2.55406,-1.8605 c -2.18258,-1.5899 -2.41233,-2.23328 -1.57963,-4.42345 0.85265,-2.24262 0.75338,-2.47175 -0.79421,-1.83326 -0.97276,0.40132 -5.40597,1.75192 -9.85157,3.00132 -4.44561,1.24941 -8.98096,2.83248 -10.07855,3.51794 -1.97316,1.23226 -1.96942,1.27458 0.33292,3.75884 2.40011,2.58976 3.14111,6.2205 1.26953,6.2205 -0.58246,0 -0.75438,-0.49291 -0.38205,-1.09535 0.37233,-0.60245 0.0749,-2.22027 -0.66089,-3.59516 -1.13678,-2.1241 -1.84682,-2.41721 -4.72431,-1.95026 -2.76702,0.44903 -5.55918,-0.53961 -15.26472,-5.40484 C 207.37597,137.67948 201.34883,135 200.51538,135 c -2.02563,0 -1.93374,1.62548 0.1368,2.42002 0.9087,0.3487 6.8405,3.87274 13.18179,7.8312 16.36782,10.21738 20.17964,10.60327 35.30793,3.57436 z M 723,145.56868 c 0,-5.57331 -5.34273,-7.03561 -6.65163,-1.82055 -0.48689,1.93993 -0.0821,2.94409 1.74101,4.31929 2.76722,2.08732 4.91062,0.99666 4.91062,-2.49874 z m -442.36374,-18.6994 c 10.92506,-8.87189 20.65124,-16.63014 21.61374,-17.24054 0.9625,-0.61041 1.75,-1.67659 1.75,-2.36929 0,-0.6927 -0.7875,-1.24957 -1.75,-1.23749 -2.4288,0.0305 -10.25,3.68147 -10.25,4.78476 0,0.49748 -8.325,6.20342 -18.5,12.67987 -10.175,6.47644 -18.5,11.96797 -18.5,12.2034 0,0.23542 0.431,0.16167 0.95778,-0.16389 0.52677,-0.32557 0.3036,0.66037 -0.49593,2.19098 -1.30337,2.49511 -1.27924,2.9122 0.23335,4.03292 0.92788,0.6875 2.44987,1.25 3.38219,1.25 0.93232,0 10.63382,-7.25882 21.55887,-16.13072 z M 218.36163,140.5 c -0.31659,-0.825 -1.20246,-1.5 -1.96862,-1.5 -1.73208,0 -1.83337,1.65564 -0.14301,2.33772 2.20805,0.89097 2.70008,0.69577 2.11163,-0.83772 z M 680.5,135 c 0,-1.10505 -4.73941,-2.72795 -18,-6.16367 -20.9745,-5.43435 -25.66331,-5.86896 -27.95891,-2.59153 -1.93184,2.75808 -3.47828,2.1985 18.95891,6.86031 19.01173,3.95011 27,4.51073 27,1.89489 z m -75.91413,-1.70912 c 3.52777,-0.94002 6.41413,-2.06502 6.41413,-2.5 0,-1.00998 -5.25272,-0.9448 -10.83801,0.13449 -3.1511,0.60891 -6.68676,0.325 -12.92252,-1.03769 -4.72149,-1.03178 -8.84439,-1.60441 -9.162,-1.27251 -1.16216,1.21444 4.43483,3.91384 10.34907,4.99129 8.67905,1.58115 9.06975,1.57352 16.15933,-0.31558 z M 618.5,129.44472 c 2.75,-0.8435 6.8901,-1.42447 9.20022,-1.29104 3.52563,0.20363 4.5411,-0.19075 6.32258,-2.45554 1.1673,-1.48398 3.04145,-2.69814 4.16479,-2.69814 1.96579,0 1.97898,-0.0968 0.35143,-2.58079 -0.93005,-1.41943 -1.45465,-3.19668 -1.16579,-3.94945 0.42952,-1.11932 -1.60611,-1.31928 -11.17401,-1.09761 -10.55568,0.24456 -12.04835,0.51178 -15.27108,2.73386 -1.96453,1.35455 -3.38634,3.01939 -3.15959,3.69965 0.22676,0.68027 -0.055,2.57728 -0.62611,4.21559 -0.96337,2.76352 -0.86579,2.97875 1.35056,2.97875 1.31393,0 2.66708,0.45 3.007,1 0.79632,1.28847 1.05613,1.26786 7,-0.55528 z m 82.22917,0.95111 c -0.33229,-0.33229 -1.1948,-0.36781 -1.91667,-0.0789 -0.79773,0.31922 -0.56078,0.55618 0.60417,0.60416 1.05416,0.0434 1.64479,-0.19293 1.3125,-0.52522 z m -94.70442,-3.96093 c 1.48125,-3.89599 1.20043,-5.24125 -1.45769,-6.98292 -4.96286,-3.25179 -8.64657,2.13409 -5.01036,7.32551 2.11609,3.02115 5.25232,2.85503 6.46805,-0.34259 z m 57.77203,-7.47326 c 8.96323,-1.59578 16.72573,-3.16653 17.25,-3.49055 1.39036,-0.85929 1.16648,-3.47233 -0.29678,-3.46384 -4.75634,0.0276 -41.15816,3.12697 -41.86636,3.56466 -1.30251,0.805 -1.0859,2.18977 0.79046,5.05345 1.4044,2.14339 2.16963,2.44889 4.75,1.89636 1.69174,-0.36226 10.40945,-1.96429 19.37268,-3.56008 z M 588.40113,119.5 c 7.54822,-2.73785 12.14149,-3.12115 16.05182,-1.33948 1.98018,0.90223 3.15909,0.86833 5.29705,-0.15232 l 2.75,-1.31283 -4.5,-1.40177 c -3.66153,-1.14059 -5.88514,-1.1863 -11.93392,-0.24534 -7.19685,1.11956 -16.06608,4.5152 -16.06608,6.15101 0,1.20376 0.89861,1.02201 8.40113,-1.69927 z M 116,183.5 c 0,-26.125 -0.27657,-47.5 -0.61459,-47.5 -0.33803,0 -4.30229,2.33334 -8.80948,5.1852 l -8.194878,5.1852 1.533902,4.26561 c 1.476896,4.10708 1.447206,4.38286 -0.798823,7.42079 -2.15297,2.91204 -2.207548,3.28035 -0.708263,4.77964 1.371224,1.37122 1.948902,1.42184 3.705672,0.32472 2.70391,-1.68861 3.97944,-0.43354 1.44376,1.4206 -2.73811,2.00215 -5.33029,1.76069 -6.798826,-0.63333 C 96.066313,162.82007 93.5875,161.04537 91.25,160.00466 88.9125,158.96395 87,157.58901 87,156.94924 c 0,-0.71456 -0.674975,-0.88641 -1.75,-0.44553 -4.149891,1.7019 -27.860191,5.52484 -30.684513,4.94744 C 52.879469,161.10646 49.025,159.98129 46,158.95079 c -3.025,-1.03051 -8.805607,-2.8229 -12.845793,-3.98309 -4.040186,-1.1602 -7.168111,-2.28713 -6.950945,-2.5043 0.217167,-0.21716 5.547774,1.18802 11.845793,3.12264 19.059433,5.85464 19.162453,5.87098 21.193522,3.36272 2.215919,-2.73655 2.198885,-3.23927 -0.182796,-5.39466 -1.210299,-1.0953 -6.006914,-2.45493 -12.75,-3.61406 -12.030021,-2.06795 -19.369492,-3.84412 -20.675951,-5.00364 -0.476393,-0.4228 2.418174,0.0935 6.432371,1.14743 4.014198,1.05389 8.453974,1.88064 9.86617,1.83722 3.014141,-0.0927 3.117306,-0.0496 -8.263712,-3.45173 -4.857238,-1.45198 -8.647217,-2.8241 -8.422175,-3.04914 0.225041,-0.22504 7.799145,1.88117 16.831341,4.68046 17.751297,5.50156 22.272495,5.85578 29.118411,2.28134 1.853416,-0.96772 5.833751,-1.79092 9.066849,-1.87518 4.94945,-0.12899 7.651103,-1.09304 19.136182,-6.8285 7.355203,-3.67306 13.761813,-6.67145 14.236913,-6.66307 1.31107,0.0231 -22.560799,12.04689 -27.091319,13.64535 -5.741299,2.02565 -7.333554,5.31177 -3.553892,7.33459 2.290292,1.22572 6.266162,-0.41184 9.395587,-3.86982 1.035009,-1.14367 6.546447,-5.05305 12.247644,-8.68751 5.70119,-3.63445 10.3658,-6.96469 10.3658,-7.40053 0,-1.42828 -2.39739,-2.82806 -9.28059,-5.41869 l -6.780587,-2.55202 -3.219411,1.96296 c -1.770677,1.07963 -4.486496,1.96465 -6.035153,1.9667 -1.548658,0.002 -3.686158,0.46957 -4.75,1.03892 -2.165049,1.1587 -2.608471,4.55736 -0.684259,5.24458 0.6875,0.24554 0.923375,0.79716 0.524166,1.22584 -0.399209,0.42867 -1.411709,0.21018 -2.25,-0.48554 C 80.593035,135.41736 80.479896,130 82.377555,130 c 1.966764,0 4.003745,-2.64631 2.671003,-3.46999 -0.576707,-0.35642 -1.049016,-1.40899 -1.049575,-2.33903 -5.91e-4,-0.98389 -2.058689,-2.84666 -4.921851,-4.45474 -2.70646,-1.52006 -6.798578,-4.33256 -9.093597,-6.25 C 67.688516,111.56881 65.223724,110 64.506219,110 63.788714,110 60.321187,107.4125 56.800603,104.25 53.28002,101.0875 47.947145,96.313958 44.949771,93.64213 L 39.5,88.784259 l 6,4.781489 c 3.3,2.629819 7.678822,6.361213 9.730715,8.291982 2.051893,1.93078 4.526893,3.59459 5.5,3.69736 0.973107,0.10277 2.526368,0.50639 3.451692,0.89693 1.238613,0.52277 2.098625,-0.0948 3.260277,-2.34118 1.542035,-2.98197 1.515182,-3.08944 -1.182407,-4.732046 -7.712086,-4.696021 -19.509225,-13.01432 -21.026857,-14.826279 -1.67297,-1.997425 -1.652203,-1.996252 0.773734,0.04368 2.566512,2.158142 13.110825,9.33859 23.249955,15.832715 3.166409,2.02809 8.233237,4.7825 11.259616,6.12091 3.2259,1.42664 6.222574,3.5885 7.242891,5.22516 1.110387,1.78113 2.400795,2.6574 3.564788,2.4207 C 93.277723,113.79848 97,116.57691 97,118.43213 c 0,0.61719 3.825,3.01916 8.5,5.33772 l 8.5,4.21557 0,-6.99271 0,-6.99271 -3.84501,0 c -5.17304,0 -7.6306,-2.68171 -6.85237,-7.47738 0.66884,-4.12157 -0.57592,-4.56133 -2.89458,-1.02262 -2.038874,3.11172 -3.77554,3.26368 -2.857147,0.25 1.043495,-3.4242 3.663917,-5.927088 5.659147,-5.40532 0.98378,0.25726 2.85596,-0.0359 4.16041,-0.651523 2.11732,-0.999213 2.49898,-2.169325 3.55817,-10.908614 0.65255,-5.384139 0.85609,-10.32387 0.45232,-10.97718 -0.40376,-0.653311 -0.62522,-13.682044 -0.49211,-28.95274 0.22721,-26.067313 0.37924,-28.119209 2.48661,-33.559763 3.61907,-9.3433222 5.00369,-7.8681228 5.82413,6.20514 0.38476,6.6 1.45384,20.775 2.37571,31.5 2.02919,23.607339 2.38503,44.098096 0.80035,46.088068 -1.67748,2.106512 -2.54946,7.299572 -3.05555,18.197242 -0.43123,9.28578 -0.33613,9.88392 1.86275,11.71674 1.27444,1.06227 1.80281,1.94638 1.17416,1.96468 -0.62866,0.0183 -1.42126,0.75837 -1.76134,1.64461 -0.43558,1.13509 -0.18669,1.4457 0.84208,1.05093 0.9058,-0.34759 1.27719,-0.083 0.97796,0.69685 -0.26535,0.6915 1.22006,4.2552 3.30092,7.91933 3.58476,6.3123 3.97717,6.66364 7.47437,6.69181 2.03004,0.0164 3.96469,0.4726 4.29921,1.01387 0.33452,0.54127 2.20608,-0.61373 4.15902,-2.56667 1.95293,-1.95294 3.76725,-3.33433 4.03181,-3.06977 0.81332,0.81332 -1.61554,4.5469 -3.675,5.64909 -1.51093,0.80862 -1.81448,1.71091 -1.35258,4.02043 0.32756,1.63781 0.0978,3.57764 -0.51065,4.31074 -0.84891,1.02287 -0.39068,2.01201 1.96999,4.25248 1.69191,1.60576 4.35631,5.44001 5.92088,8.52056 1.56458,3.08054 3.9353,6.90554 5.26827,8.5 2.72482,3.25934 20.10564,33.76894 18.76592,32.94095 -0.47328,-0.29251 -4.04474,-6.27975 -7.93657,-13.30497 -7.66851,-13.84259 -11.16923,-17.3574 -15.16037,-15.2214 -2.92976,1.56796 -2.21036,3.10659 8.61575,18.42722 C 162.764,209.76952 167,216.10962 167,216.5319 c 0,0.42227 -3.90823,-4.81215 -8.68496,-11.63206 C 153.53831,198.07993 146.43605,188.9 142.53225,184.5 c -6.82418,-7.69158 -8.66921,-10.79128 -9.97002,-16.75 -0.33018,-1.5125 -1.19702,-2.75 -1.92629,-2.75 -2.51126,0 -4.63767,-3.5586 -4.5283,-7.57822 0.0674,-2.47717 -1.05951,-6.4479 -3.05931,-10.7796 -1.74131,-3.7718 -2.97087,-7.05297 -2.73235,-7.29149 0.23851,-0.23851 1.20344,1.4975 2.14428,3.85782 3.62646,9.09778 11.10075,23.76819 12.36218,24.26426 1.81586,0.7141 5.17756,-1.22395 5.17756,-2.9849 0,-0.79297 -1.10832,-2.16796 -2.46294,-3.05554 -1.35461,-0.88758 -5.71659,-7.18597 -9.69328,-13.99643 -3.9767,-6.81046 -7.47514,-12.13788 -7.77431,-11.8387 -0.78683,0.78683 -0.75167,-1.09777 -0.91716,49.1528 -0.13297,40.37675 -0.34279,46.25 -1.65231,46.25 -1.31228,0 -1.5,-5.94444 -1.5,-47.5 z m 30.39019,3.07444 c -0.32136,-0.83747 0.51666,-2.12252 2.03139,-3.11501 2.39402,-1.56862 2.75721,-1.5723 5.07842,-0.0514 3.23947,2.12259 3.15209,1.68416 -0.60206,-3.02054 -1.70614,-2.13812 -4.36942,-6.38942 -5.9184,-9.44733 C 143.84706,164.75623 141,161.62057 141,164.3545 c 0,1.93166 -4.49111,5.07804 -5.95602,4.17268 -1.58153,-0.97744 -1.25012,2.1735 0.60613,5.76311 C 137.07366,177.04311 145.8723,188 146.65934,188 c 0.15284,0 0.0317,-0.6415 -0.26915,-1.42556 z M 131,163.52417 c 0,-0.26171 -0.89832,-1.94921 -1.99626,-3.75 -1.95119,-3.20024 -1.99635,-3.2166 -2,-0.72417 -0.002,1.4025 0.53626,3.09 1.19626,3.75 1.20302,1.20302 2.8,1.61605 2.8,0.72417 z M 72.035454,158.45295 C 81.357429,156.87222 87.197858,155 82.806989,155 c -1.929072,0 -3.069816,-2.59654 -2.260713,-5.1458 0.954285,-3.00669 -2.217296,-3.35858 -8.141159,-0.90328 -2.971039,1.23143 -7.216993,2.48242 -9.435454,2.77997 -3.842287,0.51536 -3.954667,0.6282 -2.369814,2.37944 1.553066,1.71612 1.546913,2.01674 -0.09249,4.51879 -1.312867,2.00369 -1.400304,2.54378 -0.346346,2.13934 0.775444,-0.29757 6.118944,-1.33955 11.874445,-2.31551 z m 25.921093,-6.90059 c 0.764649,-0.92135 0.877223,-2.02698 0.309649,-3.04118 -0.793639,-1.41815 -1.18858,-1.36007 -3.588519,0.52772 -1.483203,1.16669 -2.440888,2.53522 -2.128188,3.04117 0.869227,1.40644 4.060326,1.095 5.407058,-0.52771 z m -51.22738,-3.15653 c -0.332292,-0.33229 -1.194792,-0.36781 -1.916667,-0.0789 -0.797733,0.31922 -0.560776,0.55618 0.604167,0.60416 1.054166,0.0434 1.644791,-0.19293 1.3125,-0.52522 z M 121,129.87972 c 0,-0.36616 -0.70401,-0.9359 -1.56447,-1.26609 -1.53329,-0.58837 -1.59797,-7.33327 -0.24084,-25.11363 0.26435,-3.46341 0.0126,-4.041677 -1.87703,-4.310684 -3.47714,-0.495016 -4.54204,2.696864 -3.35014,10.041514 0.55955,3.44804 1.02077,9.46334 1.02493,13.36733 l 0.008,7.09816 -9.75,-4.9619 c -5.3625,-2.72904 -11.405651,-6.07484 -13.429225,-7.43511 -4.36988,-2.93748 -6.958304,-2.70846 -7.978485,0.70594 l -0.745401,2.49475 0.201555,-2.47497 c 0.116224,-1.42714 1.146572,-2.9442 2.433688,-3.5833 1.871439,-0.92924 2.033031,-1.3775 1,-2.77401 -1.684031,-2.27656 -17.145358,-9.92804 -17.558298,-8.68922 -0.182369,0.54711 -1.11374,1.96067 -2.069711,3.14124 -1.497556,1.8494 -2.052132,1.97845 -4.006773,0.93236 -1.247753,-0.66778 -2.472409,-1.01037 -2.721457,-0.76133 -0.249048,0.24905 1.502285,1.37182 3.891851,2.49505 2.389567,1.12323 4.938464,2.75772 5.664216,3.6322 2.168328,2.61267 12.753204,8.63905 14.213331,8.0922 0.74509,-0.27906 7.631748,1.86471 15.303686,4.76393 C 111.82266,129.95015 121,131.9114 121,129.87972 Z M 95.020056,116.52417 c -0.69572,-0.8383 -1.997345,-1.5092 -2.892501,-1.4909 -1.258878,0.0257 -1.08579,0.48444 0.764108,2.025 2.655006,2.21105 4.104737,1.84724 2.128393,-0.5341 z M 113,110.08179 c 0,-1.60502 -0.27822,-3.64324 -0.61827,-4.52939 -0.55548,-1.44757 -0.75534,-1.43049 -1.96819,0.16821 -0.74246,0.97866 -1.36424,3.01689 -1.38174,4.52939 -0.0242,2.09393 0.44534,2.75 1.9682,2.75 1.5431,0 2,-0.66667 2,-2.91821 z M 116.99769,98 c 1.03635,0 2.18662,0.48921 2.55616,1.087132 2.31362,3.743518 3.97538,-6.573634 2.98117,-18.508898 l -0.71487,-8.581928 -2.54493,2.001847 c -3.39345,2.669288 -3.96712,2.555383 -6.28618,-1.248153 -2.22677,-3.652171 -2.37878,-3.152122 -0.93933,3.090018 0.68835,2.98503 0.64984,6.97748 -0.12337,12.787785 -0.6183,4.646272 -0.82986,9.620466 -0.47013,11.053765 l 0.65407,2.606002 1.50156,-2.14379 C 114.4377,98.964703 115.96133,98 116.99769,98 Z m 2.65524,-25.56202 c 2.29969,-2.299686 2.49982,-3.093234 1.95454,-7.75 C 120.46096,54.896448 118,21.51856 118,15.759946 118,12.591976 117.6103,10 117.13399,10 c -0.4763,0 -1.80664,2.5875 -2.9563,5.75 -1.87957,5.170339 -2.10488,8.129574 -2.23497,29.354391 -0.12281,20.037503 0.10113,24.079728 1.48198,26.75 1.97185,3.813136 2.91071,3.901108 6.22823,0.583589 z m 54.14059,156.83635 C 171.97998,227.21228 167.71915,219 168.46283,219 c 0.27691,0 1.6275,2.21815 3.00131,4.92923 2.46473,4.86392 4.17651,6.76345 5.1856,5.75436 0.28417,-0.28417 -0.38716,-3.81284 -1.49185,-7.84148 -1.10468,-4.02865 -1.84376,-7.48958 -1.64239,-7.69095 0.52476,-0.52475 3.55421,10.21555 3.78803,13.42966 0.23975,3.29574 -1.40356,4.08861 -3.51001,1.69351 z m 361.29417,-63.11048 c -1.09887,-2.05325 -9.03717,-33.06311 -9.60518,-37.52129 -0.20024,-1.5716 -0.60016,-3.09354 -0.88871,-3.38209 -0.28855,-0.28855 -5.2515,0.6598 -11.02878,2.10744 -12.0004,3.00702 -14.42893,3.18331 -17.08614,1.2403 -3.11355,-2.27668 -0.61877,-3.94169 14.30532,-9.5474 10.48555,-3.93852 14.3893,-5.90655 16.57551,-8.35633 1.57285,-1.76246 2.40081,-2.30448 1.83993,-1.20448 -0.56089,1.1 -2.63526,3.4241 -4.60972,5.16467 -1.97445,1.74056 -3.58992,3.79012 -3.58992,4.55458 0,1.85994 6.41139,8.78065 8.13487,8.78111 0.75082,2e-4 3.39013,-2.16462 5.86513,-4.81071 2.475,-2.6461 3.39138,-3.53381 2.0364,-1.9727 l -2.4636,2.83839 2.72689,19.37229 c 1.99317,14.15983 2.4609,20.07187 1.73835,21.97233 -1.16069,3.05284 -2.5786,3.32703 -3.95035,0.76389 z m 3.30234,-1.58172 c 0.33377,-1.32983 -0.51745,-10.14662 -1.89159,-19.59286 C 535.1243,135.54303 534,127.33633 534,126.75216 c 0,-0.58418 -0.8852,-0.26104 -1.96712,0.71808 -1.16813,1.05714 -2.80951,1.55993 -4.04108,1.23787 -1.59347,-0.4167 -1.9589,-0.15611 -1.5773,1.12477 0.27317,0.91691 2.11016,8.19212 4.08219,16.16712 4.32139,17.4759 5.40756,21 6.47245,21 0.44773,0 1.08713,-1.08804 1.42089,-2.41787 z M 512.5,126.62025 c 6.56928,-1.70102 8.88167,-2.70716 8.56189,-3.72533 -0.24096,-0.76721 -0.42034,-2.58708 -0.39862,-4.04417 l 0.0395,-2.64924 -6.10139,2.30587 c -18.58376,7.02328 -20.17698,7.88532 -17.59302,9.51895 2.28324,1.44351 5.67581,1.13559 15.49164,-1.40608 z M 16.552478,149.44648 C 10.738099,147.03277 6,143.56897 6,141.73207 c 0,-0.50562 0.8688615,-1.14652 1.9308034,-1.42423 1.0661299,-0.27879 1.707346,-1.08723 1.4318263,-1.80523 -0.2744374,-0.71517 -0.012386,-1.60104 0.5823373,-1.9686 1.196012,-0.73917 11.665075,2.02601 12.444359,3.28692 0.270115,0.43705 -2.191077,-0.0848 -5.469317,-1.1596 -3.27824,-1.07483 -6.240466,-1.67421 -6.582724,-1.33195 -1.2882484,1.28825 1.935719,3.53663 6.715326,4.68324 2.724456,0.65359 5.178475,1.55227 5.453375,1.99707 0.274901,0.4448 -2.313986,-0.047 -5.753083,-1.09284 C 9.9599666,140.85105 7,140.52575 7,141.84501 c 0,1.67291 3.776645,4.20417 10.079677,6.7558 3.531178,1.42952 6.607823,2.77914 6.83699,2.99916 1.01091,0.97055 -1.863529,0.12999 -7.364189,-2.15349 z m 304.839132,1.13166 C 320.74839,148.90194 322.62755,145 324.07802,145 c 0.55422,0 3.20177,-2.05233 5.88345,-4.56073 l 4.8758,-4.56074 -1.65733,-2.88772 c -1.33914,-2.33332 -1.44377,-3.4535 -0.54498,-5.83468 1.54531,-4.09399 0.43998,-5.27943 -4.60913,-4.94318 -2.50031,0.16651 -4.47573,-0.17836 -4.70419,-0.82126 -0.2316,-0.65175 0.75387,-1.07253 2.39226,-1.02146 1.53235,0.0478 3.97224,-0.23668 5.42198,-0.6321 2.17591,-0.59349 2.73421,-0.34293 3.19938,1.43591 0.47626,1.82121 0.80399,1.95528 2.11661,0.86591 0.90248,-0.749 2.73785,-1.05201 4.38125,-0.72333 2.51279,0.50256 3.72451,-0.34778 10.86616,-7.62549 8.87788,-9.04701 8.82335,-8.95503 19.84533,-33.475354 5.75757,-12.808736 8.64396,-18.052167 11.14715,-20.25 3.53917,-3.107428 4.81928,-3.565949 5.75022,-2.059656 0.30801,0.498366 1.4541,0.672312 2.54686,0.386546 3.05478,-0.798841 3.51624,2.187142 0.99663,6.4489 -1.22213,2.067139 -7.26151,14.373157 -13.42086,27.346707 -12.68518,26.719007 -18.03895,34.781757 -24.81353,37.368987 -2.57877,0.98484 -4.91106,2.75636 -5.90196,4.48292 -0.99036,1.7256 -2.81685,3.11346 -4.61814,3.50909 -1.6389,0.35996 -4.04883,1.79504 -5.3554,3.18906 C 335.43239,143.24504 323.61481,152 322.53942,152 c -0.3312,0 -0.84772,-0.63984 -1.14781,-1.42186 z m 7.9292,-4.01274 c 3.39855,-2.43903 8.8651,-7.16403 12.14789,-10.5 3.28278,-3.33597 6.75445,-6.0654 7.71481,-6.0654 3.57394,0 5.06018,-6.26403 1.88893,-7.96123 -2.81554,-1.50683 -4.59621,-0.42126 -6.60079,4.0241 -1.46755,3.25444 -11.65003,13.33704 -21.22165,21.01348 -1.25025,1.0027 -1.75587,3.92365 -0.67919,3.92365 0.31394,0 3.35144,-1.99557 6.75,-4.4346 z m 17.79188,-12.77596 c 1.66025,-3.10221 0.49068,-3.02866 -2.56555,0.16136 -2.55601,2.6679 -2.61373,2.87938 -0.64543,2.36465 1.18889,-0.3109 2.63383,-1.44761 3.21098,-2.52601 z m -4.56352,-6.5736 c -0.85757,-0.85757 -3.55092,1.94357 -3.5159,3.6566 0.0257,1.25888 0.48444,1.0858 2.025,-0.7641 1.09546,-1.31542 1.76636,-2.61704 1.4909,-2.8925 z m 19.3005,-5.63295 c 2.11556,-2.80205 4.56686,-6.48769 5.44733,-8.19032 1.58869,-3.0722 1.58247,-3.09219 -0.81894,-2.63313 -3.63511,0.6949 -5.16579,-3.24511 -3.04073,-7.82691 0.87561,-1.88789 1.3585,-2.60322 1.07308,-1.58963 -1.98905,7.06367 -1.25605,9.31204 2.71121,8.31633 2.01218,-0.50503 3.87799,-3.7055 10.71827,-18.385352 4.55509,-9.775633 9.80707,-20.546996 11.67105,-23.936363 3.65055,-6.63797 4.09464,-8.360455 2.13906,-8.296874 -2.58679,0.0841 -7.61753,5.685151 -10.74165,11.959359 -3.55071,7.130936 -11.93384,21 -12.69341,21 -0.48488,0 2.63338,-5.436142 5.73615,-10 0.93481,-1.375 3.52442,-6.140226 5.75469,-10.589392 2.25991,-4.508292 5.20668,-8.843976 6.65649,-9.793932 1.43081,-0.937497 2.33556,-2.134771 2.01058,-2.660608 -0.92055,-1.489472 -2.08284,-1.155118 -5.25069,1.510448 -3.08396,2.594987 -15.65082,28.465194 -15.44982,31.805097 0.0586,0.974387 -0.31099,1.513515 -0.82141,1.198062 -0.51826,-0.320306 -0.63727,0.184122 -0.26954,1.142432 0.49479,1.289385 0.30549,1.511042 -0.76145,0.891613 -0.78097,-0.453404 -1.09819,-0.467977 -0.70495,-0.03238 1.3089,1.449839 -4.42858,9.93269 -12.118,17.91646 -4.17834,4.33829 -6.74608,7.59058 -5.70609,7.22731 1.09149,-0.38125 2.93326,0.0225 4.35645,0.955 1.97802,1.29605 2.35199,2.18319 1.89132,4.48656 -0.54931,2.74655 -0.46711,2.82228 1.89515,1.74597 1.35815,-0.61882 4.20028,-3.41771 6.31585,-6.21975 z M 442.5,116.06169 c -4.38785,-1.07296 -10.6747,-4.51833 -13.2162,-7.24284 -1.21891,-1.30669 -2.89107,-4.2886 -3.71592,-6.62647 C 423.68368,96.851997 422,80.766624 422,68.105935 c 0,-8.052046 0.37882,-10.433369 2.25,-14.144045 2.42765,-4.814172 5.05351,-5.846387 5.57236,-2.190465 l 0.32236,2.271425 1.85666,-2.271425 c 1.42186,-1.739501 2.13536,-1.997635 3.04678,-1.102286 0.91299,0.896895 0.92053,2.294046 0.0324,6 -1.1452,4.77852 -0.77258,38.363872 0.46131,41.579333 0.74061,1.929988 9.0558,5.622328 13.45109,5.972918 l 3.49294,0.27861 1.40097,-6.719564 c 1.36883,-6.565374 1.34031,-6.859454 -1.24294,-12.815914 C 451.18976,81.61153 450,78.024391 450,76.993103 c 0,-2.523444 1.89913,-3.5487 3.44802,-1.861427 1.7916,1.951683 7.56377,16.935776 7.55736,19.618324 -0.004,1.720876 0.5692,2.25 2.43792,2.25 2.83644,0 5.17224,2.894525 6.60127,8.18032 0.7729,2.85884 0.63153,4.58872 -0.63337,7.75 -0.8956,2.23833 -2.0295,4.06968 -2.51978,4.06968 -1.34016,0 -1.01544,-2.25193 0.64038,-4.44113 2.24167,-2.96375 1.7696,-3.55594 -1.52463,-1.91256 -1.6818,0.83899 -3.90935,1.20213 -5.08507,0.82896 -1.40941,-0.44732 -2.79881,-0.002 -4.25718,1.36373 -4.00189,3.74837 -8.15296,4.69279 -14.16492,3.22269 z m 12.10577,-2.53904 c 2.89216,-1.89501 3.26595,-4.084 0.39077,-2.28842 -2.77828,1.73507 -5.55805,-0.16321 -5.30828,-3.62497 0.1558,-2.15931 -0.23793,-2.60926 -2.28324,-2.60926 -1.35933,0 -4.70655,-1.13258 -7.43826,-2.51685 C 435.19537,100.06531 435,100.04426 435,101.94797 c 0,1.08991 -0.93743,2.48336 -2.08319,3.09655 -1.6619,0.88943 -2.47082,0.76408 -4,-0.6198 -2.56172,-2.31833 -2.44481,-0.36569 0.17772,2.96832 5.58731,7.10312 19.07833,10.34462 25.51124,6.12961 z m 1.4094,-4.04093 c 1.20798,-1.45553 2.40819,-5.98956 3.56876,-13.48172 0.40053,-2.585609 -0.36033,-5.711209 -2.9123,-11.963808 C 453.28519,75.739086 451,72.843956 451,76.850753 c 0,1.109581 1.18363,4.746647 2.63029,8.08237 2.49615,5.755635 2.56829,6.383752 1.41435,12.315913 -0.68011,3.496304 -2.11531,7.220064 -3.25681,8.450084 -1.14105,1.22953 -1.77847,2.8829 -1.44573,3.75 0.76122,1.98369 4.03818,2.00252 5.67307,0.0326 z m 5.94587,-3.67028 C 464.632,102.94451 464.73048,98 462.11663,98 c -1.99295,0 -3.07958,2.53889 -3.10298,7.25 -0.0165,3.32083 0.31738,3.38443 2.94739,0.56144 z m -29.37332,-1.57675 c 1.88898,-1.2759 2.35748,-5.439986 0.92394,-8.212149 -2.17113,-4.198499 -5.72104,-33.049703 -4.92846,-40.055141 0.84422,-7.461947 -0.79707,-7.998818 -3.78733,-1.238845 -1.94529,4.397653 -2.04511,5.849728 -1.42642,20.75 0.80062,19.281901 1.81328,25.019975 4.86471,27.565055 2.56208,2.13694 2.84045,2.21309 4.35356,1.19108 z M 433.78429,76.25 c -0.15636,-9.7625 0.10329,-19.4375 0.577,-21.5 0.55842,-2.431331 0.50525,-3.75 -0.15122,-3.75 -0.55689,0 -2.02562,1.6875 -3.26386,3.75 l -2.25135,3.75 1.76675,14.5 c 2.11448,17.353805 2.6707,21 3.20352,21 0.22189,0 0.27552,-7.9875 0.11916,-17.75 z M 545.25,114.42803 c 2.02021,-1.09599 2.75,-2.25786 2.75,-4.37818 0,-1.58745 0.23012,-3.48596 0.51138,-4.21891 0.30541,-0.79589 -0.67534,-1.85794 -2.43502,-2.63684 -1.62052,-0.71732 -3.31314,-2.38057 -3.76138,-3.696134 L 541.5,97.106039 537.28552,99.80302 c -2.31796,1.48334 -4.49655,3.51839 -4.8413,4.52234 -0.34476,1.00395 -0.82185,1.63034 -1.06021,1.39198 -0.23836,-0.23835 0.92737,-3.30977 2.59052,-6.825357 1.66314,-3.515591 3.02425,-7.101042 3.02468,-7.967669 0.001,-2.001995 2.83869,-4.558469 10.97616,-9.88845 4.79788,-3.14257 6.87034,-3.992176 8,-3.279603 2.80609,1.770038 1.57202,3.595953 -5.16194,7.637508 -3.67761,2.207213 -6.89783,4.820964 -7.15603,5.808337 -0.42944,1.642188 -0.25286,1.624846 2.07143,-0.203442 3.38496,-2.662609 5.84145,-2.519298 8.87873,0.517985 1.80769,1.807687 2.34014,3.145803 1.89007,4.75 -0.34461,1.228343 1.23659,-1.141649 3.51378,-5.266649 5.07312,-9.189673 6.53606,-10.852531 8.13823,-9.250356 0.88524,0.885239 0.3846,3.020534 -2.0909,8.917906 -2.48361,5.91668 -4.91805,9.54039 -10.27414,15.29321 -6.72176,7.21965 -10.11735,9.97374 -12.2846,9.96377 -0.55,-0.003 0.2375,-0.67596 1.75,-1.4965 z m 19.5,-23.128528 C 568.23847,83.257116 568.54515,82 567.01864,82 c -0.53974,0 -2.67724,3.234811 -4.75,7.188468 -2.07275,3.953658 -5.90614,9.509638 -8.51864,12.346622 -3.21108,3.487 -4.75,6.02966 -4.75,7.84812 0,2.49856 0.44472,2.21745 6.25,-3.95057 4.43303,-4.71002 7.19482,-8.818739 9.5,-14.133138 z m -25.5,6.357142 c 0.9625,-0.757421 1.75,-1.916578 1.75,-2.575904 0,-0.659326 0.51953,-0.877688 1.15451,-0.485248 0.71847,0.444037 0.88293,0.274105 0.43545,-0.449932 -1.50872,-2.441162 0.7827,-5.277639 7.47562,-9.253828 6.93236,-4.11844 8.12271,-5.49851 5.58318,-6.47302 -1.73328,-0.665123 -16.58513,9.129268 -17.25574,11.379693 -0.27889,0.935877 -1.34003,3.832781 -2.35809,6.437565 -1.97196,5.04542 -1.59998,5.20979 3.21507,1.420674 z M 33.453781,83.23249 C 27.87669,78.002133 24.995729,72.604271 26.811919,70.788081 c 1.081446,-1.081446 4.485962,1.331101 13.534299,9.590835 L 43.5,83.257831 40.325497,80.878916 c -1.745976,-1.308404 -5.244904,-4.129988 -7.775395,-6.270188 -2.530491,-2.140199 -4.875035,-3.617128 -5.210099,-3.282064 -1.299825,1.299825 2.306459,7.310189 7.118082,11.863254 2.773053,2.62404 4.816915,4.7719 4.541915,4.773022 -0.275,0.0011 -2.770799,-2.127581 -5.546219,-4.73045 z"
       id="path2989"
       style="fill:#000000"
       inkscape:connector-curvature="0" />
  </g>
</svg>
