<?xml version="1.0" encoding="UTF-8" standalone="no"?>
<!-- Created with Inkscape (http://www.inkscape.org/) -->

<svg
   xmlns:dc="http://purl.org/dc/elements/1.1/"
   xmlns:cc="http://creativecommons.org/ns#"
   xmlns:rdf="http://www.w3.org/1999/02/22-rdf-syntax-ns#"
   xmlns:svg="http://www.w3.org/2000/svg"
   xmlns="http://www.w3.org/2000/svg"
   xmlns:sodipodi="http://sodipodi.sourceforge.net/DTD/sodipodi-0.dtd"
   xmlns:inkscape="http://www.inkscape.org/namespaces/inkscape"
   version="1.1"
   width="525"
   height="274"
   id="svg2"
   inkscape:version="0.91 r13725"
   sodipodi:docname="ub620202.svg">
  <sodipodi:namedview
     pagecolor="#c8bbbb"
     bordercolor="#666666"
     borderopacity="1"
     objecttolerance="10"
     gridtolerance="10"
     guidetolerance="10"
     inkscape:pageopacity="0"
     inkscape:pageshadow="2"
     inkscape:window-width="1600"
     inkscape:window-height="912"
     id="namedview11"
     showgrid="false"
     inkscape:zoom="1"
     inkscape:cx="178.18378"
     inkscape:cy="179.17373"
     inkscape:window-x="0"
     inkscape:window-y="0"
     inkscape:window-maximized="0"
     inkscape:current-layer="svg2" />
  <metadata
     id="metadata8">
    <rdf:RDF>
      <cc:Work
         rdf:about="">
        <dc:format>image/svg+xml</dc:format>
        <dc:type
           rdf:resource="http://purl.org/dc/dcmitype/StillImage" />
        <dc:title></dc:title>
      </cc:Work>
    </rdf:RDF>
  </metadata>
  <defs
     id="defs6" />
  <g
     id="g3598"
     transform="translate(-2.0992983,-11.468382)">
    <path
       inkscape:connector-curvature="0"
       id="path3458"
       d="m 342.62942,39.407413 c -1.18604,-0.0118 -2.4048,0.43079 -3.29101,1.50195 -0.96562,1.16715 -0.98724,1.86491 -0.10547,3.28125 0.87017,1.39772 0.87017,2.19994 0,3.59766 -0.88177,1.41634 -0.86015,2.1141 0.10547,3.28125 0.67454,0.8153 2.17482,1.48242 3.33398,1.48242 3.08095,0 4.86769,-2.47269 3.44141,-4.76367 -0.87017,-1.39772 -0.87017,-2.19994 0,-3.59766 1.5789,-2.53613 -0.87509,-4.75722 -3.48438,-4.7832 z m -8.40039,0.0195 c -1.41168,0 -5.10742,3.21379 -5.10742,4.44141 0,1.1499 0.26168,1.19571 1.40234,0.24609 1.21508,-1.01157 1.40039,-0.52764 1.40039,3.63477 0,3.6437 0.3387,4.80273 1.40235,4.80273 1.1126,0 1.40234,-1.35417 1.40234,-6.5625 0,-3.60938 -0.22491,-6.5625 -0.5,-6.5625 z m 18.72461,0 c -3.83506,0 -5.842,8.53697 -2.73828,11.65039 0.80773,0.81027 2.04068,1.47461 2.73828,1.47461 2.34878,0 4.20508,-2.89742 4.20508,-6.5625 0,-3.66508 -1.8563,-6.5625 -4.20508,-6.5625 z m 8.68945,0.13281 c -2.03203,-0.0397 -3.12433,1.86992 -2.25195,4.15039 0.33775,0.88294 1.40611,1.3519 2.66992,1.17188 1.54461,-0.22002 2.10742,-0.9244 2.10742,-2.64258 0,-1.71818 -0.56281,-2.42451 -2.10742,-2.64453 -0.14352,-0.0205 -0.2825,-0.0325 -0.41797,-0.0352 z m -18.9707,1.74219 c 0.77103,0 1.40234,0.6066 1.40234,1.34961 0,1.56623 -1.33484,2.62491 -2.20703,1.75 -1.11697,-1.12046 -0.603,-3.09961 0.80469,-3.09961 z m 19.16016,0 c 0.51402,0 0.93359,0.42188 0.93359,0.9375 0,0.51562 -0.41957,0.9375 -0.93359,0.9375 -0.51402,0 -0.93555,-0.42188 -0.93555,-0.9375 0,-0.51562 0.42153,-0.9375 0.93555,-0.9375 z m -8.87891,0.46875 c 0.51402,0 1.06885,1.63713 1.23242,3.63867 0.31763,3.88664 -1.20317,6.72138 -2.20312,4.10742 -0.82255,-2.15025 -0.12107,-7.74609 0.9707,-7.74609 z m -10.27148,5.85352 c 0.51491,-0.0387 1.02515,0.42404 1.21484,1.41211 0.19701,1.02616 -0.26203,1.64062 -1.22461,1.64062 -0.89787,0 -1.41264,-0.60767 -1.23633,-1.45703 0.21134,-1.01818 0.73118,-1.55702 1.2461,-1.5957 z"
       style="fill:#000000" />
    <path
       sodipodi:nodetypes="sscssssssssssssssscssssscssssssscssssscscsscccssscscccssssssssscccccsssssssssssssssssssssss"
       d="m 117.27768,151.75 c -2.21216,-2.85894 -2.12907,-5.29087 0.44637,-13.06527 2.39777,-7.23808 2.71224,-9.71723 2.71896,-21.43473 0.004,-7.2875 0.36283,-13.25 0.79699,-13.25 0.43417,0 1.71889,1.4625 2.85494,3.25 1.95242,3.07201 2.03769,4.29003 1.55695,22.24 -0.50851,18.98649 -0.50908,18.99041 -3.13601,21.25 -3.00961,2.58876 -3.88587,2.75771 -5.2382,1.01 z M 209.25,141.23893 c -5.16123,-1.50242 -5.25,-1.59345 -5.25,-5.3836 0,-3.7461 0.10007,-3.85533 3.53212,-3.85533 7.82181,0 12.94266,4.37584 10.4881,8.96223 -1.2501,2.33583 -1.65292,2.34854 -8.77022,0.2767 z M 185,136.98422 c -5.775,-0.99049 -12.6375,-2.09471 -15.25,-2.45383 -2.6125,-0.35911 -4.75,-1.00413 -4.75,-1.43338 0,-0.42924 1.89259,-1.34747 4.20575,-2.04051 3.05686,-0.91586 7.9739,-1.06497 18,-0.54585 L 201,131.22487 l 0,3.88757 c 0,4.63388 0.062,4.62662 -16,1.87178 z m -76.25,-5.37262 c -2.57028,-1.95647 -2.13454,-4.49173 1,-5.81835 1.5125,-0.64014 4.4375,-2.74682 6.5,-4.68151 l 3.75,-3.51764 0,3.22282 C 120,124.03948 115.77827,132 114.06924,132 c -0.49811,0 -1.50497,0.21233 -2.23745,0.47184 -0.73249,0.25952 -2.11929,-0.12759 -3.08179,-0.86024 z M 189,129.45463 c 0,-0.29995 2.4165,-5.05658 5.36999,-10.57028 4.59122,-8.57106 5.44068,-9.65508 5.85746,-7.47483 0.66612,3.48456 -7.02912,18.57337 -9.47745,18.58335 -0.9625,0.004 -1.75,-0.23829 -1.75,-0.53824 z M 180,128 c 0,-1.18717 1.7373,-1.18717 4.5,0 1.67602,0.72021 1.47353,0.87082 -1.25,0.92971 C 181.4625,128.96837 180,128.55 180,128 Z m -71.65559,-5.76391 c -0.51255,-2.04216 -0.0617,-3.08255 2.1666,-4.99922 l 2.81385,-2.42037 1.2025,2.84175 c 0.97773,2.31056 0.93526,3.15023 -0.22719,4.49206 -2.54201,2.93424 -5.23112,2.97298 -5.95576,0.0858 z m 18.66056,-9.31178 c -0.003,-1.41662 1.03653,-3.55412 2.30948,-4.75 C 131.70843,105.92529 135,105.24544 135,107 c 0,0.55 -0.675,1 -1.5,1 -0.825,0 -1.51618,0.3375 -1.53596,0.75 -0.0198,0.4125 -1.14255,2.1 -2.49504,3.75 l -2.45907,3 -0.005,-2.57569 z M 62,109.5 c 0,-0.93333 -0.944444,-1.5 -2.5,-1.5 -1.375,0 -2.49749,-0.5625 -2.494423,-1.25 0.01129,-2.52994 2.115189,-8.75 2.959639,-8.75 0.479165,0 1.570463,-0.268329 2.425107,-0.596286 1.392331,-0.534288 1.38637,-0.104622 -0.05733,4.132396 -1.487913,4.36678 -1.485778,4.79888 0.02789,5.64598 C 64.144949,108.1805 64.61693,111 63,111 c -0.55,0 -1,-0.675 -1,-1.5 z m 138.8125,-2.18311 c 0.72187,-0.28887 1.58437,-0.25335 1.91667,0.0789 0.33229,0.3323 -0.25834,0.56864 -1.3125,0.52522 -1.16495,-0.048 -1.4019,-0.28494 -0.60417,-0.60416 z M 43.265058,98.227422 c -2.308321,-1.545513 -2.587054,-6.608206 -0.505361,-9.178988 1.920933,-2.372251 1.944711,-2.374611 12.332473,-1.223861 12.835658,1.421925 19.195174,1.727127 20.448594,0.981356 0.52758,-0.313904 2.421736,-0.884408 4.209236,-1.267787 2.619245,-0.56177 3.25,-0.381693 3.25,0.927857 0,0.893701 -1.0685,2.69341 -2.374444,3.999354 -2.447654,2.447654 -2.689958,2.499948 -20.644444,4.455455 -5.235388,0.570211 -10.860388,1.283507 -12.5,1.585102 -1.639611,0.301595 -3.536836,0.176276 -4.216054,-0.278488 z M 61.206444,83.897087 c -0.997767,-3.196963 -1.015648,-4.422055 -0.08098,-5.548257 3.262009,-3.930481 9.348429,2.120921 7.098913,7.05807 C 67.456121,87.093029 66.246131,88 64.764917,88 62.972506,88 62.214015,87.12546 61.206444,83.897087 Z M 68.556931,86.75 c 0.569522,-1.440628 11.397144,-5.130129 12.32495,-4.199714 0.339966,0.340921 -0.644475,1.706575 -2.187645,3.034786 C 75.611438,88.238444 67.604769,89.158531 68.556931,86.75 Z m 0.02737,-7.390905 c -1.664751,-4.338272 5.462871,-8.417032 8.440026,-4.82978 1.052907,1.268675 0.873637,1.950392 -1.051869,4 -2.65287,2.823851 -6.458926,3.251317 -7.388157,0.82978 z"
       id="path2997"
       style="fill:#fefefe"
       inkscape:connector-curvature="0" />
    <path
       sodipodi:nodetypes="ssssssssssss"
       d="m 110.20898,169.56694 c -3.74692,-1.3599 -8.96549,-6.14377 -7.88295,-7.2263 0.39599,-0.39599 1.37922,0.22123 2.18497,1.3716 1.76663,2.52222 9.41803,5.28776 14.62963,5.28776 6.59333,0 14.2697,-3.5744 18.3375,-8.53862 C 140.0689,157.29969 140.67742,156 139.56695,156 138.70513,156 138,155.62223 138,155.16052 c 0,-0.71086 1.40284,-1.60009 6.25,-3.96177 1.15142,-0.561 0.85976,6.10274 -0.34144,7.80125 -0.806,1.13968 -1.18356,1.19702 -1.57179,0.23872 -0.32087,-0.79205 -2.10912,0.51005 -4.80677,3.5 -6.6627,7.38464 -17.98868,10.21529 -27.32102,6.82822 z"
       id="path2993"
       style="fill:#fe0000"
       inkscape:connector-curvature="0" />
    <path
       sodipodi:nodetypes="cscsssssccssssssssssssssssscsss"
       d="M 112.24281,152.47584 C 105.95089,147.09019 101.8659,133.84968 105,129 c 0.84247,-1.30363 0.97138,-1.28596 0.98469,0.13499 0.0187,1.99275 4.40238,5.03744 6.23844,4.33288 1.99561,-0.76579 4.29734,7.69112 2.83631,10.42107 -1.37455,2.56837 -0.48468,6.41625 2.00487,8.66926 1.75793,1.59091 2.054,1.5943 4.41007,0.0505 3.10852,-2.03679 3.39083,-0.32818 0.30311,1.83455 -3.27355,2.29289 -4.96524,1.94381 -9.53468,-1.96746 z M 204,144 c 0,-3.49374 -0.0153,-3.49069 7.02763,-1.39915 5.29397,1.57214 5.42275,1.56118 7.1815,-0.61079 1.33495,-1.64859 1.79087,-1.81658 1.79087,-0.65986 0,2.11259 -1.553,2.95739 -8,4.3518 -7.8651,1.70114 -8,1.67277 -8,-1.682 z m -11.06575,-0.47209 c -2.51116,-1.30843 -5.21116,-3.16212 -6,-4.11931 -1.30823,-1.58744 -1.21459,-1.68675 1.06575,-1.13038 1.375,0.33547 4.8625,0.91809 7.75,1.2947 4.95533,0.64631 5.25,0.8459 5.25,3.55591 0,3.58104 -1.78899,3.66956 -8.06575,0.39908 z M 38.968611,94.941348 c -2.879382,-5.380174 1.289085,-10.02727 14.259432,-15.896719 7.884713,-3.568055 9.804338,-3.842879 7.268281,-1.040567 -1.511126,1.669775 -1.620381,2.428247 -0.654988,4.547053 2.226711,4.887098 1.846873,5.108207 -7.004355,4.07733 l -8.163019,-0.950723 -2.429351,2.824289 c -1.804707,2.098098 -2.283467,3.553711 -1.861981,5.661139 0.669071,3.345356 0.121238,3.646853 -1.414019,0.778198 z"
       id="path2991"
       style="fill:#0000fe"
       inkscape:connector-curvature="0" />
    <path
       sodipodi:nodetypes="ssssssssscscccsccccccssscscccssccsssscccccsssccccssccssssssssssssssssscccccssscssscccccssscsssssssssssssssssssssssssscccsssscsssssscssssssccssssssssssssssssssssssssssscsscssccccssssssscsscsccccsscccccscccssscccsccccssccccssssssccscsccccsccsccscsssssscssssssssssssssccsssscsssssc"
       inkscape:connector-curvature="0"
       id="path2989"
       d="m 64.761719,64.111328 c -1.069283,-0.06289 -1.752004,0.433645 -2.972657,1.654297 -2.692422,2.692425 -1.574898,4.255804 1.228516,1.71875 3.045911,-2.756512 4.554711,-0.707536 2.882813,3.916016 C 64.905705,74.151147 64.04153,75 62.234375,75 c -3.008273,0 -16.056111,5.99905 -20.623047,9.482422 -5.951545,4.539465 -5.751312,10.842455 0.445313,14.046875 2.500067,1.292835 4.003651,1.366736 9.074218,0.447265 3.34268,-0.606142 6.242329,-0.935404 6.445313,-0.732421 0.202983,0.202984 -0.07873,1.993039 -0.626953,3.978519 -0.662891,2.40094 -0.662748,5.06101 0.002,7.94336 0.614681,2.66545 1.008397,31.755 1.023437,75.56445 L 58,256.96094 36.25,257.25195 c -11.9625,0.15953 112.35,0.28435 276.25,0.27735 2.07152,-9e-5 3.56938,-0.002 5.62305,-0.002 6.87564,0 4.9375,-0.52734 4.9375,-0.52734 l -31.52344,0 -33.53711,0 0,-22.5 0,-22.5 16,0 c 10,0 16,-0.375 16,-1 0,-0.625 -6,-1 -16,-1 l -16,0 0,-46.5 c 0,-25.575 0.63717,-45.86831 0.71783,-46.27285 0.0898,-0.45023 0.07,-0.89666 0.48188,-0.83809 l 0.86865,-0.52773 C 258.67698,115.41129 258,114.9381 258,114.41016 258,113.63485 258.86753,113 259.92773,113 c 0.0291,0 0.10776,0.009 0.14063,0.01 l -0.70779,-0.37811 C 258.54984,112.24632 259,110.53287 259,109.86914 c 0,-2.3738 -4.18465,-2.55654 -6.08594,-0.26562 -1.11838,1.34756 -1.05863,2.08065 0.37696,4.58203 1.56687,2.7301 1.70898,8.77781 1.70898,72.89453 L 255,257 l -25.5,0 -25.5,0 0,-22.5 0,-22.5 14,0 c 8.66667,0 14,-0.38095 14,-1 0,-0.61905 -5.33333,-1 -14,-1 l -14,0 0,-30.86328 0,-30.86328 6.25,-1.20899 c 10.25138,-1.98121 11.82706,-3.55237 9.39258,-9.3789 C 217.86265,133.42558 213.41852,131 207.39258,131 l -3.67188,0 0.50586,-11.43555 C 204.72586,108.25002 204.25211,106 201.375,106 c -0.67384,0 -4.04802,5.36369 -7.49805,11.91992 -5.10363,9.69859 -6.47932,11.63669 -7.38476,10.39844 -1.6906,-2.31204 -10.11447,-2.96975 -12.33203,-0.96289 -0.98549,0.89186 -3.56305,2.23534 -5.72657,2.98437 -4.94831,1.71315 -5.04307,3.82288 -0.22265,4.96289 5.60261,1.32498 6.57255,6.69727 1.20898,6.69727 -1.65616,0 -2.83545,-0.81856 -3.60156,-2.5 -0.6265,-1.375 -1.5168,-2.5 -1.97852,-2.5 -1.17434,0 -1.06113,0.67113 0.68555,4.04883 1.24933,2.41593 2.16055,2.95117 5.03125,2.95117 2.1937,0 3.72185,-0.56138 4.08203,-1.5 0.32388,-0.84402 1.81114,-1.5 3.40235,-1.5 1.55535,0 4.05115,-0.46527 5.54492,-1.0332 2.22254,-0.84501 3.09664,-0.68232 4.81445,0.88867 2.60489,2.38227 9.99068,6.14453 12.06055,6.14453 1.36779,0 1.53906,6.14536 1.53906,55 l 0,55 -32.5,0 -32.5,0 0,-22.5 0,-22.5 12.5,0 c 7.66667,0 12.5,-0.38667 12.5,-1 0,-0.61333 -4.83333,-1 -12.5,-1 l -12.5,0 0,-22.62305 c 0,-19.99546 -0.17418,-22.47728 -1.5,-21.37695 -1.29256,1.07273 -1.5,7.45185 -1.5,46.12305 L 133,257 l -36,0 -36,0 0,-22.5 0,-22.5 9.5,0 c 5.666667,0 9.5,-0.40351 9.5,-1 0,-0.59649 -3.833333,-1 -9.5,-1 l -9.5,0 0,-48.46484 C 61,114.0938 61.04223,113.04776 63,112 c 2.387071,-1.27752 2.532191,-2.75384 0.494141,-5.00586 -1.300795,-1.43736 -1.320416,-2.19376 -0.150391,-5.57812 1.330908,-3.849725 1.45639,-3.928264 7.445312,-4.599614 7.058782,-0.79128 9.58562,-1.933177 11.820313,-5.34375 C 84.442517,88.674927 83.85534,86 81.408203,86 80.031318,86 79.969447,85.741132 81.035156,84.457031 83.379765,81.63195 80.692341,80.505705 76.044922,82.365234 71.321853,84.255031 70,84.393895 70,83 c 0,-0.55 0.8154,-1 1.8125,-1 0.9971,0 3.0221,-1.26209 4.5,-2.804688 C 81.292289,73.997534 79.040599,66 72.597656,66 c -1.076073,0 -3.457802,-0.543426 -5.292968,-1.207031 -1.121614,-0.405581 -1.9014,-0.643909 -2.542969,-0.681641 z m 8.982422,8.927734 c 1.240374,3.77e-4 2.444938,0.484895 3.279297,1.490235 1.052906,1.268675 0.874724,1.950392 -1.050782,4 -4.374433,4.656371 -9.845186,1.97721 -6.472656,-3.169922 0.996455,-1.520782 2.649374,-2.320795 4.244141,-2.320313 z m -12.03125,3.56836 c 2.866218,-0.06172 4.845809,1.133945 6.236328,3.611328 C 69.8838,83.665447 68.111119,88 64.765625,88 c -2.978051,0 -5.607077,-7.180715 -3.607422,-9.853516 1.046916,-1.399345 0.95029,-1.388984 -0.640625,0.06641 -1.587689,1.45244 -1.693539,2.106005 -0.695312,4.296875 2.247509,4.932746 1.879196,5.151454 -6.984375,4.11914 l -8.164063,-0.951172 -2.429687,2.824219 c -1.804711,2.098098 -2.282815,3.554683 -1.861329,5.662109 0.669071,3.345357 0.121195,3.645999 -1.414062,0.777344 -2.882962,-5.386863 1.286,-10.025679 14.306641,-15.917968 3.442511,-1.557857 6.208219,-2.368015 8.4375,-2.416019 z m 18.302734,5.708984 c 0.381862,-0.02391 0.646528,0.01372 0.757813,0.125 0.28084,0.28084 5.56e-4,1.125557 -0.623047,1.876953 -0.623601,0.751397 -0.912807,1.587193 -0.642579,1.857422 0.270229,0.270228 -0.07031,0.578751 -0.757812,0.685547 -8.124358,1.261988 -10.733052,1.259388 -10.232422,-0.0098 0.486974,-1.234532 8.825015,-4.367785 11.498047,-4.535156 z m -35.349609,4.378906 11.193359,1.289063 c 10.456731,1.204436 19.618818,0.999604 24.890625,-0.554687 3.083124,-0.909 3.013218,1.896938 -0.125,5.035156 -2.447654,2.447654 -2.690045,2.499571 -20.644531,4.455078 -5.235388,0.570211 -10.860388,1.284342 -12.5,1.585937 -3.777579,0.69486 -5.296831,-0.333765 -6.048828,-4.09375 -0.424312,-2.121557 -0.04176,-3.671882 1.318359,-5.351562 z m 18.505859,10.533204 c 0.518039,0.09405 0.242929,1.128873 -0.839844,4.306644 -1.487913,4.36678 -1.484371,4.79938 0.0293,5.64648 C 63.262841,107.68615 64,108.75116 64,109.54883 64,110.3465 63.55,111 63,111 c -0.55,0 -1,-0.675 -1,-1.5 0,-0.93333 -0.944444,-1.5 -2.5,-1.5 -1.375,0 -2.497208,-0.5625 -2.494141,-1.25 0.01129,-2.52994 2.114535,-8.75 2.958985,-8.75 0.479165,0 1.571134,-0.267746 2.425781,-0.595703 0.348082,-0.133572 0.60857,-0.207132 0.78125,-0.175781 z m 57.867185,6.169924 c -1.03331,0.14886 -1.45235,2.31463 -1.28711,6.51953 0.19199,4.88561 -0.1512,6.86555 -1.43945,8.28906 -1.63004,1.80117 -1.76827,1.71269 -3.75195,-2.41797 -2.42191,-5.04323 -5.44369,-5.99005 -9.51172,-2.98242 -1.96935,1.456 -3.13892,1.72251 -4.41602,1.00781 -1.182564,-0.6618 -2.195293,-0.59174 -3.171872,0.21875 -0.83073,0.68944 -2.53312,0.9146 -4.044922,0.53516 -1.901922,-0.47735 -2.488319,-0.30368 -2.15625,0.63867 0.302234,0.85769 2.019923,1.21154 5.097656,1.05078 C 100.95725,116.01755 101,116.04426 101,119.19336 c 0,1.84523 0.87494,4.1094 2.08594,5.39844 1.68201,1.79042 1.87555,2.61205 1,4.24804 -3.14593,5.87822 0.69031,18.0314 7.61523,24.12696 5.24815,4.61961 7.1457,4.9342 10.78516,1.7832 2.26084,-1.95741 2.72198,-3.42036 3.53906,-11.25 0.51656,-4.95 0.94703,-12.95625 0.95703,-17.79102 0.0151,-7.45884 0.34909,-9.23894 2.20703,-11.75195 1.57498,-2.13026 2.41252,-2.60964 2.98438,-1.70898 0.43727,0.68868 0.80254,12.93643 0.81055,27.21679 0.0133,22.5922 0.20209,25.77411 1.45312,24.5 1.16824,-1.18981 1.48097,-6.63394 1.66797,-29.03906 0.12657,-15.16561 -0.0963,-28.10311 -0.49609,-28.75 -1.18407,-1.91585 -4.09905,-1.34903 -6.56641,1.27734 l -2.30469,2.45508 -2.1582,-3.20508 c -1.56101,-2.31637 -2.73733,-3.42046 -3.54102,-3.30468 z M 121.24023,104 c 0.43417,0 1.71942,1.4625 2.85547,3.25 1.95242,3.07201 2.03738,4.29026 1.55664,22.24023 -0.50851,18.98649 -0.50977,18.99041 -3.13672,21.25 -3.0096,2.58876 -3.88595,2.75748 -5.23828,1.00977 -2.21216,-2.85894 -2.12817,-5.29005 0.44727,-13.06445 2.39777,-7.23808 2.71175,-9.71805 2.71875,-21.43555 0.004,-7.2875 0.36271,-13.25 0.79687,-13.25 z m 12.5918,2.00781 C 134.53687,106.02672 135,106.34204 135,107 c 0,0.55 -0.675,1 -1.5,1 -0.825,0 -1.51536,0.3375 -1.53516,0.75 -0.0198,0.4125 -1.1436,2.1 -2.49609,3.75 l -2.45898,3 -0.004,-2.57617 c -0.003,-1.41662 1.03564,-3.55412 2.30859,-4.75 1.49624,-1.40564 3.34285,-2.19753 4.51758,-2.16602 z m 68.08399,1.11524 c 0.34739,0.0143 0.64635,0.10729 0.8125,0.27343 0.33229,0.3323 -0.25834,0.5688 -1.3125,0.5254 -1.16495,-0.048 -1.40125,-0.28625 -0.60352,-0.60547 0.36094,-0.14446 0.75612,-0.20767 1.10352,-0.19336 z m -2.30664,3.32812 c 0.31573,-0.0851 0.48694,0.27766 0.61718,0.95899 0.32945,1.72337 -0.84325,5.14713 -3.61914,10.5625 -2.761,5.3863 -4.68109,8.01453 -5.85742,8.01953 -0.9625,0.004 -1.75,-0.23716 -1.75,-0.53711 0,-0.29995 2.41565,-5.05661 5.36914,-10.57031 3.15646,-5.89261 4.5456,-8.24639 5.24024,-8.4336 z m -86.28516,4.36524 1.20312,2.84179 c 0.97773,2.31056 0.93589,3.15036 -0.22656,4.49219 -2.54201,2.93426 -5.23239,2.97314 -5.95703,0.0859 -0.51255,-2.04216 -0.0603,-3.08333 2.16797,-5 z m 87.57812,0.68359 0.0488,7.25 0.0488,7.25 -3.5,0 c -1.925,0 -3.47787,-0.3375 -3.45117,-0.75 0.0267,-0.4125 1.57954,-3.675 3.45117,-7.25 z M 120,117.59375 l 0,3.22266 C 120,124.03897 115.77739,132 114.06836,132 c -0.49811,0 -1.50385,0.21315 -2.23633,0.47266 C 110.04079,133.10729 107,130.68234 107,128.61914 c 0,-0.91366 1.2375,-2.18604 2.75,-2.82617 1.5125,-0.64014 4.4375,-2.74695 6.5,-4.68164 z m 61.21484,9.51563 c 0.77967,0 1.90381,0.29704 3.28516,0.89062 1.67602,0.72021 1.47353,0.87079 -1.25,0.92969 C 181.4625,128.96835 180,128.55 180,128 c 0,-0.59359 0.43518,-0.89063 1.21484,-0.89062 z M 119,127.73047 l -0.0762,2.38476 c -0.0418,1.31167 -0.63642,3.93336 -1.32031,5.82618 -1.00303,2.77609 -1.37493,3.09837 -1.92383,1.66797 -1.11077,-2.89462 -0.79461,-4.64725 1.32031,-7.33594 z m -13.19727,0.31445 c 0.13921,0.0191 0.17498,0.37935 0.18165,1.08985 0.0186,1.99275 4.40222,5.03854 6.23828,4.33398 1.99561,-0.76579 4.29696,7.68997 2.83593,10.41992 -1.37455,2.56837 -0.48369,6.41691 2.00586,8.66992 1.75793,1.59086 2.05409,1.59453 4.41016,0.0508 3.10852,-2.03679 3.39045,-0.32875 0.30273,1.83398 -3.27355,2.29289 -4.96571,1.94447 -9.53515,-1.9668 C 105.95027,147.09091 101.8659,133.84968 105,129 c 0.42124,-0.65181 0.66353,-0.97417 0.80273,-0.95508 z m 72.10743,2.16797 c 2.49419,0.002 5.53513,0.10221 9.29492,0.29688 L 201,131.22461 l 0,3.88867 c 0,4.63388 0.062,4.62593 -16,1.8711 -5.775,-0.9905 -12.6375,-2.09401 -15.25,-2.45313 -2.6125,-0.35911 -4.75,-1.00434 -4.75,-1.43359 0,-0.42924 1.89192,-1.34798 4.20508,-2.04102 1.91054,-0.57241 4.54809,-0.84631 8.70508,-0.84375 z M 207.53125,132 c 5.97981,0 10.09181,2.32985 11.4668,6.49609 1.55029,4.69744 0.71295,5.58383 -6.77344,7.16602 C 204.0914,147.38101 204,147.36246 204,144 c 0,-3.48592 2.2e-4,-3.48624 6.89258,-1.43945 5.30211,1.57456 8.10742,0.92539 8.10742,-1.875 0,-0.58778 -0.5772,-0.27801 -1.2832,0.6875 -1.22097,1.6698 -1.58711,1.67127 -7.5,0.0273 L 204,139.67188 l 0,-3.83594 C 204,132.11191 204.10227,132 207.53125,132 Z m -21.21484,5.97266 c 0.2815,-0.0197 0.82846,0.096 1.68359,0.30468 1.375,0.33547 4.8625,0.91832 7.75,1.29493 4.95533,0.64631 5.25,0.84663 5.25,3.55664 0,2.08552 -0.47886,2.85802 -1.75,2.82421 -2.3848,-0.0634 -10.55118,-4.40296 -12.31641,-6.54492 -0.81764,-0.99215 -1.08636,-1.40276 -0.61718,-1.43554 z"
       style="fill:#000000" />
    <path
       inkscape:connector-curvature="0"
       id="path3422"
       d="m 291.96055,90.83551 c 0.91566,0.1934 1.75083,0.61276 3.46507,2.53733 1.54108,1.73017 2.50293,3.18532 1.98287,8.77194 -0.68653,7.37487 -3.99091,14.09286 -9.07812,18.46093 l -3.84961,3.30664 3.26172,1.55274 c 3.31157,1.57635 4.87071,4.63037 3.79687,7.4375 -0.8932,2.33491 -2.33257,1.72674 -1.71875,-0.72656 0.36437,-1.45636 -0.0196,-2.78563 -1.12891,-3.89844 -1.62046,-1.62552 -1.70807,-1.57069 -2.32617,1.46094 -0.353,1.73137 -1.38773,3.69551 -2.30078,4.36523 -6.6063,4.84575 -14.29077,-5.52687 -8.44141,-11.39453 l 2.20899,-2.21484 -4.10352,-1.1543 c -2.25739,-0.634 -3.90052,-1.35651 -3.65039,-1.60742 0.25013,-0.25091 3.21597,0.52003 6.58985,1.71484 5.58411,1.97752 6.2667,2.04021 7.60742,0.69531 1.17079,-1.17445 1.25564,-1.88351 0.41406,-3.46093 -0.91798,-1.72061 -1.89895,-1.98438 -7.38086,-1.98438 -3.47724,0 -6.74106,0.31644 -7.25195,0.70312 -0.51088,0.38675 0.40937,-0.5625 2.04492,-2.10937 1.63555,-1.54688 6.63174,-4.92188 11.10352,-7.5 4.47179,-2.57813 8.55822,-5.4797 9.08007,-6.44727 1.24252,-2.30379 -0.32848,-5.83455 -2.9707,-6.67578 -2.58427,-0.82279 -5.06781,0.85461 -15.66601,10.57813 -4.75467,4.36226 -8.64454,7.70074 -8.64454,7.41992 0,-0.28084 4.44634,-4.54322 9.88086,-9.47266 6.72135,-6.09666 11.09288,-9.32646 13.67188,-10.10156 1.39073,-0.41797 2.70579,-0.40389 3.40362,-0.25653 z m -7.45663,15.14575 -6.96066,4.23187 c -2.7841,1.51266 -5.0625,2.92935 -5.0625,3.14844 0,0.21908 1.60552,0.39844 3.5664,0.39844 3.12577,0 4.87428,-0.38795 6.18657,-3.14844 z m -28.2634,2.15375 c 1.57352,0 2.22266,0.52882 2.22266,1.8125 0,1.28061 0.75465,1.8998 2.57031,2.10938 2.31194,0.26684 2.53823,0.61345 2.25977,3.46289 -0.29648,3.03386 -0.19834,3.14425 2.33593,2.60351 2.4662,-0.52621 2.5043,-0.49253 0.54297,0.49219 -1.6884,0.84771 -2.44239,0.74966 -3.8125,-0.49414 -0.93917,-0.8526 -2.53527,-1.54883 -3.54687,-1.54883 -0.54562,0 -0.97164,0.20758 -1.39649,0.95898 l -2.92401,-0.0455 c -0.20536,-2.39667 -0.39202,-5.02498 -0.7752,-5.89395 -0.77981,-1.76831 -0.84146,-1.6635 -0.44141,0.76172 0.42639,2.58488 0.38012,2.64276 -0.57813,0.72461 -1.31733,-2.63694 0.33591,-4.94336 3.54297,-4.94336 z"
       style="fill:#000000"
       sodipodi:nodetypes="csscccsscsscccssssscsssssssscccssccsscssssscccsss" />
    <path
       id="path3493"
       d="m 288.02959,92.60376 c 0.60893,-0.0307 1.15432,0.0921 1.68359,0.33398 2.64532,1.20905 3.7901,4.15018 2.52734,6.49024 -0.49744,0.92181 -4.56337,3.78515 -9.03515,6.36328 -4.47179,2.57812 -9.46797,5.95312 -11.10352,7.5 -1.63555,1.54687 -2.5558,2.49609 -2.04492,2.10937 0.51089,-0.3867 3.7747,-0.70312 7.25195,-0.70312 5.43102,0 6.46672,0.27144 7.35352,1.93359 0.76621,1.43625 0.74476,2.28192 -0.082,3.28125 -1.44332,1.74452 -1.99331,1.68932 -9.72852,-0.97461 -4.39721,-1.51436 -7.11219,-3.07182 -8.36914,-4.80273 l -1.85938,-2.5625 7.9004,-7.39648 c 9.02241,-8.44709 12.86713,-11.43937 15.50586,-11.57227 z"
       style="fill:#fefefe"
       inkscape:connector-curvature="0" />
    <path
       id="path3489"
       d="m 253.1038,110.54517 c 0.41748,-0.005 1.46196,2.24073 1.54102,3.68359 0.0283,0.51562 -0.35719,0.30469 -0.85547,-0.46875 -0.49828,-0.77344 -0.88172,-2.03906 -0.85352,-2.8125 0.0102,-0.27841 0.0716,-0.40109 0.16797,-0.40234 z"
       style="fill:#fefefe"
       inkscape:connector-curvature="0" />
    <path
       id="path3487"
       d="m 260.33232,112.82251 c 2.99968,0 3.07585,0.0702 2.28906,2.12695 -0.65361,1.70859 -5.09375,0.98517 -5.09375,-0.83007 0,-0.81607 1.04054,-1.29688 2.80469,-1.29688 z"
       style="fill:#fefefe"
       inkscape:connector-curvature="0" />
    <path
       id="path3485"
       d="m 263.95537,114.69751 c 1.22555,0 2.99461,2.4231 2.28711,3.13281 -1.27948,1.28348 -3.10743,0.54375 -3.10743,-1.25781 0,-1.03125 0.36924,-1.875 0.82032,-1.875 z"
       style="fill:#fefefe"
       inkscape:connector-curvature="0" />
    <path
       id="path3476"
       d="m 278.91435,121.43384 c 0.13672,0.007 0.26979,0.0312 0.40039,0.0742 2.08505,0.68624 1.84207,5.44149 -0.40039,7.83593 -2.66114,2.8415 -4.01456,2.43838 -4.38476,-1.30468 -0.28917,-2.92361 2.33391,-6.71019 4.38476,-6.60547 z"
       style="fill:#fefefe"
       inkscape:connector-curvature="0" />
    <path
       id="path3481"
       d="m 288.34325,119.73092 c 4.18346,-3.53115 7.48755,-10.66072 8.11155,-17.50313 0.45931,-5.03648 0.25786,-6.15636 -1.50925,-8.39037 -1.12162,-1.41797 -2.83079,-2.57813 -3.79816,-2.57813 -1.57673,0 -1.52132,0.23827 0.53512,2.30114 1.26168,1.26563 2.29397,2.9948 2.29397,3.84262 0,1.7966 -4.86784,6.6194 -7.5399,7.47013 -1.01048,0.32172 -1.54528,2.22496 -2.5647,4.22943 -2.21929,4.36376 -3.37508,4.65668 -1.59918,4.65668 0.75917,0 2.07629,1.0655 2.92691,2.36777 1.44826,2.21724 1.44043,2.48544 -0.12331,4.21875 -2.43224,2.696 -0.1457,2.26564 3.26695,-0.61489 z"
       style="fill:#0000fe"
       inkscape:connector-curvature="0"
       sodipodi:nodetypes="ssssssssssss" />
    <path
       id="path3473"
       d="m 271.54658,119.60981 c 0,-0.3916 -0.81646,-1.22347 -1.81435,-1.84861 -4.53943,-2.84379 -9.90568,-16.10549 -8.99149,-22.22084 0.75461,-5.04781 4.09932,-10.75241 5.22914,-8.9186 0.44119,0.71609 0.95645,1.10326 1.14502,0.86038 0.62958,-0.81089 2.50643,-7.84161 2.18058,-8.16848 -0.53759,-0.53926 -7.0947,2.86352 -7.0947,3.68176 0,0.42014 0.43829,0.76387 0.97397,0.76387 0.5357,0 -0.18705,1.98734 -1.60609,4.41632 -3.57457,6.11861 -3.58051,12.78139 -0.0182,20.42743 3.19869,6.86557 9.99614,14.35027 9.99614,11.00677 z"
       style="fill:#fe0000"
       inkscape:connector-curvature="0" />
    <path
       inkscape:connector-curvature="0"
       id="path3436"
       d="m 421.26203,60.20233 c 0.62812,-0.0192 1.08802,0.0523 1.46289,0.19531 5.40443,2.06119 2.86259,3.77511 -17.5625,11.83789 -8.80539,3.47592 -16.18621,6.46021 -16.40039,6.63086 -0.97031,0.77316 1.33194,1.16357 15.34375,2.60352 16.72538,1.71882 21.17522,2.65663 22.98633,4.8457 1.05384,1.27377 0.9645,1.70917 -0.5918,2.8711 -1.54693,1.15496 -4.68586,1.24898 -20.0586,0.60156 -10.02335,-0.42213 -22.84969,-0.71394 -28.5039,-0.64844 -10.71035,0.12416 -11.36017,-0.0427 -4.02149,-1.0332 3.27275,-0.44174 4.26173,-0.93406 3.88086,-1.92969 -0.28792,-0.75267 0.78367,-2.63391 2.45508,-4.31055 l 2.96484,-2.97461 -2.26562,-2.27343 c -2.20043,-2.2073 -2.36656,-2.23023 -5.79102,-0.79493 -1.93938,0.81286 -4.63164,1.42845 -5.98242,1.36914 -2.09665,-0.092 -1.97801,-0.21496 0.81446,-0.84179 1.79906,-0.40384 13.85776,-4.36499 26.79687,-8.80274 15.86426,-5.44098 21.75081,-7.26242 24.47266,-7.3457 z m -59.39258,15.36133 c 1.33881,-0.0297 2.33908,0.0197 2.67969,0.15625 0.68124,0.27301 -0.44392,0.53428 -2.5,0.58203 -2.05607,0.0478 -4.63021,0.32751 -5.72071,0.62109 -1.9827,0.53379 -1.98196,0.53455 0.23438,2.75782 2.33018,2.33747 2.85211,4.61596 1.28125,5.58984 -1.99815,1.23878 -0.7451,2.19422 3.67969,2.80469 l 4.61523,0.63476 -2.97852,2.5625 c -5.08111,4.3673 -9.67436,6.70329 -15.78906,8.03516 -8.01439,1.74563 -13.33035,1.75547 -14.76172,0.0254 -1.81809,-2.19752 0.52019,-4.46054 3.85157,-3.72656 2.7439,0.60454 16.17355,-2.62944 18.3125,-4.41016 2.13683,-1.77896 1.27607,-2.51042 -1.6504,-1.40234 -2.36664,0.89609 -3.3412,0.79877 -5.72265,-0.57227 -2.81614,-1.6213 -3.03502,-1.59714 -11.69336,1.31055 -6.71302,2.25439 -9.08213,2.70171 -9.91016,1.87109 -1.85097,-1.85676 0.45018,-4.03293 5.68555,-5.37695 6.04775,-1.55256 12.0414,-4.52197 15.29297,-7.57617 1.82177,-1.71121 3.06428,-2.16688 4.67187,-1.71094 1.56383,0.44353 1.81541,0.36174 0.87891,-0.28711 -0.93598,-0.64849 0.4493,-1.09712 4.83594,-1.56836 1.69068,-0.18162 3.36822,-0.29058 4.70703,-0.32031 z"
       style="fill:#000000" />
    <path
       id="path3505"
       d="m 420.8714,60.86835 c 0.40299,0.0125 0.77651,0.0568 1.10156,0.13867 5.08392,1.27997 3.11151,2.46183 -17.86718,10.70898 -8.2243,3.23314 -15.35348,6.23504 -15.8418,6.66992 -1.59146,1.41734 -3.88234,0.8375 -6.11719,-1.54882 -1.20533,-1.28703 -2.01504,-2.51073 -1.79883,-2.71875 1.1696,-1.12539 32.22958,-10.8766 33.31446,-10.45899 0.70823,0.27264 1.05655,0.11965 0.77343,-0.33984 -0.65855,-1.06892 3.61466,-2.53892 6.43555,-2.45117 z"
       style="fill:#fefefe"
       inkscape:connector-curvature="0" />
    <path
       id="path3503"
       d="m 385.18781,80.24139 c 0.6514,0.0233 1.42961,0.11339 2.40429,0.25 2.40069,0.33647 10.46275,1.25202 17.91602,2.03516 14.52095,1.52575 20.10878,2.65841 21.10742,4.2793 0.34457,0.55926 0.0463,1.40912 -0.66211,1.88671 -0.75939,0.51197 -8.4534,0.61258 -18.74804,0.2461 -29.1646,-1.03825 -31.41718,-1.59858 -26.45899,-6.57227 1.66125,-1.66644 2.48721,-2.19503 4.44141,-2.125 z"
       style="fill:#fefefe"
       inkscape:connector-curvature="0" />
    <path
       id="path3499"
       d="m 344.11554,83.06561 c 0.60718,-0.002 0.64453,0.57786 0.64453,1.73633 0,1.03125 -0.1056,1.875 -0.23437,1.875 -0.12876,0 -3.80883,1.24124 -8.17774,2.75977 -9.29402,3.23039 -10.52124,3.39275 -10.11523,1.33007 0.19182,-0.97454 2.09465,-1.9944 5.20898,-2.79296 2.69825,-0.69187 6.57148,-2.11045 8.60743,-3.15235 2.28205,-1.16787 3.45923,-1.75336 4.0664,-1.75586 z"
       style="fill:#fefefe"
       inkscape:connector-curvature="0" />
    <path
       id="path3495"
       d="m 359.79523,88.59296 c 0.84514,-0.0161 1.69864,0.22774 2.50977,0.74414 2.5305,1.61099 -6.76179,7.24523 -14.9336,9.05468 -7.58207,1.67886 -14.29297,1.46102 -14.29297,-0.46484 0,-1.02112 0.8593,-1.33738 3.14063,-1.1543 5.11459,0.41048 17.64701,-3.40213 19.67187,-5.98437 1.11169,-1.4177 2.49573,-2.1684 3.9043,-2.19531 z"
       style="fill:#fefefe"
       inkscape:connector-curvature="0" />
    <path
       id="path3479"
       d="m 376.25018,87.89639 c 1.30425,-0.25402 1.86622,-0.88287 1.54332,-1.72696 -0.28401,-0.74243 0.79945,-2.63882 2.45838,-4.30293 l 2.96619,-2.97546 -2.26574,-2.27282 c -2.20043,-2.20731 -2.3674,-2.23022 -5.79186,-0.79491 -1.93938,0.81285 -4.52617,1.47791 -5.74844,1.47791 -1.82472,0 -2.22232,0.48223 -2.22232,2.69531 0,1.48242 0.26285,4.01367 0.58411,5.625 0.51242,2.57013 0.94255,2.91402 3.50467,2.80202 1.60631,-0.0702 3.84357,-0.30744 4.97169,-0.52716 z"
       style="fill:#0000fe"
       inkscape:connector-curvature="0" />
    <path
       id="path3477"
       d="m 365.93016,85.74939 c -0.33529,-1.68165 -0.60961,-4.48137 -0.60961,-6.22161 0,-3.10776 -0.0707,-3.16289 -3.97196,-3.09817 -3.58409,0.0595 -9.32611,1.58447 -6.5636,1.74322 0.63067,0.0362 1.86262,1.16196 2.73764,2.50161 1.31534,2.01373 1.38882,2.76043 0.42409,4.31003 -0.6418,1.03089 -1.03262,2.00472 -0.8685,2.1641 0.16412,0.15937 2.36011,0.59769 4.87997,0.97406 l 4.58157,0.6843 z"
       style="fill:#0000fe"
       inkscape:connector-curvature="0" />
    <path
       id="path3470"
       d="m 369.96016,95.81685 c -0.0183,-0.64454 -0.64258,-3.70313 -1.38727,-6.79688 -2.52188,-10.47694 -1.0351,-26.19291 2.88947,-30.54306 1.92098,-2.1293 5.54043,-2.06895 5.54043,0.0924 0,1.49595 3.97982,7.10443 4.57922,6.45317 0.95623,-1.03896 1.56758,-8.34624 0.69827,-8.34624 -0.52886,0 -1.21201,0.40649 -1.5181,0.9033 -0.31069,0.50427 -1.36719,0.0901 -2.3916,-0.9375 -2.47065,-2.47836 -5.22184,-2.31792 -7.78265,0.45387 -5.4564,5.90596 -6.7528,23.71015 -2.7853,38.25221 0.51082,1.87228 2.20787,2.24099 2.15753,0.46875 z"
       style="fill:#fe0000"
       inkscape:connector-curvature="0" />
    <path
       style="fill:#fefefe"
       d="m 416.77353,107.18583 c -1.204,0.0884 -1.1509,0.22667 0.2285,0.58398 1.1642,0.30156 1.7178,1.24257 1.5508,2.63477 -0.1429,1.19077 0.2529,3.09593 0.8789,4.23437 0.6259,1.13845 2.4858,5.46333 4.1328,9.60938 1.647,4.14606 4.4441,10.30169 6.2148,13.67969 1.7707,3.378 3.3448,6.14257 3.5,6.14257 0.1552,0 1.4369,-0.44017 2.8477,-0.97656 3.0613,-1.1639 3.2851,-3.27463 0.6113,-5.76562 -2.8574,-2.66202 -10.1777,-14.08785 -14.5664,-22.73438 -2.4481,-4.82309 -4.3855,-7.4826 -5.3984,-7.4082 z m 9.58,26.79883 c -0.2504,0.004 -0.3479,0.58961 -0.4824,1.65429 -0.1772,1.40308 0.214,3.1985 0.8711,3.99024 0.6571,0.79174 1.8275,1.4414 2.6016,1.4414 1.0641,0 0.8527,-0.97493 -0.8711,-3.99218 -1.2234,-2.14132 -1.7971,-3.09866 -2.1192,-3.09375 z m 24.5996,26.48047 c -1.1171,-0.0712 -2.4337,0.16161 -3.3105,0.63085 -2.7785,1.48701 -1.8878,5.60797 1.8672,8.63672 1.4753,1.18999 11.2316,9.37251 21.6816,18.18164 10.45,8.80913 19.5625,16.04754 20.25,16.08594 1.6985,0.0948 1.5069,-1.83279 -0.541,-5.42969 -2.3409,-4.11139 -36.1734,-37.08328 -38.9199,-37.92968 -0.3042,-0.0937 -0.655,-0.15206 -1.0274,-0.17578 z"
       id="path2997-6"
       inkscape:connector-curvature="0"
       sodipodi:nodetypes="csccsssssscccsssccsssccsc" />
    <path
       style="fill:#0000fe"
       id="path2991-1"
       d="m 442.6083,162.65167 c -1.10917,-1.87991 -3.1567,-4.16499 -4.55007,-5.07795 -1.39337,-0.91297 -3.3858,-3.53736 -4.42763,-5.83199 -2.01407,-4.43596 -2.54139,-8.16288 -1.0221,-7.2239 1.60039,0.98909 6.25697,-1.39384 6.80283,-3.48126 0.79633,-3.04518 3.0758,-0.6606 6.43775,6.73461 1.5506,3.41082 4.23826,7.81765 5.97259,9.79294 3.09398,3.52384 3.10439,3.56914 0.55301,2.40666 -2.15139,-0.98024 -3.05532,-0.88667 -5.23572,0.54198 -1.79714,1.17753 -2.47609,2.33591 -2.13458,3.64185 0.75247,2.87747 -0.14298,2.31581 -2.39609,-1.50294 z"
       inkscape:connector-curvature="0"
       sodipodi:nodetypes="sssssssssss" />
    <path
       sodipodi:nodetypes="ccccccccccscsccssssssccscccsccscccssssccsccssccscsssccccscsccccsssscc"
       inkscape:connector-curvature="0"
       id="path2989-4"
       d="m 416.99185,106.16786 c -0.5127,-0.0571 -0.9849,0.18608 -1.4707,0.67188 -0.6921,0.69212 -0.98462,18.00765 -0.88282,52.13281 0.24902,25.26919 0.0527,50.4298 0.0527,75.59766 l 0,22.5 -28.03516,0 -9.91797,0 c 0,0 -8.28653,0.45507 0,0.45507 56.9864,-0.0549 90.27983,-0.12569 79.20313,-0.20507 l -38.25,-0.27539 0,-71.6543 c 0,-39.41013 0.21667,-71.43954 0.48047,-71.17578 1.8859,1.88586 6.51953,15.86304 6.51953,19.66406 0,4.62397 2.02845,8.19116 4.65625,8.19141 0.7953,0 1.35419,1.12395 1.36719,2.75 0.033,4.07407 3.31451,10.5746 6.72851,13.32812 1.6506,1.33126 3.52301,3.43551 4.16211,4.67578 1.8134,3.51908 48.98264,42.5001 50.65234,41.85938 4.0617,-1.55861 0.69156,-6.00649 -21.30664,-28.11328 -17.5352,-17.62171 -20.29072,-20.8324 -23.16992,-27 -1.7973,-3.85 -4.64718,-8.44403 -6.33398,-10.20899 -2.5699,-2.68898 -2.86057,-3.45771 -1.79297,-4.74414 0.7007,-0.84437 1.05842,-2.66285 0.79492,-4.04102 -0.6184,-3.23543 0.95268,-3.23886 2.42578,-0.006 1.2329,2.70583 3.42562,3.52694 2.41992,0.90625 -0.3361,-0.8761 -0.88615,-2.69054 -1.22265,-4.03125 -0.4851,-1.93264 -1.0543,-2.30298 -2.7461,-1.79102 -1.1737,0.35515 -2.35976,0.64644 -2.63476,0.64844 -0.275,0.002 -2.53805,-0.0501 -5.03125,-0.11524 l -4.5332,-0.11718 -4.9668,-9.625 c -3.7266,-7.22146 -5.62997,-10.1061 -7.16797,-10.27735 z m -0.21875,1.01758 c 1.0129,-0.0744 2.95034,2.58511 5.39844,7.4082 4.3887,8.64653 11.7091,20.07236 14.5664,22.73438 2.6737,2.49099 2.44997,4.60172 -0.61132,5.76562 -1.4108,0.53639 -2.69246,0.97657 -2.84766,0.97657 -0.6486,0 -6.94154,-12.84081 -9.71484,-19.82227 -1.647,-4.14605 -3.50692,-8.47093 -4.13282,-9.60938 -0.626,-1.13844 -1.0218,-3.0436 -0.8789,-4.23437 0.167,-1.3922 -0.38659,-2.33321 -1.55078,-2.63477 -1.3794,-0.35731 -1.43252,-0.49558 -0.22852,-0.58398 z m 9.58008,26.79883 c 0.3221,-0.005 0.89574,0.95243 2.11914,3.09375 1.7238,3.01725 1.93519,3.99219 0.87109,3.99219 -2.1667,0 -3.82985,-2.60376 -3.47265,-5.43165 0.1345,-1.06468 0.23202,-1.65048 0.48242,-1.65429 z m 14.22656,5.77539 c 1.1579,0.2114 2.95823,2.92751 5.26953,8.01172 1.5506,3.41082 4.23836,7.81768 5.97266,9.79297 3.094,3.52384 3.10413,3.56873 0.55273,2.40625 -2.1514,-0.98024 -3.05593,-0.88764 -5.23633,0.54101 -1.7971,1.17753 -2.47626,2.33664 -2.13476,3.64258 0.7525,2.87747 -0.14329,2.31679 -2.39649,-1.50195 -1.1091,-1.87991 -3.15542,-4.16517 -4.54882,-5.07813 -1.3933,-0.91297 -3.38594,-3.5374 -4.42774,-5.83203 -2.0141,-4.43596 -2.54078,-8.16359 -1.02148,-7.22461 1.6004,0.98909 6.25693,-1.39305 6.80273,-3.48047 0.2489,-0.95162 0.64167,-1.37343 1.16797,-1.27734 z m 10.37305,20.70508 c 0.3724,0.0237 0.72314,0.082 1.02734,0.17578 2.7465,0.8464 36.57902,33.8183 38.91992,37.92969 0.9395,1.65 1.7269,3.5625 1.75,4.25 0.023,0.6875 -0.52148,1.21808 -1.20898,1.17968 -0.6875,-0.0384 -9.8,-7.2768 -20.25,-16.08593 -10.45,-8.80913 -20.20634,-16.99165 -21.68164,-18.18164 -3.755,-3.02876 -4.64569,-7.14971 -1.86719,-8.63672 0.8768,-0.46924 2.19345,-0.70204 3.31055,-0.63086 z"
       style="fill:#000000" />
    <path
       inkscape:connector-curvature="0"
       id="path3555"
       d="m 422.78456,210.07021 c 7.69927,0 12.55078,0.38646 12.55078,1 0,0.61333 -4.83332,1 -12.5,1 l -5.80859,0 0,-2 5.75781,0 z"
       style="fill:#000000" />
    <path
       sodipodi:nodetypes="cssscccsccccccssscsccsc"
       inkscape:connector-curvature="0"
       id="path3544"
       d="m 323.89898,107.98656 c -1.28382,-0.056 -2.80521,0.46978 -3.75586,1.61524 -1.11838,1.34756 -1.05863,2.08065 0.37696,4.58203 1.56687,2.7301 1.70898,8.77781 1.70898,72.89453 l 0,69.91992 -14.40625,0.0391 0,0.47852 c 23.4988,0.005 46.05923,0.0128 71.90625,0.0117 2.07152,-9e-5 3.56938,-0.002 5.62305,-0.002 12.04291,0 9.92183,-0.52735 -6.18718,-0.52735 -5.63493,0 -20.39876,0 -20.39876,0 l -33.53711,0 0,-22.5 0,-22.5 16,0 c 10,0 16,-0.375 16,-1 0,-0.625 -6,-1 -16,-1 l -16,0 0,-46.5 c 0,-25.575 0.63614,-45.86694 0.7168,-46.27148 0.35255,-2.34838 1.62145,-4.13054 1.07942,-7.35938 -0.19793,-1.17028 -1.84247,-1.82481 -3.1263,-1.88086 z"
       style="fill:#000000" />
  </g>
</svg>
