<?xml version="1.0" encoding="UTF-8" standalone="no"?>
<!-- Created with Inkscape (http://www.inkscape.org/) -->

<svg
   xmlns:dc="http://purl.org/dc/elements/1.1/"
   xmlns:cc="http://creativecommons.org/ns#"
   xmlns:rdf="http://www.w3.org/1999/02/22-rdf-syntax-ns#"
   xmlns:svg="http://www.w3.org/2000/svg"
   xmlns="http://www.w3.org/2000/svg"
   xmlns:sodipodi="http://sodipodi.sourceforge.net/DTD/sodipodi-0.dtd"
   xmlns:inkscape="http://www.inkscape.org/namespaces/inkscape"
   id="svg3396"
   version="1.1"
   inkscape:version="0.91 r13725"
   width="686.91589"
   height="289.6875"
   viewBox="0 0 686.91589 289.6875"
   sodipodi:docname="ub630200.svg">
  <metadata
     id="metadata3402">
    <rdf:RDF>
      <cc:Work
         rdf:about="">
        <dc:format>image/svg+xml</dc:format>
        <dc:type
           rdf:resource="http://purl.org/dc/dcmitype/StillImage" />
        <dc:title></dc:title>
      </cc:Work>
    </rdf:RDF>
  </metadata>
  <defs
     id="defs3400" />
  <sodipodi:namedview
     pagecolor="#c1c1c1"
     bordercolor="#666666"
     borderopacity="1"
     objecttolerance="10"
     gridtolerance="10"
     guidetolerance="10"
     inkscape:pageopacity="0"
     inkscape:pageshadow="2"
     inkscape:window-width="1239"
     inkscape:window-height="923"
     id="namedview3398"
     showgrid="false"
     inkscape:zoom="0.70710678"
     inkscape:cx="293.76433"
     inkscape:cy="176.92985"
     inkscape:window-x="0"
     inkscape:window-y="0"
     inkscape:window-maximized="0"
     inkscape:current-layer="svg3396" />
  <g
     id="g3496"
     transform="translate(-42.109752,-5.3134227e-7)">
    <path
       sodipodi:nodetypes="ccccccscccccczccscc"
       inkscape:connector-curvature="0"
       id="path4056"
       d="m 330.7907,109.33129 c -1.98464,2e-4 -1.99707,0.5709 -1.71289,74.5 l 0.28516,74.5 -30.03517,0 -11.47461,0 0,0.54297 3.4375,0 c 26.63491,0 46.3943,-0.0171 69.10156,-0.0273 l 0,-0.51367 -28.10155,0 0,-22.5 0,-22.5 12.10155,-0.1875 c 4.67103,0 7.90625,-0.12436 7.90625,-0.90625 0,-0.78189 -2.68569,-0.92578 -7.90625,-0.92578 l -12.20311,0.0469 0.30078,-51.01367 c 0.29748,-50.4473 0.27861,-51.01202 -1.69922,-51.01172 z"
       style="fill:#000000" />
    <path
       inkscape:connector-curvature="0"
       id="path3811"
       d="m 255.91737,98.973545 c -0.97423,0 -2.91036,1.359235 -4.30469,3.021485 -2.33702,2.78607 -2.49309,3.47867 -1.99219,8.85938 0.71676,7.69954 4.13061,14.35101 9.26368,18.04883 3.90382,2.81222 4.0059,3.02167 3.84961,7.80859 -0.16952,5.19173 -1.63583,6.66667 -4.23633,4.26172 -2.02389,-1.87169 -5.57865,-3.74721 -6.10352,-3.2207 -0.83135,0.83394 0.40386,1.95071 4.79102,4.33203 3.60726,1.95801 4.5857,2.14474 6.13867,1.17187 2.5829,-1.61809 2.80664,-1.50153 2.80664,1.47461 0,3.75186 2.18295,6.55118 3.95703,5.07422 0.74544,-0.62054 1.62148,-0.86002 1.94727,-0.5332 1.33845,1.34263 3.54794,-1.97478 3.29297,-4.94336 -0.14493,-1.68751 0.0399,-3.37078 0.41015,-3.74219 1.28771,-1.29173 0.6364,-4.60666 -1.7168,-8.73633 l -2.36718,-4.15625 7.21679,-7.28125 c 3.96933,-4.00523 7.56312,-7.06902 7.98633,-6.80664 0.42321,0.26236 0.76953,20.91325 0.76953,45.89063 l 0,7.94922 3.18164,0 c 0.19311,-31.71013 0.46162,-57.0254 0.64454,-58.16016 0.31336,-1.94388 -0.0352,-2.39095 -2.04297,-2.625 -1.84824,-0.21545 -4.27853,1.27619 -10.2793,6.30859 -4.32279,3.62521 -8.25018,6.46914 -8.72656,6.32032 -0.47639,-0.14882 -2.27289,-3.62023 -3.99219,-7.71485 -3.20598,-7.63521 -7.34162,-12.601565 -10.49414,-12.601565 z"
       style="fill:#000000" />
    <path
       inkscape:connector-curvature="0"
       id="path3933"
       d="m 267.44915,147.2569 c -0.53442,-2.13593 0.1529,-5.93299 0.91558,-5.05816 0.17672,0.20271 0.60644,1.95059 0.95492,3.88419 0.71558,3.97037 -0.91481,4.99365 -1.8705,1.17397 z"
       style="fill:#fefefe" />
    <path
       inkscape:connector-curvature="0"
       id="path3931"
       d="m 271.00176,147.54777 c -0.62326,-0.6252 -1.13318,-2.07825 -1.13318,-3.22901 0,-2.05269 -5.20428,-17.16522 -6.24461,-18.13349 -0.29131,-0.27113 -0.22206,0.50908 0.15387,1.73381 0.48672,1.58566 0.36986,2.03232 -0.40591,1.55137 -0.64609,-0.40055 -0.861,-1.71866 -0.5281,-3.23906 0.43429,-1.98349 -0.1853,-3.60753 -2.73788,-7.17637 -6.09616,-8.52327 -7.3456,-11.50101 -6.09576,-14.52781 1.75372,-4.2471 3.10259,-4.895645 5.78315,-2.78053 2.92688,2.30949 9.31606,17.5988 11.47565,27.46124 0.87503,3.9961 1.80461,7.26563 2.06575,7.26563 0.26113,0 0.21314,-1.16016 -0.10666,-2.57813 -0.48356,-2.1441 -0.40946,-2.29356 0.44013,-0.88781 0.69125,1.14373 0.72947,2.53089 0.11822,4.2898 -0.57306,1.649 -0.57831,3.18213 -0.0144,4.19297 1.09154,1.95658 0.65619,6.44106 -0.66749,6.87571 -0.5333,0.17512 -1.47956,-0.19313 -2.1028,-0.81832 z"
       style="fill:#fefefe" />
    <path
       inkscape:connector-curvature="0"
       id="path3919"
       d="m 271.38207,125.16408 c -0.23695,-0.74072 -0.59523,-1.9522 -0.79616,-2.69216 -0.20969,-0.77213 1.84941,-3.13577 4.83249,-5.54726 2.85881,-2.31103 6.5793,-5.39702 8.26775,-6.85775 2.97376,-2.57269 7.67776,-3.6255 7.67776,-1.71836 0,0.51562 -1.05141,0.9375 -2.33645,0.9375 -1.28505,0 -2.33645,0.53724 -2.33645,1.19387 0,2.00634 -14.81782,16.21943 -15.30894,14.68416 z"
       style="fill:#fefefe" />
    <path
       inkscape:connector-curvature="0"
       id="path3953"
       d="m 259.24979,128.28822 c -4.66578,-3.33013 -8.00948,-10.03477 -8.68196,-17.40867 -0.45931,-5.03648 -0.25786,-6.15636 1.50925,-8.39038 2.92654,-3.699755 4.06354,-3.179585 1.72831,0.79069 l -1.98146,3.36882 2.00912,3.89681 c 1.105,2.14324 3.50778,5.98313 5.33949,8.53308 2.45629,3.41943 3.18262,5.22688 2.76737,6.88655 -0.30967,1.23765 -0.0729,2.84274 0.52623,3.56685 1.59925,1.93301 0.80334,1.62524 -3.21635,-1.24375 z"
       style="fill:#0000fe" />
    <path
       inkscape:connector-curvature="0"
       id="path3823"
       d="m 164.66346,30.819245 c -3.2407,0.18784 -9.614,4.82207 -19.54883,14.17969 -13.72103,12.92385 -15.89841,16.3397 -15.0039,23.52149 0.99259,7.96926 3.05985,14.59751 5.29883,16.98828 1.65849,1.77091 1.85687,2.48013 0.94921,3.39062 -0.90766,0.91047 -1.30228,0.90255 -1.88476,-0.043 -1.11499,-1.80973 -3.61275,-0.38086 -4.28516,2.45117 -0.32781,1.38066 -0.81479,3.24804 -1.08203,4.1504 -0.26724,0.90233 -0.0264,1.64062 0.53516,1.64062 0.56151,0 1.27538,-1.27442 1.58593,-2.83203 0.77657,-3.89498 2.19141,-4.48415 2.19141,-0.91211 0,4.84744 1.45643,6.55664 5.58594,6.55664 2.00765,0 3.93418,-0.4601 4.28125,-1.02344 0.36457,-0.59172 1.62829,0.69491 2.99219,3.046885 1.29844,2.23911 3.45644,5.25757 4.79687,6.70898 l 2.4375,2.63867 0.0371,6.42579 3.79883,0 c 0.13932,-3.16452 0.30523,-5.02009 0.5039,-5.5918 1.01312,-2.9153 0.89544,-3.22424 -2.27343,-5.99805 -4.68107,-4.09748 -8.70549,-12.852865 -8.91992,-19.406255 -0.137,-4.18684 -2.38498,-13.81205 -4.9336,-21.11914 -0.47407,-1.35921 20.90378,-21.42251 26.08008,-24.47656 6.10329,-3.60099 4.38435,-5.40014 -3.44141,-3.60156 l -3.16601,0.72851 3.16601,-2.85351 c 2.4708,-2.22565 2.92136,-3.1046 2.04688,-3.99414 -0.41967,-0.4269 -1.00019,-0.61953 -1.74805,-0.57618 z"
       style="fill:#000000" />
    <path
       inkscape:connector-curvature="0"
       id="path3901"
       d="m 150.97498,107.64542 c -0.78445,-0.90234 -3.39559,-5.09636 -5.80252,-9.320045 -4.69385,-8.23676 -5.77327,-12.65692 -3.22106,-13.19004 2.13371,-0.44571 4.73098,2.42281 4.07395,4.4994 -0.79192,2.50293 5.45643,14.330465 9.08669,17.200245 l 3.07429,2.43028 -2.89253,0.0104 c -1.5994,0.006 -3.53017,-0.72305 -4.31882,-1.63023 z"
       style="fill:#fefefe" />
    <path
       inkscape:connector-curvature="0"
       id="path3881"
       d="m 139.02745,96.750325 c 0,-3.09559 1.66186,-4.02933 3.30158,-1.85504 1.68835,2.2388 1.26679,3.53435 -1.27198,3.90909 -1.62342,0.23962 -2.0296,-0.17143 -2.0296,-2.05405 z"
       style="fill:#fefefe" />
    <path
       inkscape:connector-curvature="0"
       id="path3861"
       d="m 132.63482,63.771883 c -1.66786,-3.672005 0.24653,-6.352605 13.11746,-18.367501 10.71127,-9.998876 18.47675,-15.213004 20.15288,-13.531642 0.37974,0.380919 -1.07509,2.239899 -3.23293,4.131067 -4.96211,4.348874 -20.69914,23.299526 -21.91329,26.388158 -1.74793,4.446456 -6.37433,5.232274 -8.12412,1.379918 z"
       style="fill:#fefefe" />
    <path
       inkscape:connector-curvature="0"
       id="path3859"
       d="m 141.848,61.70792 c 0.009,-0.386719 4.05632,-5.554688 8.99352,-11.484375 8.50166,-10.210704 9.23028,-10.841164 13.76824,-11.913403 5.79783,-1.369924 6.19535,-1.402599 6.1862,-0.508472 -0.004,0.386719 -1.58106,1.607455 -3.50467,2.712748 -1.92362,1.105293 -8.2515,6.484199 -14.06197,11.953125 -10.43995,9.826277 -11.41423,10.617283 -11.38132,9.240377 z"
       style="fill:#fefefe" />
    <path
       inkscape:connector-curvature="0"
       id="path3947"
       d="m 136.32273,85.485515 c -2.3737,-2.53458 -4.48587,-9.72687 -5.26208,-17.91822 -0.51931,-5.480276 -0.49505,-5.558668 0.943,-3.046875 1.5464,2.701041 3.99333,3.267553 7.04266,1.6305 1.59021,-0.85371 1.96271,-0.282168 3.75861,5.766975 1.0964,3.69303 2.22568,8.15009 2.50951,9.90458 0.49022,3.03032 0.39785,3.16023 -1.84546,2.59544 -1.76286,-0.44383 -2.70482,-0.10288 -3.71578,1.34498 l -1.35427,1.93954 -2.07619,-2.21692 z"
       style="fill:#0000fe" />
    <path
       inkscape:connector-curvature="0"
       id="path3804"
       d="m 328.30995,108.68253 c -0.88911,0.0512 -1.61237,0.38191 -2.23633,1.00782 -1.30605,1.31014 -1.24626,1.86557 0.61328,5.70508 1.58438,3.27127 2.06055,5.93835 2.06055,11.55468 l 0,7.30274 -3.55469,2.0039 c -4.38907,2.4745 -6.40173,4.65504 -7.17773,7.77539 -0.85037,3.41937 1.998,6.59436 6.58398,7.33789 l 3.68164,0.59766 0.25586,6.08008 c 0.14074,3.34468 0.44127,6.60937 0.66992,7.2539 1.12886,3.18225 2.29436,0.42999 2.53906,-6 l 0.27344,-7.17382 4.89258,-1.59766 c 6.89164,-2.24963 12.44819,-6.36406 14.19727,-10.51562 0.90061,-2.13768 2.48137,-3.91345 4.07812,-4.58204 1.43402,-0.60045 3.11623,-1.80077 3.73828,-2.66601 1.79013,-2.48995 4.40039,-3.12274 4.40039,-1.06641 0,1.86578 2.49355,4.46047 3.40625,3.54492 0.30579,-0.30674 -0.12481,-1.23939 -0.95703,-2.07421 -1.87661,-1.88248 -1.87816,-2.23874 -0.0195,-4.29883 1.91114,-2.11838 0.96161,-3.64844 -2.26367,-3.64844 -1.39082,0 -4.09948,-0.84375 -6.01758,-1.875 -5.47856,-2.9455 -7.99582,-2.52036 -9.71484,1.64062 -0.79883,1.93361 -1.62963,3.70367 -1.84766,3.9336 -0.21802,0.22992 -3.50272,-2.67643 -7.29883,-6.45899 -6.30347,-6.28097 -6.8587,-7.13973 -6.41211,-9.90039 0.43556,-2.69245 0.20591,-3.09436 -2.0957,-3.67382 -0.66862,-0.16835 -1.26146,-0.23772 -1.79492,-0.20704 z m 3.24023,13.56641 3.60156,4.53516 3.60157,4.5332 -2.90039,1.09961 c -1.59491,0.60531 -3.21606,1.13267 -3.60157,1.17187 -0.38552,0.0392 -0.70117,-2.49453 -0.70117,-5.63281 l 0,-5.70703 z"
       style="fill:#000000" />
    <path
       inkscape:connector-curvature="0"
       id="path3929"
       d="m 321.69311,146.18041 c -1.2605,-1.36437 -2.29182,-2.98648 -2.29182,-3.60471 0,-1.43452 2.43932,-3.57843 6.30841,-5.54442 l 3.03738,-1.54338 0,5.03502 c 0,3.68724 -0.45749,5.45035 -1.7091,6.58658 -2.25979,2.05147 -2.65458,1.98285 -5.34487,-0.92909 z"
       style="fill:#fefefe" />
    <path
       inkscape:connector-curvature="0"
       id="path3927"
       d="m 331.55082,138.8694 0,-4.16666 10.98131,-3.41284 c 6.03972,-1.87708 11.90518,-4.0049 13.03436,-4.72851 2.29228,-1.46897 10.85922,-0.8207 10.32684,0.78144 -0.1677,0.50467 -2.8115,1.87765 -5.87512,3.05106 -3.0636,1.17342 -10.40664,4.49407 -16.31786,7.37921 -5.91121,2.88516 -11.06308,5.24961 -11.44859,5.25434 -0.38552,0.005 -0.70094,-1.86638 -0.70094,-4.15804 z"
       style="fill:#fefefe" />
    <path
       inkscape:connector-curvature="0"
       id="path3925"
       d="m 346.73774,139.60266 c -1.81501,-0.73466 -1.38928,-1.78961 1.19974,-2.97293 1.96479,-0.89802 2.46533,-0.82772 2.93991,0.41288 0.31458,0.82235 -0.015,1.86801 -0.73244,2.3237 -1.43396,0.91082 -1.69602,0.929 -3.40721,0.23635 z"
       style="fill:#fefefe" />
    <path
       inkscape:connector-curvature="0"
       id="path3923"
       d="m 335.31941,125.84148 c -2.07272,-2.75388 -3.76859,-6.0121 -3.76859,-7.24048 0,-1.94599 0.83951,-1.39773 6.52338,4.2602 4.50938,4.48882 6.16846,6.71977 5.37383,7.22613 -2.50816,1.59826 -4.52156,0.54659 -8.12862,-4.24585 z"
       style="fill:#fefefe" />
    <path
       inkscape:connector-curvature="0"
       id="path3921"
       d="m 347.45298,128.18266 c 0.0396,-1.70488 1.8307,-3.16901 3.22164,-2.63359 0.85548,0.32931 1.32503,0.97266 1.04346,1.4297 -0.63027,1.02297 -4.28488,2.05455 -4.2651,1.20389 z"
       style="fill:#fefefe" />
    <path
       inkscape:connector-curvature="0"
       id="path3917"
       d="m 326.8688,113.95145 c -0.79993,-1.93725 -0.88498,-3.206 -0.2571,-3.83584 0.62787,-0.62983 1.12665,0.22389 1.50798,2.58106 0.72541,4.48416 0.27088,4.94011 -1.25088,1.25478 z"
       style="fill:#fefefe" />
    <path
       inkscape:connector-curvature="0"
       id="path3957"
       d="m 324.61782,150.55017 c -3.64599,-0.70467 -6.15111,-2.92372 -6.15111,-5.4487 0,-0.77896 1.11883,-0.12476 2.71141,1.58543 3.12936,3.36046 3.54907,3.45788 5.85986,1.3601 1.61497,-1.4661 1.7091,-1.41447 1.7091,0.9375 0,1.36898 -0.10514,2.44053 -0.23364,2.38124 -0.12851,-0.0592 -1.88153,-0.4263 -3.89562,-0.81557 z"
       style="fill:#0000fe" />
    <path
       inkscape:connector-curvature="0"
       id="path3955"
       d="m 331.55082,147.77244 c 0,-3.44173 0.13213,-3.57394 6.1257,-6.1292 5.1606,-2.20014 6.49682,-2.44198 8.48125,-1.53498 1.29556,0.59213 2.73978,0.8384 3.20939,0.54726 1.9875,-1.23218 -0.36902,2.25698 -2.67486,3.9605 -3.65802,2.7025 -6.29488,4.00327 -10.98634,5.4196 l -4.15514,1.25442 0,-3.5176 z"
       style="fill:#0000fe" />
    <path
       inkscape:connector-curvature="0"
       id="path3965"
       d="m 322.63763,166.41109 c -3.45414,-1.07874 -6.68959,-2.85876 -8.34309,-4.59002 -3.64681,-3.81835 -2.30732,-4.74729 1.72469,-1.19608 2.24612,1.97829 5.31087,3.33229 10.11314,4.46797 6.42631,1.51973 7.2342,1.5264 11.99554,0.0989 7.60324,-2.27949 17.3079,-9.96832 12.58179,-9.96832 -2.77074,0 -1.31607,-1.88702 3.23996,-4.20295 2.553,-1.29776 4.86609,-2.35955 5.14019,-2.35955 0.95157,0 0.48997,3.24058 -1.03049,7.23428 -1.55591,4.08685 -3.14405,5.30885 -3.14405,2.4192 0,-1.17806 -0.91858,-0.69799 -3.50468,1.83161 -4.05702,3.96841 -14.41509,8.24644 -19.6475,8.11472 -1.91583,-0.0482 -6.02231,-0.88063 -9.1255,-1.84977 z"
       style="fill:#fe0000" />
    <path
       inkscape:connector-curvature="0"
       id="path3819"
       d="m 192.84315,75.551665 c -1.48895,0.0781 -2.79589,0.73097 -3.9043,1.9629 -2.70681,3.00847 -2.37102,13.23555 0.63477,19.32812 2.15316,4.364335 2.20003,4.800605 0.86523,8.044925 -0.97903,2.37962 -1.86203,3.28929 -2.88281,2.9668 -0.91473,-0.28897 -1.94765,0.42508 -2.72851,1.88867 -0.69097,1.29513 -1.81584,2.35547 -2.5,2.35547 -0.68417,0 -1.24412,0.42188 -1.24415,0.9375 3e-5,1.65292 2.74789,1.00156 3.95508,-0.9375 1.36791,-2.19723 3.76524,-2.43487 5.3418,-0.5293 1.57317,1.90148 6.1311,2.71709 8.39453,1.50196 1.05212,-0.56483 2.18607,-2.11642 2.51953,-3.44922 0.59281,-2.3693 0.73244,-2.4105 6.31836,-1.78516 3.14223,0.35178 6.07923,0.99951 6.52539,1.4375 0.44616,0.438 2.12836,0.60336 3.73828,0.36914 3.49984,-0.50919 4.85145,-1.43996 5.4336,8.06446 l 4.39258,0 c 0.0721,-4.72023 0.14033,-8.02183 0.19921,-8.38086 0.39053,-2.3811 -0.55547,-2.97234 -6.74609,-4.2129 -1.74159,-0.34898 -2.6073,-1.24134 -2.99023,-3.08203 -0.62441,-3.001305 -8.32917,-13.874605 -14.01172,-19.773435 -4.13685,-4.29429 -7.72709,-6.5413 -10.66211,-6.70508 -0.22013,-0.0123 -0.43573,-0.0131 -0.64844,-0.002 z m 7.49805,14.67774 c 0.44964,0.0897 1.6176,1.32786 4.10937,4.05664 2.58963,2.83594 5.13443,5.894545 5.65625,6.796885 1.05277,1.82042 0.93764,1.83511 -3.97851,0.52343 -3.55878,-0.94952 -4.31068,-2.199535 -5.81836,-9.664065 -0.23383,-1.15766 -0.31843,-1.7827 0.0312,-1.71289 z"
       style="fill:#000000" />
    <path
       inkscape:connector-curvature="0"
       id="path3909"
       d="m 197.67232,108.70816 c -2.55476,-1.3489 -3.36327,-3.50721 -1.7001,-4.53832 0.47851,-0.29666 1.15238,-0.0811 1.49751,0.47912 0.34512,0.56016 1.36732,1.30533 2.27153,1.65591 1.04769,0.40621 1.43676,1.20381 1.0726,2.19885 -0.51241,1.40012 -0.83695,1.42125 -3.14154,0.20444 z"
       style="fill:#fefefe" />
    <path
       inkscape:connector-curvature="0"
       id="path3899"
       d="m 214.15733,106.23917 c -0.39578,-1.67578 -0.63947,-3.36328 -0.54156,-3.75 0.0979,-0.38671 -0.15877,-0.59765 -0.57043,-0.46875 -0.41167,0.12891 -3.64096,-3.088155 -7.1762,-7.149015 -3.53524,-4.06087 -7.80943,-7.96252 -9.49819,-8.67033 -3.96767,-1.66299 -5.55203,-4.50074 -4.18865,-7.50236 1.12873,-2.48504 2.10077,-2.70972 5.08417,-1.17518 5.18109,2.66495 19.09557,19.55692 17.8179,21.63068 -0.37631,0.61078 -0.22353,0.78538 0.36692,0.41932 1.43995,-0.89272 2.36567,2.739285 1.65997,6.512775 -0.75474,4.03567 -2.02145,4.10122 -2.95393,0.15286 z"
       style="fill:#fefefe" />
    <path
       inkscape:connector-curvature="0"
       id="path3897"
       d="m 219.58107,108.61734 c -3.08041,-0.59041 -1.9227,-2.6622 1.32012,-2.3624 4.53312,0.41908 6.91131,1.14565 6.91131,2.11147 0,0.91465 -4.11422,1.04007 -8.23143,0.25093 z"
       style="fill:#fefefe" />
    <path
       inkscape:connector-curvature="0"
       id="path3891"
       d="m 203.98073,106.40835 c -2.97878,-0.4986 -5.26584,-1.51593 -6.30841,-2.8061 -2.12413,-2.62856 -2.06223,-3.39615 0.37956,-4.707045 1.69446,-0.90968 2.25207,-0.77033 3.50467,0.87584 0.86772,1.140365 3.50821,2.421335 6.3248,3.068325 3.32799,0.76446 4.97585,1.6501 5.28634,2.84118 0.51006,1.95654 -1.08917,2.08323 -9.18696,0.7278 z"
       style="fill:#fefefe" />
    <path
       inkscape:connector-curvature="0"
       id="path3951"
       d="m 193.50332,101.06207 c -5.96662,-4.677485 -7.69846,-22.595995 -2.35484,-24.364335 0.93801,-0.31041 0.95917,0.10771 0.10107,1.99694 -1.37218,3.021 0.83874,6.85109 4.74287,8.21633 2.16337,0.75651 2.77506,1.69848 3.50381,5.39568 0.85808,4.35332 0.80607,4.52339 -1.85118,6.05321 -1.75054,1.00781 -2.54211,2.075785 -2.20048,2.968845 0.66248,1.73178 0.59637,1.72269 -1.94125,-0.26666 z"
       style="fill:#0000fe" />
    <path
       inkscape:connector-curvature="0"
       id="path3963"
       d="m 167.06021,80.457925 c -0.003,-0.38672 0.71139,-2.70704 1.5865,-5.15625 1.59502,-4.464061 3.09103,-5.846621 3.09103,-2.856614 0,1.178064 0.91858,0.697996 3.50467,-1.831604 3.81225,-3.728972 14.21782,-8.202412 19.07946,-8.202412 5.3997,0 15.18839,3.545275 18.04398,6.535181 3.64124,3.812513 2.29563,4.735749 -1.73204,1.188375 -2.24612,-1.978284 -5.31087,-3.332288 -10.11314,-4.467962 -6.42631,-1.519739 -7.23419,-1.526401 -11.99553,-0.09892 -7.60324,2.279498 -17.30791,9.968326 -12.5818,9.968326 2.56545,0 1.448,1.81328 -2.29921,3.73095 -3.78878,1.93893 -6.57568,2.44303 -6.58392,1.19093 z"
       style="fill:#fe0000" />
    <path
       inkscape:connector-curvature="0"
       id="path4949"
       d="m 475.39357,148.80211 c -0.56862,2.7939 -1.82211,4.60442 -3.86798,5.96249 l -3.28845,2.18316 -1.34734,-2.49424 c -1.00906,-1.86575 -1.68588,-2.2664 -2.68558,-1.5936 -2.17469,1.46356 -2.71028,-0.68346 -2.57948,-10.36307 0.0673,-4.98292 0.0288,-9.16995 -0.0858,-9.3045 -0.1147,-0.13456 -4.29799,-0.42658 -9.29814,-0.64924 -5.00016,-0.22263 -9.82341,-0.80186 -10.7178,-1.28694 -1.85727,-1.00731 -7.43337,0.84602 -11.63375,3.86747 -1.56975,1.12917 -3.22053,1.9815 -3.66778,1.89409 -0.99112,-0.19375 6.4607,-4.62882 11.44964,-6.81495 5.23319,-2.29316 6.84271,-4.57635 5.17617,-7.34065 -1.73677,-2.88076 -2.7382,-3.00053 -4.40536,-0.52276 -0.74981,1.11437 -4.64345,4.36532 -8.65394,7.22408 -5.92275,4.22184 -6.37196,4.42102 -2.3867,1.06188 2.69854,-2.27458 4.83031,-3.69594 6.03113,-4.69808 1.76198,-1.47042 3.96987,-3.45813 2.09979,-2.42018 -0.672,0.37296 -2.90276,-0.13728 -4.95704,-1.13247 -5.02778,-2.4357 -6.22687,-6.80314 -2.83882,-10.33941 1.30205,-1.359 3.64402,-2.65079 5.20436,-2.87113 3.6138,-0.5103 3.0394,-0.34907 3.90451,-1.8475 1.60923,-2.78723 5.74161,0.27973 6.05285,1.94075 0.11223,0.59895 -1.18954,-0.0717 -2.93911,-0.87255 -0.71157,-0.38068 -1.42848,-0.46237 -1.98626,0.44245 -0.81227,1.31759 -0.85433,1.32412 0.76532,3.67624 1.11221,1.61523 2.10702,3.53674 2.21056,4.26997 0.20411,1.44548 8.99623,4.16478 20.863,5.96257 9.23591,1.39924 12.06139,4.4081 13.3433,14.20432 0.69252,5.29214 0.80732,9.06788 0.23875,11.8618 z m -50.65607,-11.08536 -2.70413,1.52521 c -3.06979,1.73073 -5.57525,1.53337 -6.97569,-0.54754 -0.52656,-0.78241 -0.7297,-1.82861 -0.44913,-2.32464 0.56107,-0.99191 6.25224,-1.63311 6.8332,-0.76988 0.19976,0.29683 -1.08858,0.54752 -2.86083,0.55526 -1.77224,0.008 -3.29878,0.41348 -3.39441,0.90272 -0.35716,1.82725 2.96706,2.7517 6.20248,1.7238 z"
       style="fill:#000000"
       sodipodi:nodetypes="ccccsssssscsssssscsssscccsssscccsscsscc" />
    <path
       id="path5012"
       d="m 416.43124,138.83652 c 1.79026,1.12099 6.84373,-0.0217 6.65185,-1.5041 -0.15542,-1.20068 -0.14098,-1.19703 -4.65943,-1.17729 -3.3248,0.0145 -4.25412,1.2652 -1.99242,2.68139 z"
       style="fill:#fefefe"
       inkscape:connector-curvature="0" />
    <path
       id="path5006"
       d="m 424.49298,136.14515 c 0.45536,0.42133 2.79114,-0.38616 5.19062,-1.79442 2.3995,-1.40827 5.9935,-3.27509 7.98667,-4.14849 5.23319,-2.29317 6.84361,-4.57673 5.17707,-7.34103 -1.65689,-2.74826 -2.77211,-3.01331 -4.02816,-0.95731 -0.53523,0.87609 -4.10302,3.95512 -7.92842,6.84228 -7.20385,5.43698 -7.78805,6.11261 -6.39778,7.39897 z"
       style="fill:#fefefe"
       inkscape:connector-curvature="0" />
    <path
       id="path5000"
       d="m 431.71565,122.02623 c 3.00106,1.05136 3.44623,0.99455 4.64014,-0.59203 1.072,-1.42454 1.03837,-2.19741 -0.17866,-4.10532 -1.76041,-2.75979 -4.62786,-2.66662 -6.57853,0.21374 -1.88027,2.77641 -1.70669,3.14403 2.11704,4.48358 z"
       style="fill:#fefefe"
       inkscape:connector-curvature="0"
       sodipodi:nodetypes="cssscc" />
    <path
       id="path4970"
       d="m 463.2628,131.61836 c 2.55364,3.35487 5.15172,14.60322 4.33691,18.77664 -0.85878,4.39863 0.43726,5.88871 3.3922,3.90006 2.42371,-1.63115 5.6613,-8.20648 3.67131,-7.4562 -0.7063,0.26628 -0.86869,-0.20699 -0.41026,-1.19541 0.41738,-0.89991 0.35439,-4.90159 -0.13997,-8.89262 -0.72228,-5.83098 -1.44459,-7.73544 -3.67698,-9.69495 -2.61607,-2.29627 -2.9432,-2.37124 -5.60758,-1.28532 -3.45041,1.40626 -3.83968,2.86026 -1.56563,5.8478 z"
       style="fill:#fefefe"
       inkscape:connector-curvature="0" />
    <path
       id="path4968"
       d="m 462.528,143.60501 c -0.0249,4.4784 0.0787,8.34675 0.23029,8.59632 0.64088,1.05554 3.78587,-1.61516 4.1599,-3.53255 0.41982,-2.15207 -2.58174,-15.40899 -3.53082,-15.5945 -0.71316,-0.13939 -0.80643,1.00367 -0.85937,10.53073 z"
       style="fill:#fefefe"
       inkscape:connector-curvature="0" />
    <path
       style="fill:#fe0000"
       d="m 448.63612,95.219639 c -5.90269,-0.1 -14.73438,2.12101 -18.41406,4.847661 -1.53979,1.14095 -4.42251,4.18265 -6.4043,6.75977 -2.2059,2.86858 -3.82808,6.18555 -4.18555,8.55273 -0.22076,1.60081 -0.36736,3.24137 -0.4414,4.49219 -0.41135,7.03872 4.85885,21.57253 8.74414,24.11523 0.87683,0.5738 0.93853,0.8878 0.15039,0.76758 -0.73287,-0.11181 -1.54378,0.1522 -1.80078,0.58594 -0.25701,0.43373 1.46812,1.93409 3.83398,3.33593 2.36587,1.40188 4.39897,2.38575 4.51758,2.18555 0.25839,-0.43606 -1.81098,-8.71714 -2.24219,-8.97265 -0.16549,-0.0981 -0.76158,0.31144 -1.32422,0.9121 -0.85715,0.91515 -1.47716,0.44765 -3.82617,-2.89062 -4.12219,-5.85821 -6.73752,-13.96948 -6.28125,-19.47656 0.22343,-1.90464 0.39413,-3.5326 0.76758,-5.06836 0.70031,-2.91003 2.42889,-5.78043 5.70508,-9.4707 4.38414,-4.93826 5.0414,-5.40697 9.75781,-6.976571 9.64267,-2.92454 22.17648,-2.1662 13.76953,-3.50976 -0.70013,-0.11429 -1.48293,-0.17518 -2.32617,-0.18946 z"
       id="path5038"
       inkscape:connector-curvature="0"
       sodipodi:nodetypes="scscccccscccsccsccs" />
    <path
       id="path5024"
       d="m 443.60556,122.80176 c 1.61557,2.40057 1.59522,2.64224 -0.39424,4.68138 -1.15377,1.18258 -1.74921,2.47264 -1.32321,2.86681 0.74977,0.69373 14.73472,1.8279 18.35742,1.48876 1.50179,-0.14059 1.65718,-0.51928 0.97291,-2.37109 -0.68879,-1.86407 -0.45167,-2.39926 1.53822,-3.47188 2.24395,-1.20956 1.81936,-1.38304 -9.19986,-3.75855 -6.35381,-1.36975 -11.57542,-2.37261 -11.60357,-2.2286 -0.0282,0.14403 0.7154,1.40094 1.65233,2.79313 z"
       style="fill:#0000fe"
       inkscape:connector-curvature="0" />
    <path
       inkscape:connector-curvature="0"
       id="path3476"
       d="m 382.37606,109.30542 c -1.98464,2e-4 -1.99707,0.5709 -1.71289,74.5 l 0.28516,74.5 -30.03516,0 -11.47461,0 0,0.543 3.4375,0 c 49.93404,0 92.36079,-0.022 129.54883,-0.051 l 0,-0.498 c -0.73315,9e-4 -1.36744,0.01 -2.11718,0.01 -22.92813,0 -24.53215,-0.1168 -24.04883,-1.75 0.28483,-0.9626 2.09214,-9.625 4.01562,-19.25 1.92349,-9.625 5.5708,-27.4001 8.10547,-39.5 6.56283,-31.3296 6.26546,-28.5 2.99609,-28.5 -2.57744,0 -2.72525,0.2238 -2.21484,3.3691 0.33332,2.0541 -0.90487,10.1574 -3.16992,20.75 l -3.7168,17.3809 -34.25,0.2636 -34.25,0.2617 0.30078,-51.0136 c 0.29748,-50.4473 0.27861,-51.012 -1.69922,-51.0117 l 0,0 z m 1.5,104.002 34.10743,0 34.10937,0 -0.69336,2.75 c -0.67429,2.6774 -8.52344,41.2904 -8.52344,41.9297 0,0.1764 -13.275,0.3203 -29.5,0.3203 l -29.5,0 0,-22.5 0,-22.5 z"
       style="fill:#000000" />
    <path
       style="fill:#000000"
       d="m 155.42821,109.33129 c -1.98464,2e-4 -1.99707,0.5709 -1.71289,74.5 l 0.28516,74.5 -30.03516,0 -11.47461,0 0,0.54297 3.4375,0 c 26.6349,0 46.39429,-0.0171 69.10156,-0.0273 l 0,-0.51367 -28.10156,0 0,-22.5 0,-22.5 12.10156,-0.1875 c 4.67103,0 7.90625,-0.12436 7.90625,-0.90625 0,-0.78189 -2.68569,-0.92578 -7.90625,-0.92578 l -12.20312,0.0469 0.30078,-51.01367 c 0.29748,-50.4473 0.27861,-51.01202 -1.69922,-51.01172 z"
       id="path4031"
       inkscape:connector-curvature="0"
       sodipodi:nodetypes="ccccccscccccczccscc" />
    <path
       sodipodi:nodetypes="ccccccscccccczccscc"
       inkscape:connector-curvature="0"
       id="path4052"
       d="m 224.72468,109.33129 c -1.98464,2e-4 -1.99707,0.5709 -1.71289,74.5 l 0.28516,74.5 -30.03517,0 -11.47461,0 0,0.54297 3.4375,0 c 26.63491,0 46.3943,-0.0171 69.10156,-0.0273 l 0,-0.51367 -28.10155,0 0,-22.5 0,-22.5 12.10155,-0.1875 c 4.67103,0 7.90625,-0.12436 7.90625,-0.90625 0,-0.78189 -2.68569,-0.92578 -7.90625,-0.92578 l -12.20311,0.0469 0.30078,-51.01367 c 0.29748,-50.4473 0.27861,-51.01202 -1.69922,-51.01172 z"
       style="fill:#000000" />
    <path
       style="fill:#000000"
       d="m 289.0714,109.33129 c -1.98464,2e-4 -1.99707,0.5709 -1.71289,74.5 l 0.28516,74.5 -30.03517,0 -11.47461,0 0,0.54297 3.4375,0 c 26.63491,0 46.3943,-0.0171 69.10156,-0.0273 l 0,-0.51367 -28.10155,0 0,-22.5 0,-22.5 12.10155,-0.1875 c 4.67103,0 7.90625,-0.12436 7.90625,-0.90625 0,-0.78189 -2.68569,-0.92578 -7.90625,-0.92578 l -12.20311,0.0469 0.30078,-51.01367 c 0.29748,-50.4473 0.27861,-51.01202 -1.69922,-51.01172 z"
       id="path4054"
       inkscape:connector-curvature="0"
       sodipodi:nodetypes="ccccccscccccczccscc" />
    <path
       style="fill:#000000"
       d="m 91.208935,258.34648 0,0.52442 c 25.428805,-0.008 481.505605,0.0106 504.498025,0 3.73764,0 10.64913,-0.2961 10.64913,-0.2961 0,0 -6.22626,-0.22832 -10.64913,-0.22832 -14.31067,0.20522 -238.95363,-1.55795 -252.24901,-1.539 -12.73948,0.0596 -241.70609,1.539 -252.249015,1.539 z"
       id="path5136"
       inkscape:connector-curvature="0"
       sodipodi:nodetypes="ccccccc" />
    <path
       sodipodi:nodetypes="ssssssssssssssssssssssssssssssssssssscssscssssssscsssssssscsscccssssss"
       style="fill:#fefefe"
       id="path2997-0"
       d="m 563,235.49157 c 0,-1.23139 0.95981,-2.12987 2.75,-2.5743 1.5125,-0.37548 10.797,-4.92427 20.63223,-10.1084 9.83522,-5.18414 18.41171,-9.42571 19.05887,-9.42571 2.6322,0 4.85846,2.67034 4.24939,5.09703 -0.51182,2.03928 -2.64095,3.15846 -13.89745,7.30526 -7.31117,2.69337 -16.61891,6.40469 -20.68387,8.24737 C 566.59745,237.89127 563,238.32464 563,235.49157 Z m -6,-0.10841 c 0,-0.55 0.70156,-1 1.55902,-1 0.85746,0 1.2809,0.45 0.94098,1 -0.33992,0.55 -1.04148,1 -1.55902,1 -0.51754,0 -0.94098,-0.45 -0.94098,-1 z m -74.25,-23.20269 c -5.05384,-1.34228 -4.71962,-2.43033 1,-3.25553 2.6125,-0.37692 5.7625,-0.9268 7,-1.22195 1.87493,-0.44719 2.25,-0.12127 2.25,1.95513 0,3.60499 -3.2046,4.39358 -10.25,2.52235 z M 496,209.60706 c 0,-1.79188 1.26788,-2.33913 9.75,-4.20839 5.3625,-1.18177 11.05465,-2.56871 12.64922,-3.08209 4.47743,-1.44153 8.1284,-1.11287 9.94579,0.89532 2.4214,2.67561 2.07694,3.59757 -2.09501,5.60736 -2.8022,1.34992 -7.0989,1.93807 -17,2.32702 -12.87987,0.50597 -13.25,0.46297 -13.25,-1.53922 z m 175.4382,-10.9928 c -3.33398,-3.1521 -11.98819,-10.0061 -19.23156,-15.2311 -13.05163,-9.41478 -14.81269,-11.25709 -13.652,-14.2818 0.85858,-2.23743 2.85553,-2.74775 6.57642,-1.68061 3.98531,1.14297 29.55718,25.8142 32.09272,30.96241 3.77577,7.66643 2.14757,7.73147 -5.78558,0.2311 z M 545.75,195.30306 c -3.22782,-1.88003 -2.0906,-4.61584 2.58027,-6.20737 4.33876,-1.47836 16.75893,-9.70631 21.91973,-14.52109 3.11062,-2.90206 3.33875,-2.53627 1.36473,2.18821 -0.7619,1.82348 -2.8994,4.25434 -4.75,5.40191 -1.8506,1.14758 -4.93973,3.74025 -6.86473,5.76151 -3.44433,3.61655 -10.22292,8.48605 -11.73013,8.42652 -0.42343,-0.0167 -1.55737,-0.48908 -2.51987,-1.04969 z m 49.56537,-1.92688 c -1.20154,-0.48411 -2.69059,-1.82562 -3.309,-2.98112 -2.152,-4.02104 -16.27623,-21.51622 -17.88586,-22.15456 -1.45367,-0.57651 -1.43903,-0.71671 0.14222,-1.36188 0.96951,-0.39557 2.36091,-0.22277 3.09201,0.38399 0.73111,0.60676 1.58379,0.84869 1.89486,0.53762 0.50464,-0.50465 24.32997,-6.7419 30.80728,-8.06507 3.00715,-0.61429 5.29556,1.56598 4.31786,4.11383 -0.49659,1.29408 -1.42837,1.5885 -3.76726,1.19034 -1.70911,-0.29094 -9.53761,0.42778 -17.39666,1.59715 l -14.28918,2.12614 8.28918,8.37592 c 4.55905,4.60675 9.75168,8.99841 11.53918,9.75924 3.59791,1.53141 4.2138,4.03327 1.5,6.09333 -2.03062,1.54146 -2.05902,1.54368 -4.93463,0.38507 z M 550,186.38316 c 0,-1.53371 3.81292,-5 5.5,-5 2.27058,0 1.80362,1.61601 -1.13486,3.92742 -2.876,2.26226 -4.36514,2.62817 -4.36514,1.07258 z m 44.80502,-2.62355 c -1.31447,-1.31447 -1.42301,-2.12076 -0.54494,-4.04792 1.22585,-2.69045 3.4612,-2.72468 5.12762,-0.0785 0.78454,1.24578 0.79483,2.23707 0.0357,3.44048 -1.50917,2.39254 -2.73046,2.57393 -4.61842,0.68597 z M 601,158.31335 c 0,-2.44772 0.40585,-2.93019 2.46482,-2.93019 1.44136,0 2.90926,0.83045 3.53518,2 0.5887,1.1 0.93906,2 0.77858,2 -0.16048,0 -1.75131,0.41859 -3.53518,0.93019 -3.13157,0.89813 -3.2434,0.82917 -3.2434,-2 z"
       inkscape:connector-curvature="0" />
    <path
       sodipodi:nodetypes="sssssssssssssssssscssssscscc"
       style="fill:#0000fe"
       id="path2991-3"
       d="m 610.4543,217.714 c 0.036,-2.23146 -0.6355,-3.14844 -3.17158,-4.33084 -1.7695,-0.825 -3.67584,-2.625 -4.23632,-4 -0.56048,-1.375 -2.60021,-4.68664 -4.53273,-7.35919 -3.74989,-5.18587 -4.58172,-8.26464 -1.96127,-7.25908 1.89966,0.72897 6.4476,-2.0902 6.4476,-3.99674 0,-4.97645 5.50951,3.40622 8.02881,12.21575 2.28406,7.98696 2.51049,13.27946 0.67549,15.78897 -1.17158,1.60224 -1.29132,1.50081 -1.25,-1.05887 z M 529.25,208.30306 c 2.30563,-1.34291 2.21282,-3.19108 -0.27323,-5.44092 -2.00803,-1.81724 -1.99019,-1.85033 2.37352,-4.40499 2.4182,-1.41569 5.90925,-3.5783 7.75788,-4.8058 3.31449,-2.20083 3.37136,-2.20419 4.09727,-0.24187 1.22811,3.31989 5.0874,4.48314 8.17082,2.4628 3.06462,-2.00801 3.27436,-1.39911 0.90163,2.6176 -1.3511,2.28723 -3.92014,3.77469 -11.92464,6.90429 -9.7063,3.79497 -15.01032,5.18455 -11.10325,2.90889 z m 104.98932,-35.95501 c -1.24337,-0.49959 -5.96837,-1.62702 -10.5,-2.5054 -11.53073,-2.23504 -11.08662,-1.99981 -9.2031,-4.87442 1.25049,-1.90849 1.36108,-2.90845 0.49967,-4.51801 -0.92709,-1.73228 -0.81713,-2.06297 0.67893,-2.04183 2.51949,0.0356 28.38738,6.735 29.15305,7.55021 0.34767,0.37016 -0.35735,0.36909 -1.56672,-0.002 -2.80431,-0.86135 -6.71344,2.74231 -5.98722,5.51937 0.55124,2.10796 0.22838,2.19958 -3.07461,0.87244 z"
       inkscape:connector-curvature="0" />
    <path
       id="path2989"
       d="m 494.5,109.38316 c -1.97664,0 -1.99655,0.56384 -1.69727,48.44336 l 0.30274,48.44531 -3.80274,0.66992 c -9.40403,1.65259 -10.80273,2.09684 -10.80273,3.44141 0,1.83184 8.15333,4.2174 11.75,3.4375 l 2.75,-0.5957 0,22.57812 0,22.58008 -24,0 0,0.48047 c 103.02183,-0.0416 175.58805,-0.12046 150.18555,-0.23047 -57.73958,-0.25006 -61.28614,-0.36712 -60.82617,-2.00781 0.26865,-0.95826 1.26234,-5.45469 2.20898,-9.99219 1.67677,-8.0373 1.79469,-8.25 4.61523,-8.25 1.59235,0 4.76268,-0.95287 7.04493,-2.11719 2.28224,-1.16431 11.82759,-4.99708 21.21093,-8.51758 10.0745,-3.77981 17.77715,-7.25824 18.81055,-8.49414 0.9633,-1.15207 1.75,-3.72939 1.75,-5.73437 0,-5.67464 -3.68161,-17.16646 -6.96484,-21.73828 -2.94625,-4.10258 -2.95681,-4.16019 -1.00586,-5.92578 1.08361,-0.98065 1.9707,-2.56111 1.9707,-3.51172 0,-1.99183 3.13564,-3.12262 5.13867,-1.85352 1.68956,1.07048 3.86133,1.14731 3.86133,0.13672 0,-1.18489 -5.83169,-3.46591 -7.00586,-2.74023 -0.57925,0.358 -2.63084,-0.7332 -4.55859,-2.42579 -5.28452,-4.63986 -7.97913,-3.9028 -11.58985,3.17383 l -1.40429,2.75196 -5.93946,-6.00196 c -3.26678,-3.30122 -5.60947,-6.00195 -5.20507,-6.00195 0.40437,0 6.41505,-0.91002 13.35546,-2.02344 12.50007,-2.00532 15.44311,-1.92146 18.34766,0.52344 0.825,0.69444 4.54303,1.77944 8.26172,2.41211 13.10211,2.22913 17.61166,4.26479 30.73828,13.87305 6.875,5.03227 15.5558,11.93455 19.29102,15.33984 4.81039,4.3855 7.1019,5.88052 7.85742,5.125 2.65952,-2.65952 -1.23761,-8.21616 -15.75391,-22.45703 -7.94008,-7.78944 -15.89024,-15.14194 -17.66601,-16.33985 -1.77577,-1.19791 -9.30352,-3.64878 -16.72852,-5.44531 -12.65788,-3.06266 -16.53681,-4.89738 -15.69336,-7.42773 0.18364,-0.55092 2.00869,-1.05976 4.05469,-1.13086 3.61167,-0.12542 6.61978,-1.80209 5.4082,-3.01367 -0.32873,-0.32873 -1.49948,-0.1152 -2.60156,0.47461 -1.10208,0.58982 -3.39091,0.79604 -5.08594,0.45703 -1.69502,-0.339 -3.08203,-0.2196 -3.08203,0.26562 0,0.4852 -2.03528,0.71938 -4.52344,0.52149 C 601.63042,150.0725 600,151.4746 600,156.96714 c 0,4.17237 -0.14402,4.37604 -3.75,5.32227 -10.55469,2.76962 -17.6165,4.03977 -19.64258,3.53125 -2.97062,-0.74557 -4.99722,1.74514 -4.3164,5.30664 0.75705,3.96024 -1.53565,8.6248 -5.42579,11.03711 -1.8506,1.14758 -4.94023,3.74046 -6.86523,5.76172 -1.925,2.02125 -5.24934,4.79486 -7.38672,6.16406 -3.21023,2.05646 -4.29728,2.30183 -6.25,1.41211 -3.89123,-1.77296 -2.99347,-4.71558 1.95117,-6.40039 4.39318,-1.4969 20.10293,-12.07882 22.73633,-15.31445 0.79718,-0.97949 -1.15106,0.24939 -4.32812,2.73047 -4.60418,3.59557 -6.3804,4.42228 -8.75196,4.07421 -3.59413,-0.52751 -7.71512,1.92559 -8.50195,5.06055 -0.37164,1.48073 -2.10759,2.88439 -5.09766,4.12109 -2.4932,1.03121 -5.73301,2.87677 -7.20117,4.10157 -3.92624,3.27544 -9.13576,5.77086 -13.66992,6.55078 -2.2,0.37842 -9.12336,1.87355 -15.38477,3.32226 -6.26141,1.44872 -11.57249,2.63477 -11.80273,2.63477 -0.23023,0 -0.28188,-21.82474 -0.11523,-48.5 0.29948,-47.9348 0.2794,-48.5 -1.69727,-48.5 z m 108.96484,46 c 1.44136,0 2.90924,0.83045 3.53516,2 0.5887,1.1 0.93978,2 0.7793,2 -0.16048,0 -1.75129,0.41809 -3.53516,0.92969 -3.13157,0.89813 -3.24414,0.82917 -3.24414,-2 0,-2.44772 0.40587,-2.92969 2.46484,-2.92969 z m 12.25,3.02539 c 2.51949,0.0356 28.38668,6.73362 29.15235,7.54883 0.34767,0.37052 -0.35704,0.3695 -1.56641,-0.002 -2.80431,-0.86135 -6.71255,2.74247 -5.98633,5.51953 0.55124,2.10796 0.22877,2.20018 -3.07422,0.87304 -1.24337,-0.49959 -5.96837,-1.62748 -10.5,-2.50586 -11.53073,-2.23504 -11.08664,-2.00039 -9.20312,-4.875 1.25049,-1.90849 1.35946,-2.90801 0.49805,-4.51757 -0.92709,-1.73228 -0.81638,-2.06212 0.67968,-2.04102 z m -4.56836,1.22266 c 2.43921,0.0406 4.08401,1.98938 3.22852,4.21875 -0.49659,1.29408 -1.42869,1.58761 -3.76758,1.18945 -1.70911,-0.29094 -9.53743,0.42829 -17.39648,1.59766 l -14.28906,2.125 8.28906,8.37695 c 4.55905,4.60675 9.75156,8.99698 11.53906,9.75781 3.59791,1.53141 4.2138,4.03369 1.5,6.09375 -2.03062,1.54146 -2.05994,1.54338 -4.93555,0.38477 -1.20154,-0.48411 -2.69018,-1.82497 -3.30859,-2.98047 -2.152,-4.02104 -16.27514,-21.51596 -17.88477,-22.1543 -1.45367,-0.57651 -1.43867,-0.71616 0.14258,-1.36133 0.96951,-0.39557 2.3607,-0.22394 3.0918,0.38282 0.73111,0.60672 1.58346,0.85013 1.89453,0.53906 0.50464,-0.50465 24.32933,-6.74324 30.80664,-8.06641 0.37589,-0.0768 0.74139,-0.10932 1.08984,-0.10351 z m 30.80274,7.08203 c 3.51461,-0.152 8.52324,3.68938 19.98828,14.9043 12.25512,11.98777 16.96191,17.93013 17.03711,21.51562 0.0457,2.17779 -1.31798,1.36032 -7.53711,-4.51953 -3.33398,-3.1521 -11.9871,-10.00547 -19.23047,-15.23047 -7.24337,-5.225 -13.41332,-10.22436 -13.71094,-11.10938 -0.69468,-2.0658 0.27569,-4.58908 2.02344,-5.25976 0.45553,-0.17481 0.9276,-0.27907 1.42969,-0.30078 z m -64.98242,5.86719 c 0.77262,0.29906 10.58065,12.60329 14.61914,18.33984 1.14701,1.62929 2.37308,4.12004 2.72461,5.53516 0.35154,1.41513 2.20226,4.62222 4.11328,7.125 6.69012,8.76179 7.04696,8.23742 -12.60742,18.51562 -9.52355,4.98032 -18.32891,9.3626 -19.56641,9.73828 -2.81837,0.85558 -2.8374,0.18327 -0.31641,-11.21094 1.06348,-4.80667 3.12116,-14.59023 4.57227,-21.74023 4.30042,-21.18938 5.63529,-26.62231 6.46094,-26.30273 z m 19.6914,5.08984 c 0.92037,-0.0141 1.89726,0.63981 2.73047,1.96289 0.7845,1.24578 0.79425,2.238 0.0352,3.44141 -1.50917,2.39254 -2.73118,2.5735 -4.61914,0.68554 -1.31447,-1.31447 -1.42299,-2.12167 -0.54492,-4.04883 0.61292,-1.3452 1.47806,-2.02692 2.39843,-2.04101 z m -25.56054,2.47461 -0.64844,2.86914 c -0.35707,1.57798 -1.07184,4.55664 -1.58789,6.61914 -0.51604,2.0625 -1.03409,3.74238 -1.15039,3.73438 -1.35253,-0.0979 -2.21958,-2.19123 -2.20508,-5.32422 0.014,-3.03679 0.60028,-4.26334 2.80469,-5.86914 l 2.78711,-2.0293 z M 555.5,181.38316 c 2.27058,0 1.80371,1.61632 -1.13477,3.92773 -2.876,2.26226 -4.36523,2.62786 -4.36523,1.07227 0,-1.53371 3.81292,-5 5.5,-5 z m 48.05859,8.07227 c 0.61201,-0.0368 1.71193,1.07298 3.22071,3.28906 2.70447,3.97229 6.2207,15.67113 6.2207,20.69531 0,1.95913 -0.58228,4.35941 -1.29492,5.33398 -1.1716,1.60225 -1.2913,1.49914 -1.25,-1.06054 0.036,-2.23146 -0.6358,-3.14768 -3.17188,-4.33008 -1.7695,-0.825 -3.67585,-2.625 -4.23632,-4 -0.56049,-1.375 -2.60069,-4.68682 -4.53321,-7.35938 -3.74989,-5.18587 -4.58139,-8.26532 -1.96094,-7.25976 1.89966,0.72897 6.44727,-2.08955 6.44727,-3.99609 0,-0.85633 0.19139,-1.29042 0.55859,-1.3125 z m -61.43164,2.51367 c 0.51927,-0.0307 0.71517,0.45829 1.07813,1.43945 1.22811,3.31989 5.08845,4.48323 8.17187,2.46289 3.06462,-2.00801 3.27312,-1.39757 0.90039,2.61914 -1.3511,2.28723 -3.91932,3.7747 -11.92382,6.9043 -9.7063,3.79497 -15.01059,5.18386 -11.10352,2.9082 2.30563,-1.34291 2.21261,-3.19156 -0.27344,-5.4414 -2.00803,-1.81724 -1.99066,-1.84964 2.37305,-4.4043 2.4182,-1.41569 5.90918,-3.57914 7.75781,-4.80664 1.65725,-1.10042 2.50027,-1.65099 3.01953,-1.68164 z m 20.78907,1.85547 c 0.20548,0.006 0.41338,0.0388 0.61523,0.10156 0.80738,0.25098 2.09693,0.65074 2.86523,0.88672 1.17848,0.36196 1.1294,1.65202 -0.31445,8.25 l -1.71094,7.82031 -34.18554,0.16211 C 497.67141,211.19875 496,211.11715 496,209.3773 c 0,-1.50038 1.75304,-2.21618 9.75,-3.97852 5.3625,-1.18176 11.05387,-2.56865 12.64844,-3.08203 4.47743,-1.44153 8.12987,-1.11366 9.94726,0.89453 2.36736,2.61591 2.07812,3.59739 -1.5957,5.42579 l -3.25,1.61718 3.32617,0.0645 c 1.82895,0.0352 7.99474,-1.76228 13.70313,-3.99414 8.72901,-3.41288 10.71672,-4.60512 12.50586,-7.5 1.62188,-2.62426 2.80823,-3.44141 4.98828,-3.44141 1.57269,0 3.12414,-0.43105 3.44922,-0.95703 0.2438,-0.3945 0.82691,-0.61951 1.44336,-0.60156 z m -71.02344,13.70312 c 0.89647,3.4e-4 1.10742,0.57356 1.10742,2.13086 0,1.73874 -0.67997,2.673 -2.25,3.09375 -2.72368,0.72992 -3.23412,0.69354 -8,-0.57226 -5.05384,-1.34229 -4.71962,-2.43066 1,-3.25586 2.6125,-0.37692 5.7625,-0.92556 7,-1.22071 0.46873,-0.11179 0.84375,-0.17589 1.14258,-0.17578 z m 4.10742,5.85547 33.44141,0 c 18.39254,0 33.67605,0.37963 33.96289,0.84375 0.28684,0.46411 0.11998,2.37661 -0.36914,4.25 -0.48912,1.87338 -1.40396,5.99375 -2.03321,9.15625 -0.72534,3.64542 -1.64506,5.75 -2.51367,5.75 -2.21901,0 -2.93178,2.20309 -1.13672,3.51562 1.53856,1.12503 1.51506,1.91557 -0.3457,10.95899 -1.10292,5.36028 -2.00586,9.9203 -2.00586,10.13477 0,0.21446 -13.275,0.39062 -29.5,0.39062 l -29.5,0 0,-22.5 0,-22.5 z m 109.44141,0 c 2.6322,0 4.85907,2.67102 4.25,5.09766 -0.51182,2.03928 -2.64194,3.15788 -13.89844,7.30468 -7.31117,2.69337 -16.61863,6.40537 -20.68359,8.24805 C 566.59766,237.892 563,238.32561 563,235.49254 c 0,-1.2314 0.95981,-2.13175 2.75,-2.57618 1.5125,-0.37548 10.79758,-4.92329 20.63281,-10.10742 9.83522,-5.18414 18.41144,-9.42578 19.0586,-9.42578 z m -46.88282,21 c 0.85748,0 1.28133,0.45 0.94141,1 -0.33992,0.55 -1.04105,1 -1.55859,1 -0.51754,0 -0.94141,-0.45 -0.94141,-1 0,-0.55 0.70113,-1 1.55859,-1 z"
       style="fill:#000000"
       inkscape:connector-curvature="0" />
  </g>
</svg>
