<?xml version="1.0" encoding="UTF-8" standalone="no"?>
<!-- Created with Inkscape (http://www.inkscape.org/) -->

<svg
   xmlns:dc="http://purl.org/dc/elements/1.1/"
   xmlns:cc="http://creativecommons.org/ns#"
   xmlns:rdf="http://www.w3.org/1999/02/22-rdf-syntax-ns#"
   xmlns:svg="http://www.w3.org/2000/svg"
   xmlns="http://www.w3.org/2000/svg"
   xmlns:sodipodi="http://sodipodi.sourceforge.net/DTD/sodipodi-0.dtd"
   xmlns:inkscape="http://www.inkscape.org/namespaces/inkscape"
   id="svg3486"
   version="1.1"
   inkscape:version="0.91 r13725"
   width="580.37384"
   height="244.6875"
   viewBox="0 0 580.37384 244.6875"
   sodipodi:docname="ub440500.svg">
  <metadata
     id="metadata3492">
    <rdf:RDF>
      <cc:Work
         rdf:about="">
        <dc:format>image/svg+xml</dc:format>
        <dc:type
           rdf:resource="http://purl.org/dc/dcmitype/StillImage" />
        <dc:title></dc:title>
      </cc:Work>
    </rdf:RDF>
  </metadata>
  <defs
     id="defs3490" />
  <sodipodi:namedview
     pagecolor="#ffffff"
     bordercolor="#666666"
     borderopacity="1"
     objecttolerance="10"
     gridtolerance="10"
     guidetolerance="10"
     inkscape:pageopacity="0"
     inkscape:pageshadow="2"
     inkscape:window-width="640"
     inkscape:window-height="480"
     id="namedview3488"
     showgrid="false"
     inkscape:zoom="2.1537842"
     inkscape:cx="290.18692"
     inkscape:cy="122.34375"
     inkscape:window-x="0"
     inkscape:window-y="0"
     inkscape:window-maximized="0"
     inkscape:current-layer="svg3486" />
  <g
     id="g3496">
    <path
       style="fill:#fefefe"
       d="m 121.94309,181.84329 c -0.32842,-0.53306 -0.80756,-8.86509 -1.06473,-18.51562 -0.44138,-16.56241 -0.35934,-17.71729 1.46282,-20.5933 1.06173,-1.67578 2.2624,-3.04687 2.66817,-3.04687 0.40575,0 0.74094,5.58984 0.74485,12.42187 0.007,10.98516 0.30018,13.30936 2.54108,20.09506 1.3937,4.22025 2.28139,8.33354 1.97264,9.14063 -0.64408,1.68367 -7.3473,2.08486 -8.32483,0.49823 z m 49.95626,-7.58687 c -2.46425,-4.61889 1.63915,-7.58483 11.97916,-8.65857 4.19392,-0.43551 4.90839,-0.27765 4.9193,1.08694 0.007,0.87805 0.2593,2.51866 0.56064,3.64579 0.47859,1.79018 0.0929,2.11987 -3.05015,2.60723 -1.9789,0.30686 -5.49054,1.17971 -7.80362,1.93969 -5.34108,1.75484 -5.33756,1.75517 -6.60533,-0.62108 z m 376.69879,-10.33435 c -28.03506,-23.61879 -29.29596,-24.99165 -25.70178,-27.98387 2.68485,-2.23519 7.26817,1.06115 23.36533,16.80446 14.78936,14.46424 19.02187,19.40863 19.1197,22.33546 0.0847,2.53438 -2.84285,0.58837 -16.78325,-11.15605 z m -356.5285,5.03947 c -0.33076,-1.7686 -0.45677,-3.3607 -0.28003,-3.538 0.17675,-0.17729 5.17593,-0.61349 11.1093,-0.96932 7.54118,-0.45227 11.82235,-0.30454 14.2249,0.49085 4.2465,1.40586 4.39665,2.63125 0.39956,3.26104 -1.67056,0.2632 -7.94575,1.26438 -13.94487,2.22482 l -10.90749,1.74625 -0.60137,-3.21564 z m -59.91947,-3.001 c -2.65569,-1.07691 -5.98194,-6.95957 -5.98194,-10.57939 l 0,-2.94918 3.50467,3.29779 c 1.92757,1.81377 4.66121,3.78878 6.07477,4.38891 2.92931,1.24364 3.33704,3.62186 0.93457,5.45128 -1.89137,1.44026 -1.93444,1.44397 -4.53207,0.39059 z M 255.2485,164.6469 c -2.24246,-2.39444 -2.48542,-7.15008 -0.40037,-7.83632 2.08965,-0.68776 5.09485,3.41336 4.78642,6.53187 -0.37022,3.74306 -1.72491,4.14595 -4.38605,1.30445 z m -63.29286,-8.11003 c -2.59429,-5.07691 -3.69106,-8.28729 -3.38316,-9.90295 0.38951,-2.04398 1.1834,-1.02771 5.47426,7.00766 2.76027,5.16909 5.01868,9.62843 5.01868,9.90964 0,0.2812 -0.73598,0.50827 -1.63551,0.5046 -1.09937,-0.005 -2.8939,-2.4693 -5.47427,-7.51895 z m 11.31539,5.65063 c 2.58196,-1.11297 4.20561,-1.11297 4.20561,0 0,0.51562 -1.36682,0.90785 -3.03738,0.8716 -2.54536,-0.0552 -2.7346,-0.1964 -1.16823,-0.8716 z m -69.19133,-3.76315 c -3.47063,-1.30423 -4.46248,-3.29722 -3.01761,-6.06346 l 1.28071,-2.45196 2.52018,1.98858 c 3.72167,2.93661 3.11499,7.99176 -0.78328,6.52684 z m 306.57451,0.32312 c -8.12304,-1.00413 -31.33735,-7.39656 -35.63816,-9.81353 -4.94166,-2.77713 -7.5408,-5.15129 -6.6346,-6.06034 0.28434,-0.28521 3.74136,0.38901 7.68228,1.4983 10.23053,2.87965 29.9963,6.5656 35.20787,6.5656 2.43917,0 5.45285,-0.46528 6.69705,-1.03395 3.46534,-1.58385 6.58721,0.39777 5.81186,3.68911 -1.17501,4.98795 -4.3595,6.23854 -13.1263,5.15481 z m -191.07192,-3.5313 c -0.82679,-0.99933 -0.84781,-1.845 -0.0816,-3.28125 0.8868,-1.66215 1.92356,-1.93492 7.35457,-1.93492 3.47725,0 6.74026,0.31641 7.25114,0.70312 0.51088,0.38672 -0.40929,-0.5625 -2.04485,-2.10937 -1.63555,-1.54688 -6.63246,-4.92188 -11.10425,-7.5 -4.47178,-2.57813 -8.53752,-5.44172 -9.03496,-6.36353 -1.26276,-2.34006 -0.11723,-5.28074 2.52809,-6.48979 2.82278,-1.29016 6.08445,0.84246 17.18897,11.23887 l 7.90111,7.39729 -1.86035,2.56183 c -1.25695,1.73091 -3.97119,3.28879 -8.36841,4.80315 -7.73521,2.66393 -8.28619,2.71913 -9.7295,0.97461 z m 18.33859,-2.08304 C 267.21338,152.42342 268.98234,150 270.20789,150 c 0.45109,0 0.82015,0.84375 0.82015,1.875 0,1.80156 -1.82768,2.54161 -3.10716,1.25813 z m 3.62127,-2.88004 c -0.78679,-2.05676 -0.71004,-2.12809 2.28963,-2.12809 1.76415,0 2.80374,0.48089 2.80374,1.29696 0,1.81525 -4.43976,2.53972 -5.09337,0.83113 z m -154.71972,-3.34993 c -1.28505,-1.89907 -2.86215,-3.45573 -3.50467,-3.45926 -0.64252,-0.004 -1.16823,-0.42828 -1.16823,-0.9439 0,-0.51563 0.76782,-0.9375 1.70626,-0.9375 2.50462,0 5.98045,4.11667 5.61373,6.64875 -0.2881,1.98908 -0.48022,1.89414 -2.64709,-1.30809 z m 162.69683,2.62809 c 0.0973,-1.77583 1.65491,-4.76611 1.70916,-3.28125 0.0282,0.77344 -0.3563,2.03906 -0.85458,2.8125 -0.49828,0.77344 -0.88285,0.98437 -0.85458,0.46875 z m 43.28211,-8.43668 c 0.0626,-4.59177 0.46637,-7.03071 1.16406,-7.03125 1.38782,-9.3e-4 2.2028,2.21238 2.2028,5.9827 0,2.99429 -1.8189,8.05763 -2.89957,8.07167 -0.30972,0.004 -0.52,-3.15638 -0.46729,-7.02312 z m -302.226311,3.66011 c -0.0079,-0.56462 0.82681,-1.79016 1.854848,-2.72343 2.155274,-1.95659 2.447959,-7.91494 0.912192,-18.57 -1.065564,-7.39282 -0.139608,-10.31219 3.123005,-9.84626 1.764631,0.252 2.002003,0.79677 1.760891,4.04126 -0.153273,2.0625 -0.573834,8.60156 -0.93458,14.53125 -0.643616,10.57934 -0.699658,10.78741 -2.992349,11.11014 -1.285047,0.18088 -2.645429,0.8137 -3.023072,1.40625 -0.467725,0.7339 -0.691186,0.75009 -0.700935,0.0508 z m 45.780082,-1.61057 c 0,-0.49839 0.662877,-1.39238 1.473059,-1.98665 1.334204,-0.97864 1.290156,-2.03123 -0.46729,-11.16657 -3.012917,-15.66137 -2.52938,-20.7798 1.903661,-20.15104 1.93331,0.27421 2.192815,0.75392 1.946205,3.59765 -0.5818,6.70887 -0.534126,11.02045 0.224082,20.26582 l 0.777825,9.48455 -2.928771,0.4312 c -1.610824,0.23715 -2.928771,0.0234 -2.928771,-0.47496 z m 120.385519,-0.34703 c 0.67464,-0.27081 1.48072,-0.23751 1.79128,0.074 0.31055,0.31153 -0.24144,0.5331 -1.22664,0.4924 -1.08874,-0.045 -1.31019,-0.26713 -0.56464,-0.5664 z m 135.66039,-11.31271 c -0.19777,-4.81919 -2.13442,-15.49615 -3.27981,-18.08202 C 317.3366,109.37334 318.51268,105 321.38077,105 c 2.76959,0 3.85288,4.65219 3.85288,16.54614 0,8.83399 -0.2381,10.64136 -1.40187,10.64136 -0.77103,0 -1.41485,-0.31641 -1.43073,-0.70313 z m 132.92134,-2.57812 c 0.0191,-1.54687 0.2285,-2.06619 0.46546,-1.15403 0.23695,0.91215 0.22137,2.17778 -0.0347,2.8125 -0.256,0.63471 -0.44987,-0.1116 -0.43083,-1.65847 z m 3.71388,-19.45365 c 0.1978,-14.228841 -0.0279,-22.429195 -0.62505,-22.717843 -0.51402,-0.248431 -0.0935,-0.347767 0.93458,-0.220746 1.81878,0.224722 1.86054,0.811795 1.54945,21.780349 -0.18532,12.4907 -0.7083,21.94349 -1.24411,22.48689 -0.60968,0.61832 -0.81902,-6.6433 -0.61487,-21.32865 z M 18.721311,123.98438 c 0.01635,-1.41797 0.597451,-3.32881 1.291341,-4.24631 1.133506,-1.49878 1.32029,-1.51479 1.839435,-0.1577 0.317801,0.83077 0.57782,2.7416 0.57782,4.24631 0,2.11082 -0.42701,2.73582 -1.869159,2.73582 -1.423235,0 -1.862068,-0.61507 -1.839437,-2.57812 z m 42.338247,-3.67414 c 0.306052,-1.89188 1.08488,-3.76737 1.730731,-4.16778 1.460162,-0.90525 1.341087,-1.12702 1.945466,3.62317 0.480133,3.77365 0.381611,3.98437 -1.862856,3.98437 -2.207199,0 -2.331619,-0.23602 -1.813341,-3.43976 z m 354.081452,0.80201 -2.14872,-1.65855 3.43271,-1.64206 c 3.23605,-1.54799 3.53359,-1.55047 5.19366,-0.0434 1.64637,1.49461 1.65982,1.71074 0.20668,3.32146 -1.94005,2.15044 -3.91896,2.15713 -6.68433,0.0226 z m 39.09748,-1.05062 c -1.41988,-2.66136 -1.18877,-5.68663 0.43441,-5.68663 1.01246,0 1.40187,1.04167 1.40187,3.75 0,4.1795 -0.40934,4.61122 -1.83628,1.93663 z m 55.25258,-2.38264 c -1.60273,-1.83111 -3.56352,-4.58915 -4.35731,-6.12897 -2.23231,-4.33031 -7.12569,-17.923404 -7.65538,-21.26553 -0.26971,-1.701777 -1.14003,-3.173981 -2.01405,-3.406873 -1.37086,-0.365285 -1.36341,-0.422002 0.0681,-0.518866 1.13454,-0.07676 2.59142,2.028078 4.95367,7.156874 3.68594,8.002705 8.67144,15.918935 13.00721,20.653545 2.21819,2.42223 2.60851,3.40596 1.83774,4.6317 -1.6262,2.58612 -2.79018,2.36252 -5.84,-1.12188 z m -102.71536,1.70012 c -0.64253,-0.26007 -1.16823,-1.06079 -1.16823,-1.77937 0,-1.8161 4.33939,-4.49122 6.15295,-3.79313 2.04328,0.78654 19.11292,-5.27632 24.88396,-8.83838 4.26874,-2.63478 7.28085,-3.10796 7.28085,-1.14377 0,0.41707 -2.83879,1.97346 -6.30841,3.45862 -3.46963,1.48518 -11.03658,4.95405 -16.81546,7.70863 -10.30884,4.91381 -11.67181,5.34017 -14.02566,4.3874 z m -78.86248,-2.3772 c -2.01623,-1.61276 -3.02348,-9.18941 -1.22166,-9.18941 1.91136,0 3.36068,3.39948 3.03539,7.11972 -0.25384,2.90307 -0.46732,3.14667 -1.81373,2.06969 z M 503.73832,116.25 c -1.87396,-1.87982 -2.5789,-5.625 -1.05877,-5.625 0.44572,0 1.92364,1.6875 3.28429,3.75 1.90084,2.88134 2.1461,3.75 1.05877,3.75 -0.77832,0 -2.25625,-0.84375 -3.28429,-1.875 z M 385.98131,101.83716 c -1.28504,-0.67982 -10.72749,-4.33221 -20.98321,-8.116414 -14.2892,-5.272495 -19.47625,-7.632102 -22.19626,-10.097148 -1.95223,-1.769228 -3.5495,-3.8005 -3.5495,-4.513937 0,-1.716227 0.26043,-1.670911 5.4049,0.94049 2.4245,1.230708 11.82593,4.175229 20.89207,6.543378 9.06614,2.368149 19.47502,5.417898 23.13085,6.777219 6.08961,2.264255 6.64695,2.693565 6.64695,5.12004 0,1.456706 -0.31542,2.834772 -0.70094,3.062392 -2.07995,1.228 -6.58091,1.37585 -8.64486,0.28398 z M 100.07688,96.952547 C 97.806085,96.237787 92.338792,95.206819 87.927349,94.661522 78.357764,93.478619 75.326466,92.87564 75.925996,92.274236 c 1.171724,-1.175385 16.836121,-3.242554 17.894463,-2.361462 0.622654,0.518368 2.845645,1.217352 4.939991,1.553298 4.24568,0.681033 10.70033,3.996272 11.2915,5.799553 0.50948,1.554047 -4.54749,1.395328 -9.97507,-0.313078 z M 69.345795,91.6875 c -1.602301,-1.607308 -1.385235,-3.969971 0.52397,-5.703176 1.209081,-1.097623 5.906411,-1.883707 17.712178,-2.964079 14.998397,-1.372536 16.288357,-1.364278 19.399997,0.124194 1.8333,0.876973 3.18635,2.039954 3.00679,2.584403 -0.17956,0.544449 -3.86731,1.279093 -8.19498,1.632542 -11.398775,0.930955 -22.350624,2.687296 -25.973304,4.165322 -3.866794,1.577621 -5.033357,1.606591 -6.474651,0.160794 z M 22.755866,87.890625 C 21.213026,85.169962 21.05741,82.950084 21.302375,67.156601 l 0.274337,-17.687149 2.928544,0.58754 c 1.6107,0.323147 3.023371,0.688614 3.139271,0.812149 0.1159,0.123535 0.901393,8.240234 1.745541,18.037109 l 1.534814,17.8125 -2.430444,2.109375 c -3.181374,2.761104 -3.688106,2.67832 -5.738572,-0.9375 z M 304.03689,87.120879 c -1.63485,-1.050518 -10.65947,-5.040766 -20.05471,-8.867216 -12.95786,-5.277417 -17.8701,-7.747484 -20.3453,-10.230423 -1.79467,-1.800282 -2.9763,-3.560886 -2.62582,-3.912453 0.35047,-0.351568 3.90421,0.644623 7.8972,2.213757 3.99298,1.569133 14.83006,5.264352 24.0824,8.211596 19.98524,6.366109 21.96262,7.279427 21.96262,10.144185 0,4.627012 -5.57431,5.873249 -10.91639,2.440554 z M 23.598131,48.088375 C 21.884741,47.757331 21.495327,47.06094 21.495327,44.327925 21.495327,40.577485 25.037506,30 26.29345,30 c 0.445145,0 0.815097,3.269531 0.822116,7.265625 0.007,3.996094 0.266349,8.214844 0.57629,9.375 0.583185,2.182946 0.275188,2.29187 -4.093725,1.44775 z"
       id="path3506"
       inkscape:connector-curvature="0" />
    <path
       style="fill:#bfbfbf"
       d="M 0,122.34375 0,0 l 290.18692,0 290.18692,0 0,122.34375 0,122.34375 -290.18692,0 L 0,244.6875 0,122.34375 Z m 532.47664,104.76595 -36.21495,-0.25672 0,-67.02024 c 0,-36.86113 0.18006,-67.02024 0.40014,-67.02024 0.22007,0 1.33205,2.425781 2.47105,5.390625 1.40094,3.646675 2.01916,7.140135 1.91098,10.798465 -0.13684,4.6274 0.17477,5.74357 2.15937,7.73437 1.27561,1.2796 2.96925,2.32654 3.76365,2.32654 0.87978,0 1.44434,0.83424 1.44434,2.13428 0,2.27719 8.39437,14.99593 13.36287,20.24678 6.57235,6.94583 41.93516,35.88379 43.23795,35.3823 3.78638,-1.45751 0.3429,-6.14917 -17.32125,-23.5998 -8.7533,-8.64749 -15.91508,-16.25525 -15.91508,-16.90613 0,-0.65088 -1.4267,-2.37429 -3.17045,-3.82981 -1.83519,-1.53182 -4.33512,-5.2367 -5.93585,-8.79684 -1.52097,-3.38276 -3.9657,-7.09757 -5.43273,-8.25515 -2.09133,-1.65017 -2.68749,-2.91114 -2.76073,-5.83931 -0.12674,-5.0677 1.57966,-6.34123 4.13323,-3.08474 2.44994,3.12433 3.7237,2.25155 1.55643,-1.06646 -2.06371,-3.15944 -3.96746,-3.82311 -5.94808,-2.07354 -1.04975,0.9273 -2.68666,1.24652 -4.75579,0.92746 -2.93912,-0.4532 -3.44106,-1.09209 -7.33264,-9.332959 -4.11787,-8.720073 -5.99349,-10.842099 -7.89618,-8.933474 -0.64685,0.648874 -0.92122,16.882143 -0.82606,48.874483 l 0.14247,47.90291 -7.52232,0 c -4.39183,0 -7.52233,0.39015 -7.52233,0.9375 0,0.54687 3.11526,0.9375 7.47664,0.9375 l 7.47663,0 0,21.09375 0,21.09375 -17.28972,0 -17.28972,0 0,-38.37777 c 0,-37.72624 0.0396,-38.54194 2.33524,-48.04688 2.47769,-10.25892 2.84304,-14.44737 1.45256,-16.65214 -0.61144,-0.96952 -0.17349,-1.99301 1.53078,-3.57741 2.06837,-1.92289 2.32365,-2.78555 1.91101,-6.45786 -0.53366,-4.74944 0.56688,-4.39928 1.9237,0.61206 0.73411,2.71138 1.01331,2.98151 1.60762,1.55542 0.43865,-1.0526 0.12,-2.98635 -0.81686,-4.95711 -1.27058,-2.67275 -1.98004,-3.18467 -4.10455,-2.96167 l -2.56847,0.26961 0,-10.491197 c 0,-11.67513 -0.71168,-13.521124 -4.53849,-11.77207 -2.22705,1.017888 -2.2472,1.146513 -1.76815,11.285311 0.45213,9.568546 0.35089,10.389816 -1.51092,12.257446 -2.31,2.31722 -2.71591,8.15513 -0.75415,10.84638 1.04906,1.43915 0.98621,2.20505 -0.40568,4.9437 -0.90588,1.78238 -2.36287,6.47558 -3.23776,10.42932 C 446.45574,151.50074 447.31984,150 441.74685,150 c -5.62025,0 -25.08792,-3.58329 -35.70744,-6.57246 -8.01212,-2.25523 -10.58544,-1.60016 -7.43445,1.89253 3.62669,4.01997 11.37427,7.28818 25.58275,10.79173 16.9728,4.18517 26.7483,4.82102 29.91804,1.94602 l 1.96902,-1.78593 0,13.28262 0,13.28261 -31.96231,-0.24669 -31.96231,-0.24668 -3.41323,-16.01205 c -1.87728,-8.80663 -3.21753,-17.3496 -2.97834,-18.98438 0.39769,-2.7181 0.2169,-2.97232 -2.11371,-2.97232 -2.88397,0 -2.88189,-0.40821 -0.0619,12.1875 0.86581,3.86719 4.27668,20.32031 7.57969,36.5625 3.30302,16.24219 6.2301,30.48047 6.50462,31.64062 l 0.49913,2.10938 -27.1206,0 c -14.91633,0 -27.1206,-0.13528 -27.1206,-0.30063 0,-0.59934 -7.33641,-36.79868 -7.96659,-39.30875 l -0.64726,-2.57812 10.84898,0 c 6.6096,0 10.84898,-0.36634 10.84898,-0.9375 0,-0.57211 -4.30424,-0.9375 -11.04356,-0.9375 l -11.04355,0 -1.68481,-9.14063 c -0.92664,-5.02734 -2.32381,-11.67187 -3.10481,-14.76562 -0.78101,-3.09375 -1.3981,-7.52113 -1.37132,-9.83863 0.0268,-2.3175 -0.27693,-4.42688 -0.67491,-4.6875 -0.39798,-0.26063 -0.92669,-2.64746 -1.17491,-5.30408 l -0.45131,-4.83019 4.48739,-2.10836 c 2.46806,-1.15959 5.60487,-3.27839 6.97068,-4.70844 1.3658,-1.43005 2.99035,-2.4049 3.61011,-2.16634 1.00417,0.38654 3.77808,-6.06469 2.9604,-6.88493 -0.4865,-0.48803 -6.15846,2.94509 -6.16508,3.7316 -0.003,0.38671 0.48796,0.70312 1.09158,0.70312 2.05001,0 -3.26243,4.66762 -8.03183,7.05694 l -4.7479,2.37855 -0.27942,-4.62921 c -0.23669,-3.92116 0.0849,-4.99472 2.1028,-7.01888 3.23069,-3.24079 3.31762,-9.12181 0.18131,-12.26791 -1.26153,-1.26549 -2.4125,-3.79031 -2.69667,-5.91558 -0.71905,-5.377613 -6.22277,-15.862496 -10.23541,-19.49901 -2.81937,-2.555091 -6.80765,-4.208075 -21.50068,-8.911173 -9.92157,-3.175802 -21.31626,-7.060212 -25.32152,-8.63202 -5.57999,-2.189785 -7.53913,-2.600206 -8.38098,-1.755728 -0.84185,0.844479 -0.22354,1.979986 2.64506,4.857549 3.04513,3.05465 6.87626,5.034052 20.53052,10.607354 16.44905,6.71407 26.88047,11.909227 28.19422,14.041576 1.23318,2.001555 4.14794,16.071662 4.40215,21.250042 0.32931,6.70818 -0.38776,7.93098 -5.49145,9.36439 -2.33387,0.65548 -4.24339,1.55884 -4.24339,2.00745 0,1.07078 0.62374,1.02061 5.50178,-0.44261 2.25495,-0.6764 4.59224,-1.90523 5.19398,-2.73073 1.73644,-2.38214 3.01876,-0.64825 3.71366,5.0214 l 0.64361,5.25116 -5.34594,1.07697 c -2.94027,0.59233 -6.53747,1.07697 -7.9938,1.07697 -1.45633,0 -2.64787,0.42187 -2.64787,0.9375 0,1.25774 5.65937,1.18746 10.89622,-0.13532 5.38508,-1.36022 6.21453,-0.34902 5.47059,6.66936 -0.47561,4.48696 -0.29612,5.31499 1.43629,6.62583 2.20337,1.66721 1.74,-0.232 10.74193,44.02763 3.30349,16.24219 6.23094,30.48047 6.50547,31.64062 l 0.49913,2.10938 -22.915,0 c -12.60326,0 -22.915,-0.13528 -22.915,-0.30063 0,-0.59934 -7.33641,-36.79868 -7.96659,-39.30875 l -0.64726,-2.57812 9.44711,0 c 12.44969,0 12.38177,-1.72713 -0.0817,-2.07658 l -9.52876,-0.26717 -3.20468,-14.96289 c -2.77582,-12.96047 -3.05372,-15.38168 -2.07661,-18.09228 1.34813,-3.73983 0.1409,-5.85108 -3.34568,-5.85108 -1.59897,0 -2.22202,0.52575 -2.22202,1.875 0,1.35062 -0.62306,1.875 -2.22781,1.875 l -2.22782,0 2.33208,-5.79167 c 2.78812,-6.92426 2.45529,-12.03229 -1.19065,-18.27305 -1.30464,-2.23315 -1.93378,-4.06028 -1.39809,-4.06028 0.53568,0 0.97397,-0.34373 0.97397,-0.76387 0,-0.81824 -6.55711,-4.22102 -7.0947,-3.68176 -0.32585,0.32687 1.551,7.35759 2.18058,8.16848 0.18857,0.24288 0.70383,-0.14429 1.14502,-0.86038 0.61374,-0.99616 1.25408,-0.55654 2.72613,1.8716 2.47624,4.0846 3.42138,10.4421 2.0856,14.02885 -0.57345,1.53977 -1.50843,4.0512 -2.07774,5.58096 l -1.03511,2.78138 -10.22353,-9.31938 c -7.07065,-6.44534 -11.40019,-9.67301 -14.03903,-10.4661 -3.73822,-1.1235 -3.87235,-1.08294 -6.6195,2.00125 -2.65689,2.98288 -2.77517,3.45723 -2.25511,9.04385 0.68653,7.37487 3.98985,14.09334 9.07706,18.46142 l 3.85097,3.30657 -3.26163,1.55258 c -3.31157,1.57635 -4.87128,4.63168 -3.79744,7.43881 0.89321,2.33491 2.33236,1.72507 1.71854,-0.72824 -0.36437,-1.45635 0.0206,-2.78406 1.12996,-3.89687 1.62045,-1.62553 1.70634,-1.57158 2.32444,1.46005 1.16981,5.73755 6.5553,7.39625 10.65657,3.28216 2.98717,-2.9965 3.03377,-7.35447 0.11,-10.28738 l -2.18396,-2.19078 3.07435,-0.94649 c 2.21676,-0.68248 3.17461,-0.64788 3.43384,0.12403 0.25895,0.77106 0.76915,0.73142 1.82397,-0.14173 0.8347,-0.69096 2.43696,-0.9674 3.726,-0.64286 1.47434,0.37119 2.68388,0.0589 3.47486,-0.89713 0.66732,-0.80659 2.12775,-1.46652 3.24538,-1.46652 1.87393,0 2.2646,1.14922 5.01951,14.76562 6.25696,30.92561 11.40237,56.09533 11.88243,58.125 l 0.4989,2.10938 -44.41033,0 c -24.42568,0 -44.41033,-0.13528 -44.41033,-0.30063 0,-0.59934 -7.33641,-36.79868 -7.96659,-39.30875 l -0.64726,-2.57812 17.85833,0 c 11.01975,0 17.85832,-0.35125 17.85832,-0.91726 0,-0.55742 -7.05757,-1.01714 -17.99065,-1.17187 -17.68977,-0.25036 -17.99551,-0.28884 -18.28101,-2.30056 -0.19494,-1.37361 0.4193,-2.41337 1.86916,-3.16403 1.18773,-0.61495 3.04234,-1.92287 4.12134,-2.90649 1.60305,-1.46136 2.42601,-1.61138 4.50009,-0.82035 1.39605,0.53243 3.72758,0.96806 5.18118,0.96806 1.48711,0 2.87817,0.61498 3.18086,1.40625 0.33661,0.87996 1.76412,1.40625 3.81431,1.40625 2.68289,0 3.53462,-0.50101 4.70222,-2.76594 1.63241,-3.1666 1.73882,-3.79656 0.64131,-3.79656 -0.43152,0 -1.26362,1.05469 -1.84913,2.34375 -0.71599,1.57635 -1.81807,2.34375 -3.36588,2.34375 -4.6383,0 -4.19049,-4.842 0.5746,-6.21288 4.23911,-1.21956 4.2886,-2.95338 0.13346,-4.67507 -1.97286,-0.81745 -4.31267,-2.1331 -5.19961,-2.92368 -2.02078,-1.80121 -9.92741,-1.12141 -11.4633,0.9856 -0.84621,1.16086 -2.13274,-0.65616 -6.90249,-9.74859 -3.22432,-6.14646 -6.41029,-11.17538 -7.07991,-11.17538 -0.66962,0 -1.74606,0.63888 -2.3921,1.41974 -0.95216,1.15086 -0.79174,3.22341 0.84704,10.94363 2.2766,10.72494 2.16158,11.03472 -4.10691,11.06123 -5.57124,0.0235 -9.98473,2.62938 -11.55757,6.82385 -1.18133,3.1504 -1.15734,3.71393 0.22333,5.24433 2.14794,2.38086 10.8963,4.18305 16.53165,3.40558 2.53862,-0.35024 4.61568,-0.32859 4.61568,0.0481 0,0.90434 8.39253,42.60832 9.00056,44.72539 0.44286,1.54199 -1.66167,1.64062 -35.00449,1.64062 l -35.47568,0 -0.49598,-2.10937 c -2.10778,-8.96432 -5.35828,-27.22135 -4.92407,-27.65691 0.29514,-0.29606 1.60958,-0.0479 2.92099,0.55149 3.17152,1.44956 10.32311,1.35908 14.74847,-0.18659 3.87613,-1.35383 8.89153,-5.75084 7.804,-6.84177 -0.37008,-0.37124 -1.28899,0.20741 -2.04203,1.28588 -1.60829,2.30333 -8.76369,4.95727 -13.36553,4.95727 -1.77636,0 -4.89596,-0.50076 -6.93244,-1.11281 -3.6879,-1.10838 -4.41769,-2.07798 -5.76652,-7.66135 l -0.64754,-2.68041 2.50588,1.97728 c 3.23691,2.55411 4.67649,2.49139 8.41166,-0.36646 2.82081,-2.15826 3.84479,-2.34375 12.93868,-2.34375 5.96057,0 9.87544,-0.37164 9.87544,-0.9375 0,-0.55843 -3.54778,-0.9375 -8.77418,-0.9375 l -8.77417,0 2.20994,-5.39062 c 2.38222,-5.81088 2.86228,-11.40556 1.23964,-14.44696 -0.82419,-1.54484 -0.62474,-2.31817 1.06262,-4.11988 1.67564,-1.78922 1.97978,-2.94714 1.57305,-5.98906 l -0.50423,-3.77101 4.24724,0.21814 c 2.33598,0.11998 4.39742,-0.20373 4.58097,-0.71936 0.2051,-0.57618 -3.25068,-1.01647 -8.96652,-1.1424 -8.93943,-0.19696 -9.37208,-0.11329 -11.15188,2.15642 -1.0184,1.29873 -2.02153,2.86749 -2.22918,3.48615 -0.28178,0.83947 -0.7745,0.79614 -1.9422,-0.17081 -1.22802,-1.0169 -1.51205,-2.63045 -1.3202,-7.5 0.28365,-7.20005 -1.13732,-8.21021 -4.5026,-3.20086 l -2.01776,3.00349 -2.15435,-2.30037 c -1.18489,-1.26516 -2.90736,-2.30033 -3.82771,-2.30033 -2.21505,0 -3.92604,3.36697 -3.27395,6.44266 4.30211,20.29156 8.95595,43.61301 8.74523,43.82438 -0.14856,0.14903 -1.42905,-1.18602 -2.84553,-2.96679 -1.92995,-2.4263 -2.21408,-3.23775 -1.1337,-3.23775 0.79295,0 1.44171,-0.35416 1.44171,-0.78701 0,-0.66643 -1.31106,-1.50009 -5.84112,-3.71416 -1.03434,-0.50553 -0.82482,5.67438 0.24795,7.31367 0.65855,1.0063 1.11962,1.10061 1.62121,0.33157 0.45889,-0.70357 1.91567,0.3278 4.21868,2.98676 3.29606,3.80548 3.69664,4.96624 6.35623,18.41843 1.56117,7.89634 3.05559,15.09527 3.32094,15.99761 0.44895,1.52675 -0.91665,1.64063 -19.67399,1.64063 -11.086048,0 -20.156441,-0.13528 -20.156441,-0.30063 0,-0.59934 -7.33641,-36.79868 -7.966585,-39.30875 l -0.647262,-2.57812 9.447111,0 c 12.452837,0 12.380557,-1.7272 -0.0869,-2.07658 l -9.534009,-0.26717 -3.483396,-16.34872 c -3.122345,-14.65419 -3.378875,-16.87079 -2.47499,-21.38563 0.74117,-3.70209 0.706845,-7.86817 -0.129525,-15.72057 l -1.137931,-10.68365 2.399265,-4.10683 c 2.07732,-3.55576 2.399267,-5.19892 2.399267,-12.24545 0,-7.947388 0.04941,-8.128128 2.102803,-7.691975 1.156542,0.245653 5.756186,0.898669 10.22143,1.451156 4.465243,0.552478 10.142814,1.620591 12.616821,2.373572 5.30351,1.61415 9.28998,1.775794 10.13097,0.410785 1.44486,-2.345138 -5.48833,-6.717115 -12.642117,-7.971939 -3.733608,-0.654902 -3.943384,-0.814848 -1.869159,-1.425146 1.285046,-0.3781 4.670556,-0.729505 7.523366,-0.780903 4.74505,-0.08549 7.4299,-1.196446 7.4299,-3.074396 0,-0.402021 -1.66883,-1.584982 -3.70851,-2.628802 -3.65378,-1.869845 -3.96068,-1.875559 -20.794393,-0.387088 -14.708473,1.300553 -17.378471,1.780388 -19.188682,3.448471 -1.156542,1.065737 -2.102803,2.885542 -2.102803,4.044012 0,1.15847 -0.862272,5.748284 -1.91616,10.199581 -1.053888,4.451302 -1.672936,8.862002 -1.375661,9.801552 0.773823,2.44572 -2.694615,3.11089 -6.074617,1.16498 -2.414818,-1.39025 -2.872508,-1.40819 -4.091406,-0.16044 -1.729718,1.77068 -2.969518,6.56118 -1.698059,6.56118 0.514018,0 1.198464,-1.05469 1.52099,-2.34375 0.621055,-2.48221 2.763578,-3.12389 3.957913,-1.18537 0.392526,0.6371 0.59254,2.5689 0.444472,4.29287 -0.354457,4.12705 2.010761,6.73625 6.106348,6.73625 1.719398,0 3.12618,0.16582 3.12618,0.36848 0,0.20265 0.668124,3.60927 1.484719,7.57024 1.399694,6.78935 1.390199,7.27111 -0.165784,8.41243 -1.535051,1.12597 -1.546774,1.43255 -0.167591,4.38287 1.374918,2.94121 5.345088,21.20215 13.42874,61.76598 1.798211,9.02344 3.487272,17.14453 3.753468,18.04687 0.451099,1.52912 -0.981265,1.64063 -21.074311,1.64063 -11.85707,0 -21.558307,-0.13528 -21.558307,-0.30063 0,-0.59934 -7.33641,-36.79868 -7.966585,-39.30875 l -0.647262,-2.57812 9.9144,0 c 13.096542,0 13.024336,-1.72883 -0.08678,-2.07766 L 32.334097,182.34375 28.831566,165.9375 c -3.347716,-15.68108 -3.57134,-18.74192 -1.678093,-22.96875 0.46191,-1.03125 1.011559,-6.30469 1.221444,-11.71875 0.417162,-10.76088 1.200733,-15.69263 2.817265,-17.73175 1.441773,-1.81868 1.080577,-22.660485 -0.74877,-43.20575 -1.937806,-21.763349 -2.221103,-19.6564 2.500514,-18.596962 2.184579,0.490177 5.654718,1.878171 7.711418,3.084432 4.144244,2.43061 7.900054,6.13753 6.218477,6.13753 -1.95023,0 -1.119171,1.376808 1.856802,3.076147 1.608426,0.918443 3.06407,1.529803 3.234764,1.358576 0.823146,-0.825718 -1.956844,-7.271239 -2.968214,-6.881927 -0.624054,0.24022 -2.125675,-0.629209 -3.336936,-1.932065 C 42.873228,53.56047 35.35865,49.6875 32.329216,49.6875 c -1.271799,0 -2.647832,-0.527344 -3.057853,-1.171875 -0.410021,-0.644531 -0.960541,-5.179688 -1.22338,-10.078125 -0.370493,-6.904739 -0.780327,-8.90625 -1.823665,-8.90625 -1.677185,0 -5.66357,10.03914 -5.66357,14.262891 0,2.969336 -0.135322,3.080859 -3.738318,3.080859 -2.056075,0 -3.738318,0.421875 -3.738318,0.9375 0,0.515625 1.710592,0.9375 3.801314,0.9375 l 3.801314,0 -0.247438,21.821407 c -0.13609,12.001774 0.06411,22.327074 0.444885,22.94511 0.380778,0.618036 0.177782,5.564033 -0.451102,10.991093 -1.228298,10.59981 -1.138717,10.47108 -6.960441,10.00207 -2.175574,-0.17527 -4.511743,2.06491 -5.4811552,5.25595 -0.8583107,2.82532 0.7647412,2.68286 2.6702342,-0.23438 2.166967,-3.31754 3.330292,-2.90527 2.705208,0.95871 -0.727317,4.49594 1.569468,7.01004 6.404086,7.01004 l 3.593469,0 0,6.2677 c 0,5.06279 -0.374638,6.66774 -1.948789,8.34858 -1.785439,1.90644 -1.831057,2.26513 -0.544242,4.27917 1.293818,2.02499 4.897962,18.45594 13.334798,60.79205 1.798211,9.02344 3.482829,17.13049 3.743596,18.01568 0.424877,1.44225 -0.623438,1.64053 -10.093004,1.90897 -5.811919,0.16476 113.498295,0.28937 265.133815,0.27691 151.63551,-0.0125 259.40421,-0.13816 239.48598,-0.27936 z m -131.54205,-0.53533 c 0,-0.59934 -7.33642,-36.79868 -7.96659,-39.30875 l -0.64727,-2.57812 31.87702,0 31.87702,0 0,21.09375 0,21.09375 -27.57009,0 c -15.16355,0 -27.57009,-0.13528 -27.57009,-0.30063 z M 116.98741,163.03711 c -3.13482,-14.96827 -3.01276,-18.90602 0.44077,-14.22026 1.64144,2.2271 1.98557,4.4422 2.40562,15.48476 0.26959,7.08724 0.40625,12.88589 0.30366,12.88589 -0.10258,0 -1.52009,-6.36768 -3.15005,-14.15039 z m 11.20788,5.8719 c -0.60087,-2.01179 -1.09248,-4.40403 -1.09248,-5.31609 0,-1.34425 0.35397,-1.20688 1.86915,0.7254 1.96649,2.50779 2.35239,5.02871 1.07818,7.04321 -0.51744,0.81806 -1.11333,0.0302 -1.85485,-2.45252 z m 62.03183,-8.36214 c -0.34931,-1.93359 -0.83515,-4.57031 -1.07965,-5.85937 -0.25714,-1.35569 0.73615,-0.17003 2.35616,2.8125 3.33692,6.14345 3.40868,6.5625 1.12375,6.5625 -1.30377,0 -1.93116,-0.91893 -2.40026,-3.51563 z m 62.82789,-14.63297 -1.49678,-3.14861 5.06201,2.75027 c 2.7841,1.51265 5.06201,2.92952 5.06201,3.14861 0,0.21908 -1.60435,0.39833 -3.56523,0.39833 -3.12576,0 -3.74972,-0.38811 -5.06201,-3.1486 z m 168.79918,-7.33437 c 4.37655,-1.26058 13.97553,-8.5934 18.27574,-13.96116 1.6475,-2.0565 3.43387,-3.4014 4.15118,-3.12529 1.23268,0.47451 2.44787,-3.11726 2.44787,-7.23527 0,-2.37453 -0.82602,-2.17568 -4.6729,1.12491 -2.57112,2.206 -2.98986,2.98128 -1.95697,3.62326 3.19336,1.98483 -10.01892,14.85131 -17.97126,17.50091 -4.58174,1.52657 -13.14679,1.46584 -16.88154,-0.1197 -1.29591,-0.55016 -1.64899,-0.40525 -1.33258,0.54694 0.88014,2.64864 11.17821,3.59312 17.94046,1.6454 z m -9.12855,-8.68216 c 0.39337,-1.0283 1.5951,-1.22461 5.01171,-0.8187 4.06299,0.4827 4.6424,0.30716 6.03793,-1.82934 1.7223,-2.63678 1.23284,-6.60991 -1.15363,-9.36445 -0.78451,-0.9055 -1.14471,-1.92893 -0.80045,-2.27426 0.34426,-0.34535 5.56366,-2.82217 11.59864,-5.50405 10.69717,-4.7537 12.48776,-6.2873 9.52777,-8.16025 -1.061,-0.67135 -2.67506,-0.15672 -6.07476,1.93688 -4.398,2.70838 -19.15245,8.6168 -21.51778,8.6168 -0.61029,0 -1.63884,-1.28168 -2.28568,-2.84817 -0.64684,-1.56649 -3.89752,-5.11414 -7.22373,-7.88365 -7.48512,-6.232374 -16.88055,-9.995677 -40.09245,-16.058859 -9.17828,-2.39746 -18.70121,-5.381084 -21.16207,-6.630274 -7.338,-3.72494 -8.63316,-0.874819 -2.27433,5.004866 3.22478,2.981788 6.97943,4.801805 19.39252,9.400283 35.23259,13.052034 33.0901,11.970514 38.00369,19.184284 3.09821,4.54855 5.25661,6.71929 7.48472,7.5275 5.76344,2.0906 5.85067,9.96873 0.0976,8.81452 -2.47811,-0.49717 -3.37915,0.23042 -1.99938,1.6145 1.20005,1.2038 6.90454,0.64512 7.42968,-0.72763 z"
       id="path3504"
       inkscape:connector-curvature="0" />
    <path
       style="fill:#0000fe"
       d="m 124.16896,186.59369 c -2.42195,-2.02399 -1.77178,-2.49146 1.22646,-0.88184 1.37989,0.7408 2.19072,0.7408 2.92922,0 0.56163,-0.56339 2.09359,-1.01497 3.40433,-1.0035 l 2.38318,0.0208 -2.33645,1.83334 c -2.97289,2.3327 -4.84353,2.34037 -7.60674,0.0312 z m 7.12825,-5.62078 c 0.32012,-1.01177 0.10301,-2.73747 -0.48248,-3.83488 -1.39323,-2.61141 0.72622,-10.554 2.6216,-9.8244 1.71135,0.65876 5.80971,-2.18974 5.84443,-4.06208 0.0239,-1.29101 0.18844,-1.25652 1.04287,0.21868 1.41157,2.43715 0.54775,9.58478 -1.79942,14.88915 -1.74354,3.9402 -2.30675,4.45312 -4.88978,4.45312 -2.47523,0 -2.83074,-0.27981 -2.33722,-1.83959 z m 44.86911,-2.23683 c -4.77429,-1.37838 -6.07286,-2.24472 -6.07286,-4.05152 0,-1.06375 0.46772,-0.87537 1.74011,0.70089 1.7089,2.11698 1.81368,2.12822 5.84112,0.62573 2.25556,-0.84146 5.99354,-1.6593 8.30662,-1.81743 3.92607,-0.26839 4.22445,-0.12459 4.48909,2.16343 0.24184,2.0908 -0.15299,2.53851 -2.68691,3.04688 -4.00231,0.80297 -7.14896,0.62204 -11.61717,-0.66798 z m 17.29163,-3.89233 c 0,-1.80176 0.48627,-2.34671 2.1028,-2.35655 1.15654,-0.007 3.15421,-0.29114 4.43925,-0.63133 2.13115,-0.56418 2.21926,-0.47524 1.00265,1.01212 -1.22458,1.49711 -5.81868,4.31951 -7.031,4.31951 -0.28254,0 -0.5137,-1.05469 -0.5137,-2.34375 z m 260.22141,-18.75 c 0.79712,-1.54688 1.45191,-3.33012 1.45508,-3.96277 0.007,-1.56667 -4.3556,-4.32651 -5.90032,-3.73189 -0.98625,0.37965 -0.88848,-1.21899 0.46674,-7.6313 1.79192,-8.4786 4.34574,-17.01779 5.0895,-17.01779 0.23899,0 0.15752,1.48118 -0.18104,3.29153 -0.38359,2.05113 -0.19359,3.80156 0.50418,4.64495 0.77442,0.93604 1.02325,4.82652 0.80687,12.61509 -0.2597,9.34716 -0.59997,11.5458 -2.00161,12.93315 -1.62714,1.61057 -1.63587,1.56896 -0.2394,-1.14097 z m -207.85921,-1.05962 c -4.18345,-3.53115 -7.48755,-10.66072 -8.11155,-17.50313 -0.45931,-5.03648 -0.25786,-6.15636 1.50925,-8.39037 1.12162,-1.41797 2.83079,-2.57813 3.79816,-2.57813 1.57673,0 1.52132,0.23827 -0.53512,2.30114 -1.26168,1.26563 -2.29397,2.9948 -2.29397,3.84262 0,1.7966 4.86784,6.6194 7.5399,7.47013 1.01048,0.32172 2.67131,2.22496 3.69073,4.22943 2.21929,4.36376 2.24905,4.65668 0.47315,4.65668 -0.75917,0 -2.07629,1.0655 -2.92691,2.36777 -1.44826,2.21724 -1.44043,2.48544 0.12331,4.21875 2.43224,2.696 0.1457,2.26564 -3.26695,-0.61489 z m 213.1657,-16.40372 c -0.0756,-4.37457 0.29154,-6.5454 1.24051,-7.33544 0.74131,-0.61715 1.51513,-2.46178 1.71959,-4.09916 0.32049,-2.56656 0.38185,-2.45998 0.44505,0.77294 0.0403,2.0625 -0.6852,6.70312 -1.61226,10.3125 l -1.68556,6.5625 -0.10733,-6.21334 z m 55.61422,-7.72212 c -2.88985,-4.22409 -5.25427,-8.68281 -5.25427,-9.90828 0,-2.16873 0.0498,-2.18289 1.86916,-0.53126 1.80472,1.63836 1.93558,1.63656 3.79583,-0.0522 1.12527,-1.02154 1.73896,-2.4691 1.47539,-3.48013 -1.01141,-3.87972 2.57739,0.85808 5.51623,7.28234 1.85263,4.04985 4.11944,7.38088 5.9204,8.69994 3.96,2.90039 3.69075,4.29547 -0.44703,2.31614 -3.35085,-1.6029 -3.3745,-1.59914 -5.49339,0.8719 l -2.12805,2.48173 -5.25427,-7.68017 z M 399.9716,111.67504 c -2.43069,-3.56191 -5.23927,-6.4906 -6.93491,-7.23148 -2.21773,-0.969 -2.42485,-1.25331 -0.93388,-1.28187 2.53312,-0.0485 4.15888,-1.78532 4.15888,-4.44294 0,-2.580291 0.63755,-2.665875 3.79514,-0.509447 5.99848,4.096567 10.5674,8.484127 12.22376,11.738537 l 1.80251,3.5416 -2.34513,-0.59043 c -1.80284,-0.4539 -2.96209,0.0284 -5.01318,2.08596 l -2.66805,2.67638 -4.08514,-5.98631 z m -378.984483,2.40143 c -0.336201,-1.34372 -0.138486,-6.00703 0.439368,-10.36291 0.722624,-5.447154 0.758622,-9.190076 0.115299,-11.988543 -1.34528,-5.852006 -1.203215,-6.320802 0.87788,-2.896892 2.167347,3.565815 2.703485,3.672601 5.874933,1.170143 l 2.378445,-1.876731 0.668103,8.045554 c 0.929161,11.189319 -0.62388,20.861639 -2.786144,17.352089 -1.040225,-1.68838 -4.058646,-1.14994 -5.553278,0.99061 l -1.403331,2.00981 -0.611275,-2.44313 z m 42.219234,-3.76544 c -0.384045,-1.53493 0.120395,-5.79306 1.252968,-10.576705 1.042702,-4.404056 1.895822,-8.963361 1.895822,-10.131796 0,-1.168435 0.946262,-2.928094 2.102804,-3.910353 2.100681,-1.784123 2.101153,-1.783959 0.46729,0.162894 -0.899533,1.07185 -1.635514,2.588496 -1.635514,3.370323 0,2.204465 3.428969,4.824438 5.576745,4.261029 1.804138,-0.473267 1.89989,-0.08143 1.89989,7.774668 0,4.55019 -0.262548,8.95939 -0.583442,9.79824 -0.511043,1.33591 -0.749562,1.28726 -1.922153,-0.39208 -1.760169,-2.52085 -5.327699,-2.44593 -7.044596,0.14794 l -1.36696,2.06518 -0.642854,-2.56934 z m 253.314769,-2.22914 c -0.2826,-0.45868 -1.00591,-3.66865 -1.60738,-7.13327 -0.60146,-3.464623 -1.84117,-7.225463 -2.75491,-8.357424 -1.60555,-1.988954 -1.59498,-2.091313 0.31447,-3.046254 1.08672,-0.543479 2.44906,-1.940271 3.02742,-3.103984 1.29084,-2.597248 1.8408,-2.024943 6.03121,6.27623 3.20741,6.353865 5.19758,16.304672 2.5768,12.883992 -1.70498,-2.22537 -4.59124,-1.68041 -5.98835,1.13067 -0.59699,1.2012 -1.31667,1.80872 -1.59926,1.35004 z"
       id="path3502"
       inkscape:connector-curvature="0" />
    <path
       style="fill:#fe0000"
       d="m 126.40187,197.26459 c -4.40249,-1.93133 -3.73349,-3.36528 0.81844,-1.75425 2.1207,0.75056 5.41026,1.36466 7.31015,1.36466 4.79836,0 11.95031,-2.60882 13.5901,-4.95727 0.75304,-1.07848 1.67195,-1.65712 2.04203,-1.28588 1.08753,1.09093 -3.92787,5.48794 -7.804,6.84177 -4.57434,1.5977 -12.06181,1.49962 -15.95672,-0.20903 z m -9.83924,-6.96302 c -2.16711,-2.5397 -3.45338,-3.43266 -3.77825,-2.62296 -0.38882,0.96911 -0.70133,0.93149 -1.48397,-0.17861 -1.12261,-1.59235 -1.39519,-7.83961 -0.3191,-7.31367 4.53006,2.21407 5.84112,3.04773 5.84112,3.71416 0,0.43285 -0.659,0.78701 -1.46444,0.78701 -1.03472,0 -0.4475,1.24491 2.00119,4.24256 4.36392,5.34222 3.64617,6.57805 -0.79655,1.37151 z m 146.0542,-35.38855 c 0,-0.3916 0.81645,-1.22347 1.81434,-1.84861 4.53943,-2.84379 9.90568,-16.10549 8.99149,-22.22084 -0.75461,-5.04781 -4.09932,-10.75241 -5.22914,-8.9186 -0.44119,0.71609 -0.95645,1.10326 -1.14502,0.86038 -0.62958,-0.81089 -2.50643,-7.84161 -2.18058,-8.16848 0.53759,-0.53926 7.0947,2.86352 7.0947,3.68176 0,0.42014 -0.43829,0.76387 -0.97397,0.76387 -0.53569,0 0.18705,1.98734 1.60609,4.41632 3.57457,6.11861 3.58052,12.78139 0.0182,20.42743 -3.1987,6.86557 -9.99614,14.35027 -9.99614,11.00677 z m 143.99452,-16.04795 c -1.24693,-0.34955 -2.46087,-1.21847 -2.69762,-1.93094 -0.31641,-0.95219 0.0366,-1.0971 1.33258,-0.54694 3.73475,1.58554 12.2998,1.64627 16.88154,0.1197 7.95234,-2.6496 21.16462,-15.51608 17.97126,-17.50091 -1.03289,-0.64198 -0.61415,-1.41726 1.95697,-3.62326 3.84688,-3.30059 4.6729,-3.49944 4.6729,-1.12491 0,4.11801 -1.21519,7.70978 -2.44787,7.23527 -0.71731,-0.27611 -2.50368,1.06879 -4.15118,3.12529 -4.30021,5.36776 -13.89919,12.70058 -18.27574,13.96115 -4.11689,1.18579 -11.53561,1.32476 -15.24284,0.28555 z M 305.60748,135.9375 c 0,-0.51563 1.21538,-0.9375 2.70086,-0.9375 5.31418,0 21.08905,-3.82193 24.81459,-6.01207 4.19366,-2.46532 7.96314,-6.17543 6.27426,-6.17543 -1.95023,0 -1.11917,-1.3768 1.85681,-3.07614 1.60842,-0.91845 3.06406,-1.52981 3.23475,-1.35858 0.82315,0.82572 -1.95684,7.27124 -2.96821,6.88192 -0.62405,-0.24021 -2.12568,0.62851 -3.33694,1.9305 -3.37746,3.63046 -8.74514,5.98402 -18.0332,7.90697 -9.4413,1.95467 -14.54292,2.24946 -14.54292,0.84033 z M 48.366157,63.898663 C 45.692748,62.280192 45.016073,60.9375 46.873821,60.9375 c 1.688883,0 -2.080592,-3.710105 -6.27426,-6.175438 C 36.874017,52.571925 21.099147,48.75 15.784973,48.75 c -1.485474,0 -2.700861,-0.421875 -2.700861,-0.9375 0,-1.409129 5.10162,-1.114343 14.54292,0.840332 9.28806,1.922948 14.655749,4.276502 18.033205,7.906962 1.211261,1.301996 2.736476,2.16164 3.389366,1.910319 0.691469,-0.26617 1.428646,0.508558 1.765686,1.855626 0.318235,1.271915 0.835679,2.984577 1.149874,3.805916 0.705897,1.845284 -0.270497,1.782074 -3.599006,-0.232992 z"
       id="path3500"
       inkscape:connector-curvature="0" />
    <path
       style="fill:#000000"
       d="m 27.856845,227.11215 c 9.469566,-0.26844 10.517881,-0.46672 10.093004,-1.90897 -0.260767,-0.88519 -1.945385,-8.99224 -3.743596,-18.01568 -8.436836,-42.33611 -12.04098,-58.76706 -13.334798,-60.79205 -1.286815,-2.01404 -1.241197,-2.37273 0.544242,-4.27917 1.574151,-1.68084 1.948789,-3.28579 1.948789,-8.34858 l 0,-6.2677 -3.593469,0 c -4.834618,0 -7.131403,-2.5141 -6.404086,-7.01004 0.625084,-3.86398 -0.538241,-4.27625 -2.705208,-0.95871 -1.905493,2.91724 -3.5285449,3.0597 -2.6702342,0.23437 0.9694122,-3.19103 3.3055812,-5.43121 5.4811552,-5.25594 5.812109,0.46824 5.73689,0.57442 6.902843,-9.74406 C 20.973672,99.471806 21.13471,93.682646 20.734067,91.875 20.33408,90.070312 20.278291,79.734375 20.610092,68.90625 l 0.603274,-19.6875 0.03006,17.878253 c 0.02474,14.713815 0.302067,18.40591 1.56685,20.859375 1.82704,3.544146 2.486942,3.645264 5.68909,0.871747 L 30.934727,86.71875 29.491374,70.3125 c -1.527795,-17.366096 -1.684915,-20.236901 -1.07322,-19.609375 0.209422,0.214844 1.103414,8.828125 1.986646,19.140625 1.931811,22.555551 2.278702,41.79773 0.787382,43.67632 -1.616348,2.03608 -2.400074,6.96832 -2.817265,17.72993 -0.209885,5.41406 -0.759534,10.6875 -1.221444,11.71875 -1.893247,4.22683 -1.669623,7.28767 1.678093,22.96875 l 3.502531,16.40625 10.001176,0.26609 c 13.111112,0.34883 13.183318,2.07766 0.08678,2.07766 l -9.9144,0 0.647262,2.57812 c 0.630175,2.51007 7.966585,38.70941 7.966585,39.30875 0,0.16535 9.701237,0.30063 21.558307,0.30063 20.093046,0 21.52541,-0.11151 21.074311,-1.64063 -0.266196,-0.90234 -1.955257,-9.02343 -3.753468,-18.04687 -8.083652,-40.56383 -12.053822,-58.82477 -13.42874,-61.76598 -1.379183,-2.95032 -1.36746,-3.2569 0.167591,-4.38287 1.555983,-1.14132 1.565478,-1.62308 0.165784,-8.41243 -0.816595,-3.96097 -1.484719,-7.36759 -1.484719,-7.57024 0,-0.20266 -1.406782,-0.36848 -3.12618,-0.36848 -4.095587,0 -6.460805,-2.6092 -6.106348,-6.73625 0.148068,-1.72397 -0.05194,-3.65577 -0.444472,-4.29287 -1.194335,-1.93852 -3.336858,-1.29684 -3.957913,1.18537 -0.322526,1.28906 -1.006972,2.34375 -1.52099,2.34375 -1.271459,0 -0.03166,-4.7905 1.698059,-6.56118 1.218898,-1.24775 1.676588,-1.22981 4.091406,0.16044 3.380002,1.94591 6.84844,1.28074 6.074617,-1.16498 -0.297275,-0.93955 0.321773,-5.35026 1.375661,-9.801552 1.053888,-4.451297 1.91616,-9.041111 1.91616,-10.199581 0,-1.15847 0.946261,-2.978275 2.102803,-4.044012 1.810211,-1.668082 4.480209,-2.147918 19.188682,-3.448471 16.833713,-1.488471 17.140613,-1.482757 20.794393,0.387088 2.03968,1.04382 3.70851,2.226781 3.70851,2.628802 0,1.87795 -2.68485,2.988907 -7.4299,3.074396 -2.85281,0.05139 -6.23832,0.402803 -7.523366,0.780903 -2.074225,0.610298 -1.864449,0.770244 1.869159,1.425146 7.153787,1.254824 14.086977,5.626801 12.642117,7.971939 -0.84099,1.365009 -4.82746,1.203365 -10.13097,-0.410785 -2.474007,-0.752981 -8.151578,-1.821094 -12.616821,-2.373572 -4.465244,-0.552487 -9.064888,-1.205503 -10.22143,-1.451156 -2.053394,-0.436153 -2.102803,-0.255413 -2.102803,7.691975 0,7.04653 -0.321947,8.68969 -2.399267,12.24545 l -2.399265,4.10683 1.137931,10.68365 c 0.83637,7.8524 0.870695,12.01848 0.129525,15.72057 -0.903885,4.51484 -0.647355,6.73144 2.47499,21.38563 l 3.483396,16.34872 9.534009,0.26717 c 12.467455,0.34938 12.539735,2.07658 0.0869,2.07658 l -9.447111,0 0.647262,2.57812 c 0.630175,2.51007 7.966585,38.70941 7.966585,39.30875 0,0.16535 9.070393,0.30063 20.156441,0.30063 18.75793,0 20.12285,-0.11383 19.67244,-1.64063 -0.2662,-0.90234 -1.95481,-9.02343 -3.75245,-18.04687 -2.60631,-13.08252 -9.36471,-45.90907 -12.3776,-60.11984 -0.65209,-3.07569 1.0589,-6.44266 3.27395,-6.44266 0.92035,0 2.64282,1.03517 3.82771,2.30037 l 2.15435,2.30036 2.01776,-3.00348 c 3.36528,-5.00936 4.78625,-3.99919 4.5026,3.20086 -0.19185,4.86955 0.0921,6.4831 1.3202,7.5 1.1677,0.96694 1.66042,1.01027 1.9422,0.17081 0.20765,-0.61866 1.21078,-2.18742 2.22918,-3.48615 1.7798,-2.26972 2.21245,-2.35338 11.15188,-2.15642 5.71584,0.12592 9.17162,0.56622 8.96652,1.1424 -0.18355,0.51562 -2.24499,0.83933 -4.58097,0.71935 l -4.24724,-0.21813 0.50423,3.771 c 0.40673,3.04193 0.10259,4.19985 -1.57305,5.98906 -1.68736,1.80172 -1.88681,2.57505 -1.06262,4.11989 1.62264,3.0414 1.14258,8.63608 -1.23964,14.44695 l -2.20994,5.39063 8.77417,0 c 5.2264,0 8.77418,0.37907 8.77418,0.9375 0,0.56586 -3.91487,0.9375 -9.87544,0.9375 -9.09389,0 -10.11787,0.18548 -12.93868,2.34375 -3.72826,2.85257 -5.28984,2.92792 -8.15711,0.39363 l -2.20634,-1.95012 2.31076,1.48137 c 3.0097,1.92946 4.65146,1.84331 7.50232,-0.39363 l 2.33645,-1.83331 -2.51493,-0.0208 c -1.38322,-0.0115 -2.77486,0.40099 -3.09255,0.91662 -0.31768,0.51562 -1.07848,0.93104 -1.69067,0.92315 -0.7305,-0.009 -0.6697,-0.29605 0.17692,-0.83395 0.86234,-0.54788 0.2427,-0.75948 -1.86916,-0.63828 -2.11083,0.12113 -3.12211,0.63118 -3.04756,1.53706 0.11058,1.3437 6.58164,34.09762 7.53766,38.15264 l 0.49732,2.10938 35.47568,0 c 33.34282,0 35.44735,-0.0986 35.00449,-1.64063 -0.60803,-2.11707 -9.00056,-43.82104 -9.00056,-44.72538 0,-0.37672 -2.07706,-0.39837 -4.61568,-0.0481 -5.63535,0.77748 -14.38371,-1.02471 -16.53165,-3.40558 -1.38067,-1.53039 -1.40466,-2.09392 -0.22333,-5.24433 1.57284,-4.19446 5.98633,-6.80027 11.55757,-6.82384 6.26849,-0.0265 6.38351,-0.33629 4.10691,-11.06124 -1.63878,-7.72022 -1.7992,-9.79277 -0.84704,-10.94362 0.64604,-0.78086 1.72248,-1.41974 2.3921,-1.41974 0.66962,0 3.85559,5.02892 7.07991,11.17538 4.76975,9.09243 6.05628,10.90945 6.90249,9.74859 1.53589,-2.10702 9.44252,-2.78682 11.4633,-0.9856 0.88694,0.79058 3.22675,2.10623 5.19961,2.92368 4.15514,1.72169 4.10565,3.4555 -0.13346,4.67507 -4.76509,1.37088 -5.2129,6.21288 -0.5746,6.21288 1.54781,0 2.64989,-0.7674 3.36588,-2.34375 0.58551,-1.28906 1.41761,-2.34375 1.84913,-2.34375 1.09751,0 0.9911,0.62996 -0.64131,3.79655 -1.1676,2.26494 -2.01933,2.76595 -4.70222,2.76595 -2.05019,0 -3.4777,-0.5263 -3.81431,-1.40625 -0.30269,-0.79127 -1.69375,-1.40625 -3.18086,-1.40625 -1.4536,0 -3.78513,-0.43563 -5.18118,-0.96806 -2.07408,-0.79103 -2.89704,-0.64101 -4.50009,0.82034 -1.079,0.98363 -2.93361,2.29155 -4.12134,2.9065 -1.44986,0.75065 -2.0641,1.79042 -1.86916,3.16402 0.2855,2.01173 0.59124,2.0502 18.28101,2.30056 10.93308,0.15474 17.99065,0.61446 17.99065,1.17188 0,0.56597 -6.83857,0.91722 -17.85832,0.91722 l -17.85833,0 0.64726,2.57812 c 0.63018,2.51007 7.96659,38.70941 7.96659,39.30875 0,0.16535 19.98465,0.30063 44.41033,0.30063 l 44.41033,0 -0.4989,-2.10938 c -0.48006,-2.02967 -5.62547,-27.19939 -11.88243,-58.125 -2.6394,-13.04551 -3.20168,-14.76562 -4.8267,-14.76562 -1.01161,0 -2.6077,0.69758 -3.54688,1.55018 -1.3701,1.2438 -2.12351,1.34138 -3.81191,0.49367 -1.96132,-0.98472 -1.92451,-1.01815 0.54169,-0.49194 2.53428,0.54074 2.63293,0.43082 2.33645,-2.60304 -0.27846,-2.84944 -0.0514,-3.19741 2.26054,-3.46426 1.81566,-0.20957 2.5701,-0.82877 2.5701,-2.10938 0,-1.28368 0.64849,-1.81273 2.22202,-1.81273 3.20705,0 4.86052,2.30725 3.54319,4.94419 -0.95825,1.91815 -1.00508,1.85944 -0.57869,-0.72544 0.40006,-2.42522 0.33942,-2.53012 -0.44037,-0.76181 -0.84882,1.92485 -0.11585,6.32239 5.28359,31.69931 l 0.79788,3.75 9.53946,0.26717 c 12.47166,0.34929 12.54847,2.07658 0.0924,2.07658 l -9.44711,0 0.64726,2.57812 c 0.63018,2.51007 7.96659,38.70941 7.96659,39.30875 0,0.16535 10.31174,0.30063 22.915,0.30063 l 22.915,0 -0.49913,-2.10938 c -0.27453,-1.16015 -3.20198,-15.39843 -6.50547,-31.64062 -8.8444,-43.48511 -8.59544,-42.44398 -10.48054,-43.8288 -1.36907,-1.00572 -1.70935,-2.53936 -1.70935,-7.70389 0,-4.04706 0.29695,-5.91795 0.79744,-5.02425 0.4386,0.78316 0.51348,3.70386 0.1664,6.49044 -0.34707,2.78657 -0.28289,5.0665 0.14264,5.0665 1.65319,0 3.31487,-5.86842 2.84521,-10.04823 -0.29537,-2.62867 -0.16474,-3.76862 0.3402,-2.96883 0.45082,0.71407 0.82612,3.09128 0.83399,5.28268 0.007,2.19141 0.41103,3.98438 0.89591,3.98438 0.48488,0 0.84486,2.00391 0.79995,4.45312 -0.0449,2.44922 0.55958,6.98438 1.34331,10.07813 0.78373,3.09375 2.18312,9.73828 3.10976,14.76562 l 1.68481,9.14063 11.04355,0 c 6.73932,0 11.04356,0.36539 11.04356,0.9375 0,0.57116 -4.23938,0.9375 -10.84898,0.9375 l -10.84898,0 0.64726,2.57812 c 0.63018,2.51007 7.96659,38.70941 7.96659,39.30875 0,0.16535 12.20427,0.30063 27.12061,0.30063 l 27.1206,0 -0.49913,-2.10938 c -0.27452,-1.16015 -3.2016,-15.39843 -6.50462,-31.64062 -3.30301,-16.24219 -6.71388,-32.69531 -7.57969,-36.5625 -2.82003,-12.59571 -2.82211,-12.1875 0.0619,-12.1875 2.33062,0 2.51141,0.25422 2.11371,2.97232 -0.23918,1.63478 1.10107,10.17775 2.97835,18.98438 l 3.41323,16.01205 31.93833,0.24666 31.93833,0.24664 -0.0176,-25.29518 c -0.0105,-15.0479 -0.37933,-25.51949 -0.91061,-25.84886 -0.49118,-0.30451 -0.8433,-1.68893 -0.78248,-3.07647 l 0.1106,-2.52279 0.71343,2.8125 c 0.64736,2.55202 0.71759,2.59543 0.75832,0.46875 0.0247,-1.28906 -0.29013,-3.1875 -0.69961,-4.21875 -0.59723,-1.50414 -1.12763,-0.64005 -2.68168,4.36882 -1.90612,6.14366 -4.31615,17.72607 -3.74416,17.99415 5.39166,2.52704 5.89984,3.09396 5.89984,6.58185 0,1.95653 -0.59118,4.04903 -1.31373,4.65 -3.91766,3.25842 -37.78033,-2.94445 -48.28097,-8.84397 -10.82966,-6.08436 -10.30078,-9.64955 0.96121,-6.47956 10.61952,2.98917 30.08719,6.57246 35.70744,6.57246 4.90617,0 4.91074,-0.003 5.72376,-3.51563 3.55537,-15.36156 5.13465,-20.7306 6.74499,-22.93079 2.24786,-3.07122 2.55214,-9.17858 0.4573,-9.17858 -1.63543,0 -1.84306,2.95711 -0.41573,5.92101 0.9526,1.9781 0.93671,1.98586 -0.46729,0.22793 -2.15413,-2.69715 -1.86479,-8.54879 0.5421,-10.9632 1.86181,-1.86763 1.96305,-2.6889 1.51092,-12.257446 -0.47905,-10.138798 -0.4589,-10.267423 1.76815,-11.285311 3.82681,-1.749054 4.53849,0.09694 4.53849,11.77207 l 0,10.491197 2.56847,-0.26961 c 2.12451,-0.223 2.83397,0.28892 4.10455,2.96167 0.93686,1.97076 1.25551,3.90451 0.81686,4.95711 -0.59431,1.42609 -0.87351,1.15596 -1.60762,-1.55542 -1.35682,-5.01134 -2.45736,-5.3615 -1.9237,-0.61206 0.41264,3.67231 0.15736,4.53497 -1.91101,6.45786 -1.70427,1.5844 -2.14222,2.60789 -1.53078,3.57741 1.39048,2.20477 1.02513,6.39322 -1.45256,16.65214 -2.29559,9.50494 -2.33524,10.32064 -2.33524,48.04688 l 0,38.37777 17.28972,0 17.28972,0 0,-21.09375 0,-21.09375 -7.47663,0 c -4.36138,0 -7.47664,-0.39063 -7.47664,-0.9375 0,-0.54735 3.1305,-0.9375 7.52233,-0.9375 l 7.52232,0 -0.14247,-47.90291 c -0.0952,-31.99234 0.17921,-48.225609 0.82606,-48.874483 1.90269,-1.908625 3.77831,0.213401 7.89618,8.933474 3.89158,8.240869 4.39352,8.879759 7.33264,9.332959 2.06913,0.31906 3.70604,-1.7e-4 4.75579,-0.92747 1.98062,-1.74956 3.88437,-1.08589 5.94808,2.07355 2.16727,3.31801 0.89351,4.19079 -1.55643,1.06646 -2.55357,-3.25649 -4.25997,-1.98296 -4.13323,3.08474 0.0733,2.92817 0.6694,4.18914 2.76073,5.83931 1.46703,1.15758 3.91176,4.87239 5.43273,8.25515 1.60073,3.56014 4.10066,7.26502 5.93585,8.79684 1.74375,1.45552 3.17045,3.17893 3.17045,3.82981 0,0.65088 7.16178,8.25864 15.91508,16.90613 17.66415,17.45063 21.10763,22.14229 17.32125,23.5998 -1.30279,0.50149 -36.6656,-28.43647 -43.23795,-35.3823 -4.9685,-5.25085 -13.36287,-17.96959 -13.36287,-20.24678 0,-1.30004 -0.56456,-2.13428 -1.44434,-2.13428 -0.7944,0 -2.48804,-1.04694 -3.76365,-2.32654 -1.98618,-1.99238 -2.2956,-3.10327 -2.15429,-7.73437 0.11106,-3.63929 -0.49178,-7.09411 -1.84335,-10.56409 -1.10461,-2.835938 -1.9958,-5.367188 -1.98043,-5.625 0.074,-1.241181 2.2101,3.574847 4.23685,9.55235 2.61189,7.70329 5.76387,13.40988 9.16932,16.60087 1.99113,1.86574 2.6405,2.04509 3.82726,1.05709 1.94245,-1.61712 1.79564,-3.14961 -0.50145,-5.23494 -3.0874,-2.80279 -10.01256,-13.76351 -13.55398,-21.4524 -2.29724,-4.987606 -3.73936,-7.053271 -4.8707,-6.976719 -1.23341,0.08346 -1.28117,0.197907 -0.20535,0.492081 1.23325,0.337223 1.36905,8.779784 1.12898,70.192698 l -0.2729,69.80938 36.25421,0.25676 c 19.9398,0.14121 -87.81123,0.26694 -239.44674,0.27939 -151.63552,0.0125 -270.945734,-0.11215 -265.133815,-0.27691 z m 428.217925,-21.3309 0,-21.09375 -31.87702,0 -31.87702,0 0.64727,2.57812 c 0.63017,2.51007 7.96659,38.70941 7.96659,39.30875 0,0.16535 12.40654,0.30063 27.57009,0.30063 l 27.57009,0 0,-21.09375 z M 130.26792,181.34506 c 0.30875,-0.80709 -0.57894,-4.92038 -1.97264,-9.14063 -2.2409,-6.7857 -2.5348,-9.1099 -2.54108,-20.09506 -0.004,-6.83203 -0.3391,-12.42187 -0.74485,-12.42187 -0.40577,0 -1.60644,1.37109 -2.66817,3.04687 -1.82216,2.87601 -1.9042,4.03089 -1.46282,20.5933 0.25717,9.65053 0.73631,17.98256 1.06473,18.51562 0.97753,1.58663 7.68075,1.18544 8.32483,-0.49823 z m 8.25629,-2.98569 c 2.34717,-5.30436 3.21099,-12.45199 1.79942,-14.88914 -0.85443,-1.4752 -1.01894,-1.50969 -1.04287,-0.21868 -0.0347,1.87234 -4.13308,4.72084 -5.84443,4.06208 -1.89538,-0.7296 -4.01483,7.21299 -2.6216,9.8244 0.58549,1.09741 0.8026,2.82311 0.48248,3.83488 -0.49352,1.55978 -0.13801,1.83959 2.33722,1.83959 2.58303,0 3.14624,-0.51292 4.88978,-4.45313 z m 49.25928,1.04469 c 2.53392,-0.50837 2.92875,-0.95608 2.68691,-3.04688 -0.26464,-2.28802 -0.56302,-2.43182 -4.48909,-2.16343 -2.31308,0.15813 -5.98834,0.95194 -8.16722,1.76403 -3.19873,1.19219 -4.23357,1.25012 -5.37384,0.30084 -0.77671,-0.64665 -1.41221,-1.62656 -1.41221,-2.17759 0,-0.55105 0.56758,-0.22327 1.26128,0.7284 1.19735,1.64257 1.49349,1.65314 5.84112,0.2083 2.51892,-0.8371 6.19896,-1.77306 8.17786,-2.07992 3.14304,-0.48736 3.52874,-0.81705 3.05015,-2.60723 -0.30134,-1.12713 -0.55362,-2.75713 -0.56064,-3.62222 -0.0109,-1.34968 -0.77536,-1.49853 -5.38659,-1.0489 -8.10443,0.79024 -11.04423,2.30205 -12.38173,6.36737 -1.37939,4.19269 -0.65759,5.17259 4.94208,6.70925 4.70887,1.29221 7.82276,1.4683 11.81192,0.66798 z M 119.8338,164.30161 c -0.42005,-11.04256 -0.76418,-13.25766 -2.40562,-15.48476 -3.45353,-4.68576 -3.57559,-0.74801 -0.44077,14.22026 1.62996,7.78271 3.04747,14.15039 3.15005,14.15039 0.10259,0 -0.0341,-5.79865 -0.30366,-12.88589 z m 77.2433,11.54146 c 1.42546,-0.73945 3.13739,-2.00395 3.80429,-2.81002 1.07818,-1.3032 0.7082,-1.41664 -3.3391,-1.02388 -3.77218,0.36607 8.50572,-1.96726 19.98108,-3.79726 3.99653,-0.63733 3.84687,-1.86101 -0.39956,-3.26684 -2.40255,-0.79539 -6.68372,-0.94312 -14.2249,-0.49085 -5.93337,0.35583 -10.93109,0.79057 -11.10607,0.96609 -0.38544,0.38664 1.90261,11.76719 2.3658,11.76719 0.17969,0 1.493,-0.605 2.91846,-1.34443 z m 368.30429,-0.76495 c -0.0978,-2.92683 -4.33034,-7.87122 -19.1197,-22.33546 -16.09716,-15.74331 -20.68048,-19.03965 -23.36533,-16.80446 -3.59418,2.99222 -2.33328,4.36508 25.70178,27.98387 13.9404,11.74442 16.86797,13.69043 16.78325,11.15605 z m -434.55458,-6.649 c 0.007,-0.94992 -0.82681,-2.79979 -1.85485,-4.1108 -1.51518,-1.93228 -1.86915,-2.06965 -1.86915,-0.7254 0,3.33005 2.15762,9.01713 2.94733,7.76861 0.4193,-0.66291 0.76881,-1.98249 0.77667,-2.93241 z m 5.85543,-2.85917 c 2.40247,-1.82943 1.99474,-4.20764 -0.93457,-5.45128 -1.41356,-0.60013 -4.1472,-2.57514 -6.07477,-4.38891 l -3.50467,-3.29779 0,2.94918 c 0,3.61982 3.32625,9.50248 5.98194,10.57939 2.59763,1.05338 2.6407,1.04967 4.53207,-0.39059 z m 57.66619,-2.21058 c -0.0242,-0.38671 -1.30441,-3.02343 -2.8448,-5.85937 -1.62001,-2.98253 -2.6133,-4.16819 -2.35616,-2.8125 0.2445,1.28906 0.73034,3.92578 1.07965,5.85937 0.4691,2.5967 1.09649,3.51563 2.40026,3.51563 0.97083,0 1.7453,-0.31641 1.72105,-0.70313 z m 4.71699,0.19185 c 0,-0.28121 -2.25841,-4.74055 -5.01868,-9.90964 -4.29086,-8.03537 -5.08475,-9.05164 -5.47426,-7.00766 -0.62254,3.26678 6.56927,17.41254 8.85743,17.4219 0.89953,0.004 1.63551,-0.2234 1.63551,-0.5046 z m 8.41122,-1.36372 c 0,-1.11297 -1.62365,-1.11297 -4.20561,0 -1.56637,0.6752 -1.37713,0.81639 1.16823,0.8716 1.67056,0.0362 3.03738,-0.35598 3.03738,-0.8716 z m -70.10777,-6.72883 c 0.007,-0.86492 -1.11977,-2.46745 -2.50589,-3.56116 l -2.52018,-1.98858 -1.28071,2.45196 c -1.44487,2.76624 -0.45302,4.75923 3.01761,6.06346 2.04606,0.76888 3.26519,-0.33034 3.28917,-2.96568 z m 314.42667,2.75848 c 1.37144,-0.30969 1.81292,-1.25545 1.86916,-4.00419 0.066,-3.22529 -0.24946,-3.7314 -3.03973,-4.87713 -1.71235,-0.70312 -2.8713,-0.88553 -2.57546,-0.40535 2.38518,3.87136 -21.09317,1.3222 -41.98578,-4.55858 -7.42281,-2.08936 -9.03319,-1.98771 -7.02198,0.44324 2.85708,3.45333 11.38845,6.96367 24.79003,10.20019 18.18488,4.39171 21.17728,4.73433 27.96376,3.20182 z m -175.16002,-8.79519 c 0,-0.81607 -1.03959,-1.29696 -2.80374,-1.29696 -2.99967,0 -3.07642,0.0713 -2.28963,2.12809 0.65361,1.70859 5.09337,0.98412 5.09337,-0.83113 z m -158.96443,-5.60745 c -2.11576,-2.25916 -5.52156,-3.06998 -5.52156,-1.31451 0,0.51562 0.52571,0.94038 1.16823,0.9439 0.64252,0.004 2.21962,1.56019 3.50467,3.45926 2.16687,3.20223 2.35899,3.29717 2.64709,1.30809 0.18439,-1.27318 -0.54643,-3.05989 -1.79843,-4.39674 z m -93.372024,-0.51687 c 2.292691,-0.32273 2.348733,-0.5308 2.992349,-11.11014 0.360746,-5.92969 0.781307,-12.46875 0.93458,-14.53125 0.241112,-3.24449 0.0037,-3.78926 -1.760891,-4.04126 -3.262613,-0.46593 -4.188569,2.45344 -3.123005,9.84626 1.535767,10.65506 1.243082,16.61341 -0.912192,18.57 -1.028038,0.93327 -1.862719,2.15881 -1.854848,2.72343 0.0097,0.6993 0.23321,0.68311 0.700935,-0.0508 0.377643,-0.59256 1.738025,-1.22537 3.023072,-1.40625 z m 47.135792,-9.59432 c -0.758208,-9.24537 -0.805882,-13.55695 -0.224082,-20.26582 0.24661,-2.84373 -0.0129,-3.32344 -1.946205,-3.59765 -4.433041,-0.62876 -4.916578,4.48967 -1.903661,20.15104 1.757446,9.13534 1.801494,10.18793 0.46729,11.16657 -2.387281,1.75108 -1.692958,2.92518 1.455712,2.46161 l 2.928771,-0.4312 -0.777825,-9.48455 z M 462.391,127.96875 c -0.0632,-3.23292 -0.12456,-3.3395 -0.44505,-0.77294 -0.20446,1.63738 -0.97828,3.48201 -1.71959,4.09916 -0.94897,0.79004 -1.31608,2.96087 -1.24051,7.33544 l 0.10733,6.21334 1.68556,-6.5625 c 0.92706,-3.60938 1.65257,-8.25 1.61226,-10.3125 z m -273.85906,14.90234 c -0.31056,-0.31152 -1.11664,-0.34482 -1.79128,-0.074 -0.74555,0.29927 -0.5241,0.52142 0.56464,0.5664 0.9852,0.0407 1.53719,-0.18087 1.22664,-0.49239 z m 338.94384,-7.63626 c 4.13778,1.97933 4.40703,0.58425 0.44703,-2.31614 -1.80096,-1.31906 -4.06777,-4.65009 -5.9204,-8.69994 -2.93884,-6.42426 -6.52764,-11.16206 -5.51623,-7.28234 0.26357,1.01103 -0.35012,2.45859 -1.47539,3.48013 -1.86025,1.68877 -1.99111,1.69057 -3.79583,0.0522 -1.81935,-1.65163 -1.86916,-1.63747 -1.86916,0.53126 0,1.22546 2.36442,5.68419 5.25427,9.90828 l 5.25427,7.68017 2.12805,-2.48173 c 2.11889,-2.47105 2.14254,-2.47481 5.49339,-0.8719 z m -66.58053,-26.94047 c 0.31109,-20.968554 0.26933,-21.555627 -1.54945,-21.780349 -1.02804,-0.127021 -1.4486,-0.02768 -0.93458,0.220746 0.59723,0.288648 0.82285,8.489002 0.62505,22.717843 -0.20415,14.68535 0.006,21.94697 0.61487,21.32865 0.53581,-0.5434 1.05879,-9.99619 1.24411,-22.48689 z M 22.429907,123.82668 c 0,-1.50471 -0.260019,-3.41554 -0.57782,-4.2463 -0.519145,-1.3571 -0.705929,-1.34109 -1.839435,0.15769 -0.69389,0.9175 -1.274993,2.82834 -1.291341,4.24631 -0.02264,1.96305 0.416202,2.57812 1.839437,2.57812 1.442149,0 1.869159,-0.625 1.869159,-2.73582 z m 42.305848,-4.06105 c -0.604379,-4.75019 -0.485304,-4.52842 -1.945466,-3.62317 -0.645851,0.40041 -1.424679,2.2759 -1.730731,4.16778 -0.518278,3.20374 -0.393858,3.43976 1.813341,3.43976 2.244467,0 2.342989,-0.21072 1.862856,-3.98437 z M 505.96384,114.375 c -2.72026,-4.12344 -4.09467,-4.7528 -4.09467,-1.875 0,2.20846 3.13013,5.625 5.15344,5.625 1.08733,0 0.84207,-0.86866 -1.05877,-3.75 z M 26.166063,112.5 c 0.968554,0 2.043577,0.45863 2.388938,1.01918 2.162264,3.50955 3.715305,-6.16277 2.786144,-17.352089 l -0.668103,-8.045554 -2.378445,1.876731 c -3.171448,2.502458 -3.707586,2.395672 -5.874933,-1.170143 -2.081095,-3.42391 -2.22316,-2.955114 -0.87788,2.896892 0.643323,2.798467 0.607325,6.541389 -0.115299,11.988543 -0.577854,4.35588 -0.775569,9.01919 -0.439368,10.36291 l 0.611275,2.44313 1.403331,-2.00981 C 23.773555,113.40441 25.197509,112.5 26.166063,112.5 Z m 42.586525,-3.75 c 1.193204,0 2.771882,0.86276 3.508173,1.91725 1.172591,1.67934 1.41111,1.72799 1.922153,0.39208 0.320894,-0.83885 0.583442,-5.24806 0.583442,-9.79824 0,-7.856099 -0.09575,-8.247935 -1.89989,-7.774668 -2.230996,0.585244 -5.576745,-2.087179 -5.576745,-4.454431 0,-0.888199 0.735981,-2.173561 1.635514,-2.85636 1.391377,-1.05614 1.46113,-1.045286 0.467289,0.07271 -1.592486,1.791423 -1.467772,4.210199 0.292649,5.675784 1.204591,1.002846 2.229306,0.949664 5.841122,-0.303146 5.024124,-1.74269 14.899418,-3.346443 26.267455,-4.265849 4.32767,-0.350008 8.01542,-1.081836 8.19498,-1.626285 0.17956,-0.54445 -1.17349,-1.707431 -3.00679,-2.584403 -3.10538,-1.485473 -4.40056,-1.495717 -18.942657,-0.149836 -8.585157,0.794563 -16.30293,1.55416 -17.150607,1.687994 -2.507477,0.395885 -4.533535,2.580991 -4.533535,4.889418 0,1.185215 -0.85312,5.758249 -1.895822,10.162305 -1.132573,4.783645 -1.637013,9.041775 -1.252968,10.576705 l 0.642854,2.56934 1.36696,-2.06518 c 0.755679,-1.14167 2.33711,-2.06519 3.536423,-2.06519 z M 110.05195,97.265625 c -0.59117,-1.803281 -7.04582,-5.11852 -11.2915,-5.799553 -2.094346,-0.335946 -4.317337,-1.03493 -4.939991,-1.553298 -1.058342,-0.881092 -16.722739,1.186077 -17.894463,2.361462 -0.59953,0.601404 2.431768,1.204383 12.001353,2.387286 4.411443,0.545297 9.878736,1.576265 12.149531,2.291025 5.42758,1.708406 10.48455,1.867125 9.97507,0.313078 z m 140.04709,72.141695 c -0.91305,-0.66972 -1.94891,-2.63425 -2.30191,-4.36562 -0.6181,-3.03163 -0.70399,-3.08557 -2.32444,-1.46005 -1.10935,1.11281 -1.49433,2.44052 -1.12996,3.89688 0.61382,2.4533 -0.82533,3.06314 -1.71854,0.72823 -1.07384,-2.80713 0.48587,-5.86246 3.79744,-7.43881 l 3.26163,-1.55258 -3.85097,-3.30657 c -5.08721,-4.36807 -8.39053,-11.08655 -9.07706,-18.46142 -0.52006,-5.58662 -0.40178,-6.06097 2.25511,-9.04385 2.74278,-3.0793 2.88669,-3.12312 6.5953,-2.00852 2.579,0.7751 6.95094,4.00541 13.67229,10.10207 5.43452,4.92945 9.88095,9.19239 9.88095,9.47323 0,0.28082 -3.89018,-3.05853 -8.64486,-7.42079 -10.5982,-9.72352 -13.08114,-11.39999 -15.66541,-10.5772 -2.64222,0.84123 -4.21312,4.37093 -2.9706,6.67472 0.52185,0.96757 4.60755,3.86858 9.07934,6.44671 4.47178,2.57812 9.4687,5.95312 11.10425,7.5 1.63555,1.54687 2.55573,2.49609 2.04485,2.10937 C 263.59556,150.31641 260.33256,150 256.85531,150 c -5.4819,0 -6.46297,0.26376 -7.38095,1.98437 -0.84158,1.57744 -0.75666,2.28736 0.41413,3.46181 1.34072,1.3449 2.02307,1.28257 7.60718,-0.69495 3.37389,-1.19481 6.339,-1.96708 6.58913,-1.71617 0.25013,0.25091 -1.39216,0.97494 -3.64954,1.60894 l -4.10433,1.15273 2.20837,2.21528 c 5.84939,5.86766 -1.83396,16.24106 -8.44026,11.39531 z m 9.53551,-6.06487 c 0.30843,-3.11851 -2.69677,-7.21963 -4.78642,-6.53187 -2.08505,0.68624 -1.84209,5.44188 0.40037,7.83632 2.66114,2.8415 4.01583,2.43861 4.38605,-1.30445 z m -10.54745,-7.69343 c -1.56374,-1.73331 -1.57157,-2.00151 -0.12331,-4.21875 0.85062,-1.30227 2.16774,-2.36777 2.92691,-2.36777 1.7759,0 1.74614,-0.29292 -0.47315,-4.65668 -1.01942,-2.00447 -2.68025,-3.90771 -3.69073,-4.22943 -2.67206,-0.85073 -7.5399,-5.67353 -7.5399,-7.47013 0,-0.84782 1.03229,-2.57699 2.29397,-3.84262 2.05644,-2.06287 2.11185,-2.30114 0.53512,-2.30114 -0.96737,0 -2.67654,1.16016 -3.79816,2.57812 -1.76711,2.23402 -1.96856,3.3539 -1.50925,8.39038 0.624,6.84241 3.9281,13.97198 8.11155,17.50313 3.41265,2.88053 5.69919,3.31089 3.26695,0.61489 z m 12.59515,-6.98485 c 0,-0.21909 -2.27791,-1.63596 -5.06201,-3.14861 l -5.06201,-2.75027 1.49678,3.14861 c 1.31229,2.76049 1.93625,3.1486 5.06201,3.1486 1.96088,0 3.56523,-0.17925 3.56523,-0.39833 z m 59.29644,-20.85087 c -0.7201,-5.87143 -1.98696,-7.64591 -3.74087,-5.2398 -0.60174,0.8255 -2.93903,2.05433 -5.19398,2.73072 -4.87804,1.46323 -5.50178,1.5134 -5.50178,0.44262 0,-0.44862 1.90952,-1.35197 4.24339,-2.00745 5.10369,-1.43341 5.82076,-2.65621 5.49145,-9.36439 -0.25421,-5.17838 -3.16897,-19.248488 -4.40215,-21.250042 -1.31375,-2.132349 -11.74517,-7.327506 -28.19422,-14.041576 -13.65426,-5.573302 -17.48539,-7.552704 -20.53052,-10.607354 -2.8686,-2.877563 -3.48691,-4.013071 -2.64506,-4.857549 0.84185,-0.844478 2.80099,-0.434057 8.38098,1.755728 4.00526,1.571808 15.39995,5.456218 25.32152,8.63202 14.69303,4.703098 18.68131,6.356082 21.50068,8.911173 4.01264,3.636514 9.51636,14.121397 10.23541,19.49901 0.28417,2.12526 1.43514,4.65009 2.69667,5.91558 3.0908,3.10045 3.0487,9.0278 -0.0865,12.17277 -1.70937,1.71471 -2.37417,3.53991 -2.63085,7.22301 -0.18891,2.71066 -0.42128,0.0344 -0.51636,-5.94725 C 325.21216,109.55343 324.11977,105 321.38077,105 c -2.82482,0 -4.08534,4.44476 -2.31602,8.16666 1.41866,2.98426 3.84896,18.84804 3.01554,19.68405 -0.23694,0.23768 -0.73266,-2.02915 -1.1016,-5.03741 z m 8.01445,-18.08611 c -0.56184,-1.05308 -1.59754,-1.91469 -2.30157,-1.91469 -1.80182,0 -0.79457,7.57665 1.22166,9.18941 1.34641,1.07698 1.55989,0.83338 1.81373,-2.06969 0.15823,-1.80968 -0.17198,-4.15195 -0.73382,-5.20503 z m -8.0034,-5.52395 c 0.98115,-0.18955 2.3847,0.43953 3.11899,1.39794 2.62078,3.42068 0.63061,-6.530127 -2.5768,-12.883992 -4.19041,-8.301173 -4.74037,-8.873478 -6.03121,-6.27623 -0.57836,1.163713 -1.9407,2.560505 -3.02742,3.103984 -1.90945,0.954941 -1.92002,1.0573 -0.31447,3.046254 0.91374,1.131961 2.15345,4.892801 2.75491,8.357424 1.3394,7.7154 1.81767,8.57796 3.20664,5.78323 0.597,-1.20119 1.88821,-2.33907 2.86936,-2.52861 z M 313.83178,87.9375 c 2.00921,-2.015483 1.30153,-5.296413 -1.4486,-6.716042 -1.41355,-0.729681 -10.14019,-3.738074 -19.39252,-6.685318 -9.25234,-2.947244 -20.08942,-6.642463 -24.0824,-8.211596 -3.99299,-1.569134 -7.54673,-2.565325 -7.8972,-2.213757 -0.35048,0.351567 0.83115,2.112171 2.62582,3.912453 2.4752,2.482939 7.38744,4.953006 20.3453,10.230423 9.39524,3.82645 18.41986,7.816698 20.05471,8.867216 3.31905,2.132741 8.08663,2.530225 9.79489,0.816621 z m 91.46418,42.6875 c -1.37977,-1.38408 -0.47873,-2.11167 1.99938,-1.6145 5.75307,1.15421 5.66584,-6.72392 -0.0976,-8.81452 -2.22811,-0.80821 -4.38651,-2.97895 -7.48472,-7.5275 -4.91359,-7.21377 -2.7711,-6.13225 -38.00369,-19.184284 -12.41309,-4.598478 -16.16774,-6.418495 -19.39252,-9.400283 -6.35883,-5.879685 -5.06367,-8.729806 2.27433,-5.004866 2.46086,1.24919 11.98379,4.232814 21.16207,6.630274 23.2119,6.063182 32.60733,9.826485 40.09245,16.058859 3.32621,2.76951 6.57689,6.31716 7.22373,7.88365 0.64684,1.56649 1.67539,2.84817 2.28568,2.84817 2.36533,0 17.11978,-5.90842 21.51778,-8.6168 3.3997,-2.0936 5.01376,-2.60823 6.07476,-1.93688 2.95999,1.87295 1.1694,3.40655 -9.52777,8.16025 -6.03498,2.68188 -11.25438,5.1587 -11.59864,5.50405 -0.34426,0.34533 0.0159,1.36875 0.80045,2.27426 2.38647,2.75454 2.87593,6.72767 1.15363,9.36445 -1.39553,2.1365 -1.97494,2.31204 -6.03793,1.82934 -3.41661,-0.40591 -4.61834,-0.2096 -5.01171,0.8187 -0.52514,1.37275 -6.22963,1.93143 -7.42968,0.72763 z m 16.52938,-9.53533 c 1.45314,-1.61072 1.43969,-1.82685 -0.20668,-3.32146 -1.66007,-1.50704 -1.95761,-1.50456 -5.19366,0.0434 l -3.43271,1.64206 2.14872,1.65855 c 2.76537,2.13454 4.74428,2.12785 6.68433,-0.0226 z m -1.02397,-6.09796 c 5.77888,-2.75458 13.34583,-6.22345 16.81546,-7.70863 3.46962,-1.48516 6.30841,-3.04155 6.30841,-3.45862 0,-1.96419 -3.01211,-1.49101 -7.28085,1.14377 -5.77104,3.56206 -22.84068,9.62492 -24.88396,8.83838 -1.81356,-0.69809 -6.15295,1.97703 -6.15295,3.79313 0,1.31187 1.32323,2.18842 3.51165,2.32624 0.64635,0.0407 5.90336,-2.17971 11.68224,-4.93427 z m -9.0634,-2.0927 2.34513,0.59043 -1.80251,-3.5416 c -1.65636,-3.25441 -6.22528,-7.64197 -12.22376,-11.738537 -3.15759,-2.156428 -3.79514,-2.070844 -3.79514,0.509447 0,2.70348 -1.669,4.43424 -4.15888,4.3128 -1.60264,-0.0782 -1.53387,-0.19916 0.42056,-0.73997 1.74731,-0.4835 2.40791,-1.37345 2.61986,-3.529424 0.2737,-2.784178 0.054,-2.96819 -6.41331,-5.372906 -3.68319,-1.369497 -14.11447,-4.427572 -23.18061,-6.795721 -9.06614,-2.368149 -18.46757,-5.31267 -20.89207,-6.543378 -5.14447,-2.611401 -5.4049,-2.656717 -5.4049,-0.94049 0,0.713437 1.60436,2.751124 3.56523,4.528191 2.64104,2.39348 7.54686,4.706051 18.92523,8.921223 35.18052,13.032795 33.32114,12.106265 38.09817,18.984395 l 4.24547,6.11278 2.6532,-2.67383 c 2.04053,-2.05641 3.19473,-2.5375 4.99833,-2.08341 z M 27.70155,46.677809 C 27.386277,45.497201 27.122584,41.261719 27.115566,37.265625 27.108547,33.269531 26.721777,30 26.256077,30 c -1.089944,0 -3.876349,7.682537 -4.760349,13.125 -0.651834,4.013107 -0.691323,4.057148 -0.810108,0.903516 -0.160249,-4.254452 3.753032,-14.497266 5.538698,-14.497266 1.046361,0 1.463367,2.085797 1.874307,9.375 0.56445,10.012135 0.50612,11.153771 -0.397075,7.771559 z"
       id="path3498"
       inkscape:connector-curvature="0" />
  </g>
</svg>
