<?xml version="1.0" encoding="UTF-8" standalone="no"?>
<!-- Created with Inkscape (http://www.inkscape.org/) -->

<svg
   xmlns:dc="http://purl.org/dc/elements/1.1/"
   xmlns:cc="http://creativecommons.org/ns#"
   xmlns:rdf="http://www.w3.org/1999/02/22-rdf-syntax-ns#"
   xmlns:svg="http://www.w3.org/2000/svg"
   xmlns="http://www.w3.org/2000/svg"
   xmlns:sodipodi="http://sodipodi.sourceforge.net/DTD/sodipodi-0.dtd"
   xmlns:inkscape="http://www.inkscape.org/namespaces/inkscape"
   version="1.1"
   width="671"
   height="241"
   id="svg2"
   inkscape:version="0.91 r13725"
   sodipodi:docname="ub720401.svg">
  <sodipodi:namedview
     pagecolor="#bcbcbc"
     bordercolor="#666666"
     borderopacity="1"
     objecttolerance="10"
     gridtolerance="10"
     guidetolerance="10"
     inkscape:pageopacity="0"
     inkscape:pageshadow="2"
     inkscape:window-width="1340"
     inkscape:window-height="785"
     id="namedview11"
     showgrid="false"
     inkscape:zoom="1"
     inkscape:cx="286.16031"
     inkscape:cy="125.2988"
     inkscape:window-x="0"
     inkscape:window-y="0"
     inkscape:window-maximized="0"
     inkscape:current-layer="svg2" />
  <metadata
     id="metadata8">
    <rdf:RDF>
      <cc:Work
         rdf:about="">
        <dc:format>image/svg+xml</dc:format>
        <dc:type
           rdf:resource="http://purl.org/dc/dcmitype/StillImage" />
        <dc:title></dc:title>
      </cc:Work>
    </rdf:RDF>
  </metadata>
  <defs
     id="defs6" />
  <g
     id="g5439"
     transform="translate(-2.4181916e-6,-10)">
    <path
       inkscape:connector-curvature="0"
       id="path5199"
       d="m 152.20298,67.895054 c -0.64455,-0.21129 -6.10191,9.2619 -12.46875,21.64063 l -11.32421,22.015616 -2.12696,-6.21679 c -3.37699,-9.868606 -5.11289,-13.436346 -7.08985,-14.568356 -1.75156,-1.00295 -1.7313,-1.1352 0.40625,-2.65821 1.85836,-1.32407 2.25,-2.54496 2.25,-7.01171 0,-4.32339 -0.38729,-5.61581 -1.93359,-6.44336 -2.53948,-1.35914 -8.76723,-1.33033 -9.61719,0.0449 -0.36746,0.59456 -1.65696,0.83301 -2.86718,0.5293 -1.83231,-0.45991 -2.42419,0.0712 -3.53321,3.16992 -0.7325,2.04668 -1.54076,4.2832 -1.79687,4.9707 -0.25612,0.6875 -0.002,1.25 0.56445,1.25 0.56619,0 1.59963,-1.6875 2.29688,-3.75 l 1.26757,-3.75 0.84375,4.12695 c 0.46431,2.26935 1.68864,4.8902 2.72071,5.82422 1.73922,1.57397 1.76142,1.89728 0.3125,4.42188 -1.47656,2.57275 -1.35998,3.34427 2.08984,13.929676 4.1278,12.66573 4.38124,14.91116 1.90234,16.83789 -1.59772,1.2419 -1.61135,1.46855 -0.14648,2.61329 0.88247,0.68961 1.89581,2.16725 2.25,3.2832 0.71078,2.23948 7.79842,36.19327 13.24805,63.46289 1.92347,9.625 3.73079,18.2875 4.01562,19.25 0.48527,1.63979 -1.40642,1.75 -30.04883,1.75 -16.81206,2e-5 -30.568355,-0.14392 -30.568355,-0.32029 0,-0.6393 -7.849151,-39.25229 -8.523438,-41.92969 l -0.693359,-2.75 18.607422,0 c 11.459029,0 18.60937,-0.37631 18.60937,-0.97852 0,-0.59269 -7.365853,-1.08516 -18.699214,-1.25 l -18.701172,-0.27148 -3.748047,-17.5 c -2.061832,-9.625 -3.498076,-18.51204 -3.191406,-19.75 0.532453,-2.14939 0.687113,-2.08661 3.462891,1.40625 1.59873,2.01174 3.890829,5.27378 5.091797,7.25 1.200969,1.97622 5.024412,7.49036 8.498047,12.25391 5.483486,7.51975 6.932975,8.87142 10.996093,10.25586 6.771613,2.30733 7.716693,0.64278 2.650391,-4.66993 C 84.921915,151.96564 79.309489,142.94626 74.312356,133.63724 62.365946,111.38258 63.053543,112.94074 60.331887,101.91459 58.628931,95.015424 57.264055,91.588564 55.718606,90.326694 l -2.195313,-1.79296 2.164063,-1.51368 c 3.01389,-2.11101 3.179363,-11.78794 0.228515,-13.36718 -2.539485,-1.35914 -8.767236,-1.33033 -9.617187,0.0449 -0.367462,0.59456 -1.656959,0.83301 -2.867188,0.5293 -1.832307,-0.45991 -2.424189,0.0712 -3.533203,3.16992 -0.732498,2.04668 -1.54076,4.2832 -1.796875,4.9707 -0.256115,0.6875 -0.0017,1.25 0.564453,1.25 0.56619,0 1.599631,-1.6875 2.296875,-3.75 l 1.267578,-3.75 0.84375,4.12695 c 0.464301,2.26936 1.688629,4.8902 2.720703,5.82422 1.746341,1.58041 1.766035,1.88841 0.292969,4.45508 -1.495462,2.60569 -1.409991,3.27805 1.552735,12.175776 4.398717,13.21033 4.985757,17.60759 2.59375,19.45899 -1.713252,1.32605 -1.73998,1.57295 -0.28125,2.71289 0.882466,0.68961 1.895813,2.16725 2.25,3.2832 0.710784,2.23948 7.798403,36.19327 13.248046,63.46289 1.923488,9.625 3.727053,18.27689 4.007813,19.22656 0.467835,1.58246 -0.976448,1.75236 -17.298828,2.02539 -9.795493,0.16387 130.014448,0.30357 310.689448,0.31057 11.45372,4.5e-4 21.00644,-0.005 32.12892,-0.006 l 0,-0.56641 c -16.92099,-0.0259 -30.12892,-0.1526 -30.12892,-0.3104 0,-0.6393 -7.84915,-39.25229 -8.52343,-41.92969 l -0.69336,-2.75 8.10742,0 c 4.73894,0 8.10937,-0.41555 8.10937,-1 0,-0.58654 -3.4399,-1 -8.32031,-1 l -8.32031,0 -2.17579,-11.25 c -1.19645,-6.1875 -2.79116,-14.0346 -3.54297,-17.4375 -0.75181,-3.4029 -1.01236,-6.5529 -0.58007,-7 0.43229,-0.4471 0.54289,-2.05 0.24609,-3.5625 -0.40815,-2.07985 -1.12122,-2.75 -2.92383,-2.75 -1.45193,0 -2.38281,0.58623 -2.38281,1.5 0,0.825 -0.62417,1.5 -1.38672,1.5 -1.50246,0 -2.14061,-3.26136 -3.23047,-16.5 -0.44561,-5.4129 -1.43991,-9.55751 -3.07226,-12.816406 -4.12522,-8.23573 -4.85395,-6.00942 -4.42969,13.515626 0.2094,9.63678 -0.0156,17.75576 -0.5,18.04297 -0.48439,0.28722 -2.23086,0.81134 -3.88086,1.16406 -2.7184,0.58111 -3.01429,0.3916 -3.15234,-2.01367 -0.40468,-7.05063 -8.23569,-10.89172 -12.125,-5.94727 -1.10524,1.4051 -2.51867,2.55469 -3.14063,2.55469 -1.1744,0 -3.08203,4.06225 -3.08203,6.56445 0,2.73362 1.7534,1.42051 2.39648,-1.79492 l 0.64649,-3.23047 1.97656,3.25196 c 1.08718,1.78773 3.11922,3.77107 4.51758,4.4082 2.06989,0.94311 2.43435,1.65128 1.96094,3.80664 -1.24194,5.6545 3.54526,12.41718 11.7539,16.60547 5.48669,2.79947 9.02347,2.42369 11.40625,-1.21289 1.18657,-1.8114 1.46336,-4.49911 1.19336,-11.62696 -0.32776,-8.65297 -0.22106,-9.27148 1.60352,-9.27148 1.58456,0 2.18951,1.13676 3.19726,6 0.68381,3.3 4.18604,20.4 7.78125,38 3.59521,17.6 6.77659,33.0125 7.07032,34.25 l 0.53515,2.25 -37.51953,0 c -20.63548,0 -37.51953,-0.14394 -37.51953,-0.32031 0,-0.6393 -7.84915,-39.25229 -8.52343,-41.92969 l -0.69337,-2.75 16.10743,0 c 9.79949,0 16.10937,-0.38133 16.10937,-0.97461 0,-0.58209 -6.51776,-1.08599 -16.16797,-1.25 -10.13303,-0.17221 -16.29758,-0.66616 -16.51562,-1.32227 -0.19134,-0.57576 1.86594,-1.84322 4.57226,-2.8164 5.88635,-2.1167 8.01105,-4.2462 8.74414,-8.76367 0.94826,-5.84345 -4.50426,-10.86818 -13.39648,-12.34571 -5.43864,-0.90369 -6.27805,-2.56543 -4.95117,-9.80468 1.20569,-6.57812 0.55545,-7.8324 -3.64063,-7.00977 -2.69372,0.5281 -2.82136,0.7794 -2.23828,4.42578 0.39282,2.45653 0.0815,5.15411 -0.85547,7.39649 l -1.47461,3.52734 -6.78906,-0.58984 c -3.73327,-0.32472 -9.71211,-0.9973 -13.28711,-1.4961 -8.44412,-1.17819 -14.5,-0.14451 -14.5,2.47656 0,2.12834 1.31475,2.56626 13.72461,4.57227 l 7.72266,1.24805 -2.47266,2.93945 c -2.87758,3.4198 -3.15006,6.38464 -0.82031,8.95899 1.09618,1.21126 1.242,1.82812 0.42968,1.82812 -0.67453,0 -1.91442,0.68591 -2.7539,1.52539 -1.36842,1.36844 -1.35744,1.78222 0.0957,4 0.89145,1.36052 2.07107,2.47461 2.6211,2.47461 0.54999,0 0.26655,-1.11771 -0.62891,-2.48438 -1.57017,-2.39637 -1.53856,-2.52016 0.91015,-3.45117 1.64263,-0.62453 4.4164,-0.61431 7.85547,0.0293 2.92378,0.54718 8.01641,1.4709 11.31641,2.05078 3.3,0.57987 6.1328,1.17853 6.29492,1.33203 0.16213,0.1535 2.29213,10.12281 4.73438,22.15235 2.44225,12.02954 4.681,22.88359 4.97461,24.12109 l 0.53515,2.25 -46.01953,0 c -25.31048,0 -46.01953,-0.14394 -46.01953,-0.32031 0,-0.6393 -7.84915,-39.25229 -8.52343,-41.92969 l -0.69337,-2.75 20.60742,0 c 13.07227,0 20.60938,-0.36568 20.60938,-1 0,-0.62946 -6.64033,-1 -17.91991,-1 l -17.91797,0 0.81445,-3.25 c 0.44795,-1.7875 1.37164,-6.7266 2.05468,-10.97461 l 1.24219,-7.72266 2.93945,2.47266 c 3.4198,2.87758 6.38462,3.15006 8.95899,0.82031 1.21126,-1.09618 1.82812,-1.242 1.82812,-0.42968 0,0.67453 0.68595,1.9144 1.52539,2.7539 1.36844,1.36842 1.78222,1.35744 4,-0.0957 1.36052,-0.89145 2.47461,-2.07109 2.47461,-2.6211 0,-0.54998 -1.11771,-0.26655 -2.48437,0.62891 -2.39637,1.57017 -2.52016,1.53856 -3.45117,-0.91015 -0.62643,-1.64776 -0.61008,-4.40566 0.0449,-7.85547 3.24796,-17.10669 3.29569,-18.38625 0.92968,-24.71289 -2.59817,-6.94744 -4.51448,-8.98149 -9.16601,-9.73633 -5.77579,-0.93728 -10.86957,4.50665 -12.30469,13.15234 -1.09672,6.60708 -1.3427,6.7561 -8.93359,5.35742 -7.94724,-1.46434 -9.01746,-0.851 -7.58204,4.34766 1.09073,3.95031 7.89429,36.48051 13.54883,64.77539 1.92348,9.625 3.7308,18.2875 4.01563,19.25 0.48389,1.63516 -1.19213,1.75 -25.54884,1.75 -14.33704,0 -26.06833,-0.14394 -26.06833,-0.32031 0,-0.6393 -7.84912,-39.25233 -8.52343,-41.92969 l -0.69336,-2.75 15.60741,0 c 20.90464,0 20.828,-1.85766 -0.0918,-2.22461 l -15.69921,-0.27539 -3.76367,-17.5 c -2.07012,-9.625 -3.59682,-18.175 -3.39258,-19 0.20425,-0.825 0.67398,-2.84872 1.04493,-4.49805 0.61136,-2.71835 0.7943,-2.83601 1.95117,-1.2539 1.97218,2.69712 6.74449,3.25649 9.24218,1.08398 2.35949,-2.05229 18.93177,-38.507136 20.4668,-45.021476 1.18428,-5.02585 0.78898,-10.51397 -0.79492,-11.03321 z m 45.0293,54.722656 c 0.21084,0 0.61859,0.9 0.90625,2 0.28765,1.1 0.1157,2 -0.38282,2 -0.49851,0 -0.90625,-0.9 -0.90625,-2 0,-1.1 0.17197,-2 0.38282,-2 z m -20.50976,4.65625 c 0.73473,0.0337 1.91744,0.42281 3.96484,1.18945 l 4.66211,1.7461 -0.31055,7.45508 c -0.17043,4.09969 -0.73003,9.92812 -1.24414,12.95312 -0.56077,3.29951 -0.57571,7.3004 -0.0391,10 l 0.89453,4.5 -0.10547,-6 c -0.10162,-5.79524 1.92308,-27.45043 2.63281,-28.16016 0.19164,-0.19163 1.79744,0.15736 3.57032,0.77539 2.33464,0.81386 3.0551,1.56426 2.61133,2.72071 -0.61788,1.61016 -3.80447,18.04362 -5.02539,25.91406 -0.36261,2.3375 -1.03357,4.25 -1.49024,4.25 -0.45667,0 -1.53896,0.27146 -2.4043,0.60352 -0.88508,0.33964 -1.77569,0.0115 -2.03515,-0.75 -1.62257,-4.76239 -7.42922,-35.01755 -6.95703,-36.24805 0.25373,-0.66121 0.54065,-0.98288 1.27539,-0.94922 z m 18.99804,5.75586 c 0.18387,0.0199 0.35233,0.14089 0.49218,0.36719 0.3377,0.5464 -0.0561,1.5508 -0.875,2.23047 -1.6259,1.34938 -1.9644,0.28984 -0.59765,-1.86719 0.3264,-0.5151 0.67404,-0.76358 0.98047,-0.73047 z m 135.07032,2.84961 c 0.36932,-0.0334 0.6585,0.004 0.77733,0.12305 0.23767,0.23766 0.28632,1.6981 0.10742,3.24609 l -0.32617,2.81445 -1.71289,-2.6289 c -1.55792,-2.39322 -1.56615,-2.68753 -0.10547,-3.24805 0.44153,-0.16943 0.89044,-0.27329 1.25977,-0.30664 z m -72.21875,10.7832 c 0.0697,-0.007 0.15046,-0.006 0.24023,0.006 0.43082,0.0548 1.08564,0.32735 1.89452,0.83984 0.82416,0.52222 0.96675,1.0997 0.36329,1.47266 -0.5464,0.33769 -1.55081,-0.0561 -2.23048,-0.875 -0.73793,-0.88917 -0.75583,-1.39251 -0.26756,-1.44336 z m 10.77733,2.95508 c 0.825,0 1.5,0.17643 1.5,0.39258 0,0.21616 -0.675,0.65216 -1.5,0.96875 -0.82499,0.31658 -1.5,0.14015 -1.5,-0.39258 0,-0.53274 0.67501,-0.96875 1.5,-0.96875 z"
       style="fill:#000000" />
    <path
       id="path5057"
       d="m 184.43951,159.58497 c -0.36719,-2.768 -0.44074,-5.39984 -0.16344,-5.84852 0.27731,-0.44868 0.965,-5.67919 1.52821,-11.62335 0.56322,-5.94416 1.18081,-10.96436 1.37245,-11.15599 0.19163,-0.19163 1.79895,0.15724 3.57183,0.77527 2.33464,0.81386 3.05447,1.56394 2.6107,2.72039 -0.61788,1.61016 -3.80538,18.0445 -5.0263,25.91494 -0.91836,5.91999 -3.06146,5.48914 -3.89345,-0.78274 z"
       style="fill:#fefefe"
       inkscape:connector-curvature="0" />
    <path
       id="path5055"
       d="m 260.29086,160.19851 c -1.76335,-1.28938 -1.81736,-1.72385 -0.59046,-4.75 0.74271,-1.83194 2.38682,-6.7058 3.65355,-10.8308 3.99756,-13.0176 4.09334,-13.16754 4.91428,-7.6931 0.4061,2.70808 0.22205,7.10629 -0.42852,10.24005 -0.6272,3.02121 -0.84178,6.85253 -0.47685,8.51404 1.12993,5.14457 -2.79076,7.65034 -7.07201,4.51981 z"
       style="fill:#fefefe"
       inkscape:connector-curvature="0" />
    <path
       id="path5053"
       d="m 84.139984,157.81333 c -4.497177,-1.81151 -6.684299,-4.33023 -17.102568,-19.69562 -3.356273,-4.95 -6.974941,-10.09724 -8.041484,-11.43832 -1.066542,-1.34107 -1.687584,-3.14107 -1.380092,-4 0.88238,-2.46478 4.283259,-7.06168 5.224368,-7.06168 0.470005,0 5.163701,8.01108 10.430435,17.80241 5.434532,10.10327 11.090185,19.27013 13.077351,21.19616 5.379594,5.21411 4.81804,6.0272 -2.20801,3.19705 z"
       style="fill:#fefefe"
       inkscape:connector-curvature="0" />
    <path
       id="path5051"
       d="m 252.42089,155.04628 c -1.90147,-1.90147 -1.96655,-4.32427 -0.17938,-6.67857 1.71585,-2.26035 2.75972,-2.20506 5.96467,0.31595 2.51518,1.97844 2.56216,2.19025 1.10917,5 -1.68368,3.2559 -4.45372,3.80337 -6.89446,1.36262 z"
       style="fill:#fefefe"
       inkscape:connector-curvature="0" />
    <path
       id="path5049"
       d="m 278.40116,151.18711 c -3.96355,-1.2256 -4.06495,-1.37549 -5.87466,-8.68469 l -0.64752,-2.61528 5.23525,1.25708 c 7.55876,1.815 8.19057,2.19214 9.50466,5.67358 2.06094,5.46005 -0.42163,6.78001 -8.21773,4.36931 z"
       style="fill:#fefefe"
       inkscape:connector-curvature="0" />
    <path
       id="path5047"
       d="m 333.06696,151.36771 c -0.64012,-0.77882 -0.78051,-4.23953 -0.37244,-9.18101 0.63811,-7.72723 0.73073,-7.9512 3.60467,-8.71693 1.62236,-0.43226 3.19014,-0.54552 3.48397,-0.25169 0.29383,0.29382 0.69968,3.81032 0.90186,7.81443 0.35055,6.94165 0.24038,7.3803 -2.36882,9.4327 -3.16864,2.49245 -3.84663,2.60902 -5.24924,0.9025 z"
       style="fill:#fefefe"
       inkscape:connector-curvature="0" />
    <path
       id="path5043"
       d="m 268.86477,146.36771 c 0.0124,-1.81944 0.20082,-1.96296 0.98469,-0.75 1.25292,1.93876 1.25292,3 0,3 -0.55,0 -0.99311,-1.0125 -0.98469,-2.25 z"
       style="fill:#fefefe"
       inkscape:connector-curvature="0" />
    <path
       id="path5039"
       d="m 259.71051,146.14543 c -0.45531,-0.45531 -16.86958,-3.68818 -25.61105,-5.04422 -5.91999,-0.91836 -5.48913,-3.06146 0.78274,-3.89345 2.768,-0.36719 5.39984,-0.44074 5.84852,-0.16344 0.44868,0.27731 5.67919,0.965 11.62335,1.52821 5.94416,0.56322 10.96436,1.18081 11.15599,1.37245 0.19163,0.19163 -0.14763,1.77139 -0.75392,3.51057 -1.037,2.97476 -1.95234,3.78317 -3.04563,2.68988 z"
       style="fill:#fefefe"
       inkscape:connector-curvature="0" />
    <path
       id="path5037"
       d="m 195.59946,142.22566 c -2.26034,-1.71585 -2.20506,-2.75972 0.31595,-5.96467 1.97844,-2.51517 2.19025,-2.56216 5,-1.10917 3.2559,1.68368 3.80337,4.45372 1.36262,6.89446 -1.90147,1.90147 -4.32427,1.96655 -6.67857,0.17938 z"
       style="fill:#fefefe"
       inkscape:connector-curvature="0" />
    <path
       id="path5033"
       d="m 320.04946,138.41771 c -1.812,-1.812 -1.45015,-3.59576 1.05,-5.17616 2.85226,-1.80297 21.3515,-5.98816 22.72272,-5.1407 2.05507,1.2701 0.92899,2.30292 -3.72272,3.41438 -5.43954,1.29971 -14.12182,4.99978 -16.07143,6.84905 -1.64886,1.56401 -2.45714,1.57486 -3.97857,0.0534 z"
       style="fill:#fefefe"
       inkscape:connector-curvature="0" />
    <path
       id="path5029"
       d="m 198.84946,133.58531 c -2.47499,-1.02882 -8.48841,-3.1133 -13.36314,-4.63216 -4.87473,-1.51887 -9.08538,-3.34069 -9.35699,-4.04851 -0.27161,-0.70781 -1.68319,-1.33913 -3.13685,-1.40293 -1.63435,-0.0717 -1.98745,-0.28816 -0.92527,-0.56711 0.94476,-0.24811 7.56457,0.72779 14.7107,2.16868 7.95825,1.60464 14.2924,2.37602 16.34639,1.99069 4.37366,-0.8205 6.50558,1.39725 5.12708,5.33349 -1.16447,3.32504 -3.49729,3.61233 -9.40192,1.15785 z"
       style="fill:#fefefe"
       inkscape:connector-curvature="0" />
    <path
       id="path5027"
       d="m 317.9778,132.34604 c -1.82784,-1.82783 -1.29737,-5.49273 1.12166,-7.74939 l 2.25,-2.09897 1.23523,3.01675 c 1.41424,3.454 1.00671,5.15884 -1.6262,6.80312 -1.37536,0.85893 -2.14292,0.86626 -2.98069,0.0285 z"
       style="fill:#fefefe"
       inkscape:connector-curvature="0" />
    <path
       id="path5025"
       d="m 270.44502,128.11771 c 0.83062,-4.96072 1.40931,-5.75916 1.38913,-1.91667 -0.008,1.60417 -0.47512,3.59167 -1.0371,4.41667 -0.73213,1.07477 -0.83192,0.36606 -0.35203,-2.5 z"
       style="fill:#fefefe"
       inkscape:connector-curvature="0" />
    <path
       id="path5023"
       d="m 332.84946,118.84804 c 0,-5.46071 -0.29102,-13.37147 -0.64674,-17.57945 -0.75427,-8.923076 0.33258,-9.848676 3.40623,-2.900876 1.39361,3.150186 2.47269,8.752456 3.20389,16.633706 0.6064,6.53604 0.97521,11.99597 0.81958,12.13318 -0.15563,0.13721 -1.74546,0.5628 -3.53296,0.94575 l -3.25,0.69627 0,-9.92858 z"
       style="fill:#fefefe"
       inkscape:connector-curvature="0" />
    <path
       id="path5019"
       d="m 189.59946,124.90146 c -3.16216,-0.47903 -3.09359,-0.1014 -1.32257,-7.28375 1.94556,-7.89028 2.27865,-8.45058 5.81794,-9.78651 2.61865,-0.98843 3.44998,-0.94673 4.6289,0.23221 1.24936,1.24936 1.13737,2.4894 -0.85757,9.49566 -2.4021,8.4362 -2.20454,8.26073 -8.2667,7.34239 z"
       style="fill:#fefefe"
       inkscape:connector-curvature="0" />
    <path
       id="path5017"
       d="m 49.849465,124.08494 c 0,-0.41071 0.710071,-1.26596 1.577936,-1.90056 1.383736,-1.01181 1.443978,-2.35516 0.489483,-10.91515 -0.59865,-5.36873 -1.981925,-12.303416 -3.073947,-15.410416 -2.170573,-6.175668 -1.612829,-7.864349 2.27517,-6.888523 2.334551,0.585935 2.454039,1.0712 3.583708,14.554239 0.642748,7.67145 1.445162,15.33074 1.783141,17.02064 0.525609,2.62804 0.318919,3.07254 -1.428704,3.07254 -1.123766,0 -2.755016,0.27314 -3.625,0.60699 -0.869983,0.33384 -1.581787,0.27095 -1.581787,-0.13976 z"
       style="fill:#fefefe"
       inkscape:connector-curvature="0" />
    <path
       id="path5015"
       d="m 113.84946,123.95295 c 0,-0.33811 0.71876,-1.14032 1.59724,-1.78268 1.4102,-1.03116 1.46454,-2.25924 0.4641,-10.48737 -0.62322,-5.12569 -2.01518,-11.829016 -3.09324,-14.896296 -2.15146,-6.12127 -1.57811,-7.789794 2.33894,-6.806676 2.33152,0.585174 2.48761,1.100976 3.14008,10.376782 0.37763,5.36855 1.12429,12.63072 1.65924,16.13816 0.53496,3.50744 0.84238,6.4803 0.68315,6.60636 -0.79737,0.63127 -6.78951,1.38296 -6.78951,0.85172 z"
       style="fill:#fefefe"
       inkscape:connector-curvature="0" />
    <path
       id="path5013"
       d="m 127.05383,121.98055 c -1.7624,-1.37929 -3.20437,-2.8826 -3.20437,-3.3407 0,-0.4581 1.46251,-2.60446 3.25,-4.76969 1.7875,-2.16522 7.975,-13.22313 13.75,-24.573124 5.77501,-11.349996 10.83751,-20.646024 11.25,-20.657839 1.02608,-0.02939 0.90271,6.702129 -0.20122,10.978517 -1.50131,5.815784 -18.61928,43.180126 -20.18341,44.055466 -0.95735,0.53576 -2.55496,-0.0444 -4.661,-1.69263 z"
       style="fill:#fefefe"
       inkscape:connector-curvature="0" />
    <path
       id="path5001"
       d="m 114.40655,88.031938 c -3.3775,-3.377497 -0.38587,-9.414224 4.66542,-9.414224 2.97258,0 2.45221,7.327889 -0.66542,9.370642 -2.21129,1.44889 -2.59056,1.453023 -4,0.04358 z"
       style="fill:#fefefe"
       inkscape:connector-curvature="0" />
    <path
       id="path2997"
       d="m 50.406546,87.031938 c -3.377497,-3.377497 -0.385864,-9.414224 4.665425,-9.414224 2.972576,0 2.45221,7.327889 -0.665425,9.370642 -2.211286,1.44889 -2.590559,1.453023 -4,0.04358 z"
       style="fill:#fefefe"
       inkscape:connector-curvature="0" />
    <path
       d="m 172.84946,102.82066 c 0,-1.5218 7.52199,-7.807176 11.48251,-9.594796 2.19039,-0.98865 7.25401,-2.04497 11.2525,-2.34738 6.03112,-0.45613 7.07487,-0.784926 6.12499,-1.929463 -2.50968,-3.023978 0.38921,-2.482099 3.65498,0.683213 4.1214,3.99462 4.33011,4.98548 1.05012,4.98548 -1.3392,0 -3.65161,0.46259 -5.13869,1.02798 -3.42048,1.30046 -4.54964,0.28893 -1.92484,-1.72431 1.84582,-1.41576 1.53622,-1.49449 -4.05414,-1.03097 -7.4533,0.61798 -15.69524,4.04466 -18.90594,7.860366 -2.43095,2.88902 -3.54149,3.53809 -3.54149,2.06988 z"
       id="path2993"
       style="fill:#fe0000"
       inkscape:connector-curvature="0" />
    <path
       id="path5089"
       d="m 268.76314,162.36771 c -0.0475,-0.1375 -0.21681,-2.42299 -0.37628,-5.07886 -0.20734,-3.45295 0.11448,-4.98406 1.12945,-5.37354 1.95786,-0.7513 2.10938,-0.46516 2.89678,5.47053 0.64843,4.88809 0.55415,5.23187 -1.4348,5.23187 -1.17086,0 -2.16768,-0.1125 -2.21515,-0.25 z"
       style="fill:#0000fe"
       inkscape:connector-curvature="0" />
    <path
       id="path5087"
       d="m 275.90204,157.86771 c -1.89531,-6.82472 -1.61818,-7.09896 5.1306,-5.07697 3.50856,1.05118 4.12827,0.95997 5.96641,-0.87817 1.72971,-1.72971 1.87009,-2.42293 0.89564,-4.42303 -1.09823,-2.25417 -1.07841,-2.27554 0.39961,-0.4307 3.42833,4.27917 1.17531,9.93547 -5.01432,12.58865 -2.52798,1.08362 -4.98787,1.97022 -5.46642,1.97022 -0.47855,0 -1.33873,-1.6875 -1.91152,-3.75 z"
       style="fill:#0000fe"
       inkscape:connector-curvature="0" />
    <path
       id="path5085"
       d="m 329.34946,153.48143 c -7.08161,-3.70802 -11.5,-9.27388 -11.5,-14.48659 0,-1.54915 0.16145,-1.541 1.97438,0.0997 1.83988,1.66506 2.14405,1.67562 4.46481,0.15499 3.23471,-2.11946 3.06257,-2.17406 5.4803,1.73794 1.42798,2.31049 1.90009,4.28234 1.50198,6.27298 -0.43425,2.17121 -0.0512,3.38236 1.51906,4.80345 2.06728,1.87086 2.14573,1.86618 5.07959,-0.30292 3.08252,-2.27901 3.9123,-1.74615 1.72989,1.11089 -2.03939,2.6698 -5.87926,2.89816 -10.25,0.60958 z"
       style="fill:#0000fe"
       inkscape:connector-curvature="0" />
    <path
       id="path5083"
       d="m 199.38748,125.8224 c -0.95268,-0.95268 -0.57322,-8.35515 0.63501,-12.38787 1.05118,-3.50855 0.95997,-4.12826 -0.87817,-5.9664 -1.72971,-1.72971 -2.42293,-1.87009 -4.42303,-0.89564 -2.30084,1.12097 -2.31197,1.10687 -0.37183,-0.47096 2.14664,-1.74577 7.60303,-1.47313 9.97883,0.49861 2.12273,1.76171 5.69296,12.49423 5.34427,16.06547 -0.31239,3.19936 -0.47928,3.31543 -5.03508,3.50192 -2.59159,0.10609 -4.95409,-0.0492 -5.25,-0.34513 z"
       style="fill:#0000fe"
       inkscape:connector-curvature="0" />
    <path
       id="path5081"
       d="m 123.90174,121.86771 c -2.81797,-2.6011 -3.03522,-3.37268 -4.01236,-14.25 -1.6934,-18.850487 -1.32689,-19.741149 3.34829,-8.136876 3.90679,9.697006 4.18545,12.441956 1.61591,15.917436 -1.88008,2.54295 -2.00498,3.2452 -0.89365,5.02472 0.71053,1.13774 2.21385,2.51654 3.34071,3.06399 1.12685,0.54745 1.49342,1.02583 0.81461,1.06305 -0.67883,0.0372 -2.57491,-1.16982 -4.21351,-2.68232 z"
       style="fill:#0000fe"
       inkscape:connector-curvature="0" />
    <path
       id="path5077"
       d="m 56.492931,112.86771 c -1.79437,-19.695766 -1.844527,-22.837452 -0.334974,-20.981936 0.791122,0.97243 1.97138,4.47713 2.622796,7.78821 0.651415,3.311076 1.829591,7.848836 2.618168,10.083896 1.352458,3.83328 1.30664,4.22498 -0.80784,6.90646 -1.232889,1.56349 -2.520971,2.86761 -2.862406,2.89804 -0.341434,0.0304 -0.897519,-2.98217 -1.235744,-6.69467 z"
       style="fill:#0000fe"
       inkscape:connector-curvature="0" />
    <path
       id="path5073"
       d="m 111.45073,100.27894 c -2.23074,-7.622416 -1.52191,-9.717764 0.79527,-2.350846 0.97909,3.112756 1.58515,6.228816 1.34682,6.924586 -0.23833,0.69577 -1.20227,-1.36242 -2.14209,-4.57374 z"
       style="fill:#0000fe"
       inkscape:connector-curvature="0" />
    <path
       id="path2991"
       d="m 47.450734,99.278944 c -2.230748,-7.62242 -1.52191,-9.717768 0.795271,-2.35085 0.979081,3.112756 1.585148,6.228816 1.346816,6.924586 -0.238333,0.69577 -1.202272,-1.36242 -2.142087,-4.573736 z"
       style="fill:#0000fe"
       inkscape:connector-curvature="0" />
    <g
       inkscape:transform-center-y="3.85"
       inkscape:transform-center-x="14.575"
       transform="matrix(0.17432533,0.98468811,-0.98468811,0.17432533,1190.5348,-740.92252)"
       id="g4763">
      <path
         style="fill:#fefefe"
         d="m 748.92859,880.41654 c 1.33556,2.18125 0.82013,3.44785 -1.055,4.60406 -1.24031,0.76478 -3.18532,1.09673 -4.32239,0.73776 -2.22399,-0.70209 -26.65955,-17.63598 -36.3731,-25.20746 -3.25429,-2.53664 -6.08664,-4.85063 -6.295,-5.14073 -0.97538,-1.35823 1.03354,-2.68584 4.35939,-2.88076 3.20033,-0.18756 4.42173,0.44055 9.61584,4.93333 21.77856,18.83783 29.57337,25.39689 29.67428,24.97142 0.0633,-0.26703 -7.79285,-7.23332 -17.459,-15.48001 -21.63109,-18.45458 -21.23709,-18.03526 -19.90736,-21.1179 0.57465,-1.33216 1.4459,-2.30397 1.93684,-2.15799 0.49096,0.14599 5.20563,4.29803 10.47551,9.22644 5.2699,4.9284 13.9537,12.76815 19.29811,17.42071 5.53004,4.81414 8.71648,7.90975 10.05187,10.09113 z m -54.96572,-67.28007 c 2.38665,4.07755 5.18703,12.7145 4.10162,13.38377 -0.42759,0.26365 -1.56014,-1.44562 -2.71958,-4.10542 -1.09263,-2.50655 -3.05567,-6.2524 -4.36353,-8.32336 -1.43218,-2.26801 -4.92446,-6.08219 -4.57011,-6.65632 1.18881,-1.92619 1.609,-1.75913 6.56549,4.26951 0.31144,0.3599 0.64515,0.84931 0.98612,1.43181 z m -6.44187,-9.63241 c 0.13498,0.21894 0.14577,0.35894 0.0514,0.70486 -0.21765,0.79811 -1.00806,2.04756 -2.2666,3.58431 -1.40441,1.71491 -2.51409,3.622 -4.85921,8.35173 -0.6268,1.26417 -0.72801,1.55914 -0.73907,2.14681 -0.0175,0.9303 0.19532,1.62303 1.05406,3.44358 1.16159,2.46255 2.24622,4.03506 3.67697,5.3232 1.41498,1.27395 1.8249,1.71479 2.27948,2.45393 0.44022,0.71585 0.60737,1.23026 0.69694,2.14248 0.13941,1.42001 -0.14799,2.58743 -0.58751,2.38148 -0.95909,-0.44943 -6.31853,-7.09489 -9.75627,-12.09758 -0.71393,-1.03895 -1.03097,-2.18392 -0.91998,-3.32662 0.0438,-0.45113 0.0827,-0.58183 0.46728,-1.60521 0.3291,-0.87585 1.74294,-3.53403 3.3702,-6.3345 0.28107,-0.48371 0.71291,-1.24781 0.95955,-1.69994 0.24664,-0.45214 0.75189,-1.31505 1.12175,-1.91696 1.41062,-2.2957 2.36576,-3.47108 3.27882,-4.03407 0.41007,-0.25286 0.67561,-0.33811 1.01912,-0.32323 0.40426,0.0176 0.86678,0.34144 1.15307,0.80573 z m -4.21208,-1.27146 c 0.40356,0.62268 0.26696,1.28097 -0.38328,1.68191 -0.74024,0.45644 -1.67755,0.0927 -2.28193,-0.88752 -1.19916,-1.94476 0.83664,-2.82011 2.45935,-1.05754 0.0798,0.0867 0.14818,0.17421 0.20584,0.26315 z m 9.09186,18.96876 c 0.93382,1.51446 0.71083,2.46562 -1.03295,4.37934 -1.95237,2.14271 -2.54988,2.33164 -4.84041,1.52757 -3.78181,-1.32755 -4.80223,-3.54638 -2.64682,-5.75877 2.49915,-2.56523 6.98176,-2.64312 8.52017,-0.14814 z"
         id="path3390"
         inkscape:connector-curvature="0" />
      <path
         id="path3392"
         d="m 698.97026,828.17774 c 0.55039,0.79639 1.07205,2.1863 1.65663,4.3501 1.12674,4.17061 1.72984,5.19169 4.2981,7.2646 2.92116,2.35776 2.95888,2.48143 1.72257,5.56228 -0.69548,1.7331 -0.80339,3.89946 -0.23912,4.8146 0.98982,1.60526 0.92628,1.66167 -1.86339,1.58494 -1.59032,-0.0438 -3.2813,0.42905 -3.7568,1.05215 -0.67556,0.88523 -1.4377,0.23099 -3.48798,-2.99602 -1.44312,-2.27143 -3.3949,-4.64584 -4.33665,-5.27668 -4.15274,-2.78174 -6.92731,-15.44224 -3.55764,-16.23404 0.65442,-0.15376 2.02997,-1.31336 3.05633,-2.5752 1.70999,-2.10238 1.9577,-2.14277 2.97128,-0.49896 0.60836,0.98663 1.73133,1.94069 2.49453,2.1217 0.37133,0.0881 0.71192,0.35269 1.04215,0.83053 z"
         style="fill:#0000fe"
         inkscape:connector-curvature="0" />
      <path
         style="fill:#000000"
         d="m 749.52398,879.43217 c 0.33752,0.57597 0.53851,1.10361 0.6581,1.64785 0.80724,3.67375 -2.73929,6.48942 -6.70479,5.32508 -2.45618,-0.72117 -24.3592,-15.49767 -36.50374,-24.62669 -4.22929,-3.17915 -12.85506,-13.45432 -17.66747,-21.04656 -1.24234,-1.95993 -5.21694,-7.5631 -8.83199,-12.45181 0,0 -3.61739,-4.44278 -4.41404,-6.10549 -0.79665,-1.66272 -0.9443,-2.19935 -0.93296,-3.40351 0.0113,-1.20417 0.30696,-1.95611 1.04506,-3.54473 0.73809,-1.58861 3.75322,-5.68726 3.75322,-5.68726 1.32351,-2.94765 1.41489,-4.34172 0.36827,-5.62849 -2.34054,-2.87759 -0.54163,-4.21087 3.75259,-2.78196 2.81129,0.93548 3.53529,1.04087 4.05689,2.59017 0.46013,1.36672 0.15311,1.389 2.13089,3.60104 l 1.07918,1.03944 2.4208,2.80964 c 1.76438,2.04815 3.31402,5.89209 5.72132,14.19087 l 3.30051,11.38125 6.91746,5.97532 c 3.80341,3.28619 10.54968,9.4331 14.99389,13.65911 4.44419,4.22599 11.87086,10.90495 16.50159,14.84274 5.08712,4.32591 7.34268,6.48605 8.3552,8.21401 z m -0.59539,0.98437 c -1.33558,-2.18126 -4.52184,-5.27698 -10.05187,-10.09113 -5.34442,-4.65256 -14.02821,-12.49231 -19.29811,-17.42071 -5.2699,-4.92841 -9.98457,-9.08045 -10.47552,-9.22644 -0.49095,-0.14597 -1.36219,0.82583 -1.93684,2.15799 -1.32973,3.08264 -1.72373,2.66332 19.90736,21.1179 9.66616,8.24669 17.52233,15.21298 17.459,15.48001 -0.10091,0.42547 -7.89572,-6.13359 -29.67428,-24.97142 -5.1941,-4.49277 -6.41551,-5.12089 -9.61584,-4.93333 -2.01642,0.11818 -3.90776,0.69768 -4.20252,1.28568 -0.29476,0.58799 -0.36523,1.30499 -0.15687,1.59508 1.85045,2.57676 39.48131,29.34215 42.6681,30.34819 1.13707,0.35897 3.08208,0.027 4.32239,-0.73776 1.87513,-1.15621 2.39037,-2.42269 1.055,-4.60406 z m -55.24691,-67.65051 c -0.0361,0.0223 -4.05361,-5.33976 -5.83015,-6.31076 -0.8054,-0.44022 -1.13152,0.52593 -1.26239,1.14553 -0.1726,0.81717 2.76198,3.90961 4.39224,6.49066 1.30778,2.07101 3.2709,5.81681 4.36352,8.32336 2.76802,6.34995 3.84206,4.9531 1.69115,-2.19922 -0.70885,-2.35709 -1.67863,-4.58022 -2.70661,-6.38045 -0.21421,-0.37502 -0.43068,-0.73314 -0.64755,-1.06924 z m -6.08603,-9.18181 c -1.15977,-1.88089 -2.85341,-0.89467 -5.33381,3.10529 -0.77611,1.25157 -1.35088,2.26078 -1.75435,3.06424 -1.7239,2.89101 -3.72708,6.56128 -4.02785,7.5454 -0.0153,0.0502 -0.0237,0.11575 -0.0334,0.1766 -0.0611,0.14367 -0.13292,0.28903 -0.18605,0.43138 0,0 -0.62313,1.76177 0.60253,3.74952 3.14362,4.70864 9.20758,12.23713 10.01015,12.42747 0.4042,0.0958 0.67082,-0.89155 0.59113,-2.19326 -0.11026,-1.80151 -0.78717,-2.9189 -2.83307,-4.6802 -1.82387,-1.57024 -3.02466,-3.58705 -4.21353,-6.25666 -0.53976,-1.23279 -0.74695,-1.7995 -0.68505,-2.87489 0.0335,-0.24245 0.0677,-0.43972 0.1036,-0.62835 0.002,-0.006 0.004,-0.0139 0.006,-0.0198 2.90752,-6.00294 4.05904,-7.79284 5.16344,-9.25753 6.3e-4,-8.9e-4 0.002,-0.003 0.002,-0.004 1.67458,-1.93061 2.95892,-3.98354 2.58778,-4.58545 z m 3.75572,11.9126 c 0,0 -1.474,-1.95439 -2.37373,-3.01631 -1.07504,-1.15443 -3.01518,-4.02624 -3.22317,-3.8333 -1.23489,1.14553 -1.60432,2.17396 -2.20776,3.62347 -0.20556,0.49376 3.80289,0.69993 5.15332,1.60578 z m -8.24666,-13.49856 c -0.48167,-0.64894 -1.37364,-1.13046 -2.28363,-0.91631 -0.70518,0.16595 -0.77868,0.96991 -0.17741,1.94505 0.60439,0.98019 1.54169,1.34396 2.28194,0.88752 0.73331,-0.45215 0.66081,-1.26733 0.1791,-1.91626 z m 15.8652,26.18024 c -0.33024,-0.47785 -0.67083,-0.74245 -1.04216,-0.83052 -0.76318,-0.18102 -1.88618,-1.13507 -2.49454,-2.1217 -1.01358,-1.64382 -1.26129,-1.60342 -2.97128,0.49896 -1.02636,1.26184 -2.4019,2.42144 -3.05632,2.57521 -0.65441,0.15377 -1.27174,2.099 -1.37193,4.3245 -0.19618,4.35738 2.16239,10.05593 4.92956,11.90953 0.94176,0.63084 2.89347,3.00529 4.33666,5.27667 2.05029,3.22701 2.81242,3.88126 3.48797,2.99603 0.4755,-0.6231 2.16649,-1.0959 3.75681,-1.05215 2.78968,0.0767 2.85321,0.0203 1.8634,-1.58495 -0.56428,-0.91514 -0.45636,-3.08149 0.23911,-4.81459 1.23632,-3.08084 1.19859,-3.20453 -1.72257,-5.56228 -2.56825,-2.07291 -3.17135,-3.094 -4.2981,-7.2646 -0.58459,-2.1638 -1.10621,-3.55373 -1.65661,-4.35011 z m -6.56916,-6.97713 c -1.53841,-2.49497 -6.02103,-2.41708 -8.52017,0.14815 -2.15541,2.21238 -1.13499,4.43121 2.64682,5.75877 2.29052,0.80407 2.88802,0.61513 4.84041,-1.52757 1.74375,-1.91372 1.96676,-2.86488 1.03294,-4.37935 z m -6.40948,-6.54325 c -0.0736,-0.15884 -0.43973,-0.1938 -1.06459,-0.16733 -0.58826,0.0249 -1.65251,0.32995 -2.84705,0.77114 -0.19503,0.33349 -0.40305,0.68499 -0.46527,0.8307 -0.24174,0.56607 -0.45327,1.26111 -0.45426,2.29243 0.60818,-0.18769 1.43377,-0.71008 2.62988,-1.61454 1.63809,-1.23913 2.32405,-1.84757 2.20136,-2.11229 z"
         id="path3394"
         inkscape:connector-curvature="0"
         sodipodi:nodetypes="csssscssscsssccccccssccsscsssssccssccsscssccssccccccccccccccscccscccssscccsccsscsssssscssssssscsccs" />
    </g>
    <path
       style="fill:#000000"
       d="m 519.13557,63.66852 c -1.9779,-1.7e-4 -1.99641,0.56384 -1.69141,51.01368 l 0.30859,51.01367 -34.25782,-0.26367 -34.25781,-0.26368 -3.7168,-17.3789 c -2.26505,-10.59264 -3.50324,-18.69597 -3.16992,-20.75 0.51041,-3.14532 0.36262,-3.3711 -2.21484,-3.3711 -3.26935,0 -3.56674,-2.82956 2.99609,28.5 2.53467,12.1 6.18198,29.875 8.10547,39.5 1.92349,9.625 3.73081,18.2875 4.01563,19.25 0.43587,1.47287 -2.57467,1.69874 -27.63086,1.73242 l 0,0.5293 c 39.15725,-0.01 74.57577,-0.0209 105.68164,-0.0391 l 0,-0.47266 -12.75196,0 0.29297,-74.5 c 0.28978,-73.93091 0.27573,-74.49984 -1.70898,-74.5 z m -69.71681,104 34.10938,0 34.10743,0 0,22.5 0,22.5 -29.5,0 c -16.22501,0 -29.5,-0.14394 -29.5,-0.32031 0,-0.6393 -7.84915,-39.25229 -8.52345,-41.92969 z"
       id="path3404"
       inkscape:connector-curvature="0"
       sodipodi:nodetypes="ssccccsssssccccccscccccsscc" />
    <path
       sodipodi:nodetypes="sssssssscssssssscsssssssssssssssssssssssss"
       style="fill:#000000"
       d="m 447.02359,56.16117 c 0,-4.16242 -0.1868,-4.64679 -1.40187,-3.63521 -1.14067,0.94962 -1.40187,0.90375 -1.40187,-0.24615 0,-1.2276 3.69562,-4.44135 5.10731,-4.44135 0.27509,0 0.50016,2.95312 0.50016,6.5625 0,5.20834 -0.28927,6.5625 -1.40186,6.5625 -1.06366,0 -1.40187,-1.15859 -1.40187,-4.80229 z m 7.41365,3.31992 c -0.96563,-1.16715 -0.98828,-1.86492 -0.10651,-3.28125 0.87016,-1.39773 0.87016,-2.20004 0,-3.59776 -0.88177,-1.41634 -0.85912,-2.11411 0.10651,-3.28125 2.83588,-3.4277 9.07112,-0.40766 6.77453,3.28125 -0.87017,1.39772 -0.87017,2.20003 0,3.59776 1.42628,2.29097 -0.35958,4.76362 -3.44052,4.76362 -1.15917,0 -2.65948,-0.66707 -3.33401,-1.48237 z m 4.55796,-2.03325 c -0.37937,-1.97611 -2.03802,-1.8515 -2.4607,0.18485 -0.17631,0.84936 0.33887,1.45577 1.23675,1.45577 0.96258,0 1.42096,-0.61444 1.22395,-1.64062 z m 0.17792,-6.38347 c 0,-0.743 -0.63084,-1.35091 -1.40187,-1.35091 -1.40769,0 -1.9212,1.97905 -0.80422,3.09951 0.87218,0.87491 2.20609,-0.18236 2.20609,-1.7486 z m 6.14152,8.42587 c -3.10372,-3.11341 -1.09807,-11.65178 2.73698,-11.65178 2.34879,0 4.20561,2.89741 4.20561,6.5625 0,3.66508 -1.85682,6.5625 -4.20561,6.5625 -0.69759,0 -1.92924,-0.66294 -2.73698,-1.47322 z m 3.96896,-5.66887 c -0.16357,-2.00154 -0.71796,-3.63916 -1.23198,-3.63916 -1.09176,0 -1.79234,5.59576 -0.96979,7.74601 0.99994,2.61396 2.5194,-0.2202 2.20177,-4.10685 z m 5.20591,-1.69841 c -0.93053,-2.4325 0.37372,-4.44299 2.67008,-4.11588 1.54461,0.22002 2.10699,0.92569 2.10699,2.64388 0,1.71818 -0.56238,2.42386 -2.10699,2.64388 -1.26381,0.18002 -2.33232,-0.28894 -2.67008,-1.17188 z m 3.3752,-1.472 c 0,-0.51563 -0.42056,-0.9375 -0.93458,-0.9375 -0.51402,0 -0.93458,0.42187 -0.93458,0.9375 0,0.51562 0.42056,0.9375 0.93458,0.9375 0.51402,0 0.93458,-0.42188 0.93458,-0.9375 z"
       id="path3856-4"
       inkscape:connector-curvature="0" />
    <g
       transform="matrix(1.049118,0,0,1.049118,-958.30663,-431.48388)"
       id="g4978">
      <path
         sodipodi:nodetypes="ccsssssscccscsscccscsc"
         style="fill:#fefefe"
         d="m 1446.1055,473.25233 c -1.4359,0.0969 -1.4435,0.15424 -0.068,0.51953 0.8768,0.23289 1.749,1.70447 2.0196,3.40625 0.6834,4.29904 5.5883,17.11833 9.1464,23.90625 1.6746,3.1946 3.1632,5.80859 3.3086,5.80859 0.1455,0 1.3473,-0.41119 2.67,-0.91406 2.6723,-1.01603 3.3175,-4.41955 1.0058,-5.30664 -2.016,-0.77361 -9.378,-12.1771 -13.1973,-20.44336 -2.3044,-4.98761 -3.7498,-7.05316 -4.8847,-6.97656 z m 7.9141,24.1875 c -0.2348,0.004 -0.329,0.55264 -0.4551,1.55078 -0.1661,1.31539 0.2023,2.99798 0.8184,3.74023 0.616,0.74226 1.7137,1.34961 2.4394,1.34961 0.9977,0 0.7977,-0.91156 -0.8183,-3.74023 -1.1469,-2.00749 -1.6825,-2.90499 -1.9844,-2.90039 z m 21.9258,24.98242 c -0.7212,-0.0598 -1.3377,0.0972 -1.9297,0.41406 -4.591,2.45703 -3.0775,4.12862 25.3203,27.97852 13.984,11.74442 16.9208,13.69062 16.8359,11.15625 -0.097,-2.89759 -4.2987,-7.81861 -18.7168,-21.92774 -13.3184,-13.03306 -18.3847,-17.36211 -21.5097,-17.62109 z"
         id="path4162"
         inkscape:connector-curvature="0" />
      <path
         inkscape:connector-curvature="0"
         id="path4158"
         d="m 1466.8839,521.42473 c -2.1223,-2.0625 -4.759,-5.52616 -5.8594,-7.69703 -2.0666,-4.07674 -2.6485,-7.34515 -1.142,-6.41409 1.5004,0.92727 5.8659,-1.30673 6.3777,-3.26368 0.7569,-2.89442 2.9039,-0.5861 6.1329,6.59355 1.5073,3.35156 3.7164,8.48852 6.1699,9.71639 l 3.4294,3.62264 -3.0553,-1.54172 c -3.1517,-1.59036 -5.7803,-1.03523 -7.4514,1.57356 -0.5311,0.82925 -1.8444,0.0903 -4.6018,-2.58962 z"
         style="fill:#0000fe"
         sodipodi:nodetypes="sssssscsss" />
      <path
         sodipodi:nodetypes="ccccsssccccccccsscsscsccccccsscssccsscccccccsccccccccsccccccccsssccc"
         inkscape:connector-curvature="0"
         style="fill:#000000"
         d="m 1446.2598,472.29447 c -0.5102,-0.0653 -0.9876,0.16146 -1.4668,0.64063 -0.6567,0.65671 -0.927,15.50463 -0.8242,45.125 l 0.1523,51.76998 -7.0801,0 c -4.0952,0 -7.0801,0.39526 -7.0801,0.9375 0,0.54167 2.9688,0.9375 7.0313,0.9375 l 7.0312,0 0,21.09375 0,21.2613 -34.5266,-0.10787 -0.2471,0.0446 5.5999,0.45002 c 45.7737,-0.0419 76.8871,-0.0915 68.2734,-0.15235 l -36.3691,-0.25586 0.2754,-73.85159 c 0.2166,-58.08087 0.1055,-66.10635 -1.1309,-66.44336 -1.0792,-0.29415 -1.0301,-0.40869 0.2071,-0.49219 1.1349,-0.0765 2.5803,1.98896 4.8847,6.97657 3.8193,8.26626 11.1813,19.66975 13.1973,20.44336 2.3117,0.88709 1.6665,4.29061 -1.0059,5.30664 -1.3226,0.50287 -2.5244,0.91406 -2.6699,0.91406 -0.747,0 -7.1113,-13.45477 -8.8691,-18.75 -1.1125,-3.35156 -2.4789,-6.72656 -3.0352,-7.5 -0.8138,-1.13135 -0.8829,-1.03971 -0.3554,0.46875 4.2103,12.03856 4.8339,14.44676 4.4394,17.13476 -0.4914,3.34779 0.8548,5.58094 4.1094,6.81836 1.4459,0.5497 1.9314,1.33601 1.6015,2.59766 -0.7699,2.94401 3.1159,9.26154 10.2989,16.74414 7.3126,7.61752 44.9396,39.67383 46.5683,39.67383 1.7626,0 2.0582,-2.56134 0.6114,-5.30469 -0.7723,-1.46451 -9.8762,-11.18543 -20.2286,-21.60156 -17.1681,-17.27374 -19.1006,-19.5518 -22,-25.91406 -1.9522,-4.2839 -4.273,-7.7835 -6.0136,-9.07032 -2.4854,-1.83758 -2.7699,-2.51292 -2.3203,-5.49218 0.7216,-4.78123 1.6016,-5.31949 3.9101,-2.38477 2.4759,3.14759 3.7722,2.30142 1.586,-1.03516 -1.8227,-2.78187 -4.0319,-3.89391 -5.2715,-2.65429 -0.4698,0.46987 -2.5997,0.68794 -4.7344,0.48437 l -3.8828,-0.36914 -4.1973,-8.86133 c -3.1063,-6.5573 -4.9381,-9.38608 -6.4687,-9.58203 z m 7.7597,25.14453 c 0.3019,-0.005 0.8375,0.8929 1.9844,2.90039 1.616,2.82867 1.8161,3.74024 0.8184,3.74024 -2.0312,0 -3.5927,-2.43871 -3.2578,-5.08985 0.1261,-0.99814 0.2202,-1.54721 0.455,-1.55078 z m 13.2754,5.40039 c 1.0934,0.11626 2.8273,2.75455 5.0977,7.80274 1.5074,3.35156 4.2837,7.72434 6.1699,9.7168 l 3.4297,3.62304 -3.0547,-1.54297 c -2.2815,-1.15121 -3.5191,-1.29236 -4.8828,-0.5625 -1.0046,0.5376 -2.1596,1.49851 -2.5684,2.13672 -1.0207,1.59346 -7.8361,-5.1089 -10.4609,-10.28711 -2.0666,-4.07674 -2.6491,-7.34512 -1.1426,-6.41406 1.5003,0.92727 5.8653,-1.30672 6.377,-3.26367 0.1893,-0.7236 0.4661,-1.12077 0.8242,-1.19922 0.067,-0.0147 0.138,-0.0175 0.2109,-0.01 z m 8.1289,19.57813 c 0.1685,-0.0113 0.3412,-0.011 0.5215,0.004 3.125,0.25897 8.1914,4.58803 21.5098,17.62109 14.4181,14.10913 18.6196,19.03014 18.7168,21.92773 0.085,2.53437 -2.852,0.58817 -16.836,-11.15625 -28.3978,-23.8499 -29.9113,-25.52148 -25.3203,-27.97851 0.444,-0.23763 0.9028,-0.38418 1.4082,-0.41797 z"
         id="path4154-3" />
    </g>
    <g
       transform="matrix(-0.8752701,-0.48363442,-0.48363442,0.8752701,817.92165,-108.99531)"
       id="g4992">
      <path
         sodipodi:nodetypes="ccssscccsccccc"
         inkscape:connector-curvature="0"
         id="path4286"
         transform="matrix(-0.8752701,-0.48363442,-0.48363442,0.8752701,705.12251,340.95906)"
         d="m 348.5773,252.18286 c -0.11239,0.42278 -0.97414,2.62749 -1.0914,3.05456 -1.18615,4.32024 -3.4428,8.49737 -2.73981,12.91688 0.61922,3.89279 5.77269,7.45426 16.58008,12.33008 7.17932,3.23895 23.06528,10.7934 24.98242,11.08789 1.91714,0.29448 3.74397,0.42589 4.0625,0.29296 0.49679,-0.20743 0.85611,-1.00606 1.03125,-2.10742 l 0.002,-0.002 c -0.0426,-1.08691 -0.49829,-2.39679 -2.23828,-3.52344 -1.77793,-1.1512 -3.74749,-2.40898 -5.82618,-3.59961 -6.17023,-3.53436 -26.45319,-15.39572 -27.86718,-16.97265 1.05682,-2.51198 2.04351,-5.21482 3.29296,-8.38868 0.54002,-1.39515 0.85026,-2.17851 1.35352,-3.48437 z"
         style="fill:#000000" />
      <path
         id="path4339"
         d="m 250.59777,410.8706 c 10.08697,0.7095 19.61796,0.45612 20.30054,-0.84581 2.14769,-4.09628 1.81934,-6.87814 -0.0756,-7.34424 -2.07522,-0.51038 -7.24799,-0.61463 -12.77469,0.0226 -5.52672,0.63719 -22.90107,1.09854 -26.82288,1.02524 -4.12328,-0.0771 -7.46859,0.43125 -7.93204,1.20526 -1.04262,1.74135 1.21887,2.8323 3.58188,3.75921 2.36302,0.92691 15.84339,1.62353 23.72279,2.17774 z"
         style="fill:#fefefe"
         inkscape:connector-curvature="0"
         sodipodi:nodetypes="sccssccs" />
      <path
         id="path4349"
         transform="matrix(-0.8752701,-0.48363442,-0.48363442,0.8752701,705.12251,340.95906)"
         d="m 348.77344,253.78711 c -0.13489,0.51495 -0.25538,1.02711 -0.40625,1.54101 -1.1656,3.97022 -3.36816,8.24685 -3,12.07618 0.22967,1.14802 0.65234,2.52929 0.65234,2.52929 0.48908,-3.65711 1.10869,-5.73585 2.50977,-6.34179 1.85159,-0.68774 3.14244,0.33643 4.83789,0.87695 1.8719,0.59677 1.9168,-0.27923 4.32422,-6.04297 0.49747,-1.19105 1.15356,-2.88792 1.8164,-4.63867 l -10.73437,0 z"
         style="fill:#0000fe"
         inkscape:connector-curvature="0" />
    </g>
    <path
       sodipodi:nodetypes="ssssccccccsccsssccsss"
       inkscape:connector-curvature="0"
       id="path4984"
       d="m 385.62957,123.62555 c -2.36958,0 -2.5126,0.26331 -2.03516,3.75 0.28242,2.0625 1.25671,6.9 2.16407,10.75 0.90736,3.85 4.54144,21.175 8.07617,38.5 3.53473,17.325 6.6672,32.5125 6.96094,33.75 l 0.53515,2.25 -25.13867,0 c 0,0 -1.99628,0.55469 0,0.55469 14.96441,-0.002 65.10519,-0.004 79.26695,-0.008 21.61096,0 0,-0.61329 0,-0.61329 -9.38685,-0.0583 -51.16734,-0.14827 -51.16734,-0.25371 0,-0.6393 -7.84915,-39.25229 -8.52344,-41.92969 l -0.69336,-2.75 6.60742,0 c 3.73895,0 6.60938,-0.43421 6.60938,-1 0,-0.56887 -2.93867,-1 -6.81641,-1 l -6.8164,0 -1.79883,-9.75 c -0.98965,-5.3625 -2.45659,-12.225 -3.25977,-15.25 -0.80318,-3.025 -1.4523,-8.0875 -1.4414,-11.25 0.0189,-5.50103 -0.0911,-5.75 -2.5293,-5.75 z"
       style="fill:#000000" />
    <path
       sodipodi:nodetypes="csssssccsssssscccssccc"
       inkscape:transform-center-y="-11.674886"
       inkscape:transform-center-x="-9.4338416"
       inkscape:connector-curvature="0"
       id="path5201"
       d="m 390.7074,78.6027 c -0.6887,0.36842 -1.3901,1.26741 -2.36318,2.91662 -1.88403,3.19305 -2.14288,6.32608 -0.32011,3.87254 3.52785,-4.74863 3.32666,-4.65266 3.11291,-1.48014 -0.10828,1.607 0.41386,2.61966 1.1591,3.25242 1.10143,0.93521 -0.66653,2.203 -1.75063,2.64998 -2.27391,0.93753 -5.8666,8.57042 -7.39866,14.75648 l 10.69051,2.96324 c 0.43177,-0.82794 0.93869,-1.74048 1.56901,-2.75318 1.77301,-2.84855 3.14137,-6.17692 3.03902,-7.39648 -0.168,-2.00159 0.85384,-0.84789 5.95909,1.15548 1.92641,0.75595 10.46041,-2.98117 10.81484,-3.27089 0.35444,-0.28972 5.57794,-4.13338 5.89382,-5.34938 0.64951,-2.50029 -1.29646,-3.65752 -3.34132,-1.98603 -0.74579,0.60963 -11.67817,4.95371 -11.67817,4.95371 l -5.00395,-2.76367 c 0,0 1.95649,-0.6868 2.91899,-2.50867 1.6493,-4.34055 0.16462,-8.15195 -3.1272,-9.52178 -1.51105,-0.62879 -4.8942,-0.67363 -5.74142,-0.16147 -0.84722,0.51216 -2.26314,0.75221 -3.14853,0.53393 -0.46161,-0.11378 -0.8709,-0.0838 -1.28413,0.13719 z"
       style="fill:#000000" />
    <path
       sodipodi:nodetypes="sscsssccs"
       inkscape:transform-center-y="-11.069709"
       inkscape:transform-center-x="-13.312578"
       inkscape:connector-curvature="0"
       id="path5007"
       d="m 404.07537,97.63663 c -3.36256,-1.31952 -6.52569,-2.94471 -7.18639,-2.31992 -0.60121,0.56854 -2.09366,0.78858 -3.31658,0.48887 -1.84699,-0.4526 -2.1817,-0.95963 -1.97683,-2.99464 0.49577,-4.92465 3.24736,-5.22403 14.6012,1.09111 0,0 11.36676,-4.50687 12.21817,-5.20282 1.75546,-1.43494 2.88083,-0.34049 1.72672,1.6793 -0.46229,0.80908 -5.66943,4.20934 -5.85752,4.36307 -0.18807,0.15375 -7.56243,3.93349 -10.20878,2.89503 z"
       style="fill:#fefefe" />
    <path
       sodipodi:nodetypes="sssscs"
       inkscape:transform-center-y="-19.464613"
       inkscape:transform-center-x="-6.3727645"
       inkscape:connector-curvature="0"
       id="path5003"
       d="m 399.00799,89.19154 c -2.59916,-1.17804 -2.82986,-1.53274 -2.00723,-3.08619 0.76,-1.43517 2.31021,-3.54508 4.79627,-3.0696 2.91123,0.5568 2.22539,1.85187 1.38722,4.18785 -0.48144,1.34179 -2.57623,2.47622 -2.66302,2.51201 -0.0868,0.0358 0.10193,0.18798 -1.51325,-0.54407 z"
       style="fill:#fefefe" />
    <path
       sodipodi:nodetypes="csccsssc"
       inkscape:transform-center-y="-7.8369489"
       inkscape:transform-center-x="2.9877632"
       inkscape:connector-curvature="0"
       id="path5075"
       d="m 390.10386,91.2025 c -0.68923,0.43116 -1.92972,2.4303 -3.65903,5.93879 -1.02978,2.08925 -2.26159,5.89067 -2.83785,8.68533 l 8.86804,3.49549 c 0.77384,-1.65913 1.47982,-3.2807 1.88103,-3.95696 3.86269,-6.51092 4.07849,-8.66643 1.24496,-8.42862 -3.2827,0.2755 -5.18488,-1.21794 -4.91847,-3.86422 0.16012,-1.59063 -0.0426,-2.20514 -0.57867,-1.86981 z"
       style="fill:#0000fe" />
  </g>
</svg>
