<?xml version="1.0" encoding="UTF-8" standalone="no"?>
<!-- Created with Inkscape (http://www.inkscape.org/) -->

<svg
   xmlns:dc="http://purl.org/dc/elements/1.1/"
   xmlns:cc="http://creativecommons.org/ns#"
   xmlns:rdf="http://www.w3.org/1999/02/22-rdf-syntax-ns#"
   xmlns:svg="http://www.w3.org/2000/svg"
   xmlns="http://www.w3.org/2000/svg"
   xmlns:sodipodi="http://sodipodi.sourceforge.net/DTD/sodipodi-0.dtd"
   xmlns:inkscape="http://www.inkscape.org/namespaces/inkscape"
   version="1.1"
   width="725"
   height="300"
   id="svg2"
   inkscape:version="0.91 r13725"
   sodipodi:docname="ub720601.svg">
  <sodipodi:namedview
     pagecolor="#c7c7c7"
     bordercolor="#666666"
     borderopacity="1"
     objecttolerance="10"
     gridtolerance="10"
     guidetolerance="10"
     inkscape:pageopacity="0"
     inkscape:pageshadow="2"
     inkscape:window-width="1592"
     inkscape:window-height="900"
     id="namedview11"
     showgrid="false"
     inkscape:zoom="1.0356536"
     inkscape:cx="302.80078"
     inkscape:cy="133.28985"
     inkscape:window-x="0"
     inkscape:window-y="0"
     inkscape:window-maximized="0"
     inkscape:current-layer="svg2" />
  <metadata
     id="metadata8">
    <rdf:RDF>
      <cc:Work
         rdf:about="">
        <dc:format>image/svg+xml</dc:format>
        <dc:type
           rdf:resource="http://purl.org/dc/dcmitype/StillImage" />
        <dc:title></dc:title>
      </cc:Work>
    </rdf:RDF>
  </metadata>
  <defs
     id="defs6" />
  <g
     id="g4592"
     transform="translate(-19.249181,-293.90604)">
    <path
       sodipodi:nodetypes="ssssssscssssssssssssssssssssssssssssssssssssssssscssscccssssssssssssssssssssssssssssssssscssssssccsssssssscssscscssscssccccsscsssscssscsssssss"
       inkscape:connector-curvature="0"
       style="fill:#fefefe"
       id="path2997-7"
       d="m 317.89649,481.37621 c -1.5125,-0.82055 -2.75,-1.73256 -2.75,-2.02669 0,-0.29413 1.07348,-1.96726 2.38549,-3.71806 1.31203,-1.7508 3.14833,-5.88328 4.08067,-9.18328 2.53999,-8.99021 7.51872,-22.87106 8.59031,-23.95 0.59544,-0.59953 1.38623,-0.50729 2.14353,0.25 0.93333,0.93333 0.82222,1.2 -0.5,1.2 -1.18901,0 -1.69861,0.82661 -1.69536,2.75 0.009,5.56692 -4.48127,26.50637 -7.18438,33.5 -1.21921,3.15441 -1.36485,3.18825 -5.07026,1.17803 z m 80.41251,-1.30643 c -1.88694,-1.19605 -1.04067,-5.52906 1.16189,-5.94904 1.00343,-0.19133 2.71553,0.45859 3.80467,1.44425 1.96836,1.78134 1.96641,1.80277 -0.3244,3.56542 -2.65321,2.04147 -2.84288,2.07985 -4.64216,0.93937 z m -86.41251,-4.69357 c -2.04721,-1.11064 -2.75,-2.25042 -2.75,-4.45997 0,-2.45413 0.40953,-2.96806 2.36514,-2.96806 1.30083,0 3.54354,0.92694 4.98383,2.05986 2.49642,1.96369 2.54404,2.17379 1.01985,4.5 -1.8524,2.82713 -1.97342,2.84582 -5.61882,0.86817 z m 65.25,0.56511 c 0,-4.72811 11.37119,-16.58473 13.17755,-13.7401 1.95229,3.07445 0.72334,5.53315 -4.84839,9.69993 -6.52173,4.87725 -8.32916,5.75397 -8.32916,4.04017 z m 24.70254,-3.24314 c -5.22873,-6.47617 -8.44885,-11.90695 -9.19056,-15.5 -0.36899,-1.7875 -0.47251,-3.25 -0.23005,-3.25 0.24245,0 3.02587,3.375 6.18536,7.5 5.1353,6.70459 6.10076,7.5 9.10343,7.5 4.06023,0 6.1357,2.8115 4.42927,6 -1.91534,3.57884 -6.37879,2.60357 -10.29746,-2.25 z M 329.32231,468.078 c -0.79638,-0.50491 -1.19498,-2.19283 -1,-4.23468 0.24502,-2.56606 0.8407,-3.46886 2.43936,-3.69703 1.72134,-0.24567 2.30386,0.44138 3.12836,3.68969 0.82299,3.24232 0.73909,4.09675 -0.44698,4.55189 -1.92469,0.73858 -2.54007,0.6923 -4.12074,-0.30987 z m 9.02976,-0.81989 c -0.51091,-0.99546 -1.22474,-3.04743 -1.58631,-4.55993 -0.58176,-2.43365 -0.37402,-2.75 1.8059,-2.75 1.35481,0 3.72589,1.09773 5.26906,2.43941 2.30665,2.00546 2.60994,2.76149 1.70491,4.25 -1.53607,2.52636 -6.01702,2.91289 -7.19356,0.62052 z m -34.70558,-2.3531 c -6.05,-0.38631 -12.4625,-0.75964 -14.25,-0.82961 -1.97161,-0.0772 -3.25,-0.64969 -3.25,-1.45547 0,-2.33677 8.83053,-3.46627 22.83116,-2.9203 12.97011,0.50579 13.31578,0.57713 12.76365,2.63421 -0.31214,1.16289 -0.57365,2.45184 -0.58117,2.86434 -0.0145,0.79928 -0.54356,0.79043 -17.51364,-0.29317 z m -80.43911,-3.84303 c -2.1503,-4.01789 -1.13444,-5.55203 8.52839,-12.87937 l 9.58136,-7.26557 4.14286,1.11556 4.14286,1.11555 -4.15809,3.65002 c -2.28694,2.0075 -7.00213,6.18 -10.47818,9.2722 -7.50243,6.67396 -10.23749,7.83495 -11.7592,4.99161 z m 175.11025,-1.09619 -2.20498,-2.98239 9.99875,-5.01761 c 5.49932,-2.75969 10.82849,-5.01761 11.84261,-5.01761 1.97962,0 6.19248,3.90708 6.19248,5.74302 0,2.375 -3.20864,4.37007 -6.03123,3.75012 -2.04241,-0.44859 -4.66607,0.33646 -9.85133,2.94772 -3.88714,1.95753 -7.21912,3.55914 -7.40443,3.55914 -0.18529,0 -1.32914,-1.34208 -2.54188,-2.98239 z M 118.10085,454.7787 c -0.6175,-2.29321 -0.89244,-5.10571 -0.61098,-6.25 0.28146,-1.14428 2.75677,-10.60867 5.50066,-21.03197 4.35293,-16.53546 5.33344,-19.2024 7.69124,-20.91995 3.12545,-2.27672 5.75579,-1.33143 6.28906,2.26016 0.17839,1.20148 -3.14784,11.01806 -7.39163,21.81463 -4.24379,10.79657 -7.93578,21.58009 -8.20441,23.96337 -0.61612,5.46624 -1.82979,5.52695 -3.27394,0.16376 z m 268.22896,-4.04719 c -1.37856,-1.37856 -1.58108,-5.41947 -0.31095,-6.20446 0.47981,-0.29653 1.14094,1.11578 1.46918,3.13848 0.68398,4.21487 0.49388,4.71809 -1.15823,3.06598 z M 87.146483,444.94818 c 0,-0.55 -1.125,-1 -2.5,-1 -2.92139,0 -3.017617,-0.86619 -1.531808,-13.78852 0.591495,-5.14433 0.599258,-9.21897 0.02046,-10.74132 -1.632105,-4.29276 1.586055,-7.89793 4.724802,-5.293 1.594551,1.32336 1.575576,1.53526 -1.550564,17.31656 -2.054082,10.36939 -2.014943,11.50628 0.396127,11.50628 0.792541,0 1.440983,0.675 1.440983,1.5 0,0.825 -0.225,1.5 -0.5,1.5 -0.275,0 -0.5,-0.45 -0.5,-1 z m 87.078957,0.25 c -0.0434,-0.6875 -1.16902,-1.25 -2.5013,-1.25 -2.19268,0 -2.71358,-0.93742 -5.49404,-9.88713 -1.68943,-5.43792 -4.4201,-12.45049 -6.06815,-15.58349 -3.25892,-6.19529 -2.88429,-9.52938 1.07075,-9.52938 2.58237,0 4.37495,4.22471 6.91345,16.29352 2.7572,13.10852 3.86307,16.53028 5.669,17.54093 0.87446,0.48937 1.34228,1.51432 1.03958,2.27766 -0.38084,0.96044 -0.57466,1.00291 -0.62929,0.13789 z m 75.42104,-2.8372 c -6.30854,-1.95549 -12.07454,-3.18485 -13.51946,-2.88245 -1.40458,0.29396 -3.37835,-0.10075 -4.46043,-0.89198 -1.67182,-1.22247 -1.77609,-1.78113 -0.75198,-4.02882 1.46618,-3.21792 1.96863,-3.22495 7.82789,-0.10955 2.58602,1.375 5.25263,2.5 5.9258,2.5 0.67317,0 3.24267,0.89298 5.70999,1.98439 2.46733,1.09142 6.91203,2.6368 9.87712,3.43419 2.96509,0.79739 4.60357,1.47941 3.64107,1.51561 -0.9625,0.0362 -1.75,0.51581 -1.75,1.06581 0,1.31091 0.22719,1.35793 -12.5,-2.5872 z m -0.31417,-4.76776 -2.31416,-1.2841 3.84719,-2.66611 c 2.11596,-1.46636 5.61117,-4.47258 7.76712,-6.68047 2.15595,-2.2079 4.2786,-4.01436 4.71698,-4.01436 2.92005,0 -1.89583,9.90122 -6.53811,13.44207 -3.8058,2.90282 -4.27853,2.97886 -7.47901,1.20297 z m -13.18583,-5.67978 c -2.44602,-1.94729 -2.45809,-2.02239 -0.55887,-3.47776 2.52277,-1.93321 5.01687,-1.88664 7.03487,0.13135 1.4918,1.49181 1.48525,1.76649 -0.0836,3.5 -2.14027,2.36499 -3.26269,2.33802 -6.39243,-0.15359 z M 90.753472,421.36639 c -1.224871,-3.19196 -0.652507,-5.41821 1.393011,-5.41821 2.348764,0 6,3.34697 6,5.5 0,2.12453 -6.574278,2.0518 -7.393011,-0.0818 z m 75.603748,-7.08321 c -1.27934,-4.16849 -0.89108,-5.335 1.7757,-5.335 2.22334,0 6.01356,4.49695 6.01356,7.13486 0,1.44704 -0.74698,1.86514 -3.33222,1.86514 -2.96555,0 -3.45599,-0.40328 -4.45704,-3.665 z M 65.646483,393.02159 c -2.099176,-0.87902 -6.004996,-5.51739 -11.008698,-13.07341 -1.63898,-2.475 -6.470015,-8.66727 -10.735633,-13.76061 -7.665362,-9.15279 -8.884631,-11.23939 -6.567549,-11.23939 2.355364,0 7.543572,4.6168 20.81188,18.51975 11.015598,11.54249 13.5,14.68259 13.5,17.06299 0,3.16825 -2.200508,4.08171 -6,2.49067 z" />
    <path
       id="path3753"
       d="m 430.14649,483.38362 c 0,-0.31051 1.29012,-1.65012 2.86693,-2.97692 3.8357,-3.22753 7.25344,-11.48636 7.82382,-18.90595 0.3311,-4.30694 0.17007,-5.62831 -0.55835,-4.58153 -0.56301,0.80907 -1.27459,1.2201 -1.58129,0.9134 -0.74595,-0.74593 0.53791,-9.88444 1.38864,-9.88444 1.24768,0 7.42724,6.96634 6.76606,7.62752 -0.36161,0.36161 -1.27833,0.14223 -2.03713,-0.48752 -1.14452,-0.94988 -1.47332,0.0939 -1.92946,6.12499 -0.30241,3.99849 -1.35873,9.06211 -2.34738,11.2525 -2.48854,5.51345 -10.39184,13.81687 -10.39184,10.91795 z"
       style="fill:#fe0000"
       inkscape:connector-curvature="0" />
    <path
       id="path3751"
       d="m 204.161,454.46316 c -3.16531,-3.26577 -3.70719,-6.16466 -0.68321,-3.65498 1.14426,0.94965 1.47646,-0.0923 1.94718,-6.1075 0.31214,-3.98888 1.47484,-9.2775 2.58377,-11.7525 2.08793,-4.66006 8.62287,-11.84821 9.74834,-10.72274 0.3523,0.3523 -0.70608,1.77365 -2.35195,3.15856 -3.95064,3.32424 -7.37255,11.50803 -7.94939,19.01161 -0.3311,4.30694 -0.17007,5.62831 0.55835,4.58153 0.56301,-0.80907 1.27459,-1.2201 1.58129,-0.9134 0.74594,0.74593 -0.53792,9.88444 -1.38865,9.88444 -0.36735,0 -2.18792,-1.56826 -4.04572,-3.48502 z"
       style="fill:#fe0000"
       inkscape:connector-curvature="0" />
    <path
       inkscape:connector-curvature="0"
       id="path2993-17"
       d="m 497.00049,470.31528 c 7.59835,1.27592 9.8876,1.23627 14.73239,-0.25513 5.49884,-1.69274 13.23889,-6.95449 13.96684,-9.49478 0.48174,-1.68115 2.07642,-1.78452 2.53271,-0.16419 0.22362,0.79412 0.73045,1.34879 1.12628,1.23262 0.8653,-0.25406 3.02267,-9.3099 2.31266,-9.70789 -0.7375,-0.4134 -6.55269,2.60968 -7.85913,4.08564 -0.96823,1.09387 -0.90108,1.34843 0.46637,1.76791 1.19884,0.36776 0.49455,1.50424 -2.82255,4.55449 -6.8324,6.28279 -13.66595,7.98135 -24.57159,6.10754 -9.3992,-1.61499 -9.4378,-1.61689 -9.10854,-0.44765 0.12557,0.44592 4.27663,1.49056 9.22458,2.32143 z"
       style="fill:#fe0000" />
    <path
       sodipodi:nodetypes="ssssssssssssssssssscssssssscsssssscssssssscssssssssssssssssss"
       inkscape:connector-curvature="0"
       style="fill:#0000fe"
       id="path2991-5"
       d="m 318.49882,484.00019 c -1.18122,-0.50152 -2.46826,-1.43056 -2.86007,-2.06453 -0.39182,-0.63397 0.76702,-0.38764 2.57519,0.5474 3.13471,1.62102 3.35123,1.61324 4.65636,-0.1674 0.75284,-1.02712 1.86013,-3.81476 2.46066,-6.19477 1.0729,-4.25205 1.65905,-4.76737 7.48589,-6.58129 1.97261,-0.61408 2.27766,-0.1588 3.34798,4.9969 1.31779,6.3478 1.14749,6.63343 -5.01834,8.41686 -5.6531,1.63513 -10.34704,2.02364 -12.64767,1.04683 z m 21.30775,-7.80276 c -1.79762,-6.63111 -1.74845,-6.9888 0.8915,-6.48414 1.5689,0.29991 3.25939,-0.18905 4.48345,-1.29682 2.3966,-2.16889 2.45696,-3.26715 0.30998,-5.63955 -0.95313,-1.0532 -1.17496,-1.82874 -0.52305,-1.82874 1.93849,0 4.44125,4.81516 3.81,7.33023 -0.7211,2.87313 -4.13702,7.33452 -6.64236,8.67534 -1.44669,0.77424 -1.95974,0.60766 -2.32952,-0.75632 z m 73.28314,-1.14316 c 1.71415,-3.20292 -0.84465,-6.8716 -5.08547,-7.29128 l -3.18105,-0.31481 5.17298,-5.35556 c 4.33435,-4.48733 5.57977,-5.25347 7.68217,-4.7258 5.65928,1.42039 9.24205,-3.9015 5.38822,-8.00372 -1.24779,-1.3282 -1.75064,-2.41492 -1.11745,-2.41492 0.6332,0 1.85462,1.07345 2.71427,2.38544 1.42155,2.16957 1.41152,2.98847 -0.11078,9.04879 -1.82112,7.24993 -5.27534,13.1317 -9.78397,16.65997 l -2.87785,2.25209 z M 218.60103,460.49363 c -3.04205,-3.04206 -3.13909,-6.77907 -0.40267,-15.50978 2.18484,-6.97084 3.92311,-9.45425 8.1461,-11.63805 4.05248,-2.09562 4.93852,-1.7913 3.56454,1.22425 -1.07215,2.35311 -0.92281,2.84001 1.45689,4.75 l 2.6515,2.12813 -2.2996,3.79497 c -1.26478,2.08723 -4.16074,5.16366 -6.43546,6.83651 -4.23254,3.11265 -5.01291,5.3612 -3.10067,8.93426 1.49773,2.79852 -0.56096,2.49938 -3.58063,-0.52029 z M 78.795699,415.69818 c -1.348911,-1.7875 -3.187393,-5.02974 -4.085515,-7.20499 -0.898121,-2.17524 -3.39529,-6.28919 -5.549264,-9.14211 l -3.916315,-5.18712 3.193128,0.14211 c 2.370545,0.1055 3.434341,-0.40246 4.129478,-1.97182 0.878231,-1.98271 1.189069,-1.8053 5.007811,2.85825 8.976613,10.96246 13.081575,18.65613 9.14878,17.14698 -1.847789,-0.70906 -5.895086,3.33823 -5.186023,5.18602 0.888626,2.31572 -0.125671,1.6398 -2.74208,-1.82732 z m 69.450011,-3.30293 c -4.62042,-1.30831 -8.78291,-2.14256 -9.24999,-1.85389 -0.46708,0.28867 -0.84923,-0.33196 -0.84923,-1.37917 0,-1.04722 -0.91824,-2.73503 -2.04054,-3.75069 -1.95035,-1.76504 -2.17077,-1.76971 -4.98747,-0.10585 -2.34959,1.38794 -2.83356,1.44535 -2.3876,0.28322 0.72097,-1.87886 4.28834,-3.20044 12.58289,-4.66151 9.42038,-1.65938 17.37808,0.15182 20.30701,4.62195 1.47828,2.25614 1.45281,2.39887 -0.42819,2.39887 -2.2393,0 -5.57191,4.34023 -4.57329,5.95603 0.35488,0.57418 0.50616,1.00478 0.3362,0.95688 -0.16996,-0.0479 -4.08936,-1.15753 -8.70979,-2.46584 z" />
    <path
       sodipodi:nodetypes="sssssscccssssccccssccssccccccssssccsssssssssssssscccssssscccssssssccscccsssscccsssssssssscsscssccscccssscccssccsssscsssssscsssssccscccsssssscsssssssssssssssssssccscccsssssssssssssscssssssssssscsssscccscsssccsssssssscssssssscssscsssssssssscssssssssscsssssscccssccsssccscccsssssccsssssssssscccsscccccsscccsscsccssssssscccsscssssssscccsscsssssssssscccssscsssscssscsssscsssssssssscssscsccsssssssscsssccssscccscccssccssssssccccc"
       inkscape:connector-curvature="0"
       id="path2989-76"
       d="m 37.152344,354.31836 c -1.194125,-0.0315 -2.00586,0.49307 -2.00586,1.58594 0,0.56143 3.490242,5.18986 7.75586,10.2832 4.265618,5.09333 9.103118,11.27736 10.75,13.74219 1.646882,2.46484 6.326461,8.76484 10.40039,14 4.073928,5.23517 8.450997,11.86501 9.72461,14.73437 1.273613,2.86936 3.88313,6.95356 5.800781,9.07617 l 3.486328,3.85938 -1.046875,9.64648 c -0.768504,7.07223 -0.739365,11.05457 0.109375,14.92383 2.241072,10.21668 10.163467,48.47563 13.621094,65.77735 1.923488,9.625 3.726166,18.27439 4.005859,19.2207 0.459954,1.55623 -0.761936,1.7499 -12.798828,2.03125 -7.319426,0.17108 154.091392,0.29982 358.691402,0.28906 25.33757,-10e-4 46.56586,0.0124 66.25391,0.004 24.62089,-0.0109 46.86169,-0.0438 72.04688,-0.0547 l -65.52344,-0.5 c -2.11705,10e-4 -3.28093,0.01 -5.70899,0.01 -20.11207,0 -36.56836,-0.14395 -36.56836,-0.32032 0,-0.6393 -7.84914,-39.25228 -8.52343,-41.92968 l -0.69336,-2.75 22.10742,0 c 13.7848,0 22.10937,-0.36889 22.10937,-0.98047 0,-0.60363 -8.53988,-1.08437 -22.20507,-1.25 l -22.20508,-0.26953 -3.65039,-17 c -2.00785,-9.35 -3.39299,-16.43109 -3.45703,-16.97654 -0.43498,-4.12424 0.44869,-6.43116 -0.40821,-7.05081 -0.58098,-0.38483 -1.15424,-0.42607 -1.78906,-0.47265 -3.01745,0 -3.3163,-2.65964 3.21094,28.5 2.53468,12.1 6.18198,29.875 8.10547,39.5 1.92348,9.625 3.73079,18.2875 4.01562,19.25 0.48572,1.64139 -1.49887,1.75 -31.97851,1.75 l -32.4961,0 -1.06445,-5.25 c -0.58481,-2.8875 -2.58073,-12.675 -4.43555,-21.75 -3.45034,-16.88139 -3.33642,-19.84286 0.625,-16.25782 1.68199,1.52217 2.02145,1.51834 4.67774,-0.0508 1.77101,-1.04616 4.99849,-1.6914 8.45898,-1.6914 3.07764,0 5.5957,-0.45 5.5957,-1 0,-0.55 -1.76184,-1 -3.91601,-1 -2.22222,0 -4.11495,-0.54078 -4.375,-1.25 -0.36666,-1 -0.7232,-1 -1.7832,0 -0.72875,0.6875 -2.39637,1.25 -3.70508,1.25 -2.16083,0 -2.31465,-0.29861 -1.68164,-3.25 0.9451,-4.4065 1.22529,-4.75 3.89843,-4.75 2.61759,0 9.64819,-6.33026 11.92969,-10.74219 0.80962,-1.56564 2.21484,-5.71383 3.12305,-9.21875 1.58632,-6.12179 1.57488,-6.47364 -0.26953,-8.95508 -3.26826,-4.39704 -7.49931,-3.96626 -19.33399,1.97266 l -10.29687,5.16797 -2.20703,-2.76758 c -1.6197,-2.03127 -2.06766,-3.62192 -1.68555,-5.97657 0.46086,-2.83993 0.21027,-3.28785 -2.18359,-3.88867 -5.50996,-1.38291 -7.18987,3.30199 -3.12891,8.72461 4.26862,5.69991 4.14214,6.86281 -1.17187,10.83008 -5.56613,4.15551 -10.38589,12.08091 -8.4961,13.9707 1.27741,1.27741 1.55518,1.13095 10.47656,-5.54297 l 4.69336,-3.51171 0.68164,4.54492 c 0.43613,2.90829 0.27658,4.94803 -0.44336,5.66797 -1.82971,1.82971 -1.2934,4.93861 1.32227,7.66992 2.04388,2.13423 3.12322,5.92888 6.55859,23.05469 2.26172,11.275 4.34137,21.2875 4.6211,22.25 0.4755,1.63609 -1.25305,1.75 -26.5586,1.75 -14.88707,2e-5 -27.06836,-0.14395 -27.06836,-0.32032 0,-0.6393 -7.84914,-39.25228 -8.52343,-41.92968 l -0.69336,-2.75 8.60742,0 c 11.31206,0 11.20196,-1.83634 -0.13281,-2.21094 l -8.74219,-0.28906 -0.51758,-2.99805 c -0.43729,-2.53642 0.12501,-3.61273 3.66016,-7 7.87307,-7.54373 6.41866,-14.17587 -3.48438,-15.88867 -5.88253,-1.01743 -6.57872,-2.13039 -6.42773,-10.2793 0.0721,-3.89182 -0.37347,-5.59168 -1.80664,-6.88867 -2.79557,-2.52996 -4.3544,-0.70909 -7.51172,8.77148 l -2.6875,8.06641 -14.11914,-0.48438 c -16.18005,-0.55626 -23.1211,0.56803 -23.1211,3.74805 0,2.25133 4.57976,3.06052 20,3.5293 5.47825,0.16654 7.24673,0.42812 4.51954,0.66797 -2.4642,0.21673 -5.05171,0.86773 -5.75,1.44726 -1.63115,1.35371 -1.65069,9.02709 -0.0274,10.65039 0.98886,0.98886 0.93796,1.43255 -0.25,2.1836 -2.15802,1.36434 -3.63302,1.19121 -5.46875,-0.64454 -2.28885,-2.28885 -3.2282,-0.81648 -1.0293,1.61329 2.13403,2.35806 4.29521,2.5418 7.0625,0.60351 3.56444,-2.49664 8.04017,-2.32438 10.9629,0.41992 3.14976,2.95748 9.31538,3.20125 16.46679,0.65235 2.46716,-0.87955 4.79729,-1.27761 5.17969,-0.88477 0.3824,0.39284 2.78042,11.06485 5.32812,23.71485 2.54771,12.65 4.85941,23.7875 5.13672,24.75 0.47282,1.64116 -1.52054,1.75 -32.0625,1.75 -17.91211,0 -32.56836,-0.14395 -32.56836,-0.32032 0,-0.6393 -7.84914,-39.25228 -8.52343,-41.92968 l -0.69336,-2.75 6.10742,0 c 7.99919,0 7.92194,-1.81842 -0.0937,-2.20313 l -6.20313,-0.29687 -3.77539,-17.5 c -3.17071,-14.70067 -3.58894,-17.96202 -2.61914,-20.38477 0.99076,-2.47512 0.89022,-3.07778 -0.71289,-4.25 -1.02739,-0.75125 -2.51697,-1.36523 -3.31054,-1.36523 -0.79357,0 -3.19518,-0.52463 -5.33594,-1.16602 l -3.89258,-1.16602 3.55469,-2.93164 c 3.54217,-2.91977 7.49804,-9.32159 7.49804,-12.13671 0,-3.20698 -2.401,-2.63501 -6.8457,1.63281 -7.90083,7.58643 -11.81064,10.07021 -14.70508,9.34375 l -2.57031,-0.64453 2.56055,-3.04297 c 1.40809,-1.67341 2.56054,-3.80677 2.56054,-4.74219 0,-2.92275 -2.86741,-5.96094 -6.25195,-6.625 -1.78682,-0.35059 -4.14805,-1.00559 -5.24805,-1.45508 -6.69243,-2.7347 -7.80333,-3.09511 -8.22851,-2.66992 -0.96413,0.96412 0.8451,2.47022 3.72851,3.10352 3.93684,0.86468 4.27728,1.64295 2.79493,6.39257 -0.97261,3.11638 -2.07428,4.38133 -4.94922,5.67774 -5.53405,2.49551 -8.52144,6.21702 -10.78321,13.43359 -2.87136,9.16158 -2.69127,12.51967 0.86133,16.07227 5.22282,5.22282 8.22158,4.11188 21.57617,-8.00196 5.5,-4.98901 10.48068,-9.07162 11.06836,-9.07226 3.31755,-0.004 11.37901,3.25652 11.86914,4.80078 0.63892,2.01308 7.97803,37.24675 13.16407,63.19727 1.92348,9.625 3.73079,18.2875 4.01562,19.25 0.48782,1.64844 -2.09688,1.75 -44.54883,1.75 -24.78707,0 -45.06836,-0.14395 -45.06836,-0.32032 0,-0.6393 -7.84914,-39.25228 -8.52343,-41.92968 l -0.69336,-2.75 10.10742,0 c 13.32452,0 13.24839,-1.84218 -0.0918,-2.21485 l -10.20117,-0.28515 -3.80859,-17.5 c -3.72146,-17.10244 -3.76894,-17.57534 -2.08399,-20.85547 1.64347,-3.19933 1.64014,-3.41948 -0.0859,-4.68164 -1.73903,-1.27161 -4.59448,-10.28372 -6.08593,-19.21289 -0.67786,-4.05827 -0.59618,-4.25 1.79687,-4.25 3.8607,0 5.61356,-0.99086 7.20703,-4.07227 2.19099,-4.23692 1.84106,-7.6343 -0.97656,-9.48047 -1.42783,-0.93555 -2.21146,-2.19399 -1.88867,-3.03515 0.78132,-2.03619 -1.49812,-4.41211 -4.23438,-4.41211 -1.27519,0 -2.59758,-0.45 -2.9375,-1 -0.8896,-1.43939 -2.74278,-1.23419 -2.25781,0.25 0.22464,0.6875 1.94834,1.75867 3.83203,2.38085 3.81331,1.25953 4.16532,2.68887 0.78907,3.21094 -1.21895,0.18848 -3.30994,1.05981 -4.64649,1.93555 -2.23677,1.46559 -2.5051,1.45913 -3.37305,-0.0918 -2.44471,-4.36847 -11.34593,-6.29712 -21.21875,-4.5957 -8.9897,1.54924 -12.08779,3.08824 -13.32421,6.61328 -1.06663,3.041 -10.1833,38.22657 -10.95899,42.29688 -0.65136,3.41792 1.81113,10.5 3.65039,10.5 1.00536,0 1.70042,-1.51455 2.15625,-4.70118 0.72841,-5.0922 14.21275,-40.50326 16.20117,-42.54492 1.14264,-1.17323 5.55769,-0.34604 17.91211,3.35938 2.38437,0.71514 4.07528,4.25363 8.66016,18.11328 4.39416,13.28319 6.63687,23.21721 17.66992,78.27344 1.92882,9.625 3.74056,18.2875 4.02539,19.25 0.48744,1.64714 -1.95403,1.75 -41.54883,1.75 -23.13706,0 -42.06836,-0.14395 -42.06836,-0.32032 0,-0.6393 -7.849146,-39.25228 -8.523433,-41.92968 l -0.693359,-2.75 10.107422,0 c 13.32454,0 13.24839,-1.84218 -0.0918,-2.21485 l -10.201169,-0.28515 -3.808594,-17.5 c -3.64201,-16.73731 -3.737841,-17.63713 -2.1875,-20.66407 1.705878,-3.33062 1.263052,-5.33593 -1.179688,-5.33593 -0.989547,0 -1.305588,-0.72501 -0.980468,-2.25 0.263829,-1.2375 0.965293,-4.95 1.558593,-8.25 1.990126,-11.0693 2.033231,-11.19419 3.128907,-9.23633 1.156858,2.0672 9.746209,2.46279 11.671879,0.53711 1.69521,-1.6952 1.4873,-6.43782 -0.44336,-10.14649 -0.90314,-1.73486 -1.967561,-3.82929 -2.365238,-4.65429 -0.397677,-0.825 -1.643086,-1.5 -2.767578,-1.5 -1.124492,0 -2.384419,-0.3375 -2.800782,-0.75 -1.206642,-1.19544 -2.628993,-0.86824 -2.173828,0.5 0.228707,0.6875 1.690748,1.475 3.25,1.75 1.559252,0.275 3.010329,1.02764 3.22461,1.67187 0.242991,0.73053 -0.345221,0.979 -1.564453,0.66016 -1.07518,-0.28116 -2.855888,-0.0288 -3.957032,0.56054 -1.779155,0.95217 -2.456224,0.37757 -6.068359,-5.16015 -2.235604,-3.42737 -6.664241,-9.38242 -9.841797,-13.23242 -7.369967,-8.92962 -30.768082,-33.25951 -34.982422,-36.375 -1.533079,-1.13334 -3.110561,-1.7224 -4.304687,-1.75391 z m 0.18164,0.62891 c 2.355364,0 7.544192,4.61658 20.8125,18.51953 11.015598,11.54249 13.5,14.6821 13.5,17.0625 0,2.18211 -0.504002,2.96936 -2,3.12304 -4.385572,0.45052 -7.543992,-2.43407 -15.007812,-13.70507 -1.638981,-2.475 -6.47071,-8.66644 -10.736328,-13.75977 -7.665362,-9.15279 -8.885442,-11.24023 -6.56836,-11.24023 z m 36.197266,36.18945 c 0.641109,-0.0222 1.656256,1.13998 4.042969,4.05469 8.976613,10.96247 13.083185,18.65563 9.15039,17.14648 -1.847789,-0.70907 -5.896563,3.33971 -5.1875,5.1875 1.883364,4.90796 -4.627568,-3.7082 -6.826171,-9.0332 -0.898122,-2.17524 -3.396808,-6.28967 -5.550782,-9.14258 l -3.916015,-5.1875 3.193359,0.14258 c 2.370545,0.10551 3.433769,-0.40135 4.128906,-1.97071 0.329337,-0.74352 0.580178,-1.18393 0.964844,-1.19726 z m 74.51758,9.18359 c 6.34963,0.0189 11.37555,1.87593 13.57226,5.22852 1.47828,2.25614 1.45327,2.39844 -0.42773,2.39844 -2.2393,0 -5.57284,4.33927 -4.57422,5.95507 0.3549,0.57419 0.5059,1.00494 0.33594,0.95704 -0.16996,-0.0479 -4.08856,-1.15654 -8.70899,-2.46485 -4.62042,-1.30831 -8.78292,-2.14218 -9.25,-1.85351 -0.46707,0.28867 -0.84961,-0.3317 -0.84961,-1.37891 0,-1.04722 -0.91872,-2.73629 -2.04101,-3.75195 -1.95035,-1.76504 -2.16963,-1.76933 -4.98633,-0.10547 -2.34961,1.38794 -2.83462,1.44532 -2.38867,0.2832 0.72098,-1.87886 4.28944,-3.20105 12.58398,-4.66211 2.3551,-0.41485 4.61784,-0.61177 6.73438,-0.60547 z m -14.14453,5.02344 c 1.58053,0.0368 2.73311,1.24745 3.0664,3.49219 0.17839,1.20148 -3.14683,11.01789 -7.39062,21.81445 -4.24379,10.79658 -7.93645,21.57961 -8.20508,23.96289 -0.26863,2.38328 -0.86304,4.33399 -1.32031,4.33399 -1.20517,0 -3.16678,-7.97114 -2.56446,-10.41993 0.28146,-1.14428 2.7561,-10.60795 5.5,-21.03125 4.35293,-16.53547 5.3336,-19.20237 7.69141,-20.91992 1.17204,-0.85377 2.27435,-1.25448 3.22266,-1.23242 z m 27.32812,3.60352 c 2.58237,0 4.37556,4.22415 6.91406,16.29296 2.7572,13.10852 3.86204,16.53037 5.66797,17.54102 0.87446,0.48937 1.34372,1.514 1.04102,2.27734 -0.38084,0.96044 -0.57626,1.0037 -0.63086,0.13868 -0.0434,-0.6875 -1.1677,-1.25 -2.5,-1.25 -2.19268,0 -2.71368,-0.93701 -5.49414,-9.88672 -1.68943,-5.43792 -4.4203,-12.45099 -6.06836,-15.58399 -3.25892,-6.1953 -2.88473,-9.52929 1.07031,-9.52929 z m 6.90039,0 c 2.22334,0 6.01367,4.49685 6.01367,7.13476 0,1.44703 -0.74679,1.86524 -3.33203,1.86524 -2.96555,0 -3.45598,-0.40235 -4.45703,-3.66407 -1.27934,-4.16849 -0.89139,-5.33593 1.77539,-5.33593 z m -82.564451,4.30078 c 0.717587,-0.0387 1.506329,0.22571 2.291016,0.87695 1.594551,1.32335 1.575359,1.53511 -1.550781,17.31641 -2.054086,10.36939 -2.014586,11.50586 0.396484,11.50586 0.792541,0 1.441406,0.675 1.441406,1.5 0,0.825 -0.225,1.5 -0.5,1.5 -0.275,0 -0.5,-0.45 -0.5,-1 0,-0.55 -1.125,-1 -2.5,-1 -2.92139,0 -3.017063,-0.86674 -1.53125,-13.78907 0.591491,-5.14433 0.598327,-9.21788 0.01953,-10.74023 -1.224079,-3.21957 0.280831,-6.05369 2.433593,-6.16992 z m 6.578125,2.69922 c 2.348764,0 6,3.34697 6,5.5 0,2.12453 -6.573845,2.05151 -7.392578,-0.082 -1.224871,-3.19199 -0.65294,-5.41796 1.392578,-5.41796 z m 171.203126,7 c 2.92006,0 -1.89678,9.90055 -6.53906,13.4414 -3.8058,2.90282 -4.27804,2.97902 -7.47852,1.20313 l -2.31445,-1.28321 3.84765,-2.66601 c 2.11596,-1.46636 5.61163,-4.47375 7.76758,-6.68164 2.15595,-2.20789 4.27844,-4.01367 4.7168,-4.01367 z m -24.05469,4.07226 c 1.19112,0.0222 2.31913,0.53789 3.32813,1.54688 1.49176,1.49181 1.48484,1.76649 -0.084,3.5 -2.14028,2.36499 -3.26284,2.33731 -6.39258,-0.1543 -2.44602,-1.94729 -2.4578,-2.02119 -0.55859,-3.47656 1.26139,-0.9666 2.5159,-1.43826 3.70703,-1.41602 z m -9.37304,4.97852 c 0.81863,0.0359 0.7592,0.87407 -0.0137,2.57031 -1.07215,2.35311 -0.92268,2.84001 1.45703,4.75 l 2.65235,2.12891 -2.29883,3.79492 c -1.26478,2.08723 -4.16083,5.16309 -6.43555,6.83593 -4.23254,3.11265 -5.0138,5.36249 -3.10156,8.93555 1.49773,2.79852 -0.5604,2.49819 -3.58008,-0.52148 -3.04206,-3.04206 -3.13876,-6.77906 -0.40234,-15.50977 2.18483,-6.97084 3.92153,-9.45292 8.14453,-11.63672 1.77296,-0.91684 2.94142,-1.37561 3.57813,-1.34765 z m 3.25976,0.1289 c 1.04129,-0.0146 2.63092,0.76262 5.56055,2.32032 2.58601,1.375 5.25261,2.5 5.92578,2.5 0.67317,0 3.24362,0.89295 5.71094,1.98437 2.46733,1.09141 6.91184,2.6362 9.87695,3.43359 2.96508,0.79739 4.60311,1.47943 3.64062,1.51563 -0.9625,0.0362 -1.75,0.51641 -1.75,1.06641 0,1.31091 0.22719,1.35724 -12.5,-2.58789 -6.30854,-1.95549 -12.07461,-3.18326 -13.51953,-2.88086 -1.40458,0.29396 -3.37885,-0.10135 -4.46093,-0.89258 -1.67182,-1.22247 -1.77607,-1.78161 -0.75196,-4.0293 0.73309,-1.60896 1.22628,-2.41512 2.26758,-2.42969 z m 5,7.92969 c 0.15998,-0.007 0.31569,0.004 0.46484,0.0332 1.57857,0.30401 1.18117,0.94066 -2.29687,3.69532 -4.64607,3.67975 -5.41802,3.19227 -1.90234,-1.20118 1.25346,-1.5664 2.61443,-2.47786 3.73437,-2.52734 z m 3.13477,0.85938 4.14453,1.11523 4.14258,1.11523 -4.15821,3.6504 c -2.28695,2.00749 -7.00246,6.18123 -10.47851,9.27343 -7.50243,6.67396 -10.23806,7.83358 -11.75977,4.99024 -2.15031,-4.01789 -1.13353,-5.55158 8.5293,-12.87891 z m 89.62695,1.19726 c 0.4436,-0.0528 0.92904,0.16147 1.40234,0.63477 0.93333,0.93333 0.82222,1.19922 -0.5,1.19922 -1.189,0 -1.69831,0.82661 -1.69531,2.75 0.006,3.38613 -2.64948,17.82084 -4.64453,25.25 -2.3391,8.71021 -3.50085,11.16347 -5.00195,10.55273 -3.7081,-1.50876 -4.55578,-1.50499 -1.9336,0.008 2.77663,1.60177 2.99314,1.59321 4.29688,-0.18554 0.75501,-1.03009 1.86236,-3.82118 2.46289,-6.20118 1.0729,-4.25205 1.65949,-4.76615 7.48633,-6.58007 1.97261,-0.61408 2.27733,-0.15961 3.34765,4.99609 1.31779,6.3478 1.14825,6.63454 -5.01758,8.41797 -12.70901,3.67601 -19.19493,0.12985 -13.54882,-7.4082 1.27573,-1.70322 3.08328,-5.79766 4.01562,-9.09766 2.53999,-8.99021 7.51826,-22.87028 8.58984,-23.94922 0.2233,-0.22482 0.47407,-0.3531 0.74024,-0.38477 z m 55.13672,2.49024 c 0.50645,0.0775 1.09242,1.11464 1.4082,3.06054 0.32826,2.02269 0.46777,3.80764 0.31055,3.96485 -0.75423,0.75423 -2.65235,-2.33917 -2.65235,-4.32227 0,-1.89759 0.42716,-2.78062 0.9336,-2.70312 z m 31.87304,2.34375 c 1.97963,0 6.19336,3.90624 6.19336,5.74218 0,2.375 -3.20865,4.36995 -6.03125,3.75 -2.04241,-0.44859 -4.6663,0.33796 -9.85156,2.94922 -3.88713,1.95753 -7.21899,3.5586 -7.40429,3.5586 -0.1853,0 -1.3283,-1.34212 -2.54102,-2.98243 l -2.20508,-2.98242 9.99805,-5.01758 c 5.49933,-2.75969 10.82767,-5.01757 11.84179,-5.01757 z m 3.9961,0 c 0.6332,0 1.86018,1.082 2.72656,2.40429 1.43601,2.19159 1.42992,2.96074 -0.0586,8.70508 -2.07279,7.99917 -3.63025,10.97655 -7.92188,15.14453 -2.56698,2.49303 -4.45704,3.40824 -7.40234,3.58203 -3.57102,0.2107 -4.29237,-0.18238 -7.41602,-4.05078 -5.25578,-6.50889 -8.47569,-11.93559 -9.21875,-15.53515 -0.36899,-1.7875 -0.47293,-3.25 -0.23047,-3.25 0.24245,0 3.02605,3.375 6.18555,7.5 5.1353,6.70459 6.10085,7.5 9.10352,7.5 3.69653,0 5.84466,2.51317 4.85156,5.67773 -0.5488,1.74879 -0.52654,1.7484 0.58203,0.0176 1.73102,-2.70266 -1.09427,-6.47985 -5.14648,-6.88086 l -3.18164,-0.31445 5.17382,-5.35547 c 4.33435,-4.48733 5.57924,-5.25424 7.68164,-4.72657 5.65928,1.42039 9.24251,-3.90168 5.38868,-8.0039 -1.24779,-1.32822 -1.75038,-2.41406 -1.11719,-2.41406 z m -91.23633,5.31835 c 0.54391,0.06 1.32762,1.51072 1.64453,3.66993 0.36158,2.46361 0.0914,3.01172 -1.49023,3.01172 -1.35251,0 -1.75267,-0.47571 -1.32813,-1.58204 0.33385,-0.86998 0.60742,-2.47113 0.60742,-3.55859 0,-1.11252 0.24006,-1.57699 0.56641,-1.54102 z m 80.89453,6.68165 c 0.29691,0 -1.26094,1.8 -3.46094,4 -2.2,2.2 -4.17642,4 -4.39257,4 -0.49455,0 -1.75119,-3.2028 -1.38086,-3.51954 0.64379,-0.55061 8.74323,-4.48046 9.23437,-4.48046 z m -107.63086,0.625 c 1.58136,0.0168 3.25188,0.0587 5.00196,0.12695 12.97011,0.50579 13.31581,0.57573 12.76367,2.63281 -0.31213,1.16289 -0.57404,2.45274 -0.58203,2.86524 -0.0145,0.79928 -0.5436,0.79063 -17.51368,-0.29297 -6.05,-0.38631 -12.4625,-0.76008 -14.25,-0.83008 -1.97161,-0.0772 -3.25,-0.64931 -3.25,-1.45508 0,-2.04468 6.76053,-3.16449 17.83008,-3.04687 z m 34.59571,0.375 c 1.35481,0 3.7244,1.09777 5.26757,2.43945 2.30665,2.00546 2.61011,2.76149 1.70508,4.25 -0.60548,0.99582 -2.26161,1.95063 -3.68164,2.12109 -2.73736,0.3286 -3.90106,-1.0549 -5.09766,-6.06054 -0.58175,-2.43365 -0.37327,-2.75 1.80665,-2.75 z m -7.21485,0.15234 c 1.27611,0.0114 1.81081,0.89421 2.5332,3.74023 0.98972,3.89913 0.94158,4.02058 -2.01367,5.05078 -3.58617,1.25014 -6.11136,1.29465 -3.23047,0.0566 1.1,-0.47269 1.41017,-0.89109 0.68946,-0.92969 -0.894,-0.048 -1.21174,-1.26186 -1,-3.82031 0.24284,-2.93403 0.77084,-3.81654 2.42578,-4.05274 0.21521,-0.0307 0.4134,-0.0466 0.5957,-0.0449 z m 13.61133,0.84766 c 0.62256,0 1.8673,1.12119 2.76563,2.49218 1.90046,2.90046 1.38121,6.00494 -1.64454,9.85157 -3.06024,3.89046 -5.68684,5.1061 -6.2832,2.90625 -1.79762,-6.63111 -1.74932,-6.98904 0.89063,-6.48438 1.56889,0.29992 3.2603,-0.1891 4.48437,-1.29687 2.3966,-2.16889 2.45754,-3.26823 0.31055,-5.64063 -0.95313,-1.05319 -1.17534,-1.82812 -0.52344,-1.82812 z m 44.61133,0.82226 c 0.32023,0.0263 0.57479,0.16495 0.74414,0.43164 1.95229,3.07445 0.72407,5.53245 -4.84766,9.69922 -6.52173,4.87726 -8.33008,5.75286 -8.33008,4.03906 0,-4.28485 9.33807,-14.42368 12.4336,-14.16992 z m 4.91992,3.24414 c 0.29012,-0.0563 1.28739,0.98192 2.60156,2.77149 3.02132,4.11431 3.09152,4.40961 1.36524,5.70117 -1.6918,1.26577 -1.65886,1.32003 0.46289,0.78515 1.45969,-0.36797 3.01195,0.0859 4.30469,1.25586 l 2.02148,1.82813 -2.30469,1.77344 c -3.93269,3.02596 -5.06097,2.06777 -6.6875,-5.68164 -0.69264,-3.3 -1.50527,-6.9 -1.80469,-8 -0.0749,-0.275 -0.0557,-0.41485 0.041,-0.4336 z m -80.57422,1.9336 3.10938,0 c 2.04185,0 3.11132,0.49557 3.11132,1.4414 0,2.33915 -1.35126,2.50249 -3.86523,0.4668 z m -2.41406,1 c 1.30083,0 3.54409,0.92762 4.98437,2.06054 2.49642,1.96369 2.54372,2.17379 1.01953,4.5 -1.85239,2.82713 -1.97374,2.84484 -5.61914,0.86719 -2.04721,-1.11064 -2.75,-2.24943 -2.75,-4.45898 0,-2.45413 0.40963,-2.96875 2.36524,-2.96875 z m 94.55078,20.12304 c 0.34739,0.0143 0.64635,0.1073 0.8125,0.27344 0.33229,0.33229 -0.25834,0.56878 -1.3125,0.52539 -1.16495,-0.048 -1.40125,-0.28625 -0.60352,-0.60547 0.36094,-0.14446 0.75612,-0.20767 1.10352,-0.19336 z"
       style="fill:#000000" />
    <path
       inkscape:connector-curvature="0"
       id="path4162"
       d="m 657.65471,399.98434 c -1.43598,0.0969 -1.44351,0.15424 -0.0684,0.51953 0.87675,0.23289 1.74897,1.70447 2.01953,3.40625 0.68347,4.29904 5.58835,17.11833 9.14648,23.90625 1.67457,3.1946 3.16313,5.80859 3.3086,5.80859 0.14547,0 1.34729,-0.41119 2.66992,-0.91406 2.67238,-1.01603 3.31756,-4.41955 1.00586,-5.30664 -2.01599,-0.77361 -9.37802,-12.1771 -13.19727,-20.44336 -2.30441,-4.98761 -3.74988,-7.05316 -4.88476,-6.97656 z m -135.5918,0.19922 c -2.55764,0.008 -3.36523,1.11151 -3.36523,3.31445 0,1.45714 0.73827,3.28694 1.64062,4.06641 1.76487,1.52455 29.00392,13.43427 40.54688,17.72851 3.86719,1.43868 7.32339,2.63701 7.67968,2.66211 1.66804,0.11737 1.74373,-2.2894 0.16407,-5.22266 -1.52004,-2.82254 -2.69576,-3.53448 -9.2461,-5.59765 -27.46515,-8.65076 -37.13927,-11.84119 -36.83007,-12.15039 0.19404,-0.19405 10.24702,2.83683 22.33984,6.73633 27.06152,8.7264 26.49781,8.6111 28.42383,5.86132 0.83232,-1.18833 1.20224,-2.43998 0.82031,-2.78125 -0.38194,-0.34128 -6.39062,-2.17518 -13.35156,-4.07421 -6.96093,-1.89904 -18.19177,-5.17596 -24.95703,-7.28321 -7.00021,-2.18043 -11.30759,-3.26799 -13.86524,-3.25976 z m 86.11719,11.47461 c -4.72342,0.10859 -13.54492,2.25804 -13.54492,3.5332 0,0.50234 2.04933,0.56925 4.92187,0.16016 2.70703,-0.38552 6.92578,-0.6806 9.375,-0.6543 5.46088,0.0585 6.18344,-2.10748 0.98438,-2.95117 -0.46981,-0.0762 -1.06156,-0.10341 -1.73633,-0.0879 z m 11.47266,0.40429 c -1.19375,0 -3.45508,6.16205 -3.45508,9.41602 0,2.73819 1.13082,1.72259 3.61132,-3.24414 2.10292,-4.21069 2.05346,-6.17188 -0.15624,-6.17188 z m -3.11329,1.26172 c -0.14209,-0.0215 -0.23945,0.32132 -0.26757,1.00391 -0.0407,0.98828 0.18066,1.542 0.49218,1.23047 0.31151,-0.31152 0.34503,-1.12012 0.0742,-1.79688 -0.11222,-0.28045 -0.21357,-0.42459 -0.29883,-0.4375 z m 6.51368,1.67969 c -0.74183,-0.0167 -1.23047,0.44507 -1.23047,1.20898 0,0.86966 0.80157,1.47461 1.95312,1.47461 2.28474,0 1.96135,-2.19033 -0.39062,-2.64648 -0.11564,-0.0224 -0.22606,-0.0347 -0.33203,-0.0371 z m -20.51172,0.87109 c -1.77922,0 -2.87806,2.03473 -3.5918,4.52344 -0.79915,2.78645 -0.24012,2.05046 1.64648,3.57813 3.11489,2.52229 5.53911,2.22631 6.29102,-0.76954 0.87183,-3.47362 -1.41456,-7.33203 -4.3457,-7.33203 z m 63.02734,8.29688 c -0.23483,0.004 -0.32899,0.55264 -0.45508,1.55078 -0.16616,1.31539 0.20233,2.99798 0.81836,3.74023 0.61601,0.74226 1.71377,1.34961 2.43945,1.34961 0.99764,0 0.7977,-0.91156 -0.81835,-3.74023 -1.1469,-2.00749 -1.68246,-2.90499 -1.98438,-2.90039 z m -67.57617,2.21289 c -0.84458,0.005 -1.56559,0.22048 -2.36524,0.64844 -2.88083,1.54177 -1.96708,2.08014 4.85157,2.85547 11.59301,1.3182 12.90625,1.18555 12.90625,-1.29883 0,-2.14729 -0.15109,-2.19368 -4.45313,-1.36328 -3.0399,0.58678 -5.52643,0.51478 -7.83398,-0.22657 -1.29297,-0.41537 -2.2609,-0.62031 -3.10547,-0.61523 z m 89.50195,22.76953 c -0.72116,-0.0598 -1.33768,0.0972 -1.92969,0.41406 -4.59099,2.45703 -3.07751,4.12862 25.32032,27.97852 13.98397,11.74442 16.92083,13.69062 16.83593,11.15625 -0.0972,-2.89759 -4.29869,-7.81861 -18.71679,-21.92774 -13.31849,-13.03306 -18.38473,-17.36211 -21.50977,-17.62109 z"
       style="fill:#fefefe"
       sodipodi:nodetypes="ccsssssscccssscsscsssssccsscccssssccsccccssccssssscscssccssssccccscsc" />
    <path
       sodipodi:nodetypes="sssssscsssssssssssssscs"
       style="fill:#0000fe"
       d="m 678.43304,448.15674 c -2.12222,-2.0625 -4.75894,-5.52616 -5.85937,-7.69703 -2.06655,-4.07674 -2.64846,-7.34515 -1.14197,-6.41409 1.50036,0.92727 5.8659,-1.30673 6.37765,-3.26368 0.75691,-2.89442 2.90396,-0.5861 6.13289,6.59355 1.50731,3.35156 4.2838,7.72394 6.16997,9.71639 l 3.42941,3.62264 -3.05534,-1.54172 c -3.15169,-1.59033 -5.78033,-1.03523 -7.45138,1.57356 -0.53117,0.82925 -1.84439,0.0903 -4.60186,-2.58962 z m -96.45392,-19.16897 c -1.03125,-0.47052 -4.0766,-0.88515 -6.76745,-0.92139 -3.8229,-0.0515 -4.78083,-0.35676 -4.38189,-1.3964 0.28081,-0.73178 -0.20282,-2.41928 -1.07474,-3.75 -1.52947,-2.33427 -1.51646,-2.41949 0.36944,-2.41949 1.07512,0 2.86309,-1.22858 3.97327,-2.73018 1.97352,-2.66933 2.09922,-2.70171 5.6393,-1.4527 3.1124,1.09812 4.29725,1.07661 8.43862,-0.15325 3.43782,-1.02092 5.10668,-1.14189 5.82627,-0.4223 0.55464,0.55463 1.9568,1.00843 3.11591,1.00843 1.93119,0 2.02604,0.23361 1.13399,2.79258 -0.53543,1.53591 -0.79957,3.31437 -0.58698,3.95211 1.0946,3.28382 -11.13838,7.56738 -15.68574,5.49259 z"
       id="path4158"
       inkscape:connector-curvature="0" />
    <path
       inkscape:connector-curvature="0"
       id="path3402"
       d="m 627.44787,426.55689 c 0,-0.27835 0.78672,-2.07132 1.74825,-3.98437 2.84038,-5.65117 3.22878,-9.99692 1.42557,-15.95042 -0.9246,-3.05262 -1.77951,-4.63754 -1.99566,-3.69973 -0.66315,2.8772 -1.76924,1.77399 -2.81846,-2.81112 -0.56029,-2.44846 -0.91038,-4.56008 -0.77798,-4.69248 0.44573,-0.44573 8.02774,3.98059 8.03555,4.6911 0.005,0.38671 -0.67674,0.70312 -1.5133,0.70312 -1.0809,0 -1.2557,0.33911 -0.60406,1.17188 1.57728,2.01572 3.18047,10.20262 2.59551,13.25437 -0.7351,3.83509 -4.3283,11.82375 -5.31817,11.82375 -0.42748,0 -0.77725,-0.22774 -0.77725,-0.5061 z"
       style="fill:#fe0000" />
    <path
       inkscape:connector-curvature="0"
       id="path4154-3"
       d="m 657.809,399.02731 c -0.51018,-0.0653 -0.98762,0.16145 -1.46679,0.64062 -0.65672,0.65671 -0.92705,15.50463 -0.82422,45.125 l 0.15234,44.14453 -7.08007,0 c -4.09516,0 -7.08008,0.39526 -7.08008,0.9375 0,0.54167 2.96876,0.9375 7.03125,0.9375 l 7.03125,0 0,21.09375 0,21.09375 -19.6875,0 -19.6875,0 0,-53.86328 0,-53.86523 2.41211,-3.55469 c 1.81438,-2.67364 2.95304,-3.4831 4.59765,-3.26758 3.67782,0.48195 3.86855,-1.74709 0.39844,-4.65234 -2.27178,-1.90198 -3.83327,-2.52152 -5.42578,-2.15235 -2.21795,0.51415 -2.23056,0.47238 -1.59375,-5.15625 0.64052,-5.66146 0.63562,-5.67578 -1.81641,-5.67578 -2.44006,0 -2.45186,0.0389 -1.79492,5.29688 l 0.66211,5.29687 -3.66211,-0.58593 c -2.66941,-0.42685 -6.75468,0.27158 -15.08203,2.57812 l -11.41992,3.16211 -8.7168,-2.75 c -4.79341,-1.51269 -13.5664,-4.03083 -19.49609,-5.5957 -5.92968,-1.56486 -15.51266,-4.37902 -21.29492,-6.25391 -8.46956,-2.74625 -11.02092,-3.23151 -13.125,-2.49609 -3.55076,1.24105 -4.08604,5.73764 -1.01368,8.50195 1.90299,1.71219 25.97647,12.60048 40.1211,18.14648 4.92582,1.93138 18.19923,3.88067 27.1875,3.99219 2.32032,0.0288 9.17577,0.46919 15.23437,0.98047 l 11.01563,0.92969 0,28.47461 0,28.47265 -32.0625,-0.24609 -32.0625,-0.24805 -3.48242,-16.29297 c -2.1235,-9.9306 -3.28515,-17.52747 -2.97266,-19.45312 0.47851,-2.94874 0.3402,-3.16016 -2.07617,-3.16016 -3.06501,0 -3.34406,-2.65271 2.80859,26.71875 2.37625,11.34375 5.79634,28.00782 7.59961,37.03125 1.80326,9.02344 3.49664,17.14453 3.76367,18.04688 0.45413,1.5346 -1.1867,1.64062 -25.39453,1.64062 l -20.60156,0 0,0.46289 c 114.44239,-0.0463 200.50889,-0.12444 185.76758,-0.22851 l -36.36914,-0.25586 0.27539,-66.0586 c 0.24242,-58.08077 0.10555,-66.10634 -1.13086,-66.44335 -1.07916,-0.29415 -1.03022,-0.40869 0.20703,-0.49219 1.13488,-0.0765 2.58035,1.98895 4.88476,6.97656 3.81926,8.26626 11.18128,19.66975 13.19727,20.44336 2.3117,0.88709 1.66652,4.29061 -1.00586,5.30664 -1.32262,0.50287 -2.52443,0.91406 -2.66992,0.91406 -0.74701,0 -7.11135,-13.45477 -8.86914,-18.75 -1.11257,-3.35156 -2.4788,-6.72656 -3.03516,-7.5 -0.81382,-1.13135 -0.88303,-1.03971 -0.35547,0.46875 4.21029,12.03856 4.83398,14.44677 4.43946,17.13477 -0.49134,3.34779 0.85471,5.58094 4.10937,6.81836 1.44581,0.5497 1.93148,1.336 1.60156,2.59765 -0.76988,2.94401 3.11581,9.26155 10.29883,16.74415 7.31256,7.61752 44.93971,39.67382 46.56836,39.67382 1.76264,0 2.05808,-2.56133 0.61133,-5.30468 -0.77233,-1.46451 -9.8761,-11.18544 -20.22852,-21.60157 -17.16806,-17.27374 -19.10063,-19.5518 -22,-25.91406 -1.95223,-4.2839 -4.27315,-7.78349 -6.01367,-9.07031 -2.48546,-1.83758 -2.76992,-2.51293 -2.32031,-5.49219 0.72156,-4.78123 1.60171,-5.31949 3.91016,-2.38477 2.47589,3.14759 3.77214,2.30143 1.58593,-1.03515 -1.82275,-2.78187 -4.03186,-3.89392 -5.27148,-2.6543 -0.46987,0.46987 -2.59967,0.68795 -4.73438,0.48438 l -3.88281,-0.36914 -4.19726,-8.86133 c -3.10623,-6.5573 -4.9382,-9.38608 -6.46876,-9.58203 z m -135.74609,1.15625 c 2.55765,-0.008 6.86503,1.07933 13.86524,3.25976 6.76526,2.10725 17.9961,5.38417 24.95703,7.28321 6.96094,1.89904 12.96962,3.73294 13.35156,4.07421 0.38193,0.34128 0.012,1.59292 -0.82031,2.78125 -1.92602,2.74978 -1.36231,2.86508 -28.42383,-5.86132 -12.09282,-3.89951 -22.14579,-6.93038 -22.33984,-6.73633 -0.3092,0.3092 9.36492,3.49963 36.83007,12.15039 6.55034,2.06317 7.72606,2.77511 9.2461,5.59765 0.95773,1.77841 1.45712,3.69049 1.11133,4.25 -0.3458,0.55951 -0.91912,0.99776 -1.2754,0.97266 -3.16453,-0.22268 -45.69764,-18.20606 -48.22656,-20.39062 -0.90235,-0.77947 -1.64062,-2.60927 -1.64062,-4.06641 0,-2.20294 0.80759,-3.30623 3.36523,-3.31445 z m 85.33008,11.52734 c 3.45313,-0.11638 5.99219,0.5224 5.99219,1.81641 0,0.8352 -1.40052,1.20262 -4.45313,1.16992 -2.44922,-0.0262 -6.66797,0.26878 -9.375,0.6543 -6.85784,0.97665 -6.23255,-0.67267 0.98438,-2.59571 2.37838,-0.63375 4.77968,-0.97509 6.85156,-1.04492 z m 12.25977,0.35156 c 2.20971,0 2.25915,1.96119 0.15624,6.17188 -2.48051,4.96673 -3.61132,5.98233 -3.61132,3.24414 0,-3.25397 2.26134,-9.41602 3.45508,-9.41602 z m -3.11329,1.26172 c 0.0853,0.0129 0.18661,0.15705 0.29883,0.4375 0.27082,0.67676 0.2373,1.48536 -0.0742,1.79688 -0.31152,0.31153 -0.53288,-0.24219 -0.49218,-1.23047 0.0281,-0.68259 0.12547,-1.02542 0.26757,-1.00391 z m -9.24804,1.62891 2.8125,0.5625 c 1.54688,0.30917 2.98827,0.71317 3.20312,0.89844 1.19832,1.03341 -0.78368,0.92235 -3.20312,-0.17969 z m 16.06836,0.0996 c 0.80518,0.0694 1.68319,0.57592 1.97851,1.46289 0.22886,0.68735 -0.41689,1.17187 -1.5625,1.17187 -1.15155,0 -1.95312,-0.60495 -1.95312,-1.47461 0,-0.8615 0.73192,-1.22957 1.53711,-1.16015 z m -30.61133,0.23828 c 0.58005,0.0303 0.98406,0.18132 1.2539,0.45117 0.55464,0.55463 1.95613,1.00781 3.11524,1.00781 1.93119,0 2.02681,0.234 1.13476,2.79297 -0.53538,1.53591 -0.80048,3.31539 -0.58789,3.95313 0.21258,0.63774 -1.11918,2.18416 -2.96093,3.4375 -3.60601,2.45395 -9.69448,3.43722 -12.72461,2.05468 -1.03125,-0.47052 -4.07673,-0.88557 -6.76758,-0.92187 -3.8229,-0.0515 -4.7798,-0.35684 -4.38086,-1.39649 0.28081,-0.73178 -0.20425,-2.41928 -1.07617,-3.75 -1.52947,-2.33429 -1.51481,-2.41992 0.37109,-2.41992 1.07512,0 2.86248,-1.22887 3.97266,-2.73047 1.97352,-2.66933 2.09859,-2.70018 5.63867,-1.45117 3.1124,1.09812 4.29808,1.07557 8.43945,-0.15429 2.14864,-0.63808 3.60551,-0.92356 4.57227,-0.87305 z m 9.79297,0.58398 c 2.93114,0 5.21753,3.85841 4.3457,7.33203 -0.75191,2.99584 -3.17613,3.29182 -6.29102,0.76954 -1.8866,-1.52767 -2.44563,-0.79168 -1.64648,-3.57813 0.71374,-2.4887 1.81258,-4.52344 3.5918,-4.52344 z m 8.52734,3.36719 c 0.17384,-0.0207 0.39575,0.2726 0.70117,0.81836 0.53409,0.95438 1.13059,3.76413 1.32617,6.24414 l 0.35547,4.50781 -3.54882,-0.12695 c -5.6579,-0.20451 -15.24879,-1.4148 -15.83204,-1.99805 -0.29373,-0.29374 0.40681,-1.03892 1.55664,-1.65429 1.59131,-0.85167 2.89771,-0.86189 5.47071,-0.0449 2.29384,0.72833 4.73682,0.79414 7.59961,0.20704 2.32032,-0.47585 3.57418,-0.9103 2.78711,-0.9668 -1.10233,-0.0791 -1.34516,-0.99907 -1.0586,-4.00391 0.19499,-2.04469 0.35285,-2.94789 0.64258,-2.98242 z m 54.5,4.92969 c 0.30192,-0.005 0.83748,0.8929 1.98438,2.90039 1.61605,2.82867 1.816,3.74023 0.81835,3.74023 -2.03127,0 -3.59271,-2.4387 -3.25781,-5.08984 0.12609,-0.99814 0.22025,-1.54721 0.45508,-1.55078 z m 13.06445,5.41015 c 1.07454,-0.23532 2.8869,2.40824 5.3086,7.79297 1.50731,3.35156 4.28375,7.72435 6.16992,9.7168 l 3.42969,3.62305 -3.05469,-1.54297 c -2.28144,-1.15121 -3.51905,-1.29236 -4.88281,-0.5625 -1.00451,0.5376 -2.15956,1.49851 -2.56836,2.13672 -1.02069,1.59346 -7.83606,-5.1089 -10.46094,-10.28711 -2.06655,-4.07674 -2.64907,-7.34513 -1.14258,-6.41407 1.50036,0.92727 5.8652,-1.30672 6.37695,-3.26367 0.18923,-0.7236 0.46605,-1.12077 0.82422,-1.19922 z m 8.86133,19.57228 c 3.12504,0.25898 8.19128,4.58803 21.50977,17.62109 14.4181,14.10913 18.61959,19.03015 18.71679,21.92774 0.085,2.53437 -2.85196,0.58817 -16.83593,-11.15625 -28.39783,-23.8499 -29.91131,-25.52149 -25.32032,-27.97852 0.59201,-0.31683 1.20853,-0.47382 1.92969,-0.41406 z m -138.0625,41.6582 31.97656,0 31.97657,0 0,21.09375 0,21.09375 -27.65625,0 c -15.21093,0 -27.65625,-0.13543 -27.65625,-0.30078 0,-0.59934 -7.36004,-36.79853 -7.99219,-39.30859 z"
       style="fill:#000000"
       sodipodi:nodetypes="csccsssccccccccsssssccccccsssssssccccccssssssccccsscsssssssssssssssssssscccccssccssssccsscsscsssssssccccccccccccssscscsccsscsssssssssssscssccccsscscccsssccscccssssscsssssscccccsscc" />
    <path
       inkscape:connector-curvature="0"
       id="path4156"
       d="m 579.11829,404.01324 c 0.82438,1.68054 1.34526,3.25636 1.15751,3.50183 -0.18774,0.24545 -1.72253,0.0311 -3.41064,-0.4764 -2.41873,-0.72711 -3.04066,-1.2105 -2.93418,-2.28052 0.10254,-1.03053 -0.41174,-1.28508 -2.13345,-1.05591 -2.14255,0.28515 -2.36895,0.57902 -4.07581,5.29026 -2.10257,5.80359 -2.18698,12.63335 -0.24588,19.88691 1.65695,6.19165 5.63152,11.81576 8.27581,11.71053 2.52292,-0.1004 2.41265,1.62567 -0.12545,1.96382 -1.83234,0.24412 -2.51304,-0.21063 -4.9969,-3.33827 -7.71396,-9.7133 -8.22965,-32.82048 -0.82072,-36.77537 1.32231,-0.70586 3.17094,-0.96177 4.10804,-0.56868 1.00893,0.4232 1.86606,0.16413 2.10158,-0.63523 0.50238,-1.70497 1.21428,-1.06725 3.1001,2.77708 z"
       style="fill:#fe0000" />
    <path
       sodipodi:nodetypes="sssssssscssssssscsssssssssssssssssssssssss"
       style="fill:#000000"
       d="m 545.46656,374.47611 c 0,-4.16242 -0.1868,-4.64679 -1.40187,-3.63521 -1.14067,0.94962 -1.40187,0.90376 -1.40187,-0.24614 0,-1.22761 3.69562,-4.44136 5.10731,-4.44136 0.27509,0 0.50016,2.95312 0.50016,6.5625 0,5.20834 -0.28927,6.5625 -1.40186,6.5625 -1.06366,0 -1.40187,-1.15859 -1.40187,-4.80229 z m 7.41365,3.31992 c -0.96563,-1.16715 -0.98828,-1.86492 -0.10651,-3.28125 0.87016,-1.39773 0.87016,-2.20004 0,-3.59776 -0.88177,-1.41634 -0.85912,-2.11411 0.10651,-3.28125 2.83588,-3.4277 9.07112,-0.40766 6.77453,3.28125 -0.87017,1.39772 -0.87017,2.20003 0,3.59776 1.42628,2.29097 -0.35958,4.76362 -3.44052,4.76362 -1.15917,0 -2.65948,-0.66707 -3.33401,-1.48237 z m 4.55796,-2.03325 c -0.37937,-1.97611 -2.03802,-1.8515 -2.4607,0.18485 -0.17631,0.84936 0.33887,1.45577 1.23675,1.45577 0.96258,0 1.42096,-0.61444 1.22395,-1.64062 z m 0.17792,-6.38346 c 0,-0.74301 -0.63084,-1.35092 -1.40187,-1.35092 -1.40769,0 -1.9212,1.97905 -0.80422,3.09951 0.87218,0.87491 2.20609,-0.18236 2.20609,-1.74859 z m 6.14152,8.42586 c -3.10372,-3.11341 -1.09807,-11.65178 2.73698,-11.65178 2.34879,0 4.20561,2.89741 4.20561,6.5625 0,3.66508 -1.85682,6.5625 -4.20561,6.5625 -0.69759,0 -1.92924,-0.66294 -2.73698,-1.47322 z m 3.96896,-5.66886 c -0.16357,-2.00155 -0.71796,-3.63917 -1.23198,-3.63917 -1.09176,0 -1.79234,5.59576 -0.96979,7.74601 0.99994,2.61396 2.5194,-0.2202 2.20177,-4.10685 z m 5.20591,-1.69842 c -0.93053,-2.4325 0.37372,-4.44299 2.67008,-4.11588 1.54461,0.22002 2.10699,0.92569 2.10699,2.64388 0,1.71818 -0.56238,2.42385 -2.10699,2.64388 -1.26381,0.18002 -2.33232,-0.28894 -2.67008,-1.17188 z m 3.3752,-1.472 c 0,-0.51563 -0.42056,-0.9375 -0.93458,-0.9375 -0.51402,0 -0.93458,0.42187 -0.93458,0.9375 0,0.51562 0.42056,0.9375 0.93458,0.9375 0.51402,0 0.93458,-0.42188 0.93458,-0.9375 z"
       id="path3856"
       inkscape:connector-curvature="0" />
    <path
       id="path3775"
       d="m 519.72584,438.78767 c -0.18095,-0.46368 -0.65831,-0.67654 -1.28799,-0.26614 -0.58335,0.38021 -1.14996,2.25004 -1.25918,4.15677 -0.2211,3.85996 -1.46257,4.54345 -2.78933,1.53386 -0.47901,-1.08657 -1.8103,-2.81393 -2.95771,-3.83862 -1.92024,-1.71485 -1.9811,-1.96599 -0.75511,-3.15957 3.45321,-3.36192 3.02877,-12.12 -1.01348,-20.87709 -3.68069,-7.97376 -5.88381,-10.47129 -9.46994,-10.74272 -3.09369,-0.23416 -38.08545,0.0553 -42.06384,0.34819 -3.34072,0.24593 -9.31297,4.30055 -8.85468,6.01093 0.25051,0.93492 1.83213,1.20389 4.90905,0.83375 4.91689,-0.59147 41.20665,3.1245 43.60071,4.46487 1.37574,0.77023 1.70663,5.08204 1.33925,17.49408 -0.0709,2.39549 -2.94013,4.84962 -14.6862,12.5667 -3.56243,2.34049 -5.16977,3.78693 -9.55779,6.26475 -2.39861,1.36575 -0.70568,5.30291 0.66737,6.0621 1.38601,0.62532 2.45244,0.75251 3.18255,-1.13221 0.74919,-1.93403 8.41831,-6.83498 16.35019,-10.44684 3.605,-1.64158 3.80365,-1.6134 4.39993,0.61197 0.96199,3.59018 2.32019,4.97332 5.58273,5.68733 4.48598,0.98174 7.55811,-0.19021 8.57285,-3.27042 0.51421,-1.5609 1.48921,-2.60319 2.35187,-2.51261 2.0882,0.2192 3.72966,-2.49253 3.04785,-5.03706 -0.31774,-1.18584 -0.22878,-2.5277 0.19798,-2.98084 0.55844,-0.59297 0.67388,-1.30748 0.49292,-1.77118 z"
       style="fill:#000000"
       inkscape:connector-curvature="0" />
    <path
       id="path3773"
       d="m 511.21301,423.17488 c 1.56458,5.90942 1.09,11.04589 -1.48031,13.92406 -1.7297,1.93687 -1.86826,1.94907 -2.33696,0.19987 -0.55797,-2.08239 -5.42382,-4.10112 -6.67757,-2.76986 -0.44553,0.47311 -0.80847,0.72086 -0.80628,0.55087 0.002,-0.16998 0.0567,-4.09025 0.12209,-8.71292 0.0654,-4.62267 -0.1964,-8.70128 -0.58123,-9.0637 -0.38482,-0.36242 0.0968,-0.87273 1.07059,-1.13367 0.97384,-0.26094 2.31564,-1.53616 2.98049,-2.83289 1.15538,-2.25349 1.10473,-2.45847 -1.14439,-4.66321 -1.87615,-1.83914 -2.05036,-2.27587 -0.85855,-2.15073 1.92686,0.20229 4.04557,3.19126 7.47104,10.54054 0.97261,2.08671 1.71955,4.14183 2.24108,6.11164 z"
       style="fill:#0000ff"
       inkscape:connector-curvature="0" />
    <path
       id="path3771"
       d="m 503.01711,411.27316 c 0.3596,1.47895 -0.47902,2.85244 -2.48343,3.7217 -1.07284,0.46527 -11.02997,-0.18096 -22.12746,-1.43716 -11.09751,-1.2562 -22.04509,-2.00327 -24.3283,-1.65922 -2.28322,0.34404 -4.24536,0.27735 -4.3593,-0.14788 -0.3003,-1.12073 6.62352,-4.93109 9.05081,-4.98115 1.13423,-0.0234 10.5514,-0.0802 20.92805,-0.12582 16.46147,-0.0723 19.18586,0.17514 21.37056,1.93977 1.08599,0.87718 1.73329,1.8024 1.94907,2.68976 z"
       style="fill:#ffffff"
       inkscape:connector-curvature="0" />
    <path
       id="path3769"
       d="m 506.47555,437.58431 c 0.64345,2.40142 -2.83789,5.12151 -13.42851,10.48937 -11.50299,5.83031 -14.40977,7.71037 -14.89962,9.64158 -0.23718,0.93513 -1.07309,1.62682 -1.85837,1.53553 -0.98803,-0.11483 -0.9651,-0.44687 -1.38674,-1.40555 -0.70391,-1.60052 -0.8857,-2.47893 -0.16104,-3.10783 1.59428,-1.38363 1.99628,-1.43202 9.62606,-6.24769 4.63593,-2.92604 10.47713,-7.21303 12.97995,-9.52628 4.94916,-4.57427 8.14277,-5.05704 9.12827,-1.37913 z"
       style="fill:#ffffff"
       inkscape:connector-curvature="0" />
    <path
       id="path3755"
       d="m 508.19494,444.00119 c 0.554,2.06755 -2.6833,6.71279 -5.13637,7.37009 -1.34564,0.36056 -1.92063,-0.2297 -2.5648,-2.63379 -0.73894,-2.75775 -0.48699,-3.31407 2.29675,-5.05772 3.55763,-2.22837 4.73993,-2.1585 5.40442,0.32142 z"
       style="fill:#ffffff"
       inkscape:connector-curvature="0" />
  </g>
</svg>
