<?xml version="1.0" encoding="UTF-8" standalone="no"?>
<!-- Created with Inkscape (http://www.inkscape.org/) -->

<svg
   xmlns:dc="http://purl.org/dc/elements/1.1/"
   xmlns:cc="http://creativecommons.org/ns#"
   xmlns:rdf="http://www.w3.org/1999/02/22-rdf-syntax-ns#"
   xmlns:svg="http://www.w3.org/2000/svg"
   xmlns="http://www.w3.org/2000/svg"
   xmlns:sodipodi="http://sodipodi.sourceforge.net/DTD/sodipodi-0.dtd"
   xmlns:inkscape="http://www.inkscape.org/namespaces/inkscape"
   version="1.1"
   width="675"
   height="222"
   id="svg2"
   inkscape:version="0.91 r13725"
   sodipodi:docname="ub720200.svg">
  <sodipodi:namedview
     pagecolor="#b6b6b6"
     bordercolor="#666666"
     borderopacity="1"
     objecttolerance="10"
     gridtolerance="10"
     guidetolerance="10"
     inkscape:pageopacity="0"
     inkscape:pageshadow="2"
     inkscape:window-width="1518"
     inkscape:window-height="852"
     id="namedview11"
     showgrid="false"
     inkscape:zoom="0.70710678"
     inkscape:cx="328.78727"
     inkscape:cy="-13.23375"
     inkscape:window-x="0"
     inkscape:window-y="0"
     inkscape:window-maximized="0"
     inkscape:current-layer="svg2" />
  <metadata
     id="metadata8">
    <rdf:RDF>
      <cc:Work
         rdf:about="">
        <dc:format>image/svg+xml</dc:format>
        <dc:type
           rdf:resource="http://purl.org/dc/dcmitype/StillImage" />
        <dc:title></dc:title>
      </cc:Work>
    </rdf:RDF>
  </metadata>
  <defs
     id="defs6" />
  <g
     id="g3537"
     transform="translate(19.805285,-38.394775)">
    <g
       transform="translate(0,33.452162)"
       id="g3531">
      <path
         sodipodi:nodetypes="cccsccssssssssssscssssssssssssssssssssssscsssssscssssssssscscccsscsssssssssssssssssssssssssssscsssssssccssssssssssssssssscsscsscssssssc"
         inkscape:connector-curvature="0"
         style="fill:#fefefe"
         id="path2997"
         d="m 201.5,145 -3,-1.98682 3.64301,-0.007 c 3.20195,-0.006 4.85699,1.21247 4.85699,3.5752 0,1.02852 -2.7549,0.23622 -5.5,-1.58179 z m -2.82563,-4.75 c -0.24402,-0.4125 -0.76013,-2.6625 -1.14691,-5 -0.80375,-4.85731 0.92444,-6.02196 1.95736,-1.3191 0.35406,1.612 1.28981,3.4671 2.07946,4.12245 0.78965,0.65535 1.43572,1.58644 1.43572,2.06909 0,1.0684 -3.70445,1.17764 -4.32563,0.12756 z m -8.16517,-11.23511 c -0.33486,-0.54181 -3.09758,-5.81721 -6.13939,-11.7231 -4.32512,-8.39753 -5.40277,-11.37697 -4.94425,-13.66958 0.78588,-3.929425 2.47107,-5.781586 4.93182,-5.420467 1.7641,0.258886 2.46379,2.278297 5.30057,15.298257 1.7975,8.25 3.2848,15.3375 3.30511,15.75 0.0537,1.09092 -1.74058,0.919 -2.45386,-0.23511 z m 67.75636,-0.23159 c -0.56904,-0.70581 -1.32872,-2.66105 -1.68818,-4.34497 -0.87177,-4.08388 1.09565,-24.33942 2.53221,-26.070377 C 260.40466,96.807482 265.44986,96.463094 264.5,98 c -0.33992,0.55 -1.44986,1 -2.46654,1 -1.66732,0 -1.85845,0.974994 -1.94996,9.94726 -0.0765,7.50499 0.32082,10.83276 1.61843,13.55387 1.25308,2.62774 1.43969,4.05081 0.68753,5.24322 -1.39519,2.21184 -2.87728,2.58523 -4.1239,1.03895 z m -62.78127,-2.85481 c -0.9497,-4.32396 -0.0367,-4.63516 1.25459,-0.42764 0.59066,1.92453 0.70179,3.49915 0.24697,3.49915 -0.45481,0 -1.13052,-1.38218 -1.50156,-3.07151 z m 53.76571,1.39709 c -3.00619,-2.09702 -2.84188,-2.96815 0.92751,-4.91738 2.98882,-1.54557 3.25606,-1.53575 4.5,0.16545 1.6394,2.24201 1.673,3.67584 0.12249,5.22635 -1.5556,1.5556 -2.79127,1.44997 -5.55,-0.47442 z m 117.61175,-8.00736 c -2.19599,-2.34579 -2.46374,-3.1954 -1.59719,-5.06822 1.21032,-2.61579 1.70523,-2.72379 4.18212,-0.91265 1.52392,1.11432 1.68087,1.95954 0.94113,5.06822 L 369.5,122.13645 Z M 352.5,109.92697 c -4.95,-2.11903 -9.41717,-4.00854 -9.92705,-4.1989 -0.50988,-0.19036 -0.6092,-0.8604 -0.22071,-1.48899 0.50806,-0.82206 1.96866,-0.6018 5.20306,0.78462 2.47319,1.06014 7.031,2.58931 10.12848,3.39818 5.11101,1.33467 7.25858,2.75486 7.30091,4.82812 0.0296,1.45087 -3.57294,0.49199 -12.48469,-3.32303 z M 289,104.07258 c 0,-1.25736 4.28828,-4.544702 7.70907,-5.909682 1.53501,-0.612507 10.66593,-2.499084 20.29093,-4.192394 9.625,-1.69331 18.85523,-3.320862 20.51161,-3.616782 4.00554,-0.715606 7.20195,2.444458 5.56549,5.502208 -1.22816,2.294847 -2.01167,2.438596 -25.5771,4.69259 -8.8,0.8417 -18.53996,2.18762 -21.64434,2.99092 C 289.20117,105.26139 289,105.27703 289,104.07258 Z m 49.07895,-0.65591 c 0.048,-1.16495 0.28494,-1.4019 0.60416,-0.60417 0.28887,0.72187 0.25335,1.58437 -0.0789,1.91667 -0.33229,0.33229 -0.56864,-0.25834 -0.52522,-1.3125 z M 127,100 c 0,-0.55 -1.18311,-1 -2.62913,-1 l -2.62912,0 0.85348,-8.25 c 0.46942,-4.5375 0.73593,-11.232987 0.59225,-14.87886 -0.26951,-6.838875 0.75293,-8.598708 4.22227,-7.267398 2.60881,1.001092 2.5162,4.837678 -0.39439,16.338506 -1.59267,6.293236 -2.67111,11.805736 -2.39654,12.25 C 124.89339,97.636512 125.76648,98 126.55902,98 127.35156,98 128,98.675 128,99.5 c 0,0.825 -0.225,1.5 -0.5,1.5 -0.275,0 -0.5,-0.45 -0.5,-1 z m 65,0 c 0,-0.55 -0.675,-1 -1.5,-1 -2.01637,0 -2.00407,-0.04898 2.0169,-8.033552 2.21219,-4.39282 3.32144,-7.815149 2.99004,-9.225036 -0.28976,-1.232777 -0.12855,-2.852067 0.35826,-3.598424 1.29343,-1.983037 5.01567,-0.465808 5.71751,2.330521 0.7041,2.805376 -0.63686,5.517998 -5.70969,11.550047 -2.79461,3.32305 -3.6497,5.114433 -3.22199,6.75 C 192.97126,99.9981 192.95578,101 192.61663,101 192.27748,101 192,100.55 192,100 Z m 77.0347,0.28445 c -0.80591,-0.327057 -2.15591,-1.362615 -3,-2.30124 -1.55405,-1.728107 -26.38707,-16.343003 -33.2847,-19.588935 -6.48298,-3.050804 -3.99235,-4.331759 4.75,-2.442971 2.2,0.47531 11.425,4.20764 20.5,8.294064 13.93549,6.27508 16.64946,7.851866 17.4616,10.145017 1.59682,4.508743 -1.91174,7.726415 -6.4269,5.894065 z M 397.5,78.846299 c -8.8,-2.162158 -19.56402,-4.249594 -23.92003,-4.638748 -4.35985,-0.389495 -8.08651,-1.211513 -8.29038,-1.82867 -0.20584,-0.623143 1.65717,-1.631651 4.19429,-2.270506 3.73801,-0.94124 7.41247,-0.776494 20.29038,0.909728 8.64916,1.132513 18.19558,2.37924 21.21427,2.770506 4.69439,0.608459 5.68255,1.116795 6.82942,3.513238 1.04886,2.191647 1.07913,3.117233 0.13902,4.25 -1.57951,1.903193 -1.83908,1.868864 -20.45697,-2.705548 z m 36.98492,-0.870698 c -0.34821,-0.563419 -0.34702,-2.326958 0.003,-3.918976 0.42492,-1.934635 -0.007,-4.165076 -1.30386,-6.725601 C 429.54118,60.136544 429.20313,51 432.57946,51 c 1.68295,0 1.81292,1.398311 0.379,4.077619 -1.20381,2.249337 1.42461,9.113691 5.57154,14.550604 3.03898,3.984298 3.04966,4.478589 0.15555,7.197463 -2.59635,2.439146 -3.28699,2.628208 -4.20063,1.149915 z M 199.69281,76.75 c -1.56072,-1.154752 -1.50837,-1.476007 0.687,-4.216042 2.15826,-2.69371 2.61718,-2.856358 4.99832,-1.771439 2.97614,1.356018 3.34904,3.367454 1.05044,5.666052 -1.89345,1.893456 -4.44642,2.015283 -6.73576,0.321429 z M 442.46862,75.5 c -0.25774,-0.825 -0.67686,-2.168136 -0.93138,-2.984746 -0.57619,-1.848671 2.90934,-3.825679 5.36865,-3.045124 1.00669,0.319511 2.59324,1.423924 3.52568,2.454253 1.60379,1.772174 1.5719,1.959777 -0.59063,3.47447 -2.87841,2.016122 -6.75744,2.069341 -7.37232,0.101147 z m -311.93912,-3.75 -1.37396,-3.25 3.57975,-0.319756 c 2.75887,-0.246433 4.15877,0.259271 6.10483,2.205327 l 2.52508,2.525082 -2.7477,1.044674 c -4.74265,1.803151 -6.60847,1.294402 -8.088,-2.205327 z M 40.016954,68 c 0.0094,-0.275 2.371999,-1.503267 5.250112,-2.729481 4.51426,-1.923292 8.238439,-2.378672 27.117141,-3.315794 15.490106,-0.768914 22.195608,-0.77491 22.95,-0.02052 C 95.920393,62.520393 97.1549,63 98.077555,63 c 2.157825,0 4.110015,2.348437 3.427555,4.123252 C 101.07163,68.250569 95.452079,68.5 70.487745,68.5 53.719361,68.5 40.007505,68.275 40.016954,68 Z" />
      <path
         sodipodi:nodetypes="ssssssssss"
         inkscape:connector-curvature="0"
         style="fill:#fe0000"
         id="path2993"
         d="m 183,133.13005 c 0,-0.62153 1.0125,-1.13492 2.25,-1.14087 4.1513,-0.02 11.77976,-2.88628 16.27685,-6.11585 5.29832,-3.80496 8.04659,-7.45968 6.19726,-8.24128 -1.23991,-0.52403 4.8165,-6.63205 6.57601,-6.63205 0.48162,0 0.55971,1.9125 0.17354,4.25 -0.75792,4.58763 -1.49467,5.95603 -2.1785,4.0462 -0.24879,-0.69484 -2.67242,1.03758 -5.73232,4.09748 -2.91571,2.91571 -7.42589,6.3298 -10.02262,7.58685 C 191.13042,133.59937 183,134.89008 183,133.13005 Z" />
      <path
         sodipodi:nodetypes="ssssssssccsssscsscssssssssssssssssssssscsssssscsssssssssss"
         inkscape:connector-curvature="0"
         style="fill:#0000fe"
         id="path2991"
         d="m 264,126.53393 c 0,-0.80634 -0.73884,-3.01544 -1.64187,-4.90911 -1.37886,-2.89151 -1.27878,-7.87881 0.12984,-6.47019 C 263.51282,116.17948 265.74282,128 264.91131,128 264.41009,128 264,127.34027 264,126.53393 Z m 2.61485,-9.23752 c -1.65596,-8.15724 -1.67684,-9.21228 -0.24987,-12.6275 1.37079,-3.28078 1.86562,-3.64914 4.13634,-3.07922 1.7966,0.45091 3.21766,0.0803 4.68306,-1.22117 L 277.28816,98.5 276.608,104 c -0.84927,6.86748 -4.20634,17.2824 -6.47293,20.08152 -1.66723,2.05895 -1.76184,1.87659 -3.52022,-6.78511 z m 91.24593,-3.34587 -2.36078,-2.04947 3,1.41226 c 1.65,0.77674 3.675,1.66348 4.5,1.97052 1.0276,0.38244 0.82629,0.58312 -0.63922,0.6372 -1.17656,0.0434 -3.20156,-0.84331 -4.5,-1.97051 z m 6.59192,-3.55816 c -0.52399,-0.81062 -3.5285,-2.1415 -6.6767,-2.95751 -3.1482,-0.81601 -7.7607,-2.35668 -10.25,-3.42372 -4.77421,-2.04647 -5.63422,-4.071913 -3.45661,-8.140814 0.77855,-1.454727 0.74525,-2.388756 -0.12244,-3.434258 -2.31991,-2.795324 0.65509,-1.382055 5.475,2.60089 2.68691,2.220332 7.73716,5.631822 11.22277,7.581092 7.42172,4.15046 7.91669,4.74233 6.11591,7.3133 -1.15562,1.64989 -1.49556,1.71779 -2.30793,0.46102 z M 178.53787,100.5 c 0.32113,-1.65 1.62825,-4.597418 2.90471,-6.549817 1.27647,-1.9524 3.47116,-5.819856 4.8771,-8.594347 C 188.40653,81.23765 192.4598,77 194.31197,77 c 0.21029,0 0.30517,1.9125 0.21085,4.25 -0.10182,2.523312 -1.47036,6.794814 -3.36847,10.513703 -2.89146,5.665124 -3.43509,6.203941 -5.68865,5.638333 -2.729,-0.684936 -5.13856,0.79837 -6.60056,4.063244 -0.70681,1.57842 -0.7802,1.36195 -0.32727,-0.96528 z M 418.35229,82.198731 c 1.65719,-1.862944 1.70474,-2.378065 0.45147,-4.890501 L 417.40294,74.5 l 6.04853,-0.0746 c 3.32669,-0.04103 7.05198,-0.614516 8.27841,-1.274417 2.10366,-1.131902 2.19784,-1.039599 1.6638,1.630611 -0.67831,3.391537 1.90076,6.323966 3.8487,4.376022 1.57745,-1.577445 2.81084,-1.459894 2.17122,0.206932 -0.91887,2.394553 -5.67629,3.842504 -14.4136,4.386871 l -8.5,0.529583 z M 114,73.037023 c -2.475,-0.382663 -6.41822,-1.241424 -8.76272,-1.908357 -3.86272,-1.098817 -4.16021,-1.40415 -3.1703,-3.253823 1.29379,-2.417459 -0.90731,-5.49542 -4.421409,-6.182795 -1.5044,-0.294268 -1.218952,-0.46038 0.955206,-0.555866 1.705423,-0.0749 4.405423,0.301337 6.000003,0.836083 1.59457,0.534746 6.70019,1.433213 11.34581,1.996593 9.22875,1.11918 11.46231,2.206757 8.16077,3.973685 C 122.83924,68.621218 122,70.051967 122,71.535184 c 0,2.667 -0.20953,2.706335 -8,1.501839 z" />
      <path
         inkscape:connector-curvature="0"
         id="path2989"
         d="m 432.50586,50 c -3.96386,0 -4.2339,9.689707 -0.47656,17.054688 1.86528,3.656252 1.87687,3.922147 0.22265,4.767578 -0.96353,0.492432 -3.23097,1.176695 -5.03906,1.519531 -3.44509,0.653233 -25.66355,-1.392426 -42.71289,-3.931641 -7.88356,-1.174125 -11.00679,-1.248037 -14.75391,-0.349609 -5.3426,1.280967 -6.47244,2.357571 -4.70898,4.482422 0.78654,0.947717 3.17343,1.47168 6.83594,1.5 3.21229,0.02484 14.21069,2.149429 25.62695,4.949219 17.21983,4.223088 21.12022,4.858901 28.0625,4.578124 9.2955,-0.375949 14.08927,-2.338945 15.04883,-6.162109 0.45668,-1.819556 0.95056,-2.244757 1.71484,-1.480469 C 445.48938,80.090939 454,74.829262 454,69.710938 454,66.259051 450.26137,61.81935 447.67188,62.195312 446.50291,62.365032 444.5841,61.504381 443.33398,60.25 441.1198,58.028278 437,57.151836 437,58.902344 c 0,0.496196 1.35,1.372072 3,1.947265 3.37709,1.177261 3.72845,2.66479 1.41016,5.97461 -2.03587,2.906624 -3.45931,1.814533 -6.33204,-4.863281 -1.69502,-3.940178 -1.90863,-5.407441 -1.03124,-7.046876 C 435.38803,52.408101 434.63196,50 432.50586,50 Z m 0.0742,1 c 1.68295,0 1.81282,1.398817 0.3789,4.078125 -1.20381,2.249337 1.42339,9.113868 5.57032,14.550781 3.03898,3.984298 3.05036,4.478392 0.15625,7.197266 C 437.4126,78.022045 436.08873,79 435.74414,79 c -1.31794,0 -1.86665,-2.162422 -1.25586,-4.943359 0.42492,-1.934635 -0.008,-4.166038 -1.30469,-6.726563 C 429.54107,60.135598 429.20375,51 432.58008,51 Z M 129.75,55.003906 c -1.8698,-0.0093 -0.47681,2.151033 2,3.101563 l 2.75,1.054687 -2.75,1.451172 c -1.5125,0.798497 -2.75762,1.774988 -2.76562,2.169922 -0.008,0.394935 -0.42417,1.364663 -0.92383,2.154297 -0.71304,1.126853 -1.21785,1.180184 -2.34571,0.244141 -0.79035,-0.655926 -4.98709,-1.635168 -9.32617,-2.175782 -4.33908,-0.540615 -9.94595,-1.502139 -12.46094,-2.136718 -3.46059,-0.873179 -10.562138,-0.868185 -29.199214,0.02148 C 51.751004,61.985538 49.727051,62.235882 44.5,64.628906 34.81104,69.064658 37.028893,69.531346 66.083984,69.177734 91.970952,68.86268 95.492488,69.137549 107,72.367188 c 3.025,0.84898 7.59832,1.810876 10.16211,2.136718 2.83586,0.360421 4.89131,1.19143 5.24805,2.121094 0.32252,0.840471 0.0825,5.655537 -0.53125,10.701172 -1.03862,8.538327 -0.93446,9.974684 1.49023,20.736328 2.64496,11.73933 5.89027,27.39441 12.21875,58.9375 1.93106,9.625 3.74221,18.28293 4.02539,19.24023 0.48364,1.63495 -2.47603,1.75699 -48.798827,2.00977 -27.122912,0.14801 78.260547,0.28148 234.185547,0.29688 51.14951,0.005 96.01137,-0.0101 136.64844,-0.0332 31.98521,0 30.80914,-0.59179 30.80914,-0.59179 C 484.31206,187.86293 448,187.77826 448,187.67969 c 0,-0.6393 -7.84915,-39.25229 -8.52344,-41.92969 l -0.69336,-2.75 6.10742,0 c 7.99918,0 7.92199,-1.81841 -0.0937,-2.20312 L 438.59375,140.5 434.88086,123.12109 c -2.26194,-10.58784 -3.49919,-18.6969 -3.16602,-20.75 C 432.22525,99.225778 432.07746,99 429.5,99 c -3.26935,0 -3.56674,-2.829558 2.99609,28.5 2.53467,12.1 6.18198,29.875 8.10547,39.5 1.92348,9.625 3.7308,18.2875 4.01563,19.25 0.48757,1.64759 -2.00165,1.75 -42.54883,1.75 C 378.38129,188 359,187.85606 359,187.67969 c 0,-0.6393 -7.84915,-39.25229 -8.52344,-41.92969 l -0.69336,-2.75 14.60742,0 c 19.52061,0 19.45236,-1.85471 -0.082,-2.22266 l -14.6914,-0.27734 -3.27149,-15 c -4.37659,-20.06795 -4.50507,-18.92789 1.83789,-16.42773 2.85117,1.12383 6.69219,3.36817 8.53516,4.98632 1.84297,1.61815 4.0686,2.94141 4.94531,2.94141 0.8767,0 3.33606,1.575 5.4668,3.5 2.13074,1.925 4.46503,3.5 5.18555,3.5 0.72052,0 2.58026,-1.32676 4.13281,-2.94727 2.24984,-2.34837 2.70137,-3.54778 2.22851,-5.91211 -0.70983,-3.54913 1.80155,-6.57512 3.38282,-4.07617 0.49966,0.78964 0.91583,1.99805 0.92383,2.68555 0.008,0.6875 0.46562,1.25 1.01562,1.25 1.31141,0 1.26392,-1.32762 -0.16016,-4.45312 -1.28715,-2.825 -4.29894,-3.40208 -5.2207,-1 -0.91222,2.37718 -7.56424,0.78304 -10.61914,-2.54493 -1.375,-1.49791 -5.65,-4.58732 -9.5,-6.86718 -3.85,-2.279872 -8.65874,-5.549526 -10.68555,-7.263676 -4.8783,-4.125782 -7.82007,-4.122112 -30.81445,0.0332 -18.62175,3.365136 -23.88167,5.094851 -27.42578,9.013676 -3.14217,3.47438 -0.86027,4.48258 6.04101,2.66797 3.23612,-0.8509 13.90949,-2.31121 23.7168,-3.24414 18.83197,-1.791422 19.74058,-1.667914 19.58203,2.6582 -0.0362,0.98906 -0.34738,0.81874 -0.91406,-0.5 -0.47269,-1.1 -0.89099,-1.42169 -0.92969,-0.71484 -0.0387,0.70685 0.55071,2.28185 1.3086,3.5 0.75789,1.21815 2.78171,9.18984 4.49804,17.71484 5.05502,25.10824 12.05087,59.32185 12.62696,61.75 l 0.53515,2.25 -37.51953,0 C 297.88405,188 281,187.85606 281,187.67969 c 0,-0.6393 -7.84915,-39.25229 -8.52344,-41.92969 l -0.69336,-2.75 11.10742,0 c 14.70247,0 14.6263,-1.84529 -0.0918,-2.2168 L 271.5957,140.5 l -1.42187,-6.68359 c -1.35899,-6.38093 -1.33154,-6.80245 0.63672,-9.30469 5.51443,-7.01046 8.62293,-26.212092 5.10156,-31.517579 -1.96428,-2.959489 -32.00623,-16.738269 -39.67578,-18.197266 -8.88405,-1.690032 -11.12448,0.718346 -3.98633,4.285156 2.3375,1.168008 9.7566,5.319165 16.48633,9.222657 l 12.23633,7.095703 -1.9961,2.125 c -1.53547,1.634425 -2.21616,4.409179 -2.95898,12.048829 -0.53081,5.45923 -0.97799,10.28941 -0.99219,10.73437 -0.0142,0.44496 -0.4591,0.54115 -0.99023,0.21289 -1.68146,-1.0392 -8.96653,3.35808 -9.57422,5.7793 -0.88367,3.52082 1.11915,7.43379 4.74609,9.27149 1.81113,0.91767 4.06912,2.34846 5.01758,3.17968 1.44426,1.26572 2.21611,1.30739 4.75,0.25782 1.66404,-0.68927 3.02539,-1.64759 3.02539,-2.13086 0,-1.14296 -0.39732,-1.1109 -3.45703,0.2832 -1.40321,0.63932 -2.80541,0.90944 -3.11524,0.59961 -0.74006,-0.74006 7.7171,-8.70393 9.27735,-8.73633 0.66257,-0.0137 1.50111,1.66211 1.86328,3.72461 0.36217,2.0625 1.46587,7.35 2.45312,11.75 0.98725,4.4 3.20798,15.2 4.93555,24 1.72757,8.8 3.37517,16.7875 3.66016,17.75 0.48655,1.6432 -1.6178,1.75 -34.47852,1.75 l -34.99609,0 -1.06446,-5.25 c -0.58482,-2.8875 -2.55275,-12.5625 -4.37304,-21.5 -1.8203,-8.9375 -3.15813,-16.25 -2.97266,-16.25 0.18547,0 1.44352,0.72391 2.79492,1.60938 3.11254,2.03941 5.85092,1.15747 4.97461,-1.60352 C 206.90336,143.11986 207.31313,143 214.43164,143 218.8099,143 222,142.57857 222,142 c 0,-0.58905 -3.53003,-1 -8.58984,-1 -7.68976,0 -8.78514,-0.23573 -10.45118,-2.25 -1.02355,-1.2375 -2.1419,-3.48209 -2.48632,-4.98828 -0.34442,-1.5062 -1.02412,-2.98502 -1.50977,-3.28516 -1.24253,-0.76793 1.03173,5.68855 2.67773,7.60156 1.9434,2.25865 1.68293,3.10882 -0.84179,2.74219 -1.74816,-0.25386 -2.41625,-1.33412 -3.25,-5.25195 -0.97069,-4.5613 -1.1712,-4.80817 -2.67969,-3.29688 -0.89703,0.89869 -1.96653,1.31796 -2.37695,0.93164 -0.41042,-0.38631 -0.0421,0.68158 0.81836,2.375 0.86042,1.69343 3.64516,13.39342 6.18945,26 2.54429,12.60659 4.85356,23.70938 5.13086,24.67188 0.47246,1.63993 -1.44911,1.75 -30.5625,1.75 C 156.98129,188 143,187.85606 143,187.67969 c 0,-0.6393 -7.84915,-39.25229 -8.52344,-41.92969 l -0.69336,-2.75 14.60742,0 c 19.52594,0 19.44939,-1.8548 -0.0918,-2.22266 L 133.59961,140.5 129.79102,123 C 126.14817,106.2625 126.0512,105.36291 127.60156,102.33594 129.32788,98.965405 128.86155,97 126.33398,97 c -0.85138,0 -1.33831,-0.5625 -1.08203,-1.25 0.25628,-0.6875 1.49147,-5.525 2.74414,-10.75 l 2.27735,-9.5 4.45117,0 c 3.47208,0 4.87234,-0.520093 6.36328,-2.361328 0.0458,-0.05661 0.0828,-0.11501 0.12695,-0.171875 l -2.59765,0.988281 c -4.74265,1.803151 -6.60836,1.294651 -8.08789,-2.205078 l -1.37305,-3.25 3.57813,-0.320312 c 2.75887,-0.246434 4.1594,0.259022 6.10546,2.205078 l 2.46485,2.464843 c 2.69779,-3.575375 2.14451,-7.624966 -1.55469,-11.101562 -3.34541,-3.144101 -8.67372,-6.737541 -10,-6.744141 z m 11.55469,17.845703 c -0.0297,0.03941 -0.0593,0.07789 -0.0898,0.117188 l 0.15039,-0.05664 -0.0605,-0.06055 z M 98.601562,61.136719 c 1.705428,-0.0749 4.405418,0.301191 5.999998,0.835937 1.59457,0.534746 6.70009,1.432714 11.34571,1.996094 9.22875,1.11918 11.46169,2.207681 8.16015,3.974609 C 122.8393,68.622034 122,70.051939 122,71.535156 c 0,1.731677 -0.52052,2.425901 -1.75,2.332032 -3.876,-0.295935 -10.98953,-1.593544 -15.01367,-2.738282 -3.86272,-1.098817 -4.15983,-1.404233 -3.16992,-3.253906 1.29379,-2.417459 -0.90583,-5.496219 -4.419926,-6.183594 -1.5044,-0.294268 -1.21908,-0.459197 0.955078,-0.554687 z m -9.216796,0.236328 c 3.706937,-0.0033 5.572022,0.183351 5.949218,0.560547 C 95.92017,62.51978 97.15547,63 98.078125,63 c 2.157825,0 4.110195,2.348232 3.427735,4.123047 C 101.07238,68.250364 95.452615,68.5 70.488281,68.5 53.719897,68.5 40.008178,68.275 40.017578,68 c 0.0094,-0.275 2.371887,-1.502302 5.25,-2.728516 4.51426,-1.923292 8.238486,-2.379286 27.117188,-3.316406 7.745053,-0.384458 13.293062,-0.578717 17,-0.582031 z m 110.296874,1.962891 c -0.42634,0.0027 -0.86882,0.01633 -1.32617,0.04102 -4.98125,0.268876 -5.65905,0.593259 -7.4707,3.572266 -1.09584,1.801975 -1.70918,3.558408 -1.36329,3.904297 0.34589,0.34589 1.01328,-0.04091 1.48438,-0.861328 0.47109,-0.82042 1.58409,-2.392188 2.47266,-3.492188 1.55742,-1.927994 1.59516,-1.889835 1.03125,1.060547 -0.32173,1.683314 -0.18677,4.139051 0.30078,5.457031 0.76612,2.071029 0.46509,2.618003 -2.21289,4.033203 -3.19777,1.689889 -3.90288,2.627292 -10.88282,14.449219 -5.53028,9.366625 -5.44974,11.853965 0.77344,24.197275 2.71812,5.39124 5.77559,11.04023 6.79492,12.55273 1.01933,1.51249 2.10332,2.75 2.40821,2.75 0.30489,0 0.071,-0.58144 -0.51953,-1.29297 -0.59052,-0.71154 -3.60709,-6.21343 -6.70313,-12.22461 -4.40906,-8.56051 -5.50221,-11.56319 -5.04297,-13.85937 0.78545,-3.927244 2.47036,-5.783193 4.92578,-5.421883 1.67773,0.246875 2.34246,1.763167 3.85547,8.798833 4.80774,22.35657 4.98799,23 6.48047,23 1.17407,0 1.36663,-0.89555 0.91016,-4.25 l -0.57813,-4.25 1.41406,3.5 c 1.96501,4.86262 1.90586,2.75108 -0.10156,-3.61719 -0.91762,-2.91105 -2.11195,-5.01878 -2.6543,-4.68359 -0.54236,0.33519 -0.7001,0.14523 -0.34961,-0.42188 0.3505,-0.5671 -0.0583,-3.37244 -0.9082,-6.23437 -1.41209,-4.7549 -1.4035,-5.41803 0.0937,-7.70313 0.90118,-1.37538 1.36702,-3.209415 1.03516,-4.07422 -0.37592,-0.979639 0.85307,-3.303992 3.26172,-6.167969 4.94699,-5.882178 6.49286,-8.82902 5.87304,-11.199218 C 202.36995,79.699096 202.70495,79 203.59375,79 206.3658,79 209,75.136941 209,71.072266 c 0,-5.329909 -2.9233,-7.776735 -9.31836,-7.736328 z m -73.97266,4.857421 c 0.48607,0.01917 1.05067,0.160536 1.70118,0.410157 2.60881,1.001092 2.51606,4.837062 -0.39454,16.33789 -1.59267,6.293236 -2.67105,11.805736 -2.39648,12.25 C 124.89371,97.63567 125.76605,98 126.55859,98 127.35113,98 128,98.675 128,99.5 c 0,0.825 -0.225,1.5 -0.5,1.5 -0.275,0 -0.5,-0.45 -0.5,-1 0,-0.55 -1.18289,-1 -2.62891,-1 l -2.6289,0 0.85351,-8.25 c 0.46942,-4.5375 0.73548,-11.233033 0.5918,-14.878906 -0.21898,-5.556586 0.41519,-7.760808 2.52148,-7.677735 z m 320.23633,1.107422 c 0.32955,0.01703 0.65353,0.07235 0.96094,0.169922 1.00669,0.319511 2.59295,1.422796 3.52539,2.453125 1.60379,1.772174 1.57269,1.959917 -0.58984,3.47461 -2.87841,2.016122 -6.75817,2.069756 -7.37305,0.101562 -0.25774,-0.825 -0.67712,-2.167765 -0.93164,-2.984375 -0.50417,-1.617587 2.10138,-3.334068 4.4082,-3.214844 z m -71.79492,0.236328 c 3.12095,-0.03333 7.57435,0.42658 15.62305,1.480469 8.64916,1.132513 18.19615,2.380218 21.21484,2.771484 4.69439,0.608459 5.68321,1.117229 6.83008,3.513672 1.08987,2.277401 1.10247,3.119705 0.0664,4.5 -1.18991,1.585263 -1.15372,1.586838 0.54101,0.04102 1.63169,-1.488312 1.67162,-1.94374 0.39649,-4.5 L 417.40234,74.5 l 6.04883,-0.07422 c 3.32669,-0.04103 7.05287,-0.615489 8.2793,-1.27539 2.10366,-1.131902 2.1981,-1.039351 1.66406,1.630859 -0.67831,3.391537 1.89972,6.324897 3.84766,4.376953 1.57745,-1.577445 2.81149,-1.459795 2.17187,0.207031 -0.28799,0.750503 -1.73651,1.923871 -3.21875,2.609375 -1.48225,0.685503 -6.29531,1.397534 -10.69531,1.582032 -6.83627,0.286655 -10.61839,-0.317701 -26,-4.158203 -9.9,-2.471847 -21.56391,-4.811109 -25.91992,-5.197266 -4.36464,-0.386921 -8.08693,-1.204431 -8.29102,-1.822266 -0.20584,-0.623143 1.65819,-1.632629 4.19532,-2.271484 1.40175,-0.352965 2.79344,-0.550317 4.66601,-0.570312 z m -170.83203,0.59961 c 0.54328,-0.01172 1.16762,0.218155 2.06055,0.625 2.97614,1.356018 3.34742,3.367417 1.04882,5.666015 -1.89345,1.893456 -4.44503,2.01612 -6.73437,0.322266 -1.56072,-1.154752 -1.50982,-1.476762 0.68555,-4.216797 1.34891,-1.683569 2.03398,-2.376954 2.93945,-2.396484 z m 27.53125,4.96289 c 3.43498,-0.0084 10.83929,1.709359 15.12695,3.822266 3.03747,1.496829 10.62142,4.922519 16.85156,7.611328 6.82322,2.944769 11.76952,5.699293 12.43946,6.927735 1.89067,3.466789 1.30829,14.436422 -1.15625,21.771482 -1.24422,3.70307 -3.02778,7.67722 -3.96289,8.83203 -1.6459,2.0326 -1.77133,1.75786 -3.93164,-8.64062 -1.22737,-5.90786 -2.0038,-10.97081 -1.72461,-11.25 0.27918,-0.27919 0.53541,0.35599 0.57031,1.41015 0.0603,1.82482 0.1011,1.82014 0.83594,-0.084 0.42451,-1.1 0.7344,-3.31974 0.6875,-4.93164 -0.0784,-2.696302 -1.28583,-3.631373 -15.08594,-11.705079 -8.25,-4.826634 -16.6875,-9.53821 -18.75,-10.470703 -2.0625,-0.932494 -3.75,-2.130314 -3.75,-2.660156 0,-0.435812 0.70462,-0.630002 1.84961,-0.632813 z M 194.3125,77 c 0.21029,0 0.30524,1.9125 0.21094,4.25 -0.10182,2.523312 -1.47103,6.794783 -3.36914,10.513672 -2.89146,5.665123 -3.4359,6.20428 -5.68946,5.638672 -1.47367,-0.369869 -3.1442,-0.08364 -4.08984,0.701172 -0.87938,0.729822 -2.00865,2.242234 -2.50977,3.361324 -0.70681,1.57842 -0.78105,1.36239 -0.32812,-0.96484 0.32113,-1.65 1.62979,-4.598382 2.90625,-6.550781 1.27647,-1.9524 3.47101,-5.819259 4.87695,-8.59375 C 188.40716,81.237283 192.46033,77 194.3125,77 Z m 3.31055,0.242188 c 1.56701,-0.0084 3.47647,1.307992 3.95898,3.230468 0.7041,2.805376 -0.63615,5.518732 -5.70898,11.550782 -2.79461,3.323049 -3.65037,5.114433 -3.22266,6.75 C 192.97062,99.997981 192.95634,101 192.61719,101 192.27804,101 192,100.55 192,100 c 0,-0.55 -0.675,-1 -1.5,-1 -2.01637,0 -2.00339,-0.04863 2.01758,-8.033203 2.21219,-4.39282 3.32163,-7.814723 2.99023,-9.224609 -0.28976,-1.232777 -0.12939,-2.853253 0.35742,-3.59961 0.4042,-0.619699 1.04554,-0.896553 1.75782,-0.90039 z m 141.3457,13.017578 c 3.27284,0.167261 5.53932,2.920171 4.10742,5.595703 -1.22816,2.294847 -2.01074,2.439365 -25.57617,4.693361 -8.8,0.8417 -18.54015,2.18693 -21.64453,2.99023 -6.65449,1.72195 -6.85547,1.73766 -6.85547,0.53321 0,-1.25736 4.28819,-4.545181 7.70898,-5.910161 1.53501,-0.612507 10.66602,-2.498096 20.29102,-4.191406 9.625,-1.69331 18.85534,-3.321267 20.51172,-3.617187 0.50069,-0.08945 0.98948,-0.117645 1.45703,-0.09375 z m 4.41602,0.707031 c 0.76842,0.122971 3.07626,1.62361 6.03711,4.070312 2.6869,2.220332 7.73704,5.630811 11.22265,7.580081 3.48561,1.94926 6.5693,3.9183 6.85156,4.375 0.28226,0.45671 -0.27731,2.2169 -1.24218,3.91211 -0.96486,1.69522 -2.42891,3.03561 -3.25391,2.97851 -0.825,-0.0571 -5.55,-1.83604 -10.5,-3.95508 -4.95,-2.11903 -9.41785,-4.00885 -9.92773,-4.19921 -0.50988,-0.19036 -0.6092,-0.86165 -0.22071,-1.49024 0.50806,-0.82206 1.96873,-0.60126 5.20313,0.78516 2.47319,1.06014 7.03142,2.58957 10.1289,3.39844 3.09747,0.80885 6.04568,2.05638 6.55079,2.77343 0.71352,1.01294 0.82857,0.97012 0.51953,-0.19531 -0.21877,-0.825 -2.39058,-2.09588 -4.82618,-2.82422 -9.91809,-2.96587 -16.14074,-5.56896 -16.68164,-6.97851 -0.31476,-0.82028 -0.0598,-2.853341 0.56836,-4.517582 0.83258,-2.20585 0.84365,-3.386405 0.041,-4.353516 -0.83978,-1.011874 -0.93176,-1.433158 -0.4707,-1.359375 z m -80.91797,6.072265 c 1.32077,-0.07076 2.59097,0.245495 3.04882,0.986329 0.34835,0.563627 0.26198,0.959619 -0.1914,0.880859 -0.45338,-0.07876 -1.79579,-0.09052 -2.98242,-0.02539 -2.05024,0.112532 -2.16142,0.613797 -2.25782,10.06641 -0.0765,7.50499 0.31958,10.83357 1.61719,13.55468 1.25308,2.62774 1.43966,4.04978 0.6875,5.24219 -2.24146,3.55346 -4.63739,2.18912 -5.81055,-3.30664 -0.87176,-4.08388 1.0947,-24.33936 2.53126,-26.070311 0.66475,-0.800977 2.03664,-1.257367 3.35742,-1.328127 z M 276,99 c -0.0474,-0.05527 -0.44003,0.235677 -1.20898,0.837891 -1.09369,0.856539 -2.80395,1.099299 -4.75,0.671879 -1.67253,-0.36735 -3.04007,-0.29605 -3.03907,0.16015 0.004,1.7 6.7422,1.34406 8.13282,-0.42969 C 275.74869,99.45717 276.04738,99.055275 276,99 Z m -14.60742,9.14453 c 0.203,-0.002 0.52592,1.23764 0.90625,3.85547 0.27967,1.925 1.18659,6.3125 2.01562,9.75 0.82899,3.4375 1.20844,6.25 0.8418,6.25 -1.28878,0 -3.35346,-7.56863 -3.8125,-13.97656 -0.27375,-3.82142 -0.21217,-5.87654 0.0488,-5.87891 z m 94.10742,3.85742 4.5,1.96289 c 4.47193,1.95074 4.50516,1.94937 5.40234,-0.002 1.06707,-2.32082 1.61221,-2.40384 4.04493,-0.625 1.52392,1.11432 1.68114,1.95968 0.9414,5.06836 l -0.88867,3.73047 -2.9375,-3.06836 C 364.9471,117.38084 362.86,116 361.92383,116 c -0.93617,0 -2.76406,-0.90032 -4.0625,-2 z m -102.41797,9.27149 c 0.59591,0.0219 0.97373,0.45018 1.5957,1.30078 1.6394,2.24201 1.67356,3.67605 0.12305,5.22656 -1.5556,1.5556 -2.79205,1.44978 -5.55078,-0.47461 -3.00619,-2.09702 -2.84166,-2.96874 0.92773,-4.91797 1.49441,-0.77278 2.3084,-1.15667 2.9043,-1.13476 z m -50.93945,21.73242 c 3.20195,-0.006 4.85742,1.21344 4.85742,3.57617 0,1.02852 -2.7549,0.23598 -5.5,-1.58203 l -3,-1.98633 3.64258,-0.008 z"
         style="fill:#000000"
         sodipodi:nodetypes="ssssssssssssssssssssscssssscccscccsssssssssssssssssccsccsccssssssssccscccssssssssssssssssssscssssccssccscccsssscccsssssssscscsssssccssssssssscssssscssssccscccsssccsccccccscsscccccssssssssssssssssssscsssssssssssscssssscccsscscsscsscssssssssscsssscssssssssssscccssssssssssssssssscssssssccscsssccsssssssssscssssssssscssssssssscsssssssssscsscssccscsssssssscsscsccscssccccsscccscccssssccscccc" />
    </g>
    <g
       transform="translate(0,33.44125)"
       id="g3513">
      <path
         style="fill:#000000"
         d="m 571.37947,43.351736 c -0.64455,-0.2113 -6.10191,9.2619 -12.46875,21.64063 l -11.32226,22.01367 -2.12891,-6.21484 c -3.37699,-9.86861 -5.11289,-13.43635 -7.08984,-14.56836 -1.75156,-1.00295 -1.73131,-1.1352 0.40625,-2.65821 1.85835,-1.32407 2.25,-2.54496 2.25,-7.01171 0,-4.32339 -0.3873,-5.61581 -1.9336,-6.44336 -2.53948,-1.35914 -8.76528,-1.33031 -9.61523,0.0449 -0.36746,0.59455 -1.65891,0.83305 -2.86914,0.52929 -1.83231,-0.45987 -2.42224,0.0693 -3.53125,3.16797 -0.7325,2.04668 -1.54271,4.28516 -1.79883,4.97266 -0.25611,0.6875 -0.002,1.25 0.56445,1.25 0.56619,0 1.59964,-1.6875 2.29688,-3.75 l 1.26758,-3.75 0.84375,4.125 c 0.4643,2.26935 1.68863,4.8902 2.7207,5.82422 1.73922,1.57397 1.76337,1.89727 0.31445,4.42187 -1.47656,2.57275 -1.36192,3.34623 2.08789,13.93164 4.12781,12.66573 4.38125,14.90914 1.90235,16.83594 -1.59773,1.24188 -1.60941,1.4705 -0.14453,2.615244 0.88246,0.68961 1.89386,2.16724 2.24804,3.28319 0.71079,2.23948 7.7984,36.19327 13.24805,63.46289 1.92348,9.625 3.7308,18.2875 4.01563,19.25 0.43393,1.46635 -2.12521,1.69738 -22.92188,1.73242 -39.95192,0 -7.15946,0.44336 -7.15946,0.44336 16.05478,0.022 40.88657,0.0412 62.71415,0.0586 18.98443,0 8.9063,-0.49414 0,-0.49414 -1.21527,9.5e-4 -1.83024,0.01 -3.18164,0.01 -14.33707,0 -26.06836,-0.14394 -26.06836,-0.32031 0,-0.6393 -7.84912,-39.25229 -8.52344,-41.92969 l -0.69336,-2.75 15.60938,0 c 20.90463,0 20.82798,-1.85766 -0.0918,-2.22461 l -15.70117,-0.27539 -3.76367,-17.5 c -2.07013,-9.625 -3.59683,-18.175 -3.39258,-19 0.20424,-0.825 0.67398,-2.85067 1.04492,-4.499994 0.61137,-2.71835 0.7943,-2.83406 1.95117,-1.25195 1.97218,2.697124 6.74449,3.256484 9.24219,1.08398 2.35949,-2.05229 18.93372,-38.50714 20.46875,-45.02148 1.18428,-5.02585 0.78702,-10.51397 -0.79688,-11.03321 z"
         id="path3399"
         inkscape:connector-curvature="0"
         sodipodi:nodetypes="csccssscscscscccssssssssccccssccsscccsssscc" />
      <path
         style="fill:#fefefe"
         d="m 533.0266,99.409116 c 0,-0.33811 0.71876,-1.14032 1.59723,-1.78268 1.4102,-1.03116 1.46455,-2.25924 0.46411,-10.48737 -0.62323,-5.12569 -2.01519,-11.82902 -3.09325,-14.8963 -2.15145,-6.12127 -1.5781,-7.78979 2.33895,-6.80668 2.33152,0.58518 2.4876,1.10098 3.14007,10.37679 0.37763,5.36855 1.12429,12.63072 1.65925,16.13816 0.53496,3.50744 0.84237,6.4803 0.68314,6.60636 -0.79736,0.63127 -6.7895,1.38296 -6.7895,0.85172 z"
         id="path3417"
         inkscape:connector-curvature="0" />
      <path
         style="fill:#fefefe"
         d="m 546.23097,97.436716 c -1.7624,-1.37929 -3.20437,-2.8826 -3.20437,-3.3407 0,-0.4581 1.4625,-2.60446 3.25,-4.76969 1.7875,-2.16522 7.975,-13.22313 13.75,-24.57313 5.775,-11.34999 10.8375,-20.64602 11.25,-20.65784 1.02608,-0.0294 0.90271,6.70213 -0.20122,10.97852 -1.50131,5.81578 -18.61928,43.18013 -20.18341,44.05547 -0.95735,0.53576 -2.55496,-0.0444 -4.661,-1.69263 z"
         id="path3415"
         inkscape:connector-curvature="0" />
      <path
         style="fill:#fefefe"
         d="m 533.58368,63.488096 c -3.3775,-3.37749 -0.38586,-9.41422 4.66543,-9.41422 2.97257,0 2.45221,7.32789 -0.66543,9.37064 -2.21129,1.44889 -2.59056,1.45302 -4,0.0436 z"
         id="path3403"
         inkscape:connector-curvature="0" />
      <path
         style="fill:#0000fe"
         d="m 543.07887,97.323876 c -2.81796,-2.6011 -3.03522,-3.37268 -4.01236,-14.25 -1.69339,-18.85049 -1.32689,-19.74115 3.3483,-8.13688 3.90678,9.69701 4.18544,12.44196 1.61591,15.91744 -1.88008,2.54295 -2.00498,3.2452 -0.89365,5.02472 0.71053,1.13774 2.21385,2.51654 3.3407,3.06399 1.12686,0.54745 1.49343,1.02583 0.81461,1.063054 -0.67883,0.0372 -2.5749,-1.169824 -4.21351,-2.682324 z"
         id="path3485"
         inkscape:connector-curvature="0" />
      <path
         style="fill:#0000fe"
         d="m 530.62787,75.735106 c -2.23075,-7.62242 -1.52191,-9.71777 0.79527,-2.35085 0.97908,3.11276 1.58515,6.22882 1.34682,6.92459 -0.23834,0.69577 -1.20228,-1.36242 -2.14209,-4.57374 z"
         id="path3477"
         inkscape:connector-curvature="0" />
    </g>
    <g
       transform="translate(0,33.44123)"
       id="g3521">
      <path
         d="m 475.42419,100.82817 c 0.16086,-0.60035 1.27173,-0.834199 2.46861,-0.51965 4.01502,1.05512 12.12539,0.26089 17.30512,-1.694712 6.10258,-2.304001 9.70312,-5.122879 8.1191,-6.356491 -1.06203,-0.827087 6.36888,-5.159465 8.06843,-4.70407 0.46522,0.124651 0.0457,1.992194 -0.93235,4.1501 -1.91946,4.235144 -2.98527,5.366226 -3.1515,3.34449 -0.0605,-0.735551 -2.84991,0.310553 -6.5975,2.474228 -3.571,2.061714 -8.81114,4.192155 -11.64473,4.734295 -5.90327,1.12944 -14.09072,0.27187 -13.63518,-1.42819 z"
         id="path3511"
         style="fill:#fe0000"
         inkscape:connector-curvature="0"
         sodipodi:nodetypes="ssssssssss" />
      <path
         style="fill:#000000"
         d="m 478.82021,49.453111 c -0.76401,0.162271 -1.68783,0.830635 -3.08134,2.144003 -2.69799,2.542817 -3.81829,5.480119 -1.38486,3.630579 4.7097,-3.579653 4.49164,-3.543929 3.40368,-0.556147 -0.55109,1.513442 -0.7966,3.524436 -0.54357,4.468744 0.28106,1.048947 -0.25991,1.909682 -1.39261,2.213186 -3.05462,0.818484 -9.71686,12.341621 -10.58491,18.308742 -0.64615,4.441766 -0.43602,6.025495 1.21071,9.166972 2.74596,5.23844 5.1897,6.348466 14.84796,6.73216 9.48193,0.3767 13.10837,-0.817524 15.60572,-5.13998 1.43747,-2.488001 1.44822,-3.150859 0.0612,-4.133246 -0.90829,-0.643349 -2.36633,-1.00809 -3.24001,-0.810119 -1.03704,0.235014 -0.89085,-0.162374 0.42274,-1.14653 3.63099,-2.720384 0.7464,-3.665987 -8.71564,-2.855184 -5.12163,0.438879 -9.5988,0.632868 -9.94806,0.431241 -0.34927,-0.201643 1.10591,-2.489569 3.2313,-5.085797 2.12541,-2.59623 3.909,-5.721829 3.9647,-6.944404 0.0914,-2.006553 1.09302,-1.67654 10.29183,3.387246 5.60477,3.085338 10.55143,5.513601 10.99361,5.395119 0.44218,-0.118482 1.44953,-1.01789 2.23719,-1.996673 1.61958,-2.012544 0.31966,-3.864813 -2.23143,-3.181251 -0.93044,0.24931 -4.95701,-1.763937 -8.94895,-4.472975 l -7.25858,-4.925908 1.40244,-2.614164 c 2.19506,-4.091735 1.50658,-8.623541 -1.58119,-10.40627 -1.4174,-0.818325 -3.35943,-1.277568 -4.3157,-1.021338 -0.95627,0.256231 -2.38546,0.09149 -3.17518,-0.364451 -0.41172,-0.237708 -0.81267,-0.320899 -1.27109,-0.223555 z"
         id="path3394"
         inkscape:connector-curvature="0" />
      <path
         style="fill:#fefefe"
         d="m 481.02587,94.613848 c -10.72582,-0.401109 -14.41758,-2.780105 -13.09508,-8.438579 0.6123,-2.619846 3.45251,-3.520424 5.81337,-1.843323 2.8312,2.011233 14.51148,3.710579 18.38195,2.674378 4.32922,-1.159017 5.90485,0.03157 4.12395,3.116176 -2.10054,3.638261 -6.14335,4.830936 -15.22419,4.491348 z"
         id="path3423"
         inkscape:connector-curvature="0" />
      <path
         style="fill:#fefefe"
         d="m 481.34652,85.733892 c -3.82705,-0.699563 -6.81789,-1.515106 -6.6463,-1.812315 0.46979,-0.813696 19.89368,-2.42228 20.09678,-1.664308 0.0968,0.361218 -0.79994,1.199718 -1.99274,1.863329 -1.19279,0.663609 -2.69313,1.584266 -3.33409,2.045898 -0.64095,0.46164 -4.29659,0.266968 -8.12365,-0.432604 z"
         id="path3411"
         inkscape:connector-curvature="0" />
      <path
         style="fill:#fefefe"
         d="m 492.75963,72.325998 c -6.1295,-3.374191 -10.62253,-5.232705 -11.35827,-4.698294 -0.66948,0.486294 -2.17783,0.512115 -3.35192,0.05726 -1.77325,-0.686906 -2.0398,-1.232849 -1.57432,-3.224478 1.12644,-4.819651 4.46252,-4.086563 15.5583,3.418882 6.17071,4.174017 11.14493,6.848847 12.20712,6.564234 2.19006,-0.586823 2.76628,0.873395 0.88414,2.240523 -0.75393,0.547642 -1.56277,1.047145 -1.79741,1.110017 -0.23465,0.06287 -4.99008,-2.397795 -10.56764,-5.468147 z"
         id="path3409"
         inkscape:connector-curvature="0" />
      <path
         style="fill:#fefefe"
         d="m 484.29226,61.826784 c -2.42562,-1.503255 -2.60866,-1.88473 -1.59266,-3.319179 0.93866,-1.325229 1.68399,-1.444125 4.08802,-0.652148 2.81517,0.927421 2.88983,1.066548 1.75754,3.274998 -0.65039,1.268538 -1.25673,2.326312 -1.34741,2.35061 -0.0907,0.0243 -1.39815,-0.720129 -2.90549,-1.654281 z"
         id="path3405"
         inkscape:connector-curvature="0" />
      <path
         style="fill:#0000fe"
         d="m 465.708,85.705285 c -0.86983,-3.338946 1.8493,-12.726439 5.10191,-17.613736 3.85269,-5.788974 5.55851,-7.048552 4.72688,-3.490317 -0.6053,2.58986 1.08812,4.317468 4.37895,4.467417 2.84054,0.129425 2.1827,2.299997 -2.49992,8.248581 -2.86513,3.639721 -4.81219,5.26827 -6.30944,5.277282 -1.29741,0.0078 -2.74251,0.906473 -3.60485,2.241729 -1.10414,1.709658 -1.52182,1.912048 -1.79353,0.869044 z"
         id="path3479"
         inkscape:connector-curvature="0" />
      <path
         style="fill:#000000"
         d="m 476.42036,97.375176 c -1.0872,-0.0277 -2.46338,0.54993 -3.18164,0.94727 -0.98104,0.5427 -0.83334,2.087844 0.0488,3.384754 0.44091,0.62433 0.81782,1.31181 1.00586,1.9043 0.71079,2.23948 7.7984,36.19327 13.24805,63.46289 1.92348,9.625 3.73079,18.2875 4.01563,19.25 0.43393,1.46635 -2.12521,1.69738 -22.92188,1.73242 0,0 -17.4302,0.46289 -7.38281,0.46289 16.05478,0.022 49.04742,0.0217 70.875,0.0391 52.28181,0 0,-0.49414 0,-0.49414 -1.21527,9.5e-4 -9.76774,0.01 -11.11914,0.01 -14.33707,0 -26.06836,-0.14394 -26.06836,-0.32031 0,-0.6393 -7.84912,-39.25229 -8.52344,-41.92969 l -0.69336,-2.75 15.60938,0 c 20.90463,0 20.82798,-1.85766 -0.0918,-2.22461 l -15.70117,-0.27539 -3.76368,-17.5 c -2.00409,-9.31797 -3.25578,-17.56682 -3.39257,-18.83203 -0.16719,-1.89008 0.0983,-4.366204 -0.52344,-5.992184 -0.2384,-0.62354 -0.78714,-0.85837 -1.43945,-0.875 z"
         id="path3499"
         inkscape:connector-curvature="0"
         sodipodi:nodetypes="csccscccccssccsscsccsc" />
    </g>
  </g>
</svg>
