<?xml version="1.0" encoding="UTF-8" standalone="no"?>
<!-- Created with Inkscape (http://www.inkscape.org/) -->

<svg
   xmlns:dc="http://purl.org/dc/elements/1.1/"
   xmlns:cc="http://creativecommons.org/ns#"
   xmlns:rdf="http://www.w3.org/1999/02/22-rdf-syntax-ns#"
   xmlns:svg="http://www.w3.org/2000/svg"
   xmlns="http://www.w3.org/2000/svg"
   version="1.1"
   width="824"
   height="219"
   id="svg2">
  <metadata
     id="metadata8">
    <rdf:RDF>
      <cc:Work
         rdf:about="">
        <dc:format>image/svg+xml</dc:format>
        <dc:type
           rdf:resource="http://purl.org/dc/dcmitype/StillImage" />
        <dc:title></dc:title>
      </cc:Work>
    </rdf:RDF>
  </metadata>
  <defs
     id="defs6" />
  <g
     id="g2987">
    <path
       d="m 298.75,142.42803 c -1.5125,-0.82055 -2.75,-1.73256 -2.75,-2.02669 0,-0.29413 1.07348,-1.96726 2.3855,-3.71806 1.31203,-1.7508 3.14833,-5.88328 4.08067,-9.18328 2.53999,-8.99021 7.51872,-22.87106 8.59031,-23.95 0.59543,-0.59953 1.38623,-0.50729 2.14352,0.25 0.93333,0.93333 0.82222,1.2 -0.5,1.2 -1.189,0 -1.69861,0.82661 -1.69536,2.75 0.009,5.56692 -4.48127,26.50637 -7.18438,33.5 -1.21921,3.15441 -1.36485,3.18825 -5.07026,1.17803 z m 80.41251,-1.30643 c -1.88694,-1.19605 -1.04067,-5.52906 1.16189,-5.94904 1.00343,-0.19133 2.71553,0.45859 3.80467,1.44425 1.96836,1.78134 1.96641,1.80277 -0.3244,3.56542 -2.6532,2.04147 -2.84288,2.07985 -4.64216,0.93937 z M 292.75,136.42803 C 290.70279,135.31739 290,134.17761 290,131.96806 290,129.51393 290.40953,129 292.36514,129 c 1.30083,0 3.54355,0.92694 4.98383,2.05986 2.49642,1.96369 2.54404,2.17379 1.01985,4.5 -1.8524,2.82713 -1.97342,2.84582 -5.61882,0.86817 z m 65.25,0.56511 c 0,-4.72811 11.37119,-16.58473 13.17755,-13.7401 1.95229,3.07445 0.72334,5.53315 -4.84839,9.69993 C 359.80743,137.83022 358,138.70694 358,136.99314 z M 382.70254,133.75 c -5.22873,-6.47617 -8.44885,-11.90695 -9.19056,-15.5 -0.36899,-1.7875 -0.47251,-3.25 -0.23005,-3.25 0.24245,0 3.02587,3.375 6.18537,7.5 5.1353,6.70459 6.10076,7.5 9.10343,7.5 4.06023,0 6.1357,2.8115 4.42927,6 -1.91534,3.57884 -6.37879,2.60357 -10.29746,-2.25 z M 630,134.68301 c 0,-1.66674 4.63942,-6.92723 16.53134,-18.74436 17.4414,-17.331713 22.05943,-20.763212 25.47943,-18.932884 2.97446,1.591882 2.42074,4.172164 -1.76077,8.205054 C 663.14816,112.06025 632.58574,137 631.29394,137 630.58227,137 630,135.95735 630,134.68301 z m -319.82418,-5.55319 c -0.79637,-0.50491 -1.19497,-2.19283 -1,-4.23468 0.24502,-2.56606 0.8407,-3.46886 2.43937,-3.69703 1.72133,-0.24567 2.30385,0.44138 3.12836,3.68969 0.82299,3.24232 0.73909,4.09675 -0.44698,4.55189 -1.9247,0.73858 -2.54008,0.6923 -4.12075,-0.30987 z m 9.02977,-0.81989 c -0.51091,-0.99546 -1.22475,-3.04743 -1.58631,-4.55993 -0.58176,-2.43365 -0.37402,-2.75 1.8059,-2.75 1.35481,0 3.72589,1.09773 5.26906,2.43941 2.30664,2.00546 2.60993,2.76149 1.7049,4.25 -1.53606,2.52636 -6.01702,2.91289 -7.19355,0.62052 z M 284.5,125.95683 c -6.05,-0.38631 -12.4625,-0.75964 -14.25,-0.82961 -1.9716,-0.0772 -3.25,-0.64969 -3.25,-1.45547 0,-2.33677 8.83053,-3.46627 22.83116,-2.9203 12.97011,0.50579 13.31578,0.57713 12.76365,2.63421 -0.31213,1.16289 -0.57365,2.45184 -0.58116,2.86434 -0.0145,0.79928 -0.54357,0.79043 -17.51365,-0.29317 z m 178.68963,-3.67134 c 0.2755,-3.29712 0.67556,-3.78858 3.56037,-4.3737 3.5606,-0.72219 3.75924,-0.3814 2.18744,3.75276 -2.12857,5.59855 -6.20046,6.03844 -5.74781,0.62094 z M 204.0609,122.1138 c -2.15031,-4.01789 -1.13444,-5.55203 8.52839,-12.87937 l 9.58136,-7.26557 4.14286,1.11556 4.14285,1.11555 -4.15808,3.65002 c -2.28695,2.0075 -7.00213,6.18 -10.47818,9.2722 -7.50243,6.67396 -10.23749,7.83495 -11.7592,4.99161 z m 175.11024,-1.09619 -2.20498,-2.98239 9.99875,-5.01761 C 392.46423,110.25792 397.7934,108 398.80752,108 c 1.97962,0 6.19248,3.90708 6.19248,5.74302 0,2.375 -3.20863,4.37007 -6.03123,3.75012 -2.04241,-0.44859 -4.66607,0.33646 -9.85133,2.94772 -3.88713,1.95753 -7.21912,3.55914 -7.40442,3.55914 -0.1853,0 -1.32914,-1.34208 -2.54188,-2.98239 z M 98.954365,115.83052 c -0.617498,-2.29321 -0.892439,-5.10571 -0.610979,-6.25 0.281459,-1.14428 2.756764,-10.608672 5.500664,-21.03197 4.35293,-16.535467 5.33343,-19.202399 7.69124,-20.919947 3.12545,-2.276728 5.75579,-1.331439 6.28906,2.260156 0.17839,1.201477 -3.14784,11.018061 -7.39163,21.814631 -4.24379,10.79657 -7.93578,21.58009 -8.20441,23.96337 -0.61612,5.46624 -1.82979,5.52695 -3.273945,0.16376 z m 211.438645,2.58769 C 310.72686,117.54823 311,115.94667 311,114.8592 c 0,-2.9667 1.70446,-1.32617 2.21151,2.12856 0.36158,2.46361 0.0899,3.01224 -1.49169,3.01224 -1.35253,0 -1.75135,-0.47546 -1.32681,-1.58179 z m 153.09997,-2.2445 C 462.94684,115.67197 458.225,114.46024 453,113.48098 c -11.84164,-2.21935 -13.12257,-2.66462 -12.15752,-4.2261 0.59927,-0.96965 2.46906,-0.93083 8.80297,0.18278 4.42314,0.77767 9.84751,1.17178 12.05415,0.87581 5.06576,-0.67947 8.53411,1.03275 8.11108,4.00419 -0.33262,2.33648 -4.47128,3.55235 -6.3177,1.85605 z m -96.30965,-4.39038 c -1.37856,-1.37856 -1.58108,-5.41947 -0.31095,-6.20446 0.47981,-0.29653 1.14094,1.11578 1.46918,3.13848 0.68398,4.21487 0.49388,4.71809 -1.15823,3.06598 z M 68,106 c 0,-0.55 -1.125,-1 -2.5,-1 -2.92139,0 -3.017617,-0.86619 -1.531808,-13.788522 0.591495,-5.144331 0.599258,-9.218971 0.02046,-10.741316 -1.632105,-4.29276 1.586055,-7.897936 4.724802,-5.293007 1.594551,1.323359 1.575576,1.535266 -1.550564,17.316567 C 65.108808,102.86311 65.147947,104 67.559017,104 68.351558,104 69,104.675 69,105.5 c 0,0.825 -0.225,1.5 -0.5,1.5 -0.275,0 -0.5,-0.45 -0.5,-1 z m 87.07895,0.25 c -0.0434,-0.6875 -1.16901,-1.25 -2.5013,-1.25 -2.19268,0 -2.71358,-0.93742 -5.49404,-9.88713 -1.68943,-5.437921 -4.4201,-12.450491 -6.06815,-15.583489 C 137.75654,73.334085 138.13117,70 142.08621,70 c 2.58237,0 4.37495,4.224708 6.91345,16.293522 2.7572,13.10852 3.86307,16.530278 5.669,17.540928 0.87446,0.48937 1.34228,1.51432 1.03958,2.27766 -0.38084,0.96044 -0.57466,1.00291 -0.62929,0.13789 z M 230.5,103.4128 c -6.30854,-1.95549 -12.07454,-3.18485 -13.51946,-2.88245 -1.40458,0.29396 -3.37835,-0.10075 -4.46043,-0.891983 -1.67182,-1.222468 -1.77609,-1.781128 -0.75198,-4.02882 1.46618,-3.217918 1.96863,-3.224949 7.82789,-0.109547 2.58602,1.375 5.25263,2.5 5.9258,2.5 0.67317,0 3.24267,0.892977 5.70999,1.984393 2.46733,1.091417 6.91203,2.636797 9.87712,3.434187 2.96509,0.79739 4.60357,1.47941 3.64107,1.51561 C 243.7875,104.97038 243,105.45 243,106 c 0,1.31091 0.22719,1.35793 -12.5,-2.5872 z m -0.31417,-4.767763 -2.31417,-1.284092 3.8472,-2.666115 c 2.11596,-1.466363 5.61117,-4.472575 7.76712,-6.680472 C 241.64193,85.806461 243.76457,84 244.20295,84 c 2.92005,0 -1.89583,9.901225 -6.53811,13.442068 -3.8058,2.902822 -4.27853,2.978862 -7.47901,1.202969 z M 217,92.965259 c -2.44602,-1.947293 -2.45809,-2.022388 -0.55887,-3.477764 2.52277,-1.933206 5.01687,-1.886634 7.03487,0.131359 1.4918,1.491806 1.48525,1.766488 -0.0836,3.5 -2.14028,2.364982 -3.2627,2.338013 -6.39244,-0.153595 z m 572.88939,-3.409206 c -0.24417,-0.244171 -8.75667,-1.6273 -18.91667,-3.073621 C 752.68811,83.879537 745,81.813608 745,79.503113 c 0,-0.656226 0.88982,-1.998413 1.97738,-2.982639 2.36556,-2.140804 1.50217,-2.26812 30.02262,4.427156 11.825,2.775961 22.2875,5.048364 23.25,5.049785 3.36462,0.005 1.71214,1.77469 -2.69282,2.88387 -4.74515,1.194842 -6.95339,1.389168 -7.66779,0.674768 z M 470.81141,84.584347 c -2.37487,-2.724448 -2.92913,-2.937501 -4.75,-1.825873 -2.00795,1.225837 -2.06157,1.070236 -2.0676,-6 -0.003,-3.992161 -0.91468,-14.140774 -2.02507,-22.552474 -1.34055,-10.155387 -1.69908,-15.865431 -1.06709,-16.994744 1.49814,-2.677034 6.78768,9.440789 7.70401,17.649153 0.58439,5.2349 0.90208,6.110684 1.50162,4.139591 0.4466,-1.468239 0.54925,-0.230126 0.24874,3 -0.40231,4.32447 -0.26115,5.179401 0.66048,4 0.99923,-1.278692 1.08567,-1.232838 0.58589,0.310791 -0.32245,0.995935 0.066,6.152567 0.86315,11.459182 0.79719,5.306615 1.35606,9.704715 1.24194,9.773556 -0.11411,0.06884 -1.41735,-1.262791 -2.89607,-2.959182 z M 71.606989,82.418213 C 70.382118,79.22625 70.954482,77 73,77 c 2.348764,0 6,3.346967 6,5.5 0,2.124527 -6.574278,2.051797 -7.393011,-0.08179 z M 683.25,78.968838 c -2.56026,-1.029099 -3.05935,-4.721031 -0.75761,-5.604291 2.15039,-0.825182 10.00237,-12.989368 14.07624,-21.806712 2.45804,-5.320113 4.00111,-7.523489 5.21165,-7.441834 1.52493,0.102863 1.51399,0.169248 -0.0966,0.5861 -1.3087,0.338713 -1.73457,1.24954 -1.52379,3.25898 0.16089,1.533885 -0.26642,3.462378 -0.94958,4.28554 -0.68317,0.823162 -2.29934,4.59192 -3.5915,8.375019 -2.45164,7.177726 -8.48888,19.424578 -9.52157,19.314974 -0.32847,-0.03486 -1.60972,-0.470362 -2.84722,-0.967776 z M 147.21074,75.334998 C 145.9314,71.166513 146.31966,70 148.98644,70 151.20978,70 155,74.496948 155,77.134859 155,78.581894 154.25302,79 151.66778,79 c -2.96555,0 -3.45599,-0.403284 -4.45704,-3.665002 z M 535.5,73.846299 c -8.8,-2.162158 -19.56402,-4.249594 -23.92003,-4.638748 -4.35985,-0.389495 -8.08651,-1.211513 -8.29038,-1.82867 -0.20584,-0.623143 1.65717,-1.631651 4.19429,-2.270506 3.73801,-0.94124 7.41247,-0.776494 20.29038,0.909728 8.64916,1.132513 18.19558,2.37924 21.21427,2.770506 4.69439,0.608459 5.68255,1.116795 6.82942,3.513238 1.04886,2.191647 1.07913,3.117233 0.13902,4.25 -1.57951,1.903193 -1.83908,1.868864 -20.45697,-2.705548 z m 155.72014,-0.83688 c 2.17486,-3.806794 2.2947,-3.873091 2.60212,-1.439528 C 694.17949,74.397772 692.5144,77 690.3477,77 c -1.06414,0 -0.85134,-0.973333 0.87244,-3.990581 z m -118.73522,-0.03382 c -0.34821,-0.563419 -0.34702,-2.326958 0.003,-3.918976 0.42492,-1.934635 -0.007,-4.165076 -1.30386,-6.725601 C 567.54118,55.136544 567.20313,46 570.57946,46 c 1.68295,0 1.81292,1.398311 0.379,4.077619 -1.20381,2.249337 1.42461,9.113691 5.57154,14.550604 3.03898,3.984298 3.04966,4.478589 0.15555,7.197463 -2.59635,2.439146 -3.28699,2.628208 -4.20063,1.149915 z M 580.46862,70.5 c -0.25774,-0.825 -0.67686,-2.168136 -0.93138,-2.984746 -0.57619,-1.848671 2.90934,-3.825679 5.36865,-3.045124 1.00669,0.319511 2.59324,1.423924 3.52568,2.454253 1.60379,1.772174 1.5719,1.959777 -0.59063,3.47447 -2.87841,2.016122 -6.75744,2.069341 -7.37232,0.101147 z M 723,68.267941 c -1.375,-0.894935 -4.75,-3.727463 -7.5,-6.294506 -2.75,-2.567043 -6.4625,-5.666863 -8.25,-6.888487 -3.07828,-2.103776 -4.15275,-4.430159 -2.5,-5.412847 0.4125,-0.245264 4.77227,2.411042 9.68838,5.902902 4.91611,3.49186 10.20735,6.627549 11.75831,6.968198 3.86996,0.849986 5.70596,4.323599 3.23879,6.127634 -2.2991,1.681148 -3.33295,1.616423 -6.43548,-0.402894 z M 720.2532,58.75 C 716.7786,56.321069 716.1444,55 718.45295,55 721.30054,55 725,57.350931 725,59.160515 725,61.552806 724.15853,61.480034 720.2532,58.75 z M 46.5,54.073413 C 44.400824,53.194384 40.495004,48.556014 35.491302,41 33.852322,38.525 29.021287,32.332723 24.755669,27.239384 17.090307,18.086599 15.871038,16 18.18812,16 20.543484,16 25.731692,20.616802 39,34.519753 c 11.015598,11.54249 13.5,14.682588 13.5,17.062986 0,3.168252 -2.200508,4.08171 -6,2.490674 z M 469.14904,51.5 c -0.0828,-1.65 -1.48115,-5.8125 -3.10737,-9.25 -2.69819,-5.703458 -2.82361,-8.120603 -0.25945,-5 1.85764,2.260755 4.38135,11.462929 3.94512,14.38507 l -0.42768,2.86493 -0.15062,-3 z"
       id="path2997"
       style="fill:#fefefe" />
    <path
       d="M 0,109.5 0,0 412,0 824,0 824,109.5 824,219 412,219 0,219 0,109.5 z m 753.75,84.75021 -49.75,-0.26888 0,-70.07407 0,-70.074073 2.7011,1.967613 c 2.12161,1.545484 2.72287,2.835473 2.80259,6.012839 0.0829,3.305258 -0.31971,4.237135 -2.2011,5.094354 C 705.06,67.929784 704.11134,70 705.88569,70 c 0.48713,0 2.15093,-0.656409 3.69732,-1.458687 2.03725,-1.056942 3.16882,-1.16224 4.10856,-0.382325 0.71332,0.592 2.34651,0.875725 3.62932,0.6305 1.85798,-0.355175 2.76637,0.308206 4.46606,3.261494 1.83127,3.1819 3.45034,4.236584 11.42337,7.441327 7.7306,3.107301 12.64627,4.219921 29.28968,6.629474 11,1.592527 22.475,3.362168 25.5,3.932534 4.19439,0.790857 6.56823,0.71902 10,-0.302618 4.67988,-1.3932 6.09628,-3.968265 2.5,-4.54511 -1.1,-0.17644 -9.875,-2.124526 -19.5,-4.329079 -37.87892,-8.675958 -36.52814,-8.240589 -44.53888,-14.355322 -2.41115,-1.840476 -5.75128,-3.646645 -7.42252,-4.013709 C 726.68545,61.991639 726,61.300855 726,59.446225 726,56.543137 721.67784,54 716.74394,54 712.86162,54 707.27165,50.335206 704.91863,46.247313 702.01646,41.205381 699.92634,42.616416 694.91611,53 c -4.55249,9.434909 -4.61234,9.503873 -8.73479,10.065208 -2.283,0.310864 -4.5775,0.138612 -5.09889,-0.382783 -1.35647,-1.356463 -3.69673,-0.200709 -5.65962,2.795039 -2.33196,3.559017 -0.94908,4.461294 1.69187,1.103879 2.46235,-3.130373 3.40204,-2.557722 4.1717,2.542247 0.47959,3.177879 0.17502,3.8985 -2.47614,5.858585 -1.85125,1.368687 -4.32753,5.097611 -6.38857,9.620275 -3.04463,6.680984 -5.25157,9.295849 -23.14212,27.41957 l -19.77654,20.03429 -2.1663,-10.16575 c -1.19147,-5.59117 -1.92077,-11.67884 -1.62067,-13.52816 0.50351,-3.10276 0.34249,-3.3624 -2.0852,-3.3624 -1.49732,0 -2.63084,0.56234 -2.63084,1.30518 0,0.71785 1.36057,7.53009 3.02349,15.13831 1.66292,7.60822 2.7828,14.59149 2.48862,15.51837 -0.29418,0.92687 0.11536,3.00213 0.91009,4.61168 0.79474,1.60956 3.5283,13.27646 6.0746,25.92646 2.54629,12.65 4.8565,23.7875 5.1338,24.75 0.46796,1.62431 -0.90421,1.75 -19.10523,1.75 l -19.6094,0 0.29202,-74.50028 c 0.28978,-73.930909 0.27672,-74.500286 -1.70799,-74.500453 -1.9779,-1.66e-4 -1.99659,0.563647 -1.69159,51.013479 l 0.30842,51.013644 -34.25809,-0.26319 -34.25809,-0.2632 -3.71638,-17.37987 c -2.26505,-10.59264 -3.5028,-18.69597 -3.16948,-20.75 C 522.2252,105.22481 522.07746,105 519.5,105 c -3.26935,0 -3.5668,-2.82956 2.99603,28.5 2.53467,12.1 6.18226,29.875 8.10575,39.5 1.92348,9.625 3.73029,18.2875 4.01512,19.25 0.48699,1.64564 -1.81186,1.75 -38.54951,1.75 C 474.58032,194 457,193.8557 457,193.67933 c 0,-0.6393 -7.84996,-39.25193 -8.52425,-41.92933 l -0.69257,-2.75 22.10841,0 C 483.67639,149 492,148.63071 492,148.01913 c 0,-0.60363 -8.54009,-1.08437 -22.20528,-1.25 L 447.58943,146.5 l -3.65064,-17 c -2.00785,-9.35 -3.56339,-17.11459 -3.45674,-17.25465 0.21367,-0.2806 20.16811,3.58351 22.43517,4.34449 1.08016,0.36259 1.13962,0.75332 0.25,1.64294 -1.71922,1.71922 -1.41925,7.83125 0.48777,9.93848 3.29488,3.6408 12.22948,1.42577 12.4084,-3.07625 0.0387,-0.97379 0.43651,-0.66223 1.02139,0.79992 0.5269,1.31721 0.69305,3.22971 0.36922,4.25 -0.32383,1.02029 -0.13878,1.85507 0.41122,1.85507 3.06194,0 2.16173,-8.16729 -1.15637,-10.49137 -1.13444,-0.7946 -2.6172,-2.76369 -3.29503,-4.37576 -1.07899,-2.56617 -0.92257,-3.59714 1.25659,-8.28195 L 477.15942,103.5 475.63952,92 C 474.80357,85.675 473.37072,73.3 472.4554,64.5 470.13996,42.239182 467.81075,35 462.96376,35 c -3.80537,0 -4.12419,3.076588 -1.99237,19.226143 2.33004,17.651105 2.49581,24.938727 0.82946,36.463802 -0.85014,5.879829 -0.90424,9.733405 -0.18589,13.240145 0.95201,4.64741 0.88269,4.97917 -1.14672,5.48853 -2.83974,0.71272 -18.8701,-2.1242 -19.30059,-3.41567 C 440.98378,105.45133 439.68695,105 438.28582,105 c -3.01745,0 -3.31703,-2.65964 3.21021,28.5 2.53467,12.1 6.18226,29.875 8.10575,39.5 1.92348,9.625 3.73029,18.2875 4.01512,19.25 0.48573,1.64139 -1.49896,1.75 -31.97861,1.75 l -32.49649,0 -1.06331,-5.25 c -0.58482,-2.8875 -2.58088,-12.675 -4.4357,-21.75 -3.45034,-16.88139 -3.33652,-19.84278 0.6249,-16.25774 1.68199,1.52218 2.02084,1.51851 4.67713,-0.0506 C 390.71583,149.64551 393.9438,149 397.40429,149 400.48193,149 403,148.55 403,148 c 0,-0.55 -1.7625,-1 -3.91667,-1 -2.22222,0 -4.11495,-0.54078 -4.375,-1.25 -0.36666,-1 -0.72333,-1 -1.78333,0 -0.72875,0.6875 -2.39575,1.25 -3.70446,1.25 -2.16083,0 -2.31541,-0.29861 -1.6824,-3.25 0.9451,-4.4065 1.22715,-4.75 3.90029,-4.75 2.61759,0 9.6467,-6.33015 11.9282,-10.74208 0.80962,-1.56564 2.21512,-5.71426 3.12333,-9.21918 1.58632,-6.12179 1.57574,-6.47422 -0.26867,-8.95566 -3.26826,-4.39704 -7.50021,-3.96499 -19.33489,1.97393 l -10.29617,5.16685 -2.20695,-2.76778 c -1.61968,-2.03127 -2.06841,-3.62156 -1.6863,-5.97621 0.46086,-2.83993 0.21004,-3.28639 -2.18382,-3.88721 -5.50996,-1.38291 -7.19019,3.30144 -3.12923,8.72406 4.26862,5.69991 4.14284,6.8631 -1.17117,10.83037 -5.56613,4.15551 -10.38544,12.08023 -8.49565,13.97002 1.27741,1.27741 1.55494,1.13055 10.47632,-5.54337 l 4.69342,-3.51106 0.68139,4.54384 c 0.43613,2.90829 0.27652,4.94872 -0.44342,5.66866 -1.82971,1.82971 -1.29393,4.93879 1.32174,7.6701 2.04388,2.13423 3.12342,5.92891 6.55879,23.05472 2.26172,11.275 4.34109,21.2875 4.62082,22.25 0.4755,1.63609 -1.25323,1.75 -26.55878,1.75 C 344.18032,194 332,193.8557 332,193.67933 c 0,-0.6393 -7.84996,-39.25193 -8.52425,-41.92933 l -0.69257,-2.75 8.60841,0 c 11.31206,0 11.2006,-1.83647 -0.13419,-2.21107 l -8.74261,-0.28893 -0.51676,-2.99739 c -0.43729,-2.53642 0.12572,-3.613 3.66087,-7.00027 7.87307,-7.54373 6.41856,-14.17618 -3.48448,-15.88898 -5.88253,-1.01743 -6.57867,-2.13074 -6.42767,-10.27965 0.0721,-3.89182 -0.37359,-5.59102 -1.80675,-6.88801 -2.79468,-2.52915 -4.35488,-0.70947 -7.50703,8.75556 l -2.6813,8.05122 -13.62583,-0.5054 c -8.05235,-0.29867 -15.61244,-0.0654 -18.48259,0.57015 -4.77239,1.05687 -6.78074,2.94528 -5.01269,4.71333 0.49288,0.49288 8.24971,1.33471 17.23741,1.87074 8.9877,0.53603 16.57478,1.20812 16.86019,1.49352 0.2854,0.28541 0.23955,1.24695 -0.10191,2.13677 -0.55096,1.43579 -0.91762,1.38438 -3.25839,-0.45688 -2.96182,-2.32976 -10.19298,-2.84959 -12.16786,-0.87471 -1.57481,1.57481 -1.54554,9.05446 0.0416,10.64164 0.98886,0.98886 0.93796,1.43364 -0.25,2.18469 -2.15802,1.36434 -3.6321,1.19036 -5.46783,-0.64538 -2.28885,-2.28885 -3.22827,-0.81685 -1.02936,1.61292 2.13402,2.35806 4.29398,2.54305 7.06128,0.60476 3.56444,-2.49664 8.04127,-2.32572 10.964,0.41858 3.14977,2.95748 9.31461,3.20199 16.46602,0.65309 2.46716,-0.87935 4.79861,-1.27739 5.18101,-0.88455 0.3824,0.39284 2.77976,11.06425 5.32746,23.71425 2.54771,12.65 4.85908,23.7875 5.13638,24.75 0.47282,1.64116 -1.52125,1.75 -32.06321,1.75 C 278.65532,194 264,193.8557 264,193.67933 c 0,-0.6393 -7.84996,-39.25193 -8.52425,-41.92933 l -0.69257,-2.75 6.10841,0 c 7.99918,0 7.92103,-1.81757 -0.0947,-2.20228 L 254.59378,146.5 250.81929,129 c -3.17071,-14.70067 -3.58982,-17.96134 -2.62003,-20.38409 0.99076,-2.47512 0.88958,-3.07778 -0.71353,-4.25 C 246.45834,103.61466 244.96846,103 244.17489,103 c -0.79357,0 -3.19438,-0.52477 -5.33514,-1.16616 l -3.89228,-1.16615 3.55529,-2.930574 C 242.04494,94.81735 246,88.413988 246,85.598855 c 0,-3.206967 -2.40099,-2.6339 -6.84569,1.633926 -7.90084,7.586433 -11.80989,10.070479 -14.70433,9.344022 l -2.5703,-0.645104 2.56016,-3.042575 C 225.84793,91.215708 227,89.081204 227,88.145781 227,85.223028 224.1333,82.185007 220.74876,81.520943 218.96194,81.170362 216.6,80.51576 215.5,80.066273 c -6.69243,-2.73469 -7.80418,-3.095428 -8.22936,-2.670245 -0.96413,0.964127 0.84595,2.47067 3.72936,3.103972 3.93684,0.864676 4.27722,1.643243 2.79487,6.392861 -0.97261,3.116374 -2.07491,4.380607 -4.94985,5.677023 -5.53405,2.49551 -8.5214,6.217169 -10.78317,13.433736 -2.87136,9.16158 -2.69137,12.5207 0.86123,16.0733 5.22281,5.22282 8.22233,4.11019 21.57692,-8.00365 5.5,-4.98901 10.48082,-9.07145 11.0685,-9.07209 3.31754,-0.004 11.37901,3.25807 11.86914,4.80233 0.63892,2.01308 7.97811,37.24597 13.16414,63.19649 1.92348,9.625 3.73029,18.2875 4.01512,19.25 0.48782,1.64844 -2.09757,1.75 -44.54951,1.75 C 191.28032,194 171,193.8557 171,193.67933 c 0,-0.6393 -7.84996,-39.25193 -8.52425,-41.92933 l -0.69257,-2.75 10.10841,0 c 13.32454,0 13.2472,-1.84235 -0.093,-2.21502 L 161.59722,146.5 157.78925,129 c -3.72146,-17.10244 -3.7688,-17.57625 -2.08385,-20.85638 1.64345,-3.19933 1.63939,-3.41834 -0.0867,-4.6805 -1.73903,-1.27161 -4.59314,-10.283954 -6.08459,-19.21312 -0.67786,-4.058271 -0.59683,-4.25 1.79622,-4.25 3.8607,0 5.61321,-0.990109 7.20668,-4.071521 2.19099,-4.236913 1.84098,-7.634721 -0.97664,-9.480896 -1.42783,-0.935546 -2.21092,-2.194619 -1.88813,-3.035788 C 156.45358,61.375601 154.17283,59 151.43657,59 c -1.27519,0 -2.59665,-0.45 -2.93657,-1 -0.8896,-1.439395 -2.74319,-1.23419 -2.25822,0.25 0.22464,0.6875 1.94964,1.759054 3.83333,2.38123 3.81331,1.259525 4.16409,2.689403 0.78784,3.211472 -1.21895,0.188486 -3.30981,1.059214 -4.64636,1.934951 -2.23677,1.465588 -2.50509,1.458212 -3.37304,-0.09272 -2.44471,-4.368463 -11.34495,-6.295574 -21.21777,-4.594148 -8.9897,1.549234 -12.08876,3.087013 -13.32518,6.612061 C 107.23397,70.743833 98.118389,105.92969 97.342699,110 c -0.651362,3.41792 1.810035,10.5 3.649301,10.5 1.00536,0 1.69998,-1.51487 2.15581,-4.7015 0.72841,-5.0922 14.21431,-40.50345 16.20273,-42.545112 1.14264,-1.173228 5.55601,-0.345232 17.91043,3.360188 2.38437,0.715136 4.07668,4.254283 8.66156,18.113936 4.39417,13.283188 6.63651,23.216258 17.66956,78.272488 1.92882,9.625 3.73998,18.2875 4.02481,19.25 0.48744,1.64714 -1.95471,1.75 -41.54951,1.75 C 102.93032,194 84,193.8557 84,193.67933 84,193.04003 76.150041,154.4274 75.475754,151.75 l -0.69257,-2.75 10.108408,0 c 13.324539,0 13.247202,-1.84235 -0.09298,-2.21502 L 74.597222,146.5 70.789251,129 C 67.14724,112.26269 67.051926,111.36207 68.602267,108.33513 70.308145,105.00451 69.864671,103 67.421931,103 66.432357,103 66.116464,102.27499 66.441584,100.75 66.705413,99.5125 67.4067,95.8 68,92.5 69.990126,81.430696 70.032265,81.306271 71.127941,83.264134 72.284799,85.331326 80.874328,85.725672 82.8,83.8 84.495208,82.104792 84.2886,77.362966 82.357938,73.654292 81.454804,71.919431 80.390504,69.825 79.992826,69 c -0.397677,-0.825 -1.643088,-1.5 -2.76758,-1.5 -1.124492,0 -2.385192,-0.3375 -2.801555,-0.75 -1.206642,-1.195446 -2.629691,-0.868237 -2.174526,0.5 0.228707,0.6875 1.691583,1.475 3.250835,1.75 1.559252,0.275 3.010325,1.027091 3.224606,1.671314 0.242991,0.730535 -0.346037,0.978939 -1.565269,0.660103 -1.07518,-0.281166 -2.855809,-0.02904 -3.956953,0.560271 -1.779155,0.952174 -2.45468,0.37761 -6.066815,-5.160103 C 64.899965,63.304213 60.471016,57.35 57.29346,53.5 49.923493,44.57038 26.52392,20.240024 22.30958,17.124539 19.243422,14.857857 16,14.772248 16,16.957999 c 0,0.561423 3.490051,5.188046 7.755669,10.281385 4.265618,5.093339 9.103118,11.277299 10.75,13.742133 1.646882,2.464835 6.327545,8.764835 10.401474,14 4.073928,5.235166 8.449189,11.86614 9.722802,14.735498 1.273613,2.869358 3.884648,6.953696 5.802299,9.076308 l 3.48664,3.859293 -1.048203,9.646194 c -0.768504,7.07223 -0.739302,11.05443 0.109438,14.92369 2.241072,10.21668 10.16403,48.47578 13.621657,65.7775 1.923488,9.625 3.726092,18.27426 4.005785,19.22057 0.459959,1.55623 -0.762622,1.75028 -12.799514,2.03163 -7.319426,0.17108 155.216953,0.30112 361.191953,0.28898 205.975,-0.0121 352.1125,-0.14308 324.75,-0.29097 z M 538,193.67933 c 0,-0.6393 -7.84996,-39.25193 -8.52425,-41.92933 l -0.69257,-2.75 34.10841,0 34.10841,0 0,22.5 0,22.5 -29.5,0 c -16.225,0 -29.5,-0.1443 -29.5,-0.32067 z m 104,0 c 0,-0.6393 -7.84996,-39.25193 -8.52425,-41.92933 l -0.69257,-2.75 34.10841,0 34.10841,0 0,22.5 0,22.5 -29.5,0 C 655.275,194 642,193.8557 642,193.67933 z M 385.8125,149.31689 c 0.72187,-0.28887 1.58438,-0.25335 1.91667,0.0789 0.33229,0.33229 -0.25834,0.56864 -1.3125,0.52522 -1.16495,-0.048 -1.4019,-0.28494 -0.60417,-0.60416 z M 632.69036,146.25 c -0.23523,-0.4125 -0.71186,-2.32921 -1.05919,-4.25935 -0.52606,-2.92341 -0.26331,-3.73929 1.57369,-4.88651 4.94563,-3.0886 37.79226,-31.46909 44.47284,-38.425892 7.66124,-7.978014 11.8069,-14.717129 10.98556,-17.85794 -0.35192,-1.345758 0.1649,-2.184674 1.7071,-2.77102 3.47164,-1.319915 4.90753,-3.702515 4.38343,-7.273487 -0.47476,-3.234691 3.27548,-16.205066 5.25902,-18.188608 C 700.6624,51.937602 701,67.912553 701,99.3 l 0,47.7 -33.94098,0 c -18.66754,0 -34.13344,-0.3375 -34.36866,-0.75 z M 376.61263,132.81314 c -1.15668,-5.78339 -0.75544,-6.49949 1.85637,-3.31314 2.98968,3.64732 2.99946,3.72635 0.64363,5.19759 -1.66821,1.04181 -1.95851,0.82299 -2.5,-1.88445 z m -67.80013,-2.49625 c 0.72187,-0.28887 1.58438,-0.25335 1.91667,0.0789 0.33229,0.33229 -0.25834,0.56864 -1.3125,0.52522 -1.16495,-0.048 -1.4019,-0.28494 -0.60417,-0.60416 z m 74.77095,-3.96002 c -0.74902,-1.95191 -1.08727,-1.60487 4.12671,-4.23395 5.76254,-2.90569 5.88882,-2.7219 1.28984,1.87708 -2.2,2.2 -4.17686,4 -4.39301,4 -0.21616,0 -0.67675,-0.73941 -1.02354,-1.64313 z M 213.00497,107.33403 c 0.0123,-2.06086 4.70624,-6.53629 6.49429,-6.19195 1.57857,0.30401 1.18234,0.94204 -2.2957,3.6967 -2.31196,1.8311 -4.20132,2.95397 -4.19859,2.49525 z M 416.09421,141.25 c 4.87441,-5.22244 7.00415,-10.51125 7.64502,-18.98501 0.45613,-6.03112 0.78493,-7.07487 1.92946,-6.12499 0.7588,0.62975 1.67551,0.84913 2.03712,0.48752 C 428.36699,115.96634 422.18744,109 420.93976,109 c -0.85073,0 -2.13459,9.13851 -1.38865,9.88444 0.3067,0.3067 1.01828,-0.10433 1.58129,-0.9134 0.72842,-1.04678 0.88945,0.27459 0.55835,4.58153 -0.57038,7.41959 -3.98812,15.67842 -7.82382,18.90595 -1.57681,1.3268 -2.86693,2.66641 -2.86693,2.97692 0,1.43146 1.88531,0.25256 5.09421,-3.18544 z M 190.36734,114.3366 c 0.69037,-5.03676 0.12922,-6.64853 -1.49974,-4.30764 -0.72842,1.04678 -0.88945,-0.27459 -0.55835,-4.58153 0.57684,-7.50358 3.99875,-15.687367 7.94939,-19.011608 1.64587,-1.384911 2.70425,-2.806266 2.35195,-3.158568 -1.12547,-1.125464 -7.66041,6.062683 -9.74834,10.722746 -1.10892,2.475 -2.27162,7.76362 -2.58376,11.7525 -0.47072,6.01519 -0.80292,7.05715 -1.94718,6.1075 -0.7588,-0.62975 -1.67551,-0.84913 -2.03712,-0.48752 -0.66118,0.66118 5.51837,7.62752 6.76605,7.62752 0.36735,0 0.95555,-2.09853 1.3071,-4.6634 z m 296.2099,-8.5866 c 3.28775,-6.968038 3.87012,-9.182336 3.74778,-14.25 C 490.18616,85.748187 487.2194,76.871663 484.97153,75.482403 483.4839,74.563002 483.81665,73 485.5,73 c 0.825,0 1.49629,-0.3375 1.49175,-0.75 -0.01,-0.90178 -8.14204,-5.433043 -8.71759,-4.857491 -0.59783,0.597828 0.73582,7.014751 1.8024,8.672347 0.79047,1.228489 1.05371,1.232855 1.82814,0.03032 0.67895,-1.054274 1.58198,-0.06828 3.61891,3.951407 4.1956,8.279627 3.97827,15.317757 -0.78146,25.307207 -4.10226,8.60957 -4.11455,8.64621 -2.89984,8.64621 0.46326,0 2.59398,-3.7125 4.73493,-8.25 z m 88.22139,-28.145869 c 1.82839,-0.945494 3.44408,-2.722965 3.81367,-4.195536 0.45668,-1.819556 0.9502,-2.246099 1.71448,-1.481811 C 583.48999,75.089989 592,69.830107 592,64.711782 c 0,-3.451887 -3.73809,-7.892174 -6.32758,-7.516211 -1.16897,0.16972 -3.08903,-0.69119 -4.33915,-1.945571 C 579.11909,53.028278 575,52.151667 575,53.902175 c 0,0.496196 1.35,1.372787 3,1.94798 3.37709,1.177261 3.72819,2.665191 1.4099,5.975011 -2.03587,2.906624 -3.45867,1.813513 -6.33139,-4.864302 -1.69502,-3.940178 -1.90999,-5.40722 -1.0326,-7.046655 C 573.38706,47.408247 572.63273,45 570.50663,45 c -3.96386,0 -4.23561,9.690604 -0.47827,17.055584 1.86528,3.656253 1.87773,3.921951 0.22351,4.767382 -0.96353,0.492432 -3.23122,1.175833 -5.03931,1.518669 -3.44509,0.653233 -25.66322,-1.391371 -42.71256,-3.930586 -7.88356,-1.174125 -11.00596,-1.248139 -14.75308,-0.349711 -5.3426,1.280967 -6.47403,2.357616 -4.71057,4.482467 0.78654,0.947717 3.17358,1.471389 6.83609,1.499709 3.21229,0.02484 14.2113,2.148638 25.62756,4.948427 17.21983,4.223088 21.12084,4.859582 28.06312,4.578806 4.93056,-0.199413 9.29561,-0.963451 11.23551,-1.966616 z"
       id="path2995"
       style="fill:#bfbfbf" />
    <path
       d="m 411,144.43544 c 0,-0.31051 1.29012,-1.65012 2.86693,-2.97692 3.8357,-3.22753 7.25344,-11.48636 7.82382,-18.90595 0.3311,-4.30694 0.17007,-5.62831 -0.55835,-4.58153 -0.56301,0.80907 -1.27459,1.2201 -1.58129,0.9134 -0.74594,-0.74593 0.53792,-9.88444 1.38865,-9.88444 1.24768,0 7.42723,6.96634 6.76605,7.62752 -0.36161,0.36161 -1.27832,0.14223 -2.03712,-0.48752 -1.14453,-0.94988 -1.47333,0.0939 -1.92946,6.12499 -0.30241,3.99849 -1.35873,9.06211 -2.34738,11.2525 C 418.9033,139.03094 411,147.33436 411,144.43544 z M 185.01452,115.51498 c -3.16531,-3.26577 -3.70719,-6.16466 -0.68321,-3.65498 1.14426,0.94965 1.47646,-0.0923 1.94718,-6.1075 0.31214,-3.98888 1.47484,-9.2775 2.58376,-11.7525 2.08793,-4.660063 8.62287,-11.84821 9.74834,-10.722746 0.3523,0.352302 -0.70608,1.773657 -2.35195,3.158568 -3.95064,3.324241 -7.37255,11.508028 -7.94939,19.011608 -0.3311,4.30694 -0.17007,5.62831 0.55835,4.58153 0.56301,-0.80907 1.27459,-1.2201 1.58129,-0.9134 0.74594,0.74593 -0.53792,9.88444 -1.38865,9.88444 -0.36735,0 -2.18792,-1.56826 -4.04572,-3.48502 z M 481,113.60379 c 0,-0.21791 1.68397,-3.93041 3.74215,-8.25 4.75973,-9.989446 4.97706,-17.027576 0.78146,-25.307203 -2.03693,-4.019684 -2.93996,-5.005681 -3.61891,-3.951407 -0.77443,1.202531 -1.03767,1.198165 -1.82814,-0.03032 -1.06658,-1.657596 -2.40023,-8.074519 -1.8024,-8.672347 0.57555,-0.575552 8.70767,3.955711 8.71759,4.857491 0.005,0.4125 -0.66675,0.75 -1.49175,0.75 -1.68335,0 -2.0161,1.563002 -0.52847,2.482403 2.24787,1.38926 5.21463,10.265784 5.35349,16.017597 0.12234,5.067664 -0.46003,7.281962 -3.74778,14.249996 -2.14095,4.5375 -4.27167,8.25 -4.73493,8.25 C 481.37904,114 481,113.82171 481,113.60379 z"
       id="path2993"
       style="fill:#fe0000" />
    <path
       d="m 299.35233,145.05201 c -1.18122,-0.50152 -2.46825,-1.43056 -2.86007,-2.06453 -0.39181,-0.63397 0.76702,-0.38764 2.57519,0.5474 3.13471,1.62102 3.35123,1.61324 4.65636,-0.1674 0.75284,-1.02712 1.86013,-3.81476 2.46066,-6.19477 1.0729,-4.25205 1.65905,-4.76737 7.48589,-6.58129 1.97261,-0.61408 2.27766,-0.1588 3.34798,4.9969 1.31779,6.3478 1.14749,6.63343 -5.01834,8.41686 -5.65309,1.63513 -10.34703,2.02364 -12.64767,1.04683 z m 21.30776,-7.80276 c -1.79762,-6.63111 -1.74845,-6.9888 0.8915,-6.48414 1.56889,0.29991 3.25938,-0.18905 4.48345,-1.29682 2.3966,-2.16889 2.45696,-3.26715 0.30997,-5.63955 C 325.39188,122.77554 325.17006,122 325.82196,122 c 1.93849,0 4.44125,4.81516 3.81,7.33023 -0.7211,2.87313 -4.13702,7.33452 -6.64236,8.67534 -1.44669,0.77424 -1.95974,0.60766 -2.32951,-0.75632 z m 73.28313,-1.14316 c 1.71415,-3.20292 -0.84465,-6.8716 -5.08546,-7.29128 l -3.18105,-0.31481 5.17298,-5.35556 c 4.33435,-4.48733 5.57977,-5.25347 7.68217,-4.7258 5.65928,1.42039 9.24205,-3.9015 5.38822,-8.00372 C 402.67229,109.08672 402.16944,108 402.80263,108 c 0.6332,0 1.85462,1.07345 2.71427,2.38544 1.42155,2.16957 1.41152,2.98847 -0.11078,9.04879 -1.82112,7.24993 -5.27534,13.1317 -9.78397,16.65997 l -2.87785,2.25209 1.19892,-2.2402 z M 199.45455,121.54545 c -3.04206,-3.04206 -3.13909,-6.77907 -0.40267,-15.50978 2.18483,-6.970837 3.9231,-9.454254 8.1461,-11.638049 4.05248,-2.095618 4.93852,-1.791306 3.56454,1.224247 -1.07215,2.35311 -0.92281,2.840016 1.45689,4.750002 l 2.6515,2.12813 -2.2996,3.79497 c -1.26478,2.08723 -4.16074,5.16366 -6.43546,6.83651 -4.23254,3.11265 -5.01291,5.3612 -3.10067,8.93426 1.49773,2.79852 -0.56096,2.49938 -3.58063,-0.52029 z m 271.1803,-9.05463 c -0.3337,-0.86962 -2.15961,-2.22996 -4.05757,-3.02298 -3.02217,-1.26274 -3.53601,-2.00983 -4.13651,-6.01422 -0.92508,-6.168902 0.34577,-16.549694 2.28977,-18.70362 2.38101,-2.638139 3.96954,-2.146713 7.12025,2.202717 4.28377,5.913572 5.01989,14.969413 1.78448,21.952723 -1.67273,3.61041 -2.57642,4.69029 -3.00042,3.58538 z M 675,98.84294 c 0,-0.438259 -1.09071,-1.511495 -2.4238,-2.38497 -2.22256,-1.456275 -2.69998,-1.448712 -5.75,0.0911 l -3.3262,1.679235 3.65804,-3.864152 C 669.16996,92.238868 672.13154,87.575 673.73934,84 c 3.44419,-7.65829 5.73438,-10.1205 6.54175,-7.033116 0.54587,2.087412 5.20244,4.470347 6.80283,3.481253 1.6098,-0.994912 0.98458,2.496849 -1.22505,6.841701 C 683.87335,91.194022 675,100.63467 675,98.84294 z m 59.47061,-19.864242 c -7.81237,-3.086 -10.40973,-4.605623 -11.75,-6.874517 -2.38509,-4.037636 -2.17084,-4.483209 1.19865,-2.492804 2.76328,1.632308 3.05981,1.632356 5.54973,8.99e-4 2.01047,-1.317309 2.46998,-2.229201 1.94957,-3.868867 -0.67667,-2.132004 -0.66301,-2.13394 2.20027,-0.312016 1.58464,1.008315 3.78117,2.621831 4.88117,3.585589 1.1,0.963758 3.71076,2.613407 5.80169,3.665888 3.79525,1.910361 3.79821,1.916745 1.75,3.770353 -2.51303,2.274258 -2.61486,4.119383 -0.30169,5.466678 4.01443,2.338189 -1.66047,0.858408 -11.27939,-2.941203 z M 59.649216,76.75 c -1.348911,-1.7875 -3.187393,-5.029746 -4.085515,-7.20499 -0.898121,-2.175245 -3.39529,-6.289195 -5.549264,-9.142112 l -3.916315,-5.187123 3.193128,0.142113 c 2.370545,0.105502 3.434341,-0.402458 4.129478,-1.971816 0.878231,-1.982716 1.189069,-1.805303 5.007811,2.858242 8.976613,10.962465 13.081575,18.656137 9.14878,17.146982 -1.847789,-0.709063 -5.895086,3.338234 -5.186023,5.186023 0.888626,2.315722 -0.125671,1.639795 -2.74208,-1.827319 z m 496.703074,0.448731 c 1.65719,-1.862944 1.70474,-2.378065 0.45147,-4.890501 L 555.40294,69.5 l 6.04853,-0.0746 c 3.32669,-0.04103 7.05198,-0.614516 8.27841,-1.274417 2.10366,-1.131902 2.19784,-1.039599 1.6638,1.630611 -0.67831,3.391537 1.90076,6.323966 3.8487,4.376022 1.57745,-1.577445 2.81084,-1.459894 2.17122,0.206932 -0.91887,2.394553 -5.67629,3.842504 -14.4136,4.386871 l -8.5,0.529583 1.85229,-2.082273 z m -427.25306,-3.75166 c -4.62042,-1.308311 -8.78292,-2.142563 -9.25,-1.853892 C 119.38216,71.881849 119,71.261221 119,70.214005 c 0,-1.047217 -0.91824,-2.735024 -2.04053,-3.750684 -1.95035,-1.765039 -2.17077,-1.769717 -4.98747,-0.105853 -2.34959,1.387937 -2.83356,1.445347 -2.38761,0.283223 0.72098,-1.878859 4.28835,-3.200441 12.58289,-4.661508 9.42039,-1.659384 17.37808,0.151813 20.30702,4.621945 C 143.95258,68.857267 143.92711,69 142.04611,69 c -2.2393,0 -5.57191,4.340227 -4.57329,5.956024 0.35487,0.574187 0.50616,1.004785 0.3362,0.956885 -0.16996,-0.0479 -4.08936,-1.157527 -8.70979,-2.465838 z"
       id="path2991"
       style="fill:#0000fe" />
    <path
       d="M 67.808047,194.2522 C 79.844939,193.97085 81.06752,193.7768 80.607561,192.22057 80.327868,191.27426 78.525264,182.625 76.601776,173 73.144149,155.69828 65.221191,117.43918 62.980119,107.2225 62.131379,103.35324 62.102177,99.37104 62.870681,92.29881 l 1.048203,-9.646194 -3.48664,-3.859293 c -1.917651,-2.122612 -4.528686,-6.20695 -5.802299,-9.076308 -1.273613,-2.869358 -5.648874,-9.500332 -9.722802,-14.735498 -4.073929,-5.235165 -8.754592,-11.535165 -10.401474,-14 -1.646882,-2.464834 -6.484382,-8.648794 -10.75,-13.742133 C 19.490051,22.146045 16,17.519422 16,16.957999 c 0,-2.185751 3.243422,-2.100142 6.30958,0.16654 4.21434,3.115485 27.613913,27.445841 34.98388,36.375461 3.177556,3.85 7.606505,9.804213 9.842109,13.231585 3.612135,5.537713 4.28766,6.112277 6.066815,5.160103 1.101144,-0.589315 2.881773,-0.841437 3.956953,-0.560271 1.219232,0.318836 1.80826,0.07043 1.565269,-0.660103 C 78.510325,70.027091 77.059252,69.275 75.5,69 c -1.559252,-0.275 -3.022128,-1.0625 -3.250835,-1.75 -0.455165,-1.368237 0.967884,-1.695446 2.174526,-0.5 0.416363,0.4125 1.677063,0.75 2.801555,0.75 1.124492,0 2.369903,0.675 2.76758,1.5 0.397678,0.825 1.461978,2.919431 2.365112,4.654292 C 84.2886,77.362966 84.495208,82.104792 82.8,83.8 80.874328,85.725672 72.284799,85.331326 71.127941,83.264134 70.032265,81.306271 69.990126,81.430696 68,92.5 c -0.5933,3.3 -1.294587,7.0125 -1.558416,8.25 -0.32512,1.52499 -0.0092,2.25 0.980347,2.25 2.44274,0 2.886214,2.00451 1.180336,5.33513 -1.550341,3.02694 -1.455027,3.92756 2.186984,20.66487 l 3.807971,17.5 10.201389,0.28498 C 98.138794,147.15765 98.216131,149 84.891592,149 l -10.108408,0 0.69257,2.75 C 76.150041,154.4274 84,193.04003 84,193.67933 84,193.8557 102.93032,194 126.06739,194 c 39.5948,0 42.03695,-0.10286 41.54951,-1.75 -0.28483,-0.9625 -2.09599,-9.625 -4.02481,-19.25 -11.03305,-55.05623 -13.27539,-64.9893 -17.66956,-78.272488 -4.58488,-13.859653 -6.27719,-17.3988 -8.66156,-18.113936 -12.35442,-3.70542 -16.76779,-4.533416 -17.91043,-3.360188 -1.98842,2.041662 -15.47432,37.452912 -16.20273,42.545112 -0.45583,3.18663 -1.15045,4.7015 -2.15581,4.7015 -1.839266,0 -4.300663,-7.08208 -3.649301,-10.5 0.77569,-4.07031 9.891271,-39.256167 10.957901,-42.297158 1.23642,-3.525048 4.33548,-5.062827 13.32518,-6.612061 9.87282,-1.701426 18.77306,0.225685 21.21777,4.594148 0.86795,1.550936 1.13627,1.558312 3.37304,0.09272 1.33655,-0.875737 3.42741,-1.746465 4.64636,-1.934951 3.37625,-0.522069 3.02547,-1.951947 -0.78784,-3.211472 -1.88369,-0.622176 -3.60869,-1.69373 -3.83333,-2.38123 -0.48497,-1.48419 1.36862,-1.689395 2.25822,-0.25 0.33992,0.55 1.66138,1 2.93657,1 2.73626,0 5.01701,2.375601 4.23565,4.411795 -0.32279,0.841169 0.4603,2.100242 1.88813,3.035788 2.81762,1.846175 3.16763,5.243983 0.97664,9.480896 C 156.94352,79.009891 155.19101,80 151.33031,80 c -2.39305,0 -2.47408,0.191729 -1.79622,4.25 1.49145,8.929166 4.34556,17.94151 6.08459,19.21312 1.72611,1.26216 1.73017,1.48117 0.0867,4.6805 -1.68495,3.28013 -1.63761,3.75394 2.08385,20.85638 l 3.80797,17.5 10.20139,0.28498 c 13.34018,0.37267 13.41752,2.21502 0.093,2.21502 l -10.10841,0 0.69257,2.75 C 163.15004,154.4274 171,193.04003 171,193.67933 171,193.8557 191.28032,194 216.06739,194 c 42.45194,0 45.03733,-0.10156 44.54951,-1.75 -0.28483,-0.9625 -2.09164,-9.625 -4.01512,-19.25 -5.18603,-25.95052 -12.52522,-61.18341 -13.16414,-63.19649 -0.49013,-1.54426 -8.5516,-4.80599 -11.86914,-4.80233 -0.58768,6.4e-4 -5.5685,4.08308 -11.0685,9.07209 -13.35459,12.11384 -16.35411,13.22647 -21.57692,8.00365 -3.5526,-3.5526 -3.73259,-6.91172 -0.86123,-16.0733 2.26177,-7.216567 5.24912,-10.938226 10.78317,-13.433736 2.87494,-1.296416 3.97724,-2.560649 4.94985,-5.677023 C 215.27722,82.143243 214.93684,81.364676 211,80.5 c -2.88341,-0.633302 -4.69349,-2.139845 -3.72936,-3.103972 0.42518,-0.425183 1.53693,-0.06445 8.22936,2.670245 1.1,0.449487 3.46194,1.104089 5.24876,1.45467 3.38454,0.664064 6.25124,3.702085 6.25124,6.624838 0,0.935423 -1.15207,3.069927 -2.56016,4.743343 l -2.56016,3.042575 2.5703,0.645104 c 2.89444,0.726457 6.80349,-1.757589 14.70433,-9.344022 C 243.59901,82.964955 246,82.391888 246,85.598855 c 0,2.815133 -3.95506,9.218495 -7.49724,12.138261 l -3.55529,2.930574 3.89228,1.16615 c 2.14076,0.64139 4.54157,1.16616 5.33514,1.16616 0.79357,0 2.28345,0.61466 3.31084,1.36591 1.60311,1.17222 1.70429,1.77488 0.71353,4.25 -0.96979,2.42275 -0.55068,5.68342 2.62003,20.38409 l 3.77449,17.5 6.20311,0.29772 c 8.01573,0.38471 8.09388,2.20228 0.0947,2.20228 l -6.10841,0 0.69257,2.75 C 256.15004,154.4274 264,193.04003 264,193.67933 264,193.8557 278.65532,194 296.56739,194 c 30.54196,0 32.53603,-0.10884 32.06321,-1.75 -0.2773,-0.9625 -2.58867,-12.1 -5.13638,-24.75 -2.5477,-12.65 -4.94506,-23.32141 -5.32746,-23.71425 -0.3824,-0.39284 -2.71385,0.005 -5.18101,0.88455 -7.15141,2.5489 -13.31625,2.30439 -16.46602,-0.65309 -2.92273,-2.7443 -7.39956,-2.91522 -10.964,-0.41858 -2.7673,1.93829 -4.92726,1.7533 -7.06128,-0.60476 -2.19891,-2.42977 -1.25949,-3.90177 1.02936,-1.61292 1.83573,1.83574 3.30981,2.00972 5.46783,0.64538 1.18796,-0.75105 1.23886,-1.19583 0.25,-2.18469 -1.6233,-1.6233 -1.60315,-9.29673 0.028,-10.65044 0.69829,-0.57953 3.28579,-1.23101 5.75,-1.44774 2.72718,-0.23985 0.95863,-0.50111 -4.51962,-0.66765 -15.42024,-0.46878 -20,-1.27665 -20,-3.52798 0,-3.18001 6.94052,-4.30548 23.12058,-3.74922 l 14.12057,0.48546 2.68656,-8.06701 c 3.15732,-9.48057 4.71672,-11.30132 7.51229,-8.77136 1.43316,1.29699 1.87887,2.99619 1.80675,6.88801 -0.151,8.14891 0.54514,9.26222 6.42767,10.27965 9.90304,1.7128 11.35755,8.34525 3.48448,15.88898 -3.53515,3.38727 -4.09816,4.46385 -3.66087,7.00027 l 0.51676,2.99739 8.74261,0.28893 C 342.59219,147.16353 342.70365,149 331.39159,149 l -8.60841,0 0.69257,2.75 C 324.15004,154.4274 332,193.04003 332,193.67933 332,193.8557 344.18032,194 359.06739,194 c 25.30555,0 27.03428,-0.11391 26.55878,-1.75 -0.27973,-0.9625 -2.3591,-10.975 -4.62082,-22.25 -3.43537,-17.12581 -4.51491,-20.92049 -6.55879,-23.05472 -2.61567,-2.73131 -3.15145,-5.84039 -1.32174,-7.6701 0.71994,-0.71994 0.87955,-2.76037 0.44342,-5.66866 l -0.68139,-4.54384 -4.69342,3.51106 c -8.92138,6.67392 -9.19891,6.82078 -10.47632,5.54337 -1.88979,-1.88979 2.92952,-9.81451 8.49565,-13.97002 5.31401,-3.96727 5.43979,-5.13046 1.17117,-10.83037 -4.06096,-5.42262 -2.38073,-10.10697 3.12923,-8.72406 2.39386,0.60082 2.64468,1.04728 2.18382,3.88721 -0.38211,2.35465 0.0666,3.94494 1.6863,5.97621 l 2.20695,2.76778 10.29617,-5.16685 c 11.83468,-5.93892 16.06663,-6.37097 19.33489,-1.97393 1.84441,2.48144 1.85499,2.83387 0.26867,8.95566 -0.90821,3.50492 -2.31371,7.65354 -3.12333,9.21918 -2.2815,4.41193 -9.31061,10.74208 -11.9282,10.74208 -2.67314,0 -2.95519,0.3435 -3.90029,4.75 -0.63301,2.95139 -0.47843,3.25 1.6824,3.25 1.30871,0 2.97571,-0.5625 3.70446,-1.25 1.06,-1 1.41667,-1 1.78333,0 0.26005,0.70922 2.15278,1.25 4.375,1.25 2.15417,0 3.91667,0.45 3.91667,1 0,0.55 -2.51807,1 -5.59571,1 -3.46049,0 -6.68846,0.64551 -8.45947,1.69167 -2.65629,1.5691 -2.99514,1.57277 -4.67713,0.0506 -3.96142,-3.58504 -4.07524,-0.62365 -0.6249,16.25774 1.85482,9.075 3.85088,18.8625 4.4357,21.75 l 1.06331,5.25 32.49649,0 c 30.47965,0 32.46434,-0.10861 31.97861,-1.75 -0.28483,-0.9625 -2.09164,-9.625 -4.01512,-19.25 -1.92349,-9.625 -5.57108,-27.4 -8.10575,-39.5 -6.52724,-31.15964 -6.22766,-28.5 -3.21021,-28.5 1.40113,0 2.69796,0.45133 2.88183,1.00295 0.43049,1.29147 16.46085,4.12839 19.30059,3.41567 2.02941,-0.50936 2.09873,-0.84112 1.14672,-5.48853 -0.71835,-3.50674 -0.66425,-7.360316 0.18589,-13.240145 C 463.4672,79.16487 463.30143,71.877248 460.97139,54.226143 458.83957,38.076588 459.15839,35 462.96376,35 c 4.84699,0 7.1762,7.239182 9.49164,29.5 0.91532,8.8 2.34817,21.175 3.18412,27.5 l 1.5199,11.5 -2.56994,5.5 c -1.41347,3.025 -2.57434,4.91957 -2.57971,4.21016 -0.005,-0.70941 0.9022,-3.07744 2.01682,-5.26228 2.88503,-5.65512 1.87476,-15.403521 -2.1758,-20.995163 -3.15071,-4.34943 -4.73924,-4.840856 -7.12025,-2.202717 -1.93476,2.143694 -3.21632,12.524927 -2.30029,18.63344 0.58546,3.90416 1.15979,4.74225 4.32371,6.30938 2.38373,1.18069 4.44504,3.33425 5.9461,6.21219 1.26364,2.42275 3.14665,4.99975 4.18447,5.72667 3.17186,2.22165 3.94241,10.36832 0.98069,10.36832 -0.55,0 -0.73505,-0.83478 -0.41122,-1.85507 0.32383,-1.02029 0.15768,-2.93279 -0.36922,-4.25 -0.58488,-1.46215 -0.9827,-1.77371 -1.02139,-0.79992 -0.17892,4.50202 -9.11352,6.71705 -12.4084,3.07625 -1.90702,-2.10723 -2.20699,-8.21926 -0.48777,-9.93848 0.88962,-0.88962 0.83016,-1.28035 -0.25,-1.64294 -2.26706,-0.76098 -22.2215,-4.62509 -22.43517,-4.34449 -0.10665,0.14006 1.44889,7.90465 3.45674,17.25465 l 3.65064,17 22.20529,0.26913 C 483.45991,146.93476 492,147.4155 492,148.01913 492,148.63071 483.67639,149 469.89159,149 l -22.10841,0 0.69257,2.75 C 449.15004,154.4274 457,193.04003 457,193.67933 457,193.8557 474.58032,194 496.06739,194 c 36.73765,0 39.0365,-0.10436 38.54951,-1.75 -0.28483,-0.9625 -2.09164,-9.625 -4.01512,-19.25 -1.92349,-9.625 -5.57108,-27.4 -8.10575,-39.5 C 515.9332,102.17044 516.23065,105 519.5,105 c 2.57746,0 2.7252,0.22481 2.21479,3.37013 -0.33332,2.05403 0.90443,10.15736 3.16948,20.75 l 3.71638,17.37987 34.25809,0.2632 34.25809,0.26319 -0.30842,-51.013644 c -0.305,-50.449832 -0.28631,-51.013645 1.69159,-51.013479 1.98471,1.67e-4 1.99777,0.569544 1.70799,74.500453 L 599.91597,194 l 19.6094,0 c 18.20102,0 19.57319,-0.12569 19.10523,-1.75 -0.2773,-0.9625 -2.58751,-12.1 -5.1338,-24.75 -2.5463,-12.65 -5.27986,-24.3169 -6.0746,-25.92646 -0.79473,-1.60955 -1.20427,-3.68481 -0.91009,-4.61168 0.29418,-0.92688 -0.8257,-7.91015 -2.48862,-15.51837 C 622.36057,113.83527 621,107.02303 621,106.30518 621,105.56454 622.13044,105 623.6135,105 c 2.38538,0 2.56946,0.28367 2.10901,3.25 -0.62807,4.04607 4.36157,28.75 5.80684,28.75 1.1177,0 32.3248,-25.62064 38.72065,-31.78918 4.18151,-4.03289 4.73523,-6.613172 1.76077,-8.205054 -3.42,-1.830328 -8.03803,1.601171 -25.47943,18.932884 -9.09224,9.03506 -16.5291,16.23252 -16.52637,15.99436 0.003,-0.23816 8.7882,-9.31853 19.52324,-20.1786 17.65711,-17.86276 19.83965,-20.450821 22.88865,-27.141417 2.06513,-4.531617 4.54111,-8.261377 6.39338,-9.630818 2.65116,-1.960085 2.95573,-2.680706 2.47614,-5.858585 -0.76966,-5.099969 -1.70935,-5.67262 -4.1717,-2.542247 -2.64095,3.357415 -4.02383,2.455138 -1.69187,-1.103879 1.96289,-2.995748 4.30315,-4.151502 5.65962,-2.795039 0.52139,0.521395 2.81589,0.693647 5.09889,0.382783 4.12245,-0.561335 4.1823,-0.630299 8.73479,-10.065208 5.01023,-10.383584 7.10035,-11.794619 10.00252,-6.752687 C 707.27165,50.335206 712.86162,54 716.74394,54 721.67784,54 726,56.543137 726,59.446225 c 0,1.85463 0.68545,2.545414 3.0386,3.062254 1.67124,0.367064 5.01137,2.173233 7.42252,4.013709 8.01074,6.114733 6.65996,5.679364 44.53888,14.355322 9.625,2.204553 18.4,4.152639 19.5,4.329079 3.59628,0.576845 2.17988,3.15191 -2.5,4.54511 -3.43177,1.021638 -5.80561,1.093475 -10,0.302618 -3.025,-0.570366 -14.5,-2.340007 -25.5,-3.932534 -16.64341,-2.409553 -21.55908,-3.522173 -29.28968,-6.629474 -7.97303,-3.204743 -9.5921,-4.259427 -11.42337,-7.441327 -1.69969,-2.953288 -2.60808,-3.616669 -4.46606,-3.261494 -1.28281,0.245225 -2.916,-0.0385 -3.62932,-0.6305 -0.93974,-0.779915 -2.07131,-0.674617 -4.10856,0.382325 C 708.03662,69.343591 706.37282,70 705.88569,70 c -1.77435,0 -0.82569,-2.070216 1.4169,-3.092007 1.88139,-0.857219 2.28402,-1.789096 2.2011,-5.094354 -0.0797,-3.177366 -0.68098,-4.467355 -2.80259,-6.012839 L 704,53.833187 l 0,70.074073 0,70.07407 49.75,0.26888 c 27.3625,0.14789 -118.775,0.27882 -324.75,0.29097 -205.975,0.0121 -368.511379,-0.1179 -361.191953,-0.28898 z M 597,171.5 l 0,-22.5 -34.10841,0 -34.10841,0 0.69257,2.75 C 530.15004,154.4274 538,193.04003 538,193.67933 538,193.8557 551.275,194 567.5,194 l 29.5,0 0,-22.5 z m 104,0 0,-22.5 -34.10841,0 -34.10841,0 0.69257,2.75 C 634.15004,154.4274 642,193.04003 642,193.67933 642,193.8557 655.275,194 671.5,194 l 29.5,0 0,-22.5 z M 387.72917,149.39583 c -0.33229,-0.33229 -1.1948,-0.36781 -1.91667,-0.0789 -0.79773,0.31922 -0.56078,0.55618 0.60417,0.60416 1.05416,0.0434 1.64479,-0.19293 1.3125,-0.52522 z M 701,99.3 c 0,-31.387447 -0.3376,-47.362398 -0.98719,-46.712807 -1.98354,1.983542 -5.73378,14.953917 -5.25902,18.188608 0.5241,3.570972 -0.91179,5.953572 -4.38343,7.273487 -1.5422,0.586346 -2.05902,1.425262 -1.7071,2.77102 0.82134,3.140811 -3.32432,9.879926 -10.98556,17.85794 -6.68058,6.956802 -39.52721,35.337292 -44.47284,38.425892 -1.837,1.14722 -2.09975,1.9631 -1.57369,4.88651 0.34733,1.93014 0.82396,3.84685 1.05919,4.25935 0.23522,0.4125 15.70112,0.75 34.36866,0.75 L 701,147 701,99.3 z m -389,44.70518 c 6.16583,-1.78343 6.33613,-2.06906 5.01834,-8.41686 -1.07032,-5.1557 -1.37537,-5.61098 -3.34798,-4.9969 -5.82684,1.81392 -6.41299,2.32924 -7.48589,6.58129 -0.60053,2.38001 -1.7096,5.17008 -2.46461,6.20017 -1.30374,1.77875 -1.51966,1.78811 -4.29629,0.18634 -2.62218,-1.51266 -1.77459,-1.51576 1.93351,-0.007 1.50111,0.61074 2.664,-1.84194 5.00309,-10.55215 1.99507,-7.42916 4.65018,-21.86387 4.64447,-25.25 -0.003,-1.92339 0.50636,-2.75 1.69536,-2.75 1.32222,0 1.43333,-0.26667 0.5,-1.2 -0.75729,-0.75729 -1.54809,-0.84953 -2.14352,-0.25 -1.07159,1.07894 -6.05032,14.95979 -8.59031,23.95 -0.93234,3.3 -2.73894,7.39354 -4.01467,9.09676 -5.64611,7.53806 0.83949,11.08443 13.5485,7.40842 z m 71.80467,-3.82295 2.30467,-1.77331 -2.02179,-1.82969 c -1.29274,-1.16992 -2.84498,-1.62217 -4.30467,-1.2542 -2.12175,0.53488 -2.1544,0.47937 -0.4626,-0.7864 1.72628,-1.29156 1.65575,-1.58596 -1.36557,-5.70027 -1.75222,-2.3861 -2.94088,-3.43836 -2.64146,-2.33836 0.29942,1.1 1.11111,4.7 1.80375,8 1.62654,7.74941 2.75498,8.70819 6.68767,5.68223 z m -56.86049,-5.83839 c 3.02575,-3.84663 3.54346,-6.95067 1.643,-9.85113 C 327.68887,123.12172 326.44452,122 325.82196,122 c -0.6519,0 -0.43008,0.77554 0.52305,1.82874 2.14699,2.3724 2.08663,3.47066 -0.30997,5.63955 -1.22407,1.10777 -2.91456,1.59673 -4.48345,1.29682 -2.63995,-0.50466 -2.68912,-0.14697 -0.8915,6.48414 0.59636,2.19985 3.22385,0.98505 6.28409,-2.90541 z m -28.57536,1.21602 c 1.52419,-2.32621 1.47657,-2.53631 -1.01985,-4.5 C 295.90869,129.92694 293.66597,129 292.36514,129 290.40953,129 290,129.51393 290,131.96806 c 0,2.20955 0.70279,3.34933 2.75,4.45997 3.6454,1.97765 3.76642,1.95896 5.61882,-0.86817 z m 67.96034,-2.60689 c 5.57173,-4.16678 6.80068,-6.62548 4.84839,-9.69993 C 369.37119,120.40841 358,132.26503 358,136.99314 c 0,1.7138 1.80743,0.83708 8.32916,-4.04017 z m 31.22026,1.30191 c 4.29163,-4.16798 5.84933,-7.14589 7.92212,-15.14506 1.48851,-5.74434 1.49361,-6.51407 0.0576,-8.70566 C 404.66276,109.08187 403.43583,108 402.80263,108 c -0.63319,0 -0.13034,1.08672 1.11745,2.41492 3.85383,4.10222 0.27106,9.42411 -5.38822,8.00372 -2.1024,-0.52767 -3.34782,0.23847 -7.68217,4.7258 l -5.17298,5.35556 3.18105,0.31481 c 4.05221,0.40101 6.87753,4.17876 5.14651,6.88142 -1.10857,1.73084 -1.13216,1.73009 -0.58336,-0.0187 C 394.41402,132.51297 392.26726,130 388.57073,130 c -3.00267,0 -3.96813,-0.79541 -9.10343,-7.5 -3.1595,-4.125 -5.94292,-7.5 -6.18537,-7.5 -0.24246,0 -0.13894,1.4625 0.23005,3.25 0.74306,3.59956 3.96335,9.02598 9.21913,15.53487 3.12365,3.8684 3.8444,4.26219 7.41542,4.05149 2.9453,-0.17379 4.83591,-1.08845 7.40289,-3.58148 z M 301,129.44098 C 301,128.49515 299.93107,128 297.88922,128 l -3.11079,0 2.35579,1.9076 C 299.64819,131.94329 301,131.78013 301,129.44098 z m 11.73028,0.5032 c 2.95525,-1.03021 3.00412,-1.15275 2.01441,-5.05188 -0.82559,-3.25259 -1.40784,-3.9399 -3.1295,-3.69419 -1.65494,0.2362 -2.18272,1.11786 -2.42556,4.05189 -0.21174,2.55845 0.106,3.77233 1,3.82029 0.72071,0.0386 0.41037,0.45702 -0.68963,0.92971 -2.88089,1.23796 -0.35589,1.19433 3.23028,-0.0558 z m 13.66886,-2.25477 c 0.90503,-1.48851 0.60174,-2.24454 -1.7049,-4.25 C 323.15107,122.09773 320.77999,121 319.42518,121 c -2.17992,0 -2.38766,0.31635 -1.8059,2.75 1.19659,5.00564 2.35976,6.38853 5.09712,6.05993 1.42003,-0.17046 3.07726,-1.1247 3.68274,-2.12052 z M 389,124 c 2.2,-2.2 3.75707,-4 3.46016,-4 -0.49114,0 -8.58991,3.92918 -9.2337,4.47979 -0.37033,0.31674 0.88598,3.52021 1.38053,3.52021 0.21615,0 2.19301,-1.8 4.39301,-4 z m -86.98635,2.25 c 0.008,-0.4125 0.26903,-1.70145 0.58116,-2.86434 0.55213,-2.05708 0.20646,-2.12842 -12.76365,-2.63421 C 275.83053,120.20548 267,121.33498 267,123.67175 c 0,0.80578 1.2784,1.37829 3.25,1.45547 1.7875,0.07 8.2,0.4433 14.25,0.82961 16.97008,1.0836 17.4991,1.09245 17.51365,0.29317 z m 164.67379,-1.03566 C 467.8169,124.49616 470,119.78198 470,118.0612 c 0,-0.44473 -1.4625,-0.51196 -3.25,-0.14941 -2.88481,0.58512 -3.28487,1.07658 -3.56037,4.3737 -0.31194,3.73342 0.78627,4.65299 3.49781,2.92885 z m -263.65226,-3.1486 c -1.91224,-3.57306 -1.13187,-5.82161 3.10067,-8.93426 2.27472,-1.67285 5.17068,-4.74928 6.43546,-6.83651 l 2.2996,-3.79497 -2.6515,-2.12813 c -2.3797,-1.909986 -2.52904,-2.396892 -1.45689,-4.750002 1.37398,-3.015553 0.48794,-3.319865 -3.56454,-1.224247 -4.223,2.183795 -5.96127,4.667212 -8.1461,11.638049 -2.73642,8.73071 -2.63939,12.46772 0.40267,15.50978 3.01967,3.01967 5.07836,3.31881 3.58063,0.52029 z m 12.78492,-4.94355 c 3.47605,-3.0922 8.19123,-7.2647 10.47818,-9.2722 l 4.15808,-3.65002 -4.14285,-1.11555 -4.14286,-1.11556 -9.58136,7.26557 c -9.66283,7.32734 -10.6787,8.86148 -8.52839,12.87937 1.52171,2.84334 4.25677,1.68235 11.7592,-4.99161 z m 173.29734,3.31867 c 5.18526,-2.61126 7.80892,-3.39631 9.85133,-2.94772 C 401.79137,118.11309 405,116.11802 405,113.74302 405,111.90708 400.78714,108 398.80752,108 c -1.01412,0 -6.34329,2.25792 -11.84261,5.01761 l -9.99875,5.01761 2.20498,2.98239 c 1.21274,1.64031 2.35658,2.98239 2.54188,2.98239 0.1853,0 3.51729,-1.60161 7.40442,-3.55914 z m -286.88913,-4.7741 c 0.26863,-2.38328 3.96062,-13.1668 8.20441,-23.96337 4.24379,-10.79657 7.57002,-20.613154 7.39163,-21.814631 -0.53327,-3.591595 -3.16361,-4.536884 -6.28906,-2.260156 -2.35781,1.717548 -3.33831,4.38448 -7.69124,20.919947 -2.7439,10.423298 -5.219205,19.88769 -5.500664,21.03197 C 97.741058,112.02931 99.703312,120 100.90849,120 c 0.45727,0 1.05119,-1.94996 1.31982,-4.33324 z m 210.9832,1.321 C 312.70446,113.53303 311,111.8925 311,114.8592 c 0,1.08747 -0.27314,2.68903 -0.60699,3.55901 -0.42454,1.10633 -0.0257,1.58179 1.32681,1.58179 1.58159,0 1.85327,-0.54863 1.49169,-3.01224 z m 156.59917,-2.6701 c 0.42303,-2.97144 -3.04532,-4.68366 -8.11108,-4.00419 -2.20664,0.29597 -7.63101,-0.0981 -12.05415,-0.87581 -6.33391,-1.11361 -8.2037,-1.15243 -8.80297,-0.18278 -0.96505,1.56148 0.31588,2.00675 12.15752,4.2261 5.225,0.97926 9.94684,2.19099 10.49298,2.69273 1.84642,1.6963 5.98508,0.48043 6.3177,-1.85605 z M 368.34156,108.71735 C 367.71001,104.82555 366,104.56386 366,108.35902 c 0,1.98311 1.89828,5.07603 2.65251,4.3218 0.15722,-0.15721 0.0173,-1.94078 -0.31095,-3.96347 z m -148.8423,-7.57527 c -1.19308,-0.22976 -2.76607,0.70508 -4.19859,2.49525 -3.51568,4.39345 -2.74318,4.8812 1.90289,1.20145 3.47804,-2.75466 3.87427,-3.39269 2.2957,-3.6967 z M 69,105.5 c 0,-0.825 -0.648442,-1.5 -1.440983,-1.5 -2.41107,0 -2.450209,-1.13689 -0.396123,-11.506278 3.12614,-15.781301 3.145115,-15.993208 1.550564,-17.316567 -3.138747,-2.604929 -6.356907,1.000247 -4.724802,5.293007 0.578794,1.522345 0.571031,5.596985 -0.02046,10.741316 C 62.482383,104.13381 62.57861,105 65.5,105 c 1.375,0 2.5,0.45 2.5,1 0,0.55 0.225,1 0.5,1 0.275,0 0.5,-0.675 0.5,-1.5 z m 85.66866,-1.66555 c -1.80593,-1.01065 -2.9118,-4.432408 -5.669,-17.540928 C 146.46116,74.224708 144.66858,70 142.08621,70 c -3.95504,0 -4.32967,3.334085 -1.07075,9.529381 1.64805,3.132998 4.37872,10.145568 6.06815,15.583489 2.78046,8.94971 3.30136,9.88713 5.49404,9.88713 1.33229,0 2.45788,0.5625 2.5013,1.25 0.0546,0.86502 0.24845,0.82255 0.62929,-0.13789 0.3027,-0.76334 -0.16512,-1.78829 -1.03958,-2.27766 z M 243,106 c 0,-0.55 0.7875,-1.02962 1.75,-1.06581 0.9625,-0.0362 -0.67598,-0.71822 -3.64107,-1.51561 -2.96509,-0.79739 -7.40979,-2.34277 -9.87712,-3.434187 C 228.76449,98.892977 226.19499,98 225.52182,98 c -0.67317,0 -3.33978,-1.125 -5.9258,-2.5 -5.85926,-3.115402 -6.36171,-3.108371 -7.82789,0.109547 -1.02411,2.247692 -0.91984,2.806352 0.75198,4.02882 1.08208,0.791233 3.05585,1.185943 4.46043,0.891983 1.44492,-0.3024 7.21092,0.92696 13.51946,2.88245 12.72719,3.94513 12.5,3.89811 12.5,2.5872 z m -5.33516,-8.557932 C 242.30712,93.901225 247.123,84 244.20295,84 c -0.43838,0 -2.56102,1.806461 -4.71697,4.014358 -2.15595,2.207897 -5.65116,5.214109 -7.76712,6.680472 l -3.8472,2.666115 2.31417,1.284092 c 3.20048,1.775893 3.67321,1.699853 7.47901,-1.202969 z m 448.19403,-10.15223 c 2.20963,-4.344852 2.83485,-7.836613 1.22505,-6.841701 -1.60039,0.989094 -6.25696,-1.393841 -6.80283,-3.481253 C 679.47372,73.8795 677.18353,76.34171 673.73934,84 c -1.6078,3.575 -4.56938,8.238868 -6.5813,10.364152 l -3.65804,3.864152 3.3262,-1.679235 c 3.05002,-1.539811 3.52744,-1.547374 5.75,-0.0911 1.33309,0.873475 2.4238,1.946711 2.4238,2.38497 0,1.791731 8.87335,-7.648918 10.85887,-11.553102 z m -462.46643,5.829016 c 1.56881,-1.733512 1.57536,-2.008194 0.0836,-3.5 -2.018,-2.017993 -4.5121,-2.064565 -7.03487,-0.131359 -1.89922,1.455376 -1.88715,1.530471 0.55887,3.477764 3.12974,2.491608 4.25216,2.518577 6.39244,0.153595 z m 574.16474,-4.237569 c 4.40496,-1.10918 6.05744,-2.8789 2.69282,-2.88387 -0.9625,-0.0014 -11.425,-2.273824 -23.25,-5.049785 -28.52045,-6.695276 -27.65706,-6.56796 -30.02262,-4.427156 -2.25339,2.039288 -2.56112,4.077314 -0.72738,4.817245 0.97906,0.395059 0.97226,0.521498 -0.0314,0.583334 -2.34572,0.144522 -2.52189,-2.969337 -0.3017,-5.332622 l 2.16995,-2.309806 -3.07509,-1.273746 c -1.6913,-0.70056 -4.74835,-2.605799 -6.79344,-4.233863 -2.04509,-1.628065 -4.54842,-3.406192 -5.56297,-3.951394 -1.57301,-0.845312 -1.74975,-0.692333 -1.20027,1.038914 0.47692,1.502652 -0.0392,2.47805 -1.98611,3.75374 -2.48992,1.631457 -2.78645,1.631409 -5.54973,-8.99e-4 -3.36344,-1.986835 -3.58296,-1.543521 -1.21808,2.459902 1.28122,2.168946 3.93495,3.780436 10.75,6.528007 4.97685,2.006479 10.62382,3.808105 12.54882,4.003614 5.59409,0.56815 42.23166,6.298809 43.42025,6.791571 1.82498,0.756585 3.51835,0.649787 8.13693,-0.513186 z M 472.46554,77.769973 c -0.79718,-5.306615 -1.1856,-10.463247 -0.86315,-11.459182 0.49978,-1.543629 0.41334,-1.589483 -0.58589,-0.310791 -0.92163,1.179401 -1.06279,0.32447 -0.66048,-4 0.30051,-3.230126 0.19786,-4.468239 -0.24874,-3 -0.59954,1.971093 -0.91723,1.095309 -1.50162,-4.139591 -0.91633,-8.208364 -6.20587,-20.326187 -7.70401,-17.649153 -0.63199,1.129313 -0.27346,6.839357 1.06709,16.994744 1.11039,8.4117 2.02166,18.560313 2.02507,22.552474 0.006,7.070236 0.0596,7.225837 2.0676,6 1.82087,-1.111628 2.37513,-0.898575 4.75,1.825873 1.47872,1.696391 2.78196,3.028023 2.89607,2.959182 0.11412,-0.06884 -0.44475,-4.466941 -1.24194,-9.773556 z M 79,82.5 C 79,80.346967 75.348764,77 73,77 70.954482,77 70.382118,79.22625 71.606989,82.418213 72.425722,84.551797 79,84.624527 79,82.5 z M 62.391296,78.577319 c -0.709063,-1.847789 3.338234,-5.895086 5.186023,-5.186023 3.932795,1.509155 -0.172167,-6.184517 -9.14878,-17.146982 -3.818742,-4.663545 -4.12958,-4.840958 -5.007811,-2.858242 -0.695137,1.569358 -1.758933,2.077318 -4.129478,1.971816 l -3.193128,-0.142113 3.916315,5.187123 c 2.153974,2.852917 4.651143,6.966867 5.549264,9.142112 2.198603,5.325001 8.710959,13.940275 6.827595,9.032309 z M 689.98192,73.75 c 1.80811,-3.4375 4.3447,-9.345262 5.63687,-13.12836 1.29216,-3.783099 2.90833,-7.551857 3.5915,-8.375019 0.68316,-0.823162 1.11047,-2.751655 0.94958,-4.28554 -0.21078,-2.00944 0.21509,-2.920267 1.52379,-3.25898 1.61061,-0.416852 1.62155,-0.483237 0.0966,-0.5861 -1.21054,-0.08165 -2.75361,2.121721 -5.21165,7.441834 -4.07387,8.817344 -11.92585,20.98153 -14.07624,21.806712 -2.30174,0.88326 -1.80265,4.575192 0.75761,5.604291 1.2375,0.497414 2.51875,0.932913 2.84722,0.967776 0.32847,0.03486 2.07659,-2.749114 3.8847,-6.186614 z M 155,77.134859 C 155,74.496948 151.20978,70 148.98644,70 c -2.66678,0 -3.05504,1.166513 -1.7757,5.334998 C 148.21179,78.596716 148.70223,79 151.66778,79 154.25302,79 155,78.581894 155,77.134859 z m 537.94981,-1.574387 c 0.65709,-0.791741 1.04969,-2.587502 0.87245,-3.990581 -0.30742,-2.433563 -0.42726,-2.367266 -2.60212,1.439528 C 689.49636,76.026667 689.28356,77 690.3477,77 c 0.77407,0 1.94503,-0.647788 2.60211,-1.439528 z M 137.47282,74.956024 C 136.4742,73.340227 139.80681,69 142.04611,69 c 1.881,0 1.90647,-0.142733 0.42819,-2.398872 -2.92894,-4.470132 -10.88663,-6.281329 -20.30702,-4.621945 -8.29454,1.461067 -11.86191,2.782649 -12.58289,4.661508 -0.44595,1.162124 0.038,1.104714 2.38761,-0.283223 2.8167,-1.663864 3.03712,-1.659186 4.98747,0.105853 1.12229,1.01566 2.04053,2.703467 2.04053,3.750684 0,1.047216 0.38216,1.667844 0.84923,1.379174 0.46708,-0.288671 4.62958,0.545581 9.25,1.853892 4.62043,1.308311 8.53983,2.417939 8.70979,2.465838 0.16996,0.0479 0.0187,-0.382698 -0.3362,-0.956885 z m 591.96266,-6.285189 c 2.46717,-1.804035 0.63117,-5.277648 -3.23879,-6.127634 -1.55096,-0.340649 -6.8422,-3.476338 -11.75831,-6.968198 -4.91611,-3.49186 -9.27588,-6.148166 -9.68838,-5.902902 -1.65275,0.982688 -0.57828,3.309071 2.5,5.412847 1.7875,1.221624 5.5,4.321444 8.25,6.888487 5.37163,5.014258 9.35977,7.889947 11.05887,7.974113 0.58238,0.02885 1.87685,-0.545672 2.87661,-1.276713 z M 725,59.160515 C 725,57.350931 721.30054,55 718.45295,55 c -2.30855,0 -1.67435,1.321069 1.80025,3.75 3.90533,2.730034 4.7468,2.802806 4.7468,0.410515 z M 52.5,51.582739 C 52.5,49.202341 50.015598,46.062243 39,34.519753 25.731692,20.616802 20.543484,16 18.18812,16 15.871038,16 17.090307,18.086599 24.755669,27.239384 29.021287,32.332723 33.852322,38.525 35.491302,41 42.955122,52.271003 46.114428,55.155978 50.5,54.705456 c 1.495998,-0.153681 2,-0.940608 2,-3.122717 z M 468.48218,43.63507 C 466.75251,38.325581 465.36291,36 463.92002,36 c -0.4593,0 0.49544,2.8125 2.12165,6.25 1.62622,3.4375 3.02453,7.6 3.10737,9.25 l 0.15062,3 0.42768,-2.86493 c 0.23523,-1.575712 -0.3251,-5.175712 -1.24516,-8 z M 535.5,74.991941 c -11.41626,-2.799789 -22.41527,-4.923589 -25.62756,-4.948427 -3.66251,-0.02832 -6.04955,-0.551992 -6.83609,-1.499709 -1.76346,-2.124851 -0.63203,-3.2015 4.71057,-4.482467 3.74712,-0.898428 6.86952,-0.824414 14.75308,0.349711 17.04934,2.539215 39.26747,4.583819 42.71256,3.930586 1.80809,-0.342836 4.07578,-1.026237 5.03931,-1.518669 1.65422,-0.845431 1.64177,-1.111129 -0.22351,-4.767382 C 566.27102,54.690604 566.54277,45 570.50663,45 c 2.1261,0 2.88043,2.408247 1.53928,4.914209 -0.87739,1.639435 -0.66242,3.106477 1.0326,7.046655 2.87272,6.677815 4.29552,7.770926 6.33139,4.864302 2.31829,-3.30982 1.96719,-4.79775 -1.4099,-5.975011 -1.65,-0.575193 -3,-1.451784 -3,-1.94798 0,-1.750508 4.11909,-0.873897 6.33327,1.347825 1.25012,1.254381 3.17018,2.115291 4.33915,1.945571 2.58949,-0.375963 6.32758,4.064324 6.32758,7.516211 0,5.118325 -8.51001,10.378207 -11.67322,7.215002 -0.76428,-0.764288 -1.2578,-0.337745 -1.71448,1.481811 -0.95956,3.823164 -5.75368,5.786202 -15.04918,6.162152 -6.94228,0.280776 -10.84329,-0.355718 -28.06312,-4.578806 z m 38.69499,1.983529 c 1.48224,-0.685504 2.93062,-1.860417 3.21861,-2.61092 0.63962,-1.666826 -0.59377,-1.784377 -2.17122,-0.206932 -1.94794,1.947944 -4.52701,-0.984485 -3.8487,-4.376022 0.53404,-2.67021 0.43986,-2.762513 -1.6638,-1.630611 -1.22643,0.659901 -4.95172,1.233389 -8.27841,1.274417 l -6.04853,0.0746 1.41872,2.8441 c 1.27513,2.55626 1.23498,3.011688 -0.39671,4.5 -1.69473,1.545822 -1.73068,1.543013 -0.54077,-0.04225 1.03606,-1.380295 1.02367,-2.222599 -0.0662,-4.5 -1.14687,-2.396443 -2.13503,-2.904779 -6.82942,-3.513238 -3.01869,-0.391266 -12.56511,-1.637993 -21.21427,-2.770506 -12.87791,-1.686222 -16.55237,-1.850968 -20.29038,-0.909728 -2.53712,0.638855 -4.40013,1.647363 -4.19429,2.270506 0.20409,0.617835 3.92574,1.436302 8.29038,1.823223 4.35601,0.386157 16.02003,2.724524 25.92003,5.196371 15.38161,3.840502 19.16373,4.44547 26,4.158815 4.4,-0.184498 9.21274,-0.896317 10.69499,-1.58182 z m 2.49056,-5.149784 C 579.57966,69.106812 579.56898,68.612521 576.53,64.628223 572.38307,59.19131 569.75465,52.326956 570.95846,50.077619 572.39238,47.398311 572.26241,46 570.57946,46 c -3.37633,0 -3.03828,9.136544 0.60424,16.331024 1.29637,2.560525 1.72878,4.790966 1.30386,6.725601 C 571.87677,71.837562 572.42663,74 573.74457,74 c 0.34459,0 1.66803,-0.978441 2.94098,-2.174314 z m 11.15539,-1.426833 c 2.16253,-1.514693 2.19442,-1.702296 0.59063,-3.47447 -0.93244,-1.030329 -2.51899,-2.134742 -3.52568,-2.454253 -2.45931,-0.780555 -5.94484,1.196453 -5.36865,3.045124 0.25452,0.81661 0.67364,2.159746 0.93138,2.984746 0.61488,1.968194 4.49391,1.914975 7.37232,-0.101147 z"
       id="path2989"
       style="fill:#000000" />
  </g>
</svg>
