<?xml version="1.0" encoding="UTF-8" standalone="no"?>
<!-- Created with Inkscape (http://www.inkscape.org/) -->

<svg
   xmlns:dc="http://purl.org/dc/elements/1.1/"
   xmlns:cc="http://creativecommons.org/ns#"
   xmlns:rdf="http://www.w3.org/1999/02/22-rdf-syntax-ns#"
   xmlns:svg="http://www.w3.org/2000/svg"
   xmlns="http://www.w3.org/2000/svg"
   version="1.1"
   width="760"
   height="273"
   id="svg2">
  <metadata
     id="metadata8">
    <rdf:RDF>
      <cc:Work
         rdf:about="">
        <dc:format>image/svg+xml</dc:format>
        <dc:type
           rdf:resource="http://purl.org/dc/dcmitype/StillImage" />
        <dc:title></dc:title>
      </cc:Work>
    </rdf:RDF>
  </metadata>
  <defs
     id="defs6" />
  <g
     id="g2987">
    <path
       d="m 402.74143,207.25 c -1.44801,-1.5125 -3.75768,-5.29487 -5.13259,-8.40527 l -2.49983,-5.65527 2.59014,-0.65009 c 1.42458,-0.35754 2.92673,-0.28767 3.33813,0.15527 0.74102,0.79786 5.61335,12.18656 6.65492,15.55536 0.83428,2.69838 -1.94813,2.13636 -4.95077,-1 z m 327,0 c -1.44801,-1.5125 -3.75768,-5.29487 -5.13259,-8.40527 l -2.49983,-5.65527 2.59014,-0.65009 c 1.42458,-0.35754 2.92673,-0.28767 3.33813,0.15527 0.74102,0.79786 5.61335,12.18656 6.65492,15.55536 0.83428,2.69838 -1.94813,2.13636 -4.95077,-1 z M 393.01196,188.53145 c -0.5162,-1.3577 -2.35356,-5.7452 -4.08302,-9.75 -4.84886,-11.22816 -5.33426,-13.51391 -3.47305,-16.35447 1.70733,-2.60572 4.92446,-3.21423 6.22255,-1.17698 0.43806,0.6875 2.63477,7.325 4.88157,14.75 3.55312,11.742 3.88031,13.58851 2.51254,14.17971 -3.11272,1.34544 -5.13109,0.79651 -6.06059,-1.64826 z m 327,0 c -0.5162,-1.3577 -2.35356,-5.7452 -4.08302,-9.75 -4.84886,-11.22816 -5.33426,-13.51391 -3.47305,-16.35447 1.70733,-2.60572 4.92446,-3.21423 6.22255,-1.17698 0.43806,0.6875 2.63477,7.325 4.88157,14.75 3.55312,11.742 3.88031,13.58851 2.51254,14.17971 -3.11272,1.34544 -5.13109,0.79651 -6.06059,-1.64826 z M 132.50311,153.92092 c -2.19829,-1.6629 -4.34634,-3.9681 -4.77345,-5.12268 -0.42711,-1.15458 -4.89101,-9.74857 -9.91978,-19.09775 -8.8903,-16.5283 -10.24537,-20.51727 -8.50793,-25.04497 0.5006,-1.30454 5.69805,-2.56133 5.69805,-1.37784 0,0.15272 2.6235,6.12017 5.83001,13.261 3.2065,7.14083 6.79594,16.12838 7.97652,19.97233 1.18059,3.84394 3.73209,9.59903 5.67,12.78907 5.19845,8.55731 4.71792,9.68249 -1.97342,4.62084 z m 254.05266,-11.83068 c -0.30924,-0.50036 -0.29408,-1.60863 0.0337,-2.46281 0.32778,-0.85418 -0.14547,-3.78531 -1.05167,-6.51362 -0.95526,-2.87602 -1.5195,-7.19894 -1.34272,-10.28719 L 384.5,117.5 l 1.67578,4.5 c 0.92167,2.475 2.81499,7.55068 4.20737,11.27929 1.39238,3.72861 2.27764,7.44111 1.96724,8.25 -0.61699,1.60785 -4.89184,2.02168 -5.79462,0.56095 z m 327,0 c -0.30924,-0.50036 -0.29408,-1.60863 0.0337,-2.46281 0.32778,-0.85418 -0.14547,-3.78531 -1.05167,-6.51362 -0.95526,-2.87602 -1.5195,-7.19894 -1.34272,-10.28719 L 711.5,117.5 l 1.67578,4.5 c 0.92167,2.475 2.81499,7.55068 4.20737,11.27929 1.39238,3.72861 2.27764,7.44111 1.96724,8.25 -0.61699,1.60785 -4.89184,2.02168 -5.79462,0.56095 z M 60.290519,140.19562 c -4.543418,-1.83013 -6.925908,-4.59448 -17.132812,-19.87883 -3.372908,-5.05077 -6.610069,-9.47833 -7.193692,-9.83903 -0.726053,-0.44873 -0.662999,-1.13554 0.19968,-2.175 1.036161,-1.2485 0.936085,-1.75663 -0.561663,-2.85181 -1.749592,-1.27933 -1.735362,-1.45496 0.355841,-4.39179 C 37.155947,99.376623 38.520738,98 38.990743,98 c 0.470005,0 5.163701,8.01108 10.430435,17.80241 5.434532,10.10327 11.090185,19.27013 13.077351,21.19616 5.379594,5.21411 4.81804,6.0272 -2.20801,3.19705 z m 332.251211,-3.8854 c -1.21918,-4.85757 3.53288,-7.09523 6.97965,-3.28659 2.13894,2.36349 1.32714,3.58583 -3.25405,4.8997 -2.8031,0.80392 -3.15748,0.65048 -3.7256,-1.61311 z m 327,0 c -1.21918,-4.85757 3.53288,-7.09523 6.97965,-3.28659 2.13894,2.36349 1.32714,3.58583 -3.25405,4.8997 -2.8031,0.80392 -3.15748,0.65048 -3.7256,-1.61311 z m -365.43361,-4.42991 c -0.92782,-2.66153 -0.83524,-3.52435 0.54132,-5.04544 4.00333,-4.42363 8.25916,0.1318 4.64524,4.97225 -2.75662,3.6922 -3.91925,3.7086 -5.18656,0.0732 z m 327,0 c -0.92782,-2.66153 -0.83524,-3.52435 0.54132,-5.04544 4.00333,-4.42363 8.25916,0.1318 4.64524,4.97225 -2.75662,3.6922 -3.91925,3.7086 -5.18656,0.0732 z M 276,124.18387 c 0,-0.44887 2.5875,-2.03591 5.75,-3.52675 8.07232,-3.80538 45.36394,-11.01796 48.82153,-9.44257 2.67261,1.21772 3.28803,4.82719 1.12862,6.61934 -0.71492,0.59333 -9.60242,1.78376 -19.75,2.64541 -10.14758,0.86164 -21.83543,2.23129 -25.973,3.04366 C 277.32427,125.22187 276,125.30959 276,124.18387 z m 327,0 c 0,-0.44887 2.5875,-2.03591 5.75,-3.52675 8.07232,-3.80538 45.36394,-11.01796 48.82153,-9.44257 2.67261,1.21772 3.28803,4.82719 1.12862,6.61934 -0.71492,0.59333 -9.60242,1.78376 -19.75,2.64541 -10.14758,0.86164 -21.83543,2.23129 -25.973,3.04366 C 604.32427,125.22187 603,125.30959 603,124.18387 z m -250.69053,-1.81979 c -0.91552,-2.3858 0.95489,-4.7339 4.3189,-5.42191 1.61562,-0.33043 6.90488,-2.76341 11.75391,-5.40661 11.85884,-6.46426 11.02855,-3.80341 -1.67957,5.38255 -9.90337,7.15857 -13.25012,8.42488 -14.39324,5.44597 z m 327,0 c -0.91552,-2.3858 0.95489,-4.7339 4.3189,-5.42191 1.61562,-0.33043 6.90488,-2.76341 11.75391,-5.40661 11.85884,-6.46426 11.02855,-3.80341 -1.67957,5.38255 -9.90337,7.15857 -13.25012,8.42488 -14.39324,5.44597 z M 379.0914,112.4487 c -1.31336,-5.21583 -0.86509,-6.49591 2.21762,-6.3327 1.81205,0.0959 1.87421,0.19781 0.35939,0.58904 -1.58475,0.40928 -1.74057,1.13489 -1.15616,5.384 0.8478,6.1643 0.0891,6.35635 -1.42085,0.35966 z m 327.02731,0.10848 c -1.56165,-6.20191 -1.46795,-6.57191 1.63129,-6.44118 1.84045,0.0776 2.14421,0.27246 0.91841,0.58904 -1.58475,0.40928 -1.74057,1.13489 -1.15616,5.384 0.84159,6.11909 0.0927,6.37065 -1.39354,0.46814 z M 385.17668,110.60672 C 385.6626,108.51277 405.76538,88 407.33156,88 c 1.97026,0 4.98966,3.671238 4.14432,5.039021 -0.39602,0.640775 -2.1276,1.766787 -3.84796,2.502248 C 405.90757,96.27673 400.675,100.27373 396,104.4235 c -8.16108,7.24418 -11.51404,9.15968 -10.82332,6.18322 z M 174,108.06955 c 0,-0.51175 -0.96789,-1.07425 -2.15086,-1.25 -1.71398,-0.25464 -3.03622,-2.5293 -6.5096,-11.19846 -2.3973,-5.9834 -5.72899,-12.439562 -7.40377,-14.347026 -3.25498,-3.707216 -3.51542,-6.538753 -0.65214,-7.09017 3.33322,-0.64192 6.86352,5.121556 10.22246,16.68896 C 170.66629,101.75581 173.11064,107 175.02305,107 c 0.53732,0 0.97695,0.45 0.97695,1 0,0.55 -0.45,1 -1,1 -0.55,0 -1,-0.4187 -1,-0.93045 z m 327,0 c 0,-0.51175 -0.96789,-1.07425 -2.15086,-1.25 -1.71398,-0.25464 -3.03622,-2.5293 -6.5096,-11.19846 -2.3973,-5.9834 -5.72899,-12.439562 -7.40377,-14.347026 -3.25498,-3.707216 -3.51542,-6.538753 -0.65214,-7.09017 3.33322,-0.64192 6.86352,5.121556 10.22246,16.68896 C 497.66629,101.75581 500.11064,107 502.02305,107 c 0.53732,0 0.97695,0.45 0.97695,1 0,0.55 -0.45,1 -1,1 -0.55,0 -1,-0.4187 -1,-0.93045 z M 31.91397,107.29957 c -2.526119,-0.39149 -2.611718,-0.66296 -3.694854,-11.718253 -0.609853,-6.224615 -2.031845,-13.943641 -3.15998,-17.15339 -2.23599,-6.361791 -1.704077,-8.057597 2.218569,-7.073076 2.360624,0.592479 2.456883,1.008452 3.674005,15.876784 C 32.164027,102.04128 33.025335,106 35.035184,106 35.565833,106 36,106.45 36,107 c 0,0.55 -0.3375,0.93258 -0.75,0.85017 -0.4125,-0.0824 -1.913713,-0.33018 -3.33603,-0.5506 z M 252.5,99.917537 c -4.4,-3.86875 -9.14989,-7.649118 -10.55531,-8.400818 -3.55315,-1.900425 -5.30904,-5.960439 -3.69532,-8.544412 C 238.92682,81.887538 239.85243,81 240.30629,81 242.19646,81 245,83.182349 245,84.653713 c 0,2.278761 15.93206,19.405647 19.49715,20.959337 l 3.00285,1.30867 -3.5,0.015 c -2.91998,0.0125 -4.82577,-1.15074 -11.5,-7.019133 z m 327,0 c -4.4,-3.86875 -9.14989,-7.649118 -10.55531,-8.400818 -3.55315,-1.900425 -5.30904,-5.960439 -3.69532,-8.544412 C 565.92682,81.887538 566.85243,81 567.30629,81 569.19646,81 572,83.182349 572,84.653713 c 0,2.278761 15.93206,19.405647 19.49715,20.959337 l 3.00285,1.30867 -3.5,0.015 c -2.91998,0.0125 -4.82577,-1.15074 -11.5,-7.019133 z m -475.98296,5.110023 c -0.33055,-0.53484 -2.42728,-1.5196 -4.659385,-2.18835 C 93.94522,101.36741 92.406632,99.147697 91.497261,92.220431 90.843316,87.238903 91.814411,84 93.96193,84 95.286997,84 97,89.059763 97,92.973662 c 0,3.654398 0.319204,4.062187 5.5,7.026338 5.5101,3.15256 7.19912,6 3.55902,6 -1.06754,0 -2.21144,-0.4376 -2.54198,-0.97244 z M 233.75,96.884913 c -3.56737,-2.661548 -3.46688,-3.575416 0.60676,-5.517998 3.10973,-1.482927 3.55128,-1.473273 6,0.131188 3.29617,2.159735 3.34623,3.811262 0.17842,5.886887 -3.09459,2.027654 -3.43034,2.002908 -6.78518,-0.500077 z m 327,0 c -3.56737,-2.661548 -3.46688,-3.575416 0.60676,-5.517998 3.10973,-1.482927 3.55128,-1.473273 6,0.131188 3.29617,2.159735 3.34623,3.811262 0.17842,5.886887 -3.09459,2.027654 -3.43034,2.002908 -6.78518,-0.500077 z M 427.63504,94.491316 c -0.31841,-0.829776 -0.13523,-2.675721 0.40708,-4.1021 C 429.28635,87.116651 441.02677,66 441.60202,66 c 0.23506,0 1.28995,1.418387 2.34421,3.151972 l 1.91682,3.151972 -5.93923,11.848028 C 434.39924,95.172822 433.78314,96 431.09928,96 c -1.6496,0 -3.13325,-0.646129 -3.46424,-1.508684 z m -20.13872,-9.495378 c -1.48138,-1.636911 -1.61045,-2.450024 -0.70454,-4.438297 0.61001,-1.338828 1.98136,-2.901044 3.04743,-3.47159 2.78754,-1.491845 4.82863,3.354084 3.05361,7.249829 -1.44953,3.181371 -2.94878,3.364749 -5.3965,0.660058 z M 85,84.712265 c -1.89599,-0.954252 -2.576339,-2.181409 -2.815966,-5.079202 l -0.315966,-3.820951 3.315966,0.694384 c 4.759617,0.996694 6.156544,2.666378 5.340247,6.382954 C 89.777493,86.289551 88.784737,86.617125 85,84.712265 z m 63.25,-5.23929 C 146.78562,78.440501 146,76.858897 146,74.943296 146,72.241213 146.28941,72 149.53138,72 c 3.70288,0 4.21724,0.60408 4.68314,5.5 0.2243,2.357129 -0.1431,3.059932 -1.71452,3.279679 -1.1,0.153823 -3.0125,-0.434194 -4.25,-1.306704 z m 327,0 C 473.78562,78.440501 473,76.858897 473,74.943296 473,72.241213 473.28941,72 476.53138,72 c 3.70288,0 4.21724,0.60408 4.68314,5.5 0.2243,2.357129 -0.1431,3.059932 -1.71452,3.279679 -1.1,0.153823 -3.0125,-0.434194 -4.25,-1.306704 z M 26.557081,69.414224 C 23.179584,66.036727 26.171217,60 31.222506,60 c 2.972576,0 2.45221,7.327889 -0.665425,9.370642 -2.211286,1.44889 -2.590559,1.453023 -4,0.04358 z m 418.085299,-2.77969 c -1.7902,-3.32421 -1.78197,-3.42555 0.67125,-8.266746 1.36601,-2.695704 2.99662,-6.806244 3.62356,-9.134534 C 449.56413,46.904964 450.46556,45 450.94036,45 c 0.4748,0 1.17628,2.696971 1.55886,5.99327 0.6251,5.385927 0.38703,6.652646 -2.34927,12.5 C 448.47527,67.071971 446.95877,70 446.77994,70 c -0.17882,0 -1.14072,-1.51446 -2.13756,-3.365466 z M 173.2,64.8 C 172.54,64.14 172,63.061292 172,62.402871 172,59.608069 158.8459,28.555187 156.05364,24.758306 153.13077,20.783813 152.17337,18 153.72935,18 c 0.40114,0 2.76364,1.433969 5.25,3.186599 4.00002,2.819611 5.47688,5.094139 12.82371,19.75 4.56669,9.10987 8.27919,17.329727 8.25,18.266348 C 179.88963,64.447969 176.01361,67.613605 173.2,64.8 z m 51.82248,-6.277365 C 221.16012,54.634318 218,51.144114 218,50.766626 c 0,-0.377489 1.74628,-1.209542 3.88063,-1.849007 3.759,-1.126224 4.05674,-1.029692 9.5,3.080004 5.65323,4.268231 5.68235,4.324929 6.03604,11.752377 0.0595,1.248889 -0.69769,1.763215 -2.64419,1.796151 -2.08109,0.03521 -4.39183,-1.629352 -9.75,-7.023516 z M 500.2,64.8 C 499.54,64.14 499,63.061292 499,62.402871 499,59.608069 485.8459,28.555187 483.05364,24.758306 480.13077,20.783813 479.17337,18 480.72935,18 c 0.40114,0 2.76364,1.433969 5.25,3.186599 4.00002,2.819611 5.47688,5.094139 12.82371,19.75 4.56669,9.10987 8.27919,17.329727 8.25,18.266348 C 506.88963,64.447969 503.01361,67.613605 500.2,64.8 z m 51.82248,-6.277365 C 548.16012,54.634318 545,51.144114 545,50.766626 c 0,-0.377489 1.74628,-1.209542 3.88063,-1.849007 3.759,-1.126224 4.05674,-1.029692 9.5,3.080004 5.65323,4.268231 5.68235,4.324929 6.03604,11.752377 0.0595,1.248889 -0.69769,1.763215 -2.64419,1.796151 -2.08109,0.03521 -4.39183,-1.629352 -9.75,-7.023516 z M 205.5,39.937588 c -5.5,-4.966563 -10.15,-9.459296 -10.33333,-9.983851 -0.4867,-1.392553 2.97968,-1.166203 7.71244,0.50361 3.28552,1.159198 11.51698,7.319993 19.48579,14.584047 0.79357,0.723386 -4.21623,3.979797 -6.06524,3.942457 C 215.85985,48.97497 211,44.904151 205.5,39.937588 z m 327,0 c -5.5,-4.966563 -10.15,-9.459296 -10.33333,-9.983851 -0.4867,-1.392553 2.97968,-1.166203 7.71244,0.50361 3.28552,1.159198 11.51698,7.319993 19.48579,14.584047 0.79357,0.723386 -4.21623,3.979797 -6.06524,3.942457 C 542.85985,48.97497 538,44.904151 532.5,39.937588 z"
       id="path2997"
       style="fill:#fefefe" />
    <path
       d="M 0,136.5 0,0 380,0 760,0 760,136.5 760,273 380,273 0,273 0,136.5 z m 731.25,119.75119 -20.25,-0.2926 0,-30.9793 0,-30.97929 5.31599,0 5.31598,0 2.20792,5.327 c 2.62427,6.33151 8.23009,12.24386 10.70765,11.29313 1.92991,-0.74058 1.82738,-1.21558 -2.48637,-11.51856 -1.70371,-4.06913 -2.97694,-7.5033 -2.82941,-7.63148 0.14753,-0.12818 3.03416,-1.61935 6.41472,-3.31371 5.55521,-2.78431 6.09712,-2.89191 5.63337,-1.11852 -0.28618,1.09435 -0.0135,1.96214 0.61652,1.96214 1.29787,0 5.77,-8.66696 4.91388,-9.52309 -0.72587,-0.72586 -9.81025,1.53527 -9.81025,2.4418 0,0.37471 0.45891,1.1402 1.01979,1.70108 0.69306,0.69306 -0.58759,1.77265 -3.99709,3.36958 -2.75929,1.29238 -5.18738,2.16097 -5.39576,1.93021 -0.20839,-0.23077 -2.24577,-6.71958 -4.52752,-14.41958 -4.12823,-13.93109 -4.14387,-14.04583 -3.17851,-23.31019 0.53357,-5.1206 0.7215,-9.9581 0.41762,-10.75 C 720.96162,139.45759 721.4801,139 722.96993,139 725.76334,139 731,133.80347 731,131.03147 731,129.1506 729.86077,127.76537 723.99182,122.51 721.90402,120.64046 717,119.49196 717,120.87254 c 0,0.59915 1.15139,1.37834 2.55864,1.73153 2.54454,0.63864 2.548,0.6539 0.62728,2.76906 -1.06225,1.16978 -2.13521,2.79159 -2.38436,3.60403 -0.83325,2.7171 -6.79983,-14.7358 -6.14944,-17.98778 C 712.34588,107.52062 710.69639,105 707.73269,105 c -1.11234,0 -6.65092,2.48269 -12.30796,5.51709 l -10.28553,5.5171 -3.7465,-2.54244 c -4.51259,-3.06233 -5.42044,-3.26905 -16.8927,-3.84661 -12.18895,-0.61364 -47.77058,5.94826 -56.70218,10.45692 -9.50816,4.7997 -7.45006,6.85805 4.53488,4.5354 13.85745,-2.68553 44.0403,-4.797 53.1673,-3.71936 8.21035,0.9694 10.34493,1.47001 14.25139,3.3423 2.05903,0.98685 2.11814,1.22628 0.69186,2.8023 -1.38927,1.53514 -1.39866,2.10824 -0.086,5.24979 1.63214,3.90628 4.17598,5.68751 8.1225,5.68751 3.33351,0 7.52029,-4.15018 7.52029,-7.45455 0,-3.65902 1.65073,-3.13378 3,0.95455 0.63531,1.925 1.57021,3.5 2.07755,3.5 1.22928,0 1.19115,-0.26941 -0.74017,-5.22976 -2.08758,-5.36169 -2.01382,-5.28366 -3.68415,-3.89741 -1.08425,0.89985 -2.29202,0.64837 -5.42049,-1.12863 l -4.02539,-2.28646 8.62001,-6.12017 8.62002,-6.12016 1.76158,5.64129 c 1.54093,4.93467 1.76343,10.06241 1.77631,40.93661 l 0.0147,35.29532 -3.75,-0.628 c -5.89212,-0.98673 -16.27707,-4.49415 -21.75,-7.34587 -6.71703,-3.49997 -6.5,-3.42603 -6.5,-2.21449 0,2.3999 18.6726,10.06035 28.25,11.58959 l 3.75,0.59877 0,7.46781 0,7.46782 -34.19967,-0.26313 -34.19968,-0.26313 -3.71638,-17.37987 c -2.26505,-10.59264 -3.5028,-18.69597 -3.16948,-20.75 C 633.2252,167.22481 633.07746,167 630.5,167 c -3.26935,0 -3.5668,-2.82956 2.99603,28.5 2.53467,12.1 6.18226,29.875 8.10575,39.5 1.92348,9.625 3.73029,18.2875 4.01512,19.25 0.48408,1.63578 -1.2181,1.75 -26.08051,1.75 l -26.59839,0 0.281,-73.25 c 0.15455,-40.2875 0.658,-74.01496 1.11877,-74.94991 0.66106,-1.34135 0.12668,-1.99702 -2.53346,-3.1085 -1.85418,-0.77472 -6.4357,-4.832595 -10.18117,-9.017499 -6.55106,-7.319657 -6.78477,-7.757937 -6.14767,-11.528881 0.8548,-5.059564 -0.87763,-11.602096 -4.40758,-16.64521 -1.5399,-2.2 -3.7435,-5.861961 -4.89688,-8.137692 -1.22378,-2.414617 -4.28234,-5.741828 -7.34465,-7.989771 l -5.24758,-3.852079 2.71061,-0.953271 C 557.78023,46.042888 559,45.250785 559,44.806958 c 0,-1.078011 -1.31772,-1.016859 -4.5473,0.211026 -2.46896,0.938695 -3.40347,0.405057 -11.9979,-6.851222 -6.43478,-5.43289 -10.72369,-8.262107 -13.85298,-9.138255 C 524.16617,27.786602 521,28.099359 521,29.77942 c 0,0.463204 4.70273,5.042578 10.45052,10.176386 11.8118,10.550066 11.65811,9.234123 1.79948,15.407833 -3.28705,2.058431 -4.25,2.318745 -4.25,1.148906 0,-2.793075 -1.49991,-1.546772 -2.6814,2.228031 -0.64393,2.057316 -1.01273,3.898626 -0.81956,4.0918 0.32748,0.327482 7.42972,-1.854602 8.472,-2.60293 0.25907,-0.186005 -0.0989,-0.690407 -0.7954,-1.120892 -0.88337,-0.545958 0.0328,-1.663767 3.02896,-3.695627 7.19423,-4.878772 6.78568,-4.982195 15.4942,3.922262 8.07933,8.261103 10.23863,12.285524 10.34509,19.280831 0.0241,1.586189 0.6363,4.542918 1.36034,6.570508 1.29249,3.619435 1.26367,3.708391 -1.58372,4.887817 -5.4854,2.272129 -7.72791,8.95823 -4.07051,12.136355 2.45488,2.13319 7.17666,3.09506 8.75663,1.7838 2.07919,-1.72558 2.85409,0.65242 1.0513,3.22625 -1.73578,2.47818 -1.98207,3.77925 -0.7154,3.77925 0.46339,0 1.67214,-1.54049 2.6861,-3.4233 1.36738,-2.53908 1.56064,-3.76598 0.74822,-4.75 -0.80985,-0.98091 -0.6506,-2.18458 0.61099,-4.618107 l 1.70635,-3.291407 5.47632,4.791407 c 3.01197,2.635277 6.81578,5.844347 8.4529,7.131287 l 2.97659,2.33987 0.29369,49.91013 0.29368,49.91012 -15.04368,0 C 565.68123,209 560,209.37765 560,210 c 0,0.62222 5.66667,1 15,1 l 15,0 0,22.5 0,22.5 -45,0 -45,0 0,-71.96104 0,-71.96105 2.16735,-2.01919 2.16735,-2.01919 -2.56269,-2.37502 c -1.66898,-1.54676 -3.47499,-5.36602 -5.17874,-10.951728 -4.23721,-13.891643 -4.26433,-14.328197 -0.94165,-15.15754 4.29097,-1.07103 9.11791,-5.183167 11.44998,-9.75439 3.1808,-6.23488 2.00662,-10.694482 -7.83188,-29.745965 C 491.83288,25.654028 490.13027,23.077128 486.18423,20.25 483.68928,18.4625 481.26304,17 480.79259,17 c -2.30579,0 -1.769,3.504956 1.16183,7.586065 4.16454,5.799013 16.32644,36.158753 15.61711,38.984959 -0.36477,1.453358 -2.5896,2.986629 -7.1398,4.920491 -3.63545,1.545088 -6.85042,3.436006 -7.14438,4.20204 -0.4388,1.143498 -0.8663,1.092475 -2.38846,-0.285062 -1.38174,-1.250453 -2.93339,-1.533076 -6.09136,-1.109503 -5.28493,0.708858 -7.15407,2.987801 -6.3162,7.70101 0.34221,1.925 0.66457,4.671659 0.71636,6.103686 0.0741,2.048259 0.86192,2.878369 3.69323,3.891324 1.97949,0.708202 4.16158,1.497188 4.84908,1.753303 0.6875,0.256116 1.25,0.0024 1.25,-0.563772 0,-0.56619 -1.6875,-1.596838 -3.75,-2.290328 l -3.75,-1.260891 3.96688,-0.846095 c 2.18178,-0.465352 4.91822,-1.739833 6.08097,-2.832179 2.02588,-1.903216 2.18153,-1.911558 3.73052,-0.199945 0.88904,0.982376 3.77297,6.951859 6.40874,13.265518 l 4.79231,11.479379 0.31107,50.75 0.31107,50.75 -10.05078,0 C 481.01693,209 477,209.39966 477,210 c 0,0.6 4,1 10,1 l 10,0 0,22.5 0,22.5 -56.5,0 -56.5,0 0,-31 0,-31 5.31599,0 5.31598,0 2.20792,5.327 c 2.62427,6.33151 8.23009,12.24386 10.70765,11.29313 1.92991,-0.74058 1.82738,-1.21558 -2.48637,-11.51856 -1.70371,-4.06913 -2.97694,-7.5033 -2.82941,-7.63148 0.14753,-0.12818 3.03416,-1.61935 6.41472,-3.31371 5.55521,-2.78431 6.09712,-2.89191 5.63337,-1.11852 -0.28618,1.09435 -0.0135,1.96214 0.61652,1.96214 1.29787,0 5.77,-8.66696 4.91388,-9.52309 -0.72587,-0.72586 -9.81025,1.53527 -9.81025,2.4418 0,0.37471 0.45891,1.1402 1.01979,1.70108 0.69306,0.69306 -0.58759,1.77265 -3.99709,3.36958 -2.75929,1.29238 -5.18738,2.16097 -5.39576,1.93021 -0.20839,-0.23077 -2.24577,-6.71958 -4.52752,-14.41958 -4.12823,-13.93109 -4.14387,-14.04583 -3.17851,-23.31019 0.53357,-5.1206 0.7215,-9.9581 0.41762,-10.75 C 393.96162,139.45759 394.4801,139 395.96993,139 398.76334,139 404,133.80347 404,131.03147 404,129.1506 402.86077,127.76537 396.99182,122.51 394.90402,120.64046 390,119.49196 390,120.87254 c 0,0.59915 1.15139,1.37834 2.55864,1.73153 2.54454,0.63864 2.548,0.6539 0.62728,2.76906 -1.06225,1.16978 -2.13521,2.79159 -2.38436,3.60403 C 390.45445,130.10904 384,115.34067 384,113.41456 c 0,-0.22801 0.7875,-0.42118 1.75,-0.42927 0.9625,-0.008 5.8,-3.60147 10.75,-7.98529 4.95,-4.38382 9.35985,-7.977201 9.79966,-7.985291 0.43981,-0.0081 2.01481,0.607079 3.5,1.367043 6.39099,3.270238 19.29538,2.644018 23.4935,-1.140094 1.06272,-0.957912 4.4032,-6.664775 7.4233,-12.681918 5.91927,-11.79336 6.13528,-11.866886 8.25457,-2.80974 0.67565,2.8875 1.63357,5.25 2.12871,5.25 0.49514,0 0.89492,-0.3375 0.88839,-0.75 -0.0258,-1.627988 -2.7925,-11.078003 -3.73804,-12.767595 -0.76788,-1.37212 -0.17896,-3.530323 2.50624,-9.184577 3.33876,-7.030491 3.46689,-7.693584 2.62682,-13.594414 -1.16104,-8.155358 -3.08889,-8.221927 -5.89093,-0.203414 -1.15317,3.3 -2.79012,7.293553 -3.63766,8.874562 l -1.54098,2.874562 -2.10004,-2.949232 c -1.15502,-1.622078 -3.92831,-4.216227 -6.16287,-5.764775 -3.24156,-2.246408 -3.83065,-3.095296 -2.91425,-4.199496 1.52092,-1.832589 1.24686,-1.990545 -4.88642,-2.816387 C 422.68557,46.039285 421,46.163512 421,46.906162 421,47.507773 421.42456,48 421.94346,48 c 0.51891,0 1.74093,1.35 2.71561,3 1.83737,3.11041 4.00491,4.172687 2.96045,1.450866 -0.49948,-1.301613 -0.10517,-1.261668 2.46778,0.25 3.82056,2.244661 9.69545,8.039284 10.39944,10.257344 0.30585,0.963649 -2.32295,6.801594 -6.22878,13.832667 -7.42209,13.360876 -7.11035,13.146568 -15.75796,10.832649 -3.37928,-0.904223 -4.87945,-1.789367 -4.62809,-2.73071 0.20454,-0.766049 0.56732,-2.076264 0.80616,-2.91159 0.23884,-0.835326 -0.61805,-3.085326 -1.90421,-5 -2.64979,-3.944693 -6.8955,-5.086103 -9.64917,-2.594068 -1.00022,0.905182 -2.60093,1.301063 -3.89375,0.962984 -1.7419,-0.455518 -2.41696,0.0089 -3.26858,2.248854 C 394.7827,80.701743 395.43553,85 397.08644,85 c 0.59326,0 0.77278,-0.868185 0.41356,-2 -0.717,-2.259075 0.20187,-6 1.47377,-6 0.46144,0 0.61884,0.841877 0.34976,1.870838 -0.30561,1.168653 0.68379,3.206842 2.63607,5.430371 l 3.12532,3.559535 -9.74499,10.152891 c -8.33949,8.688555 -9.91197,9.924545 -10.9027,8.569625 -1.93571,-2.64723 -5.27101,-1.82783 -16.0125,3.93383 l -10.28553,5.5171 -3.7465,-2.54244 c -4.51259,-3.06233 -5.42044,-3.26905 -16.8927,-3.84661 -12.18895,-0.61364 -47.77058,5.94826 -56.70218,10.45692 -9.50816,4.7997 -7.45006,6.85805 4.53488,4.5354 13.85745,-2.68553 44.0403,-4.797 53.1673,-3.71936 8.21035,0.9694 10.34493,1.47001 14.25139,3.3423 2.05903,0.98685 2.11814,1.22628 0.69186,2.8023 -1.38927,1.53514 -1.39866,2.10824 -0.086,5.24979 1.63214,3.90628 4.17598,5.68751 8.1225,5.68751 3.33351,0 7.52029,-4.15018 7.52029,-7.45455 0,-3.65902 1.65073,-3.13378 3,0.95455 0.63531,1.925 1.57021,3.5 2.07755,3.5 1.22928,0 1.19115,-0.26941 -0.74017,-5.22976 -2.08758,-5.36169 -2.01382,-5.28366 -3.68415,-3.89741 -1.08425,0.89985 -2.29202,0.64837 -5.42049,-1.12863 l -4.02539,-2.28646 8.62001,-6.12017 8.62002,-6.12016 1.76158,5.64129 c 1.54093,4.93467 1.76343,10.06241 1.77631,40.93661 l 0.0147,35.29532 -3.75,-0.628 c -5.89212,-0.98673 -16.27707,-4.49415 -21.75,-7.34587 -6.71703,-3.49997 -6.5,-3.42603 -6.5,-2.21449 0,2.3999 18.6726,10.06035 28.25,11.58959 l 3.75,0.59877 0,7.46781 0,7.46782 -34.19967,-0.26313 -34.19968,-0.26313 -3.71638,-17.37987 c -2.26505,-10.59264 -3.5028,-18.69597 -3.16948,-20.75 C 306.2252,167.22481 306.07746,167 303.5,167 c -3.26935,0 -3.5668,-2.82956 2.99603,28.5 2.53467,12.1 6.18226,29.875 8.10575,39.5 1.92348,9.625 3.73029,18.2875 4.01512,19.25 0.48408,1.63578 -1.2181,1.75 -26.08051,1.75 l -26.59839,0 0.281,-73.25 c 0.15455,-40.2875 0.658,-74.01496 1.11877,-74.94991 0.66106,-1.34135 0.12668,-1.99702 -2.53346,-3.1085 -1.85418,-0.77472 -6.4357,-4.832595 -10.18117,-9.017499 -6.55106,-7.319657 -6.78477,-7.757937 -6.14767,-11.528881 0.8548,-5.059564 -0.87763,-11.602096 -4.40758,-16.64521 -1.5399,-2.2 -3.7435,-5.861961 -4.89688,-8.137692 -1.22378,-2.414617 -4.28234,-5.741828 -7.34465,-7.989771 l -5.24758,-3.852079 2.71061,-0.953271 C 230.78023,46.042888 232,45.250785 232,44.806958 c 0,-1.078011 -1.31772,-1.016859 -4.5473,0.211026 -2.46896,0.938695 -3.40347,0.405057 -11.9979,-6.851222 -6.43478,-5.43289 -10.72369,-8.262107 -13.85298,-9.138255 C 197.16617,27.786602 194,28.099359 194,29.77942 c 0,0.463204 4.70273,5.042578 10.45052,10.176386 11.8118,10.550066 11.65811,9.234123 1.79948,15.407833 -3.28705,2.058431 -4.25,2.318745 -4.25,1.148906 0,-2.793075 -1.49991,-1.546772 -2.6814,2.228031 -0.64393,2.057316 -1.01273,3.898626 -0.81956,4.0918 0.32748,0.327482 7.42972,-1.854602 8.472,-2.60293 0.25907,-0.186005 -0.0989,-0.690407 -0.7954,-1.120892 -0.88337,-0.545958 0.0328,-1.663767 3.02896,-3.695627 7.19423,-4.878772 6.78568,-4.982195 15.4942,3.922262 8.07933,8.261103 10.23863,12.285524 10.34509,19.280831 0.0241,1.586189 0.6363,4.542918 1.36034,6.570508 1.29249,3.619435 1.26367,3.708391 -1.58372,4.887817 -5.4854,2.272129 -7.72791,8.95823 -4.07051,12.136355 2.45488,2.13319 7.17666,3.09506 8.75663,1.7838 2.07919,-1.72558 2.85409,0.65242 1.0513,3.22625 -1.73578,2.47818 -1.98207,3.77925 -0.7154,3.77925 0.46339,0 1.67214,-1.54049 2.6861,-3.4233 1.36738,-2.53908 1.56064,-3.76598 0.74822,-4.75 -0.80985,-0.98091 -0.6506,-2.18458 0.61099,-4.618107 l 1.70635,-3.291407 5.47632,4.791407 c 3.01197,2.635277 6.81578,5.844347 8.4529,7.131287 l 2.97659,2.33987 0.29369,49.91013 0.29368,49.91012 -15.04368,0 C 238.68123,209 233,209.37765 233,210 c 0,0.62222 5.66667,1 15,1 l 15,0 0,22.5 0,22.5 -45,0 -45,0 0,-71.96104 0,-71.96105 2.16735,-2.01919 2.16735,-2.01919 -2.56269,-2.37502 c -1.66898,-1.54676 -3.47499,-5.36602 -5.17874,-10.951728 -4.23721,-13.891643 -4.26433,-14.328197 -0.94165,-15.15754 4.29097,-1.07103 9.11791,-5.183167 11.44998,-9.75439 3.1808,-6.23488 2.00662,-10.694482 -7.83188,-29.745965 C 164.83288,25.654028 163.13027,23.077128 159.18423,20.25 156.68928,18.4625 154.26304,17 153.79259,17 c -2.30579,0 -1.769,3.504956 1.16183,7.586065 4.16454,5.799013 16.32644,36.158753 15.61711,38.984959 -0.36477,1.453358 -2.5896,2.986629 -7.1398,4.920491 -3.63545,1.545088 -6.85042,3.436006 -7.14438,4.20204 -0.4388,1.143498 -0.8663,1.092475 -2.38846,-0.285062 -1.38174,-1.250453 -2.93339,-1.533076 -6.09136,-1.109503 -5.28493,0.708858 -7.15407,2.987801 -6.3162,7.70101 0.34221,1.925 0.66457,4.671659 0.71636,6.103686 0.0741,2.048259 0.86192,2.878369 3.69323,3.891324 1.97949,0.708202 4.16158,1.497188 4.84908,1.753303 0.6875,0.256116 1.25,0.0024 1.25,-0.563772 0,-0.56619 -1.6875,-1.596838 -3.75,-2.290328 l -3.75,-1.260891 3.96688,-0.846095 c 2.18178,-0.465352 4.91822,-1.739833 6.08097,-2.832179 2.02588,-1.903216 2.18153,-1.911558 3.73052,-0.199945 0.88904,0.982376 3.77297,6.951859 6.40874,13.265518 l 4.79231,11.479379 0.31107,50.75 0.31107,50.75 -10.05078,0 C 154.01693,209 150,209.39966 150,210 c 0,0.6 4,1 10,1 l 10,0 0,22.5 0,22.5 -31,0 -31,0 0.0203,-71.25 0.0203,-71.25 9.4594,17.5 c 5.20267,9.625 9.46853,18.02417 9.4797,18.66483 0.0288,1.655 9.77331,8.60585 11.00096,7.84712 1.58387,-0.97888 1.27551,-1.9901 -2.50413,-8.21187 -1.93791,-3.19004 -4.47541,-8.89903 -5.63888,-12.68665 -1.91562,-6.23615 -10.35446,-26.12443 -13.91108,-32.785 -0.78461,-1.46936 -4.54787,-6.139839 -8.36279,-10.378833 -6.808,-7.564793 -11.994378,-10.989063 -14.93492,-9.860672 -1.109332,0.425691 -1.343799,0.037 -0.930667,-1.542816 0.811264,-3.102276 -2.246279,-5.855795 -7.352644,-6.621541 -5.775042,-0.866021 -8.383981,1.227238 -8.175054,6.559183 0.07967,2.033336 -0.17193,4.209554 -0.559121,4.836042 C 74.728701,88.247988 76.97787,96 78.274919,96 c 0.527089,0 0.677342,-1.0125 0.333896,-2.25 -2.11558,-7.622823 -2.148358,-7.241319 0.464893,-5.410926 C 80.377926,89.252583 82.944648,90 84.777535,90 c 3.071056,0 3.520174,0.424312 5.724224,5.40806 2.609224,5.89992 3.093955,6.36474 8.984542,8.61557 3.483409,1.33102 4.076629,2.02627 4.692949,5.5 0.38802,2.187 0.73142,25.46387 0.76312,51.72637 L 105,209 91,209 c -8.666667,0 -14,0.38095 -14,1 0,0.61905 5.333333,1 14,1 l 14,0 0,22.5 0,22.5 -36,0 -36,0 0.01531,-71.75 c 0.0084,-39.4625 0.400697,-72.35816 0.871722,-73.10146 0.879323,-1.38762 3.322655,1.26205 7.70111,8.35146 1.019049,1.65 4.685205,6.89745 8.147013,11.661 5.471067,7.52835 6.906197,8.86953 10.973963,10.25555 6.771613,2.30733 7.716536,0.64202 2.650234,-4.67069 C 61.07243,134.3477 55.460291,125.32768 50.463158,116.01866 38.516748,93.763999 39.204139,95.323644 36.482483,84.297418 34.779527,77.398246 33.414917,73.969907 31.869468,72.708041 l -2.19467,-1.791959 2.162601,-1.514745 c 3.01389,-2.111011 3.17919,-11.786908 0.228342,-13.366153 -2.539485,-1.359092 -8.765867,-1.329408 -9.615818,0.04584 -0.367462,0.594565 -1.658299,0.832506 -2.868528,0.528758 -1.832307,-0.45988 -2.423216,0.07026 -3.53223,3.168973 -0.732498,2.046683 -1.541363,4.283742 -1.797478,4.971242 -0.256116,0.6875 -0.0024,1.25 0.563772,1.25 0.56619,0 1.599909,-1.6875 2.297153,-3.75 l 1.267715,-3.75 0.844182,4.126095 c 0.464301,2.269352 1.688607,4.890289 2.720682,5.824304 1.746339,1.580415 1.766707,1.88951 0.293641,4.456181 -1.496636,2.607738 -1.408751,3.278043 1.613372,12.305293 1.757927,5.251027 3.69504,12.639003 4.304694,16.41773 0.658474,4.08131 1.275161,27.26976 1.519092,57.1204 L 30.086619,209 19.54331,209 C 13.181103,209 9,209.39656 9,210 c 0,0.60317 4.166667,1 10.5,1 l 10.5,0 0,22.46617 0,22.46617 -10.75,0.32145 c -5.9125,0.17679 156.425,0.31437 360.75,0.30573 204.325,-0.009 362.3875,-0.14739 351.25,-0.30833 z M 322,255.67933 c 0,-0.6393 -7.84996,-39.25193 -8.52425,-41.92933 l -0.69257,-2.75 34.10841,0 34.10841,0 0,22.5 0,22.5 -29.5,0 c -16.225,0 -29.5,-0.1443 -29.5,-0.32067 z m 327,0 c 0,-0.6393 -7.84996,-39.25193 -8.52425,-41.92933 l -0.69257,-2.75 34.10841,0 34.10841,0 0,22.5 0,22.5 -29.5,0 C 662.275,256 649,255.8557 649,255.67933 z M 384,181.5 c 0,-5.775 0.16927,-10.5 0.37616,-10.5 C 384.77727,171 393,190.48618 393,191.43673 393,191.74653 390.975,192 388.5,192 l -4.5,0 0,-10.5 z m 327,0 c 0,-5.775 0.16927,-10.5 0.37616,-10.5 C 711.77727,171 720,190.48618 720,191.43673 720,191.74653 717.975,192 715.5,192 l -4.5,0 0,-10.5 z M 384.06339,135.95 c 0.0596,-3.24171 0.12177,-3.30393 1.03048,-1.03048 0.64038,1.60213 0.61897,2.76764 -0.0634,3.45 -0.70731,0.70731 -1.0106,-0.0515 -0.96709,-2.41952 z m 327,0 c 0.0596,-3.24171 0.12177,-3.30393 1.03048,-1.03048 0.64038,1.60213 0.61897,2.76764 -0.0634,3.45 -0.70731,0.70731 -1.0106,-0.0515 -0.96709,-2.41952 z"
       id="path2995"
       style="fill:#bfbfbf" />
    <path
       d="m 375.5,193.26768 c -7.51067,-1.08317 -26.5,-9.16766 -26.5,-11.28208 0,-1.36007 0.1634,-1.31239 5.25557,1.53368 12.0808,6.75209 30.88096,10.1829 41.40186,7.55536 7.73282,-1.93122 16.60241,-6.2148 15.38636,-7.43085 C 410.4697,183.0697 410,182.29342 410,181.91871 c 0,-0.90653 9.08438,-3.16766 9.81025,-2.4418 0.85612,0.85613 -3.61601,9.52309 -4.91388,9.52309 -0.63004,0 -0.9027,-0.86779 -0.61652,-1.96214 0.46242,-1.76829 -0.0941,-1.65476 -5.63337,1.14916 -3.38056,1.71122 -8.39648,3.71384 -11.14648,4.45027 -4.738,1.26881 -15.44575,1.57563 -22,0.63039 z m 327,0 c -7.51067,-1.08317 -26.5,-9.16766 -26.5,-11.28208 0,-1.36007 0.1634,-1.31239 5.25557,1.53368 12.0808,6.75209 30.88096,10.1829 41.40186,7.55536 7.73282,-1.93122 16.60241,-6.2148 15.38636,-7.43085 C 737.4697,183.0697 737,182.29342 737,181.91871 c 0,-0.90653 9.08438,-3.16766 9.81025,-2.4418 0.85612,0.85613 -3.61601,9.52309 -4.91388,9.52309 -0.63004,0 -0.9027,-0.86779 -0.61652,-1.96214 0.46242,-1.76829 -0.0941,-1.65476 -5.63337,1.14916 -3.38056,1.71122 -8.39648,3.71384 -11.14648,4.45027 -4.738,1.26881 -15.44575,1.57563 -22,0.63039 z M 448.98693,81.75 C 447.493,75.281778 440.0903,61.302375 436.08958,57.394425 c -1.62973,-1.591934 -4.33595,-3.704035 -6.01383,-4.693559 -2.56231,-1.511115 -2.95552,-1.551137 -2.45623,-0.25 1.04446,2.721821 -1.12308,1.659544 -2.96045,-1.450866 -0.97468,-1.65 -2.1967,-3 -2.71561,-3 C 421.42456,48 421,47.507773 421,46.906162 c 0,-0.74265 1.68557,-0.866877 5.25,-0.386928 6.10908,0.822583 6.40372,0.988159 4.92628,2.768363 -0.86511,1.042395 -0.0725,2.11213 3.6075,4.868571 6.63129,4.967111 14.352,18.663416 16.68226,29.593832 0.41074,1.926615 0.29394,3.25 -0.28684,3.25 -0.53885,0 -1.52537,-2.3625 -2.19227,-5.25 z M 198.52161,61.25 c 0.40457,-0.9625 0.95517,-2.7625 1.22356,-4 C 200.28932,54.741033 202,54.165013 202,56.490756 c 0,1.090957 1.36006,0.621632 5.07132,-1.75 7.56571,-4.834771 12.84336,-7.441986 18.58259,-9.179997 C 231.65648,43.743 232,43.706777 232,44.891592 c 0,0.490376 -1.2375,1.199266 -2.75,1.575312 -9.90197,2.461879 -25.5841,11.09054 -23.02781,12.670415 1.47862,0.913841 1.24644,1.100433 -3.29319,2.6465 -4.72267,1.608407 -5.2795,1.540965 -4.40739,-0.533819 z m 327,0 c 0.40457,-0.9625 0.95517,-2.7625 1.22356,-4 C 527.28932,54.741033 529,54.165013 529,56.490756 c 0,1.090957 1.36006,0.621632 5.07132,-1.75 7.56571,-4.834771 12.84336,-7.441986 18.58259,-9.179997 C 558.65648,43.743 559,43.706777 559,44.891592 c 0,0.490376 -1.2375,1.199266 -2.75,1.575312 -9.90197,2.461879 -25.5841,11.09054 -23.02781,12.670415 1.47862,0.913841 1.24644,1.100433 -3.29319,2.6465 -4.72267,1.608407 -5.2795,1.540965 -4.40739,-0.533819 z"
       id="path2993"
       style="fill:#fe0000" />
    <path
       d="m 384,151.214 c 0,-7.30861 0.39407,-11.33951 1.15451,-11.80949 0.73036,-0.45139 0.88242,-0.27329 0.41391,0.48479 -1.06087,1.71652 1.27136,4.1107 4.00433,4.1107 1.28033,0 2.80355,-0.7875 3.38494,-1.75 0.79099,-1.30951 0.91847,-0.36559 0.50643,3.75 -1.36629,13.64722 -1.41399,13.82587 -3.54245,13.26926 -1.13477,-0.29674 -2.83139,0.24405 -3.95455,1.2605 C 384.02219,162.28989 384,162.18481 384,151.214 z m 327,0 c 0,-7.30861 0.39407,-11.33951 1.15451,-11.80949 0.73036,-0.45139 0.88242,-0.27329 0.41391,0.48479 -1.06087,1.71652 1.27136,4.1107 4.00433,4.1107 1.28033,0 2.80355,-0.7875 3.38494,-1.75 0.79099,-1.30951 0.91847,-0.36559 0.50643,3.75 -1.36629,13.64722 -1.41399,13.82587 -3.54245,13.26926 -1.13477,-0.29674 -2.83139,0.24405 -3.95455,1.2605 C 711.02219,162.28989 711,162.18481 711,151.214 z M 346,121 c -1.375,-0.44035 -4.3757,-0.8455 -6.66821,-0.90032 -5.8086,-0.13891 -7.6942,-0.95808 -6.23964,-2.71072 0.62876,-0.75761 0.92765,-2.50505 0.6642,-3.88321 C 333.28002,111.01398 333.31863,111 340.67851,111 c 5.49266,0 8.43941,0.52967 11.42746,2.05406 l 4.02629,2.05406 -2.56613,2.01852 C 352.15476,118.23683 351,119.7875 351,120.57258 c 0,1.55658 -1.16361,1.65605 -5,0.42742 z m 327,0 c -1.375,-0.44035 -4.3757,-0.8455 -6.66821,-0.90032 -5.8086,-0.13891 -7.6942,-0.95808 -6.23964,-2.71072 0.62876,-0.75761 0.92765,-2.50505 0.6642,-3.88321 C 660.28002,111.01398 660.31863,111 667.67851,111 c 5.49266,0 8.43941,0.52967 11.42746,2.05406 l 4.02629,2.05406 -2.56613,2.01852 C 679.15476,118.23683 678,119.7875 678,120.57258 c 0,1.55658 -1.16361,1.65605 -5,0.42742 z M 32.61912,95.292403 C 30.760886,73.499074 30.728192,72.47679 31.925331,73.598854 c 0.644807,0.60437 2.232628,5.32937 3.52849,10.5 1.295862,5.17063 2.606951,10.076146 2.91353,10.901146 0.310999,0.836892 -0.689495,2.955479 -2.263192,4.792403 l -2.820611,3.292407 -0.664428,-7.792407 z m 70.64839,4.342 c -4.839223,-2.898829 -5.2338,-3.421185 -5.249997,-6.950144 -0.0096,-2.098658 -0.483346,-4.686158 -1.052697,-5.75 -0.773738,-1.445743 -0.710598,-1.935462 0.25,-1.939023 1.097582,-0.0041 17.142254,16.084664 16.510294,16.555644 -0.12381,0.0923 -1.35011,0.40405 -2.72511,0.69285 -1.70472,0.35804 -4.16451,-0.47201 -7.73249,-2.609327 z M 415.5,99.369427 c -1.1,-0.264885 -3.2116,-0.950232 -4.69244,-1.522995 l -2.69244,-1.041388 2.68308,-2.307883 c 2.59263,-2.23009 2.62294,-2.374322 0.89926,-4.278967 -2.63518,-2.911839 -0.44292,-3.27928 8.09434,-1.356681 5.16903,1.164071 7.08855,2.007912 6.72464,2.956228 -0.8193,2.135078 1.36609,5.176883 3.76874,5.245645 2.1901,0.06268 2.19152,0.07281 0.127,0.90778 -2.74034,1.108302 -12.36757,2.011012 -14.91218,1.398261 z M 23.601269,81.661226 c -2.230748,-7.622416 -1.52191,-9.717764 0.795271,-2.350845 0.979081,3.112755 1.585148,6.228819 1.346816,6.924587 -0.238333,0.695768 -1.202272,-1.362416 -2.142087,-4.573742 z m 222.281801,3.372192 c -0.22093,-1.422562 -1.57095,-3.115626 -3.18953,-4 -2.56739,-1.4028 -2.91654,-1.385676 -4.09887,0.201038 -1.65131,2.216091 -2.59177,1.259165 -2.60549,-2.651123 -0.006,-1.695833 -0.66725,-5.246807 -1.46954,-7.891053 -1.38218,-4.555466 -1.36279,-4.777273 0.36964,-4.227422 2.48347,0.788224 4.45433,-1.787625 3.57076,-4.66687 -0.38786,-1.263894 1.1424,0.447435 3.40058,3.802953 4.77152,7.090181 6.91579,14.62062 5.40802,18.99234 -0.99643,2.889107 -1.00482,2.891774 -1.38557,0.440137 z m 327,0 c -0.22093,-1.422562 -1.57095,-3.115626 -3.18953,-4 -2.56739,-1.4028 -2.91654,-1.385676 -4.09887,0.201038 -1.65131,2.216091 -2.59177,1.259165 -2.60549,-2.651123 -0.006,-1.695833 -0.66725,-5.246807 -1.46954,-7.891053 -1.38218,-4.555466 -1.36279,-4.777273 0.36964,-4.227422 2.48347,0.788224 4.45433,-1.787625 3.57076,-4.66687 -0.38786,-1.263894 1.1424,0.447435 3.40058,3.802953 4.77152,7.090181 6.91579,14.62062 5.40802,18.99234 -0.99643,2.889107 -1.00482,2.891774 -1.38557,0.440137 z M 163.34775,77.407982 c -0.89886,-1.371832 -2.72891,-3.067771 -4.06678,-3.768753 -2.36099,-1.237047 -2.2245,-1.366385 4.64327,-4.399809 C 167.81591,67.520507 171,65.568701 171,64.902074 c 0,-0.787926 0.63992,-0.632932 1.82874,0.442938 2.65925,2.406592 4.90147,2.034542 6.59929,-1.095012 1.42732,-2.630972 1.49363,-2.650889 1.53193,-0.460162 0.10199,5.832841 -5.64211,12.610862 -12.71894,15.008321 -2.97093,1.006478 -3.40343,0.883605 -4.89327,-1.390177 z m 327,0 c -0.89886,-1.371832 -2.72891,-3.067771 -4.06678,-3.768753 -2.36099,-1.237047 -2.2245,-1.366385 4.64327,-4.399809 C 494.81591,67.520507 498,65.568701 498,64.902074 c 0,-0.787926 0.63992,-0.632932 1.82874,0.442938 2.65925,2.406592 4.90147,2.034542 6.59929,-1.095012 1.42732,-2.630972 1.49363,-2.650889 1.53193,-0.460162 0.10199,5.832841 -5.64211,12.610862 -12.71894,15.008321 -2.97093,1.006478 -3.40343,0.883605 -4.89327,-1.390177 z"
       id="path2991"
       style="fill:#0000fe" />
    <path
       d="M 19.25,256.25379 30,255.93234 30,233.46617 30,211 19.5,211 C 13.166667,211 9,210.60317 9,210 c 0,-0.60344 4.181103,-1 10.54331,-1 l 10.543309,0 -0.410629,-50.25 C 29.432059,128.89936 28.815372,105.71091 28.156898,101.6296 27.547244,97.850876 25.610131,90.4629 23.852204,85.211873 20.830081,76.184623 20.742196,75.514318 22.238832,72.90658 23.711898,70.339909 23.69153,70.030814 21.945191,68.450399 20.913116,67.516384 19.68881,64.895447 19.224509,62.626095 L 18.380327,58.5 17.112612,62.25 C 16.415368,64.3125 15.381649,66 14.815459,66 c -0.56619,0 -0.819888,-0.5625 -0.563772,-1.25 0.256115,-0.6875 1.06498,-2.924559 1.797478,-4.971242 1.109014,-3.098713 1.699923,-3.628853 3.53223,-3.168973 1.210229,0.303748 2.501066,0.06581 2.868528,-0.528758 0.849951,-1.375251 7.076333,-1.404935 9.615818,-0.04584 2.950848,1.579245 2.785548,11.255142 -0.228342,13.366153 l -2.162601,1.514745 2.19467,1.791959 c 1.545449,1.261866 2.910059,4.690205 4.613015,11.589377 2.721656,11.026226 2.034265,9.466581 13.980675,31.721239 4.997133,9.30902 10.609272,18.32904 12.896197,20.7272 5.061605,5.30778 4.121791,6.97816 -2.631501,4.67708 -3.835645,-1.30694 -5.530217,-2.76885 -9.569382,-8.25556 -7.27119,-9.87701 -16.201845,-23.31222 -15.004003,-22.57191 0.574855,0.35528 2.751635,3.28616 4.837288,6.51307 2.085654,3.22691 6.371217,9.4492 9.523475,13.8273 4.873558,6.76878 6.411824,8.19204 10.277655,9.50926 2.500453,0.85199 4.7794,1.31595 5.064327,1.03102 0.284928,-0.28493 -1.299166,-2.42112 -3.520208,-4.74709 C 60.011006,134.29315 54.381911,125.18584 49.061127,115.25 43.980436,105.7625 39.443861,98 38.979848,98 c -0.464013,0 -1.823901,1.376623 -3.021975,3.05916 -2.073825,2.91242 -2.092555,3.12187 -0.390474,4.36646 1.701105,1.24388 1.682195,1.44161 -0.389779,4.0757 L 33,112.26972 33,184.13486 33,256 l 36,0 36,0 0,-22.5 0,-22.5 -14,0 c -8.666667,0 -14,-0.38095 -14,-1 0,-0.61905 5.333333,-1 14,-1 l 14,0 -0.0576,-47.75 c -0.0317,-26.2625 -0.3751,-49.53937 -0.76312,-51.72637 -0.61632,-3.47373 -1.20954,-4.16898 -4.692949,-5.5 -2.193099,-0.838 -4.586936,-1.9107 -5.319637,-2.3838 -1.567596,-1.01216 -5.374467,-9.494581 -4.729488,-10.538178 0.243951,-0.394721 -1.442116,-0.827737 -3.746815,-0.962258 -2.304698,-0.13452 -5.264362,-0.946586 -6.57703,-1.804591 C 76.4907,86.620564 76.525752,86.244341 78.608815,93.75 78.952261,94.9875 78.802008,96 78.274919,96 c -1.297049,0 -3.546218,-7.752012 -2.663545,-9.180207 0.387191,-0.626488 0.638795,-2.802706 0.559121,-4.836042 -0.208927,-5.331945 2.400012,-7.425204 8.175054,-6.559183 5.106365,0.765746 8.163908,3.519265 7.352644,6.621541 -0.413132,1.579818 -0.178665,1.968507 0.930667,1.542816 2.940542,-1.128391 8.12692,2.295879 14.93492,9.860672 3.81492,4.238994 7.57818,8.909473 8.36279,10.378833 3.55662,6.66057 11.99546,26.54885 13.91108,32.785 1.16347,3.78762 3.70097,9.49661 5.63888,12.68665 3.77964,6.22177 4.088,7.23299 2.50413,8.21187 -1.22765,0.75873 -10.97212,-6.19212 -11.00096,-7.84712 C 126.96853,149.02417 122.70267,140.625 117.5,131 l -9.4594,-17.5 -0.0203,71.25 L 108,256 l 31,0 31,0 0,-22.5 0,-22.5 -10,0 c -6,0 -10,-0.4 -10,-1 0,-0.60034 4.01693,-1 10.05078,-1 l 10.05078,0 -0.31107,-50.75 -0.31107,-50.75 -4.79231,-11.479379 c -2.63577,-6.313659 -5.5197,-12.283142 -6.40874,-13.265518 -1.54899,-1.711613 -1.70464,-1.703271 -3.73052,0.199945 -1.16275,1.092346 -3.89919,2.366827 -6.08097,2.832179 l -3.96688,0.846095 3.75,1.260891 c 2.0625,0.69349 3.75,1.724138 3.75,2.290328 0,0.56619 -0.5625,0.819888 -1.25,0.563772 -0.6875,-0.256115 -2.86959,-1.045101 -4.84908,-1.753303 -2.83131,-1.012955 -3.61916,-1.843065 -3.69323,-3.891324 C 142.1559,83.671659 141.83354,80.925 141.49133,79 c -0.83787,-4.713209 1.03127,-6.992152 6.3162,-7.70101 3.15797,-0.423573 4.70962,-0.14095 6.09136,1.109503 1.52216,1.377537 1.94966,1.42856 2.38846,0.285062 0.29396,-0.766034 3.50893,-2.656952 7.14438,-4.20204 4.5502,-1.933862 6.77503,-3.467133 7.1398,-4.920491 C 171.28086,60.744818 159.11896,30.385078 154.95442,24.586065 152.02359,20.504956 151.4868,17 153.79259,17 c 0.47045,0 2.89669,1.4625 5.39164,3.25 3.94604,2.827128 5.64865,5.404028 13.08549,19.804887 9.8385,19.051483 11.01268,23.511085 7.83188,29.745965 -2.33207,4.571223 -7.15901,8.68336 -11.44998,9.75439 -3.32268,0.829343 -3.29556,1.265897 0.94165,15.15754 1.70375,5.585708 3.50976,9.404968 5.17874,10.951728 l 2.56269,2.37502 -2.16735,2.01919 -2.16735,2.01919 0,71.96105 0,71.96104 45,0 45,0 0,-22.5 0,-22.5 -15,0 c -9.33333,0 -15,-0.37778 -15,-1 0,-0.62235 5.68123,-1 15.04369,-1 l 15.04368,0 -0.29368,-49.91012 -0.29369,-49.91013 -2.97659,-2.33987 c -1.63712,-1.28694 -5.44093,-4.49601 -8.4529,-7.131287 l -5.47632,-4.791407 -1.70635,3.291407 c -1.26159,2.433527 -1.42084,3.637197 -0.61099,4.618107 0.81242,0.98402 0.61916,2.21092 -0.74822,4.75 -1.01396,1.88281 -2.22271,3.4233 -2.6861,3.4233 -1.26667,0 -1.02038,-1.30107 0.7154,-3.77925 1.80279,-2.57383 1.02789,-4.95183 -1.0513,-3.22625 -1.57997,1.31126 -6.30175,0.34939 -8.75663,-1.7838 -3.6574,-3.178125 -1.41489,-9.864226 4.07051,-12.136355 2.84739,-1.179426 2.87621,-1.268382 1.58372,-4.887817 -0.72404,-2.02759 -1.3362,-4.984319 -1.36034,-6.570508 -0.10567,-6.942988 -2.29008,-11.042654 -10.45191,-19.615909 L 216.5,50.500223 l 8,7.524672 c 5.61671,5.282986 8.74478,7.517288 10.5,7.499888 2.33717,-0.02317 2.4807,-0.317868 2.20368,-4.524783 -0.24159,-3.668691 -0.87873,-4.961838 -3.44896,-7 -6.49265,-5.148594 -8.04331,-6.996043 -2.43808,-2.904721 3.55165,2.592393 6.62167,5.8342 7.88403,8.325177 1.13707,2.243749 3.32732,5.879544 4.86722,8.079544 3.52995,5.043114 5.26238,11.585646 4.40758,16.64521 -0.6371,3.770944 -0.40339,4.209224 6.14767,11.528881 3.74547,4.184904 8.32699,8.242779 10.18117,9.017499 2.66014,1.11148 3.19452,1.76715 2.53346,3.1085 -0.46077,0.93495 -0.96422,34.66241 -1.11877,74.94991 l -0.281,73.25 26.59839,0 c 24.86241,0 26.56459,-0.11422 26.08051,-1.75 -0.28483,-0.9625 -2.09164,-9.625 -4.01512,-19.25 -1.92349,-9.625 -5.57108,-27.4 -8.10575,-39.5 C 299.9332,164.17044 300.23065,167 303.5,167 c 2.57746,0 2.7252,0.22481 2.21479,3.37013 -0.33332,2.05403 0.90443,10.15736 3.16948,20.75 l 3.71638,17.37987 34.19968,0.26313 34.19967,0.26313 0,-7.51313 C 381,195.50146 381.29977,194 382.5,194 c 1.30108,0 1.5,4.11111 1.5,31 l 0,31 56.5,0 56.5,0 0,-22.5 0,-22.5 -10,0 c -6,0 -10,-0.4 -10,-1 0,-0.60034 4.01693,-1 10.05078,-1 l 10.05078,0 -0.31107,-50.75 -0.31107,-50.75 -4.79231,-11.479379 c -2.63577,-6.313659 -5.5197,-12.283142 -6.40874,-13.265518 -1.54899,-1.711613 -1.70464,-1.703271 -3.73052,0.199945 -1.16275,1.092346 -3.89919,2.366827 -6.08097,2.832179 l -3.96688,0.846095 3.75,1.260891 c 2.0625,0.69349 3.75,1.724138 3.75,2.290328 0,0.56619 -0.5625,0.819888 -1.25,0.563772 -0.6875,-0.256115 -2.86959,-1.045101 -4.84908,-1.753303 -2.83131,-1.012955 -3.61916,-1.843065 -3.69323,-3.891324 C 469.1559,83.671659 468.83354,80.925 468.49133,79 c -0.83787,-4.713209 1.03127,-6.992152 6.3162,-7.70101 3.15797,-0.423573 4.70962,-0.14095 6.09136,1.109503 1.52216,1.377537 1.94966,1.42856 2.38846,0.285062 0.29396,-0.766034 3.50893,-2.656952 7.14438,-4.20204 4.5502,-1.933862 6.77503,-3.467133 7.1398,-4.920491 C 498.28086,60.744818 486.11896,30.385078 481.95442,24.586065 479.02359,20.504956 478.4868,17 480.79259,17 c 0.47045,0 2.89669,1.4625 5.39164,3.25 3.94604,2.827128 5.64865,5.404028 13.08549,19.804887 9.8385,19.051483 11.01268,23.511085 7.83188,29.745965 -2.33207,4.571223 -7.15901,8.68336 -11.44998,9.75439 -3.32268,0.829343 -3.29556,1.265897 0.94165,15.15754 1.70375,5.585708 3.50976,9.404968 5.17874,10.951728 l 2.56269,2.37502 -2.16735,2.01919 -2.16735,2.01919 0,71.96105 0,71.96104 45,0 45,0 0,-22.5 0,-22.5 -15,0 c -9.33333,0 -15,-0.37778 -15,-1 0,-0.62235 5.68123,-1 15.04369,-1 l 15.04368,0 -0.29368,-49.91012 -0.29369,-49.91013 -2.97659,-2.33987 c -1.63712,-1.28694 -5.44093,-4.49601 -8.4529,-7.131287 l -5.47632,-4.791407 -1.70635,3.291407 c -1.26159,2.433527 -1.42084,3.637197 -0.61099,4.618107 0.81242,0.98402 0.61916,2.21092 -0.74822,4.75 -1.01396,1.88281 -2.22271,3.4233 -2.6861,3.4233 -1.26667,0 -1.02038,-1.30107 0.7154,-3.77925 1.80279,-2.57383 1.02789,-4.95183 -1.0513,-3.22625 -1.57997,1.31126 -6.30175,0.34939 -8.75663,-1.7838 -3.6574,-3.178125 -1.41489,-9.864226 4.07051,-12.136355 2.84739,-1.179426 2.87621,-1.268382 1.58372,-4.887817 -0.72404,-2.02759 -1.3362,-4.984319 -1.36034,-6.570508 -0.10567,-6.942988 -2.29008,-11.042654 -10.45191,-19.615909 L 543.5,50.500223 l 8,7.524672 c 5.61671,5.282986 8.74478,7.517288 10.5,7.499888 2.33717,-0.02317 2.4807,-0.317868 2.20368,-4.524783 -0.24159,-3.668691 -0.87873,-4.961838 -3.44896,-7 -6.49265,-5.148594 -8.04331,-6.996043 -2.43808,-2.904721 3.55165,2.592393 6.62167,5.8342 7.88403,8.325177 1.13707,2.243749 3.32732,5.879544 4.86722,8.079544 3.52995,5.043114 5.26238,11.585646 4.40758,16.64521 -0.6371,3.770944 -0.40339,4.209224 6.14767,11.528881 3.74547,4.184904 8.32699,8.242779 10.18117,9.017499 2.66014,1.11148 3.19452,1.76715 2.53346,3.1085 -0.46077,0.93495 -0.96422,34.66241 -1.11877,74.94991 l -0.281,73.25 26.59839,0 c 24.86241,0 26.56459,-0.11422 26.08051,-1.75 -0.28483,-0.9625 -2.09164,-9.625 -4.01512,-19.25 -1.92349,-9.625 -5.57108,-27.4 -8.10575,-39.5 C 626.9332,164.17044 627.23065,167 630.5,167 c 2.57746,0 2.7252,0.22481 2.21479,3.37013 -0.33332,2.05403 0.90443,10.15736 3.16948,20.75 l 3.71638,17.37987 34.19968,0.26313 34.19967,0.26313 0,-7.51313 C 708,195.50146 708.29977,194 709.5,194 c 1.30105,0 1.5,4.10881 1.5,30.97929 l 0,30.9793 20.25,0.2926 c 11.1375,0.16094 -146.925,0.29968 -351.25,0.30833 -204.325,0.009 -366.6625,-0.12894 -360.75,-0.30573 z M 381,233.5 l 0,-22.5 -34.10841,0 -34.10841,0 0.69257,2.75 C 314.15004,216.4274 322,255.04003 322,255.67933 322,255.8557 335.275,256 351.5,256 l 29.5,0 0,-22.5 z m 327,0 0,-22.5 -34.10841,0 -34.10841,0 0.69257,2.75 C 641.15004,216.4274 649,255.04003 649,255.67933 649,255.8557 662.275,256 678.5,256 l 29.5,0 0,-22.5 z M 138,156.05008 c 0,-0.52246 -1.58556,-3.55996 -3.52347,-6.75 -1.93791,-3.19004 -4.48941,-8.94513 -5.67,-12.78907 -1.18058,-3.84395 -4.77002,-12.8315 -7.97652,-19.97233 C 117.6235,109.39785 115,103.4304 115,103.27768 c 0,-1.18349 -5.19745,0.0733 -5.69805,1.37784 -1.73744,4.5277 -0.38237,8.51667 8.50793,25.04497 5.02877,9.34918 9.49267,17.94317 9.91978,19.09775 0.42711,1.15458 2.57516,3.45978 4.77345,5.12268 4.21733,3.19019 5.49689,3.68581 5.49689,2.12916 z M 176,108 c 0,-0.55 -0.43963,-1 -0.97695,-1 -1.91241,0 -4.35676,-5.24419 -7.51696,-16.127146 -3.35894,-11.567404 -6.88924,-17.33088 -10.22246,-16.68896 -2.86328,0.551417 -2.60284,3.382954 0.65214,7.09017 1.67478,1.907464 5.00647,8.363626 7.40377,14.347026 3.47338,8.66916 4.79562,10.94382 6.5096,11.19846 1.18297,0.17575 2.15086,0.73825 2.15086,1.25 0,0.51175 0.45,0.93045 1,0.93045 0.55,0 1,-0.45 1,-1 z m 327,0 c 0,-0.55 -0.43963,-1 -0.97695,-1 -1.91241,0 -4.35676,-5.24419 -7.51696,-16.127146 -3.35894,-11.567404 -6.88924,-17.33088 -10.22246,-16.68896 -2.86328,0.551417 -2.60284,3.382954 0.65214,7.09017 1.67478,1.907464 5.00647,8.363626 7.40377,14.347026 3.47338,8.66916 4.79562,10.94382 6.5096,11.19846 1.18297,0.17575 2.15086,0.73825 2.15086,1.25 0,0.51175 0.45,0.93045 1,0.93045 0.55,0 1,-0.45 1,-1 z M 36,107 c 0,-0.55 -0.434167,-1 -0.964816,-1 -1.995377,0 -2.857242,-3.92324 -4.064112,-18.5 -0.708257,-8.554438 -1.720852,-15.315698 -2.356492,-15.734687 -2.159382,-1.42338 -4.669141,-0.73967 -5.715595,1.557046 -0.799532,1.754782 -0.63421,3.771057 0.67645,8.25 0.954023,3.260203 1.934549,5.343493 2.178946,4.629533 0.244396,-0.713959 -0.300732,-3.576086 -1.211396,-6.360282 -0.910664,-2.784196 -1.47536,-5.242568 -1.25488,-5.463049 1.071911,-1.07191 3.944679,11.348043 4.931566,21.320839 1.08144,10.92828 1.170873,11.2091 3.694299,11.60017 1.422317,0.22042 2.92353,0.46819 3.33603,0.5506 C 35.6625,107.93258 36,107.55 36,107 z m 228.49715,-1.38695 C 260.93206,104.05936 245,86.932474 245,84.653713 245,83.182349 242.19646,81 240.30629,81 c -0.45386,0 -1.37947,0.887538 -2.05692,1.972307 -1.61372,2.583973 0.14217,6.643987 3.69532,8.544412 1.40542,0.7517 6.15531,4.532068 10.55531,8.400818 6.67423,5.868393 8.58002,7.031613 11.5,7.019133 l 3.5,-0.015 -3.00285,-1.30867 z m 327,0 C 587.93206,104.05936 572,86.932474 572,84.653713 572,83.182349 569.19646,81 567.30629,81 c -0.45386,0 -1.37947,0.887538 -2.05692,1.972307 -1.61372,2.583973 0.14217,6.643987 3.69532,8.544412 1.40542,0.7517 6.15531,4.532068 10.55531,8.400818 6.67423,5.868393 8.58002,7.031613 11.5,7.019133 l 3.5,-0.015 -3.00285,-1.30867 z M 108,104.57339 C 108,103.78876 105.525,101.73073 102.5,100 97.319204,97.035849 97,96.62806 97,92.973662 97,89.059763 95.286997,84 93.96193,84 c -1.332992,0 -2.708334,2.483267 -3.155352,5.697187 -0.244579,1.758453 -0.07612,2.969396 0.374366,2.690983 C 91.631425,92.109758 92,93.158396 92,94.718477 c 0,4.068606 2.268638,6.745823 6.889468,8.130263 2.214612,0.66351 4.297022,1.64398 4.627572,2.17882 0.93107,1.50651 4.48296,1.14666 4.48296,-0.45417 z M 38.367351,95 c -0.306579,-0.825 -1.617668,-5.730516 -2.91353,-10.901146 -1.295862,-5.17063 -2.883683,-9.89563 -3.52849,-10.5 -1.197139,-1.122064 -1.164445,-0.09978 0.693789,21.693549 l 0.664428,7.792407 2.820611,-3.292407 C 37.677856,97.955479 38.67835,95.836892 38.367351,95 z m 75.357759,6.55088 c 0.63196,-0.47098 -15.412712,-16.559713 -16.510294,-16.555644 -0.960598,0.0036 -1.023738,0.49328 -0.25,1.939023 0.569351,1.063842 1.043065,3.651342 1.052697,5.75 0.0162,3.528959 0.410774,4.051315 5.249997,6.950144 3.56798,2.137317 6.02777,2.967367 7.73249,2.609327 1.375,-0.2888 2.6013,-0.60058 2.72511,-0.69285 z m 126.81007,-4.16589 c 3.16781,-2.075625 3.11775,-3.727152 -0.17842,-5.886887 -2.44872,-1.604461 -2.89027,-1.614115 -6,-0.131188 -4.07364,1.942582 -4.17413,2.85645 -0.60676,5.517998 3.35484,2.502985 3.69059,2.527731 6.78518,0.500077 z m 327,0 c 3.16781,-2.075625 3.11775,-3.727152 -0.17842,-5.886887 -2.44872,-1.604461 -2.89027,-1.614115 -6,-0.131188 -4.07364,1.942582 -4.17413,2.85645 -0.60676,5.517998 3.35484,2.502985 3.69059,2.527731 6.78518,0.500077 z M 247.11878,76.694221 c -0.63381,-2.745787 -2.99998,-7.737763 -5.25816,-11.09328 -2.25818,-3.355518 -3.78844,-5.066847 -3.40058,-3.802953 0.88357,2.879245 -1.08729,5.455094 -3.57076,4.66687 -1.73243,-0.549851 -1.75182,-0.328044 -0.36964,4.227422 0.80229,2.644246 1.46358,6.19522 1.46954,7.891053 0.0137,3.910288 0.95418,4.867214 2.60549,2.651123 1.18233,-1.586714 1.53148,-1.603838 4.09887,-0.201038 1.61858,0.884374 2.9686,2.577438 3.18953,4 0.38075,2.451637 0.38914,2.44897 1.38557,-0.440137 0.69278,-2.008681 0.64648,-4.449116 -0.14986,-7.89906 z m 327,0 c -0.63381,-2.745787 -2.99998,-7.737763 -5.25816,-11.09328 -2.25818,-3.355518 -3.78844,-5.066847 -3.40058,-3.802953 0.88357,2.879245 -1.08729,5.455094 -3.57076,4.66687 -1.73243,-0.549851 -1.75182,-0.328044 -0.36964,4.227422 0.80229,2.644246 1.46358,6.19522 1.46954,7.891053 0.0137,3.910288 0.95418,4.867214 2.60549,2.651123 1.18233,-1.586714 1.53148,-1.603838 4.09887,-0.201038 1.61858,0.884374 2.9686,2.577438 3.18953,4 0.38075,2.451637 0.38914,2.44897 1.38557,-0.440137 0.69278,-2.008681 0.64648,-4.449116 -0.14986,-7.89906 z M 90.524281,82.88945 c 0.816297,-3.716576 -0.58063,-5.38626 -5.340247,-6.382954 l -3.315966,-0.694384 0.315966,3.820951 c 0.239627,2.897793 0.919976,4.12495 2.815966,5.079202 3.784737,1.90486 4.777493,1.577286 5.524281,-1.822815 z M 154.21452,77.5 C 153.74862,72.60408 153.23426,72 149.53138,72 146.28941,72 146,72.241213 146,74.943296 c 0,3.336404 3.28495,6.285974 6.5,5.836383 1.57142,-0.219747 1.93882,-0.92255 1.71452,-3.279679 z m 327,0 C 480.74862,72.60408 480.23426,72 476.53138,72 473.28941,72 473,72.241213 473,74.943296 c 0,3.336404 3.28495,6.285974 6.5,5.836383 1.57142,-0.219747 1.93882,-0.92255 1.71452,-3.279679 z M 174.27264,75.762833 c 4.25006,-2.960348 6.98956,-9.115998 6.28055,-14.112337 -0.32394,-2.282773 -4.29343,-11.604027 -8.82109,-20.713897 -7.30921,-14.706502 -8.7389,-16.920647 -12.75275,-19.75 C 156.49299,19.433969 154.13049,18 153.72935,18 c -1.55697,0 -0.60041,2.814673 2.23344,6.571861 1.62953,2.160476 5.94575,11.578139 9.5916,20.928139 3.64585,9.35 6.97105,17.675 7.38934,18.5 1.23659,2.438959 4.78563,2.42807 5.56169,-0.01707 0.37245,-1.173511 0.89756,-1.913285 1.16691,-1.643942 C 180.61289,63.279554 177.91593,67 176.29356,67 175.39372,67 173.83455,66.255256 172.82874,65.345012 171.63992,64.269142 171,64.114148 171,64.902074 c 0,0.666627 -3.18409,2.618433 -7.07576,4.337346 -6.86777,3.033424 -7.00426,3.162762 -4.64327,4.399809 1.33787,0.700982 3.16792,2.396921 4.06678,3.768753 1.48984,2.273782 1.92234,2.396655 4.89327,1.390177 1.79244,-0.607235 4.50667,-1.973132 6.03162,-3.035326 z m 327,0 c 4.25006,-2.960348 6.98956,-9.115998 6.28055,-14.112337 -0.32394,-2.282773 -4.29343,-11.604027 -8.82109,-20.713897 -7.30921,-14.706502 -8.7389,-16.920647 -12.75275,-19.75 C 483.49299,19.433969 481.13049,18 480.72935,18 c -1.55697,0 -0.60041,2.814673 2.23344,6.571861 1.62953,2.160476 5.94575,11.578139 9.5916,20.928139 3.64585,9.35 6.97105,17.675 7.38934,18.5 1.23659,2.438959 4.78563,2.42807 5.56169,-0.01707 0.37245,-1.173511 0.89756,-1.913285 1.16691,-1.643942 C 507.61289,63.279554 504.91593,67 503.29356,67 502.39372,67 500.83455,66.255256 499.82874,65.345012 498.63992,64.269142 498,64.114148 498,64.902074 c 0,0.666627 -3.18409,2.618433 -7.07576,4.337346 -6.86777,3.033424 -7.00426,3.162762 -4.64327,4.399809 1.33787,0.700982 3.16792,2.396921 4.06678,3.768753 1.48984,2.273782 1.92234,2.396655 4.89327,1.390177 1.79244,-0.607235 4.50667,-1.973132 6.03162,-3.035326 z M 33,63.88499 C 33,60.828774 32.620812,60 31.222506,60 c -5.051289,0 -8.042922,6.036727 -4.665425,9.414224 1.409441,1.409441 1.788714,1.405308 4,-0.04358 C 32.453759,68.127891 33,66.901289 33,63.88499 z M 402.27715,207.77995 C 399.46499,204.87323 393.23761,193 394.52522,193 c 0.275,0 1.64378,2.5875 3.04173,5.75 2.66723,6.03392 6.8958,11.25 9.12014,11.25 1.69911,0 1.66082,-1.42654 -0.13131,-4.89214 -2.12528,-4.10983 -5.6311,-13.59252 -4.63076,-12.52547 1.29605,1.38247 6.25027,13.63511 6.42349,15.8864 0.24433,3.17538 -2.65063,2.84693 -6.07136,-0.68884 z m 327,0 C 726.46499,204.87323 720.23761,193 721.52522,193 c 0.275,0 1.64378,2.5875 3.04173,5.75 2.66723,6.03392 6.8958,11.25 9.12014,11.25 1.69911,0 1.66082,-1.42654 -0.13131,-4.89214 -2.12528,-4.10983 -5.6311,-13.59252 -4.63076,-12.52547 1.29605,1.38247 6.25027,13.63511 6.42349,15.8864 0.24433,3.17538 -2.65063,2.84693 -6.07136,-0.68884 z M 380.98527,156.75 c -0.0129,-30.83093 -0.23556,-35.95721 -1.77631,-40.8913 l -1.76158,-5.64129 -8.62002,6.12016 -8.62001,6.12017 4.02539,2.28646 c 3.12847,1.777 4.33624,2.02848 5.42049,1.12863 1.67033,-1.38625 1.59657,-1.46428 3.68415,3.89741 1.93132,4.96035 1.96945,5.22976 0.74017,5.22976 -0.50734,0 -1.44224,-1.575 -2.07755,-3.5 -1.34927,-4.08833 -3,-4.61357 -3,-0.95455 0,3.30437 -4.18678,7.45455 -7.52029,7.45455 -3.94652,0 -6.49036,-1.78123 -8.1225,-5.68751 -1.31262,-3.14155 -1.30323,-3.71465 0.086,-5.24979 1.42628,-1.57602 1.36717,-1.81545 -0.69186,-2.8023 -3.90646,-1.87229 -6.04104,-2.3729 -14.25139,-3.3423 -9.127,-1.07764 -39.30985,1.03383 -53.1673,3.71936 -7.81108,1.51377 -10.3327,1.34731 -10.3327,-0.68208 0,-4.83469 45.19047,-15.18167 62.5,-14.31024 11.47226,0.57756 12.38011,0.78428 16.8927,3.84661 l 3.7465,2.54244 10.28553,-5.5171 c 10.74149,-5.76166 14.07679,-6.58106 16.0125,-3.93383 0.99073,1.35492 2.56321,0.11893 10.9027,-8.569625 l 9.74499,-10.152891 -3.12532,-3.559535 C 400.00732,82.07768 399.01792,80.039491 399.32353,78.870838 399.59261,77.841877 399.43521,77 398.97377,77 c -1.2719,0 -2.19077,3.740925 -1.47377,6 0.35922,1.131815 0.1797,2 -0.41356,2 -1.65091,0 -2.30374,-4.298257 -1.12408,-7.401004 0.85162,-2.239913 1.52668,-2.704372 3.26858,-2.248854 1.29282,0.338079 2.89353,-0.0578 3.89375,-0.962984 2.75367,-2.492035 6.99938,-1.350625 9.64917,2.594068 1.28616,1.914674 2.14305,4.164674 1.90421,5 -0.23884,0.835326 -0.60162,2.145541 -0.80616,2.91159 -0.25136,0.941343 1.24881,1.826487 4.62809,2.73071 8.63923,2.311676 8.37631,2.485364 15.30731,-10.112287 3.46903,-6.305227 6.70519,-11.709945 7.19147,-12.010485 0.48628,-0.30054 -1.85083,4.280647 -5.19358,10.180416 C 426.02031,92.950942 425.31407,96 431.09885,96 c 2.6782,0 3.31157,-0.841754 8.84116,-11.75 3.27595,-6.4625 5.97962,-11.405005 6.00814,-10.983343 0.10932,1.616388 -10.81886,22.319952 -12.65499,23.975001 -4.19812,3.784112 -17.10251,4.410332 -23.4935,1.140094 -1.48519,-0.759964 -3.06019,-1.375133 -3.5,-1.367043 C 405.85985,97.022799 401.45,100.61618 396.5,105 c -4.95,4.38382 -9.7875,7.9772 -10.75,7.98529 -0.9625,0.008 -1.75,0.20126 -1.75,0.42927 0,1.92611 6.45445,16.69448 6.80156,15.5626 0.24915,-0.81244 1.32211,-2.43425 2.38436,-3.60403 1.92072,-2.11516 1.91726,-2.13042 -0.62728,-2.76906 C 391.15139,122.25088 390,121.47169 390,120.87254 c 0,-1.38058 4.90402,-0.23208 6.99182,1.63746 5.86895,5.25537 7.00818,6.6406 7.00818,8.52147 0,2.772 -5.23666,7.96853 -8.03007,7.96853 -1.48983,0 -2.00831,0.45759 -1.6314,1.43981 0.30388,0.7919 0.11595,5.6294 -0.41762,10.75 -0.96506,9.26146 -0.94858,9.38253 3.14791,23.13342 2.26493,7.60278 3.94012,14.00116 3.72265,14.21863 -0.21747,0.21747 -2.14121,-5.55298 -4.27497,-12.82323 -2.13376,-7.27025 -4.30298,-13.78113 -4.82048,-14.46863 -2.64657,-3.51597 -8.5281,1.34706 -7.1974,5.95104 0.36546,1.26443 2.69064,7.1736 5.16707,13.13148 2.47643,5.95789 4.32635,11.00877 4.11094,11.22418 -0.21541,0.21541 -2.39077,-4.43422 -4.83414,-10.33252 L 384.5,170.5 l -0.28383,10.75 c -0.22838,8.64958 -0.5703,10.75 -1.75,10.75 -1.26022,0 -1.46824,-4.95154 -1.4809,-35.25 z m 8.98185,2.53115 c 1.11808,0.29239 2.04087,0.46124 2.05065,0.37523 1.84192,-16.21285 1.8406,-17.73284 -0.0195,-22.41813 -1.03459,-2.60604 -3.14495,-8.0882 -4.68969,-12.18258 l -2.80863,-7.44433 -0.30492,5.27095 c -0.17127,2.96072 0.38548,7.34955 1.27027,10.0134 0.86635,2.60834 1.45357,5.8349 1.30492,7.17014 -0.21084,1.89387 0.25459,2.50262 2.11664,2.76843 1.3128,0.1874 2.80956,-0.26115 3.32613,-0.99677 0.74923,-1.06694 0.85741,-1.03406 0.53476,0.16251 -0.51796,1.92094 -4.42386,2.51374 -6.30054,0.95623 -0.8225,-0.68262 -1.25237,-2.24667 -1,-3.63844 0.24347,-1.34262 0.0644,-3.42588 -0.39783,-4.62946 -0.52152,-1.35782 -0.88674,3.47435 -0.96234,12.73238 -0.12104,14.82196 -0.10871,14.90883 1.86265,13.12477 1.16112,-1.0508 2.82795,-1.57537 4.01738,-1.26433 z m 10.3918,-23.24007 C 401.6375,134.7625 398.35985,131 395.96746,131 c -2.55049,0 -4.14008,2.46403 -3.42573,5.31022 0.56812,2.26359 0.9225,2.41703 3.7256,1.61311 1.70377,-0.48864 3.54499,-1.33565 4.09159,-1.88225 z m -41.06424,-4.23396 c 3.61392,-4.84045 -0.64191,-9.39588 -4.64524,-4.97225 -1.37656,1.52109 -1.46914,2.38391 -0.54132,5.04544 1.26731,3.63541 2.42994,3.61901 5.18656,-0.0732 z m -73.31753,-8.28416 c 4.13757,-0.81237 15.82542,-2.18202 25.973,-3.04366 10.14758,-0.86165 19.03508,-2.05208 19.75,-2.64541 1.55694,-1.29214 1.74443,-5.83389 0.24083,-5.83389 -0.58246,0 -0.82082,-0.38541 -0.52969,-0.85647 1.63648,-2.64788 -42.1851,5.78637 -50.01424,9.62614 -5.14399,2.52286 -6.82708,4.23033 -4.1699,4.23033 0.67494,0 4.61244,-0.66467 8.75,-1.47704 z m 80.72556,-6.60485 c 12.70812,-9.18596 13.53841,-11.84681 1.67957,-5.38255 -4.84903,2.6432 -10.13829,5.07618 -11.75391,5.40661 -3.36401,0.68801 -5.23442,3.03611 -4.3189,5.42191 1.14312,2.97891 4.48987,1.7126 14.39324,-5.44597 z M 351,120.57258 c 0,-0.78508 1.15476,-2.33575 2.56613,-3.44594 l 2.56613,-2.01852 -4.02629,-2.05406 C 349.11792,111.52967 346.17117,111 340.67851,111 c -7.35988,0 -7.39849,0.014 -6.92216,2.50575 0.26345,1.37816 -0.0354,3.1256 -0.6642,3.88321 -1.45456,1.75264 0.43104,2.57181 6.23964,2.71072 2.29251,0.0548 5.29321,0.45997 6.66821,0.90032 3.83639,1.22863 5,1.12916 5,-0.42742 z m 29.51225,-8.48354 c -0.58441,-4.24911 -0.42859,-4.97472 1.15616,-5.384 1.51482,-0.39123 1.45266,-0.4931 -0.35939,-0.58904 -3.08271,-0.16321 -3.53098,1.11687 -2.21762,6.3327 1.50998,5.99669 2.26865,5.80464 1.42085,-0.35966 z M 396,104.4235 c 4.675,-4.14977 9.90757,-8.14677 11.62792,-8.882231 1.72036,-0.735461 3.45194,-1.861473 3.84796,-2.502248 C 412.32122,91.671238 409.30182,88 407.33156,88 c -1.56618,0 -21.66896,20.51277 -22.15488,22.60672 -0.69072,2.97646 2.66224,1.06096 10.82332,-6.18322 z m 34.41218,-6.452334 c 2.06452,-0.83497 2.0631,-0.845101 -0.127,-0.90778 -2.40265,-0.06876 -4.58804,-3.110567 -3.76874,-5.245645 0.36391,-0.948316 -1.55561,-1.792157 -6.72464,-2.956228 -8.53726,-1.922599 -10.72952,-1.555158 -8.09434,1.356681 1.72368,1.904645 1.69337,2.048877 -0.89926,4.278967 l -2.68308,2.307883 2.69244,1.041388 c 1.48084,0.572763 3.59244,1.25811 4.69244,1.522995 2.54461,0.612751 12.17184,-0.289959 14.91218,-1.398261 z M 412.89282,84.33588 c 1.77502,-3.895745 -0.26607,-8.741674 -3.05361,-7.249829 -1.06607,0.570546 -2.43742,2.132762 -3.04743,3.47159 -0.90591,1.988273 -0.77684,2.801386 0.70454,4.438297 2.44772,2.704691 3.94697,2.521313 5.3965,-0.660058 z M 707.98527,156.75 c -0.0129,-30.83093 -0.23556,-35.95721 -1.77631,-40.8913 l -1.76158,-5.64129 -8.62002,6.12016 -8.62001,6.12017 4.02539,2.28646 c 3.12847,1.777 4.33624,2.02848 5.42049,1.12863 1.67033,-1.38625 1.59657,-1.46428 3.68415,3.89741 1.93132,4.96035 1.96945,5.22976 0.74017,5.22976 -0.50734,0 -1.44224,-1.575 -2.07755,-3.5 -1.34927,-4.08833 -3,-4.61357 -3,-0.95455 0,3.30437 -4.18678,7.45455 -7.52029,7.45455 -3.94652,0 -6.49036,-1.78123 -8.1225,-5.68751 -1.31262,-3.14155 -1.30323,-3.71465 0.086,-5.24979 1.42628,-1.57602 1.36717,-1.81545 -0.69186,-2.8023 -3.90646,-1.87229 -6.04104,-2.3729 -14.25139,-3.3423 -9.127,-1.07764 -39.30985,1.03383 -53.1673,3.71936 -7.81108,1.51377 -10.3327,1.34731 -10.3327,-0.68208 0,-4.83469 45.19047,-15.18167 62.5,-14.31024 11.47226,0.57756 12.38011,0.78428 16.8927,3.84661 l 3.7465,2.54244 10.28553,-5.5171 c 5.65708,-3.0344 11.19566,-5.51709 12.308,-5.51709 2.9637,0 4.61319,2.52062 3.91943,5.98938 -0.65039,3.25198 5.31619,20.70488 6.14944,17.98778 0.24915,-0.81244 1.32211,-2.43425 2.38436,-3.60403 1.92072,-2.11516 1.91726,-2.13042 -0.62728,-2.76906 C 718.15139,122.25088 717,121.47169 717,120.87254 c 0,-1.38058 4.90402,-0.23208 6.99182,1.63746 5.86895,5.25537 7.00818,6.6406 7.00818,8.52147 0,2.772 -5.23666,7.96853 -8.03007,7.96853 -1.48983,0 -2.00831,0.45759 -1.6314,1.43981 0.30388,0.7919 0.11595,5.6294 -0.41762,10.75 -0.96506,9.26146 -0.94858,9.38253 3.14791,23.13342 2.26493,7.60278 3.94012,14.00116 3.72265,14.21863 -0.21747,0.21747 -2.14121,-5.55298 -4.27497,-12.82323 -2.13376,-7.27025 -4.30298,-13.78113 -4.82048,-14.46863 -2.64657,-3.51597 -8.5281,1.34706 -7.1974,5.95104 0.36546,1.26443 2.69064,7.1736 5.16707,13.13148 2.47643,5.95789 4.32635,11.00877 4.11094,11.22418 -0.21541,0.21541 -2.39077,-4.43422 -4.83414,-10.33252 L 711.5,170.5 l -0.28383,10.75 c -0.22838,8.64958 -0.5703,10.75 -1.75,10.75 -1.26022,0 -1.46824,-4.95154 -1.4809,-35.25 z m 8.98185,2.53115 c 1.11808,0.29239 2.04087,0.46124 2.05065,0.37523 1.84192,-16.21285 1.8406,-17.73284 -0.0195,-22.41813 -1.03459,-2.60604 -3.14495,-8.0882 -4.68969,-12.18258 l -2.80863,-7.44433 -0.30492,5.27095 c -0.17127,2.96072 0.38548,7.34955 1.27027,10.0134 0.86635,2.60834 1.45357,5.8349 1.30492,7.17014 -0.21084,1.89387 0.25459,2.50262 2.11664,2.76843 1.3128,0.1874 2.80956,-0.26115 3.32613,-0.99677 0.74923,-1.06694 0.85741,-1.03406 0.53476,0.16251 -0.51796,1.92094 -4.42386,2.51374 -6.30054,0.95623 -0.8225,-0.68262 -1.25237,-2.24667 -1,-3.63844 0.24347,-1.34262 0.0644,-3.42588 -0.39783,-4.62946 -0.52152,-1.35782 -0.88674,3.47435 -0.96234,12.73238 -0.12104,14.82196 -0.10871,14.90883 1.86265,13.12477 1.16112,-1.0508 2.82795,-1.57537 4.01738,-1.26433 z m 10.3918,-23.24007 C 728.6375,134.7625 725.35985,131 722.96746,131 c -2.55049,0 -4.14008,2.46403 -3.42573,5.31022 0.56812,2.26359 0.9225,2.41703 3.7256,1.61311 1.70377,-0.48864 3.54499,-1.33565 4.09159,-1.88225 z m -41.06424,-4.23396 c 3.61392,-4.84045 -0.64191,-9.39588 -4.64524,-4.97225 -1.37656,1.52109 -1.46914,2.38391 -0.54132,5.04544 1.26731,3.63541 2.42994,3.61901 5.18656,-0.0732 z m -73.31753,-8.28416 c 4.13757,-0.81237 15.82542,-2.18202 25.973,-3.04366 10.14758,-0.86165 19.03508,-2.05208 19.75,-2.64541 1.55694,-1.29214 1.74443,-5.83389 0.24083,-5.83389 -0.58246,0 -0.82082,-0.38541 -0.52969,-0.85647 1.63648,-2.64788 -42.1851,5.78637 -50.01424,9.62614 -5.14399,2.52286 -6.82708,4.23033 -4.1699,4.23033 0.67494,0 4.61244,-0.66467 8.75,-1.47704 z m 80.72556,-6.60485 c 12.70812,-9.18596 13.53841,-11.84681 1.67957,-5.38255 -4.84903,2.6432 -10.13829,5.07618 -11.75391,5.40661 -3.36401,0.68801 -5.23442,3.03611 -4.3189,5.42191 1.14312,2.97891 4.48987,1.7126 14.39324,-5.44597 z M 678,120.57258 c 0,-0.78508 1.15476,-2.33575 2.56613,-3.44594 l 2.56613,-2.01852 -4.02629,-2.05406 C 676.11792,111.52967 673.17117,111 667.67851,111 c -7.35988,0 -7.39849,0.014 -6.92216,2.50575 0.26345,1.37816 -0.0354,3.1256 -0.6642,3.88321 -1.45456,1.75264 0.43104,2.57181 6.23964,2.71072 2.29251,0.0548 5.29321,0.45997 6.66821,0.90032 3.83639,1.22863 5,1.12916 5,-0.42742 z m 29.51225,-8.48354 c -0.58441,-4.24911 -0.42859,-4.97472 1.15616,-5.384 1.2258,-0.31658 0.92204,-0.5114 -0.91841,-0.58904 -3.09924,-0.13073 -3.19294,0.23927 -1.63129,6.44118 1.48628,5.90251 2.23513,5.65095 1.39354,-0.46814 z M 447.07964,70.862274 c -0.0438,-0.350749 1.31419,-3.616278 3.01777,-7.25673 2.79167,-5.965662 3.02874,-7.210583 2.40181,-12.612274 C 452.11664,47.696971 451.41516,45 450.94036,45 c -0.4748,0 -1.37623,1.904964 -2.00317,4.233254 C 447.75147,53.636675 443.34435,63 442.45747,63 c -0.27985,0 0.265,-1.4625 1.2108,-3.25 0.94579,-1.7875 2.66485,-5.95 3.82012,-9.25 2.80595,-8.01508 4.73383,-7.951074 5.89369,0.195672 0.84191,5.913474 0.72028,6.528367 -2.67036,13.5 -1.95385,4.01738 -3.58828,7.017351 -3.63208,6.666602 z M 205,40.482984 c -5.775,-5.215856 -10.64992,-9.93305 -10.83316,-10.482653 -0.60524,-1.81537 2.83229,-2.260496 7.45712,-0.965624 2.98532,0.835838 7.19436,3.497841 12.21539,7.725618 7.79691,6.5651 12.82591,11.306051 8.66065,8.164586 -1.1,-0.829627 -5.00305,-4.084931 -8.67344,-7.234009 C 207.53692,32.294598 201.11055,29 196.87427,29 195.84342,29 195,29.340364 195,29.756363 c 0,0.416 4.725,4.98301 10.5,10.148911 9.34373,8.358228 11.15468,10.138777 10.25,10.077905 -0.1375,-0.0093 -4.975,-4.28434 -10.75,-9.500195 z m 327,0 c -5.775,-5.215856 -10.64992,-9.93305 -10.83316,-10.482653 -0.60524,-1.81537 2.83229,-2.260496 7.45712,-0.965624 2.98532,0.835838 7.19436,3.497841 12.21539,7.725618 7.79691,6.5651 12.82591,11.306051 8.66065,8.164586 -1.1,-0.829627 -5.00305,-4.084931 -8.67344,-7.234009 C 534.53692,32.294598 528.11055,29 523.87427,29 522.84342,29 522,29.340364 522,29.756363 c 0,0.416 4.725,4.98301 10.5,10.148911 9.34373,8.358228 11.15468,10.138777 10.25,10.077905 -0.1375,-0.0093 -4.975,-4.28434 -10.75,-9.500195 z"
       id="path2989"
       style="fill:#000000" />
  </g>
</svg>
