<?xml version="1.0" encoding="UTF-8" standalone="no"?>
<!-- Created with Inkscape (http://www.inkscape.org/) -->

<svg
   xmlns:dc="http://purl.org/dc/elements/1.1/"
   xmlns:cc="http://creativecommons.org/ns#"
   xmlns:rdf="http://www.w3.org/1999/02/22-rdf-syntax-ns#"
   xmlns:svg="http://www.w3.org/2000/svg"
   xmlns="http://www.w3.org/2000/svg"
   xmlns:sodipodi="http://sodipodi.sourceforge.net/DTD/sodipodi-0.dtd"
   xmlns:inkscape="http://www.inkscape.org/namespaces/inkscape"
   id="svg3486"
   version="1.1"
   inkscape:version="0.91 r13725"
   width="657.94391"
   height="242.8125"
   viewBox="0 0 657.94391 242.8125"
   sodipodi:docname="ub740803.svg">
  <metadata
     id="metadata3492">
    <rdf:RDF>
      <cc:Work
         rdf:about="">
        <dc:format>image/svg+xml</dc:format>
        <dc:type
           rdf:resource="http://purl.org/dc/dcmitype/StillImage" />
        <dc:title></dc:title>
      </cc:Work>
    </rdf:RDF>
  </metadata>
  <defs
     id="defs3490" />
  <sodipodi:namedview
     pagecolor="#ffffff"
     bordercolor="#666666"
     borderopacity="1"
     objecttolerance="10"
     gridtolerance="10"
     guidetolerance="10"
     inkscape:pageopacity="0"
     inkscape:pageshadow="2"
     inkscape:window-width="1544"
     inkscape:window-height="897"
     id="namedview3488"
     showgrid="false"
     inkscape:zoom="0.949929"
     inkscape:cx="276.91698"
     inkscape:cy="99.095182"
     inkscape:window-x="0"
     inkscape:window-y="0"
     inkscape:window-maximized="0"
     inkscape:current-layer="svg3486" />
  <g
     id="g3496"
     transform="translate(1.0562471,2.5353283)">
    <path
       style="fill:#fefefe"
       d="m 277.56291,193.82812 c -1.12451,-1.29773 -7.46946,-11.02221 -7.46946,-11.44793 0,-0.56651 -11.50473,-20.73278 -12.58947,-22.06769 -0.96513,-1.18771 -4.23296,-11.51491 -4.23296,-13.37727 0,-0.32891 1.25902,0.12064 2.79783,0.999 1.53881,0.87836 2.80049,2.245 2.80374,3.03697 0.003,0.79197 5.89376,9.38029 13.09002,19.08515 7.19626,9.70485 13.08254,17.91625 13.08062,18.24755 -0.002,0.33129 -0.83686,1.97344 -1.85542,3.64922 -1.94011,3.19194 -3.91369,3.84982 -5.6249,1.875 z M 43.580422,188.56574 c -1.410019,-1.47635 -3.533487,-5.07789 -4.718818,-8.00345 -2.081526,-5.13749 -2.108554,-5.55018 -0.791207,-12.08136 1.482209,-7.34854 3.045567,-10.30061 3.059801,-5.77781 0.0048,1.5211 1.476751,8.43199 3.271028,15.35756 1.794279,6.92555 3.262324,12.72634 3.262324,12.89062 0,1.01965 -1.879855,-0.0787 -4.083128,-2.38556 z m 212.048638,-4.79182 c -1.27669,-1.41512 -1.53122,-2.72159 -1.08075,-5.54745 0.39923,-2.50443 -0.18829,-6.97126 -1.82193,-13.85205 -1.82309,-7.67866 -2.26982,-11.44845 -1.83162,-15.45605 0.36923,-3.37685 0.21878,-5.47774 -0.41461,-5.78906 -0.5468,-0.26879 -0.46396,-0.38171 0.18409,-0.25095 0.64804,0.13075 1.46417,1.91782 1.81363,3.97127 0.34946,2.05345 1.92395,8.17076 3.49885,13.59403 4.23784,14.59319 5.76408,22.5747 4.58847,23.99564 -1.39617,1.68753 -3.00963,1.47004 -4.93613,-0.66538 z m 75.91943,-4.05236 c -2.684,-1.06418 -3.90074,-3.23719 -3.05319,-5.45276 0.27517,-0.71932 2.64008,-2.57172 5.25537,-4.11645 2.61528,-1.54473 5.44875,-3.23214 6.29659,-3.7498 0.84783,-0.51766 4.906,-2.80749 9.01815,-5.08852 4.11215,-2.28102 9.15888,-5.23158 11.21496,-6.5568 2.05607,-1.32521 6.0514,-3.11432 8.8785,-3.9758 2.8271,-0.86146 4.58173,-1.60065 3.89918,-1.64262 -0.68255,-0.042 -7.18075,1.64521 -14.44042,3.7493 -15.24154,4.41748 -20.51697,5.02722 -21.04813,2.43276 -0.19259,-0.94071 0.42155,-2.56578 1.36476,-3.61127 1.39654,-1.54798 2.45033,-1.79979 5.67603,-1.35628 2.70647,0.37213 7.85962,-0.3432 16.26948,-2.2584 6.7696,-1.54168 12.42129,-2.68979 12.55928,-2.55136 0.35335,0.35446 0.71207,4.63142 0.53806,6.41533 -0.0799,0.81958 -1.13655,1.94318 -2.34802,2.49689 -1.21146,0.5537 -9.875,6.73861 -19.25232,13.74423 -9.37732,7.00561 -17.32303,12.69261 -17.65714,12.63776 -0.33412,-0.0549 -1.76113,-0.55715 -3.17114,-1.11621 z m -83.69803,-1.78406 c -0.61682,-0.61875 -1.12149,-2.30625 -1.12149,-3.75 0,-2.15133 0.40781,-2.625 2.26001,-2.625 4.77269,0 6.22976,1.88571 4.64934,6.01707 -0.66857,1.74772 -4.18558,1.96522 -5.78786,0.35793 z M 31.525205,157.78107 c -4.146626,-13.07195 -4.273822,-15.15102 -1.109371,-18.13315 3.161337,-2.97921 5.060606,-1.77144 7.194082,4.57482 1.584458,4.71314 1.571622,5.11254 -0.473481,14.73256 l -2.102091,9.88809 -3.509139,-11.06232 z M 345.48286,149.375 c -1.26956,-1.27352 -0.54937,-2.7644 2.09123,-4.32912 1.49286,-0.88461 2.96483,-1.60838 3.27103,-1.60838 0.72355,0 0.71696,3.17782 -0.0106,5.07957 -0.5641,1.47464 -4.16196,2.05141 -5.35172,0.85793 z m 32.7706,-2.26265 c 0.33048,-1.26769 0.75411,-1.69266 0.98743,-0.99052 0.22475,0.67635 -0.0357,1.67547 -0.5788,2.22025 -0.69352,0.69569 -0.81515,0.32966 -0.40863,-1.22973 z m 42.93033,1.32515 c -0.34268,-0.34375 -0.62305,-1.50457 -0.62305,-2.5796 0,-3.11806 -7.25391,-27.72102 -8.92963,-30.28649 -3.4408,-5.26774 1.02578,-12.0092 5.35364,-8.08029 1.5577,1.41409 1.79797,2.45124 1.34162,5.79107 -0.39737,2.90818 0.24178,7.238 2.2411,15.18206 3.02341,12.01316 3.37062,14.97325 1.75635,14.97325 -0.62467,0 -0.87617,1.12424 -0.62915,2.8125 0.44457,3.03854 0.42425,3.12555 -0.51088,2.1875 z m -224.92211,-2.57957 c 0,-3.4584 0.95875,-5.23293 2.82729,-5.23293 3.04542,0 4.64934,1.10188 4.64934,3.19405 0,2.7857 -1.71579,4.30595 -4.85981,4.30595 -2.14463,0 -2.61682,-0.40909 -2.61682,-2.26707 z M 42.990653,145.3777 c 0,-1.13919 -0.750513,-1.9208 -2.025446,-2.10937 -1.401875,-0.20735 -2.074819,-1.02115 -2.185816,-2.64333 -0.08821,-1.28906 -0.471073,-3.85003 -0.850821,-5.69104 -0.661629,-3.20756 -0.454293,-3.5666 4.967105,-8.60155 6.835805,-6.34853 8.975411,-7.21589 11.515241,-4.66812 1.849991,1.85577 1.841642,1.86661 -3.231827,4.19658 -2.797636,1.2848 -5.972768,3.58439 -7.055849,5.11019 -1.892237,2.6657 -1.916337,3.02781 -0.616333,9.26058 1.607768,7.70833 1.562514,6.95586 0.418326,6.95586 -0.514019,0 -0.93458,-0.81441 -0.93458,-1.8098 z m 124.676237,-1.20027 c 0.13035,-0.65007 1.91185,-1.46875 3.95891,-1.8193 2.04705,-0.35055 8.1453,-1.92996 13.55167,-3.50979 14.54773,-4.25108 22.50438,-5.78208 23.92089,-4.6028 3.23875,2.69631 -1.45802,7.02168 -6.52151,6.00582 -1.97027,-0.39529 -7.50723,0.4457 -16.04156,2.43646 -9.62655,2.24555 -13.13222,2.7408 -13.41331,1.89489 -0.46085,-1.38686 -4.55103,-1.53133 -5.217,-0.18427 -0.26129,0.52851 -0.36843,0.42906 -0.23809,-0.22101 z m 249.06662,-1.05834 c -1.33394,-1.11394 -2.66977,-2.71711 -2.96851,-3.56261 -0.29874,-0.84549 -6.04144,-8.92371 -12.76156,-17.95159 -6.72012,-9.02788 -12.21266,-17.1955 -12.20565,-18.15024 0.0248,-3.37356 1.14433,-5.899141 2.85659,-6.444288 1.95308,-0.621815 5.54187,0.979716 5.54187,2.473126 0,0.539002 1.40732,3.160882 3.12737,5.826382 1.72004,2.66551 5.55032,9.27607 8.51174,14.69013 2.9614,5.41406 5.90551,10.47656 6.54246,11.25 1.16445,1.41397 4.65721,13.03248 4.08658,13.59385 -0.16805,0.16532 -1.39694,-0.61082 -2.73089,-1.72476 z m 101.72442,1.4486 c -3.04731,-0.37614 -3.25184,-1.18957 -0.70093,-2.78762 1.72425,-1.08018 1.86916,-2.18627 1.86916,-14.26792 l 0,-13.09695 2.45445,1.12182 c 2.4466,1.11822 2.45252,1.14746 1.8465,9.12053 -0.79857,10.50635 -1.91537,19.54564 -2.46162,19.92421 -0.2406,0.16675 -1.59401,0.16042 -3.00756,-0.0141 z m 107.71028,-0.0394 c 0,-0.44008 0.86715,-1.58734 1.92699,-2.54949 1.96829,-1.78685 2.06808,-5.15713 0.69247,-23.385 -0.24498,-3.24609 -0.009,-3.78914 1.75656,-4.04126 3.26262,-0.46593 4.18857,2.45344 3.123,9.84626 -0.50596,3.51037 -0.92827,9.03246 -0.93845,12.27129 -0.015,4.77988 -0.3265,5.98442 -1.65403,6.39657 -0.89953,0.27927 -2.37149,0.90241 -3.27103,1.38477 -0.89953,0.48235 -1.63551,0.51694 -1.63551,0.0769 z m -508.4112,-0.94491 c 0,-0.25682 0.64231,-1.17891 1.42735,-2.04908 1.8797,-2.08353 5.37741,-20.14042 4.7261,-24.39842 -0.62279,-4.0715 1.43222,-7.44833 4.53277,-7.44833 3.97809,0 4.47158,1.98113 2.0068,8.05649 -1.23556,3.04549 -3.37891,10.03096 -4.763,15.52326 -2.41413,9.57965 -2.62667,10.00221 -5.22328,10.38451 -1.48871,0.21917 -2.70674,0.18838 -2.70674,-0.0684 z m 349.5327,-0.31703 c 0,-0.35197 0.7733,-0.88615 1.71843,-1.18706 1.43042,-0.45542 1.90071,-2.2337 2.806,-10.61005 0.72648,-6.72188 0.78681,-11.11431 0.18173,-13.22956 -1.13344,-3.96227 0.14985,-6.67713 3.15621,-6.67713 4.40625,0 4.57018,1.68121 1.52131,15.60191 -1.5629,7.13595 -2.84163,13.82212 -2.84163,14.85815 0,1.52779 -0.61801,1.88369 -3.27102,1.88369 -1.79907,0 -3.27103,-0.28798 -3.27103,-0.63995 z m 109.34579,0.28054 c 0,-0.45548 0.76308,-1.02833 1.69574,-1.27299 1.99974,-0.52457 3.76449,-9.03672 4.28589,-20.67255 0.18002,-4.01773 0.56241,-7.54078 0.84973,-7.82902 0.28734,-0.28822 1.00886,1.2881 1.60341,3.50294 1.09634,4.08425 0.826,9.03168 -1.13502,20.77165 l -1.05705,6.32813 -3.12134,0 c -1.71675,0 -3.12136,-0.37267 -3.12136,-0.82816 z m -403.92849,-4.79092 c 0.87563,-1.54361 2.23801,-2.80923 3.02752,-2.8125 0.7895,-0.003 9.35106,-5.91217 19.02569,-13.13092 9.67462,-7.21875 17.86044,-13.12343 18.1907,-13.12149 0.33026,0.002 1.9673,0.83947 3.63786,1.86121 3.18199,1.94617 3.83782,3.92592 1.86916,5.64248 -1.29369,1.12802 -10.98788,7.4928 -11.41227,7.4928 -0.56475,0 -20.6682,11.54068 -21.99895,12.62881 -1.184,0.96815 -11.47903,4.24619 -13.33559,4.24619 -0.32789,0 0.12026,-1.26295 0.99588,-2.80658 z m 393.89425,-0.30718 c -0.5558,-1.22364 -1.30203,-4.56513 -1.6583,-7.42553 -0.54785,-4.39854 -0.24357,-6.291 1.97265,-12.26913 1.44124,-3.88762 2.91609,-6.8851 3.27746,-6.66107 0.9882,0.61266 -0.0402,7.91484 -1.65849,11.77609 -1.2267,2.92693 -1.2547,4.1669 -0.2011,8.90625 1.51606,6.81955 1.52838,7.14584 0.28549,7.56142 -0.55395,0.18524 -1.46192,-0.66438 -2.01771,-1.88803 z m -29.85489,-2.78006 c 0.19435,-5.03736 -4.60397,-15.23193 -9.86306,-20.9552 -4.35792,-4.74256 -4.56872,-8.13151 -0.53489,-8.59871 3.02355,-0.35017 3.60202,0.62705 9.6254,16.26053 4.40394,11.4303 4.95539,14.31757 3.09159,16.1872 -1.9323,1.93834 -2.47914,1.25596 -2.31904,-2.89382 z m 97.83305,-10.9045 c 0,-1.50471 0.26002,-3.41554 0.57783,-4.2463 0.51914,-1.3571 0.70592,-1.34109 1.83943,0.15769 0.69388,0.9175 1.27499,2.82834 1.29134,4.24631 0.0226,1.96305 -0.4162,2.57812 -1.83944,2.57812 -1.44215,0 -1.86916,-0.625 -1.86916,-2.73582 z m -60.51401,-0.10589 c -1.15654,-0.46633 -2.10281,-0.96693 -2.10281,-1.11246 0,-0.14552 2.06704,-0.26458 4.59342,-0.26458 3.56878,0 4.37715,0.26141 3.62389,1.17188 -1.1159,1.34877 -3.1121,1.41574 -6.1145,0.20516 z M 56.790416,123.04688 c -1.017662,-1.15688 -1.207036,-2.2626 -0.642254,-3.75 1.023737,-2.6961 3.918137,-2.72374 7.629375,-0.0729 l 2.851128,2.03653 -2.109459,1.71347 c -2.662902,2.16303 -5.863591,2.1932 -7.72879,0.0729 z m 421.779934,0 c 0.0361,-0.90235 0.37512,-2.4306 0.75333,-3.39611 0.64622,-1.64975 0.78298,-1.65983 2.27076,-0.16741 2.44441,2.45205 2.04603,5.20414 -0.75333,5.20414 -1.62716,0 -2.3165,-0.49806 -2.27076,-1.64062 z m 48.13191,0.1674 c -1.61641,-1.62146 -1.99217,-6.52905 -0.56752,-7.41227 0.76384,-0.47355 2.45295,1.69959 5.99554,7.71362 1.03369,1.75482 -3.63674,1.49553 -5.42802,-0.30135 z M 133.66822,117.24409 C 132.2539,113.81894 133.00196,112.5 136.3589,112.5 c 2.59094,0 4.92304,1.8875 5.95353,4.81851 0.40291,1.146 -0.18532,1.68287 -2.31122,2.10937 -4.5702,0.9169 -5.13274,0.72293 -6.33299,-2.18379 z m 286.10982,1.93241 c -1.63002,-1.03643 -1.0315,-5.17239 0.79908,-5.52182 1.20352,-0.22973 4.65652,4.06145 4.65652,5.78684 0,0.83942 -4.02622,0.64383 -5.4556,-0.26502 z M 87.850465,96.034903 C 78.855138,93.225141 68.44626,90.2101 64.719625,89.334811 c -3.726636,-0.875289 -6.775701,-1.872556 -6.775701,-2.216149 0,-0.824095 11.007707,-2.982804 12.017535,-2.356745 0.430451,0.266864 8.055666,1.966151 16.944924,3.776193 16.759687,3.41263 22.669127,5.579409 23.241967,8.521987 0.36624,1.881253 -2.17127,4.221233 -4.48586,4.136683 -0.80129,-0.0293 -8.816698,-2.352124 -17.812025,-5.161877 z M 470.91108,91.04645 c -2.68514,-2.11873 -34.79173,-18.248685 -37.96716,-19.074229 -1.15655,-0.300676 -2.10281,-1.008055 -2.10281,-1.571952 0,-1.99479 7.39149,-0.986283 15.56042,2.123089 4.54924,1.731598 13.17751,4.928627 19.17391,7.10451 5.9964,2.175884 11.66003,4.795765 12.58582,5.821959 1.53038,1.696339 1.55593,2.094155 0.28117,4.379865 -1.76208,3.159509 -4.50718,3.603005 -7.53135,1.216758 z M 628.50998,89.765625 626.0746,87.65625 627.52203,71.25 c 0.7961,-9.023438 1.72305,-21.785156 2.05991,-28.359375 0.33686,-6.574219 0.91191,-11.953125 1.27789,-11.953125 0.36597,0 1.5445,2.425781 2.61895,5.390625 1.75661,4.847193 1.96718,7.621476 2.08876,27.519742 0.11477,18.785159 -0.0945,22.574745 -1.38503,25.078125 -1.80986,3.510817 -2.47489,3.609253 -5.67253,0.839633 z m -102.55867,-2.8125 c -0.9742,-1.503882 -1.52139,-6.213273 -1.90623,-16.40625 L 523.50529,56.25 l 2.69098,0 c 2.31704,0 2.75594,0.4234 3.15845,3.046875 0.91723,5.978485 1.59082,24.803081 0.9755,27.262341 -0.76493,3.057296 -2.54957,3.217834 -4.37891,0.393909 z m -6.62622,-14.0625 c 0.87779,-22.91738 3.7637,-21.314213 3.95751,2.198449 0.0701,8.497597 -0.16508,10.157014 -1.62723,11.484375 -0.94001,0.853354 -1.98016,1.551551 -2.31144,1.551551 -0.33129,0 -0.33976,-6.855469 -0.0189,-15.234375 z m 63.49111,11.381308 -2.6978,-2.542712 1.12195,-13.911485 c 1.80897,-22.430069 1.93379,-25.73875 0.59551,-15.786486 -0.69337,5.15625 -1.55171,14.024121 -1.90742,19.70638 l -0.64674,10.33138 -3.28995,2.163349 -3.28994,2.16335 0.61431,-4.525979 c 0.33787,-2.489289 1.41598,-12.752543 2.3958,-22.80723 1.93592,-19.865945 2.2381,-22.160573 3.23618,-24.573687 0.86413,-2.089256 3.97739,-3.053246 5.57234,-1.725418 2.74812,2.28786 3.23536,8.622857 2.4082,31.310869 -0.44827,12.295533 -0.94994,22.44211 -1.11484,22.547948 -0.16489,0.105838 -1.5138,-0.951788 -2.9976,-2.350279 z m -63.19004,-38.75593 c 0,-10.892222 0.39854,-12.703503 2.79518,-12.703503 2.20656,0 5.28502,7.980566 6.0574,15.703125 l 0.58602,5.859375 -2.85014,0 -2.85015,0 -0.0538,-5.859375 c -0.0296,-3.222656 -0.39607,-7.546875 -0.81432,-9.609375 -0.48798,-2.406264 -0.58883,-0.360826 -0.28143,5.708261 0.41458,8.185735 0.27267,9.537701 -1.05484,10.048702 -1.36146,0.524064 -1.53389,-0.504243 -1.53389,-9.14721 z"
       id="path3506"
       inkscape:connector-curvature="0" />
    <path
       style="fill:#0000fe"
       d="m 273.36448,197.25434 c -11.98445,-2.69713 -19.15888,-7.06007 -19.15888,-11.65096 0,-2.01767 0.10069,-2.05257 1.7091,-0.59243 0.94001,0.85336 2.13651,1.55155 2.65889,1.55155 1.5276,0 4.28382,-3.53856 3.60915,-4.63358 -0.33945,-0.55096 1.38313,-0.25673 3.82796,0.65385 3.67892,1.37023 4.96958,2.53171 7.48763,6.7382 4.64539,7.76029 7.06448,8.36278 10.69492,2.66364 l 1.96095,-3.07836 -0.61524,2.8125 c -0.33838,1.54687 -1.11327,3.3203 -1.72196,3.94093 -1.24293,1.2673 -7.59861,2.23694 -10.45252,1.59466 z m 55.67262,-16.56503 c -4.27984,-2.18215 -4.55794,-8.62408 -0.8684,-20.11602 C 330.16338,154.36042 334.05271,150 337.59972,150 c 1.85809,0 1.87169,0.0783 0.31366,1.80525 -2.47733,2.74598 -1.41873,5.27985 3.01722,7.22201 0.15202,0.0666 -0.63432,2.00141 -1.74741,4.29965 -1.4571,3.00853 -3.19234,4.81228 -6.19681,6.44149 -6.82634,3.70166 -7.59042,8.1238 -1.84025,10.6504 1.63131,0.71678 2.33517,1.33145 1.56414,1.3659 -0.77103,0.0345 -2.42395,-0.45847 -3.67317,-1.09539 z M 36.171322,139.12693 c -1.998516,-2.68025 -3.166175,-2.80779 -5.596254,-0.61131 -1.790079,1.61801 -1.793749,1.58894 -0.266171,-2.10937 1.648794,-3.99177 1.822856,-4.19125 10.121557,-11.59992 7.726233,-6.8976 9.382941,-5.94506 1.94855,1.12033 l -6.236188,5.92667 1.129551,4.49987 c 0.621254,2.47493 1.005475,4.61818 0.853826,4.76277 -0.15165,0.14459 -1.031342,-0.75048 -1.954871,-1.98904 z m 173.496908,-0.21637 c 0.8507,-0.94295 1.54672,-2.14319 1.54672,-2.6672 0,-1.53237 -3.52753,-4.2972 -4.61915,-3.62043 -0.54924,0.34051 -0.25593,-1.38745 0.65182,-3.83992 1.36595,-3.69042 2.52382,-4.98511 6.71721,-7.51103 7.73611,-4.65991 8.33673,-7.08655 2.65533,-10.72834 l -3.06876,-1.96708 2.80374,0.61717 c 4.3621,0.96019 5.54071,2.72347 5.54071,8.28925 0,10.80861 -6.20189,23.14202 -11.63703,23.14202 -2.01139,0 -2.04618,-0.10101 -0.59059,-1.71444 z M 42.990653,134.49827 c 0,-2.43165 7.809032,-8.87327 10.756871,-8.87327 1.308225,0 -1.274104,2.91844 -5.326973,6.02032 -4.273231,3.27053 -5.429898,3.87825 -5.429898,2.85295 z m 87.850467,-16.31794 c 0,-0.48519 0.41575,-1.13992 0.92388,-1.45494 0.52977,-0.32845 0.68645,0.0479 0.3673,0.88217 -0.6213,1.62414 -1.29118,1.9213 -1.29118,0.57277 z m 503.00568,-2.89182 c -1.24506,-1.99989 -4.37532,-2.48275 -5.39247,-0.83183 -2.16226,3.50955 -3.71531,-6.16277 -2.78614,-17.352089 l 0.6681,-8.045554 2.37844,1.876731 c 3.17145,2.502458 3.70759,2.395672 5.87494,-1.170143 2.06409,-3.395933 2.234,-2.915443 0.91169,2.578125 -0.6024,2.502712 -0.5527,6.742153 0.14944,12.74597 1.13188,9.67846 0.41062,13.75604 -1.804,10.19879 z m -112.05937,-0.71257 c -2.36692,-1.50972 -3.0939,-6.00225 -2.50788,-15.497931 0.47553,-7.705286 0.95091,-9.946347 2.46457,-11.618343 l 1.87539,-2.071586 2.67623,2.873856 c 1.95627,2.100747 2.67621,3.815904 2.67621,6.375708 0,1.926028 0.62629,5.572816 1.39176,8.103986 1.77975,5.88515 1.76936,6.9374 -0.0429,4.34197 -1.58278,-2.26679 -4.98505,-2.74857 -6.76944,-0.9586 -1.71594,1.72131 -1.34062,4.61393 0.91057,7.0177 1.92821,2.05889 1.94015,2.16907 0.23365,2.15545 -0.98913,-0.008 -2.29782,-0.33289 -2.90818,-0.72221 z M 114.4463,108.71757 c -4.09033,-3.07407 -7.85752,-5.59155 -8.37154,-5.5944 -0.51401,-0.003 0.43225,-0.84115 2.10281,-1.86289 3.15618,-1.930383 3.87781,-4.414889 1.86916,-6.435399 -1.44385,-1.452374 8.51143,2.905725 13.97637,6.118409 3.37986,1.98692 7.7526,6.53068 7.7526,8.0558 0,0.23563 -1.13155,0.21141 -2.51456,-0.0538 -1.99169,-0.38193 -3.02019,0.12536 -4.94623,2.43966 l -2.43166,2.92184 -7.43695,-5.58923 z m 356.00508,0.96993 c 0.30823,-2.83594 0.56406,-7.78242 0.56852,-10.992188 l 0.008,-5.835937 2.66573,0.534811 c 2.15581,0.432511 3.07429,0.02454 4.80171,-2.132813 l 2.136,-2.667623 -0.81253,4.21875 c -0.88618,4.601147 -0.82636,14.96216 0.10793,18.69629 0.56432,2.25551 0.51808,2.28388 -1.19208,0.73138 -2.45017,-2.2243 -5.4314,-2.02213 -7.28771,0.49421 -1.50146,2.03532 -1.53642,1.92836 -0.9957,-3.04688 z m 108.98786,3.0849 c -0.77103,-0.28438 -2.17583,-1.19469 -3.1218,-2.02291 -1.58874,-1.391 -1.82067,-1.36763 -3.04088,0.30632 -1.02777,1.40994 -1.57,1.56234 -2.44299,0.68662 -0.873,-0.87572 -0.76755,-2.84131 0.47512,-8.85586 0.87844,-4.251679 1.59521,-9.494562 1.59283,-11.650857 -0.004,-3.259977 0.453,-4.247205 2.71003,-5.859375 3.55525,-2.539476 4.93595,-2.446436 7.90586,0.532753 2.88918,2.898217 2.86452,2.716112 1.06202,7.840909 -0.8182,2.326256 -1.40187,7.2545 -1.40187,11.83662 0,7.99631 -0.24807,8.47314 -3.73832,7.18578 z m -174.43549,-5.15553 c -2.72901,-1.37643 -4.47602,-3.162 -5.90819,-6.0386 -3.39597,-6.821029 -8.13863,-7.653492 -10.8092,-1.897298 l -1.38036,2.975278 0.53373,-2.8125 c 0.82454,-4.344956 2.61031,-5.558034 8.18192,-5.558034 10.77494,0 23.06993,6.221274 23.06993,11.673404 0,2.08605 -0.0506,2.09804 -1.87295,0.44368 -1.54758,-1.40491 -2.2782,-1.51507 -4.20561,-0.63414 -1.28296,0.58637 -2.33266,1.708 -2.33266,2.49249 0,1.81054 -0.54035,1.74456 -5.27661,-0.64428 z"
       id="path3502"
       inkscape:connector-curvature="0" />
    <path
       style="fill:#fe0000"
       d="m 248.59813,211.67063 c -1.28505,-0.55822 -3.91356,-1.78852 -5.84113,-2.734 -2.95159,-1.44775 -3.50467,-1.49948 -3.50467,-0.32783 0,2.39255 -1.80334,1.51802 -2.44751,-1.18693 -0.33768,-1.41796 -1.03646,-3.11565 -1.55285,-3.77265 -1.51837,-1.93179 -0.18319,-2.2958 3.90937,-1.0658 4.04175,1.21472 4.91971,2.37931 2.19379,2.91001 -2.5201,0.49063 7.98531,4.73435 12.85047,5.19102 5.41777,0.50854 15.1656,-1.82515 19.23566,-4.60514 1.74981,-1.19518 3.18435,-2.48947 3.18786,-2.87619 0.004,-0.38671 0.42695,-0.70312 0.94097,-0.70312 2.05333,0 0.71181,1.87504 -3.50468,4.89849 -6.50012,4.66094 -19.53766,6.848 -25.46728,4.27214 z m -25.78744,-68.46751 c 0.32933,-1.16015 0.85151,-3.26953 1.1604,-4.6875 0.67669,-3.10638 2.16629,-3.4133 2.27503,-0.46875 0.12915,3.49724 4.85877,-7.58748 5.29036,-12.39888 0.49095,-5.47323 -1.83728,-15.24299 -4.60384,-19.31876 -1.19146,-1.75528 -2.48171,-3.1943 -2.86722,-3.19783 -0.38552,-0.004 -0.70094,-0.42827 -0.70094,-0.9439 0,-2.05975 1.8692,-0.71404 4.88323,3.51563 3.21285,4.50867 5.39714,12.26323 5.39714,19.16069 0,3.3589 -1.63424,8.38348 -4.28778,13.18305 -1.28304,2.32068 -1.2801,2.57813 0.0293,2.57813 2.58813,0 1.54063,1.90463 -1.36848,2.48827 -1.55275,0.31153 -3.04953,0.93379 -3.32619,1.38282 -1.05961,1.71987 -2.46256,0.75554 -1.88105,-1.29297 z M 539.25232,70.613891 c -1.79906,-0.781361 -3.39503,-1.539315 -3.5466,-1.684341 -0.33412,-0.319689 5.3693,-6.11705 6.01792,-6.11705 0.25211,0 0.19142,0.84375 -0.13487,1.875 -0.72857,2.302694 1.04885,2.487472 3.99766,0.41559 2.31735,-1.628208 2.71279,-4.344287 0.85739,-5.888947 -3.80179,-3.16506 -23.48364,-3.586573 -32.90867,-0.704781 -6.73621,2.059661 -8.30152,3.469034 -8.30152,7.474539 0,3.502278 -0.8878,4.456465 -1.83721,1.974595 -1.10287,-2.882999 0.52769,-6.945779 3.49079,-8.697848 10.21143,-6.037973 35.37781,-6.431325 40.80362,-0.637762 2.89035,3.086263 1.89185,6.445577 -2.61139,8.785581 -2.85405,1.483044 -3.19239,1.931549 -1.85515,2.459241 1.87632,0.740424 2.21319,2.357609 0.46729,2.243316 -0.64253,-0.04206 -2.64019,-0.715771 -4.43926,-1.497133 z"
       id="path3500"
       inkscape:connector-curvature="0" />
    <path
       style="fill:#000000"
       d="m 14.719626,227.114 c 4.754673,-0.17015 8.644859,-0.42882 8.644859,-0.57481 0,-0.57493 7.359257,-36.85451 7.966585,-39.27357 l 0.647262,-2.57812 -12.718138,0 c -16.9497669,0 -16.8922774,-1.73694 0.06894,-2.08292 l 12.787075,-0.26083 1.303274,-5.89129 1.303275,-5.89129 -3.80998,-11.77101 c -2.095488,-6.47407 -3.809979,-12.772 -3.809979,-13.99542 0,-1.22342 0.853598,-4.51298 1.896885,-7.31013 1.546529,-4.14639 3.281178,-6.31734 9.391685,-11.75392 5.917333,-5.2647 8.124436,-6.67442 10.486293,-6.69782 2.528041,-0.025 3.384087,-0.67862 5.525626,-4.21875 1.393773,-2.30401 3.181156,-4.18912 3.971963,-4.18912 0.790805,0 1.437828,-0.37674 1.437828,-0.8372 0,-1.30172 -2.716134,-2.03308 -5.214452,-1.40408 -1.254218,0.31577 -2.262184,0.15526 -2.262184,-0.36024 0,-0.88213 2.96169,-2.04553 5.277731,-2.07318 0.589668,-0.007 2.449588,1.14736 4.133156,2.56533 8.668546,7.30099 9.082284,8.63633 4.263807,13.76137 -3.22568,3.4309 -6.712012,4.33244 -8.770139,2.26788 -0.812617,-0.81516 -1.353953,-0.46983 -2.206766,1.40775 -0.621508,1.36832 -3.421304,4.2232 -6.221769,6.34418 -5.44531,4.1241 -5.590541,4.67855 -3.362425,12.8367 0.457785,1.67616 0.156534,2.27879 -1.334692,2.66997 -4.204889,1.10305 -3.82028,10.15832 1.285798,30.27291 2.123462,8.36505 2.887438,12.92162 2.270294,13.5407 -1.385225,1.38955 -6.393364,-3.74804 -8.934597,-9.16556 l -2.148242,-4.5797 -0.965735,3.6422 c -0.531154,2.00323 -2.690183,12.29066 -4.797841,22.86097 -2.107659,10.57031 -4.046003,19.95703 -4.307434,20.85937 -0.447285,1.54384 1.816554,1.64063 38.372697,1.64063 21.366415,0 38.848034,-0.13528 38.848034,-0.30063 0,-0.59934 7.33641,-36.79868 7.96658,-39.30875 l 0.64727,-2.57812 -18.325625,0 c -11.330179,0 -18.325616,-0.35031 -18.325616,-0.91768 0,-0.55892 7.197757,-1.01706 18.41113,-1.17188 l 18.411131,-0.25419 3.56917,-16.74271 c 3.33916,-15.66378 3.47735,-16.92735 2.14432,-19.60781 -1.27784,-2.56949 -1.27703,-3.02894 0.007,-4.45311 1.36248,-1.51024 5.12,-18.25958 5.12,-22.8227 0,-2.30796 -2.40913,-4.51709 -13.55141,-12.4264 -5.608,-3.98082 -8.81044,-5.33965 -22.429906,-9.517245 -8.738317,-2.680369 -19.042055,-5.648367 -22.897195,-6.595558 -8.613301,-2.116248 -9.195612,-3.844754 -1.869159,-5.548328 3.871243,-0.900156 6.178414,-0.943968 9.345794,-0.177472 3.737971,0.904576 27.481738,5.922657 33.693116,7.120805 1.31158,0.252999 6.76168,2.639247 12.11133,5.302759 7.47506,3.721749 10.41346,5.748919 12.69369,8.757289 2.87708,3.79582 3.03233,3.86865 5.11974,2.40201 1.18397,-0.83187 3.65103,-1.79671 5.48235,-2.14408 l 3.32968,-0.63158 -3.03738,-1.15902 c -3.69309,-1.40923 -4.04485,-3.12452 -0.46729,-2.27867 3.37325,0.79754 4.04932,1.49927 5.51665,5.72608 2.74044,7.89412 1.31438,10.948 -5.86501,12.55969 -4.6099,1.03488 -5.39564,0.99743 -6.34304,-0.30227 -2.64846,-3.63329 -4.98011,2.06987 -11.00314,26.91332 -1.18274,4.87847 -8.37267,39.54674 -12.54077,60.46875 -1.79764,9.02344 -3.48625,17.14453 -3.75245,18.04687 -0.45188,1.53179 1.07027,1.64063 22.94347,1.64063 12.88544,0 23.42779,-0.13528 23.42779,-0.30063 0,-0.59934 7.33642,-36.79868 7.96659,-39.30875 l 0.64726,-2.57812 -9.9144,0 c -13.09643,0 -13.02438,-1.72882 0.0865,-2.07766 l 10.00099,-0.26609 3.5748,-16.77415 c 3.2218,-15.11778 3.43396,-16.93026 2.14854,-18.35507 -2.01192,-2.2301 -1.78249,-3.49966 0.95796,-5.30089 1.31132,-0.86189 3.00437,-2.77005 3.76232,-4.24036 0.75795,-1.4703 2.1184,-2.67328 3.02322,-2.67328 0.90481,0 9.52789,-5.88176 19.16241,-13.07059 9.63452,-7.18882 18.29048,-13.31675 19.23548,-13.61763 2.14663,-0.68344 5.82527,0.67006 7.57757,2.78805 1.88286,2.2758 1.66582,10.25385 -0.47162,17.33538 -2.10088,6.96054 -7.21347,13.12729 -10.88324,13.12729 -2.07082,0 -2.25642,0.31857 -1.91161,3.28125 0.4603,3.95512 1.27724,4.10597 3.80813,0.70312 1.75845,-2.36428 1.91996,-2.41521 1.94711,-0.61405 0.028,1.86196 -2.56675,5.06718 -4.10218,5.06718 -0.39247,0 -1.7829,0.84375 -3.08983,1.875 -3.07609,2.42722 -7.21843,2.38983 -9.68799,-0.0875 -1.53554,-1.54034 -1.88501,-2.86197 -1.62474,-6.14462 0.29361,-3.70317 0.13144,-4.12968 -1.41587,-3.72379 -0.96109,0.25213 -6.12036,1.42734 -11.46503,2.6116 -6.59149,1.46053 -9.86562,2.62108 -10.17777,3.60763 -0.54442,1.7207 -7.60678,35.79027 -12.24042,59.04913 -1.79765,9.02344 -3.48625,17.14453 -3.75245,18.04688 -0.45534,1.54348 1.75639,1.64062 37.35201,1.64062 l 37.836,0 0.94889,-4.45312 c 0.52189,-2.44922 1.4728,-7.31297 2.11313,-10.80834 1.13732,-6.20838 1.19053,-6.29244 2.30283,-3.63879 1.13732,2.71335 1.10804,2.96261 -1.972,16.79088 l -0.46983,2.10937 33.22937,0 33.22937,0 -0.26764,-69.84399 c -0.26559,-69.308426 -0.25331,-69.843982 1.60151,-69.84415 1.84839,-1.68e-4 1.86604,0.530812 1.58812,47.79045 l -0.28102,47.79063 32.008,-0.21208 32.00802,-0.21209 2.93802,-13.59375 c 1.61591,-7.47656 2.83039,-13.7334 2.69885,-13.90408 -0.51459,-0.66773 -5.112,2.40918 -17.22167,11.52595 -22.15978,16.68299 -20.59938,15.78297 -24.51689,14.14102 -6.16668,-2.58465 -5.58763,-6.93991 1.42851,-10.74449 3.00447,-1.62921 4.73971,-3.43296 6.19681,-6.44149 1.11309,-2.29824 1.89943,-4.23309 1.74741,-4.29965 -4.43595,-1.94216 -5.49455,-4.47603 -3.01722,-7.22201 1.55803,-1.72698 1.54443,-1.80525 -0.31366,-1.80525 -3.54701,0 -7.43634,4.36042 -9.43102,10.57329 -3.68954,11.49194 -3.41144,17.93387 0.8684,20.11602 1.45443,0.74155 1.73518,1.16302 0.78064,1.17187 -5.18697,0.0481 -6.49754,-9.67769 -2.80428,-20.81062 2.15359,-6.49177 6.81186,-11.98488 10.16859,-11.99097 1.29748,-0.002 1.60413,-0.88857 1.60898,-4.65005 l 0.006,-4.64716 -3.02937,2.94535 c -3.98859,3.87797 -5.2073,2.54562 -1.33621,-1.46081 2.68164,-2.7754 3.58144,-3.1162 8.59339,-3.25476 7.18233,-0.19856 9.67349,1.82903 9.14013,7.4393 -0.40622,4.27295 -1.80448,4.25403 14.97415,0.20254 5.31436,-1.28324 10.26549,-2.10105 11.00251,-1.81735 2.19484,0.84488 2.57198,3.31535 0.80508,5.27385 -1.64968,1.82857 -2.76925,6.73374 -12.19041,53.4095 -2.34169,11.60156 -4.46966,21.83203 -4.72882,22.73437 -0.43945,1.53015 1.04345,1.64063 22.0217,1.64063 12.37146,0 22.49326,-0.13528 22.49326,-0.30063 0,-0.59934 7.33641,-36.79868 7.96659,-39.30875 l 0.64726,-2.57812 -12.25085,0 c -16.31116,0 -16.24608,-1.73581 0.078,-2.08216 l 12.32892,-0.26159 3.12399,-14.0625 c 1.7182,-7.73438 3.14827,-16.48828 3.17793,-19.45313 0.0296,-2.96484 0.43567,-5.39062 0.90223,-5.39062 1.41364,0 0.97881,-3.3411 -1.94871,-14.97325 -1.99932,-7.94406 -2.63847,-12.27388 -2.24109,-15.18206 0.45634,-3.33983 0.21607,-4.37698 -1.34163,-5.79107 -4.3154,-3.9176 -8.79619,2.80988 -5.36759,8.05893 1.53672,2.35266 7.51546,22.12177 8.83817,29.224 l 0.72921,3.91552 -3.8731,-3.7979 c -2.1302,-2.08886 -4.13209,-4.48969 -4.44863,-5.33519 -0.31656,-0.84549 -6.01383,-8.86111 -12.66062,-17.8125 -13.89975,-18.71909 -14.46542,-19.65896 -13.69217,-22.749492 1.47269,-5.885984 8.71785,-7.2746 20.02975,-3.838932 6.68246,2.029613 13.08639,7.250944 13.08639,10.669774 0,1.78732 0.25106,1.91836 1.93912,1.0121 1.14606,-0.61526 3.46922,-0.78171 5.68033,-0.40697 l 3.7412,0.63404 -1.45506,-2.82255 c -0.80027,-1.5524 -1.9896,-3.01385 -2.64294,-3.24765 -0.65333,-0.23381 -0.93266,-0.70373 -0.62072,-1.044266 1.02037,-1.113909 3.13903,0.335396 4.82775,3.302476 1.31592,2.31207 1.42411,3.19166 0.52608,4.27711 -0.6218,0.75156 -1.0254,3.35358 -0.89689,5.78226 0.30604,5.78417 -1.85541,7.99158 -7.31389,7.4694 -2.08174,-0.19914 -3.77655,-0.13999 -3.76625,0.13144 0.0103,0.27145 1.05328,4.50134 2.31772,9.39978 1.26444,4.89844 2.30741,9.85547 2.31772,11.01562 0.0103,1.16016 0.49432,2.10938 1.07559,2.10938 1.26335,0 1.29088,-0.17008 -4.32418,26.71875 -2.36885,11.34375 -5.77781,28.00781 -7.57547,37.03125 -1.79764,9.02344 -3.48625,17.14453 -3.75245,18.04687 -0.4513,1.52983 1.00352,1.64063 21.5416,1.64063 12.11411,0 22.02563,-0.13528 22.02563,-0.30063 0,-0.59934 7.33641,-36.79868 7.96659,-39.30875 l 0.64726,-2.57812 -11.31627,0 c -15.02799,0 -14.95611,-1.73326 0.0863,-2.08052 l 11.40255,-0.26323 3.5684,-16.74271 c 3.36207,-15.7746 3.48452,-16.91139 2.11767,-19.65987 -1.3554,-2.72545 -1.332,-3.01139 0.35618,-4.35104 2.71524,-2.15468 4.48797,-18.80597 2.59034,-24.33111 -1.01512,-2.95561 -1.22298,-6.69497 -0.83805,-15.07594 l 0.51191,-11.145428 -17.66366,-8.72195 c -9.715,-4.797074 -18.71275,-9.143827 -19.995,-9.659452 -1.28227,-0.515625 -2.33138,-1.570313 -2.33138,-2.34375 0,-1.741528 6.05892,-2.415456 9.6652,-1.075052 1.36638,0.507865 10.01623,3.689247 19.22188,7.069739 9.20564,3.380492 17.70018,7.053533 18.87675,8.162314 2.77646,2.616496 3.53487,6.317407 2.26447,11.050077 -0.5987,2.23035 -0.7628,6.324002 -0.39708,9.904942 0.58282,5.70639 0.83467,6.22851 3.87125,8.02574 1.79593,1.06294 4.01518,1.67798 4.9643,1.37581 1.25302,-0.39894 2.10802,0.21316 3.16688,2.26716 1.65717,3.21464 1.76624,3.84427 0.6659,3.84427 -0.43151,0 -1.27443,-1.07847 -1.87314,-2.39662 -1.33103,-2.93041 -2.94977,-2.17906 -2.94977,1.36915 0,3.45003 -2.65142,5.71497 -6.69013,5.71497 l -3.27193,0 -1.56103,7.28705 c -0.85856,4.00787 -1.56103,7.95087 -1.56103,8.76221 0,0.81134 -0.59651,2.70014 -1.32558,4.19733 -1.22928,2.5244 -5.18671,20.83168 -13.2545,61.31591 -1.79821,9.02344 -3.48727,17.14453 -3.75347,18.04687 -0.4515,1.53051 1.02577,1.64063 22.00889,1.64063 12.37109,0 22.49289,-0.13528 22.49289,-0.30063 0,-0.59934 7.33641,-36.79868 7.96659,-39.30875 l 0.64726,-2.57812 -11.31627,0 c -15.02811,0 -14.95607,-1.73327 0.0865,-2.08052 l 11.40274,-0.26323 3.45308,-16.20449 c 2.9202,-13.70389 3.29541,-16.7198 2.43139,-19.54382 -0.91064,-2.97643 -0.80359,-3.50778 0.98508,-4.88926 2.00114,-1.54558 2.0065,-1.66499 1.91336,-42.581014 -0.0514,-22.567092 0.23821,-41.340529 0.64353,-41.718748 0.40532,-0.378217 0.4837,6.378738 0.1742,15.015457 -0.30951,8.636719 -0.22259,15.703125 0.19315,15.703125 0.41574,0 1.51582,-0.842334 2.44461,-1.871854 1.5188,-1.683494 1.64311,-3.31082 1.23528,-16.171875 -0.24939,-7.865012 -0.13985,-12.190646 0.24343,-9.612521 0.38327,2.578125 0.7337,9.026561 0.77872,14.329859 0.061,7.189731 0.4658,10.230126 1.59124,11.953125 1.9665,3.01064 3.73926,2.935163 4.52181,-0.192518 0.58725,-2.347098 -0.01,-20.225088 -0.91793,-27.496716 -0.31866,-2.55086 -0.2229,-2.841406 0.43016,-1.305269 1.08856,2.560531 1.50451,27.401919 0.57299,34.219482 -0.52627,3.851537 -0.31484,6.650612 0.79041,10.464417 0.82986,2.86355 1.25257,5.87637 0.93935,6.69517 -0.59243,1.54865 0.75971,1.97055 5.08445,1.58642 3.063,-0.27206 4.82641,1.51534 4.82641,4.89207 0,3.03691 -1.42767,2.54494 -2.01209,-0.69335 -0.17839,-0.98853 -0.74492,-1.93795 -1.25894,-2.10983 -1.48624,-0.497 -0.80085,12.83746 0.86186,16.76765 1.96303,4.64006 1.85963,7.5931 -0.33568,9.58602 -2.39322,2.17261 -4.12603,0.99959 -3.45977,-2.34209 0.28916,-1.4503 -0.12857,-4.56319 -0.92828,-6.91755 -1.23446,-3.63428 -1.82883,-4.28281 -3.93626,-4.29499 -1.36523,-0.008 -3.11308,-0.41448 -3.88411,-0.90352 -1.15768,-0.73428 -1.59533,0.12557 -2.51247,4.93623 -0.61082,3.20396 -1.13652,7.39443 -1.16822,9.31215 -0.0317,1.91771 -0.90104,5.10992 -1.93187,7.09379 -1.73432,3.33777 -5.39414,19.74037 -13.64144,61.1382 -1.79764,9.02344 -3.48625,17.14453 -3.75245,18.04687 -0.45374,1.53811 1.35955,1.64063 29.01824,1.64063 16.22623,0 29.50223,-0.13528 29.50223,-0.30063 0,-0.59934 7.33641,-36.79868 7.96659,-39.30875 l 0.64726,-2.57812 -11.31627,0 c -15.02811,0 -14.95607,-1.73327 0.0865,-2.08052 l 11.40274,-0.26323 3.45373,-16.20757 c 3.29514,-15.46334 3.54767,-18.93524 1.56273,-21.48574 -1.03969,-1.33593 -0.1757,-3.08794 1.52279,-3.08794 1.33032,0 3.58411,-10.81913 3.22238,-15.46875 -0.21006,-2.70003 -0.39658,-2.8125 -4.66399,-2.8125 -5.10364,0 -4.61146,1.69063 0.52508,1.80365 1.78386,0.0393 2.88782,0.43043 2.45323,0.86931 -1.23641,1.24866 -6.44204,-0.28003 -7.8577,-2.30749 -1.22473,-1.75401 -1.32667,-1.71109 -2.46105,1.0361 -0.97831,2.36922 -0.93547,3.87715 0.24721,8.70092 1.37784,5.61983 0.97919,8.17876 -1.27415,8.17876 -1.51116,0 -3.51747,-5.29249 -4.1096,-10.8408 -0.50025,-4.68742 -0.21114,-6.52683 1.83257,-11.6592 3.35556,-8.42681 5.17432,-17.33881 6.1224,-30 2.02211,-27.004128 4.8115,-51.956713 6.08405,-54.425263 2.92063,-5.665528 7.84075,-4.05517 9.63906,3.154875 1.43512,5.753895 -0.32169,50.650719 -2.1898,55.96205 -1.83156,5.207429 -1.78124,17.104718 0.0951,22.495838 1.06535,3.06086 1.30444,5.89125 0.87114,10.3125 -0.77109,7.86806 -2.44531,17.08492 -3.32075,18.28125 -1.2503,1.7086 -4.41697,16.20104 -13.62245,62.34375 -1.80017,9.02344 -3.49084,17.14453 -3.75703,18.04687 -0.45189,1.53179 1.07027,1.64063 22.94346,1.64063 12.88513,0 23.42749,-0.13528 23.42749,-0.30063 0,-0.59934 7.33641,-36.79868 7.96659,-39.30875 l 0.64726,-2.57812 -11.31627,0 c -15.02811,0 -14.95607,-1.73327 0.0865,-2.08052 l 11.40276,-0.26323 3.49897,-16.40625 c 3.21038,-15.05305 3.3868,-16.63238 2.13895,-19.14795 -1.2519,-2.52371 -1.20536,-2.90686 0.58538,-4.81898 1.75924,-1.87847 1.90417,-2.91699 1.51442,-10.85205 -0.48524,-9.87951 -1.31504,-14.71872 -2.85688,-16.66095 -1.48101,-1.8656 -1.14844,-21.07569 0.74799,-43.20757 0.86157,-10.054688 1.86071,-23.34375 2.22029,-29.53125 0.76677,-13.193684 2.06081,-14.576683 5.44312,-5.817319 1.9695,5.10052 2.11158,7.024172 2.32393,31.462278 0.1244,14.316278 -0.0766,26.521085 -0.44674,27.121807 -0.37011,0.600712 -0.15838,5.532534 0.47051,10.959594 1.2283,10.59981 1.13872,10.47108 6.96044,10.00207 2.17557,-0.17527 4.51174,2.06491 5.48115,5.25594 0.85831,2.82533 -0.76474,2.68287 -2.67023,-0.23437 -2.16697,-3.31754 -3.3303,-2.90527 -2.70521,0.95871 0.72731,4.49594 -1.56947,7.01004 -6.40409,7.01004 l -3.59346,0 0,6.97592 c 0,3.83676 -0.3741,7.20785 -0.83132,7.49131 -0.45723,0.28347 -1.03731,1.89039 -1.28908,3.57095 -0.25176,1.68057 -2.42302,12.33682 -4.825,23.68057 -2.40199,11.34375 -5.83805,28.00781 -7.63571,37.03125 -1.79764,9.02344 -3.48306,17.13446 -3.74537,18.0245 -0.43659,1.48142 0.89095,1.64195 15.70048,1.89864 8.89757,0.15422 -128.07494,0.28767 -304.38334,0.29656 C 150.3271,227.41564 9.964953,227.28414 14.719626,227.114 Z M 358.8785,226.57437 c 0,-0.59934 7.33641,-36.79868 7.96658,-39.30875 l 0.64727,-2.57812 -31.87702,0 -31.87702,0 0,21.09375 0,21.09375 27.57009,0 c 15.16355,0 27.5701,-0.13528 27.5701,-0.30063 z M 47.66355,190.9513 c 0,-0.16428 -1.468045,-5.96507 -3.262324,-12.89062 -1.794277,-6.92557 -3.26624,-13.83646 -3.271028,-15.35756 -0.01423,-4.5228 -1.577592,-1.57073 -3.059801,5.77781 -1.317347,6.53118 -1.290319,6.94387 0.791207,12.08136 2.013457,4.96948 6.316272,10.68771 8.042218,10.68771 0.417851,0 0.759728,-0.13442 0.759728,-0.2987 z m 304.71322,-22.75129 c 9.37732,-7.00562 18.04086,-13.19053 19.25232,-13.74423 1.21147,-0.55371 2.26809,-1.67731 2.34802,-2.49689 0.17401,-1.78391 -0.18471,-6.06087 -0.53806,-6.41533 -0.13799,-0.13843 -5.78968,1.00968 -12.55928,2.55136 -8.40986,1.91521 -13.56301,2.63053 -16.26948,2.25841 -3.2257,-0.44352 -4.27949,-0.19171 -5.67603,1.35627 -0.94321,1.04549 -1.55735,2.67056 -1.36476,3.61128 0.53116,2.59445 5.80659,1.98471 21.04813,-2.43277 7.25967,-2.10409 13.75787,-3.79127 14.44042,-3.7493 0.68255,0.042 -1.07208,0.78116 -3.89918,1.64262 -2.8271,0.86148 -6.82243,2.65059 -8.8785,3.9758 -2.05608,1.32522 -7.10281,4.27578 -11.21496,6.5568 -4.11215,2.28103 -8.17032,4.57086 -9.01815,5.08852 -0.84784,0.51766 -3.68131,2.20507 -6.29659,3.7498 -4.98658,2.94534 -6.08031,4.39827 -5.26076,6.98852 0.4105,1.29742 3.77473,3.29386 6.22972,3.6969 0.33411,0.0548 8.27982,-5.63214 17.65714,-12.63776 z M 37.609916,144.22274 c -2.133476,-6.34626 -4.032745,-7.55403 -7.194082,-4.57482 -3.164451,2.98213 -3.037255,5.0612 1.109371,18.13315 l 3.509139,11.06232 2.102091,-9.88809 c 2.045103,-9.62002 2.057939,-10.01942 0.473481,-14.73256 z m 313.085654,15.22501 c 5.00874,-2.79593 8.93921,-5.2516 8.73438,-5.45707 -0.20482,-0.20546 -3.29682,0.50009 -6.8711,1.56788 -3.57428,1.06779 -7.18078,1.94144 -8.01446,1.94144 -0.83366,0 -2.39235,1.72363 -3.46374,3.8303 -2.40244,4.7239 -2.12165,4.66892 9.61492,-1.88255 z m 0.13901,-10.93068 c 0.7275,-1.90175 0.73409,-5.07957 0.0105,-5.07957 -1.33518,0 -5.98531,3.31328 -5.98531,4.26463 0,2.61759 5.0231,3.30272 5.97477,0.81494 z m 28.40631,-2.39524 c -0.23332,-0.70214 -0.65695,-0.27717 -0.98743,0.99052 -0.40652,1.55939 -0.28489,1.92542 0.40863,1.22973 0.54309,-0.54478 0.80355,-1.5439 0.5788,-2.22025 z M 202.61682,147 c 1.60228,-1.60729 1.38546,-5.13529 -0.35682,-5.80595 -4.11849,-1.58536 -5.99832,-0.12373 -5.99832,4.66388 0,1.85798 0.47219,2.26707 2.61682,2.26707 1.43925,0 3.1215,-0.50625 3.73832,-1.125 z M 44.859812,146.9528 c 0,-0.12911 -0.608807,-3.15361 -1.352905,-6.72114 -1.300004,-6.23277 -1.275904,-6.59488 0.616333,-9.26058 1.083081,-1.5258 4.258213,-3.82539 7.055849,-5.11019 l 5.08661,-2.33601 -1.967773,-1.97392 c -1.93148,-1.93752 -2.025944,-1.9425 -5.121598,-0.27017 -1.734603,0.93706 -5.155622,3.74247 -7.602264,6.23422 l -4.44844,4.53047 1.105438,4.4038 c 0.607989,2.4221 0.923613,4.58621 0.701383,4.80913 -0.22223,0.22292 -0.93358,-1.80889 -1.580777,-4.51514 l -1.176722,-4.92046 6.220122,-5.91139 c 7.42281,-7.05439 5.75208,-7.99416 -1.964614,-1.10507 -8.298701,7.40867 -8.472763,7.60815 -10.121557,11.59992 -1.527578,3.69831 -1.523908,3.72738 0.266171,2.10938 2.577987,-2.33018 3.580147,-2.07345 6.404182,1.64062 1.372214,1.80469 3.28614,3.28125 4.253169,3.28125 1.135181,0 1.758234,0.66443 1.758234,1.875 0,1.03125 0.420561,1.875 0.93458,1.875 0.514018,0 0.934579,-0.10563 0.934579,-0.23472 z m 125.700928,-3.5153 c 1.19938,0 2.35194,0.51534 2.56124,1.14521 0.28109,0.84591 3.78676,0.35066 13.41331,-1.89489 8.53433,-1.99076 14.07129,-2.83175 16.04156,-2.43646 5.06349,1.01586 9.76026,-3.30951 6.52151,-6.00582 -1.41651,-1.17928 -9.37316,0.35172 -23.92089,4.6028 -5.40637,1.57983 -11.50462,3.15924 -13.55167,3.50979 -2.04706,0.35055 -3.82856,1.16923 -3.95891,1.8193 -0.13034,0.65007 -0.0232,0.74952 0.23809,0.22101 0.2613,-0.52852 1.45639,-0.96094 2.65576,-0.96094 z m 247.59218,-4.83773 c -0.88935,-3.26894 -2.13814,-6.57633 -2.7751,-7.34977 -0.63695,-0.77344 -3.58106,-5.83594 -6.54246,-11.25 -2.96142,-5.41406 -6.7917,-12.02462 -8.51174,-14.69013 -1.72005,-2.6655 -3.12737,-5.28738 -3.12737,-5.826383 0,-1.493409 -3.58879,-3.09494 -5.54187,-2.473125 -1.71226,0.545147 -2.83178,3.070728 -2.85659,6.444288 -0.007,0.95474 5.48553,9.12236 12.20565,18.15024 6.72012,9.02788 12.46282,17.1061 12.76156,17.95159 0.55515,1.57119 5.14686,5.83095 5.6994,5.28737 0.16805,-0.16532 -0.42212,-2.97515 -1.31148,-6.24408 z m 104.45813,-0.13235 c 0.38945,-3.19615 0.98168,-9.41059 1.31606,-13.80987 0.60602,-7.97307 0.6001,-8.00231 -1.8465,-9.12053 l -2.45445,-1.12182 0,13.09695 c 0,12.08165 -0.14491,13.18774 -1.86916,14.26792 -1.02804,0.64402 -1.86916,1.46333 -1.86916,1.82067 0,0.67252 4.80367,1.51741 5.57765,0.98102 0.24061,-0.16675 0.75611,-2.9182 1.14556,-6.11434 z m 108.4637,4.59919 c 1.32753,-0.41215 1.639,-1.61668 1.65403,-6.39657 0.0102,-3.23883 0.43249,-8.76091 0.93845,-12.27129 1.06557,-7.39282 0.13962,-10.31219 -3.123,-9.84626 -1.76551,0.25212 -2.00154,0.79517 -1.75656,4.04126 1.37561,18.22787 1.27582,21.59815 -0.69247,23.385 -2.35208,2.13526 -2.53358,3.67491 -0.29148,2.47263 0.89954,-0.48235 2.3715,-1.1055 3.27103,-1.38477 z m -505.38772,-9.79936 c 1.38409,-5.4923 3.52744,-12.47777 4.763,-15.52326 2.46478,-6.07536 1.97129,-8.05649 -2.0068,-8.05649 -3.10055,0 -5.15556,3.37683 -4.53277,7.44833 0.65131,4.258 -2.8464,22.31489 -4.7261,24.39842 -2.01051,2.22853 -1.80336,2.57137 1.27939,2.11751 2.59661,-0.3823 2.80915,-0.80486 5.22328,-10.38451 z m 348.14473,8.75531 c 0,-1.03603 1.328,-7.78603 2.95112,-15 1.87259,-8.32281 2.82902,-14.82941 2.61706,-17.80381 -0.35411,-4.96903 -0.30535,-9.17098 0.19735,-17.009595 0.42397,-6.611091 -0.9389,-7.833946 -14.02185,-12.581287 -5.9964,-2.175883 -14.62467,-5.372912 -19.17391,-7.10451 -8.16893,-3.109372 -15.56042,-4.117879 -15.56042,-2.123089 0,0.563897 0.94626,1.271276 2.10281,1.571952 3.13986,0.8163 35.26732,16.943897 37.91433,19.032538 3.01092,2.375791 5.33751,2.285726 7.12613,-0.275858 0.80017,-1.145981 1.45486,-1.633241 1.45486,-1.082802 0,2.029261 -3.61755,4.337573 -5.898,3.763426 -2.23124,-0.561756 -2.2359,-0.545604 -2.77054,9.620655 -0.39997,7.60546 -0.19348,11.17932 0.81571,14.11765 1.93749,5.6412 0.0284,24.10149 -2.57827,24.93141 -2.77724,0.88421 -1.97606,1.82701 1.5526,1.82701 2.65301,0 3.27102,-0.3559 3.27102,-1.88369 z m -2.77531,-28.16318 c -0.0913,-3.16286 5.45267,-4.33745 7.52235,-1.59375 1.05285,1.39572 1.04203,1.46569 -0.0725,0.46875 -1.89077,-1.69132 -5.36064,-1.43988 -6.46885,0.46875 -0.52394,0.90234 -0.96539,1.19765 -0.98102,0.65625 z m 112.89061,24.18749 c 2.11998,-12.55135 2.28138,-17.36042 0.73152,-21.79687 -1.88312,-5.39033 -1.9355,-17.278978 -0.0992,-22.5 1.8025,-5.124797 1.82716,-4.942692 -1.06202,-7.840909 -2.96991,-2.979189 -4.35061,-3.072229 -7.90586,-0.532753 -2.27099,1.622142 -2.71437,2.593122 -2.71437,5.944411 0,5.748067 -3.27463,20.622081 -6.10758,27.741751 -2.0279,5.09647 -2.32931,6.9886 -1.84176,11.56162 0.65979,6.18859 2.18022,10.21118 3.67113,9.71266 1.24289,-0.41559 1.23057,-0.74188 -0.28549,-7.56143 -1.06432,-4.7876 -1.03097,-5.94952 0.25567,-8.90625 0.81382,-1.87019 1.59035,-5.36375 1.72563,-7.76347 0.13527,-2.3997 0.58936,-4.15043 1.00907,-3.89049 0.41972,0.25994 1.328,-0.30231 2.0184,-1.24944 1.17212,-1.60798 1.3692,-1.61904 2.97519,-0.16692 0.94597,0.85532 2.8386,1.83514 4.20586,2.17738 2.47759,0.62014 2.48471,0.64791 2.12171,8.27616 -0.57411,12.06385 -2.3041,20.49435 -4.31377,21.02153 -2.82413,0.74084 -1.90118,2.10115 1.42562,2.10115 l 3.12134,0 1.06886,-6.32813 z m -405.97099,1.96568 c 3.11783,-0.85247 6.29963,-2.06578 7.07065,-2.69624 1.33075,-1.08813 21.4342,-12.62881 21.99895,-12.62881 0.42439,0 10.11858,-6.36478 11.41227,-7.4928 1.96866,-1.71656 1.31283,-3.69631 -1.86916,-5.64248 -1.67056,-1.02174 -2.53513,-1.85929 -1.92127,-1.86121 0.61386,-0.002 2.27831,0.9993 3.69877,2.22495 3.45515,2.98128 2.38955,5.27081 -4.33781,9.32001 -4.26085,2.56462 -5.41014,3.84377 -6.78085,7.54704 -0.90775,2.45247 -1.20106,4.18043 -0.65182,3.83992 1.09162,-0.67677 4.61915,2.08806 4.61915,3.62043 0,0.52402 -0.69602,1.72425 -1.54672,2.6672 -1.45559,1.61343 -1.4208,1.71444 0.59059,1.71444 6.21365,0 13.85622,-17.87692 11.42253,-26.71875 -0.87277,-3.17084 -4.82113,-5.59219 -7.65017,-4.69147 -1.00461,0.31984 -9.70936,6.46331 -19.34389,13.65213 -9.63451,7.18883 -18.16326,13.07326 -18.95276,13.07652 -0.78951,0.003 -2.15189,1.26888 -3.02752,2.8125 -1.86399,3.28598 -2.01842,3.24915 5.26906,1.25662 z m 361.08934,-1.45005 c 1.8638,-1.86963 1.31235,-4.7569 -3.09159,-16.1872 -6.02338,-15.63348 -6.60185,-16.6107 -9.6254,-16.26053 -4.03383,0.4672 -3.82303,3.85616 0.53489,8.59871 5.25909,5.72327 10.05741,15.91785 9.86306,20.9552 -0.1601,4.14978 0.38674,4.83216 2.31904,2.89382 z m -341.96296,-3.84744 c 7.60904,-1.99558 7.88738,-2.16677 9.06323,-5.57443 0.6672,-1.9336 1.07875,-3.51563 0.91455,-3.51563 -0.38319,0 -18.63424,10.35446 -19.15189,10.86553 -0.69256,0.68378 1.17584,0.32218 9.17411,-1.77547 z M 48.420551,131.64532 c 4.052869,-3.10188 6.635198,-6.02032 5.326973,-6.02032 -1.766194,0 -7.901962,4.00077 -9.21224,6.00676 -2.91646,4.46499 -1.935388,4.46841 3.885267,0.0136 z m 365.162269,-9.05438 c -0.81459,-2.81083 -2.08778,-5.91477 -2.82932,-6.89765 -0.74155,-0.98287 -1.36164,-2.51448 -1.378,-3.40359 -0.0273,-1.48474 -5.63719,-5.34562 -5.63719,-3.87967 0,1.10064 10.56113,20.05833 10.95447,19.66377 0.20411,-0.20475 -0.29538,-2.67204 -1.10996,-5.48286 z m 224.7052,2.33094 c -0.0163,-1.41797 -0.59746,-3.32881 -1.29134,-4.24631 -1.13351,-1.49878 -1.32029,-1.51479 -1.83943,-0.15769 -0.31781,0.83076 -0.57783,2.74159 -0.57783,4.2463 0,2.11082 0.42701,2.73582 1.86916,2.73582 1.42324,0 1.86207,-0.61507 1.83944,-2.57812 z m -573.768814,-1.94786 2.109459,-1.71347 -2.851128,-2.03653 c -3.711238,-2.65088 -6.605638,-2.62324 -7.629375,0.0729 -1.714971,4.51653 4.160374,7.0974 8.371044,3.67714 z m 418.658354,-0.0945 c 0,-0.99443 -0.7124,-2.52268 -1.58312,-3.39611 -1.48778,-1.49242 -1.62454,-1.48234 -2.27076,0.16741 -1.37919,3.52092 -0.92251,5.03673 1.51743,5.03673 1.68455,0 2.33645,-0.50447 2.33645,-1.80803 z m 47.59461,-1.70759 c -1.14979,-1.9336 -3.49717,-5.00998 -5.21641,-6.8364 -3.24278,-3.44499 -3.93369,-6.27513 -2.00437,-8.21048 1.78439,-1.78997 5.18666,-1.30819 6.76944,0.9586 1.81224,2.59543 1.82263,1.54318 0.0429,-4.34197 -0.76549,-2.53117 -1.39178,-6.177958 -1.39178,-8.103986 0,-2.559804 -0.71994,-4.274961 -2.67621,-6.375708 l -2.67623,-2.873856 -1.87539,2.071586 c -1.51176,1.669903 -1.9888,3.909811 -2.46023,11.551837 -0.6984,11.321267 0.27412,15.209207 3.99091,15.954877 2.19518,0.44041 2.45669,0.87365 2.14483,3.55328 -0.4234,3.63807 1.66723,6.16784 5.09717,6.16784 l 2.34592,0 -2.09055,-3.51562 z m -390.77096,-1.744 c 2.1259,-0.4265 2.71413,-0.96337 2.31122,-2.10937 -1.029,-2.92678 -3.36112,-4.81851 -5.94024,-4.81851 -1.97243,0 -2.9412,0.70534 -4.06075,2.95654 -1.81171,3.643 -1.8875,4.53663 -0.18688,2.20364 1.23917,-1.69997 1.30581,-1.68998 1.93214,0.28956 0.69218,2.18773 1.45822,2.37821 5.94451,1.47814 z m 285.23243,0.0136 c 0,-1.72539 -3.453,-6.01657 -4.65652,-5.78684 -1.83058,0.34943 -2.4291,4.48539 -0.79908,5.52182 1.42938,0.90885 5.4556,1.10444 5.4556,0.26502 z m 210.41716,-14.3518 c -0.70214,-6.003817 -0.75184,-10.243258 -0.14944,-12.74597 1.32231,-5.493568 1.1524,-5.974058 -0.91169,-2.578125 -2.16735,3.565815 -2.70349,3.672601 -5.87494,1.170143 l -2.37844,-1.876731 -0.6681,8.045554 c -0.92917,11.189319 0.62388,20.861639 2.78614,17.352089 1.01715,-1.65092 4.14741,-1.16806 5.39247,0.83183 2.21462,3.55725 2.93588,-0.52033 1.804,-10.19879 z m -506.38966,3.85558 c 3.08758,0.59207 3.10665,0.29164 0.22236,-3.50168 -2.4385,-3.20704 -17.27136,-11.230476 -20.33388,-10.999064 -1.07862,0.08147 -1.47728,-0.283659 -1.07606,-0.985669 0.35053,-0.613325 0.3216,-0.830902 -0.0643,-0.483503 -0.3859,0.347398 -2.26781,0.07732 -4.18205,-0.600169 -1.91423,-0.677491 -8.289764,-2.146356 -14.16784,-3.264144 -5.87808,-1.117789 -13.049984,-2.637764 -15.937563,-3.377724 -4.199096,-1.076042 -6.303943,-1.133085 -10.514019,-0.284939 -2.895121,0.583242 -5.263864,1.336076 -5.263864,1.672963 0,0.336887 2.927715,1.301764 6.506033,2.144172 3.578318,0.842407 14.334357,3.936742 23.902309,6.876301 14.907824,4.580116 17.735244,5.189716 19.765934,4.261586 1.82926,-0.836074 2.27023,-1.604861 1.93363,-3.37113 -0.23981,-1.258434 -0.0762,-2.064994 0.36355,-1.79235 1.81147,1.12305 0.64694,4.255959 -2.23781,6.02032 -1.67056,1.02175 -2.61682,1.86005 -2.10281,1.8629 0.51402,0.003 4.28121,2.52033 8.37154,5.5944 l 7.43695,5.58923 2.43166,-2.92184 c 1.92604,-2.3143 2.95454,-2.82159 4.94623,-2.43966 z m 281.01922,-0.68415 c 0,-0.78449 1.0497,-1.90612 2.33266,-2.49249 1.92741,-0.88093 2.65803,-0.77077 4.20561,0.63414 1.82234,1.65436 1.87295,1.64237 1.87295,-0.44368 0,-5.45213 -12.29499,-11.673404 -23.06993,-11.673404 -5.57161,0 -7.35738,1.213078 -8.18192,5.558034 l -0.53373,2.8125 1.38036,-2.975278 c 2.67057,-5.756194 7.41323,-4.923731 10.8092,1.897298 1.43217,2.8766 3.17918,4.66217 5.90819,6.0386 4.73626,2.38884 5.27661,2.45482 5.27661,0.64428 z M 634.18251,88.925992 c 1.29051,-2.50338 1.4998,-6.292966 1.38503,-25.078125 -0.12158,-19.898266 -0.33215,-22.672549 -2.08876,-27.519742 -1.07445,-2.964844 -2.25298,-5.390625 -2.61895,-5.390625 -0.36598,0 -0.94103,5.378906 -1.27789,11.953125 -0.33686,6.574219 -1.26381,19.335937 -2.05991,28.359375 l -1.44743,16.40625 2.43538,2.109375 c 3.19764,2.76962 3.86267,2.671184 5.67253,-0.839633 z M 586.92864,64.074264 c 0.82716,-22.688012 0.33992,-29.023009 -2.4082,-31.310869 -1.85047,-1.540559 -4.73447,-0.245465 -5.91991,2.658406 -0.57185,1.400822 -1.87508,11.617261 -2.89606,22.703199 -1.02098,11.085937 -2.12389,21.988343 -2.45092,24.227568 l -0.59459,4.071319 3.31136,-2.177439 3.31138,-2.177438 0.64674,-10.33138 c 0.35571,-5.682259 1.21405,-14.55013 1.90742,-19.70638 1.33828,-9.952264 1.21346,-6.643583 -0.59551,15.786486 l -1.12195,13.911485 2.6978,2.542712 c 1.4838,1.398491 2.83271,2.456117 2.9976,2.350279 0.1649,-0.105838 0.66657,-10.252415 1.11484,-22.547948 z M 237.19494,201.99868 c -0.29628,-0.29721 0.25571,-4.18697 1.22663,-8.64392 0.97094,-4.45694 1.76534,-8.23037 1.76534,-8.38539 0,-0.15503 -4.41589,-0.28187 -9.81308,-0.28187 -13.0467,0 -12.85203,-1.73108 0.23364,-2.07766 l 10.04673,-0.26609 0.63208,-4.21875 c 0.34765,-2.32031 1.73226,-8.64844 3.07691,-14.0625 1.34465,-5.41406 2.53217,-12.32942 2.63894,-15.36746 0.14654,-4.16972 0.60677,-5.77834 1.87755,-6.5625 1.39714,-0.86214 2.11232,-0.53673 4.2056,1.91352 1.38721,1.62377 3.46845,3.43159 4.62499,4.01736 1.15655,0.58577 2.10281,1.80365 2.10281,2.70639 0,0.90274 5.86344,9.54876 13.02987,19.21339 7.16643,9.66463 13.27527,18.34764 13.5752,19.29559 0.68132,2.15334 -0.66797,5.84348 -2.77936,7.60125 -2.2687,1.88875 -10.2219,1.67102 -17.28138,-0.4731 -6.76925,-2.05596 -13.08639,-7.24603 -13.08639,-10.75157 0,-1.75871 -0.23881,-1.93614 -1.35511,-1.0068 -0.74532,0.6205 -2.95326,0.99982 -4.90654,0.84295 l -3.55143,-0.28522 0.24666,4.62867 c 0.19891,3.73245 0.018,4.3982 -0.93458,3.43845 -0.95294,-0.96017 -1.36297,-0.2436 -2.12153,3.7076 -0.86802,4.52134 -2.12612,6.34924 -3.45355,5.01766 z m 46.18477,-5.71776 c 1.3985,-0.86701 2.68756,-5.15731 2.10386,-7.00213 -0.29993,-0.94795 -6.40877,-9.63096 -13.5752,-19.29559 -7.16643,-9.66463 -13.03253,-18.22003 -13.03578,-19.012 -0.003,-0.79197 -1.26493,-2.15861 -2.80374,-3.03697 -1.53881,-0.87836 -2.79783,-1.32791 -2.79783,-0.999 0,1.86236 3.26783,12.18956 4.23296,13.37727 1.08474,1.33491 12.58947,21.50118 12.58947,22.06769 0,0.42572 6.34495,10.1502 7.46946,11.44793 1.71121,1.97482 3.68479,1.31694 5.6249,-1.875 1.01856,-1.67578 1.8535,-2.54305 1.85542,-1.92727 0.002,0.61578 -0.99619,2.28543 -2.21802,3.71033 -2.97081,3.46455 -5.25428,2.3972 -9.28391,-4.33953 -2.27897,-3.81001 -3.96359,-5.47528 -6.53013,-6.45516 -3.33803,-1.27444 -3.52649,-1.23426 -5.39629,1.15023 -2.2544,2.87495 -3.35104,3.0518 -5.70018,0.91923 -1.60841,-1.46014 -1.7091,-1.42524 -1.7091,0.59243 0,4.59089 7.17443,8.95383 19.15888,11.65096 2.10301,0.47329 8.7189,-0.16973 10.01523,-0.97341 z m -22.79584,-11.86421 c 0.72123,-0.87174 0.45439,-3.54823 -0.95803,-9.60937 -1.07672,-4.6206 -2.00078,-9.52096 -2.05344,-10.88969 -0.0527,-1.36873 -0.35421,-2.32838 -0.67008,-2.13255 -0.51997,0.32236 -4.1534,-12.50631 -4.77625,-16.86366 -0.14131,-0.98853 -0.79313,-1.90611 -1.44851,-2.03906 -0.65537,-0.13297 -0.74421,-0.0219 -0.19741,0.24693 0.63339,0.31132 0.78384,2.41221 0.41461,5.78906 -0.4382,4.0076 0.008,7.77739 1.83162,15.45605 1.63364,6.88079 2.22116,11.34762 1.82193,13.85205 -0.45047,2.82586 -0.19594,4.13233 1.08075,5.54745 1.93417,2.14392 3.54047,2.3523 4.95481,0.64279 z m 3.25958,-11.74093 c -2.92852,-5.22639 -5.45452,-9.37219 -5.61333,-9.21288 -0.15882,0.15931 0.57516,3.62892 1.63106,7.71026 1.05591,4.08132 1.98362,8.11252 2.06159,8.95821 0.0779,0.84569 0.60891,1.3578 1.17985,1.13802 0.57095,-0.21977 2.06204,-0.0116 3.31352,0.46248 1.2515,0.47414 2.38265,0.76856 2.51367,0.65426 0.13102,-0.1143 -2.15783,-4.48396 -5.08636,-9.71035 z m -10.20513,4.90379 c 1.58042,-4.13136 0.12335,-6.01707 -4.64934,-6.01707 -1.8522,0 -2.26001,0.47367 -2.26001,2.625 0,1.44375 0.50467,3.13125 1.12149,3.75 1.60228,1.60729 5.11929,1.38979 5.78786,-0.35793 z m -1.94286,-13.82021 c -0.8563,-3.95828 -1.8158,-7.19686 -2.13221,-7.19686 -0.31642,0 -1.22988,3.14242 -2.02991,6.98316 l -1.45461,6.98316 3.36251,0.28246 c 1.84937,0.15536 3.46344,0.25152 3.58681,0.2137 0.12337,-0.0378 -0.47629,-3.30736 -1.33259,-7.26562 z M 518.88717,45.641493 C 518.67926,34.863426 519.46661,31.875 522.5142,31.875 c 2.71107,0 6.05588,8.186194 6.70345,16.40625 0.31188,3.958838 0.22418,5.446644 -0.22106,3.75 -0.40594,-1.546875 -0.78783,-4.338273 -0.84865,-6.203107 -0.16529,-5.06864 -3.72179,-13.015643 -5.82484,-13.015643 -2.20778,0 -2.63543,1.957123 -2.97043,13.59375 l -0.2699,9.375 -0.1956,-10.139757 z m 3.71943,3.94248 c -0.0972,-2.892878 -0.37545,-7.322565 -0.61838,-9.84375 l -0.44166,-4.583973 0.95182,4.580022 c 0.52351,2.519012 0.80178,6.9487 0.61838,9.84375 l -0.33344,5.263728 -0.17672,-5.259777 z m 57.74847,-29.450379 c -1.55257,-1.876586 -0.44211,-2.934354 1.43765,-1.369421 1.15497,0.961542 1.70232,0.976421 2.59267,0.07048 0.88334,-0.898817 0.77319,-1.411794 -0.5069,-2.360494 -2.00596,-1.486659 -2.09557,-2.41166 -0.23364,-2.41166 0.77102,0 1.40187,-0.474609 1.40187,-1.054687 0,-0.68103 -1.0337,-0.847304 -2.91771,-0.469325 -2.55942,0.513485 -2.77007,0.406936 -1.7155,-0.867711 0.66882,-0.808406 2.27426,-1.328062 3.61863,-1.1713 2.17051,0.253096 2.43262,0.710548 2.57541,4.494737 0.0874,2.317129 -0.2795,4.742911 -0.81538,5.390625 -1.32821,1.6054 -4.00329,1.481787 -5.4371,-0.251245 z m 8.4932,-0.32757 c -2.37477,-4.45116 -0.23795,-9.9175337 3.65424,-9.348183 3.18819,0.46637 3.56476,2.613415 0.41801,2.383347 -1.39122,-0.101716 -2.69209,0.271679 -2.89085,0.829765 -0.19875,0.558087 0.54134,0.979962 1.64466,0.9375 2.70025,-0.103921 4.45539,2.652122 3.08525,4.844672 -1.49348,2.389902 -4.72172,2.582624 -5.91131,0.352899 z m 4.60966,-1.469446 c 0,-0.743007 -0.45721,-1.634372 -1.01601,-1.980813 -1.31964,-0.818135 -3.12093,0.988778 -2.30534,2.312549 0.91608,1.486894 3.32135,1.246658 3.32135,-0.331736 z m 3.79245,1.885098 c -1.59062,-1.92256 -0.85327,-8.104518 1.11409,-9.340683 2.53808,-1.5947665 4.85498,0.416186 5.2005,4.513755 0.32285,3.828946 -1.02898,6.167752 -3.56498,6.167752 -0.90216,0 -2.13949,-0.60337 -2.74961,-1.340824 z m 4.15148,-4.362301 c 0,-2.222223 -0.4293,-3.203125 -1.40187,-3.203125 -1.49629,0 -2.37222,3.426487 -1.47529,5.771141 0.94794,2.478017 2.87716,0.756091 2.87716,-2.568016 z m 4.57008,-1.258837 c -0.85028,-2.22271 0.3528,-4.4675 2.20279,-4.110112 1.0346,0.19987 1.63834,1.170727 1.63834,2.634574 0,2.672463 -2.94979,3.805599 -3.84113,1.475538 z m 2.12363,-2.647413 c -0.25926,-0.644531 -0.47139,-0.117187 -0.47139,1.171875 0,1.289063 0.21213,1.816406 0.47139,1.171875 0.25927,-0.644531 0.25927,-1.699219 0,-2.34375 z"
       id="path3498"
       inkscape:connector-curvature="0" />
  </g>
</svg>
