<?xml version="1.0" encoding="UTF-8" standalone="no"?>
<!-- Created with Inkscape (http://www.inkscape.org/) -->

<svg
   xmlns:dc="http://purl.org/dc/elements/1.1/"
   xmlns:cc="http://creativecommons.org/ns#"
   xmlns:rdf="http://www.w3.org/1999/02/22-rdf-syntax-ns#"
   xmlns:svg="http://www.w3.org/2000/svg"
   xmlns="http://www.w3.org/2000/svg"
   version="1.1"
   width="640"
   height="255"
   id="svg2">
  <metadata
     id="metadata8">
    <rdf:RDF>
      <cc:Work
         rdf:about="">
        <dc:format>image/svg+xml</dc:format>
        <dc:type
           rdf:resource="http://purl.org/dc/dcmitype/StillImage" />
        <dc:title></dc:title>
      </cc:Work>
    </rdf:RDF>
  </metadata>
  <defs
     id="defs6" />
  <g
     id="g2987">
    <path
       d="m 199.47965,205.23469 c -0.5612,-0.40408 -1.59031,-2.02983 -2.28693,-3.61278 -1.06436,-2.41862 -1.0195,-3.21685 0.28102,-5 0.85117,-1.16705 2.6207,-3.69691 3.93229,-5.62191 2.5921,-3.80438 21.84118,-29.68121 23.65942,-31.80571 0.61462,-0.71814 1.86382,-1.1505 2.77602,-0.96081 2.2572,0.46939 1.8209,5.44223 -0.76642,8.73551 -1.73522,2.20866 -17.19291,28.32123 -20.67814,34.93142 -1.93289,3.66599 -4.64258,4.97212 -6.91726,3.33428 z M 148.25,199.88495 c -1.7875,-1.14474 -3.25,-2.26216 -3.25,-2.48315 0,-0.22099 2.925,-0.4018 6.5,-0.4018 6.67361,0 7.66646,0.69068 4.92857,3.42857 -2.1012,2.10121 -4.27426,1.95676 -8.17857,-0.54362 z m 73.50068,-4.57414 c -2.98841,-0.78104 -3.24964,-4.9496 -0.5695,-9.08763 1.3263,-2.04775 3.94408,-8.44818 5.8173,-14.22318 3.25662,-10.03996 3.43833,-10.34665 4.14717,-7 0.46591,2.19969 0.18892,5.65919 -0.74556,9.31183 -0.81779,3.1965 -1.75398,8.8215 -2.08043,12.5 -0.77418,8.72353 -1.60364,9.79669 -6.56898,8.49898 z m -88.90417,-10.56473 c -5.7163,-6.14716 -10.39857,-12.20567 -11.69086,-15.12712 C 118.98619,164.71455 118.449,162 119.64789,162 c 0.35634,0 4.5239,3.7125 9.26124,8.25 13.5454,12.97399 23.39355,21.42998 25.84087,22.18793 4.44994,1.37818 2.11221,2.56207 -5.05914,2.56207 l -7.30914,0 -9.53521,-10.25392 z M 229,187.43426 c 0,-6.27816 5.36843,-9.19078 6.22191,-3.37568 0.33515,2.28356 -0.0726,3.42383 -1.60901,4.5 -3.05354,2.13878 -4.6129,1.75871 -4.6129,-1.12432 z m 384,-12.58405 c -30.29102,-25.43989 -31.90608,-27.22455 -27.00903,-29.84538 3.36784,-1.80241 7.51837,1.24445 25.00315,18.35453 15.37931,15.04973 19.86032,20.29988 19.96396,23.39064 0.0906,2.70333 -3.04185,0.62759 -17.95808,-11.89979 z m -469.77217,-2.88957 c -1.24969,-0.50193 -2.52111,-1.56134 -2.82538,-2.35426 -0.30427,-0.79292 -5.4693,-4.19467 -11.47784,-7.55945 C 122.91608,158.68215 118,155.52808 118,155.0379 c 0,-0.49019 -0.7875,-1.13309 -1.75,-1.42866 -0.9625,-0.29557 -0.625,-0.37426 0.75,-0.17485 1.375,0.1994 8.35,2.90454 15.5,6.01142 7.15,3.10689 14.0125,6.06793 15.25,6.5801 2.44425,1.01161 2.96251,3.86158 1.05,5.77409 -1.39064,1.39064 -2.43475,1.42075 -5.57217,0.16064 z m 354.27217,-2.63 c -8.69166,-1.07108 -33.53097,-7.88967 -38.13283,-10.46777 -5.28758,-2.96227 -8.06866,-5.49471 -7.09902,-6.46436 0.30424,-0.30423 4.00325,0.41494 8.22004,1.59818 10.94666,3.07163 32.09604,7.00331 37.67242,7.00331 2.60991,0 5.83454,-0.4963 7.16584,-1.10288 3.70791,-1.68944 7.04831,0.42429 6.21869,3.93505 -1.25726,5.32048 -4.66467,6.65444 -14.04514,5.49847 z M 68.771686,164.66676 c -0.268631,-2.38328 -3.960612,-13.1668 -8.204404,-23.96337 -4.243792,-10.79657 -7.570027,-20.61315 -7.391633,-21.81463 0.533273,-3.5916 3.163616,-4.53689 6.289061,-2.26016 2.357814,1.71755 3.338314,4.38448 7.691236,20.91995 2.743908,10.4233 5.219209,19.88769 5.500668,21.03197 C 73.258942,161.02931 71.296688,169 70.091508,169 c -0.457272,0 -1.051192,-1.94996 -1.319822,-4.33324 z m 73.886064,-1.92775 c -1.63874,-1.19828 -1.68905,-1.67636 -0.48652,-4.62342 l 1.34121,-3.28695 2.79821,2.20108 c 4.93847,3.8846 1.40479,9.40756 -3.6529,5.70929 z M 280,162 c -3.33088,-3.33088 -1.91565,-7 2.7,-7 2.05926,0 2.3,0.47101 2.3,4.5 0,5.08704 -1.60864,5.89136 -5,2.5 z m 14,-5.09117 c -7.71603,-2.13092 -11.69512,-2.74277 -15.00753,-2.30763 -3.77815,0.49632 -4.819,0.24796 -6.43239,-1.53482 -1.53809,-1.69956 -1.73347,-2.67343 -0.97235,-4.84666 1.24011,-3.5409 4.79457,-4.05252 8.60132,-1.23807 1.6042,1.18604 7.79026,3.69966 13.7468,5.58581 8.34497,2.64247 10.95017,3.88867 11.35349,5.43096 0.28788,1.10087 0.22805,1.95851 -0.13296,1.90587 -0.36101,-0.0526 -5.38138,-1.4006 -11.15638,-2.99546 z m -60,-1.33551 c 0,-1.47023 -0.68974,-2.60692 -1.75,-2.88399 -1.31691,-0.34415 -1.19317,-0.48604 0.5,-0.57333 1.85911,-0.0959 2.25,0.40518 2.25,2.884 0,1.65 -0.225,3 -0.5,3 -0.275,0 -0.5,-1.092 -0.5,-2.42668 z m 132.39746,-5.07244 c 0.067,-4.89789 0.49902,-7.49943 1.24555,-7.5 1.48496,-0.001 2.35699,2.35987 2.35699,6.38154 0,3.19391 -1.94622,8.59481 -3.10254,8.60978 -0.3314,0.004 -0.5564,-3.3668 -0.5,-7.49132 z m -351.318513,4.35611 c -0.04342,-0.90366 0.568033,-1.89128 1.358786,-2.19472 1.638955,-0.62893 2.812054,-4.29183 5.562603,-17.36875 C 24.538843,123.22471 26.331416,119 28.91379,119 c 3.95504,0 4.32967,3.33408 1.070755,9.52938 -1.648053,3.133 -4.378722,10.14557 -6.068155,15.58349 C 21.175405,152.93551 20.592868,154 18.505681,154 c -1.286458,0 -2.565988,0.5625 -2.8434,1.25 -0.31851,0.78935 -0.53348,0.64452 -0.583334,-0.39301 z M 365.96912,140.25 c -0.21162,-5.14048 -2.28383,-16.52923 -3.5094,-19.28749 C 360.55016,116.6649 361.80856,112 364.87742,112 367.84088,112 369,116.96234 369,129.64922 369,139.07214 368.74523,141 367.5,141 c -0.825,0 -1.51389,-0.3375 -1.53088,-0.75 z m 146.13386,-2.6146 c -1.17612,-1.42667 -1.18539,-2.12478 -0.0586,-4.41501 1.30156,-2.64548 1.34882,-2.65844 1.71658,-0.47039 0.20799,1.2375 0.23436,3.22426 0.0586,4.41502 -0.29542,2.00153 -0.42504,2.03705 -1.71657,0.47038 z m 5.11882,-22.88578 c 0.1764,-13.7915 -0.0877,-21.926755 -0.7218,-22.23237 -0.55,-0.26509 -0.1,-0.370876 1,-0.23508 1.94007,0.239503 1.9893,0.86079 1.64282,20.73237 -0.19645,11.267 -0.77164,21.16046 -1.2782,21.98546 -0.57402,0.93485 -0.81621,-6.69478 -0.64282,-20.25038 z m -256.57784,14.23851 c -1.47323,-2.95318 -1.37412,-3.24061 5.08627,-14.75 3.62383,-6.45597 8.2045,-15.144655 10.17928,-19.308185 3.32578,-7.011946 10.27095,-15.082814 11.72655,-13.627221 0.31288,0.312887 -1.25246,4.535273 -3.47854,9.383081 -2.22609,4.847807 -5.44873,12.639195 -7.16143,17.314195 -1.7127,4.675 -3.6765,9.4 -4.36401,10.5 -0.68751,1.1 -2.08222,4.25 -3.09934,7 -2.73912,7.40571 -6.24759,8.78251 -8.88878,3.48813 z m 209.55691,0.19827 -2.29913,-1.76912 3.673,-1.75153 c 3.46258,-1.65119 3.78094,-1.65384 5.55722,-0.0463 1.76162,1.59425 1.77601,1.82479 0.22115,3.54289 -2.07586,2.2938 -4.19329,2.30093 -7.15224,0.0241 z m 41.40612,-0.76819 C 510.46896,125.45256 510.94934,122 512.5,122 c 1.08333,0 1.5,1.11111 1.5,4 0,4.0412 -1.27557,5.33021 -2.39301,2.41821 z M 16,126.13486 C 16,123.49695 19.79022,119 22.013563,119 c 2.666779,0 3.05504,1.16651 1.775696,5.335 C 22.788209,127.59672 22.297772,128 19.332219,128 16.746978,128 16,127.58189 16,126.13486 z m 445.25,1.20286 c -0.6875,-0.27741 -1.25,-1.13151 -1.25,-1.898 0,-1.93717 4.64315,-4.79063 6.58365,-4.046 2.18631,0.83897 20.45083,-5.62808 26.62584,-9.42761 4.56755,-2.81043 7.79051,-3.31516 7.79051,-1.22002 0,0.44488 -3.0375,2.10502 -6.75,3.6892 -3.7125,1.58419 -11.80914,5.28432 -17.99254,8.22253 -11.03046,5.2414 -12.48884,5.69618 -15.00746,4.6799 z m 106.80792,-5.53331 c -3.79534,-7.24044 -9.02702,-20.91531 -9.75606,-25.500954 -0.28859,-1.815229 -1.21983,-3.38558 -2.15503,-3.633998 -1.46682,-0.389637 -1.45885,-0.450135 0.0729,-0.553457 1.21054,-0.08165 2.75361,2.121721 5.21165,7.441834 4.07387,8.817345 11.92585,20.981535 14.07624,21.806715 2.46582,0.94622 1.77783,4.57643 -1.07271,5.6602 -1.4108,0.53639 -2.69205,0.97525 -2.84722,0.97525 -0.15517,0 -1.74356,-2.78801 -3.52976,-6.19559 z m -196.19077,2.99763 C 369.70979,123.08176 368.63203,115 370.55997,115 c 2.04516,0 3.59593,3.62611 3.24787,7.59437 -0.27161,3.09661 -0.50003,3.35645 -1.94069,2.20767 z m 193.18304,-1.24157 c -0.65709,-0.79174 -1.04969,-2.5875 -0.87245,-3.99058 0.30742,-2.43356 0.42726,-2.36726 2.60212,1.43953 1.72378,3.01725 1.93658,3.99058 0.87244,3.99058 -0.77407,0 -1.94503,-0.64779 -2.60211,-1.43953 z M 439,108.6263 c -1.375,-0.72514 -11.47842,-4.62102 -22.45204,-8.657504 -15.28944,-5.623995 -20.83959,-8.140909 -23.75,-10.770292 C 390.70908,87.311328 389,85.144638 389,84.383638 c 0,-1.830642 0.27866,-1.782305 5.78324,1.00319 2.59422,1.312755 12.65375,4.453577 22.35452,6.979603 9.70077,2.526026 20.83827,5.779091 24.75,7.229033 6.51589,2.415206 7.11224,2.873136 7.11224,5.461376 0,1.55382 -0.3375,3.02376 -0.75,3.26655 -2.22555,1.30987 -7.04158,1.46758 -9.25,0.30291 z M 345.99291,92.695784 c -1.56968,-0.992318 -11.07908,-5.143663 -21.13198,-9.22521 -13.86491,-5.629245 -19.12101,-8.263983 -21.76947,-10.912451 -1.9203,-1.920301 -3.18464,-3.798279 -2.80963,-4.173284 0.375,-0.375005 4.1775,0.685685 8.45,2.357089 4.27249,1.671404 16.3784,5.786269 26.90201,9.144143 21.23925,6.77702 23.99012,8.255008 22.55822,12.120087 -0.7844,2.117329 -1.5596,2.493842 -5.13453,2.493842 -2.33711,0 -5.48052,-0.802788 -7.06462,-1.804216 z"
       id="path2997"
       style="fill:#fefefe" />
    <path
       d="M 0,127.5 0,0 320,0 640,0 640,127.5 640,255 320,255 0,255 0,127.5 z m 595.75,114.75035 -38.75,-0.27384 0.0304,-71.73825 c 0.0213,-50.35476 0.34174,-71.203205 1.07489,-69.94324 2.47997,4.26206 5.58797,15.4348 5.14091,18.48078 -0.5241,3.57097 0.91179,5.95357 4.38343,7.27349 1.5422,0.58634 2.05902,1.42526 1.7071,2.77102 -0.8212,3.14028 3.32367,9.87907 10.98556,17.86051 10.3499,10.78154 48.48172,42.60836 50.24057,41.93343 4.06381,-1.55943 0.71272,-5.97456 -21.49129,-28.31524 -18.3126,-18.42533 -20.37545,-20.855 -23.46812,-27.64142 -2.08238,-4.56949 -4.55715,-8.30281 -6.4137,-9.67541 -2.65116,-1.96009 -2.95573,-2.68071 -2.47614,-5.85859 0.76966,-5.09997 1.70935,-5.67262 4.1717,-2.54225 2.64095,3.35742 4.02383,2.45514 1.69187,-1.10388 -1.94427,-2.96732 -4.30063,-4.15402 -5.62289,-2.83176 -0.50119,0.50119 -2.77428,0.73359 -5.05131,0.51644 l -4.14006,-0.39482 -4.47739,-9.45185 c -4.41304,-9.316036 -6.41987,-11.581144 -8.45632,-9.544689 -0.69213,0.692132 -0.98571,18.007619 -0.88389,52.132779 L 554.09778,195 l -8.04889,0 C 541.34963,195 538,195.41616 538,196 c 0,0.58333 3.33333,1 8,1 l 8,0 0,22.5 0,22.5 -18.5,0 -18.5,0 0,-40.91995 c 0,-40.41714 0.0313,-41.04983 2.54721,-51.48988 1.58894,-6.59345 2.3163,-11.80081 1.93341,-13.84178 -0.41651,-2.22021 0.0501,-4.82068 1.45168,-8.09045 1.16608,-2.72036 1.8533,-5.98108 1.5782,-7.48826 -0.36259,-1.9865 -0.0717,-1.71004 1.1368,1.08032 0.89325,2.0625 2.01303,3.75 2.4884,3.75 1.16594,0 1.11578,-0.33102 -0.76094,-5.0214 -1.03597,-2.58913 -2.21434,-4.00503 -3.25,-3.90509 -4.48849,0.43316 -4.46211,0.51248 -3.81913,-11.48542 0.50461,-9.415756 0.35127,-11.627952 -0.87664,-12.647021 -1.10197,-0.914552 -2.09909,-0.95678 -3.8419,-0.162701 -2.31498,1.054774 -2.34505,1.254774 -1.82811,12.161062 0.43867,9.25515 0.2619,11.38001 -1.06908,12.85074 -2.1029,2.32367 -3.193,9.40126 -1.83798,11.93315 0.80881,1.51126 0.61407,3.17639 -0.8097,6.92345 -1.03104,2.71349 -2.6039,8.51553 -3.49523,12.89342 C 504.06563,160.72771 504.56771,160 498.64027,160 c -5.98911,0 -26.83684,-3.82825 -38.17811,-7.01062 -8.57297,-2.40558 -11.32642,-1.70684 -7.95486,2.01869 3.88056,4.28797 12.17047,7.77406 27.37354,11.51118 18.1609,4.46419 28.62068,5.14243 32.01231,2.07576 L 514,166.69002 l 0,14.16812 0,14.16812 -34.19967,-0.26313 L 445.60065,194.5 441.9485,177.42048 c -2.00869,-9.39374 -3.44276,-18.50624 -3.18683,-20.25 C 439.1872,154.27117 438.99376,154 436.5,154 c -3.08584,0 -3.08362,-0.43542 -0.0662,13 0.92642,4.125 4.57605,21.675 8.11027,39 3.53423,17.325 6.66621,32.5125 6.95995,33.75 l 0.53407,2.25 -31.51905,0 C 403.18357,242 389,241.8557 389,241.67933 c 0,-0.6393 -7.84996,-39.25193 -8.52425,-41.92933 l -0.69257,-2.75 11.60841,0 C 398.46386,197 403,196.60924 403,196 c 0,-0.61025 -4.60554,-1 -11.81661,-1 l -11.8166,0 -1.80275,-9.75 c -0.9915,-5.3625 -2.48647,-12.45 -3.32214,-15.75 -0.83568,-3.3 -1.49597,-8.02254 -1.46731,-10.49454 0.0287,-2.472 -0.29632,-4.722 -0.72216,-5 -0.42584,-0.278 -0.99156,-2.82396 -1.25715,-5.65768 l -0.4829,-5.15221 4.8015,-2.24891 c 2.64083,-1.2369 5.99721,-3.49695 7.45863,-5.02234 1.46141,-1.52539 3.19968,-2.56523 3.86282,-2.31076 1.07446,0.41231 4.04255,-6.46901 3.16763,-7.34393 -0.52056,-0.52056 -6.58956,3.14143 -6.59664,3.98037 -0.003,0.4125 0.52212,0.75 1.16799,0.75 2.19351,0 -3.4908,4.97879 -8.59406,7.5274 l -5.08025,2.53712 -0.29898,-4.93782 c -0.25326,-4.18257 0.0909,-5.3277 2.25,-7.48681 3.45684,-3.45684 3.54985,-9.72993 0.194,-13.08577 -1.34984,-1.34985 -2.58138,-4.043 -2.88544,-6.30995 -0.76938,-5.73612 -6.65836,-16.919995 -10.95189,-20.798943 -3.01672,-2.725431 -7.28418,-4.488614 -23.00572,-9.505252 -10.61608,-3.387522 -22.8084,-7.530892 -27.09403,-9.207488 -5.97059,-2.33577 -8.06687,-2.773553 -8.96765,-1.872776 -0.90078,0.900777 -0.23918,2.111985 2.83022,5.181386 3.25829,3.258293 7.3576,5.369655 21.96765,11.31451 17.60049,7.161675 28.7621,12.703176 30.16782,14.977682 1.3195,2.134991 4.43829,17.143101 4.7103,22.666711 0.35236,7.15539 -0.4149,8.45971 -5.87585,9.98868 -2.49724,0.69918 -4.54043,1.66276 -4.54043,2.14128 0,1.14217 0.6674,1.08865 5.8869,-0.47212 2.4128,-0.72149 4.9137,-2.03224 5.55756,-2.91277 1.85799,-2.54095 3.23008,-0.69147 3.97362,5.35616 l 0.68866,5.60123 -5.72015,1.14877 C 356.2405,143.48305 352.39149,144 350.83322,144 349.27495,144 348,144.45 348,145 c 0,1.34159 6.05553,1.26662 11.65895,-0.14434 5.76204,-1.4509 6.64955,-0.37229 5.85354,7.11398 -0.50891,4.78609 -0.31685,5.66933 1.53683,7.06756 2.3576,1.77835 1.8618,-0.24747 11.49386,46.9628 3.53473,17.325 6.66711,32.5125 6.96085,33.75 l 0.53407,2.25 -30.01905,0 C 339.50857,242 326,241.8557 326,241.67933 c 0,-0.6393 -7.84996,-39.25193 -8.52425,-41.92933 l -0.69257,-2.75 17.60841,0 C 345.1866,197 352,196.62199 352,196.02307 c 0,-0.58882 -7.03181,-1.08541 -17.70026,-1.25 L 316.59949,194.5 312.94792,177.42048 c -2.05078,-9.59212 -3.43902,-18.52773 -3.16672,-20.38303 0.47446,-3.23276 0.41522,-3.29328 -2.76713,-2.82621 -2.06619,0.30326 -7.10163,-0.74439 -13.80955,-2.87315 -9.90265,-3.1426 -10.89632,-3.70675 -16.01836,-9.09426 -3.00343,-3.15911 -6.09633,-7.24532 -6.87309,-9.08047 -1.2504,-2.95411 -1.21276,-3.87126 0.32834,-8 0.95736,-2.56485 2.30316,-5.56336 2.99067,-6.66336 0.68751,-1.1 2.65131,-5.825 4.36401,-10.5 1.7127,-4.675 4.94007,-12.476657 7.17194,-17.337016 4.84536,-10.551801 4.22875,-12.748303 -2.11525,-7.534957 -2.8285,2.324397 -5.288,5.857346 -7.9167,11.371973 -2.09739,4.4 -6.90389,13.4 -10.68112,20 -6.37763,11.14372 -6.85874,12.40147 -6.74234,17.62629 0.16707,7.49914 3.45591,14.85257 8.87831,19.85076 2.40041,2.21262 4.87954,4.02295 5.50917,4.02295 0.79744,0 0.83287,0.37928 0.11678,1.25 -0.56541,0.6875 -1.02551,4.01114 -1.02245,7.38587 0.005,5.64535 0.24369,6.31193 2.98418,8.33806 3.87844,2.86746 5.12326,1.63928 1.371,-1.35267 -3.17984,-2.53552 -2.83063,-5.37721 0.44534,-3.62396 C 281.10661,170.73297 286,166.98085 286,160.32569 286,157.94656 286.34066,156 286.75703,156 c 1.81336,0 18.60218,4.96792 19.24747,5.69545 0.39248,0.4425 1.20305,3.27955 1.80127,6.30455 2.04344,10.33307 14.16292,69.49466 14.69826,71.75 l 0.53407,2.25 -36.51905,0 C 266.43357,242 250,241.8557 250,241.67933 c 0,-0.6393 -7.84996,-39.25193 -8.52425,-41.92933 l -0.69257,-2.75 13.60841,0 C 262.7972,197 268,196.61768 268,196 c 0,-0.60606 -4.33333,-1 -11,-1 -6.05,0 -10.98569,-0.3375 -10.9682,-0.75 0.0175,-0.4125 0.6925,-1.62351 1.5,-2.69113 1.60223,-2.11834 1.89418,-3.56246 0.7182,-3.55255 -0.4125,0.003 -1.51657,1.35348 -2.45349,3 -1.85189,3.25448 -5.59939,4.35082 -4.25112,1.24368 2.06132,-4.75037 1.67986,-7.88268 -1.26138,-10.35756 -4.07624,-3.42994 -6.96328,-16.32403 -5.16251,-23.05688 0.66595,-2.48994 0.92517,-5.27155 0.57605,-6.18136 C 234.44281,149.38441 229,151.36518 229,155.09159 c 0,0.96511 -1.06128,1.95796 -2.47114,2.31181 -1.35912,0.34112 -3.00871,1.6274 -3.66575,2.85841 -0.97618,1.82892 -11.97052,16.85682 -23.60648,32.26714 -5.70662,7.55766 -6.2266,11.37853 -2.06144,15.14745 2.82761,2.55861 12.49228,2.2087 20.30481,-0.73514 6.65287,-2.50687 12.5,-7.59455 12.5,-10.87644 0,-1.80112 0.30263,-1.97322 1.93426,-1.1 1.06384,0.56935 2.78185,1.03518 3.81779,1.03518 1.65277,0 2.4024,2.60357 6.11843,21.25 2.32919,11.6875 4.4665,22.0375 4.74959,23 0.48591,1.65211 -2.64957,1.75 -56.05268,1.75 C 159.45532,242 134,241.8557 134,241.67933 c 0,-0.6393 -7.84996,-39.25193 -8.52425,-41.92933 l -0.69257,-2.75 9.07918,0 c 8.5255,0 9.34531,0.1876 13.44348,3.07625 3.71884,2.62128 4.91476,2.97299 8.08609,2.37805 2.29147,-0.42989 4.32059,-1.61212 5.27994,-3.07626 1.43566,-2.1911 2.21731,-2.37804 9.94314,-2.37804 4.92333,0 8.38499,-0.41284 8.38499,-1 0,-0.58824 -3.5,-1 -8.5,-1 l -8.5,0 0,-3.25318 c 0,-5.27846 -3.76008,-16.92323 -6.91442,-21.41358 -2.87249,-4.08914 -2.89124,-4.19914 -1.0063,-5.90499 1.0564,-0.95602 1.92072,-2.99192 1.92072,-4.52422 0,-1.5323 0.45,-3.06411 1,-3.40403 0.55,-0.33992 1,-1.68001 1,-2.97798 0,-2.50964 -2.9922,-8.50509 -4.25,-8.5157 -1.08638,-0.009 -0.94034,0.72492 0.82235,4.1336 0.8648,1.67233 1.32177,3.69361 1.0155,4.49173 -0.45774,1.19287 -1.06932,1.07226 -3.43619,-0.67765 -4.46579,-3.30169 -7.2294,-2.31301 -10.15166,3.63176 l -2.5,5.08576 -10,-4.43574 c -5.5,-2.43966 -10.92737,-4.65193 -12.06082,-4.91617 -2.62968,-0.61305 -4.82797,1.98319 -4.16978,4.92464 0.27762,1.24066 1.25717,5.63075 2.17678,9.75575 0.91962,4.125 4.56368,21.675 8.0979,39 3.53423,17.325 6.66621,32.5125 6.95995,33.75 l 0.53407,2.25 -16.05543,0 -16.055426,0 0.286378,-74.50026 C 99.497804,93.570735 99.484664,92.999475 97.5,92.999296 c -1.977796,-1.79e-4 -1.99666,0.566162 -1.699179,51.013454 l 0.30082,51.01362 L 61.851147,194.76319 27.600653,194.5 23.908925,177.23542 c -4.010455,-18.75512 -4.033259,-17.54404 0.605782,-32.17199 3.80147,-11.9869 6.996321,-18.77831 9.136611,-19.42201 12.354886,-3.7158 16.854058,-4.56274 17.998138,-3.38803 1.988428,2.04166 15.474329,37.45291 16.202736,42.54511 0.455827,3.18663 1.150448,4.7015 2.155803,4.7015 1.839271,0 4.300668,-7.08208 3.649306,-10.5 -0.77569,-4.07031 -9.891271,-39.25617 -10.957902,-42.29716 -1.236415,-3.52505 -4.335475,-5.06282 -13.325177,-6.61206 -9.872825,-1.70142 -18.773061,0.22569 -21.217776,4.59415 -0.867947,1.55093 -1.136268,1.55831 -3.373038,0.0927 -1.336544,-0.87573 -3.427404,-1.74646 -4.646355,-1.93495 -3.04247,-0.47045 -2.447323,-2.13628 1.194243,-3.3427 1.660167,-0.55 3.202285,-1.5625 3.426928,-2.25 0.484965,-1.48419 -1.368629,-1.6894 -2.258224,-0.25 -0.339919,0.55 -1.661376,1 -2.936572,1 -2.736257,0 -5.01701,2.3756 -4.235649,4.41179 0.322787,0.84117 -0.4603,2.10025 -1.888124,3.03579 -2.81762,1.84618 -3.167633,5.24399 -0.97664,9.4809 1.59346,3.08141 3.345972,4.07152 7.20667,4.07152 2.393053,0 2.474086,0.19173 1.796228,4.25 -1.506052,9.01658 -4.343763,17.94044 -6.11983,19.24525 -1.765869,1.29732 -1.770475,1.48494 -0.105992,4.31802 1.916408,3.26187 2.086427,4.00167 11.303994,49.18673 3.534229,17.325 6.663008,32.49977 6.952843,33.7217 0.522437,2.20259 0.40855,2.22436 -13.234978,2.53066 -7.569073,0.16992 127.53805,0.30059 300.23805,0.29039 172.7,-0.0102 296.5625,-0.14179 275.25,-0.2924 z M 37,241.67933 C 37,241.04003 29.150041,202.4274 28.475754,199.75 L 27.783184,197 61.891592,197 96,197 l 0,22.5 0,22.5 -29.5,0 C 50.275,242 37,241.8557 37,241.67933 z m 418,0 c 0,-0.6393 -7.84996,-39.25193 -8.52425,-41.92933 l -0.69257,-2.75 34.10841,0 34.10841,0 0,22.5 0,22.5 -29.5,0 C 468.275,242 455,241.8557 455,241.67933 z M 124.52698,193.75 c -0.22563,-0.6875 -1.56089,-6.61312 -2.96724,-13.16804 -2.53193,-11.80126 -2.80987,-15.89993 -0.63038,-9.29601 0.62077,1.88097 2.28633,4.49862 3.70123,5.817 1.41491,1.31838 5.72452,5.88455 9.57693,10.14705 l 7.00437,7.75 -8.13733,0 c -5.6244,0 -8.26402,-0.38602 -8.54758,-1.25 z m 90.51784,-4.86866 C 218.35891,182.59676 226.16491,169 226.45884,169 c 0.51139,0 -3.33227,12.21208 -4.64788,14.76723 -0.64205,1.24698 -2.70964,3.44358 -4.59464,4.88134 l -3.42727,2.61411 1.25577,-2.38134 z m -73.18087,-7.51461 c -3.50017,-3.15629 -9.80469,-9.08547 -14.01004,-13.17596 -4.20535,-4.09048 -8.11175,-7.14945 -8.6809,-6.7977 -1.4324,0.88528 -2.45571,-1.0655 -1.47664,-2.81499 0.64823,-1.15834 2.65083,-0.39716 10.30412,3.91652 10.09827,5.69176 13.99951,8.9305 13.99951,11.62216 0,0.91235 1.60999,3.99932 3.57775,6.85995 1.96776,2.86062 3.36903,5.40984 3.11394,5.66493 -0.25509,0.25509 -3.32757,-2.11862 -6.82774,-5.27491 z m 88.14163,-1.21035 c 0.003,-0.36101 0.52547,-2.45638 1.1609,-4.65638 1.09317,-3.78481 1.1951,-3.86551 1.89474,-1.5 1.26193,4.26664 1.01207,5.74757 -1.06122,6.28975 -1.1,0.28766 -1.99749,0.22764 -1.99442,-0.13337 z m 247.3784,-32.33822 c 4.68291,-1.34461 14.95381,-9.16629 19.55504,-14.8919 1.76282,-2.1936 3.67424,-3.62816 4.44176,-3.33364 1.31897,0.50614 2.61922,-3.32508 2.61922,-7.71762 0,-2.53283 -0.88384,-2.32073 -5,1.1999 -2.7511,2.35307 -3.19915,3.18003 -2.09396,3.86481 3.4169,2.11715 -10.72024,15.8414 -19.22925,18.66764 -4.90246,1.62834 -14.06706,1.56356 -18.06324,-0.12768 -1.38663,-0.58684 -1.76442,-0.43227 -1.42586,0.5834 0.94174,2.82522 11.96068,3.83266 19.19629,1.75509 z m -9.76755,-9.26097 c 0.4209,-1.09685 1.70676,-1.30625 5.36253,-0.87328 4.3474,0.51489 4.96737,0.32764 6.46058,-1.95129 1.84286,-2.81257 1.31914,-7.05057 -1.23438,-9.98875 -0.83943,-0.96587 -1.22484,-2.05752 -0.85648,-2.42588 0.36836,-0.36837 5.95311,-3.01031 12.41054,-5.87098 11.44597,-5.07062 13.36191,-6.70646 10.19472,-8.70427 -1.13527,-0.71611 -2.86232,-0.16717 -6.5,2.06601 C 488.74808,113.69768 472.96082,120 470.42992,120 c -0.65301,0 -1.75356,-1.36712 -2.44568,-3.03805 -0.69212,-1.67092 -4.17035,-5.45508 -7.72939,-8.40923 -8.00908,-6.64786 -18.06219,-10.66205 -42.89892,-17.129444 -9.82076,-2.557291 -20.0103,-5.739823 -22.64342,-7.072293 -7.85166,-3.973269 -9.23748,-0.93314 -2.43353,5.338524 3.45052,3.180574 7.46799,5.121926 20.75,10.026969 37.69887,13.922174 35.4064,12.768544 40.66394,20.463234 3.31509,4.85179 5.62458,7.16725 8.00866,8.02934 6.16688,2.22997 6.26021,10.63331 0.10443,9.40215 -2.65158,-0.53031 -3.61569,0.24578 -2.13934,1.72213 1.28405,1.28406 7.38786,0.68813 7.94976,-0.77614 z"
       id="path2995"
       style="fill:#bfbfbf" />
    <path
       d="m 461.07414,148.12274 c -1.33422,-0.37285 -2.63313,-1.2997 -2.88645,-2.05967 -0.33856,-1.01567 0.0392,-1.17024 1.42586,-0.5834 3.99618,1.69124 13.16078,1.75602 18.06324,0.12768 8.50901,-2.82624 22.64615,-16.55049 19.22925,-18.66764 -1.10519,-0.68478 -0.65714,-1.51174 2.09396,-3.86481 4.11616,-3.52063 5,-3.73273 5,-1.1999 0,4.39254 -1.30025,8.22376 -2.61922,7.71762 -0.76752,-0.29452 -2.67894,1.14004 -4.44176,3.33364 -4.60123,5.72561 -14.87213,13.54729 -19.55504,14.8919 -4.40507,1.26484 -12.34311,1.41307 -16.30984,0.30458 z M 348,145 c 0,-0.55 1.30046,-1 2.88992,-1 5.68617,0 22.56528,-4.07672 26.55161,-6.41287 4.48722,-2.62968 8.52056,-6.58713 6.71346,-6.58713 -2.08675,0 -1.19751,-1.46859 1.98678,-3.28122 1.72101,-0.97968 3.27855,-1.63179 3.46119,-1.44915 0.88077,0.88077 -2.09382,7.75599 -3.17599,7.34072 -0.66773,-0.25623 -2.27447,0.67041 -3.57052,2.0592 -3.61388,3.87249 -9.3573,6.38295 -19.29553,8.4341 C 353.45873,146.18863 348,146.50307 348,145 z"
       id="path2993"
       style="fill:#fe0000" />
    <path
       d="m 200.32262,208.3322 c -2.78199,-0.57785 -4.01535,-2.09445 -4.74751,-5.83779 l -0.58568,-2.99441 1.47699,3.17363 c 1.84012,3.9539 4.82588,5.0201 8.08254,2.88625 1.34807,-0.88329 2.45104,-2.02308 2.45104,-2.53285 0,-1.48344 6.62595,-12.06775 7.19707,-11.49663 0.28486,0.28486 1.11212,-0.19802 1.83834,-1.07307 1.16599,-1.40493 1.4458,-1.21186 2.3925,1.65072 1.4014,4.23748 5.76983,5.92796 8.62995,3.33958 1.86773,-1.69027 1.94214,-1.6721 1.94214,0.47431 0,6.54069 -18.46499,14.53149 -28.67738,12.41026 z M 158.04712,200.5 c -0.0245,-1.48594 1.76048,-4.02573 2.38817,-3.39804 0.29923,0.29922 -0.11199,1.41119 -0.91382,2.47104 -0.80182,1.05985 -1.46528,1.477 -1.47435,0.927 z M 158,193.94897 c 0,-0.57806 -1.54225,-1.69542 -3.42722,-2.48301 -1.8925,-0.79073 -3.7461,-2.43669 -4.13932,-3.67562 -0.39166,-1.234 -2.22441,-4.44214 -4.07278,-7.1292 -3.92491,-5.70581 -4.35958,-8.11295 -1.28902,-7.13839 2.26312,0.71828 5.92834,-1.86462 5.92834,-4.17774 0,-2.38521 1.78087,-1.43564 3.97957,2.12194 2.57849,4.17207 6.02043,15.76629 6.02043,20.27987 0,2.22505 -0.47406,3.25318 -1.5,3.25318 -0.825,0 -1.5,-0.47296 -1.5,-1.05103 z M 511.43691,166.5 c 0.85292,-1.65 1.55354,-3.55213 1.55693,-4.22695 0.009,-1.69483 -4.671,-4.61091 -6.35949,-3.96298 -1.48655,0.57045 -1.55568,1.07589 1.92927,-14.10713 1.63992,-7.14472 1.71572,-7.26012 3.63067,-5.52711 1.78221,1.61288 1.92694,2.90103 1.63075,14.51421 -0.27258,10.6873 -0.61668,13.032 -2.13197,14.5271 -1.74103,1.71783 -1.75038,1.67344 -0.25616,-1.21714 z M 267.12243,151.49164 c -2.13583,-1.92959 -4.78951,-5.64209 -5.89707,-8.25 C 258.75855,137.43317 257.32318,128 258.90616,128 c 0.60161,0 1.09384,0.6199 1.09384,1.37756 0,2.66942 2.91643,4.09246 6.00106,2.92814 2.57879,-0.97338 2.89647,-0.85011 3.44538,1.33694 0.33257,1.32505 2.44743,4.19752 4.6997,6.38327 3.98498,3.8673 4.02613,3.97409 1.53115,3.97409 -2.62088,0 -5.67729,3.17295 -5.67729,5.89377 0,0.79681 0.74474,2.27168 1.65499,3.27749 2.94085,3.2496 -0.4794,1.98217 -4.53256,-1.67962 z M 517.14654,146.5 c -0.048,-5.07119 0.43065,-8.91489 1.30735,-10.49901 l 1.38301,-2.49901 0.64492,2.56955 c 0.3588,1.4296 -0.22118,6.08735 -1.30735,10.49901 l -1.95225,7.92946 -0.0757,-8 z m 61.23764,-3 c -2.2637,-2.2 -5.0762,-5.89457 -6.25,-8.21016 -2.20432,-4.34853 -2.82502,-7.83484 -1.2181,-6.8417 1.60039,0.98909 6.25696,-1.39384 6.80283,-3.48126 0.80737,-3.08738 3.09756,-0.62517 6.54175,7.03312 1.6078,3.575 4.56938,8.23887 6.5813,10.36415 l 3.65804,3.86415 -3.25903,-1.6445 c -3.36181,-1.69636 -6.16569,-1.10425 -7.94814,1.67846 -0.56658,0.88453 -1.96735,0.0963 -4.90865,-2.76226 z M 453.96961,119.12004 c -2.60084,-3.79937 -5.60602,-6.9233 -7.42036,-7.71358 -2.37297,-1.0336 -2.59459,-1.33686 -0.99925,-1.36732 2.71044,-0.0517 4.45,-1.90434 4.45,-4.73914 0,-2.75231 0.68218,-2.8436 4.0608,-0.54341 6.41838,4.36967 11.30712,9.04973 13.07942,12.52111 l 1.92869,3.7777 -2.50929,-0.62979 c -1.92904,-0.48416 -3.16943,0.0303 -5.3641,2.22502 l -2.85481,2.85481 -4.3711,-6.3854 z M 33.585508,123.86165 C 34.53838,122.31987 31.125012,118 28.953894,118 c -1.881,0 -1.906478,-0.14273 -0.428199,-2.39887 2.928943,-4.47013 10.886634,-6.28133 20.307023,-4.62195 8.29454,1.46107 11.861911,2.78265 12.582897,4.66151 0.445948,1.16212 -0.03803,1.10472 -2.387616,-0.28322 -2.816697,-1.66387 -3.037123,-1.65919 -4.98747,0.10585 C 52.918238,116.47898 52,118.16679 52,119.214 c 0,1.04722 -0.386586,1.66511 -0.859079,1.37309 -0.472494,-0.29201 -4.747803,0.53896 -9.500688,1.84661 -4.752885,1.30765 -8.377511,1.95022 -8.054725,1.42795 z m 326.114962,-8.53729 c -0.2898,-0.4689 -1.04247,-3.69572 -1.67261,-7.17072 -1.43168,-7.89527 -2.67496,-10.663101 -5.39194,-12.003769 -1.88051,-0.92792 -1.71871,-1.029788 1.35313,-0.851909 2.76584,0.160159 3.69628,-0.265126 4.48875,-2.051714 0.54983,-1.239564 1.41172,-2.116409 1.91531,-1.948546 1.83197,0.610659 7.89614,14.099498 8.35776,18.590608 0.42672,4.15161 0.33149,4.42625 -0.95453,2.75295 -1.82433,-2.37373 -4.91263,-1.79244 -6.40754,1.20605 -0.63878,1.28128 -1.39853,1.94596 -1.68833,1.47705 z"
       id="path2991"
       style="fill:#0000fe" />
    <path
       d="m 20.26195,242.25236 c 13.643528,-0.3063 13.757415,-0.32807 13.234978,-2.53066 C 33.207093,238.49977 30.078314,223.325 26.544085,206 17.326518,160.81494 17.156499,160.07514 15.240091,156.81327 c -1.664483,-2.83308 -1.659877,-3.0207 0.105992,-4.31802 1.776067,-1.30481 4.613778,-10.22867 6.11983,-19.24525 0.677858,-4.05827 0.596825,-4.25 -1.796228,-4.25 -3.860698,0 -5.61321,-0.99011 -7.20667,-4.07152 -2.190993,-4.23691 -1.84098,-7.63472 0.97664,-9.4809 1.427824,-0.93554 2.210911,-2.19462 1.888124,-3.03579 C 14.546418,110.3756 16.827171,108 19.563428,108 c 1.275196,0 2.596653,-0.45 2.936572,-1 0.889595,-1.4394 2.743189,-1.23419 2.258224,0.25 -0.224643,0.6875 -1.766761,1.7 -3.426928,2.25 -3.641566,1.20642 -4.236713,2.87225 -1.194243,3.3427 1.218951,0.18849 3.309811,1.05922 4.646355,1.93495 2.23677,1.46559 2.505091,1.45821 3.373038,-0.0927 2.444715,-4.36846 11.344951,-6.29557 21.217776,-4.59415 8.989702,1.54924 12.088762,3.08701 13.325177,6.61206 1.066631,3.04099 10.182212,38.22685 10.957902,42.29716 0.651362,3.41792 -1.810035,10.5 -3.649306,10.5 -1.005355,0 -1.699976,-1.51487 -2.155803,-4.7015 -0.728407,-5.0922 -14.214308,-40.50345 -16.202736,-42.54511 -1.14408,-1.17471 -5.643252,-0.32777 -17.998138,3.38803 -2.14029,0.6437 -5.335141,7.43511 -9.136611,19.42201 -4.639041,14.62795 -4.616237,13.41687 -0.605782,32.17199 l 3.691728,17.26458 34.250494,0.26319 34.250494,0.26318 -0.30082,-51.01362 C 95.50334,93.565458 95.522204,92.999117 97.5,92.999296 c 1.984664,1.79e-4 1.997804,0.571439 1.713622,74.500444 L 98.927244,242 l 16.055426,0 16.05543,0 -0.53407,-2.25 c -0.29374,-1.2375 -3.42572,-16.425 -6.95995,-33.75 -3.53422,-17.325 -7.17828,-34.875 -8.0979,-39 -0.91961,-4.125 -1.89916,-8.51509 -2.17678,-9.75575 -0.65819,-2.94145 1.5401,-5.53769 4.16978,-4.92464 1.13345,0.26424 6.56082,2.47651 12.06082,4.91617 l 10,4.43574 2.5,-5.08576 c 2.92226,-5.94477 5.68587,-6.93345 10.15166,-3.63176 2.36687,1.74991 2.97845,1.87052 3.43619,0.67765 0.30627,-0.79812 -0.1507,-2.8194 -1.0155,-4.49173 -1.76269,-3.40868 -1.90873,-4.14276 -0.82235,-4.1336 1.2578,0.0106 4.25,6.00606 4.25,8.5157 0,1.29797 -0.45,2.63806 -1,2.97798 -0.55,0.33992 -1,1.87173 -1,3.40403 0,1.5323 -0.86432,3.5682 -1.92072,4.52422 -1.88494,1.70585 -1.86619,1.81585 1.0063,5.90499 3.15434,4.49035 6.91442,16.13512 6.91442,21.41358 l 0,3.25318 8.5,0 c 5,0 8.5,0.41176 8.5,1 0,0.58716 -3.46166,1 -8.38499,1 -7.72583,0 -8.50748,0.18694 -9.94314,2.37804 -0.95935,1.46414 -2.98847,2.64637 -5.27994,3.07626 -3.17133,0.59494 -4.36725,0.24323 -8.08609,-2.37805 C 143.20767,197.1876 142.38786,197 133.86236,197 l -9.07918,0 0.69257,2.75 C 126.15004,202.4274 134,241.04003 134,241.67933 134,241.8557 159.45532,242 190.56739,242 c 53.40311,0 56.53859,-0.0979 56.05268,-1.75 -0.28309,-0.9625 -2.4204,-11.3125 -4.74959,-23 -3.71603,-18.64643 -4.46566,-21.25 -6.11843,-21.25 -1.03594,0 -2.75395,-0.46583 -3.81779,-1.03518 -1.63163,-0.87322 -1.93426,-0.70112 -1.93426,1.1 0,3.28189 -5.84713,8.36957 -12.5,10.87644 -7.81253,2.94384 -17.4772,3.29375 -20.30481,0.73514 -4.16516,-3.76892 -3.64518,-7.58979 2.06144,-15.14745 11.63596,-15.41032 22.6303,-30.43822 23.60648,-32.26714 0.65704,-1.23101 2.30663,-2.51729 3.66575,-2.85841 C 227.93872,157.04955 229,156.0567 229,155.09159 229,152.87465 230.93869,151 233.23138,151 c 2.40265,0 3.14752,2.16676 2.29926,6.68834 -0.52828,2.81601 -0.91929,3.33936 -1.67538,2.24247 -0.76414,-1.10856 -0.87614,-0.98036 -0.49726,0.56919 0.26895,1.1 1.28566,5.81495 2.25935,10.47767 1.45185,6.95254 2.29138,8.9161 4.66666,10.91477 2.94124,2.47488 3.3227,5.60719 1.26138,10.35756 -1.34827,3.10714 2.39923,2.0108 4.25112,-1.24368 0.93692,-1.64652 2.04099,-2.99652 2.45349,-3 1.17598,-0.01 0.88403,1.43421 -0.7182,3.55255 -0.8075,1.06762 -1.4825,2.27863 -1.5,2.69113 -0.0175,0.4125 4.9182,0.75 10.9682,0.75 6.66667,0 11,0.39394 11,1 0,0.61768 -5.2028,1 -13.60841,1 l -13.60841,0 0.69257,2.75 C 242.15004,202.4274 250,241.04003 250,241.67933 250,241.8557 266.43357,242 286.51905,242 l 36.51905,0 -0.53407,-2.25 c -0.53534,-2.25534 -12.65482,-61.41693 -14.69826,-71.75 -0.59822,-3.025 -1.40879,-5.86205 -1.80127,-6.30455 C 305.35921,160.96792 288.57039,156 286.75703,156 286.34066,156 286,157.94656 286,160.32569 c 0,6.65516 -4.89339,10.40728 -10.00505,7.67161 -3.27597,-1.75325 -3.62518,1.08844 -0.44534,3.62396 3.75226,2.99195 2.50744,4.22013 -1.371,1.35267 -2.74049,-2.02613 -2.97905,-2.69271 -2.98418,-8.33806 -0.003,-3.37473 0.45704,-6.69837 1.02245,-7.38587 0.71609,-0.87072 0.68066,-1.25 -0.11678,-1.25 -0.62963,0 -3.10876,-1.81033 -5.50917,-4.02295 -5.4224,-4.99819 -8.71124,-12.35162 -8.87831,-19.85076 -0.1164,-5.22482 0.36471,-6.48257 6.74234,-17.62629 3.77723,-6.6 8.58373,-15.6 10.68112,-20 2.6287,-5.514627 5.0882,-9.047576 7.9167,-11.371973 6.344,-5.213346 6.96061,-3.016844 2.11525,7.534957 -2.23187,4.860359 -5.45924,12.662016 -7.17194,17.337016 -1.7127,4.675 -3.6765,9.4 -4.36401,10.5 -0.68751,1.1 -2.03331,4.09851 -2.99067,6.66336 -1.5411,4.12874 -1.57874,5.04589 -0.32834,8 0.77676,1.83515 3.86966,5.92136 6.87309,9.08047 5.12204,5.38751 6.11571,5.95166 16.01836,9.09426 6.70792,2.12876 11.74336,3.17641 13.80955,2.87315 3.18235,-0.46707 3.24159,-0.40655 2.76713,2.82621 -0.2723,1.8553 1.11594,10.79091 3.16672,20.38303 l 3.65157,17.07952 17.70025,0.27307 C 344.96819,194.93766 352,195.43425 352,196.02307 352,196.62199 345.1866,197 334.39159,197 l -17.60841,0 0.69257,2.75 C 318.15004,202.4274 326,241.04003 326,241.67933 326,241.8557 339.50857,242 356.01905,242 l 30.01905,0 -0.53407,-2.25 c -0.29374,-1.2375 -3.42612,-16.425 -6.96085,-33.75 -9.46351,-46.38412 -9.19712,-45.27358 -11.21418,-46.75072 -1.4649,-1.07277 -1.829,-2.70865 -1.829,-8.21748 0,-4.31687 0.31773,-6.31248 0.85326,-5.3592 0.4693,0.83537 0.54942,3.95078 0.17805,6.92313 -0.37137,2.97235 -0.30269,5.40427 0.15262,5.40427 1.76892,0 3.54691,-6.25965 3.04438,-10.71811 -0.31605,-2.80392 -0.17627,-4.01986 0.36401,-3.16675 0.48238,0.76167 0.88395,3.29736 0.89237,5.63486 0.008,2.3375 0.4398,4.25 0.95862,4.25 0.51883,0 0.904,2.1375 0.85595,4.75 -0.048,2.6125 0.59875,7.45 1.43734,10.75 0.83859,3.3 2.33594,10.3875 3.32744,15.75 l 1.80275,9.75 11.8166,0 c 7.21107,0 11.81661,0.38975 11.81661,1 0,0.60924 -4.53614,1 -11.60841,1 l -11.60841,0 0.69257,2.75 C 381.15004,202.4274 389,241.04003 389,241.67933 389,241.8557 403.18357,242 420.51905,242 l 31.51905,0 -0.53407,-2.25 c -0.29374,-1.2375 -3.42572,-16.425 -6.95995,-33.75 -3.53422,-17.325 -7.18385,-34.875 -8.11027,-39 -3.01743,-13.43542 -3.01965,-13 0.0662,-13 2.49376,0 2.6872,0.27117 2.26167,3.17048 -0.25593,1.74376 1.17814,10.85626 3.18683,20.25 l 3.65215,17.07952 34.17247,0.2631 34.17248,0.26309 -0.0145,-27.39581 c -0.0133,-25.25354 -0.15737,-27.52514 -1.84202,-29.04973 -1.74232,-1.57678 -1.89937,-1.36068 -3.36682,4.63271 -0.84658,3.45765 -1.81281,8.08664 -2.14718,10.28664 -0.57401,3.77684 -0.42569,4.08369 2.65848,5.5 2.85984,1.3133 3.2664,1.97726 3.2664,5.33448 0,2.10896 -0.63257,4.35896 -1.4057,5 -4.19189,3.47564 -40.42495,-3.14075 -51.66063,-9.43357 -11.58774,-6.48999 -11.02184,-10.29286 1.02849,-6.91153 11.34127,3.18237 32.189,7.01062 38.17811,7.01062 5.92744,0 5.42536,0.72771 7.90672,-11.45981 0.89133,-4.37789 2.46419,-10.17993 3.49523,-12.89342 1.42377,-3.74706 1.61851,-5.41219 0.8097,-6.92345 -1.35502,-2.53189 -0.26492,-9.60948 1.83798,-11.93315 1.33098,-1.47073 1.50775,-3.59559 1.06908,-12.85074 -0.51694,-10.906288 -0.48687,-11.106288 1.82811,-12.161062 1.74281,-0.794079 2.73993,-0.751851 3.8419,0.162701 1.22791,1.019069 1.38125,3.231265 0.87664,12.647021 -0.64298,11.9979 -0.66936,11.91858 3.81913,11.48542 1.03566,-0.0999 2.21403,1.31596 3.25,3.90509 1.87672,4.69038 1.92688,5.0214 0.76094,5.0214 -0.47537,0 -1.59515,-1.6875 -2.4884,-3.75 -1.20848,-2.79036 -1.49939,-3.06682 -1.1368,-1.08032 0.2751,1.50718 -0.41212,4.7679 -1.5782,7.48826 -1.40159,3.26977 -1.86819,5.87024 -1.45168,8.09045 0.38289,2.04097 -0.34447,7.24833 -1.93341,13.84178 C 517.0313,160.03022 517,160.66291 517,201.08005 L 517,242 l 18.5,0 18.5,0 0,-22.5 0,-22.5 -8,0 c -4.66667,0 -8,-0.41667 -8,-1 0,-0.58384 3.34963,-1 8.04889,-1 l 8.04889,0 -0.15245,-51.09644 c -0.10182,-34.12516 0.19176,-51.440647 0.88389,-52.132779 2.03645,-2.036455 4.04328,0.228653 8.45632,9.544689 l 4.47739,9.45185 4.14006,0.39482 c 2.27703,0.21715 4.55012,-0.0152 5.05131,-0.51644 1.32226,-1.32226 3.67862,-0.13556 5.62289,2.83176 2.33196,3.55902 0.94908,4.4613 -1.69187,1.10388 -2.46235,-3.13037 -3.40204,-2.55772 -4.1717,2.54225 -0.47959,3.17788 -0.17502,3.8985 2.47614,5.85859 1.85655,1.3726 4.33132,5.10592 6.4137,9.67541 3.09267,6.78642 5.15552,9.21609 23.46812,27.64142 22.20401,22.34068 25.5551,26.75581 21.49129,28.31524 -1.75885,0.67493 -39.89067,-31.15189 -50.24057,-41.93343 -7.66189,-7.98144 -11.80676,-14.72023 -10.98556,-17.86051 0.35192,-1.34576 -0.1649,-2.18468 -1.7071,-2.77102 -3.47164,-1.31992 -4.90753,-3.70252 -4.38343,-7.27349 0.42082,-2.8672 -0.24443,-5.43467 -4.73541,-18.2758 -0.56273,-1.609028 -0.48853,-1.706771 0.37954,-0.5 0.59345,0.825 2.04997,4.425 3.23671,8 1.87497,5.64824 8.66378,20 9.46059,20 0.15519,0 1.43646,-0.43886 2.84726,-0.97525 2.85054,-1.08377 3.53853,-4.71398 1.07271,-5.6602 -2.15039,-0.82518 -10.00237,-12.98937 -14.07624,-21.806715 -2.45804,-5.320113 -4.00111,-7.523489 -5.21165,-7.441834 -1.31974,0.08902 -1.37085,0.211101 -0.21972,0.524886 1.31958,0.359705 1.46488,9.365103 1.20801,74.872213 l -0.292,74.46334 38.792,0.27387 C 617.0436,242.40094 493.2,242.53254 320.5,242.54275 147.8,242.55295 12.692877,242.42228 20.26195,242.25236 z M 96,219.5 96,197 l -34.108408,0 -34.108408,0 0.69257,2.75 C 29.150041,202.4274 37,241.04003 37,241.67933 37,241.8557 50.275,242 66.5,242 l 29.5,0 0,-22.5 z m 418,0 0,-22.5 -34.10841,0 -34.10841,0 0.69257,2.75 C 447.15004,202.4274 455,241.04003 455,241.67933 455,241.8557 468.275,242 484.5,242 l 29.5,0 0,-22.5 z M 217.79914,205.79129 c 2.91453,-1.08447 6.47723,-2.98511 7.91712,-4.22365 2.45103,-2.10829 2.62869,-2.85186 2.78589,-11.65977 0.0924,-5.17433 0.90522,-12.12681 1.80638,-15.44995 1.38085,-5.09206 1.4461,-6.8198 0.41497,-10.98836 -1.26295,-5.10576 -3.50048,-6.79654 -5.65778,-4.27527 -0.61447,0.71814 -6.251,8.28071 -12.52562,16.80571 -6.27462,8.525 -12.31762,16.67152 -13.42889,18.10339 -3.74818,4.82951 -4.46965,7.37791 -2.97009,10.491 0.74738,1.55157 2.48388,3.14589 3.85888,3.54294 3.54484,1.02361 11.59463,-0.0374 17.79914,-2.34604 z M 198.7921,205.75 c -0.87458,-0.6875 -1.84364,-2.375 -2.15345,-3.75 -0.5172,-2.29537 -0.46894,-2.27547 0.58964,0.24311 2.0039,4.76771 6.62842,4.72146 9.06635,-0.0907 3.55647,-7.01994 18.3016,-31.98126 20.3675,-34.47917 1.28582,-1.55469 2.33786,-3.54219 2.33786,-4.41666 0,-0.87447 0.22891,-1.36104 0.50868,-1.08126 0.83429,0.83428 -5.81853,20.01881 -8.35933,24.10555 -2.88547,4.6411 -2.32528,8.20714 1.4376,9.15157 1.51972,0.38142 3.29334,0.13794 4.2587,-0.58464 1.53839,-1.15149 1.53856,-1.11133 0.003,0.57301 -2.47193,2.71066 -7.02002,0.92131 -8.4203,-3.31279 -0.9467,-2.86258 -1.22651,-3.05565 -2.3925,-1.65072 -0.72622,0.87505 -1.55348,1.35793 -1.83834,1.07307 C 213.63391,190.96724 207,201.53324 207,202.99338 207,204.08276 202.97258,207 201.46862,207 c -0.5975,0 -1.80193,-0.5625 -2.67652,-1.25 z m 23.01886,-21.98277 C 223.12657,181.21208 226.97023,169 226.45884,169 c -0.29393,0 -8.09993,13.59676 -11.41402,19.88134 l -1.25577,2.38134 3.42727,-2.61411 c 1.885,-1.43776 3.95259,-3.63436 4.59464,-4.88134 z m -65.38239,16.66134 C 159.16646,197.69068 158.17361,197 151.5,197 c -3.575,0 -6.5,0.18081 -6.5,0.4018 0,0.86938 6.59824,4.56549 8.17857,4.58135 0.92322,0.009 2.38572,-0.69029 3.25,-1.55458 z m 4.00672,-3.32661 c -0.62769,-0.62769 -2.41268,1.9121 -2.38817,3.39804 0.009,0.55 0.67253,0.13285 1.47435,-0.927 0.80183,-1.05985 1.21305,-2.17182 0.91382,-2.47104 z M 134.20752,187.25 c -3.85241,-4.2625 -8.16202,-8.82867 -9.57693,-10.14705 -1.4149,-1.31838 -3.08046,-3.93603 -3.70123,-5.817 -2.17949,-6.60392 -1.90155,-2.50525 0.63038,9.29601 1.40635,6.55492 2.74161,12.48054 2.96724,13.16804 0.28356,0.86398 2.92318,1.25 8.54758,1.25 l 8.13733,0 -7.00437,-7.75 z M 157,194.06739 c 0,-0.51294 -1.0125,-1.24619 -2.25,-1.62946 -2.44732,-0.75795 -12.29547,-9.21394 -25.84087,-22.18793 -4.73734,-4.5375 -8.9049,-8.25 -9.26124,-8.25 -1.19889,0 -0.6617,2.71455 1.50776,7.61896 1.29229,2.92145 5.97456,8.97996 11.69086,15.12712 L 142.38172,195 l 7.30914,0 C 153.71089,195 157,194.58032 157,194.06739 z m 4,-2.32057 c 0,-4.51358 -3.44194,-16.1078 -6.02043,-20.27987 C 152.78087,167.90937 151,166.9598 151,169.34501 c 0,2.31312 -3.66522,4.89602 -5.92834,4.17774 -3.07056,-0.97456 -2.63589,1.43258 1.28902,7.13839 1.84837,2.68706 3.68112,5.8952 4.07278,7.1292 0.39322,1.23893 2.24682,2.88489 4.13932,3.67562 1.88497,0.78759 3.42722,1.90495 3.42722,2.48301 0,0.57807 0.675,1.05103 1.5,1.05103 1.02594,0 1.5,-1.02813 1.5,-3.25318 z m 72.6129,-3.18824 c 1.53645,-1.07617 1.94416,-2.21644 1.60901,-4.5 C 234.36843,178.24348 229,181.1561 229,187.43426 c 0,2.88303 1.55936,3.2631 4.6129,1.12432 z M 630.95808,186.75 c -0.10364,-3.09076 -4.58465,-8.34091 -19.96396,-23.39064 -17.48478,-17.11008 -21.63531,-20.15694 -25.00315,-18.35453 -4.89705,2.62083 -3.28199,4.40549 27.00903,29.84538 14.91623,12.52738 18.04873,14.60312 17.95808,11.89979 z M 145.57775,180.97671 C 143.60999,178.11608 142,175.02911 142,174.11676 c 0,-2.69166 -3.90124,-5.9304 -13.99951,-11.62216 -7.65329,-4.31368 -9.65589,-5.07486 -10.30412,-3.91652 -0.97907,1.74949 0.0442,3.70027 1.47664,2.81499 0.56915,-0.35175 4.47555,2.70722 8.6809,6.7977 11.34358,11.03375 20.31295,18.9757 20.83778,18.45087 0.25509,-0.25509 -1.14618,-2.80431 -3.11394,-5.66493 z m 88.32257,-2.84334 c -0.0548,-0.89835 -0.43242,-2.75837 -0.8391,-4.13337 -0.69964,-2.36551 -0.80157,-2.28481 -1.89474,1.5 -1.52134,5.26723 -1.49832,5.39954 0.83352,4.78975 1.1,-0.28766 1.95514,-1.25803 1.90032,-2.15638 z M 148.8,171.8 c 1.91251,-1.91251 1.39425,-4.76248 -1.05,-5.77409 -1.2375,-0.51217 -8.1,-3.47321 -15.25,-6.5801 -7.15,-3.10688 -14.125,-5.81202 -15.5,-6.01142 -1.375,-0.19941 -1.7125,-0.12072 -0.75,0.17485 0.9625,0.29557 1.75,0.93847 1.75,1.42866 0,0.49018 4.91608,3.64425 10.92461,7.00903 6.00854,3.36478 11.17357,6.76653 11.47784,7.55945 0.52606,1.37088 3.89158,3.19405 6.14755,3.33023 0.5775,0.0349 1.59,-0.47661 2.25,-1.13661 z m 360.62122,-3.03504 c 1.46744,-0.33034 1.93982,-1.33915 2,-4.27114 0.0706,-3.4403 -0.26692,-3.98016 -3.25251,-5.20227 -1.83221,-0.74999 -3.07229,-0.94456 -2.75574,-0.43237 2.55214,4.12945 -22.56969,1.41035 -44.92478,-4.86249 -7.94241,-2.22865 -9.66552,-2.12022 -7.51352,0.47279 3.05707,3.68355 12.18564,7.42792 26.52533,10.88021 19.45782,4.68449 22.65969,5.04995 29.92122,3.41527 z M 72.045635,164.83052 c 0.617498,-2.29321 0.892439,-5.10571 0.610979,-6.25 -0.281459,-1.14428 -2.75676,-10.60867 -5.500668,-21.03197 -4.352922,-16.53547 -5.333422,-19.2024 -7.691236,-20.91995 -3.125445,-2.27673 -5.755788,-1.33144 -6.289061,2.26016 -0.178394,1.20148 3.147841,11.01806 7.391633,21.81463 4.243792,10.79657 7.935773,21.58009 8.204404,23.96337 0.616124,5.46624 1.829794,5.52695 3.273949,0.16376 z m 76.758795,-3.46513 c 0.19726,-1.38316 -0.68063,-2.90945 -2.49378,-4.33567 l -2.79821,-2.20108 -1.34121,3.28695 c -1.20253,2.94706 -1.15222,3.42514 0.48652,4.62342 2.58929,1.89333 5.78253,1.17973 6.14668,-1.37362 z M 285,159.5 c 0,-4.02899 -0.24074,-4.5 -2.3,-4.5 -4.61565,0 -6.03088,3.66912 -2.7,7 3.39136,3.39136 5,2.58704 5,-2.5 z m 20.28934,-1.50158 c -0.40332,-1.54229 -3.00852,-2.78849 -11.35349,-5.43096 -5.95654,-1.88615 -12.1426,-4.39977 -13.7468,-5.58581 -3.80675,-2.81445 -7.36121,-2.30283 -8.60132,1.23807 -0.76112,2.17323 -0.56574,3.1471 0.97235,4.84666 1.61339,1.78278 2.65424,2.03114 6.43239,1.53482 3.31241,-0.43514 7.2915,0.17671 15.00753,2.30763 5.775,1.59486 10.79537,2.94282 11.15638,2.99546 0.36101,0.0526 0.42084,-0.805 0.13296,-1.90587 z M 235,155 c 0,-2.47882 -0.39089,-2.97985 -2.25,-2.884 -1.69317,0.0873 -1.81691,0.22918 -0.5,0.57333 1.06026,0.27707 1.75,1.41376 1.75,2.88399 0,1.33468 0.225,2.42668 0.5,2.42668 0.275,0 0.5,-1.35 0.5,-3 z M 18.505681,154 c 2.087187,0 2.669724,-1.06449 5.410709,-9.88713 1.689433,-5.43792 4.420102,-12.45049 6.068155,-15.58349 C 33.24346,122.33408 32.86883,119 28.91379,119 c -2.582374,0 -4.374947,4.22471 -6.913454,16.29352 -2.750549,13.07692 -3.923648,16.73982 -5.562603,17.36875 -0.790753,0.30344 -1.402207,1.29106 -1.358786,2.19472 0.04985,1.03753 0.264824,1.18236 0.583334,0.39301 0.277412,-0.6875 1.556942,-1.25 2.8434,-1.25 z M 271.65499,153.17126 C 270.74474,152.16545 270,150.69058 270,149.89377 270,147.17295 273.05641,144 275.67729,144 c 2.49498,0 2.45383,-0.10679 -1.53115,-3.97409 -2.25227,-2.18575 -4.36713,-5.05822 -4.6997,-6.38327 -0.54891,-2.18705 -0.86659,-2.31032 -3.44538,-1.33694 C 262.91643,133.47002 260,132.04698 260,129.37756 260,128.6199 259.50777,128 258.90616,128 c -1.58298,0 -0.14761,9.43317 2.3192,15.24164 1.10756,2.60791 3.76124,6.32041 5.89707,8.25 4.05316,3.66179 7.47341,4.92922 4.53256,1.67962 z m 248.32607,-18.0561 c -0.84023,-2.35426 -1.09736,-9.35256 -0.84455,-22.98531 0.35215,-18.98899 0.30109,-19.608185 -1.63651,-19.84753 -1.1,-0.135878 -1.55,-0.03025 -1,0.23472 0.63949,0.308088 0.9452,11.56767 0.84799,31.23237 l -0.152,30.75059 1.99655,-8 c 1.67541,-6.71322 1.80224,-8.54444 0.78852,-11.38484 z m 66.05274,8.86675 c 1.45468,-0.77852 2.77363,-0.62607 5.20717,0.60189 l 3.25903,1.6445 -3.65804,-3.86415 c -2.01192,-2.12528 -4.9735,-6.78915 -6.5813,-10.36415 -3.44419,-7.65829 -5.73438,-10.1205 -6.54175,-7.03312 -0.54587,2.08742 -5.20244,4.47035 -6.80283,3.48126 -1.60692,-0.99314 -0.98622,2.49317 1.2181,6.8417 2.79988,5.52342 10.06991,12.67212 11.15865,10.97242 0.43605,-0.68075 1.66949,-1.70691 2.74097,-2.28035 z M 513.76094,132.75 c -0.36776,-2.18805 -0.41502,-2.17509 -1.71658,0.47039 -1.12677,2.29023 -1.1175,2.98834 0.0586,4.41501 1.29153,1.56667 1.42115,1.53115 1.71657,-0.47038 0.17575,-1.19076 0.14938,-3.17752 -0.0586,-4.41502 z m -247.16923,-1.51531 c 0.60043,-0.40408 1.9239,-2.98469 2.94103,-5.73469 1.01712,-2.75 2.41183,-5.9 3.09934,-7 0.68751,-1.1 2.65131,-5.825 4.36401,-10.5 1.7127,-4.675 4.93534,-12.466388 7.16143,-17.314195 2.22608,-4.847808 3.79142,-9.070194 3.47854,-9.383081 -1.4556,-1.455593 -8.40077,6.615275 -11.72655,13.627221 -1.97478,4.16353 -6.55545,12.852215 -10.17928,19.308185 -6.46039,11.50939 -6.5595,11.79682 -5.08627,14.75 1.45484,2.91629 3.69515,3.76249 5.94775,2.24656 z M 514,126 c 0,-2.88889 -0.41667,-4 -1.5,-4 -1.55066,0 -2.03104,3.45256 -0.89301,6.41821 C 512.72443,131.33021 514,130.0412 514,126 z M 23.789259,124.335 C 25.068603,120.16651 24.680342,119 22.013563,119 19.79022,119 16,123.49695 16,126.13486 16,127.58189 16.746978,128 19.332219,128 c 2.965553,0 3.45599,-0.40328 4.45704,-3.665 z m 27.351662,-3.74791 C 51.613414,120.87911 52,120.26122 52,119.214 c 0,-1.04721 0.918238,-2.73502 2.040529,-3.75068 1.950347,-1.76504 2.170773,-1.76972 4.98747,-0.10585 2.34959,1.38794 2.833564,1.44534 2.387616,0.28322 -0.720986,-1.87886 -4.288357,-3.20044 -12.582897,-4.66151 -9.420389,-1.65938 -17.37808,0.15182 -20.307023,4.62195 C 27.047416,117.85727 27.072894,118 28.953894,118 c 2.171118,0 5.584486,4.31987 4.631614,5.86165 -0.322786,0.52227 3.30184,-0.1203 8.054725,-1.42795 4.752885,-1.30765 9.028194,-2.13862 9.500688,-1.84661 z m 515.638939,0.42233 c -2.17486,-3.80679 -2.2947,-3.87309 -2.60212,-1.43953 -0.35723,2.82788 1.30786,5.43011 3.47456,5.43011 1.06414,0 0.85134,-0.97333 -0.87244,-3.99058 z m -202.33267,15.32477 c -0.7705,-6.26286 -2.12604,-8.15564 -4.00273,-5.58912 -0.64386,0.88053 -3.14476,2.19128 -5.55756,2.91277 -5.2195,1.56077 -5.8869,1.61429 -5.8869,0.47212 0,-0.47852 2.04319,-1.4421 4.54043,-2.14128 5.46095,-1.52897 6.22821,-2.83329 5.87585,-9.98868 -0.27201,-5.52361 -3.3908,-20.53172 -4.7103,-22.666711 -1.40572,-2.274506 -12.56733,-7.816007 -30.16782,-14.977682 -14.61005,-5.944855 -18.70936,-8.056217 -21.96765,-11.31451 -3.0694,-3.069401 -3.731,-4.280609 -2.83022,-5.181386 0.90078,-0.900777 2.99706,-0.462994 8.96765,1.872776 4.28563,1.676596 16.47795,5.819966 27.09403,9.207488 15.72154,5.016638 19.989,6.779821 23.00572,9.505252 4.29353,3.878948 10.18251,15.062823 10.95189,20.798943 0.30406,2.26695 1.5356,4.9601 2.88544,6.30995 3.30716,3.30715 3.26211,9.62966 -0.0925,12.98429 -1.82903,1.82902 -2.54036,3.77591 -2.81501,7.70454 -0.20214,2.89138 -0.45077,0.0367 -0.55251,-6.34373 C 368.97701,116.85699 367.80815,112 364.87742,112 c -3.02256,0 -4.37131,4.74108 -2.47814,8.7111 1.51796,3.18321 4.11838,20.10458 3.22663,20.99632 -0.25353,0.25353 -0.78395,-2.16442 -1.17872,-5.37323 z m 8.57547,-19.29185 C 372.42149,115.91905 371.31329,115 370.55997,115 c -1.92794,0 -0.85018,8.08176 1.30718,9.80204 1.44066,1.14878 1.66908,0.88894 1.94069,-2.20767 0.16931,-1.93033 -0.18402,-4.42875 -0.78518,-5.55203 z m -8.56364,-5.89222 c 1.04983,-0.20218 2.55163,0.46883 3.33732,1.49114 1.28602,1.6733 1.38125,1.39866 0.95453,-2.75295 -0.46162,-4.49111 -6.52579,-17.979949 -8.35776,-18.590608 -0.50359,-0.167863 -1.36548,0.708982 -1.91531,1.948546 -0.79247,1.786588 -1.72291,2.211873 -4.48875,2.051714 -3.07184,-0.177879 -3.23364,-0.07601 -1.35313,0.851909 2.71698,1.340668 3.96026,4.108499 5.39194,12.003769 1.41949,7.82803 1.89513,8.6338 3.36094,5.69367 0.63879,-1.28127 2.02039,-2.49501 3.07022,-2.69719 z m -6.26696,-19.143962 c 1.4319,-3.865079 -1.31897,-5.343067 -22.55822,-12.120087 -10.52361,-3.357874 -22.62952,-7.472739 -26.90201,-9.144143 -4.2725,-1.671404 -8.075,-2.732094 -8.45,-2.357089 -0.37501,0.375005 0.88933,2.252983 2.80963,4.173284 2.64846,2.648468 7.90456,5.283206 21.76947,10.912451 10.0529,4.081547 19.5623,8.232892 21.13198,9.22521 1.5841,1.001428 4.72751,1.804216 7.06462,1.804216 3.57493,0 4.35013,-0.376513 5.13453,-2.493842 z m 101.47461,47.327172 c -1.47635,-1.47635 -0.51224,-2.25244 2.13934,-1.72213 6.15578,1.23116 6.06245,-7.17218 -0.10443,-9.40215 -2.38408,-0.86209 -4.69357,-3.17755 -8.00866,-8.02934 -5.25754,-7.69469 -2.96507,-6.54106 -40.66394,-20.463234 -13.28201,-4.905043 -17.29948,-6.846395 -20.75,-10.026969 -6.80395,-6.271664 -5.41813,-9.311793 2.43353,-5.338524 2.63312,1.33247 12.82266,4.515002 22.64342,7.072293 24.83673,6.467394 34.88984,10.481584 42.89892,17.129444 3.55904,2.95415 7.03727,6.73831 7.72939,8.40923 0.69212,1.67093 1.79267,3.03805 2.44568,3.03805 2.5309,0 18.31816,-6.30232 23.02402,-9.19125 3.63768,-2.23318 5.36473,-2.78212 6.5,-2.06601 3.16719,1.99781 1.25125,3.63365 -10.19472,8.70427 -6.45743,2.86067 -12.04218,5.50261 -12.41054,5.87098 -0.36836,0.36836 0.017,1.46001 0.85648,2.42588 2.55352,2.93818 3.07724,7.17618 1.23438,9.98875 -1.49321,2.27893 -2.11318,2.46618 -6.46058,1.95129 -3.65577,-0.43297 -4.94163,-0.22357 -5.36253,0.87328 -0.5619,1.46427 -6.66571,2.0602 -7.94976,0.77614 z m 17.68644,-10.17102 c 1.55486,-1.7181 1.54047,-1.94864 -0.22115,-3.54289 -1.77628,-1.60751 -2.09464,-1.60486 -5.55722,0.0463 l -3.673,1.75153 2.29913,1.76912 c 2.95895,2.27684 5.07638,2.26971 7.15224,-0.0241 z m -1.09565,-6.50449 c 6.1834,-2.93821 14.28004,-6.63834 17.99254,-8.22253 3.7125,-1.58418 6.75,-3.24432 6.75,-3.6892 0,-2.09514 -3.22296,-1.59041 -7.79051,1.22002 -6.17501,3.79953 -24.43953,10.26658 -26.62584,9.42761 -1.9405,-0.74463 -6.58365,2.10883 -6.58365,4.046 0,1.39933 1.41585,2.33432 3.75746,2.48133 0.6916,0.0434 6.3166,-2.32503 12.5,-5.26323 z m -9.69784,-2.23221 2.50929,0.62979 -1.92869,-3.7777 c -1.7723,-3.47138 -6.66104,-8.15144 -13.07942,-12.52111 C 450.68218,102.4564 450,102.54769 450,105.3 c 0,2.88371 -1.78583,4.72986 -4.45,4.60032 -1.71482,-0.0834 -1.64124,-0.21244 0.45,-0.7893 1.86962,-0.51573 2.57646,-1.46502 2.80325,-3.76472 0.29286,-2.96979 0.0578,-3.16607 -6.86224,-5.7311 -3.94102,-1.460797 -15.10248,-4.722743 -24.80325,-7.248769 -9.70077,-2.526026 -19.7603,-5.666848 -22.35452,-6.979603 C 389.27866,82.601333 389,82.552996 389,84.383638 c 0,0.761 1.71666,2.934533 3.81479,4.830071 2.82592,2.553045 8.07515,5.019788 20.25,9.515971 37.64316,13.90165 35.65362,12.91335 40.76504,20.25002 l 4.54265,6.5203 2.83893,-2.85209 c 2.18337,-2.1935 3.41836,-2.70666 5.34821,-2.2223 z"
       id="path2989"
       style="fill:#000000" />
  </g>
</svg>
