<?xml version="1.0" encoding="UTF-8" standalone="no"?>
<!-- Created with Inkscape (http://www.inkscape.org/) -->

<svg
   xmlns:dc="http://purl.org/dc/elements/1.1/"
   xmlns:cc="http://creativecommons.org/ns#"
   xmlns:rdf="http://www.w3.org/1999/02/22-rdf-syntax-ns#"
   xmlns:svg="http://www.w3.org/2000/svg"
   xmlns="http://www.w3.org/2000/svg"
   xmlns:sodipodi="http://sodipodi.sourceforge.net/DTD/sodipodi-0.dtd"
   xmlns:inkscape="http://www.inkscape.org/namespaces/inkscape"
   version="1.1"
   width="735.38123"
   height="268.16534"
   id="svg2"
   inkscape:version="0.91 r13725"
   sodipodi:docname="ub751002.svg">
  <sodipodi:namedview
     pagecolor="#ffffff"
     bordercolor="#666666"
     borderopacity="1"
     objecttolerance="10"
     gridtolerance="10"
     guidetolerance="10"
     inkscape:pageopacity="0"
     inkscape:pageshadow="2"
     inkscape:window-width="1367"
     inkscape:window-height="916"
     id="namedview11"
     showgrid="false"
     inkscape:zoom="0.7234343"
     inkscape:cx="182.9151"
     inkscape:cy="273.33961"
     inkscape:window-x="0"
     inkscape:window-y="0"
     inkscape:window-maximized="0"
     inkscape:current-layer="svg2"
     fit-margin-top="0"
     fit-margin-left="0"
     fit-margin-right="0"
     fit-margin-bottom="0" />
  <metadata
     id="metadata8">
    <rdf:RDF>
      <cc:Work
         rdf:about="">
        <dc:format>image/svg+xml</dc:format>
        <dc:type
           rdf:resource="http://purl.org/dc/dcmitype/StillImage" />
        <dc:title></dc:title>
      </cc:Work>
    </rdf:RDF>
  </metadata>
  <defs
     id="defs6" />
  <g
     id="g4152"
     transform="translate(87.28702,235.5925)">
    <path
       style="fill:#fefefe"
       d="m 116.00775,-47.131078 c -0.52612,-0.378825 -1.49091,-1.902966 -2.14399,-3.386981 -0.99784,-2.267457 -0.95578,-3.015797 0.26345,-4.6875 0.79798,-1.09411 2.45691,-3.465854 3.68653,-5.270541 2.43009,-3.566606 20.4761,-27.826134 22.1807,-29.817853 0.57621,-0.673256 1.74733,-1.078594 2.60252,-0.90076 2.11613,0.440054 1.70709,5.102091 -0.71852,8.189541 -1.62677,2.070619 -16.11835,26.551153 -19.38575,32.748206 -1.81209,3.436866 -4.35242,4.661363 -6.48494,3.125888 z m -48.027792,-5.015381 c -1.675781,-1.073194 -3.046875,-2.120775 -3.046875,-2.327953 0,-0.207179 2.742187,-0.376688 6.09375,-0.376688 6.256509,0 7.187306,0.647512 4.620534,3.214284 -1.969875,1.969885 -4.007118,1.834463 -7.667409,-0.509643 z m 68.906892,-4.288257 c -2.80164,-0.732225 -3.04654,-4.64025 -0.53391,-8.519653 1.24341,-1.919765 3.69757,-7.920169 5.45372,-13.334231 3.05308,-9.412463 3.22343,-9.699984 3.88797,-6.5625 0.43679,2.062209 0.17711,5.305491 -0.69896,8.729841 -0.76668,2.996718 -1.64436,8.270156 -1.95041,11.71875 -0.72579,8.178309 -1.50341,9.184397 -6.15841,7.967793 z m 467.10873,-11.681812 c -28.39783,-23.849897 -29.91195,-25.523016 -25.32096,-27.980044 3.15735,-1.689759 7.04847,1.166672 23.44045,17.207372 14.4181,14.109122 18.61905,19.031138 18.71621,21.928725 0.0849,2.534372 -2.85173,0.588366 -16.8357,-11.156053 z M 53.539186,-66.33915 C 48.180155,-72.102113 43.790527,-77.781966 42.579005,-80.520825 40.545136,-85.118709 40.04152,-87.6636 41.16548,-87.6636 c 0.334069,0 4.241156,3.480469 8.682412,7.734375 12.698813,12.163116 21.931454,20.090606 24.225816,20.801184 4.171819,1.292044 1.980197,2.401941 -4.742944,2.401941 l -6.852319,0 -8.939259,-9.61305 z m 90.143894,2.520169 c 0,-5.885775 5.03291,-8.616357 5.83304,-3.1647 0.31421,2.140837 -0.0681,3.20984 -1.50844,4.21875 -2.8627,2.005106 -4.3246,1.64879 -4.3246,-1.05405 z M 63.271674,-78.3255 c -1.171585,-0.470559 -2.363541,-1.463756 -2.648794,-2.207119 -0.285253,-0.743362 -5.127469,-3.932503 -10.760475,-7.086984 -5.632997,-3.154481 -10.241822,-6.111422 -10.241822,-6.570966 0,-0.459553 -0.738281,-1.062272 -1.640625,-1.339369 -0.902344,-0.277096 -0.585938,-0.350868 0.703125,-0.163921 1.289062,0.186937 7.828125,2.723006 14.53125,5.635706 6.703125,2.912709 13.136719,5.688684 14.296875,6.168844 2.291484,0.948384 2.777353,3.620231 0.984375,5.413209 -1.303725,1.303725 -2.282578,1.331953 -5.223909,0.1506 z m -69.8026354,-6.838013 c -0.2518415,-2.234325 -3.7130736,-12.343875 -7.6916286,-22.465657 -3.978555,-10.12179 -7.0969,-19.32483 -6.929656,-20.45122 0.499943,-3.36712 2.96589,-4.25333 5.895995,-2.11889 2.21045,1.6102 3.129669,4.11045 7.2105334,19.61245 2.5724137,9.77184 4.8930084,18.644705 5.1568762,19.717468 0.5646825,2.29574 -1.2749306,9.768262 -2.4047868,9.768262 -0.4286926,0 -0.9854926,-1.828088 -1.2373332,-4.062413 z m 69.2681854,-1.807265 c -1.536319,-1.123388 -1.583485,-1.571588 -0.456113,-4.334456 l 1.257384,-3.081516 2.623322,2.063512 c 4.629816,3.641813 1.316991,8.819588 -3.424593,5.35246 z M 191.49558,-87.6636 c -3.1227,-3.1227 -1.79592,-6.5625 2.53125,-6.5625 1.93056,0 2.15625,0.441572 2.15625,4.21875 0,4.7691 -1.5081,5.52315 -4.6875,2.34375 z m 13.125,-4.772972 c -7.23378,-1.997737 -10.96417,-2.571347 -14.06956,-2.163403 -3.54201,0.4653 -4.51781,0.232462 -6.03036,-1.438894 -1.44196,-1.593337 -1.62513,-2.50634 -0.91158,-4.543741 1.1626,-3.3196 4.49491,-3.79924 8.06374,-1.16069 1.50393,1.11191 7.30337,3.468428 12.88762,5.236694 7.82341,2.477315 10.26579,3.645628 10.6439,5.091525 0.26989,1.032065 0.2138,1.836103 -0.12465,1.786753 -0.33845,-0.04931 -5.04504,-1.313063 -10.45911,-2.808244 z m -56.25,-1.252041 c 0,-1.37834 -0.64663,-2.443987 -1.64062,-2.70374 -1.23461,-0.322641 -1.1186,-0.455663 0.46875,-0.537497 1.74291,-0.08981 2.10937,0.379856 2.10937,2.70375 0,1.546875 -0.21093,2.8125 -0.46875,2.8125 -0.25781,0 -0.46875,-1.02375 -0.46875,-2.275013 z m 124.12262,-4.755412 c 0.0628,-4.591775 0.46783,-7.030715 1.1677,-7.031255 1.39215,-9.3e-4 2.20968,2.21238 2.20968,5.982699 0,2.99429 -1.82458,8.057634 -2.90863,8.071669 -0.31069,0.0037 -0.52162,-3.156375 -0.46875,-7.023113 z m -329.361104,4.083853 c -0.04071,-0.847181 0.532531,-1.773075 1.273862,-2.05755 1.53652,-0.589622 2.6363,-4.023588 5.21494,-16.283198 2.37985,-11.31452 4.060388,-15.27518 6.481363,-15.27518 3.70785,0 4.059066,3.1257 1.003833,8.93379 -1.54505,2.93719 -4.105052,9.51147 -5.688895,14.60953 -2.569674,8.271221 -3.115802,9.26918 -5.07254,9.26918 -1.206054,0 -2.405614,0.527344 -2.665688,1.171875 -0.298603,0.740016 -0.500137,0.604237 -0.546875,-0.368447 z M 326.18309,-103.2886 c -1.27072,-1.27071 -0.48479,-2.05711 5.7688,-5.7723 5.16202,-3.06671 6.73894,-4.57733 8.18529,-7.84122 1.7503,-3.94977 3.05043,-5.48884 6.18527,-7.32195 1.21478,-0.71034 0.98632,0.44692 -1.0673,5.40646 -2.39045,5.77299 -3.20053,6.72319 -9.51436,11.16012 -6.9138,4.85853 -8.39225,5.53434 -9.5577,4.36889 z m -10.93751,-3.97198 c 0,-0.46584 1.3711,-4.01037 3.04688,-7.87675 2.24329,-5.17576 4.71584,-8.78945 9.375,-13.70184 5.82661,-6.1433 6.32812,-6.47308 6.32812,-4.16114 0,1.73229 -1.52628,4.15146 -4.92187,7.80119 -2.70703,2.90964 -6.51177,8.32669 -8.45498,12.03788 -3.11981,5.95831 -5.37315,8.43287 -5.37315,5.90066 z m -43.15395,-0.79365 c -0.19839,-4.81919 -2.14109,-15.49614 -3.29006,-18.08202 -1.79021,-4.02901 -0.61046,-8.40235 2.26659,-8.40235 2.77825,0 3.86492,4.6522 3.86492,16.54615 0,8.83398 -0.23884,10.64135 -1.40625,10.64135 -0.77343,0 -1.41927,-0.31641 -1.4352,-0.70313 z m 289.77075,-9.79273 c -3.55813,-6.78792 -8.46283,-19.60811 -9.1463,-23.90715 -0.27056,-1.70178 -1.14359,-3.17398 -2.02034,-3.40687 -1.37515,-0.36529 -1.36768,-0.422 0.0683,-0.51887 1.13488,-0.0766 2.58151,1.98911 4.88592,6.97672 3.81925,8.26626 11.18049,19.67018 13.19648,20.44379 2.3117,0.88709 1.66671,4.29041 -1.00567,5.30644 -1.32263,0.50287 -2.52381,0.9143 -2.66928,0.9143 -0.14547,0 -1.63458,-2.61376 -3.30915,-5.80836 z m -68.27239,2.07137 c -6.81865,-0.77533 -7.73272,-1.31318 -4.85189,-2.85495 1.5993,-0.85592 2.88499,-0.86364 5.47092,-0.0329 2.30755,0.74135 4.79354,0.81321 7.83344,0.22643 4.30204,-0.8304 4.45312,-0.78414 4.45312,1.36315 0,2.48438 -1.31258,2.61642 -12.90559,1.29822 z m 65.45265,-0.42507 c -0.61603,-0.74225 -0.98409,-2.42578 -0.81793,-3.74117 0.28821,-2.28146 0.40056,-2.21931 2.43949,1.34956 1.61605,2.82867 1.81555,3.74117 0.81791,3.74117 -0.72569,0 -1.82346,-0.6073 -2.43947,-1.34956 z m -385.69334,-2.41157 c -1.38116,-2.7686 -1.28824,-3.03807 4.76837,-13.82812 3.39734,-6.05248 7.69172,-14.19812 9.54308,-18.10143 3.11792,-6.5737 9.62901,-14.14013 10.99364,-12.77552 0.29332,0.29334 -1.17418,4.25182 -3.26113,8.79664 -2.08696,4.54482 -5.10819,11.84925 -6.71384,16.23206 -1.60566,4.38281 -3.44672,8.8125 -4.09126,9.84375 -0.64454,1.03125 -1.95208,3.98437 -2.90563,6.5625 -2.56793,6.94285 -5.85712,8.2336 -8.33323,3.27012 z m 280.64628,-1.75832 c -11.54296,-4.29424 -38.782,-16.20438 -40.54687,-17.72893 -0.90235,-0.77947 -1.64063,-2.60942 -1.64063,-4.06656 0,-4.40588 3.23037,-4.41627 17.23079,-0.0554 6.76526,2.10725 17.99578,5.38513 24.95671,7.28417 6.96094,1.89903 12.96875,3.73202 13.35069,4.0733 0.38193,0.34127 0.0134,1.59277 -0.81892,2.7811 -1.92602,2.74978 -1.36341,2.86578 -28.42493,-5.86062 -12.09282,-3.8995 -22.14569,-6.93125 -22.33974,-6.7372 -0.3092,0.3092 9.36545,3.5013 36.8306,12.15206 6.55034,2.06317 7.72524,2.77444 9.24528,5.59698 1.57966,2.93325 1.50411,5.33985 -0.16393,5.22248 -0.35629,-0.0251 -3.81186,-1.22269 -7.67905,-2.66137 z m 39.30536,0.0266 c -1.8866,-1.52767 -2.0398,-2.13542 -1.24065,-4.92187 0.71374,-2.48871 1.40521,-3.17899 3.18443,-3.17899 2.93114,0 5.21773,3.85696 4.3459,7.33058 -0.75191,2.99585 -3.17479,3.29257 -6.28968,0.77028 z m -549.305357,-0.94318 c 0,-2.47304 3.553331,-6.68893 5.637715,-6.68893 2.500106,0 2.8641,1.09361 1.664715,5.00156 -0.938484,3.05786 -1.398269,3.43594 -4.178475,3.43594 -2.423663,0 -3.123955,-0.39197 -3.123955,-1.74857 z m 333.625457,-1.24952 c -2.02253,-1.61276 -3.03293,-9.18941 -1.22549,-9.18941 1.91734,0 3.37119,3.39948 3.04488,7.11972 -0.25463,2.90308 -0.46878,3.14668 -1.81939,2.06969 z m 231.68704,-1.64885 c 0,-3.25397 2.26044,-9.41556 3.45418,-9.41556 2.20971,0 2.25944,1.96093 0.15653,6.17162 -2.48051,4.96673 -3.61071,5.98213 -3.61071,3.24394 z m 5.625,-5.26555 c 0,-0.87304 0.63785,-1.35129 1.56294,-1.17188 2.35197,0.45615 2.67492,2.64687 0.39018,2.64687 -1.15155,0 -1.95312,-0.60533 -1.95312,-1.47499 z m -27.1875,-1.02218 c 0,-1.45733 11.52275,-4.05532 15.28124,-3.4454 5.19906,0.84369 4.47652,3.01045 -0.98436,2.95195 -2.44922,-0.0263 -6.66797,0.26771 -9.375,0.65323 -2.87254,0.40909 -4.92188,0.34256 -4.92188,-0.15978 z m 21.63652,-0.8622 c 0.045,-1.09214 0.26713,-1.31429 0.5664,-0.56641 0.27081,0.67676 0.23751,1.48535 -0.074,1.79687 -0.31152,0.31153 -0.5331,-0.24218 -0.49239,-1.23046 z m -148.79749,-13.98438 c -0.2968,-0.77344 -0.2939,-2.04662 0.007,-2.82929 0.38807,-1.01129 -0.53231,-1.85451 -3.18094,-2.91429 -4.32906,-1.73214 -4.59546,-2.46602 -1.42032,-3.91271 2.0902,-0.95236 2.70618,-0.65154 6.5625,3.20478 4.76963,4.76962 5.02959,5.50267 2.44243,6.88728 -2.50525,1.34076 -3.7766,1.21514 -4.41011,-0.43577 z m 6.48423,-3.51562 c -2.2101,-2.85767 -1.96097,-3.4298 2.78975,-6.40661 8.62013,-5.40138 20.38699,-13.31547 20.38699,-13.71175 0,-0.48861 -1.3309,0.29408 -6.5625,3.85932 -2.32031,1.58125 -7.63291,5.02519 -11.80576,7.65319 l -7.58702,4.77818 -2.46167,-2.11744 -2.46168,-2.11745 11.45495,-6.99385 c 6.30021,-3.84662 13.23109,-7.88606 15.40196,-8.97654 4.46211,-2.24142 11.32019,-2.66122 12.05816,-0.7381 1.167,3.04116 -1.72973,6.32049 -11.85517,13.42093 -5.77706,4.05116 -12.1477,8.5259 -14.15697,9.94387 -4.22977,2.98501 -4.02322,2.92916 -5.20104,1.40625 z m -113.7049,-3.80083 c -1.47158,-0.9303 -10.38664,-4.82219 -19.81124,-8.64864 -12.99835,-5.27741 -17.92594,-7.74748 -20.40887,-10.23042 -1.80028,-1.80028 -2.9856,-3.56089 -2.63403,-3.91245 0.35156,-0.35157 3.9164,0.64283 7.92187,2.20977 4.00546,1.56694 15.35475,5.42462 25.22064,8.57263 19.91179,6.35346 22.49074,7.73907 21.14833,11.36258 -0.73538,1.985 -1.46213,2.33798 -4.81362,2.33798 -2.19104,0 -5.13799,-0.75261 -6.62308,-1.69145 z"
       id="path4162"
       inkscape:connector-curvature="0" />
    <path
       style="fill:#0000fe"
       d="m 116.79804,-44.227162 c -2.60812,-0.541735 -3.76439,-1.963547 -4.45079,-5.472929 l -0.54908,-2.807259 1.38468,2.975278 c 1.72511,3.706781 4.52426,4.706344 7.57738,2.70586 1.26382,-0.828085 2.29785,-1.896638 2.29785,-2.374547 0,-1.390725 6.21183,-11.313516 6.74726,-10.778091 0.26705,0.267056 1.04261,-0.185644 1.72344,-1.006003 1.09312,-1.317122 1.35544,-1.136119 2.24297,1.54755 1.31381,3.972637 5.40921,5.557462 8.09058,3.130856 1.75099,-1.584628 1.82075,-1.567594 1.82075,0.444666 0,6.131897 -17.31093,13.623272 -26.88504,11.634619 z M 77.164758,-51.56985 c -0.02297,-1.393069 1.65045,-3.774122 2.238909,-3.185663 0.280529,0.280519 -0.10499,1.322991 -0.856706,2.3166 -0.751706,0.99361 -1.3737,1.384688 -1.382203,0.869063 z m -0.04418,-6.141591 c 0,-0.541931 -1.445859,-1.589456 -3.213019,-2.327822 -1.774219,-0.741309 -3.511969,-2.284396 -3.880612,-3.445893 -0.367182,-1.156875 -2.085385,-4.164507 -3.818231,-6.683625 -3.679604,-5.349197 -4.087107,-7.605891 -1.208457,-6.692241 2.121675,0.673388 5.557819,-1.748081 5.557819,-3.916631 0,-2.236135 1.669566,-1.345913 3.730847,1.989319 2.417334,3.911315 5.644153,14.780896 5.644153,19.012378 0,2.085984 -0.444431,3.049856 -1.40625,3.049856 -0.773438,0 -1.40625,-0.4434 -1.40625,-0.985341 z M 571.54325,-97.50735 c -2.12222,-2.0625 -4.75894,-5.52616 -5.85937,-7.69703 -2.06655,-4.07674 -2.64846,-7.34515 -1.14197,-6.41409 1.50036,0.92727 5.8659,-1.30673 6.37765,-3.26368 0.75691,-2.89442 2.90396,-0.5861 6.13289,6.59355 1.50731,3.35156 4.2838,7.72394 6.16997,9.716391 l 3.42941,3.62264 -3.05534,-1.541718 c -3.15169,-1.590338 -5.78033,-1.035235 -7.45138,1.573556 -0.53117,0.829247 -1.84439,0.09028 -4.60186,-2.589619 z m -392.12039,-0.0075 c -2.00234,-1.808991 -4.49016,-5.28946 -5.5285,-7.73437 -2.31264,-5.44578 -3.6583,-14.28938 -2.17425,-14.28938 0.56401,0 1.02547,0.58116 1.02547,1.29146 0,2.50258 2.73416,3.83668 5.626,2.74514 2.41761,-0.91255 2.71544,-0.79698 3.23004,1.25337 0.31178,1.24224 2.29447,3.93518 4.40597,5.98432 3.73592,3.62559 3.7745,3.72571 1.43545,3.72571 -2.45707,0 -5.32246,2.97464 -5.32246,5.525409 0,0.74701 0.6982,2.1297 1.55156,3.072647 2.75704,3.0465 -0.44944,1.858285 -4.24928,-1.574643 z m 295.66647,-19.16147 c -1.03125,-0.47052 -4.0766,-0.88515 -6.76745,-0.92139 -3.8229,-0.0515 -4.78083,-0.35676 -4.38189,-1.3964 0.28081,-0.73178 -0.20282,-2.41928 -1.07474,-3.75 -1.52947,-2.33427 -1.51646,-2.41949 0.36944,-2.41949 1.07512,0 2.86309,-1.22858 3.97327,-2.73018 1.97352,-2.66933 2.09922,-2.70171 5.6393,-1.4527 3.1124,1.09812 4.29725,1.07661 8.43862,-0.15325 3.43782,-1.02092 5.10668,-1.14189 5.82627,-0.4223 0.55464,0.55463 1.9568,1.00843 3.11591,1.00843 1.93119,0 2.02604,0.23361 1.13399,2.79258 -0.53543,1.53591 -0.79957,3.31437 -0.58698,3.95211 1.0946,3.28382 -11.13838,7.56738 -15.68574,5.49259 z m -134.88618,-6.96135 c -0.33652,-1.34079 -1.75981,-2.82737 -3.40365,-3.555 -1.69484,-0.75021 -2.63343,-1.75046 -2.34584,-2.49993 0.26369,-0.68715 0.47942,-2.391 0.47942,-3.78634 0,-2.08611 1.08123,-3.24786 6.08384,-6.53689 3.3779,-2.22083 7.3382,-5.82303 8.90404,-8.0989 l 2.8202,-4.09902 3.58521,1.5311 c 2.81441,1.20193 3.50413,1.95526 3.20807,3.50397 -0.20742,1.08508 0.25515,2.49762 1.02795,3.13898 1.20964,1.00391 0.86151,1.66851 -2.50274,4.77787 -2.1493,1.98647 -5.17344,5.73572 -6.72032,8.33166 -1.54687,2.59595 -3.65625,5.1599 -4.6875,5.69768 -1.03125,0.53778 -2.77395,1.63511 -3.87266,2.43851 -1.87987,1.3746 -2.03176,1.32486 -2.57602,-0.84369 z m -379.721153,0.21936 c 0.893317,-1.44542 -2.306715,-5.49529 -4.342138,-5.49529 -1.763438,0 -1.787324,-0.13381 -0.401437,-2.24894 2.745884,-4.19075 10.206219,-5.88875 19.037834,-4.33308 7.776131,1.36975 11.120542,2.60874 11.796466,4.37017 0.418076,1.08949 -0.03565,1.03567 -2.23839,-0.26552 -2.640653,-1.55988 -2.847303,-1.55549 -4.675753,0.0992 -1.052148,0.95218 -1.912996,2.5345 -1.912996,3.51627 0,0.98176 -0.362424,1.56104 -0.805387,1.28727 -0.442963,-0.27377 -4.451065,0.50527 -8.906895,1.73119 -4.455829,1.22592 -7.853916,1.82834 -7.551304,1.3387 z m 305.732773,-8.0037 c -0.27168,-0.43959 -0.97731,-3.46474 -1.56807,-6.72255 -1.3422,-7.40182 -2.50777,-9.99666 -5.05494,-11.25354 -1.76298,-0.86992 -1.61129,-0.96542 1.26856,-0.79866 2.59297,0.15015 3.46526,-0.24856 4.2082,-1.92348 0.51547,-1.16209 1.32349,-1.98414 1.7956,-1.82676 1.71748,0.57249 7.40263,13.21827 7.8354,17.42869 0.40005,3.89213 0.31078,4.14961 -0.89487,2.58089 -1.71031,-2.22537 -4.60559,-1.68041 -6.00707,1.13068 -0.59885,1.2012 -1.31112,1.82433 -1.58281,1.38473 z"
       id="path4158"
       inkscape:connector-curvature="0" />
    <path
       style="fill:#fe0000"
       d="m 255.24558,-103.6011 c 0,-0.51563 1.21918,-0.9375 2.7093,-0.9375 5.33079,0 21.15495,-3.82192 24.89214,-6.01206 4.20677,-2.46534 7.98802,-6.17544 6.29387,-6.17544 -1.95633,0 -1.12267,-1.37681 1.8626,-3.07615 1.61345,-0.91844 3.07364,-1.5298 3.24487,-1.35857 0.82572,0.82572 -1.96296,7.27124 -2.97749,6.88192 -0.626,-0.24022 -2.13232,0.62851 -3.34737,1.93051 -3.38801,3.63046 -8.77246,5.98401 -18.08955,7.90696 -9.47081,1.95467 -14.58837,2.24946 -14.58837,0.84033 z m 265.3125,-15.5061 c 0,-0.27835 0.78672,-2.07132 1.74825,-3.98437 2.84038,-5.65117 3.22878,-9.99692 1.42557,-15.95042 -0.9246,-3.05262 -1.77951,-4.63754 -1.99566,-3.69973 -0.66315,2.8772 -1.76924,1.77399 -2.81846,-2.81112 -0.56029,-2.44846 -0.91038,-4.56008 -0.77798,-4.69248 0.44573,-0.44573 8.02774,3.98059 8.03555,4.6911 0.005,0.38671 -0.67674,0.70312 -1.5133,0.70312 -1.0809,0 -1.2557,0.33911 -0.60406,1.17188 1.57728,2.01572 3.18047,10.20262 2.59551,13.25437 -0.7351,3.83509 -4.3283,11.82375 -5.31817,11.82375 -0.42748,0 -0.77725,-0.22774 -0.77725,-0.5061 z m -156.32812,-9.56769 c -1.67578,-0.83401 -3.04688,-1.76923 -3.04688,-2.07826 0,-0.30903 1.34932,-1.07119 2.99849,-1.69368 2.36293,-0.89191 3.15059,-0.8858 3.71609,0.0288 0.54463,0.88085 1.10777,0.77059 2.33609,-0.45742 1.52858,-1.52817 1.52987,-1.89913 0.0234,-6.67821 -1.8558,-5.88716 -5.938,-11.36331 -11.88661,-15.94548 -5.07773,-3.91135 -11.65154,-5.96389 -13.68796,-4.27381 -1.94295,1.6125 -2.90401,0.17449 -1.09343,-1.63608 1.3071,-1.3071 2.12406,-1.35944 5.99712,-0.38419 12.0283,3.02876 26.47624,21.0694 22.99407,28.71192 -0.62148,1.364 -1.93436,2.69036 -2.91751,2.94746 -1.05849,0.2768 -1.58192,1.00332 -1.28336,1.78133 0.63679,1.65946 -0.3161,1.58542 -4.14955,-0.32242 z"
       id="path4156"
       inkscape:connector-curvature="0" />
    <path
       style="fill:#000000"
       d="m -52.008839,-12.427012 c 12.790808,-0.287157 12.897577,-0.307566 12.407792,-2.372494 -0.27172,-1.14556 -3.204951,-15.371907 -6.51829,-31.614094 -8.641469,-42.360994 -8.800862,-43.054556 -10.597495,-46.112559 -1.560453,-2.656013 -1.556134,-2.831907 0.09937,-4.048144 1.665063,-1.22326 4.325417,-9.589377 5.73734,-18.042427 0.635492,-3.80462 0.559524,-3.98437 -1.683963,-3.98437 -3.619405,0 -5.262385,-0.92823 -6.756253,-3.81705 -2.054056,-3.97211 -1.725919,-7.15755 0.9156,-8.88834 1.338585,-0.87708 2.072729,-2.05746 1.770116,-2.84605 -0.732526,-1.90893 1.40568,-4.13606 3.970921,-4.13606 1.195496,0 2.434362,-0.42187 2.753036,-0.9375 0.833995,-1.34943 2.57174,-1.15705 2.117085,0.23438 -0.210603,0.64453 -1.656338,1.59375 -3.212745,2.10937 -3.413968,1.13102 -3.971918,2.69273 -1.119603,3.13378 1.142767,0.17671 3.102948,0.99302 4.355958,1.81402 2.096972,1.37399 2.348523,1.36707 3.162223,-0.0869 2.29192,-4.09543 10.635892,-5.9021 19.891665,-4.30701 8.427846,1.45241 11.333215,2.89408 12.492354,6.19881 0.999966,2.85092 9.5458233,35.837664 10.2730327,39.65358 0.6106519,3.2043 -1.6969078,9.84375 -3.4212244,9.84375 -0.9425203,0 -1.5937275,-1.420191 -2.0210653,-4.407656 -0.6828816,-4.773938 -13.325914,-37.971984 -15.190065,-39.886044 -1.072575,-1.10129 -5.290549,-0.30728 -16.873254,3.17628 -2.006522,0.60347 -5.001695,6.97041 -8.565573,18.20814 -4.349101,13.713699 -4.327722,12.578311 -0.567921,30.161236 l 3.460995,16.185544 32.109838,0.246741 32.109838,0.246731 -0.282018,-47.825272 c -0.278889,-47.29433 -0.261204,-47.82528 1.59298,-47.82511 1.860619,1.7e-4 1.872937,0.53572 1.606519,69.844166 l -0.268482,69.843994 15.051966,0 15.051966,0 -0.500691,-2.109375 C 51.06773,-15.933131 48.131499,-30.171413 44.818158,-46.4136 41.504827,-62.655788 38.08852,-79.108913 37.226377,-82.9761 c -0.862135,-3.867188 -1.780463,-7.982897 -2.040732,-9.146016 -0.617053,-2.757609 1.443844,-5.191584 3.909169,-4.61685 1.06261,0.247725 6.150769,2.321729 11.307019,4.60891 l 9.375,4.158506 2.34375,-4.7679 c 2.739619,-5.573222 5.330503,-6.500109 9.517181,-3.404775 2.218941,1.640541 2.792297,1.753612 3.221428,0.635297 0.287128,-0.748238 -0.141281,-2.643188 -0.952031,-4.210997 -1.652522,-3.195635 -1.789434,-3.883835 -0.770953,-3.875255 1.179187,0.01 3.984375,5.630686 3.984375,7.983474 0,1.216847 -0.421875,2.473181 -0.9375,2.791856 -0.515625,0.318675 -0.9375,1.754747 -0.9375,3.191278 0,1.436531 -0.8103,3.345188 -1.800675,4.241456 -1.767131,1.599235 -1.749553,1.70236 0.943406,5.535928 2.957194,4.209704 6.482269,15.126675 6.482269,20.075232 l 0,3.049856 7.96875,0 c 4.6875,0 7.96875,0.386025 7.96875,0.9375 0,0.550462 -3.245306,0.9375 -7.860928,0.9375 -7.242966,0 -7.975763,0.175256 -9.321694,2.229412 -0.89939,1.372632 -2.80169,2.480972 -4.949944,2.883994 -2.973122,0.557756 -4.094297,0.228028 -7.580709,-2.229422 -3.842034,-2.708109 -4.610606,-2.883984 -12.603263,-2.883984 l -8.511731,0 0.649285,2.578125 c 0.632146,2.510063 7.991484,38.709403 7.991484,39.308747 0,0.165347 23.864362,0.300628 53.031927,0.300628 50.06542,0 53.00493,-0.09178 52.54939,-1.640625 -0.2654,-0.902344 -2.26913,-10.605469 -4.45274,-21.5625 -3.48378,-17.481028 -4.18656,-19.921875 -5.73603,-19.921875 -0.97119,0 -2.58183,-0.436716 -3.57918,-0.970481 -1.52965,-0.818644 -1.81337,-0.6573 -1.81337,1.03125 0,3.076772 -5.48168,7.846472 -11.71875,10.196662 -7.32424,2.75985 -16.38487,3.087891 -19.03576,0.689194 -3.90483,-3.533362 -3.41735,-7.115428 1.9326,-14.200734 10.90872,-14.447175 21.21591,-28.535832 22.13108,-30.250444 0.61597,-1.154072 2.16246,-2.359959 3.43664,-2.679759 1.32174,-0.331735 2.31669,-1.262532 2.31669,-2.167322 0,-2.078382 1.81752,-3.835866 3.96692,-3.835866 2.25249,0 2.9508,2.031337 2.15556,6.270319 -0.49526,2.640009 -0.86184,3.13065 -1.57067,2.102315 -0.71638,-1.039275 -0.82138,-0.919087 -0.46618,0.533616 0.25214,1.03125 1.2053,5.451516 2.11814,9.822816 1.36111,6.518006 2.14817,8.358843 4.37499,10.232596 2.75741,2.320201 3.11503,5.256741 1.18255,9.710213 -1.26401,2.912944 2.24927,1.885125 3.98542,-1.16595 0.87836,-1.543613 1.91343,-2.809238 2.30015,-2.8125 1.10248,-0.0094 0.82878,1.344572 -0.67331,3.330516 -0.75704,1.000893 -1.38985,2.136215 -1.40625,2.522934 -0.0164,0.386719 4.61081,0.703125 10.28268,0.703125 6.25001,0 10.3125,0.369319 10.3125,0.9375 0,0.579075 -4.87762,0.9375 -12.75788,0.9375 l -12.75789,0 0.64929,2.578125 c 0.63215,2.510063 7.99148,38.709403 7.99148,39.308747 0,0.165347 15.40647,0.300628 34.23661,0.300628 l 34.23661,0 -0.50069,-2.109375 c -0.50188,-2.114381 -11.86389,-57.578372 -13.77962,-67.265625 -0.56083,-2.835938 -1.32074,-5.495672 -1.68869,-5.910516 -0.60496,-0.682059 -16.34448,-5.339484 -18.0445,-5.339484 -0.39035,0 -0.70972,1.8249 -0.70972,4.055334 0,6.239213 -4.58755,9.756825 -9.37973,7.192135 -3.07122,-1.643672 -3.39861,1.020412 -0.41751,3.397462 3.51775,2.804953 2.35073,3.956372 -1.28531,1.268128 -2.56921,-1.899496 -2.79286,-2.524415 -2.79767,-7.816931 -0.003,-3.163809 0.42848,-6.279722 0.95855,-6.924253 0.67133,-0.8163 0.63812,-1.171875 -0.10948,-1.171875 -0.59028,0 -2.91447,-1.697184 -5.16485,-3.771516 -5.0835,-4.685804 -8.16679,-11.579644 -8.32342,-18.610084 -0.10912,-4.89827 0.34192,-6.07741 6.32095,-16.52465 3.54115,-6.1875 8.04724,-14.625 10.01355,-18.75 2.4644,-5.16996 4.77019,-8.4821 7.4219,-10.66122 5.9475,-4.88752 6.52558,-2.8283 1.98305,7.06402 -2.09238,4.55658 -5.11804,11.87064 -6.72369,16.25345 -1.60566,4.38281 -3.44672,8.8125 -4.09126,9.84375 -0.64454,1.03125 -1.90623,3.84235 -2.80376,6.2469 -1.44478,3.87069 -1.48006,4.73052 -0.30781,7.5 0.72821,1.72045 3.6278,5.55128 6.44352,8.51294 4.80191,5.05079 5.73348,5.57968 15.01721,8.525869 6.28868,1.995713 11.0094,2.977885 12.94645,2.693578 2.98346,-0.437878 3.03899,-0.38114 2.59419,2.649572 -0.25528,1.739344 1.04619,10.116479 2.9688,19.109091 l 3.42334,16.01205 16.59399,0.256003 c 10.00167,0.154303 16.59399,0.619856 16.59399,1.171875 0,0.561488 -6.38756,0.915872 -16.50788,0.915872 l -16.50789,0 0.64929,2.578125 c 0.63215,2.510063 7.99148,38.709403 7.99148,39.308747 0,0.165347 12.66429,0.300628 28.14286,0.300628 l 28.14286,0 -0.50069,-2.109375 c -0.27538,-1.160156 -3.21199,-15.398438 -6.5258,-31.640625 -8.87204,-43.485113 -8.6223,-42.443981 -10.51329,-43.8288 -1.37334,-1.005722 -1.71469,-2.539359 -1.71469,-7.703887 0,-4.047063 0.29787,-5.917953 0.79993,-5.024253 0.43997,0.78316 0.51509,3.703859 0.16693,6.490437 -0.34816,2.786578 -0.28378,5.066503 0.14308,5.066503 1.65836,0 3.32523,-5.868422 2.8541,-10.04823 -0.29629,-2.62867 -0.16525,-3.76862 0.34126,-2.96883 0.45223,0.71407 0.82871,3.09128 0.8366,5.282685 0.007,2.191406 0.41231,3.984375 0.89871,3.984375 0.4864,0 0.8475,2.003906 0.80245,4.453125 -0.045,2.449219 0.56133,6.984375 1.34751,10.078125 0.78617,3.09375 2.18994,9.738281 3.11947,14.765625 l 1.69008,9.140625 11.07806,0 c 6.76038,0 11.07807,0.365391 11.07807,0.9375 0,0.571163 -4.25263,0.9375 -10.88288,0.9375 l -10.88289,0 0.64929,2.578125 c 0.63215,2.510063 7.99148,38.709403 7.99148,39.308747 0,0.165347 9.52062,0.300628 21.15693,0.300628 19.70941,0 21.1237,-0.112247 20.67142,-1.640625 -0.26703,-0.902344 -1.96092,-9.023438 -3.76418,-18.046875 -1.80327,-9.023438 -5.22289,-25.6875 -7.59914,-37.03125 -6.15265,-29.371463 -5.87379,-26.71875 -2.80878,-26.71875 2.41637,0 2.55488,0.210759 2.07637,3.159497 -0.31249,1.925653 0.8479,9.522525 2.97139,19.453125 l 3.4841,16.293628 32.11328,0.246741 32.11327,0.24674 -0.28546,-44.075311 c -0.28202,-43.54554 -0.26291,-44.07533 1.58955,-44.07514 1.85982,1.8e-4 1.87282,0.53517 1.60479,66.094207 l -0.27021,66.094013 25.88026,0 c 24.20783,0 25.84889,-0.106022 25.39476,-1.640625 -0.26703,-0.902344 -1.96092,-9.023438 -3.76418,-18.046875 -1.80327,-9.023438 -5.22289,-25.6875 -7.59914,-37.03125 -6.15265,-29.371463 -5.87379,-26.71875 -2.80878,-26.71875 2.41637,0 2.55488,0.210759 2.07637,3.159497 -0.31249,1.925653 0.8479,9.522525 2.97139,19.453125 l 3.4841,16.293628 32.0622,0.246684 32.06219,0.246685 0,-28.4733 0,-28.473299 -11.01562,-0.92959 c -6.0586,-0.51128 -12.91406,-0.95315 -15.23438,-0.98194 -8.98827,-0.11152 -22.26168,-2.06036 -27.1875,-3.99174 -14.14463,-5.546 -38.21925,-16.43472 -40.12224,-18.14691 -3.07236,-2.76431 -2.53546,-7.25956 1.01529,-8.50061 2.10409,-0.73542 4.65545,-0.25022 13.125,2.49603 5.78226,1.87489 15.36477,4.68924 21.29445,6.2541 5.92969,1.56487 14.70313,4.08287 19.49654,5.59556 l 8.7153,2.75035 11.42098,-3.16343 c 8.32735,-2.30654 12.41267,-3.00485 15.08208,-2.578 l 3.6611,0.58544 -0.66171,-5.29614 c -0.65694,-5.258 -0.644,-5.29614 1.79606,-5.29614 2.45203,0 2.45627,0.0132 1.81575,5.67466 -0.63681,5.62863 -0.62388,5.67046 1.59407,5.15631 1.59251,-0.36917 3.15417,0.25028 5.42595,2.15226 3.47011,2.90525 3.27897,5.13546 -0.39885,4.65351 -1.64461,-0.21552 -2.78357,0.59388 -4.59795,3.26752 l -2.41182,3.55401 0,53.864614 0,53.864616 19.6875,0 19.6875,0 0,-21.09375 0,-21.09375 -7.03125,0 c -4.06249,0 -7.03125,-0.395831 -7.03125,-0.9375 0,-0.542241 2.98508,-0.9375 7.08023,-0.9375 l 7.08023,0 -0.15325,-44.14573 c -0.10283,-29.62037 0.16879,-44.46777 0.82551,-45.12448 1.91669,-1.91669 3.79335,0.19789 7.93498,8.94096 l 4.19755,8.86111 3.88131,0.37015 c 2.13471,0.20357 4.26573,-0.0143 4.7356,-0.48417 1.23962,-1.23962 3.44871,-0.12709 5.27146,2.65478 2.18621,3.33658 0.88976,4.18247 -1.58613,1.03489 -2.30845,-2.93473 -3.18941,-2.39787 -3.91097,2.38336 -0.44961,2.97926 -0.16408,3.65484 2.32138,5.49242 1.74052,1.28682 4.06062,4.78681 6.01285,9.07071 2.89937,6.36226 4.8333,8.640075 22.00136,25.913822 10.35242,10.416131 19.45448,20.136666 20.22681,21.601172 1.44675,2.74335 1.15169,5.306006 -0.61095,5.306006 -1.62865,0 -39.25575,-32.056706 -46.56831,-39.674231 -7.18302,-7.482599 -11.06884,-13.800219 -10.29896,-16.744229 0.32992,-1.26165 -0.1546,-2.04813 -1.60041,-2.59783 -3.25466,-1.23742 -4.60081,-3.47111 -4.10947,-6.8189 0.39452,-2.688 -0.22915,-5.095 -4.43944,-17.13356 -0.52756,-1.50846 -0.458,-1.6001 0.35582,-0.46875 0.55636,0.77344 1.92184,4.14844 3.03441,7.5 1.75779,5.29523 8.1223,18.75 8.86931,18.75 0.14549,0 1.34668,-0.41143 2.6693,-0.9143 2.67238,-1.01603 3.31737,-4.41935 1.00567,-5.30644 -2.01599,-0.77361 -9.37722,-12.17753 -13.19648,-20.44379 -2.30441,-4.98761 -3.75104,-7.05327 -4.88592,-6.97672 -1.23725,0.0835 -1.28515,0.19791 -0.20599,0.49206 1.23641,0.33701 1.37295,8.36193 1.13053,66.442703 l -0.27571,66.05939 36.36946,0.256763 c 20.00322,0.141215 -118.66959,0.26459 -308.16178,0.274162 -189.492185,0.0096 -338.725425,-0.11294 -331.629419,-0.27224 z m 71.004422,-21.330338 0,-21.09375 -31.976632,0 -31.976633,0 0.649284,2.578125 c 0.632144,2.510063 7.991481,38.709403 7.991481,39.308747 0,0.165347 12.445312,0.300628 27.65625,0.300628 l 27.65625,0 0,-21.09375 z m 374.999997,0 0,-21.09375 -31.97663,0 -31.97664,0 0.64929,2.578125 c 0.63215,2.510063 7.99148,38.709403 7.99148,39.308747 0,0.165347 12.44532,0.300628 27.65625,0.300628 l 27.65625,0 0,-21.09375 z m 112.5,0 0,-21.09375 -31.97663,0 -31.97664,0 0.64929,2.578125 c 0.63215,2.510063 7.99148,38.709403 7.99148,39.308747 0,0.165347 12.44532,0.300628 27.65625,0.300628 l 27.65625,0 0,-21.09375 z m -373.3133,-12.851916 c 2.73237,-1.01669 6.0724,-2.79854 7.4223,-3.959672 2.29784,-1.976521 2.46439,-2.673618 2.61177,-10.931034 0.0866,-4.850934 0.84864,-11.368884 1.69348,-14.484328 1.29455,-4.773806 1.35572,-6.393563 0.38903,-10.301587 -1.18401,-4.786651 -3.2817,-6.371757 -5.30416,-4.008066 -0.57607,0.673256 -5.86032,7.763165 -11.74277,15.755353 -5.88246,7.992187 -11.54777,15.62955 -12.58959,16.971928 -3.51392,4.527666 -4.19029,6.916791 -2.78446,9.835313 0.70067,1.454596 2.32864,2.949271 3.6177,3.321506 3.32329,0.959634 10.86997,-0.03506 16.6867,-2.199413 z m -17.8191,-0.03871 c -0.81992,-0.644531 -1.72842,-2.226563 -2.01886,-3.515625 -0.48488,-2.151909 -0.43963,-2.133253 0.55278,0.227916 1.87866,4.469728 6.21415,4.426368 8.49971,-0.08503 3.33419,-6.581193 17.15775,-29.982431 19.09453,-32.324222 1.20546,-1.457521 2.19174,-3.320803 2.19174,-4.140618 0,-0.819816 0.21461,-1.275975 0.47689,-1.013682 0.78215,0.782138 -5.45487,18.767635 -7.83687,22.598954 -2.70513,4.351031 -2.17995,7.694193 1.34775,8.579596 1.42474,0.357582 3.0875,0.129319 3.99253,-0.5481 1.44224,-1.079521 1.4424,-1.041871 0.003,0.537197 -2.31743,2.541244 -6.58127,0.863729 -7.89403,-3.10574 -0.88753,-2.683669 -1.14985,-2.864672 -2.24297,-1.54755 -0.68083,0.820359 -1.45639,1.273059 -1.72344,1.006003 -0.52838,-0.527934 -6.74767,9.37769 -6.74767,10.746572 0,1.021293 -3.7757,3.756206 -5.18567,3.756206 -0.56015,0 -1.68931,-0.527344 -2.50923,-1.171875 z m 21.58018,-20.608847 c 1.23338,-2.395453 4.83681,-13.844278 4.35739,-13.844278 -0.27556,0 -7.59369,12.746962 -10.70065,18.638756 l -1.17728,2.232506 3.21306,-2.450728 c 1.76719,-1.3479 3.70556,-3.407212 4.30748,-4.576256 z m -61.295993,15.620006 c 2.566772,-2.566772 1.635975,-3.214284 -4.620534,-3.214284 -3.351563,0 -6.09375,0.169509 -6.09375,0.376688 0,0.815043 6.18585,4.280146 7.667409,4.295015 0.865519,0.0084 2.236613,-0.647147 3.046875,-1.457419 z m 3.7563,-3.118696 c -0.588459,-0.58846 -2.261887,1.792593 -2.238909,3.185662 0.0084,0.515625 0.630497,0.124547 1.382203,-0.869062 0.751716,-0.99361 1.137234,-2.036082 0.856706,-2.3166 z m 541.427613,-2.204963 c -0.0972,-2.897587 -4.29811,-7.819603 -18.71621,-21.928725 -16.39198,-16.0407 -20.2831,-18.897131 -23.44045,-17.207372 -4.59099,2.457028 -3.07687,4.130147 25.32096,27.980044 13.98397,11.744419 16.92069,13.690425 16.8357,11.156053 z m -566.016147,-7.03125 c -3.611634,-3.996094 -7.651894,-8.276878 -8.978372,-9.512859 -1.326469,-1.235982 -2.887931,-3.690029 -3.469903,-5.453438 -2.043272,-6.191175 -1.782703,-2.348672 0.590981,8.715009 1.318453,6.145238 2.57026,11.700507 2.781788,12.345038 0.265837,0.809981 2.740481,1.171875 8.013356,1.171875 l 7.628747,0 -6.566597,-7.265625 z m 21.36795,6.391303 c 0,-0.480881 -0.949219,-1.168303 -2.109375,-1.527619 -2.294362,-0.710578 -11.527003,-8.638068 -24.225816,-20.801184 -4.441256,-4.253906 -8.348343,-7.734375 -8.682412,-7.734375 -1.12396,0 -0.620344,2.544891 1.413525,7.142775 1.211522,2.738859 5.60115,8.418712 10.960181,14.181675 l 8.93926,9.61305 6.852318,0 c 3.768778,0 6.852319,-0.39345 6.852319,-0.874322 z m 3.75,-2.175534 c 0,-4.231482 -3.226819,-15.101063 -5.644153,-19.012378 -2.061281,-3.335232 -3.730847,-4.225454 -3.730847,-1.989319 0,2.16855 -3.436144,4.590019 -5.557819,3.916631 -2.87865,-0.91365 -2.471147,1.343044 1.208457,6.692241 1.732846,2.519118 3.451049,5.52675 3.818231,6.683625 0.368643,1.161497 2.106394,2.704584 3.880612,3.445893 1.76716,0.738366 3.213019,1.785891 3.213019,2.327822 0,0.541941 0.632812,0.985341 1.40625,0.985341 0.961819,0 1.40625,-0.963872 1.40625,-3.049856 z m 68.074597,-2.988975 c 1.44042,-1.00891 1.82265,-2.077913 1.50844,-4.21875 -0.80013,-5.451657 -5.83304,-2.721075 -5.83304,3.1647 0,2.70284 1.4619,3.059156 4.3246,1.05405 z m -82.532956,-7.108003 c -1.844775,-2.681841 -3.354141,-5.575875 -3.354141,-6.431203 0,-2.523432 -3.657412,-5.559751 -13.124541,-10.895775 -7.174959,-4.044076 -9.052396,-4.757682 -9.660112,-3.671738 -0.917878,1.640147 0.04144,3.469003 1.38435,2.639053 0.533578,-0.329766 4.195828,2.538019 8.138344,6.372844 10.634606,10.34414 19.04339,17.789719 19.535418,17.297691 0.239147,-0.239147 -1.074543,-2.629041 -2.919318,-5.310872 z m 82.802406,-2.665632 c -0.0514,-0.842203 -0.40539,-2.585972 -0.78665,-3.875034 -0.65592,-2.217666 -0.75148,-2.142009 -1.77632,1.40625 -1.42626,4.938028 -1.40468,5.062069 0.78142,4.490391 1.03125,-0.269682 1.83295,-1.179404 1.78155,-2.021607 z M 68.495583,-78.4761 c 1.792978,-1.792978 1.307109,-4.464825 -0.984375,-5.413209 -1.160156,-0.48016 -7.59375,-3.256135 -14.296875,-6.168844 -6.703125,-2.9127 -13.242188,-5.448769 -14.53125,-5.635706 -1.289063,-0.186947 -1.605469,-0.113175 -0.703125,0.163922 0.902344,0.277096 1.640625,0.879815 1.640625,1.339368 0,0.459544 4.608825,3.416485 10.241822,6.570966 5.633006,3.154481 10.475222,6.343622 10.760475,7.086984 0.493181,1.2852 3.648356,2.994422 5.763328,3.122091 0.541406,0.03272 1.490625,-0.446822 2.109375,-1.065572 z m -71.9572172,-6.533887 c 0.5789044,-2.149885 0.8366616,-4.786604 0.5727928,-5.859375 -0.2638678,-1.072763 -2.5844625,-9.945628 -5.1568762,-19.717468 -4.0808644,-15.502 -5.0000834,-18.00225 -7.2105334,-19.61245 -2.930105,-2.13444 -5.396052,-1.24823 -5.895995,2.11889 -0.167244,1.12639 2.951101,10.32943 6.929656,20.45122 3.978555,10.121782 7.4397871,20.231332 7.6916286,22.465657 0.5776163,5.1246 1.7154319,5.181516 3.0693272,0.153525 z m 71.9613702,-3.24856 c 0.184931,-1.296712 -0.63809,-2.727609 -2.337919,-4.064691 l -2.623321,-2.063512 -1.257385,3.081516 c -1.127372,2.762868 -1.080206,3.211068 0.456113,4.334456 2.427459,1.774997 5.421122,1.105997 5.762512,-1.287769 z M 196.18308,-90.00735 c 0,-3.777178 -0.22569,-4.21875 -2.15625,-4.21875 -4.32717,0 -5.65395,3.4398 -2.53125,6.5625 3.1794,3.1794 4.6875,2.42535 4.6875,-2.34375 z m 19.02126,-1.407731 c -0.37811,-1.445897 -2.82049,-2.61421 -10.6439,-5.091525 -5.58425,-1.768266 -11.38369,-4.124784 -12.88762,-5.236694 -3.56883,-2.63855 -6.90114,-2.15891 -8.06374,1.16069 -0.71355,2.037401 -0.53038,2.950404 0.91158,4.543741 1.51255,1.671356 2.48835,1.904194 6.03036,1.438894 3.10539,-0.407944 6.83578,0.165666 14.06956,2.163403 5.41407,1.495181 10.12066,2.758894 10.45911,2.808244 0.33845,0.04931 0.39454,-0.754688 0.12465,-1.786753 z M 149.30808,-94.2261 c 0,-2.323894 -0.36646,-2.793609 -2.10937,-2.70375 -1.58735,0.08184 -1.70336,0.214856 -0.46875,0.537497 0.99399,0.259753 1.64062,1.3254 1.64062,2.70374 0,1.251263 0.21094,2.275013 0.46875,2.275013 0.25782,0 0.46875,-1.265625 0.46875,-2.8125 z m -202.963421,-0.9375 c 1.956738,0 2.502866,-0.997959 5.07254,-9.26918 1.583843,-5.09806 4.143845,-11.67234 5.688895,-14.60953 3.055233,-5.80809 2.704017,-8.93379 -1.003833,-8.93379 -2.420976,0 -4.101513,3.96066 -6.481363,15.27518 -2.57864,12.25961 -3.67842,15.693576 -5.21494,16.283198 -0.741331,0.284475 -1.314569,1.210369 -1.273862,2.05755 0.04673,0.972684 0.248272,1.108463 0.546875,0.368447 0.260074,-0.644531 1.459634,-1.171875 2.665688,-1.171875 z m 632.370111,-1.891959 c 1.36376,-0.729863 2.60028,-0.586941 4.88172,0.564272 l 3.05534,1.541718 -3.42941,-3.62264 c -1.88617,-1.992451 -4.66266,-6.364831 -6.16997,-9.716391 -3.22893,-7.17965 -5.37598,-9.48797 -6.13289,-6.59355 -0.51175,1.95695 -4.87729,4.19095 -6.37765,3.26368 -1.50649,-0.93106 -0.92458,2.33735 1.14197,6.41409 2.62488,5.17821 9.44054,11.880117 10.46123,10.286649 0.4088,-0.638203 1.56515,-1.600228 2.56966,-2.137828 z m -395.04263,1.115015 c -0.85336,-0.942947 -1.55156,-2.325637 -1.55156,-3.072647 0,-2.550769 2.86539,-5.525409 5.32246,-5.525409 2.33905,0 2.30047,-0.10012 -1.43545,-3.72571 -2.1115,-2.04914 -4.09419,-4.74208 -4.40597,-5.98432 -0.5146,-2.05035 -0.81243,-2.16592 -3.23004,-1.25337 -2.89184,1.09154 -5.626,-0.24256 -5.626,-2.74514 0,-0.7103 -0.46146,-1.29146 -1.02547,-1.29146 -1.48405,0 -0.13839,8.8436 2.17425,14.28904 1.03834,2.44491 3.52616,5.925382 5.5285,7.734373 3.79984,3.432928 7.00632,4.621143 4.24928,1.574643 z m 322.53437,-23.419666 c -0.19558,-2.48001 -0.79259,-5.28996 -1.32668,-6.24434 -0.81446,-1.45537 -1.03108,-1.10614 -1.34306,2.16536 -0.28656,3.00484 -0.0433,3.92418 1.05903,4.00331 0.78707,0.0565 -0.4674,0.49204 -2.78772,0.96789 -2.86279,0.5871 -5.30522,0.52021 -7.59906,-0.20812 -2.573,-0.81696 -3.87961,-0.80607 -5.47092,0.0456 -1.14983,0.61537 -1.85027,1.35918 -1.55654,1.65292 0.58325,0.58325 10.17376,1.79374 15.83166,1.99825 l 3.5489,0.12827 -0.35561,-4.50911 z m 54.45769,0.76794 c -2.03893,-3.56887 -2.15128,-3.63102 -2.43949,-1.34956 -0.3349,2.65114 1.22612,5.09073 3.2574,5.09073 0.99764,0 0.79814,-0.9125 -0.81791,-3.74117 z m -381.73889,2.08619 c 0.5629,-0.37882 1.80366,-2.79815 2.75722,-5.37627 0.95355,-2.57813 2.26109,-5.53125 2.90563,-6.5625 0.64454,-1.03125 2.4856,-5.46094 4.09126,-9.84375 1.60565,-4.38281 4.62688,-11.68724 6.71384,-16.23206 2.08695,-4.54482 3.55445,-8.5033 3.26113,-8.79664 -1.36463,-1.36461 -7.87572,6.20182 -10.99364,12.77552 -1.85136,3.90331 -6.14574,12.04895 -9.54308,18.10143 -6.05661,10.79005 -6.14953,11.05952 -4.76837,13.82812 1.36391,2.73403 3.4642,3.52734 5.57601,2.10615 z m 308.88764,-2.22449 c 1.84175,-1.25334 3.1747,-2.8006 2.96212,-3.43834 -0.21259,-0.63774 0.0516,-2.4162 0.58698,-3.95211 0.89205,-2.55897 0.7972,-2.79258 -1.13399,-2.79258 -1.15911,0 -2.56127,-0.4538 -3.11591,-1.00843 -0.71959,-0.71959 -2.38845,-0.59862 -5.82627,0.4223 -4.14137,1.22986 -5.32622,1.25137 -8.43862,0.15325 -3.54008,-1.24901 -3.66578,-1.21663 -5.6393,1.4527 -1.11018,1.5016 -2.89815,2.73018 -3.97327,2.73018 -1.8859,0 -1.89891,0.0852 -0.36944,2.41949 0.87192,1.33072 1.35555,3.01822 1.07474,3.75 -0.39894,1.03964 0.55899,1.34491 4.38189,1.3964 2.69085,0.0363 5.7362,0.45087 6.76745,0.92139 3.03013,1.38254 9.11761,0.3997 12.72362,-2.05425 z m -24.8618,0.0497 c 0.3458,-0.55951 -0.15486,-2.47235 -1.11259,-4.25075 -1.52004,-2.82254 -2.69494,-3.53381 -9.24528,-5.59698 -27.46515,-8.65076 -37.1398,-11.84286 -36.8306,-12.15206 0.19405,-0.19405 10.24692,2.83769 22.33974,6.7372 27.06152,8.7264 26.49891,8.6104 28.42493,5.86062 0.83234,-1.18833 1.20085,-2.43983 0.81892,-2.78111 -0.38194,-0.34127 -6.38975,-2.17426 -13.35069,-4.0733 -6.96093,-1.89904 -18.19145,-5.17691 -24.95671,-7.28416 -14.00042,-4.36086 -17.23079,-4.35047 -17.23079,0.0554 0,1.45714 0.73828,3.28709 1.64063,4.06656 2.52892,2.18456 45.06139,20.16762 48.22592,20.3903 0.35628,0.0251 0.93073,-0.41221 1.27652,-0.97172 z m 36.63947,-2.43335 c 0.87183,-3.47362 -1.41476,-7.33059 -4.3459,-7.33059 -1.77922,0 -2.47069,0.69029 -3.18443,3.17899 -0.79915,2.78645 -0.64595,3.39421 1.24065,4.92188 3.11489,2.52228 5.53777,2.22556 6.28968,-0.77028 z m -548.292607,-1.86028 c 1.199385,-3.90795 0.835391,-5.00156 -1.664715,-5.00156 -2.084384,0 -5.637715,4.21589 -5.637715,6.68893 0,1.3566 0.700292,1.74857 3.123955,1.74857 2.780206,0 3.239991,-0.37808 4.178475,-3.43594 z m 25.642183,-3.51366 c 0.442963,0.27377 0.805387,-0.30551 0.805387,-1.28727 0,-0.98177 0.860848,-2.56409 1.912996,-3.51627 1.82845,-1.65472 2.0351,-1.65911 4.675753,-0.0992 2.202741,1.30119 2.656466,1.35501 2.23839,0.26552 -0.675924,-1.76143 -4.020335,-3.00042 -11.796466,-4.37017 -8.831615,-1.55567 -16.29195,0.14233 -19.037834,4.33308 -1.385887,2.11513 -1.362001,2.24894 0.401437,2.24894 2.035423,0 5.235455,4.04987 4.342138,5.49529 -0.302612,0.48964 3.095475,-0.11278 7.551304,-1.3387 4.45583,-1.22592 8.463932,-2.00496 8.906895,-1.73119 z m 535.978594,-0.94128 c 2.10291,-4.21069 2.05318,-6.17162 -0.15653,-6.17162 -1.19374,0 -3.45418,6.16159 -3.45418,9.41556 0,2.73819 1.1302,1.72279 3.61071,-3.24394 z m -6.50133,-1.82099 c -0.21485,-0.18527 -1.65625,-0.58981 -3.20313,-0.89898 l -2.8125,-0.56211 2.8125,1.28107 c 2.41944,1.10204 4.40145,1.21343 3.20313,0.18002 z m 12.03169,0.1025 c -0.59065,-1.77393 -3.51607,-2.02613 -3.51607,-0.30312 0,0.86966 0.80157,1.47499 1.95312,1.47499 1.14561,0 1.79181,-0.48452 1.56295,-1.17187 z m -16.40669,-1.81875 c 3.05261,0.0327 4.45312,-0.33548 4.45312,-1.17068 0,-2.07041 -6.50141,-2.46038 -12.84376,-0.77038 -7.21693,1.92304 -7.8422,3.57094 -0.98436,2.59429 2.70703,-0.38552 6.92578,-0.67947 9.375,-0.65323 z m 7.90604,-0.93516 c -0.29927,-0.74788 -0.52142,-0.52573 -0.5664,0.56641 -0.0407,0.98828 0.18087,1.54199 0.49239,1.23046 0.31152,-0.31152 0.34482,-1.12011 0.074,-1.79687 z m -184.35634,28.81059 c -1.56881,-1.8903 -0.89482,-2.64149 5.97635,-6.66096 3.30482,-1.93323 6.48154,-4.55263 7.05939,-5.82088 l 1.05065,-2.30592 -2.91341,2.45147 c -3.65221,3.07313 -5.95942,3.09684 -8.96414,0.0921 -1.69471,-1.69471 -2.19389,-2.94919 -1.77195,-4.45312 0.32308,-1.15158 -1.1593,1.07029 -3.29416,4.93748 -4.74276,8.59124 -6.12957,10.17224 -7.61754,8.68427 -0.81382,-0.81383 -0.33512,-2.87823 1.94725,-8.39732 2.52884,-6.11508 4.30395,-8.62827 10.79745,-15.28695 4.2741,-4.38281 10.19302,-9.44531 13.15318,-11.25 3.61746,-2.20543 6.56177,-5.01014 8.98009,-8.55435 3.25251,-4.76674 6.0873,-7.17111 7.17385,-6.08457 0.22287,0.22287 -0.47033,0.68311 -1.54044,1.02275 -2.8816,0.91458 -2.38116,1.98832 1.68493,3.61525 3.13501,1.25438 3.56829,1.77856 3.17419,3.84014 -0.60019,3.13966 1.75255,4.05542 5.1556,2.00672 1.62704,-0.97951 1.36624,-0.60043 -0.71037,1.03256 -7.88632,6.20158 -12.13632,11.54227 -16.43246,20.64956 -2.3845,5.05488 -4.65114,9.8235 -5.03697,10.59694 -0.80069,1.60509 -14.077,11.06869 -15.6814,11.17798 -0.5814,0.0396 -1.56693,-0.54231 -2.19009,-1.29317 z m 10.14863,-4.5662 c 6.31383,-4.43693 7.12391,-5.38713 9.51436,-11.16012 2.05362,-4.95954 2.28208,-6.1168 1.0673,-5.40646 -3.00042,1.75451 -4.82687,3.49881 -4.82687,4.60978 0,0.61811 -0.48706,0.82283 -1.08235,0.45492 -0.64378,-0.39788 -0.82889,-0.25883 -0.45683,0.34317 1.36077,2.20178 -1.82918,6.0866 -8.016,9.76212 -6.2426,3.70867 -7.02781,4.49499 -5.75731,5.76548 1.16545,1.16545 2.6439,0.48964 9.5577,-4.36889 z m -15.12206,-5.50375 c 1.94321,-3.71119 5.74795,-9.12824 8.45498,-12.03788 3.39559,-3.64973 4.92187,-6.0689 4.92187,-7.80119 0,-2.31194 -0.50151,-1.98216 -6.32812,4.16114 -4.65916,4.91239 -7.13171,8.52608 -9.375,13.70184 -3.27061,7.54597 -3.55775,8.72373 -2.12685,8.72373 0.506,0 2.50991,-3.03644 4.45312,-6.74764 z m 26.0331,-12.07125 c 1.03125,-0.53778 3.14063,-3.10173 4.6875,-5.69768 1.54688,-2.59594 4.57102,-6.34519 6.72032,-8.33166 3.36425,-3.10936 3.71238,-3.77396 2.50274,-4.77787 -0.7728,-0.64136 -1.23537,-2.0539 -1.02795,-3.13898 0.29606,-1.54871 -0.39366,-2.30204 -3.20807,-3.50397 l -3.58521,-1.5311 -2.8202,4.09902 c -1.56584,2.27587 -5.52614,5.87807 -8.90404,8.0989 -5.00261,3.28903 -6.08384,4.45078 -6.08384,6.53689 0,1.39534 -0.21573,3.09919 -0.47942,3.78634 -0.28759,0.74947 0.651,1.74972 2.34584,2.49993 1.64384,0.72763 3.06713,2.21421 3.40365,3.555 0.54426,2.16855 0.69615,2.21829 2.57602,0.84369 1.09871,-0.8034 2.84141,-1.90073 3.87266,-2.43851 z m -75.98701,13.50719 c -0.72234,-5.87143 -1.99316,-7.64591 -3.75256,-5.2398 -0.60361,0.8255 -2.94821,2.05432 -5.21021,2.73072 -4.89328,1.46323 -5.51897,1.51341 -5.51897,0.44262 0,-0.44862 1.91549,-1.35197 4.25666,-2.00745 5.11964,-1.43341 5.83894,-2.65621 5.50861,-9.36439 -0.25501,-5.17839 -3.17888,-19.24848 -4.41591,-21.25004 -1.31786,-2.13235 -11.78187,-7.32751 -28.28233,-14.04158 -13.69692,-5.5733 -17.54003,-7.5527 -20.59467,-10.60735 -2.87757,-2.87756 -3.49782,-4.01307 -2.65334,-4.85755 0.84449,-0.84448 2.80975,-0.43406 8.40718,1.75573 4.01777,1.57181 15.44807,5.45621 25.40065,8.63202 14.73894,4.70309 18.73969,6.35608 21.56786,8.91117 4.02519,3.63651 9.54611,14.1214 10.2674,19.49901 0.28506,2.12526 1.43962,4.65009 2.7051,5.91557 3.10046,3.10046 3.05823,9.02781 -0.0867,12.17277 -1.71472,1.71472 -2.38159,3.53993 -2.63907,7.22302 -0.18951,2.71066 -0.4226,0.0344 -0.51798,-5.94725 -0.19499,-12.22709 -1.2908,-16.78052 -4.03836,-16.78052 -2.83365,0 -4.0981,4.44476 -2.32325,8.16666 1.42309,2.98425 3.86098,18.84804 3.02496,19.68405 -0.23768,0.23768 -0.73495,-2.02915 -1.10505,-5.03741 z m 8.03951,-18.08611 c -0.5636,-1.05308 -1.60254,-1.91469 -2.30878,-1.91469 -1.80744,0 -0.79704,7.57665 1.22549,9.18941 1.35061,1.07699 1.56476,0.83339 1.81939,-2.06969 0.15873,-1.80969 -0.17252,-4.15195 -0.7361,-5.20503 z m -8.02842,-5.52396 c 0.98422,-0.18954 2.39216,0.43954 3.12874,1.39795 1.20565,1.56872 1.29492,1.31124 0.89487,-2.58089 -0.43277,-4.21042 -6.11792,-16.8562 -7.8354,-17.42869 -0.47211,-0.15738 -1.28013,0.66467 -1.7956,1.82676 -0.74294,1.67492 -1.61523,2.07363 -4.2082,1.92348 -2.87985,-0.16676 -3.03154,-0.0713 -1.26856,0.79866 2.54717,1.25688 3.71274,3.85172 5.05494,11.25354 1.33077,7.33878 1.77669,8.09418 3.15088,5.33782 0.59887,-1.2012 1.89412,-2.33908 2.87833,-2.52863 z m -5.87527,-17.94746 c 1.34241,-3.62351 -1.23654,-5.00912 -21.14833,-11.36258 -9.86589,-3.14801 -21.21518,-7.00569 -25.22064,-8.57263 -4.00547,-1.56694 -7.57031,-2.56134 -7.92187,-2.20977 -0.35157,0.35156 0.83375,2.11217 2.63403,3.91245 2.48293,2.48294 7.41052,4.95301 20.40887,10.23042 9.4246,3.82645 18.33966,7.71834 19.81124,8.64864 1.48509,0.93884 4.43204,1.69145 6.62308,1.69145 3.35149,0 4.07824,-0.35298 4.81362,-2.33798 z m 104.36692,5.59378 c 0.33389,-0.54023 2.00342,-1.91567 3.71009,-3.05652 21.42708,-14.32338 26.81872,-19.17521 25.40437,-22.86095 -0.73797,-1.92312 -7.59605,-1.50332 -12.05816,0.7381 -2.17087,1.09048 -9.0502,5.09829 -15.2874,8.90625 -6.23721,3.80797 -11.69986,6.92357 -12.13922,6.92357 -1.02718,0 21.06969,-13.52233 27.04388,-16.54968 5.14884,-2.60911 11.55566,-2.73211 13.10905,-0.25168 1.81214,2.89359 -1.41181,6.71352 -11.98584,14.20153 -16.53065,11.70622 -18.43796,12.98685 -17.79677,11.94938 z m -4.23448,-5.00887 c 0,-0.25162 3.26953,-2.47172 7.26563,-4.93356 3.99609,-2.46185 8.53125,-5.38911 10.07812,-6.50504 4.27771,-3.08596 7.96875,-5.35287 7.96875,-4.89413 0,0.45864 -9.89682,7.2143 -17.8125,12.15897 -7.39236,4.61778 -7.5,4.67768 -7.5,4.17376 z m -24.1875,-26.09068 c -1.53113,-1.53113 -1.41393,-2.625 0.28125,-2.625 0.77344,0 1.40625,0.42188 1.40625,0.9375 0,0.51563 0.63282,0.9375 1.40625,0.9375 1.72538,0 1.92338,-4.28993 0.23438,-5.07813 -0.9375,-0.43749 -0.9375,-0.65625 0,-1.09374 1.64362,-0.76703 1.46537,-3.20313 -0.23438,-3.20313 -0.77343,0 -1.40625,0.42188 -1.40625,0.9375 0,0.51563 -0.63281,0.9375 -1.40625,0.9375 -1.69518,0 -1.81238,-1.09387 -0.28125,-2.625 1.46904,-1.46903 4.9666,-1.44215 6.09961,0.0469 1.25104,1.64411 1.33518,9.2699 0.11846,10.73595 -1.26744,1.52718 -4.73171,1.57853 -6.21807,0.0922 z m 10.66072,-0.34821 c -0.83003,-0.83003 -1.47322,-3.05195 -1.47322,-5.08929 0,-5.6071 4.56795,-8.68915 7.55102,-5.09477 1.06237,1.28007 0.87985,1.4299 -1.42749,1.17187 -1.50994,-0.16885 -2.82206,0.20747 -3.05666,0.87666 -0.26323,0.75088 0.12711,0.96601 1.08548,0.59824 2.03572,-0.78118 4.28515,1.26716 4.28515,3.90208 0,2.39159 -2.24367,5.10842 -4.21875,5.10842 -0.69978,0 -1.93527,-0.66295 -2.74553,-1.47321 z m 4.15178,-3.21429 c 0,-0.97039 -0.42485,-2.02692 -0.94412,-2.34784 -1.20487,-0.74466 -2.24519,1.88866 -1.50655,3.81351 0.72086,1.87853 2.45067,0.84399 2.45067,-1.46567 z m 6.16072,3.21429 c -3.11342,-3.11343 -1.10151,-11.65179 2.74553,-11.65179 2.35613,0 4.21875,2.89742 4.21875,6.5625 0,3.66508 -1.86262,6.5625 -4.21875,6.5625 -0.69978,0 -1.93527,-0.66295 -2.74553,-1.47321 z m 3.98136,-5.66887 c -0.16408,-2.00155 -0.7202,-3.63917 -1.23583,-3.63917 -1.09518,0 -1.79794,5.59576 -0.97282,7.74601 1.00307,2.61396 2.52727,-0.2202 2.20865,-4.10684 z m 5.22218,-1.69842 c -0.93344,-2.4325 0.37489,-4.44298 2.67843,-4.11588 1.54943,0.22002 2.11356,0.9257 2.11356,2.64388 0,1.71818 -0.56413,2.42386 -2.11356,2.64388 -1.26777,0.18002 -2.33962,-0.28894 -2.67843,-1.17188 z m 3.38574,-1.472 c 0,-0.51562 -0.42187,-0.9375 -0.9375,-0.9375 -0.51562,0 -0.9375,0.42188 -0.9375,0.9375 0,0.51563 0.42188,0.9375 0.9375,0.9375 0.51563,0 0.9375,-0.42187 0.9375,-0.9375 z"
       id="path4154"
       inkscape:connector-curvature="0" />
  </g>
</svg>
