<?xml version="1.0" encoding="UTF-8" standalone="no"?>
<!-- Created with Inkscape (http://www.inkscape.org/) -->

<svg
   xmlns:dc="http://purl.org/dc/elements/1.1/"
   xmlns:cc="http://creativecommons.org/ns#"
   xmlns:rdf="http://www.w3.org/1999/02/22-rdf-syntax-ns#"
   xmlns:svg="http://www.w3.org/2000/svg"
   xmlns="http://www.w3.org/2000/svg"
   xmlns:sodipodi="http://sodipodi.sourceforge.net/DTD/sodipodi-0.dtd"
   xmlns:inkscape="http://www.inkscape.org/namespaces/inkscape"
   id="svg3800"
   version="1.1"
   inkscape:version="0.91 r13725"
   width="548.59814"
   height="277.5"
   viewBox="0 0 548.59814 277.5"
   sodipodi:docname="ub620404.svg">
  <metadata
     id="metadata3806">
    <rdf:RDF>
      <cc:Work
         rdf:about="">
        <dc:format>image/svg+xml</dc:format>
        <dc:type
           rdf:resource="http://purl.org/dc/dcmitype/StillImage" />
        <dc:title></dc:title>
      </cc:Work>
    </rdf:RDF>
  </metadata>
  <defs
     id="defs3804" />
  <sodipodi:namedview
     pagecolor="#ffffff"
     bordercolor="#666666"
     borderopacity="1"
     objecttolerance="10"
     gridtolerance="10"
     guidetolerance="10"
     inkscape:pageopacity="0"
     inkscape:pageshadow="2"
     inkscape:window-width="640"
     inkscape:window-height="480"
     id="namedview3802"
     showgrid="false"
     inkscape:zoom="5.9394077"
     inkscape:cx="238.67762"
     inkscape:cy="134.16919"
     inkscape:window-x="0"
     inkscape:window-y="0"
     inkscape:window-maximized="0"
     inkscape:current-layer="svg3800" />
  <g
     id="g3810">
    <path
       style="fill:#fefefe"
       d="m 464.86233,263.06905 c -0.27477,-0.71827 1.14433,-4.58335 3.15356,-8.58906 l 3.65313,-7.28312 0.56121,3.46913 c 0.41813,2.58471 0.0582,4.32426 -1.41162,6.82329 -1.80935,3.07621 -1.8437,3.42665 -0.41441,4.22901 2.56781,1.44151 1.77104,2.6567 -1.74193,2.6567 -1.95886,0 -3.50343,-0.53083 -3.79994,-1.30595 z m 8.30482,-10.18011 c -0.10854,-6.31548 -0.65919,-17.04 -1.22366,-23.83228 -0.73746,-8.87407 -0.74181,-13.40939 -0.0154,-16.11534 1.12566,-4.19343 3.46472,-5.54947 6.63583,-3.84705 1.96577,1.05535 1.98574,1.31676 1.20352,15.75506 -0.43748,8.07506 -0.79542,19.52855 -0.79542,25.45221 l 0,10.77029 2.72663,0.47971 c 1.49966,0.26384 2.90153,1.00705 3.11528,1.65158 0.28363,0.8553 -1.21041,1.17142 -5.53039,1.17019 l -5.919,-0.002 -0.19734,-11.4827 z m -7.13703,-12.81934 c -5.8887,-6.19298 -5.61454,-5.63383 -4.371,-8.91482 1.19652,-3.15692 4.58742,-3.17076 7.52813,-0.0307 1.74603,1.86437 2.30597,3.67576 2.60823,8.4375 0.2117,3.3349 0.18964,6.06346 -0.049,6.06346 -0.23865,0 -2.81101,-2.49993 -5.71635,-5.5554 z m 15.2783,-22.52025 c 0,-2.02817 0.21687,-2.0832 5.69597,-1.4453 4.49715,0.52359 6.47066,0.31272 9.3768,-1.00185 2.81752,-1.2745 3.93815,-1.40688 4.77799,-0.56441 2.34835,2.35569 -1.33393,3.89988 -10.7847,4.52261 -8.95414,0.59002 -9.06606,0.57136 -9.06606,-1.51105 z m 0,-4.59155 c 0,-2.09083 2.82556,-4.8328 4.98013,-4.8328 1.76962,0 2.02779,2.06256 0.59447,4.74913 -1.28514,2.40881 -5.5746,2.47319 -5.5746,0.0836 z M 74.379492,206.59093 c -0.847596,-2.2157 1.148247,-6.01417 4.812563,-9.15922 3.114379,-2.67305 3.20657,-2.69077 4.877368,-0.9375 1.657656,1.73947 1.559193,1.91813 -3.698951,6.71179 -4.384171,3.99688 -5.512917,4.63464 -5.99098,3.38493 z m 11.289842,-11.41878 c -1.452033,-1.60949 -0.960438,-2.27042 8.967303,-12.05639 11.889363,-11.71956 13.800093,-13.04477 16.623233,-11.52915 2.13957,1.14865 1.81073,3.80153 -0.85639,6.90875 -1.83979,2.14337 -21.834114,18.37964 -22.633804,18.37964 -0.310249,0 -1.255404,-0.76628 -2.100342,-1.70285 z m 282.988926,-7.72626 c -0.33602,-0.54538 0.42848,-2.54929 1.6989,-4.45313 1.80298,-2.70192 6.33575,-5.7759 20.6563,-14.00839 10.09055,-5.80078 19.1696,-10.54687 20.17568,-10.54687 1.69117,0 3.76414,2.47042 3.76414,4.48585 0,0.47252 -9.24447,5.43002 -20.54327,11.01667 -11.2988,5.58665 -20.39446,10.30682 -20.21258,10.48926 0.18188,0.18245 8.93898,-3.9518 19.46023,-9.18722 16.89731,-8.40819 19.49619,-9.43817 22.27158,-8.82669 l 3.14204,0.69226 -3.69452,1.90959 c -4.90851,2.53706 -44.30436,19.42028 -45.31592,19.42028 -0.4354,0 -1.06656,-0.44622 -1.40258,-0.99161 z m 99.09876,-7.60971 c -9.1532,-10.64182 -10.79863,-13.89868 -7.02189,-13.89868 1.21308,0 2.29862,1.06117 3.13181,3.06152 1.35136,3.24435 6.49236,8.24027 11.5753,11.24865 1.68434,0.9969 3.06244,2.53024 3.06244,3.40744 0,1.79733 -1.74252,3.85963 -3.2243,3.81599 -0.53972,-0.0159 -3.92523,-3.45162 -7.52336,-7.63492 z m -25.41237,2.107 c -0.25906,-0.99376 -1.81075,-5.81927 -3.44819,-10.72337 l -2.97718,-8.91657 2.07709,-0.94934 c 1.96304,-0.89721 2.13561,-0.65588 3.14287,4.39526 0.58619,2.93952 1.66312,8.00748 2.39319,11.26214 1.58989,7.08777 1.57407,6.7387 0.30532,6.7387 -0.56214,0 -1.23404,-0.81307 -1.4931,-1.80682 z m 34.05723,-2.01827 c -3.59576,-2.10089 -0.52736,-7.42491 4.27919,-7.42491 2.13731,0 2.49651,0.39502 2.49651,2.74553 0,2.81104 -2.07044,5.7144 -4.03872,5.66346 -0.60581,-0.0157 -1.83745,-0.45851 -2.73698,-0.98408 z M 441.6494,157.56718 c -1.04179,-1.15476 -1.40897,-2.5094 -1.01645,-3.75 1.20216,-3.79948 9.83435,-1.55963 9.83435,2.55178 0,1.32526 -3.01998,3.00604 -5.40119,3.00604 -0.98217,0 -2.51968,-0.81352 -3.41671,-1.80782 z m -320.38772,-2.01727 c -2.2957,-1.3413 -2.03427,-3.36959 0.6628,-5.1423 1.26406,-0.83084 5.73034,-7.39939 9.92505,-14.59679 4.19472,-7.1974 7.8433,-12.86895 8.10798,-12.60345 0.91431,0.91718 -13.14963,31.13309 -15.19115,32.63765 -1.20147,0.88546 -1.53165,0.85766 -3.50468,-0.29511 z m 6.77571,-3.1835 c 0,-0.24535 0.83955,-1.82738 1.86566,-3.51563 1.82354,-3.00022 1.86575,-3.01556 1.86916,-0.6789 0.002,1.31484 -0.50118,2.89687 -1.118,3.51562 -1.12432,1.12783 -2.61682,1.51505 -2.61682,0.67891 z m 67.45626,-3.7732 c -2.52788,-3.22373 -2.53696,-3.88314 -0.0717,-5.20665 1.47794,-0.79345 6.62473,-0.66869 20.79439,0.50403 10.99534,0.91001 21.45516,1.29542 25.13875,0.92628 3.59245,-0.36 6.30841,-0.26801 6.30841,0.21367 0,0.46521 -1.82567,1.73558 -4.05703,2.82305 -3.59747,1.75325 -6.43693,2.05416 -25.0671,2.65645 l -21.01008,0.67923 -2.0357,-2.59606 z m 237.82623,-0.26029 c 0.67497,-2.58919 -3.40178,-6.94288 -8.93606,-9.5431 -4.72187,-2.21851 -5.58538,-3.166 -3.86021,-4.23554 1.5989,-0.99126 11.73344,4.87148 15.33636,8.87193 4.01483,4.45783 3.98836,5.9847 -0.11083,6.39332 -2.44193,0.24341 -2.81996,0.0121 -2.42926,-1.48661 z m -38.41261,-2.0059 c -0.32512,-0.5277 0.0257,-2.15608 0.77969,-3.6186 0.75395,-1.46254 1.85589,-6.21297 2.44875,-10.55652 l 1.07792,-7.89736 -2.64419,-2.11648 c -2.17435,-1.7404 -2.46003,-2.40992 -1.60776,-3.76789 0.59836,-0.95342 2.1731,-1.65142 3.72572,-1.65142 2.04056,0 3,0.65031 3.97733,2.69581 3.33851,6.98733 -4.11091,32.83114 -7.75746,26.91246 z m -226.21568,-3.04351 c -1.02804,-0.56896 -3.00818,-2.09478 -4.40031,-3.39072 -3.32801,-3.09802 -13.60674,-10.20398 -16.86137,-11.65669 -2.6013,-1.1611 -3.44577,-2.6111 -1.52068,-2.6111 0.57716,0 5.51875,2.26292 10.98131,5.0287 5.46254,2.76579 11.4889,5.53404 13.39191,6.15167 4.12561,1.339 5.60096,4.43168 3.01795,6.32632 -2.01612,1.47883 -2.20013,1.48489 -4.60881,0.15182 z m -8.85243,-3.09574 c -1.84796,-2.23362 -0.73653,-3.51973 1.6143,-1.868 1.15387,0.81073 2.09794,1.872 2.09794,2.35839 0,1.36727 -2.44224,1.04465 -3.71224,-0.49039 z m 229.92106,-4.0159 c -2.61063,-5.63691 -4.7021,-12.85593 -4.19182,-14.46872 1.06668,-3.37133 2.92267,-1.5811 5.28083,5.09373 2.02574,5.73391 2.70981,6.76195 4.37416,6.57355 2.62341,-0.29696 2.56108,2.04747 -0.10423,3.92016 -2.92532,2.05538 -3.99204,1.83269 -5.35894,-1.11872 z m 14.60116,-2.73437 c -0.77812,-0.78055 -0.80964,-4.35888 -0.0558,-6.32957 1.29975,-3.3977 5.97477,0.0845 5.97477,4.45026 0,2.12483 -0.40125,2.50431 -2.64797,2.50431 -1.45639,0 -2.92836,-0.28125 -3.27103,-0.625 z m -86.00428,-1.41914 c -2.2058,-1.23828 -1.89864,-5.09381 0.54245,-6.80895 1.1424,-0.80267 3.80947,-1.45941 5.92683,-1.45941 2.11735,0 12.28274,-1.06132 22.58977,-2.35849 19.02076,-2.39381 21.84879,-2.30842 24.36736,0.73575 1.37231,1.65869 0.6331,4.04415 -1.52866,4.9331 -0.85979,0.35355 -11.44643,1.04653 -23.52587,1.53995 -12.07944,0.49341 -23.01402,1.24769 -24.29907,1.67617 -1.59719,0.53256 -0.71006,0.65033 2.80374,0.37221 2.8271,-0.22377 13.97196,-0.78221 24.76636,-1.24095 17.81603,-0.75717 19.73689,-0.69006 20.82673,0.72764 0.66032,0.85895 0.8706,1.63882 0.46729,1.73304 -2.98878,0.69823 -51.7144,0.83623 -52.93693,0.14994 z M 140.88785,121.22875 c -1.44628,-0.37912 -1.63551,-1.76842 -1.63551,-12.00722 0,-6.36817 -0.48828,-13.700433 -1.08507,-16.293933 -1.20267,-5.226542 -0.23289,-7.615097 3.0918,-7.615097 3.04885,0 3.809,4.04341 2.21523,11.783419 -1.91034,9.277441 -1.91944,21.832491 -0.0163,22.565051 0.77102,0.2968 1.40187,0.91637 1.40187,1.37683 0,0.86875 -1.17155,0.92507 -3.97197,0.19095 z M 127.5701,110.19292 c -5.65421,-5.02416 -10.88067,-9.70889 -11.61435,-10.410501 -1.0773,-1.03021 -1.12051,-1.745597 -0.2246,-3.71805 1.56506,-3.44566 4.82773,-2.78856 6.90732,1.391118 0.88574,1.78021 4.80631,6.739613 8.71237,11.020893 4.07357,4.46487 6.97354,8.43811 6.80079,9.31777 -0.21696,1.10483 -3.17537,-1.02033 -10.58153,-7.60123 z m 96.72897,2.96333 c 0,-3.6419 1.40825,-5.34375 4.42185,-5.34375 3.07975,0 3.56983,2.26623 1.20924,5.59173 -2.8084,3.95635 -5.63109,3.83206 -5.63109,-0.24798 z m 2.14836,-8.35042 c -1.63232,-2.08096 -2.19392,-7.404483 -1.17971,-11.182777 0.53491,-1.992679 1.27176,-3.616593 1.63746,-3.608697 2.05506,0.04437 2.82656,2.114158 3.13016,8.397653 0.28183,5.832921 0.0894,7.055991 -1.14932,7.305821 -0.8183,0.16505 -1.91566,-0.24535 -2.43859,-0.912 z m -100.9935,-3.80053 c -1.46469,-1.837084 -2.31704,-5.3803 -1.29428,-5.3803 2.33396,0 3.87774,1.324209 3.87774,3.326222 0,2.624918 -1.30261,3.660598 -2.58346,2.054078 z m 216.66715,-2.029647 c -1.17149,-1.250897 -1.85082,-2.727459 -1.50963,-3.28125 1.04104,-1.689712 5.06598,-1.12424 7.19431,1.010747 1.93815,1.944206 1.94866,2.063634 0.28867,3.28125 -2.42435,1.77826 -3.53784,1.58985 -5.97335,-1.010747 z M 144.01839,98.671875 c 0.0512,-0.902344 0.39517,-2.695313 0.76429,-3.984375 l 0.67113,-2.34375 1.57216,3.000319 c 2.12528,4.055897 1.98491,4.968431 -0.76429,4.968431 -1.63762,0 -2.30858,-0.490706 -2.24329,-1.640625 z m 187.38638,-9.824081 c -3.20369,-5.414453 -3.33701,-5.926476 -1.83085,-7.03125 0.89345,-0.655349 2.32848,-1.191544 3.18895,-1.191544 2.34624,0 6.48947,3.634757 6.48947,5.693044 0,2.418913 -0.59409,2.282422 -3.35661,-0.771169 -1.71764,-1.898628 -1.54889,-1.423857 0.64028,1.801357 3.1174,4.592722 3.14817,7.339268 0.0823,7.339268 -1.1632,0 -2.92746,-1.976177 -5.21348,-5.839706 z m -43.5543,-6.240427 c -23.49875,-9.931199 -25.23364,-10.872238 -25.23364,-13.687186 0,-3.540559 2.82863,-4.549564 9.15708,-3.266436 2.9309,0.594254 6.17002,1.602851 7.19806,2.241327 1.02803,0.638476 9.54439,3.820447 18.92523,7.071048 13.34389,4.623856 17.05608,6.265937 17.05608,7.544739 0,1.990668 -1.5767,3.396183 -4.67813,4.170205 -1.72065,0.429424 -6.71734,-1.391823 -19.07792,-6.953724 -9.21068,-4.14454 -16.896,-7.38576 -17.07848,-7.20271 -0.18247,0.183048 7.08717,3.662547 16.15478,7.732218 14.68094,6.589017 18.21584,8.723509 15.63769,9.442572 -0.42407,0.118275 -8.5514,-3.07315 -18.06075,-7.092053 z m -60.23412,5.592703 c -0.53726,-0.872029 3.72692,-4.76257 5.21997,-4.76257 1.05456,0 1.02226,0.378746 -0.27605,3.237138 -1.06565,2.346162 -3.89955,3.22055 -4.94392,1.525432 z M 95.187805,78.046875 C 92.381148,75.597656 88.635807,72.482024 86.864827,71.123247 83.6688,68.671112 83.658098,68.638005 85.425224,66.670122 86.404423,65.57968 87.518072,64.6875 87.900001,64.6875 c 0.381929,0 4.312073,2.204335 8.733655,4.898522 8.402974,5.12015 9.414954,6.70867 7.071784,11.10061 -1.44596,2.710245 -2.90504,2.258054 -8.517635,-2.639757 z M 237.48973,77.472536 c -0.79686,-0.963161 -0.50156,-4.134716 1.20026,-12.890625 1.24143,-6.387238 2.97136,-16.464724 3.8443,-22.394411 1.97583,-13.421342 2.62677,-15.221258 5.3632,-14.82964 4.03847,0.577955 4.7135,4.213422 3.14834,16.955736 -0.77473,6.30721 -1.92917,15.980288 -2.56541,21.49573 -0.63808,5.53134 -1.53983,9.79062 -2.01097,9.498531 -0.46977,-0.291249 -0.60117,-2.272633 -0.292,-4.403075 0.30919,-2.130443 1.18055,-10.12016 1.93638,-17.754929 0.75582,-7.634768 1.65624,-14.384768 2.00095,-15 0.43657,-0.779214 0.31009,-0.828486 -0.41688,-0.162397 -0.57398,0.525914 -1.47704,5.166539 -2.00679,10.3125 -2.86607,27.840595 -2.81521,27.581051 -5.69773,29.076318 -3.23006,1.675546 -3.19762,1.674853 -4.50365,0.09626 z M 76.635515,63.133772 C 73.808412,60.802721 68.656543,57.037403 65.186917,54.766396 59.153075,50.817009 57.419456,48.75 60.140914,48.75 c 2.976967,0 8.204025,2.553352 16.803447,8.208271 l 9.18735,6.041538 -2.107269,2.250095 c -1.158999,1.237553 -2.139101,2.221306 -2.178005,2.186118 -0.0389,-0.03519 -2.383819,-1.9712 -5.210922,-4.30225 z m 62.128875,1.520205 C 137.49096,62.587082 136.12344,6.5625 137.34642,6.5625 c 1.49767,0 4.71056,9.780832 4.73742,14.421893 0.0242,4.179922 1.72457,22.484835 3.27588,35.265607 0.31915,2.629418 0.0486,5.101713 -0.71825,6.5625 -1.32214,2.518688 -4.79032,3.605379 -5.87708,1.841477 z"
       id="path3820"
       inkscape:connector-curvature="0" />
    <path
       style="fill:#bfbfbf"
       d="M 0,138.75 0,0 l 274.29907,0 274.29907,0 0,138.75 0,138.75 -274.29907,0 L 0,277.5 0,138.75 Z m 502.87579,125.86018 c -14.98119,-0.25839 -16.38649,-0.42893 -17.57635,-2.13302 -0.72246,-1.03467 -2.36268,-1.85216 -3.71621,-1.85216 l -2.42293,0 0.66602,-17.52375 c 0.93856,-24.69439 -0.11815,-22.40051 10.6459,-23.10979 7.24482,-0.47737 9.3477,-0.95664 10.86183,-2.4755 1.76658,-1.7721 1.78374,-1.97772 0.2902,-3.47593 -1.4926,-1.49726 -1.78588,-1.49748 -4.90858,-0.004 -1.82662,0.87378 -4.82382,1.58869 -6.66045,1.58869 -2.83096,0 -3.22992,-0.24975 -2.62077,-1.64062 0.39519,-0.90235 0.90107,-3.18221 1.12418,-5.06636 0.4634,-3.91328 -2.10348,-7.35549 -5.48506,-7.35549 -1.71359,0 -1.9023,-0.40083 -1.43447,-3.04688 1.43938,-8.14104 1.5545,-12.52591 0.38719,-14.74714 -1.05666,-2.01066 -0.99821,-2.54977 0.43193,-3.98438 1.09214,-1.09555 1.65394,-3.0921 1.65394,-5.87785 0,-5.81802 -2.41378,-8.19207 -7.98002,-7.8487 -2.2598,0.13939 -4.40277,-0.0415 -4.76217,-0.40205 -2.19333,-2.20019 -6.66303,0.88023 -5.49307,3.78569 0.58908,1.46288 0.76186,1.40144 1.50528,-0.53533 1.34696,-3.50915 3.10947,-1.88433 3.14575,2.90001 l 0.0328,4.3278 -2.1955,-2.05121 c -1.20752,-1.12817 -2.89141,-3.52777 -3.74196,-5.33246 -1.66351,-3.52958 -5.33347,-4.97858 -6.28822,-2.48276 -0.73589,1.92371 0.93041,4.79302 6.61397,11.38901 l 4.84689,5.625 -0.16285,15.20457 -0.16284,15.20457 -4.22888,4.53514 c -4.64381,4.98013 -6.87237,10.23542 -5.93283,13.99055 0.33425,1.33595 3.13388,5.06794 6.22138,8.29329 l 5.61364,5.86429 -3.8573,7.69576 c -2.12151,4.23266 -3.63266,8.28297 -3.35811,9.00066 0.42531,1.11177 -23.22152,1.30492 -159.75184,1.30492 l -160.25105,0 0,-22.76285 0,-22.76284 9.39168,-1.12664 c 15.72276,-1.8861 30.62559,-7.733 42.47748,-16.66536 4.32224,-3.25753 5.67901,-3.88693 5.9196,-2.74611 0.47255,2.2407 2.27014,1.13854 3.20247,-1.96354 0.45523,-1.51466 1.28823,-3.70249 1.85109,-4.86187 1.62557,-3.34825 0.10467,-3.60132 -5.39181,-0.89718 -5.28595,2.60058 -6.94732,4.90867 -2.77762,3.85886 1.28505,-0.32353 2.33645,-0.36733 2.33645,-0.0973 0,1.35709 -12.69383,9.84381 -20.09346,13.4339 -9.53681,4.62699 -19.64891,7.46749 -29.90207,8.39951 l -7.01381,0.63756 0,-43.66773 c 0,-28.1979 0.33219,-43.87369 0.93772,-44.24908 0.51573,-0.31974 3.80366,1.2001 7.30649,3.37744 l 6.36879,3.9588 -1.44149,4.0211 c -1.38986,3.87714 -1.36342,4.12702 0.73865,6.9791 2.01212,2.73004 2.06313,3.07533 0.66192,4.48091 -1.28151,1.28552 -1.8214,1.33298 -3.46324,0.30443 -2.52702,-1.58307 -3.71911,-0.40645 -1.34931,1.33181 2.65756,1.94933 4.95545,1.62844 6.62325,-0.9249 0.80994,-1.23998 2.51257,-2.51633 3.78364,-2.83635 1.27106,-0.32002 3.11493,-1.38826 4.09747,-2.37387 1.42588,-1.43034 2.3171,-1.61887 4.41549,-0.93406 1.44596,0.47189 8.4741,1.9711 15.61807,3.33158 12.43301,2.36772 13.81329,2.44425 32.243,1.78768 17.80721,-0.63438 19.59217,-0.8575 23.75533,-2.96933 6.29193,-3.19169 5.29962,-4.59886 -2.99762,-4.25087 -6.14441,0.25769 -39.75463,-2.03614 -46.36358,-3.16422 -1.54206,-0.26321 -6.37851,-1.28098 -10.74767,-2.26171 -4.36916,-0.98073 -9.55463,-2.04285 -11.52329,-2.36028 -3.46267,-0.55833 -24.1565,-10.47527 -24.75204,-11.86173 -0.16171,-0.37648 -0.8977,-0.45213 -1.63552,-0.16812 -0.73781,0.28401 -1.34148,0.0846 -1.34148,-0.44329 0,-0.52783 0.49941,-1.12667 1.10981,-1.33078 0.71137,-0.23786 0.36296,-1.12027 -0.97044,-2.45784 -1.88237,-1.88825 -2.05462,-2.8637 -1.81075,-10.25391 l 0.26951,-8.16715 4.10629,-0.54968 c 5.07151,-0.67889 6.84105,-2.840095 6.45838,-7.88782 -0.21494,-2.835082 0.0578,-3.75 1.11757,-3.75 0.77103,0 1.81702,0.949219 2.32442,2.109375 1.00588,2.299912 2.34848,2.821134 2.34848,0.911724 0,-3.624738 -4.80799,-6.690662 -7.05608,-4.499467 -0.48832,0.475959 -1.93925,0.656904 -3.2243,0.4021 l -2.33645,-0.463281 0.12495,-12.355226 c 0.0687,-6.795374 -0.43589,-16.1521 -1.12135,-20.792725 -1.50987,-10.221946 -3.2092,-28.477661 -3.2092,-34.476037 0,-6.763829 -5.03041,-17.0649588 -6.85604,-14.039588 -0.23336,0.3867187 -0.0849,14.414062 0.33002,31.171875 0.50213,20.282759 0.42776,32.558571 -0.22245,36.719905 -0.72694,4.652356 -0.67462,8.009215 0.20456,13.125 0.64973,3.780615 1.3438,11.51447 1.5424,17.186345 l 0.36109,10.3125 -5.73069,-6.09375 c -5.00755,-5.32481 -5.48106,-6.13159 -3.7525,-6.3936 2.70926,-0.41066 3.82752,-2.899959 3.71962,-8.279981 -0.10691,-5.330317 -1.44003,-9.394951 -3.88614,-11.848707 -2.13985,-2.146536 -3.37427,-1.327355 -1.46118,0.969665 1.09986,1.320588 3.60177,6.241397 3.60177,7.084031 0,0.106252 -2.19017,0.161336 -4.86705,0.122408 l -4.86705,-0.07077 -8.06287,-8.60402 c -4.43458,-4.732216 -8.28928,-8.604024 -8.566,-8.604024 -1.20181,0 -14.758522,-8.677287 -14.758522,-9.446534 0,-0.468355 2.095247,-2.225891 4.656103,-3.905635 2.560859,-1.679744 4.663663,-3.614042 4.672897,-4.29844 0.0097,-0.719417 -2.512337,0.529152 -5.978423,2.959694 l -5.995217,4.204052 -9.695068,-6.378308 c -10.296006,-6.773662 -16.88009,-9.51122 -18.636895,-7.748925 -1.454716,1.459262 -0.333736,2.774412 5.612399,6.584551 2.89891,1.857552 7.90339,5.450255 11.121068,7.983785 l 5.850322,4.60642 -4.710093,5.169698 c -9.145158,10.037529 -16.031643,22.767101 -19.78164,36.566102 -2.63602,9.69985 -2.890751,31.2505 -0.483288,40.88689 2.010441,8.04722 6.32184,18.49597 10.512218,25.47653 1.776197,2.95888 3.229448,5.53961 3.229448,5.73495 0,0.19534 -0.888855,0.35517 -1.975233,0.35517 -2.220002,0 -2.220663,-0.0157 0.5115,12.1875 0.865817,3.86719 4.276683,20.32031 7.579701,36.5625 3.303017,16.24219 6.228034,30.47223 6.500037,31.62231 l 0.494551,2.09105 -20.340325,0.27195 c -11.187179,0.14958 86.90267,0.27394 217.97744,0.27635 131.07476,0.003 230.99036,-0.12201 222.03466,-0.27648 z M 85.98131,264.07437 c 0,-0.59934 -7.336411,-36.79868 -7.966585,-39.30875 l -0.647262,-2.57812 31.877017,0 31.87702,0 0,21.09375 0,21.09375 -27.5701,0 c -15.163548,0 -27.57009,-0.13528 -27.57009,-0.30063 z m 384.72602,-3.21147 c -0.24742,-0.4016 0.12916,-1.77957 0.83688,-3.06217 l 1.28676,-2.33198 0.0331,2.52279 c 0.0329,2.50438 -1.29427,4.27125 -2.15675,2.87136 z M 469.743,230.81461 c -0.25343,-0.41134 -0.0744,-1.36056 0.39782,-2.10938 0.67037,-1.06298 0.86174,-0.89902 0.87292,0.74789 0.0147,2.16847 -0.46012,2.6772 -1.27074,1.36149 z M 77.158233,219.14062 c -0.194259,-0.64453 -0.794122,-3.07031 -1.33303,-5.39062 -0.959608,-4.13168 -0.908313,-4.29293 2.485334,-7.8129 1.905841,-1.97678 4.569784,-4.39419 5.919874,-5.37204 l 2.454707,-1.7779 7.493697,5.03149 c 11.433395,7.67673 25.884565,12.74011 40.634275,14.23739 14.03026,1.42425 4.62682,2.25646 -25.49662,2.25646 -24.632606,0 -31.884689,-0.26427 -32.158237,-1.17188 z m 50.263797,-3.96512 c -3.67956,-0.66978 -8.93657,-1.95024 -11.68224,-2.84546 -6.63677,-2.1639 -20.14076,-9.14386 -23.966045,-12.38759 l -3.064613,-2.5987 9.51329,-7.5 c 16.081108,-12.67787 26.632198,-25.13894 28.378528,-33.51563 0.2956,-1.41796 1.09512,-2.57812 1.77668,-2.57812 2.31719,0 4.41513,-3.39362 4.18814,-6.77473 -0.2703,-4.02611 6.58403,-20.20319 7.76751,-18.33231 0.41778,0.66043 0.76604,20.71251 0.77391,44.56016 l 0.0143,43.35938 -3.50468,-0.0846 c -1.92757,-0.0465 -6.51522,-0.63262 -10.19479,-1.3024 z m -53.935538,-13.613 c -1.413882,-3.53218 -3.134181,-14.42251 -2.592608,-16.41248 0.567084,-2.0837 0.892776,-1.88411 5.701015,3.49369 l 5.099572,5.70365 -3.321561,2.90445 c -1.826858,1.59744 -3.547001,3.53725 -3.822539,4.31069 -0.445313,1.25 -0.563522,1.25 -1.063879,0 z m 5.358676,-13.32817 c -9.407399,-9.7129 -16.573716,-22.91446 -20.500633,-37.76558 -2.433241,-9.20222 -2.433241,-30.17278 0,-39.375 3.859059,-14.594494 11.837246,-29.314879 20.52229,-37.865242 l 4.136789,-4.072637 4.52623,3.459987 c 7.881541,6.024883 20.019056,17.536234 22.282486,21.132944 1.19991,1.906723 8.29937,8.902958 15.77658,15.547198 l 13.59491,12.08043 -2.94244,5.17115 c -1.61835,2.84414 -3.80235,6.71902 -4.85333,8.61084 -1.74466,3.14047 -2.3117,3.46678 -6.51886,3.75141 -3.87325,0.26204 -5.00656,-0.0622 -7.10772,-2.03341 -1.37485,-1.28985 -2.72184,-2.97798 -2.9933,-3.75142 -0.27147,-0.77344 -0.79245,-1.12905 -1.15773,-0.79025 -0.88617,0.82193 1.88972,6.10444 3.75932,7.15399 0.96554,0.54203 1.59566,2.48148 1.80825,5.5656 0.28182,4.08846 0.004,5.03562 -2.0429,6.94903 -1.30305,1.21846 -3.54534,4.54293 -4.98286,7.38771 -3.55966,7.04444 -7.1943,11.63075 -18.695506,23.59064 l -9.814287,10.20569 -4.797289,-4.95308 z M 387.48945,182.274 c 9.19388,-3.90555 21.97317,-9.56712 28.39841,-12.58127 6.42523,-3.01414 13.44404,-5.75768 15.59733,-6.09676 l 3.91509,-0.6165 3.0009,9.68214 c 3.12824,10.09298 4.81811,13.10905 6.4357,11.48641 0.61025,-0.61216 0.13554,-4.66671 -1.3952,-11.9164 -2.85636,-13.52795 -2.88598,-14.16446 -0.59207,-12.72741 1.00187,0.62763 2.81958,0.80778 4.32535,0.42868 3.3677,-0.84789 7.96523,-5.48187 7.96523,-8.02839 0,-2.27656 -3.9078,-6.592 -5.9693,-6.592 -0.75975,0 -1.63073,-0.78811 -1.9355,-1.75136 -0.70373,-2.22417 -4.05766,-5.31129 -4.8772,-4.48919 -0.34155,0.34262 0.39159,1.70417 1.6292,3.02567 l 2.25021,2.40271 -1.969,1.57796 c -1.08296,0.86788 -2.43157,2.42171 -2.99693,3.45296 -0.9951,1.81515 -1.02881,1.807 -1.05633,-0.25532 -0.0703,-5.26558 -16.90373,-17.8926 -20.19753,-15.15045 -2.18005,1.81494 -1.59004,2.58894 4.21386,5.52789 5.35219,2.71021 8.47862,5.73379 8.47862,8.19969 0,1.88213 -12.54675,7.77142 -16.56546,7.77562 -5.42159,0.006 -42.64913,21.66008 -46.43336,27.00923 -2.27207,3.21167 -2.52183,4.08024 -1.52107,5.28985 0.65854,0.79599 1.50909,1.44724 1.89011,1.44724 0.38102,0 8.21504,-3.19545 17.40894,-7.101 z m -23.93804,-31.91307 c 0,-1.39376 0.18304,-1.39376 2.30357,0 6.71573,4.41407 12.85847,-1.22348 14.9498,-13.72031 0.53975,-3.22529 0.84067,-3.51562 3.64392,-3.51562 2.57193,0 3.30248,0.51937 4.61543,3.28125 1.65933,3.49052 2.51166,3.85594 5.38984,2.31077 2.26753,-1.21734 2.36533,-0.0181 0.32177,3.94609 -1.33791,2.59531 -1.34258,3.0263 -0.0469,4.32603 1.21204,1.21582 1.67732,1.24517 2.94945,0.18611 1.94027,-1.61532 4.34383,-6.2484 5.07747,-9.7873 0.55504,-2.67738 0.73187,-2.75988 5.38533,-2.51211 6.42039,0.34183 9.13493,-2.07431 8.41125,-7.48661 -0.4143,-3.09845 -0.13225,-3.9231 1.88669,-5.51615 1.3056,-1.03019 2.97275,-1.87308 3.7048,-1.87308 0.73204,0 1.07107,-0.42188 0.75338,-0.9375 -0.91076,-1.47826 -2.8046,-1.10663 -5.59963,1.09881 -1.88771,1.48951 -3.94022,2.05592 -7.64369,2.10937 -4.45104,0.0642 -5.1247,-0.17355 -5.57333,-1.96731 -1.07887,-4.31352 -2.96723,-4.96138 -12.2846,-4.2146 l -8.61837,0.69075 0,-3.59257 c 0,-5.9709 -3.86518,-11.84003 -7.84156,-11.90714 -2.14344,-0.0362 -9.91544,3.74491 -9.91544,4.82387 0,1.05586 0.11547,1.02935 5.04672,-1.15879 2.46481,-1.09371 5.15318,-1.67431 6.20381,-1.33981 2.54499,0.81027 4.63732,5.22559 4.63732,9.78586 0,4.23958 0.45929,4.02884 -9.3458,4.28822 -3.34112,0.0884 -14.44297,1.27954 -24.67076,2.64702 -10.22781,1.36748 -20.3697,2.48632 -22.53753,2.48632 -4.75042,0 -8.86647,2.83579 -8.86647,6.10864 0,4.68414 1.28023,4.85055 33.72311,4.38332 l 30.03221,-0.43252 -0.56925,2.93903 c -0.31309,1.61646 -0.81516,4.21476 -1.11572,5.77398 -0.70556,3.66035 -4.70293,8.41505 -7.07469,8.41505 -1.01613,0 -2.7178,-0.46722 -3.7815,-1.03827 -1.51938,-0.81568 -1.66227,-1.20671 -0.66656,-1.82402 0.69709,-0.43217 1.06932,-0.91559 0.8272,-1.07428 -0.24212,-0.15868 -1.8401,-1.27346 -3.55107,-2.47728 -1.71098,-1.20382 -3.33547,-1.96344 -3.61,-1.68805 -0.76087,0.76324 1.64802,9.9769 2.60845,9.9769 0.46275,0 0.84137,-0.68133 0.84137,-1.51407 z M 247.42864,131.26938 c 5.51776,-3.63883 7.31628,-4.43387 7.54643,-3.3359 0.61276,2.92315 1.80496,1.29804 2.83982,-3.871 0.58497,-2.92188 0.91726,-5.45929 0.73843,-5.63868 -0.56203,-0.56379 -9.02061,4.50572 -9.02061,5.40635 0,0.47154 0.94627,0.85945 2.10281,0.86201 1.99014,0.005 1.95259,0.12723 -0.70094,2.29251 -6.25862,5.10703 -11.5675,7.28535 -18.07898,7.41813 -8.90551,0.18159 -14.65874,-1.02758 -17.89789,-3.76166 -1.54449,-1.30368 -2.80817,-1.94844 -2.80817,-1.43282 0,1.80582 5.69497,5.72238 9.13966,6.28555 1.91244,0.31267 4.108,0.72878 4.87903,0.92469 0.77103,0.19591 4.24008,0.1924 7.70901,-0.008 5.73184,-0.33077 6.96791,-0.79974 13.5514,-5.1414 z m -5.32898,-12.00665 c 1.97824,-2.52277 2.38131,-5.37004 0.891,-6.29398 -0.51402,-0.31868 -0.93458,0.19538 -0.93458,1.14233 0,1.85621 -2.46777,5.88892 -3.60365,5.88892 -0.38166,0 -0.52767,-1.42853 -0.32446,-3.17452 0.20319,-1.74598 -0.0942,-4.04359 -0.66093,-5.10579 -0.83651,-1.56793 -0.61833,-2.54037 1.15968,-5.1686 2.49937,-3.69452 3.84547,-6.888306 5.28073,-12.529112 0.90974,-3.575449 1.33152,-4.001087 4.48297,-4.524048 7.42574,-1.232249 10.75008,-3.472777 11.87722,-8.004995 0.40798,-1.640447 0.12477,-2.809116 -0.88435,-3.64922 -1.89277,-1.575774 -3.02057,-0.536157 -1.46199,1.347686 0.9595,1.159732 0.88838,1.868097 -0.38299,3.814501 -1.62735,2.491422 -3.58984,3.50241 -8.71371,4.488924 l -3.04456,0.586178 1.64269,-2.515139 c 1.2407,-1.899652 1.66324,-4.58994 1.72662,-10.993628 0.0462,-4.663168 0.85311,-14.595674 1.79322,-22.072237 2.29388,-18.242873 2.30028,-21.816419 0.0436,-24.317843 -2.2963,-2.545315 -5.26523,-2.156232 -6.71751,0.880343 -0.6165,1.289063 -1.79526,6.984375 -2.61946,12.65625 -1.22414,8.424202 -4.75945,28.859393 -6.69028,38.671875 -0.22829,1.160156 -1.02326,2.109375 -1.76661,2.109375 -0.74335,0 -2.74045,1.223289 -4.438,2.71842 -2.89852,2.552879 -3.24253,2.636399 -5.64912,1.371518 -2.14245,-1.126048 -2.46334,-1.763948 -1.95703,-3.890296 0.86515,-3.633353 1.40833,-4.323624 2.28395,-2.902425 0.60073,0.975033 1.28944,0.756506 3.1542,-1.000829 1.31215,-1.236525 2.3857,-2.596563 2.3857,-3.022307 0,-0.425744 -2.10281,-0.774081 -4.6729,-0.774081 -2.57009,0 -4.6729,0.421875 -4.6729,0.9375 0,0.515625 0.69602,0.9375 1.54672,0.9375 1.39712,0 1.40781,0.158675 0.11054,1.640625 -2.72434,3.112178 -2.93759,5.838083 -0.64799,8.282884 1.16616,1.245195 2.71124,2.263991 3.43351,2.263991 1.01511,0 1.13992,0.69165 0.54985,3.046875 -1.1288,4.505437 -0.59356,11.033215 1.05444,12.859915 1.31071,1.45285 1.27064,1.75938 -0.43202,3.30509 -2.57609,2.33862 -2.59191,9.13321 -0.0272,11.7059 1.52295,1.5277 3.01572,1.83366 8.4548,1.73291 5.84489,-0.10827 6.81546,-0.39038 8.43088,-2.45046 z M 350.00001,112.5 c 0.3247,-0.52703 -0.41944,-0.9375 -1.69957,-0.9375 -1.25244,0 -2.76053,-0.58423 -3.3513,-1.2983 -0.85673,-1.03551 -0.59855,-1.41802 1.2756,-1.88987 3.19172,-0.80358 5.54619,-4.58415 4.77486,-7.66699 -0.90492,-3.616784 -4.67767,-6.95734 -7.85745,-6.95734 -3.06135,0 -4.15593,-2.180838 -3.28559,-6.546158 0.40048,-2.00868 -0.0965,-3.022446 -2.45931,-5.016856 -3.50128,-2.955339 -5.56926,-3.13289 -8.52508,-0.731938 -1.86552,1.51533 -1.99732,1.983544 -0.92368,3.28125 1.81713,2.196359 0.40586,1.869279 -4.97572,-1.153179 -2.61165,-1.466784 -13.15968,-5.539001 -23.44005,-9.049372 C 289.25234,71.023378 280,67.621483 278.97197,66.973982 c -1.02804,-0.647501 -4.30889,-1.672172 -7.29078,-2.277045 -4.68585,-0.950523 -5.73986,-0.890594 -7.76671,0.441598 -1.71241,1.125523 -2.26683,2.214738 -2.05502,4.037267 0.37552,3.231005 3.19815,4.796117 25.05643,13.893426 9.50935,3.957743 18.60105,7.979993 20.20377,8.938334 1.60273,0.958341 4.03295,1.742438 5.40049,1.742438 1.36754,0 5.07948,1.313062 8.24877,2.917912 3.63783,1.842113 7.76283,3.099872 11.1883,3.411458 4.88762,0.44457 5.42596,0.70642 5.42596,2.63905 0,1.18002 1.05141,2.9751 2.33645,3.98909 1.28505,1.01398 2.33645,2.17153 2.33645,2.57235 0,2.89997 6.51427,5.54059 7.94393,3.22014 z M 282.98845,48.509839 c 0.53588,-0.647714 0.9028,-3.073496 0.81538,-5.390625 -0.14279,-3.784189 -0.4049,-4.241641 -2.57541,-4.494737 -1.34437,-0.156762 -2.94981,0.362894 -3.61863,1.1713 -1.05457,1.274647 -0.84392,1.381195 1.7155,0.867711 1.88401,-0.377979 2.91771,-0.211705 2.91771,0.469324 0,0.580079 -0.63085,1.054688 -1.40187,1.054688 -1.86193,0 -1.77232,0.925001 0.23364,2.41166 1.28009,0.9487 1.39024,1.461677 0.5069,2.360494 -0.89035,0.90594 -1.4377,0.891061 -2.59267,-0.07048 -1.87976,-1.564933 -2.99022,-0.507165 -1.43765,1.369421 1.43381,1.733032 4.10889,1.856645 5.4371,0.251245 z m 8.96741,-0.931714 c 1.37014,-2.19255 -0.385,-4.948593 -3.08525,-4.844672 -1.10332,0.04246 -1.84341,-0.379413 -1.64466,-0.9375 0.19876,-0.558086 1.49963,-0.931481 2.89085,-0.829765 3.14675,0.230068 2.77018,-1.916977 -0.41801,-2.383347 -3.89219,-0.569351 -6.02901,4.897023 -3.65424,9.348183 1.18959,2.229725 4.41783,2.037003 5.91131,-0.352899 z m -4.623,-0.784811 c -0.81559,-1.323771 0.9857,-3.130684 2.30534,-2.312549 1.48226,0.918951 1.24278,3.331735 -0.3307,3.331735 -0.74069,0 -1.62928,-0.458634 -1.97464,-1.019186 z m 12.61301,1.553362 c 1.59062,-1.92256 0.85328,-8.104518 -1.11409,-9.340684 -2.53807,-1.594766 -4.85498,0.416187 -5.20049,4.513756 -0.32286,3.828946 1.02898,6.167752 3.56498,6.167752 0.90216,0 2.13948,-0.60337 2.7496,-1.340824 z m -4.22489,-1.794285 c -0.89693,-2.344654 -0.021,-5.771141 1.47529,-5.771141 0.97257,0 1.40187,0.980902 1.40187,3.203125 0,3.324107 -1.92922,5.046033 -2.87716,2.568016 z m 9.57264,-4.896657 c 0.77894,-2.036214 -1.19854,-3.951108 -2.61397,-2.53125 -1.1963,1.200031 -0.45519,4.000516 1.05867,4.000516 0.54628,0 1.24617,-0.66117 1.5553,-1.469266 z m -2.48988,-0.874484 c 0,-0.773438 0.42056,-1.40625 0.93458,-1.40625 0.51402,0 0.93458,0.632812 0.93458,1.40625 0,0.773437 -0.42056,1.40625 -0.93458,1.40625 -0.51402,0 -0.93458,-0.632813 -0.93458,-1.40625 z"
       id="path3818"
       inkscape:connector-curvature="0" />
    <path
       style="fill:#0000fe"
       d="m 459.82687,230.82926 c -0.0235,-3.64886 2.70842,-8.9363 6.76446,-13.09219 l 3.88603,-3.98168 0.1439,-13.83082 c 0.1748,-16.80118 0.0814,-16.12028 1.86165,-13.57067 0.80017,1.14598 1.99668,2.0836 2.65889,2.0836 1.56305,0 3.99054,-2.76848 4.52117,-5.15625 0.35999,-1.61991 0.57373,-1.49236 1.57101,0.9375 0.88211,2.14926 0.91679,4.42437 0.14709,9.64767 -0.55398,3.75934 -1.00723,8.73122 -1.00723,11.04861 0,4.00647 -0.0976,4.16104 -1.98737,3.1465 -4.92247,-2.64265 -9.03296,4.07906 -8.01803,13.11157 0.56109,4.99353 -0.88913,9.01074 -2.70667,7.49761 -1.92452,-1.6022 -5.36455,-0.59023 -6.64329,1.95429 -1.16801,2.32421 -1.17795,2.32592 -1.19161,0.20426 z m -346.2177,-56.61885 c 0.36915,-1.04274 -0.25402,-2.10331 -1.85364,-3.15469 -2.2374,-1.47059 -2.57683,-1.47404 -4.74618,-0.0482 -3.1157,2.04786 -2.94842,1.03292 0.47426,-2.87748 1.54589,-1.76618 4.03493,-5.64398 5.53121,-8.61736 2.99965,-5.96084 5.67677,-8.96387 5.67677,-6.36786 0,1.81094 4.1973,4.76067 5.56637,3.91189 1.58235,-0.981 1.11874,2.12431 -0.87653,5.87125 -2.04587,3.84195 -10.65835,13.78537 -9.77226,11.28243 z m 303.46247,-8.29635 c -1.40087,-0.56518 -1.8973,-1.33861 -1.50963,-2.352 0.32769,-0.85659 -0.29772,-2.69755 -1.44541,-4.25474 l -2.02301,-2.74482 3.79294,0 c 2.38941,0 5.93021,-1.08226 9.56875,-2.92473 3.84035,-1.94465 7.19713,-2.94035 10.01737,-2.97134 l 4.24159,-0.0466 0.11867,4.41455 c 0.13714,5.10118 -1.14625,6.15229 -9.73942,7.97678 -2.72428,0.57841 -6.17302,1.6844 -7.66387,2.45776 -1.49084,0.77335 -2.83665,1.37936 -2.99068,1.34667 -0.15403,-0.0327 -1.21932,-0.43837 -2.3673,-0.90151 z M 183.17757,147.61743 c -5.91121,-1.17305 -10.94638,-2.17154 -11.18926,-2.21887 -0.24287,-0.0473 0.5268,-0.76646 1.71038,-1.59807 1.60326,-1.12647 2.00918,-2.08264 1.592,-3.75 -0.68532,-2.73909 -0.27957,-2.75579 8.82146,-0.36299 3.85514,1.01358 8.02079,1.8501 9.257,1.85893 2.1786,0.0156 2.19635,0.0729 0.57776,1.86705 -1.56374,1.73331 -1.57157,2.00151 -0.12331,4.21875 0.85063,1.30227 1.22148,2.31158 0.82411,2.24289 -0.39736,-0.0687 -5.55892,-1.08464 -11.47014,-2.25769 z m 188.40371,-17.77368 c -0.842,-1.28906 -1.11544,-2.34375 -0.60767,-2.34375 0.50779,0 1.39213,-0.87884 1.9652,-1.95299 0.83714,-1.5691 0.70583,-2.32796 -0.66806,-3.86065 -0.94049,-1.04922 -2.55112,-2.23326 -3.57916,-2.6312 -1.09414,-0.42354 1.17716,-0.66919 5.4779,-0.59247 l 7.34706,0.13106 -0.61352,6.01732 c -0.33743,3.30954 -0.82964,6.36813 -1.0938,6.79688 -0.26416,0.42876 -1.87906,0.77955 -3.58867,0.77955 -2.28432,0 -3.51425,-0.62136 -4.63928,-2.34375 z m 11.12961,-4.92187 0.99671,-7.26563 5.33089,-0.28081 c 4.70567,-0.24788 5.259,-0.0928 4.71785,1.32177 -0.41892,1.09512 0.20892,2.26007 1.98268,3.67884 2.34024,1.87187 2.53162,2.45692 1.94434,5.94384 -1.04035,6.17708 -3.47186,5.22401 -6.27733,-2.46051 -2.44961,-6.70979 -4.54272,-8.3268 -6.36271,-4.91549 -0.82676,1.54966 -0.7366,2.95867 0.40424,6.31732 0.80759,2.37754 1.46833,4.45859 1.46833,4.62455 0,0.16595 -1.17038,0.30174 -2.60085,0.30174 l -2.60085,0 0.9967,-7.26562 z M 233.64486,108.12885 c -0.77102,-0.25569 -1.97493,-0.64741 -2.67534,-0.87047 -0.94081,-0.29961 -1.00708,-0.72757 -0.25368,-1.6382 0.65008,-0.78574 0.80865,-3.50079 0.4374,-7.488896 l -0.5824,-6.256284 3.75664,0 c 2.06615,0 5.04535,-0.258547 6.62043,-0.574548 l 2.86379,-0.574549 -1.24715,4.742525 c -1.37088,5.212992 -5.11311,12.546082 -6.58324,12.900202 -0.51402,0.12382 -1.56542,0.0159 -2.33645,-0.23978 z m 93.45795,-9.632409 c -1.28505,-0.394566 -4.53041,-1.834866 -7.21193,-3.200663 -2.6815,-1.365806 -5.90645,-2.483278 -7.16655,-2.483278 -5.50728,0 -7.14008,-2.981229 -2.6776,-4.888875 3.74415,-1.600568 5.84113,-3.599515 5.84113,-5.568066 0,-2.898842 14.37726,5.324458 16.28412,9.313955 1.727,3.613205 3.84222,4.678645 6.26959,3.158002 2.12592,-1.331817 2.24364,-0.333347 0.29049,2.463881 -1.13067,1.619306 -2.32815,2.06565 -5.37383,2.003025 -2.15544,-0.04434 -4.97037,-0.403406 -6.25542,-0.797981 z M 110.94384,94.11555 c -1.28085,-2.005742 -3.82714,-5.081691 -5.65841,-6.835446 l -3.3296,-3.188645 1.82583,-2.32841 c 1.0042,-1.280625 1.82582,-3.354236 1.82582,-4.608025 0,-1.93843 1.15398,-1.056702 7.71028,5.891218 4.24065,4.493959 7.62735,8.424336 7.526,8.734171 -0.10136,0.309835 -0.94248,0.69862 -1.86916,0.863966 -0.92668,0.165347 -2.58872,1.384527 -3.69341,2.709299 l -2.00853,2.408663 -2.32882,-3.646791 z m 123.5045,-10.12314 c 1.85054,-4.505403 2.75577,-5.769253 3.6202,-5.054427 0.80931,0.669253 2.13226,0.373367 4.44149,-0.993372 1.80887,-1.070594 3.91869,-1.704091 4.68848,-1.407771 3.59181,1.382612 -0.46241,11.317108 -5.15294,12.626805 -1.27927,0.357201 -4.06717,0.691508 -6.19536,0.742905 L 231.9808,90 l 2.46754,-6.00759 z m -89.83742,3.279073 c -0.6415,-2.460748 -3.23907,-3.504346 -5.38162,-2.162117 -0.90453,0.566654 -1.90022,0.77386 -2.21265,0.460457 -0.87326,-0.875982 -0.6775,-6.262574 0.48397,-13.317532 0.91311,-5.546354 1.28399,-6.32929 2.80872,-5.929318 1.97763,0.51878 4.44761,-1.193181 5.38365,-3.731465 0.34325,-0.930786 0.70919,4.117068 0.81322,11.217453 0.17812,12.158927 -0.66811,18.169914 -1.89529,13.462522 z"
       id="path3816"
       inkscape:connector-curvature="0" />
    <path
       style="fill:#fe0000"
       d="m 127.42203,217.0505 c -19.01738,-3.46168 -35.686413,-12.42528 -48.738426,-26.20859 -8.030112,-8.48004 -11.540838,-13.58386 -16.191155,-23.53839 -6.164265,-13.19531 -7.656683,-20.31411 -7.656683,-36.52227 0,-16.20816 1.492418,-23.32696 7.656683,-36.522272 4.650317,-9.954523 8.161043,-15.05835 16.191155,-23.538387 6.768968,-7.148232 20.382996,-17.321819 20.380145,-15.229823 -9.16e-4,0.67539 -1.998579,2.487822 -4.439252,4.027627 -6.73231,4.247377 -19.104987,16.602384 -24.089915,24.055513 -5.063218,7.57018 -9.657516,17.942122 -12.190047,27.519842 -2.433241,9.20222 -2.433241,30.17278 0,39.375 6.836312,25.8541 23.56057,46.21078 47.329875,57.60969 13.14997,6.30625 20.51752,7.85762 37.31625,7.85762 17.01031,0 24.27147,-1.56387 37.85046,-8.15201 7.39963,-3.59009 20.09346,-12.07681 20.09346,-13.4339 0,-0.27001 -1.0514,-0.22621 -2.33645,0.0973 -4.1697,1.04981 -2.50833,-1.25828 2.77762,-3.85886 5.49648,-2.70414 7.01738,-2.45107 5.39181,0.89718 -0.56286,1.15938 -1.39586,3.34721 -1.85109,4.86187 -0.93233,3.10208 -2.72992,4.20424 -3.20247,1.96354 -0.24059,-1.14082 -1.59736,-0.51142 -5.9196,2.74611 -18.77563,14.15054 -44.91062,20.26386 -68.37237,15.99319 z m 233.31354,-69.91361 c -0.62322,-2.60595 -0.9085,-4.96341 -0.63398,-5.23879 0.27453,-0.27539 1.89902,0.48423 3.61,1.68805 1.71097,1.20382 3.30895,2.3186 3.55107,2.47728 0.24212,0.15869 -0.13011,0.64211 -0.8272,1.07428 -0.99571,0.61731 -0.85282,1.00834 0.66656,1.82402 3.76756,2.02264 7.16058,0.54624 9.88556,-4.30146 1.37152,-2.43992 4.32084,-21.66745 4.32084,-28.16891 0,-11.66846 -3.10749,-14.97812 -10.84113,-11.54647 -4.93125,2.18814 -5.04672,2.21465 -5.04672,1.15879 0,-1.07896 7.772,-4.86004 9.91545,-4.82387 7.47372,0.12612 9.68619,12.03701 5.98729,32.23267 -2.94546,16.0819 -8.0972,21.69329 -15.46833,16.84845 -2.12053,-1.39376 -2.30357,-1.39376 -2.30357,0 0,3.26177 -1.74167,1.26762 -2.81584,-3.22404 z M 226.16823,136.41856 c -0.77103,-0.19591 -2.96659,-0.61202 -4.87903,-0.92469 -3.44469,-0.56317 -9.13966,-4.47973 -9.13966,-6.28555 0,-0.51562 1.26368,0.12914 2.80817,1.43282 3.23915,2.73408 8.99238,3.94325 17.89789,3.76166 6.51148,-0.13278 11.82036,-2.3111 18.07898,-7.41813 2.65353,-2.16528 2.69108,-2.2881 0.70094,-2.29251 -1.15654,-0.003 -2.10281,-0.39047 -2.10281,-0.86201 0,-0.90063 8.45858,-5.97014 9.02061,-5.40635 0.17883,0.17939 -0.15346,2.7168 -0.73843,5.63868 -1.03486,5.16904 -2.22706,6.79415 -2.83982,3.871 -0.23015,-1.09797 -2.02867,-0.30293 -7.54643,3.3359 -6.58349,4.34165 -7.81956,4.81063 -13.5514,5.1414 -3.46893,0.20018 -6.93798,0.20369 -7.70901,0.008 z m 0.32708,-46.227955 c -7.70587,-3.189518 -9.42933,-7.022455 -5.24961,-11.67498 1.34505,-1.497196 1.33869,-1.640625 -0.0728,-1.640625 -0.8507,0 -1.54672,-0.421875 -1.54672,-0.9375 0,-0.515625 2.10281,-0.9375 4.6729,-0.9375 2.57009,0 4.6729,0.348337 4.6729,0.774081 0,0.425744 -1.07355,1.785782 -2.38568,3.022307 -1.98164,1.867481 -2.52709,2.018683 -3.22075,0.892818 -0.72571,-1.177903 -0.90141,-1.174685 -1.34154,0.02457 -1.74131,4.744655 -1.13177,5.937655 4.14423,8.111113 6.43387,2.650445 10.44392,2.657209 20.93695,0.03532 6.61704,-1.6534 8.70431,-2.597818 10.19698,-4.613782 1.56947,-2.119684 1.67738,-2.775941 0.65884,-4.00703 -1.66439,-2.011739 -0.33748,-3.087592 1.51553,-1.228786 1.93189,1.937924 0.6863,6.018889 -2.58483,8.468774 -5.40287,4.046432 -24.0778,6.326535 -30.39639,3.711228 z"
       id="path3814"
       inkscape:connector-curvature="0" />
    <path
       style="fill:#000000"
       d="m 62.86369,264.61031 20.340325,-0.27195 -0.494551,-2.09105 c -0.272003,-1.15008 -3.19702,-15.38012 -6.500037,-31.62231 -3.303018,-16.24219 -6.713884,-32.69531 -7.579701,-36.5625 -2.80949,-12.54863 -2.808849,-12.1875 -0.02164,-12.1875 2.263871,0 2.447484,0.28699 2.249303,3.51562 -0.25827,4.20756 1.91426,15.9834 3.082393,16.7076 0.454612,0.28184 0.834149,-0.0399 0.843414,-0.71476 0.0093,-0.67497 1.796649,-2.64104 3.971963,-4.36904 l 3.955118,-3.14184 -3.271028,3.23804 c -4.342745,4.29895 -5.822451,6.98304 -5.103081,9.25666 0.53385,1.68727 1.094148,1.39979 5.595958,-2.87114 2.751491,-2.61037 5.249357,-4.74614 5.550815,-4.74614 0.301458,0 -1.974589,2.42578 -5.057881,5.39062 l -5.605987,5.39063 1.212256,5.15625 1.212257,5.15625 31.938949,0.24668 c 21.1073,0.16303 31.93896,-0.0754 31.93896,-0.70312 0,-0.52239 0.63084,-0.94981 1.40187,-0.94981 1.20796,0 1.40187,3.17708 1.40187,22.96875 l 0,22.96875 160.25105,0 c 136.53032,0 160.17715,-0.19315 159.75186,-1.30492 -0.27455,-0.71769 1.2366,-4.768 3.35811,-9.00066 l 3.8573,-7.69576 -5.61365,-5.86429 c -3.08749,-3.22535 -5.88712,-6.95734 -6.22137,-8.29329 -0.93954,-3.75513 1.28902,-9.01042 5.93283,-13.99055 l 4.22888,-4.53514 0.16284,-15.20457 0.16285,-15.20457 -4.84689,-5.625 c -5.68357,-6.59599 -7.34986,-9.4653 -6.61397,-11.38901 0.95475,-2.49581 4.62471,-1.04681 6.28822,2.48276 0.85055,1.80469 2.53444,4.20429 3.74196,5.33246 l 2.1955,2.05122 -0.0328,-4.32781 c -0.0363,-4.78434 -1.79879,-6.40916 -3.14576,-2.90001 -0.74342,1.93677 -0.91619,1.99821 -1.50527,0.53533 -1.16996,-2.90546 3.29974,-5.98588 5.49307,-3.78569 0.3594,0.36053 2.50237,0.54144 4.76217,0.40205 5.56622,-0.34337 7.98,2.03068 7.98,7.8487 0,2.78575 -0.5618,4.7823 -1.65394,5.87785 -1.43014,1.43461 -1.48859,1.97372 -0.43193,3.98438 1.16731,2.22123 1.05219,6.6061 -0.38719,14.74714 -0.46783,2.64605 -0.27912,3.04688 1.43447,3.04688 3.38158,0 5.94846,3.44221 5.48506,7.35552 -0.22311,1.88415 -0.72899,4.16401 -1.12418,5.06635 -0.60915,1.39088 -0.21019,1.64063 2.62077,1.64063 1.83663,0 4.83383,-0.71491 6.66045,-1.58869 3.1227,-1.49376 3.41598,-1.49354 4.90858,0.004 1.49354,1.49821 1.47638,1.70382 -0.2902,3.47592 -1.51413,1.51887 -3.61701,1.99814 -10.86183,2.47551 -10.76405,0.70928 -9.70734,-1.5846 -10.6459,23.10979 l -0.66602,17.52375 2.42293,0 c 1.35353,0 2.99375,0.81749 3.71621,1.85216 1.18986,1.70409 2.59516,1.87463 17.57635,2.13302 8.9557,0.15447 -90.9599,0.27889 -222.03466,0.27648 -131.07477,-0.002 -229.164619,-0.1268 -217.97744,-0.27638 z m 78.25781,-21.32906 0,-21.09375 -31.87702,0 -31.877017,0 0.647262,2.57812 c 0.630174,2.51007 7.966585,38.70941 7.966585,39.30875 0,0.16535 12.406542,0.30063 27.57009,0.30063 l 27.5701,0 0,-21.09375 z m 330.84112,20.20283 c 0,-0.49 -0.70129,-1.2846 -1.55842,-1.76578 -1.42929,-0.80236 -1.39494,-1.1528 0.41441,-4.22901 1.46987,-2.49903 1.82975,-4.23858 1.41162,-6.82329 l -0.56121,-3.46913 -3.65313,7.28312 c -2.00923,4.00571 -3.42833,7.87079 -3.15356,8.58906 0.56143,1.46765 7.10029,1.84987 7.10029,0.41503 z m 12.85126,-0.28096 c -0.21375,-0.64453 -1.61562,-1.38774 -3.11527,-1.65158 l -2.72664,-0.47971 0,-10.77029 c 0,-5.92366 0.35794,-17.37715 0.79542,-25.45221 0.78223,-14.4383 0.76225,-14.69971 -1.20352,-15.75506 -3.17111,-1.70242 -5.51017,-0.34638 -6.63582,3.84705 -0.72637,2.70595 -0.72202,7.24127 0.0154,16.11534 0.56446,6.79228 1.11511,17.5168 1.22365,23.83228 l 0.19735,11.48269 5.919,0.002 c 4.31998,9.4e-4 5.81401,-0.3149 5.53038,-1.17019 z m -11.9498,-5.21158 -0.0331,-2.52279 -1.28676,2.33198 c -1.32473,2.40081 -1.05648,4.20741 0.48299,3.25298 0.4785,-0.29665 0.8551,-1.67463 0.83688,-3.06217 z m -1.0686,-18.43 c -0.30226,-4.76174 -0.8622,-6.57313 -2.60823,-8.4375 -2.80616,-2.99636 -6.33128,-3.12115 -7.47588,-0.26466 -0.51847,1.29393 -0.86812,1.54762 -0.90446,0.65625 -0.12679,-3.11025 5.43511,-5.22462 7.01177,-2.66554 0.44695,0.72544 0.9118,0.65494 1.54519,-0.23438 0.6949,-0.97569 0.78604,-0.89681 0.39129,0.33864 -0.28306,0.88583 -0.11225,1.86007 0.37957,2.16498 0.55684,0.34522 0.69707,-2.26989 0.3717,-6.93135 -0.8672,-12.42377 2.10616,-18.71299 7.64918,-16.17953 2.15318,0.98412 2.21823,0.89185 2.21823,-3.1465 0,-2.2882 0.45325,-7.23619 1.00723,-10.99553 0.7697,-5.2233 0.73502,-7.49841 -0.14709,-9.64767 -0.99728,-2.42986 -1.21102,-2.55741 -1.57101,-0.9375 -0.53063,2.38778 -2.95812,5.15625 -4.52117,5.15625 -0.66221,0 -1.85872,-0.93762 -2.65889,-2.0836 -1.77966,-2.54877 -1.68679,-3.22224 -1.86158,13.49921 l -0.14384,13.75935 -4.26521,4.57411 c -4.67075,5.00901 -6.91098,10.26527 -5.97296,14.01433 0.51643,2.06406 10.25428,13.4241 11.50716,13.4241 0.23864,0 0.2607,-2.72856 0.049,-6.06346 z m 29.05296,-22.51084 c 1.0777,-1.08107 1.15058,-1.67044 0.31074,-2.51291 -0.83984,-0.84246 -1.96047,-0.71009 -4.77799,0.56441 -2.90614,1.31457 -4.87965,1.52544 -9.3768,1.00185 -5.4791,-0.6379 -5.69597,-0.58287 -5.69597,1.4453 0,2.08241 0.11192,2.10107 9.06606,1.51105 6.17815,-0.40709 9.51452,-1.04726 10.47396,-2.0097 z m -13.96542,-4.17657 c 1.43332,-2.68657 1.17515,-4.74913 -0.59447,-4.74913 -2.15457,0 -4.98013,2.74197 -4.98013,4.8328 0,2.38952 4.28946,2.32514 5.5746,-0.0836 z M 477.38319,186.375 c 1.95096,-1.95706 1.22316,-4.25462 -1.94095,-6.12733 -5.08294,-3.00838 -10.22394,-8.0043 -11.5753,-11.24865 -0.83319,-2.00035 -1.91873,-3.06152 -3.13181,-3.06152 -2.10108,0 -2.31757,1.42673 -0.65527,4.3182 1.9028,3.30982 14.15366,17.18456 15.20052,17.2154 0.53972,0.0159 1.48598,-0.47735 2.10281,-1.0961 z m 4.32576,-6.91072 c 0.80775,-0.81026 1.46863,-2.7087 1.46863,-4.21875 0,-2.35051 -0.3592,-2.74553 -2.49651,-2.74553 -4.80655,0 -7.87495,5.32402 -4.27919,7.42491 2.30712,1.34797 3.61748,1.23424 5.30707,-0.46063 z m -340.94029,-7.19866 c -0.41259,-46.99358 -0.46234,-49.45312 -1.00028,-49.45312 -0.18882,0 -3.76382,5.86901 -7.94444,13.04225 -4.18064,7.17323 -8.6354,13.72202 -9.89946,14.55286 -1.26407,0.83084 -2.29831,2.11886 -2.29831,2.86227 0,1.65281 3.14399,3.46842 4.83884,2.79435 1.20329,-0.47857 6.48832,-10.84111 11.59176,-22.72837 1.3891,-3.23558 2.69103,-5.71698 2.89316,-5.51421 0.20213,0.20276 -1.1654,3.69381 -3.03897,7.75788 -2.24404,4.86765 -3.37154,8.64388 -3.30402,11.06589 0.10504,3.76887 -1.88068,7.10458 -4.22931,7.10458 -0.68156,0 -1.48108,1.16016 -1.77668,2.57812 -1.0935,5.24524 -4.20043,10.26514 -10.77085,17.40258 -5.48033,5.95329 -20.490874,18.98843 -27.045052,23.4859 -3.425472,2.35055 1.873859,-2.30796 10.747664,-9.44802 10.350678,-8.32836 12.105988,-10.09496 13.018488,-13.10211 0.85266,-2.80999 -2.28764,-4.58823 -5.30821,-3.00584 -1.15654,0.60587 -6.93925,5.78869 -12.850465,11.51735 l -10.747664,10.41577 9.813084,-10.41543 c 11.675105,-12.39173 15.206765,-16.88554 18.694305,-23.78724 1.43752,-2.84478 3.67981,-6.16925 4.98286,-7.38771 2.04628,-1.91341 2.32472,-2.86057 2.0429,-6.94903 -0.21259,-3.08412 -0.84271,-5.02357 -1.80825,-5.5656 -1.8696,-1.04955 -4.64549,-6.33206 -3.75932,-7.15399 0.36528,-0.3388 0.88626,0.0168 1.15773,0.79025 0.27146,0.77344 1.61845,2.46157 2.9933,3.75142 2.10116,1.97122 3.23447,2.29545 7.10772,2.03341 4.20716,-0.28463 4.7742,-0.61094 6.51886,-3.75141 1.05098,-1.89182 3.23498,-5.7667 4.85333,-8.61084 l 2.94244,-5.17115 -13.48547,-11.98318 C 118.28133,102.8025 111.04208,95.668387 109.6111,93.539671 107.31364,90.121943 97.420974,80.688846 86.409594,71.416004 l -3.699312,-3.115245 4.205607,3.0787 c 2.313084,1.693286 6.248756,4.888115 8.745935,7.099621 5.034986,4.458989 6.611586,4.891682 8.043616,2.207552 2.37366,-4.449087 1.35725,-5.996729 -7.419018,-11.296694 -4.612564,-2.785511 -8.242507,-5.208988 -8.066541,-5.385504 0.175966,-0.176517 3.770472,1.8034 7.987794,4.399814 4.217315,2.596414 7.916645,4.720752 8.220725,4.720752 0.30409,0 4.18117,3.871808 8.61575,8.60402 l 8.06287,8.604019 4.86705,0.07077 c 2.67688,0.03893 4.86705,-0.01615 4.86705,-0.122403 0,-0.842634 -2.50191,-5.763443 -3.60177,-7.084031 -1.91309,-2.29702 -0.67867,-3.116201 1.46118,-0.969665 2.44611,2.453756 3.77923,6.51839 3.88614,11.848707 0.1079,5.380022 -1.01036,7.869321 -3.71962,8.279981 -1.72856,0.26201 -1.25505,1.06879 3.7525,6.3936 l 5.73069,6.09375 -0.36109,-10.3125 c -0.1986,-5.671875 -0.89267,-13.40573 -1.5424,-17.186345 -0.87918,-5.115785 -0.9315,-8.472644 -0.20456,-13.125 0.65021,-4.161334 0.72458,-16.437146 0.22245,-36.719905 -0.41487,-16.757813 -0.56338,-30.7851563 -0.33002,-31.171875 1.82563,-3.0253708 6.85604,7.275759 6.85604,14.039588 0,5.998376 1.69933,24.254091 3.2092,34.476037 0.68546,4.640625 1.19007,13.997351 1.12135,20.792725 l -0.12495,12.355226 2.33645,0.463281 c 1.28505,0.254804 2.73598,0.07386 3.2243,-0.4021 2.24809,-2.191195 7.05608,0.874729 7.05608,4.499467 0,1.90941 -1.3426,1.388188 -2.34848,-0.911724 -0.5074,-1.160156 -1.55339,-2.109375 -2.32442,-2.109375 -1.05984,0 -1.33251,0.914918 -1.11757,3.75 0.38267,5.047725 -1.38687,7.20893 -6.45838,7.88782 l -4.10629,0.54968 -0.26951,8.16715 c -0.24387,7.39021 -0.0716,8.36566 1.81075,10.25391 1.3334,1.33757 1.68181,2.21998 0.97044,2.45784 -0.6104,0.20411 -1.10981,0.80295 -1.10981,1.33078 0,0.52782 0.60367,0.7273 1.34148,0.44329 0.73782,-0.28401 1.47381,-0.20836 1.63552,0.16812 0.59554,1.38646 21.28937,11.3034 24.75204,11.86173 1.96866,0.31743 7.15413,1.37955 11.52329,2.36028 4.36916,0.98073 9.20561,1.9985 10.74767,2.26171 6.60895,1.12808 40.21917,3.42191 46.36358,3.16422 8.29724,-0.34799 9.28955,1.05918 2.99762,4.25087 -4.16316,2.11183 -5.94812,2.33495 -23.75533,2.96933 -18.42971,0.65657 -19.80999,0.58004 -32.243,-1.78768 -7.14397,-1.36048 -14.17211,-2.85969 -15.61807,-3.33158 -2.09839,-0.68481 -2.98961,-0.49628 -4.41549,0.93406 -0.98254,0.98561 -2.82641,2.05385 -4.09747,2.37387 -1.27107,0.32002 -2.9737,1.59637 -3.78364,2.83635 -1.6678,2.55334 -3.96569,2.87423 -6.62325,0.9249 -2.3698,-1.73826 -1.17771,-2.91488 1.34931,-1.33181 1.64184,1.02855 2.18173,0.98109 3.46324,-0.30443 1.40121,-1.40558 1.3502,-1.75087 -0.66192,-4.48091 -2.10207,-2.85208 -2.12851,-3.10196 -0.73865,-6.9791 l 1.44149,-4.0211 -6.36879,-3.9588 c -3.50283,-2.17734 -6.79076,-3.69718 -7.30649,-3.37744 -0.60546,0.37536 -0.93772,16.00836 -0.93772,44.11977 0,37.82362 -0.18165,43.53842 -1.38384,43.53842 -1.19704,0 -1.43632,-5.97912 -1.77274,-44.29688 z m -17.38723,-9.33765 c 1.99527,-3.74693 2.45888,-6.85224 0.87653,-5.87124 -1.36907,0.84878 -5.56637,-2.10096 -5.56637,-3.91189 0,-2.59601 -2.67712,0.40702 -5.67677,6.36786 -1.49628,2.97338 -3.98532,6.85118 -5.53121,8.61736 -3.42268,3.9104 -3.58996,4.92534 -0.47426,2.87748 2.16935,-1.42586 2.50878,-1.42241 4.74618,0.0482 1.59962,1.05139 2.22279,2.11196 1.85364,3.1547 -0.88609,2.50294 7.72639,-7.44049 9.77226,-11.28244 z m 7.27278,-11.24047 c 0.61682,-0.61875 1.11992,-2.20078 1.118,-3.51563 -0.004,-2.33665 -0.0456,-2.32131 -1.86916,0.67891 -1.02611,1.68824 -1.86566,3.27028 -1.86566,3.51563 0,0.83614 1.4925,0.44892 2.61682,-0.67891 z m 112.95232,-3.83391 c 2.23136,-1.08747 4.05703,-2.35784 4.05703,-2.82305 0,-0.48168 -2.71596,-0.57367 -6.30842,-0.21367 -3.68358,0.36914 -14.1434,-0.0163 -25.13874,-0.92628 -14.16966,-1.17272 -19.31645,-1.29748 -20.7944,-0.50403 -2.46531,1.32351 -2.45623,1.98292 0.0717,5.20665 l 2.0357,2.59606 21.01007,-0.67923 c 18.63017,-0.60229 21.46964,-0.9032 25.0671,-2.65645 z m -49.78293,-0.22136 c -1.44826,-2.21724 -1.44043,-2.48544 0.12331,-4.21875 1.61859,-1.79411 1.60084,-1.85148 -0.57776,-1.86705 -1.23621,-0.009 -5.40186,-0.84535 -9.257,-1.85893 -9.10103,-2.3928 -9.50678,-2.3761 -8.82146,0.36299 0.41718,1.66736 0.0112,2.62353 -1.592,3.75 -1.18358,0.83161 -1.95325,1.55074 -1.71038,1.59807 0.24288,0.0473 5.27805,1.04582 11.18926,2.21887 5.91122,1.17305 11.07278,2.18901 11.47014,2.2577 0.39737,0.0687 0.0266,-0.94063 -0.82411,-2.2429 z m -20.5232,-4.50054 c 2.58301,-1.89464 1.10766,-4.98732 -3.01795,-6.32632 -1.90301,-0.61763 -7.92937,-3.38588 -13.39191,-6.15167 -5.46256,-2.76578 -10.40415,-5.0287 -10.98131,-5.0287 -1.92509,0 -1.08062,1.45 1.52068,2.6111 3.25463,1.45271 13.53336,8.55867 16.86137,11.65669 2.42178,2.25443 5.68335,4.3932 6.79178,4.4537 0.28727,0.0157 1.28507,-0.53098 2.21734,-1.2148 z m -9.749,-2.45353 c 0,-0.48639 -0.94407,-1.54766 -2.09794,-2.35839 -2.35083,-1.65173 -3.46226,-0.36562 -1.6143,1.868 1.27,1.53504 3.71224,1.85766 3.71224,0.49039 z M 144.85982,121.0378 c 0,-0.46046 -0.63085,-1.08003 -1.40187,-1.37683 -1.90309,-0.73256 -1.89399,-13.28761 0.0163,-22.565051 1.59377,-7.740009 0.83362,-11.783419 -2.21523,-11.783419 -3.32469,0 -4.29447,2.388555 -3.0918,7.615097 0.59679,2.5935 1.08507,9.925763 1.08507,16.293933 0,10.2388 0.18923,11.6281 1.63551,12.00722 2.80042,0.73412 3.97197,0.6778 3.97197,-0.19095 z m -13.50898,-12.56142 c -3.90606,-4.28128 -7.82663,-9.240683 -8.71237,-11.020893 -2.07959,-4.179678 -5.34226,-4.836778 -6.90732,-1.391118 -0.89591,1.972453 -0.8527,2.68784 0.2246,3.71805 0.73368,0.701611 5.96014,5.386341 11.61435,10.410501 7.40616,6.5809 10.36457,8.70606 10.58153,7.60123 0.17275,-0.87966 -2.72722,-4.8529 -6.80079,-9.31777 z m -3.31345,-9.525158 c 0,-2.002013 -1.54378,-3.326222 -3.87774,-3.326222 -0.52319,0 -0.64263,0.911259 -0.27647,2.109375 1.43664,4.700855 4.15421,5.496885 4.15421,1.216847 z m 20.56074,0.377222 c 0,-0.541228 -0.70747,-2.334197 -1.57216,-3.984375 l -1.57216,-3.000319 -0.67113,2.34375 c -1.28935,4.502737 -0.99427,5.625 1.479,5.625 1.28505,0 2.33645,-0.442828 2.33645,-0.984056 z M 118.9746,92.644379 c 0.92668,-0.165346 1.7678,-0.554131 1.86916,-0.863966 0.10135,-0.309835 -3.28535,-4.240212 -7.526,-8.734171 -6.5563,-6.94792 -7.71028,-7.829648 -7.71028,-5.891218 0,1.253789 -0.82162,3.3274 -1.82582,4.608025 l -1.82583,2.32841 3.3296,3.188645 c 1.83127,1.753755 4.37756,4.829704 5.65841,6.835446 l 2.32882,3.646791 2.00853,-2.408663 c 1.10469,-1.324772 2.76673,-2.543952 3.69341,-2.709299 z m 27.41103,-21.854952 c -0.24898,-8.4871 -0.70449,-15.839787 -1.01224,-16.339306 -0.68791,-1.116544 -3.31073,-27.969104 -3.31455,-33.934478 -0.003,-4.148205 -3.27288,-13.953143 -4.65379,-13.953143 -0.82126,0 -0.0687,50.786504 0.81964,55.3125 0.52418,2.670648 1.06589,3.28125 2.91104,3.28125 1.47988,0 2.67743,-0.813774 3.44907,-2.34375 0.73803,-1.463383 1.18721,-1.782071 1.19582,-0.848426 0.0201,2.184106 -3.37767,4.908102 -5.44553,4.365655 -1.55728,-0.408512 -1.91534,0.339635 -2.83447,5.922562 -1.16147,7.054958 -1.35723,12.44155 -0.48397,13.317532 0.31243,0.313403 1.30812,0.106197 2.21265,-0.460457 2.15142,-1.347785 4.74093,-0.29554 5.38881,2.189749 0.45071,1.728856 0.62248,1.785278 1.36781,0.449277 0.47059,-0.843521 0.64962,-8.439643 0.39971,-16.958965 z M 368.1904,187.92776 c -1.00076,-1.20961 -0.751,-2.07818 1.52107,-5.28985 3.78423,-5.34915 41.01177,-27.00355 46.43336,-27.00923 4.01871,-0.004 16.56546,-5.89349 16.56546,-7.77562 0,-2.4659 -3.12643,-5.48948 -8.47862,-8.19969 -5.8039,-2.93895 -6.39391,-3.71295 -4.21386,-5.52789 3.2938,-2.74215 20.12729,9.88487 20.19753,15.15045 0.0275,2.06232 0.0612,2.07047 1.05633,0.25532 0.56536,-1.03125 1.91397,-2.58508 2.99693,-3.45296 l 1.969,-1.57796 -2.25021,-2.40271 c -1.23761,-1.3215 -1.97075,-2.68305 -1.6292,-3.02567 0.81954,-0.8221 4.17347,2.26502 4.8772,4.48919 0.30477,0.96325 1.17575,1.75136 1.9355,1.75136 2.0615,0 5.9693,4.31544 5.9693,6.592 0,2.54652 -4.59753,7.1805 -7.96523,8.02839 -1.50577,0.3791 -3.32348,0.19895 -4.32535,-0.42868 -2.29391,-1.43705 -2.26429,-0.80054 0.59207,12.72741 1.53074,7.24969 2.00545,11.30424 1.3952,11.9164 -1.61759,1.62264 -3.30746,-1.39343 -6.4357,-11.48641 l -3.0009,-9.68214 -3.91509,0.6165 c -2.15329,0.33908 -9.1721,3.08262 -15.59733,6.09676 -12.50926,5.86823 -44.65926,19.68227 -45.80735,19.68227 -0.38102,0 -1.23157,-0.65125 -1.89011,-1.44724 z m 22.53403,-8.00165 c 10.93975,-4.68127 23.17881,-10.16991 27.19789,-12.19698 4.01907,-2.02706 9.51624,-4.1545 12.21591,-4.72762 8.54559,-1.81416 9.83168,-2.87108 9.69468,-7.96714 l -0.11867,-4.41456 -4.24159,0.0466 c -2.82024,0.031 -6.17702,1.02669 -10.01737,2.97134 -3.63854,1.8425 -7.17934,2.92476 -9.56875,2.92476 l -3.79294,0 2.02301,2.74482 c 1.14769,1.55719 1.7731,3.39815 1.44541,4.25474 -0.38598,1.00901 0.11482,1.80391 1.50963,2.39616 1.66558,0.7072 1.42156,0.78152 -1.20791,0.36785 -2.82779,-0.44486 -5.99233,0.82633 -22.31133,8.96235 -10.45889,5.2144 -19.1668,9.32962 -19.35092,9.14493 -0.18411,-0.18467 8.90973,-4.90668 20.20853,-10.49333 11.2988,-5.58665 20.54327,-10.54415 20.54327,-11.01667 0,-2.01543 -2.07297,-4.48585 -3.76414,-4.48585 -1.00608,0 -10.08513,4.74609 -20.17568,10.54687 -14.32055,8.23249 -18.85332,11.30647 -20.6563,14.00839 -2.12067,3.17802 -2.24789,5.44474 -0.30558,5.44474 0.4303,0 9.73309,-3.83013 20.67285,-8.51139 z m 54.13539,3.41331 c 0,-0.22581 -0.59733,-3.07347 -1.32739,-6.32812 -0.73007,-3.25466 -1.807,-8.32262 -2.39319,-11.26214 -1.00726,-5.05114 -1.17983,-5.29247 -3.14287,-4.39526 l -2.07709,0.94934 2.97718,8.91657 c 1.63744,4.9041 3.18913,9.72962 3.44819,10.72337 0.39412,1.51185 2.51517,2.68931 2.51517,1.39624 z m 3.79976,-24.9349 c 0.99424,-0.53377 1.80772,-1.44977 1.80772,-2.03556 0,-4.11141 -8.63219,-6.35126 -9.83435,-2.55178 -1.25124,3.95465 3.81347,6.8492 8.02663,4.58734 z m -9.65662,-9.98001 c 1.02018,-3.12022 -15.64401,-15.62804 -18.47935,-13.87023 -1.72517,1.06954 -0.86166,2.01703 3.86021,4.23554 5.53428,2.60022 9.61103,6.95391 8.93606,9.5431 -0.3907,1.49869 -0.0127,1.73002 2.42926,1.48661 1.59058,-0.15856 3.0548,-0.78631 3.25382,-1.39502 z m -44.55471,-1.63842 c -0.86375,-1.044 -0.78604,-1.96295 0.35285,-4.17219 2.01896,-3.91644 1.91264,-5.11005 -0.34713,-3.89688 -2.87818,1.54517 -3.73051,1.17975 -5.38984,-2.31077 -1.3223,-2.78156 -2.0672,-3.3041 -4.89142,-3.43129 l -3.33158,-0.15003 3.03738,-0.37812 c 1.67056,-0.20795 3.03738,-0.48716 3.03738,-0.62045 0,-0.1333 -0.66074,-2.18761 -1.46833,-4.56515 -1.14084,-3.35865 -1.231,-4.76766 -0.40424,-6.31732 1.81999,-3.41132 3.9131,-1.7943 6.36271,4.91548 2.80547,7.68453 5.23698,8.6376 6.27733,2.46052 0.58728,-3.48692 0.3959,-4.07197 -1.94434,-5.94384 -1.80517,-1.44389 -2.40471,-2.57559 -1.96855,-3.71579 0.56153,-1.46788 0.0443,-1.60629 -4.93975,-1.32179 -3.06183,0.17478 -5.27093,0.0551 -4.90912,-0.26598 0.36182,-0.32107 4.2939,-0.82477 8.73797,-1.11934 8.61321,-0.57092 10.06022,9.4e-4 11.42414,4.5156 0.83315,2.75774 9.58738,2.55406 13.21386,-0.30744 2.79503,-2.20544 4.68887,-2.57707 5.59963,-1.09881 0.31769,0.51562 -0.0213,0.9375 -0.75338,0.9375 -0.73205,0 -2.39921,0.84289 -3.7048,1.87308 -2.01894,1.59305 -2.30099,2.4177 -1.8867,5.51615 0.72369,5.4123 -1.99086,7.82844 -8.41124,7.48661 -4.65459,-0.24782 -4.82996,-0.16592 -5.37939,2.51211 -0.65578,3.19641 -2.38285,6.74393 -4.4285,9.09642 -1.73059,1.9902 -2.44227,2.04548 -3.88494,0.30172 z m 5.26844,-3.90291 c 2.89975,-5.22268 4.72465,-19.75026 2.94804,-23.46862 -0.97733,-2.0455 -1.93677,-2.69581 -3.97733,-2.69581 -1.55262,0 -3.12736,0.698 -3.72572,1.65142 -0.85227,1.35797 -0.56659,2.02749 1.60776,3.76789 l 2.64419,2.11648 -1.07792,7.89736 c -0.59286,4.34355 -1.6948,9.09398 -2.44875,10.55652 -1.42303,2.76043 -0.98364,4.83711 0.89402,4.22533 0.59542,-0.19401 2.00648,-2.01676 3.13571,-4.05057 z m -4.59753,-5.59259 c 2.66531,-1.87269 2.72764,-4.21712 0.10423,-3.92016 -1.66435,0.1884 -2.34842,-0.83964 -4.37416,-6.57355 -2.35816,-6.67483 -4.21415,-8.46506 -5.28083,-5.09373 -0.51028,1.61279 1.58119,8.83181 4.19182,14.46873 1.3669,2.9514 2.43362,3.17409 5.35894,1.11871 z m 15.16122,-5.7324 c 0,-2.67062 -2.33726,-5.93319 -4.25047,-5.93319 -1.3502,0 -2.29159,2.0855 -2.29159,5.07667 0,2.76036 0.69574,3.36083 3.89409,3.36083 2.24672,0 2.64797,-0.37948 2.64797,-2.50431 z m -92.28972,1.12608 c -4.8845,-3.57857 -0.57268,-9.87177 6.76367,-9.87177 2.16783,0 12.30972,-1.1039 22.53753,-2.45309 18.60399,-2.45415 36.19612,-3.55334 32.01029,-2.00005 -1.16905,0.43381 -4.45524,0.55287 -7.30263,0.26459 -3.42097,-0.34636 -4.54305,-0.23941 -3.30793,0.3153 1.02804,0.46169 2.63867,1.69789 3.57916,2.74711 1.37389,1.53269 1.5052,2.29155 0.66806,3.86065 -0.57307,1.07415 -1.45741,1.95299 -1.9652,1.95299 -0.50777,0 -0.24968,1.03119 0.57356,2.29155 1.02757,1.57315 2.5725,2.40546 4.92809,2.6549 1.88721,0.19984 -6.28214,0.43427 -18.15411,0.52096 -11.87197,0.0867 -25.32991,0.40506 -29.90655,0.70752 -6.84839,0.4526 -8.6933,0.27726 -10.42394,-0.99066 z m 53.30337,-0.81585 c 0.40331,-0.0942 0.19303,-0.87409 -0.46729,-1.73304 -1.08984,-1.4177 -3.0107,-1.4848 -20.82673,-0.72764 -10.7944,0.45874 -21.93926,1.01718 -24.76636,1.24095 -3.5138,0.27812 -4.40093,0.16035 -2.80374,-0.37221 1.28505,-0.42848 12.21963,-1.18276 24.29907,-1.67617 12.07944,-0.49342 22.66608,-1.1864 23.52587,-1.53995 2.16176,-0.88895 2.90097,-3.27441 1.52866,-4.9331 -2.51857,-3.04417 -5.3466,-3.12956 -24.36736,-0.73575 -10.30703,1.29717 -20.47242,2.35849 -22.58977,2.35849 -2.11736,0 -4.78443,0.65674 -5.92683,1.45941 -2.44109,1.71514 -2.74825,5.57067 -0.54245,6.80895 1.22253,0.68629 49.94815,0.54829 52.93693,-0.14994 z M 225.21399,119.98028 c -2.56468,-2.57269 -2.54886,-9.36728 0.0272,-11.7059 1.74939,-1.58813 1.77235,-1.81941 0.33828,-3.40899 -1.86197,-2.06388 -2.1977,-10.699449 -0.52325,-13.45914 0.99794,-1.644729 1.05,-1.529594 0.42389,0.9375 -1.79695,7.080525 0.41459,14.61914 3.89559,13.27918 1.22501,-0.47155 1.40743,-1.75885 1.04768,-7.393818 l -0.43554,-6.822862 0.90358,6.454791 c 0.64539,4.610449 0.60371,6.817239 -0.1459,7.723279 -1.17392,1.41891 -0.2264,2.02475 3.83393,2.45142 1.98612,0.20869 2.72209,-0.52764 4.90833,-4.91074 1.41453,-2.83594 3.01928,-6.9918 3.5661,-9.235256 0.54682,-2.243456 1.16137,-3.911338 1.36566,-3.706406 1.20348,1.207241 -3.81295,14.412782 -6.75625,17.785542 -1.08834,1.24716 -1.1418,1.97849 -0.26476,3.62236 0.60439,1.13285 0.93264,3.48826 0.72945,5.23424 -0.20321,1.74599 -0.0572,3.17452 0.32446,3.17452 1.13588,0 3.60365,-4.03271 3.60365,-5.88892 0,-0.94695 0.42056,-1.46101 0.93458,-1.14233 1.49031,0.92394 1.08724,3.77121 -0.891,6.29398 -1.61541,2.06008 -2.58598,2.34219 -8.43088,2.45046 -5.43908,0.10075 -6.93185,-0.20521 -8.45479,-1.73291 z m 4.71617,-6.57605 c 2.36059,-3.3255 1.87051,-5.59173 -1.20924,-5.59173 -3.0136,0 -4.42185,1.70185 -4.42185,5.34375 0,4.08004 2.82269,4.20433 5.63109,0.24798 z m 113.67264,-1.68117 c -0.8507,-0.94295 -1.54672,-2.04238 -1.54672,-2.4432 0,-0.40082 -1.0514,-1.55837 -2.33645,-2.57235 -1.28504,-1.01399 -2.33645,-2.80907 -2.33645,-3.98909 0,-1.93263 -0.53834,-2.19448 -5.42596,-2.63905 -3.42547,-0.311586 -7.55047,-1.569345 -11.1883,-3.411458 -3.16929,-1.60485 -6.88123,-2.917912 -8.24877,-2.917912 -1.36754,0 -3.79776,-0.784097 -5.40049,-1.742437 -1.60272,-0.958342 -10.69442,-4.980592 -20.20377,-8.938335 -21.85828,-9.097309 -24.68091,-10.662421 -25.05643,-13.893426 -0.21181,-1.822529 0.34261,-2.911744 2.05502,-4.037267 2.02685,-1.332192 3.08086,-1.392121 7.76671,-0.441598 2.98189,0.604873 6.26274,1.629544 7.29078,2.277045 1.02803,0.647501 10.28037,4.049396 20.56075,7.559766 10.28037,3.51037 20.8284,7.582587 23.44005,9.049371 5.38158,3.022458 6.79285,3.349538 4.97572,1.153179 -1.07364,-1.297706 -0.94184,-1.76592 0.92368,-3.28125 2.95582,-2.400952 5.0238,-2.223401 8.52508,0.731938 2.36284,1.99441 2.85979,3.008176 2.45931,5.016857 -0.87034,4.365319 0.22424,6.546157 3.28559,6.546157 3.17978,0 6.95253,3.340556 7.85745,6.95734 0.77133,3.08284 -1.58314,6.86341 -4.77486,7.66699 -1.87415,0.47185 -2.13233,0.85436 -1.2756,1.88987 0.59077,0.71407 2.09886,1.2983 3.3513,1.2983 1.28013,0 2.02427,0.41048 1.69957,0.9375 -0.94211,1.52911 -4.73201,1.06883 -6.39721,-0.77694 z m 4.49163,-11.73666 c 1.65999,-1.217616 1.64948,-1.337044 -0.28867,-3.28125 -2.12833,-2.134987 -6.15327,-2.700459 -7.19431,-1.010747 -0.69459,1.127391 3.05158,5.555597 4.69994,5.555597 0.58319,0 1.83555,-0.56862 2.78304,-1.2636 z m -9.30609,-2.828606 c 1.6897,-2.586872 0.89139,-5.536645 -2.95088,-10.903636 l -2.35204,-3.285408 2.37134,2.578125 c 2.80923,3.05419 3.39558,3.187357 3.39558,0.771169 0,-2.058287 -4.14323,-5.693044 -6.48947,-5.693044 -0.86047,0 -2.2955,0.536195 -3.18895,1.191544 -1.50576,1.104475 -1.36877,1.62367 1.87463,7.105239 2.9934,5.059048 3.82038,5.852079 5.7223,5.487373 1.43568,-0.275306 1.90222,-0.104325 1.31704,0.482682 -1.63716,1.642275 -4.34488,0.299878 -6.13411,-3.041055 -2.25904,-4.218191 -16.46592,-12.410722 -16.46592,-9.495224 0,1.968551 -2.09698,3.967498 -5.84113,5.568066 -4.46248,1.907646 -2.82968,4.888875 2.6776,4.888875 1.2601,0 4.48505,1.117472 7.16655,2.483278 6.26772,3.192403 8.65599,3.899859 13.4988,3.998644 3.17291,0.06469 4.23546,-0.35581 5.39866,-2.136628 z m -32.06718,-8.587482 c 0.0214,-0.502734 -7.38002,-4.243793 -16.44763,-8.313464 -9.06761,-4.069671 -16.33725,-7.54917 -16.15478,-7.732218 0.18248,-0.18305 7.8678,3.05817 17.07848,7.20271 12.36058,5.561901 17.35727,7.383148 19.07792,6.953724 3.10143,-0.774022 4.67813,-2.179537 4.67813,-4.170205 0,-1.278802 -3.71219,-2.920883 -17.05608,-7.544739 -9.38084,-3.250601 -17.8972,-6.432572 -18.92523,-7.071048 -3.25431,-2.021131 -12.27908,-3.454863 -14.44105,-2.294196 -3.39742,1.823928 -2.45408,5.333107 2.05787,7.655205 6.21494,3.198549 38.46217,16.683271 39.32243,16.443339 0.42407,-0.118274 0.78854,-0.626373 0.80994,-1.129107 z m -74.52341,-1.101881 c 2.39307,-4.961571 1.45669,-5.398491 -3.38772,-1.580753 l -3.10909,2.450178 3.05213,-2.918928 C 230.43173,83.813517 232.42139,82.5 233.17451,82.5 c 0.75313,0 1.5561,-0.949219 1.78439,-2.109375 1.93083,-9.812482 5.46614,-30.247673 6.69028,-38.671875 0.8242,-5.671875 2.00295,-11.367188 2.61946,-12.65625 1.45228,-3.036575 4.42121,-3.425658 6.7175,-0.880343 2.25671,2.501424 2.25031,6.07497 -0.0436,24.317843 -0.94011,7.476562 -1.74706,17.409069 -1.79322,22.072237 -0.0636,6.432284 -0.48384,9.090803 -1.74098,11.015625 -2.34367,3.588394 -2.90168,3.163313 -0.66915,-0.509737 2.19569,-3.612442 2.42014,-7.786486 0.45929,-8.541285 -0.76979,-0.29632 -2.87961,0.337177 -4.68848,1.407771 -2.41794,1.431082 -3.6099,1.679252 -4.50126,0.937177 -0.94237,-0.784546 -1.57636,0.0059 -2.84646,3.548967 -0.89872,2.507078 -2.25901,5.34125 -3.02286,6.298159 -1.15969,1.452811 -1.15007,1.244866 0.0583,-1.260483 z m 9.79563,-10.092157 c 2.50242,-1.298097 2.70565,-1.878761 3.69138,-10.546875 1.18845,-10.450782 2.91337,-27.05391 2.91337,-28.042449 0,-0.364072 0.20537,-0.455942 0.45638,-0.204153 0.4309,0.432251 -1.6631,23.957132 -2.87706,32.321985 -0.30917,2.130442 -0.17777,4.111826 0.292,4.403075 0.47114,0.292089 1.37289,-3.967191 2.01097,-9.498531 0.63624,-5.515442 1.79068,-15.18852 2.56541,-21.49573 1.56516,-12.742314 0.89013,-16.377781 -3.14834,-16.955736 -2.73643,-0.391618 -3.38737,1.408298 -5.3632,14.82964 -0.87294,5.929687 -2.60287,16.007173 -3.8443,22.394411 -1.70182,8.755909 -1.99712,11.927464 -1.20026,12.890625 1.30603,1.578591 1.27359,1.579284 4.50365,-0.09626 z M 76.168226,63.634559 c -2.570094,-2.072291 -7.467758,-5.605251 -10.883697,-7.851021 -6.902016,-4.537651 -8.024222,-5.785283 -6.541504,-7.272634 1.762723,-1.768231 8.352731,0.983054 18.769412,7.836106 5.405171,3.55602 9.491997,6.46549 9.081835,6.46549 -0.410162,0 -4.81634,-2.676547 -9.791505,-5.947883 C 68.330096,51.293556 63.107378,48.75 60.140914,48.75 c -2.629184,0 -1.076379,2.017495 4.111424,5.341806 7.608893,4.875729 18.816309,13.775992 16.82243,13.359375 -0.128505,-0.02685 -2.336449,-1.744332 -4.906542,-3.816622 z M 277.55135,48.258594 c -1.55257,-1.876586 -0.44211,-2.934354 1.43765,-1.369421 1.15497,0.961542 1.70232,0.976421 2.59267,0.07048 0.88334,-0.898816 0.77319,-1.411794 -0.5069,-2.360494 -2.00596,-1.486659 -2.09557,-2.41166 -0.23364,-2.41166 0.77102,0 1.40187,-0.474609 1.40187,-1.054688 0,-0.681029 -1.0337,-0.847303 -2.91771,-0.469324 -2.55942,0.513484 -2.77007,0.406936 -1.7155,-0.867711 0.66882,-0.808406 2.27426,-1.328062 3.61863,-1.1713 2.17051,0.253096 2.43262,0.710548 2.57541,4.494737 0.0874,2.317129 -0.2795,4.742911 -0.81538,5.390625 -1.32821,1.6054 -4.00329,1.481787 -5.4371,-0.251245 z m 8.4932,-0.32757 c -2.37477,-4.45116 -0.23795,-9.917534 3.65424,-9.348183 3.18819,0.46637 3.56476,2.613415 0.41801,2.383347 -1.39122,-0.101716 -2.69209,0.271679 -2.89085,0.829765 -0.19875,0.558087 0.54134,0.979962 1.64466,0.9375 2.70025,-0.103921 4.45539,2.652122 3.08525,4.844672 -1.49348,2.389902 -4.72172,2.582624 -5.91131,0.352899 z m 4.60966,-1.469446 c 0,-0.743007 -0.45721,-1.634372 -1.01601,-1.980813 -1.31964,-0.818135 -3.12093,0.988778 -2.30534,2.312549 0.91608,1.486894 3.32135,1.246658 3.32135,-0.331736 z m 3.79245,1.885098 c -1.59062,-1.92256 -0.85327,-8.104519 1.11409,-9.340684 2.53808,-1.594766 4.85498,0.416187 5.2005,4.513756 0.32285,3.828946 -1.02898,6.167752 -3.56498,6.167752 -0.90216,0 -2.13949,-0.60337 -2.74961,-1.340824 z m 4.15148,-4.362301 c 0,-2.222223 -0.4293,-3.203125 -1.40187,-3.203125 -1.49629,0 -2.37222,3.426487 -1.47529,5.771141 0.94794,2.478017 2.87716,0.756091 2.87716,-2.568016 z m 3.58488,-2.328641 c -0.77893,-2.036214 1.19855,-3.951108 2.61398,-2.53125 1.19629,1.200031 0.45518,4.000516 -1.05868,4.000516 -0.54628,0 -1.24617,-0.66117 -1.5553,-1.469266 z m 2.48988,-0.874484 c 0,-0.773438 -0.42056,-1.40625 -0.93458,-1.40625 -0.51402,0 -0.93458,0.632812 -0.93458,1.40625 0,0.773437 0.42056,1.40625 0.93458,1.40625 0.51402,0 0.93458,-0.632813 0.93458,-1.40625 z"
       id="path3812"
       inkscape:connector-curvature="0" />
  </g>
</svg>
