<?xml version="1.0" encoding="UTF-8" standalone="no"?>
<!-- Created with Inkscape (http://www.inkscape.org/) -->

<svg
   xmlns:dc="http://purl.org/dc/elements/1.1/"
   xmlns:cc="http://creativecommons.org/ns#"
   xmlns:rdf="http://www.w3.org/1999/02/22-rdf-syntax-ns#"
   xmlns:svg="http://www.w3.org/2000/svg"
   xmlns="http://www.w3.org/2000/svg"
   xmlns:sodipodi="http://sodipodi.sourceforge.net/DTD/sodipodi-0.dtd"
   xmlns:inkscape="http://www.inkscape.org/namespaces/inkscape"
   version="1.1"
   width="725"
   height="275"
   id="svg2"
   inkscape:version="0.91 r13725"
   sodipodi:docname="ub840204.svg">
  <sodipodi:namedview
     pagecolor="#bcbcbc"
     bordercolor="#666666"
     borderopacity="1"
     objecttolerance="10"
     gridtolerance="10"
     guidetolerance="10"
     inkscape:pageopacity="0"
     inkscape:pageshadow="2"
     inkscape:window-width="1704"
     inkscape:window-height="966"
     id="namedview11"
     showgrid="false"
     inkscape:zoom="1.5721649"
     inkscape:cx="409.91674"
     inkscape:cy="152.37485"
     inkscape:window-x="0"
     inkscape:window-y="0"
     inkscape:window-maximized="0"
     inkscape:current-layer="svg2" />
  <metadata
     id="metadata8">
    <rdf:RDF>
      <cc:Work
         rdf:about="">
        <dc:format>image/svg+xml</dc:format>
        <dc:type
           rdf:resource="http://purl.org/dc/dcmitype/StillImage" />
        <dc:title></dc:title>
      </cc:Work>
    </rdf:RDF>
  </metadata>
  <defs
     id="defs6" />
  <g
     id="g4742"
     transform="translate(13.595464,-0.47281429)">
    <g
       transform="matrix(-0.96592583,-0.25881905,0.25881905,-0.96592583,140.69943,442.62353)"
       id="g4513">
      <path
         inkscape:connector-curvature="0"
         style="fill:#fefefe"
         d="m -117.21568,402.43502 c -4.52629,-3.3407 -11.88254,-11.74627 -11.22043,-12.82094 1.18969,-1.93099 3.63612,-0.92802 6.81052,2.79214 1.77241,2.07714 5.17724,4.71386 7.56629,5.85938 3.02858,1.45216 4.34372,2.65045 4.34372,3.95776 0,2.68147 -4.00081,2.79437 -7.5001,0.21166 z"
         id="path4387" />
      <path
         inkscape:connector-curvature="0"
         style="fill:#fefefe"
         d="m -104.80904,403.93734 c -1.90904,-0.51967 -2.24921,-4.94212 -0.51402,-6.68273 1.52264,-1.52739 5.59803,-1.41883 7.81203,0.2081 1.78973,1.31515 1.78772,1.36878 -0.14879,3.98437 -1.94745,2.63038 -4.00351,3.34657 -7.14922,2.49026 z"
         id="path4385" />
      <path
         inkscape:connector-curvature="0"
         style="fill:#fefefe"
         d="m -138.17651,399.46374 c -1.51806,-1.83487 -3.75734,-10.53438 -3.77097,-14.65012 l -0.0111,-3.34724 -4.8818,4.28474 c -2.68499,2.35661 -6.27693,5.70415 -7.98211,7.43898 -1.71641,1.74627 -4.64767,3.51481 -6.56681,3.96201 -7.61127,1.77359 -10.25988,0.33711 -4.63471,-2.51365 1.67057,-0.84662 7.31846,-5.73991 12.55089,-10.87398 8.07766,-7.92582 9.90782,-9.28894 12.12608,-9.03165 1.9039,0.22083 3.157,1.27967 4.61961,3.90347 2.44374,4.38384 6.37301,18.87363 5.63864,20.79335 -0.68347,1.78667 -5.61811,1.8104 -7.08773,0.0341 z"
         id="path4383" />
      <path
         inkscape:connector-curvature="0"
         style="fill:#fefefe"
         d="m -120.88586,392.26189 c -3.54775,-4.22943 -2.00508,-4.63005 2.07371,-0.53853 2.42989,2.43749 3.00103,3.46875 1.92108,3.46875 -0.84527,0 -2.64293,-1.3186 -3.99479,-2.93022 z"
         id="path4381" />
      <path
         inkscape:connector-curvature="0"
         style="fill:#0000fe"
         d="m -120.46325,404.91068 c -2.88832,-0.74403 -7.03279,-1.10212 -9.4603,-0.8174 -5.15202,0.60427 -7.06619,-0.005 -8.43707,-2.68334 -0.84242,-1.64619 -0.80484,-1.79221 0.21288,-0.8272 1.69512,1.60731 5.99038,1.47439 7.39966,-0.22899 0.63745,-0.77048 0.95754,-2.45798 0.71133,-3.75 -0.70978,-3.72455 3.25845,-3.14324 6.49628,0.95165 3.09241,3.91097 8.86028,7.94921 11.35397,7.94921 0.97611,0 2.32757,-0.66818 3.00322,-1.48483 1.62677,-1.96627 0.29586,-4.11316 -3.87332,-6.24809 -2.59998,-1.33138 -2.81763,-1.63944 -1.15908,-1.64062 1.12309,-8.1e-4 3.12075,0.40997 4.43926,0.91284 1.90987,0.7284 2.39728,1.54803 2.39728,4.03125 0,5.59133 -2.93171,6.45075 -13.08411,3.83552 z"
         id="path4457" />
      <path
         sodipodi:nodetypes="cssssscssssssssscssccssssssccccssccssssscssscssscccsssscccsssssccsscccssssc"
         inkscape:connector-curvature="0"
         id="path4506"
         d="m -141.77148,373.62891 c -1.68576,0 -4.9302,2.55518 -11.77149,9.26757 -5.19418,5.09631 -10.7839,9.94374 -12.42187,10.77344 -6.25642,3.16918 -4.86372,5.82164 2.52148,4.80274 3.99886,-0.5517 5.56074,-1.3666 8.83984,-4.60938 2.19062,-2.16636 5.72057,-5.32136 7.84571,-7.00976 3.80052,-3.01943 3.86506,-3.03309 3.88086,-0.88086 0.009,1.20348 0.83328,5.35156 1.83203,9.21875 2.26201,8.75865 4.268,10.73054 10.0332,9.86328 2.49771,-0.37572 7.0154,0.0253 11.99024,1.0625 6.35701,1.32539 8.35046,1.43392 9.78515,0.53515 1.51445,-0.94875 1.95937,-0.83224 2.79102,0.72657 0.54415,1.01994 1.94257,2.09344 3.10742,2.38671 3.03612,0.76439 4.691771,3.67821 2.92578,5.14844 -0.74801,0.62272 -1.35937,1.50259 -1.35937,1.95508 0,1.37608 1.4889,0.92315 3.199214,-0.97266 0.89046,-0.98703 1.490728,-2.56906 1.335938,-3.51562 -0.15477,-0.94656 0.865575,-2.86133 2.265625,-4.25586 3.8042,-3.78918 3.46758,-7.54801 -0.943359,-10.55469 -3.869281,-2.63745 -7.853568,-3.07817 -9.529298,-1.05273 -0.94388,1.14108 -1.44866,1.14175 -3.61914,0.006 -1.38723,-0.72599 -3.17354,-1.32317 -3.96875,-1.32617 -0.79522,-0.003 -3.02197,-1.62562 -4.94922,-3.60547 -2.58999,-2.66069 -4.32397,-3.6293 -6.64453,-3.7168 -3.91334,-0.14758 -5.99514,1.92662 -4.16016,4.14453 1.08316,1.30922 1.01641,1.46798 -0.49218,1.17188 -1.24062,-0.24351 -2.194,-1.96956 -3.29688,-5.96875 -2.59224,-9.39974 -5.42908,-13.59375 -9.19726,-13.59375 z m -0.40235,1.09375 c 0.27812,-0.0281 0.54889,-0.0224 0.82617,0.01 3.39171,0.3934 5.94389,4.90649 8.70899,15.40625 2.4938,9.46955 2.16053,11.02478 -2.25391,10.50781 -1.7578,-0.20586 -2.99152,-0.0407 -2.74023,0.36719 0.78644,1.27646 5.67014,0.80795 6.88476,-0.66015 0.63753,-0.77048 0.95715,-2.45798 0.71094,-3.75 -0.70978,-3.72455 3.25826,-3.14372 6.49609,0.95117 3.09241,3.91097 8.86178,7.94922 11.35547,7.94922 0.97611,0 2.32631,-0.66772 3.00196,-1.48438 1.62677,-1.96627 0.29613,-4.11312 -3.87305,-6.24805 -2.59998,-1.33138 -2.81675,-1.63962 -1.1582,-1.64062 1.12309,-8.1e-4 3.11899,0.40924 4.4375,0.91211 1.90987,0.7284 2.39843,1.54803 2.39843,4.03125 0,1.71432 -0.50427,3.62344 -1.12109,4.24219 -1.41485,1.41927 -5.38615,1.28673 -11.96289,-0.40039 -3.00467,-0.77084 -7.0834,-1.1008 -9.81641,-0.79493 -5.10993,0.5719 -7.66995,-0.58138 -8.38086,-3.77343 -0.22967,-1.03125 -1.05944,-4.19531 -1.8457,-7.03125 -0.78626,-2.83594 -1.43441,-6.66098 -1.44141,-8.50196 l -0.0117,-3.34765 -4.88086,4.28515 c -2.68499,2.35661 -6.27725,5.70267 -7.98243,7.4375 -1.71641,1.74627 -4.64726,3.51569 -6.5664,3.96289 -7.61127,1.77359 -10.25994,0.33709 -4.63477,-2.51367 1.67057,-0.84662 7.31835,-5.74093 12.55078,-10.875 7.06796,-6.93509 9.35203,-8.84411 11.29883,-9.04101 z m 15.20508,13.93359 c 1.32242,-0.0814 3.16135,1.19239 5.34375,3.75 1.77241,2.07714 5.17736,4.71385 7.56641,5.85937 3.02858,1.45217 4.34375,2.64973 4.34375,3.95704 0,2.68147 -4.00071,2.7956 -7.5,0.21289 -4.52629,-3.3407 -11.88282,-11.7476 -11.22071,-12.82227 0.37178,-0.60343 0.8657,-0.92002 1.4668,-0.95703 z m 4.33984,0.0996 c 0.5679,0.0801 2.15227,1.29746 3.81641,2.9668 2.42989,2.43749 3.00182,3.46875 1.92188,3.46875 -1.6773,0 -6.78625,-5.52548 -5.91602,-6.39844 0.0369,-0.037 0.0966,-0.0485 0.17773,-0.0371 z m 20.95313,7.41992 c 1.48593,0.0396 3.057061,0.47365 4.164061,1.28711 1.78973,1.31515 1.788073,1.36879 -0.148437,3.98438 -1.94745,2.63038 -4.002724,3.34654 -7.148434,2.49023 -1.90904,-0.51967 -2.24887,-4.94298 -0.51368,-6.68359 0.76132,-0.7637 2.16056,-1.11771 3.64649,-1.07813 z"
         style="fill:#000000" />
    </g>
    <path
       inkscape:connector-curvature="0"
       id="path4281"
       d="m 543.31738,84.941582 c -1.18604,-0.0118 -2.4048,0.42884 -3.29102,1.5 -0.96563,1.16714 -0.98724,1.86491 -0.10547,3.28125 0.87016,1.39772 0.87016,2.19993 0,3.59766 -0.88177,1.41633 -0.86016,2.11411 0.10547,3.28125 0.67453,0.815311 2.17482,1.482421 3.33399,1.482421 3.08094,0 4.86768,-2.472701 3.4414,-4.763671 -0.87017,-1.39773 -0.87017,-2.19994 0,-3.59766 1.57891,-2.53613 -0.87509,-4.75527 -3.48437,-4.78125 z m -8.40039,0.0176 c -1.41169,0 -5.10742,3.2138 -5.10742,4.44141 0,1.1499 0.26167,1.19571 1.40234,0.24609 1.21507,-1.01158 1.40039,-0.52765 1.40039,3.63477 0,3.643691 0.33868,4.802731 1.40234,4.802731 1.11259,0 1.40235,-1.35416 1.40235,-6.562501 0,-3.60938 -0.22491,-6.5625 -0.5,-6.5625 z m 18.72461,0 c -3.83505,0 -5.842,8.53893 -2.73828,11.65234 0.80774,0.810281 2.04069,1.472661 2.73828,1.472661 2.34879,0 4.20509,-2.897421 4.20507,-6.562501 0,-3.66508 -1.85628,-6.5625 -4.20507,-6.5625 z m 8.68945,0.13477 c -2.03202,-0.0397 -3.12432,1.86992 -2.25195,4.15039 0.33776,0.88294 1.40611,1.35189 2.66992,1.17187 1.54461,-0.22002 2.10742,-0.92635 2.10742,-2.64453 0,-1.71819 -0.56281,-2.42451 -2.10742,-2.64453 -0.14352,-0.0204 -0.2825,-0.0306 -0.41797,-0.0332 z m -18.9707,1.74023 c 0.77103,0 1.40234,0.60855 1.40234,1.35156 0,1.56623 -1.33485,2.62296 -2.20703,1.74805 -1.11698,-1.12047 -0.603,-3.09961 0.80469,-3.09961 z m 19.1582,0 c 0.51402,0 0.93555,0.42187 0.93555,0.9375 0,0.51562 -0.42153,0.9375 -0.93555,0.9375 -0.51402,0 -0.93359,-0.42188 -0.93359,-0.9375 0,-0.51563 0.41957,-0.9375 0.93359,-0.9375 z m -8.87695,0.46875 c 0.51402,0 1.0669,1.63712 1.23047,3.63867 0.31763,3.88664 -1.20124,6.721381 -2.20118,4.10742 -0.82255,-2.15025 -0.12105,-7.74609 0.97071,-7.74609 z m -10.27149,5.85352 c 0.51492,-0.0387 1.02516,0.42405 1.21485,1.4121 0.19701,1.02618 -0.26203,1.64063 -1.22461,1.64063 -0.89788,0 -1.41264,-0.60572 -1.23633,-1.45508 0.21134,-1.01818 0.73117,-1.55899 1.24609,-1.59765 z"
       style="fill:#000000" />
    <path
       sodipodi:nodetypes="ssssssssccssssssssssssssscccssssssssssccssssccssssssssssssscsscscssssssssssssssssscssssssssccsssssscssssssssssssssssssssss"
       d="m 193.75,152.31067 c -2.36106,-0.617 -2.202,-1.88067 0.47251,-3.75397 2.33397,-1.63478 7.77749,-2.14642 7.77749,-0.73101 0,1.16496 -4.43674,5.19814 -5.56445,5.05831 -0.51455,-0.0638 -1.72305,-0.3218 -2.68555,-0.57333 z m 9.17061,-4.01949 c -0.84531,-2.22333 -0.28529,-5.13574 3.12469,-16.25 7.51302,-24.48748 7.53028,-24.53326 9.30717,-24.68939 1.26266,-0.11095 1.3072,-0.0301 0.17713,0.3214 -1.01006,0.31421 -1.48149,1.68691 -1.42463,4.14821 0.0467,2.02323 -1.10013,9.94632 -2.54858,17.60687 -1.44845,7.66055 -2.39626,14.54663 -2.10625,15.3024 0.67992,1.77184 -2.25409,6.26933 -4.0899,6.26933 -0.77536,0 -1.87319,-1.21897 -2.43963,-2.70882 z M 170.5,145.31884 c -7.74094,-1.73847 -8.5,-2.30968 -8.5,-6.39639 0,-2.15735 0.23465,-3.92245 0.52144,-3.92245 0.28679,0 2.19929,1.09556 4.25,2.43458 2.05071,1.33902 5.75356,3.2122 8.22856,4.16262 5.60566,2.15262 5.77607,2.30032 3.97104,3.44186 -1.51309,0.95691 -4.95044,1.07043 -8.47104,0.27978 z m -24,-10.90089 c -16.51466,-9.87731 -15.54936,-9.10644 -14.61285,-11.66951 0.45185,-1.23664 1.79505,-2.74391 2.9849,-3.34948 1.87895,-0.95629 3.60439,-0.16751 13.12484,6 l 10.96149,7.10104 0.0208,4.25 c 0.0114,2.3375 -0.31669,4.24932 -0.72919,4.24849 -0.4125,-8.4e-4 -5.7,-2.96208 -11.74999,-6.58054 z m 80.15499,-5.24669 C 225.74474,128.16545 225,125.85665 225,124.04059 c 0,-6.36645 -3.19875,-23.67851 -7.10191,-38.436483 -2.1668,-8.192742 -3.70351,-15.132016 -3.41492,-15.42061 1.05156,-1.051565 5.50454,4.223956 6.93597,8.217175 0.80821,2.254631 3.35304,10.174328 5.65519,17.599328 2.30215,7.425 5.02721,16.0733 6.0557,19.21845 2.492,7.62067 2.38323,10.95074 -0.44448,13.60724 -2.82114,2.65032 -3.8894,2.71153 -6.03056,0.34557 z M 284.5,122.82211 c -1.1,-0.61439 -2.15735,-1.24555 -2.34966,-1.40259 -0.19232,-0.15703 0.18978,-1.92005 0.8491,-3.91782 1.10905,-3.36047 1.32821,-3.51516 2.9284,-2.067 0.9513,0.86091 2.25671,1.5653 2.9009,1.5653 1.53348,0 1.51238,4.25888 -0.0287,5.8 -1.44768,1.44768 -1.74493,1.44921 -4.3,0.0221 z m -1.35946,-10.04812 c -2.39771,-1.67927 -6.38481,-5.66128 -8.86023,-8.84891 -2.47542,-3.18763 -5.12616,-6.035686 -5.89054,-6.329004 -1.57681,-0.60508 -1.7746,-2.440093 -0.48285,-4.479718 0.66708,-1.053288 2.4794,0.315726 7.59067,5.733937 7.81122,8.280305 12.20163,11.302625 15.25789,10.503395 1.72224,-0.45037 2.29022,-0.0198 2.83452,2.14887 1.32566,5.28187 -3.82792,5.90893 -10.44946,1.27143 z M 251,112 c 0,-1.1 0.17252,-2 0.38337,-2 0.21085,0 0.61872,0.9 0.90638,2 0.28766,1.1 0.11514,2 -0.38337,2 C 251.40787,114 251,113.1 251,112 Z m 6.00945,-0.25 c -0.008,-1.55712 1.15801,-1.75 10.58282,-1.75 8.97596,0 10.96935,0.29661 13.06339,1.94378 l 2.47112,1.94379 -13.05394,-0.19379 c -11.68778,-0.1735 -13.05493,-0.37693 -13.06339,-1.94378 z M 91,109 c 0,-0.55 -1.125,-1 -2.5,-1 -2.92139,0 -3.017617,-0.86619 -1.531808,-13.788522 0.591495,-5.144331 0.599258,-9.218971 0.02046,-10.741316 -1.632105,-4.29276 1.586055,-7.897936 4.724802,-5.293007 1.594551,1.323359 1.575576,1.535266 -1.550564,17.316567 C 88.108808,105.86311 88.147947,107 90.559017,107 91.351558,107 92,107.675 92,108.5 c 0,0.825 -0.225,1.5 -0.5,1.5 -0.275,0 -0.5,-0.45 -0.5,-1 z m 55.5,-3.64514 c -16.70099,-7.407232 -17,-7.589396 -17,-10.356803 0,-3.916365 3.6979,-3.783042 8.74726,0.315373 6.51085,5.28465 14.64351,9.96029 19.69315,11.32201 2.51333,0.67777 3.54983,1.25986 2.30959,1.29707 C 159.0125,107.96963 158,108.45 158,109 c 0,1.41065 -0.35317,1.2987 -11.5,-3.64514 z M 305.49507,94.568951 c -0.27229,-0.862923 -0.71019,-2.255005 -0.97311,-3.093514 -0.3314,-1.056893 -1.21821,-1.338795 -2.89091,-0.918973 -3.76369,0.944627 -3.86949,-0.933026 -0.25022,-4.440956 2.90932,-2.819825 3.45562,-3.017494 4.58353,-1.658452 1.0444,1.25842 1.02745,1.86565 -0.0919,3.292944 -1.25342,1.598238 -1.21571,1.626857 0.43485,0.330013 1.60875,-1.264002 2.09987,-1.127403 4.47077,1.243506 2.33055,2.330542 2.47964,2.838398 1.19272,4.062664 -2.45722,2.337579 -5.91219,2.96862 -6.47571,1.182768 z m -174.8284,-4.235618 c -1.74029,-1.740285 -0.52818,-5.353588 2.28367,-6.807653 C 136.96239,81.45097 137,81.472957 137,85.893011 c 0,2.627427 -0.51423,4.090338 -1.58179,4.5 -2.06815,0.793623 -3.92152,0.770345 -4.75154,-0.05968 z m 178.89528,-4.26989 -3.84395,-3.936558 12.84391,-13.595317 c 12.32611,-13.047232 16.35396,-16.015697 18.63554,-13.734116 1.95139,1.951391 -0.8341,6.793725 -11.61882,20.19827 C 319.76038,82.227343 315,88.561695 315,89.072061 c 0,1.792811 -1.63036,0.890807 -5.43805,-3.008618 z M 329.33138,63.21662 C 331.89912,60.310761 334,57.659906 334,57.32583 c 0,-0.334075 -1.90159,1.593446 -4.22575,4.28338 -2.32416,2.689935 -7.16964,8.04079 -10.76772,11.89079 -3.59807,3.85 -7.42993,8.125 -8.51522,9.5 -2.42344,3.070345 12.40003,-12.495332 18.84007,-19.78338 z M 94.606989,85.418213 C 93.382118,82.22625 93.954482,80 96,80 c 2.348764,0 6,3.346967 6,5.5 0,2.124527 -6.574278,2.051797 -7.393011,-0.08179 z M 69.5,57.073413 C 67.400824,56.194384 63.495004,51.556014 58.491302,44 56.852322,41.525 52.021287,35.332723 47.755669,30.239384 40.090307,21.086599 38.871038,19 41.18812,19 43.543484,19 48.731692,23.616802 62,37.519753 c 11.015598,11.54249 13.5,14.682588 13.5,17.062986 0,3.168252 -2.200508,4.08171 -6,2.490674 z"
       id="path2997"
       style="fill:#fefefe"
       inkscape:connector-curvature="0" />
    <path
       sodipodi:nodetypes="ssssssscssccsssscssssscssssssssssssssssssssssss"
       d="m 199,171.34756 c -3.80503,-0.57849 -10.38487,-2.59547 -11.43333,-3.50477 -1.89014,-1.63927 0.23844,-1.82283 4.34328,-0.37456 2.32206,0.81927 7.05942,1.78029 10.52746,2.1356 5.29319,0.54231 7.60128,0.2145 14.37634,-2.0418 8.12127,-2.70463 18.05683,-8.41492 21.59124,-12.40919 1.6835,-1.90253 1.71256,-2.15284 0.25,-2.15284 -0.91025,0 -1.65128,-0.3375 -1.64674,-0.75 0.0103,-0.9379 8.15378,-5.42131 8.75499,-4.82009 0.24229,0.24229 -0.31648,2.71968 -1.24172,5.50531 -1.66178,5.00314 -3.4929,6.712 -3.55193,3.31478 -0.0283,-1.62661 -0.0999,-1.63083 -1.01614,-0.06 -0.54215,0.92953 -3.02672,3.0675 -5.52127,4.75105 C 221.57189,169.6204 209.99814,173.01962 199,171.34756 Z m 176,-40.6132 c 0,-1.2796 5.28554,-9.73436 6.08549,-9.73436 0.50298,0 0.91675,1.0125 0.91948,2.25 0.005,2.12945 0.13571,2.08927 2.44534,-0.75 5.4475,-6.69673 7.77105,-12.37723 7.91268,-19.34451 0.19369,-9.528901 -1.09609,-15.684852 -4.01244,-19.150736 C 386.95996,82.352139 386.27221,81 386.82221,81 c 1.85357,0 6.0921,6.029613 6.87448,9.779437 0.42695,2.04631 0.77375,7.320563 0.77067,11.720563 -0.006,7.97181 -0.0242,8.02819 -5.27411,16 -4.00144,6.07604 -4.8987,8.07776 -3.73087,8.32332 2.7605,0.58047 1.61898,1.93935 -2.21238,2.63366 -2.0625,0.37377 -4.7625,0.92263 -6,1.2197 -1.2375,0.29708 -2.25,0.32303 -2.25,0.0577 z M 308,110.125 c 0,-0.61875 0.69735,-1.125 1.54966,-1.125 3.27677,0 7.28834,-2.98593 7.92873,-5.90159 1.84307,-8.391468 -14.37101,-23.618446 -27.36145,-25.695701 -3.66728,-0.586423 -4.15808,-0.406525 -5.2141,1.911197 -0.64117,1.407205 -0.82921,3.374751 -0.41787,4.372324 0.49947,1.211323 0.90296,1.39858 1.21479,0.56377 C 286.68683,81.607423 288,83.177351 288,87 c 0,2.2 -0.17004,4 -0.37788,4 C 286.01523,91 280,87.748256 280,86.879591 c 0,-0.601463 0.69412,-0.827211 1.54248,-0.501662 1.27733,0.490156 1.42996,-0.0079 0.88788,-2.897424 -0.46677,-2.488113 -0.16158,-4.241768 1.06361,-6.111644 1.5553,-2.373695 2.15849,-2.569863 6.36212,-2.069089 6.23079,0.742269 13.41372,4.811276 20.4721,11.597094 C 316.32005,92.657349 320,98.382665 320,101.94439 c 0,2.98684 -5.02022,7.96868 -8.75,8.68309 -2.10964,0.40409 -3.25,0.22778 -3.25,-0.50248 z"
       id="path2993"
       style="fill:#fe0000"
       inkscape:connector-curvature="0" />
    <path
       sodipodi:nodetypes="ssscccccsssssscsssssssssssscsssssssssssscssssss"
       d="m 208.78909,149.2962 c 1.24329,-1.74604 1.83803,-3.79596 1.54542,-5.32666 -0.34166,-1.78727 0.26214,-3.18143 2.14315,-4.94856 l 2.61883,-2.46025 -0.29825,7.46963 L 214.5,151.5 l -3.866,0.31728 -3.866,0.31728 z M 218,142.73135 c 0,-7.06579 0.12948,-7.46452 3.47803,-10.71005 3.2872,-3.18609 3.57957,-3.27915 5.32874,-1.69617 2.32826,2.10705 3.06736,2.09691 5.47791,-0.0751 1.91556,-1.72603 1.91936,-1.69522 0.2774,2.25 -2.715,6.52347 -8.82827,14.50172 -12.69922,16.5734 C 218.12437,150.00381 218,149.58039 218,142.73135 Z m -89.26988,-23.09578 c -2.59178,-6.30666 -3.03481,-9.89157 -2.25322,-18.23235 0.63168,-6.740989 0.85383,-7.366602 1.87329,-5.275575 0.63614,1.304795 2.97146,3.290492 5.1896,4.412665 3.98228,2.01465 4.02231,2.09009 3.1843,6 -0.46677,2.17783 -0.60663,5.54521 -0.3108,7.48308 0.45074,2.95264 0.18023,3.68158 -1.66996,4.5 -1.2143,0.53713 -2.68164,1.93762 -3.26074,3.11218 -0.98606,1.99996 -1.16085,1.87295 -2.75247,-2 z m 165.5047,-8.82441 c -0.93395,-2.47432 -1.58084,-2.95394 -3.3575,-2.48933 -1.21037,0.31652 -3.01772,0.13821 -4.01635,-0.39623 -1.64242,-0.87901 -1.45542,-1.2972 1.95983,-4.38267 2.07653,-1.87602 4.84031,-5.684345 6.14174,-8.46295 1.82135,-3.888657 2.66274,-4.805931 3.65386,-3.983377 0.70819,0.587749 2.20922,0.776131 3.33561,0.418628 1.5848,-0.502996 2.04799,-0.210123 2.04799,1.294937 0,2.444706 2.49423,4.598126 4.2062,3.631468 0.71159,-0.401799 -0.57164,1.24696 -2.85162,3.663914 -2.27998,2.41695 -5.08605,6.27642 -6.23571,8.5766 -2.73885,5.47977 -3.49488,5.80933 -4.88405,2.12901 z M 82.649216,79.75 c -1.348911,-1.7875 -3.187393,-5.029746 -4.085515,-7.20499 -0.898121,-2.175245 -3.39529,-6.289195 -5.549264,-9.142112 l -3.916315,-5.187123 3.193128,0.142113 c 2.370545,0.105502 3.434341,-0.402458 4.129478,-1.971816 0.878231,-1.982716 1.189069,-1.805303 5.007811,2.858242 8.976613,10.962465 13.081575,18.656137 9.14878,17.146982 -1.847789,-0.709063 -5.895086,3.338234 -5.186023,5.186023 0.888626,2.315722 -0.125671,1.639795 -2.74208,-1.827319 z"
       id="path2991"
       style="fill:#0000fe"
       inkscape:connector-curvature="0" />
    <path
       sodipodi:nodetypes="ssssssscccssscssssssssssscssssssssssssscccccssscccsssssscssssssscccssssscccccssscssscccccssscsssscssssssscssssssssssssssscscscccssccccsssccsssssssccsscsssssssscccccsssscccsssccccssssssssssssscscsccccssssssscssccssssssssssssssssssssssssssssssscssssssssssscssssssscssssssscssssssscssssssssccssscssscssssssscccssssssccssssssssssssscssssssssssssssssssssscscsssccssssssssssssscsssssssccscc"
       d="m 14.806088,257.2535 c 9.180307,-0.28924 10.250752,-0.51198 9.799514,-2.0391 C 24.326986,254.27148 22.525264,245.625 20.601776,236 18.678287,226.375 15.030699,208.6 12.496025,196.5 5.9331966,165.17044 6.2306502,168 9.5,168 c 2.577459,0 2.725202,0.22481 2.214787,3.37013 -0.333322,2.05403 0.904431,10.15736 3.169484,20.75 L 18.600653,209.5 52.800326,209.76313 87,210.02626 87,162.45595 c 0,-31.8135 -0.371194,-49.04445 -1.120646,-52.0208 -0.815755,-3.23965 -0.829696,-7.21955 -0.05124,-14.628337 L 86.897516,85.628964 83.42156,81.781497 c -1.911775,-2.116107 -4.518002,-6.195124 -5.791615,-9.064482 -1.273613,-2.869358 -5.648874,-9.500332 -9.722802,-14.735498 -4.073929,-5.235165 -8.754592,-11.535165 -10.401474,-14 -1.646882,-2.464834 -6.484382,-8.648794 -10.75,-13.742133 C 42.490051,25.146045 39,20.519422 39,19.957999 c 0,-2.185751 3.243422,-2.100142 6.30958,0.16654 4.21434,3.115485 27.613913,27.445841 34.98388,36.375461 3.177556,3.85 7.606505,9.804213 9.842109,13.231585 3.612135,5.537713 4.28766,6.112277 6.066815,5.160103 1.101144,-0.589315 2.881773,-0.841437 3.956956,-0.560271 1.21923,0.318836 1.80826,0.07043 1.56527,-0.660103 C 101.51032,73.027091 100.05925,72.275 98.5,72 c -1.559252,-0.275 -3.022128,-1.0625 -3.250835,-1.75 -0.455165,-1.368237 0.967884,-1.695446 2.174526,-0.5 0.416363,0.4125 1.677063,0.75 2.801559,0.75 1.12449,0 2.3699,0.675 2.76758,1.5 0.39767,0.825 1.46197,2.919431 2.36511,4.654292 1.93066,3.708674 2.13727,8.4505 0.44206,10.145708 -1.92567,1.925672 -10.515201,1.531326 -11.672059,-0.535866 C 93.032265,84.306271 92.990126,84.430696 91,95.5 c -0.5933,3.3 -1.294587,7.0125 -1.558416,8.25 -0.335168,1.57212 -0.01258,2.25 1.070749,2.25 2.326983,0 2.870952,2.6147 1.076858,5.17613 C 90.17277,113.19835 90,121.24836 90,185.22251 L 90,257 l 34.5,0 34.5,0 0,-22.5 0,-22.5 -10.5,0 c -6.33333,0 -10.5,-0.39683 -10.5,-1 0,-0.60317 4.16667,-1 10.5,-1 l 10.5,0 -0.0422,-33.75 -0.0422,-33.75 -12.09834,-7 c -15.38936,-8.90416 -16.31141,-9.64622 -19.01713,-15.30486 -1.8872,-3.94681 -2.23707,-6.31919 -2.19516,-14.88467 0.0328,-6.707472 0.48441,-10.713133 1.3215,-11.721761 1.04952,-1.2646 0.88396,-2.159516 -0.94786,-5.123465 -1.22073,-1.975175 -2.35384,-5.583883 -2.51804,-8.01935 -0.25277,-3.749378 0.0929,-4.736046 2.25535,-6.437008 C 128.28638,71.986892 131,71.347017 131,72.762872 c 0,0.419579 -0.98339,1.207079 -2.18531,1.75 -3.76541,1.700881 -3.13288,3.070324 1.22615,2.654624 5.71909,-0.545403 7.95916,1.688653 7.95916,7.937801 0,3.347661 -0.48103,5.064519 -1.59338,5.687024 -1.33028,0.744462 -0.95876,1.391598 2.25,3.919145 6.53829,5.150232 14.51722,9.641714 19.28379,10.855184 l 4.55959,1.16077 -0.33592,13.38629 -0.33592,13.38629 4.33592,2.67535 c 2.38475,1.47145 6.56564,3.54812 9.29086,4.61483 5.8066,2.27283 6.67334,3.73862 3.15783,5.34039 -2.45271,1.11753 -9.84829,0.29005 -14.86277,-1.66297 -1.65408,-0.64422 -1.75,2.42101 -1.75,55.92541 L 162,257 l 26.5,0 26.5,0 0,-22.5 0,-22.5 -10.5,0 c -6.33333,0 -10.5,-0.39683 -10.5,-1 0,-0.60317 4.16667,-1 10.5,-1 l 10.5,0 0,-19.89301 c 0,-16.76019 0.23623,-19.98366 1.5,-20.46862 1.31932,-0.50627 1.5,4.72064 1.5,43.39301 L 218,257 l 17.5,0 17.5,0 0,-22.5 0,-22.5 -6,0 c -3.33333,0 -6,-0.44444 -6,-1 0,-0.55556 2.66667,-1 6,-1 l 6,0 0,-47.39301 c 0,-41.20463 -0.19586,-47.46817 -1.5,-47.96862 -1.72648,-0.66251 -1.99217,-3.7462 -0.4552,-5.28317 0.66948,-0.66948 5.57423,-0.87032 13.65341,-0.55909 l 12.6086,0.48573 -3.67318,-4.81062 c -2.02025,-2.64584 -4.56428,-5.434772 -5.6534,-6.197624 -2.33623,-1.636354 -2.49334,-3.189617 -0.58642,-5.797482 1.31168,-1.793834 1.81832,-1.451574 8.59878,5.808871 3.96273,4.243255 7.57599,7.715015 8.02947,7.715015 2.06591,0 7.34456,-5.77946 9.94039,-10.883476 C 295.53351,92.027436 298.54717,87.925 300.65946,86 l 3.84054,-3.5 -3.41516,3.718008 c -3.49625,3.80629 -3.13684,5.008114 1.3459,4.500586 1.31662,-0.149065 2.13466,0.576585 2.57187,2.281406 0.74888,2.920124 4.07534,3.037471 7.44414,0.262606 1.12929,-0.930187 -0.71391,1.217695 -4.09599,4.773072 -3.38208,3.555382 -7.08856,8.347082 -8.23661,10.648242 -1.14806,2.30115 -2.8809,4.77615 -3.85076,5.5 -2.11478,1.57833 -2.31654,8.12088 -0.36053,11.69096 1.12612,2.05536 1.03851,2.72805 -0.65117,5 -1.07379,1.44381 -2.9197,2.76892 -4.10202,2.94467 -2.93839,0.4368 -2.73206,-1.45656 0.24003,-2.20251 2.59717,-0.65185 4.20429,-3.42305 2.7997,-4.82764 -0.50154,-0.50154 -2.22083,-0.10938 -4.02114,0.91722 -2.86945,1.63627 -3.38691,1.65921 -5.90662,0.26184 -3.09617,-1.71707 -4.00247,-5.40457 -2.43407,-9.90367 l 0.97403,-2.79411 -6.6508,-0.62823 c -8.46629,-0.79972 -16.53721,-0.81514 -18.56901,-0.0355 -1.4218,0.54559 -1.58179,7.77734 -1.58179,71.5 L 256,257 l 233.25945,0 c 144.98145,0 148.92715,0.56284 0.0539,0.56284 -32.45017,0.008 -66.76362,0.0122 -102.31331,0.0125 -210.375,0.002 -377.8622604,-0.14326 -372.193912,-0.32185 z M 87,234.5 87,212 l -34.108408,0 -34.108408,0 0.69257,2.75 C 20.150041,217.4274 28,256.04003 28,256.67933 28,256.8557 41.275,257 57.5,257 l 29.5,0 z m 91.97104,-89.46094 c 1.80503,-1.14154 1.63462,-1.28924 -3.97104,-3.44186 -2.475,-0.95042 -6.17785,-2.8236 -8.22856,-4.16262 C 164.72073,136.09556 162.80823,135 162.52144,135 162.23465,135 162,136.7651 162,138.92245 c 0,3.55099 0.30778,4.01832 3.25,4.93484 7.16186,2.23095 11.47469,2.6024 13.72104,1.18177 z m -19.99185,-8.28906 -0.0208,-4.25 -10.89062,-7.05484 c -11.61165,-7.52191 -14.09902,-8.02142 -16.0279,-3.21868 -0.5022,1.25043 -0.94161,1.63395 -0.97647,0.85226 -0.082,-1.8393 2.85423,-5.07874 4.60342,-5.07874 1.00328,0 1.20723,-0.97711 0.78271,-3.75 -0.31576,-2.0625 -0.1922,-5.53186 0.27457,-7.70969 0.83801,-3.90991 0.79798,-3.98535 -3.1843,-6 -2.21814,-1.122173 -4.55346,-3.10787 -5.1896,-4.412665 -1.0211,-2.094383 -1.23907,-1.49243 -1.86034,5.137345 -0.82383,8.7915 -0.13448,13.56152 2.84491,19.68571 1.92129,3.94925 3.6299,5.32918 15.16524,12.24788 7.15,4.28845 13.3375,7.79814 13.75,7.7993 0.4125,0.001 0.74063,-1.91038 0.72919,-4.24788 z m 0.006,-14.5 c -0.008,-4.8125 -0.36329,-9.29762 -0.78858,-9.96693 C 157.4365,111.08763 140.79551,103 139.09541,103 c -1.24805,0 -2.35295,8.55093 -1.56718,12.12854 0.53821,2.45042 2.51233,4.24432 10.31865,9.37661 5.30922,3.49057 9.99062,6.37986 10.40312,6.42066 0.4125,0.0408 0.74311,-3.86331 0.73469,-8.67581 z M 288.8,122.8 c 1.54112,-1.54112 1.56222,-5.8 0.0287,-5.8 -0.64419,0 -1.9496,-0.70439 -2.9009,-1.5653 -1.60019,-1.44816 -1.81935,-1.29347 -2.9284,2.067 -0.65932,1.99777 -1.04142,3.76079 -0.8491,3.91782 0.79904,0.65246 4.39105,2.52195 4.89966,2.55007 0.3025,0.0167 1.09,-0.50959 1.75,-1.16959 z m 4.08535,-7.70798 c 0.93635,-0.593 1.16473,-1.75635 0.70465,-3.58946 -0.5443,-2.16865 -1.11228,-2.59924 -2.83452,-2.14887 -3.05626,0.79923 -7.44667,-2.22309 -15.25789,-10.503395 -5.11127,-5.418211 -6.92359,-6.787225 -7.59067,-5.733937 -1.29175,2.039625 -1.09396,3.874638 0.48285,4.479718 0.76438,0.293318 3.41512,3.141374 5.89054,6.329004 7.05596,9.08605 14.6724,13.65752 18.60504,11.16694 z M 252.28975,112 c -0.28766,-1.1 -0.69553,-2 -0.90638,-2 -0.21085,0 -0.38337,0.9 -0.38337,2 0,1.1 0.40787,2 0.90638,2 0.49851,0 0.67103,-0.9 0.38337,-2 z m 28.36591,-0.0562 C 278.56162,110.29661 276.56823,110 267.59227,110 c -9.42481,0 -10.59123,0.19288 -10.58282,1.75 0.008,1.56685 1.37561,1.77028 13.06339,1.94378 l 13.05394,0.19379 -2.47112,-1.94379 z m 18.46321,-3.26163 c 1.14966,-2.30018 3.95573,-6.15965 6.23571,-8.5766 2.27998,-2.416954 3.56321,-4.065713 2.85162,-3.663914 C 306.49423,97.408294 304,95.254874 304,92.810168 c 0,-1.50506 -0.46319,-1.797933 -2.04799,-1.294937 -1.12639,0.357503 -2.62742,0.169121 -3.33561,-0.418628 -0.99112,-0.822554 -1.83251,0.09472 -3.65386,3.983377 -1.30143,2.778605 -4.06521,6.58693 -6.14174,8.46295 -3.41525,3.08547 -3.60225,3.50366 -1.95983,4.38267 0.99863,0.53444 2.80598,0.71275 4.01635,0.39623 1.77666,-0.46461 2.42355,0.015 3.3575,2.48933 1.38917,3.68032 2.1452,3.35076 4.88405,-2.12901 z M 92,108.5 c 0,-0.825 -0.648442,-1.5 -1.440983,-1.5 -2.41107,0 -2.450209,-1.13689 -0.396123,-11.506278 3.12614,-15.781301 3.145115,-15.993208 1.550564,-17.316567 -3.138747,-2.604929 -6.356907,1.000247 -4.724802,5.293007 0.578794,1.522345 0.571031,5.596985 -0.02046,10.741316 C 85.482383,107.13381 85.57861,108 88.5,108 c 1.375,0 2.5,0.45 2.5,1 0,0.55 0.225,1 0.5,1 0.275,0 0.5,-0.675 0.5,-1.5 z m 66,0.5 c 0,-0.55 1.0125,-1.03037 2.25,-1.06749 1.24024,-0.0372 0.20374,-0.6193 -2.30959,-1.29707 -5.04964,-1.36172 -13.1823,-6.03736 -19.69315,-11.32201 C 133.1979,91.215015 129.5,91.081692 129.5,94.998057 c 0,2.767407 0.29901,2.949571 17,10.356803 C 157.64683,110.2987 158,110.41065 158,109 Z M 135.41821,90.393011 C 136.48577,89.983349 137,88.520438 137,85.893011 137,81.472957 136.96239,81.45097 132.95034,83.52568 130.97631,84.546488 130,85.814999 130,87.359013 c 0,3.515679 1.69279,4.463578 5.41821,3.033998 z M 102,85.5 C 102,83.346967 98.348764,80 96,80 93.954482,80 93.382118,82.22625 94.606989,85.418213 95.425722,87.551797 102,87.624527 102,85.5 Z M 85.391296,81.577319 c -0.709063,-1.847789 3.338234,-5.895086 5.186023,-5.186023 3.932795,1.509155 -0.172167,-6.184517 -9.14878,-17.146982 -3.818742,-4.663545 -4.12958,-4.840958 -5.007811,-2.858242 -0.695137,1.569358 -1.758933,2.077318 -4.129478,1.971816 l -3.193128,-0.142113 3.916315,5.187123 c 2.153974,2.852917 4.651143,6.966867 5.549264,9.142112 2.198603,5.325001 8.710959,13.940275 6.827595,9.032309 z M 75.5,54.582739 C 75.5,52.202341 73.015598,49.062243 62,37.519753 48.731692,23.616802 43.543484,19 41.18812,19 38.871038,19 40.090307,21.086599 47.755669,30.239384 52.021287,35.332723 56.852322,41.525 58.491302,44 65.955122,55.271003 69.114428,58.155978 73.5,57.705456 c 1.495998,-0.153681 2,-0.940608 2,-3.122717 z M 215,160.30691 l 0,-7.85976 -4.0469,0.38593 c -3.55082,0.33863 -4.11865,0.74466 -4.63218,3.3123 -0.59194,2.95972 -3.62456,5.85462 -6.13313,5.85462 -0.75196,0 -2.14386,0.95913 -3.09311,2.1314 -1.60485,1.98191 -1.98877,2.03635 -5.47356,0.77624 -3.78415,-1.36837 -6.35161,-3.51048 -5.3764,-4.48569 0.29135,-0.29135 2.04297,0.39284 3.8925,1.52042 1.84953,1.12759 3.92528,2.05184 4.61278,2.05389 2.16248,0.006 1.35806,-2.00468 -1.1892,-2.97314 C 191.02798,160.06014 189,157.2205 189,154.63694 189,152.08154 195.50213,146 198.23427,146 c 2.2839,0 2.76613,-0.84544 5.62355,-9.85924 1.71899,-5.42258 4.27971,-13.86008 5.6905,-18.75 2.88655,-10.00502 4.53401,-12.46066 7.22044,-10.76252 1.53153,0.9681 1.69046,2.63884 1.3777,14.48305 l -0.35355,13.38871 3.10355,-2.93709 c 2.45021,-2.3188 3.10354,-3.76726 3.10354,-6.88067 0,-6.97182 -3.05501,-23.77667 -7.10892,-39.104454 -4.34261,-16.419313 -4.1362,-19.102928 1.08458,-14.10111 3.11296,2.982406 3.90227,4.811203 8.85788,20.523324 9.01915,28.59583 9.41342,30.09076 8.85061,33.55895 -1.06842,6.58387 -5.49653,14.41343 -11.60829,20.52519 l -5.99312,5.99312 -0.29137,7.63112 c -0.19079,4.99683 -0.72287,7.77388 -1.54137,8.0447 -0.92906,0.3074 -1.25,-1.60445 -1.25,-7.44617 z m -15.31445,-9.48122 c 1.27295,-1.19588 2.31445,-2.54588 2.31445,-3 0,-1.41541 -5.44352,-0.90377 -7.77749,0.73101 -2.67451,1.8733 -2.83357,3.13697 -0.47251,3.75397 3.15302,0.82397 3.59565,0.71323 5.93555,-1.48498 z m 15.11269,-6.79533 0.29825,-7.46963 -2.62413,2.46523 c -1.91783,1.80171 -2.4883,3.14435 -2.11949,4.98837 0.32964,1.64824 -0.20532,3.38352 -1.54279,5.0044 l -2.04742,2.48127 1.55833,-2.62273 c 0.85709,-1.4425 1.36009,-3.4675 1.1178,-4.5 -0.2423,-1.0325 0.64808,-7.50227 1.97863,-14.37727 1.33054,-6.875 2.45594,-11.52709 2.50088,-10.33797 0.0449,1.18912 -0.59322,5.68912 -1.41813,10 -1.90892,9.97587 -1.90598,10.01258 0.61996,7.74296 2.02209,-1.8169 2.09373,-2.53788 1.54914,-15.59113 -0.48039,-11.51429 -0.33765,-13.75946 0.89947,-14.14821 1.035,-0.32524 0.97096,-0.41818 -0.21627,-0.31386 -1.77689,0.15613 -1.79415,0.20191 -9.30717,24.68939 -5.35743,17.46167 -4.70398,20.04868 4.9547,19.61571 L 214.5,151.5 Z m 10.06362,0.4742 c 4.07814,-4.64475 5.67,-7.12644 7.70022,-12.00456 1.64196,-3.94522 1.63816,-3.97603 -0.2774,-2.25 -2.41055,2.17204 -3.14965,2.18218 -5.47791,0.0751 -1.74917,-1.58298 -2.04154,-1.48992 -5.32874,1.69617 C 218.12948,135.2668 218,135.66553 218,142.73132 c 0,6.84904 0.12437,7.27246 1.86286,6.34205 1.02457,-0.54834 3.27412,-2.60432 4.999,-4.56884 z m 7.82369,-15.67887 c 2.82771,-2.6565 2.93648,-5.98657 0.44448,-13.60724 C 232.10154,112.0733 229.37648,103.425 227.07433,96 c -2.30215,-7.425 -4.84698,-15.344697 -5.65519,-17.599328 -1.43143,-3.993219 -5.88441,-9.26874 -6.93597,-8.217175 -0.28859,0.288594 1.24812,7.227868 3.41492,15.42061 C 221.80125,100.36208 225,117.67414 225,124.04059 c 0,3.24598 2.31604,6.95941 4.34054,6.95941 0.56681,0 2.07206,-0.97844 3.34501,-2.17431 z M 315.13099,89 c 0.6445,-1.375 5.61113,-8.002774 11.03695,-14.728386 C 335.98803,62.099055 338.54241,57.855875 337.5722,55.327551 336.144,51.605721 332.27474,54.247837 318.64784,68.25 L 304.77975,82.5 318.07279,68.223143 c 13.46241,-14.458758 16.77154,-16.807385 19.63977,-13.93915 2.48209,2.482082 0.45751,6.294994 -10.88393,20.497851 -5.68075,7.113987 -10.90032,13.78584 -11.59905,14.826339 -1.06981,1.59308 -1.08538,1.497042 -0.0986,-0.608183 z M 305,88.622445 c 0,-0.207656 0.7875,-0.995156 1.75,-1.75 1.58606,-1.243871 1.62143,-1.208501 0.37756,0.377555 C 305.82119,88.915748 305,89.445479 305,88.622445 Z M 310.49131,83 c 1.08529,-1.375 4.91715,-5.65 8.51522,-9.5 3.59808,-3.85 8.44356,-9.200855 10.76772,-11.89079 C 332.09841,58.919276 334,56.991755 334,57.32583 c 0,0.334076 -2.10088,2.984931 -4.66862,5.89079 C 322.89134,70.504668 308.06787,86.070345 310.49131,83 Z M 285,54 c 0,-3.325167 -0.41871,-5.005129 -1.25,-5.015313 C 282.91667,48.974479 283,48.64625 284,48 c 2.64441,-1.708949 3,-1.116298 3,5 0,3.333333 -0.44444,6 -1,6 -0.55,0 -1,-2.25 -1,-5 z m 7.93261,3.418799 c -0.99211,-1.195413 -1.03947,-2.018049 -0.19412,-3.37167 0.80445,-1.288118 0.81349,-2.095152 0.0322,-2.876417 C 291.37065,49.770648 293.5159,47 296,47 c 2.4841,0 4.62935,2.770648 3.22929,4.170712 -0.78127,0.781265 -0.77223,1.588299 0.0322,2.876417 2.30451,3.69012 -3.49877,6.781772 -6.3289,3.37167 z m 4.73156,-0.986016 c 0.83346,-2.171962 -1.28244,-4.214515 -2.79695,-2.7 C 293.58718,55.012816 294.38017,58 296,58 c 0.58452,0 1.3334,-0.705248 1.66417,-1.567217 z m -0.11032,-5.519915 c 1.03052,-1.667419 -1.28721,-3.57951 -2.66672,-2.2 C 293.73321,49.866792 294.45541,52 296,52 c 0.48508,0 1.18431,-0.48921 1.55385,-1.087132 z m 5.51381,6.213558 c -1.44958,-2.70857 -1.34319,-6.367351 0.24844,-8.544037 3.16477,-4.328083 8.10306,1.468014 6.10682,7.167611 -1.20039,3.427302 -4.83623,4.214756 -6.35526,1.376426 z M 307.58936,55.5 C 308.33127,52.543977 307.36834,48 306,48 c -1.36834,0 -2.33127,4.543977 -1.58936,7.5 0.34511,1.375 1.06032,2.5 1.58936,2.5 0.52904,0 1.24425,-1.125 1.58936,-2.5 z m 4.77483,-4.993311 C 312.01783,49.604071 312.21394,48.386061 312.8,47.8 c 1.52361,-1.523609 4.41041,-0.131088 4.01242,1.935492 -0.4433,2.301882 -3.64766,2.857428 -4.44823,0.771197 z m 2.31892,-1.694189 c -0.31922,-0.797733 -0.55618,-0.560776 -0.60416,0.604167 -0.0434,1.054166 0.19293,1.644791 0.52522,1.3125 0.33229,-0.332292 0.36781,-1.194792 0.0789,-1.916667 z"
       id="path2989"
       style="fill:#000000"
       inkscape:connector-curvature="0" />
    <path
       inkscape:connector-curvature="0"
       id="path4694"
       d="m 519.49217,151.19349 c 0.65611,-0.54205 2.58916,-1.94892 4.29568,-3.12638 3.07379,-2.12084 6.79221,-8.50507 5.96757,-10.24583 -0.23546,-0.49705 -1.16299,0.70336 -2.06116,2.66758 -1.88367,4.11937 -6.89477,7.92044 -15.58919,11.82487 -6.35713,2.85481 -12.48548,3.18688 -20.86964,1.13082 -3.5547,-0.87173 -3.6471,-0.97292 -1.72468,-1.88882 1.11708,-0.53251 1.85507,-1.33966 1.63974,-1.79422 -0.41128,-0.86818 -10.90562,-1.88031 -11.19164,-1.07937 -0.091,0.25485 1.38904,2.54862 3.289,5.09727 3.36117,4.50875 5.25613,5.52919 4.51378,2.43066 -0.27884,-1.16385 1.82336,-1.22133 8.82064,-0.24119 8.34878,1.16944 9.75821,1.05529 15.45185,-1.25152 3.44582,-1.39609 6.80194,-2.98183 7.45792,-3.52415 z"
       style="fill:#fe0000" />
    <g
       transform="matrix(-1,0,0,1,1345.8336,-346.96441)"
       id="g4349">
      <path
         style="fill:#000000"
         d="m 762.00586,493.53711 c -2.79528,0 -8.38357,6.08279 -7.76563,8.45312 0.36606,1.4042 -0.0728,1.5841 -2.95898,1.20899 -3.0019,-0.39013 -3.81249,-0.002 -7.08398,3.38672 -3.05009,3.15917 -4.31559,3.82617 -7.25586,3.82617 -1.95873,0 -4.3896,-0.51984 -5.40235,-1.1543 -1.53046,-0.95878 -2.12025,-0.86935 -3.49218,0.5293 -1.57917,1.60993 -1.55615,1.76208 0.55468,3.49805 1.70791,1.4046 3.66056,1.81445 8.64453,1.81445 3.54119,0 6.43946,0.3939 6.43946,0.875 0,1.71952 -7.94168,7.46396 -35.67383,25.80273 -5.99958,3.96742 -11.17726,7.91641 -11.50586,8.77539 -0.38138,0.99699 0.14613,2.16603 1.45898,3.23243 1.13113,0.91879 2.73265,1.47539 3.56055,1.23632 0.82789,-0.23905 3.39786,-0.91329 5.71094,-1.49804 2.31308,-0.58477 5.81374,-2.11333 7.77929,-3.39649 6.38945,-4.17117 21.47771,-12.71683 25.5293,-14.45898 2.17404,-0.93481 4.52067,-2.78621 5.21485,-4.11524 1.21467,-2.32553 10.00827,-10.27109 10.65234,-9.625 0.17279,0.17332 -0.10947,4.0527 -0.62695,8.6211 -1.02128,9.01604 -0.49692,10.72569 2.7539,8.98047 1.52697,-0.81977 1.96875,-1.95114 1.96875,-5.0293 0,-2.18363 0.8411,-7.01494 1.86914,-10.73633 2.28094,-8.25678 2.36169,-12.18805 0.29883,-14.47461 -1.48697,-1.64821 -1.39951,-1.8863 1.63672,-4.49023 1.76289,-1.51189 3.66567,-2.76611 4.22852,-2.78711 1.43216,-0.0533 4.54795,-3.66651 3.80468,-4.41211 -0.33639,-0.33743 -1.45514,0.15176 -2.48632,1.08789 -1.68417,1.52891 -1.875,1.54411 -1.875,0.15039 0,-2.28328 -3.40392,-5.30078 -5.97852,-5.30078 z"
         id="path4257"
         inkscape:connector-curvature="0" />
      <path
         inkscape:connector-curvature="0"
         style="fill:#ffffff"
         d="m 758.51275,496.49604 c -0.71557,0.005 -1.33359,0.72049 -2.26758,2.15039 -1.83071,2.80275 -1.03391,5.96308 1.77344,7.03125 4.20435,1.59971 6.64268,-3.5461 3.34766,-7.06445 -1.32515,-1.415 -2.13794,-2.12191 -2.85352,-2.11719 z"
         id="path4329" />
      <path
         inkscape:connector-curvature="0"
         style="fill:#ffffff"
         d="m 750.61822,503.84956 c -2.05364,0 -3.80448,1.01501 -6.4668,3.75 -2.99653,3.07831 -4.28749,3.75 -7.21093,3.75 -1.95873,0 -4.3863,-0.51682 -5.39453,-1.14844 -1.45861,-0.91377 -2.07729,-0.90148 -3.0254,0.0625 -0.96733,0.98355 -0.84973,1.46429 0.62305,2.55469 1.1427,0.84602 4.09539,1.34375 7.97656,1.34375 l 6.16016,0 5.07813,-5.15625 5.07617,-5.15625 -2.81641,0 z"
         id="path4323" />
      <path
         inkscape:connector-curvature="0"
         style="fill:#ffffff"
         d="m 762.02252,510.41206 c -1.87059,0 -3.22529,1.99794 -3.17969,4.6875 0.0219,1.28906 -0.40381,4.66406 -0.94531,7.5 -0.5415,2.83594 -1.24802,7.79297 -1.57031,11.01562 -0.32229,3.22266 -0.38894,5.85938 -0.14844,5.85938 2.36682,0 3.39453,-1.5255 3.39453,-5.04102 0,-2.14661 0.8411,-6.94853 1.86914,-10.66992 2.2157,-8.0206 2.44635,-13.35156 0.58008,-13.35156 z"
         id="path4321" />
      <path
         inkscape:connector-curvature="0"
         style="fill:#ffffff"
         d="m 736.87213,524.14643 c -0.9758,0.13263 -4.15543,2.02659 -9.66407,5.74024 -5.1449,3.46845 -13.83893,9.25976 -19.32031,12.86914 -5.48139,3.60938 -10.20626,7.18352 -10.5,7.94336 -0.29374,0.75983 0.20297,1.92343 1.10352,2.58398 0.90054,0.66055 2.28989,1.01273 3.08789,0.7832 0.79799,-0.22954 3.34317,-0.8988 5.65625,-1.48632 2.31308,-0.58751 6.73034,-2.66622 9.81445,-4.61914 3.08412,-1.95293 9.45903,-5.74558 14.16797,-8.42969 10.08227,-5.74694 11.78016,-7.38878 11.36914,-10.99024 -0.47649,-4.17495 -3.48205,-3.8952 -9.80273,0.91016 -3.00061,2.28123 -7.97839,5.72827 -11.0625,7.66016 -3.08411,1.93191 -7.92095,5.08244 -10.74805,7.00195 -6.09719,4.13979 -7.47656,4.96815 -7.47656,4.48828 0,-0.35587 3.8265,-2.96873 22.13281,-15.11914 5.2331,-3.47335 10.0236,-6.93074 10.64648,-7.68359 0.97362,-1.17681 1.18119,-1.73192 0.59571,-1.65235 z"
         id="path4315" />
      <path
         inkscape:connector-curvature="0"
         style="fill:#0000fe"
         d="m 754.40142,505.01557 c -0.9681,-0.003 -1.83303,0.74877 -3.80664,2.65039 -1.83482,1.7679 -4.12762,4.75691 -5.0957,6.64063 -0.96807,1.88372 -3.32127,4.71397 -5.22852,6.29101 -3.08247,2.54878 -3.26666,2.93078 -1.6621,3.43946 5.12321,1.62414 6.6397,5.55468 3.50976,9.09375 -1.67257,1.89119 -1.66605,1.90763 0.33399,0.85547 1.12173,-0.59011 2.29854,-1.89166 2.61523,-2.89258 0.31669,-1.00092 3.28921,-4.02754 6.60547,-6.72657 5.83311,-4.74745 6.51439,-5.8139 6.16211,-9.6582 -0.0906,-0.98828 0.69767,-2.71802 1.75195,-3.84375 2.09105,-2.23279 1.84586,-2.64272 -3.06836,-5.11328 -0.91828,-0.46165 -1.53632,-0.73442 -2.11719,-0.73633 z"
         id="path4297" />
    </g>
    <g
       transform="matrix(-0.99067746,0.13622836,0.13622836,0.99067746,1168.812,-438.22226)"
       id="g4337">
      <path
         style="fill:#000000"
         d="m 660.11328,446.86523 c -2.31415,-0.20283 -4.52863,3.51449 -3.9082,7.27539 0.29968,1.8166 0.54869,8.23043 0.55469,14.25391 l 0.01,10.95313 2.87695,2.05468 c 1.58277,1.13056 7.14638,3.68781 12.36133,5.68164 6.6081,2.52648 10.47444,4.6216 12.75977,6.91407 4.9369,4.95234 4.64908,3.9505 -0.42969,-1.4961 -3.48063,-3.73269 -4.17811,-4.96841 -3.16601,-5.61133 2.06849,-1.31403 3.43727,-0.9875 3.29687,0.78711 -0.11134,1.40722 0.76941,1.65134 6.18359,1.71094 l 6.3125,0.0684 -6.16211,-0.34765 c -5.07068,-0.28693 -6.06409,-0.6035 -5.61132,-1.78711 0.30259,-0.791 0.55078,-1.55828 0.55078,-1.70508 0,-0.14717 3.04876,-0.14322 6.77539,0.008 3.72664,0.15084 5.60541,0.0641 4.17578,-0.19141 -1.71122,-0.30582 -3.3601,-1.67423 -4.82617,-4.0039 -0.80037,-1.27183 -1.50674,-2.14011 -2.4043,-2.83399 l 1.30469,2.53125 c 0.83425,1.61831 1.51562,3.17362 1.51562,3.45703 0,0.74986 -3.09664,0.60503 -4.29297,-0.20117 -0.73283,-0.49384 -0.69878,-1.46839 0.11915,-3.44336 l 1.0625,-2.56445 c -1.14333,-0.79432 -2.62566,-1.35295 -5.00782,-2.02344 -3.01145,-0.8476 -7.41413,-1.80876 -9.78515,-2.13476 -2.37103,-0.326 -4.7321,-0.85888 -5.2461,-1.1836 -0.514,-0.32473 -1.3458,-4.94819 -1.84961,-10.27539 -0.93091,-9.84329 -2.24064,-13.13936 -6.17968,-15.55469 -0.32663,-0.20028 -0.65964,-0.30891 -0.99024,-0.33789 z m 29.0586,31.50977 c 0.10099,0.0702 0.19504,0.14651 0.29101,0.2207 l -0.21289,-0.41211 -0.0781,0.19141 z m 11.26367,8.13086 3.40039,3.98633 c 3.11219,3.64933 4.3814,6.79492 2.74023,6.79492 -0.36384,0 -2.3617,-1.58203 -4.43945,-3.51563 l -3.77734,-3.51562 3.73828,4.10156 c 2.53976,2.78657 3.34217,4.24656 2.50586,4.55274 -0.67704,0.24786 -2.35385,1.41905 -3.72657,2.60351 l -2.49609,2.1543 -4.06836,-2.39258 -4.07031,-2.39258 2.32812,4.61133 c 1.28127,2.53636 4.45726,6.60592 7.05664,9.04492 2.59936,2.43901 5.54236,4.43555 6.53907,4.43555 2.1001,0 15.77598,-6.33703 16.61523,-7.69922 0.31085,-0.50453 -0.0554,-1.54133 -0.81445,-2.30273 -1.21702,-1.22082 -1.79984,-1.20944 -4.92774,0.10156 -1.95081,0.81765 -3.60764,1.37591 -3.68164,1.24023 -0.074,-0.13567 -0.63262,-1.40701 -1.24023,-2.82617 -0.60762,-1.41915 -2.38489,-3.36288 -3.95117,-4.31836 -2.48015,-1.51298 -2.66453,-1.8893 -1.42188,-2.92383 2.24341,-1.86768 1.71865,-3.54827 -2.43945,-7.79297 l -3.86914,-3.94726 z"
         id="path4269"
         inkscape:connector-curvature="0" />
      <path
         inkscape:connector-curvature="0"
         style="fill:#ffffff"
         d="m 659.77056,447.72651 c -2.21393,-0.005 -2.65468,3.79342 -2.26953,17.41016 0.47012,16.62109 -0.36621,15.32279 13.28711,20.57226 9.18224,3.53042 9.4582,3.58766 8.77539,1.80274 -0.28153,-0.73597 -4.46963,-2.87658 -9.30468,-4.75586 -4.83505,-1.87929 -9.11094,-3.91409 -9.50391,-4.52149 -0.39298,-0.60741 -0.71484,-6.03145 -0.71484,-12.05469 0,-6.82298 0.29212,-10.18038 0.77539,-8.90624 0.42663,1.12479 0.49616,5.50145 0.15429,9.72656 -0.34183,4.2251 -0.35935,8.51113 -0.0391,9.52344 0.40385,1.27638 3.547,3.02142 10.25586,5.69335 10.70318,4.26274 13.57581,4.18895 15.66211,-0.40429 1.5328,-3.37464 0.5155,-4.0255 -9.51953,-6.08789 -4.78385,-0.98318 -9.01281,-2.1244 -9.39844,-2.53516 -0.38563,-0.41076 -1.10511,-5.10444 -1.59961,-10.43164 -0.92257,-9.93866 -2.70158,-14.31066 -6.09375,-14.98047 -0.16364,-0.0323 -0.3192,-0.0505 -0.4668,-0.0508 z"
         id="path4335" />
      <path
         inkscape:connector-curvature="0"
         style="fill:#ffffff"
         d="m 688.84283,485.72456 c -3.00318,0.085 -3.98946,0.79802 -4.02148,2.46289 -0.008,0.40935 3.00001,0.62024 6.68554,0.46875 8.9019,-0.36592 9.60365,-2.24899 1.05078,-2.82031 -1.48842,-0.0994 -2.71378,-0.13967 -3.71484,-0.11133 z"
         id="path4333" />
      <path
         inkscape:connector-curvature="0"
         style="fill:#ffffff"
         d="m 700.35455,488.18745 c -0.25505,0.0454 -0.48728,0.19425 -0.72461,0.42968 -0.95155,0.94399 -0.46907,1.90588 2.4668,4.92188 2.00695,2.06173 3.98483,3.74805 4.39453,3.74805 1.72269,0 0.52443,-3.07985 -2.4668,-6.3418 -1.93321,-2.10816 -2.90476,-2.89413 -3.66992,-2.75781 z"
         id="path4331" />
      <path
         inkscape:connector-curvature="0"
         style="fill:#ffffff"
         d="m 704.43267,500.35346 c -0.62713,0 -1.25375,0.35512 -2.33593,1.06641 -2.8429,1.86857 -2.93119,3.29403 -0.40039,6.52148 2.32386,2.96354 3.09538,3.04703 5.53906,0.59571 2.53047,-2.53838 2.35196,-5.2645 -0.4668,-7.11719 -1.08218,-0.71129 -1.7088,-1.06641 -2.33594,-1.06641 z"
         id="path4327" />
      <path
         inkscape:connector-curvature="0"
         style="fill:#ffffff"
         d="m 692.15142,500.85346 1.85547,3.64844 c 1.02088,2.00735 3.77421,5.42551 6.11914,7.59375 2.34492,2.16823 5.07046,3.94141 6.05664,3.94141 2.24194,0 16.00586,-6.49146 16.00586,-7.54883 0,-2.01302 -2.43183,-1.73837 -8.07812,0.91211 -3.38216,1.58765 -6.92245,2.88672 -7.86719,2.88672 -0.94475,0 -3.23707,-1.82267 -5.09375,-4.05078 -1.85667,-2.22811 -4.6413,-4.80058 -6.1875,-5.7168 l -2.81055,-1.66602 z"
         id="path4325" />
      <path
         inkscape:connector-curvature="0"
         style="fill:#0000fe"
         d="m 689.24908,478.18354 -1.14062,2.75586 c -0.81792,1.97497 -0.85197,2.94952 -0.11914,3.44336 1.19633,0.8062 4.29296,0.95103 4.29296,0.20117 0,-0.28341 -0.68137,-1.83872 -1.51562,-3.45703 l -1.51758,-2.94336 z"
         id="path4303" />
      <path
         inkscape:connector-curvature="0"
         style="fill:#0000fe"
         d="m 683.16119,486.0937 c -0.53617,0.0414 -1.21455,0.30411 -1.99023,0.79687 -1.0121,0.64292 -0.31462,1.87669 3.16601,5.60938 2.45466,2.63244 4.74072,4.78711 5.08008,4.78711 0.33936,0 2.23966,-1.666 4.22266,-3.70313 l 3.60546,-3.70508 -6.45312,-0.27929 c -5.47649,-0.23806 -6.43438,-0.52956 -6.32422,-1.92188 0.0877,-1.10912 -0.41302,-1.65304 -1.30664,-1.58398 z"
         id="path4301" />
      <path
         inkscape:connector-curvature="0"
         style="fill:#0000fe"
         d="m 698.30377,490.69917 -4.00977,4.09765 -4.00976,4.09961 4.01758,2.37891 4.01757,2.3789 2.55469,-2.15625 c 1.40526,-1.18615 3.0963,-2.36019 3.75781,-2.60937 0.79146,-0.29812 -0.0851,-1.77687 -2.5625,-4.32227 l -3.76562,-3.86718 z"
         id="path4299" />
      <path
         inkscape:connector-curvature="0"
         style="fill:#fe0000"
         d="m 674.993,501.96034 c -3.04933,-1.35859 -5.83247,-4.05979 -6.50551,-6.31399 -0.84101,-2.8168 1.15657,-2.78221 2.22568,0.0385 1.36687,3.60637 3.66924,4.82506 8.97041,4.74819 7.78735,-0.11292 13.93716,-4.8635 20.45676,-15.80235 3.67668,-6.16888 4.39377,-11.48264 1.88871,-13.99553 -1.86165,-1.86747 -3.31066,-1.90468 -2.60767,-0.0669 0.43021,1.12459 -0.32441,1.40625 -3.76764,1.40625 -2.36809,-3e-5 -4.3056,-0.23911 -4.3056,-0.53133 0,-0.29222 1.10132,-1.97972 2.44737,-3.75 2.49343,-3.27927 4.73075,-4.35868 3.75671,-1.81245 -0.35764,0.93494 0.0365,1.40625 1.17585,1.40625 0.94258,0 2.82191,0.87437 4.17627,1.94304 1.94825,1.53728 2.46249,2.74951 2.46249,5.80484 0,8.43107 -14.20431,25.9512 -22.1007,27.25983 -4.55968,0.75566 -5.95304,0.69935 -8.27313,-0.33435 z"
         id="path3858" />
    </g>
    <g
       transform="translate(556.92118,-318.20431)"
       id="g4529">
      <path
         inkscape:connector-curvature="0"
         style="fill:#fefefe"
         d="m 94.82947,573.78973 c -0.29505,-0.7713 1.34168,-4.59932 3.63718,-8.5067 l 4.17364,-7.10432 0.63224,3.96618 c 0.55347,3.47206 0.32506,4.28781 -1.83345,6.54784 -2.45847,2.57412 -2.45994,2.58475 -0.50175,3.63601 3.07704,1.65193 2.31392,2.86337 -1.80373,2.86337 -2.48227,0 -3.95069,-0.47844 -4.30413,-1.40238 z"
         id="path4453" />
      <path
         inkscape:connector-curvature="0"
         style="fill:#fefefe"
         d="m 104.10576,563.70605 c -0.10854,-6.31548 -0.65918,-17.04 -1.22365,-23.83228 -0.73747,-8.87407 -0.74181,-13.40939 -0.0154,-16.11534 1.12565,-4.19343 3.46472,-5.54947 6.63582,-3.84705 1.96578,1.05535 1.98575,1.31676 1.20353,15.75506 -0.43748,8.07506 -0.79542,19.52855 -0.79542,25.45221 l 0,10.77029 2.72663,0.47971 c 1.49965,0.26384 2.90152,1.00705 3.11527,1.65158 0.28364,0.8553 -1.2104,1.17142 -5.53038,1.17019 l -5.91903,-0.002 -0.19735,-11.48269 z"
         id="path4451" />
      <path
         inkscape:connector-curvature="0"
         style="fill:#fefefe"
         d="m 97.29376,551.3088 c -6.08396,-7.37217 -5.92631,-7.0284 -4.70314,-10.25566 0.77634,-2.04829 1.4681,-2.48981 3.5273,-2.25139 3.82863,0.44332 6.95689,6.92203 6.59182,13.65185 l -0.27579,5.08375 -5.14019,-6.22855 z"
         id="path4449" />
      <path
         inkscape:connector-curvature="0"
         style="fill:#fefefe"
         d="m 112.24704,527.77418 c 0,-2.4507 0.007,-2.45287 5.69597,-1.79052 4.49715,0.52359 6.47066,0.31273 9.37679,-1.00185 2.72547,-1.23286 3.95358,-1.3914 4.73171,-0.61083 2.14603,2.15273 -0.96369,3.77514 -8.4082,4.38675 -3.95487,0.32491 -8.13693,0.78861 -9.29347,1.03043 -1.7567,0.3673 -2.1028,0.0358 -2.1028,-2.01398 z"
         id="path4447" />
      <path
         inkscape:connector-curvature="0"
         style="fill:#fefefe"
         d="m 112.24704,522.89681 c 0,-2.16544 2.80876,-4.8922 5.03934,-4.8922 1.266,0 1.55698,0.66747 1.32828,3.04687 -0.25751,2.67912 -0.65947,3.08234 -3.33024,3.34065 -2.46803,0.23871 -3.03738,-0.0416 -3.03738,-1.49532 z"
         id="path4445" />
      <path
         inkscape:connector-curvature="0"
         style="fill:#fefefe"
         d="m 105.22941,497.59963 c -0.51857,-0.37882 -3.71873,-3.85283 -7.11147,-7.72002 -8.42793,-9.60653 -10.15546,-13.125 -6.44419,-13.125 1.21308,0 2.29861,1.06117 3.13181,3.06152 1.3723,3.29464 6.01318,7.78372 11.9022,11.51292 4.05516,2.56791 4.36514,3.34443 2.20149,5.51484 -1.62992,1.63501 -2.29049,1.77068 -3.67984,0.75574 z"
         id="path4437" />
      <path
         inkscape:connector-curvature="0"
         style="fill:#fefefe"
         d="m 106.15818,489.85673 c -1.16663,-1.89353 0.56868,-6.27855 2.90771,-7.34761 1.28398,-0.58686 2.73529,-1.06701 3.22512,-1.06701 1.46708,0 1.00524,6.31358 -0.57802,7.90178 -1.66624,1.67145 -4.67012,1.94879 -5.55481,0.51285 z"
         id="path4433" />
      <path
         inkscape:connector-curvature="0"
         style="fill:#0000fe"
         d="m 90.76548,540.91821 c -0.0169,-2.37461 5.85221,-12.44791 8.60638,-14.77123 1.89433,-1.59799 2.02026,-2.54752 2.0722,-15.62501 0.0305,-7.65799 0.37073,-14.24003 0.75625,-14.62674 0.38551,-0.38672 0.70093,-0.22578 0.70093,0.35765 0,0.58342 0.84112,1.51232 1.86916,2.06423 3.56337,1.91303 7.78506,-2.36166 5.44114,-5.50945 -0.86231,-1.15805 -0.70447,-1.12752 0.66033,0.12775 2.01994,1.85783 2.15986,4.56336 0.94073,18.19089 -0.7549,8.43831 -0.80542,8.57358 -2.85255,7.63793 -4.98344,-2.27769 -8.66387,4.50306 -7.56142,13.93097 0.31173,2.66576 0.30482,5.53163 -0.0153,6.36859 -0.53707,1.40397 -0.71192,1.40395 -2.25875,-3e-4 -2.29456,-2.08303 -5.74502,-1.38927 -7.16742,1.44112 -1.05836,2.106 -1.17924,2.14796 -1.19162,0.4136 z"
         id="path4477" />
      <path
         style="fill:#000000"
         d="m 92.263672,475.8457 c -1.227418,-0.0978 -2.661988,0.38024 -3.015625,1.30469 -0.71007,1.8562 1.003872,4.78154 6.632812,11.32227 l 4.841801,5.625 -0.13672,14.53125 -0.13477,14.53125 -3.501951,4.5957 c -4.219,5.53759 -7.132813,11.07848 -7.132813,13.56445 0,1.61117 1.768265,4.11848 9.984375,14.16602 l 2.039059,2.49414 -4.158199,6.96484 c -2.28673,3.83096 -3.979295,7.70313 -3.761719,8.60547 0.177703,0.73698 -3.819836,1.14383 -24.745728,1.36797 -8.371138,-2.4e-4 -173.267584,0.17715 -173.700154,0.3546 -0.43257,0.17744 163.598727,0.35495 173.08308,0.35495 36.35628,-0.052 59.35456,-0.12126 57.30226,-0.19866 -7.0165,-0.2646 -8.55566,-0.60772 -9.63282,-2.15039 -0.70509,-1.00978 -2.30855,-1.83594 -3.56445,-1.83594 -2.2613,0 -2.28391,-0.0842 -2.22461,-8.67188 0.10294,-14.91561 1.45962,-30.8457 2.69141,-31.60937 0.62584,-0.388 4.78146,-0.98658 9.23632,-1.33008 6.25427,-0.48224 8.52086,-1.04375 9.94336,-2.4707 1.73328,-1.73869 1.74745,-1.9432 0.25391,-3.44141 -1.4926,-1.49754 -1.7855,-1.49766 -4.9082,-0.004 -3.9559,1.89234 -10.82782,2.24351 -9.05274,0.46289 0.61682,-0.61875 1.12305,-2.72813 1.12305,-4.6875 0,-4.00073 -2.55513,-7.3125 -5.64063,-7.3125 -1.76374,0 -1.84802,-0.35624 -1.16796,-4.92188 1.14484,-7.68594 0.85731,-12.69796 -0.82618,-14.38672 -1.39149,-1.39583 -1.37139,-1.65671 0.25782,-3.29101 2.48601,-2.49377 2.38113,-8.66161 -0.19141,-11.24219 -1.48484,-1.48956 -2.79027,-1.86652 -5.375,-1.55664 -1.87721,0.22504 -4.13875,-0.0403 -5.02734,-0.58985 -1.153,-0.71308 -2.423391,-0.69352 -4.435551,0.0684 -1.6491,0.62441 -3.039726,0.7127 -3.347656,0.2129 -0.309195,-0.50186 -0.97058,-0.76749 -1.707031,-0.82618 z m -0.589844,0.90821 c 1.21308,0 2.297659,1.06215 3.13086,3.0625 1.3723,3.29464 6.013322,7.78252 11.902342,11.51171 4.05516,2.56791 4.36678,3.34522 2.20313,5.51563 -2.47467,2.48241 -2.54302,2.43881 -10.792972,-6.96484 -8.427931,-9.60653 -10.15463,-13.125 -6.44336,-13.125 z m 7.652344,1.03711 c 1.410588,-0.078 2.076248,1.49172 2.138668,4.82421 0.0459,2.44841 0.0107,4.45118 -0.0781,4.45118 -0.0888,0 -1.517642,-1.54894 -3.175782,-3.44336 -2.86867,-3.27745 -2.930954,-3.50622 -1.283204,-4.71485 0.961957,-0.70559 1.757261,-1.08173 2.398438,-1.11718 z m 12.964848,3.65039 c 1.46708,0 1.00513,6.31414 -0.57813,7.90234 -1.66624,1.67145 -4.67,1.94962 -5.55469,0.51367 -1.16663,-1.89353 0.56918,-6.27859 2.90821,-7.34765 1.28398,-0.58686 2.73478,-1.06836 3.22461,-1.06836 z m -2.67774,10.42578 c 0.0877,0.01 0.49276,0.3647 1.25781,1.06836 2.01994,1.85782 2.16054,4.56387 0.94141,18.1914 -0.7549,8.43831 -0.80443,8.57237 -2.85156,7.63672 -3.04318,-1.3909 -5.82071,0.4782 -6.91016,4.64844 -0.9867,3.77693 -0.76729,20.34358 0.30274,22.83008 0.35952,0.8349 0.52487,3.71681 0.36718,6.40625 l -0.28711,4.89062 -5.140621,-6.21484 c -6.98413,-8.44395 -7.444378,-10.30626 -4.085938,-16.4961 1.46967,-2.7087 3.902703,-6.23188 5.408203,-7.82812 l 2.738286,-2.90234 0.0723,-13.75 c 0.0402,-7.56251 0.38987,-14.06642 0.77539,-14.45313 0.38551,-0.38672 0.69922,-0.22601 0.69922,0.35742 0,1.51785 3.33354,3.09972 5.09961,2.41993 2.4489,-0.94267 3.62872,-3.97382 2.25977,-5.80469 -0.50417,-0.67431 -0.73417,-1.00987 -0.64649,-1 z m 7.67383,26.13672 c 1.26608,0 1.55682,0.66747 1.32812,3.04687 -0.25751,2.67912 -0.6593,3.08349 -3.33007,3.3418 -2.46803,0.23871 -3.03907,-0.0424 -3.03907,-1.4961 0,-2.16544 2.81044,-4.89257 5.04102,-4.89257 z m -10.50195,1.20117 c 0.81682,-0.0586 1.72582,0.17502 2.71679,0.70703 1.96578,1.05535 1.98535,1.31561 1.20313,15.75391 -0.43748,8.07506 -0.79492,19.52946 -0.79492,25.45312 l 0,10.76953 2.72656,0.48047 c 1.49966,0.26384 2.90149,1.00586 3.11523,1.65039 l 0,0.002 c 0.28363,0.85529 -1.20931,1.17087 -5.52929,1.16993 l -5.91993,-0.002 -0.19726,-11.48437 c -0.10855,-6.31548 -0.65819,-17.03975 -1.22266,-23.83203 -0.73742,-8.87407 -0.74198,-13.40929 -0.0156,-16.11524 0.77389,-2.88298 2.12096,-4.42381 3.91797,-4.55273 z m 24.14648,4.6914 c 0.47359,0.0215 0.82734,0.1819 1.11914,0.47461 2.14603,2.15273 -0.96369,3.77511 -8.4082,4.38672 -3.95487,0.32491 -8.13643,0.78943 -9.29297,1.03125 -1.7567,0.3673 -2.10352,0.0342 -2.10352,-2.01562 0,-2.4507 0.008,-2.45141 5.69727,-1.78906 4.49715,0.52359 6.47082,0.31261 9.37695,-1.00196 1.70342,-0.77054 2.82202,-1.1217 3.61133,-1.08594 z m -34.998046,13.79493 c -2.37632,0 -4.2702,1.67525 -4.1875,3.70312 0.03634,0.89138 0.385817,0.63769 0.904297,-0.65625 1.1182,-2.79063 4.987144,-2.80462 6.927734,-0.0254 0.800165,1.146 1.453125,1.70693 1.453125,1.24609 0,-1.64767 -3.128966,-4.26757 -5.097656,-4.26756 z m 6.707026,20.48632 0.63282,3.9668 c 0.55347,3.47206 0.32452,4.2888 -1.83399,6.54883 -2.458467,2.57412 -2.46014,2.58351 -0.50195,3.63476 1.08014,0.57989 1.96289,1.46151 1.96289,1.95899 0,1.53658 -7.468302,1.07567 -8.070312,-0.49805 -0.29505,-0.7713 1.341219,-4.59849 3.636719,-8.50586 z m 0.93946,9.72071 c 0.24263,0.0318 0.25586,0.51213 0.25586,1.46875 0,2.31444 -1.03658,3.16976 -2.63672,2.17773 -0.84294,-0.52259 -0.64539,-1.16258 0.74609,-2.42578 0.92072,-0.83585 1.39214,-1.25253 1.63477,-1.2207 z"
         id="path3416"
         inkscape:connector-curvature="0"
         sodipodi:nodetypes="cscccccscccscscsssssssccsssssscsscsccssssssccsssccssssscssssccccsccccsccccssssscssscccccccsscccsssssscscscssccscsscccsssc" />
    </g>
    <g
       transform="matrix(0,-0.91101805,-0.91101805,0,760.34248,502.38382)"
       id="g4706">
      <path
         style="fill:#000000"
         d="m 462.33789,309.93555 c -1.34313,0.12316 -3.55856,1.08604 -5.08203,2.42383 -2.02267,1.77613 -2.26555,4.31257 -0.57422,6.0039 0.90183,0.90183 0.81596,1.58953 -0.36914,2.94922 -0.85024,0.9755 -1.97837,3.12152 -2.50781,4.76953 -0.75681,2.35577 -1.69372,3.11875 -4.38086,3.57031 -14.90029,2.50388 -26.70229,18.58177 -19.94531,27.17188 1.62248,2.06266 3.44402,2.73242 10.25,3.76562 4.55228,0.69107 8.86668,1.56948 9.58789,1.95118 0.90535,0.47915 -0.64254,2.41386 -5,6.25 -4.88941,4.30446 -6.71477,6.71282 -8.10743,10.69336 -0.98871,2.82596 -1.52507,5.57925 -1.1914,6.11914 0.8775,1.41981 2.05443,1.21138 3.58984,-0.63868 2.87971,-3.46984 18.57326,-16.16928 20.4336,-16.53515 1.35971,-0.26742 1.96484,-1.20125 1.96484,-3.02735 0,-1.45167 0.3375,-2.979 0.75,-3.39453 2.28088,-2.2977 -1.66482,-7.42187 -5.71484,-7.42187 -3.48228,0 -4.69328,-2.8302 -3.63477,-8.4961 0.48064,-2.57276 1.37428,-5.17896 1.98633,-5.79101 0.61205,-0.61205 1.11328,-1.93792 1.11328,-2.94727 0,-1.50451 0.34785,-1.64944 1.93359,-0.80078 2.94811,1.57779 3.74158,1.32343 8.06446,-2.58203 2.41173,-2.17885 4.00195,-4.51035 4.00195,-5.86523 0,-3.22474 -3.52637,-7.25426 -7.01953,-8.02149 -5.32265,-1.16905 -6.30501,-6.69676 -1.40821,-7.92578 1.3352,-0.33511 2.42774,-1.07966 2.42774,-1.65625 0,-0.33694 -0.24582,-0.51636 -0.65039,-0.56445 -0.15172,-0.018 -0.3257,-0.0176 -0.51758,0 z m -16.14062,35.82617 c 0.14668,0.069 -0.0656,0.65976 -0.5,1.83398 -0.48578,1.31321 -1.40214,2.55984 -2.03711,2.77149 -1.84726,0.61576 -1.33506,-1.30732 0.88281,-3.31446 1.00214,-0.90693 1.50762,-1.36006 1.6543,-1.29101 z"
         id="path4617"
         inkscape:connector-curvature="0" />
      <path
         inkscape:connector-curvature="0"
         style="fill:#fefefe"
         d="m 435.50658,384.97046 c 0,-0.33868 0.7875,-2.85345 1.75,-5.58837 1.33287,-3.78732 3.2544,-6.29552 8.06147,-10.52274 4.19333,-3.68752 5.97701,-5.88462 5.31486,-6.54677 -0.54813,-0.54813 -5.17226,-1.7233 -10.27583,-2.61147 -8.20729,-1.42831 -9.45212,-1.92346 -10.77592,-4.28623 -1.2744,-2.27461 -1.29594,-3.0465 -0.14504,-5.19697 2.3239,-4.34225 3.80826,-4.26615 12.52347,0.64209 2.45638,1.38338 5.96871,5.06579 9.27704,9.72625 l 5.32403,7.5 -3.27704,2.86473 c -1.80237,1.5756 -6.28266,5.5131 -9.95619,8.75 -6.42564,5.66189 -7.82085,6.60194 -7.82085,5.26948 z"
         id="path4662" />
      <path
         inkscape:connector-curvature="0"
         style="fill:#fefefe"
         d="m 454.50658,363.86297 c -1.375,-2.04029 -3.98597,-5.67186 -5.80215,-8.07014 -3.05865,-4.03898 -3.21834,-4.61447 -2.1656,-7.80429 0.64556,-1.95609 0.84371,-5.17697 0.45869,-7.45592 -0.4929,-2.91743 -0.23678,-4.68532 0.93866,-6.47927 4.02494,-6.14284 9.10784,0.5365 5.18848,6.81808 -0.76006,1.21815 -1.65677,4.07345 -1.99268,6.3451 -0.56218,3.80184 -0.21372,4.67487 4.38193,10.97859 2.74597,3.76657 4.99267,7.42044 4.99267,8.11972 0,2.59943 -3.58238,1.13551 -6,-2.45187 z"
         id="path4654" />
      <path
         inkscape:connector-curvature="0"
         style="fill:#fefefe"
         d="m 457.06695,359.07651 c -2.47758,-3.24827 -2.52491,-3.49026 -0.68269,-3.49026 2.27939,0 5.12232,2.50443 5.12232,4.51241 0,2.79399 -1.8546,2.36699 -4.43963,-1.02215 z"
         id="path4650" />
      <path
         inkscape:connector-curvature="0"
         style="fill:#fefefe"
         d="m 456.43537,334.72967 c -2.25549,-1.82638 -2.26466,-1.91585 -0.56387,-5.5 2.13113,-4.49102 4.3083,-4.64142 8.19799,-0.56634 l 2.93709,3.07708 -2.80576,2.42292 c -3.36943,2.90967 -4.74745,3.01017 -7.76545,0.56634 z"
         id="path4634" />
      <path
         inkscape:connector-curvature="0"
         style="fill:#0000fe"
         d="m 428.50658,348.52051 c 0,-4.2281 7.62054,-12.8765 13.72492,-15.57615 6.88483,-3.0448 7.90317,-2.97206 5.26928,0.37639 -1.71666,2.18238 -2.02831,3.55235 -1.54353,6.78508 0.5388,3.59299 0.26717,4.37656 -2.40439,6.93608 -2.76019,2.64443 -3.15946,2.75581 -4.77905,1.3332 -3.16548,-2.78049 -5.98711,-3.06898 -8.21608,-0.84001 -1.12813,1.12813 -2.05115,1.57157 -2.05115,0.98541 z"
         id="path4682" />
    </g>
    <g
       id="g4714"
       transform="matrix(0.91101805,0,0,-0.91101805,86.74415,429.44768)">
      <path
         inkscape:connector-curvature="0"
         id="path4716"
         d="m 462.33789,309.93555 c -1.34313,0.12316 -3.55856,1.08604 -5.08203,2.42383 -2.02267,1.77613 -2.26555,4.31257 -0.57422,6.0039 0.90183,0.90183 0.81596,1.58953 -0.36914,2.94922 -0.85024,0.9755 -1.97837,3.12152 -2.50781,4.76953 -0.75681,2.35577 -1.69372,3.11875 -4.38086,3.57031 -14.90029,2.50388 -26.70229,18.58177 -19.94531,27.17188 1.62248,2.06266 3.44402,2.73242 10.25,3.76562 4.55228,0.69107 8.86668,1.56948 9.58789,1.95118 0.90535,0.47915 -0.64254,2.41386 -5,6.25 -4.88941,4.30446 -6.71477,6.71282 -8.10743,10.69336 -0.98871,2.82596 -1.52507,5.57925 -1.1914,6.11914 0.8775,1.41981 2.05443,1.21138 3.58984,-0.63868 2.87971,-3.46984 18.57326,-16.16928 20.4336,-16.53515 1.35971,-0.26742 1.96484,-1.20125 1.96484,-3.02735 0,-1.45167 0.3375,-2.979 0.75,-3.39453 2.28088,-2.2977 -1.66482,-7.42187 -5.71484,-7.42187 -3.48228,0 -4.69328,-2.8302 -3.63477,-8.4961 0.48064,-2.57276 1.37428,-5.17896 1.98633,-5.79101 0.61205,-0.61205 1.11328,-1.93792 1.11328,-2.94727 0,-1.50451 0.34785,-1.64944 1.93359,-0.80078 2.94811,1.57779 3.74158,1.32343 8.06446,-2.58203 2.41173,-2.17885 4.00195,-4.51035 4.00195,-5.86523 0,-3.22474 -3.52637,-7.25426 -7.01953,-8.02149 -5.32265,-1.16905 -6.30501,-6.69676 -1.40821,-7.92578 1.3352,-0.33511 2.42774,-1.07966 2.42774,-1.65625 0,-0.33694 -0.24582,-0.51636 -0.65039,-0.56445 -0.15172,-0.018 -0.3257,-0.0176 -0.51758,0 z m -16.14062,35.82617 c 0.14668,0.069 -0.0656,0.65976 -0.5,1.83398 -0.48578,1.31321 -1.40214,2.55984 -2.03711,2.77149 -1.84726,0.61576 -1.33506,-1.30732 0.88281,-3.31446 1.00214,-0.90693 1.50762,-1.36006 1.6543,-1.29101 z"
         style="fill:#000000" />
      <path
         id="path4718"
         d="m 435.50658,384.97046 c 0,-0.33868 0.7875,-2.85345 1.75,-5.58837 1.33287,-3.78732 3.2544,-6.29552 8.06147,-10.52274 4.19333,-3.68752 5.97701,-5.88462 5.31486,-6.54677 -0.54813,-0.54813 -5.17226,-1.7233 -10.27583,-2.61147 -8.20729,-1.42831 -9.45212,-1.92346 -10.77592,-4.28623 -1.2744,-2.27461 -1.29594,-3.0465 -0.14504,-5.19697 2.3239,-4.34225 3.80826,-4.26615 12.52347,0.64209 2.45638,1.38338 5.96871,5.06579 9.27704,9.72625 l 5.32403,7.5 -3.27704,2.86473 c -1.80237,1.5756 -6.28266,5.5131 -9.95619,8.75 -6.42564,5.66189 -7.82085,6.60194 -7.82085,5.26948 z"
         style="fill:#fefefe"
         inkscape:connector-curvature="0" />
      <path
         id="path4720"
         d="m 454.50658,363.86297 c -1.375,-2.04029 -3.98597,-5.67186 -5.80215,-8.07014 -3.05865,-4.03898 -3.21834,-4.61447 -2.1656,-7.80429 0.64556,-1.95609 0.84371,-5.17697 0.45869,-7.45592 -0.4929,-2.91743 -0.23678,-4.68532 0.93866,-6.47927 4.02494,-6.14284 9.10784,0.5365 5.18848,6.81808 -0.76006,1.21815 -1.65677,4.07345 -1.99268,6.3451 -0.56218,3.80184 -0.21372,4.67487 4.38193,10.97859 2.74597,3.76657 4.99267,7.42044 4.99267,8.11972 0,2.59943 -3.58238,1.13551 -6,-2.45187 z"
         style="fill:#fefefe"
         inkscape:connector-curvature="0" />
      <path
         id="path4722"
         d="m 457.06695,359.07651 c -2.47758,-3.24827 -2.52491,-3.49026 -0.68269,-3.49026 2.27939,0 5.12232,2.50443 5.12232,4.51241 0,2.79399 -1.8546,2.36699 -4.43963,-1.02215 z"
         style="fill:#fefefe"
         inkscape:connector-curvature="0" />
      <path
         id="path4724"
         d="m 456.43537,334.72967 c -2.25549,-1.82638 -2.26466,-1.91585 -0.56387,-5.5 2.13113,-4.49102 4.3083,-4.64142 8.19799,-0.56634 l 2.93709,3.07708 -2.80576,2.42292 c -3.36943,2.90967 -4.74745,3.01017 -7.76545,0.56634 z"
         style="fill:#fefefe"
         inkscape:connector-curvature="0" />
      <path
         id="path4726"
         d="m 428.50658,348.52051 c 0,-4.2281 7.62054,-12.8765 13.72492,-15.57615 6.88483,-3.0448 7.90317,-2.97206 5.26928,0.37639 -1.71666,2.18238 -2.02831,3.55235 -1.54353,6.78508 0.5388,3.59299 0.26717,4.37656 -2.40439,6.93608 -2.76019,2.64443 -3.15946,2.75581 -4.77905,1.3332 -3.16548,-2.78049 -5.98711,-3.06898 -8.21608,-0.84001 -1.12813,1.12813 -2.05115,1.57157 -2.05115,0.98541 z"
         style="fill:#0000fe"
         inkscape:connector-curvature="0" />
    </g>
  </g>
</svg>
