<?xml version="1.0" encoding="UTF-8" standalone="no"?>
<!-- Created with Inkscape (http://www.inkscape.org/) -->

<svg
   xmlns:dc="http://purl.org/dc/elements/1.1/"
   xmlns:cc="http://creativecommons.org/ns#"
   xmlns:rdf="http://www.w3.org/1999/02/22-rdf-syntax-ns#"
   xmlns:svg="http://www.w3.org/2000/svg"
   xmlns="http://www.w3.org/2000/svg"
   xmlns:sodipodi="http://sodipodi.sourceforge.net/DTD/sodipodi-0.dtd"
   xmlns:inkscape="http://www.inkscape.org/namespaces/inkscape"
   version="1.1"
   width="584"
   height="292"
   id="svg2"
   inkscape:version="0.91 r13725"
   sodipodi:docname="ub840704.svg">
  <sodipodi:namedview
     pagecolor="#d2e5d2"
     bordercolor="#666666"
     borderopacity="1"
     objecttolerance="10"
     gridtolerance="10"
     guidetolerance="10"
     inkscape:pageopacity="0"
     inkscape:pageshadow="2"
     inkscape:window-width="1508"
     inkscape:window-height="880"
     id="namedview11"
     showgrid="false"
     inkscape:zoom="0.52226027"
     inkscape:cx="158.44344"
     inkscape:cy="152.43402"
     inkscape:window-x="0"
     inkscape:window-y="0"
     inkscape:window-maximized="0"
     inkscape:current-layer="svg2" />
  <metadata
     id="metadata8">
    <rdf:RDF>
      <cc:Work
         rdf:about="">
        <dc:format>image/svg+xml</dc:format>
        <dc:type
           rdf:resource="http://purl.org/dc/dcmitype/StillImage" />
        <dc:title></dc:title>
      </cc:Work>
    </rdf:RDF>
  </metadata>
  <defs
     id="defs6" />
  <g
     id="g4906"
     transform="translate(-1.0999034e-6,-1.3971874e-6)">
    <path
       inkscape:connector-curvature="0"
       id="path8949"
       d="m 417.63404,181.94201 c -0.7428,-0.41537 -2.89713,-1.45213 -4.78739,-2.3039 -3.40475,-1.53421 -8.20948,-7.14667 -7.71094,-9.00724 0.14235,-0.53126 1.27041,0.48301 2.5068,2.25395 2.59299,3.71401 8.20536,6.55312 17.4597,8.83229 6.76653,1.66646 12.85485,0.89231 20.73331,-2.63633 3.3403,-1.49607 3.41302,-1.61222 1.35735,-2.1679 -1.19456,-0.32319 -2.06554,-0.98465 -1.93536,-1.4705 0.24864,-0.92793 10.39049,-3.80867 10.81572,-3.07213 0.1353,0.23435 -0.90864,2.75667 -2.31989,5.60515 -2.4966,5.03917 -4.17745,6.3834 -4.00375,3.20192 0.0652,-1.195 -2.01309,-0.87393 -8.7205,1.34717 -8.00292,2.65009 -9.40992,2.79097 -15.42533,1.54441 -3.64054,-0.75442 -7.22692,-1.71151 -7.96964,-2.12718 z"
       style="fill:#fe0000" />
    <path
       inkscape:connector-curvature="0"
       id="path9341"
       d="m 521.98981,175.04769 c 0.16894,-0.004 0.33706,0.002 0.50195,0.0176 0.79146,0.0738 1.50547,0.37332 1.8457,0.92383 0.37423,0.60551 1.48561,0.55542 2.9961,-0.13281 1.35212,-0.61606 3.19127,-0.74331 4.21289,-0.29297 0.99757,0.43974 3.96658,0.68148 6.59765,0.53711 6.39672,-0.35099 7.7168,0.93393 7.7168,7.51367 0,4.4316 -0.36366,5.53652 -2.13477,6.48438 -1.30091,0.69623 -1.716,1.4008 -1.0625,1.80468 3.04293,1.88063 3.58538,8.19067 1.58008,18.37305 -0.50502,2.56434 -0.31341,2.75 2.83789,2.75 4.60752,0 5.7793,1.52083 5.7793,7.5 0,5.66709 -1.16156,7.4516 -4.94922,7.59961 l -2.55078,0.0996 2.5,0.80078 c 4.18694,1.34089 8.75013,1.08636 12.48633,-0.69531 3.34129,-1.59332 3.65487,-1.59348 5.25195,0.004 1.59809,1.59809 1.58116,1.81533 -0.27344,3.66993 -1.52208,1.52208 -3.94462,2.12428 -10.63672,2.63867 -4.7667,0.3664 -9.26638,1.03484 -9.99804,1.48633 -1.4283,0.88135 -2.5329,13.50671 -2.72461,31.14648 l -0.10547,9.7499 2.49219,0 c 1.40852,0 3.03413,0.86935 3.74023,2 0.19305,0.30912 0.38408,0.57006 1.33399,0.79102 0.009,0.0329 0.0218,0.0664 0.0703,0.10351 l 14.59766,1.54102 c -28.87858,-0.0512 -49.22572,-0.11026 -47.53126,-0.17969 6.71389,-0.27511 8.10149,-0.60173 7.64063,-1.80274 -0.30971,-0.80708 1.28785,-4.5835 3.55078,-8.39257 l 4.11524,-6.92578 -5.51563,-7.6875 c -3.03377,-4.22844 -5.79908,-8.81503 -6.14453,-10.19141 -0.76225,-3.03706 1.85041,-8.75154 7.20508,-15.75586 l 3.82226,-5 0.14649,-15.5 0.14453,-15.5 -5.17969,-6 c -6.02297,-6.97678 -7.85547,-10.09819 -7.0957,-12.07812 0.33696,-0.87813 1.55373,-1.37293 2.73633,-1.4004 z m 7.38671,3.08594 c -0.62809,0.0263 -1.34178,0.25568 -2.13085,0.69727 -1.44973,0.81131 -1.22871,1.39525 1.78125,4.67969 l 3.43945,3.7539 -0.0527,-4.1289 c -0.0427,-3.33199 -1.15282,-5.08074 -3.03711,-5.00196 z"
       style="fill:#000000" />
    <path
       style="fill:#fefefe"
       d="m 547.61174,279.77621 c -0.22871,-0.6875 -1.72871,-1.48026 -3.33334,-1.76169 l -2.9175,-0.51169 0,-11.48831 c 0,-6.31857 0.383,-18.53563 0.8511,-27.14902 0.83698,-15.40086 0.81561,-15.6797 -1.28777,-16.8054 -3.39308,-1.81592 -5.89588,-0.36947 -7.10033,4.10352 -0.77721,2.88635 -0.77256,7.72402 0.0165,17.18969 0.60398,7.2451 1.19317,18.68459 1.30931,25.4211 l 0.21116,12.24821 6.33333,0.002 c 4.62238,10e-4 6.221,-0.33589 5.91751,-1.2482 z"
       id="path8537"
       inkscape:connector-curvature="0" />
    <path
       style="fill:#fefefe"
       d="m 533.8609,280.22621 c 0,-0.44 -0.54321,-1.34321 -1.20714,-2.00714 -0.94286,-0.94286 -0.85275,-1.56154 0.41157,-2.82586 1.37383,-1.37383 1.53645,-3.37723 1.07491,-13.24286 -0.53372,-11.40876 -0.60744,-11.70289 -3.97852,-15.87414 -1.88909,-2.3375 -3.74209,-4.24311 -4.11777,-4.23469 -1.54619,0.0347 -2.91292,1.63936 -3.52365,4.13716 -0.52941,2.1652 0.36169,4.06052 4.85071,10.31729 l 5.49925,7.66482 -4.1144,6.92557 c -2.26929,3.81977 -3.85505,7.60146 -3.53607,8.43271 0.60778,1.58387 8.64111,2.24127 8.64111,0.70714 z"
       id="path8535"
       inkscape:connector-curvature="0" />
    <path
       style="fill:#fefefe"
       d="m 554.3609,233.84247 c 9.32922,-0.94778 13.04634,-2.66992 10.74031,-4.97595 -0.89863,-0.89863 -2.11354,-0.75029 -5.18001,0.6325 -3.888,1.75324 -9.73629,1.73996 -14.35551,-0.0326 -1.38096,-0.52992 -1.70479,-0.064 -1.70479,2.4528 0,1.70885 0.3375,3.04637 0.75,2.97229 0.4125,-0.0741 4.8,-0.54615 9.75,-1.04904 z"
       id="path8533"
       inkscape:connector-curvature="0" />
    <path
       style="fill:#fefefe"
       d="m 548.3609,227.1534 c 2.6064,-0.55271 3.04072,-1.12759 3.31037,-4.38168 0.36408,-4.39383 -1.1105,-4.87047 -5.17551,-1.67293 -2.38277,1.87429 -3.83391,7.11657 -1.88486,6.80911 0.4125,-0.0651 2.1,-0.4046 3.75,-0.7545 z"
       id="path8529"
       inkscape:connector-curvature="0" />
    <path
       style="fill:#fefefe"
       d="m 540.28947,197.45478 c 2.31511,-2.31511 1.98343,-3.1434 -2.35559,-5.8825 -6.30126,-3.97781 -11.267,-8.76617 -12.73536,-12.28045 -0.89152,-2.13371 -2.05304,-3.26562 -3.35104,-3.26562 -3.97105,0 -2.1226,3.75304 6.89529,14 8.82744,10.03056 8.8988,10.07647 11.5467,7.42857 z"
       id="path8523"
       inkscape:connector-curvature="0" />
    <path
       style="fill:#fefefe"
       d="m 542.6109,189.80572 c 1.7554,-0.8466 2.25,-1.93084 2.25,-4.93232 0,-2.11596 -0.42883,-3.84719 -0.95295,-3.84719 -2.72754,0 -6.00981,2.55395 -6.57203,5.11374 -1.03199,4.69859 0.6745,5.88449 5.27498,3.66577 z"
       id="path8521"
       inkscape:connector-curvature="0" />
    <path
       style="fill:#0000fe"
       d="m 521.72472,245.31139 c 0.0749,-1.21815 1.07864,-2.7192 2.23053,-3.33567 1.72691,-0.92422 2.50342,-0.73656 4.42597,1.06958 3.64931,3.42834 4.76134,1.76433 3.98527,-5.96345 -1.1976,-11.92518 2.58693,-19.21723 8.36792,-16.12334 2.03058,1.08674 2.12683,0.92223 2.13404,-3.64712 0.004,-2.63185 0.47495,-7.66579 1.04622,-11.18653 0.57126,-3.52075 0.73815,-7.76955 0.37087,-9.44178 l -0.66779,-3.04041 -1.34824,2.57319 c -0.74152,1.41526 -2.06941,2.84995 -2.95086,3.18819 -1.89163,0.72589 -5.45775,-0.95969 -5.45775,-2.57969 0,-0.62232 -0.3375,-0.79399 -0.75,-0.38149 -0.4125,0.41249 -0.7852,7.34999 -0.82823,15.41666 l -0.0782,14.66668 -2.92889,3.09575 c -4.1764,4.41434 -8.63121,13.00946 -8.119,15.66482 l 0.43199,2.23943 0.13618,-2.21482 z"
       id="path8651"
       inkscape:connector-curvature="0" />
    <path
       id="path9314"
       d="m 128.03151,10.409018 c -0.8447,0.10546 -1.94577,2.11639 -3.41602,5.91211 -2.10737,5.44055 -2.25912,7.49324 -2.48633,33.56055 -0.13311,15.2707 0.0884,28.29786 0.49219,28.95117 0.40377,0.65331 0.19942,5.59438 -0.45313,10.97852 -1.05919,8.73929 -1.43932,9.90898 -3.55664,10.908202 -1.30445,0.61562 -3.17637,0.90765 -4.16015,0.65039 -1.99523,-0.52177 -4.61666,1.98205 -5.66015,5.40625 -0.9184,3.01368 0.81854,2.86172 2.85741,-0.25 2.31866,-3.53871 3.56337,-3.09813 2.89453,1.02344 -0.77823,4.79567 1.67853,7.47656 6.85157,7.47656 l 3.8457,0 0,6.99219 0,6.99414 -8.5,-4.2168 c -4.675,-2.31856 -8.5,-4.7207 -8.5,-5.33789 0,-1.85522 -3.72246,-4.63355 -5.67578,-4.23633 -1.16399,0.2367 -2.45406,-0.63879 -3.564452,-2.41992 -1.020317,-1.63666 -4.016288,-3.79797 -7.242188,-5.22461 -3.026379,-1.33841 -8.093356,-4.093 -11.259766,-6.12109 -10.13913,-6.494122 -20.683487,-13.675852 -23.25,-15.833992 -2.425936,-2.03996 -2.446407,-2.0404 -0.773437,-0.043 1.517632,1.81195 13.313305,10.13016 21.025391,14.826182 2.697589,1.64261 2.725628,1.75045 1.183593,4.73242 -1.161652,2.24638 -2.023105,2.86261 -3.261718,2.33984 -0.925324,-0.39054 -2.478065,-0.79371 -3.451172,-0.89648 -0.973107,-0.10277 -3.448107,-1.76649 -5.5,-3.69727 -2.051893,-1.93074 -6.430469,-5.661162 -9.730469,-8.290982 l -6,-4.78125 5.449219,4.85742 c 2.997374,2.67183 8.330979,7.444922 11.851562,10.607422 3.520584,3.1625 6.987573,5.75 7.705078,5.75 0.717505,0 3.183497,1.5689 5.478516,3.48633 2.295019,1.91744 6.385337,4.72994 9.091797,6.25 2.863162,1.60808 4.921284,3.47119 4.921875,4.45508 5.59e-4,0.93004 0.474074,1.98147 1.050781,2.33789 1.332742,0.82368 -0.705111,3.4707 -2.671875,3.4707 -1.897659,0 -1.784646,5.41683 0.146485,7.01953 0.83829,0.69572 1.850791,0.915 2.25,0.48633 0.399208,-0.42868 0.164062,-0.98102 -0.523438,-1.22656 -1.924212,-0.68722 -1.481455,-4.08544 0.683594,-5.24414 1.063842,-0.56935 3.201342,-1.03707 4.750004,-1.03907 1.54866,-0.002 4.26448,-0.88716 6.03515,-1.96679 l 3.2207,-1.96289 6.7793,2.55273 c 6.8832,2.59063 9.28125,3.98969 9.28125,5.41797 0,0.43584 -4.66404,3.76594 -10.36523,7.40039 -5.7012,3.63446 -11.21304,7.54383 -12.24805,8.6875 -3.12942,3.45798 -7.106192,5.09681 -9.396484,3.87109 -3.779662,-2.02282 -2.186611,-5.31028 3.554688,-7.33593 4.530526,-1.59846 28.402866,-13.62144 27.091796,-13.64454 -0.4751,-0.008 -6.88308,2.98905 -14.23828,6.66211 -11.485082,5.73546 -14.185316,6.69914 -19.134766,6.82813 -3.233098,0.0843 -7.214944,0.90923 -9.06836,1.87695 -6.845916,3.57444 -11.36589,3.22031 -29.117187,-2.28125 -9.032196,-2.79929 -16.60699,-4.90668 -16.832031,-4.68164 -0.225042,0.22504 3.564637,1.59685 8.421875,3.04883 11.381018,3.40213 11.277813,3.36043 8.263672,3.45313 -1.412196,0.0434 -5.851037,-0.78401 -9.865235,-1.8379 -4.014197,-1.05393 -6.908033,-1.57123 -6.43164,-1.14843 1.306459,1.15952 8.64576,2.93595 20.675781,5.0039 6.743086,1.15913 11.539701,2.51994 12.75,3.61524 2.381681,2.15539 2.397559,2.65798 0.181641,5.39453 -2.03107,2.50826 -2.133927,2.49136 -21.19336,-3.36328 -6.298019,-1.93462 -11.628536,-3.34021 -11.845703,-3.12305 -0.217166,0.21717 2.910986,1.34371 6.951172,2.50391 4.040186,1.16019 9.820703,2.95386 12.845703,3.98437 3.025,1.0305 6.880388,2.15531 8.566406,2.5 2.824322,0.5774 26.533703,-3.24536 30.683594,-4.94726 1.075025,-0.44088 1.75,-0.26925 1.75,0.44531 0,0.63977 1.912498,2.01398 4.249998,3.05469 2.3375,1.04071 4.81566,2.81695 5.50782,3.94531 1.46853,2.39402 4.06071,2.63496 6.79882,0.63281 2.53568,-1.85414 1.26055,-3.10853 -1.44336,-1.41992 -1.75677,1.09712 -2.33386,1.04505 -3.70508,-0.32617 -1.49928,-1.49929 -1.44593,-1.86726 0.70703,-4.7793 2.24603,-3.03793 2.27573,-3.31284 0.79883,-7.41992 l -1.5332,-4.26563 8.19531,-5.18554 c 4.50719,-2.85186 8.47057,-5.18555 8.8086,-5.18555 0.33802,0 0.61523,21.375 0.61523,47.5 0,41.55556 0.18772,47.5 1.5,47.5 1.30952,0 1.51937,-5.87325 1.65234,-46.25 0.16549,-50.25057 0.13114,-48.36551 0.91797,-49.15234 0.29917,-0.29918 3.79674,5.02743 7.77344,11.83789 3.97669,6.81046 8.33875,13.10851 9.69336,13.99609 1.35462,0.88758 2.46289,2.26367 2.46289,3.05664 0,1.76095 -3.36187,3.69848 -5.17773,2.98438 -1.26143,-0.49607 -8.73487,-15.1659 -12.36133,-24.26368 -0.94084,-2.36032 -1.90602,-4.09593 -2.14453,-3.85742 -0.23852,0.23852 0.99111,3.51922 2.73242,7.29102 1.9998,4.3317 3.12599,8.30212 3.05859,10.7793 -0.10937,4.01962 2.01804,7.57812 4.5293,7.57812 0.72927,0 1.5956,1.2375 1.92578,2.75 1.30081,5.95872 3.14652,9.05842 9.9707,16.75 3.9038,4.4 11.00452,13.58048 15.78125,20.40039 4.77673,6.81991 8.68555,12.05313 8.68555,11.63086 0,-0.42228 -4.23672,-6.76116 -9.41406,-14.08789 -10.82611,-15.32063 -11.545,-16.85977 -8.61524,-18.42774 3.99114,-2.13599 7.49165,1.37812 15.16016,15.22071 3.89183,7.02522 7.46422,13.01218 7.9375,13.30469 1.33972,0.82799 -16.04081,-29.68012 -18.76563,-32.93946 -1.33297,-1.59446 -3.70495,-5.41946 -5.26953,-8.5 -1.56457,-3.08055 -4.22801,-6.91572 -5.91992,-8.52148 -2.36067,-2.24047 -2.81961,-3.22908 -1.9707,-4.25196 0.60845,-0.73309 0.83928,-2.67273 0.51172,-4.31054 -0.4619,-2.30952 -0.15937,-3.21287 1.35156,-4.02149 2.05946,-1.10219 4.4891,-4.83511 3.67578,-5.64843 -0.26456,-0.26456 -2.08027,1.11737 -4.0332,3.07031 -1.95294,1.95294 -3.82369,3.10767 -4.15821,2.56641 -0.33452,-0.54127 -2.26878,-0.99728 -4.29882,-1.01368 -3.4972,-0.0282 -3.88985,-0.3791 -7.47461,-6.6914 -2.08086,-3.66413 -3.56613,-7.22842 -3.30078,-7.91992 0.29923,-0.77986 -0.0727,-1.04486 -0.97852,-0.69727 -1.02877,0.39477 -1.27738,0.0843 -0.8418,-1.05078 0.34008,-0.88624 1.13306,-1.62623 1.76172,-1.64453 0.62865,-0.0183 0.10061,-0.90258 -1.17383,-1.96485 -2.19888,-1.83282 -2.29451,-2.43101 -1.86328,-11.71679 0.50609,-10.89767 1.37721,-16.09076 3.05469,-18.19727 1.58468,-1.989972 1.23036,-22.480552 -0.79883,-46.087892 -0.92187,-10.725 -1.99219,-24.9 -2.37695,-31.5 -0.48714,-8.356 -1.17366,-12.27131 -2.4082,-12.11719 z"
       style="fill:#000000"
       inkscape:connector-curvature="0" />
    <path
       id="path9306"
       d="m 38.572523,71.576988 c -0.214262,0.0214 -0.38435,0.10115 -0.519531,0.23633 -1.81619,1.81619 1.063534,7.21495 6.640625,12.44531 2.77542,2.60287 5.271875,4.73147 5.546875,4.73047 0.275,-0.001 -1.767963,-2.1494 -4.541016,-4.77344 -4.811623,-4.55307 -8.418965,-10.56345 -7.11914,-11.86328 0.335064,-0.33506 2.680446,1.14301 5.210937,3.28321 2.530491,2.14019 6.029415,4.96112 7.775391,6.26953 l 3.173828,2.3789 -3.154297,-2.8789 C 43.6689,74.177838 40.072361,71.427208 38.572523,71.576988 Z"
       style="fill:#000000"
       inkscape:connector-curvature="0" />
    <path
       id="path9298"
       d="m 22.031508,137.43832 c -0.402248,-0.007 -0.696202,0.0287 -0.845704,0.12109 -0.594726,0.36756 -0.856469,1.25358 -0.582031,1.96875 0.275519,0.718 -0.365511,1.52785 -1.43164,1.80664 -1.061942,0.27771 -1.931641,0.91821 -1.931641,1.42383 0,1.8369 4.738355,5.30114 10.552734,7.71485 5.50066,2.28348 8.374192,3.12289 7.363282,2.15234 -0.229167,-0.22002 -3.30476,-1.56853 -6.835938,-2.99805 -6.303032,-2.55163 -10.080078,-5.08295 -10.080078,-6.75586 0,-1.31926 2.959017,-0.99548 9.751953,1.07032 3.439097,1.04584 6.028807,1.53855 5.753906,1.09375 -0.2749,-0.4448 -2.728669,-1.34446 -5.453125,-1.99805 -4.779607,-1.14661 -8.003091,-3.39339 -6.714843,-4.68164 0.342258,-0.34226 3.303791,0.2572 6.582031,1.33203 3.27824,1.0748 5.738865,1.59525 5.46875,1.1582 -0.681874,-1.10329 -8.781923,-3.35688 -11.597656,-3.4082 z"
       style="fill:#000000"
       inkscape:connector-curvature="0" />
    <path
       inkscape:connector-curvature="0"
       id="path9337"
       d="m 49.058851,193.02621 c -2.297437,0 -2.294892,0.0424 0.615235,13 0.926424,4.125 4.577099,21.675 8.111328,39 3.534229,17.325 6.662309,32.50268 6.953125,33.72852 l 0.529297,2.22851 -19.763672,0.29492 c -10.870054,0.16147 105.561326,0.30321 258.736326,0.31641 93.31839,0.008 170.77028,-0.0455 219.2832,-0.12695 l -10.3125,-0.38868 c -26.38643,0 -76.18303,-0.0527 -177.21093,-0.0527 l -205.75977,0 0,-23.48828 0,-23.48633 -35.699217,-0.26367 -35.699219,-0.26172 -3.732421,-17.45508 c -2.052886,-9.60038 -3.509524,-17.81771 -3.236329,-18.25976 1.021108,-1.65218 -0.82214,-4.78516 -2.814453,-4.78516 z m 9.964844,43 34.107422,0 34.109373,0 0,22.5 0,22.5 -29.499998,0 c -16.225,0 -29.5,-0.14394 -29.5,-0.32031 0,-0.6393 -7.849151,-39.25229 -8.523438,-41.92969 l -0.693359,-2.75 z"
       style="fill:#000000" />
    <path
       id="path9179"
       d="m 184.81276,215.16098 c -0.0211,-0.005 -0.0403,-7.8e-4 -0.0566,0.0156 -0.20136,0.20137 0.5379,3.66276 1.64258,7.69141 1.10469,4.02864 1.77636,7.55762 1.49219,7.84179 -1.00909,1.00909 -2.72082,-0.88998 -5.18555,-5.7539 -1.37381,-2.71108 -2.72504,-4.92969 -3.00195,-4.92969 -0.74368,0 3.51654,8.21139 5.33008,10.27344 2.10645,2.3951 3.74951,1.60238 3.50976,-1.69336 -0.22651,-3.11367 -3.07547,-13.28938 -3.73046,-13.44531 z"
       style="fill:#000000"
       inkscape:connector-curvature="0" />
    <path
       style="fill:#fefefe"
       d="m 185.48395,229.77621 c -0.55079,-0.6875 -1.98688,-3.20532 -3.19131,-5.59516 -2.08911,-4.14519 -2.10957,-4.43391 -0.44465,-6.27363 0.95988,-1.06066 2.081,-1.58033 2.49138,-1.15484 0.65349,0.67757 3.90112,12.05596 3.90112,13.66797 0,1.0555 -1.7161,0.65436 -2.75654,-0.64434 z"
       id="path8531"
       inkscape:connector-curvature="0" />
    <path
       style="fill:#fefefe"
       d="m 169.06321,203.87881 c -11.13738,-15.904 -11.77686,-17.27159 -8.81684,-18.85575 3.92375,-2.09993 7.46163,1.53308 15.54714,15.96518 4.09584,7.31079 7.44698,13.40836 7.44698,13.55015 0,0.14179 -1.0125,0.91067 -2.25,1.70861 -2.19253,1.41376 -2.49717,1.09786 -11.92728,-12.36819 z"
       id="path8525"
       inkscape:connector-curvature="0" />
    <path
       style="fill:#fefefe"
       d="m 145.74049,168.26014 c -2.3038,-1.69431 -15.78305,-30.94096 -14.59775,-31.67352 0.40711,-0.2516 3.98732,5.10355 7.95604,11.90034 3.96871,6.79679 8.32416,13.084 9.67877,13.97158 2.95747,1.93781 3.1661,4.12098 0.52868,5.53249 -2.27588,1.21801 -2.27553,1.21798 -3.56574,0.26911 z"
       id="path8513"
       inkscape:connector-curvature="0" />
    <path
       style="fill:#fefefe"
       d="m 139.44049,163.82621 c -0.66,-0.66 -1.19832,-2.3475 -1.19626,-3.75 0.004,-2.49243 0.0488,-2.47607 2,0.72417 1.09794,1.80079 1.99626,3.48829 1.99626,3.75 0,0.89188 -1.59698,0.47885 -2.8,-0.72417 z"
       id="path8511"
       inkscape:connector-curvature="0" />
    <path
       style="fill:#fefefe"
       d="m 63.740492,160.98372 c -6.861241,-1.91605 -25.735831,-7.86001 -26.092986,-8.21716 -0.212399,-0.2124 -0.664376,-1.77716 -1.004392,-3.47724 l -0.61821,-3.09105 7.357794,1.94523 c 4.046787,1.06988 9.672316,2.04367 12.501176,2.16397 2.828859,0.12031 4.939802,0.55624 4.690983,0.96874 -0.24882,0.4125 1.124065,0.75 3.050854,0.75 2.244,0 4.493802,0.85203 6.258967,2.37037 2.696148,2.31912 2.71847,2.4272 1.032711,5 -1.824372,2.78434 -2.418947,2.91583 -7.176897,1.58714 z"
       id="path8509"
       inkscape:connector-curvature="0" />
    <path
       style="fill:#fefefe"
       d="m 93.809071,154.70001 c -2.763103,-2.02043 -1.185063,-5.31935 3.229199,-6.7507 2.036222,-0.66026 7.30222,-3.04807 11.70222,-5.30625 20.35098,-10.4446 23.35557,-10.51998 7.1342,-0.17901 -5.7012,3.63446 -11.21263,7.54384 -12.24764,8.68751 -1.5955,1.76301 -6.476031,4.87465 -7.645768,4.87465 -0.197192,0 -1.174687,-0.59679 -2.172211,-1.3262 z"
       id="path8503"
       inkscape:connector-curvature="0" />
    <path
       style="fill:#fefefe"
       d="m 103.78998,153.10628 c -0.3127,-0.50595 0.64499,-1.87448 2.12819,-3.04117 2.39994,-1.88779 2.79488,-1.94587 3.58852,-0.52772 1.64264,2.93524 -3.95036,6.4269 -5.71671,3.56889 z"
       id="path8501"
       inkscape:connector-curvature="0" />
    <path
       style="fill:#fefefe"
       d="m 27.740492,149.45312 c -6.222518,-2.58085 -10.423677,-5.83657 -9.16092,-7.09932 0.753953,-0.75396 13.684036,2.30597 14.781812,3.49813 1.027725,1.11609 1.975421,6.17748 1.14816,6.13201 -0.422979,-0.0232 -3.469052,-1.16212 -6.769052,-2.53082 z"
       id="path8497"
       inkscape:connector-curvature="0" />
    <path
       style="fill:#fefefe"
       d="m 53.740492,149.37772 c -14.896815,-3.1025 -18.767095,-4.41771 -17.304374,-5.88043 0.32845,-0.32845 18.018415,4.62308 21.304374,5.96323 1.272906,0.51914 -1.372693,0.46437 -4,-0.0828 z"
       id="path8495"
       inkscape:connector-curvature="0" />
    <path
       style="fill:#fefefe"
       d="m 28.521486,143.11443 c -5.24811,-1.59708 -8.169562,-3.53299 -7.038479,-4.66407 1.037505,-1.0375 11.818675,2.57173 12.428415,4.16069 0.845924,2.20444 0.351587,2.25061 -5.389936,0.50338 z"
       id="path8489"
       inkscape:connector-curvature="0" />
    <path
       style="fill:#fefefe"
       d="m 109.98159,126.06348 c -11.471412,-4.28642 -14.741098,-5.90653 -14.741098,-7.30411 0,-2.60026 2.907369,-3.31923 5.906828,-1.46071 1.42624,0.88373 7.65567,4.2589 13.84317,7.50037 l 11.25,5.89359 -0.008,-7.0832 c -0.004,-3.89577 -0.46538,-9.90434 -1.02493,-13.35238 -1.1919,-7.34465 -0.127,-10.536532 3.35014,-10.04151 1.88959,0.269 2.14138,0.84727 1.87703,4.31068 -1.35713,17.78036 -1.29245,24.52526 0.24084,25.11363 2.71464,1.04171 1.70352,1.93182 -2.19443,1.93182 -2.10611,0 -10.24059,-2.42195 -18.5,-5.50818 z"
       id="path8479"
       inkscape:connector-curvature="0" />
    <path
       style="fill:#fefefe"
       d="m 104.13216,118.08448 c -1.8499,-1.54056 -2.02299,-1.99927 -0.76411,-2.025 1.71303,-0.035 4.51417,2.65833 3.65661,3.5159 -0.27546,0.27546 -1.57709,-0.39544 -2.8925,-1.4909 z"
       id="path8471"
       inkscape:connector-curvature="0" />
    <path
       style="fill:#fefefe"
       d="m 120.27229,111.27621 c 0.0175,-1.5125 0.63928,-3.55073 1.38174,-4.52939 1.21285,-1.5987 1.41271,-1.61578 1.96819,-0.16821 0.34005,0.88615 0.61827,2.92437 0.61827,4.52939 0,2.25154 -0.4569,2.91821 -2,2.91821 -1.52286,0 -1.99241,-0.65607 -1.9682,-2.75 z"
       id="path8465"
       inkscape:connector-curvature="0" />
    <path
       style="fill:#fefefe"
       d="m 74.90667,107.35906 c -0.366935,-0.36694 -1.499712,-0.7285 -2.517282,-0.80346 -1.01757,-0.075 -4.729851,-2.6521 -8.249512,-5.72696 -3.519661,-3.074862 -7.726861,-6.704972 -9.349334,-8.066912 -2.92825,-2.45804 -2.93682,-2.49629 -1.165033,-5.20038 1.778244,-2.71394 1.793009,-2.71687 3.94995,-0.78343 2.107174,1.88882 14.377282,10.28859 19.92531,13.640312 2.677821,1.61774 2.714394,1.75628 1.22432,4.63777 -1.529438,2.9576 -2.548955,3.57252 -3.818419,2.30306 z"
       id="path8461"
       inkscape:connector-curvature="0" />
    <path
       style="fill:#fefefe"
       d="m 45.206428,83.737688 c -6.521783,-6.11985 -9.716319,-14.8096 -3.703963,-10.07548 1.302014,1.0252 4.500647,3.74268 7.108072,6.03884 4.31158,3.79689 4.623447,4.36272 3.444817,6.25 -0.712775,1.14134 -1.52521,2.06754 -1.805409,2.05822 -0.280199,-0.009 -2.549782,-1.93153 -5.043517,-4.27158 z"
       id="path8455"
       inkscape:connector-curvature="0" />
    <path
       style="fill:#fefefe"
       d="m 124.66519,72.880598 c -1.38085,-2.67027 -1.60479,-6.7125 -1.48198,-26.75 0.13009,-21.22482 0.3554,-24.18405 2.23497,-29.35439 1.14966,-3.1625 2.48,-5.75 2.9563,-5.75 0.47631,0 0.86601,2.59198 0.86601,5.75995 0,5.75861 2.46096,39.1365 3.60747,48.92803 0.54528,4.65677 0.34515,5.45031 -1.95454,7.75 -3.31752,3.31752 -4.25638,3.22955 -6.22823,-0.58359 z"
       id="path8453"
       inkscape:connector-curvature="0" />
    <path
       inkscape:connector-curvature="0"
       id="path8951"
       d="M 112.58206,232.54674 C 92.233458,228.85429 74.397601,219.29311 60.431947,204.59091 51.839727,195.54554 48.08325,190.10146 43.107411,179.4833 c -6.595763,-14.075 -8.19265,-21.66839 -8.19265,-38.95709 0,-17.2887 1.596887,-24.88209 8.19265,-38.95709 4.975839,-10.618162 8.732316,-16.062242 17.324536,-25.107612 7.242796,-7.62478 21.809803,-18.47661 21.806757,-16.24515 -9.84e-4,0.72042 -2.138484,2.65368 -4.75,4.29614 -7.203573,4.53053 -20.442338,17.70921 -25.776211,25.65921 -5.417643,8.07486 -10.333541,19.138262 -13.04335,29.354502 -2.603567,9.8157 -2.603567,32.1843 0,42 7.314854,27.57771 25.20981,49.2915 50.642973,61.45034 14.070464,6.72666 21.953734,8.38146 39.928374,8.38146 18.30867,0 25.90411,-1.65098 41,-8.91192 8.24275,-3.96467 10.6884,-5.78367 18.47975,-13.74464 7.80421,-7.97411 8.68785,-9.21707 6.75,-9.49479 -1.22636,-0.17575 -2.22975,-0.65491 -2.22975,-1.06479 0,-0.94284 6.57891,-4.11566 8.53393,-4.11566 1.84374,0 1.83222,0.56912 -0.12793,6.32186 -1.57967,4.63606 -3.406,6.23984 -3.406,2.99096 0,-1.04478 -3.71242,1.95194 -9.75,7.87032 -5.53824,5.42891 -11.90988,10.63991 -14.75,12.0632 -18.7184,9.38046 -41.51891,12.83798 -61.15843,9.27419 z"
       style="fill:#fe0000" />
    <path
       inkscape:connector-curvature="0"
       id="path2993"
       d="m 210.32671,30.634675 c -2.59298,-3.714017 -8.20535,-6.553126 -17.4597,-8.832296 -6.76652,-1.666462 -12.85485,-0.892305 -20.7333,2.636333 -3.34031,1.496076 -3.41303,1.612222 -1.35735,2.167903 1.19455,0.323188 2.06553,0.984652 1.93535,1.470494 -0.25398,0.947843 -10.3951,3.800665 -10.83039,3.046711 -0.14336,-0.248338 0.81834,-2.559747 2.13716,-5.13647 2.23798,-4.372542 3.92268,-5.685651 4.07338,-3.174904 0.0356,0.593135 4.1506,-0.275312 9.14442,-1.929892 9.04333,-2.996281 9.11062,-3.000059 16.80854,-0.943186 4.25085,1.135905 9.25565,2.835887 11.12173,3.777912 3.41957,1.726248 8.14671,7.380932 7.66697,9.171345 -0.14235,0.531259 -1.27042,-0.483016 -2.50681,-2.25395 z"
       style="fill:#fe0000" />
    <path
       style="fill:#0000fe"
       d="m 153.08133,183.76684 c -4.87361,-5.64508 -7.84084,-10.65931 -7.84084,-13.24999 0,-0.88477 0.46979,-1.31833 1.04398,-0.96346 1.46491,0.90536 5.95602,-2.24102 5.95602,-4.17268 0,-2.73393 2.84706,0.40173 5.97954,6.58567 1.54898,3.05791 4.21226,7.30921 5.9184,9.44733 3.75415,4.7047 3.84153,5.14313 0.60206,3.02054 -2.32121,-1.52091 -2.6844,-1.51723 -5.07842,0.0514 -1.51473,0.99249 -2.35275,2.27754 -2.03139,3.11501 0.86503,2.25424 0.28385,1.76446 -4.54935,-3.83381 z"
       id="path8647"
       inkscape:connector-curvature="0" />
    <path
       style="fill:#0000fe"
       d="m 71.747847,159.65533 c 1.639407,-2.50205 1.64556,-2.80267 0.09249,-4.51879 -1.584853,-1.75124 -1.472473,-1.86408 2.369814,-2.37944 2.218461,-0.29755 6.464415,-1.54854 9.435454,-2.77997 5.923863,-2.4553 9.095444,-2.10341 8.141159,0.90328 -0.809103,2.54926 0.331641,5.1458 2.260713,5.1458 4.390869,0 -1.44956,1.87222 -10.771535,3.45295 -5.755501,0.97596 -11.099001,2.01794 -11.874445,2.31551 -1.053958,0.40444 -0.966521,-0.13565 0.346346,-2.13934 z"
       id="path8643"
       inkscape:connector-curvature="0" />
    <path
       style="fill:#0000fe"
       d="m 87.613146,118.11968 c -3.37004,-2.13815 -6.442964,-4.39822 -6.82872,-5.02238 -0.385755,-0.62417 -2.708257,-2.0782 -5.161115,-3.23118 -2.452858,-1.15297 -4.255974,-2.30009 -4.006926,-2.54914 0.249048,-0.24904 1.473704,0.0936 2.721457,0.76133 1.954641,1.04609 2.509217,0.91704 4.006773,-0.93236 0.955971,-1.18057 1.887342,-2.59413 2.069711,-3.14124 0.41294,-1.23882 15.874267,6.41266 17.558298,8.68922 1.032744,1.39612 0.870919,1.84841 -1,2.79494 -1.501365,0.75957 -2.219226,2.01454 -2.192711,3.83331 0.02168,1.48722 -0.203319,2.69975 -0.5,2.69453 -0.296682,-0.005 -3.296727,-1.75889 -6.666767,-3.89703 z"
       id="path8637"
       inkscape:connector-curvature="0" />
    <path
       style="fill:#0000fe"
       d="m 122.6967,100.70778 c -0.35973,-1.433302 -0.14817,-6.407502 0.47013,-11.053772 0.77321,-5.8103 0.81172,-9.80275 0.12337,-12.78778 -1.43945,-6.24214 -1.28744,-6.74219 0.93933,-3.09002 2.31906,3.80354 2.89273,3.91744 6.28618,1.24815 l 2.54493,-2.00184 0.71487,8.58192 c 0.99421,11.93527 -0.66755,22.252422 -2.98117,18.508902 -1.11304,-1.800942 -4.34275,-1.226612 -5.94201,1.05665 l -1.50156,2.14379 -0.65407,-2.606 z"
       id="path2991"
       inkscape:connector-curvature="0" />
    <path
       inkscape:connector-curvature="0"
       id="path9600"
       d="m 160.78133,43.528628 c -1.63686,0 -3.27267,1.78455 -3.39258,5.35352 -0.0674,2.00677 0.29857,4.17772 0.81445,4.82226 0.51588,0.64453 1.67597,1.17188 2.57813,1.17188 2.44603,0 3.53152,-1.91686 3.39453,-5.99414 -0.11991,-3.56897 -1.75768,-5.35352 -3.39453,-5.35352 z m -7.16992,0.0977 c -1.00338,0 -4.04493,3.01518 -4.04493,4.00976 0,0.49885 0.63132,0.38214 1.40235,-0.25976 1.21172,-1.00878 1.40234,-0.57973 1.40234,3.16601 0,2.38345 0.41957,4.33399 0.9336,4.33399 0.5192,0 0.93554,-2.5 0.93554,-5.625 0,-3.09375 -0.28386,-5.625 -0.6289,-5.625 z m 15.78125,0.0234 c -0.57953,-0.0283 -1.20142,0.14624 -1.83594,0.54493 -1.96736,1.23617 -2.7039,7.41728 -1.11328,9.33984 0.61012,0.73745 1.84784,1.3418 2.75,1.3418 2.536,0 3.8873,-2.33903 3.56445,-6.16797 -0.25913,-3.07318 -1.62666,-4.97373 -3.36523,-5.0586 z m 7.63671,0.11719 c -1.6534,-0.0397 -2.66237,2.0627 -1.86523,4.14649 0.89134,2.33006 3.8418,1.19785 3.8418,-1.47461 0,-1.46385 -0.6041,-2.4349 -1.63867,-2.63477 -0.11564,-0.0223 -0.22767,-0.0345 -0.3379,-0.0371 z m 0.0762,1.22852 c 0.0563,0.0211 0.11877,0.11035 0.18359,0.27148 0.25926,0.64453 0.25926,1.69921 0,2.34375 -0.25926,0.64453 -0.47266,0.11719 -0.47266,-1.17187 0,-0.9668 0.12003,-1.50654 0.28907,-1.44336 z m -16.32422,0.50586 c 1.03842,0 1.86914,0.625 1.86914,1.40625 0,0.78125 -0.83072,1.40625 -1.86914,1.40625 -1.03842,0 -1.86914,-0.625 -1.86914,-1.40625 0,-0.78125 0.83072,-1.40625 1.86914,-1.40625 z m 8.41211,0.46875 c 0.97257,0 1.40039,0.98089 1.40039,3.20312 0,3.3241 -1.92902,5.04443 -2.87696,2.56641 -0.89693,-2.34465 -0.0197,-5.76953 1.47657,-5.76953 z m -8.41211,4.21875 c 1.03842,0 1.86914,0.625 1.86914,1.40625 0,0.78125 -0.83072,1.40625 -1.86914,1.40625 -1.03842,0 -1.86914,-0.625 -1.86914,-1.40625 0,-0.78125 0.83072,-1.40625 1.86914,-1.40625 z"
       style="fill:#000000" />
    <g
       transform="matrix(0.8660254,-0.5,0.5,0.8660254,-129.60074,-24.5387)"
       id="g4769">
      <path
         style="fill:#000000"
         d="m 457.55837,461.36085 c -0.23204,0.0152 -0.57907,0.0802 -1.04297,0.16992 -2.73096,0.52839 -4.35238,3.46306 -3.05273,5.52344 0.80869,1.28204 0.52019,2.17903 -1.28125,3.98047 l -2.32617,2.32617 -7.72461,-2.5957 c -8.84395,-2.97254 -15.3131,-3.46186 -19.94336,-1.50781 -4.4857,1.89303 -27.34673,32.55467 -29.72461,39.86718 -0.93494,2.87514 -1.41591,5.68764 -1.06836,6.25 1.27289,2.05957 3.59864,0.92561 6.27344,-3.06054 1.50728,-2.24622 6.83818,-8.65872 11.8457,-14.25 5.00751,-5.59127 10.40751,-11.65706 12,-13.47852 4.05119,-4.6337 9.68421,-5.34511 16.42773,-2.07617 4.88554,2.36827 4.92313,2.42288 4.38477,6.38867 -0.38745,2.85412 0.16016,5.86205 1.91211,10.5 2.49308,6.59995 4.39544,8.24076 6.54687,5.64844 0.94409,-1.13756 0.6625,-2.6319 -1.34961,-7.18164 -2.51209,-5.68028 -2.52155,-5.80745 -0.87304,-11.03711 l 1.66797,-5.29102 1.91211,2.43164 c 1.05152,1.33679 2.76179,2.42969 3.80273,2.42969 2.32008,0 8.96289,-5.66391 8.96289,-7.64258 0,-2.63435 -3.94043,-9.20463 -5.89258,-9.82422 -1.05956,-0.33629 -2.47871,-1.27583 -3.1543,-2.08984 -0.9917,-1.19493 -0.86611,-1.88471 0.65821,-3.57813 1.38802,-1.54216 1.73517,-1.94784 1.03906,-1.90234 z"
         id="path8129"
         inkscape:connector-curvature="0" />
      <path
         inkscape:connector-curvature="0"
         style="fill:#fefefe"
         d="m 391.90798,514.5761 c 0,-6.86213 20.58516,-36.87607 26.85984,-39.16266 2.77355,-1.01072 3.60959,-0.97462 4.7911,0.20688 2.29528,2.29529 0.45213,5.25173 -11.31735,18.15317 -5.95848,6.53153 -12.29206,14.06903 -14.07464,16.75 -2.83101,4.25777 -6.25895,6.47733 -6.25895,4.05261 z"
         id="path8265" />
      <path
         inkscape:connector-curvature="0"
         style="fill:#fefefe"
         d="m 445.41107,500.14796 c -1.16055,-3.0986 -2.03372,-8.11854 -2.13077,-12.25 -0.0904,-3.85 -0.3237,-8.10569 -0.51837,-9.45709 -0.47331,-3.28568 4.29732,-5.32021 6.74218,-2.87535 1.41959,1.41959 1.321,2.25113 -1.06315,8.9669 l -2.62783,7.4022 2.56469,5.79923 c 1.41058,3.18957 2.30536,6.21882 1.98841,6.73166 -1.33243,2.15591 -3.11101,0.60619 -4.95516,-4.31755 z"
         id="path8261" />
      <path
         inkscape:connector-curvature="0"
         style="fill:#fefefe"
         d="m 452.50422,483.14796 c -0.83491,-1.29567 -1.22017,-3.41227 -0.90833,-4.99026 0.46954,-2.37604 0.89179,-2.65671 3.17681,-2.11167 3.46139,0.82565 5.52871,1.91613 7.00516,3.69515 0.97819,1.17864 0.70164,1.84866 -1.4671,3.55459 -3.44912,2.71308 -5.99408,2.66489 -7.80654,-0.14781 z"
         id="path8257" />
      <path
         inkscape:connector-curvature="0"
         style="fill:#0000fe"
         d="m 437.11528,481.25587 c -2.53904,-1.6258 -4.31968,-1.99263 -7.77946,-1.60267 -3.90327,0.43996 -4.41606,0.283 -3.94316,-1.20698 0.31643,-0.99698 -0.29979,-2.47595 -1.47461,-3.53914 -1.65466,-1.49746 -2.45913,-1.62554 -4.46613,-0.7111 -2.04522,0.93187 -2.35364,0.86963 -1.87475,-0.37832 0.31524,-0.82152 1.75614,-2.09783 3.20199,-2.83625 5.22752,-2.66977 8.72102,-2.7663 17.09173,-0.47228 l 8.14078,2.23102 -2.76789,2.20704 c -2.51279,2.00363 -2.65581,2.453 -1.55184,4.87595 0.66882,1.46791 1.21604,2.87275 1.21604,3.12187 0,1.06525 -2.73801,0.26685 -5.7927,-1.68914 z"
         id="path8193" />
    </g>
    <g
       transform="matrix(0.96592583,-0.25881905,0.25881905,0.96592583,-30.66777,-219.36889)"
       id="g4761">
      <path
         style="fill:#000000"
         d="m 326.74392,373.64796 c -0.0494,-0.005 -0.0955,-0.002 -0.13672,0.0117 -0.67226,0.22119 -1.29769,2.55787 -1.42383,5.3164 -0.39212,8.5753 -3.47397,35.12621 -4.2168,36.32813 -0.52585,0.85085 -1.45498,0.76865 -3.53515,-0.31055 -1.55175,-0.80506 -4.70283,-2.0184 -7.00196,-2.69726 -3.5769,-1.05613 -4.11625,-1.56619 -3.74023,-3.53321 0.70434,-3.68452 -4.63863,-8.36523 -9.54883,-8.36523 -5.2498,0 -7.49398,2.49628 -7.10351,7.9043 0.22278,3.08556 -0.17165,4.40669 -1.63477,5.47656 -1.68145,1.2295 -2.08083,1.19896 -3.12891,-0.23438 -1.39087,-1.90213 -2.8899,-0.95635 -2.03125,1.28125 0.90086,2.34762 5.44272,3.08392 7.50586,1.2168 2.4414,-2.20943 9.16016,-0.4693 9.16016,2.37305 0,3.03569 4.4901,12.26606 7.11523,14.62695 1.31178,1.17974 4.13419,3.31724 6.27344,4.75 4.76273,3.18983 10.28572,3.43591 13.86914,0.61719 2.24778,-1.76811 2.60635,-2.98987 3.24219,-11.02344 0.58488,-7.38981 1.05976,-9.21859 2.60742,-10.04687 2.26724,-1.21339 2.43917,-3.24282 0.41602,-4.92188 -1.2284,-1.01949 -1.37168,-3.52004 -0.85547,-14.87305 0.61015,-13.41933 0.57527,-13.73508 -2.07422,-18.96289 -1.38931,-2.74131 -3.01629,-4.85841 -3.75781,-4.93359 z m -0.0352,0.75 c 0.44041,0 1.79041,2.03763 3,4.52734 2.37665,4.89185 2.76892,11.43742 1.54883,25.8711 -0.64454,7.62485 -0.68596,7.71429 -4.12305,9.15039 -1.90915,0.7977 -3.76389,1.45117 -4.12109,1.45117 -0.35721,0 0.12023,-5.9625 1.06055,-13.25 0.94031,-7.2875 1.73748,-16.5125 1.77148,-20.5 0.0341,-3.9875 0.42288,-7.25 0.86328,-7.25 z m -27.58984,27.10742 c 1.26798,-0.0209 2.74772,0.76139 4.33398,2.34766 2.66773,2.66773 3.14526,5.4563 1.25586,7.3457 -3.77231,3.77231 -10.93893,-2.2104 -8.6543,-7.22461 0.74025,-1.62467 1.79648,-2.44782 3.06446,-2.46875 z m 7.05664,11.04492 c 2.74326,0.0351 10.22838,2.43605 12.36719,4.04688 1.15726,0.87159 9.80958,-1.5613 12.07226,-3.39453 0.6634,-0.5375 1.6759,-0.68684 2.25,-0.33203 2.40855,1.48857 0.68637,3.51713 -4.70703,5.54687 -3.1625,1.19017 -7.1,2.32144 -8.75,2.51367 -3.53211,0.4115 -14.20489,-1.8377 -15.66992,-3.30273 -1.66191,-1.66191 -0.4847,-4.70498 1.95508,-5.05274 0.13775,-0.0196 0.29953,-0.0277 0.48242,-0.0254 z m -4.95117,4.20704 c 0.31515,-0.008 0.94487,0.48681 2.20312,1.47656 1.38537,1.08973 4.66845,2.27717 7.29688,2.63867 5.10784,0.70251 5.95504,1.09438 7.98242,3.6875 1.08728,1.39069 0.96494,2.28466 -0.75,5.48437 -2.52061,4.70297 -2.52143,4.88092 -0.0488,7.35352 2.19101,2.19101 0.7697,2.65433 -2.5,0.81445 -5.71138,-3.21384 -9.95764,-7.59853 -12.14258,-12.53906 -1.29696,-2.93266 -2.35742,-6.25272 -2.35742,-7.37695 0,-1.02107 0.001,-1.53122 0.31641,-1.53906 z m 28.15433,2.64062 c 0.40589,0 0.4306,3.7125 0.0566,8.25 -0.53707,6.51675 -1.10742,8.61766 -2.71484,10 -2.68204,2.30648 -4.94165,2.21 -7.66602,-0.32812 -2.35396,-2.19306 -2.22119,-4.48003 0.48829,-8.39454 0.75091,-1.08487 1.36523,-3.15123 1.36523,-4.59179 0,-2.17421 0.65604,-2.81586 3.86523,-3.77735 2.12631,-0.63706 4.19954,-1.1582 4.60547,-1.1582 z"
         id="path8097"
         inkscape:connector-curvature="0" />
      <path
         inkscape:connector-curvature="0"
         style="fill:#fefefe"
         d="m 319.05407,437.31944 c -2.35396,-2.19305 -2.22087,-4.47948 0.48861,-8.39399 0.75091,-1.08487 1.3653,-3.15115 1.3653,-4.59171 0,-2.17421 0.65683,-2.816 3.86602,-3.77749 2.12631,-0.63706 4.19815,-1.15829 4.60408,-1.15829 0.40593,0 0.4321,3.7125 0.0581,8.25 -0.53707,6.51675 -1.10744,8.61766 -2.71486,10 -2.68204,2.30648 -4.94292,2.20961 -7.66729,-0.32852 z"
         id="path8239" />
      <path
         inkscape:connector-curvature="0"
         style="fill:#fefefe"
         d="m 310.58183,419.96338 c -3.20439,-0.72476 -6.28409,-1.77569 -6.84378,-2.33538 -1.66191,-1.66191 -0.48398,-4.70522 1.9558,-5.05298 2.20398,-0.31416 10.56789,2.30401 12.84928,4.02223 1.15726,0.87159 9.80837,-1.561 12.07105,-3.39423 1.44478,-1.17058 3.2938,-0.22632 3.2938,1.68208 0,1.47514 -9.59104,5.47463 -14.5,6.04654 -1.65,0.19223 -5.62177,-0.24349 -8.82615,-0.96826 z"
         id="path8223" />
      <path
         inkscape:connector-curvature="0"
         style="fill:#fefefe"
         d="m 324.07447,402.14796 c 0.94031,-7.2875 1.73753,-16.5125 1.77158,-20.5 0.0341,-3.9875 0.42226,-7.25 0.86266,-7.25 0.44041,0 1.79041,2.03703 3,4.52675 2.37665,4.89185 2.76843,11.43833 1.54834,25.87202 -0.64454,7.62485 -0.68504,7.71477 -4.12213,9.15087 -1.90915,0.7977 -3.76345,1.45036 -4.12065,1.45036 -0.35721,0 0.11988,-5.9625 1.0602,-13.25 z"
         id="path8219" />
      <path
         inkscape:connector-curvature="0"
         style="fill:#fefefe"
         d="m 296.96258,409.47464 c -1.7645,-2.47801 -1.90275,-3.31584 -0.90758,-5.50001 0.65718,-1.44235 2.00381,-2.57667 3.05895,-2.57667 2.41682,0 6.79403,4.35177 6.79403,6.75455 0,4.8606 -5.81392,5.71989 -8.9454,1.32213 z"
         id="path8215" />
      <path
         inkscape:connector-curvature="0"
         style="fill:#0000fe"
         d="m 315.40798,438.21173 c -5.71138,-3.21384 -9.95695,-7.59816 -12.14189,-12.53869 -1.29696,-2.93266 -2.35811,-6.25194 -2.35811,-7.37617 0,-2.04216 0.002,-2.04222 2.51886,-0.0627 1.38537,1.08973 4.6694,2.27711 7.29783,2.63861 5.10784,0.70251 5.95516,1.09387 7.98254,3.68699 1.08728,1.39069 0.96494,2.28548 -0.75,5.48519 -2.52064,4.70297 -2.52183,4.88043 -0.0492,7.35303 2.19101,2.19101 0.7697,2.65365 -2.5,0.81377 z"
         id="path8187" />
    </g>
    <g
       transform="matrix(0.5,-0.8660254,0.8660254,0.5,-197.03481,54.308803)"
       id="g4747">
      <path
         style="fill:#000000"
         d="m 170.06814,354.66749 c -0.64658,0.0506 -1.07687,0.26914 -1.44141,0.64258 -0.96356,0.98707 -0.25348,2.11889 3.39844,5.41797 2.98902,2.70022 8.75398,10.83744 16.35742,23.08398 11.69777,18.84111 11.74025,18.92731 10.61133,22.69532 -1.17112,3.90884 -4.8279,7.53633 -8.53516,8.46679 -1.16867,0.29332 -6.31278,-0.37931 -11.42969,-1.49609 -8.38697,-1.83048 -9.64634,-1.88733 -12.78906,-0.57422 -4.42311,1.84809 -4.31216,4.95301 0.18164,5.07422 4.19564,0.11316 23.48633,4.60023 23.48633,5.46289 0,0.39174 -0.675,1.27234 -1.5,1.95703 -2.32438,1.92907 -1.99452,10.50548 0.5,13 2.44011,2.44011 4.83818,2.52102 9.45312,0.32031 4.14306,-1.97569 4.94727,-1.45355 4.94727,3.21289 0,4.03377 1.27924,4.59338 2.19141,0.95899 0.39234,-1.56317 0.0215,-3.4327 -0.98242,-4.96485 -0.88564,-1.35164 -1.60938,-3.39434 -1.60938,-4.54101 0,-1.14666 -0.65722,-3.35789 -1.46094,-4.91211 -1.41396,-2.7343 -1.33119,-2.96648 2.59375,-7.19922 5.59033,-6.02874 7.86719,-10.85731 7.86719,-16.68555 0,-5.53828 0.86268,-4.09083 -17.83984,-29.89843 l -12.33985,-17.0293 -5.9414,-1.79883 c -2.96403,-0.89744 -4.64112,-1.27767 -5.71875,-1.19336 z"
         id="path8105"
         inkscape:connector-curvature="0" />
      <path
         inkscape:connector-curvature="0"
         style="fill:#fefefe"
         d="m 187.90798,431.03412 c 0,-5.27466 2.67274,-8.07778 6.3655,-6.676 1.68278,0.63879 2.10904,1.59014 2.0142,4.49535 -0.14166,4.33971 -0.79393,5.105 -5.1297,6.01859 l -3.25,0.68481 0,-4.52275 z"
         id="path8233" />
      <path
         inkscape:connector-curvature="0"
         style="fill:#fefefe"
         d="m 180.90798,419.88718 c -6.875,-1.78708 -13.5125,-3.02946 -14.75,-2.76082 -3.47677,0.75472 -2.81849,-2.33457 0.76354,-3.58328 2.33973,-0.81563 5.07874,-0.5947 12.25,0.98811 7.62993,1.68405 9.81414,1.83402 12.55772,0.86221 2.84513,-1.00778 3.60455,-0.92006 5.29733,0.61189 1.21242,1.09721 1.86117,2.77462 1.67874,4.34049 -0.40991,3.51853 -2.72679,3.45883 -17.79733,-0.4586 z"
         id="path8225" />
      <path
         inkscape:connector-curvature="0"
         style="fill:#fefefe"
         d="m 200.75116,401.14796 c -0.84649,-0.6875 -6.3845,-9.125 -12.30667,-18.75 -6.93096,-11.26451 -12.41383,-18.98974 -15.38775,-21.68098 -2.54108,-2.29953 -4.29196,-4.50915 -3.89085,-4.91026 0.40111,-0.40111 3.31967,0.0585 6.48569,1.02141 l 5.7564,1.75071 12.5,17.41066 c 6.875,9.57586 12.38142,17.87839 12.2365,18.45007 -0.14493,0.57167 0.2238,1.94994 0.81939,3.06282 2.02307,3.78013 -2.66205,6.52932 -6.21271,3.64557 z"
         id="path8213" />
      <path
         inkscape:connector-curvature="0"
         style="fill:#0000fe"
         d="m 198.70798,423.19796 c 1.82267,-1.82267 1.43995,-4.91568 -0.91894,-7.42661 l -2.11895,-2.25551 2.04981,-2.6059 c 1.12739,-1.43324 2.32707,-3.86832 2.66596,-5.41128 0.49237,-2.24174 1.06439,-2.7197 2.84707,-2.37892 3.26718,0.62456 6.19772,-2.87664 4.71957,-5.6386 -0.61319,-1.14575 -0.72129,-2.08318 -0.24022,-2.08318 1.54292,0 3.1957,4.95822 3.1957,9.58689 0,2.47103 -0.86222,6.16236 -1.91605,8.20295 -2.35636,4.56275 -8.38627,11.21016 -10.16882,11.21016 -1.02288,0 -1.04846,-0.26667 -0.11513,-1.2 z"
         id="path8185" />
    </g>
    <g
       transform="matrix(0.8660254,-0.5,0.5,0.8660254,-93.569815,-130.73001)"
       id="g4754">
      <path
         style="fill:#000000"
         d="m 274.90087,371.52201 c -0.85785,-0.72723 -4.37314,-0.0739 -5.70242,1.25539 -0.62916,0.62916 -1.29382,2.22895 -1.47774,3.55487 -0.18394,1.32591 -1.05566,3.15223 -1.93765,4.05896 -0.88198,0.90673 -2.03948,3.01312 -2.57016,4.68044 -0.93362,2.93326 -1.15632,3.03891 -6.92467,3.25656 -8.00838,0.30217 -13.25822,2.13233 -17.08105,5.95516 -5.53362,5.53361 -5.67229,7.58326 -1.33964,19.69955 2.1549,6.02622 5.72838,15.19149 7.94114,20.36799 3.27126,7.6528 4.6879,9.93655 7.57792,12.22107 6.32406,4.99912 8.96988,2.58374 4.58928,-4.18878 -1.4828,-2.29245 -3.53907,-6.27632 -4.56994,-8.85402 -1.51052,-3.77703 -1.53147,-4.88749 -0.10635,-5.72177 1.17839,-0.68984 1.54811,-1.76539 1.10624,-3.22479 -1.1587,-3.82692 2.18782,-13.7446 5.88611,-17.44289 1.81247,-1.81246 3.96817,-4.93335 4.79093,-6.93711 1.40331,-3.41764 1.67895,-3.6495 4.44289,-3.73578 2.08984,-0.0652 3.90897,-1.05569 6.259,-3.40571 5.33981,-5.33981 4.1543,-10.99177 -2.69723,-12.85913 -1.52807,-0.41647 -3.15234,-1.10833 -3.6101,-1.53851 -1.23638,-1.16199 1.60302,-5.34545 3.76478,-5.54637 1.01664,-0.0945 1.84926,-0.63405 1.84926,-1.19738 0,-0.16228 -0.068,-0.29386 -0.1906,-0.39775 z m 2.99693,18.17761 -3.56178,3.12536 c -4.19144,3.67778 -7.52214,3.58953 -9.21587,-0.24169 -0.90113,-2.03836 -0.65247,-2.60387 1.96803,-4.49261 3.60325,-2.59708 4.32111,-2.61787 7.97566,-0.23617 l 2.83396,1.84512 z m -15.71104,0.10772 c 0.72329,0.72329 0.55344,0.92947 -0.76649,0.92947 -2.66522,-10e-6 -4.36255,2.35903 -4.72463,6.56421 -0.1832,2.12775 -1.08148,4.61701 -1.99565,5.53118 -0.91417,0.91418 -2.66389,4.84395 -3.8877,8.73249 -1.2238,3.88852 -2.26638,6.99933 -2.31743,6.91363 -0.67955,-1.13967 -2.02552,-13.88268 -1.5468,-14.64485 0.35823,-0.57031 2.48104,-1.62875 4.71773,-2.35333 2.66696,-0.86398 3.43678,-1.37707 2.23456,-1.4888 -1.00826,-0.0937 -3.37257,0.66013 -5.25357,1.67385 -2.79832,1.50809 -3.6454,1.51038 -4.65972,0.0166 -1.83256,-2.69877 -6.39104,-2.25917 -7.28791,0.70297 -0.37658,1.24376 -0.96356,1.98363 -1.30372,1.64346 -1.09101,-1.09101 1.24589,-5.76474 4.51885,-9.03771 1.74729,-1.74728 4.96723,-3.7479 7.15532,-4.44565 4.89255,-1.56015 13.85671,-1.99795 15.11716,-0.7375 z m 1.35483,3.47616 c 1.71747,1.71747 1.88525,2.82756 0.88251,5.83225 -0.6812,2.04116 -2.79076,5.26441 -4.68735,7.16222 -3.76856,3.77139 -7.07503,13.20675 -6.25623,17.85444 0.26442,1.50087 -0.1667,2.74899 -1.09243,3.16127 -1.84471,0.82156 -3.33058,-0.48458 -3.68883,-3.24413 -0.38033,-2.92964 4.70507,-18.50747 6.68989,-20.49229 0.92395,-0.92395 1.83477,-3.47184 2.02326,-5.661 0.46535,-5.40453 3.24536,-7.49659 6.12918,-4.61276 z m -20.94251,8.39137 c 0.47599,0.43229 0.94558,0.99932 1.39488,1.70147 1.73637,2.71379 3.92637,13.67811 3.92637,19.65398 0,1.88294 0.62472,4.047 1.38797,4.81026 0.76325,0.76325 2.26085,3.56963 3.327,6.23552 1.06615,2.6659 3.13442,6.69491 4.59619,8.95484 3.19056,4.93269 2.05813,6.80185 -2.25114,3.71508 -4.15317,-2.97497 -3.85137,-2.50231 -8.43142,-13.13534 -7.68342,-17.83783 -10.52335,-26.9285 -9.37331,-30.0037 1.17725,-3.14792 3.36084,-3.80541 5.42346,-1.93211 z"
         id="path8085"
         inkscape:connector-curvature="0" />
      <path
         inkscape:connector-curvature="0"
         style="fill:#fefefe"
         d="m 246.54935,433.61026 c -7.68342,-17.83783 -10.52355,-26.92894 -9.37351,-30.00414 1.44891,-3.87435 4.4219,-3.97437 6.81805,-0.2294 1.73638,2.7138 3.92707,13.67711 3.92707,19.65298 0,1.88294 0.62448,4.04801 1.38773,4.81126 0.76325,0.76326 2.26004,3.56893 3.32619,6.23482 1.06616,2.6659 3.13446,6.69612 4.59623,8.95605 3.19056,4.93269 2.05799,6.80148 -2.25127,3.7147 -4.15318,-2.97497 -3.85044,-2.50324 -8.43049,-13.13627 z"
         id="path8237" />
      <path
         inkscape:connector-curvature="0"
         style="fill:#fefefe"
         d="m 248.69891,424.0492 c -0.38033,-2.92963 4.70547,-18.50717 6.69029,-20.49199 0.92396,-0.92396 1.83415,-3.47106 2.02264,-5.66023 0.46536,-5.40453 3.24593,-7.49731 6.12975,-4.61348 1.71747,1.71747 1.88553,2.82784 0.88279,5.83253 -0.6812,2.04116 -2.7903,5.26396 -4.68689,7.16177 -3.76857,3.77139 -7.07513,13.20709 -6.25633,17.85477 0.26442,1.50087 -0.1673,2.74983 -1.09304,3.1621 -1.84471,0.82157 -3.33095,-0.48592 -3.68921,-3.24547 z"
         id="path8227" />
      <path
         inkscape:connector-curvature="0"
         style="fill:#fefefe"
         d="m 265.11987,392.58434 c -0.90114,-2.03836 -0.65313,-2.60484 1.96736,-4.49357 3.60325,-2.59708 4.32248,-2.61843 7.97704,-0.23673 l 2.83283,1.84618 -3.56077,3.1244 c -4.19144,3.67779 -7.52273,3.59093 -9.21646,-0.24028 z"
         id="path8209" />
      <path
         inkscape:connector-curvature="0"
         style="fill:#0000fe"
         d="m 235.75765,400.78835 c 1.48069,-3.95932 6.84917,-8.82074 11.31252,-10.24404 4.89255,-1.56015 13.85677,-1.99679 15.11722,-0.73634 0.72329,0.72329 0.55281,0.92994 -0.76712,0.92994 -2.57764,0 -4.49411,2.45772 -4.60161,5.9012 l -0.0966,3.09321 -3.29208,0.39321 c -1.81064,0.21627 -4.3808,1.08983 -5.71147,1.94124 -1.93331,1.23699 -2.67576,1.17048 -3.69533,-0.33104 -1.86861,-2.75188 -6.41655,-2.34835 -7.32433,0.64985 -0.37659,1.24377 -0.96301,1.98307 -1.30318,1.6429 -0.34017,-0.34017 -0.17729,-1.79822 0.36195,-3.24013 z"
         id="path8183" />
    </g>
    <g
       id="g8372"
       transform="matrix(0.25881905,-0.96592583,-0.96592583,-0.25881905,-8.8046719,807.42443)">
      <path
         inkscape:connector-curvature="0"
         id="path8288"
         d="m 751.58789,-5.73438 c -2.40418,0.0603 -4.91305,0.4702 -6.93164,1.16016 -2.40278,0.82127 -5.87103,1.51256 -7.70703,1.53516 -1.836,0.0226 -5.02009,0.67762 -7.07617,1.45508 -2.19729,0.83086 -8.6503,1.64261 -15.65235,1.96875 -13.18738,0.61424 -15.33776,1.50769 -12.07617,5.01953 1.52308,1.63994 2.18321,1.81306 3.58203,0.9375 1.54035,-0.96415 1.50197,-1.01602 -0.38672,-0.49805 -1.45348,0.39862 -2.10351,0.17136 -2.10351,-0.73633 0,-2.18144 1.15915,-2.64846 2.82226,-1.13867 1.20058,1.08992 1.47022,2.50478 1.13672,5.98633 -0.35961,3.7544 -0.0874,4.90947 1.54102,6.54297 2.65389,2.66218 9.61482,2.76042 12.19531,0.17187 1.33839,-1.34258 2.02511,-1.5248 2.65234,-0.70312 1.52488,1.99763 3.30555,14.47154 2.74414,19.22656 -0.30213,2.55844 -0.2944,4.90777 0.0176,5.2207 2.09583,2.10237 5.53498,-2.07138 6.29883,-7.64258 0.35171,-2.56519 0.18755,-7.11751 -0.36523,-10.11718 -1.392,-7.55356 -1.41805,-7.45699 2.5,-9.17383 1.92757,-0.84464 5.39589,-2.63507 7.70898,-3.97852 5.19908,-3.01965 8.40802,-2.85424 37.11524,1.91602 20.78045,3.45306 24.56835,3.41608 24.56836,-0.23828 0,-2.21992 -4.40263,-6.44467 -7.97071,-7.65039 -5.51016,-1.86197 -37.46987,-8.82248 -42.26758,-9.20508 -0.75623,-0.0603 -1.5443,-0.0787 -2.3457,-0.0586 z"
         style="fill:#000000" />
      <path
         id="path8254"
         d="m 756.36762,-4.8118606 c -0.47357,0.03005 -0.55502,0.32352 -0.32617,0.91601 0.2953,0.76456 7.58753,3.14939998 18.00586,5.88867 9.62955,2.53186 18.13912,4.97795 18.91015,5.43555 1.71202,1.01605 2.82558,1.28419 -20.76367,-4.99414 -15.58642,-4.14836 -18.79282,-4.73928 -20.79492,-3.82422 -2.58043,1.17940998 -3.25739,4.86077 -1.19922,6.52344 0.64252,0.51906 8.31832,2.05324 17.05664,3.4082 8.73832,1.35496 19.04134,3.0463596 22.89648,3.7578196 8.72154,1.60955 8.44786,1.58566 10.98243,0.90429 1.15654,-0.3109 2.10156,-1.28477 2.10156,-2.16601 0,-2.2017396 -4.2413,-6.0570296 -5.68164,-5.1640696 -0.73606,0.45633 -0.90991,0.32278 -0.48242,-0.37109 0.36671,-0.59529 0.51066,-1.08203 0.31836,-1.08203 -0.54889,0 -37.36267,-8.34876 -39.72852,-9.00977 -0.58565,-0.16362 -1.01078,-0.24069 -1.29492,-0.22265 z"
         style="fill:#fefefe"
         inkscape:connector-curvature="0" />
      <path
         id="path8252"
         d="m 725.19965,0.46156938 -3.1543,0.57422002 c -1.73481,0.31503 -5.67696,0.57227 -8.75976,0.57227 -4.37823,0 -5.39227,0.25649 -4.63477,1.17187 1.55018,1.87326 11.44126,1.46024 14.21875,-0.59375 l 2.33008,-1.72461002 z"
         style="fill:#fefefe"
         inkscape:connector-curvature="0" />
      <path
         id="path8250"
         d="m 704.55902,3.0240694 c -0.73744,-0.01284 -1.32226,0.68505 -1.32226,1.91993 0,1.52345 0.1788,1.58423 2.28515,0.77343 1.15659,-0.44521 1.25699,-0.87474 0.4375,-1.86523 -0.46022,-0.55628 -0.95792,-0.82042 -1.40039,-0.82813 z"
         style="fill:#fefefe"
         inkscape:connector-curvature="0" />
      <path
         id="path8248"
         d="m 731.53559,10.695949 -3.13868,0.62891 c -4.23357,0.84937 -5.17082,1.94108 -3.91601,4.56054 1.8703,3.90437 3.3209,13.80656 2.78516,19.01367 -0.29124,2.83062 -0.16868,5.14649 0.27148,5.14649 3.46548,0 5.3889,-8.81075 3.80273,-17.41797 -0.55556,-3.01469 -0.73799,-6.93318 -0.40625,-8.70703 l 0.60157,-3.22461 z"
         style="fill:#fefefe"
         inkscape:connector-curvature="0" />
      <path
         id="path3386-1"
         d="m 720.26801,11.131499 c -2.10197,0.21015 -7.68555,4.11882 -7.68555,5.52343 0,0.48938 1.45535,0.89063 3.23438,0.89063 5.07362,0 9.24795,-5.54541 4.82226,-6.40625 -0.10651,-0.02072 -0.23096,-0.02182 -0.37109,-0.0078 z"
         style="fill:#fefefe"
         inkscape:connector-curvature="0" />
      <path
         id="path3382-1"
         d="m 751.29145,-4.9212406 c -1.87297,0.01832 -4.06058,0.35269 -5.70313,0.9961 -1.44702,0.56683 -5.569,1.4133 -9.16015,1.8789 -4.45068,0.57703 -7.87273,1.68412998 -10.74805,3.48047 -3.84804,2.40402 -4.19038,2.9183 -3.89453,5.85742 0.39734,3.9474096 1.48649,4.7156696 4.96289,3.4999996 3.14604,-1.1001496 5.46093,-0.44531 5.46093,1.54492 10e-6,1.74987 2.89554,0.79044 8.15821,-2.7031196 1.95526,-1.29797 4.94049,-2.63861 6.63476,-2.97852 2.17451,-0.43626 2.78883,-0.91015 2.08789,-1.61328 -2.70887,-2.71734 0.53604,-8.12109 4.87696,-8.12109 0.944,0 1.45635,-0.42187 1.13867,-0.9375 -0.3842,-0.62358 -1.94149,-0.92262 -3.81445,-0.9043 z"
         style="fill:#0000ff"
         inkscape:connector-curvature="0" />
    </g>
    <g
       id="g4890"
       transform="matrix(-0.25881905,-0.96592583,0.96592583,-0.25881905,111.76868,554.71804)">
      <path
         inkscape:connector-curvature="0"
         id="path4892"
         d="m 326.74392,373.64796 c -0.0494,-0.005 -0.0955,-0.002 -0.13672,0.0117 -0.67226,0.22119 -1.29769,2.55787 -1.42383,5.3164 -0.39212,8.5753 -3.47397,35.12621 -4.2168,36.32813 -0.52585,0.85085 -1.45498,0.76865 -3.53515,-0.31055 -1.55175,-0.80506 -4.70283,-2.0184 -7.00196,-2.69726 -3.5769,-1.05613 -4.11625,-1.56619 -3.74023,-3.53321 0.70434,-3.68452 -4.63863,-8.36523 -9.54883,-8.36523 -5.2498,0 -7.49398,2.49628 -7.10351,7.9043 0.22278,3.08556 -0.17165,4.40669 -1.63477,5.47656 -1.68145,1.2295 -2.08083,1.19896 -3.12891,-0.23438 -1.39087,-1.90213 -2.8899,-0.95635 -2.03125,1.28125 0.90086,2.34762 5.44272,3.08392 7.50586,1.2168 2.4414,-2.20943 9.16016,-0.4693 9.16016,2.37305 0,3.03569 4.4901,12.26606 7.11523,14.62695 1.31178,1.17974 4.13419,3.31724 6.27344,4.75 4.76273,3.18983 10.28572,3.43591 13.86914,0.61719 2.24778,-1.76811 2.60635,-2.98987 3.24219,-11.02344 0.58488,-7.38981 1.05976,-9.21859 2.60742,-10.04687 2.26724,-1.21339 2.43917,-3.24282 0.41602,-4.92188 -1.2284,-1.01949 -1.37168,-3.52004 -0.85547,-14.87305 0.61015,-13.41933 0.57527,-13.73508 -2.07422,-18.96289 -1.38931,-2.74131 -3.01629,-4.85841 -3.75781,-4.93359 z m -0.0352,0.75 c 0.44041,0 1.79041,2.03763 3,4.52734 2.37665,4.89185 2.76892,11.43742 1.54883,25.8711 -0.64454,7.62485 -0.68596,7.71429 -4.12305,9.15039 -1.90915,0.7977 -3.76389,1.45117 -4.12109,1.45117 -0.35721,0 0.12023,-5.9625 1.06055,-13.25 0.94031,-7.2875 1.73748,-16.5125 1.77148,-20.5 0.0341,-3.9875 0.42288,-7.25 0.86328,-7.25 z m -27.58984,27.10742 c 1.26798,-0.0209 2.74772,0.76139 4.33398,2.34766 2.66773,2.66773 3.14526,5.4563 1.25586,7.3457 -3.77231,3.77231 -10.93893,-2.2104 -8.6543,-7.22461 0.74025,-1.62467 1.79648,-2.44782 3.06446,-2.46875 z m 7.05664,11.04492 c 2.74326,0.0351 10.22838,2.43605 12.36719,4.04688 1.15726,0.87159 9.80958,-1.5613 12.07226,-3.39453 0.6634,-0.5375 1.6759,-0.68684 2.25,-0.33203 2.40855,1.48857 0.68637,3.51713 -4.70703,5.54687 -3.1625,1.19017 -7.1,2.32144 -8.75,2.51367 -3.53211,0.4115 -14.20489,-1.8377 -15.66992,-3.30273 -1.66191,-1.66191 -0.4847,-4.70498 1.95508,-5.05274 0.13775,-0.0196 0.29953,-0.0277 0.48242,-0.0254 z m -4.95117,4.20704 c 0.31515,-0.008 0.94487,0.48681 2.20312,1.47656 1.38537,1.08973 4.66845,2.27717 7.29688,2.63867 5.10784,0.70251 5.95504,1.09438 7.98242,3.6875 1.08728,1.39069 0.96494,2.28466 -0.75,5.48437 -2.52061,4.70297 -2.52143,4.88092 -0.0488,7.35352 2.19101,2.19101 0.7697,2.65433 -2.5,0.81445 -5.71138,-3.21384 -9.95764,-7.59853 -12.14258,-12.53906 -1.29696,-2.93266 -2.35742,-6.25272 -2.35742,-7.37695 0,-1.02107 0.001,-1.53122 0.31641,-1.53906 z m 28.15433,2.64062 c 0.40589,0 0.4306,3.7125 0.0566,8.25 -0.53707,6.51675 -1.10742,8.61766 -2.71484,10 -2.68204,2.30648 -4.94165,2.21 -7.66602,-0.32812 -2.35396,-2.19306 -2.22119,-4.48003 0.48829,-8.39454 0.75091,-1.08487 1.36523,-3.15123 1.36523,-4.59179 0,-2.17421 0.65604,-2.81586 3.86523,-3.77735 2.12631,-0.63706 4.19954,-1.1582 4.60547,-1.1582 z"
         style="fill:#000000" />
      <path
         id="path4894"
         d="m 319.05407,437.31944 c -2.35396,-2.19305 -2.22087,-4.47948 0.48861,-8.39399 0.75091,-1.08487 1.3653,-3.15115 1.3653,-4.59171 0,-2.17421 0.65683,-2.816 3.86602,-3.77749 2.12631,-0.63706 4.19815,-1.15829 4.60408,-1.15829 0.40593,0 0.4321,3.7125 0.0581,8.25 -0.53707,6.51675 -1.10744,8.61766 -2.71486,10 -2.68204,2.30648 -4.94292,2.20961 -7.66729,-0.32852 z"
         style="fill:#fefefe"
         inkscape:connector-curvature="0" />
      <path
         id="path4896"
         d="m 310.58183,419.96338 c -3.20439,-0.72476 -6.28409,-1.77569 -6.84378,-2.33538 -1.66191,-1.66191 -0.48398,-4.70522 1.9558,-5.05298 2.20398,-0.31416 10.56789,2.30401 12.84928,4.02223 1.15726,0.87159 9.80837,-1.561 12.07105,-3.39423 1.44478,-1.17058 3.2938,-0.22632 3.2938,1.68208 0,1.47514 -9.59104,5.47463 -14.5,6.04654 -1.65,0.19223 -5.62177,-0.24349 -8.82615,-0.96826 z"
         style="fill:#fefefe"
         inkscape:connector-curvature="0" />
      <path
         id="path4898"
         d="m 324.07447,402.14796 c 0.94031,-7.2875 1.73753,-16.5125 1.77158,-20.5 0.0341,-3.9875 0.42226,-7.25 0.86266,-7.25 0.44041,0 1.79041,2.03703 3,4.52675 2.37665,4.89185 2.76843,11.43833 1.54834,25.87202 -0.64454,7.62485 -0.68504,7.71477 -4.12213,9.15087 -1.90915,0.7977 -3.76345,1.45036 -4.12065,1.45036 -0.35721,0 0.11988,-5.9625 1.0602,-13.25 z"
         style="fill:#fefefe"
         inkscape:connector-curvature="0" />
      <path
         id="path4900"
         d="m 296.96258,409.47464 c -1.7645,-2.47801 -1.90275,-3.31584 -0.90758,-5.50001 0.65718,-1.44235 2.00381,-2.57667 3.05895,-2.57667 2.41682,0 6.79403,4.35177 6.79403,6.75455 0,4.8606 -5.81392,5.71989 -8.9454,1.32213 z"
         style="fill:#fefefe"
         inkscape:connector-curvature="0" />
      <path
         id="path4902"
         d="m 315.40798,438.21173 c -5.71138,-3.21384 -9.95695,-7.59816 -12.14189,-12.53869 -1.29696,-2.93266 -2.35811,-6.25194 -2.35811,-7.37617 0,-2.04216 0.002,-2.04222 2.51886,-0.0627 1.38537,1.08973 4.6694,2.27711 7.29783,2.63861 5.10784,0.70251 5.95516,1.09387 7.98254,3.68699 1.08728,1.39069 0.96494,2.28548 -0.75,5.48519 -2.52064,4.70297 -2.52183,4.88043 -0.0492,7.35303 2.19101,2.19101 0.7697,2.65365 -2.5,0.81377 z"
         style="fill:#0000fe"
         inkscape:connector-curvature="0" />
    </g>
    <path
       style="fill:#fe0000"
       d="m 269.70508,125.88538 c 4.52243,-0.25525 9.8866,-3.5393 16.68758,-10.21643 4.97268,-4.88215 7.51238,-10.46937 8.64872,-19.026809 0.48179,-3.6282 0.42115,-3.751094 -1.13155,-2.293872 -0.90253,0.846652 -1.92293,1.240272 -2.26794,0.874282 -0.67309,-0.714047 2.22696,-10.841781 3.09717,-10.816073 0.28663,0.0085 1.74817,2.041044 3.24786,4.516867 2.54489,4.201349 2.77717,6.324666 0.56161,5.133904 -0.52339,-0.281292 -1.94619,3.676362 -3.16176,8.794791 -2.20127,9.26898 -2.23341,9.32822 -8.02759,14.79777 -3.19965,3.02031 -7.27538,6.3858 -9.05726,7.47876 -3.26528,2.00283 -10.56015,3.05451 -11.83159,1.70574 -0.37726,-0.40023 1.0784,-0.82726 3.2348,-0.94896 z"
       id="path4904"
       inkscape:connector-curvature="0" />
  </g>
</svg>
