<?xml version="1.0" encoding="UTF-8" standalone="no"?>
<!-- Created with Inkscape (http://www.inkscape.org/) -->

<svg
   xmlns:dc="http://purl.org/dc/elements/1.1/"
   xmlns:cc="http://creativecommons.org/ns#"
   xmlns:rdf="http://www.w3.org/1999/02/22-rdf-syntax-ns#"
   xmlns:svg="http://www.w3.org/2000/svg"
   xmlns="http://www.w3.org/2000/svg"
   version="1.1"
   width="692"
   height="293"
   id="svg2">
  <metadata
     id="metadata8">
    <rdf:RDF>
      <cc:Work
         rdf:about="">
        <dc:format>image/svg+xml</dc:format>
        <dc:type
           rdf:resource="http://purl.org/dc/dcmitype/StillImage" />
        <dc:title></dc:title>
      </cc:Work>
    </rdf:RDF>
  </metadata>
  <defs
     id="defs6" />
  <g
     id="g2987">
    <path
       d="m 641.35889,276.49286 c -0.31898,-0.83125 1.26678,-4.61294 3.53607,-8.43271 l 4.1144,-6.92557 -5.49925,-7.66482 c -4.48902,-6.25677 -5.38012,-8.15209 -4.85071,-10.31729 0.61073,-2.4978 1.97746,-4.10249 3.52365,-4.13716 0.37568,-0.008 2.22868,1.89719 4.11777,4.23469 3.37108,4.17125 3.4448,4.46538 3.97852,15.87414 0.46154,9.86563 0.29892,11.86903 -1.07491,13.24286 -1.26432,1.26432 -1.35443,1.883 -0.41157,2.82586 2.07782,2.07782 1.34405,2.80714 -2.82424,2.80714 -2.66945,0 -4.22677,-0.50916 -4.60973,-1.50714 z m 9.92995,-10.74466 c -0.11614,-6.73651 -0.70533,-18.176 -1.30931,-25.4211 -0.78909,-9.46567 -0.79374,-14.30334 -0.0165,-17.18969 1.20445,-4.47299 3.70725,-5.91944 7.10033,-4.10352 2.10338,1.1257 2.12475,1.40454 1.28777,16.8054 -0.4681,8.61339 -0.8511,20.83045 -0.8511,27.14902 l 0,11.48831 2.9175,0.51169 c 1.60463,0.28143 3.10463,1.07419 3.33334,1.76169 0.30349,0.91231 -1.29513,1.24951 -5.91751,1.2482 L 651.5,277.99641 651.28884,265.7482 z M 618.18199,230.50423 C 616.98189,228.97856 616,226.91649 616,225.92185 c 0,-2.48793 3.52075,-4.73612 6.51927,-4.16292 3.28523,0.62801 3.36766,5.09842 0.16272,8.82439 l -2.31802,2.69486 -2.18198,-2.77395 z M 660,228.91206 c 0,-2.53475 0.32246,-3.0023 1.70479,-2.47185 4.61922,1.77256 10.46751,1.78584 14.35551,0.0326 2.96627,-1.3376 4.29789,-1.51462 5.13049,-0.68202 2.29625,2.29625 -1.03115,4.02682 -8.99678,4.6792 -4.23171,0.34658 -8.70651,0.84119 -9.94401,1.09913 -1.95351,0.40718 -2.25,0.0571 -2.25,-2.65706 z m 0,-6.32043 C 660,220.07331 664.10002,216 666.63486,216 c 1.76159,0 1.86838,6.90773 0.11514,7.44786 -5.67919,1.74961 -6.75,1.61378 -6.75,-0.85623 z m -63.33333,-2.2583 c -1.68515,-1.68514 -0.18823,-3.0228 5.77666,-5.16204 4.96621,-1.78108 7.49108,-2.15371 11.01378,-1.62545 2.95152,0.44261 5.67573,0.22756 7.69076,-0.60709 2.78735,-1.15456 3.27009,-1.08764 4.52396,0.62713 3.37769,4.61927 -0.42762,8.69932 -5.80336,6.22237 -8.40116,-3.87096 -10.11915,-4.00958 -16.22531,-1.30914 -6.43019,2.84373 -6.08005,2.75067 -6.97649,1.85422 z M 30.586055,216.36366 c -0.906928,-2.36342 1.228624,-6.41512 5.149442,-9.76984 3.332386,-2.85125 3.43103,-2.87015 5.218784,-1 1.773692,1.85544 1.668337,2.04601 -3.957877,7.15925 -4.691063,4.26334 -5.898822,4.94361 -6.410349,3.61059 z m 12.080131,-12.18003 c -1.553675,-1.71679 -1.027669,-2.42179 9.595012,-12.86015 12.721618,-12.50087 14.766106,-13.91442 17.78686,-12.29776 2.289342,1.22522 1.937478,4.05496 -0.916339,7.36933 C 67.163152,188.68131 45.76922,206 44.913552,206 c -0.331967,0 -1.343282,-0.81736 -2.247366,-1.81637 z m 493.770904,-6.26071 -2.93709,-3.07708 2.80576,-2.42292 c 3.36943,-2.90967 4.74745,-3.01017 7.76545,-0.56634 2.25549,1.82638 2.26466,1.91585 0.56387,5.5 -2.13113,4.49102 -4.3083,4.64142 -8.19799,0.56634 z m 62.48011,2.14747 c -0.87054,-0.54045 -4.62287,-4.81886 -8.33852,-9.50758 -3.71564,-4.68873 -7.95256,-9.3968 -9.41537,-10.46238 -3.91551,-2.85226 -1.88883,-3.7059 4.09882,-1.72644 4.33469,1.43301 6.16466,2.85681 10.61263,8.25709 7.57828,9.20077 7.93261,9.28556 18.49946,4.42676 4.8537,-2.23181 9.21855,-4.05784 9.69967,-4.05784 0.48111,0 1.60179,1.40594 2.4904,3.12432 1.47301,2.8485 1.47605,3.26391 0.0344,4.70554 -2.71748,2.71749 -24.96218,6.92875 -27.68151,5.24053 z m 53.57394,-4.8357 C 651.93627,194.83061 648.5121,191.125 644.88187,187 c -9.01789,-10.24696 -10.86634,-14 -6.89529,-14 1.298,0 2.45952,1.13191 3.35104,3.26562 1.46836,3.51428 6.4341,8.30264 12.73536,12.28045 4.33902,2.7391 4.6707,3.56739 2.35559,5.8825 -1.74401,1.74401 -2.45082,1.88872 -3.93743,0.80612 z m -105.88415,-1.81648 c -0.98222,-2.55962 -0.70307,-5.33459 0.77493,-7.70339 0.76006,-1.21815 1.65677,-4.07345 1.99268,-6.3451 0.56218,-3.80184 0.21372,-4.67487 -4.38193,-10.97859 C 542.2467,164.62456 540,160.97069 540,160.27141 c 0,-2.59943 3.58238,-1.13551 6,2.45187 1.375,2.04029 3.98597,5.67186 5.80215,8.07014 3.05865,4.03898 3.21834,4.61447 2.1656,7.80429 -0.64556,1.95609 -0.84371,5.17697 -0.45869,7.45592 0.4929,2.91743 0.23678,4.68532 -0.93866,6.47927 -1.82603,2.78687 -5.05005,3.2655 -5.96341,0.88531 z m 106.87793,-6.44261 c -1.24829,-2.01977 0.60849,-6.69713 3.11125,-7.83746 3.8619,-1.7596 4.40383,-1.42717 4.40383,2.70134 0,3.14395 -0.46141,4.04972 -2.54705,5 -3.13281,1.42741 -4.1527,1.45535 -4.96803,0.13612 z M 426,180.38421 c 0,-0.33868 0.7875,-2.85345 1.75,-5.58837 1.33287,-3.78732 3.2544,-6.29552 8.06147,-10.52274 4.19333,-3.68752 5.97701,-5.88462 5.31486,-6.54677 -0.54813,-0.54813 -5.17226,-1.7233 -10.27583,-2.61147 -8.20729,-1.42831 -9.45212,-1.92346 -10.77592,-4.28623 -1.2744,-2.27461 -1.29594,-3.0465 -0.14504,-5.19697 2.3239,-4.34225 3.80826,-4.26615 12.52347,0.64209 2.45638,1.38338 5.96871,5.06579 9.27704,9.72625 l 5.32403,7.5 -3.27704,2.86473 c -1.80237,1.5756 -6.28266,5.5131 -9.95619,8.75 C 427.39521,180.77662 426,181.71667 426,180.38421 z m 138.5,-1.46824 c -7.42,-3.55144 -10.34025,-6.03037 -15.19368,-12.89752 -4.97084,-7.03326 -5.18337,-7.57618 -3.54699,-9.06082 0.95737,-0.8686 5.22764,-4.88994 9.48949,-8.9363 4.26184,-4.04637 8.022,-7.08384 8.35591,-6.74994 1.59543,1.59544 -3.3015,10.62452 -8.88279,16.3783 -7.03106,7.24836 -6.95688,7.36273 6.06052,9.34418 6.37549,0.97046 8.62035,1.74313 9.75,3.35594 1.99822,2.85286 1.84381,4.86919 -0.57142,7.46163 -2.25466,2.4201 -2.57645,2.48518 -5.46104,1.10453 z m -68.35391,-4.99449 c -2.25483,-2.10069 -2.21698,-4.77756 0.10862,-7.68338 0.55547,-0.69405 1.73789,-2.70445 2.62761,-4.46755 0.92635,-1.8357 4.82286,-5.47471 9.11768,-8.51514 l 7.5,-5.30949 2.86473,3.27704 c 1.5756,1.80237 5.56359,6.33905 8.8622,10.08151 3.2986,3.74246 5.76366,7.03827 5.47791,7.32403 -0.28576,0.28575 -2.85102,-0.30126 -5.70057,-1.30447 -4.02994,-1.41878 -6.4238,-3.2373 -10.77479,-8.18518 -6.72848,-7.65152 -7.28425,-7.32771 -9.16924,5.34234 -0.99447,6.68438 -1.73524,8.87819 -3.38895,10.0365 -2.88504,2.02076 -4.88641,1.86219 -7.5252,-0.59621 z m 44.42534,-4.49291 C 539.70714,168.56429 539,167.24084 539,166.48759 c 0,-2.79399 1.8546,-2.36699 4.43963,1.02215 2.47758,3.24827 2.52491,3.49026 0.68269,3.49026 -1.0887,0 -2.68661,-0.70714 -3.55089,-1.57143 z M 80.75,161.9199 c -2.456395,-1.43072 -2.176667,-3.59423 0.70919,-5.48512 1.352554,-0.88622 6.131468,-7.89268 10.619809,-15.56991 4.488341,-7.67722 8.392331,-13.72688 8.675531,-13.44368 0.97832,0.97833 -14.070103,33.20863 -16.25453,34.8135 -1.285574,0.94449 -1.638862,0.91484 -3.75,-0.31479 z M 445,159.27672 c -1.375,-2.04029 -3.98597,-5.67186 -5.80215,-8.07014 -3.05865,-4.03898 -3.21834,-4.61447 -2.1656,-7.80429 0.64556,-1.95609 0.84371,-5.17697 0.45869,-7.45592 -0.4929,-2.91743 -0.23678,-4.68532 0.93866,-6.47927 4.02494,-6.14284 9.10784,0.5365 5.18848,6.81808 -0.76006,1.21815 -1.65677,4.07345 -1.99268,6.3451 -0.56218,3.80184 -0.21372,4.67487 4.38193,10.97859 2.74597,3.76657 4.99267,7.42044 4.99267,8.11972 0,2.59943 -3.58238,1.13551 -6,-2.45187 z M 88,158.52417 c 0,-0.26171 0.898318,-1.94921 1.996262,-3.75 1.95119,-3.20024 1.996346,-3.2166 2,-0.72417 0.0021,1.4025 -0.536262,3.09 -1.196262,3.75 -1.20302,1.20302 -2.8,1.61605 -2.8,0.72417 z m 407,-0.65613 c -1.375,-0.55285 -4.44253,-0.71725 -6.81674,-0.36533 -3.12839,0.46371 -4.98659,0.20095 -6.75,-0.95448 -6.11673,-4.00784 0.59634,-9.06945 6.85192,-5.16631 1.21815,0.76006 4.07345,1.65677 6.3451,1.99268 3.80184,0.56218 4.67487,0.21372 10.97859,-4.38193 7.30641,-5.32665 9.39113,-6.04472 9.39113,-3.23473 0,1.04583 -2.64708,3.55301 -6.53463,6.18926 -3.59404,2.43722 -7.02414,5.02115 -7.62244,5.74206 -1.26617,1.52564 -2.40638,1.56053 -5.84293,0.17878 z m -47.43963,-3.37778 C 445.08279,151.24199 445.03546,151 446.87768,151 c 2.27939,0 5.12232,2.50443 5.12232,4.51241 0,2.79399 -1.8546,2.36699 -4.43963,-1.02215 z M 160.07258,154.36514 C 158.93266,152.91597 158,151.3568 158,150.90033 c 0,-1.581 3.56739,-2.72051 14.84277,-4.74113 l 11.32781,-2.03002 10.66471,3.50731 c 5.86559,1.92901 12.65228,3.81265 15.08153,4.18586 5.92758,0.91067 6.30642,2.76713 0.73516,3.60259 -3.23264,0.48476 -7.20734,-0.0378 -14.66399,-1.92798 l -10.22932,-2.593 -10.25298,3.04802 C 169.86655,155.62839 164.55351,157 163.69893,157 c -0.85457,0 -2.48643,-1.18569 -3.62635,-2.63486 z M 131.5,148.83574 c -1.1,-0.60689 -3.21875,-2.23443 -4.70833,-3.61676 C 123.2307,141.91442 112.23245,134.33473 108.75,132.78517 105.96661,131.54667 105.06303,130 107.12287,130 c 0.61757,0 5.90507,2.41378 11.75,5.36395 5.84492,2.95017 12.29313,5.90297 14.32935,6.56178 4.4144,1.42826 5.99303,4.72712 3.2292,6.74807 -2.15724,1.57742 -2.35413,1.58389 -4.93142,0.16194 z m 344.25,-0.49638 c -3.553,-1.87145 -3.48181,-4.26406 0.23277,-7.82285 2.89371,-2.77235 3.04223,-2.80386 4.97447,-1.05521 2.89785,2.62252 3.42859,5.3009 1.60264,8.08766 -1.80297,2.75168 -2.8546,2.87373 -6.80988,0.7904 z M 503,148.12232 C 503,145.84293 505.50443,143 507.51241,143 c 2.79399,0 2.36699,1.8546 -1.02215,4.43963 C 503.24199,149.91721 503,149.96454 503,148.12232 z m -380.9721,-2.5887 c -1.97732,-2.38253 -0.78809,-3.75438 1.7273,-1.99253 1.23464,0.86478 2.2448,1.9968 2.2448,2.51561 0,1.45843 -2.6132,1.1143 -3.9721,-0.52308 z m 268.04468,-7.16848 c -2.55168,-3.24394 -2.58836,-4.50661 -0.216,-7.43635 1.82638,-2.25549 1.91585,-2.26466 5.5,-0.56387 2.16316,1.02648 3.64342,2.44641 3.64342,3.49491 0,1.63056 -4.80894,7.14017 -6.23214,7.14017 -0.34248,0 -1.55536,-1.18569 -2.69528,-2.63486 z m -27.50382,-3.25388 c -0.3021,-0.48881 1.02134,-2.08671 2.94098,-3.55089 3.24827,-2.47758 3.49026,-2.52491 3.49026,-0.68269 0,3.51544 -4.88688,6.7324 -6.43124,4.23358 z M 357.00683,133.25 c 0.004,-0.9625 1.67616,-2.875 3.71645,-4.25 2.04029,-1.375 5.67186,-3.98597 8.07014,-5.80215 4.03898,-3.05865 4.61447,-3.21834 7.80429,-2.1656 1.95609,0.64556 5.17697,0.84371 7.45592,0.45869 2.91743,-0.4929 4.68532,-0.23678 6.47927,0.93866 6.14284,4.02494 -0.5365,9.10784 -6.81808,5.18848 -1.21815,-0.76006 -4.07345,-1.65677 -6.3451,-1.99268 -3.80184,-0.56218 -4.67487,-0.21372 -10.97859,4.38193 -7.29966,5.32173 -9.39524,6.04584 -9.3843,3.24267 z m 89.92196,-3.10658 c -2.25549,-1.82638 -2.26466,-1.91585 -0.56387,-5.5 2.13113,-4.49102 4.3083,-4.64142 8.19799,-0.56634 l 2.93709,3.07708 -2.80576,2.42292 c -3.36943,2.90967 -4.74745,3.01017 -7.76545,0.56634 z m -95.49685,-4.91389 c -2.62681,-3.15124 -6.58304,-7.6326 -8.79161,-9.95856 -2.20858,-2.32597 -3.74785,-4.49679 -3.4206,-4.82403 0.32724,-0.32725 2.92645,0.22582 5.776,1.22903 4.02154,1.41583 6.4231,3.23649 10.73117,8.1355 3.68752,4.19333 5.88462,5.97701 6.54677,5.31486 0.54813,-0.54813 1.7233,-5.17226 2.61147,-10.27583 1.42831,-8.20729 1.92346,-9.45212 4.28623,-10.77592 2.27461,-1.2744 3.0465,-1.29594 5.19697,-0.14504 4.34213,2.32384 4.26679,3.79457 -0.64209,12.53388 -1.24582,2.21794 -4.86863,5.85708 -8.22625,8.26331 -9.71745,6.964 -8.71208,6.92807 -14.06806,0.5028 z M 101.75,125.31067 c -1.54752,-0.4044 -1.75,-1.88632 -1.75,-12.8077 0,-6.79272 -0.522459,-14.613805 -1.161019,-17.3802 C 97.552121,89.547792 98.589778,87 102.1472,87 c 3.26227,0 4.07563,4.312971 2.3703,12.568979 -2.04406,9.895941 -2.0538,23.287991 -0.0175,24.069391 0.825,0.31659 1.5,0.97746 1.5,1.46862 0,0.92666 -1.25355,0.98674 -4.25,0.20368 z M 87.5,113.53911 c -6.05,-5.3591 -11.642306,-10.35614 -12.427346,-11.10453 -1.152712,-1.09889 -1.198953,-1.86197 -0.240327,-3.965924 1.674609,-3.675366 5.165675,-2.97446 7.390834,1.483868 0.947739,1.898886 5.142748,7.188916 9.322242,11.755616 4.358717,4.76253 7.461672,9.00065 7.276839,9.93895 -0.232149,1.17849 -3.397639,-1.08835 -11.322242,-8.10798 z m 149.5,8.8451 c 0,-0.33868 0.7875,-2.85345 1.75,-5.58837 1.33287,-3.78732 3.2544,-6.29552 8.06147,-10.52274 4.19333,-3.68752 5.97701,-5.88462 5.31486,-6.546769 -0.54813,-0.548136 -5.17226,-1.723297 -10.27583,-2.611471 -8.20729,-1.428312 -9.45212,-1.923456 -10.77592,-4.286234 -1.2744,-2.274604 -1.29594,-3.046492 -0.14504,-5.196963 2.3239,-4.342255 3.80826,-4.266151 12.52347,0.642082 2.45638,1.383384 5.96871,5.06579 9.27704,9.726255 l 5.32403,7.5 -3.27704,2.86473 c -1.80237,1.5756 -6.28266,5.5131 -9.95619,8.75 C 238.39521,122.77662 237,123.71667 237,122.38421 z m -49,-5.74805 c 0,-5.27466 2.67274,-8.07778 6.3655,-6.676 1.68278,0.63879 2.10904,1.59014 2.0142,4.49535 -0.14166,4.33971 -0.79393,5.105 -5.1297,6.01859 l -3.25,0.68481 0,-4.52275 z m -7,-11.14694 c -6.875,-1.78708 -13.5125,-3.02946 -14.75,-2.76082 -3.47677,0.75472 -2.81849,-2.33457 0.76354,-3.583275 2.33973,-0.815636 5.07874,-0.594702 12.25,0.988105 7.62993,1.68405 9.81414,1.83402 12.55772,0.86221 2.84513,-1.00778 3.60455,-0.92006 5.29733,0.61189 1.21242,1.09721 1.86117,2.77462 1.67874,4.34049 -0.40991,3.51853 -2.72679,3.45883 -17.79733,-0.4586 z M 85.235696,103.73899 C 83.668484,101.77943 82.756472,98 83.850825,98 86.348162,98 88,99.412492 88,101.54797 c 0,2.79991 -1.393788,3.90464 -2.764304,2.19102 z M 256,101.27672 c -1.375,-2.040293 -3.98597,-5.671856 -5.80215,-8.070142 -3.05865,-4.038976 -3.21834,-4.614466 -2.1656,-7.804284 0.64556,-1.95609 0.84371,-5.176977 0.45869,-7.455924 -0.4929,-2.917431 -0.23678,-4.685319 0.93866,-6.479266 4.02494,-6.142842 9.10784,0.536496 5.18848,6.818079 -0.76006,1.218149 -1.65677,4.073444 -1.99268,6.345099 -0.56218,3.801837 -0.21372,4.674868 4.38193,10.978587 2.74597,3.766567 4.99267,7.420441 4.99267,8.119721 0,2.59943 -3.58238,1.13551 -6,-2.45187 z m 57.14609,-0.35524 c -2.25483,-2.100694 -2.21698,-4.777561 0.10862,-7.683383 0.55547,-0.694046 1.73789,-2.704445 2.62761,-4.467552 0.92635,-1.835691 4.82286,-5.4747 9.11768,-8.515139 l 7.5,-5.30949 2.86473,3.277042 c 1.5756,1.802373 5.56359,6.339053 8.8622,10.081511 3.2986,3.742458 5.76366,7.03827 5.47791,7.324026 -0.28576,0.285757 -2.85102,-0.301254 -5.70057,-1.304468 -4.02994,-1.418779 -6.4238,-3.237298 -10.77479,-8.185174 -6.72848,-7.651524 -7.28425,-7.327711 -9.16924,5.342337 -0.99447,6.684377 -1.73524,8.87819 -3.38895,10.0365 -2.88504,2.02076 -4.88641,1.86219 -7.5252,-0.59621 z M 105.61006,98.25 c 0.35648,-1.5125 1.02099,-3.158428 1.47667,-3.657618 C 108.35951,93.198074 111,95.917372 111,98.622445 111,100.60084 110.49314,101 107.98095,101 c -2.78398,0 -2.96859,-0.21413 -2.37089,-2.75 z M 258.56037,96.490256 C 256.08279,93.241994 256.03546,93 257.87768,93 260.15707,93 263,95.50443 263,97.512412 c 0,2.793988 -1.8546,2.366993 -4.43963,-1.022156 z M 200,86.879442 C 196.22125,85.377338 183.15759,75.090854 182.59972,73.178257 181.8765,70.698772 182.32025,42 183.08181,42 c 0.35834,0 1.61154,2.310009 2.78486,5.133353 1.55681,3.746094 2.13333,7.241675 2.13333,12.9349 0,11.171026 0.52359,12.052336 9.50536,15.999534 5.57871,2.451661 8.07226,4.148527 9.14517,6.223309 2.45673,4.750792 -0.72306,6.944599 -6.65053,4.588346 z M 312,84.86804 c -1.375,-0.552853 -4.44253,-0.717253 -6.81674,-0.365333 -3.12839,0.46371 -4.98659,0.200953 -6.75,-0.954479 -6.11673,-4.007836 0.59634,-9.069445 6.85192,-5.166303 1.21815,0.760058 4.07345,1.656761 6.3451,1.992673 3.80184,0.562182 4.67487,0.213726 10.97859,-4.381924 C 329.91528,70.66602 332,69.94795 332,72.757944 c 0,1.045827 -2.64708,3.553004 -6.53463,6.189258 -3.59404,2.437223 -7.02414,5.021148 -7.62244,5.742056 -1.26617,1.525645 -2.40638,1.560533 -5.84293,0.178782 z M 52.891565,79.285539 c -3.025462,-2.632046 -7.051253,-5.97138 -8.946202,-7.420742 -3.419748,-2.615611 -3.4312,-2.650925 -1.540375,-4.75 C 43.452731,65.951659 44.654595,65 45.075796,65 c 1.521745,0 16.252063,9.541297 17.28683,11.197231 1.342572,2.148514 -0.269361,7.161127 -2.437089,7.578593 -0.843223,0.16239 -4.008511,-1.858238 -7.033972,-4.490285 z M 292.75,75.339355 c -3.553,-1.871445 -3.48181,-4.264057 0.23277,-7.822846 2.89371,-2.77235 3.04223,-2.803856 4.97447,-1.055207 2.89785,2.622518 3.42859,5.300898 1.60264,8.087661 -1.80297,2.751673 -2.8546,2.873731 -6.80988,0.790392 z M 320,75.12232 C 320,72.842935 322.50443,70 324.51241,70 c 2.79399,0 2.36699,1.854605 -1.02215,4.439634 C 320.24199,76.917205 320,76.964538 320,75.12232 z m -62.07121,-2.978902 c -2.25549,-1.826381 -2.26466,-1.915849 -0.56387,-5.5 2.13113,-4.491015 4.3083,-4.64142 8.19799,-0.56634 l 2.93709,3.077078 -2.80576,2.422922 c -3.36943,2.909675 -4.74745,3.010175 -7.76545,0.56634 z M 33,63.34269 C 29.975,60.856236 24.4625,56.839896 20.75,54.417489 14.293789,50.20481 12.438817,48 15.350777,48 c 3.185355,0 8.778307,2.723575 17.979688,8.755489 l 9.830464,6.444307 -2.254778,2.400102 c -1.240129,1.320056 -2.288838,2.369393 -2.330465,2.331859 C 38.534059,67.894224 36.025,65.829144 33,63.34269 z m 67.09085,1.431171 C 98.472479,62.182443 98.183939,57.671946 97.626444,26.25 97.399565,13.4625 97.555805,3 97.973643,3 c 1.51778,0 5.026427,10.383219 5.029317,14.883353 0.002,2.539156 0.76247,11.591647 1.69075,20.116647 0.92829,8.525 1.67921,17.835813 1.66871,20.690695 -0.0278,7.550501 -3.3455,10.768558 -6.27157,6.083166 z"
       id="path2997"
       style="fill:#fefefe" />
    <path
       d="M 0,146.5 0,0 346,0 692,0 692,146.5 692,293 346,293 0,293 0,146.5 z m 677.07003,131.75181 c -10.01822,-0.28107 -11.60001,-0.56345 -12.8067,-2.28624 C 663.50612,274.8845 661.78711,274 660.4433,274 c -2.43125,0 -2.44278,-0.0481 -2.33733,-9.75 0.19171,-17.63977 1.29603,-30.26506 2.72433,-31.14641 0.73166,-0.45149 5.23034,-1.12066 9.99705,-1.48706 6.69206,-0.51439 9.11587,-1.11531 10.63795,-2.63739 1.8546,-1.8546 1.87073,-2.07168 0.27264,-3.66977 -1.59708,-1.59708 -1.91089,-1.59732 -5.25218,-0.004 -3.7362,1.78167 -8.29882,2.03549 -12.48576,0.6946 l -2.5,-0.80064 2.55,-0.0997 c 3.78766,-0.14806 4.95,-1.93259 4.95,-7.59968 0,-5.97917 -1.17194,-7.5 -5.77946,-7.5 -3.1513,0 -3.34289,-0.18566 -2.83787,-2.75 2.0053,-10.18238 1.4626,-16.49153 -1.58033,-18.37216 -0.6535,-0.40388 -0.23835,-1.10931 1.06256,-1.80554 1.77111,-0.94786 2.1351,-2.05344 2.1351,-6.48504 0,-6.57974 -1.31951,-7.8646 -7.71623,-7.51361 -2.63107,0.14437 -5.59997,-0.0973 -6.59754,-0.53704 -1.02162,-0.45034 -2.86217,-0.32184 -4.21429,0.29422 -1.51049,0.68823 -2.62102,0.73697 -2.99525,0.13146 -0.90728,-1.46802 -4.46891,-1.14613 -5.08508,0.45957 -0.75977,1.97994 1.07445,5.10136 7.09742,12.07814 l 5.17973,6 -0.14551,15.5 -0.14552,15.5 -3.8224,5 c -5.35467,7.00432 -7.9682,12.71884 -7.20595,15.7559 0.34545,1.37638 3.11027,5.96215 6.14404,10.19059 l 5.51594,7.68809 -4.1144,6.92557 c -2.26929,3.81977 -3.85505,7.60146 -3.53607,8.43271 C 640.8733,277.8334 611.31594,278 372.96862,278 L 105,278 l 0,-24.28037 0,-24.28037 10.0491,-1.20174 c 16.82335,-2.01185 32.76938,-8.24854 45.4509,-17.77639 4.6248,-3.4747 6.07655,-4.14606 6.33398,-2.92918 0.50563,2.39008 2.42905,1.21444 3.42664,-2.09445 0.48709,-1.61563 1.3784,-3.94932 1.98067,-5.18599 1.73936,-3.57147 0.11199,-3.84141 -5.76924,-0.95699 -5.65597,2.77395 -7.43363,5.23591 -2.97205,4.11612 1.375,-0.3451 2.5,-0.39182 2.5,-0.10381 0,1.44756 -13.5824,10.50006 -21.5,14.32949 -10.20439,4.93546 -21.02434,7.96532 -31.99522,8.95948 L 105,227.27586 l 0,-46.57891 c 0,-30.07776 0.35545,-46.7986 1.00336,-47.19902 0.55184,-0.34106 4.06992,1.28011 7.81795,3.6026 l 6.8146,4.22272 -1.54239,4.28918 c -1.48715,4.13561 -1.45886,4.40215 0.79035,7.44437 2.15297,2.91204 2.20755,3.28035 0.70826,4.77964 -1.37122,1.37122 -1.9489,1.42184 -3.70567,0.32472 -2.70391,-1.68861 -3.97944,-0.43354 -1.44376,1.4206 2.84359,2.07928 5.30233,1.737 7.08688,-0.98656 0.86663,-1.32264 2.68845,-2.68409 4.04849,-3.02544 1.36004,-0.34135 3.33298,-1.48081 4.3843,-2.53213 1.52429,-1.52429 2.48136,-1.72674 4.72457,-0.99943 1.54718,0.50164 8.8109,2.05466 16.14159,3.45116 l 13.32854,2.53907 10.3008,-3.06224 10.3008,-3.06223 10.22932,2.593 c 10.12967,2.56773 18.14906,2.70835 19.6104,0.34385 C 216.5642,153.27809 213.90696,151 211.11834,151 c -1.45022,0 -8.11108,-1.77196 -14.80192,-3.93769 l -12.16515,-3.93769 -10.78178,1.94431 c -11.65446,2.10169 -19.35833,1.55819 -25.82702,-1.82207 -1.67336,-0.87442 -5.65762,-1.65797 -8.85392,-1.74121 -4.93452,-0.12851 -7.57521,-1.03844 -17.5,-6.03015 -6.4287,-3.23334 -11.83012,-6.21278 -12.00316,-6.62097 -0.17303,-0.4082 -0.96053,-0.49431 -1.75,-0.19136 -0.78946,0.30294 -1.43539,0.0902 -1.43539,-0.47285 0,-0.56301 0.53437,-1.20178 1.1875,-1.41949 0.76429,-0.25476 0.40789,-1.17544 -1,-2.58333 -1.87666,-1.87666 -2.18556,-3.28875 -2.17385,-9.9375 0.0199,-11.2674 0.42712,-12.25 5.0773,-12.25 3.30462,0 4.08809,-0.44555 5.46475,-3.107704 0.95601,-1.84873 1.35408,-4.115607 0.98262,-5.595653 -0.79949,-3.185398 1.13957,-5.808857 3.09436,-4.186529 C 119.38471,89.73424 120,90.864789 120,91.622445 120,92.3801 120.45,93 121,93 c 1.25762,0 1.26418,-1.174963 0.0247,-4.4349 -1.06781,-2.808561 -3.51748,-3.2661 -6.27593,-1.172193 -0.96314,0.731114 -2.76314,1.135576 -4,0.898803 -2.1948,-0.420155 -2.24537,-0.7231 -2.1051,-12.611103 C 108.72277,68.981273 108.18284,59.45 107.44388,54.5 105.82526,43.657488 104,24.167034 104,17.72556 104,10.51081 98.617458,-0.47706224 96.664041,2.75 96.414345,3.1625 96.573248,18.125 97.017158,36 c 0.537285,21.634943 0.457714,34.729142 -0.238017,39.167899 -0.777823,4.962513 -0.721842,8.543162 0.218883,14 0.695204,4.032656 1.43787,12.282101 1.650369,18.332101 l 0.386361,11 -6.131829,-6.5 c -5.358083,-5.6798 -5.86474,-6.54036 -4.015185,-6.81984 2.820642,-0.42621 4.436464,-3.68996 3.735403,-7.545 -0.313581,-1.724338 -0.771903,-5.012492 -1.018494,-7.307009 -0.265664,-2.471993 -1.329063,-5.052565 -2.609832,-6.333334 -2.520819,-2.520819 -4.074837,-1.849231 -1.733264,0.749052 0.870444,0.965872 1.891469,2.993631 2.268944,4.506131 0.635266,2.545438 0.46118,2.75 -2.340302,2.75 -1.664641,0 -3.625924,0.225702 -4.358408,0.50156 C 82.076898,92.785857 80.799339,91.767821 79.8825,90.151389 77.947202,86.739363 61.274839,73.270446 52.939461,68.385215 49.672757,66.470652 47,64.479208 47,63.959782 c 0,-0.519426 2.241915,-2.410369 4.982033,-4.202096 2.740118,-1.791727 4.990118,-3.854978 5,-4.585002 0.01039,-0.767378 -2.688198,0.564429 -6.396915,3.157007 L 44.170236,62.814013 33.796513,56.010484 C 22.779787,48.785245 15.734817,45.865183 13.855036,47.744964 c -1.556546,1.556546 -0.357098,2.959373 6.005266,7.023521 3.101834,1.981389 8.456628,5.813606 11.899543,8.516038 l 6.259845,4.913514 -5.0398,5.514345 c -9.785319,10.706697 -17.153858,24.284912 -21.166354,39.003838 -2.8205419,10.34651 -3.0931044,33.33387 -0.517119,43.61269 2.151172,8.5837 6.764369,19.72903 11.248074,27.17496 C 24.445021,186.66001 26,189.41279 26,189.62115 26,189.82952 25.048925,190 23.886501,190 c -2.375403,0 -2.37611,-0.0168 0.547305,13 0.926424,4.125 4.57605,21.675 8.110279,39 3.534229,17.325 6.663329,32.50104 6.953555,33.72454 0.526187,2.21823 0.482926,2.22541 -15.234977,2.5273 -8.669465,0.16651 137.237337,0.30677 324.237337,0.3117 187,0.005 334.85651,-0.13536 328.57003,-0.31173 z M 43,277.67933 C 43,277.04003 35.150041,238.4274 34.475754,235.75 L 33.783184,233 67.891592,233 102,233 l 0,22.5 0,22.5 -29.5,0 C 56.275,278 43,277.8557 43,277.67933 z m 606.56429,-3.97246 c 0.37553,-0.98622 0.93469,-1.54122 1.24258,-1.23333 0.30789,0.30789 6.4e-4,1.11479 -0.68278,1.79313 -0.98762,0.98026 -1.10248,0.8654 -0.5598,-0.5598 z m -1.48534,-30.2902 c 0.048,-1.16495 0.28494,-1.4019 0.60416,-0.60417 0.28887,0.72187 0.25335,1.58437 -0.0789,1.91667 -0.33229,0.33229 -0.56864,-0.25834 -0.52522,-1.3125 z M 33.559308,229.75 c -0.207857,-0.6875 -0.849711,-3.275 -1.426342,-5.75 -1.026781,-4.40712 -0.971895,-4.57913 2.659307,-8.33376 2.03925,-2.10856 4.889669,-4.68714 6.334265,-5.73018 l 2.626537,-1.89642 8.018251,5.36692 C 64.005064,221.59507 79.46781,226.99601 95.25,228.59311 110.26238,230.11231 100.2007,231 67.968615,231 41.611733,231 33.852004,230.71811 33.559308,229.75 z m 53.782265,-4.22947 c -3.937135,-0.71443 -9.562135,-2.08025 -12.5,-3.03515 -7.101343,-2.30816 -21.550612,-9.75345 -25.643667,-13.21343 L 45.91877,206.5 l 10.17922,-8 c 17.206777,-13.52306 28.496454,-26.81487 30.365019,-35.75 0.316302,-1.5125 1.171777,-2.75 1.901055,-2.75 2.479401,0 4.724188,-3.61986 4.481302,-7.22638 -0.289221,-4.29452 7.044918,-21.55007 8.311244,-19.55446 0.44702,0.70446 0.81966,22.09334 0.82808,47.53084 L 102,227 98.25,226.9098 c -2.0625,-0.0496 -6.971292,-0.67479 -10.908427,-1.38922 z M 29.630545,211 c -1.512854,-3.76766 -3.353573,-15.38401 -2.77409,-17.50664 0.60678,-2.22262 0.95527,-2.00972 6.100086,3.7266 l 5.456541,6.08389 -3.55407,3.09808 c -1.954738,1.70394 -3.795291,3.77307 -4.090116,4.59807 -0.476485,1.33333 -0.602969,1.33333 -1.138351,0 z m 5.733783,-14.21671 C 25.298412,186.42286 17.630453,172.3412 13.428651,156.5 c -2.603567,-9.8157 -2.603567,-32.1843 0,-42 4.129194,-15.567464 12.665853,-31.269204 21.95885,-40.389591 l 4.426364,-4.344147 4.843067,3.690653 c 8.433245,6.426542 21.420391,18.705316 23.842261,22.541807 1.283905,2.033837 8.880326,9.496488 16.880935,16.583678 l 14.546562,12.88579 -3.148422,5.5159 c -1.731633,3.03375 -4.06851,7.16695 -5.193061,9.18489 -1.866787,3.34984 -2.473517,3.6979 -6.97518,4.00151 -4.144373,0.2795 -5.35702,-0.0663 -7.605253,-2.16898 C 75.533682,140.62568 74.092405,138.825 73.801935,138 c -0.290469,-0.825 -0.847914,-1.20432 -1.238767,-0.84293 -0.948199,0.87672 2.022002,6.5114 4.022476,7.63092 1.033123,0.57817 1.707354,2.64691 1.934827,5.93664 0.30155,4.36102 0.0036,5.37133 -2.1859,7.4123 -1.394271,1.29969 -3.793517,4.84579 -5.331657,7.88022 -3.808848,7.51407 -7.697916,12.40614 -20.0042,25.16335 l -10.501287,10.88607 -5.133099,-5.28328 z M 645.0003,180.34756 c -2.79039,-3.17808 -2.99604,-3.77044 -1.58341,-4.56098 3.09164,-1.73018 5.07949,-0.10136 5.13183,4.20497 0.0268,2.20465 -0.0391,4.00845 -0.1464,4.00845 -0.10733,0 -1.63823,-1.6436 -3.40202,-3.65244 z m -16.6018,52.57983 c 1.93205,-1.13994 3.7752,-2.8993 4.09589,-3.9097 0.32068,-1.01039 1.24908,-2.38982 2.06309,-3.0654 1.19493,-0.9917 1.88408,-0.86462 3.5775,0.6597 2.05622,1.85089 2.09027,1.85079 1.73124,-0.005 -0.52839,-2.73096 -3.46114,-4.35247 -5.52152,-3.05282 -1.28204,0.80869 -2.17977,0.51966 -3.98121,-1.28178 l -2.32591,-2.32591 2.61273,-7.72333 c 3.25211,-9.61337 3.50108,-16.56711 0.76114,-21.25855 -3.38904,-5.80283 -5.87492,-5.95115 -16.82493,-1.00388 -11.19704,5.05888 -11.14394,5.07243 -19.1715,-4.89115 -4.09162,-5.0784 -5.79676,-6.38041 -10.17823,-7.77186 -3.98571,-1.26577 -5.54412,-1.39057 -6.42051,-0.51418 -0.87639,0.87639 -0.0843,2.19603 3.26321,5.43679 2.43128,2.35372 7.03271,7.53962 10.22541,11.52422 3.24653,4.05179 6.85649,7.50866 8.19094,7.84358 2.00185,0.50243 12.28023,-1.24957 18.75416,-3.19674 2.55908,-0.76969 2.32607,3.97806 -0.48286,9.83853 -2.23875,4.67088 -2.31723,4.72331 -6.26714,4.1871 -2.85412,-0.38745 -5.86205,0.16038 -10.5,1.91233 -6.59995,2.49308 -8.24137,4.39534 -5.64905,6.54677 1.13756,0.94409 2.63326,0.66322 7.183,-1.34889 5.68028,-2.51209 5.80703,-2.52213 11.03669,-0.87362 l 5.29042,1.66766 -2.43053,1.91185 c -3.24024,2.54878 -3.06325,4.97648 0.67306,9.2319 3.57955,4.07689 5.42023,4.33832 10.29491,1.46219 z M 543.25,214.22673 c 2.02267,-1.77614 2.26496,-4.31177 0.57363,-6.0031 -0.90183,-0.90183 -0.81559,-1.5903 0.36951,-2.95 0.85024,-0.9755 1.97906,-3.122 2.5085,-4.77002 0.75681,-2.35576 1.69335,-3.11918 4.38049,-3.57073 8.54755,-1.43635 16.55286,-7.45107 20.78568,-15.61714 1.73786,-3.35273 1.34939,-8.76989 -0.82733,-11.53715 -1.58164,-2.01073 -3.46188,-2.72409 -9.75,-3.69912 -12.66775,-1.96426 -12.33269,-1.45638 -5.56424,-8.43412 6.32326,-6.51878 10.48633,-14.83278 8.44791,-16.8712 -0.74145,-0.74145 -3.94084,1.65134 -10.7389,8.03155 -5.32555,4.9982 -10.63961,9.22414 -11.80903,9.39097 -1.55964,0.2225 -2.12622,1.01245 -2.12622,2.96447 0,1.46362 -0.3375,3.00112 -0.75,3.41666 -2.28088,2.29769 1.6648,7.4222 5.71482,7.4222 3.48228,0 4.69322,2.83072 3.63471,8.49662 -0.48064,2.57276 -1.37466,5.17851 -1.98671,5.79056 -0.61205,0.61205 -1.11282,1.93865 -1.11282,2.948 0,1.50452 -0.34852,1.64867 -1.93426,0.8 -2.94811,-1.57778 -3.73998,-1.32428 -8.06286,2.58118 -2.41173,2.17885 -4.00288,4.51026 -4.00288,5.86514 0,3.22474 3.52734,7.25578 7.0205,8.023 5.32265,1.16905 6.30396,6.69528 1.40714,7.9243 -1.3352,0.33512 -2.42764,1.08106 -2.42764,1.65764 0,1.34777 3.92852,0.17883 6.25,-1.85971 z m 11.55776,-35.23608 c 0.48578,-1.31321 1.40277,-2.56083 2.03774,-2.77248 1.84726,-0.61576 1.33462,1.30885 -0.88325,3.31599 -2.00428,1.81385 -2.02324,1.80493 -1.15449,-0.54351 z m -44.05912,5.03002 c 5.904,-3.88142 7.82842,-4.72946 8.07468,-3.55829 0.65565,3.11803 1.93131,1.38457 3.03861,-4.12907 0.62592,-3.11667 0.98147,-5.82324 0.79012,-6.01459 -0.60137,-0.60138 -9.65205,4.8061 -9.65205,5.76677 0,0.50298 1.0125,0.91675 2.25,0.91948 2.12945,0.005 2.08927,0.13571 -0.75,2.44534 -6.69673,5.4475 -12.37723,7.77105 -19.34451,7.91268 -9.5289,0.19369 -15.68485,-1.09609 -19.15074,-4.01244 C 474.35214,181.95996 473,181.27221 473,181.82221 c 0,1.92621 6.09362,6.10387 9.77944,6.70459 2.04631,0.33351 4.39556,0.77736 5.22056,0.98633 0.825,0.20897 4.53689,0.20523 8.24864,-0.008 6.13307,-0.35282 7.45567,-0.85306 14.5,-5.48416 z m -81.64765,-3.64236 c 2.87971,-3.46984 18.57337,-16.16938 20.43371,-16.53525 1.35971,-0.26742 1.9653,-1.19983 1.9653,-3.02593 0,-1.45167 0.3375,-2.97939 0.75,-3.39493 2.28088,-2.29769 -1.6648,-7.4222 -5.71482,-7.4222 -3.48228,0 -4.69322,-2.83072 -3.63471,-8.49662 0.48064,-2.57276 1.37466,-5.17851 1.98671,-5.79056 0.61205,-0.61205 1.11282,-1.93865 1.11282,-2.948 0,-1.50452 0.34852,-1.64867 1.93426,-0.8 2.94811,1.57778 3.73998,1.32428 8.06286,-2.58118 2.41173,-2.17885 4.00288,-4.51026 4.00288,-5.86514 0,-3.22474 -3.52734,-7.25578 -7.0205,-8.023 -5.32265,-1.16905 -6.30396,-6.69528 -1.40714,-7.9243 1.3352,-0.33512 2.42764,-1.08106 2.42764,-1.65764 0,-1.34777 -3.92852,-0.17883 -6.25,1.85971 -2.02267,1.77614 -2.26496,4.31177 -0.57363,6.0031 0.90183,0.90183 0.81559,1.5903 -0.36951,2.95 -0.85024,0.9755 -1.97906,3.122 -2.5085,4.77002 -0.75681,2.35576 -1.69335,3.11918 -4.38049,3.57073 -8.54755,1.43635 -16.55286,7.45107 -20.78568,15.61714 -1.74282,3.36231 -1.34924,8.77008 0.84094,11.55445 1.62248,2.06266 3.44402,2.73172 10.25,3.76492 4.55228,0.69107 8.86696,1.56879 9.58817,1.95049 0.90535,0.47915 -0.64254,2.41408 -5,6.25022 -4.88941,4.30446 -6.7163,6.71381 -8.10895,10.69433 -2.25242,6.4379 -0.92098,9.47954 2.39864,5.47964 z M 433,145.23832 c 0,-0.51059 0.91699,-1.75821 2.03775,-2.77248 2.00428,-1.81385 2.02324,-1.80493 1.15449,0.54351 C 435.31209,145.38864 433,147.00304 433,145.23832 z m 71.23871,29.78855 c 2.06266,-1.62248 2.73172,-3.44402 3.76492,-10.25 0.69107,-4.55228 1.56879,-8.86696 1.95049,-9.58817 0.47915,-0.90535 2.41408,0.64254 6.25022,5 4.34096,4.93087 6.70167,6.71217 10.79318,8.14406 7.45864,2.61028 8.66281,0.9814 3.39093,-4.5869 -7.58711,-8.01371 -14.14871,-16.24761 -14.54014,-18.24586 -0.27343,-1.39588 -1.18903,-2 -3.03118,-2 -1.45167,0 -2.97939,-0.3375 -3.39493,-0.75 -2.29769,-2.28088 -7.4222,1.6648 -7.4222,5.71482 0,3.48228 -2.83072,4.69322 -8.49662,3.63471 -2.57276,-0.48064 -5.17851,-1.37466 -5.79056,-1.98671 -0.61205,-0.61205 -1.93865,-1.11282 -2.948,-1.11282 -1.50452,0 -1.64867,-0.34852 -0.8,-1.93426 1.57778,-2.94811 1.32428,-3.73998 -2.58118,-8.06286 C 479.20479,136.59115 476.87338,135 475.5185,135 c -3.22474,0 -7.25578,3.52734 -8.023,7.0205 -1.16905,5.32265 -6.69528,6.30396 -7.9243,1.40714 C 459.23608,142.09244 458.49014,141 457.91356,141 c -1.34777,0 -0.17883,3.92852 1.85971,6.25 1.77614,2.02267 4.31177,2.26496 6.0031,0.57363 0.90183,-0.90183 1.5903,-0.81559 2.95,0.36951 0.9755,0.85024 3.12363,1.97735 4.77363,2.5047 2.08632,0.6668 3.09069,1.69636 3.29777,3.38049 1.84749,15.02481 18.65746,27.85762 27.44094,20.94854 z m -9.77287,-15.06462 c -1.81385,-2.00428 -1.80493,-2.02324 0.54351,-1.15449 1.31321,0.48578 2.56083,1.40277 2.77248,2.03774 0.61576,1.84726 -1.30885,1.33462 -3.31599,-0.88325 z m -93.17748,-17.97444 c 1.40695,-1.1067 2.85421,-3.36044 3.21614,-5.00831 1.16905,-5.32265 6.69528,-6.30396 7.9243,-1.40714 0.33512,1.3352 1.08106,2.42764 1.65764,2.42764 1.34777,0 0.17883,-3.92852 -1.85971,-6.25 -1.77614,-2.02267 -4.31177,-2.26496 -6.0031,-0.57363 -0.90183,0.90183 -1.5903,0.81559 -2.95,-0.36951 -0.9755,-0.85024 -3.122,-1.97906 -4.77002,-2.5085 -2.35576,-0.75681 -3.11918,-1.69335 -3.57073,-4.38049 -1.43635,-8.54755 -7.45107,-16.55286 -15.61714,-20.78568 -3.36231,-1.74282 -8.77008,-1.34924 -11.55445,0.84094 -2.06266,1.62248 -2.73172,3.44402 -3.76492,10.25 -0.69107,4.55228 -1.56879,8.86696 -1.95049,9.58817 -0.47915,0.90535 -2.41408,-0.64254 -6.25022,-5 -4.34096,-4.93087 -6.70167,-6.71217 -10.79318,-8.14406 -7.45864,-2.61028 -8.66281,-0.9814 -3.39093,4.5869 7.58711,8.01371 14.14871,16.24761 14.54014,18.24586 0.27343,1.39588 1.18903,2 3.03118,2 1.45167,0 2.97939,0.3375 3.39493,0.75 2.29769,2.28088 7.4222,-1.6648 7.4222,-5.71482 0,-3.48228 2.83072,-4.69322 8.49662,-3.63471 2.57276,0.48064 5.17851,1.37466 5.79056,1.98671 0.61205,0.61205 1.93865,1.11282 2.948,1.11282 1.50452,0 1.64867,0.34852 0.8,1.93426 -1.57778,2.94811 -1.32428,3.73998 2.58118,8.06286 4.0802,4.51629 6.81314,5.02608 10.672,1.99069 z M 376.25,119.96884 c -1.2375,-0.49742 -2.25,-1.36889 -2.25,-1.93662 0,-1.63173 1.53045,-1.20854 3.5,0.96778 2.00846,2.21932 1.95812,2.25834 -1.25,0.96884 z m -171.02036,9.42649 c 0.97744,-2.14525 0.88547,-3.12964 -0.52144,-5.58104 -0.93951,-1.637 -1.7082,-3.86225 -1.7082,-4.94499 0,-1.08274 -0.65759,-3.24026 -1.46131,-4.79448 -1.41396,-2.7343 -1.32988,-2.9676 2.59506,-7.20034 C 209.61486,100.96353 212,95.995607 212,90.490178 c 0,-7.616832 -1.71143,-9.615846 -12.346,-14.420601 -10.72993,-4.847836 -10.61981,-4.679239 -10.64035,-16.291064 -0.0107,-6.028277 -0.55839,-8.95324 -2.49781,-13.338613 -4.01171,-9.071186 -4.98261,-7.086535 -5.20649,10.642761 -0.14234,11.271995 0.15632,15.956547 1.11078,17.42276 0.71801,1.102981 4.97925,4.702981 9.46944,8 7.23833,5.314907 8.09656,6.278032 7.56948,8.494579 -0.9497,3.993727 -3.30512,6.958951 -6.8832,8.665221 -3.09227,1.474599 -4.0107,1.438789 -13.0561,-0.50905 -8.77402,-1.889404 -10.0709,-1.952724 -13.20175,-0.644572 -4.41014,1.842671 -4.28981,4.947931 0.19642,5.068931 4.19564,0.11316 23.48558,4.59966 23.48558,5.46232 0,0.39174 -0.675,1.27246 -1.5,1.95715 -0.95816,0.7952 -1.5,3.00679 -1.5,6.12244 0,7.7501 4.76169,10.9437 11,7.37756 1.375,-0.78602 3.01372,-1.44508 3.64159,-1.46456 1.57694,-0.0489 2.71099,5.01198 1.41377,6.3092 -1.34073,1.34073 -1.35753,2.65536 -0.0339,2.65536 0.56179,0 1.55548,-1.1721 2.2082,-2.60467 z m 34.87135,-7.01702 c 2.87971,-3.46984 18.57337,-16.16938 20.43371,-16.53525 1.35971,-0.26742 1.9653,-1.19983 1.9653,-3.02593 0,-1.45167 0.3375,-2.979393 0.75,-3.394934 C 265.53088,97.124505 261.5852,92 257.53518,92 c -3.48228,0 -4.69322,-2.830717 -3.63471,-8.496618 0.48064,-2.57276 1.37466,-5.178514 1.98671,-5.790564 C 256.49923,77.100768 257,75.774167 257,74.764816 c 0,-1.504515 0.34852,-1.648661 1.93426,-0.8 2.94811,1.577784 3.73998,1.324283 8.06286,-2.581178 C 269.40885,69.204786 271,66.873382 271,65.518496 c 0,-3.224739 -3.52734,-7.255773 -7.0205,-8.022999 -5.32265,-1.16905 -6.30396,-6.695279 -1.40714,-7.924302 C 263.90756,49.236081 265,48.490145 265,47.91356 c 0,-1.34777 -3.92852,-0.178827 -6.25,1.859708 -2.02267,1.776145 -2.26496,4.311768 -0.57363,6.003103 0.90183,0.901829 0.81559,1.590303 -0.36951,2.95 -0.85024,0.975496 -1.97906,3.122003 -2.5085,4.770015 -0.75681,2.355767 -1.69335,3.11918 -4.38049,3.570733 -8.54755,1.436351 -16.55286,7.451072 -20.78568,15.61714 -1.74282,3.362311 -1.34924,8.770084 0.84094,11.554453 1.62248,2.062654 3.44402,2.731722 10.25,3.764921 4.55228,0.691071 8.86696,1.568791 9.58817,1.950488 0.90535,0.479149 -0.64254,2.414079 -5,6.250219 -4.88941,4.30446 -6.7163,6.71381 -8.10895,10.69433 -2.25242,6.4379 -0.92098,9.47954 2.39864,5.47964 z M 244,87.238321 c 0,-0.51059 0.91699,-1.758206 2.03775,-2.772481 2.00428,-1.813854 2.02324,-1.80493 1.15449,0.543514 C 246.31209,87.388639 244,89.003043 244,87.238321 z m 78.74864,22.782349 c 5.904,-3.88142 7.82842,-4.72946 8.07468,-3.55829 0.65565,3.11803 1.93131,1.38457 3.03861,-4.12907 0.62592,-3.116673 0.98147,-5.823242 0.79012,-6.014593 C 334.05068,95.717342 325,101.12482 325,102.08549 c 0,0.50298 1.0125,0.91675 2.25,0.91948 2.12945,0.005 2.08927,0.13571 -0.75,2.44534 -6.69673,5.4475 -12.37723,7.77105 -19.34451,7.91268 -9.5289,0.19369 -15.68485,-1.09609 -19.15074,-4.01244 C 286.35214,107.95996 285,107.27221 285,107.82221 c 0,1.92621 6.09362,6.10387 9.77944,6.70459 2.04631,0.33351 4.39556,0.77736 5.22056,0.98633 0.825,0.20897 4.53689,0.20523 8.24864,-0.008 6.13307,-0.35282 7.45567,-0.85306 14.5,-5.48416 z m -104.37732,-0.0501 c 3.13263,-3.72292 4.10331,-8.10008 4.09604,-18.47056 -0.006,-7.97181 -0.0242,-8.02819 -5.27411,-16 -4.00144,-6.076037 -4.8987,-8.077758 -3.73087,-8.323324 3.11803,-0.655645 1.38457,-1.931309 -4.12907,-3.038604 -3.11667,-0.625919 -5.82324,-0.981474 -6.01459,-0.790123 C 202.71734,63.949325 208.12482,73 209.08549,73 c 0.50298,0 0.91675,-1.0125 0.91948,-2.25 0.005,-2.129452 0.13571,-2.08927 2.44534,0.75 5.4475,6.696728 7.77105,12.377231 7.91268,19.344508 0.19369,9.528902 -1.09609,15.684852 -4.01244,19.150742 -1.39059,1.65261 -2.07834,3.00475 -1.52834,3.00475 0.55,0 2.1471,-1.36325 3.54911,-3.02944 z m 102.86739,-7.94369 c 2.06266,-1.62248 2.73172,-3.444023 3.76492,-10.250001 0.69107,-4.552278 1.56879,-8.866955 1.95049,-9.588171 0.47915,-0.905352 2.41408,0.642539 6.25022,5 4.34096,4.930875 6.70167,6.712169 10.79318,8.144065 7.45864,2.610281 8.66281,0.981399 3.39093,-4.586905 C 339.80134,82.732151 333.23974,74.498254 332.84831,72.5 c -0.27343,-1.395881 -1.18903,-2 -3.03118,-2 -1.45167,0 -2.97939,-0.3375 -3.39493,-0.75 C 324.12451,67.469125 319,71.414804 319,75.464816 c 0,3.482287 -2.83072,4.693222 -8.49662,3.634717 -2.57276,-0.480643 -5.17851,-1.374665 -5.79056,-1.986715 C 304.10077,76.500768 302.77417,76 301.76482,76 c -1.50452,0 -1.64867,-0.34852 -0.8,-1.934259 1.57778,-2.948116 1.32428,-3.739982 -2.58118,-8.06286 C 296.20479,63.591152 293.87338,62 292.5185,62 c -3.22474,0 -7.25578,3.527345 -8.023,7.020503 -1.16905,5.322649 -6.69528,6.303956 -7.9243,1.407139 C 276.23608,69.092439 275.49014,68 274.91356,68 c -1.34777,0 -0.17883,3.928519 1.85971,6.25 1.77614,2.022671 4.31177,2.264964 6.0031,0.573629 0.90183,-0.901829 1.5903,-0.815591 2.95,0.369512 0.9755,0.850236 3.12363,1.97735 4.77363,2.504699 2.08632,0.6668 3.09069,1.696358 3.29777,3.380488 1.84749,15.02481 18.65746,27.857622 27.44094,20.948542 z m -9.77287,-15.064616 c -1.81385,-2.004287 -1.80493,-2.023243 0.54351,-1.154497 1.31321,0.485786 2.56083,1.402772 2.77248,2.037746 0.61576,1.847256 -1.30885,1.334618 -3.31599,-0.883249 z"
       id="path2995"
       style="fill:#bfbfbf" />
    <path
       d="M 87.341573,227.52053 C 66.992966,223.82808 49.157109,214.2669 35.191455,199.5647 26.599235,190.51933 22.842758,185.07525 17.866919,174.45709 11.271156,160.38209 9.6742692,152.7887 9.6742692,135.5 c 0,-17.2887 1.5968868,-24.88209 8.1926498,-38.957086 4.975839,-10.618162 8.732316,-16.062244 17.324536,-25.107617 7.242796,-7.624781 21.809803,-18.476607 21.806757,-16.245145 -9.84e-4,0.720416 -2.138484,2.653677 -4.75,4.296136 C 45.044639,64.016823 31.805874,77.195498 26.472001,85.145502 21.054358,93.220361 16.13846,104.28376 13.428651,114.5 c -2.603567,9.8157 -2.603567,32.1843 0,42 7.314854,27.57771 25.20981,49.2915 50.642973,61.45034 14.07046,6.72666 21.953737,8.38146 39.928376,8.38146 18.20103,0 25.97048,-1.66813 40.5,-8.69548 7.9176,-3.82943 21.5,-12.88193 21.5,-14.32949 0,-0.28801 -1.125,-0.24129 -2.5,0.10381 -4.46158,1.11979 -2.68392,-1.34217 2.97205,-4.11612 5.88123,-2.88442 7.5086,-2.61448 5.76924,0.95699 -0.60227,1.23667 -1.49358,3.57036 -1.98067,5.18599 -0.99759,3.30889 -2.92101,4.48453 -3.42664,2.09445 -0.25743,-1.21688 -1.70918,-0.54552 -6.33398,2.92918 -20.08992,15.09391 -48.05436,21.61478 -73.158427,17.0594 z M 488,189.51313 c -0.825,-0.20897 -3.17425,-0.65282 -5.22056,-0.98633 C 479.09362,187.92608 473,183.74842 473,181.82221 c 0,-0.55 1.35214,0.13775 3.00475,1.52834 3.46589,2.91635 9.62184,4.20613 19.15074,4.01244 6.96728,-0.14163 12.64778,-2.46518 19.34451,-7.91268 2.83927,-2.30963 2.87945,-2.44064 0.75,-2.44534 -1.2375,-0.003 -2.25,-0.4165 -2.25,-0.91948 0,-0.96067 9.05068,-6.36815 9.65205,-5.76677 0.19135,0.19135 -0.1642,2.89792 -0.79012,6.01459 -1.1073,5.51364 -2.38296,7.2471 -3.03861,4.12907 -0.24626,-1.17117 -2.17068,-0.32313 -8.07468,3.55829 -7.04433,4.6311 -8.36693,5.13134 -14.5,5.48416 -3.71175,0.21353 -7.42364,0.21727 -8.24864,0.008 z m -188,-74 c -0.825,-0.20897 -3.17425,-0.65282 -5.22056,-0.98633 C 291.09362,113.92608 285,109.74842 285,107.82221 c 0,-0.55 1.35214,0.13775 3.00475,1.52834 3.46589,2.91635 9.62184,4.20613 19.15074,4.01244 6.96728,-0.14163 12.64778,-2.46518 19.34451,-7.91268 2.83927,-2.30963 2.87945,-2.44064 0.75,-2.44534 -1.2375,-0.003 -2.25,-0.4165 -2.25,-0.91948 0,-0.96067 9.05068,-6.368148 9.65205,-5.766773 0.19135,0.191351 -0.1642,2.89792 -0.79012,6.014593 -1.1073,5.51364 -2.38296,7.2471 -3.03861,4.12907 -0.24626,-1.17117 -2.17068,-0.32313 -8.07468,3.55829 -7.04433,4.6311 -8.36693,5.13134 -14.5,5.48416 -3.71175,0.21353 -7.42364,0.21727 -8.24864,0.008 z m -83.64945,-5.51788 c 2.91635,-3.46589 4.20613,-9.62184 4.01244,-19.150742 -0.14163,-6.967277 -2.46518,-12.64778 -7.91268,-19.344508 -2.30963,-2.83927 -2.44064,-2.879452 -2.44534,-0.75 -0.003,1.2375 -0.4165,2.25 -0.91948,2.25 -0.96067,0 -6.36815,-9.050675 -5.76677,-9.652051 0.19135,-0.191351 2.89792,0.164204 6.01459,0.790123 5.51364,1.107295 7.2471,2.382959 4.12907,3.038604 -1.16783,0.245566 -0.27057,2.247287 3.73087,8.323324 5.24994,7.97181 5.26852,8.02819 5.27411,16 0.003,4.4 -0.34372,9.67425 -0.77067,11.72056 -0.78238,3.74983 -5.02091,9.77944 -6.87448,9.77944 -0.55,0 0.13775,-1.35214 1.52834,-3.00475 z"
       id="path2993"
       style="fill:#fe0000" />
    <path
       d="m 637.13618,241.94117 c -0.15269,-2.869 5.7726,-13.46846 9.08738,-16.25598 2.02693,-1.70452 2.16168,-2.71735 2.21726,-16.66667 0.0326,-8.16853 0.39668,-15.18937 0.80918,-15.60186 0.4125,-0.4125 0.75,-0.24083 0.75,0.38149 0,1.62 3.56612,3.30558 5.45775,2.57969 0.88145,-0.33824 2.20934,-1.77293 2.95086,-3.18819 l 1.34824,-2.57319 0.66779,3.04041 c 0.36728,1.67223 0.20039,5.92103 -0.37087,9.44178 -0.57127,3.52074 -1.04206,8.55468 -1.04622,11.18653 -0.007,4.56935 -0.10346,4.73386 -2.13404,3.64712 -5.78099,-3.09389 -9.56552,4.19816 -8.36792,16.12334 0.77607,7.72778 -0.33596,9.39179 -3.98527,5.96345 -1.88888,-1.77451 -2.71605,-1.98471 -4.35613,-1.10696 -1.11348,0.59592 -2.21966,2.09697 -2.45817,3.33568 -0.3993,2.07378 -0.44444,2.04949 -0.56984,-0.30664 z M 626.4008,213.33501 c -1.93153,-2.58708 -2.29908,-2.70239 -4.87416,-1.5291 -3.87596,1.766 -4.36495,0.70459 -1.76032,-3.82104 C 620.99484,205.85026 622,202.73042 622,201.05188 622,199.18412 622.51436,198 623.32569,198 c 0.72912,0 2.33943,-1.07908 3.57844,-2.39796 2.16517,-2.30471 2.18903,-2.52121 0.61366,-5.56765 -1.58463,-3.06433 -1.57518,-3.13547 0.2844,-2.14026 4.72652,2.52956 5.79843,12.05164 2.52411,22.42241 l -1.83643,5.81655 -2.08907,-2.79808 z m -73.395,-20.06951 c 1.71666,-2.18238 2.02831,-3.55235 1.54353,-6.78508 -0.5388,-3.59299 -0.26717,-4.37656 2.40439,-6.93608 2.76019,-2.64443 3.15946,-2.75581 4.77905,-1.3332 3.16548,2.78049 5.98711,3.06898 8.21608,0.84001 2.25362,-2.25362 2.69561,-1.1494 0.90646,2.26459 -2.91746,5.56698 -7.5418,10.09792 -12.58023,12.32615 -6.88483,3.0448 -7.90317,2.97206 -5.26928,-0.37639 z M 72.56181,181.82444 c 0.394994,-1.11226 -0.271796,-2.24353 -1.983386,-3.36501 -2.394022,-1.56862 -2.757218,-1.5723 -5.078424,-0.0514 -3.3338,2.18439 -3.154808,1.10178 0.507457,-3.06931 1.654102,-1.88392 4.317381,-6.02025 5.918399,-9.19185 C 75.13548,159.78865 78,156.58542 78,159.3545 c 0,1.93166 4.491113,5.07804 5.956024,4.17268 1.693104,-1.0464 1.197051,2.26593 -0.937894,6.26266 -2.189085,4.09808 -11.404442,14.7044 -10.45632,12.0346 z M 492.5,174.81377 c -5.71138,-3.21384 -9.95695,-7.59816 -12.14189,-12.53869 -3.0448,-6.88483 -2.97206,-7.90317 0.37639,-5.26928 2.18238,1.71666 3.55235,2.02831 6.78508,1.54353 3.59299,-0.5388 4.37656,-0.26717 6.93608,2.40439 2.64443,2.76019 2.75581,3.15946 1.3332,4.77905 -2.78049,3.16548 -3.06898,5.98711 -0.84001,8.21608 2.22846,2.22846 0.84359,2.7176 -2.44885,0.86492 z M 147,153.45859 c -6.325,-1.25125 -11.71263,-2.31631 -11.97251,-2.36679 -0.25987,-0.0505 0.56367,-0.81756 1.8301,-1.70461 1.72396,-1.20751 2.15065,-2.21822 1.69794,-4.02195 -0.89545,-3.56777 1.72957,-4.02958 8.03935,-1.41432 2.97104,1.23143 7.217,2.48242 9.43546,2.77997 3.84228,0.51536 3.95466,0.6282 2.36981,2.37944 -1.5488,1.7114 -1.54941,2.01292 -0.009,4.36405 0.91017,1.38909 1.30698,2.46568 0.8818,2.39242 -0.42518,-0.0733 -5.94805,-1.15695 -12.27305,-2.40821 z m 272,-9.52433 c 0,-4.2281 7.62054,-12.8765 13.72492,-15.57615 6.88483,-3.0448 7.90317,-2.97206 5.26928,0.37639 -1.71666,2.18238 -2.02831,3.55235 -1.54353,6.78508 0.5388,3.59299 0.26717,4.37656 -2.40439,6.93608 -2.76019,2.64443 -3.15946,2.75581 -4.77905,1.3332 -3.16548,-2.78049 -5.98711,-3.06898 -8.21608,-0.84001 C 419.92302,144.07698 419,144.52042 419,143.93426 z m -27.96178,-22.10212 c -1.93302,-1.56705 -3.33669,-1.86451 -6.53509,-1.38488 -3.61953,0.54278 -4.39474,0.27531 -6.95879,-2.40098 -2.64443,-2.76019 -2.75581,-3.15946 -1.3332,-4.77905 2.78049,-3.16548 3.06898,-5.98711 0.84001,-8.21608 -2.24965,-2.24965 -1.15758,-2.69281 2.26459,-0.91896 5.74946,2.98019 10.49945,7.98479 12.68168,13.36146 1.24522,3.06803 2.09271,5.74832 1.88331,5.95621 -0.2094,0.20789 -1.48853,-0.52009 -2.84251,-1.61772 z M 198.8,108.8 c 1.82267,-1.82267 1.43995,-4.91568 -0.91894,-7.42661 l -2.11895,-2.25551 2.04981,-2.6059 c 1.12739,-1.433245 2.32707,-3.868321 2.66596,-5.411279 0.49237,-2.24174 1.06439,-2.719696 2.84707,-2.378914 3.26718,0.62456 6.19772,-2.876644 4.71957,-5.6386 C 207.43133,81.937434 207.32323,81 207.8043,81 209.34722,81 211,85.95822 211,90.586891 c 0,2.471032 -0.86222,6.162358 -1.91605,8.202947 C 206.72759,103.35259 200.69768,110 198.91513,110 c -1.02288,0 -1.04846,-0.26667 -0.11513,-1.2 z m 110.7,-6.98623 c -5.71138,-3.213841 -9.95695,-7.598165 -12.14189,-12.538692 -3.0448,-6.88483 -2.97206,-7.90317 0.37639,-5.26928 2.18238,1.716659 3.55235,2.028314 6.78508,1.543536 3.59299,-0.538801 4.37656,-0.267174 6.93608,2.40439 2.64443,2.760186 2.75581,3.159458 1.3332,4.779044 -2.78049,3.165482 -3.06898,5.987113 -0.84001,8.216082 2.22846,2.22846 0.84359,2.7176 -2.44885,0.86492 z M 69.737526,96.433669 c -1.3857,-2.163518 -4.122653,-5.464219 -6.082119,-7.334891 l -3.562665,-3.401222 1.953629,-2.483637 C 63.120867,81.847919 64,79.883377 64,78.848271 64,77.340388 65.31888,78.002727 70.63448,82.180095 79.794103,89.378363 83.034641,95 78.02439,95 c -1.021668,0 -2.737289,1.207651 -3.812494,2.683669 L 72.25698,100.36734 69.737526,96.433669 z M 105.70863,88.9938 c -0.66418,-2.53984 -3.47227,-3.622502 -5.733284,-2.210476 -2.38214,1.487671 -2.986383,0.616733 -2.913893,-4.199991 0.09831,-6.532432 2.405817,-18.342088 3.191397,-16.333333 1.33105,3.403553 6.01474,0.87334 6.94164,-3.75 0.22054,-1.1 0.43513,4.646088 0.47687,12.769084 0.0697,13.572766 -0.66284,18.695516 -1.96273,13.724716 z M 230,85.934259 c 0,-4.228101 7.62054,-12.8765 13.72492,-15.576149 6.88483,-3.044799 7.90317,-2.972058 5.26928,0.37639 -1.71666,2.182379 -2.02831,3.552352 -1.54353,6.785083 0.5388,3.592983 0.26717,4.376561 -2.40439,6.936082 -2.76019,2.644426 -3.15946,2.75581 -4.77905,1.333198 -3.16548,-2.780497 -5.98711,-3.068982 -8.21608,-0.840015 C 230.92302,86.076981 230,86.520416 230,85.934259 z"
       id="path2991"
       style="fill:#0000fe" />
    <path
       d="m 24.262663,278.25184 c 15.717903,-0.30189 15.761164,-0.30907 15.234977,-2.5273 C 39.207414,274.50104 36.078314,259.325 32.544085,242 29.009856,224.675 25.36023,207.125 24.433806,203 c -3.006155,-13.38521 -3.005469,-13 -0.02315,-13 2.422342,0 2.618808,0.30612 2.406754,3.75 -0.276349,4.48806 2.048258,17.04895 3.298161,17.82143 0.486435,0.30063 0.892539,-0.0425 0.902453,-0.76241 0.0099,-0.71996 1.922414,-2.8171 4.25,-4.66031 L 39.5,202.79742 36,206.25133 c -4.646737,4.58554 -6.230022,7.44857 -5.460296,9.87377 0.571219,1.79975 1.170738,1.49311 5.987675,-3.06255 C 39.471474,210.27815 42.144191,208 42.466751,208 c 0.32256,0 -2.11281,2.5875 -5.411933,5.75 l -5.998406,5.75 1.297114,5.5 1.297115,5.5 34.174679,0.26313 C 90.410132,230.93702 102,230.68267 102,230.01313 102,229.45591 102.675,229 103.5,229 c 1.29252,0 1.5,3.38889 1.5,24.5 l 0,24.5 267.96862,0 c 238.34732,0 267.90468,-0.1666 267.39027,-1.50714 -0.31898,-0.83125 1.26678,-4.61294 3.53607,-8.43271 l 4.1144,-6.92557 -5.51594,-7.68809 c -3.03377,-4.22844 -5.79859,-8.81421 -6.14404,-10.19059 -0.76225,-3.03706 1.85128,-8.75158 7.20595,-15.7559 l 3.8224,-5 0.14552,-15.5 0.14551,-15.5 -5.17973,-6 c -6.02297,-6.97678 -7.85719,-10.0982 -7.09742,-12.07814 0.61617,-1.6057 4.1778,-1.92759 5.08508,-0.45957 0.37423,0.60551 1.48476,0.55677 2.99525,-0.13146 1.35212,-0.61606 3.19267,-0.74456 4.21429,-0.29422 0.99757,0.43974 3.96647,0.68141 6.59754,0.53704 6.39672,-0.35099 7.71623,0.93387 7.71623,7.51361 0,4.4316 -0.36399,5.53718 -2.1351,6.48504 -1.30091,0.69623 -1.71606,1.40166 -1.06256,1.80554 3.04293,1.88063 3.58563,8.18978 1.58033,18.37216 -0.50502,2.56434 -0.31343,2.75 2.83787,2.75 4.60752,0 5.77946,1.52083 5.77946,7.5 0,5.66709 -1.16234,7.45162 -4.95,7.59968 l -2.55,0.0997 L 664,226 c 4.18694,1.34089 8.74956,1.08707 12.48576,-0.6946 3.34129,-1.59335 3.6551,-1.59311 5.25218,0.004 1.59809,1.59809 1.58196,1.81517 -0.27264,3.66977 -1.52208,1.52208 -3.94589,2.123 -10.63795,2.63739 -4.76671,0.3664 -9.26539,1.03557 -9.99705,1.48706 -1.4283,0.88135 -2.53262,13.50664 -2.72433,31.14641 -0.10545,9.70191 -0.0939,9.75 2.33733,9.75 1.34381,0 3.06282,0.8845 3.82003,1.96557 1.20669,1.72279 2.78848,2.00517 12.8067,2.28624 6.28648,0.17637 -141.57003,0.31665 -328.57003,0.31173 -187,-0.005 -332.906802,-0.14519 -324.237337,-0.3117 z M 102,255.5 l 0,-22.5 -34.108408,0 -34.108408,0 0.69257,2.75 C 35.150041,238.4274 43,277.04003 43,277.67933 43,277.8557 56.275,278 72.5,278 l 29.5,0 0,-22.5 z m 548,21.7 c 0,-0.44 -0.52937,-1.32937 -1.17637,-1.97637 -0.90183,-0.90183 -0.80925,-1.5903 0.39669,-2.95 1.31016,-1.4772 1.48421,-3.7204 1.04139,-13.42175 -0.53144,-11.64274 -0.53335,-11.65005 -4.1467,-15.8247 -3.8889,-4.49301 -6.62935,-4.74881 -7.42036,-0.69263 l -0.42229,2.16545 -0.13618,-2.21482 c -0.0813,-1.32165 0.7084,-2.66682 1.95817,-3.33567 1.73372,-0.92786 2.51087,-0.72957 4.51324,1.15157 3.66401,3.44216 4.62623,1.55883 3.80933,-7.45593 C 648.03589,228.44032 647.32639,225 646.84026,225 c -1.01811,0 -8.45964,11.22543 -9.39483,14.17194 -1.02113,3.21731 0.22507,6.15862 6.04799,14.27455 l 5.51594,7.68809 -4.1144,6.92557 c -2.26929,3.81977 -3.85505,7.60146 -3.53607,8.43271 C 641.96667,278.07673 650,278.73413 650,277.2 z m 13.75084,-0.45 c -0.22871,-0.6875 -1.72871,-1.48026 -3.33334,-1.76169 l -2.9175,-0.51169 0,-11.48831 c 0,-6.31857 0.383,-18.53563 0.8511,-27.14902 0.83698,-15.40086 0.81561,-15.6797 -1.28777,-16.8054 -3.12161,-1.67063 -5.90867,-0.35752 -6.96101,3.27965 -0.72215,2.49593 -0.94149,2.69886 -1.01213,0.93646 -0.0921,-2.29814 3.05391,-6.25 4.97555,-6.25 0.58616,0 1.93616,0.46583 3,1.03518 1.78671,0.95622 1.93484,0.67015 1.94181,-3.75 0.004,-2.63185 0.47495,-7.66579 1.04622,-11.18653 0.57126,-3.52075 0.73815,-7.76955 0.37087,-9.44178 l -0.66779,-3.04041 -1.34824,2.57319 c -0.74152,1.41526 -2.06941,2.84995 -2.95086,3.18819 -1.93264,0.74162 -5.45173,-0.97066 -5.47306,-2.66302 -0.0108,-0.85938 -0.26345,-0.82335 -0.86338,0.12314 -1.11829,1.76427 -0.60797,31.47303 0.80153,46.66204 0.61246,6.6 1.21787,17.73666 1.34536,24.74813 l 0.2318,12.74812 6.33333,0.002 c 4.6224,0.001 6.221,-0.33581 5.91751,-1.24813 z m -12.94397,-4.27646 c -0.30789,-0.30789 -0.86705,0.24711 -1.24258,1.23333 -0.54268,1.4252 -0.42782,1.54006 0.5598,0.5598 0.68342,-0.67834 0.99067,-1.48524 0.68278,-1.79313 z m -2.12376,-29.66104 c -0.31922,-0.79773 -0.55618,-0.56078 -0.60416,0.60417 -0.0434,1.05416 0.19293,1.64479 0.52522,1.3125 0.33229,-0.3323 0.36781,-1.1948 0.0789,-1.91667 z m 23.5109,-12.34251 c 7.96563,-0.65238 11.29303,-2.38295 8.99678,-4.6792 -0.8326,-0.8326 -2.16422,-0.65558 -5.13049,0.68202 -3.888,1.75324 -9.73629,1.73996 -14.35551,-0.0326 -1.38233,-0.53045 -1.70479,-0.0629 -1.70479,2.47185 0,2.71412 0.29649,3.06424 2.25,2.65706 1.2375,-0.25794 5.7123,-0.75255 9.94401,-1.09913 z M 666.75,223.44786 C 668.50324,222.90773 668.39645,216 666.63486,216 664.10002,216 660,220.07331 660,222.59163 c 0,2.47001 1.07081,2.60584 6.75,0.85623 z m -10.32143,-29.01929 c 2.31511,-2.31511 1.98343,-3.1434 -2.35559,-5.8825 -6.30126,-3.97781 -11.267,-8.76617 -12.73536,-12.28045 C 640.4461,174.13191 639.28458,173 637.98658,173 c -3.97105,0 -2.1226,3.75304 6.89529,14 8.82744,10.03056 8.8988,10.07647 11.5467,7.42857 z m 2.02438,-7.58909 c 2.08564,-0.95028 2.54705,-1.85605 2.54705,-5 0,-4.12851 -0.54193,-4.46094 -4.40383,-2.70134 -3.54095,1.61336 -4.83674,8.86186 -1.58421,8.86186 0.49167,0 2.04011,-0.52223 3.44099,-1.16052 z m -9.90423,-6.84793 c -0.0523,-4.30633 -2.04019,-5.93515 -5.13183,-4.20497 -1.41263,0.79054 -1.20698,1.3829 1.58341,4.56098 1.76379,2.00884 3.29469,3.65244 3.40202,3.65244 0.10732,0 0.1732,-1.8038 0.1464,-4.00845 z m -30.44513,51.47365 c -3.73631,-4.25542 -3.9133,-6.68312 -0.67306,-9.2319 l 2.43053,-1.91185 -5.29042,-1.66766 c -5.22966,-1.64851 -5.35641,-1.63847 -11.03669,0.87362 -4.54974,2.01211 -6.04544,2.29298 -7.183,1.34889 -2.59232,-2.15143 -0.9509,-4.05369 5.64905,-6.54677 4.63795,-1.75195 7.64588,-2.29978 10.5,-1.91233 3.94991,0.53621 4.02839,0.48378 6.26714,-4.1871 2.80893,-5.86047 3.04194,-10.60822 0.48286,-9.83853 -6.47393,1.94717 -16.75231,3.69917 -18.75416,3.19674 -1.33445,-0.33492 -4.94441,-3.79179 -8.19094,-7.84358 -3.1927,-3.9846 -7.79413,-9.1705 -10.22541,-11.52422 -3.34755,-3.24076 -4.1396,-4.5604 -3.26321,-5.43679 0.87639,-0.87639 2.4348,-0.75159 6.42051,0.51418 4.38147,1.39145 6.08661,2.69346 10.17823,7.77186 8.02756,9.96358 7.97446,9.95003 19.1715,4.89115 10.95001,-4.94727 13.43589,-4.79895 16.82493,1.00388 2.73994,4.69144 2.49097,11.64518 -0.76114,21.25855 l -2.61273,7.72333 2.32591,2.32591 c 1.80144,1.80144 2.69917,2.09047 3.98121,1.28178 2.06038,-1.29965 4.99313,0.32186 5.52152,3.05282 0.35903,1.8556 0.32498,1.8557 -1.73124,0.005 -1.69342,-1.52432 -2.38257,-1.6514 -3.5775,-0.6597 -0.81401,0.67558 -1.74241,2.05501 -2.06309,3.0654 -0.6766,2.13176 -6.75783,5.98231 -9.44796,5.98231 -1.01158,0 -3.23586,-1.59066 -4.94284,-3.5348 z M 625,225.06081 c 0,-2.2162 -0.53643,-2.9302 -2.48073,-3.30188 -2.99852,-0.5732 -6.51927,1.67499 -6.51927,4.16292 0,0.99464 0.98189,3.05671 2.18199,4.58238 l 2.18198,2.77395 2.31802,-2.69486 C 623.95689,229.10116 625,226.61603 625,225.06081 z m -21.35684,-6.5817 c 6.10616,-2.70044 7.82415,-2.56182 16.22531,1.30914 5.37574,2.47695 9.18105,-1.6031 5.80336,-6.22237 -1.25387,-1.71477 -1.73661,-1.78169 -4.52396,-0.62713 -2.01503,0.83465 -4.73924,1.0497 -7.69076,0.60709 -3.5227,-0.52826 -6.04757,-0.15563 -11.01378,1.62545 -5.96489,2.13924 -7.46181,3.4769 -5.77666,5.16204 0.89644,0.89645 0.5463,0.98951 6.97649,-1.85422 z m 27.3051,-10.78657 c 1.85003,-6.8842 2.04921,-8.98821 1.16258,-12.2809 -2.47042,-9.17444 -5.39436,-9.87761 -17.83278,-4.28859 -10.84316,4.87221 -10.8858,4.86089 -18.89503,-5.01735 -3.9981,-4.9311 -5.83226,-6.33431 -10.1209,-7.74291 -5.70127,-1.87259 -8.15658,-1.08121 -4.42511,1.42627 1.28536,0.86374 5.7112,5.7656 9.83521,10.89302 4.40038,5.47105 8.47968,9.56893 9.87387,9.91885 1.30662,0.32794 6.47727,-0.34811 11.49032,-1.50234 5.01305,-1.15422 9.91091,-2.09859 10.88412,-2.09859 0.97322,0 2.5501,-0.86257 3.50418,-1.91681 1.35995,-1.50274 1.50145,-2.35263 0.65498,-3.93426 -0.59383,-1.1096 -1.06168,-2.38453 -1.03966,-2.83319 0.022,-0.44866 0.73433,0.46554 1.58291,2.03155 1.4518,2.67922 1.40963,2.98912 -0.71435,5.25 C 625.66712,196.91878 624.05481,198 623.32569,198 622.51436,198 622,199.18412 622,201.05188 c 0,1.67854 -1.00516,4.79838 -2.23368,6.93299 -2.60463,4.52563 -2.11564,5.58704 1.76032,3.82104 2.56851,-1.17029 2.94369,-1.05656 4.82448,1.46256 1.12166,1.50234 2.11256,2.73153 2.202,2.73153 0.0894,0 1.16725,-3.73836 2.39514,-8.30746 z M 101.62246,179.75 c -0.44147,-50.12649 -0.4947,-52.75 -1.0703,-52.75 -0.20203,0 -4.02728,6.26028 -8.500555,13.91173 -4.473274,7.65145 -9.239861,14.63683 -10.592415,15.52305 C 80.106635,157.32101 79,158.6949 79,159.48787 c 0,1.763 3.36407,3.69965 5.177558,2.98064 1.287521,-0.51047 6.942504,-11.56385 12.403182,-24.24359 1.486341,-3.45129 2.879397,-6.09812 3.095681,-5.88183 0.216283,0.21628 -1.246984,3.94007 -3.251706,8.27508 -2.401113,5.19216 -3.607531,9.22013 -3.535299,11.80361 0.1124,4.02013 -2.012318,7.57822 -4.525352,7.57822 -0.729278,0 -1.584753,1.2375 -1.901055,2.75 -1.170041,5.59492 -4.494455,10.94948 -11.524797,18.56275 C 69.074254,187.66292 53.012966,201.56707 46,206.36437 c -3.665255,2.50726 2.005029,-2.46182 11.5,-10.07788 11.075218,-8.88359 12.953409,-10.76796 13.929777,-13.97559 0.912354,-2.99732 -2.447766,-4.89411 -5.679777,-3.20623 -1.2375,0.64626 -7.425,6.1746 -13.75,12.28518 L 40.5,202.5 51,191.39021 c 12.492363,-13.21785 16.271239,-18.01124 20.002914,-25.37306 1.53814,-3.03443 3.937386,-6.58053 5.331657,-7.88022 2.189508,-2.04097 2.48745,-3.05128 2.1859,-7.4123 -0.227473,-3.28973 -0.901704,-5.35847 -1.934827,-5.93664 -2.000474,-1.11952 -4.970675,-6.7542 -4.022476,-7.63092 0.390853,-0.36139 0.948298,0.0179 1.238767,0.84293 0.29047,0.825 1.731747,2.62568 3.202839,4.00151 2.248233,2.10264 3.46088,2.44848 7.605253,2.16898 4.501663,-0.30361 5.108393,-0.65167 6.97518,-4.00151 1.124551,-2.01794 3.461428,-6.15114 5.193061,-9.18489 l 3.148422,-5.5159 -14.429462,-12.78206 C 77.561023,105.656 69.815018,98.04628 68.283883,95.775649 65.818247,92.11918 54.987914,81.830088 43.458264,72.190677 41.281219,70.37055 42.2,70.933166 45.5,73.440935 c 3.3,2.50777 7.661896,5.967435 9.693102,7.688145 4.170928,3.533349 6.407582,3.310105 7.424353,-0.741037 0.963739,-3.839839 -0.273547,-5.262556 -9.425483,-10.83808 -4.468877,-2.72252 -7.979285,-5.095983 -7.800906,-5.274362 0.178378,-0.178379 3.384144,1.53458 7.123923,3.806574 9.400661,5.7111 25.413174,18.623621 27.367511,22.069214 0.916839,1.616432 2.194398,2.634468 2.949287,2.350171 C 83.564271,92.225702 85.525554,92 87.190195,92 c 2.801482,0 2.975568,-0.204562 2.340302,-2.75 -0.377475,-1.5125 -1.3985,-3.540259 -2.268944,-4.506131 -2.341573,-2.598283 -0.787555,-3.269871 1.733264,-0.749052 1.280769,1.280769 2.344168,3.861341 2.609832,6.333334 0.246591,2.294517 0.704913,5.582671 1.018494,7.307009 0.701061,3.85504 -0.914761,7.11879 -3.735403,7.545 -1.849555,0.27948 -1.342898,1.14004 4.015185,6.81984 l 6.131829,6.5 -0.386361,-11 c -0.212499,-6.05 -0.955165,-14.299445 -1.650369,-18.332101 -0.940725,-5.456838 -0.996706,-9.037487 -0.218883,-14 C 97.474872,70.729142 97.554443,57.634943 97.017158,36 96.573248,18.125 96.414345,3.1625 96.664041,2.75 98.617458,-0.47706224 104,10.51081 104,17.72556 c 0,6.441474 1.82526,25.931928 3.44388,36.77444 0.73896,4.95 1.27889,14.481273 1.19984,21.180607 -0.14027,11.888003 -0.0897,12.190948 2.1051,12.611103 1.23686,0.236773 3.03686,-0.167689 4,-0.898803 2.75845,-2.093907 5.20812,-1.636368 6.27593,1.172193 C 122.26418,91.825037 122.25762,93 121,93 c -0.55,0 -1,-0.6199 -1,-1.377555 0,-0.757656 -0.61529,-1.888205 -1.36732,-2.512331 -1.95479,-1.622328 -3.89385,1.001131 -3.09436,4.186529 0.37146,1.480046 -0.0266,3.746923 -0.98262,5.595653 C 113.17904,101.55445 112.39557,102 109.09095,102 c -4.65018,0 -5.05744,0.9826 -5.0773,12.25 -0.0117,6.64875 0.29719,8.06084 2.17385,9.9375 1.40789,1.40789 1.76429,2.32857 1,2.58333 -0.65313,0.21771 -1.1875,0.85648 -1.1875,1.41949 0,0.56301 0.64593,0.77579 1.43539,0.47285 0.78947,-0.30295 1.57697,-0.21684 1.75,0.19136 0.17304,0.40819 5.57446,3.38763 12.00316,6.62097 9.92479,4.99171 12.56548,5.90164 17.5,6.03015 3.1963,0.0832 7.18056,0.86679 8.85392,1.74121 6.46869,3.38026 14.17256,3.92376 25.82702,1.82207 l 10.78178,-1.94431 12.16515,3.93769 c 6.69084,2.16573 13.3517,3.93769 14.80192,3.93769 2.78862,0 5.44586,2.27809 4.48005,3.84081 -1.46134,2.3645 -9.48073,2.22388 -19.6104,-0.34385 l -10.22932,-2.593 -10.3008,3.06223 -10.3008,3.06224 -13.32854,-2.53907 c -7.33069,-1.3965 -14.59441,-2.94952 -16.14159,-3.45116 -2.24321,-0.72731 -3.20028,-0.52486 -4.72457,0.99943 -1.05132,1.05132 -3.02426,2.19078 -4.3843,2.53213 -1.36004,0.34135 -3.18186,1.7028 -4.04849,3.02544 -1.78455,2.72356 -4.24329,3.06584 -7.08688,0.98656 -2.53568,-1.85414 -1.26015,-3.10921 1.44376,-1.4206 1.75677,1.09712 2.33445,1.0465 3.70567,-0.32472 1.49929,-1.49929 1.44471,-1.8676 -0.70826,-4.77964 -2.24921,-3.04222 -2.2775,-3.30876 -0.79035,-7.44437 l 1.54239,-4.28918 -6.8146,-4.22272 c -3.74803,-2.32249 -7.26611,-3.94366 -7.81795,-3.6026 C 105.35552,133.89831 105,150.57352 105,180.55902 105,220.90421 104.80564,227 103.5193,227 c -1.28084,0 -1.53687,-6.37773 -1.89684,-47.25 z m -18.60433,-9.96016 c 2.134945,-3.99673 2.630998,-7.30906 0.937894,-6.26266 C 82.491113,164.43254 78,161.28616 78,159.3545 c 0,-2.76908 -2.86452,0.43415 -6.074144,6.79238 -1.601018,3.1716 -4.264297,7.30793 -5.918399,9.19185 -3.662265,4.17109 -3.841257,5.2537 -0.507457,3.06931 2.321206,-1.52091 2.684402,-1.51723 5.078424,0.0514 1.71159,1.12148 2.37838,2.25275 1.983386,3.36501 -0.948122,2.6698 8.267235,-7.93652 10.45632,-12.0346 z M 90.8,157.8 c 0.66,-0.66 1.198318,-2.3475 1.196262,-3.75 -0.0037,-2.49243 -0.04881,-2.47607 -2,0.72417 C 88.898318,156.57496 88,158.26246 88,158.52417 c 0,0.89188 1.59698,0.47885 2.8,-0.72417 z m 84.70569,-3.84802 10.25298,-3.04802 10.22932,2.593 c 7.45665,1.89016 11.43135,2.41274 14.66399,1.92798 5.57126,-0.83546 5.19242,-2.69192 -0.73516,-3.60259 -2.42925,-0.37321 -9.21594,-2.25685 -15.08153,-4.18586 l -10.66471,-3.50731 -11.32781,2.03002 C 161.56739,148.17982 158,149.31933 158,150.90033 c 0,1.63185 4.17429,6.09967 5.69893,6.09967 0.85458,0 6.16762,-1.37161 11.80676,-3.04802 z m -17.11444,-0.4776 c -1.54051,-2.35113 -1.5399,-2.65265 0.009,-4.36405 1.58485,-1.75124 1.47247,-1.86408 -2.36981,-2.37944 -2.21846,-0.29755 -6.46442,-1.54854 -9.43546,-2.77997 -6.30978,-2.61526 -8.9348,-2.15345 -8.03935,1.41432 0.45271,1.80373 0.026,2.81444 -1.69794,4.02195 -1.26643,0.88705 -2.08997,1.65412 -1.8301,1.70461 0.25988,0.0505 5.64751,1.11554 11.97251,2.36679 6.325,1.25126 11.84787,2.33495 12.27305,2.40821 0.42518,0.0733 0.0284,-1.00333 -0.8818,-2.39242 z m -21.95983,-4.80058 c 2.76383,-2.02095 1.1852,-5.31981 -3.2292,-6.74807 -2.03622,-0.65881 -8.48443,-3.61161 -14.32935,-6.56178 C 113.02794,132.41378 107.74044,130 107.12287,130 c -2.05984,0 -1.15626,1.54667 1.62713,2.78517 3.48245,1.54956 14.4807,9.12925 18.04167,12.43381 2.5913,2.40472 6.08118,4.68608 7.2672,4.75061 0.30738,0.0167 1.37503,-0.56638 2.37255,-1.29579 z M 126,146.0567 c 0,-0.51881 -1.01016,-1.65083 -2.2448,-2.51561 -2.51539,-1.76185 -3.70462,-0.39 -1.7273,1.99253 1.3589,1.63738 3.9721,1.98151 3.9721,0.52308 z m -20,-20.94971 c 0,-0.49116 -0.675,-1.15203 -1.5,-1.46862 -2.0363,-0.7814 -2.02656,-14.17345 0.0175,-24.069391 C 106.22283,91.312971 105.40947,87 102.1472,87 98.589778,87 97.552121,89.547792 98.838981,95.12277 99.477541,97.889165 100,105.71025 100,112.50297 c 0,10.92138 0.20248,12.4033 1.75,12.8077 2.99645,0.78306 4.25,0.72298 4.25,-0.20368 z M 91.545403,111.70814 c -4.179494,-4.5667 -8.374503,-9.85673 -9.322242,-11.755616 -2.225159,-4.458328 -5.716225,-5.159234 -7.390834,-1.483868 -0.958626,2.103954 -0.912385,2.867034 0.240327,3.965924 0.78504,0.74839 6.377346,5.74543 12.427346,11.10453 7.924603,7.01963 11.090093,9.28647 11.322242,8.10798 0.184833,-0.9383 -2.918122,-5.17642 -7.276839,-9.93895 z M 88,101.54797 C 88,99.412492 86.348162,98 83.850825,98 83.291009,98 83.163212,98.972012 83.555001,100.25 85.092204,105.26424 88,106.11334 88,101.54797 z m 23,-2.925525 c 0,-2.705073 -2.64049,-5.424371 -3.91327,-4.030063 -0.45568,0.49919 -1.12019,2.145118 -1.47667,3.657618 -0.5977,2.53587 -0.41309,2.75 2.37089,2.75 C 110.49314,101 111,100.60084 111,98.622445 z M 78.02439,95 C 83.034641,95 79.794103,89.378363 70.63448,82.180095 65.31888,78.002727 64,77.340388 64,78.848271 c 0,1.035106 -0.879133,2.999648 -1.953629,4.365648 l -1.953629,2.483637 3.562665,3.401222 c 1.959466,1.870672 4.696419,5.171373 6.082119,7.334891 l 2.519454,3.933671 1.954916,-2.683671 C 75.287101,96.207651 77.002722,95 78.02439,95 z m 29.55716,-22.405838 c -0.17273,-9.543778 -0.61031,-17.83168 -0.9724,-18.41756 -0.78076,-1.263294 -3.60193,-29.656034 -3.60619,-36.293249 C 103.00011,13.43547 99.498047,3 98.008225,3 c -0.779638,0 -0.272546,49.856928 0.574659,56.5 0.686203,5.380637 2.894206,8.319616 5.171276,6.883277 0.93519,-0.589907 2.00323,-2.154969 2.37342,-3.477917 0.52951,-1.892353 0.69432,-1.995601 0.77274,-0.484101 C 107.01741,64.67811 104.28624,68 102.31363,68 c -0.75702,0 -1.68437,-0.7875 -2.06078,-1.75 -0.78558,-2.008755 -3.093086,9.800901 -3.191397,16.333333 -0.07249,4.816724 0.531753,5.687662 2.913893,4.199991 2.261014,-1.412026 5.069104,-0.329364 5.733284,2.210476 0.28531,1.091038 0.8941,1.751726 1.35286,1.468195 0.45877,-0.28353 0.69279,-8.324056 0.52006,-17.867833 z M 537,216.08644 c 0,-0.57658 1.09244,-1.32252 2.42764,-1.65764 4.89682,-1.22902 3.91551,-6.75525 -1.40714,-7.9243 -3.49316,-0.76722 -7.0205,-4.79826 -7.0205,-8.023 0,-1.35488 1.59115,-3.68629 4.00288,-5.86514 4.32288,-3.90546 5.11475,-4.15896 8.06286,-2.58118 1.58574,0.84867 1.93426,0.70452 1.93426,-0.8 0,-1.00935 0.50077,-2.33595 1.11282,-2.948 0.61205,-0.61205 1.50607,-3.2178 1.98671,-5.79056 C 549.15804,174.83072 547.9471,172 544.46482,172 c -4.05002,0 -7.9957,-5.12451 -5.71482,-7.4222 0.4125,-0.41554 0.75,-1.95304 0.75,-3.41666 0,-1.95202 0.56658,-2.74197 2.12622,-2.96447 1.16942,-0.16683 6.48348,-4.39277 11.80903,-9.39097 6.79806,-6.38021 9.99745,-8.773 10.7389,-8.03155 2.03842,2.03842 -2.12465,10.35242 -8.44791,16.8712 -6.76845,6.97774 -7.10351,6.46986 5.56424,8.43412 6.28812,0.97503 8.16836,1.68839 9.75,3.69912 6.74357,8.57306 -5.07539,24.65332 -19.95835,27.15429 -2.68714,0.45155 -3.62368,1.21497 -4.38049,3.57073 -0.52944,1.64802 -1.65826,3.79452 -2.5085,4.77002 -1.1851,1.3597 -1.27134,2.04817 -0.36951,2.95 1.69133,1.69133 1.44904,4.22696 -0.57363,6.0031 -2.32148,2.03854 -6.25,3.20748 -6.25,1.85971 z m 7.63508,-18.72986 c 1.70079,-3.58415 1.69162,-3.67362 -0.56387,-5.5 -3.018,-2.44383 -4.39602,-2.34333 -7.76545,0.56634 l -2.80576,2.42292 2.93709,3.07708 c 3.88969,4.07508 6.06686,3.92468 8.19799,-0.56634 z m 13.64,-3.71469 c 5.03843,-2.22823 9.66277,-6.75917 12.58023,-12.32615 1.78915,-3.41399 1.34716,-4.51821 -0.90646,-2.26459 -2.22897,2.22897 -5.0506,1.94048 -8.21608,-0.84001 -1.61959,-1.42261 -2.01886,-1.31123 -4.77905,1.3332 -2.67629,2.56405 -2.94376,3.33926 -2.40098,6.95879 0.49324,3.28913 0.19863,4.54724 -1.53031,6.53509 l -2.14113,2.46178 1.65281,-2.7171 c 1.20186,-1.97578 1.46786,-3.81177 0.97495,-6.72927 -0.38502,-2.27895 -0.18687,-5.49983 0.45869,-7.45592 1.05274,-3.18982 0.89305,-3.76531 -2.1656,-7.80429 -1.81618,-2.39828 -4.42715,-6.02985 -5.80215,-8.07014 -2.41762,-3.58738 -6,-5.0513 -6,-2.45187 0,0.69928 2.2467,4.35315 4.99267,8.11972 4.59565,6.30372 4.94411,7.17675 4.38193,10.97859 -0.33591,2.27165 -1.23262,5.12695 -1.99268,6.3451 -1.49903,2.40251 -1.78779,6.11125 -0.61661,7.9195 0.62841,0.97022 2.62909,1.79514 5.45618,2.24968 0.39681,0.0638 3.12093,-0.94515 6.05359,-2.24211 z M 558,176.76168 c 0,-1.76472 -2.31209,-0.15032 -3.19224,2.22897 -0.86875,2.34844 -0.84979,2.35736 1.15449,0.54351 C 557.08301,178.51989 558,177.27227 558,176.76168 z m 11.96104,1.04976 c 2.41523,-2.59244 2.56964,-4.60877 0.57142,-7.46163 -1.12965,-1.61281 -3.37451,-2.38548 -9.75,-3.35594 -13.0174,-1.98145 -13.09158,-2.09582 -6.06052,-9.34418 5.58129,-5.75378 10.47822,-14.78286 8.88279,-16.3783 -0.33391,-0.3339 -4.09407,2.70357 -8.35591,6.74994 -4.26185,4.04636 -8.53212,8.0677 -9.48949,8.9363 -1.63638,1.48464 -1.42385,2.02756 3.54699,9.06082 4.85343,6.86715 7.77368,9.34608 15.19368,12.89752 2.88459,1.38065 3.20638,1.31557 5.46104,-1.10453 z m -26.52141,-10.3017 C 540.8546,164.1206 539,163.6936 539,166.48759 c 0,2.00798 2.84293,4.51241 5.12232,4.51241 1.84222,0 1.79489,-0.24199 -0.68269,-3.49026 z m -117.92827,13.50865 c -0.33367,-0.53989 0.20228,-3.29376 1.19099,-6.11972 1.39265,-3.98052 3.21954,-6.38987 8.10895,-10.69433 4.35746,-3.83614 5.90535,-5.77107 5,-6.25022 -0.72121,-0.3817 -5.03589,-1.25942 -9.58817,-1.95049 -6.80598,-1.0332 -8.62752,-1.70226 -10.25,-3.76492 -6.75698,-8.59011 5.04445,-24.66771 19.94474,-27.17159 2.68714,-0.45155 3.62368,-1.21497 4.38049,-3.57073 0.52944,-1.64802 1.65826,-3.79452 2.5085,-4.77002 1.1851,-1.3597 1.27134,-2.04817 0.36951,-2.95 -1.69133,-1.69133 -1.44904,-4.22696 0.57363,-6.0031 2.32148,-2.03854 6.25,-3.20748 6.25,-1.85971 0,0.57658 -1.09244,1.32252 -2.42764,1.65764 -4.89682,1.22902 -3.91551,6.75525 1.40714,7.9243 3.49316,0.76722 7.0205,4.79826 7.0205,8.023 0,1.35488 -1.59115,3.68629 -4.00288,5.86514 -4.32288,3.90546 -5.11475,4.15896 -8.06286,2.58118 -1.58574,-0.84867 -1.93426,-0.70452 -1.93426,0.8 0,1.00935 -0.50077,2.33595 -1.11282,2.948 -0.61205,0.61205 -1.50607,3.2178 -1.98671,5.79056 -1.05851,5.6659 0.15243,8.49662 3.63471,8.49662 4.05002,0 7.9957,5.12451 5.71482,7.4222 -0.4125,0.41554 -0.75,1.94326 -0.75,3.39493 0,1.8261 -0.60559,2.75851 -1.9653,3.02593 -1.86034,0.36587 -17.554,13.06541 -20.43371,16.53525 -1.53541,1.85006 -2.71213,2.05989 -3.58963,0.64008 z m 8.30949,-5.90366 c 3.67353,-3.2369 8.15382,-7.1744 9.95619,-8.75 L 447.05408,163.5 441.73005,156 c -3.30833,-4.66046 -6.82066,-8.34287 -9.27704,-9.72625 -8.71521,-4.90824 -10.19957,-4.98434 -12.52347,-0.64209 -1.1509,2.15047 -1.12936,2.92236 0.14504,5.19697 1.3238,2.36277 2.56863,2.85792 10.77592,4.28623 5.10357,0.88817 9.7277,2.06334 10.27583,2.61147 0.66215,0.66215 -1.12153,2.85925 -5.31486,6.54677 -4.80707,4.22722 -6.7286,6.73542 -8.06147,10.52274 -2.82712,8.0332 -2.69212,8.04029 6.07085,0.31889 z M 451,161.72859 c 0,-0.69928 -2.2467,-4.35315 -4.99267,-8.11972 -4.59565,-6.30372 -4.94411,-7.17675 -4.38193,-10.97859 0.33591,-2.27165 1.23262,-5.12695 1.99268,-6.3451 1.49795,-2.40077 1.7898,-6.13101 0.61661,-7.88121 -2.81811,-4.20413 -14.61773,-0.52423 -19.89359,6.20414 -5.13315,6.54638 -7.50257,12.55336 -3.28995,8.34074 2.22897,-2.22897 5.0506,-1.94048 8.21608,0.84001 1.61959,1.42261 2.01886,1.31123 4.77905,-1.3332 2.67629,-2.56405 2.94376,-3.33926 2.40098,-6.95879 -0.49324,-3.28913 -0.19863,-4.54724 1.53031,-6.53509 l 2.14113,-2.46178 -1.65281,2.7171 c -1.20186,1.97578 -1.46786,3.81177 -0.97495,6.72927 0.38502,2.27895 0.18687,5.49983 -0.45869,7.45592 -1.05274,3.18982 -0.89305,3.76531 2.1656,7.80429 1.81618,2.39828 4.42715,6.02985 5.80215,8.07014 2.41762,3.58738 6,5.0513 6,2.45187 z m 1,-6.21618 C 452,153.50443 449.15707,151 446.87768,151 c -1.84222,0 -1.79489,0.24199 0.68269,3.49026 C 450.1454,157.8794 452,158.3064 452,155.51241 z m -15.80776,-12.50306 c 0.86875,-2.34844 0.84979,-2.35736 -1.15449,-0.54351 -2.21787,2.00714 -2.73051,3.93175 -0.88325,3.31599 0.63497,-0.21165 1.55196,-1.45927 2.03774,-2.77248 z m 18.502,-13.43227 2.80576,-2.42292 -2.93709,-3.07708 c -3.88969,-4.07508 -6.06686,-3.92468 -8.19799,0.56634 -1.70079,3.58415 -1.69162,3.67362 0.56387,5.5 3.018,2.44383 4.39602,2.34333 7.76545,-0.56634 z m 35.69531,44.82105 c -2.13925,-1.43102 -5.09744,-3.73685 -6.57376,-5.12406 -2.6987,-2.53581 -6.46374,-10.68805 -7.01802,-15.19574 -0.20708,-1.68413 -1.21145,-2.71369 -3.29777,-3.38049 -1.65,-0.52735 -3.79813,-1.65446 -4.77363,-2.5047 -1.3597,-1.1851 -2.04817,-1.27134 -2.95,-0.36951 -1.69133,1.69133 -4.22696,1.44904 -6.0031,-0.57363 -2.03854,-2.32148 -3.20748,-6.25 -1.85971,-6.25 0.57658,0 1.32252,1.09244 1.65764,2.42764 1.22902,4.89682 6.75525,3.91551 7.9243,-1.40714 0.76722,-3.49316 4.79826,-7.0205 8.023,-7.0205 1.35488,0 3.68629,1.59115 5.86514,4.00288 3.90546,4.32288 4.15896,5.11475 2.58118,8.06286 -0.84867,1.58574 -0.70452,1.93426 0.8,1.93426 1.00935,0 2.33595,0.50077 2.948,1.11282 0.61205,0.61205 3.2178,1.50607 5.79056,1.98671 5.6659,1.05851 8.49662,-0.15243 8.49662,-3.63471 0,-4.05002 5.12451,-7.9957 7.4222,-5.71482 0.41554,0.4125 1.94326,0.75 3.39493,0.75 1.84215,0 2.75775,0.60412 3.03118,2 0.39143,1.99825 6.95303,10.23215 14.54014,18.24586 5.27188,5.5683 4.06771,7.19718 -3.39093,4.5869 -4.09151,-1.43189 -6.45222,-3.21319 -10.79318,-8.14406 -3.83614,-4.35746 -5.77107,-5.90535 -6.25022,-5 -0.3817,0.72121 -1.25942,5.03589 -1.95049,9.58817 -1.0332,6.80598 -1.70226,8.62752 -3.76492,10.25 -3.56166,2.80161 -9.09677,2.55032 -13.84916,-0.62874 z m 4.5593,-0.44928 c -2.22897,-2.22897 -1.94048,-5.0506 0.84001,-8.21608 1.42261,-1.61959 1.31123,-2.01886 -1.3332,-4.77905 -2.56405,-2.67629 -3.33926,-2.94376 -6.95879,-2.40098 -3.28913,0.49324 -4.54724,0.19863 -6.53509,-1.53031 L 478.5,154.8813 l 2.7171,1.65281 c 1.97578,1.20186 3.81177,1.46786 6.72927,0.97495 2.27895,-0.38502 5.49983,-0.18687 7.45592,0.45869 3.18982,1.05274 3.76531,0.89305 7.80429,-2.1656 2.39828,-1.81618 6.02985,-4.42715 8.07014,-5.80215 3.58738,-2.41762 5.0513,-6 2.45187,-6 -0.69928,0 -4.35315,2.2467 -8.11972,4.99267 -6.30372,4.59565 -7.17675,4.94411 -10.97859,4.38193 -2.27165,-0.33591 -5.12695,-1.23262 -6.3451,-1.99268 -2.40077,-1.49795 -6.13101,-1.7898 -7.88121,-0.61661 -4.20668,2.81982 -0.52223,14.62741 6.20414,19.88246 4.69143,3.66523 7.46716,5.28108 9.14189,5.32182 0.72662,0.0177 0.39118,-0.82841 -0.80115,-2.02074 z m 8.72244,0.56884 c 1.65371,-1.15831 2.39448,-3.35212 3.38895,-10.0365 1.88499,-12.67005 2.44076,-12.99386 9.16924,-5.34234 4.35099,4.94788 6.74485,6.7664 10.77479,8.18518 2.84955,1.00321 5.41481,1.59022 5.70057,1.30447 0.28575,-0.28576 -2.17931,-3.58157 -5.47791,-7.32403 -3.29861,-3.74246 -7.2866,-8.27914 -8.8622,-10.08151 L 515.5,147.94592 508,153.25541 c -4.29482,3.04043 -8.19133,6.67944 -9.11768,8.51514 -0.88972,1.7631 -2.07214,3.7735 -2.62761,4.46755 -2.3256,2.90582 -2.36345,5.58269 -0.10862,7.68338 2.63879,2.4584 4.64016,2.61697 7.5252,0.59621 z m -5.88946,-13.67219 c -0.21165,-0.63497 -1.45927,-1.55196 -2.77248,-2.03774 -2.34844,-0.86875 -2.35736,-0.84979 -0.54351,1.15449 2.00714,2.21787 3.93175,2.73051 3.31599,0.88325 z m -15.22195,-13.29654 c 1.82595,-2.78676 1.29521,-5.46514 -1.60264,-8.08766 -1.93224,-1.74865 -2.08076,-1.71714 -4.97447,1.05521 -3.71458,3.55879 -3.78577,5.9514 -0.23277,7.82285 3.95528,2.08333 5.00691,1.96128 6.80988,-0.7904 z m 26.87136,-3.66022 C 507.88688,141.38992 503,144.60688 503,148.12232 c 0,1.84222 0.24199,1.79489 3.49026,-0.68269 1.91964,-1.46418 3.24308,-3.06208 2.94098,-3.55089 z m -118.81488,-3.89162 c -3.90546,-4.32288 -4.15896,-5.11475 -2.58118,-8.06286 0.84867,-1.58574 0.70452,-1.93426 -0.8,-1.93426 -1.00935,0 -2.33595,-0.50077 -2.948,-1.11282 -0.61205,-0.61205 -3.2178,-1.50607 -5.79056,-1.98671 -5.6659,-1.05851 -8.49662,0.15243 -8.49662,3.63471 0,4.05002 -5.12451,7.9957 -7.4222,5.71482 -0.41554,-0.4125 -1.94326,-0.75 -3.39493,-0.75 -1.84215,0 -2.75775,-0.60412 -3.03118,-2 -0.39143,-1.99825 -6.95303,-10.23215 -14.54014,-18.24586 -5.27188,-5.5683 -4.06771,-7.19718 3.39093,-4.5869 4.09151,1.43189 6.45222,3.21319 10.79318,8.14406 3.83614,4.35746 5.77107,5.90535 6.25022,5 0.3817,-0.72121 1.25942,-5.03589 1.95049,-9.58817 1.0332,-6.80598 1.70226,-8.62752 3.76492,-10.25 8.59011,-6.756981 24.66771,5.04445 27.17159,19.94474 0.45155,2.68714 1.21497,3.62368 3.57073,4.38049 1.64802,0.52944 3.79452,1.65826 4.77002,2.5085 1.3597,1.1851 2.04817,1.27134 2.95,0.36951 1.69133,-1.69133 4.22696,-1.44904 6.0031,0.57363 2.03854,2.32148 3.20748,6.25 1.85971,6.25 -0.57658,0 -1.32252,-1.09244 -1.65764,-2.42764 -1.22902,-4.89682 -6.75525,-3.91551 -7.9243,1.40714 -0.76722,3.49316 -4.79826,7.0205 -8.023,7.0205 -1.35488,0 -3.68629,-1.59115 -5.86514,-4.00288 z m 5.57892,-1.68421 c 3.80546,-3.64586 3.57237,-5.8548 -0.8387,-7.94799 -3.58415,-1.70079 -3.67362,-1.69162 -5.5,0.56387 -1.02112,1.26103 -1.85658,2.85724 -1.85658,3.54714 0,1.37168 3.76542,6.52407 4.76786,6.52407 0.34249,0 1.88483,-1.20919 3.42742,-2.68709 z m -28.76671,-3.88434 C 368.29286,133.56429 369,131.96638 369,130.87768 c 0,-1.84222 -0.24199,-1.79489 -3.49026,0.68269 C 362.1206,134.1454 361.6936,136 364.48759,136 c 0.75325,0 2.0767,-0.70714 2.94098,-1.57143 z m -1.03744,-4.42124 c 6.30372,-4.59565 7.17675,-4.94411 10.97859,-4.38193 2.27165,0.33591 5.12695,1.23262 6.3451,1.99268 2.40077,1.49795 6.13101,1.7898 7.88121,0.61661 4.20413,-2.81811 0.52423,-14.61773 -6.20414,-19.89359 -6.54638,-5.13315 -12.55336,-7.50257 -8.34074,-3.28995 2.22897,2.22897 1.94048,5.0506 -0.84001,8.21608 -1.42261,1.61959 -1.31123,2.01886 1.3332,4.77905 2.56405,2.67629 3.33926,2.94376 6.95879,2.40098 3.28913,-0.49324 4.54724,-0.19863 6.53509,1.53031 l 2.46178,2.14113 -2.7171,-1.65281 c -1.97578,-1.20186 -3.81177,-1.46786 -6.72927,-0.97495 -2.27895,0.38502 -5.49983,0.18687 -7.45592,-0.45869 -3.18982,-1.05274 -3.76531,-0.89305 -7.80429,2.1656 -2.39828,1.81618 -6.02985,4.42715 -8.07014,5.80215 -3.58738,2.41762 -5.0513,6 -2.45187,6 0.69928,0 4.35315,-2.2467 8.11972,-4.99267 z M 365.5,124.72673 c 3.35762,-2.40623 6.98043,-6.04537 8.22625,-8.26331 4.90888,-8.73931 4.98422,-10.21004 0.64209,-12.53388 -2.15047,-1.1509 -2.92236,-1.12936 -5.19697,0.14504 -2.36277,1.3238 -2.85792,2.56863 -4.28623,10.77592 -0.88817,5.10357 -2.06334,9.7277 -2.61147,10.27583 -0.66215,0.66215 -2.85925,-1.12153 -6.54677,-5.31486 -4.30807,-4.89901 -6.70963,-6.71967 -10.73117,-8.1355 -2.84955,-1.00321 -5.44876,-1.55628 -5.776,-1.22903 -0.32725,0.32724 1.21202,2.49806 3.4206,4.82403 2.20857,2.32596 6.1648,6.80732 8.79161,9.95856 5.35598,6.42527 4.35061,6.4612 14.06806,-0.5028 z M 377.5,119 c -1.96955,-2.17632 -3.5,-2.59951 -3.5,-0.96778 0,0.56773 1.0125,1.4392 2.25,1.93662 3.20812,1.2895 3.25846,1.25048 1.25,-0.96884 z M 202,131.2 c 0,-0.44 0.47491,-1.27491 1.05536,-1.85536 1.29722,-1.29722 0.16317,-6.35815 -1.41377,-6.3092 -0.62787,0.0195 -2.26659,0.67854 -3.64159,1.46456 -6.23831,3.56614 -11,0.37254 -11,-7.37756 0,-3.11565 0.54184,-5.32724 1.5,-6.12244 0.825,-0.68469 1.5,-1.56541 1.5,-1.95715 0,-0.86266 -19.28994,-5.34916 -23.48558,-5.46232 -4.48623,-0.121 -4.60656,-3.22626 -0.19642,-5.068931 3.13085,-1.308152 4.42773,-1.244832 13.20175,0.644572 9.0454,1.947839 9.96383,1.983649 13.0561,0.50905 3.57808,-1.70627 5.9335,-4.671494 6.8832,-8.665221 0.52708,-2.216547 -0.33115,-3.179672 -7.56948,-8.494579 -4.49019,-3.297019 -8.75143,-6.897019 -9.46944,-8 -0.95446,-1.466213 -1.25312,-6.150765 -1.11078,-17.42276 0.22388,-17.729296 1.19478,-19.713947 5.20649,-10.642761 1.93942,4.385373 2.48715,7.310336 2.49781,13.338613 0.0205,11.611825 -0.0896,11.443228 10.64035,16.291064 10.63457,4.804755 12.346,6.803769 12.346,14.420601 0,5.505429 -2.38514,10.473352 -7.86625,16.384302 -3.92494,4.23274 -4.00902,4.46604 -2.59506,7.20034 0.80372,1.55422 1.46131,3.71174 1.46131,4.79448 0,1.08274 0.76869,3.30799 1.7082,4.94499 1.40691,2.4514 1.49888,3.43579 0.52144,5.58104 C 204.12466,131.82051 202,133.00773 202,131.2 z m -6.6203,-12.23506 c 0.48384,-0.45339 0.93384,-2.48264 1,-4.50943 0.0948,-2.90521 -0.33142,-3.85656 -2.0142,-4.49535 -3.69276,-1.40178 -6.3655,1.40134 -6.3655,6.676 l 0,4.52275 3.25,-0.68481 c 1.7875,-0.37664 3.64587,-1.05576 4.1297,-1.50916 z M 203.69908,106.25 C 208.59753,100.95448 211,95.800323 211,90.586891 211,85.95822 209.34722,81 207.8043,81 c -0.48107,0 -0.37297,0.937434 0.24022,2.083187 1.47815,2.761956 -1.45239,6.26316 -4.71957,5.6386 -1.78268,-0.340782 -2.3547,0.137174 -2.84707,2.378914 -0.33889,1.542958 -1.53857,3.978034 -2.66596,5.411279 l -2.04981,2.6059 2.11895,2.25551 c 2.12626,2.26331 2.83135,6.06828 1.29988,7.01478 -0.45048,0.27841 -0.63943,-0.71766 -0.41988,-2.2135 0.2679,-1.82537 -0.26141,-3.31751 -1.60969,-4.53768 -1.72653,-1.56249 -2.4756,-1.652652 -5.33011,-0.64155 -2.74358,0.97181 -4.92779,0.82184 -12.55772,-0.86221 -7.17126,-1.582807 -9.91027,-1.803741 -12.25,-0.988105 -3.36456,1.172895 -4.32391,4.430805 -1.05284,3.575405 1.07838,-0.282 8.84088,1.20113 17.25,3.29586 8.40911,2.09473 15.67861,3.84798 16.15443,3.8961 0.47582,0.0481 2.4261,-1.59999 4.33395,-3.66249 z m 3.2413,-19.678165 c 0.92225,-1.111242 0.85793,-2.061179 -0.28985,-4.280739 -1.07291,-2.074782 -3.56646,-3.771648 -9.14517,-6.223309 C 188.52359,72.120589 188,71.239279 188,60.068253 c 0,-5.693225 -0.57652,-9.188806 -2.13333,-12.9349 C 184.69335,44.310009 183.44015,42 183.08181,42 c -0.76156,0 -1.20531,28.698772 -0.48209,31.178257 0.26923,0.923042 3.73194,4.159815 7.6949,7.192829 9.79393,7.495696 14.20679,9.139537 16.64576,6.200749 z m 29.57098,36.446555 c -0.33367,-0.53989 0.20228,-3.29376 1.19099,-6.11972 1.39265,-3.98052 3.21954,-6.38987 8.10895,-10.69433 4.35746,-3.83614 5.90535,-5.77107 5,-6.250219 -0.72121,-0.381697 -5.03589,-1.259417 -9.58817,-1.950488 -6.80598,-1.033199 -8.62752,-1.702267 -10.25,-3.764921 -6.75698,-8.59011 5.04445,-24.667714 19.94474,-27.171593 2.68714,-0.451553 3.62368,-1.214966 4.38049,-3.570733 0.52944,-1.648012 1.65826,-3.794519 2.5085,-4.770015 1.1851,-1.359697 1.27134,-2.048171 0.36951,-2.95 -1.69133,-1.691335 -1.44904,-4.226958 0.57363,-6.003103 2.32148,-2.038535 6.25,-3.207478 6.25,-1.859708 0,0.576585 -1.09244,1.322521 -2.42764,1.657635 -4.89682,1.229023 -3.91551,6.755252 1.40714,7.924302 3.49316,0.767226 7.0205,4.79826 7.0205,8.022999 0,1.354886 -1.59115,3.68629 -4.00288,5.865142 -4.32288,3.905461 -5.11475,4.158962 -8.06286,2.581178 -1.58574,-0.848661 -1.93426,-0.704515 -1.93426,0.8 0,1.009351 -0.50077,2.335952 -1.11282,2.948002 -0.61205,0.61205 -1.50607,3.217804 -1.98671,5.790564 C 252.84196,89.169283 254.0529,92 257.53518,92 c 4.05002,0 7.9957,5.124505 5.71482,7.422196 -0.4125,0.415541 -0.75,1.943264 -0.75,3.394934 0,1.8261 -0.60559,2.75851 -1.9653,3.02593 -1.86034,0.36587 -17.554,13.06541 -20.43371,16.53525 -1.53541,1.85006 -2.71213,2.05989 -3.58963,0.64008 z m 8.30949,-5.90366 c 3.67353,-3.2369 8.15382,-7.1744 9.95619,-8.75 L 258.05408,105.5 252.73005,98 c -3.30833,-4.660465 -6.82066,-8.342871 -9.27704,-9.726255 -8.71521,-4.908233 -10.19957,-4.984337 -12.52347,-0.642082 -1.1509,2.150471 -1.12936,2.922359 0.14504,5.196963 1.3238,2.362778 2.56863,2.857922 10.77592,4.286234 5.10357,0.888174 9.7277,2.063335 10.27583,2.611471 0.66215,0.662149 -1.12153,2.859249 -5.31486,6.546769 -4.80707,4.22722 -6.7286,6.73542 -8.06147,10.52274 -2.82712,8.0332 -2.69212,8.04029 6.07085,0.31889 z M 262,103.72859 c 0,-0.69928 -2.2467,-4.353154 -4.99267,-8.119721 -4.59565,-6.303719 -4.94411,-7.17675 -4.38193,-10.978587 0.33591,-2.271655 1.23262,-5.12695 1.99268,-6.345099 1.49795,-2.400778 1.7898,-6.131013 0.61661,-7.881211 -2.81811,-4.204135 -14.61773,-0.524233 -19.89359,6.204138 -5.13315,6.546382 -7.50257,12.553358 -3.28995,8.340738 2.22897,-2.228967 5.0506,-1.940482 8.21608,0.840015 1.61959,1.422612 2.01886,1.311228 4.77905,-1.333198 2.67629,-2.564055 2.94376,-3.339264 2.40098,-6.958798 -0.49324,-3.289122 -0.19863,-4.547233 1.53031,-6.535083 L 251.1187,68.5 l -1.65281,2.717104 c -1.20186,1.975779 -1.46786,3.811768 -0.97495,6.729266 0.38502,2.278947 0.18687,5.499834 -0.45869,7.455924 -1.05274,3.189818 -0.89305,3.765308 2.1656,7.804284 1.81618,2.398286 4.42715,6.029849 5.80215,8.070142 2.41762,3.58738 6,5.0513 6,2.45187 z m 1,-6.216178 C 263,95.50443 260.15707,93 257.87768,93 c -1.84222,0 -1.79489,0.241994 0.68269,3.490256 C 261.1454,99.879405 263,100.3064 263,97.512412 z M 247.19224,85.009354 c 0.86875,-2.348444 0.84979,-2.357368 -1.15449,-0.543514 -2.21787,2.007143 -2.73051,3.931746 -0.88325,3.315994 0.63497,-0.211658 1.55196,-1.459274 2.03774,-2.77248 z m 18.502,-13.432276 2.80576,-2.422922 -2.93709,-3.077078 c -3.88969,-4.07508 -6.06686,-3.924675 -8.19799,0.56634 -1.70079,3.584151 -1.69162,3.673619 0.56387,5.5 3.018,2.443835 4.39602,2.343335 7.76545,-0.56634 z m 41.69531,29.821052 c -2.13925,-1.431023 -5.09744,-3.736849 -6.57376,-5.124055 -2.6987,-2.535813 -6.46374,-10.688055 -7.01802,-15.195747 -0.20708,-1.68413 -1.21145,-2.713688 -3.29777,-3.380488 -1.65,-0.527349 -3.79813,-1.654463 -4.77363,-2.504699 -1.3597,-1.185103 -2.04817,-1.271341 -2.95,-0.369512 -1.69133,1.691335 -4.22696,1.449042 -6.0031,-0.573629 -2.03854,-2.321481 -3.20748,-6.25 -1.85971,-6.25 0.57658,0 1.32252,1.092439 1.65764,2.427642 1.22902,4.896817 6.75525,3.91551 7.9243,-1.407139 C 285.26272,65.527345 289.29376,62 292.5185,62 c 1.35488,0 3.68629,1.591152 5.86514,4.002881 3.90546,4.322878 4.15896,5.114744 2.58118,8.06286 C 300.11615,75.65148 300.2603,76 301.76482,76 c 1.00935,0 2.33595,0.500768 2.948,1.112818 0.61205,0.61205 3.2178,1.506072 5.79056,1.986715 5.6659,1.058505 8.49662,-0.15243 8.49662,-3.634717 0,-4.050012 5.12451,-7.995691 7.4222,-5.714816 0.41554,0.4125 1.94326,0.75 3.39493,0.75 1.84215,0 2.75775,0.604119 3.03118,2 0.39143,1.998254 6.95303,10.232151 14.54014,18.245858 5.27188,5.568304 4.06771,7.197186 -3.39093,4.586905 -4.09151,-1.431896 -6.45222,-3.21319 -10.79318,-8.144065 -3.83614,-4.357461 -5.77107,-5.905352 -6.25022,-5 -0.3817,0.721216 -1.25942,5.035893 -1.95049,9.588171 -1.0332,6.805978 -1.70226,8.627521 -3.76492,10.250001 -3.56166,2.80161 -9.09677,2.55032 -13.84916,-0.62874 z m 4.5593,-0.44928 c -2.22897,-2.228969 -1.94048,-5.0506 0.84001,-8.216082 1.42261,-1.619586 1.31123,-2.018858 -1.3332,-4.779044 -2.56405,-2.676297 -3.33926,-2.943766 -6.95879,-2.400983 -3.28913,0.493234 -4.54724,0.198625 -6.53509,-1.530307 L 295.5,81.881299 l 2.7171,1.652806 c 1.97578,1.20186 3.81177,1.467864 6.72927,0.974956 2.27895,-0.385026 5.49983,-0.186875 7.45592,0.458693 3.18982,1.052735 3.76531,0.893043 7.80429,-2.165605 2.39828,-1.816182 6.02985,-4.427149 8.07014,-5.802149 3.58738,-2.417621 5.0513,-6 2.45187,-6 -0.69928,0 -4.35315,2.246703 -8.11972,4.992674 -6.30372,4.59565 -7.17675,4.944106 -10.97859,4.381924 -2.27165,-0.335912 -5.12695,-1.232615 -6.3451,-1.992673 -2.40077,-1.497955 -6.13101,-1.789802 -7.88121,-0.616612 -4.20668,2.819813 -0.52223,14.627403 6.20414,19.882454 4.69143,3.665233 7.46716,5.281083 9.14189,5.321823 0.72662,0.0177 0.39118,-0.82841 -0.80115,-2.02074 z m 8.72244,0.56884 c 1.65371,-1.15831 2.39448,-3.352123 3.38895,-10.0365 1.88499,-12.670048 2.44076,-12.993861 9.16924,-5.342337 4.35099,4.947876 6.74485,6.766395 10.77479,8.185174 2.84955,1.003214 5.41481,1.590225 5.70057,1.304468 0.28575,-0.285756 -2.17931,-3.581568 -5.47791,-7.324026 -3.29861,-3.742458 -7.2866,-8.279138 -8.8622,-10.081511 L 332.5,74.945916 325,80.255406 c -4.29482,3.040439 -8.19133,6.679448 -9.11768,8.515139 -0.88972,1.763107 -2.07214,3.773506 -2.62761,4.467552 -2.3256,2.905822 -2.36345,5.582689 -0.10862,7.683383 2.63879,2.4584 4.64016,2.61697 7.5252,0.59621 z m -5.88946,-13.672187 c -0.21165,-0.634974 -1.45927,-1.55196 -2.77248,-2.037746 -2.34844,-0.868746 -2.35736,-0.84979 -0.54351,1.154497 2.00714,2.217867 3.93175,2.730505 3.31599,0.883249 z m -15.22195,-13.29654 c 1.82595,-2.786763 1.29521,-5.465143 -1.60264,-8.087661 -1.93224,-1.748649 -2.08076,-1.717143 -4.97447,1.055207 -3.71458,3.558789 -3.78577,5.951401 -0.23277,7.822846 3.95528,2.083339 5.00691,1.961281 6.80988,-0.790392 z m 26.87136,-3.66022 C 324.88688,68.389925 320,71.606879 320,75.12232 c 0,1.842218 0.24199,1.794885 3.49026,-0.682686 1.91964,-1.464181 3.24308,-3.062082 2.94098,-3.550891 z M 32.5,63.876863 c -2.75,-2.210444 -7.9905,-5.978934 -11.645555,-8.374422 -7.385157,-4.840162 -8.585917,-6.170969 -6.999409,-7.757477 1.886113,-1.886113 8.937422,1.048591 20.08327,8.358513 C 39.721839,59.896565 44.094743,63 43.655869,63 43.216996,63 38.502386,60.145016 33.178959,56.655591 24.113201,50.713126 18.524893,48 15.350777,48 12.53755,48 14.199051,50.151995 19.75,53.697926 c 8.141516,5.200778 20.133451,14.694392 18,14.25 -0.1375,-0.02864 -2.5,-1.86062 -5.25,-4.071063 z"
       id="path2989"
       style="fill:#000000" />
  </g>
</svg>
