<?xml version="1.0" encoding="UTF-8" standalone="no"?>
<svg
   xmlns:dc="http://purl.org/dc/elements/1.1/"
   xmlns:cc="http://creativecommons.org/ns#"
   xmlns:rdf="http://www.w3.org/1999/02/22-rdf-syntax-ns#"
   xmlns:svg="http://www.w3.org/2000/svg"
   xmlns="http://www.w3.org/2000/svg"
   xmlns:sodipodi="http://sodipodi.sourceforge.net/DTD/sodipodi-0.dtd"
   xmlns:inkscape="http://www.inkscape.org/namespaces/inkscape"
   version="1.0"
   width="69.000000pt"
   height="67.000000pt"
   viewBox="0 0 69.000000 67.000000"
   preserveAspectRatio="xMidYMid meet"
   id="svg2"
   inkscape:version="0.91 r13725"
   sodipodi:docname="fx850302.svg">
  <defs
     id="defs18" />
  <sodipodi:namedview
     pagecolor="#ffffff"
     bordercolor="#666666"
     borderopacity="1"
     objecttolerance="10"
     gridtolerance="10"
     guidetolerance="10"
     inkscape:pageopacity="0"
     inkscape:pageshadow="2"
     inkscape:window-width="1178"
     inkscape:window-height="792"
     id="namedview16"
     showgrid="false"
     inkscape:zoom="2.8284271"
     inkscape:cx="63.903748"
     inkscape:cy="47.81066"
     inkscape:window-x="714"
     inkscape:window-y="24"
     inkscape:window-maximized="0"
     inkscape:current-layer="svg2"
     showguides="true"
     inkscape:guide-bbox="true"
     borderlayer="true" />
  <metadata
     id="metadata4">
Created by potrace 1.11, written by Peter Selinger 2001-2013
<rdf:RDF>
  <cc:Work
     rdf:about="">
    <dc:format>image/svg+xml</dc:format>
    <dc:type
       rdf:resource="http://purl.org/dc/dcmitype/StillImage" />
    <dc:title></dc:title>
  </cc:Work>
</rdf:RDF>
</metadata>
  <path
     style="color:#000000;clip-rule:nonzero;display:inline;overflow:visible;visibility:visible;opacity:1;isolation:auto;mix-blend-mode:normal;color-interpolation:sRGB;color-interpolation-filters:linearRGB;solid-color:#000000;solid-opacity:1;fill:none;fill-opacity:1;fill-rule:evenodd;stroke:#000000;stroke-width:2.4000001;stroke-linecap:round;stroke-linejoin:round;stroke-miterlimit:4;stroke-dasharray:none;stroke-dashoffset:0;stroke-opacity:1;color-rendering:auto;image-rendering:auto;shape-rendering:auto;text-rendering:auto;enable-background:accumulate"
     d="m 16.690538,17.567166 c -5.677539,-3.562344 -10.9654617,1.653448 -10.9654617,7.522343 0,5.916985 10.9654617,7.209641 10.9654617,1.866055 0,-5.343583 -10.9654617,-2.764579 -10.9654617,6.586694 0,9.351203 10.9654617,7.811267 10.9654617,2.801642 0,-5.00956 -10.9654617,-2.698228 -10.9654617,5.651104 0,8.349332 9.4069287,8.635533 11.0252627,3.619818 0.0598,3.701315 4.192827,5.142397 6.6149,4.493405 3.818469,-1.028637 5.95583,-4.315086 7.061474,-8.25513 1.001832,-4.222395 0.106653,-8.44479 -2.574089,-8.44479 -6.008837,0 -5.247111,16.88958 5.07477,16.88958 9.807104,0 11.588025,-16.88958 6.226501,-16.88958 -3.004418,0 -4.316205,4.222395 -3.585763,8.44479 0.641352,3.517916 2.940891,7.330185 6.84241,8.25513 5.059926,1.35576 9.265142,-12.348694 9.265142,-16.450356 l 5.510784,17.157671 6.082757,-17.477671"
     id="path9029-4-6"
     inkscape:connector-curvature="0"
     sodipodi:nodetypes="cssssscccscsccccc" />
</svg>
