<?xml version="1.0" encoding="UTF-8" standalone="no"?>
<svg
   xmlns:dc="http://purl.org/dc/elements/1.1/"
   xmlns:cc="http://creativecommons.org/ns#"
   xmlns:rdf="http://www.w3.org/1999/02/22-rdf-syntax-ns#"
   xmlns:svg="http://www.w3.org/2000/svg"
   xmlns="http://www.w3.org/2000/svg"
   xmlns:sodipodi="http://sodipodi.sourceforge.net/DTD/sodipodi-0.dtd"
   xmlns:inkscape="http://www.inkscape.org/namespaces/inkscape"
   version="1.0"
   width="103.000000pt"
   height="90.000000pt"
   viewBox="0 0 103.000000 90.000000"
   preserveAspectRatio="xMidYMid meet"
   id="svg2"
   inkscape:version="0.91 r13725"
   sodipodi:docname="20ub141102_99.svg">
  <defs
     id="defs24" />
  <sodipodi:namedview
     pagecolor="#ffffff"
     bordercolor="#666666"
     borderopacity="1"
     objecttolerance="10"
     gridtolerance="10"
     guidetolerance="10"
     inkscape:pageopacity="0"
     inkscape:pageshadow="2"
     inkscape:window-width="1178"
     inkscape:window-height="746"
     id="namedview22"
     showgrid="false"
     inkscape:zoom="8.3911111"
     inkscape:cx="32.350793"
     inkscape:cy="73.712038"
     inkscape:window-x="0"
     inkscape:window-y="0"
     inkscape:window-maximized="0"
     inkscape:current-layer="svg2" />
  <metadata
     id="metadata4">
Created by potrace 1.11, written by Peter Selinger 2001-2013
<rdf:RDF>
  <cc:Work
     rdf:about="">
    <dc:format>image/svg+xml</dc:format>
    <dc:type
       rdf:resource="http://purl.org/dc/dcmitype/StillImage" />
    <dc:title></dc:title>
  </cc:Work>
</rdf:RDF>
</metadata>
  <path
     style="color:#000000;clip-rule:nonzero;display:inline;overflow:visible;visibility:visible;opacity:1;isolation:auto;mix-blend-mode:normal;color-interpolation:sRGB;color-interpolation-filters:linearRGB;solid-color:#000000;solid-opacity:1;fill:none;fill-opacity:1;fill-rule:evenodd;stroke:#000000;stroke-width:2.4000001;stroke-linecap:round;stroke-linejoin:round;stroke-miterlimit:4;stroke-dasharray:none;stroke-dashoffset:0;stroke-opacity:1;color-rendering:auto;image-rendering:auto;shape-rendering:auto;text-rendering:auto;enable-background:accumulate"
     d="m 44.376753,22.74545 c 0,0 -0.852006,-0.0426 -2.119364,0.102951 -1.267359,0.145551 -2.95007,0.479253 -4.611481,1.231858 -1.661411,0.752605 -3.301522,1.924113 -4.48368,3.745275 -1.182158,1.821162 -1.906363,4.291978 -1.735962,7.643201 0.170401,3.351223 0.781005,6.162842 1.672061,8.658509 0.891056,2.495667 2.062564,4.675381 3.354773,6.762795 1.292209,2.087414 2.705118,4.082528 4.078977,6.208992 1.37386,2.126464 2.708669,4.384279 3.844676,6.997096 1.136008,2.612818 1.760812,4.927433 1.948963,6.929647 0.188152,2.002213 -0.06035,3.692025 -0.670954,5.055234 -0.610604,1.363209 -1.58331,2.399816 -2.843569,3.09562 -1.260258,0.695805 -2.808068,1.050807 -4.56888,1.050807 -1.760812,0 -3.024621,-0.596404 -3.855326,-1.54426 -0.830706,-0.947857 -1.228309,-2.247165 -1.256709,-3.652975 -0.0284,-1.405809 0.312402,-2.918119 0.958506,-4.291978 0.646105,-1.373859 1.597511,-2.609267 2.790319,-3.461273 1.192808,-0.852006 3.351223,-2.513417 6.006641,-4.693131 2.655417,-2.179715 5.807839,-4.877733 8.98866,-7.802953 3.180821,-2.925219 6.390043,-6.077641 9.159061,-9.166161 2.769019,-3.088521 5.097834,-6.113141 6.517844,-8.782759 1.42001,-2.669618 2.115814,-5.097834 2.257815,-7.089398 0.142001,-1.991563 -0.269802,-3.546474 -1.065007,-4.46948 -0.795205,-0.923006 -1.973813,-1.214108 -3.365423,-0.678055 -1.391609,0.536054 -2.99622,1.899263 -4.643431,4.284879 -1.647211,2.385616 -3.05302,5.594838 -4.096727,9.130661 -1.043707,3.535824 -1.725312,7.39825 -1.924113,11.090275 -0.198801,3.692024 0.0852,7.213648 0.972706,10.067867 0.887506,2.854219 2.378516,5.041034 4.593731,6.063441 2.215215,1.022407 5.168834,-0.894606 8.353206,-4.345229 3.184371,-3.450623 6.599494,-8.434857 9.737715,-13.546891 3.138222,-5.112034 5.999541,-10.35187 8.076305,-14.313696 2.076764,-3.961827 3.368973,-6.645645 3.368973,-6.645645 l 0.0568,11.132875 0.0568,11.132874 0.0568,11.132875 0.0568,11.132875"
     id="path4150"
     inkscape:connector-curvature="0"
     sodipodi:nodetypes="csssssssssssssssssssssssssssssssccccc" />
  <path
     style="color:#000000;clip-rule:nonzero;display:inline;overflow:visible;visibility:visible;opacity:1;isolation:auto;mix-blend-mode:normal;color-interpolation:sRGB;color-interpolation-filters:linearRGB;solid-color:#000000;solid-opacity:1;fill:none;fill-opacity:1;fill-rule:evenodd;stroke:#000000;stroke-width:2.4000001;stroke-linecap:round;stroke-linejoin:round;stroke-miterlimit:4;stroke-dasharray:none;stroke-dashoffset:0;stroke-opacity:1;color-rendering:auto;image-rendering:auto;shape-rendering:auto;text-rendering:auto;enable-background:accumulate"
     d="m 5.9796956,41.375975 4.1464274,-3.692025 4.146428,-3.692025 4.146428,-3.692024 4.146428,-3.692025"
     id="path4152"
     inkscape:connector-curvature="0"
     sodipodi:nodetypes="ccccc" />
  <path
     style="color:#000000;clip-rule:nonzero;display:inline;overflow:visible;visibility:visible;opacity:1;isolation:auto;mix-blend-mode:normal;color-interpolation:sRGB;color-interpolation-filters:linearRGB;solid-color:#000000;solid-opacity:1;fill:none;fill-opacity:1;fill-rule:evenodd;stroke:#000000;stroke-width:2.4000001;stroke-linecap:round;stroke-linejoin:round;stroke-miterlimit:4;stroke-dasharray:none;stroke-dashoffset:0;stroke-opacity:1;color-rendering:auto;image-rendering:auto;shape-rendering:auto;text-rendering:auto;enable-background:accumulate"
     d="m 13.250145,28.879891 2.328816,-0.624804 2.328815,-0.624805 2.328816,-0.624804 2.328815,-0.624804 -0.511204,2.272015 -0.511203,2.272015 -0.511203,2.272016 -0.511204,2.272015"
     id="path4154"
     inkscape:connector-curvature="0"
     sodipodi:nodetypes="ccccccccc" />
  <path
     style="color:#000000;clip-rule:nonzero;display:inline;overflow:visible;visibility:visible;opacity:1;isolation:auto;mix-blend-mode:normal;color-interpolation:sRGB;color-interpolation-filters:linearRGB;solid-color:#000000;solid-opacity:1;fill:#000000;fill-opacity:1;fill-rule:evenodd;stroke:none;stroke-width:0.80000001px;stroke-linecap:butt;stroke-linejoin:miter;stroke-miterlimit:4;stroke-dasharray:none;stroke-dashoffset:0;stroke-opacity:1;color-rendering:auto;image-rendering:auto;shape-rendering:auto;text-rendering:auto;enable-background:accumulate"
     d="m 89.703456,76.36501 c -0.596404,0.142001 -1.235408,0.596404 -1.704011,1.199908 -0.468603,0.603504 -0.766805,1.356109 -0.681605,2.094514 0.0852,0.738405 0.852006,1.150208 1.739513,1.207008 0.887507,0.0568 1.895715,-0.241401 2.463719,-0.923006 0.568004,-0.681605 0.724204,-1.576211 0.433101,-2.300416 C 91.66307,76.918814 90.924664,76.36501 89.703456,76.36501 Z"
     id="path4156"
     inkscape:connector-curvature="0"
     sodipodi:nodetypes="csssssc" />
  <path
     style="color:#000000;clip-rule:nonzero;display:inline;overflow:visible;visibility:visible;opacity:1;isolation:auto;mix-blend-mode:normal;color-interpolation:sRGB;color-interpolation-filters:linearRGB;solid-color:#000000;solid-opacity:1;fill:none;fill-opacity:1;fill-rule:evenodd;stroke:#000000;stroke-width:2.4000001;stroke-linecap:round;stroke-linejoin:round;stroke-miterlimit:4;stroke-dasharray:none;stroke-dashoffset:0;stroke-opacity:1;color-rendering:auto;image-rendering:auto;shape-rendering:auto;text-rendering:auto;enable-background:accumulate"
     d="m 82.277544,7.3411016 c 0,0 -0.286018,2.5264831 0.357519,5.0529664 0.643537,2.526483 2.216629,5.052966 5.934849,5.052966 3.718224,0 5.362822,-2.288136 6.077864,-4.576271 0.715042,-2.288136 0.500528,-4.5762718 0.500528,-4.5762718"
     id="path4166"
     inkscape:connector-curvature="0"
     sodipodi:nodetypes="csssc" />
</svg>
