<?xml version="1.0" encoding="UTF-8" standalone="no"?>
<svg
   xmlns:dc="http://purl.org/dc/elements/1.1/"
   xmlns:cc="http://creativecommons.org/ns#"
   xmlns:rdf="http://www.w3.org/1999/02/22-rdf-syntax-ns#"
   xmlns:svg="http://www.w3.org/2000/svg"
   xmlns="http://www.w3.org/2000/svg"
   xmlns:sodipodi="http://sodipodi.sourceforge.net/DTD/sodipodi-0.dtd"
   xmlns:inkscape="http://www.inkscape.org/namespaces/inkscape"
   version="1.0"
   width="69.000000pt"
   height="67.000000pt"
   viewBox="0 0 69.000000 67.000000"
   preserveAspectRatio="xMidYMid meet"
   id="svg2"
   inkscape:version="0.91 r13725"
   sodipodi:docname="ub430702.svg">
  <defs
     id="defs18" />
  <sodipodi:namedview
     pagecolor="#ffffff"
     bordercolor="#666666"
     borderopacity="1"
     objecttolerance="10"
     gridtolerance="10"
     guidetolerance="10"
     inkscape:pageopacity="0"
     inkscape:pageshadow="2"
     inkscape:window-width="1347"
     inkscape:window-height="996"
     id="namedview16"
     showgrid="false"
     inkscape:zoom="5.8161765"
     inkscape:cx="44.753685"
     inkscape:cy="53.750041"
     inkscape:window-x="547"
     inkscape:window-y="2"
     inkscape:window-maximized="0"
     inkscape:current-layer="svg2"
     showguides="true"
     inkscape:guide-bbox="true"
     borderlayer="true" />
  <metadata
     id="metadata4">
Created by potrace 1.11, written by Peter Selinger 2001-2013
<rdf:RDF>
  <cc:Work
     rdf:about="">
    <dc:format>image/svg+xml</dc:format>
    <dc:type
       rdf:resource="http://purl.org/dc/dcmitype/StillImage" />
    <dc:title></dc:title>
  </cc:Work>
</rdf:RDF>
</metadata>
  <g
     id="g11244"
     transform="translate(-0.85896609,-2.07076)">
    <path
       sodipodi:nodetypes="sss"
       inkscape:connector-curvature="0"
       id="path8069-8"
       d="m 12.661735,37.979545 c -1.844889,0 -1.84979,2.75525 0,2.75525 1.84979,0 1.77618,-2.75525 0,-2.75525 z"
       style="color:#000000;clip-rule:nonzero;display:inline;overflow:visible;visibility:visible;opacity:1;isolation:auto;mix-blend-mode:normal;color-interpolation:sRGB;color-interpolation-filters:linearRGB;solid-color:#000000;solid-opacity:1;fill:#000000;fill-opacity:1;fill-rule:evenodd;stroke:none;stroke-width:2.4000001;stroke-linecap:round;stroke-linejoin:round;stroke-miterlimit:4;stroke-dasharray:none;stroke-dashoffset:0;stroke-opacity:1;color-rendering:auto;image-rendering:auto;shape-rendering:auto;text-rendering:auto;enable-background:accumulate" />
    <path
       sodipodi:nodetypes="ccc"
       inkscape:connector-curvature="0"
       id="path4300-2-3-93-3-8-1-85-8-35-6"
       d="m 39.919092,46.444579 14.03711,-19.147747 0,19.147747"
       style="color:#000000;clip-rule:nonzero;display:inline;overflow:visible;visibility:visible;opacity:1;isolation:auto;mix-blend-mode:normal;color-interpolation:sRGB;color-interpolation-filters:linearRGB;solid-color:#000000;solid-opacity:1;fill:none;fill-opacity:1;fill-rule:evenodd;stroke:#000000;stroke-width:2.4000001;stroke-linecap:round;stroke-linejoin:round;stroke-miterlimit:4;stroke-dasharray:none;stroke-dashoffset:0;stroke-opacity:1;color-rendering:auto;image-rendering:auto;shape-rendering:auto;text-rendering:auto;enable-background:accumulate" />
    <path
       inkscape:transform-center-y="11.628475"
       inkscape:transform-center-x="-7.1791126"
       sodipodi:nodetypes="ccsssc"
       inkscape:connector-curvature="0"
       id="path6952-0-0-4"
       d="m 49.340077,28.477302 c 0,0 -8.378924,-2.774272 -9.016521,3.77287 -0.763488,7.840316 7.987758,7.628718 8.286868,4.557292 0.299115,-3.071507 -8.410406,-2.451018 -9.055819,4.176993 -0.322786,3.313975 1.761604,4.677938 3.950555,5.096829 3.104558,0.594081 5.889612,-0.227611 8.27788,-2.008914"
       style="color:#000000;clip-rule:nonzero;display:inline;overflow:visible;visibility:visible;opacity:1;isolation:auto;mix-blend-mode:normal;color-interpolation:sRGB;color-interpolation-filters:linearRGB;solid-color:#000000;solid-opacity:1;fill:none;fill-opacity:1;fill-rule:evenodd;stroke:#000000;stroke-width:2.4000001;stroke-linecap:round;stroke-linejoin:round;stroke-miterlimit:4;stroke-dasharray:none;stroke-dashoffset:0;stroke-opacity:1;color-rendering:auto;image-rendering:auto;shape-rendering:auto;text-rendering:auto;enable-background:accumulate" />
    <path
       style="color:#000000;clip-rule:nonzero;display:inline;overflow:visible;visibility:visible;opacity:1;isolation:auto;mix-blend-mode:normal;color-interpolation:sRGB;color-interpolation-filters:linearRGB;solid-color:#000000;solid-opacity:1;fill:none;fill-opacity:1;fill-rule:evenodd;stroke:#000000;stroke-width:2.4000001;stroke-linecap:round;stroke-linejoin:round;stroke-miterlimit:4;stroke-dasharray:none;stroke-dashoffset:0;stroke-opacity:1;color-rendering:auto;image-rendering:auto;shape-rendering:auto;text-rendering:auto;enable-background:accumulate"
       d="m 40.971953,30.009149 c 0,0 -2.75697,5.738196 -6.332639,6.054703 -3.80553,0.370598 -7.880202,-11.686218 -1.356357,-11.686216 6.313571,0 -0.375295,11.779875 -5.400522,12.269253 -4.209114,0.409902 -7.0704,-1.88861 -6.971398,-7.64478 0,8.886284 -1.857382,17.761775 -8.764658,17.761775 -7.0459998,0 -7.6083622,-8.641193 -7.6083622,-17.942626"
       id="path4233-8-9-2-8-7-3-3-7-69-4-4-02"
       inkscape:connector-curvature="0"
       sodipodi:nodetypes="cscccsc"
       inkscape:transform-center-x="7.1791131"
       inkscape:transform-center-y="11.628475" />
    <path
       inkscape:connector-curvature="0"
       id="path8076-1-1"
       d="m 61.733183,41.559926 c 0.0058,0.138337 -0.04833,0.285875 -0.160677,0.351278 -0.210407,0.149029 -0.467925,0.139348 -0.706537,0.139686 -0.908644,-7.5e-4 -1.817359,0.0022 -2.72596,-0.0015 -0.180334,-0.01618 -0.363837,-0.100484 -0.484774,-0.256893 -0.131303,-0.188395 -0.143216,-0.440972 -0.139252,-0.671468 7.08e-4,-2.2623 -0.0014,-4.52463 0.001,-6.786908 0.005,-0.123501 0.01519,-0.248059 0.04045,-0.368278 0.0375,-0.0943 0.08004,-0.1992 0.163814,-0.249325 0.06637,-0.05567 0.138097,-0.116099 0.224543,-0.113956 0.07511,-0.0075 0.15201,-0.006 0.225021,0.01753 0.08474,0.06691 0.193978,0.112682 0.238809,0.226457 0.05763,0.08337 0.07431,0.187377 0.08149,0.290191 0.02523,0.240544 0.01203,0.483036 0.01521,0.724636 0,2.071447 0,4.142894 0,6.214342 0.852905,0.0015 1.705855,-0.0022 2.558733,0.0015 0.192883,0.01319 0.399891,0.03956 0.559827,0.174069 0.08476,0.07043 0.107717,0.195955 0.108216,0.30851 z"
       style="color:#000000;font-style:normal;font-variant:normal;font-weight:normal;font-stretch:normal;font-size:medium;line-height:125%;font-family:Calibri;-inkscape-font-specification:Calibri;text-indent:0;text-align:center;text-decoration:none;text-decoration-line:none;text-decoration-style:solid;text-decoration-color:#000000;letter-spacing:0px;word-spacing:0px;text-transform:none;direction:ltr;block-progression:tb;writing-mode:lr-tb;baseline-shift:baseline;text-anchor:middle;white-space:normal;clip-rule:nonzero;visibility:visible;isolation:auto;mix-blend-mode:normal;color-interpolation:sRGB;color-interpolation-filters:linearRGB;solid-color:#000000;solid-opacity:1;fill:#000000;fill-opacity:1;fill-rule:nonzero;stroke:none;stroke-width:1px;stroke-linecap:butt;stroke-linejoin:miter;stroke-miterlimit:4;stroke-dasharray:none;stroke-dashoffset:0;stroke-opacity:1;color-rendering:auto;image-rendering:auto;shape-rendering:auto;text-rendering:auto" />
    <path
       inkscape:connector-curvature="0"
       id="path8078-9-3"
       d="m 67.37996,39.62217 c 0.0034,0.58669 -0.168557,1.190432 -0.535027,1.614029 -0.342339,0.400272 -0.810496,0.633518 -1.28662,0.741757 -0.463229,0.102477 -0.937333,0.06623 -1.406079,0.0729 -0.44829,-5.77e-4 -0.896659,0.0015 -1.344898,-0.0015 -0.145592,-0.01071 -0.30015,-0.117387 -0.323592,-0.292273 -0.03055,-0.173777 -0.0085,-0.352117 -0.01561,-0.527835 7.06e-4,-2.415809 -0.0015,-4.831656 0.0011,-7.24745 0.0036,-0.131451 0.05251,-0.272193 0.160682,-0.334614 0.131939,-0.0968 0.294909,-0.06106 0.442621,-0.06743 0.559213,0.0015 1.118515,-0.0045 1.67767,0.0037 0.462847,0.01693 0.939829,0.09739 1.345251,0.367461 0.342485,0.225567 0.610901,0.598401 0.720547,1.032742 0.110577,0.416576 0.121864,0.867686 0.03371,1.291028 -0.08966,0.411916 -0.302724,0.791913 -0.609186,1.037986 -0.100187,0.08312 -0.209225,0.152124 -0.323202,0.207569 0.476907,0.100596 0.915136,0.429569 1.172141,0.89914 0.198569,0.356635 0.294058,0.781708 0.29047,1.202293 z m -1.491401,-3.79041 c 4.99e-4,-0.341058 -0.06968,-0.7084 -0.291575,-0.954615 -0.229195,-0.262131 -0.563552,-0.352582 -0.878417,-0.371673 -0.30059,-0.01753 -0.601694,-0.006 -0.902537,-0.0092 -0.122998,0 -0.245996,0 -0.368994,0 0,0.914328 0,1.828648 0,2.742976 0.426399,-0.0022 0.852936,0.0052 1.279245,-0.0045 0.238679,-0.01244 0.481927,-0.07627 0.679377,-0.235659 0.232537,-0.174024 0.386161,-0.462296 0.442288,-0.769405 0.02706,-0.130289 0.04072,-0.264175 0.04061,-0.398047 z m 0.449148,3.855874 c 0.0052,-0.417453 -0.117384,-0.857661 -0.402728,-1.135863 -0.275895,-0.272523 -0.647914,-0.372197 -1.004029,-0.403284 -0.308563,-0.0227 -0.61794,-0.0086 -0.92691,-0.01236 -0.185668,0 -0.371336,0 -0.557004,0 0,0.995068 0,1.990129 0,2.985198 0.524103,-0.0015 1.048282,0.0037 1.572335,-0.003 0.375959,-0.01708 0.766227,-0.161414 1.023681,-0.486385 0.203379,-0.255455 0.300444,-0.602544 0.294655,-0.943984 z"
       style="color:#000000;font-style:normal;font-variant:normal;font-weight:normal;font-stretch:normal;font-size:medium;line-height:125%;font-family:Calibri;-inkscape-font-specification:Calibri;text-indent:0;text-align:center;text-decoration:none;text-decoration-line:none;text-decoration-style:solid;text-decoration-color:#000000;letter-spacing:0px;word-spacing:0px;text-transform:none;direction:ltr;block-progression:tb;writing-mode:lr-tb;baseline-shift:baseline;text-anchor:middle;white-space:normal;clip-rule:nonzero;visibility:visible;isolation:auto;mix-blend-mode:normal;color-interpolation:sRGB;color-interpolation-filters:linearRGB;solid-color:#000000;solid-opacity:1;fill:#000000;fill-opacity:1;fill-rule:nonzero;stroke:none;stroke-width:1px;stroke-linecap:butt;stroke-linejoin:miter;stroke-miterlimit:4;stroke-dasharray:none;stroke-dashoffset:0;stroke-opacity:1;color-rendering:auto;image-rendering:auto;shape-rendering:auto;text-rendering:auto" />
  </g>
</svg>
