<?xml version="1.0" encoding="UTF-8" standalone="no"?>
<svg
   xmlns:dc="http://purl.org/dc/elements/1.1/"
   xmlns:cc="http://creativecommons.org/ns#"
   xmlns:rdf="http://www.w3.org/1999/02/22-rdf-syntax-ns#"
   xmlns:svg="http://www.w3.org/2000/svg"
   xmlns="http://www.w3.org/2000/svg"
   xmlns:sodipodi="http://sodipodi.sourceforge.net/DTD/sodipodi-0.dtd"
   xmlns:inkscape="http://www.inkscape.org/namespaces/inkscape"
   version="1.0"
   width="69.000000pt"
   height="67.000000pt"
   viewBox="0 0 69.000000 67.000000"
   preserveAspectRatio="xMidYMid meet"
   id="svg2"
   inkscape:version="0.91 r13725"
   sodipodi:docname="ub520202.svg">
  <defs
     id="defs18" />
  <sodipodi:namedview
     pagecolor="#ffffff"
     bordercolor="#666666"
     borderopacity="1"
     objecttolerance="10"
     gridtolerance="10"
     guidetolerance="10"
     inkscape:pageopacity="0"
     inkscape:pageshadow="2"
     inkscape:window-width="1347"
     inkscape:window-height="996"
     id="namedview16"
     showgrid="false"
     inkscape:zoom="2.9080882"
     inkscape:cx="29.625041"
     inkscape:cy="55.822397"
     inkscape:window-x="547"
     inkscape:window-y="2"
     inkscape:window-maximized="0"
     inkscape:current-layer="svg2"
     showguides="true"
     inkscape:guide-bbox="true"
     borderlayer="true" />
  <metadata
     id="metadata4">
Created by potrace 1.11, written by Peter Selinger 2001-2013
<rdf:RDF>
  <cc:Work
     rdf:about="">
    <dc:format>image/svg+xml</dc:format>
    <dc:type
       rdf:resource="http://purl.org/dc/dcmitype/StillImage" />
    <dc:title></dc:title>
  </cc:Work>
</rdf:RDF>
</metadata>
  <g
     id="g12008">
    <path
       sodipodi:nodetypes="sss"
       inkscape:connector-curvature="0"
       id="path8069-8-8"
       d="m 29.652738,39.402833 c -1.84489,0 -1.84979,2.75525 0,2.75525 1.84979,0 1.77618,-2.75525 0,-2.75525 z"
       style="color:#000000;clip-rule:nonzero;display:inline;overflow:visible;visibility:visible;opacity:1;isolation:auto;mix-blend-mode:normal;color-interpolation:sRGB;color-interpolation-filters:linearRGB;solid-color:#000000;solid-opacity:1;fill:#000000;fill-opacity:1;fill-rule:evenodd;stroke:none;stroke-width:2.4000001;stroke-linecap:round;stroke-linejoin:round;stroke-miterlimit:4;stroke-dasharray:none;stroke-dashoffset:0;stroke-opacity:1;color-rendering:auto;image-rendering:auto;shape-rendering:auto;text-rendering:auto;enable-background:accumulate" />
    <path
       style="color:#000000;clip-rule:nonzero;display:inline;overflow:visible;visibility:visible;opacity:1;isolation:auto;mix-blend-mode:normal;color-interpolation:sRGB;color-interpolation-filters:linearRGB;solid-color:#000000;solid-opacity:1;fill:none;fill-opacity:1;fill-rule:evenodd;stroke:#000000;stroke-width:2.4000001;stroke-linecap:round;stroke-linejoin:round;stroke-miterlimit:4;stroke-dasharray:none;stroke-dashoffset:0;stroke-opacity:1;color-rendering:auto;image-rendering:auto;shape-rendering:auto;text-rendering:auto;enable-background:accumulate"
       d="m 55.883725,50.036949 0,-26.799838 -13.4199,26.638917 c 0.01166,-14.258245 -2.973022,-28.520853 -14.072777,-28.520853 -11.32268,0 -12.226377,13.886099 -12.226377,28.833182"
       id="path4233-8-9-2-8-7-3-3-7-69-4-4-5-6-06"
       inkscape:connector-curvature="0"
       sodipodi:nodetypes="cccsc"
       inkscape:transform-center-x="11.628475"
       inkscape:transform-center-y="-7.1791135" />
    <path
       inkscape:connector-curvature="0"
       id="path8076-1-1-6"
       d="m 13.06146,21.877977 c 0.0077,0.18463 -0.0645,0.38154 -0.214446,0.46882 -0.280818,0.1989 -0.624513,0.18598 -0.942974,0.18643 -1.212715,-0.001 -2.4255237,0.003 -3.6381807,-0.002 -0.240682,-0.0216 -0.485593,-0.13411 -0.647,-0.34286 -0.175242,-0.25144 -0.191142,-0.58854 -0.185851,-0.89616 9.44e-4,-3.01936 -0.0019,-6.03876 0.0014,-9.0581 0.0067,-0.16482 0.02027,-0.33106 0.05398,-0.49151 0.05005,-0.12586 0.106831,-0.26586 0.218633,-0.33276 0.08858,-0.0743 0.18431,-0.15496 0.299685,-0.1521 0.100241,-0.01 0.202879,-0.008 0.300323,0.0234 0.113099,0.0893 0.258891,0.15039 0.318724,0.30224 0.07691,0.11127 0.09917,0.25007 0.108765,0.38729 0.03367,0.32105 0.01605,0.64469 0.0203,0.96713 0,2.76465 0,5.52928 0,8.29392 1.1383234,0.002 2.2767067,-0.003 3.4149927,0.002 0.25743,0.0176 0.533711,0.0528 0.747169,0.23231 0.113117,0.094 0.143763,0.26153 0.144429,0.41176 z"
       style="color:#000000;font-style:normal;font-variant:normal;font-weight:normal;font-stretch:normal;font-size:medium;line-height:125%;font-family:Calibri;-inkscape-font-specification:Calibri;text-indent:0;text-align:center;text-decoration:none;text-decoration-line:none;text-decoration-style:solid;text-decoration-color:#000000;letter-spacing:0px;word-spacing:0px;text-transform:none;direction:ltr;block-progression:tb;writing-mode:lr-tb;baseline-shift:baseline;text-anchor:middle;white-space:normal;clip-rule:nonzero;visibility:visible;isolation:auto;mix-blend-mode:normal;color-interpolation:sRGB;color-interpolation-filters:linearRGB;solid-color:#000000;solid-opacity:1;fill:#000000;fill-opacity:1;fill-rule:nonzero;stroke:none;stroke-width:1px;stroke-linecap:butt;stroke-linejoin:miter;stroke-miterlimit:4;stroke-dasharray:none;stroke-dashoffset:0;stroke-opacity:1;color-rendering:auto;image-rendering:auto;shape-rendering:auto;text-rendering:auto" />
    <path
       inkscape:connector-curvature="0"
       id="path8078-9-3-5"
       d="m 20.597885,19.291767 c 0.0046,0.78302 -0.224964,1.58879 -0.71407,2.15414 -0.456899,0.53422 -1.081722,0.84552 -1.717177,0.98998 -0.618244,0.13678 -1.251003,0.0884 -1.876612,0.0973 -0.598306,-7.7e-4 -1.196718,0.002 -1.794957,-0.002 -0.194312,-0.0143 -0.400592,-0.15668 -0.431879,-0.39009 -0.04077,-0.23193 -0.01131,-0.46994 -0.02083,-0.70447 9.43e-4,-3.22423 -0.002,-6.44852 0.0015,-9.67274 0.0048,-0.17544 0.07008,-0.36328 0.214453,-0.4466 0.176092,-0.12919 0.393598,-0.0815 0.590741,-0.09 0.746349,0.002 1.492817,-0.006 2.239088,0.005 0.617735,0.0226 1.254336,0.12998 1.795429,0.49043 0.457094,0.30104 0.815334,0.79865 0.961672,1.37834 0.147581,0.55598 0.162645,1.15805 0.04499,1.72306 -0.119666,0.54975 -0.404027,1.05691 -0.813045,1.38534 -0.133713,0.11094 -0.27924,0.20303 -0.431358,0.27703 0.636499,0.13426 1.221378,0.57332 1.564388,1.20003 0.265019,0.47598 0.392462,1.0433 0.387673,1.60463 z m -1.990487,-5.05884 c 6.66e-4,-0.45519 -0.09299,-0.94546 -0.389147,-1.27408 -0.305894,-0.34984 -0.752141,-0.47057 -1.172373,-0.49605 -0.401179,-0.0234 -0.803045,-0.008 -1.204563,-0.0123 -0.164158,0 -0.328317,0 -0.492475,0 0,1.22029 0,2.44059 0,3.66089 0.56909,-0.003 1.138364,0.007 1.707334,-0.006 0.318551,-0.0166 0.6432,-0.10179 0.906725,-0.31453 0.310353,-0.23226 0.515386,-0.61699 0.590296,-1.02687 0.03611,-0.17389 0.05434,-0.35258 0.0542,-0.53125 z m 0.599452,5.14621 c 0.0069,-0.55715 -0.156665,-1.14468 -0.537497,-1.51597 -0.368222,-0.36372 -0.864733,-0.49676 -1.34002,-0.53824 -0.411821,-0.0303 -0.824728,-0.0115 -1.237092,-0.0165 -0.2478,0 -0.495601,0 -0.743401,0 0,1.32806 0,2.65611 0,3.98417 0.699489,-0.002 1.399081,0.005 2.098504,-0.004 0.501771,-0.0228 1.022638,-0.21543 1.366247,-0.64915 0.271439,-0.34094 0.400986,-0.80418 0.393259,-1.25988 z"
       style="color:#000000;font-style:normal;font-variant:normal;font-weight:normal;font-stretch:normal;font-size:medium;line-height:125%;font-family:Calibri;-inkscape-font-specification:Calibri;text-indent:0;text-align:center;text-decoration:none;text-decoration-line:none;text-decoration-style:solid;text-decoration-color:#000000;letter-spacing:0px;word-spacing:0px;text-transform:none;direction:ltr;block-progression:tb;writing-mode:lr-tb;baseline-shift:baseline;text-anchor:middle;white-space:normal;clip-rule:nonzero;visibility:visible;isolation:auto;mix-blend-mode:normal;color-interpolation:sRGB;color-interpolation-filters:linearRGB;solid-color:#000000;solid-opacity:1;fill:#000000;fill-opacity:1;fill-rule:nonzero;stroke:none;stroke-width:1px;stroke-linecap:butt;stroke-linejoin:miter;stroke-miterlimit:4;stroke-dasharray:none;stroke-dashoffset:0;stroke-opacity:1;color-rendering:auto;image-rendering:auto;shape-rendering:auto;text-rendering:auto" />
    <path
       style="color:#000000;clip-rule:nonzero;display:inline;overflow:visible;visibility:visible;opacity:1;isolation:auto;mix-blend-mode:normal;color-interpolation:sRGB;color-interpolation-filters:linearRGB;solid-color:#000000;solid-opacity:1;fill:#000000;fill-opacity:1;fill-rule:evenodd;stroke:none;stroke-width:2.4000001;stroke-linecap:round;stroke-linejoin:round;stroke-miterlimit:4;stroke-dasharray:none;stroke-dashoffset:0;stroke-opacity:1;color-rendering:auto;image-rendering:auto;shape-rendering:auto;text-rendering:auto;enable-background:accumulate"
       d="m 55.913128,53.019332 c -1.84489,0 -1.84979,2.75525 0,2.75525 1.84979,0 1.77618,-2.75525 0,-2.75525 z"
       id="path11921"
       inkscape:connector-curvature="0"
       sodipodi:nodetypes="sss" />
    <path
       sodipodi:nodetypes="czc"
       inkscape:connector-curvature="0"
       id="path5613-9"
       d="m 51.125782,12.723719 c 0,0 -0.08428,5.864632 4.602964,5.864632 4.687245,0 4.638889,-5.836262 4.638889,-5.836262"
       style="color:#000000;clip-rule:nonzero;display:inline;overflow:visible;visibility:visible;opacity:1;isolation:auto;mix-blend-mode:normal;color-interpolation:sRGB;color-interpolation-filters:linearRGB;solid-color:#000000;solid-opacity:1;fill:none;fill-opacity:1;fill-rule:evenodd;stroke:#000000;stroke-width:2.4000001;stroke-linecap:round;stroke-linejoin:round;stroke-miterlimit:4;stroke-dasharray:none;stroke-dashoffset:0;stroke-opacity:1;color-rendering:auto;image-rendering:auto;shape-rendering:auto;text-rendering:auto;enable-background:accumulate" />
  </g>
</svg>
