<?xml version="1.0" encoding="UTF-8" standalone="no"?>
<!-- Created with Inkscape (http://www.inkscape.org/) -->

<svg
   xmlns:dc="http://purl.org/dc/elements/1.1/"
   xmlns:cc="http://creativecommons.org/ns#"
   xmlns:rdf="http://www.w3.org/1999/02/22-rdf-syntax-ns#"
   xmlns:svg="http://www.w3.org/2000/svg"
   xmlns="http://www.w3.org/2000/svg"
   xmlns:sodipodi="http://sodipodi.sourceforge.net/DTD/sodipodi-0.dtd"
   xmlns:inkscape="http://www.inkscape.org/namespaces/inkscape"
   id="svg3494"
   version="1.1"
   inkscape:version="0.91 r13725"
   width="398.4375"
   height="257.8125"
   viewBox="0 0 398.4375 257.8125"
   sodipodi:docname="bb510200.svg">
  <metadata
     id="metadata3500">
    <rdf:RDF>
      <cc:Work
         rdf:about="">
        <dc:format>image/svg+xml</dc:format>
        <dc:type
           rdf:resource="http://purl.org/dc/dcmitype/StillImage" />
        <dc:title></dc:title>
      </cc:Work>
    </rdf:RDF>
  </metadata>
  <defs
     id="defs3498" />
  <sodipodi:namedview
     pagecolor="#ffffff"
     bordercolor="#666666"
     borderopacity="1"
     objecttolerance="10"
     gridtolerance="10"
     guidetolerance="10"
     inkscape:pageopacity="0"
     inkscape:pageshadow="2"
     inkscape:window-width="1583"
     inkscape:window-height="917"
     id="namedview3496"
     showgrid="false"
     inkscape:zoom="2.486303"
     inkscape:cx="199.21875"
     inkscape:cy="128.90625"
     inkscape:window-x="0"
     inkscape:window-y="0"
     inkscape:window-maximized="0"
     inkscape:current-layer="svg3494" />
  <g
     id="g3504"
     transform="translate(6.7431756,18.362381)">
    <path
       style="fill:#fefefe"
       d="M 186.23905,159.53556 C 182.87554,155.81892 185.4607,150 190.47539,150 c 4.80122,0 7.30491,6.47919 3.74767,9.69845 -2.26423,2.04909 -6.05213,1.9718 -7.98401,-0.16289 z m 5.02168,-23.83244 c 0.006,-2.1914 -0.46138,-9.04687 -1.03839,-15.23437 -1.10383,-11.83658 -0.44155,-16.40625 2.37773,-16.40625 2.69697,0 3.66659,3.62623 2.39118,8.9427 -0.74618,3.11046 -1.02158,8.85849 -0.75639,15.78687 0.38477,10.05206 0.28538,10.89543 -1.28391,10.89543 -1.3778,0 -1.69892,-0.75696 -1.69022,-3.98438 z M 116.875,138.125 c -0.34375,-0.34375 -0.625,-1.82031 -0.625,-3.28125 l 0,-2.65625 37.03125,0 37.03125,0 0,3.28125 0,3.28125 -36.40625,0 c -20.02344,0 -36.6875,-0.28125 -37.03125,-0.625 z m 78.7159,-1.48438 c -0.31092,-1.16015 -0.57106,-2.63671 -0.5781,-3.28125 -0.01,-0.91793 8.01162,-1.17187 37.01845,-1.17187 l 37.03125,0 0,3.28125 0,3.28125 -36.45316,0 -36.45316,0 -0.56528,-2.10938 z m -15.40198,-16.40624 c -1.51329,-14.5239 -1.51414,-38.846655 -0.002,-40.35938 1.53378,-1.533778 4.96523,-1.417427 6.31942,0.214275 0.84344,1.016288 0.86377,3.107646 0.0843,8.671875 -1.35326,9.660112 -2.35246,33.07329 -1.54822,36.27763 0.36989,1.47377 1.60059,2.8949 2.95194,3.40868 3.73995,1.42174 2.67062,2.80254 -2.16988,2.80254 l -4.48791,0 -1.14776,-11.01562 z m 15.07756,-4.06181 c 0.28236,-2.10508 0.74958,-4.06364 1.03829,-4.35234 1.18772,-1.18772 3.38273,2.06535 3.38273,5.01331 0,2.79481 -0.28958,3.16646 -2.46719,3.16646 -2.34553,0 -2.44188,-0.18873 -1.95383,-3.82743 z m -8.08554,-39.447958 c -0.94892,-0.536286 -2.98881,-0.789624 -4.53307,-0.562973 l -2.80777,0.412093 0.7065,-9.927492 c 0.38858,-5.460119 0.71986,-17.626709 0.7362,-27.036865 0.0163,-9.410156 0.26173,-17.102175 0.54533,-17.093376 0.28359,0.0088 1.45547,2.223644 2.60418,4.921875 1.71612,4.031019 2.35427,8.540855 3.57857,25.289492 1.72353,23.578084 1.66035,25.404642 -0.82994,23.997246 z"
       id="path3512"
       inkscape:connector-curvature="0" />
    <path
       style="fill:#007f7f"
       d="m 187.68536,105.50119 c -1.38644,-3.04291 -1.41953,-7.607496 -0.12275,-16.930984 0.89756,-6.45328 0.82764,-7.38103 -0.68203,-9.049191 -1.12342,-1.241372 -2.52898,-1.734431 -4.23183,-1.484504 -1.40235,0.205821 -2.33617,0.02868 -2.07516,-0.393646 0.64809,-1.048631 4.79965,-0.968573 6.8565,0.13222 3.05363,1.634255 8.50741,17.183484 8.50741,24.255425 0,2.72515 -0.20656,3.02764 -1.39432,2.0419 -1.78517,-1.48157 -4.07123,-0.60427 -5.00534,1.92086 -0.70638,1.90954 -0.76537,1.89386 -1.85248,-0.49208 z"
       id="path3508"
       inkscape:connector-curvature="0" />
    <path
       style="fill:#000000"
       d="m 118.59375,198.9682 7.5,-0.33765 10.94419,-16.16848 10.94418,-16.16848 -10.32489,-11.66242 c -13.21047,-14.92182 -13.23539,-14.94367 -17.03449,-14.94367 -3.84637,0 -5.55236,-1.76912 -5.14361,-5.33393 l 0.30212,-2.63482 32.22115,-0.24682 32.22116,-0.24681 -0.58193,-5.84694 c -1.45782,-14.64751 -1.69988,-35.494521 -0.58821,-50.658438 0.65021,-8.869296 1.23465,-24.317414 1.29876,-34.329153 0.0821,-12.823379 0.43612,-18.309665 1.19779,-18.56353 0.59466,-0.198204 2.16703,2.011353 3.49413,4.910128 2.20165,4.80904 2.54894,7.337283 3.96654,28.876031 1.32556,20.140247 1.87729,24.449947 3.7584,29.357687 2.9111,7.594959 4.42415,14.893798 3.83667,18.507865 l -0.47586,2.92748 5.44633,-0.21725 c 5.32844,-0.21255 5.48869,-0.14543 7.40382,3.10047 2.22098,3.76425 2.31757,4.14803 1.04407,4.14803 -0.50238,0 -1.5679,-1.26563 -2.36782,-2.8125 -2.16369,-4.18413 -3.01756,-3.4251 -2.54586,2.2631 0.40537,4.88809 0.31469,5.13053 -2.45443,6.5625 -1.58144,0.8178 -3.95099,1.4869 -5.26565,1.4869 -2.27174,0 -2.39031,0.25524 -2.39031,5.1455 l 0,5.14548 37.26562,0.2562 37.26563,0.2562 -37.26563,0.22332 c -29.07658,0.17423 -37.26281,0.48081 -37.25282,1.39517 0.007,0.64454 0.26718,2.1211 0.5781,3.28125 l 0.56528,2.10938 36.60941,0 c 20.13518,0 36.4029,0.2065 36.15051,0.4589 -0.25239,0.2524 -23.10396,0.48661 -50.78125,0.52046 -39.16767,0.0479 -50.32235,0.3172 -50.32235,1.21487 0,0.63433 -8.585,13.79465 -19.07777,29.24517 l -19.07778,28.09185 69.93716,0.47771 69.93714,0.47771 -79.21875,0.0346 c -43.57031,0.019 -75.84375,-0.11735 -71.71875,-0.30306 z m 45.78208,-57.64008 c 0.41611,-1.5217 -0.87506,-1.64062 -17.8131,-1.64062 l -18.26174,0 2.64638,3.1535 c 1.45551,1.73442 6.21438,7.1796 10.57527,12.10039 l 7.92888,8.9469 7.23784,-10.45977 c 3.98081,-5.75287 7.43972,-11.19805 7.68647,-12.1004 z m 29.85903,-12.53605 c -0.26519,-6.92838 0.0102,-12.67641 0.75639,-15.78687 1.27541,-5.31647 0.30579,-8.9427 -2.39118,-8.9427 -2.81928,0 -3.48156,4.56967 -2.37773,16.40625 0.57701,6.1875 1.04429,13.04297 1.03839,15.23437 -0.008,3.22742 0.31242,3.98438 1.69022,3.98438 1.56929,0 1.66868,-0.84337 1.28391,-10.89543 z m -3.92236,6.67668 0,-3.28125 -37.03125,0 -37.03125,0 0,2.65625 c 0,1.46094 0.28125,2.9375 0.625,3.28125 0.34375,0.34375 17.00781,0.625 37.03125,0.625 l 36.40625,0 0,-3.28125 z m 0,-5.17945 c 0,-0.52839 -1.0429,-1.35722 -2.31757,-1.84184 -1.35134,-0.51378 -2.58204,-1.93491 -2.95193,-3.40868 -0.80424,-3.20434 0.19496,-26.617518 1.54822,-36.27763 1.14571,-8.178578 0.63438,-9.633978 -3.61295,-10.283782 l -2.50952,-0.383933 2.43282,-0.140468 c 1.34245,-0.07751 3.15022,0.652244 4.03345,1.628194 1.43572,1.586455 1.48928,2.60527 0.51993,9.889465 -1.06179,7.978908 -0.9296,13.224014 0.42683,16.935624 0.4337,1.18676 0.15747,1.0147 -0.75255,-0.46875 -1.34511,-2.19267 -1.43901,-1.64877 -1.45665,8.4375 -0.0196,11.18512 0.24969,12.38374 3.01089,13.40278 1.36099,0.50229 1.55479,0.22159 1.09947,-1.59253 -0.304,-1.21126 -0.62563,-6.24281 -0.71471,-11.18122 -0.13479,-7.47162 0.11598,-9.25863 1.4938,-10.64504 1.37925,-1.38783 1.96639,-1.47211 3.51563,-0.5046 1.71364,1.0702 1.85984,0.91842 1.85984,-1.93073 0,-4.188479 -2.41658,-13.20692 -5.1326,-19.154398 -1.55674,-3.408922 -2.89022,-5.028272 -4.40894,-5.354123 -1.19747,-0.256925 -3.02096,-0.645562 -4.05221,-0.863636 -1.30991,-0.277003 -1.07943,-0.429276 0.76476,-0.505252 1.45187,-0.05981 3.45577,0.327967 4.45312,0.861734 1.63518,0.875119 1.81337,0.642116 1.81337,-2.371146 0,-1.837896 -0.64328,-12.083207 -1.4295,-22.76736 -1.16358,-15.812045 -1.81758,-20.338348 -3.51563,-24.331605 -1.14736,-2.698231 -2.32778,-4.913074 -2.62313,-4.921875 -0.29536,-0.0088 -0.55353,7.261345 -0.5737,16.155876 -0.0444,19.604408 -0.87604,40.971128 -1.62364,41.718727 -0.99203,0.992027 -0.59022,28.617038 0.57952,39.843778 l 1.14776,11.01562 4.48791,0 c 2.46835,0 4.48791,-0.43232 4.48791,-0.9607 z m 9.375,-13.45576 c 0,-2.94796 -2.19501,-6.20103 -3.38273,-5.01331 -0.28871,0.2887 -0.75593,2.24726 -1.03829,4.35234 -0.48805,3.6387 -0.3917,3.82743 1.95383,3.82743 2.17761,0 2.46719,-0.37165 2.46719,-3.16646 z m -15.07211,44.48857 c -1.87032,-1.8703 -2.74039,-3.67914 -2.74039,-5.69711 0,-4.03304 4.40446,-8.4375 8.4375,-8.4375 4.03304,0 8.4375,4.40446 8.4375,8.4375 0,2.01797 -0.87007,3.82681 -2.74039,5.69711 -1.8703,1.87032 -3.67914,2.74039 -5.69711,2.74039 -2.01797,0 -3.82681,-0.87007 -5.69711,-2.74039 z m 9.60767,-1.62366 c 2.13469,-1.93188 2.21198,-5.71978 0.16289,-7.98401 -3.21926,-3.55724 -9.69845,-1.05355 -9.69845,3.74767 0,5.01469 5.81892,7.59985 9.53556,4.23634 z"
       id="path3506"
       inkscape:connector-curvature="0" />
  </g>
</svg>
