<?xml version="1.0" encoding="UTF-8" standalone="no"?>
<!-- Created with Inkscape (http://www.inkscape.org/) -->

<svg
   xmlns:dc="http://purl.org/dc/elements/1.1/"
   xmlns:cc="http://creativecommons.org/ns#"
   xmlns:rdf="http://www.w3.org/1999/02/22-rdf-syntax-ns#"
   xmlns:svg="http://www.w3.org/2000/svg"
   xmlns="http://www.w3.org/2000/svg"
   xmlns:sodipodi="http://sodipodi.sourceforge.net/DTD/sodipodi-0.dtd"
   xmlns:inkscape="http://www.inkscape.org/namespaces/inkscape"
   id="svg3448"
   version="1.1"
   inkscape:version="0.91 r13725"
   width="400.3125"
   height="218.4375"
   viewBox="0 0 400.3125 218.4375"
   sodipodi:docname="bb620302.svg">
  <metadata
     id="metadata3454">
    <rdf:RDF>
      <cc:Work
         rdf:about="">
        <dc:format>image/svg+xml</dc:format>
        <dc:type
           rdf:resource="http://purl.org/dc/dcmitype/StillImage" />
        <dc:title></dc:title>
      </cc:Work>
    </rdf:RDF>
  </metadata>
  <defs
     id="defs3452" />
  <sodipodi:namedview
     pagecolor="#ffffff"
     bordercolor="#666666"
     borderopacity="1"
     objecttolerance="10"
     gridtolerance="10"
     guidetolerance="10"
     inkscape:pageopacity="0"
     inkscape:pageshadow="2"
     inkscape:window-width="1659"
     inkscape:window-height="847"
     id="namedview3450"
     showgrid="false"
     inkscape:zoom="1.4672389"
     inkscape:cx="225.26445"
     inkscape:cy="188.34544"
     inkscape:window-x="0"
     inkscape:window-y="0"
     inkscape:window-maximized="0"
     inkscape:current-layer="svg3448" />
  <g
     id="g3467"
     transform="translate(-3.515625,0.51518641)">
    <path
       style="fill:#fefefe"
       d="m 26.875,140.9375 c -0.34375,-0.34375 -0.625,-1.82031 -0.625,-3.28125 l 0,-2.65625 177.65625,0 177.65625,0 0,3.28125 0,3.28125 -177.03125,0 c -97.36719,0 -177.3125,-0.28125 -177.65625,-0.625 z m 51.311227,-9.26358 c -0.329723,-1.31372 0.51232,-9.43481 1.871205,-18.04688 1.358885,-8.61206 2.464371,-18.105024 2.456634,-21.095471 C 82.49655,85.760983 84.461345,81.5625 87.64734,81.5625 c 3.016598,0 4.468596,2.864432 3.689647,7.278763 -0.339924,1.926368 -2.467306,11.057715 -4.727516,20.291887 C 84.349262,118.36732 82.5,126.90462 82.5,128.10494 c 0,1.60803 0.863571,2.54322 3.28125,3.55339 1.804687,0.75405 3.28125,1.60346 3.28125,1.88758 0,0.28413 -2.312275,0.51659 -5.138389,0.51659 -4.7248,0 -5.186642,-0.19225 -5.737884,-2.38858 z m 55.925563,-1.12705 c -1.36643,-4.9203 -1.47492,-4.53085 3.58288,-12.86279 3.96113,-6.52534 4.78101,-8.7763 6.15666,-16.90283 0.87285,-5.15625 1.77505,-9.951016 2.00491,-10.655036 0.22986,-0.70402 1.63682,1.136448 3.12659,4.08993 l 2.70866,5.369962 -2.25533,6.630984 c -1.47688,4.34219 -4.06344,8.99161 -7.49371,13.47012 -4.9177,6.4205 -5.19939,7.06981 -4.60176,10.60722 0.51433,3.04427 0.35913,3.76807 -0.80797,3.76807 -0.87073,0 -1.83244,-1.39657 -2.42093,-3.51563 z m 33.23957,2.34375 c -0.22126,-0.64453 -1.29415,-5.99973 -2.38421,-11.90044 -1.09006,-5.90072 -2.60502,-11.93352 -3.36659,-13.40623 -1.91876,-3.71049 -0.88779,-6.5255 2.25386,-6.15408 3.01556,0.35651 3.46911,1.96628 4.8002,17.03743 0.96578,10.93495 1.86486,13.7202 4.42892,13.7202 0.7103,0 1.29146,0.42187 1.29146,0.9375 0,1.36811 -6.54854,1.14959 -7.02364,-0.23438 z m 29.60657,-10.78124 c 0.0754,-6.57422 -0.0179,-13.64063 -0.20729,-15.70313 -0.30015,-3.26831 -0.0816,-3.78742 1.70155,-4.04126 3.26694,-0.4651 4.21859,2.48654 3.18071,9.86517 -2.16905,15.42032 -2.18374,17.9176 -0.11304,19.21078 2.81067,1.75529 2.35114,2.62156 -1.39068,2.62156 l -3.30834,0 0.13709,-11.95312 z m 33.68314,9.84374 c 0.0232,-3.05581 3.44797,-15.79216 4.54002,-16.88421 0.57874,-0.57874 2.63029,-0.63232 5.45155,-0.14238 2.48799,0.43207 5.94838,0.80113 7.68976,0.82015 3.44955,0.0377 5.47123,2.09616 4.51247,4.59464 -0.80877,2.10765 -4.53026,1.93193 -10.13333,-0.47844 -2.72916,-1.17405 -5.01134,-1.66215 -5.47931,-1.17187 -0.4411,0.46213 -1.48551,3.16055 -2.32092,5.99649 -1.47185,4.9965 -1.45997,5.20447 0.38364,6.71277 2.65211,2.16976 2.39708,2.66223 -1.3787,2.66223 -2.78254,0 -3.27881,-0.3206 -3.26518,-2.10938 z m 61.22566,-4.68749 c -3.67406,-3.73829 -7.56764,-8.48438 -8.65243,-10.54688 -1.08478,-2.0625 -2.83349,-4.82557 -3.88602,-6.14016 C 277.35298,108.1115 277.62592,105 279.81762,105 c 1.798,0 6.11988,3.7083 6.11988,5.25103 0,5.11889 11.28531,19.87668 16.07772,21.02483 3.44323,0.82491 3.21801,2.78664 -0.31993,2.78664 -2.66917,0 -4.16537,-1.03468 -9.82856,-6.79687 z m 20.17474,5.62499 c -0.79305,-0.64453 -3.58448,-4.4298 -6.20317,-8.41171 l -4.76125,-7.23985 -2.62837,4.15455 -2.62836,4.15456 -2.12892,-2 c -1.17089,-1.10001 -2.1289,-2.38006 -2.1289,-2.84459 0,-0.46451 1.78741,-3.13316 3.97203,-5.93032 6.00027,-7.68272 7.4506,-7.12239 14.05477,5.42998 3.86315,7.34258 5.60707,9.71378 7.98882,10.86229 1.67579,0.80809 3.04688,1.81298 3.04688,2.2331 0,1.21633 -6.99398,0.88387 -8.58353,-0.40801 z m 20.77103,0.31211 c 0,-1.73156 3.79821,-9.65372 6.53664,-13.6339 l 2.81454,-4.09079 -7.72246,-2.7758 c -5.67002,-2.03807 -8.09385,-3.42395 -9.11979,-5.21446 -1.24796,-2.17795 -1.23876,-2.59723 0.0861,-3.92201 1.35281,-1.35282 1.92217,-1.31663 6.46942,0.41119 5.9336,2.2546 14.99813,8.08692 14.99813,9.65015 0,0.60937 -2.15748,4.3942 -4.79441,8.41072 -4.87744,7.4292 -5.35924,10.14967 -1.79755,10.14967 1.04743,0 1.90442,0.42187 1.90442,0.9375 0,0.51562 -2.10938,0.9375 -4.6875,0.9375 -2.57813,0 -4.6875,-0.3869 -4.6875,-0.85977 z m -46.78036,-2.30744 c -1.14787,-1.3831 0.0815,-6.20779 1.58176,-6.20779 1.47465,0 6.0301,5.46992 5.40193,6.48632 -0.89401,1.44654 -5.71146,1.2544 -6.98369,-0.27853 z m -49.58409,-4.19055 c -0.88798,-0.56338 -0.96433,-1.408 -0.28809,-3.18668 0.99841,-2.62601 3.60934,-3.90749 6.05172,-2.97027 1.9272,0.73954 1.95081,2.19609 0.0789,4.86861 -1.50201,2.14442 -3.72173,2.63389 -5.84254,1.28834 z m -116.359,-8.1177 c -4.43991,-1.38426 -8.39435,-4.8862 -20.853813,-18.46752 l -7.48754,-8.161722 0.648475,-4.324341 0.648475,-4.324342 2.784278,2.642317 c 1.53135,1.453275 7.580715,8.126693 13.443035,14.829818 5.86233,6.70313 12.15092,13.36564 13.97466,14.80559 5.4511,4.30399 4.3574,5.34318 -3.15757,3.0002 z m 82.4253,-6.32141 c 0.007,-1.67579 0.36847,-3.6054 0.80127,-4.28803 1.21339,-1.91381 3.87188,1.23732 3.87188,4.58937 0,2.30356 -0.37729,2.74553 -2.34375,2.74553 -2.02218,0 -2.34178,-0.41805 -2.3294,-3.04688 z m -33.77715,-3.28125 c -0.007,-0.90235 -0.26718,-2.58985 -0.5781,-3.75 -0.75881,-2.83152 1.84148,-2.84907 3.81899,-0.0258 2.23705,3.19383 1.87417,5.4164 -0.88434,5.4164 -1.60226,0 -2.3478,-0.51904 -2.35655,-1.64062 z m 111.25185,-5.69882 c -1.97543,-2.18283 -1.94968,-3.21057 0.16767,-6.692272 l 1.71922,-2.827032 2.03078,2.161669 c 2.48168,2.641631 2.59996,5.453865 0.31634,7.520525 -2.14475,1.94097 -2.33672,1.93358 -4.23401,-0.16289 z m -32.29306,-9.374863 c -0.72482,-0.471669 -2.5185,-8.652415 -4.47191,-20.395998 -2.10195,-12.636541 -4.08831,-21.547091 -5.58661,-25.060868 -2.6594,-6.236726 -2.80629,-7.203831 -1.09412,-7.203831 2.83527,0 6.19948,5.319746 8.5967,13.59375 5.76956,19.913689 8.86012,33.845429 8.12308,36.617608 -0.75402,2.836086 -3.27103,3.94347 -5.56714,2.449339 z M 146.65431,85.532519 C 146.10323,85.153696 141.55552,77.25 136.54828,67.96875 131.54104,58.6875 126.11787,49.303728 124.4968,47.115923 c -1.62107,-2.187804 -2.71543,-4.209792 -2.43192,-4.493306 0.89058,-0.890571 7.14443,2.580034 7.56804,4.199916 0.2222,0.849709 4.79023,7.851081 10.15117,15.558606 8.92151,12.82663 12.90293,20.859033 11.48022,23.161026 -0.55522,0.898369 -3.29748,0.892631 -4.61,-0.0096 z M 335.3125,84.6875 c -1.139,-1.139001 -0.64757,-4.112683 0.76952,-4.656474 0.76699,-0.294319 2.74186,-0.06544 4.38862,0.508623 2.13023,0.742603 4.63566,0.766846 8.68361,0.08403 3.12922,-0.527848 7.06059,-1.18448 8.73638,-1.45918 2.12673,-0.348624 3.04648,-0.132728 3.04557,0.714899 -8.7e-4,0.805191 -3.71247,1.925712 -11.01563,3.325585 -11.83011,2.267603 -13.63938,2.451218 -14.60807,1.482521 z M 197.58962,78.681341 c -3.4483,-2.009004 -3.56319,-3.816063 -1.64214,-25.827033 1.02576,-11.75283 1.86502,-24.867089 1.86502,-29.142795 0,-4.275707 0.38748,-7.774013 0.86107,-7.774013 0.47358,0 1.72829,2.636719 2.78823,5.859375 1.7175,5.221854 1.93979,8.369745 2.04306,28.931887 0.0985,19.61069 -0.11248,23.5141 -1.40606,26.015625 -1.65147,3.193573 -2.05486,3.366856 -4.50918,1.936954 z m 140.55869,0.349361 c -2.41974,-0.626967 -1.65097,-4.187306 1.21115,-5.609036 1.95167,-0.969479 2.46123,-0.918818 3.15073,0.313244 0.49573,0.885823 0.41677,2.360283 -0.19873,3.711177 -1.04182,2.286533 -1.20882,2.350096 -4.16315,1.584615 z M 88.787033,59.901911 C 87.657999,59.244939 87.299695,58.310905 87.696776,57.059814 88.284291,55.208721 107.88938,34.6875 109.07032,34.6875 c 1.43712,0 0.44743,3.059634 -1.60654,4.96664 -4.76862,4.427407 -13.556758,16.045142 -14.066982,18.596245 -0.565089,2.825444 -1.819811,3.27497 -4.609765,1.651526 z M 90,50.33488 c 0,-1.887438 2.392415,-3.678264 4.397925,-3.292038 1.358953,0.261711 1.101787,0.731195 -1.361211,2.485004 C 90.760321,51.14878 90,51.350842 90,50.33488 Z"
       id="path3475"
       inkscape:connector-curvature="0" />
    <path
       style="fill:#007f7f"
       d="m 283.45674,132.96173 c -2.89505,-1.40129 -4.81742,-6.70743 -5.53126,-15.26756 -0.57672,-6.91581 -0.50711,-7.3665 0.95089,-6.15647 0.86525,0.71809 2.43524,3.02134 3.48888,5.11833 1.05364,2.097 2.50176,4.48139 3.21804,5.29866 1.11525,1.27248 1.08579,1.92001 -0.20512,4.50771 -1.39663,2.79962 -1.38983,3.15177 0.0926,4.78981 0.88003,0.97242 2.50522,1.9451 3.61153,2.16149 1.40145,0.27414 1.15853,0.41293 -0.80103,0.45768 -1.54688,0.0353 -3.7179,-0.37402 -4.82451,-0.90965 z m -30.6734,-16.419 c -1.49001,-1.99145 -2.23492,-2.24478 -5.04854,-1.71694 -3.12494,0.58624 -3.26477,0.5034 -2.62697,-1.55642 1.35919,-4.38955 2.50812,-12.56946 2.17775,-15.504723 -0.30892,-2.744775 -0.1445,-2.967656 1.82463,-2.473435 2.6196,0.657479 4.91486,-1.051828 5.05614,-3.765379 0.0571,-1.09702 0.71947,0.536667 1.47189,3.630417 1.11765,4.595475 1.17879,7.24642 0.33403,14.48399 -0.56869,4.87244 -1.12558,8.94441 -1.23751,9.04881 -0.11193,0.1044 -0.99007,-0.86145 -1.95142,-2.14632 z m 70.60743,-8.81755 c -1.33444,-2.49342 -0.64951,-5.18763 2.4977,-9.824961 1.37418,-2.024813 3.26332,-5.904251 4.19809,-8.620986 2.3495,-6.828337 2.6993,-7.234475 4.28323,-4.973087 0.85321,1.218125 2.39171,1.943854 4.12087,1.943854 1.51764,0 2.75934,0.224963 2.75934,0.499916 0,1.114218 -5.10442,10.479334 -7.2368,13.277424 -2.01609,2.64549 -2.56868,2.88758 -4.72224,2.0688 -1.98137,-0.75332 -2.79092,-0.57535 -4.31481,0.94854 -1.59154,1.59154 -1.71124,2.23706 -0.78984,4.25933 1.306,2.86636 0.68814,3.19346 -0.79554,0.42117 z m -168.3865,-5.81462 C 152.01835,98.0874 146.25,88.019465 146.25,86.631062 c 0,-0.113039 0.846,0.01571 1.88,0.286104 2.6391,0.690142 4.87142,-1.400897 4.10627,-3.8464 -1.49476,-4.777432 -1.12458,-4.334695 2.65821,3.179234 2.99262,5.944377 5.00604,8.683237 7.9256,10.78125 2.1526,1.546875 4.18151,3.44531 4.50867,4.21875 0.47654,1.12658 0.36006,1.1732 -0.5857,0.23437 -2.88607,-2.864873 -8.42534,0.34562 -7.00092,4.05764 1.04958,2.73514 -0.98109,1.17869 -4.73786,-3.63145 z m 46.76081,1.19045 c -1.24894,-1.99989 -4.38899,-2.48275 -5.40931,-0.83183 -2.16902,3.50955 -3.72692,-6.162774 -2.79485,-17.352086 l 0.67019,-8.045557 2.38587,1.876731 c 3.18136,2.502458 3.71918,2.395672 5.89329,-1.170143 2.07055,-3.395933 2.24099,-2.915443 0.91455,2.578125 -0.60429,2.502711 -0.55443,6.742155 0.1499,12.745973 1.13542,9.678457 0.41191,13.756037 -1.80964,10.198787 z M 82.5,83.316981 c 0,-0.811371 1.054687,-3.458815 2.34375,-5.883208 1.855344,-3.489423 2.34375,-5.77206 2.34375,-10.953865 0,-6.181207 0.101022,-6.491811 1.813368,-5.575393 2.868848,1.535362 3.81683,1.173389 5.134557,-1.960549 1.299656,-3.090988 1.789462,-2.872462 2.770425,1.236033 0.516694,2.16403 -0.133116,5.926346 -3.670743,21.25336 -0.47545,2.05992 -0.627814,2.109033 -2.181325,0.703125 C 88.707325,80.01297 85.676295,80.257403 83.95941,82.708599 82.889583,84.235992 82.5,84.398396 82.5,83.316981 Z"
       id="path3471"
       inkscape:connector-curvature="0" />
    <path
       style="fill:#000000"
       d="m 28.59375,201.7807 7.5,-0.33765 L 47.037936,185.27457 57.982122,169.10609 47.65723,157.44367 C 34.469723,142.5478 34.415467,142.5 30.69545,142.5 c -3.950618,0 -5.38295,-1.42191 -5.38295,-5.34375 l 0,-3.09375 26.226562,0 26.226563,0 -0.531888,-2.65943 c -0.292537,-1.4627 0.56176,-9.46514 1.898438,-17.78322 1.336679,-8.31807 2.430325,-18.844619 2.430325,-23.392331 0,-6.718536 0.381367,-8.964766 2.034384,-11.982417 1.49913,-2.736725 2.238119,-6.303775 2.808739,-13.557602 0.425896,-5.414063 0.757968,-10.582031 0.737938,-11.484375 -0.132231,-5.95696 -0.606939,-8.15858 -1.938425,-8.990108 -1.252582,-0.782249 -1.703688,-0.310861 -2.615759,2.733358 -0.606178,2.023244 -1.535512,3.678625 -2.065185,3.678625 -0.931854,0 -0.65513,-1.52928 1.149422,-6.352149 0.983183,-2.627664 3.226232,-3.594907 4.973611,-2.144711 0.897533,0.744886 1.502408,0.777956 1.91839,0.104883 0.967506,-1.565458 5.966504,-1.13886 7.76251,0.662428 1.563666,1.568269 1.885697,1.384962 6.865245,-3.907924 3.19263,-3.393517 5.65381,-5.288125 6.32813,-4.871372 1.80384,1.114833 1.26848,3.306323 -1.46684,6.004584 -3.7189,3.668506 -12.42966,14.359726 -12.42966,15.255639 0,0.419631 0.367388,0.990021 0.816412,1.267535 1.938469,1.198039 1.824038,6.685493 -0.338606,16.237163 l -2.284003,10.087674 4.94686,5.15625 c 2.720777,2.835937 8.048117,8.742187 11.838557,13.125 3.79042,4.38281 9.24808,10.14943 12.12811,12.81471 3.97961,3.68286 4.97765,5.1117 4.15828,5.95314 -0.82798,0.85027 -2.27848,0.75825 -6.25101,-0.3966 -4.73865,-1.37756 -6.16225,-2.5403 -16.96013,-13.85236 -6.483004,-6.791718 -11.946362,-12.168929 -12.140793,-11.949356 -0.676798,0.764297 -8.107065,32.288876 -8.104132,34.383586 0.0016,1.16016 0.578874,2.10938 1.282775,2.10938 0.703901,0 2.352474,0.84375 3.663497,1.875 2.227829,1.75241 3.803235,1.875 24.095853,1.875 20.23894,0 21.67911,-0.11132 21.22478,-1.64063 -1.8871,-6.35202 -1.81192,-6.72291 2.95164,-14.5602 4.30255,-7.07882 4.85315,-8.67592 6.77093,-19.639954 l 2.08753,-11.934525 -9.49786,-17.596721 c -5.22382,-9.678196 -10.83215,-19.394897 -12.46295,-21.592668 -3.86101,-5.203339 -2.66303,-6.867865 2.90022,-4.029706 2.12385,1.083506 3.86154,2.509282 3.86154,3.16839 0,0.659108 5.12903,8.548544 11.39784,17.532079 6.26882,8.983535 12.79018,19.388972 14.49192,23.123194 2.32295,5.097389 4.07352,7.499003 7.02406,9.636363 4.29507,3.111328 5.93028,3.401512 9.91577,1.75965 l 2.63916,-1.087238 -2.73516,-0.553387 c -1.50434,-0.304369 -2.91672,-1.099144 -3.13862,-1.766166 -0.37453,-1.125731 1.52868,-1.04279 5.93774,0.25875 0.55896,0.16501 1.07869,3.09886 1.17626,6.639909 0.20026,7.26835 -1.23561,9.78286 -5.58634,9.78286 -2.55917,0 -2.63466,0.13549 -2.21962,3.98437 0.23629,2.19141 0.68334,6.43324 0.99343,9.4263 0.48034,4.63643 0.89976,5.56965 2.83368,6.30492 1.24844,0.47464 2.26988,1.29532 2.26988,1.82371 0,0.59712 3.86359,0.9607 10.20891,0.9607 l 10.20889,0 0.66882,-11.13138 c 0.45328,-7.54405 0.3356,-11.754 -0.36515,-13.06337 C 195.46529,108.80516 195,106.93772 195,105.71788 c 0,-1.21984 -0.52734,-2.74848 -1.17188,-3.39699 -1.70894,-1.71951 -1.2771,-21.344862 1.07567,-48.88339 1.0793,-12.632813 2.06982,-26.34375 2.20116,-30.46875 0.30436,-9.558988 2.0865,-10.166408 5.09157,-1.7354 1.90996,5.358561 2.07043,7.674153 2.27829,32.874759 0.12298,14.910587 -0.0844,27.608473 -0.46079,28.217524 -0.37642,0.609052 -0.18246,5.248841 0.43102,10.310642 1.03524,8.541745 1.29183,9.281305 3.56957,10.288885 1.34977,0.5971 3.32776,0.85689 4.39552,0.57732 1.61025,-0.42161 2.12994,0.12104 3.04688,3.1815 1.33124,4.44329 1.35288,4.87852 0.24248,4.87852 -0.47465,0 -1.14099,-1.26562 -1.48074,-2.8125 -0.9151,-4.16643 -3.31059,-3.71973 -2.62746,0.48996 0.72104,4.44321 -1.58145,7.01004 -6.28812,7.01004 l -3.46873,0 -0.56397,6.72713 c -0.53085,6.33198 -0.42587,6.85514 1.78732,8.90625 2.20901,2.04724 3.08598,2.17912 14.49051,2.17912 11.95904,0 12.13943,-0.0313 12.15527,-2.10938 0.0253,-3.32476 3.4377,-15.62281 4.78554,-17.24686 0.90459,-1.08997 2.23158,-1.33061 5.13956,-0.93202 3.61575,0.49559 3.99635,0.3396 4.90169,-2.00909 2.47479,-6.42023 2.21387,-11.849062 -1.68142,-34.985076 -2.59111,-15.389791 -4.64206,-24.764177 -6.26842,-28.651405 -3.42523,-8.186701 -1.42117,-10.508481 4.11663,-4.769294 3.28775,3.407306 4.72414,7.813381 12.54448,38.479569 l 4.75753,18.655816 -1.06436,9.02475 c -1.12193,9.51309 -3.05984,13.29299 -6.81514,13.29299 -0.95756,0 -1.9695,0.73828 -2.24877,1.64063 -0.27927,0.90234 -0.89884,2.37317 -1.37683,3.26852 -1.37223,2.57042 -1.05867,3.38215 1.89688,4.91053 2.18537,1.1301 6.1702,1.41479 18.98438,1.3563 8.92013,-0.0407 15.67981,-0.29056 15.02149,-0.55522 -3.02696,-1.21696 -4.96186,-7.75401 -5.33869,-18.03665 -0.34574,-9.43441 -0.55113,-10.35991 -2.84948,-12.83986 -2.47533,-2.670934 -2.47651,-2.67115 -1.8947,-0.34905 0.6093,2.43181 -1.6016,6.62964 -2.83963,5.3916 -0.37345,-0.37344 -0.17884,-1.28164 0.43247,-2.01822 0.62193,-0.74939 0.85175,-2.37396 0.52181,-3.68859 -0.47421,-1.88938 0.13885,-3.100053 3.13117,-6.183434 2.04645,-2.10873 4.38833,-3.834056 5.20416,-3.834056 2.38887,0 8.11108,5.587809 8.11108,7.920563 0,1.155737 -0.85029,2.870837 -1.88955,3.811347 l -1.88955,1.71002 1.88955,2.01133 c 1.03926,1.10623 1.88955,2.5283 1.88955,3.16014 0,0.63183 0.89642,2.90592 1.99204,5.05352 l 1.99204,3.90472 2.92983,-3.65554 c 1.61141,-2.01053 3.62397,-4.51425 4.47234,-5.5638 1.29367,-1.60044 1.97421,-1.75681 4.21875,-0.96935 2.09123,0.73368 3.79269,3.01642 7.78357,10.44278 4.0114,7.46454 5.77162,9.82064 8.20313,10.98015 1.70268,0.81196 3.0958,1.90498 3.0958,2.42895 0,0.52545 2.22925,0.95267 4.97106,0.95267 l 4.97104,0 1.60143,-4.45342 c 0.88078,-2.44937 2.86075,-6.35172 4.39993,-8.67187 1.53918,-2.32015 2.80032,-4.47188 2.80253,-4.78161 0.002,-0.30974 -3.6358,-1.7863 -8.08445,-3.28125 -11.51143,-3.86838 -12.88748,-6.70145 -7.27307,-14.974131 1.37418,-2.024813 3.28675,-5.972368 4.25017,-8.772357 0.96342,-2.79999 2.43506,-5.84603 3.27033,-6.768981 1.40092,-1.548006 1.3945,-1.939705 -0.0828,-5.052854 -0.88078,-1.856119 -1.36993,-3.978046 -1.08698,-4.715395 0.28295,-0.737347 0.19057,-1.340632 -0.20529,-1.340632 -0.39586,0 -1.25368,1.476562 -1.90626,3.28125 -0.65258,1.804687 -1.61624,3.28125 -2.14146,3.28125 -0.52521,0 -0.73626,-0.527344 -0.46898,-1.171875 0.26728,-0.644531 0.97052,-2.648438 1.56276,-4.453125 1.02707,-3.129723 1.29521,-3.290622 5.80626,-3.484206 5.70212,-0.244696 7.61722,0.65781 9.1262,4.300821 0.87709,2.11751 0.88939,3.240089 0.0526,4.803622 -0.60058,1.122192 -0.90583,2.226479 -0.67835,2.453969 0.2275,0.22749 4.35976,-0.224622 9.18282,-1.004693 5.32952,-0.861986 9.10706,-1.080439 9.63057,-0.556928 2.03182,2.031827 -0.51879,3.410745 -9.37978,5.070915 l -9.28575,1.739748 -1.73481,4.19437 c -0.95414,2.306902 -3.15648,6.261123 -4.89409,8.787151 l -3.15927,4.592781 3.51743,1.80923 c 5.27701,2.71428 11.48649,7.46365 11.4838,8.78347 -9.4e-4,0.6413 -2.10961,4.33006 -4.68512,8.19725 -5.11468,7.6798 -5.63165,9.375 -2.85908,9.375 1.00563,0 2.1775,0.62377 2.60416,1.38618 0.63695,1.13818 4.20937,1.43537 19.96846,1.66115 10.55599,0.15124 -60.8848,0.37121 -158.75731,0.48883 L 26.131203,135 l 0.293774,3.04687 0.293773,3.04688 177.65625,0.4724 177.65625,0.47238 -152.10938,0.23074 c -123.17451,0.18684 -152.10937,0.45996 -152.10937,1.43575 0,0.66277 -8.584938,13.84636 -19.07764,29.29688 l -19.07764,28.09185 171.18702,0.47252 171.18701,0.47252 -180.46875,0.0398 C 102.30469,202.10045 24.46875,201.96641 28.59375,201.7807 Z M 74.375827,144.14062 C 74.791944,142.61892 73.500766,142.5 56.562727,142.5 l -18.261734,0 2.646378,3.1535 c 1.455508,1.73442 6.214379,7.1796 10.575267,12.10039 l 7.92889,8.9469 7.237831,-10.45977 c 3.980808,-5.75287 7.439718,-11.19805 7.686468,-12.1004 z M 89.0625,133.54591 c 0,-0.28412 -1.476563,-1.13353 -3.28125,-1.88758 C 83.363571,130.64816 82.5,129.71297 82.5,128.10494 c 0,-1.20032 1.849262,-9.73762 4.109471,-18.97179 2.26021,-9.234172 4.387592,-18.365519 4.727516,-20.291887 0.778949,-4.414331 -0.673049,-7.278763 -3.689647,-7.278763 -3.185995,0 -5.15079,4.198483 -5.133274,10.969069 0.0078,2.990447 -1.097749,12.483411 -2.456634,21.095471 -1.358885,8.61207 -2.200928,16.73316 -1.871205,18.04688 0.551242,2.19633 1.013084,2.38858 5.737884,2.38858 2.826114,0 5.138389,-0.23246 5.138389,-0.51659 z m 48.27819,-3.25148 c -0.59763,-3.53741 -0.31594,-4.18672 4.60176,-10.60722 3.43027,-4.47851 6.01683,-9.12793 7.49371,-13.47012 l 2.25533,-6.630984 -2.70866,-5.369962 c -1.48977,-2.953481 -2.89673,-4.79395 -3.12659,-4.08993 -0.22986,0.70402 -1.13206,5.498786 -2.00491,10.655036 -1.37565,8.12653 -2.19553,10.37749 -6.15666,16.90283 -2.51332,4.1403 -4.56732,7.93718 -4.56444,8.4375 0.0172,2.97987 2.14282,7.94092 3.40249,7.94092 1.1671,0 1.3223,-0.7238 0.80797,-3.76807 z m 27.04539,-7.65726 c -2.64445,-13.83712 -2.94079,-14.82467 -4.4486,-14.82467 -0.6524,0 -2.60009,-1.75943 -4.32822,-3.90985 l -3.14204,-3.909866 -2.16331,6.413086 c -1.40023,4.15098 -4.01498,8.83062 -7.41281,13.26679 -4.92907,6.43534 -5.21066,7.08372 -4.61291,10.62177 l 0.63662,3.76807 13.82739,0 13.82739,0 -2.18351,-11.42533 z M 174.375,133.125 c 0,-0.51563 -0.58116,-0.9375 -1.29146,-0.9375 -2.56406,0 -3.46314,-2.78525 -4.42892,-13.7202 -1.33109,-15.07115 -1.78464,-16.68092 -4.8002,-17.03743 -3.14165,-0.37142 -4.17262,2.44359 -2.25386,6.15408 0.76157,1.47271 2.27653,7.50551 3.36659,13.40623 1.09006,5.90071 2.16295,11.25591 2.38421,11.90044 0.4751,1.38397 7.02364,1.60249 7.02364,0.23438 z m 29.0625,0.22552 c 0,-0.3916 -0.86294,-1.25091 -1.91764,-1.90958 -2.0707,-1.29318 -2.05601,-3.79046 0.11304,-19.21078 1.03788,-7.37863 0.0863,-10.33027 -3.18071,-9.86517 -1.78314,0.25384 -2.0017,0.77295 -1.70155,4.04126 0.18941,2.0625 0.28269,9.12891 0.20729,15.70313 l -0.13709,11.95312 3.30833,0 c 1.81958,0 3.30833,-0.32039 3.30833,-0.71198 z m 33.75,0.15913 c 0,-0.30407 -0.85614,-1.25329 -1.90255,-2.10938 -1.84361,-1.5083 -1.85549,-1.71627 -0.38364,-6.71277 0.83541,-2.83594 1.87982,-5.53436 2.32092,-5.99649 0.46797,-0.49028 2.75015,-0.002 5.47931,1.17187 5.60307,2.41037 9.32456,2.58609 10.13333,0.47844 0.95876,-2.49848 -1.06292,-4.55698 -4.51247,-4.59464 -1.74138,-0.019 -5.20177,-0.38808 -7.68976,-0.82015 -2.82126,-0.48994 -4.87281,-0.43636 -5.45155,0.14238 -1.09205,1.09205 -4.51675,13.8284 -4.54002,16.88421 -0.0136,1.78878 0.48264,2.10938 3.26518,2.10938 1.80469,0 3.28125,-0.24878 3.28125,-0.55285 z m 9.08715,-0.0475 c -0.93632,-0.93629 -8.14965,-1.1248 -8.14965,-0.21295 0,0.44733 1.96875,0.81333 4.375,0.81333 2.40625,0 4.10485,-0.27016 3.77465,-0.60035 z m 42.80763,-0.0485 c -1.10631,-0.2164 -2.7315,-1.18907 -3.61152,-2.16149 -1.48242,-1.63805 -1.48922,-1.99019 -0.0926,-4.78981 1.29091,-2.58771 1.32038,-3.23523 0.20513,-4.50772 -0.71629,-0.81726 -2.16441,-3.20166 -3.21805,-5.29866 -1.05363,-2.09699 -2.62363,-4.40024 -3.48888,-5.11832 -1.458,-1.21003 -1.52761,-0.75935 -0.95088,6.15647 1.01192,12.1345 3.69716,16.32925 10.35576,16.17721 1.95957,-0.0447 2.20249,-0.18355 0.80103,-0.45768 z m 6.89987,-0.95835 c -1.51786,-1.51785 -1.69644,-1.51785 -3.2143,0 -1.51785,1.51791 -1.42857,1.6072 1.60715,1.6072 3.03572,0 3.125,-0.0892 1.60715,-1.60715 z m 8.47959,0.46112 c -0.2101,-0.6303 -1.31104,-1.36859 -2.44652,-1.64062 -4.79241,-1.14809 -16.07772,-15.90588 -16.07772,-21.02477 0,-1.54273 -4.32188,-5.25103 -6.11988,-5.25103 -2.1917,0 -2.46464,3.1115 -0.48935,5.57859 1.05254,1.31459 2.80125,4.07766 3.88603,6.14016 1.08479,2.0625 4.97837,6.80859 8.65243,10.54688 5.66319,5.76219 7.15939,6.79687 9.82856,6.79687 2.06421,0 3.0169,-0.39466 2.76645,-1.14602 z m 5.17554,-1.4321 c -0.91077,-1.41797 -3.20896,-4.81745 -5.10709,-7.5544 l -3.45117,-4.97628 -2.41451,3.55328 c -1.32798,1.95436 -2.41451,3.23542 -2.41451,2.84685 0,-0.38855 1.09462,-2.36056 2.43249,-4.38222 l 2.43251,-3.67575 4.74227,7.21148 c 5.78172,8.79211 6.67594,9.55522 11.19691,9.55522 4.37441,0 4.55825,-1.05157 0.52394,-2.99697 -2.38175,-1.14851 -4.12567,-3.5197 -7.98882,-10.86229 -6.60417,-12.55237 -8.0545,-13.1127 -14.05477,-5.42998 -2.18462,2.79716 -3.97203,5.41939 -3.97203,5.82717 0,1.49484 8.88701,9.71207 10.50368,9.71207 0.91737,0 2.19486,0.84375 2.83889,1.875 0.7152,1.14521 2.18627,1.875 3.77955,1.875 l 2.60861,0 -1.65595,-2.57813 z m 32.55022,1.64068 c 0,-0.51563 -0.85699,-0.9375 -1.90442,-0.9375 -3.56169,0 -3.07989,-2.72047 1.79752,-10.14967 2.63692,-4.01652 4.7944,-7.80135 4.7944,-8.41072 0,-1.55746 -9.05592,-7.39228 -14.94781,-9.63103 -5.75798,-2.18786 -8.02673,-1.29874 -7.16863,2.80936 0.49885,2.38818 0.4929,2.39089 -0.57182,0.25894 -0.8982,-1.79851 -0.76694,-2.46334 0.79466,-4.02495 1.51884,-1.51884 2.32921,-1.69621 4.30956,-0.94329 2.15356,0.81878 2.70615,0.57669 4.72224,-2.0688 2.13238,-2.79809 7.2368,-12.163206 7.2368,-13.277424 0,-0.274953 -1.2417,-0.499916 -2.75934,-0.499916 -1.72916,0 -3.26766,-0.725729 -4.12087,-1.943854 -1.58393,-2.261388 -1.93373,-1.85525 -4.28323,4.973087 -0.93477,2.716735 -2.82391,6.596173 -4.19809,8.620986 -1.37417,2.024803 -2.73461,4.622231 -3.0232,5.772061 -0.53477,2.13071 1.21927,6.61818 2.20255,5.6349 0.2975,-0.2975 1.00161,-0.19395 1.56467,0.23013 0.56307,0.42407 4.28595,1.9371 8.27307,3.36228 l 7.24932,2.59124 -2.81013,4.08439 c -2.73484,3.97494 -6.53225,11.89707 -6.53225,13.62751 0,0.47287 2.10937,0.85977 4.6875,0.85977 2.57812,0 4.6875,-0.42188 4.6875,-0.9375 z m -49.17167,-1.95118 c 0.62817,-1.0164 -3.92728,-6.48632 -5.40193,-6.48632 -1.50028,0 -2.72963,4.82469 -1.58176,6.20779 1.27223,1.53293 6.08968,1.72507 6.98369,0.27853 z m -50.72524,-5.75742 c 2.13082,-3.04217 1.81408,-4.17184 -1.49298,-5.32468 -3.61859,-1.26146 -4.5311,-1.29277 -2.67261,-0.0917 0.97381,0.62932 1.03874,0.9132 0.21117,0.92315 -1.82531,0.0219 -3.39422,4.82604 -1.88812,5.78159 2.12081,1.34555 4.34053,0.85609 5.84254,-1.28834 z M 126.5625,119.10247 c 0,-0.49365 -1.49073,-2.07568 -3.31273,-3.51563 -1.822,-1.43995 -6.97803,-6.83684 -11.45784,-11.99309 -4.4798,-5.15625 -10.56228,-11.920691 -13.516618,-15.032093 l -5.371529,-5.657092 2.292095,-10.141141 c 2.048888,-9.065078 2.213494,-13.164034 0.639666,-15.928833 -0.257241,-0.451911 -1.022297,0.497307 -1.700119,2.109375 -1.317727,3.133938 -2.265709,3.495911 -5.134557,1.960549 -1.712346,-0.916418 -1.813368,-0.605814 -1.813368,5.575393 0,5.181805 -0.488406,7.464442 -2.34375,10.953865 -2.663393,5.009154 -3.281781,8.697652 -0.88434,5.274826 1.791442,-2.55764 5.198885,-2.692562 7.371472,-0.291881 1.250006,1.381242 1.485944,2.723605 1.029858,5.859375 l -0.591623,4.067657 11.841223,12.41378 c 10.01524,10.4995 12.51722,12.62182 16.22483,13.76283 5.31454,1.63555 6.72733,1.7578 6.72733,0.58211 z m 129.43747,-9.60548 1.06169,-9.00223 -4.75753,-18.655816 c -7.45452,-29.23168 -9.33116,-35.141933 -12.0693,-38.010819 -2.42828,-2.544235 -4.92233,-3.406818 -4.92233,-1.702419 0,0.481638 1.04623,3.329295 2.32497,6.328125 1.4983,3.513777 3.48466,12.424327 5.58661,25.060868 1.95341,11.743583 3.74709,19.924329 4.47191,20.395998 2.1443,1.395347 4.85899,0.39629 5.53151,-2.035697 0.57187,-2.068103 0.65909,-2.109168 0.74155,-0.349167 0.12424,2.65163 -2.18041,4.437623 -4.85884,3.765379 -1.96913,-0.494221 -2.13355,-0.27134 -1.82463,2.473435 0.33037,2.935263 -0.81856,11.115173 -2.17775,15.504723 -0.6378,2.05982 -0.49797,2.14266 2.62697,1.55642 2.81362,-0.52784 3.55853,-0.27451 5.04854,1.71694 0.96135,1.28487 1.83949,2.25072 1.95142,2.14632 0.11193,-0.1044 0.68127,-4.24082 1.26521,-9.19206 z m -48.81247,3.06998 c 0,-3.35205 -2.65849,-6.50318 -3.87188,-4.58937 -0.4328,0.68263 -0.79337,2.61224 -0.80127,4.28803 -0.0124,2.62882 0.30722,3.04687 2.3294,3.04687 1.96646,0 2.34375,-0.44197 2.34375,-2.74553 z m -33.75,-3.60837 c 0,-2.33196 -2.62986,-5.8336 -4.38126,-5.8336 -1.05908,0 -1.30652,0.58177 -0.89714,2.10938 0.31092,1.16015 0.57106,2.84765 0.5781,3.75 0.008,1.12158 0.75429,1.64062 2.35655,1.64062 1.62096,0 2.34375,-0.51391 2.34375,-1.6664 z m -13.69537,-3.41659 c -1.42442,-3.71202 4.11485,-6.922513 7.00092,-4.05763 0.94576,0.93882 1.06224,0.8922 0.5857,-0.23438 -0.32716,-0.77344 -2.35607,-2.671875 -4.50867,-4.21875 -2.91956,-2.098013 -4.93298,-4.836873 -7.9256,-10.78125 -3.78279,-7.513929 -4.15297,-7.956666 -2.65821,-3.179234 0.76515,2.445503 -1.46717,4.536542 -4.10627,3.8464 -1.034,-0.270396 -1.88,-0.399143 -1.88,-0.286104 0,1.388403 5.76835,11.456338 8.75427,15.279498 3.75677,4.81014 5.78744,6.36659 4.73786,3.63145 z m 43.83259,-12.639787 c -0.70433,-6.003818 -0.75419,-10.243262 -0.1499,-12.745973 1.32644,-5.493568 1.156,-5.974058 -0.91455,-2.578125 -2.17411,3.565815 -2.71193,3.672601 -5.89329,1.170143 l -2.38587,-1.876731 -0.67019,8.045557 c -0.93207,11.189312 0.62583,20.861636 2.79485,17.352086 1.02032,-1.65092 4.16037,-1.16806 5.40931,0.83183 2.22155,3.55725 2.94506,-0.52033 1.80964,-10.198787 z m 80.64834,10.546227 c 2.28362,-2.06666 2.16534,-4.878894 -0.31634,-7.520525 l -2.03078,-2.161669 -1.71922,2.827032 c -2.11735,3.481702 -2.1431,4.509442 -0.16767,6.692272 1.89729,2.09647 2.08926,2.10386 4.23401,0.16289 z M 151.26431,85.542165 c 1.42271,-2.301993 -2.55871,-10.334396 -11.48022,-23.161026 -5.36094,-7.707525 -9.92897,-14.708897 -10.15117,-15.558606 -0.42361,-1.619882 -6.67746,-5.090487 -7.56804,-4.199916 -0.28351,0.283514 0.81085,2.305502 2.43192,4.493306 1.62107,2.187805 7.04424,11.571577 12.05148,20.852827 5.00724,9.28125 9.55495,17.184946 10.10603,17.563769 1.31252,0.902277 4.05478,0.908015 4.61,0.0096 z m 198.65626,-2.337186 c 7.30316,-1.399873 11.01476,-2.520393 11.01563,-3.325585 9.1e-4,-0.847627 -0.91884,-1.063522 -3.04558,-0.714899 -1.67578,0.274701 -5.60715,0.931332 -8.73637,1.45918 -4.04795,0.68282 -6.55338,0.658577 -8.68361,-0.08403 -3.60987,-1.258405 -5.78314,-0.59149 -5.78314,1.77468 0,3.65841 0.60814,3.693967 15.23307,0.890652 z M 202.0988,76.744387 c 1.29358,-2.501525 1.50455,-6.404935 1.40606,-26.015625 -0.10327,-20.562142 -0.32556,-23.710033 -2.04306,-28.931887 -1.05994,-3.222656 -2.31465,-5.859375 -2.78823,-5.859375 -0.47359,0 -0.86107,3.498306 -0.86107,7.774013 0,4.275706 -0.83926,17.389965 -1.86502,29.142795 -1.92105,22.01097 -1.80616,23.818029 1.64214,25.827033 2.45432,1.429902 2.85771,1.256619 4.50918,-1.936954 z m 140.21266,0.7017 c 0.6155,-1.350894 0.69446,-2.825354 0.19873,-3.711177 -0.6895,-1.232062 -1.19906,-1.282723 -3.15073,-0.313244 -2.86212,1.42173 -3.63089,4.982069 -1.21115,5.609036 2.95433,0.765481 3.12133,0.701918 4.16315,-1.584615 z M 93.396798,58.250385 c 0.510224,-2.551102 9.298362,-14.168838 14.066982,-18.596245 2.05397,-1.907006 3.04366,-4.96664 1.60654,-4.96664 -1.18094,0 -20.786029,20.521221 -21.373544,22.372314 -0.397081,1.251091 -0.03878,2.185125 1.090257,2.842097 2.789954,1.623444 4.044676,1.173918 4.609765,-1.651526 z M 94.397925,47.042842 C 92.392415,46.656616 90,48.447442 90,50.33488 c 0,1.015962 0.760321,0.8139 3.036714,-0.807034 2.462998,-1.753809 2.720164,-2.223293 1.361211,-2.485003 z"
       id="path3469"
       inkscape:connector-curvature="0" />
  </g>
</svg>
