<?xml version="1.0" encoding="UTF-8" standalone="no"?>
<!-- Created with Inkscape (http://www.inkscape.org/) -->

<svg
   xmlns:dc="http://purl.org/dc/elements/1.1/"
   xmlns:cc="http://creativecommons.org/ns#"
   xmlns:rdf="http://www.w3.org/1999/02/22-rdf-syntax-ns#"
   xmlns:svg="http://www.w3.org/2000/svg"
   xmlns="http://www.w3.org/2000/svg"
   xmlns:sodipodi="http://sodipodi.sourceforge.net/DTD/sodipodi-0.dtd"
   xmlns:inkscape="http://www.inkscape.org/namespaces/inkscape"
   id="svg3448"
   version="1.1"
   inkscape:version="0.91 r13725"
   width="501.86917"
   height="194.0625"
   viewBox="0 0 501.86917 194.0625"
   sodipodi:docname="bb720301.svg">
  <metadata
     id="metadata3454">
    <rdf:RDF>
      <cc:Work
         rdf:about="">
        <dc:format>image/svg+xml</dc:format>
        <dc:type
           rdf:resource="http://purl.org/dc/dcmitype/StillImage" />
        <dc:title></dc:title>
      </cc:Work>
    </rdf:RDF>
  </metadata>
  <defs
     id="defs3452" />
  <sodipodi:namedview
     pagecolor="#ffffff"
     bordercolor="#666666"
     borderopacity="1"
     objecttolerance="10"
     gridtolerance="10"
     guidetolerance="10"
     inkscape:pageopacity="0"
     inkscape:pageshadow="2"
     inkscape:window-width="1375"
     inkscape:window-height="785"
     id="namedview3450"
     showgrid="false"
     inkscape:zoom="1.2453445"
     inkscape:cx="206.2347"
     inkscape:cy="141.37982"
     inkscape:window-x="0"
     inkscape:window-y="0"
     inkscape:window-maximized="0"
     inkscape:current-layer="svg3448" />
  <g
     id="g3458"
     transform="translate(0.64739952,5.1725821)">
    <path
       style="fill:#fefefe"
       d="m 9.9688479,116.5625 c -0.3426795,-0.34375 -0.6230533,-1.82031 -0.6230533,-3.28125 l 0,-2.65625 241.1215054,0 241.1215,0 0,3.28125 0,3.28125 -240.49845,0 c -132.27415,0 -240.778824,-0.28125 -241.1215021,-0.625 z M 46.73104,108.51563 c 0.01395,-7.90637 2.221828,-37.116297 2.901835,-38.390873 1.303974,-2.444111 5.329504,-2.16695 6.51758,0.44874 1.006676,2.21632 0.631087,4.535182 -3.919129,24.196447 -1.144142,4.943775 -1.827244,9.650086 -1.518005,10.458466 0.309238,0.80838 1.85235,1.75403 3.429138,2.10143 4.602695,1.01407 3.307189,2.35766 -2.273299,2.35766 -3.490199,0 -5.139523,-0.37617 -5.13812,-1.17187 z m 48.596065,0.72177 c 0,-1.85277 4.067944,-7.67141 12.282675,-17.568666 5.1169,-6.164949 10.2293,-12.643154 11.36086,-14.396011 2.13981,-3.314671 4.1595,-4.0078 6.07609,-2.085223 2.46807,2.475781 0.71701,5.155679 -12.662,19.378463 C 100.54355,107.15394 95.327105,111.64066 95.327105,109.2374 Z m 38.864405,-3.18503 -2.51129,-3.63513 3.08112,-6.267709 3.08112,-6.26772 -5.20249,-5.015078 -5.2025,-5.015078 1.49255,-2.895285 1.49254,-2.895286 6.28405,6.352361 c 3.45622,3.493798 6.28405,6.879648 6.28405,7.524111 0,0.644464 -1.47887,4.117571 -3.28638,7.718016 l -3.28638,6.546258 1.9035,3.74284 c 1.83885,3.61569 1.84369,3.74283 0.14245,3.74283 -0.99045,0 -2.85993,-1.59065 -4.27234,-3.63513 z m 111.15381,2.077 c 0.41174,-0.94771 1.07208,-5.67667 1.46742,-10.508789 0.39535,-4.832119 1.21436,-10.857794 1.82002,-13.390389 0.90187,-3.771144 1.33678,-4.408613 2.40246,-3.521413 1.57338,1.309873 1.66935,4.875248 0.25024,9.29741 -0.57804,1.801284 -1.31402,6.860998 -1.63551,11.243811 -0.54966,7.49346 -0.71779,7.98765 -2.81888,8.28562 -1.86298,0.26421 -2.10992,0.0305 -1.48575,-1.40625 z m 19.76372,0.93313 c -0.34268,-0.34375 -0.62305,-2.4226 -0.62305,-4.61967 0,-2.19705 -0.45515,-7.277293 -1.01145,-11.289403 -1.03656,-7.475887 -0.42315,-16.220895 1.03468,-14.750899 0.44521,0.448923 1.28862,6.511535 1.87425,13.472472 0.58563,6.960938 1.44968,13.3888 1.9201,14.28415 0.47043,0.89535 0.85531,2.05551 0.85531,2.57813 0,1.05699 -3.07425,1.30386 -4.04984,0.32522 z m 47.97508,0.19886 c 0,-0.23438 1.0514,-1.48082 2.33645,-2.76988 1.38337,-1.3877 2.33392,-3.41279 2.33027,-4.9645 -0.004,-1.4414 0.48428,-5.853221 1.08372,-9.804036 0.939,-6.188775 1.40803,-7.328712 3.38773,-8.233542 2.18008,-0.996418 2.27421,-0.916566 1.83694,1.558306 -0.25348,1.434698 -0.98062,5.772604 -1.61584,9.639792 -0.63523,3.867187 -1.77404,8.82422 -2.53067,11.01563 -1.19522,3.46161 -1.73343,3.98437 -4.10216,3.98437 -1.49954,0 -2.72644,-0.19177 -2.72644,-0.42614 z m 46.24975,-0.49198 c 0.99975,-1.6227 -1.41749,-4.99353 -9.44502,-13.170996 -5.93204,-6.042824 -8.74182,-9.810333 -11.50569,-15.427428 -3.58717,-7.290327 -3.62558,-7.477558 -2.0144,-9.817138 2.93005,-4.254656 2.93091,-4.41105 0.022,-3.982767 -3.27986,0.482879 -5.5496,-1.130089 -5.5496,-3.943741 0,-2.453857 30.57868,-33.36481 33.00617,-33.36481 3.99764,0 0.0439,6.309255 -13.07886,20.871073 -3.7177,4.125372 -7.85796,9.090759 -9.20055,11.034192 l -2.44111,3.533515 2.40494,4.760737 c 1.32271,2.618406 3.3008,7.195462 4.39575,10.171235 1.09614,2.978994 3.9286,7.666576 6.30271,10.430644 8.53738,9.939701 9.45207,11.465974 9.45207,15.771864 0,3.04472 -0.36213,4.05174 -1.45703,4.05174 -0.80136,0 -1.20247,-0.41316 -0.89135,-0.91812 z m 28.51296,-2.82471 1.90351,-3.74284 -3.28639,-6.546258 c -1.8075,-3.600445 -3.28637,-7.095454 -3.28637,-7.766686 0,-0.671232 2.90471,-4.111884 6.45491,-7.645891 l 6.45491,-6.425468 1.47777,2.866605 1.47775,2.866605 -5.35857,5.165537 -5.35858,5.165537 3.08113,6.26772 3.08112,6.267709 -2.51129,3.63513 c -1.41241,2.04448 -3.2819,3.63513 -4.27235,3.63513 -1.70123,0 -1.69639,-0.12714 0.14245,-3.74283 z m 25.98093,-11.185423 c -12.87679,-13.854482 -13.69693,-14.957153 -13.0212,-17.50688 0.45572,-1.719574 1.42849,-2.825667 2.64293,-3.005171 1.50486,-0.222428 4.36917,2.867358 13.20232,14.241534 9.96371,12.82997 14.18932,18.98954 14.18932,20.68346 0,0.28342 -0.73598,0.48325 -1.63551,0.44406 -0.89954,-0.0392 -7.81957,-6.72484 -15.37786,-14.857003 z m 47.85449,14.039743 c 0,-0.54257 0.99991,-0.98649 2.22202,-0.98649 4.42765,0 4.67882,-1.41375 3.62792,-20.420406 -0.6546,-11.839144 -0.66261,-17.929603 -0.0247,-18.720219 3.00641,-3.725717 6.88075,2.291131 5.81439,9.029732 -0.3768,2.381303 -0.94195,10.44683 -1.25584,17.923393 l -0.57073,13.59375 -4.90654,0.28337 c -2.98941,0.17265 -4.90655,-0.10209 -4.90655,-0.70313 z M 163.1802,100.63863 c 1.21963,-5.049264 2.26651,-7.065137 6.60882,-12.725932 2.39427,-3.121252 5.55254,-8.631313 7.0184,-12.24458 3.69691,-9.112762 7.43777,-15.778677 8.63456,-15.38609 0.55364,0.181614 1.52958,1.904823 2.16877,3.829353 1.10533,3.32805 0.97963,3.828789 -2.57061,10.240758 -4.12458,7.449271 -19.38893,27.914831 -21.29586,28.552251 -0.89315,0.29854 -1.04051,-0.29337 -0.56408,-2.26576 z m 43.12822,1.84012 c -0.89954,-0.2358 -1.63847,-0.50327 -1.64207,-0.59436 -0.004,-0.0911 -0.82098,-5.638681 -1.81639,-12.327953 -0.9954,-6.689272 -1.72844,-12.241862 -1.62896,-12.339089 0.0995,-0.09723 1.33742,0.04609 2.75097,0.318479 l 2.57009,0.495255 0,10.557167 c 0,8.240445 0.30764,10.813282 1.40187,11.724251 1.46957,1.22345 1.90163,2.89004 0.70093,2.70375 -0.38551,-0.0598 -1.43691,-0.30169 -2.33644,-0.5375 z M 82.943927,100.12248 c -1.92757,-0.513555 -3.504673,-1.291868 -3.504673,-1.729586 0,-0.43771 -5.087996,-5.09312 -11.306659,-10.345347 -10.67544,-9.016384 -11.275451,-9.706028 -10.747664,-12.353213 0.307448,-1.54204 0.558996,-3.484311 0.558996,-4.316157 0,-0.831848 6.728972,5.227661 14.953271,13.465573 8.224299,8.237912 14.953271,15.29937 14.953271,15.69214 0,0.83955 -0.297931,0.81444 -4.906542,-0.41341 z M 228.97197,92.809316 c 0,-1.970767 -12.20662,-17.270933 -14.47579,-18.144417 -1.44547,-0.556413 -4.62232,-6.132108 -3.90428,-6.852399 0.84912,-0.851775 5.76501,2.319649 7.72975,4.986749 1.08157,1.468225 4.5512,5.525566 7.71028,9.01631 5.50122,6.078783 6.42793,8.117665 5.1765,11.389016 -0.80185,2.096106 -2.23646,1.842559 -2.23646,-0.395259 z m 63.13478,0.08543 c -0.48763,-0.791473 6.51186,-7.980484 14.5622,-14.956473 4.46646,-3.87039 10.04151,-6.238092 11.42369,-4.851593 1.72876,1.734158 -0.50418,4.027216 -7.19422,7.387915 -3.42786,1.721963 -8.63868,5.413369 -11.57962,8.203125 -5.49703,5.214448 -6.30607,5.687511 -7.21205,4.217026 z m -38.16818,-5.350123 c -1.34557,-1.349777 -0.61466,-3.997601 1.26907,-4.597341 3.38016,-1.076175 6.63466,0.283505 6.30164,2.632736 -0.23106,1.629946 -1.00462,2.136208 -3.59875,2.35523 -1.81744,0.153446 -3.60482,-0.02233 -3.97196,-0.390625 z m 55.40723,-1.825 c 0,-1.598808 2.26008,-4.311747 4.6056,-5.528456 2.60018,-1.348806 2.7,-1.314869 3.31057,1.12542 0.46,1.838531 0.18579,2.841662 -1.0182,3.724791 -1.62437,1.191482 -6.89797,1.71001 -6.89797,0.678245 z M 209.02336,79.848055 c -2.01247,-2.230699 -1.95045,-3.253446 0.32244,-5.316805 1.80375,-1.637468 1.93457,-1.637468 3.73832,0 2.11272,1.917962 2.40689,4.241832 0.74766,5.90625 -1.57379,1.578715 -3.01136,1.40249 -4.80842,-0.589445 z m 220.64955,-0.332287 c -3.86298,-1.049361 -4.70341,-2.63675 -1.40187,-2.647816 2.54016,-0.0085 34.98945,-6.264433 36.11593,-6.962814 0.68286,-0.423351 2.31204,5.99993 1.68208,6.631859 -0.12568,0.126062 -6.73654,0.908602 -14.69083,1.738976 -7.95428,0.830374 -15.30344,1.663233 -16.33148,1.850797 -1.02804,0.187564 -3.44626,-0.08738 -5.37383,-0.611002 z M 262.76275,59.199245 c -1.6223,-1.520207 -2.94966,-3.180727 -2.94966,-3.690043 0,-0.509317 3.25935,-2.472148 7.24299,-4.361847 7.47286,-3.544857 24.14892,-12.67969 28.27103,-15.486347 1.28505,-0.874959 4.31006,-2.084749 6.72226,-2.688421 5.28003,-1.321371 5.67095,-1.339262 5.27151,-0.241259 -0.31301,0.860401 -38.60422,28.075494 -40.56225,28.829206 -0.57541,0.221498 -2.37356,-0.841082 -3.99588,-2.361289 z M 240.19048,52.305966 C 227.5129,42.144682 213.26371,28.56985 214.24352,27.586978 c 1.10718,-1.110642 7.21274,2.090964 16.81032,8.814918 4.91001,3.439895 12.53768,8.785604 16.95038,11.879354 4.4127,3.09375 8.03378,5.934751 8.04682,6.313334 0.0131,0.378584 -1.13281,1.956125 -2.54636,3.505646 l -2.5701,2.817312 -10.7441,-8.611576 z m -52.8073,5.662332 c -1.02804,-0.532016 -3.49057,-2.929245 -5.47231,-5.327175 -1.98173,-2.39793 -8.02511,-9.125724 -13.42974,-14.950652 -5.40464,-5.824928 -9.60537,-10.812713 -9.33497,-11.083964 1.29051,-1.294536 7.94115,1.90715 13.57404,6.53468 8.99197,7.38708 20.73775,19.777643 20.73775,21.876153 0,1.98307 -1.69836,4.080375 -3.2243,3.98171 -0.53972,-0.03489 -1.82243,-0.498736 -2.85047,-1.030752 z m -49.9982,-2.890173 c -0.002,-1.410677 0.88238,-1.626364 6.30661,-1.538874 9.26828,0.149491 17.3327,1.171913 17.68391,2.241999 0.19454,0.592748 -4.15964,0.9375 -11.84052,0.9375 -10.94597,0 -12.14837,-0.162362 -12.15,-1.640625 z m 249.14169,1.40625 c -0.38542,-0.386719 -5.3629,-1.125 -11.06107,-1.640625 -7.33373,-0.663624 -10.48538,-1.315466 -10.78837,-2.23131 -0.3478,-1.051279 0.7329,-1.183084 5.76512,-0.703125 3.40625,0.324877 8.92682,0.85077 12.26794,1.168651 5.12253,0.487369 6.07477,0.854756 6.07477,2.34375 0,1.818305 -1.02474,2.300483 -2.25839,1.062659 z M 131.49649,55.657409 c -1.5536,-1.558451 -0.1585,-6.939172 5.13321,-19.798034 1.59939,-3.886518 3.35999,-6.796875 4.11172,-6.796875 1.65606,0 1.73332,-0.474113 -1.07863,6.619112 -4.08284,10.299074 -4.97539,13.424862 -4.79267,16.784429 0.17093,3.14277 -1.67826,4.892047 -3.37363,3.191368 z M 392.21185,55.625 c -0.34268,-0.34375 -0.62306,-1.982815 -0.62306,-3.642366 0,-1.659551 -0.6539,-4.436895 -1.45313,-6.171875 -0.94904,-2.060221 -1.24707,-2.341472 -0.85913,-0.810759 1.805,7.121914 1.80507,7.135769 0.0271,5.661871 -1.27722,-1.058804 -1.54709,-2.301849 -1.18989,-5.480784 0.33337,-2.966964 -0.15926,-5.701552 -1.76982,-9.824009 -2.63144,-6.735661 -2.56718,-6.294578 -0.91711,-6.294578 1.97089,0 11.46508,23.250364 10.51179,25.742359 -0.56719,1.482687 -2.61666,1.93371 -3.72675,0.820141 z M 53.868969,50.368012 c -1.168346,-0.856985 -1.416866,-1.747106 -0.87956,-3.150308 0.945938,-2.470369 20.694832,-21.428202 21.490688,-20.629858 0.794877,0.797361 -1.302466,5.287154 -2.469819,5.287154 -1.701381,0 -12.893038,14.036978 -13.460365,16.882471 -0.600421,3.011491 -2.077942,3.519851 -4.680944,1.610541 z m 81.645051,-0.494753 c 0,-0.499395 0.63143,-2.32752 1.40319,-4.0625 l 1.40319,-3.154509 -0.23497,3.677531 c -0.12923,2.022643 -0.76066,3.850768 -1.40318,4.062501 -0.64253,0.211732 -1.16823,-0.02363 -1.16823,-0.523023 z m 331.32094,-1.08368 c -0.3194,-1.009481 0.0522,-3.705621 0.82588,-5.991422 0.77364,-2.285802 1.66555,-6.416894 1.98205,-9.180205 0.68334,-5.966164 3.03072,-12.992952 4.34045,-12.992952 0.56529,0 0.66824,1.197932 0.26184,3.046875 -1.81096,8.239236 -2.93536,20.06704 -2.11399,22.237759 0.68581,1.812473 0.52076,2.576673 -0.75934,3.515625 -2.32292,1.703871 -3.86502,1.487803 -4.53689,-0.63568 z m -3.0624,-3.942737 C 462.21125,43.280656 462.25785,37.5 463.83179,37.5 c 3.1005,0 4.41014,3.960361 2.27722,6.886407 -0.93777,1.286481 -1.41852,1.381223 -2.33645,0.460435 z M 55.140188,41.459139 c 0,-1.397673 3.535885,-4.183078 4.781442,-3.766594 0.668866,0.223652 -0.0917,1.272803 -1.81508,2.503795 -1.631499,1.16536 -2.966362,1.733619 -2.966362,1.262799 z"
       id="path3468"
       inkscape:connector-curvature="0" />
    <path
       style="fill:#007f7f"
       d="m 317.93626,80.737802 c -0.74421,-2.141493 -0.62195,-3.01692 0.59124,-4.233906 1.26246,-1.266408 1.32732,-1.858846 0.37155,-3.394052 C 318.13989,71.890439 318.08499,71.25 318.73962,71.25 c 0.54914,0 3.28635,-2.170571 6.08269,-4.823491 2.97598,-2.823356 5.08424,-4.244228 5.08424,-3.426551 0,1.92347 2.80268,4.263851 5.56726,4.64894 2.1651,0.301587 1.9556,0.684705 -3.66875,6.709012 -5.45488,5.842795 -9.74741,9.07959 -12.04104,9.07959 -0.48927,0 -1.31176,-1.214864 -1.82776,-2.699698 z m -66.23644,-0.300514 c -1.2743,-1.41248 -1.33246,-2.417702 -0.41157,-7.113126 0.58985,-3.007501 0.79963,-6.836523 0.46619,-8.508939 -0.48902,-2.45276 -0.15412,-3.529569 1.73195,-5.568614 1.28601,-1.390322 2.76697,-3.338454 3.29103,-4.329183 0.88449,-1.672143 1.05915,-1.595083 2.43537,1.074561 0.8154,1.581737 2.58538,3.681757 3.9333,4.666712 2.42019,1.768495 2.43223,1.835278 0.96595,5.355543 -0.90056,2.162091 -1.29,4.907897 -0.98974,6.978361 0.27229,1.877506 0.1415,4.653147 -0.29061,6.168091 -0.7221,2.531592 -1.14418,2.761205 -5.21677,2.837991 -3.11673,0.05876 -4.87128,-0.40438 -5.9151,-1.561397 z m 145.29609,-6.550034 c -4.71999,-9.274147 -7.27651,-15.97714 -7.21703,-18.922419 0.0549,-2.716386 0.12238,-2.77587 0.91212,-0.803429 1.26705,3.164549 3.69413,3.708597 5.6631,1.269424 1.60805,-1.992065 1.7057,-2.003232 2.61492,-0.299033 0.51947,0.97367 1.74955,4.68218 2.7335,8.241131 0.98396,3.558953 2.06059,7.106572 2.39253,7.883598 0.39411,0.922581 -0.11997,1.735799 -1.48159,2.34375 -1.14682,0.512036 -2.30953,1.906801 -2.58382,3.099478 -0.43698,1.900069 -0.81252,1.551914 -3.03373,-2.8125 z M 125.89096,75.375548 C 124.96742,74.137747 123.5556,73.125 122.75358,73.125 c -1.02885,0 -1.25486,-0.483084 -0.76755,-1.640625 0.37987,-0.902344 1.50249,-4.59375 2.4947,-8.203125 0.99222,-3.609375 2.47341,-7.59603 3.29155,-8.859233 l 1.48754,-2.296733 0.76819,2.083138 c 0.99468,2.69728 3.23582,3.524345 5.18127,1.912087 1.37309,-1.137918 1.48423,-1.021887 1.02205,1.066991 -0.52213,2.359845 -6.14624,16.012823 -7.7819,18.891173 -0.7811,1.374554 -1.06692,1.296005 -2.55847,-0.703125 z m 74.227,-1.18638 c -1.37562,-1.477208 -4.29849,-3.605643 -6.49526,-4.729857 -2.19678,-1.124212 -4.21814,-2.763244 -4.49193,-3.642292 -0.42532,-1.365598 -1.69512,-4.36168 -2.96978,-7.007167 -0.19117,-0.396768 0.79101,-0.200995 2.18263,0.435051 2.29775,1.050193 2.73055,0.922822 4.71058,-1.386288 l 2.18036,-2.542735 2.31546,3.045185 c 1.27352,1.674852 4.39225,4.300752 6.93052,5.835336 2.67616,1.617951 5.01482,3.852618 5.56663,5.319109 0.82275,2.18652 0.61131,2.856001 -1.56154,4.944224 -3.24105,3.114827 -5.27637,3.049015 -8.36767,-0.270567 z M 56.093512,68.928906 C 54.679831,67.220202 51.281572,67.058174 49.719627,68.625 47.936874,70.413324 48.307491,67.996789 50.467291,63.75 51.60142,61.519977 52.33645,58.224595 52.33645,55.369947 l 0,-4.704749 2.438829,1.114677 c 2.093557,0.956869 2.622802,0.862294 3.738318,-0.668033 0.714718,-0.98049 1.305929,-2.440359 1.3138,-3.244151 0.01259,-1.285832 0.123172,-1.292464 0.920268,-0.05519 1.392627,2.161671 1.113145,6.499703 -0.936733,14.539695 -1.029221,4.036793 -2.020693,7.489473 -2.20327,7.67262 -0.182578,0.183148 -0.863945,-0.310012 -1.51415,-1.095909 z M 472.15297,68.394864 c -1.37272,-2.204942 -3.2693,-2.352699 -4.89995,-0.381738 -0.89729,1.084546 -1.37578,1.165601 -1.89602,0.321187 -1.05046,-1.704989 -2.08622,-17.220448 -1.31277,-19.664987 l 0.67678,-2.139016 1.31421,2.516096 c 1.43494,2.747243 2.3148,3.016308 5.05427,1.545609 2.18155,-1.171178 2.41655,0.554649 0.71738,5.268313 -0.89431,2.480891 -0.7917,3.977127 0.57073,8.322172 1.75646,5.601692 1.6684,7.253052 -0.22463,4.212364 z"
       id="path3464"
       inkscape:connector-curvature="0" />
    <path
       style="fill:#fe0000"
       d="m 121.55394,25.546875 c 0.0935,-1.121354 13.65317,-10.729388 19.76825,-14.00724 3.0696,-1.6453884 8.54912,-3.668789 12.17671,-4.4964462 6.03825,-1.3776622 7.35379,-1.3791337 15.56706,-0.017413 4.93429,0.8180801 11.21945,2.3794528 13.96703,3.4697162 4.08845,1.622331 5.13735,1.752232 5.77619,0.715348 0.6103,-0.990583 1.19569,-0.766617 2.68358,1.02673 1.04666,1.261524 1.91699,2.610086 1.93409,2.996805 0.0171,0.386719 -2.07171,0.703125 -4.6418,0.703125 -4.30662,0 -6.27006,-1.182606 -3.50467,-2.110905 1.91636,-0.643296 -7.67561,-3.447932 -16.92359,-4.9483552 -7.65602,-1.2421395 -9.30659,-1.2417144 -14.66031,0.00378 -7.78015,1.8099752 -16.04174,5.9950852 -24.32173,12.3207602 -6.47167,4.944171 -7.93876,5.759068 -7.82081,4.344099 z"
       id="path3462"
       inkscape:connector-curvature="0" />
    <path
       style="fill:#000000"
       d="m 12.616823,177.40856 6.542056,-0.34387 10.910092,-16.16681 10.910093,-16.16679 -10.292728,-11.66242 C 17.517015,118.14685 17.492177,118.125 13.704914,118.125 c -3.8343867,0 -5.5350642,-1.76912 -5.1275845,-5.33393 l 0.3011754,-2.63482 18.3389121,-0.25379 18.338913,-0.2538 0.56835,-8.1837 c 0.312593,-4.501041 0.840758,-14.08996 1.1737,-21.30871 0.423941,-9.191732 1.049448,-13.967843 2.08727,-15.9375 1.293074,-2.454096 3.106467,-15.2368 2.925925,-20.625 -0.347665,-10.375943 -1.626033,-12.332429 -4.334829,-6.634272 -1.587027,3.33843 -3.12009,4.412431 -3.113438,2.181147 0.002,-0.644531 0.836861,-2.542969 1.855422,-4.21875 1.727226,-2.841709 4.433966,-3.921828 5.969057,-2.381939 0.364576,0.365714 2.348625,0.542839 4.409001,0.39361 2.060375,-0.149228 4.377155,0.254011 5.1484,0.896088 1.171983,0.975699 2.223518,0.353827 6.403145,-3.786781 4.675008,-4.631362 7.052603,-5.438468 7.052603,-2.394096 0,0.708455 -2.729133,4.066492 -6.064738,7.462304 -8.021656,8.166441 -9.302157,10.174426 -8.020376,12.57694 1.458341,2.733451 1.238747,6.392091 -0.88319,14.714711 l -1.884192,7.390142 15.173286,15.241701 c 9.8563,9.900745 14.853975,15.562005 14.262057,16.155775 -1.209105,1.21289 -8.843047,-0.7206 -9.486517,-2.402702 -0.909073,-2.376412 -21.792283,-19.245307 -22.250361,-17.973246 -1.083489,3.008799 -5.142738,21.111308 -5.143824,22.939248 -8.98e-4,1.50909 0.739562,2.1981 2.865677,2.66653 1.576788,0.3474 3.093746,1.22468 3.371017,1.9495 0.408874,1.06883 3.896044,1.31784 18.455345,1.31784 l 17.951219,0 1.559523,-3.28058 c 0.857738,-1.80432 5.783398,-8.369583 10.945918,-14.589489 13.17018,-15.867687 14.49368,-18.186516 17.82125,-31.223509 0.64048,-2.50928 2.14402,-5.73007 3.34123,-7.15731 1.94327,-2.316658 2.02081,-2.724785 0.723,-3.805232 -0.92844,-0.772951 -1.36588,-2.430577 -1.21062,-4.587568 0.31252,-4.342033 -0.70855,-6.189658 -2.56607,-4.643241 -1.78677,1.487524 -2.81288,0.339019 -1.31483,-1.471665 1.47244,-1.779722 2.72232,-1.807107 4.61806,-0.10118 2.96325,2.666551 6.04611,0.838143 8.68485,-5.150878 2.25962,-5.128575 4.45344,-6.92121 5.79847,-4.738112 0.27573,0.447555 -0.46195,3.295211 -1.63931,6.328125 -1.46028,3.761719 -2.01505,6.795645 -1.74545,9.545577 0.27883,2.844128 -0.0522,4.52722 -1.12449,5.715683 -1.45244,1.609945 -0.99465,1.712649 10.34421,2.320714 11.36499,0.609468 14.80074,1.532661 14.05362,3.776245 -0.23185,0.696232 -3.96062,0.931896 -11.47972,0.725537 -8.19414,-0.224883 -11.57106,0.0228 -12.78175,0.9375 -0.90497,0.683724 -2.91755,4.38221 -4.4724,8.21886 l -2.827,6.975726 6.5752,6.64007 c 3.61637,3.652039 6.57521,7.168024 6.57521,7.813302 0,0.645278 -1.47887,4.119052 -3.28638,7.719497 l -3.28638,6.546258 1.9035,3.74284 1.90351,3.74283 51.26949,0 51.26949,0 0.97138,-2.57812 c 0.53426,-1.41797 1.20949,-6.375 1.50052,-11.01563 0.29103,-4.640625 0.97092,-9.914062 1.51088,-11.71875 2.30536,-7.705196 3.68253,-16.315031 3.147,-19.67454 -0.51386,-3.223555 -1.57579,-4.389203 -9.97641,-10.950883 -5.17074,-4.03883 -13.63892,-11.419841 -18.81818,-16.402248 -7.46618,-7.182406 -9.18126,-9.302442 -8.27961,-10.234529 2.03215,-2.100737 7.14695,0.923027 33.62505,19.878446 10.06629,7.206357 11.14815,7.343608 20.84658,2.644707 8.08122,-3.915365 22.86499,-12.055388 27.10143,-14.922198 2.76271,-1.869537 10.92918,-4.064082 12.19748,-3.277783 0.48764,0.302326 0.88663,0.900147 0.88663,1.32849 0,0.428341 -9.49025,7.444278 -21.08945,15.590971 -23.13182,16.246627 -24.32026,17.534347 -23.17027,25.10592 0.32432,2.135319 0.93044,4.320465 1.34695,4.85588 0.41651,0.535415 1.25275,6.652602 1.85831,13.59375 0.60556,6.941145 1.57171,13.780427 2.147,15.198397 l 1.04598,2.57812 20.28446,0 20.28446,0 2.56043,-2.38034 c 1.97177,-1.83308 2.71271,-3.61127 3.22281,-7.734376 0.36431,-2.944715 0.97925,-7.637218 1.36653,-10.427776 l 0.70414,-5.073743 -2.2176,1.558118 c -2.75946,1.938841 -6.8044,2.012464 -8.34375,0.151867 -1.90607,-2.303852 -3.38209,-1.673263 -9.02949,3.857596 -4.16883,4.082794 -5.69847,5.059023 -6.8175,4.350948 -0.79349,-0.502091 -1.44273,-1.298917 -1.44273,-1.770722 0,-0.471806 3.99533,-4.562431 8.87851,-9.090277 4.88317,-4.527846 9.03767,-8.688119 9.2322,-9.24505 0.23659,-0.677302 -0.76918,-0.80129 -3.03738,-0.374443 -4.1898,0.788468 -4.44734,-0.510796 -0.40465,-2.041508 2.42197,-0.917045 3.36416,-0.882506 4.98486,0.182736 4.02702,2.646854 8.74938,-0.867964 30.94908,-23.035194 14.60179,-14.580443 21.20347,-20.567786 22.41918,-20.33293 4.51913,0.873025 1.41329,6.278459 -12.44028,21.651167 -3.7177,4.125372 -7.85796,9.090759 -9.20055,11.034192 l -2.44111,3.533515 2.40494,4.760737 c 1.32271,2.618406 3.3008,7.195462 4.39575,10.171235 1.09614,2.978994 3.9286,7.666576 6.30271,10.430644 8.53738,9.939701 9.45207,11.465974 9.45207,15.771864 l 0,4.05174 11.19596,0 11.19596,0 1.9035,-3.74283 1.90351,-3.74284 -3.28639,-6.546258 c -1.8075,-3.600445 -3.28637,-7.074219 -3.28637,-7.719497 0,-0.645278 2.95884,-4.161263 6.5752,-7.813302 l 6.57521,-6.64007 -2.83368,-6.975726 c -1.55853,-3.83665 -2.83513,-7.070362 -2.83689,-7.186027 -0.0201,-1.318768 -7.04994,-3.023037 -14.71941,-3.568476 -6.40291,-0.455361 -9.91378,-1.116578 -10.64932,-2.00563 -2.28847,-2.766048 0.39029,-3.292674 11.45847,-2.252659 5.84981,0.549674 11.37201,1.000849 12.27154,1.002612 1.17819,0.0023 1.63551,0.757957 1.63551,2.702413 0,2.749483 2.72026,9.736059 7.27628,18.688044 2.22121,4.364414 2.59675,4.712569 3.03373,2.8125 0.27429,-1.192677 1.437,-2.587442 2.58382,-3.099478 1.36162,-0.607951 1.8757,-1.421169 1.48159,-2.34375 -0.33194,-0.777026 -1.40857,-4.324645 -2.39253,-7.883598 -0.98395,-3.558951 -2.22688,-7.291556 -2.76206,-8.294677 -0.95487,-1.789749 -0.99874,-1.787081 -2.3462,0.142696 -2.57644,3.689871 -6.28916,1.43556 -6.14276,-3.729788 0.0439,-1.550388 -0.50685,-4.172492 -1.22398,-5.826898 l -1.30389,-3.008011 -0.0365,3.328125 c -0.0201,1.830469 0.48912,3.919497 1.13165,4.642286 0.98324,1.106073 0.89352,1.104489 -0.56665,-0.01 -1.37628,-1.050471 -1.63937,-2.17396 -1.27289,-5.43557 0.33253,-2.959415 -0.15744,-5.696908 -1.74871,-9.770009 -1.21587,-3.112232 -1.98507,-6.024786 -1.70933,-6.472341 1.34503,-2.183098 3.53884,-0.390463 5.79847,4.738112 2.63873,5.989021 5.72159,7.817429 8.68485,5.150878 1.89573,-1.705927 3.14561,-1.678542 4.61805,0.101179 1.49805,1.810685 0.47195,2.95919 -1.31483,1.471665 -1.85751,-1.546416 -2.87859,0.301209 -2.56606,4.643242 0.15526,2.156991 -0.28218,3.814617 -1.21063,4.587568 -1.2978,1.080446 -1.22026,1.488574 0.72301,3.805232 1.1972,1.42724 2.70075,4.648029 3.34122,7.15731 2.55769,10.020698 4.42097,13.320398 15.6825,27.772298 6.35901,8.160505 12.25536,16.296185 13.10302,18.079275 l 1.54117,3.242 14.2129,0 c 11.45249,0 14.31236,-0.25999 14.72498,-1.33864 0.28165,-0.73624 1.69347,-1.47452 3.13738,-1.64062 l 2.62525,-0.30199 -0.2887,-14.039596 c -0.15878,-7.721778 -0.42389,-14.175215 -0.58912,-14.340971 -0.36534,-0.366472 -28.44379,2.492834 -30.4627,3.1021 -0.7887,0.23801 -3.31206,-0.112706 -5.60748,-0.779369 -4.59194,-1.333643 -5.64432,-3.758821 -1.83705,-4.233402 3.62344,-0.451667 35.75836,-6.663524 35.96533,-6.952297 0.10109,-0.141055 -0.23626,-4.226074 -0.74968,-9.077821 -0.64581,-6.102714 -0.62885,-9.630994 0.055,-11.44843 0.76697,-2.038283 0.69555,-2.870967 -0.31865,-3.715307 -0.71896,-0.598531 -1.30719,-2.724081 -1.30719,-4.723446 0,-4.059341 2.52528,-7.385208 5.60748,-7.385208 1.41106,0 1.87419,-0.631863 1.88968,-2.578125 0.0288,-3.610661 3.43382,-10.80185 4.8766,-10.298891 1.30046,0.453348 1.36213,2.014325 0.31426,7.955141 -0.58037,3.290387 -0.44805,3.984375 0.75969,3.984375 1.8852,0 4.56768,4.096354 4.11376,6.282029 -0.2784,1.340543 -0.63253,1.109493 -1.72549,-1.125779 -1.9706,-4.030242 -3.89249,-3.607373 -4.26081,0.9375 -0.16714,2.0625 -0.35759,4.382812 -0.4232,5.15625 -0.0656,0.773437 0.19106,3.013318 0.57041,4.977513 0.43184,2.235973 0.23941,4.93998 -0.51464,7.231926 -1.03872,3.157184 -0.97599,4.389003 0.4561,8.956226 1.49816,4.777922 1.55454,6.545299 0.57671,18.080574 -0.59608,7.031756 -1.17583,16.042336 -1.28833,20.023508 l -0.20455,7.23851 9.81308,0.29676 c 5.3972,0.16322 -98.82337,0.38636 -231.60127,0.49587 L 9.2273675,110.625 l 0.2928589,3.04688 0.2928579,3.04687 241.1214957,0.47144 241.12151,0.47144 -215.65421,0.23169 c -174.94452,0.18795 -215.654215,0.45915 -215.654215,1.4367 0,0.66277 -8.558188,13.84636 -19.018195,29.29688 l -19.018195,28.09185 234.672405,0.47151 234.67241,0.4715 -242.99066,0.0454 C 115.42056,177.73207 9.0186918,177.59773 12.616823,177.4086 Z M 57.321698,119.76563 C 57.736519,118.24392 56.449363,118.125 39.564091,118.125 l -18.204846,0 2.638135,3.1535 c 1.450974,1.73442 6.19502,7.1796 10.542323,12.10039 l 7.904189,8.9469 7.215283,-10.45977 c 3.968407,-5.75287 7.416542,-11.19805 7.662523,-12.10039 z m -0.312351,-10.94114 c 0,-0.47465 -1.290099,-1.14725 -2.866888,-1.49465 -1.576788,-0.3474 -3.1199,-1.29305 -3.429138,-2.10143 -0.309239,-0.80838 0.373863,-5.514691 1.518005,-10.458466 4.550216,-19.661265 4.925805,-21.980127 3.919129,-24.196447 -1.188076,-2.61569 -5.213606,-2.892851 -6.51758,-0.44874 -0.680007,1.274576 -2.887885,30.484503 -2.901835,38.390873 -0.0014,0.7957 1.647921,1.17187 5.13812,1.17187 2.827103,0 5.140187,-0.38836 5.140187,-0.86301 z M 112.38473,94.565963 c 13.37901,-14.222784 15.13007,-16.902682 12.662,-19.378463 -1.91659,-1.922577 -3.93628,-1.229448 -6.07609,2.085223 -1.13156,1.752857 -6.24396,8.231062 -11.36086,14.396011 -8.214731,9.897256 -12.282675,15.715896 -12.282675,17.568666 0,2.40326 5.216445,-2.08346 17.057625,-14.671437 z m 22.54346,13.949667 c -0.38288,-0.64454 -1.48839,-2.26447 -2.45669,-3.59985 -1.75399,-2.41893 -1.74901,-2.45145 1.33911,-8.733408 l 3.09967,-6.305439 -5.03607,-4.819088 -5.03608,-4.819087 -12.49508,13.083746 c -6.8723,7.196056 -12.92567,13.822026 -13.45194,14.724376 -0.897444,1.53872 0.15142,1.64062 16.88817,1.64062 14.02426,0 17.696,-0.25091 17.14891,-1.17187 z m 3.39321,-2.57096 -1.9035,-3.74284 3.28638,-6.546258 c 1.80751,-3.600445 3.28638,-7.073552 3.28638,-7.718016 0,-0.644463 -2.82783,-4.030313 -6.28405,-7.524111 l -6.28405,-6.352361 -1.49254,2.895286 -1.49255,2.895285 5.2025,5.015078 5.20249,5.015078 -3.08112,6.26772 -3.08112,6.267709 2.51129,3.63513 c 1.41241,2.04448 3.28189,3.63513 4.27234,3.63513 1.70124,0 1.6964,-0.12714 -0.14245,-3.74283 z m 111.29922,-4.22592 c 0.30536,-4.125 1.13176,-9.943031 1.83646,-12.928958 1.07944,-4.573801 1.08154,-5.755184 0.0134,-7.5 -1.202,-1.963372 -1.176,-1.99681 0.5,-0.643177 1.01315,0.818281 3.53715,1.409204 5.91215,1.384154 3.78126,-0.03988 4.21392,-0.288123 4.93952,-2.834114 0.43739,-1.534723 0.57248,-4.326546 0.3002,-6.204052 -0.30026,-2.070464 0.0892,-4.81627 0.98974,-6.978361 1.46628,-3.520265 1.45424,-3.587048 -0.96595,-5.355543 -1.34792,-0.984955 -3.1179,-3.084975 -3.9333,-4.666712 -1.3766,-2.670373 -1.55081,-2.747161 -2.43792,-1.074561 -0.52545,0.990729 -1.84419,2.784788 -2.93054,3.986799 -1.54019,1.704185 -1.99003,3.459075 -2.04263,7.96875 -0.0371,3.180801 -1.00341,9.330087 -2.14732,13.66508 -1.14393,4.334993 -2.41362,11.928743 -2.82155,16.875001 -0.40794,4.946264 -1.07795,9.768604 -1.48891,10.716324 -0.62287,1.4364 -0.37543,1.67039 1.48715,1.40625 2.08794,-0.29611 2.27074,-0.80834 2.78955,-7.81688 z m 13.64714,-1.63322 c -0.96076,-11.370857 -1.84051,-13.750164 -3.55579,-9.61678 -1.08932,2.624961 -1.19152,2.671846 -1.53259,0.703125 -0.201,-1.160156 -0.93265,-2.109375 -1.62588,-2.109375 -0.69324,0 -1.87198,-0.235406 -2.61943,-0.523124 -1.7294,-0.66571 -2.45765,2.195345 -3.29505,12.945214 l -0.63901,8.20333 7.03953,-2e-4 7.03953,-2.2e-4 -0.81131,-9.60197 z m 5.89112,8.65175 c 0,-0.52262 -0.38488,-1.68278 -0.85531,-2.57813 -0.47042,-0.89535 -1.33447,-7.323213 -1.9201,-14.28415 -0.58563,-6.960938 -1.42904,-13.023549 -1.87425,-13.472472 -1.45783,-1.469996 -2.07124,7.275012 -1.03468,14.750899 0.5563,4.01211 1.01145,9.092343 1.01145,11.289403 0,2.19707 0.28037,4.27592 0.62305,4.61967 0.97559,0.97864 4.04984,0.73177 4.04984,-0.32522 z m 50.75384,-3.03415 c 0.75663,-2.19141 1.89544,-7.148443 2.53067,-11.01563 0.63522,-3.867188 1.36236,-8.205094 1.61584,-9.639792 0.43727,-2.474872 0.34314,-2.554724 -1.83694,-1.558306 -1.9797,0.90483 -2.44873,2.044767 -3.38773,8.233542 -0.59944,3.950815 -1.08711,8.362636 -1.08372,9.804036 0.004,1.55171 -0.9469,3.5768 -2.33027,4.9645 -2.95711,2.96633 -2.92908,3.19602 0.38999,3.19602 2.36873,0 2.90694,-0.52276 4.10216,-3.98437 z m 38.48657,3.06625 c 0.99976,-1.6227 -1.41749,-4.99353 -9.44502,-13.170996 -5.85315,-5.962467 -8.75187,-9.830747 -11.40064,-15.213937 l -3.55187,-7.218579 -4.23844,4.432691 c -4.05234,4.238045 -4.30991,4.844361 -5.86567,13.807691 -1.52569,8.79012 -2.81307,14.37658 -3.94279,17.10938 -0.60922,1.47368 37.53769,1.72546 38.44443,0.25375 z m 3.28296,-3.13362 c 0,-4.3026 -0.89585,-5.798976 -9.44229,-15.771864 -2.57617,-3.006151 -5.30978,-7.652907 -6.8139,-11.582646 -1.38148,-3.609375 -3.25826,-7.966314 -4.17059,-9.682087 l -1.65881,-3.119586 -2.41781,3.664992 -2.41782,3.664991 3.63952,7.396733 c 2.74481,5.578379 5.569,9.362247 11.4883,15.392091 8.02753,8.177466 10.44477,11.548296 9.44502,13.170996 -0.31112,0.50496 0.09,0.91812 0.89135,0.91812 1.0949,0 1.45703,-1.00702 1.45703,-4.05174 z m 30.29448,0.41661 2.51129,-3.63513 -3.08112,-6.267709 -3.08113,-6.26772 5.35858,-5.165537 5.35857,-5.165537 -1.47775,-2.866604 -1.47777,-2.866605 -6.45491,6.425467 c -3.5502,3.534008 -6.45491,6.974659 -6.45491,7.645891 0,0.671232 1.47887,4.166241 3.28637,7.766686 l 3.28639,6.546258 -1.90351,3.74284 c -1.83884,3.61569 -1.84368,3.74283 -0.14245,3.74283 0.99045,0 2.85994,-1.59065 4.27235,-3.63513 z m 33.3004,1.99451 c -0.52627,-0.90235 -6.57964,-7.52832 -13.45194,-14.724376 l -12.49509,-13.083746 -5.03607,4.819087 -5.03608,4.819088 3.09968,6.305439 c 3.08812,6.281958 3.0931,6.314478 1.33911,8.733408 -0.9683,1.33538 -2.07382,2.95531 -2.45669,3.59985 -0.5471,0.92096 3.12464,1.17187 17.1489,1.17187 16.73675,0 17.78562,-0.1019 16.88818,-1.64062 z m 5.564,1.12531 c 0,-1.69392 -4.22561,-7.85349 -14.18932,-20.68346 -8.83315,-11.374176 -11.69746,-14.463962 -13.20232,-14.241534 -1.21444,0.179504 -2.18721,1.285597 -2.64293,3.005171 -0.67573,2.549727 0.14441,3.652398 13.0212,17.50688 7.55829,8.132163 14.47832,14.817813 15.37786,14.857003 0.89953,0.0392 1.63551,-0.16064 1.63551,-0.44406 z M 472.06607,95.625 c 0.31389,-7.476563 0.87904,-15.54209 1.25588,-17.923393 1.06636,-6.738601 -2.80799,-12.755449 -5.8144,-9.029732 -0.63797,0.790616 -0.62996,6.881075 0.0247,18.720219 1.05086,19.006656 0.79969,20.420406 -3.62796,20.420406 -1.22211,0 -2.22202,0.44392 -2.22202,0.98649 0,0.60104 1.91714,0.87578 4.90655,0.70313 l 4.90654,-0.28337 0.57073,-13.59375 z m -384.215601,4.93222 c 0,-0.38102 -6.735736,-7.458884 -14.968304,-15.72857 L 57.91386,69.792854 59.798053,62.402712 c 2.062034,-8.087675 2.344349,-12.425266 0.949612,-14.590212 -0.797096,-1.237273 -0.907677,-1.230641 -0.920268,0.05519 -0.0079,0.803792 -0.599082,2.263661 -1.3138,3.244151 -1.115516,1.530327 -1.644761,1.624902 -3.738318,0.668033 l -2.438829,-1.114677 0,4.704749 c 0,2.854648 -0.73503,6.15003 -1.869159,8.380053 -2.1598,4.246789 -2.530417,6.663324 -0.747664,4.875 1.682057,-1.687313 4.922122,-1.356379 6.769594,0.691433 1.258328,1.394783 1.493863,2.67656 1.014664,5.521777 l -0.624063,3.705343 11.279716,9.526749 c 6.203844,5.239712 11.279716,9.884882 11.279716,10.322592 0,0.437718 1.577103,1.216031 3.504673,1.729587 4.594302,1.22404 4.906542,1.25171 4.906542,0.43475 z M 299.39203,88.608241 c 2.98122,-2.827967 8.0669,-6.408767 11.30152,-7.957331 6.55656,-3.138937 8.47726,-4.920949 7.64602,-7.093913 -0.32276,-0.843719 -0.16867,-1.223555 0.36273,-0.89411 1.33557,0.828003 1.13441,2.869754 -0.40935,4.154962 -1.03354,0.860449 -1.11803,1.729155 -0.37586,3.864792 0.52654,1.515173 1.35766,2.754859 1.84693,2.754859 2.29363,0 6.58616,-3.236795 12.04104,-9.07959 5.62435,-6.024307 5.83385,-6.407425 3.66875,-6.709012 -2.79945,-0.389946 -5.56726,-2.732598 -5.56726,-4.712082 0,-0.912873 -1.66374,0.179014 -4.43925,2.913422 -2.44159,2.405427 -6.94528,5.481797 -10.00822,6.836376 -3.06292,1.354579 -7.05825,3.75285 -8.8785,5.329489 C 294.84831,88.178206 290.14625,93.75 293.30266,93.75 c 0.36794,0 3.10816,-2.313791 6.08937,-5.141759 z m -37.88275,-3.028229 c 0.22021,-1.553494 -0.29224,-2.223914 -2.03536,-2.662776 -3.20033,-0.805744 -6.20289,0.308646 -6.20289,2.30219 0,2.455312 0.97375,3.025314 4.6395,2.715817 2.59413,-0.219023 3.36769,-0.725285 3.59875,-2.355231 z m 54.73449,-0.538639 c 1.20399,-0.883129 1.4782,-1.88626 1.0182,-3.72479 -0.61057,-2.44029 -0.71039,-2.474227 -3.31057,-1.12542 -2.34552,1.216708 -4.6056,3.929647 -4.6056,5.528455 0,1.031765 5.2736,0.513237 6.89797,-0.678245 z m 135.02429,-6.764211 c 7.37966,-0.771189 13.81227,-1.402162 14.29468,-1.402162 0.49813,0 0.60893,-1.433959 0.25645,-3.318744 -0.46679,-2.495931 -0.20967,-3.774315 1.03707,-5.15625 2.15832,-2.392364 3.72721,-2.322428 5.52067,0.246093 1.87584,2.686519 1.84221,1.209849 -0.11058,-4.85552 -1.27892,-3.972318 -1.36444,-5.419799 -0.46729,-7.908593 1.70671,-4.734573 1.4749,-6.462722 -0.70957,-5.289971 -2.74911,1.475875 -3.61916,1.20115 -5.0914,-1.60764 l -1.35132,-2.578125 -0.67184,2.669419 c -0.36951,1.468179 -0.25808,6.530679 0.24763,11.25 0.5057,4.719319 0.63989,8.902802 0.29819,9.296627 -0.68834,0.793352 -32.91299,7.234472 -36.24971,7.245656 -1.15654,0.0038 -2.10281,0.387014 -2.10281,0.851418 0,1.176123 6.517,2.811408 9.3458,2.345102 1.28505,-0.211831 8.37435,-1.01612 15.75403,-1.787309 z M 132.52077,67.03125 c 1.7556,-4.125 3.42535,-8.554688 3.71056,-9.84375 0.46218,-2.088878 0.35104,-2.204909 -1.02205,-1.066991 -1.94545,1.612258 -4.18659,0.785193 -5.18127,-1.912087 l -0.76819,-2.083138 -1.48754,2.296733 c -0.81814,1.263203 -2.29933,5.249858 -3.29155,8.859233 -0.99221,3.609375 -2.11483,7.300781 -2.4947,8.203125 -0.48731,1.157541 -0.2613,1.640625 0.76755,1.640625 0.80202,0 2.21384,1.012747 3.13738,2.250548 1.99443,2.673133 1.87894,2.818487 6.62981,-8.344298 z M 340.8911,62.109375 c 1.58848,-2.449219 5.98159,-7.87838 9.76247,-12.064802 C 363.86498,35.416086 367.86018,29.0625 363.8473,29.0625 c -2.36558,0 -33.00617,30.906033 -33.00617,33.292103 0,2.65092 1.73995,4.207897 4.70242,4.207897 1.90564,0 3.10973,-1.002693 5.34755,-4.453125 z M 287.4071,47.372734 C 305.00694,34.995831 308.95924,31.875 307.03379,31.875 c -2.14845,0 -9.76297,2.462578 -11.70668,3.786008 -4.12211,2.806657 -20.79817,11.94149 -28.27103,15.486347 -3.98364,1.889699 -7.24299,3.85253 -7.24299,4.361847 0,1.459691 5.78354,6.498627 6.94554,6.051332 0.57542,-0.221498 9.86723,-6.606008 20.64847,-14.1878 z m -31.35606,7.22185 c -0.013,-0.378583 -3.63412,-3.219584 -8.04682,-6.313334 -4.4127,-3.09375 -12.04037,-8.439459 -16.95038,-11.879354 -9.59758,-6.723954 -15.70314,-9.92556 -16.81032,-8.814918 -0.97981,0.982872 13.26938,14.557705 25.94696,24.718988 l 10.7441,8.611576 2.5701,-2.817312 c 1.41355,-1.549521 2.55941,-3.127062 2.54636,-3.505646 z M 161.3755,55.78125 c -0.35121,-1.070086 -8.41563,-2.092508 -17.68391,-2.241999 -5.42423,-0.08749 -6.30816,0.128197 -6.30661,1.538874 0.002,1.478263 1.20403,1.640625 12.15,1.640625 7.68088,0 12.03506,-0.344752 11.84052,-0.9375 z m 227.40956,-0.359534 c 0,-1.488994 -0.95224,-1.856381 -6.07477,-2.34375 -3.34112,-0.317881 -8.86169,-0.843774 -12.26794,-1.168651 -5.03222,-0.479959 -6.11292,-0.348154 -5.76512,0.703125 0.30299,0.915844 3.45464,1.567686 10.78837,2.23131 5.69817,0.515625 10.67565,1.253906 11.06107,1.640625 1.23365,1.237824 2.25839,0.755646 2.25839,-1.062659 z M 134.87012,52.466041 c -0.18272,-3.359567 0.70983,-6.485355 4.79267,-16.784429 2.81195,-7.093225 2.73469,-6.619112 1.07863,-6.619112 -1.267,0 -5.19009,8.43926 -8.40454,18.079638 -2.26731,6.799825 -1.87957,9.524763 1.26241,8.871937 1.01491,-0.210873 1.39467,-1.271108 1.27083,-3.548034 z M 395.9386,54.804859 C 396.89189,52.312864 387.3977,29.0625 385.42681,29.0625 c -0.72305,0 -1.31465,0.106554 -1.31465,0.236787 0,0.130233 1.68224,4.664304 3.73832,10.075713 2.05607,5.411409 3.73831,11.140792 3.73831,12.731962 0,1.591171 0.28038,3.174288 0.62306,3.518038 1.11009,1.113569 3.15956,0.662546 3.72675,-0.820141 z M 58.549913,48.757471 C 59.11724,45.911978 70.308897,31.875 72.010278,31.875 c 1.167353,0 3.264696,-4.489793 2.469819,-5.287154 -0.795856,-0.798344 -20.54475,18.159489 -21.490688,20.629858 -0.537306,1.403202 -0.288786,2.293323 0.87956,3.150308 2.603002,1.90931 4.080523,1.40095 4.680944,-1.610541 z m 79.535517,-2.42369 0.23497,-3.677531 -1.40319,3.154509 c -1.70938,3.842844 -1.7734,5.092489 -0.23496,4.585523 0.64252,-0.211733 1.27395,-2.039858 1.40318,-4.062501 z m 333.28642,3.091478 c 1.2801,-0.938952 1.44515,-1.703152 0.75934,-3.515625 -0.82137,-2.170719 0.30303,-13.998523 2.11399,-22.237759 0.4064,-1.848943 0.30345,-3.046875 -0.26184,-3.046875 -1.30973,0 -3.65711,7.026788 -4.34045,12.992952 -0.3165,2.763311 -1.20841,6.894403 -1.98205,9.180205 -2.16177,6.387264 -0.35669,9.610773 3.71101,6.627102 z m -4.08212,-8.166943 c 0,-1.818113 -1.78514,-3.758316 -3.45794,-3.758316 -1.57394,0 -1.62054,5.780656 -0.0593,7.346842 0.91793,0.920788 1.39869,0.826046 2.33645,-0.460435 0.64942,-0.890876 1.18075,-2.298517 1.18075,-3.128091 z M 59.92163,37.692545 c -1.245557,-0.416484 -4.781442,2.368921 -4.781442,3.766594 0,0.47082 1.334863,-0.09744 2.966362,-1.262799 1.723383,-1.230992 2.483946,-2.280143 1.81508,-2.503795 z M 162.2167,103.234 c -1.11442,-1.80879 2.25672,-9.550382 6.75359,-15.509175 2.61063,-3.459342 5.8404,-9.161083 7.17726,-12.670535 1.33686,-3.509453 3.88607,-8.80534 5.66491,-11.768638 1.77885,-2.963299 3.23427,-5.544964 3.23427,-5.737034 0,-0.567698 -12.99322,-15.238267 -20.48184,-23.125929 -7.53877,-7.940478 -7.93435,-10.079812 -1.53618,-8.30767 5.75561,1.594167 17.31439,11.991832 35.27479,31.731344 2.93131,3.221673 6.48327,5.807349 10.74766,7.823843 3.50317,1.656535 7.06284,3.61643 7.91039,4.355322 1.35696,1.183009 1.70803,1.104205 2.93981,-0.659896 1.89118,-2.708477 3.02566,-0.685721 1.19086,2.123286 -1.36139,2.08424 -1.16684,2.444068 5.10135,9.435109 6.67603,7.445921 7.66871,9.949738 5.25662,13.25877 -1.48619,2.038856 -3.4128,1.192275 -3.4128,-1.499646 0,-1.04153 -2.16982,-4.396181 -4.82182,-7.454779 -4.38567,-5.058064 -4.96294,-5.432972 -6.382,-4.14473 -2.05094,1.86187 -5.51543,1.800627 -7.64783,-0.135193 -1.64527,-1.4936 -1.7091,-1.189968 -1.7091,8.129306 0,7.742267 0.31373,10.028614 1.5667,11.417455 2.13784,2.36966 0.5359,3.96635 -2.72981,2.72085 -2.67291,-1.01942 -2.63432,-0.88681 -4.9426,-16.984577 -0.85173,-5.939872 -2.03575,-11.468064 -2.63115,-12.28487 -1.07035,-1.468362 -8.95753,-5.919347 -9.46278,-5.340139 -0.14382,0.164876 -1.66084,2.831026 -3.37115,5.924776 C 184.19554,77.625 179.46709,84.585938 175.39819,90 c -10.497,13.96729 -11.87644,15.35223 -13.18149,13.234 z m 10.91363,-11.436992 c 4.49738,-5.886792 9.8568,-13.736983 11.90981,-17.444869 3.55024,-6.411969 3.67594,-6.912708 2.57061,-10.240758 -0.63919,-1.92453 -1.61513,-3.647739 -2.16877,-3.829353 -1.19679,-0.392587 -4.93765,6.273328 -8.63456,15.38609 -1.46586,3.613267 -4.62413,9.123328 -7.0184,12.24458 -4.34231,5.660795 -5.38919,7.676668 -6.60882,12.725932 -1.11676,4.62335 1.31193,2.46523 9.95013,-8.841622 z m 36.21547,10.505282 c 0,-0.45249 -0.63084,-1.34789 -1.40187,-1.98979 -1.09423,-0.910969 -1.40187,-3.483806 -1.40187,-11.724251 l 0,-10.557167 -2.57009,-0.495255 c -1.41355,-0.272391 -2.65149,-0.415706 -2.75097,-0.318479 -0.0995,0.09723 0.63356,5.649817 1.62896,12.339089 0.99541,6.689272 1.81278,12.236843 1.81639,12.327953 0.007,0.16795 2.69456,0.93265 3.97851,1.13186 0.38552,0.0598 0.70094,-0.26147 0.70094,-0.71396 z m 21.86263,-9.097715 c 1.25143,-3.271351 0.32472,-5.310233 -5.1765,-11.389016 -3.15908,-3.490744 -6.62871,-7.548085 -7.71028,-9.01631 -1.96474,-2.6671 -6.88063,-5.838524 -7.72975,-4.986749 -0.71804,0.720291 2.45881,6.295986 3.90428,6.852399 2.26917,0.873484 14.47579,16.17365 14.47579,18.144417 0,2.237818 1.43461,2.491365 2.23646,0.395259 z M 213.83178,80.4375 c 1.65923,-1.664418 1.36506,-3.988288 -0.74766,-5.90625 -1.80375,-1.637468 -1.93457,-1.637468 -3.73832,0 -2.27289,2.063359 -2.33491,3.086106 -0.32244,5.316805 1.79706,1.991935 3.23463,2.16816 4.80842,0.589445 z m -5.34615,-5.977766 c 2.17285,-2.088223 2.38429,-2.757704 1.56154,-4.944224 -0.55181,-1.466491 -2.89047,-3.701158 -5.56663,-5.319109 -2.53827,-1.534583 -5.657,-4.160484 -6.93052,-5.835336 l -2.31546,-3.045185 -2.18036,2.542735 c -1.98003,2.30911 -2.41283,2.436481 -4.71058,1.386288 -1.39162,-0.636046 -2.3738,-0.831819 -2.18263,-0.435051 1.27466,2.645487 2.54446,5.641569 2.96978,7.007167 0.27379,0.879048 2.29515,2.51808 4.49193,3.642292 2.19677,1.124214 5.11964,3.252649 6.49526,4.729857 3.0913,3.319581 5.12662,3.385393 8.36767,0.270566 z M 192.33645,57.9375 c 0.61683,-0.61875 1.1215,-1.932822 1.1215,-2.92016 0,-2.09851 -11.74578,-14.489073 -20.73775,-21.876153 -5.63289,-4.62753 -12.28353,-7.829216 -13.57404,-6.53468 -0.2704,0.271251 3.93033,5.259035 9.33497,11.083964 5.40463,5.824928 11.44801,12.552722 13.42974,14.950652 4.88557,5.911623 8.15599,7.573056 10.42558,5.296377 z"
       id="path3460"
       inkscape:connector-curvature="0" />
  </g>
</svg>
