<?xml version="1.0" encoding="UTF-8" standalone="no"?>
<!-- Created with Inkscape (http://www.inkscape.org/) -->

<svg
   xmlns:dc="http://purl.org/dc/elements/1.1/"
   xmlns:cc="http://creativecommons.org/ns#"
   xmlns:rdf="http://www.w3.org/1999/02/22-rdf-syntax-ns#"
   xmlns:svg="http://www.w3.org/2000/svg"
   xmlns="http://www.w3.org/2000/svg"
   xmlns:sodipodi="http://sodipodi.sourceforge.net/DTD/sodipodi-0.dtd"
   xmlns:inkscape="http://www.inkscape.org/namespaces/inkscape"
   id="svg3454"
   version="1.1"
   inkscape:version="0.91 r13725"
   width="500"
   height="250"
   viewBox="0 0 500 250"
   sodipodi:docname="bb731002.svg">
  <metadata
     id="metadata3460">
    <rdf:RDF>
      <cc:Work
         rdf:about="">
        <dc:format>image/svg+xml</dc:format>
        <dc:type
           rdf:resource="http://purl.org/dc/dcmitype/StillImage" />
        <dc:title></dc:title>
      </cc:Work>
    </rdf:RDF>
  </metadata>
  <defs
     id="defs3458" />
  <sodipodi:namedview
     pagecolor="#ffffff"
     bordercolor="#666666"
     borderopacity="1"
     objecttolerance="10"
     gridtolerance="10"
     guidetolerance="10"
     inkscape:pageopacity="0"
     inkscape:pageshadow="2"
     inkscape:window-width="1478"
     inkscape:window-height="870"
     id="namedview3456"
     showgrid="false"
     inkscape:zoom="1.4424754"
     inkscape:cx="104.86994"
     inkscape:cy="74.287911"
     inkscape:window-x="0"
     inkscape:window-y="0"
     inkscape:window-maximized="0"
     inkscape:current-layer="svg3454" />
  <g
     id="g3464"
     transform="translate(74.94647,11.768939)">
    <path
       style="fill:#fefefe"
       d="m 272.14953,171.375 c -0.61682,-0.61875 -1.1215,-2.22187 -1.1215,-3.5625 0,-2.94797 1.5607,-4.6875 4.20561,-4.6875 2.64491,0 4.20561,1.73953 4.20561,4.6875 0,2.94797 -1.5607,4.6875 -4.20561,4.6875 -1.07944,0 -2.46729,-0.50625 -3.08411,-1.125 z M 45.482866,145.625 c -0.34268,-0.34375 -0.623054,-1.82031 -0.623054,-3.28125 l 0,-2.65625 130.373828,0 130.37383,0 0,3.28125 0,3.28125 -129.75077,0 c -71.36294,0 -130.031156,-0.28125 -130.373834,-0.625 z m 50.778815,-7.76113 c 0,-0.54388 0.999906,-0.98887 2.222018,-0.98887 4.169201,0 4.374111,-1.70748 1.413225,-11.77587 l -2.766982,-9.40901 4.208158,-9.09506 c 4.54719,-9.827801 6.07261,-10.942751 8.50796,-6.21859 1.46261,2.83721 1.42331,2.97232 -2.87825,9.89545 -4.7621,7.66436 -4.73976,7.4258 -1.7247,18.41312 2.18624,7.96699 1.47627,9.47973 -4.63791,9.88195 -2.60308,0.17124 -4.343519,-0.11049 -4.343519,-0.70312 z m 27.117589,-2.68185 c 1.01966,-1.96239 2.6802,-8.07927 3.69007,-13.59307 1.00987,-5.5138 2.24004,-10.76368 2.7337,-11.66639 1.02941,-1.88239 8.62035,-9.26689 12.61271,-12.269691 3.47034,-2.610178 5.04579,-2.560828 6.29857,0.197297 1.45367,3.200424 -0.11479,5.537544 -5.97253,8.899474 -6.89811,3.95903 -8.72147,6.26439 -10.47994,13.25036 -0.84365,3.35156 -1.94006,7.6566 -2.43648,9.56675 -1.01923,3.92189 -5.0276,9.18325 -6.99625,9.18325 -1.01897,0 -0.89879,-0.77946 0.55015,-3.56798 z m 141.10671,3.29578 c 0,-1.71745 2.90598,-29.96258 3.34773,-32.53879 l 0.56238,-3.27974 1.45127,2.77851 c 1.31879,2.52486 1.30332,3.78404 -0.16946,13.79378 -0.89141,6.05841 -1.47799,12.82302 -1.30352,15.03248 0.28162,3.56665 0.0813,4.05081 -1.7856,4.31679 -1.15654,0.16476 -2.1028,0.1184 -2.1028,-0.10303 z m 16.45543,-3.71218 c -2.10215,-17.39424 -2.49665,-26.95273 -1.21374,-29.40888 1.32077,-2.52867 1.32955,-2.51694 1.89562,2.53579 0.3128,2.79192 0.8061,9.08403 1.09622,13.98247 0.29012,4.89844 0.74792,10.69922 1.01733,12.89062 0.38542,3.13505 0.19101,3.98438 -0.91203,3.98438 -0.95067,0 -1.55685,-1.28239 -1.8834,-3.98438 z m -50.10029,-13.77279 c 0,-0.48519 0.42056,-1.1429 0.93458,-1.46158 1.30952,-0.81186 1.10431,-9.09383 -0.41812,-16.875 -1.44328,-7.376569 -0.86826,-8.857659 2.78979,-7.185731 1.99001,0.909543 2.28646,1.482309 1.66087,3.20894 -0.41883,1.155985 -0.62465,5.972391 -0.45736,10.703121 0.31235,8.83246 -0.60783,12.49242 -3.14077,12.49242 -0.75295,0 -1.36899,-0.39697 -1.36899,-0.88217 z m 18.24532,-8.25845 c -0.63168,-6.01976 -0.88977,-6.54751 -5.29657,-10.83018 -3.46392,-3.36635 -4.48679,-4.962697 -4.05477,-6.328128 0.81387,-2.572274 1.43078,-2.342575 5.79667,2.158303 2.97595,3.067955 4.21491,5.355495 5.38671,9.945725 1.4413,5.64591 1.23136,11.3824 -0.41658,11.3824 -0.41329,0 -1.05025,-2.84766 -1.41546,-6.32812 z m 23.26959,1.31682 c -0.29304,-0.76605 -0.39631,-2.58861 -0.22946,-4.05013 0.24295,-2.12834 0.76844,-2.65732 2.63978,-2.65732 2.1028,0 2.33645,0.375 2.33645,3.75 0,3.17734 -0.32176,3.79583 -2.10698,4.05013 -1.22243,0.17412 -2.33067,-0.28461 -2.63979,-1.09268 z m -36.5513,-11.4226 c 0.70299,-4.345478 2.18161,-6.148281 3.09163,-3.769422 0.80843,2.113322 -0.62894,6.317422 -2.35676,6.893152 -1.03371,0.34446 -1.18908,-0.31599 -0.73487,-3.12373 z M 165.16315,89.429286 c -0.37244,-0.373607 -0.67717,-1.43638 -0.67717,-2.361717 0,-2.378092 7.84105,-4.670459 17.99078,-5.259686 5.76206,-0.334507 8.59178,-0.130027 9.57944,0.692229 2.43539,2.027507 1.57916,2.419582 -5.37396,2.460778 -4.61276,0.02733 -8.56572,0.705014 -12.38318,2.122937 -8.15008,3.027197 -8.39389,3.089791 -9.13591,2.345459 z m 10.06941,-0.368542 c -0.86307,-1.400842 4.25743,-3.134842 5.51929,-1.869044 0.72125,0.723502 0.61143,1.263025 -0.38583,1.895483 -1.83449,1.163426 -4.40854,1.150169 -5.13346,-0.02644 z m -69.14152,-5.791839 c -7.530116,-1.601539 -8.5035,-1.636532 -9.448817,-0.339688 -1.603972,2.20041 -4.057795,1.728961 -5.083257,-0.976638 -1.846769,-4.872552 1.014837,-5.299764 12.511494,-1.867854 4.18647,1.249724 8.9786,2.54887 10.64916,2.886989 3.14589,0.636726 4.28856,2.43952 1.40187,2.211724 -0.89953,-0.07099 -5.41323,-0.932524 -10.03045,-1.914533 z m 61.66597,-0.549289 c 0.51402,-0.510743 4.41494,-3.722222 8.66873,-7.136619 7.42628,-5.960886 9.51455,-6.884446 12.75015,-5.638945 2.44192,0.939978 1.67002,2.243448 -1.32853,2.243448 -2.09251,0 -4.02043,1.173406 -7.57552,4.610764 -2.62278,2.53592 -5.88072,4.876266 -7.23989,5.20077 -1.35916,0.324503 -3.31233,0.828326 -4.34036,1.119605 -1.23778,0.350707 -1.55347,0.215921 -0.93458,-0.399023 z m 46.23735,-6.088719 c -25.35535,-16.058 -28.40929,-18.176103 -30.01498,-20.817369 -2.05581,-3.381704 -2.22845,-5.995464 -0.44142,-6.683355 1.20256,-0.462909 42.39951,21.855389 45.36628,24.577019 1.14967,1.054673 1.11716,1.307441 -0.23512,1.827981 -1.0378,0.399484 -7.97827,-3.123927 -20.49303,-10.403519 -10.40807,-6.054173 -19.75764,-11.689408 -20.77681,-12.522746 -1.7234,-1.409149 -1.7676,-1.404193 -0.63169,0.07085 0.67174,0.872302 10.04397,6.728645 20.82715,13.014096 16.63913,9.698841 19.56305,11.728592 19.32328,13.413997 -0.52179,3.667859 -4.39248,2.926002 -12.92366,-2.476948 z m 55.62338,-21.407146 c 0.37834,-14.130876 1.0755,-26.430782 1.54926,-27.333126 1.27923,-2.436492 5.33799,-2.107069 6.33136,0.513877 1.7082,4.506946 4.55196,51.282998 3.11777,51.282998 -0.41855,0 -1.69569,-0.656735 -2.83809,-1.45941 -2.01377,-1.414909 -2.0802,-1.993791 -2.17854,-18.984375 C 275.54371,49.604984 275.2158,39.1875 274.87081,36.09375 274.52583,33 274.41824,40.840678 274.63173,53.517478 l 0.38818,23.048728 -3.04502,2.175023 -3.04502,2.175022 0.68787,-25.6925 z M 86.940757,77.837449 c -2.157049,-2.163791 -2.39359,-3.836327 -0.772534,-5.462449 1.61919,-1.62425 3.962895,-1.383698 5.743002,0.589445 2.053736,2.276443 1.921745,3.125242 -0.794229,5.107379 -2.203217,1.607924 -2.347766,1.599812 -4.176239,-0.234375 z"
       id="path3474"
       inkscape:connector-curvature="0" />
    <path
       style="fill:#008080"
       d="m 269.65646,103.52845 c -1.35652,-2.52678 -1.42303,-3.721534 -0.49339,-8.864163 0.59094,-3.269064 0.79636,-7.430731 0.45648,-9.24815 -0.55028,-2.94237 -0.2863,-3.575951 2.40945,-5.782995 l 3.02744,-2.478596 3.03532,1.969602 3.03532,1.969602 -0.28188,10.3125 c -0.35387,12.94588 -1.19491,15.04261 -6.03394,15.04261 -3.05636,0 -3.81886,-0.43199 -5.1548,-2.92041 z M 110.43847,99.817444 c -1.41606,-3.117638 -3.56244,-3.848728 -5.67333,-1.932441 -1.60169,1.454044 -1.80149,1.405706 -3.23019,-0.781575 -0.83759,-1.282322 -3.83869,-4.934965 -6.66911,-8.116988 -2.830417,-3.182023 -5.140015,-6.470552 -5.132438,-7.307843 0.0089,-0.98613 0.428677,-0.699731 1.191698,0.813099 1.446869,2.868685 4.347151,3.571511 5.907104,1.43147 1.676776,-2.300288 4.289486,-1.092141 6.457036,2.985809 1.01802,1.915266 3.42805,5.318361 5.35562,7.562431 1.92757,2.244075 3.50467,4.898222 3.50467,5.898114 0,2.42654 -0.41963,2.29114 -1.71106,-0.552076 z m 39.70884,0.683726 c 0.34282,-1.315048 -0.25941,-2.730092 -1.83423,-4.309836 l -2.34463,-2.351962 3.41764,-2.543937 c 1.8797,-1.399165 3.9023,-2.913319 4.49466,-3.364786 0.70499,-0.537315 1.73993,0.113056 2.99621,1.882856 l 1.91921,2.703708 -4.57963,4.970918 c -2.95734,3.210019 -4.39882,4.277349 -4.06923,3.013039 z m 85.53702,-5.08032 c -0.62594,-0.6279 -2.28,-1.191788 -3.67567,-1.253072 -2.12179,-0.09319 -2.67131,-0.678666 -3.35374,-3.573296 -0.55135,-2.338644 -1.63991,-3.889168 -3.35501,-4.778857 -1.39637,-0.724347 -2.99984,-1.874189 -3.56328,-2.555205 -0.81076,-0.979953 -0.43082,-1.237268 1.82158,-1.233691 2.71964,0.0043 3.34196,-0.581124 5.36142,-5.04372 1.15539,-2.553178 2.45172,-1.228688 6.85823,7.007204 3.70851,6.931337 4.30859,8.71266 3.5247,10.462912 -1.06708,2.382544 -1.96769,2.623425 -3.61823,0.967725 z m -76.57218,-5.301557 c -2.84665,-3.866103 -2.6761,-4.558952 1.40187,-5.694998 4.64634,-1.294388 6.91105,-1.281885 4.67289,0.0258 -3.58065,2.092058 -0.82002,7.218317 3.22618,5.990742 1.49701,-0.454176 1.86451,-0.350169 1.21308,0.343308 -0.51402,0.547186 -2.61683,1.264014 -4.6729,1.592952 -3.40016,0.543968 -3.92853,0.339731 -5.84112,-2.257802 z"
       id="path3470"
       inkscape:connector-curvature="0" />
    <path
       style="fill:#fe0000"
       d="m 162.10716,104.01813 c -2.15799,-2.25948 -2.45921,-3.02385 -1.44055,-3.65538 1.54413,-0.957309 1.04214,-2.517516 -2.94754,-9.161123 -2.16802,-3.610178 -3.89619,-5.27677 -6.59502,-6.359998 -3.93656,-1.580021 -6.23179,-1.233622 -10.14683,1.531367 -2.67252,1.887461 -3.59501,2.156804 -3.59237,1.048879 9.1e-4,-0.386719 1.90342,-1.908353 4.22778,-3.381412 3.40985,-2.160978 4.85629,-2.559695 7.48875,-2.0643 4.34339,0.817371 9.32089,5.950735 12.68336,13.080534 1.48487,3.1485 2.7001,5.197213 2.7005,4.552678 4e-4,-0.644531 0.4213,-1.171875 0.93532,-1.171875 0.51402,0 0.93458,1.89844 0.93458,4.21875 0,2.32031 -0.34188,4.21875 -0.75973,4.21875 -0.41785,0 -1.98756,-1.28559 -3.48825,-2.85687 z"
       id="path3468"
       inkscape:connector-curvature="0" />
    <path
       style="fill:#000000"
       d="M 48.13084,206.47106 54.672896,206.12719 65.582988,189.96038 76.49308,173.79359 66.200353,162.13117 C 53.031033,147.20935 53.006194,147.1875 49.218932,147.1875 c -3.834387,0 -5.535065,-1.76912 -5.127585,-5.33393 l 0.301176,-2.63482 25.205252,-0.25008 c 21.125316,-0.2096 25.330822,-0.47516 25.981018,-1.64062 0.426673,-0.76481 1.781448,-1.39055 3.010617,-1.39055 1.229168,0 2.43892,-0.33121 2.68833,-0.73602 0.2494,-0.40481 -0.79058,-4.93351 -2.311087,-10.06379 l -2.764542,-9.32778 3.382504,-7.42284 c 3.973855,-8.720573 4.093695,-8.26336 -4.832617,-18.43844 -3.281826,-3.740942 -5.966953,-7.349968 -5.966953,-8.020058 0,-0.670089 -1.051402,-2.273032 -2.336448,-3.562095 -4.88025,-4.895499 -2.133047,-11.803977 4.69393,-11.803977 1.58189,0 3.407032,-0.527344 4.055864,-1.171875 0.944906,-0.938639 1.364963,-0.842483 2.110533,0.483124 0.511953,0.910248 1.821981,2.487825 2.911166,3.505725 1.08918,1.017899 1.65974,2.171587 1.26791,2.563751 -0.39184,0.392164 -1.70789,-0.447131 -2.924553,-1.8651 -2.593916,-3.023102 -3.723626,-3.368196 -2.301766,-0.703125 0.694486,1.301709 0.704542,2.429446 0.0329,3.688368 -0.532122,0.997352 -0.967477,2.197726 -0.967477,2.667497 0,0.802659 12.721606,4.93457 19.381796,6.295107 3.39885,0.694311 4.66187,2.042719 3.24485,3.464179 -0.64204,0.644035 -3.13168,0.453746 -7.69992,-0.588527 -3.7131,-0.847167 -6.95635,-1.334416 -7.20721,-1.082775 -0.65258,0.654632 3.29506,6.975515 6.93598,11.105726 1.70583,1.935084 3.10151,4.273031 3.10151,5.195445 0,0.92242 -2.1455,5.17434 -4.76778,9.44873 -5.20148,8.47851 -5.15986,8.1067 -2.13982,19.11179 1.43833,5.24129 1.53395,6.66608 0.55311,8.24156 -1.16025,1.86367 -1.02071,1.89888 6.46771,1.63195 l 7.65354,-0.2728 1.72515,-3.34056 c 0.94884,-1.83731 2.56394,-7.92022 3.58912,-13.51758 1.02518,-5.59738 2.47472,-11.1121 3.2212,-12.25494 1.56062,-2.38924 18.18738,-17.680744 22.71646,-20.892149 4.85807,-3.444677 3.50295,-1.591034 -1.56511,2.140889 l -4.6025,3.389106 2.26605,2.273128 c 1.24633,1.250222 2.27428,3.03059 2.28434,3.956376 0.013,1.19895 0.97643,0.53689 3.34854,-2.301145 1.83163,-2.191406 4.03134,-3.951066 4.88825,-3.910359 1.28515,0.06103 1.3125,0.168178 0.15613,0.611709 -0.77103,0.295734 -3.50467,2.709956 -6.07476,5.364919 -2.5701,2.654976 -7.01388,6.163206 -9.87508,7.796076 -6.90818,3.94245 -7.91952,5.23183 -9.72877,12.40328 -0.84555,3.35156 -1.94352,7.6566 -2.43994,9.56675 -0.49641,1.91014 -1.9803,4.7578 -3.29751,6.32812 l -2.39496,2.85513 69.17471,0 69.17471,0 0.53421,-4.92188 c 3.95035,-36.396483 4.38348,-43.011676 4.759,-72.685619 0.33732,-26.655347 0.62154,-31.73613 1.88341,-33.667998 1.96442,-3.007455 6.04961,-2.656871 7.57992,0.650497 1.80555,3.90221 3.28628,24.427595 3.58455,49.6875 0.24913,21.098691 1.47694,45.08078 2.91429,56.92292 l 0.47994,3.95416 10.46127,0.29856 c 5.7537,0.16422 -48.33874,0.38875 -120.20542,0.49896 l -130.666682,0.2004 0.292859,3.04687 0.292858,3.04688 130.373825,0.47367 130.37383,0.47366 -104.90654,0.22947 c -84.72269,0.1853 -104.906536,0.46129 -104.906536,1.43447 0,0.66277 -8.558205,13.84636 -19.018233,29.29688 l -19.018233,28.09185 123.924772,0.4739 123.92477,0.4739 -132.24299,0.0429 c -72.73364,0.0236 -129.299057,-0.11181 -125.700927,-0.30094 z m 44.704874,-57.64294 c 0.414821,-1.5217 -0.872335,-1.64062 -17.757607,-1.64062 l -18.204844,0 2.638134,3.1535 c 1.450974,1.73442 6.19502,7.1796 10.542322,12.10039 l 7.904189,8.9469 7.215283,-10.45977 c 3.968407,-5.75287 7.416542,-11.19805 7.662523,-12.1004 z m 13.130266,-12.17433 c 0.76274,-1.22028 0.58188,-3.21404 -0.72287,-7.96875 -3.02137,-11.01033 -3.06309,-10.63736 2.13864,-19.11629 2.62228,-4.27439 4.76778,-8.50187 4.76778,-9.39441 0,-0.892546 -1.5771,-3.458859 -3.50467,-5.702934 -1.92757,-2.24407 -4.3376,-5.647165 -5.35562,-7.562431 -2.16755,-4.07795 -4.78026,-5.286097 -6.457036,-2.985809 -1.559953,2.140041 -4.460235,1.437215 -5.907104,-1.43147 -0.763021,-1.51283 -1.182773,-1.799229 -1.191698,-0.813099 -0.0076,0.837291 2.302021,4.12582 5.132438,7.307843 2.83042,3.182023 5.83152,6.834666 6.66911,8.116988 1.38298,2.117288 1.66824,2.199544 3.10495,0.895284 0.87012,-0.789918 2.05078,-1.436212 2.62369,-1.436212 1.17754,0 3.971,3.66172 3.91394,5.13048 -0.0206,0.5298 -0.66485,-0.19689 -1.43171,-1.61485 -2.36786,-4.37828 -3.92516,-3.171202 -8.40772,6.51693 l -4.208158,9.09506 2.766982,9.40901 c 2.960886,10.06839 2.755976,11.77587 -1.413225,11.77587 -1.222112,0 -2.222018,0.44499 -2.222018,0.98887 0,1.69966 8.552109,0.63325 9.704299,-1.21008 z m 20.56188,-0.75892 c 1.31721,-1.57032 2.8011,-4.41798 3.29751,-6.32812 0.49642,-1.91015 1.59283,-6.21519 2.43648,-9.56675 1.7621,-7.00037 3.57894,-9.28968 10.54574,-13.28813 2.74921,-1.57785 5.22084,-3.44984 5.49248,-4.15996 0.27166,-0.71013 0.85355,-1.06818 1.29311,-0.79567 0.43956,0.2725 0.34268,-0.81817 -0.21528,-2.423728 -1.29769,-3.734175 -2.95593,-4.334934 -6.16082,-2.231999 -3.43419,2.253412 -12.31527,10.721487 -13.42412,12.799877 -0.48812,0.9149 -1.71375,6.17476 -2.72362,11.68856 -1.00987,5.5138 -2.67041,11.63068 -3.69007,13.59307 -2.34959,4.52186 -0.41408,4.96006 3.14859,0.71285 z m 142.04657,-0.94973 c -0.34342,-2.15433 0.11255,-8.78345 1.05109,-15.2817 1.50421,-10.41478 1.52403,-11.73259 0.21409,-14.24051 l -1.44352,-2.76366 -0.56238,3.27974 c -0.43172,2.5177 -3.34773,30.80355 -3.34773,32.47358 0,0.18557 1.05637,0.33741 2.34749,0.33741 2.22096,0 2.3148,-0.20509 1.74096,-3.80486 z m 11.42037,-0.17952 c -0.27147,-2.1914 -0.78998,-7.35937 -1.15226,-11.48437 -0.36228,-4.125 -0.83762,-6.65625 -1.05629,-5.625 -0.59325,2.79774 -2.08532,4.01628 -2.08532,1.70304 0,-1.32262 -0.73139,-2.09346 -2.26544,-2.38763 -2.12127,-0.40677 -2.32944,-0.0658 -3.27103,5.35813 -1.12262,6.46674 -1.25914,11.15684 -0.41653,14.31084 0.49691,1.86 1.16509,2.10937 5.65197,2.10937 l 5.08846,0 -0.49356,-3.98437 z m 3.74204,0 c -0.26941,-2.1914 -0.72721,-7.99218 -1.01733,-12.89062 -0.29012,-4.89844 -0.78342,-11.19055 -1.09622,-13.98248 -0.56607,-5.05272 -0.57485,-5.06445 -1.89562,-2.53578 -1.10588,2.11723 -1.15541,4.4465 -0.29736,13.98247 1.64244,18.25309 1.84489,19.41079 3.3945,19.41079 1.10304,0 1.29745,-0.84933 0.91203,-3.98438 z m -6.63404,-23.67187 c 0,-3.375 -0.23365,-3.75 -2.33645,-3.75 -1.87134,0 -2.39683,0.52898 -2.63978,2.65732 -0.44303,3.88097 0.453,5.48699 2.86925,5.14281 1.78522,-0.2543 2.10698,-0.87279 2.10698,-4.05013 z m 2.37795,-7.00994 c 0.59541,-1.30078 1.20941,-7.005685 1.36445,-12.67756 l 0.28188,-10.3125 -3.03532,-1.969602 -3.03532,-1.969602 -3.02744,2.478596 c -2.69575,2.207044 -2.95973,2.840625 -2.40945,5.782995 0.33988,1.817419 0.13446,5.979086 -0.45648,9.24815 -0.92964,5.142629 -0.86313,6.337383 0.49339,8.864163 1.33594,2.48842 2.09844,2.92041 5.1548,2.92041 2.92555,0 3.78655,-0.43609 4.66949,-2.36505 z M 117.75701,84.449489 c 0,-0.474655 -1.36683,-1.139654 -3.03739,-1.477775 -1.67056,-0.338119 -6.46269,-1.637265 -10.64916,-2.886989 -11.496657,-3.43191 -14.358263,-3.004698 -12.511494,1.867854 1.025462,2.705599 3.479285,3.177048 5.083257,0.976638 0.945317,-1.296844 1.918701,-1.261851 9.448817,0.339688 10.08963,2.145905 11.66597,2.305429 11.66597,1.180584 z M 274.63173,53.517478 C 274.41824,40.840678 274.52583,33 274.87081,36.09375 c 0.34499,3.09375 0.6729,13.511234 0.72869,23.149965 0.0983,16.990584 0.16477,17.569466 2.17854,18.984375 1.1424,0.802675 2.41954,1.45941 2.83809,1.45941 1.43419,0 -1.40957,-46.776052 -3.11777,-51.282998 -0.99337,-2.620946 -5.05213,-2.950369 -6.33136,-0.513877 -0.47376,0.902344 -1.17092,13.20225 -1.54926,27.333126 l -0.68787,25.6925 3.04502,-2.175022 3.04502,-2.175023 -0.38818,-23.048728 z M 93.428573,75.54257 C 93.478428,74.076414 90.448627,71.25 88.827113,71.25 c -1.841799,0 -3.780385,1.77878 -3.780385,3.46875 0,0.670313 0.852313,2.073727 1.894029,3.118699 1.828473,1.834187 1.973022,1.842299 4.176239,0.234375 1.255215,-0.916066 2.295424,-2.054231 2.311577,-2.529254 z M 270.61373,172.2914 c -3.33033,-4.76958 -0.7061,-11.0414 4.61991,-11.0414 2.21121,0 3.60349,0.62793 4.61991,2.0836 3.33033,4.76958 0.7061,11.0414 -4.61991,11.0414 -2.21121,0 -3.60349,-0.62793 -4.61991,-2.0836 z m 7.70402,-0.9164 c 0.61682,-0.61875 1.1215,-2.22187 1.1215,-3.5625 0,-2.94797 -1.5607,-4.6875 -4.20561,-4.6875 -2.64491,0 -4.20561,1.73953 -4.20561,4.6875 0,2.94797 1.5607,4.6875 4.20561,4.6875 1.07944,0 2.46729,-0.50625 3.08411,-1.125 z M 230.3235,121.79332 c -0.34536,-0.56056 -0.1599,-1.48869 0.41213,-2.0625 0.57204,-0.57383 1.03241,-3.38473 1.02306,-6.24644 -0.0137,-4.17847 -0.55141,-5.99407 -2.73066,-9.21943 -2.40838,-3.56448 -2.78152,-3.80178 -3.317,-2.10937 -0.508,1.60554 -2.34655,2.78019 -2.34655,1.4992 0,-1.80302 2.08938,-5.21728 3.19274,-5.21728 0.75342,0 1.6421,-0.4419 1.97487,-0.982003 0.80717,-1.310119 -1.37422,-10.267997 -2.50043,-10.267997 -0.48659,0 -2.65259,-1.682258 -4.81333,-3.738351 C 219.05759,81.393057 210.14018,75.138395 201.40187,69.5499 185.45238,59.349584 180.91076,55.167652 181.5028,51.226795 c 0.69039,-4.595586 2.56818,-3.958588 24.61265,8.349316 11.80005,6.588221 22.65165,13.070185 24.11466,14.404362 1.46301,1.334177 4.34491,5.771978 6.40423,9.861778 2.13331,4.23674 5.9011,9.704318 8.7574,12.708221 4.35254,4.577428 5.21473,6.130198 6.54255,11.782758 1.18762,5.05568 1.29772,7.10366 0.49272,9.16485 -1.64583,4.21412 -3.24143,2.43451 -4.33072,-4.83016 -0.79794,-5.32155 -1.56764,-7.30632 -3.69877,-9.53769 -2.9263,-3.06395 -4.21061,-3.533033 -4.21061,-1.53791 0,0.7039 -0.84112,2.35248 -1.86916,3.6635 -1.38698,1.76877 -1.86916,3.80323 -1.86916,7.88657 0,3.46325 -0.53924,6.2752 -1.45486,7.58651 -1.5627,2.23803 -3.65356,2.71457 -4.67023,1.06442 z m 4.29357,-1.86387 c 0.61748,-1.15736 0.91476,-5.4301 0.73381,-10.54687 -0.16729,-4.73073 0.0385,-9.547136 0.45736,-10.703121 0.62559,-1.726631 0.32914,-2.299396 -1.66087,-3.20894 -3.65805,-1.671928 -4.23307,-0.190838 -2.78979,7.185731 1.52243,7.78117 1.72764,16.06314 0.41812,16.875 -1.39946,0.86762 -1.12586,2.34375 0.43441,2.34375 0.75294,0 1.83607,-0.87549 2.40696,-1.94555 z m 17.22976,-3.57748 c 0.3279,-1.49762 -0.0875,-5.3781 -0.92835,-8.67187 -1.1718,-4.59023 -2.41076,-6.87777 -5.38671,-9.945725 -4.36589,-4.500878 -4.9828,-4.730577 -5.79667,-2.158303 -0.43202,1.365431 0.59085,2.961778 4.05477,6.328128 4.4068,4.28267 4.66489,4.81042 5.29657,10.83018 0.7028,6.69772 1.77758,8.10626 2.76039,3.61759 z m -13.15348,-13.42825 c 1.00278,-2.84551 0.0376,-6.213151 -1.37475,-4.796448 -0.51583,0.517444 -1.19707,2.543048 -1.51387,4.501328 -0.45421,2.80774 -0.29884,3.46819 0.73487,3.12373 0.72098,-0.24023 1.69016,-1.51311 2.15375,-2.82861 z m 0.59511,-8.303945 c 0.86312,-1.617787 0.38122,-3.225083 -2.88109,-9.60938 -2.15467,-4.216654 -5.02451,-8.763007 -6.37743,-10.103006 -3.42234,-3.38966 -44.90352,-26.388669 -46.49198,-25.777216 -1.78305,0.686357 -1.61556,3.30106 0.42603,6.651077 1.65258,2.711683 32.05882,23.045818 37.62717,25.163111 3.08671,1.17369 5.51164,0.262986 5.51164,-2.069954 0,-1.366767 -4.78453,-4.598313 -19.55692,-13.209046 -10.75631,-6.269783 -20.10655,-12.113307 -20.77829,-12.985608 -1.13591,-1.475038 -1.09171,-1.479994 0.63169,-0.07085 4.61091,3.770139 39.83069,23.480242 41.09024,22.995399 1.15497,-0.444589 1.20961,-0.184542 0.3235,1.539755 -0.58639,1.141078 -1.36826,2.7075 -1.73748,3.480937 -0.38025,0.79652 -1.90532,1.40429 -3.51733,1.40173 -2.2524,-0.0036 -2.63234,0.253737 -1.82158,1.23369 0.56344,0.681016 2.16691,1.830858 3.56328,2.555205 1.7151,0.889689 2.80366,2.440214 3.35501,4.778857 0.68243,2.89463 1.23195,3.480118 3.35374,3.573296 1.39567,0.06131 3.04973,0.625172 3.67567,1.253072 1.60414,1.609153 2.41431,1.429088 3.60413,-0.801075 z m -65.04841,5.265206 c -0.82718,-1.266393 -1.2421,-2.727562 -0.92203,-3.247059 0.32006,-0.519497 -0.25171,-1.780781 -1.27062,-2.802872 -1.54265,-1.547462 -2.3681,-1.710013 -4.93446,-0.971692 -1.69505,0.487652 -3.92581,0.841463 -4.95724,0.786243 -1.03143,-0.05522 0.0172,-0.514371 2.33028,-1.020336 2.31308,-0.505966 4.62617,-1.351953 5.14019,-1.879972 0.63477,-0.652063 0.24563,-0.751014 -1.21308,-0.308458 -4.0462,1.227575 -6.80683,-3.898684 -3.22618,-5.990742 1.50115,-0.87707 1.48196,-0.954538 -0.23364,-0.942935 -1.02804,0.0069 -3.5514,0.604819 -5.60748,1.32859 -3.21337,1.131163 -3.49093,1.130785 -1.97661,-0.0027 0.96894,-0.725251 3.51258,-1.58202 5.65256,-1.903931 2.97197,-0.447068 5.9309,-2.22737 12.52922,-7.538461 8.76233,-7.052935 11.36054,-8.065368 14.60011,-5.68914 2.24824,1.649127 1.08956,3.423502 -2.23557,3.423502 -1.74976,0 -3.99632,1.240699 -6.72054,3.71155 l -4.09216,3.711551 7.09814,0.03845 c 5.88825,0.03189 7.38736,0.359026 8.7949,1.919198 2.34517,2.599486 1.21723,3.275502 -5.4652,3.275502 l -5.75494,0 0.29297,2.940658 c 0.24217,2.430722 -0.24402,3.31703 -2.80374,5.11108 -1.70319,1.193737 -3.38807,2.598478 -3.74419,3.12165 -0.80515,1.18289 0.89906,3.357863 2.63107,3.357863 0.70809,0 1.28744,0.42187 1.28744,0.9375 0,1.86329 -3.73022,0.88394 -5.1992,-1.36502 z m 0.059,-12.801154 c 3.81746,-1.417923 7.77042,-2.095608 12.38318,-2.122937 6.95312,-0.04119 7.80935,-0.433271 5.37396,-2.460778 -0.98766,-0.822256 -3.81738,-1.026736 -9.57944,-0.692229 -10.14973,0.589227 -17.99078,2.881594 -17.99078,5.259686 0,0.925337 0.30473,1.98811 0.67717,2.361717 0.74202,0.744332 0.98583,0.681738 9.13591,-2.345459 z m 6.06696,2.003356 c 0.99726,-0.632458 1.10708,-1.171981 0.38583,-1.895483 -1.26186,-1.265798 -6.38236,0.468202 -5.51929,1.869044 0.72492,1.176608 3.29897,1.189865 5.13346,0.02644 z m -7.33407,-7.088149 c 1.35917,-0.324504 4.61711,-2.66485 7.23989,-5.20077 3.55509,-3.437358 5.48301,-4.610764 7.57552,-4.610764 2.99855,0 3.77045,-1.30347 1.32853,-2.243448 -3.2356,-1.245501 -5.32387,-0.321941 -12.75015,5.638945 -9.6115,7.714892 -10.12188,8.212172 -7.73415,7.535642 1.02803,-0.291279 2.9812,-0.795102 4.34036,-1.119605 z m 4.48728,-50.654261 c -1.05906,-1.28007 -0.87711,-1.429901 1.42305,-1.171875 1.50523,0.168853 2.81326,-0.207466 3.04713,-0.87666 0.26241,-0.750873 -0.12671,-0.966003 -1.0821,-0.598243 -3.57275,1.375277 -5.7777,-4.553465 -2.80317,-7.53728 3.21644,-3.226492 6.94259,-0.495027 6.94259,5.089285 0,5.607098 -4.55372,8.689154 -7.5275,5.094772 z M 182.24299,24.375 c 0,-0.970388 -0.42354,-2.026918 -0.94118,-2.347842 -1.20112,-0.744655 -2.2382,1.888665 -1.50186,3.813513 0.71862,1.878534 2.44304,0.843988 2.44304,-1.465671 z m 6.14152,6.964285 c -3.10372,-3.11342 -1.09807,-11.651785 2.73698,-11.651785 2.34879,0 4.20561,2.897416 4.20561,6.5625 0,3.665084 -1.85682,6.5625 -4.20561,6.5625 -0.6976,0 -1.92924,-0.662947 -2.73698,-1.473215 z m 3.96896,-5.668867 c -0.16357,-2.001543 -0.71796,-3.639168 -1.23198,-3.639168 -1.09176,0 -1.79234,5.595759 -0.96979,7.746013 0.99994,2.613955 2.5194,-0.220204 2.20177,-4.106845 z m 5.20591,-1.698415 c -0.93053,-2.432504 0.37372,-4.442986 2.67008,-4.115881 1.54461,0.220021 2.10699,0.925695 2.10699,2.643878 0,1.718182 -0.56238,2.423857 -2.10699,2.643878 -1.26381,0.180024 -2.33232,-0.288936 -2.67008,-1.171875 z M 200.93458,22.5 c 0,-0.515625 -0.42056,-0.9375 -0.93458,-0.9375 -0.51402,0 -0.93458,0.421875 -0.93458,0.9375 0,0.515625 0.42056,0.9375 0.93458,0.9375 0.51402,0 0.93458,-0.421875 0.93458,-0.9375 z"
       id="path3466"
       inkscape:connector-curvature="0" />
  </g>
</svg>
