<?xml version="1.0" encoding="UTF-8" standalone="no"?>
<!-- Created with Inkscape (http://www.inkscape.org/) -->

<svg
   xmlns:dc="http://purl.org/dc/elements/1.1/"
   xmlns:cc="http://creativecommons.org/ns#"
   xmlns:rdf="http://www.w3.org/1999/02/22-rdf-syntax-ns#"
   xmlns:svg="http://www.w3.org/2000/svg"
   xmlns="http://www.w3.org/2000/svg"
   xmlns:sodipodi="http://sodipodi.sourceforge.net/DTD/sodipodi-0.dtd"
   xmlns:inkscape="http://www.inkscape.org/namespaces/inkscape"
   id="svg3476"
   version="1.1"
   inkscape:version="0.91 r13725"
   width="600"
   height="300"
   viewBox="0 0 600 300"
   sodipodi:docname="bb731100.svg">
  <metadata
     id="metadata3482">
    <rdf:RDF>
      <cc:Work
         rdf:about="">
        <dc:format>image/svg+xml</dc:format>
        <dc:type
           rdf:resource="http://purl.org/dc/dcmitype/StillImage" />
        <dc:title></dc:title>
      </cc:Work>
    </rdf:RDF>
  </metadata>
  <defs
     id="defs3480" />
  <sodipodi:namedview
     pagecolor="#b3b3b3"
     bordercolor="#666666"
     borderopacity="1"
     objecttolerance="10"
     gridtolerance="10"
     guidetolerance="10"
     inkscape:pageopacity="0"
     inkscape:pageshadow="2"
     inkscape:window-width="1624"
     inkscape:window-height="820"
     id="namedview3478"
     showgrid="false"
     inkscape:zoom="1.1296452"
     inkscape:cx="264.23625"
     inkscape:cy="113.53244"
     inkscape:window-x="0"
     inkscape:window-y="0"
     inkscape:window-maximized="0"
     inkscape:current-layer="svg3476" />
  <g
     id="g3486"
     transform="translate(31.021219,49.707048)">
    <path
       style="fill:#fefefe"
       d="m 10.903428,121.25 c -0.34268,-0.34375 -0.623054,-1.82031 -0.623054,-3.28125 l 0,-2.65625 258.878516,0 258.87852,0 0,3.28125 0,3.28125 -258.25546,0 c -142.04051,0 -258.535844,-0.28125 -258.878522,-0.625 z m 51.747463,-9.45312 2.867293,-2.57813 -3.351769,-9.275625 -3.351769,-9.275623 2.493833,-7.599376 c 1.371609,-4.179656 2.670546,-7.912644 2.886529,-8.295527 0.215983,-0.382883 2.052368,0.153196 4.080855,1.191287 l 3.688159,1.887439 -3.710288,7.402457 -3.710289,7.402459 2.055141,9.082589 2.05514,9.08259 -2.187406,1.77679 c -1.203074,0.97723 -3.198854,1.77679 -4.435065,1.77679 -2.223608,0 -2.216978,-0.0276 0.619636,-2.57812 z m 56.975289,1.71255 c 0,-0.47607 1.0514,-2.119 2.33644,-3.65096 2.11042,-2.51592 2.33645,-3.59514 2.33645,-11.155601 0,-8.015468 0.17887,-8.738855 4.22043,-17.068635 3.21888,-6.63422 4.56772,-8.564742 5.68391,-8.135082 0.80492,0.309841 1.95479,0.569808 2.55528,0.577704 0.60048,0.0079 1.65731,0.373887 2.3485,0.813314 0.97072,0.617133 0.0325,2.644231 -4.12245,8.907276 -5.52549,8.328869 -6.77424,12.19061 -6.89164,21.312344 -0.0512,3.98283 -0.35268,4.52569 -3.77399,6.79688 -4.05277,2.69038 -4.69293,2.90901 -4.69293,1.60276 z m 177.5701,-0.0154 c 0,-0.54672 0.57934,-0.99406 1.28744,-0.99406 2.8816,0 3.44789,-2.31486 2.36046,-9.64903 -0.89381,-6.028304 -0.83696,-7.388083 0.38187,-9.13363 1.39586,-1.999109 1.44691,-1.947677 2.0228,2.037766 0.32494,2.248753 0.67315,7.252704 0.77379,11.119894 l 0.18299,7.03125 -3.50468,0.29097 c -2.02877,0.16843 -3.50467,-0.12767 -3.50467,-0.70312 z m 50.46729,-0.0566 c 0,-0.51562 0.57935,-0.9375 1.28744,-0.9375 2.77237,0 3.29319,-2.19493 2.2964,-9.67784 -0.73896,-5.547394 -0.69263,-7.958166 0.19422,-10.105896 0.64058,-1.551319 1.49547,-2.480702 1.89976,-2.065297 1.01639,1.044297 2.18092,18.319243 1.43571,21.297623 -0.50762,2.02887 -1.14008,2.42641 -3.8603,2.42641 -1.78928,0 -3.25323,-0.42187 -3.25323,-0.9375 z m 87.66356,-0.1875 c 1.96647,-1.97261 1.22932,-5.25962 -3.134,-13.974647 l -4.2555,-8.499674 2.51654,-7.653464 c 3.25234,-9.891216 6.60481,-16.559715 8.3251,-16.559715 0.75052,0 2.04525,1.042085 2.87719,2.315743 1.45622,2.229427 1.33534,2.680747 -3.24313,12.108186 l -4.75572,9.792441 2.32096,5.001192 c 1.27652,2.750654 2.32506,5.645598 2.33008,6.433208 0.005,0.78762 0.64558,2.34354 1.42347,3.4576 1.27098,1.82024 1.25343,2.36403 -0.17309,5.36484 -1.04373,2.19556 -2.23238,3.33929 -3.47042,3.33929 -1.46454,0 -1.63375,-0.25 -0.76148,-1.125 z m 71.21496,0.1875 c 0,-0.51562 0.78962,-0.9375 1.75472,-0.9375 3.55524,0 4.15911,-2.24739 3.5971,-13.387266 -0.29188,-5.785443 -1.04638,-12.427431 -1.67667,-14.759978 -1.02568,-3.795816 -0.93535,-4.718613 0.86046,-8.791048 4.50948,-10.226262 1.42897,-4.609153 -7.40403,13.500792 -7.89395,16.18468 -9.89691,19.56234 -12.68738,21.3952 -1.82248,1.19705 -3.52837,1.96099 -3.79089,1.69767 -0.26251,-0.26334 0.78731,-2.29743 2.33294,-4.52021 1.54562,-2.22277 5.85176,-12.267973 9.56921,-22.32266 3.71744,-10.054688 7.17501,-18.808594 7.68348,-19.453125 1.35422,-1.716572 4.23088,-1.429238 5.27449,0.52684 1.35037,2.531084 3.67552,13.212788 4.38216,20.131646 0.34198,3.348279 0.31669,10.985889 -0.0563,16.972469 l -0.67793,10.88467 -4.5807,0 c -2.51939,0 -4.5807,-0.42187 -4.5807,-0.9375 z m -268.62387,-4.45312 c 0.40426,-0.90235 0.97495,-4.3497 1.26821,-7.66079 0.31615,-3.569471 1.00877,-6.177324 1.70143,-6.406252 1.47477,-0.487397 1.6435,11.190092 0.20077,13.894292 -1.2553,2.35288 -4.21948,2.51439 -3.17041,0.17275 z m 122.82946,-6.7561 c 0,-2.90578 -3.12596,-8.529216 -6.53688,-11.75953 -4.08755,-3.871095 -5.07457,-5.891133 -3.69391,-7.559927 1.68161,-2.032544 4.41526,-1.625034 5.1187,0.763052 0.34174,1.160156 2.29333,4.927945 4.33688,8.372865 2.47391,4.170397 3.61464,7.122472 3.41361,8.83395 -0.36208,3.0824 -2.6384,4.24678 -2.6384,1.34959 z m 30.23896,-2.15015 C 389.61451,97.886719 383.51558,90.069763 377.43346,82.707113 364.91557,67.553719 362.86467,64.30345 364.54172,62.276405 c 2.69762,-3.260586 4.92235,-1.564737 12.09144,9.216964 3.85383,5.795834 9.06066,13.269766 11.57071,16.608736 2.51005,3.338971 4.89457,7.135848 5.29894,8.437501 2.60365,8.381244 1.49355,9.942394 -2.51617,3.538524 z m -67.2546,0.78042 c -0.62942,-1.645381 -16.36318,-12.055038 -21.22948,-14.045704 -2.85651,-1.168515 -3.51188,-1.885919 -3.27103,-3.580619 0.41299,-2.905929 2.94152,-3.148644 5.58195,-0.535817 1.20773,1.195111 6.50663,4.908758 11.77532,8.252549 8.35996,5.305666 9.57944,6.407988 9.57944,8.659085 0,2.712176 -1.56897,3.517526 -2.4362,1.250506 z m -61.12043,-5.243338 c -1.1725,-2.1977 -16.18101,-10.004633 -21.2742,-11.06615 -2.50548,-0.522188 -3.48693,-1.213916 -3.48693,-2.457601 0,-4.184666 2.58364,-3.621969 14.64352,3.189258 12.77663,7.21604 14.20233,8.361551 13.31,10.694203 -0.78602,2.054747 -1.97575,1.920694 -3.19239,-0.35971 z m -155.51117,-1.76984 c -2.19489,-2.298135 -2.43296,-3.020968 -1.54384,-4.6875 0.57817,-1.083705 1.2004,-1.970372 1.38271,-1.970372 0.36666,0 4.27565,8.133159 4.27565,8.896031 0,1.196344 -1.73644,0.251775 -4.11452,-2.238159 z m 301.73936,1.076503 c 0.34569,-0.902344 1.22592,-5.015625 1.95606,-9.140625 2.49771,-14.110921 3.72452,-16.40625 8.76889,-16.40625 2.7054,0 2.43057,2.624182 -0.41083,3.922859 -2.48486,1.135716 -3.064,2.661135 -5.57981,14.696858 -1.65845,7.934052 -1.94811,8.567783 -3.91615,8.567783 -0.9942,0 -1.2501,-0.513159 -0.81816,-1.640625 z M 236.84842,93.442921 c -1.44574,-3.779331 3.75092,-8.635274 6.65439,-6.218084 2.45944,2.047535 1.65776,5.299071 -1.58618,6.433452 -3.79193,1.326005 -4.48992,1.296342 -5.06821,-0.215368 z m 56.60954,-0.995311 c 0,-1.23194 0.77017,-3.193976 1.71148,-4.360082 1.33501,-1.65382 2.2689,-1.979849 4.24562,-1.482172 3.28685,0.827523 3.91581,2.653626 1.95036,5.662655 -1.18374,1.812251 -2.37436,2.419489 -4.74392,2.419489 -2.71227,0 -3.16354,-0.319509 -3.16354,-2.23989 z m 50.01824,-0.806985 c 0.60642,-2.091913 3.73404,-5.390625 5.11105,-5.390625 1.61376,0 2.9921,2.913126 2.43391,5.144076 -0.50814,2.030893 -1.11145,2.355924 -4.37295,2.355924 -3.48175,0 -3.73472,-0.168229 -3.17201,-2.109375 z M 92.05608,85.61032 c -5.654206,-2.33944 -12.513724,-5.156462 -15.243375,-6.260048 -5.067114,-2.048615 -7.263408,-4.388036 -6.35325,-6.767279 1.011729,-2.644763 5.781299,-1.20935 19.177803,5.771603 7.498579,3.907528 13.962982,7.422921 14.365342,7.811984 0.79429,0.768025 -0.085,3.876376 -1.0652,3.765343 -0.33052,-0.03744 -5.227114,-1.982162 -10.88132,-4.321603 z m 386.91591,-0.796405 c -2.05607,-1.273287 -10.34747,-4.514904 -18.42531,-7.203593 -13.65975,-4.546609 -14.65103,-5.032245 -14.17287,-6.943354 0.28277,-1.130156 0.0331,-2.95646 -0.55484,-4.058454 -1.00119,-1.876569 -0.72472,-1.831706 4.35978,0.707491 2.98582,1.491114 10.89604,5.168931 17.57829,8.172927 6.68224,3.003995 13.30607,6.522135 14.71962,7.818087 4.7317,4.33804 2.56874,5.26804 -3.50467,1.506896 z M 48.616522,78.59375 c 0.01011,-0.6875 0.626281,-4.625 1.369263,-8.75 0.742981,-4.125 1.365549,-9.241313 1.383482,-11.369583 0.04091,-4.854429 1.894275,-6.705709 5.200469,-5.194599 3.021164,1.380836 3.046955,4.610306 0.04596,5.754848 -1.893924,0.722319 -2.370249,1.725588 -2.921843,6.154192 C 52.74171,72.833145 51.016328,79.035167 49.721327,79.468183 49.103572,79.674744 48.60641,79.28125 48.616523,78.59375 Z M 406.05505,73.6952 c -3.43308,-2.518175 1.76494,-5.568205 6.42953,-3.77264 1.14561,0.440989 1.22224,0.988385 0.39371,2.8125 -1.16445,2.563677 -4.07814,2.97368 -6.82324,0.96014 z M 120.00838,63.764426 c -8.1775,-5.148316 -15.31008,-9.367066 -15.85018,-9.375 -0.81819,-0.01202 -5.092774,-7.52058 -5.092774,-8.945755 0,-1.084255 1.783014,-0.197487 6.176734,3.071954 2.59851,1.933594 11.52612,6.881093 19.83914,10.994444 15.57936,7.708799 18.06018,9.814683 14.57424,12.371622 -0.93226,0.68382 -2.38892,1.243309 -3.237,1.243309 -0.84807,0 -8.23265,-4.212259 -16.41016,-9.360574 z m 98.68322,3.629289 c -3.34112,-0.443314 -11.75234,-1.430468 -18.69159,-2.193674 -13.69992,-1.506773 -19.62617,-2.843392 -19.62617,-4.426528 0,-0.99723 19.63759,-0.602297 37.85047,0.761215 7.22302,0.540754 7.54651,0.667324 9.53641,3.731256 l 2.05978,3.171516 -2.52707,-0.11888 c -1.38988,-0.06538 -5.26071,-0.481591 -8.60183,-0.924905 z m 175.85033,-0.581671 c -4.57523,-1.351456 -6.81106,-3.254554 -5.4397,-4.630196 0.30144,-0.302384 3.08345,0.243155 6.18223,1.212307 4.06534,1.271442 5.63639,2.218925 5.64215,3.40272 0.009,1.921978 0.0702,1.921834 -6.38468,0.01517 z M 269.62618,59.101961 c -18.36194,-3.286924 -26.63551,-5.724597 -26.63551,-7.847722 0,-0.550108 2.6272,-0.646566 6.7757,-0.248768 13.41841,1.28669 37.66054,3.331487 39.71963,3.350308 1.86632,0.01706 2.1028,0.493666 2.1028,4.237971 0,2.802616 -0.39215,4.185634 -1.16822,4.120095 -0.64253,-0.05426 -10,-1.679608 -20.7944,-3.611884 z m -42.05607,1.040343 C 222.02969,56.679402 205.10692,18.75 209.10231,18.75 c 0.44309,0 1.76028,1.971124 2.92709,4.380276 1.16681,2.409152 6.53373,11.293161 11.92649,19.742244 5.39276,8.449082 9.66894,16.070769 9.50263,16.937083 -0.43011,2.240356 -2.63681,2.365036 -5.88841,0.332701 z m -71.03038,-1.0836 c -1.0973,-1.781005 0.2836,-4.991659 3.95157,-9.187606 3.05651,-3.496484 4.4631,-4.276529 10.53675,-5.843308 8.39345,-2.165206 8.41121,-2.166486 8.41121,-0.606033 0,0.768494 -2.26798,1.686471 -6.01008,2.432605 -6.55562,1.307121 -8.04513,2.480637 -11.73593,9.246167 -2.44576,4.483278 -4.06417,5.726297 -5.15352,3.958175 z m 6.69675,-0.764824 c -2.17532,-2.411217 -0.0587,-5.403808 3.2069,-4.534159 4.43794,1.181834 5.17233,2.159998 3.23443,4.308045 -2.15254,2.385963 -4.42094,2.465593 -6.44133,0.226114 z m 133.25886,0.739406 c -2.32384,-0.936991 -2.74212,-2.958956 -0.92504,-4.471706 1.20106,-0.999915 10.86525,-2.210094 31.27626,-3.916508 10.89662,-0.910987 11.62189,-0.859773 15.65421,1.105404 2.32552,1.133356 4.22822,2.365153 4.22822,2.737328 0,0.372174 -3.6799,0.648884 -8.17757,0.614909 -4.99863,-0.03776 -13.55172,0.902117 -22.00216,2.417757 -14.87387,2.667724 -16.82464,2.814884 -20.05392,1.512816 z m 59.53812,-8.678604 c -3.24808,-5.265388 -7.66757,-12.31562 -9.82109,-15.667182 -3.54904,-5.52343 -6.24298,-14.112252 -4.40097,-14.031154 0.77178,0.03398 25.1923,34.692574 26.08057,37.014584 0.378,0.988138 0.10973,1.247032 -0.89243,0.861261 -0.7881,-0.303365 -2.24911,-0.113386 -3.2467,0.422175 -1.61937,0.869369 -2.44683,-0.05245 -7.71938,-8.599684 z M 45.981311,53.25 c -1.801567,-1.807197 -1.399103,-5.4375 0.602815,-5.4375 2.084313,0 4.817746,2.834395 4.817746,4.995695 0,1.853304 -3.711864,2.155842 -5.420561,0.441805 z M 508.13203,48.157409 c -1.32571,-1.329852 -0.59296,-4.862996 1.71657,-8.276918 1.30456,-1.928388 3.83321,-6.416947 5.61922,-9.974576 1.78601,-3.557628 3.69599,-6.468415 4.24439,-6.468415 1.51431,0 0.0915,5.282412 -3.15652,11.71875 -1.56119,3.09375 -3.34219,7.3125 -3.95776,9.375 -1.05364,3.530252 -2.99229,5.104374 -4.4659,3.626159 z M 502.99068,42.9375 c -0.61682,-0.61875 -1.12149,-2.517188 -1.12149,-4.21875 0,-3.579496 1.48818,-3.994145 4.7694,-1.328881 1.91763,1.557655 2.04186,2.052982 1.05815,4.21875 -1.20036,2.642723 -2.91394,3.126599 -4.70606,1.328881 z"
       id="path3496"
       inkscape:connector-curvature="0" />
    <path
       style="fill:#007f7f"
       d="m 356.36086,83.4375 c -1.11521,-2.96377 -3.67866,-3.721806 -5.70663,-1.6875 -0.78588,0.788333 -1.1215,0.810162 -1.1215,0.07295 0,-0.578632 1.86937,-2.666913 4.15417,-4.640625 3.80559,-3.287452 7.99536,-10.577604 7.99536,-13.911832 0,-1.683993 2.59387,-4.20799 4.32448,-4.20799 0.89515,0 0.48005,0.782764 -1.1702,2.206692 l -2.55745,2.206692 2.59821,4.447363 2.59821,4.447365 -2.76779,3.892818 c -1.52228,2.141052 -3.4674,5.263914 -4.32248,6.939695 -1.92547,3.773474 -2.67623,3.817197 -4.02438,0.234375 z M 235.57328,80.805769 c -0.10745,-5.623647 -2.02735,-11.280156 -4.34586,-12.804055 -1.2191,-0.801279 -2.89864,-2.780021 -3.73231,-4.397202 -1.44526,-2.803535 -1.43528,-2.907215 0.21419,-2.228558 3.6544,1.503555 4.70397,1.518929 5.88926,0.08627 1.0734,-1.297398 1.73406,-0.755446 5.33843,4.379211 3.95301,5.631317 6.79656,12.344617 5.6963,13.448319 -0.28931,0.290216 -1.37395,-0.0036 -2.4103,-0.652765 -2.1563,-1.350841 -4.45108,-0.02528 -5.81969,3.361716 -0.63905,1.581535 -0.78091,1.377654 -0.83002,-1.192933 z m 61.95595,-1.913921 c 0.4626,-4.332516 0.15207,-5.776175 -2.2836,-10.616281 -2.16523,-4.302693 -2.7536,-6.601557 -2.53699,-9.912315 0.16609,-2.538332 0.79168,-4.478857 1.52169,-4.720101 1.0142,-0.335165 1.02443,-0.06398 0.0563,1.491215 -1.56066,2.50681 0.0923,4.602222 4.24727,5.384132 2.50641,0.471675 3.43179,1.41266 5.45127,5.543171 2.94569,6.024913 3.72904,10.202555 2.73075,14.563331 -0.73229,3.198839 -0.77995,3.228272 -1.89722,1.171875 -0.63032,-1.160156 -1.94853,-2.109375 -2.92933,-2.109375 -0.98081,0 -2.48353,0.949219 -3.33938,2.109375 -1.504,2.038758 -1.53817,1.941503 -1.02068,-2.905027 z M 67.757013,74.849682 c -3.326242,-1.834354 -8.991017,-7.729317 -10.794551,-11.233189 -1.731291,-3.363521 -1.730173,-3.421969 0.07448,-3.895369 2.474937,-0.649234 3.33797,-3.290902 1.853917,-5.674676 -1.178594,-1.893125 -1.146198,-1.909222 1.020728,-0.507175 1.230875,0.796403 4.136103,4.300568 6.456063,7.787034 2.319959,3.486466 5.263884,6.919691 6.542056,7.62939 2.18904,1.215454 2.20852,1.29229 0.335579,1.323583 -2.45253,0.04098 -4.482141,2.333973 -3.752996,4.240031 0.636333,1.663439 0.670272,1.656977 -1.735271,0.330371 z M 420.61308,73.271023 c 3.2286,-2.622526 1.84529,-5.235617 -2.40532,-4.543683 -5.34437,0.869983 -3.68871,-1.017458 2.60234,-2.966637 7.73038,-2.395134 17.26757,-3.371793 20.55655,-2.105099 2.90224,1.117745 4.98292,4.790952 4.06824,7.18202 -0.49843,1.302954 -0.97951,1.025101 -2.72583,-1.574352 -2.83196,-4.215479 -4.93059,-4.487004 -6.9651,-0.901161 -0.89748,1.581819 -2.27721,2.878702 -3.06605,2.881961 -0.78884,0.0033 -3.8274,0.849678 -6.75235,1.880928 -6.6134,2.331685 -8.05193,2.371225 -5.31248,0.146023 z M 140.28343,72.297631 c 1.91762,-1.557655 2.04186,-2.052982 1.05815,-4.21875 -0.61302,-1.349634 -1.55385,-2.453881 -2.09074,-2.453881 -1.95796,0 2.42976,-5.104245 7.79104,-9.063329 6.06331,-4.4775 10.84951,-5.591662 8.98176,-2.090828 -0.57831,1.083963 -0.85095,2.740045 -0.60586,3.68018 0.31524,1.20928 -0.31669,2.026074 -2.16013,2.792037 -3.2203,1.338065 -5.86698,4.236223 -7.37516,8.075953 -0.63196,1.608895 -2.19177,3.401864 -3.46626,3.984375 -3.52364,1.610498 -4.56154,1.267055 -2.1328,-0.705757 z m 372.05648,-6.715267 c -1.24328,-1.997039 -3.91429,-2.409278 -5.47387,-0.84483 -0.68956,0.691712 -1.17867,-1.841203 -1.63281,-8.455561 -0.68681,-10.002997 -0.15384,-12.911858 1.6958,-9.255526 0.67898,1.342201 1.90203,2.163885 3.15406,2.119019 1.92797,-0.06909 2.01139,0.214043 1.45705,4.945281 -0.44439,3.792938 -0.17782,5.931005 1.09153,8.754717 1.79345,3.989595 1.60261,5.779759 -0.29176,2.7369 z"
       id="path3492"
       inkscape:connector-curvature="0" />
    <path
       style="fill:#fe0000"
       d="m 85.981313,100.85336 c 0,-0.47519 5.609703,-6.16586 6.078131,-6.16586 0.179779,0 0.462849,0.675478 0.629044,1.501069 0.245158,1.21784 1.183854,0.897947 4.975069,-1.695469 3.455523,-2.363773 5.403323,-4.647662 7.476633,-8.76669 1.54206,-3.063588 2.90888,-5.745941 3.03739,-5.960785 0.1285,-0.214843 0.50973,-0.113676 0.84716,0.224817 1.93656,1.942605 -6.79094,14.427658 -11.959725,17.108889 -1.681981,0.872513 -2.41814,1.849697 -2.073047,2.751816 0.431355,1.127603 -0.390374,1.398853 -4.237767,1.398853 -2.625088,0 -4.772888,-0.17848 -4.772888,-0.39664 z m 4.672898,-53.462611 c 0,-1.942419 6.839,-9.798645 10.537699,-12.10507 2.53678,-1.581876 4.1475,-3.031566 3.57937,-3.221534 C 102.12316,31.178678 104.20165,30 108.41122,30 c 2.57009,0 4.67289,0.316406 4.67287,0.703125 -6e-5,1.458725 -6.74605,6.107636 -7.37691,5.083698 -1.11512,-1.809939 -8.151894,3.277667 -10.797969,7.806949 -1.355542,2.320301 -2.867465,4.218728 -3.359817,4.218728 -0.49235,0 -0.895183,-0.189788 -0.895183,-0.421751 z"
       id="path3490"
       inkscape:connector-curvature="0" />
    <path
       style="fill:#000000"
       d="m 13.551403,182.09606 6.542056,-0.34387 10.910092,-16.16681 10.910093,-16.16679 -10.292727,-11.66242 C 18.451595,122.83435 18.426757,122.8125 14.639494,122.8125 c -3.834387,0 -5.5350644,-1.76912 -5.127585,-5.33393 l 0.3011757,-2.63482 24.3525353,-0.24959 24.352536,-0.24958 3.038365,-2.56292 3.038367,-2.56291 -3.357569,-9.276066 -3.357568,-9.276057 2.94154,-8.857062 2.941542,-8.857063 -3.255312,-3.429376 c -1.79042,-1.886156 -3.697606,-4.267163 -4.23819,-5.291125 -1.111739,-2.105836 -0.823748,-2.920948 -3.055585,8.648337 -1.182043,6.127418 -2.98873,8.814128 -4.743441,7.053934 -0.687869,-0.690018 -0.535611,-3.600011 0.506898,-9.687971 2.017182,-11.77978 1.967715,-14.933801 -0.234221,-14.933801 -2.629298,0 -4.817746,-3.054992 -4.817746,-6.725393 0,-4.294411 2.621524,-6.776841 6.546339,-6.199001 1.584964,0.233351 3.098337,0.07274 3.36305,-0.356916 1.042107,-1.691434 4.084332,-0.637064 6.016778,2.085287 2.585109,3.641795 1.421691,5.034513 -1.325419,1.586648 C 57.396208,44.285156 56.266228,43.125 56.014917,43.125 c -0.25131,0 -0.445792,1.897093 -0.432182,4.215763 0.01905,3.244411 0.372543,4.216451 1.534223,4.21875 2.489416,0.005 6.491861,3.768708 10.107283,9.504596 4.065783,6.450385 5.705599,7.623419 24.084762,17.228897 7.813405,4.083512 14.065017,7.566187 13.892457,7.739277 -0.17255,0.173092 -6.810632,-3.082112 -14.751301,-7.233786 -14.136184,-7.390917 -18.966542,-8.892771 -19.990704,-6.215504 -0.910066,2.379003 1.285928,4.718553 6.35325,6.768576 2.729651,1.1043 9.378889,3.783394 14.776085,5.953541 5.397197,2.170147 10.23365,4.348093 10.74766,4.839879 0.86681,0.829314 -14.815661,-5.297477 -24.997279,-9.765881 -2.440094,-1.070884 -4.598737,-1.770053 -4.796986,-1.55371 -0.198247,0.216344 -1.868961,3.416011 -3.712696,7.110373 l -3.352246,6.71702 2.023756,8.943889 c 1.971367,8.71234 1.978981,8.99351 0.294103,10.8611 l -1.729654,1.91722 26.250095,0 c 24.811567,0 26.280467,-0.096 26.804217,-1.75136 0.30478,-0.96325 1.38452,-2.50519 2.39943,-3.42655 1.58172,-1.43591 1.8453,-2.90285 1.8453,-10.269812 0,-8.279169 0.15461,-8.913274 4.21253,-17.276751 2.31688,-4.775174 4.0231,-8.989565 3.7916,-9.365314 C 130.65404,71.12538 105.08874,55.3125 103.92817,55.3125 c -1.37611,0 -6.059267,-9.128891 -5.308379,-10.34765 0.879804,-1.428 1.813269,-1.098336 5.690959,2.009827 1.99825,1.601698 10.33652,6.284741 18.52948,10.406764 l 14.8963,7.494587 1.86361,-2.56632 C 142.62048,58.1505 152.20178,51.5625 155.23043,51.5625 c 1.88247,0 3.60264,-0.99644 5.73831,-3.324012 2.47894,-2.701682 4.43061,-3.677486 10.42429,-5.212003 4.87783,-1.248833 7.68827,-1.57307 8.30166,-0.957754 1.89606,1.901977 -0.22175,3.518071 -6.16253,4.702597 -3.58687,0.715184 -6.7811,1.959371 -7.72965,3.010774 -0.88912,0.985541 -1.44393,1.894776 -1.23291,2.020521 0.21103,0.125745 2.03062,1.072377 4.04356,2.103627 4.73737,2.42702 5.87996,4.29707 4.69539,7.684904 -0.62452,1.786144 -1.94042,2.96093 -4.10912,3.668497 l -3.19037,1.040899 2.56614,2.574157 c 1.41137,1.415786 2.31019,2.830897 1.99737,3.144691 -0.92264,0.925534 -3.64216,-1.219947 -5.152,-4.064529 -0.77103,-1.452638 -2.13785,-3.414871 -3.03738,-4.360515 -0.89954,-0.945645 -1.63552,-2.084582 -1.63552,-2.530972 0,-1.196827 -7.03094,0.303035 -9.7268,2.074951 -1.27952,0.840994 -3.16555,3.432037 -4.19118,5.757874 -1.02562,2.325836 -2.30664,4.228793 -2.84673,4.228793 -0.54008,0 -3.78535,4.223693 -7.21172,9.385985 -6.43683,9.697963 -7.62363,13.175403 -7.74356,22.689595 -0.0507,4.02731 -0.36511,4.63023 -3.54368,6.79687 l -3.48798,2.37755 87.13284,0 c 58.86852,0 87.13284,-0.31163 87.13284,-0.9607 0,-0.52839 1.09692,-1.37906 2.43759,-1.89037 2.11532,-0.80676 2.36866,-1.33045 1.91633,-3.96117 -0.2867,-1.66734 -0.80052,-5.03542 -1.14184,-7.48463 -0.61396,-4.405683 -0.65773,-4.45313 -4.10793,-4.45313 -4.86252,0 -6.99183,-2.516473 -6.3283,-7.478962 0.62095,-4.643968 -0.69223,-4.875566 -2.77715,-0.489788 -0.85792,1.804687 -1.90251,3.28125 -2.32133,3.28125 -1.11426,0 -0.96734,-0.607416 1.15746,-4.785397 1.43248,-2.816652 2.43941,-3.731542 3.97196,-3.608879 6.35425,0.508587 6.90707,0.19154 7.52274,-4.314362 0.47638,-3.486327 0.1356,-5.165895 -1.85455,-9.140625 -1.34099,-2.678218 -2.50164,-4.948767 -2.57924,-5.045664 -0.0776,-0.0969 -9.1742,-1.699318 -20.21468,-3.560935 -20.26333,-3.416753 -30.51852,-6.59287 -29.63333,-9.17769 0.51199,-1.49504 5.9416,-1.379033 28.83856,0.616159 14.22402,1.239451 20.10153,1.383899 26.16822,0.643123 4.3032,-0.525446 15.29418,-1.602825 24.42441,-2.394177 l 16.6004,-1.438823 4.72341,2.401014 c 6.80126,3.457229 5.63675,4.619141 -4.82438,4.813609 -7.73405,0.143773 -33.91544,4.092039 -35.11517,5.295519 -0.24573,0.246504 0.72103,2.704982 2.14838,5.463284 2.14163,4.138615 2.57413,6.111697 2.47471,11.289709 l -0.12048,6.274616 9.73767,6.22707 c 8.63824,5.524008 9.73766,6.529355 9.73766,8.904427 0,3.528342 -1.77487,4.515662 -3.74041,2.080732 -1.85535,-2.298419 -18.76172,-13.595256 -19.39516,-12.959842 -0.24009,0.240844 0.0752,5.525179 0.70072,11.742962 0.62549,6.21779 0.89568,11.93655 0.60043,12.70836 -0.46686,1.22042 2.19994,1.40331 20.46188,1.40331 13.71422,0 20.99871,-0.33327 20.99871,-0.9607 0,-0.52839 1.08436,-1.37427 2.40968,-1.87973 1.99498,-0.76085 2.32314,-1.36189 1.90685,-3.49242 -0.27656,-1.41537 -0.77852,-4.99918 -1.11549,-7.96402 l -0.61267,-5.39063 -4.42037,0 c -6.79755,0 -8.50219,-2.710709 -6.48507,-10.3125 0.26548,-1.000503 -0.50324,-1.491013 -2.66424,-1.700023 -1.67056,-0.161576 -3.03738,-0.68892 -3.03738,-1.171875 0,-0.995439 5.89755,-1.212123 6.85482,-0.251857 0.34337,0.344436 2.33134,0.660842 4.41773,0.703125 3.30935,0.06707 4.39006,-0.499028 8.46875,-4.436074 4.85253,-4.684013 8.29608,-11.132568 8.29608,-15.53564 0,-2.202163 -8.45523,-16.92339 -17.29253,-30.107656 -2.45458,-3.661952 -3.59147,-11.71875 -1.65363,-11.71875 1.11864,0 27.35738,36.598779 27.35738,38.159098 0,1.02365 17.03255,26.24628 21.32793,31.583424 3.53151,4.388031 6.41391,12.960198 4.87645,14.502458 -1.13263,1.13617 -3.43943,-0.71941 -5.24249,-4.21706 -1.36237,-2.642751 -20.62355,-26.394858 -21.75132,-26.822834 -0.33684,-0.127828 -2.04923,1.981547 -3.80532,4.6875 -1.75608,2.705952 -3.92011,6.003405 -4.80895,7.327673 -1.58003,2.354046 -1.54529,2.520387 1.55736,7.456558 3.38377,5.383427 4.02633,9.352303 1.81251,11.195353 -1.71309,1.42617 -3.31197,0.49271 -3.31197,-1.9336 0,-1.70929 -3.34974,-9.28232 -4.10581,-9.28232 -0.18123,0 -0.27782,4.849303 -0.21465,10.77623 l 0.11486,10.77622 38.83178,0.005 c 28.96211,0.004 39.11682,-0.28091 39.95327,-1.11998 1.96824,-1.97439 1.22821,-5.26181 -3.15545,-14.017479 l -4.27694,-8.542522 3.18686,-9.251248 c 1.90806,-5.538636 2.76748,-9.250911 2.14174,-9.250911 -0.57481,0 -3.43825,0.84375 -6.3632,1.875 -2.92495,1.03125 -6.11192,1.875 -7.08214,1.875 -1.48181,0 -2.08993,1.537478 -3.80083,9.609375 -1.12022,5.285156 -2.61738,10.194403 -3.32701,10.909444 -1.75115,1.764497 -4.62778,0.599175 -3.80734,-1.542347 0.34404,-0.897994 1.24154,-5.174179 1.99447,-9.502626 0.75292,-4.328448 1.5913,-8.230791 1.86306,-8.671875 0.27175,-0.441084 -0.62418,-0.801971 -1.99096,-0.801971 -1.58273,0 -3.64524,-1.163798 -5.68021,-3.205129 -2.11291,-2.119518 -5.13347,-3.78661 -8.91781,-4.921875 -6.07582,-1.82269 -8.58604,-4.109326 -6.64671,-6.054708 0.8501,-0.852759 2.43512,-0.670806 6.87396,0.789096 l 5.7691,1.897416 3.1122,-1.986775 c 3.67879,-2.348471 3.84404,-3.245278 1.21562,-6.597216 -1.08665,-1.385753 -1.72007,-2.775998 -1.40761,-3.089432 0.90991,-0.91275 4.09583,2.466003 4.73534,5.021937 0.32205,1.287177 1.99779,3.756979 3.72387,5.488449 l 3.13832,3.148126 5.47233,-1.708098 c 8.37435,-2.613916 16.90256,-3.241263 21.36018,-1.571283 2.05607,0.770277 11.49143,4.998482 20.96746,9.396009 17.79238,8.256886 24.03988,12.526748 21.72552,14.848339 -0.93368,0.936602 -2.10923,0.640206 -5.86872,-1.479712 C 475.41356,83.694271 445.99046,73.125 443.74896,73.125 c -0.389,0 -2.60184,3.986348 -4.91742,8.858552 l -4.21015,8.858551 2.30635,4.969572 c 1.2685,2.733263 2.31047,5.613985 2.31549,6.401595 0.005,0.78762 0.65632,2.3589 1.44732,3.49174 1.29452,1.85397 1.29452,2.33839 0,4.84955 -0.791,1.5344 -1.43819,3.02172 -1.43819,3.30513 0,0.28342 14.88492,0.51531 33.07758,0.51531 27.73852,0 33.15993,-0.21525 33.58772,-1.33354 0.28057,-0.73344 1.48211,-1.47172 2.67008,-1.64062 2.13463,-0.30349 2.15821,-0.44449 2.01137,-12.02584 -0.0817,-6.445313 -0.64659,-12.984375 -1.25526,-14.53125 -1.09873,-2.792275 -1.15478,-2.71651 -7.79619,10.536066 -5.47433,10.923754 -7.34257,13.793714 -10.28457,15.799114 -5.08885,3.46877 -6.37288,1.78109 -2.68235,-3.52558 1.55278,-2.23278 5.84364,-12.193209 9.53524,-22.134279 l 6.712,-18.074679 -0.49149,-11.323643 c -0.36464,-8.400965 -0.86709,-11.739964 -1.94669,-12.936641 -0.80035,-0.887148 -1.45519,-3.161809 -1.45519,-5.054803 0,-4.464847 2.78024,-7.379608 6.84162,-7.17265 4.65134,0.237022 6.60691,-0.791896 8.60199,-4.525901 1.01735,-1.904102 2.47976,-3.462004 3.24979,-3.462004 2.32541,0 1.28313,5.227508 -2.68238,13.453312 -2.96708,6.154699 -3.75211,8.985524 -4.2908,15.472673 -0.48042,5.785363 -0.3327,8.534603 0.54439,10.131899 0.66203,1.205664 1.50495,4.934303 1.87315,8.285866 0.36819,3.351562 1.16483,8.835937 1.7703,12.1875 0.71836,3.976463 0.89259,10.55673 0.50145,18.93863 l -0.5994,12.84488 5.87999,0.33385 c 3.234,0.18363 -110.74713,0.41516 -253.29139,0.5145 l -259.171373,0.18064 0.292859,3.04688 0.292858,3.04687 258.878516,0.47125 258.87852,0.47127 -233.41123,0.23186 c -189.41056,0.18816 -233.411223,0.45903 -233.411223,1.43689 0,0.66277 -8.558188,13.84636 -19.018194,29.29688 l -19.018194,28.09185 252.429421,0.47132 252.42942,0.47131 -260.74768,0.0456 C 124.3458,182.41947 9.9532716,182.28522 13.551403,182.09609 Z M 58.25628,124.45313 c 0.414821,-1.52171 -0.872336,-1.64063 -17.757609,-1.64063 l -18.204845,0 2.638134,3.1535 c 1.450974,1.73442 6.19502,7.1796 10.542323,12.10039 l 7.90419,8.9469 7.215283,-10.45977 c 3.968407,-5.75287 7.416543,-11.19805 7.662524,-12.10039 z m 8.21004,-11.85492 2.187406,-1.77679 -2.05514,-9.08259 -2.055141,-9.082589 3.710289,-7.402459 3.710288,-7.402457 -3.688159,-1.887439 c -2.028487,-1.038091 -3.864872,-1.57417 -4.080855,-1.191287 -0.215983,0.382883 -1.51492,4.115871 -2.886529,8.295527 l -2.493833,7.599376 3.351769,9.275623 3.351769,9.275625 -2.867293,2.57812 c -2.836614,2.55055 -2.843244,2.57813 -0.619636,2.57813 1.236211,0 3.231991,-0.79956 4.435065,-1.77679 z m 57.85279,-0.69154 c 3.42131,-2.27119 3.72273,-2.81405 3.77399,-6.79688 0.1174,-9.121734 1.36615,-12.983475 6.89164,-21.312344 4.15499,-6.263045 5.09317,-8.290143 4.12245,-8.907276 -0.69119,-0.439427 -1.74802,-0.805418 -2.3485,-0.813314 -0.60049,-0.0079 -1.75036,-0.267863 -2.55528,-0.577704 -1.11619,-0.42966 -2.46503,1.500862 -5.68391,8.135082 -4.04156,8.32978 -4.22043,9.053167 -4.22043,17.068635 0,7.560461 -0.22603,8.639681 -2.33645,11.155601 -2.18736,2.60766 -2.96887,4.51653 -1.84912,4.51653 0.26803,0 2.16055,-1.11075 4.20561,-2.46833 z M 304.02264,106.875 c -0.10064,-3.86719 -0.44885,-8.871141 -0.77379,-11.119894 -0.57589,-3.985444 -0.62694,-4.036875 -2.0228,-2.037766 -1.21883,1.745547 -1.27568,3.105326 -0.38187,9.13363 1.08743,7.33417 0.52114,9.64903 -2.36046,9.64903 -0.7081,0 -1.28744,0.44734 -1.28744,0.9941 0,0.57545 1.4759,0.87155 3.50467,0.70312 l 3.50468,-0.29097 -0.18299,-7.03125 z m 50.75446,5.07359 c 0.74521,-2.97838 -0.41932,-20.253326 -1.43571,-21.297623 -0.40429,-0.415405 -1.25918,0.513978 -1.89976,2.065297 -0.88685,2.14773 -0.93318,4.558502 -0.19422,10.105896 0.99679,7.48291 0.47597,9.67784 -2.2964,9.67784 -0.70809,0 -1.28744,0.42188 -1.28744,0.9375 0,0.51563 1.46395,0.9375 3.25323,0.9375 2.72022,0 3.35268,-0.39754 3.8603,-2.42641 z m 84.78193,-0.91288 c 1.42652,-3.00081 1.44407,-3.5446 0.17309,-5.36484 -0.77789,-1.11406 -1.41845,-2.66998 -1.42347,-3.4576 -0.005,-0.78761 -1.05356,-3.682554 -2.33008,-6.433208 l -2.32096,-5.001192 4.75572,-9.792441 c 4.57847,-9.427439 4.69935,-9.878759 3.24313,-12.108186 -0.83194,-1.273658 -2.12667,-2.315743 -2.87719,-2.315743 -1.72029,0 -5.07276,6.668499 -8.3251,16.559715 l -2.51654,7.653464 4.2555,8.499674 c 4.36332,8.715027 5.10047,12.002037 3.134,13.974647 -0.87227,0.875 -0.70306,1.125 0.76148,1.125 1.23804,0 2.42669,-1.14373 3.47042,-3.33929 z m 76.82244,-7.54539 c 0.73439,-11.790305 0.20482,-19.728076 -1.93311,-28.975478 -0.75216,-3.25338 -1.12611,-6.546446 -0.83098,-7.317924 0.29512,-0.771477 -0.17634,-2.785638 -1.0477,-4.475913 -1.19105,-2.310442 -1.44758,-4.385125 -1.03354,-8.358801 0.51889,-4.980025 0.4337,-5.281466 -1.47368,-5.214514 -1.22915,0.04314 -2.46007,-0.790152 -3.13343,-2.121243 -1.84409,-3.645367 -2.38321,-0.756276 -1.70423,9.132864 0.60348,8.789462 0.73928,9.2582 2.38371,8.228024 1.95635,-1.225582 4.64635,-0.07469 5.2406,2.242143 0.19917,0.776505 -0.0915,0.649875 -0.69174,-0.301353 -1.2051,-1.909763 -4.04423,-2.1573 -5.37634,-0.46875 -0.50847,0.644531 -3.96604,9.398437 -7.68348,19.453125 -3.71745,10.054687 -8.02359,20.09989 -9.56921,22.32266 -1.54563,2.22278 -2.59545,4.25687 -2.33294,4.52021 0.26252,0.26332 1.96841,-0.50062 3.79089,-1.69767 2.79047,-1.83286 4.79343,-5.21052 12.68738,-21.3952 8.833,-18.109945 11.91351,-23.727054 7.40403,-13.500792 -1.79581,4.072435 -1.88614,4.995232 -0.86046,8.791048 0.63029,2.332547 1.38479,8.974535 1.67667,14.759978 0.56201,11.139876 -0.0419,13.387266 -3.5971,13.387266 -0.9651,0 -1.75472,0.42188 -1.75472,0.9375 0,0.51563 2.06131,0.9375 4.5807,0.9375 l 4.5807,0 0.67798,-10.88467 z m -152.99539,-2.61163 c 0.20103,-1.711478 -0.9397,-4.663553 -3.41361,-8.83395 -2.04355,-3.44492 -3.99514,-7.212709 -4.33688,-8.372865 -0.70344,-2.388086 -3.43709,-2.795596 -5.1187,-0.763052 -1.38066,1.668794 -0.39364,3.688832 3.69391,7.559927 3.41092,3.230314 6.53688,8.85375 6.53688,11.75953 0,2.89719 2.27632,1.73281 2.6384,-1.34959 z m 31.4143,0.60568 c -1.20428,-5.520951 -2.18984,-7.520348 -6.59651,-13.382265 -2.51005,-3.33897 -7.71688,-10.812902 -11.57071,-16.608736 -7.16909,-10.781702 -9.39382,-12.47755 -12.09144,-9.216964 -1.67705,2.027045 0.37385,5.277314 12.89174,20.430707 6.08212,7.362651 12.18105,15.179607 13.55318,17.371008 2.85656,4.56218 4.64607,5.22203 3.81374,1.40625 z m -68.63214,-1.876326 c 0,-2.251097 -1.21948,-3.353419 -9.57944,-8.659085 -5.26869,-3.343791 -10.56759,-7.057438 -11.77532,-8.252549 -2.64043,-2.612827 -5.16896,-2.370112 -5.58195,0.535817 -0.24085,1.6947 0.41452,2.412104 3.27103,3.580619 4.8663,1.990666 20.60006,12.400323 21.22948,14.045704 0.86723,2.26702 2.4362,1.46167 2.4362,-1.250506 z m 85.4499,-3.878953 c 0.28241,-0.458372 1.16259,-3.938843 1.95597,-7.734374 2.51581,-12.035723 3.09495,-13.561142 5.57981,-14.696858 2.8414,-1.298677 3.11623,-3.922859 0.41083,-3.922859 -5.04437,0 -6.27118,2.295329 -8.76889,16.40625 -0.73014,4.125 -1.61037,8.238281 -1.95606,9.140625 -0.43194,1.127466 -0.17604,1.640625 0.81816,1.640625 0.79569,0 1.67776,-0.375038 1.96018,-0.833409 z m -110.25272,-3.46108 c 1.96545,-3.009029 1.33649,-4.835132 -1.95036,-5.662655 -1.97672,-0.497677 -2.91061,-0.171648 -4.24562,1.482172 -0.94131,1.166106 -1.71148,3.128142 -1.71148,4.360082 0,1.920381 0.45127,2.23989 3.16354,2.23989 2.36956,0 3.56018,-0.607238 4.74392,-2.419489 z m 49.65574,-0.873935 C 351.57935,89.163126 350.20101,86.25 348.58725,86.25 c -1.37701,0 -4.50463,3.298712 -5.11105,5.390625 -0.56271,1.941146 -0.30974,2.109375 3.17201,2.109375 3.2615,0 3.86481,-0.325031 4.37295,-2.355924 z m 134.0256,-4.968678 c 0,-2.020555 -6.24799,-5.972667 -17.28972,-10.936466 -6.68225,-3.003996 -14.59247,-6.681813 -17.57829,-8.172927 -5.0845,-2.539197 -5.36097,-2.58406 -4.35978,-0.707491 0.58792,1.101994 0.83761,2.928298 0.55484,4.058454 -0.47816,1.911109 0.51312,2.396745 14.17287,6.943354 8.07784,2.688689 16.36924,5.930306 18.42531,7.203593 3.82585,2.369276 6.07477,2.965856 6.07477,1.611483 z M 360.38524,83.203125 c 0.85508,-1.675781 2.8002,-4.798643 4.32248,-6.939695 l 2.76779,-3.892818 -2.60603,-4.460752 -2.60603,-4.460752 3.15124,-2.638995 3.15125,-2.638995 -5.07736,-7.337777 C 347.21914,27.320765 342.44925,20.680054 341.8114,20.654039 c -1.84078,-0.07508 0.85119,8.50888 4.40097,14.033461 2.15352,3.351563 6.57301,10.401794 9.82109,15.667182 5.07502,8.227007 6.14177,9.446636 7.58492,8.671875 0.92362,-0.495857 2.23267,-0.868251 2.90899,-0.827544 0.67631,0.04071 0.0923,0.4913 -1.29765,1.001318 -1.39002,0.510018 -2.78557,1.847805 -3.10122,2.972862 -2.04895,7.302868 -4.58264,11.826047 -8.43287,15.054503 -2.28959,1.919844 -4.1629,3.975878 -4.1629,4.568965 0,0.786863 0.30314,0.774251 1.1215,-0.04666 2.02797,-2.034306 4.59142,-1.27627 5.70663,1.6875 1.34815,3.582822 2.09891,3.539099 4.02438,-0.234375 z M 301.88929,79.6875 c 0.9808,0 2.29901,0.949219 2.92934,2.109375 1.11727,2.056397 1.16492,2.026964 1.89721,-1.171875 0.99829,-4.360776 0.21494,-8.538418 -2.73075,-14.563331 -2.01947,-4.130511 -2.94486,-5.071496 -5.45127,-5.543171 -4.15496,-0.78191 -5.80792,-2.877322 -4.24727,-5.384132 0.96821,-1.555185 0.95798,-1.82638 -0.0563,-1.491215 -0.73001,0.241244 -1.3556,2.181769 -1.52168,4.720101 -0.21662,3.310758 0.37175,5.609622 2.53699,9.912315 2.43566,4.840106 2.74619,6.283765 2.28359,10.616281 -0.51748,4.84653 -0.48331,4.943785 1.02069,2.905027 0.85585,-1.160156 2.35857,-2.109375 3.33937,-2.109375 z M 51.93967,74.786204 c 0.602335,-2.368526 1.391717,-6.687444 1.754185,-9.597596 0.561157,-4.505386 1.010778,-5.425337 3.027532,-6.194501 1.893825,-0.722281 2.276929,-1.383853 1.911576,-3.301046 -0.295068,-1.548373 -0.135931,-2.075729 0.449244,-1.488725 1.395095,1.399454 0.469962,4.230831 -1.744207,5.338164 -1.874443,0.937431 -1.908775,1.158773 -0.585317,3.773547 1.833634,3.622735 7.521485,9.605918 10.745582,11.303526 2.250399,1.18492 2.481703,1.174594 1.998247,-0.08921 -0.732323,-1.914366 1.289091,-4.208967 3.748768,-4.255399 1.806329,-0.0341 1.759722,-0.162089 -0.509062,-1.398 -1.373587,-0.748257 -4.024895,-3.882802 -5.891797,-6.965657 -1.866902,-3.082857 -4.363354,-6.369779 -5.547671,-7.304274 -2.607592,-2.057538 -8.004992,-2.196709 -8.998884,-0.23203 -0.391268,0.773437 -1.19494,5.414062 -1.785939,10.3125 -0.590999,4.898437 -1.318973,10.331091 -1.617718,12.072562 -0.841217,4.90369 1.718324,3.244771 3.045461,-1.973858 z M 412.87829,72.73506 c 0.82853,-1.824115 0.7519,-2.371511 -0.39371,-2.8125 -2.5905,-0.997173 -5.69604,-0.568822 -6.96101,0.96014 -1.05983,1.281001 -0.97991,1.703888 0.53148,2.8125 2.7451,2.01354 5.65879,1.603537 6.82324,-0.96014 z m 13.04727,0.38994 c 2.92495,-1.03125 5.96351,-1.877667 6.75235,-1.880928 0.78884,-0.0033 2.16857,-1.300142 3.06605,-2.881961 2.03451,-3.585843 4.13314,-3.314318 6.9651,0.901162 1.74632,2.599452 2.2274,2.877305 2.72583,1.574351 0.91468,-2.391068 -1.166,-6.064275 -4.06824,-7.18202 -3.28898,-1.266694 -12.82617,-0.290035 -20.55655,2.105099 -6.29105,1.949179 -7.94671,3.83662 -2.60234,2.966637 4.25061,-0.691934 5.63392,1.921157 2.40532,4.543683 -2.73945,2.225202 -1.30092,2.185662 5.31248,-0.146023 z M 142.41623,73.003387 c 1.27449,-0.58251 2.8343,-2.375479 3.46626,-3.984375 1.50818,-3.839729 4.15486,-6.737887 7.37516,-8.075952 1.84344,-0.765963 2.47537,-1.582757 2.16013,-2.792037 -0.24509,-0.940135 0.0276,-2.596217 0.60586,-3.68018 1.86775,-3.500834 -2.91845,-2.386672 -8.98176,2.090828 -5.36128,3.959084 -9.749,9.063329 -7.79104,9.063329 0.53689,0 1.44953,1.042194 2.0281,2.315987 1.09769,2.416694 -0.14059,5.184013 -2.31965,5.184013 -0.54933,0 -0.23601,-0.559489 0.69625,-1.243309 3.48594,-2.556939 1.00512,-4.662823 -14.57424,-12.371622 -8.31302,-4.113351 -17.24063,-9.06085 -19.83914,-10.994444 -4.39372,-3.269441 -6.176734,-4.156209 -6.176734,-3.071954 0,1.382926 4.260924,8.931329 5.041564,8.931329 0.51193,0 7.34393,4.038007 15.18222,8.973349 12.26438,7.7222 17.06399,10.254706 20.15281,10.63357 0.36132,0.04432 1.69972,-0.39602 2.97421,-0.978531 z m 258.51038,-6.206512 c -0.006,-1.183795 -1.57681,-2.131278 -5.64215,-3.40272 -3.09878,-0.969152 -5.88079,-1.514691 -6.18223,-1.212308 -1.37136,1.375643 0.86447,3.278741 5.4397,4.630197 6.45486,1.906665 6.39405,1.906809 6.38468,-0.01517 z M 291.5888,58.59375 c 0,-3.744305 -0.23648,-4.220912 -2.1028,-4.237971 -2.05909,-0.01882 -26.30122,-2.063618 -39.71963,-3.350308 -7.61972,-0.730653 -8.69147,0.208143 -3.27103,2.865258 2.68044,1.31396 37.29988,8.283615 43.92524,8.843116 0.77607,0.06554 1.16822,-1.317479 1.16822,-4.120095 z M 161.69325,55.100529 c 3.6908,-6.76553 5.18031,-7.939046 11.73593,-9.246167 3.7421,-0.746134 6.01008,-1.664111 6.01008,-2.432605 0,-1.560453 -0.0177,-1.559173 -8.41121,0.606033 -6.07365,1.566779 -7.48024,2.346824 -10.53675,5.843308 -3.66797,4.195947 -5.04887,7.406601 -3.95157,9.187606 1.08935,1.768122 2.70776,0.525103 5.15352,-3.958175 z m 7.98456,2.967237 c 1.9379,-2.148047 1.20351,-3.126211 -3.23443,-4.308045 -3.26563,-0.869649 -5.38222,2.122942 -3.2069,4.534159 2.02039,2.239479 4.28879,2.159849 6.44133,-0.226114 z M 316.54926,57.52047 c 8.45044,-1.51564 17.00353,-2.455516 22.00216,-2.417757 4.49767,0.03397 8.17757,-0.242735 8.17757,-0.614909 0,-0.372175 -1.9027,-1.603972 -4.22822,-2.737328 -4.03232,-1.965177 -4.75759,-2.016391 -15.65421,-1.105404 -20.41101,1.706414 -30.0752,2.916593 -31.27626,3.916508 -2.79868,2.329945 -0.053,5.230837 5.09111,5.378996 1.13479,0.03268 8.28432,-1.056364 15.88785,-2.420106 z M 51.401872,52.808195 c 0,-2.1613 -2.733433,-4.995695 -4.817746,-4.995695 -2.001918,0 -2.404382,3.630303 -0.602815,5.4375 1.708697,1.714037 5.420561,1.411499 5.420561,-0.441805 z M 512.59793,44.53125 c 0.61557,-2.0625 2.39657,-6.28125 3.95776,-9.375 3.2717,-6.48335 4.6721,-11.71875 3.13461,-11.71875 -0.56045,0 -2.14239,2.297737 -3.51545,5.106083 -1.37304,2.808346 -2.90542,4.852538 -3.40527,4.542649 -0.5099,-0.316118 -0.60914,-0.07702 -0.22608,0.544704 0.38113,0.618615 -0.58722,3.031397 -2.19205,5.461831 -3.73791,5.660833 -3.84214,10.173691 -0.2184,9.455267 0.74011,-0.146732 1.84931,-1.954284 2.46488,-4.016784 z m -4.90119,-2.922631 c 0.98371,-2.165768 0.85948,-2.661095 -1.05815,-4.21875 -3.28122,-2.665264 -4.7694,-2.250615 -4.7694,1.328881 0,5.355383 3.84225,7.260746 5.82755,2.889869 z m -270.7689,69.035761 c -0.31112,-0.50498 -0.12566,-1.74286 0.41214,-2.75087 0.53778,-1.00801 0.97779,-4.16755 0.97779,-7.0212 0,-4.246219 -0.25675,-5.089632 -1.41377,-4.644254 -1.82739,0.703425 -4.16206,-1.272787 -5.696,-4.821443 l -1.21588,-2.812863 -1.18226,3.046875 c -1.29396,3.334762 -2.64162,4.024022 -2.64162,1.351059 0,-2.429867 1.85064,-4.608753 5.60747,-6.602038 1.79907,-0.954542 3.79386,-2.798967 4.43286,-4.098723 1.91251,-3.890093 3.80356,-5.038957 6.01442,-3.653937 1.03635,0.649236 2.12099,0.942981 2.4103,0.652766 1.10026,-1.103703 -1.74329,-7.817003 -5.6963,-13.44832 -3.60437,-5.134657 -4.26503,-5.676609 -5.33843,-4.379211 -1.18529,1.432662 -2.23486,1.417288 -5.88926,-0.08627 -1.64947,-0.678657 -1.65945,-0.574977 -0.21419,2.228558 0.83367,1.617181 2.51321,3.595923 3.73231,4.397202 2.41179,1.585207 4.37215,7.619932 4.15934,12.804055 -0.098,2.386533 -0.20583,2.560785 -0.46841,0.756731 -0.18763,-1.289062 -0.77096,-4.467169 -1.2963,-7.062457 l -0.95516,-4.718708 -19.83811,-2.11227 c -28.47694,-3.032091 -34.86668,-4.513045 -32.94307,-7.635231 0.5681,-0.922089 4.20972,-1.052989 16.26427,-0.584629 8.54275,0.331914 18.60894,0.854722 22.36929,1.161797 l 6.83703,0.558316 -8.41593,-16.756534 c -6.54903,-13.039422 -8.48033,-17.774513 -8.70619,-21.345528 -0.40207,-6.35718 1.38034,-6.515145 4.4594,-0.395212 2.62109,5.209654 18.61548,30.653338 27.18077,43.23885 2.99928,4.407021 5.21533,8.794562 5.57198,11.031927 0.56633,3.552676 0.98969,3.940565 9.70184,8.888842 10.93944,6.213318 12.71835,7.89801 11.24859,10.652846 -1.32145,2.476866 -2.516,2.475122 -4.00565,-0.0056 -0.64688,-1.077356 -4.84765,-3.819546 -9.33504,-6.093751 -8.42195,-4.26845 -10.3152,-4.948206 -8.38316,-3.010131 1.57473,1.579652 1.39774,5.390011 -0.28037,6.035976 -1.06576,0.410246 -1.40187,2.15139 -1.40187,7.26197 0,4.56694 -0.46648,7.39043 -1.45486,8.80595 -1.5259,2.18533 -3.64881,2.72227 -4.60797,1.16548 z m 4.16079,-1.83275 c 1.44273,-2.7042 1.274,-14.381689 -0.20077,-13.894292 -0.69266,0.228928 -1.38528,2.836781 -1.70143,6.406252 -0.29326,3.31108 -0.86395,6.75844 -1.26821,7.66078 -1.04907,2.34165 1.91511,2.18014 3.17041,-0.17274 z M 265.804,95.974922 c 0.89233,-2.332652 -0.53337,-3.478163 -13.31,-10.694203 -12.05988,-6.811227 -14.64352,-7.373924 -14.64352,-3.189258 0,1.243685 0.98145,1.935413 3.48693,2.457601 5.09319,1.061517 20.1017,8.86845 21.2742,11.06615 1.21664,2.280404 2.40637,2.414457 3.19239,0.35971 z m -23.88737,-2.316633 c 3.24394,-1.134381 4.04562,-4.385917 1.58618,-6.433452 -2.90347,-2.41719 -8.10013,2.438753 -6.65439,6.218084 0.57829,1.51171 1.27628,1.541373 5.06821,0.215368 z M 227.76072,65.265984 c -1.9899,-3.063932 -2.31339,-3.190502 -9.53641,-3.731256 -18.21288,-1.363512 -37.85047,-1.758446 -37.85047,-0.761215 0,1.583136 5.92625,2.919755 19.62617,4.426528 6.93925,0.763206 15.35047,1.75036 18.69159,2.193674 3.34112,0.443314 7.21195,0.859521 8.60183,0.924905 l 2.52707,0.11888 -2.05978,-3.171516 z m 5.6978,-5.456381 C 233.62483,58.943289 229.34865,51.321602 223.95589,42.87252 218.56313,34.423437 213.19621,25.539428 212.0294,23.130276 210.86259,20.721124 209.5454,18.75 209.10231,18.75 c -3.99539,0 12.92738,37.929402 18.4678,41.392304 3.2516,2.032335 5.4583,1.907655 5.88841,-0.332701 z m -126.96677,34.174772 -3.22072,-3.515625 3.49068,3.217169 c 1.91987,1.76944 3.74542,2.961622 4.05677,2.649293 0.31137,-0.312328 -0.51637,-2.729778 -1.8394,-5.372104 -1.32303,-2.642326 -2.04087,-4.578168 -1.5952,-4.301871 1.35593,0.840633 4.85628,8.995732 4.26976,9.947697 -0.91821,1.490344 -1.80544,1.039228 -5.16189,-2.624559 z"
       id="path3488"
       inkscape:connector-curvature="0" />
  </g>
</svg>
