<?xml version="1.0" encoding="UTF-8" standalone="no"?>
<!-- Created with Inkscape (http://www.inkscape.org/) -->

<svg
   xmlns:dc="http://purl.org/dc/elements/1.1/"
   xmlns:cc="http://creativecommons.org/ns#"
   xmlns:rdf="http://www.w3.org/1999/02/22-rdf-syntax-ns#"
   xmlns:svg="http://www.w3.org/2000/svg"
   xmlns="http://www.w3.org/2000/svg"
   xmlns:sodipodi="http://sodipodi.sourceforge.net/DTD/sodipodi-0.dtd"
   xmlns:inkscape="http://www.inkscape.org/namespaces/inkscape"
   id="svg3392"
   version="1.1"
   inkscape:version="0.91 r13725"
   width="387.85046"
   height="225.9375"
   viewBox="0 0 387.85046 225.9375"
   sodipodi:docname="bb730601.svg">
  <metadata
     id="metadata3398">
    <rdf:RDF>
      <cc:Work
         rdf:about="">
        <dc:format>image/svg+xml</dc:format>
        <dc:type
           rdf:resource="http://purl.org/dc/dcmitype/StillImage" />
        <dc:title></dc:title>
      </cc:Work>
    </rdf:RDF>
  </metadata>
  <defs
     id="defs3396" />
  <sodipodi:namedview
     pagecolor="#ffffff"
     bordercolor="#666666"
     borderopacity="1"
     objecttolerance="10"
     gridtolerance="10"
     guidetolerance="10"
     inkscape:pageopacity="0"
     inkscape:pageshadow="2"
     inkscape:window-width="1690"
     inkscape:window-height="934"
     id="namedview3394"
     showgrid="false"
     inkscape:zoom="2.8370678"
     inkscape:cx="215.4263"
     inkscape:cy="114.73113"
     inkscape:window-x="0"
     inkscape:window-y="0"
     inkscape:window-maximized="0"
     inkscape:current-layer="svg3392" />
  <g
     id="g3402"
     transform="translate(3.4511672,5.3724398)">
    <path
       style="fill:#fefefe"
       d="m 29.595015,149.375 c -0.342679,-0.34375 -0.623053,-1.82031 -0.623053,-3.28125 l 0,-2.65625 161.682238,0 161.68224,0 0,3.28125 0,3.28125 -161.05918,0 C 102.6947,150 29.937694,149.71875 29.595015,149.375 Z m 54.750778,-8.7211 c -2.18458,-0.75753 -3.971963,-1.64613 -3.971963,-1.97465 0,-0.32852 5.36215,-0.878 11.915888,-1.22106 6.553738,-0.34306 13.492992,-0.87172 15.420562,-1.17479 2.76206,-0.43428 3.50467,-0.24712 3.50467,0.88329 0,0.83845 -1.19103,1.69674 -2.86689,2.06597 -1.57678,0.3474 -3.08246,1.1952 -3.34596,1.88398 -0.6557,1.71409 -15.326592,1.38543 -20.656307,-0.46274 z m 21.261677,1.04422 c 0,-0.44104 1.36683,-1.19659 3.03739,-1.67901 l 3.03738,-0.87713 0,-10.74286 c 0,-10.08496 0.11343,-10.74287 1.85214,-10.74287 1.2402,0 3.64389,2.47797 7.27517,7.5 8.14375,11.2627 8.60848,12.30244 6.76231,15.12888 -2.45291,3.7553 -5.18661,2.60923 -8.13411,-3.41013 -1.38868,-2.83594 -2.88514,-7.05469 -3.32548,-9.375 -0.58303,-3.07222 -0.68836,-1.60721 -0.38756,5.39063 l 0.41304,9.60937 -5.26514,0 c -2.89583,0 -5.26514,-0.36084 -5.26514,-0.80188 z m 11.21496,-3.10437 c 0,-2.14843 0.1343,-3.73047 0.29844,-3.51563 0.16414,0.21485 1.20136,1.97266 2.30493,3.90626 l 2.00649,3.51562 -2.30494,0 c -2.08139,0 -2.30492,-0.37883 -2.30492,-3.90625 z m 26.49671,2.71774 c 1.52082,-1.11552 1.47039,-1.59046 -0.82126,-7.73437 -3.25119,-8.71643 -6.50636,-14.17068 -8.8194,-14.77744 -2.5173,-0.66035 -3.42867,-3.29581 -1.72922,-5.00058 1.92328,-1.92928 3.58591,-0.95233 7.02167,4.12587 2.34983,3.47312 9.6272,21.66606 9.6272,24.06734 0,0.27923 -1.55235,0.50769 -3.44966,0.50769 -3.01449,0 -3.24525,-0.14993 -1.82933,-1.18851 z m 16.50405,0.95414 c 0.006,-0.12891 0.64064,-2.31942 1.41126,-4.8678 1.28834,-4.26037 1.24754,-5.4813 -0.50684,-15.16472 l -1.90798,-10.53132 5.38714,-10.85628 c 2.96293,-5.970969 5.81496,-10.719926 6.33784,-10.553251 0.52289,0.166675 1.72333,1.751134 2.66764,3.521022 l 1.71691,3.217969 -5.2773,7.96875 -5.27731,7.96875 0.60728,5.625 c 0.33399,3.09375 0.9897,7.40905 1.45711,9.58957 0.7359,3.43299 0.51053,4.65856 -1.68083,9.14062 -1.39187,2.84683 -3.0739,5.17606 -3.73785,5.17606 -0.66395,0 -1.20263,-0.10547 -1.19707,-0.23437 z m 34.56933,-0.39494 c 0,-0.34611 0.63025,-1.3279 1.40057,-2.18175 1.25146,-1.38717 1.0395,-3.11586 -1.99078,-16.23701 -2.76066,-11.9537 -3.17364,-14.9477 -2.22072,-16.0995 2.69627,-3.25894 6.2278,0.21307 5.16305,5.076 -0.31683,1.44703 0.29148,7.81609 1.3518,14.15347 1.7488,10.45222 1.79453,11.72663 0.4923,13.72029 -1.30789,2.00234 -4.19622,3.08197 -4.19622,1.5685 z m 44.49251,-0.85362 c -0.31201,-0.8156 -0.56728,-6.3097 -0.56728,-12.20911 l 0,-10.72619 2.5701,1.61288 c 1.41355,0.88707 2.62506,1.63508 2.69224,1.66223 0.0672,0.0272 -0.43623,3.42437 -1.1187,7.54937 -1.62471,9.82008 -1.6348,9.62351 0.52926,10.3125 1.02804,0.32731 1.86916,1.19948 1.86916,1.93818 0,1.89461 -5.24346,1.77187 -5.97478,-0.13986 z m 48.03085,0.64573 c 0,-0.46046 0.6903,-1.10292 1.534,-1.42769 1.33098,-0.51234 1.46764,-1.8594 1.03254,-10.17843 -0.27581,-5.27336 -0.29966,-8.53324 -0.053,-7.24418 0.84747,4.42893 2.26422,4.42893 2.26052,0 -0.002,-2.32031 0.0526,-5.48437 0.12118,-7.03125 0.0686,-1.54687 -0.0585,-3.23437 -0.28246,-3.75 -0.22395,-0.51562 0.0134,-1.04297 0.52741,-1.17187 0.96558,-0.24215 1.00587,0.99321 0.66499,20.39062 l -0.1977,11.25 -2.80374,0 c -1.54206,0 -2.80374,-0.37674 -2.80374,-0.8372 z m 37.38318,0.12522 c 0,-0.3916 0.86025,-1.25091 1.91166,-1.90958 2.06426,-1.29318 2.04961,-3.79046 -0.11268,-19.21078 -1.03465,-7.37863 -0.086,-10.33027 3.17079,-9.86517 1.77759,0.25384 1.99547,0.77295 1.69626,4.04126 -0.18883,2.0625 -0.28182,9.12891 -0.20665,15.70312 l 0.13667,11.95313 -3.29803,0 c -1.81391,0 -3.29802,-0.32039 -3.29802,-0.71198 z m -47.02788,-7.9599 c -1.64997,-6.93948 -1.68666,-11.37083 -0.14738,-17.79868 0.89703,-3.74587 1.96697,-7.4435 2.37764,-8.21694 1.27714,-2.40529 2.17609,1.50533 1.02753,4.46996 -0.54577,1.40871 -1.03328,4.67067 -1.08336,7.24879 -0.0501,2.57813 -0.15937,5.95313 -0.24288,7.5 -0.0836,1.54687 0.17926,4.18359 0.5839,5.85937 0.57737,2.39115 0.43983,3.04688 -0.6391,3.04688 -0.75614,0 -1.6005,-0.94922 -1.87635,-2.10938 z m -66.86926,-10.40899 c -1.66098,-3.79136 -4.47063,-8.30381 -6.24366,-10.02766 -1.99326,-1.93798 -3.22368,-4.03465 -3.22368,-5.49325 0,-2.23274 0.23976,-2.12208 4.48045,2.0679 6.25854,6.18368 12.32653,20.34638 8.7174,20.34638 -0.39079,0 -2.06952,-3.10202 -3.73051,-6.89337 z m 110.15882,-0.93008 c 0,-1.93981 2.50307,-5.30155 3.94739,-5.30155 0.29105,0 0.68961,1.6875 0.88569,3.75 0.33848,3.56043 0.22533,3.75 -2.23828,3.75 -2.09899,0 -2.5948,-0.42007 -2.5948,-2.19845 z m -121.47377,-4.80979 c -1.55667,-1.66218 -1.96019,-2.89896 -1.51992,-4.65861 1.12656,-4.50261 5.23668,-2.23215 5.23668,2.89277 0,4.00054 -1.12386,4.53449 -3.71676,1.76584 z m 41.30789,0.86133 c -3.00638,-2.11233 -2.80003,-6.3467 0.38012,-7.80021 1.35146,-0.61769 2.52048,-1.00181 2.5978,-0.8536 1.53604,2.94423 3.35619,7.68351 3.35619,8.73878 0,1.82311 -3.68886,1.77363 -6.33411,-0.0849 z m -123.53431,-7.9269 C 111.34748,107.11287 107.00918,105 105.33407,105 c -1.74508,0 -2.54207,-0.41054 -2.27499,-1.17187 0.7914,-2.25591 6.8058,-0.86562 15.81477,3.65576 4.98342,2.50105 9.08389,4.78313 9.11215,5.0713 0.0282,0.28817 -0.47432,1.2323 -1.11684,2.09807 -1.0571,1.4244 -2.00916,1.04014 -10.00861,-4.03957 z m 10.61999,-1.40047 c -1.29358,-1.98041 -1.35253,-2.79001 -0.37546,-5.15625 1.33969,-3.2444 2.78664,-3.53822 5.05301,-1.02608 1.20425,1.33485 1.44856,2.6263 0.97541,5.15625 -0.76494,4.09025 -3.34554,4.55865 -5.65296,1.02608 z m 94.68758,1.77417 c -1.90944,-1.9154 1.66894,-3.65991 9.14029,-4.456 2.57009,-0.27385 5.97919,-0.77104 7.57578,-1.10486 2.2928,-0.47938 3.04006,-0.24837 3.55553,1.09916 1.07618,2.81322 -1.89198,4.12924 -8.74204,3.87605 -3.37018,-0.12456 -7.19166,0.10811 -8.49218,0.51703 -1.30053,0.40893 -2.66735,0.43981 -3.03738,0.0686 z m -47.20826,-23.5508 -4.01212,-0.360833 0.60777,-19.397254 c 0.51879,-16.557112 0.90097,-20.184533 2.61024,-24.774119 1.10136,-2.957277 2.31789,-5.383058 2.70341,-5.390625 0.38551,-0.0076 0.71426,6.630772 0.73054,14.751866 0.0163,8.121094 0.6338,19.195312 1.37226,24.609375 1.60562,11.771745 1.57519,11.2905 0.70093,11.086212 -0.38551,-0.09008 -2.50638,-0.326164 -4.71303,-0.524622 z m 150.78697,-2.073207 c -1.47816,-1.63846 -1.63297,-4.000066 -1.52096,-23.203125 0.10982,-18.826542 0.35388,-22.078566 2.0443,-27.238383 1.05578,-3.222656 2.30587,-5.859375 2.77798,-5.859375 0.47211,0 0.85839,3.367651 0.85839,7.483668 0,4.116018 0.863,16.597124 1.91778,27.735792 2.04665,21.612966 1.91378,22.90554 -2.35466,22.90554 -1.14244,0 -2.81771,-0.820853 -3.72283,-1.824117 z m -91.1674,-2.845608 c -1.16752,-0.742064 -1.40596,-3.991597 -1.42636,-19.438769 -0.0135,-10.201266 -0.38698,-21.395412 -0.83,-24.875881 -0.46699,-3.668778 -0.45669,-6.326748 0.0245,-6.324847 0.45649,0.0018 1.99099,2.216647 3.40999,4.921875 2.20543,4.204496 2.78209,7.013344 3.97196,19.346816 1.87536,19.438852 1.82166,23.797344 -0.31714,25.73898 -1.95084,1.771002 -2.85472,1.889169 -4.83295,0.631826 z m 47.07194,-4.071859 c 0.29753,-2.668691 1.00186,-13.922479 1.56516,-25.008416 0.5633,-11.085938 1.4068,-21.105469 1.87445,-22.265625 0.5687,-1.410876 1.63721,-2.109375 3.22677,-2.109375 1.58956,0 2.65808,0.698499 3.22678,2.109375 0.46764,1.160156 1.31115,11.179687 1.87445,22.265625 0.56329,11.085937 1.26762,22.339725 1.56515,25.008416 l 0.54098,4.852167 -3.32372,-1.570917 -3.32371,-1.570916 -0.30089,-18.28125 -0.30089,-18.28125 -0.24316,18.28125 -0.24315,18.28125 -3.3396,1.570916 -3.33959,1.570917 0.54097,-4.852167 z"
       id="path3412"
       inkscape:connector-curvature="0" />
    <path
       style="fill:#007f7f"
       d="m 128.47824,140.32829 c 1.68932,-2.58628 1.31373,-3.93066 -2.57982,-9.23411 -1.50853,-2.05478 -1.71511,-3.30205 -1.16092,-7.00925 0.827,-5.53201 3.78594,-11.58493 5.66325,-11.58493 1.1435,0 1.18904,0.32406 0.25613,1.82256 -0.93793,1.50655 -0.83316,2.15674 0.60422,3.75 0.95638,1.06009 2.30453,1.92744 2.9959,1.92744 1.723,0 1.57991,1.31479 -0.61214,5.625 -1.02804,2.02142 -1.8929,5.0632 -1.92191,6.75952 -0.0699,4.08631 -1.9697,9.40283 -3.54478,9.91986 -0.92582,0.30391 -0.84604,-0.22144 0.30007,-1.97609 z m 195.24024,-28.25512 c -0.35518,-0.92849 -0.16171,-5.5365 0.42993,-10.24004 0.72567,-5.769033 0.7804,-9.772158 0.16819,-12.30188 -1.30619,-5.397306 -1.19543,-5.71238 1.21092,-3.444669 2.39628,2.258223 5.27989,2.634726 6.99584,0.913419 0.87227,-0.875 1.12149,1.612704 1.12149,11.194669 0,11.184621 -0.72266,15.049651 -2.32702,12.445621 -1.00932,-1.63821 -4.04604,-1.04302 -5.5313,1.08412 -1.31855,1.88836 -1.46936,1.91379 -2.06805,0.34876 z M 189.4081,111.875 c -1.30059,-1.30465 -0.51149,-3.41477 2.78701,-7.45273 l 3.41007,-4.17455 2.19741,2.07081 c 1.30134,1.22637 2.19741,3.15105 2.19741,4.71989 0,3.27357 -1.17284,3.386 -3.18509,0.30533 -0.842,-1.28906 -2.08687,-2.34375 -2.76638,-2.34375 -2.04551,0 -4.60612,3.52287 -4.06615,5.59417 0.52954,2.0313 0.41919,2.27741 -0.57428,1.28083 z m 92.10107,-4.28697 c -0.53104,-1.41251 -0.7326,-3.46171 -0.4479,-4.55377 0.44407,-1.70346 0.99633,-1.90613 3.88705,-1.42648 1.85319,0.3075 4.31569,0.56373 5.47224,0.5694 1.77128,0.008 2.1028,0.51889 2.1028,3.23624 0,3.84941 -0.83436,4.48622 -6.06894,4.632 -3.52529,0.0982 -4.08997,-0.18242 -4.94525,-2.45739 z m -38.38286,-1.25748 c -0.993,-2.18621 -1.46009,-2.36679 -4.7012,-1.8175 -4.45773,0.75549 -4.44802,0.77763 -5.30819,-12.103632 l -0.66699,-9.988211 2.47587,1.131605 c 2.17606,0.994579 2.75737,0.866313 4.80068,-1.059278 l 2.32482,-2.190882 -0.22067,6.020549 c -0.12136,3.311301 0.55403,9.527708 1.50088,13.814249 1.78211,8.06786 1.7049,10.39838 -0.2052,6.1931 z m -58.11858,-3.04256 c -2.3721,-4.486084 -2.63071,-4.591234 -8.37222,-3.403956 -2.70265,0.558876 -3.06804,0.459386 -2.1028,-0.572559 1.67191,-1.787484 1.46946,-2.979534 -1.16823,-6.878533 -1.28504,-1.89954 -2.33645,-3.704933 -2.33645,-4.011984 0,-1.081698 10.10894,0.503942 13.2126,2.072466 1.7284,0.873495 4.69661,3.0813 6.59602,4.906239 l 3.45347,3.318056 -2.76463,4.030811 c -1.52055,2.21694 -3.08778,4.23115 -3.48275,4.47601 -0.39495,0.24486 -1.76072,-1.52658 -3.03501,-3.93655 z m 99.93832,-3.634102 c -2.31671,-0.359025 -2.46772,-0.734222 -3.0564,-7.593913 -0.56912,-6.631707 -0.45795,-7.349117 1.37243,-8.85685 2.56732,-2.11476 7.55229,-2.101463 10.17281,0.02713 2.03768,1.655174 2.04199,1.722091 0.57082,8.866726 -0.81529,3.959437 -1.48235,7.42769 -1.48235,7.707243 0,0.541796 -3.56791,0.471006 -7.57731,-0.150337 z"
       id="path3408"
       inkscape:connector-curvature="0" />
    <path
       style="fill:#fe0000"
       d="m 172.12908,116.71086 c -1.6422,-3.61549 -1.42849,-5.48419 0.53447,-4.67355 0.89953,0.37148 2.37149,0.8877 3.27103,1.14714 1.8287,0.52746 2.23874,2.12805 0.54516,2.12805 -0.59968,0 -0.83143,0.25972 -0.51499,0.57714 0.81084,0.81338 6.32387,-1.24126 7.57405,-2.82276 11.86879,-15.014214 15.88454,-21.508718 15.13986,-24.485043 -0.72246,-2.887482 -5.33682,-5.386126 -8.48368,-4.593846 -1.36519,0.343711 -2.34452,0.187334 -2.34452,-0.374369 0,-0.530554 1.26827,-1.244073 2.81839,-1.585599 3.87244,-0.853188 8.55429,1.977639 9.65852,5.83991 0.71923,2.515653 0.39719,3.676789 -2.19951,7.930242 -1.67317,2.740697 -5.93166,8.627515 -9.4633,13.081825 -5.3404,6.73562 -6.98294,8.20447 -9.75877,8.72684 -1.83568,0.34546 -3.86366,0.8306 -4.50663,1.0781 -0.64297,0.2475 -1.6645,-0.64084 -2.27008,-1.97408 z m 109.74679,-15.21793 c -6.38511,-0.49794 -14.15261,-5.503674 -15.07465,-9.714791 -0.49664,-2.268209 -0.28885,-3.324878 0.81269,-4.132861 1.11421,-0.817274 1.21466,-1.351606 0.40652,-2.162276 -0.59037,-0.592214 -0.81435,-1.336606 -0.49774,-1.654204 0.75937,-0.761749 8.17824,0.510694 8.17824,1.402687 0,0.380422 -1.07355,1.703378 -2.38567,2.939903 -1.86477,1.757335 -2.55348,1.975862 -3.15421,1.00083 -0.53548,-0.869146 -0.96167,-0.93392 -1.40546,-0.213611 -1.1669,1.893992 1.76726,6.140099 5.77573,8.358206 3.4194,1.892146 5.39657,2.214253 14.48075,2.359143 8.62087,0.137494 11.15349,-0.14775 14.02531,-1.57965 2.1953,-1.094587 3.50467,-2.408053 3.50467,-3.515625 0,-0.9725 0.44981,-1.768181 0.99958,-1.768181 1.82055,0 0.44329,4.00005 -2.00649,5.827556 -4.28695,3.198004 -10.15714,3.905834 -23.65927,2.852874 z"
       id="path3406"
       inkscape:connector-curvature="0" />
    <path
       style="fill:#000000"
       d="M 32.24299,210.22106 38.785046,209.87719 49.695137,193.71038 60.60523,177.54359 50.312503,165.88117 C 37.143182,150.95935 37.118344,150.9375 33.331082,150.9375 c -3.834387,0 -5.535065,-1.76912 -5.127585,-5.33393 l 0.301175,-2.63482 28.971962,-0.31301 c 24.612542,-0.26592 28.47977,-0.4901 25.700935,-1.4899 -5.61414,-2.01991 -4.170015,-3.79485 3.271028,-4.02035 3.59813,-0.10904 10.537382,-0.67036 15.420563,-1.24738 l 8.8785,-1.04912 -0.33042,-7.91459 c -0.50858,-12.1819 2.08412,-13.87589 8.50221,-5.55511 4.25032,5.51037 4.47967,5.45487 5.69936,-1.37929 l 0.58561,-3.28125 -8.61114,-5.39062 c -4.97316,-3.11324 -9.6817,-5.39063 -11.14519,-5.39063 -3.07153,0 -4.16048,-1.44872 -2.5511,-3.39397 1.76522,-2.13361 6.54826,-0.92517 15.55207,3.92925 4.23577,2.28372 7.93048,4.15222 8.21045,4.15222 0.27998,0 0.0385,-0.88203 -0.53667,-1.96006 -0.77728,-1.45691 -0.7638,-2.64279 0.0525,-4.61972 1.77978,-4.310201 4.14396,-5.920329 7.66627,-5.221114 1.69084,0.335644 4.0011,0.603253 5.1339,0.594666 3.52105,-0.02663 6.7735,7.152378 4.01512,8.862478 -0.52255,0.32396 -0.93458,-0.39929 -0.93458,-1.64048 0,-1.22095 -0.61747,-3.03882 -1.37215,-4.03971 -1.3001,-1.72426 -1.3737,-1.66361 -1.40187,1.15513 -0.0179,1.79926 -0.98591,4.11488 -2.44924,5.85938 -1.33075,1.58643 -2.03149,2.88443 -1.55721,2.88443 1.9941,0 7.90151,10.60733 11.10979,19.94872 l 3.45208,10.05128 4.48431,0 4.48431,0 1.44504,-4.88118 c 1.34454,-4.54172 1.31178,-5.61666 -0.47101,-15.45699 l -1.91604,-10.57581 6.07236,-11.979223 6.07234,-11.979213 0.65801,-20.016261 c 0.5846,-17.783327 0.89674,-20.605487 2.79804,-25.298166 3.76678,-9.296922 4.50305,-7.386905 5.19162,13.468093 0.3405,10.3125 1.06802,21.492187 1.61673,24.84375 0.5487,3.351562 1.0061,6.401582 1.01643,6.777821 0.0104,0.37624 1.5959,1.499427 3.52347,2.495973 1.92757,0.996546 4.97608,3.430901 6.77447,5.409678 l 3.26979,3.597778 -3.73708,-3.412331 c -2.05539,-1.876776 -5.15123,-4.127 -6.87963,-5.000495 -3.10366,-1.568524 -13.2126,-3.154164 -13.2126,-2.072467 0,0.307052 1.05141,2.112445 2.33645,4.011985 2.63769,3.898999 2.84014,5.091049 1.16823,6.878533 -0.96524,1.031945 -0.59985,1.131435 2.1028,0.572559 5.6269,-1.163578 5.90708,-1.067728 8.10408,2.772216 1.18005,2.0625 2.13288,4.17188 2.11741,4.6875 -0.0155,0.51563 -1.07931,-1.08868 -2.36407,-3.56512 -2.01777,-3.889364 -2.61646,-4.407736 -4.39574,-3.806021 -1.13289,0.383121 -3.11121,0.721791 -4.39626,0.752621 -1.81627,0.0435 -3.22675,1.41272 -6.3353,6.14977 -3.88107,5.91427 -3.98181,6.25943 -3.4204,11.71875 0.31814,3.09375 0.9645,7.42524 1.43633,9.62555 0.73845,3.44358 0.53154,4.64657 -1.48614,8.64071 -1.28921,2.55209 -2.34402,4.86512 -2.34402,5.14008 0,0.27495 6.62383,0.48665 14.71962,0.47045 14.45959,-0.029 14.74855,-0.0694 16.35622,-2.28716 1.55185,-2.1408 1.55413,-2.61257 0.044,-9.11117 -1.71231,-7.36867 -5.03576,-12.80616 -6.60436,-10.80537 -0.49131,0.62667 -1.16957,2.29957 -1.50724,3.71754 -0.33768,1.41796 -1.03452,2.57812 -1.54854,2.57812 -1.16403,0 -0.21346,-4.39842 1.5702,-7.26562 0.72173,-1.16016 1.7231,-2.10938 2.22527,-2.10938 1.2013,0 1.18288,-4.40955 -0.0216,-5.15625 -0.51402,-0.31868 -0.92814,-1.08186 -0.92027,-1.69596 0.008,-0.67088 0.37591,-0.55525 0.92027,0.28971 0.7434,1.15392 0.90852,1.05383 0.92027,-0.55782 0.015,-2.06686 2.68286,-5.06718 4.5056,-5.06718 0.5902,0 1.762,1.05469 2.604,2.34375 1.98888,3.04492 3.18508,2.97616 3.18508,-0.18308 0,-1.4273 -1.10987,-3.77297 -2.55063,-5.39062 -1.40284,-1.57509 1.0382,0.63067 5.42452,4.90167 6.72286,6.54611 8.45171,8.87721 11.01015,14.84555 2.38728,5.56906 2.80082,7.36314 1.93769,8.4064 -0.60353,0.72948 -1.46992,1.32633 -1.9253,1.32633 -0.45539,0 -2.45262,-3.52751 -4.43829,-7.83892 -3.80163,-8.25442 -5.71978,-10.62554 -5.71978,-7.07053 0,1.14193 -1.12522,3.55607 -2.50049,5.36478 -2.46188,3.23777 -2.48322,3.38961 -1.38193,9.8319 0.96042,5.61829 0.91451,6.85572 -0.32479,8.75305 l -1.44336,2.20972 20.215,0 c 18.04946,0 20.15422,-0.15886 19.64771,-1.48293 -0.31201,-0.8156 -0.56728,-7.73946 -0.56728,-15.38634 l 0,-13.90342 -3.71894,-0.63028 c -2.13774,-0.3623 -5.13331,-0.16203 -7.04551,0.47103 -3.3035,1.09366 -6.05798,0.19735 -6.05798,-1.97127 0,-1.51054 5.52015,-3.65929 9.4007,-3.65929 3.79739,0 3.869,-0.0588 3.13893,-2.57812 -0.41093,-1.41797 -0.887,-16.07813 -1.05795,-32.57813 -0.17096,-16.5 -0.40605,-32.071047 -0.52242,-34.602328 -0.28957,-6.298292 1.30388,-6.383505 4.7523,-0.254139 2.58359,4.592159 2.99346,6.513072 4.36067,20.43646 0.82997,8.452335 1.63984,20.006173 1.79969,25.675195 0.15986,5.669021 1.04736,13.998718 1.97223,18.510442 1.75837,8.57762 1.85914,8.69578 7.08297,8.30436 2.95522,-0.22144 4.85893,1.86174 4.3582,4.76904 -0.36428,2.11506 -0.39509,2.1062 -1.45049,-0.41715 -1.50652,-3.60201 -2.98147,-3.22892 -2.36245,0.59759 0.58316,3.60477 -2.03308,7.13678 -5.28635,7.13678 -2.01315,0 -2.24986,0.65071 -3.75147,10.3125 -0.87463,5.62769 -0.80381,6.19212 0.92601,7.37997 1.03019,0.70743 1.87308,1.86759 1.87308,2.57813 0,1.05652 3.5758,1.2919 19.62617,1.2919 18.79945,0 19.71029,-0.0844 21.62336,-2.00344 1.83959,-1.84534 1.94872,-2.63595 1.38299,-10.01893 -0.33781,-4.40853 -0.71085,-8.10733 -0.82897,-8.21957 -0.11812,-0.11224 -1.6561,-0.34982 -3.41774,-0.52794 -2.87238,-0.29045 -3.28408,-0.0336 -3.98898,2.48863 -0.46569,1.66634 -0.38781,4.45582 0.19111,6.84497 1.05134,4.3387 0.67411,5.81128 -1.48866,5.81128 -3.36364,0 -4.89295,-11.75269 -2.69828,-20.73619 1.52396,-6.23811 5.68262,-17.77166 4.77333,-13.23828 -0.23378,1.16562 0.0121,3.2809 0.54625,4.70065 0.86216,2.29127 1.36865,2.54333 4.50716,2.24309 2.96878,-0.284 3.79018,0.0511 5.12157,2.08941 1.10927,1.69824 1.37514,3.20434 0.88491,5.01261 -0.38544,1.42173 -0.60859,4.27246 -0.4959,6.33496 0.22239,4.06987 -1.29974,3.73063 -2.10329,-0.46875 -0.24666,-1.28906 -0.22281,1.97082 0.053,7.24418 0.4351,8.31903 0.29844,9.66609 -1.03254,10.17843 -2.48884,0.95804 -1.75619,2.26489 1.26974,2.26489 l 2.80374,0 0.1977,-11.25 c 0.37658,-21.42908 0.39339,-21.12037 -1.13228,-20.79241 -1.12416,0.24164 -1.17044,0.0652 -0.23365,-0.89062 0.64253,-0.65559 1.22744,-2.68963 1.29982,-4.5201 0.10148,-2.56682 0.28581,-2.14864 0.80583,1.82813 0.37083,2.83594 0.45737,12.01172 0.1923,20.39063 l -0.48195,15.23437 14.58124,0 c 13.99805,0 14.67574,-0.0878 16.94433,-2.1969 2.21126,-2.05571 2.32578,-2.59792 1.78217,-8.4375 l -0.58094,-6.2406 -3.13588,0 c -4.71388,0 -7.13011,-2.89624 -6.721,-8.0562 0.57302,-7.22733 -1.26264,-4.4956 -3.20866,4.77495 -0.3734,1.77877 -0.43196,1.78604 -1.14093,0.14177 -0.43976,-1.0199 -0.18988,-3.52783 0.60719,-6.09375 1.40176,-4.5126 1.24711,-4.41921 7.844,-4.73689 1.71809,-0.0828 2.04026,-1.07219 3.08603,-9.47795 0.64222,-5.162058 0.85944,-9.885865 0.4827,-10.497343 -0.37674,-0.611478 -0.5806,-12.46341 -0.45302,-26.337625 0.21368,-23.238263 0.39325,-25.679779 2.27903,-30.987029 2.99365,-8.425229 4.76895,-7.81787 5.08253,1.738817 0.13534,4.125 1.08161,16.472193 2.1028,27.438207 1.99058,21.37578 2.47956,46.596243 0.92213,47.561793 -0.51402,0.31868 -0.93458,1.63693 -0.93458,2.92946 0,1.29253 -0.46384,3.21945 -1.03074,4.28204 -0.69817,1.30862 -0.8162,5.51404 -0.3658,13.03362 l 0.66495,11.10163 10.41253,0.2981 c 5.72689,0.16396 -62.47627,0.38829 -151.56258,0.4985 l -161.975095,0.2004 0.292859,3.04687 0.292858,3.04688 161.682238,0.47273 161.68224,0.47274 -136.21495,0.23039 c -110.22828,0.18644 -136.21495,0.46028 -136.21495,1.43541 0,0.66277 -8.558196,13.84636 -19.018213,29.29688 l -19.018214,28.09185 155.233167,0.47288 155.23316,0.47289 -163.5514,0.044 C 99.299064,210.54517 28.644859,210.4102 32.24299,210.22107 Z m 44.704874,-57.64294 c 0.414821,-1.5217 -0.872336,-1.64062 -17.757607,-1.64062 l -18.204845,0 2.638135,3.1535 c 1.450974,1.73442 6.195019,7.1796 10.542322,12.10039 l 7.904189,8.9469 7.215283,-10.45977 c 3.968406,-5.75287 7.416542,-11.19805 7.662523,-12.1004 z M 105.0021,141.11664 c 0.2635,-0.68878 1.76918,-1.53658 3.34596,-1.88398 1.67586,-0.36923 2.86689,-1.22752 2.86689,-2.06597 0,-1.13041 -0.74261,-1.31757 -3.50467,-0.88329 -1.92757,0.30307 -8.866824,0.83173 -15.420562,1.17479 -6.553738,0.34306 -11.915888,0.89254 -11.915888,1.22106 0,2.73661 23.6196,5.07419 24.62827,2.43739 z m 10.72261,-8.22602 c -0.3008,-6.99783 -0.19547,-8.46285 0.38756,-5.39062 0.44034,2.32031 1.9368,6.53906 3.32548,9.375 2.9475,6.01936 5.6812,7.16542 8.13411,3.41013 1.84617,-2.82644 1.38144,-3.86618 -6.76231,-15.12888 -3.63128,-5.02203 -6.03497,-7.5 -7.27517,-7.5 -1.73871,0 -1.85214,0.65791 -1.85214,10.74287 l 0,10.74286 -3.03738,0.87713 c -4.64691,1.34192 -3.62416,2.48089 2.22775,2.48089 l 5.26514,0 -0.41304,-9.60938 z m 3.70109,6.09375 c -1.10357,-1.93359 -2.14079,-3.6914 -2.30493,-3.90625 -0.16414,-0.21484 -0.29844,1.3672 -0.29844,3.51563 0,3.52742 0.22353,3.90625 2.30492,3.90625 l 2.30494,0 -2.00649,-3.51563 z m 22.86963,2.22457 c 1.5539,-1.20032 1.52146,-1.58626 -0.60961,-7.25398 -3.04113,-8.08808 -4.47898,-11.14246 -5.2453,-11.14246 -1.12371,0 -3.57225,6.86627 -4.11955,11.55217 -0.29042,2.48652 -0.98423,5.2287 -1.5418,6.09375 -0.87786,1.362 -0.93276,1.32149 -0.40954,-0.30217 0.33232,-1.03125 0.84411,-3.98438 1.13729,-6.5625 0.29319,-2.57813 1.31473,-6.25272 2.27009,-8.16577 C 135.83952,121.29788 135.9543,120 134.257,120 c -0.69137,0 -2.03952,-0.86735 -2.9959,-1.92744 -1.43738,-1.59326 -1.54215,-2.24345 -0.60422,-3.75 0.93291,-1.4985 0.88737,-1.82256 -0.25613,-1.82256 -1.87731,0 -4.83625,6.05292 -5.66325,11.58493 -0.55419,3.7072 -0.34761,4.95447 1.16092,7.00925 3.80908,5.1884 4.25772,6.66531 2.73352,8.99879 l -1.40744,2.15474 6.71485,0.11451 c 4.3681,0.0744 7.28844,-0.32858 8.35608,-1.15328 z m 6.3027,0.78337 c 0,-2.40128 -7.27737,-20.59422 -9.6272,-24.06734 -3.43576,-5.0782 -5.09839,-6.05515 -7.02167,-4.12587 -1.69945,1.70477 -0.78808,4.34023 1.72922,5.00058 2.31304,0.60676 5.56821,6.06101 8.8194,14.77744 2.29165,6.14391 2.34208,6.61885 0.82126,7.73437 -1.41592,1.03858 -1.18516,1.18851 1.82933,1.18851 1.89731,0 3.44966,-0.22846 3.44966,-0.50769 z m 16.15998,-4.66837 c 2.19136,-4.48206 2.41673,-5.70763 1.68083,-9.14062 -0.46741,-2.18052 -1.12312,-6.49582 -1.45711,-9.58957 l -0.60728,-5.625 5.27731,-7.96875 5.2773,-7.96875 -1.71691,-3.217969 c -0.94431,-1.769888 -2.14475,-3.354347 -2.66764,-3.521022 -0.52288,-0.166675 -3.37491,4.582282 -6.33784,10.553251 l -5.38714,10.85628 1.90798,10.53132 c 1.75438,9.68342 1.79518,10.90435 0.50684,15.16472 -1.69356,5.60042 -1.67264,5.10217 -0.21419,5.10217 0.66395,0 2.34598,-2.32923 3.73785,-5.17606 z m 33.83063,2.97825 c 1.302,-1.99331 1.25742,-3.26256 -0.47914,-13.64165 -1.05308,-6.29412 -1.66593,-12.79338 -1.36187,-14.44282 0.72875,-3.95338 -1.48257,-7.218 -3.88787,-5.73974 -0.90317,0.55507 -1.95514,2.18329 -2.33772,3.61824 -0.38257,1.43496 -0.42502,2.3376 -0.0943,2.00589 0.33068,-0.33172 1.98973,5.38871 3.68676,12.71207 2.75904,11.90633 2.93699,13.47984 1.68174,14.8712 -1.77291,1.96517 -1.77999,2.81462 -0.0235,2.81462 0.75917,0 2.02632,-0.98902 2.81589,-2.19781 z m 46.27107,0.85474 c 0,-0.7387 -0.84112,-1.61087 -1.86916,-1.93818 -2.16406,-0.68899 -2.15397,-0.49242 -0.52926,-10.3125 0.68247,-4.125 1.18589,-7.52222 1.1187,-7.54937 -0.0672,-0.0272 -1.27869,-0.77516 -2.69224,-1.66223 l -2.5701,-1.61288 0,10.72619 c 0,5.89941 0.25527,11.39351 0.56728,12.20911 0.73132,1.91173 5.97478,2.03447 5.97478,0.13986 z m 85.89863,-10.61006 c -0.0751,-6.57421 0.0179,-13.64062 0.20665,-15.70312 0.29921,-3.26831 0.0813,-3.78742 -1.69626,-4.04126 -3.25675,-0.4651 -4.20544,2.48654 -3.17079,9.86517 2.16229,15.42032 2.17694,17.9176 0.11268,19.21078 -2.80191,1.75529 -2.34381,2.62156 1.38636,2.62156 l 3.29803,0 -0.13667,-11.95313 z m -50.97181,2.34375 c -0.40464,-1.67578 -0.6674,-4.3125 -0.5839,-5.85937 0.0835,-1.54687 0.1928,-4.92187 0.24288,-7.5 0.0501,-2.57812 0.53759,-5.84008 1.08336,-7.24879 1.14856,-2.96463 0.24961,-6.87525 -1.02753,-4.46996 -1.97919,3.72749 -3.97545,15.25824 -3.3702,19.46694 1.02538,7.13023 1.55764,8.65806 3.01629,8.65806 1.07893,0 1.21647,-0.65573 0.6391,-3.04688 z m -64.39032,-3.47627 c 1.21053,-1.96479 -5.4797,-15.00049 -9.98128,-19.44823 -4.24069,-4.18998 -4.48045,-4.30064 -4.48045,-2.0679 0,1.4586 1.23042,3.55527 3.22368,5.49325 1.77303,1.72386 4.58268,6.23631 6.24366,10.02766 2.9472,6.72724 3.86478,7.82869 4.99439,5.99522 z m 109.99751,-8.47685 c -0.19608,-2.0625 -0.59464,-3.75 -0.88569,-3.75 -1.44432,0 -3.94739,3.36174 -3.94739,5.30155 0,1.77838 0.49581,2.19845 2.5948,2.19845 2.46361,0 2.57676,-0.18957 2.23828,-3.75 z m -122.59009,-5.02408 c 0,-5.12492 -4.11012,-7.39538 -5.23668,-2.89277 -0.44027,1.75965 -0.0367,2.99643 1.51992,4.65861 2.5929,2.76865 3.71676,2.2347 3.71676,-1.76584 z m 43.92524,2.71214 c 0,-1.05527 -1.82015,-5.79455 -3.35619,-8.73878 -0.0773,-0.14821 -1.24634,0.23591 -2.5978,0.8536 -4.90791,2.24318 -2.00915,9.25962 3.82549,9.25962 1.24705,0 2.1285,-0.56917 2.1285,-1.37444 z M 127.986,112.55519 c -0.0282,-0.28817 -4.12873,-2.57025 -9.11215,-5.0713 -9.00897,-4.52138 -15.02337,-5.91167 -15.81477,-3.65576 -0.26708,0.76133 0.52991,1.17187 2.27499,1.17187 1.67511,0 6.01341,2.11287 11.52648,5.61369 7.99945,5.07971 8.95151,5.46397 10.00861,4.03957 0.64252,-0.86577 1.1451,-1.8099 1.11684,-2.09807 z m 200.9838,-2.86769 c 0.96855,0 2.02517,0.42876 2.34803,0.95279 1.60436,2.60403 2.32702,-1.261 2.32702,-12.445621 0,-9.581965 -0.24922,-12.069669 -1.12149,-11.194669 -1.71595,1.721307 -4.59956,1.344804 -6.99584,-0.913419 -2.40635,-2.267711 -2.51711,-1.952637 -1.21092,3.444669 0.61221,2.529722 0.55748,6.532847 -0.16819,12.30188 -0.59164,4.70354 -0.78511,9.31154 -0.42993,10.24004 0.59869,1.56503 0.7495,1.5396 2.06805,-0.34876 0.78224,-1.12031 2.21471,-2.03691 3.18327,-2.03691 z m -195.8363,-1.50036 c 0.47315,-2.52995 0.22884,-3.8214 -0.97541,-5.15625 -2.26637,-2.51214 -3.71332,-2.21832 -5.05301,1.02608 -0.97707,2.36624 -0.91812,3.17584 0.37546,5.15625 2.30742,3.53257 4.88802,3.06417 5.65296,-1.02608 z m 100.56418,2.2146 c 6.85006,0.25319 9.81822,-1.06283 8.74204,-3.87605 -0.51547,-1.34753 -1.26273,-1.57854 -3.55553,-1.09916 -1.59659,0.33382 -5.00569,0.83101 -7.57578,1.10486 -5.06438,0.53962 -9.81309,2.04634 -9.81309,3.11359 0,1.47426 1.46884,1.97855 3.71018,1.27379 1.30052,-0.40892 5.122,-0.64159 8.49218,-0.51703 z m 9.71603,-10.26429 c -0.90166,-4.286541 -1.77149,-12.527145 -1.93299,-18.312468 -0.16148,-5.785322 -0.93429,-17.175947 -1.71733,-25.3125 -1.22322,-12.7103 -1.78722,-15.486428 -4.00477,-19.712329 -1.41958,-2.705228 -2.95455,-4.920072 -3.41104,-4.921875 -0.4812,-0.0019 -0.4915,2.656069 -0.0245,6.324847 0.44302,3.480469 0.81652,14.722131 0.83,24.981471 0.0242,18.432669 0.0493,18.66451 2.1288,19.597061 1.64283,0.736757 2.56512,0.559989 4.20561,-0.806048 l 2.1013,-1.749763 -2.06319,2.243168 c -1.83632,1.996512 -2.33876,2.117211 -4.56942,1.09768 l -2.50624,-1.145487 0.66699,9.988211 c 0.86017,12.881262 0.85046,12.859122 5.30819,12.103632 3.24111,-0.54929 3.7082,-0.36871 4.7012,1.8175 1.8884,4.15753 1.99254,1.91337 0.28739,-6.1931 z M 180.34422,87.421875 c -0.0163,-0.386719 -0.6338,-5.132813 -1.37226,-10.546875 -0.73846,-5.414063 -1.35597,-16.488281 -1.37226,-24.609375 -0.0163,-8.121094 -0.34503,-14.759434 -0.73054,-14.751866 -0.38552,0.0076 -1.60205,2.433349 -2.70341,5.390625 -1.70927,4.589586 -2.09145,8.217007 -2.61024,24.774119 l -0.60777,19.397254 4.01212,0.360833 c 2.20665,0.198458 4.32752,0.434539 4.71303,0.524622 0.38552,0.09009 0.68761,-0.152618 0.67133,-0.539337 z m 152.30024,-1.561083 c 0.84512,-1.021489 0.65645,-5.985841 -0.82014,-21.578832 -1.05478,-11.138668 -1.91778,-23.619774 -1.91778,-27.735792 0,-4.116017 -0.38628,-7.483668 -0.85839,-7.483668 -0.47211,0 -1.7222,2.636719 -2.77798,5.859375 -1.69042,5.159817 -1.93448,8.411841 -2.0443,27.238383 -0.11201,19.203059 0.0428,21.564665 1.52096,23.203125 1.92934,2.138559 5.33657,2.384265 6.89763,0.497409 z m -40.1211,14.099686 c 0,-0.365494 0.66706,-3.904059 1.48235,-7.863491 1.47117,-7.144635 1.46686,-7.211552 -0.57082,-8.866726 -2.53801,-2.061574 -7.27985,-2.154268 -10.06586,-0.196768 -1.947,1.367989 -2.06332,2.008044 -1.66116,9.140625 l 0.43244,7.669632 -0.85032,-6.09375 c -1.18804,-8.513875 1.63,-60.573055 3.4382,-63.515625 0.77499,-1.261182 2.21837,-2.109375 3.58956,-2.109375 4.2783,0 4.77714,2.405782 6.41492,30.9375 1.39617,24.322882 1.40269,27.347344 0.0727,33.728838 -1.27339,6.109868 -2.28202,9.278562 -2.28202,7.16914 z M 288.03274,61.875 l 0.24316,-18.28125 0.30089,18.28125 0.30089,18.28125 3.32371,1.570916 3.32372,1.570917 -0.54098,-4.852167 c -0.29753,-2.668691 -1.00186,-13.922479 -1.56515,-25.008416 -0.5633,-11.085938 -1.40681,-21.105469 -1.87445,-22.265625 -0.5687,-1.410876 -1.63722,-2.109375 -3.22678,-2.109375 -1.58956,0 -2.65807,0.698499 -3.22677,2.109375 -0.46765,1.160156 -1.31115,11.179687 -1.87445,22.265625 -0.5633,11.085937 -1.26763,22.339725 -1.56516,25.008416 l -0.54097,4.852167 3.33959,-1.570917 3.3396,-1.570916 0.24315,-18.28125 z M 201.86916,15.822708 c 0,-4.162407 -0.1868,-4.646783 -1.40187,-3.635208 -1.14067,0.949625 -1.40187,0.903763 -1.40187,-0.246136 0,-1.227612 3.69562,-4.441364 5.10731,-4.441364 0.27509,0 0.50016,2.953125 0.50016,6.5625 0,5.208334 -0.28927,6.5625 -1.40187,6.5625 -1.06365,0 -1.40186,-1.158588 -1.40186,-4.802292 z m 7.41365,3.319916 c -0.96563,-1.167144 -0.98828,-1.864912 -0.10651,-3.28125 0.87016,-1.397715 0.87016,-2.200033 0,-3.597748 -0.88177,-1.416338 -0.85912,-2.114106 0.10651,-3.2812498 2.83588,-3.4277049 9.07112,-0.407662 6.77453,3.2812498 -0.87017,1.397715 -0.87017,2.200033 0,3.597748 1.42628,2.290978 -0.35958,4.763626 -3.44052,4.763626 -1.15917,0 -2.65948,-0.66707 -3.33401,-1.482376 z m 4.55796,-2.033249 c -0.37937,-1.976103 -2.03802,-1.851501 -2.4607,0.184855 -0.17631,0.84936 0.33887,1.45577 1.23675,1.45577 0.96258,0 1.42096,-0.614435 1.22395,-1.640625 z m 0.17792,-6.383453 c 0,-0.7430076 -0.63084,-1.350922 -1.40187,-1.350922 -1.40769,0 -1.9212,1.979054 -0.80423,3.099513 0.87219,0.874914 2.2061,-0.182363 2.2061,-1.748591 z m 6.14152,8.425863 C 217.05649,16.038365 219.06214,7.5 222.89719,7.5 c 2.34879,0 4.20561,2.897416 4.20561,6.5625 0,3.665084 -1.85682,6.5625 -4.20561,6.5625 -0.6976,0 -1.92924,-0.662947 -2.73698,-1.473215 z m 3.96896,-5.668867 c -0.16357,-2.001543 -0.71796,-3.639168 -1.23198,-3.639168 -1.09176,0 -1.79234,5.595759 -0.96979,7.746013 0.99994,2.613955 2.5194,-0.220204 2.20177,-4.106845 z m 67.45961,-0.47271 c 0,-4.1624077 -0.18679,-4.6467831 -1.40187,-3.635208 -1.14066,0.949625 -1.40187,0.903763 -1.40187,-0.2461363 0,-1.227612 3.69563,-4.4413637 5.10731,-4.4413637 0.27509,0 0.50017,2.953125 0.50017,6.5625 0,5.208334 -0.28927,6.5625 -1.40187,6.5625 -1.06366,0 -1.40187,-1.158588 -1.40187,-4.802292 z m 7.41365,3.319916 c -0.96562,-1.167144 -0.98828,-1.864912 -0.10651,-3.28125 0.87017,-1.397715 0.87017,-2.200033 0,-3.5977481 -0.88177,-1.4163371 -0.85911,-2.1141058 0.10651,-3.2812497 2.83588,-3.4277049 9.07112,-0.407662 6.77454,3.2812497 -0.87017,1.3977151 -0.87017,2.2000331 0,3.5977481 1.42628,2.290978 -0.35958,4.763626 -3.44053,4.763626 -1.15917,0 -2.65947,-0.66707 -3.33401,-1.482376 z m 4.55797,-2.033249 c -0.37938,-1.976103 -2.03802,-1.851501 -2.4607,0.184855 -0.17631,0.84936 0.33886,1.45577 1.23674,1.45577 0.96258,0 1.42097,-0.614435 1.22396,-1.640625 z m 0.17791,-6.3834534 c 0,-0.7430068 -0.63084,-1.3509216 -1.40187,-1.3509216 -1.40769,0 -1.92119,1.979054 -0.80422,3.0995128 0.87219,0.8749142 2.20609,-0.1823625 2.20609,-1.7485912 z m 6.14153,8.4258634 C 306.77612,13.225865 308.78176,4.6875 312.61682,4.6875 c 2.34878,0 4.2056,2.8974163 4.2056,6.5625 0,3.665084 -1.85682,6.5625 -4.2056,6.5625 -0.6976,0 -1.92925,-0.662947 -2.73698,-1.473215 z m 3.96896,-5.668867 c -0.16357,-2.0015426 -0.71796,-3.639168 -1.23198,-3.639168 -1.09177,0 -1.79235,5.595759 -0.9698,7.746013 0.99995,2.613955 2.5194,-0.220204 2.20178,-4.106845 z m -84.51372,1.114085 c -0.93053,-2.4325036 0.37372,-4.4429855 2.67008,-4.1158813 1.54461,0.2200214 2.10699,0.9256962 2.10699,2.6438783 0,1.718182 -0.56238,2.423857 -2.10699,2.643878 -1.26381,0.180024 -2.33232,-0.288936 -2.67008,-1.171875 z m 3.3752,-1.472003 c 0,-0.515625 -0.42056,-0.9375 -0.93458,-0.9375 -0.51402,0 -0.93458,0.421875 -0.93458,0.9375 0,0.515625 0.42056,0.9375 0.93458,0.9375 0.51402,0 0.93458,-0.421875 0.93458,-0.9375 z M 319.0547,8.9720033 c -0.93053,-2.4325039 0.37372,-4.4429858 2.67009,-4.1158816 1.54461,0.2200214 2.10698,0.9256962 2.10698,2.6438783 0,1.7181821 -0.56237,2.4238566 -2.10698,2.643878 -1.26381,0.180024 -2.33233,-0.2889361 -2.67009,-1.1718748 z M 322.4299,7.5 c 0,-0.515625 -0.42056,-0.9375 -0.93458,-0.9375 -0.51402,0 -0.93458,0.421875 -0.93458,0.9375 0,0.515625 0.42056,0.9375 0.93458,0.9375 0.51402,0 0.93458,-0.421875 0.93458,-0.9375 z"
       id="path3404"
       inkscape:connector-curvature="0" />
  </g>
</svg>
