<?xml version="1.0" encoding="UTF-8" standalone="no"?>
<!-- Created with Inkscape (http://www.inkscape.org/) -->

<svg
   xmlns:dc="http://purl.org/dc/elements/1.1/"
   xmlns:cc="http://creativecommons.org/ns#"
   xmlns:rdf="http://www.w3.org/1999/02/22-rdf-syntax-ns#"
   xmlns:svg="http://www.w3.org/2000/svg"
   xmlns="http://www.w3.org/2000/svg"
   xmlns:sodipodi="http://sodipodi.sourceforge.net/DTD/sodipodi-0.dtd"
   xmlns:inkscape="http://www.inkscape.org/namespaces/inkscape"
   id="svg3366"
   version="1.1"
   inkscape:version="0.91 r13725"
   width="525"
   height="250"
   viewBox="0 0 525 250"
   sodipodi:docname="bb750202.svg">
  <metadata
     id="metadata3372">
    <rdf:RDF>
      <cc:Work
         rdf:about="">
        <dc:format>image/svg+xml</dc:format>
        <dc:type
           rdf:resource="http://purl.org/dc/dcmitype/StillImage" />
        <dc:title></dc:title>
      </cc:Work>
    </rdf:RDF>
  </metadata>
  <defs
     id="defs3370" />
  <sodipodi:namedview
     pagecolor="#bfbfbf"
     bordercolor="#666666"
     borderopacity="1"
     objecttolerance="10"
     gridtolerance="10"
     guidetolerance="10"
     inkscape:pageopacity="0"
     inkscape:pageshadow="2"
     inkscape:window-width="1638"
     inkscape:window-height="808"
     id="namedview3368"
     showgrid="false"
     inkscape:zoom="1.2860577"
     inkscape:cx="259.25237"
     inkscape:cy="168.64835"
     inkscape:window-x="0"
     inkscape:window-y="0"
     inkscape:window-maximized="0"
     inkscape:current-layer="svg3366" />
  <g
     id="g4315"
     transform="translate(-8.6795127,19.304832)">
    <path
       id="path4304"
       d="m 411.60352,91.402344 c -0.65477,0.78053 0.69139,12.050776 1.43945,12.050776 0.45224,0 0.82226,-0.63328 0.82226,-1.4082 0,-0.81683 1.44778,0.1983 3.44336,2.41406 1.8932,2.10209 5.36153,4.82579 7.70899,6.05274 0.56346,0.2945 1.1571,0.55136 1.76367,0.79101 l -0.32813,-2.22265 c -0.39025,-0.17105 -0.78092,-0.3495 -1.16796,-0.54297 -6.54429,-3.27135 -12.54143,-10.380299 -7.68164,-9.105469 1.02804,0.26975 1.86914,0.300426 1.86914,0.06641 0,-0.6842 -7.56104,-8.462983 -7.86914,-8.095703 z"
       style="fill:#fe0000"
       inkscape:connector-curvature="0" />
    <path
       inkscape:connector-curvature="0"
       id="path3384-4"
       d="m 27.008108,128.1052 c -0.34268,-0.34375 -0.623053,-1.82031 -0.623053,-3.28125 l 0,-2.65625 222.429905,0 262.4299,0 0,3.28125 0,3.28125 -261.80685,0 c -121.99377,0 -222.087224,-0.28125 -222.429902,-0.625 z m 45.557954,-9.20742 c -0.537351,-2.14767 0.417467,-11.22886 2.508211,-23.85539 0.463921,-2.801731 0.843492,-7.779713 0.843492,-11.062182 0,-7.315794 1.866998,-11.500013 5.131304,-11.500013 3.007404,0 4.454756,2.864438 3.677838,7.278763 -0.339041,1.926368 -2.249515,10.221263 -4.245499,18.433099 -1.995985,8.211843 -3.629064,15.905403 -3.629064,17.096803 0,1.58949 0.870822,2.53117 3.271028,3.53717 1.799065,0.75405 3.271028,1.60346 3.271028,1.88758 0,0.28413 -2.305072,0.51659 -5.122381,0.51659 -4.677808,0 -5.17303,-0.20243 -5.705957,-2.33242 z m 54.753568,0.88897 c 0,-0.7939 5.95272,-7.77766 13.22827,-15.51946 15.84871,-16.864378 19.07075,-18.993693 22.68268,-14.990083 1.29027,1.430186 1.40946,2.193894 0.58392,3.741265 -0.57051,1.06934 -7.31807,6.815798 -14.99459,12.769918 -7.67651,5.95412 -14.18618,11.19716 -14.46591,11.6512 -0.27974,0.45405 0.75672,1.10433 2.30327,1.44506 4.84817,1.06817 3.0712,2.34555 -3.26287,2.34555 -4.84633,0 -6.07477,-0.2919 -6.07477,-1.44345 z m 40.19087,0.042 c -0.93883,-1.13476 -0.75337,-2.4052 0.97449,-6.67569 1.67099,-4.12991 1.90684,-5.63907 1.08707,-6.95582 -0.86663,-1.39204 -0.63244,-1.95403 1.35998,-3.26359 2.28616,-1.50264 2.49896,-1.48964 4.24221,0.25906 1.82403,1.82973 1.81698,1.87749 -1.14763,7.7687 -2.8239,5.61157 -2.89331,5.99339 -1.30186,7.16072 0.9246,0.6782 2.23155,1.23309 2.90434,1.23309 0.67278,0 1.22324,0.42187 1.22324,0.9375 0,1.51508 -8.03463,1.11604 -9.34184,-0.46397 z m 51.35715,-0.54995 c -0.81602,-1.52951 -0.50458,-4.26587 1.44049,-12.65625 2.442,-10.534013 2.52373,-10.704855 5.12142,-10.704855 l 2.63981,0 -2.74092,9.140625 c -3.30031,11.00616 -3.20795,12.54347 0.82296,13.69809 4.47062,1.28057 3.6976,2.47379 -1.60264,2.47379 -3.74407,0 -4.84104,-0.3768 -5.68112,-1.95142 z m 160.55587,-1.56421 -3.41565,-3.51562 1.52446,-9.50012 1.52445,-9.500123 -3.43867,-9.122953 c -1.89127,-5.017642 -3.43867,-10.485797 -3.43867,-12.151474 0,-4.823234 4.79976,-7.960877 7.38955,-4.830614 0.592,0.715545 1.91858,5.757832 2.94797,11.205081 l 1.8716,9.904089 -1.92031,11.290274 -1.92031,11.29027 1.89052,3.7173 c 3.08299,6.06206 2.08553,6.46366 -3.01494,1.21389 z m 46.02956,-2.34375 c 0.002,-3.22265 -0.4841,-13.55884 -1.07894,-22.969297 -1.01557,-16.066158 -0.97838,-17.224268 0.60954,-18.984375 0.93008,-1.030969 2.41551,-1.874473 3.30094,-1.874473 3.7533,0 3.92035,1.68371 2.37508,23.940227 -0.81082,11.678408 -1.25838,21.583798 -0.99456,22.011988 0.26382,0.42819 1.73652,1.05545 3.27269,1.3939 4.53885,1.00002 3.19416,2.34139 -2.34717,2.34139 l -5.14019,0 0.003,-5.85937 z m 29.41994,-4.15281 c -2.04689,-1.3817 -3.82916,-2.75279 -3.96061,-3.04688 -0.13144,-0.29409 -4.22965,-6.23002 -9.10712,-13.190955 -8.03145,-11.46218 -8.86726,-13.054273 -8.85885,-16.875 0.0186,-8.44883 1.12421,-7.380673 13.01697,12.576022 6.30501,10.580153 12.0493,19.724203 12.76508,20.320113 1.40876,1.17282 1.74164,2.72887 0.58378,2.72887 -0.39469,0 -2.39235,-1.13048 -4.43925,-2.51219 z m -341.4833,-1.71329 c -4.42609,-1.38426 -8.36821,-4.8862 -20.788853,-18.467521 l -7.464215,-8.161726 0.646456,-4.324341 0.646455,-4.324342 2.7756,2.642317 c 1.526581,1.453275 7.557105,8.126693 13.401167,14.829818 5.84406,6.703125 12.11306,13.365635 13.93111,14.805595 5.43413,4.30399 4.34384,5.34318 -3.14772,3.0002 z m 49.44393,-5.61829 c 0,-0.77344 0.4368,-1.40625 0.97066,-1.40625 1.48081,0 18.38088,-12.929881 18.9936,-14.531589 0.59036,-1.543249 3.90848,-1.91884 4.75881,-0.538668 0.81236,1.318524 -1.23797,5.166454 -3.52789,6.620962 -17.36554,11.030165 -21.19518,12.810915 -21.19518,9.855545 z m 75.93253,-0.19315 c -1.15767,-0.2236 -2.53467,-1.21219 -3.06,-2.19684 -1.3066,-2.449019 -0.16297,-6.516265 1.83223,-6.516265 2.12498,0 5.37191,3.57776 6.1684,6.796875 0.67524,2.72912 0.20739,2.91057 -4.94063,1.91623 z m -77.5854,-3.398 -2.12015,-1.180956 2.72606,-2.619895 c 2.65377,-2.550423 2.79054,-2.577518 5.15754,-1.021753 2.95412,1.941661 2.96206,2.044194 0.32867,4.247911 -2.47898,2.074513 -3.26618,2.148773 -6.09212,0.574693 z m 115.67156,-2.29676 c -4.54983,-1.46215 -6.1976,-6.968595 -2.96379,-9.904294 2.40155,-2.180165 3.79947,-1.934545 4.85608,0.85323 1.85148,4.884963 0.79962,9.916144 -1.89229,9.051064 z m -63.78505,-4.492072 c -1.41355,-0.76926 -2.57009,-1.807057 -2.57009,-2.306214 0,-1.239002 3.477,-1.152657 4.25222,0.105596 0.42037,0.682295 3.26147,0.801921 8.70001,0.366318 6.92804,-0.554906 8.44591,-0.994955 10.67989,-3.096224 2.07388,-1.950671 2.93018,-2.243057 4.20561,-1.436018 2.42355,1.533509 2.01336,5.232136 -0.73493,6.626886 -3.41614,1.733686 -21.21568,1.544796 -24.53271,-0.260344 z m -23.65314,-0.815115 c -1.45163,-1.081307 -1.60738,-1.690154 -0.7794,-3.046875 1.547,-2.534896 3.99432,-2.595842 6.57511,-0.16374 2.14912,2.025301 2.19403,2.250105 0.67257,3.366099 -2.13158,1.563529 -4.22822,1.513131 -6.46828,-0.155484 z m 160.33539,-1.417046 c 0,-0.491363 0.46952,-1.927105 1.04339,-3.190537 0.80491,-1.772097 0.66529,-4.29999 -0.61084,-11.059737 -0.90982,-4.819424 -1.69477,-10.871963 -1.74433,-13.450088 -0.0783,-4.073558 0.16543,-4.724122 1.86085,-4.967116 2.86425,-0.410516 4.80053,2.258604 3.34016,4.604346 -0.88844,1.427048 -0.89917,4.121663 -0.0489,12.267807 0.99347,9.517777 0.94158,10.714861 -0.58795,13.563896 -1.60578,2.991067 -3.2524,4.120794 -3.2524,2.231429 z M 223.90177,88.18332 c 0.2877,-1.160156 0.81193,-4.957031 1.16495,-8.4375 0.35303,-3.480469 0.96483,-6.328125 1.35954,-6.328125 1.22735,0 3.69711,8.566225 3.69711,12.823255 0,4.028752 -0.0191,4.051745 -3.37235,4.051745 -3.02917,0 -3.31911,-0.214645 -2.84925,-2.109375 z m 96.12778,-3.464762 c -3.74174,-1.278548 -6.71408,-3.406 -12.14954,-8.696053 -3.95773,-3.851874 -8.14462,-7.506452 -9.30417,-8.121285 -1.99536,-1.058001 -2.03291,-1.264107 -0.70094,-3.847896 0.77404,-1.501509 1.40735,-3.483791 1.40735,-4.405071 0,-1.061536 4.96345,3.295021 13.5514,11.894442 7.45327,7.463224 13.5514,13.89136 13.5514,14.284748 0,0.962972 -0.59685,0.858835 -6.3555,-1.108885 z m -45.06934,-0.547376 c -1.95506,-2.363065 0.27054,-6.065987 3.6459,-6.065987 2.29663,0 3.92672,-1.418543 10.30041,-8.963688 4.1646,-4.930028 7.57199,-9.570653 7.57199,-10.3125 0,-0.741846 0.42056,-1.348812 0.93458,-1.348812 1.42267,0 1.1167,3.48982 -0.59752,6.815116 -1.29194,2.506157 -11.14519,16.309273 -14.37536,20.138009 -1.37557,1.630471 -6.04969,1.466665 -7.48,-0.262138 z M 228.14329,69.460417 c -0.81215,-0.659434 -5.37111,-7.527097 -10.13103,-15.261472 -4.75992,-7.734375 -10.79163,-16.266907 -13.40381,-18.961181 -2.61216,-2.694275 -4.51399,-5.134826 -4.22626,-5.423446 0.28772,-0.288622 2.42053,0.228285 4.73959,1.14868 4.38575,1.740631 4.31883,1.664537 22.29851,25.356688 5.91493,7.794205 6.50232,8.94604 5.73713,11.25 -0.97182,2.92604 -2.86149,3.638598 -5.01413,1.890731 z m 149.45397,-5.781124 -2.52613,-3.175843 1.94471,-1.746003 c 2.50078,-2.245281 17.72411,-25.169004 19.36998,-29.167877 0.68972,-1.675781 1.66303,-3.046875 2.16293,-3.046875 1.19068,0 -0.0521,9.40312 -1.47395,11.151912 -0.58497,0.719489 -4.21779,7.436237 -8.07293,14.926105 -3.85514,7.489868 -7.4299,13.75665 -7.94392,13.926182 -0.51402,0.169533 -2.07133,-1.120888 -3.46069,-2.867601 z m -88.36174,0.675902 c -1.87641,-0.752908 -1.36799,-6.072098 0.80183,-8.388988 1.66238,-1.775051 2.3213,-1.943047 4.21904,-1.075679 2.5016,1.143374 2.36486,3.191884 -0.48186,7.218057 -1.75501,2.482151 -2.73865,2.969007 -4.53901,2.24661 z M 339.868,62.473763 c -2.62338,-2.839525 -2.53792,-4.393566 0.2645,-4.809832 2.62178,-0.389432 7.30476,3.741815 6.53184,5.76228 -0.89273,2.333691 -4.18683,1.872051 -6.79634,-0.952448 z M 274.39214,49.715887 c -3.53007,-3.744383 -8.06627,-8.993109 -10.08043,-11.663835 -2.01417,-2.670727 -5.4838,-6.168178 -7.71028,-7.772115 -3.98637,-2.871739 -5.31641,-5.612242 -2.72377,-5.612242 4.24369,0 10.86924,4.518195 21.43484,14.617176 6.24411,5.96834 11.35292,11.176748 11.35292,11.574238 0,0.397489 -1.31737,1.834668 -2.92748,3.193728 l -2.9275,2.471018 z M 82.185212,50.819606 C 81.059695,50.162634 80.702508,49.2286 81.098352,47.977509 81.684036,46.126416 101.22804,25.605195 102.4053,25.605195 c 1.43265,0 0.44605,3.059634 -1.60153,4.96664 -4.75376,4.427407 -13.514523,16.045143 -14.023154,18.596245 -0.563328,2.825444 -1.814142,3.27497 -4.595404,1.651526 z M 426.90691,47.622852 c -0.7817,-1.876724 -2.69992,-5.312734 -4.2627,-7.635577 -1.56279,-2.322844 -3.64277,-5.799007 -4.62218,-7.724808 -0.97941,-1.9258 -2.44232,-4.052232 -3.25091,-4.725405 -1.58999,-1.323695 -2.02127,-4.744367 -0.59817,-4.744367 1.07587,0 6.00362,6.088111 11.06873,13.675104 2.09527,3.138495 4.91731,6.434443 6.27122,7.324328 3.41798,2.246546 3.0168,6.52547 -0.65161,6.949883 -2.14311,0.247947 -2.75192,-0.232276 -3.95438,-3.119158 z m 5.71088,-4.030054 c -0.85792,-0.950945 -1.55984,-2.360516 -1.55984,-3.132378 0,-1.853047 3.9059,-5.480225 5.90135,-5.480225 2.49968,0 2.08054,5.759516 -0.60319,8.288629 -2.11116,1.989528 -2.22668,1.999539 -3.73832,0.323974 z M 83.3944,41.252575 c 0,-1.887438 2.384962,-3.678264 4.384226,-3.292038 1.354721,0.261711 1.098353,0.731195 -1.356972,2.485004 -2.269302,1.620934 -3.027254,1.822996 -3.027254,0.807034 z"
       style="fill:#fefefe"
       sodipodi:nodetypes="sscccccsssssssssssssssssssssssssssssssscsscsssccscccsssscccsscscssssscccccsssssccsscccsssssssssssssssscssssssssssssssssssssscsssssssccssssssssssssssssssssssssscssssscssssssssssssssssssssssscsssssssssssssssssssssssss" />
    <path
       inkscape:connector-curvature="0"
       id="path3380-7"
       d="m 165.22698,91.888323 c 0.75117,-1.963642 -3.83882,-5.675452 -6.23946,-5.045706 -1.88165,0.493599 -1.9348,0.409788 -0.59347,-0.935735 1.16708,-1.170725 4.00466,-1.519935 13.65261,-1.680173 6.69862,-0.111254 12.72819,0.146932 13.39904,0.573747 0.9871,0.628026 0.97596,0.778766 -0.0584,0.790383 -0.703,0.0079 -2.96042,1.701856 -5.01649,3.764356 -3.57654,3.587719 -3.99518,3.75 -9.6738,3.75 -4.48149,0 -5.82145,-0.298095 -5.46999,-1.216872 z M 231.9684,86.77707 c -0.0219,-1.486168 -3.21838,-11.238977 -5.10569,-15.577813 -0.68257,-1.569194 -0.54611,-1.634279 1.32282,-0.630934 2.61409,1.403394 4.54961,0.694897 5.60501,-2.051722 0.62282,-1.620868 0.94069,-1.793942 1.32955,-0.723906 3.16213,8.701485 6.21823,18.255131 6.21823,19.438749 0,1.316906 -0.1851,1.308816 -1.7091,-0.0747 -2.11633,-1.921234 -3.33337,-1.957824 -4.83295,-0.145299 -1.5561,1.880836 -2.79827,1.777883 -2.82787,-0.234375 z m 41.64836,-11.437896 c 0.36237,-3.325998 1.40743,-7.799109 2.32238,-9.940244 3.18289,-7.448604 11.30134,-14.62571 14.50785,-12.825651 1.17405,0.659088 1.0179,1.151171 -0.95542,3.010804 -2.75191,2.593362 -3.30508,8.153225 -0.90318,9.0778 1.18475,0.456049 1.06521,0.755929 -0.64224,1.611201 -1.21207,0.607138 -2.45228,2.436358 -2.93716,4.332111 -1.12494,4.398164 -3.22886,6.5625 -6.37934,6.5625 -1.62517,0 -3.18281,0.793868 -4.13881,2.109375 -1.46034,2.009509 -1.50172,1.823074 -0.87408,-3.937896 z M 75.917765,74.234676 c 0,-0.811371 1.051401,-3.458815 2.336448,-5.883208 1.849565,-3.489423 2.336449,-5.77206 2.336449,-10.953865 0,-6.181207 0.100707,-6.491811 1.807718,-5.575393 2.859912,1.535362 3.804941,1.173389 5.118557,-1.960549 1.295615,-3.090988 1.78389,-2.872462 2.761796,1.236033 0.515084,2.16403 -0.132695,5.926346 -3.659304,21.25336 -0.473969,2.05992 -0.625858,2.109033 -2.17453,0.703125 -2.339147,-2.123514 -5.360734,-1.879081 -7.072271,0.572115 -1.066494,1.527393 -1.454863,1.689797 -1.454863,0.608382 z M 369.98018,71.288467 c -0.40255,-1.60888 -2.08971,-3.352358 -4.76732,-4.926444 -3.64701,-2.143968 -4.56473,-2.319837 -7.64844,-1.465722 -4.1785,1.157344 -4.59747,0.909457 -2.9731,-1.759013 1.10498,-1.815221 0.96049,-2.262897 -1.3919,-4.31235 l -2.62488,-2.286858 2.62488,-1.027035 c 2.16237,-0.846069 4.02463,-0.581002 10.56881,1.504324 9.24565,2.946161 11.26157,4.080704 13.92979,7.839591 1.95084,2.748267 1.95116,2.76039 0.0598,2.264244 -2.09824,-0.550412 -5.385,1.904871 -6.47682,4.838327 -0.60838,1.63457 -0.74161,1.566044 -1.30084,-0.669064 z m 53.60113,1.013803 c 0,-0.773314 0.83079,-3.897294 1.84618,-6.942176 1.0154,-3.044881 1.85652,-7.481553 1.86916,-9.859269 0.0218,-4.104007 0.14167,-4.300359 2.3648,-3.874054 2.83118,0.542906 5.11349,-1.157928 5.19406,-3.870743 0.0543,-1.829257 0.13873,-1.800315 1.01829,0.349167 1.26081,3.081199 0.43905,14.172266 -1.51734,20.479241 -1.4563,4.694752 -1.658,4.916292 -3.2009,3.515625 -2.10029,-1.906673 -3.71966,-1.891023 -5.86515,0.05668 -1.45459,1.320508 -1.7091,1.342178 -1.7091,0.145527 z"
       style="fill:#007f7f" />
    <path
       inkscape:connector-curvature="0"
       id="path3378-2"
       d="M 29.656083,188.95126 36.198139,188.60739 47.10823,172.44058 58.018323,156.27379 47.725596,144.61137 C 34.556275,129.68955 34.531437,129.6677 30.744174,129.6677 c -3.834387,0 -5.535064,-1.76912 -5.127585,-5.33393 l 0.301176,-2.63482 22.897196,-0.25004 22.897196,-0.25004 0.007,-4.90621 c 0.0038,-2.69842 0.57188,-8.70308 1.262327,-13.34371 0.690447,-4.64063 1.533053,-13.736569 1.872457,-20.213203 0.498328,-9.509283 0.974376,-12.306046 2.473425,-14.53125 2.138369,-3.174219 3.657758,-17.875193 2.989629,-28.926409 -0.106517,-1.761159 -0.872638,-3.627477 -1.702532,-4.147376 -1.248679,-0.782249 -1.69838,-0.310861 -2.607609,2.733358 -0.60429,2.023244 -1.530729,3.678625 -2.058753,3.678625 -0.92895,0 -0.653088,-1.52928 1.145842,-6.352149 0.98012,-2.627664 3.216182,-3.594907 4.958117,-2.144711 0.894737,0.744886 1.497727,0.777956 1.912413,0.104883 0.964493,-1.565458 5.947919,-1.13886 7.738328,0.662428 1.558798,1.568269 1.879819,1.384962 6.843861,-3.907923 3.18268,-3.393518 5.636188,-5.288126 6.308408,-4.871373 1.79822,1.114833 1.26454,3.306323 -1.46227,6.004584 -3.70731,3.668506 -12.390933,14.359726 -12.390933,15.255639 0,0.419631 0.36624,0.990021 0.813867,1.267535 1.93243,1.198039 1.818353,6.685493 -0.33755,16.237163 l -2.276874,10.087674 4.931449,5.15625 c 2.712297,2.835937 8.023051,8.742187 11.801671,13.125 3.77862,4.382812 9.21927,10.149435 12.09032,12.814705 3.96722,3.68287 4.96215,5.11171 4.14533,5.95315 -0.82539,0.85028 -2.27138,0.75825 -6.23153,-0.3966 -4.72389,-1.37756 -6.14306,-2.5403 -16.907296,-13.852367 -6.462808,-6.791717 -11.909969,-12.168927 -12.104801,-11.949357 -0.667631,0.752404 -7.139845,28.522134 -7.139687,30.633604 8.6e-5,1.16015 0.574283,2.10937 1.27599,2.10937 0.701709,0 2.345146,0.84375 3.652084,1.875 2.21258,1.74585 3.791387,1.875 22.92192,1.875 20.51795,0 20.54641,-0.003 21.10458,-2.10937 0.30741,-1.16016 7.81796,-9.65592 16.6901,-18.87946 l 16.13118,-16.770078 12.14953,-0.219466 c 8.45335,-0.152699 12.72834,0.13843 14.05211,0.956953 1.63044,1.008156 2.26538,0.863358 4.43925,-1.012364 1.39518,-1.203831 2.53668,-2.419957 2.53668,-2.702502 0,-0.964425 -3.36172,-0.516494 -4.4704,0.595657 -1.55909,1.563962 -2.58944,0.17734 -1.15582,-1.555469 2.06987,-2.501826 5.42227,-1.639243 9.84126,2.532188 2.3079,2.178602 4.19618,4.666149 4.19618,5.527883 0,1.962934 -6.04702,7.386023 -8.23579,7.386023 -0.89577,0 -2.45825,-0.568141 -3.47215,-1.262535 -1.64672,-1.12779 -2.55834,-0.791541 -8.54175,3.150583 l -6.69827,4.413117 1.87035,1.87619 1.87035,1.87619 -2.88236,5.72774 c -1.58529,3.15027 -2.88235,5.90945 -2.88235,6.13153 0,0.22207 1.26169,0.84497 2.80374,1.38422 1.54206,0.53924 2.80374,1.42425 2.80374,1.9667 0,0.66011 6.79283,0.98627 20.54071,0.98627 l 20.54071,0 -0.96696,-2.12889 c -0.73519,-1.6186 -0.39435,-4.55994 1.4219,-12.27063 1.31388,-5.57795 2.38887,-10.315262 2.38887,-10.527358 0,-0.212095 -1.36682,-0.387204 -3.03738,-0.389131 -3.21418,-0.0037 -9.11215,-3.045616 -9.11215,-4.699639 0,-1.591529 2.91181,-2.242676 4.78402,-1.069814 0.95297,0.597002 3.16354,1.085457 4.91237,1.085457 3.61717,0 3.44955,0.461059 5.34357,-14.697558 l 1.07502,-8.603809 -8.62716,-13.896191 C 212.3055,46.389731 206.27908,37.924963 203.6584,35.222041 c -5.78758,-5.9692 -5.20767,-7.837173 1.60027,-5.154633 4.6125,1.81747 4.10236,1.237181 23.17619,26.363239 5.62166,7.405451 7.252,10.440411 10.32411,19.21875 2.47164,7.062594 3.49771,11.389209 3.18155,13.415712 -0.41823,2.68074 -0.20696,3.02479 2.03566,3.315183 1.76571,0.228636 3.39234,-0.495033 5.52571,-2.458333 3.8508,-3.543802 5.2088,-2.418461 1.61824,1.34099 -2.18496,2.287726 -2.6486,3.522538 -2.43531,6.48586 0.38396,5.334531 -2.4361,7.961681 -7.68312,7.157541 -4.65846,-0.71393 -7.50762,-3.64177 -6.69694,-6.881893 0.51119,-2.043101 0.30393,-2.205645 -2.46643,-1.934276 -2.94227,0.288207 -3.09396,0.525724 -5.57783,8.733769 -3.40048,11.23698 -3.38455,12.35186 0.1877,13.13891 1.57679,0.3474 3.09375,1.22468 3.37102,1.9495 0.42735,1.11713 12.04706,1.31784 76.29475,1.31784 l 75.79061,0 -3.41564,-3.51562 -3.41565,-3.51563 1.52178,-9.48342 1.52177,-9.483404 -4.90539,-13.116405 c -4.61557,-12.34148 -5.12057,-13.237724 -8.54757,-15.169827 -3.19513,-1.801376 -4.11224,-1.926452 -7.47175,-1.019005 -3.48586,0.941577 -3.78563,1.261042 -3.34016,3.559486 0.26916,1.388788 0.76532,5.773305 1.10259,9.743371 0.54569,6.423362 0.38737,7.58487 -1.43755,10.546875 -1.12792,1.830715 -2.4122,3.328574 -2.85396,3.328574 -1.60937,0 -2.00205,-2.051339 -0.90243,-4.714343 1.07934,-2.613898 0.70717,-7.021128 -1.52897,-18.105979 l -0.53742,-2.664072 -2.6964,2.591384 c -2.46204,2.366157 -2.98185,2.503501 -5.98077,1.58023 -3.79021,-1.166885 -4.60388,-0.445009 -3.31912,2.944717 0.9266,2.444751 0.44476,5.243063 -0.9028,5.243063 -0.40465,0 -0.74806,-0.949219 -0.76315,-2.109375 -0.015,-1.160156 -0.25711,-5.213206 -0.53784,-9.006777 -0.49305,-6.663024 -0.41853,-6.989557 2.19313,-9.609375 3.16752,-3.177417 5.45068,-3.408612 8.65927,-0.876848 l 2.32572,1.835127 2.60456,-2.727076 c 3.94814,-4.133846 6.4105,-4.232351 16.61808,-0.664789 l 9.03751,3.158617 2.20953,-2.421627 c 3.21955,-3.528603 14.92066,-21.2888 17.85014,-27.093334 1.39387,-2.76185 3.01529,-4.807358 3.63646,-4.587579 1.51126,0.534714 0.95661,10.013765 -0.69605,11.895678 -0.68882,0.784359 -3.77994,6.488608 -6.86914,12.676108 -3.08922,6.1875 -6.69059,12.823044 -8.00306,14.745653 -1.94114,2.843558 -2.22857,3.980316 -1.54077,6.09375 0.46503,1.428954 1.50935,6.279435 2.32072,10.778849 1.40013,7.764337 1.37807,8.751872 -0.43313,19.400713 l -1.90835,11.21998 2.06862,4.27115 2.06862,4.27116 19.43995,0 19.43993,0 0.0109,-4.92188 c 0.006,-2.70703 -0.48871,-13.78125 -1.09939,-24.609375 -1.08468,-19.23258 -1.06333,-19.832838 0.92364,-25.977278 1.21233,-3.748987 2.0324,-8.672197 2.03009,-12.1875 -0.004,-5.106919 -0.43781,-6.589104 -3.2402,-11.053972 -1.77999,-2.835938 -4.26881,-7.081187 -5.5307,-9.433888 -1.26191,-2.352701 -2.95802,-4.830139 -3.76914,-5.505417 -1.73819,-1.447077 -1.93934,-4.349528 -0.36891,-5.323141 0.6699,-0.415311 2.42256,0.802755 4.44568,3.089653 2.69847,3.050295 3.6376,3.586828 4.89056,2.794013 1.13084,-0.715548 1.9739,-0.628956 3.11352,0.3198 0.92871,0.773166 3.18788,1.200792 5.56815,1.05396 3.39425,-0.20938 4.30852,0.139512 5.9922,2.28665 2.57556,3.284526 2.61624,8.519195 0.0872,11.219653 -1.57264,1.679222 -1.73351,2.466672 -0.93458,4.574579 1.38113,3.644016 1.19092,11.122815 -0.44384,17.451299 l -1.40888,5.454056 11.35973,19.056267 c 6.24785,10.480944 12.2174,20.011081 13.26566,21.178061 1.424,1.58527 1.63718,2.39139 0.84306,3.18799 -1.8699,1.87574 -8.98863,-3.73357 -13.94618,-10.9891 -2.47438,-3.62136 -6.60169,-9.621324 -9.17179,-13.333262 l -4.67289,-6.748978 -0.6251,9.130778 c -0.34379,5.021927 -0.88188,12.785932 -1.19574,17.253362 l -0.57065,8.12257 2.82569,0.62256 c 1.55413,0.34241 3.15482,1.21253 3.5571,1.93359 0.21256,0.38101 0.86663,0.66739 2.29044,0.88813 2.43549,0.37758 63.12317,0.56313 71.70577,0.70174 2.8076,0.0453 -59.29763,0.0966 -72.45695,0.14929 -31.34709,0.12553 -102.7226,0.25935 -189.00099,0.34142 l -222.722722,0.21187 0.292858,3.04688 0.292858,3.04687 222.429906,0.47167 262.4299,0.47165 -236.96261,0.23147 c -159.71715,0.15602 -196.962617,0.45933 -196.962617,1.43648 0,0.66277 -8.558188,13.84636 -19.018197,29.29688 l -19.018197,28.09185 215.980811,0.47174 215.98081,0.47174 -224.29906,0.0451 C 124.0486,189.27487 26.057952,189.14038 29.656083,188.95125 Z m 44.704874,-57.64293 c 0.414821,-1.52171 -0.872335,-1.64063 -17.757607,-1.64063 l -18.204845,0 2.638135,3.1535 c 1.450973,1.73442 6.195019,7.1796 10.542322,12.10039 l 7.904189,8.9469 7.215283,-10.45977 c 3.968406,-5.75287 7.416542,-11.19805 7.662523,-12.10039 z M 83.3944,120.71361 c 0,-0.28412 -1.471963,-1.13353 -3.271028,-1.88758 -2.400206,-1.006 -3.271028,-1.94768 -3.271028,-3.53717 0,-1.1914 1.633079,-8.88496 3.629064,-17.096803 1.995984,-8.211836 3.906458,-16.506731 4.245499,-18.433099 0.776918,-4.414325 -0.670434,-7.278763 -3.677838,-7.278763 -3.264306,0 -5.131304,4.184219 -5.131304,11.500013 0,3.282469 -0.379571,8.260451 -0.843492,11.062182 -2.090744,12.62653 -3.045562,21.70772 -2.508211,23.85539 0.532927,2.12999 1.028149,2.33242 5.705957,2.33242 2.817309,0 5.122381,-0.23246 5.122381,-0.51659 z m 56.07476,-0.34642 c 0,-0.47465 -1.26535,-1.1418 -2.81189,-1.48254 -1.54655,-0.34073 -2.58301,-0.99101 -2.30327,-1.44506 0.27973,-0.45404 6.7894,-5.69708 14.46591,-11.6512 7.67652,-5.95412 14.42408,-11.700578 14.99459,-12.769918 0.82554,-1.547371 0.70635,-2.311079 -0.58392,-3.741265 -3.61193,-4.00361 -6.83397,-1.874295 -22.68268,14.990083 -7.27555,7.7418 -13.22827,14.72556 -13.22827,15.51946 0,1.15155 1.22844,1.44345 6.07477,1.44345 3.34112,0 6.07476,-0.38836 6.07476,-0.86301 z m 27.10676,-0.53846 c -0.93825,-1.13406 -0.76427,-2.37827 0.91186,-6.52089 1.13923,-2.81568 1.88869,-5.66548 1.66546,-6.3329 -0.22627,-0.6765 -1.81774,-1.21349 -3.59638,-1.21349 -2.56744,0 -3.1905,-0.36616 -3.1905,-1.875 0,-1.03125 -0.9536,-2.41967 -2.1191,-3.08538 -1.96342,-1.121469 -2.94062,-0.57921 -13.30166,7.38128 -10.36151,7.96085 -12.31567,10.23535 -8.79382,10.23535 0.75682,0 1.61812,0.63281 1.91399,1.40625 0.44399,1.16062 2.90741,1.40625 14.1038,1.40625 11.932,0 13.4262,-0.16879 12.40635,-1.40147 z m 10.27642,0.46397 c 0,-0.51562 -0.55046,-0.9375 -1.22324,-0.9375 -0.67279,0 -1.97974,-0.55489 -2.90434,-1.23308 -1.59145,-1.16734 -1.52204,-1.54916 1.30186,-7.16073 2.96461,-5.89121 2.97166,-5.93897 1.14763,-7.76869 -1.74325,-1.7487 -1.95605,-1.76171 -4.24221,-0.25907 -1.99242,1.30956 -2.22661,1.87156 -1.35998,3.26359 0.81977,1.31675 0.58392,2.82591 -1.08707,6.95582 -1.72786,4.27049 -1.91332,5.54093 -0.97449,6.67569 1.30721,1.58001 9.34184,1.97905 9.34184,0.46397 z m 52.33645,0.13562 c 0,-0.44104 -1.36682,-1.19339 -3.03738,-1.67191 -4.03091,-1.15462 -4.12327,-2.69193 -0.82296,-13.69809 l 2.74092,-9.140625 -2.63981,0 c -2.59769,0 -2.67942,0.170842 -5.12142,10.704835 -3.07314,13.25652 -2.6809,14.60767 4.24063,14.60767 2.55201,0 4.64002,-0.36084 4.64002,-0.80188 z m 155.14019,0.29578 c 0,-0.27835 -0.85073,-2.17888 -1.89052,-4.2234 l -1.89052,-3.7173 1.92031,-11.29027 1.92031,-11.290274 -1.8716,-9.904089 c -1.02939,-5.447249 -2.35597,-10.489536 -2.94797,-11.205081 -2.58979,-3.130263 -7.38955,0.0074 -7.38955,4.830614 0,1.665677 1.5474,7.133832 3.43867,12.151455 l 3.43867,9.122953 -1.52445,9.500122 -1.52446,9.50012 3.41565,3.51563 c 3.1248,3.21628 4.90546,4.30872 4.90546,3.00952 z m 51.40186,-0.35691 c 0,-0.47465 -1.25686,-1.13993 -2.79301,-1.47838 -1.53617,-0.33845 -3.00887,-0.96571 -3.27269,-1.3939 -0.26382,-0.42819 0.18374,-10.33358 0.99456,-22.011988 1.54527,-22.256517 1.37822,-23.940227 -2.37508,-23.940227 -0.88543,0 -2.37086,0.843504 -3.30094,1.874454 -1.58792,1.760107 -1.62511,2.918218 -0.60954,18.984375 0.59484,9.410456 1.08037,19.746646 1.07894,22.969306 l -0.003,5.85937 5.14019,0 c 2.8271,0 5.14018,-0.38836 5.14018,-0.86301 z m 24.29907,-7.4597 c 0,-0.45249 -0.58564,-1.31026 -1.30142,-1.90617 -0.71578,-0.5959 -6.46007,-9.73995 -12.76508,-20.320103 -11.89276,-19.956695 -12.99837,-21.024852 -13.01697,-12.576022 -0.008,3.820727 0.8274,5.41282 8.85885,16.875 4.87747,6.960935 8.97568,12.896865 9.10712,13.190935 0.3521,0.78773 7.5617,5.55907 8.39986,5.55907 0.39471,0 0.71764,-0.37022 0.71764,-0.82271 z M 119.843,110.02017 c 0,-0.49365 -1.48609,-2.07568 -3.30242,-3.51563 -1.81632,-1.43996 -6.95628,-6.836845 -11.42213,-11.993095 C 100.6526,89.355195 94.589065,82.590754 91.64393,79.479352 L 86.289137,73.82226 88.574095,63.681119 c 2.042505,-9.065078 2.206598,-13.164034 0.637672,-15.928833 -0.256444,-0.451911 -1.019116,0.497307 -1.69483,2.109375 -1.313616,3.133938 -2.258645,3.495911 -5.118557,1.960549 -1.707011,-0.916418 -1.807718,-0.605814 -1.807718,5.575393 0,5.181805 -0.486884,7.464442 -2.336449,10.953865 -2.655096,5.009154 -3.271557,8.697652 -0.881585,5.274826 1.785861,-2.55764 5.182689,-2.692562 7.348508,-0.291881 1.246112,1.381242 1.481315,2.723605 1.02665,5.859375 l -0.58978,4.067657 11.804343,12.413783 c 9.984031,10.499502 12.478221,12.621822 16.174271,13.762832 5.29798,1.63555 6.70638,1.7578 6.70638,0.58211 z m 54.0609,-9.71167 c 4.44875,-2.741303 9.00496,-5.566222 10.12493,-6.277595 2.28992,-1.454508 4.34025,-5.302438 3.52789,-6.620962 -0.85033,-1.380172 -4.16845,-1.004581 -4.75881,0.538668 -0.61272,1.601708 -17.51279,14.531589 -18.9936,14.531589 -0.53386,0 -0.97066,0.63281 -0.97066,1.40625 0,2.44086 2.73954,1.55542 11.07025,-3.57795 z m 69.80291,1.46857 c -0.79649,-3.219115 -4.04342,-6.796875 -6.1684,-6.796875 -1.9952,0 -3.13883,4.067246 -1.83223,6.516265 0.89545,1.6784 2.79227,2.42899 6.90168,2.73107 1.44126,0.10593 1.62828,-0.31108 1.09895,-2.45046 z M 167.2729,99.720607 c 2.63339,-2.203717 2.62545,-2.30625 -0.32867,-4.247911 -2.367,-1.555765 -2.50377,-1.52867 -5.15754,1.021753 l -2.72606,2.619895 2.12015,1.180956 c 2.82594,1.57408 3.61314,1.49982 6.09212,-0.574693 z m 5.42885,-4.241847 c 1.68389,-1.277605 1.51612,-1.378575 -2.33645,-1.40625 -3.84768,-0.02764 -4.01819,0.07064 -2.33644,1.34662 2.28066,1.730399 2.46768,1.732785 4.67289,0.05963 z m 64.83955,-1.684261 c 4.09564,-2.082306 4.32228,-6.303442 0.88704,-16.521077 -3.02633,-9.001365 -4.56665,-12.143061 -4.56665,-9.314269 0,2.669984 -2.55095,4.000048 -5.27972,2.752849 -2.17469,-0.993951 -2.34634,-0.936516 -1.6894,0.565291 2.88602,6.59771 5.05425,14.248917 4.66368,16.457174 l -0.45951,2.598022 2.54115,-2.363647 c 2.97581,-2.76795 4.19819,-2.933684 5.95049,-0.806783 1.17198,1.422528 1.10393,1.445223 -0.78858,0.263014 -1.86803,-1.166908 -2.3265,-1.053764 -4.6729,1.153204 -2.23115,2.098559 -3.75177,2.539172 -10.67747,3.093891 -5.43854,0.435603 -8.27964,0.315977 -8.70001,-0.366318 -0.77522,-1.258253 -4.25222,-1.344598 -4.25222,-0.105596 0,0.499157 1.15654,1.536954 2.57009,2.306214 3.28026,1.78513 21.11654,1.995042 24.47401,0.288031 z m -41.65887,-0.947662 c 1.52146,-1.115994 1.47655,-1.340798 -0.67257,-3.366099 -2.58079,-2.432102 -5.02811,-2.371156 -6.57511,0.16374 -0.82798,1.356721 -0.67223,1.965568 0.7794,3.046875 2.24006,1.668615 4.3367,1.719013 6.46828,0.155484 z m -15.51167,-3.491642 c 2.05608,-2.0625 4.3135,-3.75646 5.01649,-3.764356 1.03441,-0.01162 1.04555,-0.162357 0.0584,-0.790383 -0.67085,-0.426815 -6.70042,-0.685001 -13.39904,-0.573747 -9.64795,0.160238 -12.48553,0.509448 -13.65261,1.680173 -1.34133,1.345523 -1.28817,1.429334 0.59347,0.935735 2.40065,-0.629746 6.99063,3.082064 6.23946,5.045706 -0.35143,0.918777 0.98853,1.216872 5.47002,1.216872 5.67862,0 6.09726,-0.162281 9.67381,-3.75 z m 172.63118,-0.312317 c 1.52953,-2.849035 1.58142,-4.046119 0.58795,-13.563896 -0.85029,-8.146144 -0.83956,-10.840759 0.0489,-12.267807 1.46037,-2.345742 -0.47591,-5.014862 -3.34016,-4.604346 -1.69542,0.242993 -1.93914,0.893558 -1.86085,4.967116 0.0495,2.578125 0.83451,8.630664 1.74433,13.450087 1.27613,6.759748 1.41575,9.28764 0.61084,11.059738 -2.23654,4.924013 -0.35756,5.739831 2.20901,0.959108 z M 230.12337,86.24095 c 0,-4.25703 -2.46976,-12.823255 -3.69711,-12.823255 -0.39471,0 -1.00651,2.847656 -1.35954,6.328125 -0.35302,3.480469 -0.87725,7.277344 -1.16495,8.4375 -0.46986,1.89473 -0.17992,2.109375 2.84925,2.109375 3.35321,0 3.37235,-0.02299 3.37235,-4.051745 z M 373.90756,68.378417 c 1.19314,-1.076374 2.71229,-1.557731 3.91799,-1.24145 2.92929,0.76842 4.59034,-1.429326 11.62034,-15.374903 3.4832,-6.909716 6.86572,-13.195932 7.51672,-13.969369 1.50392,-1.786792 2.83813,-11.25 1.58614,-11.25 -0.4999,0 -1.47245,1.371094 -2.16123,3.046875 -1.67302,4.070348 -15.34712,24.795366 -18.76802,28.445545 -2.44261,2.606322 -2.56601,3.024031 -1.22356,4.141646 0.82117,0.683637 1.9342,2.121422 2.47341,3.19508 0.53921,1.073657 -0.33589,0.393921 -1.94467,-1.510524 -2.42403,-2.869511 -4.48169,-3.969682 -12.01272,-6.422814 -7.59514,-2.474017 -9.51876,-2.791041 -11.71254,-1.930304 l -2.62488,1.029881 2.62488,2.286858 c 2.35239,2.049453 2.49688,2.497129 1.3919,4.31235 -1.62437,2.66847 -1.2054,2.916357 2.9731,1.759013 3.08371,-0.854115 4.00143,-0.678246 7.64844,1.465722 2.67761,1.574086 4.36477,3.317564 4.76732,4.926444 0.55923,2.235108 0.69246,2.303634 1.30084,0.669064 0.3728,-1.001598 1.55474,-2.612199 2.62654,-3.579114 z m 54.34665,2.226778 c 0.69008,0 1.99569,0.67269 2.90135,1.494866 1.5429,1.400667 1.7446,1.179127 3.2009,-3.515625 1.95639,-6.306975 2.77815,-17.398042 1.51734,-20.479241 -0.87956,-2.149482 -0.96396,-2.178424 -1.01829,-0.349167 -0.0806,2.712815 -2.36288,4.413649 -5.19406,3.870743 -2.22313,-0.426305 -2.34299,-0.229953 -2.3648,3.874054 -0.0126,2.377716 -0.85376,6.814388 -1.86916,9.859269 -2.41535,7.242927 -2.44867,8.895156 -0.13708,6.796652 0.94001,-0.853354 2.27371,-1.551551 2.9638,-1.551551 z M 233.15742,67.569686 c 0.76519,-2.30396 0.1778,-3.455795 -5.73713,-11.25 -17.97968,-23.692151 -17.91276,-23.616057 -22.29851,-25.356688 -2.31906,-0.920395 -4.45187,-1.437302 -4.73959,-1.14868 -0.28773,0.28862 1.6141,2.729171 4.22626,5.423446 2.61218,2.694274 8.64389,11.226806 13.40381,18.961181 4.75992,7.734375 9.31888,14.602038 10.13103,15.261472 2.15264,1.747867 4.04231,1.035309 5.01413,-1.890731 z m 113.50692,-4.143475 c 0.77292,-2.020465 -3.91006,-6.151712 -6.53184,-5.76228 -2.80242,0.416266 -2.88788,1.970307 -0.2645,4.809832 2.60951,2.824499 5.90361,3.286139 6.79634,0.952448 z M 86.780616,49.16808 c 0.508631,-2.551102 9.269394,-14.168838 14.023154,-18.596245 2.04758,-1.907006 3.03418,-4.96664 1.60153,-4.96664 -1.17726,0 -20.721264,20.521221 -21.306948,22.372314 -0.395844,1.251091 -0.03866,2.185125 1.08686,2.842097 2.781262,1.623444 4.032076,1.173918 4.595404,-1.651526 z M 433.68447,47.929522 c 0.21566,-1.873147 -0.34138,-2.934461 -2.17157,-4.137395 -1.35391,-0.889885 -4.17595,-4.185833 -6.27122,-7.324328 -5.06511,-7.586993 -9.99286,-13.675104 -11.06873,-13.675104 -1.4231,0 -0.99182,3.420672 0.59817,4.744367 0.80859,0.673173 2.2715,2.799605 3.25091,4.725405 0.97941,1.925801 3.05939,5.401964 4.62218,7.724808 1.56278,2.322843 3.481,5.758853 4.2627,7.635577 1.20246,2.886882 1.81127,3.367105 3.95438,3.119158 1.96275,-0.227078 2.59842,-0.860343 2.82318,-2.812488 z m 4.85011,-9.831496 c 0,-3.752431 -2.03788,-4.166408 -5.3136,-1.079412 -2.56261,2.414982 -2.72813,4.218823 -0.60319,6.574184 1.51164,1.675565 1.62716,1.665554 3.73832,-0.323974 1.43462,-1.351977 2.17847,-3.11756 2.17847,-5.170798 z M 87.778626,37.960537 c -1.999264,-0.386226 -4.384226,1.4046 -4.384226,3.292038 0,1.015962 0.757952,0.8139 3.027254,-0.807034 2.455325,-1.753809 2.711693,-2.223293 1.356972,-2.485004 z m 337.409044,-7.4732 c -1.58148,-1.982775 -2.87405,0.23324 -1.46045,2.503837 1.12164,1.801647 1.28823,1.833037 1.83039,0.344904 0.32804,-0.900423 0.16157,-2.182357 -0.36994,-2.848741 z M 276.85234,99.005606 c -2.78095,-1.019769 -5.60748,-4.400289 -5.60748,-6.706533 0,-1.294855 0.87696,-3.290674 1.94879,-4.435155 1.85775,-1.983657 1.87518,-2.193569 0.37317,-4.4931 -2.85886,-4.376796 -0.36137,-16.882679 4.7216,-23.642838 l 2.18688,-2.908466 -4.2494,-4.122784 c -2.33717,-2.267532 -6.9461,-7.445314 -10.24206,-11.506184 -3.29597,-4.06087 -7.87647,-8.826288 -10.1789,-10.589818 -6.79751,-5.206499 -4.98533,-8.403119 3.02711,-5.339734 3.25918,1.246076 7.75773,4.83626 16.61842,13.262749 6.68224,6.354791 14.46262,12.872217 17.28972,14.483169 3.08823,1.759752 11.1095,8.832164 20.09346,17.716571 16.31429,16.133505 17.37952,18.23683 7.59638,14.999264 -4.27993,-1.416372 -6.83599,-3.201627 -12.55971,-8.772211 -7.6367,-7.432384 -11.10292,-9.824462 -12.37708,-8.541567 -0.43153,0.434487 -3.08708,3.954039 -5.90123,7.821226 -2.81415,3.867188 -5.77077,7.759863 -6.57029,8.650389 -1.32766,1.478814 -1.27326,1.71798 0.62774,2.759613 1.14476,0.627261 2.71223,1.190991 3.48325,1.252733 3.29897,0.264175 7.47664,1.706838 7.47664,2.581881 0,0.583915 -1.61449,0.72576 -4.20561,0.369497 -4.00918,-0.551237 -4.2056,-0.469616 -4.2056,1.747571 0,4.392481 -4.70243,7.116441 -9.3458,5.413727 z m 2.78943,-5.136255 c 0.0193,-3.393139 -1.5518,-7.326656 -2.92635,-7.326656 -3.91122,0 -5.99312,6.873558 -2.90046,9.576117 3.71685,3.248022 5.80013,2.443765 5.82681,-2.249461 z m 46.74328,-8.041908 c 0,-0.393388 -6.09813,-6.821524 -13.5514,-14.284748 -8.58795,-8.599421 -13.5514,-12.955978 -13.5514,-11.894442 0,0.92128 -0.63331,2.903562 -1.40735,4.405071 -1.33197,2.583789 -1.29442,2.789895 0.70094,3.847896 1.15955,0.614833 5.34644,4.269411 9.30417,8.121285 5.43546,5.290053 8.4078,7.417505 12.14954,8.696053 5.75865,1.96772 6.3555,2.071857 6.3555,1.108885 z M 282.44021,84.43332 c 3.23017,-3.828736 13.08342,-17.631852 14.37536,-20.138009 1.71422,-3.325296 2.02019,-6.815116 0.59752,-6.815116 -0.51402,0 -0.93458,0.606966 -0.93458,1.348812 0,0.741847 -3.40739,5.382472 -7.57199,10.3125 -6.29393,7.450712 -8.0213,8.963688 -10.23394,8.963688 -1.54923,0 -3.06014,0.685791 -3.61454,1.640625 -0.52393,0.902344 -0.96539,1.197656 -0.98102,0.65625 -0.0498,-1.726138 2.13557,-3.234375 4.68655,-3.234375 3.02343,0 5.13419,-2.217915 6.24542,-6.5625 0.48488,-1.895753 1.72509,-3.724973 2.93716,-4.332111 1.70745,-0.855272 1.82699,-1.155152 0.64224,-1.611201 -2.51906,-0.969673 -1.84225,-6.512985 1.11442,-9.127644 l 2.57009,-2.272794 -2.1028,2.404173 c -3.84796,4.399429 -1.76193,11.592759 2.36603,8.158877 1.36566,-1.136045 4.36442,-7.262713 3.76348,-7.689077 -0.15862,-0.11254 -1.84479,-1.143202 -3.74705,-2.290361 -3.20442,-1.932411 -3.65797,-1.98236 -6.16969,-0.679442 -3.75143,1.946001 -8.42687,7.513468 -10.6203,12.64653 -2.25902,5.286535 -2.78418,15.943221 -0.8986,18.234452 1.50702,1.831223 6.15731,2.068592 7.57624,0.386723 z m 7.07499,-17.375694 c -0.89984,-0.902656 -3.31706,0.742216 -3.31706,2.257197 0,1.442729 0.16394,1.432141 1.87488,-0.121079 1.03119,-0.93613 1.68017,-1.897383 1.44218,-2.136118 z m -2.84978,-16.198517 c 0,-0.39749 -5.10881,-5.605898 -11.35292,-11.574238 -10.5656,-10.098981 -17.19115,-14.617176 -21.43484,-14.617176 -2.59264,0 -1.2626,2.740503 2.72377,5.612242 2.22648,1.603937 5.69611,5.101388 7.71028,7.772115 2.01416,2.670726 6.55036,7.919452 10.08043,11.663835 l 6.4183,6.807968 2.9275,-2.471018 c 1.61011,-1.35906 2.92748,-2.796239 2.92748,-3.193728 z"
       style="fill:#000000"
       sodipodi:nodetypes="ccccsssccccssscssssssssssssscssssssssssscscssssssssssscccssssscsssssssscssssssssssssssssscccccssssssssscsssscssscsscssssssssscccccssscsssssssssssscssssscsscscsssscccccssscccsccsscsscssssssssssssssssssssssssssssssssssssssssssssssscsssssscccsssscccsscssssssccsccssscsssssssscssssssssscsssssssssssssssssscsssssssssssscsssssssssssssssscssscsscscscssccsssssssssssssssssscssssssssssscscsssssscsssssssssssssssssssssssssssssssssssssssssscssssssssssssssssssssssssssssssssssssscssssscsssssssssssssssssscss" />
    <path
       id="path3416"
       d="m 468.78415,27.10547 c 0.32286,-0.0563 0.93882,0.40428 2.04368,1.51305 2.68164,2.69111 3.82025,4.72278 5.27349,9.41835 1.22134,3.94625 4.43756,16.85251 5.71213,22.92079 0.20648,0.98307 0.51869,2.21323 0.69492,2.73367 0.54564,1.61141 1.85592,4.07557 2.89138,5.44106 0.25215,0.33251 0.4224,0.60463 0.3795,0.60457 -0.0429,-7e-5 -0.43207,-0.0707 -0.86577,-0.15771 -1.0974,-0.22 -3.57783,-0.31602 -4.36336,-0.16922 -0.34697,0.0648 -1.05667,0.32746 -1.57712,0.58321 -0.97113,0.47723 -1.17216,0.53456 -1.38491,0.39921 -0.12657,-0.0805 -0.70637,-3.30114 -2.0864,-11.59018 -2.36778,-14.22189 -3.39467,-18.92096 -6.14418,-28.12036 -0.46584,-1.5586 -0.84606,-2.96012 -0.84606,-3.1148 0,-0.15469 0.0678,-0.33822 0.15113,-0.40743 0.0347,-0.0288 0.0754,-0.0462 0.12157,-0.0542 z m 46.9275,13.43508 c 0.48888,0 0.88877,0.13103 0.88877,0.29078 0,1.37806 -4.08557,11.24547 -8.02195,19.37228 -4.59609,9.48882 -6.29724,11.40428 -8.32751,9.374 -1.21803,-1.21803 -0.46161,-4.31334 1.50648,-6.16227 2.20918,-2.07543 9.58625,-14.43853 11.75774,-19.70412 0.71933,-1.7443 1.70759,-3.17067 2.19647,-3.17067 z m -5.33921,19.09137 c 0.18321,-0.0122 0.3537,0.0662 0.51914,0.23165 1.51273,1.51273 -0.72488,7.73937 -2.78132,7.73937 -0.91161,0 -1.65761,-0.39524 -1.65761,-0.87891 0,-0.48368 0.79151,-2.43147 1.75947,-4.32886 0.95032,-1.86277 1.61073,-2.72669 2.16032,-2.76325 z m -28.02671,12.3771 c 1.46035,0.0198 2.62239,0.87158 3.4023,2.49382 0.793,1.64946 1.05715,3.25401 1.05799,6.43004 5.7e-4,2.01171 0.34398,15.78527 0.47314,18.97964 0.28532,7.05663 0.74162,13.15466 1.10726,14.79206 0.32276,1.4454 1.84437,2.89631 3.89023,3.70952 1.99849,0.79438 3.27395,1.56802 3.04417,1.8449 -0.13615,0.16404 -1.09455,0.35278 -2.36403,0.46492 -0.52045,0.0459 -2.63774,0.0885 -4.70507,0.0969 l -3.7588,0.0148 0,-1.60504 c 0,-2.51155 -0.75318,-8.01196 -3.00639,-21.94659 -1.00495,-6.21494 -1.79662,-11.3703 -2.51846,-16.40204 -0.65698,-4.57966 -0.61014,-5.74931 0.29078,-7.24982 0.40463,-0.6739 1.1769,-1.29572 1.85804,-1.49333 0.26594,-0.0771 0.81938,-0.13567 1.22884,-0.12978 z"
       style="fill:#fefefe"
       inkscape:connector-curvature="0"
       sodipodi:nodetypes="cssssssccscssscccsssssssccsscccscsssscccssssccc" />
    <path
       id="path3412"
       d="m 498.16292,68.26991 c 0.39538,-0.0542 0.71566,0.23701 1.21405,0.93313 0.9182,1.28249 1.69956,1.74645 2.93739,1.7414 0.89403,-0.003 1.51576,-0.2595 2.33117,-0.95613 0.7204,-0.61545 0.87563,-0.56892 0.87563,0.26121 0,0.48988 -0.0684,0.75278 -0.31707,1.22556 -1.06564,2.02582 -3.96802,4.50096 -6.67482,5.69241 -1.44928,0.63793 -5.77729,1.50439 -9.04214,1.8104 -0.52045,0.0488 -1.1397,0.0959 -1.37506,0.1035 l -0.42713,0.0148 -0.12815,-1.09906 c -0.27599,-2.37433 -0.99141,-4.24298 -2.07325,-5.41149 -2.14317,-2.31489 -5.85106,-1.78027 -7.18246,1.03499 l -0.29736,0.6292 -0.13635,-1.10563 -0.13636,-1.10398 0.30722,-0.44192 c 0.23793,-0.34168 0.52124,-0.54728 1.25183,-0.91341 l 0.94464,-0.47314 1.52454,0.007 c 1.66627,0.008 2.64376,0.14766 5.2045,0.74913 1.43236,0.33641 1.67362,0.36525 2.62853,0.3105 2.33197,-0.13369 6.30267,-1.44464 7.72295,-2.54968 0.34592,-0.26914 0.61047,-0.42578 0.8477,-0.45835 z"
       style="fill:#007f7f"
       inkscape:connector-curvature="0"
       sodipodi:nodetypes="cscssssccccsccccccccccscc" />
    <path
       inkscape:connector-curvature="0"
       style="fill:#000000"
       d="m 468.96327,26.53329 c 0.84008,0.0779 2.2482,1.24942 4.05944,3.4598 2.91932,3.56265 3.53892,5.33409 7.39767,21.13011 4.8642,19.91191 5.13995,20.34453 12.0091,18.77265 5.02791,-1.15055 6.63547,-3.38872 6.81776,-9.49558 0.13801,-4.62321 -0.73059,-5.27359 -2.12911,-1.59519 -0.42494,1.11768 -1.16289,2.03219 -1.63955,2.03218 -1.26549,0 -1.07015,-0.92512 0.86577,-4.10051 1.34378,-2.20411 2.13891,-2.72957 3.59123,-2.37552 1.0259,0.25008 3.19699,0.17854 4.825,-0.15936 2.66283,-0.55268 3.30319,-1.29097 6.37419,-7.35003 1.92268,-3.79347 3.95374,-6.73561 4.65086,-6.73561 1.72223,0 1.26245,2.93925 -1.43913,9.19657 -1.4939,3.46017 -2.27894,6.86594 -2.36403,10.25456 -0.14617,5.82131 -1.47913,8.88115 -3.86887,8.88115 -1.08847,0 -1.6609,0.57304 -1.6609,1.66254 0,0.91478 -1.32911,2.99332 -2.95381,4.618 -2.83369,2.8337 -5.43623,3.88948 -12.59724,5.11578 l -3.28731,0.56349 0.48299,16.21969 c 0.26526,8.92101 0.73551,17.05016 1.04485,18.06458 0.33289,1.09163 1.90939,2.3827 3.8623,3.16409 1.81474,0.72612 3.2988,1.70009 3.2988,2.16361 0,0.006 0.0183,0.0123 0.0214,0.0181 0.10589,0.62335 0.21094,1.47526 -1.58533,1.47526 l -10.61927,0 c 0,0 -0.48404,-0.13005 -0.50271,-1.74304 l 0,-1.50155 c 0,-1.42515 -1.33726,-11.02989 -2.97188,-21.34368 -1.63463,-10.31377 -4.13296,-26.17337 -5.55278,-35.24367 -1.41978,-9.0703 -3.54116,-19.91569 -4.71328,-24.10199 -1.17211,-4.18629 -2.19271,-8.33471 -2.26875,-9.21793 -0.11091,-1.28814 0.19922,-1.88906 0.85263,-1.82847 z m -0.17414,0.51421 c -0.35749,0.0213 -0.42984,0.48823 -0.138,1.44076 3.21049,10.47838 4.37845,15.62099 6.5779,28.96478 0.84642,5.135 1.62324,9.67503 2.1784,12.79273 0.005,0.0378 0.01,0.0695 0.0148,0.10678 0.19907,0.16311 0.45908,0.26876 0.75077,0.0953 0.63833,-0.37964 1.43867,-0.80179 2.17018,-0.96271 0.7138,-0.15705 1.70356,-0.19178 2.88153,-0.0871 0.84185,0.0749 1.78338,0.22404 2.7846,0.44685 -1.39568,-1.63834 -3.1877,-4.7268 -3.84422,-7.4371 -0.59009,-2.94731 -1.43032,-6.59871 -2.61539,-11.42919 -3.61002,-14.71476 -4.56244,-17.52072 -6.96396,-20.50911 -1.81276,-2.25572 -3.20079,-3.4575 -3.79659,-3.42202 z m 46.92257,13.49258 c -0.48887,0 -1.47714,1.42637 -2.19647,3.17067 -2.17149,5.26559 -9.54856,17.62869 -11.75774,19.70412 -3.06052,2.8752 -2.75585,6.72411 0.53227,6.72411 1.04639,0 2.87473,-2.88909 6.28876,-9.93749 3.93638,-8.1268 8.02195,-17.99421 8.02195,-19.37228 0,-0.15975 -0.39989,-0.28914 -0.88877,-0.28913 z m -5.33921,19.08971 c -0.5496,0.0366 -1.21,0.90046 -2.16032,2.76324 -2.18585,4.28459 -2.2034,5.20942 -0.10186,5.20942 1.2032,0 1.93618,-0.93513 2.67782,-3.41052 0.73556,-2.45505 0.76528,-3.66709 0.1035,-4.32886 -0.16544,-0.16544 -0.33594,-0.24546 -0.51914,-0.23328 z m -12.03867,8.53779 c -0.0538,-0.003 -0.10952,-0.002 -0.16592,0.008 -0.27075,0.0487 -0.57903,0.25603 -0.98899,0.60786 -0.71375,0.61252 -2.98059,1.52485 -5.03692,2.02725 -1.50603,0.38528 -2.94489,0.63215 -4.27137,0.32693 -2.85442,-0.77849 -6.18195,-1.25976 -7.38288,-0.99557 -0.58275,0.12822 -1.35953,0.52092 -1.96976,0.88386 -0.46501,0.27655 -0.71354,0.84215 -0.83456,1.15162 0.10191,0.70998 0.20023,1.39511 0.32035,2.24575 0.12285,-0.38298 0.27502,-0.74371 0.46164,-1.07442 0.70256,-1.24495 1.89475,-2.06985 3.45981,-2.17017 1.56897,-0.10058 3.05393,0.58381 4.08244,2.09789 0.89487,1.31736 1.46906,3.24142 1.6034,5.84355 2.02043,0.0266 6.28873,-0.58652 9.70585,-1.45883 3.43651,-0.87727 8.28973,-5.17068 8.28973,-7.3336 0,-1.06762 -0.22594,-1.14747 -1.01527,-0.35814 -1.52499,1.525 -3.91479,1.2229 -5.07964,-0.64235 -0.47691,-0.76363 -0.80163,-1.13338 -1.17791,-1.15983 z m -15.86811,3.76373 c -0.16115,-0.009 -0.3249,-0.008 -0.49121,0.003 -1.33445,0.0855 -2.25064,0.72765 -2.84867,1.7874 -0.5201,0.92166 -0.75571,2.18527 -0.70642,3.62081 0.24989,1.75577 0.573,4.07145 0.72285,5.06156 0.48479,3.47616 1.27652,8.65804 2.26711,14.68692 1.67976,10.22326 3.05402,19.75814 3.05402,21.18924 l 0,2.60225 5.49691,0 c 3.02344,0 5.49692,-0.30515 5.49692,-0.67684 0,-0.3717 -1.3534,-1.16445 -3.00802,-1.76277 -1.89257,-0.68436 -3.34174,-1.92387 -3.90666,-3.34151 -0.49389,-1.23942 -1.09302,-9.71756 -1.33234,-18.84 l -0.33513,-12.76973 c 0.0128,-1.37906 0.005,-2.66955 -0.008,-3.91323 -0.0898,-2.72403 -0.65864,-4.65731 -1.48676,-5.8764 -0.79032,-1.16345 -1.78639,-1.70977 -2.91438,-1.77098 z"
       id="path3408-6" />
    <path
       id="path4297"
       d="m 458.42188,101.07422 c -0.5218,-0.0402 -1.81075,0.77243 -3.09766,1.98633 -1.47075,1.38731 -5.19714,3.73026 -8.28125,5.20703 -5.63459,2.69803 -11.17769,3.41635 -16.48438,2.17578 -0.086,1.20631 -0.0943,1.3006 -0.14062,1.92383 5.25408,1.06893 11.28422,0.45048 16.2793,-1.875 5.44042,-2.53281 12.8632,-8.36302 11.89843,-9.34571 -0.041,-0.0418 -0.0993,-0.0665 -0.17382,-0.0723 z"
       style="fill:#fe0000"
       inkscape:connector-curvature="0" />
  </g>
</svg>
