<?xml version="1.0" encoding="UTF-8" standalone="no"?>
<!-- Created with Inkscape (http://www.inkscape.org/) -->

<svg
   xmlns:dc="http://purl.org/dc/elements/1.1/"
   xmlns:cc="http://creativecommons.org/ns#"
   xmlns:rdf="http://www.w3.org/1999/02/22-rdf-syntax-ns#"
   xmlns:svg="http://www.w3.org/2000/svg"
   xmlns="http://www.w3.org/2000/svg"
   xmlns:sodipodi="http://sodipodi.sourceforge.net/DTD/sodipodi-0.dtd"
   xmlns:inkscape="http://www.inkscape.org/namespaces/inkscape"
   id="svg3336"
   version="1.1"
   inkscape:version="0.91 r13725"
   width="439.25235"
   height="200.625"
   viewBox="0 0 439.25235 200.625"
   sodipodi:docname="bb830403.svg">
  <metadata
     id="metadata3342">
    <rdf:RDF>
      <cc:Work
         rdf:about="">
        <dc:format>image/svg+xml</dc:format>
        <dc:type
           rdf:resource="http://purl.org/dc/dcmitype/StillImage" />
        <dc:title></dc:title>
      </cc:Work>
    </rdf:RDF>
  </metadata>
  <defs
     id="defs3340" />
  <sodipodi:namedview
     pagecolor="#8f8f8f"
     bordercolor="#666666"
     borderopacity="1"
     objecttolerance="10"
     gridtolerance="10"
     guidetolerance="10"
     inkscape:pageopacity="0"
     inkscape:pageshadow="2"
     inkscape:window-width="1583"
     inkscape:window-height="1005"
     id="namedview3338"
     showgrid="false"
     inkscape:zoom="1.4228723"
     inkscape:cx="243.6512"
     inkscape:cy="112.0571"
     inkscape:window-x="0"
     inkscape:window-y="0"
     inkscape:window-maximized="0"
     inkscape:current-layer="svg3336" />
  <g
     id="g3346"
     transform="translate(5.7876102,3.5477297)">
    <path
       style="fill:#fefefe"
       d="m 398.5734,151.64062 c -0.70317,-3.34484 -3.54104,-10.22914 -11.37481,-27.59385 -4.31827,-9.57209 -5.01432,-11.83879 -4.29764,-13.99553 2.05063,-6.17111 6.89688,-5.17979 7.88473,1.61286 0.32931,2.26443 2.36334,9.81246 4.52007,16.7734 5.4988,17.74765 7.04333,26.25 4.76852,26.25 -0.47317,0 -1.14857,-1.37109 -1.50087,-3.04688 z m -30.34909,-24.11956 c -4.36916,-1.93848 -13.06578,-5.3137 -19.32581,-7.5005 -6.99134,-2.44226 -12.18794,-4.83668 -13.47147,-6.20721 -2.02737,-2.16477 -2.03895,-2.28732 -0.38915,-4.11602 0.93523,-1.03666 2.18258,-1.88483 2.77189,-1.88483 1.60932,0 34.16091,16.84697 37.65753,19.48954 3.12186,2.35935 3.93204,4.02625 1.86916,3.84573 -0.64252,-0.0563 -4.74299,-1.68825 -9.11215,-3.62671 z M 14.641745,119.375 c -0.342679,-0.34375 -0.623053,-1.82031 -0.623053,-3.28125 l 0,-2.65625 159.986498,0 c 158.19337,0 160.00859,0.0208 161.9574,1.85735 1.08399,1.02153 3.63446,2.46838 5.66771,3.21519 3.25279,1.19475 -16.1249,1.36578 -161.33434,1.4239 -90.767141,0.0363 -165.311536,-0.21519 -165.654215,-0.55894 z m 343.302195,-2.65625 -6.07477,-3.19028 14.69563,-0.0455 14.69562,-0.0455 1.42587,2.76594 c 0.78423,1.52127 1.42587,2.99784 1.42587,3.28125 0,0.28342 -4.52103,0.49484 -10.04673,0.46982 -9.57241,-0.0434 -10.33352,-0.19614 -16.12149,-3.2358 z m 35.51402,3.04069 c 0,-0.13231 -0.39121,-1.60887 -0.86934,-3.28125 l -0.86935,-3.04069 11.14972,0 11.14971,0 0,3.28125 0,3.28125 -10.28037,0 c -5.65421,0 -10.28037,-0.10825 -10.28037,-0.24056 z M 65.420563,111.61387 c 0,-0.54388 0.999906,-0.98887 2.222014,-0.98887 4.169201,0 4.374116,-1.70748 1.41323,-11.775872 l -2.766979,-9.409011 4.208155,-9.095058 c 4.547184,-9.827802 6.072609,-10.942754 8.507963,-6.21858 1.462605,2.837203 1.423306,2.972314 -2.878248,9.895444 -4.762106,7.664361 -4.739761,7.425802 -1.724708,18.413117 2.186243,7.96699 1.476272,9.47973 -4.637907,9.88195 -2.60308,0.17124 -4.34352,-0.11049 -4.34352,-0.70312 z m 18.691589,-0.0714 c 0,-0.52668 1.024215,-2.53059 2.276034,-4.45313 1.251818,-1.92254 4.213825,-7.925209 6.582237,-13.339272 3.491421,-7.981202 5.521627,-11.174141 10.729817,-16.875 5.5734,-6.100617 6.65044,-6.89008 8.13739,-5.964663 1.11766,0.69559 1.66796,2.061963 1.58207,3.928207 -0.10333,2.244884 -1.7172,4.439605 -7.48829,10.183412 -5.5356,5.50944 -8.333304,9.248254 -11.302529,15.104586 -4.196686,8.27726 -10.516729,15.13764 -10.516729,11.41583 z m 152.336458,0.0767 c 0,-0.54678 0.65398,-0.99412 1.45329,-0.99412 0.86252,0 2.37498,-2.09059 3.72058,-5.14275 l 2.26728,-5.14274 -2.786,-7.257748 c -1.53229,-3.991759 -2.786,-7.766281 -2.786,-8.387826 0,-1.270163 3.559,-2.686327 4.46557,-1.776906 0.32253,0.323526 1.54711,4.594085 2.7213,9.490132 l 2.13491,8.901898 -2.14262,5.3611 c -2.0161,5.04455 -2.34647,5.37827 -5.59546,5.65206 -1.99226,0.16788 -3.45285,-0.12955 -3.45285,-0.70312 z m 42.99065,0.0528 c 0,-0.45549 0.85194,-1.05164 1.89319,-1.32478 1.6495,-0.43271 1.82249,-1.01999 1.34396,-4.56247 -0.30207,-2.23622 -2.41569,-7.87125 -4.69692,-12.522298 -2.28124,-4.651106 -4.14771,-8.90994 -4.14771,-9.464131 0,-0.55419 0.7803,-1.715989 1.734,-2.581774 2.3996,-2.178389 5.10901,-1.027279 4.54526,1.931075 -0.23662,1.241616 0.71609,5.084325 2.11712,8.539356 2.66669,6.576219 5.1523,18.363152 4.19876,19.910822 -0.69731,1.13181 -6.98766,1.19855 -6.98766,0.0741 z m 44.85982,-0.1094 c 0,-0.51562 0.31542,-0.94396 0.70093,-0.95185 3.13692,-0.0642 2.99388,-1.81692 -0.99958,-12.247728 -2.25449,-5.88867 -4.38054,-11.351589 -4.72457,-12.139823 -0.34403,-0.788232 -0.01,-2.264794 0.74225,-3.28125 2.22405,-3.005123 4.73395,-0.73311 4.80864,4.3529 0.0332,2.261326 1.43951,8.23921 3.12511,13.284201 1.68559,5.04498 2.82816,9.79108 2.53904,10.54687 -0.58814,1.53745 -6.19182,1.93265 -6.19182,0.43668 z m -113.54084,-7.5334 c 0.80335,-2.53903 -5.56878,-18.229033 -9.04234,-22.264846 -2.94194,-3.418146 -3.28116,-5.072113 -1.36706,-6.665636 1.7212,-1.432936 4.11935,-0.39198 4.8319,2.097364 0.31845,1.112522 2.45219,6.927102 4.74164,12.92129 3.65189,9.561309 4.02548,11.200458 3.04488,13.359378 -1.31269,2.89004 -3.08921,3.33432 -2.20902,0.55245 z m 23.40148,-9.575975 c 0.6996,-2.302872 3.10626,-5.390625 4.20158,-5.390625 0.37862,0 0.96239,1.095041 1.29726,2.433425 0.75329,3.010712 -0.81081,5.066575 -3.85466,5.066575 -1.93643,0 -2.18724,-0.321769 -1.64418,-2.109375 z M 197.19627,87.1875 c -0.71074,-1.332177 -0.71074,-2.417823 0,-3.75 1.20445,-2.257567 1.76861,-2.310078 4.46494,-0.41559 2.73133,1.919073 2.62759,3.613028 -0.30331,4.952607 -3.06235,1.39966 -2.98745,1.413826 -4.16163,-0.787017 z m 181.96378,0.344909 c -1.73046,-1.735861 -0.15377,-4.941557 5.20481,-10.582352 3.22311,-3.392843 7.64409,-8.237915 9.82441,-10.766824 2.18032,-2.52891 4.20535,-4.356141 4.50006,-4.060512 0.97287,0.975912 -2.40275,6.8213 -8.29941,14.371667 -3.19576,4.092 -6.2761,8.277418 -6.84522,9.300931 -1.09431,1.968031 -3.28803,2.837134 -4.38465,1.73709 z M 266.35515,85.36566 c 0,-2.058023 3.3009,-4.74066 5.83323,-4.74066 1.35753,0 1.56139,0.49365 1.0647,2.578125 -0.89592,3.760022 -1.12957,3.984375 -4.14935,3.984375 -2.0988,0 -2.74858,-0.430698 -2.74858,-1.82184 z m 46.95606,-3.01287 c -0.63892,-0.64091 -1.16167,-2.34654 -1.16167,-3.79029 0,-2.128735 0.41433,-2.625 2.1916,-2.625 2.68054,0 5.56534,2.99486 5.12532,5.320871 -0.38763,2.049109 -4.47845,2.776466 -6.15525,1.094419 z M 377.25858,80 c -0.34268,-0.34375 -0.62305,-1.820312 -0.62305,-3.28125 0,-2.402037 0.30777,-2.65625 3.21586,-2.65625 4.18275,0 4.97503,1.460233 2.32661,4.288151 -2.13302,2.277594 -3.75202,2.820401 -4.91942,1.649349 z m -81.92846,-5.934481 c -3.85207,-3.864113 -2.11974,-6.116552 21.02503,-27.337388 4.17996,-3.832502 11.09565,-7.31655 12.2415,-6.167128 0.23871,0.239455 -3.46938,4.468978 -8.24019,9.398939 -11.39764,11.777849 -18.48729,19.820042 -18.48729,20.971181 0,0.511246 -1.0136,1.884744 -2.25245,3.052218 l -2.25245,2.12268 -2.03415,-2.040502 z m 12.15955,-9.142415 c 12.19927,-13.938534 14.61464,-16.440851 17.12821,-17.744729 4.40449,-2.284772 3.99235,-0.571661 -0.8753,3.638145 -2.52103,2.180329 -8.36288,7.564345 -12.98188,11.964482 -7.7281,7.361918 -7.98909,7.532834 -3.27103,2.142102 z M 129.59502,65.9375 c -1.75906,-1.764557 0.071,-4.481454 6.82543,-10.132699 6.32265,-5.290024 11.14894,-7.992301 14.27432,-7.992301 0.38891,0 0.7071,0.632812 0.7071,1.40625 0,0.773437 -0.81929,1.40625 -1.82063,1.40625 -2.47038,0 -13.01001,8.929401 -14.17847,12.012291 -1.28687,3.39528 -4.11239,5.000865 -5.80775,3.300209 z m 8.28696,-1.215083 c -2.2177,-2.45819 -1.33,-4.321282 2.41716,-5.073055 2.40919,-0.483345 3.491,-0.194815 4.98686,1.330057 l 1.91027,1.947302 -2.20634,1.81789 c -2.80642,2.312316 -5.00804,2.305442 -7.10795,-0.02219 z m 95.70204,-3.081819 c -1.31852,-1.675766 -6.30998,-10.106213 -11.09216,-18.734325 -6.47772,-11.687267 -9.02792,-17.281315 -10.00099,-21.937967 -1.26352,-6.046544 -1.11597,-8.19124 0.43855,-6.374556 0.4118,0.48125 6.92982,10.860725 14.48449,23.0655 12.77499,20.638333 13.65891,22.359695 12.63709,24.609375 -1.47614,3.249889 -3.57625,3.045941 -6.46698,-0.628027 z M 182.71029,58.2245 c -1.54206,-1.52947 -9.11215,-6.025093 -16.82243,-9.990276 -13.60631,-6.997343 -22.12715,-12.699036 -20.89017,-13.978583 0.33283,-0.344291 3.48703,0.819069 7.00934,2.585242 3.5223,1.766174 12.50232,5.659599 19.95559,8.652055 16.00023,6.42402 19.26701,8.516558 19.20366,12.300892 -0.0381,2.275461 -0.46347,2.714987 -2.84852,2.94322 -2.07552,0.198615 -3.53195,-0.453973 -5.60747,-2.51255 z M 75.249927,57.018905 c -7.735396,-1.645197 -8.482452,-1.665413 -9.508872,-0.257314 -1.481747,2.032743 -4.455419,1.369321 -4.804845,-1.071954 -0.477034,-3.332813 2.137125,-4.65335 6.658856,-3.363709 2.145145,0.611816 7.36989,2.024134 11.610544,3.138485 4.240654,1.11435 7.710281,2.379791 7.710281,2.812089 0,1.044045 -1.711663,0.859527 -11.665964,-1.257597 z m -20.510272,-4.11712 c -4.153361,-4.16634 1.28723,-8.160219 5.591066,-4.104341 2.139093,2.015855 2.185706,2.259952 0.737989,3.864659 -1.896966,2.102676 -4.378194,2.19664 -6.329055,0.239682 z"
       id="path3354"
       inkscape:connector-curvature="0" />
    <path
       style="fill:#007f7f"
       d="m 329.00758,101.06588 c -2.59321,-8.304512 -4.29524,-18.561105 -3.08079,-18.565131 0.1242,-4.12e-4 2.57265,4.745345 5.44098,10.546126 2.86833,5.800781 6.32958,11.481055 7.69166,12.622835 2.35531,1.97437 2.37225,2.04862 0.34614,1.51712 -1.51648,-0.39781 -2.85541,0.1326 -4.64647,1.84068 l -2.5161,2.39952 -3.23542,-10.36115 z m 50.18468,-0.54569 c -2.49352,-9.816506 -3.53828,-19.361336 -1.58537,-14.483784 1.63781,4.090558 5.6124,3.474545 7.48516,-1.160108 0.50683,-1.254311 0.79107,0.593343 0.83003,5.395425 0.0435,5.363299 0.55569,8.279139 1.9284,10.978277 2.30533,4.53293 2.3052,4.62635 -0.005,4.02034 -2.07008,-0.54303 -4.54533,1.10892 -5.48676,3.66177 -0.38824,1.05281 -1.53852,-2.00296 -3.16648,-8.41192 z M 244.91906,85.661667 c -0.0921,-3.098556 -2.44345,-4.591881 -5.2271,-3.319599 -2.27682,1.04063 -2.30908,0.993882 -2.33096,-3.377792 -0.0126,-2.525528 -1.01613,-6.853421 -2.33211,-10.058026 -2.65094,-6.455366 -2.95833,-8.364645 -0.86374,-5.364849 1.85034,2.649994 4.70645,2.673991 6.1057,0.0513 1.01176,-1.896417 1.22581,-1.683292 3.2013,3.187511 2.55104,6.289894 3.73709,15.290102 2.44221,18.532291 -0.85627,2.14397 -0.94111,2.173732 -0.9953,0.349167 z m 36.04502,-2.137718 c 0.42315,-2.12237 0.12253,-2.95206 -1.35753,-3.746638 -1.04557,-0.561323 -2.66749,-0.771366 -3.60426,-0.466763 -1.41885,0.461362 -1.46917,0.384937 -0.30135,-0.457756 0.77103,-0.55637 3.05871,-1.01804 5.08373,-1.025936 3.22529,-0.01257 4.23289,-0.612465 8.12547,-4.83763 2.90207,-3.150013 4.26655,-4.144059 3.93321,-2.865396 -0.3456,1.325713 0.27411,2.744835 1.91929,4.39516 l 2.42969,2.437283 -2.10083,2.865608 C 292.55355,83.283727 287.0838,86.25 283.23818,86.25 c -2.61238,0 -2.77802,-0.198562 -2.2741,-2.726051 z M 114.58072,75.651222 c 0.45022,-1.969689 0.0912,-3.174488 -1.4297,-4.798531 l -2.03086,-2.168504 2.96318,-2.501136 c 4.09977,-3.460506 7.17388,-4.910435 12.08489,-5.699931 3.44223,-0.553375 3.99356,-0.454379 3.03738,0.545393 -2.99862,3.135342 0.0623,7.491466 3.99964,5.691919 1.36639,-0.624515 2.30877,-0.688065 2.30877,-0.155694 0,1.389902 -4.35887,2.162775 -8.47446,1.50261 C 123.05279,67.427843 123.40552,67.189775 116.7681,75 l -2.78854,3.28125 0.60116,-2.630028 z m 89.85854,-0.868117 c -1.99739,-2.024984 -2.95505,-2.075517 -4.77303,-0.251855 -1.70518,1.710503 -2.46996,1.786124 -2.46996,0.244225 0,-3.488522 -3.43858,-9.106882 -6.45748,-10.550992 l -3.22168,-1.541114 2.26948,-1.165066 c 1.51001,-0.775181 2.19499,-1.851635 2.04686,-3.216685 -0.12244,-1.12839 -0.005,-2.051618 0.26114,-2.051618 0.26607,0 2.67934,1.731257 5.36282,3.847237 5.17315,4.079141 9.39024,10.845782 8.90604,14.290379 -0.27589,1.96266 -0.3611,1.980171 -1.92419,0.395489 z M 79.597355,73.567439 c -1.413403,-3.111775 -3.561573,-3.849518 -5.660582,-1.944006 -1.593877,1.446947 -1.841662,1.325382 -4.170962,-2.0463 -1.362029,-1.971551 -3.948304,-5.015707 -5.74728,-6.764791 -3.765132,-3.660714 -4.103865,-4.73032 -1.261951,-3.984821 1.297643,0.340402 2.431475,-0.05271 3.202394,-1.110296 1.708972,-2.344462 4.304878,-1.167649 6.489146,2.94175 1.018022,1.915266 3.428051,5.318361 5.355621,7.562432 1.92757,2.244071 3.504673,4.898221 3.504673,5.898112 0,2.426537 -0.419638,2.291139 -1.711059,-0.55208 z"
       id="path3350"
       inkscape:connector-curvature="0" />
    <path
       style="fill:#000000"
       d="m 17.28972,180.22106 6.542056,-0.34387 10.910092,-16.16681 10.910093,-16.16679 -10.292727,-11.66242 C 22.189913,120.95935 22.165075,120.9375 18.377812,120.9375 c -3.834387,0 -5.535065,-1.76912 -5.127585,-5.33393 l 0.301175,-2.63482 25.205253,-0.25008 c 21.125318,-0.2096 25.330825,-0.47516 25.98102,-1.64062 0.426672,-0.76481 1.78145,-1.39055 3.01062,-1.39055 1.229169,0 2.438913,-0.33121 2.688319,-0.73602 0.249407,-0.40481 -0.790578,-4.93351 -2.311078,-10.063793 l -2.764545,-9.327775 3.382504,-7.422848 c 3.941732,-8.650065 3.947216,-8.626016 -3.968118,-17.400076 -2.72926,-3.025355 -4.962291,-6.38351 -4.962291,-7.462567 0,-1.336921 -0.595449,-1.961921 -1.869159,-1.961921 -3.122652,0 -5.607477,-3.323453 -5.607477,-7.5 0,-5.372585 2.348115,-7.425477 8.336805,-7.28864 3.859774,0.08819 5.154324,0.580952 7.226656,2.750761 3.2486,3.401403 2.062319,4.723238 -1.320872,1.471806 l -2.560345,-2.460632 0,4.008997 0,4.008998 8.878505,2.499157 c 4.883177,1.374538 10.03902,2.75917 11.457428,3.076962 3.005044,0.673274 4.103024,2.011012 2.757998,3.360242 -0.642029,0.644035 -3.131664,0.453746 -7.699911,-0.588527 -3.713105,-0.847167 -6.956346,-1.334416 -7.207202,-1.082775 -0.652593,0.654632 3.295047,6.975515 6.935962,11.105727 1.705836,1.935079 3.101519,4.273028 3.101519,5.195443 0,0.922414 -2.145505,5.174341 -4.76779,9.448725 -5.20147,8.47852 -5.159841,8.106709 -2.139808,19.111796 1.42167,5.1806 1.526954,6.67731 0.577037,8.20312 -1.095602,1.75983 -0.921443,1.86634 3.051613,1.86634 2.317441,0 4.213528,-0.43092 4.213528,-0.9576 0,-0.52668 1.024215,-2.53058 2.276033,-4.45312 1.251818,-1.92255 4.232048,-7.975636 6.622732,-13.451312 3.914319,-8.965452 5.2306,-10.901725 13.232542,-19.465346 9.99092,-10.692205 14.49125,-13.774061 21.45282,-14.690983 3.99717,-0.526476 5.897,-1.531984 11.36973,-6.017609 6.40209,-5.247337 11.78343,-7.518193 13.56977,-5.726265 1.44175,1.446253 0.0521,3.515356 -2.78909,4.152585 -1.45773,0.326951 -4.33267,2.089172 -6.38874,3.916049 -3.31256,2.943296 -3.46939,3.258892 -1.37708,2.771046 3.04665,-0.710355 6.38409,2.685389 7.12192,7.246348 0.4595,2.840447 0.17266,3.535001 -2.13981,5.18122 -1.46875,1.045581 -3.51157,2.061563 -4.53961,2.257737 -2.54669,0.485967 -2.37121,3.071975 0.23364,3.443079 2.84326,0.405069 2.68228,2.044171 -0.20076,2.044171 -2.37475,0 -4.79675,-3.022931 -3.76445,-4.698451 0.30826,-0.500334 -0.15603,-1.862709 -1.03175,-3.0275 -1.39877,-1.860503 -2.39111,-2.109634 -8.16793,-2.050596 -5.48587,0.05606 -6.7405,0.366824 -7.5699,1.875 -0.5468,0.994288 -3.2904,3.917172 -6.09691,6.495297 -12.08969,11.105907 -15.514503,15.14284 -19.499437,22.98459 -2.222787,4.37411 -5.166713,8.88696 -6.54206,10.02857 l -2.500632,2.07566 74.432719,0.0337 c 65.3211,0.0296 74.49858,-0.13844 74.97068,-1.37254 0.29587,-0.77344 1.12591,-1.40625 1.84454,-1.40625 0.71863,0 2.18126,-2.11125 3.25029,-4.69167 1.58287,-3.8207 1.75947,-5.221804 0.9513,-7.547366 -0.91163,-2.623285 -1.12271,-2.737388 -2.59362,-1.402078 -2.00172,1.817193 -6.59076,1.879762 -8.98569,0.122512 -1.34738,-0.988631 -1.7922,-2.388478 -1.72887,-5.440789 0.0809,-3.903091 -0.0364,-4.092397 -2.33645,-3.76579 -2.55375,0.362645 -6.63432,-1.955304 -5.48021,-3.113015 0.37228,-0.373447 1.21274,-0.251038 1.86768,0.272022 0.99635,0.795717 5.47915,0.92151 12.92156,0.362594 1.21474,-0.09123 1.35205,-1.061937 0.84512,-5.974873 -0.33289,-3.226274 -1.51126,-7.920526 -2.6186,-10.431674 -1.10733,-2.511175 -2.01334,-5.073316 -2.01334,-5.693675 0,-0.620359 -4.32714,-8.925907 -9.61586,-18.456772 -7.50861,-13.531359 -9.85982,-18.644825 -10.72915,-23.333973 -1.10592,-5.96536 -0.41146,-8.990972 1.59575,-6.952358 0.48229,0.489844 7.03136,10.791855 14.55349,22.893359 17.52307,28.190906 22.00991,39.767769 19.13862,49.381205 -0.88445,2.961257 -0.80675,4.737419 0.41394,9.462958 1.47749,5.719623 1.46426,5.912533 -0.78677,11.469653 l -2.28954,5.6522 17.12426,0 c 14.35942,0 17.21111,-0.22705 17.6622,-1.40625 0.29587,-0.77344 1.18696,-1.40625 1.98019,-1.40625 2.34818,0 0.85416,-6.91307 -3.41422,-15.798131 -2.73823,-5.699893 -4.04119,-7.548559 -4.79054,-6.796879 -1.38004,1.384361 -8.40811,1.31813 -9.81433,-0.09249 -1.53848,-1.543288 -1.40737,-5.91358 0.27535,-9.177764 l 1.39685,-2.709651 -3.42741,-0.290668 c -1.88507,-0.159863 -3.56506,-0.712538 -3.7333,-1.228163 -0.45742,-1.401922 7.99582,-1.169737 8.53296,0.234375 C 266.09476,74.472656 267.43311,75 268.82232,75 c 1.38921,0 3.19745,0.609695 4.0183,1.354876 1.14237,1.037068 2.69418,1.189476 6.61564,0.649742 4.92029,-0.677209 5.49609,-1.074313 14.539,-10.026752 23.50114,-23.266028 32.20904,-29.853133 35.2964,-26.700009 0.82269,0.840208 0.60209,1.499114 -0.91995,2.747812 -1.81385,1.488115 -1.85779,1.73881 -0.46729,2.665952 1.32798,0.885448 0.84206,1.628659 -3.60534,5.514357 -9.34339,8.163317 -24.39927,23.252343 -27.75197,27.813058 -3.45546,4.700508 -8.88787,8.168464 -12.79556,8.168464 l -2.30423,0 2.14988,5.502962 c 2.36434,6.05195 4.64058,17.484958 3.76429,18.907238 -0.34868,0.56595 6.05423,0.9023 17.17687,0.9023 16.90156,0 17.84005,-0.0959 20.02148,-2.04499 l 2.28872,-2.04498 -2.75162,-7.56439 C 319.36918,87.84865 317.64417,84.375 315.91762,84.375 c -2.64234,0 -4.70266,-3.133398 -4.70266,-7.151945 0,-4.637914 1.28288,-5.973055 5.73924,-5.973055 1.92293,0 3.75617,-0.421875 4.07385,-0.9375 0.99428,-1.613807 4.09362,-1.024119 5.16422,0.982554 0.73568,1.378939 1.56627,1.747527 2.9472,1.30787 1.37692,-0.438387 1.8031,-0.251563 1.50115,0.658071 -0.73172,2.204278 -3.75922,2.055089 -5.51187,-0.271615 -1.24362,-1.650948 -1.93244,-1.939128 -2.72981,-1.142069 -0.76064,0.760353 -0.77511,1.246693 -0.0505,1.695954 0.5588,0.346441 1.01601,2.24329 1.01601,4.215222 0,2.757601 0.41779,3.694925 1.80967,4.060047 1.18267,0.310244 3.65207,4.164688 7.12732,11.124968 5.12248,10.259368 8.86429,14.897348 14.80541,18.351398 1.32328,0.76934 7.18752,1.14943 18.08003,1.17187 8.86682,0.0183 16.11881,-0.0723 16.11553,-0.20115 -0.004,-0.1289 -1.26495,-5.03715 -2.80374,-10.90721 -3.13596,-11.962938 -3.46025,-16.202305 -1.37232,-17.940539 1.27754,-1.06358 1.27754,-1.350656 0,-2.766736 -0.79798,-0.884518 -1.42544,-3.301399 -1.42544,-5.49058 0,-5.230679 2.70133,-8.074689 7.00429,-7.374234 1.71735,0.27956 3.52336,0.02813 4.12373,-0.574111 0.80116,-0.803678 1.5157,-0.791143 2.85863,0.05015 1.56635,0.98126 2.20081,0.626279 5.06879,-2.835975 2.46524,-2.97607 3.54433,-3.691128 4.35087,-2.883089 1.50956,1.512384 -0.7415,5.940424 -7.06936,13.906068 l -5.122,6.447691 0,7.838822 c 0,5.953645 0.44356,8.711001 1.8444,11.465443 1.01442,1.99464 2.11957,5.35283 2.4559,7.46265 l 0.61149,3.83603 11.32915,0.19003 11.32915,0.19003 -11.2768,0.5131 -11.27681,0.51309 0.78951,3.04688 0.78951,3.04687 10.48729,0.19911 10.4873,0.1991 -10.11388,0.30205 -10.1139,0.30204 0.63142,2.88382 c 0.34728,1.58611 1.88343,6.7395 3.41367,11.45198 3.13507,9.65468 4.03373,19.81815 1.75235,19.81815 -0.81583,0 -1.97331,-2.03152 -2.93782,-5.15625 -0.87536,-2.83594 -3.35775,-9.16406 -5.51643,-14.0625 -2.15866,-4.89844 -4.5222,-10.27734 -5.25229,-11.95312 l -1.32745,-3.04688 -9.09961,0.0414 -9.09961,0.0414 3.27103,1.76487 c 1.79906,0.97067 4.74299,3.0267 6.54206,4.56896 2.57032,2.20342 3.02954,3.05281 2.14372,3.96516 -0.89366,0.92041 -2.24955,0.65649 -6.54205,-1.2734 -2.97812,-1.33894 -9.34102,-3.93609 -14.13979,-5.77145 l -8.72503,-3.33701 -141.97591,0 c -115.040689,0 -141.975907,0.22861 -141.975907,1.20502 0,0.66277 -8.558191,13.84636 -19.018203,29.29688 l -19.018202,28.09185 193.550912,0.47208 193.55092,0.47209 -201.86916,0.0447 c -111.02804,0.0247 -198.925241,-0.10998 -195.32711,-0.29911 z m 383.60417,-28.58044 c -0.0581,-4.35133 -1.14332,-8.85725 -5.58814,-23.20312 -2.15673,-6.96094 -4.19076,-14.50897 -4.52007,-16.7734 -0.98785,-6.79265 -5.8341,-7.78397 -7.88473,-1.61286 -0.71668,2.15674 -0.0207,4.42344 4.29764,13.99553 7.83377,17.36471 10.67164,24.24901 11.37481,27.59385 0.3523,1.67579 1.0277,3.04688 1.50087,3.04688 0.47317,0 0.842,-1.37109 0.81962,-3.04688 z M 61.994596,122.57813 c 0.414821,-1.52171 -0.872335,-1.64063 -17.757608,-1.64063 l -18.204845,0 2.638135,3.1535 c 1.450973,1.73442 6.195019,7.1796 10.542322,12.10039 l 7.904189,8.9469 7.215284,-10.45977 c 3.968406,-5.75287 7.416542,-11.19805 7.662523,-12.10039 z m 316.510084,7.84564 c 0,-0.45442 -1.36682,-1.8592 -3.03738,-3.12173 -3.49662,-2.64257 -36.04821,-19.48954 -37.65753,-19.48954 -0.58931,0 -1.83666,0.84817 -2.77189,1.88483 -1.6498,1.8287 -1.63822,1.95125 0.38915,4.11602 1.28353,1.37053 6.48013,3.76495 13.47147,6.20721 6.26003,2.1868 14.95665,5.56202 19.32581,7.5005 8.36879,3.71298 10.28037,4.25273 10.28037,2.90271 z M 341.6303,118.51004 c -2.03325,-0.74681 -4.58372,-2.19366 -5.66771,-3.21519 -1.94881,-1.83654 -3.76403,-1.85735 -161.9574,-1.85735 l -159.986498,0 0,2.65625 c 0,1.46094 0.280374,2.9375 0.623053,3.28125 0.342679,0.34375 74.887074,0.59527 165.654215,0.55894 145.20944,-0.0581 164.58713,-0.22915 161.33434,-1.4239 z m 42.48186,0.97465 c 0,-0.28341 -0.64164,-1.75997 -1.42587,-3.28125 l -1.42587,-2.76594 -14.69562,0.0455 -14.69563,0.0455 6.07477,3.19027 c 5.78797,3.03966 6.54908,3.19242 16.12149,3.23576 5.5257,0.025 10.04673,-0.1864 10.04673,-0.46982 z m -308.9873,-9.0809 c 0.762742,-1.22028 0.581882,-3.21404 -0.72287,-7.96875 -3.021367,-11.010327 -3.063093,-10.637357 2.138634,-19.116296 2.622284,-4.274384 4.76779,-8.501868 4.76779,-9.394408 0,-0.892539 -1.577103,-3.458858 -3.504673,-5.702929 -1.92757,-2.244071 -4.337599,-5.647166 -5.355621,-7.562432 -2.184268,-4.109399 -4.780174,-5.286212 -6.489146,-2.94175 -0.770919,1.057589 -1.904751,1.450698 -3.202394,1.110296 -2.841914,-0.745499 -2.503181,0.324107 1.261951,3.984821 1.798976,1.749084 4.385251,4.79324 5.74728,6.764791 2.253688,3.262234 2.617559,3.456505 4.045716,2.160001 0.863115,-0.783549 2.038037,-1.424634 2.61094,-1.424634 1.177544,0 3.971003,3.661716 3.913949,5.130474 -0.02058,0.529802 -0.664853,-0.19688 -1.431717,-1.614849 -2.367856,-4.37828 -3.925156,-3.171196 -8.407716,6.516934 l -4.208155,9.095058 2.766979,9.409011 c 2.960886,10.068392 2.755971,11.775872 -1.41323,11.775872 -1.222108,0 -2.222014,0.44499 -2.222014,0.98887 0,1.69966 8.55211,0.63325 9.704297,-1.21008 z m 12.838697,-0.19913 c 1.495648,-1.26244 4.495043,-5.79759 6.665324,-10.07812 2.969225,-5.856331 5.766929,-9.595144 11.302529,-15.104584 5.77109,-5.743807 7.38496,-7.938528 7.48829,-10.183412 0.0859,-1.866244 -0.46441,-3.232617 -1.58207,-3.928207 -1.48695,-0.925417 -2.56399,-0.135954 -8.13739,5.964663 -5.20819,5.700859 -7.238396,8.893798 -10.729817,16.875 -2.368412,5.414062 -5.330419,11.41673 -6.582237,13.33927 -3.658412,5.61858 -2.979901,6.96038 1.575371,3.11539 z m 157.533363,-3.5345 2.14262,-5.3611 -2.2217,-9.170153 c -2.18692,-9.02654 -2.26357,-9.167708 -4.89453,-9.013818 -2.54055,0.148603 -2.56986,0.107205 -0.59227,-0.836432 2.54268,-1.213278 4.89914,0.380211 4.98802,3.37301 0.0542,1.824565 0.13903,1.794803 0.9953,-0.349167 1.29488,-3.242189 0.10883,-12.242397 -2.44221,-18.532291 -1.97549,-4.870803 -2.18954,-5.083927 -3.2013,-3.187511 -1.39925,2.622694 -4.25536,2.598697 -6.1057,-0.0513 -2.05841,-2.94798 -1.80362,-0.820642 0.5376,4.488614 1.09585,2.485099 2.33869,7.495759 2.76185,11.134798 0.42316,3.63904 2.04194,9.892044 3.59728,13.895565 l 2.82788,7.279135 -2.26728,5.14274 c -1.3456,3.05216 -2.85806,5.14275 -3.72058,5.14275 -0.79931,0 -1.45329,0.44734 -1.45329,0.9941 0,0.57357 1.46059,0.871 3.45285,0.70312 3.24899,-0.27379 3.57936,-0.60751 5.59546,-5.65206 z m 40.93,4.92754 c 0.95354,-1.54767 -1.53207,-13.334603 -4.19876,-19.910823 -1.40103,-3.45503 -2.35374,-7.297739 -2.11712,-8.539355 0.56375,-2.958354 -2.14566,-4.109464 -4.54526,-1.931075 -0.9537,0.865785 -1.734,2.027584 -1.734,2.581774 0,0.554191 1.86647,4.813025 4.14771,9.464075 2.28123,4.651048 4.39485,10.286074 4.69692,12.522294 0.47853,3.54249 0.30554,4.12977 -1.34396,4.56247 -1.04125,0.27314 -1.89319,0.8693 -1.89319,1.32478 0,1.12441 6.29035,1.05767 6.98766,-0.0742 z m 47.85849,-2.20224 c 2.17541,-2.02477 3.55232,-2.61991 5.11376,-2.21031 2.03819,0.53467 2.0225,0.46474 -0.33974,-1.51544 -1.36208,-1.14178 -4.82282,-6.821051 -7.69054,-12.620598 -2.86772,-5.799551 -5.52644,-10.478669 -5.90828,-10.398039 -0.38183,0.08063 -1.49104,-0.19986 -2.46491,-0.623311 -2.13225,-0.927139 -4.69437,1.962491 -3.71984,4.195337 0.34403,0.788234 2.47008,6.251153 4.72457,12.139823 3.99346,10.430808 4.1365,12.183478 0.99958,12.247728 -0.38551,0.007 -0.70093,0.46855 -0.70093,1.02368 0,2.14014 6.95736,0.58033 9.98633,-2.23887 z m -6.34892,-8.66267 c -2.74743,-8.600326 -3.23141,-11.222822 -2.61314,-14.159648 l 0.7588,-3.604392 -0.27333,3.75 c -0.1744,2.392724 0.86332,7.143187 2.86709,13.125 1.72723,5.15625 3.02614,9.84059 2.88646,10.40965 -0.13967,0.56907 -1.77132,-3.71522 -3.62588,-9.52061 z m 56.53344,5.29589 c 0.82579,-0.68749 2.34479,-1.02875 3.37557,-0.75834 2.31018,0.60601 2.31031,0.51259 0.005,-4.02034 -1.37271,-2.699137 -1.8849,-5.614978 -1.9284,-10.978277 -0.039,-4.802082 -0.3232,-6.649736 -0.83003,-5.395425 -1.87276,4.634653 -5.84735,5.250666 -7.48516,1.160108 -0.7623,-1.903913 -0.85918,-1.782396 -0.91212,1.144125 -0.0847,4.679374 4.90017,23.822809 5.66397,21.751579 0.33537,-0.9094 1.2854,-2.21594 2.11119,-2.90343 z M 239.17815,95.245922 c 1.10708,-1.338113 0.467,-6.183422 -0.81685,-6.183422 -1.09532,0 -3.50198,3.087753 -4.20158,5.390625 -0.54306,1.787606 -0.29225,2.109375 1.64418,2.109375 1.25675,0 2.77516,-0.592463 3.37425,-1.316578 z M 383.5447,85.795319 c 0.56912,-1.023513 3.64946,-5.208931 6.84522,-9.300931 5.89666,-7.550367 9.27228,-13.395755 8.29941,-14.371667 -0.29471,-0.295629 -2.31974,1.531601 -4.50006,4.060511 -2.18032,2.52891 -6.6013,7.373982 -9.82441,10.766825 -5.35858,5.640795 -6.93527,8.846491 -5.20481,10.582352 1.09662,1.100044 3.29034,0.230941 4.38465,-1.73709 z m -111.29916,0.689056 c 0.21628,-0.386719 0.66967,-1.863281 1.00754,-3.28125 0.49669,-2.084475 0.29283,-2.578125 -1.0647,-2.578125 -2.53233,0 -5.83323,2.682637 -5.83323,4.74066 0,1.391142 0.64978,1.82184 2.74858,1.82184 1.51172,0 2.92554,-0.316406 3.14181,-0.703125 z m 17.27768,-2.01563 c 1.9071,-0.97969 4.41282,-3.070779 5.56828,-4.646864 l 2.10083,-2.865608 -2.42969,-2.437283 c -1.64518,-1.650325 -2.26489,-3.069447 -1.91929,-4.39516 0.33334,-1.278663 -1.03114,-0.284617 -3.93321,2.865396 -3.89258,4.225165 -4.90018,4.825054 -8.12547,4.83763 -2.02502,0.0079 -4.3127,0.469567 -5.08373,1.025936 -1.16782,0.842693 -1.1175,0.919118 0.30135,0.457756 0.93677,-0.304603 2.55869,-0.09456 3.60426,0.466763 1.48006,0.794578 1.78068,1.624268 1.35753,3.746638 -0.50392,2.527489 -0.33828,2.726051 2.2741,2.726051 1.54968,0 4.37795,-0.801564 6.28504,-1.781255 z m 29.94324,-3.210374 c 0.44002,-2.326011 -2.44478,-5.320871 -5.12532,-5.320871 -1.77727,0 -2.1916,0.496265 -2.1916,2.625 0,1.44375 0.52275,3.14938 1.16167,3.79029 1.6768,1.682047 5.76762,0.95469 6.15525,-1.094419 z m 62.71154,-2.90772 c 2.64842,-2.827918 1.85614,-4.288151 -2.32661,-4.288151 -2.90809,0 -3.21586,0.254213 -3.21586,2.65625 0,4.568432 2.18879,5.212891 5.54247,1.631901 z M 121.44144,69.59523 c 1.58182,-1.782139 2.48178,-2.027764 5.59812,-1.527882 5.97079,0.957749 8.16294,0.0047 8.16294,-3.548931 0,-2.502272 0.95446,-3.888831 5.52959,-8.032934 3.04128,-2.754752 6.68614,-5.253039 8.09969,-5.551749 1.41355,-0.29871 2.57009,-1.123187 2.57009,-1.832172 0,-3.202842 -6.77512,-0.162792 -15.03048,6.744294 -5.65678,4.732899 -7.42792,6.760995 -7.2139,8.26047 0.22312,1.563249 0.88186,1.954057 3.08646,1.831085 2.62776,-0.146577 2.67286,-0.09435 0.72222,0.836432 -3.70961,1.770096 -6.65075,-2.723357 -3.76056,-5.74533 0.95618,-0.999772 0.40485,-1.098768 -3.03738,-0.545393 -4.91101,0.789496 -7.98512,2.239425 -12.08489,5.699931 l -2.96318,2.501136 2.03086,2.168504 c 1.52096,1.624043 1.87992,2.828842 1.4297,4.798531 L 113.97956,78.28125 116.7681,75 c 1.53368,-1.804688 3.63669,-4.236833 4.67334,-5.40477 z m 180.42773,1.335893 c 0,-1.151139 7.08965,-9.193332 18.48729,-20.971181 4.77081,-4.929961 8.4789,-9.159484 8.24019,-9.398939 -1.14585,-1.149422 -8.06154,2.334626 -12.2415,6.167128 -23.14477,21.220836 -24.8771,23.473275 -21.02503,27.337388 l 2.03415,2.040502 2.25245,-2.12268 c 1.23885,-1.167474 2.25245,-2.540972 2.25245,-3.052218 z m 87.25694,-1.761029 c -0.80264,-1.302752 -2.16017,0.182361 -1.57204,1.719785 0.43472,1.136408 0.71912,1.190933 1.29938,0.249113 0.40857,-0.663145 0.53126,-1.549149 0.27266,-1.968898 z M 323.59814,50.944059 c 2.44159,-2.110181 4.43925,-4.054777 4.43925,-4.321324 0,-0.266547 -0.72316,-0.763002 -1.60702,-1.103232 -0.88386,-0.340231 -1.30594,-0.316569 -0.93794,0.05258 0.368,0.369151 -0.48594,1.384185 -1.89764,2.255631 -1.41171,0.871446 -4.45927,3.76062 -6.77235,6.420387 -2.31308,2.659766 -6.51283,7.467811 -9.33277,10.684543 -4.69334,5.353754 -4.41659,5.171704 3.27103,-2.151643 4.619,-4.40014 10.39585,-9.726763 12.83744,-11.836946 z m -178.60821,13.800552 2.20634,-1.81789 -1.91027,-1.947302 c -1.49586,-1.524872 -2.57767,-1.813402 -4.98686,-1.330057 -3.74716,0.751773 -4.63486,2.614865 -2.41716,5.073055 2.09991,2.327636 4.30153,2.33451 7.10795,0.02219 z M 240.051,62.268625 c 1.02182,-2.24968 0.1379,-3.971042 -12.63709,-24.609375 -7.55467,-12.204775 -14.07269,-22.58425 -14.48449,-23.0655 -1.55452,-1.816684 -1.70207,0.328012 -0.43855,6.374556 0.97307,4.656652 3.52327,10.2507 10.00099,21.937967 12.20457,22.019785 14.96802,25.067016 17.55914,19.362352 z M 86.915891,58.276502 c 0,-0.432298 -3.469627,-1.697739 -7.710281,-2.812089 -4.240654,-1.114351 -9.465399,-2.526669 -11.610544,-3.138485 -4.521731,-1.289641 -7.13589,0.0309 -6.658856,3.363709 0.349426,2.441275 3.323098,3.104697 4.804845,1.071954 1.02642,-1.408099 1.773476,-1.387884 9.508872,0.257314 9.954301,2.117124 11.665964,2.301642 11.665964,1.257597 z M 61.06871,52.662103 c 1.447717,-1.604707 1.401104,-1.848804 -0.737989,-3.864659 -4.303836,-4.055878 -9.744427,-0.062 -5.591066,4.104341 1.950861,1.956958 4.432089,1.862994 6.329055,-0.239682 z m 148.7965,53.359997 c -0.28901,-0.46909 -0.27733,-1.50158 0.026,-2.29442 0.3033,-0.79284 -0.79445,-4.824805 -2.43945,-8.959921 l -2.9909,-7.518393 -2.65128,1.375317 C 200.35132,89.381107 198.09566,90 196.79693,90 c -3.04336,0 -5.63851,-3.777278 -4.82606,-7.02442 0.54131,-2.163542 0.33552,-2.35058 -2.58628,-2.35058 -3.10284,0 -6.18232,-2.212271 -4.88751,-3.511131 0.35821,-0.359325 0.94384,-0.203067 1.3014,0.34724 0.84099,1.294312 8.73946,2.357557 10.3047,1.387158 2.41046,-1.494399 -1.8964,-12.142409 -5.60765,-13.864022 -1.19778,-0.555634 -4.10849,-2.724888 -6.46826,-4.820565 -2.35977,-2.095676 -10.5607,-7.043339 -18.2243,-10.994805 -15.16109,-7.817287 -23.07173,-13.539795 -21.2904,-15.401342 0.80336,-0.839542 2.25064,-0.486381 6.07476,1.482353 2.76109,1.421457 11.9101,5.41458 20.33115,8.873605 13.15429,5.403247 16.52469,7.235001 23.92725,13.00403 9.77177,7.61544 13.41641,13.229594 12.28204,18.919139 -0.47021,2.358421 0.36104,5.549853 3.6638,14.066528 4.14218,10.681292 4.22699,11.103292 2.79098,13.888912 -1.49534,2.9007 -2.75351,3.58439 -3.71734,2.02 z m 3.11529,-2.66272 c 0.92113,-2.24518 0.51564,-3.963596 -3.13983,-13.306015 -3.2892,-8.406329 -4.07971,-11.467237 -3.65294,-14.14443 0.77163,-4.840589 -2.6301,-11.001533 -8.73032,-15.811697 C 194.77393,57.981257 192.36066,56.25 192.09459,56.25 c -0.26607,0 -0.38358,0.923228 -0.26114,2.051618 0.14813,1.36505 -0.53685,2.441504 -2.04686,3.216685 l -2.26948,1.165066 3.22168,1.541114 c 3.0189,1.44411 6.45748,7.06247 6.45748,10.550992 0,0.639114 0.42056,1.162025 0.93458,1.162025 0.51402,0 0.93458,-0.376739 0.93458,-0.837198 0,-1.41977 2.84278,-2.02031 4.74059,-1.001455 0.99081,0.531918 1.80146,1.404289 1.80146,1.938602 0,0.534314 -0.66088,0.308533 -1.46862,-0.501734 -1.76265,-1.768157 -2.47394,-1.830831 -3.95194,-0.348215 -1.71375,1.719105 -1.36655,3.212531 1.52898,6.576754 3.47356,4.035813 9.84569,19.725816 9.04234,22.264846 -0.90844,2.87118 1.00627,2.29413 2.22226,-0.66972 z M 201.3579,87.974517 c 2.9309,-1.339579 3.03464,-3.033534 0.30331,-4.952607 -2.69633,-1.894488 -3.26049,-1.841977 -4.46494,0.41559 -0.71074,1.332177 -0.71074,2.417823 0,3.75 1.17418,2.200843 1.09928,2.186677 4.16163,0.787017 z M 191.16628,57.79383 c 0.0633,-3.784334 -3.20343,-5.876872 -19.20366,-12.300893 -7.45327,-2.992455 -16.43329,-6.88588 -19.95559,-8.652054 -3.52231,-1.766173 -6.67651,-2.929533 -7.00934,-2.585242 -1.23698,1.279547 7.28386,6.98124 20.89017,13.978583 7.71028,3.965183 15.28037,8.460806 16.82243,9.990276 2.07552,2.058577 3.53195,2.711165 5.60747,2.51255 2.38505,-0.228233 2.81043,-0.667759 2.84852,-2.94322 z"
       id="path3348"
       inkscape:connector-curvature="0" />
  </g>
</svg>
