<?xml version="1.0" encoding="UTF-8" standalone="no"?>
<!-- Created with Inkscape (http://www.inkscape.org/) -->

<svg
   xmlns:dc="http://purl.org/dc/elements/1.1/"
   xmlns:cc="http://creativecommons.org/ns#"
   xmlns:rdf="http://www.w3.org/1999/02/22-rdf-syntax-ns#"
   xmlns:svg="http://www.w3.org/2000/svg"
   xmlns="http://www.w3.org/2000/svg"
   xmlns:sodipodi="http://sodipodi.sourceforge.net/DTD/sodipodi-0.dtd"
   xmlns:inkscape="http://www.inkscape.org/namespaces/inkscape"
   id="svg3426"
   version="1.1"
   inkscape:version="0.91 r13725"
   width="349.53271"
   height="231.5625"
   viewBox="0 0 349.53271 231.5625"
   sodipodi:docname="bb830501.svg">
  <metadata
     id="metadata3432">
    <rdf:RDF>
      <cc:Work
         rdf:about="">
        <dc:format>image/svg+xml</dc:format>
        <dc:type
           rdf:resource="http://purl.org/dc/dcmitype/StillImage" />
        <dc:title></dc:title>
      </cc:Work>
    </rdf:RDF>
  </metadata>
  <defs
     id="defs3430" />
  <sodipodi:namedview
     pagecolor="#ffffff"
     bordercolor="#666666"
     borderopacity="1"
     objecttolerance="10"
     gridtolerance="10"
     guidetolerance="10"
     inkscape:pageopacity="0"
     inkscape:pageshadow="2"
     inkscape:window-width="1788"
     inkscape:window-height="956"
     id="namedview3428"
     showgrid="false"
     inkscape:zoom="2.7681511"
     inkscape:cx="174.76636"
     inkscape:cy="115.78125"
     inkscape:window-x="0"
     inkscape:window-y="0"
     inkscape:window-maximized="0"
     inkscape:current-layer="svg3426" />
  <g
     id="g3436"
     transform="translate(5.7875919,6.054527)">
    <path
       style="fill:#fefefe"
       d="m 8.0996885,147.5 c -0.3426792,-0.34375 -0.623053,-1.82031 -0.623053,-3.28125 l 0,-2.65625 161.6822445,0 161.68224,0 0,3.28125 0,3.28125 -161.05919,0 C 81.199377,148.125 8.4423676,147.84375 8.0996885,147.5 Z m 68.3021805,-9.80987 c -2.157821,-1.76829 -3.504673,-3.68036 -3.504673,-4.97547 0,-3.39148 3.774245,-20.60081 4.731484,-21.57403 1.612877,-1.63982 0.900387,-4.84399 -2.111455,-9.49553 -3.849486,-5.945194 -7.292926,-10.175698 -7.292926,-8.959858 0,0.524755 0.454648,1.235964 1.010329,1.580467 0.555681,0.344504 1.761266,1.865044 2.679078,3.378985 1.472252,2.428486 1.523186,3.161586 0.432561,6.225836 -0.679903,1.91027 -1.254646,4.15984 -1.277208,4.99906 -0.06524,2.42689 -2.19708,3.62615 -11.454863,6.44388 -7.873728,2.39647 -8.788085,2.50244 -9.847841,1.14121 -1.64801,-2.11681 -1.467951,-2.79853 0.93458,-3.53836 6.490016,-1.99853 13.781768,-6.1945 14.183802,-8.16194 2.584594,-12.648265 5.254064,-20.095928 7.514932,-20.966216 0.597764,-0.230101 2.054103,-0.05944 3.23631,0.37926 2.212703,0.821091 3.020914,2.490084 7.326142,15.128826 l 2.368283,6.95251 -4.00315,11.79749 c -2.201733,6.48863 -4.169092,12.23601 -4.371912,12.77196 -0.20282,0.53594 1.11421,2.71238 2.926733,4.83652 1.812522,2.12414 3.295495,4.11142 3.295495,4.41617 0,1.46917 -3.637192,0.19117 -6.775701,-2.38077 z m 61.915891,0.94819 c -1.79907,-1.08882 -3.37887,-2.07432 -3.51068,-2.19001 -0.1318,-0.11569 -0.85146,-5.1578 -1.59925,-11.20468 -1.12511,-9.09809 -1.87267,-11.91324 -4.33432,-16.3221 -1.63608,-2.93028 -4.41439,-7.96491 -6.17401,-11.188064 l -3.19932,-5.860285 2.03103,-2.86123 c 1.14172,-1.608419 2.70386,-2.736873 3.56767,-2.577216 1.68271,0.311013 7.50727,11.539631 9.90956,19.103705 0.83097,2.61646 1.91844,9.77356 2.41661,15.90468 0.89154,10.9725 0.957,11.20012 4.17026,14.50108 1.79547,1.84449 3.2645,3.65222 3.2645,4.0172 0,1.29818 -3.32053,0.62663 -6.54205,-1.32308 z m 145.38226,0.28601 c -0.29949,-0.94654 1.13977,-5.83123 3.24572,-11.01563 2.40185,-5.91287 3.58858,-10.10252 3.24927,-11.47135 -0.29399,-1.18602 -3.25486,-4.88524 -6.57972,-8.22049 -4.50973,-4.52382 -6.04156,-6.71451 -6.03089,-8.624847 0.0197,-3.519722 1.01081,-4.785216 4.23776,-5.410866 2.62501,-0.50895 3.04739,-0.09366 8.8048,8.657753 4.7025,7.14787 6.02722,9.92214 5.95622,12.4736 -0.10496,3.77179 -4.11647,14.2236 -6.94778,18.10214 -1.52732,2.09224 -1.69267,2.91101 -0.80463,3.98438 0.61474,0.74304 1.90735,1.35098 2.87244,1.35098 0.96511,0 1.75473,0.42188 1.75473,0.9375 0,0.51563 -2.07446,0.9375 -4.60991,0.9375 -3.63161,0 -4.72411,-0.36092 -5.14801,-1.70067 z M 36.448598,120.1953 c 0,-0.40822 2.303301,-1.87538 5.118446,-3.26037 4.947036,-2.43384 5.150472,-2.45814 6.074766,-0.72568 1.359611,2.54839 1.381419,2.52329 -3.195847,3.67946 -4.867359,1.22944 -7.997365,1.34944 -7.997365,0.30659 z M 199.06542,101.85739 c 0,-1.21281 0.96265,-3.638046 2.13922,-5.389418 1.93508,-2.880438 3.12594,-3.452803 12.47942,-5.998013 5.68711,-1.547539 10.99102,-3.357872 11.78648,-4.02296 0.79546,-0.665089 2.10025,-4.114178 2.89955,-7.664642 2.82241,-12.537087 4.82193,-14.971644 10.00911,-12.186872 2.8779,1.545022 2.17927,4.880082 -3.33119,15.901946 -3.84704,7.694749 -5.66784,10.397532 -7.24299,10.751403 -1.15724,0.259988 -6.09941,1.137832 -10.98259,1.950757 -8.20603,1.366096 -9.16433,1.757718 -12.6522,5.170479 -4.37989,4.28558 -5.10481,4.49679 -5.10481,1.48732 z M 129.47136,90.0623 c -0.78869,-1.529928 -1.43398,-2.955267 -1.43398,-3.167417 0,-0.666995 34.77666,-35.44705 35.10962,-35.113048 0.1742,0.174743 -0.30205,2.43515 -1.05833,5.023127 -0.98915,3.384852 -2.68171,5.996442 -6.03092,9.305607 -2.56074,2.530108 -4.65588,4.982791 -4.65588,5.450406 0,1.157698 -16.68494,19.236742 -18.80255,20.373598 -1.3797,0.7407 -1.96,0.393359 -3.12796,-1.872273 z m 125.1078,-0.779781 c -3.42529,-2.294278 -3.77074,-8.30042 -1.17196,-20.376269 1.43756,-6.679958 3.15431,-9.084907 6.23076,-8.728481 2.06523,0.239269 2.56285,0.822202 2.80014,3.280144 0.2257,2.338023 -0.22207,3.324792 -2.05559,4.529914 -1.28929,0.847413 -2.78307,2.877289 -3.31951,4.510837 -1.2697,3.866373 -1.59263,11.653627 -0.61886,14.923211 0.7605,2.553503 0.12139,3.191126 -1.86498,1.860644 z m 53.24689,-0.889541 c -2.01642,-0.254986 -3.82498,-1.497092 -5.83735,-4.009034 -2.12127,-2.647881 -3.7423,-3.719706 -5.94924,-3.933639 -3.92681,-0.380649 -4.633,-3.105014 -1.21037,-4.669346 2.2805,-1.042309 2.76752,-0.789055 7.50172,3.900962 4.31676,4.276455 5.85258,5.17381 10.42114,6.088906 6.58328,1.318651 7.91176,3.358964 2.04555,3.141638 -2.22741,-0.08252 -5.36457,-0.316288 -6.97145,-0.519487 z M 56.074766,84.807038 c 0,-3.044183 20.033262,-24.338288 22.897197,-24.338288 3.262976,0 2.868833,3.723489 -0.64911,6.132165 -4.481613,3.068484 -19.444348,17.993371 -19.444348,19.395164 0,0.655282 -0.630841,1.191421 -1.40187,1.191421 -0.878039,0 -1.401869,-0.889496 -1.401869,-2.380462 z M 175,79.480786 c -2.59306,-1.254491 -2.74948,-4.540629 -0.32107,-6.745174 2.37906,-2.159746 7.41378,-1.63316 9.11542,0.95339 1.20157,1.82642 1.02315,2.151507 -2.444,4.453125 -2.0571,1.36558 -3.85434,2.45432 -3.99386,2.419423 C 177.21696,80.526656 176.15654,80.040308 175,79.480786 Z M 299.53271,75.9375 c -1.63236,-1.809382 -1.63236,-1.940618 0,-3.75 2.17723,-2.413333 7.11724,-2.47022 9.2497,-0.106514 1.51685,1.681341 1.47173,1.866127 -0.91577,3.75 -3.15323,2.488081 -6.15079,2.526392 -8.33393,0.106514 z m -114.4531,-1.813368 c -1.51316,-2.836206 -1.20274,-4.327284 2.39137,-11.48653 3.07742,-6.130041 3.3319,-7.24735 3.03738,-13.33597 -0.29641,-6.127866 -0.17588,-6.645382 1.54771,-6.645382 1.67222,0 1.89811,0.71686 2.14388,6.80359 0.21703,5.374551 -0.21222,8.157758 -2.04363,13.250711 -1.2751,3.545915 -2.08507,7.342016 -1.79994,8.435777 1.02686,3.938987 -3.42393,6.450675 -5.27677,2.977804 z M 56.074766,73.22886 c 0,-1.93624 3.733348,-4.931444 10.631365,-8.529369 4.048185,-2.111487 7.594204,-3.604467 7.880044,-3.317734 1.119514,1.123012 -5.688005,6.77939 -10.054855,8.354594 -2.537742,0.915412 -5.109569,2.263281 -5.71517,2.995266 -1.235027,1.492768 -2.741384,1.765996 -2.741384,0.497243 z m 61.193394,-7.036539 c -0.84778,-1.297926 -1.28807,-2.771085 -0.97841,-3.273688 0.30966,-0.502602 4.08212,-2.24617 8.38326,-3.874596 5.56905,-2.108466 8.8477,-4.016277 11.38945,-6.627406 3.19033,-3.277405 6.92819,-4.867573 6.92819,-2.947403 0,0.395574 -1.90125,2.899434 -4.225,5.564131 -3.38615,3.882978 -5.23283,5.138803 -9.30108,6.325173 -3.834,1.118059 -5.37462,2.10509 -6.29613,4.033779 -1.62047,3.39155 -3.99705,3.713788 -5.90028,0.80001 z m 147.7926,-0.06559 c -3.13172,-4.794541 -1.22352,-6.543507 4.11683,-3.773281 3.53714,1.834846 5.19733,4.736871 3.15876,5.521584 -3.05429,1.175705 -5.79601,0.516878 -7.27559,-1.748303 z M 198.96998,60.67151 c -2.84298,-1.916746 -3.2052,-2.653779 -3.45827,-7.036959 l -0.28268,-4.895972 4.95558,1.91988 c 7.81056,3.025951 10.47327,7.65668 6.14949,10.694629 -2.74813,1.930883 -3.60714,1.851379 -7.36412,-0.681578 z M 81.351104,60.520352 c -1.452125,-1.755171 -0.92197,-5.226203 0.98088,-6.422034 1.912625,-1.201973 6.36966,-0.09469 7.078608,1.758569 0.666537,1.742395 -3.132315,6.018113 -5.346918,6.018113 -0.875498,0 -2.096154,-0.609592 -2.71257,-1.354648 z m 34.665706,-1.788899 c -2.38959,-2.55155 -2.50257,-4.154303 -0.49546,-7.028796 l 1.50265,-2.152041 2.23566,2.106861 c 2.72459,2.567621 2.98621,6.936118 0.49547,8.273289 -1.35849,0.729314 -2.17848,0.466248 -3.73832,-1.199313 z m 68.31931,-7.002424 c -2.18991,-1.375434 -4.20923,-3.220121 -4.48741,-4.099304 -0.9254,-2.924807 2.29488,-7.12861 11.65027,-15.208412 8.86554,-7.656751 12.57811,-11.507797 13.45101,-13.952735 0.92385,-2.587648 1.76946,0.514479 1.19242,4.374434 -0.55267,3.697043 -1.57969,5.118877 -8.89491,12.314414 l -8.27009,8.134787 0.50091,5.541393 c 0.2755,3.047767 0.12708,5.508728 -0.32982,5.468803 -0.45691,-0.03993 -2.62248,-1.197946 -4.81238,-2.57338 z"
       id="path3446"
       inkscape:connector-curvature="0" />
    <path
       style="fill:#007f7f"
       d="m 275.75368,97.707638 c -0.065,-3.791888 4.73293,-13.658613 8.68883,-17.867915 3.20383,-3.40904 8.89559,-6.716776 11.54829,-6.711219 1.1507,0.0024 0.72479,0.583293 -1.36463,1.861221 -4.4457,2.719065 -3.55727,6.572775 1.51528,6.572775 2.09259,0 1.74563,0.59588 -3.69159,6.340065 -4.64059,4.902577 -6.33731,6.148598 -7.48338,5.495584 -2.66582,-1.51893 -6.815,0.633017 -8.04457,4.172267 l -1.11548,3.210834 -0.0527,-3.073612 z M 119.62617,86.562656 c 0,-2.029612 -1.04258,-7.254475 -2.31684,-11.610805 -2.90612,-9.935176 -2.91677,-11.015838 -0.0763,-7.738505 1.86348,2.150045 2.58883,2.445196 3.97196,1.616221 0.93067,-0.557801 2.10729,-1.928895 2.61469,-3.046875 2.1033,-4.634294 2.89564,-2.237535 3.75525,11.359343 l 0.57995,9.173285 -2.27203,-0.572024 c -1.75015,-0.440632 -2.72966,0.01159 -4.26439,1.96877 l -1.99233,2.540794 0,-3.690204 z m -52.332449,1.545596 c 0.0022,-0.764226 1.262082,-3.28794 2.799737,-5.608252 1.839754,-2.776179 2.797104,-5.405492 2.799737,-7.689337 0.0036,-3.052152 0.506877,-3.817655 4.174951,-6.349244 2.294022,-1.583261 4.570634,-3.595085 5.059138,-4.470721 0.723707,-1.297232 1.00921,-0.944946 1.541695,1.902311 0.817843,4.373102 0.295034,7.263255 -2.499818,13.819304 -2.143706,5.028617 -2.277271,5.146258 -4.539395,3.998195 -3.534195,-1.793659 -4.396523,-1.510539 -6.969905,2.288369 -1.303578,1.924381 -2.36834,2.873599 -2.36614,2.109375 z M 186.4486,77.8125 c -0.31768,-0.515625 0.0129,-0.9375 0.73458,-0.9375 2.33935,0 4.25142,-3.152484 4.14051,-6.826578 -0.0839,-2.780103 0.50456,-4.158829 2.7265,-6.387711 l 2.83353,-2.842383 3.36935,1.61175 c 3.15895,1.511108 3.51885,1.51348 5.76374,0.03797 2.28208,-1.499943 2.3944,-1.489556 2.3944,0.221446 0,0.987371 -1.95241,3.973558 -4.33869,6.63597 -6.06954,6.771887 -15.79511,11.455365 -17.62392,8.487037 z m 54.6729,-7.574557 c 0,-1.852246 -0.74329,-3.183259 -2.37746,-4.257359 l -2.37747,-1.56264 8.09436,-3.615222 c 7.82585,-3.495295 11.63305,-4.212555 16.05309,-3.024329 2.98819,0.803309 2.61166,1.971789 -0.48833,1.515384 -3.13419,-0.461439 -5.23114,1.583873 -6.94393,6.77293 -1.11287,3.371563 -1.65456,3.804968 -6.58643,5.269826 l -5.37383,1.596128 0,-2.694718 z"
       id="path3442"
       inkscape:connector-curvature="0" />
    <path
       style="fill:#fe0000"
       d="m 64.485981,128.45314 c -6.848895,-1.47873 -12.193076,-4.7069 -14.912043,-9.00766 -3.284116,-5.1947 -5.148553,-9.6347 -4.372631,-10.41304 0.326197,-0.32721 0.698226,-0.41916 0.82673,-0.20432 0.128505,0.21485 1.621469,3.19013 3.317697,6.61174 2.840318,5.72945 3.505058,6.41017 8.411215,8.61343 2.92994,1.31578 7.527098,2.68284 10.215908,3.03793 2.688809,0.35508 4.661652,1.01419 4.384096,1.46469 -0.580267,0.94183 -3.190664,0.90774 -7.870972,-0.10277 z m 14.018692,-0.84185 c 0,-0.45441 1.997663,-1.32365 4.439252,-1.93163 7.222188,-1.79842 14.31171,-5.37111 13.721234,-6.91467 -0.346318,-0.9053 0.344972,-1.55212 2.110878,-1.97509 1.444203,-0.34592 3.361813,-0.84827 4.261343,-1.11635 2.50378,-0.74616 1.99026,1.63883 -1.14103,5.29936 -2.13521,2.4961 -2.969415,2.95577 -3.611546,1.99003 -0.676514,-1.01747 -1.612879,-0.85688 -4.933727,0.84611 -3.541343,1.81607 -12.019784,4.58358 -14.14547,4.61732 -0.385514,0.007 -0.700934,-0.36066 -0.700934,-0.81508 z M 177.87226,26.953125 c 0.27764,-1.160156 0.79059,-3.691406 1.13991,-5.625 0.64889,-3.591898 1.91887,-4.66207 2.46136,-2.074104 0.2295,1.094842 2.10026,0.253662 7.77881,-3.497697 7.45029,-4.921814 7.50298,-4.939236 14.95327,-4.944475 4.11215,-0.0029 9.04135,0.322235 10.95379,0.722501 3.50452,0.733481 9.13967,4.707105 9.13967,6.444825 0,0.515625 -1.26369,-0.12914 -2.80818,-1.432812 -3.23915,-2.734077 -8.99238,-3.943253 -17.89789,-3.761663 -6.51148,0.132774 -11.82036,2.311105 -18.07898,7.418138 -2.65352,2.165273 -2.69108,2.288098 -0.70094,2.292505 3.29054,0.0073 2.48902,1.50282 -2.22051,4.143255 -5.2545,2.94597 -5.3516,2.95244 -4.72031,0.314527 z"
       id="path3440"
       inkscape:connector-curvature="0" />
    <path
       style="fill:#000000"
       d="M 9.3457944,208.34204 17.28972,208.00715 28.199811,191.83787 39.109904,175.66859 28.817177,164.00617 C 15.647856,149.08435 15.623018,149.0625 11.835755,149.0625 c -3.8343871,0 -5.5350643,-1.76912 -5.1275845,-5.33393 l 0.3011753,-2.63482 35.7485232,-0.46875 35.748523,-0.46875 -3.271887,-2.61809 c -2.033158,-1.62689 -3.271888,-3.43376 -3.271888,-4.77254 0,-3.42986 3.766343,-20.64373 4.731484,-21.62499 1.298414,-1.32011 1.066633,-3.98894 -0.632719,-7.28538 -1.689061,-3.2765 -2.458623,-2.63599 -3.628229,3.01975 -1.022366,4.94375 -2.786293,6.3048 -11.581224,8.93609 -4.426505,1.32433 -8.679032,2.62267 -9.45006,2.88519 -0.878494,0.2991 -1.052952,0.16258 -0.46729,-0.36571 0.514019,-0.46366 4.299066,-1.80031 8.411215,-2.97034 8.618531,-2.45224 11.665432,-4.11495 11.723265,-6.39746 0.02256,-0.89046 0.589055,-3.1579 1.258875,-5.03875 1.314455,-3.69098 0.953913,-4.930058 -2.737148,-9.406761 l -2.072794,-2.513986 -1.145104,5.795236 c -0.629807,3.187391 -1.342232,6.539471 -1.583167,7.449081 -0.419919,1.58534 -9.442554,6.37969 -14.322431,7.6105 l -2.336449,0.58929 2.336449,-1.1089 c 1.285046,-0.6099 4.649532,-2.152 7.476635,-3.42687 2.827103,-1.27489 5.273474,-2.42353 5.43638,-2.55254 0.662621,-0.52474 2.974835,-13.312202 2.974835,-16.452019 0,-2.19795 0.971835,-4.813594 2.786732,-7.50035 1.532702,-2.268998 2.794384,-5.377869 2.803738,-6.908604 0.01695,-2.774123 -0.0015,-2.764996 -5.672643,2.8125 -3.129306,3.07761 -6.074457,6.575568 -6.544778,7.773243 -1.151134,2.931365 -4.031311,2.32869 -4.407639,-0.922295 -0.22555,-1.948469 0.973927,-3.831012 5.607477,-8.80077 4.709608,-5.051334 5.424769,-6.184456 3.557954,-5.637327 -1.285046,0.376623 -3.534111,1.536047 -4.99792,2.576497 -3.658512,2.600406 -5.509925,0.896014 -2.873902,-2.645684 1.815364,-2.439083 14.606321,-9.785761 19.006823,-10.916855 1.92172,-0.493953 2.077088,-0.796853 1.047225,-2.041639 -0.728927,-0.881049 -1.008822,-2.700715 -0.704639,-4.581032 0.277547,-1.715668 0.138322,-3.713948 -0.309389,-4.440624 -0.668854,-1.08561 -1.065299,-0.987668 -2.223069,0.549206 -0.774975,1.028738 -1.422423,2.186839 -1.438771,2.573558 C 71.975992,52.183594 71.496463,52.5 70.926721,52.5 c -1.188178,0 -0.326212,-4.447382 1.225465,-6.322881 1.315618,-1.590176 3.99879,-1.486145 5.401608,0.209431 0.833353,1.007265 1.614799,1.13549 2.856733,0.46875 4.887978,-2.624141 10.243679,1.234326 10.243679,7.379968 0,3.021935 -0.573598,4.200695 -3.147043,6.467271 -2.945689,2.594432 -3.118483,3.069932 -2.700668,7.4318 0.332675,3.473032 -0.02947,5.597628 -1.42173,8.340968 -1.027457,2.024518 -2.380622,5.402035 -3.007034,7.505592 -1.002362,3.366033 -0.915682,4.265363 0.722865,7.5 1.023988,2.021443 2.592212,6.296845 3.484943,9.500881 l 1.623146,5.82553 -3.516708,9.90145 c -1.93419,5.44578 -3.671619,9.74604 -3.860953,9.55611 -0.189333,-0.18993 1.204984,-4.7419 3.098485,-10.11551 l 3.442728,-9.77019 -2.389199,-7.017717 C 78.657834,86.657191 77.851442,84.989539 75.635979,84.167424 c -2.992715,-1.110537 -4.068455,-0.482649 -5.935683,3.464539 -1.486013,3.141327 -1.498047,3.601002 -0.143377,5.476716 8.290598,11.479391 10.237915,15.829611 8.071761,18.031951 -0.959128,0.97515 -4.731484,18.18555 -4.731484,21.58619 0,2.31547 6.20555,7.89818 8.77935,7.89818 1.90093,0 1.926103,-1.29153 0.05553,-2.84882 -3.322167,-2.76577 -5.233058,-6.45081 -4.227893,-8.15324 0.872037,-1.47695 0.952926,-1.43348 0.754943,0.40571 -0.127355,1.1831 1.170592,3.8616 3.049287,6.29264 l 3.271028,4.23273 27.570099,0.0197 27.57009,0.0197 -3.03738,-1.95128 c -1.67056,-1.07319 -3.03739,-2.03134 -3.03739,-2.12921 0,-0.0979 -0.61452,-5.14722 -1.3656,-11.22079 -1.13056,-9.14201 -1.87717,-11.95993 -4.33748,-16.37061 -9.22675,-16.541182 -9.20737,-16.496434 -9.22896,-21.305809 -0.0117,-2.600416 -1.09147,-8.431212 -2.39955,-12.957325 -1.30808,-4.526112 -2.1253,-9.028976 -1.81606,-10.006365 0.42826,-1.353558 -0.01,-1.921068 -1.83764,-2.381289 -3.36216,-0.846484 -6.41539,-5.434827 -5.9109,-8.882805 0.22233,-1.519596 0.0909,-2.762917 -0.29204,-2.762917 -2.29866,0 -3.65289,1.427416 -3.65289,3.850302 0,1.846482 -0.47117,2.712198 -1.47613,2.712198 -1.17474,0 -1.344322,-0.622086 -0.83056,-3.046875 1.0741,-5.069512 5.61909,-8.357286 7.44844,-5.38809 0.38715,0.628381 1.15968,0.628381 2.33016,0 0.96305,-0.517019 2.74756,-0.940035 3.96556,-0.940035 3.03371,0 8.1887,5.478648 8.1887,8.702827 l 0,2.519813 4.90654,-1.923767 c 2.6986,-1.058072 6.64561,-3.623434 8.77113,-5.700804 3.66051,-3.577586 6.75229,-4.464835 7.51799,-2.157442 0.17738,0.534533 -1.82185,3.385313 -4.44273,6.335066 -3.69205,4.15533 -5.68891,5.596501 -8.86658,6.399147 -3.55763,0.898621 -3.98054,1.262377 -3.19011,2.743925 0.50118,0.939384 0.96099,4.372423 1.0218,7.628978 0.0608,3.256553 0.40453,7.186632 0.7638,8.733507 0.65046,2.800649 0.72325,2.741997 17.2754,-13.91907 9.2423,-9.303121 16.97806,-16.374587 17.42373,-15.927516 0.44568,0.447072 0.18792,2.903882 -0.58056,5.533632 -0.99685,3.411194 -2.67996,6.011895 -6.03799,9.329773 -2.56074,2.530108 -4.65772,5.037931 -4.65997,5.572939 -0.002,0.535008 -4.65239,5.824305 -10.33366,11.753992 -10.14263,10.586128 -10.31024,10.832147 -9.26117,13.59375 4.03909,10.63253 4.74708,13.67693 5.59141,24.04357 0.91931,11.28717 0.95557,11.41304 4.42982,15.37695 l 3.50292,3.99661 68.52093,0.0883 c 65.77631,0.0848 68.49936,0.0202 67.98283,-1.61237 -0.29949,-0.94654 1.13977,-5.83123 3.24572,-11.01563 2.38734,-5.87715 3.58775,-10.10594 3.25257,-11.45819 -0.29218,-1.17878 -3.67362,-5.27504 -7.51431,-9.1028 -8.2059,-8.178294 -8.52253,-9.616119 -4.08427,-18.54632 4.64588,-9.347937 13.99692,-17.548832 18.62554,-16.334642 1.35572,0.355637 1.74198,-0.282578 2.08007,-3.43688 0.5177,-4.830035 -0.52078,-6.163923 -3.0273,-3.888463 -2.45577,2.229377 -3.64253,1.074094 -1.42341,-1.385657 1.76749,-1.959162 4.65612,-2.495798 5.55768,-1.032481 0.28745,0.466547 2.17282,0.626238 4.18972,0.354869 3.06617,-0.412544 4.06162,-0.09765 6.07459,1.92162 3.51531,3.526302 3.20963,7.22452 -0.89606,10.840627 -1.81694,1.60029 -4.02489,2.921984 -4.90654,2.937098 -1.20517,0.02066 -0.85538,0.709822 1.4094,2.776884 2.12335,1.937972 4.39407,2.933262 7.69397,3.372378 4.84822,0.645148 7.24154,2.309023 6.06593,4.217139 -0.4742,0.769666 -2.67818,0.923155 -7.32345,0.510017 -6.21662,-0.552889 -6.83869,-0.817705 -9.64729,-4.106823 l -3.0022,-3.515826 -5.2443,5.15625 c -8.03882,7.903856 -7.99079,7.436119 -1.71512,16.70379 4.25995,6.29094 5.42451,8.76735 5.34795,11.37233 -0.11174,3.8019 -4.1086,14.25254 -6.92841,18.11584 -2.08227,2.8528 -1.72523,4.43304 1.00158,4.43304 0.97216,0 2.11533,0.62337 2.54039,1.38528 0.63182,1.13253 4.09328,1.43578 18.97167,1.66209 10.00936,0.15225 -54.68994,0.37263 -143.77625,0.48972 l -161.9751036,0.21291 0.2928584,3.04687 0.2928584,3.04688 161.6822468,0.47273 161.68224,0.47274 -136.21495,0.23039 c -110.228285,0.18644 -136.214957,0.46028 -136.214957,1.43541 0,0.66277 -8.558197,13.84636 -19.018214,29.29688 l -19.018214,28.09185 155.233165,0.47288 155.23317,0.47289 -164.95327,0.0375 C 75.630841,208.66014 4.9766355,208.52627 9.3457944,208.34208 Z M 55.452538,150.70312 c 0.414821,-1.5217 -0.872335,-1.64062 -17.757607,-1.64062 l -18.204845,0 2.638135,3.1535 c 1.450973,1.73442 6.195019,7.1796 10.542322,12.10039 l 7.904189,8.9469 7.215283,-10.45977 c 3.968406,-5.75287 7.416542,-11.19805 7.662523,-12.1004 z M 144.85981,139.9614 c 0,-0.36498 -1.46903,-2.17271 -3.2645,-4.0172 -3.21326,-3.30096 -3.27872,-3.52858 -4.17026,-14.50108 -0.49817,-6.13112 -1.58564,-13.28822 -2.41661,-15.90468 -2.40229,-7.564074 -8.22685,-18.792692 -9.90956,-19.103705 -0.86381,-0.159657 -2.42595,0.968797 -3.56767,2.577216 l -2.03103,2.86123 3.19932,5.860285 c 1.75962,3.223154 4.53793,8.257784 6.17401,11.188064 2.46165,4.40886 3.20921,7.22401 4.33432,16.3221 0.74779,6.04688 1.46745,11.08899 1.59925,11.20468 3.19454,2.80397 10.05273,5.20068 10.05273,3.51309 z m 148.59813,-0.2739 c 0,-0.51563 -0.78962,-0.9375 -1.75473,-0.9375 -0.96509,0 -2.2577,-0.60794 -2.87244,-1.35098 -0.88804,-1.07337 -0.72269,-1.89214 0.80463,-3.98438 2.83131,-3.87854 6.84282,-14.33035 6.94778,-18.10214 0.071,-2.55146 -1.25372,-5.32573 -5.95622,-12.4736 -5.75741,-8.751381 -6.17979,-9.166703 -8.8048,-8.657753 -3.22695,0.62565 -4.21809,1.891144 -4.23776,5.410866 -0.0106,1.910337 1.52116,4.101027 6.03089,8.624847 3.32486,3.33525 6.28573,7.03447 6.57972,8.22049 0.33931,1.36883 -0.84742,5.55848 -3.24927,11.47135 -4.60866,11.34553 -4.40359,12.7163 1.90229,12.7163 2.53545,0 4.60991,-0.42188 4.60991,-0.9375 z M 280.76087,93.456623 c 1.63641,-0.542541 3.31507,-0.565881 4.20561,-0.05847 1.14607,0.653013 2.84279,-0.593008 7.48338,-5.495584 5.43722,-5.744188 5.78418,-6.340068 3.69159,-6.340068 -5.07255,0 -5.96098,-3.85371 -1.51528,-6.572775 2.08942,-1.277928 2.51533,-1.85881 1.36463,-1.861221 -2.6527,-0.0055 -8.34446,3.302179 -11.54829,6.711219 -3.9559,4.209302 -8.7539,14.076027 -8.68883,17.867914 l 0.0527,3.073612 1.11548,-3.210833 c 0.77189,-2.221829 1.95437,-3.488972 3.83896,-4.113793 z m -137.9133,-11.73845 c 4.70487,-5.118843 8.5543,-9.689582 8.5543,-10.157198 0,-0.467615 2.09514,-2.920298 4.65588,-5.450406 3.34921,-3.309165 5.04177,-5.920755 6.03092,-9.305607 0.75628,-2.587977 1.23253,-4.848384 1.05833,-5.023127 -0.33296,-0.334002 -35.10962,34.446053 -35.10962,35.113048 0,0.21215 0.64529,1.637489 1.43398,3.167417 1.91354,3.711925 2.80804,3.153933 13.37621,-8.344127 z m -16.96465,4.025123 2.27202,0.572024 -0.57994,-9.173285 c -0.85962,-13.596878 -1.65195,-15.993637 -3.75525,-11.359343 -1.54437,3.402762 -3.7985,4.241574 -6.00803,2.235721 -1.05813,-0.960583 -1.92387,-2.149742 -1.92387,-2.642574 0,-0.492833 0.77562,0.06478 1.72359,1.239138 2.06583,2.559166 4.45069,1.977436 5.72991,-1.397676 0.66853,-1.76386 2.13791,-2.696587 6.04134,-3.834892 4.15914,-1.212874 5.97611,-2.442338 9.38296,-6.34905 2.32375,-2.664697 4.225,-5.168557 4.225,-5.564131 0,-1.92017 -3.73786,-0.330002 -6.92819,2.947403 -2.55055,2.620173 -5.82341,4.520078 -11.46757,6.656982 -10.21438,3.867204 -10.53753,4.545294 -7.37732,15.480044 1.32473,4.583719 2.4086,9.991196 2.4086,12.016618 l 0,3.682585 1.99236,-2.540794 c 1.53473,-1.957186 2.51424,-2.409402 4.26439,-1.96877 z M 73.164534,82.513821 c 0.623992,0.0076 2.183346,0.54611 3.465232,1.196687 2.262124,1.148063 2.395689,1.030422 4.539395,-3.998195 2.794852,-6.556049 3.317661,-9.446202 2.499818,-13.819304 -0.532485,-2.847257 -0.817988,-3.199543 -1.541695,-1.902311 -0.488504,0.875636 -2.765116,2.88746 -5.059138,4.470721 -3.668074,2.531589 -4.171432,3.297092 -4.174951,6.349244 -0.0026,2.283845 -0.959983,4.913158 -2.799737,7.689337 -1.537655,2.320312 -2.797537,4.844026 -2.799737,5.608252 -0.0022,0.764224 1.062562,-0.184994 2.36614,-2.109375 1.303577,-1.924382 2.88068,-3.492658 3.504673,-3.485056 z m 245.314236,5.439478 c -0.20272,-0.610062 -2.77979,-1.592173 -5.72682,-2.182472 -4.56856,-0.915096 -6.10438,-1.812451 -10.42114,-6.088906 -4.7342,-4.690017 -5.22122,-4.943271 -7.50172,-3.900962 -3.42263,1.564332 -2.71644,4.288697 1.21037,4.669346 2.20694,0.213933 3.82797,1.285758 5.94924,3.933639 3.00734,3.753929 4.30742,4.21357 12.8088,4.528521 2.75418,0.102034 3.93193,-0.204833 3.68127,-0.959166 z M 58.878505,85.996079 c 0,-1.401793 14.962735,-16.32668 19.444348,-19.395164 3.517943,-2.408676 3.912086,-6.132165 0.64911,-6.132165 -2.863935,0 -22.897197,21.294105 -22.897197,24.338288 0,1.490966 0.52383,2.380462 1.401869,2.380462 0.771029,0 1.40187,-0.536139 1.40187,-1.191421 z M 307.86664,75.830986 c 2.3875,-1.883873 2.43262,-2.068659 0.91577,-3.75 -2.13246,-2.363706 -7.07247,-2.306819 -9.2497,0.106514 -1.63236,1.809382 -1.63236,1.940618 0,3.75 2.18314,2.419878 5.1807,2.381567 8.33393,-0.106514 z M 59.737366,72.095417 c 1.458783,-1.081896 3.714482,-2.031115 5.012662,-2.109375 1.29818,-0.07826 2.165585,-0.458698 1.927564,-0.845417 -0.23802,-0.386719 0.140398,-0.703125 0.840928,-0.703125 1.509843,0 7.820762,-6.300282 7.067655,-7.055743 -0.781259,-0.7837 -14.99621,6.868912 -16.875895,9.085131 -3.136735,3.698328 -1.997655,4.613447 2.027086,1.628529 z M 87.805794,59.578951 c 2.56672,-2.740687 2.019256,-4.906389 -1.461829,-5.782815 -3.08059,-0.775596 -5.400052,0.543959 -5.80823,3.304336 -0.696824,4.712389 3.756202,6.230496 7.270059,2.478479 z m 33.689536,-3.198517 c 0,-1.546895 -0.91372,-3.47717 -2.23567,-4.722957 l -2.23566,-2.106861 -1.50265,2.152041 c -2.00711,2.874493 -1.89413,4.477246 0.49546,7.028796 2.57788,2.752606 5.47852,1.507846 5.47852,-2.351019 z M 36.137072,121.25 c -1.340577,-1.34476 -0.412986,-2.26688 5.076675,-5.04672 3.13485,-1.58741 5.475533,-2.52231 5.201518,-2.07756 -0.274016,0.44475 -2.628613,1.80959 -5.232438,3.03296 -7.794222,3.66203 -5.584363,4.61879 5.546145,2.40122 1.285047,-0.25602 0.654206,0.12772 -1.401869,0.85275 -4.089211,1.44199 -8.212732,1.8177 -9.190031,0.83735 z M 198.46801,103.59165 c -0.82038,-2.14456 0.34413,-5.645841 2.8854,-8.675409 1.87311,-2.233024 4.12099,-3.205972 12.38345,-5.359927 5.55221,-1.447414 10.5785,-3.099864 11.16956,-3.672112 0.59106,-0.572249 1.95531,-4.591031 3.03166,-8.930626 1.07636,-4.339596 2.53578,-8.776231 3.24315,-9.859191 0.71153,-1.089316 5.82898,-3.955953 11.45432,-6.416338 9.95017,-4.351965 14.41732,-5.206527 18.5794,-3.554227 1.35479,0.537835 2.62277,0.110255 4.60765,-1.553755 1.90121,-1.593864 3.54467,-2.177099 5.37528,-1.907584 1.7433,0.256661 3.16041,-0.192197 4.18205,-1.324637 2.01312,-2.231416 4.29026,-2.171684 6.40096,0.167904 2.19887,2.437313 1.04304,3.624735 -1.3838,1.421618 -1.50921,-1.370089 -2.12019,-1.467324 -3.25959,-0.518759 -1.24017,1.03248 -1.2422,1.396544 -0.0176,3.150486 2.36091,3.381201 1.71734,6.703693 -1.91886,9.906289 -3.85938,3.39918 -8.07686,3.859312 -10.00913,1.092008 -1.22982,-1.761311 -1.36173,-1.730801 -4.25859,0.985018 -1.64421,1.541445 -2.99191,2.886714 -2.99488,2.989485 -0.003,0.102772 -0.41997,2.718107 -0.92666,5.811857 -0.64119,3.915048 -0.60888,6.577462 0.10628,8.758185 1.83348,5.590699 -2.53837,6.343682 -5.33492,0.918856 -1.08414,-2.103054 -1.2679,-4.286957 -0.77925,-9.261392 0.38573,-3.926365 0.288,-6.509399 -0.24625,-6.509399 -0.48714,0 -3.06994,0.650676 -5.73957,1.445947 l -4.85386,1.445946 -4.68564,9.366409 c -3.03635,6.069545 -5.41733,9.667502 -6.76437,10.221816 -1.1433,0.470473 -6.28432,1.534301 -11.42451,2.364054 -8.75678,1.413572 -9.58363,1.741753 -13.11949,5.207238 -4.15522,4.07252 -4.9052,4.37375 -5.70222,2.29024 z m 5.70222,-3.22158 c 3.48787,-3.412761 4.44617,-3.804383 12.6522,-5.170479 4.88318,-0.812925 9.82535,-1.690769 10.98259,-1.950757 1.57515,-0.353871 3.39595,-3.056654 7.24299,-10.751403 5.51046,-11.021864 6.20909,-14.356924 3.33119,-15.901946 -5.18718,-2.784772 -7.1867,-0.350215 -10.00911,12.186872 -0.7993,3.550464 -2.10409,6.999553 -2.89955,7.664642 -0.79546,0.665088 -6.09937,2.475421 -11.78648,4.02296 -9.35348,2.54521 -10.54434,3.117575 -12.47942,5.998013 -2.02557,3.015122 -2.91416,7.594528 -1.47366,7.594528 0.36606,0 2.36372,-1.6616 4.43925,-3.69243 z m 52.27391,-12.948195 c -0.97377,-3.269584 -0.65084,-11.056838 0.61886,-14.923211 0.53644,-1.633548 2.03022,-3.663424 3.31951,-4.510837 1.83352,-1.205122 2.28129,-2.191891 2.05559,-4.529914 -0.23729,-2.457942 -0.73491,-3.040875 -2.80014,-3.280144 -3.07645,-0.356426 -4.7932,2.048523 -6.23076,8.728481 -1.8828,8.748851 -2.25646,15.119455 -1.02437,17.464454 2.20632,4.19921 5.23213,4.982366 4.06131,1.051171 z m -5.30945,-16.69332 c 0.64864,0.249683 1.11009,0.152743 1.02545,-0.215419 -0.0847,-0.368163 0.33919,-2.395359 0.94185,-4.504882 1.3868,-4.854353 4.01144,-7.323592 7.14564,-6.72258 2.93003,0.561862 3.15832,-0.72985 0.26639,-1.507281 -4.42004,-1.188226 -8.22724,-0.470966 -16.05309,3.024329 l -8.09436,3.615222 2.37747,1.56264 c 1.63566,1.075081 2.37746,2.404798 2.37746,4.261777 l 0,2.699136 4.41693,-1.333455 c 2.42931,-0.733399 4.94763,-1.129169 5.59626,-0.879487 z m 21.20166,-2.853518 c 2.03857,-0.784713 0.37838,-3.686738 -3.15876,-5.521584 -5.34035,-2.770226 -7.24855,-1.02126 -4.11683,3.773281 1.47958,2.265181 4.2213,2.924008 7.27559,1.748303 z m -88.69149,22.653004 c 2.67365,-2.169587 2.72793,-2.352597 1.16992,-3.944535 -1.1547,-1.179838 -2.7526,-1.588358 -5.44893,-1.393069 -5.15944,0.373687 -7.40323,-1.714881 -7.40323,-6.891069 0,-5.11633 3.04702,-8.258535 7.58268,-7.819542 3.04243,0.294467 3.19644,0.130774 6.67243,-7.092252 1.95696,-4.066522 3.44033,-7.496538 3.29636,-7.622259 -0.14396,-0.12572 -2.44871,-1.56789 -5.12165,-3.204821 -2.67294,-1.636931 -5.11283,-3.775674 -5.42198,-4.752761 -0.90364,-2.855993 1.86429,-6.964252 8.63309,-12.813558 7.88138,-6.810755 15.33062,-14.248424 16.73891,-16.712925 1.84746,-3.233047 3.48162,-0.435743 2.72035,4.656602 -0.57155,3.823291 -1.45928,5.108246 -7.6016,11.003064 -6.15598,5.907916 -6.80236,6.845247 -5.62951,8.163541 0.72874,0.819111 1.46847,2.490661 1.64383,3.714555 0.24271,1.693801 1.4349,2.653209 4.99176,4.017097 6.36806,2.441849 8.8785,5.441703 8.8785,10.609369 0,3.616987 -0.55848,4.703904 -4.82077,9.382096 -4.6882,5.145665 -12.09151,9.859926 -15.48409,9.859926 -2.51678,0 -4.28662,3.276967 -2.55048,4.722344 3.03816,2.529327 0.34009,8.408875 -3.85376,8.397999 -1.49568,-0.0038 -1.32731,-0.384638 1.00817,-2.279802 z m -2.29451,-12.385914 c 3.46715,-2.301618 3.64557,-2.626705 2.444,-4.453125 -1.70164,-2.58655 -6.73636,-3.113136 -9.11542,-0.95339 -3.11358,2.826568 -1.785,6.709779 2.67756,7.825938 0.13952,0.03489 1.93676,-1.053843 3.99386,-2.419423 z m 13.87473,-1.684019 c 5.08554,-2.585088 13.18613,-11.043521 13.18613,-13.768615 0,-1.711002 -0.11232,-1.721389 -2.3944,-0.221442 -2.24489,1.475507 -2.60479,1.473135 -5.76374,-0.03797 l -3.36935,-1.61175 -2.83353,2.842382 c -2.22194,2.228883 -2.81042,3.607609 -2.7265,6.387712 0.11091,3.674089 -1.80116,6.826573 -4.14051,6.826573 -0.7217,0 -1.05226,0.421875 -0.73458,0.9375 0.9512,1.54389 4.00057,1.073309 8.77648,-1.354392 z m -5.50958,-1.921865 c 0.63762,-0.770691 0.92602,-2.296152 0.64088,-3.389915 -0.28513,-1.093761 0.52484,-4.889862 1.79994,-8.435777 1.83141,-5.092953 2.26066,-7.87616 2.04363,-13.250711 -0.24577,-6.08673 -0.47166,-6.80359 -2.14388,-6.80359 -1.72359,0 -1.84412,0.517516 -1.54771,6.645382 0.29452,6.08862 0.04,7.205929 -3.03738,13.33597 -3.59411,7.159246 -3.90453,8.650324 -2.39137,11.48653 1.15674,2.168145 3.04423,2.335935 4.63589,0.412111 z m 6.16613,-15.115016 c -0.24529,-0.641206 1.06025,-0.140482 2.90119,1.112721 3.92966,2.675073 4.77874,2.767179 7.55128,0.819142 4.31282,-3.030252 1.66229,-7.668432 -6.10046,-10.675239 l -4.90654,-1.900491 0,4.090579 c 0,2.249818 -0.67854,5.724131 -1.50787,7.720695 l -1.50787,3.630116 2.00813,-1.815847 c 1.10446,-0.998716 1.80743,-2.34047 1.56214,-2.981676 z m -6.40331,-10.587621 -0.50091,-5.541394 8.27009,-8.134786 c 7.31522,-7.195537 8.34224,-8.617371 8.89491,-12.314414 0.57704,-3.859955 -0.26857,-6.962082 -1.19242,-4.374435 -0.8729,2.444939 -4.58547,6.295985 -13.45101,13.952736 -9.35539,8.079802 -12.57567,12.283605 -11.65027,15.208412 0.4732,1.495568 7.46517,6.512374 9.29979,6.672684 0.4569,0.03993 0.60532,-2.421036 0.32982,-5.468803 z"
       id="path3438"
       inkscape:connector-curvature="0" />
  </g>
</svg>
