<?xml version="1.0" encoding="UTF-8" standalone="no"?>
<!-- Created with Inkscape (http://www.inkscape.org/) -->

<svg
   xmlns:dc="http://purl.org/dc/elements/1.1/"
   xmlns:cc="http://creativecommons.org/ns#"
   xmlns:rdf="http://www.w3.org/1999/02/22-rdf-syntax-ns#"
   xmlns:svg="http://www.w3.org/2000/svg"
   xmlns="http://www.w3.org/2000/svg"
   xmlns:sodipodi="http://sodipodi.sourceforge.net/DTD/sodipodi-0.dtd"
   xmlns:inkscape="http://www.inkscape.org/namespaces/inkscape"
   id="svg3336"
   version="1.1"
   inkscape:version="0.91 r13725"
   width="500"
   height="250"
   viewBox="0 0 500 250"
   sodipodi:docname="bb830301.svg">
  <metadata
     id="metadata3342">
    <rdf:RDF>
      <cc:Work
         rdf:about="">
        <dc:format>image/svg+xml</dc:format>
        <dc:type
           rdf:resource="http://purl.org/dc/dcmitype/StillImage" />
        <dc:title></dc:title>
      </cc:Work>
    </rdf:RDF>
  </metadata>
  <defs
     id="defs3340" />
  <sodipodi:namedview
     pagecolor="#ababab"
     bordercolor="#666666"
     borderopacity="1"
     objecttolerance="10"
     gridtolerance="10"
     guidetolerance="10"
     inkscape:pageopacity="0"
     inkscape:pageshadow="2"
     inkscape:window-width="1687"
     inkscape:window-height="1012"
     id="namedview3338"
     showgrid="false"
     inkscape:zoom="2.6708333"
     inkscape:cx="182.11658"
     inkscape:cy="130.48362"
     inkscape:window-x="0"
     inkscape:window-y="0"
     inkscape:window-maximized="0"
     inkscape:current-layer="svg3336" />
  <g
     id="g3346"
     transform="translate(58.591329,11.526098)">
    <path
       style="fill:#fefefe"
       d="m 24.922118,157.8125 c -0.342679,-0.34375 -0.623053,-1.82031 -0.623053,-3.28125 l 0,-2.65625 167.289715,0 167.28972,0 0,3.28125 0,3.28125 -166.66666,0 c -91.66667,0 -166.947043,-0.28125 -167.289722,-0.625 z m 55.456925,-8.04688 c 0.0029,-0.64453 0.432504,-2.71506 0.954751,-4.60119 0.753269,-2.72047 0.474188,-5.82578 -1.350171,-15.02319 -1.264841,-6.37663 -2.687252,-12.63812 -3.160913,-13.91443 -0.47366,-1.27631 -1.598909,-6.08772 -2.500553,-10.69201 -1.575289,-8.044306 -1.5734,-8.419822 0.04834,-9.609378 2.419719,-1.774866 6.707824,-1.551525 7.731822,0.402703 0.472819,0.902344 1.341198,6.281255 1.92973,11.953125 0.588534,5.67188 1.52535,14.74219 2.081814,20.15625 0.556466,5.41406 1.393344,10.31878 1.85973,10.89938 1.045237,1.3012 -4.632305,11.60062 -6.39482,11.60062 -0.662716,0 -1.202593,-0.52734 -1.199726,-1.17188 z M 325.23364,150 c 0,-0.51563 0.78963,-0.9375 1.75473,-0.9375 0.96509,0 2.2577,-0.60794 2.87245,-1.35098 0.88803,-1.07337 0.72268,-1.89214 -0.80464,-3.98438 -2.83131,-3.87854 -6.84282,-14.33035 -6.94777,-18.10214 -0.071,-2.55146 1.25372,-5.32573 5.95621,-12.4736 5.75741,-8.75138 6.1798,-9.1667 8.8048,-8.65775 3.22696,0.62565 4.21809,1.89114 4.23776,5.41086 0.0107,1.91034 -1.52116,4.10103 -6.03089,8.62485 -3.32486,3.33525 -6.28572,7.03447 -6.57972,8.22049 -0.3393,1.36882 0.84743,5.55847 3.24928,11.47135 4.60865,11.34553 4.40358,12.7163 -1.90229,12.7163 -2.53545,0 -4.60992,-0.42188 -4.60992,-0.9375 z M 96.261681,136.7227 c 0,-0.59939 1.218336,-3.02517 2.707411,-5.39062 1.489078,-2.36546 6.175978,-12.45271 10.415348,-22.41613 7.8942,-18.553099 9.18484,-20.79095 11.99073,-20.79095 4.70538,0 5.40302,8.005641 1.14879,13.18288 -2.9909,3.63982 -15.01232,26.03651 -15.10691,28.14516 -0.0733,1.63352 -7.97222,8.35946 -9.817341,8.35946 -0.735916,0 -1.338028,-0.49041 -1.338028,-1.0898 z M 292.9769,108.80056 c -3.4556,-3.43228 -4.36573,-3.80566 -12.60307,-5.17048 -4.88318,-0.80907 -9.83247,-1.68555 -10.99843,-1.94773 -1.57182,-0.35344 -3.25798,-2.774881 -6.52167,-9.365492 -2.44202,-4.931381 -5.13898,-9.12352 -6.05765,-9.416006 -3.34409,-1.064692 -1.42145,-6.05664 3.04796,-7.913718 2.57528,-1.070051 3.1102,-1.002825 4.69854,0.590488 0.98584,0.988905 2.68479,5.376774 3.77547,9.750819 1.09068,4.374045 2.56099,8.611984 3.26736,9.417643 0.70636,0.80566 6.31506,2.704097 12.46377,4.21875 l 11.17949,2.753916 1.45108,3.78134 c 1.56954,4.09003 1.87567,6.99991 0.7364,6.99991 -0.39306,0 -2.39072,-1.66475 -4.43925,-3.69944 z m 7.18726,-10.388344 c 0.22948,-0.690591 2.82844,-1.738594 5.77547,-2.328891 4.55438,-0.912253 6.1072,-1.815244 10.35065,-6.019072 3.99678,-3.959472 5.39724,-4.816914 7.02237,-4.299507 2.90185,0.923892 2.24809,4.610758 -0.88275,4.978255 -1.30487,0.153164 -3.78122,1.89988 -5.60874,3.956161 -3.0918,3.478829 -3.65293,3.717404 -10.17327,4.325297 -5.55725,0.51811 -6.81973,0.398897 -6.48373,-0.612243 z m -60.91183,-0.851185 c 0,-0.482062 0.42317,-1.992956 0.94037,-3.357543 0.63678,-1.68011 0.61989,-4.493378 -0.0523,-8.714406 -0.83913,-5.269162 -1.49054,-6.690788 -4.21139,-9.190773 -3.56357,-3.274306 -3.63228,-3.458891 -2.25125,-6.047441 1.33268,-2.497915 5.20837,-2.330428 6.84973,0.296007 2.89017,4.624723 5.13403,20.868474 3.35138,24.261328 -1.64209,3.125353 -4.6265,4.901109 -4.6265,2.752828 z m 71.57261,-11.417545 c -2.3875,-1.883873 -2.43262,-2.068659 -0.91577,-3.75 2.13246,-2.363706 7.07247,-2.306819 9.2497,0.106514 1.63237,1.809382 1.63237,1.940618 0,3.75 -2.18314,2.419878 -5.1807,2.381567 -8.33393,-0.106514 z M 199.22838,80.759339 c -2.74268,-1.466676 -2.93495,-1.806188 -1.63551,-2.887996 0.8099,-0.674259 1.47255,-1.807083 1.47255,-2.517385 0,-1.915823 5.03436,-1.605609 6.86449,0.422987 2.05874,2.281984 1.95526,4.562761 -0.261,5.75257 -2.34063,1.256586 -2.73974,1.208859 -6.44053,-0.770176 z m -7.60672,-2.885207 c -0.5321,-0.997352 -0.96746,-3.506278 -0.96746,-5.575392 0,-2.22742 -0.9676,-5.58753 -2.37204,-8.23718 -2.03934,-3.847444 -2.33429,-5.465263 -2.10281,-11.533982 0.24197,-6.343799 0.45858,-7.058828 2.1384,-7.058828 1.72807,0 1.84417,0.514286 1.53805,6.813083 -0.31854,6.554707 -0.18783,7.052455 3.44684,13.125 5.0609,8.455401 5.58627,10.829212 2.82595,12.768662 -2.76274,1.941143 -3.33078,1.903161 -4.50693,-0.301363 z M 72.196261,75.730786 c -1.156542,-0.559522 -2.102804,-1.503695 -2.102804,-2.098163 0,-1.959813 -4.268796,-6.93495 -12.237921,-14.262882 -4.320545,-3.972915 -7.995724,-7.565765 -8.167063,-7.984112 -0.853198,-2.083185 4.021455,-0.35799 7.246264,2.564536 2.018001,1.828841 6.540241,5.171851 10.049421,7.428912 10.131862,6.516688 11.520514,7.824125 11.520514,10.846743 0,1.718038 -0.660936,3.063038 -1.807719,3.678695 -2.092819,1.123543 -1.795486,1.13502 -4.500692,-0.173729 z M 222.4299,76.359694 c 0,-1.507493 3.06477,-6.121359 4.62113,-6.956903 2.15865,-1.158882 2.93332,-1.184287 4.56027,-0.149555 1.01705,0.646846 0.98393,1.395692 -0.18597,4.204394 -1.30544,3.134125 -1.73721,3.41737 -5.20942,3.41737 -2.08231,0 -3.78601,-0.231888 -3.78601,-0.515306 z m -86.78362,-3.301531 c -1.94463,-0.781211 -2.13213,-1.298619 -1.59224,-4.3937 1.85247,-10.61967 1.80475,-11.156539 -1.34053,-15.082651 -3.42136,-4.270742 -4.31861,-9.704452 -1.69203,-10.246927 1.16442,-0.24049 1.74263,0.530835 2.18962,2.920948 0.33406,1.786251 1.83,4.422733 3.32431,5.858847 1.49431,1.436114 2.71692,3.394703 2.71692,4.352423 0,0.957718 0.68502,4.476918 1.52228,7.820445 1.43837,5.744092 1.43039,6.180987 -0.14485,7.927046 -1.86564,2.067949 -1.91494,2.076294 -4.98348,0.843569 z m 38.25888,-8.507627 c -3.81339,-4.105979 -1.60497,-8.023459 6.23502,-11.060185 l 4.90655,-1.900491 0,4.498422 c 0,3.697199 -0.45777,4.928353 -2.5701,6.912247 -3.8274,3.594686 -6.26338,4.035193 -8.57147,1.550007 z M 72.429905,64.041218 c -1.542056,-0.811865 -2.939888,-1.592185 -3.106295,-1.734046 -0.166406,-0.14186 0.378011,-1.578116 1.209818,-3.191678 l 1.512375,-2.933751 2.762144,1.972967 c 3.016304,2.154509 3.38088,3.488231 1.593921,5.831022 -1.069071,1.401607 -1.406192,1.406317 -3.971963,0.05548 z m 68.826805,-1.463093 c -0.7091,-2.533419 -0.53867,-3.323351 1.01139,-4.6875 1.02531,-0.902344 2.86902,-1.640625 4.09711,-1.640625 1.50487,0 2.23178,0.534934 2.22942,1.640625 -0.006,2.43416 -3.49753,7.734375 -5.09623,7.734375 -0.76895,0 -1.76953,-1.359967 -2.24169,-3.046875 z m 49.64746,-10.78125 0.48143,-5.390625 -8.25573,-7.96875 c -7.5782,-7.314758 -8.30776,-8.337771 -8.88951,-12.465183 -0.58061,-4.119271 0.23435,-7.349698 1.18348,-4.69124 0.8729,2.444939 4.58547,6.295985 13.45101,13.952736 9.35093,8.075955 12.57564,12.283703 11.65175,15.203734 -0.43704,1.381287 -8.03986,6.749953 -9.55893,6.749953 -0.29971,0 -0.32828,-2.425781 -0.0635,-5.390625 z"
       id="path3356"
       inkscape:connector-curvature="0" />
    <path
       style="fill:#007f7f"
       d="m 341.58878,107.81309 c -0.72835,-2.52314 -1.61372,-3.43011 -4.01216,-4.11002 -1.98604,-0.563 -3.40955,-0.53942 -4.01358,0.0665 -0.62495,0.62691 -2.92933,-1.11558 -6.93428,-5.243446 -4.56735,-4.707525 -5.61644,-6.26235 -4.39763,-6.51763 4.49434,-0.941348 5.27084,-4.97278 1.367,-7.097266 -1.89104,-1.02911 -2.12813,-1.408573 -0.89735,-1.43619 2.61447,-0.05867 8.31619,3.238049 11.54829,6.677187 4.20418,4.473477 8.91249,14.346465 8.56126,17.952345 l -0.28697,2.94611 -0.93458,-3.23759 z M 72.897195,93.290813 c 0,-1.320085 -0.841121,-4.800775 -1.869159,-7.734867 -1.028037,-2.934091 -1.869159,-6.520323 -1.869159,-7.969403 l 0,-2.634693 2.874952,1.49134 c 2.626726,1.362579 3.070532,1.362791 5.140187,0.0024 1.245879,-0.818883 2.278024,-2.217433 2.293655,-3.107891 0.02656,-1.512942 0.09126,-1.510748 0.987644,0.03349 0.527573,0.908875 1.205363,6.012573 1.5062,11.341552 l 0.546975,9.689051 -2.829161,-0.416531 c -1.556039,-0.229088 -3.718581,0.06094 -4.805648,0.644559 -1.773032,0.951888 -1.976486,0.814047 -1.976486,-1.339043 z m 53.330275,-0.567387 c -0.0746,-3.06346 -3.12,-5.932352 -5.60528,-5.280406 -1.3731,0.360196 -0.39249,-1.455575 3.69488,-6.84175 3.06023,-4.032643 6.08649,-8.482283 6.72502,-9.888091 l 1.16096,-2.556013 0.52679,2.249541 c 0.28973,1.237249 1.69604,2.814575 3.12514,3.50517 2.28949,1.106361 2.82728,1.050637 4.52394,-0.46875 1.8966,-1.698435 1.91494,-1.689118 1.21933,0.619373 -0.38843,1.289062 -3.59781,5.574597 -7.13196,9.52341 -3.53416,3.948813 -6.82036,8.167563 -7.30267,9.375 l -0.87692,2.19534 -0.0592,-2.432824 z M 184.45109,79.26442 c -3.4348,-1.56677 -5.89515,-3.643458 -8.64486,-7.296809 -4.15185,-5.51627 -5.48158,-9.860693 -1.92665,-6.294656 1.92543,1.931441 4.55482,1.840169 7.16043,-0.248554 0.78009,-0.625343 2.30357,-0.07808 4.88659,1.755364 3.15821,2.24172 3.75628,3.188177 3.77307,5.971011 0.0236,3.915825 2.43664,7.823821 4.37107,7.079189 0.75524,-0.290721 1.10107,-0.111376 0.78245,0.405773 -0.94214,1.529182 -5.30402,0.954151 -10.4021,-1.371318 z m 62.806,1.484035 c -2.34294,-0.505849 -2.91077,-1.25237 -3.89398,-5.119445 C 242.0551,70.484527 239.78616,67.5 237.18317,67.5 c -0.97871,0 -1.51955,-0.421875 -1.20187,-0.9375 1.13244,-1.838046 7.83326,-0.908654 14.16522,1.964691 3.51754,1.596205 7.42079,3.303391 8.67388,3.793747 l 2.27835,0.891556 -2.9542,1.802172 c -1.62482,0.991196 -3.22137,2.869947 -3.54789,4.175004 -0.62186,2.485425 -1.84474,2.74514 -7.33957,1.558785 z"
       id="path3352"
       inkscape:connector-curvature="0" />
    <path
       style="fill:#fe0000"
       d="m 198.36448,23.742233 c -4.39317,-2.566267 -5.07742,-4.052285 -1.86916,-4.05939 1.99014,-0.0044 1.95259,-0.127232 -0.70093,-2.292505 -6.25863,-5.107033 -11.5675,-7.285364 -18.07898,-7.4181383 -8.90552,-0.18159 -14.65874,1.0275863 -17.89789,3.7616633 -1.54449,1.303672 -2.80818,1.948437 -2.80818,1.432812 0,-1.73772 5.63515,-5.7113444 9.13967,-6.4448251 1.91244,-0.4002666 6.84164,-0.7253919 10.95379,-0.7225007 7.45029,0.00524 7.50298,0.022661 14.95327,4.9444748 5.67854,3.751359 7.54931,4.592539 7.77881,3.497697 0.54249,-2.587966 1.81247,-1.517794 2.46136,2.074104 0.34932,1.933594 0.86227,4.464844 1.13991,5.625 0.62109,2.595331 -0.035,2.543797 -5.07167,-0.398392 z"
       id="path3350"
       inkscape:connector-curvature="0" />
    <path
       style="fill:#000000"
       d="M 24.766355,218.65179 34.112149,218.32402 45.02224,202.15255 55.932333,185.98109 45.639606,174.31867 C 32.470285,159.39685 32.445447,159.375 28.658185,159.375 c -3.834387,0 -5.535065,-1.76912 -5.127585,-5.33393 l 0.301175,-2.63482 27.658081,-0.2481 27.65808,-0.2481 1.065412,-4.90815 c 0.921666,-4.24594 0.764581,-6.36277 -1.16428,-15.6894 -1.226331,-5.92969 -3.110494,-14.21207 -4.187031,-18.40528 C 73.785501,107.714 72.512412,100.54212 72.03295,95.969719 71.55349,91.397309 70.455962,85.981081 69.593999,83.933652 68.552419,81.459575 68.204544,78.910187 68.556771,76.332378 69.218798,71.487269 67.875069,69.53187 57.009345,59.528527 52.640186,55.506135 49.06542,51.751849 49.06542,51.185669 c 0,-2.539543 4.274661,-1.475706 8.134112,2.024342 5.576911,5.057572 11.263704,8.414684 11.754113,6.93886 0.211209,-0.635606 1.432576,-2.405685 2.714151,-3.933509 2.524116,-3.009116 7.293597,-3.814907 9.505841,-1.605987 0.645501,0.644531 2.297044,1.171875 3.670096,1.171875 2.594987,0 4.01551,1.967057 5.246917,7.265625 0.930076,4.001985 -1.238725,3.132903 -2.924422,-1.171875 -1.59104,-4.063049 -4.007349,-5.208229 -3.314158,-1.570703 0.267808,1.405325 -0.408443,3.161318 -1.904144,4.944413 -2.207624,2.631812 -2.256423,2.944817 -1.012198,6.492578 0.718986,2.050105 1.534676,7.524337 1.812646,12.164962 0.27797,4.640625 1.098904,13.921875 1.824298,20.625 0.725393,6.70313 1.802493,17.03906 2.393555,22.96875 0.591061,5.92969 1.467383,11.26449 1.947382,11.85513 0.574034,0.70633 -0.09827,2.72583 -1.964368,5.90062 -1.560401,2.65472 -2.837093,5.01913 -2.837093,5.25426 0,0.23511 53.997062,0.42749 119.993462,0.42749 105.79872,0 120.0571,-0.16635 120.53142,-1.40625 0.29587,-0.77344 1.36745,-1.40625 2.38128,-1.40625 2.8001,0 3.17801,-1.55503 1.07736,-4.43304 -2.81982,-3.8633 -6.81667,-14.31394 -6.92841,-18.11584 -0.0765,-2.60498 1.088,-5.08139 5.34794,-11.37233 6.27567,-9.26767 6.3237,-8.79993 -1.71512,-16.70379 l -5.2443,-5.15625 -3.0022,3.515822 c -2.80859,3.289125 -3.43067,3.55394 -9.64729,4.106831 -4.64527,0.413137 -6.84925,0.259637 -7.32344,-0.510019 -1.17561,-1.908122 1.21771,-3.571997 6.06592,-4.217137 3.29991,-0.439116 5.57063,-1.434413 7.69397,-3.372382 2.26479,-2.067063 2.61457,-2.756223 1.4094,-2.776884 -2.93645,-0.05034 -8.21009,-5.577458 -8.21009,-8.604713 0,-3.451863 3.71508,-7.360268 6.9962,-7.360268 1.32454,0 2.64419,-0.616753 2.93256,-1.370562 1.31187,-3.429379 7.82825,-1.777352 7.82825,1.984613 0,1.753513 -1.59949,1.577836 -2.64161,-0.290137 -0.53752,-0.963504 -1.46217,-1.321342 -2.44085,-0.944612 -1.43992,0.554277 -1.44988,0.786411 -0.11569,2.697186 0.80291,1.149891 1.45983,3.433908 1.45983,5.075594 0,2.457103 0.30988,2.903594 1.75253,2.525155 4.71309,-1.236354 14.02667,6.88198 18.71316,16.311651 4.43827,8.930202 4.12163,10.368032 -4.08427,18.546322 -3.84069,3.82776 -7.22213,7.92402 -7.51431,9.1028 -0.33517,1.35225 0.86523,5.58104 3.25257,11.45819 2.08111,5.12322 3.54572,10.06747 3.25472,10.98721 -0.48579,1.53537 0.45071,1.69628 11.44077,1.96568 6.58343,0.16138 -63.44228,0.3851 -155.6127,0.49716 l -167.582572,0.20375 0.292859,3.04687 0.292858,3.04688 167.289715,0.4726 167.28972,0.47261 -141.82243,0.23052 c -114.79646,0.18659 -141.822427,0.46015 -141.822427,1.43554 0,0.66277 -8.558195,13.84636 -19.01821,29.29688 l -19.018212,28.09185 160.840639,0.47274 160.84064,0.47275 -171.96262,0.0326 c -94.579433,0.018 -167.757002,-0.11479 -162.616815,-0.29507 z M 72.274967,161.01562 C 72.689788,159.49392 71.402632,159.375 54.51736,159.375 l -18.204845,0 2.638135,3.1535 c 1.450974,1.73442 6.195019,7.1796 10.542322,12.10039 l 7.904189,8.9469 7.215283,-10.45977 c 3.968406,-5.75287 7.416542,-11.19805 7.662523,-12.1004 z m 13.52767,-15.35061 c 1.935987,-3.38116 2.714747,-5.65118 2.170954,-6.32813 -0.466386,-0.5806 -1.303264,-5.48532 -1.85973,-10.89938 -3.626358,-35.282259 -3.287516,-33.75 -7.463445,-33.75 -1.425727,0 -3.351692,0.557062 -4.279921,1.237922 -1.621738,1.189556 -1.623627,1.565072 -0.04834,9.609378 0.901644,4.60429 2.026893,9.4157 2.500553,10.69201 0.473661,1.27631 1.896072,7.5378 3.160913,13.91443 1.824359,9.19741 2.10344,12.30272 1.350171,15.02319 -2.124266,7.67191 0.212779,7.9337 4.468843,0.50058 z m 249.188933,3.57182 c 0.29948,-0.94654 -1.13978,-5.83123 -3.24572,-11.01563 -2.40185,-5.91288 -3.58858,-10.10252 -3.24928,-11.47135 0.294,-1.18602 3.25486,-4.88524 6.57972,-8.22049 4.50973,-4.52382 6.04156,-6.71451 6.03089,-8.62485 -0.0197,-3.51972 -1.0108,-4.78521 -4.23776,-5.41086 -2.625,-0.50895 -3.04739,-0.0937 -8.8048,8.65775 -4.70249,7.14787 -6.02721,9.92214 -5.95621,12.4736 0.10495,3.77179 4.11646,14.2236 6.94777,18.10214 1.52732,2.09224 1.69267,2.91101 0.80464,3.98438 -0.61475,0.74304 -1.90736,1.35098 -2.87245,1.35098 -0.9651,0 -1.75473,0.42187 -1.75473,0.9375 0,0.51562 2.07447,0.9375 4.60992,0.9375 3.6316,0 4.72411,-0.36092 5.14801,-1.70067 z m 5.15195,-50.016977 c -3.44731,-6.930832 -7.44694,-11.478896 -12.30255,-13.989505 -4.21412,-2.178913 -8.21297,-2.479684 -4.24284,-0.319121 3.90384,2.124485 3.12734,6.155917 -1.367,7.097266 -1.21881,0.255279 -0.16972,1.810104 4.39763,6.517629 4.00495,4.127868 6.30933,5.870358 6.93428,5.243448 0.60403,-0.60592 2.02754,-0.6295 4.01358,-0.0665 2.39844,0.67991 3.28381,1.58688 4.01216,4.11002 l 0.93458,3.23759 0.28697,-2.94611 c 0.184,-1.8891 -0.7728,-5.07678 -2.66681,-8.884719 z m -23.32236,-4.52069 c 1.82752,-2.056282 4.30387,-3.802998 5.60874,-3.956162 3.13084,-0.367497 3.7846,-4.054363 0.88275,-4.978255 -1.62513,-0.517407 -3.02559,0.340035 -7.02237,4.299507 -4.24345,4.203828 -5.79627,5.106819 -10.35065,6.019072 -2.94703,0.590297 -5.54599,1.6383 -5.77547,2.328891 -0.336,1.01114 0.92648,1.130353 6.48373,0.612243 6.52034,-0.607893 7.08147,-0.846468 10.17327,-4.325296 z M 79.679329,93.985322 82.50849,94.401853 81.961515,84.712802 c -0.300837,-5.328979 -0.978627,-10.432676 -1.5062,-11.341552 -0.896382,-1.544236 -0.961087,-1.546429 -0.987644,-0.03349 -0.01564,0.890457 -1.047776,2.289007 -2.293655,3.10789 -2.069655,1.360328 -2.513461,1.360116 -5.140187,-0.0024 l -2.874952,-1.491366 0,2.634693 c 0,1.44908 0.841122,5.035312 1.869159,7.969403 1.028038,2.934092 1.869159,6.414782 1.869159,7.734867 0,2.15309 0.203454,2.290931 1.976486,1.339068 1.087067,-0.583603 3.249609,-0.873647 4.805648,-0.644559 z M 319.15887,86.25 c 1.63237,-1.809382 1.63237,-1.940618 0,-3.75 -2.17723,-2.413333 -7.11724,-2.47022 -9.2497,-0.106514 -1.51685,1.681341 -1.47173,1.866127 0.91577,3.75 3.15323,2.488081 6.15079,2.526392 8.33393,0.106514 z M 76.696953,75.904515 c 1.146783,-0.615657 1.807719,-1.960657 1.807719,-3.678695 0,-3.022618 -1.388652,-4.330055 -11.520514,-10.846743 -3.50918,-2.257061 -8.03142,-5.600071 -10.049421,-7.428912 -3.224809,-2.922526 -8.099462,-4.647721 -7.246264,-2.564536 0.171339,0.418347 3.846518,4.011197 8.167063,7.984112 7.969125,7.327932 12.237921,12.303069 12.237921,14.262882 0,0.594468 0.946262,1.538641 2.102804,2.098163 2.705206,1.308749 2.407873,1.297272 4.500692,0.173729 z m 0.873139,-14.61361 c 0,-0.639776 -1.242965,-2.051064 -2.762145,-3.136195 l -2.762144,-1.972967 -1.512375,2.933751 c -0.831807,1.613562 -1.376224,3.049818 -1.209818,3.191678 0.166407,0.141861 1.564239,0.922181 3.106295,1.734046 2.565771,1.350831 2.902892,1.346121 3.971963,-0.05548 0.642523,-0.842384 1.168224,-2.055057 1.168224,-2.694831 z m 18.095935,76.055355 c -0.295337,-0.77206 0.727644,-3.40878 2.273299,-5.85937 1.545654,-2.45061 5.846894,-11.62751 9.558324,-20.39314 8.67426,-20.486848 9.37495,-21.830754 16.21082,-31.092288 12.13305,-16.438376 13.22127,-19.990138 8.08795,-26.397826 -3.47006,-4.331517 -4.498,-8.696355 -2.44964,-10.401657 2.18653,-1.820324 4.1178,-0.588079 4.80061,3.063031 0.33312,1.781204 1.82829,4.413556 3.3226,5.84967 1.49431,1.436114 2.71692,3.399859 2.71692,4.363878 0,1.624022 0.15256,1.645568 2.07712,0.293352 1.1424,-0.802675 3.65607,-1.45941 5.58592,-1.45941 4.69368,0 6.7857,3.023593 6.12995,8.859602 -0.25557,2.274455 -0.0289,4.572511 0.50372,5.10679 1.05426,1.057545 -1.76994,8.533608 -3.22369,8.533608 -1.15975,0 -0.96793,-3.199164 0.26603,-4.436984 0.58227,-0.584091 0.79879,-1.741346 0.48116,-2.571679 -0.45107,-1.179126 -0.97638,-1.295564 -2.3991,-0.531766 -1.00187,0.537861 -2.85505,0.977929 -4.11816,0.977929 -1.72548,0 -2.45685,0.640597 -2.94111,2.576035 -0.35449,1.416821 -3.51441,5.76431 -7.02203,9.661089 -3.50763,3.896779 -7.06722,8.749281 -7.9102,10.783339 -0.84297,2.034056 -2.7127,5.177343 -4.15495,6.985077 -2.93026,3.67285 -12.9376,22.07848 -14.52893,26.72181 -1.09954,3.20836 -9.072931,10.77265 -11.355258,10.77265 -0.755907,0 -1.61601,-0.63169 -1.911355,-1.40374 z m 7.481583,-3.04939 c 2.31543,-1.93359 4.23668,-4.11331 4.26944,-4.84383 0.0946,-2.10865 12.11601,-24.50534 15.10691,-28.14516 4.25423,-5.177239 3.55659,-13.18288 -1.14879,-13.18288 -2.80589,0 -4.09653,2.237851 -11.99073,20.79095 -4.23937,9.96342 -8.92627,20.05067 -10.415348,22.41613 -4.67129,7.42052 -2.771364,8.76858 4.178518,2.96479 z m 31.31868,-50.71096 c 3.53415,-3.948813 6.74353,-8.234348 7.13196,-9.52341 0.69561,-2.308491 0.67727,-2.317808 -1.21933,-0.619372 -1.69666,1.519386 -2.23445,1.57511 -4.52394,0.46875 -1.4291,-0.690596 -2.83541,-2.267922 -3.12514,-3.505171 l -0.52679,-2.249541 -1.16096,2.556013 c -0.63853,1.405808 -3.66479,5.855448 -6.72502,9.888091 -4.08737,5.386175 -5.06798,7.201946 -3.69488,6.84175 2.48528,-0.651946 5.53068,2.216946 5.60528,5.280406 l 0.0593,2.432824 0.87692,-2.19534 c 0.48231,-1.207437 3.76851,-5.426187 7.30267,-9.375 z m 6.16347,-11.371316 c 1.57524,-1.746059 1.58322,-2.182954 0.14485,-7.927046 -0.83726,-3.343527 -1.52228,-6.862727 -1.52228,-7.820446 0,-0.957719 -1.22261,-2.916308 -2.71692,-4.352422 -1.49431,-1.436114 -2.99025,-4.072596 -3.32431,-5.858847 -0.44699,-2.390113 -1.0252,-3.161438 -2.18962,-2.920948 -2.62658,0.542475 -1.72933,5.976185 1.69203,10.246927 3.14528,3.926112 3.193,4.462981 1.34053,15.082651 -0.53989,3.095081 -0.35239,3.612489 1.59224,4.3937 3.06854,1.232725 3.11784,1.22438 4.98348,-0.843569 z m 6.10945,-9.636469 c 2.54212,-4.182411 2.41531,-6.328125 -0.374,-6.328125 -1.22809,0 -3.0718,0.738281 -4.09711,1.640625 -1.55006,1.364149 -1.72049,2.154081 -1.01139,4.6875 0.47216,1.686908 1.47274,3.046875 2.24169,3.046875 0.76389,0 2.22225,-1.371094 3.24081,-3.046875 z m 146.24113,47.157195 c -3.50626,-3.48845 -4.28391,-3.79839 -13.0738,-5.21069 -5.14019,-0.82588 -10.28071,-1.88631 -11.42339,-2.3565 -1.31775,-0.54223 -3.62137,-3.938333 -6.29865,-9.285785 -2.32159,-4.636994 -4.96144,-8.821401 -5.86634,-9.298682 -0.90489,-0.477282 -3.89983,-1.173314 -6.65541,-1.546739 l -5.01013,-0.678956 0.65023,5.619912 c 0.49154,4.248363 0.29717,6.304779 -0.79642,8.426161 -2.79174,5.415499 -7.29868,4.763909 -5.37318,-0.776841 0.75646,-2.176755 0.77449,-4.73043 0.0649,-9.186266 -0.82433,-5.176217 -1.46271,-6.573305 -3.95874,-8.663588 -2.86464,-2.398983 -3.02196,-2.426223 -4.20738,-0.728508 -1.75194,2.509098 -8.86275,2.439686 -11.40583,-0.111338 -2.15163,-2.158362 -2.54808,-8.309911 -0.72433,-11.239321 0.89112,-1.431372 0.89602,-2.088464 0.0221,-2.965128 -0.87393,-0.876663 -1.54312,-0.744618 -3.01971,0.595854 -2.45576,2.229377 -3.64252,1.074094 -1.42341,-1.385657 2.13989,-2.371935 4.79569,-2.412921 6.03335,-0.09311 0.76865,1.440733 1.66078,1.692505 4.59727,1.297408 3.68486,-0.495786 6.66788,1.234645 7.81279,4.532142 0.35924,1.034646 0.81185,0.96526 2.29322,-0.351563 1.01842,-0.905293 3.32945,-1.640625 5.15621,-1.640625 3.92164,0 21.76155,7.642004 24.80162,10.624155 1.32576,1.300503 2.81898,4.964438 4.07973,10.010449 1.09374,4.377531 2.34469,8.404935 2.77991,8.949793 0.4352,0.544847 5.9037,2.232347 12.15219,3.75 l 11.36091,2.759353 1.80072,4.1604 c 1.84916,4.27231 1.97441,7.64141 0.30453,8.19149 -0.51969,0.17119 -2.62249,-1.35783 -4.6729,-3.39782 z m 5.1505,1.1554 c 0,-0.88511 -0.65299,-3.31089 -1.45109,-5.39063 l -1.45108,-3.78134 -11.17949,-2.753916 c -6.14871,-1.514653 -11.75741,-3.41309 -12.46377,-4.21875 -0.70637,-0.805659 -2.17668,-5.043598 -3.26736,-9.417643 -1.09068,-4.374045 -2.78963,-8.761914 -3.77547,-9.750819 -1.58834,-1.593313 -2.12326,-1.660539 -4.69854,-0.590488 -4.46941,1.857078 -6.39205,6.849026 -3.04796,7.913718 0.91867,0.292486 3.61563,4.484625 6.05765,9.416006 3.26369,6.590611 4.94985,9.012052 6.52167,9.365492 1.16596,0.26218 6.11525,1.13866 10.99843,1.94773 8.23734,1.36482 9.14747,1.7382 12.60307,5.17048 4.10404,4.07633 5.15394,4.50212 5.15394,2.09016 z M 241.68252,97.720022 c 2.39744,-1.605825 3.3563,-5.206632 2.77254,-10.411818 -0.86333,-7.698097 -2.42287,-14.353549 -3.92759,-16.761329 -1.64136,-2.626435 -5.51705,-2.793922 -6.84974,-0.296007 -1.38102,2.58855 -1.31231,2.773135 2.25126,6.047441 2.72085,2.499985 3.37226,3.921611 4.21139,9.190773 0.67221,4.221028 0.6891,7.034296 0.0523,8.714405 -1.52755,4.030294 -1.03013,5.2044 1.48982,3.516535 z M 254.59666,79.18967 c 0.32652,-1.305057 1.92307,-3.183808 3.54789,-4.175004 l 2.9542,-1.802172 -2.27835,-0.891556 c -1.25309,-0.490356 -5.15634,-2.197542 -8.67388,-3.793747 -6.33196,-2.873345 -13.03278,-3.802737 -14.16522,-1.964691 -0.31768,0.515625 0.22316,0.9375 1.20187,0.9375 2.60299,0 4.87193,2.984527 6.17994,8.12901 0.98321,3.867075 1.55104,4.613596 3.89398,5.119445 5.49483,1.186355 6.71771,0.92664 7.33957,-1.558785 z m -23.17133,-5.73204 c 1.1699,-2.808702 1.20302,-3.557548 0.18597,-4.204394 -2.5744,-1.637304 -5.75182,-0.06165 -7.76985,3.852999 -1.92814,3.740245 -1.91016,3.768765 2.37446,3.768765 3.47221,0 3.90398,-0.283245 5.20942,-3.41737 z m -34.87789,18.945319 c -2.30249,-2.005999 -2.47881,-2.520382 -1.44607,-4.21875 C 196.63804,85.657108 194.83657,82.5 191.85791,82.5 c -1.14674,0 -4.37283,-1.014952 -7.16907,-2.255448 -7.03585,-3.121311 -13.65937,-11.434703 -13.66022,-17.145398 -7.4e-4,-4.995776 2.58305,-8.037034 8.87792,-10.449762 3.72837,-1.429031 4.73134,-2.274503 4.96202,-4.182866 0.15902,-1.315498 0.8711,-2.876328 1.58242,-3.468511 1.0536,-0.877141 0.0159,-2.323349 -5.59867,-7.802981 -6.17672,-6.028218 -6.95926,-7.195752 -7.5402,-11.249892 -0.75619,-5.277027 0.84435,-8.132498 2.71926,-4.851392 1.40829,2.464501 8.85752,9.90217 16.73891,16.712925 6.7688,5.849306 9.53673,9.957565 8.63309,12.813558 -0.30915,0.977087 -2.74904,3.11583 -5.42198,4.752761 -2.67294,1.636931 -5.01282,3.114344 -5.19973,3.283141 -0.18691,0.168796 1.49534,3.479048 3.73832,7.356118 3.66369,6.332806 4.37028,7.052444 6.95262,7.080982 4.09168,0.04521 6.93861,3.389194 6.93861,8.150012 0,4.869942 -2.332,7.146951 -6.914,6.750955 -4.91065,-0.424399 -6.21134,1.438075 -2.55992,3.665577 1.60884,0.981449 2.64629,2.064188 2.30545,2.406084 -1.04066,1.043924 -1.96357,0.717056 -4.6953,-1.662914 z m 9.12147,-10.873434 c 2.21626,-1.189809 2.31974,-3.470586 0.261,-5.75257 -1.83013,-2.028596 -6.86449,-2.33881 -6.86449,-0.422987 0,0.710302 -0.66265,1.843126 -1.47255,2.517385 -1.29944,1.081808 -1.10717,1.42132 1.63551,2.887996 3.70079,1.979035 4.0999,2.026762 6.44053,0.770176 z m -10.81572,-0.893777 c 0.31862,-0.517149 -0.0272,-0.696494 -0.78245,-0.405773 -1.93443,0.744632 -4.34744,-3.163364 -4.37107,-7.079189 -0.0168,-2.782834 -0.61486,-3.729291 -3.77307,-5.971011 -2.58302,-1.833443 -4.1065,-2.380707 -4.88659,-1.755364 -2.60561,2.088723 -5.235,2.179995 -7.16043,0.248554 -3.55493,-3.566037 -2.2252,0.778386 1.92665,6.294656 2.74971,3.653351 5.21006,5.730039 8.64486,7.296809 5.09808,2.325469 9.45996,2.9005 10.4021,1.371318 z m 1.2754,-2.460243 c 2.76032,-1.93945 2.23495,-4.313261 -2.82595,-12.768662 -3.63467,-6.072545 -3.76538,-6.570293 -3.44684,-13.125 0.30612,-6.298797 0.19002,-6.813083 -1.53805,-6.813083 -1.67982,0 -1.89643,0.715029 -2.1384,7.058828 -0.23148,6.068719 0.0635,7.686538 2.10281,11.533982 1.40444,2.64965 2.37204,6.00976 2.37204,8.23718 0,3.73615 1.29948,7.38876 2.62868,7.38876 0.38156,0 1.66213,-0.680402 2.84571,-1.512005 z m -8.44288,-13.608692 c -1.73333,-3.598785 -1.97275,-3.761909 -3.40811,-2.322068 -1.43535,1.439841 -1.34766,1.709385 1.24818,3.836982 3.90611,3.201512 4.29887,2.926032 2.15993,-1.514914 z m -5.20908,-1.566274 c 2.11233,-1.983894 2.5701,-3.215048 2.5701,-6.912247 l 0,-4.498422 -4.90655,1.900491 c -7.83999,3.036726 -10.04841,6.954206 -6.23502,11.060185 2.30809,2.485186 4.74407,2.044679 8.57147,-1.550007 z m 13.29083,-8.391087 c 2.34016,-1.417932 4.48178,-3.295284 4.75914,-4.171895 0.92389,-2.920031 -2.30082,-7.127779 -11.65175,-15.203734 -8.86554,-7.656751 -12.57811,-11.507797 -13.45101,-13.952735 -0.94913,-2.658459 -1.76409,0.571968 -1.18348,4.691239 0.58175,4.127412 1.31131,5.150425 8.88951,12.465183 l 8.25573,7.96875 -0.48143,5.390625 c -0.26478,2.964844 -0.23621,5.390625 0.0635,5.390625 0.29971,0 2.45962,-1.160126 4.79979,-2.578058 z"
       id="path3348"
       inkscape:connector-curvature="0" />
  </g>
</svg>
