<?xml version="1.0" encoding="UTF-8" standalone="no"?>
<!-- Created with Inkscape (http://www.inkscape.org/) -->

<svg
   xmlns:dc="http://purl.org/dc/elements/1.1/"
   xmlns:cc="http://creativecommons.org/ns#"
   xmlns:rdf="http://www.w3.org/1999/02/22-rdf-syntax-ns#"
   xmlns:svg="http://www.w3.org/2000/svg"
   xmlns="http://www.w3.org/2000/svg"
   xmlns:sodipodi="http://sodipodi.sourceforge.net/DTD/sodipodi-0.dtd"
   xmlns:inkscape="http://www.inkscape.org/namespaces/inkscape"
   id="svg3396"
   version="1.1"
   inkscape:version="0.91 r13725"
   width="550"
   height="275"
   viewBox="0 0 550 275"
   sodipodi:docname="bb920605.svg">
  <metadata
     id="metadata3402">
    <rdf:RDF>
      <cc:Work
         rdf:about="">
        <dc:format>image/svg+xml</dc:format>
        <dc:type
           rdf:resource="http://purl.org/dc/dcmitype/StillImage" />
        <dc:title></dc:title>
      </cc:Work>
    </rdf:RDF>
  </metadata>
  <defs
     id="defs3400" />
  <sodipodi:namedview
     pagecolor="#ffffff"
     bordercolor="#666666"
     borderopacity="1"
     objecttolerance="10"
     gridtolerance="10"
     guidetolerance="10"
     inkscape:pageopacity="0"
     inkscape:pageshadow="2"
     inkscape:window-width="1532"
     inkscape:window-height="816"
     id="namedview3398"
     showgrid="false"
     inkscape:zoom="1.2181239"
     inkscape:cx="206.28981"
     inkscape:cy="155.40835"
     inkscape:window-x="0"
     inkscape:window-y="0"
     inkscape:window-maximized="0"
     inkscape:current-layer="svg3396" />
  <g
     id="g3406"
     transform="translate(20.327094,17.006369)">
    <path
       style="fill:#fefefe"
       d="m 93.457944,223.59375 0,-3.28125 201.869156,0 201.86916,0 0,3.28125 0,3.28125 -201.86916,0 -201.869156,0 0,-3.28125 z M 457.2422,218.20312 c 0.21375,-0.64453 1.61562,-1.389 3.11527,-1.6544 2.65518,-0.46989 2.72664,-0.62958 2.72664,-6.09375 0,-3.08617 -0.31601,-14.34997 -0.70224,-25.03066 -0.68525,-18.94939 -0.65611,-19.4442 1.20352,-20.44256 2.85822,-1.53445 5.33224,-0.27442 6.51402,3.31759 0.7815,2.37539 0.78708,6.44577 0.0214,15.65834 -0.56902,6.84672 -1.12338,17.61578 -1.23192,23.93126 l -0.19735,11.48269 -5.919,0.002 c -4.31998,9.4e-4 -5.81402,-0.3149 -5.53038,-1.17019 z m 12.85126,0.5721 c 0,-0.32986 0.68024,-1.09873 1.51166,-1.70857 1.38663,-1.0171 1.37383,-1.37458 -0.15477,-4.32211 -1.32623,-2.55732 -1.62145,-5.10436 -1.44608,-12.47675 0.18986,-7.98221 0.53605,-9.76514 2.50293,-12.89062 2.83534,-4.5055 6.44806,-5.02621 7.92039,-1.14159 0.99981,2.63792 -0.41853,5.49022 -6.79241,13.65967 l -2.72215,3.48899 3.89836,6.58244 c 2.15336,3.63595 3.65643,7.21492 3.35787,7.99538 -0.35791,0.9356 -1.81335,1.41294 -4.30816,1.41294 -2.0722,0 -3.76764,-0.2699 -3.76764,-0.59978 z m -19.15888,-44.57248 c -8.7189,-0.88854 -12.19284,-2.50305 -10.03768,-4.66495 0.83985,-0.84247 1.96047,-0.71009 4.778,0.56441 2.90613,1.31457 4.87964,1.52544 9.37679,1.00185 5.67968,-0.66125 5.69597,-0.65618 5.69597,1.77265 0,1.33969 -0.31542,2.37897 -0.70093,2.30952 -0.38552,-0.0695 -4.48598,-0.51202 -9.11215,-0.98348 z m 3.45794,-5.64024 c -1.55991,-1.56479 -1.44346,-6.375 0.15434,-6.375 2.10816,0 6.2008,3.75752 6.2008,5.69304 0,1.35405 -0.6559,1.80696 -2.61682,1.80696 -1.43925,0 -3.1215,-0.50625 -3.73832,-1.125 z m -12.86253,-6.45583 c -1.50972,-1.59133 -10.52532,-9.00451 -20.03466,-16.47372 -9.91717,-7.78955 -17.67294,-14.57213 -18.18842,-15.90614 -1.23691,-3.20106 0.35618,-5.43576 4.14204,-5.81019 2.75444,-0.27243 3.98628,0.60339 12.52674,8.90625 5.20954,5.06461 12.53728,12.11325 16.28385,15.66365 6.4795,6.14024 9.53485,10.86767 9.53485,14.75297 0,2.48938 -1.10693,2.19533 -4.2644,-1.13282 z m -429.380457,-1.31454 0,-3.29213 36.9751,0 36.975102,0 -0.292859,3.04687 -0.292858,3.04688 -36.682243,0.24526 -36.682242,0.24525 0,-3.29213 z m 64.491193,-5.40151 c 0.0029,-0.64453 0.432236,-2.71409 0.954154,-4.59901 1.023086,-3.69493 -0.909413,-14.95057 -6.15614,-35.85583 -2.475227,-9.86238 -2.504727,-10.26475 -0.841984,-11.48437 2.631417,-1.93015 5.823906,-1.52687 7.434682,0.93917 1.399936,2.14325 2.025011,6.35974 4.259744,28.73442 0.592243,5.92969 1.46274,11.25628 1.934437,11.83688 1.05582,1.29958 -4.61404,11.60062 -6.385167,11.60062 -0.662716,0 -1.202593,-0.52734 -1.199726,-1.17188 z M 384.5692,143.20312 c 0.37128,-1.16015 0.87791,-4.85156 1.12583,-8.20312 0.43259,-5.84827 0.3345,-6.20468 -2.43522,-8.84727 -4.49997,-4.29344 -3.19633,-8.5084 2.43134,-7.8611 2.26385,0.26039 2.66061,0.7553 2.87276,3.58337 0.13539,1.80469 0.48814,6.16189 0.78391,9.68266 0.60319,7.18017 0.11529,10.12822 -2.0328,12.28303 -2.15564,2.16237 -3.53907,1.84115 -2.74582,-0.63757 z m 79.60526,0.54688 c -1.65492,-1.66008 -0.45771,-4.91265 2.43938,-6.62733 5.08294,-3.00838 10.22394,-8.0043 11.5753,-11.24865 0.83319,-2.00035 1.91873,-3.06152 3.13181,-3.06152 3.77674,0 2.13131,3.25686 -7.02189,13.89868 -6.01038,6.98788 -8.47044,8.69815 -10.1246,7.03882 z m -2.84301,-8.29832 c -0.83511,-0.83771 -1.51837,-2.7586 -1.51837,-4.26865 0,-2.12053 0.4255,-2.74553 1.86916,-2.74553 2.61252,0 5.78108,3.4519 5.4313,5.91702 -0.36345,2.56158 -3.69251,3.19327 -5.78209,1.09716 z M 92.995251,129.02556 c -1.712251,-1.25595 -1.708778,-1.39712 0.144174,-5.85938 3.005182,-7.23706 24.304555,-40.355189 25.307025,-39.349584 0.21327,0.213935 -4.61003,8.126313 -10.71843,17.583064 -12.945114,20.04102 -12.6336,19.53784 -12.09589,19.53784 0.22844,0 5.54417,-7.95932 11.81273,-17.68738 10.57682,-16.413979 11.66904,-17.777317 15.17058,-18.936543 3.44369,-1.140072 3.886,-1.094415 5.06486,0.522816 0.71041,0.974586 1.29166,2.683115 1.29166,3.79673 0,2.285846 -6.58332,11.383647 -16.16618,22.340807 -3.55,4.0591 -7.00572,8.69973 -7.67939,10.3125 -1.30472,3.1235 -4.29554,6.24609 -7.635045,7.97142 -2.535018,1.3097 -2.383168,1.31753 -4.496094,-0.23229 z M 344.5898,124.22843 c 0.53575,-5.2071 -0.91453,-15.10863 -2.78484,-19.013 -1.26703,-2.64498 -0.1432,-3.96547 3.60607,-4.23712 2.37451,-0.17204 2.69528,0.10049 2.52658,2.14669 -0.10628,1.28906 0.23662,5.06786 0.76201,8.39734 1.09831,6.96031 0.34177,14.46158 -1.66115,16.47077 -2.40861,2.41613 -2.99227,1.51878 -2.44867,-3.76468 z m -63.68323,3.3778 c -0.28169,-0.4572 0.065,-1.31172 0.77028,-1.89894 0.9874,-0.82203 1.41505,-0.72099 1.85887,0.4392 0.31704,0.82878 0.57643,1.68329 0.57643,1.89894 0,0.75413 -2.69811,0.38447 -3.20558,-0.4392 z m 89.18689,-3.43404 c 0,-0.28341 0.64164,-1.75997 1.42587,-3.28125 1.2161,-2.35903 1.9723,-2.76594 5.14018,-2.76594 4.23025,0 4.49975,0.62051 1.77733,4.09232 -1.41944,1.81016 -2.79287,2.47018 -5.14019,2.47018 -1.76175,0 -3.20319,-0.23189 -3.20319,-0.51531 z m -90.65421,-7.84948 c 0,-6.3031 0.23389,-7.60758 1.21724,-6.78892 1.51396,1.2604 1.39811,11.96769 -0.14625,13.51687 -0.80493,0.80745 -1.07099,-0.86389 -1.07099,-6.72795 z m 11.75741,-1.11839 c -2.48962,-1.96446 -3.04126,-5.47719 -0.96746,-6.16066 1.65375,-0.54502 5.0979,3.39821 5.0979,5.83661 0,2.82508 -0.87391,2.89364 -4.13044,0.32405 z m -1.53831,-9.89724 c -1.36522,-3.60203 -0.44259,-5.324702 2.46037,-4.59383 1.30992,0.3298 4.9465,0.13309 8.08128,-0.43713 8.85154,-1.610104 17.55701,0.27864 17.55701,3.80917 0,0.4545 -2.13171,0.57311 -4.73714,0.26357 -4.77938,-0.56782 -17.40471,1.20215 -19.04791,2.67035 -1.65558,1.47926 -3.3605,0.80255 -4.31361,-1.71213 z m 42.11735,0.75685 c 0,-1.98355 4.0662,-5.83683 5.87577,-5.56808 2.67643,0.39748 2.89852,1.88466 0.64398,4.3122 -1.85947,2.00214 -6.51975,2.89983 -6.51975,1.25588 z M 320.56075,94.274081 c 0,-1.975795 1.49443,-2.575384 2.7217,-1.091993 0.81947,0.99049 0.71874,1.419471 -0.43783,1.864681 -2.10637,0.810806 -2.28387,0.750759 -2.28387,-0.772688 z m 47.35202,0.725916 c -1.14943,-1.153013 -0.63772,-4.758196 0.85129,-5.997834 1.14884,-0.956434 34.75901,-5.144751 44.24217,-5.51322 0.72819,-0.02829 1.12055,-0.255513 0.87191,-0.504931 -0.24864,-0.24942 -8.81965,0.377792 -19.04667,1.393804 -10.22703,1.016011 -18.94086,1.499951 -19.36407,1.07542 -0.85189,-0.854548 36.43537,-5.307988 43.42638,-5.186672 5.01416,0.08701 7.49203,1.652329 7.0859,4.476284 -0.35381,2.460109 -0.17863,2.41714 -28.78342,7.059902 -23.97851,3.891888 -28.13826,4.346059 -29.28349,3.197247 z m -41.93823,-2.890622 c -0.76262,-0.921553 0.69167,-1.171875 6.80822,-1.171875 6.14938,0 7.5376,0.241131 6.62997,1.151607 -1.53382,1.538614 -12.16842,1.554654 -13.43819,0.02027 z m -183.51735,-1.875 c 1.96074,-8.166313 2.48425,-12.160204 1.96079,-14.959192 -0.32295,-1.726884 -0.9865,-2.89223 -1.47455,-2.589658 -1.18929,0.737318 -1.13263,-2.974063 0.0801,-5.247157 2.34266,-4.390956 5.57161,0.203292 5.57756,7.935904 0.004,5.512498 -3.68068,17.438228 -5.38823,17.438228 -1.02665,0 -1.21796,-0.652688 -0.75566,-2.578125 z m 91.70241,-2.032356 c -0.32512,-0.5277 0.0223,-2.14942 0.77207,-3.603823 1.87167,-3.630728 3.56882,-16.494001 2.53579,-19.219585 -0.45328,-1.19593 -1.49416,-2.732226 -2.31308,-3.41399 -2.00932,-1.672804 -1.05099,-2.902121 2.2624,-2.902121 1.88338,0 3.20448,0.730942 4.27031,2.362677 1.36749,2.09357 1.41751,3.346341 0.43916,10.998916 -1.38076,10.80016 -5.72844,19.410744 -7.96665,15.777926 z M 69.237864,80.390625 C 68.792732,79.230469 63.546132,73.503229 57.578753,67.663424 51.611374,61.82362 46.728972,56.866589 46.728972,56.647799 c 0,-0.218789 0.83991,-0.397799 1.866466,-0.397799 1.026557,0 3.597402,1.582031 5.712989,3.515625 2.115587,1.933594 7.478948,6.264369 11.918579,9.623947 8.535236,6.458817 10.326958,9.480616 7.047611,11.886027 -2.332023,1.710545 -3.106,1.540866 -4.036753,-0.884974 z m 208.311296,-0.25968 c -0.99278,-1.199956 -5.15653,-34.619682 -5.53526,-44.42782 -0.0282,-0.730468 -0.25471,-1.124055 -0.50336,-0.874636 -0.24864,0.249419 0.37662,8.847207 1.38946,19.106195 1.01285,10.258989 1.49528,19.000049 1.07207,19.42458 -0.85188,0.854548 -5.29144,-36.54924 -5.17051,-43.562092 0.042,-2.431869 0.62839,-5.088945 1.30322,-5.904616 1.77855,-2.149707 4.97551,-1.355947 5.71899,1.419944 1.47657,5.512921 8.46889,51.302946 8.16012,53.4375 -0.41428,2.863997 -4.48498,3.7376 -6.43473,1.380945 z m -51.01843,-6.503391 c -2.87197,-6.292801 -3.2956,-10.148274 -1.16397,-10.59326 1.13033,-0.235962 2.12643,1.237217 3.77855,5.588261 1.91545,5.044577 2.61354,5.952078 4.77343,6.205341 3.06422,0.359305 3.34467,2.546877 0.42705,3.331211 -4.52779,1.217193 -5.43022,0.69392 -7.81506,-4.531553 z m 17.08298,1.684946 c -0.77812,-0.780546 -0.80965,-4.358878 -0.0558,-6.329575 1.29978,-3.397697 5.9748,0.08446 5.9748,4.45027 0,2.124826 -0.40125,2.504305 -2.64797,2.504305 -1.4564,0 -2.92836,-0.28125 -3.27103,-0.625 z m -86.00428,-1.419142 c -2.2058,-1.238283 -1.89864,-5.093804 0.54245,-6.808948 1.1424,-0.802675 3.98118,-1.470547 6.30841,-1.484159 4.57057,-0.02673 37.58513,-4.194539 40.71664,-5.140128 2.62987,-0.794113 5.33162,2.358425 4.93985,5.764059 -0.392,3.407582 -1.90655,3.65841 -27.30861,4.522617 -10.74055,0.365405 -20.41345,1.012719 -21.49533,1.438474 -1.24718,0.490807 -0.0859,0.619931 3.17314,0.352829 2.8271,-0.231699 13.97196,-0.796613 24.76636,-1.255365 17.81603,-0.757164 19.73689,-0.690053 20.82673,0.727644 0.66032,0.858955 0.8706,1.638825 0.46729,1.733044 -2.98878,0.698226 -51.7144,0.836233 -52.93693,0.149933 z M 68.457944,70.194567 c -3.528326,-2.254956 -3.450416,-1.986466 -1.611514,-5.553623 1.737,-3.369485 2.312068,-3.416369 5.120606,-0.417476 2.0446,2.18318 2.1054,2.544267 0.863845,5.130382 l -1.335554,2.781912 -3.037383,-1.941195 z M 141.30841,60.75 c -1.65158,-1.65674 -1.36478,-4.926035 0.58761,-6.698449 2.22002,-2.015367 3.13261,-1.956882 6.10878,0.391493 3.19726,2.522825 3.11322,4.233752 -0.29484,6.001631 -3.32291,1.723717 -4.91202,1.79951 -6.40155,0.305325 z M 130.5844,57.542377 c -1.26554,-1.99987 -4.70042,-5.904257 -7.63305,-8.676416 -3.45619,-3.267051 -5.01215,-5.361217 -4.42271,-5.952503 1.61814,-1.623197 4.26874,0.06351 11.37117,7.236 l 6.96673,7.035455 -1.99057,1.996797 -1.99058,1.996796 -2.30099,-3.636129 z"
       id="path3416"
       inkscape:connector-curvature="0" />
    <path
       style="fill:#007f7f"
       d="m 480.84112,185.45597 c -1.15228,-2.68129 -4.71614,-3.31903 -6.99364,-1.25148 -2.46236,2.23538 -3.03186,0.55567 -2.30844,-6.80877 0.97627,-9.93852 -2.66119,-16.19275 -7.81004,-13.42856 -1.67263,0.89795 -1.79213,0.31773 -2.35178,-11.419 -0.46621,-9.77704 -0.32402,-12.63144 0.67939,-13.63798 1.06894,-1.07228 1.19579,-0.88881 0.80462,1.16381 -0.91616,4.80758 3.95819,7.09874 6.71195,3.15491 1.75778,-2.51743 1.65892,-3.16591 1.88974,12.3961 0.18679,12.5923 0.20155,12.67091 2.92046,15.55852 3.70312,3.93286 8.05459,12.14765 7.68967,14.51674 -0.28458,1.84755 -0.33747,1.83706 -1.23193,-0.24429 z m -84.57944,-56.16091 c -5.93807,-2.10014 -7.74962,-4.03912 -6.99473,-7.48681 0.69206,-3.16077 -1.42536,-4.96985 -5.1714,-4.41833 -1.7812,0.26224 -2.70683,0.0406 -2.48655,-0.59546 0.2067,-0.59686 2.80933,-0.97683 6.33357,-0.92467 4.61307,0.0683 7.66409,0.81943 13.32749,3.28125 4.54605,1.97612 6.68281,3.3189 5.60748,3.52387 -3.11202,0.59319 -5.18586,3.18704 -4.77782,5.97586 0.44165,3.0186 0.77215,2.98213 -5.83804,0.64429 z M 280.91169,108.49108 c -0.73828,-1.14665 -2.22966,-5.67077 -3.31419,-10.05358 -1.08452,-4.382813 -2.58576,-9.559318 -3.33608,-11.503346 -1.52094,-3.940622 -1.8317,-11.533678 -0.50569,-12.355756 0.47218,-0.292743 1.12687,0.693302 1.45484,2.191209 0.81558,3.724925 3.59726,6.070057 6.53238,5.507219 1.76156,-0.337796 2.3692,-0.05761 2.3692,1.092452 0,0.850722 0.84112,3.112533 1.86916,5.026245 1.02803,1.913712 2.6918,5.008891 3.69726,6.878177 l 1.8281,3.3987 -1.97328,1.60286 c -1.76062,1.43012 -1.8556,1.94153 -0.88126,4.74524 1.24881,3.59355 0.8402,4.19893 -3.36624,4.98723 -2.46792,0.4625 -3.28156,0.18039 -4.3742,-1.51665 z M 78.227397,103.50804 c -1.793004,-2.41115 -4.329911,-2.86102 -7.2608,-1.28756 -1.598827,0.85835 -1.807719,0.6484 -1.807719,-1.81682 0,-1.533026 -0.652413,-5.609247 -1.449806,-9.058288 -0.797394,-3.449039 -1.310192,-8.010374 -1.139552,-10.1363 0.305391,-3.804727 0.327216,-3.826333 1.392159,-1.378265 1.522638,3.500206 2.790722,4.003505 5.53779,2.197932 1.883291,-1.237836 2.303762,-2.154542 1.985612,-4.329013 -0.221992,-1.51725 -0.07835,-2.428975 0.319204,-2.026055 1.068417,1.082836 2.685221,12.11175 2.693328,18.372335 0.0039,2.998744 0.454213,6.290384 1.000733,7.314764 1.636452,3.06729 0.651128,4.732 -1.270949,2.14727 z m 270.308913,-2.52698 c -1.30168,-1.698254 -1.81241,-1.78771 -4.61391,-0.80805 -3.6004,1.25902 -4.2029,0.852 -4.9893,-3.370604 -0.73259,-3.933651 0.99346,-5.087788 11.53419,-7.712412 4.36916,-1.087914 9.52954,-2.593843 11.46751,-3.346509 3.92835,-1.525685 11.49775,-1.837421 12.31726,-0.507271 0.29184,0.473668 -0.69114,1.130392 -2.18438,1.459388 -3.65915,0.806196 -6.05023,3.613316 -5.5068,6.464968 0.37027,1.943002 0.002,2.37593 -2.43959,2.865718 -1.58167,0.317325 -4.47552,1.638928 -6.43078,2.936906 -5.77335,3.832566 -7.47567,4.207806 -9.1542,2.017866 z M 128.97196,85.917336 c -1.43894,-3.026575 -3.94417,-3.693938 -7.71028,-2.053936 -3.27653,1.426806 -1.61923,-2.490856 5.27193,-12.462226 3.79908,-5.497209 7.77066,-10.777029 8.82572,-11.732935 1.88202,-1.705148 1.98787,-1.679414 5.59801,1.360955 l 3.67972,3.098965 -1.88046,2.551401 c -1.20588,1.636133 -1.71377,3.426115 -1.41579,4.989754 0.37309,1.957749 -0.52377,3.549582 -4.55022,8.076206 -2.75819,3.100821 -5.01489,6.229822 -5.01489,6.953339 0,2.534481 -1.41466,2.140153 -2.80374,-0.781523 z m 81.92511,-14.101419 c -0.93605,-1.43306 -1.17154,-2.565682 -0.6063,-2.916108 1.48944,-0.92341 1.06258,-5.314652 -0.71133,-7.317571 -1.61395,-1.822297 -1.55548,-1.83777 4.43357,-1.17327 3.338,0.37036 6.23685,0.841668 6.44189,1.047353 0.20504,0.205684 -0.003,3.02075 -0.46161,6.2557 l -0.83441,5.881729 -3.36566,0.282653 c -2.73006,0.229276 -3.65467,-0.159834 -4.89615,-2.060486 z m 10.33636,-0.331542 c 0.81294,-5.068747 1.36383,-5.510048 2.63321,-2.109375 1.68759,4.521066 1.65777,4.6875 -0.83985,4.6875 -1.88465,0 -2.14647,-0.376396 -1.79336,-2.578125 z m 8.72753,-3.103554 c -2.17109,-5.973039 -3.83454,-7.478656 -6.14108,-5.558413 -1.13311,0.943329 -1.38997,0.876087 -1.38997,-0.363866 0,-2.27552 10.36536,-2.17499 12.32991,0.119583 2.13392,2.492381 2.7209,4.853199 2.07087,8.328978 -0.46272,2.474193 -1.04503,3.155397 -2.69733,3.155397 -1.72759,0 -2.47927,-1.02358 -4.1724,-5.681679 z"
       id="path3412"
       inkscape:connector-curvature="0" />
    <path
       style="fill:#fe0000"
       d="m 199.9879,89.011897 c -0.62322,-2.605957 -0.9085,-4.963419 -0.63398,-5.238803 0.27453,-0.275385 1.89902,0.484242 3.61,1.68806 1.71097,1.203817 3.30895,2.318593 3.55107,2.477278 0.24212,0.158684 -0.13011,0.642108 -0.8272,1.074274 -0.99571,0.617309 -0.85282,1.008337 0.66656,1.824025 3.76756,2.022632 7.16057,0.54624 9.88556,-4.301459 1.37152,-2.439921 4.32084,-21.667452 4.32084,-28.168911 0,-11.668465 -3.10749,-14.978124 -10.84113,-11.546472 -4.93125,2.188141 -5.04672,2.214655 -5.04672,1.158788 0,-1.078957 7.772,-4.860033 9.91544,-4.823862 7.47372,0.126124 9.6862,12.03701 5.98729,32.232659 -2.94545,16.08191 -8.09719,21.693295 -15.46832,16.848454 -2.12053,-1.393762 -2.30357,-1.393762 -2.30357,0 0,3.261769 -1.74167,1.267626 -2.81584,-3.224031 z m 95.10556,-60.013228 c -3.94318,-2.088179 -4.54926,-3.683856 -1.40187,-3.690826 1.99014,-0.0044 1.95259,-0.127232 -0.70094,-2.292505 -6.25862,-5.107033 -11.5675,-7.285364 -18.07898,-7.418138 -8.90551,-0.18159 -14.65874,1.027586 -17.89789,3.761663 -1.54449,1.303672 -2.80817,1.948437 -2.80817,1.432812 0,-1.73772 5.63515,-5.711344 9.13966,-6.444825 1.91244,-0.400266 6.84164,-0.725392 10.95379,-0.722501 7.45029,0.0053 7.50299,0.02266 14.95328,4.944475 5.67854,3.751359 7.5493,4.592539 7.7788,3.497697 0.54329,-2.591744 1.81319,-1.515536 2.44739,2.074104 0.34162,1.933594 0.83733,4.253906 1.10157,5.15625 0.62525,2.135164 -1.06513,2.04329 -5.48664,-0.298206 z"
       id="path3410"
       inkscape:connector-curvature="0" />
    <path
       style="fill:#000000"
       d="m 45.194423,226.89371 33.51218,-0.48746 -21.829937,-28.19188 C 44.870201,182.70883 34.210928,168.89242 33.189393,167.51124 c -1.787488,-2.41681 -2.226803,-2.51943 -11.682243,-2.72925 -5.403699,-0.1199 6.787242,-0.43631 27.090981,-0.70312 l 36.915887,-0.48512 0.292858,-3.04688 0.292859,-3.04687 -37.208746,-0.22165 -37.208746,-0.22166 31.863333,-0.25923 31.863334,-0.25923 1.065766,-4.90974 c 0.922213,-4.24842 0.765247,-6.36192 -1.165349,-15.69099 -1.227114,-5.92969 -3.323247,-15.08651 -4.658072,-20.34849 -1.334826,-5.26199 -2.441938,-11.59011 -2.460248,-14.0625 C 68.172698,99.054113 67.548426,94.5 66.803737,91.40625 66.059049,88.3125 65.443189,83.619888 65.43516,80.978222 l -0.0146,-4.803028 -9.85253,-9.519344 c -5.418893,-5.23564 -9.59968,-9.929746 -9.290639,-10.431347 1.218548,-1.977814 4.399713,-0.703424 9.255612,3.707842 6.151196,5.58796 9.167887,7.389661 9.698632,5.792453 0.202239,-0.608616 1.416269,-2.356612 2.697844,-3.884436 2.958406,-3.526852 7.698583,-3.834161 10.311286,-0.668487 0.957504,1.160156 2.565131,2.573801 3.572506,3.141433 1.969153,1.109573 2.881697,5.178283 1.731245,7.71901 -0.51136,1.129318 -0.853945,0.543929 -1.237919,-2.115285 -0.51956,-3.598208 -2.867345,-5.966011 -2.867345,-2.891792 0,0.856069 -1.179494,2.73967 -2.621098,4.185779 -2.35852,2.36589 -2.463779,2.727843 -1.050709,3.613078 2.127077,1.332532 3.634336,10.860941 4.921699,31.113402 1.041358,16.38237 3.511754,37.79532 4.504318,39.04263 0.553668,0.69576 -0.144375,2.77335 -1.982538,5.90062 -1.560401,2.65472 -2.837093,4.99241 -2.837093,5.19486 0,0.20245 1.366823,0.50029 3.037384,0.66187 2.548794,0.24651 3.085829,0.7176 3.338558,2.92859 0.451383,3.9489 -1.262754,5.32499 -6.724021,5.39798 l -4.792107,0.064 -5.368176,6.73282 c -2.952496,3.70306 -7.704753,9.3314 -10.560571,12.50745 l -5.192395,5.77463 14.235966,18.36599 14.235966,18.366 4.913049,0 4.913047,0 0.290062,-3.51562 0.290061,-3.5156 181.222086,-0.23676 c 179.95084,-0.23508 181.23125,-0.24989 182.52962,-2.10937 0.71915,-1.02994 2.32479,-1.87262 3.56807,-1.87262 l 2.26051,0 -0.49387,-16.64063 c -0.27163,-9.15234 -0.70029,-18.00831 -0.95258,-19.67994 -0.52165,-3.4564 -0.88257,-3.59425 -11.74601,-4.48626 -5.41355,-0.44452 -7.56725,-1.03568 -8.81603,-2.41987 -1.54103,-1.70814 -1.54763,-1.93683 -0.0978,-3.39117 1.44981,-1.45434 1.77861,-1.45237 4.87578,0.0292 1.82663,0.87378 4.84401,1.58869 6.7053,1.58869 3.21933,0 3.30883,-0.0835 1.83746,-1.71444 -3.75441,-4.16151 -0.68662,-12.34803 4.62726,-12.34803 l 2.43566,0 -0.6511,-8.25228 c -0.53729,-6.80972 -0.4022,-8.45949 0.77282,-9.43773 1.26326,-1.05168 1.22009,-1.38994 -0.38268,-2.99772 -2.51595,-2.52381 -2.43939,-8.67753 0.14014,-11.26512 1.4582,-1.46275 2.92412,-1.89245 5.84112,-1.71214 2.1419,0.13239 4.68605,-0.1101 5.65367,-0.53885 1.08717,-0.48174 2.46823,-0.33547 3.61485,0.38285 1.33089,0.83375 2.1415,0.87559 2.86686,0.14796 1.43832,-1.44281 4.34216,-1.25575 4.94439,0.31852 0.69829,1.8254 -0.91486,4.59031 -6.60105,11.31408 l -4.83812,5.72096 0.13512,13.56638 0.13512,13.56638 3.55581,4.67148 c 4.99136,6.55744 7.42934,11.91211 6.718,14.75514 -0.32285,1.29035 -2.90679,5.58951 -5.74209,9.55367 l -5.15508,7.20759 3.84523,6.49272 c 2.11489,3.571 3.60759,7.114 3.31711,7.87333 -0.44,1.15019 1.06365,1.42512 9.0096,1.64732 l 9.53774,0.26671 0,3.75 0,3.75 -242.99065,0.0188 c -133.64486,0.0103 -227.910176,-0.20064 -209.478477,-0.46875 z m 452.001837,-3.29996 0,-3.28125 -201.86916,0 -201.869156,0 0,3.28125 0,3.28125 201.869156,0 201.86916,0 0,-3.28125 z m -28.30733,-15.70481 c 0.10854,-6.31548 0.66291,-17.08454 1.23193,-23.93127 0.76563,-9.21256 0.76005,-13.28294 -0.0214,-15.65833 -1.18178,-3.59201 -3.65581,-4.85204 -6.51402,-3.31759 -1.85964,0.99836 -1.88877,1.49317 -1.20353,20.44256 0.38624,10.68069 0.70225,21.94449 0.70225,25.03066 0,5.46417 -0.0715,5.62386 -2.72664,6.09375 -1.49965,0.2654 -2.90152,1.00987 -3.11527,1.6544 -0.28364,0.8553 1.2104,1.17142 5.53038,1.17019 l 5.919,-0.002 0.19735,-11.4827 z m 9.28033,10.07312 c 0.29811,-0.7793 -1.18391,-4.32464 -3.30474,-7.90567 l -3.84523,-6.49272 5.15508,-7.20759 c 2.8353,-3.96416 5.42649,-8.29225 5.75818,-9.61796 0.7192,-2.87444 -3.14043,-10.86982 -7.46512,-15.46435 l -2.81678,-2.99252 -0.18773,-12.65625 c -0.23082,-15.56201 -0.13196,-14.91353 -1.88974,-12.3961 -2.75376,3.94383 -7.62811,1.65267 -6.71195,-3.15491 0.39117,-2.05262 0.26432,-2.23609 -0.80462,-1.16381 -1.00341,1.00654 -1.1456,3.86094 -0.67939,13.63798 0.55965,11.73673 0.67915,12.31695 2.35178,11.419 2.70361,-1.45146 5.45976,-0.0619 6.94374,3.50086 0.98442,2.36341 1.20951,5.50558 0.84267,11.76323 l -0.50055,8.53841 1.94358,-2.47858 c 2.90892,-3.70966 8.45846,-2.88999 8.29073,1.22455 -0.0364,0.89137 -0.38599,0.63768 -0.90446,-0.65625 -1.40163,-3.49796 -5.1362,-2.77473 -7.83751,1.51779 -1.96688,3.12548 -2.31307,4.90841 -2.50293,12.89062 -0.17537,7.37239 0.11985,9.91943 1.44608,12.47675 1.5286,2.94753 1.5414,3.30501 0.15477,4.32211 -2.36911,1.73775 -1.81146,2.30835 2.25598,2.30835 2.49481,0 3.95025,-0.47734 4.30816,-1.41294 z m -6.23977,-2.10269 c -0.0182,-0.38671 -0.63415,-1.75781 -1.36874,-3.04687 l -1.33564,-2.34375 -0.0331,2.42187 c -0.0182,1.33204 0.24725,2.70313 0.58993,3.04688 0.8398,0.84243 2.18862,0.79337 2.14756,-0.0781 z M 58.021598,181.6401 c 2.869822,-3.22237 7.185409,-8.28463 9.590193,-11.24948 L 71.984125,165 l -18.700036,0 -18.700037,0 8.642553,11.21034 c 4.753405,6.1657 8.852834,11.22796 9.109843,11.24949 0.25701,0.0215 2.815327,-2.59735 5.68515,-5.81973 z m 402.726062,-8.7634 c 0,-2.42883 -0.0163,-2.4339 -5.69597,-1.77265 -4.49715,0.52359 -6.47066,0.31273 -9.37679,-1.00185 -2.81753,-1.2745 -3.93815,-1.40687 -4.778,-0.56441 -2.15516,2.1619 1.31878,3.77641 10.03768,4.66495 4.62617,0.47146 8.72663,0.91402 9.11215,0.98348 0.38551,0.0695 0.70093,-0.96983 0.70093,-2.30952 z m 0,-4.99616 c 0,-1.93552 -4.09264,-5.69304 -6.2008,-5.69304 -1.5978,0 -1.71425,4.81021 -0.15434,6.375 0.61682,0.61875 2.29907,1.125 3.73832,1.125 1.96092,0 2.61682,-0.45291 2.61682,-1.80696 z M 82.06432,151.29001 c 1.921556,-3.35596 2.713788,-5.65622 2.179469,-6.32813 C 83.263556,143.72922 80.771226,122.05067 79.757255,105.9375 78.563991,86.975185 76.83068,75.470677 75.166404,75.466653 73.971183,75.463763 60.313518,65.209864 54.94658,60.286017 52.527013,58.066208 49.688228,56.25 48.638169,56.25 c -1.050059,0 -1.909197,0.176235 -1.909197,0.391633 0,0.215398 5.046729,5.347387 11.214953,11.404419 6.168224,6.057031 11.214953,11.551211 11.214953,12.209288 0,3.698917 5.280436,1.713475 5.872624,-2.208105 l 0.389372,-2.578485 0.14003,2.556513 c 0.09734,1.777093 -0.559767,3.016471 -2.155319,4.065184 -2.6549,1.744993 -3.93253,1.214678 -5.443906,-2.25964 -1.064943,-2.448068 -1.086768,-2.426462 -1.392159,1.378265 -0.17064,2.125926 0.342158,6.687261 1.139552,10.1363 0.797393,3.449041 1.449806,7.525262 1.449806,9.058288 0,2.46522 0.208892,2.67517 1.807719,1.81682 0.994245,-0.53376 2.538232,-0.97048 3.431083,-0.97048 1.846635,0 5.041572,2.60072 5.041572,4.1039 0,0.55044 -0.654689,0.0632 -1.454864,-1.0828 -1.641317,-2.35063 -4.819687,-2.70329 -7.387632,-0.81969 -1.662743,1.21962 -1.633243,1.62199 0.841984,11.48437 5.246727,20.90526 7.179226,32.1609 6.15614,35.85583 -2.123681,7.66976 0.21399,7.93045 4.46944,0.4984 z m 392.23474,-14.57883 c 9.1532,-10.64182 10.79863,-13.89868 7.02189,-13.89868 -1.21308,0 -2.29862,1.06117 -3.13181,3.06152 -1.35136,3.24435 -6.49236,8.24027 -11.5753,11.24865 -2.00747,1.18814 -3.06244,2.5342 -3.06244,3.90743 0,5.65685 3.31214,4.32587 10.74766,-4.31892 z m -7.18552,-2.35666 c 0.34978,-2.46512 -2.81878,-5.91702 -5.4313,-5.91702 -1.44366,0 -1.86916,0.625 -1.86916,2.74553 0,1.51005 0.68326,3.43094 1.51837,4.26865 2.08958,2.09611 5.41864,1.46442 5.78209,-1.09716 z m 9.52197,-7.35378 c 0,-1.69548 -2.73761,-3.70188 -3.67769,-2.69538 -0.43709,0.46799 -0.57897,2.24145 -0.31527,3.94102 0.45894,2.95797 0.55459,3.02193 2.23621,1.49533 0.96621,-0.87715 1.75675,-2.11058 1.75675,-2.74097 z M 71.967036,64.223468 c -2.808538,-2.998893 -3.383606,-2.952009 -5.120606,0.417476 -1.838902,3.567157 -1.916812,3.298667 1.611514,5.553623 l 3.037383,1.941195 1.335554,-2.781912 c 1.241555,-2.586115 1.180755,-2.947202 -0.863845,-5.130382 z M 440.64046,162.25427 c -2.04852,-2.02579 -11.19686,-9.54481 -20.32967,-16.70895 -13.01689,-10.21098 -17.76281,-13.39154 -21.96261,-14.71862 -2.94664,-0.9311 -5.88323,-1.89471 -6.52575,-2.14135 -0.85649,-0.32878 -1.16823,1.09174 -1.16823,5.3234 0,6.12834 -1.68171,10.67124 -4.32731,11.68963 -2.53285,0.97498 -3.51511,-0.79696 -2.33085,-4.20475 0.57787,-1.66288 1.05069,-5.19802 1.05069,-7.85587 0,-4.24848 -0.37743,-5.19941 -3.12328,-7.86912 -2.75034,-2.67405 -3.2662,-2.86393 -4.32005,-1.59015 -1.81024,2.18803 -8.0247,1.86764 -10.42217,-0.53731 -1.63046,-1.63556 -1.90064,-2.78761 -1.53905,-6.5625 0.24122,-2.51827 0.212,-4.57868 -0.065,-4.57868 -0.27693,0 -1.47522,0.91572 -2.66287,2.03495 -2.83487,2.67155 -4.02508,1.41604 -1.35767,-1.43217 1.73405,-1.85157 3.044,-2.21909 8.22515,-2.30765 7.15295,-0.12228 8.98699,0.63049 10.50748,4.31274 0.93572,2.26609 1.53362,2.61664 3.87505,2.27191 3.58818,-0.52827 5.84683,1.32719 5.1254,4.21052 -0.86872,3.47211 0.95996,5.62556 6.26206,7.3742 2.7035,0.89161 5.37095,1.78871 5.92769,1.99356 0.62741,0.23086 0.86543,-0.63103 0.62607,-2.26703 -0.41419,-2.83084 1.63861,-5.41887 4.77193,-6.01612 1.0782,-0.20552 -1.04928,-1.55061 -5.60747,-3.54532 -5.82654,-2.54975 -8.62908,-3.22804 -13.55742,-3.28125 -3.41693,-0.0369 -5.98788,-0.43662 -5.71324,-0.88827 1.04198,-1.71349 11.98737,0.13591 19.40035,3.278 6.45426,2.73573 8.88182,4.51184 17.78451,13.01193 5.6705,5.41406 13.67534,13.03854 17.78853,16.94329 7.51113,7.13046 10.78397,12.76773 9.44487,16.26826 -0.83309,2.17777 -1.66393,1.86033 -5.77721,-2.20728 z m 5.15393,0.98522 c 0,-3.8853 -3.05535,-8.61273 -9.53485,-14.75297 -3.74657,-3.5504 -11.07431,-10.59904 -16.28385,-15.66365 -8.54046,-8.30286 -9.7723,-9.17868 -12.52674,-8.90625 -3.78586,0.37443 -5.37895,2.60913 -4.14204,5.81019 0.51548,1.33401 8.27125,8.11659 18.18842,15.90614 9.50934,7.46921 18.52494,14.88239 20.03466,16.47372 3.15747,3.32815 4.2644,3.6222 4.2644,1.13282 z m -58.47937,-19.3988 c 2.14809,-2.15481 2.63599,-5.10286 2.0328,-12.28303 -0.29577,-3.52077 -0.64852,-7.87797 -0.78391,-9.68266 -0.21215,-2.82807 -0.60891,-3.32298 -2.87276,-3.58337 -5.62767,-0.6473 -6.93131,3.56766 -2.43134,7.8611 2.76972,2.64259 2.86781,2.999 2.43522,8.84727 -0.24792,3.35156 -0.75455,7.04297 -1.12583,8.20312 -0.79325,2.47872 0.59018,2.79994 2.74582,0.63757 z m -8.87818,-21.62337 c 2.72242,-3.47181 2.45292,-4.09232 -1.77733,-4.09232 -3.16788,0 -3.92408,0.40691 -5.14018,2.76594 -1.92131,3.72703 -1.88876,3.79656 1.77732,3.79656 2.34732,0 3.72075,-0.66002 5.14019,-2.47018 z m -99.11189,8.42578 c -0.96634,-1.16801 -1.20332,-4.31239 -0.97234,-12.90196 0.30968,-11.51681 -1.23499,-20.985356 -5.02577,-30.806986 -0.75033,-1.944028 -1.36422,-6.41757 -1.36422,-9.941203 0,-3.523634 -0.91731,-14.378378 -2.03846,-24.121654 -2.56105,-22.256447 -2.6141,-26.866536 -0.3382,-29.389235 0.95248,-1.055759 2.48386,-1.919562 3.40309,-1.919562 2.26392,0 4.58036,3.539977 4.58414,7.005474 0.002,1.561052 1.68255,12.541401 3.73522,24.400776 2.05267,11.859375 3.73352,23.921927 3.73522,26.805671 0.002,3.875364 0.61593,6.321059 2.35226,9.375 1.29203,2.272506 3.03807,5.71386 3.88008,7.647454 1.7115,3.930295 1.61475,3.903755 9.14478,2.507409 6.78498,-1.25819 14.14028,-0.322753 16.56177,2.106306 2.96809,2.97736 1.69117,4.09654 -4.25501,3.72938 -5.48701,-0.3388 -17.01664,1.42401 -18.97339,2.90093 -0.81705,0.6167 -0.63407,1.30766 0.70093,2.64683 2.58049,2.58855 2.48287,9.57141 -0.17101,12.23359 -1.62841,1.6335 -2.78032,1.90645 -6.52302,1.54571 -3.47071,-0.33454 -4.8818,-0.0652 -5.96832,1.13913 -1.50509,1.66831 -1.03833,2.83134 1.13632,2.83134 0.90486,0 1.13157,-0.65135 0.73419,-2.10937 -0.53313,-1.95615 -0.49426,-1.97922 0.53503,-0.31769 0.90157,1.45537 0.82224,2.00272 -0.42266,2.91585 -0.84293,0.61829 -1.53259,1.605 -1.53259,2.19268 0,1.54616 -1.43934,1.31143 -2.91804,-0.47587 z m 2.40253,-14.38135 c 0.0949,-3.70909 -0.28093,-6.07022 -1.07099,-6.72796 -0.98335,-0.81866 -1.21724,0.48582 -1.21724,6.78892 0,5.86406 0.26606,7.5354 1.07099,6.72795 0.58905,-0.59088 1.13681,-3.6459 1.21724,-6.78891 z m 13.59962,-1.38148 c 0,-2.4384 -3.44415,-6.38163 -5.0979,-5.83661 -2.0738,0.68347 -1.52216,4.1962 0.96746,6.16066 3.25653,2.56959 4.13044,2.50103 4.13044,-0.32405 z m -6.29614,-6.07904 c 0.39225,-0.35109 0.22179,-2.05241 -0.37883,-3.78073 -0.97434,-2.80371 -0.87936,-3.31512 0.88126,-4.74524 l 1.97328,-1.60286 -1.8281,-3.3987 c -1.00546,-1.869286 -2.66923,-4.964465 -3.69726,-6.878177 -1.02804,-1.913712 -1.86916,-4.175523 -1.86916,-5.026245 0,-1.150064 -0.60764,-1.430248 -2.3692,-1.092452 -2.97882,0.571217 -5.69817,-1.778839 -6.63437,-5.733412 -0.38407,-1.622316 -0.62934,-3.232509 -0.54505,-3.578207 0.0843,-0.345699 -0.66987,-8.965847 -1.6759,-19.155886 -1.00604,-10.190039 -1.62573,-18.731413 -1.37709,-18.980832 0.24865,-0.249419 0.47515,0.144168 0.50336,0.874636 0.37873,9.808138 4.54248,43.227864 5.53526,44.42782 1.94975,2.356655 6.02045,1.483052 6.43473,-1.380945 0.30877,-2.134554 -6.68355,-47.924579 -8.16012,-53.4375 -0.75139,-2.805387 -3.94666,-3.562137 -5.76429,-1.365182 -1.76557,2.134029 -1.58164,8.24839 0.88711,29.490182 1.16857,10.054687 2.08088,20.897829 2.02735,24.095872 -0.0536,3.198041 0.52122,7.416791 1.27719,9.375 0.75598,1.958207 2.26185,7.146315 3.34637,11.529128 2.61645,10.57367 3.76699,12.30511 7.68839,11.57023 1.66752,-0.3125 3.35281,-0.85542 3.74507,-1.20651 z m 4.941,-1.78202 c 1.6432,-1.4682 14.26853,-3.23817 19.04791,-2.67035 2.60543,0.30954 4.73714,0.19093 4.73714,-0.26357 0,-3.53053 -8.70547,-5.419274 -17.55701,-3.80917 -3.13478,0.57022 -6.77136,0.76693 -8.08128,0.43713 -2.90296,-0.730872 -3.82559,0.9918 -2.46037,4.59383 0.95311,2.51468 2.65803,3.19139 4.31361,1.71213 z M 92.468127,129.51864 c -2.115261,-1.71818 -2.119061,-1.76273 -0.499713,-5.85937 1.909333,-4.83023 15.555236,-26.881164 23.047956,-37.244051 2.86182,-3.958058 7.87752,-11.084127 11.146,-15.835708 l 5.94271,-8.639239 -1.8002,-3.404167 c -0.99011,-1.872292 -4.46442,-5.913864 -7.72069,-8.981273 -4.87781,-4.594896 -5.72177,-5.817305 -4.79212,-6.94097 0.62062,-0.750124 1.76439,-1.363862 2.54171,-1.363862 0.77733,0 5.352,3.874593 10.16594,8.610206 8.1075,7.975588 8.75262,8.419415 8.75262,6.021635 0,-3.155866 4.57847,-8.069341 7.51917,-8.069341 1.72356,0 1.86712,-0.22769 0.88894,-1.409996 -0.6416,-0.775498 -2.48048,-1.776314 -4.08639,-2.224036 -2.53842,-0.707696 -2.68705,-0.911387 -1.13778,-1.559223 2.72497,-1.139458 6.25773,1.382156 8.88766,6.343834 2.88895,5.45033 2.11788,8.581434 -2.92028,11.858572 l -3.42509,2.227901 1.9836,2.691347 c 3.03233,4.114271 3.22259,11.884495 0.50216,20.509101 -1.76534,5.596657 -2.59098,7.03125 -4.0467,7.03125 -2.08302,0 -2.12291,-1.181142 -0.35433,-10.493608 1.70795,-8.993235 0.75544,-9.841304 -4.51852,-4.023069 -2.43795,2.689539 -4.85319,5.79965 -5.36721,6.911359 -1.35781,2.936648 -11.97308,16.748318 -19.44334,25.297998 -3.54661,4.0591 -7.00187,8.69973 -7.67832,10.3125 -1.31097,3.12555 -5.21029,7.18284 -8.564565,8.91152 -2.612831,1.34657 -2.512458,1.36014 -5.023218,-0.67931 z m 5.023218,-0.26079 c 3.339505,-1.72533 6.330325,-4.84792 7.635045,-7.97142 0.67367,-1.61277 4.12939,-6.2534 7.67939,-10.3125 9.58286,-10.95716 16.16618,-20.054961 16.16618,-22.340807 0,-1.113615 -0.58125,-2.822144 -1.29166,-3.79673 -1.17886,-1.617231 -1.62117,-1.662888 -5.06486,-0.522816 -3.50154,1.159226 -4.59376,2.522564 -15.17058,18.936543 -6.26856,9.72806 -11.58429,17.68738 -11.81273,17.68738 -0.53771,0 -0.849224,0.50318 12.09589,-19.53784 6.1084,-9.456751 10.9317,-17.369129 10.71843,-17.583064 -1.00247,-1.005605 -22.301843,32.112524 -25.307025,39.349584 -1.852952,4.46226 -1.856425,4.60343 -0.144174,5.85938 2.112926,1.54982 1.961076,1.54199 4.496094,0.23229 z M 146.59578,86.015625 c 2.22329,-7.524599 2.5283,-12.972372 0.97634,-17.438228 -1.16087,-3.340492 -3.11323,-3.829391 -4.54859,-1.139029 -1.21273,2.273094 -1.26939,5.984475 -0.0801,5.247157 0.48805,-0.302572 1.1516,0.862774 1.47455,2.589658 0.52346,2.798988 -5e-5,6.792879 -1.96079,14.959192 -0.4623,1.925437 -0.27099,2.578125 0.75566,2.578125 0.89877,0 2.06992,-2.353026 3.38293,-6.796875 z m -14.82008,0.683234 c 0,-0.723516 2.2567,-3.852518 5.01489,-6.953339 4.02645,-4.526624 4.92331,-6.118457 4.55022,-8.076206 -0.29798,-1.563639 0.20991,-3.353621 1.41579,-4.989754 l 1.88046,-2.551401 -3.67972,-3.098965 c -3.61014,-3.040369 -3.71599,-3.066103 -5.59801,-1.360955 -1.05506,0.955906 -5.02664,6.235726 -8.82572,11.732935 -6.89116,9.97137 -8.54846,13.889032 -5.27193,12.462226 3.76611,-1.640002 6.27134,-0.972639 7.71028,2.053936 1.38908,2.921676 2.80374,3.316004 2.80374,0.781523 z m 15.93426,-26.254184 c 3.40806,-1.767879 3.4921,-3.478806 0.29484,-6.001631 -2.97617,-2.348375 -3.88876,-2.40686 -6.10878,-0.391493 -1.95239,1.772414 -2.23919,5.041709 -0.58761,6.698449 1.48953,1.494185 3.07864,1.418392 6.40155,-0.305325 z M 129.89981,50.149458 c -7.10243,-7.172497 -9.75303,-8.859197 -11.37117,-7.236 -0.58944,0.591286 0.96652,2.685452 4.42271,5.952503 2.93263,2.772159 6.36751,6.676546 7.63305,8.676416 l 2.30099,3.636129 1.99058,-1.996796 1.99057,-1.996797 -6.96673,-7.035455 z m 213.76976,79.594082 c -0.31195,-0.31293 -0.32004,-2.66225 -0.018,-5.22069 0.56141,-4.75502 -1.21823,-17.22812 -2.7431,-19.22575 -0.62722,-0.82168 -1.31488,-0.63945 -2.65327,0.70313 -2.58049,2.58855 -9.5416,2.49063 -12.19549,-0.17155 -1.6284,-1.6335 -1.9005,-2.78901 -1.54088,-6.543408 0.33349,-3.481556 0.065,-4.89705 -1.13558,-5.98697 -1.66314,-1.509799 -2.82255,-1.041572 -2.82255,1.13987 0,0.907687 0.64931,1.135106 2.1028,0.73649 1.95005,-0.534796 1.97305,-0.495806 0.31669,0.5367 -1.45083,0.904388 -1.99647,0.824804 -2.90676,-0.423984 -0.61637,-0.845559 -1.6,-1.537378 -2.18586,-1.537378 -1.54133,0 -1.30733,-1.443832 0.4744,-2.927156 1.16437,-0.969363 4.29895,-1.207077 12.86176,-0.975385 11.48094,0.310651 20.91998,-1.23885 30.71102,-5.041474 1.93797,-0.752667 6.39757,-1.368485 9.91024,-1.368485 3.51265,0 14.33358,-0.920174 24.0465,-2.044832 22.18711,-2.569042 26.78284,-2.622257 29.29768,-0.339246 1.05247,0.955449 1.91358,2.491622 1.91358,3.413719 0,2.270996 -3.52895,4.594673 -6.98365,4.598463 -1.55619,0.0017 -12.50233,1.68781 -24.32476,3.746896 -11.82243,2.059088 -23.8474,3.745191 -26.72217,3.746897 -3.86329,0.0019 -6.30136,0.61785 -9.34579,2.359603 -2.26542,1.29608 -5.69606,3.04757 -7.62363,3.89221 -3.91804,1.71684 -3.8916,1.61979 -2.4996,9.17335 0.55279,2.99966 0.71731,7.55274 0.36561,10.11793 -0.76385,5.5712 -4.20341,9.74342 -6.29924,7.64105 z m 3.3689,-1.75043 c 2.00292,-2.00919 2.75946,-9.51046 1.66115,-16.47077 -0.52539,-3.32948 -0.86829,-7.10828 -0.76201,-8.39734 0.1687,-2.0462 -0.15207,-2.31873 -2.52658,-2.14669 -3.74927,0.27165 -4.8731,1.59214 -3.60607,4.23712 1.87031,3.90437 3.32059,13.8059 2.78484,19.013 -0.5436,5.28346 0.0401,6.18081 2.44867,3.76468 z m -8.74302,-23.18506 c 2.25454,-2.42754 2.03245,-3.91472 -0.64398,-4.3122 -1.80957,-0.26875 -5.87577,3.58453 -5.87577,5.56808 0,1.64395 4.66028,0.74626 6.51975,-1.25588 z m 19.39506,-5.844856 c 1.95526,-1.297978 4.84911,-2.619581 6.43078,-2.936906 2.44131,-0.489788 2.80986,-0.922716 2.43959,-2.865718 -0.55169,-2.895022 1.84545,-5.641352 5.73229,-6.567274 1.61726,-0.385265 3.22244,-0.631302 3.56706,-0.546749 0.34462,0.08455 8.93792,-0.671964 19.09621,-1.681146 10.1583,-1.009183 18.67306,-1.630808 18.9217,-1.381389 0.24864,0.249418 -0.14372,0.476638 -0.87191,0.504931 -9.77759,0.379909 -43.0932,4.556681 -44.28942,5.552556 -2.34931,1.955849 -1.47843,6.039264 1.37665,6.454839 2.1279,0.30974 47.77528,-6.70443 53.27102,-8.185613 2.79665,-0.753737 3.55104,-3.958997 1.36093,-5.782309 -2.12737,-1.771086 -8.22269,-1.586583 -29.39831,0.889879 -10.02336,1.172221 -20.83273,2.087381 -24.0208,2.033692 -3.18809,-0.05369 -7.39369,0.522841 -9.3458,1.281181 -1.95211,0.75834 -7.12405,2.268912 -11.49321,3.356826 -10.54073,2.624624 -12.26678,3.778761 -11.53419,7.712412 0.7864,4.222604 1.3889,4.629624 4.9893,3.370604 2.8015,-0.97966 3.31223,-0.890204 4.61391,0.80805 1.67853,2.18994 3.38085,1.8147 9.1542,-2.017866 z m -18.27778,-6.874087 c 0.90763,-0.910476 -0.48059,-1.151607 -6.62997,-1.151607 -6.11655,0 -7.57084,0.250322 -6.80822,1.171875 1.26977,1.534386 11.90437,1.518346 13.43819,-0.02027 z M 233.70058,88.661095 c -0.86375,-1.044006 -0.78604,-1.962948 0.35285,-4.172193 2.34648,-4.551773 1.9591,-5.70217 -1.71854,-5.103506 -2.69294,0.438369 -3.42402,0.142601 -4.78039,-1.93394 -1.11158,-1.701784 -2.49723,-2.494412 -4.53115,-2.591924 -2.82486,-0.135432 -2.83775,-0.154469 -0.3598,-0.53102 1.41355,-0.214805 2.57009,-0.498317 2.57009,-0.630028 0,-0.131711 -0.68323,-2.250912 -1.51829,-4.709337 -1.3701,-4.033604 -1.37717,-4.611416 -0.0724,-5.920202 2.29893,-2.306112 4.09924,-0.792513 6.31808,5.311876 1.69309,4.658099 2.44477,5.681679 4.17236,5.681679 3.78093,0 3.98663,-8.850894 0.27747,-11.938843 -0.71385,-0.594295 -3.80673,-1.235469 -6.87306,-1.42483 l -5.57515,-0.344294 5.78596,-0.177267 c 3.18228,-0.0975 6.04589,-0.599141 6.36357,-1.114766 1.17297,-1.903843 5.89277,-0.996578 7.85883,1.510667 1.61926,2.064991 2.69733,2.460953 6.88794,2.529866 3.27213,0.05381 5.74193,-0.461917 7.23456,-1.510666 2.53767,-1.783002 5.18465,-2.069232 6.05605,-0.654867 0.31768,0.515625 -0.19476,0.9375 -1.13876,0.9375 -0.944,0 -2.6007,0.621342 -3.68154,1.380761 -1.63969,1.152073 -1.88822,2.065564 -1.50059,5.515426 0.66941,5.957506 -1.83941,8.330821 -8.43523,7.979648 -4.65459,-0.247818 -4.82996,-0.165919 -5.37939,2.512123 -0.65578,3.196398 -2.38285,6.743917 -4.4285,9.096417 -1.7306,1.990202 -2.44227,2.045473 -3.88494,0.30172 z m 5.26844,-3.902922 c 1.28465,-2.313765 2.46638,-6.930328 3.15723,-12.33408 0.97835,-7.652575 0.92833,-8.905346 -0.43916,-10.998916 -1.06583,-1.631735 -2.38693,-2.362677 -4.27031,-2.362677 -3.31339,0 -4.27172,1.229317 -2.2624,2.902121 0.81892,0.681764 1.8598,2.21806 2.31308,3.41399 1.03303,2.725584 -0.66412,15.588857 -2.53579,19.219585 -1.41647,2.747711 -0.97247,4.821176 0.90164,4.210549 0.59542,-0.194002 2.00648,-2.016759 3.13571,-4.050572 z m -4.62323,-6.599066 c 2.91762,-0.784334 2.63717,-2.971906 -0.42705,-3.331211 -2.15989,-0.253263 -2.85798,-1.160764 -4.77343,-6.205341 -1.65212,-4.351044 -2.64822,-5.824222 -3.77855,-5.588261 -2.13163,0.444986 -1.708,4.300459 1.16397,10.59326 2.38484,5.225473 3.28727,5.748746 7.81506,4.531553 z m 15.18692,-4.725912 c 0,-2.670625 -2.33726,-5.933195 -4.25047,-5.933195 -1.3502,0 -2.29159,2.085495 -2.29159,5.076676 0,2.760358 0.69574,3.360824 3.89409,3.360824 2.24672,0 2.64797,-0.379479 2.64797,-2.504305 z m -92.28972,1.126078 c -5.0216,-3.679011 -0.57065,-9.852306 7.13538,-9.896522 2.37227,-0.01361 12.30387,-1.112966 22.07023,-2.44301 23.78463,-3.239142 25.50173,-3.369514 30.37383,-2.306166 3.6992,0.807361 3.41787,0.853005 -2.33645,0.379069 -6.44666,-0.530958 -6.51821,-0.512022 -4.90654,1.298715 1.7737,1.992785 2.20117,6.384797 0.71133,7.30845 -1.94685,1.206973 1.90453,5.047588 5.43682,5.421641 1.88721,0.199846 -6.28214,0.434275 -18.15411,0.520953 -11.87197,0.08668 -25.32991,0.405067 -29.90655,0.70753 -6.84839,0.4526 -8.6933,0.277265 -10.42394,-0.99066 z m 53.30337,-0.815848 c 0.40331,-0.09422 0.19303,-0.874089 -0.46729,-1.733044 -1.08984,-1.417697 -3.0107,-1.484808 -20.82673,-0.727644 -10.7944,0.458752 -21.93926,1.023666 -24.76636,1.255365 -3.25906,0.267102 -4.42032,0.137978 -3.17314,-0.352829 1.08188,-0.425755 10.75478,-1.073069 21.49533,-1.438474 25.40206,-0.864207 26.91661,-1.115035 27.30861,-4.522617 0.39177,-3.405634 -2.30998,-6.558172 -4.93985,-5.764059 -3.13151,0.945589 -36.14607,5.113395 -40.71664,5.140128 -2.32723,0.01361 -5.16601,0.681484 -6.30841,1.484159 -2.44109,1.715144 -2.74825,5.570665 -0.54245,6.808948 1.22253,0.6863 49.94815,0.548293 52.93693,-0.149933 z M 331.02804,50.4375 c -1.52637,-1.531131 -1.40953,-2.625 0.28037,-2.625 0.77103,0 1.40187,0.421875 1.40187,0.9375 0,0.515625 0.63084,0.9375 1.40187,0.9375 1.72,0 1.91738,-4.289925 0.23364,-5.078125 -0.93458,-0.4375 -0.93458,-0.65625 0,-1.09375 1.63851,-0.767023 1.46081,-3.203125 -0.23364,-3.203125 -0.77103,0 -1.40187,0.421875 -1.40187,0.9375 0,0.515625 -0.63084,0.9375 -1.40187,0.9375 -1.6899,0 -1.80674,-1.093869 -0.28037,-2.625 1.46445,-1.46903 4.95112,-1.442152 6.0806,0.04687 1.24714,1.644117 1.33102,9.269904 0.1181,10.735957 -1.2635,1.52718 -4.71698,1.578529 -6.1987,0.09217 z m 10.6275,-0.348215 C 340.8281,49.259259 340.18691,47.037337 340.18691,45 c 0,-5.607098 4.55372,-8.689154 7.5275,-5.094772 1.05906,1.280069 0.87711,1.4299 -1.42305,1.171875 -1.50523,-0.168854 -2.81326,0.207465 -3.04713,0.87666 -0.26241,0.750872 0.12671,0.966002 1.0821,0.598242 2.02938,-0.781181 4.2718,1.267155 4.2718,3.902072 0,2.391588 -2.23668,5.108423 -4.20561,5.108423 -0.6976,0 -1.92924,-0.662947 -2.73698,-1.473215 z M 345.79439,46.875 c 0,-0.970388 -0.42353,-2.026918 -0.94118,-2.347842 -1.20112,-0.744655 -2.23819,1.888665 -1.50186,3.813513 0.71862,1.878534 2.44304,0.843988 2.44304,-1.465671 z m 6.14152,3.214285 c -3.10372,-3.11342 -1.09807,-11.651785 2.73699,-11.651785 2.34878,0 4.2056,2.897416 4.2056,6.5625 0,3.665084 -1.85682,6.5625 -4.2056,6.5625 -0.6976,0 -1.92925,-0.662947 -2.73699,-1.473215 z m 3.96897,-5.668867 c -0.16357,-2.001543 -0.71797,-3.639168 -1.23198,-3.639168 -1.09177,0 -1.79235,5.595759 -0.9698,7.746013 0.99995,2.613955 2.5194,-0.220204 2.20178,-4.106845 z m 5.2059,-1.698415 c -0.93053,-2.432504 0.37372,-4.442986 2.67009,-4.115881 1.54461,0.220021 2.10698,0.925695 2.10698,2.643878 0,1.718183 -0.56237,2.423857 -2.10698,2.643878 -1.26382,0.180024 -2.33233,-0.288936 -2.67009,-1.171875 z M 364.48598,41.25 c 0,-0.515625 -0.42056,-0.9375 -0.93458,-0.9375 -0.51402,0 -0.93458,0.421875 -0.93458,0.9375 0,0.515625 0.42056,0.9375 0.93458,0.9375 0.51402,0 0.93458,-0.421875 0.93458,-0.9375 z"
       id="path3408"
       inkscape:connector-curvature="0" />
  </g>
</svg>
