<?xml version="1.0" encoding="UTF-8" standalone="no"?>
<!-- Created with Inkscape (http://www.inkscape.org/) -->

<svg
   xmlns:dc="http://purl.org/dc/elements/1.1/"
   xmlns:cc="http://creativecommons.org/ns#"
   xmlns:rdf="http://www.w3.org/1999/02/22-rdf-syntax-ns#"
   xmlns:svg="http://www.w3.org/2000/svg"
   xmlns="http://www.w3.org/2000/svg"
   xmlns:sodipodi="http://sodipodi.sourceforge.net/DTD/sodipodi-0.dtd"
   xmlns:inkscape="http://www.inkscape.org/namespaces/inkscape"
   id="svg3336"
   version="1.1"
   inkscape:version="0.91 r13725"
   width="700"
   height="350"
   viewBox="0 0 700.00001 350"
   sodipodi:docname="bb930301.svg">
  <metadata
     id="metadata3342">
    <rdf:RDF>
      <cc:Work
         rdf:about="">
        <dc:format>image/svg+xml</dc:format>
        <dc:type
           rdf:resource="http://purl.org/dc/dcmitype/StillImage" />
        <dc:title></dc:title>
      </cc:Work>
    </rdf:RDF>
  </metadata>
  <defs
     id="defs3340" />
  <sodipodi:namedview
     pagecolor="#b1b1b1"
     bordercolor="#666666"
     borderopacity="1"
     objecttolerance="10"
     gridtolerance="10"
     guidetolerance="10"
     inkscape:pageopacity="0"
     inkscape:pageshadow="2"
     inkscape:window-width="1663"
     inkscape:window-height="939"
     id="namedview3338"
     showgrid="false"
     inkscape:zoom="1.4142136"
     inkscape:cx="307.19423"
     inkscape:cy="92.043894"
     inkscape:window-x="0"
     inkscape:window-y="0"
     inkscape:window-maximized="0"
     inkscape:current-layer="svg3336" />
  <g
     id="g4471"
     transform="translate(-13.993176,64.899351)">
    <g
       transform="matrix(0.74305135,0.58052318,-0.58052318,0.74305135,212.23681,-231.82257)"
       id="g4442">
      <path
         inkscape:connector-curvature="0"
         style="fill:#000000"
         d="m 445.67188,14.066406 c -1.0313,0.13162 -1.62535,2.616181 -1.10547,6.244141 0.58094,4.05414 1.36234,5.22178 7.53906,11.25 5.61457,5.47963 6.65321,6.925594 5.59961,7.802734 -0.71131,0.59218 -1.42301,2.15325 -1.58203,3.46875 -0.23068,1.90836 -1.23451,2.752611 -4.96289,4.181641 -6.43222,2.46538 -8.87891,5.428506 -8.87891,10.753906 0,3.87301 0.46174,4.723662 5.375,9.919922 5.78363,6.11675 9.54008,8.240234 14.58008,8.240234 2.66058,0 3.26735,0.389371 3.63867,2.337891 0.25346,1.33004 -0.10298,2.794414 -0.82617,3.396484 -2.73232,2.27471 -0.38023,7.980423 3.79101,9.195313 3.89679,1.13496 4.28321,1.146889 4.28321,0.130859 0,-0.48262 -1.66004,-1.814824 -3.68946,-2.958984 -3.44607,-1.94286 -3.60183,-2.207996 -2.34375,-4.009766 1.05504,-1.511 2.17628,-1.869034 5.16797,-1.652343 5.16441,0.374039 7.40821,-1.712686 7.40821,-6.890626 0,-5.279939 -3.12198,-8.372453 -7.88672,-7.814453 -1.94532,0.22782 -3.33099,-0.0189 -3.33399,-0.59375 -0.003,-0.54099 -1.48968,-3.887647 -3.30469,-7.435547 -1.81499,-3.547899 -3.18015,-6.554873 -3.0332,-6.683593 0.14696,-0.12872 2.45596,-1.574008 5.12891,-3.210938 2.67294,-1.63693 5.11272,-3.776816 5.42187,-4.753906 0.90363,-2.85599 -1.86595,-6.96319 -8.63476,-12.8125 -7.8814,-6.81075 -15.32999,-14.248391 -16.73828,-16.712891 -0.58591,-1.02534 -1.14451,-1.452418 -1.61328,-1.392578 z m 11.0371,41.564453 c 0.7046,0.0323 1.48271,1.195112 2.25586,3.419922 1.18239,3.40241 1.05525,3.442693 -1.66406,0.539063 -1.17149,-1.25089 -1.84639,-2.732712 -1.5,-3.294922 0.28265,-0.45877 0.58793,-0.678733 0.9082,-0.664063 z"
         id="path4394" />
      <path
         inkscape:connector-curvature="0"
         style="fill:#fefefe"
         d="m 470.55364,75.785841 c -3.28481,-2.0611 -3.54982,-2.77102 -2.06993,-5.54488 0.65735,-1.2321 1.95901,-1.81337 4.06077,-1.81337 3.89108,0 6.43487,2.63758 6.02314,6.24522 -0.38625,3.38433 -3.66779,3.84009 -8.01398,1.11303 z"
         id="path4411" />
      <path
         inkscape:connector-curvature="0"
         style="fill:#fefefe"
         d="m 462.44883,71.071471 c -0.21238,-0.6807 -0.59009,-3.02343 -0.83933,-5.20607 -0.24924,-2.18263 -1.35446,-5.83606 -2.45604,-8.11872 -1.6036,-3.32294 -1.94778,-5.52207 -1.72658,-11.03157 0.24749,-6.16389 0.47115,-6.88127 2.14545,-6.88127 1.72121,0 1.84417,0.51943 1.55344,6.5625 -0.28947,6.01678 -0.0314,7.12382 3.10396,13.31252 3.90209,7.70221 4.14006,11.81183 0.71225,12.30011 -1.15884,0.16507 -2.28075,-0.25681 -2.49315,-0.9375 z"
         id="path4409" />
      <path
         inkscape:connector-curvature="0"
         style="fill:#fefefe"
         d="m 444.76391,58.275651 c -3.31052,-3.66952 -0.86147,-7.51815 6.63085,-10.42021 l 4.90654,-1.90049 0,4.49842 c 0,3.70486 -0.46241,4.94283 -2.62123,7.01757 -3.0411,2.92266 -6.70693,3.25351 -8.91616,0.80471 z"
         id="path4407" />
      <path
         inkscape:connector-curvature="0"
         style="fill:#fefefe"
         d="m 462.15875,46.161961 0.48143,-5.39062 -8.25574,-7.96875 c -7.57819,-7.31476 -8.30775,-8.33777 -8.8895,-12.46518 -0.58061,-4.11927 0.23434,-7.3497 1.18347,-4.69124 0.8729,2.44494 4.58547,6.29598 13.45101,13.95273 9.35094,8.07596 12.57565,12.28371 11.65175,15.20374 -0.43704,1.38128 -8.03986,6.74995 -9.55892,6.74995 -0.29971,0 -0.32828,-2.42578 -0.0635,-5.39063 z"
         id="path3416" />
      <path
         inkscape:connector-curvature="0"
         style="fill:#007f7f"
         d="m 455.83401,73.676741 c -3.9228,-1.73486 -12.61682,-11.22753 -12.61682,-13.77583 0,-1.95222 0.10223,-1.98361 1.7091,-0.52487 2.19313,1.99096 5.61261,1.9828 7.81728,-0.0186 1.63474,-1.48404 1.90798,-1.39679 4.98013,1.59016 2.52684,2.45675 3.2505,3.91253 3.2505,6.53894 0,3.73583 1.33851,5.62859 3.98039,5.62859 0.95557,0 1.47748,0.42188 1.1598,0.9375 -0.81504,1.32288 -6.94613,1.09873 -10.28038,-0.37585 z"
         id="path3412" />
    </g>
    <path
       sodipodi:nodetypes="ccsccsssssssssssscsssssssssssccssscssccsscscscccccccccccsccccsssssccsccccscccscccccsccsccscsccsccccscccsssscsssscccccsssssssccccssccc"
       inkscape:connector-curvature="0"
       id="path4372"
       d="m 646.64648,96.574219 c -0.15791,-0.004 -0.31465,0.001 -0.46875,0.01563 -0.73968,0.0692 -1.40664,0.349134 -1.72461,0.865234 -0.34974,0.56766 -1.38715,0.522173 -2.79882,-0.123047 -1.2718,-0.58127 -2.97853,-0.699404 -3.93946,-0.271484 -0.93231,0.41514 -3.44599,0.646062 -5.58789,0.513672 -2.917,-0.18031 -4.38359,0.25014 -5.84179,1.71289 -2.55879,2.566786 -2.65654,8.740006 -0.17774,11.226566 1.64089,1.64601 1.65855,1.88807 0.23438,3.31836 -1.62366,1.63063 -2.02293,8.94946 -0.75782,13.89258 0.59003,2.30536 0.40987,2.57812 -1.69531,2.57812 -3.51858,0 -6.09179,3.10603 -6.09179,7.35352 0,4.28113 2.49227,7.06827 5.76367,6.44336 2.10699,-0.40249 2.10035,-0.42152 -0.20313,-0.54492 -3.13526,-0.16796 -4.62695,-1.7795 -4.62695,-5.00196 0,-3.13878 1.59752,-3.37916 4.93945,-0.74218 2.07835,1.63994 2.39066,2.61061 2.41406,7.50586 0.0253,5.30149 -0.0904,5.59833 -2.02734,5.19531 -1.12975,-0.23508 -5.29122,-0.69462 -9.24609,-1.01953 -7.48051,-0.61457 -10.55683,-2.23131 -8.38672,-4.40821 0.80698,-0.8095 1.8927,-0.68232 4.38476,0.50977 3.49109,1.66999 7.47201,1.86527 12.12696,0.59766 1.866,-0.50814 0.98717,-0.58903 -2.62891,-0.24219 -4.08422,0.39174 -6.35673,0.10442 -9.15234,-1.16016 -3.47871,-1.57359 -3.82069,-1.58039 -5.28516,-0.11133 -1.46447,1.46904 -1.44587,1.68939 0.27734,3.41797 1.42815,1.43264 3.69669,1.99112 10.09375,2.48438 5.12556,0.39521 8.75327,1.13936 9.57618,1.96484 0.98461,0.98768 1.32801,4.01995 1.33203,11.8086 0.003,5.76396 0.27536,13.96094 0.60547,18.21484 l 0.54687,7.05078 c 0.21742,-0.83747 0.24219,-2.16869 0.24219,-4.48633 0,-3.08617 -0.32129,-14.55761 -0.71485,-25.49219 -0.7005,-19.46308 -0.6756,-19.90347 1.20313,-20.9121 3.09398,-1.66102 5.44015,-0.26865 6.55664,3.89062 0.72641,2.70595 0.72182,7.24116 -0.0156,16.11524 -0.56447,6.79228 4.26645,20.71028 -1.22461,23.83203 l -0.19727,11.48242 -5.91797,0.002 c -4.31998,0.001 -5.81489,-0.31462 -5.53125,-1.16992 0.21374,-0.64453 1.61558,-1.3889 3.11524,-1.6543 1.17117,-0.20726 1.8393,-0.3554 2.2207,-0.92383 l -2.10547,0 c -1.36083,0 -2.99445,0.81983 -3.72852,1.8711 -1.29119,1.8492 -42.57857,1.87386 -150.0996,2.10937 l -108.79297,0.23828 -0.29102,3.51563 -0.28906,3.51562 -4.91406,0 -4.91211,0 -14.23633,-18.36718 -14.23633,-18.36524 5.19336,-5.77539 c 2.85581,-3.17605 7.60806,-8.8028 10.56055,-12.50586 l 5.36718,-6.73437 4.79297,-0.0625 c 5.46127,-0.073 7.17404,-1.44954 6.72266,-5.39844 -0.11175,-0.97763 -0.27032,-1.73578 -0.64258,-2.16406 l -0.29883,3.04492 -0.29297,3.04687 -37.38281,0.48438 c -7.62408,0.0989 -14.09744,0.20463 -18.93656,0.30464 -8.2111,0.16971 -235.716913,0.32297 -232.15523,0.39848 4.265088,0.0904 230.7757,0.15832 232.39341,0.39713 2.16117,0.31903 2.72874,0.94308 3.75698,2.33334 1.02153,1.38119 11.67908,15.19759 23.68554,30.70313 l 21.83008,28.1914 -33.97851,0.48829 c -18.6887,0.26816 42.98341,0.47727 137.04882,0.46679 l 211.02735,-0.0176 0,-3.75 0,-3.75 -9.53711,-0.26757 c -7.94595,-0.2222 -9.44977,-0.4963 -9.00977,-1.64649 0.29048,-0.75933 -1.20347,-4.30205 -3.31836,-7.87304 l -3.84375,-6.49415 5.1543,-7.20703 c 2.8353,-3.96416 5.41934,-8.26238 5.74219,-9.55273 0.71133,-2.84303 -1.7274,-8.19842 -6.71875,-14.75586 l -3.55469,-4.67188 -0.16406,-13.60937 -0.16602,-13.60938 4.85352,-5.625 c 5.63649,-6.53307 7.35579,-9.464929 6.64453,-11.324219 -0.31493,-0.82324 -1.4532,-1.285077 -2.5586,-1.310547 z m -7.6582,2.191406 c 0.62695,-0.001 1.40492,0.328855 2.33789,0.984375 1.84506,1.29637 1.82055,1.38954 -1.24414,4.74414 l -3.12695,3.42188 0,-4.26563 c 0,-3.27418 0.65391,-4.881465 2.0332,-4.884765 z M 628.25391,113.0332 c 0.31859,-0.0656 0.27071,0.57083 0.041,2.14063 -0.30913,2.11282 0.0616,3.02552 1.55664,3.82812 2.16185,1.16061 5.70117,-0.0895 5.70117,-2.01367 0,-0.58343 0.30826,-0.75151 0.68555,-0.37305 0.37728,0.37847 0.73151,6.4605 0.78711,13.51563 l 0.10156,12.82812 2.8086,2.99219 c 4.32333,4.60593 8.17502,12.59522 7.45703,15.46485 -0.33169,1.32572 -2.92251,5.65302 -5.75781,9.61718 l -5.15625,7.20703 3.8457,6.49415 c 2.12066,3.58111 3.6028,7.12499 3.30469,7.90429 -0.35791,0.9356 -1.81378,1.41406 -4.3086,1.41406 -3.89177,0 -4.58152,-0.68391 -2.64648,-2.625 0.87227,-0.875 0.84254,-1.38542 -0.13672,-2.29687 -1.02929,-0.95804 -1.14977,-0.86347 -0.66406,0.51758 0.32678,0.92912 0.22249,1.45855 -0.23047,1.17773 -0.45295,-0.28081 -0.73804,-2.51771 -0.63281,-4.9707 0.10523,-2.453 0.27309,-8.04493 0.37109,-12.42774 0.17338,-7.75492 0.27153,-8.07781 3.67969,-12.02343 3.75532,-4.34748 6.31116,-4.63375 7.05859,-0.78907 l 0.39453,2.03125 0.12695,-2.07617 c 0.0759,-1.23905 -0.66206,-2.49991 -1.83007,-3.12695 -1.61935,-0.86937 -2.34503,-0.6865 -4.20508,1.06641 -1.23655,1.16529 -2.2906,1.73051 -2.3418,1.2539 -0.0512,-0.4766 -0.44183,0.1875 -0.86914,1.47656 -0.47229,1.42477 -0.61128,-1.07771 -0.35351,-6.38281 0.66105,-13.60524 -2.03241,-19.75372 -7.54883,-17.23242 -2.03721,0.93112 -2.10352,0.7759 -2.84375,-6.69922 -1.15952,-11.70916 -1.02982,-15.4358 0.5957,-17.0664 0.49424,-0.49578 0.81862,-0.78682 1.00978,-0.82618 z m -323.34961,26.64453 18.69922,0 18.69921,0 -4.37109,5.39063 c -2.40479,2.96485 -6.72001,8.02763 -9.58984,11.25 -2.86982,3.22238 -5.42854,5.83986 -5.68555,5.81836 -0.25701,-0.0215 -4.35598,-5.08235 -9.10937,-11.24805 z"
       style="fill:#000000" />
    <path
       sodipodi:nodetypes="cssssscssssscsssssscccccsssssssssssssccccscccsssscsscssssssssssccsssscscsccssssssssssssssscccscccscssssssssssscccsscccsssscccsccsssscccccccscsscccssssssccccssscsccccc"
       inkscape:connector-curvature="0"
       id="path4343"
       d="m 279.67188,25.88086 c -0.92805,-0.0781 -1.92037,1.4766 -2.72461,4.58789 -1.06761,4.13016 -0.99377,5.57924 0.61328,12.1875 2.47831,10.19091 6.55078,27.73216 6.55078,28.21289 0,0.76061 -32.03147,-15.70773 -37.03906,-19.04297 -6.41604,-4.27332 -8.20284,-3.31524 -4.89454,2.62305 1.21791,2.18611 2.84616,4.28239 3.61719,4.66016 0.77102,0.37775 8.59122,4.97457 17.37891,10.21484 17.91814,10.68493 21.87303,14.58651 21.87305,21.57422 0,4.6276 -3.76987,8.84934 -4.89063,5.47656 -0.43736,-1.31616 -7.25977,1.54531 -7.25977,3.04492 0,1.21266 0.56768,1.13192 3.78516,-0.53711 1.51653,-0.78667 2.7977,-1.31402 2.8457,-1.17187 0.45798,1.35453 0.87066,11.49117 0.78516,19.2832 -0.0979,8.92564 -0.27977,9.82393 -2.40234,11.95313 -2.2606,2.26772 -2.53841,2.30273 -18.50782,2.30273 -13.54912,0 -16.30043,-0.23103 -16.75,-1.40625 -0.29587,-0.77344 -1.33844,-1.40625 -2.31836,-1.40625 -2.25997,0 -2.95117,-3.22383 -2.95117,-13.78516 l 0,-7.92578 2.78321,0.61328 c 2.22996,0.49131 3.2129,0.14991 4.9375,-1.71679 l 2.15234,-2.33008 5.34375,6.625 c 2.93916,3.64449 5.34375,7.37912 5.34375,8.29883 0,2.5019 1.98144,3.24465 3.41406,1.27929 2.30307,-3.15948 1.43179,-5.88637 -3.66015,-11.45703 -2.70595,-2.96036 -6.38603,-7.2196 -8.17774,-9.46484 -2.29412,-2.87482 -5.27778,-5.04469 -10.08594,-7.33399 -4.70593,-2.24062 -8.19083,-4.7508 -11.21484,-8.07812 -18.52467,-20.38271 -31.37779,-32.00996 -37.15234,-33.60938 -6.98833,-1.93559 -5.75932,0.41324 8.00781,15.28907 16.93338,18.29705 16.58756,17.77488 14.11523,21.25781 -1.06472,1.49993 -4.2315,7.63116 -7.03906,13.625 -2.80757,5.99384 -7.05464,13.4405 -9.4375,16.54687 -4.51273,5.88296 -6.42019,10.48215 -5.52344,13.31641 0.48437,1.53088 -0.40087,1.66211 -11.20117,1.66211 l -11.72656,0 -1.90234,-3.74219 -1.9043,-3.74414 3.28711,-6.54492 c 1.8075,-3.60044 3.28515,-7.07541 3.28515,-7.7207 0,-0.64528 -3.01217,-4.21606 -6.69531,-7.93555 l -6.69726,-6.76172 3.89648,-5.17969 c 2.14355,-2.84798 4.38858,-6.25783 4.98828,-7.57812 1.43645,-3.16253 3.69291,-3.61654 15.36719,-3.0957 9.81965,0.43809 12.01483,-0.15722 9.57812,-2.59375 -0.85747,-0.85742 -5.0492,-1.49203 -12.72461,-1.92579 -9.49707,-0.5367 -11.26753,-0.86431 -10.39257,-1.92187 0.6105,-0.73796 0.84129,-2.86537 0.54882,-5.05273 -0.36145,-2.70326 0.13003,-5.40168 1.72657,-9.48829 1.22726,-3.14138 2.00621,-6.07783 1.73047,-6.52539 -1.34624,-2.18505 -3.53893,-0.39054 -5.80469,4.75196 -2.64319,5.99913 -5.06477,7.58127 -7.80274,5.0957 -1.85576,-1.68469 -5.47461,-0.9454 -5.47461,1.11914 0,1.58165 1.48744,1.78384 2.38672,0.32422 1.16465,-1.89034 2.71492,0.91159 2.41797,4.36914 -0.1562,1.81865 0.22892,3.92628 0.85547,4.68359 0.91428,1.10508 0.80207,1.7505 -0.56836,3.26953 -0.93916,1.04101 -2.83235,4.0917 -4.20703,6.7793 -1.37468,2.6876 -4.03452,7.83985 -5.91016,11.44922 -1.87565,3.60938 -8.18283,12.34878 -14.01757,19.41992 -5.83473,7.07115 -11.1387,14.13756 -11.78516,15.70313 l -1.17383,2.8457 -18.01172,0 c -14.610588,0 -18.106671,-0.24932 -18.515622,-1.31836 -0.277271,-0.72482 -1.794306,-1.60182 -3.371094,-1.94922 -2.06033,-0.45393 -2.867188,-1.17208 -2.867188,-2.55078 0,-2.7208 4.897115,-23.24816 5.541016,-23.22656 0.29364,0.01 6.00135,5.06328 12.683594,11.23047 11.839984,10.92741 17.350624,14.37871 19.505864,12.21679 0.53655,-0.53823 -5.0864,-7.31748 -14.67774,-17.69921 L 86.009766,91.125 87.865234,83.84961 C 89.958648,75.63886 90.172638,71.9751 88.71875,69.25 c -1.281782,-2.40251 -0.0021,-4.40973 8.019531,-12.57617 3.335609,-3.39581 6.066409,-6.75444 6.066409,-7.46289 0,-3.10684 -2.41824,-2.20308 -7.441409,2.7832 -4.426564,4.39406 -5.494738,5.0618 -5.998047,3.74609 -0.497603,-1.30078 -1.474875,-1.51749 -5.222656,-1.15625 -2.536497,0.24449 -5.024876,0.03139 -5.529297,-0.4746 -1.33072,-1.33487 -3.749102,-0.11713 -4.669922,2.35156 -1.798931,4.82286 -2.075434,6.35156 -1.146484,6.35156 0.528023,0 1.454305,-1.6545 2.058594,-3.67773 0.909229,-3.04422 1.358742,-3.51663 2.607422,-2.73438 1.32851,0.83226 1.727594,2.66763 1.955078,8.99024 0.184705,5.13362 -1.661592,17.98393 -2.929688,20.39062 -1.037822,1.96966 -1.663949,6.74577 -2.08789,15.9375 -0.332942,7.21875 -0.861233,16.80755 -1.173829,21.30859 l -0.568359,8.1836 -7.794922,0.10742 0,0.8418 201.666019,-0.18164 c 30.76652,-0.0277 56.51752,-0.0673 82.12695,-0.10547 l 0,-0.2695 -4.73047,-0.35355 0,-2.39844 c 0,-3.22522 -5.50504,-24.94118 -6.68359,-26.36523 -0.6388,-0.77211 -0.32596,-3.15474 0.98437,-7.51172 1.05544,-3.50946 2.15907,-8.35265 2.45313,-10.76172 0.49482,-4.05396 1.10596,-4.89616 8.19922,-11.31836 7.16131,-6.48383 20.90057,-17.7653 26.33203,-21.62109 1.31315,-0.93221 3.07428,-2.74558 3.91406,-4.03125 2.22427,-3.40527 0.66598,-4.41371 -5.61133,-3.62696 -4.62245,0.57934 -6.59514,1.64457 -17.63086,9.52735 -15.92371,11.37424 -21.45256,16.78927 -24.11719,23.61133 -4.4306,11.34334 -5.537,14.74456 -5.5664,17.11718 -0.0223,1.80035 -0.72399,2.73995 -2.60156,3.48829 -1.41356,0.56339 -3.19968,0.93051 -3.97071,0.8164 -1.72575,-0.25541 -10.27234,3.27571 -10.27734,4.2461 -0.005,1.08955 2.09519,0.77332 4.66992,-0.70313 3.15284,-1.80806 5.70178,-1.80712 5.00977,0.002 -0.81077,2.11945 0.40268,5.89582 2.60351,8.10352 1.87322,1.87908 1.90473,2.27046 0.75586,9.00781 -1.68694,9.89272 -4.18854,12.41692 -12.31055,12.41992 l -5.87304,0.002 0.28125,-6.33008 c 0.22101,-4.98795 -0.25119,-7.821 -2.22266,-13.36133 -1.43066,-4.02053 -2.80615,-10.4434 -3.21484,-15 -0.39308,-4.38281 -2.04775,-12.60937 -3.67578,-18.28125 -4.14516,-14.44127 -12.77504,-45.283586 -13.77149,-49.218746 -0.52475,-2.07234 -1.20791,-3.12087 -1.92968,-3.18164 z m -60.2754,67.96289 c 1.4686,-0.1612 8.69097,4.42746 9.47266,6.14844 1.00567,2.21412 3.24882,15.8595 4.25195,25.86719 l 0.54102,5.39062 -19.16797,0 c -15.02722,0 -19.16797,-0.26084 -19.16797,-1.20898 0,-0.66513 3.49808,-5.8331 7.77344,-11.48438 4.27535,-5.65127 9.59474,-13.43945 11.82031,-17.30664 2.22557,-3.86719 4.1445,-7.1561 4.26367,-7.30859 0.0432,-0.0552 0.11499,-0.0869 0.21289,-0.0977 z m -65.45507,7.95703 5.03515,4.82031 5.03711,4.81836 -3.09961,6.30469 c -3.08812,6.28196 -3.09383,6.31546 -1.33984,8.73438 0.9683,1.33539 2.07415,2.95507 2.45703,3.59961 0.5471,0.92096 -3.12418,1.17187 -17.14844,1.17187 -16.73675,0 -17.78611,-0.10191 -16.88867,-1.64062 0.52627,-0.90234 6.57887,-7.52855 13.45117,-14.72461 z m 179.01953,7.0918 c 0.41066,-9.3e-4 0.68359,0.0751 0.68359,0.25976 0,0.19812 4.18097,14.33424 5.21875,17.64454 0.34282,1.09349 0.0174,1.64062 -0.97851,1.64062 -0.8218,0 -1.73734,0.63281 -2.03321,1.40625 -0.38616,1.00945 -1.96009,1.40625 -5.57812,1.40625 -2.77211,0 -5.03911,-0.10546 -5.03711,-0.23437 0.002,-0.1289 0.88626,-4.66407 1.96679,-10.07813 1.08061,-5.41406 1.99184,-10.26562 2.02344,-10.78125 0.0344,-0.56188 2.50238,-1.2609 3.73438,-1.26367 z m -39.08008,1.31445 c 1.77053,-0.14168 3.86923,4.61324 5.06641,11.64453 0.81823,4.8056 0.72725,5.26767 -1.42188,7.26563 -1.81523,1.68756 -3.37983,2.13281 -7.48633,2.13281 -4.35049,0 -5.10032,-0.23985 -4.625,-1.48242 0.31201,-0.81561 0.56641,-5.38239 0.56641,-10.14844 l 0,-8.66601 3.03906,0.0195 c 1.67056,0.0108 3.69988,-0.29169 4.51172,-0.67188 0.11476,-0.0537 0.23157,-0.0844 0.34961,-0.0937 z"
       style="fill:#000000" />
    <path
       style="fill:#fefefe"
       d="m 73.833844,130.07812 c 0.01395,-7.90636 2.221828,-37.116287 2.901835,-38.390863 1.303974,-2.444111 5.329504,-2.16695 6.517579,0.44874 1.006677,2.216319 0.631088,4.535178 -3.919128,24.196443 -1.144142,4.94378 -1.827244,9.65009 -1.518005,10.45847 0.309238,0.80838 1.85235,1.75403 3.429138,2.10143 4.602694,1.01407 3.307189,2.35766 -2.273299,2.35766 -3.490199,0 -5.139524,-0.37617 -5.13812,-1.17188 z"
       id="path4211"
       inkscape:connector-curvature="0" />
    <path
       style="fill:#fefefe"
       d="m 122.42991,130.7999 c 0,-1.85277 4.06794,-7.67141 12.28267,-17.56867 5.11691,-6.16494 10.2293,-12.65496 11.36086,-14.422274 2.53252,-3.955322 5.34329,-3.947531 6.39419,0.01772 0.68075,2.568594 -0.10224,3.611624 -13.01964,17.343754 -11.80704,12.55176 -17.01808,17.03138 -17.01808,14.62947 z"
       id="path4209"
       inkscape:connector-curvature="0" />
    <path
       style="fill:#fefefe"
       d="m 161.29431,127.61487 -2.51129,-3.63513 3.08112,-6.26771 3.08112,-6.26772 -5.35858,-5.16553 -5.35857,-5.16554 1.47776,-2.866606 1.47777,-2.866603 6.4549,6.425469 c 3.55021,3.53401 6.45492,6.97465 6.45492,7.64588 0,0.67124 -1.47887,4.16625 -3.28637,7.76669 l -3.28639,6.54626 1.90351,3.74284 c 1.83884,3.61569 1.84368,3.74283 0.14245,3.74283 -0.99045,0 -2.85994,-1.59065 -4.27235,-3.63513 z"
       id="path4207"
       inkscape:connector-curvature="0" />
    <path
       style="fill:#fefefe"
       d="m 192.12343,129.58788 c -0.89085,-2.81559 1.00156,-7.42125 5.41146,-13.17014 2.32102,-3.02576 6.99552,-11.29202 10.38779,-18.369443 3.70837,-7.736926 6.61929,-12.719624 7.30011,-12.49581 0.62279,0.204737 1.66447,1.974861 2.31482,3.93361 1.14576,3.450798 1.04672,3.797444 -3.19003,11.165673 -2.40488,4.18238 -7.87858,12.23375 -12.16377,17.89194 -4.28521,5.65819 -7.79128,10.83182 -7.79128,11.49695 0,1.79596 -1.66256,1.46421 -2.2691,-0.45278 z"
       id="path4205"
       inkscape:connector-curvature="0" />
    <path
       style="fill:#fefefe"
       d="m 234.16158,126.79688 c -0.29281,-2.44922 -1.1393,-8.86813 -1.88108,-14.26424 -0.74179,-5.39611 -1.26395,-9.89401 -1.16039,-9.99534 0.10357,-0.10132 1.34485,0.0386 2.7584,0.31103 l 2.57009,0.49525 0.0932,10.43759 c 0.11161,12.50433 0.67469,15.02196 3.44982,15.42466 3.49637,0.50735 2.28103,2.04417 -1.61656,2.04417 l -3.68105,0 -0.53239,-4.45312 z"
       id="path4203"
       inkscape:connector-curvature="0" />
    <path
       style="fill:#fefefe"
       d="m 277.5701,130.34548 c 0,-0.49748 0.84112,-1.35607 1.86916,-1.90798 1.5916,-0.85447 1.86916,-1.96296 1.86916,-7.46514 0,-8.29157 1.59248,-19.76663 3.31811,-23.909554 l 1.34744,-3.234947 2.35065,2.357991 2.35065,2.358 -2.81427,6.43208 c -2.44592,5.59022 -2.81427,7.53652 -2.81427,14.87016 0,4.64093 -0.25527,9.10538 -0.56728,9.92098 -0.62171,1.62522 -6.90935,2.15158 -6.90935,0.57841 z"
       id="path4201"
       inkscape:connector-curvature="0" />
    <path
       style="fill:#fefefe"
       d="m 297.19627,130.75655 c 0,-0.33674 0.82497,-1.31269 1.83326,-2.16878 1.71897,-1.45948 1.75881,-1.94263 0.63907,-7.74952 -0.65679,-3.40617 -2.06032,-7.6656 -3.11894,-9.46543 -1.39029,-2.36374 -1.6758,-3.71869 -1.02816,-4.87956 0.49313,-0.88393 0.65122,-2.24861 0.3513,-3.03263 -0.29992,-0.78401 0.0854,-2.32882 0.85637,-3.4329 1.37713,-1.97228 1.40168,-1.974024 1.40168,-0.09969 0,1.04925 1.27473,5.67828 2.83275,10.28672 2.2308,6.59843 2.77695,9.67392 2.5701,14.47274 l -0.26267,6.09375 -3.03738,0.29377 c -1.67056,0.16158 -3.03738,0.0183 -3.03738,-0.31847 z"
       id="path4199"
       inkscape:connector-curvature="0" />
    <path
       style="fill:#fefefe"
       d="m 317.75701,130.69715 c 0,-0.30407 0.88076,-1.26827 1.95724,-2.14268 1.52593,-1.23948 2.53955,-4.55158 4.59968,-15.02995 1.45335,-7.39206 3.02563,-13.824505 3.49396,-14.294305 1.3484,-1.352606 3.96782,0.152991 3.96782,2.280645 0,1.06439 -0.63457,2.63864 -1.41017,3.49834 -1.00238,1.11108 -5.98498,22.48899 -6.06138,26.00643 -0.0112,0.5144 -6.54715,0.19647 -6.54715,-0.31844 z"
       id="path4197"
       inkscape:connector-curvature="0" />
    <path
       style="fill:#fefefe"
       d="m 336.4486,130.31254 c 0,-0.51563 0.60602,-0.9375 1.34671,-0.9375 0.7407,0 1.56195,-0.34933 1.82499,-0.77629 0.44298,-0.71897 -4.32043,-17.92096 -5.48665,-19.81383 -0.28561,-0.46355 -0.0919,-1.10781 0.43055,-1.43168 0.5224,-0.32387 0.94982,-1.70302 0.94982,-3.06478 0,-1.54201 0.32848,-2.13998 0.87085,-1.58529 1.09817,1.12313 6.60579,22.92439 6.60579,26.14829 0,2.11623 -0.38504,2.39858 -3.27103,2.39858 -1.79906,0 -3.27103,-0.42187 -3.27103,-0.9375 z"
       id="path4195"
       inkscape:connector-curvature="0" />
    <path
       style="fill:#fefefe"
       d="m 111.49522,124.40025 c -1.64493,-0.61543 -8.47904,-6.1381 -15.186919,-12.27261 C 83.732382,100.62665 83.601708,100.42196 84.92366,94.295109 c 0.575111,-2.665477 0.982619,-2.310813 15.77728,13.731361 8.3528,9.05712 15.18691,16.72198 15.18691,17.03301 0,0.77967 -0.91279,0.64268 -4.39263,-0.65927 z"
       id="path4191"
       inkscape:connector-curvature="0" />
    <path
       style="fill:#fefefe"
       d="m 258.87851,118.24036 c 0,-1.93783 -12.21186,-17.39146 -14.41263,-18.23861 -1.4919,-0.574285 -4.70257,-6.139285 -3.96744,-6.87671 0.84912,-0.851775 5.76501,2.319653 7.72975,4.986747 1.08157,1.468228 4.5512,5.525573 7.71028,9.016313 5.50122,6.07879 6.42793,8.11766 5.1765,11.38901 -0.78223,2.04483 -2.23646,1.86487 -2.23646,-0.27675 z"
       id="path4189"
       inkscape:connector-curvature="0" />
    <path
       style="fill:#fefefe"
       d="m 287.37532,109.67479 c -0.69965,-1.1356 3.27346,-8.60166 4.85113,-9.11598 1.53695,-0.50104 3.32656,3.18783 2.62392,5.40859 -1.22323,3.86611 -5.9369,6.20393 -7.47505,3.70739 z"
       id="path4183"
       inkscape:connector-curvature="0" />
    <path
       style="fill:#fefefe"
       d="m 329.78518,107.64567 c 0.41839,-1.13452 1.66825,-2.66724 2.77748,-3.40605 1.85048,-1.23251 2.01678,-1.18122 2.01678,0.622 0,1.2313 -1.03729,2.50336 -2.77747,3.40605 -2.71539,1.40856 -2.76047,1.39466 -2.01679,-0.622 z"
       id="path4181"
       inkscape:connector-curvature="0" />
    <path
       style="fill:#fefefe"
       d="m 239.39403,104.17022 c -1.80504,-1.14748 -0.92967,-4.285321 1.26973,-4.551421 1.02279,-0.12375 2.65799,0.390401 3.6338,1.142571 3.19739,2.46458 -1.38157,5.6478 -4.90353,3.40885 z"
       id="path4179"
       inkscape:connector-curvature="0" />
    <path
       style="fill:#fefefe"
       d="m 217.38707,83.285892 c -0.9745,-0.56765 -3.0773,-2.558196 -4.6729,-4.423435 -1.5956,-1.86524 -8.10257,-9.002258 -14.45994,-15.860041 -6.35738,-6.857784 -11.3384,-12.689849 -11.06895,-12.960146 1.28963,-1.293664 7.94332,1.912441 13.5723,6.539869 9.18568,7.551284 22.60691,21.642025 22.60691,23.73464 0,1.979334 -1.67655,4.074677 -3.2243,4.029713 -0.53972,-0.01568 -1.77863,-0.492949 -2.75312,-1.0606 z"
       id="path4175"
       inkscape:connector-curvature="0" />
    <path
       style="fill:#fefefe"
       d="m 279.40588,78.427214 c -2.04421,-1.882582 -29.01374,-18.148345 -31.93776,-19.262194 -2.42914,-0.925329 -7.08214,-8.1147 -5.97238,-9.227935 0.27755,-0.27842 3.14568,1.202854 6.37361,3.29172 3.22793,2.088865 13.27607,7.490956 22.32919,12.004645 13.73414,6.847551 16.38482,8.495891 16.00501,9.952809 -0.41153,1.578585 -3.59492,4.501241 -4.90282,4.501241 -0.28949,0 -1.14218,-0.567128 -1.89485,-1.260286 z"
       id="path4173"
       inkscape:connector-curvature="0" />
    <path
       style="fill:#fefefe"
       d="m 161.40303,78.157409 c -1.5536,-1.558451 -0.15849,-6.939172 5.13322,-19.798034 1.59938,-3.886518 3.35998,-6.796875 4.11172,-6.796875 1.65605,0 1.73331,-0.474113 -1.07864,6.619112 -4.08284,10.299074 -4.97538,13.424862 -4.79267,16.784429 0.17093,3.14277 -1.67826,4.892046 -3.37363,3.191368 z"
       id="path4171"
       inkscape:connector-curvature="0" />
    <path
       style="fill:#fefefe"
       d="m 167.89651,76.640625 c -0.38125,-1.448575 0.29642,-1.628714 5.78912,-1.538874 9.1953,0.150399 17.24665,1.176254 17.5962,2.241999 0.19393,0.591301 -3.98743,0.9375 -11.32303,0.9375 -10.28912,0 -11.6803,-0.189217 -12.06229,-1.640625 z"
       id="path4169"
       inkscape:connector-curvature="0" />
    <path
       style="fill:#fefefe"
       d="m 337.5701,77.625 c -0.61682,-0.61875 -1.1215,-2.674395 -1.1215,-4.5681 0,-4.30011 3.12119,-7.340423 19.62617,-19.117624 11.16769,-7.968752 14.93848,-9.713172 21.26168,-9.835947 3.46737,-0.06732 2.39863,1.376719 -2.80001,3.783293 -3.63485,1.682651 -8.59553,5.967123 -19.18114,16.566503 C 347.50223,72.316406 340.54029,78.75 339.8843,78.75 c -0.65599,0 -1.69738,-0.50625 -2.3142,-1.125 z"
       id="path4167"
       inkscape:connector-curvature="0" />
    <path
       style="fill:#fefefe"
       d="m 288.696,73.503025 -3.36008,-1.400359 -3.55566,-15.660708 C 279.82465,47.828569 277.85193,39.764651 277.39644,38.522141 276.51889,36.128305 278.2206,26.25 279.51054,26.25 c 0.38962,0 1.1793,2.214844 1.75483,4.921875 0.57552,2.707031 2.89339,11.25 5.1508,18.984375 5.38134,18.437572 6.99933,24.854402 6.25212,24.795442 -0.33672,-0.02657 -2.12425,-0.678469 -3.97229,-1.448667 z"
       id="path4165"
       inkscape:connector-curvature="0" />
    <path
       style="fill:#fefefe"
       d="m 80.971773,71.930512 c -1.168346,-0.856985 -1.416866,-1.747106 -0.879561,-3.150308 0.945939,-2.470369 20.694838,-21.428202 21.490688,-20.629858 0.79488,0.797361 -1.30247,5.287154 -2.469814,5.287154 -1.701384,0 -12.893043,14.036978 -13.460369,16.882471 -0.600421,3.011491 -2.077942,3.519851 -4.680944,1.610541 z"
       id="path4163"
       inkscape:connector-curvature="0" />
    <path
       style="fill:#fefefe"
       d="m 165.42056,72.373259 c 0,-0.499395 0.63143,-2.32752 1.40319,-4.0625 l 1.40319,-3.154509 -0.23497,3.677531 c -0.12923,2.022643 -0.76066,3.850768 -1.40318,4.062501 -0.64253,0.211732 -1.16823,-0.02362 -1.16823,-0.523023 z"
       id="path4161"
       inkscape:connector-curvature="0" />
    <path
       style="fill:#fefefe"
       d="m 358.87851,61.876666 c 6.54063,-6.385929 12.5768,-11.394417 15.42056,-12.795132 l 4.6729,-2.301676 -2.95059,2.625696 c -1.62282,1.444133 -6.22423,5.156946 -10.22536,8.250696 -4.00112,3.09375 -9.6126,7.669996 -12.46997,10.169436 -2.85736,2.499439 -0.35875,-0.177619 5.55246,-5.94902 z"
       id="path4159"
       inkscape:connector-curvature="0" />
    <path
       style="fill:#fefefe"
       d="m 82.242992,62.52238 c 0,-1.887438 2.384962,-3.678264 4.384226,-3.292038 1.354721,0.261711 1.098353,0.731195 -1.356972,2.485004 -2.269302,1.620934 -3.027254,1.822996 -3.027254,0.807034 z"
       id="path4157"
       inkscape:connector-curvature="0" />
    <path
       id="path4270"
       d="m 233.44745,101.91992 c -2.12591,-0.51425 -3.69008,-1.53951 -4.04105,-2.648786 -0.31495,-0.995381 -2.6641,-2.872931 -5.22034,-4.172325 -2.55624,-1.299393 -4.87245,-3.083668 -5.14712,-3.965048 -0.42671,-1.369222 -1.69634,-4.365074 -2.9714,-7.011409 -0.19118,-0.396768 0.79101,-0.200995 2.18262,0.435051 2.29775,1.050193 2.73055,0.922822 4.71058,-1.386288 l 2.18036,-2.542735 2.31546,3.045185 c 1.27352,1.674852 4.39225,4.300753 6.93052,5.835336 5.2163,3.153664 7.85028,7.758899 5.26712,9.209024 -0.80064,0.449466 -1.74431,1.542555 -2.09702,2.429095 -0.5359,1.34698 -1.2113,1.474 -4.10973,0.7729 z"
       style="fill:#007f7f"
       inkscape:connector-curvature="0" />
    <path
       id="path4268"
       d="m 332.71029,101.39778 c 0,-2.514686 -3.33969,-4.45923 -5.11714,-2.97948 -2.76634,2.30304 -0.41086,-7.57589 5.24845,-22.01205 2.09584,-5.346195 2.21956,-5.475103 2.49631,-2.600775 0.17725,1.840982 1.1813,3.726585 2.56622,4.81937 2.02347,1.596639 2.21455,2.2989 1.72792,6.350775 -0.72837,6.064817 -3.89,15.85496 -5.57255,17.25572 -1.10261,0.91794 -1.34921,0.76558 -1.34921,-0.83356 z"
       style="fill:#007f7f"
       inkscape:connector-curvature="0" />
    <path
       id="path4266"
       d="m 153.10032,98.283028 c -0.16312,-1.098787 -1.1377,-2.462747 -2.16574,-3.031031 -1.02804,-0.568285 -2.03077,-1.125056 -2.22831,-1.237275 -0.19753,-0.11221 1.37957,-3.090695 3.50468,-6.618852 2.1251,-3.528158 3.86382,-6.822945 3.86382,-7.321752 0,-0.498805 0.70181,-1.912026 1.55958,-3.14049 l 1.55958,-2.233571 0.75442,2.045752 c 1.14812,3.113386 3.61179,3.604195 5.61778,1.119168 1.53827,-1.905626 1.72194,-1.947634 1.70822,-0.390712 -0.0175,1.978757 -2.07987,5.569885 -9.03384,15.729876 -3.83504,5.603109 -4.90538,6.660675 -5.14019,5.078887 z"
       style="fill:#007f7f"
       inkscape:connector-curvature="0" />
    <path
       id="path4264"
       d="m 289.83514,96.671625 c -2.94809,-2.785181 -3.85383,-4.342223 -3.85383,-6.625049 0,-1.733638 -0.9729,-4.263713 -2.32165,-6.037542 l -2.32166,-3.053363 2.78895,-2.068401 c 1.53391,-1.137622 2.78894,-2.717014 2.78894,-3.509762 0,-1.44463 2.2384,-1.212837 5.54898,0.574615 1.32625,0.716064 4.42041,9.749391 5.38095,15.709539 0.56114,3.481876 -1.22176,8.650838 -2.98387,8.650838 -0.64514,0 -2.90721,-1.638394 -5.02681,-3.640875 z"
       style="fill:#007f7f"
       inkscape:connector-curvature="0" />
    <path
       id="path4262"
       d="m 83.196315,90.491406 c -1.41368,-1.708704 -4.811939,-1.870732 -6.373884,-0.303906 -1.782753,1.788324 -1.412136,-0.628211 0.747664,-4.875 1.134129,-2.230023 1.869159,-5.525405 1.869159,-8.380053 l 0,-4.704749 2.438829,1.114677 c 2.093557,0.956869 2.622802,0.862294 3.738317,-0.668033 0.714719,-0.98049 1.305929,-2.440359 1.3138,-3.244151 0.01259,-1.285832 0.123172,-1.292464 0.920269,-0.05519 1.392627,2.161671 1.113145,6.499702 -0.936733,14.539695 -1.029222,4.036793 -2.020694,7.489473 -2.20327,7.67262 -0.182578,0.183148 -0.863945,-0.310012 -1.514151,-1.09591 z"
       style="fill:#007f7f"
       inkscape:connector-curvature="0" />
    <g
       transform="translate(1.7456889,-12.485281)"
       id="g4464">
      <path
         style="fill:#000000"
         d="m 367.03125,71.37109 c -0.1298,0.0175 -0.24147,0.0674 -0.32617,0.15235 -0.92814,0.93103 1.52289,3.47656 3.34765,3.47656 2.62485,0 2.97537,1.14453 0.99805,3.25586 -1.02483,1.09429 -2.11721,3.26485 -2.42773,4.82227 -0.48469,2.43103 -0.0739,3.26369 2.90429,5.88671 2.59347,2.28422 4.03063,2.91423 5.69141,2.4961 1.22178,-0.30761 2.2207,-0.27546 2.2207,0.0703 0,0.34578 -0.91102,4.98697 -2.02539,10.31445 -1.64552,7.86671 -1.82063,10.1412 -0.92578,12.11133 1.70546,3.75475 4.43225,2.68616 4.06055,-1.5918 -0.22626,-2.60405 4.42162,-19.16828 5.96484,-21.25781 0.12174,-0.16485 3.19271,-1.51362 6.82422,-2.99609 5.66133,-2.3111 7.26134,-2.59003 11.22852,-1.96094 2.97701,0.47207 5.78244,1.70624 7.86718,3.46289 14.85867,12.52022 26.91032,23.39039 29.46094,26.57422 4.59228,5.73232 6.7165,4.86652 4.37695,-1.78516 -1.01283,-2.87964 -5.38152,-8.07969 -16.42578,-19.55273 -8.27522,-8.59648 -16.37756,-16.35169 -18.00586,-17.23242 -5.7405,-3.10499 -24.022,-1.64632 -27.88086,2.22461 -1.8117,1.81736 -1.84228,1.81217 -3.70898,-0.56836 -1.03482,-1.31968 -2.58994,-2.39844 -3.45703,-2.39844 -0.86708,0 -2.10212,-0.84375 -2.74414,-1.875 -0.64202,-1.03125 -1.92092,-1.875 -2.8418,-1.875 -0.92088,0 -2.17105,-0.49922 -2.7793,-1.10938 -0.45619,-0.45761 -1.00709,-0.69712 -1.39648,-0.64453 z"
         id="path4337"
         inkscape:connector-curvature="0" />
      <path
         inkscape:connector-curvature="0"
         id="path4187"
         d="m 442.40142,115.70423 c -2.35186,-3.09309 -20.75713,-19.567634 -31.03483,-27.779265 -5.50059,-4.394837 -5.90256,-7.374769 -1.12696,-8.354536 3.19526,-0.655544 3.39281,-0.495115 18.2243,14.800611 13.5048,13.92749 17.90597,19.72389 18.21423,23.98837 0.12336,1.70671 -1.92896,0.43255 -4.27674,-2.65518 z"
         style="fill:#fefefe" />
      <path
         inkscape:connector-curvature="0"
         id="path4185"
         d="m 377.03181,113.01878 c -0.31565,-1.26157 0.33892,-6.85141 1.45458,-12.42188 3.83174,-19.131639 4.41355,-20.316528 8.95639,-18.240202 2.88377,1.318036 2.87028,2.45065 -0.0596,5.006107 -1.28505,1.120825 -2.33645,2.771921 -2.33645,3.669101 0,0.897181 -1.30312,5.33479 -2.89583,9.861364 -1.96775,5.5925 -2.73538,9.22187 -2.3952,11.3247 0.60581,3.74486 -1.80962,4.45499 -2.7239,0.80081 z"
         style="fill:#fefefe" />
      <path
         inkscape:connector-curvature="0"
         id="path4177"
         d="m 373.30947,89.530626 c -1.78029,-1.380622 -1.77297,-1.441852 0.3922,-3.28125 2.90809,-2.47054 6.67217,-2.507965 6.67217,-0.06634 0,2.036106 -2.34059,4.754465 -4.09374,4.754465 -0.63607,0 -1.97285,-0.633094 -2.97063,-1.406874 z"
         style="fill:#fefefe" />
      <path
         inkscape:connector-curvature="0"
         style="fill:#007f7f"
         d="m 388.25216,87.635134 c 3.05635,-2.841385 2.80206,-4.167017 -1.19013,-6.204162 l -3.01357,-1.537776 3.06923,-1.137181 c 4.32029,-1.60071 20.58881,-2.379266 22.79987,-1.091124 1.68049,0.979038 1.66982,1.029453 -0.22368,1.056601 -2.62588,0.03765 -4.4346,2.341541 -3.78739,4.824241 0.47339,1.815882 0.23072,1.946193 -2.72743,1.464651 -2.3491,-0.382398 -5.1114,0.233545 -9.98875,2.227309 -3.70794,1.515733 -6.90826,2.757324 -7.11182,2.759092 -0.20357,0.0018 0.77459,-1.060975 2.17367,-2.361651 z"
         id="path3350" />
    </g>
    <path
       sodipodi:nodetypes="ccccccccc"
       inkscape:connector-curvature="0"
       id="path4433"
       d="m 363.77794,198.27134 0,-3.28125 169.43925,0 129.43925,0 0,3.28125 0,3.28125 -129.43925,0 -169.43925,0 z"
       style="fill:#fefefe" />
    <path
       inkscape:connector-curvature="0"
       id="path4431"
       d="m 622.70239,192.88071 c 0.21374,-0.64453 1.61561,-1.389 3.11527,-1.6544 2.65517,-0.46989 2.72663,-0.62958 2.72663,-6.09375 0,-3.08617 -0.322,-14.55769 -0.71555,-25.49227 -0.7005,-19.46309 -0.67521,-19.9027 1.20352,-20.91131 3.09398,-1.66102 5.43947,-0.26934 6.55596,3.88993 0.72636,2.70595 0.72202,7.24127 -0.0154,16.11534 -0.56447,6.79228 -1.11512,17.5168 -1.22366,23.83228 l -0.19734,11.48269 -5.919,0.002 c -4.31999,9.4e-4 -5.81402,-0.3149 -5.53039,-1.17019 z"
       style="fill:#fefefe" />
    <path
       inkscape:connector-curvature="0"
       id="path4429"
       d="m 635.55364,193.30259 c 0,-0.4125 0.50767,-1.25926 1.12817,-1.88169 0.88117,-0.88394 0.79696,-1.46395 -0.38465,-2.64925 -1.28395,-1.28796 -1.43593,-3.16615 -1.00459,-12.41518 0.49881,-10.69571 0.5677,-10.97146 3.71824,-14.88201 1.76551,-2.1914 3.49729,-3.97791 3.84839,-3.97002 1.44504,0.0325 2.72235,1.5369 3.29313,3.87859 0.49477,2.02988 -0.33803,3.80674 -4.53338,9.67246 l -5.13948,7.18577 3.84523,6.49272 c 2.12083,3.58103 3.60285,7.12637 3.30474,7.90567 -0.56802,1.48487 -8.0758,2.10119 -8.0758,0.66294 z"
       style="fill:#fefefe" />
    <path
       inkscape:connector-curvature="0"
       id="path4427"
       d="m 616.39476,149.81783 c -8.7189,-0.88854 -12.19284,-2.50305 -10.03767,-4.66495 0.83984,-0.84247 1.99491,-0.69451 4.92487,0.63085 3.2481,1.46926 4.66798,1.59205 9.3768,0.81086 l 5.54908,-0.9206 0,2.6268 c 0,1.44474 -0.31542,2.56997 -0.70093,2.50052 -0.38552,-0.0695 -4.48598,-0.51202 -9.11215,-0.98348 z"
       style="fill:#fefefe" />
    <path
       inkscape:connector-curvature="0"
       id="path4425"
       d="m 623.4041,143.57213 c -3.35011,-0.46486 -4.67289,-1.86519 -4.67289,-4.94683 0,-3.31648 1.76246,-3.50624 5.17968,-0.55768 3.18093,2.74467 2.88353,5.97495 -0.50679,5.50451 z"
       style="fill:#fefefe" />
    <path
       sodipodi:nodetypes="ccccccccc"
       inkscape:connector-curvature="0"
       id="path4423"
       d="m 65.53494,135.46959 0,-3.292 253.4424,0 37.44239,0 -0.29286,3.04687 -0.29286,3.04688 -37.14953,0.24513 -253.14954,0.24514 z"
       style="fill:#fefefe" />
    <path
       inkscape:connector-curvature="0"
       id="path4419"
       d="m 630.17981,118.4317 c -2.35371,-0.9527 -1.26586,-4.76112 1.89421,-6.63144 5.08294,-3.00838 10.22394,-8.0043 11.5753,-11.24865 0.8332,-2.000347 1.91873,-3.061517 3.13181,-3.061517 3.71126,0 1.98374,3.518477 -6.44419,13.124997 -7.77719,8.86478 -7.70495,8.80918 -10.15713,7.81661 z"
       style="fill:#fefefe" />
    <path
       inkscape:connector-curvature="0"
       id="path4417"
       d="m 626.79163,110.12927 c -0.8351,-0.83771 -1.51837,-2.7586 -1.51837,-4.26865 0,-2.29675 0.3784,-2.74553 2.31491,-2.74553 2.62276,0 5.5018,3.62021 4.99592,6.28203 -0.42198,2.22024 -3.87404,2.65657 -5.79246,0.73215 z"
       style="fill:#fefefe" />
    <path
       sodipodi:nodetypes="sssssssscscssscs"
       inkscape:connector-curvature="0"
       id="path4403"
       d="m 646.89586,160.56995 c -0.07,-1.14202 -1.00807,-2.54925 -2.08461,-3.12719 -1.60798,-0.86326 -2.33358,-0.69625 -4.06533,0.93573 -3.19431,3.01029 -4.53873,0.78034 -3.74932,-6.21887 1.14836,-10.18199 -2.6163,-17.23926 -7.73134,-14.49322 -1.75248,0.94083 -1.89276,0.58109 -2.61298,-6.70043 -1.16261,-11.75432 -1.03365,-15.47412 0.59301,-17.10585 1.31798,-1.3221 1.41736,-1.19774 1.04987,1.31394 -0.30913,2.11282 0.0622,3.02553 1.55712,3.82813 2.16185,1.16061 5.70136,-0.0896 5.70136,-2.01383 0,-0.58343 0.30868,-0.75112 0.68597,-0.37266 0.37728,0.37847 0.73147,6.4605 0.78708,13.51563 0.10108,12.82168 0.10236,12.82883 2.82536,15.72978 3.90043,4.15531 8.05201,12.20424 7.57481,14.68576 l -0.40373,2.09947 z"
       style="fill:#007f7f" />
    <g
       transform="matrix(0.96592583,-0.25881905,0.25881905,0.96592583,22.175543,123.21512)"
       id="g4435">
      <path
         style="fill:#000000"
         d="m 522.10347,84.343211 c -2.0843,-1.024731 -6.49917,0.402775 -6.80985,2.583934 -0.23589,1.656171 -0.16343,1.686369 1.2711,0.529243 1.73506,-1.399553 5.35889,-2.232565 4.91494,-1.129875 -0.16205,0.402548 -1.40889,2.490495 -2.76978,4.640767 -1.95687,3.091739 -2.33189,4.443132 -1.79505,6.459251 0.84004,3.154729 6.13693,6.470099 9.81444,6.142379 2.38872,-0.21288 2.56535,-0.0693 3.27958,2.66888 0.9804,3.75863 -2.42563,13.10298 -5.85672,16.06847 -2.82939,2.44545 -2.67604,4.44613 0.34928,4.53964 3.48266,0.10767 6.28377,-2.79419 9.01898,-9.34258 2.81054,-6.72866 2.37572,-6.77926 7.95765,0.9047 2.85663,3.93237 17.62594,39.66497 19.33002,46.76655 0.97233,4.05209 2.20204,4.90541 3.93133,2.72638 2.62595,-3.30887 1.84881,-9.34911 -3.48305,-27.06959 -2.96169,-9.84317 -5.20405,-18.21289 -4.98187,-18.5977 0.7607,-1.31759 -3.52646,-8.19911 -9.49856,-15.24769 -6.03167,-7.118876 -9.35472,-9.756045 -12.15097,-9.638837 -1.00015,0.04192 -0.3519,0.548553 1.8736,1.462973 2.60791,1.07155 4.86873,3.122054 9.67475,8.775664 6.68673,7.866 9.47475,12.29385 6.75245,10.72213 -2.05191,-1.18467 -5.58407,-0.23682 -6.76964,1.81666 -0.99718,1.72716 -0.99949,1.72543 -5.42435,-4.02777 -4.06554,-5.28616 -4.3534,-6.02238 -3.5455,-9.04292 1.08338,-4.05056 0.33347,-6.30524 -2.41488,-7.259349 -1.68726,-0.585744 -2.03029,-1.274307 -1.73449,-3.502104 0.48572,-3.658247 -0.92173,-5.739293 -5.43015,-8.024482 -2.04214,-1.03511 -4.18984,-2.534415 -4.77175,-3.330071 -0.18386,-0.251397 -0.43374,-0.44824 -0.73148,-0.594639 z"
         id="path4380"
         inkscape:connector-curvature="0" />
      <path
         style="fill:#fefefe"
         d="m 561.24836,164.38469 c -0.4902,-2.03468 -4.25137,-12.13848 -8.35814,-22.45288 -6.52975,-16.39981 -7.308,-19.02865 -6.20088,-20.94622 1.61839,-2.80316 4.17484,-3.25965 6.36352,-1.13633 0.93149,0.90368 4.22875,9.9543 7.32727,20.11251 5.49694,18.02128 6.22228,23.29493 3.78473,27.51688 -1.11569,1.93244 -1.90802,1.09187 -2.9165,-3.09396 z"
         id="path4421"
         inkscape:connector-curvature="0" />
      <path
         style="fill:#fefefe"
         d="m 522.8493,124.78955 c 0.23019,-0.39872 1.3017,-1.44632 2.3811,-2.32799 3.15669,-2.57845 6.45959,-12.19472 5.51959,-16.07009 -1.0737,-4.42654 1.01075,-7.023645 4.17222,-5.19836 2.01155,1.16136 2.21502,1.81378 1.54947,4.96837 -1.05684,5.00927 -5.52255,15.78843 -7.30406,17.63018 -2.3223,2.40086 -7.61054,3.23606 -6.31832,0.99789 z"
         id="path4415"
         inkscape:connector-curvature="0" />
      <path
         style="fill:#fefefe"
         d="m 519.05965,99.220656 c 0.13535,-0.234409 1.35984,-1.142018 2.72111,-2.016898 3.10048,-1.992646 5.97542,-1.940293 8.12801,0.148001 2.13925,2.07537 0.537,5.150631 -2.84034,5.451601 -2.24327,0.19992 -8.56096,-2.6263 -8.00878,-3.582704 z"
         id="path4413"
         inkscape:connector-curvature="0" />
      <path
         style="fill:#007f7f"
         d="m 540.58666,115.9091 c -3.92792,-5.0785 -4.2133,-5.81976 -3.40456,-8.84345 1.09199,-4.08273 0.33724,-6.31652 -2.46261,-7.288506 -2.36831,-0.822177 -2.35475,-2.055047 0.0185,-1.681434 2.98507,0.469932 5.73177,2.75019 11.46835,9.52079 5.06051,5.97266 9.92615,13.07944 9.48176,13.84914 -0.0774,0.13408 -0.94253,-0.73721 -1.92251,-1.93614 -1.48833,-1.82088 -2.16861,-2.09602 -4.13064,-1.6706 -1.29188,0.28009 -2.8916,1.2032 -3.55494,2.0513 -1.20342,1.53862 -1.21549,1.52984 -5.49335,-4.0011 z"
         id="path4401"
         inkscape:connector-curvature="0" />
    </g>
    <path
       inkscape:connector-curvature="0"
       id="path3410"
       d="m 512.81486,35.383748 c -4.2246,-2.835221 -4.81484,-4.361019 -1.61239,-4.168046 1.98652,0.120112 1.95673,-0.0052 -0.55661,-2.331747 -5.92798,-5.487386 -11.09069,-7.992535 -17.58122,-8.531093 -8.87685,-0.736581 -14.69428,0.111477 -18.09762,2.638234 -1.62278,1.204822 -2.92421,1.769533 -2.89205,1.254904 0.10835,-1.734335 5.98033,-5.348818 9.52376,-5.862329 1.93368,-0.280234 6.87357,-0.297337 10.97753,-0.03802 7.43548,0.469586 7.48696,0.490538 14.61583,5.867321 5.43357,4.098169 7.24824,5.054372 7.54555,3.975973 0.70283,-2.549102 1.9036,-1.401811 2.32725,2.22355 0.22801,1.951626 0.58216,4.509934 0.7869,5.685141 0.45805,2.629017 -0.19346,2.536674 -5.03694,-0.713882 z"
       style="fill:#fe0000" />
    <path
       inkscape:connector-curvature="0"
       id="path4370"
       d="m 356.42435,132.18172 c -0.0768,-0.0712 -0.30779,-0.13047 -0.40038,-0.18945 -1.03263,-0.23604 -9.10514,-0.69525 -15.64063,-0.73242 l -26.98437,0.21484 -32.33204,0.25976 37.67774,0.22071 z"
       style="fill:#000000" />
    <g
       id="g4450"
       transform="matrix(-0.35323976,-0.8742735,0.8742735,-0.35323976,591.2184,479.28186)">
      <path
         id="path4452"
         d="m 445.67188,14.066406 c -1.0313,0.13162 -1.62535,2.616181 -1.10547,6.244141 0.58094,4.05414 1.36234,5.22178 7.53906,11.25 5.61457,5.47963 6.65321,6.925594 5.59961,7.802734 -0.71131,0.59218 -1.42301,2.15325 -1.58203,3.46875 -0.23068,1.90836 -1.23451,2.752611 -4.96289,4.181641 -6.43222,2.46538 -8.87891,5.428506 -8.87891,10.753906 0,3.87301 0.46174,4.723662 5.375,9.919922 5.78363,6.11675 9.54008,8.240234 14.58008,8.240234 2.66058,0 3.26735,0.389371 3.63867,2.337891 0.25346,1.33004 -0.10298,2.794414 -0.82617,3.396484 -2.73232,2.27471 -0.38023,7.980423 3.79101,9.195313 3.89679,1.13496 4.28321,1.146889 4.28321,0.130859 0,-0.48262 -1.66004,-1.814824 -3.68946,-2.958984 -3.44607,-1.94286 -3.60183,-2.207996 -2.34375,-4.009766 1.05504,-1.511 2.17628,-1.869034 5.16797,-1.652343 5.16441,0.374039 7.40821,-1.712686 7.40821,-6.890626 0,-5.279939 -3.12198,-8.372453 -7.88672,-7.814453 -1.94532,0.22782 -3.33099,-0.0189 -3.33399,-0.59375 -0.003,-0.54099 -1.48968,-3.887647 -3.30469,-7.435547 -1.81499,-3.547899 -3.18015,-6.554873 -3.0332,-6.683593 0.14696,-0.12872 2.45596,-1.574008 5.12891,-3.210938 2.67294,-1.63693 5.11272,-3.776816 5.42187,-4.753906 0.90363,-2.85599 -1.86595,-6.96319 -8.63476,-12.8125 -7.8814,-6.81075 -15.32999,-14.248391 -16.73828,-16.712891 -0.58591,-1.02534 -1.14451,-1.452418 -1.61328,-1.392578 z m 11.0371,41.564453 c 0.7046,0.0323 1.48271,1.195112 2.25586,3.419922 1.18239,3.40241 1.05525,3.442693 -1.66406,0.539063 -1.17149,-1.25089 -1.84639,-2.732712 -1.5,-3.294922 0.28265,-0.45877 0.58793,-0.678733 0.9082,-0.664063 z"
         style="fill:#000000"
         inkscape:connector-curvature="0" />
      <path
         id="path4454"
         d="m 470.55364,75.785841 c -3.28481,-2.0611 -3.54982,-2.77102 -2.06993,-5.54488 0.65735,-1.2321 1.95901,-1.81337 4.06077,-1.81337 3.89108,0 6.43487,2.63758 6.02314,6.24522 -0.38625,3.38433 -3.66779,3.84009 -8.01398,1.11303 z"
         style="fill:#fefefe"
         inkscape:connector-curvature="0" />
      <path
         id="path4456"
         d="m 462.44883,71.071471 c -0.21238,-0.6807 -0.59009,-3.02343 -0.83933,-5.20607 -0.24924,-2.18263 -1.35446,-5.83606 -2.45604,-8.11872 -1.6036,-3.32294 -1.94778,-5.52207 -1.72658,-11.03157 0.24749,-6.16389 0.47115,-6.88127 2.14545,-6.88127 1.72121,0 1.84417,0.51943 1.55344,6.5625 -0.28947,6.01678 -0.0314,7.12382 3.10396,13.31252 3.90209,7.70221 4.14006,11.81183 0.71225,12.30011 -1.15884,0.16507 -2.28075,-0.25681 -2.49315,-0.9375 z"
         style="fill:#fefefe"
         inkscape:connector-curvature="0" />
      <path
         id="path4458"
         d="m 444.76391,58.275651 c -3.31052,-3.66952 -0.86147,-7.51815 6.63085,-10.42021 l 4.90654,-1.90049 0,4.49842 c 0,3.70486 -0.46241,4.94283 -2.62123,7.01757 -3.0411,2.92266 -6.70693,3.25351 -8.91616,0.80471 z"
         style="fill:#fefefe"
         inkscape:connector-curvature="0" />
      <path
         id="path4460"
         d="m 462.15875,46.161961 0.48143,-5.39062 -8.25574,-7.96875 c -7.57819,-7.31476 -8.30775,-8.33777 -8.8895,-12.46518 -0.58061,-4.11927 0.23434,-7.3497 1.18347,-4.69124 0.8729,2.44494 4.58547,6.29598 13.45101,13.95273 9.35094,8.07596 12.57565,12.28371 11.65175,15.20374 -0.43704,1.38128 -8.03986,6.74995 -9.55892,6.74995 -0.29971,0 -0.32828,-2.42578 -0.0635,-5.39063 z"
         style="fill:#fefefe"
         inkscape:connector-curvature="0" />
      <path
         id="path4462"
         d="m 455.83401,73.676741 c -3.9228,-1.73486 -12.61682,-11.22753 -12.61682,-13.77583 0,-1.95222 0.10223,-1.98361 1.7091,-0.52487 2.19313,1.99096 5.61261,1.9828 7.81728,-0.0186 1.63474,-1.48404 1.90798,-1.39679 4.98013,1.59016 2.52684,2.45675 3.2505,3.91253 3.2505,6.53894 0,3.73583 1.33851,5.62859 3.98039,5.62859 0.95557,0 1.47748,0.42188 1.1598,0.9375 -0.81504,1.32288 -6.94613,1.09873 -10.28038,-0.37585 z"
         style="fill:#007f7f"
         inkscape:connector-curvature="0" />
    </g>
  </g>
</svg>
