<?xml version="1.0" encoding="UTF-8" standalone="no"?>
<!-- Created with Inkscape (http://www.inkscape.org/) -->

<svg
   xmlns:dc="http://purl.org/dc/elements/1.1/"
   xmlns:cc="http://creativecommons.org/ns#"
   xmlns:rdf="http://www.w3.org/1999/02/22-rdf-syntax-ns#"
   xmlns:svg="http://www.w3.org/2000/svg"
   xmlns="http://www.w3.org/2000/svg"
   xmlns:sodipodi="http://sodipodi.sourceforge.net/DTD/sodipodi-0.dtd"
   xmlns:inkscape="http://www.inkscape.org/namespaces/inkscape"
   id="svg3396"
   version="1.1"
   inkscape:version="0.91 r13725"
   width="650"
   height="325"
   viewBox="0 0 650 325"
   sodipodi:docname="bb950500.svg">
  <metadata
     id="metadata3402">
    <rdf:RDF>
      <cc:Work
         rdf:about="">
        <dc:format>image/svg+xml</dc:format>
        <dc:type
           rdf:resource="http://purl.org/dc/dcmitype/StillImage" />
        <dc:title></dc:title>
      </cc:Work>
    </rdf:RDF>
  </metadata>
  <defs
     id="defs3400" />
  <sodipodi:namedview
     pagecolor="#b6b6b6"
     bordercolor="#666666"
     borderopacity="1"
     objecttolerance="10"
     gridtolerance="10"
     guidetolerance="10"
     inkscape:pageopacity="0"
     inkscape:pageshadow="2"
     inkscape:window-width="1662"
     inkscape:window-height="806"
     id="namedview3398"
     showgrid="false"
     inkscape:zoom="1.4483236"
     inkscape:cx="272.10673"
     inkscape:cy="157.41109"
     inkscape:window-x="0"
     inkscape:window-y="0"
     inkscape:window-maximized="0"
     inkscape:current-layer="svg3396" />
  <g
     id="g3416"
     transform="translate(20.794382,26.650971)">
    <path
       style="fill:#fefefe"
       d="m 91.588789,245.15625 0,-3.28125 253.738331,0 253.73833,0 0,3.28125 0,3.28125 -253.73833,0 -253.738331,0 0,-3.28125 z m 458.279361,-5.63169 c -0.29812,-0.7793 1.1839,-4.32464 3.30473,-7.90567 l 3.84524,-6.49272 -5.13949,-7.18577 c -4.19534,-5.86572 -5.02815,-7.64258 -4.53337,-9.67246 0.57077,-2.34169 1.84809,-3.84608 3.29313,-3.87859 0.3511,-0.008 2.08288,1.77862 3.84838,3.97003 3.15054,3.91054 3.21944,4.18629 3.71824,14.882 0.43135,9.24903 0.27937,11.12722 -1.00458,12.41518 -1.18161,1.1853 -1.26583,1.76532 -0.38465,2.64925 1.94189,1.94795 1.25612,2.63169 -2.63948,2.63169 -2.49481,0 -3.95025,-0.47734 -4.30815,-1.41294 z m 9.27749,-10.54194 c -0.1101,-6.57325 -0.66491,-16.43851 -1.2329,-21.92279 -1.52951,-14.76838 0.73655,-20.81831 6.61552,-17.66215 1.89662,1.01822 1.95865,1.53542 1.43994,12.00506 -0.29813,6.01756 -0.64845,16.62698 -0.77848,23.57648 l -0.23642,12.63547 2.72663,0.48953 c 1.49966,0.26925 2.90152,1.01687 3.11527,1.6614 0.28364,0.85531 -1.21038,1.1714 -5.53038,1.17013 l -5.919,-0.002 -0.20018,-11.95136 z m 8.1441,-34.52555 c 0,-2.4507 0.007,-2.45287 5.69598,-1.79052 4.49715,0.52359 6.47066,0.31273 9.37679,-1.00185 2.72547,-1.23286 3.95358,-1.3914 4.73171,-0.61083 2.14603,2.15273 -0.96369,3.77514 -8.4082,4.38675 -3.95487,0.32491 -8.13693,0.78861 -9.29347,1.03043 -1.7567,0.3673 -2.10281,0.0358 -2.10281,-2.01398 z m 0,-5.48278 c 0,-2.34321 3.84276,-6.16179 6.20081,-6.16179 1.61245,0 1.73335,5.72855 0.15433,7.3125 -0.61682,0.61875 -2.29906,1.125 -3.73831,1.125 -2.14736,0 -2.61683,-0.40826 -2.61683,-2.27571 z M 9.3457948,182.3545 l 0,-3.292 37.4423922,0 37.442393,0 -0.292859,3.04687 -0.292858,3.04688 -37.149534,0.24513 -37.1495342,0.24514 0,-3.29202 z M 74.77157,176.95312 c 0.0029,-0.64453 0.432505,-2.71506 0.954752,-4.60119 0.98234,-3.54777 -1.234849,-16.77495 -5.632483,-33.60193 -2.232006,-8.54048 -2.286431,-10.23574 -0.414673,-12.9164 1.75275,-2.51022 4.26028,-2.67907 6.294845,-0.42388 1.488195,1.64958 2.063602,5.43791 4.446975,29.27778 0.592816,5.92969 1.463781,11.25628 1.935478,11.83688 1.05582,1.29958 -4.61404,11.60062 -6.385167,11.60062 -0.662716,0 -1.202593,-0.52734 -1.199727,-1.17188 z m 485.50055,-7.9831 c -0.51857,-0.37882 -3.71873,-3.85283 -7.11147,-7.72002 -8.42794,-9.60653 -10.15546,-13.125 -6.4442,-13.125 1.21309,0 2.29862,1.06117 3.13182,3.06152 1.3723,3.29464 6.01317,7.78372 11.9022,11.51292 4.05516,2.56791 4.36514,3.34443 2.20149,5.51484 -1.62992,1.63501 -2.29049,1.77068 -3.67984,0.75574 z m -18.68331,-3.26019 c -1.54206,-0.53114 -3.24653,-1.07392 -3.7877,-1.20617 -0.54118,-0.13224 -2.94566,-3.6272 -5.34329,-7.76654 -2.39764,-4.13935 -4.89878,-7.86636 -5.5581,-8.28224 -0.65932,-0.41588 -5.20006,-0.62256 -10.09054,-0.45929 -8.07891,0.26971 -9.05565,0.11519 -10.68448,-1.69026 -1.44129,-1.59758 -1.61415,-2.48691 -0.8818,-4.53684 l 0.9109,-2.54974 10.09023,0.28924 c 5.54963,0.15908 11.07125,0.66338 12.27028,1.12068 1.34307,0.51223 4.18689,4.2049 7.40725,9.61822 2.87496,4.83273 6.69303,10.21196 8.4846,11.95386 1.79158,1.74188 3.25741,3.50618 3.25741,3.92066 0,0.97692 -2.54391,0.80457 -6.07476,-0.41158 z m 19.61207,-4.48271 c -1.16662,-1.89353 0.56869,-6.27855 2.90771,-7.34761 3.5486,-1.62191 4.11573,-1.33681 4.11573,2.06894 0,4.53596 -5.1133,8.37901 -7.02344,5.27867 z M 87.407093,149.66472 c -1.66813,-1.22358 -1.672386,-1.43196 -0.110062,-5.39062 0.89383,-2.26482 4.262387,-8.3366 7.485683,-13.49285 3.22329,-5.15625 6.844286,-11.0625 8.046646,-13.125 3.72392,-6.38792 10.70472,-15.52081 11.05584,-14.46419 0.18359,0.55246 -0.50096,1.92353 -1.52122,3.04683 -1.02026,1.1233 -5.89799,8.485 -10.83941,16.35934 -4.941407,7.87435 -9.66738,15.36263 -10.502149,16.64063 -0.834769,1.278 -1.289825,2.32364 -1.011234,2.32364 0.278592,0 5.200125,-7.48828 10.936743,-16.64062 5.73662,-9.15235 11.46836,-17.58985 12.73719,-18.75 3.02046,-2.76176 5.53187,-2.66986 7.45395,0.27277 2.0841,3.19069 1.69986,3.89429 -10.73054,19.6491 -5.69553,7.21875 -10.598152,14.22587 -10.894722,15.57137 -0.56457,2.56146 -4.154561,6.42924 -7.629934,8.22033 -2.533731,1.3058 -2.385678,1.3131 -4.476781,-0.22073 z m 359.224077,-22.99316 -2.17406,-1.76595 3.23875,-1.98055 c 4.05899,-2.48216 6.67837,-2.51548 8.84622,-0.11256 1.09687,1.21582 1.28176,1.875 0.5259,1.875 -0.64112,0 -2.23498,0.84375 -3.54191,1.875 -2.95031,2.32797 -4.14003,2.34679 -6.8949,0.10906 z M 494.08102,125 c -1.04359,-1.04684 -0.6951,-4.84467 0.51329,-5.59384 0.62498,-0.38747 5.98713,-0.75075 11.91589,-0.80729 5.92875,-0.0565 11.7258,-0.44644 12.88235,-0.86643 1.60649,-0.58339 2.1028,-0.41897 2.1028,0.69664 0,2.284 -1.60878,2.7984 -10.97421,3.50895 -5.98102,0.45377 -9.2648,1.14021 -10.40466,2.175 -1.6985,1.54192 -4.9118,2.01414 -6.03546,0.88697 z m -35.90954,-3.35937 c -0.51476,-0.64454 -1.88877,-3.07032 -3.05337,-5.39063 -2.80148,-5.5816 -10.076,-16.21135 -11.74075,-17.155959 -2.26827,-1.287057 -0.99435,-6.281541 1.6022,-6.281541 0.37427,0 4.10484,4.746094 8.29017,10.54688 4.18533,5.80078 8.63145,11.08769 9.88027,11.74869 1.24881,0.66099 2.27058,2.00196 2.27058,2.97991 0,3.71558 -5.1164,6.22304 -7.2491,3.55265 z m 38.79116,-4.25313 c -1.95713,-0.24714 -2.5701,-0.83402 -2.5701,-2.46072 0,-2.6239 2.71929,-5.23928 5.44743,-5.23928 1.68203,0 2.02921,0.54174 2.02921,3.16646 0,3.7198 -1.36473,4.98078 -4.90654,4.53354 z m -361.0475,-5.59062 c 2.35615,-9.81312 2.54913,-12.084961 1.42669,-16.795739 -1.24265,-5.215284 -0.80571,-7.813641 1.3139,-7.813641 1.67125,0 2.31631,1.676223 3.04785,7.919897 0.7045,6.012973 -2.75766,19.267603 -5.03278,19.267603 -1.02665,0 -1.21796,-0.65269 -0.75566,-2.57812 z m 309.86052,-7.28829 c -0.6502,-0.7859 -1.00119,-1.61046 -0.77999,-1.83236 0.22122,-0.2219 0.91555,0.4211 1.54298,1.42891 1.35683,2.17942 0.90432,2.41871 -0.76299,0.40345 z m 5.02473,-5.805749 -4.61452,-6.359091 0.0379,-11.639952 c 0.0437,-13.405906 0.98494,-14.954437 4.66358,-7.672296 2.55335,5.054526 3.003,8.036383 1.36501,9.051883 -1.10258,0.683562 -0.28252,13.414274 0.94928,14.736796 0.37213,0.399535 2.95821,-0.318956 5.74684,-1.596647 2.78862,-1.27769 6.81695,-2.601205 8.95184,-2.941136 3.4844,-0.554808 4.04487,-0.368133 5.47686,1.82419 3.54754,5.431162 -0.99251,9.280032 -12.25851,10.392242 l -5.70377,0.5631 -4.61452,-6.359089 z M 67.800726,102.32566 C 67.498483,101.3704 62.002852,95.426869 55.588215,89.11782 49.173576,82.808768 43.925236,77.473158 43.925236,77.260908 c 0,-0.212249 0.827083,-0.385908 1.837962,-0.385908 1.01088,0 3.879528,1.792969 6.374775,3.984375 2.495246,2.191406 7.782735,6.726562 11.749976,10.078125 6.974526,5.89215 8.868496,8.760122 7.737505,11.71665 -0.752405,1.96687 -3.164014,1.75974 -3.824728,-0.32849 z M 393.64488,98.25 c -0.61683,-0.61875 -1.1215,-1.432172 -1.1215,-1.807603 0,-0.375441 4.73131,-4.117669 10.51402,-8.316075 5.78271,-4.198406 11.05315,-8.658421 11.71209,-9.911144 1.38224,-2.627791 4.07114,-2.951828 6.26155,-0.754572 2.78259,2.791297 1.35074,5.254893 -5.12317,8.814662 -7.63688,4.199247 -16.12327,10.042854 -17.10252,11.776554 -0.91404,1.618256 -3.62079,1.722609 -5.14047,0.198178 z m 8.30217,-1.952784 c 0.21418,-0.145904 1.23054,-0.884185 2.25857,-1.640625 1.72899,-1.272194 1.77297,-1.252299 0.58651,0.265284 -0.70547,0.902344 -1.72182,1.640625 -2.25857,1.640625 -0.53675,0 -0.80067,-0.119381 -0.58651,-0.265284 z m 20.59508,-2.579603 c -2.47442,-4.071681 -2.50764,-6.699248 -0.11221,-8.873863 1.21204,-1.100306 1.86916,-1.285771 1.86916,-0.527547 0,0.643117 0.84113,2.241959 1.86916,3.55298 2.32072,2.959534 2.33948,4.152965 0.10872,6.916445 l -1.76045,2.18085 -1.97438,-3.248865 z m -64.08367,-2.686615 c -2.55334,-5.054526 -3.003,-8.036383 -1.36501,-9.051883 1.10258,-0.683562 0.28253,-13.414276 -0.94928,-14.736795 -0.37213,-0.399537 -2.9582,0.318955 -5.74683,1.596648 -2.78862,1.277693 -6.81695,2.601203 -8.95184,2.941134 -3.4844,0.554808 -4.04487,0.368133 -5.47686,-1.824193 -3.54754,-5.431161 0.99251,-9.280023 12.25851,-10.392242 l 5.70376,-0.563096 4.61453,6.359089 4.61452,6.35909 -0.0379,11.639952 c -0.0437,13.405904 -0.98494,14.954439 -4.66358,7.672296 z m 10.30357,3.883396 c -1.21084,-1.214622 -0.31157,-2.185262 4.10412,-4.429851 4.98117,-2.532044 7.95243,-2.975562 8.96154,-1.337687 0.68143,1.106026 13.37249,0.283404 14.69089,-0.952249 0.39829,-0.373294 -0.31796,-2.967449 -1.59168,-5.764787 -1.27371,-2.797338 -2.5931,-6.838257 -2.93197,-8.979819 -0.55308,-3.495291 -0.36699,-4.057504 1.81851,-5.493972 5.41969,-3.562213 9.2506,0.994841 10.36335,12.327714 l 0.56483,5.752493 -6.34276,4.555183 -6.34277,4.555184 -11.37818,0.153591 c -6.25799,0.08447 -11.62014,-0.08916 -11.91588,-0.3858 z M 65.527025,91.519928 c -2.028322,-2.165798 -2.0559,-2.394812 -0.623068,-5.174262 1.818251,-3.527097 2.364665,-3.580716 5.23682,-0.513893 2.082649,2.223806 2.144153,2.56888 0.863845,4.84671 -1.873758,3.333651 -2.983877,3.504183 -5.477597,0.841445 z m 99.426255,-9.431117 c -3.59813,-3.327247 -7.6986,-6.545495 -9.11215,-7.151663 -3.07729,-1.319621 -3.3097,-3.224118 -0.57276,-4.693462 3.60776,-1.936847 8.12073,-0.357149 13.46532,4.713331 6.15115,5.83568 5.59403,6.184194 -0.93765,0.586564 -3.31345,-2.839618 -5.9926,-4.309134 -8.51198,-4.668828 l -3.67658,-0.524908 3.82377,1.153202 c 2.10307,0.634262 6.01772,3.006004 8.69922,5.270539 2.68151,2.264535 5.2035,3.741097 5.60443,3.28125 0.40093,-0.459848 1.51833,-4.422024 2.48313,-8.804836 2.60988,-11.856106 7.06118,-15.377293 10.96432,-8.673301 1.76467,3.030953 1.76282,3.056759 -0.66984,9.371936 -1.34165,3.482938 -3.58713,8.430387 -4.98995,10.99433 -2.33444,4.266654 -2.86739,4.684327 -6.28891,4.92855 -3.44553,0.245936 -4.25068,-0.206961 -10.28037,-5.782704 z M 183.5941,75.55212 c 2.34676,-5.626021 4.11803,-10.378398 3.93616,-10.560836 -0.18187,-0.18244 -2.48721,4.811328 -5.12299,11.097261 -2.63578,6.285933 -4.40705,11.03831 -3.93616,10.560838 0.47089,-0.477474 2.77623,-5.471241 5.12299,-11.097263 z m -49.08539,5.462993 -2.26571,-2.422387 2.6222,-2.265113 c 3.28496,-2.837603 5.37095,-2.862573 7.96255,-0.09531 2.64848,2.827985 2.58939,3.141897 -1.00531,5.340477 -3.92529,2.400772 -4.59435,2.349757 -7.31373,-0.557662 z m 98.10376,0.656444 -2.17406,-1.765944 3.23875,-1.980552 c 4.05899,-2.482153 6.67837,-2.515483 8.84621,-0.112561 1.09688,1.215825 1.28177,1.875 0.52591,1.875 -0.64112,0 -2.23498,0.84375 -3.54191,1.875 -2.95031,2.327969 -4.14003,2.346787 -6.8949,0.109057 z M 123.49954,76.501918 c -1.61293,-2.866884 -4.83085,-7.199839 -7.15095,-9.628789 -2.53295,-2.651792 -3.87868,-4.757002 -3.3682,-5.269079 1.60415,-1.609157 4.69307,0.374448 8.16324,5.242152 1.9105,2.679901 4.75161,6.249224 6.31359,7.931827 l 2.83996,3.059279 -1.93252,1.938564 -1.93252,1.938563 -2.9326,-5.212517 z m 90.70934,0.253123 c -0.87563,-1.612851 -2.99728,-5.033696 -4.71479,-7.601875 -2.36403,-3.53491 -2.85881,-4.92939 -2.03646,-5.739416 1.32958,-1.309659 3.82737,1.499667 7.10872,7.995333 1.2213,2.417648 2.64911,4.661415 3.17289,4.98615 1.47776,0.916154 1.12196,3.292267 -0.49298,3.292267 -0.79493,0 -2.16176,-1.319606 -3.03738,-2.932459 z m 29.9439,-0.114416 c -0.51476,-0.644531 -1.88877,-3.070313 -3.05337,-5.390625 -2.80148,-5.581601 -10.076,-16.211353 -11.74075,-17.155959 -2.26827,-1.287053 -0.99435,-6.281541 1.6022,-6.281541 0.37427,0 4.10484,4.746094 8.29017,10.546875 4.18533,5.800781 8.63145,11.087692 9.88027,11.748691 1.24881,0.660999 2.27058,2.001959 2.27058,2.979911 0,3.71559 -5.1164,6.223041 -7.2491,3.552648 z m -23.91315,-2.34375 c -0.2373,-0.386719 -0.73298,-2.724043 -1.10151,-5.194055 -0.77862,-5.218595 -4.09594,-8.381743 -10.84634,-10.342273 -4.21853,-1.225193 -5.95741,-3.903962 -3.21857,-4.958239 2.21557,-0.852849 5.66929,0.294954 8.77472,2.916168 1.52738,1.289214 3.11214,2.344024 3.5217,2.344024 0.40955,0 -0.0717,-0.656086 -1.0695,-1.457968 -1.72931,-1.389793 -1.71206,-1.40816 0.36871,-0.392794 1.20056,0.585847 1.9327,1.316103 1.62696,1.622793 -0.30573,0.30669 0.28717,1.457804 1.31756,2.558031 C 221.7492,63.673161 223.47249,75 221.68363,75 c -0.55691,0 -1.20671,-0.316406 -1.444,-0.703125 z M 356.0761,60.703125 c -4.18533,-5.800781 -8.63145,-11.087693 -9.88027,-11.748691 -2.6196,-1.386553 -2.94263,-4.083856 -0.75222,-6.28111 2.7826,-2.791298 5.23853,-1.354958 8.7872,5.139176 4.18617,7.660742 10.01157,16.173655 11.73987,17.155959 2.26618,1.288024 0.99075,6.281541 -1.60441,6.281541 -0.37427,0 -4.10484,-4.746094 -8.29017,-10.546875 z M 209.53272,62.625 c -2.92323,-2.932369 0.29118,-3.614444 3.68151,-0.78119 l 2.20634,1.84381 -2.38318,0.03119 c -1.31075,0.01716 -2.88785,-0.47506 -3.50467,-1.09381 z m 153.17794,-2.902011 c -1.18217,-1.974664 -1.16225,-1.994642 0.44704,-0.448436 0.92638,0.890067 1.48316,1.8201 1.23729,2.06674 -0.24587,0.246639 -1.00382,-0.481598 -1.68433,-1.618304 z m -130.9537,-0.214395 c -0.6502,-0.785897 -1.00119,-1.610462 -0.77999,-1.832364 0.22122,-0.221902 0.91555,0.421106 1.54297,1.428906 1.35684,2.179427 0.90433,2.418712 -0.76298,0.403458 z m 72.34542,0.711425 C 302.04771,58.8564 300.24484,53.79079 299.64753,47.703028 l -0.60864,-6.203221 6.32168,-4.616063 6.32169,-4.616063 11.60369,0.03803 c 13.36414,0.04381 14.90785,0.988015 7.64839,4.678155 -5.03877,2.561322 -8.01134,3.012386 -9.02368,1.369273 -0.68143,-1.106026 -13.37249,-0.283404 -14.69089,0.952249 -0.39829,0.373294 0.31796,2.967449 1.59167,5.764787 1.27371,2.797338 2.59076,6.823564 2.92677,8.947167 0.53085,3.35502 0.3256,4.061574 -1.56598,5.390625 -2.33551,1.640967 -4.40391,1.917684 -6.06985,0.812047 z m -67.32069,-6.517179 -4.61452,-6.35909 0.0379,-11.639952 c 0.0437,-13.405906 0.98494,-14.954437 4.66358,-7.672296 2.55335,5.054526 3.003,8.036383 1.36501,9.051883 -1.10258,0.683562 -0.28252,13.414276 0.94928,14.736795 0.37213,0.399537 2.95821,-0.318955 5.74683,-1.596648 2.78863,-1.277693 6.81696,-2.601203 8.95185,-2.941134 3.4844,-0.554808 4.04487,-0.368133 5.47686,1.824193 3.54754,5.431161 -0.99251,9.280023 -12.25851,10.392242 l -5.70377,0.563096 -4.61452,-6.359089 z m 45.94562,-3.663446 c -2.7826,-2.791297 -1.35074,-5.254893 5.12317,-8.814662 7.63688,-4.199247 16.12327,-10.042858 17.10251,-11.776551 1.28401,-2.273265 6.26198,-0.993851 6.26198,1.609425 0,0.375433 -4.73131,4.117666 -10.51402,8.316072 -5.78271,4.198406 -11.05315,8.658421 -11.7121,9.911144 -1.38223,2.627791 -4.07113,2.951828 -6.26154,0.754572 z m -3.28805,-6.855597 c 0,-0.643117 -0.84112,-2.241959 -1.86915,-3.55298 -2.32072,-2.959534 -2.33948,-4.152965 -0.10872,-6.916445 l 1.76044,-2.180848 1.97439,3.248863 c 2.47442,4.07168 2.50764,6.699248 0.1122,8.873863 -1.21203,1.100306 -1.86916,1.285771 -1.86916,0.527547 z M 352.80375,41.25 c -1.09688,-1.215825 -1.28176,-1.875 -0.5259,-1.875 0.64112,0 2.23498,-0.84375 3.54191,-1.875 2.95031,-2.327969 4.14003,-2.346787 6.8949,-0.109057 l 2.17406,1.765944 -3.23875,1.980552 c -4.05899,2.482153 -6.67838,2.515483 -8.84622,0.112561 z m -53.52692,-8.980053 c 0.8873,-0.929274 1.81443,-1.487794 2.0603,-1.241154 0.24586,0.246639 -0.4801,1.006954 -1.61327,1.68959 -1.96851,1.185861 -1.98843,1.165883 -0.44703,-0.448436 z"
       id="path3424"
       inkscape:connector-curvature="0" />
    <path
       style="fill:#007f7f"
       d="m 545.92169,207.37532 c -0.1446,-2.44942 1.64582,-6.26041 5.80675,-12.35997 2.77475,-4.06753 2.88583,-4.12814 3.43657,-1.875 0.90275,3.69323 2.02148,-11.45533 1.31113,-17.7537 -0.3815,-3.38251 -0.22981,-6.14753 0.39658,-7.22903 0.55792,-0.96325 1.02718,-1.23887 1.04281,-0.61248 0.0396,1.58948 3.32636,3.19053 5.12687,2.49745 2.4489,-0.94267 3.62953,-3.97477 2.26058,-5.80564 -1.00833,-1.34857 -0.91851,-1.33846 0.6116,0.0688 2.02374,1.86132 2.20407,5.0871 0.96465,17.2563 -0.76179,7.47956 -0.82788,7.63384 -2.87014,6.70042 -4.89138,-2.23563 -8.67726,4.48023 -7.6149,13.50824 0.61975,5.26664 -0.53684,6.41941 -3.57144,3.55964 -1.76531,-1.6636 -2.53836,-1.86067 -4.07115,-1.03778 -1.04063,0.55868 -2.07445,1.96591 -2.29735,3.1272 l -0.40529,2.11143 -0.12727,-2.15593 z m -43.79089,-61.3597 c -1.06335,-1.16015 -3.87031,-6.00329 -6.23768,-10.76251 -4.63845,-9.32489 -5.43294,-14.16684 -2.6688,-16.26498 1.39137,-1.05614 1.46113,-1.04529 0.46729,0.0727 -1.48126,1.6663 -1.50506,4.91377 -0.0467,6.37666 1.55375,1.5586 4.95758,1.40796 6.35514,-0.28125 2.08918,-2.52518 3.24025,-1.50578 5.81178,5.14693 l 2.53304,6.55319 -2.30325,2.31045 c -2.68814,2.69654 -2.91336,4.85301 -0.75653,7.24373 1.2995,1.44043 1.32554,1.71445 0.16291,1.71445 -0.7611,0 -2.25383,-0.94922 -3.31717,-2.10938 z M 67.289723,123.46585 c 0,-2.35785 -0.652414,-7.10894 -1.449807,-10.55798 -0.797394,-3.44904 -1.323095,-8.01037 -1.168224,-10.1363 l 0.281582,-3.86532 1.659514,3.04688 c 1.747741,3.20885 3.302858,3.78774 5.162916,1.92187 1.567401,-1.5723 1.396972,-4.625775 -0.401988,-7.202175 -1.47834,-2.117222 -1.464493,-2.150203 0.46729,-1.113113 1.094925,0.587813 2.013369,1.159379 2.040987,1.270144 0.02762,0.110766 0.623005,5.685774 1.323082,12.388894 0.700077,6.70313 1.584626,13.24219 1.965666,14.53125 0.672532,2.27519 0.638511,2.29576 -1.163027,0.70313 -2.586894,-2.28692 -4.52294,-2.05008 -6.781001,0.82955 l -1.93699,2.47018 0,-4.28701 z m 390.857937,0.26299 c -1.08582,-1.74412 -1.03446,-1.80468 0.64053,-0.75536 4.58593,2.87291 10.01423,-4.34335 5.82619,-7.74521 -1.1124,-0.90359 -2.53576,-1.81449 -3.16303,-2.02424 -0.75092,-0.25108 -0.29832,-1.38534 1.32498,-3.32055 1.35601,-1.61656 2.61083,-3.2712 2.7885,-3.67696 0.17768,-0.40577 2.31001,-1.6763 4.73855,-2.82339 4.89251,-2.31093 6.31954,-5.160646 4.42806,-8.842686 -0.87041,-1.694397 -0.87197,-1.954943 -0.007,-1.139442 3.19648,3.013026 2.85629,14.430668 -0.6389,21.442748 -2.80114,5.61967 -9.05695,10.78125 -13.06682,10.78125 -0.92993,0 -2.22198,-0.85327 -2.87124,-1.89616 z M 123.01927,109.97301 c 0.71097,-2.72727 -3.18364,-7.10676 -5.86301,-6.59296 -1.26454,0.24249 -2.20298,-0.0295 -2.20298,-0.63848 0,-1.42699 11.64,-20.14711 13.99814,-22.51262 l 1.87148,-1.877332 3.7332,3.656768 c 3.35451,3.285829 3.59245,3.812792 2.34557,5.194885 -0.76321,0.845965 -1.38765,2.708538 -1.38765,4.139052 0,1.767506 -1.36557,4.12453 -4.26165,7.355736 -2.34392,2.615141 -4.49498,5.925081 -4.78017,7.355451 -0.28518,1.43036 -1.28211,3.29386 -2.2154,4.14111 -1.58483,1.43874 -1.66655,1.4241 -1.23753,-0.22161 z M 422.5904,82.59062 c 2.86396,-4.600263 -4.32981,-10.045533 -7.72107,-5.844408 -0.90078,1.115881 -1.80884,2.543699 -2.01794,3.172929 -0.2503,0.753261 -1.38103,0.299249 -3.3102,-1.329122 -1.61154,-1.360247 -3.26101,-2.618998 -3.66552,-2.797223 -0.4045,-0.178225 -1.67107,-2.317231 -2.81459,-4.753346 -2.30373,-4.907808 -5.14457,-6.339295 -8.81514,-4.44191 -1.68912,0.873136 -1.94885,0.8747 -1.13589,0.0068 3.00364,-3.206475 14.38572,-2.865217 21.37595,0.640894 5.60217,2.809894 10.74766,9.085252 10.74766,13.107658 0,0.932824 -0.85061,2.22892 -1.89025,2.880213 -1.73868,1.089219 -1.79906,1.037699 -0.75301,-0.642525 z M 244.12896,78.728842 c -1.08582,-1.744116 -1.03446,-1.804684 0.64053,-0.755367 4.58593,2.872912 10.01423,-4.34334 5.82619,-7.745204 -1.1124,-0.903586 -2.53576,-1.814492 -3.16303,-2.024235 -0.75092,-0.251087 -0.29832,-1.385346 1.32498,-3.320555 1.35601,-1.616563 2.61083,-3.271199 2.7885,-3.676968 0.17768,-0.40577 2.31001,-1.676291 4.73854,-2.823379 4.89252,-2.310929 6.31955,-5.160647 4.42807,-8.842689 -0.87041,-1.694398 -0.87197,-1.954944 -0.007,-1.139442 3.19648,3.013021 2.85629,14.430668 -0.6389,21.442747 -2.80114,5.619671 -9.05695,10.78125 -13.06682,10.78125 -0.92993,0 -2.22198,-0.85327 -2.87125,-1.896158 z m 89.68044,-9.119467 c -3.45299,-6.7778 -0.91349,-19.133684 5.316,-25.864946 4.83633,-5.225882 10.02936,-6.693007 12.07276,-3.410772 1.08583,1.744117 1.03447,1.804685 -0.64052,0.755368 -4.58593,-2.872912 -10.01423,4.34334 -5.8262,7.745204 1.11241,0.903586 2.53577,1.814492 3.16304,2.024235 0.75092,0.251087 0.29832,1.385346 -1.32498,3.320555 -1.35601,1.616563 -2.61083,3.271198 -2.7885,3.676968 -0.17768,0.40577 -2.31001,1.676291 -4.73855,2.823379 -4.8112,2.272523 -6.33646,5.184085 -4.50959,8.608314 0.57582,1.079277 0.83666,1.96232 0.57965,1.96232 -0.25701,0 -0.84341,-0.738281 -1.30311,-1.640625 z M 188.39269,63.049312 c -0.32446,-1.025491 -1.45253,-2.647612 -2.50682,-3.604712 -1.85515,-1.684136 -2.01196,-1.685451 -4.86857,-0.04086 l -2.95169,1.699328 1.73442,-1.922494 c 2.21824,-2.458795 5.94929,-3.609875 14.12521,-4.357827 3.59813,-0.329165 7.20691,-0.781288 8.01951,-1.004719 1.04395,-0.287043 1.45528,0.215878 1.40187,1.71404 -0.048,1.344794 0.69351,2.459464 2.02722,3.04766 2.01776,0.889876 2.8656,3.649205 1.40037,4.55759 -0.38632,0.239514 -4.54748,0.737214 -9.247,1.105999 -8.0157,0.629017 -8.5811,0.555111 -9.13452,-1.19401 z m 107.40172,-0.590643 c -5.6967,-1.429794 -8.52914,-2.867065 -11.99933,-6.088843 -5.20696,-4.834216 -6.673,-10.052653 -3.40014,-12.102971 1.73868,-1.089218 1.79905,-1.037699 0.75301,0.642525 -2.86397,4.600263 4.32981,10.045533 7.72107,5.844408 0.90078,-1.115881 1.80884,-2.543699 2.01794,-3.172929 0.2503,-0.753261 1.38102,-0.299249 3.3102,1.329122 1.61153,1.360247 3.26101,2.618998 3.66552,2.797223 0.4045,0.178225 1.67107,2.317231 2.81459,4.753346 2.26543,4.826244 5.16793,6.356274 8.58149,4.523682 1.07592,-0.577611 1.95621,-0.839264 1.95621,-0.581452 0,0.91435 -3.32263,2.199132 -7.00935,2.710351 -2.05607,0.285105 -5.84112,-0.0094 -8.41121,-0.654462 z"
       id="path3420"
       inkscape:connector-curvature="0" />
    <path
       style="fill:#000000"
       d="M 42.857961,248.45584 76.837415,247.96875 55.007494,219.77687 C 43.001036,204.27133 32.341771,190.45492 31.320236,189.07374 c -1.797928,-2.43092 -2.186532,-2.51822 -12.149533,-2.72943 -5.660709,-0.12001 6.530233,-0.43642 27.090981,-0.70313 l 37.383179,-0.48493 0.292858,-3.04688 0.292859,-3.04687 -37.676038,-0.22182 -37.6760369,-0.22183 32.3305899,-0.2589 32.33059,-0.25891 1.065801,-4.9099 c 0.922143,-4.24809 0.765263,-6.36309 -1.16389,-15.69114 -1.226331,-5.92969 -3.110495,-14.21207 -4.187031,-18.40528 -1.076537,-4.19322 -2.371117,-11.3651 -2.876845,-15.9375 -0.505728,-4.57241 -1.338505,-10.00097 -1.850614,-12.06347 -0.512111,-2.0625 -0.941143,-5.9097 -0.953405,-8.54933 l -0.0223,-4.799329 -10.316118,-9.997806 c -5.67386,-5.498791 -10.064928,-10.405499 -9.757924,-10.903793 1.210347,-1.964504 4.31889,-0.692692 9.505642,3.889082 7.489601,6.61602 9.855314,8.132131 10.352862,6.634822 0.216879,-0.65267 1.442886,-2.43671 2.72446,-3.964534 2.615705,-3.118304 7.603998,-3.833254 9.633118,-1.380674 0.692576,0.837112 1.983812,1.188759 3.221165,0.877232 2.628995,-0.661897 4.192357,1.200038 4.907764,5.845052 0.634321,4.118535 -0.58901,3.589511 -2.130049,-0.921131 -1.284594,-3.760027 -3.780375,-4.055477 -3.353826,-0.397025 0.362013,3.104936 -4.593659,8.725568 -6.907849,7.834756 -1.266605,-0.487556 -1.264336,-0.317447 0.02031,1.522369 1.729078,2.476322 1.869469,5.542009 0.324752,7.091559 -1.860058,1.86587 -3.415175,1.28698 -5.162916,-1.92187 l -1.659516,-3.04688 -0.281582,3.86532 c -0.154871,2.12593 0.37083,6.68726 1.168224,10.1363 0.797393,3.44904 1.449807,8.20013 1.449807,10.55798 l 0,4.28701 1.93699,-2.47018 c 2.258061,-2.87963 4.194107,-3.11647 6.781001,-0.82955 1.801538,1.59263 1.835559,1.57206 1.163027,-0.70313 -0.38104,-1.28906 -1.227757,-7.66486 -1.881594,-14.16844 -0.653837,-6.50358 -1.521203,-12.409826 -1.927478,-13.124997 -0.57932,-1.019785 -0.480026,-1.060407 0.460249,-0.188297 0.701007,0.650193 1.691008,5.906424 2.383776,12.656254 0.651664,6.34933 1.816024,16.60673 2.587467,22.79423 0.771443,6.1875 1.901399,16.3125 2.511014,22.5 0.609614,6.1875 1.505807,11.73324 1.991538,12.32388 0.585784,0.71228 -0.07212,2.69908 -1.953944,5.90062 -1.560401,2.65472 -2.837093,4.99241 -2.837093,5.19486 0,0.20245 1.366823,0.50029 3.037384,0.66187 2.548794,0.24651 3.08583,0.7176 3.338559,2.92859 0.451382,3.9489 -1.262755,5.32499 -6.724022,5.39798 l -4.792108,0.064 -5.368176,6.73282 c -2.952496,3.70306 -7.704753,9.3314 -10.560571,12.50745 l -5.192396,5.77463 14.235967,18.36599 14.235967,18.366 4.913049,0 4.913048,0 0.290061,-3.51562 0.290061,-3.5156 229.175559,-0.23626 c 203.61058,-0.2099 229.11536,-0.39366 228.63579,-1.64731 -0.2972,-0.7769 1.18832,-4.329 3.30545,-7.90379 l 3.84524,-6.49272 -5.15509,-7.20759 c -2.8353,-3.96416 -5.41924,-8.26332 -5.74209,-9.55367 -0.71915,-2.87426 1.76746,-8.28235 6.79166,-14.77116 l 3.62948,-4.6875 0.0555,-11.71875 0.0555,-11.71875 -4.81754,-5.625 c -5.61456,-6.5556 -7.31756,-9.47303 -6.60978,-11.32326 0.57586,-1.50534 3.90449,-1.80711 4.75241,-0.43084 0.34975,0.56766 1.38763,0.52197 2.7993,-0.12325 1.2718,-0.58127 2.97766,-0.69845 3.93859,-0.27053 0.93231,0.41516 3.51008,0.64122 5.72838,0.50235 5.40914,-0.33864 7.64898,1.69887 7.64898,6.95803 0,2.74281 -0.56631,4.44225 -1.87673,5.63187 -1.79539,1.62988 -1.80552,1.78285 -0.23365,3.52942 1.2079,1.34213 1.61572,3.28831 1.53978,7.34783 -0.0897,4.79629 0.12524,5.52213 1.63551,5.52213 0.95636,0 2.57995,0.84375 3.60798,1.875 2.36116,2.36854 2.54699,8.94477 0.32244,11.41056 -1.47137,1.63093 -1.38188,1.71444 1.83746,1.71444 1.86129,0 4.87867,-0.71491 6.7053,-1.58869 3.09717,-1.48155 3.42597,-1.48352 4.87578,-0.0291 1.44981,1.45434 1.44321,1.68302 -0.0978,3.39117 -1.24878,1.38419 -3.40248,1.97535 -8.81604,2.41986 -10.86344,0.89202 -11.22435,1.02987 -11.74601,4.48627 -0.25228,1.67163 -0.68094,10.5276 -0.95257,19.67994 l -0.49387,16.64063 2.26051,0 c 1.24328,0 2.84125,0.83171 3.55105,1.84825 1.16698,1.67131 2.58128,1.87326 14.77262,2.10938 l 13.48213,0.26109 0,3.75 0,3.75 -295.32712,0.0184 c -162.42991,0.01 -280.036358,-0.20086 -261.347657,-0.46875 z m 556.207489,-3.29959 0,-3.28125 -253.73833,0 -253.738331,0 0,3.28125 0,3.28125 253.738331,0 253.73833,0 0,-3.28125 z m -41.1215,-4.96875 c 0,-0.4125 -0.49474,-1.24628 -1.09941,-1.85285 -0.84283,-0.84546 -0.75631,-1.4909 0.37074,-2.76562 1.22444,-1.38488 1.38711,-3.48788 0.97326,-12.58289 -0.49667,-10.91507 -0.49846,-10.92192 -3.87542,-14.83566 -3.63449,-4.2122 -6.19566,-4.45201 -6.93492,-0.64934 l -0.39466,2.03011 -0.12727,-2.07639 c -0.076,-1.23905 0.66205,-2.50015 1.83006,-3.12719 1.6203,-0.86987 2.34661,-0.68398 4.21798,1.07959 3.35385,3.16062 4.13904,1.50828 3.12311,-6.57217 -0.48033,-3.8204 -1.06479,-7.13822 -1.29879,-7.37295 -0.52087,-0.52251 -7.70474,10.50392 -8.51792,13.07405 -0.95433,3.01623 0.21034,5.77371 5.65232,13.38239 l 5.15509,7.20759 -3.84524,6.49272 c -2.12083,3.58103 -3.60285,7.12637 -3.30473,7.90567 0.56801,1.48487 8.0758,2.10119 8.0758,0.66294 z m 12.85125,-0.42188 c -0.21375,-0.64453 -1.61561,-1.39215 -3.11527,-1.6614 l -2.72663,-0.48953 0.23642,-12.63547 c 0.13003,-6.9495 0.48035,-17.55892 0.77848,-23.57648 0.51871,-10.46964 0.45668,-10.98684 -1.43994,-12.00506 -2.90148,-1.55767 -5.50714,-0.31932 -6.48868,3.08376 -0.67491,2.33994 -0.8799,2.53018 -0.94592,0.87794 -0.0861,-2.15451 2.85412,-5.85938 4.65005,-5.85938 0.54781,0 1.75043,0.40501 2.67248,0.90002 1.52421,0.81828 1.74759,0.20098 2.45962,-6.79688 1.24281,-12.21441 1.06386,-15.43478 -0.96123,-17.29734 -1.53011,-1.40731 -1.61993,-1.41742 -0.6116,-0.0688 1.36895,1.83087 0.18832,4.86297 -2.26058,5.80564 -1.80438,0.69457 -5.09283,-0.91176 -5.11276,-2.49745 -0.0102,-0.81359 -0.2387,-0.78386 -0.79991,0.10409 -1.06272,1.68148 -0.56734,28.49231 0.73055,39.53827 0.57556,4.89844 1.14526,14.49528 1.26601,21.32634 l 0.21953,12.42009 5.919,0.002 c 4.32001,9.4e-4 5.81402,-0.31479 5.53038,-1.17009 z m -12.09717,-4.00918 c -0.28774,-0.28864 -0.81032,0.23167 -1.16129,1.15625 -0.50717,1.33613 -0.39983,1.44381 0.52318,0.52481 0.63871,-0.63594 0.92586,-1.39241 0.63811,-1.68106 z m -1.98482,-27.80722 c -0.29834,-0.74787 -0.51979,-0.52573 -0.56463,0.56641 -0.0406,0.98827 0.1803,1.54199 0.49086,1.23047 0.31055,-0.31153 0.34374,-1.12013 0.0737,-1.79688 z M 56.152442,203.2026 c 2.869822,-3.22237 7.185409,-8.28463 9.590194,-11.24948 l 4.372333,-5.39062 -18.700037,0 -18.700037,0 8.642554,11.21034 c 4.753404,6.1657 8.852834,11.22796 9.109843,11.24949 0.257009,0.0215 2.815326,-2.59735 5.68515,-5.81973 z m 522.533578,-7.76198 c 7.44451,-0.61161 10.55423,-2.23402 8.4082,-4.38675 -0.77813,-0.78057 -2.00624,-0.62203 -4.73171,0.61083 -2.90613,1.31457 -4.87964,1.52544 -9.37679,1.00185 -5.68909,-0.66235 -5.69598,-0.66018 -5.69598,1.79052 0,2.0498 0.34611,2.38128 2.10281,2.01398 1.15654,-0.24182 5.3386,-0.70552 9.29347,-1.03043 z m -5.04114,-5.31562 c 1.57902,-1.58395 1.45812,-7.3125 -0.15433,-7.3125 -2.35805,0 -6.20081,3.81858 -6.20081,6.16179 0,1.86745 0.46947,2.27571 2.61683,2.27571 1.43925,0 3.12149,-0.50625 3.73831,-1.125 z M 80.195165,172.85251 c 1.952148,-3.40939 2.715874,-5.64552 2.161299,-6.32813 -0.471697,-0.5806 -1.342662,-5.90719 -1.935478,-11.83688 -2.383373,-23.83987 -2.95878,-27.6282 -4.446975,-29.27778 -2.034565,-2.25519 -4.542095,-2.08634 -6.294845,0.42388 -1.871758,2.68066 -1.817333,4.37592 0.414673,12.9164 4.397634,16.82698 6.614823,30.05416 5.632483,33.60193 -2.124267,7.67191 0.212779,7.9337 4.468843,0.50058 z m 483.756795,-4.63823 c 2.16365,-2.17041 1.85367,-2.94693 -2.20149,-5.51484 -5.88903,-3.7292 -10.5299,-8.21828 -11.9022,-11.51292 -0.8332,-2.00035 -1.91873,-3.06152 -3.13182,-3.06152 -3.71126,0 -1.98374,3.51847 6.4442,13.125 8.24994,9.40365 8.31664,9.44669 10.79131,6.96428 z m 2.56326,-7.57833 c 1.78162,-1.61739 2.43091,-7.82345 0.8185,-7.82345 -2.54911,0 -5.61665,2.39433 -6.14209,4.79413 -0.99862,4.56093 1.85054,6.1822 5.32359,3.02932 z m -9.92761,-5.95637 c -0.0489,-4.03719 -1.90672,-5.56421 -4.7961,-3.94216 -1.32022,0.74113 -1.12802,1.29647 1.47982,4.27592 1.6484,1.88328 3.07915,3.42416 3.17946,3.42416 0.1003,0 0.16187,-1.69106 0.13682,-3.75792 z M 71.625454,102.65415 C 72.756445,99.697622 70.862475,96.82965 63.887949,90.9375 59.920708,87.585937 54.633219,83.050781 52.137973,80.859375 49.642726,78.667969 46.774078,76.875 45.763198,76.875 c -1.010879,0 -1.837962,0.173659 -1.837962,0.385908 0,0.21225 5.24834,5.54786 11.662979,11.856912 6.414637,6.309049 11.910268,12.25258 12.212511,13.20784 0.660714,2.08823 3.072323,2.29536 3.824728,0.32849 z M 71.004622,90.678483 c 1.280308,-2.27783 1.218804,-2.622904 -0.863845,-4.84671 -2.872155,-3.066823 -3.418569,-3.013204 -5.23682,0.513893 -1.432832,2.77945 -1.405254,3.008464 0.623068,5.174261 2.49372,2.662739 3.603839,2.492207 5.477597,-0.841444 z M 541.58881,166.66568 c -4.93699,-1.66818 -5.38887,-2.11711 -10.21147,-10.14453 l -4.7418,-7.89296 -11.21496,0.2906 -11.21495,0.29061 -2.47408,-2.65157 c -6.2728,-6.72284 -13.19076,-25.13692 -10.15153,-27.02113 0.54679,-0.33898 0.11148,-1.67883 -1.0633,-3.27276 -1.57468,-2.13653 -1.8897,-3.58332 -1.51203,-6.94444 0.58765,-5.22989 0.0647,-5.85178 -2.7167,-3.23063 -3.0446,2.8692 -4.01426,1.26667 -1.03928,-1.7176 1.78513,-1.79071 2.89969,-2.24225 4.15605,-1.68374 0.94421,0.41976 3.46921,0.65487 5.61111,0.52248 5.4371,-0.33607 7.78789,2.12855 7.78789,8.16499 0,2.475 -0.5257,5.04388 -1.16822,5.70862 -0.95187,0.98479 0.38953,1.11773 7.24299,0.71778 4.62616,-0.26996 9.46261,-0.624 10.74766,-0.78675 1.80152,-0.22816 2.33645,0.12703 2.33645,1.55142 0,2.73003 -3.85786,4.217 -10.98131,4.23261 -4.34819,0.01 -6.30841,0.37075 -6.30841,1.16248 0,0.63177 1.11784,4.00677 2.4841,7.5 2.16365,5.53201 2.79659,6.35786 4.90654,6.40189 6.63811,0.13852 17.04436,1.70803 18.30985,2.76157 0.78537,0.65385 3.5855,4.82375 6.22252,9.26647 2.63702,4.44271 6.46536,9.83128 8.50743,11.97458 5.04391,5.29397 3.63641,7.21626 -3.51455,4.80001 z m 6.07476,-0.54427 c 0,-0.41448 -1.46583,-2.17878 -3.25741,-3.92066 -1.79157,-1.7419 -5.60964,-7.12113 -8.4846,-11.95386 -3.22036,-5.41332 -6.06418,-9.10599 -7.40725,-9.61822 -1.19903,-0.4573 -6.72065,-0.9616 -12.27028,-1.12068 l -10.09023,-0.28924 -0.9109,2.54974 c -0.73235,2.04993 -0.55949,2.93926 0.8818,4.53684 1.62883,1.80545 2.60557,1.95997 10.68448,1.69026 4.89048,-0.16327 9.43122,0.0434 10.09054,0.45929 0.65932,0.41588 3.16046,4.14289 5.5581,8.28224 2.39763,4.13934 4.80211,7.6343 5.34329,7.76654 0.54117,0.13225 2.24564,0.67503 3.7877,1.20617 3.53085,1.21615 6.07476,1.3885 6.07476,0.41158 z m -42.37851,-19.71085 c -2.15683,-2.39072 -1.93161,-4.5472 0.75653,-7.24374 l 2.30325,-2.31045 -2.53304,-6.55319 c -2.57153,-6.6527 -3.7226,-7.67211 -5.81178,-5.14693 -1.39756,1.68922 -4.80139,1.83985 -6.35514,0.28125 -1.45833,-1.46288 -1.43453,-4.71036 0.0467,-6.37666 0.99384,-1.118 0.92408,-1.12885 -0.46729,-0.0727 -2.76414,2.09814 -1.96965,6.9401 2.6688,16.26498 4.57219,9.19166 7.30403,12.87189 9.55485,12.87189 1.16263,0 1.13659,-0.27402 -0.16291,-1.71444 z m -5.16858,-22.29753 c 1.13986,-1.03479 4.42364,-1.72123 10.40466,-2.175 9.36543,-0.71055 10.97421,-1.22495 10.97421,-3.50895 0,-1.11561 -0.49631,-1.28003 -2.1028,-0.69664 -1.15655,0.41999 -6.9536,0.80989 -12.88235,0.86643 -5.92876,0.0565 -11.29091,0.41982 -11.91589,0.80729 -1.20839,0.74917 -1.55688,4.547 -0.51329,5.59384 1.12366,1.12717 4.33696,0.65495 6.03546,-0.88697 z m 1.7527,-11.25907 c 0,-2.62472 -0.34718,-3.16646 -2.02921,-3.16646 -2.72814,0 -5.44743,2.61538 -5.44743,5.23928 0,1.6267 0.61297,2.21358 2.5701,2.46072 3.54181,0.44724 4.90654,-0.81374 4.90654,-4.53354 z M 86.860654,150.14364 c -2.114692,-1.71772 -2.118646,-1.76384 -0.502262,-5.85937 0.896062,-2.27041 4.266446,-8.34677 7.489743,-13.50302 3.22329,-5.15625 6.834315,-11.0625 8.024485,-13.125 2.62736,-4.55303 9.10784,-13.53654 11.1588,-15.46875 2.23242,-2.10317 12.20357,-18.285567 12.19346,-19.789039 -0.0162,-2.408412 -5.71265,-11.312101 -9.96898,-15.581735 -3.72595,-3.737594 -4.05539,-4.391516 -2.83112,-5.619613 2.19408,-2.200939 5.00975,-0.621421 9.2721,5.201421 4.60527,6.291295 9.21099,11.413966 10.26216,11.413966 0.41319,0 0.75125,-0.811382 0.75125,-1.80307 0,-3.134548 4.49729,-7.57193 7.67415,-7.57193 2.41746,0 2.66325,-0.207701 1.66854,-1.409996 -0.6416,-0.775498 -2.48048,-1.776314 -4.08639,-2.224036 -2.30253,-0.641931 -2.58607,-0.955042 -1.34111,-1.480953 2.1134,-0.892768 6.52652,1.328077 7.82268,3.936654 0.57469,1.156606 1.74354,2.877325 2.59744,3.82382 3.39802,3.766514 1.20866,8.302135 -5.69786,11.804015 l -3.04478,1.543828 1.87164,2.550209 c 3.0955,4.217752 3.39499,12.48619 0.75454,20.831459 -1.77006,5.59432 -2.59846,7.03125 -4.05355,7.03125 -2.08671,0 -2.14063,-1.39928 -0.38916,-10.09809 0.59916,-2.97584 0.79669,-6.561772 0.43894,-7.968754 l -0.65045,-2.558156 -4.17196,4.602769 c -2.29459,2.531521 -4.41253,5.809321 -4.70654,7.283981 -0.29402,1.47467 -1.83348,3.77759 -3.42103,5.1176 -4.39771,3.71199 -22.91523,27.66641 -23.52478,30.43186 -0.561279,2.54649 -5.067718,7.37029 -8.566736,9.17005 -2.61328,1.34416 -2.512822,1.35779 -5.02322,-0.68137 z m 5.02322,-0.25819 c 3.475373,-1.79109 7.065364,-5.65887 7.629934,-8.22033 0.29657,-1.3455 5.199192,-8.35262 10.894722,-15.57137 12.4304,-15.75481 12.81464,-16.45841 10.73054,-19.6491 -1.92208,-2.94263 -4.43349,-3.03453 -7.45395,-0.27277 -1.26883,1.16015 -7.00057,9.59765 -12.73719,18.75 -5.736618,9.15234 -10.658151,16.64062 -10.936743,16.64062 -0.278591,0 0.176465,-1.04564 1.011234,-2.32364 0.834769,-1.278 5.560742,-8.76628 10.502149,-16.64063 4.94142,-7.87434 9.81915,-15.23604 10.83941,-16.35934 1.02026,-1.1233 1.70481,-2.49437 1.52122,-3.04683 -0.35112,-1.05662 -7.33192,8.07627 -11.05584,14.46419 -1.20236,2.0625 -4.823356,7.96875 -8.046646,13.125 -3.223296,5.15625 -6.591853,11.22803 -7.485683,13.49285 -1.562324,3.95866 -1.558068,4.16704 0.110062,5.39062 2.091103,1.53383 1.94305,1.52653 4.476781,0.22073 z m 48.280506,-42.67032 c 2.71872,-9.186633 1.90208,-20.02763 -1.50865,-20.02763 -2.11961,0 -2.55655,2.598357 -1.3139,7.813641 1.12244,4.710778 0.92946,6.982619 -1.42669,16.795739 -0.4623,1.92543 -0.27099,2.57812 0.75566,2.57812 0.90489,0 2.0988,-2.44686 3.49358,-7.15987 z m -13.69218,-1.16162 c 0.28519,-1.43037 2.43625,-4.74031 4.78017,-7.355451 2.89608,-3.231206 4.26165,-5.58823 4.26165,-7.355736 0,-1.430514 0.62444,-3.293087 1.38765,-4.139052 1.24688,-1.382093 1.00894,-1.909056 -2.34557,-5.194885 l -3.7332,-3.656768 -1.87148,1.877332 c -2.35814,2.36551 -13.99814,21.08562 -13.99814,22.51262 0,0.60898 0.93844,0.88097 2.20298,0.63848 2.67937,-0.5138 6.57398,3.86569 5.86301,6.59296 -0.42902,1.64571 -0.3473,1.66035 1.23753,0.22161 0.93329,-0.84725 1.93022,-2.71075 2.2154,-4.14111 z m 15.35024,-24.480735 c 3.5947,-2.19858 3.65379,-2.512492 1.00531,-5.340477 -2.5916,-2.767258 -4.67759,-2.742288 -7.96255,0.09531 l -2.6222,2.265113 2.26571,2.422387 c 2.71938,2.907419 3.38844,2.958434 7.31373,0.557662 z m -14.36522,-6.794746 c -1.56198,-1.682603 -4.40309,-5.251926 -6.31359,-7.931827 -3.47017,-4.867704 -6.55909,-6.851309 -8.16324,-5.242152 -0.51048,0.512077 0.83525,2.617287 3.3682,5.269079 2.3201,2.42895 5.53802,6.761905 7.15095,9.628789 l 2.9326,5.212517 1.93252,-1.938563 1.93252,-1.938564 -2.83996,-3.059279 z m 328.28216,62.385521 c -0.35581,-0.35692 -2.57554,-0.68531 -4.93273,-0.72976 -4.93159,-0.093 -7.81598,-2.6896 -7.81598,-7.03622 0,-4.88852 6.66808,-10.31868 11.20847,-9.12764 1.03161,0.27062 1.87565,0.27418 1.87565,0.007 0,-1.98248 -6.45528,-11.95396 -8.99829,-13.89967 -1.73319,-1.32569 -3.15125,-3.1813 -3.15125,-4.12318 0,-0.94187 -0.63084,-2.23768 -1.40187,-2.87958 -1.97457,-1.643869 -1.74378,-3.732703 0.70094,-6.343947 1.94981,-2.082632 2.0907,-3.020611 1.93642,-12.892253 -0.12634,-8.083742 0.14499,-10.905436 1.12728,-11.723213 1.80253,-1.500644 2.92428,-0.550064 5.59893,4.744594 2.49311,4.935276 2.92713,7.914441 1.3,8.923204 -0.68351,0.423753 -0.80279,2.832474 -0.36254,7.320954 0.36087,3.679175 0.75524,6.800955 0.87636,6.937277 0.12113,0.136331 2.69719,-0.889669 5.7246,-2.279991 6.4412,-2.958095 13.52363,-3.470718 15.84241,-1.146666 3.69592,3.704344 3.43284,14.609251 -0.54189,22.461491 -2.16351,4.27407 -8.49693,10.03233 -11.85184,10.77551 -1.42651,0.316 -2.95324,0.65788 -3.39273,0.75973 -1.43866,0.33341 -3.4313,7.50254 -2.3749,8.54442 0.95876,0.9456 1.64976,0.31044 4.23259,-3.89053 0.58223,-0.94701 1.36619,-1.42761 1.74211,-1.06802 0.37594,0.3596 -0.23989,2.15257 -1.36847,3.98438 -1.9032,3.08906 -4.43431,4.22537 -5.97327,2.68161 z m -2.21331,-10.60105 c 1.30693,-1.03125 2.81079,-1.875 3.3419,-1.875 0.53112,0 1.26574,-0.48706 1.63251,-1.08235 0.38726,-0.62856 0.25887,-0.82942 -0.30624,-0.47907 -0.5352,0.3318 -1.49279,-0.0249 -2.128,-0.79265 -1.60899,-1.94477 -4.56425,-1.73589 -8.37038,0.59163 l -3.23875,1.98055 2.17406,1.76595 c 2.75487,2.23773 3.94459,2.21891 6.8949,-0.10906 z m 11.70728,-2.26005 c 3.15792,-1.65493 7.0189,-5.78036 8.85238,-9.4587 3.83913,-7.7021 3.77818,-21.139719 -0.0982,-21.643469 -0.34268,-0.04453 -1.36679,-0.409061 -2.27581,-0.810065 -2.01627,-0.889454 -8.96049,0.774611 -14.0046,3.355965 -2.04815,1.048153 -4.052,1.555144 -4.453,1.12665 -1.26941,-1.35644 -2.13184,-14.088844 -1.00178,-14.789446 1.638,-1.0155 1.18834,-3.997357 -1.365,-9.051883 -3.67865,-7.282141 -4.61991,-5.73361 -4.66358,7.672296 l -0.0379,11.639952 4.61452,6.359091 4.61453,6.359089 5.70376,-0.5631 c 10.31327,-1.01816 14.59782,-3.97484 13.19876,-9.108205 -0.51347,-1.883985 -0.46125,-1.926816 0.48864,-0.400837 1.91127,3.070415 0.26342,6.142112 -4.5027,8.393342 -2.42854,1.14709 -4.56087,2.41762 -4.73855,2.82339 -0.17767,0.40576 -1.43249,2.0604 -2.7885,3.67696 -1.6233,1.93521 -2.0759,3.06947 -1.32498,3.32055 0.62727,0.20975 2.0839,1.14767 3.23696,2.08429 2.97528,2.41676 1.48035,6.68935 -2.78248,7.95243 -1.66502,0.49334 -3.02731,1.23162 -3.02731,1.64063 0,1.18902 3.60854,0.86028 6.35483,-0.57893 z m -1.29046,-2.95407 c 2.1528,-2.15953 1.80931,-4.86297 -0.79289,-6.24031 -1.24882,-0.661 -5.69494,-5.94791 -9.88027,-11.7487 -4.18533,-5.800776 -7.9159,-10.54687 -8.29017,-10.54687 -2.59655,0 -3.87047,4.994484 -1.6022,6.281541 2.77982,1.577309 15.21735,21.815649 14.09734,22.939169 -0.21195,0.21262 0.8242,0.47903 2.30256,0.59202 1.47837,0.11301 3.3529,-0.46157 4.16563,-1.27685 z m 0.54311,-15.46316 c 0,-1.0297 -1.44125,-1.11169 -5.43978,-0.30949 l -2.8697,0.57574 2.04311,2.77208 2.0431,2.77207 2.11164,-2.46258 c 1.1614,-1.35443 2.11163,-2.86094 2.11163,-3.34782 z m -17.94735,-1.78008 c -0.62743,-1.00781 -1.32176,-1.65081 -1.54298,-1.42891 -0.40055,0.40181 1.63621,3.26127 2.32297,3.26127 0.19842,0 -0.15257,-0.82456 -0.77999,-1.83236 z m -53.83424,-5.902015 c -1.95848,-1.963941 -2.83866,-2.097872 -12.7659,-1.942472 -8.10053,0.126806 -10.92035,-0.1449 -11.73604,-1.130803 -1.49597,-1.808169 -0.54835,-2.933421 4.72982,-5.616427 4.91989,-2.500894 7.88978,-2.93628 8.8954,-1.304067 0.42243,0.685647 2.82365,0.805303 7.29815,0.363675 3.66771,-0.361999 6.77977,-0.757593 6.91566,-0.879097 0.13591,-0.121504 -0.88689,-2.705621 -2.27288,-5.742482 -2.94888,-6.461333 -3.45991,-13.565898 -1.1431,-15.891919 3.69281,-3.707477 14.56374,-3.44357 22.39152,0.543584 4.26075,2.170257 10.00107,8.523478 10.74194,11.888873 0.31502,1.430968 0.65583,2.962466 0.75737,3.403328 0.33237,1.443153 7.47916,3.442023 8.5178,2.382327 0.94265,-0.961753 0.30947,-1.654919 -3.87841,-4.245816 -0.94406,-0.584057 -1.42317,-1.37046 -1.06469,-1.747564 0.35847,-0.377103 2.14586,0.240638 3.97196,1.372759 3.07944,1.909144 4.21221,4.448168 2.67326,5.991925 -0.35581,0.356922 -0.68318,2.583587 -0.72748,4.948145 -0.0927,4.947009 -2.68123,7.840406 -7.01431,7.840406 -4.87329,0 -10.28654,-6.688913 -9.0992,-11.243495 0.26978,-1.034827 0.27332,-1.881505 0.008,-1.881505 -1.97631,0 -11.91673,6.475458 -13.85638,9.026409 -1.32196,1.738603 -3.17179,3.161091 -4.11073,3.161091 -0.93894,0 -2.23072,0.632812 -2.87061,1.40625 -1.65032,1.99472 -3.92099,1.74373 -6.36103,-0.703125 z m 6.08094,-0.151303 c 0.97925,-1.7337 9.46564,-7.577307 17.10252,-11.776554 6.47391,-3.559769 7.90576,-6.023365 5.12317,-8.814662 -2.19041,-2.197256 -4.87931,-1.873219 -6.26155,0.754572 -0.65894,1.252723 -5.92938,5.712738 -11.71209,9.911144 -5.78271,4.198406 -10.51402,7.940634 -10.51402,8.316075 0,2.603269 4.97796,3.882683 6.26197,1.609425 z m 6.00678,-3.129947 c 1.18646,-1.517583 1.14248,-1.537478 -0.58651,-0.265284 -1.02803,0.75644 -2.04439,1.494721 -2.25857,1.640625 -0.21416,0.145903 0.0497,0.265284 0.58651,0.265284 0.53675,0 1.5531,-0.738281 2.25857,-1.640625 z M 428.0374,91.42882 c 0,-0.646778 -0.76953,-2.182072 -1.71007,-3.411765 C 424.12885,85.142708 423.17136,82.5 424.32841,82.5 c 0.49789,0 0.90525,-0.8647 0.90525,-1.921556 0,-4.242879 -5.00622,-10.453418 -10.74766,-13.33317 -7.6781,-3.851127 -21.07386,-3.789987 -21.57605,0.09848 -0.0444,0.34375 -0.40778,1.371065 -0.80754,2.282923 -0.88668,2.022568 0.7722,8.98849 3.34551,14.048363 1.04489,2.054551 1.5503,4.064665 1.12314,4.466918 -1.35221,1.273369 -14.04495,2.138501 -14.74337,1.004902 -1.01234,-1.643113 -3.98491,-1.192049 -9.02368,1.369273 -7.25946,3.690143 -5.71575,4.634346 7.64839,4.678155 l 11.60369,0.03806 6.33928,-4.628943 6.33928,-4.628942 -0.56134,-5.721591 c -1.01499,-10.345499 -3.96246,-14.643435 -9.07984,-13.240004 -1.87811,0.51507 -1.92081,0.462696 -0.39958,-0.490162 3.06085,-1.917248 6.12298,-0.264248 8.36719,4.516773 1.14352,2.436115 2.41009,4.575121 2.81459,4.753346 0.40451,0.178225 2.05398,1.436976 3.66552,2.797223 1.92917,1.628371 3.0599,2.082383 3.3102,1.329122 0.2091,-0.62923 1.11716,-2.057048 2.01794,-3.172929 3.17944,-3.938717 10.05409,0.754192 7.99782,5.459629 -0.4087,0.935225 -0.7794,1.981659 -0.8238,2.325409 -0.0444,0.34375 -0.39614,0.941406 -0.78165,1.328125 -1.26422,1.268172 -0.72927,4.55125 1.28043,7.858238 l 1.97438,3.248865 1.76045,-2.18085 c 0.96825,-1.199494 1.76044,-2.710058 1.76044,-3.356836 z M 408.89277,78.993233 c -4.05602,-3.499738 -4.86215,-2.761574 -3.64592,3.33855 l 0.57394,2.87866 2.76345,-2.04949 2.76344,-2.049488 -2.45491,-2.118232 z m -48.85214,16.397392 c -1.85901,-2.327697 -4.90043,-9.106953 -4.90043,-10.922948 0,-1.021362 0.4584,-2.141214 1.01868,-2.488562 0.68351,-0.423753 0.80279,-2.832474 0.36254,-7.320954 -0.36087,-3.679175 -0.75524,-6.800951 -0.87636,-6.937278 -0.12113,-0.136325 -2.69719,0.88967 -5.7246,2.279991 -6.4412,2.958096 -13.52363,3.470719 -15.84241,1.146667 -3.69592,-3.704339 -3.43284,-14.60925 0.54189,-22.461492 2.1635,-4.274071 8.49693,-10.032329 11.85184,-10.775509 1.42651,-0.316002 2.95323,-0.657882 3.39273,-0.759733 1.43865,-0.33341 3.4313,-7.502534 2.3749,-8.544424 -0.95876,-0.945593 -1.64976,-0.310429 -4.23259,3.890534 -0.58224,0.947008 -1.36619,1.427617 -1.74211,1.06802 -0.37594,-0.359597 0.23988,-2.152566 1.36847,-3.984375 1.9032,-3.089061 4.43431,-4.22537 5.97327,-2.681613 0.35581,0.356922 2.57554,0.685312 4.93272,0.729755 4.9316,0.09298 7.81599,2.689608 7.81599,7.036226 0,4.888524 -6.66808,10.318682 -11.20847,9.127632 -1.03161,-0.270614 -1.87565,-0.274167 -1.87565,-0.0079 0,1.982479 6.45528,11.95397 8.99829,13.899676 1.73319,1.326095 3.15125,3.181705 3.15125,4.123579 0,0.941874 0.63084,2.237685 1.40187,2.879581 1.97458,1.64388 1.74377,3.732747 -0.70094,6.343691 -1.94403,2.076218 -2.09128,3.036397 -1.95019,12.716673 0.1406,9.646273 -0.47481,12.814636 -2.48906,12.814636 -0.38814,0 -1.12687,-0.527344 -1.64163,-1.171875 z m 3.08141,-12.031923 0.0379,-11.639952 -4.61453,-6.35909 -4.61452,-6.359089 -5.70377,0.563096 c -10.31327,1.018161 -14.59781,3.974845 -13.19875,9.108208 0.51346,1.883985 0.46125,1.926816 -0.48864,0.40084 -1.91127,-3.070414 -0.26342,-6.14212 4.5027,-8.393349 2.42853,-1.147088 4.56087,-2.417609 4.73854,-2.823379 0.17768,-0.405769 1.4325,-2.060404 2.78851,-3.676968 1.6233,-1.935209 2.0759,-3.069468 1.32498,-3.320555 -0.62727,-0.209743 -2.08391,-1.14767 -3.23696,-2.084281 -2.97528,-2.416765 -1.48035,-6.689346 2.78247,-7.95243 3.39388,-1.00562 4.03671,-2.384253 1.11171,-2.384253 -4.22966,0 -10.42085,5.021865 -13.29163,10.78125 -3.83913,7.702096 -3.77818,21.139719 0.0982,21.643469 0.34268,0.04453 1.36679,0.409061 2.27581,0.810065 2.01627,0.889454 8.96049,-0.774612 14.0046,-3.355966 2.04815,-1.048154 4.052,-1.555147 4.453,-1.126651 1.26941,1.356442 2.13184,14.088846 1.00177,14.789448 -1.63799,1.0155 -1.18833,3.997357 1.36501,9.051883 3.67865,7.282143 4.61991,5.733608 4.66358,-7.672296 z M 366.16824,70.125 c 1.51968,-1.524431 1.41565,-4.239641 -0.19756,-5.156541 -0.72549,-0.412339 -2.91317,-3.070021 -4.86151,-5.905959 -4.49063,-6.536369 -10.84384,-18.048371 -9.50105,-17.215894 0.66339,0.411283 0.74853,0.172655 0.2448,-0.68613 -0.45598,-0.777387 -0.007,-0.644717 1.09742,0.323899 2.45869,2.1574 4.75405,2.065863 8.69963,-0.346936 l 3.23875,-1.980552 -2.17406,-1.765944 c -2.69444,-2.188641 -3.91191,-2.21123 -6.75412,-0.125318 -3.45757,2.537529 -6.27192,3.984375 -7.75024,3.984375 -1.90736,0 -4.28505,2.621551 -4.28505,4.724523 0,0.977952 1.02176,2.318912 2.27058,2.979911 1.24882,0.660998 5.69494,5.94791 9.88027,11.748691 4.18533,5.800781 7.9159,10.546875 8.29017,10.546875 0.37426,0 1.18515,-0.50625 1.80197,-1.125 z M 363.1577,59.274553 c -1.60929,-1.546206 -1.62921,-1.526228 -0.44704,0.448436 0.68051,1.136706 1.43846,1.864943 1.68433,1.618304 0.24587,-0.24664 -0.31091,-1.176673 -1.23729,-2.06674 z m -12.06663,-1.008628 2.02565,-0.609675 -2.12655,-2.660901 -2.12655,-2.6609 -2.00189,2.552956 c -1.10105,1.404125 -2.0019,2.917937 -2.0019,3.364025 0,0.918582 3.20267,0.926031 6.23124,0.01449 z M 241.72068,92.163551 c -0.35581,-0.356922 -2.57554,-0.685312 -4.93273,-0.729755 -4.93159,-0.09298 -7.81598,-2.689608 -7.81598,-7.036226 0,-4.888524 6.66808,-10.318682 11.20847,-9.127632 1.03161,0.270614 1.87565,0.274167 1.87565,0.0079 0,-1.982479 -6.45529,-11.95397 -8.99829,-13.899676 -1.73319,-1.326072 -3.15125,-3.181682 -3.15125,-4.123556 0,-0.941873 -0.63084,-2.237685 -1.40187,-2.879581 -1.97457,-1.643872 -1.74378,-3.732701 0.70094,-6.343947 1.94981,-2.082632 2.0907,-3.020611 1.93642,-12.892253 -0.12634,-8.083743 0.14499,-10.905436 1.12728,-11.723213 1.80253,-1.500644 2.92428,-0.550064 5.59893,4.744594 2.49311,4.935276 2.92713,7.914441 1.3,8.923204 -0.68351,0.423753 -0.80279,2.832474 -0.36254,7.320954 0.36087,3.679175 0.75523,6.800951 0.87636,6.937278 0.12113,0.136325 2.69719,-0.88967 5.72459,-2.279991 6.44121,-2.958096 13.52364,-3.470719 15.84242,-1.146667 3.69592,3.704339 3.43284,14.60925 -0.54189,22.461492 -2.16351,4.274071 -8.49693,10.032329 -11.85184,10.775509 -1.42651,0.316002 -2.95324,0.657882 -3.39273,0.759733 -1.43866,0.33341 -3.4313,7.502534 -2.3749,8.544424 0.95876,0.945593 1.64976,0.310429 4.23259,-3.890534 0.58223,-0.947008 1.36619,-1.427617 1.74211,-1.06802 0.37594,0.359597 -0.23989,2.152566 -1.36847,3.984375 -1.9032,3.089061 -4.43431,4.22537 -5.97327,2.681613 z M 239.50737,81.5625 c 1.30693,-1.03125 2.81079,-1.875 3.3419,-1.875 0.53111,0 1.26574,-0.487058 1.63251,-1.082351 0.38726,-0.628558 0.25887,-0.829418 -0.30624,-0.479073 -0.5352,0.331804 -1.49279,-0.02489 -2.128,-0.792648 -1.60899,-1.944771 -4.56425,-1.735888 -8.37038,0.591633 l -3.23875,1.980552 2.17406,1.765944 c 2.75487,2.23773 3.94459,2.218912 6.8949,-0.109057 z m 11.70728,-2.260054 c 3.15792,-1.654931 7.0189,-5.780358 8.85238,-9.458696 3.83913,-7.702096 3.77818,-21.139719 -0.0982,-21.643469 -0.34268,-0.04453 -1.36679,-0.409061 -2.27581,-0.810065 -2.01627,-0.889454 -8.96049,0.774611 -14.0046,3.355966 -2.04815,1.048154 -4.052,1.555147 -4.453,1.126651 -1.26941,-1.356442 -2.13184,-14.088845 -1.00178,-14.789448 1.63799,-1.0155 1.18834,-3.997357 -1.36501,-9.051883 -3.67864,-7.282141 -4.6199,-5.73361 -4.66358,7.672296 l -0.0379,11.639952 4.61452,6.35909 4.61453,6.359089 5.70376,-0.563096 c 10.31327,-1.018161 14.59782,-3.974845 13.19876,-9.108208 -0.51347,-1.883985 -0.46125,-1.926816 0.48864,-0.40084 1.91127,3.070414 0.26342,6.14212 -4.50271,8.393349 -2.42853,1.147088 -4.56086,2.417609 -4.73854,2.823379 -0.17767,0.405769 -1.43249,2.060405 -2.7885,3.676968 -1.6233,1.935209 -2.0759,3.069468 -1.32498,3.320555 0.62727,0.209743 2.0839,1.14767 3.23696,2.084281 2.97528,2.416765 1.48034,6.689346 -2.78248,7.95243 -1.66502,0.493348 -3.02731,1.23163 -3.02731,1.640625 0,1.189027 3.60854,0.86029 6.35483,-0.578926 z m -1.29046,-2.954064 c 2.1528,-2.159532 1.80931,-4.862977 -0.79289,-6.240316 -1.24882,-0.660999 -5.69494,-5.94791 -9.88027,-11.748691 -4.18533,-5.800781 -7.9159,-10.546875 -8.29017,-10.546875 -2.59655,0 -3.87047,4.994488 -1.6022,6.281541 2.77982,1.57731 15.21735,21.815656 14.09734,22.93917 -0.21195,0.212615 0.8242,0.479028 2.30256,0.592028 1.47837,0.112999 3.3529,-0.461587 4.16563,-1.276857 z m 0.54311,-15.463161 c 0,-1.029696 -1.44125,-1.111695 -5.43978,-0.309489 l -2.8697,0.575732 2.04311,2.772081 2.0431,2.772082 2.11163,-2.462591 c 1.16141,-1.354426 2.11164,-2.860943 2.11164,-3.347815 z m -17.94736,-1.780085 c -0.62742,-1.0078 -1.32175,-1.650808 -1.54297,-1.428906 -0.40055,0.401809 1.63621,3.26127 2.32297,3.26127 0.19842,0 -0.15257,-0.824564 -0.78,-1.832364 z M 165.42057,83.38315 c -3.34112,-3.089351 -7.65187,-6.458897 -9.57944,-7.48788 -4.09173,-2.184261 -4.43015,-3.993757 -1.15012,-6.149627 3.79192,-2.492329 8.44841,-1.175973 13.50163,3.816819 2.36582,2.337521 4.55539,4.250038 4.86572,4.250038 0.31034,0 1.50833,-3.902344 2.6622,-8.671875 3.16151,-13.068068 4.33154,-13.891108 22.41029,-15.764197 6.28006,-0.65066 11.36098,-1.648808 12.22312,-2.401232 0.81151,-0.708233 2.0031,-1.287696 2.64797,-1.287696 2.25503,0 0.38227,-2.346484 -2.10854,-2.641929 -1.38262,-0.164 -2.27163,-0.691344 -1.97558,-1.171875 1.19332,-1.936864 4.69125,-0.65956 8.51866,3.110679 3.08832,3.042194 4.04645,4.691783 4.05183,6.975922 0.004,1.645351 -0.44093,3.269264 -0.98843,3.608697 -0.66028,0.40935 -0.50385,1.162071 0.46457,2.235515 1.91386,2.121397 3.07621,12.665636 1.50368,13.640551 -1.78025,1.103693 -3.2245,-1.031098 -4.2892,-6.339959 -0.87694,-4.372714 -1.21472,-4.859589 -3.21329,-4.631763 -1.22834,0.140025 -2.36286,0.3845 -2.52114,0.543281 -0.29146,0.292376 4.44749,9.098422 6.4938,12.066952 0.86694,1.257654 0.85372,1.875066 -0.0598,2.791429 -1.69831,1.703616 -3.92816,0.02809 -6.72898,-5.0562 -1.28504,-2.332733 -3.38988,-5.604591 -4.67743,-7.270793 l -2.34099,-3.02946 -7.683,0.672292 -7.68301,0.672292 -1.88618,5.057057 c -2.3964,6.424938 -6.3603,14.378854 -8.22377,16.501687 -0.88288,1.005761 -2.74031,1.628562 -4.8,1.609451 -2.78646,-0.02585 -4.39643,-0.989693 -9.43456,-5.648176 z m 16.10199,-0.440185 c 3.07066,-5.61227 7.6432,-17.248574 7.02254,-17.871169 -0.24437,-0.245136 -2.45948,4.435896 -4.92247,10.402295 -2.46297,5.966399 -4.80367,11.049815 -5.20154,11.296479 -0.39786,0.246664 1.55592,-4.913858 4.34175,-11.467827 4.7378,-11.146232 4.97388,-12.056021 3.65297,-14.078275 -1.57947,-2.418107 -2.44488,-2.605966 -5.40248,-1.17275 -1.99422,0.966376 -1.99861,0.954925 -0.19028,-0.495846 2.55798,-2.052182 4.34325,-1.469325 6.54763,2.137668 l 1.88166,3.078944 8.40972,-0.59984 c 4.62536,-0.329913 8.72583,-0.795807 9.11215,-1.035321 1.46523,-0.908385 0.61739,-3.667715 -1.40037,-4.557591 -1.28609,-0.567195 -2.07758,-1.71233 -2.03785,-2.948405 0.0554,-1.724078 -0.35654,-1.964638 -2.80374,-1.637263 -1.57778,0.211068 -5.99612,0.781321 -9.81854,1.267228 -6.93014,0.880963 -11.27741,2.973803 -11.87104,5.714898 -1.39968,6.463038 -4.75171,18.763825 -5.24926,19.262925 -0.34176,0.342828 -2.80771,-1.223068 -5.47989,-3.47977 -2.67218,-2.256702 -6.5792,-4.622036 -8.68227,-5.256298 l -3.82377,-1.153202 3.67658,0.524908 c 2.51938,0.359694 5.19853,1.82921 8.51198,4.668828 6.53168,5.59763 7.0888,5.249116 0.93765,-0.586564 -5.34459,-5.07048 -9.85756,-6.650178 -13.46532,-4.713331 -2.73694,1.469344 -2.50453,3.373841 0.57276,4.693462 1.41355,0.606168 5.51402,3.824416 9.11215,7.151663 6.02969,5.575743 6.83484,6.02864 10.28037,5.782704 3.42152,-0.244223 3.95447,-0.661896 6.28891,-4.92855 z m 37.16904,-4.606387 c 0,-0.743007 -0.42856,-1.616612 -0.95236,-1.941346 -0.52378,-0.324734 -1.95159,-2.568501 -3.17289,-4.98615 -3.28135,-6.495665 -5.77914,-9.304991 -7.10872,-7.995332 -0.82235,0.810026 -0.32757,2.204506 2.03646,5.739416 1.71751,2.568179 3.83916,5.989024 4.71479,7.601875 1.62935,3.001173 4.48272,4.007862 4.48272,1.581537 z m 3.3999,-9.14009 c -0.40507,-3.887517 -1.22321,-6.463937 -2.47814,-7.803926 -1.03039,-1.100227 -1.62329,-2.251341 -1.31756,-2.558031 0.30574,-0.30669 -0.4264,-1.036946 -1.62696,-1.622793 -2.08077,-1.015366 -2.09802,-0.996999 -0.36871,0.392794 0.99778,0.801882 1.47905,1.457968 1.0695,1.457968 -0.40956,0 -1.99432,-1.05481 -3.5217,-2.344024 -3.10543,-2.621214 -6.55915,-3.769017 -8.77472,-2.916168 -2.73884,1.054277 -0.99996,3.733046 3.21857,4.958239 6.7504,1.96053 10.06772,5.123678 10.84634,10.342273 0.7578,5.078926 1.11099,5.89718 2.54551,5.89718 0.6831,0 0.81581,-1.888291 0.40787,-5.803512 z m -8.87727,-7.352678 c -2.24208,-1.873677 -4.80301,-2.456888 -4.80301,-1.09381 0,1.517554 2.3087,2.99914 4.62617,2.96881 l 2.38318,-0.03119 -2.20634,-1.84381 z m 82.58018,1.546296 c -2.5701,-0.648394 -5.96619,-1.860046 -7.54687,-2.69256 -3.90096,-2.054552 -9.56714,-8.50507 -10.26817,-11.689536 -0.31502,-1.430968 -0.65583,-2.962466 -0.75737,-3.403328 -0.33237,-1.443153 -7.47917,-3.442023 -8.5178,-2.382327 -0.94266,0.961753 -0.30947,1.654919 3.87841,4.245816 0.94406,0.584057 1.42317,1.37046 1.06469,1.747564 -0.35848,0.377103 -2.14586,-0.240638 -3.97196,-1.372759 -3.07944,-1.909144 -4.21221,-4.448168 -2.67326,-5.991925 0.35581,-0.356922 0.68317,-2.583587 0.72748,-4.948145 0.0927,-4.947007 2.68123,-7.840406 7.01431,-7.840406 4.87329,0 10.28653,6.688913 9.0992,11.243495 -0.26978,1.034827 -0.27332,1.881505 -0.008,1.881505 1.97631,0 11.91673,-6.475458 13.85637,-9.02641 C 299.01353,31.42249 300.86336,30 301.8023,30 c 0.93894,0 2.23071,-0.632813 2.87061,-1.40625 1.63875,-1.980744 3.72108,-1.749231 6.32419,0.703125 2.07614,1.955907 3.01119,2.097232 12.85208,1.942471 8.05856,-0.126731 10.87147,0.145447 11.68669,1.130808 1.49598,1.808165 0.54836,2.933417 -4.72981,5.616424 -4.9199,2.500893 -7.88978,2.936279 -8.8954,1.304066 -0.42243,-0.685647 -2.82366,-0.805303 -7.29815,-0.363675 -3.66771,0.361999 -6.80305,0.780952 -6.96741,0.931007 -0.16437,0.150055 0.52773,1.898112 1.53799,3.884572 4.37967,8.611685 4.69387,16.057803 0.78244,18.542877 -3.07762,1.955325 -8.97663,2.41517 -14.17112,1.104681 z m 13.77574,-1.651969 c 0.89441,-0.47114 1.56363,-1.16043 1.48714,-1.531753 -0.0764,-0.371324 0.18596,-1.421199 0.5832,-2.333057 0.88211,-2.024841 -0.78001,-8.99489 -3.35007,-14.048363 -1.04488,-2.054551 -1.55029,-4.064665 -1.12314,-4.466918 1.35222,-1.273369 14.04496,-2.138501 14.74338,-1.004902 1.01234,1.643113 3.98491,1.192049 9.02368,-1.369273 7.25946,-3.69014 5.71575,-4.634351 -7.64839,-4.678155 l -11.60369,-0.03803 -6.33928,4.628943 -6.33928,4.628942 0.56134,5.721591 c 1.01499,10.3455 3.96246,14.643436 9.07983,13.240004 1.87812,-0.51507 1.92082,-0.462696 0.39959,0.490162 -3.06085,1.917248 -6.12298,0.264249 -8.36719,-4.516773 -1.14352,-2.436115 -2.41009,-4.575121 -2.81459,-4.753346 -0.40451,-0.178225 -2.05399,-1.436976 -3.66552,-2.797223 -1.92918,-1.628371 -3.0599,-2.082383 -3.3102,-1.329122 -0.2091,0.62923 -1.1441,2.090418 -2.0778,3.247083 -2.40923,2.984579 -6.6685,1.48497 -7.92765,-2.791176 -1.00249,-3.404507 -2.37683,-4.049349 -2.37683,-1.11521 0,4.06544 4.88249,10.30514 10.28038,13.138061 6.23516,3.27234 16.22748,4.07928 20.78509,1.67852 z m -20.5813,-12.453315 c 0.65895,-1.252723 5.92939,-5.712738 11.7121,-9.911144 5.78271,-4.198406 10.51402,-7.940639 10.51402,-8.316072 0,-2.603276 -4.97797,-3.88269 -6.26198,-1.609425 -0.41105,0.727749 -3.06045,2.922266 -5.88756,4.876704 -6.51601,4.504658 -17.99215,10.877715 -17.16226,9.530739 0.41,-0.66547 0.17212,-0.750878 -0.68399,-0.245575 -0.77497,0.457409 -0.64271,0.0065 0.32289,-1.100842 2.15068,-2.466384 2.05943,-4.768907 -0.34585,-8.72682 l -1.97439,-3.248863 -1.76044,2.180848 c -2.18183,2.702858 -2.20434,3.924135 -0.12493,6.775227 2.52963,3.468378 3.97196,6.291518 3.97196,7.774466 0,1.913312 2.61339,4.298435 4.70981,4.298435 0.9749,0 2.31169,-1.024956 2.97062,-2.277678 z m 9.98342,-0.769197 c -0.0512,-1.160156 -0.36665,-3.023761 -0.70093,-4.141344 l -0.60778,-2.031971 -2.6526,2.13319 -2.65262,2.13319 2.545,2.008155 c 3.24019,2.556697 4.18528,2.533186 4.06893,-0.10122 z m 2.36486,-17.486832 c -0.24587,-0.24664 -1.173,0.31188 -2.0603,1.241154 -1.5414,1.614319 -1.52148,1.634297 0.44703,0.448436 1.13317,-0.682635 1.85913,-1.442951 1.61327,-1.68959 z"
       id="path3418"
       inkscape:connector-curvature="0" />
  </g>
</svg>
