<?xml version="1.0" encoding="UTF-8" standalone="no"?>
<!-- Created with Inkscape (http://www.inkscape.org/) -->

<svg
   xmlns:dc="http://purl.org/dc/elements/1.1/"
   xmlns:cc="http://creativecommons.org/ns#"
   xmlns:rdf="http://www.w3.org/1999/02/22-rdf-syntax-ns#"
   xmlns:svg="http://www.w3.org/2000/svg"
   xmlns="http://www.w3.org/2000/svg"
   xmlns:sodipodi="http://sodipodi.sourceforge.net/DTD/sodipodi-0.dtd"
   xmlns:inkscape="http://www.inkscape.org/namespaces/inkscape"
   id="svg3336"
   version="1.1"
   inkscape:version="0.91 r13725"
   width="373.83179"
   height="161.25"
   viewBox="0 0 373.83179 161.25"
   sodipodi:docname="fx130600.svg">
  <metadata
     id="metadata3342">
    <rdf:RDF>
      <cc:Work
         rdf:about="">
        <dc:format>image/svg+xml</dc:format>
        <dc:type
           rdf:resource="http://purl.org/dc/dcmitype/StillImage" />
        <dc:title></dc:title>
      </cc:Work>
    </rdf:RDF>
  </metadata>
  <defs
     id="defs3340" />
  <sodipodi:namedview
     pagecolor="#ffffff"
     bordercolor="#666666"
     borderopacity="1"
     objecttolerance="10"
     gridtolerance="10"
     guidetolerance="10"
     inkscape:pageopacity="0"
     inkscape:pageshadow="2"
     inkscape:window-width="1189"
     inkscape:window-height="977"
     id="namedview3338"
     showgrid="false"
     inkscape:zoom="3.3437499"
     inkscape:cx="128.14953"
     inkscape:cy="80.625"
     inkscape:window-x="0"
     inkscape:window-y="0"
     inkscape:window-maximized="0"
     inkscape:current-layer="svg3336" />
  <g
     id="g3346"
     transform="translate(2.4273991,2.5419993)">
    <path
       style="fill:#fefefe"
       d="m 50.000002,142.43045 c -4.664186,-3.53076 -4.900384,-4.22398 -2.362534,-6.93385 1.236739,-1.32056 2.914016,-5.61429 4.248897,-10.87692 l 2.205522,-8.69506 -8.897972,-9.63887 c -7.494172,-8.118184 -8.794767,-9.978316 -8.243811,-11.790438 0.814703,-2.679595 3.165212,-5.432812 4.638167,-5.432812 2.056513,0 5.788799,4.164674 11.668496,13.0203 8.492572,12.79097 8.545923,13.20837 3.257095,25.48264 l -4.380156,10.16542 1.970531,3.19835 c 1.083792,1.7591 1.970532,3.46496 1.970532,3.79082 0,1.33707 -2.557043,0.37332 -6.074767,-2.28958 z m 279.528098,1.10552 c -1.51884,-1.68355 -1.47168,-2.26011 0.90115,-11.01563 1.37714,-5.08149 3.29859,-11.26812 4.26992,-13.74804 l 1.76604,-4.50896 -5.68747,-10.71407 -5.68748,-10.71407 2.0045,-2.82385 c 1.10247,-1.553118 2.52801,-2.82385 3.16787,-2.82385 2.82851,0 6.05607,5.51709 9.25824,15.82577 l 3.31426,10.66952 -3.53693,9.95548 c -1.94532,5.47551 -4.08193,11.26436 -4.74801,12.86411 -1.42675,3.42662 -0.69685,5.98268 1.90314,6.66472 3.13905,0.82344 2.07365,2.1454 -1.72903,2.1454 -2.34017,0 -4.15246,-0.6196 -5.1962,-1.77653 z M 127.16946,119.84524 c -1.7624,-0.50774 -4.9166,-2.11004 -7.00934,-3.56068 -6.31845,-4.37982 -27.605581,-25.364807 -28.219657,-27.819127 -0.380229,-1.519685 -0.01519,-2.90952 1.084275,-4.12821 3.444238,-3.817733 5.11821,-2.622337 19.485612,13.914802 9.32887,10.737715 15.16253,16.631755 18.32594,18.515625 2.55235,1.51998 4.64899,3.08001 4.65919,3.46673 0.0251,0.9499 -4.39518,0.74331 -8.32602,-0.38914 z m 172.55051,-8.22597 c -1.43907,-0.92466 -7.45175,-6.25289 -13.36153,-11.840536 -8.7307,-8.254816 -10.69303,-10.589259 -10.46762,-12.45261 0.15257,-1.261292 0.9483,-2.714339 1.76827,-3.228992 3.13699,-1.968914 6.22995,0.252632 15.38378,11.049537 5.03178,5.934951 9.33793,10.790831 9.56922,10.790831 0.50489,0 -0.1079,-0.7621 -9.33072,-11.604188 -6.41188,-7.537626 -7.76717,-9.958312 -5.57542,-9.958312 1.02691,0 15.5302,17.84655 17.29481,21.28157 2.01226,3.91708 1.94553,5.62296 -0.26641,6.81045 -2.16277,1.16109 -1.78978,1.22416 -5.01438,-0.84775 z M 214.02145,88.357918 c -4.42849,-2.221051 -4.75334,-4.551052 -0.75571,-5.420201 1.69917,-0.369428 5.94288,-2.108327 9.43045,-3.86422 4.68938,-2.360971 6.75621,-2.959462 7.93499,-2.297725 1.30118,0.730456 0.51843,1.362707 -4.26168,3.442257 -3.22058,1.401098 -5.69024,2.713349 -5.4881,2.916116 0.20213,0.202765 3.62967,-1.122592 7.61675,-2.94524 3.98707,-1.822648 7.77607,-3.313905 8.41999,-3.313905 2.13164,0 3.60901,2.689769 2.65516,4.834108 -0.66279,1.490012 -3.40045,2.749044 -11.1142,5.111341 -5.62914,1.723895 -10.44507,3.143869 -10.70208,3.155496 -0.25701,0.01163 -1.93802,-0.716485 -3.73557,-1.618027 z M 152.94171,78.8249 c -7.41314,-2.007475 -9.45597,-2.942998 -10.4809,-4.799812 -1.76833,-3.203558 -1.67004,-3.632861 1.07117,-4.67832 1.61882,-0.617401 2.9233,-0.595078 3.97196,0.06797 1.27498,0.806142 1.13279,0.894845 -0.77496,0.483441 -1.60892,-0.346963 -1.32442,-0.04103 0.91366,0.982495 1.78755,0.817491 5.49012,1.718261 8.22793,2.00171 4.63083,0.479438 5.1046,0.76466 6.79662,4.091641 2.81412,5.533384 3.43609,5.415018 -9.72548,1.850876 z M 19.005452,70.718234 c -0.960989,-2.512123 1.093339,-3.383504 8.699039,-3.689856 4.038232,-0.162658 10.871738,-1.202088 15.185568,-2.309846 8.473429,-2.175909 10.090939,-1.797265 9.107815,2.132054 -0.763458,3.051365 -2.611681,3.433947 -16.662343,3.449112 -6.884588,0.0074 -12.103064,0.406128 -12.438334,0.950302 -0.886027,1.438102 -3.262405,1.113395 -3.891745,-0.531766 z m 135.901098,0.807641 c 1.15654,-0.223456 3.04906,-0.223456 4.20561,0 1.15654,0.223456 0.21028,0.406284 -2.10281,0.406284 -2.31308,0 -3.25934,-0.182828 -2.1028,-0.406284 z m -4.61449,-0.916294 c 0.67465,-0.270817 1.48072,-0.23751 1.79128,0.07401 0.31055,0.311524 -0.24144,0.533101 -1.22663,0.492394 -1.08874,-0.04498 -1.31019,-0.267132 -0.56465,-0.566407 z M 52.959504,62.1875 c -2.49175,-2.499536 1.279335,-7.8125 5.545229,-7.8125 3.372567,0 4.467319,2.216532 2.744939,5.557655 -1.203299,2.334195 -2.070294,2.879845 -4.57585,2.879845 -1.700197,0 -3.37164,-0.28125 -3.714318,-0.625 z m 48.598136,0 c -0.34268,-0.34375 -0.62306,-1.589634 -0.62306,-2.76863 0,-1.63961 0.99034,-2.58307 4.21195,-4.012594 5.3465,-2.372404 14.27632,-9.243431 18.60313,-14.314134 3.66803,-4.298657 4.36917,-4.410506 3.63557,-0.579961 -0.3072,1.604037 -3.53771,5.493423 -8.74671,10.530603 -10.29274,9.95323 -15.12536,13.106356 -17.08088,11.144716 z m 174.46285,-2.657761 c -0.43276,-2.061669 -0.78683,-7.334427 -0.78683,-11.717239 0,-7.101621 0.35594,-8.757422 3.27102,-15.216492 1.79907,-3.98626 3.53741,-7.255791 3.86297,-7.265625 0.98314,-0.0297 1.72017,4.031727 0.92362,5.089583 -0.40846,0.542456 -1.69219,3.38932 -2.85272,6.326363 -1.85461,4.69361 -2.03077,6.294754 -1.4552,13.22608 0.51489,6.200558 0.35233,8.46518 -0.76059,10.595911 l -1.41544,2.709908 -0.78683,-3.748489 z m 58.56877,2.110886 c -0.54916,-0.644531 -2.14285,-2.693223 -3.54153,-4.552647 -1.39867,-1.859425 -4.33043,-5.588714 -6.51501,-8.287311 -3.93832,-4.864985 -5.10883,-8.488167 -2.74218,-8.488167 0.67637,0 2.15489,1.651185 3.2856,3.669299 2.04656,3.652742 11.67999,13.205701 13.31695,13.205701 1.2416,0 1.05646,3.17719 -0.26224,4.5 -1.42715,1.431617 -2.29162,1.420176 -3.54159,-0.04687 z M 227.22377,57.957766 c -0.63598,-1.896666 -2.87828,-6.115416 -4.9829,-9.375 -4.70519,-7.287264 -6.5081,-11.461507 -5.77645,-13.374113 0.91768,-2.398916 1.88701,-1.685156 3.51355,2.587215 0.84718,2.225228 3.41284,6.905747 5.70149,10.401153 3.73433,5.703404 4.08625,6.7068 3.43089,9.782257 l -0.73027,3.426972 -1.15631,-3.448484 z m 61.23916,-0.745315 c -0.438,-2.196846 0.19277,-4.242404 2.74374,-8.89782 2.18772,-3.992516 3.49405,-7.809899 3.84721,-11.242399 0.53354,-5.185658 1.43594,-6.521197 2.50969,-3.714307 1.48688,3.886854 0.41365,9.018105 -3.62879,17.349709 -2.30785,4.756537 -4.35516,8.807823 -4.54959,9.002858 -0.19443,0.195037 -0.60945,-0.929082 -0.92226,-2.498041 z m -48.14401,-2.452504 c -1.13217,-2.492589 -0.93552,-2.823147 5.76219,-9.685929 3.81391,-3.907897 7.18896,-7.843549 7.50011,-8.745893 0.69832,-2.025137 2.49356,-2.166985 2.49356,-0.197027 0,2.795641 -3.63982,8.45102 -8.42325,13.087652 -2.65974,2.578125 -5.13393,5.460231 -5.49818,6.404678 -0.58329,1.512388 -0.80207,1.409408 -1.83443,-0.863481 z m 97.57237,1.16717 c -3.20325,-2.349594 0.45084,-8.114617 5.14335,-8.114617 1.46708,0 1.00524,6.313581 -0.57802,7.901785 -1.79197,1.797576 -2.36819,1.824439 -4.56533,0.212832 z M 155.83344,50.782612 c -2.95138,-3.103879 -5.36457,-6.202079 -5.36265,-6.88489 0.006,-2.134262 3.63838,-7.335222 5.12295,-7.335222 1.79549,0 1.7891,1.24361 -0.0245,4.761589 -1.75465,3.403713 -1.51985,3.835246 3.26407,5.999238 3.81051,1.723668 4.18809,2.598114 2.98169,6.905313 -0.58333,2.082621 -0.89574,1.902635 -5.98161,-3.446028 z M 280.9969,55.625 c -1.04553,-1.048799 -0.69383,-6.429 0.49844,-7.625 0.61682,-0.61875 2.29906,-1.125 3.73832,-1.125 2.3445,0 2.61682,0.326338 2.61682,3.135949 0,4.341068 -4.47135,8.003732 -6.85358,5.614051 z M 101.86916,51.707801 c 0,-2.466 0.61712,-4.16493 1.95357,-5.378179 1.91703,-1.740311 1.97821,-1.739677 3.27103,0.03388 1.82962,2.509966 1.64556,4.869862 -0.5517,7.073995 -3.01618,3.025605 -4.6729,2.412361 -4.6729,-1.729699 z m 72.22318,-0.379667 c -0.92657,-3.482228 -0.81916,-4.400159 0.86705,-7.409732 l 1.92464,-3.435123 -2.05705,-2.89789 C 173.6956,35.99155 172.378,34.6875 171.89899,34.6875 c -0.47902,0 -0.87095,-0.632813 -0.87095,-1.40625 0,-0.773438 0.54549,-1.40625 1.2122,-1.40625 1.66717,0 8.1336,6.781077 8.1336,8.529367 0,1.713013 -3.72914,13.215776 -4.60362,14.20013 -0.34117,0.384036 -1.09621,-1.090327 -1.67788,-3.276363 z m 57.10505,-0.272788 c -2.03488,-3.115322 -0.5334,-6.992846 2.70782,-6.992846 2.98193,0 4.41256,1.700014 4.41256,5.243448 0,4.641116 -4.5081,5.748705 -7.12038,1.749398 z m -123.21923,-5.00966 c -0.47147,-1.490122 0.0357,-2.981476 1.80542,-5.308964 1.35359,-1.780197 2.83541,-3.236722 3.29294,-3.236722 2.00994,0 1.89558,2.227826 -0.23251,4.529306 -1.2724,1.376069 -2.74022,3.308946 -3.26183,4.295282 -0.90933,1.719535 -0.97535,1.708058 -1.60402,-0.278902 z m 55.05543,-0.522733 c -0.82253,-1.259251 -1.35296,-3.263158 -1.17873,-4.453125 l 0.31677,-2.163578 1.52715,2.34375 c 2.08705,3.203021 3.01173,6.5625 1.80631,6.5625 -0.5368,0 -1.64899,-1.030297 -2.4715,-2.289547 z"
       id="path3354"
       inkscape:connector-curvature="0" />
    <path
       style="fill:#fefe00"
       d="m 35.573259,93.23042 c -0.03258,-1.059208 1.181107,-3.887765 2.697085,-6.285684 1.515977,-2.397918 3.223252,-6.171919 3.793944,-8.386669 0.570691,-2.21475 1.234753,-4.713086 1.475693,-5.551858 0.265706,-0.924991 1.886973,-1.757453 4.120485,-2.115722 3.939293,-0.631888 6.126244,-3.186108 5.333071,-6.228689 -0.293207,-1.124726 -0.03382,-1.550534 0.758698,-1.245466 1.827691,0.703543 2.530732,6.381346 1.345536,10.866653 -0.581075,2.199046 -2.764303,6.790297 -4.851619,10.202779 l -3.79512,6.204514 -2.593177,-1.492931 C 41.431274,87.80033 41.132908,87.823328 39.21362,89.555333 38.085539,90.573337 36.818299,92.25 36.397531,93.28125 35.641532,95.134106 35.631799,95.133506 35.573259,93.23042 Z M 325.25418,89.892055 c 0.0113,-0.714068 0.83017,-3.087506 1.81973,-5.274306 1.0535,-2.328077 2.06761,-7.379402 2.44678,-12.1875 0.35617,-4.516325 1.00172,-9.168283 1.43455,-10.337686 l 0.78695,-2.126187 1.88593,1.891812 c 2.44214,2.44977 3.23269,2.384981 5.45332,-0.446923 l 1.83393,-2.338736 0.59719,3.193322 c 0.40334,2.15667 -0.36739,7.100593 -2.37415,15.229361 -1.63426,6.61982 -3.11996,12.213482 -3.30157,12.43036 -0.18159,0.216876 -1.30188,-0.521405 -2.48953,-1.640625 -2.7986,-2.637362 -3.82394,-2.565113 -6.17666,0.435233 -1.06714,1.360888 -1.92778,1.887146 -1.91647,1.171875 z m -51.1926,-5.985805 c 2.09222,-17.703097 5.19223,-27.519825 8.4893,-26.882882 0.90809,0.175429 2.25674,-0.185264 2.99699,-0.801538 2.21547,-1.844422 2.78433,1.288298 2.61012,14.374074 -0.17741,13.326954 -0.94975,15.684975 -4.35396,13.293118 -2.98638,-2.098279 -5.86986,-1.677157 -8.14195,1.189103 l -2.04369,2.578125 0.44319,-3.75 z M 93.037549,80.065792 c 0.795146,-2.528373 2.507969,-8.604855 3.806277,-13.503292 2.323196,-8.765309 4.148874,-12.922267 3.386324,-7.710503 -0.536763,3.668651 1.7699,5.566298 4.9817,4.098336 1.294,-0.591433 2.48239,-1.075333 2.64084,-1.075333 0.15845,0 -1.21131,5.047731 -3.04392,11.217178 -3.02599,10.186903 -3.47098,11.091032 -4.844925,9.84375 -1.991514,-1.807934 -4.553047,-1.740004 -6.664428,0.176739 -1.648985,1.496974 -1.657971,1.392423 -0.261868,-3.046875 z m 70.700091,-2.747121 c -2.37498,-4.903693 -2.8128,-15.759093 -0.9603,-23.809649 l 1.0951,-4.759022 4.41916,0 4.41917,0 1.08399,4.532713 c 0.88207,3.688331 0.81227,5.708016 -0.37462,10.841837 -1.02202,4.420595 -1.17871,6.83379 -0.5235,8.061905 1.57859,2.958824 1.12446,7.333441 -0.87258,8.40556 -3.88174,2.083937 -6.11999,1.199773 -8.28642,-3.273344 z m 74.99555,-0.527865 c -0.36202,-0.587578 -1.87458,-0.793333 -3.55984,-0.484245 -1.61169,0.295597 -3.45397,0.204408 -4.09395,-0.202643 -1.73236,-1.101843 -2.48076,-11.190496 -1.26561,-17.060856 l 1.06332,-5.136812 4.13441,-0.08863 c 3.70789,-0.07949 4.24908,0.189046 5.24584,2.60296 0.74683,1.808642 0.8556,4.144252 0.33158,7.119883 -0.4289,2.43556 -0.76599,6.643135 -0.74907,9.350166 0.0322,5.162751 -0.0816,5.56401 -1.10668,3.900181 z"
       id="path3350"
       inkscape:connector-curvature="0" />
    <path
       style="fill:#000000"
       d="m 31.234467,145.54736 21.421383,-0.27088 -3.898018,-2.87559 c -4.435708,-3.27225 -4.669871,-4.11212 -1.954794,-7.01123 1.123589,-1.19974 2.873495,-5.74243 4.148747,-10.76998 l 2.205523,-8.69506 -8.819689,-9.55407 C 33.899383,95.063166 33.26009,93.307684 37.281834,86.995567 c 1.545639,-2.425875 3.277183,-6.22275 3.847874,-8.4375 0.570692,-2.21475 1.25121,-4.765098 1.512264,-5.667442 C 43.071732,71.405135 42.225736,71.25 33.695159,71.25 c -5.662366,0 -10.131896,0.445064 -11.202044,1.115471 -3.298582,2.066436 -6.368843,-2.3391 -3.370028,-4.835674 0.751343,-0.625507 4.85181,-1.305718 9.11215,-1.511579 4.26034,-0.205862 10.689998,-1.152395 14.288129,-2.103406 5.595169,-1.478843 6.475446,-1.989059 6.081848,-3.525087 -0.253115,-0.987786 -0.463395,-3.985459 -0.46729,-6.661497 l -0.0071,-4.865522 -2.099119,1.978594 c -2.775313,2.615963 -3.939347,1.332457 -1.324119,-1.460023 1.711078,-1.827052 3.076778,-2.201879 8.561086,-2.349661 5.436038,-0.146481 6.838841,0.13875 8.403977,1.708777 C 65.444293,52.523804 62.604275,63.75 57.875517,63.75 c -1.751456,0 -1.901585,0.382126 -1.381212,3.515625 0.76406,4.600902 -1.130845,10.696276 -5.41251,17.410511 -1.880033,2.94815 -3.418242,5.861124 -3.418242,6.473276 0,0.612151 2.906162,5.560988 6.458139,10.997418 3.551976,5.43643 6.719532,11.16387 7.039014,12.72765 0.443629,2.17144 -0.434903,5.16181 -3.718244,12.65625 l -4.299121,9.81302 2.147129,3.98437 2.147128,3.98438 136.379322,0 c 133.80039,0 136.34903,-0.0336 134.7766,-1.77653 -1.51884,-1.68355 -1.47168,-2.26011 0.90115,-11.01563 1.37714,-5.08149 3.2986,-11.26812 4.26992,-13.74804 l 1.76604,-4.50896 -5.61578,-10.57901 c -3.08867,-5.818452 -5.60654,-11.594111 -5.59525,-12.834794 0.0113,-1.240683 0.83017,-4.044987 1.81973,-6.231787 1.05993,-2.342302 2.06029,-7.350026 2.43461,-12.1875 0.34947,-4.516325 1.15622,-9.498194 1.79278,-11.070821 1.04279,-2.57622 0.93101,-3.133156 -1.12891,-5.625 -7.68593,-9.297489 -9.61163,-12.034389 -9.61163,-13.660536 0,-2.413924 2.76763,-3.423884 4.15751,-1.517157 0.98608,1.352741 1.35569,1.354143 4.11087,0.0156 2.30894,-1.121745 3.51683,-1.231867 5.08978,-0.464028 1.13433,0.553716 3.74464,1.285808 5.80072,1.62687 5.29522,0.878371 6.07477,1.85343 6.07477,7.598367 0,3.717046 -0.47022,5.513142 -1.78991,6.836953 -1.52405,1.528817 -1.65351,2.334525 -0.87159,5.424663 0.76739,3.032714 0.38533,5.750858 -2.32467,16.538765 l -3.24299,12.909596 3.55982,11.273349 3.55981,11.27333 -3.05105,9.08819 c -1.67809,4.9985 -3.74153,10.42756 -4.58543,12.06459 -2.20581,4.2789 -1.95489,6.70555 0.80208,7.75702 1.28505,0.4901 2.33645,1.31043 2.33645,1.82294 0,0.55071 4.68271,1.05247 11.4486,1.22675 6.29673,0.1622 -67.82711,0.28897 -164.71963,0.28173 -96.892532,-0.008 -166.528614,-0.13507 -154.746853,-0.28406 z m 24.840302,-0.82733 c 0,-0.32586 -0.88674,-2.03172 -1.970532,-3.79082 l -1.970531,-3.19835 4.380156,-10.16542 C 61.80269,115.29117 61.749339,114.87377 53.256767,102.0828 47.37707,93.227174 43.644784,89.0625 41.588271,89.0625 c -1.251755,0 -3.696951,2.560366 -4.476648,4.6875 -0.441531,1.204566 -0.52604,1.194384 -0.589241,-0.07096 -0.04058,-0.812463 1.003731,-2.49264 2.320691,-3.733726 2.283766,-2.152192 2.514995,-2.187135 5.001217,-0.755781 l 2.606742,1.500741 3.79512,-6.204515 c 4.436973,-7.253854 6.150542,-12.904775 5.297068,-17.4684 -0.763042,-4.080074 -1.627026,-4.148602 -2.779856,-0.220485 -0.742158,2.528803 -1.529843,3.195772 -4.632521,3.922562 -2.056075,0.481627 -3.872721,0.968013 -4.03699,1.080855 -0.164269,0.112843 -0.916061,2.576796 -1.670647,5.475452 -0.754586,2.898656 -2.642115,7.263833 -4.194509,9.700395 -4.035471,6.333875 -3.401398,8.079808 7.043501,19.394412 l 8.819689,9.55407 -2.205522,8.69506 c -1.334881,5.26263 -3.012158,9.55636 -4.248897,10.87692 -2.53785,2.70987 -2.301652,3.40309 2.362534,6.93385 3.517724,2.6629 6.074767,3.62665 6.074767,2.28958 z m 282.243001,-0.23569 c 0,-0.45548 -0.839,-1.04825 -1.86444,-1.31724 -2.59999,-0.68204 -3.32989,-3.2381 -1.90314,-6.66472 0.66608,-1.59975 2.80269,-7.3886 4.74801,-12.86411 l 3.53693,-9.95548 -3.31426,-10.66952 C 336.3187,92.70459 333.09114,87.1875 330.26263,87.1875 c -0.63986,0 -2.0654,1.270732 -3.16787,2.82385 l -2.0045,2.82385 5.68748,10.71408 5.68747,10.71406 -1.76604,4.50896 c -0.97133,2.47992 -2.89278,8.66655 -4.26992,13.74804 -2.37283,8.75552 -2.41999,9.33208 -0.90115,11.01563 1.64603,1.82453 8.78967,2.5953 8.78967,0.94837 z M 330.1478,86.25 c 0.57208,0 2.01187,0.915726 3.19951,2.034947 1.18765,1.11922 2.30794,1.857501 2.48953,1.640625 0.18161,-0.216878 1.66731,-5.81054 3.30157,-12.43036 2.00676,-8.128768 2.77749,-13.072691 2.37415,-15.229361 l -0.59719,-3.193322 -1.83393,2.338736 c -2.22063,2.831904 -3.01118,2.896693 -5.45332,0.446923 l -1.88593,-1.891812 -0.78695,2.126187 c -0.43283,1.169403 -1.07838,5.821361 -1.43455,10.337686 -0.37917,4.808098 -1.39328,9.859423 -2.44678,12.1875 -2.36915,5.235502 -2.32309,7.188366 0.0967,4.102431 1.06534,-1.358599 2.40506,-2.47018 2.97715,-2.47018 z m -307.250603,-15 c 0.33527,-0.544174 5.553746,-0.942871 12.438334,-0.950302 14.629348,-0.01579 15.856528,-0.313509 16.822971,-4.081344 0.652322,-2.543185 1.216867,-2.976171 4.209311,-3.228391 6.180686,-0.520942 8.188386,-8.614963 2.13692,-8.614963 -3.615264,0 -6.31885,2.672267 -6.024792,5.954999 0.177025,1.976228 -0.122938,2.870085 -0.907945,2.705574 -0.64477,-0.135123 -4.626724,0.641439 -8.848787,1.725693 -4.222064,1.084254 -10.980486,2.104454 -15.018718,2.267112 -7.6057,0.306352 -9.660028,1.177733 -8.699039,3.689856 0.62934,1.645161 3.005718,1.969868 3.891745,0.531766 z M 338.13085,61.6875 c 1.3187,-1.32281 1.50384,-4.5 0.26224,-4.5 -1.63696,0 -11.27039,-9.552959 -13.31695,-13.205701 -1.13071,-2.018114 -2.60923,-3.669299 -3.2856,-3.669299 -2.36665,0 -1.19614,3.623182 2.74218,8.488167 2.18458,2.698597 5.11634,6.427886 6.51501,8.287311 4.82393,6.413 5.09793,6.590925 7.08312,4.599522 z m 4.32577,-5.973215 c 1.58326,-1.588204 2.0451,-7.901785 0.57802,-7.901785 -4.69251,0 -8.3466,5.765023 -5.14335,8.114617 2.19714,1.611607 2.77336,1.584744 4.56533,-0.212832 z m -11.31971,-6.868442 c -0.25509,-0.978537 0.0335,-2.711328 0.64136,-3.85065 1.52544,-2.859211 0.032,-4.147928 -3.13141,-2.702092 -3.0696,1.402975 -3.07448,1.852688 -0.0591,5.447469 2.82076,3.362757 3.17804,3.517669 2.54915,1.105273 z M 127.16946,120.80407 C 122.0487,119.29471 116.9176,115.23883 103.34413,101.9713 89.176007,88.122522 89.311482,88.407787 92.413384,78.954802 c 0.967546,-2.948579 2.714825,-9.057532 3.882844,-13.575451 1.168019,-4.517921 2.290832,-8.04671 2.49515,-7.841756 0.423187,0.424509 -3.693169,16.569756 -5.244561,20.570311 -1.42714,3.680148 -1.376221,6.058468 0.09805,4.579594 1.526907,-1.531679 4.486281,-1.415332 6.318982,0.248428 1.373941,1.247282 1.818931,0.343153 4.844921,-9.84375 1.83261,-6.169447 3.20237,-11.217178 3.04392,-11.217178 -0.15845,0 -1.34684,0.4839 -2.64084,1.075333 -3.17768,1.452368 -5.518169,-0.431644 -4.99325,-4.019369 0.20778,-1.420067 0.0637,-2.387256 -0.320059,-2.149308 -0.383814,0.237948 -1.884814,-0.591555 -3.335571,-1.843339 -2.180738,-1.881656 -2.637729,-3.020942 -2.637729,-6.575895 0,-2.364957 -0.397551,-4.299922 -0.88344,-4.299922 -0.485893,0 -2.058608,1.129401 -3.494924,2.509779 -3.382496,3.250763 -4.667474,2.027813 -1.430486,-1.361433 3.271342,-3.425216 13.833089,-5.697118 16.918229,-3.639226 1.81749,1.212325 2.2108,1.046674 4.93951,-2.08033 2.82211,-3.234049 3.04474,-3.319219 4.62654,-1.769935 1.59001,1.557323 1.5496,1.745047 -0.93588,4.347431 -2.33722,2.447147 -5.57902,9.459409 -4.75978,10.295753 0.65633,0.670035 11.57127,-8.3872 14.78964,-12.272462 2.18415,-2.636741 3.62217,-3.679072 4.22278,-3.060827 2.19222,2.256603 -0.30571,6.273697 -9.26543,14.900322 l -9.17218,8.83119 -2.9226,9.696745 c -1.60743,5.333208 -3.28378,10.816113 -3.72522,12.184233 -0.73415,2.275312 0.23063,3.674622 11.31063,16.404898 7.71037,8.858762 13.88072,15.035322 16.97595,16.993032 2.67451,1.69159 4.86273,3.59063 4.86273,4.2201 0,1.46931 -4.688,1.75783 -8.81185,0.54231 z m 8.32602,-0.56969 c -0.0102,-0.38672 -2.10684,-1.94675 -4.65919,-3.46673 -3.16341,-1.88387 -8.99707,-7.77791 -18.32594,-18.515625 C 102.19034,86.373509 98.29363,82.5 96.663948,82.5 c -1.188608,0 -2.425271,0.428756 -2.748131,0.952792 -0.32286,0.524036 -0.891286,0.764161 -1.263161,0.533611 -0.371876,-0.230549 -0.781492,0.922725 -0.91026,2.562833 -0.212178,2.702513 0.919895,4.10607 12.078184,14.974664 13.23015,12.88666 18.3039,16.86791 23.34888,18.32134 3.93084,1.13245 8.35107,1.33904 8.32602,0.38914 z M 107.29226,60.917723 c 5.45491,-3.336183 19.56905,-17.669886 20.09297,-20.405542 0.7336,-3.830545 0.0324,-3.718696 -3.63557,0.579961 -4.32681,5.070703 -13.25663,11.94173 -18.60313,14.314134 -3.22161,1.429524 -4.21195,2.372984 -4.21195,4.012594 0,3.929581 1.72016,4.335118 6.35768,1.498853 z m -0.7502,-7.480223 c 2.19726,-2.204133 2.38132,-4.564029 0.5517,-7.073995 -1.29282,-1.77356 -1.354,-1.774194 -3.27103,-0.03388 -1.33645,1.21325 -1.95357,2.91218 -1.95357,5.37818 0,4.14206 1.65672,4.755304 4.6729,1.729699 z m 6.30195,-11.408194 C 114.9721,39.727826 115.08646,37.5 113.07652,37.5 c -0.45753,0 -1.93935,1.456525 -3.29294,3.236722 -1.76973,2.327488 -2.27689,3.818842 -1.80542,5.308964 0.62867,1.98696 0.69469,1.998437 1.60402,0.278902 0.52161,-0.986336 1.98943,-2.919213 3.26183,-4.295282 z m 186.22142,70.111704 c -1.79906,-1.13148 -8.47314,-7.14503 -14.83128,-13.363432 -13.11102,-12.822875 -12.01895,-9.77959 -9.44749,-26.327462 0.93186,-5.996651 0.95877,-9.156252 0.12132,-14.243088 -0.5919,-3.595326 -1.07619,-8.60515 -1.07619,-11.132941 0,-3.405368 -0.48422,-5.035565 -1.86916,-6.292837 -2.23632,-2.030163 -2.36891,-3.573117 -0.4447,-5.175053 1.78284,-1.484254 2.95824,-0.483429 1.50093,1.278011 -0.82287,0.99459 -0.79132,1.544258 0.1328,2.313597 0.94632,0.787836 1.95661,-0.669513 4.60789,-6.646902 1.86771,-4.210789 3.84824,-7.807254 4.40118,-7.992144 1.35435,-0.45286 3.14655,4.442853 2.11945,5.789651 -0.4437,0.581811 -1.55029,2.956278 -2.45909,5.27659 -0.90878,2.320313 -1.86147,4.746094 -2.11707,5.390625 -0.31174,0.78608 0.49121,1.171875 2.43899,1.171875 3.59356,0 6.62722,2.871464 6.68556,6.328125 0.0746,4.419187 4.70171,-5.718501 5.31042,-11.634743 0.57951,-5.63242 1.77335,-7.098099 3.66635,-4.501175 2.47513,3.395522 1.50103,9.055116 -3.32127,19.296673 -4.48093,9.516543 -4.59413,9.976526 -5.1633,20.97987 l -0.58194,11.25 7.5347,8.90625 c 7.47323,8.83359 11.20312,14.57777 11.20312,17.25324 0,1.26944 -3.47993,4.43013 -4.64721,4.22089 -0.27114,-0.0486 -1.96494,-1.01413 -3.76401,-2.14562 z m 5.66892,0.32601 c 2.21194,-1.18749 2.27867,-2.89337 0.26641,-6.81045 -1.76461,-3.43502 -16.2679,-21.28157 -17.29481,-21.28157 -2.19175,0 -0.83646,2.420686 5.57542,9.958312 9.22282,10.842088 9.83561,11.604188 9.33072,11.604188 -0.23129,0 -4.53744,-4.85587 -9.56922,-10.790831 -9.15383,-10.796905 -12.24679,-13.018451 -15.38378,-11.049537 -0.81997,0.514653 -1.6157,1.9677 -1.76827,3.228992 -0.22541,1.863351 1.73692,4.197794 10.46762,12.45261 8.93257,8.445676 14.63804,13.210506 16.2731,13.590236 0.1623,0.0377 1.10857,-0.36819 2.10281,-0.90195 z M 279.76643,82.5 c 1.13338,0 2.95029,0.625059 4.0376,1.389022 3.40421,2.391857 4.17655,0.03383 4.35396,-13.293118 0.17421,-13.085776 -0.39465,-16.218497 -2.61012,-14.374074 -0.74025,0.616274 -2.0889,0.976967 -2.99699,0.801538 -3.29707,-0.636943 -6.39708,9.179784 -8.4893,26.882882 l -0.44319,3.75 2.04369,-2.578125 C 276.7861,83.660156 278.63307,82.5 279.76643,82.5 Z m -0.78308,-32.527591 c -0.57557,-6.931326 -0.39941,-8.53247 1.4552,-13.22608 1.16053,-2.937043 2.44426,-5.783907 2.85272,-6.326363 0.79655,-1.057856 0.0595,-5.119284 -0.92362,-5.089583 -0.32556,0.0098 -2.0639,3.279365 -3.86297,7.265625 -2.91508,6.45907 -3.27102,8.114871 -3.27102,15.216492 0,4.382812 0.35407,9.65557 0.78683,11.717239 l 0.78683,3.748489 1.41544,-2.709908 c 1.11292,-2.130731 1.27548,-4.395353 0.76059,-10.595911 z m 14.95143,0.735225 c 4.04244,-8.331604 5.11567,-13.462855 3.62879,-17.349709 -1.07375,-2.80689 -1.97615,-1.471351 -2.50969,3.714307 -0.35316,3.4325 -1.65949,7.249883 -3.84721,11.242399 -2.55097,4.655416 -3.18174,6.700974 -2.74374,8.89782 0.31281,1.568959 0.72783,2.693078 0.92226,2.498041 0.19443,-0.195035 2.24174,-4.246321 4.54959,-9.002858 z m -7.7934,3.990815 c 1.00686,-0.914044 1.7091,-2.840061 1.7091,-4.6875 0,-2.809611 -0.27232,-3.135949 -2.61682,-3.135949 -1.43926,0 -3.1215,0.50625 -3.73832,1.125 -1.19227,1.196 -1.54397,6.576201 -0.49844,7.625 1.08682,1.090219 3.37734,0.677684 5.14448,-0.926551 z m -71.65575,34.939757 c -5.9969,-2.62174 -6.61645,-6.464601 -1.23101,-7.635539 1.70529,-0.370775 5.91541,-2.091285 9.35582,-3.823354 l 6.2553,-3.149218 -0.55101,-6.811922 c -0.59798,-7.392578 -3.06461,-14.037369 -7.7428,-20.858126 -4.35364,-6.347579 -5.86623,-10.456758 -4.67265,-12.693957 1.52927,-2.866398 2.69448,-2.238015 4.74406,2.558442 2.55253,5.973392 8.25463,15.275468 9.36376,15.275468 0.55335,0 0.5273,-0.698193 -0.0677,-1.813368 -1.5203,-2.849585 -1.16049,-8.039962 0.66805,-9.636807 1.60541,-1.401984 7.77501,-2.789599 12.38025,-2.784461 1.28344,0.0014 2.62739,-0.474378 2.98657,-1.057355 0.35918,-0.582977 0.94613,-0.765965 1.30433,-0.40664 1.13562,1.139164 -1.73861,3.663085 -3.61189,3.171681 -2.80009,-0.734528 -4.68625,0.2875 -3.39992,1.842272 0.58421,0.706119 0.88855,2.775761 0.67635,4.599205 l -0.38585,3.315352 5.47138,-5.411815 c 3.00926,-2.976497 5.97498,-6.435349 6.59051,-7.686337 2.50051,-5.082081 5.54988,-2.379819 3.37914,2.994485 -0.67314,1.666521 -3.90055,5.8323 -7.17202,9.257285 -5.62689,5.890915 -6.00523,6.574478 -7.00481,12.65625 -0.58117,3.535952 -1.08156,9.675204 -1.11198,13.642783 -0.0339,4.419603 -0.50447,7.666249 -1.21488,8.381928 -0.93532,0.942253 -20.02592,7.365388 -21.73764,7.313749 -0.25701,-0.0078 -1.72913,-0.565754 -3.2714,-1.240001 z m 13.97347,-2.817757 c 7.71375,-2.362297 10.45141,-3.621329 11.1142,-5.111341 0.95385,-2.144339 -0.52352,-4.834108 -2.65516,-4.834108 -0.64392,0 -4.43292,1.491257 -8.41999,3.313905 -3.98708,1.822648 -7.41462,3.148005 -7.61675,2.94524 -0.20214,-0.202767 2.26752,-1.515018 5.4881,-2.916116 4.78011,-2.07955 5.56286,-2.711801 4.26168,-3.442257 -1.17878,-0.661737 -3.24561,-0.06324 -7.93499,2.297725 -3.48757,1.755893 -7.73128,3.494792 -9.43045,3.86422 -3.99763,0.869149 -3.67278,3.19915 0.75571,5.420201 1.79755,0.901542 3.47856,1.629654 3.73557,1.618027 0.25701,-0.01162 5.07294,-1.431601 10.70208,-3.155496 z m 11.38077,-13.929824 c -0.0169,-2.707031 0.32017,-6.914605 0.74907,-9.350166 0.52402,-2.975631 0.41525,-5.311241 -0.33158,-7.119883 -0.99676,-2.413914 -1.53795,-2.68245 -5.24584,-2.60296 l -4.13441,0.08863 -1.06332,5.136812 c -1.21515,5.87036 -0.46675,15.959013 1.26561,17.060856 0.63998,0.407051 2.48226,0.49824 4.09395,0.202643 1.68526,-0.309088 3.19782,-0.103333 3.55984,0.484245 1.02509,1.663829 1.13895,1.262571 1.10668,-3.900181 z M 225.67946,48.197021 c -2.28865,-3.495406 -4.85431,-8.175925 -5.70149,-10.401153 -1.62654,-4.272371 -2.59587,-4.986131 -3.51355,-2.587215 -0.73165,1.912606 1.07126,6.086849 5.77645,13.374113 2.10462,3.259584 4.34692,7.478334 4.9829,9.375 l 1.15631,3.448484 0.73027,-3.426972 c 0.65536,-3.075457 0.30344,-4.078853 -3.43089,-9.782257 z m 21.97207,1.021729 c 4.78343,-4.636632 8.42325,-10.292011 8.42325,-13.087652 0,-1.969958 -1.79524,-1.82811 -2.49356,0.197027 -0.31115,0.902344 -3.6862,4.837996 -7.50011,8.745893 -6.69771,6.862782 -6.89436,7.19334 -5.76219,9.685929 1.03236,2.272889 1.25114,2.375869 1.83443,0.863481 0.36425,-0.944447 2.83844,-3.826553 5.49818,-6.404678 z m -10.81207,3.649698 c 1.7686,-0.680794 2.01644,-6.016132 0.35681,-7.680948 -3.74193,-3.753625 -8.95363,1.344234 -5.99888,5.867846 1.57279,2.407869 2.94849,2.849956 5.64207,1.813102 z M 152.837,79.735523 c -8.00278,-2.165876 -9.54656,-2.906874 -10.9764,-5.268562 -2.14206,-3.538098 -2.11192,-3.82319 0.59198,-5.600387 2.06205,-1.355333 2.65286,-1.357276 6.57471,-0.02161 2.36999,0.807143 5.97661,1.467535 8.01473,1.467535 l 3.70565,0 0,-6.717252 0,-6.717252 -5.60748,-5.857854 c -3.08411,-3.22182 -5.6059,-6.421713 -5.60398,-7.110873 0.006,-1.902311 3.55287,-7.335576 5.20486,-7.971485 2.78139,-1.070654 3.69347,1.258429 1.9385,4.950147 -0.89072,1.873688 -1.49632,3.51176 -1.34579,3.64016 0.9563,0.815677 6.43556,3.284409 7.28963,3.284409 0.62934,0 0.46464,-0.815394 -0.42088,-2.083599 -3.09029,-4.425801 -0.63569,-11.941694 3.91897,-11.999747 1.32549,-0.01689 1.19261,-0.368373 -0.70093,-1.854154 -2.29625,-1.80176 -2.30118,-1.833667 -0.28664,-1.854154 1.12739,-0.01146 2.7045,0.916774 3.50467,2.062753 0.80017,1.145981 1.45486,1.554615 1.45486,0.908077 0,-0.646538 0.66203,-1.430359 1.47116,-1.741824 1.79393,-0.690542 9.7438,6.801905 9.7438,9.183145 0,0.882808 -1.23215,5.11919 -2.7381,9.41418 -4.01335,11.446038 -5.87328,20.213424 -4.7391,22.339278 1.64675,3.086592 1.10665,7.274222 -1.14197,8.854135 -2.91791,2.050174 -8.91043,1.656232 -19.85225,-1.305067 z m 11.64899,1.320879 c 0,-0.278354 -0.81846,-2.115424 -1.8188,-4.082378 -1.69202,-3.326981 -2.16579,-3.612203 -6.79662,-4.091641 -2.73781,-0.283449 -6.44038,-1.184219 -8.22793,-2.00171 -2.23808,-1.023525 -2.52258,-1.329458 -0.91366,-0.982496 1.90775,0.411405 2.04994,0.322702 0.77496,-0.48344 -1.04866,-0.663047 -2.35314,-0.68537 -3.97196,-0.06797 -2.74121,1.045459 -2.8395,1.474762 -1.07117,4.67832 1.02493,1.856814 3.06776,2.792337 10.4809,4.799812 9.97388,2.700917 11.54428,3.004475 11.54428,2.231502 z m 7.53807,-0.464387 c 1.99704,-1.072119 2.45117,-5.446736 0.87258,-8.40556 -0.65521,-1.228115 -0.49852,-3.64131 0.5235,-8.061905 1.18689,-5.133821 1.25669,-7.153506 0.37462,-10.841837 L 172.71077,48.75 l -4.41917,0 -4.41916,0 -1.0951,4.759022 c -0.6023,2.617462 -1.09509,8.090551 -1.09509,12.162421 0,12.398141 4.07886,18.28288 10.34181,14.920572 z m -12.9119,-9.06614 c -1.15655,-0.223456 -3.04907,-0.223456 -4.20561,0 -1.15654,0.223456 -0.21028,0.406284 2.1028,0.406284 2.31309,0 3.25935,-0.182828 2.10281,-0.406284 z m -7.02882,-0.842282 c -0.31056,-0.311522 -1.11663,-0.344829 -1.79128,-0.07402 -0.74554,0.299274 -0.52409,0.521421 0.56465,0.566406 0.98519,0.04071 1.53718,-0.18087 1.22663,-0.492393 z m 10.44033,-20.150586 c 0.0554,-0.890619 -1.44125,-2.192328 -3.69031,-3.20968 -4.78392,-2.163992 -5.01872,-2.595525 -3.26407,-5.999238 1.81355,-3.517979 1.81994,-4.761589 0.0245,-4.761589 -1.48457,0 -5.11695,5.20096 -5.12295,7.335222 -0.002,0.68281 2.41127,3.781011 5.36265,6.88489 5.08587,5.348663 5.39828,5.528649 5.9816,3.446028 0.33851,-1.208565 0.6574,-2.8716 0.70863,-3.695633 z m 15.85851,-2.668168 c 1.09542,-3.322776 1.99166,-6.679989 1.99166,-7.460472 0,-1.74829 -6.46643,-8.529367 -8.1336,-8.529367 -0.66671,0 -1.2122,0.632812 -1.2122,1.40625 0,0.773437 0.39193,1.40625 0.87095,1.40625 0.47901,0 1.79661,1.30405 2.92799,2.897889 l 2.05705,2.89789 -1.92464,3.435123 c -1.68621,3.009573 -1.79362,3.927504 -0.86705,7.409732 0.58167,2.186036 1.33671,3.660399 1.67788,3.276363 0.34117,-0.384035 1.51655,-3.416882 2.61196,-6.739658 z m -12.52866,-2.161714 c -0.34517,-1.160156 -1.3148,-3.164063 -2.15474,-4.453125 l -1.52715,-2.34375 -0.31677,2.163578 c -0.34075,2.327367 2.04953,6.742672 3.65023,6.742672 0.57506,0 0.7182,-0.866548 0.34843,-2.109375 z m 9.55126,-5.566406 c -0.29833,-0.747875 -0.51979,-0.525728 -0.56463,0.566406 -0.0406,0.988281 0.1803,1.541992 0.49086,1.230469 0.31055,-0.311524 0.34374,-1.120117 0.0737,-1.796875 z m 16.16526,-20.003125 c -1.55257,-1.876586 -0.44211,-2.934354 1.43765,-1.369421 1.15497,0.961542 1.70233,0.976421 2.59267,0.07048 0.88335,-0.898817 0.77319,-1.411794 -0.50689,-2.360494 -2.00597,-1.486659 -2.09557,-2.41166 -0.23365,-2.41166 0.77103,0 1.40187,-0.474609 1.40187,-1.054687 0,-0.68103 -1.03369,-0.847304 -2.9177,-0.469325 -2.55942,0.513485 -2.77008,0.406936 -1.71551,-0.867711 0.66883,-0.808406 2.27427,-1.328062 3.61863,-1.1713 2.17051,0.253096 2.43263,0.710548 2.57541,4.494737 0.0874,2.317129 -0.27949,4.742911 -0.81537,5.390625 -1.32822,1.6054 -4.00329,1.481787 -5.43711,-0.251245 z m 8.4932,-0.32757 c -2.37477,-4.45116 -0.23794,-9.9175337 3.65424,-9.348183 3.18819,0.46637 3.56476,2.613415 0.41801,2.383347 -1.39121,-0.101716 -2.69209,0.271679 -2.89085,0.829765 -0.19874,0.558087 0.54135,0.979962 1.64467,0.9375 2.70025,-0.103921 4.45539,2.652122 3.08524,4.844672 -1.49348,2.389902 -4.72171,2.582624 -5.91131,0.352899 z m 4.60967,-1.469446 c 0,-0.743007 -0.45721,-1.634372 -1.01601,-1.980813 -1.31965,-0.818135 -3.12094,0.988778 -2.30535,2.312549 0.91608,1.486894 3.32136,1.246658 3.32136,-0.331736 z m 3.79244,1.885098 c -1.59061,-1.92256 -0.85327,-8.104518 1.1141,-9.340683 2.53807,-1.5947665 4.85498,0.416186 5.20049,4.513755 0.32285,3.828946 -1.02898,6.167752 -3.56498,6.167752 -0.90216,0 -2.13948,-0.60337 -2.74961,-1.340824 z m 4.15148,-4.362301 c 0,-2.222223 -0.4293,-3.203125 -1.40187,-3.203125 -1.49629,0 -2.37221,3.426487 -1.47529,5.771141 0.94795,2.478017 2.87716,0.756091 2.87716,-2.568016 z m 4.57008,-1.258837 c -0.85028,-2.22271 0.35281,-4.4675 2.2028,-4.110112 1.0346,0.19987 1.63834,1.170727 1.63834,2.634574 0,2.672463 -2.9498,3.805599 -3.84114,1.475538 z m 2.12364,-2.647413 c -0.25926,-0.644531 -0.47139,-0.117187 -0.47139,1.171875 0,1.289063 0.21213,1.816406 0.47139,1.171875 0.25926,-0.644531 0.25926,-1.699219 0,-2.34375 z"
       id="path3348"
       inkscape:connector-curvature="0" />
  </g>
</svg>
