<?xml version="1.0" encoding="UTF-8" standalone="no"?>
<!-- Created with Inkscape (http://www.inkscape.org/) -->

<svg
   xmlns:dc="http://purl.org/dc/elements/1.1/"
   xmlns:cc="http://creativecommons.org/ns#"
   xmlns:rdf="http://www.w3.org/1999/02/22-rdf-syntax-ns#"
   xmlns:svg="http://www.w3.org/2000/svg"
   xmlns="http://www.w3.org/2000/svg"
   xmlns:sodipodi="http://sodipodi.sourceforge.net/DTD/sodipodi-0.dtd"
   xmlns:inkscape="http://www.inkscape.org/namespaces/inkscape"
   id="svg3502"
   version="1.1"
   inkscape:version="0.91 r13725"
   width="355.1402"
   height="196.875"
   viewBox="0 0 355.1402 196.875"
   sodipodi:docname="fx131003.svg">
  <metadata
     id="metadata3508">
    <rdf:RDF>
      <cc:Work
         rdf:about="">
        <dc:format>image/svg+xml</dc:format>
        <dc:type
           rdf:resource="http://purl.org/dc/dcmitype/StillImage" />
        <dc:title></dc:title>
      </cc:Work>
    </rdf:RDF>
  </metadata>
  <defs
     id="defs3506" />
  <sodipodi:namedview
     pagecolor="#b1b1b1"
     bordercolor="#666666"
     borderopacity="1"
     objecttolerance="10"
     gridtolerance="10"
     guidetolerance="10"
     inkscape:pageopacity="0"
     inkscape:pageshadow="2"
     inkscape:window-width="1449"
     inkscape:window-height="827"
     id="namedview3504"
     showgrid="false"
     inkscape:zoom="1.1468527"
     inkscape:cx="89.844274"
     inkscape:cy="40.923479"
     inkscape:window-x="0"
     inkscape:window-y="0"
     inkscape:window-maximized="0"
     inkscape:current-layer="svg3502" />
  <g
     id="g4226"
     transform="translate(-15.766889,-4.6242207)">
    <path
       sodipodi:nodetypes="cccsssscscccccccssscscsssccccsscsccccscsc"
       inkscape:connector-curvature="0"
       id="path4178"
       d="m 240.125,47.88281 c -0.1804,-0.0118 -0.37472,-0.0118 -0.58203,0.002 -0.18853,0.0123 -0.38584,0.0374 -0.5957,0.0723 -1.46866,0.24653 -3.45157,1.0538 -5.79883,2.58203 -4.5559,2.96623 -5.00506,3.07184 -7.06055,1.66797 -3.03293,-2.07145 -8.12397,-1.1299 -11.19727,2.07227 -2.08439,2.17179 -2.39905,3.34598 -1.6621,6.1875 0.60826,2.34536 0.46603,3.56709 -0.42969,3.6914 -0.73649,0.10216 -2.76722,1.8465 -4.51367,3.875 -4.82639,5.60591 -5.09876,13.04167 -0.90625,24.90039 l 0.47656,1.34375 c 0.002,0.007 0.0117,0.051 0.0137,0.0566 0.87441,2.58356 1.21008,3.53671 -0.76172,5.25391 -0.16609,0.14465 -7.43555,4.64464 -14.23242,9.11914 -2.44133,1.74613 -3.88931,4.34767 -3.06055,6.75781 0.36346,0.99794 0.99706,2.06046 1.92578,3.1211 7.34703,5.62677 12.91711,10.58848 15.47266,13.8164 5.14613,6.50013 6.46767,7.51582 7.71289,5.92969 0.46512,-0.59245 -0.14757,-3.77246 -1.36133,-7.06641 -1.76323,-4.78506 -3.23456,-6.83134 -12.68359,-15.96874 7.21731,-3.65422 13.35528,-6.94037 14.5918,-7.9629 1.04488,-0.86406 2.25382,-1.71261 3.27148,-2.33789 2.69151,-0.50858 5.99301,-1.11848 10.06055,-1.84375 19.04656,-3.39615 19.79823,-3.97061 18.39062,-14.11328 -0.51132,-3.6844 -1.07622,-11.62103 -1.25586,-17.63281 -0.24193,-8.09519 -0.67958,-11.1986 -1.68945,-11.96484 -3.94849,-2.9958 -6.93342,6.2907 -6.91602,21.51953 0.0114,9.70503 -0.0535,9.93913 -3.01953,10.97461 -1.66707,0.58202 -4.76128,1.2991 -6.87304,1.58984 -3.54345,0.4883 -4.12809,0.12766 -7.60938,-4.63477 -4.4237,-6.0516 -4.52687,-9.20723 -0.46875,-14.35742 1.47349,-1.87001 2.52545,-4.50796 2.33789,-5.85937 -0.24535,-1.76797 0.26575,-2.54126 1.82617,-2.75781 1.19275,-0.16553 3.06966,-1.58966 4.16797,-3.16797 l 1.9961,-2.8711 2.58007,3.85938 c 2.53692,3.794 4.54108,4.89166 4.16602,2.2832 -0.10479,-0.72989 -1.09294,-2.59755 -2.19531,-4.15039 -1.10237,-1.55282 -2.02868,-2.99737 -2.0586,-3.21289 -0.0299,-0.21551 2.16226,-1.93573 4.86914,-3.82031 5.39386,-3.75531 5.7783,-6.77572 3.07227,-6.95313 z"
       style="fill:#000000" />
    <path
       sodipodi:nodetypes="ccccscscsccc"
       inkscape:connector-curvature="0"
       id="path4249"
       d="m 208.90039,99.18945 c -1.80686,0.99756 -6.14433,4.36569 -16.5293,11.20313 -1.63814,1.27158 -2.01998,3.09144 -1.47656,4.82226 0.32894,1.01156 0.98691,2.10297 2.0332,3.16797 7.63864,5.84287 12.84749,10.50881 15.53907,13.9375 2.59877,3.31044 5.0867,5.88452 5.53125,5.72071 0.44456,-0.16382 -0.18366,-2.99628 -1.39844,-6.29297 -1.87322,-5.08359 -3.45255,-7.13241 -13.18945,-16.57032 5.54613,-2.76009 10.28784,-5.19904 12.00586,-6.20117 4.12037,-2.40346 6.37823,-3.65786 3.80273,-3.6914 -1.23287,-0.016 -3.54163,-2.13935 -4.73047,-3.21485 -0.66188,-0.5988 -0.76658,-2.92347 -1.58789,-2.88086 z"
       style="fill:#fefefe" />
    <path
       sodipodi:nodetypes="ccsssssssssssssssccccscccsccccssssssscssc"
       inkscape:connector-curvature="0"
       id="path4253"
       d="m 88.288444,74.126658 c -0.03282,0.0081 -0.05754,0.02548 -0.07227,0.05078 -0.117813,0.202384 -1.196409,1.771967 -2.396484,3.488281 -2.627468,3.757762 -1.728473,5.477396 0.941406,1.800782 2.632953,-3.625759 3.543248,-3.20426 2.445313,1.134765 -0.647162,2.557586 -0.625891,4.613361 0.06641,6.605469 0.758355,2.182208 0.725082,2.98764 -0.130859,3.279297 -4.467729,1.522338 -13.249386,3.277344 -16.394532,3.277344 -7.312755,0 -11.408293,3.181343 -8.216796,6.382814 1.272176,1.27615 1.870286,1.34647 3.386718,0.39648 1.036274,-0.649184 4.938529,-1.154294 8.925782,-1.154294 6.305384,0 7.033739,0.180531 6.611328,1.640624 -0.261056,0.90234 -0.924355,3.38428 -1.472657,5.51563 -0.548302,2.13134 -1.558153,4.34523 -2.246093,4.91796 -2.119523,1.76454 -4.607614,8.30845 -4.03125,10.60352 0.299372,1.19207 3.492071,6.37349 7.095703,11.51563 5.981217,8.53473 6.441297,9.51803 5.283203,11.29101 -0.697729,1.06821 -3.412009,6.76368 -6.033203,12.65625 l -4.765625,10.71484 2.558594,2.10157 c 1.407205,1.1559 2.978168,2.20986 3.492187,2.34179 0.514019,0.13194 -8.106801,0.47484 -19.158203,0.76368 -11.051402,0.28884 35.209274,0.53015 102.802734,0.53515 21.75194,0.002 124.60366,-0.0153 141.5957,-0.0391 l 0.14062,-0.5293 c -12.01932,0.0306 -111.9758,0.0332 -133.16601,0.0332 l -86.113278,0 -2.408204,-3.6504 -2.410156,-3.65234 6.601563,-10.61133 c 3.630665,-5.8368 6.601555,-11.06938 6.601555,-11.62695 0,-0.55757 -2.10373,-6.12455 -4.673821,-12.37109 -2.57009,-6.24652 -4.671875,-11.79225 -4.671875,-12.32422 0,-0.53198 1.656177,-3.62842 3.679688,-6.88086 4.524958,-7.27301 6.276698,-13.588569 4.882808,-17.59956 -0.91384,-2.62966 -0.8264,-2.845703 1.1543,-2.845703 1.17864,0 2.87527,-0.809553 3.76953,-1.800782 2.05742,-2.280527 2.93703,-8.566417 1.56055,-11.146484 -1.20522,-2.258984 -6.89221,-4.132709 -10.095704,-3.326172 -1.19453,0.300746 -2.807207,0.01777 -3.583984,-0.628906 -0.679674,-0.565846 -1.324958,-0.916386 -1.554688,-0.859375 z"
       style="fill:#000000" />
    <path
       id="path4283"
       d="m 83.335582,171.93939 c -1.028037,-0.79895 -2.591688,-1.97595 -3.474779,-2.61557 -1.479092,-1.0713 -1.231509,-2.00396 3.141826,-11.83543 2.611093,-5.86987 5.318318,-11.54648 6.016047,-12.61469 1.157939,-1.77276 0.700409,-2.75334 -5.244627,-11.24012 -3.582276,-5.11387 -6.513233,-9.96547 -6.513233,-10.78134 0,-2.31527 2.728388,-5.65059 4.622355,-5.65059 3.364121,0 5.850159,3.46712 10.394084,14.49598 2.535345,6.15373 4.609725,11.64711 4.609725,12.20752 0,0.5604 -2.970545,5.79448 -6.601215,11.63128 l -6.60122,10.61237 2.408869,3.65143 c 2.105701,3.19187 2.201365,3.64767 0.760103,3.62161 -0.906832,-0.0164 -2.489897,-0.68351 -3.517935,-1.48245 z"
       style="fill:#fefefe"
       inkscape:connector-curvature="0" />
    <path
       id="path4275"
       d="m 64.490566,98.857384 c -0.926015,-2.420693 1.053523,-3.416437 8.261409,-4.155644 3.76491,-0.386111 9.531451,-1.414373 12.814542,-2.285027 6.596578,-1.749371 8.183958,-1.185508 7.243568,2.573023 -0.74139,2.963198 -2.69471,3.43348 -14.325889,3.449112 -5.326789,0.0072 -9.778842,0.425972 -10.101885,0.950302 -0.886028,1.4381 -3.262405,1.11339 -3.891745,-0.531766 z"
       style="fill:#fefefe"
       inkscape:connector-curvature="0" />
    <path
       id="path4271"
       d="m 93.771725,90.32665 c -1.33996,-1.344151 -0.51428,-4.775671 1.636895,-6.802921 1.80263,-1.698771 2.86259,-1.996989 5.23787,-1.473659 2.73317,0.602181 2.93102,0.891268 2.40739,3.517614 -0.31379,1.573833 -1.04008,3.429066 -1.61398,4.12274 -1.07271,1.296556 -6.55635,1.751533 -7.668175,0.636226 z"
       style="fill:#fefefe"
       inkscape:connector-curvature="0" />
    <path
       id="path4291"
       d="m 76.34161,119.90621 c 0.0084,-0.71407 1.045594,-2.98581 2.30475,-5.04831 3.312671,-5.42615 4.044716,-7.04839 5.128633,-11.3652 0.894664,-3.563074 1.264533,-3.912364 4.731851,-4.468543 4.630721,-0.742796 6.741066,-4.08933 4.691001,-7.438845 -1.23193,-2.01278 -1.22262,-2.016797 0.70005,-0.302076 4.359325,3.887885 3.381115,11.171954 -2.87351,21.396924 -3.611382,5.90382 -3.937382,6.18369 -5.733261,4.92188 -2.805797,-1.9714 -4.852746,-1.64161 -7.027897,1.13229 -1.072408,1.36761 -1.930128,1.89068 -1.921617,1.17188 z"
       style="fill:#fefe00"
       inkscape:connector-curvature="0" />
    <path
       id="path4258"
       d="m 296.2535,71.603654 c -1.12369,0.05833 -2.23134,1.035645 -2.23134,2.517261 0,0.990249 1.76865,3.974175 3.92948,6.630267 8.1494,10.017225 8.19858,10.128549 6.76743,14.898782 -0.7005,2.334815 -1.57757,7.108116 -1.95121,10.608046 -0.37364,3.49992 -1.44637,8.05484 -2.38204,10.1212 -0.93566,2.06636 -1.71013,4.75977 -1.72131,5.98694 -0.0112,1.22722 2.48685,6.9544 5.55034,12.7254 5.50936,10.37856 5.55418,10.52778 4.22119,13.72806 -0.74121,1.77952 -2.43905,7.25977 -3.77493,12.17867 -1.83995,6.77499 -2.21791,8.48508 -1.53585,9.75221 0.15928,0.23896 0.31703,0.48655 0.47718,0.68969 0.0224,0.0263 0.0425,0.0525 0.0657,0.0792 0.73736,0.91284 1.49898,1.48052 2.39169,1.89712 0.54681,0.25519 1.78905,0.36805 2.98286,0.42695 9.9009,-0.0451 16.59608,-0.0954 14.79253,-0.15261 -5.4335,-0.17234 -9.47596,-0.69078 -9.47596,-1.2171 0,-0.5048 -1.03946,-1.31575 -2.31055,-1.80052 -2.72462,-1.03913 -2.97518,-3.44012 -0.7998,-7.65997 0.83108,-1.61217 2.66444,-6.35435 4.07437,-10.5385 l 2.56362,-7.60781 -3.52184,-11.15476 -3.52378,-11.1567 3.12387,-12.33708 c 3.2109,-12.679498 3.73284,-16.960912 2.3376,-19.170212 -0.52652,-0.833721 -0.20446,-1.866831 0.9389,-3.013758 1.23943,-1.243303 1.74064,-3.07978 1.74064,-6.382984 0,-6.339689 -2.22636,-8.592666 -8.16806,-8.268515 -2.37153,0.129379 -5.06669,-0.09838 -5.98887,-0.506157 -0.92587,-0.409411 -2.61145,-0.313964 -3.76334,0.212509 -1.62731,0.743772 -2.28758,0.631368 -3.0041,-0.508089 -0.45083,-0.716958 -1.13018,-1.012535 -1.80439,-0.97754 z m 7.14222,2.683404 c 0.47621,-0.027 0.80758,0.187084 1.03743,0.64139 0.19351,0.382516 0.10218,1.947351 -0.20478,3.477413 l -0.55832,2.78193 -1.74644,-2.629311 c -1.47393,-2.21952 -1.54159,-2.757945 -0.43274,-3.461958 0.80827,-0.513176 1.42865,-0.78246 1.90485,-0.809464 z"
       style="fill:#000000"
       inkscape:connector-curvature="0" />
    <path
       id="path4281"
       d="m 304.7413,171.69869 c -1.50216,-1.66507 -1.45793,-2.22625 0.84357,-10.70069 1.33588,-4.91889 3.03533,-10.39941 3.77654,-12.17893 1.333,-3.20029 1.28705,-3.34967 -4.22231,-13.72822 -3.06349,-5.771 -5.56998,-11.11916 -5.56998,-11.8848 0,-1.72919 2.91083,-4.46144 4.75305,-4.46144 3.01834,0 6.12992,5.19448 9.38108,15.66076 l 3.28044,10.56056 -3.04323,8.4493 c -1.67378,4.64711 -3.58014,9.74396 -4.23639,11.32632 -1.40633,3.391 -0.68289,5.91809 1.88719,6.59228 3.10493,0.81449 2.05112,2.12208 -1.71024,2.12208 -2.31472,0 -4.10731,-0.61287 -5.13972,-1.75722 z"
       style="fill:#fefefe"
       inkscape:connector-curvature="0" />
    <path
       id="path4273"
       d="m 306.11913,90.693484 c -1.57887,-2.677608 -4.7385,-7.074779 -7.02139,-9.771494 -4.06679,-4.803961 -5.35103,-8.54288 -2.93432,-8.54288 0.66902,0 2.14123,1.650659 3.27159,3.668132 1.13035,2.017472 4.8188,6.17019 8.19655,9.228264 5.7848,5.237308 6.07906,5.697336 5.06802,7.923244 -1.61684,3.559686 -3.40579,2.878609 -6.58045,-2.505266 z"
       style="fill:#fefefe"
       inkscape:connector-curvature="0" />
    <path
       id="path4269"
       d="m 311.59656,87.691768 c -1.64891,-1.993023 -0.43656,-5.546887 2.32242,-6.80789 3.59373,-1.642527 4.13856,-1.366978 4.13856,2.093061 0,4.980536 -3.89161,7.8204 -6.46098,4.714829 z"
       style="fill:#fefefe"
       inkscape:connector-curvature="0" />
    <path
       id="path4289"
       d="m 307.4267,119.67192 c -2.05981,-2.28318 -3.92607,-2.35216 -6.27191,-0.23182 -1.77249,1.60211 -1.77486,1.57554 -0.18614,-2.08645 0.88506,-2.04008 2.13386,-7.25621 2.7751,-11.59138 0.64125,-4.33517 1.4635,-9.022323 1.82723,-10.415887 l 0.66134,-2.533755 1.60873,1.99291 c 2.05484,2.545553 4.34935,1.734153 5.9596,-2.107475 0.96798,-2.309346 1.33281,-2.577257 1.81018,-1.329342 0.32883,0.859592 0.60619,2.467669 0.61636,3.5735 0.0258,2.803863 -5.82676,26.584319 -6.54261,26.584319 -0.32158,0 -1.33763,-0.83457 -2.25788,-1.85462 z"
       style="fill:#fefe00"
       inkscape:connector-curvature="0" />
    <path
       id="path4371"
       d="m 267.08839,46.837753 c -1.0326,0 -2.78177,3.462254 -6.48873,12.84827 -1.18085,2.989933 -2.54854,5.297927 -3.03822,5.130191 -0.9372,-0.321046 -0.91817,-1.105628 0.11211,-5.130191 l 0.63082,-2.470088 -2.05018,2.333288 c -2.42005,2.752074 -2.63012,5.347123 -0.57002,7.056853 0.93279,0.774143 1.47579,2.925151 1.46496,5.802819 -0.01,2.515646 0.73887,10.065843 1.66256,16.777612 1.36356,9.907923 1.45939,13.025013 0.51112,16.570503 -1.55656,5.81981 -1.47082,15.8379 0.27551,32.01428 2.36217,21.88089 3.42466,28.86474 4.60197,30.28331 1.85533,2.23552 5.43212,1.57388 7.43117,-1.37375 1.69679,-2.50198 1.88408,-5.74413 2.33899,-40.77169 l 0.49401,-38.052704 3.28902,-6.638835 c 2.79847,-5.646796 3.36583,-8.007217 3.80204,-15.814282 0.39618,-7.090911 0.18787,-9.603299 -0.91583,-11.056511 -1.9827,-2.610585 -3.69209,-1.170535 -3.76594,3.173118 -0.0896,5.265784 -2.62729,19.19973 -2.7798,15.263257 -0.15725,-4.059507 -3.6276,-5.894655 -7.4525,-5.894655 l -2.9527,0 2.51801,-6.955512 c 1.15193,-3.125838 2.4906,-6.185037 2.97361,-6.798449 1.03976,-1.320459 -0.61365,-6.296834 -2.09198,-6.296834 z"
       style="fill:#000000"
       inkscape:connector-curvature="0"
       sodipodi:nodetypes="ssccccscssssssccsscssccss" />
    <path
       id="path4419"
       d="m 267.18217,47.850192 c -0.77497,0.03152 -3.18364,5.236016 -6.62234,14.307223 -2.34328,6.181515 -2.56183,7.814225 -2.04787,15.320353 0.3164,4.620804 0.86338,9.402243 1.21389,10.625399 0.35052,1.223146 0.99461,2.223912 1.43166,2.223912 1.4985,0 2.13036,-6.093784 1.44091,-13.882511 -0.62351,-7.043817 -0.42849,-8.486046 2.02314,-14.994483 1.4919,-3.960521 3.07519,-7.668941 3.51813,-8.240862 0.85901,-1.109149 0.0919,-5.401787 -0.95752,-5.359031 z"
       style="fill:#fefefe"
       inkscape:connector-curvature="0" />
    <path
       id="path4413"
       d="m 279.10794,53.755937 c -0.41542,0 -1.31027,4.781439 -1.98763,10.6254 -1.01972,8.797674 -1.70227,11.305489 -3.96598,14.579042 -2.59453,3.751897 -2.65561,4.093848 -1.20618,6.707284 l 1.52741,2.75365 3.2293,-6.767522 c 2.47333,-5.183813 3.3729,-8.63235 3.844,-14.741194 0.60729,-7.875339 0.0289,-13.15666 -1.44092,-13.15666 z"
       style="fill:#fefefe"
       inkscape:connector-curvature="0" />
    <path
       id="path4401"
       d="m 269.42617,71.849933 c -0.48892,-0.0108 -1.01907,0.06547 -1.5861,0.242469 -3.01471,0.941151 -3.72085,2.191896 -3.73896,6.620799 -0.0141,3.447 0.18872,3.706533 2.89419,3.706533 1.88579,0 3.45045,-0.773686 4.44784,-2.197665 2.76733,-3.950919 1.40541,-8.296177 -2.01697,-8.372136 z"
       style="fill:#fefefe"
       inkscape:connector-curvature="0" />
    <path
       id="path4383"
       d="m 260.35596,114.18012 c -1.00853,0.0239 -1.21218,1.10163 -1.2108,4.98529 0.004,8.36849 4.32002,46.45347 5.47795,48.32703 1.06021,1.71545 4.9107,0.92905 6.39069,-1.30501 1.18199,-1.78422 1.53757,-7.08215 1.79767,-26.79361 0.33434,-25.33875 0.072,-26.90284 -3.39303,-20.20216 -1.37968,2.66803 -1.4403,4.76938 -0.48803,17.13192 0.59699,7.7501 1.01788,17.36133 0.93436,21.35891 -0.11799,5.64359 -0.31183,4.50768 -0.86331,-5.08569 -1.57926,-27.47276 -2.0827,-31.53297 -4.32893,-34.86614 -1.1763,-1.74553 -2.90249,-3.3216 -3.83471,-3.50112 -0.17873,-0.0344 -0.33778,-0.0528 -0.48186,-0.0494 z"
       style="fill:#fefefe"
       inkscape:connector-curvature="0" />
    <path
       id="path3432"
       d="m 267.13583,83.408213 c -2.45952,0 -2.91624,0.458527 -3.48877,3.51041 -0.36232,1.931254 -1.2291,3.731048 -1.92585,3.998423 -0.87408,0.335414 -1.25261,2.69347 -1.22162,7.607662 0.0246,3.917162 -0.30692,8.679462 -0.73668,10.582152 -0.68957,3.053 -0.5111,3.57557 1.51506,4.44784 1.26273,0.54363 3.18884,2.36343 4.28104,4.04477 l 1.98609,3.05789 1.6494,-2.70269 c 0.90728,-1.48611 2.13044,-2.99893 2.71814,-3.36214 0.67346,-0.41624 1.06871,-5.22536 1.06871,-13.00684 0,-14.477189 -1.18987,-18.177477 -5.84552,-18.177477 z"
       style="fill:#fefe00"
       inkscape:connector-curvature="0" />
    <path
       inkscape:connector-curvature="0"
       id="path8075"
       d="m 173.65669,32.143573 c -0.24582,0.01152 -0.48524,0.03792 -0.71289,0.08008 -1.21413,0.27477 -3.5028,2.45438 -1.68164,3.1289 1.22374,0.56874 3.15399,-1.94354 4.43555,-0.79687 1.41648,1.34902 -0.15475,2.95507 -1.63867,2.95507 -1.88866,-0.20236 -0.77121,2.37802 0.55859,2.32032 1.95609,0.1349 2.4291,1.96661 1.08008,3.11328 -1.68628,1.28159 -2.97775,0.03315 -4.66406,-0.84375 -0.59512,-0.59511 -1.66064,1.32822 -0.59571,2.14258 1.2816,1.07924 2.94714,1.0788 4.75391,1.0957 2.83298,0 4.86832,-4.07801 2.77734,-6.10156 -0.5517,-0.60225 -1.29819,-0.77751 -1.79687,-0.93164 0.80942,-0.53961 2.83285,-2.15748 2.02344,-3.84375 -0.76726,-1.71158 -2.81827,-2.39904 -4.53907,-2.31836 z m 13.10157,0.2207 c -0.52921,0.02332 -1.07576,0.15088 -1.48047,0.27734 -2.56315,0.60706 -4.11519,3.16837 -4.25,5.66407 -0.20234,2.22587 -1.2e-4,4.9244 2.02344,6.27343 2.56319,1.95611 6.94764,-0.33656 6.67773,-3.57421 l 0,-0.06836 c 0.13492,-1.68627 -1.14589,-3.23787 -2.69727,-3.64258 -1.34906,-0.5396 -2.16477,-0.1771 -3.3789,0.16015 -1.21413,-0.94431 0.65123,-2.05715 1.73047,-2.52929 1.01177,-1.01177 3.01504,0.27092 3.13281,-1.33985 -0.0421,-1.01175 -0.8758,-1.25956 -1.75781,-1.2207 z m 9.3789,0.02344 c -1.22559,-0.03078 -2.47102,0.42657 -3.23828,1.40039 -1.34905,2.49569 -1.41669,5.52944 -0.74219,8.29492 0.26982,2.63071 3.57488,3.97976 5.80078,2.76563 2.09089,-1.14667 2.36133,-3.84352 2.36133,-6.00196 0,-1.34903 -0.13526,-2.6989 -0.60742,-3.98047 -0.4553,-1.59354 -1.99846,-2.43894 -3.57422,-2.47851 z m 9.91797,0.05469 c -0.24952,-0.0078 -0.49963,0.01191 -0.74414,0.0625 -2.49573,0.33725 -3.37275,3.77751 -1.75391,5.53125 1.8212,2.2259 6.00314,0.60743 5.80079,-2.29297 0.17705,-1.82961 -1.55612,-3.24638 -3.30274,-3.30078 z m -0.23047,1.68164 c 0.95826,-0.04472 2.02665,0.62135 1.91797,1.67187 0,0.57961 -0.28958,1.04287 -0.69531,1.39063 -1.21716,1.15918 -3.36222,-0.69556 -2.55078,-2.14453 0.21735,-0.60858 0.75317,-0.89114 1.32812,-0.91797 z m -9.29297,0.70507 c 0.54938,-0.02899 1.05587,0.19142 1.31836,0.73829 0.52483,2.09993 0.64139,3.93135 -0.0586,6.03125 l 0.002,0 c -0.0583,0.29168 -0.23516,0.52617 -0.41015,0.70117 -1.28329,1.10832 -3.26525,0.1153 -3.24805,-1.33008 -0.0583,-1.80825 0.021,-2.67222 0.22852,-4.29688 0.21875,-1.05726 1.25234,-1.79543 2.16796,-1.84375 z m -11.74218,3.86719 c 1.33408,-0.11603 3.07245,0.75231 2.89843,2.31836 0.058,0.57998 -0.11488,1.161 -0.46289,1.625 -0.98603,1.33407 -3.30671,0.92796 -3.88672,-0.58008 -0.81204,-1.27603 -0.23087,-3.36328 1.45118,-3.36328 z"
       style="fill:#000000;fill-opacity:1;fill-rule:nonzero;stroke:none" />
    <path
       style="fill:#fefefe"
       d="m 238.87246,48.628371 c 4.06269,-0.563824 1.1578,2.996704 -7.37805,9.043442 -5.94315,4.210083 -10.13823,8.051396 -11.56837,10.594987 -1.23404,2.19485 -2.78504,3.889109 -3.44774,3.765235 -1.96436,-0.367169 -3.77222,-3.106276 -3.32502,-5.03828 0.43883,-1.895798 22.9688,-17.983686 25.71918,-18.365384 z m -21.0238,4.539638 c 0.57551,5.5e-5 1.15298,0.471861 2.16557,1.413905 2.93731,2.732626 2.87184,3.18315 -0.82612,5.718153 -4.40421,3.019156 -4.71103,2.984814 -5.20503,-0.574742 -0.28237,-2.034677 0.31511,-3.831625 1.71336,-5.144237 1.00313,-0.941702 1.5767,-1.413167 2.15222,-1.413079 z m 25.32033,6.865126 c 1.17662,-0.189741 1.32819,0.979418 1.49519,6.905168 0.11447,4.062246 0.60739,12.43535 1.09546,18.605278 0.83722,10.583859 0.74832,11.31475 -1.57414,12.925604 -1.49506,1.036989 -6.7096,2.302045 -13.27943,3.223515 l -10.81603,1.51688 1.67064,-4.021668 c 1.51298,-3.641517 2.13568,-4.096747 6.58251,-4.811617 9.83264,-1.580679 9.93992,-1.721693 10.00682,-13.231919 0.0711,-12.234402 1.66109,-20.07387 4.24926,-20.957689 0.21292,-0.07275 0.40164,-0.126425 0.56972,-0.153563 z"
       id="path3526"
       inkscape:connector-curvature="0"
       sodipodi:nodetypes="sssssscsssscsssscccsssss" />
    <path
       style="fill:#fefe00"
       d="m 211.76109,66.037384 c -0.23131,-0.0103 -0.56931,0.173445 -1.04794,0.522854 -4.70679,3.436081 -6.45493,11.463892 -4.29009,19.714331 0.65438,2.493953 1.12704,4.171621 1.53728,5.315704 1.75713,5.551156 3.28523,10.812967 5.95276,12.230577 3.38392,1.79832 5.14541,0.53017 3.05645,-1.99468 -1.24136,-1.50041 -0.50283,-5.352875 1.62442,-7.083122 0.10536,-0.07963 0.20973,-0.160427 0.31505,-0.234617 0.48634,-0.326059 1.03293,-0.552793 1.64007,-0.616699 1.17298,-0.123474 1.44818,-0.249557 1.16413,-0.782056 0.0116,-0.0011 0.0363,-0.01235 0.0469,-0.01338 -0.15871,-0.19834 -0.28812,-0.377963 -0.42678,-0.563066 -0.28754,-0.393339 -0.71026,-0.970237 -1.19766,-1.671353 -0.43484,-0.620257 -0.93306,-1.31539 -1.68252,-2.26794 -4.06868,-5.17127 -4.11598,-8.879023 -0.17875,-13.875784 2.99623,-3.802524 3.52088,-6.809047 0.57201,-3.277897 -1.78758,2.140563 -1.93754,2.158513 -4.32584,0.527327 -1.55115,-1.059425 -2.42546,-2.596675 -2.34838,-4.12475 0.062,-1.228512 -0.0256,-1.787586 -0.41114,-1.805422 z"
       id="path3522"
       inkscape:connector-curvature="0"
       sodipodi:nodetypes="csscssccsccccsssscc" />
    <path
       id="path4259"
       d="m 236.73125,92.327643 c 0,0 -11.78283,2.402214 -14.08102,2.402214 -1.59754,-0.06281 -4.39459,-0.326871 -5.04752,1.956879 -0.70487,2.465398 -0.58821,3.897774 0.41113,5.105664 0.76396,0.92341 1.84041,1.86766 2.60796,1.71407 12.7,-2.54141 8.28507,-3.12203 16.10945,-11.178827 z"
       style="fill:#fefefe"
       inkscape:connector-curvature="0" />
    <path
       inkscape:connector-curvature="0"
       id="path4351"
       d="m 145.53274,48.076289 c -1.70055,0.159419 -3.25973,3.127161 -3.79825,7.763687 -0.93879,8.083165 -3.93486,16.595302 -5.8408,16.591411 -0.31382,-6.52e-4 -0.57281,-2.891735 -0.57573,-6.426037 -0.005,-6.214436 0.0612,-6.408555 2.04448,-5.909218 2.91057,0.732788 2.5622,-1.19331 -0.42182,-2.331382 -1.86307,-0.710549 -2.70538,-0.648511 -3.41062,0.250807 -0.53534,0.682668 -2.82417,1.204449 -5.3468,1.219839 -5.43155,0.03317 -6.95425,1.74446 -6.95425,7.818788 0,3.732011 0.39219,4.635114 2.9394,6.785149 l 2.93752,2.479593 -3.16552,-0.632723 c -4.164,-0.832922 -12.46333,-5.114119 -17.72766,-9.145035 -4.45468,-3.410956 -5.44793,-3.777793 -6.336728,-2.335185 -1.384219,2.246716 5.274508,8.280603 14.151728,12.82357 11.27816,5.771669 16.48163,12.393305 18.96459,24.132787 0.63656,3.00971 2.00544,7.00738 3.04201,8.88283 1.03656,1.87546 2.03218,3.26008 2.21358,3.07811 0.18142,-0.18198 -0.58471,-1.88457 -1.70246,-3.78494 l -2.03118,-3.45623 3.38593,0.55102 c 1.86292,0.30326 4.60985,1.16235 6.10303,1.90957 1.49319,0.74723 2.48009,0.97762 2.19267,0.51112 -0.28742,-0.46651 0.076,-1.70549 0.80753,-2.7532 l 1.33005,-1.90387 0.62322,1.97037 c 0.34319,1.08464 0.83185,1.76444 1.08495,1.51056 0.25309,-0.25388 -0.15004,-1.61833 -0.89493,-3.03251 -2.81332,-5.341132 -4.35756,-10.092715 -5.56341,-17.121531 -1.12787,-6.574258 -1.07993,-8.200781 0.51682,-17.328636 0.9692,-5.540358 2.34405,-12.33007 3.05531,-15.086551 1.122,-4.348362 1.12106,-5.185565 -0.0133,-6.323432 -0.41959,-0.420898 -0.84691,-0.648843 -1.26925,-0.70303 -0.11437,-0.01469 -0.22674,-0.01634 -0.34011,-0.0058 z"
       style="fill:#000000" />
    <path
       inkscape:connector-curvature="0"
       id="path4340"
       d="m 150.64583,109.82666 c -0.24494,0 -0.15827,0.92341 0.19191,2.05208 l 0.63651,2.05207 -2.09387,-1.82407 c -1.15244,-1.00324 -0.0822,0.89816 2.37889,4.22576 5.27099,7.12673 18.89234,28.10404 19.31611,29.74748 0.49794,1.93114 -2.12153,1.26847 -5.84081,-1.47825 -4.51994,-3.33798 -6.42496,-5.48364 -16.58762,-18.67958 -4.57849,-5.94503 -8.32421,-10.51768 -8.32421,-10.16157 0,0.35612 1.98671,3.16849 4.41387,6.24933 3.67459,4.66422 4.90249,7.27782 7.33807,15.61856 1.60878,5.50931 3.35414,10.53688 3.87994,11.17242 0.52581,0.63553 1.26597,1.15524 1.64357,1.15524 1.43796,0 2.85408,-2.72685 2.34658,-4.51647 -1.80381,-6.36043 -1.88101,-6.18832 1.41175,-3.14651 3.92504,3.62588 7.23943,5.83891 8.74602,5.83891 2.23481,0 2.24687,-2.75109 0.0247,-5.70971 -4.96092,-6.60493 -16.86572,-25.99928 -17.91386,-29.18507 -0.617,-1.87536 -1.3226,-3.41062 -1.56755,-3.41062 z"
       style="fill:#000000" />
    <path
       id="path4274"
       d="m 145.74815,48.817094 c -1.30379,0.0214 -2.61397,2.806874 -3.10091,6.997957 -0.72444,6.235401 -2.98537,13.847363 -4.63806,15.609072 -0.99124,1.056606 -0.78294,1.787498 1.24264,4.351163 l 2.43589,3.083811 0.77712,-4.809077 c 0.42788,-2.64478 1.71954,-9.118438 2.86911,-14.385428 1.18011,-5.406943 1.74793,-9.93741 1.30535,-10.40478 -0.29007,-0.306317 -0.59026,-0.44765 -0.89114,-0.442718 z"
       style="fill:#fefefe"
       inkscape:connector-curvature="0" />
    <path
       id="path4272"
       d="m 100.90271,64.378662 c -0.0803,-0.0058 -0.13765,0.0068 -0.16911,0.03804 -1.647405,1.652556 4.91244,7.360407 13.84011,12.042646 2.41112,1.26455 6.22406,3.726292 8.47431,5.470304 4.4704,3.464686 5.23472,3.112033 3.65574,-1.687267 -0.89296,-2.714124 -1.69103,-3.355417 -5.75531,-4.620969 -4.50466,-1.402674 -7.55448,-3.12434 -15.98149,-9.021534 -1.8166,-1.271243 -3.50276,-2.182421 -4.06425,-2.221179 z"
       style="fill:#fefefe"
       inkscape:connector-curvature="0" />
    <path
       id="path4270"
       d="m 122.5939,64.680776 -0.29071,3.049616 c -0.18578,1.945117 0.27627,3.67908 1.27685,4.788171 3.49294,3.871711 4.19957,0.962212 1.06024,-4.366359 z"
       style="fill:#fefefe"
       inkscape:connector-curvature="0" />
    <path
       id="path4247"
       d="m 148.15364,104.84635 c -0.26293,0.0538 -0.60537,0.47463 -1.17613,1.29204 -0.71688,1.02672 -1.06265,2.25918 -0.76764,2.73801 0.60238,0.97773 3.20542,0.24941 3.20542,-0.89684 1e-5,-0.40692 -0.25595,-1.40701 -0.56812,-2.22307 -0.24853,-0.6497 -0.43059,-0.96397 -0.69353,-0.91014 z"
       style="fill:#fefefe"
       inkscape:connector-curvature="0" />
    <path
       id="path4245"
       d="m 134.75245,106.1783 2.04448,3.64813 c 1.12419,2.00648 2.1581,3.64814 2.29908,3.64814 1.34031,0 6.64605,-3.29943 6.41654,-3.99015 -0.36887,-1.11005 -5.80469,-3.14174 -8.65672,-3.23581 z"
       style="fill:#fefefe"
       inkscape:connector-curvature="0" />
    <path
       id="path4243"
       d="m 149.24998,110.73847 c -0.60288,0 -0.53281,0.52406 0.18432,1.39085 0.63253,0.76455 1.3368,1.2024 1.56565,0.97284 0.63051,-0.63249 -0.65116,-2.36369 -1.74997,-2.36369 z"
       style="fill:#fefefe"
       inkscape:connector-curvature="0" />
    <path
       id="path4241"
       d="m 147.77743,111.20399 -3.80774,1.85066 -3.80964,1.84877 8.40591,10.914 c 10.24852,13.30622 12.14408,15.44219 16.66931,18.78409 3.55245,2.62351 6.00042,3.34929 6.00042,1.78036 0,-0.46053 -2.79845,-5.07769 -6.21893,-10.26037 -3.42047,-5.18268 -7.6812,-11.67973 -9.46805,-14.43863 -1.78684,-2.75891 -4.26623,-6.24619 -5.5102,-7.74848 z"
       style="fill:#fefefe"
       inkscape:connector-curvature="0" />
    <path
       id="path4229"
       d="m 151.49966,131.14524 c -0.18562,0.1862 0.35814,2.84889 1.20845,5.91682 1.32327,4.77439 1.74187,5.41522 2.909,4.44807 1.18371,-0.98089 1.21598,-0.88991 0.23942,0.69352 -0.82777,1.34216 -0.87283,2.48669 -0.16911,4.33216 0.97152,2.54772 2.27974,3.21078 3.24532,1.64356 0.98568,-1.59986 -1.59314,-9.58928 -4.35686,-13.49809 -1.50674,-2.13105 -2.89059,-3.72225 -3.07622,-3.53604 z"
       style="fill:#fefefe"
       inkscape:connector-curvature="0" />
    <path
       id="path4369"
       d="m 135.80699,73.345094 c -0.43316,0 -2.70498,0.823982 -5.04848,1.831665 -3.38555,1.455751 -4.13067,2.158391 -3.62344,3.42013 0.35109,0.873383 0.86147,3.230116 1.13244,5.23659 0.27097,2.006473 1.45738,5.583872 2.6373,7.949887 1.17991,2.366014 2.14796,4.828504 2.15088,5.472201 0.003,0.643706 0.40847,2.629808 0.90253,4.413863 0.77855,2.8113 1.41523,3.37348 4.76918,4.21246 6.15778,1.54033 7.46477,1.17918 7.78648,-2.15278 0.15432,-1.59832 -0.32998,-4.092742 -1.07734,-5.542501 -0.74736,-1.449739 -1.98787,-6.244408 -2.7551,-10.653699 -0.99402,-5.712656 -2.0693,-8.903227 -3.74123,-11.102108 -1.29049,-1.69719 -2.70007,-3.085708 -3.13322,-3.085708 z"
       style="fill:#fefe00"
       inkscape:connector-curvature="0" />
    <path
       style="fill:#fe0000"
       d="m 122.13967,118.30203 c -2.40738,-0.41977 -4.54597,-2.55826 -4.54597,-4.54576 0,-1.80955 1.54537,-1.42747 2.0496,0.50675 1.17823,4.51965 12.81149,2.74997 26.04799,-3.96247 13.29464,-6.74192 22.21212,-14.53993 23.39144,-20.454966 0.65326,-3.276569 -0.95031,-4.334197 -4.89496,-3.228433 -1.9377,0.543173 -2.12996,0.787063 -0.85684,1.086988 3.25632,0.76712 0.83937,2.519615 -3.85122,2.792467 -2.63697,0.153396 -4.6398,-0.05185 -4.45078,-0.456017 3.47102,-7.422007 5.29681,-9.393332 5.29681,-5.719009 0,1.552509 0.28768,1.701713 1.75861,0.912033 2.56876,-1.379053 6.93768,-1.153199 8.24437,0.426199 2.99175,3.616099 -2.53234,12.141827 -12.48146,19.263568 -7.4442,5.32866 -19.20424,11.15718 -25.70648,12.74065 -5.14779,1.25362 -6.11622,1.3154 -10.00111,0.638 z"
       id="path3458"
       inkscape:connector-curvature="0" />
  </g>
</svg>
