<?xml version="1.0" encoding="UTF-8" standalone="no"?>
<!-- Created with Inkscape (http://www.inkscape.org/) -->

<svg
   xmlns:dc="http://purl.org/dc/elements/1.1/"
   xmlns:cc="http://creativecommons.org/ns#"
   xmlns:rdf="http://www.w3.org/1999/02/22-rdf-syntax-ns#"
   xmlns:svg="http://www.w3.org/2000/svg"
   xmlns="http://www.w3.org/2000/svg"
   xmlns:sodipodi="http://sodipodi.sourceforge.net/DTD/sodipodi-0.dtd"
   xmlns:inkscape="http://www.inkscape.org/namespaces/inkscape"
   id="svg3748"
   version="1.1"
   inkscape:version="0.91 r13725"
   width="500"
   height="225"
   viewBox="0 0 500 225"
   sodipodi:docname="fx220100.svg">
  <metadata
     id="metadata3754">
    <rdf:RDF>
      <cc:Work
         rdf:about="">
        <dc:format>image/svg+xml</dc:format>
        <dc:type
           rdf:resource="http://purl.org/dc/dcmitype/StillImage" />
        <dc:title></dc:title>
      </cc:Work>
    </rdf:RDF>
  </metadata>
  <defs
     id="defs3752" />
  <sodipodi:namedview
     pagecolor="#a5a5a5"
     bordercolor="#666666"
     borderopacity="1"
     objecttolerance="10"
     gridtolerance="10"
     guidetolerance="10"
     inkscape:pageopacity="0"
     inkscape:pageshadow="2"
     inkscape:window-width="1494"
     inkscape:window-height="795"
     id="namedview3750"
     showgrid="false"
     inkscape:zoom="1.4142136"
     inkscape:cx="180.20611"
     inkscape:cy="161.90738"
     inkscape:window-x="0"
     inkscape:window-y="0"
     inkscape:window-maximized="0"
     inkscape:current-layer="svg3748" />
  <g
     id="g4528"
     transform="translate(-95.828921,-167.89442)">
    <path
       id="path4426"
       d="m 348.26953,228.16992 c -1.19351,0 -4.71849,7.03316 -7.54883,15.0625 l -2.16992,6.15625 2.10352,13.0625 c 1.1572,7.18443 2.33364,14.45252 2.61328,16.15235 0.27964,1.69982 0.68479,2.91355 0.90039,2.69726 0.21562,-0.21629 -0.0545,-3.20382 -0.60156,-6.63867 -0.95351,-5.98744 -0.89792,-6.3732 1.36523,-9.34961 1.99563,-2.62458 2.88875,-3.07241 5.77734,-2.89648 6.05731,0.3689 6.77515,4.42568 3.39649,19.1914 -0.29496,1.28906 -0.27532,2.10419 0.0449,1.8125 0.58319,-0.53117 3.36711,-13.0327 5.82031,-26.14258 0.77648,-4.14949 1.88263,-7.30662 2.72461,-7.77929 1.70708,-0.95832 1.91147,-2.96904 0.23633,-2.32422 -0.90158,0.34704 -1.10089,-1.12646 -0.84375,-6.23438 0.29144,-5.78943 0.0808,-6.92238 -1.56445,-8.41601 -2.83639,-2.57492 -4.17768,-1.12155 -3.45117,3.73828 0.77471,5.18228 -0.0396,7.8457 -2.39844,7.8457 -1.00954,0 -2.07718,0.63281 -2.37305,1.40625 -0.29588,0.77344 -1.46063,1.40625 -2.58789,1.40625 -1.12724,0 -2.6008,0.52735 -3.27539,1.17188 -0.99711,0.95267 -1.12844,0.82114 -0.70508,-0.70313 0.28642,-1.03125 1.44124,-5.11418 2.56641,-9.07422 1.97314,-6.94426 1.96326,-10.14453 -0.0293,-10.14453 z m 7.34961,17.92969 c 0.28227,-0.0269 0.56055,0.0501 0.7832,0.27344 0.31705,0.31804 0.12642,1.03007 -0.42382,1.58203 -0.6712,0.67324 -1.19535,0.68917 -1.58985,0.0488 -0.4978,-0.80797 0.38367,-1.82371 1.23047,-1.9043 z"
       style="fill:#000000"
       inkscape:connector-curvature="0" />
    <path
       id="path4420"
       d="m 245.47266,232.89648 c -0.3629,-0.0329 -0.79319,0.0466 -1.29102,0.23829 -1.48989,0.57351 -6.23828,13.83312 -6.23828,17.42187 0,1.22383 1.64803,5.23144 3.66016,8.9043 3.22006,5.87781 4.5135,10.23868 6.01562,20.27148 0.24954,1.66672 0.38078,1.39591 0.45508,-0.9375 0.0574,-1.80469 -0.3111,-5.08526 -0.81836,-7.29101 -0.72529,-3.15389 -0.61401,-4.6056 0.51562,-6.79688 1.26057,-2.44529 1.93557,-2.78711 5.51954,-2.78711 3.8464,0 4.19446,0.2229 5.9707,3.82422 1.64699,3.33927 1.77508,4.59943 1.01953,9.95117 -0.47583,3.37049 -1.13092,6.60635 -1.45703,7.19141 -0.41709,0.74822 -0.27704,0.77421 0.47266,0.0859 0.58614,-0.53813 1.54107,-4.54593 2.12304,-8.90625 0.58197,-4.36032 2.68828,-12.49817 4.67969,-18.08399 3.92581,-11.0118 4.78844,-19.11162 2.25977,-21.2168 -2.18293,-1.81731 -3.2463,-0.2946 -3.10743,4.45118 0.14641,5.00283 -1.36128,11.08424 -3.42773,13.82617 -1.34149,1.77996 -1.39122,1.75344 -1.41992,-0.73242 -0.0163,-1.41796 -0.91971,-3.47099 -2.00782,-4.5625 -1.59768,-1.60263 -2.76367,-1.89577 -6.05664,-1.52344 -2.43563,0.27539 -4.70297,0.003 -5.6289,-0.67578 -1.37364,-1.00758 -1.41467,-1.69717 -0.37305,-6.05274 1.0089,-4.21867 0.70733,-6.4569 -0.86523,-6.59961 z m -0.44141,0.89844 c 1.69774,0 1.68514,0.20477 -0.57617,9.75586 -1.75054,7.39376 -1.78564,8.24972 -0.44336,10.85352 0.80159,1.55495 1.66682,2.82812 1.92383,2.82812 0.25701,0 -0.18338,-1.26227 -0.97852,-2.80469 -1.56834,-3.04232 -1.02822,-7.66363 0.8125,-6.95507 0.72604,0.27947 1.03234,2.38497 0.88281,6.0664 -0.13759,3.38783 0.12538,5.41748 0.66016,5.08594 0.51008,-0.31623 0.62813,0.13453 0.27539,1.05664 -0.43621,1.1403 -0.27505,1.39721 0.55469,0.88281 0.76826,-0.4763 0.65443,0.2759 -0.33203,2.18946 -0.82669,1.60363 -1.59758,2.91315 -1.71289,2.91015 -0.84577,-0.0253 -7.21875,-13.37832 -7.21875,-15.125 0,-3.87853 4.72745,-16.74414 6.15234,-16.74414 z"
       style="fill:#000000"
       inkscape:connector-curvature="0" />
    <path
       id="path4432"
       d="m 305.23438,226.76367 c -1.98166,0 -2.27387,3.7892 -0.64063,8.32422 0.76521,2.12476 1.61624,5.15137 1.89063,6.72656 0.43677,2.50754 0.15824,2.99467 -2.24415,3.9043 -2.61996,0.99202 -2.74414,1.29465 -2.74414,6.72266 0,4.9613 0.28477,5.87159 2.23633,7.15429 2.02584,1.33152 2.14157,1.77434 1.2461,4.70118 -0.94486,3.08825 0.1566,19.23231 1.56445,22.93554 0.36973,0.97257 -0.94344,2.2736 -4.25781,4.21875 -8.80376,5.1668 -12.00391,7.86076 -12.00391,10.10352 0,1.1677 1.9688,5.48929 4.375,9.60351 2.50583,4.28458 4.81804,9.68335 5.41211,12.63672 1.71294,8.51555 4.73837,6.11637 5.05469,-4.00781 0.0737,-2.3583 -1.00101,-5.75234 -3.22071,-10.17383 -1.83205,-3.64935 -3.1986,-6.751 -3.03711,-6.89258 1.4555,-1.27609 8.23035,-4.06816 8.5586,-3.52734 0.2324,0.38288 0.9369,7.78145 1.5664,16.44336 1.03331,14.21833 0.86643,21.46279 -0.63867,27.61133 l -0.51562,2.10937 -25.53516,0 -25.5332,0 -0.95508,-4.92187 c -1.41049,-7.26459 -2.28402,-24.143 -1.5332,-29.61914 l 0.65429,-4.77344 6.91211,10.51758 c 3.80194,5.78398 6.91878,11.00367 6.92578,11.59961 0.0152,1.24528 8.15065,6.88476 9.93164,6.88476 2.45619,0 2.26827,-2.02734 -0.51367,-5.55078 -4.08291,-5.17122 -18.71873,-37.13036 -18.89062,-41.25 -0.10862,-2.60327 -0.22401,-2.80781 -0.51563,-0.91602 -0.31236,2.02632 -0.76721,2.36193 -2.69531,1.99219 -2.54396,-0.48782 -5.99414,1.96746 -5.99414,4.26563 0,1.15729 -0.23858,1.17678 -1.50195,0.125 -1.13841,-0.94775 -1.37663,-2.27852 -0.98633,-5.50391 0.42834,-3.53983 0.35002,-3.86188 -0.46289,-1.91211 -0.65165,1.563 -0.76439,10.29012 -0.33789,26.19922 0.61017,22.76006 0.7437,24.063 2.91406,28.35938 l 2.27539,4.5039 -12.06445,0 c -9.50284,0 -12.17325,-0.28041 -12.57031,-1.31836 -0.27727,-0.72482 -1.83169,-1.60913 -3.45508,-1.96679 -2.24768,-0.49522 -2.84697,-1.05614 -2.50977,-2.34961 0.24354,-0.93421 1.40455,-6.48154 2.58008,-12.32813 l 2.13867,-10.63086 -3.94922,-11.53515 c -2.75334,-8.04378 -3.86272,-12.7195 -3.66406,-15.44727 0.26669,-3.66191 0.53947,-4.00698 4.26562,-5.38281 2.18927,-0.80835 4.66483,-2.15441 5.5,-2.99219 1.40163,-1.40598 1.26849,-1.97913 -1.72265,-7.45703 -1.78232,-3.2641 -4.10621,-6.37292 -5.16406,-6.9082 -1.7016,-0.86103 -1.77359,-1.17945 -0.62305,-2.75782 0.71526,-0.98124 1.30078,-3.36059 1.30078,-5.28711 0,-5.09847 -3.12622,-7.30578 -10.20703,-7.20507 -5.56846,0.0792 -10.55229,1.81659 -8.63086,3.00781 0.57284,0.35514 1.89994,0.18441 2.94922,-0.37891 2.62106,-1.40713 3.50262,-0.59506 3.00976,2.77344 -0.24971,1.70672 0.19702,3.7975 1.11133,5.19726 1.46004,2.23526 1.44326,2.3418 -0.38672,2.3418 -3.38606,0 -12.72297,-5.40589 -15.64257,-9.05664 -2.45884,-3.07458 -3.02912,-3.3744 -4.33985,-2.2832 -0.82995,0.69096 -1.50781,1.77275 -1.50781,2.40234 0,1.55358 7.98748,8.20442 12.82812,10.68164 5.04863,2.58367 5.8091,4.14368 6.08008,12.48438 0.18351,5.64866 -0.23708,8.02746 -2.375,13.42773 -1.42892,3.60938 -4.49651,13.52344 -6.8164,22.03125 -2.31988,8.50781 -5.03195,16.86024 -6.02735,18.56055 -1.51198,2.58272 -1.66157,3.73985 -0.90429,7.03125 0.49854,2.16687 0.91708,4.24627 0.92968,4.62109 0.0126,0.37481 -7.44256,0.80745 -16.5664,0.96094 -9.12383,0.15349 74.67278,0.29169 186.21484,0.30859 38.47062,0.006 72.09144,-0.0108 102.2793,-0.0371 l 0,-0.50781 -0.87696,0 -17.78906,0 2.5625,-4.92187 c 2.35547,-4.52512 2.53805,-5.63981 2.27149,-13.82813 -0.15946,-4.89844 0.18831,-15.72794 0.77148,-24.06445 0.93438,-13.35726 0.877,-15.86227 -0.48633,-21.09375 -1.09909,-4.21749 -1.38091,-7.78099 -0.9707,-12.30664 0.33579,-3.70474 0.18167,-7.11213 -0.36914,-8.14453 -0.58753,-1.10124 -0.67428,-4.20066 -0.22656,-8.16211 0.74443,-6.58674 1.19846,-7.06738 5.125,-5.45117 2.51819,1.03651 1.93613,-0.92428 -0.69336,-2.33594 -1.81623,-0.97505 -2.85182,-1.0111 -4.70508,-0.16406 -1.8454,0.84348 -2.45602,0.8257 -2.73438,-0.0801 -4.60577,-14.9866 -5.79976,-18.04102 -7.05468,-18.04102 -1.98165,0 -2.27387,3.7892 -0.64063,8.32422 0.76521,2.12476 1.61625,5.15137 1.89063,6.72656 0.43679,2.50754 0.15826,2.99467 -2.24414,3.9043 -2.61996,0.99202 -2.74415,1.29465 -2.74415,6.72266 10e-6,4.9613 0.28477,5.87159 2.23633,7.15429 2.02584,1.33152 2.14351,1.77434 1.24805,4.70118 -0.94486,3.08825 0.15465,19.23231 1.5625,22.93554 0.36974,0.97257 -0.94344,2.2736 -4.25781,4.21875 -8.80376,5.1668 -12.00391,7.86076 -12.00391,10.10352 0,1.1677 1.9688,5.48929 4.375,9.60351 2.50583,4.28458 4.81804,9.68335 5.41211,12.63672 1.71294,8.51555 4.73837,6.11637 5.05469,-4.00781 0.0737,-2.3583 -1.00102,-5.75234 -3.2207,-10.17383 -1.83207,-3.64935 -3.1986,-6.751 -3.03711,-6.89258 1.4555,-1.27609 8.23033,-4.07011 8.55859,-3.52929 0.23239,0.38288 0.93887,7.7834 1.56836,16.44531 1.03331,14.21833 0.86448,21.46279 -0.64063,27.61133 l -0.51562,2.10937 -21.88477,0 -21.88476,0 -1.01758,-2.57812 c -1.49532,-3.78877 -2.07088,-13.91813 -1.31055,-23.07422 0.65215,-7.85348 0.77528,-8.17419 5.49219,-14.25781 6.21358,-8.01397 10.89148,-15.46951 10.89648,-17.36719 0.002,-0.82243 -0.83295,-2.25338 -1.85546,-3.18164 -1.79258,-1.62733 -2.04439,-1.62085 -7.03321,0.22265 l -5.17383,1.91211 0.58594,-3.41601 c 1.35195,-7.89194 3.44316,-17.94157 5.13281,-24.66602 2.00838,-7.99286 2.15532,-13.74735 0.54688,-21.33594 -1.17045,-5.52218 -2.09918,-6.39868 -4.73828,-4.46289 -1.3505,0.9906 -1.50844,1.64998 -0.74024,3.08985 1.28907,2.41619 2.54335,15.37434 1.48438,15.33593 -0.45194,-0.0164 -1.637,-0.64924 -2.63477,-1.40624 -0.99778,-0.75704 -2.47019,-1.39004 -3.27148,-1.40626 -0.80129,-0.0162 -2.15743,-0.99826 -3.01367,-2.18164 -1.28338,-1.77368 -1.39656,-2.91001 -0.63867,-6.4746 0.91723,-4.31411 -0.0231,-8.18946 -1.98829,-8.18946 -1.33802,0 -1.73724,1.12835 -2.83593,8.02735 -0.56695,3.56006 -1.72614,7.24332 -2.57618,8.18554 -1.11007,1.23043 -1.24091,1.90364 -0.46484,2.38477 0.59428,0.36844 1.99412,5.93116 3.10938,12.36328 1.64717,9.49988 1.89092,13.27886 1.29882,20.13281 -1.05372,12.19775 -0.96763,15.78517 0.86719,36.09375 1.52674,16.89851 2.02489,20.07866 3.85547,24.60938 0.61884,1.53163 -0.64536,1.64062 -19.02734,1.64062 l -19.69141,0 -0.89258,-3.51562 c -1.8978,-7.46463 -1.96994,-9.44317 -0.69336,-18.98438 1.11725,-8.35033 1.82868,-10.68923 4.6875,-15.41406 3.89247,-6.43314 3.94214,-6.76659 1.5,-9.89844 -1.09781,-1.40786 -1.84218,-3.84116 -1.86328,-6.09375 -0.0193,-2.0625 -0.40268,-4.33476 -0.85351,-5.04883 -0.50112,-0.79375 -0.62534,0.43794 -0.31836,3.16993 0.30726,2.7345 0.14764,4.33025 -0.41211,4.11132 -0.50311,-0.19679 -3.40236,-1.62305 -6.44336,-3.16992 -3.041,-1.54688 -5.6697,-2.88211 -5.83985,-2.96679 -0.17015,-0.0848 0.16063,-1.03397 0.73438,-2.10938 0.5737,-1.07541 0.8487,-1.95508 0.61133,-1.95508 -0.23737,0 -1.77554,2.35669 -3.41797,5.23633 -2.57976,4.52304 -2.83948,5.55478 -1.91602,7.58789 0.58793,1.29441 2.32079,2.82858 3.85156,3.4082 2.60193,0.98519 2.78321,1.37564 2.78321,5.98438 0,3.45915 -0.75509,6.47271 -2.5293,10.10156 -1.94522,3.97863 -2.27362,5.42686 -1.42383,6.2793 0.84978,0.85244 1.54117,0.71143 2.9961,-0.60938 1.84885,-1.67846 1.89144,-1.66514 1.87304,0.53907 -0.0103,1.24008 -0.40776,4.95155 -0.88281,8.24804 -0.78754,5.465 -0.66171,6.3952 1.43555,10.54688 l 2.30078,4.55273 -18.25586,0 -18.25586,0 2.5625,-4.92187 c 2.35547,-4.52512 2.53806,-5.63981 2.27148,-13.82813 -0.15946,-4.89844 0.18832,-15.72794 0.77149,-24.06445 0.93438,-13.35726 0.87505,-15.86227 -0.48828,-21.09375 -1.09909,-4.21749 -1.37895,-7.78099 -0.96875,-12.30664 0.3358,-3.70474 0.18167,-7.11213 -0.36914,-8.14453 -0.58753,-1.10124 -0.6743,-4.20066 -0.22656,-8.16211 0.74443,-6.58674 1.1965,-7.06738 5.12304,-5.45117 2.51819,1.03651 1.93809,-0.92428 -0.6914,-2.33594 -1.81623,-0.97505 -2.85181,-1.0111 -4.70508,-0.16406 -1.84539,0.84348 -2.45602,0.8257 -2.73438,-0.0801 -4.60577,-14.9866 -5.79977,-18.04102 -7.05468,-18.04102 z m -82.90235,50.17188 c 0.35146,0.004 0.70576,0.24094 1.00977,0.73437 0.2541,0.41242 -0.30551,1.23035 -1.24414,1.81836 -1.46239,0.91613 -1.63876,0.80868 -1.23243,-0.75 0.30582,-1.17306 0.88104,-1.81018 1.4668,-1.80273 z m -10.78906,26.91601 c 0.90956,-0.0624 1.86315,2.55429 4.32226,9.43946 2.07246,5.80261 2.30656,7.43691 1.53711,10.78125 -0.49881,2.16804 -0.9232,6.26171 -0.9414,9.09765 -0.0182,2.83594 -0.29273,6.73829 -0.61133,8.67188 l -0.58008,3.51562 -9.69141,0 c -5.32993,0 -9.68945,-0.13375 -9.68945,-0.29687 0,-5.16227 7.67753,-26.68465 13.75,-38.54688 0.83024,-1.62182 1.35856,-2.62469 1.9043,-2.66211 z"
       style="fill:#000000"
       inkscape:connector-curvature="0" />
    <path
       sodipodi:nodetypes="ccsccscccccssssssssssscssccccsscccscsscssssccc"
       inkscape:connector-curvature="0"
       id="path4410"
       d="m 501.94899,240.80274 c 0.21286,0.002 0.40992,0.0557 0.58789,0.16601 2.72515,1.6895 -0.95903,9.45194 -8.83203,18.60742 l -6.29492,7.32032 0.6582,8.61718 c 0.3925,5.13371 1.39062,10.28981 2.46875,12.75586 2.90909,6.65409 8.25345,30.41489 9.98047,44.37696 l 1.59375,12.89062 13.75781,0 0.9082,0 0,0.47266 c -24.2676,-0.0351 -42.69231,-0.0802 -52.45102,-0.133 -5.57722,-0.0302 -8.32389,-0.0628 -7.71304,-0.0975 4.03355,-0.22887 6.40508,-0.85468 7.5332,-1.98633 0.90556,-0.90839 2.59211,-2.31419 3.7461,-3.125 2.36682,-1.66297 7.3924,-18.29435 10.00195,-33.09961 0.81794,-4.64063 1.87965,-9.72747 2.35938,-11.30273 0.66108,-2.17081 0.42415,-4.17008 -0.97852,-8.25977 -3.23368,-9.42822 -4.01732,-15.81777 -2.48633,-20.27539 1.2466,-3.62957 1.21254,-4.0518 -0.44336,-5.71289 -2.56238,-2.57037 -2.45242,-9.56275 0.19141,-12.21484 1.60211,-1.60714 2.76062,-1.89596 6.08984,-1.51953 2.26113,0.25565 4.33992,0.0938 4.61914,-0.35938 0.93563,-1.51861 4.94981,-0.84377 6.27539,1.05469 1.25593,1.79868 1.38255,1.72 2.98633,-1.84766 1.70055,-3.78292 3.95139,-6.3396 5.44141,-6.32812 z m -11.77539,8.13476 c -1.12744,0.0316 -2.0085,1.83398 -2.03125,4.96485 -0.0178,2.44517 -0.007,4.44685 0.0254,4.44726 0.0323,4.1e-4 1.22702,-1.22238 2.65429,-2.7168 2.22502,-2.32964 2.44087,-3.00624 1.51368,-4.74414 -0.7207,-1.35083 -1.48565,-1.9701 -2.16211,-1.95117 z m -3.36133,60.47071 c -0.25715,0.0557 -0.47208,0.57743 -0.79297,1.4414 -1.09891,2.95871 -10.55632,30.05619 -11.05078,31.66211 -0.20226,0.65693 -1.32425,1.58022 -2.49219,2.05078 -1.5091,0.60801 0.49716,0.87382 6.9336,0.91602 5.65073,0.0371 9.2962,-0.33003 9.69336,-0.97461 0.35008,-0.56824 2.08074,-1.63916 3.8457,-2.37891 2.30651,-0.96673 3.07722,-1.79671 2.74219,-2.95117 -0.25637,-0.88342 -1.38521,-6.00118 -2.50977,-11.37305 -1.12457,-5.37186 -3.00041,-11.91092 -4.16797,-14.53125 -1.14984,-2.58057 -1.68791,-3.73839 -2.08789,-3.85546 -0.0389,-0.0114 -0.0765,-0.0138 -0.11328,-0.006 z"
       style="fill:#000000" />
    <path
       sodipodi:nodetypes="ssssssssssssssscssssssscsscccscscsssscssscc"
       inkscape:connector-curvature="0"
       id="path3692-0"
       d="m 362.05772,214.77907 c -2.00452,0 -2.84057,0.5403 -3.25976,2.10938 -1.02042,3.81961 -0.72452,4.52272 1.64648,3.92578 2.4977,-0.62886 4.15343,1.05652 2.58399,2.63086 -0.71089,0.71311 -1.42455,0.65123 -2.46485,-0.21485 -1.87976,-1.56493 -2.99007,-0.50744 -1.4375,1.36914 1.49354,1.80523 4.124,1.83776 5.58789,0.0684 1.59997,-1.93388 0.85167,-4.57488 -1.60351,-5.6582 -2.60099,-1.14767 -2.71835,-2.35547 -0.22852,-2.35547 1.02803,0 1.86914,-0.42188 1.86914,-0.9375 0,-0.51563 -1.21126,-0.9375 -2.69336,-0.9375 z m 10.20118,0 c -0.88366,0 -5.63868,7.09857 -5.63868,8.41797 0,0.52668 1.05286,0.95703 2.33789,0.95703 1.28505,0 2.33594,0.42187 2.33594,0.9375 0,1.34068 1.59342,1.16032 2.07032,-0.23437 0.61404,-1.79583 -0.29448,-10.07813 -1.10547,-10.07813 z m 6.71093,0.0254 c -0.57952,-0.0283 -1.19946,0.14428 -1.83398,0.54297 -1.96736,1.23617 -2.70586,7.41728 -1.11524,9.33984 0.61012,0.73746 1.84785,1.3418 2.75,1.3418 2.53601,0 3.88731,-2.33903 3.56446,-6.16797 -0.25914,-3.07317 -1.62666,-4.97177 -3.36524,-5.05664 z m 7.63672,0.11524 c -1.6534,-0.0397 -2.66042,2.06269 -1.86328,4.14648 0.89134,2.33006 3.83984,1.19785 3.83984,-1.47461 1e-5,-1.46385 -0.60407,-2.43489 -1.63867,-2.63476 -0.11562,-0.0223 -0.22766,-0.0345 -0.33789,-0.0371 z m 0.0762,1.23047 c 0.0564,0.0211 0.11878,0.10839 0.1836,0.26953 0.25927,0.64454 0.25927,1.69922 0,2.34375 -0.25926,0.64454 -0.47071,0.11718 -0.47071,-1.17188 0,-0.96679 0.11808,-1.50457 0.28711,-1.4414 z m -7.91211,0.97265 c 0.97258,0 1.40235,0.98091 1.40235,3.20313 0,3.32411 -1.92901,5.04638 -2.87695,2.56836 -0.89693,-2.34465 -0.0217,-5.77149 1.4746,-5.77149 z m -7.6875,1.44727 c 0.12022,0.0127 0.21094,0.70019 0.21094,1.67773 0,1.24869 -0.5835,2.03125 -1.51562,2.03125 -1.29794,0 -1.3372,-0.23626 -0.26563,-1.64062 0.68852,-0.90234 1.37213,-1.8164 1.51758,-2.03125 0.0182,-0.0269 0.0356,-0.0389 0.0527,-0.0371 z"
       style="fill:#000000" />
    <path
       id="path4508"
       d="m 192.24289,340.69681 c -0.86546,-4.0481 -0.75993,-5.06441 0.80308,-7.73438 0.98971,-1.69063 3.7372,-10.24575 6.10554,-19.01137 4.5557,-16.8614 5.77115,-19.62703 9.34327,-21.25969 5.83801,-2.66828 6.70799,2.22352 1.92217,10.80811 -6.60021,11.83916 -15.4634,35.66092 -15.4634,41.56126 0,0.16312 -0.38571,0.29657 -0.85714,0.29657 -0.47142,0 -1.30551,-2.09723 -1.85352,-4.6605 z"
       style="fill:#fefefe"
       inkscape:connector-curvature="0" />
    <path
       id="path4506"
       d="m 217.02747,337.15418 c 0.26818,-4.51171 0.87823,-10.2263 1.35567,-12.69908 0.77761,-4.02747 0.52729,-5.40863 -2.40226,-13.25472 -1.79868,-4.81732 -3.27032,-9.14577 -3.27032,-9.61878 0,-0.47301 1.026,-2.25503 2.28,-3.96005 l 2.28001,-3.10003 1.37214,3.29426 c 0.75468,1.81185 2.53209,6.94704 3.94979,11.41155 l 2.57765,8.11728 -2.4802,11.77043 c -1.36411,6.47374 -2.27017,12.11133 -2.01347,12.52797 0.2567,0.41665 1.72359,1.03446 3.25975,1.37291 4.52367,0.99667 3.20176,2.34139 -2.30167,2.34139 l -5.0947,0 z"
       style="fill:#fefefe"
       inkscape:connector-curvature="0" />
    <path
       id="path4504"
       d="m 250.68444,340.90418 c -2.0982,-4.16279 -2.28993,-5.85767 -2.94081,-25.99704 -0.65379,-20.22955 -0.59917,-21.46308 0.89523,-20.21896 0.87532,0.72872 2.43038,2.97445 3.4557,4.99052 1.61376,3.17312 1.7821,4.75591 1.25303,11.78147 -0.57085,7.58028 0.6396,27.04007 1.9773,31.78776 1.13925,4.04341 -2.2955,2.30863 -4.64045,-2.34375 z"
       style="fill:#fefefe"
       inkscape:connector-curvature="0" />
    <path
       id="path4502"
       d="m 309.66213,341.37293 c 1.00434,-5.62052 0.67226,-23.72494 -0.68216,-37.18879 -1.06167,-10.55381 -1.0237,-11.55773 0.5012,-13.24798 2.13787,-2.36971 3.41308,-2.30709 5.713,0.28053 1.74697,1.96549 1.82168,2.81279 1.09521,12.42187 -0.42881,5.67188 -0.69106,15.16406 -0.5828,21.09375 0.18455,10.10721 0.0377,11.08897 -2.34991,15.70312 -3.12358,6.03665 -4.67612,6.43061 -3.69454,0.9375 z"
       style="fill:#fefefe"
       inkscape:connector-curvature="0" />
    <path
       id="path4500"
       d="m 346.89521,340.81334 c -2.15064,-4.25736 -2.23567,-4.97652 -1.34809,-11.40145 0.52104,-3.77161 0.7544,-7.5976 0.51858,-8.50218 -0.26329,-1.00997 0.73006,-2.77138 2.57395,-4.56413 l 3.00272,-2.91945 -1.24945,9.63747 c -1.17717,9.08004 -0.76787,15.65958 1.31246,21.09777 0.2527,0.66059 -0.20775,1.19594 -1.02862,1.19594 -0.8383,0 -2.48671,-1.98077 -3.78155,-4.54397 z"
       style="fill:#fefefe"
       inkscape:connector-curvature="0" />
    <path
       id="path4498"
       d="m 391.81871,341.37293 c -0.78115,-2.1914 -2.09129,-12 -2.91144,-21.79687 -0.82014,-9.79687 -1.73921,-19.05499 -2.04236,-20.57359 l -0.55121,-2.76108 2.55404,1.6787 c 1.41644,0.93099 3.54872,1.48795 4.78721,1.25047 2.72018,-0.52163 2.73648,-0.35771 0.29394,2.95633 -2.53341,3.43734 -3.06333,11.88288 -0.73483,11.71134 1.36328,-0.10042 1.48307,1.1356 1.09036,11.25 -0.32846,8.45928 -0.0865,12.50074 0.94708,15.81595 1.30658,4.19108 1.28822,4.45313 -0.31212,4.45313 -1.15462,0 -2.15625,-1.27885 -3.12067,-3.98438 z"
       style="fill:#fefefe"
       inkscape:connector-curvature="0" />
    <path
       id="path4496"
       d="m 443.30699,341.37293 c 1.00435,-5.62052 0.67226,-23.72494 -0.68216,-37.18879 -1.06167,-10.55381 -1.0237,-11.55773 0.5012,-13.24798 2.13788,-2.36971 3.41308,-2.30709 5.713,0.28053 1.74697,1.96549 1.82168,2.81279 1.09521,12.42187 -0.42881,5.67188 -0.69106,15.16406 -0.5828,21.09375 0.18455,10.10721 0.0377,11.08897 -2.34991,15.70312 -3.12358,6.03665 -4.67612,6.43061 -3.69454,0.9375 z"
       style="fill:#fefefe"
       inkscape:connector-curvature="0" />
    <path
       inkscape:connector-curvature="0"
       id="path4494"
       d="m 500.72669,342.88769 c 0,-8.35458 -6.95351,-45.13802 -8.53632,-45.15634 -0.32581,-0.004 -1.50177,2.24074 -2.61324,4.98778 l -2.02086,4.99464 2.36134,5.55224 c 3.21933,7.56967 7.24713,26.70945 5.95056,28.2766 -0.53781,0.65005 -1.47679,1.18189 -2.08664,1.18189 -0.60984,0 -1.92517,0.6194 -2.92294,1.37644 -1.65837,1.25824 -1.31257,1.37899 4.02698,1.40625 5.79414,0.0295 5.84112,0.008 5.84112,-2.6195 z"
       style="fill:#fefefe" />
    <path
       inkscape:connector-curvature="0"
       id="path4492"
       d="m 471.52108,344.05159 c 1.67056,-0.73286 3.03907,-1.85861 3.04112,-2.50166 0.006,-1.7777 10.66241,-31.23862 13.92934,-38.50818 3.19801,-7.11621 2.87613,-9.50176 -1.42825,-10.58547 -4.07529,-1.02602 -5.73064,1.76415 -7.82244,13.18515 -1.69718,9.26642 -2.98931,14.56357 -7.13611,29.25471 -1.03117,3.65318 -2.14759,5.36401 -4.58831,7.03125 -1.77407,1.21185 -3.22844,2.51977 -3.23196,2.90648 -0.01,1.10429 3.89952,0.68166 7.23661,-0.78228 z"
       style="fill:#fefefe" />
    <path
       id="path4490"
       d="m 273.6453,331.55408 c -2.15897,-1.40427 -3.92628,-2.9863 -3.92737,-3.51562 -0.001,-0.52932 -2.54922,-4.75928 -5.66253,-9.3999 -6.3959,-9.53357 -13.02708,-22.07377 -13.02708,-24.63544 0,-2.26827 1.7894,-3.95831 4.19101,-3.95831 2.43285,0 3.34823,1.55415 12.09173,20.52968 3.84941,8.35414 8.27924,16.81094 9.84407,18.79288 1.56483,1.98193 2.84515,3.85921 2.84515,4.17172 0,1.25648 -2.63854,0.43231 -6.35498,-1.98501 z"
       style="fill:#fefefe"
       inkscape:connector-curvature="0" />
    <path
       id="path4488"
       d="m 301.05203,324.02918 c -0.39799,-2.7024 -2.46055,-7.59877 -5.24631,-12.45434 -2.52477,-4.40067 -4.59049,-8.93859 -4.59049,-10.08427 0,-1.5575 1.68535,-3.16671 6.6799,-6.37814 9.28423,-5.96964 9.20795,-5.95777 9.20795,-1.43371 0,3.65969 -0.21303,3.9428 -4.67289,6.20984 -2.5701,1.30643 -4.6729,2.58969 -4.6729,2.8517 0,0.262 1.47196,3.40842 3.27103,6.99205 3.31253,6.59838 3.71548,8.89652 2.67116,15.23437 -0.78987,4.7937 -1.85918,4.41505 -2.64745,-0.9375 z"
       style="fill:#fefefe"
       inkscape:connector-curvature="0" />
    <path
       id="path4486"
       d="m 434.69689,324.02918 c -0.39798,-2.7024 -2.46054,-7.59877 -5.24631,-12.45434 -2.52477,-4.40067 -4.59049,-8.93859 -4.59049,-10.08427 0,-1.5575 1.68535,-3.16671 6.6799,-6.37814 9.28423,-5.96964 9.20795,-5.95777 9.20795,-1.43371 0,3.65969 -0.21302,3.9428 -4.67289,6.20984 -2.5701,1.30643 -4.6729,2.58969 -4.6729,2.8517 0,0.262 1.47196,3.40842 3.27103,6.99205 3.31253,6.59838 3.71548,8.89652 2.67117,15.23437 -0.78988,4.7937 -1.85919,4.41505 -2.64746,-0.9375 z"
       style="fill:#fefefe"
       inkscape:connector-curvature="0" />
    <path
       id="path4484"
       d="m 340.74794,320.95115 c 0,-1.47546 4.79543,-10.70589 5.75163,-11.07095 1.48834,-0.56823 4.5713,-7.51086 3.60211,-8.11172 -0.502,-0.31122 -3.04125,-1.19993 -5.64277,-1.97492 -5.38168,-1.60318 -7.43872,-4.39009 -5.67727,-7.69167 1.82584,-3.42227 4.37763,-3.37609 10.74238,0.1944 3.26288,1.83041 6.66018,4.44207 7.54958,5.8037 1.53865,2.35563 1.53326,2.66355 -0.1113,6.34993 -0.95061,2.13083 -4.62063,6.93326 -8.1556,10.67207 -6.18901,6.54587 -8.05876,7.89831 -8.05876,5.82916 z"
       style="fill:#fefefe"
       inkscape:connector-curvature="0" />
    <path
       id="path4482"
       d="m 392.15503,311.37294 c 0.0136,-5.46916 2.02231,-9.12193 8.20056,-14.91171 3.45411,-3.23694 4.80824,-4.72324 3.00918,-3.30289 -7.31432,5.7746 -13.32546,6.8111 -13.83667,2.38586 -0.37863,-3.2777 2.58791,-5.55045 11.50146,-8.81156 5.70508,-2.08726 7.24947,-2.34147 8.40097,-1.38282 2.0907,1.74054 1.73861,3.69352 -1.63038,9.04342 -4.23445,6.72426 -13.83982,19.08907 -14.82899,19.08907 -0.45174,0 -0.819,-0.94922 -0.81613,-2.10937 z"
       style="fill:#fefefe"
       inkscape:connector-curvature="0" />
    <path
       id="path4480"
       d="m 345.42084,305.04481 c 0,-3.7506 0.47012,-4.22969 3.1415,-3.20138 1.26742,0.48787 1.25671,0.90309 -0.0967,3.75 -2.01167,4.23171 -3.04484,4.04555 -3.04484,-0.54862 z"
       style="fill:#fefefe"
       inkscape:connector-curvature="0" />
    <path
       id="path4478"
       d="m 215.98159,284.41981 c -0.86798,-1.4088 0.34207,-2.8125 2.42448,-2.8125 1.01579,0 2.89693,-0.69017 4.18032,-1.5337 2.05336,-1.34962 2.1738,-1.71532 1.00344,-3.04688 -0.73149,-0.83224 -1.60521,-3.41161 -1.94161,-5.73192 -0.57982,-3.99941 -0.53265,-4.12127 0.90738,-2.34375 0.83546,1.03125 2.56985,3.93019 3.85422,6.44208 2.69598,5.27267 2.44925,5.76874 -4.11257,8.26864 -5.16067,1.96608 -5.54309,2.01198 -6.31566,0.75803 z"
       style="fill:#fefefe"
       inkscape:connector-curvature="0" />
    <path
       id="path4476"
       d="m 206.74032,269.91701 c -0.84355,-1.29144 -3.30033,-3.25215 -5.4595,-4.35712 -4.88269,-2.49875 -11.93475,-8.33493 -11.93475,-9.87703 0,-2.65382 2.2276,-2.19155 4.8566,1.00785 2.72947,3.32166 12.31292,8.9791 15.21021,8.9791 1.80844,0 1.91467,4.05319 0.14484,5.5266 -1.0059,0.83743 -1.61556,0.56058 -2.8174,-1.2794 z"
       style="fill:#fefefe"
       inkscape:connector-curvature="0" />
    <path
       inkscape:connector-curvature="0"
       id="path4474"
       d="m 484.52266,269.07378 c 0.33553,-0.8771 2.34804,-3.33814 4.47224,-5.46898 2.1242,-2.13084 5.53868,-6.00181 7.58772,-8.60215 5.05837,-6.41931 7.93374,-15.40887 4.18533,-13.08498 -0.55972,0.347 -2.22305,3.02597 -3.6963,5.95325 -2.41101,4.7906 -4.88744,7.46614 -15.8002,17.07064 -1.19105,1.04825 -2.02787,2.63059 -1.85962,3.5163 0.41721,2.19621 4.3261,2.66728 5.11083,0.61592 z"
       style="fill:#fefefe" />
    <path
       id="path4472"
       d="m 259.55422,264.65935 c -0.87175,-2.50849 -0.62128,-3.64143 1.91713,-8.67187 3.74063,-7.41292 5.45083,-13.92912 4.76629,-18.16056 -0.42246,-2.61144 -0.25347,-3.25097 0.76954,-2.91236 0.85476,0.28292 1.4112,2.18019 1.59925,5.45297 0.22911,3.98737 -0.51496,7.29653 -3.61971,16.09819 -2.14946,6.0935 -4.02548,11.07909 -4.16893,11.07909 -0.14346,0 -0.71206,-1.29846 -1.26357,-2.88546 z"
       style="fill:#fefefe"
       inkscape:connector-curvature="0" />
    <path
       id="path4470"
       d="m 214.57972,263.39303 c 0,-3.57123 1.99218,-6.16072 4.73965,-6.16072 2.48486,0 2.4405,4.98491 -0.0668,7.5 -2.90455,2.91362 -4.6729,2.4068 -4.6729,-1.33928 z"
       style="fill:#fefefe"
       inkscape:connector-curvature="0" />
    <path
       id="path4468"
       d="m 309.13793,265.79237 c -0.8586,-0.54608 -1.04509,-1.808 -0.61056,-4.13148 0.8182,-4.37498 -1.1153,-22.20777 -2.8627,-26.40296 -1.55667,-3.73728 -1.80289,-8.02562 -0.46078,-8.02562 1.15528,0 5.27298,13.606 6.52564,21.5625 0.52766,3.35156 1.38482,7.56753 1.9048,9.36881 1.26522,4.38303 1.20082,5.24103 -0.52324,6.97047 -1.66749,1.67271 -2.23131,1.76612 -3.97316,0.65828 z"
       style="fill:#fefefe"
       inkscape:connector-curvature="0" />
    <path
       id="path4466"
       d="m 342.31063,265.2834 c -0.27855,-0.72816 -1.02268,-4.70667 -1.65362,-8.84113 -1.02247,-6.70005 -0.96624,-8.00838 0.5173,-12.03546 4.50475,-12.22831 7.98485,-18.28779 7.98485,-13.90312 0,0.76801 -1.26593,5.91884 -2.81317,11.44629 -2.73855,9.78333 -2.77508,10.18133 -1.37717,15.00503 1.31119,4.52442 1.30266,5.15926 -0.0981,7.30371 -1.78683,2.73558 -1.88986,2.77682 -2.56013,1.02468 z"
       style="fill:#fefefe"
       inkscape:connector-curvature="0" />
    <path
       id="path4464"
       d="m 355.9253,264.38252 c -0.73459,-1.61728 -0.72785,-2.51986 0.0244,-3.2745 1.06883,-1.07217 2.09161,-14.25265 1.84665,-23.79759 -0.0761,-2.96484 0.17839,-5.39062 0.56549,-5.39062 1.82147,0 2.9468,2.6674 2.9466,6.98437 -2.1e-4,4.54814 -3.21353,26.55193 -3.99147,27.33229 -0.20766,0.20832 -0.83393,-0.62596 -1.3917,-1.85395 z"
       style="fill:#fefefe"
       inkscape:connector-curvature="0" />
    <path
       id="path4462"
       d="m 387.14623,265.07122 c -0.28754,-0.95984 -1.00622,-4.60113 -1.59707,-8.09176 -0.83695,-4.94452 -0.82063,-6.65319 0.0739,-7.73438 2.11973,-2.5621 2.80882,-1.42223 2.21324,3.66107 -0.46645,3.98114 -0.22802,5.66616 1.12745,7.96797 1.58124,2.68518 1.59824,3.04028 0.21215,4.4307 -1.38609,1.39042 -1.54876,1.3717 -2.02965,-0.2336 z"
       style="fill:#fefefe"
       inkscape:connector-curvature="0" />
    <path
       id="path4460"
       d="m 442.78279,265.79237 c -0.8586,-0.54608 -1.04509,-1.808 -0.61056,-4.13148 0.8182,-4.37498 -1.1153,-22.20777 -2.8627,-26.40296 -1.55667,-3.73728 -1.80289,-8.02562 -0.46078,-8.02562 1.15528,0 5.27298,13.606 6.52564,21.5625 0.52767,3.35156 1.38482,7.56753 1.9048,9.36881 1.26522,4.38303 1.20082,5.24103 -0.52324,6.97047 -1.66749,1.67271 -2.23131,1.76612 -3.97316,0.65828 z"
       style="fill:#fefefe"
       inkscape:connector-curvature="0" />
    <path
       id="path4458"
       d="m 242.38346,259.20151 c -1.92757,-3.55066 -3.50468,-7.44874 -3.50468,-8.6624 0,-3.87853 4.72663,-16.7443 6.15152,-16.7443 1.69874,0 1.68677,0.19945 -0.58893,9.81129 l -1.91404,8.08433 2.89876,5.08234 c 2.3668,4.14965 2.71202,5.43237 1.88117,6.98969 -0.55968,1.04904 -1.10794,1.90453 -1.21837,1.90108 -0.11042,-0.004 -1.77786,-2.91136 -3.70543,-6.46203 z"
       style="fill:#fefefe"
       inkscape:connector-curvature="0" />
    <path
       id="path4456"
       d="m 398.77965,264.36966 c -0.90883,-1.09849 -0.80518,-2.30054 0.50863,-5.89911 1.93372,-5.29648 2.15129,-18.4648 0.36054,-21.8213 -0.92982,-1.74282 -0.90785,-2.30927 0.11478,-2.95931 2.17605,-1.38321 2.44782,-0.98753 3.50523,5.10354 1.39734,8.04922 1.2998,11.79126 -0.50008,19.18366 -1.76789,7.26104 -2.41397,8.29637 -3.9891,6.39252 z"
       style="fill:#fefefe"
       inkscape:connector-curvature="0" />
    <path
       inkscape:connector-curvature="0"
       id="path4454"
       d="m 480.86688,262.41611 c 1.49035,-0.60325 1.52431,-6.14692 0.0467,-7.62911 -0.61683,-0.61875 -2.08879,-1.125 -3.27103,-1.125 -1.82503,0 -2.14953,0.48525 -2.14953,3.21428 0,1.76786 0.66087,3.87724 1.46862,4.6875 1.53252,1.53732 1.97456,1.6338 3.90521,0.85233 z"
       style="fill:#fefefe" />
    <path
       id="path4452"
       d="m 348.45822,261.33371 c -0.65114,-0.28295 -1.16822,-2.14179 -1.16822,-4.19962 0,-3.02834 0.41998,-3.88393 2.33645,-4.75986 1.76298,-0.80578 2.93428,-0.79464 4.77217,0.0454 2.19563,1.00352 2.37167,1.45733 1.78582,4.60361 -0.35746,1.91969 -0.74823,3.59142 -0.86837,3.71495 -0.5719,0.58806 -5.82524,1.04426 -6.85785,0.59554 z"
       style="fill:#fefefe"
       inkscape:connector-curvature="0" />
    <path
       id="path4450"
       d="m 256.66891,258.40418 c 0.0182,-1.41796 0.58917,-3.58444 1.26881,-4.81439 l 1.23568,-2.23626 0.60472,2.41692 c 0.61635,2.46342 -0.93605,7.21186 -2.35777,7.21186 -0.4315,0 -0.76965,-1.16016 -0.75144,-2.57813 z"
       style="fill:#fefefe"
       inkscape:connector-curvature="0" />
    <path
       id="path4448"
       d="m 304.0657,259.0305 c -2.00576,-1.16979 -2.36035,-8.36069 -0.41227,-8.36069 2.72781,0 4.53462,2.39282 4.22415,5.59418 -0.33831,3.48841 -1.33447,4.21138 -3.81188,2.76651 z"
       style="fill:#fefefe"
       inkscape:connector-curvature="0" />
    <path
       id="path4446"
       d="m 437.71056,259.0305 c -2.00576,-1.16979 -2.36035,-8.36069 -0.41227,-8.36069 2.72781,0 4.53463,2.39282 4.22415,5.59418 -0.33831,3.48841 -1.33447,4.21138 -3.81188,2.76651 z"
       style="fill:#fefefe"
       inkscape:connector-curvature="0" />
    <path
       id="path3488"
       d="m 385.95077,243.40418 c 0.27033,-1.41796 0.76128,-4.37109 1.09098,-6.5625 0.62191,-4.1336 1.67876,-5.09689 2.69044,-2.45227 0.65871,1.72193 -0.19217,7.45685 -1.47659,9.95227 -1.32457,2.57344 -2.85548,1.95074 -2.30483,-0.9375 z"
       style="fill:#fefefe"
       inkscape:connector-curvature="0" />
    <path
       id="path4526"
       d="m 214.43778,294.79809 c -0.51397,-3.50396 -3.10279,-4.58801 -6.41802,-2.68751 -1.53221,0.87836 -2.78584,1.44069 -2.78584,1.24961 0,-0.1911 0.87043,-2.38441 1.9343,-4.87406 1.53449,-3.59101 1.81022,-5.59893 1.33404,-9.7146 -0.52123,-4.50497 -0.34525,-5.41947 1.33673,-6.94639 1.06534,-0.96714 1.93699,-2.76258 1.93699,-3.98986 0,-1.91557 0.25586,-2.09408 1.80753,-1.26105 0.99414,0.53371 2.74365,0.86496 3.8878,0.73611 4.38791,-0.49416 4.77119,11.68451 0.41994,13.34402 -3.08732,1.17746 -3.73881,2.67546 -2.00122,4.60147 1.81322,2.00985 1.88156,6.30949 0.15014,9.44652 l -1.27704,2.31379 z"
       style="fill:#fefe00"
       inkscape:connector-curvature="0" />
    <path
       id="path4524"
       d="m 387.24661,295.43966 c -0.3533,-0.90001 -0.18892,-4.06407 0.36531,-7.03125 0.55423,-2.96717 0.80256,-8.78799 0.55183,-12.93517 -0.41695,-6.89676 -0.27012,-7.75691 1.72028,-10.07812 2.6726,-3.11679 5.93599,-3.26056 8.63337,-0.38035 1.95297,2.08534 1.97712,2.37522 0.72247,8.67187 -0.71393,3.58293 -1.5687,8.0954 -1.89952,10.02771 -0.43336,2.53135 -1.30869,3.88015 -3.13186,4.82589 -3.18502,1.6522 -5.49952,4.23808 -5.96177,6.66082 -0.32234,1.68946 -0.42131,1.71307 -1.00011,0.2386 z"
       style="fill:#fefe00"
       inkscape:connector-curvature="0" />
    <path
       inkscape:connector-curvature="0"
       id="path4522"
       d="m 492.31548,295.30988 c 0,-0.24991 -1.01201,-2.86745 -2.24891,-5.81675 -1.50506,-3.5887 -2.47351,-8.24621 -2.92794,-14.08107 -0.57878,-7.43152 -0.83661,-8.40036 -1.74644,-6.5625 -1.31302,2.65229 -4.4818,3.24812 -6.20397,1.16654 -1.095,-1.32351 -1.04294,-1.96575 0.35783,-4.41408 1.29991,-2.27204 1.34168,-2.61745 0.20171,-1.66841 -3.67373,3.05847 -3.64564,11.4149 0.0774,23.00964 1.70751,5.31778 2.65435,6.71031 3.56149,5.23793 1.07052,-1.73753 4.23414,-1.12627 6.63486,1.28196 1.26169,1.26563 2.29398,2.09666 2.29398,1.84674 z"
       style="fill:#fefe00" />
    <path
       id="path4520"
       d="m 248.2862,293.40054 c -1.11283,-1.34506 -0.93127,-7.48337 0.2566,-8.67495 0.21898,-0.21967 2.55006,-0.11305 5.18015,0.23694 4.13552,0.55031 4.782,0.91928 4.782,2.7293 0,1.72826 -0.40807,2.01472 -2.34182,1.6439 -2.55291,-0.48954 -4.97459,1.04876 -5.99132,3.80583 -0.5872,1.5923 -0.76258,1.61639 -1.88561,0.25898 z"
       style="fill:#fefe00"
       inkscape:connector-curvature="0" />
    <path
       id="path4518"
       d="m 348.69187,290.91639 c -2.5701,-1.53118 -5.37828,-2.61213 -6.24041,-2.40212 -1.35279,0.32952 -1.42168,0.0607 -0.5029,-1.96204 1.0034,-2.20912 1.36014,-2.30904 6.20467,-1.73787 2.82704,0.3333 5.46512,1.11916 5.86242,1.74634 0.92992,1.46802 0.97017,7.24889 0.0501,7.18688 -0.38552,-0.026 -2.80374,-1.30001 -5.37384,-2.83119 z"
       style="fill:#fefe00"
       inkscape:connector-curvature="0" />
    <path
       id="path4516"
       d="m 315.1358,290.15453 c -2.13183,-2.37654 -3.6318,-2.50897 -5.31904,-0.46962 -1.10062,1.33032 -1.39243,0.96884 -2.39252,-2.96375 -2.08329,-8.19203 -2.56304,-20.18949 -0.95424,-23.86385 l 1.43667,-3.28125 -0.50138,2.96043 c -0.39882,2.35481 -0.0986,3.17664 1.46736,4.01736 2.1316,1.14436 5.14498,0.1213 6.02398,-2.04517 0.26391,-0.65044 0.24501,1.41218 -0.042,4.5836 -0.35147,3.88399 9.4e-4,7.90772 1.08094,12.32673 0.8815,3.60829 1.46274,7.49646 1.29165,8.64039 l -0.31107,2.07986 -1.78037,-1.98473 z"
       style="fill:#fefe00"
       inkscape:connector-curvature="0" />
    <path
       id="path4514"
       d="m 448.78066,290.15453 c -2.13183,-2.37654 -3.6318,-2.50897 -5.31903,-0.46962 -1.10063,1.33032 -1.39243,0.96884 -2.39253,-2.96375 -2.08329,-8.19203 -2.56304,-20.18949 -0.95424,-23.86385 l 1.43667,-3.28125 -0.50138,2.96043 c -0.39881,2.35481 -0.0986,3.17664 1.46736,4.01736 2.1316,1.14436 5.14498,0.1213 6.02398,-2.04517 0.26391,-0.65044 0.24501,1.41218 -0.042,4.5836 -0.35147,3.88399 9.4e-4,7.90772 1.08094,12.32673 0.8815,3.60829 1.46274,7.49646 1.29165,8.64039 l -0.31107,2.07986 -1.78037,-1.98473 z"
       style="fill:#fefe00"
       inkscape:connector-curvature="0" />
    <path
       id="path4512"
       d="m 250.79467,282.81083 c -2.26282,-0.34387 -2.57282,-0.80343 -2.59294,-3.84391 -0.0125,-1.89935 -0.43787,-5.25807 -0.94513,-7.46382 -0.72529,-3.15389 -0.61549,-4.6056 0.51414,-6.79688 1.26057,-2.44529 1.93639,-2.78641 5.52036,-2.78641 3.8464,0 4.19363,0.2224 5.96987,3.82372 1.64699,3.33927 1.77633,4.60014 1.02078,9.95188 -0.47583,3.37049 -1.09509,6.50138 -1.37613,6.95753 -0.51258,0.83198 -3.3159,0.88654 -8.11095,0.15789 z"
       style="fill:#fefe00"
       inkscape:connector-curvature="0" />
    <path
       id="path3484"
       d="m 347.16225,282.82103 c -2.2947,-0.35414 -2.53597,-0.8644 -3.50768,-7.41813 -1.01423,-6.84044 -0.97784,-7.12415 1.29703,-10.11598 1.97504,-2.59751 2.87403,-3.04567 5.75733,-2.87007 3.97801,0.24227 6.369,3.57783 5.5668,7.76595 -2.87085,14.98797 -1.97129,13.74049 -9.11348,12.63823 z"
       style="fill:#fefe00"
       inkscape:connector-curvature="0" />
    <path
       sodipodi:nodetypes="sssssssssssssscssssssscsssscc"
       inkscape:connector-curvature="0"
       id="path3482"
       d="m 250.09374,284.48558 c -6.71699,-1.3473 -9.894,-4.57955 -8.79981,-8.95278 0.81696,-3.26519 2.54745,-3.00781 1.82931,0.27207 -1.03387,4.7219 5.08672,7.60413 16.25487,7.65452 8.43721,0.0381 15.97371,-4.84414 14.52853,-9.41171 -0.64595,-2.04158 -4.18674,-4.39762 -4.18674,-2.78585 0,1.81506 -1.56523,0.97905 -2.65372,-1.41738 -1.48469,-3.26872 -1.50677,-3.23714 2.26431,-3.23714 2.2348,0 3.22143,0.38364 2.96572,1.15317 -0.21075,0.63425 0.36711,1.7944 1.28414,2.57813 0.91703,0.78372 1.94572,2.60344 2.28597,4.04382 0.52981,2.24275 0.0605,3.13581 -3.26814,6.21835 -2.13774,1.97972 -5.18442,3.85982 -6.77039,4.17801 -3.59191,0.72063 -11.40549,0.57502 -15.73405,-0.29321 z m 96.26168,0.0539 c -6.78484,-1.47266 -9.88972,-4.65052 -8.7998,-9.00665 0.81695,-3.26518 2.54744,-3.00781 1.8293,0.27207 -1.03387,4.7219 5.08672,7.60413 16.25487,7.65452 8.43722,0.0381 15.97371,-4.84414 14.52854,-9.41171 -0.64596,-2.04162 -4.18674,-4.39765 -4.18674,-2.78589 0,1.81506 -1.56524,0.97905 -2.65372,-1.41738 -1.48525,-3.26992 -1.50839,-3.23714 2.28642,-3.23714 2.41047,0 3.23594,0.35309 2.89699,1.23916 -0.26072,0.68154 0.32513,1.7398 1.30188,2.35169 1.25261,0.78472 1.7759,2.19198 1.7759,4.77582 0,3.17027 -0.51703,4.07406 -3.84186,6.71561 -3.47569,2.76139 -4.52238,3.07651 -10.98131,3.30608 -3.9267,0.13956 -8.61141,-0.0657 -10.41047,-0.45622 z"
       style="fill:#fe0000" />
  </g>
</svg>
