<?xml version="1.0" encoding="UTF-8" standalone="no"?>
<!-- Created with Inkscape (http://www.inkscape.org/) -->

<svg
   xmlns:dc="http://purl.org/dc/elements/1.1/"
   xmlns:cc="http://creativecommons.org/ns#"
   xmlns:rdf="http://www.w3.org/1999/02/22-rdf-syntax-ns#"
   xmlns:svg="http://www.w3.org/2000/svg"
   xmlns="http://www.w3.org/2000/svg"
   xmlns:sodipodi="http://sodipodi.sourceforge.net/DTD/sodipodi-0.dtd"
   xmlns:inkscape="http://www.inkscape.org/namespaces/inkscape"
   id="svg4028"
   version="1.1"
   inkscape:version="0.91 r13725"
   width="500"
   height="225"
   viewBox="0 0 500 225"
   sodipodi:docname="fx310106.svg">
  <metadata
     id="metadata4034">
    <rdf:RDF>
      <cc:Work
         rdf:about="">
        <dc:format>image/svg+xml</dc:format>
        <dc:type
           rdf:resource="http://purl.org/dc/dcmitype/StillImage" />
        <dc:title></dc:title>
      </cc:Work>
    </rdf:RDF>
  </metadata>
  <defs
     id="defs4032" />
  <sodipodi:namedview
     pagecolor="#ffffff"
     bordercolor="#666666"
     borderopacity="1"
     objecttolerance="10"
     gridtolerance="10"
     guidetolerance="10"
     inkscape:pageopacity="0"
     inkscape:pageshadow="2"
     inkscape:window-width="1261"
     inkscape:window-height="756"
     id="namedview4030"
     showgrid="false"
     inkscape:zoom="1.0644116"
     inkscape:cx="211.27428"
     inkscape:cy="184.77676"
     inkscape:window-x="0"
     inkscape:window-y="0"
     inkscape:window-maximized="0"
     inkscape:current-layer="svg4028" />
  <g
     id="g4038"
     transform="translate(0.36283123,-107.1724)">
    <path
       style="fill:#fefefe"
       d="m 80.828878,283.54313 c -0.329835,-1.31691 0.293641,-8.00904 1.385503,-14.87139 1.091861,-6.86236 1.985202,-15.50896 1.985202,-19.21468 0,-8.10811 1.74219,-12.26956 5.136639,-12.26956 3.01053,0 4.459391,2.86444 3.68166,7.27876 -0.339392,1.92637 -2.251853,10.22126 -4.249912,18.43311 -1.99806,8.21183 -3.632836,15.90539 -3.632836,17.09679 0,1.58949 0.871728,2.53117 3.274428,3.53717 1.800936,0.75405 3.274429,1.60346 3.274429,1.88758 0,0.28413 -2.307468,0.51659 -5.127706,0.51659 -4.718225,0 -5.175596,-0.1912 -5.727407,-2.39437 z m 55.810752,-1.12126 c -1.3636,-4.9203 -1.47186,-4.53085 3.57542,-12.86279 3.9529,-6.52534 4.77108,-8.7763 6.14387,-16.90283 0.87103,-5.15625 1.77136,-9.95102 2.00074,-10.65503 0.22937,-0.70403 1.63341,1.13644 3.12009,4.08992 l 2.70303,5.36997 -2.25065,6.63098 c -1.47381,4.34219 -4.05499,8.99161 -7.47813,13.47012 -4.90748,6.4205 -5.18858,7.06981 -4.59219,10.60722 0.51327,3.04427 0.35838,3.76807 -0.80629,3.76807 -0.86892,0 -1.82863,-1.39657 -2.41589,-3.51563 z m 33.17046,2.34375 c -0.2208,-0.64453 -1.29146,-5.99973 -2.37926,-11.90044 -1.08779,-5.90072 -2.5996,-11.93352 -3.35959,-13.40623 -1.91477,-3.71049 -0.88595,-6.5255 2.24918,-6.15408 3.00929,0.35651 3.46189,1.96628 4.79022,17.03743 0.96377,10.93495 1.86098,13.7202 4.41971,13.7202 0.70883,0 1.28877,0.42188 1.28877,0.9375 0,1.36811 -6.53492,1.14959 -7.00903,-0.23438 z m 21.12506,-10.78125 c 0.0752,-6.57421 -0.0179,-13.64062 -0.20686,-15.70312 -0.29953,-3.26831 -0.0814,-3.78742 1.69801,-4.04126 3.26327,-0.46555 4.21096,2.48603 3.16748,9.86517 -0.49493,3.49998 -1.16218,9.17345 -1.48279,12.60772 -0.53732,5.75556 -0.4314,6.29231 1.35366,6.86004 3.06036,0.97335 2.25732,2.36458 -1.36485,2.36458 l -3.30146,0 0.13681,-11.95312 z m 39.84956,10.65645 c -0.91636,-2.39298 -1.68911,-27.26807 -0.9259,-29.80499 0.67052,-2.22878 0.94395,-2.3685 2.45667,-1.25529 1.98899,1.46368 2.53598,10.58132 1.29831,21.64132 -0.72784,6.50405 -0.6972,6.64843 1.63722,7.71427 1.3084,0.59739 2.37893,1.51709 2.37893,2.04377 0,1.46838 -6.27205,1.1577 -6.84523,-0.33908 z m 47.07391,0.5847 c 0,-0.3916 0.86115,-1.25091 1.91366,-1.90958 2.06639,-1.29318 2.05173,-3.79046 -0.1128,-19.21078 -1.03573,-7.37863 -0.0861,-10.33027 3.17409,-9.86517 1.77943,0.25384 1.99754,0.77295 1.69801,4.04126 -0.18902,2.0625 -0.2821,9.12891 -0.20686,15.70312 l 0.13681,11.95313 -3.30146,0 c -1.81579,0 -3.30145,-0.32039 -3.30145,-0.71198 z m 48.40203,-0.9495 c 2.02542,-1.56803 2.06207,-1.88524 1.14718,-9.93044 -0.51979,-4.57086 -0.69663,-9.63775 -0.39297,-11.25976 0.30365,-1.62199 0.10016,-4.14025 -0.45221,-5.59612 -1.37749,-3.63061 -0.1186,-5.28026 1.56794,-2.05466 1.40314,2.68355 2.9853,15.80005 3.02908,25.11183 l 0.0254,5.39063 -3.50832,-0.0208 -3.50831,-0.0208 2.09225,-1.61978 z m 35.79756,-2.67977 c 0,-2.38769 0.584,-8.39941 1.29778,-13.35938 0.71377,-4.95996 1.24002,-10.70562 1.16943,-12.76812 -0.11668,-3.40929 0.0842,-3.75 2.21054,-3.75 1.94778,0 2.38736,0.50224 2.62882,3.00355 0.15946,1.65196 -0.15907,3.84429 -0.70786,4.87184 -1.24083,2.32334 -3.79168,15.45029 -3.7919,19.5135 -1.1e-4,2.05451 0.59545,3.33331 1.87094,4.01736 2.86712,1.53763 2.23101,2.8125 -1.40332,2.8125 -3.27079,0 -3.27443,-0.005 -3.27443,-4.34125 z m 43.1181,-7.61188 c 0.0752,-6.57421 -0.0179,-13.64062 -0.20686,-15.70312 -0.29953,-3.26831 -0.0814,-3.78742 1.69802,-4.04126 3.26326,-0.46555 4.21095,2.48603 3.16747,9.86517 -0.49492,3.49998 -1.16218,9.17345 -1.48279,12.60772 -0.53732,5.75556 -0.4314,6.29231 1.35367,6.86004 3.06035,0.97335 2.25731,2.36458 -1.36486,2.36458 l -3.30146,0 0.13681,-11.95312 z m -94.32702,6.02687 c -0.55637,-1.22364 -1.30474,-4.57609 -1.66306,-7.44988 -0.56688,-4.54663 -0.2577,-6.27056 2.3812,-13.27698 2.52807,-6.71215 3.25496,-7.86703 4.36864,-6.94083 1.59372,1.32542 1.11105,3.77935 -2.20974,11.23454 -2.24182,5.03287 -2.29856,5.57013 -1.13856,10.78125 1.51282,6.79608 1.52507,7.12449 0.28133,7.53993 -0.55452,0.18524 -1.46343,-0.66438 -2.01981,-1.88803 z m 68.21699,-1.83945 c -0.95439,-1.15237 -4.84591,-9.71167 -4.84591,-10.65847 0,-0.25092 0.88383,-0.32141 1.96408,-0.15665 1.33897,0.20424 2.36993,1.49307 3.23928,4.04958 0.70136,2.0625 2.13302,4.45043 3.18146,5.30652 1.04843,0.85609 1.90624,1.80531 1.90624,2.10938 0,1.07077 -4.46098,0.53796 -5.44515,-0.65036 z m -131.78274,-4.69061 c 0.19355,-5.01133 -4.60083,-15.22331 -9.80152,-20.87714 -4.19023,-4.55534 -4.50398,-6.60389 -1.2397,-8.09429 3.19189,-1.45735 4.00357,-0.25633 9.78958,14.48553 4.85462,12.3688 5.48991,15.4589 3.57309,17.37972 -1.93431,1.93834 -2.48172,1.25596 -2.32145,-2.89382 z m -126.14992,-0.2807 c -2.6767,-0.9526 -7.22145,-4.81293 -15.7491,-13.37736 l -11.986686,-12.03837 0.66095,-4.41672 0.660948,-4.4167 2.318548,2.16496 c 1.275193,1.19073 7.10208,7.64933 12.9486,14.35246 5.84654,6.70312 12.11911,13.36564 13.93906,14.80559 5.38741,4.26256 4.26573,5.438 -2.79232,2.92614 z m 75.33207,-8.7488 c 0,-1.50471 0.26029,-3.41554 0.57843,-4.24631 0.51968,-1.35709 0.70666,-1.34108 1.84134,0.1577 0.69461,0.9175 1.27632,2.82834 1.29269,4.2463 0.0226,1.96306 -0.41664,2.57813 -1.84135,2.57813 -1.44365,0 -1.87111,-0.625 -1.87111,-2.73582 z m 78.61603,0.15769 c 0.0164,-1.41796 0.59808,-3.3288 1.29269,-4.2463 1.13468,-1.49878 1.32166,-1.51479 1.84134,-0.1577 0.31814,0.83077 0.57843,2.7416 0.57843,4.24631 0,2.11082 -0.42746,2.73582 -1.87111,2.73582 -1.42471,0 -1.864,-0.61507 -1.84135,-2.57813 z m 43.23948,1.61142 c -1.15774,-0.46633 -2.10499,-1.36771 -2.10499,-2.00308 0,-0.89849 0.24949,-0.90521 1.12266,-0.0302 0.61747,0.61875 1.88046,1.125 2.80666,1.125 0.92619,0 1.68399,0.42187 1.68399,0.9375 0,1.11275 -0.68736,1.10704 -3.50832,-0.0292 z m 92.38566,-1.76911 c 0,-1.50471 0.26029,-3.41554 0.57842,-4.24631 0.51968,-1.35709 0.70666,-1.34108 1.84134,0.1577 0.69461,0.9175 1.27632,2.82834 1.29269,4.2463 0.0226,1.96306 -0.41664,2.57813 -1.84135,2.57813 -1.44365,0 -1.8711,-0.625 -1.8711,-2.73582 z m -41.82823,0.75795 c -1.29292,-1.29561 0.2944,-6.45963 1.98555,-6.45963 0.93562,0 4.29174,5.52329 4.29174,7.06306 0,0.90219 -5.28145,0.39449 -6.27729,-0.60343 z m -197.68558,-4.35026 c -0.007,-0.90234 -0.26663,-2.58984 -0.5769,-3.75 -0.75723,-2.83151 1.83765,-2.84906 3.81105,-0.0258 2.23239,3.19383 1.87027,5.4164 -0.8825,5.4164 -1.59893,0 -2.34292,-0.51904 -2.35165,-1.64062 z m 64.75289,0.51563 c -1.54597,-1.54919 -1.41076,-5.90581 0.22552,-7.26663 1.32352,-1.10072 2.08297,-0.25602 6.49119,7.21975 0.92341,1.566 -5.15839,1.60845 -6.71671,0.0469 z m -86.78988,-23.96748 c -0.54992,-0.37882 -5.08818,-8.28252 -10.08501,-17.56377 -4.99684,-9.28125 -10.40873,-18.66502 -12.02642,-20.85282 -1.6177,-2.18781 -2.70979,-4.2098 -2.42687,-4.49332 0.88873,-0.89057 7.12957,2.58004 7.5523,4.19993 0.22174,0.8497 4.78027,7.85107 10.13007,15.5586 8.90297,12.82663 12.8761,20.85904 11.45635,23.16103 -0.55407,0.89837 -3.29062,0.89263 -4.60042,-0.01 z m 41.08548,-8.24691 c -2.15148,-2.15596 -2.33871,-2.89991 -1.82857,-7.26563 1.07262,-9.17956 3.37497,-40.47133 3.37497,-45.87003 0,-2.96997 0.36458,-5.39995 0.8102,-5.39995 0.4456,0 1.6902,2.42578 2.76577,5.39062 1.75843,4.8472 1.96922,7.62148 2.09092,27.51975 0.1149,18.78515 -0.0946,22.57474 -1.38646,25.07812 -1.84477,3.57482 -2.72312,3.65729 -5.82683,0.54712 z m 89.00256,-0.44519 c -1.21117,-2.34705 -1.4762,-6.77683 -1.50897,-25.22131 -0.0222,-12.47795 0.3557,-23.14021 0.85429,-24.10604 0.49173,-0.9525 1.4031,-3.31385 2.02528,-5.24745 1.64422,-5.10988 2.85723,-4.30991 2.85723,1.88433 0,5.3987 2.30235,36.69047 3.37497,45.87003 0.51014,4.36572 0.32291,5.10967 -1.82857,7.26563 -3.08756,3.09399 -3.98349,3.02491 -5.77423,-0.44519 z m 125.2386,0.44519 c -2.15148,-2.15596 -2.33871,-2.89991 -1.82857,-7.26563 1.07262,-9.17956 3.37497,-40.47133 3.37497,-45.87003 0,-6.19424 1.21301,-6.99421 2.85723,-1.88433 0.62218,1.9336 1.53356,4.29495 2.02528,5.24745 0.49859,0.96583 0.87646,11.62809 0.85429,24.10604 -0.0327,18.44448 -0.2978,22.87427 -1.50897,25.22131 -1.79074,3.4701 -2.68667,3.53918 -5.77423,0.44519 z m -76.39701,-2.33075 c -3.12709,-3.28845 -4.57617,-3.42624 -8.27511,-0.78687 l -2.77554,1.98048 0.56065,-5.96486 C 319.18297,205.17172 318.8976,206.25 321.77938,206.25 l 2.62187,0 -0.27678,8.67187 -0.27678,8.67188 0.65981,-7.68801 c 0.36291,-4.22839 0.9417,-7.97047 1.28623,-8.31571 0.34452,-0.34524 1.69851,-0.35807 3.00885,-0.0285 2.37983,0.59854 2.38245,0.61102 2.38245,11.36259 0,5.91986 -0.10525,10.74307 -0.23389,10.71825 -0.12864,-0.0248 -1.41809,-1.29046 -2.86545,-2.8125 z m 38.18635,1.21701 c -0.36526,-0.90234 -0.7867,-10.3127 -0.93654,-20.91192 -0.14985,-10.59921 -0.55949,-22.83359 -0.91032,-27.1875 -0.50831,-6.30826 -0.35373,-8.29705 0.76105,-9.7912 1.38818,-1.86058 1.4173,-1.85772 3.78606,0.37223 3.48982,3.28531 4.05384,6.14217 5.20155,26.34652 0.57115,10.05469 1.28638,21.23437 1.58938,24.84375 0.37689,4.48942 0.24687,6.26634 -0.41159,5.625 -0.53846,-0.52446 -1.4652,-10.85061 -2.10347,-23.4375 -0.62751,-12.375 -1.35432,-22.71094 -1.61513,-22.96875 -0.44973,-0.44455 0.0223,12.1083 1.3271,35.29826 l 0.58826,10.45451 -2.89197,1.49862 c -3.58323,1.85681 -3.57517,1.85707 -4.38438,-0.14202 z m -126.80741,-0.66691 c -3.48568,-1.90034 -4.33712,-4.47074 -5.48117,-16.54708 -1.39321,-14.70631 -1.48245,-13.95788 1.66431,-13.95788 2.40358,0 2.8075,0.44536 3.72867,4.1113 1.07779,4.28922 3.8668,23.07967 3.8668,26.05189 0,2.02127 -0.59869,2.07542 -3.77861,0.34177 z m -8.75694,-3.52747 c -0.33935,-1.68918 -0.88013,-8.23921 -1.20173,-14.55562 -0.50335,-9.88578 -0.38769,-11.48437 0.83088,-11.48437 1.09882,0 1.65453,2.10548 2.48325,9.4086 1.3704,12.07669 1.34381,14.21865 -0.21388,17.22735 l -1.28151,2.47528 z M 90.473546,215.52691 c -1.126687,-0.65697 -1.484246,-1.591 -1.087991,-2.8421 0.586293,-1.85109 20.150615,-22.37231 21.329105,-22.37231 1.43413,0 0.4465,3.05963 -1.6032,4.96664 -4.75871,4.42741 -13.52857,16.04514 -14.037734,18.59624 -0.563913,2.82545 -1.816027,3.27497 -4.60018,1.65153 z m 1.210445,-9.56703 c 0,-1.88744 2.387441,-3.67826 4.388781,-3.29204 1.356128,0.26171 1.099497,0.73119 -1.358382,2.485 -2.271659,1.62094 -3.030399,1.823 -3.030399,0.80704 z m 235.865079,-0.38826 c -2.14212,-0.4059 -2.20986,-0.6573 -1.67081,-6.20046 1.36565,-14.04339 1.34245,-17.04663 -0.0501,-6.48054 l -1.51352,11.48438 -2.65697,0 c -2.53228,0 -2.63434,-0.16497 -2.17482,-3.51563 0.26517,-1.93359 0.91192,-8.51965 1.43724,-14.63568 1.17812,-13.71658 2.38466,-16.48853 7.19144,-16.52184 3.73006,-0.0259 4.18906,2.64418 3.47296,20.20253 -0.36666,8.99009 -0.92229,16.28817 -1.23474,16.21795 -0.31246,-0.0702 -1.57279,-0.31805 -2.80073,-0.55071 z m -98.81578,-20.23945 c -0.73152,-11.73203 -0.26581,-14.70717 2.30217,-14.70717 2.19772,0 5.44876,7.86408 6.62663,16.02943 1.21728,8.43858 1.23849,8.34557 -1.90326,8.34557 -2.75477,0 -2.80772,-0.0909 -2.86434,-4.92188 -0.0317,-2.70703 -0.65597,-7.66406 -1.38719,-11.01562 -1.31084,-6.00818 -1.32042,-6.02135 -0.68218,-0.9375 1.0331,8.22915 0.85516,17.13427 -0.35052,17.54194 -0.74263,0.2511 -1.28018,-2.93929 -1.74131,-10.33477 z"
       id="path4048"
       inkscape:connector-curvature="0"
       sodipodi:nodetypes="sssssssssssssscscsssssssssssssccssssscccssssssssssssscsscssssccccccsssssssssscccsssscccsssssscssscsssssssssssscccssssssscsscssssccscssccssscsssssscssscccsscccsscsssccsssssssssscssssssssssssscscsscccscsscccssssssssssscssssssssssssscssssssssssscsscssscscccsssssssss" />
    <path
       style="fill:#fefe00"
       d="m 157.48867,253.78556 c -2.93326,-3.76355 -8.73607,-13.88468 -8.73607,-15.23726 0,-0.0898 0.97285,0.0231 2.16189,0.25084 3.10529,0.59485 4.68147,-1.65086 3.44535,-4.90887 -0.54001,-1.4233 -0.82019,-2.7498 -0.62262,-2.94778 0.19757,-0.19798 1.69934,2.70819 3.33727,6.45815 2.12051,4.85482 4.39033,8.16789 7.88258,11.50561 2.69749,2.57812 4.49128,4.37109 3.9862,3.98437 -2.97536,-2.27811 -8.02984,1.12309 -6.72659,4.52639 1.0474,2.73514 -0.97905,1.17869 -4.72801,-3.63145 z m 38.24364,1.19045 c -1.24635,-1.99988 -4.37987,-2.48275 -5.39808,-0.83183 -2.16451,3.50955 -3.71917,-6.16277 -2.78903,-17.35209 l 0.66879,-8.04555 2.38092,1.87673 c 3.17474,2.50246 3.71144,2.39567 5.88104,-1.17014 2.06624,-3.39594 2.23632,-2.91545 0.91264,2.57812 -0.60303,2.50271 -0.55328,6.74215 0.14959,12.74597 1.13306,9.67846 0.41105,13.75604 -1.80587,10.19879 z m 81.61757,-0.27454 c -0.33654,-1.34372 -0.13862,-6.00703 0.43983,-10.36291 0.72338,-5.44715 0.75941,-9.19008 0.11542,-11.98854 -1.34668,-5.85201 -1.20446,-6.3208 0.87879,-2.89689 2.1696,3.56581 2.7063,3.6726 5.88104,1.17014 l 2.38092,-1.87673 0.66879,8.04555 c 0.93014,11.18932 -0.62452,20.86164 -2.78903,17.35209 -1.04131,-1.68838 -4.06287,-1.14994 -5.55906,0.99061 l -1.40478,2.00981 z m 132.62359,0.27454 c -1.24635,-1.99988 -4.37987,-2.48275 -5.39807,-0.83183 -2.16451,3.50955 -3.71917,-6.16277 -2.78904,-17.35209 l 0.6688,-8.04555 2.38091,1.87673 c 3.17474,2.50246 3.71144,2.39567 5.88104,-1.17014 2.06624,-3.39594 2.23632,-2.91545 0.91264,2.57812 -0.60303,2.50271 -0.55328,6.74215 0.14959,12.74597 1.13306,9.67846 0.41106,13.75604 -1.80587,10.19879 z m -39.97512,-2.08539 c -0.65473,-1.49545 -1.74038,-2.12138 -3.73016,-2.15064 -2.65171,-0.039 -2.80246,-0.24601 -2.73071,-3.75 0.0417,-2.0398 0.41789,-7.18712 0.8358,-11.43848 0.63206,-6.42994 0.95225,-7.46607 1.90408,-6.16165 1.0588,1.45102 1.39613,1.41918 4.51745,-0.42628 4.25986,-2.5186 4.93008,-1.47646 2.93039,4.55656 -1.27957,3.86046 -1.37791,5.48097 -0.53598,8.83158 C 375.13697,250.103 374.3247,255 371.09127,255 c -0.0932,0 -0.58499,-0.94922 -1.09292,-2.10938 z m -137.93701,-0.47833 c -1.23496,-1.00208 -2.23228,-3.13395 -2.53935,-5.42804 -0.51695,-3.86217 1.48226,-16.49673 3.39727,-21.46996 l 1.06545,-2.76695 2.0565,2.44427 c 1.13107,1.34434 3.00622,2.92204 4.16697,3.506 2.0189,1.01567 2.04713,1.18451 0.65053,3.89086 -1.32163,2.56105 -1.32214,3.30417 -0.006,7.84274 1.87265,6.45514 1.81059,7.11398 -0.40096,4.25629 -1.72596,-2.23021 -1.93991,-2.27407 -4.41645,-0.90528 -3.32487,1.83767 -3.77682,4.2638 -1.28866,6.91784 3.03233,3.23448 0.88064,4.6062 -2.68582,1.71223 z m 84.29421,-0.54491 c -2.00951,-2.14349 -2.02468,-2.33645 -0.64468,-8.20312 0.77728,-3.30441 1.41946,-7.98319 1.42707,-10.3973 0.0119,-3.76696 0.39907,-4.66418 2.73101,-6.32813 3.55895,-2.53947 4.94108,-2.44643 7.91408,0.53276 2.89219,2.89822 2.8675,2.71611 1.06312,7.84091 -0.77183,2.19216 -1.40333,6.80145 -1.40333,10.24287 0,3.61665 -0.47375,6.73187 -1.12266,7.38213 -1.96785,1.97196 -7.68864,1.35758 -9.96461,-1.07012 z M 84.199583,238.94198 c 0,-0.81137 1.052495,-3.45882 2.338878,-5.88321 1.851487,-3.48942 2.338877,-5.77206 2.338877,-10.95386 0,-6.18121 0.100812,-6.49182 1.809598,-5.57539 2.862884,1.53535 3.8089,1.17338 5.123882,-1.96056 1.296954,-3.09098 1.785742,-2.87246 2.764665,1.23604 0.51562,2.16403 -0.132839,5.92635 -3.663112,21.25336 -0.474465,2.05992 -0.62651,2.10903 -2.176789,0.70312 -2.341578,-2.12351 -5.366307,-1.87907 -7.079623,0.57212 -1.067603,1.5274 -1.456376,1.6898 -1.456376,0.60838 z"
       id="path4044"
       inkscape:connector-curvature="0"
       sodipodi:nodetypes="sscsssssssssscssssscsssscsssccssscssssssscssssssscsscssscsssccsssssssssssssssssss" />
    <path
       style="fill:#fe0000"
       d="m 339.83887,227.19161 c -2.18685,-0.77569 -3.97609,-1.70612 -3.97609,-2.06761 0,-0.36148 1.263,-1.40486 2.80666,-2.31862 1.54365,-0.91376 2.80665,-2.05941 2.80665,-2.54589 0,-0.48647 0.47009,-0.88449 1.04466,-0.88449 0.58407,0 0.82893,0.8267 0.55536,1.875 -0.59074,2.26372 0.93366,2.43102 3.80262,0.41735 1.96072,-1.37622 1.9972,-1.61183 0.65285,-4.21693 -2.7061,-5.24393 -18.69717,-11.27741 -29.50404,-11.13198 -8.01551,0.10787 -14.85089,1.3465 -16.48891,2.98794 -1.28014,1.2828 -1.32934,1.9322 -0.32959,4.35082 0.64633,1.56362 1.97186,3.09634 2.94563,3.40605 1.86867,0.59432 2.45735,2.31175 0.79241,2.31175 -1.64662,0 -5.45794,-4.37929 -6.1233,-7.03581 -1.27375,-5.08562 5.79424,-7.94519 19.67163,-7.95876 10.77863,-0.0105 28.01817,6.69636 30.90509,12.02337 0.77902,1.43746 1.38424,1.90398 1.42209,1.0962 0.0521,-1.11113 0.2669,-1.06039 1.02364,0.2418 0.99719,1.71595 0.33639,3.87616 -0.94329,3.08363 -0.4042,-0.25033 -1.71149,0.58654 -2.90508,1.85971 -1.19359,1.27318 -3.04404,2.32768 -4.11208,2.34337 -1.76827,0.026 -1.79552,0.11395 -0.3047,0.98408 1.62645,0.9493 2.2783,2.80503 0.93555,2.66339 -0.38592,-0.0407 -2.49091,-0.70867 -4.67776,-1.48437 z m -89.34511,-16.00369 c -1.92957,-0.79329 -3.47792,-1.70151 -3.44077,-2.01826 0.0371,-0.31675 1.52596,-1.79102 3.30847,-3.27617 3.25602,-2.71284 5.40177,-2.80353 3.19161,-0.1349 -1.63632,1.97575 0.68561,1.9556 3.51527,-0.0305 2.37592,-1.66763 2.70522,-4.35292 0.73478,-5.99166 -2.39083,-1.98835 -19.43944,-3.31191 -27.16242,-2.10874 -12.46502,1.94193 -17.56249,5.34862 -15.89254,10.62113 0.30505,0.96315 0.11329,1.75118 -0.42613,1.75118 -1.30446,0 -2.27248,-4.07366 -1.52718,-6.42676 C 214.10082,199.4499 227.17349,195 237.98081,195 c 8.08116,0 19.60573,1.88663 21.40068,3.50341 3.15768,2.84421 1.62016,7.68704 -3.05683,9.62835 -2.03134,0.84316 -2.59996,1.49654 -1.90685,2.19108 1.14375,1.14614 1.30888,2.53138 0.28593,2.39855 -0.38592,-0.0501 -2.28041,-0.74016 -4.20998,-1.53347 z"
       id="path4042"
       inkscape:connector-curvature="0"
       sodipodi:nodetypes="sssssssssssssssscssscscsscsssssssssssscs" />
    <path
       style="fill:#000000"
       d="m 260.2832,152.83789 c -0.58013,-0.0283 -1.20271,0.14428 -1.83789,0.54297 -1.96941,1.23617 -2.7075,7.41924 -1.11523,9.3418 0.61076,0.73744 1.8508,1.33984 2.7539,1.33984 2.53863,0 3.89155,-2.33902 3.56836,-6.16797 -0.2594,-3.07318 -1.62875,-4.97178 -3.36914,-5.05664 z m -8.41406,0.082 c -3.4367,0.14773 -5.17788,5.21375 -2.94922,9.38672 1.19083,2.22972 4.42294,2.03639 5.91797,-0.35352 1.37157,-2.19254 -0.38678,-4.94766 -3.08984,-4.84374 -1.10447,0.0425 -1.84545,-0.37942 -1.64649,-0.9375 0.19896,-0.55809 1.50187,-0.9318 2.89453,-0.83008 3.15002,0.23006 2.77353,-1.9184 -0.41797,-2.38477 -0.24351,-0.0356 -0.47987,-0.047 -0.70898,-0.0371 z m -8.28516,0.0508 c -1.21831,0.006 -2.52159,0.49186 -3.10742,1.19922 -1.05567,1.27464 -0.84528,1.38262 1.7168,0.86914 1.88597,-0.37798 2.92187,-0.21228 2.92187,0.46875 0,0.58008 -0.63246,1.05469 -1.40429,1.05469 -1.86386,0 -1.77367,0.92543 0.23437,2.41211 1.28142,0.94869 1.39208,1.46056 0.50781,2.35937 -0.89126,0.90592 -1.43953,0.89123 -2.5957,-0.0703 -1.88171,-1.56493 -2.99363,-0.50744 -1.43945,1.36914 1.4353,1.73303 4.11376,1.85736 5.44336,0.25196 0.53643,-0.64772 0.9039,-3.07351 0.8164,-5.39063 -0.14294,-3.78419 -0.40535,-4.24105 -2.57812,-4.49414 -0.16822,-0.0196 -0.34158,-0.0301 -0.51563,-0.0293 z m 24.10157,0 c -0.44783,0.0482 -0.88388,0.2347 -1.24024,0.5918 -0.54829,0.54943 -0.73224,1.69091 -0.4082,2.53711 0.74898,1.95584 3.74738,1.43535 4.16211,-0.72266 0.27925,-1.45306 -1.17019,-2.55086 -2.51367,-2.40625 z m 0.22265,1.10352 c 0.0851,0.0129 0.18684,0.15705 0.29883,0.4375 0.2703,0.67675 0.23665,1.48534 -0.0742,1.79687 -0.31088,0.31152 -0.53278,-0.2422 -0.49219,-1.23047 0.0281,-0.68258 0.12578,-1.02542 0.26758,-1.0039 z m -7.82422,1.08203 c 0.97358,0 1.40235,0.98091 1.40235,3.20313 0,3.32409 -1.93193,5.04637 -2.88086,2.56835 -0.89785,-2.34465 -0.0193,-5.77148 1.47851,-5.77148 z m -8.07812,3.50977 c 0.17414,0.0263 0.34659,0.0872 0.51172,0.18945 0.55938,0.34644 1.01758,1.23746 1.01758,1.98047 0,1.5784 -2.40914,1.81892 -3.32618,0.33203 -0.71437,-1.1583 0.57793,-2.68609 1.79688,-2.50195 z m 114.58398,8.67773 -1.87109,2.30273 c -1.70569,2.10025 -1.80672,3.09213 -1.16016,11.25 1.08219,13.65444 0.79526,51.18899 -0.45117,59.10743 -0.78758,5.00339 -0.83899,8.93326 -0.17773,13.60547 0.70709,4.9961 0.60432,8.58827 -0.4336,14.99609 -0.75065,4.63436 -1.36714,10.4297 -1.36914,12.87891 l -0.004,4.45312 -14.36914,0 -14.36914,0 -0.67188,-12.38477 c -0.36948,-6.8111 -1.26554,-14.08843 -1.99023,-16.17187 -1.96907,-5.66099 -1.70182,-16.89229 0.56054,-23.60547 1.55912,-4.6264 1.84908,-7.50571 1.60157,-15.88477 l -0.30274,-10.23437 -0.19726,11.08789 -0.19922,11.08789 -2.87891,-2.88476 c -3.40595,-3.41304 -4.7788,-3.55589 -8.51953,-0.88672 l -2.80078,1.99804 0.51562,-5.04492 c 1.17614,-11.50112 1.42552,-17.33016 0.59766,-13.96094 -0.44204,1.799 -1.07398,8.75993 -1.40625,15.46875 -0.69937,14.12074 -3.12653,27.4219 -6.58789,36.10352 -2.04643,5.13277 -2.33675,6.97239 -1.83594,11.66016 0.65947,6.17282 2.63812,10.83984 4.5957,10.83984 2.08423,0 2.27978,-2.04834 0.7793,-8.20312 -1.16968,-4.79792 -1.21044,-6.30974 -0.23242,-8.67579 1.15557,-2.79561 1.21738,-2.82024 2.51562,-0.96289 0.73197,1.04722 1.90739,1.9043 2.61329,1.9043 0.70589,0 1.92501,0.64214 2.70898,1.42773 1.27685,1.27951 1.52441,1.24329 2.37305,-0.3457 0.52107,-0.97563 0.72458,-1.99751 0.45117,-2.27148 -0.27341,-0.27398 -0.11927,-0.73276 0.34375,-1.01953 0.46303,-0.28676 0.87928,-0.0125 0.92578,0.60937 0.0465,0.62184 0.52645,4.65967 1.06445,8.97266 1.43781,11.52661 1.86371,11.3061 -22.01758,11.3457 l -18.83984,0.0312 -0.66797,-11.13086 c -0.45233,-7.54405 -0.33601,-11.75508 0.36328,-13.06445 0.5675,-1.06259 1.03321,-2.9286 1.03321,-4.14844 0,-1.21984 0.52478,-2.74844 1.16797,-3.39648 1.61714,-1.62934 1.34641,-20.20857 -0.63086,-43.25977 -0.86246,-10.05469 -1.8627,-23.30915 -2.22266,-29.45508 -0.66347,-11.32772 -1.91006,-14.4639 -3.88086,-9.75976 -3.94053,9.40587 -3.89093,8.96754 -3.95703,35.59961 -0.0353,14.25433 0.22154,26.38251 0.57226,26.95117 0.35073,0.56867 0.1376,5.17647 -0.4746,10.23828 -1.06001,8.76424 -1.23971,9.26001 -3.7754,10.38476 -1.46447,0.64958 -3.43598,0.93529 -4.38085,0.63477 -1.41608,-0.45038 -2.00459,0.3616 -3.34571,4.625 -0.89486,2.84473 -1.36804,5.59031 -1.05273,6.10156 0.88327,1.43213 2.59885,1.09985 2.02734,-0.39258 -0.73701,-1.92461 1.34964,-8.05273 2.74219,-8.05273 0.83616,0 1.03085,0.97745 0.6543,3.30273 -0.71954,4.44321 1.57655,7.00977 6.27343,7.00977 l 3.46289,0 0.5625,6.72656 c 0.52975,6.33198 0.42539,6.85514 -1.7832,8.90625 -2.28744,2.12432 -2.8021,2.17969 -20.44336,2.17969 l -18.0957,0 -2.92383,-2.73633 -2.92383,-2.73828 0.94532,-8.27734 c 0.52055,-4.55308 0.95007,-8.49238 0.95507,-8.75391 0.004,-0.26152 1.87624,-0.32656 4.16016,-0.14453 3.99009,0.318 4.20695,0.49465 5.57617,4.52148 0.78374,2.30494 1.18985,5.37588 0.90039,6.82618 -0.66694,3.34168 1.06717,4.51636 3.46289,2.34375 2.30867,-2.09369 2.28741,-4.76224 -0.084,-10.79102 -1.29528,-3.29324 -1.70566,-5.83014 -1.29688,-8.01367 0.3792,-2.02552 0.16203,-3.72068 -0.59179,-4.63086 -0.87109,-1.05179 -0.91099,-1.71244 -0.15039,-2.47461 0.76059,-0.76218 1.34171,-0.37619 2.16992,1.44531 1.37518,3.02449 3.07493,3.31638 2.19531,0.37695 -1.05615,-3.52937 -3.00725,-5.04854 -4.93555,-3.84179 -1.92083,1.20207 -5.47695,-0.71354 -4.4414,-2.39258 0.32829,-0.53229 -0.0723,-3.27472 -0.89063,-6.0957 -1.4354,-4.94786 -1.4164,-5.27038 0.54102,-9.11524 1.91672,-3.76492 1.96904,-4.45549 0.94726,-12.48047 -1.24471,-9.77595 -3.7842,-22.43189 -4.38086,-21.83398 -0.22309,0.22356 0.19335,3.1039 0.92383,6.40234 1.71205,7.73065 3.78434,24.19085 3.12891,24.84766 -0.92933,0.93126 -5.87767,-2.256 -6.94336,-4.47266 -0.57892,-1.20414 -1.56462,-7.79481 -2.19141,-14.64648 -0.62679,-6.85167 -1.33932,-12.25887 -1.58203,-12.01563 -0.24273,0.24323 0.0916,5.70865 0.74219,12.14649 1.04529,10.34364 1.0124,12.0609 -0.29102,14.75781 l -1.47656,3.05273 -0.63086,-4.2246 c -0.34761,-2.32281 -0.98945,-9.04142 -1.42578,-14.92969 -0.76823,-10.36695 -0.7752,-10.30435 -0.19922,1.95117 0.32715,6.96094 0.52932,15.60937 0.44922,19.21875 -0.53159,23.96787 -0.49411,51.96425 0.0723,54.14063 l 0.67187,2.57812 -15.40625,0 c -14.82623,0 -15.49583,-0.0826 -17.75391,-2.17969 -2.20859,-2.05111 -2.31295,-2.57427 -1.7832,-8.90625 l 0.5625,-6.72656 3.46289,0 c 4.69689,0 6.99493,-2.56656 6.27539,-7.00977 -0.68172,-4.20969 1.7079,-4.65666 2.6211,-0.49023 0.33904,1.54687 1.00484,2.8125 1.47851,2.8125 1.10808,0 1.08628,-0.43562 -0.24219,-4.87891 -0.91504,-3.06045 -1.43411,-3.60325 -3.04101,-3.18164 -1.06555,0.27957 -3.03975,0.0209 -4.38672,-0.57617 -2.27301,-1.00758 -2.52941,-1.74732 -3.5625,-10.28906 -0.6122,-5.06181 -0.80353,-9.70393 -0.42578,-10.31641 0.37779,-0.61248 0.58547,-12.82825 0.46094,-27.14453 -0.21257,-24.43811 -0.35463,-26.36042 -2.32618,-31.46094 -3.38582,-8.75936 -4.68165,-7.37727 -5.44921,5.81641 -0.35996,6.1875 -1.3602,19.47656 -2.22266,29.53125 -1.97726,23.0512 -2.248,41.63043 -0.63086,43.25977 0.64319,0.64804 1.16797,2.17664 1.16797,3.39648 0,1.21984 0.46566,3.08585 1.0332,4.14844 0.6993,1.30937 0.81561,5.5204 0.36328,13.06445 l -0.66601,11.13086 -5.97852,0 c -3.45769,0 -5.97851,-0.40524 -5.97851,-0.96094 0,-0.52839 -1.01784,-1.34958 -2.26368,-1.82422 -1.92989,-0.73527 -2.34877,-1.66825 -2.82812,-6.30468 -0.30944,-2.99306 -0.75638,-7.23439 -0.99219,-9.42578 -0.41885,-3.89248 -0.36311,-3.98438 2.36133,-3.98438 4.14353,0 6.81083,-3.11349 6.30469,-7.35742 -0.22458,-1.88308 0.0407,-4.15155 0.58789,-5.04102 0.70803,-1.15104 0.69714,-1.91461 -0.0371,-2.65039 -1.14103,-1.1434 -7.97679,-2.90938 -8.65039,-2.23437 -0.80415,0.80581 3.17992,3.1616 5.39844,3.1914 1.79272,0.0241 2.01071,0.28023 1.13476,1.33789 -0.59647,0.72021 -1.90869,1.09456 -2.91797,0.83008 -1.00927,-0.26448 -2.94037,0.24404 -4.29101,1.13086 -1.35066,0.88682 -2.18798,1.18003 -1.86133,0.65039 0.32665,-0.52964 -1.36072,-2.56703 -3.74805,-4.52734 -3.14715,-2.58423 -5.16725,-5.38322 -7.34765,-10.17774 -1.65397,-3.63697 -8.12508,-13.96177 -14.38086,-22.94531 -6.25578,-8.98353 -11.375,-16.87409 -11.375,-17.5332 0,-0.65911 -1.73409,-2.08446 -3.85352,-3.16797 -5.55168,-2.83816 -6.74751,-1.17403 -2.89453,4.0293 1.62741,2.19777 7.22454,11.91556 12.4375,21.59375 l 9.47851,17.5957 -2.08398,11.93555 c -1.91379,10.96403 -2.46226,12.55985 -6.75586,19.63867 -4.75365,7.83729 -4.82849,8.20851 -2.94531,14.56055 0.45338,1.5293 -0.98478,1.64062 -21.18164,1.64062 -20.250444,0 -21.821726,-0.12259 -24.044924,-1.875 -1.308296,-1.03125 -2.953812,-1.875 -3.65625,-1.875 -0.702437,0 -1.277257,-0.94923 -1.277344,-2.10938 -1.62e-4,-2.15862 6.487957,-29.89354 7.171876,-30.6582 0.208065,-0.23262 5.730638,4.92843 12.273432,11.4668 9.59973,9.59321 12.76832,12.18384 16.41407,13.42578 3.51345,1.19688 4.76134,1.28841 5.61328,0.41211 0.84361,-0.86773 -0.10672,-2.24084 -4.13086,-5.97266 -2.87404,-2.66528 -8.32047,-8.43164 -12.10352,-12.81445 -3.78305,-4.38281 -8.88878,-10.07813 -11.345699,-12.65625 l -4.466797,-4.6875 2.279297,-10.08789 c 2.15739,-9.5515 2.270129,-15.03844 0.335937,-16.23633 -0.448091,-0.27751 -0.814453,-0.84795 -0.814453,-1.26758 0,-0.89591 8.693135,-11.58734 12.404295,-15.25586 2.72964,-2.69825 3.26299,-4.89103 1.46289,-6.00586 -0.67291,-0.41676 -3.12846,1.47953 -6.31445,4.87305 -4.969195,5.29288 -5.291148,5.47452 -6.851563,3.90625 -1.792272,-1.80129 -6.780598,-2.22756 -7.746094,-0.66211 -0.415117,0.67307 -1.018395,0.64138 -1.914062,-0.10351 -1.743746,-1.45019 -3.981753,-0.48314 -4.962891,2.14453 -1.800801,4.82287 -2.076401,6.35156 -1.146484,6.35156 0.528572,0 1.455629,-1.65448 2.060546,-3.67773 0.910174,-3.04421 1.359398,-3.51663 2.609376,-2.73438 1.328718,0.83153 1.803589,3.03328 1.935546,8.99023 0.01999,0.90235 -0.311318,6.07032 -0.736328,11.48438 -0.569434,7.25383 -1.30672,10.81992 -2.802734,13.55664 -1.702174,3.11386 -2.031097,5.23427 -2.03125,13.125 -1.01e-4,5.17613 -0.869192,14.68555 -1.931641,21.13086 -1.062448,6.44531 -1.723712,13.07181 -1.46875,14.72656 l 0.464844,3.00977 -7.185547,0.31836 c -3.952027,0.1751 73.435752,0.32308 171.972652,0.33008 98.5369,0.006 176.73532,-0.14204 173.77539,-0.32813 -3.98658,-0.25063 -5.97695,-0.89118 -7.67773,-2.4707 -2.14971,-1.99644 -2.25938,-2.5608 -1.73242,-8.85938 l 0.5625,-6.72656 3.46094,0 c 4.69689,0 6.99493,-2.56656 6.27539,-7.00977 -0.37655,-2.32528 -0.18382,-3.30273 0.65234,-3.30273 1.39255,0 3.48115,6.12812 2.74414,8.05273 -0.57458,1.50044 2.05887,1.86057 2.95703,0.4043 0.71656,-1.16185 -1.41994,-8.45703 -2.47656,-8.45703 -0.4331,0 -0.78711,-0.66056 -0.78711,-1.46875 0,-1.04803 -0.54168,-1.29817 -1.89062,-0.86914 -1.04023,0.33084 -3.0902,0.0715 -4.55469,-0.57813 -2.53568,-1.12475 -2.71538,-1.62052 -3.77539,-10.38476 -0.6122,-5.06181 -0.82729,-9.66961 -0.47656,-10.23828 1.03377,-1.67616 0.6261,-52.74544 -0.44141,-55.28516 -0.52489,-1.24876 -1.59548,-3.88817 -2.37891,-5.86719 -2.4778,-6.25913 -3.72649,-3.91165 -4.44531,8.36133 -0.35996,6.14593 -1.35825,19.40039 -2.2207,29.45508 -1.97727,23.0512 -2.24996,41.63043 -0.63282,43.25977 0.64319,0.64804 1.16993,2.17664 1.16993,3.39648 0,1.21984 0.46375,3.08585 1.03125,4.14844 0.69929,1.30937 0.81755,5.5204 0.36523,13.06445 l -0.66797,11.13086 -16.69336,0 c -16.63904,0 -16.7026,-0.008 -19.07617,-2.38672 -2.67332,-2.6789 -2.90612,-4.99363 -1.30664,-12.97461 0.7514,-3.74931 1.37054,-5.06448 2.05859,-4.375 0.5411,0.54224 1.70621,0.98633 2.58985,0.98633 1.04608,0 2.17804,1.49536 3.24218,4.28711 2.21456,5.81079 4.75487,8.83789 7.41993,8.83789 3.29635,0 3.73247,-1.69157 1.07226,-4.16211 -3.02596,-2.81021 -4.83748,-9.12853 -3.39258,-11.83398 0.57027,-1.06779 0.91307,-3.3822 0.76172,-5.14258 -0.31528,-3.6671 1.39268,-4.52196 1.8418,-0.92188 0.40692,3.26172 2.04297,3.0022 2.04297,-0.32422 0,-3.37012 -2.31817,-5.53904 -4.51953,-4.22851 -3.04461,1.81253 -4.83594,0.51167 -4.83594,-3.50977 0,-2.05418 -0.46544,-5.59013 -1.03516,-7.85742 -0.88341,-3.51565 -0.74871,-4.9764 0.92188,-9.93359 1.93978,-5.75596 1.9463,-6.04226 0.54297,-29.33985 -0.77942,-12.93986 -1.81805,-25.02155 -2.30664,-26.84765 -0.48857,-1.8261 -2.19363,-4.56829 -3.78907,-6.09375 l -2.90039,-2.77344 z m -38.97461,1.36328 c -1.9894,0.0247 -4.05423,1.34222 -5.33203,3.81836 -0.74107,1.43606 -1.77632,7.60792 -2.30078,13.71484 -0.52447,6.10693 -1.14321,12.79102 -1.375,14.85352 -0.33094,2.94474 -0.24743,3.24671 0.38672,1.40625 0.44416,-1.28906 1.2606,-7.95562 1.81445,-14.81445 1.21862,-15.09137 2.37922,-17.95028 7.30274,-17.98438 3.68176,-0.0255 4.17256,2.69563 3.68164,20.4375 l -0.45899,16.58008 0.94532,-16.67578 c 0.83995,-14.80296 0.77781,-16.93454 -0.5625,-18.98438 -1.05134,-1.60788 -2.55425,-2.37073 -4.10157,-2.35156 z m 39.10157,0.10742 c 0.48262,0.052 1.09399,0.61968 2.29882,1.75391 1.3365,1.25819 2.83086,3.78944 3.32227,5.625 0.49141,1.83557 1.53113,13.92537 2.31055,26.86523 1.40333,23.29759 1.39876,23.58389 -0.54102,29.33985 -1.67059,4.95719 -1.80724,6.41794 -0.92383,9.93359 1.5301,6.08926 1.33531,11.41564 -0.44336,12.09961 C 371.92631,254.74462 371.185,255 371.0918,255 c -0.0932,0 -0.58582,-0.94922 -1.09375,-2.10938 -0.65473,-1.49544 -1.74069,-2.12119 -3.73047,-2.15039 -2.65171,-0.039 -2.80227,-0.24601 -2.73047,-3.75 0.0418,-2.0398 0.41803,-7.18809 0.83594,-11.43945 0.61711,-6.27789 0.96735,-7.44462 1.86328,-6.2168 1.00935,1.38325 1.37651,1.36659 4.31055,-0.19726 1.76364,-0.94002 3.42007,-1.6563 3.68164,-1.5918 0.45815,0.11295 0.0633,-7.37324 -1.81446,-34.41992 l -0.8789,-12.65625 0.41796,12.65625 c 0.23005,6.96094 0.68427,17.36134 1.00782,23.11133 l 0.58789,10.45312 -3.08008,1.59766 c -2.9152,1.51067 -3.13155,1.50777 -4.00195,-0.0508 -0.50588,-0.90584 -1.02882,-10.3603 -1.16211,-21.00977 -0.13327,-10.64947 -0.52808,-22.92538 -0.87891,-27.27929 -0.50831,-6.30826 -0.35501,-8.29687 0.75977,-9.79102 0.69361,-0.92965 1.04862,-1.3938 1.53125,-1.3418 z m -135.60352,0.87305 c -3.31971,0 -4.07481,3.48186 -3.33203,15.39453 0.37225,5.9701 0.8892,10.85547 1.14648,10.85547 0.25727,0 0.16803,-4.79392 -0.19726,-10.65234 -0.72869,-11.6866 -0.26143,-14.66016 2.30469,-14.66016 2.8461,0 7.38058,14.10038 7.51172,23.35938 0.0103,0.73049 0.25703,1.08927 0.54882,0.79687 1.07842,-1.08067 -1.50206,-14.80903 -3.73437,-19.86719 -1.73153,-3.92345 -2.7897,-5.22656 -4.24805,-5.22656 z m -38.51562,0.9375 c 0.4456,0 1.69005,2.42578 2.76562,5.39062 1.75843,4.84721 1.9701,7.62127 2.0918,27.51954 0.1149,18.78515 -0.0949,22.57474 -1.38672,25.07812 -1.84477,3.57482 -2.72246,3.65705 -5.82617,0.54688 -2.15148,-2.15596 -2.34022,-2.89991 -1.83008,-7.26563 1.07262,-9.17956 3.375,-40.47044 3.375,-45.86914 0,-2.96997 0.36493,-5.40039 0.81055,-5.40039 z m 89.86132,0.16016 c 0.62847,-0.0211 1.01368,1.75597 1.01368,5.24023 0,5.3987 2.30238,36.68958 3.375,45.86914 0.51014,4.36572 0.3214,5.10967 -1.83008,7.26563 -3.08756,3.09399 -3.9827,3.02478 -5.77344,-0.44532 -1.21117,-2.34704 -1.47707,-6.77622 -1.50976,-25.2207 -0.0222,-12.47795 0.35687,-23.13964 0.85546,-24.10547 0.49173,-0.9525 1.40321,-3.31444 2.02539,-5.24805 0.71935,-2.23557 1.35495,-3.33908 1.84375,-3.35546 z m 124.58204,0 c 0.4888,0.0164 1.12635,1.11989 1.8457,3.35546 0.62218,1.9336 1.53367,4.29555 2.02539,5.24805 0.49859,0.96583 0.87571,11.62752 0.85351,24.10547 -0.0328,18.44448 -0.29664,22.87365 -1.50781,25.2207 -1.79074,3.4701 -2.68783,3.53931 -5.77539,0.44532 -2.15148,-2.15596 -2.33826,-2.89991 -1.82812,-7.26563 1.07262,-9.17956 3.375,-40.47044 3.375,-45.86914 0,-3.48426 0.38325,-5.2613 1.01172,-5.24023 z m -176.46094,4.94531 c -0.0485,0.0246 -0.0424,0.34375 0.0293,0.98828 0.22952,2.0625 0.74547,7.125 1.14648,11.25 0.64499,6.63474 0.75627,6.95921 0.97461,2.8125 0.13575,-2.57813 -0.38022,-7.64063 -1.14649,-11.25 -0.52681,-2.48145 -0.8973,-3.85479 -1.0039,-3.80078 z m 96.55469,8.34961 c -0.19694,0.10876 -0.63562,2.2832 -1.13282,5.76367 -0.66294,4.64062 -1.18837,9.91406 -1.16797,11.71875 0.0204,1.80469 0.57926,-0.51563 1.24219,-5.15625 0.66293,-4.64063 1.18837,-9.91406 1.16797,-11.71875 -0.005,-0.45117 -0.0437,-0.64368 -0.10937,-0.60742 z m -216.41993,6.23242 c 1.43413,0 0.44619,3.05979 -1.60351,4.9668 -4.75871,4.42741 -13.527947,16.0446 -14.037111,18.5957 -0.563913,2.82545 -1.81741,3.27578 -4.601563,1.65234 -1.126681,-0.65697 -1.484145,-1.59069 -1.08789,-2.84179 0.586293,-1.85109 20.151584,-22.37305 21.330074,-22.37305 z m 14.46485,4.04297 c 1.79569,0.0898 6.62034,2.92439 6.99023,4.3418 0.22174,0.8497 4.78106,7.85106 10.13086,15.55859 8.90297,12.82663 12.87483,20.86012 11.45508,23.16211 -0.55407,0.89802 -3.28981,0.89251 -4.59961,-0.01 -0.54992,-0.37882 -5.08911,-8.2832 -10.08594,-17.56445 -4.99684,-9.28125 -10.4077,-18.66573 -12.02539,-20.85352 -1.6177,-2.18781 -2.71065,-4.20866 -2.42773,-4.49218 0.11109,-0.11132 0.30597,-0.15541 0.5625,-0.14258 z m -29.869143,8.26562 c 0.256816,-0.0157 0.511551,-0.001 0.761719,0.0469 1.356128,0.26171 1.100457,0.73056 -1.357422,2.48437 -2.271659,1.62094 -3.03125,1.8226 -3.03125,0.80664 0,-1.65151 1.82924,-3.22804 3.626953,-3.33789 z m 229.400393,5.7461 c -0.0427,0.0228 -0.0895,0.0967 -0.14063,0.22656 -0.40571,1.03125 -0.73547,4.82812 -0.73047,8.4375 0.0103,8.30995 0.52827,6.9331 1.0586,-2.8125 0.1979,-3.63681 0.11137,-6.01085 -0.1875,-5.85156 z m -227.322268,3.98633 c 0.04676,0.0141 0.08705,0.049 0.11914,0.10546 1.570425,2.76457 1.405134,6.86437 -0.638671,15.92579 l -2.285157,10.13671 4.886719,5.19336 c 2.687897,2.85574 8.546497,9.41016 13.019527,14.56641 4.47303,5.15625 9.62125,10.55224 11.43946,11.99219 1.81822,1.43995 3.30469,3.02197 3.30469,3.51562 -1e-5,1.19775 -1.58063,1.0421 -6.08008,-0.59961 -2.59211,-0.94577 -7.42449,-5.03086 -15.72266,-13.29297 l -11.980468,-11.92773 0.589844,-4.06836 c 0.454107,-3.13478 0.217711,-4.47857 -1.029297,-5.85937 -2.16807,-2.40068 -5.567752,-2.26468 -7.355469,0.29296 -2.392456,3.42282 -1.775044,-0.26624 0.882812,-5.27539 1.851487,-3.48942 2.337891,-5.77132 2.337891,-10.95312 0,-6.18121 0.101761,-6.4926 1.810547,-5.57617 2.862884,1.53535 3.808065,1.173 5.123047,-1.96094 0.591861,-1.41056 1.250772,-2.31387 1.578125,-2.21484 z m 136.595708,10.39453 2.05664,2.44336 c 1.13107,1.34434 3.0072,2.9219 4.16796,3.50586 2.0189,1.01567 2.047,1.18427 0.6504,3.89062 -1.32215,2.56105 -1.32251,3.30518 -0.006,7.84375 1.87266,6.45514 1.81115,7.11355 -0.4004,4.25586 -1.72597,-2.23021 -1.94142,-2.27504 -4.41796,-0.90625 -3.74245,2.06846 -3.75414,4.3405 -0.043,8.27539 1.76973,1.87643 4.15955,4.99415 5.31054,6.92774 l 2.09375,3.51562 -3.16406,0 c -1.73999,0 -3.66768,-0.50625 -4.28515,-1.125 -1.46714,-1.47022 -1.43964,-5.67906 0.0469,-7.17969 0.9371,-0.946 0.87394,-1.06823 -0.31445,-0.61523 -2.45057,0.93411 -5.60016,-2.44113 -6.15625,-6.5957 -0.51695,-3.86218 1.48147,-16.49748 3.39648,-21.47071 l 1.06446,-2.76562 z m 90.06054,2.38672 c 1.16203,0.0782 2.25178,0.84634 3.73828,2.33593 2.89219,2.89822 2.86688,2.717 1.0625,7.8418 -0.77183,2.19216 -1.40234,6.80077 -1.40234,10.24219 0,3.61665 -0.47414,6.73255 -1.12305,7.38281 -1.96785,1.97196 -7.68887,1.35739 -9.96484,-1.07031 -2.00951,-2.14349 -2.02453,-2.33646 -0.64453,-8.20313 0.77728,-3.30441 1.42073,-7.98237 1.42773,-10.39648 0.0119,-3.76696 0.39853,-4.66418 2.73047,-6.32813 1.77948,-1.26973 3.01376,-1.88291 4.17578,-1.80468 z m -125.91211,2.18164 c 0.27232,0.12009 4.3e-4,1.62471 -0.74414,4.71484 -0.60303,2.50271 -0.55248,6.74227 0.15039,12.74609 1.13306,9.67846 0.41028,13.75647 -1.80664,10.19922 -1.24635,-1.99988 -4.38023,-2.48295 -5.39844,-0.83203 -2.16451,3.50955 -3.7192,-6.16224 -2.78906,-17.35156 l 0.66992,-8.04688 2.38086,1.87696 c 3.17474,2.50246 3.71126,2.39588 5.88086,-1.16993 0.90398,-1.48572 1.44445,-2.23012 1.65625,-2.13671 z m 214.24024,0 c 0.27232,0.12009 4.3e-4,1.62471 -0.74414,4.71484 -0.60303,2.50271 -0.55248,6.74227 0.15039,12.74609 1.13306,9.67846 0.41029,13.75647 -1.80664,10.19922 -1.24635,-1.99988 -4.37829,-2.48295 -5.39649,-0.83203 -2.16451,3.50955 -3.71919,-6.16224 -2.78906,-17.35156 l 0.66797,-8.04688 2.38086,1.87696 c 3.17474,2.50246 3.71126,2.39588 5.88086,-1.16993 0.90398,-1.48572 1.44444,-2.23012 1.65625,-2.13671 z m -135.2461,0.002 c 0.20624,-0.11703 0.74483,0.63681 1.65625,2.13476 2.1696,3.56582 2.70612,3.67238 5.88086,1.16993 l 2.38086,-1.87696 0.66992,8.04688 c 0.93014,11.18932 -0.62455,20.86111 -2.78906,17.35156 -0.34573,-0.56055 -1.42106,-1.01953 -2.39062,-1.01953 -0.96957,0 -2.39533,0.90439 -3.16797,2.00977 l -1.40625,2.00976 -0.61133,-2.44336 c -0.33654,-1.34372 -0.139,-6.0074 0.43945,-10.36328 0.72338,-5.44715 0.75923,-9.18982 0.11524,-11.98828 -0.75751,-3.29176 -1.0425,-4.88078 -0.77735,-5.03125 z m -123.39062,3.625 c 0.19757,-0.19798 1.69804,2.70707 3.33398,6.45703 2.17534,4.98637 4.2494,7.97437 7.71875,11.12305 4.63533,4.20689 4.67991,4.29626 1.92188,3.89062 -2.19237,-0.32244 -3.0668,0.0405 -3.91406,1.62696 -0.59995,1.12333 -0.86083,2.6438 -0.58008,3.37695 2.16418,5.6515 -7.49035,-6.29712 -11.03125,-13.65235 -1.33839,-2.78012 -2.4336,-5.12699 -2.4336,-5.21679 0,-0.0898 0.97307,0.0222 2.16211,0.25 3.10529,0.59485 4.68143,-1.65019 3.44532,-4.90821 -0.54002,-1.42329 -0.82062,-2.74927 -0.62305,-2.94726 z m -64.400392,6.24414 c 3.010529,0 4.459371,2.86498 3.68164,7.2793 -0.339392,1.92637 -2.251941,10.21979 -4.25,18.43164 -1.99806,8.21183 -3.632812,15.90625 -3.632812,17.09765 0,1.58949 0.87269,2.53111 3.27539,3.53711 1.800936,0.75405 3.273438,1.60456 3.273438,1.88868 0,0.28413 -2.306715,0.51562 -5.126953,0.51562 -4.718225,0 -5.176705,-0.19136 -5.728516,-2.39453 -0.329835,-1.31691 0.294857,-8.00875 1.386719,-14.87109 1.091861,-6.86237 1.984375,-15.50913 1.984375,-19.21485 0,-8.10811 1.74227,-12.26953 5.136719,-12.26953 z m 59.162112,4.66602 c 0.44272,-0.079 1.68157,1.65398 2.98242,4.23828 l 2.70312,5.36914 -2.25195,6.63086 c -1.47381,4.34219 -4.05538,8.99219 -7.47852,13.4707 -4.90747,6.4205 -5.18818,7.07001 -4.59179,10.60742 0.51327,3.04427 0.35803,3.76758 -0.80664,3.76758 -1.25705,0 -3.37743,-4.96154 -3.39453,-7.94141 -0.003,-0.50032 2.04659,-4.2972 4.55468,-8.4375 3.9529,-6.52534 4.77174,-8.77581 6.14454,-16.90234 0.87103,-5.15625 1.77062,-9.95029 2,-10.6543 0.0287,-0.088 0.0754,-0.13715 0.13867,-0.14843 z m 89.33789,2.18945 c 2.07827,-0.0633 3.49418,2.97536 8.19531,14.95312 4.85462,12.3688 5.49104,15.45809 3.57422,17.37891 -1.93431,1.93834 -2.48254,1.25525 -2.32227,-2.89453 0.19355,-5.01133 -4.60009,-15.22312 -9.80078,-20.87695 -4.19023,-4.55534 -4.50451,-6.60335 -1.24023,-8.09375 0.59848,-0.27326 1.11415,-0.4522 1.59375,-0.4668 z m 128.90039,7.67578 c 1.94778,0 2.38744,0.5026 2.6289,3.00391 0.15946,1.65196 -0.16019,3.84354 -0.70898,4.87109 -1.24083,2.32334 -3.7908,15.45046 -3.79102,19.51367 -1.1e-4,2.05451 0.59561,3.33353 1.8711,4.01758 1.02911,0.55191 1.87109,1.41072 1.87109,1.9082 0,0.49749 -1.47446,0.9043 -3.27539,0.9043 -3.27043,0 -3.27344,-0.005 -3.27344,-4.3418 0,-2.38769 0.5831,-8.3994 1.29688,-13.35937 0.71377,-4.95996 1.24042,-10.70508 1.16992,-12.76758 -0.11668,-3.40929 0.0846,-3.75 2.21094,-3.75 z m -211.7793,0.14844 3.13477,3.91015 c 1.72454,2.15042 3.66927,3.91016 4.32031,3.91016 1.50468,0 1.8005,0.9871 4.43945,14.82422 l 2.17774,11.42578 -13.79883,0 -13.79688,0 -0.63671,-3.76758 c -0.59651,-3.53806 -0.31531,-4.18771 4.60351,-10.62304 3.39077,-4.43618 6.00112,-9.11465 7.39844,-13.26563 l 2.1582,-6.41406 z m 160.37891,0.19726 c 0.19604,0.004 0.39079,0.10564 0.59961,0.2793 1.59372,1.32543 1.1118,3.77918 -2.20899,11.23437 -2.24182,5.03288 -2.29867,5.57014 -1.13867,10.78126 0.67147,3.01642 1.23696,5.87108 1.25586,6.34374 0.0189,0.47265 -0.42008,1.01009 -0.97461,1.19532 -1.44217,0.48172 -2.92909,-3.2865 -3.68359,-9.33789 -0.56688,-4.54663 -0.25609,-6.26898 2.38281,-13.27539 2.05406,-5.45363 2.91806,-7.23987 3.76758,-7.22071 z m -84.28516,0.83594 c 0.30501,0.021 0.69836,0.26223 1.26563,0.67969 1.98899,1.46368 2.53454,10.58259 1.29687,21.64258 -0.72784,6.50406 -0.69575,6.64704 1.63867,7.71289 1.3084,0.59739 2.37891,1.51824 2.37891,2.04492 0,1.46838 -6.27252,1.15694 -6.8457,-0.33985 -0.9159,-2.39299 -1.68899,-27.26777 -0.92578,-29.80468 0.41907,-1.39299 0.68305,-1.97051 1.1914,-1.93555 z m -65.29297,0.37109 c 0.17929,-0.001 0.36656,0.01 0.5625,0.0332 3.00929,0.35651 3.46269,1.96596 4.79102,17.03711 0.96377,10.93495 1.86119,13.7207 4.41992,13.7207 0.70883,0 1.28711,0.42187 1.28711,0.9375 0,1.36811 -6.5337,1.14959 -7.00781,-0.23438 -0.2208,-0.64453 -1.29111,-5.99968 -2.37891,-11.90039 -1.08779,-5.90072 -2.60134,-11.93354 -3.36133,-13.40625 -1.79509,-3.47858 -1.00178,-6.17068 1.6875,-6.1875 z m 160.77149,0.43946 c 0.3957,-0.009 0.96911,0.51501 1.60156,1.72461 1.40314,2.68355 2.9855,15.79955 3.0293,25.11133 l 0.0254,5.39062 -3.50977,-0.0215 -3.50781,-0.0195 2.0918,-1.62109 c 2.02542,-1.56803 2.06332,-1.88449 1.14843,-9.92969 -0.51979,-4.57086 -0.69623,-9.63775 -0.39258,-11.25976 0.30366,-1.62199 0.0992,-4.13984 -0.45312,-5.59571 -0.86093,-2.26913 -0.6927,-3.7644 -0.0332,-3.77929 z m -133.51758,0.48242 c 2.78915,-0.0323 3.56029,2.99416 2.58203,9.91211 -0.49493,3.49998 -1.16181,9.17316 -1.48242,12.60742 -0.53732,5.75557 -0.43155,6.29165 1.35351,6.85938 1.06513,0.33876 1.93555,1.00935 1.93555,1.49023 0,0.48087 -1.48499,0.87499 -3.30078,0.875 l -3.30078,0 0.13672,-11.95312 c 0.0752,-6.57421 -0.018,-13.64063 -0.20703,-15.70313 -0.29953,-3.26831 -0.0822,-3.78718 1.69726,-4.04102 0.20396,-0.0291 0.4,-0.0447 0.58594,-0.0469 z m 89.23828,0 c 0.18579,0.002 0.38022,0.0178 0.58398,0.0469 1.77941,0.25384 1.9968,0.77271 1.69727,4.04102 -0.18896,2.0625 -0.28223,9.12892 -0.20703,15.70313 l 0.13672,11.95312 -3.30078,0 c -3.73404,0 -4.19351,-0.8658 -1.38868,-2.62109 2.06639,-1.29318 2.05321,-3.79062 -0.11132,-19.21094 -0.971,-6.91747 -0.19698,-9.94404 2.58984,-9.91211 z m 125.00195,0 c 2.78915,-0.0323 3.5603,2.99416 2.58203,9.91211 -0.49492,3.49998 -1.16181,9.17315 -1.48242,12.60742 -0.53732,5.75556 -0.43155,6.29165 1.35352,6.85938 1.06512,0.33877 1.9375,1.00935 1.9375,1.49023 0,0.48087 -1.48499,0.87501 -3.30078,0.875 l -3.30274,0 0.13672,-11.95312 c 0.0753,-6.57422 -0.018,-13.64063 -0.20703,-15.70313 -0.29953,-3.26831 -0.0802,-3.78717 1.69922,-4.04102 0.20395,-0.0291 0.39804,-0.0447 0.58398,-0.0469 z M 171.51172,255 c 1.74776,0 4.37109,3.50202 4.37109,5.83398 0,1.15249 -0.72031,1.66602 -2.33789,1.66602 -1.59893,0 -2.34356,-0.51903 -2.35156,-1.64062 -0.007,-0.90234 -0.26786,-2.58984 -0.57813,-3.75 C 170.2067,255.58178 170.45483,255 171.51172,255 Z m 199.35156,3.75 c 0.93562,0 4.29297,5.52273 4.29297,7.0625 0,0.90219 -5.2815,0.3944 -6.27734,-0.60352 -1.29292,-1.29561 0.29322,-6.45898 1.98437,-6.45898 z m -173.1289,0.46289 c 0.25354,0.0217 0.58305,0.401 1.15039,1.15039 0.69461,0.9175 1.27656,2.82814 1.29296,4.2461 0.0226,1.96305 -0.41708,2.57812 -1.84179,2.57812 -1.44365,0 -1.8711,-0.62551 -1.8711,-2.73633 0,-1.50471 0.26194,-3.41532 0.58008,-4.24609 0.25984,-0.67855 0.43591,-1.0139 0.68946,-0.99219 z m 79.79101,0 c 0.25354,-0.0217 0.42961,0.31364 0.68945,0.99219 0.31814,0.83077 0.58008,2.74138 0.58008,4.24609 0,2.11082 -0.42744,2.73633 -1.87109,2.73633 -1.42471,0 -1.8644,-0.61507 -1.8418,-2.57812 0.0164,-1.41796 0.59836,-3.3286 1.29297,-4.2461 0.56734,-0.74939 0.89685,-1.12868 1.15039,-1.15039 z m 134.44922,0 c 0.25354,0.0217 0.585,0.401 1.15234,1.15039 0.69461,0.9175 1.27657,2.82814 1.29297,4.2461 0.0226,1.96305 -0.41708,2.57812 -1.8418,2.57812 -1.44364,0 -1.87109,-0.62551 -1.87109,-2.73633 0,-1.50471 0.26,-3.41532 0.57813,-4.24609 0.25984,-0.67855 0.43591,-1.0139 0.68945,-0.99219 z m -95.52539,4.32422 c 0.17152,-0.005 0.45404,0.21289 0.89062,0.65039 0.61747,0.61875 1.88044,1.125 2.80664,1.125 0.92619,0 1.6836,0.42187 1.6836,0.9375 0,1.11277 -0.68881,1.10695 -3.50977,-0.0293 -1.15774,-0.46633 -2.10351,-1.36853 -2.10351,-2.0039 0,-0.44924 0.0609,-0.67508 0.23242,-0.67969 z m 58.97266,3.73828 c 0.23476,0.0126 0.49165,0.0408 0.76171,0.082 1.33897,0.20424 2.37089,1.49232 3.24024,4.04883 0.70136,2.0625 2.1332,4.45055 3.18164,5.30664 1.04843,0.85609 1.90625,1.80531 1.90625,2.10938 0,1.07077 -4.46114,0.53792 -5.44531,-0.65039 -0.95439,-1.15238 -4.84571,-9.71141 -4.84571,-10.65821 0,-0.18821 0.49687,-0.27621 1.20118,-0.23828 z"
       id="path4040"
       inkscape:connector-curvature="0" />
  </g>
</svg>
