<?xml version="1.0" encoding="UTF-8" standalone="no"?>
<!-- Created with Inkscape (http://www.inkscape.org/) -->

<svg
   xmlns:dc="http://purl.org/dc/elements/1.1/"
   xmlns:cc="http://creativecommons.org/ns#"
   xmlns:rdf="http://www.w3.org/1999/02/22-rdf-syntax-ns#"
   xmlns:svg="http://www.w3.org/2000/svg"
   xmlns="http://www.w3.org/2000/svg"
   xmlns:sodipodi="http://sodipodi.sourceforge.net/DTD/sodipodi-0.dtd"
   xmlns:inkscape="http://www.inkscape.org/namespaces/inkscape"
   id="svg3420"
   version="1.1"
   inkscape:version="0.91 r13725"
   width="344.8598"
   height="212.8125"
   viewBox="0 0 344.8598 212.8125"
   sodipodi:docname="fx410203.svg">
  <metadata
     id="metadata3426">
    <rdf:RDF>
      <cc:Work
         rdf:about="">
        <dc:format>image/svg+xml</dc:format>
        <dc:type
           rdf:resource="http://purl.org/dc/dcmitype/StillImage" />
        <dc:title></dc:title>
      </cc:Work>
    </rdf:RDF>
  </metadata>
  <defs
     id="defs3424" />
  <sodipodi:namedview
     pagecolor="#ffffff"
     bordercolor="#666666"
     borderopacity="1"
     objecttolerance="10"
     gridtolerance="10"
     guidetolerance="10"
     inkscape:pageopacity="0"
     inkscape:pageshadow="2"
     inkscape:window-width="1779"
     inkscape:window-height="836"
     id="namedview3422"
     showgrid="false"
     inkscape:zoom="2.1298347"
     inkscape:cx="148.88472"
     inkscape:cy="137.58794"
     inkscape:window-x="0"
     inkscape:window-y="0"
     inkscape:window-maximized="0"
     inkscape:current-layer="svg3420" />
  <g
     id="g3368"
     transform="translate(-19.090994,39.720727)">
    <path
       id="path3362"
       d="m 273.9082,7.5 c -0.47211,0 -1.72264,2.636719 -2.77929,5.859375 -1.71215,5.221854 -1.93417,8.369499 -2.03711,28.931641 -0.0982,19.61069 0.11279,23.5141 1.40234,26.015625 1.69247,3.283093 1.80021,3.333117 4.3125,1.984375 3.63544,-1.951707 3.75311,-3.637869 1.81836,-25.875 -1.02256,-11.75283 -1.85938,-24.866873 -1.85938,-29.142578 C 274.76562,10.99773 274.38031,7.5 273.9082,7.5 Z m -33.74023,33.095703 c -0.62066,0.119139 -1.67907,0.949752 -3.13281,2.541016 -2.28698,2.503329 -4.38436,7.306066 -8.80078,20.152343 -7.1688,20.85214 -8.42973,26.07465 -6.7754,28.074219 1.44513,1.746722 1.40667,1.743402 4.02149,0.277344 1.14957,-0.644531 2.18598,-1.197336 2.30273,-1.228516 0.11675,-0.03118 2.32116,-9.101491 4.90039,-20.15625 2.57924,-11.05476 5.60484,-22.103061 6.72266,-24.550781 1.61224,-3.530384 1.79615,-5.30794 0.76172,-5.109375 z M 118.6582,57.1875 c -2.51166,0 -2.76953,0.289409 -2.76953,3.09375 0,1.701562 0.48179,3.577594 1.07227,4.169922 0.80841,0.810944 1.73176,0.736166 3.73828,-0.304688 2.89209,-1.500234 3.17867,-2.369787 1.69726,-5.146484 -0.62253,-1.166848 -1.95532,-1.8125 -3.73828,-1.8125 z m 3.67578,7.84375 c -0.96791,0.0546 -2.51849,0.455655 -3.95703,1.058594 -3.14045,1.316265 -4.29566,1.321834 -11.59961,0.04297 -5.24218,-0.917864 -8.431425,-1.099693 -9.017574,-0.511718 -1.273495,1.277482 -1.203669,1.302115 9.716794,3.490234 11.68387,2.34108 14.21449,2.504989 15.70117,1.013672 1.48702,-1.491625 1.43104,-4.439649 -0.0957,-5.027344 -0.16742,-0.06445 -0.42541,-0.08461 -0.74805,-0.06641 z m 10.82227,23.910156 -6.2793,2.824219 c -7.39957,3.330338 -17.53125,10.026095 -17.53125,11.585935 0,0.60212 2.35253,4.81827 5.22852,9.36914 5.26271,8.32752 5.82084,11.0293 2.27734,11.0293 -1.04417,0 -1.89844,0.42187 -1.89844,0.9375 0,0.51563 2.10374,0.9375 4.67383,0.9375 4.38809,0 4.67188,-0.14541 4.67188,-2.39453 0,-2.22258 -5.731,-13.15004 -8.57813,-16.35547 -1.08549,-1.22209 0.15904,-2.02729 9.50391,-6.15039 6.13878,-2.708518 10.87047,-5.358714 11.02734,-6.175782 0.15112,-0.787172 -0.48294,-2.370886 -1.41015,-3.519531 l -1.68555,-2.087891 z m 140.38867,4.939453 c -2.78394,-0.03193 -3.55787,2.994642 -2.58789,9.912111 2.16229,15.42032 2.17753,17.91776 0.11328,19.21094 -1.05141,0.65867 -1.91211,1.5166 -1.91211,1.9082 0,0.39159 1.48492,0.71289 3.29883,0.71289 l 3.29883,0 -0.13672,-11.95312 c -0.0752,-6.57423 0.0162,-13.64063 0.20508,-15.70313 0.29921,-3.268312 0.0823,-3.78717 -1.69531,-4.041016 -0.20355,-0.02907 -0.39839,-0.04475 -0.58399,-0.04687 z m -91.6289,1.072266 c -4.24034,0.01243 -4.00639,0.964751 -1.51368,7.308595 1.04388,2.65663 1.64784,5.62066 1.3418,6.58789 -0.30599,0.96724 -0.29319,2.18484 0.0273,2.70508 l -0.002,0 c 0.88651,1.4389 3.83055,1.12907 5.21875,-0.54883 1.04744,-1.26603 0.8427,-2.19742 -1.3418,-6.0957 -1.41796,-2.53037 -2.3306,-4.999238 -2.02929,-5.488285 0.77507,-1.258021 9.80318,-0.08343 12.84961,1.671875 3.14623,1.81282 4.41437,0.81222 2.15039,-1.697266 -1.02715,-1.138538 -3.48455,-2.107404 -6.30274,-2.482422 -2.54033,-0.338035 -4.20798,-0.870921 -3.70507,-1.185546 0.5029,-0.314634 -1.56527,-0.644655 -4.59571,-0.734375 -0.79482,-0.02352 -1.49189,-0.04279 -2.09765,-0.04102 z m -23.27735,0.726563 c -1.16091,0.04416 -2.39771,1.252445 -4.03515,3.414062 -1.48389,1.95891 -6.0299,7.04905 -10.10157,11.31055 -4.07167,4.26149 -7.151,8.00037 -6.84375,8.30859 0.30726,0.30821 2.36764,-0.0751 4.58008,-0.85156 4.43484,-1.55639 12.80507,-8.96092 15.00586,-13.27539 1.37474,-2.69507 1.42286,-2.55542 2.07617,6.09375 0.36808,4.87283 1.26141,9.78904 1.98828,10.9375 1.13333,1.79069 1.64229,1.94002 3.58789,1.05078 1.24674,-0.56983 2.76876,-2.25311 3.38282,-3.74024 0.99734,-2.41529 0.68087,-3.77859 -2.97657,-12.76953 -3.00599,-7.389513 -4.72921,-10.552119 -6.66406,-10.478512 z m 109.83594,3.285156 c -1.30488,-0.150686 -3.05469,2.440526 -3.05469,5.164066 0,2.30356 0.37755,2.74609 2.33789,2.74609 2.01588,0 2.33457,-0.41805 2.32227,-3.04688 -0.008,-1.67579 -0.36737,-3.60448 -0.79883,-4.287104 -0.2268,-0.35884 -0.50551,-0.541399 -0.80664,-0.576172 z m -83.42383,0.691406 c -0.9821,0.07215 -1.10506,0.56502 -0.50976,1.53125 0.73423,1.19171 3.28498,1.28272 5.01953,0.17969 0.8739,-0.55574 0.3449,-0.97149 -1.78321,-1.39844 -1.2376,-0.248295 -2.1373,-0.355787 -2.72656,-0.3125 z m 54.04492,1.83984 c -2.96409,0.31258 -9.18945,9.68905 -9.18945,14.27735 0,5.29775 4.97006,3.4196 6.18164,-2.33594 1.34415,-6.38538 1.93158,-6.26664 4.05078,0.82227 1.13721,3.80406 2.28984,7.49545 2.56055,8.20312 0.28655,0.74906 -0.11286,1.28711 -0.95508,1.28711 -0.7957,0 -1.70771,0.42187 -2.02539,0.9375 -0.34649,0.56238 0.84697,0.93625 2.98242,0.93555 l 3.56055,0 0.0977,-4.92188 c 0.0619,-3.12789 -0.12407,-4.06595 -0.50977,-2.57617 -0.46466,1.79483 -0.89955,0.69698 -1.85352,-4.6875 -1.54484,-8.71953 -2.43053,-11.13869 -4.35351,-11.87891 -0.16581,-0.0638 -0.34927,-0.0833 -0.54688,-0.0625 z m -0.54297,13.45313 c -0.16246,-0.003 -0.32429,0.0777 -0.48632,0.24023 -0.64814,0.65017 -0.57368,1.87286 0.23047,3.82032 0.65056,1.57555 1.55225,2.86523 2.0039,2.86523 1.08444,0 1.0349,-0.97799 -0.23047,-4.61914 -0.53571,-1.54152 -1.0302,-2.29843 -1.51758,-2.30664 z"
       style="fill:#ffffff"
       inkscape:connector-curvature="0" />
    <path
       style="fill:#ffff00"
       d="m 164.06027,124.755 c -0.29481,-0.47851 0.31583,-1.14122 1.35697,-1.47269 1.04114,-0.33148 2.47936,-1.74018 3.19605,-3.13044 1.32648,-2.57315 11.13375,-13.27687 12.1649,-13.27687 0.3112,0 0.32049,0.98052 0.0207,2.17894 -0.6678,2.66906 1.57053,4.81425 4.2813,4.10315 1.60816,-0.42185 1.81114,-0.18125 1.27545,1.51184 -1.21545,3.84149 -4.60074,7.45009 -8.62934,9.19856 -4.2296,1.8357 -12.74122,2.38847 -13.66598,0.88751 z m 61.27041,-9.20812 c -2.07583,-1.72073 -5.644,-15.34724 -5.6843,-21.707808 -0.0199,-3.14551 0.007,-3.167076 1.87102,-1.475274 1.44986,1.316206 2.14783,1.459514 2.99066,0.61405 1.60479,-1.609812 2.59474,-1.351165 2.59474,0.677944 0,0.979433 1.44571,3.935839 3.21271,6.569788 l 3.21271,4.78899 -2.26687,3.97709 c -1.24679,2.1874 -2.27195,4.92631 -2.27813,6.08647 -0.0136,2.53564 -1.00554,2.66295 -3.65254,0.46875 z m 43.31997,-21.157908 c -0.33619,-1.34372 -0.13847,-6.007027 0.43938,-10.362907 0.72262,-5.447161 0.75861,-9.190083 0.1153,-11.988548 -1.34528,-5.852006 -1.20322,-6.320802 0.87787,-2.896892 2.16735,3.565815 2.70349,3.672601 5.87494,1.170143 l 2.37844,-1.876731 0.6681,8.045557 c 0.92917,11.18931 -0.62388,20.86164 -2.78614,17.35209 -1.04022,-1.688377 -4.05864,-1.149943 -5.55328,0.99061 l -1.40333,2.009803 -0.61128,-2.443125 z M 135.0002,90.18755 c -1.85129,-2.227344 -2.01312,-2.254287 -4.81387,-0.801439 -2.86913,1.488319 -2.92121,1.473086 -5.19624,-1.519485 -2.11367,-2.780335 -8.16766,-14.034669 -8.16766,-15.183641 0,-0.272517 1.23115,-0.495485 2.7359,-0.495485 1.82048,0 3.36404,-0.801039 4.61319,-2.394035 2.19059,-2.793587 2.49941,-2.445811 5.20062,5.856616 0.87123,2.677857 2.33983,5.841919 3.26354,7.03125 2.26694,2.918832 4.92874,8.216783 4.57061,9.097163 -0.15973,0.392636 -1.15246,-0.323289 -2.20609,-1.590944 z"
       id="path3434"
       inkscape:connector-curvature="0" />
    <path
       id="path3432"
       d="m 273.7793,6.8886719 c -0.84233,-0.010984 -1.97858,1.9542146 -3.38282,5.9062501 -1.90401,5.358561 -2.06427,7.674394 -2.27148,32.875 -0.12259,14.910587 0.0857,27.609699 0.46094,28.21875 0.37524,0.609052 0.18188,5.248746 -0.42969,10.310547 -1.03202,8.541743 -1.28795,9.281484 -3.55859,10.289062 -1.34557,0.597102 -3.31838,0.855735 -4.38282,0.576172 -1.60524,-0.421612 -2.12302,0.121182 -3.03711,3.181641 -1.32709,4.443286 -1.34911,4.878906 -0.24218,4.878906 0.47318,0 1.13786,-1.26562 1.47656,-2.8125 0.91225,-4.166426 3.30015,-3.719452 2.61914,0.49023 -0.7188,4.44321 1.57752,7.00977 6.26953,7.00977 l 3.45703,0 0.5625,6.72656 c 0.52919,6.33198 0.42505,6.85514 -1.78125,8.90625 -2.13959,1.98911 -3.18889,2.17969 -12.03125,2.17969 -10.54409,0 -10.85957,-0.1686 -10.0664,-5.37305 0.28901,-1.89632 -0.10129,-3.8884 -1.04297,-5.33007 -0.82719,-1.2664 -1.95521,-4.32726 -2.50782,-6.80079 -0.99922,-4.47266 -3.11598,-7.80859 -4.95507,-7.80859 -0.52973,0 -1.91306,0.89597 -3.07422,1.99023 l -2.11133,1.98829 -2.91211,-4.566411 c -1.91064,-2.998351 -2.77015,-5.373615 -2.50391,-6.912109 1.55132,-8.964198 10.3544,-43.485432 12.01758,-47.126953 1.62501,-3.557967 1.80597,-4.707342 0.88282,-5.625 -0.92029,-0.914797 -1.88289,-0.378743 -4.6504,2.595703 -2.90043,3.11731 -4.46697,6.597104 -9.2832,20.625 -3.18656,9.28125 -6.51733,19.975138 -7.40234,23.763672 -1.56995,6.716365 -1.56048,7.13727 0.42187,16.874998 1.95755,9.61587 2.1833,10.11641 6.04492,13.50196 2.22488,1.9506 4.71211,3.35325 5.58594,3.15039 0.86634,-0.20113 1.7982,0.22104 2.07227,0.9375 0.33146,0.86647 -0.19503,1.31213 -1.57422,1.33203 -1.14041,0.0164 -2.89089,0.64922 -3.88867,1.40625 -1.49427,1.13375 -6.27177,1.37004 -27.10157,1.33984 -21.73867,-0.0315 -24.89193,-0.20871 -22.46484,-1.26953 1.55289,-0.67873 3.9332,-2.69666 5.29102,-4.48242 2.6103,-3.43299 4.97136,-10.50319 4.02148,-12.04492 -0.31035,-0.50373 0.45512,-0.91602 1.70117,-0.91602 1.24607,0 3.33979,-0.84713 4.65235,-1.88281 l 2.38476,-1.88281 0.63281,2.88281 c 0.34729,1.58615 1.23966,3.11958 1.98438,3.40625 2.08189,0.8014 2.60585,-0.383 0.91797,-2.07617 -1.79964,-1.80526 -1.92609,-3.40896 -0.38867,-4.95118 0.87744,-0.88018 0.21716,-2.05746 -2.99805,-5.343746 -4.01978,-4.108667 -7.57537,-5.385457 -8.91992,-3.203125 -0.39813,0.646191 -2.27336,0.78345 -5.19141,0.380859 -5.65355,-0.779991 -6.38283,0.42175 -4.12891,6.802732 l 1.57618,4.46094 -4.74805,5.11133 c -2.96994,3.1976 -5.07087,4.77733 -5.61328,4.21875 -0.4769,-0.49112 -2.19166,-4.26758 -3.80859,-8.39258 -5.27215,-13.449886 -6.95861,-14.414601 -12.70118,-7.265625 -1.9674,2.449215 -6.72179,7.727425 -10.5664,11.730465 -5.11235,5.32302 -6.71204,7.55903 -5.95508,8.31836 1.99474,2.00097 9.01716,-1.44456 15.00976,-7.36328 l 5.61133,-5.54101 0.55078,3.34179 c 0.30316,1.83813 0.55455,4.86641 0.56055,6.73047 0.006,1.9926 0.80626,4.40392 1.94141,5.85156 1.83522,2.34039 2.06403,2.39357 4.60742,1.07422 1.47173,-0.76344 2.92032,-2.16393 3.2207,-3.11328 0.55664,-1.75931 11.0823,-13.29492 12.13086,-13.29492 0.31681,0 0.33109,0.98127 0.0312,2.17969 -0.66781,2.66906 1.57048,4.81266 4.28125,4.10156 1.60816,-0.42185 1.81108,-0.17942 1.27539,1.51367 -1.20643,3.81299 -4.58925,7.4436 -8.52539,9.15235 -3.47317,1.50777 -6.85653,1.71963 -28.27148,1.76953 l -24.32617,0.0566 -0.006,-2.58985 c -0.003,-1.42449 -0.86711,-3.85546 -1.91797,-5.40234 -2.45151,-3.60867 -6.70309,-11.81635 -6.31641,-12.19336 0.16306,-0.15898 4.50239,-2.14906 9.64258,-4.42187 12.99425,-5.745608 13.96529,-8.04868 7.4375,-17.617192 -1.23632,-1.81222 -3.10227,-5.791529 -4.14844,-8.841797 -1.04618,-3.050269 -2.60427,-6.321913 -3.46094,-7.271484 -1.45445,-1.611482 -1.45313,-1.946311 0.008,-5.019531 0.86087,-1.810902 1.58678,-4.437416 1.61328,-5.837891 0.045,-2.380348 0.14303,-2.317725 1.50195,0.96875 0.79952,1.933594 1.87463,3.515625 2.38867,3.515625 0.52178,0 0.63891,-0.724703 0.26563,-1.640625 -0.36775,-0.902344 -1.04298,-2.936077 -1.5,-4.519531 -0.80938,-2.804286 -0.98687,-2.882721 -6.85547,-3.044922 -5.26862,-0.145618 -6.20907,0.09321 -7.48047,1.914062 -1.74782,2.503166 -2.00448,11.041016 -0.33203,11.041016 0.78897,0 0.82874,0.294093 0.13281,0.992188 -0.69591,0.698094 -3.44581,0.56173 -9.27539,-0.458985 -7.321185,-1.281888 -8.448163,-1.288081 -9.671874,-0.06055 -2.041392,2.047771 -0.650038,2.741983 9.283204,4.63086 l 8.87695,1.6875 2.29688,5.21875 c 1.26273,2.870136 3.68057,7.236979 5.37304,9.705078 l 3.07618,4.488281 -3.03516,1.564453 c -5.19309,2.67712 -13.87507,8.877672 -14.41797,10.296872 -0.2847,0.74423 1.84392,5.09064 4.73047,9.65821 2.88655,4.56759 5.24805,8.77648 5.24805,9.35351 0,0.57703 -0.81977,1.04883 -1.82227,1.04883 -1.00249,0 -2.17328,0.62879 -2.60156,1.39648 -0.46273,0.82944 -3.61215,1.19293 -16.572268,1.41016 l -9.490234,0.86328 84.867192,-0.13086 c 75.72182,-0.11653 130.04737,-0.33753 120.72265,-0.49023 l -16.95508,-0.27735 -0.66406,-11.11132 c -0.45084,-7.52698 -0.33305,-11.73412 0.36524,-13.04297 0.5669,-1.06259 1.02929,-2.928602 1.02929,-4.14844 0,-1.219837 0.52739,-2.749921 1.16992,-3.398438 C 280.44385,92.163303 280.01146,72.538528 277.66602,45 276.59008,32.367187 275.6036,18.65625 275.47266,14.53125 275.31147,9.4530375 274.73393,6.9011206 273.7793,6.8886719 Z M 273.9082,7.5 c 0.47211,0 0.85742,3.49773 0.85742,7.773438 10e-6,4.275706 0.83682,17.389748 1.85938,29.142578 1.93475,22.237131 1.81708,23.923293 -1.81836,25.875 -2.51229,1.348742 -2.62003,1.298718 -4.3125,-1.984375 -1.28955,-2.501525 -1.50054,-6.404935 -1.40234,-26.015625 0.10294,-20.562142 0.32496,-23.709787 2.03711,-28.931641 C 272.18556,10.136719 273.43609,7.5 273.9082,7.5 Z m -33.64648,33.113281 c 0.9633,-0.10144 0.71763,1.647118 -0.85547,5.091797 -1.11782,2.44772 -4.14342,13.496021 -6.72266,24.550781 -2.57923,11.054759 -4.78363,20.12507 -4.90039,20.15625 -0.11674,0.03118 -1.19185,0.60907 -2.38867,1.283203 -1.74849,0.984876 -2.48296,0.994396 -3.73828,0.05078 -1.32988,-0.999619 -1.32008,-0.908736 0.0664,0.609375 1.27222,1.393011 1.87468,1.534318 2.75586,0.65039 1.6321,-1.637207 2.625,-1.390626 2.625,0.650391 0,0.979433 1.44589,3.93442 3.21289,6.56836 l 3.21093,4.78906 -2.26562,3.97852 c -1.24679,2.1874 -2.2723,4.92577 -2.2793,6.08593 -0.0135,2.53571 -1.00259,2.66254 -3.6582,0.46876 -1.43493,-1.18539 -2.54299,-4.242 -3.99414,-11.01563 -1.95585,-9.129492 -1.96793,-9.578346 -0.42578,-17.140625 0.87099,-4.271108 4.25661,-15.394161 7.52343,-24.71875 4.5665,-13.034313 6.60636,-17.622861 8.82032,-19.84375 1.42332,-1.427775 2.43569,-2.15398 3.01367,-2.214844 z M 118.6582,57.1875 c 2.62202,0 4.70703,2.037472 4.70703,4.601562 0,0.536282 -1.20042,1.597167 -2.66601,2.357422 -3.32617,1.725404 -4.81055,0.532058 -4.81055,-3.865234 0,-2.804341 0.25787,-3.09375 2.76953,-3.09375 z m 3.67578,7.84375 c 0.32264,-0.0182 0.58063,0.002 0.74805,0.06641 1.5267,0.587696 1.58268,3.535719 0.0957,5.027344 -1.48668,1.491317 -4.0173,1.327408 -15.70117,-1.013672 -10.920462,-2.18812 -10.990289,-2.212753 -9.716794,-3.490234 0.586149,-0.587975 3.775394,-0.406147 9.017574,0.511718 7.30395,1.278863 8.45916,1.273293 11.59961,-0.04297 1.43854,-0.60294 2.98912,-1.003994 3.95703,-1.058594 z m 146.09375,1.974609 c 0.20602,-0.117031 0.74578,0.636805 1.65625,2.134766 2.16735,3.565815 2.70355,3.67238 5.875,1.169922 l 2.37696,-1.876953 0.66797,8.046875 c 0.92917,11.18931 -0.6229,20.861112 -2.78516,17.351562 -0.34536,-0.56055 -1.42012,-1.019531 -2.38867,-1.019531 -0.96856,0 -2.39223,0.904381 -3.16406,2.009766 l -1.4043,2.009765 -0.61133,-2.443359 c -0.33619,-1.34372 -0.1384,-6.007401 0.43945,-10.363281 0.72262,-5.447161 0.75855,-9.189817 0.11524,-11.988282 -0.75672,-3.291753 -1.04222,-4.880781 -0.77735,-5.03125 z m -142.36328,1.222657 c 0.86085,0.143016 1.61027,2.202417 3.27735,7.328125 0.85439,2.626988 2.55303,6.136828 3.77539,7.798828 6.7622,9.194284 5.70523,11.480447 -8.05664,17.439451 -9.35468,4.05065 -10.48562,4.78182 -9.36524,6.04688 2.87589,3.24724 8.60352,14.15829 8.60352,16.38867 0,2.24912 -0.28379,2.39453 -4.67188,2.39453 -2.57009,0 -4.67383,-0.42187 -4.67383,-0.9375 0,-0.51563 0.85427,-0.9375 1.89844,-0.9375 3.5435,0 2.98537,-2.70178 -2.27734,-11.0293 -2.87599,-4.55087 -5.22852,-8.76702 -5.22852,-9.36914 0,-1.55984 10.13168,-8.255597 17.53125,-11.585935 l 6.2793,-2.824219 1.64648,2.039063 c 0.90563,1.121899 1.64649,1.637364 1.64649,1.144531 0,-0.492832 -0.80387,-1.626738 -1.78516,-2.517578 -1.63478,-1.484074 -2.01818,-1.496921 -4.58008,-0.167969 -2.74025,1.421467 -2.84154,1.390297 -5.09375,-1.572265 -2.11367,-2.780335 -8.16796,-14.034622 -8.16796,-15.183594 0,-0.272517 1.23157,-0.496094 2.73632,-0.496094 1.82048,0 3.36413,-0.801535 4.61329,-2.394531 0.82011,-1.045865 1.37606,-1.650263 1.89257,-1.564453 z m 147.48047,25.652343 c 0.1856,0.0021 0.38044,0.01781 0.58399,0.04687 1.77756,0.253847 1.99452,0.772704 1.69531,4.041016 -0.18875,2.0625 -0.28018,9.12891 -0.20508,15.70313 l 0.13672,11.95312 -3.29883,0 c -3.73017,0 -4.18863,-0.8658 -1.38672,-2.62109 2.06425,-1.29318 2.04901,-3.79062 -0.11328,-19.21094 -0.96998,-6.917469 -0.19602,-9.944039 2.58789,-9.912111 z m -91.6289,1.072266 c 0.60576,-0.0018 1.30283,0.01749 2.09765,0.04102 3.03044,0.08968 5.09861,0.419741 4.59571,0.734375 -0.50292,0.314625 1.16474,0.847511 3.70507,1.185546 2.81819,0.375019 5.27559,1.343884 6.30274,2.482422 2.26398,2.509486 0.99584,3.510086 -2.15039,1.697266 -3.04643,-1.755351 -12.07454,-2.929897 -12.84961,-1.671875 -0.30131,0.489047 0.61133,2.957915 2.02929,5.488285 2.1845,3.89828 2.38924,4.82967 1.3418,6.0957 -2.46978,2.9852 -6.36422,1.38387 -5.24414,-2.15625 0.30604,-0.96723 -0.29792,-3.93126 -1.3418,-6.58789 -2.49271,-6.34382 -2.72666,-7.296162 1.51368,-7.308595 z m -23.27735,0.726563 c 1.93485,-0.07361 3.65807,3.088999 6.66406,10.478512 3.65744,8.99094 3.97391,10.35424 2.97657,12.76953 -0.61406,1.48713 -2.13608,3.17041 -3.38282,3.74024 -3.38164,1.5456 -4.78115,-1.46322 -5.57617,-11.98828 -0.65331,-8.64917 -0.70143,-8.78882 -2.07617,-6.09375 -2.20079,4.31447 -10.57102,11.719 -15.00586,13.27539 -2.21244,0.77642 -4.27282,1.15977 -4.58008,0.85156 -0.30725,-0.30822 2.77208,-4.0471 6.84375,-8.30859 4.07167,-4.2615 8.61768,-9.35164 10.10157,-11.31055 1.63744,-2.161617 2.87424,-3.369899 4.03515,-3.414062 z m 109.83594,3.285156 c 0.30113,0.03477 0.57984,0.217332 0.80664,0.576172 0.43146,0.682624 0.79183,2.611314 0.79883,4.287104 0.0123,2.62883 -0.30639,3.04688 -2.32227,3.04688 -1.96034,0 -2.33789,-0.44253 -2.33789,-2.74609 0,-2.72354 1.74981,-5.314752 3.05469,-5.164066 z m -83.42383,0.691406 c 0.58927,-0.04329 1.48897,0.06421 2.72656,0.3125 2.12811,0.42695 2.65711,0.8427 1.78321,1.39844 -1.73455,1.10303 -4.2853,1.01202 -5.01953,-0.17969 -0.5953,-0.96623 -0.47235,-1.459105 0.50976,-1.53125 z m 54.06836,1.82422 c 0.18651,-0.009 0.36124,0.0157 0.52344,0.0781 1.92298,0.74023 2.80867,3.15938 4.35351,11.87891 0.95397,5.38448 1.38886,6.48233 1.85352,4.6875 0.3857,-1.48978 0.57167,-0.55172 0.50977,2.57617 l 0,0.002 -0.0977,4.91993 -3.56055,0 c -2.13545,6.1e-4 -3.32891,-0.37317 -2.98242,-0.93555 0.31768,-0.51562 1.22969,-0.9375 2.02539,-0.9375 0.84222,0 1.24163,-0.53805 0.95508,-1.28711 -0.27071,-0.70766 -1.40555,-4.36225 -2.52149,-8.12109 -1.44309,-4.86077 -2.27097,-6.45146 -2.86523,-5.50977 -0.45953,0.72822 -0.84261,2.08377 -0.84961,3.01172 -0.0288,3.40154 -2.74504,7.20382 -5.01172,7.01563 -1.94558,-0.16152 -2.09874,-0.50708 -1.54297,-3.50391 1.10321,-5.94865 6.41334,-13.74653 9.21094,-13.875 z m -1.40039,8.54297 c 0.25763,-0.0325 0.61948,0.5817 0.85937,1.50195 0.2741,1.0517 0.31486,1.91211 0.0898,1.91211 -0.66444,0 -1.55639,-2.85219 -1.05078,-3.35938 0.0319,-0.032 0.0648,-0.05 0.10156,-0.0547 z m 0.83398,4.92578 c 0.48738,0.008 0.98187,0.7651 1.51758,2.30664 0.57788,1.66288 1.05078,3.38359 1.05078,3.82226 0,1.84938 -1.73,0.58158 -2.82421,-2.06835 -0.80416,-1.94746 -0.87861,-3.17015 -0.23047,-3.82032 0.16203,-0.16253 0.32386,-0.24296 0.48632,-0.24023 z m -4.0957,9.84961 c 0.67757,0.003 1.32276,0.0643 1.76953,0.18164 0.89354,0.23465 -0.0592,0.4186 -2.11523,0.4082 -2.05607,-0.0104 -2.78558,-0.20154 -1.62305,-0.42578 0.58127,-0.11213 1.29118,-0.16749 1.96875,-0.16406 z"
       style="fill:#000000"
       inkscape:connector-curvature="0" />
  </g>
</svg>
