<?xml version="1.0" encoding="UTF-8" standalone="no"?>
<!-- Created with Inkscape (http://www.inkscape.org/) -->

<svg
   xmlns:dc="http://purl.org/dc/elements/1.1/"
   xmlns:cc="http://creativecommons.org/ns#"
   xmlns:rdf="http://www.w3.org/1999/02/22-rdf-syntax-ns#"
   xmlns:svg="http://www.w3.org/2000/svg"
   xmlns="http://www.w3.org/2000/svg"
   xmlns:sodipodi="http://sodipodi.sourceforge.net/DTD/sodipodi-0.dtd"
   xmlns:inkscape="http://www.inkscape.org/namespaces/inkscape"
   id="svg3434"
   version="1.1"
   inkscape:version="0.91 r13725"
   width="444.38669"
   height="178.125"
   viewBox="0 0 444.38669 178.125"
   sodipodi:docname="fx420202.svg">
  <metadata
     id="metadata3440">
    <rdf:RDF>
      <cc:Work
         rdf:about="">
        <dc:format>image/svg+xml</dc:format>
        <dc:type
           rdf:resource="http://purl.org/dc/dcmitype/StillImage" />
        <dc:title></dc:title>
      </cc:Work>
    </rdf:RDF>
  </metadata>
  <defs
     id="defs3438" />
  <sodipodi:namedview
     pagecolor="#ffffff"
     bordercolor="#666666"
     borderopacity="1"
     objecttolerance="10"
     gridtolerance="10"
     guidetolerance="10"
     inkscape:pageopacity="0"
     inkscape:pageshadow="2"
     inkscape:window-width="777"
     inkscape:window-height="480"
     id="namedview3436"
     showgrid="false"
     inkscape:zoom="0.64808422"
     inkscape:cx="195.19068"
     inkscape:cy="89.0625"
     inkscape:window-x="0"
     inkscape:window-y="0"
     inkscape:window-maximized="0"
     inkscape:current-layer="svg3434" />
  <g
     id="g3444">
    <path
       style="fill:#fefefe"
       d="m 48.648648,153.75 c 0,-0.51563 0.855209,-0.9375 1.900464,-0.9375 3.547172,0 2.988914,-2.70128 -2.279255,-11.0288 -2.878983,-4.55087 -5.234514,-8.76695 -5.234514,-9.36907 0,-1.55984 10.141736,-8.25529 17.549009,-11.58563 l 6.285346,-2.82591 1.687604,2.08844 c 0.928182,1.14864 1.563829,2.73249 1.412549,3.51966 -0.157026,0.81707 -4.894134,3.46712 -11.039294,6.17564 -9.354577,4.1231 -10.600494,4.92858 -9.51388,6.15067 2.850091,3.20543 8.58748,14.13232 8.58748,16.3549 0,2.24912 -0.285106,2.3951 -4.677754,2.3951 -2.572765,0 -4.677755,-0.42188 -4.677755,-0.9375 z m 128.339832,-2.26666 c -1.66769,-2.83241 -2.46535,-3.27411 -6.87516,-3.80707 -2.74372,-0.33161 -6.46182,-0.47177 -8.26244,-0.31147 -2.68628,0.23914 -3.3169,-0.0451 -3.51368,-1.58355 -0.48517,-3.79337 1.10964,-4.75031 5.815,-3.48921 2.3506,0.63 5.873,1.14546 7.82756,1.14546 2.67139,0 4.14954,0.64012 5.95334,2.57812 2.57112,2.76241 4.49933,6.0506 4.49933,7.67275 0,2.29445 -3.66993,0.80798 -5.44395,-2.20503 z m 14.5031,1.90748 c -0.91637,-2.39298 -1.68912,-27.26807 -0.92591,-29.80499 0.67052,-2.22878 0.94395,-2.3685 2.45667,-1.25529 1.98899,1.46368 2.53598,10.58132 1.29831,21.64132 -0.72784,6.50405 -0.6972,6.64843 1.63722,7.71427 1.3084,0.5974 2.37893,1.51709 2.37893,2.04377 0,1.46838 -6.27205,1.1577 -6.84522,-0.33908 z m 39.67226,-10.65645 c 0.0752,-6.57421 -0.0179,-13.64062 -0.20686,-15.70312 -0.29953,-3.26831 -0.0814,-3.78742 1.69801,-4.04126 3.26015,-0.4651 4.20982,2.48654 3.17409,9.86517 -2.16453,15.42032 -2.17919,17.9176 -0.1128,19.21078 2.80483,1.75529 2.34625,2.62156 -1.38779,2.62156 l -3.30146,0 0.13681,-11.95312 z m 37.94765,11.24358 c -0.24069,-0.39025 -0.58129,-8.17 -0.75688,-17.28833 -0.23819,-12.36837 -0.0223,-16.87857 0.85017,-17.7592 0.94006,-0.94889 1.39882,-0.94876 2.33888,6.2e-4 0.84176,0.85013 1.16944,5.56536 1.16944,16.82813 0,15.3274 0.043,15.66599 2.10498,16.57251 1.15775,0.50899 2.10499,1.24727 2.10499,1.64063 0,0.92983 -7.23837,0.93506 -7.81158,0.006 z m 44.29807,-0.002 c 0,-0.3916 0.86115,-1.25091 1.91365,-1.90958 2.0664,-1.29318 2.05174,-3.79046 -0.1128,-19.21078 -1.03573,-7.37863 -0.0861,-10.33027 3.17409,-9.86517 1.77944,0.25384 1.99754,0.77295 1.69802,4.04126 -0.18902,2.0625 -0.28211,9.12891 -0.20686,15.70312 l 0.1368,11.95313 -3.30145,0 c -1.81579,0 -3.30145,-0.32039 -3.30145,-0.71198 z m 33.38347,-0.5847 c -0.91636,-2.39298 -1.68912,-27.26807 -0.92591,-29.80499 0.67052,-2.22878 0.94396,-2.3685 2.45668,-1.25529 1.98899,1.46368 2.53598,10.58132 1.29831,21.64132 -0.72784,6.50405 -0.6972,6.64843 1.63721,7.71427 1.30841,0.5974 2.37893,1.51709 2.37893,2.04377 0,1.46838 -6.27205,1.1577 -6.84522,-0.33908 z m 40.60781,-10.65645 c 0.0752,-6.57421 -0.0179,-13.64062 -0.20686,-15.70312 -0.29952,-3.26831 -0.0814,-3.78742 1.69802,-4.04126 3.26014,-0.4651 4.20982,2.48654 3.17409,9.86517 -2.16454,15.42032 -2.1792,17.9176 -0.1128,19.21078 2.80483,1.75529 2.34625,2.62156 -1.3878,2.62156 l -3.30145,0 0.1368,-11.95312 z m -292.347921,7.94569 c -0.727625,-1.14846 -1.622687,-6.0655 -1.991141,-10.93834 -0.653995,-8.64916 -0.701611,-8.78881 -2.077774,-6.09375 -2.203072,4.31448 -10.58175,11.71981 -15.021196,13.2762 -2.214737,0.77644 -4.278448,1.15953 -4.586022,0.85132 -0.307575,-0.30822 2.775603,-4.04707 6.851504,-8.30857 4.075903,-4.2615 8.626082,-9.35091 10.11151,-11.30982 4.371048,-5.76431 5.89527,-4.75892 10.709858,7.0643 3.661242,8.99094 3.979392,10.35372 2.981022,12.76901 -0.6147,1.48713 -2.138764,3.17009 -3.386798,3.73992 -1.94763,0.88924 -2.456458,0.74042 -3.590963,-1.05027 z m 72.878471,-1.61756 c -1.78537,-0.7688 -1.77465,-0.80873 0.23389,-0.8716 1.15774,-0.0363 2.10499,0.35597 2.10499,0.8716 0,0.51562 -0.10525,0.90785 -0.23389,0.8716 -0.12864,-0.0362 -1.07588,-0.42845 -2.10499,-0.8716 z m 118.68724,-1.65498 c -0.80581,-0.52199 -5.95335,-17.40188 -5.95335,-19.52233 0,-0.21186 0.7435,-0.38519 1.65223,-0.38519 1.29676,0 2.04668,1.65909 3.48572,7.71173 1.00841,4.24145 2.5804,8.4602 3.4933,9.375 0.91289,0.9148 1.65981,2.08514 1.65981,2.60077 0,1.08711 -2.78137,1.22818 -4.33771,0.22002 z m -78.62823,-5.17634 c 0.19355,-5.01133 -4.60083,-15.22331 -9.80151,-20.87714 -4.19024,-4.55534 -4.50399,-6.60389 -1.23971,-8.09429 3.19189,-1.45735 4.00357,-0.25633 9.78958,14.48553 4.85462,12.3688 5.48991,15.4589 3.57309,17.37972 -1.93431,1.93834 -2.48172,1.25596 -2.32145,-2.89382 z m 155.30145,0 c 0.19355,-5.01133 -4.60083,-15.22331 -9.80151,-20.87714 -4.19024,-4.55534 -4.50399,-6.60389 -1.23971,-8.09429 3.1919,-1.45735 4.00357,-0.25633 9.78959,14.48553 4.85462,12.3688 5.4899,15.4589 3.57308,17.37972 -1.93431,1.93834 -2.48172,1.25596 -2.32145,-2.89382 z M 115.69647,140.9375 c -1.3169,-1.31965 -0.41778,-3.07661 5.95391,-11.63439 7.10253,-9.53938 8.77037,-11.17811 11.37666,-11.17811 2.27257,0 2.15473,2.49852 -0.17681,3.74892 -2.35217,1.26147 -11.22861,13.82923 -11.22861,15.89811 0,2.87433 -4.05425,5.04028 -5.92515,3.16547 z m 121.01224,-8.04688 c 0.007,-1.67578 0.3677,-3.60539 0.7996,-4.28802 1.21087,-1.91381 3.86383,1.23732 3.86383,4.58937 0,2.30356 -0.3765,2.74553 -2.33888,2.74553 -2.01797,0 -2.33691,-0.41805 -2.32455,-3.04688 z m 72.95865,0.30135 c 0,-3.35205 2.65296,-6.50318 3.86382,-4.58937 0.43191,0.68263 0.79173,2.61224 0.79961,4.28802 0.0124,2.62883 -0.30658,3.04688 -2.32456,3.04688 -1.96237,0 -2.33887,-0.44197 -2.33887,-2.74553 z m 83.27835,-0.30135 c 0.007,-1.67578 0.3677,-3.60539 0.79961,-4.28802 1.21086,-1.91381 3.86382,1.23732 3.86382,4.58937 0,2.30356 -0.3765,2.74553 -2.33887,2.74553 -2.01798,0 -2.33692,-0.41805 -2.32456,-3.04688 z M 116.979,130.71029 c -0.0354,-2.90066 3.11691,-6.96029 5.40458,-6.96029 1.95669,0 1.16717,2.24392 -2.14408,6.09375 l -3.22538,3.75 -0.0351,-2.88346 z m 79.6738,-0.58529 c -1.54597,-1.54919 -1.41076,-5.90581 0.22552,-7.26663 1.32352,-1.10072 2.08298,-0.25602 6.49119,7.21975 0.92342,1.566 -5.15839,1.60845 -6.71671,0.0469 z m 155.30146,0 c -1.54597,-1.54919 -1.41077,-5.90581 0.22551,-7.26663 1.32353,-1.10072 2.08298,-0.25602 6.49119,7.21975 0.92342,1.566 -5.15838,1.60845 -6.7167,0.0469 z m -77.21413,-4.1875 c -1.20112,-1.20362 -0.62442,-5.99607 0.78684,-6.53876 2.23361,-0.8589 6.07386,2.20226 6.07386,4.84162 0,2.00676 -0.42354,2.32214 -3.1185,2.32214 -1.71518,0 -3.39918,-0.28125 -3.7422,-0.625 z m -125.08807,-5.51232 c -1.65604,-1.99957 -0.39482,-7.22065 6.78142,-28.07279 4.42102,-12.846277 6.52096,-17.649744 8.81032,-20.153073 3.87628,-4.238576 4.95242,-3.083654 2.39376,2.569034 -1.10793,2.44772 -4.13596,13.309774 -6.72893,24.137899 -3.80922,15.90711 -5.11458,19.99853 -6.79805,21.30728 -2.57747,2.00375 -2.95929,2.02188 -4.45852,0.21165 z M 41.164241,98.174475 c -10.931822,-2.188116 -11.001082,-2.212978 -9.726256,-3.490453 0.586752,-0.587981 3.779485,-0.407456 9.027108,0.510412 7.311542,1.278863 8.466563,1.274738 11.61027,-0.04153 1.920049,-0.803916 4.039504,-1.250747 4.709897,-0.992962 1.528326,0.5877 1.584761,3.535931 0.09624,5.027559 -1.488216,1.49132 -4.021243,1.32805 -15.717255,-1.013025 z m 190.629969,1.131862 c -3.44112,-2.008996 -3.55578,-3.816056 -1.63872,-25.827029 1.02363,-11.75283 1.86114,-24.867089 1.86114,-29.142796 0,-4.275706 0.38667,-7.774012 0.85928,-7.774012 0.4726,0 1.72469,2.636719 2.78244,5.859375 1.71393,5.221854 1.93575,8.369745 2.0388,28.931887 0.0983,19.61069 -0.11224,23.514104 -1.40313,26.015626 -1.64803,3.193572 -2.05059,3.366852 -4.49981,1.936949 z m 82.95127,-1.936949 c -1.29089,-2.501522 -1.50143,-6.404936 -1.40314,-26.015626 0.10305,-20.562142 0.32488,-23.710033 2.03881,-28.931887 1.05774,-3.222656 2.30984,-5.859375 2.78244,-5.859375 0.4726,0 0.85928,3.498306 0.85928,7.774012 0,4.275707 0.83751,17.389966 1.86113,29.142796 1.93676,22.237126 1.81814,23.922498 -1.82107,25.874204 -2.51491,1.348748 -2.62322,1.298958 -4.31745,-1.984124 z m 73.28574,1.936949 c -3.44113,-2.008996 -3.55579,-3.816056 -1.63872,-25.827029 1.02362,-11.75283 1.86113,-24.867089 1.86113,-29.142796 0,-4.275706 0.38668,-7.774012 0.85928,-7.774012 0.4726,0 1.7247,2.636719 2.78244,5.859375 1.71393,5.221854 1.93576,8.369745 2.03881,28.931887 0.0983,19.61069 -0.11225,23.514104 -1.40314,26.015626 -1.64803,3.193572 -2.05059,3.366852 -4.4998,1.936949 z M 200.17149,96.129956 c -3.48568,-1.90034 -4.33711,-4.470739 -5.48117,-16.547078 C 193.29711,64.876571 193.20787,65.625 196.35464,65.625 c 2.40358,0 2.80749,0.445363 3.72866,4.111304 1.07779,4.28922 3.8668,23.079661 3.8668,26.051887 0,2.021268 -0.59869,2.075418 -3.77861,0.341765 z m 155.30145,0 c -3.48568,-1.90034 -4.33711,-4.470739 -5.48117,-16.547078 -1.3932,-14.706307 -1.48244,-13.957878 1.66432,-13.957878 2.40358,0 2.80749,0.445363 3.72867,4.111304 1.07779,4.28922 3.8668,23.079661 3.8668,26.051887 0,2.021268 -0.59869,2.075418 -3.77862,0.341765 z M 191.41455,92.60249 c -0.33935,-1.689182 -0.88013,-8.239209 -1.20173,-14.555615 -0.50335,-9.885791 -0.38768,-11.484375 0.83088,-11.484375 1.09882,0 1.65453,2.105481 2.48325,9.408602 1.37041,12.076685 1.34381,14.218648 -0.21387,17.22735 l -1.28152,2.475279 -0.61701,-3.071241 z m 155.30146,0 c -0.33936,-1.689182 -0.88013,-8.239209 -1.20174,-14.555615 -0.50334,-9.885791 -0.38768,-11.484375 0.83088,-11.484375 1.09883,0 1.65453,2.105481 2.48326,9.408602 1.3704,12.076685 1.3438,14.218648 -0.21388,17.22735 l -1.28152,2.475279 -0.617,-3.071241 z M 50.658919,93.514459 c -0.591096,-0.592328 -1.07472,-2.469147 -1.07472,-4.170709 0,-2.804341 0.259472,-3.09375 2.773736,-3.09375 1.784817,0 3.119024,0.64652 3.742204,1.813368 1.482954,2.776697 1.196084,3.645531 -1.699016,5.145765 -2.008604,1.040855 -2.932946,1.116267 -3.742204,0.305326 z M 269.62578,93.5625 c -0.61747,-0.61875 -1.12266,-2.939062 -1.12266,-5.15625 l 0,-4.03125 4.20998,0 4.20997,0 0,3.69684 c 0,5.051731 -4.418,8.375948 -7.29729,5.49066 z m 9.22258,-1.153324 c -1.3997,-1.690056 -0.91549,-8.228442 0.64748,-8.742958 0.84179,-0.277108 1.16944,1.08159 1.16944,4.849407 0,5.647372 -0.13133,5.9288 -1.81692,3.893551 z M 268.50692,77.578125 c 0.004,-4.257441 1.18685,-22.551404 2.2764,-35.185714 0.533,-6.18052 4.14832,-8.895309 7.09994,-5.331421 1.69405,2.045464 3.97492,44.50151 2.39076,44.50151 -0.21519,0 -1.05719,0.256073 -1.8711,0.569052 -1.29434,0.49772 -1.49441,-0.82435 -1.59605,-10.546875 -0.0639,-6.11376 -0.41744,-14.069052 -0.78561,-17.678427 -0.36818,-3.609375 -0.45981,1.347656 -0.20365,11.015625 L 276.28336,82.5 l -3.89012,0 -3.89012,0 0.004,-4.921875 z M 189.44016,54.082177 C 188.70863,42.350139 189.17434,39.375 191.74232,39.375 c 2.19772,0 5.44876,7.864079 6.62663,16.029434 1.21728,8.438578 1.23849,8.345566 -1.90326,8.345566 -2.75477,0 -2.80771,-0.09098 -2.86433,-4.921875 -0.0317,-2.707031 -0.65598,-7.664063 -1.3872,-11.015625 -1.31084,-6.008179 -1.32042,-6.021343 -0.68218,-0.9375 1.0331,8.229147 0.85516,17.134273 -0.35052,17.541938 -0.74263,0.251097 -1.28018,-2.939284 -1.7413,-10.334761 z m 155.30145,0 C 344.01008,42.350139 344.47579,39.375 347.04378,39.375 c 2.19772,0 5.44876,7.864079 6.62663,16.029434 1.21728,8.438578 1.23849,8.345566 -1.90326,8.345566 -2.75478,0 -2.80772,-0.09098 -2.86434,-4.921875 -0.0317,-2.707031 -0.65597,-7.664063 -1.3872,-11.015625 -1.31084,-6.008179 -1.32042,-6.021343 -0.68217,-0.9375 1.0331,8.229147 0.85516,17.134273 -0.35053,17.541938 -0.74263,0.251097 -1.28018,-2.939284 -1.7413,-10.334761 z"
       id="path3454"
       inkscape:connector-curvature="0" />
    <path
       style="fill:#fefe00"
       d="m 97.806704,153.8175 c -0.29512,-0.47851 0.316151,-1.14122 1.358373,-1.47269 1.042223,-0.33148 2.481943,-1.74018 3.199383,-3.13044 1.32785,-2.57315 11.14532,-13.27687 12.17754,-13.27687 0.31153,0 0.32083,0.98052 0.0207,2.17894 -0.66849,2.66906 1.57216,4.81425 4.28575,4.10315 1.60983,-0.42185 1.81303,-0.18125 1.27678,1.51184 -1.21671,3.84149 -4.60552,7.45009 -8.63832,9.19856 -4.23399,1.8357 -12.754458,2.38847 -13.680176,0.88751 z m 56.601686,-8.92983 c -2.52928,-2.61499 -3.45952,-4.7326 -4.83902,-11.01562 -0.93928,-4.27807 -1.71781,-9.21477 -1.73006,-10.97048 -0.0218,-3.12305 0.0179,-3.15577 1.83129,-1.51124 1.53087,1.38831 2.10485,1.47195 3.29704,0.48046 1.76117,-1.46468 1.59366,-1.70211 3.64092,5.16046 0.92294,3.09375 2.66076,7.41797 3.86182,9.60938 2.06368,3.76527 2.0863,3.98437 0.41144,3.98437 -2.12514,0 -4.05986,3.24278 -3.41318,5.72084 0.60671,2.32491 0.59207,2.31792 -3.06025,-1.45817 z M 235.961,123.72601 c -1.24635,-1.99988 -4.37987,-2.48275 -5.39808,-0.83183 -2.16451,3.50955 -3.71917,-6.16277 -2.78903,-17.35209 l 0.66879,-8.045549 2.38092,1.876725 c 3.17474,2.502464 3.71144,2.395674 5.88104,-1.170141 2.06624,-3.395934 2.23632,-2.915447 0.91264,2.578125 -0.60303,2.50271 -0.55328,6.74215 0.14959,12.74597 1.13306,9.67846 0.41105,13.75604 -1.80587,10.19879 z m 76.93982,-0.27454 c -0.33655,-1.34372 -0.13862,-6.00703 0.43983,-10.36291 0.72337,-5.44715 0.7594,-9.19008 0.11542,-11.98854 -1.34668,-5.852008 -1.20447,-6.320804 0.87879,-2.896895 2.1696,3.565815 2.70629,3.672605 5.88104,1.170141 l 2.38091,-1.876725 0.6688,8.045549 c 0.93013,11.18932 -0.62453,20.86164 -2.78904,17.35209 -1.0413,-1.68838 -4.06286,-1.14994 -5.55905,0.99061 l -1.40479,2.00981 -0.61191,-2.44313 z m 79.29718,0.27454 c -1.24635,-1.99988 -4.37986,-2.48275 -5.39807,-0.83183 -2.16451,3.50955 -3.71917,-6.16277 -2.78904,-17.35209 l 0.6688,-8.045549 2.38091,1.876725 c 3.17475,2.502464 3.71144,2.395674 5.88104,-1.170141 2.06624,-3.395934 2.23632,-2.915447 0.91264,2.578125 -0.60303,2.50271 -0.55327,6.74215 0.1496,12.74597 1.13305,9.67846 0.41105,13.75604 -1.80588,10.19879 z m -199.4298,-2.56372 c -1.23495,-1.00208 -2.23228,-3.13395 -2.53935,-5.42804 -0.51694,-3.86217 1.48226,-16.496725 3.39727,-21.469956 l 1.06545,-2.766957 2.0565,2.444269 c 1.13107,1.344347 3.00622,2.922047 4.16697,3.506006 2.0189,1.015669 2.04713,1.184504 0.65053,3.890858 -1.32162,2.56105 -1.32214,3.30417 -0.006,7.84274 1.87265,6.45514 1.81059,7.11398 -0.40096,4.25629 -1.72596,-2.23021 -1.9399,-2.27407 -4.41645,-0.90528 -3.32487,1.83767 -3.77682,4.2638 -1.28865,6.91784 3.03232,3.23448 0.88063,4.6062 -2.68583,1.71223 z m 155.30145,0 c -1.23495,-1.00208 -2.23228,-3.13395 -2.53934,-5.42804 -0.51695,-3.86217 1.48226,-16.496725 3.39726,-21.469956 l 1.06546,-2.766957 2.0565,2.444269 c 1.13107,1.344347 3.00621,2.922047 4.16697,3.506006 2.0189,1.015669 2.04712,1.184504 0.65052,3.890858 -1.32162,2.56105 -1.32214,3.30417 -0.006,7.84274 1.87266,6.45514 1.81059,7.11398 -0.40096,4.25629 -1.72596,-2.23021 -1.9399,-2.27407 -4.41644,-0.90528 -3.32488,1.83767 -3.77682,4.2638 -1.28866,6.91784 3.03233,3.23448 0.88063,4.6062 -2.68583,1.71223 z M 68.716418,119.25005 c -1.853207,-2.22734 -2.015214,-2.25429 -4.818871,-0.80144 -2.872107,1.48832 -2.924254,1.47309 -5.20164,-1.51948 -2.115871,-2.78034 -8.176157,-14.03467 -8.176157,-15.18364 0,-0.27252 1.232438,-0.49549 2.738751,-0.49549 1.822369,0 3.367538,-0.80104 4.617983,-2.394037 2.192867,-2.793582 2.502011,-2.445807 5.206018,5.856617 0.872148,2.67786 2.342269,5.84192 3.266937,7.03125 2.269301,2.91883 4.933876,8.21679 4.575365,9.09716 -0.15989,0.39264 -1.153664,-0.32328 -2.208386,-1.59094 z m 202.984372,-1.24949 c -0.31915,-0.51748 -1.14102,-0.72526 -1.82637,-0.46172 -1.91907,0.73795 -2.47999,-3.76784 -1.4101,-11.32723 0.52305,-3.69561 0.68479,-8.053026 0.35945,-9.68316 -0.56404,-2.826052 -0.49992,-2.906526 1.379,-1.730681 1.70925,1.069678 2.33614,0.962325 4.7278,-0.809588 4.12368,-3.05512 4.99331,-1.285754 5.18078,10.540919 0.1423,8.97841 0.005,9.8459 -1.55863,9.8459 -0.94308,0 -2.74,1.02744 -3.99317,2.28322 -1.31438,1.31712 -2.52401,1.8851 -2.85876,1.34234 z"
       id="path3450"
       inkscape:connector-curvature="0" />
    <path
       style="fill:#fe0000"
       d="m 81.392931,119.43178 c 0,-1.74558 6.012708,-7.73409 9.502165,-9.46393 6.773539,-3.35785 10.442954,-3.60322 17.562454,-1.17435 5.75676,1.96397 6.71432,2.04737 10.69215,0.93133 2.87724,-0.80726 5.36298,-2.36014 7.27975,-4.54777 3.71866,-4.24414 6.03667,-9.567397 4.56342,-10.479819 -0.73196,-0.45331 -0.39263,-1.700377 1.10012,-4.042945 2.50148,-3.925576 3.55669,-4.326272 3.57466,-1.357421 0.007,1.160156 0.28521,3.129752 0.61816,4.376878 0.48463,1.815169 0.30974,2.153822 -0.87663,1.697616 -1.06128,-0.408094 -1.76966,0.256997 -2.49525,2.342775 -0.55729,1.601962 -2.68353,5.129536 -4.72497,7.839036 -3.31747,4.40312 -4.26529,5.05051 -8.92358,6.09517 -4.74821,1.06481 -5.73919,0.98223 -11.13957,-0.92823 -4.36683,-1.54483 -6.88087,-1.92322 -9.547548,-1.43699 -5.563984,1.01451 -11.857055,4.59571 -13.729908,7.81327 -1.497278,2.57233 -3.455423,3.89576 -3.455423,2.33538 z M 333.99168,84.662802 c 0,-0.467666 0.4135,-1.264663 0.91889,-1.771103 0.60148,-0.602736 -0.19964,-1.52442 -2.31923,-2.668278 -5.50569,-2.971184 -5.56587,-8.372684 -0.12909,-11.587143 C 336.5418,66.224272 347.44239,63.75 353.98913,63.75 c 8.08116,0 19.60572,1.886634 21.40068,3.503408 2.01589,1.815775 2.10578,4.914602 0.21274,7.333033 -1.33212,1.701845 -1.38813,1.603214 -0.86404,-1.521564 0.78739,-4.69476 -0.65328,-5.520347 -11.7403,-6.727847 -15.8861,-1.730174 -30.79981,1.676827 -32.22358,7.361398 -0.52879,2.111272 -0.24117,3.014739 1.37803,4.328622 2.65133,2.151391 5.42549,2.325403 3.69136,0.231544 -2.21017,-2.668634 -0.0644,-2.577943 3.1916,0.134895 1.78251,1.485144 3.27132,2.975398 3.30847,3.311675 0.0371,0.336278 -1.0902,1.031408 -2.50522,1.544735 -1.41502,0.513326 -3.30951,1.232545 -4.20998,1.598263 -0.90046,0.365718 -1.63721,0.282306 -1.63721,-0.18536 z m -155.30145,-0.9375 c 0,-0.467666 0.46282,-1.314089 1.02849,-1.880941 0.74763,-0.749184 0.10996,-1.363477 -2.33504,-2.249443 -5.61748,-2.035541 -5.73272,-7.700988 -0.22288,-10.95864 4.07954,-2.412006 14.98013,-4.886278 21.52687,-4.886278 8.08116,0 19.60573,1.886634 21.40069,3.503408 2.20379,1.985034 2.06602,5.441886 -0.31185,7.824717 -2.35157,2.356471 -3.68012,1.591767 -1.47556,-0.849322 1.8907,-2.09355 1.99117,-4.260245 0.26414,-5.696533 -1.91594,-1.593406 -16.99927,-3.20201 -23.98925,-2.5584 -6.80012,0.626128 -14.62967,2.716708 -17.0201,4.54456 -0.86336,0.660176 -1.82903,2.281008 -2.14593,3.60185 -0.47068,1.961858 -0.12944,2.605498 1.86392,3.515625 3.41208,1.55789 4.71582,1.432331 3.26883,-0.314811 -2.21016,-2.668634 -0.0644,-2.577943 3.19161,0.134895 1.78251,1.485144 3.27132,2.975398 3.30847,3.311675 0.0371,0.336278 -1.0902,1.031409 -2.50522,1.544735 -1.41502,0.513326 -3.30951,1.232545 -4.20998,1.598263 -0.90047,0.365718 -1.63721,0.282306 -1.63721,-0.18536 z m 82.79625,-0.438206 c -5.30701,-1.907437 -7.43697,-3.45701 -8.29424,-6.034148 -0.71571,-2.15163 -0.50735,-2.868076 1.24845,-4.292805 1.15916,-0.940578 2.84452,-1.710143 3.74527,-1.710143 1.24243,0 1.52982,-0.565703 1.19062,-2.34375 -0.24591,-1.289063 -0.17047,-2.34375 0.16763,-2.34375 1.01179,0 6.15225,4.043785 6.15225,4.839729 0,1.334698 -5.96424,3.949038 -6.3517,2.784186 -0.49133,-1.477026 -2.55572,-1.325816 -3.88973,0.284908 -1.98291,2.394243 0.41826,4.946333 6.26224,6.655852 8.949,2.617812 24.00211,0.830757 25.24412,-2.996896 0.19424,-0.598659 -0.58602,-1.965297 -1.73394,-3.036975 -1.14793,-1.071677 -1.78926,-2.246993 -1.4252,-2.611813 0.36407,-0.36482 1.74626,0.423274 3.07154,1.75132 3.0065,3.012761 2.37115,5.774479 -1.83095,7.958834 -3.6018,1.872304 -19.35651,2.604952 -23.55636,1.095451 z"
       id="path3448"
       inkscape:connector-curvature="0" />
    <path
       style="fill:#000000"
       d="m 33.657741,154.92272 c 10.729606,-0.22919 13.703424,-0.57584 14.313639,-1.66851 0.423634,-0.75857 1.59132,-1.37921 2.594858,-1.37921 1.003538,0 1.824614,-0.47212 1.824614,-1.04915 0,-0.57703 -2.364178,-4.78625 -5.253728,-9.35384 -2.88955,-4.56757 -5.02055,-8.9136 -4.735556,-9.65783 0.543467,-1.4192 9.233919,-7.619 14.432404,-10.29611 l 3.039794,-1.56544 -3.080407,-4.48746 c -1.694223,-2.4681 -4.114619,-6.83574 -5.378657,-9.70588 l -2.29825,-5.21843 -8.887748,-1.688319 c -9.943574,-1.888875 -11.335663,-2.58256 -9.292148,-4.630332 1.224981,-1.227535 2.35291,-1.220369 9.681706,0.0615 5.212029,0.911635 8.624006,1.121419 9.179857,0.564404 0.555851,-0.557007 0.50664,-1.120623 -0.132403,-1.516396 -1.525302,-0.944653 -1.224079,-8.243371 0.438369,-10.621792 1.27272,-1.820849 2.212599,-2.061351 7.486686,-1.915732 5.874713,0.1622 6.05284,0.241245 6.86306,3.04553 0.457496,1.583455 1.13301,3.61729 1.501142,4.519633 0.373671,0.915923 0.256061,1.640625 -0.266254,1.640625 -0.51457,0 -1.590414,-1.582031 -2.390763,-3.515625 -1.360331,-3.286474 -1.458322,-3.349654 -1.503388,-0.969306 -0.02651,1.400475 -0.753287,4.027967 -1.615051,5.838869 -1.462469,3.073218 -1.462978,3.407559 -0.0077,5.019047 0.857562,0.949565 2.416057,4.222164 3.463322,7.272434 1.047264,3.05027 2.916708,7.02867 4.154318,8.84088 6.534577,9.56851 5.561273,11.87114 -7.446485,17.61674 -5.14553,2.27281 -9.489064,4.26247 -9.652297,4.42145 -0.387068,0.37701 3.869952,8.58559 6.324013,12.19426 1.051946,1.54688 1.915403,3.978 1.918793,5.40249 l 0.0062,2.59 24.351051,-0.0566 c 21.437214,-0.0499 24.823634,-0.26161 28.300414,-1.76938 3.94023,-1.70875 7.32634,-5.34077 8.53402,-9.15376 0.53625,-1.69309 0.33306,-1.93369 -1.27677,-1.51184 -2.71359,0.7111 -4.95425,-1.43409 -4.28575,-4.10315 0.30015,-1.19842 0.28621,-2.17894 -0.031,-2.17894 -1.04965,0 -11.58532,11.53516 -12.14254,13.29447 -0.30069,0.94935 -1.7521,2.35073 -3.225359,3.11416 -2.546036,1.31935 -2.774329,1.26618 -4.611452,-1.07421 -1.136343,-1.44764 -1.937044,-3.85888 -1.943098,-5.85148 -0.0057,-1.86406 -0.258597,-4.89311 -0.562075,-6.73124 l -0.55178,-3.34204 -5.616682,5.54167 c -5.998821,5.91872 -13.028496,9.36315 -15.025307,7.36218 -0.757754,-0.75933 0.843717,-2.99349 5.961376,-8.31651 3.848608,-4.00304 8.608826,-9.28216 10.578264,-11.73138 5.748552,-7.14897 7.43674,-6.18425 12.714363,7.26563 1.61861,4.125 3.33353,7.90182 3.81093,8.39294 0.54301,0.55862 2.5521,-0.93315 5.36606,-3.98438 2.47395,-2.68252 5.16933,-4.87731 5.98975,-4.87731 1.18743,0 1.39431,-0.72737 1.01435,-3.56616 -0.42816,-3.19884 -0.12656,-3.87476 2.92823,-6.5625 1.87305,-1.64798 4.06687,-2.99634 4.87516,-2.99634 0.80829,0 2.72043,-1.05469 4.24921,-2.34375 3.20358,-2.70125 6.17274,-3.03376 7.03287,-0.78759 0.40076,1.04652 -0.29823,2.27283 -2.13434,3.74453 -2.71358,2.175 -3.23538,5.23566 -1.24606,7.30868 0.47007,0.48985 0.85467,1.83081 0.85467,2.97991 0,1.14912 0.68161,2.77232 1.5147,3.60715 1.68964,1.69317 1.16569,2.87788 -0.91836,2.07648 -0.7455,-0.28666 -1.6399,-1.81898 -1.98755,-3.40513 l -0.6321,-2.8839 -2.38894,1.88306 c -1.31392,1.03568 -3.10185,1.88306 -3.9732,1.88306 -1.13605,0 -1.89355,1.34275 -2.67752,4.74616 -1.29656,5.62869 -5.10444,10.98168 -9.03167,12.69639 -2.44203,1.06625 0.20726,1.23905 19.48252,1.27076 19.33672,0.0318 22.6666,-0.17507 24.99401,-1.55277 l 2.68514,-1.58945 -4.97382,-5.22538 c -4.84053,-5.08537 -5.01987,-5.47043 -6.69254,-14.36981 -1.63319,-8.68926 -1.63986,-9.48163 -0.13403,-15.91954 0.87158,-3.7263 4.19459,-14.36886 7.38447,-23.650111 4.82124,-14.027896 6.38904,-17.50769 9.29249,-20.625 2.77039,-2.974446 3.73294,-3.511477 4.65418,-2.59668 0.92414,0.917682 0.75035,2.066938 -0.85065,5.625 -1.10664,2.459404 -4.37628,14.174786 -7.26586,26.034161 l -5.25377,21.5625 1.58135,5.15625 c 2.27045,7.40316 5.94189,13.80947 8.27345,14.43639 1.10048,0.29591 3.74113,0.54377 5.8681,0.55081 3.31285,0.011 4.34883,0.54698 7.22678,3.73917 1.84775,2.04949 3.62637,4.79168 3.95248,6.09375 0.5076,2.02664 1.11953,2.36738 4.25155,2.36738 3.53016,0 3.63506,-0.0906 2.98767,-2.57813 -0.56638,-2.17638 -0.60369,-30.17275 -0.0721,-54.14062 0.0801,-3.609375 -0.12212,-12.257813 -0.44928,-19.21875 -0.57598,-12.255518 -0.5697,-12.31727 0.19853,-1.950314 0.43633,5.888264 1.07773,12.606416 1.42534,14.929227 l 0.632,4.223293 1.47501,-3.051895 c 1.30342,-2.696901 1.33741,-4.413429 0.29212,-14.757069 -0.65057,-6.437846 -0.98427,-11.904182 -0.74154,-12.147414 0.24272,-0.243231 0.95415,5.163672 1.58094,12.015341 0.62679,6.851669 1.61328,13.442791 2.1922,14.646938 1.06569,2.216649 6.01421,5.404974 6.94354,4.473718 0.65543,-0.656813 -1.41813,-17.117084 -3.13018,-24.847737 -0.73048,-3.298438 -1.14561,-6.180072 -0.92252,-6.40363 0.59666,-0.597903 3.13576,12.057839 4.38048,21.833784 1.02177,8.024974 0.96929,8.71623 -0.94743,12.481148 -1.95742,3.84486 -1.97654,4.16684 -0.54115,9.1147 0.81838,2.82098 1.21935,5.56456 0.89106,6.09685 -1.03554,1.67904 2.5199,3.59461 4.44072,2.39254 1.9283,-1.20675 3.87952,0.31177 4.93567,3.84114 0.87962,2.93942 -0.82095,2.6475 -2.19613,-0.37699 -0.82821,-1.8215 -1.40814,-2.20816 -2.16873,-1.44598 -0.76059,0.76217 -0.72026,1.4243 0.15083,2.47609 0.75382,0.91018 0.97011,2.60518 0.59091,4.6307 -0.40878,2.18353 0.002,4.72049 1.29728,8.01373 2.37139,6.02878 2.39197,8.69592 0.0833,10.78961 -2.39571,2.17261 -4.13032,0.99959 -3.46337,-2.34209 0.28945,-1.4503 -0.11497,-4.52278 -0.8987,-6.82772 -1.36923,-4.02683 -1.58748,-4.20377 -5.57757,-4.52177 -2.28392,-0.18203 -4.15603,-0.11698 -4.16025,0.14454 -0.005,0.26153 -0.43359,4.20076 -0.95415,8.75384 l -0.94647,8.27834 2.92419,2.73729 2.92419,2.73729 14.76649,0 14.76649,0 0.66743,-11.13138 c 0.45233,-7.54405 0.3349,-11.754 -0.36439,-13.06337 -0.5675,-1.06259 -1.03182,-2.93003 -1.03182,-4.14987 0,-1.21984 -0.52625,-2.74848 -1.16944,-3.39699 -1.7054,-1.71951 -1.27445,-21.34486 1.07343,-48.88339 1.07705,-12.632812 2.06551,-26.34375 2.19658,-30.46875 0.30373,-9.558988 2.08216,-10.166408 5.08099,-1.7354 1.90599,5.358561 2.06612,7.674153 2.27354,32.874759 0.12273,14.910587 -0.0842,27.608471 -0.45983,28.217521 -0.37563,0.60905 -0.18207,5.24884 0.43013,10.31065 1.03309,8.54174 1.28914,9.2813 3.56215,10.28888 1.34697,0.5971 3.32084,0.85689 4.38639,0.57732 1.6069,-0.42161 2.1255,0.12104 3.04054,3.1815 1.32847,4.44329 1.35006,4.87852 0.24198,4.87852 -0.47367,0 -1.13863,-1.26563 -1.47767,-2.8125 -0.9132,-4.16643 -3.30371,-3.71973 -2.62199,0.48996 0.71954,4.44321 -1.57816,7.01004 -6.27505,7.01004 l -3.46152,0 -0.5628,6.72713 c -0.52975,6.33198 -0.42498,6.85514 1.78361,8.90625 2.2415,2.08169 2.9822,2.17916 16.56537,2.17993 l 14.21895,8.1e-4 -0.61139,-13.36019 c -0.33627,-7.3481 -0.38288,-19.05549 -0.10359,-26.01643 0.27929,-6.96094 0.49438,-16.875 0.47797,-22.03125 -0.0217,-6.805919 0.13491,-8.116541 0.57136,-4.782677 0.74348,5.679152 2.64594,7.211974 6.12003,4.930923 1.92637,-1.26484 2.46612,-2.423349 2.59062,-5.560483 l 0.15728,-3.962763 0.38021,3.738112 c 0.20912,2.055962 0.8751,4.340771 1.47994,5.077352 0.88188,1.073942 1.21726,0.333432 1.693,-3.738112 0.32629,-2.792544 0.41514,0.01901 0.19744,6.247911 -0.2177,6.228887 -0.12203,13.041027 0.21261,15.138077 0.52599,3.29624 1.00624,3.91046 3.54475,4.53363 1.61499,0.39645 4.05576,0.62887 5.42395,0.5165 2.71153,-0.2227 3.33602,0.41184 4.53776,4.61081 0.98054,3.42606 -0.60591,3.79589 -1.87984,0.43822 -1.27459,-3.3594 -3.7422,-3.05031 -3.7422,0.46875 0,1.5625 -0.83161,3.64583 -1.87111,4.6875 -1.0291,1.03125 -1.8711,2.51316 -1.8711,3.29312 0,3.32186 3.81464,14.8345 5.26823,15.8996 1.95599,1.43324 1.08311,4.24478 -1.31785,4.24478 -3.27214,0 -4.74286,-2.37996 -7.14853,-11.56793 -1.32833,-5.0733 -2.41515,-9.34964 -2.41515,-9.50297 0,-0.15333 -1.22604,-0.45911 -2.72453,-0.67949 -2.39331,-0.35201 -2.79138,-0.0657 -3.27443,2.35453 -0.30245,1.51537 -0.5499,6.93169 -0.5499,12.03625 0,9.03713 0.0615,9.30443 2.33888,10.17211 1.28638,0.4901 2.33888,1.32341 2.33888,1.8518 0,0.62025 5.95056,0.9607 16.79171,0.9607 16.27618,0 16.86376,-0.0669 19.13814,-2.17912 2.20859,-2.05111 2.31335,-2.57427 1.78361,-8.90625 l -0.5628,-6.72713 -3.46152,0 c -4.69689,0 -6.99459,-2.56683 -6.27505,-7.01004 0.68172,-4.20969 -1.70879,-4.65639 -2.622,-0.48996 -0.33904,1.54687 -1.00399,2.8125 -1.47766,2.8125 -1.10809,0 -1.08649,-0.43523 0.24198,-4.87852 0.91503,-3.06046 1.43364,-3.60311 3.04054,-3.1815 1.06555,0.27957 3.03942,0.0198 4.38639,-0.57732 2.273,-1.00758 2.52905,-1.74714 3.56214,-10.28888 0.61221,-5.06181 0.80577,-9.7016 0.43013,-10.31065 -0.37563,-0.60905 -0.58255,-13.306934 -0.45983,-28.217521 0.20742,-25.200606 0.36756,-27.516198 2.27355,-32.874759 2.99882,-8.431008 4.77726,-7.823588 5.08098,1.7354 0.13108,4.125 1.11953,17.835937 2.19658,30.46875 2.34788,27.53853 2.77883,47.16388 1.07344,48.88339 -0.64319,0.64851 -1.16944,2.17715 -1.16944,3.39699 0,1.21984 -0.46432,3.08728 -1.03182,4.14987 -0.6993,1.30937 -0.81673,5.51932 -0.3644,13.06337 l 0.66743,11.13138 12.54438,0 12.54438,0 -0.67093,-2.57813 c -0.56639,-2.17638 -0.6037,-30.17275 -0.0721,-54.14062 0.0801,-3.609375 -0.12213,-12.257813 -0.44928,-19.21875 -0.57599,-12.255517 -0.56971,-12.31727 0.19852,-1.950314 0.43633,5.888264 1.07774,12.606416 1.42534,14.929227 l 0.632,4.223293 1.47501,-3.051895 c 1.30343,-2.696901 1.33742,-4.413429 0.29213,-14.757069 -0.65058,-6.437846 -0.98428,-11.904182 -0.74155,-12.147414 0.24272,-0.243231 0.95415,5.163672 1.58094,12.015341 0.62679,6.851669 1.61328,13.442791 2.1922,14.646938 1.0657,2.216649 6.01421,5.404974 6.94354,4.473718 0.65544,-0.656813 -1.41813,-17.117084 -3.13018,-24.847737 -0.73047,-3.298438 -1.14561,-6.180072 -0.92251,-6.40363 0.59665,-0.597903 3.13576,12.057839 4.38047,21.833784 1.02177,8.024974 0.9693,8.71623 -0.94742,12.481148 -1.95743,3.84486 -1.97655,4.16684 -0.54115,9.1147 0.81837,2.82098 1.21935,5.56456 0.89105,6.09685 -1.03554,1.67904 2.5199,3.59461 4.44073,2.39254 1.9283,-1.20675 3.87951,0.31177 4.93566,3.84115 0.87963,2.93941 -0.82094,2.6475 -2.19613,-0.377 -0.8282,-1.8215 -1.40813,-2.20816 -2.16873,-1.44598 -0.76059,0.76218 -0.72026,1.4243 0.15083,2.47609 0.75382,0.91018 0.97011,2.60519 0.59092,4.6307 -0.40878,2.18353 0.002,4.72049 1.29728,8.01373 2.37138,6.02878 2.39197,8.69592 0.0833,10.78961 -2.39571,2.17261 -4.13032,0.99959 -3.46337,-2.34209 0.28946,-1.4503 -0.11496,-4.52278 -0.8987,-6.82772 -1.36923,-4.02683 -1.58747,-4.20377 -5.57757,-4.52177 -2.28391,-0.18203 -4.15602,-0.11698 -4.16024,0.14454 -0.005,0.26153 -0.43359,4.20076 -0.95415,8.75384 l -0.94647,8.27834 2.92418,2.73729 2.92419,2.73729 15.23427,0 15.23427,0 0.66743,-11.13138 c 0.45233,-7.54405 0.3349,-11.754 -0.3644,-13.06337 -0.5675,-1.06259 -1.03182,-2.93003 -1.03182,-4.14987 0,-1.21984 -0.52625,-2.74848 -1.16944,-3.39699 -1.70539,-1.71951 -1.27444,-21.34486 1.07344,-48.88339 1.07705,-12.632812 2.0655,-26.34375 2.19658,-30.46875 0.30372,-9.558988 2.08216,-10.166408 5.08098,-1.7354 1.90599,5.358561 2.06613,7.674153 2.27355,32.874759 0.12273,14.910587 -0.0842,27.608471 -0.45983,28.217521 -0.37564,0.60905 -0.18208,5.24884 0.43013,10.31065 1.03309,8.54174 1.28914,9.2813 3.56214,10.28888 1.34697,0.5971 3.32084,0.85689 4.38639,0.57732 1.6069,-0.42161 2.12551,0.12104 3.04054,3.1815 1.32847,4.44329 1.35007,4.87852 0.24198,4.87852 -0.47367,0 -1.13862,-1.26563 -1.47766,-2.8125 -0.9132,-4.16643 -3.30372,-3.71973 -2.622,0.48996 0.71954,4.44321 -1.57816,7.01004 -6.27505,7.01004 l -3.46152,0 -0.5628,6.72713 c -0.52767,6.30714 -0.41866,6.86099 1.74588,8.87121 1.99309,1.85098 3.49025,2.18634 10.95207,2.4533 4.75386,0.17007 -79.76619,0.30385 -187.82232,0.2973 -108.05613,-0.007 -190.371166,-0.14211 -182.922299,-0.30122 z m 24.346416,-2.63032 c 0,-2.23038 -5.733972,-13.14037 -8.612848,-16.38761 -1.121551,-1.26506 0.01157,-1.9958 9.376002,-6.04645 13.77619,-5.95901 14.833619,-8.2458 8.064394,-17.44009 -1.223636,-1.662 -2.924573,-5.17117 -3.779859,-7.79816 -2.670101,-8.201131 -2.986117,-8.553096 -5.175362,-5.764127 -1.250445,1.592997 -2.795614,2.394037 -4.617983,2.394037 -1.506313,0 -2.738751,0.22297 -2.738751,0.49549 0,1.14897 6.060286,12.4033 8.176157,15.18364 2.254549,2.96256 2.356293,2.99393 5.099395,1.57246 2.564565,-1.32895 2.948508,-1.31476 4.584982,0.16931 0.98232,0.89084 1.786035,2.02293 1.786035,2.51576 0,0.49283 -0.741739,-0.0218 -1.64831,-1.14376 l -1.648311,-2.03981 -6.285346,2.82591 c -7.407273,3.33034 -17.549009,10.02579 -17.549009,11.58563 0,0.60212 2.355531,4.8182 5.234514,9.36907 5.268169,8.32752 5.826427,11.0288 2.279255,11.0288 -1.045255,0 -1.900464,0.42187 -1.900464,0.9375 0,0.51562 2.10499,0.9375 4.677755,0.9375 4.392648,0 4.677754,-0.14598 4.677754,-2.3951 z m 103.592773,1.82869 c -0.31088,-0.31152 -1.11779,-0.34482 -1.79314,-0.074 -0.74631,0.29927 -0.52464,0.52142 0.56523,0.5664 0.98622,0.0407 1.53879,-0.18087 1.22791,-0.49239 z m 14.75442,-2.24609 c -1.48689,-2.88132 -5.14553,-3.96252 -5.14553,-1.5206 0,0.71054 -0.94725,1.95404 -2.10499,2.76333 -2.02,1.41202 -1.88684,1.4734 3.29845,1.5206 l 5.40345,0.0492 -1.45138,-2.8125 z m 6.08108,1.82844 c 0,-1.71887 -2.55103,-5.97618 -4.82276,-8.04848 -1.43348,-1.30766 -3.97728,-2.1924 -7.3394,-2.55267 -2.83004,-0.30326 -6.49025,-0.8182 -8.13379,-1.1443 -2.77395,-0.5504 -3.05306,-0.36732 -3.89172,2.55267 -0.4969,1.73008 -0.94142,2.37958 -0.98783,1.44333 -0.13217,-2.66651 1.6789,-5.32899 3.62489,-5.32899 1.67486,0 1.65224,-0.2191 -0.41144,-3.98438 -1.20106,-2.1914 -2.93888,-6.51562 -3.86182,-9.60937 -2.04975,-6.87089 -1.87622,-6.62808 -3.67033,-5.136 -1.23394,1.02622 -1.73088,0.94215 -3.06315,-0.51818 -1.45889,-1.59914 -1.46019,-1.64538 -0.0156,-0.55988 1.29003,0.96941 1.9974,0.90564 3.9141,-0.35285 2.05714,-1.35069 2.9132,-3.93242 7.09287,-21.39084 2.61435,-10.920112 5.66062,-21.857429 6.76949,-24.305149 2.56063,-5.652348 1.48456,-6.80801 -2.3921,-2.569034 -2.28806,2.501913 -4.39309,7.31406 -8.81575,20.153073 -3.19548,9.2765 -6.50307,20.00124 -7.35019,23.83275 -1.44697,6.5446 -1.43926,7.50359 0.12733,15.83854 1.42213,7.56638 2.13792,9.39386 4.86342,12.41696 3.00568,3.33386 3.4576,3.51845 7.59378,3.10173 2.41885,-0.2437 6.43847,-0.16709 8.93249,0.17024 3.86981,0.52343 4.80912,1.07964 6.40737,3.79411 1.75636,2.98301 5.43019,4.46921 5.43019,2.19672 z m 15.90437,0.0264 c 0,-0.52668 -1.07053,-1.44637 -2.37893,-2.04377 -2.33442,-1.06584 -2.36506,-1.21022 -1.63722,-7.71427 1.23767,-11.06 0.69068,-20.17764 -1.29831,-21.64132 -1.51272,-1.1132 -1.78615,-0.97349 -2.45667,1.2553 -0.76321,2.53691 0.01,27.412 0.92591,29.80499 0.57317,1.49677 6.84522,1.80745 6.84522,0.33907 z m 39.29314,0.24562 c 0,-0.3916 -0.86115,-1.25091 -1.91366,-1.90958 -2.06639,-1.29318 -2.05173,-3.79046 0.1128,-19.21078 1.03573,-7.37863 0.0861,-10.33026 -3.17409,-9.86517 -1.77943,0.25385 -1.99754,0.77295 -1.69801,4.04126 0.18902,2.0625 0.2821,9.12891 0.20686,15.70313 l -0.13681,11.95312 3.30146,0 c 1.81579,2e-5 3.30145,-0.32037 3.30145,-0.71196 z m 39.29313,-0.003 c 0,-0.39335 -0.94724,-1.13163 -2.10499,-1.64062 -2.06198,-0.90653 -2.10498,-1.24511 -2.10498,-16.57252 0,-11.26276 -0.32768,-15.978 -1.16944,-16.82812 -0.94006,-0.94939 -1.39882,-0.94951 -2.33888,-6.3e-4 -0.87244,0.88063 -1.08836,5.39083 -0.85017,17.7592 0.17559,9.11834 0.51619,16.89809 0.75688,17.28834 0.57321,0.92942 7.81158,0.92419 7.81158,-0.006 z m 42.95259,-11.23831 c -0.0752,-6.57421 0.0179,-13.64062 0.20686,-15.70312 0.29952,-3.26831 0.0814,-3.78742 -1.69802,-4.04126 -3.26014,-0.4651 -4.20982,2.48654 -3.17409,9.86517 2.16454,15.42032 2.1792,17.9176 0.1128,19.21078 -2.80483,1.75529 -2.34625,2.62156 1.3878,2.62156 l 3.30145,0 -0.1368,-11.95312 z m 33.76259,10.99553 c 0,-0.52668 -1.07052,-1.44638 -2.37893,-2.04377 -2.33441,-1.06584 -2.36505,-1.21022 -1.63721,-7.71427 1.23767,-11.06 0.69068,-20.17764 -1.29831,-21.64132 -1.51272,-1.11321 -1.78616,-0.97349 -2.45668,1.25529 -0.76321,2.53692 0.01,27.41201 0.92591,29.80499 0.57317,1.49678 6.84522,1.80746 6.84522,0.33908 z m 40.22869,0.24562 c 0,-0.3916 -0.86115,-1.25091 -1.91365,-1.90958 -2.0664,-1.29318 -2.05174,-3.79046 0.1128,-19.21078 1.03573,-7.37863 0.0861,-10.33027 -3.17409,-9.86517 -1.77944,0.25384 -1.99754,0.77295 -1.69802,4.04126 0.18902,2.0625 0.28211,9.12891 0.20686,15.70312 l -0.1368,11.95313 3.30145,0 c 1.8158,0 3.30145,-0.32039 3.30145,-0.71198 z m -291.83626,-5.98511 c 0.99837,-2.41529 0.68022,-3.77807 -2.981022,-12.76901 -4.814588,-11.82323 -6.33881,-12.82861 -10.709858,-7.0643 -1.485428,1.95891 -6.035607,7.04832 -10.11151,11.30982 -4.075901,4.2615 -7.159079,8.00035 -6.851504,8.30857 0.307574,0.30821 2.371285,-0.0749 4.586022,-0.85132 4.439446,-1.55639 12.818124,-8.96172 15.021196,-13.2762 1.376163,-2.69506 1.423779,-2.55541 2.077774,6.09375 0.795844,10.52507 2.196944,13.5342 5.582104,11.9886 1.248034,-0.56982 2.772098,-2.25278 3.386798,-3.73991 z m 68.23959,1.07209 c 0,-0.51563 -0.94725,-0.90785 -2.10499,-0.8716 -2.00854,0.0629 -2.01926,0.1028 -0.23389,0.8716 1.02911,0.44315 1.97635,0.83537 2.10499,0.8716 0.12864,0.0362 0.23389,-0.35598 0.23389,-0.8716 z m 120.68607,-1.875 c 0,-0.51563 -0.74692,-1.68597 -1.65981,-2.60077 -0.9129,-0.9148 -2.48489,-5.13355 -3.4933,-9.375 -1.43904,-6.05264 -2.18896,-7.71173 -3.48572,-7.71173 -0.90873,0 -1.65223,0.17333 -1.65223,0.38519 0,2.12045 5.14754,19.00034 5.95335,19.52233 1.55634,1.00816 4.33771,0.86709 4.33771,-0.22002 z m -80.64449,-2.0625 c 1.91682,-1.92082 1.28153,-5.01092 -3.57309,-17.37972 -5.78601,-14.74186 -6.59769,-15.94288 -9.78958,-14.48553 -3.26428,1.4904 -2.95053,3.53895 1.23971,8.09429 5.20068,5.65383 9.99506,15.86581 9.80151,20.87714 -0.16027,4.14978 0.38714,4.83216 2.32145,2.89382 z m 155.30145,0 c 1.91682,-1.92082 1.28154,-5.01092 -3.57308,-17.37972 -5.78602,-14.74186 -6.59769,-15.94288 -9.78959,-14.48553 -3.26428,1.4904 -2.95053,3.53895 1.23971,8.09429 5.20068,5.65383 9.99506,15.86581 9.80151,20.87714 -0.16027,4.14978 0.38714,4.83216 2.32145,2.89382 z m -245.11434,-4.6875 c 0.61746,-0.61875 1.12266,-1.81822 1.12266,-2.66547 0,-2.06888 8.87644,-14.63664 11.22861,-15.89811 1.02801,-0.55131 1.8691,-1.62035 1.8691,-2.37565 0,-1.68044 -2.82471,-1.79564 -4.93796,-0.20139 -2.19075,1.65269 -14.70861,18.61265 -14.70861,19.9281 0,2.45722 3.42119,3.2217 5.4262,1.21252 z m 120.87318,-7.24553 c 0,-3.35205 -2.65296,-6.50318 -3.86383,-4.58937 -0.4319,0.68263 -0.79173,2.61224 -0.7996,4.28802 -0.0123,2.62883 0.30658,3.04688 2.32455,3.04688 1.96238,0 2.33888,-0.44197 2.33888,-2.74553 z m 72.95865,-0.30135 c -0.007,-1.67578 -0.3677,-3.60539 -0.79961,-4.28802 -1.21086,-1.91381 -3.86382,1.23732 -3.86382,4.58937 0,2.30356 0.3765,2.74553 2.33887,2.74553 2.01798,0 2.33692,-0.41805 2.32456,-3.04688 z m 83.27835,0.30135 c 0,-3.35205 -2.65296,-6.50318 -3.86382,-4.58937 -0.43191,0.68263 -0.79173,2.61224 -0.79961,4.28802 -0.0124,2.62883 0.30658,3.04688 2.32456,3.04688 1.96237,0 2.33887,-0.44197 2.33887,-2.74553 z M 123.4788,124.92188 c 0.0213,-1.79233 -1.96337,-1.39875 -4.36965,0.86654 -1.37802,1.29728 -2.15251,3.08681 -2.13015,4.92187 l 0.0351,2.88346 3.22539,-3.75 c 1.77396,-2.0625 3.23164,-4.27734 3.23929,-4.92187 z m 78.53119,2.8125 c -1.15099,-1.9336 -3.54067,-5.05088 -5.3104,-6.9273 -3.71117,-3.9349 -3.69934,-6.2064 0.0431,-8.27486 2.47654,-1.36879 2.69049,-1.32493 4.41645,0.90528 2.21155,2.85769 2.27361,2.19885 0.40095,-4.25629 -1.31665,-4.53857 -1.31614,-5.28168 0.006,-7.84274 1.3966,-2.706354 1.36837,-2.875189 -0.65053,-3.890857 -1.16075,-0.58396 -3.0359,-2.16166 -4.16697,-3.506007 l -2.0565,-2.444268 -1.06545,2.766956 c -1.91501,4.973231 -3.91422,17.607786 -3.39727,21.469956 0.55609,4.15457 3.70657,7.52908 6.15714,6.59497 1.1884,-0.453 1.25069,-0.33077 0.31359,0.61523 -1.48651,1.50063 -1.51394,5.71033 -0.0468,7.18055 0.61747,0.61875 2.54629,1.125 4.28629,1.125 l 3.16362,0 -2.09272,-3.51562 z m 155.30146,0 c -1.15099,-1.9336 -3.54068,-5.05088 -5.3104,-6.9273 -3.71118,-3.9349 -3.69935,-6.2064 0.0431,-8.27486 2.47655,-1.36879 2.69049,-1.32493 4.41645,0.90528 2.21155,2.85769 2.27361,2.19885 0.40096,-4.25629 -1.31666,-4.53857 -1.31614,-5.28168 0.006,-7.84274 1.3966,-2.706354 1.36838,-2.875189 -0.65052,-3.890857 -1.16076,-0.58396 -3.0359,-2.16166 -4.16698,-3.506007 l -2.0565,-2.444268 -1.06545,2.766956 c -1.91501,4.973231 -3.91421,17.607786 -3.39726,21.469956 0.55609,4.15457 3.70656,7.52908 6.15714,6.59497 1.18839,-0.453 1.25069,-0.33077 0.31358,0.61523 -1.4865,1.50063 -1.51393,5.71033 -0.0468,7.18055 0.61746,0.61875 2.54629,1.125 4.28628,1.125 l 3.16362,0 -2.09271,-3.51562 z m -75.71062,-3.49402 c 0,-2.63936 -3.84025,-5.70052 -6.07386,-4.84162 -1.41126,0.54269 -1.98796,5.33514 -0.78684,6.53876 0.34302,0.34375 2.02702,0.625 3.7422,0.625 2.69496,0 3.1185,-0.31538 3.1185,-2.32214 z m -43.83396,-10.71314 c -0.70287,-6.00382 -0.75262,-10.24326 -0.14959,-12.74597 1.32368,-5.493572 1.1536,-5.974059 -0.91264,-2.578125 -2.1696,3.565815 -2.7063,3.672605 -5.88104,1.170141 l -2.38092,-1.876725 -0.66879,8.045549 c -0.93014,11.18932 0.62452,20.86164 2.78903,17.35209 1.01821,-1.65092 4.15173,-1.16805 5.39808,0.83183 2.21692,3.55725 2.93893,-0.52033 1.80587,-10.19879 z m 80.31828,8.34778 c 0.96956,0 2.0457,0.45863 2.39142,1.01918 2.16451,3.50955 3.71917,-6.16277 2.78904,-17.35209 l -0.6688,-8.045549 -2.38091,1.876725 c -3.17475,2.502464 -3.71144,2.395674 -5.88104,-1.170141 -2.08326,-3.423909 -2.22547,-2.955112 -0.87879,2.896895 0.64398,2.79846 0.60795,6.54139 -0.11542,11.98854 -0.57845,4.35588 -0.77638,9.01919 -0.43983,10.36291 l 0.61191,2.44313 1.40479,-2.00981 c 0.77263,-1.10538 2.19807,-2.00979 3.16763,-2.00979 z m 75.91873,-8.34778 c -0.70287,-6.00382 -0.75263,-10.24326 -0.1496,-12.74597 1.32368,-5.493572 1.1536,-5.974059 -0.91264,-2.578125 -2.1696,3.565815 -2.70629,3.672605 -5.88104,1.170141 l -2.38091,-1.876725 -0.6688,8.045549 c -0.93013,11.18932 0.62453,20.86164 2.78904,17.35209 1.01821,-1.65092 4.15172,-1.16805 5.39807,0.83183 2.21693,3.55725 2.93893,-0.52033 1.80588,-10.19879 z M 278.55272,114.375 c 1.56361,0 1.70093,-0.86749 1.55863,-9.8459 -0.18747,-11.826673 -1.0571,-13.596039 -5.18078,-10.540919 -2.39166,1.771913 -3.01855,1.879266 -4.7278,0.809588 -1.87892,-1.175845 -1.94304,-1.095371 -1.379,1.730681 0.32534,1.630134 0.1636,5.98755 -0.35945,9.68316 -1.06989,7.55939 -0.50897,12.06518 1.4101,11.32723 0.68535,-0.26354 1.50722,-0.0558 1.82637,0.46172 0.33475,0.54276 1.54438,-0.0252 2.85876,-1.34234 1.25317,-1.25578 3.05009,-2.28322 3.99317,-2.28322 z M 56.881496,99.1875 c 1.488525,-1.491628 1.43209,-4.439859 -0.09624,-5.027559 -0.670393,-0.257785 -2.789848,0.189046 -4.709897,0.992962 -3.143707,1.316269 -4.298728,1.320394 -11.61027,0.04153 -5.247623,-0.917868 -8.440356,-1.098393 -9.027108,-0.510412 -1.274826,1.277475 -1.205566,1.302337 9.726256,3.490453 11.696012,2.341075 14.229039,2.504345 15.717255,1.013025 z M 236.29402,97.369388 c 1.29089,-2.501522 1.50142,-6.404936 1.40313,-26.015626 -0.10305,-20.562142 -0.32487,-23.710033 -2.0388,-28.931887 -1.05775,-3.222656 -2.30984,-5.859375 -2.78244,-5.859375 -0.47261,0 -0.85928,3.498306 -0.85928,7.774012 0,4.275707 -0.83751,17.389966 -1.86114,29.142796 -1.91706,22.010973 -1.8024,23.818033 1.63872,25.827029 2.44922,1.429903 2.85178,1.256623 4.49981,-1.936949 z m 82.76891,1.984124 c 3.63921,-1.951706 3.75783,-3.637078 1.82107,-25.874204 -1.02362,-11.75283 -1.86113,-24.867089 -1.86113,-29.142796 0,-4.275706 -0.38668,-7.774012 -0.85928,-7.774012 -0.4726,0 -1.7247,2.636719 -2.78244,5.859375 -1.71393,5.221854 -1.93576,8.369745 -2.03881,28.931887 -0.0983,19.61069 0.11225,23.514104 1.40314,26.015626 1.69423,3.283082 1.80254,3.332872 4.31745,1.984124 z m 73.46809,-1.984124 c 1.29089,-2.501522 1.50143,-6.404936 1.40314,-26.015626 -0.10305,-20.562142 -0.32488,-23.710033 -2.03881,-28.931887 -1.05774,-3.222656 -2.30984,-5.859375 -2.78244,-5.859375 -0.4726,0 -0.85928,3.498306 -0.85928,7.774012 0,4.275707 -0.83751,17.389966 -1.86113,29.142796 -1.91707,22.010973 -1.80241,23.818033 1.63872,25.827029 2.44921,1.429903 2.85177,1.256623 4.4998,-1.936949 z M 57.068607,90.851792 c 0,-2.56409 -2.085915,-4.601792 -4.710672,-4.601792 -2.514264,0 -2.773736,0.289409 -2.773736,3.09375 0,4.397292 1.487298,5.590791 4.816924,3.865383 1.467116,-0.760255 2.667484,-1.821059 2.667484,-2.357341 z M 267.7376,76.875 c -0.0351,-3.351563 0.46373,-13.354683 1.10848,-22.229157 0.96495,-13.28183 1.47756,-16.473454 2.89853,-18.046875 2.18176,-2.415844 4.41899,-2.431314 6.57368,-0.04545 1.9037,2.107947 3.27355,17.87223 3.09645,35.633986 -0.0787,7.887483 -0.24023,6.583307 -0.81308,-6.5625 -1.21726,-27.934141 -1.59943,-30 -5.54969,-30 -3.57231,0 -4.14215,2.512936 -5.7155,25.204376 -0.84429,12.176652 -1.56379,19.397182 -1.59887,16.04562 z m 8.44723,-2.902852 c -0.10852,-4.948131 -0.38604,-12.963756 -0.61673,-17.8125 l -0.41943,-8.815898 0.90188,8.4375 c 0.49603,4.640625 0.77355,12.65625 0.61673,17.8125 l -0.28515,9.375 -0.1973,-8.996602 z M 188.48905,53.832757 c -0.74278,-11.91267 0.0106,-15.395257 3.33032,-15.395257 1.45834,0 2.51766,1.302922 4.24918,5.226368 2.23231,5.058165 4.81274,18.786338 3.73432,19.867003 -0.29179,0.292396 -0.53899,-0.06603 -0.54934,-0.796496 C 199.1224,53.475379 194.58842,39.375 191.74232,39.375 c -2.56612,0 -3.03375,2.974241 -2.30505,14.660844 0.36528,5.858411 0.45365,10.651656 0.19638,10.651656 -0.25728,0 -0.77235,-4.884635 -1.1446,-10.854743 z m 155.30145,0 c -0.74278,-11.91267 0.0106,-15.395257 3.33032,-15.395257 1.45834,0 2.51766,1.302922 4.24919,5.226368 2.23231,5.058165 4.81273,18.786338 3.73431,19.867003 -0.29179,0.292396 -0.53899,-0.06603 -0.54933,-0.796496 C 354.42385,53.475379 349.88987,39.375 347.04378,39.375 c -2.56613,0 -3.03375,2.974241 -2.30506,14.660844 0.36528,5.858411 0.45366,10.651656 0.19638,10.651656 -0.25728,0 -0.77234,-4.884635 -1.1446,-10.854743 z M 192.46216,56.71875 c -0.40101,-4.125 -0.91688,-9.1875 -1.1464,-11.25 -0.22951,-2.0625 0.20965,-0.796875 0.97592,2.8125 0.76627,3.609375 1.28215,8.671875 1.1464,11.25 -0.21834,4.146717 -0.33093,3.822247 -0.97592,-2.8125 z m 155.30146,0 c -0.40102,-4.125 -0.91689,-9.1875 -1.14641,-11.25 -0.22951,-2.0625 0.20966,-0.796875 0.97592,2.8125 0.76627,3.609375 1.28216,8.671875 1.14641,11.25 -0.21834,4.146717 -0.33094,3.822247 -0.97592,-2.8125 z m 3.04921,-31.897656 c -1.61482,-1.949799 -0.3203,-2.984312 1.95365,-1.561248 1.52487,0.954279 1.9458,0.906876 2.39642,-0.269864 1.00216,-2.617028 -0.35097,-4.335595 -2.90743,-3.692627 -2.7088,0.681279 -2.69832,0.706606 -1.33235,-3.219958 0.83382,-2.396903 1.53792,-2.952397 3.74221,-2.952397 1.49331,0 2.71512,0.421875 2.71512,0.9375 0,0.515625 -0.84199,0.9375 -1.8711,0.9375 -2.49462,0 -2.37459,1.209033 0.23389,2.355817 2.41651,1.06239 3.1582,4.171271 1.66304,6.970822 -1.21343,2.27205 -4.89273,2.547967 -6.59345,0.494455 z m 13.11648,0.02266 c 0,-0.875 -0.88357,-1.40625 -2.33888,-1.40625 -2.9254,0 -2.91734,-0.601683 0.08,-5.975669 3.14708,-5.642481 5.06554,-5.716789 5.06554,-0.196206 0,2.395833 0.49279,4.371069 1.16944,4.6875 0.93555,0.4375 0.93555,0.65625 0,1.09375 -0.64319,0.300782 -1.16944,1.144532 -1.16944,1.875 0,0.730469 -0.63149,1.328125 -1.40332,1.328125 -0.77183,0 -1.40333,-0.632813 -1.40333,-1.40625 z m 0,-5.3125 c 0,-1.117187 -0.11913,-1.855468 -0.26473,-1.640625 -0.1456,0.214844 -0.82865,1.128906 -1.51788,2.03125 -1.07268,1.404358 -1.03456,1.640625 0.26474,1.640625 0.93309,0 1.51787,-0.782562 1.51787,-2.03125 z m 8.01901,5.245535 C 368.84137,21.663365 370.8491,13.125 374.68815,13.125 c 2.35122,0 4.20998,2.897416 4.20998,6.5625 0,3.665084 -1.85876,6.5625 -4.20998,6.5625 -0.69833,0 -1.93125,-0.662947 -2.73983,-1.473215 z m 3.97309,-5.668867 c -0.16374,-2.001543 -0.71871,-3.639168 -1.23326,-3.639168 -1.09291,0 -1.79421,5.595759 -0.97081,7.746013 1.00099,2.613955 2.52202,-0.220204 2.20407,-4.106845 z m 5.21132,-1.698415 c -0.9315,-2.432504 0.3741,-4.442985 2.67286,-4.115881 1.54621,0.220021 2.10917,0.925696 2.10917,2.643878 0,1.718182 -0.56296,2.423857 -2.10917,2.643878 -1.26513,0.180024 -2.33476,-0.288936 -2.67286,-1.171875 z m 3.3787,-1.472003 c 0,-0.515625 -0.421,-0.9375 -0.93555,-0.9375 -0.51455,0 -0.93555,0.421875 -0.93555,0.9375 0,0.515625 0.421,0.9375 0.93555,0.9375 0.51455,0 0.93555,-0.421875 0.93555,-0.9375 z"
       id="path3446"
       inkscape:connector-curvature="0" />
  </g>
</svg>
