<?xml version="1.0" encoding="UTF-8" standalone="no"?>
<!-- Created with Inkscape (http://www.inkscape.org/) -->

<svg
   xmlns:dc="http://purl.org/dc/elements/1.1/"
   xmlns:cc="http://creativecommons.org/ns#"
   xmlns:rdf="http://www.w3.org/1999/02/22-rdf-syntax-ns#"
   xmlns:svg="http://www.w3.org/2000/svg"
   xmlns="http://www.w3.org/2000/svg"
   xmlns:sodipodi="http://sodipodi.sourceforge.net/DTD/sodipodi-0.dtd"
   xmlns:inkscape="http://www.inkscape.org/namespaces/inkscape"
   id="svg3566"
   version="1.1"
   inkscape:version="0.91 r13725"
   width="500"
   height="225"
   viewBox="0 0 500 225"
   sodipodi:docname="fx510203.svg">
  <metadata
     id="metadata3572">
    <rdf:RDF>
      <cc:Work
         rdf:about="">
        <dc:format>image/svg+xml</dc:format>
        <dc:type
           rdf:resource="http://purl.org/dc/dcmitype/StillImage" />
        <dc:title></dc:title>
      </cc:Work>
    </rdf:RDF>
  </metadata>
  <defs
     id="defs3570" />
  <sodipodi:namedview
     pagecolor="#b3b3b3"
     bordercolor="#666666"
     borderopacity="1"
     objecttolerance="10"
     gridtolerance="10"
     guidetolerance="10"
     inkscape:pageopacity="0"
     inkscape:pageshadow="2"
     inkscape:window-width="1368"
     inkscape:window-height="898"
     id="namedview3568"
     showgrid="false"
     inkscape:zoom="0.95681645"
     inkscape:cx="318.39874"
     inkscape:cy="109.50985"
     inkscape:window-x="0"
     inkscape:window-y="0"
     inkscape:window-maximized="0"
     inkscape:current-layer="svg3566" />
  <g
     id="g4178"
     transform="translate(-8.944253,25.122152)">
    <path
       style="fill:#fefefe"
       d="m 48.193522,141.16021 c -1.209884,-4.17052 -1.311546,-6.08347 -0.510689,-9.60938 1.55993,-6.86785 3.62505,-20.57586 4.264696,-28.30852 0.937993,-11.339372 5.467202,-17.012619 9.975369,-12.495061 1.789302,1.79303 1.746054,2.076128 -3.82732,25.053331 -3.10039,12.78189 -5.637073,24.88836 -5.637073,26.90326 0,5.65832 -2.430912,4.77849 -4.264983,-1.54363 z m 179.850568,4.50397 c -1.10063,-1.89485 -3.51056,-11.93694 -4.35041,-18.12808 -0.51854,-3.82252 -2.08875,-9.39903 -3.48935,-12.39226 -2.7852,-5.95223 -2.38186,-8.34931 1.50205,-8.92662 4.43873,-0.65978 4.88105,0.78456 6.55366,21.40009 0.98901,12.19002 1.94241,15.51018 4.70621,16.38921 1.05858,0.33667 1.92469,1.00559 1.92469,1.48647 0,1.03579 -6.25381,1.19215 -6.84685,0.17119 z m 0.98113,-25.31249 c -0.27432,-1.9336 -0.79763,-4.25869 -1.16289,-5.16689 -0.51702,-1.28549 -0.31432,-1.51674 0.91503,-1.04401 2.90718,1.11791 4.70101,9.72652 2.02679,9.72652 -0.76691,0 -1.48012,-1.40949 -1.77893,-3.51562 z m -49.52781,-12.75136 c -3.37618,-3.47327 -17.24523,-13.935457 -22.32292,-16.839401 -5.17839,-2.961527 -6.0414,-5.656203 -2.3511,-7.341117 1.99999,-0.913154 2.8908,-0.544519 7.7183,3.193988 5.1439,3.983537 22.76505,21.5271 22.76505,22.66482 0,1.40313 -3.91287,0.27272 -5.80933,-1.67829 z m -98.972376,-6.61107 c 0,-0.72355 1.789241,-3.196342 3.976092,-5.495082 2.905133,-3.05378 6.621987,-5.384709 13.799377,-8.653934 5.402807,-2.460921 12.138767,-5.870962 14.968817,-7.57787 8.55555,-5.160191 12.29939,-6.307748 16.70253,-5.119639 4.36042,1.176586 5.20008,2.122528 4.47031,5.036188 -0.40408,1.613363 -2.15554,2.638362 -7.80637,4.56847 -21.28341,7.269621 -32.284197,11.532379 -38.348392,14.859847 -7.566763,4.15195 -7.762364,4.21197 -7.762364,2.38202 z m 86.786096,-11.366071 -3.49458,-3.255883 3.0976,0 c 3.34281,0 7.86753,3.72905 6.741,5.555599 -1.04628,1.696444 -2.69726,1.097959 -6.34402,-2.299716 z m 41.57159,-0.173637 c -1.55928,-0.298871 -2.99693,-2.134981 -5.22186,-6.669204 -10.21391,-20.815072 -17.61907,-33.720731 -21.58823,-37.623862 -2.33767,-2.298763 -4.2503,-4.759701 -4.2503,-5.46875 0,-0.709049 0.31575,-1.144345 0.70167,-0.967324 0.38591,0.177021 3.352,1.330372 6.59131,2.563004 3.44313,1.310193 6.31767,3.058742 6.92004,4.209394 0.56672,1.082535 4.56431,7.395219 8.88354,14.028185 9.11661,14.000254 12.04901,19.50889 12.95162,24.330239 0.6043,3.227874 -0.59394,6.498307 -2.249,6.138401 -0.32292,-0.07022 -1.55537,-0.313256 -2.73879,-0.540083 z M 64.179696,67.284126 c -2.582808,-1.89253 -1.388472,-3.579254 6.205693,-8.764102 20.238335,-13.817538 21.494831,-14.586376 22.383253,-13.696103 1.363838,1.366679 0.138565,3.641967 -2.645865,4.913282 -1.353819,0.618125 -3.961896,2.304965 -5.795728,3.748533 -1.833832,1.443567 -4.652005,3.299958 -6.262606,4.125316 -1.610603,0.825357 -4.451639,3.625347 -6.313414,6.222201 -3.56736,4.97585 -4.75278,5.516142 -7.571333,3.450873 z M 74.39944,61.126978 c 0.347017,-0.562653 1.956369,-1.70984 3.576338,-2.549305 l 2.9454,-1.526299 -1.474724,2.236092 c -1.43527,2.176267 -6.36224,3.972028 -5.047014,1.839512 z"
       id="path3596"
       inkscape:connector-curvature="0"
       sodipodi:nodetypes="sssssssssssscssscssssssssssssssssssscsssssssssssssssssssssssscss" />
    <path
       style="fill:#fefe00"
       d="m 214.83469,108.04471 c -1.27176,-2.51494 -2.80496,-6.62822 -3.40711,-9.140629 -0.60215,-2.512416 -1.7211,-5.574901 -2.48657,-6.805527 -1.34288,-2.15895 -1.31054,-2.217081 0.92118,-1.655788 3.15088,0.792469 5.78639,-2.124555 5.13473,-5.683234 -0.41581,-2.270751 -0.33941,-2.38203 0.58634,-0.853986 0.58544,0.966344 2.02767,3.223526 3.20495,5.015959 3.29551,5.017484 8.61832,15.964075 8.61832,17.723945 0,1.46641 -0.11791,1.46803 -1.71088,0.0234 -0.94098,-0.85339 -2.55972,-1.55158 -3.5972,-1.55158 -2.59494,0 -5.33296,3.24515 -4.71995,5.59417 0.81836,3.13591 -0.0922,2.18136 -2.54381,-2.66677 z M 52.900322,91.992306 c 0.302156,-1.289063 1.61537,-6.984375 2.918253,-12.65625 2.421875,-10.543214 5.599911,-17.501424 8.769942,-19.201507 3.028763,-1.624322 2.993143,-1.066501 -0.109274,1.711282 -3.373313,3.020334 -3.190229,5.144814 0.592198,6.871793 2.057438,0.939385 2.694006,0.783206 4.76877,-1.169995 2.328002,-2.1916 2.288839,-1.957599 -1.41258,8.440275 -2.093829,5.881903 -3.806963,11.678189 -3.806963,12.880635 0,2.579166 -0.657248,2.729254 -2.929178,0.668904 -2.276687,-2.064668 -5.988646,-1.010367 -7.859788,2.232401 -1.456352,2.523921 -1.471701,2.527588 -0.93138,0.222462 z m 96.855478,-2.67288 c -2.83004,-1.467873 -7.50936,-3.630338 -10.39849,-4.805478 -5.13803,-2.089875 -5.23138,-2.193878 -4.26706,-4.753973 1.20759,-3.205932 -0.12264,-5.169784 -4.39701,-6.491415 -2.5921,-0.801477 -2.39351,-0.866029 1.75487,-0.570399 7.59892,0.541529 30.83297,9.803187 29.05703,11.582835 -0.28119,0.281773 -1.3846,-0.2797 -2.45203,-1.247718 -1.77244,-1.607378 -2.15837,-1.638043 -4.4496,-0.353549 -3.75304,2.104008 -3.75223,5.11646 0.002,7.410109 4.67672,2.857241 1.02636,2.277355 -4.84971,-0.770412 z"
       id="path3592"
       inkscape:connector-curvature="0"
       sodipodi:nodetypes="cssssssscssccsssssssssssssssssssss" />
    <path
       style="fill:#fe0000"
       d="m 183.861,81.635434 c -1.94509,-2.034458 -2.4036,-3.059865 -1.59279,-3.562025 3.24593,-2.010272 -6.35901,-7.643603 -13.03249,-7.643603 -1.452,0 -2.64,-0.421875 -2.64,-0.9375 0,-1.43244 6.18174,-1.116059 10.08722,0.516263 1.91305,0.799571 4.84651,2.780766 6.51881,4.402657 1.6723,1.621891 3.04054,2.44426 3.04054,1.827487 0,-0.616774 0.421,-1.121407 0.93555,-1.121407 0.51456,0 0.93555,2.109375 0.93555,4.6875 0,2.578125 -0.34223,4.6875 -0.76052,4.6875 -0.41828,0 -1.98962,-1.285592 -3.49187,-2.856872 z"
       id="path3590"
       inkscape:connector-curvature="0"
       sodipodi:nodetypes="sssssssssss" />
    <path
       style="fill:#000000"
       d="m 177.71094,38.353516 c -2.05281,0.203167 -0.93977,2.509823 3.42578,6.802734 3.92962,3.864233 11.56065,17.131184 21.27539,36.992188 1.51326,3.09375 3.59267,6.811108 4.62109,8.259765 1.02841,1.448658 2.4888,5.009935 3.2461,7.916016 1.5948,6.119861 5.30046,13.848171 7.16601,14.943361 2.31685,1.36011 4.19181,6.35468 5.22852,13.93359 0.56022,4.09558 1.81467,10.08399 2.78906,13.30664 l 1.77149,5.85938 -86.91993,0 -86.919919,0 0,-3.66992 c 0,-5.02858 11.298542,-52.095184 16.158203,-67.310551 3.482095,-10.90227 4.203318,-12.391055 6.017578,-12.421875 1.156257,-0.01964 2.799323,-1.125879 3.742188,-2.519532 2.68351,-3.966503 6.896576,-7.826358 10.625,-9.732421 4.04843,-2.069658 5.263149,-4.416362 3.302734,-6.38086 -1.224904,-1.227455 -1.989212,-0.972572 -6.55664,2.179688 C 82.621999,49.314875 81.236812,49.848301 80.216797,49 78.895716,47.901316 70.673135,45.145433 68.660156,45.126953 67.2205,45.11374 63.283193,50.653923 64.130859,51.5 c 0.357703,0.357031 1.405236,-0.283646 2.326172,-1.421875 2.177485,-2.69126 3.030324,-1.787073 1.353516,1.433594 -0.719274,1.38152 -1.3093,3.162734 -1.3125,3.958984 -0.0032,0.79625 -1.653927,3.218447 -3.667969,5.382813 -2.014042,2.164365 -4.295283,5.732097 -5.070312,7.927734 -2.608361,7.389419 -6.081248,24.55189 -6.6875,33.05469 -0.613333,8.60212 -2.538229,21.84341 -4.310547,29.65234 -0.918608,4.04744 -0.424352,8.144 1.628906,13.50586 0.418755,1.09353 -1.893827,1.37196 -13.382813,1.60938 -7.639321,0.15786 72.203588,0.28814 177.429688,0.28906 32.05847,2.8e-4 60.29348,-0.0159 85.94727,-0.0371 l 0,-0.49024 c -58.56572,-0.002 -61.71711,-0.0925 -63.37696,-1.75585 -0.96479,-0.9668 -2.22023,-1.91602 -2.78906,-2.10938 -1.19451,-0.40603 -2.94141,-8.76403 -2.94141,-14.07227 0,-3.23851 0.24864,-3.62304 2.33985,-3.62304 4.09745,0 6.18159,-3.12913 6.12109,-9.1875 -0.0293,-2.93877 0.0556,-6.34171 0.1875,-7.5625 0.16202,-1.49907 -0.59112,-2.84848 -2.31836,-4.15625 -3.45019,-2.6123 -4.50096,-1.2478 -1.2168,1.58008 3.37691,2.90774 2.60916,3.96451 -2.58203,3.55078 -3.4589,-0.27567 -4.1064,-0.62091 -3.74804,-1.99414 0.46821,-1.79418 -4.5284,-11.967156 -11.76172,-23.949222 -2.49017,-4.125 -5.63479,-9.398438 -6.98828,-11.71875 -1.35348,-2.320313 -5.98906,-9.682232 -10.30078,-16.359376 l -7.83985,-12.140624 -6.36328,-2.582032 c -3.49183,-1.417398 -5.86402,-2.053541 -7.0957,-1.93164 z m 0.67187,0.328125 c 0.0456,0.0037 0.0924,0.01693 0.14063,0.03906 0.38591,0.177021 3.35248,1.329868 6.59179,2.5625 3.44313,1.310193 6.31756,3.058332 6.91993,4.208985 0.56672,1.082534 4.56358,7.39633 8.88281,14.029296 11.94234,18.339676 15.17104,25.910423 12.44726,29.199219 -0.63588,0.767785 -1.42124,1.339751 -1.74414,1.269531 -0.32292,-0.07022 -1.55486,-0.314188 -2.73828,-0.541015 -1.55928,-0.298871 -2.99772,-2.133746 -5.22265,-6.667969 -10.21391,-20.815072 -17.61873,-33.721869 -21.58789,-37.625 -2.33767,-2.298763 -4.25,-4.759701 -4.25,-5.46875 0,-0.620418 0.24157,-1.031437 0.56054,-1.005859 z m -85.85156,6.046875 c 0.104625,0.009 0.182242,0.03955 0.234375,0.0918 1.423809,1.426776 0.135477,3.585904 -3.160156,5.294922 -8.390073,4.350848 -18.855054,13.038431 -18.13086,15.050782 0.01923,0.05342 0.01053,0.182634 0.002,0.310546 l -1.947265,1.621094 c -1.768272,1.47121 -2.497942,1.57767 -4.511766,0.658199 -3.323167,-1.517291 -2.610103,-3.633203 2.410156,-7.158203 C 83.405907,49.378505 90.961868,44.593954 92.53125,44.728516 Z m -11.609375,12.322265 -1.474609,2.236328 c -0.811098,1.229849 -2.422237,2.37656 -3.578125,2.548829 -2.79663,0.416796 -1.691957,-1.288984 2.107421,-3.257813 z m -14.21875,2.179688 c 0.456335,0.011 -0.285599,0.87912 -2.224609,2.615234 -3.381218,3.027413 -3.189301,5.146079 0.623046,6.886719 2.105353,0.961261 2.662546,0.817367 4.470704,-1.146484 l 1.904296,-2.06836 c -0.116729,1.322692 -1.461148,5.892002 -3.240234,10.929688 -1.988118,5.629585 -3.615234,11.219429 -3.615234,12.421875 0,2.579166 -0.657758,2.728318 -2.929688,0.667968 -1.095882,-0.993828 -2.484296,-1.313377 -4.02539,-0.925781 -1.294109,0.325478 -3.019569,1.746786 -3.833985,3.158203 -1.456352,2.523921 -1.471961,2.527783 -0.93164,0.222657 0.302156,-1.289063 1.615085,-6.984376 2.917968,-12.65625 2.421875,-10.543214 5.599501,-17.501089 8.769532,-19.201172 1.135786,-0.609121 1.841433,-0.910899 2.115234,-0.904297 z m 65.222655,12.367187 c -4.84027,-0.08235 -12.35504,2.652924 -19.49414,7.148438 -2.36938,1.492004 -8.72805,4.720017 -14.130859,7.171875 C 90.795886,89.323781 87.428275,91.467443 84.033203,95 c -4.372807,4.549884 -5.328654,6.64706 -3.535156,7.75781 0.499928,0.30962 4.030693,-1.15379 7.845703,-3.251951 3.815012,-2.098162 11.088408,-5.24845 16.16406,-7 5.07565,-1.751549 13.40811,-4.713554 18.51563,-6.582031 10.53487,-3.853959 8.78623,-4.072137 23.76953,2.976563 5.17811,2.435972 9.42884,3.884455 10.44726,3.560547 1.10353,-0.350977 2.83274,0.409207 4.83594,2.128906 1.71446,1.471814 5.85267,4.737598 9.19727,7.255856 3.34459,2.51826 7.00745,5.55078 8.14062,6.73828 2.16203,2.26568 5.3562,2.84836 6.39258,1.16797 0.33563,-0.54419 -2.56774,-4.22464 -6.45117,-8.17968 l -7.06055,-7.191411 3.23242,-2.667968 c 2.27734,-1.881095 3.23047,-3.442149 3.23047,-5.28711 0,-3.081696 -2.94513,-7.177973 -5.81836,-8.091797 -1.11559,-0.354815 -2.68382,-1.41496 -3.48437,-2.353515 -1.68808,-1.979085 -8.47266,-3.519583 -8.47266,-1.923828 0,0.563186 1.15725,1.27914 2.57227,1.589843 6.07875,1.334739 6.23986,1.853546 1.50586,4.88086 l -3.32813,2.126953 -3.01172,-1.865235 c -4.54521,-2.814946 -21.02247,-8.635503 -25.86328,-9.136718 -0.29801,-0.03086 -0.60895,-0.0492 -0.93164,-0.05469 z m 0.52344,0.933594 c 0.31357,0.0091 0.61374,0.0304 0.90039,0.06445 7.51761,0.893097 29.72756,10.110963 28.15625,11.685547 -0.28119,0.281773 -1.3857,-0.280029 -2.45313,-1.248047 -1.77243,-1.607378 -2.15798,-1.638009 -4.44921,-0.353515 -3.75304,2.104007 -3.75228,5.116507 0.002,7.410156 5.3244,3.252946 1.14261,2.085978 -7.89453,-2.203125 -4.75764,-2.25802 -9.55402,-4.382265 -10.66016,-4.720703 -1.8186,-0.556423 -1.90817,-0.889607 -0.93555,-3.476563 0.96323,-2.561969 0.84505,-3.048402 -1.13281,-4.654297 -1.21475,-0.986298 -3.11021,-1.755484 -4.21094,-1.708984 -1.44682,0.06112 -1.17063,0.32578 0.99414,0.953125 3.56665,1.033602 4.37413,2.112224 3.67579,4.900391 -0.40408,1.613363 -2.15386,2.638251 -7.80469,4.568359 -21.28341,7.269621 -32.285416,11.531907 -38.349611,14.859375 -3.706272,2.033661 -6.968486,3.697271 -7.25,3.697271 -1.61047,0 0.0039,-3.17249 3.464844,-6.810552 2.905133,-3.05378 6.621307,-5.385072 13.798828,-8.654297 5.402809,-2.460921 12.138709,-5.887932 14.968749,-7.617188 6.86418,-4.194259 14.47608,-6.827752 19.17969,-6.691406 z m 82.43164,10.375 c 0.12711,0.08453 0.35597,0.426984 0.70312,1 0.58544,0.966344 2.02341,3.218476 3.19727,5.005859 5.64689,8.598267 8.06458,14.717911 8.25391,20.892581 0.33106,10.79626 2.07151,28.52098 3.05273,31.09179 0.52437,1.37385 1.82033,2.77269 2.87891,3.10938 1.05858,0.33667 1.92382,1.00545 1.92382,1.48633 10e-6,1.03579 -6.25266,1.19282 -6.8457,0.17187 -1.10063,-1.89486 -3.51171,-11.93776 -4.35156,-18.1289 -0.51854,-3.82252 -2.08768,-9.3974 -3.48828,-12.39063 -1.95293,-4.17359 -2.3149,-5.81264 -1.55274,-7.03125 1.28621,-2.0565 4.68178,-2.543 6.70118,-0.95898 1.42593,1.1185 1.45538,1.0788 0.30078,-0.39649 -2.73416,-3.49358 -9.38909,-0.31453 -8.27539,3.95313 0.27355,1.04821 0.33324,1.90625 0.13281,1.90625 -0.85533,0 -5.079,-9.51965 -6.08399,-13.712893 -0.60215,-2.512416 -1.72085,-5.576015 -2.48632,-6.806641 -1.34288,-2.15895 -1.3118,-2.21559 0.91992,-1.654297 3.15088,0.792469 5.78642,-2.124914 5.13476,-5.683593 -0.25988,-1.41922 -0.32708,-1.994395 -0.11523,-1.853516 z m -58.6875,0.101562 c 1.32057,-0.106315 2.72703,0.801589 6.34766,3.605469 5.1439,3.983537 22.76562,21.528299 22.76562,22.666019 0,1.40313 -3.91213,0.27132 -5.80859,-1.67969 -3.37618,-3.47327 -17.24653,-13.933947 -22.32422,-16.837891 -5.17839,-2.961527 -6.03991,-5.656883 -2.34961,-7.341797 0.5,-0.228289 0.92895,-0.376671 1.36914,-0.41211 z m 7.62305,3.359376 3.09765,0 c 3.34281,0 7.86677,3.730091 6.74024,5.55664 -1.04628,1.696444 -2.69699,1.096894 -6.34375,-2.300781 z M 59,89.197266 c 0.950364,0.06029 1.937667,0.562565 2.923828,1.550781 1.789302,1.79303 1.745249,2.075535 -3.828125,25.052733 -3.10039,12.78189 -5.636719,24.88744 -5.636719,26.90234 0,5.65833 -2.431554,4.77916 -4.265625,-1.54296 -1.209884,-4.17052 -1.310622,-6.08347 -0.509765,-9.60938 1.55993,-6.86785 3.624026,-20.57593 4.263672,-28.30859 C 52.680073,94.383306 55.605843,88.981958 59,89.197266 Z m 168.81055,24.726564 c 0.18844,-0.0392 0.50579,0.0395 0.96679,0.21679 1.80016,0.69224 3.30664,4.08348 3.30664,7.44336 0,3.72028 -2.49876,2.71348 -3.05859,-1.23242 -0.27432,-1.9336 -0.79685,-4.25781 -1.16211,-5.16601 -0.32314,-0.80343 -0.36681,-1.1964 -0.0527,-1.26172 z"
       id="path3588"
       inkscape:connector-curvature="0"
       sodipodi:nodetypes="sssssssccccsssssssssssscsssssssccscsssssssssssccssssssscsssssssscccsssccsccsssccssssssssssssssssssssssscccsssssccsssssssssssssssssssssssssssscscssssssssssssssssssscssccsssssssssssscs" />
    <path
       sodipodi:nodetypes="scsssssssssssscsssssssssssssssscscscsssssssssscsssssscsssssssssscssssssssssssssssssssssssssss"
       style="fill:#fefefe"
       d="m 377.0916,143.02395 -3.21445,-3.31647 1.6156,-7.93353 c 0.88858,-4.36344 1.92679,-15.24744 2.30713,-24.18666 0.56755,-13.33904 0.99638,-16.55798 2.39179,-17.95339 1.60034,-1.60034 1.8625,-1.57744 4.46115,0.38972 2.67382,2.02406 2.75242,2.35376 2.49194,10.45339 -0.14792,4.59988 -0.91739,10.38841 -1.70993,12.86341 -0.79253,2.475 -2.55885,9.41586 -3.92514,15.42413 -2.47327,10.8762 -2.47564,10.93612 -0.54007,13.65438 2.28675,3.21144 2.40268,3.92149 0.64027,3.92149 -0.71711,0 -2.75034,-1.49241 -4.51829,-3.31647 z m 50.20466,0.7045 c -0.36056,-1.43659 0.53597,-10.77409 1.9923,-20.75 1.45632,-9.97592 2.64275,-20.96498 2.63651,-24.42015 -0.006,-3.45516 0.64069,-7.84266 1.43762,-9.75 1.18965,-2.84723 1.97752,-3.46788 4.40218,-3.46788 2.39465,0 3.1548,0.57831 4.01912,3.05771 1.24857,3.58165 -0.61586,15.00628 -4.30838,26.40031 -3.00458,9.27126 -6.0757,24.76062 -5.30671,26.76459 0.33533,0.87384 1.99009,1.89199 3.67725,2.26255 4.91851,1.08028 3.54183,2.51484 -2.41338,2.51484 -5.07501,0 -5.5295,-0.19345 -6.13651,-2.61197 z m -170.38254,-15.0028 c 0,-3.04882 1.11068,-4.88843 7.09418,-11.75 3.9018,-4.47437 7.94537,-9.7922 8.98571,-11.81738 2.25986,-4.39917 3.29358,-5.15148 5.92906,-4.31501 2.68387,0.85183 2.6739,5.90185 -0.0163,8.24716 -6.74954,5.88428 -19.08536,19.10135 -19.59982,21 -0.94386,3.48343 -2.39283,2.657 -2.39283,-1.36477 z m 220.19925,0.62833 c -1.81541,-0.42995 -3.61541,-1.06667 -4,-1.41493 -0.38459,-0.34827 -7.33424,-7.26294 -15.44368,-15.36593 -9.54657,-9.53898 -14.71957,-15.43776 -14.67392,-16.7327 0.0388,-1.1 0.59877,-3.44849 1.24443,-5.21886 l 1.17392,-3.21886 18.5,20.66215 c 10.175,11.36419 18.65,21.02518 18.83333,21.46886 0.39057,0.94523 -1.08244,0.89824 -5.63408,-0.17973 z m -202.15202,-9.92839 c -2.166,-1.67757 -2.31613,-2.19959 -1.28401,-4.46484 1.29789,-2.84856 5.76065,-4.49646 7.491,-2.76611 1.51284,1.51284 -0.27234,8.54325 -2.25422,8.87759 -0.825,0.13917 -2.60375,-0.60181 -3.95277,-1.64664 z m 72.41211,-4.76347 c -2.31398,-0.46031 -44.75653,-22.27894 -48.20934,-24.78319 -3.97106,-2.88013 -2.29889,-7.54482 2.7,-7.53194 1.57835,0.004 11.05262,5.51122 24.8644,14.45305 12.27291,7.94557 23.18541,14.72293 24.25,15.06082 1.06458,0.33788 1.9356,1.25901 1.9356,2.04695 0,1.39589 -1.37464,1.58303 -5.54066,0.75431 z m 41.54066,-24.03069 c 0,-0.62566 -1.11534,-2.46306 -2.47853,-4.08312 l -2.47852,-2.94556 11.51585,-17.13534 c 6.33372,-9.42444 12.38307,-19.15846 13.44299,-21.63117 2.68817,-6.27123 5.18399,-6.13037 4.31038,0.24329 -0.45226,3.2996 -3.83536,10.66557 -11.13772,24.25 -10.10498,18.79808 -13.17445,23.76114 -13.17445,21.3019 z m -89,-10.79101 c -0.68469,-0.825 -1.86479,-1.5 -2.62244,-1.5 -0.75766,0 -1.37756,-0.26843 -1.37756,-0.59651 0,-0.32808 5.58452,-10.11558 12.41004,-21.75 6.82553,-11.63442 12.71128,-22.61599 13.07946,-24.40349 1.03387,-5.01945 2.51018,-3.84467 2.51335,2 0.002,4.596 -1.26177,7.89715 -10.14892,26.5 -5.58347,11.6875 -10.70465,21.25 -11.3804,21.25 -0.67575,0 -1.78884,-0.675 -2.47353,-1.5 z m 56,-7.76568 c -2.475,-1.71519 -4.85986,-3.70708 -5.29969,-4.42642 -0.43983,-0.71935 -1.25735,-1.3079 -1.81672,-1.3079 -0.55937,0 -2.60723,-1.2129 -4.55081,-2.69534 -2.34868,-1.79143 -4.67383,-2.66302 -6.93327,-2.59898 -4.22961,0.1199 -4.36914,-1.06141 -0.32332,-2.73724 2.89024,-1.19718 3.69117,-0.95468 13.25,4.01169 11.9276,6.19709 13.86385,7.70011 13.46783,10.45448 -0.43298,3.01146 -2.73668,2.80447 -7.79402,-0.70029 z m 1.78388,-6.82963 c -2.51275,-1.29671 -3.53053,-2.40133 -3.14301,-3.4112 0.83089,-2.16527 2.68759,-1.83722 5.29198,0.93503 3.27687,3.48807 2.20507,4.72306 -2.14897,2.47617 z m 81.4413,-5.45952 c -2.05718,-1.44091 -2.11478,-1.75799 -0.78604,-4.32748 0.78858,-1.52495 3.46798,-4.43951 5.95423,-6.4768 2.48624,-2.03729 7.30036,-7.06492 10.69805,-11.17252 5.83096,-7.04928 8.90858,-9.1649 8.90858,-6.12396 0,1.23019 -2.419,4.30463 -14.08648,17.90333 -2.24042,2.61126 -4.50865,6.32376 -5.04051,8.25 -1.06509,3.85745 -2.30869,4.28625 -5.64783,1.94743 z m 1.80662,-10.62708 c 0.0555,-2.29997 2.60987,-4.81809 4.88746,-4.81809 2.62738,0 2.06289,1.16446 -1.9495,4.02153 -2.03781,1.45105 -2.95978,1.70102 -2.93796,0.79656 z"
       id="path8091"
       inkscape:connector-curvature="0" />
    <path
       sodipodi:nodetypes="csssssssssssccsssssssscssssssssscsscsss"
       style="fill:#fefe00"
       d="m 281.61071,105.62675 c 0.50426,-3.81745 0.31239,-4.32493 -2.04058,-5.39702 -2.03462,-0.92703 -2.92851,-0.90838 -4.1268,0.0861 -1.26848,1.05275 -1.52961,0.98569 -1.52961,-0.39281 0,-5.37049 10.00457,-16.76579 15.84604,-18.04879 1.72206,-0.37823 3.38774,-1.10307 3.70151,-1.61076 0.72176,-1.16783 5.15666,-1.21067 5.86985,-0.0567 0.29449,0.4765 -0.35395,1.67124 -1.44098,2.65499 -2.34877,2.12561 -2.54725,4.76002 -0.48743,6.46952 2.16185,1.79419 0.90465,3.00915 -3.11375,3.00915 -5.31786,0 -7.17613,1.5204 -8.8904,7.27396 -0.8564,2.87432 -2.18425,6.35104 -2.95078,7.72604 -1.32935,2.38461 -1.36798,2.30551 -0.83707,-1.71367 z m 94.18268,-14.91073 c -1.24301,-3.16442 -3.19347,-5.17334 -8.70645,-8.96742 -6.06829,-4.17624 -6.81463,-4.99669 -5.11673,-5.62478 2.6255,-0.97124 3.54331,-3.59332 2.07868,-5.93856 -0.9428,-1.50967 -0.89208,-2.00089 0.25193,-2.43989 2.25636,-0.86585 7.18615,2.2032 10.80121,6.72431 1.82143,2.27794 5.16133,6.21823 7.422,8.75622 2.26067,2.53799 4.69092,5.72403 5.40056,7.0801 l 1.29025,2.46558 -3.22729,-2.71558 c -1.775,-1.49357 -3.57301,-2.71558 -3.99557,-2.71558 -1.255,0 -3.84407,3.34883 -4.23425,5.47679 -0.27177,1.48218 -0.76326,0.95646 -1.96434,-2.10119 z m 66.44853,-3.31706 c -0.93779,-2.48448 -1.7232,-3.05854 -4.18463,-3.05854 -1.99767,0 -3.56059,0.7573 -4.58687,2.22251 -2.42805,3.46653 -1.88923,0.0338 0.95307,-6.07181 1.99406,-4.28347 2.49023,-6.92807 2.49023,-13.27305 l 0,-7.92376 2.49228,1.63301 c 3.26016,2.13614 5.21875,1.27165 6.32069,-2.78987 l 0.89453,-3.29703 1.13906,4.08017 c 0.96977,3.47375 0.73013,6.12054 -1.61241,17.80853 -2.56676,12.8067 -2.82899,13.52303 -3.90595,10.66984 z"
       id="path8087"
       inkscape:connector-curvature="0" />
    <path
       sodipodi:nodetypes="ssssssssssss"
       style="fill:#fe0000"
       d="m 244.91372,97.88603 c 0,-1.81587 13.68746,-20.9782 17.02528,-23.83525 4.50782,-3.85853 17.53719,-10.71036 20.3667,-10.71036 1.32857,0 1.58051,-0.51131 1.06001,-2.15127 -0.53281,-1.67873 -0.34355,-2.0211 0.8616,-1.55864 0.84941,0.32595 3.15134,0.89411 5.1154,1.26257 1.96405,0.36846 3.57101,1.02441 3.57101,1.45766 0,0.43326 -1.86838,1.7616 -4.15195,2.95186 -3.02939,1.57901 -4.34912,1.84511 -4.88119,0.98421 -1.03228,-1.67027 -6.68789,0.34183 -15.40452,5.48047 -7.3118,4.31046 -9.91385,7.21133 -17.44649,19.44999 -3.69004,5.9954 -6.11585,8.64052 -6.11585,6.66876 z"
       id="path8085"
       inkscape:connector-curvature="0" />
    <path
       id="path8083"
       d="m 323.03463,27.86327 c -0.86102,-0.0708 -1.95744,1.58194 -3.10156,4.97656 -0.92686,2.75 -7.27216,14.40634 -14.10157,25.90234 -11.72947,19.74435 -12.63994,20.97888 -16.41406,22.28321 -7.52284,2.59988 -16.5039,13.55651 -16.5039,20.13476 0,3.42286 -3.06179,8.16864 -11.11719,17.23242 -4.79416,5.39427 -5.88281,7.26739 -5.88281,10.11719 0,1.92343 0.29934,3.7974 0.66601,4.16406 1.30028,1.30028 2.39604,0.63101 3.41406,-2.08398 0.56714,-1.5125 3.32423,-5.08177 6.12696,-7.93359 l 5.0957,-5.18555 3.19336,2.43555 c 5.9855,4.56536 14.50391,2.21265 14.50391,-4.00586 0,-2.3211 1.58522,-4.30931 2.61523,-3.2793 0.26496,0.26495 0.55589,2.34138 0.64649,4.61328 0.0942,2.36335 0.60785,3.97235 1.20117,3.75977 1.05886,-0.37936 1.07293,-4.28338 0.0293,-8.50782 -0.4393,-1.77819 -1.08431,-2.22423 -2.6289,-1.82031 -2.92833,0.76577 -8.00308,-2.49349 -6.8125,-4.375 0.50512,-0.79825 1.61241,-3.80715 2.45898,-6.6875 1.64872,-5.6095 1.66805,-5.62215 10.49024,-6.70703 4.24222,-0.52167 5.76024,0.10486 26.5,10.94141 22.70383,11.86278 29.47743,14.16807 30.27539,10.30468 0.23752,-1.15 -0.94373,-2.35733 -3.66211,-3.74414 -3.11432,-1.58881 -43.1933,-27.12915 -45.01758,-28.6875 -0.22256,-0.19012 4.1901,-9.96217 9.80664,-21.71484 9.56637,-20.01771 10.19211,-21.70913 9.9043,-26.76172 -0.19967,-3.50506 -0.82453,-5.30032 -1.68555,-5.37109 z m -0.18164,0.56836 c 0.5931,0.0612 1.06276,1.87057 1.06445,5.1582 0.002,4.596 -1.26324,7.89715 -10.15039,26.5 -5.58347,11.6875 -10.70315,21.25 -11.3789,21.25 -0.67575,0 -1.78992,-0.675 -2.47461,-1.5 -0.68469,-0.825 -1.8654,-1.5 -2.62305,-1.5 -0.75766,0 -1.37695,-0.26762 -1.37695,-0.5957 0,-0.32808 5.58463,-10.11558 12.41015,-21.75 6.82553,-11.63442 12.7119,-22.6168 13.08008,-24.4043 0.45232,-2.19601 0.98792,-3.20577 1.44922,-3.1582 z m 140.05469,1.13867 c -1.55583,0.19971 -4.07251,2.43912 -7.62696,6.75976 -3.21865,3.91244 -6.00752,6.51789 -6.21679,5.80469 -0.99976,-3.40725 -7.42714,-5.11779 -9.90821,-2.63672 -0.87682,0.87682 -1.52889,0.85024 -2.6875,-0.11133 -1.98504,-1.64743 -4.3664,-0.69181 -5.42382,2.17774 -1.68378,4.56929 -2.16332,7.77539 -1.16407,7.77539 0.55256,0 1.5077,-1.99957 2.12305,-4.44336 0.95769,-3.80332 1.36082,-4.29185 2.80078,-3.39258 1.16857,0.72978 1.56864,2.03701 1.30664,4.28125 -0.24163,2.06976 0.20853,3.8179 1.25391,4.86328 1.48235,1.48235 1.48998,1.90377 0.0898,4.61133 -1.03163,1.99496 -1.54101,5.77549 -1.54101,11.43164 0,6.90614 -0.45508,9.42703 -2.49024,13.79883 -2.11609,4.54561 -2.492,6.82073 -2.5,15.13281 -0.005,5.37994 -1.17056,17.52994 -2.58984,27 -1.41929,9.47007 -2.34721,18.6793 -2.0625,20.4668 l 0.51758,3.25 -21.1875,-0.0117 -21.1875,-0.0117 -2.1836,-3.37304 -2.18554,-3.375 2.86328,-12.36329 c 1.57431,-6.80043 3.28881,-13.49023 3.81054,-14.86523 0.52172,-1.375 1.2762,-6.325 1.67578,-11 0.49585,-5.80116 1.2765,-9.13502 2.45899,-10.5 0.95294,-1.1 6.49021,-10.84374 12.30469,-21.65234 8.49011,-15.78233 10.63918,-20.60661 10.91406,-24.5 0.30285,-4.28952 0.11229,-4.84766 -1.65039,-4.84766 -1.43155,0 -2.84428,1.68845 -5.02149,6 -3.7962,7.51763 -23.19734,36.5 -24.43359,36.5 -0.50374,0 -1.91786,-1.4625 -3.14258,-3.25 -5.41102,-7.89748 -12.46407,-13.51851 -15.5,-12.35352 -0.77536,0.29753 -1.41015,-0.0354 -1.41015,-0.74023 0,-0.70484 -1.32882,-2.55515 -2.95313,-4.11133 -2.64967,-2.53855 -3.42736,-2.76485 -7.56836,-2.19726 -3.71177,0.50875 -5.36982,0.19923 -8.46484,-1.58204 -3.75031,-2.15841 -3.94195,-2.16919 -7.50781,-0.46875 -4.42147,2.10845 -4.11681,4.16692 0.63671,4.30665 5.40513,0.15886 8.58848,2.7838 9.03321,7.44726 0.25571,2.68141 -0.0208,3.94922 -0.86328,3.94922 -0.68268,0 -1.64484,0.7875 -2.13672,1.75 -1.4369,2.81166 -2.21456,8.25 -1.17969,8.25 0.52052,0 1.32629,-1.4625 1.78906,-3.25 0.9652,-3.7282 4.8487,-6.29904 6.91992,-4.58008 0.70583,0.58579 2.45328,0.84164 3.88282,0.56836 2.01555,-0.3853 4.45894,0.82948 10.88086,5.41016 6.72079,4.79385 8.58728,6.71038 9.90625,10.16406 2.3265,6.09185 2.15029,23.43979 -0.37696,37.19531 l -2,10.89453 3.19727,3.29883 3.19726,3.29883 -73.69531,0 c -42.26682,0 -60.28166,-0.0297 -68.38476,-0.43555 l 0,0.99024 c 1.84281,-9e-5 3.33365,1.4e-4 5.1875,0 138.6,-0.0106 239.86454,-0.1486 225.03125,-0.30469 -21.90633,-0.23051 -27.11715,-0.54619 -27.75586,-1.6875 -0.43248,-0.77281 -2.13452,-1.70082 -3.78125,-2.0625 -2.4218,-0.53192 -2.98976,-1.16799 -2.97266,-3.32813 0.0329,-4.1584 9.03816,-40.14125 10.05078,-40.16015 0.31492,-0.006 7.02418,6.5352 14.9082,14.53711 7.88401,8.00191 15.05168,14.91844 15.92774,15.36914 2.83685,1.45944 8.91021,2.18536 9.55469,1.14258 0.34007,-0.55026 -8.10567,-10.73521 -18.76758,-22.63477 L 445.22404,86.12893 447.59709,74.4844 c 2.18287,-10.71049 2.25775,-12.00024 0.92383,-16.07422 l -1.45117,-4.42773 3.91601,-4.57227 c 11.99556,-14.00294 13.97158,-16.59973 13.70117,-18.0039 -0.25817,-1.34057 -0.8458,-1.95577 -1.77929,-1.83594 z m 0.11523,0.76758 c 0.5912,-0.05 0.89063,0.39736 0.89063,1.34765 0,1.23019 -2.41846,4.30365 -14.08594,17.90235 -2.24042,2.61126 -4.50916,6.32376 -5.04102,8.25 -1.06509,3.85745 -2.30929,4.28608 -5.64843,1.94726 -2.05718,-1.44091 -2.1139,-1.75668 -0.78516,-4.32617 0.78858,-1.52495 3.46687,-4.44123 5.95312,-6.47852 2.48624,-2.03729 7.30153,-7.06427 10.69922,-11.17187 4.00879,-4.84638 6.71694,-7.36061 8.01758,-7.4707 z m -50.61719,9.8789 c 0.85078,0.048 1.25712,1.67645 0.82032,4.86328 -0.45268,3.30267 -3.83217,10.65293 -11.14844,24.25 -5.77411,10.73099 -11.15822,20.28679 -11.96484,21.23633 -1.37646,1.62033 -1.64797,1.57423 -4.41016,-0.75 -3.50162,-2.94642 -4.0086,-3.00763 -6.03125,-0.72656 -0.85347,0.9625 -1.7147,2.63932 -1.91406,3.72656 -0.27177,1.48218 -0.76377,0.95803 -1.96485,-2.09961 -1.24301,-3.16442 -3.1921,-5.17467 -8.70508,-8.96875 -6.06829,-4.17624 -6.81508,-4.99691 -5.11718,-5.625 2.6255,-0.97124 3.54275,-3.59226 2.07812,-5.9375 -0.9428,-1.50967 -0.89205,-2.00045 0.25196,-2.43945 2.25636,-0.86585 7.18767,2.20155 10.80273,6.72266 1.82143,2.27794 5.15596,6.21982 7.41016,8.75781 2.2542,2.53799 4.60218,5.51328 5.21875,6.61328 0.61658,1.1 1.13564,1.47343 1.15234,0.82812 0.0167,-0.6453 -1.08603,-2.49908 -2.44922,-4.11914 L 383.9565,83.6035 395.47213,66.46678 c 6.33372,-9.42444 12.38344,-19.15815 13.44336,-21.63086 1.34408,-3.13562 2.63946,-4.66716 3.49023,-4.61914 z m 34.24024,4.09375 c 0.76793,0.0284 1.20002,0.33012 0.79687,0.98242 -0.3241,0.52439 -1.92522,1.9053 -3.55859,3.06836 -3.17932,2.26388 -4.05949,0.9973 -1.57813,-2.27148 0.84575,-1.11413 3.05996,-1.82657 4.33985,-1.7793 z m -0.0352,10.5293 1.14063,4 c 0.96551,3.38793 0.72781,6.09906 -1.55469,17.71289 -2.53996,12.92379 -2.76758,13.54172 -3.94141,10.75 -0.96618,-2.29786 -1.8841,-2.96289 -4.09375,-2.96289 -2.90652,0 -5.27139,1.56551 -5.21679,3.45117 0.0167,0.5775 0.48821,0.26133 1.04882,-0.70117 0.59377,-1.01945 2.20942,-1.75 3.8711,-1.75 2.28233,0 3.06706,0.61206 3.91992,3.05859 1.24857,3.58165 -0.61607,15.00636 -4.30859,26.40039 -3.00458,9.27126 -6.07563,24.75971 -5.30664,26.76368 0.33533,0.87384 1.98862,1.89311 3.67578,2.26367 1.68716,0.37056 3.06836,1.08745 3.06836,1.59375 0,0.50629 -2.46595,0.91992 -5.48047,0.91992 -5.06721,0 -5.5301,-0.19625 -6.13281,-2.59766 -0.35857,-1.42861 0.52951,-10.99111 1.9746,-21.25 1.44509,-10.25888 2.78455,-23.15234 2.97657,-28.65234 0.27188,-7.78731 0.82668,-10.9304 2.50586,-14.20898 1.68201,-3.2841 2.15625,-5.98405 2.15625,-12.27344 l 0,-8.0625 2.49218,1.63281 c 3.26083,2.13658 5.22094,1.26994 6.31641,-2.79102 l 0.88867,-3.29687 z m -107.1914,2.86914 c 1.81755,0.0161 4.24861,1.19695 10.82031,4.61133 11.9276,6.19709 13.86477,7.70071 13.46875,10.45508 -0.16171,1.12473 -0.96992,2.12781 -1.79492,2.23047 -1.63596,0.20354 -10.00973,-5.2491 -11.29883,-7.35743 -0.43983,-0.71935 -1.25899,-1.30859 -1.81836,-1.30859 -0.55937,0 -2.6072,-1.21287 -4.55078,-2.69531 -2.34868,-1.79143 -4.6722,-2.66176 -6.93164,-2.59766 -4.22961,0.1199 -4.37004,-1.06244 -0.32422,-2.73828 0.9032,-0.37412 1.60352,-0.6069 2.42969,-0.59961 z m 16.79101,2.71094 c 0.94232,0.004 2.17175,0.79022 3.63672,2.34961 3.27687,3.48807 2.20365,4.72345 -2.15039,2.47656 -2.51275,-1.29671 -3.5301,-2.40224 -3.14258,-3.41211 0.36352,-0.94731 0.92333,-1.41712 1.65625,-1.41406 z m -59.81055,18.94531 c 1.2881,-0.0124 2.57505,0.26482 2.93164,0.8418 0.29449,0.4765 -0.35437,1.67054 -1.4414,2.65429 -2.34877,2.1256 -2.5481,4.76121 -0.48828,6.47071 2.16185,1.79418 0.90512,3.00781 -3.11328,3.00781 -5.31786,0 -7.17636,1.52183 -8.89063,7.27539 -0.8564,2.87432 -2.18269,6.34961 -2.94922,7.72461 -1.32935,2.38461 -1.3688,2.30629 -0.83789,-1.71289 0.50426,-3.81745 0.31196,-4.3244 -2.04101,-5.39649 -2.03462,-0.92704 -2.92867,-0.90855 -4.12696,0.0859 -1.26848,1.05275 -1.52929,0.98592 -1.52929,-0.39258 0,-5.37049 10.00423,-16.76582 15.8457,-18.04882 1.72206,-0.37823 3.3874,-1.10364 3.70117,-1.61133 0.36088,-0.58391 1.65136,-0.886 2.93945,-0.89844 z m 5.4629,2.98242 c 1.57835,0.004 11.05345,5.5113 24.86523,14.45313 12.27291,7.94557 23.18541,14.72265 24.25,15.06054 1.06458,0.33788 1.93555,1.25894 1.93555,2.04688 0,1.39589 -1.375,1.58262 -5.54102,0.7539 -2.31398,-0.4603 -44.75617,-22.27895 -48.20898,-24.7832 -3.97106,-2.88013 -2.29968,-7.54415 2.69922,-7.53125 z m 143.55078,5.05469 18.5,20.66211 c 10.175,11.36419 18.65065,21.02507 18.83398,21.46875 0.52382,1.2677 -8.0389,-0.14862 -9.63476,-1.59375 -0.38459,-0.34827 -7.33392,-7.2642 -15.44336,-15.36719 -9.54657,-9.53898 -14.71953,-15.43748 -14.67383,-16.73242 0.0388,-1.1 0.59848,-3.44838 1.24414,-5.21875 l 1.17383,-3.21875 z m -63.36524,1.08789 c 0.59042,0.0516 1.30615,0.54962 2.60547,1.5332 2.67382,2.02406 2.75071,2.3535 2.49023,10.45313 -0.14791,4.59988 -0.91644,10.38828 -1.70898,12.86328 -0.79253,2.475 -2.55949,9.41556 -3.92578,15.42383 -2.47327,10.8762 -2.47463,10.93603 -0.53906,13.65429 1.06926,1.50162 1.94336,2.99858 1.94336,3.32618 0,1.61918 -2.95346,0.23914 -5.82227,-2.72071 l -3.21484,-3.3164 1.61718,-7.9336 c 0.88858,-4.36344 1.92631,-15.24632 2.30665,-24.18554 0.56755,-13.33904 0.99521,-16.55772 2.39062,-17.95313 0.80017,-0.80017 1.26701,-1.19611 1.85742,-1.14453 z m -104.8457,12.05664 c 0.50283,-0.0216 1.06183,0.0878 1.7207,0.29688 2.68385,0.85183 2.6726,5.90078 -0.0176,8.24609 -6.74954,5.88428 -19.08515,19.10135 -19.59961,21 -0.94388,3.48343 -2.39257,2.65849 -2.39257,-1.36328 0,-3.04882 1.11025,-4.88843 7.09375,-11.75 3.9018,-4.47437 7.94598,-9.79318 8.98632,-11.81836 1.6949,-3.29941 2.70048,-4.54643 4.20899,-4.61133 z m 1.72266,10.94922 c 0.89443,-0.0526 1.70145,0.15848 2.24218,0.69922 0.76012,0.76012 0.81655,2.28638 0.17774,4.86523 -1.07819,4.35252 -2.93208,5.03936 -6.38477,2.36524 -2.166,-1.67757 -2.31532,-2.1996 -1.2832,-4.46485 0.8923,-1.95835 3.28028,-3.34905 5.24805,-3.46484 z"
       style="fill:#000000"
       inkscape:connector-curvature="0" />
  </g>
</svg>
