<?xml version="1.0" encoding="UTF-8" standalone="no"?>
<!-- Created with Inkscape (http://www.inkscape.org/) -->

<svg
   xmlns:dc="http://purl.org/dc/elements/1.1/"
   xmlns:cc="http://creativecommons.org/ns#"
   xmlns:rdf="http://www.w3.org/1999/02/22-rdf-syntax-ns#"
   xmlns:svg="http://www.w3.org/2000/svg"
   xmlns="http://www.w3.org/2000/svg"
   xmlns:sodipodi="http://sodipodi.sourceforge.net/DTD/sodipodi-0.dtd"
   xmlns:inkscape="http://www.inkscape.org/namespaces/inkscape"
   version="1.1"
   width="506.56631"
   height="193.29083"
   id="svg2"
   inkscape:version="0.91 r13725"
   sodipodi:docname="fx750202.svg">
  <sodipodi:namedview
     pagecolor="#ffe1e3"
     bordercolor="#666666"
     borderopacity="1"
     objecttolerance="10"
     gridtolerance="10"
     guidetolerance="10"
     inkscape:pageopacity="0"
     inkscape:pageshadow="2"
     inkscape:window-width="1220"
     inkscape:window-height="897"
     id="namedview11"
     showgrid="false"
     fit-margin-top="5"
     fit-margin-left="15"
     fit-margin-right="15"
     fit-margin-bottom="5"
     inkscape:zoom="0.95015576"
     inkscape:cx="227.89746"
     inkscape:cy="107.47067"
     inkscape:window-x="0"
     inkscape:window-y="0"
     inkscape:window-maximized="0"
     inkscape:current-layer="svg2" />
  <metadata
     id="metadata8">
    <rdf:RDF>
      <cc:Work
         rdf:about="">
        <dc:format>image/svg+xml</dc:format>
        <dc:type
           rdf:resource="http://purl.org/dc/dcmitype/StillImage" />
        <dc:title></dc:title>
      </cc:Work>
    </rdf:RDF>
  </metadata>
  <defs
     id="defs6" />
  <g
     id="g8280"
     transform="translate(-6.499994,-12.133654)">
    <path
       inkscape:connector-curvature="0"
       id="path8267"
       d="m 469.00391,111.5734 c -0.7828,0 -2.19292,0.9 -3.13477,2 -0.94185,1.1 -2.60038,2 -3.68555,2 -2.91466,0 -7.58398,4.91337 -7.58398,7.98242 0,3.29098 7.0964,10.577 9.42969,9.68164 2.56587,-0.98462 1.79269,0.97083 -1.47071,3.7168 -1.9246,1.61945 -4.85746,2.80225 -7.98242,3.21679 -5.12555,0.67993 -7.67485,2.46091 -6.42187,4.48828 0.50793,0.82185 2.86018,0.98431 7.83593,0.53907 6.80258,-0.60872 7.2709,-0.82016 10.83008,-4.88086 2.52665,-2.88269 3.7297,-3.70216 3.75,-2.55274 0.0164,0.9308 2.48132,3.80889 5.47852,6.39649 2.9972,2.58759 5.71929,5.40416 6.04687,6.25781 0.3629,0.94571 -1.6602,4.87241 -5.17773,10.05078 -4.51007,6.63955 -5.74977,9.27569 -5.66797,12.05078 0.11956,4.05536 4.39491,15.20337 7.41211,19.32422 2.22802,3.04299 1.84738,4.72852 -1.07031,4.72852 -1.04021,0 -2.26948,0.67234 -2.73047,1.49609 -0.73979,1.32193 -26.36338,1.52924 -218.29883,1.75391 l -217.462891,0.2539 235.000001,0.0332 c 129.25,0.0187 229.91211,-0.10941 223.69336,-0.28515 -10.31088,-0.29138 -11.25565,-0.4757 -10.74024,-2.09961 0.31085,-0.97943 -1.25759,-6.25203 -3.48437,-11.7168 -2.55446,-6.26896 -3.83911,-10.78026 -3.48047,-12.22266 0.31263,-1.25737 3.93148,-5.62603 8.04102,-9.70898 8.86423,-8.80688 9.09034,-9.96485 4.00781,-20.57031 -4.48573,-9.36015 -6.52641,-11.44577 -15.28711,-15.62891 -5.75316,-2.74707 -7.25,-3.91677 -7.25,-5.66211 0,-1.20968 -0.65926,-3.13893 -1.46484,-4.28906 -0.80564,-1.15013 -1.17929,-2.3754 -0.83204,-2.72265 1.42107,-1.42108 3.08548,-0.4393 4.86719,2.86914 1.68312,3.12537 4.42969,4.796 4.42969,2.69531 0,-1.65482 -6.22889,-9.19531 -7.5957,-9.19531 z"
       style="fill:#000000" />
    <g
       id="g2987">
      <path
         id="path2997"
         d="m 246.5332,28.291016 c -0.784,0.125601 -4.78618,3.686237 -9.29297,8.294922 -4.80724,4.915931 -10.38816,10.194089 -12.40234,11.728515 l -3.66211,2.789063 3.92774,4.197265 c 2.15982,2.309074 4.21461,5.294471 4.5664,6.632813 0.90873,3.457095 2.97476,7.222189 4.51367,8.222656 2.8695,1.865492 5.29097,0.421555 6.68555,-3.986328 1.66854,-5.273819 1.13901,-5.940067 -6,-7.525391 -2.95286,-0.655729 -5.36914,-1.71469 -5.36914,-2.353515 0,-0.638824 3.27098,-4.766984 7.26953,-9.173828 5.2001,-5.731102 7.73646,-9.454145 8.90625,-13.076172 0.89945,-2.785104 1.3365,-5.362722 0.9707,-5.728516 -0.0229,-0.02286 -0.061,-0.02986 -0.11328,-0.02148 z m 34.73438,18.980468 c -1.46713,0.09102 -2.71719,1.570955 -3.46289,4.304688 -2.18813,8.021534 -3.75952,17.679917 -3.07422,18.888672 0.42337,0.74674 2.26757,2.997935 4.09765,5.003906 1.84675,2.024243 4.06635,3.505673 4.98829,3.328125 2.46611,-0.47493 2.66713,-3.769312 0.33007,-5.40625 -1.11967,-0.784245 -2.99708,-2.775942 -4.17187,-4.425781 l -2.13672,-3 4.17773,-7.609375 4.17579,-7.609375 -2.10938,-2.109375 c -0.97435,-0.974346 -1.93417,-1.419846 -2.81445,-1.365235 z m -62.16992,4.888672 c -0.39243,0.01734 -0.7545,0.127936 -1.08789,0.333985 -1.48845,0.919912 -1.22647,4.207886 0.38476,4.826171 0.76681,0.294254 2.61214,2.133216 4.10156,4.085938 l 2.70899,3.550781 -4.17774,7.609375 c -3.99299,7.275438 -4.10073,7.694429 -2.44726,9.521485 3.64319,4.02569 5.51387,2.191888 7.73828,-7.587891 3.05335,-13.424303 3.07382,-12.797829 -0.52344,-17.291016 -2.74666,-3.430735 -4.99677,-5.123959 -6.69726,-5.048828 z m 67.21875,3.931641 c -1.2622,-0.06064 -2.42982,0.752363 -3.32227,2.419922 -1.23137,2.300842 -1.10422,2.763429 1.51758,5.5 3.48234,3.634774 3.85868,3.666479 5.32812,0.441406 1.54661,-3.394431 1.46767,-4.457232 -0.49414,-6.625 -1.00801,-1.113848 -2.04758,-1.689167 -3.02929,-1.736328 z m -20.88282,4.048828 c -1.72825,0.109528 -2.5208,1.472624 -3.47851,5.029297 -1.34796,5.005948 -0.80902,5.634468 6.17578,7.185547 2.95286,0.655729 5.36914,1.71469 5.36914,2.353515 0,0.638824 -3.24779,4.738981 -7.2168,9.113282 -6.47712,7.138516 -10.21993,13.672492 -10.26953,17.927734 -0.0286,2.45918 1.94707,1.16088 7.04688,-4.632812 2.84814,-3.23565 8.2141,-8.45732 11.92383,-11.603516 l 6.74414,-5.720703 -3.85743,-4.146485 C 275.74881,73.365829 273.74768,70.6 273.42578,69.5 c -1.52528,-5.212284 -3.6813,-8.526038 -5.91211,-9.085938 -0.82479,-0.207009 -1.50399,-0.309946 -2.08008,-0.273437 z m -50.49414,4.136719 c -0.38156,-0.006 -0.67026,0.250563 -0.97851,0.722656 -2.05833,3.152396 -2.21098,6.066246 -0.42383,8.041016 2.42263,2.676975 4.8577,2.457437 6.48437,-0.582032 1.26276,-2.359481 1.12949,-2.76866 -1.86132,-5.75 -1.68902,-1.683667 -2.58477,-2.42172 -3.22071,-2.43164 z M 105.17383,73 c -4.12673,0 -9.713869,9.311288 -10.501955,17.5 -0.317593,3.3 -0.877335,7.0125 -1.242187,8.25 -0.681388,2.31111 0.111446,2.74653 2.988281,1.64258 C 97.342308,100.03788 98,98.614741 98,96.96875 98,89.713871 102.46458,77.685049 105.95898,75.525391 107.62558,74.495376 107.16072,73 105.17383,73 Z m 70.90625,2.150391 c -0.7647,0.07143 -1.37252,0.497184 -1.97461,1.222656 -1.74452,2.102023 -0.28784,4.432079 3.22851,5.164062 1.74155,0.362531 5.01921,1.7242 7.28321,3.025391 3.77638,2.170396 4.17227,2.796916 4.80859,7.59375 0.38149,2.875789 0.9189,5.593011 1.19336,6.037109 1.07514,1.739604 2.37964,0.668903 2.36914,-1.943359 -0.0328,-8.196607 -1.05239,-10.215172 -7.99219,-15.822266 -4.79503,-3.874217 -7.23369,-5.434489 -8.91601,-5.277343 z m -67.9961,3.832031 c -0.27958,0.0064 -0.7417,0.274908 -1.17968,0.71289 -0.74904,0.749037 -0.28186,2.599193 1.58398,6.28125 2.4165,4.768745 2.50931,5.367783 1.07813,6.949219 C 108.70487,93.877769 108,95.355183 108,96.207031 c 0,0.851848 -0.675,2.10828 -1.5,2.792969 -1.58945,1.31913 -1.91346,3.75742 -0.86328,6.49414 0.47935,1.24916 1.31329,0.4218 3.3789,-3.35547 1.50837,-2.758255 3.69669,-6.227835 4.86329,-7.710936 C 115.04552,92.944632 116,91.289641 116,90.75 c 0,-0.758701 -3.86282,-6.61641 -7.70508,-11.683594 -0.0452,-0.05958 -0.11774,-0.08611 -0.21094,-0.08398 z m 44.78711,3.173828 C 150.0661,82.23523 147.3836,86.70871 145.55273,95 c -1.03233,4.675 -2.21774,8.89061 -2.63476,9.36914 -0.41702,0.47853 -3.3103,-1.20897 -6.42969,-3.75 C 133.3689,98.078108 131.28166,96 131.84961,96 c 0.56796,0 1.297,0.428734 1.62109,0.953125 0.3241,0.524392 2.03773,1.947281 3.8086,3.162105 3.06375,2.10177 3.03051,2.00876 -0.72266,-1.943355 -2.49983,-2.63233 -5.18452,-4.386921 -7.32812,-4.789063 -3.73905,-0.701451 -8.25146,0.866688 -8.18946,2.845704 0.0219,0.699292 4.74372,4.954604 10.49219,9.455074 10.21848,8.00004 12.78619,9.09291 16.2832,6.93164 1.50555,-0.93048 6.47661,-10.64715 9.27735,-18.132808 2.03478,-5.438436 2.03834,-5.574224 0.18359,-8.75 -1.4323,-2.452442 -2.93501,-3.617543 -4.4043,-3.576172 z m 25.97071,1.027344 c -0.23733,0.0076 -0.41539,0.05796 -0.51563,0.158203 -0.33574,0.33574 -0.0414,1.296475 0.6543,2.134765 1.34592,1.621736 6.01953,2.121954 6.01953,0.644532 0,-0.993921 -4.49692,-2.990986 -6.1582,-2.9375 z m -1.04102,3.474609 c -0.23061,0.01433 -0.44818,0.08864 -0.6543,0.220703 -1.07141,0.686477 -0.6542,1.911109 2,5.867188 1.8446,2.749375 4.11973,6.404629 5.05664,8.124996 0.93693,1.72038 2.39942,3.12891 3.25,3.12891 1.72799,0 2.10855,-2.53449 0.52735,-3.51172 -0.56045,-0.34638 -2.08774,-2.739533 -3.39453,-5.318358 -2.94783,-5.817266 -5.17088,-8.612003 -6.78516,-8.511719 z m -20.1582,1.650391 c 0.20305,0.203055 -1.68329,5.280161 -4.19141,11.28125 -2.50812,6.001096 -5.26582,11.585156 -6.1289,12.410156 -1.42456,1.3617 -1.42841,1.26949 -0.0391,-1 0.84175,-1.375 3.43337,-7.12515 5.75977,-12.779297 2.3264,-5.654145 4.39655,-10.115165 4.59961,-9.912109 z m -54.03516,1.736328 c -1.29176,-0.02132 -2.61322,0.359316 -3.4082,1.154297 -1.309739,1.309738 -1.628082,6.037933 -0.484376,7.18164 0.392726,0.392736 2.050086,0.579583 3.683596,0.416016 2.33238,-0.233544 3.13719,-0.927227 3.75,-3.236328 0.47845,-1.802836 0.35976,-3.447042 -0.30664,-4.25 -0.67998,-0.819322 -1.94262,-1.244308 -3.23438,-1.265625 z m -80.742186,2.789062 c -0.670833,-0.01402 -0.984507,0.282168 -0.699218,0.976563 0.183333,0.446236 4.117251,4.279806 8.740234,8.517573 C 39.433214,110.14459 44,115.45055 44,117.54102 c 0,0.63409 1.0125,1.64145 2.25,2.23828 2.894571,1.39599 2.57709,1.38398 4.816406,0.18554 C 52.293464,119.30813 53,117.8736 53,116.04102 53,112.8169 51.514921,111.42183 40.673828,104.4707 36.919006,102.06316 32.079184,98.497638 29.919922,96.546875 27.547672,94.403689 24.341068,92.864834 22.865234,92.833984 Z m 23.22461,6.09375 -1.619141,3.128906 c -0.890033,1.72113 -1.472977,3.25299 -1.294922,3.4043 0.178055,0.15132 1.674219,0.98362 3.324219,1.84961 2.745375,1.44087 3.106094,1.43645 4.25,-0.0586 1.912046,-2.49898 1.522367,-3.92256 -1.705078,-6.2207 l -2.955078,-2.103516 z m 38.664062,24.505856 c -1.255793,0.11685 -3.012711,5.84925 -4.742187,15.77344 -1.082347,6.21079 -3.324452,16.69297 -4.982422,23.29297 -1.657971,6.6 -3.017184,12.07953 -3.021485,12.17773 -0.0043,0.0982 0.700168,0.88572 1.564454,1.75 1.94456,1.94454 2.441861,1.95202 5.136718,0.0645 3.187347,-2.2325 4.828349,-5.97096 12.296875,-27.99219 3.730663,-11 7.132258,-20.86134 7.558594,-21.91406 0.558069,-1.37801 0.436328,-1.70411 -0.4375,-1.16406 -0.667559,0.41257 -1.869512,0.20724 -2.669922,-0.45704 -1.139506,-0.94572 -2.122816,-0.932 -4.533203,0.0664 -4.255639,1.76275 -5.539808,4.17207 -7.345703,13.78711 -0.85937,4.5755 -2.204986,10.6505 -2.990234,13.5 -0.785247,2.84949 -2.177311,8.70492 -3.09375,13.01172 -0.91644,4.30679 -1.852097,7.644 -2.080079,7.41601 -0.227981,-0.22798 0.716896,-5.32626 2.09961,-11.33007 C 78.896387,155.4122 80.924457,146.225 82.021484,141 c 1.097026,-5.225 2.491364,-10.7298 3.09961,-12.23242 0.608247,-1.50262 0.79606,-3.52762 0.416015,-4.5 -0.230065,-0.58864 -0.493404,-0.86095 -0.783203,-0.83399 z m -31.480468,16.60938 c -1.607666,-0.0835 -3.402717,0.33075 -4.697266,1.27734 -1.735258,1.26886 -1.73634,1.66941 -0.05078,10.25 0.964759,4.91125 2.168965,10.04291 2.675781,11.4043 0.506817,1.3614 2.027479,8.04006 3.380859,14.8418 1.952064,9.81057 2.251311,13.12355 1.445313,16.02539 -0.558804,2.01187 -1.018385,4.2207 -1.021485,4.9082 -0.0031,0.6875 0.574098,1.25 1.283203,1.25 1.885891,0 7.9602,-10.98511 6.841797,-12.37305 C 62.631826,187.00764 61.737996,181.775 61.142578,176 c -0.595417,-5.775 -1.598785,-15.45 -2.228516,-21.5 -0.62973,-6.05 -1.558536,-11.7875 -2.064453,-12.75 -0.547838,-1.04225 -1.968506,-1.62356 -3.576171,-1.70703 z"
         style="fill:#fefefe"
         inkscape:connector-curvature="0" />
      <path
         id="path2993"
         d="m 276.70117,47.072266 c -1.09038,-0.09554 -3.13969,0.257412 -6.66601,1.013672 -3.83964,0.823456 -5.66418,1.872088 -7.54493,4.33789 -2.64002,3.461242 -4.86682,12.433174 -3.78515,15.251953 0.54856,1.429533 0.79614,1.313959 1.58203,-0.740234 0.51234,-1.339157 1.32939,-3.459955 1.81445,-4.712891 1.26355,-3.263844 3.65992,-3.80555 7.55664,-1.707031 4.04139,2.176433 4.67246,1.670491 6.25196,-5.015625 0.64965,-2.75 1.41592,-5.7875 1.70312,-6.75 0.30975,-1.03809 0.17828,-1.582197 -0.91211,-1.677734 z m -32.94922,15.748046 c -0.47824,-0.01318 -1.14348,0.971295 -1.86523,3.205079 -1.89873,5.876469 -3.90166,6.958785 -8.39844,4.537109 -4.19389,-2.258559 -4.81074,-1.783318 -6.39844,4.9375 -0.64965,2.75 -1.41592,5.7875 -1.70312,6.75 -0.61949,2.076179 0.52548,2.176581 7.57812,0.664062 6.24484,-1.339279 9.57655,-5.22411 11.02344,-12.853515 0.83865,-4.422181 0.56074,-7.218273 -0.23633,-7.240235 z m -67.44531,10.185547 c -2.46381,0.02002 -23.01162,6.321726 -24.10547,7.392579 -1.05895,1.036696 -0.88276,1.254566 0.95508,1.185546 1.5003,-0.05634 2.93813,0.989679 4.29883,3.126954 2.35407,3.697589 3.22657,3.884257 7.84961,1.679687 3.03317,-1.446423 3.66924,-1.455582 6.30273,-0.09375 2.25458,1.165891 3.27878,1.249168 4.44727,0.359375 C 177.86059,85.281088 177.44197,82 175.46094,82 c -0.76532,0 -1.91715,-0.983346 -2.56055,-2.185547 -1.01301,-1.892839 -0.80829,-2.496005 1.52149,-4.5 1.47972,-1.272799 2.32793,-2.312194 1.88476,-2.308594 z m -75.59961,26.738282 c -1.239488,0.0093 -2.841427,0.564119 -4.958983,1.611329 -3.251967,1.60821 -3.962076,2.60922 -5.310547,7.5 -0.855894,3.10424 -2.446891,7.31088 -3.535156,9.34765 -1.637206,3.06415 -1.765189,4.04396 -0.746094,5.67579 1.142102,1.8288 1.443154,1.86347 4.128906,0.47461 1.666134,-0.86159 3.599902,-1.17849 4.554688,-0.7461 4.039429,1.82931 4.947838,1.2104 6.595706,-4.49804 0.89054,-3.08497 2.19431,-6.64031 2.89843,-7.9004 0.96439,-1.72584 1.028,-3.38098 0.25586,-6.70898 -0.75867,-3.27001 -1.81699,-4.771377 -3.88281,-4.755859 z M 54.208984,116.02148 c -0.140751,-0.005 -0.163524,0.39818 -0.177734,1.20508 -0.01673,0.94982 -1.121987,2.44294 -2.455078,3.31641 -2.214531,1.45065 -2.689403,1.44951 -5.5,-0.004 L 43,118.94922 l 0,2.81055 c 0,1.54569 0.9,5.3703 2,8.5 1.1,3.12969 2,6.84191 2,8.25 0,2.29663 0.21809,2.44465 2.115234,1.42968 1.163162,-0.62253 3.477618,-0.93186 5.142578,-0.6875 l 3.025391,0.44336 -0.583984,-10.33398 c -0.321895,-5.68424 -1.046825,-11.1282 -1.611328,-12.09766 -0.479565,-0.82358 -0.738155,-1.23743 -0.878907,-1.24219 z"
         style="fill:#fefe00"
         inkscape:connector-curvature="0" />
      <path
         id="path2991"
         d="m 235.0332,17.277344 c -1.07068,-0.03538 -2.04602,0.0095 -2.88476,0.15039 C 227.87817,18.14501 217,22.996476 217,24.183594 c 0,1.230868 0.61954,1.046478 6.2832,-1.871094 7.83908,-4.03821 16.84669,-3.857564 26.19141,0.523438 5.18567,2.431149 6.60393,3.497951 5.5293,4.162109 -1.6637,1.028226 -1.54729,1.184512 2.49609,3.330078 4.97817,2.641598 5.12495,2.488733 3.3418,-3.462891 -1.19525,-3.989402 -2.83043,-5.199399 -2.85742,-2.115234 -0.009,1.042316 -0.31242,1.322341 -0.75,0.691406 -2.54913,-3.675447 -14.70637,-7.91637 -22.20118,-8.164062 z"
         style="fill:#fe0000"
         inkscape:connector-curvature="0" />
      <path
         id="path2989"
         d="m 246.47461,27.511719 c -1.2047,0.107496 -3.58979,2.204101 -8.74805,7.519531 -7.88189,8.122052 -14.95273,14.215158 -19.22656,16.570312 -2.7598,1.520827 -3.10721,5.00282 -0.63086,6.328126 1.09513,0.586094 2.94597,2.404409 4.11133,4.041015 1.71753,2.412051 1.90772,3.371752 1.00391,5.060547 -1.08805,2.033016 -1.21076,1.996385 -5.05274,-1.474609 C 215.48141,63.343 212.98201,62 211.3125,62 208.00437,62 204,65.588119 204,68.552734 c 0,1.212043 -0.95697,2.838401 -2.12695,3.615235 l -2.12696,1.412109 2.12696,4.169922 C 203.04303,80.04334 204,82.614026 204,83.460938 c 0,2.27033 1.76074,1.871929 2.53711,-0.574219 0.44486,-1.401619 -0.039,-3.074619 -1.43359,-4.960938 -2.62754,-3.553938 -2.71779,-4.791281 -0.18164,-2.496093 1.05731,0.956853 3.79402,1.990251 6.08007,2.296874 3.01691,0.404653 4.37733,1.142202 4.96485,2.6875 1.40527,3.696149 5.18685,4.948208 12.63086,4.185547 7.91358,-0.810771 9.49423,-1.541805 12.85742,-5.951171 3.02435,-3.96513 5.01658,-12.899854 3.50586,-15.722657 -1.32371,-2.473374 -5.37904,-4.509775 -10.76172,-5.404297 -2.36564,-0.393134 -4.16564,-1.096869 -4,-1.564453 0.16563,-0.467585 3.57176,-4.451211 7.57031,-8.851562 7.81776,-8.603362 11.83427,-16.902049 9.37109,-19.365235 -0.17176,-0.171764 -0.388,-0.253322 -0.66601,-0.228515 z m 0.0586,0.779297 c 0.0523,-0.0084 0.0904,-0.0014 0.11328,0.02148 0.3658,0.365794 -0.0712,2.943412 -0.9707,5.728516 -1.16979,3.622027 -3.70615,7.34507 -8.90625,13.076172 -3.99855,4.406844 -7.26953,8.535004 -7.26953,9.173828 0,0.638825 2.41628,1.697786 5.36914,2.353515 7.13901,1.585324 7.66854,2.251572 6,7.525391 -0.95619,3.022261 -1.97319,4.402778 -3.36914,4.570312 -2.54996,0.306032 -5.5,-1.426589 -5.5,-3.230468 0,-0.765211 -0.44458,-1.665928 -0.98828,-2.001954 -0.56686,-0.350339 -0.73407,0.04953 -0.39258,0.939454 C 230.94669,67.300832 230.69626,68 230.0625,68 c -0.763,0 -0.94291,-1.120122 -0.53125,-3.314453 0.52994,-2.824842 0.0756,-3.96868 -3.07422,-7.75 -2.03238,-2.439825 -4.11549,-4.702087 -4.62891,-5.027344 -0.51342,-0.325257 0.77786,-1.895038 2.86915,-3.488281 2.0913,-1.593242 7.73572,-6.918053 12.54296,-11.833984 4.50679,-4.608685 8.50897,-8.169321 9.29297,-8.294922 z m 51.68555,17.75 c -0.57082,-0.03037 -1.31915,0.696307 -1.75586,2.072265 -0.44486,1.401619 0.039,3.074619 1.43359,4.960938 2.62754,3.553938 2.7178,4.791282 0.18164,2.496093 -1.05732,-0.956853 -3.79402,-1.990251 -6.08007,-2.296874 -3.01691,-0.404654 -4.37733,-1.142202 -4.96485,-2.6875 -1.40527,-3.696148 -5.18685,-4.948208 -12.63086,-4.185547 -7.91358,0.810771 -9.49423,1.541806 -12.85742,5.951171 -3.02435,3.96513 -5.01658,12.899854 -3.50586,15.722657 1.32371,2.473374 5.37904,4.509775 10.76172,5.404297 2.36564,0.393134 4.16564,1.096869 4,1.564453 -0.16563,0.467585 -3.55369,4.42961 -7.5293,8.804687 -7.10651,7.820563 -11.13384,15.465612 -9.875,18.746094 0.909,2.36882 2.19834,1.63159 7.60157,-4.34375 6.29462,-6.96111 17.57018,-16.933349 21.00195,-18.574219 3.18779,-1.52421 3.8124,-5.17035 1.13086,-6.605469 -1.09513,-0.586094 -2.94597,-2.404409 -4.11133,-4.041015 -1.71753,-2.412051 -1.90772,-3.371752 -1.00391,-5.060547 1.08804,-2.033016 1.21076,-1.996385 5.05274,1.474609 C 287.51859,67.657 290.01799,69 291.6875,69 294.99563,69 299,65.411881 299,62.447266 c 0,-1.212043 0.95697,-2.838401 2.12695,-3.615235 L 303.25391,57.419922 301.12695,53.25 C 299.95697,50.95666 299,48.385973 299,47.539062 c 0,-0.993269 -0.33728,-1.474429 -0.78125,-1.498046 z m -21.51758,1.03125 c 1.09039,0.09554 1.22186,0.639645 0.91211,1.677734 -0.2872,0.9625 -1.05347,4 -1.70312,6.75 -1.5795,6.686116 -2.21057,7.192058 -6.25196,5.015625 -3.89672,-2.098519 -6.29309,-1.556813 -7.55664,1.707031 -0.48506,1.252936 -1.30211,3.373734 -1.81445,4.712891 -1.54135,4.028862 -2.39103,-0.111413 -1.25391,-6.107422 1.42651,-7.521937 4.78225,-11.408299 11.00196,-12.742187 3.52632,-0.75626 5.57563,-1.10921 6.66601,-1.013672 z m 4.56641,0.199218 c 0.88028,-0.05461 1.8401,0.390889 2.81445,1.365235 l 2.10938,2.109375 -4.17579,7.609375 -4.17773,7.609375 2.13672,3 c 1.17479,1.649839 3.0522,3.641536 4.17187,4.425781 1.12921,0.790932 1.87915,2.240452 1.6836,3.255859 -0.60242,3.128125 -3.5222,2.636468 -7.00196,-1.177734 -1.83008,-2.005971 -3.67428,-4.257166 -4.09765,-5.003906 -0.6853,-1.208755 0.88609,-10.867138 3.07422,-18.888672 0.7457,-2.733733 1.99576,-4.213669 3.46289,-4.304688 z m -62.16992,4.888672 c 1.70049,-0.07513 3.9506,1.618093 6.69726,5.048828 3.59726,4.493187 3.57679,3.866713 0.52344,17.291016 -0.87569,3.85 -2.03592,7.5625 -2.57813,8.25 -1.40021,1.77542 -3.15905,1.549092 -5.16015,-0.662109 -1.65347,-1.827056 -1.54573,-2.246047 2.44726,-9.521485 l 4.17774,-7.609375 -2.70899,-3.550781 c -1.48942,-1.952722 -3.33475,-3.791683 -4.10156,-4.085938 -1.61123,-0.618284 -1.87321,-3.906259 -0.38476,-4.826171 0.33339,-0.206049 0.69546,-0.316647 1.08789,-0.333985 z m 67.21875,3.931641 c 0.98171,0.04716 2.02128,0.62248 3.02929,1.736328 1.96181,2.167768 2.04075,3.230569 0.49414,6.625 -1.46944,3.225073 -1.84578,3.193368 -5.32812,-0.441406 -2.6218,-2.736571 -2.74895,-3.199158 -1.51758,-5.5 0.89245,-1.667559 2.06007,-2.480558 3.32227,-2.419922 z m -20.88282,4.048828 c 0.57609,-0.03651 1.25529,0.06643 2.08008,0.273437 2.23081,0.5599 4.38683,3.873654 5.91211,9.085938 0.3219,1.1 2.32303,3.865829 4.44531,6.146484 l 3.85743,4.146485 -6.74414,5.720703 c -3.70974,3.146196 -9.07569,8.367865 -11.92383,11.603516 -7.1024,8.068752 -8.57173,7.808042 -5.51172,-0.978516 0.92628,-2.659714 4.33404,-7.466742 8.73437,-12.316406 3.96901,-4.374301 7.2168,-8.474458 7.2168,-9.113282 0,-0.638825 -2.41628,-1.697786 -5.36914,-2.353515 -6.9848,-1.551079 -7.52374,-2.179599 -6.17578,-7.185547 0.95771,-3.556672 1.75026,-4.919769 3.47851,-5.029297 z m -21.68164,2.679687 c 0.79707,0.02196 1.07498,2.818054 0.23633,7.240235 -1.44689,7.629405 -4.7786,11.514236 -11.02344,12.853515 -7.05264,1.512519 -8.19761,1.412117 -7.57812,-0.664062 0.2872,-0.9625 1.05347,-4 1.70312,-6.75 1.5877,-6.720818 2.20455,-7.196059 6.39844,-4.9375 4.49678,2.421676 6.49971,1.33936 8.39844,-4.537109 0.72175,-2.233784 1.38699,-3.218256 1.86523,-3.205079 z m 29.14649,0.123047 c 0.20854,-0.02161 0.45095,0.074 0.70508,0.328125 0.33229,0.332292 0.41519,1.172403 0.18359,1.867188 -0.33872,1.016206 -0.57505,1.015511 -1.20508,-0.0039 -0.62552,-1.012118 -0.30923,-2.126565 0.31641,-2.191413 z m -57.95899,1.333985 c 0.63594,0.0099 1.53169,0.747973 3.22071,2.43164 2.99081,2.98134 3.12408,3.390519 1.86132,5.75 -1.62667,3.039469 -4.06174,3.259007 -6.48437,0.582032 -1.78715,-1.97477 -1.6345,-4.88862 0.42383,-8.041016 0.30825,-0.472093 0.59695,-0.728609 0.97851,-0.722656 z M 180.66406,67 C 178.88339,67 178,67.533504 178,68.607422 c 0,1.078911 0.53895,1.399276 1.64062,0.976562 0.90249,-0.346349 2.52553,-0.348618 3.60547,-0.0059 1.79957,0.571161 1.72349,0.771223 -0.89257,2.388672 -1.97197,1.219226 -3.39652,1.48552 -4.60938,0.861328 -1.20197,-0.618592 -5.3869,0.09463 -13.26953,2.263672 -10.61765,2.921639 -11.7521,3.472048 -14.60352,7.072265 -2.68705,3.392669 -7.02365,15.865986 -7.16601,20.613279 -0.0211,0.70278 -0.52526,1.09653 -1.1211,0.875 -0.59583,-0.22153 -0.99545,-0.83862 -0.88671,-1.37109 0.42683,-2.09011 -8.3323,-9.348175 -12,-9.94336 -4.07707,-0.661617 -9.04883,1.77184 -8.50782,4.164062 0.17115,0.756742 5.14327,5.200268 11.05078,9.874998 11.06319,8.75453 13.54586,9.72695 17.11915,6.69922 2.11366,-1.79095 6.71645,-10.54276 9.63867,-18.324218 1.73049,-4.608036 2.5168,-5.475227 6.40234,-7.066406 4.31857,-1.768515 4.52421,-1.765006 8.26367,0.150391 3.52658,1.806355 4.96589,3.59262 10.42969,12.947263 2.19487,3.75788 4.51969,5.00375 6.20117,3.32227 0.88038,-0.88041 0.87251,-1.57585 -0.0312,-2.88281 -1.97229,-2.852239 -7.27419,-12.546121 -7.00781,-12.812505 0.13652,-0.136518 1.42838,-0.544155 2.87109,-0.90625 2.53969,-0.637423 2.64436,-0.482373 3.31055,4.84961 0.70008,5.60326 2.53288,8.400025 4.64648,7.09375 1.64159,-1.014554 0.3573,-12.300857 -1.65234,-14.521485 -1.03621,-1.145007 -1.20259,-1.948125 -0.49609,-2.384765 0.58583,-0.362062 1.06064,-2.094569 1.05664,-3.84961 C 191.98238,74.529646 184.68677,67 180.66406,67 Z m -75.61914,5 C 103.31521,72 97,78.160189 97,79.847656 97,80.275863 95.425,81.244689 93.5,82 c -3.706244,1.454217 -4.892388,3.598067 -1.5,2.710938 1.763675,-0.461212 1.999059,-0.03244 1.994141,3.632812 -0.0095,7.051593 -4.771168,23.30826 -9.607422,32.80078 -2.428825,4.76727 -3.943483,9.85197 -5.363281,18 -1.088321,6.24574 -3.319926,16.70793 -4.958985,23.25 -2.982758,11.90524 -2.952603,14.6799 0.173828,15.93945 2.072274,0.83486 2.383969,0.75064 5.066407,-1.35937 C 82.975607,174.08707 84.390315,170.93386 92.076172,148.5 104.88516,111.1125 106.51923,107.16034 113.62891,96.396484 115.48292,93.589556 117,90.980101 117,90.597656 117,89.527115 108.69692,78 107.92578,78 c -1.82549,0 -3.03014,2.938959 -1.99609,4.871094 1.48708,2.778649 1.43954,2.836294 -1.92969,2.341797 -1.65,-0.242169 -3,-0.629402 -3,-0.861329 0,-0.755977 3.32237,-5.798638 5.28906,-8.027343 C 108.41613,73.913757 107.86592,72 105.04492,72 Z m 0.12891,1 c 1.98689,0 2.45175,1.495376 0.78515,2.525391 C 102.46458,77.685049 98,89.713871 98,96.96875 c 0,1.645991 -0.657692,3.06913 -1.582031,3.42383 C 93.541134,101.49653 92.7483,101.06111 93.429688,98.75 93.794541,97.5125 94.354282,93.8 94.671875,90.5 95.459961,82.311288 101.0471,73 105.17383,73 Z m 71.13281,0.0059 c 0.44317,-0.0036 -0.40505,1.035795 -1.88476,2.308594 -2.32979,2.003995 -2.5345,2.607161 -1.52149,4.5 0.6434,1.202201 1.79523,2.185547 2.56055,2.185547 1.98103,0 2.39965,3.281091 0.59375,4.65625 -1.16849,0.889793 -2.19269,0.806516 -4.44727,-0.359375 -2.63349,-1.361829 -3.26956,-1.35267 -6.30273,0.09375 -4.62304,2.20457 -5.49554,2.017903 -7.84961,-1.679687 -1.3607,-2.137274 -2.79853,-3.183294 -4.29883,-3.126954 -1.83784,0.06902 -2.01403,-0.14885 -0.95508,-1.185546 1.09385,-1.070853 21.64166,-7.372559 24.10547,-7.392579 z m -0.22656,2.144532 c 1.68232,-0.157146 4.12098,1.403126 8.91601,5.277343 6.9398,5.607094 7.95939,7.625659 7.99219,15.822266 0.0105,2.612262 -1.294,3.682963 -2.36914,1.943359 -0.27446,-0.444098 -0.81187,-3.16132 -1.19336,-6.037109 -0.63632,-4.796834 -1.03221,-5.423354 -4.80859,-7.59375 -2.264,-1.301191 -5.54166,-2.66286 -7.28321,-3.025391 -3.51635,-0.731983 -4.97303,-3.062039 -3.22851,-5.164062 0.60209,-0.725472 1.20991,-1.151227 1.97461,-1.222656 z m -67.9961,3.832031 c 0.0932,-0.0021 0.16576,0.0244 0.21094,0.08398 C 112.13718,84.13359 116,89.991299 116,90.75 c 0,0.539641 -0.95448,2.194632 -2.12109,3.677734 -1.1666,1.483101 -3.35492,4.952681 -4.86329,7.710936 -2.06561,3.77727 -2.89955,4.60463 -3.3789,3.35547 -1.05018,-2.73672 -0.72617,-5.17501 0.86328,-6.49414 0.825,-0.684689 1.5,-1.941121 1.5,-2.792969 0,-0.851848 0.70487,-2.329262 1.56641,-3.28125 1.43118,-1.581436 1.33837,-2.180474 -1.07813,-6.949219 -1.86584,-3.682058 -2.33302,-5.532213 -1.58398,-6.28125 0.43798,-0.437979 0.9001,-0.706525 1.17968,-0.71289 z m 45.16016,2.863281 c 1.091,0.0669 2.17851,0.869522 3.21484,2.451172 1.40267,2.140746 1.16045,3.103434 -3.5625,14.248047 -2.78603,6.574107 -5.58924,12.627547 -6.23046,13.453127 -0.99227,1.27758 -0.92602,1.31422 0.44531,0.24414 0.88618,-0.6915 3.75979,-6.44224 6.38476,-12.781251 2.62498,-6.33901 4.98127,-11.317564 5.23633,-11.0625 1.18434,1.184342 -8.53609,22.744711 -10.91797,24.216791 -3.49701,2.16127 -6.06472,1.0684 -16.2832,-6.93164 -5.74847,-4.50047 -10.47029,-8.755781 -10.49219,-9.455073 -0.062,-1.979016 4.45041,-3.547155 8.18946,-2.845704 2.16348,0.405872 4.80511,2.145544 7.32812,4.828126 3.65173,3.882701 3.21602,3.848901 -2.11133,-0.164063 -1.12986,-0.8511 -0.005,0.356226 2.5,2.681644 2.50487,2.32542 4.95949,4.10363 5.45313,3.95117 0.49364,-0.15247 1.9131,-4.51599 3.15625,-9.695314 2.08365,-8.681053 4.90134,-13.309642 7.68945,-13.138672 z m 25.59766,1.337891 c 1.66128,-0.05349 6.1582,1.943579 6.1582,2.9375 0,1.477422 -4.67361,0.977204 -6.01953,-0.644532 -0.69571,-0.838291 -0.99004,-1.799025 -0.6543,-2.134765 0.10024,-0.100238 0.2783,-0.150562 0.51563,-0.158203 z m -1.04102,3.474609 c 1.61428,-0.100284 3.83733,2.694453 6.78516,8.511719 1.30679,2.578825 2.83408,4.971977 3.39453,5.318357 0.56046,0.34638 1.01953,1.27777 1.01953,2.07031 0,2.58808 -3.05346,1.51375 -4.79688,-1.6875 -0.93691,-1.720366 -3.21204,-5.37562 -5.05664,-8.124995 -2.6542,-3.956079 -3.07141,-5.180711 -2,-5.867188 0.20612,-0.132063 0.42369,-0.206377 0.6543,-0.220703 z M 103.57812,90 c 3.14728,0 4.49051,2.093218 3.57032,5.560547 -0.61281,2.309101 -1.41762,3.002784 -3.75,3.236328 C 99.802929,99.1569 99,98.470372 99,95.033203 99,91.830634 100.66554,90 103.57812,90 Z M 23.164062,92.107422 C 22.142286,92.107878 21.5,92.581839 21.5,93.597656 c 0,0.603925 3.825,4.609835 8.5,8.900394 11.626325,10.67023 13.063838,12.75571 12.355469,17.92383 -0.376883,2.74966 -0.0051,5.4684 1.109375,8.10742 0.9223,2.18392 2.098305,7.96065 2.611328,12.83789 0.513024,4.87723 1.873497,12.52723 3.02539,17 1.151895,4.47276 3.168295,13.30781 4.480469,19.63281 2.06336,9.9459 2.231429,12.20723 1.246094,16.73242 l -1.138672,5.23242 -23.59375,0.28711 c -12.58842,0.15297 111.445487,-0.17931 275.123167,-0.16044 l -1.4884,-0.32602 C 168.7885,199.76013 59,199.79238 59,199.54492 c 0,-0.2508 1.365527,-2.77377 3.035156,-5.60547 1.996722,-3.38645 2.715779,-5.5415 2.101563,-6.29492 C 63.62312,187.01452 62.687123,181.325 62.054688,175 c -0.632437,-6.325 -1.78633,-17.35 -2.5625,-24.5 -0.776172,-7.15 -1.653745,-17.05 -1.951172,-22 -0.297428,-4.95 -1.170139,-10.78978 -1.939454,-12.97656 -1.331319,-3.78428 -1.280126,-4.11851 1.082032,-6.92578 1.6004,-1.90196 2.325617,-3.77442 2.039062,-5.27344 -0.741714,-3.880025 1.84251,-2.65814 3.544922,1.67578 1.803696,4.59176 4.124087,5.51878 3.128906,1.25 -1.317606,-5.65181 -2.836645,-7.75 -5.613281,-7.75 -1.469166,0 -3.237048,-0.5625 -3.927734,-1.25 -2.367101,-2.356181 -7.471071,-1.496833 -10.171875,1.712891 -1.371285,1.629679 -2.67635,3.517329 -2.902344,4.195309 -0.524737,1.57421 -6.61083,-2.00564 -12.578125,-7.400388 -2.581008,-2.333365 -5.336102,-3.651151 -7.039063,-3.65039 z m -0.298828,0.726562 c 1.475834,0.03085 4.682438,1.569705 7.054688,3.712891 2.159262,1.950763 6.999084,5.516285 10.753906,7.923825 C 51.514921,111.42183 53,112.8169 53,116.04102 c 0,1.83258 -0.706536,3.26711 -1.933594,3.92382 -2.239316,1.19844 -1.921835,1.21045 -4.816406,-0.18554 -1.2375,-0.59683 -2.25,-1.60419 -2.25,-2.23828 0,-2.09047 -4.566786,-7.39643 -13.09375,-15.2129 -4.622983,-4.237767 -8.556901,-8.071337 -8.740234,-8.517573 -0.285288,-0.694395 0.02839,-0.990585 0.699218,-0.976563 z m 23.22461,6.09375 2.955078,2.103516 C 50.670444,102.18872 52,103.69453 52,104.37695 c 0,0.68243 -0.5625,1.97646 -1.25,2.875 -1.143906,1.49507 -1.504625,1.49949 -4.25,0.0586 -1.65,-0.86599 -3.146164,-1.69829 -3.324219,-1.84961 -0.178055,-0.15131 0.404889,-1.68317 1.294922,-3.4043 z m 54.617186,0.816407 c 2.06583,-0.01494 3.125,1.488959 3.88477,4.763669 0.67967,2.92951 0.69143,5.02026 0.0371,6.18946 -1.18446,2.11652 -4.40789,11.11028 -13.552738,37.80273 -7.563526,22.07679 -9.195296,25.77052 -12.367188,27.99219 C 77.52461,177.32176 76.237945,178 75.849609,178 c -0.606915,0 -3.864036,-2.81669 -3.841797,-3.32227 0.0043,-0.0982 1.363514,-5.57773 3.021485,-12.17773 1.65797,-6.6 3.90581,-17.10973 4.994141,-23.35547 1.43577,-8.2397 2.916572,-13.1791 5.396484,-18 1.879785,-3.65426 4.128062,-9.18482 4.996094,-12.28906 1.364668,-4.88032 2.08702,-5.89523 5.332031,-7.5 2.118388,-1.04762 3.719488,-1.602363 4.958983,-1.611329 z M 54.208984,116.02148 c 0.140752,0.005 0.399343,0.41664 0.878907,1.24024 0.564503,0.96946 1.289433,6.41341 1.611328,12.09766 l 0.583984,10.33593 -3.025391,-0.44336 c -1.66496,-0.24436 -3.979416,0.065 -5.142578,0.6875 C 47.21809,140.95477 47,140.8064 47,138.50977 c 0,-1.40809 -0.9,-5.12031 -2,-8.25 -1.1,-3.1297 -2,-6.95431 -2,-8.5 l 0,-2.81055 3.076172,1.58984 c 2.810597,1.45379 3.285469,1.45493 5.5,0.004 1.333091,-0.87347 2.438348,-2.36659 2.455078,-3.31641 0.01421,-0.80691 0.03698,-1.20983 0.177734,-1.20508 z m 38.939454,7.27735 c -0.724386,0.0546 -1.551154,0.37243 -2.685547,0.96679 -2.486314,1.30272 -3.047257,1.31885 -3.931641,0.10938 -0.807006,-1.10365 -1.06919,-0.8083 -1.205078,1.35742 C 85.230637,127.25501 84.047308,133.225 82.695312,139 78.394765,157.36965 75,172.28647 75,172.81836 75,176.44114 78.595023,162.15525 83.007812,141 c 2.515015,-12.05717 3.192538,-13.53461 7.136719,-15.57422 2.60584,-1.34753 3.606066,-1.43856 5.16211,-0.4668 1.51032,0.94321 2.174476,0.93833 3.060547,-0.0234 0.849761,-0.92235 0.831551,-1.05967 -0.07617,-0.54883 -0.665127,0.37432 -2.04589,0.15807 -3.06836,-0.48047 -0.727178,-0.45413 -1.349833,-0.66199 -2.074218,-0.60742 z M 53.15625,140 c 4.468245,0 4.106124,-1.63441 7.986328,36 0.595418,5.775 1.489248,11.00764 1.988281,11.62695 0.581858,0.72208 -0.250759,3.14343 -2.322265,6.75 -4.553988,7.92866 -7.054215,7.64822 -4.78125,-0.53515 0.805998,-2.90184 0.506751,-6.21482 -1.445313,-16.02539 -1.35338,-6.80174 -2.874042,-13.4804 -3.380859,-14.8418 -0.506816,-1.36139 -1.711022,-6.49305 -2.675781,-11.4043 -1.685561,-8.58059 -1.684479,-8.98114 0.05078,-10.25 C 49.569377,140.59406 51.630722,140 53.15625,140 Z"
         style="fill:#000000"
         inkscape:connector-curvature="0"
         sodipodi:nodetypes="ssssssssscccsssssssssscssscsssssssssssssssscccssssssssscsssssssssscccsccsssssssssssccccssssssssssscccsssssssssssscccssssssssssssssscscsccsssscssccsssscssscsssssscccssssscssssssssssssssssssssssssssssssssssssssssccsssssccsssssssssccssssssssscsssccsssssssssssssssssssssssssssscccccsssssssssssssssssssssssssssccssscccsssssscsssssscscccsssscccscccsssssssscssccssssssssss" />
    </g>
    <path
       inkscape:connector-curvature="0"
       id="path8203"
       d="m 475.60035,198.57251 c 0,-0.55 0.8449,-1 1.87756,-1 1.03265,0 2.41574,-0.64847 3.07352,-1.44105 0.9502,-1.14492 0.77327,-2.01828 -0.86096,-4.25 -3.0295,-4.13711 -7.32182,-15.28571 -7.43412,-19.30895 -0.076,-2.72156 1.34148,-5.68078 6.37315,-13.30517 6.16043,-9.33481 6.61238,-9.77782 9.42114,-9.23494 3.45284,0.66736 4.51335,2.01722 4.5344,5.77159 0.0114,2.03769 -1.62764,4.37443 -6.45305,9.19984 -3.5576,3.5576 -6.72573,7.50343 -7.0403,8.76852 -0.36306,1.46008 0.90674,5.92904 3.47672,12.23611 4.93126,12.1019 4.71184,13.56405 -2.03545,13.56405 -2.71293,0 -4.93261,-0.45 -4.93261,-1 z"
       style="fill:#fefefe" />
    <path
       inkscape:connector-curvature="0"
       id="path8197"
       d="m 448.77601,143.54554 c 0.24554,-0.73663 3.09134,-1.86746 6.32399,-2.51295 5.38467,-1.0752 6.34694,-1.6984 11.47473,-7.43143 6.04169,-6.7548 9.52562,-7.86094 9.52562,-3.02435 0,1.84292 -0.8839,2.89427 -3.45329,4.10748 -1.89931,0.89681 -4.82431,3.25396 -6.5,5.23811 -2.8461,3.37002 -3.53299,3.65216 -10.4321,4.28501 -5.94447,0.54529 -7.2983,0.41616 -6.93895,-0.66187 z"
       style="fill:#fefefe" />
    <path
       inkscape:connector-curvature="0"
       id="path8195"
       d="m 459.81821,130.30441 -2.22907,-2.37274 2.32005,-2.17958 c 2.99431,-2.813 5.79413,-2.76333 8.53236,0.15139 2.08484,2.2192 2.10518,2.40726 0.42432,3.92209 -3.23304,2.91367 -6.59319,3.09151 -9.04766,0.47884 z"
       style="fill:#fefefe" />
    <path
       inkscape:connector-curvature="0"
       id="path8213"
       d="m 493.10035,153.57314 c -0.77933,-2.69135 -1.72668,-3.65878 -4.29301,-4.38402 -2.07812,-0.58728 -3.64887,-0.57473 -4.2576,0.034 -1.18055,1.18055 -12.95985,-9.42558 -12.95361,-11.66348 0.002,-0.83208 0.97991,-1.95708 2.17242,-2.5 1.78772,-0.81391 3.00685,-2.25628 4.48887,-5.31087 0.32564,-0.67117 5.92071,2.69972 7.64676,4.60698 3.27653,3.62052 8.81258,16.41112 8.49574,19.62871 l -0.29957,3.04211 z"
       style="fill:#fefe00" />
    <g
       transform="matrix(1.0970283,0,0,1.0970283,29.212923,-219.15067)"
       id="g8458">
      <path
         style="fill:#000000"
         d="m 256.4375,228.17578 c -1.18604,-0.0118 -2.40285,0.42884 -3.28906,1.5 -0.96563,1.16715 -0.98918,1.86491 -0.10742,3.28125 0.87017,1.39772 0.87017,2.19994 0,3.59766 -0.88176,1.41634 -0.85821,2.1141 0.10742,3.28125 0.67453,0.8153 2.17481,1.48242 3.33398,1.48242 3.08094,0 4.86573,-2.47269 3.43946,-4.76367 -0.87017,-1.39772 -0.87018,-2.19994 0,-3.59766 1.57889,-2.53613 -0.87509,-4.75527 -3.48438,-4.78125 z m 0.0449,1.89258 c 0.77103,0 1.40039,0.60855 1.40039,1.35156 0,1.56623 -1.33289,2.62296 -2.20508,1.74805 -1.11697,-1.12046 -0.603,-3.09961 0.80469,-3.09961 z m 0.01,6.32226 c 0.51492,-0.0387 1.0232,0.42406 1.21289,1.41211 0.19701,1.02619 -0.26008,1.64063 -1.22266,1.64063 -0.89788,0 -1.41459,-0.60572 -1.23828,-1.45508 0.21134,-1.01818 0.73313,-1.55895 1.24805,-1.59766 z"
         id="path8374-8"
         inkscape:connector-curvature="0" />
      <path
         style="fill:#000000"
         d="m 248.03711,228.19338 c -1.41168,0 -5.10742,3.21379 -5.10742,4.44141 0,1.14989 0.26167,1.19571 1.40234,0.24609 1.21507,-1.01158 1.40235,-0.52764 1.40235,3.63476 0,3.64371 0.33869,4.80274 1.40234,4.80274 1.1126,0 1.40039,-1.35417 1.40039,-6.5625 0,-3.60938 -0.2249,-6.5625 -0.5,-6.5625 z"
         id="path8372-8"
         inkscape:connector-curvature="0" />
      <path
         style="fill:#000000"
         d="m 266.76172,228.19336 c -3.83505,0 -5.84005,8.53892 -2.73633,11.65234 0.80774,0.81027 2.03873,1.47266 2.73633,1.47266 2.34879,0 4.20703,-2.89742 4.20703,-6.5625 0,-3.66508 -1.85824,-6.5625 -4.20703,-6.5625 z m 0,2.34375 c 0.51402,0 1.06885,1.63713 1.23242,3.63867 0.31763,3.88664 -1.20123,6.72138 -2.20117,4.10742 -0.82255,-2.15025 -0.12301,-7.74609 0.96875,-7.74609 z"
         id="path8370-5"
         inkscape:connector-curvature="0" />
      <path
         style="fill:#000000"
         d="m 275.45117,228.32812 c -2.03202,-0.0397 -3.12432,1.86992 -2.25195,4.1504 0.33776,0.88293 1.40806,1.35189 2.67187,1.17187 1.54461,-0.22002 2.10547,-0.92635 2.10547,-2.64453 0,-1.71818 -0.56086,-2.42256 -2.10547,-2.64258 -0.14352,-0.0204 -0.28445,-0.0324 -0.41992,-0.0352 z m 0.18945,1.74024 c 0.51403,0 0.93555,0.42187 0.93555,0.9375 0,0.51562 -0.42152,0.9375 -0.93555,0.9375 -0.514,0 -0.93359,-0.42188 -0.93359,-0.9375 0,-0.51563 0.41958,-0.9375 0.93359,-0.9375 z"
         id="path8368-5"
         inkscape:connector-curvature="0" />
    </g>
    <g
       transform="matrix(1.0970283,0,0,1.0970283,64.230801,-240.94815)"
       id="g8437">
      <path
         style="fill:#000000"
         d="m 282.20703,289.34766 c -1.16151,-0.0782 -2.00264,0.25408 -3.2207,1.05468 -1.29026,0.84806 -2.96807,1.54102 -3.72852,1.54102 -1.87925,0 -6.8012,4.35222 -5.92187,5.23633 0.38754,0.38965 1.67564,-0.20695 2.86328,-1.32617 2.56127,-2.41371 4.62261,-2.59066 6.31836,-0.54102 1.04904,1.26797 0.94107,1.73007 -0.71094,3.04688 -4.50285,3.58917 -5.32061,9.3085 -1.73633,12.13671 4.00743,3.16244 7.95624,4.41481 9.95899,3.16016 1.59103,-0.99672 1.76086,-0.80741 1.75586,1.95117 -0.009,5.42025 -1.95056,10.47085 -5.40821,14.07031 -1.85741,1.93359 -4.08062,3.51563 -4.9414,3.51563 -2.55417,0 -3.96759,2.36867 -2.76172,4.62891 1.56884,2.94057 3.26054,2.39601 10.06055,-3.23047 4.82531,-3.9926 6.68426,-6.26638 8.1914,-10.02735 2.58364,-6.44736 5.69028,-7.44689 13.75391,-4.42187 l 5.52929,2.07422 4.84766,9.64648 c 4.02481,8.00995 6.48127,11.40378 14.49805,20.01953 5.30925,5.70592 10.16726,10.37305 10.79492,10.37305 1.97216,0 3.38444,-2.14207 3.36914,-5.10938 -0.011,-2.12517 -1.80654,-5.14622 -6.99609,-11.76562 -5.53056,-7.05435 -7.5976,-10.62084 -9.94141,-17.15234 -1.62749,-4.53538 -4.11938,-10.07976 -5.53711,-12.32227 -2.72688,-4.31328 -4.04644,-4.99856 -19.3125,-10.02148 -6.67758,-2.1971 -6.77243,-2.27411 -8.27734,-6.75 -1.63068,-4.84996 -4.47458,-7.26448 -10.85938,-9.2168 -1.07863,-0.32982 -1.89098,-0.5234 -2.58789,-0.57031 z m 0.19727,6.41211 c 0.81617,0.0664 2.10815,0.4943 4.01367,1.29296 2.20467,0.92405 3.24219,1.97326 3.24219,3.28125 0,2.40134 -0.0913,2.3814 -2.14649,-0.45117 -0.997,-1.37411 -2.6113,-2.31445 -3.97265,-2.31445 -1.26106,0 -2.29297,-0.42188 -2.29297,-0.9375 0,-0.64353 0.34007,-0.93754 1.15625,-0.87109 z"
         id="path8342"
         inkscape:connector-curvature="0" />
      <path
         inkscape:connector-curvature="0"
         style="fill:#fefefe"
         d="m 281.80273,290.16797 c -0.87058,0.0187 -1.58962,0.29017 -2.36328,0.78125 -1.92824,1.22395 0.11303,3.41946 3.88282,4.17578 5.08423,1.02002 7.27148,3.03524 7.27148,6.70117 0,3.10039 0.1391,3.24523 2.57031,2.66016 1.41355,-0.34017 2.67378,-0.69904 2.80078,-0.79688 0.12701,-0.0978 -0.4526,-2.19171 -1.28906,-4.65429 -1.34241,-3.95208 -2.08323,-4.74023 -6.30664,-6.71289 -3.24449,-1.51544 -5.11543,-2.18542 -6.56641,-2.1543 z"
         id="path8415" />
      <path
         inkscape:connector-curvature="0"
         style="fill:#fefefe"
         d="m 280.94336,307.0332 c -0.90185,0.082 -1.70376,0.42452 -2.3125,1.03516 -1.66591,1.67112 -1.39261,2.4183 1.44922,3.96484 3.35349,1.825 5.32741,1.8184 6.84961,-0.0215 1.05551,-1.27578 0.90028,-1.7526 -1.05469,-3.25977 -1.64517,-1.26832 -3.42856,-1.85547 -4.93164,-1.71875 z"
         id="path8411" />
      <path
         inkscape:connector-curvature="0"
         style="fill:#fefefe"
         d="m 293.87891,310.69336 c -3.02371,0 -4.18175,1.84245 -5.6836,9.04297 -1.10643,5.3047 -1.96284,6.99142 -5.26367,10.36523 -2.16822,2.21616 -4.66987,4.0293 -5.56055,4.0293 -2.02127,0 -2.84539,1.2528 -2.10156,3.19726 0.94673,2.47483 2.97521,1.72434 9.05664,-3.34765 4.52861,-3.77694 6.25904,-5.98635 7.89063,-10.07813 1.14934,-2.88238 2.72792,-6.36098 3.50781,-7.73242 1.75899,-3.09322 0.95543,-5.47656 -1.8457,-5.47656 z"
         id="path8409" />
      <path
         inkscape:connector-curvature="0"
         style="fill:#fefefe"
         d="m 322.69727,316.58984 c -0.246,-0.0647 -0.41223,0.39636 -0.70704,1.32813 -0.81568,2.578 7.23362,19.7744 12.19727,26.05664 3.93254,4.97722 5.32802,7.03125 4.77539,7.03125 -1.38291,0 -10.74039,-14.37734 -14.14258,-21.73047 -4.36416,-9.43224 -6.24279,-11.18401 -9.89258,-9.22461 -1.04745,0.56234 -1.88176,1.32283 -1.85546,1.69141 0.0263,0.36857 2.234,4.96205 4.90625,10.20703 3.90943,7.67329 6.66144,11.48197 14.08984,19.49805 9.89809,10.68117 12.08785,11.75059 12.50976,6.11328 0.21137,-2.82438 -0.71596,-4.49526 -6.75781,-12.17969 -5.4015,-6.87 -7.64992,-10.69069 -9.83398,-16.71484 -1.55728,-4.29533 -3.40624,-8.90953 -4.10742,-10.25196 -0.61111,-1.16997 -0.93565,-1.75953 -1.18164,-1.82422 z"
         id="path8407" />
      <path
         inkscape:connector-curvature="0"
         style="fill:#ffff00"
         d="m 306.14834,319.05647 c -3.15227,-1.28307 -5.53926,-1.65935 -7.81255,-1.23155 l -3.27343,0.61602 1.57056,-2.40446 c 1.23035,-1.88362 1.3466,-2.82424 0.53668,-4.34233 -1.21959,-2.28595 -4.88982,-2.56922 -6.59435,-0.50896 -0.6502,0.7859 -1.34828,1.26229 -1.55129,1.05864 -0.52446,-0.52609 1.81057,-5.6325 2.95289,-6.45757 2.04916,-1.48007 7.89076,-0.57525 16.71613,2.58922 12.42622,4.45561 12.91185,4.75601 12.5645,7.77198 -0.23443,2.03564 -0.71763,2.46768 -2.53482,2.26645 -1.23484,-0.13675 -3.21771,0.3906 -4.40637,1.17187 -2.64685,1.73971 -2.58328,1.74382 -8.16795,-0.52931 z"
         id="path8391" />
    </g>
    <g
       transform="matrix(1.059648,-0.28393182,0.28393182,1.059648,-11.70531,-151.08098)"
       id="g8445">
      <path
         style="fill:#fe0000;stroke:none"
         d="m 231.39746,269.94195 c 0.10782,2.16173 0.258,2.34792 1.16354,1.44237 0.57186,-0.57185 0.92777,-1.51409 0.7909,-2.09386 -0.42475,-1.79925 1.92178,-3.36012 4.91113,-3.2668 11.58488,0.36167 32.10228,24.88684 25.95918,31.02993 -1.41598,1.41599 -3.27108,1.10984 -2.56067,-0.42258 0.8589,-1.85271 -1.80444,-1.31508 -4.94326,0.99787 -1.57444,1.16018 -2.55776,2.21372 -2.18517,2.34122 5.57652,1.90805 8.14504,2.53644 8.58191,2.09957 0.29196,-0.29196 0.28843,-0.77321 -0.008,-1.06947 -0.29625,-0.29626 0.48876,-1.30307 1.74448,-2.23737 3.03103,-2.25518 3.13549,-6.41992 0.30803,-12.28037 -2.9392,-6.09204 -14.84653,-17.94261 -20.62164,-20.52326 -7.61159,-3.40136 -13.42108,-1.64057 -13.14062,3.98275 z"
         id="path8315"
         inkscape:connector-curvature="0" />
      <g
         id="g8115"
         transform="matrix(1.0844501,0,0,1.0844501,-38.892542,207.89547)">
        <path
           style="color:#000000;clip-rule:nonzero;display:inline;overflow:visible;visibility:visible;opacity:1;isolation:auto;mix-blend-mode:normal;color-interpolation:sRGB;color-interpolation-filters:linearRGB;solid-color:#000000;solid-opacity:1;fill:#ffffff;fill-opacity:1;fill-rule:evenodd;stroke:none;stroke-width:1px;stroke-linecap:butt;stroke-linejoin:miter;stroke-miterlimit:4;stroke-dasharray:none;stroke-dashoffset:0;stroke-opacity:1;color-rendering:auto;image-rendering:auto;shape-rendering:auto;text-rendering:auto;enable-background:accumulate"
           d="m 246.63089,78.168559 c -0.95791,-1.404941 -2.42671,-3.193047 -1.85197,-5.364318 0.57475,-2.171272 10.66477,-8.174198 12.32516,-8.557363 1.66038,-0.383166 1.21336,7.152423 1.21336,7.152423 l -2.55444,0.830192 -0.31931,-3.512351 -5.93906,6.19451 1.27722,3.193046 z"
           id="path8090"
           inkscape:connector-curvature="0"
           sodipodi:nodetypes="csscccccc" />
        <path
           sodipodi:nodetypes="cssssccccccccccsscccscccccccccssscc"
           inkscape:connector-curvature="0"
           id="path8088"
           d="m 256.99182,63.759891 c -0.54488,0.125741 -1.35123,0.498727 -2.39258,1.03711 -1.04135,0.538382 -3.9964,2.51464 -5.19494,3.273311 -1.19854,0.758672 -2.36411,1.575421 -3.28321,2.353516 -0.9191,0.778095 -1.61718,1.462445 -1.82617,2.251953 -0.64604,2.440625 0.9887,4.403857 1.92383,5.775391 l 0.15039,0.220703 0.26953,-0.0039 4.87695,-0.07422 -1.43359,-3.585938 4.97033,-5.064327 0.26954,2.955078 3.47461,-1.128906 0.0195,-0.339844 c 0,0 0.11535,-1.903362 0.0176,-3.777343 -0.0489,-0.936991 -0.14578,-1.86227 -0.35938,-2.589844 -0.1068,-0.363787 -0.236,-0.683311 -0.46289,-0.945313 -0.22689,-0.262001 -0.63944,-0.445136 -1.01953,-0.357422 z m 0.22461,0.97461 c 0.035,-0.0081 -0.0274,-0.03965 0.0391,0.03711 0.0665,0.07676 0.17498,0.283474 0.25977,0.572266 0.16956,0.577583 0.27145,1.462317 0.31836,2.361328 0.0853,1.634129 0.002,3.035478 -0.0137,3.330078 l -1.61523,0.525391 -0.40302,-3.206238 c -0.54282,0.798262 -7.06554,6.717415 -7.06554,6.717415 l 1.31268,2.545338 -3.14453,0.04687 c -0.9583,-1.385207 -2.12166,-2.922547 -1.64258,-4.732421 0.0784,-0.296128 0.64284,-1.015474 1.50586,-1.746094 0.86302,-0.73062 1.99958,-1.527471 3.17187,-2.269531 1.1723,-0.74206 4.10659,-2.707038 5.11877,-3.230343 1.01219,-0.523305 1.87289,-0.885331 2.15821,-0.951172 z"
           style="color:#000000;font-style:normal;font-variant:normal;font-weight:normal;font-stretch:normal;font-size:medium;line-height:normal;font-family:sans-serif;text-indent:0;text-align:start;text-decoration:none;text-decoration-line:none;text-decoration-style:solid;text-decoration-color:#000000;letter-spacing:normal;word-spacing:normal;text-transform:none;direction:ltr;block-progression:tb;writing-mode:lr-tb;baseline-shift:baseline;text-anchor:start;white-space:normal;clip-rule:nonzero;display:inline;overflow:visible;visibility:visible;opacity:1;isolation:auto;mix-blend-mode:normal;color-interpolation:sRGB;color-interpolation-filters:linearRGB;solid-color:#000000;solid-opacity:1;fill:#000000;fill-opacity:1;fill-rule:evenodd;stroke:none;stroke-width:1px;stroke-linecap:butt;stroke-linejoin:miter;stroke-miterlimit:4;stroke-dasharray:none;stroke-dashoffset:0;stroke-opacity:1;color-rendering:auto;image-rendering:auto;shape-rendering:auto;text-rendering:auto;enable-background:accumulate" />
        <path
           style="color:#000000;clip-rule:nonzero;display:inline;overflow:visible;visibility:visible;opacity:1;isolation:auto;mix-blend-mode:normal;color-interpolation:sRGB;color-interpolation-filters:linearRGB;solid-color:#000000;solid-opacity:1;fill:#ffffff;fill-opacity:1;fill-rule:evenodd;stroke:none;stroke-width:1px;stroke-linecap:butt;stroke-linejoin:miter;stroke-miterlimit:4;stroke-dasharray:none;stroke-dashoffset:0;stroke-opacity:1;color-rendering:auto;image-rendering:auto;shape-rendering:auto;text-rendering:auto;enable-background:accumulate"
           d="m 254.79964,86.323776 c 0.81323,0.593435 2.52761,1.120935 3.20896,0.967082 0.68136,-0.153853 2.48366,-1.736358 2.81334,-2.241878 0.32969,-0.505521 3.2749,-5.428865 3.2749,-5.428865 0,0 -11.80283,3.802401 -11.12147,4.791466 0.68135,0.989065 0.61541,0.747292 1.82425,1.912207 z"
           id="path8570"
           inkscape:connector-curvature="0" />
        <path
           inkscape:connector-curvature="0"
           id="path8568"
           d="m 261.17682,85.280696 c -0.24741,0.379369 -0.76425,0.854523 -1.35919,1.347471 -0.29747,0.246476 -0.60655,0.48234 -0.89519,0.672565 -0.28865,0.190226 -0.53666,0.339047 -0.82021,0.40307 -0.51684,0.116706 -1.12062,-0.01328 -1.77164,-0.210904 -1.35526,-0.372657 -1.88053,-0.934532 -2.9329,-1.882852 -0.23973,-0.227736 -0.42594,-0.454736 -0.77216,-0.957294 -0.14177,-0.205725 -0.0998,-0.511538 -0.002,-0.674911 0.0975,-0.163376 0.22361,-0.274625 0.37495,-0.391351 0.30269,-0.233458 0.72177,-0.467838 1.23968,-0.72178 1.03582,-0.507878 2.45571,-1.077487 3.89479,-1.616969 2.87814,-1.078958 5.83397,-2.03058 5.83397,-2.03058 l 1.07329,-0.346832 -0.57882,0.967836 c 0,0 -0.73725,1.23058 -1.51503,2.525051 -0.77779,1.294477 -1.57597,2.621146 -1.7693,2.917574 z m -0.71006,-0.463999 c 0.13636,-0.209093 0.97564,-1.595874 1.75289,-2.889453 0.46874,-0.78014 0.6252,-1.045029 0.91159,-1.523233 -0.81459,0.266829 -2.38709,0.770652 -4.70093,1.638064 -1.42646,0.534752 -2.83187,1.100916 -3.81745,1.584159 -0.49278,0.241621 -0.88318,0.467757 -1.09555,0.631553 -0.0453,0.03498 -0.0433,0.03912 -0.0703,0.06562 0.21684,0.304426 0.3715,0.51556 0.5343,0.670227 0.19325,0.183653 0.50435,0.441238 1.07683,0.99008 0.34133,0.24727 0.9418,0.523259 1.51854,0.698345 0.57983,0.176013 1.17359,0.231649 1.3381,0.194502 0.0571,-0.01292 0.29011,-0.117991 0.54134,-0.283555 0.25122,-0.165565 0.54071,-0.387093 0.8202,-0.618667 0.55896,-0.463142 1.10819,-1.031504 1.19046,-1.157655 z"
           style="color:#000000;font-style:normal;font-variant:normal;font-weight:normal;font-stretch:normal;font-size:medium;line-height:normal;font-family:sans-serif;text-indent:0;text-align:start;text-decoration:none;text-decoration-line:none;text-decoration-style:solid;text-decoration-color:#000000;letter-spacing:normal;word-spacing:normal;text-transform:none;direction:ltr;block-progression:tb;writing-mode:lr-tb;baseline-shift:baseline;text-anchor:start;white-space:normal;clip-rule:nonzero;display:inline;overflow:visible;visibility:visible;opacity:1;isolation:auto;mix-blend-mode:normal;color-interpolation:sRGB;color-interpolation-filters:linearRGB;solid-color:#000000;solid-opacity:1;fill:#000000;fill-opacity:1;fill-rule:evenodd;stroke:none;stroke-width:1px;stroke-linecap:butt;stroke-linejoin:miter;stroke-miterlimit:4;stroke-dasharray:none;stroke-dashoffset:0;stroke-opacity:1;color-rendering:auto;image-rendering:auto;shape-rendering:auto;text-rendering:auto;enable-background:accumulate"
           sodipodi:nodetypes="csscccccssscccscccscssccccccsscc" />
        <path
           style="color:#000000;clip-rule:nonzero;display:inline;overflow:visible;visibility:visible;opacity:1;isolation:auto;mix-blend-mode:normal;color-interpolation:sRGB;color-interpolation-filters:linearRGB;solid-color:#000000;solid-opacity:1;fill:#ffffff;fill-opacity:1;fill-rule:evenodd;stroke:none;stroke-width:1px;stroke-linecap:butt;stroke-linejoin:miter;stroke-miterlimit:4;stroke-dasharray:none;stroke-dashoffset:0;stroke-opacity:1;color-rendering:auto;image-rendering:auto;shape-rendering:auto;text-rendering:auto;enable-background:accumulate"
           d="m 260.32931,66.314655 5.84367,-11.935989 c 0,0 0.31083,-0.932499 0.80816,-1.429832 0.49733,-0.497332 18.33914,-10.87915 20.51498,-13.054984 2.17583,-2.175828 4.41383,-3.543496 4.97332,-3.481329 0.5595,0.06217 3.73,1.367668 4.6625,2.92183 0.93249,1.554168 0.0622,4.040828 -1.61634,6.713995 -1.67849,2.67316 -4.22732,2.983996 -4.97332,3.605659 -0.746,0.621669 -15.35515,9.511489 -15.23081,9.884488 0.12433,0.373 -2.92183,11.003487 -4.22733,12.433319 -1.3055,1.429831 -12.12249,-1.554162 -10.75483,-5.657157 z"
           id="path8508"
           inkscape:connector-curvature="0" />
        <path
           inkscape:connector-curvature="0"
           id="path8495"
           d="m 271.3977,72.257071 c -1.38719,0.975275 -3.15943,0.330186 -4.67054,0.05991 -2.37539,-0.633097 -4.86623,-1.63023 -6.40388,-3.636289 -0.97518,-1.283323 -0.37667,-2.842818 0.36421,-4.057454 1.69699,-3.479471 3.40465,-6.953727 5.1047,-10.431714 0.48711,-1.907214 2.57778,-2.49682 4.01958,-3.518078 5.64873,-3.466134 11.43074,-6.741748 16.81502,-10.616293 1.74668,-1.440587 3.32075,-3.268406 5.52016,-4.009927 1.27656,-0.09564 2.34259,0.795273 3.44788,1.30161 1.42848,0.811186 2.67424,2.371434 2.29123,4.10702 -0.33958,2.22433 -1.51157,4.258205 -2.90635,5.987161 -1.48933,1.613827 -3.71947,2.10626 -5.45085,3.376611 -4.50287,2.917949 -9.12873,5.645149 -13.56208,8.670539 -0.65119,1.089441 -0.6009,2.424816 -1.10704,3.57559 -0.91455,3.04421 -1.75879,6.157917 -3.28043,8.964574 l -0.18161,0.226746 0,-10e-7 z m -0.62688,-0.570611 c 1.57955,-2.74155 2.31748,-5.853832 3.28326,-8.841473 0.33429,-1.167544 0.64063,-2.343168 0.91406,-3.526472 1.20435,-1.205663 2.78155,-1.946619 4.15925,-2.931928 3.89351,-2.477044 7.82085,-4.910744 11.70822,-7.391058 1.70168,-0.680356 3.44228,-1.590155 4.36398,-3.256224 0.9652,-1.512646 1.83289,-3.217972 1.89788,-5.040529 -0.17018,-1.824234 -2.01322,-2.712365 -3.4683,-3.421386 -1.48468,-1.037712 -2.9229,0.503711 -4.08969,1.346968 -1.61044,1.455629 -3.24277,2.894609 -5.11207,4.014452 -5.58304,3.676906 -11.38821,6.998281 -17.05252,10.54555 -0.93759,1.194165 -1.37431,2.682898 -2.10462,4.003324 -1.5129,3.090213 -3.02581,6.180426 -4.53871,9.270639 -0.46129,1.791602 1.38853,2.983648 2.73787,3.710252 2.09888,1.09158 4.48878,1.841393 6.86996,1.68004 l 0.22132,-0.06556 0.21012,-0.09661 0,0 z"
           style="color:#000000;font-style:normal;font-variant:normal;font-weight:normal;font-stretch:normal;font-size:medium;line-height:normal;font-family:sans-serif;text-indent:0;text-align:start;text-decoration:none;text-decoration-line:none;text-decoration-style:solid;text-decoration-color:#000000;letter-spacing:normal;word-spacing:normal;text-transform:none;direction:ltr;block-progression:tb;writing-mode:lr-tb;baseline-shift:baseline;text-anchor:start;white-space:normal;clip-rule:nonzero;display:inline;overflow:visible;visibility:visible;opacity:1;isolation:auto;mix-blend-mode:normal;color-interpolation:sRGB;color-interpolation-filters:linearRGB;solid-color:#000000;solid-opacity:1;fill:#000000;fill-opacity:1;fill-rule:evenodd;stroke:none;stroke-width:1px;stroke-linecap:butt;stroke-linejoin:miter;stroke-miterlimit:4;stroke-dasharray:none;stroke-dashoffset:0;stroke-opacity:1;color-rendering:auto;image-rendering:auto;shape-rendering:auto;text-rendering:auto;enable-background:accumulate" />
        <path
           sodipodi:nodetypes="ccccsscccsscsccsssccccc"
           inkscape:connector-curvature="0"
           id="path8137"
           d="m 257.38569,85.612455 c -1.2748,0.659378 -5.68182,-0.462976 -5.68182,-0.462976 0,0 -0.20239,3.727732 -1.42005,5.42979 -1.17941,1.592022 -6.41792,2.808478 -8.19291,1.835937 -0.22928,1.532976 5.90692,3.747326 5.69036,4.393068 -0.35471,1.057733 -2.40956,1.121507 -4.09962,-0.771597 -1.19546,-1.339086 -3.93129,-1.775749 -3.69704,-3.639087 -2.44976,-4.929832 -3.51349,-5.46334 -1.36922,-9.088867 0.61542,-1.055005 1.35114,-1.879755 2.52388,-2.723071 1.59932,-1.147616 4.34638,-0.363357 5.16733,-0.885781 0.55018,-0.350116 -0.15107,-1.319402 -0.75636,-2.335363 -0.32203,-0.540514 3.50111,-2.840964 4.02187,-3.318203 2.33001,-1.493395 4.9324,-3.163794 8.02509,-5.473088 4.26944,-3.187963 7.86805,-4.85665 11.37971,-5.183675 0.76275,0.216131 1.49745,0.491262 1.86772,0.822547 0.83522,0.747278 1.49378,2.198777 1.84545,3.429613 0.35167,1.230836 -0.35128,2.638171 -0.87879,3.869007 -0.52749,1.230831 -1.27547,2.629029 -2.02276,3.288404 -0.18217,0.160741 -0.42177,0.340232 -0.67608,0.519074 l -1.63885,1.46056 -4.1332,4.669449 c -0.96344,1.329785 -4.21659,3.309738 -5.95474,4.164283 z"
           style="fill:#000000;stroke:none" />
        <path
           sodipodi:nodetypes="sccssssccss"
           inkscape:connector-curvature="0"
           id="path8325"
           d="m 246.72479,77.988936 c 0.16456,0.711402 1.82425,3.658598 2.31681,4.058399 2.1072,1.519276 4.49403,2.71774 7.29902,2.837325 1.53611,0.04795 2.01107,-0.721538 2.94559,-1.329037 0.90418,-0.587778 2.26439,-0.978244 3.91783,-3.009163 2.30016,-2.825265 3.58284,-4.140144 4.13714,-4.611988 1.25146,-1.065312 1.84844,-1.21233 2.8819,-2.835141 0.70155,-1.101616 1.387,-2.069616 1.58541,-2.953808 0.29736,-1.324985 0.10136,-3.569265 -1.81644,-5.533778 -1.46584,-1.501596 -6.06642,0.44667 -13.15744,5.571897 -9.18081,6.635672 -10.43653,6.392948 -10.10982,7.805294 z"
           style="fill:#ffff00;fill-opacity:1;stroke:none" />
        <path
           sodipodi:nodetypes="cccccc"
           inkscape:connector-curvature="0"
           id="path8525"
           d="m 285.31769,48.743063 -11.85777,7.672397 -2.85381,6.940219 c 0.58054,-3.481295 1.71928,-6.189041 2.32233,-7.341943 2.9538,-2.210907 6.5827,-4.555435 9.57487,-6.695682 2.13741,-1.217854 7.31971,-3.516436 2.81438,-0.574991 z"
           style="color:#000000;font-style:normal;font-variant:normal;font-weight:normal;font-stretch:normal;font-size:medium;line-height:normal;font-family:sans-serif;text-indent:0;text-align:start;text-decoration:none;text-decoration-line:none;text-decoration-style:solid;text-decoration-color:#000000;letter-spacing:normal;word-spacing:normal;text-transform:none;direction:ltr;block-progression:tb;writing-mode:lr-tb;baseline-shift:baseline;text-anchor:start;white-space:normal;clip-rule:nonzero;display:inline;overflow:visible;visibility:visible;opacity:1;isolation:auto;mix-blend-mode:normal;color-interpolation:sRGB;color-interpolation-filters:linearRGB;solid-color:#000000;solid-opacity:1;fill:#000000;fill-opacity:1;fill-rule:evenodd;stroke:none;stroke-width:1px;stroke-linecap:butt;stroke-linejoin:miter;stroke-miterlimit:4;stroke-dasharray:none;stroke-dashoffset:0;stroke-opacity:1;color-rendering:auto;image-rendering:auto;shape-rendering:auto;text-rendering:auto;enable-background:accumulate" />
      </g>
    </g>
  </g>
</svg>
