<?xml version="1.0" encoding="UTF-8" standalone="no"?>
<!-- Created with Inkscape (http://www.inkscape.org/) -->

<svg
   xmlns:dc="http://purl.org/dc/elements/1.1/"
   xmlns:cc="http://creativecommons.org/ns#"
   xmlns:rdf="http://www.w3.org/1999/02/22-rdf-syntax-ns#"
   xmlns:svg="http://www.w3.org/2000/svg"
   xmlns="http://www.w3.org/2000/svg"
   xmlns:sodipodi="http://sodipodi.sourceforge.net/DTD/sodipodi-0.dtd"
   xmlns:inkscape="http://www.inkscape.org/namespaces/inkscape"
   id="svg3908"
   version="1.1"
   inkscape:version="0.91 r13725"
   width="472.89719"
   height="253.125"
   viewBox="0 0 472.89719 253.125"
   sodipodi:docname="fx820102.svg">
  <metadata
     id="metadata3914">
    <rdf:RDF>
      <cc:Work
         rdf:about="">
        <dc:format>image/svg+xml</dc:format>
        <dc:type
           rdf:resource="http://purl.org/dc/dcmitype/StillImage" />
        <dc:title></dc:title>
      </cc:Work>
    </rdf:RDF>
  </metadata>
  <defs
     id="defs3912" />
  <sodipodi:namedview
     pagecolor="#929292"
     bordercolor="#666666"
     borderopacity="1"
     objecttolerance="10"
     gridtolerance="10"
     guidetolerance="10"
     inkscape:pageopacity="0"
     inkscape:pageshadow="2"
     inkscape:window-width="1683"
     inkscape:window-height="862"
     id="namedview3910"
     showgrid="false"
     inkscape:zoom="1.7225457"
     inkscape:cx="268.48098"
     inkscape:cy="112.71623"
     inkscape:window-x="0"
     inkscape:window-y="0"
     inkscape:window-maximized="0"
     inkscape:current-layer="svg3908" />
  <g
     id="g5211"
     transform="translate(1.6259528e-6,1.4946723)">
    <path
       sodipodi:nodetypes="sssccccscccsssscssssssssscssss"
       inkscape:connector-curvature="0"
       id="path5207"
       d="m 228.66797,50.964844 c -1.20223,-0.04731 -3.28519,0.515805 -5.59925,1.706313 -3.28415,1.689586 -5.13908,2.579288 -6.50427,5.151109 -0.99814,1.880335 -3.57821,5.916641 -5.73437,8.972656 l -3.79102,5.375 c -3.1266,4.328221 -4.93691,5.485507 -8.71289,11.220703 -0.0581,0.0901 -0.10671,0.14325 -0.16211,0.222656 -5.8259,9.051049 -6.89043,12.437468 -3.59765,15.720703 0.82744,0.825046 1.92744,1.648886 3.28906,2.560546 l 4.40234,2.94727 -3.98828,-3.29883 c -3.75563,-3.105466 -5.95183,-6.876295 -4.7207,-8.107423 0.30293,-0.302932 1.34907,0.524696 2.32812,1.841797 2.35341,3.166029 5.33077,3.37592 7.45508,0.523437 1.35249,-1.816089 1.93046,-1.979699 3.05469,-0.855469 0.76232,0.762321 1.49351,2.578512 1.625,4.033204 0.13151,1.454694 0.33027,0.454196 0.4414,-2.222657 0.11114,-2.676816 0.74993,-4.996638 1.42188,-5.15625 2.04617,-0.48605 3.77096,2.075965 3.32617,4.94336 -0.40554,2.614445 -0.39201,2.633001 0.38086,0.49414 0.58576,-1.62104 1.1078,-2.06719 1.93945,-1.652343 0.62577,0.312157 0.0425,-0.610461 -1.29492,-2.052735 -2.98164,-3.215321 -6.06022,-3.320736 -6.35351,-0.216797 -0.16779,1.775734 -0.33637,1.843417 -1.23633,0.503907 -0.74011,-1.1016 -0.1654,-3.088026 1.98437,-6.875 1.66756,-2.937536 2.99128,-5.536946 4.22004,-8.043651 1.16437,-2.104812 2.52423,-4.250538 4.67645,-7.897756 3.88193,-6.578417 8.23262,-13.014519 9.66797,-14.300781 1.38047,-1.23708 2.27797,-2.305218 2.73633,-3.166015 0.77346,-1.452581 0.29181,-2.310269 -1.25391,-2.371094 z"
       style="fill:#000000" />
    <path
       id="path4246"
       d="m 56.022239,106.3375 c -0.714337,0.0104 -1.267767,0.28343 -1.609375,0.83789 -0.281284,0.45655 3.899881,5.29205 9.291016,10.74609 9.684443,9.79746 9.802189,9.97032 9.824219,14.4043 0.01226,2.46831 0.441014,6.17578 0.953125,8.23828 0.512109,2.0625 1.345834,7.49009 1.851562,12.0625 0.505728,4.5724 1.800417,11.74428 2.876953,15.9375 1.076537,4.19321 2.961169,12.47656 4.1875,18.40625 1.927782,9.32141 2.083974,11.44558 1.164063,15.68359 l -1.0625,4.90039 -17.378907,0.27735 c -9.558527,0.15209 66.943155,0.29295 170.003905,0.31445 103.06074,0.0214 185.09715,-0.11791 182.30469,-0.31055 -3.02724,-0.20884 -5.47878,-0.90384 -6.07422,-1.7207 -0.54926,-0.7535 -2.26129,-1.71241 -3.80274,-2.13086 l -2.80273,-0.75976 0.15234,-16.79883 c 0.0833,-9.23924 0.83906,-22.91602 1.67969,-30.39258 2.88144,-25.62763 2.8429,-24.21532 0.73437,-27.07617 -1.86651,-2.53247 -1.86948,-2.6164 -0.13476,-3.70313 1.39309,-0.87272 1.77539,-2.21823 1.77539,-6.25976 0,-6.7326 -2.1479,-9.16118 -7.78906,-8.8125 -2.1419,0.13239 -4.68685,-0.11157 -5.65625,-0.54102 -3.34082,-1.47999 -6.31271,2.24015 -4.71289,5.90039 0.54637,1.25008 0.8138,0.99041 1.25781,-1.22656 0.32326,-1.61397 1.15587,-2.8125 1.95508,-2.8125 1.06709,0 1.31944,0.94132 1.07617,4.02148 -0.17731,2.2449 0.18196,4.62615 0.81445,5.39063 2.64894,3.20175 -5.57717,-0.55176 -10.11914,-4.61719 -1.66555,-1.4908 -2.50084,-1.6938 -3.73828,-0.91211 -0.87643,0.55363 -1.71407,1.61878 -1.86133,2.36719 -0.25981,1.3205 6.61396,6.57292 12.41797,9.49023 l 2.80274,1.41016 -0.24024,13.92383 c -0.13258,7.65879 -0.25714,16.24609 -0.27734,19.08203 -0.0323,4.54947 0.78982,17.15306 2.55468,39.14062 l 0.54493,6.79688 -155.26172,0 c -85.3947,0 -155.263671,-0.19262 -155.263671,-0.42773 0,-0.23513 1.27749,-2.59919 2.837891,-5.25391 1.851337,-3.14969 2.535852,-5.19964 1.972656,-5.90039 -1.005535,-1.25115 -3.232641,-21.56007 -5.771484,-52.63672 -0.658964,-8.06603 -1.562355,-13.35523 -2.671875,-15.63867 l -1.675782,-3.44922 2.72461,-2.02148 c 2.603283,-1.9307 2.805958,-1.94711 4.53125,-0.38086 0.993385,0.90181 2.289919,3.25776 2.880859,5.23632 1.072953,3.59237 2.648438,4.87878 2.648438,2.16211 0,-2.71898 -2.582353,-7.6274 -5.027344,-9.55664 -1.347335,-1.06313 -2.449219,-2.82226 -2.449219,-3.9082 0,-2.91602 -3.28128,-5.72461 -6.6875,-5.72461 -2.218807,0 -3.81919,0.91902 -6.466797,3.71094 l -3.517578,3.70898 -2.644531,-2.01367 c -1.454998,-1.1081 -4.424562,-3.62227 -6.597656,-5.58594 -2.599477,-2.34894 -4.951896,-3.60098 -6.523438,-3.57812 z"
       style="fill:#000000"
       inkscape:connector-curvature="0" />
    <path
       id="path4327"
       d="m 84.726523,206.42343 c 0.0029,-0.64453 0.432505,-2.71506 0.954751,-4.60119 0.755271,-2.7277 0.466568,-5.86419 -1.411117,-15.33045 -1.298362,-6.54562 -2.577584,-12.25322 -2.842717,-12.68356 -0.265134,-0.43033 -1.332783,-4.86901 -2.372557,-9.86373 -1.780515,-8.553 -1.79818,-9.18363 -0.303635,-10.84025 2.158851,-2.39295 5.626511,-2.22612 7.283606,0.35043 0.746147,1.16016 1.796567,6.32813 2.334264,11.48438 0.537698,5.15625 1.45606,14.01562 2.040805,19.6875 0.584746,5.67187 1.444763,10.78753 1.911148,11.36813 1.04523,1.3012 -4.632307,11.60062 -6.394822,11.60062 -0.662716,0 -1.202592,-0.52734 -1.199726,-1.17188 z"
       style="fill:#fefefe"
       inkscape:connector-curvature="0" />
    <path
       id="path4325"
       d="m 399.42411,201.73593 c -0.22547,-3.22265 -0.94213,-13.17995 -1.59257,-22.12734 -1.14176,-15.70584 -1.11904,-16.35372 0.65761,-18.75 1.01213,-1.36511 2.67597,-2.60786 3.69742,-2.76165 3.53493,-0.53222 4.02134,1.52199 3.07581,12.98977 -1.29596,15.71789 -1.17389,31.38689 0.25332,32.51454 0.64252,0.50766 2.32476,1.20017 3.73831,1.5389 4.59991,1.10229 2.71268,2.45516 -3.42492,2.45516 l -5.99503,0 -0.40995,-5.85938 z"
       style="fill:#fefefe"
       inkscape:connector-curvature="0" />
    <path
       id="path4315"
       d="m 400.56771,132.04888 c -0.71054,-1.3318 -3.19983,-3.50419 -5.53176,-4.82754 -7.84369,-4.45124 -13.07002,-8.21146 -13.09428,-9.42107 -0.0427,-2.13037 2.80889,-2.37772 4.92999,-0.42764 1.13039,1.03924 5.08067,3.46494 8.7784,5.39044 6.74071,3.51005 10.56657,6.37661 10.56657,7.91709 0,4.14889 -3.6888,5.04268 -5.64892,1.36872 z"
       style="fill:#fefefe"
       inkscape:connector-curvature="0" />
    <path
       id="path4313"
       d="m 66.267604,119.70064 c -6.2944,-6.57199 -11.446269,-12.05455 -11.448598,-12.18345 -0.0023,-0.12891 0.812412,-0.23438 1.810538,-0.23438 0.998125,0 4.235208,2.12468 7.193517,4.72152 2.958309,2.59684 7.293529,5.95292 9.633824,7.45796 8.400765,5.40252 8.586182,5.59876 8.280021,8.76374 -0.556459,5.7525 -3.178551,4.30741 -15.469302,-8.52539 z"
       style="fill:#fefefe"
       inkscape:connector-curvature="0" />
    <path
       id="path4305"
       d="m 402.24467,125.66526 c -3.51737,-2.6784 -0.68924,-9.00745 4.02495,-9.00745 2.57258,0 2.75075,0.2359 2.75075,3.64218 0,2.83661 -0.5095,3.97705 -2.30357,5.15625 -2.71825,1.78663 -2.41875,1.77263 -4.47213,0.20902 z"
       style="fill:#fefefe"
       inkscape:connector-curvature="0" />
    <path
       id="path4301"
       d="m 76.543741,120.59371 c -3.496019,-1.68457 -3.743678,-2.85322 -1.257372,-5.93327 1.754214,-2.17314 1.808393,-2.17932 3.738318,-0.4273 1.890197,1.71594 2.711748,6.55939 1.257372,7.41283 -0.385514,0.22622 -2.067757,-0.24731 -3.738318,-1.05226 z"
       style="fill:#fefefe"
       inkscape:connector-curvature="0" />
    <path
       id="path4343"
       d="m 396.41317,159.30473 c 0.40358,-2.05737 0.79287,-8.59223 0.86509,-14.52192 0.0722,-5.92969 0.22745,-11.83594 0.34497,-13.125 0.2116,-2.32095 0.2326,-2.31412 2.15887,0.70312 1.06985,1.67579 2.73021,3.04688 3.68969,3.04688 2.21406,0 3.95509,-3.19174 3.21551,-5.89478 -0.55259,-2.01965 -0.52947,-2.02631 0.88281,-0.25416 1.71825,2.15609 1.79147,4.76525 0.43429,15.47528 -1.83169,14.45459 -1.82941,14.44439 -2.97445,13.29577 -1.83385,-1.83958 -4.17021,-1.16026 -6.80261,1.97794 l -2.54796,3.03755 0.73379,-3.74068 z"
       style="fill:#fefe00"
       inkscape:connector-curvature="0" />
    <path
       id="path4341"
       d="m 77.211384,150.78749 c -0.01831,-1.49789 -0.642581,-5.25468 -1.38727,-8.34843 -0.744688,-3.09375 -1.360549,-7.27241 -1.368578,-9.28593 -0.01391,-3.48755 0.06634,-3.58744 1.694505,-2.10937 3.191433,2.89723 6.637815,1.32655 6.778017,-3.08907 0.07531,-2.37183 0.0857,-2.36851 1.32122,0.42187 0.684923,1.54688 1.506177,5.76562 1.825008,9.375 0.31883,3.60937 0.826535,8.67187 1.128232,11.25 0.537967,4.59715 0.513419,4.65588 -1.273568,3.04687 -2.287233,-2.05942 -4.76982,-2.09112 -6.975171,-0.0891 -1.618176,1.46901 -1.710875,1.40666 -1.742395,-1.17187 z"
       style="fill:#fefe00"
       inkscape:connector-curvature="0" />
    <g
       transform="translate(4.8994082,-3.5225548)"
       id="g4546">
      <path
         inkscape:connector-curvature="0"
         style="fill:#000000"
         d="m 143.5918,83.59375 c -2.52765,0.02794 -4.28011,6.283549 -5,18.125 -0.37304,6.13598 -0.95922,8.94895 -2.14649,10.3125 -0.89794,1.03125 -2.17236,2.92969 -2.83203,4.21875 -0.65966,1.28906 -3.59422,5.50781 -6.52148,9.375 -6.36006,8.40222 -7.17938,9.97757 -15.85547,30.46875 -3.71143,8.76562 -8.01294,17.94197 -9.5586,20.39258 -1.54565,2.45059 -2.568769,5.08731 -2.273433,5.85937 0.295346,0.77205 1.156203,1.4043 1.912113,1.4043 2.28233,0 10.25597,-7.56508 11.35547,-10.77344 1.43791,-4.19567 11.49206,-23.05093 13.50195,-25.32031 0.91332,-1.03125 2.84075,-4.19531 4.2832,-7.03125 1.44244,-2.83594 5.48066,-8.35571 8.97266,-12.26562 3.63464,-4.06962 6.58727,-8.30245 6.90625,-9.90235 0.48484,-2.43173 0.89702,-2.74507 3.17187,-2.41015 1.43791,0.21169 3.50882,-0.0959 4.60352,-0.6836 1.6208,-0.87015 2.09807,-0.78798 2.56836,0.44141 0.31764,0.83034 0.1018,1.98622 -0.48047,2.57031 -1.23396,1.23782 -1.42537,4.4375 -0.26563,4.4375 1.31956,0 4.15244,-7.23553 3.34571,-8.54492 -0.40929,-0.66432 -0.77164,-3.18836 -0.80664,-5.60938 -0.0819,-5.66639 -2.33214,-8.3457 -7.00782,-8.3457 -1.86203,0 -4.32049,0.65631 -5.46289,1.45898 -2.47422,1.73842 -2.47192,1.77192 -0.61328,-8.056636 1.29663,-6.856442 1.30468,-7.902407 0.0723,-9.138672 -0.6627,-0.664771 -1.28584,-0.988871 -1.86914,-0.982422 z"
         id="path4253" />
      <path
         inkscape:connector-curvature="0"
         style="fill:#fefefe"
         d="m 99.999999,181.7227 c 0,-0.59939 1.218341,-3.02517 2.707411,-5.39062 1.48907,-2.36546 6.17598,-12.45271 10.41535,-22.41613 7.8942,-18.5531 9.18484,-20.79095 11.99072,-20.79095 5.21229,0 5.26846,8.69302 0.0939,14.53125 -2.09681,2.36574 -13.9719,25.01122 -14.052,26.79679 -0.0733,1.63352 -7.97222,8.35946 -9.81734,8.35946 -0.73592,0 -1.33803,-0.49041 -1.33803,-1.0898 z"
         id="path4323" />
      <path
         inkscape:connector-curvature="0"
         style="fill:#fefefe"
         d="m 139.85858,118.3505 c -0.9035,-1.46645 0.0871,-25.243971 1.2299,-29.522406 1.1097,-4.154384 2.91179,-5.6692 4.21942,-3.54679 0.30712,0.498484 -0.12267,4.552348 -0.9551,9.00859 -1.40833,7.539306 -1.40319,8.553776 0.0741,14.600946 1.50925,6.17781 1.50583,6.58937 -0.0691,8.33516 -1.69923,1.88349 -3.72034,2.38864 -4.49918,1.1245 z"
         id="path4299" />
      <path
         inkscape:connector-curvature="0"
         style="fill:#fefefe"
         d="m 144.99503,107.57808 c -0.70911,-2.53342 -0.53867,-3.32336 1.01139,-4.6875 1.02531,-0.90235 2.86902,-1.64063 4.09711,-1.64063 1.50487,0 2.23178,0.53494 2.22942,1.64063 -0.006,2.43416 -3.49753,7.73437 -5.09623,7.73437 -0.76896,0 -1.76954,-1.35997 -2.24169,-3.04687 z"
         id="path4289" />
      <path
         inkscape:connector-curvature="0"
         style="fill:#fefe00"
         d="m 129.96578,137.72343 c -0.0746,-3.06346 -3.11999,-5.93235 -5.60527,-5.28041 -1.37957,0.3619 -0.44532,-1.38767 3.56676,-6.67948 2.98976,-3.94338 6.10241,-8.46614 6.917,-10.05057 0.8146,-1.58443 2.15446,-3.44138 2.97748,-4.12655 1.33749,-1.1135 1.46808,-0.82146 1.22984,2.75032 -0.3441,5.1588 1.82656,7.01085 4.94314,4.2176 l 2.04807,-1.83559 -0.70623,2.34375 c -0.38843,1.28906 -3.59781,5.5746 -7.13196,9.52341 -3.53416,3.94881 -6.82036,8.16756 -7.30267,9.375 l -0.87692,2.19534 -0.0593,-2.43282 z"
         id="path4337" />
    </g>
    <path
       inkscape:connector-curvature="0"
       id="path3922"
       d="m 239.94729,53.498901 c -4.69577,-2.131908 -5.32817,-3.243651 -2.29384,-4.032649 1.72723,-0.449135 1.20789,-0.922131 -3.22463,-2.936858 -6.25644,-2.843768 -12.74759,-3.178176 -20.43867,-1.052949 -3.0147,0.833028 -5.76269,1.545999 -6.10663,1.584385 -0.34397,0.03839 -1.80078,1.288644 -3.23738,2.778359 -2.99344,3.104168 -3.74918,2.112647 -0.89789,-1.178022 2.4498,-2.82732 5.14153,-4.1198 11.71342,-5.624371 7.95784,-1.821885 13.69263,-1.30103 19.75155,1.793886 4.17634,2.133285 5.32754,2.396869 5.4489,1.2476 0.27692,-2.621969 1.64955,-1.683773 2.66147,1.819134 0.54535,1.8877 1.3146,4.353174 1.7095,5.478829 0.88339,2.518156 0.22548,2.534032 -5.0858,0.122656 z"
       style="fill:#fe0000" />
    <path
       inkscape:connector-curvature="0"
       id="path4271"
       d="m 273.06671,45.27787 c -0.58448,-0.02632 -1.22025,0.157279 -1.88281,0.576172 -1.84498,1.16646 -2.48193,7.581625 -0.94336,9.503906 0.51587,0.644531 1.67597,1.171875 2.57813,1.171875 2.44603,0 3.53153,-1.914906 3.39453,-5.992187 -0.10778,-3.207794 -1.39303,-5.180819 -3.14649,-5.259766 z m -7.41601,0.002 c -1.00339,0 -4.04688,3.01518 -4.04688,4.009766 0,0.498846 0.63133,0.38213 1.40235,-0.259766 1.21172,-1.008781 1.40234,-0.579725 1.40234,3.166016 0,2.383448 0.41957,4.333984 0.93359,4.333984 0.51922,0 0.93555,-2.5 0.93555,-5.625 0,-3.09375 -0.28192,-5.625 -0.62695,-5.625 z m 15.77929,0.02539 c -0.57953,-0.02829 -1.19946,0.144278 -1.83398,0.542968 -1.96737,1.236166 -2.70586,7.417284 -1.11524,9.339844 0.61012,0.737454 1.84784,1.341797 2.75,1.341797 2.536,0 3.88731,-2.339023 3.56446,-6.167969 -0.25913,-3.073177 -1.62667,-4.971778 -3.36524,-5.05664 z m 7.39453,0.132812 c -0.44737,0.04821 -0.88228,0.234701 -1.23828,0.591797 -0.5477,0.549432 -0.7319,1.690906 -0.4082,2.537109 0.7482,1.955841 3.7439,1.435358 4.1582,-0.722656 0.27898,-1.453064 -1.16964,-2.550864 -2.51172,-2.40625 z m 0.22266,1.103516 c 0.085,0.01291 0.18695,0.157047 0.29883,0.4375 0.27005,0.676758 0.23631,1.485351 -0.0742,1.796875 -0.31055,0.311523 -0.53083,-0.242188 -0.49023,-1.230469 0.028,-0.682584 0.12396,-1.025422 0.26562,-1.003906 z m -16.22851,0.613281 c 1.03841,0 1.86914,0.625 1.86914,1.40625 0,0.78125 -0.83072,1.40625 -1.86914,1.40625 -1.03842,0 -1.86915,-0.625 -1.86915,-1.40625 0,-0.78125 0.83072,-1.40625 1.86915,-1.40625 z m 8.4121,0.46875 c 0.97257,0 1.40235,0.980902 1.40235,3.203125 0,3.324107 -1.929,5.046377 -2.87695,2.56836 -0.89693,-2.344654 -0.0217,-5.771485 1.4746,-5.771485 z m -8.4121,4.21875 c 1.03841,0 1.86914,0.625 1.86914,1.40625 0,0.78125 -0.83072,1.40625 -1.86914,1.40625 -1.03842,0 -1.86915,-0.625 -1.86915,-1.40625 0,-0.78125 0.83072,-1.40625 1.86915,-1.40625 z"
       style="fill:#000000" />
    <path
       id="path4430"
       d="m 209.61351,132.5801 c -0.6187,-0.56422 0.0133,-1.28417 2.04117,-1.3917 2.76574,-0.14665 3.56197,-2.74479 1.8556,-6.04522 -0.5844,-1.13034 -0.76281,-3.03458 -0.39867,-4.23165 0.48418,-1.59167 0.2482,-2.17485 -0.87706,-2.17309 -2.08282,0.003 -4.56282,-2.66702 -7.48911,-8.0603 -1.55322,-2.86261 -1.70412,-3.46871 -0.41316,-1.66859 5.55802,7.7501 6.53404,8.79442 8.36763,8.962 1.05542,0.0965 2.98315,-0.88981 4.28528,-2.19194 1.90108,-1.90107 2.15237,-2.85227 1.26849,-4.82602 -0.6054,-1.3519 -1.78395,-3.13915 -2.61814,-3.97216 -1.23179,-1.2303 -1.29969,-0.84061 -0.35808,2.07741 1.50991,4.67919 0.90408,7.26032 -1.76283,7.5123 -1.10766,0.10466 -2.60543,-0.40189 -3.32995,-1.1264 -1.20206,-1.20207 -3.57254,-10.10096 -2.87619,-10.79732 0.3525,-0.3525 0.81522,1.28134 1.60772,5.67846 0.73416,4.07353 3.62419,6.43087 5.53782,4.51724 0.94972,-0.94972 0.90795,-2.77362 -0.13047,-5.74369 -1.91604,-5.48018 -2.06239,-8.48296 -0.2682,-5.50448 l 1.24964,2.07306 0.28414,-3.7489 0.28559,-3.747457 0.20296,4.030137 c 0.1116,2.21655 0.65115,4.4826 1.20034,5.03624 0.54918,0.55364 1.39959,2.29055 1.8904,3.85908 0.76808,2.45395 1.14326,2.82813 2.69074,2.68183 2.74717,-0.25958 5.37735,3.02486 6.29166,7.85444 1.04154,5.50164 -1.49727,8.54279 -7.12958,8.53868 -2.143,-0.002 -4.30377,0.69246 -5.01304,1.60916 -0.68567,0.88619 -2.46843,1.5523 -3.96202,1.48014 -1.24026,-0.0599 -2.06135,-0.34283 -2.43257,-0.68136 z"
       style="fill:#000000"
       inkscape:connector-curvature="0" />
    <path
       sodipodi:nodetypes="sssccsccsscs"
       inkscape:connector-curvature="0"
       id="path4466"
       d="m 228.24805,51.710938 c -1.28324,0.06189 -3.59601,0.874845 -6.64844,2.505859 -1.82435,0.974813 -4.31615,3.563884 -5.58203,5.800781 -1.25759,2.222245 -3.99014,6.592062 -6.07227,9.710938 -2.08591,2.856853 -4.03121,5.78874 -6.49414,8.269531 -3.04478,3.064972 -7.83907,11.183187 -8.07422,13.671875 -0.22763,2.409267 3.45172,6.055185 5.28516,5.236328 1.3255,-0.591979 5.28071,-6.954463 8.18359,-12.611328 2.18626,-3.939542 3.49297,-6.096419 8.36524,-14.353516 3.91045,-6.627084 8.30572,-13.123282 9.76953,-14.435547 1.23225,-1.104674 1.96608,-1.979321 2.25781,-2.609375 0.38291,-0.826945 0.008,-1.233682 -0.99023,-1.185546 z"
       style="fill:#fefefe" />
    <path
       id="path4454"
       d="m 209.87664,91.598739 c -0.67195,0.159612 -1.25811,2.406521 -1.30254,4.993133 -0.077,4.480648 0.0127,4.659788 1.89808,3.790338 3.87523,-1.78713 3.33754,-9.717739 -0.59554,-8.783471 z"
       style="fill:#fefefe"
       inkscape:connector-curvature="0" />
    <path
       id="path4452"
       d="m 213.88398,96.181671 c -0.35447,0.793695 -0.52181,1.565746 -0.37187,1.715694 0.14994,0.14994 0.74233,-0.197073 1.31641,-0.771153 0.57408,-0.57408 0.74141,-1.346146 0.37186,-1.715694 -0.36955,-0.369547 -0.96193,-0.02253 -1.3164,0.771153 z"
       style="fill:#fefefe"
       inkscape:connector-curvature="0" />
    <path
       id="path4450"
       d="m 211.89805,101.66365 c -1.92152,1.03769 -3.65058,2.04361 -3.84235,2.23538 -0.91286,0.91286 1.75468,9.89728 3.27775,11.03967 3.04359,2.28287 4.6993,-0.95062 2.99005,-5.83937 -1.91291,-5.47128 -2.06356,-8.49147 -0.27418,-5.49745 1.23515,2.06671 1.24353,2.06232 1.42196,-0.74345 0.0987,-1.55233 0.1212,-2.8807 0.05,-2.951941 -0.0713,-0.07125 -1.70167,0.719491 -3.62319,1.757161 z"
       style="fill:#fefefe"
       inkscape:connector-curvature="0" />
    <path
       id="path4446"
       d="m 221.40183,114.41565 c -0.9171,0.001 -2.51934,0.8545 -3.56054,1.8957 -1.54332,1.54331 -1.58922,2.36873 -0.24839,4.46733 1.75611,2.74862 3.9373,3.39914 7.63043,2.27573 1.7029,-0.51801 2.06917,-1.09463 1.80145,-2.83605 -0.41842,-2.7217 -3.40732,-5.80617 -5.62295,-5.80271 z"
       style="fill:#fefefe"
       inkscape:connector-curvature="0" />
    <path
       id="path4492"
       d="m 203.54137,95.588998 c -0.77624,1.141747 -2.26631,2.156749 -3.31138,2.255438 -2.31035,0.218293 -5.59714,-2.87118 -5.66232,-5.322384 -0.0391,-1.471667 -0.1754,-1.391178 -0.77199,0.455974 -0.99489,3.080411 -0.0409,4.789231 4.81135,8.617984 3.81974,3.01406 4.36959,3.15374 6.65368,1.69019 2.97352,-1.90529 3.56589,-5.899238 1.22251,-8.242609 -1.25942,-1.259422 -1.78048,-1.16282 -2.94185,0.545407 z"
       style="fill:#fefe00"
       inkscape:connector-curvature="0" />
    <path
       id="path3946"
       d="m 215.27786,109.05928 c 1.50992,4.67919 0.90426,7.26056 -1.76264,7.51255 -2.86137,0.27036 -4.56812,-1.8317 -5.50489,-6.77994 -0.97258,-5.13739 -1.23903,-5.47495 -3.34629,-4.23919 -1.34182,0.78689 -1.1638,1.70368 1.00604,5.18116 4.97292,7.96977 7.34861,9.01272 11.36987,4.99146 1.84315,-1.84315 2.08974,-2.81329 1.21279,-4.77154 -0.60539,-1.3519 -1.78326,-3.13954 -2.61745,-3.97255 -1.23179,-1.2303 -1.29903,-0.83997 -0.35743,2.07805 z"
       style="fill:#fefe00"
       inkscape:connector-curvature="0" />
    <path
       id="path4506"
       d="m 216.58597,80.231139 c -2.0365,1.099773 -3.69202,2.188235 -3.67893,2.41879 0.0131,0.23057 1.21483,1.294694 2.6705,2.364777 1.8243,1.341047 2.83062,1.533748 3.23863,0.620181 0.34278,-0.767501 1.03565,-0.88168 1.64609,-0.271245 1.41883,1.418834 -1.08885,7.217678 -4.66984,10.798664 -3.51251,3.512515 -23.82324,14.699874 -27.0435,14.895824 -3.22412,0.1962 -4.91948,-1.88845 -4.913,-6.04113 0.003,-1.95693 -0.29074,-3.55758 -0.65286,-3.55702 -1.38001,0.002 -1.80465,5.84941 -0.63118,8.69128 1.97766,4.78946 5.97051,4.13676 19.92151,-3.25646 9.48399,-5.02598 12.41725,-7.021207 15.3107,-10.414539 5.0407,-5.911547 6.2787,-10.299492 3.64805,-12.930148 -1.37153,-1.37153 -1.71331,-2.413171 -1.01946,-3.10702 2.05208,-2.052085 -0.18938,-2.176225 -3.82671,-0.211954 z"
       style="fill:#fe0000"
       inkscape:connector-curvature="0" />
    <g
       id="g5154">
      <path
         style="fill:#000000"
         d="m 255.60938,66.007812 c -0.93801,1.570928 -0.97979,3.214831 -0.1504,4.861329 0.64507,1.280606 1.81718,2.562363 3.50196,3.8125 1.46071,1.083865 5.99896,5.889348 10.08594,10.677734 1.63367,1.91406 3.12949,3.657808 4.51367,5.154297 l -7.31446,5.300781 c -7.76532,5.627457 -8.14534,5.959837 -8.27148,8.412107 -0.0725,1.40968 0.59755,3.29287 1.48828,4.1836 1.53887,1.53887 1.49235,1.64121 -0.93359,2.07226 -3.66721,0.65163 -6.98524,4.33026 -6.99024,7.74805 -0.004,2.31549 0.62323,3.35781 3.29688,5.48828 3.92458,3.12725 3.88436,4.67907 -0.12696,4.81055 -1.61409,0.0529 -3.14534,0.3055 -3.40039,0.56054 -0.92054,0.92054 0.71056,1.57592 3.68164,1.47852 3.15106,-0.1033 5.40211,-1.58333 5.00196,-3.28906 -0.12753,-0.54361 1.14025,-2.03804 2.81836,-3.32032 2.0419,-1.56026 3.23052,-3.19537 3.59765,-4.94531 0.52363,-2.49596 0.67167,-2.56059 3.22852,-1.4082 0.47666,0.21483 1.05114,0.36418 1.6543,0.45898 l -0.0566,0.0859 0.18554,-0.0645 c 1.2266,0.17375 2.56285,0.10294 3.49805,-0.24805 2.25634,-0.84684 2.85545,-1.71802 4.51367,-6.54883 1.44747,-4.21678 2.57604,-6.02615 4.63672,-7.4375 2.09596,-1.43552 3.28003,-3.39327 5.14062,-8.50781 1.40054,-3.562171 2.32784,-7.424261 0.0801,-9.8125 -1.63275,-1.741609 -5.9522,-4.498927 -8.05664,-6.167969 -3.41437,-3.181104 -7.64186,-6.366417 -9.9414,-10.83789 -1.51107,-3.097268 -4.89506,-4.73438 -9.95899,-4.81836 -2.88104,0.106691 -4.78959,0.754938 -5.72271,2.300871 z m 6.24804,-1.441406 c 4.58933,0.07612 7.10755,1.375217 8.60156,4.4375 0.51624,1.058148 3.05264,4.116696 5.63282,6.796875 l 1.75586,1.824219 c 0.14422,0.156584 0.29269,0.312858 0.45312,0.470703 0.0129,0.01265 0.0261,0.0264 0.0391,0.03906 2.986,2.917453 8.52975,6.005189 10.22266,7.832031 2.18408,2.703205 0.97435,6.19224 0.46484,7.648437 -0.95808,2.356899 -1.18065,2.592784 -1.93554,1.837891 -0.886,-0.901363 -1.68605,-2.016257 -2.34766,-2.349609 -0.47855,-0.260237 -2.71803,-0.82806 -5.18359,-0.984375 l -3.4043,-0.214844 c -1.59602,-1.700556 -4.3011,-4.692149 -6.24414,-6.966797 -4.08933,-4.787228 -8.63304,-9.591919 -10.09375,-10.675781 -6.42305,-4.766032 -5.36017,-9.818022 2.03906,-9.695313 z m 12.36328,26.646485 c 0.24749,0.259004 0.49071,0.510474 0.73047,0.75 l -7.58203,7.582031 c -7.5904,7.590388 -9.06658,8.374158 -8.71289,4.630858 0.14542,-1.539 1.625,-2.90588 7.91016,-7.308592 5.29554,-3.709492 6.17048,-4.668725 7.65429,-5.654297 z"
         id="path5133"
         inkscape:connector-curvature="0"
         sodipodi:nodetypes="cssscsssscsscssssscccssscccccccccccccccccssscccsscsc" />
      <path
         style="fill:#000000"
         d="m 264.85136,67.207645 c -0.0599,0.03295 0.16384,0.271685 0.63604,0.736535 0.58436,0.575243 3.41145,3.667586 6.28128,6.872783 3.1714,3.542035 10.50759,9.477153 11.9978,9.985179 1.2317,0.432373 1.84244,0.507703 1.00281,-0.02364 -1.01198,-0.680161 -9.66026,-7.648094 -12.14773,-10.433642 -2.86477,-3.208019 -5.87939,-6.19571 -6.701,-6.639039 -0.66393,-0.358244 -1.00926,-0.531103 -1.06923,-0.498156 z"
         id="path4442"
         inkscape:connector-curvature="0"
         inkscape:transform-center-x="-4.5028912"
         inkscape:transform-center-y="5.3809073"
         sodipodi:nodetypes="cssccsscc" />
      <path
         inkscape:connector-curvature="0"
         style="fill:#fefefe"
         d="m 254.7997,115.14756 c 0.56148,-0.005 1.95018,-0.95717 3.08599,-2.11555 1.74832,-1.78295 1.7734,-2.02863 0.16378,-1.60109 -2.09952,0.55765 -4.8748,3.73164 -3.24977,3.71664 z"
         id="path4468" />
      <path
         sodipodi:nodetypes="ssccssscccssscsssssssssscssssccsssssssssscsscccsscccsss"
         inkscape:connector-curvature="0"
         style="fill:#fefefe"
         d="m 261.28711,64.613281 c -0.6514,0.01475 -1.26773,0.05256 -1.60156,0.109375 -1.93235,0.328848 -3.20502,1.066916 -3.76172,2.179688 -0.2448,0.489308 -0.3077,0.834836 -0.2793,1.517578 0.037,0.889089 0.3407,1.678976 1.0332,2.689453 0.67231,0.981011 1.64279,1.960098 2.95313,2.978516 1.83342,1.42497 5.44613,5.219635 10.14062,10.65039 2.05833,2.381161 4.63382,5.257617 6.18164,6.90625 l 0.23047,0.246094 1.76953,0.107422 c 2.06433,0.124247 2.64822,0.175966 3.5918,0.316406 1.30142,0.193701 2.74124,0.538081 3.17578,0.759766 0.36347,0.185428 0.71347,0.508773 1.53321,1.421875 0.8478,0.944371 1.0434,1.143494 1.21875,1.240234 0.39001,0.215181 0.67059,-0.104078 1.22656,-1.394531 1.61126,-3.739905 1.42867,-6.862276 -0.50781,-8.695313 -0.52045,-0.492648 -1.47819,-1.223255 -2.97657,-2.269531 -3.92315,-2.739429 -4.46032,-3.132063 -5.72461,-4.1875 -0.93841,-0.7834 -3.59951,-3.505492 -5.38867,-5.511719 -1.70714,-1.914256 -3.13009,-3.710374 -3.54883,-4.478515 -0.66144,-1.213362 -1.01829,-1.725627 -1.61523,-2.320313 -1.31956,-1.314572 -3.15784,-2.018009 -5.83203,-2.232422 -0.47901,-0.03841 -1.16696,-0.04795 -1.81836,-0.0332 z m 3.59819,2.577565 c 0.0591,0.01236 0.15856,0.05285 0.29451,0.113559 0.70049,0.312795 1.10274,0.587183 1.86849,1.272487 1.20775,1.080875 2.75729,2.662444 5.13993,5.249161 0.64801,0.70352 1.42838,1.525362 1.73535,1.828005 1.84992,1.823887 5.40481,5.025421 8.85376,7.609614 1.0301,0.771823 1.99518,1.495484 2.14454,1.607422 0.1493,0.111939 0.25723,0.226456 0.24023,0.253906 -0.0313,0.05068 -0.17141,0.05519 -0.35742,0.01367 -0.42833,-0.09561 -1.19362,-0.366136 -1.50586,-0.533203 -1.98073,-1.059803 -7.64376,-5.703836 -10.47268,-8.629892 -0.27869,-0.288266 -1.25687,-1.354552 -2.1743,-2.370916 -2.34627,-2.599304 -4.34765,-4.77836 -5.11292,-5.568431 -0.64704,-0.668011 -0.83098,-0.882476 -0.65363,-0.845384 z m 9.31197,24.090404 c -0.0654,0 -0.72495,0.483172 -1.78516,1.308594 -1.54194,1.20047 -3.44974,2.609468 -5.31055,3.923828 -5.09607,3.599558 -6.76987,4.916338 -7.66992,6.035158 -0.60453,0.75148 -0.7752,1.26818 -0.7832,2.35351 -0.005,0.76252 0.055,1.05498 0.26758,1.26758 0.55391,0.55391 1.95019,-0.39135 5.35742,-3.62304 0.56704,-0.53783 3.19718,-3.135858 5.84375,-5.773442 l 4.8125,-4.794922 -0.34766,-0.34961 c -0.19051,-0.19198 -0.36296,-0.347656 -0.38476,-0.347656 z m 4.8789,17.11328 c -0.22093,0.0641 -0.69115,0.52733 -1.4414,1.27539 -1.11753,1.11464 -3.01572,3.47877 -4.2168,5.25391 l -2.18359,3.22656 2.79492,-0.97851 c 2.4752,-0.86657 2.95569,-1.46692 4.21484,-5.25391 0.87468,-2.63069 1.20025,-3.63029 0.83203,-3.52344 z"
         id="path4460" />
      <path
         inkscape:connector-curvature="0"
         style="fill:#fefe00"
         d="m 278.11357,108.31984 c 4.71693,-4.84579 8.71036,-9.375182 8.87429,-10.065313 0.52443,-2.207736 -3.4102,-5.104485 -7.39054,-5.44104 l -3.82583,-0.323495 -7.71863,7.718638 -7.71864,7.71863 4.60157,4.60156 4.60156,4.60157 8.57622,-8.81055 z"
         id="path4494" />
    </g>
    <g
       transform="matrix(0.73361427,0.67956611,0.67956611,-0.73361427,-66.95544,203.36875)"
       id="g5064">
      <path
         inkscape:connector-curvature="0"
         style="fill:#000000"
         d="m 257.39648,314.50586 c -2.82139,0 -27.83667,8.7818 -29.60937,10.39453 -0.46425,0.42236 -1.66758,0.32536 -2.67383,-0.21484 -1.00623,-0.54022 -3.5586,-0.81741 -5.67187,-0.61524 -3.20684,0.30677 -4.18475,-0.0262 -5.91602,-2.01953 -1.97427,-2.27314 -2.20163,-2.32025 -4.69336,-0.95117 -1.43993,0.79116 -2.77127,2.26772 -2.95898,3.28125 -0.30637,1.65432 -0.0837,1.60407 2.17578,-0.5 l 2.51758,-2.34375 1.6582,2.05078 c 1.2614,1.55958 1.5508,3.15974 1.21289,6.6875 -0.3724,3.88769 -0.10948,4.97301 1.61914,6.70703 1.68123,1.68645 2.90504,2.00824 6.625,1.74805 l 4.5625,-0.31836 -0.62891,3.75 c -1.12571,6.72363 -0.89814,8.4375 1.11719,8.4375 1.31967,0 2.11068,-0.97199 2.80274,-3.43945 0.53049,-1.8914 1.24875,-3.72305 1.5957,-4.07032 1.01378,-1.0147 1.99322,7.75098 1.41406,12.65625 -0.29204,2.47355 -0.27484,4.75348 0.0371,5.06641 2.09583,2.10237 5.53498,-2.07138 6.29883,-7.64258 0.3517,-2.56519 0.18755,-7.11753 -0.36524,-10.11719 -1.35816,-7.36998 -1.31492,-7.70229 1.09766,-8.42773 1.15654,-0.34777 3.99551,-1.80767 6.3086,-3.24414 8.17033,-5.07393 6.81932,-5.73426 24.69531,12.0918 8.84321,8.81849 16.56864,16.0332 17.16601,16.0332 0.59738,0 1.79524,-1.08497 2.66211,-2.41211 1.49499,-2.28878 1.47677,-2.61449 -0.3457,-6.32813 -3.08483,-6.28596 -13.08612,-19.19839 -21.73242,-28.05664 -6.73356,-6.89863 -8.4789,-8.20312 -10.97071,-8.20312 z"
         id="path4962" />
      <path
         inkscape:connector-curvature="0"
         style="fill:#fefefe"
         d="m 233.50141,355.29671 c 0.53575,-5.2071 -0.91453,-15.10863 -2.78484,-19.013 -1.25481,-2.61946 -0.31775,-3.71068 3.91582,-4.56004 l 3.13902,-0.62976 -0.60317,3.22517 c -0.33174,1.77385 -0.14861,5.69174 0.40695,8.70643 1.58617,8.60722 -0.33753,17.41777 -3.80301,17.41777 -0.44015,0 -0.56201,-2.31595 -0.27077,-5.14657 z"
         id="path5010" />
      <path
         inkscape:connector-curvature="0"
         style="fill:#fefefe"
         d="m 271.01855,342.86515 c -8.94876,-8.96983 -15.90285,-16.7081 -16.21801,-18.04688 -0.78262,-3.32459 1.42282,-6.05801 4.30285,-5.33291 2.61966,0.65955 12.91565,12.76045 19.85655,23.33746 2.60706,3.9728 4.87694,7.08603 5.04416,6.91829 0.58379,-0.58561 -8.90322,-14.20108 -15.05727,-21.60974 -3.4119,-4.10748 -6.18634,-8.1153 -6.1654,-8.90625 0.021,-0.79608 3.04598,1.73439 6.7757,5.66814 7.66322,8.08246 18.01607,21.97446 17.82447,23.9178 -0.0705,0.71474 0.19615,1.0985 0.59247,0.85279 0.39633,-0.24571 1.22519,0.77524 1.8419,2.26878 1.20782,2.92504 0.0611,6.63564 -2.05064,6.63564 -0.59428,0 -8.13033,-7.06641 -16.74678,-15.70313 z"
         id="path5006" />
      <path
         inkscape:connector-curvature="0"
         style="fill:#fefefe"
         d="m 225.8206,346.1464 c 0.34357,-2.19141 1.04327,-5.62483 1.55487,-7.62981 0.82015,-3.21417 1.09341,-3.48172 2.30975,-2.26156 1.21636,1.22016 1.19453,2.12275 -0.18448,7.62981 -1.03916,4.14987 -2.02393,6.24593 -2.93444,6.24593 -1.08717,0 -1.24129,-0.82347 -0.7457,-3.98437 z"
         id="path4996" />
      <path
         inkscape:connector-curvature="0"
         style="fill:#fefefe"
         d="m 221.67374,335.0577 c 2.92168,-4.11593 7.42478,-5.56675 7.42478,-2.39213 0,2.28093 -3.7715,5.2777 -6.64211,5.2777 l -2.83096,0 2.04829,-2.88557 z"
         id="path4982" />
      <path
         inkscape:connector-curvature="0"
         style="fill:#fefe00"
         d="m 238.44432,332.73438 c 0,-2.00603 -2.32268,-2.64277 -5.53832,-1.51828 -3.11778,1.09025 -4.34708,0.21692 -4.88453,-3.47008 -0.30149,-2.06847 0.61471,-2.58648 12.75928,-7.21379 7.19628,-2.74191 14.20628,-5.00862 15.57777,-5.03713 3.38678,-0.0704 5.45027,0.82642 5.45027,2.36877 0,0.91592 -0.77663,1.1267 -2.71701,0.73741 -2.20992,-0.44336 -3.00931,-0.0976 -4.28311,1.85254 -0.8856,1.35581 -1.31609,3.1878 -0.99073,4.21613 0.45043,1.4236 -0.0491,2.03687 -2.30028,2.82409 -1.58161,0.55307 -4.0638,1.85427 -5.51599,2.89155 -1.45219,1.03729 -3.74667,2.30791 -5.09885,2.82362 -1.98071,0.75541 -2.45851,0.66313 -2.45851,-0.47483 z"
         id="path3524" />
    </g>
  </g>
</svg>
