<?xml version="1.0" encoding="UTF-8" standalone="no"?>
<!-- Created with Inkscape (http://www.inkscape.org/) -->

<svg
   xmlns:dc="http://purl.org/dc/elements/1.1/"
   xmlns:cc="http://creativecommons.org/ns#"
   xmlns:rdf="http://www.w3.org/1999/02/22-rdf-syntax-ns#"
   xmlns:svg="http://www.w3.org/2000/svg"
   xmlns="http://www.w3.org/2000/svg"
   xmlns:sodipodi="http://sodipodi.sourceforge.net/DTD/sodipodi-0.dtd"
   xmlns:inkscape="http://www.inkscape.org/namespaces/inkscape"
   id="svg3336"
   version="1.1"
   inkscape:version="0.91 r13725"
   width="452.33646"
   height="227.8125"
   viewBox="0 0 452.33646 227.8125"
   sodipodi:docname="fx830103.svg">
  <metadata
     id="metadata3342">
    <rdf:RDF>
      <cc:Work
         rdf:about="">
        <dc:format>image/svg+xml</dc:format>
        <dc:type
           rdf:resource="http://purl.org/dc/dcmitype/StillImage" />
        <dc:title></dc:title>
      </cc:Work>
    </rdf:RDF>
  </metadata>
  <defs
     id="defs3340" />
  <sodipodi:namedview
     pagecolor="#ababab"
     bordercolor="#666666"
     borderopacity="1"
     objecttolerance="10"
     gridtolerance="10"
     guidetolerance="10"
     inkscape:pageopacity="0"
     inkscape:pageshadow="2"
     inkscape:window-width="1493"
     inkscape:window-height="851"
     id="namedview3338"
     showgrid="false"
     inkscape:zoom="0.97701994"
     inkscape:cx="143.88011"
     inkscape:cy="176.2438"
     inkscape:window-x="0"
     inkscape:window-y="0"
     inkscape:window-maximized="0"
     inkscape:current-layer="svg3336" />
  <g
     id="g4386"
     transform="translate(2.1274952,-9.4269618)">
    <g
       id="g3346">
      <path
         sodipodi:nodetypes="cssssssscsssscscsssssssssssssssssssssssssssssssssssssssssssssssssssssssssssssscccs"
         inkscape:connector-curvature="0"
         id="path3356"
         d="m 53.276242,207.89062 c 0.0029,-0.64453 0.432504,-2.71506 0.954751,-4.60119 0.98234,-3.54777 -1.234849,-16.77495 -5.632483,-33.60193 -2.232006,-8.54048 -2.286431,-10.23574 -0.414673,-12.9164 1.75275,-2.51022 4.26028,-2.67907 6.294845,-0.42388 1.488195,1.64958 2.063602,5.43791 4.446975,29.27778 0.592816,5.92969 1.463781,11.25628 1.935478,11.83688 1.05582,1.29958 -4.61404,11.60062 -6.385167,11.60062 -0.662716,0 -1.202593,-0.52734 -1.199726,-1.17188 z M 407.47665,208.125 c 0,-0.51563 0.78962,-0.9375 1.75472,-0.9375 0.9651,0 2.25771,-0.60794 2.87245,-1.35098 0.88804,-1.07337 0.72269,-1.89214 -0.80463,-3.98438 -2.83131,-3.87854 -6.84282,-14.33035 -6.94778,-18.10214 -0.0711,-2.55631 1.24481,-5.30039 5.95622,-12.42029 5.17749,-7.82425 6.41254,-9.13927 8.58474,-9.14063 2.7286,-0.002 4.47213,2.2036 4.47213,5.6566 0,1.20068 -2.4903,4.72961 -6.08952,8.62924 -3.34923,3.62878 -6.3101,7.48845 -6.57972,8.57706 -0.28377,1.14575 1.10326,5.90205 3.29359,11.29422 4.60866,11.34553 4.40359,12.7163 -1.90229,12.7163 -2.53545,0 -4.60991,-0.42188 -4.60991,-0.9375 z M 69.650082,169.35222 c -1.668131,-1.22358 -1.672386,-1.43196 -0.110062,-5.39062 0.893829,-2.26482 4.262387,-8.3366 7.485682,-13.49285 3.223294,-5.15625 6.840171,-11.0625 8.037503,-13.125 3.830716,-6.59872 10.686022,-15.60468 11.048311,-14.5144 0.192757,0.58007 -0.484289,1.97374 -1.504551,3.09704 -1.020262,1.1233 -5.89799,8.485 -10.839404,16.35934 -4.941414,7.87435 -9.667382,15.36263 -10.502152,16.64063 -0.834769,1.278 -1.289824,2.32364 -1.011233,2.32364 0.278591,0 5.200126,-7.48828 10.936745,-16.64063 5.736618,-9.15234 11.468352,-17.58984 12.737184,-18.74999 3.020468,-2.76176 5.531865,-2.66985 7.453955,0.27277 2.0841,3.19069 1.69986,3.89429 -10.730546,19.6491 C 86.955983,153 82.053362,160.00712 81.7568,161.35262 c -0.564573,2.56146 -4.15456,6.42924 -7.629937,8.22033 -2.533731,1.3058 -2.385678,1.3131 -4.476781,-0.22073 z M 383.17758,156.53308 c 0,-1.10899 0.91039,-1.46056 5.98276,-2.31042 2.69073,-0.45083 5.06188,-1.96538 9.04783,-5.77921 5.35915,-5.12774 8.46093,-6.17616 9.05881,-3.06193 0.3594,1.87204 -8.3085,9.22734 -12.74992,10.81918 -4.09334,1.46709 -11.33948,1.67948 -11.33948,0.33238 z m 9.02475,-12.93348 c -1.4465,-1.60336 -1.40709,-1.84317 0.61632,-3.75 2.69619,-2.54085 5.44997,-2.59922 7.64865,-0.1621 1.63236,1.80938 1.63236,1.94062 0,3.75 -2.11272,2.34182 -6.22572,2.42249 -8.26497,0.1621 z M 46.305397,133.26316 c -0.302243,-0.95526 -5.797874,-6.89879 -12.212511,-13.20784 -6.414639,-6.30905 -11.662979,-11.64467 -11.662979,-11.85691 0,-0.21225 0.827083,-0.38591 1.837963,-0.38591 1.010879,0 3.879528,1.79297 6.374775,3.98438 2.495246,2.1914 7.782734,6.72656 11.749975,10.07812 6.974526,5.89215 8.868496,8.76012 7.737505,11.71665 -0.752405,1.96687 -3.164014,1.75974 -3.824728,-0.32849 z m 71.852723,-1.77879 c 2.35615,-9.81311 2.54914,-12.08495 1.4267,-16.79573 -1.24265,-5.21528 -0.80571,-7.81364 1.3139,-7.81364 1.67125,0 2.31631,1.67622 3.04784,7.9199 0.70451,6.01297 -2.75765,19.2676 -5.03277,19.2676 -1.02666,0 -1.21796,-0.65269 -0.75567,-2.57813 z m -74.126424,-9.02694 c -2.028322,-2.1658 -2.0559,-2.39481 -0.623068,-5.17427 1.818251,-3.52709 2.364665,-3.58071 5.23682,-0.51389 2.08265,2.22381 2.144153,2.56888 0.863845,4.84671 -1.873758,3.33365 -2.983877,3.50419 -5.477597,0.84145 z m 72.468294,-21.04687 c -2.12585,-2.356372 -1.94963,-3.456547 0.91577,-5.717516 3.17627,-2.506261 5.48047,-2.461881 7.29761,0.140559 2.09263,2.996991 1.8156,4.243617 -1.30247,5.861077 -3.59145,1.863 -5.02708,1.80399 -6.91091,-0.28412 z m -10.75746,-5.221138 c -1.61293,-2.866888 -4.83085,-7.199843 -7.150948,-9.628793 -2.532953,-2.651792 -3.878682,-4.757002 -3.368206,-5.269079 1.60415,-1.609157 4.693075,0.374448 8.163244,5.242152 1.91049,2.679901 4.75161,6.249224 6.31359,7.931826 l 2.83996,3.059278 -1.93252,1.938563 -1.93253,1.938561 z"
         style="fill:#fefefe" />
      <path
         sodipodi:nodetypes="sssscssscsssssssscsssscsssscsssssscsssss"
         inkscape:connector-curvature="0"
         id="path3352"
         d="m 424.44865,167.31798 c -0.26239,-3.33444 -2.85488,-6.06798 -5.75489,-6.06798 -1.48257,0 -2.9136,0.35386 -3.18007,0.78636 -0.26646,0.43249 -3.19892,-1.71535 -6.51658,-4.77299 l -6.0321,-5.55934 2.95676,-2.67357 c 2.45072,-2.21601 2.77965,-2.96351 1.922,-4.36765 -1.55165,-2.5403 -3.98038,-2.59 -6.75891,-0.13828 l -2.48672,2.19422 2.26571,-2.57813 c 1.24615,-1.41796 3.08182,-2.57812 4.07929,-2.57812 2.36992,0 16.20495,13.49995 18.56552,18.11587 1.09409,2.13941 1.68326,4.78521 1.46136,6.5625 -0.2045,1.63784 -0.43911,2.12253 -0.52137,1.07711 z M 45.794394,154.40335 c 0,-2.35785 -0.652413,-7.10894 -1.449807,-10.55798 -0.797393,-3.44904 -1.323094,-8.01037 -1.168224,-10.1363 l 0.281582,-3.86532 1.659514,3.04687 c 1.747741,3.20886 3.302858,3.78775 5.162916,1.92188 1.567401,-1.5723 1.396972,-4.62577 -0.401988,-7.20217 -1.47834,-2.11723 -1.464493,-2.15021 0.46729,-1.11312 1.094925,0.58782 2.013369,1.15938 2.040987,1.27015 0.02762,0.11076 0.623005,5.68576 1.323082,12.38889 0.700077,6.70312 1.584626,13.24219 1.965666,14.53125 0.672532,2.27519 0.638511,2.29576 -1.163027,0.70312 -2.586894,-2.28691 -4.52294,-2.05007 -6.781001,0.82956 l -1.93699,2.47018 z m 59.467856,-24.74284 c 0.71098,-2.72727 -3.18363,-7.10676 -5.863005,-6.59296 -1.381364,0.26489 -2.202981,-0.0228 -2.202981,-0.77133 0,-1.41042 11.491126,-19.82861 13.878836,-22.24527 1.57811,-1.597241 1.81179,-1.511328 5.52351,2.03057 3.28003,3.12997 3.66687,3.87221 2.51705,4.82947 -0.74726,0.6221 -1.35865,2.38854 -1.35865,3.92543 0,1.9971 -1.21587,4.1509 -4.26165,7.54914 -2.34392,2.61514 -4.49498,5.92508 -4.78017,7.35545 -0.28518,1.43036 -1.28211,3.29386 -2.2154,4.14111 -1.58483,1.43874 -1.66655,1.4241 -1.23754,-0.22161 z"
         style="fill:#fefe00" />
      <path
         sodipodi:nodetypes="scsssssscsssssssssssssscssscssssssssscsssssscscscsssscsssssssssssscscsssssssssssssssscssssssssccccsscssscsccssssssssssssssssssssssssssssssssscsssssssscssscssssscssssssssssssssssssssssssssssssscssssssssssssssssscccssscssssssssssssssscsssssssssssssssssssssss"
         inkscape:connector-curvature="0"
         id="path3348"
         d="m 36.071035,209.299 15.977578,-0.27954 1.063672,-4.90035 c 0.919538,-4.23632 0.761533,-6.3613 -1.166018,-15.68161 -1.226331,-5.92969 -3.110495,-14.21207 -4.187031,-18.40528 -1.076537,-4.19322 -2.371117,-11.3651 -2.876845,-15.9375 -0.505728,-4.57241 -1.338505,-10.00097 -1.850614,-12.06347 -0.512111,-2.0625 -0.941142,-5.9097 -0.953405,-8.54933 l -0.0223,-4.79933 -10.316117,-9.99781 C 26.066094,113.186 21.675027,108.27929 21.98203,107.78099 c 1.210347,-1.9645 4.31889,-0.69269 9.505643,3.88909 7.4896,6.61601 9.855313,8.13213 10.352861,6.63482 0.216879,-0.65267 1.442886,-2.43672 2.724461,-3.96454 2.615704,-3.1183 7.603997,-3.83325 9.633117,-1.38068 0.692576,0.83712 1.983812,1.18876 3.221165,0.87724 2.628995,-0.6619 4.192357,1.20004 4.907764,5.84505 0.63432,4.11853 -0.58901,3.58951 -2.130049,-0.92113 -1.284594,-3.76003 -3.780375,-4.05547 -3.353826,-0.39702 0.362013,3.10493 -4.593659,8.72556 -6.907849,7.83475 -1.266605,-0.48755 -1.264335,-0.31745 0.02031,1.52237 1.729077,2.47632 1.869468,5.54201 0.324751,7.09156 -1.860058,1.86587 -3.415175,1.28698 -5.162916,-1.92188 l -1.659516,-3.04687 -0.281582,3.86532 c -0.15487,2.12593 0.370831,6.68726 1.168224,10.1363 0.797394,3.44904 1.449807,8.20013 1.449807,10.55798 l 0,4.28701 1.93699,-2.47018 c 2.258061,-2.87963 4.194107,-3.11647 6.781001,-0.82956 1.801538,1.59264 1.835559,1.57207 1.163027,-0.70312 -0.38104,-1.28906 -1.227757,-7.66486 -1.881594,-14.16844 -0.653837,-6.50358 -1.521203,-12.40983 -1.927478,-13.125 -0.57932,-1.01978 -0.480026,-1.0604 0.460249,-0.18829 0.701007,0.65019 1.691008,5.90642 2.383776,12.65625 0.651663,6.34933 1.816024,16.60673 2.587467,22.79423 0.771443,6.1875 1.901399,16.3125 2.511013,22.5 0.609615,6.1875 1.505808,11.73324 1.991539,12.32388 0.585784,0.71228 -0.07212,2.69908 -1.953944,5.90062 -1.560401,2.65472 -2.837093,5.01913 -2.837093,5.25426 0,0.23511 78.599872,0.42749 174.666372,0.42749 154.39685,0 174.72879,-0.16319 175.20432,-1.40625 0.29587,-0.77344 1.36745,-1.40625 2.38128,-1.40625 2.80009,0 3.17801,-1.55503 1.07735,-4.43304 -2.81981,-3.8633 -6.81667,-14.31394 -6.92841,-18.11584 -0.0764,-2.60165 1.08237,-5.07308 5.29739,-11.29765 3.17401,-4.68728 5.17297,-8.54858 4.85534,-9.37889 -0.29694,-0.77625 -2.9624,-3.55039 -5.92323,-6.16477 l -5.38333,-4.75342 -2.54498,2.19595 c -4.53749,3.91518 -17.00116,5.64702 -17.00116,2.36234 0,-1.66574 1.88338,-2.66578 6.38378,-3.38966 2.23037,-0.35876 4.87287,-1.78194 7.00934,-3.77506 l 3.42931,-3.19922 -2.85405,-0.0254 c -3.68924,-0.0328 -8.82819,-5.12147 -8.82819,-8.74184 0,-2.87287 2.92166,-6.28349 5.38266,-6.28349 0.90439,0 2.16965,-0.84375 2.81166,-1.875 1.45644,-2.33942 4.11838,-2.40895 6.14681,-0.16056 2.49771,2.76857 1.88467,4.55589 -0.72054,2.10076 -1.247,-1.17515 -2.74985,-1.83746 -3.33968,-1.47179 -0.7276,0.45109 -0.45799,1.09655 0.83859,2.00755 1.05105,0.73847 2.35982,3.01474 2.9084,5.05836 0.75706,2.82027 1.46668,3.71568 2.94474,3.71568 2.47339,0 17.13256,14.19653 19.56448,18.94703 3.05543,5.96845 2.48931,7.69185 -5.23097,15.9242 -3.85639,4.11217 -7.23783,8.3898 -7.5143,9.50585 -0.29942,1.2086 1.02743,5.79603 3.2811,11.34412 2.0811,5.12322 3.54766,10.06132 3.25904,10.97355 -0.46344,1.46472 0.27305,1.69653 6.30059,1.98314 3.75395,0.1785 -85.698,0.31355 -198.78212,0.3001 -113.08411,-0.0134 -198.417572,-0.15026 -189.629905,-0.304 z m 22.628801,-5.50899 c 1.952148,-3.40939 2.715874,-5.64552 2.161299,-6.32813 -0.471697,-0.5806 -1.342662,-5.90719 -1.935478,-11.83688 -2.383373,-23.83987 -2.95878,-27.6282 -4.446975,-29.27778 -2.034565,-2.25519 -4.542095,-2.08634 -6.294845,0.42388 -1.871758,2.68066 -1.817333,4.37592 0.414673,12.9164 4.397634,16.82698 6.614823,30.05416 5.632483,33.60193 -2.124266,7.67191 0.212779,7.9337 4.468843,0.50058 z m 358.534734,3.57182 c 0.29949,-0.94654 -1.13977,-5.83123 -3.24572,-11.01563 -2.19033,-5.39217 -3.57736,-10.14847 -3.29359,-11.29422 0.26962,-1.0886 3.23049,-4.94828 6.57972,-8.57706 3.59922,-3.89963 6.08952,-7.42856 6.08952,-8.62924 0,-3.453 -1.74353,-5.6583 -4.47213,-5.6566 -2.1722,9.4e-4 -3.40725,1.31638 -8.58474,9.14063 -4.71141,7.1199 -6.02736,9.86398 -5.95622,12.42029 0.10496,3.77179 4.11647,14.2236 6.94778,18.10214 1.52732,2.09224 1.69267,2.91101 0.80463,3.98438 -0.61474,0.74304 -1.90735,1.35098 -2.87245,1.35098 -0.9651,0 -1.75472,0.42187 -1.75472,0.9375 0,0.51562 2.07446,0.9375 4.60991,0.9375 3.63161,0 4.72411,-0.36092 5.14801,-1.70067 z m 6.27409,-47.68345 c -2.71414,-5.30729 -16.21445,-18.1386 -18.96207,-18.02243 l -2.21013,0.0935 2.248,0.63099 c 1.2364,0.34706 2.70836,1.38373 3.27103,2.30375 0.84239,1.37738 0.50096,2.1448 -1.93372,4.34632 l -2.95676,2.67357 6.0321,5.55934 c 3.31766,3.05764 6.25012,5.20548 6.51658,4.77299 0.26647,-0.4325 1.6975,-0.78636 3.18007,-0.78636 2.90001,0 5.4925,2.73354 5.75489,6.06798 0.0822,1.04542 0.31687,0.56073 0.52137,-1.07711 0.2219,-1.77729 -0.36727,-4.42309 -1.46136,-6.5625 z m -28.9916,-3.47768 c 4.44142,-1.59184 13.10932,-8.94714 12.74992,-10.81918 -0.59788,-3.11423 -3.69966,-2.06581 -9.05881,3.06193 -3.98595,3.81383 -6.3571,5.32838 -9.04783,5.77921 -5.07237,0.84986 -5.98276,1.20143 -5.98276,2.31042 0,1.3471 7.24614,1.13471 11.33948,-0.33238 z m 7.6552,-14.06037 c -2.67982,-4.77465 -6.27592,-5.58565 -9.50047,-2.14255 -1.94819,2.08023 -1.96726,2.25674 -0.39657,3.67157 0.90752,0.81746 2.91171,1.6401 4.45376,1.8281 3.05434,0.37238 6.38395,-1.68114 5.44328,-3.35712 z m -3.10683,2.81821 c 0,-0.19467 0.73598,-0.93296 1.63551,-1.64063 1.4823,-1.16613 1.51536,-1.13297 0.35286,0.35396 -1.2209,1.56165 -1.98837,2.05827 -1.98837,1.28667 z M 50.130125,133.59165 c 1.130991,-2.95653 -0.762979,-5.8245 -7.737505,-11.71665 -3.967241,-3.35156 -9.254729,-7.88672 -11.749975,-10.07812 -2.495247,-2.19141 -5.363896,-3.98438 -6.374775,-3.98438 -1.01088,0 -1.837963,0.17366 -1.837963,0.38591 0,0.21224 5.24834,5.54786 11.662979,11.85691 6.414637,6.30905 11.910268,12.25258 12.212511,13.20784 0.660714,2.08823 3.072323,2.29536 3.824728,0.32849 z m -0.620832,-11.97567 c 1.280308,-2.27783 1.218805,-2.6229 -0.863845,-4.84671 -2.872155,-3.06682 -3.418569,-3.0132 -5.23682,0.51389 -1.432832,2.77946 -1.405254,3.00847 0.623068,5.17427 2.49372,2.66274 3.603839,2.4922 5.477597,-0.84145 z m 19.59435,48.21516 c -2.114693,-1.71772 -2.118646,-1.76384 -0.502263,-5.85937 0.896063,-2.27041 4.268801,-8.34677 7.494973,-13.50302 3.226172,-5.15625 7.378694,-11.90625 9.227826,-15 1.849133,-3.09375 5.712248,-8.56665 8.584702,-12.16201 6.012748,-7.52595 13.571849,-19.37097 13.558989,-21.24676 -0.0164,-2.386068 -5.73325,-11.306783 -9.96898,-15.555754 -3.725953,-3.737594 -4.055395,-4.391516 -2.831121,-5.619613 2.307804,-2.315016 5.122196,-0.525058 10.404101,6.617035 2.73219,3.694406 5.85224,7.511061 6.93345,8.481458 1.94376,1.744519 1.97732,1.733982 2.98645,-0.9375 1.48235,-3.924301 4.62049,-6.920606 7.2482,-6.920606 1.92778,0 2.10481,-0.221379 1.12452,-1.40625 -0.6399,-0.773438 -2.1984,-1.40625 -3.46335,-1.40625 -1.43745,0 -2.14479,-0.439447 -1.8863,-1.171875 0.9678,-2.74213 9.08797,0.39911 9.08797,3.515625 0,0.613607 0.84112,1.879232 1.86916,2.8125 3.9087,3.548381 1.70105,8.51475 -5.38124,12.10575 l -3.04478,1.54383 1.87164,2.55021 c 3.0955,4.21775 3.39499,12.48619 0.75453,20.83146 -1.77005,5.59432 -2.59845,7.03125 -4.05355,7.03125 -2.0867,0 -2.14062,-1.39928 -0.38916,-10.09809 0.59917,-2.97583 0.7967,-6.56177 0.43895,-7.96875 l -0.65045,-2.55816 -4.17196,4.60277 c -2.29459,2.53152 -4.41254,5.80932 -4.70655,7.28398 -0.29401,1.47467 -1.83347,3.77759 -3.42102,5.1176 -4.39771,3.71199 -22.915227,27.66641 -23.524775,30.43186 -0.56129,2.54649 -5.067725,7.37029 -8.566742,9.17005 -2.61328,1.34416 -2.512822,1.35779 -5.02322,-0.68137 z m 5.02322,-0.25819 c 3.475377,-1.79109 7.065364,-5.65887 7.629937,-8.22033 0.296562,-1.3455 5.199183,-8.35262 10.894714,-15.57137 12.430406,-15.75481 12.814646,-16.45841 10.730546,-19.6491 -1.92209,-2.94263 -4.433487,-3.03453 -7.453955,-0.27278 -1.268832,1.16016 -7.000566,9.59766 -12.737184,18.75 -5.736619,9.15235 -10.658154,16.64063 -10.936745,16.64063 -0.278591,0 0.176464,-1.04564 1.011233,-2.32364 0.83477,-1.278 5.560738,-8.76628 10.502152,-16.64063 4.941414,-7.87434 9.819142,-15.23604 10.839404,-16.35934 1.020262,-1.1233 1.697308,-2.51697 1.504551,-3.09704 -0.362289,-1.09028 -7.217595,7.91568 -11.048311,14.5144 -1.197332,2.0625 -4.814209,7.96875 -8.037503,13.125 -3.223295,5.15625 -6.591853,11.22803 -7.485682,13.49285 -1.562324,3.95866 -1.558069,4.16704 0.110062,5.39062 2.091103,1.53383 1.94305,1.52653 4.476781,0.22073 z m 48.280507,-42.67032 c 2.71872,-9.18663 1.90208,-20.02763 -1.50865,-20.02763 -2.11961,0 -2.55655,2.59836 -1.3139,7.81364 1.12244,4.71078 0.92945,6.98262 -1.4267,16.79573 -0.46229,1.92544 -0.27099,2.57813 0.75567,2.57813 0.90489,0 2.0988,-2.44686 3.49358,-7.15987 z m -13.69218,-1.16162 c 0.28519,-1.43037 2.43625,-4.74031 4.78017,-7.35545 3.04578,-3.39824 4.26165,-5.55203 4.26165,-7.54913 0,-1.5369 0.61139,-3.30334 1.35865,-3.92544 1.14982,-0.95726 0.76298,-1.6995 -2.51705,-4.82946 -3.71172,-3.541908 -3.9454,-3.627821 -5.52351,-2.03058 -2.38771,2.41666 -13.878836,20.83485 -13.878836,22.24527 0,0.74855 0.821617,1.03622 2.202981,0.77133 2.679375,-0.5138 6.573985,3.86569 5.863005,6.59296 -0.42901,1.64571 -0.34729,1.66035 1.23754,0.22161 0.93329,-0.84725 1.93022,-2.71075 2.2154,-4.14111 z m 14.69571,-24.04633 c 3.11807,-1.61746 3.3951,-2.864086 1.30247,-5.861077 -1.81714,-2.60244 -4.12134,-2.64682 -7.29761,-0.140559 -2.8654,2.260969 -3.04162,3.361144 -0.91577,5.717516 1.88383,2.08811 3.31946,2.14712 6.91091,0.28412 z m -13.71069,-7.229152 c -1.56198,-1.682602 -4.4031,-5.251925 -6.31359,-7.931826 -3.470169,-4.867704 -6.559094,-6.851309 -8.163244,-5.242152 -0.510476,0.512077 0.835253,2.617287 3.368206,5.269079 2.320098,2.42895 5.538018,6.761905 7.150948,9.628793 l 2.93259,5.212508 1.93253,-1.938561 1.93252,-1.938563 z M 273.20435,47.140625 c 0.32828,-1.675781 1.44485,-4.207028 2.48126,-5.625 l 1.88437,-2.578125 -2.83171,0 c -1.55745,0 -2.83172,-0.421875 -2.83172,-0.9375 0,-0.515625 1.89252,-0.9375 4.20561,-0.9375 4.67058,0 5.13411,0.863915 2.36101,4.400361 -1.01453,1.293794 -2.11273,3.786117 -2.44046,5.538496 -0.36594,1.956703 -1.14175,3.186143 -2.01054,3.186143 -1.09543,0 -1.27999,-0.687583 -0.81782,-3.046875 z m 8.98257,2.308337 c 0,-0.406196 1.24459,-2.199165 2.76576,-3.984375 3.00485,-3.526439 3.66679,-6.527087 1.43985,-6.527087 -0.77103,0 -1.40187,0.421875 -1.40187,0.9375 0,0.515625 -0.63084,0.9375 -1.40187,0.9375 -1.68989,0 -1.80673,-1.093869 -0.28037,-2.625 1.44159,-1.446095 4.72664,-1.446095 6.16822,0 1.7531,1.75857 1.33254,4.104576 -1.29802,7.24057 l -2.41954,2.88443 2.41954,0 c 1.33073,0 2.41952,0.421875 2.41952,0.9375 0,0.515625 -1.89252,0.9375 -4.20561,0.9375 -2.31308,0 -4.20561,-0.332342 -4.20561,-0.738538 z m 11.749,-0.734677 c -3.10371,-3.11342 -1.09807,-11.651785 2.73699,-11.651785 2.34878,0 4.2056,2.897416 4.2056,6.5625 0,3.665084 -1.85682,6.5625 -4.2056,6.5625 -0.6976,0 -1.92925,-0.662947 -2.73699,-1.473215 z m 3.96897,-5.668867 c -0.16357,-2.001543 -0.71797,-3.639168 -1.23198,-3.639168 -1.09177,0 -1.79235,5.595759 -0.9698,7.746013 0.99995,2.613955 2.5194,-0.220204 2.20178,-4.106845 z m 5.2059,-1.698415 c -0.93053,-2.432504 0.37372,-4.442986 2.67009,-4.115881 1.54461,0.220021 2.10698,0.925695 2.10698,2.643878 0,1.718183 -0.56237,2.423857 -2.10698,2.643878 -1.26381,0.180024 -2.33233,-0.288936 -2.67009,-1.171875 z m 3.3752,-1.472003 c 0,-0.515625 -0.42056,-0.9375 -0.93458,-0.9375 -0.51402,0 -0.93458,0.421875 -0.93458,0.9375 0,0.515625 0.42056,0.9375 0.93458,0.9375 0.51402,0 0.93458,-0.421875 0.93458,-0.9375 z"
         style="fill:#000000" />
    </g>
    <g
       transform="matrix(0.96592583,-0.25881905,0.25881905,0.96592583,21.244508,337.69201)"
       id="g4379">
      <path
         inkscape:connector-curvature="0"
         style="fill:#000000"
         d="m 379.37891,-134.49609 c -6.69185,-0.0849 -20.54789,4.44987 -24.02735,8.30664 -1.43649,1.59226 -1.7246,1.61065 -3.80664,0.24218 -1.5339,-1.00817 -3.4485,-1.32128 -5.99609,-0.97851 -3.58266,0.48203 -3.80516,0.35783 -5.25977,-2.92578 -1.81147,-4.08916 -2.86259,-1.95397 -1.11718,2.26953 0.62247,1.50626 1.02429,4.70625 0.89257,7.11133 -0.18584,3.39338 0.19642,4.81082 1.70899,6.32812 2.10112,2.10769 7.33968,2.63971 10.30664,1.04688 1.44543,-0.77599 1.92869,-0.28689 3.31836,3.36328 l 1.62695,4.27344 -3.38086,3.47265 c -3.2197,3.307582 -4.54121,8.00791 -2.75586,9.79883 1.36403,1.3683 2.94552,0.378144 8.70117,-5.447266 l 6,-6.072264 -1.60742,-6.7207 c -0.88424,-3.69586 -1.42066,-6.90675 -1.1914,-7.13672 0.22925,-0.22997 3.28844,-1.16347 6.79687,-2.07227 l 6.37891,-1.65234 6.67578,6.42578 c 4.56809,4.3965 7.4046,6.42578 8.98242,6.42578 1.26825,0 6.46362,-0.81478 11.54688,-1.81055 5.08326,-0.99578 11.34592,-2.16074 13.91601,-2.58789 4.1493,-0.68963 4.67383,-1.03821 4.67383,-3.11133 0,-1.87184 -0.90791,-2.76775 -4.57813,-4.52539 -3.96023,-1.89652 -5.0959,-2.06115 -8.41211,-1.2207 -2.10835,0.53433 -6.35729,1.19083 -9.4414,1.46094 l -5.60742,0.49219 -4.71094,-6.76172 c -2.90094,-4.16284 -5.68832,-7.1059 -7.25391,-7.65821 -0.61245,-0.21606 -1.42293,-0.3238 -2.3789,-0.33593 z"
         id="path4236" />
      <path
         inkscape:connector-curvature="0"
         style="fill:#fefefe"
         d="m 351.20015,-94.1111 c 0,-0.88614 2.10622,-3.75053 4.68049,-6.36532 l 4.68048,-4.75416 -2.36019,-6.04133 c -2.60998,-6.68064 -2.44329,-8.69712 0.68168,-8.24693 1.78004,0.25643 2.35164,1.42916 3.92629,8.05538 l 1.84295,7.75525 -5.52836,5.60413 c -5.63828,5.71553 -7.92334,6.86709 -7.92334,3.99298 z"
         id="path4303" />
      <path
         inkscape:connector-curvature="0"
         style="fill:#fefefe"
         d="m 351.20015,-97.62902 c 0,-0.4871 1.52096,-2.44812 3.37992,-4.3578 l 3.37992,-3.47217 -1.73582,-4.53611 c -0.9547,-2.49486 -1.62417,-4.88373 -1.48771,-5.30859 0.13646,-0.42486 -0.69697,-0.10845 -1.85206,0.70312 -1.15508,0.81159 -3.26825,1.47561 -4.69594,1.47561 -2.21995,0 -2.59579,-0.38006 -2.59579,-2.625 0,-3.4202 1.55076,-4.875 5.19655,-4.875 2.83947,0 3.06662,0.29855 5.88087,7.72904 l 2.92731,7.72904 -4.19862,4.21175 c -2.30925,2.31647 -4.19863,3.81321 -4.19863,3.32611 z"
         id="path4301" />
      <path
         inkscape:connector-curvature="0"
         style="fill:#fefefe"
         d="m 382.88498,-115.62253 c -5.28304,-5.11629 -6.45118,-6.7799 -6.45118,-9.1875 0,-3.47476 1.44135,-5.18994 4.36139,-5.18994 1.53291,0 3.51842,1.85613 7.18397,6.71588 l 5.06557,6.71589 6.86993,-0.22351 c 3.77845,-0.12293 7.40483,-0.66884 8.05861,-1.21313 1.09705,-0.91331 4.68259,-0.70005 10.5166,0.62552 1.30799,0.29719 0.8966,-0.0625 -0.93458,-0.81731 -3.81109,-1.57079 -8.58798,-1.86921 -9.85981,-0.61596 -0.48832,0.48119 -3.9454,0.9708 -7.6824,1.08806 l -6.79456,0.21318 -4.3058,-5.81239 c -2.36819,-3.19682 -4.07944,-6.03947 -3.80276,-6.317 0.27666,-0.27753 2.31307,2.07006 4.52534,5.21686 l 4.02232,5.72146 5.64042,-0.54142 c 3.10223,-0.29777 7.32959,-0.96853 9.39412,-1.49055 4.78721,-1.21048 12.09797,1.51415 12.32932,4.59498 0.12251,1.63146 -0.5808,2.01492 -4.69844,2.56167 -2.66338,0.35366 -8.779,1.44396 -13.59025,2.42289 -12.72607,2.58934 -12.51072,2.63781 -19.84781,-4.46768 z"
         id="path4297" />
      <path
         inkscape:connector-curvature="0"
         style="fill:#fefe00"
         d="m 355.11303,-122.22063 c 0.27642,-3.36223 0.63114,-3.72816 6.36749,-6.56861 10.3892,-5.1444 21.82686,-6.32674 23.12958,-2.39098 0.2771,0.83719 -0.42942,1.00009 -2.51909,0.58085 -3.79655,-0.76168 -6.59179,1.66375 -6.59179,5.7197 0,2.88421 -0.15664,2.99241 -6.56563,4.53538 -5.30435,1.27701 -6.92018,1.35857 -8.41121,0.42448 -1.47115,-0.92161 -2.23681,-0.9111 -3.77384,0.0517 -1.8343,1.14911 -1.91399,1.03448 -1.63551,-2.35261 z"
         id="path4333" />
    </g>
    <g
       transform="matrix(0,-1,1,0,415.05536,298.35629)"
       id="g4372">
      <path
         inkscape:connector-curvature="0"
         style="fill:#000000"
         d="m 243.73438,-198.08008 c -0.72744,0.0119 -1.55116,0.37458 -2.97657,1.09766 -5.07816,2.57605 -7.31445,5.13902 -7.31445,8.38476 0,2.93509 -2.46146,11.52799 -3.70117,12.91993 -0.35727,0.40113 -3.46725,-0.59283 -6.91016,-2.20899 -4.81866,-2.26196 -6.99003,-2.80092 -9.42969,-2.3418 -2.3986,0.45138 -4.42677,-0.0221 -8.33984,-1.94726 -4.48283,-2.20546 -5.4988,-2.39389 -7.64258,-1.41406 -0.90411,0.41322 -1.89396,1.31669 -2.625,2.31054 l -0.13672,0.0664 0.0781,0.0156 c -0.34139,0.47607 -0.62751,0.9686 -0.80469,1.43946 -0.97024,2.5785 -1.11709,2.6367 -3.20312,1.26562 -1.46253,-0.9613 -3.41386,-1.27232 -5.90235,-0.9375 -2.04513,0.27517 -3.95474,0.1189 -4.24219,-0.34765 -0.96732,-1.57005 -3.80794,-0.86513 -6.01562,1.49218 -2.81678,3.0077 -1.65735,4.28981 1.33203,1.47266 3.02681,-2.85244 4.14207,-1.89051 3.58203,3.09375 -0.37526,3.33963 -0.0865,4.50225 1.51563,6.10937 2.3648,2.37219 7.19805,2.62173 10.18164,0.5254 1.97371,-1.38675 2.07617,-1.3485 2.07617,0.79101 0,1.23839 0.83739,3.01381 1.86133,3.94336 1.78137,1.61715 2.27945,1.62066 11.53125,0.0977 l 9.66992,-1.5918 6.92578,2.41016 c 7.60462,2.64611 12.28931,2.59019 14.98633,-0.17774 0.89531,-0.91884 2.87843,-6.57191 4.4082,-12.56445 1.52976,-5.99255 3.45125,-12.19589 4.26953,-13.7832 2.1587,-4.18752 1.88812,-7.3594 -0.77734,-9.11133 -1.0387,-0.68273 -1.66905,-1.02168 -2.39648,-1.00977 z"
         id="path4251" />
      <path
         inkscape:connector-curvature="0"
         style="fill:#fefefe"
         d="m 223.63006,-162.36672 c -7.83921,-2.88277 -6.36292,-2.81195 -17.49381,-0.83919 -7.38355,1.30861 -9.35036,1.38681 -10.51402,0.41805 -2.83034,-2.35632 -1.26798,-2.83711 9.21942,-2.83711 l 10.65085,0 2.90056,-3.31387 c 1.59529,-1.82263 2.90055,-3.75203 2.90055,-4.28755 0,-0.53553 2.35077,0.37549 5.22394,2.02449 4.38295,2.5155 5.41217,2.7907 6.39313,1.70943 1.20349,-1.32656 4.33034,-14.88268 4.19458,-18.18517 -0.0419,-1.01947 -0.98817,2.44003 -2.1028,7.68778 -1.11464,5.24774 -2.31708,9.82818 -2.6721,10.17875 -0.97558,0.96336 -11.03675,-5.12589 -11.03675,-6.67971 0,-1.04954 1.01224,-0.83869 4.51039,0.9395 l 4.51039,2.29273 2.03167,-6.32783 c 1.11741,-3.4803 2.03166,-7.6036 2.03166,-9.16289 0,-3.06012 1.54377,-4.83434 6.31685,-7.25981 5.79356,-2.94404 8.67908,1.45615 5.27949,8.05079 -0.81828,1.58732 -2.74056,7.78903 -4.27175,13.78157 -1.53118,5.99255 -3.30903,11.43703 -3.95078,12.09886 -2.24417,2.31438 -7.32506,2.21046 -14.12147,-0.28882 z"
         id="path4267" />
      <path
         inkscape:connector-curvature="0"
         style="fill:#fefefe"
         d="m 185.3123,-167.49997 c 0.31768,-0.51562 1.91961,-0.93104 3.55983,-0.92314 2.26922,0.0109 2.64706,0.23163 1.58036,0.92314 -1.85352,1.20158 -5.88049,1.20158 -5.14019,0 z"
         id="path4261" />
      <path
         inkscape:connector-curvature="0"
         style="fill:#fefefe"
         d="m 197.92912,-180.5736 -3.27103,-0.6393 2.60639,-1.27935 c 2.31887,-1.13824 3.04051,-1.06052 6.54205,0.70455 l 3.93568,1.98391 -3.27103,-0.0653 c -1.79907,-0.0359 -4.74299,-0.35294 -6.54206,-0.70456 z"
         id="path4257" />
      <path
         inkscape:connector-curvature="0"
         style="fill:#fefe00"
         d="m 194.1908,-172.96009 0,-6.39763 12.01136,0.16289 c 6.60625,0.0896 12.4941,0.46216 13.08411,0.82795 1.88749,1.17017 1.17048,5.91905 -1.34677,8.91998 l -2.41953,2.88443 -10.66458,0 -10.66459,0 0,-6.39762 z"
         id="path4323" />
    </g>
    <g
       transform="translate(36.058425,244.71549)"
       id="g4360">
      <path
         inkscape:connector-curvature="0"
         style="fill:#000000"
         d="m 170.63477,-170.05273 c -0.79686,-0.0367 -0.85612,0.874 0.4375,2.3125 1.76431,1.96188 0.55243,4.2504 -2.82032,5.32421 -1.15511,0.36777 -2.56,1.5284 -3.12109,2.58008 -0.74605,1.39836 -1.29786,1.6342 -2.05469,0.875 -1.40087,-1.40525 -4.87027,-1.27903 -10.47461,0.38282 -2.97466,0.88205 -3.4846,1.19064 -1.40234,0.84765 8.9648,-1.47665 10.32577,-1.52463 11.67383,-0.40234 0.77594,0.64599 1.41211,2.61091 1.41211,4.36523 0,2.56126 -0.47344,3.36935 -2.39844,4.10352 -1.3185,0.50287 -3.31637,0.91292 -4.43945,0.91211 -1.65855,-0.001 -1.43983,-0.30925 1.16015,-1.64063 4.16919,-2.13493 5.49982,-4.28177 3.87305,-6.24804 -0.67565,-0.81665 -2.0278,-1.48438 -3.00391,-1.48438 -1.61951,0 -9.21094,4.39776 -9.21094,5.33594 10e-6,0.47491 1.41231,-0.31399 4.90821,-2.74219 3.23863,-2.24951 6.77344,-1.89068 6.77344,0.6875 0,1.27952 -1.25678,2.48003 -3.95704,3.78125 -4.98235,2.40093 -7.10175,4.32512 -3.88671,3.52734 l 2.23632,-0.55468 -2.33203,2.71679 -2.33398,2.7168 2.85156,-2.57813 c 1.56832,-1.41797 3.46023,-2.58098 4.20313,-2.58398 0.7429,-0.003 2.4858,-0.60018 3.87304,-1.32617 2.17047,-1.13566 2.67526,-1.13499 3.61914,0.006 1.67573,2.02545 5.66002,1.58668 9.5293,-1.05078 4.40771,-3.00447 4.74611,-6.76529 0.94922,-10.55664 -1.44465,-1.44253 -2.43465,-3.36563 -2.29492,-4.46094 0.13508,-1.05886 -0.61714,-2.7085 -1.67188,-3.66602 -0.87585,-0.79511 -1.61954,-1.15766 -2.09765,-1.17968 z"
         id="path4247" />
      <path
         inkscape:connector-curvature="0"
         style="fill:#000000"
         d="m 138.10352,-157.79297 c -4.82373,-0.007 -6.24084,3.44298 -8.75586,15.76953 l -1.08399,5.32032 -4.97851,-4.14649 c -2.73762,-2.28051 -6.10812,-5.36152 -7.49024,-6.8457 -1.89038,-2.02998 -3.7414,-2.86803 -7.47265,-3.38281 -7.48463,-1.03262 -8.924395,1.59516 -2.62305,4.7871 1.63797,0.82971 7.22769,5.67909 12.42187,10.7754 6.84129,6.71238 10.08574,9.26562 11.77149,9.26562 3.76818,0 6.60503,-4.19401 9.19726,-13.59375 1.10288,-3.99919 2.05625,-5.72329 3.29688,-5.9668 1.50859,-0.2961 1.57536,-0.13734 0.49219,1.17188 -1.89335,2.28849 0.2513,4.29218 4.42578,4.13476 1.87253,-0.0706 2.88768,-0.30241 2.25586,-0.51367 -0.83968,-0.28077 -0.89272,-0.93141 -0.19532,-2.41797 0.92017,-1.96144 0.9001,-1.95817 -0.58789,0.0762 -1.63195,2.23121 -4.51936,2.79759 -5.57031,1.0918 -0.34513,-0.56017 0.78533,-2.55555 2.51367,-4.43359 1.72835,-1.8781 2.2697,-2.68627 1.20118,-1.79492 -1.06852,0.89135 -2.7835,1.62109 -3.81055,1.62109 -1.51464,0 -1.79472,-0.4964 -1.48242,-2.63086 0.49052,-3.35254 -1.65497,-5.21733 -5.37305,-4.66992 -1.54677,0.22772 -2.8125,0.08 -2.8125,-0.32813 0,-1.65866 4.02266,-2.72117 8.64453,-2.2832 l 4.90625,0.46484 -4.95117,-0.98046 c -1.53136,-0.30311 -2.82629,-0.48862 -3.93945,-0.49024 z"
         id="path4243" />
      <path
         inkscape:connector-curvature="0"
         style="fill:#fefefe"
         d="m 118.19029,-136.38484 c -5.23243,-5.13407 -10.88033,-10.02736 -12.55089,-10.87398 -5.62517,-2.85076 -2.97656,-4.28724 4.63471,-2.51365 1.91913,0.4472 4.85039,2.21574 6.5668,3.96201 1.70518,1.73483 5.29713,5.08237 7.98212,7.43898 l 4.88179,4.28474 0.0111,-3.34724 c 0.0136,-4.11574 2.25291,-12.81525 3.77097,-14.65012 1.46962,-1.77631 6.40427,-1.75258 7.08773,0.0341 0.73438,1.91972 -3.19489,16.40951 -5.63863,20.79336 -1.46262,2.62379 -2.71571,3.68263 -4.61962,3.90346 -2.21826,0.2573 -4.04842,-1.10583 -12.12607,-9.03164 z"
         id="path4289" />
      <path
         inkscape:connector-curvature="0"
         style="fill:#fefefe"
         d="m 143.20632,-142.26848 c -0.34513,-0.56017 0.77361,-2.46862 2.48611,-4.24098 2.96646,-3.07017 3.14756,-3.13042 3.83191,-1.27469 1.40662,3.81437 -4.29792,8.79448 -6.31802,5.51567 z"
         id="path4277" />
      <path
         inkscape:connector-curvature="0"
         style="fill:#fefefe"
         d="m 148.99302,-142.65622 c 0.29588,-0.77344 0.70323,-1.40625 0.90525,-1.40625 0.20201,0 0.3673,0.63281 0.3673,1.40625 0,0.77344 -0.40737,1.40625 -0.90525,1.40625 -0.49788,0 -0.66317,-0.63281 -0.3673,-1.40625 z"
         id="path4275" />
      <path
         inkscape:connector-curvature="0"
         style="fill:#fefefe"
         d="m 151.34808,-147.68686 c -0.59538,-1.99342 -1.08251,-3.8358 -1.08251,-4.09417 0,-1.22986 7.84916,-5.48513 9.6447,-5.22869 3.58809,0.51245 2.52524,3.80598 -1.91939,5.9478 -4.97426,2.39704 -7.11023,4.33006 -3.88797,3.51857 2.22424,-0.56016 2.22693,-0.55156 0.45706,1.4587 -0.9792,1.1122 -1.85889,2.02218 -1.95487,2.02218 -0.096,0 -0.66163,-1.63098 -1.25702,-3.62439 z"
         id="path4273" />
      <path
         inkscape:connector-curvature="0"
         style="fill:#fefefe"
         d="m 166.34034,-149.87497 c -0.61683,-0.61875 -1.1215,-2.27273 -1.1215,-3.67551 0,-2.07926 0.52511,-2.6662 2.84202,-3.17667 3.03455,-0.66859 4.94208,0.36252 6.67313,3.60711 0.79819,1.49608 0.65649,2.13124 -0.69694,3.12398 -2.11529,1.55157 -6.20652,1.61594 -7.69671,0.12109 z"
         id="path4271" />
      <path
         inkscape:connector-curvature="0"
         style="fill:#fefe00"
         d="m 141.62664,-149.22411 c 0.24622,-1.29202 -0.0738,-2.97952 -0.71132,-3.75 -1.40928,-1.70338 -5.70455,-1.8363 -7.39967,-0.22898 -1.01772,0.965 -1.0553,0.81898 -0.21288,-0.82721 1.40488,-2.74526 3.19866,-3.25372 9.04646,-2.56428 4.60348,0.54274 5.06796,0.81905 5.62072,3.34358 0.71959,3.28653 -1.57183,6.37603 -4.72898,6.37603 -1.69678,0 -1.98271,-0.41608 -1.61433,-2.34914 z"
         id="path4329" />
      <path
         inkscape:connector-curvature="0"
         style="fill:#fefe00"
         d="m 158.60679,-150.39205 c 4.16919,-2.13493 5.5001,-4.28182 3.87333,-6.24809 -1.74539,-2.10963 -4.31114,-1.84334 -8.27548,0.85892 -4.11588,2.80556 -4.52277,2.85346 -5.10984,0.60149 -0.37382,-1.43397 0.36368,-1.93163 4.16791,-2.8125 8.71863,-2.01879 11.02155,-1.12101 11.02155,4.29671 0,2.48323 -0.48741,3.30285 -2.39729,4.03125 -1.3185,0.50287 -3.31617,0.91364 -4.43925,0.91284 -1.65855,-0.001 -1.44091,-0.30924 1.15907,-1.64062 z"
         id="path4327" />
      <path
         inkscape:connector-curvature="0"
         style="fill:#fe0000"
         d="m 140.06835,-130.09124 c -0.63101,-2.1127 -1.013,-3.96114 -0.84887,-4.10763 0.16414,-0.1465 1.6905,-0.0538 3.39193,0.20594 2.13229,0.32554 2.93999,0.87362 2.59943,1.76388 -0.28611,0.74792 0.10372,1.29158 0.92614,1.29158 1.91155,0 4.12859,-5.59556 4.12859,-10.4201 0,-4.73231 -6.14581,-25.9505 -8.18309,-28.25177 -2.03971,-2.30404 -4.58606,-2.04181 -7.37908,0.75994 -1.3162,1.32031 -2.59236,2.20066 -2.83592,1.95634 -0.92817,-0.93107 2.72469,-5.15604 5.42956,-6.27993 4.55856,-1.89412 6.8086,1.23528 11.22615,15.61348 3.00307,9.77442 3.63496,13.09441 3.29822,17.3294 -0.58663,7.37781 -2.70854,11.16764 -6.25274,11.16764 -1.84782,0 -2.77974,0.47145 -2.77974,1.40625 0,2.76471 -1.59355,1.33841 -2.72058,-2.43502 z"
         id="path4343" />
    </g>
    <g
       transform="matrix(-1,0,0,-1,569.51433,-70.734655)"
       id="g4345">
      <path
         inkscape:connector-curvature="0"
         style="fill:#000000"
         d="m 278.83398,-201.75195 c -0.29746,-0.007 -0.5251,0.0296 -0.66015,0.11328 -0.54023,0.33492 0.64257,1.33839 2.6289,2.23047 3.50796,1.57548 3.60177,1.74334 3.2793,5.81054 -0.3157,3.98186 -0.45889,4.16759 -2.92383,3.80469 -1.92319,-0.28315 -3.48033,0.39976 -6.03125,2.64649 -4.66236,4.1064 -5.3561,5.64592 -4.26367,9.44921 1.1764,4.09565 -0.01,5.00013 -8.57226,6.53516 -3.57569,0.64101 -6.69071,1.47245 -6.92188,1.84766 -0.23117,0.37522 3.04724,-0.0772 7.28516,-1.00391 4.23791,-0.9267 7.84799,-1.54699 8.02343,-1.37891 0.17543,0.16809 0.0535,1.14678 -0.27148,2.17383 -0.46168,1.45918 -2.01337,2.12141 -7.09961,3.03321 -3.57995,0.64177 -6.32443,1.35259 -6.09766,1.58007 0.22677,0.22748 3.31652,-0.106 6.86524,-0.74218 7.84181,-1.40579 11.89258,-0.11506 11.89258,3.78906 0,2.16211 -0.43129,2.38219 -5.99024,3.07031 -3.29472,0.40784 -6.65913,1.17881 -7.47656,1.71289 -1.22268,0.79887 -1.15488,0.86487 0.38281,0.36524 1.02804,-0.33404 4.75312,-0.8544 8.27735,-1.1543 6.75526,-0.57485 11.06974,-2.98096 12.29687,-6.85938 0.3223,-1.01864 1.41381,-1.83398 2.45703,-1.83398 4.76836,0 12.14787,-13.79467 9.25196,-17.29492 -0.66231,-0.80054 -1.82043,-1.45508 -2.57422,-1.45508 -0.97699,0 -0.67598,-0.82855 1.04882,-2.88477 4.51407,-5.38142 2.13927,-11.55192 -4.2832,-11.13085 -1.71121,0.11219 -4.70606,-0.49841 -6.65625,-1.35743 -1.46265,-0.64425 -2.97479,-1.04682 -3.86719,-1.0664 z"
         id="path4253" />
      <path
         inkscape:connector-curvature="0"
         style="fill:#000000"
         d="m 252.80469,-168.32031 c -0.0808,-0.009 -0.26407,0.12361 -0.55078,0.39258 -0.57419,0.53864 -2.8748,6.02302 -5.11329,12.1875 -2.23848,6.16448 -5.29034,13.44081 -6.78124,16.16796 -2.65377,4.85425 -2.6725,4.98724 -0.89649,6.32813 2.28847,1.72779 2.14286,1.74474 6.59766,-0.78125 3.1094,-1.76311 4.57771,-3.74405 8.73047,-11.77344 2.74599,-5.30938 4.83673,-9.80917 4.64648,-10 -0.19023,-0.19083 -2.571,4.06568 -5.29102,9.45899 -4.29067,8.50764 -5.44347,10.06128 -8.70898,11.73242 -2.07012,1.0594 -3.98444,1.7039 -4.25391,1.43359 -0.26948,-0.27032 0.87545,-2.91932 2.54493,-5.88672 3.3412,-5.93879 11.81423,-25.68685 10.38671,-24.20898 -0.49192,0.50929 -2.44672,4.72266 -4.34375,9.36328 -4.1289,10.10033 -9.99446,20.9335 -10.5039,19.40039 -0.20093,-0.60466 0.88392,-3.31856 2.41211,-6.03125 1.52819,-2.71269 4.34634,-9.36133 6.26172,-14.77539 1.91538,-5.41406 3.90448,-10.6875 4.41992,-11.71875 0.42896,-0.85823 0.57807,-1.27325 0.44336,-1.28906 z"
         id="path4245" />
      <path
         inkscape:connector-curvature="0"
         style="fill:#fefefe"
         d="m 240.91978,-133.40018 c 0,-0.32324 1.61907,-3.59277 3.59794,-7.26563 1.97887,-3.67285 4.99941,-10.15838 6.71233,-14.41228 2.86776,-7.1219 4.643,-9.59699 4.643,-6.47343 0,0.69352 0.82689,2.01162 1.83754,2.9291 1.81366,1.64647 1.77013,1.80088 -3.35129,11.88607 -4.44994,8.76286 -5.70445,10.48179 -8.80966,12.0709 -3.87571,1.98342 -4.62986,2.18952 -4.62986,1.26527 z"
         id="path4285" />
      <path
         inkscape:connector-curvature="0"
         style="fill:#fefefe"
         d="m 239.05062,-134.83948 c 0,-0.59923 1.09916,-2.97095 2.44259,-5.2705 1.86843,-3.1982 10.64152,-25.53995 10.64152,-27.09994 0,-0.15953 0.37557,-0.29005 0.83459,-0.29005 1.29249,0 2.10363,2.92551 1.13767,4.1032 -0.47505,0.57918 -2.42106,4.84993 -4.32446,9.49055 -3.29117,8.02409 -9.51792,20.15625 -10.34506,20.15625 -0.21277,0 -0.38685,-0.49028 -0.38685,-1.08951 z"
         id="path4283" />
      <path
         inkscape:connector-curvature="0"
         style="fill:#fefefe"
         d="m 258.708,-160.16596 c -1.04136,-1.71339 -1.89496,-3.37199 -1.89688,-3.68577 -0.002,-0.31378 3.09453,-1.10209 6.88098,-1.75181 8.29968,-1.42415 12.27441,-0.21266 12.27441,3.7412 0,2.09573 -0.47186,2.38915 -4.6729,2.90575 -2.5701,0.31605 -6.02725,0.87416 -7.68256,1.24026 -2.71389,0.60021 -3.19574,0.35947 -4.90305,-2.44963 z"
         id="path4269" />
      <path
         inkscape:connector-curvature="0"
         style="fill:#fefefe"
         d="m 255.87305,-166.56247 c 0,-0.51562 0.0372,-1.25391 0.0826,-1.64062 0.0836,-0.7116 14.1334,-4.03957 14.72239,-3.48728 0.17543,0.1645 0.0597,1.11853 -0.25718,2.12007 -0.41878,1.32356 -2.01637,2.1111 -5.84868,2.88315 -6.4953,1.30851 -8.69914,1.3401 -8.69914,0.12468 z"
         id="path4265" />
      <path
         inkscape:connector-curvature="0"
         style="fill:#fefefe"
         d="m 274.96678,-166.66822 c -1.65158,-2.68066 -3.98664,-14.36833 -3.17469,-15.89023 1.21819,-2.2833 6.3996,-6.50402 7.98444,-6.50402 2.06524,0 1.59217,1.51041 -1.62389,5.18475 l -2.95406,3.375 1.0849,5.90634 c 0.59669,3.24849 1.08489,6.59598 1.08489,7.43888 0,1.74968 -1.44382,2.04384 -2.40159,0.48928 z"
         id="path4263" />
      <path
         inkscape:connector-curvature="0"
         style="fill:#fefefe"
         d="m 280.8822,-169.65084 c -5.60478,-3.31567 -4.46095,-5.92069 1.28984,-2.93755 1.56292,0.81075 3.37252,1.26974 4.02132,1.01999 0.64881,-0.24974 2.38668,-3.23339 3.86194,-6.63033 1.47525,-3.39693 3.02245,-6.17624 3.43822,-6.17624 2.85097,0 0.17915,10.91748 -3.59944,14.70787 -2.66237,2.6707 -4.51917,2.67405 -9.01188,0.0163 z"
         id="path4259" />
      <path
         inkscape:connector-curvature="0"
         style="fill:#fefefe"
         d="m 286.48052,-187.26256 c -2.12063,-1.23902 -2.08715,-3.9118 0.0736,-5.87336 2.22138,-2.01661 4.17073,-1.96447 6.08997,0.1629 1.9822,2.19715 1.94899,3.25476 -0.16239,5.1715 -1.94427,1.76504 -3.64175,1.91749 -6.00117,0.53896 z"
         id="path3386" />
      <path
         inkscape:connector-curvature="0"
         style="fill:#fefe00"
         d="m 277.02258,-161.73286 c 0.0668,-1.36722 0.35762,-3.11867 0.64621,-3.89211 0.2886,-0.77344 0.65449,-2.14178 0.81309,-3.04075 0.27285,-1.54655 0.42481,-1.54424 2.8241,0.043 l 2.53575,1.67751 -1.7848,2.94403 c -0.98164,1.61922 -2.54328,3.35132 -3.47032,3.84911 -1.43666,0.77143 -1.66758,0.53802 -1.56403,-1.58079 z"
         id="path4325" />
      <path
         inkscape:connector-curvature="0"
         style="fill:#fefe00"
         d="m 271.64408,-167.03122 c -0.42403,-1.70141 -0.24433,-5.87996 0.2298,-5.34375 1.14079,1.29016 1.79388,5.8125 0.8394,5.8125 -0.52381,0 -1.00495,-0.21094 -1.0692,-0.46875 z"
         id="path4321" />
      <path
         inkscape:connector-curvature="0"
         style="fill:#fefe00"
         d="m 280.40576,-174.17694 c -2.18458,-1.00731 -3.9667,-2.34286 -3.96027,-2.96788 0.007,-0.62502 1.38213,-3.54958 3.05711,-6.49903 l 3.04541,-5.36263 2.78401,1.84083 c 1.53121,1.01245 3.52,1.84361 4.41953,1.847 0.89953,0.003 1.63552,0.48077 1.63552,1.06082 0,2.11043 -4.95653,12.06821 -5.96875,11.99137 -0.57233,-0.0434 -2.82798,-0.90316 -5.01256,-1.91048 z"
         id="path3382" />
      <path
         inkscape:connector-curvature="0"
         style="fill:#fe0000"
         d="m 277.32678,-142.84037 c -1.30793,-0.20458 -4.46213,-2.03395 -7.00935,-4.06527 -2.54721,-2.03132 -5.47242,-4.16456 -6.50046,-4.74054 -2.96022,-1.65851 -7.35744,-8.30336 -9.74923,-14.73252 -1.88985,-5.07994 -2.05079,-6.39664 -1.14585,-9.375 1.63237,-5.37259 4.69634,-8.38378 9.25957,-9.10009 2.43929,-0.3829 3.97196,-0.26173 3.97196,0.31401 0,0.51563 -1.68057,1.22232 -3.73461,1.57043 -7.17136,1.21538 -9.85603,7.95046 -6.55251,16.4384 2.93144,7.53192 5.83759,11.27051 12.67669,16.30782 7.2822,5.36367 12.85646,7.03392 15.4915,4.64179 2.18619,-1.98466 2.3257,-4.27078 0.21094,-3.45673 -1.32618,0.51049 -1.44158,0.0934 -0.85123,-3.0763 0.37561,-2.01677 0.85736,-3.84429 1.07056,-4.06117 0.66314,-0.6746 5.05315,3.93036 5.05315,5.30057 0,0.71399 -0.42056,1.03742 -0.93458,0.71875 -0.51402,-0.31867 -0.93458,0.23235 -0.93458,1.22449 0,0.99214 -0.87165,2.91548 -1.93699,4.27408 -1.88693,2.40633 -3.03219,2.65454 -8.38498,1.81728 z"
         id="path3380" />
    </g>
  </g>
</svg>
