<?xml version="1.0" encoding="UTF-8" standalone="no"?>
<!-- Created with Inkscape (http://www.inkscape.org/) -->

<svg
   xmlns:dc="http://purl.org/dc/elements/1.1/"
   xmlns:cc="http://creativecommons.org/ns#"
   xmlns:rdf="http://www.w3.org/1999/02/22-rdf-syntax-ns#"
   xmlns:svg="http://www.w3.org/2000/svg"
   xmlns="http://www.w3.org/2000/svg"
   xmlns:sodipodi="http://sodipodi.sourceforge.net/DTD/sodipodi-0.dtd"
   xmlns:inkscape="http://www.inkscape.org/namespaces/inkscape"
   id="svg3484"
   version="1.1"
   inkscape:version="0.91 r13725"
   width="652.33643"
   height="192.1875"
   viewBox="0 0 652.33643 192.1875"
   sodipodi:docname="ub110103.svg">
  <metadata
     id="metadata3490">
    <rdf:RDF>
      <cc:Work
         rdf:about="">
        <dc:format>image/svg+xml</dc:format>
        <dc:type
           rdf:resource="http://purl.org/dc/dcmitype/StillImage" />
        <dc:title></dc:title>
      </cc:Work>
    </rdf:RDF>
  </metadata>
  <defs
     id="defs3488" />
  <sodipodi:namedview
     pagecolor="#ffffff"
     bordercolor="#666666"
     borderopacity="1"
     objecttolerance="10"
     gridtolerance="10"
     guidetolerance="10"
     inkscape:pageopacity="0"
     inkscape:pageshadow="2"
     inkscape:window-width="1593"
     inkscape:window-height="985"
     id="namedview3486"
     showgrid="false"
     inkscape:zoom="1.9161892"
     inkscape:cx="256.75962"
     inkscape:cy="96.09375"
     inkscape:window-x="0"
     inkscape:window-y="0"
     inkscape:window-maximized="0"
     inkscape:current-layer="svg3484" />
  <g
     id="g3494"
     transform="translate(-2.2515117,-0.95114281)">
    <path
       style="fill:#fefefe"
       d="m 118.45794,141.03472 c -6.35274,-3.2709 -6.77035,-3.73629 -5.7489,-6.4065 0.46902,-1.22606 1.71618,-0.86879 7.71028,2.20873 3.93293,2.01924 8.30731,3.95429 9.72086,4.30008 3.11519,0.76208 3.3129,1.8821 0.46729,2.64707 -3.74149,1.00582 -5.73022,0.55578 -12.14953,-2.74938 z m 127.33645,1.53401 c 0,-1.26653 1.46616,-2.48276 4.90654,-4.07013 2.6986,-1.24512 10.55683,-5.28386 17.46274,-8.97498 15.20982,-8.12944 20.91032,-8.91642 19.3477,-2.671 -0.41534,1.66005 -2.92001,2.94729 -12.93844,6.64953 -6.83287,2.52503 -15.53169,6.00439 -19.33072,7.73191 -7.96393,3.62141 -9.44782,3.83103 -9.44782,1.33467 z M 239.25233,142.5 c 0,-0.51563 0.84112,-0.9375 1.86916,-0.9375 1.02804,0 1.86916,0.42187 1.86916,0.9375 0,0.51562 -0.84112,0.9375 -1.86916,0.9375 -1.02804,0 -1.86916,-0.42188 -1.86916,-0.9375 z m -34.57944,-4.21885 c -1.28505,-0.73477 -10.58267,-4.10899 -20.66139,-7.49826 -17.23235,-5.7949 -24.12934,-8.80347 -20.3525,-8.87808 0.83022,-0.0164 2.55853,-0.85757 3.84071,-1.86928 l 2.33121,-1.83947 19.52379,8.67001 c 15.42445,6.8496 19.52379,9.04023 19.52379,10.43322 0,2.31349 -1.3326,2.6246 -4.20561,0.98186 z m -86.21495,-3.34127 c -2.95561,-1.53034 -5.37383,-3.19755 -5.37383,-3.70491 0,-1.35501 1.07523,-1.16944 8.23494,1.42128 3.56245,1.28906 7.37256,2.34375 8.46692,2.34375 2.32643,0 2.65018,1.42017 0.51142,2.24345 -2.94037,1.13185 -6.56745,0.42614 -11.83945,-2.30357 z m -20.600765,-2.14475 c -7.899311,-3.04039 -10.198479,-4.32891 -10.601999,-5.94169 -1.370842,-5.47894 4.057585,-5.39328 14.847624,0.23428 4.49766,2.34577 8.17183,4.55832 8.16481,4.91678 -0.0322,1.64348 -1.1997,4.86051 -1.73175,4.77172 -0.32556,-0.0543 -5.13098,-1.84581 -10.678685,-3.98109 z m 4.946565,-6.37941 c -7.630145,-4.02983 -7.347995,-4.0695 1.86915,-0.26281 6.90966,2.85369 6.93656,2.86965 5.9033,3.49955 -0.41971,0.25587 -3.91731,-1.20065 -7.77245,-3.23674 z m 199.76634,-3.79324 c -3.86141,-1.02879 -4.70635,-2.61612 -1.40186,-2.6336 1.15654,-0.007 8.365,-1.48267 16.01882,-3.28125 7.6538,-1.79857 14.27763,-3.27013 14.71962,-3.27013 0.44198,0 0.80361,1.40047 0.80361,3.11217 l 0,3.11217 -12.41839,2.04408 c -13.7358,2.26092 -12.84817,2.21502 -17.7218,0.91656 z m -103.97195,-2.74636 c -4.62617,-0.42581 -12.82711,-1.09948 -18.2243,-1.49704 -9.52427,-0.70156 -9.80622,-0.78673 -9.57955,-2.89402 0.12846,-1.19416 -0.20176,-2.98713 -0.73381,-3.98438 -0.53204,-0.99725 -0.80928,-1.81318 -0.61606,-1.81318 0.19321,0 4.30847,0.81038 9.14502,1.80084 4.83656,0.99046 12.68393,2.316 17.4386,2.94564 4.75467,0.62964 8.64486,1.44826 8.64486,1.81916 0,0.37089 1.04364,0.47423 2.31918,0.22962 5.03105,-0.96475 9.68384,2.29377 5.54831,3.88569 -1.62884,0.627 -1.8767,0.61824 -13.94225,-0.49233 z m 238.79025,-0.93365 c 0.003,-0.70742 0.41119,-2.76278 0.90739,-4.56747 1.2022,-4.37242 6.56403,-30.156863 6.56403,-31.565665 0,-0.610144 -0.73598,-1.302285 -1.63551,-1.538092 -1.15886,-0.303787 -1.22696,-0.456251 -0.23365,-0.523136 0.77103,-0.05192 2.01304,0.293437 2.76003,0.767456 1.18078,0.749289 1.15688,1.512679 -0.18302,5.845019 -2.39703,7.750434 -4.5762,20.872438 -4.26283,25.668988 0.23778,3.63971 -0.0579,4.57836 -1.81885,5.77278 -1.71361,1.16235 -2.10184,1.18828 -2.09759,0.14012 z m -101.87437,-3.05131 c 0,-2.89283 0.35433,-3.43656 2.57009,-3.94384 1.41355,-0.32363 4.8514,-1.22674 7.63968,-2.00693 4.74695,-1.32825 5.14841,-1.31037 6.30841,0.28098 0.68135,0.93472 1.23883,2.21 1.23883,2.83396 0,2.01816 -6.13887,4.83863 -12.02242,5.52362 l -5.73459,0.66765 0,-3.35544 z m 107.08859,0.72036 c 0.92668,-3.88201 2.12289,-5.04902 5.17537,-5.04902 2.20861,0 2.68931,0.39842 2.68931,2.22896 0,2.72692 -1.57525,4.13395 -5.51253,4.92387 -2.91758,0.58533 -2.98061,0.52895 -2.35215,-2.10381 z m -8.94344,-1.00931 c -0.007,-1.12973 0.40625,-2.31478 0.92027,-2.63346 1.18989,-0.73769 1.18989,1.43426 0,3.28125 -0.73654,1.14326 -0.90864,1.02211 -0.92027,-0.64779 z M 19.626168,115.25192 c 0,-1.92609 3.978398,-10.25192 4.898758,-10.25192 0.511646,0 7.153142,-6.117188 14.75888,-13.59375 14.362069,-14.118143 16.632104,-15.494173 19.995231,-12.120535 1.590456,1.595425 1.834319,3.110377 0.753379,4.680205 -0.738793,1.072934 -15.509053,12.277333 -25.508695,19.35034 -3.371767,2.38493 -7.710671,6.27068 -9.64201,8.63499 -3.414737,4.18027 -5.255543,5.33636 -5.255543,3.30067 z M 625.62977,97.265625 C 602.18927,73.31222 598.50313,68.107633 602.98367,65.29077 c 3.53228,-2.220716 9.98236,3.731833 20.31168,18.744952 2.78909,4.05379 6.22934,8.636153 7.64502,10.183028 2.05979,2.250703 6.44279,11.20317 6.44279,13.15971 0,1.48192 -2.57529,-0.73391 -11.75339,-10.112835 z m -483.12588,6.426005 c -0.76031,-1.8254 -1.3824,-3.936605 -1.3824,-4.691564 0,-0.754969 -3.36448,-5.201138 -7.47663,-9.880395 -6.90899,-7.861799 -9.17846,-12.262468 -6.30842,-12.232454 0.64253,0.0067 5.71848,5.477725 11.27989,12.15779 8.31604,9.988762 10.05865,12.608673 9.81309,14.753413 -0.2157,1.8839 -0.88772,2.6917 -2.42085,2.90997 -1.67202,0.23804 -2.41555,-0.40198 -3.50468,-3.01676 z m 275.77339,1.09977 c -0.80017,-1.14597 -1.45486,-2.5079 -1.45486,-3.0265 0,-0.51859 3.82767,-10.233314 8.50593,-21.588272 7.47675,-18.147341 8.97508,-21.070453 12.38318,-24.158467 3.38538,-3.067428 6.21369,-4.464892 6.21369,-3.07018 0,0.246389 -1.04691,2.67217 -2.32647,5.390625 -3.34779,7.112471 -15.29947,39.177782 -16.01936,42.978554 -0.33482,1.76775 -1.02165,3.74143 -1.52628,4.38597 -1.42433,1.81919 -4.17179,1.38551 -5.77583,-0.91173 z m -49.71502,-2.13515 c -0.89992,-2.35246 0.4001,-4.232062 3.95868,-5.723578 1.8636,-0.781097 7.12652,-4.122946 11.69539,-7.426338 7.75883,-5.609811 8.30702,-5.85654 8.30702,-3.738789 0,1.608948 -1.15343,3.070004 -3.97196,5.031303 -2.18458,1.52016 -5.23364,4.119502 -6.7757,5.776308 -3.32985,3.577654 -9.19163,7.487344 -11.22571,7.487344 -0.79737,0 -1.69185,-0.63281 -1.98772,-1.40625 z M 95.560745,102.50411 c -2.330412,-0.94328 -1.238411,-4.132329 1.869159,-5.458657 1.67056,-0.713006 6.391996,-4.699289 10.492096,-8.858411 7.39083,-7.497249 8.90043,-8.592054 8.90043,-6.454873 0,1.723735 -10.10027,14.529581 -14.31238,18.146259 -3.732268,3.204662 -4.656333,3.553812 -6.949305,2.625682 z M 269.74918,97.238512 c -3.15178,-3.237562 -7.20246,-8.078249 -9.00152,-10.757073 -1.82468,-2.716955 -3.99421,-4.881281 -4.90655,-4.894766 -0.89953,-0.01329 -1.63551,-0.656986 -1.63551,-1.430423 0,-3.111576 3.49788,-0.986218 12.0468,7.319796 4.93968,4.799326 10.13778,9.219973 11.55133,9.823648 3.99609,1.706606 3.03786,5.825306 -1.35529,5.825306 -0.53282,0 -3.54749,-2.64892 -6.69926,-5.886488 z m -131.66507,0.186394 c -0.89953,-0.525562 -1.63552,-1.592325 -1.63552,-2.370572 0,-1.737531 1.51856,-0.900712 2.8316,1.560375 1.10811,2.077013 1.04514,2.119669 -1.19608,0.810197 z M 97.383175,94.5 c -1.43543,-1.439918 -1.43543,-3.810082 0,-5.25 1.721093,-1.726467 3.149485,-1.349326 4.275055,1.128749 0.83284,1.833608 0.71642,2.532679 -0.62451,3.750001 -1.975601,1.793484 -2.209078,1.817222 -3.650545,0.37125 z M 273.64954,94.102922 c -1.22847,-1.232317 -1.32991,-1.988212 -0.50929,-3.794929 1.14566,-2.522292 3.23477,-2.554386 4.79217,-0.07362 0.73322,1.16792 0.74283,2.097253 0.0334,3.225451 -1.41044,2.243005 -2.55184,2.413059 -4.31628,0.643096 z m 99.24765,0.584578 c 0,-1.437855 3.56347,-4.6875 5.14018,-4.6875 2.12204,0 1.68563,1.515011 -1.06061,3.681956 -2.68785,2.120869 -4.07957,2.46391 -4.07957,1.005544 z m -247.4299,-3.359594 c -4.52891,-3.580477 -3.67118,-4.494166 1.6701,-1.779072 2.58912,1.316106 4.45682,2.799775 4.15046,3.297043 -0.90706,1.472229 -2.59515,1.031989 -5.82056,-1.517971 z m 364.25232,-0.371517 c -17.64929,-2.525012 -25.23364,-4.48877 -25.23364,-6.533551 0,-0.568147 2.15466,-0.985338 5.08896,-0.985338 9.93496,0 43.05253,2.021457 43.71835,2.668517 0.37207,0.36158 0.42218,2.229395 0.11137,4.1507 -0.68581,4.239345 0.75834,4.196689 -23.68504,0.699672 z m 26.17344,1.621736 c 0.003,-0.644531 0.45108,-2.782543 0.99602,-4.751137 0.81895,-2.958402 1.22333,-3.385694 2.33124,-2.463333 1.86039,1.548806 1.67534,4.979198 -0.36868,6.834794 -2.04009,1.852029 -2.96566,1.970801 -2.95858,0.379676 z M 395.16307,84.680459 c 0.39882,-1.962149 0.63383,-2.197895 0.90618,-0.909003 0.20224,0.957114 -0.0401,2.149257 -0.53846,2.649208 -0.58518,0.587004 -0.71543,-0.02944 -0.36772,-1.740205 z m 120.49112,-2.851947 c -1.41355,-0.214805 -2.57009,-0.987274 -2.57009,-1.716598 0,-1.01785 0.92315,-1.203368 3.97196,-0.798215 2.71152,0.360332 6.89602,-0.24036 13.18643,-1.892934 C 535.31044,76.089344 540.48996,75 541.75253,75 c 3.33367,0 5.91101,1.662298 5.91101,3.812408 0,2.648179 -2.55329,3.302764 -5.67272,1.454312 -2.51522,-1.490418 -3.06713,-1.472473 -10.09827,0.328348 -7.12261,1.824249 -10.60819,2.089008 -16.23836,1.233444 z M 116.82243,79.6875 c 0,-0.515625 0.65566,-0.9375 1.45702,-0.9375 0.80137,0 1.19711,0.421875 0.87943,0.9375 -0.31769,0.515625 -0.97335,0.9375 -1.45703,0.9375 -0.48369,0 -0.87942,-0.421875 -0.87942,-0.9375 z m -15.88785,-1.928124 c -5.3972,-0.937544 -11.540597,-1.481173 -13.651997,-1.208068 -3.061315,0.395976 -3.963778,0.170136 -4.455376,-1.114952 -0.913618,-2.38829 1.225269,-4.432218 4.035518,-3.856355 6.106918,1.251401 28.322315,7.089998 28.799965,7.569136 0.90007,0.902888 -4.41965,0.400914 -14.72811,-1.389761 z m 485.98129,1.068749 c 0,-0.472656 0.51887,-1.03287 1.15304,-1.244921 0.88566,-0.296146 0.66634,-3.411999 -0.94584,-13.437499 -1.15439,-7.178576 -2.09381,-14.014414 -2.08762,-15.190753 0.0144,-2.724453 2.51174,-3.723446 4.44934,-1.779795 1.25198,1.25589 1.31807,2.06766 0.41464,5.092458 -0.87633,2.934097 -0.73448,5.580936 0.76838,14.337271 2.33957,13.631264 2.37934,13.082614 -0.9482,13.082614 -1.54206,0 -2.80374,-0.386719 -2.80374,-0.859375 z m -43.45794,-4.514079 c -2.46693,-0.618262 -3.2394,-1.956571 -3.25672,-5.642171 -0.011,-2.341747 0.38475,-3.046875 1.71,-3.046875 2.54716,0 4.81775,3.017211 4.81775,6.401945 0,1.63518 -0.31542,2.924117 -0.70094,2.864304 -0.38551,-0.05981 -1.54205,-0.319554 -2.57009,-0.577203 z M 91.600826,72.018542 C 88.515267,71.131067 88.43774,71.010845 90.143938,69.759343 93.042455,67.633272 95.3271,68.08371 95.3271,70.78125 c 0,1.289062 -0.10514,2.305702 -0.233645,2.259199 -0.128504,-0.0465 -1.700188,-0.506362 -3.492629,-1.021907 z M 576.89356,44.406602 c -2.36397,-2.371359 -2.39202,-2.51878 -0.71346,-3.75 2.61743,-1.919901 4.90689,-1.554596 6.61138,1.05491 3.24276,4.964543 -1.48286,7.123944 -5.89792,2.69509 z"
       id="path3504"
       inkscape:connector-curvature="0" />
    <path
       style="fill:#0000fe"
       d="m 85.079609,126.62413 c -1.293538,-2.42455 -1.220479,-3.81163 0.200762,-3.81163 0.674974,0 1.168225,1.1875 1.168225,2.8125 0,3.31326 -0.09671,3.38384 -1.368987,0.99913 z m 203.394921,0.16775 c 0.71523,-2.84732 -1.19232,-4.91688 -4.53198,-4.91688 -1.61564,0 -2.50373,-0.39072 -2.15918,-0.94995 0.32189,-0.52248 -0.53984,-3.37013 -1.91496,-6.32812 -4.98949,-10.7328 -5.24387,-11.46766 -3.77357,-10.9017 1.83128,0.70493 5.21356,-1.2576 5.21356,-3.02509 0,-2.203859 2.11341,-1.029546 4.01012,2.22822 2.25287,3.86951 5.33568,14.86384 5.33568,19.02885 0,1.83668 -0.60993,4.15834 -1.35539,5.15923 -1.30857,1.75694 -1.33704,1.74677 -0.82428,-0.29456 z m -129.35392,-7.02625 -1.95286,-2.10938 4.53049,-4.91831 c 4.02994,-4.37492 4.68559,-4.76273 5.93433,-3.51008 3.67964,3.69113 2.39542,9.17433 -2.64334,11.28624 -4.0328,1.69027 -3.55432,1.75129 -5.86862,-0.74847 z m 277.40585,1.7676 c 0.21418,-0.18796 1.44082,-0.88984 2.72586,-1.55973 2.1372,-1.1141 2.22707,-1.08496 1.0538,0.34176 -0.70547,0.85786 -1.9321,1.55974 -2.72586,1.55974 -0.79376,0 -1.26796,-0.1538 -1.0538,-0.34177 z M 84.445298,118.09466 c 1.171251,-5.87455 3.472899,-12.72822 5.263351,-15.67278 1.944117,-3.197292 3.749292,-4.003083 3.749292,-1.67361 0,1.7042 3.420019,3.63736 5.213561,2.94696 1.460228,-0.56209 1.526808,-0.75414 -3.946953,11.3829 l -2.642565,5.85937 -4.101741,0 c -4.068773,0 -4.097186,-0.0229 -3.534945,-2.84284 z m 344.059362,0.31824 c -7.35436,-3.72588 -12.61682,-9.5492 -12.61682,-13.96152 0,-1.19407 0.47242,-0.97678 1.93699,0.89094 2.20514,2.81214 4.20743,3.12176 6.53332,1.01028 1.46921,-1.33378 2.02459,-1.20285 6.42845,1.51533 4.44193,2.74169 4.7066,3.10124 3.37198,4.58059 -1.73473,1.92285 -1.85574,3.95528 -0.32682,5.48898 0.70534,0.70754 0.79204,1.44371 0.23365,1.98389 -0.54277,0.52507 -2.70408,-0.0612 -5.56075,-1.50849 z m -76.03811,-3.05035 c 2.12939,-1.76131 2.15277,-1.92137 0.67007,-4.59001 l -1.53627,-2.76506 3.64444,-1.64855 c 2.00445,-0.90671 4.1396,-2.24704 4.74479,-2.97852 0.60518,-0.73147 2.61404,-2.1046 4.46413,-3.0514 l 3.36381,-1.721447 -0.0303,2.374307 c -0.0412,3.23112 2.59315,4.87486 5.1977,3.24321 2.19871,-1.3774 3.41876,-0.96222 1.57033,0.53439 -1.66168,1.3454 -22.6782,12.42803 -23.56787,12.42803 -0.39995,0 0.26566,-0.82122 1.47915,-1.82495 z M 149.8566,113.07884 c -6.80438,-3.45799 -8.73511,-4.99032 -8.73511,-6.93268 0,-1.24883 0.22355,-1.23382 1.7091,0.11479 3.15899,2.86777 6.70212,1.30559 6.70212,-2.955 0,-1.43174 0.42701,-2.08419 1.16822,-1.78499 6.89613,2.78365 12.85047,5.7544 12.85047,6.41138 0,1.04066 -6.56596,8.35829 -7.35174,8.19338 -0.3257,-0.0683 -3.18008,-1.43945 -6.34306,-3.04688 z M 519.94859,92.035555 c 0.8507,-0.942944 1.54672,-2.491757 1.54672,-3.441805 0,-0.950048 -0.69602,-2.498861 -1.54672,-3.441805 -1.46817,-1.627393 -1.39303,-1.714445 1.47981,-1.714445 1.66459,0 6.39922,-0.863819 10.52141,-1.919597 7.00093,-1.793082 7.64883,-1.818419 9.83055,-0.384434 1.28462,0.84434 3.23899,1.307562 4.34306,1.029384 1.76903,-0.445722 1.69905,-0.23569 -0.58938,1.768742 -1.42822,1.250989 -6.26467,3.379785 -10.74766,4.730659 -4.48298,1.350874 -9.7365,3.048247 -11.67447,3.77194 -4.59383,1.715472 -5.02192,1.661519 -3.16332,-0.398639 z M 63.728874,79.106299 64.01869,74.53125 71.495325,72.498785 c 4.112149,-1.117856 8.437694,-2.067074 9.612321,-2.109375 1.875221,-0.06753 2.009595,0.159429 1.101802,1.860957 -0.805056,1.508961 -0.7017,2.446427 0.466981,4.235634 1.760364,2.695051 2.176064,2.474269 -8.606125,4.57081 -4.237967,0.824051 -8.363711,1.751684 -9.16832,2.061406 -1.226284,0.472039 -1.416045,-0.176925 -1.17311,-4.011918 z m -5.677708,-1.662239 -2.229207,-1.2395 2.462851,-0.472275 c 1.947263,-0.373406 2.462852,-0.106967 2.462852,1.27272 0,2.042446 0.144768,2.018874 -2.696496,0.439055 z M 595.32709,64.429449 c -5.83145,-6.524611 -5.9607,-6.846751 -4.64236,-11.570129 1.03367,-3.703444 0.97271,-4.354309 -0.56774,-6.061812 -0.97458,-1.080263 -2.4542,-1.721802 -3.39931,-1.473879 -0.92044,0.241456 -1.43786,0.05648 -1.14981,-0.411059 0.77055,-1.250682 3.8894,-1.035437 6.76824,0.467104 3.43206,1.79128 6.12141,4.903287 8.58379,9.932826 1.13599,2.320312 3.60167,5.574547 5.4793,7.231632 l 3.41387,3.012883 -2.96246,-1.080675 c -3.19275,-1.164679 -5.48927,-0.103643 -6.72152,3.105469 -0.47808,1.245034 -1.43072,0.619654 -4.802,-3.15236 z"
       id="path3500"
       inkscape:connector-curvature="0" />
    <path
       style="fill:#fe0000"
       d="m 246.02803,157.45178 c -3.72375,-1.15596 -4.16433,-3.11614 -0.46729,-2.07901 1.41355,0.39654 6.7757,0.70113 11.91589,0.67687 10.07029,-0.0475 17.77704,-2.00322 27.1028,-6.87768 6.2776,-3.28122 6.07477,-3.2119 6.07477,-2.07608 0,1.28582 -9.20668,5.95189 -16.91682,8.57366 -6.80005,2.31231 -22.70615,3.33537 -27.70935,1.78224 z m -10.51402,-4.17053 c -4.99539,-2.68325 -5.60747,-2.78558 -5.60747,-0.9375 0,0.77344 -0.42603,1.40625 -0.94673,1.40625 -1.13744,0 -5.23982,-8.16913 -4.48341,-8.9279 0.74257,-0.74489 9.16845,1.48036 9.16845,2.42137 0,0.42398 -0.48523,1.0717 -1.07829,1.43938 -0.65574,0.40654 0.62605,1.53738 3.27103,2.88579 2.39212,1.21951 4.34932,2.63109 4.34932,3.13683 0,1.15451 0.29567,1.24463 -4.6729,-1.42422 z M 438.31774,134.25 c 0,-0.4125 0.44233,-1.19371 0.98295,-1.73602 0.68753,-0.68968 -1.06791,-1.14696 -5.84112,-1.52157 -3.75324,-0.29456 -8.71659,-1.38616 -11.02968,-2.42577 -4.35519,-1.95743 -11.07309,-8.08394 -10.02126,-9.13907 0.32926,-0.33028 1.65763,0.66195 2.95194,2.20495 3.10676,3.70373 10.75517,6.91177 17.76786,7.45256 4.15527,0.32044 5.28453,0.17179 4.25474,-0.56007 -1.06373,-0.75598 -0.21839,-0.99976 3.50467,-1.01066 2.6986,-0.007 4.90654,0.32476 4.90654,0.73924 0,0.91386 -5.89635,6.74641 -6.8202,6.74641 -0.36103,0 -0.65644,-0.3375 -0.65644,-0.75 z M 139.23358,122.32109 c -1.50868,-1.82353 -0.46616,-2.95437 1.33853,-1.45193 1.07869,0.89803 2.5644,0.79875 7.08412,-0.47339 9.48419,-2.66944 16.55252,-10.52129 19.0376,-21.147876 0.65367,-2.795203 -1.77255,-5.846331 -3.02826,-3.808219 -0.51759,0.840112 -1.38489,0.832678 -3.66708,-0.03141 -1.64404,-0.622528 -2.98915,-1.383085 -2.98915,-1.690167 0,-0.547702 6.08912,-3.718102 7.14105,-3.718102 0.29456,0 0.29349,0.632812 -0.003,1.40625 -0.32528,0.85033 -0.004,1.40625 0.81305,1.40625 0.74305,0 2.01903,1.022728 2.83551,2.272734 1.3544,2.073535 1.35509,2.655103 0.008,6.63542 -2.37129,7.00632 -3.85538,9.28906 -9.26109,14.24502 -3.80185,3.48554 -6.50686,5.07221 -10.62177,6.23041 -6.76668,1.90455 -7.21049,1.91095 -8.68807,0.12501 z"
       id="path3498"
       inkscape:connector-curvature="0" />
    <path
       style="fill:#000000"
       d="m 33.411214,168.98494 27.336448,-0.26326 0,-41.75992 c 0,-33.155004 -0.240721,-41.616165 -1.168224,-41.062285 -0.642524,0.383698 -5.163552,3.704486 -10.046729,7.379528 -4.883178,3.675044 -10.981308,8.093827 -13.551402,9.819517 -2.570093,1.72569 -7.074237,5.70299 -10.009209,8.83844 -4.134894,4.41733 -5.587486,5.44886 -6.451947,4.58169 -1.336836,-1.34101 1.272947,-9.11598 3.735746,-11.12939 0.830752,-0.67917 8.098042,-7.562176 16.149536,-15.295563 10.185362,-9.782956 15.587661,-14.307991 17.757008,-14.873501 l 3.117931,-0.812788 0.0785,-24.781829 c 0.0743,-23.457935 0.170852,-24.781829 1.807324,-24.781829 1.644138,0 1.716792,1.197624 1.483084,24.447373 l -0.245745,24.447373 9.653369,-2.395551 c 5.309353,-1.317554 9.749441,-2.430869 9.866863,-2.474035 0.117422,-0.04316 0.327702,-1.078944 0.46729,-2.30173 0.2251,-1.971874 -0.146737,-2.239911 -3.28866,-2.370614 -3.436594,-0.142962 -6.255083,-1.71216 -5.120142,-2.850648 0.307222,-0.308181 1.40526,-0.105788 2.440085,0.449764 1.034825,0.555551 2.542807,0.755534 3.351071,0.444404 0.808265,-0.311129 2.205554,-0.253212 3.105086,0.128706 0.899533,0.381917 3.182623,0.607903 5.073534,0.50219 4.468112,-0.249795 7.309643,2.446734 7.309643,6.936633 0,2.960907 0.306944,3.32591 3.504673,4.167636 9.712553,2.556597 16.570283,3.820713 18.094483,3.33544 0.9321,-0.29676 2.60042,-0.05333 3.70738,0.540945 1.77623,0.953575 1.96281,1.683527 1.58831,6.213616 -0.40347,4.880576 -0.27802,5.245068 2.55011,7.408927 3.18957,2.440408 4.69455,2.810815 5.58016,1.373393 0.30579,-0.496336 -1.45677,-1.953255 -3.9168,-3.237599 -2.46005,-1.284343 -4.10916,-2.354814 -3.6647,-2.378822 0.44445,-0.02401 2.86479,1.079235 5.37851,2.451651 2.51373,1.372417 4.75694,2.308185 4.98493,2.079484 0.22799,-0.228699 -1.68813,-2.887566 -4.25803,-5.908592 -3.01382,-3.542838 -4.57268,-6.191327 -4.39117,-7.460532 0.60931,-4.260843 3.27655,-2.354653 12.89751,9.217431 9.72377,11.695735 9.77948,11.743126 18.19493,15.479497 4.64271,2.06132 7.95479,3.75618 7.36018,3.76638 -0.5946,0.0102 -3.89316,-1.24709 -7.33011,-2.79397 -3.43695,-1.54687 -6.42008,-2.8125 -6.62918,-2.8125 -0.20909,0 -0.38016,0.97031 -0.38016,2.15625 0,4.16648 -3.57824,5.6906 -6.70212,2.8547 -1.45482,-1.32072 -1.7091,-1.34233 -1.7091,-0.14531 0,2.04814 2.6346,4.12289 8.5907,6.7652 2.89088,1.28248 5.48545,2.70397 5.76571,3.15886 0.85101,1.38127 -10.93451,-4.52512 -13.18818,-6.60935 -1.15655,-1.06957 -2.10281,-2.50397 -2.10281,-3.18752 0,-0.82186 -1.24753,-1.24283 -3.68316,-1.24283 -2.02574,0 -3.92157,-0.38695 -4.21295,-0.85989 -0.31879,-0.51743 -1.86346,-0.49051 -3.87843,0.0676 -3.92776,1.0879 -5.98247,0.52573 -5.98247,-1.63682 0,-1.24912 0.26375,-1.33089 1.35702,-0.42072 0.74637,0.62137 2.136,0.88175 3.08807,0.57862 1.3326,-0.42427 1.7092,-1.4241 1.63618,-4.343818 -0.075,-3.001153 -0.67076,-4.264846 -2.85441,-6.055107 -3.34196,-2.739905 -4.16143,-2.860079 -4.16143,-0.610266 0,0.945774 -1.68224,9.349681 -3.73831,18.675351 -2.05608,9.32567 -3.73832,17.35652 -3.73832,17.84634 0,0.93644 11.93455,5.44952 15.81463,5.98034 3.4128,0.4669 3.48576,2.58573 0.13277,3.8553 l -2.93061,1.10964 3.07104,1.03724 c 4.12734,1.394 3.90478,3.47588 -0.48791,4.56422 -3.16734,0.78475 -4.32717,0.50044 -10.54113,-2.58391 -4.89139,-2.42789 -7.09416,-3.11304 -7.35609,-2.28802 -0.20565,0.64771 -1.48477,6.66203 -2.84248,13.36516 -1.3577,6.70312 -2.67754,12.92578 -2.93298,13.82812 -0.43916,1.55141 3.12224,1.64063 65.48641,1.64063 36.27296,0 65.95083,-0.2181 65.95083,-0.48467 0,-0.26658 1.0514,-5.36283 2.33645,-11.32501 1.28505,-5.96218 2.33645,-11.17925 2.33645,-11.59348 0,-0.41423 -0.88543,-0.98542 -1.96763,-1.26931 -2.45211,-0.64325 -1.85862,-2.8802 0.87107,-3.28315 1.18164,-0.17443 2.21695,-1.1526 2.48067,-2.34375 0.24893,-1.12441 1.09075,-4.91821 1.8707,-8.43068 0.77994,-3.51246 1.41808,-6.57106 1.41808,-6.79687 0,-0.22582 -5.88785,-0.41058 -13.08411,-0.41058 -17.52209,0 -17.37245,-1.73942 0.17926,-2.08363 l 13.26335,-0.26012 3.12618,-14.0625 c 1.71939,-7.734375 3.21583,-17.220582 3.32542,-21.08046 0.27273,-9.605794 1.48203,-9.663728 10.84906,-0.519749 l 7.31718,7.142927 1.19141,-2.885312 c 2.1276,-5.152526 6.58253,-6.111562 11.01402,-2.371047 1.51016,1.274685 2.99023,2.072349 3.28907,1.772589 0.67612,-0.678235 6.25814,1.731091 6.25814,2.701156 0,0.958272 -2.03542,0.871102 -3.65357,-0.156472 -1.80392,-1.145539 -3.82307,-0.217255 -3.82307,1.757619 0,0.896168 -0.84764,2.398902 -1.88366,3.339411 -1.84939,1.678904 -1.85151,1.745522 -0.11679,3.660929 2.54382,2.808789 3.84537,5.621839 5.8427,12.627979 2.20175,7.72318 2.24266,12.44868 0.12971,14.98359 -0.96579,1.15866 -8.1646,4.4194 -17.58002,7.96297 -8.76947,3.30047 -17.68964,6.89395 -19.82257,7.98549 -2.13295,1.09155 -4.66575,1.98463 -5.62847,1.98463 -1.47254,0 -2.08237,1.59973 -3.84183,10.07812 -1.1503,5.54297 -2.30025,10.81641 -2.55543,11.71875 -0.43742,1.5467 2.18824,1.64063 45.86067,1.64063 l 46.32466,0 0,-23.90625 c 0,-19.65634 -0.22839,-23.90625 -1.28474,-23.90625 -0.7066,0 -6.383,0.8686 -12.6142,1.93024 -10.00703,1.70493 -11.84794,1.78333 -15.77133,0.67174 -4.58405,-1.29875 -6.06147,-3.74395 -2.57272,-4.25792 1.02804,-0.15146 8.72609,-1.81417 17.1068,-3.69492 l 15.23764,-3.41954 -0.28436,-43.427762 c -0.28091,-42.897846 -0.26158,-43.42776 1.58478,-43.427766 1.84622,-6e-6 1.86565,0.529505 1.58359,43.156395 l -0.28557,43.156403 2.62202,-0.60149 c 11.2295,-2.57599 18.2527,-5.43397 22.87376,-9.30811 1.37212,-1.15034 4.4196,-2.885658 6.77221,-3.85627 2.3526,-0.970613 4.27903,-2.311266 4.28095,-2.979234 0.002,-0.667969 1.06697,-2.281285 2.36677,-3.585141 1.76266,-1.768175 3.16063,-2.301736 5.50081,-2.099488 3.78646,0.327242 10.82751,-4.109147 10.82751,-6.822138 0,-1.198477 0.67533,-1.747499 2.14954,-1.747499 4.10052,0 5.6766,3.58529 2.9195,6.641362 -1.54425,1.711714 -4.35981,13.296508 -3.03141,12.472941 0.42137,-0.261225 0.76611,0.161784 0.76611,0.940027 0,0.77825 -0.57419,1.75237 -1.276,2.16471 -0.70179,0.41234 -1.48483,2.01534 -1.74008,3.56221 -0.68881,4.17431 -11.94699,58.79411 -12.51209,60.70312 -0.45342,1.53183 1.068,1.64063 22.94183,1.64063 12.88511,0 23.42746,-0.15077 23.42746,-0.33503 0,-0.18427 1.68225,-8.41904 3.73832,-18.29947 2.05608,-9.88043 3.73832,-18.16717 3.73832,-18.41497 0,-0.24779 0.63084,-0.45053 1.40187,-0.45053 0.77103,0 1.40187,0.412 1.40187,0.91555 0,1.04454 -6.40517,32.4445 -7.12807,34.94382 -0.44595,1.54184 1.63965,1.64063 34.63518,1.64063 19.31034,0 35.10971,-0.13108 35.10971,-0.2913 0,-0.47139 8.44572,-41.22688 9.02209,-43.53682 l 0.52634,-2.10938 -13.18543,0 c -17.59868,0 -17.53463,-1.73822 0.0767,-2.08363 l 13.2622,-0.26012 2.69285,-12.5107 c 1.48108,-6.8809 2.55747,-12.644028 2.392,-12.806966 -0.16547,-0.162937 -9.4522,-1.566774 -20.63719,-3.119637 -20.45478,-2.839834 -27.32716,-4.765315 -27.32716,-7.656447 0,-1.667372 9.39493,-1.85425 33.88599,-0.674041 l 15.19441,0.73221 -0.24114,-3.07596 -0.24113,-3.075959 4.36489,0.304294 c 2.40153,0.16742 7.44607,-0.530442 11.21495,-1.551479 3.76753,-1.020674 7.93686,-2.097301 9.26515,-2.392504 2.30194,-0.511587 2.39546,-0.774274 1.99594,-5.606946 -0.3504,-4.238573 -0.0983,-5.392108 1.53721,-7.032688 1.65019,-1.655353 3.01982,-1.946611 8.75173,-1.861104 7.45868,0.111266 9.13181,0.869317 9.13181,4.137391 0,3.161141 -1.68902,3.714075 -2.0392,0.667572 -0.17904,-1.55763 -0.94365,-2.70896 -1.92272,-2.895195 -1.34307,-0.255476 -1.52864,0.176446 -1.06813,2.486184 0.75633,3.793466 -1.24296,9.442954 -3.74673,10.587312 -1.63159,0.745725 -1.97593,1.560211 -1.6918,4.001636 0.46819,4.022839 -3.18352,7.196068 -11.22922,9.757872 -5.66341,1.803269 -18.81174,5.76918 -20.91309,6.307989 -0.56216,0.144141 -1.6639,3.359222 -2.44832,7.144626 -0.78442,3.7854 -4.02446,19.53879 -7.20009,35.00754 -3.17563,15.46875 -5.99242,28.86328 -6.25952,29.76562 -0.45662,1.54257 1.6688,1.64063 35.55864,1.64063 19.82437,0 36.04429,-0.13108 36.04429,-0.2913 0,-0.47139 8.44572,-41.22688 9.02209,-43.53682 l 0.52634,-2.10938 -13.18543,0 c -17.60435,0 -17.53247,-1.73832 0.0862,-2.08363 l 13.2716,-0.26012 3.47237,-16.29363 c 3.35955,-15.764196 3.72879,-21.426546 1.57679,-24.179782 -0.53503,-0.684497 -0.44182,-1.767806 0.24736,-2.874796 0.87358,-1.403205 0.68852,-4.254594 -0.88093,-13.573013 -1.09275,-6.488146 -1.98684,-12.835205 -1.98684,-14.104574 0,-1.947979 -0.35956,-2.238997 -2.30533,-1.865875 -3.26404,0.62591 -7.97504,-4.201781 -7.97504,-8.172578 0,-4.245725 3.84799,-7.863762 7.75222,-7.288953 1.63263,0.240369 3.70573,-0.02487 4.6069,-0.589416 1.30311,-0.816354 2.06042,-0.603194 3.69991,1.041417 2.46668,2.474383 1.54861,4.060885 -1.00725,1.740631 -2.20621,-2.002834 -3.43849,-0.502524 -1.92196,2.339999 0.5867,1.099687 0.88228,2.96732 0.65685,4.150297 -0.33176,1.740914 0.0821,2.249553 2.17095,2.668645 3.71949,0.746224 9.02864,5.793003 11.73951,11.159365 1.2889,2.551465 3.89039,6.206918 5.7811,8.12323 4.60504,4.667397 10.40551,11.976573 17.16153,21.625283 3.06885,4.382812 6.56825,9.023437 7.77643,10.3125 3.07463,3.280444 6.46099,12.17008 5.14055,13.49465 -1.15123,1.15482 -16.29362,-13.922994 -34.98152,-34.832331 -6.11088,-6.837288 -11.24892,-12.29276 -11.41788,-12.123271 -0.16897,0.169489 0.31228,3.842602 1.06942,8.162474 1.51245,8.629311 1.30815,10.822131 -2.7937,29.985978 -1.26919,5.92969 -4.86037,23.22656 -7.98039,38.4375 -3.12002,15.21094 -5.88957,28.38904 -6.15454,29.28466 -0.44996,1.52085 1.6672,1.64553 32.05397,1.88755 17.89466,0.14253 -110.03434,0.26011 -284.28667,0.26131 -174.25233,9.4e-4 -304.521017,-0.1163 -289.485971,-0.26108 z m 70.372646,-5.62557 c 0.61196,-2.96484 2.06498,-9.90758 3.22895,-15.42831 l 2.1163,-10.0377 -6.66737,-2.51739 C 85.863439,129.10893 85.564941,128.95395 84.112147,125.8491 l -1.401869,-2.99602 -9.579439,-0.0203 -9.579439,-0.0203 0,22.96875 0,22.96875 19.559908,0 19.559902,0 1.11265,-5.39063 z m 270.98248,5.09933 c 0,-0.47139 8.44572,-41.22688 9.0221,-43.53682 l 0.52633,-2.10938 -24.40038,0 -24.40038,0 0,22.96875 0,22.96875 19.62617,0 c 10.79439,0 19.62616,-0.13108 19.62616,-0.2913 z M 130.60747,143.7841 c 2.84561,-0.76497 2.6479,-1.88499 -0.46729,-2.64707 -1.41355,-0.34579 -5.78793,-2.28084 -9.72086,-4.30008 -5.9941,-3.07752 -7.24126,-3.43479 -7.71028,-2.20873 -1.02145,2.67021 -0.60384,3.1356 5.7489,6.4065 6.41931,3.30516 8.40804,3.7552 12.14953,2.74938 z m 124.63474,-2.55004 c 3.79903,-1.72752 12.49785,-5.20688 19.33072,-7.73191 10.01843,-3.70224 12.5231,-4.98948 12.93844,-6.64953 1.56262,-6.24542 -4.13788,-5.45844 -19.3477,2.671 -6.90591,3.69112 -14.76414,7.72986 -17.46274,8.97498 -3.44038,1.58737 -4.90654,2.8036 -4.90654,4.07013 0,2.49636 1.48389,2.28674 9.44782,-1.33467 z M 242.99065,142.5 c 0,-0.51563 -0.84112,-0.9375 -1.86916,-0.9375 -1.02804,0 -1.86916,0.42187 -1.86916,0.9375 0,0.51562 0.84112,0.9375 1.86916,0.9375 1.02804,0 1.86916,-0.42188 1.86916,-0.9375 z m 21.02784,-11.73264 c 8.36818,-4.39046 15.71986,-8.59302 16.33705,-9.33901 1.65681,-2.00257 -5.57005,-17.49771 -10.72282,-22.99085 -2.17653,-2.320313 -5.66815,-6.434963 -7.75913,-9.143665 -4.38279,-5.677558 -3.77797,-6.49196 -7.13874,9.612415 -1.29125,6.1875 -3.62081,17.27724 -5.17681,24.64388 -3.20155,15.15732 -3.20657,15.19987 -1.79176,15.19987 0.57054,0 7.88402,-3.59219 16.25221,-7.98264 z m -133.7211,6.47609 C 132.43615,136.42017 132.1124,135 129.78597,135 c -1.09436,0 -4.90447,-1.05469 -8.46692,-2.34375 -7.15971,-2.59072 -8.23494,-2.77629 -8.23494,-1.42128 0,0.50736 2.41822,2.17457 5.37383,3.70491 5.272,2.72971 8.89908,3.43542 11.83945,2.30357 z m -20.60608,-2.47783 c 0.30995,-1.16015 0.56928,-2.40266 0.5763,-2.76112 0.007,-0.35846 -3.66715,-2.57101 -8.16481,-4.91678 -10.790039,-5.62756 -16.218466,-5.71322 -14.847624,-0.23428 0.40352,1.61278 2.702688,2.9013 10.601999,5.94169 5.547705,2.13528 10.353125,3.92678 10.678685,3.98109 0.32556,0.0543 0.84552,-0.85044 1.15545,-2.0106 z m 0.98305,-5.27164 c 0.27736,-0.45019 -2.04571,-1.75121 -5.16239,-2.89116 -3.11667,-1.13994 -5.50166,-2.23816 -5.29997,-2.44048 0.20168,-0.20231 2.61547,0.48929 5.36399,1.53691 4.0089,1.52802 5.15033,1.66268 5.7711,0.68088 2.0033,-3.16843 0.95827,-3.66515 -7.23452,-3.43864 l -8.036956,0.2222 6.868726,3.52801 c 8.10352,4.16222 7.1133,3.80326 7.73002,2.80228 z M 86.448596,125.625 c 0,-1.625 -0.493251,-2.8125 -1.168225,-2.8125 -1.421241,0 -1.4943,1.38708 -0.200762,3.81163 1.272279,2.38471 1.368987,2.31413 1.368987,-0.99913 z M 290.6542,121.92721 c 0,-4.16501 -3.08281,-15.15934 -5.33568,-19.02885 -1.89671,-3.257766 -4.01012,-4.432079 -4.01012,-2.22822 0,1.76749 -3.38228,3.73002 -5.21356,3.02509 -1.4703,-0.56596 -1.21592,0.1689 3.77357,10.9017 1.37512,2.95799 2.23685,5.80564 1.91496,6.32812 -0.34455,0.55923 0.54354,0.94995 2.15918,0.94995 3.33966,0 5.24721,2.06956 4.53198,4.91688 -0.51276,2.04133 -0.48429,2.0515 0.82428,0.29456 0.74546,-1.00089 1.35539,-3.32255 1.35539,-5.15923 z m 29.63768,-0.22129 12.41839,-2.04408 0,-3.11217 c 0,-1.71169 -0.36163,-3.11217 -0.80361,-3.11217 -0.44199,0 -7.06582,1.47156 -14.71962,3.27013 -7.65382,1.79858 -14.86228,3.27514 -16.01882,3.28125 -3.30449,0.0174 -2.45955,1.60481 1.40186,2.6336 4.87363,1.29846 3.986,1.34436 17.7218,-0.91656 z M 84.49086,114.14063 c 1.915077,-7.53583 3.625766,-11.44654 6.287166,-14.372789 1.744471,-1.918069 1.742631,-1.979691 -0.10932,-3.660929 -1.036014,-0.940509 -1.883662,-2.443243 -1.883662,-3.339411 0,-1.974874 -2.019149,-2.903158 -3.823069,-1.757619 -1.618154,1.027574 -3.653566,1.114744 -3.653566,0.156472 0,-0.970065 5.582018,-3.379391 6.258141,-2.701156 0.298827,0.29976 1.778904,-0.497904 3.289062,-1.772589 4.441273,-3.748763 8.886497,-2.781308 11.025838,2.399654 l 1.20322,2.91392 5.44257,-5.402609 c 2.99341,-2.971434 5.3281,-5.517432 5.1882,-5.657772 -0.1399,-0.14034 -5.65317,-1.123971 -12.25171,-2.185847 -11.877559,-1.911407 -14.631551,-1.838709 -17.351583,0.458031 -0.771028,0.651041 -4.135514,1.655143 -7.476635,2.231339 -3.341122,0.576196 -7.651869,1.490019 -9.579439,2.030719 l -3.504673,0.983088 0,18.237178 0,18.23719 9.606086,0 9.606085,0 1.727289,-6.79687 z m 11.203763,-1.20246 c 2.001206,-4.39015 3.473169,-8.09771 3.271028,-8.23904 -0.20214,-0.14134 -1.524065,-0.75523 -2.937616,-1.3642 -1.413552,-0.60898 -2.570094,-1.74909 -2.570094,-2.53358 0,-2.377894 -1.787934,-1.605112 -3.749292,1.62053 -1.790452,2.94456 -4.0921,9.79823 -5.263351,15.67278 -0.562202,2.81981 -0.533662,2.84277 3.521989,2.83421 l 4.088785,-0.008 3.638551,-7.98206 z m 19.840527,-6.53192 c 4.29468,-19.960503 4.24427,-19.587645 2.89809,-21.434402 -1.10162,-1.51126 -1.4771,-1.278515 -4.30097,2.665937 -1.70169,2.376966 -5.29891,6.728518 -7.99382,9.670112 -3.22786,3.523333 -6.227341,8.256833 -8.790172,13.871863 -2.139683,4.68793 -3.890337,8.81597 -3.890337,9.17342 0,0.35745 4.286598,0.52968 9.525769,0.38274 l 9.52576,-0.26717 3.02568,-14.0625 z m 270.91294,5.00017 2.01364,-9.06234 -2.12668,-0.4078 c -1.16967,-0.2243 -2.51766,-0.0156 -2.99552,0.46374 -0.47787,0.47936 -2.07662,0.73312 -3.55279,0.5639 -1.83595,-0.21046 -3.27451,0.33592 -4.55311,1.72933 -1.02803,1.12035 -6.49532,4.49058 -12.14953,7.48939 -8.52148,4.51953 -11.79941,5.71887 -19.15888,7.00992 l -8.8785,1.55753 24.69387,-0.14067 24.69386,-0.14067 2.01364,-9.06233 z m -38.12455,5.59594 c 0.62,-0.50257 1.57712,-0.63489 2.12692,-0.29403 0.87921,0.54508 20.98046,-9.4192 24.10483,-11.94886 1.84843,-1.49661 0.62838,-1.91179 -1.57033,-0.53439 -2.60455,1.63165 -5.23888,-0.0121 -5.1977,-3.24321 l 0.0303,-2.374308 -3.36381,1.721448 c -1.8501,0.9468 -3.85896,2.31993 -4.46413,3.0514 -0.60519,0.73148 -2.74034,2.07181 -4.74479,2.97852 l -3.64445,1.64855 1.49764,2.61762 c 1.2556,2.1946 1.29659,2.86062 0.25361,4.12126 -0.68421,0.827 -1.71823,1.49081 -2.29781,1.47513 -0.57959,-0.0157 -0.31781,-0.45851 0.58172,-0.98408 1.9534,-1.14132 2.07748,-2.71023 0.39668,-5.01604 -1.16,-1.59135 -1.56145,-1.60923 -6.30841,-0.28098 -2.78827,0.78019 -6.22612,1.6833 -7.63967,2.00693 -2.21577,0.50728 -2.57009,1.05101 -2.57009,3.94384 l 0,3.35544 5.84112,-0.66522 c 3.21262,-0.36588 6.3484,-1.07643 6.96841,-1.57902 z M 24.881711,111.95125 c 1.931339,-2.36431 6.270243,-6.25006 9.64201,-8.63499 9.999642,-7.073007 24.769902,-18.277406 25.508695,-19.35034 1.08094,-1.569828 0.837077,-3.08478 -0.753379,-4.680205 C 55.91591,75.912077 53.645875,77.288107 39.283806,91.40625 31.678068,98.882812 25.036572,105 24.524926,105 c -0.92036,0 -4.898758,8.32583 -4.898758,10.25192 0,2.03569 1.840806,0.8796 5.255543,-3.30067 z m 612.501449,-4.57279 c 0,-1.95654 -4.383,-10.909007 -6.44279,-13.15971 -1.41568,-1.546875 -4.85593,-6.129238 -7.64502,-10.183028 -10.32932,-15.013119 -16.7794,-20.965668 -20.31168,-18.744952 -4.48054,2.816863 -0.7944,8.02145 22.6461,31.974855 9.1781,9.378925 11.75339,11.594755 11.75339,10.112835 z m -488.95374,-3.58004 c 0.24556,-2.14474 -1.49705,-4.764651 -9.81309,-14.753413 -5.56141,-6.680065 -10.63736,-12.151071 -11.27989,-12.15779 -2.87004,-0.03001 -0.60057,4.370655 6.30842,12.232454 4.11215,4.679257 7.47663,9.125426 7.47663,9.880395 0,0.754959 0.62209,2.866164 1.3824,4.691554 1.08913,2.61479 1.83266,3.25481 3.50468,3.01677 1.53313,-0.21827 2.20515,-1.02607 2.42085,-2.90997 z m -48.663068,-0.48766 c -0.128504,-0.41347 1.309338,-2.11462 3.195198,-3.780341 4.01473,-3.546075 13.86088,-16.189158 13.86088,-17.79825 0,-2.137181 -1.5096,-1.042376 -8.90043,6.454873 -4.1001,4.159122 -8.821536,8.145405 -10.492096,8.858411 -4.96944,2.120981 -4.024858,4.927927 2.336448,6.943027 0.128505,0.0407 0.128505,-0.26427 0,-0.67772 z m 275.719498,-1.48574 c 1.91735,-1.23061 4.74778,-3.593058 6.28984,-5.249864 1.54206,-1.656806 4.59112,-4.256149 6.7757,-5.776308 2.81853,-1.961299 3.97196,-3.422356 3.97196,-5.031303 0,-2.117751 -0.54819,-1.871023 -8.30702,3.738789 -4.56887,3.303392 -9.83179,6.645241 -11.69539,7.426338 -3.55858,1.491516 -4.8586,3.371118 -3.95868,5.723578 0.76588,2.00211 2.91023,1.74466 6.92359,-0.83123 z m -96.59033,0.73093 c 2.39584,-0.92224 1.74747,-4.043694 -1.09179,-5.256256 -1.41355,-0.603675 -6.61165,-5.024322 -11.55133,-9.823648 -8.54892,-8.306014 -12.0468,-10.431372 -12.0468,-7.319796 0,0.773437 0.73598,1.417128 1.63551,1.430423 0.91234,0.01348 3.08187,2.177811 4.90655,4.894766 3.6736,5.470035 14.2142,16.643561 15.70078,16.643561 0.53282,0 1.63401,-0.25607 2.44708,-0.56905 z m 110.22406,-3.884075 c 0.25327,-0.902344 0.7455,-3.057009 1.09385,-4.788141 0.5715,-2.840147 0.46865,-3.055059 -1.05319,-2.200734 -1.16687,0.655054 -1.71613,2.130403 -1.78261,4.788141 -0.0978,3.908819 0.90642,5.177489 1.74195,2.200734 z M 139.28019,96.614709 c -1.31304,-2.461087 -2.8316,-3.297906 -2.8316,-1.560375 0,0.778247 0.73599,1.84501 1.63552,2.370572 2.24122,1.309472 2.30419,1.266816 1.19608,-0.810197 z M 101.03372,94.12875 c 1.34093,-1.217322 1.45735,-1.916393 0.62451,-3.750001 -1.12557,-2.478075 -2.553962,-2.855216 -4.275055,-1.128749 -1.43543,1.439918 -1.43543,3.810082 0,5.25 1.441467,1.445972 1.674944,1.422234 3.650545,-0.37125 z m 176.9321,-0.668924 c 0.70943,-1.128198 0.69982,-2.057531 -0.0334,-3.225451 -1.5574,-2.480768 -3.64651,-2.448674 -4.79217,0.07362 -0.82062,1.806717 -0.71919,2.562612 0.50929,3.794929 1.76445,1.769962 2.90584,1.599909 4.31628,-0.643096 z m 99.01094,0.22213 C 379.723,91.515011 380.15941,90 378.03737,90 c -1.57671,0 -5.14018,3.249645 -5.14018,4.6875 0,1.458366 1.39172,1.115325 4.07957,-1.005544 z m 136.42789,-3.425239 c 0.31081,-1.921305 0.2607,-3.78912 -0.11137,-4.1507 -0.66582,-0.64706 -33.78339,-2.668517 -43.71835,-2.668517 -2.9343,0 -5.08896,0.417191 -5.08896,0.985338 0,2.044781 7.58435,4.008539 25.23364,6.533551 24.44338,3.497017 22.99923,3.539673 23.68504,-0.699671 z m 5.44698,1.941732 c 1.9765,-1.794293 2.22748,-4.990319 0.54088,-6.88761 -0.99384,-1.117994 -0.92409,-1.128848 0.46729,-0.07271 2.01452,1.529141 2.12652,5.061013 0.21105,6.655672 -2.2068,1.837207 -1.03452,2.068063 2.94332,0.579622 1.99173,-0.74527 7.23589,-2.443617 11.65369,-3.774103 4.4178,-1.330486 9.05642,-3.227108 10.30805,-4.214717 2.95216,-2.329426 3.45549,-7.131401 0.89177,-8.507755 -2.73574,-1.468698 -5.51677,-1.211706 -15.62519,1.443915 -6.29041,1.652574 -10.47491,2.253266 -13.18643,1.892934 -3.04243,-0.404305 -3.97196,-0.218718 -3.97196,0.793027 0,2.538741 9.40949,2.842602 18.35238,0.592653 7.32601,-1.84316 8.22785,-1.89422 10.22868,-0.57913 1.20686,0.793239 2.94508,1.49119 3.86269,1.551002 1.48868,0.09704 1.49819,0.153783 0.0883,0.526786 -0.86905,0.229919 -2.61316,-0.260962 -3.87577,-1.090848 -2.12967,-1.399772 -2.83765,-1.370072 -9.79057,0.410714 -4.12221,1.055783 -8.77687,1.919602 -10.3437,1.919602 -3.17646,0 -4.2595,1.399824 -5.27206,6.814134 -0.71655,3.831478 -0.0912,4.315069 2.51756,1.946815 z M 396.06925,83.771456 c -0.27235,-1.288892 -0.50736,-1.053146 -0.90618,0.909003 -0.34771,1.71077 -0.21746,2.327209 0.36772,1.740205 0.49839,-0.499951 0.7407,-1.692094 0.53846,-2.649208 z M 74.070304,81.056811 c 10.782189,-2.096541 10.366489,-1.875759 8.606125,-4.57081 -1.168681,-1.789207 -1.272037,-2.726673 -0.466981,-4.235634 0.907793,-1.701528 0.773419,-1.928487 -1.101802,-1.860957 -1.174627,0.0423 -5.500172,0.991519 -9.612321,2.109375 l -7.476635,2.032465 -0.289816,4.575049 c -0.242935,3.834994 -0.05318,4.483957 1.17311,4.011918 0.804609,-0.309722 4.930353,-1.237355 9.16832,-2.061406 z M 119.15888,79.6875 c 0.31768,-0.515625 -0.078,-0.9375 -0.87943,-0.9375 -0.80136,0 -1.45702,0.421875 -1.45702,0.9375 0,0.515625 0.39573,0.9375 0.87942,0.9375 0.48368,0 1.13934,-0.421875 1.45703,-0.9375 z m -3.49619,-0.538363 c -0.47765,-0.479138 -22.693047,-6.317735 -28.799965,-7.569136 -2.810249,-0.575863 -4.949136,1.468065 -4.035518,3.856355 0.491598,1.285088 1.394061,1.510928 4.455376,1.114952 2.1114,-0.273105 8.254797,0.270525 13.651997,1.208068 10.30846,1.790675 15.62818,2.292649 14.72811,1.389761 z m 476.85446,-0.633512 c -0.004,-0.644531 -0.84059,-6.023438 -1.86041,-11.953125 -1.44967,-8.429109 -1.63364,-11.454421 -0.84318,-13.866788 1.22784,-3.747241 0.63114,-5.590314 -2.17603,-6.72131 -1.36833,-0.551288 -1.5934,-0.876686 -0.63286,-0.914978 0.81986,-0.03268 2.24383,0.775416 3.16437,1.795776 1.48365,1.644551 1.54221,2.32629 0.51569,6.00412 -0.67692,2.425313 -0.82675,4.716295 -0.36063,5.514655 1.8099,3.099974 9.67588,11.100565 9.67588,9.84147 0,-0.749289 0.86219,-2.145054 1.91598,-3.101701 1.64288,-1.491429 2.34226,-1.583801 4.90655,-0.648043 l 2.99056,1.091314 -3.41645,-3.012883 c -1.87905,-1.657084 -4.48688,-5.172772 -5.79518,-7.812637 -2.5626,-5.170779 -6.85434,-9.387672 -10.48448,-10.301625 -5.56337,-1.400682 -5.92329,0.881361 -3.03602,19.249645 1.62468,10.335931 1.85573,13.613531 0.9803,13.90625 -2.20021,0.735697 -1.12235,2.101735 1.65837,2.101735 1.62324,0 2.80113,-0.49341 2.79754,-1.171875 z M 60.747662,77.005005 c 0,-1.379687 -0.515589,-1.646126 -2.462852,-1.27272 l -2.462851,0.472275 2.229207,1.2395 c 2.841264,1.579819 2.696496,1.603391 2.696496,-0.439055 z m 485.981298,-4.97806 c 0,-3.384734 -2.27059,-6.401945 -4.81775,-6.401945 -1.32525,0 -1.721,0.705128 -1.71,3.046875 0.0207,4.393454 1.03474,5.475875 5.82681,6.219374 0.38552,0.05981 0.70094,-1.229124 0.70094,-2.864304 z M 95.3271,70.78125 c 0,-2.69754 -2.284645,-3.147978 -5.183162,-1.021907 -1.706198,1.251502 -1.628671,1.371724 1.456888,2.259199 1.792441,0.515545 3.364125,0.975403 3.492629,1.021907 0.128505,0.0465 0.233645,-0.970137 0.233645,-2.259199 z M 583.77694,45.461512 c 0.73635,-1.924927 -2.1221,-6.086512 -4.18062,-6.086512 -0.91794,0 -2.45524,0.576721 -3.41622,1.281602 -1.67856,1.23122 -1.65051,1.378641 0.71346,3.75 2.72153,2.730023 6.04758,3.239757 6.88338,1.05491 z M 204.23225,139.04025 c -1.52741,-0.82788 -10.6859,-4.15758 -20.35221,-7.39934 -17.92415,-6.01117 -22.3369,-8.05903 -25.52363,-11.84501 l -1.80098,-2.13965 2.45261,2.16839 c 2.33778,2.06685 2.61126,2.1019 5.84039,0.74847 5.5654,-2.33264 6.52796,-7.73045 2.13463,-11.97052 -1.85163,-1.78704 -1.86574,-1.87527 -0.16063,-1.00519 2.63709,1.34564 18.46558,4.43665 32.24298,6.29644 12.99433,1.75409 15.88785,2.60038 15.88785,4.64683 0,2.82397 -3.38155,3.47753 -12.88178,2.4897 -10.39207,-1.08058 -27.76798,-2.1014 -27.2114,-1.59865 0.20546,0.18559 7.83215,3.60798 16.94819,7.60532 9.11606,3.99734 17.08232,7.88152 17.70282,8.63151 0.78708,0.95134 0.84181,1.81901 0.18103,2.86986 -1.33807,2.1279 -2.29719,2.21606 -5.45987,0.50184 z m 4.64625,-1.74096 c 0,-1.39299 -4.09934,-3.58362 -19.52379,-10.43322 l -19.52379,-8.67001 -2.33121,1.83947 c -1.28218,1.01171 -3.01049,1.85289 -3.84071,1.86928 -3.77684,0.0746 3.12015,3.08318 20.3525,8.87808 10.07872,3.38927 19.37634,6.76349 20.66139,7.49826 2.87301,1.64274 4.20561,1.33163 4.20561,-0.98186 z m 3.66188,-16.93084 c 2.18432,-0.84083 1.79439,-3.07916 -0.6245,-3.58478 -1.15654,-0.24175 -8.41121,-1.34225 -16.12149,-2.44556 -7.71028,-1.10332 -16.54206,-2.59482 -19.62617,-3.31446 -7.19068,-1.67786 -7.25475,-1.67285 -6.10775,0.47703 0.53205,0.99725 0.86227,2.79022 0.73381,3.98438 -0.22667,2.10729 0.0552,2.19246 9.57955,2.89402 5.39719,0.39756 13.59813,1.07123 18.2243,1.49704 12.06555,1.11057 12.31341,1.11933 13.94225,0.49233 z m 220.57551,5.7253 0.61366,-3.28125 -8.8657,0 c -4.90235,0 -9.12391,-0.4191 -9.4433,-0.9375 -0.36769,-0.59679 2.41437,-0.95256 7.65512,-0.97894 l 8.23273,-0.0414 -3.73832,-1.93701 c -7.73661,-4.00872 -13.26045,-11.10962 -12.18142,-15.65922 0.32312,-1.36244 4.39295,-11.758409 9.04407,-23.102159 7.72145,-18.832134 8.83244,-20.971349 12.78071,-24.609375 6.81117,-6.275977 9.04702,-5.122838 5.33863,2.753397 -3.14362,6.676709 -15.28002,39.0539 -16.00824,42.706387 -0.52588,2.63763 -0.22067,3.13044 3.33219,5.38027 6.52415,4.13138 6.14543,4.47376 8.47071,-7.657895 1.16728,-6.090033 2.04964,-12.384569 1.96082,-13.987861 -0.21542,-3.888377 1.92515,-5.701062 5.04721,-4.274106 2.54769,1.164428 2.8121,2.478909 1.29242,6.425026 -1.38339,3.592239 -4.59112,20.298726 -4.59112,23.911456 0,2.77387 0.088,2.84462 1.7091,1.373 2.15457,-1.95596 7.51115,-2.00419 10.23248,-0.0922 1.47026,1.03305 2.07711,2.41325 2.07711,4.72411 0,4.47346 -5.96839,10.6915 -10.26224,10.6915 -3.64769,0 -2.96418,-1.40058 1.13065,-2.31677 l 3.05683,-0.68395 -2.67052,-0.78925 c -1.46878,-0.4341 -3.40614,-1.45708 -4.30525,-2.27329 -1.46282,-1.32798 -1.75914,-1.33367 -2.81775,-0.0541 -0.65066,0.78645 -1.7433,1.42991 -2.4281,1.42991 -0.68479,0 -1.52123,1.47656 -1.85874,3.28125 -0.37741,2.01808 -1.15332,3.28125 -2.01551,3.28125 -1.09597,0 -1.26796,-0.716 -0.78823,-3.28125 z m 7.19023,-5.77849 c 1.17327,-1.42672 1.0834,-1.45586 -1.0538,-0.34176 -3.13313,1.63328 -3.36898,1.9015 -1.67206,1.9015 0.79376,0 2.02039,-0.70188 2.72586,-1.55974 z m -6.47436,-2.37776 c -1.52892,-1.5337 -1.40791,-3.56613 0.32682,-5.48898 1.33462,-1.47935 1.06995,-1.8389 -3.37198,-4.58059 -4.40386,-2.71818 -4.95924,-2.84911 -6.42845,-1.51533 -0.88448,0.80295 -2.17275,1.4599 -2.86283,1.4599 -1.54866,0 -4.6729,-2.74382 -4.6729,-4.1039 0,-0.55044 0.65469,-0.0632 1.45486,1.0828 1.60404,2.29724 4.3515,2.73092 5.77583,0.91173 0.50463,-0.64454 1.19146,-2.61822 1.52628,-4.38597 0.71989,-3.800772 12.67157,-35.866083 16.01936,-42.978554 1.27956,-2.718455 2.32647,-5.144236 2.32647,-5.390625 0,-1.394712 -2.82831,0.0027 -6.21369,3.07018 -3.41388,3.09325 -4.88848,5.977919 -12.33902,24.138089 -4.65397,11.34375 -8.72615,21.73972 -9.04927,23.10216 -0.70079,2.95483 1.12367,6.8297 4.85499,10.31122 3.67421,3.42821 11.77964,7.42317 12.88718,6.35176 0.55839,-0.54018 0.47169,-1.27635 -0.23365,-1.98389 z m 7.47306,-4.90793 c -0.31337,-4.79655 1.8658,-17.918554 4.26283,-25.668988 1.3399,-4.33234 1.3638,-5.09573 0.18302,-5.845019 -0.74699,-0.474019 -1.989,-0.819374 -2.76003,-0.767456 -0.99331,0.06688 -0.92521,0.219349 0.23365,0.523136 0.89953,0.235807 1.63551,0.927948 1.63551,1.538092 0,1.408802 -5.36183,27.193245 -6.56403,31.565665 -1.46466,5.32702 -1.25977,6.08918 1.1902,4.42735 1.76089,-1.19442 2.05663,-2.13307 1.81885,-5.77278 z m 7.90516,4.03757 c 0.69151,-0.5757 1.2573,-2.04976 1.2573,-3.27568 0,-1.83054 -0.4807,-2.22896 -2.68931,-2.22896 -3.05248,0 -4.24869,1.16701 -5.17537,5.04902 -0.62846,2.63276 -0.56543,2.68914 2.35215,2.10381 1.64886,-0.33081 3.56371,-1.07249 4.25523,-1.64819 z m -13.71028,-3.4506 c 0.008,-0.67496 -0.40625,-0.96647 -0.92027,-0.64779 -0.51402,0.31868 -0.92814,1.50373 -0.92027,2.63346 0.0117,1.6699 0.18373,1.79105 0.92027,0.64779 0.49828,-0.77344 0.9124,-1.95849 0.92027,-2.63346 z m -28.02308,8.25846 c 0,-0.51563 1.23686,-0.9375 2.74858,-0.9375 1.51172,0 3.00851,0.42187 3.32619,0.9375 0.34374,0.55793 -0.76911,0.9375 -2.74858,0.9375 -1.8294,0 -3.32619,-0.42187 -3.32619,-0.9375 z"
       id="path3496"
       inkscape:connector-curvature="0" />
  </g>
</svg>
