<?xml version="1.0" encoding="UTF-8" standalone="no"?>
<!-- Created with Inkscape (http://www.inkscape.org/) -->

<svg
   xmlns:dc="http://purl.org/dc/elements/1.1/"
   xmlns:cc="http://creativecommons.org/ns#"
   xmlns:rdf="http://www.w3.org/1999/02/22-rdf-syntax-ns#"
   xmlns:svg="http://www.w3.org/2000/svg"
   xmlns="http://www.w3.org/2000/svg"
   xmlns:sodipodi="http://sodipodi.sourceforge.net/DTD/sodipodi-0.dtd"
   xmlns:inkscape="http://www.inkscape.org/namespaces/inkscape"
   id="svg2"
   version="1.1"
   inkscape:version="0.91 r13725"
   width="650"
   height="300"
   sodipodi:docname="ub141600.svg">
  <metadata
     id="metadata8">
    <rdf:RDF>
      <cc:Work
         rdf:about="">
        <dc:format>image/svg+xml</dc:format>
        <dc:type
           rdf:resource="http://purl.org/dc/dcmitype/StillImage" />
        <dc:title></dc:title>
      </cc:Work>
    </rdf:RDF>
  </metadata>
  <defs
     id="defs6" />
  <sodipodi:namedview
     pagecolor="#bfbfbf"
     bordercolor="#666666"
     borderopacity="1"
     objecttolerance="10"
     gridtolerance="10"
     guidetolerance="10"
     inkscape:pageopacity="0"
     inkscape:pageshadow="2"
     inkscape:window-width="1352"
     inkscape:window-height="945"
     id="namedview4"
     showgrid="false"
     inkscape:zoom="0.71859296"
     inkscape:cx="368.92459"
     inkscape:cy="265.48867"
     inkscape:window-x="0"
     inkscape:window-y="0"
     inkscape:window-maximized="0"
     inkscape:current-layer="svg2" />
  <g
     id="g4588"
     transform="translate(16.460387,86.666574)">
    <path
       sodipodi:nodetypes="ssscsssccsssssssssssss"
       inkscape:connector-curvature="0"
       id="path4360"
       d="m 254.59638,71.94294 c -6.98279,0.12936 -8.55859,1.03726 -8.55859,4.93555 0,2.26906 1.70282,1.73236 2.03906,-0.64258 0.41413,-2.925 3.08248,-2.72806 3.17578,0.23437 0.12405,3.94016 0.31422,4.44963 2.74024,7.3418 1.99727,2.38103 2.20118,3.17688 1.37695,5.35156 -1.45356,3.8351 -0.32404,5.85279 4.70313,8.4082 5.43554,2.76301 20.65311,6.99273 24.40985,7.50181 1.58944,0.22587 3.21114,0.45913 4.54718,0.45913 l 6.3164,0 c 8.26912,0 37.27625,-4.13179 41.53321,-5.91601 1.82751,-0.76596 3.63198,-1.8927 4.00976,-2.50586 1.78839,-2.90273 -1.23898,-3.1367 -25.64648,-1.98047 -13.37773,0.63374 -24.78048,0.86902 -25.33789,0.52344 -0.64215,-0.39811 -0.30398,-1.12756 0.92383,-1.99024 2.45154,-1.72253 2.47468,-4.12792 0.0586,-6.20312 -2.86434,-2.46019 -5.5957,-2.10485 -5.5957,0.72851 0,2.81301 -0.39252,2.83845 -8.82032,0.5586 -3.63091,-0.98222 -7.68114,-2.02553 -9,-2.31836 -2.30429,-0.51161 -2.38131,-0.74952 -1.99609,-6.0918 0.36509,-5.06308 0.20024,-5.69047 -1.85156,-7.03906 -1.58705,-1.04313 -4.25532,-1.44387 -9.02736,-1.35547 z"
       style="fill:#000000" />
    <path
       id="path4394"
       d="m 272.38551,101.25588 c -8.13324,-2.41204 -15.1212,-5.55832 -16.286,-7.33266 -0.37765,-0.57527 -0.69307,-1.66716 -0.70094,-2.42642 -0.009,-0.90679 0.48489,-0.66554 1.44056,0.70313 1.71353,2.45405 3.40182,2.6203 6.42575,0.63275 2.01471,-1.32422 2.86153,-1.2833 9.70227,0.46875 4.12219,1.05578 8.86496,1.9196 10.53948,1.9196 l 3.04458,0 -2.23217,2.38345 c -1.89303,2.02134 -2.05856,2.66229 -1.08957,4.21875 1.00932,1.62122 0.89639,1.82948 -0.96813,1.7854 -1.1609,-0.0275 -5.60502,-1.08618 -9.87583,-2.35275 z"
       style="fill:#0000fe"
       inkscape:connector-curvature="0" />
    <path
       sodipodi:nodetypes="sssccscssss"
       inkscape:connector-curvature="0"
       id="path4260"
       d="m 333.89717,95.43122 c -2.839,0.0331 -6.73252,0.16406 -11.92383,0.39062 -10.15187,0.44306 -21.71818,0.87659 -25.70117,0.80469 l -6.8125,-0.12304 c -1.59193,0 -3.49103,0.60852 -4.63672,1.52929 -1.6924,1.40897 -1.79189,2.98741 -0.2793,4.5 1.74898,1.74898 4.52346,2.28862 7.16602,2.0625 l 3.63671,0 c 8.37704,0 37.30107,-4.14077 41.64844,-5.96289 1.89026,-0.79226 3.43555,-1.93103 3.43555,-2.5293 0,-0.50988 -1.80155,-0.727 -6.5332,-0.67187 z"
       style="fill:#fefefe" />
    <path
       id="path4256"
       d="m 272.33504,92.2846 c -6.26013,-1.66333 -7.07934,-1.69792 -9.07927,-0.38344 -2.98639,1.96289 -4.8044,1.81524 -6.03432,-0.49005 -1.40897,-2.64091 0.33519,-4.61656 4.11837,-4.665 4.84406,-0.062 24.87827,5.06331 24.88211,6.36555 0.005,1.68383 -5.7202,1.34286 -13.88689,-0.82706 z"
       style="fill:#fefefe"
       inkscape:connector-curvature="0" />
    <path
       id="path4254"
       d="m 289.34749,91.99102 c 0.33892,-0.88596 0.61622,-1.99821 0.61622,-2.47167 0,-0.47345 0.44981,-0.86082 0.99958,-0.86082 1.45264,0 0.64233,3.99248 -0.91486,4.50761 -0.92447,0.30582 -1.13344,-0.0445 -0.70094,-1.17512 z"
       style="fill:#fefefe"
       inkscape:connector-curvature="0" />
    <path
       id="path4242"
       d="m 257.5645,82.41132 c 0.65325,-4.03807 1.17093,-4.65843 4.59547,-5.50684 2.43788,-0.60396 2.57009,-0.46664 2.57009,2.66949 0,5.20092 -0.7562,6.27206 -4.42788,6.27206 -3.26988,0 -3.28936,-0.0245 -2.73768,-3.43471 z"
       style="fill:#fefefe"
       inkscape:connector-curvature="0" />
    <path
       style="fill:#000000"
       d="m 106.33789,63.351562 c -0.71663,0.06201 -1.76452,0.595803 -2.66211,1.408204 -2.49915,2.261961 -11.638119,7.66725 -12.023436,7.111328 -0.141618,-0.204321 -1.038535,-1.618729 -1.992188,-3.142578 -1.638997,-2.618968 -2.087902,-2.755821 -8.197265,-2.5 -3.55474,0.148849 -6.462747,0.576004 -6.462891,0.949218 -1.44e-4,0.373215 -0.728664,1.408354 -1.619141,2.298828 -2.190585,2.190587 -0.86973,3.275144 1.441407,1.183594 2.544931,-2.303131 2.896577,-2.105476 2.390625,1.341797 -0.254523,1.734178 0.219968,4.008449 1.123047,5.386719 1.433143,2.187256 1.408975,2.688779 -0.285157,6.011719 -1.016353,1.993518 -2.399805,7.555572 -3.074219,12.361328 C 74.30215,100.56748 72.961122,106.075 71.996094,108 c -2.327971,4.64374 -3.970314,17.12103 -4.697266,35.67969 l -0.595703,15.17773 3.029297,3.02735 3.027344,3.02929 -4.63086,0.57032 c -9.717294,1.1988 -45.529556,8.54534 -46.091797,9.45507 -0.32423,0.52461 -3.501762,1.11599 -7.0625,1.31446 -3.216879,0.1793 64.995363,0.31676 154.800781,0.33789 l 0,-0.60352 C 167.83522,175.98973 166.78243,176 164.56836,176 145.55629,176 130,175.85606 130,175.67969 c 0,-0.6393 -7.84913,-39.25229 -8.52344,-41.92969 l -0.69336,-2.75 12.10742,0 c 16.08011,0 16.00373,-1.84835 -0.0918,-2.21875 L 120.59766,128.5 116.88281,111.12109 C 114.6189,100.53021 113.38157,92.424775 113.71484,90.371094 114.22525,87.225774 114.07746,87 111.5,87 c -3.26935,0 -3.56674,-2.829558 2.99609,28.5 2.53467,12.1 6.18198,29.875 8.10547,39.5 1.92348,9.625 3.7308,18.2875 4.01563,19.25 0.47976,1.6212 -0.81118,1.75 -17.54883,1.75 C 98.624005,176 91,175.60875 91,175.07227 c 0,-0.51043 -2.481404,-1.23833 -5.513672,-1.61719 -3.032269,-0.37886 -5.71502,-1.0169 -5.96289,-1.41797 -0.247874,-0.40107 2.344076,-1.51962 5.761718,-2.48633 7.010803,-1.98307 6.342924,-2.76925 -3.36914,-3.96484 l -5.583985,-0.6875 -1.697265,-5.38477 c -1.576743,-5.00201 -1.58439,-6.11865 -0.109375,-15.69922 0.87336,-5.67267 2.890313,-14.36445 4.480468,-19.31445 1.590156,-4.95 3.174507,-11.25 3.521485,-14 0.346977,-2.75 1.979319,-9.15181 3.626953,-14.226562 1.647635,-5.074754 2.740452,-10.028677 2.429687,-11.007813 -0.409849,-1.291319 1.192027,-3.351797 5.832032,-7.501953 3.518259,-3.146833 8.013834,-6.675694 9.990234,-7.841797 3.52628,-2.080558 4.70851,-5.113936 2.51953,-6.466797 -0.14768,-0.09127 -0.34901,-0.124184 -0.58789,-0.103516 z"
       id="path4180"
       inkscape:connector-curvature="0" />
    <path
       style="fill:#000000"
       d="m 286.48237,86.939453 c -1.70288,0.145543 -0.9363,2.860519 4.44726,28.560547 2.53467,12.1 6.18198,29.875 8.10547,39.5 1.92348,9.625 3.7308,18.2875 4.01563,19.25 0.44192,1.49335 -2.41981,1.70589 -27.10157,1.73438 l 0,0.60937 c 9.03765,0.002 17.04003,0.008 26.48438,0.008 4.6732,-3.2e-4 8.49686,-0.005 13.07227,-0.006 l 0,-0.68554 c -5.55182,-0.0585 -9.07227,-0.14043 -9.07227,-0.23052 0,-0.6393 -7.84915,-39.25229 -8.52344,-41.92969 l -0.69336,-2.75 18.28907,0 0,-2.35742 L 297.0351,128.5 293.31831,111.12109 C 291.05326,100.52845 289.81506,92.425117 290.14838,90.371094 290.65879,87.225774 290.511,87 287.93354,87 c -0.40867,0 -0.76992,-0.04437 -1.07812,-0.06055 -0.13484,-0.0071 -0.25953,-0.0097 -0.37305,0 z"
       id="path4175"
       inkscape:connector-curvature="0" />
    <path
       style="fill:#fefefe"
       d="m 24.5,174.97108 c 3.593759,-1.60563 37.802127,-7.91994 46,-8.49086 4.4,-0.30643 10.25,-0.1828 13,0.27474 l 5,0.83187 -7.5,2.37039 -7.5,2.37038 7.350283,1.2863 c 4.042656,0.70746 7.867656,1.49822 8.5,1.75725 C 89.982627,175.63017 75.2,175.84718 56.5,175.85337 c -20.782405,0.007 -33.222494,-0.33611 -32,-0.88229 z M 71.137248,162.12821 C 68.056085,159.24997 68,159.0314 68,149.90174 c 0,-16.92631 1.892575,-31.88438 4.637376,-36.65174 2.851105,-4.952 5.788238,-5.60475 7.5749,-1.68345 0.986739,2.16566 0.681079,4.0791 -1.956849,12.25 -1.719436,5.3259 -3.848342,14.35055 -4.730902,20.05479 -1.481606,9.57603 -1.478746,10.75041 0.03729,15.31478 0.903072,2.71889 1.432863,5.15253 1.177313,5.40808 -0.25555,0.25555 -1.876398,-0.85415 -3.60188,-2.46599 z M 81.666667,85.333333 C 81.3,84.966667 81,84.080862 81,83.364877 c 0,-1.388993 8.061319,-7.874709 16.090211,-12.945342 2.682702,-1.694256 5.707809,-3.831756 6.722459,-4.75 2.37773,-2.151818 3.18733,-2.10865 3.18733,0.16995 0,1.011717 -1.03906,2.312914 -2.30903,2.891548 -1.26996,0.578635 -6.448098,4.700867 -11.506965,9.160515 -9.096591,8.019109 -10.216439,8.742685 -11.517338,7.441785 z M 85,74.654988 c 0,-1.289757 0.864187,-3.127091 1.920415,-4.082965 1.834883,-1.660546 1.974427,-1.637029 3.133121,0.528009 1.049624,1.961242 0.910952,2.510306 -1.031199,4.082964 C 86.027927,77.607722 85,77.472787 85,74.654988 Z"
       id="path2997"
       inkscape:connector-curvature="0"
       sodipodi:nodetypes="ssscccscssssssssssssssssssssssss" />
    <path
       style="fill:#0000fe"
       d="m 71.03168,112.71016 c -0.01742,-0.43441 0.809042,-2.45941 1.836591,-4.5 1.027548,-2.04059 2.403045,-7.42865 3.05666,-11.973472 0.653614,-4.544822 1.668017,-9.639173 2.254228,-11.32078 l 1.065839,-3.057467 1.185993,2.32078 C 81.623836,86.513408 83.017135,86.830636 86.25,85.504098 88.698301,84.499489 88.516831,86.095837 85,96.5 c -1.65,4.88135 -3,10.21051 -3,11.84258 0,2.81142 -0.09612,2.88041 -1.828741,1.31241 -2.622994,-2.37378 -4.709779,-2.04994 -7.056172,1.09501 -1.12845,1.5125 -2.065983,2.39457 -2.083407,1.96016 z"
       id="path2993"
       inkscape:connector-curvature="0"
       sodipodi:nodetypes="sssscsssssss" />
    <path
       style="fill:#000000"
       d="m 521.59284,-49.934899 c -2.32159,0 -4.32602,2.5976 -3.01757,3.91016 0.73017,0.73244 0.72057,1.48965 -0.0312,2.69726 -0.79005,1.26902 -0.74557,2.03946 0.18164,3.16016 0.67453,0.81531 1.96502,1.48242 2.86718,1.48242 2.58384,0 4.30653,-2.62241 3.04883,-4.64258 -0.75181,-1.20761 -0.76141,-1.96482 -0.0312,-2.69726 1.30846,-1.31256 -0.69599,-3.91016 -3.01758,-3.91016 z m 9.24024,0.0703 c -0.81946,-0.0223 -1.66291,0.39967 -2.40235,1.41407 -1.4875,2.04064 -1.58717,5.47048 -0.23242,8.00976 1.41965,2.66094 4.8176,1.92209 5.93946,-1.29101 1.39923,-4.00753 -0.84632,-8.06587 -3.30469,-8.13282 z m -18.70899,0.0899 c -0.40966,-0.013 -0.97377,0.27667 -1.74609,0.77734 -0.93458,0.60586 -1.01318,0.91383 -0.23437,0.92383 0.77691,0.01 1.16796,1.58383 1.16796,4.70117 0,2.57812 0.42153,4.6875 0.93555,4.6875 0.51922,0 0.93359,-2.5 0.93359,-5.625 0,-3.94214 -0.15537,-5.43635 -1.05664,-5.46484 z m 26.40821,0 c -0.44736,0.0482 -0.8823,0.23275 -1.23828,0.58984 -0.54772,0.54943 -0.73191,1.69286 -0.40821,2.53906 0.7482,1.95584 3.74391,1.43341 4.15821,-0.72461 0.27896,-1.45306 -1.16964,-2.54891 -2.51172,-2.40429 z m -7.59375,0.77734 c 1.27882,0 2.1797,4.25998 1.48633,7.03125 -0.32254,1.28906 -0.9919,2.34375 -1.48633,2.34375 -1.27882,0 -2.17776,-4.25998 -1.48438,-7.03125 0.32253,-1.28906 0.98995,-2.34375 1.48438,-2.34375 z m -9.31641,0.22656 c 1.10798,0.0318 2.14421,1.33346 1.42188,2.50586 -0.34536,0.56056 -0.99784,1.01758 -1.45118,1.01758 -1.44354,0 -2.11944,-1.99827 -1.04101,-3.08008 0.32231,-0.32332 0.70098,-0.45397 1.07031,-0.44336 z m 17.13281,0.0977 c 0.085,0.0129 0.18695,0.15705 0.29883,0.4375 0.27005,0.67676 0.23633,1.48536 -0.0742,1.79688 -0.31055,0.31153 -0.53083,-0.24218 -0.49023,-1.23047 0.028,-0.68258 0.12396,-1.02543 0.26562,-1.00391 z m -17.10546,4.56055 c 1.11678,0.035 2.08224,1.49432 1.49804,3.02148 -0.30913,0.8081 -1.00841,1.46875 -1.55469,1.46875 -1.51386,0 -2.25488,-2.79997 -1.05859,-4 0.35386,-0.35496 0.74297,-0.5019 1.11524,-0.49023 z"
       id="path4208"
       inkscape:connector-curvature="0"
       sodipodi:nodetypes="scssssssssssssccsssscscscsssssscssscscccsssssss" />
    <path
       id="path4362"
       d="m 218.73966,57.92939 c -1.44546,-0.007 -1.50337,1.85109 0.30469,5.40625 2.50598,4.92748 13.92454,36.1915 14.66601,40.15625 0.67594,3.61426 -0.92856,8.3617 -3.10937,9.20117 -0.79753,0.30774 -1.54736,0.44377 -1.66602,0.30273 -0.51856,-0.61635 -4.18945,-19.28756 -4.18945,-21.30859 0,-2.88623 -2.52603,-5.66797 -5.14844,-5.66797 -0.86034,0 -1.35698,0.0258 -1.61328,1.04883 -0.10602,0.79293 0.20918,1.68247 0.88281,3.54297 0.88857,2.45413 2.53312,6.78133 2.625,7.02344 0.0684,-3.17355 0.17442,-6.07432 0.32617,-8.1543 0.0598,-0.81981 0.27671,-1.21084 0.54688,-1.27539 0.59437,-0.14202 1.44726,1.29592 1.44726,3.22851 0,4.05081 3.82605,21.12961 5.23829,23.38086 1.59943,2.54966 1.68416,6.07286 0.18164,7.58008 -1.33916,1.34334 -1.66194,1.35379 -3.78516,0.11328 -1.20316,-0.70297 -1.66051,-2.24357 -1.72852,-5.83007 -0.0508,-2.68143 -0.42196,-7.19727 -0.82617,-10.03321 -0.56291,-3.94949 -0.65579,-2.90728 -0.39843,4.45313 0.0699,2.00006 0.0666,3.72513 0.0312,5.24218 -0.73975,-1.12989 -1.57752,-1.73409 -2.5293,-2.1875 -1.04207,-0.49642 -3.53502,-0.78421 -6.43164,-0.8164 -3.43983,0.57414 -4.99644,3.06479 -4.35156,7.0957 0.31301,1.95659 0.75217,4.98136 0.9746,6.72266 0.47759,3.73894 1.08876,4.45862 4.51172,5.30664 1.63969,0.40622 2.57032,0.26061 2.57032,-0.40235 0,-0.57152 -0.59968,-1.03906 -1.33399,-1.03906 -1.62854,0 -4.45748,-2.69085 -3.85547,-3.66797 0.2391,-0.38809 1.72384,-9.9e-4 3.2793,-0.28711 1.60351,-0.29496 2.25597,-0.12453 3.0918,-0.78125 0.86101,-0.67651 1.47669,-1.7376 3.16797,-2.53711 1.76574,-0.85978 3.45791,1.57322 4.1621,1.66797 6.32314,0.91376 12.11233,-0.58283 16.31641,-6.67187 2.45515,-3.55598 2.73189,-4.68933 2.64649,-10.82617 -0.0886,-6.36291 -0.46124,-7.57903 -5.2129,-16.95313 -2.8153,-5.55407 -6.50059,-13.68555 -8.1875,-18.06836 -2.33205,-6.05902 -3.99432,-8.80929 -6.93554,-11.48047 -2.5809,-2.34393 -4.54373,-3.47882 -5.66797,-3.48437 z"
       style="fill:#000000"
       inkscape:connector-curvature="0" />
    <path
       id="path4355"
       d="m 222.33732,119.58759 c -0.0946,0.69278 -0.21505,1.11914 -0.36133,1.11914 -0.10884,0 0.13225,-0.34082 0.36133,-1.11914 z"
       style="fill:#000000"
       inkscape:connector-curvature="0" />
    <path
       id="path4396"
       d="m 225.68045,124.40175 c -1.17087,-0.88421 -1.1101,-0.96311 0.3688,-0.47885 3.77887,1.23736 7.09819,-5.6626 4.14782,-8.62219 -0.83142,-0.83402 -0.71207,-1.24007 0.50186,-1.70736 0.87599,-0.3372 2.21131,-1.81307 2.96738,-3.27972 0.88926,-1.72501 1.86681,-2.47719 2.76838,-2.13015 0.83625,0.3219 2.4844,-0.63475 4.12054,-2.39171 l 2.72684,-2.92822 0.63529,2.90151 c 1.37398,6.27526 -2.49739,15.30279 -7.55348,17.61369 -3.65005,1.66828 -9.13362,2.19335 -10.68343,1.023 z"
       style="fill:#0000fe"
       inkscape:connector-curvature="0" />
    <path
       sodipodi:nodetypes="ssssss"
       inkscape:connector-curvature="0"
       id="path4270"
       d="m 213.90303,122.20298 c -0.2771,-0.72436 -0.36904,-2.72827 -0.20432,-4.45313 0.23165,-2.42561 0.77591,-3.20399 2.4023,-3.4357 1.91116,-0.27228 6.86913,1.12722 6.86913,4.92959 0,2.95011 -5.2022,3.30592 -6.24463,3.70719 -2.05905,0.7926 -2.2528,0.74126 -2.82248,-0.74795 z"
       style="fill:#fefefe" />
    <path
       id="path4268"
       d="m 225.4997,122.3481 c -1.0573,-0.84138 -1.64602,-3.64074 -2.08758,-9.92624 -0.33824,-4.81491 -1.02181,-10.90625 -1.51904,-13.53631 -0.95838,-5.06931 -0.30891,-11.32315 1.08611,-10.45829 0.45765,0.28373 0.8321,1.63679 0.8321,3.00678 0,4.05081 3.82727,21.12983 5.23951,23.38108 1.59943,2.54966 1.68357,6.07264 0.18105,7.57986 -1.40978,1.41419 -1.90398,1.40798 -3.73215,-0.0469 z"
       style="fill:#fefefe"
       inkscape:connector-curvature="0" />
    <path
       id="path4262"
       d="m 235.65859,106.87935 c -0.2269,-0.38671 -0.7134,-2.10943 -1.08112,-3.82825 -0.88987,-4.15946 -12.26549,-35.12858 -14.56255,-39.64528 -0.99611,-1.95862 -1.81111,-3.78889 -1.81111,-4.06724 0,-1.36321 2.68534,-0.16674 5.73381,2.55473 2.49015,2.22302 4.29518,5.33953 6.75955,11.67076 1.8492,4.75082 5.47225,12.74484 8.05123,17.76448 2.57898,5.01964 4.68906,9.37062 4.68906,9.66885 0,0.29821 -1.23797,1.90186 -2.75106,3.56365 -2.72097,2.98839 -4.22717,3.68289 -5.02781,2.3183 z"
       style="fill:#fefefe"
       inkscape:connector-curvature="0" />
    <path
       id="path4366"
       d="m 391.33562,35.99652 c -0.30476,-0.058 -0.50318,0.13707 -0.64844,0.57422 -0.21571,0.64913 -1.03595,1.82645 -1.82227,2.61523 -2.08113,2.08763 -0.62502,2.89332 1.5918,0.88086 2.17542,-1.97488 2.22266,-1.7568 0.83789,3.75977 -0.86887,3.46138 -1.5346,4.29022 -4.13281,5.15039 -3.48844,1.15489 -9.10616,7.50764 -11.30274,12.78125 -0.79943,1.91927 -2.57202,4.58814 -3.93945,5.92969 -4.13335,4.05507 -12.46353,14.42876 -17.83789,22.21484 -2.78909,4.04067 -6.22886,8.61133 -7.64453,10.1582 -3.35884,3.67014 -6.89779,12.57648 -5.53906,13.93946 1.18391,1.18759 10.88663,-8.15246 26.65625,-25.65821 18.48291,-20.51775 20.29459,-22.32883 19.70312,-19.6875 -0.28865,1.28906 -0.80507,5.29688 -1.14844,8.90625 -0.39756,4.179 -1.13758,6.94296 -2.03906,7.60938 -1.25887,0.93065 -1.24366,1.41441 0.15039,4.36132 0.11471,0.24249 1.08067,1.75491 1.17937,2.06596 l 3.72893,-0.1845 c 0.0525,-0.73933 0.35103,-2.44806 0.40616,-2.81896 0.51866,-3.49004 1.78129,-11.96252 2.80468,-18.82812 1.02341,-6.86559 1.86133,-13.52519 1.86133,-14.79883 0,-1.99619 0.24789,-2.18133 1.80078,-1.34765 2.63358,1.41386 4.57757,0.28087 6.70703,-3.90625 2.47309,-4.86283 1.70188,-8.68521 -2.15429,-10.68555 -1.5593,-0.80886 -3.6343,-1.26216 -4.61133,-1.00586 -0.97704,0.2563 -2.47113,-0.23019 -3.32031,-1.08203 -0.57187,-0.57366 -0.98236,-0.88535 -1.28711,-0.94336 z"
       style="fill:#000000"
       inkscape:connector-curvature="0"
       sodipodi:nodetypes="ccsssssssssssscscccsssssssc" />
    <path
       id="path4392"
       d="m 378.31224,73.58966 c 0,-2.75915 -3.18388,-5.22539 -5.77415,-4.47265 -2.08139,0.60487 -2.06751,0.54148 0.3409,-1.55612 1.38087,-1.20267 3.14502,-3.76444 3.92032,-5.69281 1.5902,-3.95522 6.66515,-10.64926 8.65388,-11.41479 1.05245,-0.40512 1.11166,-0.12727 0.29792,1.39797 -0.80024,1.49993 -0.58241,2.80122 1.02726,6.13674 2.4049,4.9834 2.18387,5.67116 -4.02687,12.53016 -3.35866,3.70921 -4.43926,4.45688 -4.43926,3.0715 z"
       style="fill:#0000fe"
       inkscape:connector-curvature="0" />
    <path
       id="path4264"
       d="m 340.92906,113.22143 c 0,-1.95654 4.383,-10.90901 6.4428,-13.15971 1.41567,-1.54688 4.85592,-6.1185 7.64502,-10.15917 11.2169,-16.2504 17.94852,-22.39422 21.0285,-19.19229 3.51618,3.6554 0.0198,8.50394 -23.36292,32.39833 -9.17811,9.37893 -11.7534,11.59476 -11.7534,10.11284 z"
       style="fill:#fefefe"
       inkscape:connector-curvature="0" />
    <path
       id="path4250"
       d="m 383.99351,87.2714 c -0.0406,-0.84718 0.55705,-1.78316 1.32808,-2.07996 0.90376,-0.34789 1.40233,-1.79926 1.40315,-4.08468 7e-4,-1.94977 0.62712,-7.11241 1.39204,-11.47253 1.33969,-7.63636 1.31904,-8.07612 -0.56218,-11.97436 -1.84481,-3.82279 -1.86685,-4.17869 -0.39791,-6.42759 1.81934,-2.78533 3.25078,-2.57313 5.12419,0.7596 1.19963,2.13412 1.1187,3.91972 -0.71905,15.86234 -1.13897,7.40163 -2.0627,14.61766 -2.05275,16.03562 0.0148,2.1063 -0.39522,2.57813 -2.24045,2.57813 -1.24221,0 -2.47069,0.52734 -2.72996,1.17187 -0.29767,0.74002 -0.49858,0.60424 -0.54516,-0.36844 z"
       style="fill:#fefefe"
       inkscape:connector-curvature="0" />
    <path
       id="path4226"
       d="m 395.83561,52.64288 c -2.08952,-1.22084 -2.07297,-2.92527 0.0539,-5.56013 1.37391,-1.702 2.24433,-1.97069 4.65998,-1.43847 l 2.97048,0.65447 -1.51934,2.97524 c -2.21253,4.33265 -3.40256,4.98293 -6.16508,3.36889 z"
       style="fill:#fefefe"
       inkscape:connector-curvature="0" />
    <path
       id="path4368"
       d="m 110.97467,34.12984 -4.89258,2.48828 c -2.69085,1.36782 -4.72555,2.99285 -4.52148,3.61133 0.21161,0.6413 3.14979,1.39634 6.83789,1.75781 3.55674,0.34859 9.41163,1.68775 13.00976,2.97656 3.59813,1.28881 7.17234,2.33502 7.94336,2.32422 4.00773,-0.056 -17.88578,-6.33854 -22.19531,-6.36914 -2.6986,-0.0192 -4.90625,-0.38501 -4.90625,-0.8125 0,-0.42748 2.02951,-1.73026 4.51172,-2.89649 l 4.51367,-2.12109 11.14063,2.95703 c 15.30381,4.06106 15.14948,4.02597 13.47851,3.03125 -0.77102,-0.45899 -6.693,-2.20979 -13.16015,-3.89062 l -11.75977,-3.05664 z"
       style="fill:#000000"
       inkscape:connector-curvature="0" />
    <path
       sodipodi:nodetypes="csssssssssccscccssssccccsssc"
       inkscape:connector-curvature="0"
       id="path4364"
       d="m 139.01569,42.2978 c -0.67566,0.0661 0.24286,0.54195 3.3125,1.3711 6.1841,1.67041 11.00404,7.56728 7.33789,8.97851 -0.64968,0.25008 -4.94249,-0.8203 -9.53907,-2.3789 -4.59657,-1.5586 -7.95446,-2.44993 -7.46289,-1.98242 0.49158,0.46751 4.94084,2.13774 9.88672,3.71289 4.94588,1.57514 12.70607,4.78157 17.2461,7.125 4.54002,2.34343 9.01062,4.25976 9.93359,4.25976 0.92297,0 1.67773,0.33959 1.67773,0.75391 0,2.53115 -6.77911,20.3081 -8.11914,21.29101 -1.43725,1.05422 -1.15966,1.54856 -0.23607,2.47215 0.56851,0.55353 1.94,0.34391 3.48487,0.12517 2.24292,-0.19608 2.85578,-2.22192 3.46344,-4.06699 1.19994,-3.64351 2.43514,-6.90788 4.4987,-11.3565 l 4.20508,-9.06445 3.75781,0.50586 c 3.16845,0.42631 4.1338,0.12842 6.16406,-1.90821 3.62202,-3.63335 3.25174,-7.5518 -1.09765,-11.62304 -1.92757,-1.80429 -4.85767,-3.86561 -6.51172,-4.58008 -3.54774,-1.53244 -4.00195,-1.58109 -4.00195,-0.43359 0,0.47563 1.53581,1.37297 3.41211,1.99414 l 3.41015,1.1289 -2.94336,1.24219 c -1.61929,0.68299 -2.95198,1.57863 -2.95898,1.99024 -0.008,0.4116 -0.36663,1.30564 -0.79688,1.98632 -0.61438,0.97199 -1.54567,0.71788 -4.34179,-1.18554 -3.43294,-2.33694 -14.93809,-6.21447 -27.52344,-9.27539 -3.3118,-0.80547 -5.58216,-1.1481 -6.25781,-1.08204 z"
       style="fill:#000000" />
    <path
       id="path4390"
       d="m 159.53508,58.06625 c -8.08292,-4.12873 -8.54727,-4.52641 -8.07151,-6.91263 0.38552,-1.93362 -0.008,-2.8922 -1.66548,-4.05676 l -2.17028,-1.52487 2.06593,0 c 3.06174,0 18.89558,5.30035 22.52728,7.54097 l 3.14928,1.94299 -1.98106,2.11531 c -1.08957,1.16343 -1.98105,2.82642 -1.98105,3.69553 0,2.52222 -2.69887,1.88563 -11.87311,-2.80054 z"
       style="fill:#0000fe"
       inkscape:connector-curvature="0" />
    <path
       id="path4449"
       d="m 128.50299,49.21376 c 1.67543,-2.12202 5.1555,-5.5307 7.73349,-7.57485 15.81821,-12.54265 35.5394,-14.40534 52.6493,-4.9728 3.60231,1.98592 5.59801,2.67904 5.27385,1.83165 -0.28683,-0.7498 -0.092,-1.36327 0.4329,-1.36327 0.95197,0 7.10105,9.30747 6.52851,9.8818 -0.55485,0.5566 -11.02126,-2.68019 -11.02126,-3.40837 0,-0.39491 0.94627,-0.86095 2.10281,-1.03563 1.84978,-0.27939 1.59949,-0.64314 -2.08007,-3.02302 -17.78679,-11.50421 -40.37423,-8.62568 -56.4551,7.19459 -7.20682,7.09004 -9.78624,8.32365 -5.16443,2.4699 z"
       style="fill:#fe0000"
       inkscape:connector-curvature="0" />
    <path
       id="path4244"
       d="m 162.99698,86.98456 c 0,-0.49471 0.58593,-1.12501 1.30206,-1.40068 1.58916,-0.61172 8.04373,-19.6511 8.04373,-23.72698 0,-3.32933 1.83997,-5.34706 4.08715,-4.48203 2.48776,0.95762 1.78084,5.18698 -2.35369,14.08164 -2.13071,4.58383 -4.3824,10.02173 -5.00377,12.08423 -0.90304,2.99752 -1.62594,3.80952 -3.60261,4.04664 -1.36008,0.16316 -2.47287,-0.10811 -2.47287,-0.60282 z"
       style="fill:#fefefe"
       inkscape:connector-curvature="0" />
    <path
       id="path4228"
       d="m 180.05305,62.7636 c -0.64252,-0.26007 -1.16822,-1.69529 -1.16822,-3.18937 0,-2.13414 0.51394,-2.84591 2.39727,-3.32007 1.85509,-0.46706 3.02718,0.002 5.18241,2.07312 2.57314,2.47293 2.66163,2.76727 1.16242,3.86694 -1.61739,1.18636 -5.35535,1.46738 -7.57388,0.56938 z"
       style="fill:#fefefe"
       inkscape:connector-curvature="0" />
    <path
       id="path4224"
       d="m 140.56707,50.53667 c -3.85514,-1.32488 -7.19732,-2.57484 -7.42707,-2.77769 -0.22975,-0.20285 0.68004,-1.47001 2.02175,-2.81591 2.30759,-2.3148 2.66877,-2.3892 6.67996,-1.37602 4.90654,1.23935 9.30881,4.89017 8.84018,7.33121 -0.4638,2.41579 -2.21539,2.35318 -10.11482,-0.36159 z"
       style="fill:#fefefe"
       inkscape:connector-curvature="0" />
    <path
       id="path4222"
       d="m 120.00632,43.64585 c -4.57222,-1.54315 -10.02645,-2.69815 -12.85046,-2.72124 -2.6986,-0.0221 -4.90655,-0.38988 -4.90655,-0.81737 0,-0.42748 2.02442,-1.72839 4.49871,-2.89091 l 4.4987,-2.11366 11.62279,3.05435 c 6.39254,1.67989 11.79969,3.19341 12.01589,3.36336 0.80639,0.6339 -4.04701,4.98558 -5.46255,4.89784 -0.80993,-0.0502 -5.04737,-1.29776 -9.41653,-2.77237 z"
       style="fill:#fefefe"
       inkscape:connector-curvature="0" />
    <path
       id="path4378"
       d="m 481.77952,-28.88707 c -0.7462,-0.0521 -1.26858,1.00614 -1.4336,3.23828 -5.22115,70.62514 -5.51427,78.01653 -3.20703,80.92578 1.64733,2.07714 2.37725,7.66064 2.28125,17.45703 -0.0885,9.02663 -0.26053,9.91137 -2.2207,11.39454 -1.89412,1.43321 -1.97777,1.78812 -0.76953,3.24804 0.17861,0.21582 1.20223,0.68313 1.34046,1.45508 l 4.53649,0 c 0.0931,-0.59267 0.19114,-1.00404 0.29883,-1.13476 0.59572,-0.72324 1.38575,-5.21679 1.75586,-9.98633 l 0.67383,-8.67188 3.47265,0 c 4.70779,0 7.00295,-2.56076 6.28321,-7.00976 -0.68101,-4.20969 1.70688,-4.65667 2.61914,-0.49024 0.33869,1.54688 1.00338,2.8125 1.47656,2.8125 1.21672,0 1.07131,-1.42755 -0.53711,-5.28906 -0.97376,-2.33781 -1.82452,-3.18695 -2.8125,-2.80664 -0.77945,0.30039 -2.62503,0.30327 -4.09961,0.008 -2.6132,-0.52428 -2.69916,-0.73138 -3.38477,-8.17773 -0.38686,-4.20185 -0.62695,-20.71875 -0.53515,-36.70313 0.16375,-28.50866 0.12505,-29.1697 -2.03516,-34.6875 -1.41408,-3.61196 -2.74373,-5.51509 -3.70312,-5.58203 z"
       style="fill:#000000"
       inkscape:connector-curvature="0"
       sodipodi:nodetypes="cssssscccccsssssccssscc" />
    <path
       id="path4386"
       d="m 484.9964,55.89048 c -1.24506,-1.99988 -4.37532,-2.48275 -5.39247,-0.83182 -2.17572,3.53138 -3.82861,-7.17492 -2.80289,-18.15514 0.47052,-5.03673 1.17901,-7.59855 2.49263,-9.01296 2.23259,-2.40389 4.44267,-2.54793 5.14756,-0.33546 0.28749,0.90234 0.95474,2.54961 1.48278,3.6606 0.52802,1.11099 0.68191,2.47145 0.34195,3.02324 -0.33996,0.55179 -0.113,5.36222 0.50435,10.68984 1.20141,10.36774 0.51128,14.63231 -1.77391,10.9617 z"
       style="fill:#0000fe"
       inkscape:connector-curvature="0" />
    <path
       id="path4248"
       d="m 476.38323,86.06473 c 0,-0.17516 0.87135,-1.02624 1.93632,-1.8913 1.73035,-1.40554 1.94066,-2.61814 1.97722,-11.40027 0.0225,-5.4051 -0.11286,-11.51495 -0.3008,-13.57745 -0.29777,-3.26772 -0.0794,-3.78746 1.69786,-4.04126 3.22065,-0.45994 4.23061,2.52523 3.18375,9.41031 -0.49181,3.23452 -1.17326,9.46689 -1.51432,13.8497 l -0.62012,7.96875 -3.17996,0 c -1.74897,0 -3.17995,-0.14332 -3.17995,-0.31848 z"
       style="fill:#fefefe"
       inkscape:connector-curvature="0" />
    <path
       id="path4236"
       d="m 485.75874,64.58634 c 0.0279,-3.29457 0.11601,-3.4012 1.40187,-1.69582 1.77745,2.35733 1.76117,5.21144 -0.0297,5.21144 -1.00217,0 -1.39339,-1.00237 -1.37215,-3.51562 z"
       style="fill:#fefefe"
       inkscape:connector-curvature="0" />
    <path
       id="path4216"
       d="m 485.94618,29.14883 c -0.47444,-4.19885 -3.75265,-5.31283 -6.75921,-2.29687 -1.02804,1.03125 -1.86861,1.76953 -1.86793,1.64062 6.8e-4,-0.1289 0.83713,-10.99218 1.8588,-24.14062 1.02167,-13.14844 1.86223,-25.91016 1.86793,-28.35938 0.006,-2.44921 0.37456,-4.45312 0.81971,-4.45312 0.44514,0 1.71401,2.48886 2.81971,5.53081 1.89399,5.2107 1.99495,6.93344 1.74425,29.76562 -0.14636,13.32915 -0.36382,23.36998 -0.48326,22.31294 z"
       style="fill:#fefefe"
       inkscape:connector-curvature="0" />
    <path
       id="path4380"
       d="m 575.77277,-34.52379 c -0.88125,0.13137 -2.05647,1.941 -3.39453,5.40625 -1.98978,5.15303 -2.11033,6.91632 -2.31445,33.82031 -0.11845,15.61149 0.0823,28.86853 0.44727,29.46094 0.36499,0.5924 0.15758,5.44552 -0.46094,10.78321 -1.06263,9.17011 -1.26348,9.76719 -3.64844,10.82617 -1.38821,0.6164 -3.21506,0.8528 -4.06055,0.52734 -1.13618,-0.43736 -1.90124,0.28322 -2.93359,2.76172 -1.60844,3.86151 -1.75383,5.28906 -0.53711,5.28906 0.47316,0 1.13786,-1.26562 1.47656,-2.8125 0.91224,-4.16643 3.30015,-3.71945 2.61914,0.49024 -0.7188,4.44321 1.57557,7.00976 6.26758,7.00976 l 3.45899,0 0.57617,6.79688 c 0.52835,6.23529 0.40703,6.92564 -1.45508,8.34961 -1.80586,1.38094 -1.88003,1.732 -0.67383,3.18945 0.17861,0.21582 1.13699,0.68508 1.27523,1.45703 l 4.62321,0 c 0.11488,-0.65878 0.24029,-1.08022 0.38086,-1.25 0.8405,-1.0152 1.13251,-4.80675 1.00195,-13.03516 -0.17903,-11.28375 0.46555,-17.08392 2.13477,-19.19531 2.29984,-2.90907 2.05663,-12.63081 -1.54492,-61.78125 -0.75566,-10.3125 -1.4786,-20.85937 -1.60743,-23.4375 -0.16201,-3.24163 -0.7496,-4.78762 -1.63086,-4.65625 z"
       style="fill:#000000"
       inkscape:connector-curvature="0"
       sodipodi:nodetypes="ssscssssssssccsccccsssss" />
    <path
       id="path4384"
       d="m 570.56782,55.54304 c -0.34623,-1.38381 -0.12968,-6.49944 0.48123,-11.36806 0.6109,-4.86862 0.82139,-9.32167 0.46775,-9.89567 -0.35365,-0.57399 -0.21096,-1.95262 0.31707,-3.06361 0.52804,-1.11099 1.19529,-2.75826 1.48278,-3.6606 0.70488,-2.21247 2.91497,-2.06843 5.14756,0.33546 1.31361,1.41441 2.02211,3.97623 2.49262,9.01296 1.02572,10.98022 -0.62717,21.68652 -2.80288,18.15514 -1.04023,-1.68839 -4.05865,-1.14995 -5.55329,0.9906 l -1.40332,2.00981 -0.62952,-2.51603 z"
       style="fill:#0000fe"
       inkscape:connector-curvature="0" />
    <path
       id="path4246"
       d="m 571.09427,85.97763 c 0,-0.48088 0.87056,-1.1515 1.93458,-1.49026 1.78322,-0.56773 1.88902,-1.10448 1.35226,-6.86004 -0.32028,-3.43427 -0.98684,-9.10774 -1.48125,-12.60772 -1.04239,-7.37914 -0.0957,-10.33072 3.16419,-9.86517 1.77759,0.25384 1.99547,0.77295 1.69625,4.04126 -0.18882,2.0625 -0.28181,9.12891 -0.20664,15.70313 l 0.13666,11.95312 -3.29803,0 c -1.81391,0 -3.29802,-0.39345 -3.29802,-0.87432 z"
       style="fill:#fefefe"
       inkscape:connector-curvature="0" />
    <path
       id="path4234"
       d="m 569.22511,66.40614 c 0,-0.9327 0.61747,-2.51473 1.37215,-3.51562 1.28586,-1.70538 1.37401,-1.59875 1.40187,1.69581 0.0212,2.51325 -0.36998,3.51563 -1.37215,3.51563 -0.77103,0 -1.40187,-0.76312 -1.40187,-1.69582 z"
       style="fill:#fefefe"
       inkscape:connector-curvature="0" />
    <path
       id="path4214"
       d="m 571.11173,30.13321 c -0.10964,-0.51563 -0.13102,-12.75 -0.0475,-27.1875 0.13858,-23.95157 0.32117,-26.722 2.08534,-31.64063 1.0634,-2.96484 2.29767,-5.39062 2.74281,-5.39062 0.44515,0 0.80936,2.42998 0.80936,5.39995 0,2.96997 0.59956,13.20044 1.33234,22.73437 0.7328,9.53394 1.60817,21.27113 1.94528,26.08266 l 0.61293,8.74823 -1.94528,-1.95136 c -3.1024,-3.1121 -5.77417,-2.23113 -6.87648,2.2674 -0.25269,1.03125 -0.54916,1.45312 -0.65881,0.9375 z"
       style="fill:#fefefe"
       inkscape:connector-curvature="0" />
    <path
       inkscape:connector-curvature="0"
       id="path4522"
       d="m 164.48237,86.939453 c -1.70288,0.145543 -0.9363,2.860519 4.44726,28.560547 2.53467,12.1 6.18198,29.875 8.10547,39.5 1.92348,9.625 3.7308,18.2875 4.01563,19.25 0.44192,1.49335 -2.41981,1.70589 -27.10157,1.73438 l 0,0.60937 c 9.03765,0.002 17.04003,0.008 26.48438,0.008 4.6732,-3.2e-4 8.49686,-0.005 13.07227,-0.006 l 0,-0.68554 c -5.55182,-0.0585 -9.07227,-0.14043 -9.07227,-0.23052 0,-0.6393 -7.84915,-39.25229 -8.52344,-41.92969 l -0.69336,-2.75 18.28907,0 0,-2.35742 L 175.0351,128.5 171.31831,111.12109 C 169.05326,100.52845 167.81506,92.425117 168.14838,90.371094 168.65879,87.225774 168.511,87 165.93354,87 c -0.40867,0 -0.76992,-0.04437 -1.07812,-0.06055 -0.13484,-0.0071 -0.25953,-0.0097 -0.37305,0 z"
       style="fill:#000000" />
    <path
       style="fill:#000000"
       d="m 218.48237,86.939453 c -1.70288,0.145543 -0.9363,2.860519 4.44726,28.560547 2.53467,12.1 6.18198,29.875 8.10547,39.5 1.92348,9.625 3.7308,18.2875 4.01563,19.25 0.44192,1.49335 -2.41981,1.70589 -27.10157,1.73438 l 0,0.60937 c 9.03765,0.002 17.04003,0.008 26.48438,0.008 4.6732,-3.2e-4 8.49686,-0.005 13.07227,-0.006 l 0,-0.68554 c -5.55182,-0.0585 -9.07227,-0.14043 -9.07227,-0.23052 0,-0.6393 -7.84915,-39.25229 -8.52344,-41.92969 l -0.69336,-2.75 18.28907,0 0,-2.35742 L 229.0351,128.5 225.31831,111.12109 C 223.05326,100.52845 221.81506,92.425117 222.14838,90.371094 222.65879,87.225774 222.511,87 219.93354,87 c -0.40867,0 -0.76992,-0.04437 -1.07812,-0.06055 -0.13484,-0.0071 -0.25953,-0.0097 -0.37305,0 z"
       id="path4524"
       inkscape:connector-curvature="0" />
    <path
       inkscape:connector-curvature="0"
       id="path4526"
       d="m 385.62136,86.939453 c -1.70288,0.145543 -0.9363,2.860519 4.44726,28.560547 2.53467,12.1 6.18198,29.875 8.10547,39.5 1.92348,9.625 3.7308,18.2875 4.01563,19.25 0.44192,1.49335 -2.41981,1.70589 -27.10157,1.73438 l 0,0.60937 c 9.03765,0.002 17.04003,0.008 26.48438,0.008 4.6732,-3.2e-4 8.49686,-0.005 13.07227,-0.006 l 0,-0.68554 c -5.55182,-0.0585 -9.07227,-0.14043 -9.07227,-0.23052 0,-0.6393 -7.84915,-39.25229 -8.52344,-41.92969 l -0.69336,-2.75 18.28907,0 0,-2.35742 L 396.17409,128.5 392.4573,111.12109 C 390.19225,100.52845 388.95405,92.425117 389.28737,90.371094 389.79778,87.225774 389.64999,87 387.07253,87 c -0.40867,0 -0.76992,-0.04437 -1.07812,-0.06055 -0.13484,-0.0071 -0.25953,-0.0097 -0.37305,0 z"
       style="fill:#000000" />
    <path
       style="fill:#000000"
       d="m 432.06678,86.939453 c -1.70288,0.145543 -0.9363,2.860519 4.44726,28.560547 2.53467,12.1 6.18198,29.875 8.10547,39.5 1.92348,9.625 3.7308,18.2875 4.01563,19.25 0.44192,1.49335 -2.41981,1.70589 -27.10157,1.73438 l 0,0.60937 c 9.03765,0.002 17.04003,0.008 26.48438,0.008 4.6732,-3.2e-4 8.49686,-0.005 13.07227,-0.006 l 0,-0.68554 c -5.55182,-0.0585 -9.07227,-0.14043 -9.07227,-0.23052 0,-0.6393 -7.84915,-39.25229 -8.52344,-41.92969 l -0.69336,-2.75 18.28907,0 0,-2.35742 L 442.61951,128.5 438.90272,111.12109 C 436.63767,100.52845 435.39947,92.425117 435.73279,90.371094 436.2432,87.225774 436.09541,87 433.51795,87 c -0.40867,0 -0.76992,-0.04437 -1.07812,-0.06055 -0.13484,-0.0071 -0.25953,-0.0097 -0.37305,0 z"
       id="path4528"
       inkscape:connector-curvature="0" />
    <path
       inkscape:connector-curvature="0"
       id="path4530"
       d="m 478.48237,86.939453 c -1.70288,0.145543 -0.9363,2.860519 4.44726,28.560547 2.53467,12.1 6.18198,29.875 8.10547,39.5 1.92348,9.625 3.7308,18.2875 4.01563,19.25 0.44192,1.49335 -2.41981,1.70589 -27.10157,1.73438 l 0,0.60937 c 9.03765,0.002 17.04003,0.008 26.48438,0.008 4.6732,-3.2e-4 8.49686,-0.005 13.07227,-0.006 l 0,-0.68554 c -5.55182,-0.0585 -9.07227,-0.14043 -9.07227,-0.23052 0,-0.6393 -7.84915,-39.25229 -8.52344,-41.92969 l -0.69336,-2.75 18.28907,0 0,-2.35742 L 489.0351,128.5 485.31831,111.12109 C 483.05326,100.52845 481.81506,92.425117 482.14838,90.371094 482.65879,87.225774 482.511,87 479.93354,87 c -0.40867,0 -0.76992,-0.04437 -1.07812,-0.06055 -0.13484,-0.0071 -0.25953,-0.0097 -0.37305,0 z"
       style="fill:#000000" />
    <path
       style="fill:#000000"
       d="m 524.48237,86.939453 c -1.70288,0.145543 -0.9363,2.860519 4.44726,28.560547 2.53467,12.1 6.18198,29.875 8.10547,39.5 1.92348,9.625 3.7308,18.2875 4.01563,19.25 0.44192,1.49335 -2.41981,1.70589 -27.10157,1.73438 l 0,0.60937 c 9.03765,0.002 17.04003,0.008 26.48438,0.008 4.6732,-3.2e-4 8.49686,-0.005 13.07227,-0.006 l 0,-0.68554 c -5.55182,-0.0585 -9.07227,-0.14043 -9.07227,-0.23052 0,-0.6393 -7.84915,-39.25229 -8.52344,-41.92969 l -0.69336,-2.75 18.28907,0 0,-2.35742 L 535.0351,128.5 531.31831,111.12109 C 529.05326,100.52845 527.81506,92.425117 528.14838,90.371094 528.65879,87.225774 528.511,87 525.93354,87 c -0.40867,0 -0.76992,-0.04437 -1.07812,-0.06055 -0.13484,-0.0071 -0.25953,-0.0097 -0.37305,0 z"
       id="path4532"
       inkscape:connector-curvature="0" />
    <path
       id="path4451"
       d="m 222.4925,135.63555 c -1.33074,-1.58643 -2.41953,-3.23898 -2.41953,-3.67231 0,-0.96534 9.3957,-3.08069 10.18164,-2.2923 0.3097,0.31066 -0.27738,1.21252 -1.3046,2.00413 -1.72915,1.33252 -1.4785,1.40238 3.37908,0.94174 6.73413,-0.63859 14.24478,-3.88985 17.24312,-7.46431 1.29431,-1.543 2.62267,-2.53523 2.95193,-2.20495 1.04499,1.04827 -5.65123,7.17386 -10.02126,9.16729 -2.31308,1.05513 -7.07015,2.14272 -10.57126,2.41686 -4.4887,0.35146 -6.07321,0.7918 -5.37383,1.49336 1.38214,1.38646 1.23687,2.49492 -0.32698,2.49492 -0.72532,0 -2.40757,-1.298 -3.73831,-2.88443 z"
       style="fill:#fe0000"
       inkscape:connector-curvature="0" />
    <path
       id="path4370"
       d="m 383.89302,12.10476 c -0.61729,0.029 -1.08882,0.18944 -1.39063,0.49219 -1.50876,1.51347 -0.47523,2.57968 7.9043,8.1543 15.98343,10.63324 36.82396,28.85227 44.76367,39.13281 l 2.53125,3.2793 -2.86133,10.69531 c -1.57457,5.88277 -3.26909,11.19533 -3.76367,11.80469 -0.38997,0.4805 0.26013,3.39262 0.42356,4.64381 l 4.43499,-1.29152 c 0.69274,-4.31944 2.15283,-8.65577 3.70981,-13.83667 2.96728,-9.87283 2.72054,-9.36536 3.95703,-8.125 0.59997,0.60185 3.09572,1.09375 5.54492,1.09375 3.5772,0 4.66005,-0.38974 5.50977,-1.98242 1.0443,-1.95738 0.85307,-5.41579 -0.47266,-8.51563 -0.58519,-1.36824 -0.1262,-1.56576 3.27149,-1.40624 2.53136,0.11885 4.10632,-0.25069 4.3789,-1.02735 0.31004,-0.8834 -0.23822,-1.04516 -2.01562,-0.59765 -1.45001,0.36504 -3.00947,0.13955 -3.8457,-0.55665 -1.13865,-0.94794 -1.71628,-0.89387 -3.0254,0.28516 -0.88989,0.80146 -2.87248,1.59748 -4.40625,1.76953 -2.43771,0.27344 -3.02672,-0.15578 -4.67382,-3.41992 -2.43408,-4.82378 -15.46827,-15.45586 -28.98633,-23.64258 -5.65421,-3.42426 -13.25097,-8.22187 -16.88086,-10.66211 -6.03535,-4.05732 -11.43251,-6.41258 -14.10742,-6.28711 z"
       style="fill:#000000"
       inkscape:connector-curvature="0"
       sodipodi:nodetypes="csscccccccssscssccsssssc" />
    <path
       id="path4388"
       d="m 433.76617,57.26404 c -1.28247,-2.00574 -4.03543,-5.29181 -6.11769,-7.30239 l -3.78593,-3.6556 2.28575,-1.80359 c 1.76536,-1.39297 2.14972,-2.34726 1.68825,-4.19165 -0.52284,-2.0897 0.29683,-1.66072 6.56056,3.43352 8.58426,6.98149 12.88239,13.75481 7.89879,12.4475 -1.47839,-0.38781 -2.58773,0.17718 -4.11134,2.09394 l -2.08663,2.62506 -2.33176,-3.64679 z"
       style="fill:#0000fe"
       inkscape:connector-curvature="0" />
    <path
       id="path4240"
       d="m 431.95977,85.7266 c 1.39542,-1.71743 6.72111,-22.19655 6.1563,-23.67304 -0.7271,-1.90069 1.36833,-5.15508 3.31924,-5.15508 4.07463,0 4.63267,4.77293 1.04131,8.90625 -0.89603,1.03125 -2.84536,6.19763 -4.33183,11.48084 -2.45313,8.71884 -2.90743,9.60617 -4.91993,9.60938 -1.65876,0.003 -1.97741,-0.29165 -1.26509,-1.16835 z"
       style="fill:#fefefe"
       inkscape:connector-curvature="0" />
    <path
       id="path4232"
       d="m 444.1087,66.68592 c -0.6935,-0.69567 1.98833,-6.03744 3.0311,-6.03744 1.06515,0 3.72286,3.82989 3.72286,5.36485 0,1.18792 -5.67668,1.75323 -6.75396,0.67259 z"
       style="fill:#fefefe"
       inkscape:connector-curvature="0" />
    <path
       id="path4220"
       d="m 418.38871,41.53677 c -6.5724,-5.94809 -20.31246,-16.60852 -28.04007,-21.75532 -7.33308,-4.88402 -9.24685,-6.94547 -6.44787,-6.94547 2.8654,0 8.10098,2.54012 16.49013,8.00045 4.88563,3.17996 12.63823,8.05966 17.22799,10.84377 6.56429,3.98185 8.50162,5.65026 9.07891,7.81865 1.54295,5.79556 -2.94169,6.89549 -8.30909,2.03792 z"
       style="fill:#fefefe"
       inkscape:connector-curvature="0" />
    <path
       id="path3410"
       d="m 543.00805,13.97739 c -1.92757,-0.7933 -3.4743,-1.70152 -3.43719,-2.01827 0.0371,-0.31675 1.52437,-1.79103 3.30504,-3.27617 3.25263,-2.71284 5.39615,-2.80353 3.18829,-0.1349 -1.63462,1.97575 0.68489,1.9556 3.51161,-0.0305 2.37346,-1.66762 2.70242,-4.35292 0.73402,-5.99165 -2.38835,-1.98835 -19.41925,-3.31191 -27.13422,-2.10875 -12.45207,1.94194 -17.54425,5.34862 -15.87603,10.62114 0.30474,0.96315 0.11317,1.75118 -0.42569,1.75118 -1.3031,0 -2.27012,-4.07367 -1.52559,-6.42677 1.30461,-4.12333 14.36371,-8.57323 25.15981,-8.57323 8.07277,0 19.58537,1.88663 21.37846,3.5034 3.15439,2.84423 1.61848,7.68705 -3.05366,9.62836 -2.02923,0.84316 -2.59726,1.49653 -1.90487,2.19108 1.14256,1.14613 1.30752,2.53137 0.28563,2.39855 -0.38551,-0.0501 -2.27804,-0.74017 -4.20561,-1.53346 z"
       style="fill:#fe0000"
       inkscape:connector-curvature="0" />
    <path
       id="path4376"
       d="m 523.64706,-27.52379 c -3.31626,0 -4.06818,3.48382 -3.32618,15.39649 0.37188,5.97011 0.88557,10.85351 1.14258,10.85351 0.25701,0 0.16959,-4.79197 -0.19531,-10.65039 -0.72794,-11.6866 -0.26073,-14.66211 2.30273,-14.66211 2.84315,0 7.37096,14.10039 7.50196,23.35938 0.0103,0.7305 0.25734,1.08927 0.54883,0.79687 1.0773,-1.08066 -1.50048,-14.80903 -3.73047,-19.86719 -1.72973,-3.92345 -2.78731,-5.22656 -4.24414,-5.22656 z"
       style="fill:#000000"
       inkscape:connector-curvature="0" />
    <path
       id="path4374"
       d="m 523.11385,-21.48082 c -0.0484,0.0246 -0.0423,0.34375 0.0293,0.98828 0.22928,2.0625 0.74587,7.125 1.14649,11.25 0.64431,6.63475 0.75649,6.95922 0.9746,2.8125 0.13561,-2.57813 -0.37906,-7.64063 -1.14453,-11.25 -0.52626,-2.48145 -0.89937,-3.85479 -1.00586,-3.80078 z"
       style="fill:#000000"
       inkscape:connector-curvature="0" />
    <path
       id="path4372"
       d="m 531.52206,-0.09801 c -0.0223,-0.007 -0.0439,-0.001 -0.0625,0.0176 -0.22286,0.22356 0.19215,3.10586 0.92187,6.4043 1.71027,7.73065 3.78172,24.19084 3.12695,24.84765 -0.92835,0.93126 -5.87095,-2.25797 -6.93554,-4.4746 -0.57832,-1.20417 -1.5633,-7.79482 -2.18946,-14.64649 -0.62612,-6.85167 -1.3376,-12.25885 -1.58007,-12.01562 -0.24247,0.24323 0.0903,5.70864 0.74023,12.14648 1.0442,10.34364 1.01106,12.06091 -0.29101,14.75781 l -1.47461,3.05274 -0.63086,-4.22461 c -0.34724,-2.32281 -0.95258,-9.03948 -1.34571,-14.92774 -0.52816,-7.91076 -0.75,-9.13013 -0.85156,-4.66797 -0.0756,3.32135 0.34002,10.78042 0.92578,16.57618 0.9111,9.01494 0.8415,11.77336 -0.49219,19.08593 -0.85741,4.70129 -1.28445,8.99568 -0.94726,9.54297 0.33719,0.54727 0.71403,8.32644 0.83789,17.28711 0.16886,12.21572 0.54945,16.68183 1.51758,17.85156 0.27845,0.33643 1.00047,2.2885 1.1837,4.61729 l 4.00266,-0.47837 c 0.0732,-0.16028 0.73552,-0.64644 0.81754,-0.76392 1.32365,-1.89567 1.28657,-2.28073 -0.45898,-4.66211 -1.75657,-2.39638 -1.83187,-3.20714 -0.98242,-10.56445 0.50603,-4.38281 0.92373,-8.18183 0.92773,-8.44336 0.004,-0.26152 1.87276,-0.32656 4.1543,-0.14453 3.98595,0.318 4.20445,0.49466 5.57226,4.52149 0.78292,2.30494 1.1876,5.37782 0.89844,6.82812 -0.66625,3.34168 1.06576,4.51441 3.45899,2.3418 2.30629,-2.09369 2.28496,-4.76224 -0.084,-10.79102 -1.29393,-3.29324 -1.70328,-5.83014 -1.29492,-8.01367 0.36642,-1.95929 0.16398,-3.71795 -0.52344,-4.54883 -1.15343,-1.39414 -0.59447,-3.3125 0.96485,-3.3125 0.48368,0 0.8789,0.63281 0.8789,1.40625 0,0.77344 0.46541,1.40625 1.03516,1.40625 0.6632,0 0.80526,-0.92683 0.39258,-2.57617 -0.85,-3.39732 -0.91149,-3.4286 -3.44922,-1.77734 -1.86108,1.21098 -2.44055,1.23069 -3.91406,0.13672 -0.951,-0.70606 -1.46078,-1.71966 -1.13282,-2.25196 0.32795,-0.53229 -0.0731,-3.27472 -0.89062,-6.0957 -1.43391,-4.94786 -1.41438,-5.27037 0.54101,-9.11524 1.91473,-3.76491 1.96798,-4.45548 0.94727,-12.48046 C 534.63194,12.28313 532.21389,0.11 531.52205,-0.09799 Z"
       style="fill:#000000"
       inkscape:connector-curvature="0"
       sodipodi:nodetypes="ccsssssscccsssscsscccssssssscssssscsssssscc" />
    <path
       id="path3412"
       d="m 524.76529,55.39765 c -3.79228,-2.66453 -4.0834,-4.35598 -2.44483,-14.20522 0.84036,-5.05132 2.15208,-10.6102 2.91493,-12.35309 l 1.387,-3.16887 2.00124,2.37744 c 1.10069,1.30758 2.94998,2.85521 4.10953,3.43917 2.0168,1.01567 2.045,1.18451 0.64985,3.89086 -1.32026,2.56106 -1.32077,3.30417 -0.006,7.84274 1.87071,6.45514 1.80871,7.11398 -0.40054,4.25629 -1.72429,-2.23038 -1.93803,-2.27421 -4.41848,-0.90617 -3.22066,1.77629 -3.78744,4.87782 -1.34002,7.33289 2.8699,2.87887 1.07424,3.97239 -2.4532,1.49396 z"
       style="fill:#0000fe"
       inkscape:connector-curvature="0" />
    <path
       id="path4252"
       d="m 528.28843,88.00798 c 0,-0.56732 -1.15654,-1.16497 -2.5701,-1.32813 l -2.57009,-0.29664 -0.82108,-11.39048 c -0.4516,-6.26477 -0.5327,-13.31969 -0.1802,-15.67759 0.57556,-3.85015 0.81422,-4.17851 2.34164,-3.22165 2.2593,1.41538 3.01718,9.03281 1.88321,18.92817 -0.80287,7.00605 -0.71761,7.82251 1.07177,10.26337 1.06921,1.45851 1.69671,2.89991 1.39444,3.20313 -0.30227,0.30322 -0.54959,0.0871 -0.54959,-0.48018 z"
       style="fill:#fefefe"
       inkscape:connector-curvature="0" />
    <path
       id="path4238"
       d="m 539.80117,76.27064 c 0.19523,-5.06025 -4.43466,-14.86695 -9.68591,-20.51601 -4.27801,-4.60208 -4.65025,-6.94422 -1.34385,-8.45542 3.18858,-1.45735 3.99941,-0.25633 9.77942,14.48553 4.84958,12.3688 5.48421,15.4589 3.56937,17.37972 -1.9323,1.93834 -2.47914,1.25596 -2.31903,-2.89382 z"
       style="fill:#fefefe"
       inkscape:connector-curvature="0" />
    <path
       id="path4230"
       d="m 528.52207,64.66857 c -1.71464,-0.69404 -1.48716,-6.81519 0.27854,-7.49487 1.45865,-0.56148 2.637,0.61502 5.54639,5.53764 l 1.52374,2.57812 -3.09022,-0.0741 c -1.69963,-0.0407 -3.61592,-0.2868 -4.25845,-0.54687 z"
       style="fill:#fefefe"
       inkscape:connector-curvature="0" />
    <path
       id="path4218"
       d="m 531.99037,30.16941 c -3.48205,-1.90033 -4.33261,-4.47073 -5.47548,-16.54707 -1.39175,-14.70631 -1.4809,-13.95788 1.66259,-13.95788 2.40109,0 2.80458,0.44536 3.7248,4.1113 1.07667,4.28922 3.86278,23.07966 3.86278,26.05189 0,2.02126 -0.59806,2.07541 -3.77469,0.34176 z"
       style="fill:#fefefe"
       inkscape:connector-curvature="0" />
    <path
       id="path4212"
       d="m 523.24253,26.64195 c -0.339,-1.68918 -0.87921,-8.23921 -1.20049,-14.55562 -0.50282,-9.88579 -0.38728,-11.48437 0.83002,-11.48437 1.09769,0 1.65282,2.10548 2.48068,9.4086 1.36898,12.07669 1.34241,14.21865 -0.21366,17.22735 l -1.28019,2.47528 -0.61636,-3.07124 z"
       style="fill:#fefefe"
       inkscape:connector-curvature="0" />
    <path
       id="path3416"
       d="m 521.27018,-11.87836 c -0.73076,-11.73204 -0.26554,-14.70718 2.29978,-14.70718 2.19544,0 5.4431,7.86408 6.61975,16.02943 1.21602,8.43858 1.2372,8.34557 -1.90128,8.34557 -2.75192,0 -2.80481,-0.091 -2.86137,-4.92188 -0.0317,-2.70703 -0.65529,-7.66406 -1.38575,-11.01562 -1.30948,-6.00818 -1.31905,-6.02134 -0.68147,-0.9375 1.03203,8.22915 0.85427,17.13427 -0.35016,17.54194 -0.74186,0.25109 -1.27885,-2.93929 -1.7395,-10.33476 z"
       style="fill:#fefefe"
       inkscape:connector-curvature="0" />
    <path
       inkscape:connector-curvature="0"
       id="path4541"
       d="m 573.19041,86.939453 c -1.70288,0.145543 -0.9363,2.860519 4.44726,28.560547 2.53467,12.1 6.18198,29.875 8.10547,39.5 1.92348,9.625 3.7308,18.2875 4.01563,19.25 0.44192,1.49335 -2.41981,1.70589 -27.10157,1.73438 l 0,0.60937 c 9.03765,0.002 17.04003,0.008 26.48438,0.008 4.6732,-3.2e-4 8.49686,-0.005 13.07227,-0.006 l 0,-0.68554 c -5.55182,-0.0585 -9.07227,-0.14043 -9.07227,-0.23052 0,-0.6393 -7.84915,-39.25229 -8.52344,-41.92969 l -0.69336,-2.75 18.28907,0 0,-2.35742 L 583.74314,128.5 580.02635,111.12109 C 577.7613,100.52845 576.5231,92.425117 576.85642,90.371094 577.36683,87.225774 577.21904,87 574.64158,87 c -0.40867,0 -0.76992,-0.04437 -1.07812,-0.06055 -0.13484,-0.0071 -0.25953,-0.0097 -0.37305,0 z"
       style="fill:#000000" />
  </g>
</svg>
