<?xml version="1.0" encoding="UTF-8" standalone="no"?>
<!-- Created with Inkscape (http://www.inkscape.org/) -->

<svg
   xmlns:dc="http://purl.org/dc/elements/1.1/"
   xmlns:cc="http://creativecommons.org/ns#"
   xmlns:rdf="http://www.w3.org/1999/02/22-rdf-syntax-ns#"
   xmlns:svg="http://www.w3.org/2000/svg"
   xmlns="http://www.w3.org/2000/svg"
   xmlns:sodipodi="http://sodipodi.sourceforge.net/DTD/sodipodi-0.dtd"
   xmlns:inkscape="http://www.inkscape.org/namespaces/inkscape"
   id="svg3336"
   version="1.1"
   inkscape:version="0.91 r13725"
   width="608.41119"
   height="277.5"
   viewBox="0 0 608.41119 277.5"
   sodipodi:docname="ub141501.svg">
  <metadata
     id="metadata3342">
    <rdf:RDF>
      <cc:Work
         rdf:about="">
        <dc:format>image/svg+xml</dc:format>
        <dc:type
           rdf:resource="http://purl.org/dc/dcmitype/StillImage" />
        <dc:title></dc:title>
      </cc:Work>
    </rdf:RDF>
  </metadata>
  <defs
     id="defs3340" />
  <sodipodi:namedview
     pagecolor="#ffffff"
     bordercolor="#666666"
     borderopacity="1"
     objecttolerance="10"
     gridtolerance="10"
     guidetolerance="10"
     inkscape:pageopacity="0"
     inkscape:pageshadow="2"
     inkscape:window-width="1343"
     inkscape:window-height="1013"
     id="namedview3338"
     showgrid="false"
     inkscape:zoom="1.0272658"
     inkscape:cx="246.37406"
     inkscape:cy="179.19118"
     inkscape:window-x="0"
     inkscape:window-y="0"
     inkscape:window-maximized="0"
     inkscape:current-layer="svg3336" />
  <g
     id="g3346"
     transform="translate(2.9498462,0.20419767)">
    <path
       style="fill:#fefefe"
       d="m 29.391562,261.12386 c -0.744799,-1.78813 -1.35418,-3.67454 -1.35418,-4.19202 0,-1.85442 4.401539,-10.86367 5.923653,-12.12475 1.951073,-1.6165 1.946204,-1.50815 -0.33502,7.45444 -1.0384,4.07972 -1.623649,8.47424 -1.300553,9.76558 0.897453,3.5869 -1.352107,2.89434 -2.9339,-0.90325 z m 25.281333,2.28653 c 3.358653,-1.50528 35.329089,-7.42495 42.990652,-7.96018 4.112153,-0.28728 9.579443,-0.17138 12.149533,0.25756 l 4.6729,0.77988 -7.00935,2.22224 -7.00934,2.22223 6.86942,1.20591 c 3.77818,0.66324 7.35295,1.40458 7.94392,1.64742 0.59098,0.24283 -13.22456,0.44628 -30.701194,0.45208 -19.422808,0.007 -31.049059,-0.3151 -29.906541,-0.82714 z M 98.259108,251.3702 c -2.879589,-2.69835 -2.932009,-2.90326 -2.932009,-11.46232 0,-15.86841 1.768766,-29.89161 4.334,-34.36101 2.664581,-4.64249 5.409561,-5.25445 7.079341,-1.57823 0.92218,2.03031 0.63653,3.82416 -1.82883,11.48438 -1.60695,4.99303 -3.59659,13.45364 -4.42141,18.80136 -1.384671,8.97753 -1.381998,10.07851 0.0349,14.35761 0.84399,2.54896 1.33912,4.83049 1.10029,5.07007 -0.23883,0.23958 -1.753644,-0.80076 -3.366242,-2.31186 z m -71.156305,-3.10051 c 0,-3.64205 2.623049,-7.54137 7.200304,-10.7037 l 4.980729,-3.44109 -2.271362,-3.88789 c -3.046445,-5.21461 -4.068071,-10.65122 -2.140933,-11.39305 2.696963,-1.03816 4.909198,1.32105 7.515571,8.01489 3.159409,8.11417 2.999693,8.49052 -6.762731,15.93549 -3.658831,2.79028 -6.65242,5.41241 -6.65242,5.82695 0,0.41454 -0.42056,0.75371 -0.934579,0.75371 -0.514019,0 -0.934579,-0.49739 -0.934579,-1.10531 z m 5.8922,-17.08704 0.16633,-6.00484 2.498819,4.29194 2.498819,4.29194 -2.170822,1.7129 c -1.193952,0.94211 -2.393269,1.71291 -2.665148,1.71291 -0.27188,0 -0.419479,-2.70218 -0.327998,-6.00485 z m 5.387617,-28.81394 c -4.030583,-3.77009 -4.882549,-5.05387 -4.138838,-6.23658 2.014579,-3.20376 3.570816,-2.42317 8.938919,4.48364 l 2.528497,3.25325 5.293104,-2.60409 c 5.164911,-2.54102 6.83532,-2.746 5.564149,-0.68277 -0.904951,1.46882 -10.049204,6.59269 -11.70864,6.5608 -0.771028,-0.0148 -3.685764,-2.16323 -6.477191,-4.77425 z m -0.999444,-9.68227 c 0,-2.43797 2.877289,-6.12394 4.780383,-6.12394 1.231871,0 1.761673,0.67033 1.761673,2.22896 0,2.44745 -1.23006,3.76382 -4.439252,4.75073 -1.574097,0.48408 -2.102804,0.26891 -2.102804,-0.85575 z M 108.09969,179.375 c -0.34269,-0.34375 -0.62306,-1.17419 -0.62306,-1.84543 0,-1.30218 7.53394,-7.38254 15.03758,-12.13625 2.5072,-1.58837 5.3344,-3.59228 6.28267,-4.45313 2.22218,-2.01733 2.97882,-1.97686 2.97882,0.15932 0,0.94849 -0.97109,2.16836 -2.15798,2.71083 -1.18687,0.54248 -6.02626,4.40707 -10.75416,8.58799 -8.5015,7.51791 -9.54808,8.19626 -10.76387,6.97667 z m 3.11526,-10.01095 c 0,-1.20915 0.80765,-2.93164 1.79478,-3.82778 1.71484,-1.55676 1.84526,-1.53472 2.92815,0.49501 0.98096,1.83866 0.85136,2.35341 -0.96374,3.82778 -2.79851,2.27318 -3.75919,2.14668 -3.75919,-0.49501 z m 25.23364,1.44486 c 0,-1.63134 6.37272,-6.70147 11.89907,-9.46687 6.09975,-3.05234 24.93945,-14.44316 27.35327,-16.53827 2.06257,-1.79025 7.47663,0.62212 7.47663,3.3314 0,1.6016 -2.07923,2.96198 -10.98131,7.18472 -6.03971,2.86497 -16.18257,7.69159 -22.53969,10.72583 -11.68304,5.57628 -13.20797,6.12622 -13.20797,4.76319 z m 84.64777,-3.89574 c -1.71109,-0.61552 -1.71607,-0.68042 -0.0999,-1.30255 1.85702,-0.71483 2.74996,-0.28269 2.23171,1.08002 -0.18206,0.47868 -1.14138,0.57881 -2.13183,0.22253 z m 6.70737,-5.73826 c -1.4427,-0.84292 -1.62575,-2.52506 -1.55267,-14.26837 l 0.0828,-13.31279 2.08244,9.62517 c 1.14534,5.29385 2.58003,10.12432 3.18819,10.73438 1.43249,1.43697 1.42312,5.66583 -0.0157,7.1092 -1.33915,1.34334 -1.66183,1.35292 -3.78504,0.11241 z m -9.81308,-1.06912 c -1.57087,-0.75997 -2.10281,-1.82542 -2.10281,-4.2119 0,-3.11823 0.0837,-3.18762 3.50467,-2.90361 3.4019,0.28244 3.51311,0.40781 3.79206,4.27534 0.3132,4.34229 -0.81445,4.95891 -5.19392,2.84017 z m 79.17568,-3.15348 c -1.38626,-3.65752 -1.0998,-5.5298 1.23227,-8.054 2.33678,-2.52931 3.92985,-2.47839 5.34323,0.1708 0.67795,1.27072 0.39246,2.70339 -1.09622,5.50109 -2.52792,4.75078 -4.29101,5.51727 -5.47928,2.38211 z m -53.75511,-7.96563 c -0.34337,-0.55733 -1.15901,-3.19405 -1.81252,-5.85937 -1.33463,-5.44325 -13.7557,-38.58173 -16.47323,-43.949335 -0.96854,-1.913053 -1.76099,-3.706022 -1.76099,-3.984375 0,-1.450033 2.77216,-0.106237 6.21369,3.012056 3.4081,3.088024 4.90643,6.011124 12.38318,24.158474 4.67826,11.35495 8.50593,21.10195 8.50593,21.65997 0,1.31 -4.30034,5.9759 -5.50769,5.9759 -0.50824,0 -1.20499,-0.45599 -1.54837,-1.01332 z m 58.25432,-2.83234 c -0.85647,-0.48081 -6.3129,-1.92821 -12.1254,-3.21645 -12.0739,-2.67599 -15.4415,-3.8931 -14.20463,-5.13384 0.51497,-0.51658 5.4051,-0.1235 12.32853,0.99098 6.31127,1.01593 12.51531,1.58524 13.78678,1.26512 2.68839,-0.67685 5.09122,0.95571 5.09122,3.45916 0,2.25555 -2.82922,3.78432 -4.8765,2.63503 z m -31.57209,-8.39717 c 0,-0.54606 0.42056,-0.7321 0.93458,-0.41342 0.51401,0.31868 0.93458,0.76545 0.93458,0.99283 0,0.22738 -0.42057,0.41342 -0.93458,0.41342 -0.51402,0 -0.93458,-0.44678 -0.93458,-0.99283 z m 72.92561,-2.91342 c -0.0156,-0.85937 -0.42547,-1.70312 -0.91075,-1.875 -0.48528,-0.17188 2.45666,-4.74219 6.53763,-10.15625 4.08097,-5.41406 7.75513,-11.07463 8.16478,-12.57905 1.07798,-3.95873 3.34963,-5.1197 5.75138,-2.93936 1.05813,0.96058 1.92387,2.31654 1.92387,3.01325 0,0.69671 -4.34859,6.01023 -9.66355,11.80783 -5.31494,5.79759 -10.1386,11.38483 -10.71924,12.41608 -0.86681,1.53952 -1.06078,1.59544 -1.08412,0.3125 z M 221.59337,129.3336 c -1.04147,-3.48697 -0.63256,-8.30727 0.59985,-7.07103 0.5035,0.50508 1.22628,10.86243 0.75801,10.86243 -0.12401,0 -0.73504,-1.70613 -1.35786,-3.7914 z m 233.5468,2.81159 c -0.77103,-0.41795 -2.09377,-0.97107 -2.93942,-1.22917 -1.26982,-0.38754 -1.65421,-2.49818 -2.20751,-12.12118 -0.36848,-6.40856 -0.37859,-13.38199 -0.0224,-15.49652 0.57348,-3.405014 0.83945,-3.724354 2.3262,-2.79296 2.23572,1.40059 2.98986,9.06479 1.86114,18.91434 -0.80287,7.00605 -0.71761,7.82251 1.07177,10.26337 2.11731,2.88821 2.08979,3.64356 -0.0897,2.46212 z m 50.46729,0.3024 c 0,-0.49884 0.83751,-1.6673 1.86115,-2.59657 1.99723,-1.81312 1.99003,-3.81735 -0.0666,-18.55836 -1.02943,-7.37829 -0.0794,-10.32997 3.17526,-9.86517 1.77546,0.25354 1.99649,0.77686 1.70689,4.04126 -0.18298,2.0625 -0.39326,8.59331 -0.46729,14.51292 -0.12463,9.96469 -0.27323,10.78916 -2.00377,11.11651 -1.02803,0.19448 -2.39486,0.78172 -3.03738,1.30499 -0.7221,0.5881 -1.16822,0.60505 -1.16822,0.0444 z m -101.46418,-1.12222 c -0.47975,-0.45698 -1.71339,-0.98554 -2.74143,-1.17457 -1.73116,-0.31833 -1.87909,-1.13835 -2.00376,-11.10663 -0.074,-5.91961 -0.28431,-12.45042 -0.46729,-14.51292 -0.2896,-3.2644 -0.0686,-3.78772 1.70688,-4.04126 2.5582,-0.36534 4.36242,2.72135 3.62729,6.20562 -0.29279,1.38772 -0.9359,6.52056 -1.42914,11.40628 -0.85077,8.42725 -0.79447,8.9924 1.09686,11.01193 1.88387,2.01155 2.07172,3.98436 0.21059,2.21155 z m -211.18966,-2.06742 c -0.83588,-2.64183 1.05699,-3.82593 5.15242,-3.22313 1.78543,0.26279 7.40947,-0.37327 12.49788,-1.41346 5.08839,-1.04019 9.38743,-1.75503 9.55341,-1.58853 1.25872,1.26264 -2.735,3.1097 -11.80959,5.4618 -12.78834,3.31469 -14.55909,3.4025 -15.39412,0.76332 z m 4.47628,-4.30135 c -1.15654,-0.21973 -2.10281,-0.93759 -2.10281,-1.59525 0,-1.66478 3.08782,-4.29885 5.03935,-4.29885 1.25938,0 1.55579,0.6638 1.32828,2.97468 -0.31044,3.15324 -0.90213,3.55828 -4.26482,2.91942 z m 26.49126,-1.77973 c -0.42296,-1.10566 -0.17873,-1.35699 0.91103,-0.9375 0.81889,0.31522 1.66478,0.57313 1.87975,0.57313 0.21497,0 0.39085,0.42187 0.39085,0.9375 0,1.52718 -2.55419,1.06707 -3.18163,-0.57313 z m 133.19135,-0.17097 c -0.77509,-1.45279 -0.45852,-2.27428 1.66152,-4.31175 2.3717,-2.27935 2.73731,-2.37407 3.87156,-1.0031 1.05465,1.27474 1.01377,1.91 -0.25875,4.02082 -1.88142,3.1208 -4.01981,3.64545 -5.27433,1.29403 z m 110.47498,-2.33722 c 0.19523,-5.06025 -4.43466,-14.86695 -9.68591,-20.51601 -4.27801,-4.602079 -4.65025,-6.944219 -1.34385,-8.455425 3.18858,-1.457353 3.99941,-0.256326 9.77942,14.485535 4.84958,12.3688 5.4842,15.4589 3.56937,17.37972 -1.9323,1.93834 -2.47914,1.25596 -2.31903,-2.89382 z m -169.5704,-0.34447 c -0.83359,-0.22845 -2.91388,-2.18783 -4.62286,-4.35417 -11.4352,-14.49548 -20.34419,-24.454037 -24.96088,-27.901523 -2.94208,-2.19699 -5.52448,-4.137737 -5.73866,-4.312772 -0.21417,-0.175035 -0.14932,-0.559082 0.14412,-0.853439 0.29344,-0.294357 3.4126,0.327611 6.93147,1.38215 6.17156,1.849503 6.84119,2.363286 18.92519,14.520722 9.12122,9.176632 12.61931,13.325272 12.86582,15.258472 0.1862,1.4603 0.43678,3.48269 0.55685,4.49418 0.22235,1.87327 -1.30716,2.53206 -4.10105,1.76638 z m 204.81635,-8.52733 c 0.0163,-1.41797 0.59746,-3.32881 1.29134,-4.24631 1.13351,-1.49878 1.32029,-1.51479 1.83943,-0.1577 0.31781,0.83077 0.57783,2.7416 0.57783,4.24631 0,2.11082 -0.42701,2.73582 -1.86916,2.73582 -1.42324,0 -1.86207,-0.61507 -1.83944,-2.57812 z m -98.16056,-1.0952 c 0,-1.50471 0.26002,-3.41554 0.57782,-4.24631 0.51914,-1.35709 0.70593,-1.34108 1.83943,0.1577 0.69389,0.9175 1.27499,2.82834 1.29135,4.24631 0.0226,1.96305 -0.41621,2.57812 -1.83944,2.57812 -1.44215,0 -1.86916,-0.625 -1.86916,-2.73582 z m 51.63551,-1.63507 c -1.71464,-0.69404 -1.48716,-6.81519 0.27854,-7.49487 1.45865,-0.56148 2.637,0.61502 5.54639,5.53764 l 1.52374,2.57812 -3.09022,-0.0741 c -1.69963,-0.0407 -3.61592,-0.2868 -4.25845,-0.54687 z M 356.87105,83.313137 c -1.76935,-0.647485 -2.63885,-1.783196 -3.05054,-3.984515 -1.12429,-6.011712 -13.60422,-35.601512 -16.13153,-38.247694 -2.7976,-2.929187 -2.46199,-4.091752 0.93435,-3.23666 4.33039,1.090255 6.25849,3.983332 14.4533,21.686982 9.88213,21.348838 10.67188,26.298653 3.79442,23.781887 z m 150.0679,-7.512145 c -1.29051,-2.50338 -1.4998,-6.292966 -1.38503,-25.078125 0.12158,-19.898266 0.33215,-22.672549 2.08876,-27.519742 1.07445,-2.964844 2.31776,-5.390625 2.7629,-5.390625 0.44515,0 0.80935,2.429978 0.80935,5.399949 0,5.398701 2.29996,36.690471 3.37147,45.870032 0.50961,4.365718 0.32257,5.10967 -1.82667,7.265625 -3.10049,3.110174 -3.97793,3.027701 -5.82078,-0.547114 z M 398.45519,75.410606 c -2.14924,-2.155955 -2.33628,-2.899907 -1.82667,-7.265625 1.0715,-9.179561 3.37146,-40.471331 3.37146,-45.870032 0,-2.969972 0.36421,-5.399949 0.80936,-5.399949 0.44514,0 1.68845,2.425781 2.7629,5.390625 1.7566,4.847193 1.96717,7.621476 2.08875,27.519742 0.11478,18.785159 -0.0945,22.574745 -1.38503,25.078125 -1.84285,3.574815 -2.72028,3.657288 -5.82077,0.547114 z m 61.3215,-0.843151 c -3.48205,-1.900337 -4.33261,-4.470738 -5.47547,-16.547077 -1.39176,-14.706307 -1.48091,-13.957878 1.66258,-13.957878 2.40109,0 2.80458,0.445363 3.7248,4.111304 1.07667,4.28922 3.86278,23.079661 3.86278,26.051886 0,2.021265 -0.59806,2.075415 -3.77469,0.341765 z m -8.74784,-3.527465 c -0.339,-1.689182 -0.87921,-8.239209 -1.20049,-14.555615 C 449.32554,46.598584 449.44108,45 450.65838,45 c 1.09769,0 1.65282,2.105481 2.48068,9.408602 1.36898,12.076685 1.34241,14.218648 -0.21366,17.22735 l -1.28018,2.475278 -0.61637,-3.07124 z M 449.0565,32.519677 C 448.32574,20.787639 448.79096,17.8125 451.35628,17.8125 c 2.19544,0 5.4431,7.864079 6.61975,16.029434 1.21602,8.438578 1.2372,8.345566 -1.90128,8.345566 -2.75192,0 -2.80481,-0.09098 -2.86137,-4.921875 -0.0317,-2.707031 -0.65529,-7.664063 -1.38575,-11.015625 -1.30948,-6.008179 -1.31905,-6.021343 -0.68147,-0.9375 1.03203,8.229147 0.85427,17.134273 -0.35016,17.541937 -0.74186,0.251098 -1.27885,-2.939283 -1.7395,-10.33476 z"
       id="path3356"
       inkscape:connector-curvature="0" />
    <path
       style="fill:#0000fe"
       d="m 32.213658,222.65625 c -0.240877,-0.77344 -0.656285,-2.0946 -0.92313,-2.93592 -0.553305,-1.74448 1.345209,-17.02476 2.357894,-18.97761 0.50716,-0.97801 1.579857,-0.46232 4.451147,2.13983 3.711735,3.3638 3.756953,3.48063 2.40175,6.20569 -0.759664,1.52755 -1.456596,4.23568 -1.54874,6.01809 -0.143498,2.77579 -0.445645,3.17132 -2.106041,2.75693 -2.408303,-0.60105 -4.531249,1.77032 -3.866767,4.31924 0.564984,2.16726 -0.108911,2.58398 -0.766113,0.47375 z m 65.946787,-17.61548 c -0.01626,-0.40725 0.756112,-2.30569 1.716439,-4.21875 0.960326,-1.91305 2.245836,-6.96435 2.856696,-11.22512 0.61086,-4.26077 1.55889,-9.03672 2.10675,-10.61323 l 0.99611,-2.86638 1.10841,2.17573 c 1.11481,2.1883 2.41696,2.4857 5.43832,1.24207 2.28813,-0.94182 2.11854,0.55476 -1.16822,10.30866 -1.54206,4.57627 -2.80374,9.57235 -2.80374,11.10242 0,2.63571 -0.0898,2.70038 -1.7091,1.23038 -2.4514,-2.22542 -4.40167,-1.92182 -6.59455,1.02658 -1.054629,1.41796 -1.930835,2.2449 -1.947115,1.83765 z M 227.47193,162.96568 c -0.46522,-0.75508 -0.1491,-0.89408 1.01457,-0.44615 3.592,1.38269 7.01878,-5.59079 4.15769,-8.46082 -0.71118,-0.7134 0.40101,-1.86895 3.84432,-3.99428 4.82098,-2.97564 4.8517,-2.98089 6.19385,-1.0587 1.81955,2.60588 2.82102,2.44255 6.00809,-0.97988 3.20131,-3.43772 3.54737,-1.99938 0.96379,4.0058 -2.34274,5.4454 -8.10855,9.94589 -14.23546,11.11146 -6.18958,1.1775 -7.12494,1.15662 -7.94685,-0.17743 z m -43.35979,-15.35461 c 0,-0.76374 -1.26183,-2.1584 -2.80406,-3.09921 l -2.80408,-1.71059 2.21568,-1.01268 c 1.21862,-0.55698 4.24014,-3.59757 6.71449,-6.75686 3.69463,-4.71736 4.64987,-5.47341 5.34382,-4.2295 0.5731,1.02726 1.85491,1.42738 3.98338,1.24344 4.46278,-0.3857 4.80758,0.52903 1.82618,4.84464 -3.06273,4.43332 -14.47541,12.88577 -14.47541,10.72076 z m 121.09743,-7.81095 c -0.50631,-0.82177 -1.7809,-1.02465 -3.91474,-0.62308 -3.67566,0.69171 -3.48982,1.21174 -3.57168,-9.99473 -0.057,-7.80398 0.0253,-8.14011 1.87889,-7.67412 2.91738,0.73343 4.27521,-1.50335 3.19857,-5.26907 -1.28323,-4.48837 -0.44819,-4.55182 1.79728,-0.13657 1.27013,2.49743 2.10482,6.43354 2.45463,11.57523 0.54519,8.01347 -0.42851,14.41812 -1.84295,12.12234 z m 57.85458,-32.94723 c -2.0279,-2.24781 -3.0619,-2.31523 -5.23616,-0.34141 -1.54888,1.4061 -1.69795,1.35708 -2.13806,-0.70312 -0.46636,-2.18311 -1.24952,-22.37086 -0.86785,-22.37086 0.10803,0 1.32634,0.430943 2.70738,0.957652 3.33556,1.272142 5.41191,-0.374142 4.6673,-3.700587 -0.39825,-1.779146 -0.30555,-2.029704 0.35279,-0.953491 1.7744,2.900728 4.78021,20.458706 4.16407,24.323856 -0.73741,4.62593 -1.47971,5.19301 -3.64947,2.78796 z m 142.03509,-4.96392 c -0.3362,-1.34372 -0.13848,-6.007029 0.43937,-10.362905 0.72263,-5.447161 0.75862,-9.190083 0.1153,-11.988548 -1.34528,-5.852006 -1.20321,-6.320802 0.87788,-2.896892 2.16735,3.565815 2.70349,3.672601 5.87494,1.170143 l 2.37844,-1.876731 0.6681,8.045557 c 0.92917,11.189312 -0.62388,20.861636 -2.78614,17.352086 -1.04023,-1.688377 -4.05865,-1.14994 -5.55328,0.99061 l -1.40333,2.00981 -0.61128,-2.44313 z m -101.15899,-0.66296 c -1.24505,-1.999885 -4.37531,-2.482754 -5.39246,-0.83183 -2.16226,3.50955 -3.71531,-6.162774 -2.78614,-17.352086 l 0.6681,-8.045557 2.37844,1.876731 c 3.17145,2.502458 3.70759,2.395672 5.87493,-1.170143 2.0641,-3.395933 2.234,-2.915443 0.9117,2.578125 -0.60241,2.502711 -0.55271,6.742155 0.14943,12.745973 1.13188,9.678457 0.41063,13.756037 -1.804,10.198787 z m 48.11017,-1.875469 c -1.32399,-1.044694 -2.6406,-2.636972 -2.9258,-3.538388 -0.57325,-1.811766 2.44328,-18.744444 4.11706,-23.110359 l 1.06079,-2.766957 2.05436,2.444266 c 1.1299,1.344347 3.0031,2.92205 4.16265,3.506009 2.0168,1.015669 2.045,1.184504 0.64985,3.890861 -1.32026,2.561055 -1.32077,3.304171 -0.006,7.842737 1.87071,6.45514 1.80871,7.113978 -0.40054,4.25629 -1.72429,-2.230376 -1.93803,-2.27421 -4.41848,-0.906171 -3.22066,1.776292 -3.78744,4.877824 -1.34002,7.332893 1.69343,1.698718 1.7382,2.948278 0.10563,2.948278 -0.35903,0 -1.73604,-0.85476 -3.06002,-1.899459 z"
       id="path3352"
       inkscape:connector-curvature="0" />
    <path
       style="fill:#fe0000"
       d="m 315.88784,166.52433 c 0,-0.19286 1.0595,-2.25226 2.35446,-4.57643 6.31037,-11.32575 9.51673,-28.9509 7.06109,-38.81424 -1.80488,-7.24952 -5.80823,-15.56476 -6.94472,-14.42471 -0.53653,0.53821 -1.26203,0.97855 -1.61223,0.97855 -0.84722,0 -2.96042,-8.51661 -2.28205,-9.19711 0.80012,-0.802612 8.90008,3.39001 8.90008,4.60676 0,0.5903 -0.81082,0.84633 -1.83194,0.57847 -1.63432,-0.42872 -1.49704,0.19161 1.27244,5.75003 1.70741,3.42683 3.64112,8.5123 4.29714,11.30103 1.5849,6.73749 0.71001,19.59529 -1.85255,27.22589 -2.50813,7.46856 -7.22355,16.92243 -8.4406,16.92243 -0.50662,0 -0.92112,-0.1578 -0.92112,-0.35067 z M 133.64485,148.59375 c 0,-0.25781 0.73599,-1.24019 1.63552,-2.18306 0.89953,-0.94287 2.52133,-2.73584 3.60401,-3.98438 2.50439,-2.88805 9.97241,-9.33745 15.00019,-12.95419 2.13653,-1.53691 7.4699,-3.91573 11.85195,-5.28625 6.18303,-1.93379 7.84536,-2.81074 7.42263,-3.91579 -0.41769,-1.0919 -0.0759,-1.28941 1.46582,-0.84702 1.1058,0.31732 2.85166,0.8163 3.8797,1.10887 2.66504,0.75842 2.32433,1.84545 -1.27854,4.07911 -3.73345,2.31461 -4.71936,2.44929 -3.99097,0.54521 0.29587,-0.77344 0.446,-1.40619 0.33364,-1.40612 -0.11238,7e-5 -3.50272,1.02104 -7.5341,2.26882 -9.07435,2.80867 -15.36738,6.93562 -24.4144,16.01092 -6.54195,6.56239 -7.97545,7.74218 -7.97545,6.56388 z M 470.79437,58.37543 c -1.92757,-0.793299 -3.47431,-1.70152 -3.43719,-2.01827 0.0371,-0.31675 1.52437,-1.791027 3.30503,-3.276171 3.25264,-2.712838 5.39616,-2.803529 3.18829,-0.134895 -1.63461,1.975747 0.6849,1.955598 3.51162,-0.03051 2.37346,-1.667628 2.70242,-4.352921 0.73402,-5.991658 -2.38835,-1.988347 -19.41925,-3.311908 -27.13421,-2.108741 -12.45208,1.941931 -17.54426,5.34862 -15.87604,10.621136 0.30474,0.963147 0.11318,1.751175 -0.42568,1.751175 -1.30311,0 -2.27012,-4.073665 -1.5256,-6.426763 1.30462,-4.123333 14.36371,-8.573237 25.15981,-8.573237 8.07277,0 19.58536,1.886634 21.37846,3.503408 3.15439,2.844222 1.61847,7.687045 -3.05367,9.628356 -2.02922,0.843159 -2.59725,1.496535 -1.90486,2.191078 1.14256,1.146132 1.30752,2.531375 0.28563,2.398553 -0.38551,-0.05011 -2.27804,-0.740168 -4.20561,-1.533465 z"
       id="path3350"
       inkscape:connector-curvature="0" />
    <path
       style="fill:#000000"
       d="M 17.931482,264.61243 29.7882,264.31987 28.339038,260.8407 c -1.191653,-2.86094 -1.249034,-4.03434 -0.322922,-6.60347 0.981411,-2.72253 0.911098,-3.2821 -0.546786,-4.35146 -1.523176,-1.11726 -1.557272,-1.579 -0.380671,-5.15528 0.710795,-2.16047 2.101594,-4.4967 3.090663,-5.19163 2.330473,-1.63743 2.752856,-8.27097 1.030237,-16.17988 -1.107956,-5.08686 -1.077806,-7.25085 0.228584,-16.40625 0.827687,-5.80056 2.077615,-11.20614 2.777619,-12.0124 0.971854,-1.11938 1.014208,-1.72526 0.179155,-2.56293 -0.601468,-0.60335 -1.179836,-2.88118 -1.285262,-5.06184 -0.217608,-4.50108 -1.747621,-5.77516 -2.642098,-2.20014 -0.328145,1.31152 -1.037516,2.38458 -1.576381,2.38458 -0.583994,0 -0.719354,-0.85206 -0.335101,-2.10938 1.041121,-3.40667 2.451414,-4.63706 4.556207,-3.97499 1.063946,0.33467 3.550313,0.55556 5.52526,0.49085 4.64662,-0.15222 6.222269,1.25649 6.222269,5.56301 0,3.48616 -2.15659,6.59301 -4.576481,6.59301 -1.090947,0 -0.345346,1.26975 4.103332,6.98792 1.402699,1.80298 1.507471,1.7911 6.688784,-0.75799 3.627493,-1.78465 5.564419,-2.28806 6.230953,-1.61945 0.666533,0.66862 0.473784,1.51713 -0.620064,2.72959 -2.462614,2.72966 -10.661022,6.87311 -12.953952,6.54688 -1.735623,-0.24693 -2.256886,0.39743 -3.30316,4.08319 -1.196318,4.21434 -1.118342,4.69089 2.10566,12.86934 3.783773,9.59844 3.706101,10.13289 -2.215107,15.24174 -3.216893,2.77556 -3.86712,4.08606 -5.636101,11.35929 -1.099825,4.52197 -1.737894,9.26806 -1.417932,10.54688 0.569821,2.27745 0.769664,2.32511 9.748344,2.32511 5.249591,0 9.299716,-0.39866 9.478123,-0.93296 0.290421,-0.86976 33.322497,-7.73294 42.956225,-8.92516 l 4.326935,-0.53547 -2.829785,-2.83864 -2.829794,-2.83863 0.555663,-14.2302 c 0.679402,-17.39874 2.214635,-29.09543 4.390308,-33.44894 0.901897,-1.80469 2.155508,-6.96748 2.785798,-11.47288 0.63029,-4.50539 1.92315,-9.72074 2.87301,-11.58967 1.58329,-3.11525 1.60543,-3.58417 0.26605,-5.63473 -0.844,-1.29213 -1.28708,-3.42516 -1.04921,-5.05096 0.47285,-3.23181 0.1444,-3.4167 -2.23404,-1.2575 -2.159944,1.96082 -3.394617,0.94335 -1.34735,-1.11033 0.83223,-0.83483 1.51325,-1.80413 1.51338,-2.15402 1.4e-4,-0.34988 2.7184,-0.75034 6.04059,-0.88988 5.70968,-0.23984 6.12904,-0.11153 7.66082,2.34375 0.89126,1.4286 1.72876,2.75419 1.86112,2.94574 0.3601,0.52119 8.90154,-4.54651 11.2372,-6.66709 1.11849,-1.0155 2.48531,-1.56633 3.03738,-1.22407 2.04577,1.26831 0.94099,4.11359 -2.3546,6.06412 -1.8471,1.09321 -6.04863,4.40144 -9.33672,7.35159 -4.33645,3.89076 -5.83332,5.82229 -5.45028,7.0329 0.29043,0.91794 -0.73181,5.56155 -2.27165,10.31913 -1.53985,4.75758 -3.06504,10.75953 -3.38932,13.33765 -0.32428,2.57813 -1.80552,8.48438 -3.29165,13.125 -1.48613,4.64063 -3.36986,12.7887 -4.18609,18.10683 -1.37851,8.98178 -1.37124,10.02829 0.10236,14.71767 l 1.58638,5.04833 5.21823,0.6444 c 9.07669,1.12086 9.70132,1.85818 3.14917,3.7173 -3.19406,0.90629 -5.61784,1.95544 -5.38619,2.33145 0.23166,0.376 2.73985,0.97423 5.57373,1.32941 2.8339,0.35518 5.15255,1.03729 5.15255,1.51582 0,0.52488 21.13695,0.87004 53.27958,0.87004 l 53.2796,0 -0.24222,-47.499 -0.2422,-47.49901 -3.79254,-1.01661 c -6.26324,-1.67892 -8.09341,-3.55999 -8.599,-8.83822 -0.40314,-4.20871 -0.21613,-4.79745 1.98304,-6.24291 1.65013,-1.08458 3.78153,-1.48798 6.65197,-1.25897 l 4.22382,0.33698 -0.0571,-7.50675 c -0.0335,-4.41068 -0.73256,-9.63339 -1.69483,-12.66301 -1.88637,-5.93909 -1.5935,-5.8799 -13.37281,-2.70264 -4.57322,1.23354 -7.0267,2.33974 -6.75642,3.04627 0.81706,2.13589 -5.38607,8.99086 -12.94199,14.30198 -4.19254,2.94697 -12.47667,7.63562 -18.40917,10.41922 -5.9325,2.7836 -15.73257,7.43282 -21.77791,10.33161 -8.48265,4.06749 -11.24478,5.0165 -12.10098,4.15762 -1.63927,-1.64438 4.05506,-7.20218 10.94299,-10.68063 3.08411,-1.55749 10.77541,-6.05445 17.09176,-9.99324 6.31637,-3.93879 13.10377,-8.11642 15.08311,-9.28361 3.39261,-2.00058 9.69496,-9.31017 12.16535,-14.10963 0.85865,-1.6682 0.86175,-2.47732 0.0134,-3.50272 -0.60674,-0.73337 -0.93066,-2.81578 -0.7198,-4.62757 0.45064,-3.87216 -0.30009,-4.22106 -2.04504,-0.95041 -0.68774,1.28906 -1.59992,2.34375 -2.02708,2.34375 -1.19161,0 -0.94224,-0.88355 1.0359,-3.67027 1.60198,-2.25678 2.46767,-2.57158 7.45097,-2.70934 6.39633,-0.17684 7.5589,0.86697 7.5589,6.78673 0,4.05939 0.3646,4.10113 12.37732,1.41698 10.0976,-2.25623 13.31421,-1.63679 12.31147,2.37089 -0.94924,3.7939 -0.74703,6.0435 1.50191,16.70929 2.3328,11.0634 2.00024,10.79746 8.41926,6.73265 3.55285,-2.24983 3.85806,-2.74264 3.33218,-5.38027 -0.72822,-3.65249 -12.86462,-36.02968 -16.00824,-42.70638 -3.70839,-7.876243 -1.47254,-9.029382 5.33863,-2.753405 3.94828,3.638025 5.05926,5.777245 12.78071,24.609375 4.65112,11.34375 8.70996,21.6958 9.01966,23.00456 0.88782,3.7519 -2.47191,10.32532 -7.30994,14.3021 -4.45333,3.66057 -12.72258,6.09283 -16.5604,4.87094 -1.79985,-0.57305 -1.83802,3.5e-4 -1.83802,27.60297 l 0,28.18818 13.5514,0 c 8.41121,0 13.5514,0.3556 13.5514,0.9375 0,0.5819 -5.14019,0.9375 -13.5514,0.9375 l -13.5514,0 0,21.09375 0,21.09375 22.89719,0 22.8972,0 0,-62.00603 c 0,-54.44122 -0.17359,-62.13334 -1.42287,-63.04969 -1.20063,-0.88067 -1.23712,-1.44479 -0.23365,-3.61166 1.28514,-2.77511 5.39483,-3.7036 5.39483,-1.21885 0,1.42286 0.78173,1.63238 13.5514,3.63186 l 7.47664,1.17069 -0.0119,-9.04325 -0.0119,-9.04327 -3.68719,-4.58677 C 278.91831,99.078403 272.36592,91.813948 267.3715,88.184445 c -3.1291,-2.273955 -5.68928,-4.458312 -5.68928,-4.854126 0,-1.740783 2.26,-1.730011 8.16056,0.0389 6.16039,1.846802 6.69486,2.26992 20.48492,16.216656 7.78772,7.876205 14.92391,15.796935 15.85821,17.601625 1.38987,2.68466 1.69182,5.45834 1.66068,15.25538 -0.0237,7.46001 -0.42838,12.3657 -1.07344,13.01279 -0.75748,0.75984 -0.42575,2.00741 1.2359,4.64785 1.24922,1.98507 2.2713,4.09844 2.2713,4.69638 0,0.59792 0.64418,1.55965 1.43152,2.13717 1.17895,0.86476 1.24526,1.58597 0.37586,4.08772 -0.5806,1.67074 -1.43507,3.03771 -1.89881,3.03771 -1.05396,0 -1.05072,-0.26778 0.038,-3.14046 1.0816,-2.85371 -0.57166,-3.84072 -3.2018,-1.9115 -2.30369,1.68977 -8.35524,1.67697 -9.75974,-0.0206 -0.60183,-0.72742 -1.33151,-2.78931 -1.62151,-4.58196 -0.41454,-2.56251 -0.0851,-3.70285 1.54055,-5.33366 1.1373,-1.14085 1.71035,-2.40507 1.27343,-2.80937 -0.43691,-0.4043 -5,-1.64725 -10.14018,-2.76212 -5.14019,-1.11487 -10.29206,-2.26419 -11.4486,-2.55404 l -2.1028,-0.52702 0,39.94538 0,39.94539 15.42056,0 c 9.65731,0 15.42056,0.35038 15.42056,0.9375 0,0.58712 -5.76325,0.9375 -15.42056,0.9375 l -15.42056,0 0,21.09375 0,21.09375 32.27894,0 32.27894,0 -0.2696,-65.62527 c -0.14828,-36.0939 0.0101,-65.62515 0.35189,-65.625 0.34181,1.5e-4 4.26549,-4.93284 8.71927,-10.9622 6.80209,-9.20838 7.99678,-11.34599 7.46644,-13.35937 -0.34724,-1.3183 -0.95447,-7.88129 -1.34937,-14.584408 -0.39491,-6.703125 -1.01801,-13.554903 -1.38469,-15.226174 -1.4438,-6.580892 -13.68117,-35.375098 -16.11901,-37.927608 -4.64417,-4.862613 1.35369,-6.168233 6.65606,-1.4489 1.35,1.201555 6.39112,10.740863 11.76292,22.258932 7.81702,16.761078 9.72204,21.758294 11.30966,29.66717 1.73641,8.650108 1.78964,9.981798 0.58823,14.713688 -1.26544,4.9841 -1.23402,5.31216 0.74771,7.80525 1.81334,2.28126 2.26114,2.44225 3.62797,1.30434 1.3298,-1.10709 1.74268,-1.10303 2.80544,0.0276 1.58829,1.68968 2.82367,8.35697 1.54847,8.35697 -0.51402,0 -1.21416,-1.49492 -1.55586,-3.32205 -0.68906,-3.68451 -2.55697,-3.90163 -3.05002,-0.35452 -0.85096,6.12207 -9.15204,8.81455 -13.50286,4.3797 l -2.06939,-2.10937 -4.51254,4.89939 c -2.48191,2.69467 -5.53097,6.40481 -6.7757,8.24476 l -2.26316,3.34537 0,40.73961 0,40.73962 15.42056,0 c 9.65732,0 15.42056,0.35038 15.42056,0.9375 0,0.58712 -5.76324,0.9375 -15.42056,0.9375 l -15.42056,0 0,21.09375 0,21.09375 29.48023,0 29.48024,0 -0.27463,-66.32813 c -0.17466,-42.18444 -0.61481,-66.84 -1.20921,-67.73437 -0.51401,-0.77344 -0.96973,-6.04687 -1.01269,-11.71875 -0.0814,-10.74554 -0.82835,-15.95514 -2.60939,-18.19868 -1.48101,-1.865598 -1.14845,-21.075687 0.74799,-43.207567 0.86156,-10.054688 1.8607,-23.34375 2.22029,-29.53125 0.76677,-13.193684 2.0608,-14.576683 5.44311,-5.817319 1.96951,5.10052 2.11159,7.024172 2.32394,31.462278 0.1244,14.316278 -0.0825,26.530715 -0.45992,27.143194 -0.37735,0.612478 -0.18713,5.243476 0.42273,10.291106 0.9899,8.193082 1.34659,9.290058 3.32539,10.226828 1.21911,0.57712 2.96882,0.85198 3.88824,0.6108 1.8647,-0.48916 4.31369,1.8573 5.28892,5.06749 0.85831,2.82532 -0.76475,2.68286 -2.67023,-0.23438 -2.16697,-3.31754 -3.3303,-2.90527 -2.70522,0.95871 0.71928,4.44621 -1.57613,7.01004 -6.27613,7.01004 l -3.46551,0 -0.51763,6.32813 c -0.4516,5.52096 -0.27161,6.59367 1.41109,8.41001 1.6777,1.81095 1.75882,2.28711 0.62331,3.65871 -1.06661,1.28839 -1.35465,9.43884 -1.5747,44.55873 l -0.26931,42.98192 9.84875,0 c 5.94278,0 9.84875,0.37181 9.84875,0.9375 0,0.56547 -3.89409,0.9375 -9.81309,0.9375 l -9.81308,0 0,21.09375 0,21.09375 24.33479,0 24.33479,0 -0.26937,-65.95031 c -0.22234,-54.43689 -0.49478,-66.22267 -1.56058,-67.51033 -0.96814,-1.16969 -1.34755,-5.6364 -1.51641,-17.85215 -0.12386,-8.96067 -0.50108,-16.739904 -0.83827,-17.287179 -0.33718,-0.547284 0.0885,-4.84157 0.94591,-9.542861 1.33368,-7.312568 1.40506,-10.070603 0.49396,-19.085545 -0.58576,-5.795759 -1.00316,-13.25521 -0.92756,-16.576558 0.10156,-4.462161 0.32408,-3.243638 0.85224,4.667122 0.39313,5.888264 0.9989,12.606416 1.34614,14.929227 l 0.63135,4.223292 1.47348,-3.051894 c 1.30207,-2.696901 1.33602,-4.413429 0.29182,-14.757068 -0.6499,-6.437847 -0.98325,-11.904183 -0.74078,-12.147415 0.24247,-0.243231 0.95316,5.163672 1.5793,12.015341 0.62614,6.851669 1.61161,13.442791 2.18993,14.646938 1.06459,2.216653 6.00796,5.404976 6.93632,4.473715 0.65476,-0.656808 -1.41665,-17.117081 -3.12692,-24.847734 -0.72972,-3.298438 -1.14442,-6.180072 -0.92156,-6.40363 0.59604,-0.597903 3.1325,12.057839 4.37592,21.833784 1.02071,8.024977 0.96829,8.716235 -0.94644,12.481148 -1.95539,3.844866 -1.97449,4.166835 -0.54058,9.114699 0.81752,2.820973 1.21808,5.564557 0.89013,6.096855 -0.32796,0.532294 0.18182,1.545497 1.13282,2.251556 1.47351,1.093988 2.05191,1.073691 3.91299,-0.137287 2.53773,-1.651266 2.59892,-1.619729 3.44893,1.777584 0.41268,1.649344 0.27189,2.5762 -0.39131,2.5762 -0.56975,0 -1.0359,-0.63281 -1.0359,-1.406247 0,-0.773438 -0.39574,-1.40625 -0.87942,-1.40625 -1.55932,0 -2.11769,1.9179 -0.96426,3.312037 0.68742,0.83088 0.88987,2.59061 0.52345,4.5499 -0.40836,2.18353 0.002,4.72049 1.29593,8.01373 2.36892,6.02878 2.38949,8.69592 0.0832,10.78961 -2.39323,2.17261 -4.12603,0.99959 -3.45978,-2.34209 0.28916,-1.4503 -0.11484,-4.52278 -0.89776,-6.82772 -1.36781,-4.02683 -1.58583,-4.20377 -5.57178,-4.52177 -2.28154,-0.18203 -4.15146,-0.11698 -4.15536,0.14454 -0.004,0.26153 -0.42111,4.06145 -0.92714,8.44426 -0.84171,7.29027 -0.76333,8.18259 0.92064,10.48038 1.67928,2.29137 1.72011,2.74354 0.46562,5.15625 -1.14969,2.21112 -1.37603,9.44461 -1.38084,44.12899 l -0.006,41.48438 10.74766,0 c 6.54206,0 10.74766,0.36684 10.74766,0.9375 0,0.57066 -4.2056,0.9375 -10.74766,0.9375 l -10.74766,0 0,21.09375 0,21.09375 26.16822,0 26.16822,0 -0.006,-63.51563 c -0.005,-54.95543 -0.19692,-63.88333 -1.42412,-66.24393 -1.30973,-2.51935 -1.27944,-2.87839 0.39543,-4.6875 1.55104,-1.67539 1.7388,-2.87585 1.29616,-8.28731 l -0.51762,-6.32813 -3.46552,0 c -4.7,0 -6.99541,-2.56383 -6.27613,-7.01004 0.62509,-3.86398 -0.53824,-4.27625 -2.70521,-0.95871 -1.90549,2.91724 -3.52854,3.0597 -2.67024,0.23438 0.97524,-3.21019 3.42423,-5.55665 5.28893,-5.06749 0.91942,0.24118 2.66912,-0.0337 3.88823,-0.6108 1.97881,-0.93677 2.3355,-2.033746 3.3254,-10.226828 0.60986,-5.04763 0.80008,-9.678628 0.42272,-10.291106 -0.37734,-0.612479 -0.58431,-12.826916 -0.45991,-27.143194 0.21234,-24.438106 0.35443,-26.361758 2.32393,-31.462278 3.38231,-8.759364 4.67635,-7.376365 5.44312,5.817319 0.35958,6.1875 1.35872,19.476562 2.22028,29.53125 1.89644,22.13188 2.229,41.341969 0.748,43.207567 -1.78104,2.24354 -2.52801,7.45314 -2.6094,18.19868 -0.043,5.67187 -0.49867,10.94531 -1.01269,11.71875 -0.57918,0.87147 -1.04279,18.07811 -1.21914,45.24674 l -0.28457,43.84049 32.01323,-0.24674 32.01324,-0.24674 3.47325,-16.29363 c 2.11687,-9.9306 3.27364,-17.52747 2.96213,-19.45312 -0.47717,-2.94874 -0.33909,-3.1595 2.06975,-3.1595 3.05546,0 3.33345,-2.65271 -2.80003,26.71875 -2.36885,11.34375 -5.77781,28.00781 -7.57547,37.03125 -1.79764,9.02344 -3.48233,17.13212 -3.74372,18.01928 -0.42987,1.45897 0.71273,1.64089 11.96216,1.90466 6.84059,0.16039 -119.61864,0.29206 -281.0205,0.29259 -161.40186,5.4e-4 -288.122412,-0.13069 -281.601218,-0.2916 z m 14.39398,-2.58532 c -0.323096,-1.29134 0.262153,-5.68586 1.300553,-9.76558 2.281224,-8.96259 2.286093,-9.07094 0.33502,-7.45444 -1.522114,1.26108 -5.923653,10.27033 -5.923653,12.12475 0,0.51748 0.609381,2.40389 1.35418,4.19202 1.581793,3.79759 3.831353,4.49015 2.9339,0.90325 z m 82.955168,1.75834 c -0.59097,-0.24284 -4.16574,-0.98417 -7.94392,-1.64742 l -6.86942,-1.2059 7.00934,-2.22224 7.00935,-2.22224 -4.6729,-0.77987 c -2.57009,-0.42895 -8.03738,-0.54485 -12.149533,-0.25757 -7.661563,0.53523 -39.631999,6.4549 -42.990652,7.96018 -1.142518,0.51204 10.483733,0.8336 29.906541,0.82714 17.476634,-0.006 31.292174,-0.20925 30.701194,-0.45208 z m 450.13991,0.28892 c 0,-0.59934 7.33641,-36.79868 7.96659,-39.30875 l 0.64726,-2.57812 -31.87702,0 -31.87702,0 0,21.09375 0,21.09375 27.5701,0 c 15.16355,0 27.57009,-0.13528 27.57009,-0.30063 z M 100.52506,248.61199 c -1.416858,-4.2791 -1.419531,-5.38008 -0.0349,-14.35761 0.82482,-5.34772 2.81446,-13.80833 4.42141,-18.80136 2.46536,-7.66022 2.75101,-9.45407 1.82883,-11.48438 -1.35255,-2.9778 -4.11314,-3.10922 -6.2339,-0.29677 -1.584516,2.10132 -1.585423,2.10043 -0.23597,-0.23437 1.70733,-2.954 4.02565,-3.44505 6.34101,-1.34313 1.73804,1.57781 1.79963,1.53851 1.79963,-1.1482 0,-1.53007 1.26168,-6.52615 2.80374,-11.10242 3.28676,-9.7539 3.45635,-11.25048 1.16822,-10.30866 -3.02136,1.24363 -4.32351,0.94623 -5.43832,-1.24207 l -1.10841,-2.17573 -0.99611,2.86638 c -0.54786,1.5765 -1.49525,6.35246 -2.10531,10.61323 -0.61005,4.26077 -1.7553,9.01247 -2.54501,10.55935 -0.789687,1.54687 -1.56965,3.86719 -1.733238,5.15625 -0.163589,1.28906 -0.703346,4.66406 -1.199458,7.5 -0.496112,2.83594 -1.198458,11.99241 -1.560757,20.34771 l -0.658738,15.19144 3.076644,2.88301 c 1.692159,1.58565 3.272057,2.68698 3.510887,2.4474 0.23883,-0.23958 -0.2563,-2.52111 -1.10029,-5.07007 z m -71.138119,0.49558 c -0.268252,-0.70124 2.329561,-3.33302 6.214461,-6.2957 9.787577,-7.46416 9.945995,-7.8366 6.78571,-15.95302 -2.606373,-6.69384 -4.818608,-9.05305 -7.515571,-8.01489 -1.927138,0.74183 -0.905512,6.17844 2.140933,11.39305 l 2.271362,3.88789 -5.028694,3.47422 c -3.802625,2.62715 -5.329805,4.38944 -6.26369,7.22798 -1.050998,3.19452 -1.035146,3.88062 0.106402,4.60523 1.756619,1.11502 1.832547,1.0959 1.289087,-0.32476 z m 6.601208,-13.63298 2.170822,-1.7129 -2.498819,-4.29194 -2.498819,-4.29194 -0.16633,6.00484 c -0.09148,3.30267 0.05612,6.00485 0.327998,6.00485 0.271879,0 1.471196,-0.7708 2.665148,-1.71291 z M 32.979771,222.1825 c -0.664482,-2.54892 1.458464,-4.92029 3.866767,-4.31924 1.660396,0.41439 1.962543,0.0189 2.106041,-2.75693 0.09214,-1.78241 0.789076,-4.49054 1.54874,-6.01809 1.355203,-2.72506 1.309985,-2.84189 -2.40175,-6.20569 -2.87129,-2.60215 -3.943987,-3.11784 -4.451147,-2.13983 -1.012685,1.95285 -2.911199,17.23313 -2.357894,18.97761 0.266845,0.84132 0.682253,2.16248 0.92313,2.93592 0.657202,2.11023 1.331097,1.69351 0.766113,-0.47375 z m 18.121263,-17.79677 c 8.252756,-4.74796 8.177022,-7.19131 -0.09673,-3.1208 l -5.293104,2.60409 -2.528497,-3.25325 c -5.368103,-6.90681 -6.92434,-7.6874 -8.938919,-4.48364 -0.743711,1.18271 0.108255,2.46649 4.138838,6.23658 2.791427,2.61102 5.706163,4.75944 6.477191,4.77425 0.771028,0.0148 3.579579,-1.22593 6.241223,-2.75723 z m -8.344026,-12.42776 c 0.642523,-0.51565 1.168224,-1.94059 1.168224,-3.16651 0,-3.01296 -3.043563,-2.96349 -5.032701,0.0819 -2.246807,3.43977 -1.989608,5.46327 0.593449,4.66891 1.156542,-0.35566 2.628504,-1.06856 3.271028,-1.58421 z m 76.106552,-19.55964 c 4.7279,-4.18092 9.56729,-8.04551 10.75416,-8.58799 1.18689,-0.54247 2.15798,-1.76234 2.15798,-2.71083 0,-2.13618 -0.75664,-2.17665 -2.97882,-0.15932 -0.94827,0.86085 -3.77547,2.86476 -6.28267,4.45313 -7.50364,4.75371 -15.03758,10.83407 -15.03758,12.13625 0,1.39006 0.88269,2.47043 2.01841,2.47043 0.42477,0 4.6406,-3.42075 9.36852,-7.60167 z m -3.88942,-2.53927 c 1.8151,-1.47437 1.9447,-1.98912 0.96374,-3.82778 -1.08289,-2.02973 -1.21331,-2.05177 -2.92815,-0.49501 -1.80755,1.64092 -2.50887,6.02623 -0.96373,6.02623 0.45706,0 1.77473,-0.76655 2.92814,-1.70344 z m 34.68242,-3.81334 c 6.35712,-3.03424 16.49998,-7.86086 22.53969,-10.72583 8.90208,-4.22274 10.98131,-5.58312 10.98131,-7.18472 0,-2.70928 -5.41406,-5.12164 -7.47663,-3.3314 -2.41382,2.09511 -21.25352,13.48593 -27.35327,16.53827 -7.38552,3.69574 -14.4553,10.22046 -11.07427,10.22046 0.45363,0 6.02606,-2.48256 12.38317,-5.51678 z m 73.47174,-0.65763 c -0.23698,-0.23772 -1.1963,-0.13759 -2.13182,0.22253 -1.61619,0.62213 -1.61121,0.68703 0.0999,1.30255 1.63871,0.58948 3.06943,-0.48435 2.03194,-1.52508 z m 12.31909,-2.25042 c 6.36488,-1.21084 12.3354,-6.0381 14.49985,-11.72335 0.90741,-2.38344 1.3302,-5.10284 0.98191,-6.31565 -0.33641,-1.17146 -4.40564,-11.41117 -9.0427,-22.75492 -7.43488,-18.18807 -8.88916,-21.04009 -12.30828,-24.138094 -3.44153,-3.118294 -6.21369,-4.462089 -6.21369,-3.012056 0,0.278353 0.79245,2.071322 1.76099,3.984375 2.71753,5.367605 15.1386,38.506085 16.47323,43.949335 1.9305,7.87347 2.81356,8.43891 6.70693,4.29456 2.00539,-2.13467 2.23516,-2.21899 1.33582,-0.49023 -0.59739,1.14834 -1.99461,2.57559 -3.10493,3.17167 -1.70333,0.91445 -2.27463,0.76682 -3.65628,-0.94476 l -1.6375,-2.02856 -4.79961,2.96246 c -3.41106,2.10541 -4.51012,3.25286 -3.79894,3.96626 2.86109,2.87003 -0.56569,9.84351 -4.15769,8.46082 -1.16367,-0.44793 -1.47979,-0.30893 -1.01457,0.44615 0.82257,1.33511 1.7557,1.35523 7.97546,0.17199 z m -3.85861,-2.07517 c 1.43886,-1.44337 1.44824,-5.67223 0.0157,-7.1092 -0.60816,-0.61006 -2.04285,-5.44053 -3.18819,-10.73438 l -2.08239,-9.62517 -0.0828,13.31279 c -0.0731,11.74331 0.10998,13.42545 1.55268,14.26837 2.12321,1.24051 2.44588,1.23093 3.78504,-0.11241 z m -8.40421,-3.79688 c -0.27895,-3.86753 -0.39016,-3.9929 -3.79206,-4.27534 -3.42092,-0.28401 -3.50467,-0.21462 -3.50467,2.90361 0,3.29008 2.07043,5.14901 5.89486,5.29266 1.41704,0.0532 1.64294,-0.57861 1.40187,-3.92093 z m 79.46104,-2.69542 c 1.48868,-2.7977 1.77417,-4.23037 1.09622,-5.50109 -1.41338,-2.64919 -3.00645,-2.70011 -5.34323,-0.1708 -2.33207,2.5242 -2.61853,4.39648 -1.23227,8.054 1.18827,3.13516 2.95136,2.36867 5.47928,-2.38211 z M 198.58755,136.89031 c 2.9814,-4.31561 2.6366,-5.23034 -1.82618,-4.84464 -2.12847,0.18394 -3.41028,-0.21618 -3.98338,-1.24344 -0.69395,-1.24391 -1.64919,-0.48786 -5.34382,4.2295 -2.47435,3.15929 -5.49587,6.19988 -6.71449,6.75686 l -2.21568,1.01268 2.80408,1.71059 c 1.54223,0.94081 2.80406,2.33547 2.80406,3.09921 0,2.16501 11.41268,-6.28745 14.47541,-10.72076 z m 107.95449,6.629 c 0,-2.50345 -2.40283,-4.13601 -5.09122,-3.45916 -1.27147,0.32012 -7.47551,-0.24919 -13.78678,-1.26512 -6.92343,-1.11448 -11.81356,-1.50756 -12.32853,-0.99098 -1.23687,1.24074 2.13073,2.45785 14.20463,5.13384 5.8125,1.28824 11.26893,2.73564 12.1254,3.21645 2.04728,1.14929 4.8765,-0.37948 4.8765,-2.63503 z m 0.50967,-15.85204 c -0.29197,-4.29082 -1.19877,-9.14238 -2.01511,-10.78125 -0.81633,-1.63887 -7.64568,-9.21307 -15.17631,-16.83153 -13.34221,-13.497819 -13.85556,-13.900768 -20.09001,-15.769571 -3.51887,-1.054794 -6.63803,-1.67697 -6.93147,-1.382613 -0.29344,0.294357 -0.35829,0.678404 -0.14412,0.853439 0.21418,0.175035 2.79658,2.115782 5.73866,4.312772 4.61307,3.444781 13.53561,13.417283 24.93493,27.869123 3.03262,3.84471 7.07703,5.86565 8.62701,4.31083 0.4347,-0.43606 0.38105,-2.22444 -0.1192,-3.97419 -0.50026,-1.74974 -0.73713,-3.35432 -0.52637,-3.56572 0.21074,-0.21141 0.82181,1.20919 1.35792,3.15689 1.14858,4.17281 -0.0792,6.40359 -3.1056,5.64274 -1.85359,-0.46599 -1.93589,-0.12986 -1.87889,7.67412 0.0819,11.20647 -0.10398,10.68644 3.57168,9.99473 2.13384,-0.40157 3.40843,-0.19869 3.91474,0.62308 1.41516,2.29693 2.38802,-4.11061 1.84214,-12.13285 z m -35.0891,10.66931 c 0,-0.22738 -0.42057,-0.67415 -0.93458,-0.99283 -0.51402,-0.31868 -0.93458,-0.13264 -0.93458,0.41342 0,0.54605 0.42056,0.99283 0.93458,0.99283 0.51401,0 0.93458,-0.18604 0.93458,-0.41342 z m 82.85981,-16.22141 c 5.31496,-5.7976 9.66355,-11.11112 9.66355,-11.80783 0,-0.69671 -0.86574,-2.05267 -1.92387,-3.01325 -2.40175,-2.18034 -4.6734,-1.01937 -5.75138,2.93936 -0.40965,1.50442 -4.08381,7.16499 -8.16478,12.57905 -4.08097,5.41406 -7.02291,9.98437 -6.53763,10.15625 0.48528,0.17188 0.89512,1.01563 0.91075,1.875 0.0234,1.28294 0.21731,1.22702 1.08412,-0.3125 0.58064,-1.03125 5.4043,-6.61849 10.71924,-12.41608 z m -131.87385,5.84305 c -0.25009,-5.66416 -0.95137,-7.27135 -1.88509,-4.32027 -0.49139,1.55305 1.08733,9.48705 1.88775,9.48705 0.12401,0 0.12282,-2.32505 -0.003,-5.16678 z m 232.28133,1.72485 c -1.78938,-2.44086 -1.87464,-3.25732 -1.07177,-10.26337 1.12872,-9.84955 0.37458,-17.51375 -1.86114,-18.91434 -1.48675,-0.931394 -1.75272,-0.612054 -2.3262,2.79296 -0.35614,2.11453 -0.34603,9.08796 0.0224,15.49652 0.5533,9.623 0.9377,11.73364 2.20751,12.12118 0.84565,0.2581 2.16839,0.81122 2.93942,1.22917 2.17952,1.18144 2.20705,0.42609 0.0897,-2.46212 z m 54.58316,1.41511 c 1.73054,-0.32735 1.87914,-1.15182 2.00377,-11.11651 0.074,-5.91961 0.28431,-12.45042 0.46729,-14.51292 0.2896,-3.2644 0.0686,-3.78772 -1.70689,-4.04126 -3.25464,-0.4648 -4.20469,2.48688 -3.17526,9.86517 2.05667,14.74101 2.06387,16.74524 0.0666,18.55836 -2.03143,1.84417 -2.65822,4.1527 -0.69293,2.55215 0.64252,-0.52327 2.00935,-1.11051 3.03738,-1.30499 z m -105.88037,-1.98436 c -1.89133,-2.01953 -1.94763,-2.58468 -1.09686,-11.01193 0.49324,-4.88572 1.13635,-10.01856 1.42914,-11.40628 0.73513,-3.48427 -1.06909,-6.57096 -3.62729,-6.20562 -1.77545,0.25354 -1.99648,0.77686 -1.70688,4.04126 0.18298,2.0625 0.39326,8.59331 0.46729,14.51292 0.12467,9.96828 0.2726,10.7883 2.00376,11.10663 1.02804,0.18903 2.26168,0.71759 2.74143,1.17458 1.86113,1.7728 1.67328,-0.20001 -0.21059,-2.21156 z m -195.58495,-0.61919 c 9.07459,-2.3521 13.06831,-4.19915 11.80959,-5.4618 -0.16598,-0.1665 -4.46502,0.54834 -9.55341,1.58853 -5.08841,1.04019 -10.71245,1.67625 -12.49788,1.41346 -4.09543,-0.60279 -5.9883,0.58131 -5.15242,3.22313 0.83503,2.63918 2.60578,2.55137 15.39412,-0.76332 z m -6.32259,-6.33459 c -0.40493,-3.47937 -2.23466,-4.04637 -4.98895,-1.54599 -2.3128,2.09959 -2.1515,3.86567 0.3937,4.31079 4.47994,0.78346 4.97362,0.48643 4.59525,-2.7648 z m 25.07764,1.58996 c 0,-0.51563 -0.17588,-0.9375 -0.39085,-0.9375 -0.21497,0 -1.06086,-0.25791 -1.87975,-0.57313 -1.08976,-0.41949 -1.33399,-0.16816 -0.91103,0.9375 0.62744,1.6402 3.18163,2.10031 3.18163,0.57313 z m 135.28405,-2.03813 c 1.27252,-2.11082 1.3134,-2.74608 0.25875,-4.02082 -1.13425,-1.37097 -1.49986,-1.27625 -3.87156,1.0031 -2.12004,2.03747 -2.43661,2.85896 -1.66152,4.31175 1.25452,2.35142 3.39291,1.82677 5.27433,-1.29403 z m 107.51968,1.85063 c 1.91483,-1.92082 1.28021,-5.01092 -3.56937,-17.37972 -5.78001,-14.741861 -6.59084,-15.942888 -9.77942,-14.485535 -3.3064,1.511206 -2.93416,3.853346 1.34385,8.455435 5.25125,5.64905 9.88114,15.45575 9.68591,20.516 -0.16011,4.14978 0.38673,4.83216 2.31903,2.89382 z m 36.63552,-11.92332 c 0,-1.50471 -0.26002,-3.41554 -0.57783,-4.24631 -0.51914,-1.35709 -0.70592,-1.34108 -1.83943,0.1577 -0.69388,0.9175 -1.27499,2.82834 -1.29134,4.24631 -0.0226,1.96305 0.4162,2.57812 1.83944,2.57812 1.44215,0 1.86916,-0.625 1.86916,-2.73582 z m -98.16056,-0.7798 c -0.0164,-1.41797 -0.59746,-3.32881 -1.29135,-4.24631 -1.1335,-1.49878 -1.32029,-1.51479 -1.83943,-0.1577 -0.3178,0.83077 -0.57782,2.7416 -0.57782,4.24631 0,2.11082 0.42701,2.73582 1.86916,2.73582 1.42323,0 1.86206,-0.61507 1.83944,-2.57812 z m 53.75184,-3.75 c -2.90939,-4.92262 -4.08774,-6.09912 -5.54639,-5.53764 -1.7657,0.67968 -1.99318,6.80083 -0.27854,7.49487 0.64253,0.26007 2.55882,0.50617 4.25845,0.54687 l 3.09022,0.0741 -1.52374,-2.57813 z m -95.41994,-3.26972 c 1.2006,-8.359044 -2.32401,-20.1065 -12.70196,-42.335351 -7.772,-16.647092 -10.13036,-20.879848 -12.41086,-22.274929 -2.81868,-1.724296 -6.08656,-2.302838 -6.08656,-1.077554 0,0.358505 1.05322,1.754584 2.34049,3.102398 2.36316,2.474314 14.89703,32.358373 15.9636,38.061425 0.43476,2.324724 1.25468,3.304173 3.39153,4.051412 3.58659,1.254198 4.75868,0.509137 4.10589,-2.609962 -0.49398,-2.360236 -0.46949,-2.378391 0.52446,-0.388785 0.79245,1.58628 0.75483,2.434921 -0.1568,3.536792 -1.10255,1.332652 -2.22872,1.305469 -6.10004,-0.147239 -0.96682,-0.362795 -0.88065,17.428093 0.1068,22.050493 0.44011,2.0602 0.58918,2.10922 2.13806,0.70312 2.17426,-1.97382 3.20826,-1.9064 5.23616,0.34141 2.19885,2.4373 2.95619,1.81196 3.64923,-3.01323 z m 143.56481,-3.52716 c 0.96856,0 2.04357,0.45863 2.38894,1.01918 2.16226,3.50955 3.71531,-6.162774 2.78614,-17.352086 l -0.6681,-8.045557 -2.37844,1.876731 c -3.17145,2.502458 -3.70759,2.395672 -5.87494,-1.170143 -2.08109,-3.42391 -2.22316,-2.955114 -0.87788,2.896892 0.64332,2.798465 0.60733,6.541387 -0.1153,11.988548 -0.57785,4.355876 -0.77557,9.019185 -0.43937,10.362905 l 0.61128,2.44313 1.40333,-2.00981 c 0.77183,-1.10538 2.19578,-2.00979 3.16434,-2.00979 z M 405.74425,91.027223 c -0.70214,-6.003818 -0.75184,-10.243262 -0.14943,-12.745973 1.3223,-5.493568 1.1524,-5.974058 -0.9117,-2.578125 -2.16734,3.565815 -2.70348,3.672601 -5.87493,1.170143 l -2.37844,-1.876731 -0.6681,8.045557 c -0.92917,11.189312 0.62388,20.861636 2.78614,17.352086 1.01715,-1.650924 4.14741,-1.168055 5.39246,0.83183 2.21463,3.55725 2.93588,-0.52033 1.804,-10.198787 z m 50.56414,9.675907 c 0.29984,-0.30079 -0.28676,-1.381418 -1.30358,-2.401408 -2.44742,-2.455069 -1.88064,-5.556601 1.34002,-7.332893 2.48045,-1.368039 2.69419,-1.324205 4.41848,0.906171 2.20925,2.857687 2.27125,2.19885 0.40054,-4.25629 -1.31529,-4.538566 -1.31478,-5.281682 0.006,-7.842737 1.39515,-2.706357 1.36695,-2.875192 -0.64985,-3.890861 -1.15955,-0.583959 -3.03275,-2.161662 -4.16265,-3.506009 l -2.05436,-2.444266 -1.06079,2.766957 c -1.67378,4.365915 -4.69031,21.298593 -4.11706,23.110359 0.51161,1.617009 4.71748,5.437847 5.98582,5.437847 0.35903,0 0.89811,-0.24609 1.19795,-0.54687 z m 56.45134,-24.355024 c 2.14924,-2.155955 2.33628,-2.899907 1.82667,-7.265625 -1.07151,-9.179561 -3.37147,-40.471331 -3.37147,-45.870032 0,-2.969972 -0.3642,-5.399949 -0.80935,-5.399949 -0.44514,0 -1.68845,2.425781 -2.7629,5.390625 -1.75661,4.847193 -1.96718,7.621476 -2.08876,27.519742 -0.11477,18.785159 0.0945,22.574745 1.38503,25.078125 1.84285,3.574815 2.72029,3.657288 5.82078,0.547114 z M 404.27596,74.863492 c 1.29052,-2.50338 1.49981,-6.292966 1.38503,-25.078125 -0.12158,-19.898266 -0.33215,-22.672549 -2.08875,-27.519742 -1.07445,-2.964844 -2.31776,-5.390625 -2.7629,-5.390625 -0.44515,0 -0.80936,2.429977 -0.80936,5.399949 0,5.398701 -2.29996,36.690471 -3.37146,45.870032 -0.50961,4.365718 -0.32257,5.10967 1.82667,7.265625 3.10049,3.110174 3.97792,3.027701 5.82077,-0.547114 z m 43.83042,-42.593235 c -0.74201,-11.91267 0.0106,-15.395257 3.32686,-15.395257 1.45683,0 2.51505,1.302922 4.24478,5.226368 2.22999,5.058165 4.80774,18.786338 3.73044,19.867003 -0.29149,0.292396 -0.53843,-0.06603 -0.54877,-0.796496 -0.131,-9.258996 -4.66027,-23.359375 -7.50341,-23.359375 -2.56346,0 -3.0306,2.974241 -2.30266,14.660844 0.3649,5.858411 0.45318,10.651656 0.19617,10.651656 -0.257,0 -0.77154,-4.884635 -1.14341,-10.854743 z m 3.96899,2.885993 c -0.40059,-4.125 -0.91593,-9.1875 -1.14521,-11.25 -0.22927,-2.0625 0.20944,-0.796875 0.97491,2.8125 0.76547,3.609375 1.28082,8.671875 1.14521,11.25 -0.21811,4.146717 -0.33059,3.822247 -0.97491,-2.8125 z M 468.22428,18.75 c 0,-3.117344 -0.39132,-4.692308 -1.16822,-4.701856 -0.77882,-0.0096 -0.70094,-0.317285 0.23364,-0.923144 2.47141,-1.60214 2.80374,-1.046529 2.80374,4.6875 0,3.125 -0.41537,5.625 -0.93458,5.625 -0.51402,0 -0.93458,-2.109375 -0.93458,-4.6875 z m 7.41365,3.205124 c -0.9272,-1.1207 -0.97146,-1.891921 -0.18142,-3.160941 0.75183,-1.20761 0.76027,-1.964205 0.0301,-2.696641 -1.30845,-1.312559 0.69645,-3.910042 3.01804,-3.910042 2.32159,0 4.3265,2.597483 3.01803,3.910043 -0.73016,0.732435 -0.72171,1.48903 0.0301,2.69664 1.25771,2.020169 -0.46428,4.643317 -3.04812,4.643317 -0.90216,0 -2.19218,-0.66707 -2.86672,-1.482376 z m 4.42202,-0.92439 c 0.77894,-2.036214 -1.19854,-3.951108 -2.61397,-2.53125 -1.1963,1.200031 -0.45519,4.000516 1.05867,4.000516 0.54628,0 1.24617,-0.66117 1.5553,-1.469266 z m -0.1031,-5.17492 c 0.9631,-1.563206 -1.203,-3.355791 -2.49226,-2.0625 -1.07843,1.081804 -0.40348,3.081686 1.04006,3.081686 0.45335,0 1.10684,-0.458634 1.4522,-1.019186 z m 5.15309,5.82521 c -1.35474,-2.539284 -1.25531,-5.969391 0.23219,-8.010034 2.95773,-4.0575781 7.57295,1.376263 5.70731,6.719635 -1.12186,3.213096 -4.51984,3.951334 -5.9395,1.290399 z m 4.22589,-1.524774 c 0.69337,-2.771272 -0.20656,-7.03125 -1.48538,-7.03125 -0.49443,0 -1.16285,1.054688 -1.48539,2.34375 -0.69337,2.771272 0.20656,7.03125 1.48539,7.03125 0.49443,0 1.16285,-1.054688 1.48538,-2.34375 z m 4.46246,-4.681229 c -0.3237,-0.846204 -0.14042,-1.988089 0.4073,-2.537521 1.42393,-1.428383 4.12188,-0.122895 3.74992,1.814524 -0.4143,2.158014 -3.40903,2.678838 -4.15722,0.722997 z m 2.16721,-1.588302 c -0.29833,-0.747875 -0.51979,-0.525728 -0.56463,0.566406 -0.0406,0.988281 0.18031,1.541992 0.49086,1.230469 0.31055,-0.311524 0.34374,-1.120117 0.0737,-1.796875 z"
       id="path3348"
       inkscape:connector-curvature="0" />
  </g>
</svg>
