<?xml version="1.0" encoding="UTF-8" standalone="no"?>
<!-- Created with Inkscape (http://www.inkscape.org/) -->

<svg
   xmlns:dc="http://purl.org/dc/elements/1.1/"
   xmlns:cc="http://creativecommons.org/ns#"
   xmlns:rdf="http://www.w3.org/1999/02/22-rdf-syntax-ns#"
   xmlns:svg="http://www.w3.org/2000/svg"
   xmlns="http://www.w3.org/2000/svg"
   xmlns:sodipodi="http://sodipodi.sourceforge.net/DTD/sodipodi-0.dtd"
   xmlns:inkscape="http://www.inkscape.org/namespaces/inkscape"
   version="1.1"
   width="474"
   height="231"
   id="svg2"
   inkscape:version="0.91 r13725"
   sodipodi:docname="ub220203.svg">
  <sodipodi:namedview
     pagecolor="#b6b6b6"
     bordercolor="#666666"
     borderopacity="1"
     objecttolerance="10"
     gridtolerance="10"
     guidetolerance="10"
     inkscape:pageopacity="0"
     inkscape:pageshadow="2"
     inkscape:window-width="1317"
     inkscape:window-height="879"
     id="namedview10"
     showgrid="false"
     inkscape:zoom="0.70710678"
     inkscape:cx="256.54528"
     inkscape:cy="80.519445"
     inkscape:window-x="0"
     inkscape:window-y="0"
     inkscape:window-maximized="0"
     inkscape:current-layer="svg2" />
  <metadata
     id="metadata8">
    <rdf:RDF>
      <cc:Work
         rdf:about="">
        <dc:format>image/svg+xml</dc:format>
        <dc:type
           rdf:resource="http://purl.org/dc/dcmitype/StillImage" />
        <dc:title></dc:title>
      </cc:Work>
    </rdf:RDF>
  </metadata>
  <defs
     id="defs6" />
  <g
     id="g4321"
     transform="translate(-11.241925,-1.9342464)">
    <path
       sodipodi:nodetypes="sssssssssssssscssssscsscssssssssscccsssssssssssssscsssssssssssssssssssssssssssscssc"
       d="m 126,100.52675 c 0,-0.26029 0.95284,-2.397785 2.11743,-4.749999 2.08857,-4.218446 9.3251,-11.039946 19.99002,-18.843552 2.9659,-2.170173 8.20037,-6.19294 11.63215,-8.939483 6.46623,-5.175097 10.86115,-6.38463 13.15521,-3.620464 1.74934,2.107822 0.26702,4.528073 -4.88726,7.9797 C 148.07394,85.701727 136.19998,94.07154 134.50236,95.970358 131.91598,98.863276 126,102.03363 126,100.52675 Z M 136.5259,97.75 c 0.84295,-4.000527 -0.40748,-2.880124 14.36407,-12.870417 6.81448,-4.608771 13.33948,-9.026826 14.5,-9.817901 3.51569,-2.396493 0.68321,0.131455 -11.95909,10.673326 -6.63801,5.535155 -12.83588,11.23416 -13.77305,12.664455 -2.39977,3.662517 -3.97182,3.336517 -3.13193,-0.649463 z m 61.96138,2.229413 c -0.39215,-0.634507 -1.62194,-0.915954 -2.73288,-0.625438 -1.95838,0.512129 -1.99406,0.26361 -1.17188,-8.162882 0.4664,-4.780101 0.73454,-11.67408 0.59587,-15.319953 -0.26008,-6.837611 0.7647,-8.597681 4.23136,-7.267398 2.6161,1.003891 2.51355,4.848591 -0.43733,16.396258 l -2.93871,11.5 2.12481,1.775004 c 1.16864,0.976252 1.88112,2.018696 1.58328,2.316536 -0.29784,0.29784 -0.86238,0.0224 -1.25452,-0.612127 z m 219.40211,-6.42336 c -0.24417,-0.244171 -8.75667,-1.6273 -18.91667,-3.073621 -24.14901,-3.437719 -28.9891,-5.442666 -24.01217,-9.946733 2.35199,-2.128523 1.28912,-2.282644 29.75829,4.315085 C 416.9392,87.682853 427.8517,90 428.96884,90 c 3.6068,0 2.15831,1.730552 -2.41166,2.881285 -4.65153,1.171269 -7.91708,1.425485 -8.66779,0.674768 z M 265.85956,89.25 c -1.95048,-2.0625 -6.15133,-7.502979 -9.33522,-12.089953 l -5.78888,-8.339954 2.13564,-2.135637 2.13564,-2.135636 3.62012,1.949563 c 1.99106,1.07226 3.975,2.861275 4.40874,3.97559 0.43374,1.114315 1.81727,4.726027 3.07451,8.026027 1.25724,3.3 3.59479,7.237882 5.19455,8.750848 C 274.40647,90.184363 274.37203,93 271.23433,93 c -1.00564,0 -3.42429,-1.6875 -5.37477,-3.75 z m 3.16076,-6.210162 c -2.75871,-5.407534 -2.5645,-5.724821 1.38278,-2.259065 1.8717,1.643376 3.97637,3.179051 4.67705,3.412609 C 276.90523,84.801744 275.24567,87 272.96131,87 c -1.23078,0 -2.64635,-1.422458 -3.94099,-3.960162 z M 203.12619,73.235786 C 201.9237,70.988924 203.95583,68 206.68593,68 c 1.08099,0 3.00939,1.111232 4.28533,2.469405 l 2.31988,2.469404 -2.71067,1.030596 c -3.95772,1.504725 -6.38416,1.265925 -7.45428,-0.733619 z M 351,72.267941 c -1.375,-0.894935 -4.75,-3.727463 -7.5,-6.294506 -2.75,-2.567043 -6.4625,-5.666863 -8.25,-6.888487 C 333.4625,57.863323 332,55.994454 332,54.931906 332,53.869358 332.25601,53 332.56892,53 c 0.3129,0 4.4754,2.776515 9.25,6.170034 4.77459,3.393518 10.17298,6.628044 11.99642,7.187835 4.34727,1.3346 6.14386,4.467578 3.62014,6.312966 -2.2991,1.681148 -3.33295,1.616423 -6.43548,-0.402894 z M 287,66.57577 c -2.475,-1.282109 -5.98837,-2.652593 -7.80748,-3.04552 -2.64996,-0.572386 -3.24636,-1.143408 -3,-2.872331 0.4406,-3.092181 3.98353,-3.222111 7.4865,-0.274555 1.62515,1.367478 4.79037,3.220765 7.03382,4.118415 4.03665,1.615145 4.14279,1.599889 10.22282,-1.4693 C 306.60328,60.171474 309,59.848755 309,61.946615 c 0,0.852895 -14.71166,7.105083 -16.5,7.0122 -0.55,-0.02857 -3.025,-1.100936 -5.5,-2.383045 z M 348.2532,62.75 C 344.7786,60.321069 344.1444,59 346.45295,59 349.30054,59 353,61.350931 353,63.160515 c 0,2.392291 -0.84147,2.319519 -4.7468,-0.410515 z m -65.26877,-4.268758 c -1.03151,-1.242892 -0.93478,-1.878628 0.53255,-3.5 3.42893,-3.78893 6.80631,-1.649787 4.04616,2.562734 -1.86495,2.846276 -2.83036,3.043896 -4.57871,0.937266 z m 44.38986,-4.948253 c -0.30962,-0.806856 -0.36997,-2.044356 -0.1341,-2.75 0.23587,-0.705644 0.66592,-0.04549 0.95566,1.467011 0.56574,2.953223 0.099,3.682039 -0.82156,1.282989 z"
       id="path2995"
       style="fill:#fefefe"
       inkscape:connector-curvature="0" />
    <path
       sodipodi:nodetypes="sssssssssssssssssssssssssssssss"
       d="m 362.47061,82.978698 c -7.81237,-3.086 -10.40973,-4.605623 -11.75,-6.874517 -2.38509,-4.037636 -2.17084,-4.483209 1.19865,-2.492804 2.76328,1.632308 3.05981,1.632356 5.54973,8.99e-4 2.01047,-1.317309 2.46998,-2.229201 1.94957,-3.868867 -0.67667,-2.132004 -0.66301,-2.13394 2.20027,-0.312016 1.58464,1.008315 3.78117,2.621831 4.88117,3.585589 1.1,0.963758 3.71076,2.613407 5.80169,3.665888 3.79525,1.910361 3.79821,1.916745 1.75,3.770353 -2.51303,2.274258 -2.61486,4.119383 -0.30169,5.466678 4.01443,2.338189 -1.66047,0.858408 -11.27939,-2.941203 z M 186,73.037023 c -2.475,-0.382663 -6.41822,-1.241424 -8.76272,-1.908357 -3.86272,-1.098817 -4.16021,-1.40415 -3.1703,-3.253823 1.29379,-2.417459 -0.90731,-5.49542 -4.42141,-6.182795 -1.41087,-0.275973 -1.02169,-0.466316 1.13655,-0.555866 1.80516,-0.0749 4.89762,0.538818 6.87212,1.363818 1.97657,0.825861 6.5952,1.5 10.27675,1.5 4.0795,0 7.41642,0.533544 8.5581,1.368365 1.80842,1.32235 1.79804,1.407602 -0.30887,2.535184 C 194.84521,68.618024 194,70.025908 194,71.535184 c 0,2.667 -0.20953,2.706335 -8,1.501839 z m 74.02822,-6.58606 c -4.10658,-2.899114 -4.79182,-2.974874 -7.19948,-0.795975 -1.00581,0.910243 -1.82874,1.1618 -1.82874,0.559017 0,-1.650058 1.77868,-2.510028 10,-4.834878 4.125,-1.16648 9.67858,-2.822302 12.34128,-3.679603 4.60935,-1.484056 4.76504,-1.474493 3.25,0.199614 -2.22898,2.462998 -1.9805,5.021328 0.57969,5.968404 2.73946,1.013394 1.46441,1.877619 -5.50988,3.734556 -6.78889,1.807572 -7.54832,1.732422 -11.63287,-1.151135 z"
       id="path2991"
       style="fill:#0000fe"
       inkscape:connector-curvature="0" />
    <path
       sodipodi:nodetypes="sssssssssssssssscccscccsssssssssccccssssccssccsccssccccssscccssssssscccsscccsssssccsccscccccssssssssssssssssssscssccsssssssssssssssssssssssssssssssssssssssssssssssssssssssssssccssssccccscscccscsssssscccsscsscccsssssssssssssscssssscscsssscccccssccc"
       inkscape:connector-curvature="0"
       id="path2989"
       d="m 279.62891,45.273438 c -0.75872,-0.0243 -1.49653,0.457996 -2.67579,1.55664 -1.26872,1.181997 -1.99492,2.460156 -1.61328,2.841797 0.38164,0.381642 1.22612,0.162553 1.87696,-0.488281 2.15895,-2.158953 2.69379,-1.227895 1.41601,2.46289 -1.1427,3.30059 -1.89685,3.858625 -7.97656,5.90625 -3.6935,1.243954 -9.06453,2.811562 -11.93555,3.482422 -5.91514,1.382171 -8.7207,3.380996 -8.7207,6.216797 0,2.344021 9.72544,16.586298 15.36328,22.498047 2.2292,2.3375 4.80452,4.25 5.72266,4.25 2.0897,0 4.25555,-2.510425 3.63867,-4.216797 -0.25523,-0.705992 0.26552,-2.127752 1.15625,-3.160156 1.5026,-1.741595 1.48026,-1.958156 -0.31445,-3 -4.09845,-2.379172 -10.36356,-8.777118 -10.79297,-11.023438 -0.40872,-2.138084 0.0612,-2.467369 5.13867,-3.59375 3.07332,-0.681781 6.89616,-1.910348 8.49609,-2.730468 2.71826,-1.393367 3.28763,-1.31078 8.66992,1.261718 l 5.75977,2.753907 8.0957,-3.263672 c 8.94156,-3.604346 10.00585,-4.517588 7.81836,-6.705078 -1.31399,-1.313985 -2.20238,-1.122432 -7.69531,1.65039 l -6.21094,3.134766 -4.42187,-1.689453 C 287.9912,62.48894 286,61.584056 286,61.408203 c 0,-0.175853 1.125,-1.97773 2.5,-4.003906 1.375,-2.026176 2.5,-4.262373 2.5,-4.970703 C 291,50.868866 286.26633,47 284.35156,47 c -0.75829,0 -2.21505,-0.522351 -3.23633,-1.160156 -0.56956,-0.355697 -1.03109,-0.551825 -1.48632,-0.566406 z M 330.69922,48 c -4.27813,0 -6.30068,4.426021 -3.19922,7 1.29067,1.07116 1.5,7.229666 1.5,44.134766 l 0,42.890624 -34.19141,-0.26172 -34.18945,-0.26367 -3.32422,-15 c -1.82746,-8.25 -3.42851,-17.7 -3.55859,-21 -0.20712,-5.2545 -0.48483,-6 -2.23633,-6 -2.52592,0 -2.55326,3.80212 -0.10156,14.5 0.94535,4.125 4.61226,21.675 8.14648,39 3.53423,17.325 6.66525,32.5125 6.95899,33.75 l 0.53515,2.25 -26.01953,0 C 226.70905,189 215,188.85606 215,188.67969 c 0,-0.6393 -7.84913,-39.25229 -8.52344,-41.92969 l -0.69336,-2.75 12.10742,0 c 16.0801,0 16.00372,-1.84835 -0.0918,-2.21875 L 205.59766,141.5 201.90234,124.21289 c -3.57242,-16.71235 -3.80667,-20.19308 -1.55664,-23.05664 0.7869,-1.00147 0.5079,-1.766552 -1.09179,-3 L 197.10742,96.5 199.70508,86 l 2.59765,-10.5 4.4375,0 C 211.92673,75.5 215,72.653213 215,67.849609 215,63.155326 205.38594,55 199.85156,55 c -2.42162,0 -0.32105,1.843216 3.35742,2.945312 l 4.20899,1.259766 -3.11328,1.308594 c -1.71222,0.719932 -3.41279,2.249813 -3.77735,3.398437 -0.77793,2.451047 -1.35669,2.532306 -3.96875,0.556641 C 195.30123,63.51773 192.26296,63 187.93164,63 c -3.68155,0 -8.30077,-0.674139 -10.27734,-1.5 -6.33235,-2.645826 -8.79127,-2.008147 -16.39258,4.25 -3.84125,3.1625 -9.85944,7.83964 -13.37305,10.394531 -10.86336,7.899178 -18.28738,14.924999 -20.71875,19.607422 -3.63745,7.005117 -0.0691,8.008477 6.66211,1.873047 L 136.16211,95.5 135.5,98.140625 c -1.21022,4.824905 1.46653,4.452795 6.37891,-0.886719 2.54165,-2.762641 8.89609,-8.539323 14.12109,-12.83789 5.225,-4.298566 10.93429,-9.24948 12.6875,-11.001954 l 3.1875,-3.1875 5.71875,1.886719 C 180.73841,73.150713 184.30842,74 185.5293,74 c 4.25613,0 8.34653,1.234017 8.90429,2.6875 0.30896,0.805148 0.0444,5.67498 -0.58789,10.820312 -1.1891,9.675949 -1.20689,9.498291 2.70508,26.992188 0.86093,3.85 4.45746,21.175 7.99219,38.5 3.53473,17.325 6.6672,32.5125 6.96094,33.75 l 0.53515,2.25 -50.01953,0 c -21.30285,0 -52.00004,-0.18786 -59.65117,-0.49414 l 0,1.01562 c 22.33696,0.0247 61.49057,0.0776 89.13164,0.0743 89.1,-0.0108 157.1625,-0.165 151.25,-0.34179 l -10.75,-0.32227 0,-65.54883 0,-65.548826 2.70117,1.966797 c 2.12161,1.545484 2.72304,2.836306 2.80274,6.013672 0.0829,3.305258 -0.31979,4.236531 -2.20118,5.09375 C 333.06014,71.929994 332.11042,74 333.88477,74 c 0.48713,0 2.15282,-0.656706 3.69921,-1.458984 2.03725,-1.056942 3.16769,-1.162728 4.10743,-0.382813 0.71332,0.592 2.34609,0.876085 3.6289,0.630859 1.85798,-0.355174 2.76711,0.308431 4.4668,3.261719 1.8322,3.183508 3.44677,4.235056 11.42383,7.435547 7.81464,3.135326 12.86168,4.258999 31.78906,7.083984 12.375,1.847017 24.075,3.622915 26,3.945313 4.38404,0.734239 12.5,-1.578022 12.5,-3.560547 0,-0.800814 -1.125,-1.600574 -2.5,-1.777344 C 427.625,89.000965 418.625,87.065729 409,84.875 371.62423,76.367969 372.47903,76.641826 364.46094,70.521484 362.04979,68.681008 358.7103,66.874876 357.03906,66.507812 354.68591,65.990972 354,65.299943 354,63.445312 354,60.542816 349.67754,58 344.74609,58 340.65438,58 333,52.730835 333,49.914062 333,48.584044 332.29789,48 330.69922,48 Z m -3.25,2.501953 c 0.23404,-0.04113 0.52879,0.613672 0.74609,1.748047 0.28974,1.5125 0.35077,2.75 0.13477,2.75 -0.75418,0 -1.51519,-2.944295 -1.08985,-4.216797 0.059,-0.176411 0.13098,-0.267541 0.20899,-0.28125 z M 332.56836,53 c 0.3129,0 4.4754,2.776403 9.25,6.169922 4.77459,3.393518 10.17265,6.627709 11.99609,7.1875 4.34727,1.3346 6.14482,4.467112 3.6211,6.3125 -0.99976,0.731041 -2.29458,1.306194 -2.87696,1.277344 -1.6991,-0.08417 -5.68696,-2.960352 -11.05859,-7.97461 -2.75,-2.567043 -6.4625,-5.667048 -8.25,-6.888672 C 333.4625,57.862359 332,55.994189 332,54.931641 332,53.869093 332.25545,53 332.56836,53 Z m -45.53711,0.01563 c 1.58402,0.07191 2.25634,1.896471 0.53125,4.529297 -1.86495,2.846276 -2.82977,3.042177 -4.57812,0.935547 -1.03151,-1.242892 -0.93413,-1.878628 0.5332,-3.5 1.28585,-1.420849 2.56326,-2.007991 3.51367,-1.964844 z m -9.76758,3.599609 c 0.42571,0.02615 0.0856,0.44615 -0.67187,1.283204 -2.22898,2.462997 -1.98011,5.021673 0.58008,5.96875 2.73946,1.013393 1.46257,1.877437 -5.51172,3.734374 -6.78889,1.807573 -7.54827,1.733167 -11.63282,-1.15039 -4.10658,-2.899114 -4.79156,-2.975774 -7.19922,-0.796875 C 251.82232,66.56454 251,66.817627 251,66.214844 c 0,-1.650058 1.77868,-2.511088 10,-4.835938 4.125,-1.16648 9.6791,-2.822386 12.3418,-3.679687 2.30467,-0.742028 3.49616,-1.110132 3.92187,-1.08398 z m 1.52344,1.640625 c 1.37868,-0.05056 3.14109,0.653176 4.89258,2.126953 1.62515,1.367478 4.78975,3.221491 7.0332,4.119141 4.03665,1.615145 4.14263,1.600439 10.22266,-1.46875 C 306.60317,60.172198 309,59.849406 309,61.947266 c 0,0.455719 -3.4875,2.230534 -7.75,3.945312 -4.2625,1.714779 -8.2,3.094976 -8.75,3.066406 -0.55,-0.02857 -3.025,-1.100703 -5.5,-2.382812 -2.475,-1.282109 -5.98753,-2.653948 -7.80664,-3.046875 -2.64996,-0.572386 -3.24636,-1.142171 -3,-2.871094 0.2203,-1.54609 1.21507,-2.351783 2.59375,-2.402339 z M 346.45312,59 C 349.30071,59 353,61.350572 353,63.160156 353,65.552447 352.15924,65.480034 348.25391,62.75 344.77931,60.321069 344.14457,59 346.45312,59 Z m -175.67187,2.136719 c 1.80516,-0.0749 4.89855,0.538281 6.87305,1.363281 1.97657,0.825861 6.59579,1.5 10.27734,1.5 4.0795,0 7.41496,0.53432 8.55664,1.369141 1.80842,1.32235 1.79832,1.407574 -0.30859,2.535156 C 194.84468,68.618772 194,70.02588 194,71.535156 c 0,1.731677 -0.52052,2.425901 -1.75,2.332032 -3.876,-0.295935 -10.98953,-1.593544 -15.01367,-2.738282 -3.86272,-1.098817 -4.15983,-1.404233 -3.16992,-3.253906 1.29379,-2.417459 -0.90583,-5.496219 -4.41993,-6.183594 -1.41087,-0.275973 -1.02347,-0.465137 1.13477,-0.554687 z m -1.35156,1.802734 c 1.44958,-0.08061 2.60457,0.397032 3.46484,1.433594 1.74934,2.107822 0.26756,4.528842 -4.88672,7.980469 -19.93361,13.348775 -31.80824,21.718369 -33.50586,23.617187 -1.0987,1.22892 -3.21273,2.862168 -4.69922,3.630859 -4.5451,2.350358 -4.6389,2.140928 -1.68554,-3.824218 2.08857,-4.218446 9.32531,-11.040144 19.99023,-18.84375 2.9659,-2.170173 8.20103,-6.19291 11.63281,-8.939453 4.0414,-3.234436 7.27349,-4.920335 9.68946,-5.054688 z m 85.57617,1.609375 3.62109,1.949219 c 1.99106,1.07226 3.97447,2.862247 4.40821,3.976562 0.43374,1.114315 1.81697,4.725391 3.07422,8.025391 1.25723,3.3 3.59555,7.237034 5.19531,8.75 1.73018,1.636299 2.67617,3.358254 2.33398,4.25 -1.69696,4.422191 -7.41875,-0.370282 -17.11523,-14.339844 l -5.78711,-8.339844 2.13476,-2.136718 z m -55.79883,3.0625 c 0.35276,-0.03141 0.4746,0.09329 0.29688,0.38086 C 199.16141,68.54636 199.3092,69 199.83203,69 c 2.18408,0 1.9066,5.175954 -0.85937,16 l -2.93946,11.5 2.125,1.775391 c 1.16864,0.976252 1.88183,2.018569 1.58399,2.316409 -0.29784,0.29784 -0.86372,0.0212 -1.25586,-0.613284 -0.39215,-0.634538 -1.62148,-0.915516 -2.73242,-0.625 -1.95838,0.512129 -1.99406,0.264382 -1.17188,-8.16211 0.4664,-4.780101 0.7365,-11.649834 0.59961,-15.265625 -0.23531,-6.215584 -0.10799,-6.638939 2.34766,-7.757812 0.74128,-0.337751 1.32497,-0.525228 1.67773,-0.556641 z M 206.68555,68 c 1.08099,0 3.00921,1.110577 4.28515,2.46875 l 2.32032,2.470703 -2.71094,1.029297 c -3.95772,1.504725 -6.38301,1.267122 -7.45313,-0.732422 C 201.92446,70.989466 203.95545,68 206.68555,68 Z m 152.7539,0.320312 c 0.23252,0.0056 0.62692,0.183009 1.2168,0.5 1.01455,0.545202 3.51741,2.323107 5.5625,3.951172 2.04509,1.628064 5.10167,3.531862 6.79297,4.232422 l 3.07422,1.275391 -2.16992,2.308594 c -2.22019,2.363285 -2.04299,5.478506 0.30273,5.333984 1.00366,-0.06184 1.01031,-0.188925 0.0312,-0.583984 -3.64745,-1.471779 1.14739,-6.832382 5.46094,-6.105469 1.5342,0.258541 12.78745,2.787072 25.00781,5.61914 C 416.93906,87.683632 427.85156,90 428.9687,90 c 3.6068,0 2.15786,1.730126 -2.41211,2.880859 -4.56119,1.148522 -7.24111,1.29954 -9.13672,0.513672 C 416.23133,92.901769 379.59409,87.171666 374,86.603516 c -1.925,-0.195509 -7.57198,-1.997428 -12.54883,-4.003907 -6.81505,-2.747571 -9.46878,-4.36035 -10.75,-6.529297 -2.36488,-4.003422 -2.14469,-4.445819 1.21875,-2.458984 2.76328,1.632308 3.05891,1.631457 5.54883,0 1.94691,-1.27569 2.46325,-2.249301 1.98633,-3.751953 -0.34343,-1.082029 -0.40315,-1.548459 -0.0156,-1.539063 z M 166.7832,74.236328 c 0.0939,0.194115 -3.86983,3.591644 -13.35156,11.498047 -6.63801,5.535155 -12.83627,11.235721 -13.77344,12.666016 -2.39977,3.662519 -3.9727,3.335589 -3.13281,-0.650391 0.84295,-4.000527 -0.40631,-2.880801 14.36523,-12.871094 6.81449,-4.608771 13.33949,-9.025331 14.5,-9.816406 0.87893,-0.599123 1.36127,-0.890877 1.39258,-0.826172 z m 100.52735,4.277344 c 0.35721,-0.04139 1.36486,0.75131 3.09179,2.267578 1.8717,1.643376 3.97706,3.178551 4.67774,3.412109 0.70067,0.233559 0.94195,0.960194 0.53711,1.615235 -1.53583,2.485033 -4.566,1.212841 -6.59766,-2.769532 -1.55177,-3.041737 -2.16826,-4.47217 -1.70898,-4.52539 z M 260.7832,144 l 34.10742,0 34.10938,0 0,22.5 0,22.5 -29.5,0 c -16.225,0 -29.5,-0.14394 -29.5,-0.32031 0,-0.6393 -7.84915,-39.25229 -8.52344,-41.92969 z"
       style="fill:#000000" />
    <g
       transform="translate(83.93631,-251.40226)"
       id="g4301">
      <path
         sodipodi:nodetypes="cscscssscccssccscccsccccsssssscccccsscc"
         style="fill:#000000"
         d="m 15.08594,309.04492 c -0.66285,0.0344 -1.48751,0.44209 -2.89649,1.24414 -3.30647,1.88218 -4.36959,4.00096 -1.39257,2.77539 0.96249,-0.39625 2.64999,-0.96177 3.75,-1.25586 1.82075,-0.48677 1.7832,-0.2976 -0.42383,2.11329 -1.33338,1.45647 -2.97992,2.64843 -3.66016,2.64843 -2.21376,0 -6.36577,6.01163 -7.81445,11.31641 -0.77855,2.85093 -1.9713,9.99925 -2.650393,15.88476 -1.50983,13.08538 -0.996943,14.68979 7.076173,22.16407 l 5.77734,5.34765 6.66211,32.89453 c 3.66364,18.09134 6.8827,33.66656 7.1543,34.61133 0.44342,1.54245 -0.7104,1.74838 -11.3125,2.03321 -4.59279,0.12338 29.50254,0.11316 81.23828,0.17546 l 0,-0.42742 -12.52734,0 c -29.71048,0 -54.01955,-0.14394 -54.01953,-0.32031 0,-0.6393 -7.84915,-39.25227 -8.52344,-41.92969 l -0.69336,-2.75 19.10937,0 c 12.07227,0 19.10741,-0.36822 19.10743,-1 0,-0.56874 -3.12663,-1.02755 -7.25,-1.06445 l -7.25,-0.0644 -6.18946,-7.18555 c -5.79677,-6.72903 -10.11413,-12.08266 -19.81054,-24.5625 -5.7602,-7.41363 -7.14408,-17.24958 -4.22657,-30.03516 1.09496,-4.79852 1.53061,-5.42608 3.84375,-5.52734 4.17782,-0.18289 9.88282,-5.1213 9.88282,-8.55469 0,-3.31643 -3.08582,-6.00586 -6.89258,-6.00586 -1.34681,0 -3.21171,-0.68883 -4.14258,-1.53125 -0.7619,-0.68951 -1.26293,-1.0285 -1.92578,-0.99414 z m 1.99804,66.95117 c 0.76277,-0.26022 13.00839,10.94315 15.56641,14.29688 l 2.49805,3.27734 -7.08203,0 c -4.78453,0 -7.21252,-0.40555 -7.48438,-1.25 -0.53079,-1.64877 -3.53518,-15.46855 -3.53515,-16.26172 0,-0.0329 0.0125,-0.0541 0.0371,-0.0625 z"
         id="path4296"
         inkscape:connector-curvature="0" />
      <g
         id="g4286"
         transform="translate(-100,0)">
        <path
           id="path4276"
           d="m 137.35072,392.92593 c -0.65826,-0.26766 -5.67846,-4.84463 -11.15601,-10.17105 l -9.95918,-9.68439 -1.51434,-7.49632 c -0.83288,-4.12298 -1.34368,-7.66699 -1.13509,-7.87557 0.44282,-0.44283 4.66973,4.46694 8.85972,10.291 3.71013,5.15705 16.82813,20.69398 18.98003,22.4799 0.89193,0.74023 1.62169,1.74078 1.62169,2.22343 0,0.91945 -3.64232,1.06842 -5.69682,0.233 z"
           style="fill:#fefefe"
           inkscape:connector-curvature="0" />
        <path
           id="path4274"
           d="m 106.62165,364.64639 c -3.81078,-3.9026 -5.223,-8.69315 -3.92837,-13.3259 0.53683,-1.92104 3.84661,-2.38041 4.89767,-0.67975 0.63826,1.03272 4.42074,15.65258 4.44478,17.17975 0.0255,1.61973 -1.74873,0.57956 -5.41408,-3.1741 z"
           style="fill:#fefefe"
           inkscape:connector-curvature="0" />
        <path
           id="path4272"
           d="m 110.61547,350.64555 c -1.46719,-1.62123 -1.71722,-3.62028 -1.53289,-12.25613 0.12114,-5.67541 -0.11981,-12.44844 -0.53545,-15.05118 -0.64265,-4.02434 -0.49182,-4.8335 1.00828,-5.40914 0.97019,-0.3723 2.49031,-0.21388 3.37805,0.35203 2.05892,1.31251 1.98526,5.93082 -0.28954,18.15541 -1.41549,7.6067 -1.51599,9.91381 -0.53503,12.28207 1.49876,3.61831 0.82454,4.48826 -1.49342,1.92694 z"
           style="fill:#fefefe"
           inkscape:connector-curvature="0" />
        <path
           id="path4258"
           d="m 116.60507,324.32049 c -1.61348,-5.31165 -1.46759,-5.75 1.91364,-5.75 1.80617,0 3.88695,0.72658 4.62395,1.61462 1.1488,1.38422 1.00777,1.88364 -0.98834,3.5 -2.68366,2.1731 -5.00154,2.43849 -5.54925,0.63538 z"
           style="fill:#fefefe"
           inkscape:connector-curvature="0" />
        <path
           style="fill:#fe0000"
           id="path2993-8"
           d="m 81.047541,343.9024 c 0,-4.14291 2.94911,-15.16491 5.63402,-21.05655 3.68202,-8.07967 10.76848,-17.78728 13.748109,-18.83328 1.47951,-0.51939 1.59267,-0.83962 0.52896,-1.49703 -0.74424,-0.45997 -1.141199,-1.01897 -0.88213,-1.24222 0.92905,-0.80061 7.30391,-2.70329 7.70693,-2.30027 0.36857,0.36856 -2.352,6.39369 -3.41744,7.56848 -0.23496,0.25907 -0.8334,-0.18622 -1.32988,-0.98953 -0.72002,-1.16503 -1.8499,-0.45095 -5.583849,3.52896 -5.84252,6.22738 -11.76579,18.77284 -13.3789,28.33645 -0.66359,3.93419 -1.61586,7.15308 -2.11617,7.15308 -0.50031,0 -0.90965,-0.30064 -0.90965,-0.66809 z"
           inkscape:connector-curvature="0" />
        <path
           id="path4284"
           d="m 100.45334,356.0512 c -0.887679,-3.53682 2.17824,-26.40065 4.22671,-31.52029 l 1.69995,-4.24859 1.22865,4.83892 c 0.77583,3.05552 1.03287,8.39192 0.69744,14.47935 -0.51637,9.37086 -0.59484,9.62827 -2.80637,9.20551 -2.91536,-0.55731 -4.8314,2.76135 -3.9393,6.82304 0.78621,3.57957 -0.21846,3.96258 -1.10708,0.42206 z"
           style="fill:#0000fe"
           inkscape:connector-curvature="0" />
      </g>
    </g>
  </g>
</svg>
