<?xml version="1.0" encoding="UTF-8" standalone="no"?>
<!-- Created with Inkscape (http://www.inkscape.org/) -->

<svg
   xmlns:dc="http://purl.org/dc/elements/1.1/"
   xmlns:cc="http://creativecommons.org/ns#"
   xmlns:rdf="http://www.w3.org/1999/02/22-rdf-syntax-ns#"
   xmlns:svg="http://www.w3.org/2000/svg"
   xmlns="http://www.w3.org/2000/svg"
   xmlns:sodipodi="http://sodipodi.sourceforge.net/DTD/sodipodi-0.dtd"
   xmlns:inkscape="http://www.inkscape.org/namespaces/inkscape"
   version="1.1"
   width="625"
   height="300"
   id="svg2"
   inkscape:version="0.91 r13725"
   sodipodi:docname="ub220500.svg">
  <sodipodi:namedview
     pagecolor="#ffc4c4"
     bordercolor="#666666"
     borderopacity="1"
     objecttolerance="10"
     gridtolerance="10"
     guidetolerance="10"
     inkscape:pageopacity="0"
     inkscape:pageshadow="2"
     inkscape:window-width="1704"
     inkscape:window-height="888"
     id="namedview11"
     showgrid="false"
     inkscape:zoom="1.4142136"
     inkscape:cx="343.82149"
     inkscape:cy="96.125046"
     inkscape:window-x="0"
     inkscape:window-y="0"
     inkscape:window-maximized="0"
     inkscape:current-layer="svg2" />
  <metadata
     id="metadata8">
    <rdf:RDF>
      <cc:Work
         rdf:about="">
        <dc:format>image/svg+xml</dc:format>
        <dc:type
           rdf:resource="http://purl.org/dc/dcmitype/StillImage" />
        <dc:title></dc:title>
      </cc:Work>
    </rdf:RDF>
  </metadata>
  <defs
     id="defs6" />
  <g
     id="g4216"
     transform="translate(-40.834538,1.0285588e-4)">
    <g
       id="g2987"
       transform="translate(22.177439,6.5449453)">
      <path
         sodipodi:nodetypes="sssssssssssssssssssssssssscscsssssssssscscsscssssscssssssssssssssssssssssssssssssssssssssscsssssssssssssssssssssssscsssssscssssssssss"
         d="m 240.25513,221.75 c -2.63392,-3.32646 -3.39991,-5.87062 -2.20208,-7.31392 0.65551,-0.78985 1.53332,-1.43608 1.95068,-1.43608 0.6229,0 2.99627,7.47972 2.99627,9.44282 0,1.01602 -1.73944,0.57698 -2.74487,-0.69282 z m -7.21103,-12.39983 c -1.1844,-2.0074 -5.90982,-8.93923 -10.50094,-15.40407 -9.72188,-13.68954 -10.4763,-15.37633 -7.57225,-16.93053 4.12986,-2.21024 7.38981,1.28469 16.66011,17.86095 8.10354,14.48999 8.52747,15.53442 6.81394,16.78739 -2.61653,1.91325 -3.00509,1.74679 -5.40086,-2.31374 z M 373.44063,159.75 c -1.1734,-2.67666 -6.41237,-8.83209 -14.15187,-16.62745 C 352.52994,136.31495 347,130.42468 347,130.03306 c 0,-1.30914 4.55523,-2.80683 7.5447,-2.48058 2.22831,0.24318 5.43273,2.85937 13.02629,10.63502 11.12944,11.39633 12.9054,13.78828 13.78216,18.5625 0.87475,4.76326 -0.79199,3.9727 -4.21659,-2 C 373.9364,149.16874 363,134.16495 363,135.35587 c 0,0.38904 2.41965,3.95563 5.377,7.92574 6.68969,8.98061 7.25698,10.09376 8.13785,15.96839 0.89529,5.97082 -0.57134,6.20936 -3.07422,0.5 z m -173.01527,0.48469 c -0.59105,-0.40408 -3.42285,-5.68469 -6.29288,-11.73469 -2.87004,-6.05 -5.64895,-11.78139 -6.17536,-12.73643 -0.52642,-0.95504 -0.95712,-2.86754 -0.95712,-4.25 0,-1.91046 -0.53987,-2.53749 -2.25,-2.61325 -2.15857,-0.0956 -2.14841,-0.13222 0.25,-0.90032 1.375,-0.44035 1.825,-0.84488 1,-0.89896 -1.18194,-0.0775 -1.42826,-1.24938 -1.16168,-5.52681 0.18608,-2.98567 -0.15814,-8.6283 -0.76493,-12.53919 -1.27389,-8.21041 -0.33324,-11.35503 3.24427,-10.845724 1.88767,0.268734 2.1424,0.850785 1.88658,4.310684 -1.84094,24.89749 -1.82112,25.77987 0.68516,30.5 6.48084,12.2055 11.43456,19.98225 13.65544,21.43742 2.95031,1.93312 3.15613,4.11707 0.5209,5.5274 -2.27548,1.2178 -2.25594,1.21635 -3.64038,0.26987 z M 127.5,157.97029 c -1.65,-0.45375 -9.66435,-2.89264 -17.80968,-5.41978 -8.14532,-2.52713 -15.146422,-4.38666 -15.558006,-4.13228 -0.411585,0.25437 -0.849955,-1.25973 -0.974155,-3.36466 l -0.225819,-3.82716 8.28383,2.31482 c 10.50958,2.93678 20.58751,4.74808 22.44723,4.03444 0.80204,-0.30777 1.16969,-0.11462 0.82952,0.43578 -0.35817,0.57954 0.8385,0.98855 2.8923,0.98855 2.244,0 4.4938,0.85203 6.25897,2.37037 2.69614,2.31912 2.71847,2.4272 1.03271,5 -1.82226,2.78111 -2.40731,2.91154 -7.1769,1.59992 z M 194.2,155.8 c -0.66,-0.66 -1.19832,-2.3475 -1.19626,-3.75 0.004,-2.49243 0.0488,-2.47607 2,0.72417 1.09794,1.80079 1.99626,3.48829 1.99626,3.75 0,0.89188 -1.59698,0.47885 -2.8,-0.72417 z m -36.63142,-4.1262 c -2.76298,-2.02033 -1.18504,-5.31927 3.2292,-6.75116 2.03622,-0.66051 7.68201,-3.18907 12.5462,-5.61902 4.91811,-2.45688 9.80105,-4.24883 11,-4.0368 2.08067,0.36797 2.08754,0.41147 0.1964,1.24467 -3.28537,1.44747 -15.96176,10.08639 -17.47392,11.90843 C 165.857,149.87723 160.86225,153 159.74079,153 c -0.19719,0 -1.17469,-0.59679 -2.17221,-1.3262 z m 9.98091,-1.59373 c -0.3127,-0.50595 0.64498,-1.87448 2.12819,-3.04117 2.39994,-1.88779 2.79488,-1.94587 3.58852,-0.52772 1.64264,2.93524 -3.95037,6.4269 -5.71671,3.56889 z M 113,145.45632 c -13.409555,-2.79693 -19.459877,-4.8902 -19.840034,-6.8642 -0.288213,-1.49657 0.01787,-1.7231 1.48861,-1.10172 4.169098,1.76143 12.315084,4.59152 19.851424,6.89681 8.89743,2.72163 8.3372,3.12092 -1.5,1.06911 z M 85.974976,143.75 C 81.97537,141.04007 81.063391,139 83.851567,139 88.038804,139 91,140.85385 91,143.47525 c 0,3.10376 -0.786226,3.14675 -5.025024,0.27475 z m 2.103993,-5.02408 c -3.719055,-1.88319 -4.042211,-4.18449 -0.461396,-3.28577 3.507269,0.88027 3.645474,1.00718 3.220824,2.9575 -0.284454,1.30643 -0.72433,1.35876 -2.759428,0.32827 z M 321.5,134.9018 c -3.3718,-1.63221 -5.72755,-1.88575 -15,-1.61441 -6.05,0.17705 -11.7875,0.68296 -12.75,1.12425 -1.24549,0.57103 -1.75,0.3699 -1.75,-0.69766 0,-2.14369 1.85075,-2.61023 12.78573,-3.22304 5.34285,-0.29942 12.5054,-0.76771 15.91679,-1.04065 5.48532,-0.43888 6.3277,-0.26234 7.28518,1.52673 0.77101,1.44064 0.77455,2.5987 0.0123,4.02298 -1.27386,2.38023 -1.3835,2.37858 -6.5,-0.0982 z m -144.32488,-1.90821 c -1.27869,-1.0645 -6.79053,-3.63603 -12.24854,-5.71452 -7.4344,-2.83113 -9.92403,-4.22591 -9.92512,-5.56045 -0.002,-2.58012 2.9066,-3.30141 5.90536,-1.4644 10.77025,6.59777 19.49615,10.71179 20.22354,9.53485 0.47365,-0.76638 0.69786,-0.11315 0.56307,1.64049 -0.27861,3.62478 -1.52476,4.05614 -4.51831,1.56403 z M 313,126.93963 c 0,-1.76868 0.5297,-2.01642 3.74168,-1.75 2.61495,0.21691 3.84155,0.83735 4.07333,2.06037 0.27185,1.43453 -0.40266,1.75 -3.74169,1.75 C 313.62689,129 313,128.68291 313,126.93963 Z m -149.10834,-5.88136 c -1.8499,-1.54056 -2.02298,-1.99927 -0.7641,-2.025 1.71303,-0.035 4.51417,2.65833 3.6566,3.5159 -0.27546,0.27546 -1.57708,-0.39544 -2.8925,-1.4909 z M 179.0318,109.25 c 0.0175,-1.5125 0.63928,-3.55073 1.38174,-4.52939 1.21285,-1.5987 1.41271,-1.61578 1.96819,-0.16821 0.34005,0.88615 0.61827,2.92437 0.61827,4.52939 0,2.25154 -0.4569,2.91821 -2,2.91821 -1.52286,0 -1.99241,-0.65607 -1.9682,-2.75 z m -45.3568,0.62793 c -1.00375,-0.58369 -2.08682,-0.79944 -2.40682,-0.47944 -0.32,0.32 -2.67143,-1.32625 -5.22539,-3.65834 -2.55396,-2.33208 -7.6529,-6.85186 -11.33098,-10.04395 -6.61488,-5.740847 -6.66991,-5.830518 -5.07342,-8.26706 l 1.61399,-2.463261 4.12381,3.331756 c 4.01713,3.245566 16.3386,11.744205 21.88409,15.094385 2.67782,1.61774 2.71439,1.75628 1.22432,4.63777 -1.68244,3.25346 -2.11023,3.41785 -4.8096,1.84814 z M 103.46757,85.272209 c -3.14216,-2.87789 -6.207552,-8.86556 -5.103794,-9.969318 0.673731,-0.673732 9.783054,6.637602 10.335754,8.295689 0.18008,0.540262 -0.24241,1.761591 -0.93887,2.714065 -1.17396,1.605473 -1.48705,1.529594 -4.29309,-1.040436 z M 183.4247,70.854391 c -1.38085,-2.670272 -1.60479,-6.712497 -1.48198,-26.75 0.13009,-21.224817 0.3554,-24.184052 2.23497,-29.354391 1.14966,-3.1625 2.48,-5.75 2.9563,-5.75 C 187.6103,9 188,11.591976 188,14.759946 c 0,5.758614 2.46096,39.136502 3.60747,48.928034 0.54528,4.656766 0.34515,5.450314 -1.95454,7.75 -3.31752,3.317519 -4.25638,3.229547 -6.22823,-0.583589 z"
         id="path2997-4"
         style="fill:#fefefe"
         inkscape:connector-curvature="0" />
      <path
         d="m 168.34157,229.52053 c -21.30339,-3.86571 -38.50791,-13.40766 -54.01943,-29.96017 -7.0512,-7.52442 -9.39715,-10.92511 -13.83849,-20.06036 -7.196113,-14.80144 -9.012427,-23.18953 -8.877922,-41 0.12243,-16.21152 1.901572,-24.38601 8.261191,-37.95709 4.975841,-10.618158 8.732321,-16.06224 17.324541,-25.107613 7.24279,-7.624781 21.8098,-18.476607 21.80675,-16.245145 -9.8e-4,0.720416 -2.13848,2.653677 -4.75,4.296136 -7.20357,4.530535 -20.44234,17.70921 -25.77621,25.659214 -5.41764,8.074859 -10.33354,19.138258 -13.043349,29.354498 -2.594135,9.78014 -2.603602,32.19136 -0.01771,41.91554 4.344451,16.33716 10.939919,28.06362 22.452229,39.91915 15.74805,16.21755 35.95602,26.04833 58.01191,28.22166 3.9187,0.38614 7.12492,1.09393 7.12492,1.57286 0,1.19735 -6.102,0.94397 -14.65843,-0.60868 z M 186,230.13793 c 0,-0.47414 3.37715,-1.1681 7.50478,-1.54213 11.03178,-0.99968 21.79123,-4.0271 32.31877,-9.09364 7.98255,-3.84172 10.64339,-5.81702 18.5,-13.73367 7.99985,-8.06098 8.88796,-9.28895 6.92645,-9.57708 -1.2375,-0.18178 -2.25,-0.66587 -2.25,-1.07575 0,-0.94284 6.57891,-4.11566 8.53393,-4.11566 1.84374,0 1.83222,0.56912 -0.12793,6.32186 -1.51528,4.44709 -3.406,6.27332 -3.406,3.28981 0,-0.76358 -3.96846,2.50526 -8.8188,7.2641 -9.34313,9.16686 -15.65754,13.11671 -28.0191,17.5268 C 205.79618,229.45744 186,232.46566 186,230.13793 Z m 130.66667,-71.8046 c -1.16087,-1.16086 -0.7254,-2.17537 1.08333,-2.5238 1.33056,-0.25632 0.90048,-0.86219 -1.79437,-2.5278 -2.4281,-1.50074 -4.45265,-4.091 -6.42831,-8.22457 -1.58616,-3.31863 -2.57869,-6.33912 -2.20563,-6.71219 0.81474,-0.81473 0.58209,-1.16234 3.87415,5.78851 2.73543,5.77556 8.80416,11.58957 8.80416,8.43461 0,-2.40173 1.29254,-1.87293 3.5,1.43191 1.1,1.64684 2.3375,2.99554 2.75,2.99712 0.4125,0.002 0.75,0.45288 0.75,1.00288 0,1.10166 -9.2661,1.40056 -10.33333,0.33333 z"
         id="path2993-3"
         style="fill:#fe0000"
         inkscape:connector-curvature="0" />
      <path
         sodipodi:nodetypes="cssssssssccssssssssscssscsssscccscsccssssccsssssscssscs"
         d="M 207.84084,175.74063 C 202.96723,170.09555 200,165.08132 200,162.49064 c 0,-0.88477 0.46979,-1.31833 1.04398,-0.96346 1.46491,0.90536 5.95602,-2.24102 5.95602,-4.17268 0,-2.73393 2.84706,0.40173 5.97954,6.58567 1.54898,3.05791 4.21226,7.30921 5.9184,9.44733 3.75415,4.7047 3.84153,5.14313 0.60206,3.02054 -2.32121,-1.52091 -2.6844,-1.51723 -5.07842,0.0514 -1.51473,0.99249 -2.35275,2.27754 -2.03139,3.11501 0.86503,2.25424 0.28385,1.76446 -4.54935,-3.83381 z m -72.33349,-19.11151 c 1.63941,-2.50205 1.64557,-2.80267 0.0925,-4.51879 -1.58485,-1.75124 -1.47247,-1.86408 2.36981,-2.37944 2.21846,-0.29755 6.46442,-1.54854 9.43546,-2.77997 5.92386,-2.4553 9.09544,-2.10341 8.14116,0.90328 -0.80911,2.54926 0.33164,5.1458 2.26071,5.1458 4.39087,0 -1.44956,1.87222 -10.77154,3.45295 -5.7555,0.97596 -11.099,2.01794 -11.87444,2.31551 -1.05396,0.40444 -0.96652,-0.13565 0.34634,-2.13934 z m 193.04067,-21.06206 c 1.76864,-2.6993 0.87825,-5.60284 -2.31028,-7.53374 -1.27716,-0.77341 0.91273,-0.99038 8.26226,-0.81859 5.5,0.12856 11.575,-0.11712 13.5,-0.54594 l 3.5,-0.77968 -2.75,1.58738 c -3.29571,1.90239 -3.47053,3.56158 -0.64466,6.11852 2.09968,1.89987 2.08692,1.90818 -4.75,3.09354 -3.77044,0.6537 -9.00321,1.2162 -11.62839,1.25 l -4.77306,0.0615 1.59413,-2.43294 z M 147.37265,121.09347 c -3.37004,-2.13815 -6.44296,-4.39822 -6.82872,-5.02238 -0.38575,-0.62417 -2.70825,-2.0782 -5.16111,-3.23118 -2.45286,-1.15297 -4.25598,-2.30009 -4.00693,-2.54914 0.24905,-0.24904 1.47371,0.0936 2.72146,0.76133 1.95464,1.04609 2.50922,0.91704 4.00677,-0.93236 0.95597,-1.18057 1.88734,-2.59413 2.06971,-3.14124 0.41294,-1.23882 15.87427,6.41266 17.5583,8.68922 1.03275,1.39612 0.87092,1.84841 -1,2.79494 -1.50136,0.75957 -2.21922,2.01454 -2.19271,3.83331 0.0217,1.48722 -0.20332,2.69975 -0.5,2.69453 -0.29668,-0.005 -3.29673,-1.75889 -6.66677,-3.89703 z m 34.08356,-22.411902 c -0.35973,-1.433299 -0.14817,-6.407493 0.47013,-11.053765 0.77321,-5.810305 0.81172,-9.802755 0.12337,-12.787785 -1.43945,-6.24214 -1.28744,-6.742189 0.93933,-3.090018 2.31906,3.803536 2.89273,3.917441 6.28618,1.248153 l 2.54493,-2.001847 0.71487,8.581928 c 0.99421,11.935264 -0.66755,22.252416 -2.98117,18.508898 -1.11304,-1.800938 -4.34275,-1.226608 -5.94201,1.056652 l -1.50156,2.143786 z"
         id="path2991-9"
         style="fill:#0000fe"
         inkscape:connector-curvature="0" />
      <path
         sodipodi:nodetypes="ssssssssssscsccccsssscccsscssssssssssscssccscssssssssssssssssssssssssssccssccsccssssssccccssscssssssccccssssscsscssssssssssssscsscscscccssssssssssssssccssscccssssssssssssscsssscssscscssssssscsscssccsscssscsssccsssscccsssssssscccssssssssscsssccscsssscccsssssssscssscscccsssssssssssccsssscsssssssssssssssssscsssscssccscssscccsssscssssccsssssccccccsscccccccssccc"
         inkscape:connector-curvature="0"
         id="path2989-7"
         transform="translate(-22.177439,-6.5449453)"
         d="m 208.96875,14.927734 c -0.84469,0.105455 -1.94577,2.116385 -3.41602,5.91211 -2.10737,5.440554 -2.25911,7.493234 -2.48632,33.560547 -0.13311,15.270696 0.0884,28.29786 0.49218,28.951171 0.40377,0.653311 0.19943,5.594377 -0.45312,10.978516 -1.05919,8.739292 -1.43932,9.908992 -3.55664,10.908202 -1.30445,0.6156 -3.17833,0.90765 -4.16211,0.65039 -1.99523,-0.52176 -4.6147,1.98205 -5.6582,5.40625 -0.91839,3.01368 0.81855,2.86172 2.85742,-0.25 2.31866,-3.53871 3.56337,-3.09813 2.89453,1.02344 -0.77823,4.79567 1.67852,7.47656 6.85156,7.47656 l 3.8457,0 0,6.18555 c 0,4.90621 -0.43498,6.648 -2.09961,8.41992 l -2.09765,2.23438 -5.88477,-3.16993 c -3.23656,-1.74323 -5.89334,-3.66337 -5.90234,-4.26562 -0.028,-1.84333 -3.75828,-4.60209 -5.69141,-4.20899 -1.16399,0.2367 -2.45407,-0.63879 -3.56445,-2.41992 -1.02032,-1.63666 -4.01824,-3.79797 -7.24414,-5.22461 -3.02637,-1.33841 -8.09336,-4.09934 -11.25977,-6.13476 -7.32272,-4.70716 -20.70969,-13.775153 -25.25586,-17.107424 l -3.5,-2.566407 3.5,3.089844 c 3.21303,2.836801 15.63416,11.512437 22.25977,15.546877 2.69759,1.64261 2.72563,1.75045 1.18359,4.73242 -1.16165,2.24638 -2.02311,2.86261 -3.26171,2.33984 -0.92534,-0.39054 -2.47807,-0.79371 -3.45118,-0.89648 -0.9731,-0.10277 -3.4481,-1.74832 -5.5,-3.6582 -2.05189,-1.90988 -7.10547,-6.32204 -11.23047,-9.80469 -9.19458,-7.762796 -1.72234,-0.4963 10.44532,10.1582 4.86787,4.2625 9.41569,7.75 10.10742,7.75 0.69173,0 3.13468,1.5689 5.42969,3.48633 2.29502,1.91744 6.38729,4.72994 9.09375,6.25 2.86316,1.60808 4.92128,3.47119 4.92187,4.45508 5.6e-4,0.93004 0.47407,1.98147 1.05078,2.33789 1.33274,0.82368 -0.70511,3.4707 -2.67187,3.4707 -1.89766,0 -1.78466,5.41679 0.14648,7.01953 0.83829,0.69572 1.85079,0.915 2.25,0.48633 0.3992,-0.42868 0.16406,-0.98102 -0.52344,-1.22656 -1.92421,-0.68722 -1.48145,-4.08544 0.6836,-5.24414 1.06384,-0.56935 3.20134,-1.03706 4.75,-1.03906 1.54866,-0.002 4.29292,-0.90358 6.09765,-2.00391 3.2774,-1.99826 3.28547,-1.9994 7.18164,-0.0117 2.14546,1.09453 4.14171,2.38003 4.43555,2.85547 0.29383,0.47544 -3.56837,2.81464 -8.58203,5.19726 -7.06673,3.35828 -10.37505,4.36313 -14.7168,4.47657 -3.08359,0.0806 -7.08532,0.9233 -8.90429,1.87304 -6.87127,3.58767 -11.33285,3.22256 -29.69532,-2.42578 -9.35,-2.87608 -18.21598,-5.84364 -19.70117,-6.59375 -3.81843,-1.92852 -4.91872,-1.62221 -1.29883,0.36133 1.65,0.90412 7.725,3.14762 13.5,4.98633 8.68374,2.76483 9.63511,3.24776 5.5,2.79102 -2.75,-0.30375 -8.76154,-1.62606 -13.35937,-2.9375 -4.59784,-1.31145 -7.97283,-2.02067 -7.5,-1.57618 1.38561,1.30254 15.16748,4.7697 27.3457,6.87891 13.52668,2.34275 16.48991,4.2302 13.58985,8.65625 -1.40205,2.1398 -2.25526,2.53318 -4.40821,2.03516 -3.01937,-0.69844 -18.94385,-5.5351 -30.11523,-9.14649 -4.09629,-1.32422 -7.02129,-1.98921 -6.5,-1.47851 0.9433,0.92413 27.27005,9.33046 35.00586,11.17773 3.18201,0.75985 6.85405,0.44377 17,-1.46094 7.11772,-1.33621 13.7289,-2.75175 14.6914,-3.14648 1.07503,-0.44088 1.75,-0.26925 1.75,0.44531 0,0.63977 1.9125,2.01398 4.25,3.05469 2.3375,1.04071 4.81566,2.81695 5.50782,3.94531 1.46854,2.39402 4.06071,2.63496 6.79883,0.63281 2.53568,-1.85414 1.26055,-3.10853 -1.44336,-1.41992 -1.75677,1.09712 -2.33386,1.04505 -3.70508,-0.32617 -1.49929,-1.49929 -1.44594,-1.86726 0.70703,-4.7793 2.25236,-3.04649 2.28068,-3.30444 0.7832,-7.46875 l -1.55078,-4.3125 4.36719,-2.63672 c 2.40198,-1.45085 4.57358,-2.63867 4.82617,-2.63867 0.25258,0 0.45898,31.27028 0.45898,69.49024 l 0,69.49218 -50.75,0.26758 c -27.9125,0.14769 47.125,0.27462 166.75,0.28125 35.50465,0.002 66.69501,-0.0124 94.91797,-0.0312 l 0,-0.40001 c -4.87637,0.0314 -10.3172,-0.1 -16.48632,-0.1 -29.59481,0 -31.53434,-0.10935 -31.04883,-1.75 0.28483,-0.9625 2.09214,-9.625 4.01562,-19.25 1.92349,-9.625 5.5708,-27.4 8.10547,-39.5 6.56283,-31.32956 6.26544,-28.5 2.99609,-28.5 -2.57746,0 -2.72525,0.22578 -2.21484,3.3711 0.33332,2.05403 -0.90487,10.15736 -3.16992,20.75 l -3.7168,17.3789 -34.25,0.26367 -34.25,0.26368 0.30078,-51.01368 c 0.29748,-50.44729 0.27858,-51.01385 -1.69922,-51.01367 -1.98466,1.7e-4 -1.99902,0.57099 -1.71484,74.5 l 0.28711,74.5 -16.60352,0 c -15.34373,0 -16.5645,-0.13281 -16.08593,-1.75 0.28483,-0.9625 2.09214,-9.625 4.01562,-19.25 1.92349,-9.625 5.5708,-27.4 8.10547,-39.5 6.56283,-31.32956 6.26544,-28.5 2.99609,-28.5 -2.57746,0 -2.72525,0.22578 -2.21484,3.3711 0.33332,2.05403 -0.90487,10.15736 -3.16992,20.75 l -3.7168,17.3789 -34.19922,0.26367 -34.19922,0.26172 0,-47.48047 c 0,-44.38264 -0.11095,-47.43939 -1.70898,-46.82617 -2.7559,1.05754 -15.67452,9.83342 -17.22461,11.70117 -2.54426,3.06564 -6.85544,4.76468 -9.07617,3.57618 -1.09503,-0.58605 -1.99024,-1.69262 -1.99024,-2.45899 0,-1.70149 2.70491,-4.53925 4.32032,-4.53125 0.64821,0.003 5.97411,-2.30678 11.83398,-5.13281 7.50817,-3.62094 11.34698,-4.95749 13,-4.52539 2.92735,0.76521 6.86056,9.41876 6.85156,15.07422 -0.006,4.00089 2.17858,7.57812 4.62891,7.57812 0.72927,0 1.59755,1.2375 1.92773,2.75 1.30081,5.95872 3.14457,9.05842 9.96875,16.75 3.9038,4.4 10.98865,13.625 15.74219,20.5 4.75353,6.875 9.35638,13.4 10.23047,14.5 3.44779,4.33885 -5.66823,-9.72738 -12.76953,-19.70312 -8.88046,-12.47511 -9.63803,-14.24294 -6.76367,-15.78125 4.07845,-2.18272 7.3984,1.30774 16.11914,16.94531 4.45976,7.997 8.58009,14.98906 9.15625,15.53906 1.30106,1.24199 1.96254,2.49145 -9.25977,-17.5 -5.0943,-9.075 -10.35315,-17.80399 -11.68554,-19.39844 -1.33239,-1.59446 -3.703,-5.41946 -5.26758,-8.5 -1.56457,-3.08055 -4.22801,-6.91572 -5.91992,-8.52148 -2.36067,-2.24047 -2.81962,-3.22908 -1.97071,-4.25195 0.60845,-0.7331 0.83733,-2.67274 0.50977,-4.31055 -0.4619,-2.30952 -0.15742,-3.21286 1.35351,-4.02148 2.05946,-1.10219 4.48911,-4.83512 3.67579,-5.64844 -0.26457,-0.26456 -2.08028,1.11737 -4.03321,3.07031 -2.11051,2.1105 -3.8147,3.12336 -4.20117,2.49805 -0.3576,-0.57862 -2.21122,-0.91828 -4.11914,-0.75391 -3.36179,0.28964 -3.58203,0.0837 -7.14844,-6.68164 l -3.67969,-6.98047 0.64454,-11 c 0.71766,-12.25114 1.55956,-17.31386 3.23046,-19.41211 1.58468,-1.98997 1.22841,-22.480549 -0.80078,-46.087888 -0.92187,-10.725 -1.99024,-24.9 -2.375,-31.5 -0.48713,-8.356 -1.17365,-12.271313 -2.4082,-12.117188 z m 0.3418,0.617188 c 0.47631,0 0.86718,2.591795 0.86718,5.759766 0,5.758614 2.46092,39.136202 3.60743,48.927734 0.54528,4.656766 0.34461,5.450314 -1.95508,7.75 -3.31752,3.317519 -4.25667,3.229152 -6.22852,-0.583984 -1.38085,-2.670272 -1.60328,-6.712497 -1.48047,-26.75 0.13009,-21.224817 0.35481,-24.183177 2.23438,-29.353516 1.14966,-3.1625 2.47878,-5.75 2.95508,-5.75 z m -5.91602,60.474609 c 0.22044,-0.124833 0.79727,0.677566 1.77149,2.275391 2.31906,3.803536 2.89365,3.917335 6.2871,1.248047 l 2.54493,-2.001953 0.71484,8.582031 c 0.99421,11.935264 -0.6688,22.253283 -2.98242,18.509763 -0.36954,-0.59792 -1.51834,-1.08789 -2.55469,-1.08789 -1.03636,0 -2.56086,0.96545 -3.38672,2.14453 l -1.50195,2.14258 -0.6543,-2.60547 c -0.35973,-1.4333 -0.14759,-6.408413 0.47071,-11.054685 0.77321,-5.810305 0.81139,-9.802079 0.12304,-12.787109 -0.80969,-3.511204 -1.11545,-5.204735 -0.83203,-5.365235 z m -82.80273,5.13086 c -0.26939,-0.0039 -0.48064,0.06072 -0.62305,0.203125 -1.5133,1.513303 0.84385,6.961456 4.51758,10.441406 1.59672,1.5125 3.19253,2.734624 3.54687,2.714844 0.35433,-0.01978 -0.53948,-1.03228 -1.98632,-2.25 -3.79352,-3.192752 -7.37464,-10.714844 -5.10157,-10.714844 0.42195,0 3.23444,2.119586 6.25,4.710937 3.01555,2.591351 4.58242,3.667572 3.48242,2.390625 -3.49156,-4.053218 -8.20022,-7.468767 -10.08593,-7.496093 z m 88.26367,23.531249 c 0.2031,0.003 0.41508,0.0209 0.63867,0.0527 1.88758,0.26873 2.14254,0.85064 1.88672,4.31054 -1.84094,24.89749 -1.82073,25.77987 0.68555,30.5 6.48084,12.2055 11.43537,19.98233 13.65625,21.4375 2.95031,1.93312 3.15671,4.11702 0.52148,5.52735 -1.06384,0.56935 -2.07634,1.02753 -2.25,1.01953 -1.38531,-0.0672 -3.16283,-2.95467 -7.68359,-12.48438 -2.87004,-6.05 -5.64937,-11.78129 -6.17578,-12.73633 -0.52642,-0.95504 -0.95704,-2.86754 -0.95704,-4.25 0,-1.91046 -0.53987,-2.53748 -2.25,-2.61328 -2.15857,-0.0956 -2.14841,-0.13229 0.25,-0.90039 1.375,-0.44035 1.825,-0.84434 1,-0.89844 -1.18198,-0.0775 -1.42869,-1.24991 -1.16211,-5.52734 0.18609,-2.98567 -0.15883,-8.62817 -0.76562,-12.53906 -1.19427,-7.69726 -0.44099,-10.94255 2.60547,-10.89844 z m -5.0332,5.35742 c 0.271,-0.0232 0.45858,0.33481 0.73632,1.0586 0.34005,0.88615 0.61914,2.92427 0.61914,4.52929 0,2.25154 -0.4569,2.91797 -2,2.91797 -1.52286,0 -1.99295,-0.65607 -1.96875,-2.75 0.0175,-1.5125 0.64036,-3.55063 1.38282,-4.5293 0.60642,-0.79935 0.95946,-1.2034 1.23047,-1.22656 z m -41.22461,3.35352 c 2.04505,-0.1718 15.73372,6.68604 17.3125,8.82031 1.03303,1.39651 0.87144,1.8442 -1,2.77344 -1.28711,0.6391 -2.31737,2.15684 -2.4336,3.58398 l -0.19531,2.39063 c -2.93535,-0.81038 -11.30727,-5.75135 -13.17187,-7.99805 -0.72576,-0.87448 -3.2745,-2.50958 -5.66407,-3.63281 -2.38956,-1.12323 -4.14163,-2.24509 -3.89258,-2.49414 0.24905,-0.24904 1.47491,0.0939 2.72266,0.76172 1.95464,1.04609 2.50831,0.9158 4.00586,-0.9336 0.95597,-1.18057 1.88794,-2.59351 2.07031,-3.14062 0.0258,-0.0774 0.10976,-0.11941 0.2461,-0.13086 z M 343.84961,125.25 c -0.56924,-0.0155 -1.13099,0.002 -1.67188,0.0566 -5.60372,0.56667 -8,2.5921 -8,6.76367 l 0,3.2168 -8.90039,0.69531 c -9.55572,0.74753 -12.85328,2.15656 -11.7539,5.02149 0.47397,1.23515 1.18175,1.51527 2.41211,0.95312 0.95786,-0.43764 6.56566,-0.97378 12.46093,-1.19141 9.866,-0.3642 11.16857,-0.19039 16.3711,2.19141 6.39549,2.92795 10.43024,3.13148 21.41015,1.08203 l 7.5,-1.39844 9.14844,9.28516 c 5.29351,5.37313 10.26677,11.49231 11.80078,14.51953 2.81626,5.55762 4.84341,6.20379 5.37305,1.71094 0.26883,-2.2805 0.56739,-2.53277 1.79297,-1.51563 0.88126,0.73138 1.83229,0.85521 2.37695,0.31055 1.68665,-1.68665 -0.72593,-8.31133 -4.78515,-13.13672 -7.38243,-8.77585 -20.77313,-21.123 -23.70704,-21.85937 -1.58493,-0.39779 -4.85686,-0.19412 -7.26953,0.45117 -2.74445,0.73403 -7.28874,0.92986 -12.13867,0.52539 -7.42665,-0.61936 -7.79738,-0.76987 -8.86328,-3.59375 l -1.11328,-2.94727 2.40625,1.57618 c 2.69274,1.76435 3.47851,1.94343 3.47851,0.79297 0,-1.69064 -4.34347,-3.40144 -8.32812,-3.50977 z m -158.54492,0.32812 c 0.89515,-0.0183 2.19686,0.65194 2.89258,1.49024 1.97634,2.38134 0.5261,2.74621 -2.12891,0.53516 -1.8499,-1.54056 -2.02255,-1.99969 -0.76367,-2.0254 z m -5.04102,0.22852 c 1.24744,0.0668 2.81928,0.73771 4.73438,2.01172 2.02358,1.34618 6.78437,4.11537 10.58007,6.15234 5.32916,2.85991 7.0855,3.40531 7.70899,2.39649 0.50414,-0.81566 0.72382,-0.21189 0.58398,1.60742 -0.27751,3.61043 -1.52483,4.05696 -4.47265,1.60156 -3.01829,-2.5141 -20.84131,-9.38277 -22.1875,-8.55078 -0.15001,0.0927 -0.47308,0.0618 -0.91406,-0.0586 l 0.72265,-2.41602 c 0.57256,-1.91628 1.64029,-2.83005 3.24414,-2.74414 z m 156.71485,5.83984 c 0.50134,-0.0134 1.13841,0.0213 1.9414,0.0879 2.61495,0.2169 3.84049,0.83752 4.07227,2.06054 0.27185,1.43453 -0.40316,1.75 -3.74219,1.75 -3.44643,0 -4.07227,-0.31727 -4.07227,-2.06054 0,-1.32653 0.29675,-1.79771 1.80079,-1.8379 z m 36.69921,0.78711 -2.75,1.58789 c -3.29571,1.90239 -3.4704,3.56221 -0.64453,6.11914 2.09968,1.89988 2.08692,1.90839 -4.75,3.09376 -10.27464,1.78137 -15.20092,1.47418 -20.85547,-1.29883 -4.55886,-2.23567 -5.97051,-2.42311 -16,-2.11719 -6.05,0.18454 -11.7875,0.69738 -12.75,1.13867 -1.24549,0.57103 -1.75,0.3703 -1.75,-0.69726 0,-2.14369 1.84986,-2.6118 12.78516,-3.22461 5.34285,-0.29942 12.50658,-0.76613 15.91797,-1.03907 5.48532,-0.43888 6.32768,-0.26368 7.28516,1.52539 0.77761,1.45357 0.77563,2.65675 -0.008,4.27344 -1.04704,2.16063 -1.02854,2.17262 0.46485,0.3086 2.07984,-2.59601 1.98175,-3.22137 -0.95899,-6.16211 l -2.51367,-2.51368 9.76367,0.28321 c 5.36992,0.15575 11.33867,-0.0692 13.26367,-0.49805 z m 2.16993,0.20703 c 0.19646,0.0503 0.13602,0.4092 -0.19532,0.94532 -0.59355,0.96038 -0.31962,1.11377 1.05078,0.58789 1.46081,-0.56056 4.11633,1.57958 12.50391,10.08008 11.64077,11.79751 13.43075,14.17578 14.32422,19.04101 0.87475,4.76326 -0.7922,3.9727 -4.2168,-2 -3.20016,-5.58126 -14.13672,-20.58545 -14.13672,-19.39453 0,0.38904 2.41961,3.95567 5.37696,7.92578 6.68969,8.98061 7.25585,10.09412 8.13672,15.96875 0.89529,5.97082 -0.57134,6.20936 -3.07422,0.5 -1.1734,-2.67666 -6.41089,-8.83159 -14.15039,-16.62695 -6.75882,-6.8076 -12.28907,-12.69823 -12.28907,-13.08985 0,-0.60011 2.22841,-1.95408 6.38868,-3.88085 0.12225,-0.0566 0.21576,-0.0734 0.28125,-0.0566 z m -267.61133,8.26758 c -1.38894,0.10167 -2.17508,0.8892 -1.69336,2.14453 0.34051,0.88736 7e-4,1.49219 -0.83789,1.49219 -4.02051,0 -2.41586,3.86366 2.97265,7.1582 1.65,1.00881 3.45,1.81527 4,1.79297 0.55,-0.0223 -0.60805,-0.88933 -2.57226,-1.92773 -4.03122,-2.13116 -6.5454,-4.73974 -5.53906,-5.74609 0.3707,-0.3707 2.47621,-0.19166 4.67968,0.39648 4.2001,1.12107 4.45047,0.77549 0.77735,-1.07227 -1.20381,-0.60557 -2.38866,-1.71152 -2.63477,-2.45703 -0.34186,-1.03558 0.34642,-1.21049 2.91992,-0.74414 2.97491,0.53909 3.08383,0.48776 0.9336,-0.43164 -1.12282,-0.48009 -2.1725,-0.66647 -3.00586,-0.60547 z m 67.42578,10.96485 c 1.82964,-0.0159 2.59928,0.83412 2.0625,2.52539 -0.80911,2.54926 0.3307,5.14648 2.25977,5.14648 4.39086,0 -1.44951,1.8724 -10.77149,3.45313 -5.7555,0.97596 -11.09956,2.01688 -11.875,2.31445 -1.05396,0.40444 -0.9652,-0.13498 0.34766,-2.13867 1.63941,-2.50205 1.64486,-2.80146 0.0918,-4.51758 -1.58485,-1.75124 -1.47314,-1.8655 2.36914,-2.38086 2.21846,-0.29755 6.46451,-1.54787 9.43555,-2.7793 2.59169,-1.07419 4.65702,-1.61072 6.08008,-1.62304 z m 18.58984,0.20703 c 0.49794,-0.0732 0.79459,0.26749 1.19141,0.97656 0.56757,1.0142 0.45606,2.11967 -0.30859,3.04102 -1.34673,1.62271 -4.53898,1.93378 -5.40821,0.52734 -0.3127,-0.50595 0.6457,-1.87433 2.12891,-3.04102 1.19997,-0.94389 1.89855,-1.43068 2.39648,-1.5039 z m -51.1582,0.58789 c 0.3474,0.0143 0.64635,0.10729 0.8125,0.27344 0.33229,0.33229 -0.25834,0.56879 -1.3125,0.52539 -1.16495,-0.048 -1.40125,-0.28625 -0.60352,-0.60547 0.36094,-0.14446 0.75612,-0.20766 1.10352,-0.19336 z m 72.27148,4.15234 c 0.22323,-0.0945 0.71887,0.69791 1.81641,2.49805 1.09794,1.80079 1.99609,3.48829 1.99609,3.75 0,0.89188 -1.59776,0.48036 -2.80078,-0.72266 -0.66,-0.66 -1.19731,-2.3475 -1.19531,-3.75 0.002,-1.09044 0.01,-1.70188 0.18359,-1.77539 z m 14.30665,6.08594 c 0.94757,0.0184 3.13501,2.94018 5.48437,7.57813 1.54898,3.0579 4.21378,7.30914 5.91992,9.44726 3.75415,4.7047 3.84103,5.14408 0.60156,3.02148 -2.32121,-1.5209 -2.6841,-1.51783 -5.07812,0.0508 -1.51473,0.99249 -2.35261,2.27776 -2.03125,3.11523 0.30085,0.78406 0.42042,1.42578 0.26758,1.42578 -0.78704,0 -9.58427,-10.95616 -11.00782,-13.70898 -1.85625,-3.58961 -2.18895,-6.74111 -0.60742,-5.76367 1.46491,0.90536 5.95703,-2.24022 5.95703,-4.17188 0,-0.68348 0.17829,-1.00027 0.49415,-0.99414 z m 33.42578,56.11133 c -0.30788,0.0229 0.0242,2.00024 0.78906,4.60937 2.24533,7.65955 0.60341,7.76461 -4.48047,0.28711 -1.0743,-1.5801 -1.09265,-1.48321 -0.12109,0.63086 0.6319,1.375 1.83621,3.2875 2.67578,4.25 3.22538,3.69765 4.68452,1.49409 3.12109,-4.71484 -0.63267,-2.51256 -1.49365,-4.78119 -1.91406,-5.04102 -0.0263,-0.0162 -0.0498,-0.023 -0.0703,-0.0215 z m -54.91993,20.52734 34.10743,0 34.10937,0 -0.69336,2.75 c -0.67429,2.6774 -8.52344,41.29039 -8.52344,41.92969 0,0.17637 -13.275,0.32031 -29.5,0.32031 l -29.5,0 0,-22.5 z m 98,0 34.10743,0 34.10937,0 -0.69336,2.75 c -0.67429,2.6774 -8.52344,41.29039 -8.52344,41.92969 0,0.17637 -13.275,0.32031 -29.5,0.32031 l -29.5,0 0,-22.5 z"
         style="fill:#000000" />
    </g>
    <g
       transform="translate(-574.63652,-301.85226)"
       id="g4208">
      <path
         d="m 1060.9204,563.55026 c 0,-1.23139 0.9598,-2.12987 2.75,-2.5743 1.5125,-0.37548 10.797,-4.92427 20.6322,-10.1084 9.8352,-5.18414 18.4117,-9.42571 19.0589,-9.42571 2.6322,0 4.8585,2.67034 4.2494,5.09703 -0.5118,2.03928 -2.641,3.15846 -13.8975,7.30526 -7.3111,2.69337 -16.6189,6.40469 -20.6838,8.24737 -8.5118,3.85845 -12.1092,4.29182 -12.1092,1.45875 z m -6,-0.10841 c 0,-0.55 0.7016,-1 1.559,-1 0.8575,0 1.2809,0.45 0.941,1 -0.3399,0.55 -1.0415,1 -1.559,1 -0.5176,0 -0.941,-0.45 -0.941,-1 z m -74.25001,-23.20269 c -5.05384,-1.34228 -4.71962,-2.43033 1,-3.25553 2.6125,-0.37692 5.7625,-0.9268 7,-1.22195 1.87493,-0.44719 2.25,-0.12127 2.25,1.95513 0,3.60499 -3.2046,4.39358 -10.25,2.52235 z m 13.25,-2.57341 c 0,-1.79188 1.26788,-2.33913 9.75001,-4.20839 5.3625,-1.18177 11.0546,-2.56871 12.6492,-3.08209 4.4774,-1.44153 8.1284,-1.11287 9.9458,0.89532 2.4214,2.67561 2.0769,3.59757 -2.095,5.60736 -2.8022,1.34992 -7.0989,1.93807 -17,2.32702 -12.87988,0.50597 -13.25001,0.46297 -13.25001,-1.53922 z m 175.43821,-10.9928 c -3.334,-3.1521 -11.9882,-10.0061 -19.2316,-15.2311 -13.0516,-9.41478 -14.8127,-11.25709 -13.652,-14.2818 0.8586,-2.23743 2.8556,-2.74775 6.5765,-1.68061 3.9853,1.14297 29.5571,25.8142 32.0927,30.96241 3.7757,7.66643 2.1475,7.73147 -5.7856,0.2311 z m -125.6882,-3.3112 c -3.2278,-1.88003 -2.0906,-4.61584 2.5803,-6.20737 4.3387,-1.47836 16.7589,-9.70631 21.9197,-14.52109 3.1106,-2.90206 3.3387,-2.53627 1.3647,2.18821 -0.7619,1.82348 -2.8994,4.25434 -4.75,5.40191 -1.8506,1.14758 -4.9397,3.74025 -6.8647,5.76151 -3.4443,3.61655 -10.2229,8.48605 -11.7301,8.42652 -0.4235,-0.0167 -1.5574,-0.48908 -2.5199,-1.04969 z m 49.5654,-1.92688 c -1.2016,-0.48411 -2.6906,-1.82562 -3.309,-2.98112 -2.152,-4.02104 -16.2763,-21.51622 -17.8859,-22.15456 -1.4537,-0.57651 -1.439,-0.71671 0.1422,-1.36188 0.9695,-0.39557 2.3609,-0.22277 3.092,0.38399 0.7311,0.60676 1.5838,0.84869 1.8949,0.53762 0.5046,-0.50465 24.33,-6.7419 30.8073,-8.06507 3.0071,-0.61429 5.2955,1.56598 4.3178,4.11383 -0.4966,1.29408 -1.4283,1.5885 -3.7672,1.19034 -1.7091,-0.29094 -9.5376,0.42778 -17.3967,1.59715 l -14.2892,2.12614 8.2892,8.37592 c 4.5591,4.60675 9.7517,8.99841 11.5392,9.75924 3.5979,1.53141 4.2138,4.03327 1.5,6.09333 -2.0306,1.54146 -2.059,1.54368 -4.9346,0.38507 z m -45.3154,-6.99302 c 0,-1.53371 3.8129,-5 5.5,-5 2.2706,0 1.8036,1.61601 -1.1349,3.92742 -2.876,2.26226 -4.3651,2.62817 -4.3651,1.07258 z m 44.805,-2.62355 c -1.3145,-1.31447 -1.423,-2.12076 -0.5449,-4.04792 1.2258,-2.69045 3.4612,-2.72468 5.1276,-0.0785 0.7845,1.24578 0.7948,2.23707 0.036,3.44048 -1.5092,2.39254 -2.7305,2.57393 -4.6184,0.68597 z m 6.195,-25.44626 c 0,-2.44772 0.4058,-2.93019 2.4648,-2.93019 1.4414,0 2.9093,0.83045 3.5352,2 0.5887,1.1 0.9391,2 0.7786,2 -0.1605,0 -1.7513,0.41859 -3.5352,0.93019 -3.1316,0.89813 -3.2434,0.82917 -3.2434,-2 z"
         id="path2997"
         style="fill:#fefefe"
         inkscape:connector-curvature="0"
         sodipodi:nodetypes="ssssssssssssssssssssssssssssssssssssscssscssssssscsssssssscsscccssssss" />
      <path
         d="m 1108.3747,545.77269 c 0.036,-2.23146 -0.6355,-3.14844 -3.1716,-4.33084 -1.7695,-0.825 -3.6758,-2.625 -4.2363,-4 -0.5605,-1.375 -2.6002,-4.68664 -4.5327,-7.35919 -3.7499,-5.18587 -4.5818,-8.26464 -1.9613,-7.25908 1.8997,0.72897 6.4476,-2.0902 6.4476,-3.99674 0,-4.97645 5.5095,3.40622 8.0288,12.21575 2.2841,7.98696 2.5105,13.27946 0.6755,15.78897 -1.1716,1.60224 -1.2913,1.50081 -1.25,-1.05887 z m -81.2043,-9.41094 c 2.3056,-1.34291 2.2128,-3.19108 -0.2732,-5.44092 -2.0081,-1.81724 -1.9902,-1.85033 2.3735,-4.40499 2.4182,-1.41569 5.9092,-3.5783 7.7579,-4.8058 3.3145,-2.20083 3.3713,-2.20419 4.0972,-0.24187 1.2281,3.31989 5.0874,4.48314 8.1708,2.4628 3.0647,-2.00801 3.2744,-1.39911 0.9017,2.6176 -1.3511,2.28723 -3.9202,3.77469 -11.9247,6.90429 -9.7063,3.79497 -15.0103,5.18455 -11.1032,2.90889 z m 104.9893,-35.95501 c -1.2434,-0.49959 -5.9684,-1.62702 -10.5,-2.5054 -11.5307,-2.23504 -11.0866,-1.99981 -9.2031,-4.87442 1.2505,-1.90849 1.3611,-2.90845 0.4997,-4.51801 -0.9271,-1.73228 -0.8171,-2.06297 0.6789,-2.04183 2.5195,0.0356 28.3874,6.735 29.1531,7.55021 0.3476,0.37016 -0.3574,0.36909 -1.5668,-0.002 -2.8043,-0.86135 -6.7134,2.74231 -5.9872,5.51937 0.5513,2.10796 0.2284,2.19958 -3.0746,0.87244 z"
         id="path2991"
         style="fill:#0000fe"
         inkscape:connector-curvature="0"
         sodipodi:nodetypes="sssssssssssssssssscssssscscc" />
      <path
         style="fill:#000000"
         d="m 992.41992,437.43945 c -1.97664,0 -1.99654,0.5658 -1.69726,48.44532 l 0.30273,48.44531 L 987.22266,535 c -9.40403,1.65259 -10.80274,2.09684 -10.80274,3.44141 0,1.83184 8.15333,4.2174 11.75,3.4375 l 2.75,-0.59571 0,22.57813 0,22.58008 -25.9668,0 c -6.09377,0 -6.67217,0.48047 0,0.48047 104.28098,0 177.71938,-0.11975 152.15238,-0.23047 -57.7395,-0.25006 -61.2862,-0.36713 -60.8262,-2.00782 0.2686,-0.95826 1.2624,-5.45468 2.209,-9.99218 1.6768,-8.0373 1.7967,-8.25 4.6172,-8.25 1.5924,0 4.7607,-0.95287 7.0429,-2.11719 2.2823,-1.16431 11.8277,-4.99708 21.211,-8.51758 10.0745,-3.77981 17.7771,-7.25824 18.8105,-8.49414 0.9633,-1.15207 1.75,-3.72939 1.75,-5.73438 0,-5.67463 -3.6816,-17.16646 -6.9648,-21.73828 -2.9463,-4.10258 -2.9569,-4.16019 -1.0059,-5.92578 1.0836,-0.98065 1.9707,-2.56111 1.9707,-3.51172 0,-1.99183 3.1356,-3.12261 5.1387,-1.85351 1.6895,1.07048 3.8613,1.14731 3.8613,0.13672 0,-1.1849 -5.8316,-3.46592 -7.0058,-2.74024 -0.5792,0.358 -2.6308,-0.73319 -4.5586,-2.42578 -5.2845,-4.63987 -7.9792,-3.9028 -11.5899,3.17383 l -1.4043,2.75195 -5.9394,-6.00195 c -3.2667,-3.30122 -5.6076,-6.00195 -5.2031,-6.00195 0.4043,0 6.4131,-0.91197 13.3535,-2.02539 12.5001,-2.00532 15.443,-1.91951 18.3476,0.52539 0.825,0.69444 4.543,1.77944 8.2617,2.41211 13.1021,2.22913 17.6117,4.26478 30.7383,13.87304 6.875,5.03227 15.5558,11.93456 19.291,15.33985 4.8104,4.3855 7.1039,5.88052 7.8594,5.125 2.6595,-2.65952 -1.2395,-8.21616 -15.7558,-22.45703 -7.9401,-7.78945 -15.8903,-15.14195 -17.6661,-16.33985 -1.7758,-1.19791 -9.3035,-3.64878 -16.7285,-5.44531 -12.6579,-3.06266 -16.9775,-4.9728 -16.1341,-7.50315 0.1837,-0.55092 0.8699,-1.86786 4.4954,-1.0574 3.5268,0.7885 6.6199,-1.80014 5.4083,-3.01172 -0.3287,-0.32873 -1.4996,-0.1152 -2.6016,0.47461 -1.1021,0.58982 -3.3908,0.79604 -5.0859,0.45703 -1.695,-0.339 -3.0086,-0.43998 -3.6331,0.59621 -0.2504,0.41558 -1.4843,0.38879 -3.9724,0.1909 -5.8462,-0.46496 -7.4766,0.93715 -7.4766,6.42969 0,4.17237 -0.144,4.37604 -3.75,5.32227 -10.5547,2.76962 -17.6165,4.03977 -19.6426,3.53125 -2.9706,-0.74557 -4.9972,1.74514 -4.3164,5.30664 0.7571,3.96024 -1.5355,8.6248 -5.4257,11.03711 -1.8506,1.14758 -4.9403,3.74045 -6.8653,5.76172 -1.925,2.02125 -5.2493,4.79486 -7.3867,6.16406 -3.2103,2.05646 -4.2973,2.30183 -6.25,1.41211 -3.8913,-1.77297 -2.9934,-4.71558 1.9512,-6.40039 4.3932,-1.4969 20.1029,-12.07883 22.7363,-15.31446 0.7972,-0.97949 -1.1491,0.24939 -4.3262,2.73047 -4.6042,3.59557 -6.3804,4.42229 -8.7519,4.07422 -3.5942,-0.52751 -7.717,1.92559 -8.5039,5.06055 -0.3716,1.48073 -2.1056,2.88439 -5.0957,4.12109 -2.4932,1.0312 -5.735,2.87676 -7.2032,4.10156 -3.9262,3.27544 -9.1357,5.77087 -13.6699,6.55079 -2.2,0.37842 -9.1233,1.87355 -15.3847,3.32226 -6.26142,1.44872 -11.57254,2.63477 -11.80278,2.63477 -0.23023,0 -0.28188,-21.82474 -0.11523,-48.5 0.29948,-47.9348 0.2794,-48.50196 -1.69727,-48.50196 z m 108.96488,46.00196 c 1.4413,0 2.9092,0.83045 3.5351,2 0.5887,1.1 0.9398,2 0.7793,2 -0.1605,0 -1.7513,0.41808 -3.5351,0.92968 -3.1316,0.89813 -3.2442,0.82917 -3.2442,-2 0,-2.44772 0.4059,-2.92968 2.4649,-2.92968 z m 12.25,3.02539 c 2.5195,0.0356 28.3866,6.73361 29.1523,7.54882 0.3477,0.37052 -0.357,0.36955 -1.5664,-0.002 -2.8043,-0.86135 -6.7125,2.74247 -5.9863,5.51953 0.5512,2.10796 0.2288,2.20019 -3.0742,0.87305 -1.2434,-0.49959 -5.9684,-1.62748 -10.5,-2.50586 -11.5308,-2.23504 -11.0867,-2.00039 -9.2032,-4.875 1.2505,-1.90849 1.3614,-2.90802 0.5,-4.51758 -0.9271,-1.73228 -0.8183,-2.0621 0.6778,-2.04101 z m -4.5684,1.22265 c 2.4392,0.0406 4.084,1.98743 3.2285,4.2168 -0.4966,1.29408 -1.4287,1.58957 -3.7676,1.19141 -1.7091,-0.29094 -9.5374,0.42828 -17.3964,1.59765 l -14.2891,2.125 8.2891,8.37696 c 4.559,4.60675 9.7515,8.99698 11.539,9.75781 3.5979,1.53141 4.2138,4.03369 1.5,6.09375 -2.0306,1.54146 -2.058,1.54337 -4.9336,0.38476 -1.2015,-0.48411 -2.6921,-1.82497 -3.3105,-2.98047 -2.152,-4.02103 -16.2751,-21.51595 -17.8848,-22.15429 -1.4536,-0.57651 -1.4387,-0.71616 0.1426,-1.36133 0.9695,-0.39557 2.3607,-0.22395 3.0918,0.38281 0.7311,0.60672 1.5835,0.84818 1.8945,0.53711 0.5047,-0.50465 24.3294,-6.74128 30.8067,-8.06445 0.3759,-0.0768 0.7414,-0.10932 1.0898,-0.10352 z m 30.8027,7.08203 c 3.5147,-0.152 8.5252,3.68939 19.9903,14.9043 12.2551,11.98777 16.9599,17.93014 17.0351,21.51563 0.046,2.17779 -1.3179,1.36032 -7.5371,-4.51953 -3.334,-3.15211 -11.9871,-10.00547 -19.2304,-15.23047 -7.2434,-5.225 -13.4134,-10.22437 -13.711,-11.10938 -0.6947,-2.0658 0.2757,-4.58908 2.0235,-5.25976 0.4555,-0.1748 0.9276,-0.27907 1.4296,-0.30079 z m -64.9824,5.86719 c 0.7726,0.29906 10.5807,12.6033 14.6192,18.33985 1.147,1.62929 2.373,4.12003 2.7246,5.53515 0.3515,1.41513 2.2021,4.62027 4.1133,7.12305 6.6901,8.76179 7.0469,8.23939 -12.6075,18.51758 -9.5235,4.98033 -18.3289,9.3626 -19.5664,9.73828 -2.8184,0.85558 -2.8374,0.18327 -0.3164,-11.21094 1.0635,-4.80667 3.1212,-14.59023 4.5723,-21.74023 4.3004,-21.18938 5.6353,-26.62232 6.4609,-26.30274 z m 19.6914,5.08985 c 0.9204,-0.0141 1.8973,0.63982 2.7305,1.96289 0.7845,1.24578 0.7943,2.23604 0.035,3.43945 -1.5092,2.39254 -2.7313,2.57546 -4.6192,0.6875 -1.3145,-1.31447 -1.4229,-2.12167 -0.5449,-4.04883 0.6129,-1.34521 1.478,-2.02691 2.3984,-2.04101 z m -25.5605,2.4746 -0.6485,2.86915 c -0.357,1.57798 -1.0718,4.55664 -1.5879,6.61914 -0.5161,2.0625 -1.034,3.74237 -1.1503,3.73437 -1.3526,-0.098 -2.2177,-2.19123 -2.2032,-5.32422 0.014,-3.03679 0.5984,-4.26334 2.8028,-5.86914 z m -15.5977,1.23829 c 2.2706,0 1.8037,1.61632 -1.1347,3.92773 -2.876,2.26226 -4.3653,2.62786 -4.3653,1.07227 0,-1.53371 3.8129,-5 5.5,-5 z m 48.0586,8.07226 c 0.612,-0.0368 1.7119,1.07299 3.2207,3.28906 2.7045,3.97229 6.2207,15.66918 6.2207,20.69336 0,1.95913 -0.5823,4.35941 -1.2949,5.33399 -1.1716,1.60224 -1.2913,1.50108 -1.25,-1.0586 0.036,-2.23146 -0.6358,-3.14767 -3.1719,-4.33007 -1.7695,-0.825 -3.6758,-2.625 -4.2363,-4 -0.5605,-1.375 -2.6007,-4.68683 -4.5332,-7.35938 -3.7499,-5.18587 -4.5814,-8.26532 -1.9609,-7.25976 1.8996,0.72897 6.4472,-2.08956 6.4472,-3.9961 0,-0.85632 0.1914,-1.29041 0.5586,-1.3125 z m -61.4316,2.51367 c 0.5192,-0.0306 0.7151,0.45831 1.0781,1.43946 1.2281,3.31989 5.0885,4.48323 8.1719,2.46289 3.0646,-2.00801 3.2731,-1.39757 0.9004,2.61914 -1.3511,2.28723 -3.9194,3.7747 -11.9239,6.90429 -9.7063,3.79498 -15.0106,5.18387 -11.1035,2.90821 2.3056,-1.34291 2.2126,-3.19157 -0.2734,-5.44141 -2.0081,-1.81724 -1.9907,-1.84963 2.373,-4.4043 2.4182,-1.41569 5.9112,-3.57914 7.7598,-4.80664 1.6572,-1.10041 2.4983,-1.65098 3.0176,-1.68164 z m 20.789,1.85547 c 0.2055,0.006 0.4154,0.0388 0.6172,0.10157 0.8074,0.25098 2.095,0.65073 2.8633,0.88671 1.1785,0.36196 1.1295,1.65202 -0.3144,8.25 l -1.711,7.82032 -34.1855,0.16211 c -32.5142,0.15348 -34.18558,0.0719 -34.18558,-1.66797 0,-1.50038 1.75306,-2.21618 9.74998,-3.97852 5.3625,-1.18177 11.0558,-2.56865 12.6504,-3.08203 4.4774,-1.44153 8.1279,-1.11366 9.9453,0.89453 2.3674,2.6159 2.0781,3.59738 -1.5957,5.42578 l -3.25,1.61719 3.3262,0.0644 c 1.8289,0.0352 7.9947,-1.76228 13.7031,-3.99414 8.729,-3.41288 10.7167,-4.60512 12.5059,-7.5 1.6219,-2.62426 2.8082,-3.4414 4.9883,-3.4414 1.5727,0 3.1241,-0.43106 3.4492,-0.95703 0.2438,-0.3945 0.8269,-0.61952 1.4433,-0.60157 z m -71.0234,13.70313 c 0.89647,3.3e-4 1.10742,0.57357 1.10742,2.13086 0,1.73875 -0.67997,2.673 -2.25,3.09375 -2.72368,0.72991 -3.23412,0.69353 -8,-0.57227 -5.05384,-1.34228 -4.71962,-2.43066 1,-3.25586 2.6125,-0.37692 5.7625,-0.92555 7,-1.2207 0.46873,-0.1118 0.84376,-0.1759 1.14258,-0.17578 z m 4.10742,5.85547 33.44138,0 c 18.3926,0 33.6761,0.37963 33.9629,0.84375 0.2869,0.46411 0.12,2.37661 -0.3691,4.25 -0.4891,1.87338 -1.404,5.99375 -2.0332,9.15625 -0.7254,3.64542 -1.6451,5.75 -2.5137,5.75 -2.219,0 -2.9298,2.20309 -1.1348,3.51562 1.5386,1.12502 1.5131,1.91557 -0.3476,10.95899 -1.1029,5.36028 -2.0059,9.9203 -2.0059,10.13476 0,0.21446 -13.275,0.39063 -29.5,0.39063 l -29.49998,0 0,-22.5 z m 109.44138,0 c 2.6322,0 4.8591,2.67101 4.25,5.09765 -0.5118,2.03928 -2.6419,3.15789 -13.8984,7.30469 -7.3112,2.69337 -16.6186,6.40537 -20.6836,8.24805 -8.5117,3.85845 -12.1094,4.2901 -12.1094,1.45703 0,-1.23139 0.9598,-2.12979 2.75,-2.57422 1.5125,-0.37548 10.7976,-4.92329 20.6328,-10.10742 9.8352,-5.18414 18.4115,-9.42578 19.0586,-9.42578 z m -46.8828,21 c 0.8575,0 1.2813,0.45 0.9414,1 -0.3399,0.55 -1.041,1 -1.5586,1 -0.5175,0 -0.9414,-0.45 -0.9414,-1 0,-0.55 0.7012,-1 1.5586,-1 z"
         id="path2989"
         inkscape:connector-curvature="0"
         sodipodi:nodetypes="cccsccccccscsscsssccscscccccssssssssssccccsssssscsssssssscscsssssccssccccsssscssscscsssscccccscscsccccsscccssssscsccsccsccccscsscsscsssscscccsssccsscccscccsssscccssscccsssscscscscssssscccscsssssssssssssssss" />
    </g>
  </g>
</svg>
