<?xml version="1.0" encoding="UTF-8" standalone="no"?>
<!-- Created with Inkscape (http://www.inkscape.org/) -->

<svg
   xmlns:dc="http://purl.org/dc/elements/1.1/"
   xmlns:cc="http://creativecommons.org/ns#"
   xmlns:rdf="http://www.w3.org/1999/02/22-rdf-syntax-ns#"
   xmlns:svg="http://www.w3.org/2000/svg"
   xmlns="http://www.w3.org/2000/svg"
   xmlns:sodipodi="http://sodipodi.sourceforge.net/DTD/sodipodi-0.dtd"
   xmlns:inkscape="http://www.inkscape.org/namespaces/inkscape"
   id="svg3448"
   version="1.1"
   inkscape:version="0.91 r13725"
   width="550.46729"
   height="246.5625"
   viewBox="0 0 550.46729 246.5625"
   sodipodi:docname="ub230105.svg">
  <metadata
     id="metadata3454">
    <rdf:RDF>
      <cc:Work
         rdf:about="">
        <dc:format>image/svg+xml</dc:format>
        <dc:type
           rdf:resource="http://purl.org/dc/dcmitype/StillImage" />
        <dc:title></dc:title>
      </cc:Work>
    </rdf:RDF>
  </metadata>
  <defs
     id="defs3452" />
  <sodipodi:namedview
     pagecolor="#bcbcbc"
     bordercolor="#666666"
     borderopacity="1"
     objecttolerance="10"
     gridtolerance="10"
     guidetolerance="10"
     inkscape:pageopacity="0"
     inkscape:pageshadow="2"
     inkscape:window-width="1485"
     inkscape:window-height="873"
     id="namedview3450"
     showgrid="false"
     inkscape:zoom="1.135399"
     inkscape:cx="175.01259"
     inkscape:cy="167.81536"
     inkscape:window-x="0"
     inkscape:window-y="0"
     inkscape:window-maximized="0"
     inkscape:current-layer="svg3448" />
  <g
     id="g4674"
     transform="translate(7.9830196,5.3639643)">
    <path
       inkscape:connector-curvature="0"
       id="path4665"
       d="m 354.20508,9.375 c -1.85062,0 -4.32854,2.53377 -3.39453,3.4707 0.33557,0.33662 1.20833,-0.2017 1.93945,-1.19531 1.01288,-1.37655 1.59315,-1.54749 2.43359,-0.7168 1.35794,1.3422 0.39688,3.10736 -1.73437,3.1875 -1.14502,0.0431 -1.00012,0.2939 0.52344,0.90821 2.24897,0.9068 2.79368,3.18106 1.02539,4.27734 -0.592,0.36702 -1.63844,-0.10535 -2.32617,-1.04883 -0.68775,-0.94348 -1.52576,-1.44013 -1.86133,-1.10351 -0.33557,0.33661 -0.0779,1.25512 0.57226,2.04101 2.60981,3.15444 7.99916,0.20532 5.8711,-3.21289 -0.75181,-1.20761 -0.75946,-1.96483 -0.0293,-2.69726 C 358.53307,11.9726 356.52667,9.375 354.20508,9.375 Z"
       style="fill:#000000" />
    <path
       inkscape:connector-curvature="0"
       id="path4663"
       d="m 363.69531,9.42773 c -0.98801,-0.0513 -1.99171,0.30181 -2.75976,1.07227 -1.46794,1.47252 -1.4446,7.55088 0.0352,9.03516 2.75323,2.76183 7.80505,-1.01537 5.75196,-4.30078 -0.56389,-0.90234 -1.92916,-1.77469 -3.03321,-1.93946 -2.16106,-0.32252 -2.63275,-1.54614 -0.99023,-2.56445 0.55882,-0.34644 1.48266,-0.15977 2.05469,0.41406 1.56261,1.56748 2.94038,1.25494 1.60156,-0.36328 -0.70047,-0.84665 -1.67215,-1.30226 -2.66016,-1.35352 z m -0.36523,4.81055 c 0.81041,0.0128 1.62305,1.03076 1.62304,2.63672 10e-6,1.20312 -0.52571,2.36338 -1.16796,2.57812 -1.43276,0.47909 -2.50792,-2.04039 -1.73438,-4.0625 0.30831,-0.80594 0.79305,-1.16003 1.2793,-1.15234 z"
       style="fill:#000000" />
    <path
       inkscape:connector-curvature="0"
       id="path4661"
       d="m 372.79102,9.44531 c -0.81946,-0.0223 -1.66292,0.39967 -2.40235,1.41407 -1.48751,2.04065 -1.58717,5.47047 -0.23242,8.00976 1.41966,2.66093 4.81759,1.92209 5.93945,-1.29102 1.39923,-4.00751 -0.84631,-8.06586 -3.30468,-8.13281 z m 0.10546,0.86719 c 1.27882,0 2.1797,4.25997 1.48633,7.03125 -0.32253,1.28906 -0.9919,2.34375 -1.48633,2.34375 -1.27883,0 -2.17774,-4.25998 -1.48437,-7.03125 0.32254,-1.28907 0.98994,-2.34375 1.48437,-2.34375 z"
       style="fill:#000000" />
    <path
       inkscape:connector-curvature="0"
       id="path4659"
       d="m 380.49219,9.5332 c -0.44736,0.0482 -0.88425,0.2347 -1.24024,0.5918 -0.54772,0.54943 -0.72995,1.6909 -0.40625,2.53711 0.74819,1.95584 3.74195,1.43535 4.15625,-0.72266 0.27897,-1.45306 -1.16768,-2.55086 -2.50976,-2.40625 z m 0.22265,1.10352 c 0.085,0.0129 0.185,0.15704 0.29688,0.4375 0.27004,0.67675 0.23831,1.48535 -0.0723,1.79687 -0.31055,0.31152 -0.53278,-0.24219 -0.49218,-1.23047 0.028,-0.68257 0.12592,-1.02542 0.26757,-1.0039 z"
       style="fill:#000000" />
    <path
       inkscape:connector-curvature="0"
       id="path4657"
       d="m 234.63281,21.00586 c -1.04799,0.12168 -1.65912,3.51818 -2.06836,10.40039 -0.33728,5.67187 -1.26629,19.17187 -2.06445,30 -3.18006,43.14239 -3.17276,43.40086 1.48438,56.01367 0.59398,1.60873 0.69791,6.63073 0.27734,13.38281 -0.41232,6.6195 -0.32444,11.25469 0.22851,11.95704 0.49661,0.63079 1.12268,2.20117 1.39063,3.49023 0.26794,1.28906 1.19133,5.50781 2.05078,9.375 0.85946,3.86719 4.26535,20.32031 7.56836,36.5625 3.30302,16.24219 6.22938,30.48048 6.50391,31.64062 l 0.49804,2.10938 -23.38086,0 c -12.86026,0 -23.38281,-0.13543 -23.38281,-0.30078 0,-0.59934 -7.33665,-36.7985 -7.9668,-39.3086 L 195.125,183.75 l 9.44727,0 c 12.45284,0 12.37956,-1.72679 -0.0879,-2.07617 l -9.53321,-0.26758 -3.45898,-16.23047 c -2.78437,-13.06802 -3.28283,-16.87226 -2.55469,-19.51758 0.60623,-2.20257 0.585,-3.67355 -0.0664,-4.46093 -0.68918,-0.83301 -0.28443,-3.47194 1.39063,-9.07618 3.40397,-11.38868 3.09579,-10.72063 4.34766,-9.46484 0.59997,0.60185 3.09571,1.09375 5.54492,1.09375 3.57719,0 4.66004,-0.38974 5.50976,-1.98242 1.0443,-1.95738 0.85308,-5.41579 -0.47265,-8.51563 -0.5852,-1.36825 -0.1262,-1.56577 3.27148,-1.40625 2.53136,0.11886 4.10633,-0.25068 4.37891,-1.02734 0.31005,-0.8834 -0.23823,-1.04516 -2.01563,-0.59766 -1.45001,0.36506 -3.00944,0.13761 -3.8457,-0.55859 -1.13862,-0.94794 -1.71627,-0.89192 -3.02539,0.28711 -0.88989,0.80146 -2.87445,1.59748 -4.4082,1.76953 -2.43773,0.27344 -3.02479,-0.15777 -4.67188,-3.42187 -2.43409,-4.82379 -15.46826,-15.45391 -28.98633,-23.64063 -5.65421,-3.42426 -13.25096,-8.22383 -16.88086,-10.66406 -7.42812,-4.99364 -13.8884,-7.40764 -15.49804,-5.79297 -1.50875,1.51347 -0.47524,2.57967 7.90429,8.1543 15.98343,10.63324 36.82404,28.85222 44.76367,39.13281 l 2.53125,3.27734 -2.85937,10.64258 c -3.11124,11.57927 -3.15802,9.62102 0.64648,26.6875 0.8046,3.60937 4.16526,19.85156 7.46875,36.09375 3.30348,16.24219 6.23133,30.48048 6.50586,31.64062 l 0.5,2.10938 -23.38281,0 c -12.86026,0 -23.38281,-0.13543 -23.38281,-0.30078 0,-0.59934 -7.3366,-36.79851 -7.9668,-39.3086 l -0.64648,-2.57812 10.84961,0 c 14.38425,0 14.31078,-1.73231 -0.0879,-2.08008 l -10.93555,-0.26367 -3.44922,-16.18555 c -2.67804,-12.56758 -3.27041,-16.96834 -2.65039,-19.6875 0.66672,-2.92398 0.50576,-3.73405 -0.98438,-4.9082 -1.74918,-1.37828 -1.73722,-1.60204 0.64258,-11.25 l 2.42774,-9.84375 4.14648,0 c 2.75212,0 4.85803,-0.85369 6.16992,-2.41992 l -2.54297,0.9707 c -3.81469,1.45488 -6.00458,1.19847 -7.08789,-0.83203 -1.58375,-2.96853 -1.11682,-4.67766 1.45899,-5.32617 1.92714,-0.48519 3.02417,-0.0142 5.31445,2.2832 l 2.87305,2.88281 c 0.99938,-1.20411 1.53515,-2.8234 1.53515,-4.80078 0,-3.21161 -4.95144,-8.48942 -10.01757,-10.67773 -3.54774,-1.53244 -4.00196,-1.5811 -4.00196,-0.4336 0,0.47563 1.53585,1.37295 3.41211,1.99415 l 3.41016,1.1289 -2.85352,1.20508 c -1.57023,0.66229 -3.1339,2.08527 -3.47461,3.16211 -0.72703,2.29786 -1.2678,2.37366 -3.70898,0.52148 -1.16472,-0.88371 -3.99865,-1.37695 -7.91406,-1.37695 -3.46145,0 -7.87886,-0.68249 -10.2168,-1.57812 -3.76112,-1.44088 -6.02846,-1.47686 -26.087891,-0.42188 -20.351765,1.07035 -22.30832,1.32757 -26.582031,3.5 -2.537273,1.28974 -4.456136,2.81924 -4.263672,3.39844 0.246339,0.74133 7.94379,1.08536 25.998047,1.16406 22.369197,0.0975 26.183427,0.32791 29.851567,1.80273 2.31309,0.93001 6.92144,2.08376 10.24023,2.5625 3.31878,0.47876 6.36523,1.38603 6.77148,2.01758 0.40634,0.63155 0.42498,3.67969 0.041,6.77344 -1.11229,8.9631 -0.62441,19.28612 1.10547,23.42969 1.90872,4.57196 2.02413,5.08619 9.46289,41.72656 3.2975,16.24219 6.21961,30.48048 6.49414,31.64062 l 0.5,2.10938 -46.74609,0 c -25.710741,0 -46.748051,-0.13543 -46.748051,-0.30078 0,-0.59934 -7.336618,-36.79851 -7.966797,-39.3086 l -0.646484,-2.57812 17.857422,0 c 11.282497,0 17.859375,-0.34521 17.859375,-0.9375 0,-0.53319 -2.921754,-0.96345 -6.775391,-0.99805 l -6.77539,-0.0605 -5.785156,-6.73633 c -5.417541,-6.30846 -9.453522,-11.3275 -18.515626,-23.02735 -5.383333,-6.95028 -6.675861,-16.17172 -3.949218,-28.1582 1.02333,-4.49861 1.429983,-5.08674 3.591797,-5.18164 3.904508,-0.17146 9.236328,-4.80073 9.236328,-8.01953 0,-3.10916 -2.883682,-5.63086 -6.441407,-5.63086 -1.258701,0 -3.00112,-0.64577 -3.871093,-1.43555 -1.424104,-1.29282 -1.874219,-1.26946 -4.507813,0.23438 -3.090159,1.76455 -4.083017,3.75054 -1.300781,2.60156 0.899533,-0.37148 2.475869,-0.90202 3.503906,-1.17773 1.701635,-0.45636 1.666164,-0.27772 -0.396484,1.98242 -1.246143,1.36545 -2.784188,2.48242 -3.419922,2.48242 -2.068931,0 -5.948835,5.63613 -7.302734,10.60938 -0.727618,2.67273 -1.841902,9.37296 -2.476563,14.89062 -1.411056,12.26755 -0.933639,13.77216 6.611328,20.7793 l 5.400391,5.01367 6.224609,30.83789 c 3.423965,16.96063 6.435192,31.56963 6.691406,32.46289 0.431514,1.5044 -1.243355,1.64236 -22.722656,1.89063 -12.753729,0.1474 94.568904,0.2771 238.494144,0.2871 143.92523,0.01 257.14342,-0.11723 251.5957,-0.2832 l -10.08594,-0.30273 0.12305,-66.29493 c 0.11654,-62.11748 0.0235,-66.29687 -1.48242,-66.29687 -1.49962,0 -1.59492,2.96281 -1.42969,44.30859 l 0.17773,44.31055 -32.01953,-0.24805 -32.01757,-0.24609 -3.4336,-16.10937 c -2.95964,-13.88417 -3.50393,-18.93525 -2.08789,-21.7168 l -5.3125,0 c 0.10903,0.577 0.21081,1.16465 0.2832,1.73242 0.23013,1.80469 2.38318,12.5625 4.78516,23.90625 2.40199,11.34375 5.83712,28.00781 7.63477,37.03125 1.79765,9.02344 3.48771,17.14451 3.7539,18.04688 0.45066,1.5276 -0.93765,1.64062 -20.14062,1.64062 -11.34305,0 -20.62305,-0.13543 -20.62305,-0.30078 0,-0.59934 -7.33664,-36.79849 -7.9668,-39.3086 l -0.64843,-2.57812 7.11132,0 c 9.3002,0 9.22741,-1.71598 -0.0879,-2.07031 l -7.19922,-0.27344 -3.41211,-16.02344 c -2.94999,-13.84894 -3.30132,-16.77414 -2.58984,-21.5625 1.04925,-7.06164 0.0408,-25.95334 -1.64648,-30.85156 -1.94439,-5.64473 -1.66556,-16.88627 0.58398,-23.56836 1.55745,-4.62639 1.84687,-7.50571 1.59961,-15.88477 l -0.30078,-10.23437 -0.19922,11.08789 -0.19727,11.08789 -2.87695,-2.88476 c -3.3979,-3.40852 -4.77475,-3.55544 -8.48633,-0.9043 l -2.77343,1.98047 0.56054,-5.96485 c 1.26951,-13.52032 1.38777,-16.50766 0.51563,-13.00586 -0.44805,1.799 -1.08605,8.75994 -1.41797,15.46875 -0.69865,14.12075 -3.12231,27.4219 -6.58008,36.10352 -2.04431,5.13277 -2.33427,6.97239 -1.83398,11.66016 0.59213,5.54831 2.59822,10.83984 4.10937,10.83984 2.25335,0 2.65323,-2.55986 1.27539,-8.17969 -1.18267,-4.82377 -1.22635,-6.33 -0.24804,-8.69922 1.13438,-2.74719 1.23621,-2.79112 2.46093,-1.03711 1.62801,2.33158 6.49286,3.47029 8.32227,1.94727 0.74997,-0.62437 1.36709,-0.97916 1.37109,-0.78711 0.004,0.19203 0.41631,3.91699 0.91602,8.27734 0.76262,6.6544 0.67617,8.28315 -0.53711,10.14063 -0.94301,1.44372 -1.13828,2.59867 -0.5625,3.32227 1.44198,1.81213 4.17721,14.18908 13.81836,62.51562 1.80018,9.02344 3.49161,17.14452 3.75781,18.04688 0.45271,1.53455 -1.18286,1.64062 -25.28125,1.64062 -14.17016,0 -25.76367,-0.13543 -25.76367,-0.30078 0,-0.59934 -7.3366,-36.79849 -7.9668,-39.3086 l -0.64648,-2.57812 11.3164,0 c 15.02808,0 14.95654,-1.73283 -0.0859,-2.08008 L 347.28711,181.40625 343.78516,165 c -3.31868,-15.54372 -3.59157,-19.58082 -1.50586,-22.24023 0.54872,-0.69965 0.63729,-5.36302 0.22656,-11.95704 -0.42057,-6.75208 -0.31666,-11.77408 0.27734,-13.38281 4.65714,-12.61281 4.66252,-12.87128 1.48242,-56.01367 -0.79815,-10.82812 -1.72718,-24.32812 -2.06445,-30 -0.72754,-12.23503 -2.08996,-13.4535 -5.41601,-4.83984 -2.00939,5.20382 -2.12172,6.84228 -2.27539,33.41601 -0.0889,15.3697 0.11792,28.40225 0.46093,28.95899 0.34302,0.55673 0.11852,5.37911 -0.5,10.71679 -1.04871,9.05007 -1.28759,9.77763 -3.54492,10.7793 -1.33138,0.59074 -3.29103,0.84402 -4.35547,0.56445 -1.60524,-0.42161 -2.12497,0.12119 -3.03906,3.18164 -1.31797,4.41276 -1.38348,5.81641 -0.27148,5.81641 0.45681,0 1.10781,-1.47656 1.44531,-3.28125 0.90286,-4.82769 3.30211,-4.38387 2.65039,0.49023 -0.66193,4.95049 1.46754,7.47852 6.29883,7.47852 l 3.45703,0 0.57617,6.79688 c 0.52835,6.23529 0.40895,6.92563 -1.45312,8.3496 -1.54136,1.17867 -1.78359,1.8555 -1.00586,2.8125 1.24481,1.53174 4.42564,16.0584 13.92382,63.60352 1.80263,9.02344 3.49357,17.14452 3.75977,18.04688 0.4524,1.5335 -1.13544,1.64062 -24.34375,1.64062 -13.65614,0 -24.83008,-0.13543 -24.83008,-0.30078 0,-0.59934 -7.33662,-36.79849 -7.9668,-39.3086 L 295.125,183.75 l 11.31641,0 c 15.02798,0 14.95638,-1.73282 -0.0859,-2.08008 l -11.4043,-0.26367 -3.57422,-16.76953 c -3.30692,-15.5159 -3.46448,-16.93458 -2.12304,-18.98828 1.33631,-2.04584 1.30112,-2.42093 -0.4375,-4.79297 -1.73749,-2.37047 -1.81232,-3.20285 -0.96485,-10.54297 0.50603,-4.38281 0.92178,-8.18183 0.92578,-8.44336 0.004,-0.26152 1.87471,-0.32656 4.15625,-0.14453 3.98595,0.318 4.20447,0.49465 5.57227,4.52148 0.78293,2.30494 1.18564,5.37588 0.89648,6.82618 -0.66625,3.34168 1.06771,4.51636 3.46094,2.34375 2.30629,-2.09369 2.28498,-4.76224 -0.084,-10.79102 -1.29394,-3.29324 -1.70328,-5.83014 -1.29492,-8.01367 0.36642,-1.95929 0.16398,-3.71795 -0.52344,-4.54883 -1.15343,-1.39414 -0.59643,-3.3125 0.96289,-3.3125 0.48368,0 0.88086,0.63281 0.88086,1.40625 0,0.77344 0.4654,1.40625 1.03515,1.40625 0.6632,0 0.80331,-0.92683 0.39063,-2.57617 -0.85001,-3.39732 -0.91149,-3.42861 -3.44922,-1.77735 -1.86108,1.21098 -2.4386,1.23071 -3.91211,0.13672 -0.951,-0.70606 -1.46077,-1.71965 -1.13281,-2.25195 0.32795,-0.53229 -0.0731,-3.27472 -0.89063,-6.0957 -1.4339,-4.94787 -1.41437,-5.27037 0.54102,-9.11524 1.91473,-3.76491 1.96797,-4.45549 0.94726,-12.48047 -1.24342,-9.77594 -3.78091,-22.43188 -4.37695,-21.83398 -0.22286,0.22356 0.19216,3.1039 0.92188,6.40234 1.71027,7.73066 3.78171,24.19085 3.12695,24.84766 -0.92836,0.93126 -5.87096,-2.256 -6.93555,-4.47266 -0.57832,-1.20414 -1.56526,-7.79481 -2.1914,-14.64648 -0.62614,-6.85167 -1.33566,-12.25886 -1.57813,-12.01563 -0.24247,0.24324 0.0903,5.70864 0.74024,12.14649 1.0442,10.34364 1.01105,12.06091 -0.29102,14.75781 l -1.47461,3.05273 -0.63086,-4.2246 c -0.34724,-2.32282 -0.95257,-9.04143 -1.3457,-14.92969 -0.52817,-7.91076 -0.75196,-9.12818 -0.85352,-4.66602 -0.0756,3.32135 0.34198,10.78041 0.92774,16.57617 0.9111,9.01495 0.83954,11.77337 -0.49414,19.08594 -0.85741,4.70129 -1.28251,8.99568 -0.94532,9.54297 0.33719,0.54727 0.71403,8.32644 0.83789,17.28711 0.12391,8.96387 0.64284,16.82418 1.15235,17.47461 0.50933,0.65022 1.17647,2.44726 1.48437,3.99414 0.30792,1.54687 2.49214,12.09375 4.85352,23.4375 2.36138,11.34375 5.76485,28.00781 7.5625,37.03125 1.79765,9.02344 3.48576,17.14451 3.75195,18.04688 0.45207,1.53237 -1.09192,1.64062 -23.41015,1.64062 -13.14213,0 -23.89454,-0.13543 -23.89454,-0.30078 0,-0.59934 -7.33659,-36.7985 -7.96679,-39.3086 l -0.64844,-2.57812 11.31641,0 c 15.02808,0 14.95651,-1.73283 -0.0859,-2.08008 l -11.40234,-0.26367 -3.4336,-16.10937 c -3.31454,-15.55447 -3.60465,-19.97199 -1.48633,-22.6504 0.74677,-0.94422 0.48952,-1.64957 -1.03125,-2.8125 -1.86211,-1.42397 -1.98341,-2.11433 -1.45508,-8.3496 l 0.57618,-6.79688 3.45703,0 c 4.83129,0 6.96075,-2.52803 6.29883,-7.47852 -0.65172,-4.8741 1.74948,-5.31792 2.65234,-0.49023 0.33751,1.80469 0.98655,3.28125 1.44336,3.28125 1.112,0 1.04649,-1.40365 -0.27148,-5.81641 -0.91409,-3.06046 -1.43188,-3.60325 -3.03711,-3.18164 -1.06444,0.27957 -3.0241,0.0263 -4.35547,-0.56445 -2.25734,-1.00167 -2.49817,-1.72923 -3.54688,-10.7793 -0.61853,-5.33768 -0.84302,-10.16006 -0.5,-10.71679 0.34301,-0.55674 0.55179,-13.58929 0.46289,-28.95899 -0.15367,-26.57373 -0.266,-28.21219 -2.27539,-33.41601 -1.45514,-3.76848 -2.5345,-5.65519 -3.34961,-5.56055 z M 45.830078,165.40039 c 0.712865,-0.24396 12.154253,10.25823 14.544922,13.40234 l 2.337891,3.07227 -6.619141,0 c -4.471523,0 -6.742019,-0.38017 -6.996094,-1.17188 -0.49607,-1.5457 -3.302734,-14.50249 -3.302734,-15.24609 0,-0.0308 0.01216,-0.0488 0.03516,-0.0566 z M 445.5918,183.75 l 31.87695,0 31.87695,0 0,21.09375 0,21.09375 -27.57031,0 c -15.16355,0 -27.57031,-0.13543 -27.57031,-0.30078 0,-0.59934 -7.33662,-36.79851 -7.9668,-39.3086 L 445.5918,183.75 Z"
       style="fill:#000000" />
    <path
       inkscape:connector-curvature="0"
       id="path4655"
       d="m 151.73633,117.08984 c -0.006,0.007 -0.01,0.0147 -0.0156,0.0215 l 0.0274,-0.01 -0.0117,-0.0117 z"
       style="fill:#000000" />
    <path
       inkscape:connector-curvature="0"
       id="path4653"
       d="m 392.62109,23.73047 c -0.10442,-0.009 -0.21168,-0.006 -0.32421,0.008 -0.54019,0.0663 -1.19859,0.3908 -2.21485,0.91797 -3.93932,2.04347 -4.88054,4.78137 -5.95508,17.31641 -0.51846,6.04811 -1.17467,12.66779 -1.45703,14.71093 -0.28237,2.04315 -0.2172,3.4195 0.14258,3.0586 0.35979,-0.36091 1.2117,-6.88417 1.89453,-14.4961 1.39171,-15.51432 2.18583,-18.25787 5.75391,-19.88867 2.19968,-1.00537 2.68153,-0.88924 4.21289,1.00781 1.59779,1.97936 1.67825,3.42641 1.07226,19.06055 -0.36067,9.30516 -0.44406,16.70703 -0.18554,16.44922 0.25852,-0.25781 0.76876,-7.89204 1.13281,-16.96484 0.66157,-16.48693 0.65936,-16.49676 -1.57422,-19.10157 -1.18178,-1.37819 -1.76709,-2.0147 -2.49805,-2.07812 z"
       style="fill:#000000" />
    <path
       id="path4651"
       d="m 439.10742,26.609375 c -1.15378,-0.1445 -1.79473,3.525625 -2.25,11.359375 -0.35959,6.1875 -1.35914,19.47656 -2.2207,29.53125 -1.89644,22.13188 -2.22906,41.34143 -0.74805,43.20703 1.77986,2.24206 2.52748,7.45058 2.61328,18.19922 0.0173,2.17536 0.0861,4.195 0.17188,6.00977 -0.0947,1.82293 -0.5791,3.3808 -1.625,4.50976 -1.37461,1.48378 -1.65688,2.42646 -0.98242,3.28125 0.18716,0.23721 0.34838,0.49819 0.49609,0.77344 l 5.38477,0 c 0.23418,-1.21751 0.51789,-2.33966 0.75,-2.85547 0.19658,-0.43683 0.45563,-2.34178 0.55273,-5.16211 l 0.008,0 c -0.0406,-1.07517 0.0396,-2.46724 0.19727,-4.44727 l 0.51758,-6.32812 3.46484,0 c 4.7,0 6.99662,-2.56356 6.27734,-7.00977 -0.62509,-3.86398 0.53811,-4.27652 2.70508,-0.95898 1.90549,2.91724 3.52823,3.05971 2.66992,0.23437 -0.97524,-3.21017 -3.42436,-5.55751 -5.28906,-5.06835 -0.91942,0.24118 -2.66956,-0.0323 -3.88867,-0.60938 -1.97881,-0.93677 -2.33628,-2.03348 -3.32617,-10.22656 -0.60986,-5.047642 -0.79924,-9.678537 -0.42188,-10.291018 0.37741,-0.61248 0.58339,-12.828251 0.45899,-27.144531 -0.21234,-24.43811 -0.35277,-26.360417 -2.32227,-31.460937 -1.37406,-3.55849 -2.40392,-5.444109 -3.19336,-5.542969 z m -0.0215,84.164065 c 2.30338,0.0508 3.84543,2.96787 3.15625,6.23437 -0.29279,1.38772 -0.93451,6.52053 -1.42774,11.40625 -0.30317,3.00296 -0.4718,4.94515 -0.5,6.36524 -0.19105,3.76996 -0.56828,5.4609 -1.77929,5.68359 -1.02804,0.18903 -2.26244,0.7188 -2.74219,1.17578 -1.86113,1.77281 -1.67293,-0.20134 0.21094,-2.21289 1.08929,-1.16312 1.55431,-1.8852 1.60351,-3.86328 l -0.12695,-0.0996 0.0293,0 c -0.0648,-1.51502 -0.0999,-3.47623 -0.13282,-6.10547 -0.074,-5.91961 -0.28577,-12.45117 -0.46875,-14.51367 -0.2896,-3.2644 -0.0684,-3.78748 1.70703,-4.04102 0.15989,-0.0228 0.31715,-0.0327 0.47071,-0.0293 z"
       style="fill:#000000"
       inkscape:connector-curvature="0" />
    <path
       inkscape:connector-curvature="0"
       id="path4649"
       d="m 284.14258,28.125 c -3.31626,0 -4.06818,3.48186 -3.32617,15.39453 0.37187,5.97011 0.88752,10.85547 1.14453,10.85547 0.25701,0 0.16763,-4.79393 -0.19727,-10.65234 -0.72794,-11.68661 -0.26072,-14.66016 2.30274,-14.66016 2.84314,0 7.3729,14.10037 7.5039,23.35938 0.0103,0.73045 0.25734,1.08927 0.54883,0.79687 1.0773,-1.08066 -1.50048,-14.80902 -3.73047,-19.86719 -1.72973,-3.92344 -2.78926,-5.22656 -4.24609,-5.22656 z"
       style="fill:#000000" />
    <path
       inkscape:connector-curvature="0"
       id="path4647"
       d="m 283.61133,34.16797 c -0.0484,0.0246 -0.0423,0.34375 0.0293,0.98828 0.22929,2.0625 0.74394,7.125 1.14454,11.25 0.64432,6.63475 0.7565,6.95922 0.97461,2.8125 0.13561,-2.57812 -0.37906,-7.64062 -1.14454,-11.25 -0.52625,-2.48144 -0.89741,-3.85479 -1.0039,-3.80078 z"
       style="fill:#000000" />
    <path
       inkscape:connector-curvature="0"
       id="path4645"
       d="m 391.28125,39.70508 c -0.19674,0.10876 -0.63417,2.2832 -1.13086,5.76367 -0.66224,4.64063 -1.18837,9.91406 -1.16797,11.71875 0.0204,1.80469 0.57995,-0.51562 1.24219,-5.15625 0.66224,-4.64062 1.18641,-9.91406 1.16601,-11.71875 -0.005,-0.45117 -0.0438,-0.64368 -0.10937,-0.60742 z"
       style="fill:#000000" />
    <path
       inkscape:connector-curvature="0"
       id="path4643"
       d="m 388.85938,63.99219 c -0.0427,0.0228 -0.0896,0.0967 -0.14063,0.22656 -0.40528,1.03125 -0.73352,4.82813 -0.72852,8.4375 0.0103,8.30995 0.52882,6.9331 1.0586,-2.8125 0.1977,-3.63682 0.10911,-6.01085 -0.18945,-5.85156 z"
       style="fill:#000000" />
    <path
       style="fill:#fefefe"
       d="m 234.59766,21.5625 c -0.36667,0 -0.92647,4.957031 -1.24414,11.015625 -0.31767,6.058594 -1.25026,19.861168 -2.07227,30.671875 -1.41831,18.652703 -1.41255,19.717254 0.14453,20.859375 2.64734,1.94183 4.87409,1.398258 6.40039,-1.5625 1.16743,-2.264608 1.42578,-7.048083 1.42578,-26.388672 0,-21.777458 -0.1555,-24.050981 -1.99414,-29.109375 -1.09691,-3.017783 -2.29348,-5.486328 -2.66015,-5.486328 z"
       id="path4419"
       inkscape:connector-curvature="0" />
    <path
       style="fill:#fefefe"
       d="m 340.16992,21.5625 c -0.36668,0 -1.56519,2.468545 -2.66211,5.486328 -1.83863,5.058394 -1.99414,7.331917 -1.99414,29.109375 0,19.340589 0.25835,24.124064 1.42578,26.388672 1.5263,2.960758 3.75305,3.50433 6.40039,1.5625 1.55708,-1.142121 1.5648,-2.206672 0.14649,-20.859375 -0.82202,-10.810707 -1.7546,-24.613281 -2.07227,-30.671875 C 341.0964,26.519531 340.53658,21.5625 340.16992,21.5625 Z"
       id="path4417"
       inkscape:connector-curvature="0" />
    <path
       style="fill:#fefefe"
       d="m 392.35938,24.734375 c -0.4814,0.02557 -1.05507,0.237854 -1.85938,0.605469 -3.50861,1.603628 -4.37922,4.264879 -5.43945,16.632812 -0.51846,6.048115 -1.15893,12.578125 -1.42383,14.511719 C 383.17768,59.835025 383.2809,60 385.81055,60 l 2.65429,0 1.51172,-11.484375 c 1.39107,-10.566097 1.41306,-7.562925 0.0488,6.480469 -0.53848,5.543155 -0.46997,5.795279 1.66992,6.201172 1.22667,0.232675 2.54613,0.480561 2.93164,0.550781 0.38551,0.07022 0.73219,-3.142578 0.77149,-7.138672 0.0394,-3.996094 0.26433,-11.524762 0.5,-16.730469 0.36878,-8.146045 0.19218,-9.757035 -1.26367,-11.560547 -0.9279,-1.149486 -1.47307,-1.626601 -2.27539,-1.583984 z"
       id="path4415"
       inkscape:connector-curvature="0" />
    <path
       style="fill:#fefefe"
       d="m 438.78781,27.1875 c -0.44514,0 -0.80859,2.430419 -0.80859,5.400391 0,5.398701 -2.30154,36.689579 -3.37305,45.86914 -0.50961,4.365718 -0.32112,5.10967 1.82813,7.265625 3.10048,3.110174 3.97746,3.02794 5.82031,-0.546875 1.29053,-2.50338 1.49953,-6.292966 1.38476,-25.078125 -0.12158,-19.898266 -0.33128,-22.672338 -2.08789,-27.519531 -1.07445,-2.964844 -2.31853,-5.390625 -2.76367,-5.390625 z"
       id="path4413"
       inkscape:connector-curvature="0" />
    <path
       style="fill:#fefefe"
       d="m 284.06641,29.0625 c -2.56532,0 -3.02959,2.974993 -2.29883,14.707031 0.46065,7.395477 0.99642,10.585083 1.73828,10.333985 1.20443,-0.407664 1.38359,-9.311869 0.35156,-17.541016 -0.63758,-5.083843 -0.62979,-5.070679 0.67969,0.9375 0.73046,3.351562 1.35502,8.308594 1.38672,11.015625 0.0566,4.830895 0.10941,4.921875 2.86133,4.921875 3.13848,0 3.11641,0.09287 1.90039,-8.345703 C 289.5089,36.926442 286.26185,29.0625 284.06641,29.0625 Z"
       id="path4411"
       inkscape:connector-curvature="0" />
    <path
       style="fill:#fefefe"
       d="m 287.64258,55.308594 c -2.0698,0.05781 -1.84864,1.092919 -0.63086,13.960937 1.14287,12.076339 1.99255,14.648491 5.47461,16.548828 3.17663,1.73365 3.77539,1.679468 3.77539,-0.341797 0,-2.972224 -2.78661,-21.763514 -3.86328,-26.052734 -0.92022,-3.665941 -1.32352,-4.111328 -3.72461,-4.111328 -0.39294,0 -0.73557,-0.01217 -1.03125,-0.0039 z"
       id="path4409"
       inkscape:connector-curvature="0" />
    <path
       style="fill:#fefefe"
       d="m 283.36914,56.25 c -1.2173,0 -1.3329,1.598583 -0.83008,11.484375 0.32127,6.316406 0.86022,12.865505 1.19922,14.554687 l 0.61719,3.072266 1.2793,-2.474609 c 1.55607,-3.008702 1.58382,-5.151831 0.21484,-17.228516 C 285.02175,58.355082 284.46682,56.25 283.36914,56.25 Z"
       id="path4407"
       inkscape:connector-curvature="0" />
    <path
       style="fill:#fefefe"
       d="m 384.99023,61.861328 c -1.89567,0.02448 -1.85086,1.046233 -3.23828,15.822266 l -0.56054,5.964844 2.77343,-1.980469 c 3.6951,-2.639365 5.14179,-2.501336 8.26563,0.787109 1.44586,1.522045 2.73477,2.78766 2.86328,2.8125 0.1285,0.02483 0.23242,-4.798886 0.23242,-10.71875 0,-10.751572 -0.002,-10.764738 -2.3789,-11.363281 -1.30898,-0.329561 -2.66169,-0.315944 -3.00586,0.0293 -0.34417,0.345241 -0.92263,4.088003 -1.28516,8.316406 l -0.6582,7.6875 0.27539,-8.671875 0.27734,-8.671875 -2.61914,0 c -0.35985,0 -0.67059,-0.01717 -0.94141,-0.01367 z"
       id="path4405"
       inkscape:connector-curvature="0" />
    <path
       style="fill:#fefefe"
       d="m 134.9082,68.4375 c -2.79897,0 -0.8858,2.061292 6.44727,6.945312 7.72762,5.146793 21.46665,15.807766 28.03906,21.75586 5.3674,4.857568 9.85349,3.756498 8.31055,-2.039063 -0.57729,-2.168385 -2.51579,-3.836511 -9.08008,-7.818359 -4.58975,-2.784114 -12.34288,-7.66379 -17.22852,-10.84375 -8.38915,-5.460329 -13.62288,-8 -16.48828,-8 z"
       id="path4403"
       inkscape:connector-curvature="0" />
    <path
       style="fill:#fefefe"
       d="m 290.85938,102.48047 c -0.47911,0.0146 -0.99394,0.19354 -1.5918,0.4668 -3.3064,1.5112 -2.93426,3.85298 1.34375,8.45507 5.25125,5.64905 9.88077,15.45538 9.68555,20.51563 -0.16012,4.14978 0.38801,4.83287 2.32031,2.89453 1.91483,-1.92081 1.27927,-5.01011 -3.57031,-17.37891 -4.69626,-11.97776 -6.11139,-15.01639 -8.1875,-14.95312 z"
       id="path4401"
       inkscape:connector-curvature="0" />
    <path
       style="fill:#fefefe"
       d="m 103.68164,106.22266 c -3.11446,0.003 -7.822766,0.19548 -14.570312,0.57812 -15.501006,0.87904 -19.280863,1.38482 -22.990234,3.06836 -2.441588,1.10815 -4.439349,2.25806 -4.439453,2.55664 -1.03e-4,0.29858 11.771485,0.54297 26.158203,0.54297 21.348156,0 26.249056,-0.23764 26.652346,-1.29102 0.63712,-1.6641 -1.1887,-3.86523 -3.20508,-3.86523 -0.8623,0 -2.03011,-0.46389 -2.5957,-1.03125 -0.37404,-0.37523 -1.8953,-0.56184 -5.00977,-0.55859 z"
       id="path4399"
       inkscape:connector-curvature="0" />
    <path
       style="fill:#fefefe"
       d="m 379.49414,107.68945 c -0.84863,-0.0192 -1.71175,1.76708 -3.76367,7.22071 -2.63616,7.00641 -2.9452,8.72876 -2.37891,13.27539 0.35794,2.87379 1.10436,6.22753 1.66016,7.45117 0.55579,1.22365 1.46363,2.07195 2.01758,1.88672 1.24245,-0.41545 1.23194,-0.74298 -0.2793,-7.53906 -1.1588,-5.21112 -1.10276,-5.74838 1.13672,-10.78126 3.31735,-7.45519 3.7991,-9.90894 2.20703,-11.23437 -0.2086,-0.17366 -0.40377,-0.27487 -0.59961,-0.2793 z"
       id="path4397"
       inkscape:connector-curvature="0" />
    <path
       style="fill:#fefefe"
       d="m 234.86914,109.81641 c -0.18622,0.003 -0.38118,0.0196 -0.58594,0.0488 -1.77845,0.25398 -1.99479,0.77102 -1.6914,4.04102 0.19131,2.0625 0.28804,9.33984 0.21484,16.17187 l -0.13476,12.42188 3.29101,0 c 3.61157,0 4.40973,-1.39281 1.35547,-2.36523 -2.10119,-0.66897 -2.08941,-2.62314 0.12305,-19.96289 0.94236,-7.38555 0.22098,-10.39392 -2.57227,-10.35547 z"
       id="path4395"
       inkscape:connector-curvature="0" />
    <path
       style="fill:#fefefe"
       d="m 339.89648,109.81641 c -2.79325,-0.0385 -3.51266,2.96992 -2.57031,10.35547 2.21246,17.33974 2.22424,19.29392 0.12305,19.96289 -1.06402,0.33876 -1.93555,1.00935 -1.93555,1.49023 0,0.48087 1.48165,0.875 3.29102,0.875 l 3.28906,0 -0.13281,-12.42188 c -0.0731,-6.83203 0.0235,-14.10937 0.21484,-16.17187 0.30338,-3.27 0.0871,-3.78704 -1.6914,-4.04102 -0.20476,-0.0292 -0.40168,-0.0463 -0.5879,-0.0488 z"
       id="path4393"
       inkscape:connector-curvature="0" />
    <path
       id="path4391"
       d="m 439.08594,110.77344 c -0.15356,-0.003 -0.31083,0.006 -0.47071,0.0293 -1.77549,0.25354 -1.99663,0.77662 -1.70703,4.04102 0.18298,2.0625 0.39475,8.59406 0.46875,14.51367 0.0302,2.41646 0.0678,4.15121 0.12305,5.61133 -0.0865,1.81801 -0.47478,3.36649 -1.49609,4.45703 -1.88387,2.01155 -2.07207,3.9857 -0.21094,2.21289 0.47975,-0.45698 1.71415,-0.98675 2.74219,-1.17578 1.20929,-0.22237 1.57339,-1.29536 1.76367,-5 l 0.004,0 c -3.2e-4,-0.0191 0.002,-0.0451 0.002,-0.0644 0.007,-0.14241 0.0187,-0.22265 0.0254,-0.37305 0,-0.0736 -0.0128,-0.12605 -0.0156,-0.19531 0.0249,-1.42369 0.19318,-3.37688 0.5,-6.41602 0.49323,-4.88572 1.13495,-10.01853 1.42774,-11.40625 0.68918,-3.2665 -0.85283,-6.18352 -3.15625,-6.23437 z"
       style="fill:#fefefe"
       inkscape:connector-curvature="0" />
    <path
       style="fill:#fefefe"
       d="m 39.550781,110.79104 c -0.273659,0.0269 -0.531133,0.0827 -0.757812,0.16992 -1.40196,0.53966 -1.543969,1.29944 -0.94336,5.07226 0.388442,2.44006 0.613213,8.78868 0.5,14.10938 -0.172268,8.09611 0.06239,9.97033 1.433594,11.49023 2.166314,2.40124 2.79719,1.58553 1.396485,-1.80664 -0.91679,-2.22024 -0.822885,-4.38239 0.5,-11.51367 2.125985,-11.46055 2.193748,-15.791 0.269531,-17.02148 -0.62225,-0.39791 -1.577461,-0.58061 -2.398438,-0.5 z"
       id="path4389"
       inkscape:connector-curvature="0" />
    <path
       style="fill:#fefefe"
       d="m 392.10938,110.84184 c -0.0746,-8.9e-4 -0.1485,0.035 -0.22266,0.10937 -0.96399,0.96699 -1.09864,11.37732 -0.25,19.32227 0.69132,6.4723 0.59287,8.31796 -0.53516,10.04492 -0.76009,1.16366 -1.37419,2.4467 -1.36718,2.85156 0.008,0.40486 0.32352,0.25871 0.70117,-0.32617 0.37764,-0.58488 1.52665,-1.23174 2.55468,-1.43555 1.76673,-0.35026 1.85532,-1.01017 1.60743,-12.06054 -0.22929,-10.22066 -1.3691,-18.4926 -2.48828,-18.50586 z"
       id="path4387"
       inkscape:connector-curvature="0" />
    <path
       style="fill:#fefefe"
       d="m 284.05664,111.30082 c -0.73848,-0.13085 -0.98044,0.7745 -1.41211,3.66211 -0.3525,2.3579 -0.27191,9.41297 0.17969,15.67773 l 0.82031,11.39063 2.57031,0.29687 c 1.41355,0.16316 2.57032,0.76081 2.57032,1.32813 0,0.56728 0.24654,0.78369 0.54882,0.48047 0.30227,-0.30322 -0.32532,-1.74462 -1.39453,-3.20313 -1.78938,-2.44086 -1.87318,-3.25762 -1.07031,-10.26367 1.13397,-9.89536 0.37453,-17.51235 -1.88476,-18.92773 -0.38186,-0.23922 -0.68158,-0.39779 -0.92774,-0.44141 z"
       id="path4385"
       inkscape:connector-curvature="0" />
    <path
       style="fill:#fefefe"
       d="m 47.169922,111.5625 c -3.160037,0 -3.296986,0.41094 -1.789063,5.39062 0.511885,1.69041 2.677447,1.44158 5.185547,-0.5957 1.865523,-1.51534 1.997474,-1.98355 0.923828,-3.28125 -0.68879,-0.83254 -2.632307,-1.51367 -4.320312,-1.51367 z"
       id="path4383"
       inkscape:connector-curvature="0" />
    <path
       style="fill:#fefefe"
       d="m 144.87109,111.75391 c -0.40952,-0.0118 -0.84048,0.0486 -1.32226,0.16992 -2.57581,0.64851 -3.04274,2.35764 -1.45899,5.32617 1.08331,2.0305 3.2732,2.28691 7.08789,0.83203 l 2.57032,-0.98047 -2.88477,-2.89453 c -1.71771,-1.72306 -2.76363,-2.41768 -3.99219,-2.45312 z"
       id="path4381"
       inkscape:connector-curvature="0" />
    <path
       style="fill:#fefefe"
       d="m 192.44141,112.5 c -1.95328,0 -4.04511,3.25531 -3.31641,5.16016 0.26585,0.69497 -0.75148,5.82901 -2.25977,11.41015 -1.50829,5.58116 -2.74504,11.09767 -2.74804,12.25781 -0.004,1.62647 0.53047,2.10938 2.33203,2.10938 2.44353,0 2.96151,-0.8716 1.43164,-2.40625 -1.1263,-1.12982 3.5494,-17.30687 5.7168,-19.7793 3.48291,-3.97308 2.85144,-8.75195 -1.15625,-8.75195 z"
       id="path4379"
       inkscape:connector-curvature="0" />
    <path
       style="fill:#fefefe"
       d="m 289.83594,112.69727 c -0.1775,0.0119 -0.35673,0.0548 -0.53906,0.125 -1.76571,0.67968 -1.99199,6.8001 -0.27735,7.49414 0.64253,0.26007 2.55818,0.50617 4.25781,0.54687 l 3.08985,0.0742 -1.52344,-2.57812 c -2.54572,-4.3073 -3.76531,-5.74577 -5.00781,-5.66211 z"
       id="path4377"
       inkscape:connector-curvature="0" />
    <path
       style="fill:#fefefe"
       d="m 137.18164,112.70527 c -1.92826,-0.0924 -2.70276,1.67263 -2.3418,5.31836 0.23529,2.37635 -0.008,8.36809 -0.53906,13.3164 -0.53154,4.94831 -0.69916,9.6944 -0.37305,10.54688 0.33539,0.87677 1.62073,1.55078 2.95899,1.55078 2.84982,0 2.96501,-0.60178 0.51172,-2.66211 -1.84121,-1.54628 -1.8358,-1.62757 0.89258,-12.33789 2.75783,-10.82594 2.8551,-14.42995 0.41015,-15.37109 -0.56819,-0.21872 -1.07455,-0.34002 -1.51953,-0.36133 z"
       id="path4375"
       inkscape:connector-curvature="0" />
    <path
       style="fill:#fefefe"
       d="m 443.91867,115.77558 c -0.25327,-0.0217 -0.42988,0.31364 -0.68945,0.99219 -0.3178,0.83076 -0.57813,2.74138 -0.57813,4.24609 0,2.11082 0.42699,2.73633 1.86914,2.73633 1.42323,0 1.86245,-0.61508 1.83985,-2.57812 -0.0163,-1.41798 -0.59713,-3.3286 -1.29102,-4.2461 -0.56675,-0.74939 -0.89711,-1.12868 -1.15039,-1.15039 z"
       id="path4373"
       inkscape:connector-curvature="0" />
    <path
       style="fill:#fefefe"
       d="m 198.14648,116.25 c -1.04277,0 -3.72476,5.34144 -3.03125,6.03711 1.07728,1.08064 6.75391,0.51604 6.75391,-0.67188 0,-1.53496 -2.6575,-5.36523 -3.72266,-5.36523 z"
       id="path4371"
       inkscape:connector-curvature="0" />
    <path
       style="fill:#fefefe"
       d="m 388.05469,116.6543 c -0.54914,-0.0232 -1.19842,0.0289 -1.94727,0.16406 -5.69706,1.0284 -7.4681,3.48013 -3.63086,5.02734 3.3937,1.36836 5.17777,1.09622 6.65235,-1.01562 1.77303,-2.53928 1.30537,-4.07547 -1.07422,-4.17578 z"
       id="path4369"
       inkscape:connector-curvature="0" />
    <path
       style="fill:#fefefe"
       d="m 238.99609,116.7519 c -0.39704,0.0957 -0.67773,1.09535 -0.67773,3.06055 0,3.00962 0.35677,3.9375 1.51758,3.9375 1.21192,0 1.39809,-0.60953 0.91797,-3.01758 -0.54479,-2.73243 -1.24733,-4.1035 -1.75782,-3.98047 z"
       id="path4367"
       inkscape:connector-curvature="0" />
    <path
       style="fill:#fefefe"
       d="m 335.77148,116.7519 c -0.51048,-0.12303 -1.21302,1.24804 -1.75781,3.98047 -0.48011,2.40805 -0.29591,3.01758 0.91602,3.01758 1.1608,0 1.51953,-0.92788 1.51953,-3.9375 0,-1.9652 -0.28069,-2.96485 -0.67774,-3.06055 z"
       id="path4365"
       inkscape:connector-curvature="0" />
    <path
       style="fill:#fefefe"
       d="m 35.208984,140.65425 c -1.190142,-0.1048 -2.516505,0.48572 -2.830078,1.61132 -1.209933,4.34322 0.110392,8.8335 3.671875,12.49219 3.425562,3.51905 5.084377,4.49506 5.060547,2.97657 -0.02247,-1.43173 -3.557795,-15.1373 -4.154297,-16.10547 -0.368363,-0.59789 -1.033961,-0.91174 -1.748047,-0.97461 z"
       id="path4361"
       inkscape:connector-curvature="0" />
    <path
       style="fill:#fefefe"
       d="m 42.677734,148.22456 c -0.05262,-0.0122 -0.09327,-0.006 -0.11914,0.0195 -0.194939,0.19555 0.284102,3.51948 1.0625,7.38477 l 1.414062,7.02734 9.308594,9.08008 c 5.119205,4.99351 9.810592,9.28422 10.425781,9.53515 1.920096,0.7832 5.324219,0.64323 5.324219,-0.21875 0,-0.45249 -0.682047,-1.39001 -1.515625,-2.08398 -2.011124,-1.6743 -14.270876,-16.24144 -17.738281,-21.07617 -3.671138,-5.11881 -7.372763,-9.48436 -8.16211,-9.66797 z"
       id="path3468"
       inkscape:connector-curvature="0" />
    <path
       style="fill:#0000fe"
       d="m 30.285796,146.70067 c -0.829613,-3.31577 2.035736,-24.75061 3.950197,-29.55028 l 1.588738,-3.98305 1.148272,4.53649 c 0.725072,2.86455 0.965297,7.86742 0.651805,13.57439 -0.482582,8.78518 -0.555921,9.0265 -2.622769,8.63016 -2.724638,-0.52247 -4.515324,2.58877 -3.681589,6.3966 0.734772,3.35585 -0.204172,3.71492 -1.034654,0.39569 z m 95.882424,-29.47846 c -2.31308,-0.35875 -5.99833,-1.16384 -8.18945,-1.78908 -3.61002,-1.03015 -3.88805,-1.31639 -2.9629,-3.05047 1.20915,-2.26637 -0.84795,-5.15195 -4.13216,-5.79636 -1.31857,-0.25873 -0.95485,-0.43718 1.0622,-0.52113 1.68706,-0.0702 4.57721,0.50514 6.42254,1.27858 1.84726,0.77424 6.16374,1.40625 9.60444,1.40625 3.81261,0 6.93123,0.50019 7.99822,1.28284 1.69011,1.23971 1.68041,1.31963 -0.28866,2.37674 -1.24767,0.66981 -2.03759,1.98971 -2.03759,3.40465 0,2.50031 -0.19582,2.5372 -7.47664,1.40798 z m 58.60445,-4.35666 c -1.28246,-2.00574 -4.03543,-5.29181 -6.11769,-7.30239 l -3.78592,-3.6556 2.28574,-1.80359 c 1.76537,-1.392973 2.14972,-2.347264 1.68826,-4.191645 -0.52284,-2.089706 0.29683,-1.660725 6.56056,3.433509 8.58425,6.981496 12.88238,13.754816 7.89878,12.447506 -1.47839,-0.38782 -2.58773,0.17718 -4.11133,2.09394 l -2.08664,2.62506 z m 257.17234,-1.32704 c -1.24506,-1.99989 -4.37532,-2.48275 -5.39247,-0.83183 -2.16226,3.50955 -3.71531,-6.16277 -2.78614,-17.352086 l 0.66811,-8.045557 2.37844,1.876731 c 3.17145,2.502456 3.70758,2.395672 5.87493,-1.170143 2.06409,-3.395933 2.234,-2.915443 0.91169,2.578125 -0.6024,2.502711 -0.5527,6.742153 0.14944,12.74597 1.13188,9.67846 0.41063,13.75604 -1.804,10.19879 z m -204.04622,-0.7608 c -0.69425,-2.19421 -4.06712,-2.77761 -5.83069,-1.00853 -0.73163,0.73393 -1.19592,0.72718 -1.65879,-0.0241 -1.17967,-1.91471 -1.68444,-11.01329 -1.01096,-18.222761 0.61211,-6.552579 0.80562,-7.053612 2.39477,-6.200465 2.94852,1.58293 4.61296,1.043286 6.53488,-2.11873 2.02434,-3.330525 2.30092,-2.272528 0.91905,3.515625 -0.59489,2.491768 -0.53798,6.913557 0.16959,13.178578 0.74075,6.558633 0.76945,9.958133 0.0943,11.168333 -0.92057,1.65011 -1.00364,1.63528 -1.61215,-0.28795 z m 47.36312,0.26797 c -3.79228,-2.66453 -4.0834,-4.35598 -2.44484,-14.205221 0.84037,-5.051316 2.15209,-10.610203 2.91494,-12.353085 l 1.387,-3.168875 2.00124,2.377435 c 1.10068,1.307589 2.94997,2.855219 4.10953,3.439178 2.0168,1.015669 2.045,1.184504 0.64985,3.890861 -1.32026,2.561055 -1.32077,3.304171 -0.006,7.84274 1.87071,6.455137 1.80871,7.113977 -0.40054,4.256287 -1.72429,-2.23038 -1.93803,-2.27421 -4.41848,-0.90617 -3.22066,1.77629 -3.78744,4.87782 -1.34002,7.33289 2.8699,2.87887 1.07424,3.97239 -2.4532,1.49396 z m 49.78002,-0.69254 c -0.37614,-1.43857 -0.21488,-6.50107 0.35832,-11.249996 0.69834,-5.785562 0.74222,-9.871668 0.13299,-12.384394 -1.40011,-5.774703 -1.12276,-6.851977 0.90512,-3.515625 1.92191,3.162016 3.58635,3.70166 6.53487,2.118729 1.58915,-0.853146 1.78267,-0.352113 2.39478,6.200466 1.03338,11.06219 -0.60985,21.79246 -2.79432,18.24686 -1.12619,-1.8279 -4.85064,-1.13694 -5.87639,1.0902 -0.9661,2.09764 -0.97531,2.09483 -1.65537,-0.50624 z m 53.82313,-0.84715 c -0.4744,-1.18924 -1.09383,-2.90052 -1.37652,-3.80286 -0.55104,-1.7589 -3.37639,-2.30097 -3.37639,-0.6478 0,0.54606 0.42056,0.7321 0.93458,0.41342 1.52465,-0.94523 1.06219,2.00793 -0.52083,3.32582 -1.22316,1.01831 -1.82469,0.84121 -3.76969,-1.10987 -2.31284,-2.32005 -2.3134,-2.32536 -0.89486,-8.362491 0.78069,-3.322528 1.42565,-8.016138 1.43325,-10.430246 0.0119,-3.766961 0.39866,-4.66418 2.72818,-6.328125 3.55525,-2.539476 4.93595,-2.446436 7.90586,0.532753 2.88918,2.898217 2.86452,2.716112 1.06201,7.840909 -0.81515,2.317618 -1.40186,7.248347 -1.40186,11.78129 0,7.88758 -1.14583,10.74282 -2.72373,6.7872 z"
       id="path3464"
       inkscape:connector-curvature="0"
       sodipodi:nodetypes="sscsssssssssssssssssscssssscsssscssssssssssssssscsscssscssscccssssssscssssssscsssss" />
    <path
       style="fill:#fe0000"
       d="m 12.149533,135.31117 c 0,-3.88398 2.756179,-14.21711 5.265436,-19.74052 3.441146,-7.57469 10.064002,-16.675575 12.848702,-17.6562 1.382726,-0.486928 1.488475,-0.787144 0.494355,-1.403466 -0.695553,-0.431222 -1.066541,-0.955284 -0.824419,-1.164581 0.868274,-0.750572 6.826084,-2.534338 7.202743,-2.156502 0.344451,0.345528 -2.198131,5.994083 -3.193872,7.095449 -0.219588,0.24288 -0.778882,-0.17458 -1.242877,-0.927684 -0.672922,-1.092216 -1.728877,-0.422766 -5.218551,3.308404 -5.460299,5.83816 -10.996067,17.59953 -12.503648,26.56542 -0.620175,3.6883 -1.510154,6.70601 -1.97773,6.70601 -0.467577,0 -0.850139,-0.28185 -0.850139,-0.62633 z M 403.97196,82.816612 C 401.78738,82.040913 400,81.110491 400,80.749007 c 0,-0.361483 1.26168,-1.404866 2.80374,-2.318628 1.54205,-0.913762 2.80374,-2.059408 2.80374,-2.545882 0,-0.486473 0.4696,-0.884497 1.04358,-0.884497 0.58345,0 0.82806,0.826699 0.55478,1.875 -0.59013,2.263714 0.93269,2.431021 3.79866,0.417346 1.9587,-1.376208 1.99514,-1.611828 0.65218,-4.216933 -2.70329,-5.243918 -18.67775,-11.277403 -29.4734,-11.131973 -8.00719,0.107867 -14.83547,1.346499 -16.47179,2.987937 -1.27881,1.282805 -1.32796,1.932202 -0.32925,4.35082 0.64566,1.563623 1.96982,3.096348 2.94257,3.406054 C 370.19154,73.282579 370.77962,75 369.1164,75 c -1.64491,0 -5.45227,-4.379287 -6.11694,-7.035804 -0.91852,-3.671093 1.83088,-5.937403 8.53998,-7.039471 12.80619,-2.103604 24.98939,-0.07422 35.64996,5.938283 4.15262,2.342052 5.56893,3.720385 6.24202,6.074632 0.74187,2.594844 0.54915,3.388469 -1.30312,5.366281 -1.19556,1.276593 -3.0467,2.333908 -4.11364,2.349587 -1.76643,0.02596 -1.79365,0.113955 -0.30438,0.984085 1.62477,0.949294 2.27594,2.805031 0.93458,2.663394 -0.38551,-0.04071 -2.48832,-0.708676 -4.6729,-1.484375 z M 303.50467,69.62543 c -1.92757,-0.793299 -3.47431,-1.70152 -3.43719,-2.01827 0.0371,-0.31675 1.52437,-1.791027 3.30503,-3.276171 3.25264,-2.712838 5.39616,-2.803529 3.18829,-0.134895 -1.63461,1.975747 0.6849,1.955598 3.51162,-0.03051 2.37346,-1.667628 2.70242,-4.352921 0.73402,-5.991658 -2.38835,-1.988348 -19.41925,-3.311908 -27.13422,-2.108741 -12.45207,1.941931 -17.54425,5.34862 -15.87603,10.621136 0.30474,0.963147 0.11317,1.751175 -0.42569,1.751175 -1.3031,0 -2.27012,-4.073665 -1.52559,-6.426763 1.30461,-4.123333 14.36371,-8.573237 25.15981,-8.573237 8.07277,0 19.58536,1.886634 21.37846,3.503408 3.15439,2.844222 1.61847,7.687045 -3.05367,9.628356 -2.02922,0.843159 -2.59725,1.496535 -1.90486,2.191078 1.14256,1.146132 1.30752,2.531375 0.28563,2.398553 -0.38551,-0.05011 -2.27804,-0.740168 -4.20561,-1.533465 z"
       id="path3462"
       inkscape:connector-curvature="0" />
  </g>
</svg>
