<?xml version="1.0" encoding="UTF-8" standalone="no"?>
<!-- Created with Inkscape (http://www.inkscape.org/) -->

<svg
   xmlns:dc="http://purl.org/dc/elements/1.1/"
   xmlns:cc="http://creativecommons.org/ns#"
   xmlns:rdf="http://www.w3.org/1999/02/22-rdf-syntax-ns#"
   xmlns:svg="http://www.w3.org/2000/svg"
   xmlns="http://www.w3.org/2000/svg"
   xmlns:sodipodi="http://sodipodi.sourceforge.net/DTD/sodipodi-0.dtd"
   xmlns:inkscape="http://www.inkscape.org/namespaces/inkscape"
   id="svg3388"
   version="1.1"
   inkscape:version="0.91 r13725"
   width="472.89719"
   height="285.9375"
   viewBox="0 0 472.89719 285.9375"
   sodipodi:docname="ub220103.svg">
  <metadata
     id="metadata3394">
    <rdf:RDF>
      <cc:Work
         rdf:about="">
        <dc:format>image/svg+xml</dc:format>
        <dc:type
           rdf:resource="http://purl.org/dc/dcmitype/StillImage" />
        <dc:title></dc:title>
      </cc:Work>
    </rdf:RDF>
  </metadata>
  <defs
     id="defs3392" />
  <sodipodi:namedview
     pagecolor="#ffffff"
     bordercolor="#666666"
     borderopacity="1"
     objecttolerance="10"
     gridtolerance="10"
     guidetolerance="10"
     inkscape:pageopacity="0"
     inkscape:pageshadow="2"
     inkscape:window-width="640"
     inkscape:window-height="480"
     id="namedview3390"
     showgrid="false"
     inkscape:zoom="2.2417486"
     inkscape:cx="236.44859"
     inkscape:cy="142.96875"
     inkscape:window-x="0"
     inkscape:window-y="0"
     inkscape:window-maximized="0"
     inkscape:current-layer="svg3388" />
  <g
     id="g3398">
    <path
       style="fill:#fefefe"
       d="m 114.2998,178.45748 c -0.61641,-0.25134 -5.98026,-5.17506 -11.91967,-10.94161 l -10.798914,-10.48462 0.0037,-5.85938 c 0.0021,-3.22265 0.241216,-5.85937 0.53141,-5.85937 0.652437,0 4.602963,4.67437 8.255306,9.76792 1.50884,2.1042 6.24806,7.97723 10.53161,13.05117 4.28354,5.07393 7.78826,9.60909 7.78826,10.07812 0,0.89212 -2.46982,1.03146 -4.39178,0.24777 z M 85.109265,151.47097 c -3.07894,-3.18659 -4.338601,-7.92123 -3.197364,-12.01785 0.62554,-2.24545 3.775227,-2.06875 5.029472,0.28215 1.019112,1.91018 2.497803,14.95223 1.695265,14.95223 -0.230728,0 -1.818046,-1.44743 -3.527373,-3.21653 z m 262.554285,-9.68995 c 0,-0.56732 -1.15655,-1.16497 -2.5701,-1.32813 l -2.57009,-0.29664 -0.82108,-11.39048 c -0.4516,-6.26477 -0.5327,-13.31969 -0.1802,-15.67759 0.57556,-3.85015 0.81422,-4.17851 2.34164,-3.22165 2.2593,1.41538 3.01718,9.03281 1.88321,18.92817 -0.80287,7.00605 -0.71761,7.82251 1.07177,10.26337 1.06921,1.45851 1.69671,2.89991 1.39444,3.20313 -0.30228,0.30322 -0.54959,0.0871 -0.54959,-0.48018 z M 89.315822,138.82037 c -1.371207,-1.5199 -1.604875,-3.39401 -1.432607,-11.49012 0.113213,-5.3207 -0.111975,-11.67042 -0.500417,-14.11048 -0.600608,-3.77282 -0.459646,-4.53141 0.942314,-5.07107 0.906716,-0.34903 2.327391,-0.20052 3.157058,0.33002 1.924217,1.23048 1.855382,5.56015 -0.270604,17.0207 -1.322885,7.13128 -1.416811,9.2942 -0.500022,11.51444 1.400705,3.39217 0.770592,4.20775 -1.395722,1.80651 z m 101.621378,0.25468 c -0.32611,-0.85248 -0.15802,-5.59857 0.37352,-10.54688 0.53154,-4.94831 0.77393,-10.94121 0.53864,-13.31756 -0.44426,-4.48705 0.83032,-6.1236 3.86068,-4.9571 2.44496,0.94114 2.34912,4.54555 -0.40872,15.37149 -2.72838,10.71032 -2.73426,10.79149 -0.89304,12.33777 2.45329,2.06033 2.33745,2.66223 -0.51238,2.66223 -1.33826,0 -2.6233,-0.67318 -2.9587,-1.54995 z m 52.05896,-0.55943 c 0.003,-1.16015 1.23955,-6.67576 2.74785,-12.25692 1.50829,-5.58114 2.52483,-10.71615 2.25898,-11.41112 -0.72869,-1.90485 1.36404,-5.16008 3.31732,-5.16008 4.0077,0 4.63889,4.77866 1.15598,8.75174 -2.1674,2.47243 -6.84275,18.64941 -5.71645,19.77923 1.52987,1.53465 1.01079,2.40653 -1.43274,2.40653 -1.80156,0 -2.33519,-0.48291 -2.33094,-2.10938 z m 50.55732,-10.3125 c 0.0732,-6.83203 -0.0236,-14.10937 -0.21491,-16.17187 -0.30339,-3.27 -0.0868,-3.78728 1.69165,-4.04126 3.27609,-0.46786 4.16374,2.42856 3.15855,10.30647 -2.21246,17.33975 -2.22454,19.29499 -0.12335,19.96396 3.05426,0.97242 2.25639,2.36458 -1.35518,2.36458 l -3.28977,0 0.13301,-12.42188 z m 98.96988,11.54756 c 0,-0.48088 0.87056,-1.1515 1.93458,-1.49026 2.10119,-0.66897 2.0891,-2.62421 -0.12336,-19.96396 -1.00518,-7.87791 -0.11754,-10.77433 3.15855,-10.30647 1.77851,0.25398 1.99504,0.77126 1.69166,4.04126 -0.19136,2.0625 -0.28807,9.33984 -0.21492,16.17187 l 0.13301,12.42188 -3.28976,0 c -1.80937,0 -3.28976,-0.39345 -3.28976,-0.87432 z m -33.34708,-9.707 c 0.19524,-5.06025 -4.43465,-14.86695 -9.6859,-20.51601 -4.27801,-4.60208 -4.65025,-6.94422 -1.34385,-8.45542 3.18858,-1.457353 3.99941,-0.25633 9.77942,14.48553 4.84958,12.3688 5.4842,15.4589 3.56937,17.37972 -1.9323,1.93834 -2.47914,1.25596 -2.31904,-2.89382 z M 299.06542,117.9375 c 0,-4.49189 1.46724,-3.93774 2.43574,0.91992 0.48012,2.40805 0.29487,3.01758 -0.91705,3.01758 -1.16081,0 -1.51869,-0.92788 -1.51869,-3.9375 z m 91.95677,0.91992 c 0.96851,-4.85766 2.43575,-5.41181 2.43575,-0.91992 0,3.00962 -0.35789,3.9375 -1.51869,3.9375 -1.21193,0 -1.39717,-0.60953 -0.91706,-3.01758 z m -137.02848,0.61752 c -0.69351,-0.69567 1.98832,-6.03744 3.03109,-6.03744 1.06516,0 3.72286,3.82989 3.72286,5.36485 0,1.18792 -5.67667,1.75323 -6.75395,0.67259 z m 93.90348,-1.03333 c -1.71464,-0.69404 -1.48716,-6.81519 0.27854,-7.49487 1.45865,-0.56148 2.637,0.61502 5.54639,5.53764 l 1.52374,2.57812 -3.09022,-0.0741 c -1.69963,-0.0407 -3.61592,-0.2868 -4.25845,-0.54687 z M 199.0983,114.43663 c -1.58376,-2.96853 -1.11541,-4.67616 1.4604,-5.32467 1.92715,-0.48519 3.02292,-0.0143 5.3132,2.28311 l 2.88536,2.89436 -2.57032,0.98028 c -3.81469,1.45488 -6.00534,1.19742 -7.08864,-0.83308 z m -104.184722,-0.296 c -1.507925,-4.97968 -1.371579,-5.39063 1.788449,-5.39063 1.688009,0 3.632663,0.68117 4.321453,1.51371 1.07364,1.2977 0.94184,1.76591 -0.92369,3.28125 -2.50809,2.03728 -4.674333,2.28608 -5.186212,0.59567 z m 23.777822,-4.52725 c 1e-4,-0.29858 1.99785,-1.44953 4.43944,-2.55768 3.70937,-1.68354 7.48934,-2.18777 22.99034,-3.06681 13.4951,-0.76529 18.83137,-0.77086 19.57944,-0.0204 0.56559,0.56736 1.73386,1.03156 2.59616,1.03156 2.01639,0 3.84104,2.20145 3.20393,3.86555 -0.4033,1.05338 -5.30367,1.2907 -26.65182,1.2907 -14.38672,0 -26.15759,-0.24429 -26.15749,-0.54287 z M 228.27372,94.325794 C 221.70131,88.3777 207.96126,77.717266 200.23364,72.570474 192.90057,67.686454 190.9868,65.625 193.78577,65.625 c 2.8654,0 8.10098,2.540122 16.49013,8.000451 4.88564,3.17996 12.63824,8.059658 17.22799,10.843772 6.56429,3.981848 8.50163,5.650258 9.07892,7.818643 1.54294,5.795568 -2.94169,6.89549 -8.30909,2.037928 z M 351.36549,83.942455 c -3.48206,-1.900337 -4.33261,-4.470738 -5.47548,-16.547077 -1.39175,-14.706307 -1.4809,-13.957878 1.66259,-13.957878 2.40109,0 2.80458,0.445363 3.7248,4.111304 1.07667,4.28922 3.86278,23.079661 3.86278,26.051886 0,2.021265 -0.59806,2.075415 -3.77469,0.341765 z m -59.19111,-1.708499 c -1.55708,-1.142121 -1.56454,-2.206672 -0.14623,-20.859375 0.82201,-10.810707 1.75448,-24.612862 2.07215,-30.671456 0.31767,-6.058594 0.87758,-11.015625 1.24425,-11.015625 0.36667,0 1.56415,2.469096 2.66106,5.486879 1.83864,5.058394 1.99439,7.331598 1.99439,29.109056 0,19.340589 -0.25844,24.123513 -1.42587,26.388121 -1.5263,2.960758 -3.75241,3.50423 -6.39975,1.5624 z m 50.44327,-1.818966 c -0.339,-1.689182 -0.87922,-8.239209 -1.20049,-14.555615 -0.50282,-9.885791 -0.38728,-11.484375 0.83002,-11.484375 1.09768,0 1.65282,2.105481 2.48068,9.408602 1.36898,12.076685 1.34241,14.218648 -0.21366,17.22735 l -1.28019,2.475278 -0.61636,-3.07124 z m 51.33158,0.256566 c -1.16743,-2.264608 -1.42587,-7.047532 -1.42587,-26.388121 0,-21.777458 0.15575,-24.050662 1.99438,-29.109056 1.09692,-3.017783 2.29439,-5.486879 2.66107,-5.486879 0.36666,0 0.92658,4.957031 1.24424,11.015625 0.31767,6.058594 1.25014,19.860749 2.07216,30.671456 1.41831,18.652703 1.41085,19.717254 -0.14623,20.859375 -2.64734,1.94183 -4.87345,1.398358 -6.39975,-1.5624 z M 340.6453,41.894677 C 339.91454,30.162639 340.37976,27.1875 342.94508,27.1875 c 2.19544,0 5.4431,7.864079 6.61975,16.029434 1.21602,8.438578 1.2372,8.345566 -1.90128,8.345566 -2.75192,0 -2.80481,-0.09098 -2.86137,-4.921875 -0.0317,-2.707031 -0.65529,-7.664063 -1.38575,-11.015625 -1.30948,-6.008179 -1.31905,-6.021343 -0.68147,-0.9375 1.03203,8.229147 0.85427,17.134273 -0.35016,17.541937 -0.74186,0.251098 -1.27885,-2.939283 -1.7395,-10.33476 z"
       id="path3408"
       inkscape:connector-curvature="0" />
    <path
       style="fill:#bfbfbf"
       d="M 0,142.96875 0,0 l 236.44859,0 236.4486,0 0,142.96875 0,142.96875 -236.4486,0 L 0,285.9375 0,142.96875 Z m 410.48941,130.08011 -13.34238,-0.28814 0.25826,-64.9868 c 0.21021,-52.8965 0.49304,-65.27047 1.52023,-66.51161 0.98979,-1.19594 1.11676,-3.85611 0.58871,-12.33386 -0.42057,-6.75208 -0.31637,-11.77564 0.27763,-13.38437 4.65714,-12.61281 4.66397,-12.87044 1.4839,-56.01283 -0.79816,-10.828125 -1.72714,-24.328125 -2.06441,-30 -0.72754,-12.235035 -2.09179,-13.453822 -5.41784,-4.840169 -2.00939,5.203822 -2.121,6.843502 -2.27467,33.417237 -0.0889,15.369698 0.11903,28.400417 0.46204,28.957154 0.34302,0.556737 0.11759,5.379446 -0.50093,10.717128 -1.04871,9.05007 -1.28793,9.77737 -3.54526,10.77904 -1.33138,0.59077 -3.29157,0.84541 -4.35601,0.56584 -1.60524,-0.42161 -2.1233,0.12105 -3.03739,3.1815 -1.31797,4.41276 -1.38347,5.81602 -0.27147,5.81602 0.45681,0 1.10671,-1.47656 1.44421,-3.28125 0.90286,-4.82769 3.30232,-4.38431 2.6506,0.48979 -0.66192,4.95049 1.46758,7.47896 6.29887,7.47896 l 3.45792,0 0.57593,6.79688 c 0.52835,6.23528 0.40821,6.92512 -1.4539,8.34909 -1.8058,1.3809 -1.88019,1.73297 -0.67403,3.18996 1.13221,1.36764 1.40022,8.72642 1.62512,44.61965 l 0.26931,42.98192 -7.97959,0 c -4.69668,0 -7.97959,0.3857 -7.97959,0.9375 0,0.55147 3.27103,0.9375 7.94392,0.9375 l 7.94393,0 0,21.09375 0,21.09375 -23.83178,0 -23.83177,0 0,-63.5414 c 0,-55.76307 0.1766,-63.79433 1.44269,-65.60757 1.32364,-1.89567 1.2857,-2.28035 -0.45985,-4.66173 -1.75657,-2.3964 -1.83195,-3.20699 -0.9825,-10.5643 0.50603,-4.38281 0.92325,-8.18272 0.92714,-8.44426 0.004,-0.26152 1.87382,-0.32657 4.15536,-0.14454 3.98595,0.318 4.20397,0.49494 5.57177,4.52177 0.78293,2.30494 1.18693,5.37742 0.89777,6.82772 -0.66625,3.34169 1.06655,4.5147 3.45978,2.34209 2.3063,-2.09369 2.28573,-4.76083 -0.0832,-10.78961 -1.29403,-3.29324 -1.70429,-5.8302 -1.29594,-8.01373 0.36642,-1.95929 0.16398,-3.71901 -0.52344,-4.5499 -1.15344,-1.39414 -0.59507,-3.31204 0.96425,-3.31204 0.48368,0 0.87942,0.63281 0.87942,1.40625 0,0.77344 0.46615,1.40625 1.0359,1.40625 0.6632,0 0.80399,-0.92686 0.39131,-2.5762 -0.85001,-3.39732 -0.9112,-3.42885 -3.44893,-1.77759 -1.86108,1.21098 -2.43948,1.23128 -3.91299,0.13729 -0.951,-0.70606 -1.46078,-1.71926 -1.13282,-2.25156 0.32795,-0.53229 -0.0726,-3.275874 -0.89014,-6.096849 -1.43295,-4.944585 -1.41384,-5.271727 0.5313,-9.096431 1.92016,-3.775588 1.9632,-4.401633 0.89021,-12.949898 -0.62012,-4.940381 -1.72454,-11.681235 -2.45426,-14.979674 -0.72972,-3.298438 -1.14219,-6.182317 -0.91659,-6.408619 0.76894,-0.771349 16.672,1.580546 17.96477,2.656801 1.91792,1.59671 1.55977,4.295485 -0.78908,5.94582 -2.82672,1.986102 -5.14623,2.006251 -3.51162,0.03051 2.20787,-2.668634 0.0643,-2.577943 -3.18829,0.134895 -1.78066,1.485144 -3.26792,2.952673 -3.30503,3.261176 -0.0895,0.744107 7.61679,3.762046 8.17544,3.20166 0.23905,-0.239808 -0.0526,-1.02501 -0.64824,-1.744894 -0.86975,-1.051251 -0.52102,-1.542343 1.7717,-2.494984 3.05198,-1.268126 4.65231,-3.451407 4.65231,-6.347016 0,-3.352518 -3.00057,-4.790025 -12.42304,-5.951595 -5.2142,-0.642791 -9.08015,-1.552846 -9.0908,-2.139995 C 351.20626,40.467775 346.28232,26.25 343.07496,26.25 c -3.3904,0 -4.09832,3.152886 -3.3881,15.089686 l 0.65721,11.045593 -4.05054,1.039333 c -5.83035,1.496014 -10.19811,3.923201 -11.28636,6.27188 -1.06941,2.308017 -0.24502,6.866008 1.24184,6.866008 0.53885,0 0.73042,-0.788028 0.42568,-1.751173 -1.04474,-3.301972 1.01474,-6.402947 5.27321,-7.939886 8.73857,-3.153875 8.23901,-3.350621 8.23901,3.244823 0,3.227188 0.47925,10.609599 1.06501,16.405358 0.9111,9.014942 0.83972,11.772977 -0.49396,19.085547 -0.85743,4.701291 -1.2831,8.995571 -0.94591,9.542861 0.33719,0.54727 0.71441,8.32651 0.83827,17.28718 0.16886,12.21601 0.54825,16.68232 1.51641,17.85171 1.04845,1.26636 1.34331,9.72875 1.56833,45.01033 l 0.27711,43.45075 -7.98739,0 c -4.70188,0 -7.9874,0.38563 -7.9874,0.9375 0,0.55147 3.27103,0.9375 7.94392,0.9375 l 7.94393,0 0,21.09375 0,21.09375 -22.92184,0 -22.92183,0 0.25828,-65.01268 c 0.21914,-55.15907 0.46378,-65.26098 1.61409,-66.65092 1.2062,-1.45745 1.13182,-1.80949 -0.67403,-3.19043 -1.86211,-1.42397 -1.98224,-2.11381 -1.45389,-8.3491 l 0.57592,-6.79687 3.45793,0 c 4.83129,0 6.96079,-2.52847 6.29886,-7.47896 -0.65171,-4.8741 1.74774,-5.31748 2.6506,-0.48979 0.33751,1.80469 0.9874,3.28125 1.44422,3.28125 1.112,0 1.04649,-1.40326 -0.27148,-5.81602 -0.91408,-3.06045 -1.43215,-3.60311 -3.03738,-3.1815 -1.06444,0.27957 -3.02464,0.0249 -4.35601,-0.56584 -2.25734,-1.00167 -2.49655,-1.72897 -3.54526,-10.77904 -0.61853,-5.337682 -0.84396,-10.160391 -0.50094,-10.717128 0.34301,-0.556737 0.55094,-13.587456 0.46205,-28.957154 -0.15367,-26.573735 -0.26528,-28.213416 -2.27467,-33.417237 -3.32605,-8.613654 -4.6903,-7.394866 -5.41784,4.840169 -0.33728,5.671875 -1.26626,19.171875 -2.06442,30 -3.18006,43.14239 -3.17324,43.40002 1.4839,56.01283 0.594,1.60873 0.69821,6.63229 0.27764,13.38437 -0.52807,8.47784 -0.4011,11.1378 0.58871,12.33338 1.01012,1.22013 1.31572,10.10203 1.53128,44.50625 l 0.26931,42.98192 -9.38146,0 c -5.63125,0 -9.38146,0.37477 -9.38146,0.9375 0,0.5625 3.73832,0.9375 9.34579,0.9375 l 9.3458,0 0,21.09375 0,21.09375 -24.29907,0 -24.29906,0 0.006,-63.04688 c 0.004,-41.52837 0.34341,-64.26861 0.9961,-66.62644 0.6864,-2.47958 0.69228,-3.94051 0.0192,-4.75413 -0.68918,-0.83301 -0.28495,-3.47244 1.39011,-9.07668 3.40397,-11.38868 3.09716,-10.72093 4.34904,-9.46514 0.59997,0.60185 3.09475,1.09427 5.54396,1.09427 3.5772,0 4.66116,-0.38998 5.51088,-1.98266 1.0443,-1.95738 0.85185,-5.4156 -0.47388,-8.51544 -0.5852,-1.36829 -0.12571,-1.56577 3.27197,-1.40625 2.53137,0.11886 4.10582,-0.25051 4.3784,-1.02717 0.31005,-0.88341 -0.23701,-1.04593 -2.01441,-0.59843 -1.45001,0.36506 -3.01105,0.13896 -3.84732,-0.55724 -1.13862,-0.94794 -1.71613,-0.89341 -3.02525,0.28562 -0.88989,0.80146 -2.87289,1.59796 -4.40665,1.77001 -2.43771,0.27344 -3.02581,-0.15713 -4.6729,-3.42127 -2.43408,-4.82378 -15.46896,-15.454953 -28.98703,-23.641672 -5.6542,-3.424262 -13.25028,-8.222483 -16.88017,-10.662715 -7.42813,-4.993635 -13.88866,-7.409049 -15.49829,-5.794379 -1.50876,1.513469 -0.47441,2.580534 7.90512,8.155156 15.98343,10.633239 36.82299,28.85134 44.7627,39.13188 l 2.53233,3.27893 -2.8591,10.64089 c -2.58724,9.62909 -2.76139,11.12899 -1.83141,15.77417 0.65267,3.26006 1.0277,19.95802 1.0277,45.75818 l -4.1e-4,40.62489 -10.28037,0 c -6.23054,0 -10.28038,0.36932 -10.28038,0.9375 0,0.56818 4.04984,0.9375 10.28038,0.9375 l 10.28037,0 0,21.09375 0,21.09375 -24.76635,0 -24.76636,0 0,-63.69467 c 0,-35.69419 0.3618,-63.91897 0.82299,-64.2049 1.81863,-1.12749 1.88155,-5.67241 0.0983,-7.10043 -1.71119,-1.37031 -1.69402,-1.65784 0.67202,-11.25 l 2.42809,-9.84375 4.14664,0 c 4.87153,0 7.71981,-2.67237 7.71981,-7.24304 0,-3.21161 -4.95058,-8.48837 -10.01671,-10.676682 -3.54774,-1.532437 -4.00198,-1.581731 -4.00198,-0.434231 0,0.475631 1.53516,1.373025 3.41146,1.994193 l 3.41146,1.1294 -2.85497,1.20418 c -1.57023,0.66229 -3.13373,2.08521 -3.47444,3.16205 -0.72703,2.29785 -1.26834,2.374 -3.70952,0.52182 C 191.88095,105.49273 189.0484,105 185.13299,105 c -3.46145,0 -7.87968,-0.68235 -10.21762,-1.57801 -3.76112,-1.44087 -6.02821,-1.4776 -26.08763,-0.42262 -20.35177,1.07035 -22.30807,1.32796 -26.58179,3.50039 -2.53727,1.28974 -4.45575,2.81889 -4.26328,3.39809 0.24634,0.74132 7.94246,1.08617 25.99671,1.16485 22.3692,0.0975 26.18425,0.32787 29.85239,1.80269 2.31309,0.93001 6.92098,2.08263 10.23977,2.56137 3.31878,0.47876 6.36655,1.38717 6.7728,2.01872 0.40626,0.63155 0.42455,3.67952 0.0407,6.77327 -0.38393,3.09375 -0.58932,7.94531 -0.45643,10.78125 0.13289,2.83594 0.47121,25.08984 0.75181,49.45312 l 0.51019,44.29688 -9.86396,0 c -5.95296,0 -9.864,0.37172 -9.864,0.9375 0,0.56547 3.89409,0.9375 9.81309,0.9375 l 9.81308,0 0,21.09375 0,21.09375 -50,0 -49.999996,0 0,-57.3361 0,-57.3361 6.308411,5.89418 c 3.469625,3.2418 8.231355,7.9844 10.581615,10.53913 3.33487,3.62498 4.95475,4.67928 7.37705,4.80129 1.70712,0.086 3.26731,-0.30617 3.46708,-0.87146 0.19979,-0.56529 -3.36838,-5.46838 -7.92925,-10.89576 -4.56088,-5.42737 -9.28252,-11.29298 -10.49255,-13.03469 -1.210039,-1.7417 -3.548459,-4.77597 -5.196496,-6.74281 -4.36653,-5.21117 -5.492627,-15.52886 -2.926215,-26.81095 1.023327,-4.49861 1.431084,-5.08666 3.592897,-5.18159 3.904504,-0.17146 9.236154,-4.80089 9.236154,-8.01969 0,-3.10916 -2.88506,-5.63045 -6.44278,-5.63045 -1.258701,0 -3.000346,-0.64618 -3.870318,-1.43596 -1.424103,-1.292821 -1.873341,-1.269459 -4.506935,0.23438 -3.090159,1.76455 -4.083703,3.75075 -1.301467,2.60177 0.899533,-0.37148 2.476636,-0.90099 3.504673,-1.1767 1.701635,-0.45636 1.666093,-0.27877 -0.396555,1.98137 -1.246143,1.36545 -2.785861,2.48264 -3.421595,2.48264 -2.065821,0 -5.946748,5.63248 -7.310028,10.60922 -0.732146,2.67275 -1.849516,9.50562 -2.483047,15.18418 -1.327747,11.90107 -0.92992,13.29811 5.590271,19.63124 l 3.815347,3.70589 0,36.38454 0,36.38455 -31.962312,-0.24669 -31.962311,-0.24668 -3.473254,-16.29363 c -2.116872,-9.9306 -3.273651,-17.52747 -2.962135,-19.45312 0.477024,-2.94874 0.338946,-3.1595 -2.069894,-3.1595 -3.055467,0 -3.333461,-2.65271 2.800023,26.71875 2.368854,11.34375 5.777815,28.00781 7.575468,37.03125 1.797653,9.02344 3.482329,17.13212 3.743725,18.01928 0.429868,1.45897 -0.712731,1.64089 -11.962163,1.90466 -6.840585,0.16039 81.557897,0.29082 196.441077,0.28984 114.88317,-9.3e-4 202.87443,-0.13143 195.53614,-0.28992 z M 33.644859,272.51187 c 0,-0.59934 -7.33641,-36.79868 -7.966585,-39.30875 l -0.647261,-2.57812 31.877016,0 31.877017,0 0,21.09375 0,21.09375 -27.570094,0 c -15.163551,0 -27.570093,-0.13528 -27.570093,-0.30063 z M 64.510111,126.41899 c 1.507582,-8.96589 7.04335,-20.72726 12.503649,-26.565424 3.489674,-3.731166 4.545629,-4.400616 5.21855,-3.3084 0.463995,0.753103 1.023289,1.170562 1.242877,0.927684 0.941943,-1.041862 3.547615,-6.740602 3.228442,-7.060772 -0.604757,-0.606646 -7.264378,1.738142 -7.264378,2.557717 0,0.429113 0.33101,0.780205 0.735576,0.780205 0.404566,0 -1.553855,2.425781 -4.352048,5.390625 -6.023851,6.382615 -11.500976,17.526865 -13.077618,26.608905 -1.280075,7.37371 -1.280126,7.37547 -0.21278,7.37547 0.467576,0 1.357556,-3.01771 1.97773,-6.70601 z M 357.00934,15 c 0,-5.7340294 -0.33233,-6.2896394 -2.80374,-4.6875 -0.93458,0.605859 -1.01246,0.913574 -0.23364,0.923144 0.7769,0.0095 1.16822,1.584512 1.16822,4.701856 0,2.578125 0.42056,4.6875 0.93458,4.6875 0.51922,0 0.93458,-2.5 0.93458,-5.625 z m 11.27794,4.142624 c 0.9272,-1.1207 0.97146,-1.891921 0.18142,-3.160941 -0.75183,-1.20761 -0.76027,-1.964205 -0.0301,-2.696641 1.30845,-1.312559 -0.69646,-3.910042 -3.01804,-3.910042 -2.32159,0 -4.3265,2.597483 -3.01803,3.910042 0.73016,0.732436 0.72171,1.489031 -0.0301,2.696641 -1.2577,2.020169 0.46428,4.643317 3.04813,4.643317 0.90215,0 2.19218,-0.66707 2.86672,-1.482376 z m -4.42202,-0.92439 c -0.77894,-2.036214 1.19854,-3.951108 2.61397,-2.53125 1.1963,1.200031 0.45519,4.000516 -1.05867,4.000516 -0.54628,0 -1.24617,-0.66117 -1.5553,-1.469266 z m 0.1031,-5.17492 c -0.9631,-1.563206 1.203,-3.3557909 2.49226,-2.0625 1.07843,1.081804 0.40348,3.081686 -1.04006,3.081686 -0.45335,0 -1.10684,-0.458634 -1.4522,-1.019186 z m 13.99698,4.534811 c 1.86565,-5.343372 -2.74958,-10.7772129 -5.70731,-6.719635 -1.4875,2.040643 -1.58693,5.47075 -0.23218,8.010034 1.41965,2.660935 4.81763,1.922697 5.93949,-1.290399 z m -4.68437,-0.234375 c -0.69338,-2.771272 0.20656,-7.03125 1.48538,-7.03125 1.27882,0 2.17876,4.259978 1.48538,7.03125 -0.32253,1.289062 -0.99095,2.34375 -1.48538,2.34375 -0.49443,0 -1.16285,-1.054688 -1.48538,-2.34375 z m 11.59045,-5.404226 c 0.37195,-1.937419 -2.326,-3.2429073 -3.74993,-1.814524 -1.42393,1.428383 -0.12251,4.134759 1.80887,3.761647 0.89519,-0.172935 1.76866,-1.049141 1.94106,-1.947123 z m -2.55465,-0.298899 c 0.0449,-1.092134 0.2663,-1.314281 0.56464,-0.566406 0.26997,0.676758 0.23677,1.485351 -0.0737,1.796875 -0.31055,0.311523 -0.53144,-0.242188 -0.49086,-1.230469 z"
       id="path3406"
       inkscape:connector-curvature="0" />
    <path
       style="fill:#0000fe"
       d="m 79.818505,143.88817 c -0.829613,-3.31577 2.035736,-24.75061 3.950197,-29.55028 l 1.588738,-3.98305 1.148272,4.53649 c 0.725072,2.86455 0.965297,7.86742 0.651806,13.57439 -0.482583,8.78518 -0.555922,9.0265 -2.62277,8.63016 -2.724638,-0.52247 -4.515324,2.58877 -3.681588,6.3966 0.734771,3.35585 -0.204173,3.71492 -1.034655,0.39569 z M 183.17757,114.40971 c -2.31309,-0.35875 -5.99834,-1.16384 -8.18946,-1.78908 -3.61002,-1.03015 -3.88805,-1.31639 -2.9629,-3.05047 1.20915,-2.26637 -0.84795,-5.15195 -4.13216,-5.79636 -1.31857,-0.25873 -0.95485,-0.43718 1.0622,-0.52113 1.68707,-0.0702 4.57721,0.50514 6.42254,1.27858 1.84726,0.77424 6.16374,1.40625 9.60444,1.40625 3.81262,0 6.93123,0.50019 7.99823,1.28284 1.69011,1.23971 1.68041,1.31963 -0.28867,2.37674 -1.24767,0.66981 -2.03759,1.98971 -2.03759,3.40465 0,2.50031 -0.19582,2.5372 -7.47663,1.40798 z m 60.4736,-4.35666 c -1.28246,-2.00574 -4.03543,-5.29181 -6.11769,-7.30239 l -3.78592,-3.655597 2.28575,-1.803591 c 1.76536,-1.392975 2.14971,-2.347266 1.68825,-4.191651 -0.52284,-2.089698 0.29683,-1.660717 6.56056,3.433513 8.58425,6.981496 12.88238,13.754816 7.89878,12.447506 -1.47839,-0.38781 -2.58773,0.17718 -4.11133,2.09394 l -2.08664,2.62506 -2.33176,-3.64679 z m 54.99527,-1.15034 c -0.69424,-2.19421 -4.06711,-2.77761 -5.83068,-1.00853 -0.73163,0.73393 -1.19592,0.72718 -1.65879,-0.0241 -1.17967,-1.91471 -1.68444,-11.01329 -1.01096,-18.222761 0.61211,-6.552579 0.80562,-7.053612 2.39477,-6.200465 2.94852,1.58293 4.61296,1.043286 6.53488,-2.11873 2.02434,-3.330525 2.30092,-2.272528 0.91905,3.515625 -0.59489,2.491768 -0.53798,6.913557 0.16959,13.178578 0.74075,6.558633 0.76945,9.958133 0.0943,11.168333 -0.92057,1.65011 -1.00364,1.63528 -1.61215,-0.28795 z m 45.49397,0.26797 c -3.79228,-2.66453 -4.0834,-4.35598 -2.44484,-14.205221 0.84037,-5.051316 2.15209,-10.610203 2.91494,-12.353085 l 1.387,-3.168875 2.00124,2.377435 c 1.10068,1.307589 2.94997,2.855219 4.10953,3.439178 2.0168,1.015669 2.045,1.184504 0.64985,3.890861 -1.32026,2.561055 -1.32077,3.304171 -0.006,7.84274 1.87071,6.455137 1.80871,7.113977 -0.40054,4.256287 -1.72429,-2.230378 -1.93803,-2.274206 -4.41848,-0.90617 -3.22066,1.77629 -3.78744,4.87782 -1.34002,7.33289 2.8699,2.87887 1.07424,3.97239 -2.4532,1.49396 z m 47.91086,-0.69254 c -0.37613,-1.43857 -0.21488,-6.50107 0.35832,-11.249996 0.69834,-5.785562 0.74222,-9.871668 0.13299,-12.384394 -1.40011,-5.774703 -1.12276,-6.851977 0.90512,-3.515625 1.92191,3.162016 3.58635,3.70166 6.53487,2.118729 1.58915,-0.853146 1.78267,-0.352113 2.39478,6.200466 1.03338,11.06219 -0.60985,21.79246 -2.79432,18.24686 -1.12618,-1.8279 -4.85064,-1.13694 -5.87639,1.0902 -0.9661,2.09764 -0.97531,2.09483 -1.65537,-0.50624 z"
       id="path3404"
       inkscape:connector-curvature="0" />
    <path
       style="fill:#fe0000"
       d="m 61.682242,132.49867 c 0,-0.34448 0.478314,-3.3816 1.062919,-6.74914 1.576642,-9.08204 7.053767,-20.22629 13.077618,-26.608905 C 78.620972,96.175781 80.579393,93.75 80.174827,93.75 c -0.404566,0 -0.735576,-0.351092 -0.735576,-0.780205 0,-0.819575 6.659621,-3.164363 7.264378,-2.557717 0.319173,0.32017 -2.286499,6.01891 -3.228442,7.060772 -0.219588,0.242878 -0.778882,-0.174581 -1.242877,-0.927684 -0.672921,-1.092216 -1.728876,-0.422766 -5.21855,3.3084 -5.460299,5.838164 -10.996067,17.599534 -12.503649,26.565424 -0.620174,3.6883 -1.510154,6.70601 -1.97773,6.70601 -0.467576,0 -0.850139,-0.28185 -0.850139,-0.62633 z M 362.38317,67.75043 c -1.92757,-0.793299 -3.47431,-1.70152 -3.43719,-2.01827 0.0371,-0.31675 1.52437,-1.791027 3.30503,-3.276171 3.25264,-2.712838 5.39616,-2.803529 3.18829,-0.134895 -1.63461,1.975747 0.6849,1.955598 3.51162,-0.03051 2.37346,-1.667628 2.70242,-4.352921 0.73402,-5.991658 -2.38835,-1.988348 -19.41925,-3.311908 -27.13422,-2.108741 -12.45207,1.941931 -17.54425,5.34862 -15.87603,10.621136 0.30474,0.963147 0.11317,1.751175 -0.42568,1.751175 -1.30311,0 -2.27013,-4.073665 -1.5256,-6.426763 1.30461,-4.123333 14.36371,-8.573237 25.15981,-8.573237 8.07277,0 19.58536,1.886634 21.37846,3.503408 3.15439,2.844222 1.61847,7.687045 -3.05367,9.628356 -2.02922,0.843159 -2.59725,1.496535 -1.90487,2.191078 1.14257,1.146132 1.30753,2.531375 0.28564,2.398553 -0.38551,-0.05011 -2.27804,-0.740168 -4.20561,-1.533465 z"
       id="path3402"
       inkscape:connector-curvature="0" />
    <path
       style="fill:#000000"
       d="m 18.512193,273.04894 c 11.249432,-0.26377 12.392031,-0.44569 11.962163,-1.90466 -0.261396,-0.88716 -1.946072,-8.99584 -3.743725,-18.01928 -1.797653,-9.02344 -5.206614,-25.6875 -7.575468,-37.03125 -6.133484,-29.37146 -5.85549,-26.71875 -2.800023,-26.71875 2.40884,0 2.546918,0.21076 2.069894,3.1595 -0.311516,1.92565 0.845263,9.52252 2.962135,19.45312 l 3.473254,16.29363 31.962311,0.24668 31.962312,0.24669 0,-36.38455 0,-36.38454 -3.815347,-3.70589 c -6.520191,-6.33313 -6.918018,-7.73017 -5.590271,-19.63124 0.633531,-5.67856 1.750901,-12.51143 2.483047,-15.18418 1.36328,-4.97674 5.244207,-10.60922 7.310028,-10.60922 0.635734,0 2.175452,-1.11719 3.421595,-2.48264 2.062648,-2.26014 2.09819,-2.43773 0.396555,-1.98137 -1.028037,0.27571 -2.60514,0.80522 -3.504673,1.1767 -2.782236,1.14898 -1.788692,-0.83722 1.301467,-2.60177 2.633594,-1.503839 3.082832,-1.527201 4.506935,-0.23438 0.869972,0.78978 2.611617,1.43596 3.870318,1.43596 3.55772,0 6.44278,2.52129 6.44278,5.63045 0,3.2188 -5.33165,7.84823 -9.236154,8.01969 -2.161813,0.0949 -2.56957,0.68298 -3.592897,5.18159 -2.566412,11.28209 -1.440315,21.59978 2.926215,26.81095 1.648037,1.96684 3.986457,5.00111 5.196496,6.74281 1.21003,1.74171 5.93167,7.60732 10.49255,13.03469 4.56087,5.42738 8.12904,10.33047 7.92925,10.89576 -0.19977,0.56529 -1.75996,0.95745 -3.46708,0.87146 -2.4223,-0.12201 -4.04218,-1.17631 -7.37705,-4.80129 -2.35026,-2.55473 -7.11199,-7.29733 -10.581615,-10.53913 l -6.308411,-5.89418 0,57.3361 0,57.3361 49.999996,0 50,0 0,-21.09375 0,-21.09375 -9.81308,0 c -5.919,0 -9.81309,-0.37203 -9.81309,-0.9375 0,-0.56578 3.91104,-0.9375 9.86397,-0.9375 l 9.86395,0 -0.51019,-44.29688 C 190.89975,160.08984 190.56143,137.83594 190.42853,135 c -0.13289,-2.83594 0.0725,-7.6875 0.45643,-10.78125 0.38393,-3.09375 0.36564,-6.14172 -0.0406,-6.77327 -0.40626,-0.63155 -3.45402,-1.53996 -6.77281,-2.01872 -3.31878,-0.47874 -7.92668,-1.63136 -10.23976,-2.56137 -3.66814,-1.47482 -7.4832,-1.7052 -29.8524,-1.80269 -18.05425,-0.0787 -25.75037,-0.42352 -25.99671,-1.16485 -0.19246,-0.5792 1.72601,-2.10835 4.26328,-3.39809 4.27372,-2.17243 6.23002,-2.43004 26.58179,-3.50039 20.05942,-1.05498 22.32651,-1.01825 26.08763,0.42262 2.33794,0.89566 6.75617,1.57801 10.21762,1.57801 3.91541,0 6.74796,0.49273 7.91268,1.37644 2.44118,1.85218 2.98249,1.77604 3.70953,-0.52182 0.34071,-1.07684 1.9042,-2.49976 3.47444,-3.16205 l 2.85496,-1.20418 -3.41146,-1.1294 c -1.87626,-0.621168 -3.41142,-1.518562 -3.41142,-1.994193 0,-1.1475 0.45424,-1.098206 4.00198,0.434231 5.06613,2.188312 10.01671,7.465072 10.01671,10.676682 0,4.57067 -2.84828,7.24304 -7.71981,7.24304 l -4.14664,0 -2.42809,9.84375 c -2.36604,9.59216 -2.38321,9.87969 -0.67202,11.25 1.78325,1.42802 1.72033,5.97294 -0.0983,7.10043 -0.46119,0.28593 -0.82299,28.51071 -0.82299,64.2049 l 0,63.69467 24.76636,0 24.76635,0 0,-21.09375 0,-21.09375 -10.28037,0 c -6.23054,0 -10.28038,-0.36932 -10.28038,-0.9375 0,-0.56818 4.04984,-0.9375 10.28038,-0.9375 l 10.28037,0 0,-40.62489 c 0,-25.80016 -0.37503,-42.49812 -1.0277,-45.75818 -0.92998,-4.64518 -0.75583,-6.14508 1.83141,-15.77417 l 2.8591,-10.64088 -2.53233,-3.27894 C 237.116,102.3924 216.27644,84.174299 200.29301,73.54106 c -8.37954,-5.574622 -9.41388,-6.641687 -7.90512,-8.155156 1.60963,-1.61467 8.07016,0.800744 15.49828,5.794379 3.6299,2.440232 11.22598,7.238453 16.88018,10.662715 13.51807,8.186719 26.55295,18.817892 28.98703,23.641672 1.64709,3.26414 2.23519,3.69471 4.6729,3.42127 1.53376,-0.17205 3.51676,-0.96855 4.40665,-1.77001 1.30912,-1.17903 1.88663,-1.23356 3.02525,-0.28562 0.83627,0.6962 2.39731,0.9223 3.84732,0.55724 1.7774,-0.4475 2.32446,-0.28497 2.01441,0.59843 -0.27258,0.77666 -1.84704,1.14603 -4.3784,1.02717 -3.39768,-0.15952 -3.85717,0.038 -3.27197,1.40625 1.32573,3.09984 1.51818,6.55806 0.47388,8.51544 -0.84972,1.59268 -1.93369,1.98266 -5.51088,1.98266 -2.44921,0 -4.94399,-0.49242 -5.54396,-1.09427 -1.25188,-1.25579 -0.94507,-1.92354 -4.34904,9.46514 -1.67506,5.60424 -2.07929,8.24367 -1.39011,9.07668 0.67314,0.81362 0.66726,2.27455 -0.0192,4.75413 -0.65269,2.35783 -0.99268,25.09807 -0.99611,66.62645 l -0.005,63.04687 24.29906,0 24.29907,0 0,-21.09375 0,-21.09375 -9.3458,0 c -5.60747,0 -9.34579,-0.375 -9.34579,-0.9375 0,-0.56273 3.75021,-0.9375 9.38146,-0.9375 l 9.38146,0 -0.26931,-42.98192 c -0.21556,-34.40422 -0.52116,-43.28612 -1.53128,-44.50625 -0.98981,-1.19558 -1.11678,-3.85554 -0.58871,-12.33338 0.42057,-6.75208 0.31636,-11.77564 -0.27764,-13.38437 -4.65714,-12.61281 -4.66396,-12.87044 -1.4839,-56.01283 0.79816,-10.828125 1.72714,-24.328125 2.06442,-30 0.72754,-12.235035 2.09179,-13.453822 5.41784,-4.840169 2.00939,5.203822 2.121,6.843502 2.27467,33.417237 0.0889,15.369698 -0.11904,28.400417 -0.46205,28.957154 -0.34302,0.556737 -0.11759,5.379446 0.50094,10.717128 1.04871,9.05007 1.28792,9.77737 3.54526,10.77904 1.33137,0.59077 3.29157,0.84541 4.35601,0.56584 1.60523,-0.42161 2.1233,0.12105 3.03738,3.1815 1.31797,4.41276 1.38348,5.81602 0.27148,5.81602 -0.45682,0 -1.10671,-1.47656 -1.44422,-3.28125 -0.90286,-4.82769 -3.30231,-4.38431 -2.6506,0.48979 0.66193,4.95049 -1.46757,7.47896 -6.29886,7.47896 l -3.45793,0 -0.57592,6.79687 c -0.52835,6.23529 -0.40822,6.92513 1.45389,8.3491 1.80585,1.38094 1.88023,1.73298 0.67403,3.19043 -1.15031,1.38994 -1.39495,11.49185 -1.61409,66.65092 l -0.25828,65.01268 22.92183,0 22.92184,0 0,-21.09375 0,-21.09375 -7.94393,0 c -4.67289,0 -7.94392,-0.38603 -7.94392,-0.9375 0,-0.55187 3.28552,-0.9375 7.9874,-0.9375 l 7.98739,0 -0.27711,-43.45075 c -0.22502,-35.28158 -0.51988,-43.74397 -1.56833,-45.01033 -0.96816,-1.16939 -1.34755,-5.6357 -1.51641,-17.85171 -0.12386,-8.96067 -0.50108,-16.73991 -0.83827,-17.28718 -0.33719,-0.54729 0.0885,-4.84157 0.94591,-9.542861 1.33368,-7.31257 1.40506,-10.070605 0.49396,-19.085547 -0.58576,-5.795759 -1.00316,-13.25521 -0.92756,-16.576558 0.10156,-4.462161 0.32407,-3.243638 0.85224,4.667122 0.39313,5.888264 0.9989,12.606416 1.34614,14.929227 l 0.63135,4.223292 1.47348,-3.051894 c 1.30207,-2.696901 1.33602,-4.413429 0.29182,-14.757068 -0.6499,-6.437847 -0.98325,-11.904183 -0.74078,-12.147415 0.24247,-0.243231 0.95316,5.163672 1.5793,12.015341 0.62614,6.851669 1.61161,13.442791 2.18993,14.646938 1.06459,2.216653 6.00796,5.404976 6.93632,4.473715 0.65476,-0.656808 -1.41665,-17.117081 -3.12692,-24.847734 -0.72972,-3.298438 -1.14442,-6.180072 -0.92156,-6.40363 0.59603,-0.597903 3.1325,12.057839 4.37592,21.833784 1.02071,8.024977 0.96829,8.716235 -0.94644,12.481148 -1.95539,3.844866 -1.97449,4.166835 -0.54059,9.114701 0.81753,2.820975 1.21809,5.564559 0.89014,6.096849 -0.32796,0.5323 0.18182,1.5455 1.13282,2.25156 1.47351,1.09399 2.05191,1.07369 3.91299,-0.13729 2.53773,-1.65126 2.59892,-1.61973 3.44893,1.77759 0.41268,1.64934 0.27189,2.5762 -0.39131,2.5762 -0.56975,0 -1.0359,-0.63281 -1.0359,-1.40625 0,-0.77344 -0.39574,-1.40625 -0.87942,-1.40625 -1.55932,0 -2.11769,1.9179 -0.96426,3.31204 0.68742,0.83088 0.88987,2.59061 0.52344,4.5499 -0.40835,2.18353 0.002,4.72049 1.29594,8.01373 2.36892,6.02878 2.38949,8.69592 0.0832,10.78961 -2.39323,2.17261 -4.12603,0.99959 -3.45978,-2.34209 0.28916,-1.4503 -0.11484,-4.52278 -0.89777,-6.82772 -1.3678,-4.02683 -1.58582,-4.20377 -5.57177,-4.52177 -2.28154,-0.18203 -4.15146,-0.11698 -4.15536,0.14454 -0.004,0.26153 -0.42111,4.06145 -0.92714,8.44426 -0.84945,7.35731 -0.77407,8.1679 0.9825,10.5643 1.74555,2.38137 1.78349,2.76606 0.45985,4.66173 -1.26608,1.81324 -1.44268,9.8445 -1.44268,65.60757 l 0,63.5414 23.83177,0 23.83178,0 0,-21.09375 0,-21.09375 -7.94393,0 c -4.67289,0 -7.94392,-0.38603 -7.94392,-0.9375 0,-0.5518 3.28291,-0.9375 7.97959,-0.9375 l 7.97959,0 -0.26931,-42.98192 c -0.2249,-35.89323 -0.49291,-43.25201 -1.62512,-44.61966 -1.20616,-1.45698 -1.13177,-1.80905 0.67403,-3.18995 1.86211,-1.42397 1.98225,-2.11381 1.4539,-8.3491 l -0.57593,-6.79687 -3.45792,0 c -4.83129,0 -6.96079,-2.52847 -6.29887,-7.47896 0.65172,-4.8741 -1.74774,-5.31748 -2.6506,-0.48979 -0.3375,1.80469 -0.9874,3.28125 -1.44421,3.28125 -1.112,0 -1.0465,-1.40326 0.27147,-5.81602 0.91409,-3.06045 1.43215,-3.60311 3.03739,-3.1815 1.06444,0.27957 3.02463,0.0249 4.35601,-0.56584 2.25733,-1.00167 2.49655,-1.72897 3.54526,-10.77904 0.61852,-5.337682 0.84395,-10.160391 0.50093,-10.717128 -0.34301,-0.556737 -0.55093,-13.587456 -0.46204,-28.957154 0.15367,-26.573735 0.26528,-28.213416 2.27467,-33.417237 3.32605,-8.613654 4.6903,-7.394866 5.41784,4.840169 0.33727,5.671875 1.26625,19.171875 2.06441,30 3.18007,43.14239 3.17324,43.40002 -1.4839,56.01283 -0.594,1.60873 -0.6982,6.63229 -0.27763,13.38437 0.52805,8.47775 0.40108,11.13792 -0.58871,12.33386 -1.02719,1.24114 -1.31002,13.61511 -1.52023,66.51161 l -0.25826,64.9868 13.34238,0.28814 c 7.33829,0.15849 -80.65297,0.28895 -195.53614,0.28992 -114.88318,9.8e-4 -203.281662,-0.12946 -196.441077,-0.28984 z m 70.272853,-21.33019 0,-21.09375 -31.877017,0 -31.877016,0 0.647261,2.57812 c 0.630175,2.51007 7.966585,38.70941 7.966585,39.30875 0,0.16535 12.406542,0.30063 27.570093,0.30063 l 27.570094,0 0,-21.09375 z m 29.906544,-73.50904 c 0,-0.46903 -3.50472,-5.00418 -7.78826,-10.07812 -4.28356,-5.07394 -9.02277,-10.94697 -10.53161,-13.05117 -3.652347,-5.09355 -7.602874,-9.76792 -8.25531,-9.76792 -0.290194,0 -0.529329,2.63672 -0.53141,5.85937 l -0.0037,5.85938 10.798919,10.48463 c 5.93941,5.76654 11.30326,10.69026 11.91967,10.9416 1.92196,0.78369 4.39178,0.64435 4.39178,-0.24777 z M 88.511673,148.17277 c -0.624393,-7.47103 -1.842926,-10.36027 -4.369427,-10.36027 -4.058948,0 -3.412866,9.12546 0.967019,13.65847 1.709327,1.7691 3.296645,3.21653 3.527373,3.21653 0.230728,0 0.174494,-2.93163 -0.124965,-6.51473 z m -7.658513,-4.68029 c -0.833736,-3.80783 0.95695,-6.91907 3.681588,-6.3966 2.066848,0.39634 2.140187,0.15502 2.62277,-8.63016 0.313491,-5.70697 0.07327,-10.70984 -0.651806,-13.57439 l -1.148272,-4.53649 -1.588738,3.98305 c -1.914461,4.79967 -4.77981,26.23451 -3.950197,29.55028 0.830482,3.31923 1.769426,2.96016 1.034655,-0.39569 z m 265.96554,-4.43441 c -1.78938,-2.44086 -1.87464,-3.25732 -1.07177,-10.26337 1.13397,-9.89536 0.37609,-17.51279 -1.88321,-18.92817 -1.52742,-0.95686 -1.76608,-0.6285 -2.34164,3.22165 -0.3525,2.3579 -0.2714,9.41282 0.1802,15.67759 l 0.82108,11.39048 2.57009,0.29664 c 1.41355,0.16316 2.5701,0.76081 2.5701,1.32813 0,0.56731 0.24731,0.7834 0.54959,0.48018 0.30227,-0.30322 -0.32523,-1.74462 -1.39444,-3.20313 z M 90.711544,137.01386 c -0.916789,-2.22024 -0.822863,-4.38316 0.500022,-11.51444 2.125986,-11.46055 2.194821,-15.79022 0.270604,-17.0207 -0.829667,-0.53054 -2.250342,-0.67905 -3.157058,-0.33002 -1.40196,0.53966 -1.542922,1.29825 -0.942314,5.07107 0.388442,2.44006 0.61363,8.78978 0.500417,14.11048 -0.172268,8.09611 0.0614,9.97022 1.432607,11.49012 2.166314,2.40124 2.796427,1.58566 1.395722,-1.80651 z m 105.550136,3.05829 c 0,-0.30407 -0.83403,-1.25329 -1.8534,-2.10938 -1.84122,-1.54628 -1.83534,-1.62745 0.89304,-12.33777 2.58502,-10.14755 2.84508,-15 0.80388,-15 -0.48862,0 -0.62652,-0.42507 -0.30643,-0.94462 0.32569,-0.52862 -0.50808,-0.44639 -1.89331,0.18674 -2.25878,1.03239 -2.43824,1.50449 -2.05179,5.39774 0.23292,2.34651 -0.0114,8.315 -0.54295,13.26331 -0.53154,4.94831 -0.69963,9.6944 -0.37352,10.54688 0.54158,1.41575 5.32448,2.31142 5.32448,0.9971 z m 51.40187,-0.19715 c 0,-0.4125 -0.40667,-1.15794 -0.90371,-1.65653 -1.1263,-1.12982 3.54905,-17.3068 5.71645,-19.77923 3.48291,-3.97308 2.85172,-8.75174 -1.15598,-8.75174 -1.95328,0 -4.04601,3.25523 -3.31732,5.16008 0.26585,0.69497 -0.75069,5.82998 -2.25898,11.41112 -3.45153,12.77171 -3.49781,14.3663 -0.41691,14.3663 1.28505,0 2.33645,-0.3375 2.33645,-0.75 z M 300,139.75068 c 0,-0.48088 -0.87056,-1.1515 -1.93458,-1.49026 -2.10119,-0.66897 -2.08911,-2.62421 0.12335,-19.96396 1.00519,-7.87791 0.11754,-10.77433 -3.15855,-10.30647 -1.7785,0.25398 -1.99504,0.77126 -1.69165,4.04126 0.19135,2.0625 0.28806,9.33984 0.21491,16.17187 l -0.13301,12.42188 3.28977,0 c 1.80936,0 3.28976,-0.39345 3.28976,-0.87432 z m 98.96987,-11.54756 c -0.0732,-6.83203 0.0236,-14.10937 0.21492,-16.17187 0.30338,-3.27 0.0868,-3.78728 -1.69166,-4.04126 -3.27609,-0.46786 -4.16373,2.42856 -3.15855,10.30647 2.21246,17.33975 2.22455,19.29499 0.12336,19.96396 -3.05426,0.97242 -2.25639,2.36458 1.35518,2.36458 l 3.28976,0 -0.13301,-12.42188 z m -37.47455,4.73438 c 1.91483,-1.92082 1.28021,-5.01092 -3.56937,-17.37972 -5.78001,-14.74186 -6.59084,-15.942883 -9.77942,-14.48553 -3.3064,1.5112 -2.93416,3.85334 1.34385,8.45543 5.25125,5.64905 9.88114,15.45575 9.6859,20.516 -0.1601,4.14978 0.38674,4.83216 2.31904,2.89382 z m -59.99416,-14.08008 c -0.9685,-4.85766 -2.43574,-5.41181 -2.43574,-0.91992 0,3.00962 0.35788,3.9375 1.51869,3.9375 1.21192,0 1.39717,-0.60953 0.91705,-3.01758 z m 91.95678,-0.91992 c 0,-4.49189 -1.46724,-3.93774 -2.43575,0.91992 -0.48011,2.40805 -0.29487,3.01758 0.91706,3.01758 1.1608,0 1.51869,-0.92788 1.51869,-3.9375 z m -132.71028,0.86485 c 0,-1.53496 -2.6577,-5.36485 -3.72286,-5.36485 -1.04277,0 -3.7246,5.34177 -3.03109,6.03744 1.07728,1.08064 6.75395,0.51533 6.75395,-0.67259 z m 92.97446,-2.31797 c -2.90939,-4.92262 -4.08774,-6.09912 -5.54639,-5.53764 -1.7657,0.67968 -1.99318,6.80083 -0.27854,7.49487 0.64253,0.26007 2.55882,0.50617 4.25845,0.54687 l 3.09022,0.0741 -1.52374,-2.57813 z m -147.53518,-1.21467 2.57032,-0.98028 -2.88536,-2.89436 c -2.29028,-2.29745 -3.38605,-2.7683 -5.3132,-2.28311 -2.57581,0.64851 -3.04416,2.35614 -1.4604,5.32467 1.0833,2.0305 3.27395,2.28796 7.08864,0.83308 z m -106.08715,-1.72475 c 1.86553,-1.51534 1.99733,-1.98355 0.92369,-3.28125 -0.68879,-0.83254 -2.633444,-1.51371 -4.321453,-1.51371 -3.160028,0 -3.296374,0.41095 -1.788449,5.39062 0.511879,1.69042 2.678122,1.44162 5.186212,-0.59566 z m 90.55441,-0.54323 c 0,-1.41494 0.78992,-2.73484 2.03759,-3.40465 1.96908,-1.05711 1.97878,-1.13703 0.28867,-2.37674 -1.067,-0.78265 -4.18561,-1.28284 -7.99823,-1.28284 -3.4407,0 -7.75718,-0.63201 -9.60444,-1.40625 -1.84533,-0.77344 -4.73547,-1.3488 -6.42254,-1.27858 -2.01705,0.084 -2.38077,0.2624 -1.0622,0.52113 3.28421,0.64441 5.34131,3.52999 4.13216,5.79636 -0.92515,1.73408 -0.64712,2.02032 2.9629,3.05047 3.76088,1.07318 10.40815,2.28917 14.03058,2.56661 1.14905,0.088 1.63551,-0.56206 1.63551,-2.18551 z m 61.5267,-4.02089 c 4.9836,1.30731 0.68547,-5.46601 -7.89878,-12.447506 -6.26373,-5.09423 -7.0834,-5.523211 -6.56056,-3.433513 0.46146,1.844385 0.0771,2.798676 -1.68825,4.191651 l -2.28575,1.80359 3.78592,3.655598 c 2.08226,2.01058 4.83523,5.29665 6.11769,7.30239 l 2.33176,3.64679 2.08664,-2.62507 c 1.5236,-1.91675 2.63294,-2.48175 4.11133,-2.09393 z m -80.68019,-0.11529 C 172.13782,107.20145 170.31317,105 168.29678,105 c -0.8623,0 -2.03057,-0.4642 -2.59616,-1.03156 -0.74807,-0.75041 -6.08434,-0.74484 -19.57944,0.0204 -15.501,0.87904 -19.28097,1.38327 -22.99034,3.06681 -2.44159,1.10815 -4.43934,2.2591 -4.43944,2.55768 -1e-4,0.29858 11.77077,0.54287 26.15749,0.54287 21.34815,0 26.24852,-0.23732 26.65182,-1.2907 z m 128.606,-11.101241 c -0.61736,-5.327622 -0.8412,-10.143126 -0.49741,-10.701118 0.34378,-0.557991 0.55346,-13.52001 0.46597,-28.804486 -0.14661,-25.608194 -0.31239,-28.213168 -2.11157,-33.18058 -1.07386,-2.964844 -2.25248,-5.390625 -2.61915,-5.390625 -0.36667,0 -0.92658,4.957031 -1.24425,11.015625 -0.31767,6.058594 -1.25014,19.860749 -2.07215,30.671456 -1.41831,18.652703 -1.41085,19.717254 0.14623,20.859375 2.59474,1.903253 4.8472,1.416162 6.35649,-1.374581 0.76686,-1.417969 1.41113,-2.097518 1.43171,-1.51011 0.0206,0.587408 -0.76704,2.063971 -1.75027,3.28125 -1.59387,1.973293 -2.09292,2.097877 -4.60323,1.149173 l -2.81554,-1.064061 -0.65673,7.030153 c -0.66563,7.12542 -0.15379,16.21889 1.02016,18.1243 0.46287,0.75128 0.92716,0.75803 1.65879,0.0241 1.76357,-1.76909 5.13644,-1.18569 5.83068,1.00852 0.60851,1.92323 0.69158,1.93807 1.61215,0.28795 0.67745,-1.2143 0.63158,-4.66533 -0.15188,-11.42635 z m 47.79048,12.313821 c 0.29984,-0.30079 -0.28676,-1.38142 -1.30358,-2.40141 -2.44742,-2.45507 -1.88064,-5.5566 1.34002,-7.33289 2.48045,-1.368036 2.69419,-1.324208 4.41848,0.90617 2.20925,2.85769 2.27125,2.19885 0.40054,-4.256288 -1.31529,-4.538568 -1.31478,-5.281684 0.006,-7.842739 1.39515,-2.706357 1.36695,-2.875192 -0.64985,-3.890861 -1.15955,-0.583959 -3.00884,-2.131589 -4.10953,-3.439178 l -2.00124,-2.377435 -1.387,3.168875 c -0.76285,1.742882 -2.07457,7.301769 -2.91493,12.353085 -1.63856,9.849241 -1.34745,11.540691 2.44483,14.205211 2.25039,1.58115 2.92318,1.74367 3.75678,0.90746 z m 48.91944,-3.20313 c 1.17616,0 2.42104,0.45863 2.7664,1.01918 2.17508,3.53035 3.82868,-7.1742 2.80352,-18.1484 l -0.65673,-7.030153 -2.81554,1.064061 c -2.51031,0.948704 -3.00936,0.82412 -4.60324,-1.149173 -0.98322,-1.217279 -1.77084,-2.693842 -1.75026,-3.28125 0.0206,-0.587408 0.66485,0.09214 1.43171,1.51011 1.50929,2.790743 3.76175,3.277834 6.35649,1.374581 1.55708,-1.142121 1.56454,-2.206672 0.14623,-20.859375 -0.82202,-10.810707 -1.75449,-24.612862 -2.07216,-30.671456 -0.31766,-6.058594 -0.87758,-11.015625 -1.24424,-11.015625 -0.36668,0 -1.54529,2.425781 -2.61915,5.390625 -1.79919,4.967412 -1.96496,7.572386 -2.11157,33.18058 -0.0875,15.284476 0.13338,28.264663 0.49085,28.844862 0.35747,0.580199 0.1501,5.038322 -0.46081,9.906946 -0.6109,4.868617 -0.80299,10.029057 -0.42686,11.467627 0.68006,2.60107 0.68927,2.60388 1.65537,0.50624 0.59367,-1.28899 1.80321,-2.10938 3.10999,-2.10938 z M 236.30092,96.272241 c 0.6247,-0.755072 0.73323,-2.289057 0.28189,-3.984375 -0.57729,-2.168385 -2.51463,-3.836795 -9.07892,-7.818643 C 222.91414,81.685109 215.16154,76.805411 210.2759,73.625451 201.88675,68.165122 196.65117,65.625 193.78577,65.625 c -2.79897,0 -0.8852,2.061454 6.44787,6.945474 7.72762,5.146792 21.46767,15.807226 28.04008,21.75532 3.69606,3.344981 6.33977,3.986034 8.0272,1.946447 z M 339.69518,41.645257 C 338.95317,29.732587 339.70574,26.25 343.02204,26.25 c 1.45683,0 2.51505,1.302922 4.24478,5.226368 2.22999,5.058165 4.80774,18.786338 3.73044,19.867003 -0.29149,0.292396 -0.53843,-0.06603 -0.54877,-0.796496 -0.131,-9.258996 -4.66027,-23.359375 -7.50341,-23.359375 -2.56346,0 -3.0306,2.974241 -2.30266,14.660844 0.3649,5.858411 0.45318,10.651656 0.19617,10.651656 -0.25701,0 -0.77154,-4.884635 -1.14341,-10.854743 z m 3.96899,2.885993 c -0.4006,-4.125 -0.91593,-9.1875 -1.14521,-11.25 -0.22927,-2.0625 0.20944,-0.796875 0.9749,2.8125 0.76548,3.609375 1.28083,8.671875 1.14522,11.25 -0.21811,4.146717 -0.33059,3.822247 -0.97491,-2.8125 z M 355.14018,15.9375 c 0,-3.117344 -0.39132,-4.692308 -1.16822,-4.701856 -0.77882,-0.0096 -0.70094,-0.317285 0.23364,-0.923144 2.47141,-1.6021394 2.80374,-1.0465294 2.80374,4.6875 0,3.125 -0.41536,5.625 -0.93458,5.625 -0.51402,0 -0.93458,-2.109375 -0.93458,-4.6875 z m 7.41366,3.205124 c -0.92721,-1.1207 -0.97147,-1.891921 -0.18142,-3.160941 0.75182,-1.20761 0.76027,-1.964205 0.0301,-2.696641 -1.30845,-1.312559 0.69646,-3.910042 3.01805,-3.910042 2.32158,0 4.32649,2.597483 3.01802,3.910042 -0.73015,0.732436 -0.72171,1.489031 0.0301,2.696641 1.2577,2.020169 -0.46428,4.643317 -3.04812,4.643317 -0.90216,0 -2.19219,-0.66707 -2.86672,-1.482376 z m 4.42201,-0.92439 c 0.77894,-2.036214 -1.19854,-3.951108 -2.61397,-2.53125 -1.1963,1.200031 -0.45518,4.000516 1.05868,4.000516 0.54628,0 1.24616,-0.66117 1.55529,-1.469266 z m -0.1031,-5.17492 c 0.9631,-1.563206 -1.203,-3.3557909 -2.49226,-2.0625 -1.07843,1.081804 -0.40348,3.081686 1.04007,3.081686 0.45334,0 1.10683,-0.458634 1.45219,-1.019186 z m 5.1531,5.82521 c -1.35475,-2.539284 -1.25532,-5.969391 0.23218,-8.010034 2.95773,-4.0575779 7.57296,1.376263 5.70731,6.719635 -1.12186,3.213096 -4.51984,3.951334 -5.93949,1.290399 z m 4.22588,-1.524774 c 0.69338,-2.771272 -0.20656,-7.03125 -1.48538,-7.03125 -1.27882,0 -2.17876,4.259978 -1.48538,7.03125 0.32253,1.289062 0.99095,2.34375 1.48538,2.34375 0.49443,0 1.16285,-1.054688 1.48538,-2.34375 z m 4.46246,-4.681229 c -0.3237,-0.846204 -0.14042,-1.988089 0.4073,-2.537521 1.42393,-1.4283833 4.12188,-0.122895 3.74993,1.814524 -0.4143,2.158014 -3.40903,2.678839 -4.15723,0.722997 z m 2.16722,-1.588302 c -0.29834,-0.747875 -0.5198,-0.525728 -0.56464,0.566406 -0.0406,0.988281 0.18031,1.541992 0.49086,1.230469 0.31055,-0.311524 0.34375,-1.120117 0.0737,-1.796875 z"
       id="path3400"
       inkscape:connector-curvature="0" />
  </g>
</svg>
