<?xml version="1.0" encoding="UTF-8" standalone="no"?>
<!-- Created with Inkscape (http://www.inkscape.org/) -->

<svg
   xmlns:dc="http://purl.org/dc/elements/1.1/"
   xmlns:cc="http://creativecommons.org/ns#"
   xmlns:rdf="http://www.w3.org/1999/02/22-rdf-syntax-ns#"
   xmlns:svg="http://www.w3.org/2000/svg"
   xmlns="http://www.w3.org/2000/svg"
   xmlns:sodipodi="http://sodipodi.sourceforge.net/DTD/sodipodi-0.dtd"
   xmlns:inkscape="http://www.inkscape.org/namespaces/inkscape"
   version="1.1"
   width="717"
   height="288"
   id="svg2"
   inkscape:version="0.91 r13725"
   sodipodi:docname="20UB340700.svg">
  <sodipodi:namedview
     pagecolor="#ffc4c4"
     bordercolor="#666666"
     borderopacity="1"
     objecttolerance="10"
     gridtolerance="10"
     guidetolerance="10"
     inkscape:pageopacity="0"
     inkscape:pageshadow="2"
     inkscape:window-width="1704"
     inkscape:window-height="888"
     id="namedview11"
     showgrid="false"
     inkscape:zoom="0.85076708"
     inkscape:cx="441.03376"
     inkscape:cy="35.014552"
     inkscape:window-x="0"
     inkscape:window-y="0"
     inkscape:window-maximized="0"
     inkscape:current-layer="svg2" />
  <metadata
     id="metadata8">
    <rdf:RDF>
      <cc:Work
         rdf:about="">
        <dc:format>image/svg+xml</dc:format>
        <dc:type
           rdf:resource="http://purl.org/dc/dcmitype/StillImage" />
        <dc:title></dc:title>
      </cc:Work>
    </rdf:RDF>
  </metadata>
  <defs
     id="defs6" />
  <g
     id="g8230">
    <path
       id="path2997"
       d="M 125.13477 7 C 124.65847 7 123.32739 9.5875 122.17773 12.75 C 120.29816 17.920339 120.07345 20.878699 119.94336 42.103516 C 119.82055 62.141019 120.04298 66.183244 121.42383 68.853516 C 123.39568 72.666652 124.33482 72.755019 127.65234 69.4375 C 129.95203 67.137814 130.1527 66.344266 129.60742 61.6875 C 128.46091 51.895968 126 18.51838 126 12.759766 C 126 9.5917949 125.61108 7 125.13477 7 z M 36.451172 73.263672 C 36.414161 73.269546 36.384335 73.28168 36.363281 73.302734 C 35.259523 74.406492 38.324632 80.393594 41.466797 83.271484 C 44.272832 85.841514 44.585816 85.917973 45.759766 84.3125 C 46.456233 83.360026 46.879306 82.137918 46.699219 81.597656 C 46.163794 79.991384 37.598522 73.081562 36.451172 73.263672 z M 366.9375 75 C 363.57598 75 363.43715 79.545403 366.51367 88.919922 C 368.92317 96.26196 375.74003 121.37335 376.18555 124.54883 C 376.4516 126.44517 379.97334 125.9189 381.09961 123.81445 C 382.28214 121.60487 382.34913 121.87527 373.48242 93.527344 C 371.07871 85.842385 369.28417 79.3838 369.49414 79.173828 C 369.86028 78.807684 377.21637 101.52624 380.45508 113.02539 C 381.74453 117.60365 382.61518 118.87581 385.5332 120.44727 C 392.6877 124.30022 392.14257 121.17916 381.26758 96 C 372.70049 76.164405 371.9068 75 366.9375 75 z M 49.251953 82.966797 L 47.638672 85.429688 C 46.042188 87.866229 46.096058 87.954466 52.710938 93.695312 C 56.389015 96.887402 61.489008 101.40815 64.042969 103.74023 C 66.59693 106.07232 68.947578 107.71844 69.267578 107.39844 C 69.587578 107.07844 70.67203 107.29522 71.675781 107.87891 C 74.375155 109.44862 74.801942 109.28276 76.484375 106.0293 C 77.974449 103.14781 77.937587 103.01032 75.259766 101.39258 C 69.71428 98.042397 57.394085 89.542441 53.376953 86.296875 L 49.251953 82.966797 z M 124.67773 96.136719 C 121.63128 96.092609 120.87995 99.337893 122.07422 107.03516 C 122.68101 110.94605 123.02397 116.58855 122.83789 119.57422 C 122.57131 123.85165 122.81806 125.02406 124 125.10156 C 124.825 125.15564 124.375 125.55965 123 126 C 120.60159 126.7681 120.59143 126.80479 122.75 126.90039 C 124.46013 126.97615 125 127.60321 125 129.51367 C 125 130.89613 125.43061 132.80863 125.95703 133.76367 C 126.48344 134.71871 129.26277 140.45 132.13281 146.5 C 135.00284 152.55 137.83473 157.8303 138.42578 158.23438 C 139.81022 159.18085 139.79093 159.18264 142.06641 157.96484 C 144.70164 156.55451 144.49523 154.37062 141.54492 152.4375 C 139.32404 150.98233 134.36951 143.2055 127.88867 131 C 125.38239 126.27987 125.36414 125.39749 127.20508 100.5 C 127.4609 97.040101 127.20603 96.458187 125.31836 96.189453 C 125.09476 96.157622 124.88083 96.139659 124.67773 96.136719 z M 119.64453 101.49414 C 119.37353 101.5173 119.02049 101.92135 118.41406 102.7207 C 117.6716 103.69936 117.04875 105.7375 117.03125 107.25 C 117.00704 109.34393 117.47714 110 119 110 C 120.5431 110 121 109.33357 121 107.08203 C 121 105.47701 120.72091 103.43888 120.38086 102.55273 C 120.10312 101.82895 119.91554 101.47098 119.64453 101.49414 z M 101.12695 117.0332 C 99.868073 117.05893 100.04268 117.51803 101.89258 119.05859 C 103.208 120.15405 104.50774 120.82429 104.7832 120.54883 C 105.64077 119.69126 102.83998 116.9982 101.12695 117.0332 z M 95.720703 117.23047 C 94.13661 117.22006 93.000641 118.10618 93.001953 119.71875 C 93.003047 121.05329 95.491378 122.44817 102.92578 125.2793 C 108.38379 127.35779 113.89709 129.92964 115.17578 130.99414 C 118.16933 133.48625 119.41475 133.05447 119.69336 129.42969 C 119.82815 127.67605 119.60451 127.02268 119.13086 127.78906 C 118.40347 128.966 109.6765 124.85168 98.90625 118.25391 C 97.781715 117.56503 96.671159 117.23671 95.720703 117.23047 z M 24.0625 133.24414 C 22.262425 133.35451 23.027338 135.18176 26.078125 136.72656 C 28.113223 137.75705 28.553437 137.70487 28.837891 136.39844 C 29.262541 134.44812 29.124457 134.31972 25.617188 133.43945 C 25.169586 133.32711 24.783626 133.2655 24.457031 133.24609 C 24.314146 133.2376 24.182505 133.23678 24.0625 133.24414 z M 122.34375 133.26758 C 121.1448 133.05555 116.26186 134.84585 111.34375 137.30273 C 106.47956 139.73268 100.8331 142.26137 98.796875 142.92188 C 94.382636 144.35376 92.805381 147.6535 95.568359 149.67383 C 96.565883 150.40324 97.543042 151 97.740234 151 C 98.861691 151 103.85695 147.87723 105.06641 146.41992 C 106.57857 144.59788 119.25565 135.95919 122.54102 134.51172 C 124.43216 133.67852 124.42442 133.63555 122.34375 133.26758 z M 31.455078 135.17188 C 31.031669 135.21807 30.980023 135.65644 31.160156 136.5918 C 31.540313 138.5658 37.590445 140.6601 51 143.45703 C 60.837201 145.50884 61.397427 145.10835 52.5 142.38672 C 44.963656 140.08143 36.817535 137.25166 32.648438 135.49023 C 32.09691 135.25722 31.709123 135.14416 31.455078 135.17188 z M 21.851562 137 C 19.063387 137 19.975003 139.04007 23.974609 141.75 C 28.213407 144.622 29 144.57837 29 141.47461 C 29 138.85321 26.038799 137 21.851562 137 z M 30.931641 139.22656 L 31.158203 143.05273 C 31.282403 145.15766 31.721229 146.67234 32.132812 146.41797 C 32.544397 146.16359 39.544131 148.02365 47.689453 150.55078 C 55.834774 153.07792 63.85 155.51695 65.5 155.9707 C 70.269588 157.28232 70.855475 157.1522 72.677734 154.37109 C 74.363493 151.79829 74.340679 151.69021 71.644531 149.37109 C 69.879366 147.85275 67.628766 147 65.384766 147 C 63.33097 147 62.134011 146.59126 62.492188 146.01172 C 62.832357 145.46132 62.466096 145.2684 61.664062 145.57617 C 59.804339 146.28981 49.726374 144.4778 39.216797 141.54102 L 30.931641 139.22656 z M 391.2207 143.18945 C 390.96248 143.24104 390.6385 143.80793 390.03711 144.93164 C 389.05239 146.7717 389.03106 148.08 389.94336 150.89453 C 392.6291 159.18036 388.32354 165.58118 378.25 168.27734 C 374.29816 169.33504 373.06396 170.73193 374.66602 172.33398 C 375.03268 172.70065 375.56258 173 375.8418 173 C 377.02324 173 392.56629 164.61929 393.26172 163.60742 C 394.10398 162.38202 393.13607 147.64123 392.00977 144.53711 C 391.67024 143.60137 391.47893 143.13786 391.2207 143.18945 z M 110.07422 143.53516 C 109.57629 143.60838 108.8777 144.09517 107.67773 145.03906 C 106.19452 146.20575 105.23613 147.57413 105.54883 148.08008 C 107.31517 150.93809 112.90828 147.44696 111.26562 144.51172 C 110.8688 143.80264 110.57215 143.46193 110.07422 143.53516 z M 377.2793 144.15625 C 376.70777 144.3852 375.75238 146.49983 374.71875 150.37891 C 373.30252 155.69386 373.20603 157.69608 374.14648 162.37891 C 374.87551 166.009 375.77471 168 376.68359 168 C 377.78098 168 377.9193 167.17428 377.31445 164.25 C 376.44522 160.04747 376.49186 156.90547 377.53711 149.25 C 378.03758 145.5845 377.85082 143.9273 377.2793 144.15625 z M 385.42773 148.11523 C 384.79226 148.10448 384.0044 148.27956 382.89062 148.59766 C 378.66724 149.80386 377.8392 153.07411 381.16602 155.4043 C 382.41969 156.28241 384.208 157 385.14062 157 C 390.13514 157 391.41843 153.97369 388.14062 149.92578 C 387.12293 148.66897 386.48687 148.13315 385.42773 148.11523 z M 131.18945 148.27539 C 131.01586 148.3489 131.00566 148.96034 131.00391 150.05078 C 131.00185 151.45328 131.53922 153.14078 132.19922 153.80078 C 133.40224 155.0038 135 155.41532 135 154.52344 C 135 154.26173 134.10185 152.57423 133.00391 150.77344 C 131.90636 148.9733 131.41265 148.18088 131.18945 148.27539 z M 476.41211 152 C 473.14208 152 471.84498 154.85769 473.08203 159.33789 C 473.80622 161.96072 473.65695 166.0147 472.54102 174.01562 C 471.69308 180.09509 471 185.47446 471 185.9707 C 471 186.46695 472.4625 187.01827 474.25 187.19531 C 478.48215 187.61449 478.69761 187.4007 476.18359 185.27539 L 474.08398 183.5 L 477.62109 169.19727 C 481.41572 153.85001 481.28457 152 476.41211 152 z M 482.16406 156.56641 C 482.0838 156.58244 482.01391 156.61825 481.95703 156.67773 C 481.24834 157.41892 480.60872 161.3532 480.88867 163.25 C 481.09592 164.65424 487 164.05987 487 162.63477 C 487 160.73473 483.36795 156.32585 482.16406 156.56641 z M 574.53516 174 C 573.10764 174 571.62723 174.82766 571.01758 175.9668 C 570.09878 177.68361 570.3804 178.05391 573.23242 178.87695 C 575.02952 179.39556 576.6125 179.86056 576.75 179.91016 C 576.8875 179.95977 577 178.65 577 177 C 577 174.47809 576.60718 174 574.53516 174 z M 155.24805 174.42188 C 154.48951 174.38653 153.74505 174.60121 152.9707 175.01562 C 150.06665 176.56983 150.82109 178.25577 160.54297 191.94531 C 165.13409 198.41015 169.86052 205.34221 171.04492 207.34961 C 173.44069 211.41014 173.82878 211.57731 176.44531 209.66406 C 178.15884 208.41109 177.7344 207.36694 169.63086 192.87695 C 162.09874 179.40874 158.53504 174.57503 155.24805 174.42188 z M 566.85352 178.24805 C 564.41439 178.28868 562.76963 180.23577 563.625 182.46484 C 564.15101 183.8356 565.11697 184.07667 568.39258 183.6543 C 570.65178 183.36299 577.225 183.94332 583 184.94336 C 594.03006 186.85342 599.72285 187.38886 598.75977 186.42578 C 598.24869 185.9147 574.47776 179.68639 567.94336 178.35156 C 567.56749 178.27478 567.20196 178.24224 566.85352 178.24805 z M 535.76758 185.52148 C 533.94555 185.4319 531.6337 186.15506 529.25 187.64258 C 527.32005 188.84694 527 189.90588 527 195.08594 L 527 201.125 L 531.4707 197.91406 C 540.31099 191.56544 541.49394 189.63652 538.42773 186.57031 C 537.77805 185.92063 536.86079 185.57524 535.76758 185.52148 z M 601.55859 186 C 600.70113 186 600 186.45 600 187 C 600 187.55 600.42387 188 600.94141 188 C 601.45895 188 602.16008 187.55 602.5 187 C 602.83992 186.45 602.41605 186 601.55859 186 z M 599.81445 188.51367 C 598.36582 188.64708 595.5861 190.88363 590.06055 196.28125 C 585.35196 200.88082 580.2625 205.16453 578.75 205.80078 C 575.61625 207.11901 575.17803 209.66019 577.75 211.59961 C 579.89144 213.21439 582.99132 212.49104 585 209.9082 C 585.825 208.84739 589.34724 204.27202 592.82617 199.74023 C 596.3051 195.20845 599.80574 190.99159 600.60547 190.36914 C 601.85799 189.39427 601.81999 189.14611 600.33984 188.57812 C 600.26098 188.54786 600.17679 188.52575 600.08594 188.51562 C 600.00077 188.50615 599.91103 188.50478 599.81445 188.51367 z M 606 191.86523 L 606 194.38281 C 606 196.1371 607.13536 197.72678 609.75 199.63477 C 611.8125 201.13984 615.75 204.45673 618.5 207.00586 C 621.25 209.55499 624.625 212.37265 626 213.26758 C 629.01552 215.23027 629.58015 215.29544 632.06641 213.96484 C 635.33778 212.21405 634.45351 209.29801 630.25 207.97266 C 626.39182 206.75619 617.73791 201.25922 610.25 195.26758 L 606 191.86523 z M 524 192.61523 L 513.15039 203.30664 C 507.18259 209.18746 501.8379 214 501.27344 214 C 500.26603 214 496 222.84619 496 224.93555 C 496 227.10498 497.92145 225.87144 501.84961 221.17969 C 504.06968 218.52806 509.96221 213.51407 514.94336 210.03906 L 524 203.7207 L 524 198.16797 L 524 192.61523 z M 581.53906 196 C 578.49292 196 576.93281 200.53437 579.19922 202.80078 C 580.74159 204.34315 580.99158 204.31735 583.10547 202.4043 C 584.54027 201.10582 584.66458 200.36015 583.77344 198.4043 C 583.171 197.0821 582.16578 196 581.53906 196 z M 622.5 200 C 620.22942 200 620.69629 201.61632 623.63477 203.92773 C 626.51077 206.18999 628 206.55559 628 205 C 628 203.46629 624.18708 200 622.5 200 z M 178.00391 211 C 177.58655 211 176.70824 211.6457 176.05273 212.43555 C 174.8549 213.87885 175.62194 216.42354 178.25586 219.75 C 179.26129 221.0198 181 221.45938 181 220.44336 C 181 218.48026 178.62681 211 178.00391 211 z M 654.04883 220.21289 C 652.52914 220.27796 651.82508 220.75368 650.95508 221.54102 C 649.87961 222.5143 649 223.83281 649 224.4707 C 649 226.73497 655.78289 228.80685 667.06445 229.99023 C 673.35393 230.64996 680.975 231.54322 684 231.97461 C 687.025 232.406 690.04074 232.81251 690.70117 232.87891 C 692.93973 233.104 702 230.83945 702 230.05469 C 702 229.62573 698.5125 228.72429 694.25 228.05273 C 689.9875 227.38116 680.425 225.45519 673 223.77148 C 661.38162 221.13687 656.58165 220.10445 654.04883 220.21289 z M 572.54688 232 C 569.92449 232 567.70238 234.67454 568.31055 237.09766 C 568.80884 239.08302 570.81253 240.23567 579.70703 243.64844 C 585.64308 245.92607 590.78665 247.83663 591.13672 247.89453 C 591.4868 247.95248 591.9716 246.64359 592.21484 244.98633 C 592.6412 242.08133 592.31791 241.79404 583.18555 236.98633 C 577.97566 234.24359 573.18768 232 572.54688 232 z M 595.42578 244 C 595.1917 244 595 245.11493 595 246.47656 C 595 248.56709 596.12792 249.48617 602.25 252.38867 C 609.71125 255.92608 612.4769 256.45462 617.875 255.375 C 622.27892 254.49422 621.75528 253.34121 616.60156 252.56836 C 614.18268 252.20563 608.52438 250.12786 604.02734 247.95312 C 599.53031 245.77841 595.65987 244 595.42578 244 z "
       style="fill:#fefefe" />
    <path
       id="path8179"
       d="m 625.5,270.26768 c -7.51067,-1.08317 -26.5,-9.16766 -26.5,-11.28208 0,-1.36007 0.1634,-1.31239 5.25557,1.53368 12.0808,6.75209 30.88096,10.1829 41.40186,7.55536 7.73282,-1.93122 16.60241,-6.2148 15.38636,-7.43085 C 660.4697,260.0697 660,259.29342 660,258.91871 c 0,-0.90653 9.08438,-3.16766 9.81025,-2.4418 C 670.6196,257.28626 666.23006,266 665.013,266 664.45585,266 664,265.325 664,264.5 c 0,-1.97703 -0.1995,-1.9405 -6.28324,1.15052 -9.43374,4.79307 -20.24922,6.34309 -32.21676,4.61716 z"
       style="fill:#fe0000" />
    <path
       id="path8177"
       d="M 106.34157,227.52053 C 85.03818,223.65482 67.833656,214.11287 52.322137,197.56036 45.270938,190.03594 42.924994,186.63525 38.483651,177.5 31.287537,162.69856 29.471223,154.31047 29.605728,136.5 29.728158,120.28848 31.5073,112.11399 37.866919,98.542914 42.842758,87.924752 46.599235,82.48067 55.191455,73.435297 62.434251,65.810516 77.001258,54.95869 76.998212,57.190152 c -9.84e-4,0.720416 -2.138484,2.653677 -4.75,4.296136 C 65.044639,66.016823 51.805874,79.195498 46.472001,87.145502 41.054358,95.220361 36.13846,106.28376 33.428651,116.5 c -2.594135,9.78014 -2.603602,32.19136 -0.01771,41.91554 4.344451,16.33716 10.93991,28.06362 22.452228,39.91915 15.748047,16.21755 35.956016,26.04833 58.011911,28.22166 3.9187,0.38614 7.12492,1.09393 7.12492,1.57286 0,1.19735 -6.102,0.94397 -14.65843,-0.60868 z"
       style="fill:#fe0000" />
    <path
       id="path8175"
       d="m 124,228.13793 c 0,-0.47414 3.37715,-1.1681 7.50478,-1.54213 11.03178,-0.99968 21.79123,-4.0271 32.31877,-9.09364 7.98255,-3.84172 10.64339,-5.81702 18.5,-13.73367 7.99985,-8.06098 8.88796,-9.28895 6.92645,-9.57708 -1.2375,-0.18178 -2.25,-0.66587 -2.25,-1.07575 0,-0.94284 6.57891,-4.11566 8.53393,-4.11566 1.84374,0 1.83222,0.56912 -0.12793,6.32186 -1.51528,4.44709 -3.406,6.27332 -3.406,3.28981 0,-0.76358 -3.96846,2.50526 -8.8188,7.2641 -9.34313,9.16686 -15.65754,13.11671 -28.0191,17.5268 C 143.79618,227.45744 124,230.46566 124,228.13793 Z"
       style="fill:#fe0000" />
    <path
       inkscape:connector-curvature="0"
       id="path8173"
       d="m 241.13432,158.82675 c -1.16087,-1.16086 -0.7254,-2.17537 1.08333,-2.5238 1.33056,-0.25632 0.90048,-0.86219 -1.79437,-2.5278 -2.4281,-1.50074 -4.45265,-4.091 -6.42831,-8.22457 -1.58616,-3.31863 -2.57869,-6.33912 -2.20563,-6.71219 0.81474,-0.81473 0.58209,-1.16234 3.87415,5.78851 2.73543,5.77556 8.80416,11.58957 8.80416,8.43461 0,-2.40173 1.29254,-1.87293 3.5,1.43191 1.1,1.64684 2.3375,2.99554 2.75,2.99712 0.4125,0.002 0.75,0.45288 0.75,1.00288 0,1.10166 -9.2661,1.40056 -10.33333,0.33333 z"
       style="fill:#fe0000" />
    <path
       id="path2993"
       d="m 367.87486,131.24065 c -2.54382,-0.95736 -5.35632,-2.35825 -6.25,-3.11309 -2.06412,-1.74347 -2.09082,-5.51874 -0.0534,-7.55613 0.86428,-0.86429 1.08928,-1.57143 0.5,-1.57143 C 361.48214,119 361,118.55 361,118 c 0,-0.55 2.025,-1 4.5,-1 5.16848,0 5.50746,0.70491 1.94733,4.04948 -2.09585,1.96895 -2.70991,2.1437 -3.43129,0.97647 -0.67016,-1.08433 -1.04567,-0.75606 -1.58268,1.38354 -0.82613,3.29155 -0.0703,3.94975 6.99814,6.0943 9.19819,2.79071 24.51379,1.43699 31.4577,-2.78049 2.4414,-1.48282 3.2678,-1.66204 2.9551,-0.64089 -0.23876,0.77968 -2.56604,2.48489 -5.17174,3.78937 -6.47579,3.24194 -23.77737,4.01094 -30.7977,1.36887 z"
       style="fill:#fe0000" />
    <path
       id="path2991"
       d="M 119.31641 67.470703 C 119.27763 67.457589 119.24435 67.459005 119.2168 67.474609 C 118.93337 67.635109 119.23914 69.32864 120.04883 72.839844 C 120.73718 75.824874 120.69899 79.816648 119.92578 85.626953 C 119.30748 90.273225 119.0973 95.248342 119.45703 96.681641 L 120.10938 99.287109 L 121.61133 97.144531 C 123.21059 94.861271 126.44165 94.286953 127.55469 96.087891 C 129.86831 99.831411 131.52937 89.513389 130.53516 77.578125 L 129.82031 68.996094 L 127.27539 70.998047 C 123.88194 73.667335 123.30734 73.553536 120.98828 69.75 C 120.13585 68.351903 119.58781 67.562504 119.31641 67.470703 z M 78.419922 104.84766 C 78.283585 104.85911 78.199637 104.90109 78.173828 104.97852 C 77.991459 105.52563 77.059487 106.93857 76.103516 108.11914 C 74.60596 109.96854 74.052297 110.09882 72.097656 109.05273 C 70.849903 108.385 69.624048 108.04198 69.375 108.29102 C 69.125952 108.54007 70.929954 109.68687 73.382812 110.83984 C 75.83567 111.99282 78.157214 113.44614 78.542969 114.07031 C 78.928725 114.69447 82.003007 116.9556 85.373047 119.09375 C 88.743087 121.23189 91.742381 122.98523 92.039062 122.99023 C 92.335745 122.99545 92.560744 121.78408 92.539062 120.29688 C 92.512547 118.4781 93.231057 117.22246 94.732422 116.46289 C 96.603341 115.51636 96.765166 115.06409 95.732422 113.66797 C 94.153643 111.53369 80.464973 104.67585 78.419922 104.84766 z M 384.17773 120.7207 C 383.4784 120.65521 383.04661 121.40073 382.09375 123.30078 C 381.13558 125.21142 379.78555 126.44423 378.74414 126.36133 C 376.88513 126.2133 376.63549 126.88517 377.60742 129.41797 C 378.04453 130.55707 379.56068 131 383.02539 131 C 390.05293 131 391 130.39654 391 125.92383 C 391 122.95687 390.66372 122.19251 389.54688 122.62109 C 388.74738 122.92788 387.10314 122.48521 385.89453 121.63867 C 385.11166 121.09032 384.59734 120.76 384.17773 120.7207 z M 390.21289 132.59961 C 389.54598 132.65461 386.85151 132.76711 384.22656 132.84961 L 379.45508 133 L 378.32617 137.75 C 377.65532 140.57484 377.56397 142.88425 378.09961 143.44922 C 378.59498 143.97172 379 145.41205 379 146.64844 C 379 148.70837 379.24896 148.80895 381.97852 147.85742 C 383.61683 147.28626 385.51958 147.00718 386.20703 147.23633 C 386.89449 147.46549 388.762 145.68208 390.35742 143.27344 C 392.83385 139.53472 393.12453 138.42649 392.3418 135.69727 C 391.83753 133.93898 390.87981 132.54461 390.21289 132.59961 z M 465.50586 135 C 465.15299 135 465.13922 135.86515 465.47461 136.92188 C 465.77632 137.87248 465.56498 138.73779 464.81445 139.61328 L 464.81445 148.18164 C 466.11782 150.24948 467.65029 152.63178 468.74219 154.25 C 470.13385 156.3125 471.46265 158 471.69531 158 C 471.92797 158 471.82753 157.52927 471.47266 156.95508 C 471.11779 156.3809 471.55241 154.8059 472.4375 153.45508 C 474.16504 150.81852 477.80017 150.19861 479.80078 152.19922 C 481.40271 153.80115 481.31778 152.51521 479.60352 149.20117 C 478.23276 146.55119 466.76567 135 465.50586 135 z M 91.484375 143.32812 C 90.061317 143.34045 87.995987 143.87698 85.404297 144.95117 C 82.433258 146.1826 78.187211 147.43292 75.96875 147.73047 C 72.126463 148.24583 72.014756 148.35814 73.599609 150.10938 C 75.152679 151.82549 75.147221 152.12686 73.507812 154.62891 C 72.194946 156.6326 72.106198 157.17202 73.160156 156.76758 C 73.9356 156.47001 79.279655 155.42908 85.035156 154.45312 C 94.357131 152.87239 100.19752 151 95.806641 151 C 93.877569 151 92.737772 148.40278 93.546875 145.85352 C 94.08366 144.16225 93.314021 143.31228 91.484375 143.32812 z M 145.49414 154.36133 C 145.17828 154.35519 145 154.67199 145 155.35547 C 145 157.28713 140.50983 160.4327 139.04492 159.52734 C 138.47073 159.17247 138 159.60546 138 160.49023 C 138 163.08091 140.96819 168.09515 145.8418 173.74023 C 150.675 179.3385 151.25565 179.82846 150.39062 177.57422 C 150.06927 176.73675 150.90715 175.45147 152.42188 174.45898 C 154.81589 172.89035 155.17879 172.88729 157.5 174.4082 C 160.73947 176.53079 160.65259 176.09142 156.89844 171.38672 C 155.1923 169.2486 152.52945 164.99736 150.98047 161.93945 C 148.63111 157.3015 146.44171 154.37973 145.49414 154.36133 z M 562.28516 177.02539 C 559.76567 177.06099 533.89848 183.75901 533.13281 184.57422 C 532.78514 184.94474 533.48985 184.94372 534.69922 184.57227 C 537.55507 183.69508 541.41288 187.31585 540.66602 190.17188 C 540.28761 191.61888 540.54257 192.00553 541.60547 191.59766 C 544.1932 190.60465 554.36954 188.18902 559 187.46875 C 564.96729 186.54054 565.24059 186.29533 563.41797 183.51367 C 562.20816 181.66726 562.10689 180.6695 562.96484 179.06641 C 563.89193 177.33413 563.78122 177.00429 562.28516 177.02539 z M 574.29883 207.90234 C 572.73345 208.09714 568.93891 214.71912 566.9707 221.60156 C 565.88655 225.39265 565 228.60684 565 228.74609 C 565 228.88534 567.19696 229 569.88281 229 C 573.64296 229 574.9027 228.59749 575.35547 227.25 C 575.67888 226.2875 577.52996 223.31319 579.4707 220.64062 C 583.23259 215.46019 584.07316 212.37321 581.44727 213.38086 C 579.54761 214.10983 575 211.29131 575 209.38477 C 575 208.29617 574.73713 207.8478 574.29883 207.90234 z M 635.92773 210.51172 C 635.3926 210.45007 635.1904 210.95385 634.81641 211.96484 C 633.56779 215.34018 629.72769 216.52252 626.62305 214.48828 C 623.56684 212.48578 623.3492 213.09085 625.69531 217.0625 C 627.28506 219.75373 633.60621 222.87487 645.5 226.8418 C 649.6535 228.22711 652.07037 228.27141 649.75 226.91992 C 647.46319 225.58798 647.53988 224.11899 650.03516 221.46289 L 652.07031 219.29688 L 647.28516 217.14258 C 644.65325 215.95808 640.94119 213.84682 639.03711 212.45117 C 637.33087 211.20053 636.46287 210.57337 635.92773 210.51172 z M 568.22266 231 C 565.63263 231 565 231.40611 565 233.06641 C 565 234.20257 565.46581 236.00257 566.03516 237.06641 C 567.41763 239.64957 567.81858 239.5035 567.26758 236.62109 C 566.94594 234.93853 567.49038 233.76876 569.12891 232.62109 L 571.44531 231 L 568.22266 231 z "
       style="fill:#0000fe" />
    <path
       sodipodi:nodetypes="ssscssssssscsccccsssscccsssssssssssssssssccscssssssssssssssssssssssssssccssccsssscsssssscsssssssssssssssssscssssssssssssssccsscccsscssscssssssssscssscscccssscsscccccscccsccsssssssccccssccsssssscccccccscssssssccccsssssssscssssssssssssscsssscscccsssssssssssscsccssscccssccsssssssssssssssssscsssssssssssssssscsssscssscscssssssscsscssccsscsssccsscsssssssccssssscscsssssscsssssssssssssssscscsscssscssssssssssssccsssccccccssssssssssssscsssccsccccsssscsssssssssccssccccssccccssscsscsssssssssscsscssssscssssccsssssssscccccccssscssccsscssssscccsssssscccccssscccsscsssccccssssscssssssssssssssssssscsssssccsscccssssssscsscsssssccccsscccccccsscccccccssccccccscssccsscssssscccsssccccsssscssssssssss"
       inkscape:connector-curvature="0"
       id="path2989"
       d="m 124.79102,6.3828125 c -0.8447,0.1054542 -1.94577,2.1163846 -3.41602,5.9121095 -2.10737,5.440554 -2.25912,7.493234 -2.48633,33.560547 -0.13311,15.270696 0.0884,28.297861 0.49219,28.951172 0.40377,0.65331 0.19942,5.594376 -0.45313,10.978515 -1.05919,8.739289 -1.43932,9.90899 -3.55664,10.908203 -1.30445,0.6156 -3.17637,0.907654 -4.16015,0.650391 -1.99523,-0.521765 -4.61666,1.982052 -5.66016,5.40625 -0.91839,3.01368 0.81855,2.86172 2.85742,-0.25 2.31866,-3.538715 3.56337,-3.098139 2.89453,1.02344 C 110.5245,108.31911 112.98126,111 118.1543,111 l 3.8457,0 0,6.18555 c 0,4.90621 -0.43498,6.648 -2.09961,8.41992 l -2.09766,2.23437 -5.88476,-3.16992 c -3.23656,-1.74323 -5.89139,-3.66337 -5.90039,-4.26562 -0.028,-1.84333 -3.76023,-4.60209 -5.69336,-4.20899 -1.163991,0.2367 -2.454067,-0.63879 -3.564454,-2.41992 -1.020317,-1.63666 -4.016288,-3.79797 -7.242188,-5.22461 -3.026379,-1.33841 -8.093356,-4.09934 -11.259766,-6.13476 C 70.935091,97.708856 57.546168,88.638912 53,85.306641 l -3.5,-2.564453 3.5,3.089843 c 3.213026,2.836801 15.634162,11.512431 22.259766,15.546879 2.697589,1.64261 2.725628,1.75045 1.183593,4.73242 -1.161652,2.24638 -2.023105,2.86261 -3.261718,2.33984 -0.925324,-0.39054 -2.478065,-0.79371 -3.451172,-0.89648 -0.973107,-0.10277 -3.448107,-1.74833 -5.5,-3.65821 C 62.178576,101.9866 57.125,97.574449 53,94.091797 43.805418,86.329002 51.277648,93.595495 63.445312,104.25 c 4.867865,4.2625 9.415696,7.75 10.107422,7.75 0.691726,0 3.136622,1.5689 5.431641,3.48633 2.295019,1.91744 6.385337,4.72994 9.091797,6.25 2.863162,1.60808 4.921284,3.47119 4.921875,4.45508 5.59e-4,0.93004 0.474074,1.98147 1.050781,2.33789 1.332742,0.82368 -0.705111,3.4707 -2.671875,3.4707 -1.897659,0 -1.784648,5.41679 0.146485,7.01953 0.83829,0.69572 1.850791,0.915 2.25,0.48633 0.399208,-0.42868 0.164062,-0.98102 -0.523438,-1.22656 -1.924212,-0.68722 -1.481455,-4.08544 0.683594,-5.24414 1.063842,-0.56935 3.201342,-1.03707 4.75,-1.03907 1.548656,-0.002 4.292926,-0.90357 6.097656,-2.0039 3.2774,-1.99826 3.28546,-1.9994 7.18164,-0.0117 2.14546,1.09453 4.14171,2.38003 4.43555,2.85547 0.29383,0.47544 -3.56837,2.81464 -8.58203,5.19726 -7.06673,3.35828 -10.373099,4.36313 -14.714848,4.47657 -3.083585,0.0806 -7.087276,0.9233 -8.90625,1.87304 -6.871263,3.58767 -11.332844,3.22256 -29.695312,-2.42578 -9.35,-2.87608 -18.215985,-5.84364 -19.701172,-6.59375 -3.818429,-1.92852 -4.91872,-1.62221 -1.298828,0.36133 1.65,0.90412 7.725,3.14762 13.5,4.98633 8.68374,2.76483 9.635114,3.24776 5.5,2.79101 -2.75,-0.30375 -8.761543,-1.62606 -13.359375,-2.9375 -4.597832,-1.31144 -7.972832,-2.02066 -7.5,-1.57617 1.385606,1.30254 15.169435,4.7697 27.347656,6.87891 13.526714,2.34275 16.48795,4.2302 13.587891,8.65625 -1.402052,2.1398 -2.253301,2.53317 -4.40625,2.03515 -3.019375,-0.69844 -18.945803,-5.53509 -30.117188,-9.14648 -4.096286,-1.32422 -7.021286,-1.98922 -6.5,-1.47852 0.943304,0.92413 27.270043,9.33047 35.00586,11.17774 3.182005,0.75985 6.854048,0.44377 17,-1.46094 7.117719,-1.33621 13.728906,-2.75175 14.691406,-3.14648 1.075025,-0.44088 1.75,-0.26925 1.75,0.44531 0,0.63977 1.9125,2.01398 4.25,3.05469 2.3375,1.04071 4.81565,2.81695 5.50781,3.94531 1.46854,2.39402 4.06072,2.63496 6.79883,0.63281 2.53568,-1.85414 1.26055,-3.10853 -1.44336,-1.41992 -1.75677,1.09712 -2.33386,1.04505 -3.70508,-0.32617 -1.49929,-1.49929 -1.44594,-1.86726 0.70703,-4.7793 2.25236,-3.04649 2.28069,-3.30444 0.78321,-7.46875 l -1.55078,-4.3125 4.36718,-2.63672 C 118.11682,138.18782 120.28843,137 120.54102,137 120.7936,137 121,168.27027 121,206.49023 l 0,69.49219 -50.75,0.26758 c -27.9125,0.14769 101.35,0.26781 287.25,0.26758 185.9,-2.3e-4 314.00858,-0.12032 284.68555,-0.26758 -50.12823,-0.25175 -53.28412,-0.37262 -52.8086,-2.00977 0.27816,-0.95766 1.48925,-6.69023 2.69141,-12.74023 1.20216,-6.05 2.31093,-11.14636 2.46484,-11.32422 0.1539,-0.17786 3.75989,1.28464 8.01368,3.25 7.53506,3.48142 11.34023,4.1019 16.45312,2.67969 4.35477,-1.21134 2.90396,-3.35538 -3.21094,-4.74414 -3.14139,-0.71345 -8.92902,-2.91816 -12.86133,-4.89844 -6.64052,-3.34412 -7.11036,-3.7908 -6.58593,-6.28125 0.31055,-1.47476 2.37144,-11.40427 4.58008,-22.06641 2.20861,-10.66215 4.23118,-19.60228 4.49414,-19.86523 0.26296,-0.26296 1.94403,0.66915 3.73437,2.07031 2.67149,2.09075 3.27187,3.27459 3.35547,6.60742 0.0785,3.12962 -0.32259,4.19736 -1.75,4.65039 -1.01872,0.32333 -2.50608,0.0456 -3.30469,-0.61718 C 606.28137,209.99009 606,210.0758 606,211.4082 c 0,2.30672 2.19768,2.90653 6.40039,1.7461 2.15602,-0.59531 3.80928,-0.62419 4.15039,-0.0723 0.31178,0.50447 1.85309,0.91797 3.42578,0.91797 2.17223,0 3.3635,0.81613 4.95703,3.39453 1.65424,2.67661 3.73301,4.0346 9.83203,6.42383 11.26839,4.41427 13.35677,4.90567 28.23438,6.65625 7.425,0.87367 17.1,2.02187 21.5,2.55078 9.14884,1.09975 18,-0.38806 18,-3.02539 0,-1.11742 -2.55055,-1.94301 -10,-3.23828 -5.5,-0.9563 -15.175,-2.92747 -21.5,-4.38086 -6.325,-1.45338 -13.3,-2.97644 -15.5,-3.38281 -5.20965,-0.9623 -11.30392,-3.65639 -14.66016,-6.48047 -1.47281,-1.2393 -4.73857,-3.09945 -7.25586,-4.13477 -2.51728,-1.03532 -4.57807,-2.46523 -4.58007,-3.17773 -0.002,-0.7125 -1.14243,-2.43344 -2.53321,-3.82422 -1.91289,-1.91289 -3.37078,-2.45581 -5.98632,-2.23047 C 615.4663,199.58272 607,193.21894 607,189.01562 c 0,-3.28605 -2.87451,-5.50744 -5.88867,-4.55078 -1.63089,0.51762 -8.96889,-0.83155 -19.36133,-3.55859 -3.60598,-0.94623 -3.75,-1.1499 -3.75,-5.32227 0,-5.49254 -1.63042,-6.89464 -7.47656,-6.42968 -2.48816,0.19789 -4.52344,-0.0363 -4.52344,-0.52149 0,-0.48522 -1.38701,-0.60462 -3.08203,-0.26562 -1.69503,0.33901 -3.98386,0.13279 -5.08594,-0.45703 -1.10208,-0.58981 -2.27283,-0.80334 -2.60156,-0.47461 -1.21158,1.21158 1.79653,2.88825 5.4082,3.01367 2.046,0.0711 3.87105,0.57994 4.05469,1.13086 0.84369,2.53107 -3.03434,4.3657 -15.69336,7.42578 -9.71677,2.34884 -14.71287,4.09836 -17.82812,6.24609 l -4.32813,2.98438 0.32813,-30.61914 c 0.32221,-30.06168 0.29172,-30.61915 -1.67188,-30.61914 -1.96522,10e-6 -1.99542,0.56219 -1.68359,32.25195 l 0.31836,32.25 -11.31836,10.82422 c -6.22454,5.95328 -12.04274,11.40462 -12.93164,12.11523 -0.8889,0.71062 -2.42124,3.39853 -3.4043,5.97266 -1.41591,3.7075 -1.53071,4.93132 -0.55274,5.88477 0.96941,0.94507 2.34351,-0.0129 6.40235,-4.45899 4.2107,-4.61241 13.64484,-12.09635 20.41992,-16.19922 0.99076,-0.59999 1.25,6.61847 1.25,34.80274 L 524,276 l -32.56836,0 c -30.54718,0 -32.53458,-0.10856 -32.04883,-1.75 0.28483,-0.9625 2.09154,-9.625 4.01563,-19.25 8.67518,-43.39649 12.87157,-62.71811 14.21679,-65.4707 1.33803,-2.73786 1.29436,-3.09032 -0.55859,-4.5 -2.18604,-1.66309 -2.32705,-0.44666 1.98047,-17.03907 0.8939,-3.44328 0.99633,-3.50156 5.46094,-3.14648 6.32031,0.50268 7.83839,-0.98085 7.25195,-7.08398 -0.48971,-5.09656 0.12033,-6.05709 3.94727,-6.22461 2.47578,-0.10838 6.09631,-3.07555 5.04101,-4.13086 -0.35358,-0.35357 -1.39522,0.11005 -2.31445,1.02929 -1.16683,1.16682 -2.54019,1.48024 -4.54883,1.03907 -1.94704,-0.42765 -3.04102,-0.20255 -3.38672,0.69726 -0.30998,0.80685 -2.08866,1.31989 -4.52344,1.30469 -3.37641,-0.021 -4.30281,-0.50129 -5.84375,-3.03516 -2.21168,-3.63683 -9.14733,-10.19109 -15.30664,-14.96289 l 0,6.13672 c 0.75053,-0.87549 0.96187,-1.7408 0.66016,-2.6914 C 465.1392,135.86515 465.15492,135 465.50781,135 c 1.25981,0 12.72495,11.55119 14.09571,14.20117 1.71426,3.31404 1.79919,4.59998 0.19726,2.99805 -2.00061,-2.00061 -5.63574,-1.3807 -7.36328,1.25586 -0.88514,1.35082 -1.31971,2.92582 -0.96484,3.5 0.35487,0.57419 0.45531,1.04492 0.22265,1.04492 -0.42277,0 -3.48748,-4.4075 -6.88086,-9.81445 l 0.27272,1.31106 c 2.0773,4.24845 3.75241,6.43767 5.19494,8.37064 l 2.92492,3.92572 -1.66211,12.17969 c -1.03102,7.55201 -1.31346,12.62568 -0.74219,13.35351 2.18689,2.78618 1.88063,7.17594 -1.65234,23.67383 l -3.74805,17.5 -10.20117,0.28516 C 441.86097,229.15783 441.78482,231 455.10938,231 l 10.10742,0 -0.69336,2.75 C 463.84915,236.4274 456,275.04039 456,275.67969 456,275.85606 441.79371,276 424.43164,276 c -29.5948,0 -31.53434,-0.10935 -31.04883,-1.75 0.28483,-0.9625 2.09215,-9.625 4.01563,-19.25 1.92349,-9.625 5.5708,-27.4 8.10547,-39.5 6.56283,-31.32956 6.26544,-28.5 2.99609,-28.5 -2.57746,0 -2.72525,0.22577 -2.21484,3.37109 0.33332,2.05403 -0.90488,10.15736 -3.16993,20.75 l -3.71679,17.37891 -34.25,0.26367 -34.25,0.26367 0.30078,-51.01367 C 331.4967,127.56638 331.4778,126.99982 329.5,127 c -1.98466,1.7e-4 -1.99707,0.57099 -1.71289,74.5 l 0.28516,74.5 -22.10352,0 c -20.58182,0 -22.06816,-0.1205 -21.58594,-1.75 0.28483,-0.9625 2.09215,-9.625 4.01563,-19.25 1.92349,-9.625 5.5708,-27.4 8.10547,-39.5 6.56283,-31.32956 6.26544,-28.5 2.99609,-28.5 -2.57746,0 -2.72525,0.22577 -2.21484,3.37109 0.33332,2.05403 -0.90488,10.15736 -3.16993,20.75 L 290.39844,228.5 256.19922,228.76367 222,229.02539 l 0,-46.85156 0,-41.09961 -3.52148,0 C 218.82,151.20081 219,172.86519 219,205.69922 L 219,276 l -16.56836,0 c -15.30908,0 -16.52737,-0.13291 -16.04883,-1.75 0.28483,-0.9625 2.09215,-9.625 4.01563,-19.25 1.92349,-9.625 5.5708,-27.4 8.10547,-39.5 6.56283,-31.32956 6.26544,-28.5 2.99609,-28.5 -2.57746,0 -2.72525,0.22577 -2.21484,3.37109 0.33332,2.05403 -0.90488,10.15736 -3.16993,20.75 L 192.39844,228.5 158.19922,228.76367 124,229.02539 l 0,-47.48047 c 0,-44.38264 -0.11095,-47.43939 -1.70898,-46.82617 -2.7559,1.05754 -15.67452,9.83342 -17.22461,11.70117 -2.54426,3.06564 -6.855446,4.76467 -9.076176,3.57617 C 94.895201,149.41004 94,148.30348 94,147.53711 c 0,-1.70149 2.706859,-4.53921 4.322266,-4.53125 0.648214,0.003 5.972164,-2.30678 11.832034,-5.13281 7.50817,-3.62094 11.34698,-4.95749 13,-4.52539 2.92735,0.76521 6.86056,9.41874 6.85156,15.07422 -0.006,4.00089 2.18053,7.57812 4.63086,7.57812 0.72927,0 1.5956,1.2375 1.92578,2.75 1.30081,5.95872 3.14652,9.05842 9.9707,16.75 3.9038,4.4 10.9867,13.625 15.74024,20.5 4.75353,6.875 9.35833,13.4 10.23242,14.5 3.44779,4.33885 -5.67018,-9.72739 -12.77148,-19.70312 -8.88046,-12.47512 -9.63804,-14.24294 -6.76368,-15.78126 4.07845,-2.18272 7.3984,1.30775 16.11914,16.94532 4.45976,7.997 8.58009,14.98906 9.15625,15.53906 1.30106,1.24199 1.96255,2.49145 -9.25976,-17.5 -5.0943,-9.075 -10.35316,-17.80399 -11.68555,-19.39844 -1.33239,-1.59446 -3.703,-5.41946 -5.26758,-8.5 -1.56457,-3.08055 -4.22801,-6.91572 -5.91992,-8.52148 -2.36067,-2.24047 -2.81961,-3.22908 -1.9707,-4.25196 0.60845,-0.7331 0.83928,-2.67273 0.51172,-4.31054 -0.4619,-2.30952 -0.15937,-3.21287 1.35156,-4.02149 2.05946,-1.10219 4.4891,-4.83511 3.67578,-5.64843 -0.26456,-0.26456 -2.08027,1.11737 -4.0332,3.07031 -2.11051,2.1105 -3.8147,3.12336 -4.20117,2.49805 -0.3576,-0.57862 -2.21123,-0.91828 -4.11915,-0.75391 -3.36179,0.28964 -3.58202,0.0837 -7.14843,-6.68164 L 126.5,126.5 l 0.64453,-11 C 127.86219,103.24886 128.7041,98.186146 130.375,96.087891 131.95968,94.097919 131.60536,73.607339 129.57617,50 128.6543,39.275 127.58398,25.1 127.19922,18.5 126.71208,10.144 126.02556,6.2286872 124.79102,6.3828125 Z M 125.13477,7 C 125.61108,7 126,9.5917949 126,12.759766 c 0,5.758614 2.46091,39.136202 3.60742,48.927734 0.54528,4.656766 0.34461,5.450314 -1.95508,7.75 -3.31752,3.317519 -4.25666,3.229152 -6.22851,-0.583984 -1.38085,-2.670272 -1.60328,-6.712497 -1.48047,-26.75 C 120.07345,20.878699 120.29816,17.920339 122.17773,12.75 123.32739,9.5875 124.65847,7 125.13477,7 Z m -5.81836,60.470703 c 0.2714,0.0918 0.81944,0.8812 1.67187,2.279297 2.31906,3.803536 2.89366,3.917335 6.28711,1.248047 l 2.54492,-2.001953 0.71485,8.582031 c 0.99421,11.935264 -0.66685,22.253286 -2.98047,18.509766 C 127.18515,95.489969 126.0344,95 124.99805,95 c -1.03636,0 -2.56086,0.96545 -3.38672,2.144531 l -1.50195,2.142578 -0.65235,-2.605468 c -0.35973,-1.433299 -0.14955,-6.408416 0.46875,-11.054688 0.77321,-5.810305 0.8114,-9.802079 0.12305,-12.787109 -0.80969,-3.511204 -1.11546,-5.204735 -0.83203,-5.365235 0.0275,-0.0156 0.0608,-0.01702 0.0996,-0.0039 z m -82.902348,5.134766 c -0.269387,-0.0039 -0.480639,0.06072 -0.623046,0.203125 -1.513303,1.513303 0.84385,6.961456 4.517578,10.441406 1.596722,1.5125 3.192541,2.734624 3.546875,2.714844 0.354335,-0.01978 -0.539479,-1.03228 -1.986328,-2.25 C 38.075635,80.522092 34.49451,73 36.767578,73 c 0.421946,0 3.234446,2.119586 6.25,4.710938 C 46.033131,80.302288 47.6,81.378509 46.5,80.101562 43.008438,76.048344 38.299779,72.632795 36.414062,72.605469 Z m 330.738278,1.4375 c -4.77776,-0.143214 -4.86152,4.809941 -0.78515,17.826172 2.00353,6.397442 4.33994,14.780859 5.19336,18.630859 0.85342,3.85 2.44676,10.0375 3.53906,13.75 1.09229,3.7125 2.19875,6.75 2.46094,6.75 0.26219,0 0.20669,-1.08075 -0.125,-2.40234 -0.47925,-1.90947 -0.22818,-2.3715 1.22461,-2.25 1.14193,0.0955 2.43124,-1.04812 3.43359,-3.04688 1.52457,-3.04008 1.71312,-3.12437 3.80078,-1.66211 1.20861,0.84654 2.82838,1.2991 3.59766,1.00391 1.02998,-0.39524 1.49734,0.56911 1.77734,3.66015 0.36923,4.07612 0.38699,4.04964 0.55664,-0.89648 0.20418,-5.95255 -1.28478,-10.45513 -10.13281,-30.654297 -7.59848,-17.346575 -8.89872,-19.514395 -12.20313,-20.34375 -0.87562,-0.219767 -1.65535,-0.344775 -2.33789,-0.365234 z M 366.9375,75 c 4.9693,0 5.76299,1.164405 14.33008,21 10.87499,25.17916 11.42012,28.30022 4.26562,24.44727 -2.91802,-1.57146 -3.78867,-2.84362 -5.07812,-7.42188 -3.23871,-11.49915 -10.5948,-34.217706 -10.96094,-33.851562 -0.20997,0.209972 1.58457,6.668557 3.98828,14.353516 8.86671,28.347926 8.79972,28.077526 7.61719,30.287106 -1.12627,2.10445 -4.64801,2.63072 -4.91406,0.73438 -0.44552,-3.17548 -7.26238,-28.28687 -9.67188,-35.628908 C 363.43715,79.545403 363.57598,75 366.9375,75 Z M 124.67773,96.136719 c 0.2031,0.0029 0.41703,0.0209 0.64063,0.05273 1.88758,0.268734 2.14254,0.850648 1.88672,4.310547 -1.84094,24.89749 -1.82269,25.77987 0.68359,30.5 6.48084,12.2055 11.43537,19.98233 13.65625,21.4375 2.95031,1.93312 3.15672,4.11701 0.52149,5.52734 -1.06384,0.56935 -2.07634,1.02754 -2.25,1.01954 -1.38531,-0.0672 -3.16284,-2.95467 -7.6836,-12.48438 -2.87004,-6.05 -5.64937,-11.78129 -6.17578,-12.73633 -0.52642,-0.95504 -0.95703,-2.86754 -0.95703,-4.25 0,-1.91046 -0.53987,-2.53748 -2.25,-2.61328 -2.15857,-0.0956 -2.14841,-0.13229 0.25,-0.90039 1.375,-0.44035 1.825,-0.84434 1,-0.89844 -1.18198,-0.0775 -1.42869,-1.24991 -1.16211,-5.52734 0.18608,-2.98567 -0.15688,-8.62817 -0.76367,-12.53906 -1.19427,-7.697267 -0.44294,-10.942551 2.60351,-10.898441 z m -5.0332,5.357421 c 0.27101,-0.0232 0.45859,0.33481 0.73633,1.05859 0.34005,0.88615 0.61914,2.92428 0.61914,4.5293 0,2.25154 -0.4569,2.91797 -2,2.91797 -1.52286,0 -1.99295,-0.65607 -1.96875,-2.75 0.0175,-1.5125 0.64035,-3.55064 1.38281,-4.5293 0.60643,-0.79935 0.95946,-1.2034 1.23047,-1.22656 z m -41.224608,3.35352 c 2.045051,-0.17181 15.733721,6.68603 17.3125,8.82031 1.033031,1.39651 0.871439,1.8442 -1,2.77344 -1.287116,0.6391 -2.31737,2.15684 -2.433594,3.58398 l -0.195312,2.39063 c -2.935355,-0.81038 -11.307278,-5.75135 -13.171875,-7.99805 -0.725752,-0.87448 -3.274496,-2.50958 -5.664063,-3.63281 -2.389566,-1.12323 -4.141626,-2.24509 -3.892578,-2.49414 0.249048,-0.24904 1.474903,0.0939 2.722656,0.76171 1.954641,1.04609 2.508304,0.91581 4.00586,-0.93359 0.955971,-1.18057 1.887943,-2.59351 2.070312,-3.14062 0.02581,-0.0774 0.109757,-0.11941 0.246094,-0.13086 z m 22.707028,12.18554 c 0.89515,-0.0183 2.19686,0.65194 2.89258,1.49024 1.97634,2.38134 0.52806,2.7462 -2.12695,0.53515 -1.8499,-1.54056 -2.024507,-1.99969 -0.76563,-2.02539 z m -5.041012,0.22852 c 1.247438,0.0668 2.81928,0.7377 4.734372,2.01172 2.02358,1.34618 6.78438,4.11537 10.58008,6.15234 5.32915,2.85991 7.08548,3.40531 7.70899,2.39649 0.50413,-0.81566 0.72382,-0.21189 0.58398,1.60742 -0.27751,3.61043 -1.52484,4.05696 -4.47266,1.60156 -3.01829,-2.5141 -20.841307,-9.38277 -22.187497,-8.55078 -0.149828,0.0926 -0.471965,0.0615 -0.912109,-0.0586 l 0.720703,-2.41602 c 0.572564,-1.91629 1.640291,-2.83005 3.244141,-2.74414 z m -72.027344,15.10156 c -1.38894,0.10167 -2.175076,0.8892 -1.69336,2.14453 0.340512,0.88736 7.03e-4,1.49219 -0.83789,1.49219 -4.02051,0 -2.415854,3.86366 2.972656,7.1582 1.65,1.00881 3.45,1.81527 4,1.79297 0.55,-0.0223 -0.608055,-0.88933 -2.572266,-1.92773 -4.031223,-2.13116 -6.545403,-4.73975 -5.539062,-5.7461 0.370708,-0.3707 2.478165,-0.19165 4.68164,0.39649 4.200093,1.12107 4.448516,0.77549 0.775391,-1.07227 -1.203807,-0.60557 -2.388661,-1.71152 -2.634765,-2.45703 -0.341858,-1.03558 0.346422,-1.21049 2.919921,-0.74414 2.97491,0.53909 3.083831,0.48776 0.933594,-0.43164 -1.122818,-0.48009 -2.172495,-0.66647 -3.005859,-0.60547 z m 367.689456,0.11328 c -0.31686,-0.0507 -0.16768,0.80396 0.44336,2.79492 0.9942,3.23939 0.82179,3.99262 -1.81836,7.97852 -1.60371,2.42115 -3.47856,4.21549 -4.16602,3.98633 -0.68745,-0.22915 -2.5902,0.05 -4.22851,0.62109 -2.72956,0.95153 -2.97852,0.85095 -2.97852,-1.20898 0,-1.23639 -0.46667,-2.71472 -1.03711,-3.28516 -0.71621,-0.71621 -0.71621,-1.88183 0,-3.76562 0.57044,-1.50037 0.98568,-3.71041 0.92188,-4.91211 -0.10747,-2.02427 -0.15103,-2.03851 -0.59375,-0.18555 -0.26281,1.1 -1.79756,6.48493 -3.41016,11.9668 -2.64412,8.98843 -2.8257,10.4859 -1.83789,15.24414 0.60244,2.90195 0.80203,6.20001 0.44336,7.33008 -0.35867,1.13007 -0.10083,2.71826 0.57226,3.52929 1.48657,1.79119 2.37138,1.52888 12.13282,-3.59375 4.34091,-2.27804 7.95903,-4.87771 8.30468,-5.96679 0.33688,-1.06141 0.20756,-6.33411 -0.28711,-11.71875 -0.49468,-5.38463 -0.8892,-11.48955 -0.8789,-13.56641 0.0103,-2.07687 -0.48931,-4.28423 -1.10938,-4.9043 -0.20913,-0.20913 -0.36703,-0.32685 -0.47265,-0.34375 z m -0.52735,10.71289 c 0.25823,-0.0516 0.44954,0.41192 0.78907,1.34766 1.1263,3.10412 2.09421,17.84491 1.25195,19.07031 -0.41896,0.60956 -4.39628,2.97206 -8.83789,5.25 -8.67807,4.45067 -8.75489,4.47949 -9.75781,3.47656 -1.60206,-1.60205 -0.36786,-2.99894 3.58398,-4.05664 10.07354,-2.69616 14.3791,-9.09698 11.69336,-17.38281 -0.91235,-2.81453 -0.89102,-4.12283 0.0937,-5.96289 0.60139,-1.12371 0.92537,-1.6906 1.18359,-1.74219 z m -299.736325,0.13867 c 1.829646,-0.0158 2.599285,0.83413 2.0625,2.5254 -0.809103,2.54926 0.330694,5.14648 2.259766,5.14648 4.390869,0 -1.44951,1.8724 -10.771485,3.45312 -5.755501,0.97596 -11.099556,2.01689 -11.875,2.31446 -1.053958,0.40444 -0.965209,-0.13498 0.347656,-2.13867 1.639404,-2.50205 1.644863,-2.80343 0.0918,-4.51953 -1.584853,-1.75124 -1.473146,-1.86355 2.369141,-2.37891 2.218461,-0.29755 6.464508,-1.54787 9.435547,-2.7793 2.59169,-1.07419 4.65702,-1.61072 6.080078,-1.62305 z m 18.589845,0.20704 c 0.49793,-0.0732 0.79459,0.26748 1.1914,0.97656 0.56759,1.0142 0.45606,2.11966 -0.30859,3.04101 -1.34673,1.62271 -4.53897,1.93379 -5.4082,0.52735 -0.3127,-0.50595 0.64569,-1.87433 2.1289,-3.04102 1.19997,-0.94389 1.89856,-1.43068 2.39649,-1.5039 z m -51.158204,0.58789 c 0.347395,0.0143 0.646354,0.10729 0.8125,0.27343 0.332291,0.33229 -0.258334,0.56879 -1.3125,0.5254 -1.164943,-0.048 -1.401249,-0.28625 -0.603516,-0.60547 0.360937,-0.14446 0.75612,-0.20767 1.103516,-0.19336 z m 318.363284,0.0332 c 0.57152,-0.22895 0.75828,1.42825 0.25781,5.09375 -1.04525,7.65547 -1.09189,10.79747 -0.22266,15 0.60485,2.92428 0.46653,3.75 -0.63086,3.75 -0.90888,0 -1.80808,-1.991 -2.53711,-5.62109 -0.94045,-4.68283 -0.84396,-6.68505 0.57227,-12 1.03362,-3.87908 1.98902,-5.99371 2.56055,-6.22266 z m 8.14843,3.95898 c 1.05914,0.0179 1.6952,0.55374 2.71289,1.81055 2.27578,2.81046 2.39774,5.65313 0.27735,6.4668 -2.61006,1.00158 -4.84462,0.69789 -7.25195,-0.98828 -3.32682,-2.33019 -2.4988,-5.60044 1.7246,-6.80664 1.11377,-0.3181 1.90164,-0.49318 2.53711,-0.48243 z m -254.23828,0.16016 c 0.22323,-0.0945 0.71691,0.69791 1.81446,2.49805 1.09794,1.80079 1.99609,3.48829 1.99609,3.75 0,0.89188 -1.59776,0.48036 -2.80078,-0.72266 -0.66,-0.66 -1.19731,-2.3475 -1.19531,-3.75 0.002,-1.09044 0.0119,-1.70188 0.18554,-1.77539 z M 476.41211,152 c 4.87246,0 5.00361,1.85001 1.20898,17.19727 l -3.53711,14.30273 2.09961,1.77539 c 1.15481,0.97626 1.92441,1.87937 1.70899,2.00781 C 476.88036,187.88676 471,186.76704 471,185.9707 c 0,-0.49624 0.69308,-5.87561 1.54102,-11.95508 1.11593,-8.00091 1.2652,-12.0549 0.54101,-14.67773 -1.23705,-4.4802 0.06,-7.33789 3.33008,-7.33789 z m -330.91797,2.36133 c 0.94757,0.0184 3.13697,2.94018 5.48633,7.57812 1.54898,3.05791 4.21183,7.30915 5.91797,9.44727 3.75415,4.7047 3.84103,5.14407 0.60156,3.02148 -2.32121,-1.5209 -2.6841,-1.51784 -5.07812,0.0508 -1.51473,0.99249 -2.35261,2.27777 -2.03126,3.11524 0.30085,0.78406 0.42238,1.42578 0.26954,1.42578 -0.78704,0 -9.58622,-10.95616 -11.00977,-13.70898 -1.85625,-3.58961 -2.187,-6.74112 -0.60547,-5.76368 1.46491,0.90536 5.95508,-2.24021 5.95508,-4.17187 0,-0.68348 0.17828,-1.00028 0.49414,-0.99414 z m 336.66992,2.20508 c 1.20389,-0.24056 4.83594,4.16831 4.83594,6.06836 0,1.4251 -5.90408,2.01947 -6.11133,0.61523 -0.27995,-1.8968 0.35967,-5.83108 1.06836,-6.57227 0.0569,-0.0595 0.12677,-0.0953 0.20703,-0.11132 z M 377.08203,157.5 l 1.47852,3.28906 c 0.81241,1.80868 2.18012,3.55831 3.04101,3.88867 1.26307,0.48469 1.30875,0.76303 0.23242,1.44532 -2.60156,1.64913 -2.94745,1.18642 -4.19921,-5.62305 z m 9.52539,3.24609 c 1.35829,0.008 2.22823,0.24894 2.09766,0.64063 -0.17265,0.51795 -1.18991,1.48356 -2.25977,2.14648 -1.60081,0.99192 -2.23834,0.89143 -3.59961,-0.56836 -1.56267,-1.67578 -1.43711,-1.79393 2.25977,-2.14648 0.54255,-0.0517 1.04919,-0.0751 1.50195,-0.0723 z M 574.53516,174 c 2.07202,0 2.46484,0.47809 2.46484,3 0,1.65 -0.1125,2.95977 -0.25,2.91016 -0.1375,-0.0496 -1.72048,-0.5146 -3.51758,-1.03321 -2.85202,-0.82304 -3.13364,-1.19334 -2.21484,-2.91015 0.60965,-1.13914 2.09006,-1.9668 3.51758,-1.9668 z m -12.25,3.02539 c 1.49606,-0.0211 1.60677,0.30874 0.67968,2.04102 -0.85795,1.60309 -0.75668,2.60281 0.45313,4.44921 1.82262,2.78166 1.54932,3.02492 -4.41797,3.95313 -2.475,0.38499 -7.07393,1.34584 -10.21875,2.13477 -3.14481,0.78893 -6.37323,1.68617 -7.17578,1.99414 -1.0629,0.40787 -1.31786,0.0212 -0.93945,-1.42578 0.74686,-2.85603 -3.11095,-6.47485 -5.9668,-5.59766 -1.20937,0.37109 -1.91408,0.37211 -1.56641,0.002 0.76567,-0.81521 26.63286,-7.51518 29.15235,-7.55078 z m 4.56836,1.22266 c 0.34844,-0.006 0.71397,0.0267 1.08984,0.10351 6.5344,1.33483 30.30533,7.56314 30.81641,8.07422 0.96308,0.96308 -4.72971,0.42764 -15.75977,-1.48242 -5.775,-1.00004 -12.34822,-1.58037 -14.60742,-1.28906 -3.27561,0.42237 -4.24157,0.1813 -4.76758,-1.18946 -0.85537,-2.22907 0.78939,-4.17616 3.22852,-4.21679 z m 3.72265,6.32031 c 2.66142,-0.076 6.52145,0.40554 12.77149,1.4082 6.94041,1.11342 12.9511,2.02344 13.35546,2.02344 0.40441,0 -1.93829,2.70073 -5.20507,6.00195 l -5.93946,6.00196 -1.40429,-2.75196 c -3.61072,-7.07663 -6.30533,-7.81369 -11.58985,-3.17383 -1.92775,1.6926 -3.97934,2.78379 -4.55859,2.42579 -1.17417,-0.72568 -7.00586,1.55534 -7.00586,2.74023 0,1.01059 2.17177,0.93376 3.86133,-0.13672 2.00303,-1.2691 5.13867,-0.13831 5.13867,1.85352 0,0.95061 0.87583,2.52042 1.94531,3.48828 1.91432,1.73244 1.89104,1.83789 -1.5,6.76758 -1.89448,2.7541 -3.44531,5.45105 -3.44531,5.99218 0,0.54114 -0.70628,3.41457 -1.57031,6.38672 L 563.85742,229 545.42969,229 527,229 l 0,-13.37891 0,-13.38086 5.66406,-4.27539 c 6.00311,-4.53239 13.02206,-7.17237 24.07422,-9.05273 3.71869,-0.63267 7.43672,-1.71767 8.26172,-2.41211 1.45227,-1.22245 2.91475,-1.85569 5.57617,-1.93164 z m -34.80859,0.95312 c 1.09321,0.0538 2.01047,0.39915 2.66015,1.04883 2.11499,2.11498 1.97859,3.97307 -0.45703,6.24219 -1.11584,1.03957 -4.04084,3.33553 -6.5,5.10156 L 527,201.125 l 0,-6.03906 c 0,-5.18006 0.32005,-6.239 2.25,-7.44336 2.3837,-1.48752 4.69555,-2.21068 6.51758,-2.1211 z M 601.55859,186 c 0.85748,0 1.28133,0.45 0.94141,1 -0.33992,0.55 -1.04105,1 -1.55859,1 C 600.42387,188 600,187.55 600,187 c 0,-0.55 0.70113,-1 1.55859,-1 z m -1.74414,2.51367 c 0.0966,-0.009 0.18632,-0.008 0.27149,0.002 0.0908,0.0101 0.17504,0.0322 0.2539,0.0625 1.48015,0.56799 1.51815,0.81615 0.26563,1.79102 -0.79973,0.62245 -4.30037,4.83931 -7.7793,9.37109 -3.47893,4.53179 -7.00117,9.10716 -7.82617,10.16797 -2.00868,2.58284 -5.10856,3.30619 -7.25,1.69141 -2.57197,-1.93942 -2.13375,-4.4806 1,-5.79883 1.5125,-0.63625 6.60196,-4.91996 11.31055,-9.51953 5.52555,-5.39762 8.30527,-7.63417 9.7539,-7.76758 z m 1.93555,2.49219 c 1.71283,-0.008 1.68496,0.21431 -2.57617,19.99414 l -3.77149,17.5 -9.70117,0.28711 C 579.15848,228.98013 576,228.71584 576,227.97656 c 0,-0.60291 1.58643,-3.17351 3.52539,-5.71289 1.93896,-2.53938 3.80837,-5.74476 4.1543,-7.12305 1.07725,-4.2921 15.9267,-24.12476 18.07031,-24.13476 z m 4.25,0.85937 4.25,3.40235 c 7.48791,5.99164 16.14182,11.48861 20,12.70508 4.20351,1.32535 5.08778,4.24139 1.81641,5.99218 -1.06384,0.56935 -2.30134,1.01133 -2.75,0.98243 -1.46564,-0.0942 -5.72078,-3.21798 -10.81641,-7.94141 -2.75,-2.54913 -6.6875,-5.86602 -8.75,-7.37109 -2.61464,-1.90799 -3.75,-3.49767 -3.75,-5.25196 z m -82,0.75 0,5.55274 0,5.55273 -9.05664,6.31836 c -4.98115,3.47501 -10.87368,8.489 -13.09375,11.14063 C 497.92145,225.87144 496,227.10498 496,224.93555 496,222.84619 500.26603,214 501.27344,214 c 0.56446,0 5.90915,-4.81254 11.87695,-10.69336 z M 581.53906,196 c 0.62672,0 1.63194,1.0821 2.23438,2.4043 0.89114,1.95585 0.76683,2.70152 -0.66797,4 C 582.13551,203.2821 581.13028,204 580.87109,204 579.80188,204 578,201.48953 578,200 c 0,-1.86005 1.89316,-4 3.53906,-4 z M 622.5,200 c 1.68708,0 5.5,3.46629 5.5,5 0,1.55559 -1.48923,1.18999 -4.36523,-1.07227 C 620.69629,201.61632 620.22942,200 622.5,200 Z m -48.20117,7.90234 c 0.4383,-0.0545 0.70117,0.39383 0.70117,1.48243 0,1.90654 4.54761,4.72506 6.44727,3.99609 2.62589,-1.00765 1.78532,2.07934 -1.97657,7.25976 -1.94074,2.67256 -3.79182,5.64688 -4.11523,6.60938 -0.45277,1.34749 -1.71251,1.75 -5.47266,1.75 C 567.19696,229 565,228.88534 565,228.74609 c 0,-0.13925 0.88655,-3.35344 1.9707,-7.14453 1.96821,-6.88244 5.76275,-13.50442 7.32813,-13.69922 z m -395.37891,2.57032 c -0.30787,0.0229 0.0242,2.00024 0.78906,4.60937 2.24533,7.65955 0.60537,7.76461 -4.47851,0.28711 -1.0743,-1.5801 -1.09461,-1.48321 -0.12305,0.63086 0.6319,1.375 1.83621,3.2875 2.67578,4.25 3.22538,3.69765 4.68453,1.49409 3.1211,-4.71484 -0.63267,-2.51256 -1.49366,-4.78119 -1.91407,-5.04102 -0.0263,-0.0162 -0.0498,-0.023 -0.0703,-0.0215 z m 457.00781,0.0391 c 0.53514,0.0617 1.40314,0.68881 3.10938,1.93945 1.90408,1.39565 5.61614,3.50691 8.24805,4.69141 l 4.78515,2.1543 -2.16211,2.30078 c -2.21305,2.35568 -2.0312,5.4685 0.31055,5.32422 1.00366,-0.0618 1.01031,-0.18893 0.0312,-0.58399 -1.82791,-0.73758 -1.5285,-2.77551 0.70508,-4.79687 2.32,-2.09957 3.45552,-1.98492 22.04492,2.23046 7.425,1.68371 16.9875,3.60968 21.25,4.28125 4.2625,0.67156 7.75,1.573 7.75,2.00196 0,0.42897 -2.27176,1.2677 -5.04883,1.86328 -2.77707,0.59557 -5.58957,1.01283 -6.25,0.92773 -0.66043,-0.0851 -4.80117,-0.57267 -9.20117,-1.08398 -4.4,-0.51132 -12.5,-1.58114 -18,-2.37695 -5.5,-0.7958 -10.9,-1.48515 -12,-1.53125 -2.9912,-0.12529 -8.13518,-1.66692 -16.55469,-4.9629 -5.51752,-2.15993 -8.01136,-3.73128 -9.25,-5.82812 -2.34611,-3.97165 -2.12847,-4.57672 0.92774,-2.57422 3.10464,2.03424 6.94474,0.8519 8.19336,-2.52344 0.37399,-1.01099 0.57619,-1.51477 1.11132,-1.45312 z M 124,231 l 34.10938,0 34.10742,0 -0.69336,2.75 C 190.84915,236.4274 183,275.04039 183,275.67969 183,275.85606 169.725,276 153.5,276 l -29.5,0 0,-22.5 z m 98,0 34.10938,0 34.10742,0 -0.69336,2.75 C 288.84915,236.4274 281,275.04039 281,275.67969 281,275.85606 267.725,276 251.5,276 l -29.5,0 0,-22.5 z m 109,0 34.10938,0 34.10742,0 -0.69336,2.75 C 397.84915,236.4274 390,275.04039 390,275.67969 390,275.85606 376.725,276 360.5,276 l -29.5,0 0,-22.5 z m 196,0 18.5,0 18.5,0 0,2.27734 c 0,2.30698 0.7635,3.95632 3.19336,5.63868 C 566.37567,238.35181 565,234.80961 565,233.06641 565,231.40611 565.63263,231 568.22266,231 l 3.22265,0 -2.3164,1.62109 c -1.63853,1.14767 -2.18297,2.31744 -1.86133,4 0.25002,1.30789 0.30828,2.37891 0.1289,2.37891 -0.0436,0 -0.0899,-0.016 -0.13867,-0.041 2.20069,1.50623 5.73829,3.04471 11.32031,5.11329 6.39739,2.37073 11.81717,4.79514 12.04493,5.38867 0.22776,0.59353 -0.71818,6.64522 -2.10352,13.44726 C 587.13419,269.71023 586,275.43735 586,275.63672 586,275.83608 572.725,276 556.5,276 l -29.5,0 0,-22.5 z m 61.25,0.13672 c 3.61154,-0.0342 6.27402,0.0533 6.46094,0.24023 0.24922,0.24922 -0.14629,2.49038 -0.87891,4.98047 l -1.33203,4.52735 -9,-4.69141 -9,-4.69336 9.87891,-0.28711 c 1.35834,-0.0396 2.66724,-0.0648 3.87109,-0.0762 z M 572.54688,232 c 0.64079,0 5.42878,2.24359 10.63867,4.98633 9.13236,4.80771 9.45565,5.095 9.02929,8 -0.24324,1.65726 -0.72804,2.9661 -1.07812,2.9082 -0.35007,-0.0579 -5.49364,-1.96846 -11.42969,-4.24609 -8.8945,-3.41277 -10.89819,-4.56542 -11.39648,-6.55078 C 567.70238,234.67454 569.92448,232 572.54688,232 Z m 22.8789,12 c 0.23409,0 4.10453,1.77841 8.60156,3.95312 4.49704,2.17473 10.15534,4.25251 12.57422,4.61524 5.15372,0.77285 5.67736,1.92586 1.27344,2.80664 -5.3981,1.07962 -8.16375,0.55108 -15.625,-2.98633 -6.12208,-2.9025 -7.25,-3.82158 -7.25,-5.91211 C 595,245.11493 595.1917,244 595.42578,244 Z"
       style="fill:#000000" />
    <path
       style="fill:#000000"
       d="m 314.45663,94.524571 c -2.72605,0.0649 -7.12767,1.924022 -9.8457,4.476562 -1.57362,1.477807 -10.01917,7.238577 -18.76953,12.800777 -13.0861,8.31824 -17.15111,10.42722 -22.89844,11.88282 -3.84309,0.97333 -8.31588,2.5666 -9.94141,3.54101 l -2.95703,1.77149 -1.83203,-2.60352 c -1.41422,-2.0087 -1.60159,-2.96888 -0.81836,-4.19726 0.80875,-1.26843 0.56565,-1.98359 -1.19531,-3.51563 -1.21587,-1.05781 -2.56659,-1.92187 -3.00196,-1.92187 -1.48726,0 -0.79426,1.80729 1.07813,2.8125 2.75584,1.47949 2.28842,2.60706 -1.51367,3.66015 -3.86092,1.06938 -6.89844,3.49143 -6.89844,5.5 0,1.1326 -1.09401,1.25378 -6.30859,0.70117 -3.46963,-0.36769 -6.4478,-1.04982 -6.61915,-1.51562 -0.17133,-0.46583 -1.22419,-0.84743 -2.33789,-0.84766 l -2.02343,0 0.13867,23.21485 3.22892,0 c 0.15942,-10.53272 0.54971,-16.00358 0.85897,-16.19532 1.96036,-1.21535 14.05895,1.43257 17.75586,3.88672 2.51724,1.67111 4.1931,2.20474 5.33008,1.69532 0.91226,-0.40874 4.18151,-0.7744 7.26562,-0.8125 4.75091,-0.0586 7.10781,-0.79636 15.42188,-4.83008 8.13878,-3.94868 12.59642,-7.0678 26.12695,-18.28125 22.70263,-18.814843 23.16946,-19.257751 21.79883,-20.648441 -0.41208,-0.41812 -1.13428,-0.595848 -2.04297,-0.574218 z"
       id="path8147"
       inkscape:connector-curvature="0"
       sodipodi:nodetypes="sssscccssssssscccccccscssss" />
    <path
       style="fill:#fefefe"
       d="m 314.81914,95.29664 c -2.38638,0.0792 -7.30499,2.21018 -9.95898,4.55664 -1.71022,1.51206 -8.68177,6.29782 -15.49219,10.63672 -15.56555,9.91678 -19.36031,14.39726 -14.01953,16.55274 1.15654,0.4668 2.65704,0.66674 3.33594,0.44335 0.67889,-0.22338 8.22194,-6.20875 16.76172,-13.30078 20.7309,-17.21638 21.36236,-17.78941 20.56054,-18.59375 -0.22194,-0.22264 -0.63679,-0.3132 -1.1875,-0.29492 z m -90.12695,34.7207 c -1.57904,0.0314 -1.85982,0.49635 -2.16016,1.64844 -0.28262,1.08412 -0.14488,1.74087 0.30664,1.46094 1.15337,-0.71506 16.79247,1.57403 16.29297,2.38476 -0.22506,0.36531 0.59272,0.47295 1.81641,0.23829 1.2237,-0.23466 2.99804,0.023 3.94336,0.57421 4.01133,2.33925 10.131,-0.10937 8.19531,-3.27929 -0.81589,-1.3361 -2.53254,-1.66969 -9.3457,-1.81445 -4.59048,-0.0975 -11.12542,-0.48375 -14.52149,-0.85743 -2.16538,-0.23826 -3.57992,-0.37432 -4.52734,-0.35547 z m 16.93359,6.45899 c -1.3449,0.0257 -1.30906,0.21891 0.25586,1.40625 2.02529,1.53665 4.26172,1.81938 4.26172,0.53906 0,-0.98942 -2.31862,-1.98731 -4.51758,-1.94531 z"
       id="path3356"
       inkscape:connector-curvature="0" />
    <path
       style="fill:#0000fe"
       d="m 275.58086,119.28102 -2.51953,1.62695 c -1.38591,0.89439 -6.10765,2.61609 -10.49219,3.82617 -4.38454,1.21008 -8.8227,2.79817 -9.86328,3.5293 -1.89168,1.32912 -1.89087,1.32833 -0.0215,3.02539 2.42619,2.20253 2.36137,3.74839 -0.23438,5.66797 -4.5025,3.32963 6.24565,0.79845 15.71485,-3.70117 8.86324,-4.21167 9.14953,-4.44062 6.9375,-5.54688 -2.94439,-1.47253 -3.42667,-3.99136 -1.23828,-6.47656 l 1.71679,-1.95117 z"
       id="path3352"
       inkscape:connector-curvature="0" />
    <path
       style="fill:#fefefe"
       d="m 459.58398,133.67773 c -0.31077,0.005 -0.64744,0.0398 -1.00781,0.10743 -3.69029,0.6921 -24.90301,27.72771 -26.46289,33.72656 -1.54597,5.94536 0.3992,5.50371 5.03516,-1.14258 3.91284,-5.6096 15.87506,-18.36293 17.60156,-18.76758 1.52124,-0.35654 7.34174,-7.71502 7.59375,-9.59961 0.32861,-2.45741 -0.33478,-3.90445 -1.90234,-4.24609 -0.26127,-0.0569 -0.54666,-0.083 -0.85743,-0.0781 z"
       id="path2997-1"
       inkscape:connector-curvature="0" />
    <path
       style="fill:#0000fe"
       d="m 460.06055,131.66016 c -0.50166,-10e-4 -1.00275,0.10625 -1.53125,0.3164 -1.71662,0.68252 -1.58482,0.82105 0.95703,1.00586 2.40832,0.17512 3.05844,0.74911 3.55469,3.13281 0.42124,2.02344 0.20534,3.38643 -0.70704,4.44532 -1.06502,1.23611 -0.74225,2.39421 1.69532,6.09179 1.24319,1.88582 2.70534,4.26302 3.90234,6.27344 0,0 1.81821,-14.29954 0.40405,-15.7137 -2.10935,-2.17091 -4.22733,-3.8735 -5.41608,-4.63396 -0.771,-0.49322 -1.68376,-0.78387 -2.35711,-0.88085 -0.16833,-0.0243 -0.33473,-0.0368 -0.50195,-0.0371 z"
       id="path2991-3"
       inkscape:connector-curvature="0"
       sodipodi:nodetypes="ccsscsccscc" />
    <path
       style="fill:#000000"
       d="m 460.57031,130.75781 c -2.29227,-0.22085 -4.62213,1.4234 -7.10547,4.98242 -1.48667,2.13065 -6.90003,9.18491 -12.03125,15.67579 -7.75765,9.81326 -9.44776,12.54988 -10.01953,16.24804 -1.0046,6.49736 1.39584,6.08635 6.67578,-1.14453 5.02057,-6.87566 12.32048,-14.65489 16.69141,-17.78906 1.64283,-1.17799 3.58581,-2.92338 4.31641,-3.88086 1.17809,-1.54397 1.50145,-1.55199 2.85546,-0.0586 0.83969,0.92612 2.88902,4.21309 4.55665,7.30468 0.41834,0.77556 0.90393,1.58809 1.42187,2.39063 l 0,-1.4177 c -1.197,-2.01042 -2.65915,-4.53047 -3.90234,-6.41629 -2.43757,-3.69758 -2.76034,-4.85568 -1.69532,-6.09179 0.91234,-1.0589 1.12824,-2.42188 0.70704,-4.44532 -0.49625,-2.3837 -1.14637,-2.95769 -3.55469,-3.13281 -2.54185,-0.18481 -2.67366,-0.32331 -0.95703,-1.00586 0.6806,-0.27062 1.32873,-0.37545 2.04492,-0.24609 1.66331,0.30041 3.57308,1.47539 7.83792,5.43411 L 468.15241,136.27 c -2.08905,-2.1366 -4.19448,-3.96709 -5.29694,-4.67235 -0.75988,-0.48611 -1.52107,-0.76619 -2.28516,-0.83985 z m -0.98633,2.91992 c 0.31078,-0.005 0.59616,0.0212 0.85743,0.0781 1.56756,0.34164 2.23095,1.78868 1.90234,4.24609 -0.25196,1.8846 -6.07251,9.24307 -7.59375,9.59961 -1.7265,0.40465 -13.68872,13.15798 -17.60156,18.76758 -4.63596,6.64629 -6.58113,7.08794 -5.03516,1.14258 1.55988,-5.99885 22.7726,-33.03446 26.46289,-33.72656 0.36036,-0.0676 0.69704,-0.10255 1.00781,-0.10743 z"
       id="path2989-0"
       inkscape:connector-curvature="0"
       sodipodi:nodetypes="cssssssssccsscsscccsccccssscccc" />
    <path
       inkscape:connector-curvature="0"
       id="path8171"
       d="m 301.45597,120.59018 c -0.41291,-7e-4 -2.03912,-2.56161 -3.61419,-5.69072 -2.92417,-5.81107 -9.38124,-11.61903 -9.241,-8.31201 0.10175,2.39956 -1.21203,1.926 -3.55753,-1.28235 -1.16878,-1.59875 -2.46232,-2.8938 -2.87451,-2.87791 -0.41222,0.0155 -0.76951,-0.44419 -0.79403,-1.02242 -0.0616,-1.45187 10.19573,-1.20072 10.74754,0.26317 0.23814,0.63179 -0.37178,1.34571 -1.3554,1.58649 -1.41574,0.34657 -1.07385,0.81884 1.64083,2.2665 4.28026,2.28254 11.96063,15.07434 9.04792,15.06949 z"
       style="fill:#fe0000" />
  </g>
</svg>
