<?xml version="1.0" encoding="UTF-8" standalone="no"?>
<!-- Created with Inkscape (http://www.inkscape.org/) -->

<svg
   xmlns:dc="http://purl.org/dc/elements/1.1/"
   xmlns:cc="http://creativecommons.org/ns#"
   xmlns:rdf="http://www.w3.org/1999/02/22-rdf-syntax-ns#"
   xmlns:svg="http://www.w3.org/2000/svg"
   xmlns="http://www.w3.org/2000/svg"
   xmlns:sodipodi="http://sodipodi.sourceforge.net/DTD/sodipodi-0.dtd"
   xmlns:inkscape="http://www.inkscape.org/namespaces/inkscape"
   version="1.1"
   width="583"
   height="305"
   id="svg2"
   inkscape:version="0.91 r13725"
   sodipodi:docname="ub240301.svg">
  <sodipodi:namedview
     pagecolor="#c4c4c4"
     bordercolor="#666666"
     borderopacity="1"
     objecttolerance="10"
     gridtolerance="10"
     guidetolerance="10"
     inkscape:pageopacity="0"
     inkscape:pageshadow="2"
     inkscape:window-width="1394"
     inkscape:window-height="847"
     id="namedview11"
     showgrid="false"
     inkscape:zoom="0.73985444"
     inkscape:cx="245.47112"
     inkscape:cy="102.11109"
     inkscape:window-x="0"
     inkscape:window-y="0"
     inkscape:window-maximized="0"
     inkscape:current-layer="svg2" />
  <metadata
     id="metadata8">
    <rdf:RDF>
      <cc:Work
         rdf:about="">
        <dc:format>image/svg+xml</dc:format>
        <dc:type
           rdf:resource="http://purl.org/dc/dcmitype/StillImage" />
        <dc:title></dc:title>
      </cc:Work>
    </rdf:RDF>
  </metadata>
  <defs
     id="defs6" />
  <g
     id="g2987"
     transform="translate(-21.12446,3.2066438)">
    <path
       d="m 235.52455,252.25 c -1.50225,-3.05189 -1.99263,-7.43921 -2.63415,-23.56717 -0.75042,-18.8654 -0.68982,-20.00606 1.26163,-23.75 C 235.27948,202.76977 236.6065,201 237.10097,201 237.61122,201 238,212.89228 238,228.5 c 0,15.125 -0.14165,27.5 -0.31479,27.5 -0.17313,0 -1.14543,-1.6875 -2.16066,-3.75 z m -67.3566,-28.77537 c -1.83263,-0.79589 -9.25763,-7.03845 -16.5,-13.87235 -12.55657,-11.84836 -13.16428,-12.60348 -13.08886,-16.26377 0.12327,-5.98273 0.2749,-6.33851 2.7014,-6.33851 1.75152,0 4.40452,2.84141 11.4377,12.25 5.03646,6.7375 11.88525,14.93591 15.21951,18.2187 7.81268,7.69205 7.87533,9.32613 0.23025,6.00593 z m 68.18794,-44.98957 c -0.31973,-0.83322 -0.34786,-2.40778 -0.0625,-3.49901 0.28536,-1.09123 0.11109,-2.23606 -0.38728,-2.54407 -1.41589,-0.87507 -1.06308,-5.06683 0.53832,-6.39587 1.23765,-1.02716 1.44445,-0.11408 1.44445,6.37755 0,7.47256 -0.39387,9.02991 -1.533,6.0614 z M 241.38735,160.25 c 0.13171,-17.51309 0.058,-18.25 -1.82505,-18.25 -1.34973,0 -1.63989,-0.32241 -0.92952,-1.03278 0.56803,-0.56803 1.78303,-0.74489 2.7,-0.39301 1.37753,0.5286 1.66846,2.14154 1.67433,9.28278 0.004,4.75365 0.17002,11.56801 0.36914,15.14301 0.23595,4.23627 0.15824,4.9328 -0.22313,2 -0.53819,-4.13872 -0.63807,-3.85772 -1.2441,3.5 -0.44554,5.40934 -0.61448,2.09007 -0.52167,-10.25 z m -117.1605,7.5 c -0.55992,-0.6875 -1.69921,-2.89478 -2.53176,-4.90508 -0.83254,-2.01029 -4.25452,-6.99448 -7.6044,-11.07597 C 108.55522,145.02454 106.5989,141 108.85591,141 c 0.47075,0 4.59356,4.3875 9.16179,9.75 4.56824,5.3625 9.19928,10.55074 10.29121,11.52942 1.66809,1.49509 1.80545,2.17418 0.85964,4.25 -1.22209,2.68219 -3.32774,3.20228 -4.9417,1.22058 z m 0.92392,-9.90796 c -1.9786,-2.44079 -2.14304,-3.14643 -1.04234,-4.47269 1.17266,-1.41297 1.49095,-1.34737 3.09922,0.63876 1.83793,2.26975 2.37851,5.53855 1.04235,6.30289 -0.4125,0.23597 -1.80715,-0.87506 -3.09923,-2.46896 z M 319,146.89964 c -1.925,-0.4926 -6.03724,-0.63318 -9.13831,-0.31241 -3.41655,0.3534 -5.88818,0.17893 -6.27241,-0.44277 -0.41298,-0.66821 0.6814,-0.82293 3.13831,-0.44368 2.07483,0.32026 3.46608,0.24978 3.09169,-0.15663 -0.3744,-0.40641 -3.27965,-0.85404 -6.45611,-0.99473 -6.68405,-0.29605 -9.03929,-2.30187 -6.12492,-5.21624 1.6058,-1.6058 2.18305,-1.55176 9.98305,0.93462 4.55329,1.45144 10.85788,3.36446 14.01022,4.25117 3.15233,0.88671 5.99139,2.03269 6.30901,2.54662 0.70403,1.13914 -3.781,1.052 -8.54053,-0.16595 z m 50.39356,-8.30278 c -4.45855,-4.48925 -9.17279,-8.8703 -10.47609,-9.73566 -2.1368,-1.41878 -2.24821,-1.83989 -1.13388,-4.28558 1.69039,-3.71 5.18207,-3.14534 7.34669,1.18809 0.89665,1.79504 4.03606,6.15152 6.97648,9.68107 4.70659,5.6496 7.95319,11.77899 6.05676,11.43479 -0.36494,-0.0662 -4.31142,-3.79345 -8.76996,-8.28271 z M 522,143.18983 c 0,-0.58028 0.9,-1.3407 2,-1.68983 1.86424,-0.59169 2.01244,-1.59748 2.18331,-14.81739 C 526.49616,102.47725 526.54028,102 528.46482,102 c 3.58213,0 4.57842,7.35221 1.90254,14.0399 -1.27992,3.19883 -1.48981,5.84974 -0.9715,12.27023 0.85407,10.57992 0.0549,14.96772 -2.57406,14.13331 -1.05478,-0.33477 -2.57118,-0.0664 -3.36979,0.59639 -0.92373,0.76663 -1.45201,0.82121 -1.45201,0.15 z M 103,141 c 0,-0.55 0.51303,-1 1.14008,-1 0.62704,0 5.46454,-4.21864 10.75,-9.37475 C 127.12429,118.69043 131,116.62009 131,122.01959 c 0,2.2167 -0.27634,2.46735 -9.5,8.61657 -3.85,2.56672 -8.7685,6.1736 -10.93,8.0153 -3.79839,3.2364 -7.57,4.40652 -7.57,2.34854 z m 314,0.0376 c 0,-0.25433 1.2031,-1.42175 2.67356,-2.59425 l 2.67356,-2.13183 -1.65822,-8.26751 c -1.59252,-7.93998 -1.5841,-8.36174 0.21247,-10.64571 l 1.87069,-2.3782 0.59528,5.23997 C 425.62335,140.11875 425.40895,141.5 420.07034,141.5 418.38165,141.5 417,141.2919 417,141.03756 Z m 47.371,-15.80111 c 0.17752,-8.94495 0.5172,-16.45798 0.75484,-16.69563 0.23765,-0.23764 1.043,-0.0545 1.78967,0.40696 1.95968,1.21115 2.43193,9.13017 1.19581,20.05222 -1.01514,8.96953 -0.96483,9.58376 0.90105,11 1.87718,1.42482 1.80231,1.5 -1.49395,1.5 l -3.47018,0 z m -197.13082,0.78597 c -9.56661,-7.26313 -21.73828,-15.19524 -29.007,-18.90346 -6.07814,-3.10084 -5.49969,-4.50765 1.49415,-3.63382 6.08667,0.76048 11.78482,3.31186 24.90949,11.15339 4.47526,2.67381 9.5105,5.6124 11.18944,6.5302 2.21161,1.20899 3.23829,2.65841 3.72653,5.26097 0.62493,3.33118 -0.58778,6.5703 -2.45989,6.5703 -0.36422,0 -4.79794,-3.13991 -9.85272,-6.97758 z m 132.7528,4.46912 c -2.30703,-2.7798 0.0712,-9.94027 8.54498,-25.72779 2.65465,-4.945874 5.6241,-7.299274 8.04018,-6.372138 3.08894,1.185336 1.17396,5.360988 -5.89046,12.844298 -5.14112,5.44596 -8.87736,13.56569 -8.07899,17.55756 0.69008,3.45039 -0.51315,4.2315 -2.61571,1.69807 z m -33.04571,-3.13023 c -0.55177,-1.45128 -0.74405,-2.89786 -0.42728,-3.21463 1.03148,-1.03149 3.97182,1.50256 4.29956,3.70545 0.46757,3.14278 -2.64057,2.74882 -3.87228,-0.49082 z M 119.45272,122.9235 C 118.53097,121.43208 121.5715,119 124.3578,119 c 1.08654,0 1.78803,0.1125 1.55887,0.25 -0.22917,0.1375 -1.6067,1.29634 -3.06117,2.57521 -1.94137,1.70696 -2.84612,1.99898 -3.40278,1.09829 z M 493,117.43501 c -13.01192,-6.83995 -13.59296,-7.37811 -12.41018,-11.49429 l 0.91018,-3.1675 7.39151,6.62866 c 4.06533,3.64577 9.57859,7.63201 12.25169,8.85832 4.45601,2.04423 5.67177,3.66973 3.2943,4.40456 -0.51563,0.15937 -5.6625,-2.19401 -11.4375,-5.22975 z m -22.82267,-1.08826 c 0.26721,-2.30436 0.9766,-2.93636 4.12712,-3.67692 4.58521,-1.07779 5.3676,-0.48822 4.11351,3.09968 -0.78029,2.23241 -1.64838,2.7879 -4.75884,3.04519 -3.63336,0.30054 -3.78994,0.18955 -3.48179,-2.46795 z M 416.7329,116.25 c -1.94655,-2.15999 -3.01285,-6.36838 -1.99285,-7.86522 1.41753,-2.08021 4.96942,-2.53245 6.65458,-0.8473 2.00437,2.00438 2.02293,3.75436 0.0797,7.51218 -1.76437,3.41191 -2.56559,3.61475 -4.74142,1.20034 z m 114.82394,-0.5 c 0.95621,-3.11081 1.40605,-3.4227 2.48222,-1.72104 1.52638,2.41356 1.09243,3.97104 -1.10645,3.97104 -1.68221,0 -1.93853,-0.4192 -1.37577,-2.25 z M 148.2,111.8 c -2.53094,-2.53094 -0.9586,-5.47344 7.73418,-14.473837 l 8.8603,-9.173837 2.10276,2.238288 C 168.05376,91.621673 169,93.24083 169,93.988741 c 0,1.494082 -13.30075,15.782979 -16.5,17.725819 -2.53375,1.5387 -2.84064,1.5448 -4.3,0.0854 z m 189.76762,-6.99957 C 329.87827,92.316439 316.46031,74.243882 313.1273,71.343171 c -4.41186,-3.839629 -3.64736,-5.028683 2.18355,-3.39613 3.60641,1.009733 5.2636,2.385354 9.50257,7.88799 2.8239,3.665733 8.74611,11.294004 13.16047,16.951712 8.17668,10.479727 8.81399,11.872577 6.99093,15.278997 -1.65848,3.09889 -3.39993,2.28622 -6.9972,-3.26531 z M 168.54919,89.76677 c -1.50801,-2.152986 -1.33172,-2.465724 4.90626,-8.703703 3.55876,-3.558761 6.76275,-6.178197 7.11998,-5.820968 1.2358,1.235793 -2.61352,10.201986 -5.78434,13.473443 -3.77272,3.892454 -4.20127,3.964629 -6.2419,1.051228 z M 166.69865,84.75 c 4.5127,-5.978401 8.69476,-10.75 9.42181,-10.75 2.09732,0 0.5364,2.913159 -3.90481,7.287592 -4.38805,4.322067 -7.76622,6.442174 -5.517,3.462408 z M 406,84.668198 c 0,-0.986003 -8.02665,-42.76951 -9.08132,-47.273711 -2.58412,-11.036035 1.79792,-16.778743 6.21475,-8.144487 3.32451,6.498944 13.72859,41.301404 14.39938,48.167097 0.57529,5.888141 0.54677,5.986849 -0.89081,3.082903 -0.81682,-1.65 -4.02081,-11.1 -7.11997,-21 -8.23218,-26.296967 -8.6894,-27.66596 -9.10219,-27.253169 -0.20702,0.207017 2.80695,10.422684 6.6977,22.701481 6.34019,20.008941 6.93815,22.579121 5.76364,24.773701 C 411.79356,81.754261 406,85.918661 406,84.668198 Z m 56,-10.952279 0,-7.380357 3.5,-1.07418 3.5,-1.074181 0,5.055381 c 0,4.463452 -0.40981,5.453383 -3.5,8.454537 l -3.5,3.399156 z m 64.55182,5.945634 c -1.76685,-1.291953 -1.77314,-2.325378 -0.18122,-29.75 0.90706,-15.626354 1.64475,-29.424053 1.6393,-30.661553 -0.0166,-3.77503 1.66393,-2.516802 3.33912,2.5 2.36995,7.097477 3.18412,51.87401 1.02203,56.208025 -1.66415,3.335875 -3.03717,3.737815 -5.81923,1.703528 z m -53.28871,-2.973705 c -2.95638,-1.998244 -3.23803,-2.642825 -3.25,-7.437848 -0.0109,-4.344102 0.28886,-5.247358 1.73689,-5.234687 3.16925,0.02773 3.94458,1.406987 4.62903,8.234687 0.37217,3.7125 0.55164,6.722031 0.39882,6.687848 -0.15282,-0.03418 -1.73445,-1.046684 -3.51474,-2.25 z M 461.92543,54.25 c -0.041,-5.3625 -0.27663,-14.074535 -0.52359,-19.360077 -0.38287,-8.194193 -0.18405,-9.937312 1.34946,-11.831124 1.59754,-1.972873 2.10085,-2.083288 4.50438,-0.988166 3.86265,1.759944 4.19379,2.924569 6.23509,21.929367 2.0157,18.766461 2.07918,18 -1.49077,18 -2.94146,0 -3.00168,-0.102438 -3.08597,-5.25 -0.0473,-2.8875 -0.70278,-9.3 -1.45667,-14.25 -0.9276,-6.090671 -1.2174,-7.060447 -0.89648,-3 1.90633,24.119991 1.93411,23.135959 -0.67276,23.833594 -1.31346,0.351503 -2.72562,0.645241 -3.13812,0.652751 -0.4125,0.0075 -0.78356,-4.373845 -0.82457,-9.736345 z"
       id="path2997"
       style="fill:#fefefe"
       inkscape:connector-curvature="0"
       sodipodi:nodetypes="sssssssssssssscssssccsssscssssssssssssssssssssssssssssssssscssssssssssssssssscscsscssccscsssscssssssssssssssssssssscsssscssssssssscsssccsssscscsssccssssssssssssssssssssssssssccccssccssssssscsscssssssssssscs" />
    <path
       d="m 179,148.45616 c 0,-3.76806 0.29792,-4.49367 1.74497,-4.25 1.4786,0.24899 1.87093,-0.88433 2.57017,-7.42451 0.73816,-6.90425 0.54367,-8.64133 -1.84391,-16.46897 -2.93447,-9.62063 -9.00028,-22.399579 -13.84677,-29.171244 -1.85323,-2.589397 -5.0485,-5.3361 -7.87194,-6.766846 C 157.13863,83.050035 155,81.523889 155,80.983154 c 0,-1.361341 0.15472,-1.314795 5.42968,1.633432 8.19812,4.58202 17.67177,20.091334 23.05693,37.746514 2.46724,8.0888 2.60906,9.46202 1.75256,16.96896 -0.65076,5.70359 -0.60644,8.37994 0.14689,8.87061 C 186.47085,146.90923 181.47701,153 179.81291,153 179.36581,153 179,150.95527 179,148.45616 Z m 94,-61.885446 c 0,-1.380481 8.60695,-12.800767 12.68412,-16.830159 8.67425,-8.572597 20.61557,-15.785381 28.59191,-17.270053 3.09956,-0.576937 3.56669,-0.955087 2.6075,-2.110842 -0.64269,-0.774396 -0.93512,-1.641404 -0.64984,-1.926686 C 316.89678,47.76989 324,51.127169 324,52.103653 324,52.897345 317.73667,57 316.52498,57 316.11855,57 316.05873,56.289342 316.39203,55.420759 317.25122,53.181752 312.21532,54.385917 304.5,58.264336 293.31816,63.885341 283.9167,72.153825 278.36476,81.25 276.4345,84.4125 274.43777,87 273.9276,87 273.41742,87 273,86.806821 273,86.570714 Z m 213.75,-2.26004 c -2.28505,-0.597145 -2.2735,-0.63333 1.36322,-4.270046 2.68282,-2.682819 3.27037,-2.903406 4.25,-1.59558 1.44645,1.931055 3.29048,0.782897 4.13282,-2.573237 0.52046,-2.073703 0.10987,-3.03664 -2.00371,-4.699186 -3.91675,-3.080916 -12.10874,-5.83389 -19.49233,-6.550532 -5.62251,-0.545714 -7.30999,-0.282242 -12.5,1.95166 -7.74616,3.334129 -9.50576,3.852837 -9.4742,2.792878 0.0285,-0.957334 5.05116,-3.425076 11.9742,-5.883185 8.32444,-2.955692 22.79595,0.117488 30.17075,6.407081 3.30939,2.82241 3.8725,3.82777 3.36069,6 -0.33816,1.43521 -1.83358,3.619738 -3.32314,4.854506 -1.48957,1.234768 -2.1458,2.247268 -1.4583,2.25 C 494.4375,82.997765 495,83.45 495,84 c 0,0.995856 -4.91921,1.181101 -8.25,0.310674 z"
       id="path2993"
       style="fill:#fe0000"
       inkscape:connector-curvature="0" />
    <path
       d="m 241.17553,193 c -0.0746,-9.43469 0.2125,-13.94023 0.82197,-12.8976 0.56775,0.97126 0.61293,6.68242 0.11472,14.5 L 241.29025,207.5 Z m -8.51473,7.5419 c -0.96563,-7.04504 -0.8123,-12.733 0.49605,-18.40107 l 1.15685,-5.01174 1.84315,2.34318 c 2.48452,3.15855 2.74122,19.96913 0.31913,20.89858 -0.83822,0.32165 -1.89086,1.57645 -2.33921,2.78845 -0.67389,1.82171 -0.92971,1.36806 -1.47597,-2.6174 z m -97.5794,-9.84135 c -1.18299,-2.9147 -4.16026,-7.74901 -6.61615,-10.74291 -2.45589,-2.9939 -4.47139,-5.89665 -4.4789,-6.45055 -0.008,-0.5539 -0.31055,-2.13209 -0.67342,-3.50709 -0.59048,-2.23746 -0.48536,-2.35698 1.00092,-1.13812 2.286,1.87468 4.51733,0.76924 6.11446,-3.02921 l 1.34466,-3.19801 1.94948,3.93267 c 1.07222,2.16297 2.98174,6.75473 4.24339,10.20392 1.26165,3.44918 2.68546,6.51324 3.16403,6.80901 1.38966,0.85886 1.00605,2.41974 -0.59469,2.41974 -2.17202,0 -3.75872,3.70577 -3.0223,7.05865 0.99232,4.51799 -0.0516,3.50559 -2.43148,-2.3581 z m 155.31947,-46.49247 c -1.70452,-0.93944 -5.28446,-3.5955 -7.95543,-5.90235 -4.76352,-4.11414 -4.82135,-4.23287 -3.02759,-6.21496 1.1689,-1.29162 1.6514,-2.9482 1.33728,-4.59139 -0.44008,-2.30214 -0.32237,-2.42174 1.12672,-1.14488 0.88998,0.7842 5.66815,3.47747 10.61815,5.98504 4.95,2.50758 8.28224,4.58201 7.40499,4.60985 -0.87726,0.0278 -2.43228,0.97578 -3.45561,2.10655 -1.53242,1.6933 -1.64795,2.39645 -0.65499,3.98643 0.66308,1.06177 1.20561,2.1616 1.20561,2.44406 0,1.06616 -3.61632,0.36563 -6.59913,-1.27835 z M 130.4433,125.77749 c 1.97582,-2.82088 1.96844,-4.66504 -0.0275,-6.87053 -1.78699,-1.9746 -2.47834,-1.36696 9.3342,-8.20407 5.35007,-3.09662 6.25,-3.35799 6.25,-1.81518 0,2.36623 3.52736,5.52243 5.0915,4.55574 0.78115,-0.48278 0.95921,-0.33452 0.49681,0.41366 -1.23386,1.99643 -19.94549,14.06308 -21.89501,14.11953 -0.44369,0.0129 -0.10619,-0.97677 0.75,-2.19915 z m 222.29423,-3.34382 c -1.3857,-2.16352 -4.12266,-5.46422 -6.08212,-7.33489 l -3.56267,-3.40122 1.95363,-2.48364 c 1.0745,-1.366 1.95363,-3.33054 1.95363,-4.36565 0,-1.50788 1.31888,-0.84554 6.63448,3.33183 9.15962,7.19826 12.40016,12.8199 7.38991,12.8199 -1.02167,0 -2.73729,1.20765 -3.81249,2.68367 l -1.95492,2.68367 z M 466,99.625727 C 466,94.738129 465.37547,89.481336 464.5,87 c -1.92868,-5.46645 -1.95507,-5.272205 1.13636,-8.363636 3.1778,-3.177802 4.65515,-3.277045 8.45927,-0.56827 2.49228,1.774663 2.90659,2.732386 2.91999,6.75 0.009,2.575048 0.66756,7.381906 1.46438,10.681906 2.14661,8.89014 2.05129,9.69919 -0.98,8.31805 -1.375,-0.6265 -2.5,-1.74185 -2.5,-2.47857 C 475,100.60277 474.14886,100 473.10858,100 c -1.27324,0 -2.41451,1.30733 -3.4919,4 C 467.11672,110.248 466,108.89736 466,99.625727 Z m -49,5.646423 c 0,-0.16461 0.55922,-1.19474 1.24271,-2.28917 0.91966,-1.47263 0.95679,-2.4439 0.14281,-3.736436 -1.78423,-2.833236 -4.18617,-2.599741 -7.51661,0.730699 l -3.12505,3.125057 0.50028,-5.801151 c 0.33212,-3.851076 0.037,-6.712688 -0.87779,-8.512827 -1.27241,-2.503763 -1.20511,-2.798514 0.87779,-3.844203 1.24072,-0.622889 3.24504,-2.305772 4.45403,-3.739742 l 2.19817,-2.607217 1.13504,2.95142 c 0.92294,2.399917 4.96862,21.5226 4.96862,23.48515 0,0.29574 -0.9,0.5377 -2,0.5377 -1.1,0 -2,-0.13468 -2,-0.29928 z M 524.35026,96.846375 C 524.70762,91.811882 525,85.971529 525,83.867814 c 0,-3.704792 0.0776,-3.789581 2.47039,-2.699353 C 530.1844,82.40505 533,80.983963 533,78.377555 533,77.6199 533.413,77 533.91777,77 c 0.90205,0 0.46844,21.043107 -0.53357,25.89378 l -0.49448,2.39379 -1.50156,-2.14379 c -2.00135,-2.85732 -4.2222,-2.7105 -5.38816,0.35622 -1.77253,4.66212 -2.30152,2.52865 -1.64974,-6.653625 z"
       id="path2991"
       style="fill:#0000fe"
       inkscape:connector-curvature="0"
       sodipodi:nodetypes="ssscssscsssssscssscsssssssssssscsssssssssscssscssssscssssscsssssssssscscsscsssssssssscsss" />
    <path
       style="fill:#000000"
       d="m 459.21289,7.0273438 c -0.62009,-0.030173 -1.28395,0.1528541 -1.96289,0.578125 -2.10508,1.3185765 -2.89337,7.9141132 -1.19141,9.9648432 C 456.71142,18.35693 458.03469,19 459,19 c 2.71352,0 4.1599,-2.493916 3.81445,-6.578125 -0.27727,-3.2780558 -1.74128,-5.3040116 -3.60156,-5.3945312 z m -8.99414,0.087891 c -3.67344,0.1575722 -5.53258,5.5605582 -3.15039,10.0117182 1.27287,2.378373 4.7262,2.172276 6.32422,-0.376953 1.46606,-2.33872 -0.41151,-5.278818 -3.30078,-5.167969 -1.18055,0.04529 -1.97243,-0.404707 -1.75977,-1 0.21267,-0.5952917 1.60515,-0.9932618 3.09375,-0.884765 3.36702,0.2454059 2.9641,-2.045507 -0.44726,-2.5429687 -0.26029,-0.037957 -0.51487,-0.049567 -0.75977,-0.039063 z m 17.16602,0.035156 c -1.76915,-0.042367 -2.84708,2.2011176 -1.99415,4.4238282 C 466.34436,14.059618 469.5,12.850627 469.5,10 c 0,-1.5614366 -0.64689,-2.5973538 -1.75391,-2.8105469 -0.12371,-0.023826 -0.24338,-0.036238 -0.36132,-0.039062 z m -26.01954,0.019531 c -1.30224,0.00587 -2.69608,0.5247838 -3.32226,1.2792969 -1.12839,1.3596226 -0.90264,1.473498 1.83594,0.9257812 C 441.8948,8.9718229 443,9.1485689 443,9.875 443,10.49375 442.325,11 441.5,11 c -1.99226,0 -1.89638,0.986497 0.25,2.572266 1.36969,1.011947 1.48815,1.55884 0.54297,2.517578 -0.95267,0.966336 -1.53957,0.951426 -2.77539,-0.07422 -2.01134,-1.669262 -3.19836,-0.540755 -1.53711,1.460937 1.53418,1.848568 4.39521,1.980006 5.81641,0.267579 0.57338,-0.690895 0.96654,-3.278395 0.87304,-5.75 -0.15278,-4.0364688 -0.43341,-4.5249534 -2.75586,-4.7949222 -0.17981,-0.020902 -0.36279,-0.030135 -0.54883,-0.029296 z m 26.10157,1.2910156 c 0.0603,0.022461 0.12596,0.1171875 0.19531,0.2890625 0.27741,0.6875 0.27741,1.8125001 0,2.5000001 -0.27741,0.6875 -0.50391,0.125 -0.50391,-1.2500001 0,-1.03125 0.12773,-1.6064453 0.3086,-1.5390625 z M 459,9.5 c 1.04065,0 1.5,1.045645 1.5,3.416016 0,3.545714 -2.06383,5.383452 -3.07812,2.740234 C 456.46216,13.155286 457.39897,9.5 459,9.5 Z m -8.91406,3.728516 c 0.27913,-0.0114 0.56142,0.05317 0.82617,0.216796 0.59792,0.369538 1.08789,1.320741 1.08789,2.113282 0,1.68362 -2.57448,1.939536 -3.55469,0.353515 -0.70905,-1.147267 0.43104,-2.634206 1.64063,-2.683593 z m 79.0664,2.628906 c -1.59107,0.213987 -2.34827,9.088219 -3.51562,31.142578 -2.67794,50.593417 -2.85248,57.73231 -1.47852,60.23438 0.87443,1.59242 1.16132,6.72017 0.9668,17.26562 -0.25479,13.81284 -0.44209,15.12796 -2.35156,16.61719 -1.96,1.52864 -1.98318,1.74638 -0.42383,3.97265 C 523.84535,147.22531 524,154.144 524,219.22266 L 524,291 l -27.5,0 -27.5,0 0,-22.5 0,-22.5 9,0 c 5.33333,0 9,-0.40741 9,-1 0,-0.59288 -3.67819,-1 -9.03516,-1 l -9.03515,0 0.28515,-50.03711 c 0.24622,-43.15867 0.49136,-50.17139 1.78516,-51.01953 1.28358,-0.84144 1.18033,-1.25361 -0.71875,-2.84961 -2.12416,-1.78516 -2.17828,-2.22245 -1.25781,-10.22852 0.52893,-4.60052 0.96475,-8.70273 0.96875,-9.11523 0.004,-0.4125 1.55735,-0.75 3.45117,-0.75 3.83461,0 6.55664,-2.79546 6.55664,-6.73438 l 0,-2.29101 3.81641,2.4082 c 2.09852,1.32474 7.53463,4.28002 12.08203,6.56641 6.55106,3.29381 8.5632,3.91388 9.68554,2.98242 2.30641,-1.91415 1.70062,-2.73851 -3.99218,-5.43164 -7.40394,-3.50262 -19.72582,-14.60924 -21.42383,-19.310547 -0.7329,-2.029184 -1.77217,-10.203066 -2.30859,-18.164062 -0.53643,-7.960996 -1.23712,-14.710996 -1.55665,-15 -0.31955,-0.289004 -0.28954,2.74467 0.0664,6.740234 l 0.64844,7.263672 -3.4961,-2.263672 C 470.28209,74.667171 470.01099,74.096341 469.82812,69 l -0.19726,-5.5 -0.375,5.457031 c -0.31958,4.657083 -0.87805,5.945082 -3.81445,8.796875 L 462,81.095703 461.80664,73.798828 461.61523,66.5 l -0.35742,6.34375 c -0.25745,4.568859 0.23582,8.131443 1.76563,12.728516 1.74021,5.229333 2.03516,7.969941 1.63281,15.156254 -1.43436,25.61887 -1.56957,40.6713 -0.37891,42.10546 0.93284,1.12362 1.28812,18.8382 1.49805,74.81836 L 466.05078,291 443.52539,291 421,291 l 0,-22.5 0,-22.5 13,0 c 8,0 13,-0.38462 13,-1 0,-0.61552 -5.01152,-1 -13.03516,-1 l -13.03515,0 0.28515,-49.75 0.28516,-49.75 2.37891,-3.16992 c 2.36911,-3.15693 2.37389,-3.2142 1.13281,-14.5 -0.68531,-6.2318 -1.38405,-12.90508 -1.55274,-14.83008 -0.16869,-1.925 -1.23861,-7.775 -2.37695,-13 -1.13835,-5.225 -2.2744,-13.55 -2.52344,-18.5 -0.37117,-7.377452 -1.52673,-12.465129 -6.41406,-28.220703 C 405.24649,30.041652 402.6274,24.5 399.01758,24.5 c -3.51177,0 -4.77203,4.932405 -3.16211,12.375 0.66946,3.094076 2.99522,14.995499 5.16797,26.449219 2.17274,11.453719 4.20808,21.243638 4.52344,21.753906 0.79803,1.291246 4.47567,-0.7006 7.15039,-3.873047 l 2.19921,-2.607422 1.13477,2.951172 C 416.95419,83.948745 421,103.07065 421,105.0332 c 0,0.29574 -0.9,0.53907 -2,0.53907 -2.35627,0 -2.36239,-0.0205 -0.75781,-2.58985 0.91966,-1.47263 0.95656,-2.44379 0.14258,-3.736326 -1.78649,-2.836828 -4.18696,-2.598195 -7.53321,0.748047 l -3.14258,3.142579 0.53321,-5.876954 c 0.37757,-4.163926 0.10847,-6.588205 -0.92383,-8.31836 -0.98447,-1.649993 -1.23167,-1.792907 -0.76367,-0.441406 0.38091,1.1 0.75197,5.375 0.82617,9.5 0.11135,6.18959 -0.2546,8.11212 -2.09375,11.00391 C 402.23159,113.80828 398,124.44772 398,127.32422 c 0,2.76714 3.35047,6.19474 5.03711,5.15234 0.70342,-0.43474 0.92792,-1.90142 0.56641,-3.70898 -0.59595,-2.97974 2.09004,-10.8425 4.13671,-12.10742 0.53238,-0.32903 2.00404,0.50451 3.26954,1.85156 1.61841,1.72272 2.96805,2.28005 4.55078,1.88281 2.53995,-0.63749 2.66284,-0.38253 4.53125,9.44922 1.20441,6.33774 1.20214,6.34551 -1.54883,8.53906 -2.59513,2.06928 -2.6905,2.42393 -1.6543,6.15625 0.75174,2.70773 1.10147,26.49655 1.10547,75.21094 L 418,291 l -18,0 -18,0 0,-22.5 0,-22.5 10.5,0 c 6.33333,0 10.5,-0.39683 10.5,-1 0,-0.60343 -4.18101,-1 -10.54297,-1 l -10.54297,0 0.29297,-51 c 0.28964,-50.42644 0.27046,-51.00028 -1.70703,-51.01758 -1.17423,-0.0103 -3.80691,-2.17816 -6.37695,-5.25 -3.7635,-4.49831 -4.11411,-5.28238 -2.5,-5.58984 3.60003,-0.68574 4.58177,-2.31475 3.96679,-6.58594 -0.32118,-2.23067 -0.60586,-4.95664 -0.63086,-6.05664 -0.0483,-2.12518 -3.94671,-8.48264 -5.20898,-8.49414 -1.20733,-0.011 -0.88738,0.88749 1.42969,4.02148 1.19843,1.62097 1.98593,3.1151 1.75,3.32032 -0.23594,0.20523 -2.22969,0.64873 -4.42969,0.98437 -3.64381,0.55591 -4.14559,0.35518 -5.64258,-2.25586 -0.90384,-1.57645 -5.17884,-5.62074 -9.5,-8.98633 -7.38105,-5.74882 -10.76335,-9.593891 -27.89648,-31.718746 -4.67386,-6.03559 -6.21345,-7.321788 -10.04492,-8.394532 -3.57969,-1.002251 -4.77516,-1.009829 -5.72071,-0.03711 -0.93364,0.960476 -0.41936,1.921812 2.34766,4.394531 3.55994,3.181298 11.93118,14.299035 21.96289,29.166017 5.1181,7.585 11.4722,15.22199 20.20508,24.23242 l -1.47266,-2.29883 c -1.3857,-2.16352 -4.12257,-5.46331 -6.08203,-7.33398 l -3.56445,-3.40234 1.95508,-2.48243 c 1.0745,-1.366 1.95312,-3.33207 1.95312,-4.36718 0,-1.50788 1.31917,-0.84534 6.63477,3.33203 9.15962,7.19826 12.39892,12.82031 7.38867,12.82031 -1.02167,0 -2.7373,1.20757 -3.8125,2.68359 l -1.71875,2.36133 c 4.06983,4.15108 8.5917,8.56749 13.80664,13.45508 l 9.60156,9 0.0508,71.25 L 379,291 l -24,0 -24,0 0,-22.5 0,-22.5 8.5,0 c 5,0 8.5,-0.41176 8.5,-1 0,-0.5887 -3.51693,-1 -8.55078,-1 l -8.55078,0 0.30078,-51 0.30078,-51 -2.25,0 c -1.34568,2.6e-4 -2.25,0.61102 -2.25,1.51953 0,1.61805 -1.88542,1.40437 -8.97852,-1.01758 -2.72049,-0.92892 -3.6192,-1.87874 -4.12695,-4.36133 -0.80312,-3.92683 0.45266,-4.90929 2.51367,-1.96679 0.84998,1.21352 1.86964,1.88232 2.26563,1.48633 0.39598,-0.39598 -0.47701,-1.91647 -1.93945,-3.37891 -2.27634,-2.27634 -2.98856,-2.49952 -4.94727,-1.54102 -7.74032,3.78776 -8.97209,3.68879 -19.45508,-1.58593 -5.40775,-2.72101 -10.95703,-6.16424 -12.33203,-7.65039 -1.375,-1.48615 -4.6524,-3.79762 -7.2832,-5.13672 -2.6308,-1.33909 -7.1308,-3.93354 -10,-5.76563 -2.8692,-1.83208 -7.92777,-4.69605 -11.24024,-6.36523 -6.88612,-3.46996 -16.76298,-5.20082 -18.02539,-3.15821 -0.94043,1.52165 -0.36679,1.95462 13.54883,10.25391 10.97486,6.54542 24.25752,16.24005 34.58008,25.23828 8.29337,7.22936 12.23545,9.03774 16.47851,7.5586 2.72233,-0.94901 3.57533,-0.86551 5.08203,0.49804 1.36792,1.23794 2.97638,1.50101 6.58399,1.07617 2.62597,-0.30923 7.81289,-0.0528 11.52539,0.57032 l 6.75,1.13281 0,70.79687 0,70.79688 -43.5,0 -43.5,0 0,-22.5 0,-22.5 16,0 c 10,0 16,-0.375 16,-1 0,-0.62533 -6.04355,-1 -16.12891,-1 l -16.12695,0 0.68555,-15.25 c 0.37718,-8.3875 1.11545,-22.3704 1.64062,-31.07422 0.52517,-8.70381 0.63574,-16.34221 0.2461,-16.97266 -0.92568,-1.49778 -0.50814,-6.76698 0.64648,-8.1582 0.50895,-0.61326 0.64708,-7.75923 0.31641,-16.36328 -0.52536,-13.66963 -0.78655,-15.38391 -2.4961,-16.29883 -1.3475,-0.72116 -2.32818,-0.67557 -3.32812,0.1543 -1.12091,0.93027 -1.28643,3.03199 -0.78906,10.03906 l 0.6289,8.86133 -2.76953,1.05273 c -3.79353,1.4423 -6.34693,-0.42567 -4.05078,-2.96289 C 233.2106,155.10909 233.48585,153 232,153 c -0.55,0 -1,0.6535 -1,1.45117 0,0.79767 -0.72578,1.85488 -1.61328,2.35156 -1.39282,0.77946 -1.43183,1.23216 -0.2793,3.30079 0.7344,1.31815 1.36178,4.27577 1.39258,6.57226 0.0339,2.53269 0.75535,4.94875 1.83398,6.14063 1.6577,1.83174 1.67488,2.36423 0.25196,7.85547 -1.25423,4.84023 -1.4429,10.87746 -1.05274,33.85937 0.53827,31.70563 0.7053,33.31973 4.04297,39.34375 2.28916,4.13163 2.42383,5.29017 2.42383,20.75 l 0,16.375 -34.51953,0 -34.51953,0 0.53515,-2.25 c 0.29374,-1.2375 3.42476,-16.425 6.95899,-33.75 3.53422,-17.325 7.18491,-34.875 8.11133,-39 3.01742,-13.43542 3.01943,-13 -0.0664,-13 -2.49963,0 -2.68875,0.26696 -2.25781,3.20312 0.46168,3.14563 -2.43977,18.7086 -3.93164,21.08594 -0.41811,0.66622 -0.6479,1.90099 -0.50977,2.74414 0.13812,0.84316 -0.35832,4.21816 -1.10351,7.5 L 175.3418,243.5 141.17188,243.76367 107,244.02539 l 0,-48.45312 c 0,-26.64976 0.36025,-48.67696 0.80078,-48.94922 0.44054,-0.27227 2.07175,1.09829 3.625,3.04492 2.06163,2.58376 2.8305,4.65839 2.8457,7.68555 0.0222,4.40269 -1.54048,5.14755 -4.01171,1.91406 -1.99033,-2.60425 -2.70148,-0.58905 -0.81055,2.29687 1.44808,2.21004 2.2276,2.5306 4.91016,2.02735 4.56718,-0.85681 7.26026,1.37886 8.05664,6.68945 0.44949,2.99744 1.91353,5.85641 4.7539,9.27539 2.2583,2.71834 5.32745,7.64336 6.81836,10.94336 2.28301,5.05322 4.99447,8.14842 17.1875,19.61523 14.56434,13.69688 20.53508,17.5743 23.10352,15.00586 0.79262,-0.79262 -0.96517,-3.23506 -6.3711,-8.85742 C 156.04309,203.92353 141.64556,183.8052 138.11133,174.62695 134.57129,165.4336 132.50247,162 130.50195,162 c -1.0591,0 -1.29978,-0.76283 -0.88867,-2.81836 0.83152,-4.15762 -3.84789,-9.52157 -7.80078,-8.94141 -2.43576,0.3575 -3.51747,-0.34958 -7.29688,-4.77343 l -4.43554,-5.19336 2.20898,-1.98047 c 4.34501,-3.89403 7.06933,-5.24132 9.40821,-4.6543 1.28103,0.32152 2.94559,0.0727 3.69921,-0.55273 2.37473,-1.97084 2.82827,1.68931 0.49805,4.01953 -2.69131,2.69131 -1.66932,3.63199 1.61133,1.48242 2.10047,-1.37628 2.51624,-2.34595 2.28125,-5.32227 -0.26976,-3.41683 0.0249,-3.8277 4.82031,-6.70312 11.35048,-6.80601 16.3269,-10.8611 25.64258,-20.90234 5.3625,-5.780155 9.75,-10.740089 9.75,-11.021488 0,-0.281399 -3.47667,3.171155 -7.72656,7.673828 -8.9413,9.47312 -11.70934,11.40097 -13.83985,9.63281 -2.86379,-2.37674 -1.44399,-5.29717 6.56641,-13.503904 4.4,-4.507847 8,-7.972408 8,-7.697265 0,0.275143 0.66934,-0.05471 1.48828,-0.734375 0.81894,-0.679663 1.23372,-1.649728 0.92188,-2.154297 -0.31184,-0.504569 -4.52037,3.258894 -9.35352,8.363281 -6.28028,6.63274 -10.95308,10.5196 -16.37695,13.61914 -4.17409,2.38533 -8.05991,4.04474 -8.63477,3.68945 -0.57487,-0.35528 -1.04492,9e-4 -1.04492,0.79102 0,2.1204 -2.95782,4.20033 -5.5,3.86719 -3.31146,-0.43394 -8.78833,4.53055 -8.22852,7.45898 0.3468,1.81417 -0.78927,3.473 -5.19921,7.58789 -3.10449,2.89678 -6.50933,5.75411 -7.56641,6.34961 -1.7382,0.97922 -1.80769,1.46957 -0.71484,5.11719 0.89541,2.9886 1.20898,22.45672 1.20898,75.16601 L 104,291 l -10,0 -11.5,-0.0273 -9.75,0.27929 c -7.8375,0.16896 76.75,0.30855 219.75,0.31055 143,0.002 254.2625,-0.13865 247.25,-0.31055 L 527,290.93945 527,268.4707 527,246 l 13,0 c 8,0 13,-0.38462 13,-1 0,-0.61538 -5,-1 -13,-1 l -13,0 0,-48.04883 c 0,-43.87574 0.15202,-48.32766 1.75,-51.25 1.42249,-2.60137 1.7064,-5.30671 1.51367,-14.45117 -0.22233,-10.54894 -0.11602,-11.25 1.70313,-11.25 3.64643,0 6.92224,-2.21599 7.55859,-5.11328 0.34267,-1.5606 0.33844,-3.29986 -0.01,-3.86328 -0.3482,-0.56342 -0.0246,-1.02344 0.71876,-1.02344 0.75694,0 1.88065,1.97988 2.55468,4.5 0.66196,2.475 1.70351,4.5 2.31446,4.5 0.61559,0 0.83268,-0.72631 0.48632,-1.62891 -0.34376,-0.89582 -1.11589,-3.57445 -1.71484,-5.95312 -0.99035,-3.933 -1.3289,-4.28292 -3.73242,-3.85938 -5.09357,0.89757 -5.70723,-0.80212 -5.07617,-14.05859 0.31419,-6.6 0.19184,-18.525 -0.27149,-26.5 -0.46333,-7.975 -0.79157,-20.125 -0.73047,-27 0.0834,-9.383788 -0.30241,-13.621836 -1.54687,-17 -1.46994,-3.990216 -2.53182,-6.254666 -3.36524,-6.142578 z M 355.49219,126.04492 c -0.43076,-0.43936 -0.86187,-0.87978 -1.28125,-1.3125 l 1.04687,1.63477 z m 173.125,-108.986326 c 0.63552,-0.112087 1.68543,1.555905 2.73242,4.691406 2.36995,7.097477 3.18357,51.874969 1.02148,56.208984 -1.66415,3.335875 -3.0363,3.737412 -5.81836,1.703125 -1.76685,-1.291953 -1.77356,-2.325378 -0.18164,-29.75 0.90706,-15.626354 1.64368,-29.424609 1.63868,-30.662109 -0.006,-1.415636 0.2261,-2.124154 0.60742,-2.191406 z m -63.38086,3.263672 c -0.96741,-0.11274 -1.58881,0.549132 -3.07031,2.271484 -2.37389,2.759809 -2.42732,3.172516 -1.81055,13.875 0.34965,6.067141 0.63862,14.96875 0.64062,19.78125 0.002,4.8125 0.29968,8.75 0.66016,8.75 0.36047,0 0.34815,-8.934942 -0.0273,-19.855469 -0.6272,-18.241243 -0.53654,-20.037355 1.11914,-22.082031 1.58083,-1.952239 2.12237,-2.078255 4.41601,-1.033203 1.43815,0.655268 3.11382,2.284836 3.72266,3.621094 0.60884,1.336259 1.87773,10.39808 2.82031,20.138671 0.94259,9.740594 1.87393,16.945651 2.06836,16.009766 0.60767,-2.925084 -2.77546,-33.706969 -4,-36.394531 -0.6402,-1.405092 -2.51473,-3.252565 -4.16406,-4.105469 -1.08944,-0.563371 -1.79455,-0.908919 -2.375,-0.976562 z m -66.36328,4.751953 c 1.22852,-0.06069 2.74148,1.207756 4.25976,4.175781 3.32451,6.498944 13.7296,41.302276 14.40039,48.167969 0.57529,5.888141 0.54696,5.985977 -0.89062,3.082031 -0.81682,-1.65 -4.02194,-11.1 -7.1211,-21 -8.23218,-26.296967 -8.68877,-27.666697 -9.10156,-27.253906 -0.20702,0.207017 2.80652,10.424328 6.69727,22.703125 6.34019,20.008941 6.93818,22.578857 5.76367,24.773437 C 411.79324,81.754904 406,85.918432 406,84.667969 c 0,-0.986003 -8.02736,-42.769237 -9.08203,-47.273438 -1.69583,-7.242398 -0.39028,-12.204453 1.95508,-12.320312 z m 67.64257,13.460937 c -0.0461,0.04565 -0.0323,0.519532 0.0508,1.464844 0.26576,3.025 0.81,9.325 1.20898,14 0.53545,6.274276 0.7971,7.321675 1,4 0.15119,-2.475 -0.39306,-8.775 -1.20898,-14 -0.56096,-3.592187 -0.94939,-5.565283 -1.0508,-5.464844 z M 311.33203,67.238281 c 0.82927,-0.0357 2.15636,0.198812 3.97852,0.708985 3.60641,1.009733 5.26298,2.386036 9.50195,7.888672 2.8239,3.665733 8.74775,11.293463 13.16211,16.951171 8.17668,10.479731 8.81329,11.872881 6.99023,15.279301 -1.65848,3.09889 -3.40077,2.2859 -6.99804,-3.26563 -8.08935,-12.48399 -21.50684,-30.556319 -24.83985,-33.45703 -3.03315,-2.639745 -3.61931,-4.026923 -1.79492,-4.105469 z m -135.04297,6.060547 c -0.823,-0.05403 -1.93731,0.889314 -3.96484,3.201172 -4.00627,4.568086 -7.66068,9.5 -7.03906,9.5 0.23132,0 2.54019,-2.7 5.13281,-6 2.59263,-3.3 5.13493,-6 5.64844,-6 2.12366,0 0.632,2.755393 -4.31446,7.96875 -4.51133,4.754757 -4.30455,4.627077 1.47266,-0.912109 3.6965,-3.544206 7.00943,-6.156586 7.36133,-5.804688 1.29786,1.297869 -2.73119,10.319409 -6.35156,14.222656 L 170.5,93.5 l 4.23047,-3.933594 c 5.9081,-5.493915 9.54346,-17.036574 4.79101,-15.21289 -0.70234,0.269516 -1.82096,-0.03712 -2.48437,-0.681641 -0.23238,-0.225763 -0.47371,-0.355036 -0.74805,-0.373047 z m 293.82813,2.839844 c 1.09273,0.121089 2.32862,0.754859 3.97851,1.929687 2.49228,1.774663 2.90653,2.732386 2.91992,6.75 0.009,2.575048 0.66803,7.381641 1.46485,10.681641 2.14661,8.89014 2.05082,9.6995 -0.98047,8.31836 -1.375,-0.6265 -2.5,-1.7418 -2.5,-2.47852 C 475,100.60313 474.14965,100 473.10938,100 c -1.27325,0 -2.4148,1.30733 -3.49219,4 -0.88027,2.2 -2.16743,4.00763 -2.85938,4.01562 -0.91628,0.0112 -0.88092,0.25306 0.12891,0.89258 1.98753,1.2587 2.46649,9.11884 1.22461,20.0918 -1.01514,8.96953 -0.96549,9.58376 0.90039,11 1.87718,1.4248 1.80212,1.5 -1.49414,1.5 l -3.46875,0 0.55859,-16 c 0.30764,-8.8 0.78097,-19.94651 1.05078,-24.76953 0.36749,-6.569233 0.0726,-10.026694 -1.17578,-13.785158 -1.75067,-5.270795 -1.44566,-6.445393 2.51758,-9.664062 1.07482,-0.872893 2.02446,-1.263667 3.11719,-1.142578 z M 533.91797,77 c 0.90205,0 0.46881,21.043858 -0.5332,25.89453 l -0.49415,2.39258 -1.50195,-2.14258 C 529.38732,100.28721 527.16596,100.43328 526,103.5 c -1.77253,4.66212 -2.30217,2.52798 -1.65039,-6.654297 C 524.70697,91.81121 525,85.970902 525,83.867188 c 0,-3.704792 0.0779,-3.789447 2.4707,-2.699219 C 530.18471,82.404558 533,80.983361 533,78.376953 533,77.619298 533.4132,77 533.91797,77 Z M 415.64844,98.197266 c 0.3176,0.01472 0.62768,0.07942 0.92968,0.195312 3.08895,1.185336 1.1738,5.360442 -5.89062,12.843752 -5.14112,5.44596 -8.87649,13.56477 -8.07812,17.55664 0.69008,3.45039 -0.51463,4.23265 -2.61719,1.69922 -2.30703,-2.7798 0.0711,-9.941 8.54492,-25.72852 2.32282,-4.32764 4.88808,-6.669438 7.11133,-6.566404 z M 528.46484,102 c 3.58213,0 4.57823,7.35137 1.90235,14.03906 -1.27992,3.19883 -1.48902,5.851 -0.97071,12.27149 0.85407,10.57992 0.0548,14.96722 -2.57421,14.13281 -1.05478,-0.33477 -2.57249,-0.0671 -3.3711,0.5957 -0.92373,0.76663 -1.45117,0.8216 -1.45117,0.15039 0,-0.58028 0.9,-1.34032 2,-1.68945 1.86424,-0.59169 2.01272,-1.59845 2.18359,-14.81836 C 526.49644,102.47628 526.5403,102 528.46484,102 Z m -46.96484,0.77344 7.39062,6.6289 c 4.06533,3.64577 9.57886,7.63112 12.25196,8.85743 2.6731,1.2263 4.71968,2.65346 4.54687,3.17187 -0.64971,1.94915 -2.46446,1.37886 -12.68945,-3.99609 -13.01192,-6.83995 -13.59294,-7.37796 -12.41016,-11.49414 z m -245.81055,0.47461 c 0.94277,-0.0575 2.28865,0.0179 4.03711,0.23633 6.08667,0.76047 11.78549,3.31276 24.91016,11.15429 4.47526,2.67381 9.51051,5.6115 11.18945,6.5293 3.52017,1.92433 5.30576,7.76316 3.16406,10.34375 -0.67968,0.81897 -1.53227,1.48828 -1.89648,1.48828 -0.36422,0 -4.79874,-3.14085 -9.85352,-6.97852 -9.56661,-7.26313 -21.73909,-15.19412 -29.00781,-18.90234 -4.5586,-2.32563 -5.37127,-3.69872 -2.54297,-3.87109 z m 183.23243,3.26757 c 0.94595,0.0577 1.84072,0.38956 2.47265,1.02149 2.00438,2.00438 2.02332,3.7539 0.0801,7.51172 -0.83912,1.62269 -1.89507,2.95117 -2.3457,2.95117 -2.56377,0 -5.92397,-7.36221 -4.38868,-9.61523 0.88596,-1.30014 2.60505,-1.96524 4.18165,-1.86915 z m -273.48829,1.45118 c 0.44033,0.0167 0.56641,0.34332 0.56641,0.92187 0,2.36623 3.52766,5.52138 5.0918,4.55469 0.78115,-0.48278 0.95849,-0.33412 0.49609,0.41406 -0.79114,1.28009 -9.20702,7.09185 -16.46289,11.36914 -5.64185,3.32584 -6.71368,3.45192 -4.68164,0.55078 1.97582,-2.82088 1.9686,-4.6656 -0.0273,-6.87109 -1.78699,-1.9746 -2.47856,-1.36602 9.33398,-8.20313 3.34379,-1.93538 4.94972,-2.76425 5.68359,-2.73632 z m 332.10938,4.22265 c 1.6369,0.0648 1.73719,1.1134 0.875,3.58008 -0.78029,2.23241 -1.64931,2.78763 -4.75977,3.04492 -3.63336,0.30054 -3.78862,0.19071 -3.48047,-2.46679 0.26721,-2.30436 0.97644,-2.93718 4.12696,-3.67774 1.43288,-0.33681 2.49423,-0.50993 3.23828,-0.48047 z m 55.39844,0.75391 c 0.71184,0.1312 2.02599,2.42274 2.04297,3.80664 0.008,0.6875 -0.91567,1.25 -2.05274,1.25 -1.68221,0 -1.93776,-0.4192 -1.375,-2.25 0.38039,-1.2375 0.88451,-2.46163 1.12109,-2.7207 0.0716,-0.0784 0.16198,-0.10468 0.26368,-0.0859 z m -110.16993,2.07617 0.59571,5.24024 c 1.68313,14.81591 1.80104,17.61708 0.81836,19.37304 -0.66682,1.19154 -2.15689,1.86719 -4.11524,1.86719 -3.75338,0 -3.79781,-0.34452 -0.39648,-3.05664 l 2.67383,-2.13281 -1.65821,-8.26563 c -1.59252,-7.93998 -1.58368,-8.36251 0.21289,-10.64648 z M 124.35742,119 c 1.08654,0 1.78776,0.1125 1.5586,0.25 -0.22917,0.1375 -1.60608,1.2973 -3.06055,2.57617 -1.94137,1.70696 -2.84569,1.99835 -3.40235,1.09766 -0.92175,-1.49142 2.118,-3.92383 4.9043,-3.92383 z m 5.3711,0.21875 c 0.89377,0.15531 1.27148,1.11344 1.27148,2.80078 0,2.2167 -0.27634,2.46797 -9.5,8.61719 -3.85,2.56672 -8.76819,6.17392 -10.92969,8.01562 C 106.77192,141.88874 103,143.05798 103,141 c 0,-0.55 0.51358,-1 1.14062,-1 0.62705,0 5.46454,-4.21889 10.75,-9.375 8.41102,-8.20519 12.87158,-11.74794 14.8379,-11.40625 z m 231.04687,2.90039 c 1.5006,-0.0374 3.13787,1.20698 4.35547,3.64453 0.89665,1.79504 4.03614,6.15209 6.97656,9.68164 2.94041,3.52955 5.65534,7.57342 6.0332,8.98633 0.37786,1.41291 0.38837,2.51347 0.0234,2.44727 -0.36494,-0.0662 -4.31099,-3.79199 -8.76953,-8.28125 -4.45855,-4.48925 -9.17326,-8.87097 -10.47656,-9.73633 -2.1368,-1.41878 -2.2491,-1.83947 -1.13477,-4.28516 0.73955,-1.62312 1.82506,-2.42793 2.99219,-2.45703 z m 6.49609,1.79688 c 1.29053,0.13698 3.28254,2.14569 3.54883,3.93554 0.46757,3.14278 -2.64133,2.74941 -3.87304,-0.49023 -0.55177,-1.45128 -0.74451,-2.89808 -0.42774,-3.21485 0.1934,-0.1934 0.45414,-0.26208 0.75195,-0.23046 z m -86.49804,1.63281 c 0.20975,0.0446 0.56596,0.32782 1.10937,0.80664 0.88998,0.7842 5.66719,3.4768 10.61719,5.98437 4.95,2.50758 8.28155,4.58158 7.4043,4.60938 -0.87726,0.0278 -2.43175,0.97665 -3.45508,2.10742 -1.53242,1.6933 -1.64726,2.39635 -0.6543,3.98633 0.66308,1.06177 1.20508,2.1609 1.20508,2.44336 0,1.06616 -3.6168,0.36663 -6.59961,-1.27735 -1.70452,-0.93944 -5.28411,-3.59549 -7.95508,-5.90234 -4.76352,-4.11414 -4.8211,-4.23471 -3.02734,-6.2168 1.1689,-1.29162 1.65201,-2.94665 1.33789,-4.58984 -0.27505,-1.43884 -0.33201,-2.02553 0.0176,-1.95117 z m 19.13281,12.71679 c 1.32004,0.12359 3.41445,0.75877 7.31445,2.00196 4.55329,1.45144 10.85938,3.36524 14.01172,4.25195 3.15233,0.88671 5.99098,2.03295 6.3086,2.54688 0.70403,1.13914 -3.78149,1.05193 -8.54102,-0.16602 -1.925,-0.4926 -6.0376,-0.63327 -9.13867,-0.3125 -3.41655,0.3534 -5.88726,0.17834 -6.27149,-0.44336 -0.41298,-0.66821 0.68177,-0.82261 3.13868,-0.44336 2.07483,0.32026 3.46423,0.25016 3.08984,-0.15625 -0.3744,-0.40641 -3.27862,-0.8554 -6.45508,-0.99609 -6.68405,-0.29605 -9.03937,-2.30048 -6.125,-5.21485 0.8029,-0.8029 1.34793,-1.19194 2.66797,-1.06836 z m -59.30273,2.14258 c 0.25173,0.024 0.49927,0.0781 0.72851,0.16602 1.37753,0.5286 1.66978,2.14196 1.67578,9.2832 0.004,4.75365 0.17002,11.56758 0.36914,15.14258 0.23595,4.23627 0.15676,4.9328 -0.22461,2 -0.53819,-4.13872 -0.63811,-3.85772 -1.24414,3.5 -0.44557,5.40934 -0.61428,2.09007 -0.52148,-10.25 0.13171,-17.51309 0.0588,-18.25 -1.82422,-18.25 -1.34973,0 -1.64006,-0.32283 -0.92969,-1.0332 0.42603,-0.42603 1.21551,-0.63068 1.97071,-0.5586 z M 108.85547,141 c 0.47075,0 4.59388,4.3875 9.16211,9.75 4.56824,5.3625 9.19908,10.55062 10.29101,11.5293 1.66809,1.49509 1.80519,2.17418 0.85938,4.25 -1.99932,4.38804 -4.67621,3.06881 -7.47266,-3.6836 -0.83254,-2.01029 -4.25559,-6.99468 -7.60547,-11.07617 C 108.55437,145.02512 106.59846,141 108.85547,141 Z m 16.63867,11.41406 c 0.42719,0.088 0.90876,0.60069 1.71289,1.59375 0.98579,1.2174 1.79297,3.03831 1.79297,4.04492 0,2.96088 -1.33849,2.88677 -3.84961,-0.21093 -1.9786,-2.44079 -2.14172,-3.1464 -1.04101,-4.47266 0.58633,-0.70648 0.95757,-1.04312 1.38476,-0.95508 z m 6.2793,10.22071 1.94922,3.93164 c 1.07222,2.16297 2.98249,6.75588 4.24414,10.20507 1.26165,3.44918 2.68354,6.51283 3.16211,6.8086 1.41156,0.87239 0.99598,2.41992 -0.65039,2.41992 -2.44932,0 -3.9057,4.30733 -2.5879,7.65234 l 1.1211,2.84766 -0.54688,-2.83594 C 137.6712,189.54605 138.77317,187 141.34766,187 c 1.66534,0 4.48035,3.03197 11.37109,12.25 5.03646,6.7375 11.88449,14.93596 15.21875,18.21875 3.33427,3.28278 6.0625,6.32028 6.0625,6.75 0,0.42971 -0.5625,0.76369 -1.25,0.74219 -3.67664,-0.11513 -9.24461,-4.18572 -21.4707,-15.69727 C 140.0044,198.64774 137.26518,195.49034 135,190.5 c -1.49791,-3.3 -4.5852,-8.2425 -6.86133,-10.98242 -2.27613,-2.73992 -4.14434,-5.43992 -4.15234,-6 -0.008,-0.56008 -0.31096,-2.14258 -0.67383,-3.51758 -0.59048,-2.23746 -0.48433,-2.35753 1.00195,-1.13867 2.286,1.87468 4.51615,0.76915 6.11328,-3.0293 z m 105.26367,3.0625 c 0.71504,-0.13948 0.85156,1.45211 0.85156,6.72656 0,4.16699 -0.21485,7.57617 -0.47656,7.57617 -0.94201,0 -1.62726,-3.07064 -1.11914,-5.01367 0.28536,-1.09123 0.11165,-2.23691 -0.38672,-2.54492 -1.41589,-0.87507 -1.06234,-5.0655 0.53906,-6.39453 0.23206,-0.1926 0.42679,-0.31743 0.5918,-0.34961 z m -2.72266,11.43164 1.8418,2.34375 c 2.48452,3.15855 2.7424,19.96898 0.32031,20.89843 -0.83822,0.32165 -1.89149,1.57707 -2.33984,2.78907 -0.67389,1.82171 -0.9303,1.36632 -1.47656,-2.61914 -0.96563,-7.04504 -0.81226,-12.73232 0.49609,-18.4004 z m 7.46875,2.84179 c 0.066,-0.0418 0.13866,5.3e-4 0.21485,0.13086 0.56775,0.97126 0.61149,6.68242 0.11328,14.5 L 241.29102,207.5 241.17578,193 c -0.0653,-8.25535 0.14519,-12.7364 0.60742,-13.0293 z M 237.10156,201 c 0.51025,0 0.89844,11.89228 0.89844,27.5 0,15.125 -0.14131,27.5 -0.31445,27.5 -0.17313,0 -1.14493,-1.6875 -2.16016,-3.75 -1.50225,-3.05189 -1.99324,-7.43845 -2.63477,-23.56641 -0.75041,-18.8654 -0.68973,-20.00606 1.26172,-23.75 C 235.27979,202.77053 236.60709,201 237.10156,201 Z M 107,246 l 34.10938,0 34.10742,0 -0.69336,2.75 C 173.84915,251.4274 166,290.04039 166,290.67969 166,290.85606 152.725,291 136.5,291 l -29.5,0 0,-22.5 z"
       id="path2989"
       inkscape:connector-curvature="0"
       sodipodi:nodetypes="sssssssssscsssssscssssssssssccssscsssssssssssscsssssscccccssscsssscssccssssscccccccccccssssscccccssscccssssssscsscccsssssccsssssssssssssscccccssscssssscssssssssssscccccsssccccccccccsssccccssssssssssssssssssccccccccsssccsscssssccssssscsssssccccssssccccccssscssssssssssssscccsssssssssssssssscsssssssccccsscccssscssssccssssssssssscsccssssscsssscsssssssssssscssssssssccssscsssssssssssssssscccssssscssssscssssccssssscccssssssscssssssscssssssccscsccssssssssssssssscsssssssccsssscccssccccsscscccscsssssssscssssssccssscsssccsscssssssscsssssssssssscccsssssscssssssscsssscccssscccsssscssscsscccssssccccsssccscccccsssssssccccssccccccsccc" />
  </g>
</svg>
