<?xml version="1.0" encoding="UTF-8" standalone="no"?>
<!-- Created with Inkscape (http://www.inkscape.org/) -->

<svg
   xmlns:dc="http://purl.org/dc/elements/1.1/"
   xmlns:cc="http://creativecommons.org/ns#"
   xmlns:rdf="http://www.w3.org/1999/02/22-rdf-syntax-ns#"
   xmlns:svg="http://www.w3.org/2000/svg"
   xmlns="http://www.w3.org/2000/svg"
   xmlns:sodipodi="http://sodipodi.sourceforge.net/DTD/sodipodi-0.dtd"
   xmlns:inkscape="http://www.inkscape.org/namespaces/inkscape"
   version="1.1"
   width="535"
   height="261"
   id="svg2"
   inkscape:version="0.91 r13725"
   sodipodi:docname="ub430602.svg">
  <sodipodi:namedview
     pagecolor="#c1c1c1"
     bordercolor="#666666"
     borderopacity="1"
     objecttolerance="10"
     gridtolerance="10"
     guidetolerance="10"
     inkscape:pageopacity="0"
     inkscape:pageshadow="2"
     inkscape:window-width="1217"
     inkscape:window-height="749"
     id="namedview11"
     showgrid="false"
     inkscape:zoom="1.6124678"
     inkscape:cx="333.23131"
     inkscape:cy="132.75078"
     inkscape:window-x="0"
     inkscape:window-y="0"
     inkscape:window-maximized="0"
     inkscape:current-layer="svg2" />
  <metadata
     id="metadata8">
    <rdf:RDF>
      <cc:Work
         rdf:about="">
        <dc:format>image/svg+xml</dc:format>
        <dc:type
           rdf:resource="http://purl.org/dc/dcmitype/StillImage" />
        <dc:title></dc:title>
      </cc:Work>
    </rdf:RDF>
  </metadata>
  <defs
     id="defs6" />
  <g
     id="g4385"
     transform="translate(12.148171,9.3416417e-4)">
    <g
       transform="matrix(0.04558299,-0.99896056,-0.99896056,-0.04558299,701.66584,426.50425)"
       id="g4330">
      <path
         sodipodi:nodetypes="csssscssssssssssssssscssssscc"
         inkscape:connector-curvature="0"
         style="fill:#000000"
         d="m 320.67383,343.64453 c -0.56903,0.0407 -0.89749,0.3896 -1.27735,1.06836 -0.5366,0.95883 -1.66739,1.37159 -2.88671,1.05273 -2.34327,-0.61278 -6.49198,4.07129 -7.28708,6.17259 -0.91075,2.40692 -0.2191,3.19765 1.60739,5.1907 l 3.32031,3.62304 -4.60351,7.61133 c -6.5864,10.88988 -8.32782,13.47045 -9.92774,14.71094 -1.72583,1.3381 -0.64815,3.40039 1.77539,3.40039 2.18309,0 4.52937,-3.05652 9.40235,-10.04297 5.02992,-7.21147 6.67488,-8.72075 8.88114,-6.85236 1.86123,1.57619 3.16748,3.38418 5.29003,5.12146 4.66029,3.81438 5.96548,4.87048 4.42902,7.33828 -0.59519,0.95596 -6.20292,11.91363 -11.08652,19.21879 -8.51097,12.73116 -9.7933,15.98398 -5.80078,14.7168 1.00743,-0.31975 2.12086,-0.11143 2.47461,0.46094 0.98868,1.59974 1.93863,1.28781 6.05859,-1.98633 3.86629,-3.07253 13.45128,-21.52478 17.28838,-28.78112 1.74948,-3.30843 1.94423,-4.66876 1.14037,-7.96448 -0.53325,-2.18623 -1.52511,-5.29357 -3.40329,-7.98435 -2.56783,-3.6788 -6.24359,-7.54951 -9.80866,-9.36966 -2.0955,-1.06986 -3.2169,-2.04814 -3.2414,-3.01468 -0.0241,-0.95133 0.84032,-3.25241 0.1079,-5.30436 -0.50708,-1.42064 -2.3996,-3.60225 -3.05038,-4.24803 -0.76481,-0.75895 1.66237,-2.40637 3.46708,-1.26496 1.85819,1.17524 2.9668,1.20557 2.9668,0.0801 0,-0.48327 -1.40362,-1.46015 -3.11719,-2.16993 -1.34167,-0.55573 -2.14972,-0.82386 -2.71875,-0.7832 z"
         id="path4246" />
      <path
         sodipodi:nodetypes="ccsssssc"
         inkscape:connector-curvature="0"
         style="fill:#fefefe"
         d="m 315.50898,415.53282 c 0.005,-2.52137 5.51493,-11.16823 7.90979,-16.24781 2.17483,-4.57024 5.68136,-14.18767 6.19953,-15.42789 0.51817,-1.24022 2.20619,-3.00602 3.75114,-3.92401 2.57031,-1.52724 2.95041,-1.55599 4.47318,-0.33827 1.52279,1.21771 1.549,1.5961 0.30847,4.45302 -2.17376,5.00603 -13.7302,26.72547 -16.70876,29.17044 -3.46865,2.84724 -5.93335,3.80869 -5.93335,2.31452 z"
         id="path4297" />
      <path
         sodipodi:nodetypes="sssss"
         inkscape:connector-curvature="0"
         style="fill:#fefefe"
         d="m 310.50898,414.94215 c 0,-0.67134 13.14616,-20.855 16.44388,-26.50068 0.39108,-0.66954 -2.586,7.23233 -5.50961,12.97471 -2.92361,5.74238 -6.12984,11.25488 -7.12496,12.25 -1.7211,1.7211 -3.80931,2.42057 -3.80931,1.27597 z"
         id="path4295" />
      <path
         inkscape:connector-curvature="0"
         style="fill:#fefefe"
         d="m 299.50898,384.54504 c 0,-0.58825 0.37421,-1.06955 0.83159,-1.06955 0.84455,0 3.85346,-4.47846 10.58541,-15.75528 3.82122,-6.40101 6.64261,-8.81956 9.16114,-7.85311 2.51416,0.96478 1.5266,3.74327 -2.65598,7.47252 -2.24281,1.99973 -6.18031,6.78587 -8.75,10.63587 -3.11811,4.67167 -5.42055,7.10629 -6.92216,7.31955 -1.2375,0.17575 -2.25,-0.16175 -2.25,-0.75 z"
         id="path4285" />
      <path
         sodipodi:nodetypes="cssscc"
         inkscape:connector-curvature="0"
         style="fill:#fefefe"
         d="m 312.63177,358.10619 c -1.92673,-2.05091 -2.64448,-2.58361 -1.22518,-4.60995 0.79654,-1.1372 4.43873,0.88033 6.19923,1.79431 3.31194,1.71945 2.30397,2.68132 -0.48888,3.95382 -2.01113,0.91634 -2.72535,0.7351 -4.48517,-1.13815 z"
         id="path4275" />
      <path
         sodipodi:nodetypes="ssssssssscs"
         inkscape:connector-curvature="0"
         style="fill:#0000fe"
         d="m 330.162,378.13905 c -0.78421,-1.34023 -2.56546,-2.01013 -4.91859,-4.22808 -1.98189,-1.86802 -4.43656,-3.8496 -5.19089,-4.92656 -1.22624,-1.7507 -2.2372,-1.47962 0.0725,-2.99299 1.91477,-1.25461 2.46403,-2.3168 2.12233,-4.1043 -0.55491,-2.90281 -0.5947,-2.89806 4.05148,-0.48354 5.7891,3.00847 10.33993,9.75019 12.00259,15.2307 0.84539,2.78657 0.77311,2.98196 -0.72596,1.96232 -1.41848,-0.96483 -1.98467,-0.90217 -3.82622,0.42341 l -2.16139,1.55582 z"
         id="path4259" />
    </g>
    <path
       style="fill:#fefefe"
       d="m 91.154459,156.85452 c 0,-2.79789 3.189461,-8.06441 6.657786,-10.9935 3.253065,-2.7473 3.491485,-2.79865 5.318145,-1.14554 1.85956,1.68288 1.74467,1.8867 -4.15808,7.37624 -6.847776,6.36842 -7.817851,6.95941 -7.817851,4.7628 z"
       id="path4808"
       inkscape:connector-curvature="0" />
    <path
       style="fill:#fefefe"
       d="m 104.82065,143.42089 c -1.55368,-1.71679 -1.02767,-2.42179 9.59501,-12.86015 12.72162,-12.50087 14.7661,-13.91442 17.78686,-12.29776 2.28934,1.22522 1.93748,4.05496 -0.91634,7.36933 -1.96857,2.28626 -23.3625,19.60495 -24.21817,19.60495 -0.33197,0 -1.34328,-0.81736 -2.24736,-1.81637 z"
       id="path4806"
       inkscape:connector-curvature="0" />
    <path
       style="fill:#fefefe"
       d="m 143.90446,99.157158 c -2.45023,-1.42713 -2.17858,-3.59298 0.68606,-5.46996 1.33984,-0.8779 5.23643,-6.32772 8.6591,-12.11073 3.42267,-5.783 6.80501,-11.09652 7.51632,-11.80783 1.71019,-1.710195 0.73898,-2.527579 -3.02815,-2.548518 -1.69583,-0.0094 -6.45833,-0.944116 -10.58333,-2.077089 -11.87667,-3.262048 -11.91677,-3.265538 -15.47934,-1.346964 -2.80612,1.511195 -3.63001,1.595326 -4.94396,0.504845 -2.47512,-2.054163 -1.91831,-4.981951 1.1733,-6.169384 2.26694,-0.870693 5.29704,-0.337241 17.25,3.036874 7.975,2.251205 16.075,4.139846 18,4.19698 1.925,0.05713 2.7125,0.309674 1.75,0.561202 -0.9625,0.251527 -1.80625,1.099326 -1.875,1.883998 -0.20711,2.363788 -0.38386,2.789426 -2.6688,6.426676 -1.2093,1.925 -2.20041,3.89557 -2.20246,4.37905 -0.006,1.49603 -9.30386,20.07737 -10.43548,20.85564 -1.37087,0.942802 -1.70663,0.915122 -3.81826,-0.31479 z"
       id="path4794"
       inkscape:connector-curvature="0" />
    <path
       style="fill:#fefefe"
       d="m 151.15446,95.761428 c 0,-0.26171 0.89832,-1.94921 1.99626,-3.75 1.95119,-3.20024 1.99635,-3.2166 2,-0.72417 0.002,1.4025 -0.53626,3.09 -1.19626,3.75 -1.20302,1.20302 -2.8,1.61605 -2.8,0.72417 z"
       id="path4792"
       inkscape:connector-curvature="0" />
    <path
       style="fill:#fefefe"
       d="m 193.65446,88.050868 c -1.1,-0.61907 -3.575,-2.5274 -5.5,-4.24074 -1.925,-1.71334 -7.20083,-5.35564 -11.72407,-8.09401 -4.52324,-2.73837 -8.23574,-5.54136 -8.25,-6.22886 -0.0143,-0.6875 0.16083,-1.25 0.3891,-1.25 0.22827,0 5.96577,2.81981 12.75,6.26624 6.78423,3.44643 13.42316,6.70893 14.75317,7.25 3.79145,1.54241 4.99424,4.29463 2.64067,6.04233 -2.29554,1.7046 -2.46775,1.71329 -5.05887,0.25504 z"
       id="path4790"
       inkscape:connector-curvature="0" />
    <path
       style="fill:#fefefe"
       d="m 226.40446,87.267748 c -4.14432,-2.55174 -4.09579,-4.148 0.22633,-7.44464 7.44632,-5.67958 27.74782,-24.424641 30.22819,-27.910702 2.75941,-3.87824 4.77651,-4.868253 3.92239,-1.925148 -0.27933,0.9625 -1.02866,3.761522 -1.66519,6.22005 -0.98032,3.786404 -3.32174,6.656429 -15.30952,18.76579 l -14.1522,14.29574 -3.25,-2.00109 z"
       id="path4788"
       inkscape:connector-curvature="0" />
    <path
       style="fill:#fefefe"
       d="m 184.18236,84.770878 c -1.97732,-2.38253 -0.78809,-3.75438 1.7273,-1.99253 1.23464,0.86478 2.2448,1.9968 2.2448,2.51561 0,1.45843 -2.6132,1.1143 -3.9721,-0.52308 z"
       id="path4786"
       inkscape:connector-curvature="0" />
    <path
       style="fill:#fefefe"
       d="m 44.154459,65.466118 c 0,-1.434902 7.42786,-4.227329 11.270236,-4.23693 3.682113,-0.0092 23.032953,-2.425767 32.729764,-4.087351 7.239066,-1.24044 12.687611,-0.346925 14.395571,2.36075 2.13561,3.385653 -1.7312,4.468301 -18.35346,5.138689 -8.548161,0.344753 -21.054611,0.899011 -27.792111,1.231683 -7.993022,0.394665 -12.25,0.253284 -12.25,-0.406841 z"
       id="path4782"
       inkscape:connector-curvature="0" />
    <path
       style="fill:#fefefe"
       d="m 133.65446,64.237258 c -0.36506,-0.590673 0.73644,-0.993732 2.69098,-0.984687 2.50438,0.01159 2.94427,0.251033 1.80902,0.984687 -1.94393,1.256262 -3.72359,1.256262 -4.5,0 z"
       id="path4780"
       inkscape:connector-curvature="0" />
    <path
       style="fill:#fefefe"
       d="m 138.72084,58.339475 c -1.44183,-0.564623 -1.60818,-0.95835 -0.65404,-1.548039 0.75763,-0.468241 1.93971,-0.130698 2.89791,0.827498 1.71544,1.715438 0.93591,1.965755 -2.24387,0.720541 z"
       id="path2997"
       inkscape:connector-curvature="0" />
    <path
       d="m 130.15446,165.71273 c 0,-0.41524 0.73328,-1.29117 1.62952,-1.94652 1.39301,-1.01859 0.79343,-1.53087 -4.13115,-3.52961 -17.86233,-7.24979 -37.053754,-25.2377 -46.107518,-43.21608 -3.512491,-6.97487 -8.390853,-20.468702 -8.390853,-23.209582 0,-3.40258 1.691259,-1.30136 2.959049,3.67632 6.305283,24.756212 24.734592,47.103442 48.765992,59.133242 8.02651,4.01797 9.27496,4.3029 9.27496,2.11676 0,-0.825 0.36172,-1.5 0.80383,-1.5 1.06959,0 7.68049,6.8527 7.12782,7.38852 -0.84442,0.81865 -11.93165,1.82867 -11.93165,1.08695 z m 201.32729,-37.886 c 0.37671,-0.98169 -1.18689,-2.11105 -5.14301,-3.71469 -10.32141,-4.18384 -29.84587,-18.54652 -27.88183,-20.51056 0.36115,-0.36116 2.57835,1.11216 4.9271,3.27404 5.76883,5.30986 11.85288,9.38557 20.49549,13.72994 8.02186,4.03234 9.27496,4.32036 9.27496,2.1318 0,-0.825 0.36172,-1.5 0.80383,-1.5 0.97478,0 7.19617,6.30909 7.19617,7.29761 0,0.38631 -2.29814,0.70239 -5.10699,0.70239 -3.98473,0 -4.98804,-0.30996 -4.56572,-1.41053 z m -116.24964,-19.449 c -2.43229,-0.35226 -4.61383,-1.2226 -4.84787,-1.93409 -0.31692,-0.96345 0.30132,-1.10411 2.42235,-0.55113 1.56633,0.40837 5.99787,0.72025 9.84787,0.69307 12.1072,-0.0855 25.95811,-7.389772 30.37378,-16.017652 0.84293,-1.64702 0.8112,-2.27422 -0.13177,-2.60499 -0.80717,-0.28314 -0.36673,-1.17501 1.25799,-2.5474 3.49956,-2.95607 4,-2.72815 4,1.82172 0,2.2 -0.45,4 -1,4 -0.55,0 -1.00168,-0.5625 -1.00374,-1.25 -0.002,-0.6875 -0.84948,0.1 -1.88317,1.75 -7.27689,11.615582 -24.12868,18.799352 -39.03544,16.640472 z"
       id="path2993"
       style="fill:#fe0000"
       inkscape:connector-curvature="0"
       sodipodi:nodetypes="ssssssssscsssssssssssssssssssscss" />
    <path
       sodipodi:nodetypes="cssssssssscccssssccsccssssssss"
       d="m 134.73333,121.0617 c 0.38032,-1.10256 -0.30378,-2.25331 -2.00045,-3.36501 -2.39402,-1.56862 -2.75721,-1.5723 -5.07842,-0.0514 -3.45566,2.26424 -3.13613,1.23221 1.30924,-4.22863 2.09508,-2.57368 4.8719,-7.04168 6.1707,-9.9289 2.65753,-5.907662 6.02006,-9.777632 6.02006,-6.928552 0,1.95653 4.47837,5.118462 5.95602,4.205222 0.57419,-0.35487 1.04398,0.0787 1.04398,0.96346 0,2.31641 -2.78694,7.43074 -6.38627,11.71949 -1.71255,2.04058 -4.12603,4.96558 -5.36329,6.5 -1.23726,1.53443 -1.98947,2.03587 -1.67157,1.11431 z M 203.3891,92.224348 c -6.00496,-1.25023 -6.61313,-1.85659 -4.00614,-3.99426 1.91051,-1.56657 2.08316,-2.1721 1.08637,-3.81027 -1.07725,-1.77037 -0.83897,-2.00304 2.61724,-2.55571 2.09131,-0.33442 6.27705,-0.15056 9.30164,0.40856 3.73837,0.69108 6.36082,0.68903 8.1899,-0.006 1.78043,-0.67692 2.48033,-0.68269 2.06895,-0.0171 -1.03774,1.6791 0.48323,4.84558 2.65922,5.53621 6.72501,2.13444 -13.4044,6.21127 -21.91718,4.43891 z M 108.15446,64.841572 c -4.7714,-0.723172 -6.86333,-1.392274 -5.75,-1.839137 3.40009,-1.364713 0.86014,-6.063861 -3.750001,-6.937869 -3.350929,-0.635282 19.616211,-0.787196 25.500001,-0.168668 4.4977,0.472816 5.08593,0.734461 3.22783,1.435746 -2.83374,1.069515 -3.88595,3.622145 -2.44451,5.930268 0.60443,0.967848 0.82545,2.033239 0.49116,2.367535 -0.87763,0.877629 -8.61364,0.524796 -17.27448,-0.787875 z"
       id="path2991"
       style="fill:#0000fe"
       inkscape:connector-curvature="0" />
    <path
       sodipodi:nodetypes="sssssssssssssccccscssscscccsssssssssscsssssscccssccscccssccsssssssccccsscccccssssscccsssccsssssssscccsssscssssssssssscccsssccssscscssssscssssssssssssssssscssssscsscsssscsssscccssssssssccsscccssscccsssssssssccccssssccccccsscccccccssccccc"
       inkscape:connector-curvature="0"
       id="path2989"
       d="m 133.37305,43.236328 c -1.41909,0 -3.2503,6.257369 -2.20117,7.521484 0.6631,0.798989 0.41624,1.636238 -0.77149,2.617188 -1.36725,1.129215 -4.89455,1.405908 -16.24609,1.271484 -9.73246,-0.115252 -18.445557,0.42252 -26.500003,1.638672 -6.6,0.996544 -16.95,2.326788 -23,2.955078 -12.573174,1.305721 -17.206581,2.324638 -20.019531,4.400391 -4.55811,3.363556 -0.805856,3.689879 28.597656,2.498047 22.174161,-0.8988 30.546498,-0.880628 38.087888,0.07617 9.19654,1.166796 16.43373,0.786781 19.93164,-1.046875 0.95921,-0.502831 2.04622,-0.389327 2.72266,0.287109 0.82669,0.826691 1.77079,0.832507 3.55078,0.02148 1.85198,-0.843817 3.80699,-0.740491 8.27734,0.435547 3.21889,0.846813 7.73807,1.82844 10.04297,2.181641 l 4.18946,0.642578 -4.20508,6.894531 c -3.97917,6.52252 -4.41246,6.9007 -8.01953,7 -2.93309,0.0808 -4.5657,-0.586871 -7.07422,-2.894531 -1.79361,-1.65 -3.4974,-3.675 -3.78516,-4.5 -0.28779,-0.82503 -0.84352,-1.20514 -1.23437,-0.84375 -0.9482,0.87672 2.02296,6.51134 4.02343,7.63086 1.03313,0.57817 1.70613,2.647769 1.9336,5.9375 0.3029,4.38053 0.01,5.361999 -2.2168,7.412109 -1.41146,1.29969 -3.83103,5.009249 -5.37695,8.244139 -3.71796,7.77992 -8.28517,13.67965 -20.92578,27.02929 l -10.5,11.08985 11.5,-11.10938 c 6.325,-6.11058 12.5125,-11.63889 13.75,-12.28515 3.23201,-1.68788 6.59203,0.20776 5.67968,3.20508 -0.97637,3.20762 -2.85446,5.09297 -13.92968,13.97656 -9.49497,7.61606 -15.16526,12.58538 -11.5,10.07812 6.25466,-4.27857 22.41314,-18.11855 26.5,-22.69726 11.1403,-12.48102 13.52704,-16.13952 14.95703,-22.917968 0.31908,-1.5125 1.17698,-2.75 1.90625,-2.75 2.51661,0 4.63803,-3.556975 4.51953,-7.578125 -0.12431,-4.21829 5.23888,-17.421875 7.07617,-17.421875 0.71285,0 1.04102,22.889362 1.04102,72.490228 l 0,72.49219 -52.75,0.26758 c -29.012504,0.14733 47.825,0.27139 170.75,0.27539 122.925,0.004 180.5344,-0.12062 164.6875,-0.27539 -26.79867,-0.26172 -28.77595,-0.40231 -28.29883,-2.01563 0.28213,-0.95402 2.08628,-9.60937 4.00976,-19.23437 5.67836,-28.41411 12.40075,-60.54441 13.60157,-65.00391 0.77093,-2.86291 0.79879,-4.53369 0.0859,-5.39258 -0.008,-0.01 -0.0118,-0.027 -0.0195,-0.0371 l -0.91992,0 c 0.47634,0.525 0.85352,1.22605 0.85352,1.63282 0,0.44 -1.125,0.80078 -2.5,0.80078 -1.61423,0 -1.38013,0.34964 -1.35499,-1.66618 l -0.73242,-0.38371 c -0.37409,0.95057 -0.87731,2.09366 -0.58447,3.55184 0.90333,4.49795 0.57637,7.23891 -2.69922,22.5586 l -3.72851,17.43945 -22.70117,0.26953 c -13.99447,0.1657 -22.69922,0.64508 -22.69922,1.25 0,0.6127 8.49215,0.98047 22.60937,0.98047 l 22.60742,0 -0.69336,2.75 c -0.67429,2.6774 -8.52343,41.29039 -8.52343,41.92969 0,0.17637 -12.08129,0.32031 -39.06836,0.32031 -46.26146,0 -29.03709,-0.10007 -28.54883,-1.75 0.28483,-0.9625 2.09214,-9.625 4.01562,-19.25 1.92349,-9.625 5.5708,-27.4 8.10547,-39.5 6.56283,-31.32956 6.26545,-28.5 2.9961,-28.5 -2.57746,0 -2.72526,0.22577 -2.21485,3.37109 0.33332,2.05403 -0.90487,10.15736 -3.16992,20.75 l -3.7168,17.37891 -34.25,0.26367 -34.25,0.26367 0.30079,-51.01367 c 0.29748,-50.447288 0.27858,-51.013847 -1.69922,-51.013668 -1.98466,1.79e-4 -1.99708,0.570993 -1.71289,74.499998 l 0.28515,74.5 -26.55468,0 -26.55665,0 0.53516,-2.25 c 0.29374,-1.2375 3.42476,-16.425 6.95899,-33.75 3.53422,-17.325 7.1849,-34.875 8.11132,-39 3.01742,-13.43542 3.01943,-13 -0.0664,-13 -2.49376,0 -2.68725,0.27061 -2.26172,3.16992 0.25593,1.74376 -1.17881,10.85626 -3.1875,20.25 l -3.65235,17.08008 -34.19921,0.26367 -34.19922,0.26172 0,-49.01172 c 0,-35.031618 0.31396,-49.013668 1.10156,-49.013668 0.60607,0 4.12455,1.873219 7.81836,4.16211 l 6.7168,4.162109 -1.54297,4.289062 c -1.48715,4.13561 -1.4582,4.40114 0.79101,7.44336 2.15297,2.91204 2.20632,3.280007 0.70703,4.779297 -1.37122,1.37122 -1.9483,1.423291 -3.70507,0.326172 -2.70391,-1.68861 -3.97904,-0.434219 -1.44336,1.419921 2.84359,2.079277 5.30138,1.737227 7.08593,-0.986328 0.86663,-1.32264 2.6888,-2.68404 4.04883,-3.02539 1.36004,-0.34135 3.34589,-1.494327 4.41211,-2.560547 1.8322,-1.8322 2.14637,-1.850443 5.72461,-0.345703 5.26182,2.21272 15.43077,2.158313 24.04883,-0.128907 l 7.26562,-1.927734 14.38868,-14.591797 c 11.32005,-11.47856 14.61736,-15.438119 15.45507,-18.554687 2.63284,-9.795085 1.14195,-11.963825 -3.69922,-5.38086 -1.68532,2.291686 -9.05168,9.506673 -16.36914,16.035156 -13.82825,12.337277 -20.05211,15.895297 -25.03515,14.310547 -1.24849,-0.39706 -6.18022,-0.772084 -10.95899,-0.833984 -8.51793,-0.11043 -8.91526,-0.228543 -20.2832,-5.970703 -6.37769,-3.2215 -13.175,-6.92823 -15.10547,-8.238281 -1.93048,-1.310049 -4.6656,-2.382813 -6.07617,-2.382813 -1.41057,0 -6.34006,-0.990767 -10.95508,-2.201172 -7.12115,-1.867711 -8.39062,-2.514852 -8.39062,-4.277344 0,-3.251516 -2.82293,-6.521484 -5.62891,-6.521484 -3.21089,0 -5.50187,-2.181242 -4.29492,-4.08789 1.10861,-1.75131 1.18682,-3.91211 0.14258,-3.912114 z m 127.26953,5.042969 c 0.37497,0.05258 0.45897,0.603367 0.13867,1.707031 -0.27933,0.9625 -1.02949,3.762175 -1.66602,6.220703 -0.98032,3.786404 -3.32081,6.656263 -15.30859,18.765625 l -14.15234,14.294922 -3.25,-2 c -4.14432,-2.55174 -4.09556,-4.148672 0.22656,-7.445312 7.44632,-5.67958 27.74815,-24.424096 30.22852,-27.910157 1.72462,-2.4239 3.15825,-3.720441 3.7832,-3.632812 z m -150.11524,7.388672 c 1.05579,-0.0017 2.1015,0.0064 3.12696,0.02344 13.38941,0.222324 14.69213,0.435296 29.88281,4.888672 8.73589,2.561054 17.51089,4.707684 19.5,4.771484 1.98912,0.0638 2.82969,0.322691 1.86719,0.574219 -0.9625,0.251527 -1.8063,1.100094 -1.875,1.884766 -0.20711,2.363788 -0.38303,2.788534 -2.66797,6.425781 -1.2093,1.925 -2.20113,3.895426 -2.20313,4.378906 -0.006,1.49603 -9.30392,20.077199 -10.43554,20.855469 -1.37087,0.942804 -1.70673,0.915454 -3.81836,-0.314453 -2.45023,-1.42713 -2.1791,-3.593723 0.68554,-5.470703 1.33984,-0.8779 5.23749,-6.326365 8.66016,-12.109375 3.42267,-5.783 6.80431,-11.097284 7.51562,-11.808594 1.7102,-1.710195 0.73979,-2.527888 -3.02734,-2.548828 -1.69583,-0.0094 -6.45898,-0.943199 -10.58398,-2.076172 -11.87667,-3.262048 -11.91595,-3.26623 -15.47852,-1.347656 -2.80612,1.511195 -3.63136,1.59634 -4.94531,0.505859 -2.2773,-1.889992 -1.93614,-4.974366 0.67383,-6.095703 1.73008,-0.743306 1.81285,-0.908187 0.35742,-0.716797 -2.84294,0.373851 -4.35937,3.313027 -2.9082,5.636719 1.57596,2.523513 0.75947,3.126789 -4.11524,3.037109 -7.00959,-0.128949 -20.23975,-2.418292 -18.33398,-3.171875 0.9625,-0.380594 1.75,-1.31134 1.75,-2.068359 0,-1.972613 -3.32127,-4.703029 -5.578128,-4.585937 -1.5115,0.07842 -1.407978,0.243923 0.484375,0.773437 1.322953,0.370185 2.886653,1.43785 3.476563,2.373047 2.14959,3.407801 -1.6845,4.486481 -18.339844,5.158203 -8.548161,0.344753 -21.055469,0.897797 -27.792969,1.230469 -7.993022,0.394665 -12.25,0.253875 -12.25,-0.40625 0,-1.434902 7.427155,-4.226727 11.269531,-4.236328 3.521596,-0.0088 20.973878,-2.179356 35.230469,-4.38086 4.614559,-0.712581 12.482453,-1.168095 19.873043,-1.17969 z m 28.17774,0.919922 c 0.697,-0.05769 1.54111,0.31065 2.25976,1.029297 1.71544,1.715437 0.93564,1.965918 -2.24414,0.720703 -1.44183,-0.564622 -1.60843,-0.957186 -0.65429,-1.546875 0.18941,-0.117061 0.40634,-0.183895 0.63867,-0.203125 z m -2.35938,6.664062 c 2.50438,0.01159 2.94385,0.250721 1.8086,0.984375 -1.94393,1.256262 -3.72359,1.256262 -4.5,0 -0.36506,-0.590673 0.73686,-0.993375 2.6914,-0.984375 z m 32.22266,4.984375 c 0.22827,0 5.96577,2.8192 12.75,6.265625 6.78423,3.44643 13.4239,6.70893 14.75391,7.25 3.79145,1.54242 4.99419,4.295269 2.64062,6.042969 -1.06762,0.79279 -2.19262,1.426856 -2.5,1.410156 -1.19743,-0.0652 -4.71568,-2.421144 -8.05859,-5.396484 -1.925,-1.71334 -7.20137,-5.35538 -11.72461,-8.09375 -4.52324,-2.73837 -8.2357,-5.541016 -8.25,-6.228516 -0.0143,-0.6875 0.1604,-1.25 0.38867,-1.25 z m 36.42773,13.470703 c 2.20129,-0.0632 5.12413,0.145113 7.39258,0.564453 3.73836,0.69146 6.36037,0.689691 8.18945,-0.0059 1.78043,-0.67696 2.47974,-0.683188 2.06836,-0.01758 -1.03774,1.6791 0.48417,4.846479 2.66016,5.537109 2.57707,0.81794 1.46311,1.802189 -3.65234,3.230469 -6.0954,1.70188 -13.53017,2.192951 -18.26563,1.207031 -6.00496,-1.25023 -6.61285,-1.85647 -4.00586,-3.99414 1.91051,-1.56657 2.08273,-2.172377 1.08594,-3.810547 -1.07725,-1.77037 -0.83902,-2.002018 2.61719,-2.554688 0.52283,-0.0836 1.17638,-0.13519 1.91015,-0.15625 z m -21,0.271485 c 0.47088,0.003 1.12801,0.248248 1.91407,0.798828 1.23464,0.86478 2.24414,1.996815 2.24414,2.515625 0,1.45843 -2.61376,1.113942 -3.97266,-0.523438 -1.3594,-1.63799 -1.22149,-2.798315 -0.18555,-2.791015 z m -29.03125,7.533203 c 0.17359,0.0735 0.1838,0.68495 0.18555,1.77539 0.002,1.4025 -0.53531,3.09 -1.19531,3.75 -1.20302,1.20302 -2.80078,1.614537 -2.80078,0.722657 0,-0.26171 0.89815,-1.94921 1.99609,-3.75 1.09755,-1.80014 1.59125,-2.592557 1.81445,-2.498047 z m -14.37695,6.095703 c 0.35676,-0.05446 0.56641,0.238902 0.56641,0.951172 0,1.95653 4.47742,5.118316 5.95508,4.205076 0.57418,-0.35487 1.04492,0.0781 1.04492,0.96289 0,2.31641 -2.78739,7.43196 -6.38672,11.72071 -1.71255,2.04058 -4.12602,4.96558 -5.36328,6.5 -1.23726,1.53443 -1.98977,2.03484 -1.67188,1.11328 0.38033,-1.10256 -0.30333,-2.25354 -2,-3.36524 -2.39401,-1.56863 -2.75691,-1.57167 -5.07812,-0.0508 -3.45566,2.26424 -3.13678,1.23233 1.30859,-4.22851 2.09508,-2.57368 4.87308,-7.04247 6.17188,-9.92969 1.99315,-4.430744 4.38284,-7.715508 5.45312,-7.878908 z m -38.93359,46.425778 -4.203128,3.35157 c -4.51972,3.6035 -7.943025,9.72488 -6.923828,12.38085 0.843975,2.19937 1.378091,1.89716 8.726562,-4.93554 3.493314,-3.24813 5.461334,-5.41948 4.375004,-4.82617 -1.08634,0.59332 -3.981584,3.13893 -6.433598,5.65625 -4.740809,4.86706 -6.041015,5.51899 -6.041015,3.02734 0,-2.6062 2.878551,-7.30479 6.785156,-11.07227 z m 65.5,30.20313 34.10937,0 34.10742,0 -0.69336,2.75 c -0.67429,2.6774 -8.52343,41.29039 -8.52343,41.92969 0,0.17637 -13.275,0.32031 -29.5,0.32031 l -29.5,0 0,-22.5 z m 118,0 34.10937,0 34.10742,0 -0.69336,2.75 c -0.67429,2.6774 -8.52343,41.29039 -8.52343,41.92969 0,0.17637 -13.275,0.32031 -29.5,0.32031 l -29.5,0 0,-22.5 z"
       style="fill:#000000" />
    <g
       transform="matrix(-1,0,0,1,811.41857,-251.97418)"
       id="g4321">
      <path
         sodipodi:nodetypes="sssssssssssssscccscssssssss"
         inkscape:connector-curvature="0"
         style="fill:#000000"
         d="m 371.74805,334.58594 c -0.64161,0.038 -1.42331,0.27801 -2.54493,0.68359 -1.83517,0.6636 -4.21689,1.20508 -5.29296,1.20508 -6.53645,0 -8.78814,8.33978 -3.59571,13.31445 1.54259,1.4779 3.56759,2.68555 4.5,2.68555 0.9324,0 1.69532,0.45905 1.69532,1.01953 0,1.16402 -2.78302,0.62625 -11.39258,-2.20117 -6.34477,-2.08365 -9.13576,-1.36216 -6.5918,1.70312 1.1813,1.42337 1.03128,1.52871 -1.33203,0.93555 -2.02142,-0.50734 -2.82845,-0.24281 -3.33984,1.08984 -0.48391,1.26107 0.4539,2.80894 3.32421,5.48633 3.42498,3.19479 5.06566,3.90491 11.41602,4.93555 13.03651,2.11579 12.9736,2.08459 15.08008,7.44726 1.77622,4.52191 1.79456,4.97298 0.25,6.67969 -1.57911,1.7449 -1.11746,4.15588 0.52596,4.33856 1.83632,0.3289 5.24177,0.65779 5.24177,0.65779 0.0203,-0.16984 0.7422,-1.77769 0.93175,-3.14873 0.46556,-3.0677 0.13994,-4.084 -0.71119,-7.31051 -0.73121,-2.77189 -1.16834,-5.20081 -0.9707,-5.39844 0.19763,-0.19763 3.09482,0.13605 6.4375,0.74219 5.07057,0.91947 6.57415,0.84557 9.07421,-0.44726 6.19669,-3.20442 6.39687,-9.50546 0.44532,-14.04493 -4.56693,-3.48337 -17.61478,-9.48437 -20.62305,-9.48437 -1.80716,0 -2.67134,-0.8469 -3.66601,-3.59766 -1.67192,-4.62355 -0.1631,-6.67448 2.88281,-3.91797 2.80342,2.53706 3.91899,0.97367 1.22656,-1.71875 -1.22065,-1.22065 -1.90137,-1.71763 -2.97071,-1.65429 z"
         id="path4248" />
      <path
         inkscape:connector-curvature="0"
         style="fill:#fefefe"
         d="m 373.50898,382.02518 c 0,-0.79767 0.75626,-1.87353 1.68057,-2.3908 1.55261,-0.86889 1.51393,-1.37596 -0.50808,-6.65978 -1.8446,-4.82025 -1.93873,-5.62338 -0.59878,-5.1092 0.87443,0.33555 1.98572,0.61009 2.46953,0.61009 0.48382,0 1.3738,1.9125 1.97774,4.25 0.60393,2.3375 1.3266,5.0375 1.60593,6 0.36918,1.27211 -0.0653,1.75 -1.59091,1.75 -1.15432,0 -2.35779,0.675 -2.67437,1.5 -0.73564,1.91703 -2.36163,1.95124 -2.36163,0.0497 z"
         id="path4283" />
      <path
         inkscape:connector-curvature="0"
         style="fill:#fefefe"
         d="m 377.50898,367.476 c -24.64615,-3.70899 -25.96416,-4.03015 -29.5843,-7.20867 -4.99022,-4.38148 -4.565,-7.01368 0.78725,-4.8732 4.73569,1.89392 6.31835,2.39431 7.06561,2.23393 0.42271,-0.0907 3.94618,0.32808 7.82992,0.93066 5.31652,0.82489 9.67513,0.78584 17.63927,-0.15801 l 10.57791,-1.25362 1.92464,2.37683 c 3.12419,3.85821 1.04679,10.14227 -3.2403,9.80183 -0.825,-0.0655 -6.675,-0.8979 -13,-1.84975 z"
         id="path4279" />
      <path
         inkscape:connector-curvature="0"
         style="fill:#fefefe"
         d="m 359.72294,357.05393 c -4.97361,-0.8233 -7.97108,-1.89111 -9.44445,-3.36448 -2.92571,-2.92572 -1.65462,-3.77956 2.939,-1.97425 2.08532,0.81953 6.11993,2.03758 8.96581,2.70676 2.84587,0.66919 5.41925,1.85499 5.71861,2.63511 0.29937,0.78013 0.22092,1.36994 -0.17431,1.31068 -0.39524,-0.0593 -3.99734,-0.65047 -8.00466,-1.31382 z"
         id="path4273" />
      <path
         inkscape:connector-curvature="0"
         style="fill:#fefefe"
         d="m 368.39319,355.72549 c -1.99262,-5.13905 3.74868,-10.80712 6.99033,-6.90117 0.93466,1.1262 0.91678,2.35129 -0.081,5.54826 -1.59025,5.09535 -5.18531,5.79929 -6.90935,1.35291 z"
         id="path4271" />
      <path
         inkscape:connector-curvature="0"
         style="fill:#fefefe"
         d="m 360.53652,349.0048 c -1.92551,-2.0496 -2.10478,-2.73132 -1.05187,-4 1.90711,-2.29792 5.75249,-1.87383 7.52396,0.82978 3.37253,5.14714 -2.09766,7.8266 -6.47209,3.17022 z"
         id="path2995" />
      <path
         inkscape:connector-curvature="0"
         style="fill:#0000fe"
         d="m 396.11901,364.88864 c 0.44011,-2.3639 0.006,-3.74831 -1.85464,-5.91114 l -2.42935,-2.82429 -8.16302,0.95072 c -8.85123,1.03088 -9.23107,0.80977 -7.00436,-4.07733 0.9654,-2.1188 0.85614,-2.87727 -0.65498,-4.54705 -1.19006,-1.315 -1.38124,-2.00406 -0.55602,-2.00406 1.79621,0 17.12473,7.49477 19.78262,9.67257 2.95216,2.41891 3.85712,7.22758 1.84947,9.82743 -1.47398,1.90876 -1.51821,1.85919 -0.96972,-1.08685 z"
         id="path2991-4" />
    </g>
  </g>
</svg>
