<?xml version="1.0" encoding="UTF-8" standalone="no"?>
<!-- Created with Inkscape (http://www.inkscape.org/) -->

<svg
   xmlns:dc="http://purl.org/dc/elements/1.1/"
   xmlns:cc="http://creativecommons.org/ns#"
   xmlns:rdf="http://www.w3.org/1999/02/22-rdf-syntax-ns#"
   xmlns:svg="http://www.w3.org/2000/svg"
   xmlns="http://www.w3.org/2000/svg"
   xmlns:sodipodi="http://sodipodi.sourceforge.net/DTD/sodipodi-0.dtd"
   xmlns:inkscape="http://www.inkscape.org/namespaces/inkscape"
   version="1.1"
   width="556"
   height="307"
   id="svg2"
   inkscape:version="0.91 r13725"
   sodipodi:docname="ub540203.svg">
  <sodipodi:namedview
     pagecolor="#c1c1c1"
     bordercolor="#666666"
     borderopacity="1"
     objecttolerance="10"
     gridtolerance="10"
     guidetolerance="10"
     inkscape:pageopacity="0"
     inkscape:pageshadow="2"
     inkscape:window-width="1537"
     inkscape:window-height="839"
     id="namedview11"
     showgrid="false"
     inkscape:zoom="1.0971223"
     inkscape:cx="225.89472"
     inkscape:cy="169.82986"
     inkscape:window-x="0"
     inkscape:window-y="0"
     inkscape:window-maximized="0"
     inkscape:current-layer="svg2" />
  <metadata
     id="metadata8">
    <rdf:RDF>
      <cc:Work
         rdf:about="">
        <dc:format>image/svg+xml</dc:format>
        <dc:type
           rdf:resource="http://purl.org/dc/dcmitype/StillImage" />
        <dc:title></dc:title>
      </cc:Work>
    </rdf:RDF>
  </metadata>
  <defs
     id="defs6" />
  <g
     id="g4382"
     transform="translate(-83.944538,5.7434625)">
    <g
       transform="matrix(0.96339378,0,0,0.96339378,148.46658,-283.42588)"
       id="g4291">
      <path
         sodipodi:nodetypes="csssssssssssscsccsssssssc"
         inkscape:connector-curvature="0"
         id="path4218"
         d="m 379.65625,304.95508 c -0.9355,-0.0763 -2.22325,1.92325 -3.82617,5.99804 -2.30609,5.86235 -2.3535,6.6424 -2.11133,34 0.13632,15.4 0.59996,29.575 1.03125,31.5 0.4333,1.93395 0.27342,8.0083 -0.35742,13.57618 -1.06314,9.38341 -1.3205,10.15571 -3.73242,11.22265 -1.42457,0.63016 -3.52121,0.90172 -4.66016,0.60352 -1.7176,-0.44972 -2.27193,0.12809 -3.25,3.39258 -1.41999,4.73951 -1.44419,5.20508 -0.25977,5.20507 0.5063,0 1.21768,-1.34998 1.58008,-3 0.3624,-1.64999 1.29878,-3 2.08008,-3 1.68954,0 1.65495,-0.30646 0.43555,3.94532 -1.32038,4.60391 0.81182,7.0547 6.13867,7.05468 l 3.8457,0 0,9.43946 c 0,5.19254 0.23706,8.4791 1.24731,9.08194 0.55709,0.31017 2.73053,0.94422 4.243,1.33154 1.17028,0.33522 2.18081,0.13945 2.88079,-0.74161 0.84825,-1.06767 0.58646,-1.72823 -1.13477,-2.87109 -2.04819,-1.35995 -2.23633,-2.26617 -2.23633,-10.78125 0,-6.10858 0.4943,-10.26878 1.43946,-12.12891 0.79116,-1.55707 2.19717,-5.46448 3.125,-8.68359 1.87582,-6.50817 1.61098,-12.94119 -2.43946,-59.19531 -1.11004,-12.67618 -2.15562,-25.95118 -2.32226,-29.5 -0.19824,-4.22181 -0.7813,-6.37287 -1.7168,-6.44922 z"
         style="fill:#000000" />
      <path
         sodipodi:nodetypes="ssssssscss"
         inkscape:connector-curvature="0"
         style="fill:#fefefe"
         d="m 384.77193,433.55187 c -0.24314,-1.03746 -1.10141,-1.18053 -2.20141,-1.86749 -1.77264,-1.10703 -2,-2.33202 -2,-10.77573 0,-6.97968 0.42046,-10.16841 1.57266,-11.92689 2.21514,-3.38073 1.5285,-7.94387 -1.255,-8.34013 -2.98257,-0.42461 -4.11555,2.17596 -3.83852,8.81068 0.12631,3.025 0.12957,9.89253 0.37526,15.25 l 0.30673,6.68857 c 0,1.81425 3.62506,1.02036 4.34592,2.53777 0.69817,1.46966 2.91155,0.54998 2.69436,-0.37678 z"
         id="path4259" />
      <path
         inkscape:connector-curvature="0"
         style="fill:#fefefe"
         d="m 375.58417,413.20231 c 0.008,-0.6875 0.29399,-2.375 0.63662,-3.75 l 0.62295,-2.5 -2.13661,2.20819 c -2.47773,2.56073 -2.80628,5.29181 -0.63661,5.29181 0.825,0 1.50614,-0.5625 1.51365,-1.25 z"
         id="path4253" />
      <path
         inkscape:connector-curvature="0"
         style="fill:#fefefe"
         d="m 384.00106,373.12676 c 1.46708,-1.07276 1.69531,-2.16935 1.19671,-5.75 -1.22459,-8.79445 -4.52359,-48.58195 -4.57481,-55.17445 -0.0288,-3.7125 -0.44214,-6.75 -0.91845,-6.75 -0.4763,0 -1.87501,2.76729 -3.10824,6.14953 -2.14771,5.8903 -2.2253,7.20763 -1.84055,31.25 0.34201,21.37197 0.65899,25.58323 2.13392,28.35047 1.84556,3.46261 4.15366,4.08722 7.11142,1.92445 z"
         id="path4239" />
      <path
         inkscape:connector-curvature="0"
         style="fill:#0000fe"
         d="m 377.01882,401.6152 c 0.74284,-2.34049 4.35181,-2.96278 6.23883,-1.07576 0.78285,0.78285 1.27964,0.77565 1.77491,-0.0257 1.26225,-2.04236 1.80235,-11.74751 1.08173,-19.43761 -0.65496,-6.98942 -0.86202,-7.52386 -2.56241,-6.61383 -3.15492,1.68846 -4.93587,1.11284 -6.99232,-2.25998 -2.16604,-3.55256 -2.46198,-2.42403 -0.98338,3.75 0.63653,2.65789 0.57564,7.37446 -0.18147,14.05715 -0.7926,6.99588 -0.82331,10.62201 -0.10089,11.91289 0.98501,1.76012 1.0739,1.7443 1.725,-0.30715 z"
         id="path4275" />
    </g>
    <g
       id="g2987">
      <path
         style="fill:#fefefe"
         id="path2997"
         d="m 405.24102,227.75 c -0.55213,-0.6875 -2.13811,-3.5 -3.5244,-6.25 -1.38628,-2.75 -7.03052,-11.40053 -12.54274,-19.2234 -11.45948,-16.26314 -12.14067,-17.68882 -9.20297,-19.26103 1.62297,-0.86859 2.70634,-0.72858 5.04299,0.65171 5.55218,3.27976 22.9861,37.20321 22.9861,44.72706 0,1.05524 -1.71589,0.6545 -2.75898,-0.64434 z M 207.5,167.9623 c -8.33515,-2.31434 -30.19247,-9.26253 -31.7356,-10.08839 C 174.1872,157.02982 173.16085,152 174.56581,152 c 0.3112,0 5.04574,1.15689 10.5212,2.57086 5.47547,1.41398 12.14825,2.65148 14.82841,2.75 2.68016,0.0985 4.66906,0.51664 4.41978,0.92914 -0.24928,0.4125 1.12323,0.75 3.05002,0.75 2.244,0 4.4938,0.85203 6.25897,2.37037 2.69614,2.31912 2.71847,2.4272 1.03271,5 -1.82358,2.78313 -2.4146,2.91423 -7.1769,1.59193 z m 157.92289,-1.72761 C 364.83048,165.83061 361.51641,159.65 358.0583,152.5 c -3.45812,-7.15 -6.74357,-13.28719 -7.30101,-13.6382 -1.09307,-0.68828 -0.18011,-2.8618 1.20206,-2.8618 0.46273,0 3.81954,5.12873 7.45958,11.39717 3.64004,6.26845 7.73489,12.12882 9.09966,13.02305 2.97448,1.94896 3.18974,4.13033 0.54715,5.5446 -2.27548,1.2178 -2.2553,1.2163 -3.64285,0.26987 z M 237.56858,161.6738 c -2.77067,-2.02596 -1.18648,-5.32421 3.2292,-6.72309 2.03622,-0.64507 7.92942,-3.37288 13.096,-6.06178 5.16658,-2.68891 9.55408,-4.88893 9.75,-4.88893 0.19592,0 0.35622,0.62842 0.35622,1.39649 0,0.76808 -3.28138,3.44169 -7.29195,5.94137 -4.01058,2.49968 -8.17201,5.51733 -9.24764,6.70589 -1.65336,1.82694 -6.52742,4.95625 -7.71962,4.95625 -0.19719,0 -1.17469,-0.59679 -2.17221,-1.3262 z M 359.2,161.8 c -0.66,-0.66 -1.19832,-2.3475 -1.19626,-3.75 0.004,-2.49243 0.0488,-2.47607 2,0.72417 1.09794,1.80079 1.99626,3.48829 1.99626,3.75 0,0.89188 -1.59698,0.47885 -2.8,-0.72417 z m -111.65051,-1.71993 c -0.3127,-0.50595 0.64498,-1.87448 2.12819,-3.04117 2.39994,-1.88779 2.79488,-1.94587 3.58852,-0.52772 1.64264,2.93524 -3.95037,6.4269 -5.71671,3.56889 z M 193.5,155.54793 c -14.35533,-3.00537 -19.5,-4.74145 -19.5,-6.58031 0,-1.65494 0.46913,-1.60987 6.25,0.60045 3.4375,1.31432 9.85,3.48691 14.25,4.82797 8.7458,2.66559 8.35892,3.11123 -1,1.15189 z M 165.97498,153.75 c -6.02455,-4.08193 -4.37314,-6.17917 2.8758,-3.65217 2.35363,0.82048 3.14922,1.70469 3.14922,3.5 0,3.00764 -1.74554,3.05173 -6.02502,0.15217 z m 2.37735,-4.74331 c -2.22107,-0.89615 -3.88364,-2.80872 -3.11219,-3.58017 0.24223,-0.24222 1.86229,-0.15603 3.60014,0.19154 2.19815,0.43963 3.15972,1.20254 3.15972,2.50694 0,2.05838 -0.45732,2.16892 -3.64767,0.88169 z m 99.09895,-9.00352 c 0.0521,-4.27742 1.0193,-5.24658 2.03673,-2.04094 0.50844,1.60196 -0.83008,6.03777 -1.82192,6.03777 -0.14494,0 -0.24161,-1.79857 -0.21481,-3.99683 z M 248.75,137.15988 C 237.31554,132.79479 234,131.1254 234,129.73316 c 0,-2.6142 2.91854,-3.31788 5.90682,-1.42417 1.42625,0.90382 7.08358,3.91887 12.57185,6.70009 5.48827,2.78122 10.34813,5.71695 10.79969,6.52384 0.45156,0.8069 0.68616,1.41998 0.52133,1.36241 -0.16483,-0.0576 -6.93719,-2.63852 -15.04969,-5.73545 z m 13.25,-1.9459 c 0,-0.55 0.675,-1.25902 1.5,-1.57561 1.79656,-0.6894 2.01503,-10.30225 0.47605,-20.94637 -1.14016,-7.88567 -0.14939,-10.99967 3.34161,-10.50268 1.89128,0.26924 2.14049,0.84416 1.86859,4.31068 -0.17257,2.2 -0.53579,9.5125 -0.80716,16.25 -0.3796,9.42477 -0.8073,12.25 -1.85446,12.25 -0.74858,0 -2.07286,0.27314 -2.94284,0.60699 C 262.7118,135.94083 262,135.76398 262,135.21398 Z m 85,0.52365 c 0,-0.14431 3.9375,-4.30105 8.75,-9.23721 4.8125,-4.93616 9.65,-10.78059 10.75,-12.98763 2.49523,-5.00641 5.90392,-5.91514 7.66767,-2.04413 0.9588,2.10434 0.9126,2.8633 -0.24032,3.94758 C 362.55439,126.11201 350.57744,136 348.99503,136 347.89776,136 347,135.88193 347,135.73763 Z m -104.10834,-6.67936 c -1.8499,-1.54056 -2.02298,-1.99927 -0.7641,-2.025 1.71303,-0.035 4.51417,2.65833 3.6566,3.5159 -0.27546,0.27546 -1.57708,-0.39544 -2.8925,-1.4909 z m -30.14958,-11.1428 c -0.96686,-0.56304 -2.17326,-0.76702 -2.6809,-0.45328 -0.50764,0.31374 -1.20326,0.11694 -1.54582,-0.43733 -0.34256,-0.55427 -5.10011,-4.86253 -10.57233,-9.57391 l -9.94951,-8.566146 1.75324,-2.358184 1.75324,-2.358185 3,2.352313 c 3.25432,2.551721 17.29877,12.141352 21.76028,14.858042 2.67745,1.63035 2.71419,1.76991 1.22432,4.651 -1.67483,3.23875 -2.11707,3.41459 -4.74252,1.88568 z M 362.25,117.26672 c -1.78379,-0.61846 -1.54739,-3.93862 0.33179,-4.65973 2.26921,-0.87078 2.41989,-0.79911 2.4029,1.14301 -0.0214,2.44452 -1.25429,4.02999 -2.73469,3.51672 z M 259.0318,113.25 c 0.0175,-1.5125 0.63928,-3.55073 1.38174,-4.52939 1.21285,-1.5987 1.41271,-1.61578 1.96819,-0.16821 0.34005,0.88615 0.61827,2.92437 0.61827,4.52939 0,2.25154 -0.4569,2.91821 -2,2.91821 -1.52286,0 -1.99241,-0.65607 -1.9682,-2.75 z M 182.96065,93.725845 c -3.54637,-3.2535 -6.76756,-9.252267 -5.59687,-10.422954 0.7072,-0.707208 9.37781,6.340338 11.03736,8.971265 0.79667,1.262988 0.68843,2.064846 -0.42965,3.182926 -1.32615,1.326145 -1.89094,1.13101 -5.01084,-1.731237 z m 204.01174,1.22257 C 384.35235,90.05282 385.73186,88.783704 399,83.883283 c 12.37545,-4.570716 12.51744,-4.597013 14.25,-2.639216 0.9625,1.087625 1.75,2.273484 1.75,2.635241 C 415,84.623766 390.49881,97 389.02501,97 c -0.52505,0 -1.44873,-0.923213 -2.05262,-2.051585 z m 28.6826,-13.777156 c -2.22643,-2.460172 -2.11066,-2.843394 1.09501,-3.62464 1.5125,-0.368609 5.47115,-1.985373 8.79701,-3.59281 C 435.74473,69.025095 442.15649,68.927686 435.25,73.8064 432.74628,75.575018 418.55627,83 417.67995,83 c -0.20349,0 -1.11472,-0.822933 -2.02496,-1.828741 z M 263.4247,74.854391 c -1.38085,-2.670272 -1.60479,-6.712497 -1.48198,-26.75 0.13009,-21.224817 0.3554,-24.184052 2.23497,-29.354391 1.14966,-3.1625 2.48,-5.75 2.9563,-5.75 0.47631,0 0.86601,2.591976 0.86601,5.759946 0,5.758614 2.46096,39.136502 3.60747,48.928034 0.54528,4.656766 0.34515,5.450314 -1.95454,7.75 -3.31752,3.317519 -4.25638,3.229547 -6.22823,-0.583589 z"
         inkscape:connector-curvature="0" />
      <path
         style="fill:#fe0000"
         id="path2993"
         d="m 249.34157,237.58812 c -20.70437,-3.95249 -38.23178,-13.37103 -52.15011,-28.02342 -8.57877,-9.0312 -12.37253,-14.52343 -17.19378,-24.8914 -5.73141,-12.32525 -7.5175,-21.54894 -7.39195,-38.1733 0.12243,-16.21152 1.90157,-24.38601 8.26119,-37.95709 4.97584,-10.618158 8.73232,-16.06224 17.32454,-25.107613 7.24279,-7.624781 21.8098,-18.476607 21.80675,-16.245145 -9.8e-4,0.720416 -2.13848,2.653677 -4.75,4.296136 -7.20357,4.530535 -20.44234,17.70921 -25.77621,25.659214 -5.41764,8.074858 -10.33354,19.138258 -13.04335,29.354498 -2.60504,9.82126 -2.60376,32.1872 0.002,42 4.35982,16.4157 10.80493,27.86086 22.43212,39.83469 12.05138,12.41067 27.12375,21.32938 43.63683,25.82105 11.5365,3.13801 35.47832,3.14018 46.93306,0.004 11.77109,-3.22253 21.445,-7.91027 20.86907,-10.11264 -0.33868,-1.29513 0.29218,-1.92978 2.3681,-2.38232 1.55637,-0.33929 3.84227,-0.9052 5.07977,-1.25759 2.78902,-0.79419 2.95968,1.03649 0.56479,6.05863 -1.72418,3.61564 -3.96574,4.60711 -4.90168,2.16808 -0.40827,-1.06393 -2.24522,-0.62174 -8.31019,2.00039 -4.28233,1.85144 -11.34485,4.30045 -15.69449,5.44225 -10.21786,2.68225 -30.02041,3.4292 -40.06686,1.51133 z M 419.20443,190.25 c 0.2041,-0.4125 2.48919,-5.025 5.07797,-10.25 7.34785,-14.83038 9.0494,-22.53954 9.0494,-41 0,-18.63223 -1.70252,-26.2554 -9.26839,-41.5 -5.27812,-10.634987 -11.57356,-18.125469 -20.47225,-24.358434 -4.20744,-2.947049 -4.7128,-3.100165 -4.12558,-1.25 1.14683,3.613323 -1.93096,2.452759 -3.78037,-1.425493 -2.61912,-5.492358 -2.28515,-6.755467 1.56479,-5.918126 5.00859,1.089342 7.75,2.301682 7.75,3.427302 C 405,68.538862 404.26294,69 403.36209,69 c -0.95544,0 0.36128,1.562536 3.16004,3.75 11.20922,8.760942 18.27532,18.685685 23.41342,32.88551 7.91984,21.88756 7.94049,44.82063 0.0599,66.5409 C 426.61671,181.48878 421.51387,191 419.89644,191 c -0.58471,0 -0.89611,-0.3375 -0.69201,-0.75 z"
         inkscape:connector-curvature="0" />
      <path
         style="fill:#0000fe"
         id="path2991"
         d="M 372.84084,181.74063 C 367.96723,176.09555 365,171.08132 365,168.49064 c 0,-0.88477 0.46979,-1.31833 1.04398,-0.96346 1.46491,0.90536 5.95602,-2.24102 5.95602,-4.17268 0,-2.73393 2.84706,0.40173 5.97954,6.58567 1.54898,3.05791 4.21226,7.30921 5.9184,9.44733 3.75415,4.7047 3.84153,5.14313 0.60206,3.02054 -2.32121,-1.52091 -2.6844,-1.51723 -5.07842,0.0514 -1.51473,0.99249 -2.35275,2.27754 -2.03139,3.11501 0.86503,2.25424 0.28385,1.76446 -4.54935,-3.83381 z M 215.50735,166.62912 c 1.63941,-2.50205 1.64557,-2.80267 0.0925,-4.51879 -1.58485,-1.75124 -1.47247,-1.86408 2.36981,-2.37944 2.21846,-0.29755 6.46442,-1.54854 9.43546,-2.77997 5.92386,-2.4553 9.09544,-2.10341 8.14116,0.90328 -0.80911,2.54926 0.33164,5.1458 2.26071,5.1458 4.39087,0 -1.44956,1.87222 -10.77154,3.45295 -5.7555,0.97596 -11.099,2.01794 -11.87444,2.31551 -1.05396,0.40444 -0.96652,-0.13565 0.34634,-2.13934 z m 10.8653,-37.53565 c -3.37004,-2.13815 -6.44296,-4.39822 -6.82872,-5.02238 -0.38575,-0.62417 -2.70825,-2.0782 -5.16111,-3.23118 -2.45286,-1.15297 -4.25598,-2.30009 -4.00693,-2.54914 0.24905,-0.24904 1.47371,0.0936 2.72146,0.76133 1.95464,1.04609 2.50922,0.91704 4.00677,-0.93236 0.95597,-1.18057 1.88734,-2.59413 2.06971,-3.14124 0.41294,-1.23882 15.87427,6.41266 17.5583,8.68922 1.03275,1.39612 0.87092,1.84841 -1,2.79494 -1.50136,0.75957 -2.21922,2.01454 -2.19271,3.83331 0.0217,1.48722 -0.20332,2.69975 -0.5,2.69453 -0.29668,-0.005 -3.29673,-1.75889 -6.66677,-3.89703 z M 374.68096,110.63584 C 373.73107,109.18613 372.09083,108 371.03596,108 c -5.07166,0 -1.88005,-5.58236 7.32956,-12.819905 C 383.73413,90.961068 385,90.329944 385,91.872346 c 0,1.048347 0.85961,2.967662 1.91025,4.265144 l 1.91025,2.359059 -4.66025,5.131471 c -2.56314,2.82231 -5.35594,6.14671 -6.20623,7.38756 l -1.54599,2.2561 -1.72707,-2.63584 z m -113.22475,-7.95427 c -0.35973,-1.4333 -0.14817,-6.407495 0.47013,-11.053767 0.77321,-5.810305 0.81172,-9.802755 0.12337,-12.787785 -1.43945,-6.24214 -1.28744,-6.742189 0.93933,-3.090018 2.31906,3.803536 2.89273,3.917441 6.28618,1.248153 l 2.54493,-2.001847 0.71487,8.581928 c 0.99421,11.935264 -0.66755,22.252416 -2.98117,18.508896 -1.11304,-1.80094 -4.34275,-1.22661 -5.94201,1.05665 l -1.50156,2.14379 -0.65407,-2.606 z"
         inkscape:connector-curvature="0" />
      <path
         style="fill:#000000"
         id="path2989"
         d="m 182.26373,286.2512 19.76374,-0.29357 -0.52876,-2.22882 C 201.2079,282.50297 198.07831,267.325 194.54408,250 c -3.53422,-17.325 -7.18385,-34.875 -8.11027,-39 -2.91013,-12.95764 -2.91213,-13 -0.6147,-13 1.99232,0 3.83437,3.13363 2.81326,4.78581 -0.27319,0.44205 1.18292,8.65857 3.2358,18.25895 l 3.73252,17.45524 35.69966,0.26263 35.69965,0.26263 0,23.48737 0,23.48737 40,0 40,0 0,-22.5 0,-22.5 -11,0 c -6.66667,0 -11,-0.39394 -11,-1 0,-0.60644 4.35615,-1 11.06844,-1 l 11.06844,0 -0.15848,-52.25 -0.15849,-52.25 7.7382,-8 c 6.67149,-6.89721 7.44177,-8.04409 5.58785,-8.31984 -2.85049,-0.42397 -4.47332,-3.67258 -3.7691,-7.545 0.31358,-1.72434 0.7813,-5.12785 1.03938,-7.56336 0.27235,-2.5702 1.12264,-4.793868 2.0265,-5.299693 C 360.29923,97.292789 361,96.02298 361,94.95031 361,93.877639 361.45,93 362,93 c 1.4794,0 1.21299,3.106063 -0.42209,4.921259 -0.78215,0.868308 -1.73093,2.816241 -2.10841,4.328741 -0.63526,2.54544 -0.46118,2.75 2.3403,2.75 1.66465,0 3.62593,0.2257 4.35841,0.50156 0.75765,0.28534 2.0416,-0.74962 2.97828,-2.40069 0.90557,-1.59624 5.40557,-5.863502 10,-9.48281 7.02884,-5.537042 10.15968,-7.222073 19.74347,-10.626013 6.26448,-2.224999 11.55491,-3.880507 11.75651,-3.678907 0.2016,0.2016 -5.14888,2.351116 -11.88996,4.776703 -10.92676,3.931685 -12.28823,4.681488 -12.5489,6.911061 -0.16081,1.375498 0.37028,3.400498 1.18019,4.5 1.43924,1.953841 1.77977,1.846399 15.04239,-4.746194 C 409.89359,87.044801 416,84.229081 416,84.497555 c 0,0.268474 -5.7375,3.364396 -12.75,6.879828 -10.17143,5.099035 -13.81176,7.515261 -18,11.947297 -2.8875,3.05558 -5.25,5.99875 -5.25,6.54038 0,0.54163 -6.03299,6.4309 -13.40664,13.08726 l -13.40665,12.10247 3.65665,6.44287 c 3.45229,6.0828 3.86291,6.44453 7.34762,6.4726 2.03004,0.0164 3.96469,0.4726 4.29921,1.01387 0.33452,0.54127 2.20608,-0.61373 4.15902,-2.56667 1.95293,-1.95294 3.76725,-3.33433 4.03181,-3.06977 0.81332,0.81332 -1.61554,4.5469 -3.675,5.64909 -1.51093,0.80862 -1.81448,1.71091 -1.35258,4.02043 0.32756,1.63781 0.0978,3.57764 -0.51065,4.31074 -0.84891,1.02287 -0.39068,2.01201 1.96999,4.25248 1.69191,1.60576 4.35631,5.44001 5.92088,8.52056 1.56458,3.08054 3.93614,6.90554 5.27015,8.5 4.95384,5.92104 21.51284,36.85181 23.17351,43.28611 2.707,10.48832 -1.04507,10.89907 -6.17259,0.67571 -3.82586,-7.62809 -19.74149,-30.01534 -27.77069,-39.06281 -6.82576,-7.69141 -8.67087,-10.79072 -9.97181,-16.75 -0.33018,-1.5125 -1.19702,-2.75 -1.92629,-2.75 -2.51652,0 -4.72421,-3.61957 -4.47398,-7.33519 0.26022,-3.8639 -4.83084,-15.98749 -6.32568,-15.06363 C 350.37633,141.88545 350,174.48648 350,214.04792 l 0,71.92989 41.25,0.2725 c 22.6875,0.14987 -19.5,0.27744 -93.75,0.28348 -74.25,0.006 -126.10632,-0.12112 -115.23627,-0.28259 z M 264,263.5 l 0,-22.5 -34.10841,0 -34.10841,0 0.69257,2.75 C 197.15004,246.4274 205,285.04003 205,285.67933 205,285.8557 218.275,286 234.5,286 l 29.5,0 0,-22.5 z m 144,-35.10566 c 0,-7.52385 -17.43392,-41.4473 -22.9861,-44.72706 -2.33665,-1.38029 -3.42002,-1.5203 -5.04299,-0.65171 -2.9377,1.57221 -2.25651,2.99789 9.20297,19.26103 5.51222,7.82287 11.15646,16.4734 12.54274,19.2234 1.38629,2.75 2.97227,5.5625 3.5244,6.25 1.04309,1.29884 2.75898,1.69958 2.75898,0.64434 z m -30.60981,-42.8199 c -0.32136,-0.83747 0.51666,-2.12252 2.03139,-3.11501 2.39402,-1.56862 2.75721,-1.5723 5.07842,-0.0514 3.23947,2.12259 3.15209,1.68416 -0.60206,-3.02054 -1.70614,-2.13812 -4.36942,-6.38942 -5.9184,-9.44733 C 374.84706,163.75623 372,160.62057 372,163.3545 c 0,1.93166 -4.49111,5.07804 -5.95602,4.17268 -1.58153,-0.97744 -1.25012,2.1735 0.60613,5.76311 C 368.07366,176.04311 376.8723,187 377.65934,187 c 0.15284,0 0.0317,-0.6415 -0.26915,-1.42556 z m -8.32445,-19.60962 c 2.64259,-1.41427 2.42733,-3.59564 -0.54715,-5.5446 -1.36477,-0.89423 -5.45962,-6.7546 -9.09966,-13.02305 C 355.77889,141.12873 352.42208,136 351.95935,136 c -1.38217,0 -2.29513,2.17352 -1.20206,2.8618 0.55744,0.35101 3.84289,6.4882 7.30101,13.6382 5.45636,11.28157 7.35175,14.41651 8.75744,14.48469 0.17366,0.008 1.18616,-0.45052 2.25,-1.01987 z M 362,162.52417 c 0,-0.26171 -0.89832,-1.94921 -1.99626,-3.75 -1.95119,-3.20024 -1.99635,-3.2166 -2,-0.72417 -0.002,1.4025 0.53626,3.09 1.19626,3.75 1.20302,1.20302 2.8,1.61605 2.8,0.72417 z m -0.25497,-36.14487 c 5.91523,-5.29139 11.39728,-10.22477 12.18232,-10.96306 1.15292,-1.08428 1.19912,-1.84324 0.24032,-3.94758 -1.76375,-3.87101 -5.17244,-2.96228 -7.66767,2.04413 -1.1,2.20704 -5.9375,8.05147 -10.75,12.98763 -4.8125,4.93616 -8.75,9.0929 -8.75,9.23721 0,0.1443 0.89776,0.26237 1.99503,0.26237 1.10986,0 6.76687,-4.26859 12.75,-9.6207 z m 3.23966,-12.6293 c 0.017,-1.94212 -0.13369,-2.01379 -2.4029,-1.14301 -1.87918,0.72111 -2.11558,4.04127 -0.33179,4.65973 1.4804,0.51327 2.7133,-1.0722 2.73469,-3.51672 z m 19.17556,-10.12198 4.66025,-5.131471 -1.91025,-2.359059 C 385.85961,94.840008 385,92.920693 385,91.872346 c 0,-1.542402 -1.26587,-0.911278 -6.63448,3.307749 C 369.15591,102.41764 365.9643,108 371.03596,108 c 1.05487,0 2.69511,1.18613 3.645,2.63584 l 1.72707,2.63584 1.54599,-2.2561 c 0.85029,-1.24085 3.64309,-4.56525 6.20623,-7.38756 z M 263.7603,192.55354 263.5,148.10709 l -5.03909,3.19645 -5.0391,3.19646 1.49837,4.2213 c 1.43386,4.03956 1.3986,4.35626 -0.8192,7.35599 -2.13899,2.89313 -2.1924,3.25986 -0.69311,4.75915 1.37122,1.37122 1.9489,1.42184 3.70567,0.32472 2.70391,-1.68861 3.97944,-0.43354 1.44376,1.4206 -2.73811,2.00215 -5.33029,1.76069 -6.79883,-0.63333 -0.69216,-1.12836 -3.17097,-2.90306 -5.50847,-3.94377 -2.3375,-1.04071 -4.25,-2.41565 -4.25,-3.05542 0,-0.71456 -0.67497,-0.88641 -1.75,-0.44553 -4.14989,1.7019 -27.86019,5.52484 -30.68451,4.94744 -1.68602,-0.34469 -5.54049,-1.46117 -8.56549,-2.48107 -3.025,-1.0199 -10.15973,-3.25817 -15.85495,-4.97393 -5.69523,-1.71577 -10.19104,-3.28349 -9.9907,-3.48384 0.20034,-0.20034 6.88507,1.65655 14.85495,4.12641 22.2098,6.88281 22.1575,6.87351 24.23328,4.31004 2.21592,-2.73655 2.19888,-3.23927 -0.1828,-5.39466 -1.20626,-1.09165 -6.02941,-2.46471 -12.75,-3.62969 -11.43932,-1.98295 -27.60493,-5.96259 -26.93635,-6.63118 0.21862,-0.21862 4.81621,0.75097 10.21686,2.15464 13.09202,3.40272 17.24186,3.14837 5.90971,-0.36221 -9.68012,-2.9988 -16.5,-5.67864 -16.5,-6.48361 0,-0.275 1.6875,0.20929 3.75,1.0762 2.0625,0.86691 10.95,3.81176 19.75,6.54411 17.30305,5.3725 21.8827,5.71715 28.69624,2.15962 1.85126,-0.96659 5.83292,-1.79091 9.05642,-1.87493 4.76346,-0.12417 7.57615,-1.05638 16.35719,-5.42131 5.8325,-2.89924 10.2188,-5.60433 9.74735,-6.0113 -0.47146,-0.40697 -3.45349,-1.70325 -6.62673,-2.88062 -5.76297,-2.13823 -5.77322,-2.13842 -9,-0.17098 -1.77676,1.08333 -4.49755,1.97137 -6.04621,1.97342 -1.54866,0.002 -3.68616,0.46957 -4.75,1.03892 -2.16505,1.1587 -2.60847,4.55736 -0.68426,5.24458 0.6875,0.24554 0.92337,0.79716 0.52417,1.22584 -0.39921,0.42867 -1.41171,0.21018 -2.25,-0.48554 C 230.59303,147.41736 230.4799,142 232.37756,142 c 1.96676,0 4.00374,-2.64631 2.671,-3.46999 -0.57671,-0.35642 -1.04902,-1.40899 -1.04958,-2.33903 -5.9e-4,-0.98389 -2.05869,-2.84666 -4.92185,-4.45474 -2.70646,-1.52006 -6.79858,-4.33256 -9.0936,-6.25 C 217.68852,123.56881 215.24482,122 214.55309,122 c -0.69173,0 -5.23639,-3.4875 -10.09925,-7.75 -12.36356,-10.83717 -18.34241,-16.647039 -9.95384,-9.67251 3.85,3.20102 8.67882,7.38844 10.73071,9.30539 2.0519,1.91694 4.5269,3.56944 5.5,3.67221 0.97311,0.10277 2.52637,0.50639 3.4517,0.89693 1.23861,0.52277 2.09862,-0.0948 3.26027,-2.34118 1.54204,-2.98197 1.51519,-3.08944 -1.1824,-4.73205 -5.88531,-3.58366 -18.90412,-12.603212 -21.76028,-15.075715 -3.43956,-2.977537 -1.98977,-2.074784 9.64051,6.002955 12.8192,8.90349 20.60154,13.68995 26.49972,16.2984 3.11995,1.3798 6.10992,3.5513 7.11939,5.17055 1.11038,1.78113 2.40079,2.6574 3.56478,2.4207 1.98145,-0.40292 5.6756,2.3911 5.6756,4.29265 0,1.20992 15.03451,8.81049 15.83816,8.00684 0.24576,-0.24576 -0.1628,-1.18141 -0.90791,-2.07922 -1.15441,-1.39097 -1.10154,-1.81753 0.3575,-2.88441 C 263.64541,132.5388 264,130.69741 264,124.63976 L 264,117 l -3.84501,0 c -5.17304,0 -7.6306,-2.68171 -6.85237,-7.47738 0.66884,-4.12157 -0.57592,-4.56133 -2.89458,-1.02262 -2.03887,3.11172 -3.77554,3.26368 -2.85715,0.25 1.0435,-3.4242 3.66392,-5.92709 5.65915,-5.40532 0.98378,0.25726 2.85596,-0.0359 4.16041,-0.65152 2.11732,-0.99922 2.49898,-2.16933 3.55817,-10.908617 0.65255,-5.384139 0.85609,-10.32387 0.45232,-10.97718 -0.40376,-0.653311 -0.62522,-13.682044 -0.49211,-28.95274 0.22721,-26.067313 0.37924,-28.119209 2.48661,-33.559763 3.61907,-9.3433222 5.00369,-7.868123 5.82413,6.20514 0.38476,6.6 1.45384,20.775 2.37571,31.5 2.02919,23.607339 2.38503,44.0981 0.80035,46.08807 -1.78859,2.24604 -2.58753,7.5506 -3.05856,20.30737 -0.29383,7.95791 -0.0399,12.85949 0.76714,14.80786 1.05136,2.53821 0.93072,3.28523 -0.93893,5.81406 C 267.02545,145.88459 267,146.45935 267,191.45951 267,231.1334 266.80809,237 265.5103,237 c -1.29336,0 -1.52402,-5.85816 -1.75,-44.44646 z M 227.03545,166.45295 C 236.35743,164.87222 242.19786,163 237.80699,163 c -1.92907,0 -3.06982,-2.59654 -2.26071,-5.1458 0.95428,-3.00669 -2.2173,-3.35858 -8.14116,-0.90328 -2.97104,1.23143 -7.217,2.48242 -9.43546,2.77997 -3.84228,0.51536 -3.95466,0.6282 -2.36981,2.37944 1.55307,1.71612 1.54691,2.01674 -0.0925,4.51879 -1.31286,2.00369 -1.4003,2.54378 -0.34634,2.13934 0.77544,-0.29757 6.11894,-1.33955 11.87444,-2.31551 z m 15.76657,-4.85057 c 1.48649,-0.76869 3.58276,-2.37008 4.65839,-3.55863 1.07563,-1.18856 5.23706,-4.20621 9.24764,-6.70589 C 260.71862,148.83818 264,146.16457 264,145.39649 264,144.62842 263.8397,144 263.64378,144 c -0.19592,0 -4.58342,2.20002 -9.75,4.88893 -5.16658,2.6889 -11.05978,5.41671 -13.096,6.06178 -4.41568,1.39888 -5.99987,4.69713 -3.2292,6.72309 2.21884,1.62246 1.95077,1.62612 5.23344,-0.0714 z m 10.15453,-2.05002 c 0.76465,-0.92135 0.87722,-2.02698 0.30965,-3.04118 -0.79364,-1.41815 -1.18858,-1.36007 -3.58852,0.52772 -1.48321,1.16669 -2.44089,2.53522 -2.12819,3.04117 0.86923,1.40644 4.06033,1.095 5.40706,-0.52771 z m -51.22738,-3.15653 c -0.3323,-0.33229 -1.1948,-0.36781 -1.91667,-0.0789 -0.79773,0.31922 -0.56078,0.55618 0.60417,0.60416 1.05416,0.0434 1.64479,-0.19293 1.3125,-0.52522 z m 67.29105,-14.4336 c 1.06854,-1.9966 0.5107,-5.96532 -0.83761,-5.95906 -0.37543,0.002 -0.70454,1.80175 -0.73133,4 -0.0559,4.58381 0.0761,4.74855 1.56894,1.95906 z m -5.74799,-0.44027 c -0.45494,-0.81292 -4.97139,-3.49508 -10.03656,-5.96035 -5.06517,-2.46527 -10.50991,-5.44382 -12.09942,-6.619 -3.56023,-2.63219 -6.30967,-2.23163 -7.29396,1.06264 l -0.7454,2.49475 0.20155,-2.47497 c 0.11623,-1.42714 1.14658,-2.9442 2.43369,-3.5833 1.87144,-0.92924 2.03303,-1.3775 1,-2.77401 -1.68403,-2.27656 -17.14536,-9.92804 -17.5583,-8.68922 -0.18237,0.54711 -1.11374,1.96067 -2.06971,3.14124 -1.49755,1.8494 -2.05213,1.97845 -4.00677,0.93236 -1.24775,-0.66778 -2.47241,-1.01037 -2.72146,-0.76133 -0.24905,0.24905 1.50229,1.37182 3.89185,2.49505 2.38957,1.12323 4.93847,2.75772 5.66422,3.6322 2.16833,2.61267 12.7532,8.63905 14.21333,8.0922 0.74509,-0.27906 7.65471,1.92328 15.35471,4.89409 7.7,2.9708 14.13486,5.44516 14.29969,5.49857 0.16483,0.0534 -0.0725,-0.568 -0.52746,-1.38092 z M 266.52463,135 c 1.04716,0 1.47486,-2.82523 1.85446,-12.25 0.27137,-6.7375 0.63459,-14.05 0.80716,-16.25 0.2719,-3.46652 0.0227,-4.04144 -1.86859,-4.31068 -3.491,-0.49699 -4.48177,2.61701 -3.34161,10.50268 1.53898,10.64412 1.32051,20.25697 -0.47605,20.94637 -0.825,0.31659 -1.5,1.02561 -1.5,1.57561 0,0.55 0.7118,0.72685 1.58179,0.39301 C 264.45177,135.27314 265.77605,135 266.52463,135 Z m -21.50457,-6.47583 c -0.69572,-0.8383 -1.99735,-1.5092 -2.8925,-1.4909 -1.25888,0.0257 -1.0858,0.48444 0.7641,2.025 2.65501,2.21105 4.10474,1.84724 2.1284,-0.5341 z M 263,113.08179 c 0,-1.60502 -0.27822,-3.64324 -0.61827,-4.52939 -0.55548,-1.44757 -0.75534,-1.43049 -1.96819,0.16821 -0.74246,0.97866 -1.36424,3.01689 -1.38174,4.52939 -0.0242,2.09393 0.44534,2.75 1.9682,2.75 1.5431,0 2,-0.66667 2,-2.91821 z M 266.99769,101 c 1.03635,0 2.18662,0.48921 2.55616,1.08713 2.31362,3.74352 3.97538,-6.573632 2.98117,-18.508896 l -0.71487,-8.581928 -2.54493,2.001847 c -3.39345,2.669288 -3.96712,2.555383 -6.28618,-1.248153 -2.22677,-3.652171 -2.37878,-3.152122 -0.93933,3.090018 0.68835,2.98503 0.64984,6.97748 -0.12337,12.787785 -0.6183,4.646272 -0.82986,9.620467 -0.47013,11.053767 l 0.65407,2.606 1.50156,-2.14379 C 264.4377,101.9647 265.96133,101 266.99769,101 Z m 2.65524,-25.56202 c 2.29969,-2.299686 2.49982,-3.093234 1.95454,-7.75 C 270.46096,57.896448 268,24.51856 268,18.759946 268,15.591976 267.6103,13 267.13399,13 c -0.4763,0 -1.80664,2.5875 -2.9563,5.75 -1.87957,5.170339 -2.10488,8.129574 -2.23497,29.354391 -0.12281,20.037503 0.10113,24.079728 1.48198,26.75 1.97185,3.813136 2.91071,3.901108 6.22823,0.583589 z M 168.5,156.11927 C 162.00292,153.1358 158.85768,148 163.52763,148 c 0.8386,0 1.17774,-0.60421 0.83723,-1.49157 -0.77948,-2.0313 1.50985,-2.70478 5.13514,-1.51065 2.79632,0.92107 2.73827,0.95027 -0.855,0.43018 -4.8219,-0.69793 -4.60967,1.22509 0.42765,3.87506 1.88504,0.99166 2.52735,1.51588 1.42735,1.16492 -4.11383,-1.31251 -8.5,-1.70147 -8.5,-0.75377 0,1.51998 3.2096,4.05763 7.2866,5.76111 2.04237,0.85336 3.7134,1.77052 3.7134,2.03814 0,0.67126 -0.007,0.66921 -4.5,-1.39415 z M 182.44738,94.25 c -7.84159,-7.257636 -8.51637,-15.655687 -0.7621,-9.484801 2.0981,1.669673 4.93972,4.296122 6.31472,5.836553 1.375,1.540431 -0.17733,0.460214 -3.44962,-2.400484 C 181.27809,85.340571 178.24059,83 177.80038,83 c -2.54816,0 1.34824,7.48711 6.0932,11.708373 1.98353,1.764606 3.38122,3.227106 3.10598,3.25 -0.27525,0.0229 -2.32373,-1.645873 -4.55218,-3.708373 z M 418,83.559651 c 0,-0.293979 3.2625,-2.171643 7.25,-4.172585 8.54374,-4.287281 12.75,-7.1179 12.75,-8.58016 0,-1.59424 -5.53994,-0.194284 -12.45299,3.146903 -3.32586,1.607437 -7.39701,3.180916 -9.04701,3.49662 -1.65,0.315704 -0.69151,-0.285729 2.12998,-1.336519 2.82149,-1.050789 6.19649,-2.592414 7.5,-3.425833 7.07115,-4.52105 15.57641,-4.33609 11.42741,0.248506 C 435.76163,74.920879 418,84.568535 418,83.559651 Z"
         inkscape:connector-curvature="0" />
    </g>
    <g
       transform="matrix(0.93402964,0.09813311,-0.09813311,0.93402964,94.713009,-314.24191)"
       id="g4281">
      <path
         inkscape:connector-curvature="0"
         id="path4220"
         d="m 438.60938,299.96875 c -0.93492,0.0519 -2.19172,1.98205 -3.66407,5.7832 -2.12906,5.49657 -2.2601,7.37859 -2.47851,36.07617 -0.12674,16.65227 0.0899,30.79389 0.48047,31.42579 0.39054,0.6319 0.16768,5.80647 -0.49415,11.5 -1.137,9.78145 -1.35044,10.41729 -3.90234,11.54687 -1.48539,0.6575 -3.44103,0.91161 -4.3457,0.56445 -1.21572,-0.46651 -2.03601,0.30159 -3.14063,2.94532 -1.72101,4.11895 -1.87611,5.64257 -0.57422,5.64257 0.5063,0 1.21768,-1.34998 1.58008,-3 0.97611,-4.44418 3.53142,-3.96884 2.80274,0.52149 -0.77327,4.76509 1.68401,7.47853 6.77343,7.47851 3.37086,0 3.83398,0.31445 4.42383,3 0.3624,1.65 0.3624,4.35 0,6 -0.3624,1.65 -0.41878,3 -0.125,3 0.29378,0 0.8291,-1.57328 1.18946,-3.49414 0.36035,-1.92086 0.38634,-4.19365 0.0566,-5.05273 -0.32966,-0.85909 -1.06448,-4.47354 -1.63282,-8.03125 -1.20626,-7.55086 -0.17113,-10.73087 3.33008,-10.23242 1.87834,0.2674 2.1463,0.86775 1.93164,4.31054 -0.33724,5.40869 -0.34883,7.37781 -0.0937,15.24415 0.19293,5.94958 0.32185,6.35051 1.08985,3.38671 0.53153,-2.05126 0.46358,-5.25828 -0.17383,-8.23046 -0.63838,-2.97665 -0.69578,-5.74935 -0.14844,-7.13477 4.14888,-10.50148 4.4209,-13.43291 3.18555,-34.20313 -0.65633,-11.03507 -1.8421,-28.61249 -2.63672,-39.0625 -0.79461,-10.44998 -1.56404,-21.475 -1.70899,-24.5 -0.17775,-3.70958 -0.7897,-5.53624 -1.7246,-5.48437 z"
         style="fill:#000000" />
      <path
         inkscape:connector-curvature="0"
         id="path4206"
         d="m 440.91602,424.24805 c -0.1289,-0.0344 -0.31364,0.18266 -0.56446,0.63086 -0.4968,0.88773 -0.61991,2.50603 -0.27344,3.59765 0.42589,1.34183 0.0899,2.19374 -1.03906,2.62696 -2.17234,0.83361 -3.63361,-1.4578 -2.96484,-4.6504 0.46235,-2.20721 0.39126,-2.28399 -0.60156,-0.64257 -0.81785,1.35214 -0.82736,2.51117 -0.0352,4.25 1.17815,2.58575 3.54253,3.14994 4.79492,1.14257 0.42893,-0.6875 0.8336,-2.75462 0.90039,-4.59374 0.0562,-1.54756 -0.002,-2.30398 -0.21679,-2.36133 z"
         style="fill:#000000" />
      <path
         inkscape:connector-curvature="0"
         style="fill:#fefefe"
         d="m 439.67486,431.20231 c 0.0574,-0.1375 0.2078,-1.87587 0.33426,-3.86304 0.19202,-3.01732 -0.0611,-3.53693 -1.53516,-3.15146 -2.14092,0.55987 -3.15735,2.88915 -2.35873,5.40538 0.47134,1.48505 3.11302,2.67922 3.55963,1.60912 z"
         id="path4257" />
      <path
         inkscape:connector-curvature="0"
         style="fill:#fefefe"
         d="m 440.30861,420.70231 c 0.6675,-1.72972 0.76939,-4.96411 0.40166,-12.75 -0.10391,-2.2 -0.0654,-5.8 0.0857,-8 0.23698,-3.45209 -0.0243,-4.04256 -1.90775,-4.31068 -3.60693,-0.5135 -4.55874,2.69731 -3.12377,10.53767 0.68179,3.72515 1.20903,8.91051 1.17166,11.52301 -0.0488,3.40904 0.32236,4.75 1.31463,4.75 0.76043,0 1.68648,-0.7875 2.05791,-1.75 z"
         id="path4255" />
      <path
         inkscape:connector-curvature="0"
         style="fill:#fefefe"
         d="m 434.53872,405.70231 c -0.0298,-3.5142 -0.12413,-3.62794 -1.5,-1.80887 -1.90187,2.51449 -1.88445,5.55887 0.0318,5.55887 1.07232,0 1.49093,-1.0692 1.4682,-3.75 z"
         id="path4247" />
      <path
         inkscape:connector-curvature="0"
         style="fill:#fefefe"
         d="m 434.57052,367.81898 c 0,-2.25152 1.79222,-4.36667 3.7,-4.36667 0.715,0 2.23665,0.93665 3.38144,2.08144 l 2.08145,2.08145 -0.65583,-9.33145 c -0.36071,-5.13229 -1.29736,-17.65196 -2.08145,-27.82149 -0.78408,-10.16953 -1.42561,-21.08203 -1.42561,-24.25 0,-3.16797 -0.3897,-5.75995 -0.86601,-5.75995 -0.4763,0 -1.79697,2.5875 -2.93481,5.75 -1.87811,5.22 -2.09296,8.35113 -2.33087,33.96979 -0.14414,15.52088 0.0515,28.53338 0.43481,28.91667 0.38328,0.38328 0.69688,-0.18813 0.69688,-1.26979 z"
         id="path2997-8" />
      <path
         inkscape:connector-curvature="0"
         style="fill:#fe0000"
         d="m 432.76802,424.68336 c -3.4838,0.24912 -5.55642,-0.224 -7.22855,-1.65007 -2.83341,-2.41649 -3.12413,-3.40194 -1.84441,-6.25215 0.70512,-1.57046 0.61494,-2.48177 -0.31856,-3.21938 -0.71614,-0.56587 -1.15483,-1.25556 -0.97487,-1.53263 0.49164,-0.75694 9.00093,-0.26872 9.16981,0.52611 0.0805,0.37877 -0.73446,1.95629 -1.81096,3.50561 -1.72317,2.47999 -2.00195,2.60671 -2.33071,1.0594 -0.30838,-1.45134 -0.58397,-1.49107 -1.58195,-0.22807 -3.47969,4.4038 2.08657,6.74825 11.78364,4.96315 6.75136,-1.24285 7.14121,-1.45138 8.76603,-4.689 2.1559,-4.29586 3.73588,-3.50104 1.81947,0.9153 -0.84714,1.95222 -2.63386,3.81534 -4.38041,4.56771 -3.24149,1.39638 -3.93581,1.52397 -11.06853,2.03402 z"
         id="path2993-2" />
      <path
         inkscape:connector-curvature="0"
         style="fill:#0000fe"
         d="m 435.01882,396.6152 c 0.74284,-2.34049 4.35181,-2.96278 6.23883,-1.07576 4.22195,4.22195 4.41854,-24.44984 0.1987,-28.9793 -2.38887,-2.56416 -4.75366,-2.71779 -5.50789,-0.35783 -0.30761,0.9625 -1.02157,2.71959 -1.58657,3.90465 -0.56499,1.18505 -0.72965,2.63621 -0.36589,3.22478 0.36376,0.58858 0.12091,5.7197 -0.53966,11.4025 -0.83831,7.21176 -0.88739,10.89285 -0.16252,12.18811 0.98501,1.76012 1.0739,1.7443 1.725,-0.30715 z"
         id="path2991-9" />
    </g>
    <path
       sodipodi:nodetypes="ccccscsccccscccccscscc"
       inkscape:connector-curvature="0"
       id="path4365"
       d="m 456.37574,133.77991 c -1.34094,1.09284 -0.33939,3.86358 -0.34489,5.42159 -0.0201,3.7865 0.15079,47.5485 0.15079,47.5485 l 0.1582,52.25 -11.06836,0 c -6.71229,0 -11.06835,0.39356 -11.06836,1 10e-6,0.60606 4.33335,1 11,1 l 11,0 0,22.5 0,22.5 -40,0 -35.17382,0 c -12.32628,0 -18.44532,0.26172 -18.44532,0.26172 0,0 6.11906,0.26172 18.44532,0.26172 8.57598,0.003 16.30348,0.0103 25.67382,0.01 74.25,-0.006 116.4375,-0.13333 93.75,-0.2832 l -41.25,-0.27148 0,-71.92969 c 0,-35.03325 0.29475,-64.55953 0.68165,-71.06836 0.0444,-1.55335 0.10349,-2.79039 0.1875,-3.74805 0.14242,-1.62357 0.71451,-4.09062 0.14257,-5.04297 -0.70629,-1.17479 -2.7029,-1.25973 -3.8391,-0.40954 z"
       style="fill:#000000" />
    <path
       style="fill:#000000"
       d="m 512.37574,133.77991 c -1.34094,1.09284 -0.33939,3.86358 -0.34489,5.42159 -0.0201,3.7865 0.15079,47.5485 0.15079,47.5485 l 0.1582,52.25 -11.06836,0 c -6.71229,0 -11.06835,0.39356 -11.06836,1 10e-6,0.60606 4.33335,1 11,1 l 11,0 0,22.5 0,22.5 -40,0 -35.17382,0 c -12.32628,0 -18.44532,0.26172 -18.44532,0.26172 0,0 6.11906,0.26172 18.44532,0.26172 8.57598,0.003 16.30348,0.0103 25.67382,0.01 74.25,-0.006 116.4375,-0.13333 93.75,-0.2832 l -41.25,-0.27148 0,-71.92969 c 0,-35.03325 0.29475,-64.55953 0.68165,-71.06836 0.0444,-1.55335 0.10349,-2.79039 0.1875,-3.74805 0.14242,-1.62357 0.71451,-3.17914 0.14257,-4.13149 -0.70629,-1.17479 -2.7029,-2.17121 -3.8391,-1.32102 z"
       id="path4380"
       inkscape:connector-curvature="0"
       sodipodi:nodetypes="ccccscsccccscccccscsccc" />
  </g>
</svg>
