<?xml version="1.0" encoding="UTF-8" standalone="no"?>
<!-- Created with Inkscape (http://www.inkscape.org/) -->

<svg
   xmlns:dc="http://purl.org/dc/elements/1.1/"
   xmlns:cc="http://creativecommons.org/ns#"
   xmlns:rdf="http://www.w3.org/1999/02/22-rdf-syntax-ns#"
   xmlns:svg="http://www.w3.org/2000/svg"
   xmlns="http://www.w3.org/2000/svg"
   xmlns:sodipodi="http://sodipodi.sourceforge.net/DTD/sodipodi-0.dtd"
   xmlns:inkscape="http://www.inkscape.org/namespaces/inkscape"
   version="1.1"
   width="713"
   height="220"
   id="svg2"
   inkscape:version="0.91 r13725"
   sodipodi:docname="20ub430500.svg">
  <sodipodi:namedview
     pagecolor="#ffffff"
     bordercolor="#666666"
     borderopacity="1"
     objecttolerance="10"
     gridtolerance="10"
     guidetolerance="10"
     inkscape:pageopacity="0"
     inkscape:pageshadow="2"
     inkscape:window-width="1611"
     inkscape:window-height="821"
     id="namedview11"
     showgrid="false"
     inkscape:zoom="0.85553997"
     inkscape:cx="481.96345"
     inkscape:cy="227.18742"
     inkscape:window-x="0"
     inkscape:window-y="0"
     inkscape:window-maximized="0"
     inkscape:current-layer="svg2" />
  <metadata
     id="metadata8">
    <rdf:RDF>
      <cc:Work
         rdf:about="">
        <dc:format>image/svg+xml</dc:format>
        <dc:type
           rdf:resource="http://purl.org/dc/dcmitype/StillImage" />
        <dc:title></dc:title>
      </cc:Work>
    </rdf:RDF>
  </metadata>
  <defs
     id="defs6" />
  <g
     id="g2987">
    <path
       d="m 125.27768,151.75 c -2.21216,-2.85894 -2.12907,-5.29087 0.44637,-13.06527 2.39777,-7.23808 2.71224,-9.71723 2.71896,-21.43473 0.004,-7.2875 0.36283,-13.25 0.79699,-13.25 0.43417,0 1.71889,1.4625 2.85494,3.25 1.95242,3.07201 2.03769,4.29003 1.55695,22.24 -0.50851,18.98649 -0.50908,18.99041 -3.13601,21.25 -3.00961,2.58876 -3.88587,2.75771 -5.2382,1.01 z m 153.88483,-7.6284 c -1.88694,-1.19605 -1.04067,-5.52906 1.16189,-5.94904 1.00343,-0.19133 2.71553,0.45859 3.80467,1.44425 1.96836,1.78134 1.96641,1.80277 -0.3244,3.56542 -2.6532,2.04147 -2.84288,2.07985 -4.64216,0.93937 z m -53.11942,-2.39439 c -1.66797,-0.84407 -2.71663,-2.49335 -3.26573,-5.1362 -0.44486,-2.14108 -0.57965,-4.12206 -0.29954,-4.40216 0.28011,-0.28011 2.30484,0.0287 4.49942,0.68618 4.80511,1.43965 6.71347,4.31362 5.14708,7.75146 -1.21629,2.66946 -2.51625,2.90476 -6.08123,1.10072 z M 258,139.88615 c 0,-2.76399 4.85527,-9.29159 9.54452,-12.83201 C 273.42133,122.6171 296.0459,111 298.81031,111 c 1.97742,0 6.18969,3.9083 6.18969,5.74302 0,2.31931 -3.20982,4.36981 -5.91153,3.77641 -3.45125,-0.75802 -25.0636,9.51251 -33.5688,15.95243 C 259.31188,141.17223 258,141.76789 258,139.88615 z m 23.93628,-4.08597 c -3.866,-4.89087 -4.00181,-5.27909 -2.28569,-6.53395 1.59668,-1.16752 2.05502,-1.01769 3.67037,1.19982 1.34648,1.84843 2.76065,2.53395 5.22726,2.53395 2.35796,0 3.70538,0.60534 4.45178,2 1.61793,3.02313 -0.37257,6 -4.01193,6 -2.35131,0 -3.76632,-1.04339 -7.05179,-5.19982 z M 202.5,137.51476 c -7.7,-1.27103 -16.1375,-2.60939 -18.75,-2.97413 -2.6125,-0.36475 -4.75,-1.01437 -4.75,-1.44362 0,-0.42924 1.87134,-1.3411 4.15854,-2.02636 3.01733,-0.90402 8.20113,-1.05099 18.88955,-0.53557 8.10205,0.39069 15.1894,0.99366 15.74967,1.33993 0.56027,0.34627 1.33506,2.31604 1.72175,4.37728 0.84419,4.49994 2.05109,4.41042 -17.01951,1.26247 z m 327.5,0.16825 c 0,-1.66674 4.63942,-6.92723 16.53134,-18.74436 17.4414,-17.33171 22.05943,-20.763212 25.47943,-18.93288 2.97446,1.59188 2.42074,4.17216 -1.76077,8.20505 C 563.14816,115.06025 532.58574,140 531.29394,140 530.58227,140 530,138.95735 530,137.68301 z M 116.75,131.6116 c -2.57028,-1.95647 -2.13454,-4.49173 1,-5.81835 1.5125,-0.64014 4.4375,-2.74682 6.5,-4.68151 l 3.75,-3.51764 0,3.22282 C 128,124.03948 123.77827,132 122.06924,132 c -0.49811,0 -1.50497,0.21233 -2.23745,0.47184 -0.73249,0.25952 -2.11929,-0.12759 -3.08179,-0.86024 z M 203,129.45463 c 0,-0.29995 2.4165,-5.05658 5.36999,-10.57028 4.59122,-8.57106 5.44068,-9.65508 5.85746,-7.47483 0.66612,3.48456 -7.02912,18.57337 -9.47745,18.58335 -0.9625,0.004 -1.75,-0.23829 -1.75,-0.53824 z M 194,128 c 0,-1.18717 1.7373,-1.18717 4.5,0 1.67602,0.72021 1.47353,0.87082 -1.25,0.92971 C 195.4625,128.96837 194,128.55 194,128 z m 169.18963,-2.71451 c 0.2755,-3.29712 0.67556,-3.78858 3.56037,-4.3737 3.5606,-0.72219 3.75924,-0.3814 2.18744,3.75276 -2.12857,5.59855 -6.20046,6.03844 -5.74781,0.62094 z m -246.84522,-3.0494 c -0.51255,-2.04216 -0.0617,-3.08255 2.1666,-4.99922 l 2.81385,-2.42037 1.2025,2.84175 c 0.97773,2.31056 0.93526,3.15023 -0.22719,4.49206 -2.54201,2.93424 -5.23112,2.97298 -5.95576,0.0858 z M 273,119.37756 c 0,-1.3288 0.27149,-1.39713 1.5,-0.37756 0.825,0.68469 1.5,1.41479 1.5,1.62244 0,0.20766 -0.675,0.37756 -1.5,0.37756 -0.825,0 -1.5,-0.7301 -1.5,-1.62244 z m 90.49298,-0.20385 C 362.94684,118.67197 358.225,117.46024 353,116.48098 c -11.84164,-2.21935 -13.12257,-2.66462 -12.15752,-4.2261 0.59927,-0.96965 2.46906,-0.93083 8.80297,0.18278 4.42314,0.77767 9.84751,1.17178 12.05415,0.87581 5.06576,-0.67947 8.53411,1.03275 8.11108,4.00419 -0.33262,2.33648 -4.47128,3.55235 -6.3177,1.85605 z m -96.30965,-4.39038 c -1.37856,-1.37856 -1.58108,-5.41947 -0.31095,-6.20446 0.47981,-0.29653 1.14094,1.11578 1.46918,3.13848 0.68398,4.21487 0.49388,4.71809 -1.15823,3.06598 z m -132.17836,-1.85902 c -0.003,-1.41662 1.03653,-3.55412 2.30948,-4.75 C 139.70843,105.92529 143,105.24544 143,107 c 0,0.55 -0.675,1 -1.5,1 -0.825,0 -1.51618,0.3375 -1.53596,0.75 -0.0198,0.4125 -1.14255,2.1 -2.49504,3.75 l -2.45907,3 -0.005,-2.57569 z M 63,109.5 c 0,-0.93333 -0.944444,-1.5 -2.5,-1.5 -1.375,0 -2.49749,-0.5625 -2.494423,-1.25 0.01129,-2.52994 2.115189,-8.75 2.959639,-8.75 0.479165,0 1.570463,-0.268329 2.425107,-0.596286 1.392331,-0.534288 1.38637,-0.104622 -0.05733,4.132396 -1.487913,4.36678 -1.485778,4.79888 0.02789,5.64598 C 65.144949,108.1805 65.61693,111 64,111 c -0.55,0 -1,-0.675 -1,-1.5 z m 151.8125,-2.18311 c 0.72187,-0.28887 1.58437,-0.25335 1.91667,0.0789 0.33229,0.3323 -0.25834,0.56864 -1.3125,0.52522 -1.16495,-0.048 -1.4019,-0.28494 -0.60417,-0.60416 z M 44.265058,98.227422 c -2.308321,-1.545513 -2.587054,-6.608206 -0.505361,-9.178988 1.920933,-2.372251 1.944711,-2.374611 12.332473,-1.223861 12.835658,1.421925 19.195174,1.727127 20.448594,0.981356 0.52758,-0.313904 2.421736,-0.884408 4.209236,-1.267787 2.619245,-0.56177 3.25,-0.381693 3.25,0.927857 0,0.893701 -1.0685,2.69341 -2.374444,3.999354 -2.447654,2.447654 -2.689958,2.499948 -20.644444,4.455455 -5.235388,0.570211 -10.860388,1.283507 -12.5,1.585102 -1.639611,0.301595 -3.536836,0.176276 -4.216054,-0.278488 z M 689.88939,92.556053 c -0.24417,-0.244171 -8.75667,-1.6273 -18.91667,-3.073621 C 652.68811,86.879537 645,84.813608 645,82.503113 c 0,-0.656226 0.88982,-1.998413 1.97738,-2.982639 2.36556,-2.140804 1.50217,-2.26812 30.02262,4.427156 11.825,2.775961 22.2875,5.048364 23.25,5.049785 3.36462,0.005 1.71214,1.77469 -2.69282,2.88387 -4.74515,1.194842 -6.95339,1.389168 -7.66779,0.674768 z M 370.81141,87.584347 c -2.37487,-2.724448 -2.92913,-2.937501 -4.75,-1.825873 -2.00795,1.225837 -2.06157,1.070236 -2.0676,-6 -0.003,-3.992161 -0.91468,-14.140774 -2.02507,-22.552474 -1.34055,-10.155387 -1.69908,-15.865431 -1.06709,-16.994744 1.49814,-2.677034 6.78768,9.440789 7.70401,17.649153 0.58439,5.2349 0.90208,6.110684 1.50162,4.139591 0.4466,-1.468239 0.54925,-0.230126 0.24874,3 -0.40231,4.32447 -0.26115,5.179401 0.66048,4 0.99923,-1.278692 1.08567,-1.232838 0.58589,0.310791 -0.32245,0.995935 0.066,6.152567 0.86315,11.459182 0.79719,5.306615 1.35606,9.704715 1.24194,9.773556 -0.11411,0.06884 -1.41735,-1.262791 -2.89607,-2.959182 z M 62.206444,83.897087 c -0.997767,-3.196963 -1.015648,-4.422055 -0.08098,-5.548257 3.262009,-3.930481 9.348429,2.120921 7.098913,7.05807 C 68.456121,87.093029 67.246131,88 65.764917,88 63.972506,88 63.214015,87.12546 62.206444,83.897087 z M 69.556931,86.75 c 0.569522,-1.440628 11.397144,-5.130129 12.32495,-4.199714 0.339966,0.340921 -0.644475,1.706575 -2.187645,3.034786 C 76.611438,88.238444 68.604769,89.158531 69.556931,86.75 z M 583.25,81.968838 c -2.56026,-1.029099 -3.05935,-4.721031 -0.75761,-5.604291 2.15039,-0.825182 10.00237,-12.989368 14.07624,-21.806712 2.45804,-5.320113 4.00111,-7.523489 5.21165,-7.441834 1.52493,0.102863 1.51399,0.169248 -0.0966,0.5861 -1.3087,0.338713 -1.73457,1.24954 -1.52379,3.25898 0.16089,1.533885 -0.26642,3.462378 -0.94958,4.28554 -0.68317,0.823162 -2.29934,4.59192 -3.5915,8.375019 -2.45164,7.177726 -8.48888,19.424578 -9.52157,19.314974 -0.32847,-0.03486 -1.60972,-0.470362 -2.84722,-0.967776 z M 69.584303,79.359095 c -1.664751,-4.338272 5.462871,-8.417032 8.440026,-4.82978 1.052907,1.268675 0.873637,1.950392 -1.051869,4 -2.65287,2.823851 -6.458926,3.251317 -7.388157,0.82978 z M 435.5,76.846299 c -8.8,-2.162158 -19.56402,-4.249594 -23.92003,-4.638748 -4.35985,-0.389495 -8.08651,-1.211513 -8.29038,-1.82867 -0.20584,-0.623143 1.65717,-1.631651 4.19429,-2.270506 3.73801,-0.94124 7.41247,-0.776494 20.29038,0.909728 8.64916,1.132513 18.19558,2.37924 21.21427,2.770506 4.69439,0.608459 5.68255,1.116795 6.82942,3.513238 1.04886,2.191647 1.07913,3.117233 0.13902,4.25 -1.57951,1.903193 -1.83908,1.868864 -20.45697,-2.705548 z m 155.72014,-0.83688 c 2.17486,-3.806794 2.2947,-3.873091 2.60212,-1.439528 C 594.17949,77.397772 592.5144,80 590.3477,80 c -1.06414,0 -0.85134,-0.973333 0.87244,-3.990581 z m -118.73522,-0.03382 c -0.34821,-0.563419 -0.34702,-2.326958 0.003,-3.918976 0.42492,-1.934635 -0.007,-4.165076 -1.30386,-6.725601 C 467.54118,58.136544 467.20313,49 470.57946,49 c 1.68295,0 1.81292,1.398311 0.379,4.077619 -1.20381,2.249337 1.42461,9.113691 5.57154,14.550604 3.03898,3.984298 3.04966,4.478589 0.15555,7.197463 -2.59635,2.439146 -3.28699,2.628208 -4.20063,1.149915 z M 480.46862,73.5 c -0.25774,-0.825 -0.67686,-2.168136 -0.93138,-2.984746 -0.57619,-1.848671 2.90934,-3.825679 5.36865,-3.045124 1.00669,0.319511 2.59324,1.423924 3.52568,2.454253 1.60379,1.772174 1.5719,1.959777 -0.59063,3.47447 -2.87841,2.016122 -6.75744,2.069341 -7.37232,0.101147 z M 623,71.267941 c -1.375,-0.894935 -4.75,-3.727463 -7.5,-6.294506 -2.75,-2.567043 -6.4625,-5.666863 -8.25,-6.888487 -3.07828,-2.103776 -4.15275,-4.430159 -2.5,-5.412847 0.4125,-0.245264 4.77227,2.411042 9.68838,5.902902 4.91611,3.49186 10.20735,6.627549 11.75831,6.968198 3.86996,0.849986 5.70596,4.323599 3.23879,6.127634 -2.2991,1.681148 -3.33295,1.616423 -6.43548,-0.402894 z M 620.2532,61.75 C 616.7786,59.321069 616.1444,58 618.45295,58 621.30054,58 625,60.350931 625,62.160515 625,64.552806 624.15853,64.480034 620.2532,61.75 z M 369.14904,54.5 c -0.0828,-1.65 -1.48115,-5.8125 -3.10737,-9.25 -2.69819,-5.703458 -2.82361,-8.120603 -0.25945,-5 1.85764,2.260755 4.38135,11.462929 3.94512,14.38507 l -0.42768,2.86493 -0.15062,-3 z"
       id="path2997"
       style="fill:#fefefe" />
    <path
       d="M 0,110 0,0 356.5,0 713,0 l 0,110 0,110 -356.5,0 L 0,220 0,110 z m 653.75,87.25021 -49.75,-0.26888 0,-70.07407 0,-70.074073 2.7011,1.967613 c 2.12161,1.545484 2.72287,2.835473 2.80259,6.012839 0.0829,3.305258 -0.31971,4.237135 -2.2011,5.094354 C 605.06,70.929784 604.11134,73 605.88569,73 c 0.48713,0 2.15093,-0.656409 3.69732,-1.458687 2.03725,-1.056942 3.16882,-1.16224 4.10856,-0.382325 0.71332,0.592 2.34651,0.875725 3.62932,0.6305 1.85798,-0.355175 2.76637,0.308206 4.46606,3.261494 1.83127,3.1819 3.45034,4.236584 11.42337,7.441327 7.7306,3.107301 12.64627,4.219921 29.28968,6.629474 11,1.592527 22.475,3.362168 25.5,3.932534 4.19439,0.790857 6.56823,0.71902 10,-0.302618 4.67988,-1.3932 6.09628,-3.968265 2.5,-4.54511 -1.1,-0.17644 -9.875,-2.124526 -19.5,-4.329079 -37.87892,-8.675958 -36.52814,-8.240589 -44.53888,-14.355322 -2.41115,-1.840476 -5.75128,-3.646645 -7.42252,-4.013709 C 626.68545,64.991639 626,64.300855 626,62.446225 626,59.543137 621.67784,57 616.74394,57 612.86162,57 607.27165,53.335206 604.91863,49.247313 602.01646,44.205381 599.92634,45.616416 594.91611,56 c -4.55249,9.434909 -4.61234,9.503873 -8.73479,10.065208 -2.283,0.310864 -4.5775,0.138612 -5.09889,-0.382783 -1.35647,-1.356463 -3.69673,-0.200709 -5.65962,2.795039 -2.33196,3.559017 -0.94908,4.461294 1.69187,1.103879 2.46235,-3.130373 3.40204,-2.557722 4.1717,2.542247 0.47959,3.177879 0.17502,3.8985 -2.47614,5.858585 -1.85125,1.368687 -4.32753,5.097611 -6.38857,9.620275 -3.04463,6.680984 -5.25157,9.295849 -23.14212,27.41957 l -19.77654,20.03429 -2.1663,-10.16575 c -1.19147,-5.59117 -1.92077,-11.67884 -1.62067,-13.52816 0.50351,-3.10276 0.34249,-3.3624 -2.0852,-3.3624 -1.49732,0 -2.63084,0.56234 -2.63084,1.30518 0,0.71785 1.36057,7.53009 3.02349,15.13831 1.66292,7.60822 2.7828,14.59149 2.48862,15.51837 -0.29418,0.92687 0.11536,3.00213 0.91009,4.61168 0.79474,1.60956 3.5283,13.27646 6.0746,25.92646 2.54629,12.65 4.8565,23.7875 5.1338,24.75 0.46796,1.62431 -0.90421,1.75 -19.10523,1.75 l -19.6094,0 0.29202,-74.50028 c 0.28978,-73.930909 0.27672,-74.500286 -1.70799,-74.500453 -1.9779,-1.66e-4 -1.99659,0.563647 -1.69159,51.013479 l 0.30842,51.013644 -34.25809,-0.26319 -34.25809,-0.2632 -3.71638,-17.37987 c -2.26505,-10.59264 -3.5028,-18.69597 -3.16948,-20.75 C 422.2252,108.22481 422.07746,108 419.5,108 c -3.26935,0 -3.5668,-2.82956 2.99603,28.5 2.53467,12.1 6.18226,29.875 8.10575,39.5 1.92348,9.625 3.73029,18.2875 4.01512,19.25 0.48699,1.64564 -1.81186,1.75 -38.54951,1.75 C 374.58032,197 357,196.8557 357,196.67933 c 0,-0.6393 -7.84996,-39.25193 -8.52425,-41.92933 l -0.69257,-2.75 22.10841,0 C 383.67639,152 392,151.63071 392,151.01913 c 0,-0.60363 -8.54009,-1.08437 -22.20528,-1.25 L 347.58943,149.5 l -3.65064,-17 c -2.00785,-9.35 -3.56339,-17.11459 -3.45674,-17.25465 0.21367,-0.2806 20.16811,3.58351 22.43517,4.34449 1.08016,0.36259 1.13962,0.75332 0.25,1.64294 -1.71922,1.71922 -1.41925,7.83125 0.48777,9.93848 3.29488,3.6408 12.22948,1.42577 12.4084,-3.07625 0.0387,-0.97379 0.43651,-0.66223 1.02139,0.79992 0.5269,1.31721 0.69305,3.22971 0.36922,4.25 -0.32383,1.02029 -0.13878,1.85507 0.41122,1.85507 3.06194,0 2.16173,-8.16729 -1.15637,-10.49137 -1.13444,-0.7946 -2.6172,-2.76369 -3.29503,-4.37576 -1.07899,-2.56617 -0.92257,-3.59714 1.25659,-8.28195 L 377.15942,106.5 375.63952,95 C 374.80357,88.675 373.37072,76.3 372.4554,67.5 370.13996,45.239182 367.81075,38 362.96376,38 c -3.80537,0 -4.12419,3.076588 -1.99237,19.226143 2.33004,17.651105 2.49581,24.938727 0.82946,36.463802 -0.85014,5.879829 -0.90424,9.733405 -0.18589,13.240145 0.95201,4.64741 0.88269,4.97917 -1.14672,5.48853 -2.83974,0.71272 -18.8701,-2.1242 -19.30059,-3.41567 C 340.98378,108.45133 339.68695,108 338.28582,108 c -3.01745,0 -3.31703,-2.65964 3.21021,28.5 2.53467,12.1 6.18226,29.875 8.10575,39.5 1.92348,9.625 3.73029,18.2875 4.01512,19.25 0.48573,1.64139 -1.49896,1.75 -31.97861,1.75 l -32.49649,0 -1.06331,-5.25 c -0.58482,-2.8875 -2.58088,-12.675 -4.4357,-21.75 -3.45034,-16.88139 -3.33652,-19.84278 0.6249,-16.25774 1.68199,1.52218 2.02084,1.51851 4.67713,-0.0506 C 290.71583,152.64551 293.9438,152 297.40429,152 300.48193,152 303,151.55 303,151 c 0,-0.55 -1.7625,-1 -3.91667,-1 -2.22222,0 -4.11495,-0.54078 -4.375,-1.25 -0.36666,-1 -0.72333,-1 -1.78333,0 -0.72875,0.6875 -2.39575,1.25 -3.70446,1.25 -2.16083,0 -2.31541,-0.29861 -1.6824,-3.25 0.9451,-4.4065 1.22715,-4.75 3.90029,-4.75 2.61759,0 9.6467,-6.33015 11.9282,-10.74208 0.80962,-1.56564 2.21512,-5.71426 3.12333,-9.21918 1.58632,-6.12179 1.57574,-6.47422 -0.26867,-8.95566 -3.26826,-4.39704 -7.50021,-3.96499 -19.33489,1.97393 l -10.29617,5.16685 -2.20695,-2.76778 c -1.61968,-2.03127 -2.06841,-3.62156 -1.6863,-5.97621 0.46086,-2.83993 0.21004,-3.28639 -2.18382,-3.88721 -5.50996,-1.38291 -7.19019,3.30144 -3.12923,8.72406 4.26862,5.69991 4.14284,6.8631 -1.17117,10.83037 -5.56613,4.15551 -10.38544,12.08023 -8.49565,13.97002 1.27741,1.27741 1.55494,1.13055 10.47632,-5.54337 l 4.69342,-3.51106 0.68139,4.54384 c 0.43613,2.90829 0.27652,4.94872 -0.44342,5.66866 -1.82971,1.82971 -1.29393,4.93879 1.32174,7.6701 2.04388,2.13423 3.12342,5.92891 6.55879,23.05472 2.26172,11.275 4.34109,21.2875 4.62082,22.25 0.47498,1.6343 -1.1818,1.75 -25.05878,1.75 C 246.50532,197 235,196.8557 235,196.67933 c 0,-0.6393 -7.84996,-39.25193 -8.52425,-41.92933 l -0.69257,-2.75 10.10841,0 c 13.35378,0 13.23596,-1.84308 -0.14159,-2.21502 -8.31779,-0.23126 -10.25,-0.56774 -10.25,-1.78498 0,-0.95063 1.15194,-1.61191 3.14528,-1.80555 1.72991,-0.16805 3.91162,-1.15234 4.84825,-2.1873 1.4405,-1.59173 1.52581,-2.41851 0.55356,-5.36446 -1.41783,-4.29606 -2.80732,-5.48879 -8.2654,-7.09498 l -4.28169,-1.25999 -1.67975,-7.87011 c -0.92386,-4.32856 -1.43034,-9.11718 -1.1255,-10.64138 C 219.27831,108.85845 217.67379,106 215.4524,106 c -0.7165,0 -4.12548,5.36418 -7.57551,11.92041 -5.10363,9.69859 -6.48022,11.63674 -7.38566,10.39849 -1.6906,-2.31204 -10.11449,-2.96982 -12.33205,-0.96296 -0.98549,0.89186 -3.56197,2.23441 -5.72549,2.98344 -4.94831,1.71315 -5.04288,3.82327 -0.22246,4.96328 5.60261,1.32498 6.57188,6.69734 1.20831,6.69734 -1.65616,0 -2.83538,-0.81856 -3.60149,-2.5 -0.6265,-1.375 -1.51685,-2.5 -1.97857,-2.5 -1.17434,0 -1.06048,0.67196 0.6862,4.04966 1.24933,2.41593 2.16068,2.95034 5.03138,2.95034 2.1937,0 3.72113,-0.56138 4.08131,-1.5 0.32388,-0.84402 1.81231,-1.5 3.40352,-1.5 1.55535,0 4.05009,-0.46467 5.54386,-1.0326 2.22254,-0.84501 3.09729,-0.68384 4.8151,0.88715 3.43519,3.14161 9.97061,5.99319 15.38018,6.71079 l 5.07117,0.67271 1.56845,7.13098 c 0.86265,3.92203 2.94394,14.10597 4.62508,22.63097 1.68113,8.525 3.28891,16.2875 3.57283,17.25 0.48481,1.64354 -1.64748,1.75 -35.05117,1.75 C 177.00532,197 161,196.8557 161,196.67933 c 0,-0.6393 -7.84996,-39.25193 -8.52425,-41.92933 l -0.69257,-2.75 7.60841,0 c 9.95128,0 9.87347,-1.82998 -0.0939,-2.20794 L 151.59543,149.5 147.86462,132.04046 c -2.05194,-9.60274 -3.49066,-18.66027 -3.19715,-20.12783 C 145.33404,108.5798 143.50684,105 141.13913,105 c -0.98478,0 -2.82782,1.10418 -4.09566,2.45373 l -2.30515,2.45372 -2.159,-3.20372 c -3.56801,-5.29459 -5.12084,-4.26033 -4.82708,3.21505 0.19199,4.88561 -0.15203,6.8655 -1.44028,8.28901 -1.63004,1.80117 -1.76857,1.71187 -3.75225,-2.41879 -2.42191,-5.04323 -5.44293,-5.99079 -9.51096,-2.98316 -1.96935,1.456 -3.1391,1.7231 -4.4162,1.0084 -1.18257,-0.6618 -2.19534,-0.59205 -3.17192,0.21844 -0.83073,0.68944 -2.53371,0.91481 -4.04552,0.53537 -1.901918,-0.47735 -2.487076,-0.30402 -2.155007,0.63833 0.302234,0.85769 2.020137,1.21191 5.097877,1.05115 4.59978,-0.24026 4.64202,-0.21355 4.64202,2.93555 0,1.84523 0.87468,4.10908 2.08568,5.39812 1.68201,1.79042 1.87555,2.61272 1,4.24871 -3.14593,5.87822 0.68991,18.03211 7.61483,24.12767 5.24815,4.61961 7.14729,4.93342 10.78675,1.78242 2.26084,-1.95741 2.72092,-3.42036 3.538,-11.25 0.51656,-4.95 0.96339,-13.05 0.99294,-18 0.0473,-7.9258 0.33485,-9.34376 2.40908,-11.88012 2.15387,-2.63374 2.40729,-2.71647 2.9625,-0.96717 0.67947,2.14084 7.87379,36.63527 13.212,63.34729 1.92348,9.625 3.73029,18.2875 4.01512,19.25 0.48707,1.64591 -1.83567,1.75 -39.04951,1.75 C 96.805324,197 79,196.8557 79,196.67933 79,196.04003 71.150041,157.4274 70.475754,154.75 l -0.69257,-2.75 13.108408,0 c 17.458138,0 17.381308,-1.85163 -0.09215,-2.22097 L 69.598886,149.5 l -3.852712,-18 c -3.849729,-17.98606 -3.851123,-18.00106 -1.799444,-19.37197 2.442995,-1.63238 2.577447,-2.89134 0.548248,-5.13358 -1.300795,-1.43736 -1.321326,-2.19438 -0.151301,-5.57874 1.336224,-3.865095 1.434524,-3.924762 7.604714,-4.616021 6.659317,-0.746055 10.291882,-2.51161 12.093428,-5.877829 1.550446,-2.897034 0.439449,-5.280977 -2.146017,-4.604863 -2.00372,0.523985 -2.015128,0.472338 -0.311477,-1.410175 2.88683,-3.189912 0.467138,-4.544694 -4.539267,-2.541527 C 72.321989,84.255092 71,84.393895 71,83 c 0,-0.55 0.762877,-1 1.695281,-1 0.932405,0 2.957405,-1.209191 4.5,-2.687091 C 82.387713,74.338243 80.134944,66 73.598492,66 c -1.076073,0 -3.457996,-0.542949 -5.293162,-1.206554 -2.990969,-1.081549 -3.5624,-0.980821 -5.515443,0.972222 -2.692424,2.692425 -1.575803,4.255551 1.227611,1.718497 3.045911,-2.756512 4.554164,-0.707065 2.882266,3.916487 C 65.905078,74.151408 65.040726,75 63.233571,75 c -3.008273,0 -16.05536,5.999552 -20.622296,9.482924 -5.951545,4.539465 -5.752062,10.841552 0.444604,14.045972 2.500067,1.292835 4.003623,1.366987 9.07419,0.447518 3.34268,-0.606143 6.243677,-0.936001 6.446661,-0.733018 0.202983,0.202984 -0.07367,1.972484 -0.614776,3.932224 -0.776397,2.81188 -0.44041,6.06816 1.59351,15.44377 2.873739,13.24687 6.774819,32.17449 12.032544,58.38061 1.931061,9.625 3.741078,18.2781 4.02226,19.2291 0.470781,1.59226 -1.096193,1.75227 -19.799513,2.0219 C 44.63984,197.41204 185.8,197.53824 369.5,197.53145 c 183.7,-0.007 311.6125,-0.13335 284.25,-0.28124 z M 438,196.67933 c 0,-0.6393 -7.84996,-39.25193 -8.52425,-41.92933 l -0.69257,-2.75 34.10841,0 34.10841,0 0,22.5 0,22.5 -29.5,0 c -16.225,0 -29.5,-0.1443 -29.5,-0.32067 z m 104,0 c 0,-0.6393 -7.84996,-39.25193 -8.52425,-41.92933 l -0.69257,-2.75 34.10841,0 34.10841,0 0,22.5 0,22.5 -29.5,0 C 555.275,197 542,196.8557 542,196.67933 z M 285.8125,152.31689 c 0.72187,-0.28887 1.58438,-0.25335 1.91667,0.0789 0.33229,0.33229 -0.25834,0.56864 -1.3125,0.52522 -1.16495,-0.048 -1.4019,-0.28494 -0.60417,-0.60416 z M 532.69036,149.25 c -0.23523,-0.4125 -0.71186,-2.32921 -1.05919,-4.25935 -0.52606,-2.92341 -0.26331,-3.73929 1.57369,-4.88651 4.94563,-3.0886 37.79226,-31.46909 44.47284,-38.42589 7.66124,-7.978016 11.8069,-14.717131 10.98556,-17.857942 -0.35192,-1.345758 0.1649,-2.184674 1.7071,-2.77102 3.47164,-1.319915 4.90753,-3.702515 4.38343,-7.273487 -0.47476,-3.234691 3.27548,-16.205066 5.25902,-18.188608 C 600.6624,54.937602 601,70.912553 601,102.3 l 0,47.7 -33.94098,0 c -18.66754,0 -34.13344,-0.3375 -34.36866,-0.75 z M 123.68048,137.60972 c -1.11077,-2.89462 -0.7954,-4.64816 1.31952,-7.33685 l 2,-2.54259 -0.0761,2.38486 c -0.0418,1.31167 -0.63563,3.93354 -1.31952,5.82636 -1.00303,2.77609 -1.37502,3.09864 -1.92392,1.66822 z m 152.93215,-1.79658 c -1.15668,-5.78339 -0.75544,-6.49949 1.85637,-3.31314 2.98968,3.64732 2.99946,3.72635 0.64363,5.19759 -1.66821,1.04181 -1.95851,0.82299 -2.5,-1.88445 z M 212.75,130.19521 c -2.6125,-0.16764 -4.72817,-0.61764 -4.70148,-1 0.0267,-0.38237 1.563,-3.62021 3.41403,-7.19521 2.13267,-4.11895 3.55852,-5.95053 3.89242,-5 0.85514,2.43436 2.84957,13.14352 2.48239,13.32931 -0.18555,0.0939 -2.47486,0.0335 -5.08736,-0.1341 z m 70.83345,-0.83834 c -0.74902,-1.95191 -1.08727,-1.60487 4.12671,-4.23395 5.76254,-2.90569 5.88882,-2.7219 1.28984,1.87708 -2.2,2.2 -4.17686,4 -4.39301,4 -0.21616,0 -0.67675,-0.73941 -1.02354,-1.64313 z M 128.23288,165.25 c 3.43378,-1.20151 6.34773,-3.24231 9.29712,-6.51128 2.69765,-2.98995 4.4859,-4.29205 4.80677,-3.5 0.38823,0.9583 0.76579,0.90096 1.57179,-0.23872 1.2012,-1.69851 1.49286,-8.36225 0.34144,-7.80125 -4.84716,2.36168 -6.25,3.25091 -6.25,3.96177 0,0.46171 0.70513,0.83948 1.56695,0.83948 1.11047,0 0.50195,1.29969 -2.08882,4.46138 -4.0678,4.96422 -11.74417,8.53862 -18.3375,8.53862 -5.2116,0 -12.863,-2.76554 -14.62963,-5.28776 -0.80575,-1.15037 -1.78898,-1.76759 -2.18497,-1.3716 -1.08254,1.08253 4.13603,5.8664 7.88295,7.2263 4.91496,1.78383 12.39608,1.65228 18.0239,-0.31694 z m 187.86133,-21 c 4.87441,-5.22244 7.00415,-10.51125 7.64502,-18.98501 0.45613,-6.03112 0.78493,-7.07487 1.92946,-6.12499 0.7588,0.62975 1.67551,0.84913 2.03712,0.48752 C 328.36699,118.96634 322.18744,112 320.93976,112 c -0.85073,0 -2.13459,9.13851 -1.38865,9.88444 0.3067,0.3067 1.01828,-0.10433 1.58129,-0.9134 0.72842,-1.04678 0.88945,0.27459 0.55835,4.58153 -0.57038,7.41959 -3.98812,15.67842 -7.82382,18.90595 -1.57681,1.3268 -2.86693,2.66641 -2.86693,2.97692 0,1.43146 1.88531,0.25256 5.09421,-3.18544 z m 70.48303,-35.5 c 3.28775,-6.96804 3.87012,-9.182336 3.74778,-14.25 C 390.18616,88.748187 387.2194,79.871663 384.97153,78.482403 383.4839,77.563002 383.81665,76 385.5,76 c 0.825,0 1.49629,-0.3375 1.49175,-0.75 -0.01,-0.90178 -8.14204,-5.433043 -8.71759,-4.857491 -0.59783,0.597828 0.73582,7.014751 1.8024,8.672347 0.79047,1.228489 1.05371,1.232855 1.82814,0.03032 0.67895,-1.054274 1.58198,-0.06828 3.61891,3.951407 4.1956,8.279627 3.97827,15.317757 -0.78146,25.307207 -4.10226,8.60957 -4.11455,8.64621 -2.89984,8.64621 0.46326,0 2.59398,-3.7125 4.73493,-8.25 z m 88.22139,-28.145869 c 1.82839,-0.945494 3.44408,-2.722965 3.81367,-4.195536 0.45668,-1.819556 0.9502,-2.246099 1.71448,-1.481811 C 483.48999,78.089989 492,72.830107 492,67.711782 c 0,-3.451887 -3.73809,-7.892174 -6.32758,-7.516211 -1.16897,0.16972 -3.08903,-0.69119 -4.33915,-1.945571 C 479.11909,56.028278 475,55.151667 475,56.902175 c 0,0.496196 1.35,1.372787 3,1.94798 3.37709,1.177261 3.72819,2.665191 1.4099,5.975011 -2.03587,2.906624 -3.45867,1.813513 -6.33139,-4.864302 -1.69502,-3.940178 -1.90999,-5.40722 -1.0326,-7.046655 C 473.38706,50.408247 472.63273,48 470.50663,48 c -3.96386,0 -4.23561,9.690604 -0.47827,17.055584 1.86528,3.656253 1.87773,3.921951 0.22351,4.767382 -0.96353,0.492432 -3.23122,1.175833 -5.03931,1.518669 -3.44509,0.653233 -25.66322,-1.391371 -42.71256,-3.930586 -7.88356,-1.174125 -11.00596,-1.248139 -14.75308,-0.349711 -5.3426,1.280967 -6.47403,2.357616 -4.71057,4.482467 0.78654,0.947717 3.17358,1.471389 6.83609,1.499709 3.21229,0.02484 14.2113,2.148638 25.62756,4.948427 17.21983,4.223088 21.12084,4.859582 28.06312,4.578806 4.93056,-0.199413 9.29561,-0.963451 11.23551,-1.966616 z"
       id="path2995"
       style="fill:#bfbfbf" />
    <path
       d="m 110.20898,165.56694 c -3.74692,-1.3599 -8.96549,-6.14377 -7.88295,-7.2263 0.39599,-0.39599 1.37922,0.22123 2.18497,1.3716 1.76663,2.52222 9.41803,5.28776 14.62963,5.28776 6.59333,0 14.2697,-3.5744 18.3375,-8.53862 C 140.0689,153.29969 140.67742,152 139.56695,152 138.70513,152 138,151.62223 138,151.16052 c 0,-0.71086 1.40284,-1.60009 6.25,-3.96177 1.15142,-0.561 0.85976,6.10274 -0.34144,7.80125 -0.806,1.13968 -1.18356,1.19702 -1.57179,0.23872 -0.32087,-0.79205 -2.10912,0.51005 -4.80677,3.5 -6.6627,7.38464 -17.98868,10.21529 -27.32102,6.82822 z M 311,147.43544 c 0,-0.31051 1.29012,-1.65012 2.86693,-2.97692 3.8357,-3.22753 7.25344,-11.48636 7.82382,-18.90595 0.3311,-4.30694 0.17007,-5.62831 -0.55835,-4.58153 -0.56301,0.80907 -1.27459,1.2201 -1.58129,0.9134 -0.74594,-0.74593 0.53792,-9.88444 1.38865,-9.88444 1.24768,0 7.42723,6.96634 6.76605,7.62752 -0.36161,0.36161 -1.27832,0.14223 -2.03712,-0.48752 -1.14453,-0.94988 -1.47333,0.0939 -1.92946,6.12499 -0.30241,3.99849 -1.35873,9.06211 -2.34738,11.2525 C 318.9033,142.03094 311,150.33436 311,147.43544 z m 70,-30.83165 c 0,-0.21791 1.68397,-3.93041 3.74215,-8.25 4.75973,-9.989446 4.97706,-17.027576 0.78146,-25.307203 -2.03693,-4.019684 -2.93996,-5.005681 -3.61891,-3.951407 -0.77443,1.202531 -1.03767,1.198165 -1.82814,-0.03032 -1.06658,-1.657596 -2.40023,-8.074519 -1.8024,-8.672347 0.57555,-0.575552 8.70767,3.955711 8.71759,4.857491 0.005,0.4125 -0.66675,0.75 -1.49175,0.75 -1.68335,0 -2.0161,1.563002 -0.52847,2.482403 2.24787,1.38926 5.21463,10.265784 5.35349,16.017597 0.12234,5.067664 -0.46003,7.281956 -3.74778,14.249996 -2.14095,4.5375 -4.27167,8.25 -4.73493,8.25 C 381.37904,117 381,116.82171 381,116.60379 z"
       id="path2993"
       style="fill:#fe0000" />
    <path
       d="M 120.24281,152.47584 C 113.95089,147.09019 109.8659,133.84968 113,129 c 0.84247,-1.30363 0.97138,-1.28596 0.98469,0.13499 0.0187,1.99275 4.40238,5.03744 6.23844,4.33288 1.99561,-0.76579 4.29734,7.69112 2.83631,10.42107 -1.37455,2.56837 -0.48468,6.41625 2.00487,8.66926 1.75793,1.59091 2.054,1.5943 4.41007,0.0505 3.10852,-2.03679 3.39083,-0.32818 0.30311,1.83455 -3.27355,2.29289 -4.96524,1.94381 -9.53468,-1.96746 z M 213.5,146.06169 c -4.14195,-1.01283 -10.84087,-4.56007 -12.5669,-6.65448 -1.30646,-1.58529 -1.21218,-1.68612 1.0669,-1.14104 1.375,0.32885 6.2125,1.13027 10.75,1.78091 8.15352,1.16917 8.25,1.21674 8.25,4.06796 0,3.12554 -1.29954,3.46284 -7.5,1.94665 z m 11.03837,-1.8223 c -0.83324,-2.17139 -0.74322,-2.20676 2.62663,-1.03203 2.8061,0.97822 3.37308,0.84636 5,-1.1628 1.27633,-1.5762 1.835,-1.813 1.835,-0.77779 0,2.07038 -1.93861,3.40386 -5.71163,3.92877 -2.15922,0.3004 -3.38805,-0.0129 -3.75,-0.95615 z m 69.40485,-5.1333 c 1.71415,-3.20292 -0.84465,-6.8716 -5.08546,-7.29128 l -3.18105,-0.31481 5.17298,-5.35556 c 4.33435,-4.48733 5.57977,-5.25347 7.68217,-4.7258 5.65928,1.42039 9.24205,-3.9015 5.38822,-8.00372 C 302.67229,112.08672 302.16944,111 302.80263,111 c 0.6332,0 1.85462,1.07345 2.71427,2.38544 1.42155,2.16957 1.41152,2.98847 -0.11078,9.04879 -1.82112,7.24993 -5.27534,13.1317 -9.78397,16.65997 l -2.87785,2.25209 1.19892,-2.2402 z m 76.69163,-23.61527 c -0.3337,-0.86962 -2.15961,-2.22996 -4.05757,-3.02298 -3.02217,-1.26274 -3.53601,-2.00983 -4.13651,-6.01422 -0.92508,-6.1689 0.34577,-16.549694 2.28977,-18.70362 2.38101,-2.638139 3.96954,-2.146713 7.12025,2.202717 4.28377,5.913572 5.01989,14.969413 1.78448,21.952723 -1.67273,3.61041 -2.57642,4.69029 -3.00042,3.58538 z M 575,101.84294 c 0,-0.43826 -1.09071,-1.5115 -2.4238,-2.38497 -2.22256,-1.456275 -2.69998,-1.448712 -5.75,0.0911 l -3.3262,1.67923 3.65804,-3.864148 C 569.16996,95.238868 572.13154,90.575 573.73934,87 c 3.44419,-7.65829 5.73438,-10.1205 6.54175,-7.033116 0.54587,2.087412 5.20244,4.470347 6.80283,3.481253 1.6098,-0.994912 0.98458,2.496849 -1.22505,6.841701 C 583.87335,94.194022 575,103.63467 575,101.84294 z M 39.968611,94.941348 c -2.879382,-5.380174 1.289085,-10.02727 14.259432,-15.896719 7.884713,-3.568055 9.804338,-3.842879 7.268281,-1.040567 -1.511126,1.669775 -1.620381,2.428247 -0.654988,4.547053 2.226711,4.887098 1.846873,5.108207 -7.004355,4.07733 l -8.163019,-0.950723 -2.429351,2.824289 c -1.804707,2.098098 -2.283467,3.553711 -1.861981,5.661139 0.669071,3.345356 0.121238,3.646853 -1.414019,0.778198 z M 634.47061,81.978698 c -7.81237,-3.086 -10.40973,-4.605623 -11.75,-6.874517 -2.38509,-4.037636 -2.17084,-4.483209 1.19865,-2.492804 2.76328,1.632308 3.05981,1.632356 5.54973,8.99e-4 2.01047,-1.317309 2.46998,-2.229201 1.94957,-3.868867 -0.67667,-2.132004 -0.66301,-2.13394 2.20027,-0.312016 1.58464,1.008315 3.78117,2.621831 4.88117,3.585589 1.1,0.963758 3.71076,2.613407 5.80169,3.665888 3.79525,1.910361 3.79821,1.916745 1.75,3.770353 -2.51303,2.274258 -2.61486,4.119383 -0.30169,5.466678 4.01443,2.338189 -1.66047,0.858408 -11.27939,-2.941203 z M 456.35229,80.198731 c 1.65719,-1.862944 1.70474,-2.378065 0.45147,-4.890501 L 455.40294,72.5 l 6.04853,-0.0746 c 3.32669,-0.04103 7.05198,-0.614516 8.27841,-1.274417 2.10366,-1.131902 2.19784,-1.039599 1.6638,1.630611 -0.67831,3.391537 1.90076,6.323966 3.8487,4.376022 1.57745,-1.577445 2.81084,-1.459894 2.17122,0.206932 -0.91887,2.394553 -5.67629,3.842504 -14.4136,4.386871 l -8.5,0.529583 1.85229,-2.082273 z"
       id="path2991"
       style="fill:#0000fe" />
    <path
       style="fill:#000000"
       d="M 362.96289 38 C 359.15752 38 358.83888 41.077008 360.9707 57.226562 C 363.30074 74.877668 363.46713 82.164368 361.80078 93.689453 C 360.95064 99.569282 360.89688 103.42295 361.61523 106.92969 C 362.56724 111.5771 362.49816 111.90861 360.46875 112.41797 C 357.62901 113.13069 341.59846 110.29538 341.16797 109.00391 C 340.9841 108.45229 339.68629 108 338.28516 108 C 335.26771 108 334.96885 105.34036 341.49609 136.5 C 344.03076 148.6 347.67807 166.375 349.60156 176 C 351.52504 185.625 353.33236 194.2875 353.61719 195.25 C 354.10292 196.89139 352.11832 197 321.63867 197 L 289.14258 197 L 288.07812 191.75 C 287.49331 188.8625 285.4974 179.075 283.64258 170 C 280.19224 153.11861 280.30616 150.15715 284.26758 153.74219 C 285.94957 155.26436 286.28902 155.26051 288.94531 153.69141 C 290.71632 152.64525 293.94381 152 297.4043 152 C 300.48194 152 303 151.55 303 151 C 303 150.45 301.23815 150 299.08398 150 C 296.86176 150 294.96903 149.45922 294.70898 148.75 C 294.34232 147.75 293.98578 147.75 292.92578 148.75 C 292.19703 149.4375 290.52941 150 289.2207 150 C 287.05987 150 286.90605 149.70139 287.53906 146.75 C 288.48416 142.3435 288.76436 142 291.4375 142 C 294.05509 142 301.08569 135.66974 303.36719 131.25781 C 304.17681 129.69217 305.58202 125.54398 306.49023 122.03906 C 308.07655 115.91727 308.06511 115.56542 306.2207 113.08398 C 302.95244 108.68694 298.7214 109.11772 286.88672 115.05664 L 276.58984 120.22461 L 274.38281 117.45703 C 272.76311 115.42576 272.31516 113.83512 272.69727 111.48047 C 273.15813 108.64054 272.90753 108.19262 270.51367 107.5918 C 265.00371 106.20889 263.32381 110.89379 267.38477 116.31641 C 271.65339 122.01632 271.5269 123.17921 266.21289 127.14648 C 260.64676 131.30199 255.82701 139.2274 257.7168 141.11719 C 258.99421 142.3946 259.27198 142.24814 268.19336 135.57422 L 272.88672 132.0625 L 273.56836 136.60742 C 274.00449 139.51571 273.84494 141.55545 273.125 142.27539 C 271.29529 144.1051 271.8316 147.214 274.44727 149.94531 C 276.49115 152.07954 277.57049 155.87419 281.00586 173 C 283.26758 184.275 285.34722 194.2875 285.62695 195.25 C 286.10193 196.8843 284.44534 197 260.56836 197 C 246.50629 197 235 196.85606 235 196.67969 C 235 196.04039 227.15085 157.4274 226.47656 154.75 L 225.7832 152 L 235.89062 152 C 249.2444 152 249.12755 150.1571 235.75 149.78516 C 227.43221 149.5539 225.5 149.21724 225.5 148 C 225.5 147.04937 226.65119 146.38895 228.64453 146.19531 C 230.37444 146.02726 232.55751 145.04277 233.49414 144.00781 C 234.93464 142.41608 235.01913 141.58853 234.04688 138.64258 C 232.62905 134.34652 231.23933 133.15306 225.78125 131.54688 L 221.5 130.28711 L 219.82031 122.41797 C 218.89645 118.08941 218.39047 113.29959 218.69531 111.77539 C 219.27887 108.85761 217.67452 106 215.45312 106 C 214.73662 106 211.32698 111.36369 207.87695 117.91992 C 202.77332 127.61851 201.39763 129.55661 200.49219 128.31836 C 198.80159 126.00632 190.37772 125.34861 188.16016 127.35547 C 187.17467 128.24733 184.59711 129.59081 182.43359 130.33984 C 177.48528 132.05299 177.39052 134.16272 182.21094 135.30273 C 187.81355 136.62771 188.78349 142 183.41992 142 C 181.76376 142 180.58447 141.18144 179.81836 139.5 C 179.19186 138.125 178.30156 137 177.83984 137 C 176.6655 137 176.77871 137.67113 178.52539 141.04883 C 179.77472 143.46476 180.68594 144 183.55664 144 C 185.75034 144 187.27849 143.43862 187.63867 142.5 C 187.96255 141.65598 189.44981 141 191.04102 141 C 192.59637 141 195.09217 140.53473 196.58594 139.9668 C 198.80848 139.12179 199.68258 139.28448 201.40039 140.85547 C 204.83558 143.99708 211.37168 146.84685 216.78125 147.56445 L 221.85156 148.23828 L 223.41992 155.36914 C 224.28257 159.29117 226.36378 169.475 228.04492 178 C 229.72605 186.525 231.33522 194.2875 231.61914 195.25 C 232.10395 196.89354 229.97205 197 196.56836 197 C 177.00629 197 161 196.85606 161 196.67969 C 161 196.04039 153.15083 157.4274 152.47656 154.75 L 151.7832 152 L 159.39258 152 C 169.34384 152 169.26423 150.17093 159.29688 149.79297 L 151.5957 149.5 L 147.86523 132.04102 C 145.81329 122.43828 144.37446 113.37967 144.66797 111.91211 C 145.33454 108.57928 143.50638 105 141.13867 105 C 140.15389 105 138.31081 106.10358 137.04297 107.45312 L 134.73828 109.9082 L 132.58008 106.70312 C 129.01207 101.40854 127.45819 102.44259 127.75195 109.91797 C 127.94394 114.80358 127.60075 116.78352 126.3125 118.20703 C 124.68246 120.0082 124.54423 119.91972 122.56055 115.78906 C 120.13864 110.74583 117.11686 109.79901 113.04883 112.80664 C 111.07948 114.26264 109.90991 114.52915 108.63281 113.81445 C 107.45024 113.15265 106.43752 113.22271 105.46094 114.0332 C 104.63021 114.72264 102.92783 114.9478 101.41602 114.56836 C 99.514098 114.09101 98.927697 114.26468 99.259766 115.20703 C 99.562 116.06472 101.27968 116.41857 104.35742 116.25781 C 108.95724 116.01755 109 116.04426 109 119.19336 C 109 121.03859 109.87494 123.30276 111.08594 124.5918 C 112.76795 126.38222 112.96149 127.20385 112.08594 128.83984 C 108.94001 134.71806 112.77625 146.87124 119.70117 152.9668 C 124.94932 157.58641 126.84687 157.901 130.48633 154.75 C 132.74717 152.79259 133.20831 151.32964 134.02539 143.5 C 134.54195 138.55 134.98798 130.45 135.01758 125.5 C 135.06489 117.5742 135.3535 116.1555 137.42773 113.61914 C 139.5816 110.9854 139.83542 110.90304 140.39062 112.65234 C 141.07009 114.79318 148.26335 149.28798 153.60156 176 C 155.52504 185.625 157.33236 194.2875 157.61719 195.25 C 158.10426 196.89591 155.7822 197 118.56836 197 C 96.806293 197 79 196.85606 79 196.67969 C 79 196.04039 71.150849 157.4274 70.476562 154.75 L 69.783203 152 L 82.890625 152 C 100.34876 152 100.27229 150.14864 82.798828 149.7793 L 69.599609 149.5 L 65.746094 131.5 C 61.896365 113.51394 61.895587 113.49982 63.947266 112.12891 C 66.390261 110.49653 66.52334 109.23638 64.494141 106.99414 C 63.193346 105.55678 63.173725 104.80038 64.34375 101.41602 C 65.679974 97.550921 65.779029 97.490087 71.949219 96.798828 C 75.387265 96.413658 79.263634 95.401157 80.564453 94.548828 C 85.067037 91.598621 86.274337 86 82.408203 86 C 81.031318 86 80.969447 85.741132 82.035156 84.457031 C 84.379765 81.63195 81.692341 80.505705 77.044922 82.365234 C 72.321853 84.255031 71 84.393895 71 83 C 71 82.45 71.762909 82 72.695312 82 C 73.627717 82 75.652718 80.7904 77.195312 79.3125 C 82.387744 74.337834 80.134108 66 73.597656 66 C 72.521583 66 70.139854 65.456574 68.304688 64.792969 C 65.313719 63.71142 64.742106 63.812582 62.789062 65.765625 C 60.096639 68.45805 61.214164 70.021429 64.017578 67.484375 C 67.063489 64.727863 68.572289 66.776839 66.900391 71.400391 C 65.905705 74.151147 65.04153 75 63.234375 75 C 60.226102 75 47.178264 80.99905 42.611328 84.482422 C 36.659783 89.021887 36.859975 95.324877 43.056641 98.529297 C 45.556708 99.822132 47.060292 99.896032 52.130859 98.976562 C 55.473539 98.37042 58.373188 98.041158 58.576172 98.244141 C 58.779155 98.447125 58.504001 100.21604 57.962891 102.17578 C 57.186494 104.98766 57.520767 108.24353 59.554688 117.61914 C 62.428427 130.86601 66.330166 149.79388 71.587891 176 C 73.518952 185.625 75.328193 194.27752 75.609375 195.22852 C 76.080156 196.82078 74.513867 196.98232 55.810547 197.25195 C 44.639632 197.41299 185.8 197.53825 369.5 197.53125 C 553.2 197.52446 681.1125 197.39789 653.75 197.25 L 604 196.98047 L 604 126.9082 L 604 56.833984 L 606.70117 58.800781 C 608.82278 60.346265 609.42421 61.637087 609.50391 64.814453 C 609.58683 68.119711 609.18412 69.050984 607.30273 69.908203 C 605.06014 70.929994 604.11042 73 605.88477 73 C 606.3719 73 608.03759 72.343294 609.58398 71.541016 C 611.62123 70.484074 612.75167 70.378288 613.69141 71.158203 C 614.40473 71.750203 616.0375 72.034288 617.32031 71.789062 C 619.17829 71.433888 620.08742 72.097493 621.78711 75.050781 C 623.61838 78.232681 625.23791 79.287445 633.21094 82.492188 C 640.94154 85.599488 645.85659 86.711541 662.5 89.121094 C 673.5 90.713621 684.975 92.484321 688 93.054688 C 692.19439 93.845544 694.56823 93.773591 698 92.751953 C 702.67988 91.358753 704.09628 88.783876 700.5 88.207031 C 699.4 88.030591 690.625 86.081506 681 83.876953 C 643.12108 75.200995 644.47168 75.636217 636.46094 69.521484 C 634.04979 67.681008 630.7103 65.874876 629.03906 65.507812 C 626.68591 64.990972 626 64.299943 626 62.445312 C 626 59.542225 621.67804 57 616.74414 57 C 612.86182 57 607.27099 53.33594 604.91797 49.248047 C 602.0158 44.206115 599.92625 45.616416 594.91602 56 C 590.36353 65.434909 590.30409 65.503118 586.18164 66.064453 C 583.89864 66.375317 581.60342 66.203036 581.08203 65.681641 C 579.72556 64.325178 577.38477 65.480814 575.42188 68.476562 C 573.08992 72.03558 574.47428 72.939446 577.11523 69.582031 C 579.57758 66.451658 580.51745 67.023078 581.28711 72.123047 C 581.7667 75.300926 581.46171 76.022337 578.81055 77.982422 C 576.95828 79.351863 574.48115 83.081664 572.41602 87.613281 C 569.36702 94.303877 567.18445 96.891146 549.52734 114.75391 C 538.7923 125.61398 530.00886 134.69543 530.00586 134.93359 C 530.00313 135.17175 537.43901 127.97451 546.53125 118.93945 C 563.97265 101.60774 568.59172 98.175527 572.01172 100.00586 C 574.98618 101.59774 574.43151 104.17805 570.25 108.21094 C 563.85415 114.37948 532.647 140 531.5293 140 C 530.08403 140 525.09459 115.29607 525.72266 111.25 C 526.18311 108.28367 525.99866 108 523.61328 108 C 522.13022 108 521 108.56405 521 109.30469 C 521 110.02254 522.36052 116.83514 524.02344 124.44336 C 525.68636 132.05158 526.8059 139.03406 526.51172 139.96094 C 526.21754 140.88781 526.62715 142.96467 527.42188 144.57422 C 528.21661 146.18378 530.94979 157.85 533.49609 170.5 C 536.04238 183.15 538.35356 194.2875 538.63086 195.25 C 539.09882 196.87431 537.72641 197 519.52539 197 L 499.91602 197 L 500.20703 122.5 C 500.49681 48.569091 500.48471 48.000167 498.5 48 C 496.5221 47.999834 496.50359 48.56384 496.80859 99.013672 L 497.11719 150.02734 L 462.85938 149.76367 L 428.60156 149.5 L 424.88477 132.12109 C 422.61972 121.52845 421.38152 113.42512 421.71484 111.37109 C 422.22525 108.22577 422.07746 108 419.5 108 C 416.23065 108 415.93326 105.17044 422.49609 136.5 C 425.03076 148.6 428.67807 166.375 430.60156 176 C 432.52504 185.625 434.33236 194.2875 434.61719 195.25 C 435.10418 196.89564 432.80601 197 396.06836 197 C 374.58129 197 357 196.85606 357 196.67969 C 357 196.04039 349.15085 157.4274 348.47656 154.75 L 347.7832 152 L 369.89062 152 C 383.67542 152 392 151.63111 392 151.01953 C 392 150.4159 383.46011 149.93516 369.79492 149.76953 L 347.58984 149.5 L 343.93945 132.5 C 341.9316 123.15 340.37577 115.38615 340.48242 115.24609 C 340.69609 114.96549 360.65091 118.82886 362.91797 119.58984 C 363.99813 119.95243 364.05759 120.3428 363.16797 121.23242 C 361.44875 122.95164 361.74728 129.06465 363.6543 131.17188 C 366.94918 134.81267 375.88358 132.59772 376.0625 128.0957 C 376.10119 127.12191 376.4991 127.43238 377.08398 128.89453 C 377.61088 130.21174 377.77695 132.12424 377.45312 133.14453 C 377.12929 134.16482 377.31523 135 377.86523 135 C 380.82695 135 380.05663 126.85251 376.88477 124.63086 C 375.84695 123.90394 373.96286 121.32705 372.69922 118.9043 C 371.19816 116.02636 369.13764 113.87405 366.75391 112.69336 C 363.58999 111.12623 363.01515 110.28697 362.42969 106.38281 C 361.51366 100.2743 362.79571 89.893694 364.73047 87.75 C 367.11148 85.111861 368.70085 85.603695 371.85156 89.953125 C 375.90212 95.544767 376.91237 105.29215 374.02734 110.94727 C 372.91272 113.13211 372.00477 115.50153 372.00977 116.21094 C 372.01514 116.92035 373.17637 115.025 374.58984 112 L 377.16016 106.5 L 375.63867 95 C 374.80272 88.675 373.3704 76.3 372.45508 67.5 C 370.13964 45.239182 367.80988 38 362.96289 38 z M 363.91992 39 C 365.36281 39 366.75275 41.325277 368.48242 46.634766 C 369.40248 49.459054 369.96179 53.059054 369.72656 54.634766 L 369.29883 57.5 L 369.14844 54.5 C 369.0656 52.85 367.66724 48.6875 366.04102 45.25 C 364.41481 41.8125 363.46062 39 363.91992 39 z M 361.41602 39.833984 C 363.35291 39.772911 367.77504 50.422498 368.60547 57.861328 C 369.18986 63.096228 369.50788 63.971093 370.10742 62 C 370.55402 60.531761 370.65598 61.769874 370.35547 65 C 369.95316 69.32447 370.094 70.179401 371.01562 69 C 372.01486 67.721308 372.10134 67.766918 371.60156 69.310547 C 371.27911 70.306482 371.66766 75.462916 372.46484 80.769531 C 373.26203 86.076146 373.82115 90.474129 373.70703 90.542969 C 373.59292 90.61181 372.28927 89.280375 370.81055 87.583984 C 368.43568 84.859536 367.88142 84.646185 366.06055 85.757812 C 364.05255 86.983649 364.00014 86.828048 363.99414 79.757812 C 363.99073 75.765651 363.07914 65.616778 361.96875 57.205078 C 360.6282 47.049691 360.27035 41.340251 360.90234 40.210938 C 361.04279 39.959966 361.21565 39.840302 361.41602 39.833984 z M 601.7793 47.115234 C 603.30425 47.218097 603.2942 47.28432 601.68359 47.701172 C 600.37489 48.039885 599.94938 48.951498 600.16016 50.960938 C 600.32105 52.494822 599.8941 54.422932 599.21094 55.246094 C 598.52777 56.069256 596.9113 59.837995 595.61914 63.621094 C 594.32697 67.404192 591.79053 73.3125 589.98242 76.75 C 588.17431 80.1875 586.42613 82.97236 586.09766 82.9375 C 585.76919 82.902637 584.4875 82.466164 583.25 81.96875 C 580.68974 80.939651 580.19045 77.248494 582.49219 76.365234 C 584.64258 75.540052 592.49449 63.375938 596.56836 54.558594 C 599.0264 49.238481 600.56876 47.033584 601.7793 47.115234 z M 470.50586 48 C 466.542 48 466.27196 57.689707 470.0293 65.054688 C 471.89458 68.71094 471.90617 68.976835 470.25195 69.822266 C 469.28842 70.314698 467.02098 70.998961 465.21289 71.341797 C 461.7678 71.99503 439.54934 69.949371 422.5 67.410156 C 414.61644 66.236031 411.49321 66.162119 407.74609 67.060547 C 402.40349 68.341514 401.27365 69.418118 403.03711 71.542969 C 403.82365 72.490686 406.21054 73.014649 409.87305 73.042969 C 413.08534 73.067807 424.08374 75.192398 435.5 77.992188 C 452.71983 82.215276 456.62022 82.851089 463.5625 82.570312 C 472.858 82.194363 477.65177 80.231367 478.61133 76.408203 C 479.06801 74.588647 479.56189 74.163446 480.32617 74.927734 C 483.48938 78.090939 492 72.829262 492 67.710938 C 492 64.259051 488.26137 59.81935 485.67188 60.195312 C 484.50291 60.365032 482.5841 59.504381 481.33398 58.25 C 479.1198 56.028278 475 55.151836 475 56.902344 C 475 57.39854 476.35 58.274416 478 58.849609 C 481.37709 60.02687 481.72845 61.514399 479.41016 64.824219 C 477.37429 67.730843 475.95085 66.638752 473.07812 59.960938 C 471.3831 56.02076 471.16949 54.553497 472.04688 52.914062 C 473.38803 50.408101 472.63196 48 470.50586 48 z M 470.58008 49 C 472.26303 49 472.3929 50.398817 470.95898 53.078125 C 469.75517 55.327462 472.38237 62.191993 476.5293 67.628906 C 479.56828 71.613204 479.57966 72.107298 476.68555 74.826172 C 475.4126 76.022045 474.08873 77 473.74414 77 C 472.4262 77 471.87749 74.837578 472.48828 72.056641 C 472.9132 70.122006 472.47996 67.890603 471.18359 65.330078 C 467.54107 58.135598 467.20375 49 470.58008 49 z M 604.87305 52.660156 C 605.70992 52.762683 609.82865 55.3006 614.4375 58.574219 C 619.35361 62.066079 624.64631 65.20232 626.19727 65.542969 C 630.06723 66.392955 631.90272 69.865887 629.43555 71.669922 C 628.43579 72.400963 627.14097 72.976116 626.55859 72.947266 C 624.85949 72.8631 620.87163 69.986914 615.5 64.972656 C 612.75 62.405613 609.0375 59.305608 607.25 58.083984 C 604.17172 55.980208 603.09725 53.654563 604.75 52.671875 C 604.77578 52.656546 604.81726 52.653321 604.87305 52.660156 z M 600.07227 55.574219 C 600.68264 55.950345 601 71.894192 601 102.30078 L 601 150 L 567.05859 150 C 548.39105 150 532.92467 149.6625 532.68945 149.25 C 532.45422 148.8375 531.97819 146.92037 531.63086 144.99023 C 531.1048 142.06682 531.36808 141.25074 533.20508 140.10352 C 538.15071 137.01492 570.99715 108.63453 577.67773 101.67773 C 585.33897 93.699718 589.4854 86.961123 588.66406 83.820312 C 588.31214 82.474554 588.82889 81.635174 590.37109 81.048828 C 593.84273 79.728913 595.27801 77.346363 594.75391 73.775391 C 594.27915 70.5407 598.03013 57.571433 600.01367 55.587891 C 600.03397 55.567591 600.05258 55.562086 600.07227 55.574219 z M 618.45312 58 C 621.30071 58 625 60.350572 625 62.160156 C 625 64.552447 624.15924 64.480034 620.25391 61.75 C 616.77931 59.321069 616.14458 58 618.45312 58 z M 483.94531 67.300781 C 484.27486 67.317813 484.59884 67.373134 484.90625 67.470703 C 485.91294 67.790214 487.4992 68.893499 488.43164 69.923828 C 490.03543 71.696002 490.00433 71.883745 487.8418 73.398438 C 484.96339 75.41456 481.08363 75.468194 480.46875 73.5 C 480.21101 72.675 479.79163 71.332235 479.53711 70.515625 C 479.03294 68.898038 481.63849 67.181557 483.94531 67.300781 z M 631.43945 67.320312 C 631.67197 67.32595 632.06637 67.503321 632.65625 67.820312 C 633.6708 68.365514 636.17366 70.143419 638.21875 71.771484 C 640.26384 73.399548 643.32042 75.303346 645.01172 76.003906 L 648.08594 77.279297 L 645.91602 79.587891 C 643.69583 81.951176 643.87303 85.066397 646.21875 84.921875 C 647.22241 84.860039 647.22906 84.73295 646.25 84.337891 C 644.41626 83.59796 644.72317 81.558819 646.97656 79.519531 C 649.34212 77.378727 648.47955 77.25199 677 83.947266 C 688.825 86.723227 699.2875 88.996647 700.25 88.998047 C 703.61462 89.003017 701.9616 90.771679 697.55664 91.880859 C 692.93806 93.043832 691.2449 93.151116 689.41992 92.394531 C 688.23133 91.901769 651.59409 86.171666 646 85.603516 C 644.075 85.408007 638.42802 83.606088 633.45117 81.599609 C 626.63612 78.852038 623.98239 77.239259 622.70117 75.070312 C 620.33629 71.06689 620.55648 70.624493 623.91992 72.611328 C 626.6832 74.243636 626.97883 74.242785 629.46875 72.611328 C 631.41566 71.335638 631.932 70.362027 631.45508 68.859375 C 631.11165 67.777346 631.05193 67.310916 631.43945 67.320312 z M 412.15039 67.537109 C 415.27134 67.503783 419.72474 67.963689 427.77344 69.017578 C 436.4226 70.150091 445.96959 71.397796 448.98828 71.789062 C 453.68267 72.397521 454.67149 72.906291 455.81836 75.302734 C 456.90823 77.580135 456.92083 78.422439 455.88477 79.802734 C 454.69486 81.387997 454.73105 81.389572 456.42578 79.84375 C 458.05747 78.355438 458.0974 77.90001 456.82227 75.34375 L 455.40234 72.5 L 461.45117 72.425781 C 464.77786 72.384753 468.50404 71.810292 469.73047 71.150391 C 471.83413 70.018489 471.92857 70.11104 471.39453 72.78125 C 470.71622 76.172787 473.29425 79.106147 475.24219 77.158203 C 476.81964 75.580758 478.05368 75.698408 477.41406 77.365234 C 477.12607 78.115737 475.67755 79.289105 474.19531 79.974609 C 472.71306 80.660112 467.9 81.372143 463.5 81.556641 C 456.66373 81.843296 452.88161 81.23894 437.5 77.398438 C 427.6 74.926591 415.93609 72.587329 411.58008 72.201172 C 407.21544 71.814251 403.49315 70.996741 403.28906 70.378906 C 403.08322 69.755763 404.94725 68.746277 407.48438 68.107422 C 408.88613 67.754457 410.27782 67.557105 412.15039 67.537109 z M 593.33789 72.916016 C 593.58837 72.919831 593.68777 73.505629 593.82227 74.570312 C 593.99951 75.973391 593.60631 77.768806 592.94922 78.560547 C 592.29214 79.352287 591.12173 80 590.34766 80 C 589.28352 80 589.49692 79.027011 591.2207 76.009766 C 592.44406 73.868444 593.01584 72.911111 593.33789 72.916016 z M 74.744141 73.039062 C 75.984515 73.039438 77.189079 73.523957 78.023438 74.529297 C 79.076344 75.797972 78.898162 76.479689 76.972656 78.529297 C 72.598223 83.185668 67.12747 80.506507 70.5 75.359375 C 71.496455 73.838593 73.149374 73.03858 74.744141 73.039062 z M 62.712891 76.607422 C 65.579109 76.545707 67.5587 77.741367 68.949219 80.21875 C 70.8838 83.665447 69.111119 88 65.765625 88 C 62.787574 88 60.158548 80.819285 62.158203 78.146484 C 63.205119 76.747139 63.108493 76.7575 61.517578 78.212891 C 59.929889 79.665331 59.824039 80.318896 60.822266 82.509766 C 63.069775 87.442512 62.701462 87.66122 53.837891 86.628906 L 45.673828 85.677734 L 43.244141 88.501953 C 41.43943 90.600051 40.961326 92.056635 41.382812 94.164062 C 42.051883 97.509419 41.504007 97.810061 39.96875 94.941406 C 37.085788 89.554543 41.25475 84.915728 54.275391 79.023438 C 57.717902 77.465582 60.48361 76.655423 62.712891 76.607422 z M 579.40234 78.685547 C 579.7844 78.769217 580.07941 79.194951 580.28125 79.966797 C 580.82712 82.054209 585.48359 84.43636 587.08398 83.447266 C 588.69378 82.452354 588.069 85.94421 585.85938 90.289062 C 583.87385 94.193247 575 103.63548 575 101.84375 C 575 101.40549 573.90926 100.3305 572.57617 99.457031 C 570.35361 98.000757 569.87619 98.009017 566.82617 99.548828 L 563.5 101.22852 L 567.1582 97.363281 C 569.17012 95.237997 572.13243 90.575 573.74023 87 C 576.32338 81.256282 578.25617 78.434536 579.40234 78.685547 z M 81.015625 82.316406 C 81.397487 82.292496 81.662153 82.330121 81.773438 82.441406 C 82.054279 82.722246 81.773994 83.566963 81.150391 84.318359 C 80.52679 85.069756 80.237584 85.905552 80.507812 86.175781 C 80.77804 86.446009 80.4375 86.754532 79.75 86.861328 C 71.625642 88.123316 69.016948 88.120716 69.517578 86.851562 C 70.004552 85.61703 78.342593 82.483777 81.015625 82.316406 z M 45.666016 86.695312 L 56.859375 87.984375 C 67.316106 89.188811 76.478193 88.983979 81.75 87.429688 C 84.833124 86.520688 84.763218 89.326626 81.625 92.464844 C 79.177346 94.912498 78.934955 94.964415 60.980469 96.919922 C 55.745081 97.490133 50.120081 98.204264 48.480469 98.505859 C 44.70289 99.200719 43.183638 98.172094 42.431641 94.412109 C 42.007329 92.290552 42.389879 90.740227 43.75 89.060547 L 45.666016 86.695312 z M 64.171875 97.228516 C 64.689914 97.322567 64.414804 98.357393 63.332031 101.53516 C 61.844118 105.90194 61.84766 106.33454 63.361328 107.18164 C 64.262841 107.68615 65 108.75116 65 109.54883 C 65 110.3465 64.55 111 64 111 C 63.45 111 63 110.325 63 109.5 C 63 108.56667 62.055556 108 60.5 108 C 59.125 108 58.002792 107.4375 58.005859 106.75 C 58.017146 104.22006 60.120394 98 60.964844 98 C 61.444009 98 62.535978 97.732254 63.390625 97.404297 C 63.738707 97.270725 63.999195 97.197165 64.171875 97.228516 z M 129.24023 104 C 129.6744 104 130.95965 105.4625 132.0957 107.25 C 134.04812 110.32201 134.13308 111.54026 133.65234 129.49023 C 133.14383 148.47672 133.14255 148.48064 130.51562 150.74023 C 127.50602 153.32899 126.62967 153.49771 125.27734 151.75 C 123.06518 148.89106 123.14917 146.45995 125.72461 138.68555 C 128.12238 131.44747 128.43636 128.9675 128.44336 117.25 C 128.44754 109.9625 128.80607 104 129.24023 104 z M 141.83203 106.00781 C 142.53687 106.02672 143 106.34204 143 107 C 143 107.55 142.325 108 141.5 108 C 140.675 108 139.98464 108.3375 139.96484 108.75 C 139.94506 109.1625 138.82124 110.85 137.46875 112.5 L 135.00977 115.5 L 135.00586 112.92383 C 135.00313 111.50721 136.0415 109.36971 137.31445 108.17383 C 138.81069 106.76819 140.6573 105.9763 141.83203 106.00781 z M 215.91602 107.12305 C 216.26341 107.13735 216.56237 107.23034 216.72852 107.39648 C 217.06081 107.72878 216.47018 107.96528 215.41602 107.92188 C 214.25107 107.87389 214.01477 107.63563 214.8125 107.31641 C 215.17344 107.17195 215.56862 107.10874 215.91602 107.12305 z M 266.93359 108.65625 C 267.44004 108.73375 268.02602 109.7709 268.3418 111.7168 C 268.67005 113.73949 268.80956 115.52443 268.65234 115.68164 C 267.89811 116.43587 266 113.34248 266 111.35938 C 266 109.46179 266.42715 108.57875 266.93359 108.65625 z M 213.60938 110.45117 C 213.92511 110.36608 214.09632 110.72883 214.22656 111.41016 C 214.55601 113.13353 213.38331 116.55729 210.60742 121.97266 C 207.84642 127.35896 205.92633 129.98719 204.75 129.99219 C 203.7875 129.99611 203 129.75503 203 129.45508 C 203 129.15513 205.41565 124.39847 208.36914 118.88477 C 211.5256 112.99216 212.91475 110.63838 213.60938 110.45117 z M 298.81055 111 C 300.78797 111 305 114.90747 305 116.74219 C 305 119.0615 301.7896 121.11293 299.08789 120.51953 C 296.66819 119.98808 285.32997 124.87853 275.83203 130.06836 C 275.37591 127.91525 274.52772 125.3346 273.8418 123.07812 C 282.80677 117.88203 296.6795 111 298.81055 111 z M 302.80273 111 C 303.43593 111 304.66292 112.08201 305.5293 113.4043 C 306.96531 115.59589 306.95921 116.36504 305.4707 122.10938 C 303.39791 130.10855 301.84046 133.08593 297.54883 137.25391 C 294.96843 139.75996 293.09618 140.66326 290.10352 140.83984 C 286.37061 141.06009 285.8319 140.72761 281.9668 135.83789 C 278.07364 130.91267 277.93455 130.52027 279.65039 129.26562 C 281.24707 128.0981 281.70496 128.24929 283.32031 130.4668 C 284.66679 132.31523 286.08222 133 288.54883 133 C 292.26824 133 294.41775 135.50435 293.42188 138.67773 C 292.87308 140.42652 292.89534 140.42615 294.00391 138.69531 C 295.73493 135.99265 292.90963 132.21546 288.85742 131.81445 L 285.67578 131.5 L 290.84961 126.14453 C 295.18396 121.6572 296.42885 120.8903 298.53125 121.41797 C 304.19053 122.83836 307.77375 117.51628 303.91992 113.41406 C 302.67213 112.08586 302.16954 111 302.80273 111 z M 343.09375 111.56445 C 344.42784 111.59215 346.47758 111.8807 349.64453 112.4375 C 354.06767 113.21521 359.49258 113.60847 361.69922 113.3125 C 366.76498 112.63303 370.23358 114.34692 369.81055 117.31836 C 369.47793 119.65484 365.33861 120.87013 363.49219 119.17383 C 362.94605 118.67209 358.225 117.45973 353 116.48047 C 341.15836 114.26112 339.87675 113.81539 340.8418 112.25391 C 341.14143 111.76908 341.75966 111.53675 343.09375 111.56445 z M 121.32422 114.81641 L 122.52734 117.6582 C 123.50507 119.96876 123.46323 120.80856 122.30078 122.15039 C 119.75877 125.08465 117.06839 125.12353 116.34375 122.23633 C 115.8312 120.19417 116.28346 119.153 118.51172 117.23633 L 121.32422 114.81641 z M 214.64648 117.01758 C 215.51727 116.78052 215.99614 119.08658 217.02734 124.33008 C 217.65787 127.53619 218.02344 130.23618 217.83789 130.33008 C 216.87537 130.81708 208.00743 129.78903 208.04883 129.19531 C 208.07552 128.81294 209.61186 125.575 211.46289 122 C 213.05558 118.92394 213.96921 117.20196 214.64648 117.01758 z M 128 117.59375 L 128 120.81641 C 128 124.03897 123.77739 132 122.06836 132 C 121.57025 132 120.56451 132.21315 119.83203 132.47266 C 118.04079 133.10729 115 130.68234 115 128.61914 C 115 127.70548 116.2375 126.4331 117.75 125.79297 C 119.2625 125.15283 122.1875 123.04602 124.25 121.11133 L 128 117.59375 z M 273.28906 118.30859 C 273.5105 118.25286 273.88574 118.49022 274.5 119 C 275.325 119.68469 276 120.4154 276 120.62305 C 276 120.83071 275.325 121 274.5 121 C 273.675 121 273 120.26929 273 119.37695 C 273 118.71255 273.06763 118.36433 273.28906 118.30859 z M 369.04492 120.68359 C 369.63398 120.71067 370 120.83818 370 121.06055 C 370 122.78133 367.81696 127.49666 366.6875 128.21484 C 363.97596 129.93898 362.87751 129.01858 363.18945 125.28516 C 363.46495 121.98804 363.86519 121.49723 366.75 120.91211 C 367.64375 120.73083 368.45586 120.65651 369.04492 120.68359 z M 292.46094 123 C 292.75785 123 291.2 124.8 289 127 C 286.8 129.2 284.82357 131 284.60742 131 C 284.11287 131 282.85623 127.79721 283.22656 127.48047 C 283.87035 126.92986 291.9698 123 292.46094 123 z M 271.17969 124.66211 C 271.87917 127.4685 272.5109 130.01789 272.86523 131.73828 C 269.99985 133.39642 267.42269 135.03164 265.51953 136.47266 C 262.23036 138.96313 259.19286 141 258.76953 141 C 255.59594 141 261.49933 131.61915 267.54492 127.05469 C 268.40961 126.40184 269.70648 125.56596 271.17969 124.66211 z M 195.21484 127.10938 C 195.99451 127.10938 197.11865 127.40642 198.5 128 C 200.17602 128.72021 199.97353 128.87079 197.25 128.92969 C 195.4625 128.96835 194 128.55 194 128 C 194 127.40641 194.43518 127.10938 195.21484 127.10938 z M 127 127.73047 L 126.92383 130.11523 C 126.88199 131.4269 126.28741 134.04859 125.60352 135.94141 C 124.60049 138.7175 124.22859 139.03979 123.67969 137.60938 C 122.56892 134.71476 122.88508 132.96213 125 130.27344 L 127 127.73047 z M 113.80273 128.04492 C 113.94194 128.06401 113.97772 128.42427 113.98438 129.13477 C 114.00304 131.12752 118.3866 134.17331 120.22266 133.46875 C 122.21827 132.70296 124.51962 141.15872 123.05859 143.88867 C 121.68404 146.45704 122.5749 150.30558 125.06445 152.55859 C 126.82238 154.14945 127.11854 154.15312 129.47461 152.60938 C 132.58313 150.57258 132.86506 152.28063 129.77734 154.44336 C 126.50379 156.73625 124.81163 156.38783 120.24219 152.47656 C 113.95027 147.09091 109.8659 133.84968 113 129 C 113.42124 128.34819 113.66353 128.02583 113.80273 128.04492 z M 192.16992 130.24023 C 194.80594 130.24223 198.04067 130.34187 202.04883 130.53516 C 210.15088 130.92585 217.2366 131.52873 217.79688 131.875 C 218.35714 132.22127 219.13284 134.19071 219.51953 136.25195 C 220.36372 140.75189 221.5706 140.66358 202.5 137.51562 C 194.8 136.2446 186.3625 134.90576 183.75 134.54102 C 181.1375 134.17627 179 133.52691 179 133.09766 C 179 132.66842 180.871 131.75557 183.1582 131.07031 C 185.04403 130.5053 187.77656 130.23691 192.16992 130.24023 z M 276.31836 130.45703 C 276.74097 130.53356 277.81794 131.61324 278.9082 133.08789 C 281.08775 136.0359 281.1028 136.20568 279.33594 137.52734 C 277.62017 138.81079 277.65039 138.86188 279.7832 138.32422 C 281.24289 137.95625 282.79515 138.41016 284.08789 139.58008 L 286.10938 141.4082 L 283.80469 143.18164 C 281.19667 145.18835 280.92005 145.25484 279.41797 144.23438 C 278.55863 143.65055 276.74308 136.71198 276.20312 132.9082 C 276.1798 132.46402 276.14219 131.98986 276.06836 131.42383 C 276.0647 131.39578 276.05662 131.3623 276.05273 131.33398 C 276.0428 130.89742 276.07807 130.5899 276.17969 130.48828 C 276.21151 130.45646 276.25799 130.4461 276.31836 130.45703 z M 223.89648 131.97656 C 224.85308 132.02484 226.31006 132.51997 228.42188 133.40234 C 232.32 135.03107 235.07577 140.99834 233.05469 143.43359 C 231.44481 145.37338 225.19376 145.94639 224.5293 144.21484 C 223.70939 142.07819 223.80628 142.03542 227.02148 143.15625 C 230.13227 144.24067 233 143.05542 233 140.68555 C 233 140.09777 232.42 140.41116 231.71094 141.38086 C 230.77141 142.66574 229.69759 142.96293 227.75195 142.47461 C 224.36091 141.62351 223.42435 140.40298 222.58594 135.75 C 222.10111 133.05933 222.30216 131.89611 223.89648 131.97656 z M 200.31641 137.96875 C 200.59793 137.94727 201.14534 138.06122 202 138.26562 C 203.375 138.59448 208.2125 139.39623 212.75 140.04688 C 220.9035 141.21604 221 141.26401 221 144.11523 C 221 146.4707 220.58705 146.98204 218.75 146.89844 C 212.95011 146.63458 203.67564 142.73352 200.93359 139.40625 C 200.11706 138.41544 199.84719 138.00455 200.31641 137.96875 z M 428.7832 152 L 462.89062 152 L 497 152 L 497 174.5 L 497 197 L 467.5 197 C 451.275 197 438 196.85606 438 196.67969 C 438 196.04039 430.15085 157.4274 429.47656 154.75 L 428.7832 152 z M 532.7832 152 L 566.89062 152 L 601 152 L 601 174.5 L 601 197 L 571.5 197 C 555.275 197 542 196.85606 542 196.67969 C 542 196.04039 534.15085 157.4274 533.47656 154.75 L 532.7832 152 z M 286.91602 152.12305 C 287.26341 152.13735 287.56237 152.23034 287.72852 152.39648 C 288.06081 152.72877 287.47018 152.96527 286.41602 152.92188 C 285.25107 152.8739 285.01477 152.63563 285.8125 152.31641 C 286.17343 152.17195 286.56862 152.10874 286.91602 152.12305 z "
       id="path2989" />
  </g>
</svg>
