<?xml version="1.0" encoding="UTF-8" standalone="no"?>
<!-- Created with Inkscape (http://www.inkscape.org/) -->

<svg
   xmlns:dc="http://purl.org/dc/elements/1.1/"
   xmlns:cc="http://creativecommons.org/ns#"
   xmlns:rdf="http://www.w3.org/1999/02/22-rdf-syntax-ns#"
   xmlns:svg="http://www.w3.org/2000/svg"
   xmlns="http://www.w3.org/2000/svg"
   version="1.1"
   width="589"
   height="273"
   id="svg2">
  <metadata
     id="metadata8">
    <rdf:RDF>
      <cc:Work
         rdf:about="">
        <dc:format>image/svg+xml</dc:format>
        <dc:type
           rdf:resource="http://purl.org/dc/dcmitype/StillImage" />
        <dc:title></dc:title>
      </cc:Work>
    </rdf:RDF>
  </metadata>
  <defs
     id="defs6" />
  <g
     id="g2987">
    <path
       d="m 471.25,231.38862 c -6.12208,-2.9025 -7.25,-3.8224 -7.25,-5.91293 0,-1.36163 0.19153,-2.47569 0.42561,-2.47569 0.23409,0 4.10501,1.77931 8.60204,3.95403 4.49704,2.17472 10.15551,4.25081 12.57439,4.61354 5.15372,0.77285 5.67688,1.92665 1.27296,2.80743 -5.3981,1.07962 -8.16375,0.55103 -15.625,-2.98638 z m -22.54282,-8.74048 c -8.8945,-3.41277 -10.89916,-4.56487 -11.39745,-6.55023 -0.60817,-2.42312 1.61524,-5.09791 4.23762,-5.09791 0.6408,0 5.42773,2.24406 10.63762,4.9868 9.13236,4.80771 9.45664,5.095 9.03028,8 -0.24324,1.65726 -0.72867,2.96579 -1.07875,2.90784 -0.35007,-0.0579 -5.49327,-1.96887 -11.42932,-4.2465 z M 553,210.97418 c -3.025,-0.43139 -10.64594,-1.32413 -16.93542,-1.98386 C 524.78302,207.80694 518,205.73405 518,203.46978 c 0,-0.63789 0.87992,-1.95613 1.95539,-2.92941 2.32,-2.09957 3.45521,-1.9847 22.04461,2.23068 7.425,1.68371 16.9875,3.61075 21.25,4.28232 4.2625,0.67156 7.75,1.572 7.75,2.00096 0,0.78476 -9.06066,3.05002 -11.29922,2.82493 -0.66043,-0.0664 -3.67578,-0.47369 -6.70078,-0.90508 z m -188,-7.0388 C 365,201.84602 369.26518,193 370.27259,193 c 0.56446,0 5.90905,-4.81157 11.87685,-10.69239 L 393,171.61522 l 0,5.55304 0,5.55304 -9.05662,6.3182 c -4.98115,3.47501 -10.87305,8.48772 -13.09312,11.13935 C 366.9221,204.8706 365,206.10481 365,203.93538 z M 286.64447,192.1781 c -0.79846,-4.99328 6.32634,-41.25867 9.07557,-46.19488 2.14453,-3.8505 4.80792,-4.78009 7.6795,-2.68034 1.82335,1.33327 1.77956,1.63719 -1.33832,9.28775 -1.77284,4.35015 -5.36827,15.7615 -7.98984,25.35855 -2.62157,9.59706 -5.22479,17.60196 -5.78494,17.78867 -0.56015,0.18672 -1.29904,-1.41517 -1.64197,-3.55975 z M 495,192.26794 c -1.375,-0.89493 -4.75,-3.71281 -7.5,-6.26194 -2.75,-2.54913 -6.6875,-5.86621 -8.75,-7.37128 -2.61464,-1.90799 -3.75,-3.49827 -3.75,-5.25256 l 0,-2.51606 4.25,3.40075 c 7.48791,5.99164 16.14182,11.48942 20,12.70589 4.20351,1.32535 5.08711,4.24129 1.81574,5.99208 -2.48626,1.3306 -3.05022,1.26581 -6.06574,-0.69688 z m -48.25,-1.66882 c -2.57197,-1.93942 -2.13375,-4.48057 1,-5.7988 1.5125,-0.63625 6.60249,-4.9201 11.31108,-9.51967 6.28685,-6.14129 9.01755,-8.18771 10.27939,-7.70349 1.48015,0.56798 1.51677,0.81624 0.26425,1.79111 -0.79973,0.62245 -4.30046,4.83956 -7.77939,9.37134 -3.47893,4.53179 -7.00033,9.10756 -7.82533,10.16837 -2.00868,2.58284 -5.10856,3.30592 -7.25,1.69114 z m 45.88486,-7.6717 C 489.69638,180.61601 489.22942,179 491.5,179 c 1.68708,0 5.5,3.46629 5.5,5 0,1.55559 -1.48914,1.18968 -4.36514,-1.07258 z M 448.2,181.8 c -2.26641,-2.26641 -0.70666,-6.8 2.33948,-6.8 0.62672,0 1.63239,1.0818 2.23483,2.404 0.89114,1.95585 0.76657,2.70152 -0.66823,4 -2.11389,1.91305 -2.36371,1.93837 -3.90608,0.396 z M 396,174.08519 c 0,-5.18006 0.32005,-6.23881 2.25,-7.44317 3.81392,-2.38003 7.44518,-2.80398 9.17767,-1.07149 3.06621,3.06621 1.8838,4.99416 -6.95649,11.34278 L 396,180.12427 l 0,-6.03908 z M 469,166 c 0,-0.55 0.70156,-1 1.55902,-1 0.85746,0 1.2809,0.45 0.94098,1 -0.33992,0.55 -1.04148,1 -1.55902,1 C 469.42344,167 469,166.55 469,166 z m -17,-2.05667 c -5.775,-1.00004 -12.34843,-1.57991 -14.60763,-1.2886 -3.27561,0.42237 -4.24125,0.18148 -4.76726,-1.18928 -0.97757,-2.54751 1.31104,-4.7277 4.31801,-4.11345 6.5344,1.33483 30.30488,7.56267 30.81596,8.07375 0.96308,0.96308 -4.72902,0.42764 -15.75908,-1.48242 z M 188.56217,159.25 c -0.48596,-2.96987 0.624,-7.49462 5.3355,-21.75 l 5.94912,-18 0.0766,10.27496 c 0.0731,9.8014 -0.0828,10.59151 -3.38203,17.14289 -1.90225,3.77736 -3.98067,8.94113 -4.61872,11.47504 -1.40619,5.5845 -2.53962,5.87359 -3.36048,0.85711 z m 253.67037,-1.3733 c -2.85202,-0.82304 -3.13362,-1.19301 -2.21482,-2.90982 0.60965,-1.13914 2.08994,-1.96688 3.51746,-1.96688 2.07202,0 2.46482,0.47809 2.46482,3 0,1.65 -0.1125,2.95942 -0.25,2.90981 -0.1375,-0.0496 -1.72036,-0.5145 -3.51746,-1.03311 z M 327.5,141.43399 c -2.75,-1.32454 -5.5938,-2.41405 -6.31955,-2.42112 -1.98405,-0.0194 -0.99272,-4.43292 1.08461,-4.82888 0.97078,-0.18504 3.04849,0.7435 4.61714,2.06343 1.56865,1.31993 4.25004,2.97893 5.95865,3.68666 2.82093,1.16847 3.52889,1.03928 7.69971,-1.40498 C 344.91562,135.96514 348,135.73339 348,137.96862 348,138.53588 347.31004,139 346.46676,139 c -0.84329,0 -3.75333,1.125 -6.46676,2.5 -5.90954,2.99459 -6.14825,2.99333 -12.5,-0.066 z m -195.75,0.48591 c -2.22245,-1.29446 -2.19584,-2.25288 0.23325,-8.40057 1.09079,-2.76063 3.60753,-10.30683 5.59277,-16.76933 3.45132,-11.23502 3.72598,-11.74492 6.26675,-11.634 1.46148,0.0638 1.92796,0.31058 1.03662,0.54841 -1.16825,0.31171 -1.96259,2.58214 -2.84577,8.134 -0.67384,4.23587 -1.86982,10.17659 -2.65775,13.20159 -0.81987,3.14764 -1.16651,7.11867 -0.81049,9.28459 0.94194,5.73036 -2.19662,8.32549 -6.81538,5.63531 z m -8.17857,-5.49133 c -1.90147,-1.90147 -1.96655,-4.32427 -0.17938,-6.67857 1.71585,-2.26035 2.75972,-2.20506 5.96467,0.31595 2.51517,1.97844 2.56216,2.19025 1.10917,5 -1.68368,3.2559 -4.45372,3.80337 -6.89446,1.36262 z m 203.17355,-1.69503 c -1.54624,-2.35986 -1.53225,-2.61608 0.22989,-4.2108 2.00843,-1.8176 5.1159,-1.75412 5.73893,0.11725 0.20874,0.62699 -0.67841,2.36991 -1.97144,3.87314 l -2.35096,2.73316 -1.64642,-2.51275 z M 150.25,132.88122 c -3.09285,-0.89303 -3.25,-1.1737 -3.25,-5.8045 l 0,-4.8661 3.25,0.77944 c 5.35979,1.28542 6.27826,1.9218 7.51942,5.21003 1.97953,5.24437 -0.41214,6.73328 -7.51942,4.68113 z m 52.79656,-8.02423 c -0.0527,-9.77482 0.69186,-10.75848 6.65363,-8.79092 l 3.39494,1.12043 -2.40419,3.15675 c -1.32231,1.73621 -3.57276,5.40675 -5.00101,8.15675 l -2.59681,5 -0.0466,-8.64301 z m -61.4028,5.31915 c -1.50604,-0.29509 -1.73833,-0.95328 -1.23125,-3.48867 1.25918,-6.29594 3.90769,-6.31278 3.40007,-0.0216 -0.25476,3.15745 -0.65592,3.80674 -2.16882,3.5103 z M 122.5,125.48515 c -4.95,-1.24673 -11.1375,-2.56849 -13.75,-2.93724 -6.4343,-0.90819 -6.27862,-3.08747 0.28274,-3.95786 2.768,-0.36719 5.40668,-0.43651 5.86372,-0.15404 0.45705,0.28247 5.03186,0.98946 10.16624,1.57109 5.13439,0.58163 9.47274,1.195 9.64078,1.36305 0.52857,0.52856 -1.86653,6.63605 -2.55131,6.50582 -0.35869,-0.0682 -4.70217,-1.14408 -9.65217,-2.39082 z m 115.53896,0.32629 c -2.81165,-3.01794 -2.55414,-4.53938 0.89657,-5.29728 1.94898,-0.42807 3.76916,-0.0985 5.41603,0.98054 3.81366,2.4988 3.95138,4.20404 0.43843,5.42867 -4.15325,1.44783 -4.40487,1.40638 -6.75103,-1.11193 z m -10.4682,-2.73325 c -0.95657,-1.05699 -6.84093,-3.81239 -13.07636,-6.1231 -8.16979,-3.02753 -11.18954,-4.58596 -10.80879,-5.57819 0.2906,-0.75729 0.64719,-1.3769 0.79242,-1.3769 0.14524,0 5.38459,1.57362 11.64302,3.49694 6.25842,1.92332 12.32171,3.49832 13.47396,3.5 2.19542,0.003 5.40499,2.85152 5.40499,4.79662 0,1.14119 -3.0783,3.20644 -4.77927,3.20644 -0.50092,0 -1.6934,-0.86481 -2.64997,-1.92181 z M 198,111.5 c 0,-0.825 0.17686,-1.5 0.39301,-1.5 0.21616,0 0.65203,0.675 0.96862,1.5 0.31658,0.825 0.13972,1.5 -0.39301,1.5 C 198.43588,113 198,112.325 198,111.5 z M 78.476209,106.21205 c -2.812792,-0.28374 -3.359863,-1.06594 -7.839966,-11.209589 -2.648896,-5.99751 -5.934522,-12.111281 -7.301391,-13.586158 -5.143693,-5.550136 -5.136161,-10.336203 0.01423,-9.043537 1.75457,0.44037 2.86243,1.738098 3.731292,4.370775 2.717049,8.232739 11.09717,25.862029 13.087138,27.531459 2.50861,2.10454 2.303034,2.33998 -1.691305,1.93705 z m -0.329963,-5.92538 -2.025449,-3.970213 9.189601,-17.485451 C 90.364679,69.214008 95.589422,59.017805 96.920937,56.172777 98.252453,53.32775 99.714953,51 100.17094,51 c 1.08802,0 1.0204,6.564775 -0.1133,11 -1.212944,4.745256 -16.79616,39.15316 -18.513692,40.87844 -1.164703,1.16995 -1.678595,0.77795 -3.397702,-2.59177 z M 62.557081,70.414224 C 59.179584,67.036727 62.171217,61 67.222506,61 c 2.972576,0 2.45221,7.327889 -0.665425,9.370642 -2.211286,1.44889 -2.590559,1.453023 -4,0.04358 z"
       id="path2997"
       style="fill:#fefefe" />
    <path
       d="M 0,136.5 0,0 294.5,0 589,0 589,136.5 589,273 294.5,273 0,273 0,136.5 z m 511.1854,118.75016 c -50.12823,-0.25175 -53.28437,-0.37181 -52.80885,-2.00896 0.27816,-0.95766 1.48933,-6.6912 2.69149,-12.7412 1.20216,-6.05 2.31166,-11.14552 2.46557,-11.32338 0.1539,-0.17786 3.76017,1.28464 8.01394,3.25 7.53507,3.48142 11.33956,4.10083 16.45245,2.67862 4.35477,-1.21134 2.90328,-3.3555 -3.21162,-4.74426 -3.14139,-0.71345 -8.92897,-2.91741 -12.86128,-4.89769 -6.64053,-3.34412 -7.10945,-3.79145 -6.58502,-6.2819 0.31055,-1.47476 2.37171,-11.40497 4.58034,-22.06711 2.20863,-10.66215 4.23084,-19.60088 4.4938,-19.86383 0.26296,-0.26296 1.94294,0.66829 3.73328,2.06945 2.67149,2.09075 3.27345,3.27575 3.35707,6.60858 0.0785,3.12962 -0.32292,4.19584 -1.75033,4.64889 -1.01872,0.32333 -2.50562,0.0456 -3.30423,-0.6172 -1.1698,-0.97085 -1.45201,-0.88363 -1.45201,0.44877 0,2.30672 2.19853,2.90637 6.40124,1.74594 2.15602,-0.59531 3.80881,-0.62402 4.14992,-0.0721 0.31178,0.50447 1.85361,0.91722 3.4263,0.91722 2.17223,0 3.36355,0.81569 4.95708,3.39409 1.65424,2.67661 3.73253,4.03453 9.83156,6.42376 11.26839,4.41427 13.35629,4.90656 28.2339,6.65714 7.425,0.87367 17.1,2.02123 21.5,2.55014 9.14884,1.09975 18,-0.3878 18,-3.02513 0,-1.11742 -2.55055,-1.94347 -10,-3.23874 -5.5,-0.9563 -15.175,-2.92787 -21.5,-4.38126 -6.325,-1.45338 -13.3,-2.975 -15.5,-3.38137 -5.20965,-0.9623 -11.30466,-3.65648 -14.6609,-6.48056 -1.47281,-1.2393 -4.73744,-3.10035 -7.25473,-4.13567 -2.51728,-1.03532 -4.57856,-2.46535 -4.58062,-3.17785 -0.002,-0.7125 -1.14166,-2.43337 -2.53244,-3.82415 -1.91289,-1.91289 -3.37069,-2.45615 -5.98623,-2.23081 C 484.46701,178.58192 476,172.21911 476,168.01579 c 0,-3.28605 -2.87474,-5.50771 -5.8889,-4.55105 -1.63089,0.51762 -8.96866,-0.83077 -19.3611,-3.55781 -3.60598,-0.94623 -3.75,-1.15066 -3.75,-5.32303 0,-5.49254 -1.62994,-6.89425 -7.47608,-6.42929 -2.48816,0.19789 -4.52392,-0.0372 -4.52392,-0.5224 0,-0.48522 -1.38684,-0.60484 -3.08186,-0.26584 -1.69503,0.33901 -3.98357,0.1338 -5.08565,-0.45602 -1.10208,-0.58981 -2.27274,-0.80343 -2.60147,-0.4747 -1.21158,1.21158 1.79647,2.88726 5.40814,3.01268 2.046,0.0711 3.87026,0.57994 4.0539,1.13086 0.84369,2.53107 -3.03404,4.36605 -15.69306,7.42613 -9.71677,2.34884 -14.71293,4.09958 -17.82819,6.24731 l -4.3282,2.98395 0.3282,-30.61894 c 0.32222,-30.06168 0.29179,-30.61895 -1.67181,-30.61894 -1.96522,1e-5 -1.99448,0.56089 -1.68265,32.25065 l 0.31736,32.25065 -11.31736,10.82416 c -6.22454,5.95328 -12.04464,11.40557 -12.93354,12.11618 -0.8889,0.71062 -2.42052,3.39814 -3.40358,5.97227 -1.41591,3.7075 -1.53081,4.93037 -0.55284,5.88381 0.96941,0.94508 2.34475,-0.0125 6.40359,-4.45857 4.2107,-4.61241 13.64394,-12.09603 20.41902,-16.1989 0.99076,-0.59999 1.25,6.61776 1.25,34.80203 L 393,255 l -27.06739,0 c -25.30908,0 -27.03374,-0.11368 -26.54951,-1.75 0.28483,-0.9625 2.09164,-9.625 4.01512,-19.25 1.92349,-9.625 5.57108,-27.4 8.10575,-39.5 6.56283,-31.32956 6.26538,-28.5 2.99603,-28.5 -2.57746,0 -2.7252,0.22481 -2.21479,3.37013 0.33332,2.05403 -0.90443,10.15736 -3.16948,20.75 l -3.71638,17.37987 -34.2505,0.26319 -34.25049,0.26318 0.30082,-51.01362 c 0.29748,-50.44729 0.27862,-51.01363 -1.69918,-51.01345 -1.98466,1.7e-4 -1.9978,0.57143 -1.71362,74.50044 L 274.07276,255 238.53638,255 203,255 l 0,-22.5 0,-22.5 20,0 c 12.66667,0 20,-0.36667 20,-1 0,-0.63333 -7.33333,-1 -20,-1 l -20,0 0.0316,-36.25 0.0316,-36.25 3.71838,-7 c 4.31195,-8.11741 5.70799,-8.70068 13.55517,-5.66341 7.38897,2.85993 10.42165,3.36306 12.7524,2.11568 1.71331,-0.91693 2.45263,-0.6597 4.52226,1.57347 2.73157,2.94742 5.2537,2.85573 10.88856,-0.39586 3.75922,-2.16926 4.31912,-5.53068 1.546,-9.28154 -1.76088,-2.38171 -1.8759,-2.97638 -0.66554,-3.44084 0.80479,-0.30883 2.43696,-0.0404 3.62705,0.59652 2.82937,1.51423 3.90109,0.3949 1.41949,-1.48255 -2.21903,-1.6788 -7.01667,-1.99441 -7.927,-0.52147 -0.33992,0.55 -1.79997,1 -3.24457,1 -1.44459,0 -3.64645,0.95816 -4.89301,2.12925 l -2.26649,2.12926 -3.03635,-2.55492 c -4.35,-3.66029 -12.91927,-5.88347 -21.35098,-5.53924 -4.90241,0.20015 -7.1826,-0.0863 -7.46652,-0.9381 -0.74945,-2.24837 -4.83429,-1.35673 -6.29588,1.37427 -1.24412,2.32467 -1.19557,2.74397 0.45773,3.95289 1.765,1.2906 1.54224,2.291 -4.87651,21.89969 -5.85743,17.89391 -6.61148,21.03156 -5.83919,24.29711 1.28259,5.42336 3.39934,4.72954 5.33963,-1.75021 0.9058,-3.025 2.82413,-7.75 4.26296,-10.5 l 2.61606,-5 0.0466,56.25 L 200,255 l -26.5,0 -26.5,0 0,-22.5 0,-22.5 9,0 c 5.33333,0 9,-0.40741 9,-1 0,-0.59259 -3.66667,-1 -9,-1 l -9,0 0,-16 c 0,-11.79547 0.31597,-16 1.20239,-16 1.35047,0 7.79761,-5.94987 7.79761,-7.19617 0,-0.44211 -1.0125,-0.80997 -2.25,-0.81748 -1.2375,-0.008 -3.27671,-0.28872 -4.53158,-0.6249 -2.22239,-0.59537 -2.27428,-0.89583 -2,-11.58119 l 0.28158,-10.96995 3.94218,-1.35338 c 5.85615,-2.01047 8.94936,-4.72105 9.96752,-8.73455 0.70999,-2.7987 0.54228,-4.14673 -0.76392,-6.14024 -2.1255,-3.24391 -5.80109,-5.65848 -9.92083,-6.51718 l -3.22495,-0.6722 0,-7.63634 c 0,-8.25284 -0.90189,-10.11923 -4.63466,-9.59108 -1.9948,0.28223 -2.75074,1.55767 -4.82554,8.14174 l -2.4602,7.80709 -6.5398,-0.62047 c -3.59689,-0.34126 -8.7898,-1.04405 -11.5398,-1.56175 -6.90533,-1.29998 -14,-0.004 -14,2.55821 0,1.41126 0.94708,2.12415 3.5,2.63454 1.925,0.38485 6.12726,1.2304 9.33836,1.87901 l 5.83837,1.17927 -2.08837,2.22296 c -2.28838,2.43588 -2.89583,8.97698 -0.94559,10.18229 0.7287,0.45037 0.16741,1.21731 -1.54909,2.11668 -2.11001,1.10554 -2.54888,1.88428 -2.03037,3.60275 0.36381,1.20579 1.0534,2.61234 1.53242,3.12567 1.43504,1.53786 2.1476,-0.11015 0.98604,-2.28053 -0.91043,-1.70116 -0.72664,-2.13597 1.16898,-2.76567 3.7032,-1.23015 10.11355,-1.13226 12.24925,0.18705 1.1,0.67952 4.3625,1.54554 7.25,1.92449 l 5.25,0.68901 0,12.53397 0,12.53397 -4.14657,-0.66307 c -6.199,-0.99126 -13.59139,-4.49242 -16.31195,-7.72562 C 121.2338,159.12441 119,158.10631 119,159.79705 c 0,1.47485 7.46656,7.78223 11.19694,9.45862 2.03332,0.91375 5.97082,1.96301 8.75,2.33168 l 5.05306,0.67031 0,41.37117 0,41.37117 -32.5,0 -32.5,0 0,-22.5 0,-22.5 15,0 c 9.33333,0 15,-0.37778 15,-1 0,-0.6223 -5.67574,-1 -15.027227,-1 l -15.027227,0 0.277227,-49.53693 C 79.462005,115.71543 79.705582,108.7984 81,107.99405 c 0.825,-0.51266 1.529158,-1.73354 1.564795,-2.71308 C 82.600433,104.30144 84.221297,100.125 86.166716,96 99.187207,68.391792 101.31591,62.911092 101.40869,56.756968 c 0.0562,-3.730508 -0.34896,-6.209987 -1.055,-6.455652 -0.652929,-0.227185 -6.0255,9.087498 -12.482462,21.641441 L 76.535079,93.983055 73.815665,85.241527 c -1.883712,-6.055173 -3.542612,-9.452756 -5.398141,-11.0559 l -2.678727,-2.314372 2.130602,-1.492332 c 2.983691,-2.089858 3.126211,-11.775721 0.196342,-13.343739 -2.539485,-1.359092 -8.765867,-1.329408 -9.615818,0.04584 -0.367462,0.594565 -1.658299,0.832506 -2.868528,0.528758 -1.832307,-0.45988 -2.423216,0.07026 -3.53223,3.168973 -0.732498,2.046683 -1.541363,4.283742 -1.797478,4.971242 -0.256116,0.6875 -0.0024,1.25 0.563772,1.25 0.56619,0 1.599909,-1.6875 2.297153,-3.75 l 1.267715,-3.75 0.844182,4.126095 c 0.464301,2.269352 1.688607,4.890289 2.720682,5.824304 1.734729,1.569908 1.759306,1.902406 0.325308,4.401003 -1.434173,2.498902 -1.377085,3.26653 0.756757,10.175696 1.269371,4.110096 3.335403,9.551785 4.591183,12.092641 C 65.938381,100.81375 71.096911,106 73.445883,106 c 0.716617,0 1.568587,1.67073 1.912269,3.75 0.34091,2.0625 0.624789,35.57936 0.630842,74.4819 L 76,254.9638 52.25,255.25088 c -13.0625,0.1579 96.85,0.28257 244.25,0.27705 147.4,-0.006 244.00843,-0.13051 214.6854,-0.27777 z M 277,232.5 l 0,-22.5 34.10841,0 34.10841,0 -0.69257,2.75 C 343.84996,215.4274 336,254.04003 336,254.67933 336,254.8557 322.725,255 306.5,255 l -29.5,0 0,-22.5 z m 119,0 0,-22.5 18.5,0 18.5,0 0,2.27749 c 0,4.39154 2.70479,6.39431 14.57778,10.79416 6.39738,2.37073 11.81795,4.79603 12.04571,5.38956 0.22776,0.59353 -0.71935,6.64445 -2.10469,13.44649 C 456.13346,248.70973 455,254.43815 455,254.63752 455,254.83688 441.725,255 425.5,255 l -29.5,0 0,-22.5 z m 56.5,-17.3072 -9,-4.6928 9.8789,-0.28777 c 5.43339,-0.15827 10.08281,-0.0839 10.33203,0.16537 0.24922,0.24922 -0.14628,2.49047 -0.8789,4.98056 l -1.33203,4.52743 -9,-4.69279 z m -56.5,-20.57265 0,-13.37986 5.66329,-4.27583 c 6.00311,-4.53239 13.0233,-7.17197 24.07546,-9.05233 3.71869,-0.63267 7.43625,-1.7185 8.26125,-2.41294 2.90455,-2.4449 5.84791,-2.5289 18.34798,-0.52358 6.94041,1.11342 12.94979,2.02439 13.35417,2.02439 0.40439,0 -1.93757,2.701 -5.20435,6.00222 l -5.93958,6.00222 -1.40427,-2.75222 c -3.61072,-7.07663 -6.30484,-7.81466 -11.58936,-3.17479 -1.92775,1.69259 -3.97893,2.78453 -4.55818,2.42653 -1.17417,-0.72568 -7.00641,1.55526 -7.00641,2.74015 0,1.01059 2.17114,0.93363 3.8607,-0.13685 2.00303,-1.2691 5.1393,-0.13745 5.1393,1.85438 0,0.95061 0.87503,2.52028 1.94451,3.48814 1.91432,1.73244 1.89104,1.83751 -1.5,6.7672 -1.89448,2.7541 -3.44451,5.45019 -3.44451,5.99132 0,0.54114 -0.70693,3.41564 -1.57096,6.38779 L 432.85808,208 414.42904,208 396,208 l 0,-13.37985 z m 49,12.35607 c 0,-0.60291 1.58642,-3.17388 3.52538,-5.71326 1.93896,-2.53938 3.80842,-5.74475 4.15435,-7.12304 1.07725,-4.29211 15.92666,-24.12471 18.07027,-24.13432 1.71283,-0.008 1.68419,0.21457 -2.57694,19.9944 l -3.76999,17.5 -9.70154,0.28621 C 448.15884,207.97923 445,207.7155 445,206.97622 z M 147,173 c 0,-0.55 0.47656,-1 1.05902,-1 0.58246,0 0.7809,0.45 0.44098,1 -0.33992,0.55 -0.81648,1 -1.05902,1 C 147.19844,174 147,173.55 147,173 z m -8,-41 c 0,-0.55 1.0125,-0.99311 2.25,-0.98469 1.81944,0.0124 1.96296,0.20082 0.75,0.98469 -1.93876,1.25292 -3,1.25292 -3,0 z m -9.00914,-2.51101 c -1.34938,-1.6259 -0.29113,-1.96544 1.8659,-0.59868 0.82415,0.52221 0.96677,1.10072 0.36331,1.47368 -0.5464,0.33769 -1.54954,-0.0561 -2.22921,-0.875 z M 142.56686,116.25 C 143.50412,109.79223 144,109.64806 144,115.83333 144,118.80998 143.55015,121 142.93873,121 c -0.69617,0 -0.82411,-1.6341 -0.37187,-4.75 z M 516.5,248.63865 c 2.75,-0.73569 7.34754,-2.53035 10.21676,-3.98813 C 532.8005,241.5595 533,241.52297 533,243.5 c 0,0.825 0.45585,1.5 1.013,1.5 1.21706,0 5.6066,-8.71374 4.79725,-9.52309 -0.72587,-0.72586 -9.81025,1.53527 -9.81025,2.4418 0,0.37471 0.4697,1.15099 1.04379,1.72508 1.21605,1.21605 -7.65354,5.49963 -15.38636,7.43085 -10.5209,2.62754 -29.32106,-0.80327 -41.40186,-7.55536 C 468.1634,236.67321 468,236.62553 468,237.9856 c 0,2.11442 18.98933,10.19891 26.5,11.28208 6.55165,0.94487 17.26142,0.63865 22,-0.62903 z M 289.71364,195.75 c 0.52719,-0.6875 2.82765,-8.28688 5.11212,-16.88752 C 300.41544,157.81831 304.57735,147 307.08355,147 c 2.36932,0 13.95585,-3.90022 15.7038,-5.28615 0.91201,-0.72313 2.73824,-0.34118 6.26367,1.31004 l 4.97631,2.33079 5.73633,-2.6035 c 3.15499,-1.43193 6.52384,-2.84761 7.48634,-3.14596 2.17653,-0.67466 2.2311,-1.96105 0.15625,-3.68303 -1.35078,-1.12104 -2.35168,-0.89664 -6.56518,1.47188 -4.42173,2.48558 -5.29593,2.66016 -7.90625,1.57893 C 331.32067,138.3044 330,137.55693 330,137.31196 c 0,-0.24497 1.125,-1.92035 2.5,-3.72307 3.22253,-4.22496 3.15543,-6.58676 -0.28066,-9.87875 -3.00205,-2.87615 -8.49634,-3.36591 -11.0187,-0.9822 -0.71465,0.67536 -2.06091,1.65411 -2.99167,2.17499 -0.93077,0.52089 -1.38766,1.25172 -1.01531,1.62407 0.37235,0.37235 1.70623,-0.0439 2.96418,-0.925 3.35997,-2.35342 3.74608,-2.00806 2.33708,2.09045 -1.07493,3.12677 -2.01437,3.95323 -6.13216,5.3947 -21.90639,7.66855 -22.57599,8.03651 -23.00095,12.63965 -0.14081,1.52526 -2.08199,11.75786 -4.31372,22.7391 -3.73234,18.3649 -4.25004,24.46565 -2.35773,27.7841 0.63998,1.12231 1.94472,0.90653 3.02328,-0.5 z M 343,172.48598 c 0,-1.02696 -4.52013,-7.46156 -5.25,-7.4736 -0.4125,-0.007 -0.75,0.66262 -0.75,1.48762 0,1.85342 -0.40725,1.86257 -3.79966,0.0853 -3.8843,-2.03495 -8.49919,-7.28507 -11.72182,-13.33532 -1.53801,-2.8875 -3.17486,-5.25 -3.63745,-5.25 -1.18958,0 -1.14722,0.12567 1.90893,5.66388 3.71858,6.73864 9.01554,12.67816 13.25,14.85732 1.925,0.99066 2.9375,1.99116 2.25,2.22333 -2.82693,0.95468 -0.95256,2.25547 3.25,2.25547 2.475,0 4.5,-0.23131 4.5,-0.51402 z M 114,50.202948 c 0,-1.521801 -7.52198,-7.807177 -11.48251,-9.594801 C 100.3271,39.619496 95.263479,38.563178 91.264988,38.260773 85.23387,37.80464 84.190122,37.475844 85.140003,36.331307 87.649682,33.307329 84.750793,33.849208 81.48502,37.01452 77.363615,41.009142 77.154906,42 80.4349,42 c 1.339196,0 3.651605,0.46259 5.138689,1.027978 3.420477,1.300464 4.549642,0.288935 1.924839,-1.724309 -1.844096,-1.414436 -1.520289,-1.493082 4.192954,-1.018382 7.324195,0.60855 16.265178,4.419628 18.923568,8.066135 1.86643,2.56019 3.38505,3.39083 3.38505,1.851526 z"
       id="path2995"
       style="fill:#bfbfbf" />
    <path
       d="m 494.5,249.26768 c -7.51067,-1.08317 -26.5,-9.16766 -26.5,-11.28208 0,-1.36007 0.1634,-1.31239 5.25557,1.53368 12.0808,6.75209 30.88096,10.1829 41.40186,7.55536 7.73282,-1.93122 16.60241,-6.2148 15.38636,-7.43085 C 529.4697,239.0697 529,238.29342 529,237.91871 c 0,-0.90653 9.08438,-3.16766 9.81025,-2.4418 C 539.6196,236.28626 535.23006,245 534.013,245 533.45585,245 533,244.325 533,243.5 c 0,-1.97703 -0.1995,-1.9405 -6.28324,1.15052 -9.43374,4.79307 -20.24922,6.34309 -32.21676,4.61716 z M 147,175.2 c 0,-0.44 0.47329,-1.27329 1.05175,-1.85175 0.73566,-0.73566 -1.14792,-1.21811 -6.26749,-1.6053 -4.02558,-0.30445 -9.11136,-1.36245 -11.30175,-2.3511 C 126.52198,167.60423 119,161.31885 119,159.79705 c 0,-1.69074 2.2338,-0.67264 4.54148,2.06988 3.09051,3.67286 11.17432,7.14601 18.34448,7.88155 5.18242,0.53164 5.50698,0.44627 4.22154,-1.11045 -1.87083,-2.26563 -0.9667,-2.9152 2.31891,-1.66601 1.48708,0.56539 3.79949,1.02798 5.13869,1.02798 3.24914,0 3.07117,0.99097 -0.86271,4.80383 C 149.56042,175.84915 147,176.92505 147,175.2 z m 187,-3.11667 c 0,-0.50416 0.5625,-1.10662 1.25,-1.3388 0.6875,-0.23217 -0.325,-1.23267 -2.25,-2.22333 -4.23446,-2.17916 -9.53142,-8.11868 -13.25,-14.85732 C 316.69385,148.12567 316.65149,148 317.84107,148 c 0.46259,0 2.09944,2.3625 3.63745,5.25 3.22263,6.05025 7.83752,11.30037 11.72182,13.33532 3.39241,1.77725 3.79966,1.7681 3.79966,-0.0853 0,-0.825 0.3375,-1.49443 0.75,-1.48762 0.72987,0.012 5.25,6.44664 5.25,7.4736 0,0.28271 -2.025,0.51402 -4.5,0.51402 -2.475,0 -4.5,-0.4125 -4.5,-0.91667 z M 110.61495,48.351422 c -2.65839,-3.646507 -11.599373,-7.457585 -18.923568,-8.066135 -5.713243,-0.4747 -6.03705,-0.396054 -4.192954,1.018382 2.624803,2.013244 1.495638,3.024773 -1.924839,1.724309 C 84.086505,42.46259 81.774096,42 80.4349,42 c -3.279994,0 -3.071285,-0.990858 1.05012,-4.98548 3.265773,-3.165312 6.164662,-3.707191 3.654983,-0.683213 -0.949881,1.144537 0.09387,1.473333 6.124985,1.929466 3.998491,0.302405 9.062112,1.358723 11.252502,2.347374 5.6964,2.571127 13.90306,10.493274 10.73251,10.360428 -0.4125,-0.01728 -1.59827,-1.195003 -2.63505,-2.617153 z"
       id="path2993"
       style="fill:#fe0000" />
    <path
       d="M 435.03518,216.06574 C 434.46583,215.0019 434,213.2019 434,212.06574 434,210.40544 434.63248,210 437.22251,210 l 3.2225,0 -2.31576,1.62202 c -1.63853,1.14767 -2.18281,2.31744 -1.86117,4 0.551,2.88241 0.14957,3.02688 -1.2329,0.44372 z M 434,207.74682 c 0,-0.13925 0.88704,-3.35499 1.97119,-7.14608 2.5193,-8.80953 8.02881,-17.1922 8.02881,-12.21575 0,1.90654 4.54794,4.72571 6.4476,3.99674 2.62589,-1.00765 1.78567,2.07865 -1.97622,7.25908 -1.94074,2.67255 -3.79322,5.64669 -4.11663,6.60919 -0.45277,1.34749 -1.71123,1.75 -5.47138,1.75 C 436.19752,208 434,207.88607 434,207.74682 z m 80.5,-1.9053 c -11.89379,-3.96693 -18.21441,-7.08804 -19.80416,-9.77927 -2.34611,-3.97165 -2.12831,-4.57563 0.9279,-2.57313 3.10464,2.03424 6.9449,0.85117 8.19352,-2.52417 0.74799,-2.02199 0.8083,-2.01505 4.22078,0.48624 1.90408,1.39565 5.61534,3.50667 8.24725,4.69117 l 4.78528,2.15362 -2.03528,2.16646 c -2.49528,2.6561 -2.5721,4.12552 -0.28529,5.45746 2.32037,1.35149 -0.0965,1.30691 -4.25,-0.0784 z M 409.66542,169.17144 c 0.74686,-2.85602 -3.11072,-6.47555 -5.96657,-5.59836 -1.20937,0.37145 -1.91439,0.37252 -1.56672,0.002 0.76567,-0.81521 26.63356,-7.51461 29.15305,-7.55021 1.49606,-0.0211 1.60602,0.30955 0.67893,2.04183 -0.85795,1.60309 -0.75611,2.60144 0.4537,4.44785 1.82262,2.78166 1.54948,3.02615 -4.41781,3.95436 -4.63046,0.72027 -14.80715,3.13576 -17.39488,4.12877 -1.0629,0.40787 -1.31811,0.0204 -0.9397,-1.4266 z M 294.07895,145.75 c -0.0957,-2.12091 3.33833,-5.75 5.44092,-5.75 0.83593,0 4.32343,-1.16047 7.75,-2.57881 3.42657,-1.41835 8.18371,-3.18667 10.57141,-3.9296 4.12196,-1.28256 4.26089,-1.26197 2.75,0.40755 -2.25007,2.48629 -1.97346,5.01842 0.65872,6.0301 l 2.25,0.86479 -2.5,0.98079 C 316.46093,143.55556 308.94598,146 308.01051,146 c -0.50578,0 -2.0446,-1.125 -3.4196,-2.5 -1.375,-1.375 -3.35071,-2.5 -4.39047,-2.5 -1.94153,0 -4.51376,2.34222 -5.491,5 -0.43662,1.18745 -0.568,1.13536 -0.63049,-0.25 z m -155.40361,-2.40799 c -0.36189,-0.3619 -0.15587,-1.26301 0.45784,-2.00248 0.61371,-0.73947 0.85835,-2.63187 0.54366,-4.20534 -0.47076,-2.35379 -0.13834,-3.05852 1.87549,-3.97608 L 144,132.04288 l 0,5.97856 c 0,5.59659 -0.14908,5.97856 -2.33333,5.97856 -1.28334,0 -2.62943,-0.2961 -2.99133,-0.65799 z M 147,138.36163 c 0,-4.42211 0.29563,-5.46216 1.42899,-5.02725 4.72378,1.81268 8.185,1.74964 9.93212,-0.18091 1.47153,-1.62602 1.59208,-2.41106 0.66343,-4.32028 -1.08203,-2.22455 -1.06246,-2.2428 0.42029,-0.39206 3.32423,4.14924 1.20001,9.81265 -4.66232,12.43027 C 146.69419,144.48296 147,144.58158 147,138.36163 z M 220.5,122 c -2.2,-1.01842 -5.1025,-1.88505 -6.45,-1.92584 -1.8379,-0.0556 -2.16439,-0.35977 -1.30682,-1.21734 0.85756,-0.85756 2.6617,-0.57528 7.22124,1.12988 3.34294,1.25017 6.32007,2.6646 6.61584,3.14317 0.84453,1.36647 -1.71515,0.89082 -6.08026,-1.12987 z m 12.5,-4.5 c -0.68469,-0.825 -2.42729,-1.5349 -3.87244,-1.57756 C 227.6824,115.87978 222.675,114.5769 218,113.02715 l -8.5,-2.81773 4.84609,-0.10471 c 6.69711,-0.1447 15.22941,2.53395 18.99824,5.96436 1.73562,1.57977 2.64827,2.88549 2.02811,2.90162 C 234.75229,118.98681 233.68469,118.325 233,117.5 z M 69.606959,102.90547 C 66.292647,100.29844 63.537898,94.972899 60.41667,85.138618 57.776497,76.820035 57.245801,72.584668 59.490868,77.75 c 0.776921,1.7875 1.876648,3.25 2.443838,3.25 0.56719,0 3.044546,4.194767 5.505237,9.321704 7.394806,15.407346 7.651482,16.897856 2.167016,12.583766 z m 2.578413,-15.604423 c -0.575228,-1.540576 -2.005158,-5.241803 -3.177622,-8.224948 -1.602553,-4.077437 -1.757979,-5.113697 -0.626097,-4.174318 1.602159,1.329673 6.158537,13.891362 5.336755,14.713144 -0.267942,0.267943 -0.957809,-0.773303 -1.533036,-2.313878 z"
       id="path2991"
       style="fill:#0000fe" />
    <path
       d="M 52.25,255.25088 76,254.9638 75.988994,184.2319 C 75.982941,145.32936 75.699062,111.8125 75.358152,109.75 75.01447,107.67073 74.1625,106 73.445883,106 c -2.348972,0 -7.507502,-5.18625 -9.827444,-9.880261 -1.25578,-2.540856 -3.321812,-7.982545 -4.591183,-12.092641 -2.133842,-6.909166 -2.19093,-7.676794 -0.756757,-10.175696 1.433998,-2.498597 1.409421,-2.831095 -0.325308,-4.401003 -1.032075,-0.934015 -2.256381,-3.554952 -2.720682,-5.824304 L 54.380327,59.5 53.112612,63.25 C 52.415368,65.3125 51.381649,67 50.815459,67 c -0.56619,0 -0.819888,-0.5625 -0.563772,-1.25 0.256115,-0.6875 1.06498,-2.924559 1.797478,-4.971242 1.109014,-3.098713 1.699923,-3.628853 3.53223,-3.168973 1.210229,0.303748 2.501066,0.06581 2.868528,-0.528758 0.849951,-1.375251 7.076333,-1.404935 9.615818,-0.04584 2.929869,1.568018 2.787349,11.253881 -0.196342,13.343739 l -2.130602,1.492332 2.678727,2.314372 c 1.855529,1.603144 3.514429,5.000727 5.398141,11.0559 L 76.535079,93.983058 87.871228,71.94276 C 94.32819,59.388814 99.700761,50.074131 100.35369,50.301316 c 0.70604,0.245665 1.11124,2.725144 1.055,6.455652 C 101.31591,62.911092 99.187207,68.391792 86.166716,96 c -1.945419,4.125 -3.566283,8.30144 -3.601921,9.28097 -0.03564,0.97954 -0.739795,2.20042 -1.564795,2.71308 -1.294418,0.80435 -1.537995,7.72138 -1.777227,50.46902 L 78.945546,208 93.972773,208 C 103.32426,208 109,208.3777 109,209 c 0,0.62222 -5.66667,1 -15,1 l -15,0 0,22.5 0,22.5 32.5,0 32.5,0 0,-41.5 c 0,-36.22222 0.19076,-41.5 1.5,-41.5 1.27778,0 1.5,2.66667 1.5,18 l 0,18 9,0 c 5.33333,0 9,0.40741 9,1 0,0.59259 -3.66667,1 -9,1 l -9,0 0,22.5 0,22.5 26.5,0 26.5,0 -0.0466,-56.25 -0.0466,-56.25 -2.61606,5 c -1.43883,2.75 -3.35716,7.475 -4.26296,10.5 -1.94029,6.47975 -4.05704,7.17357 -5.33963,1.75021 -0.77229,-3.26555 -0.0182,-6.4032 5.83919,-24.29711 6.41875,-19.60869 6.64151,-20.60909 4.87651,-21.89969 -1.6533,-1.20892 -1.70185,-1.62822 -0.45773,-3.95289 1.46159,-2.731 5.54643,-3.62264 6.29588,-1.37427 0.28392,0.85176 2.56411,1.13825 7.46652,0.9381 8.43171,-0.34423 17.00098,1.87895 21.35098,5.53924 l 3.03635,2.55492 2.26649,-2.12926 c 1.24664,-1.17109 3.4485,-2.12925 4.89309,-2.12925 1.4446,0 2.90465,-0.45 3.24457,-1 0.91033,-1.47294 5.70797,-1.15733 7.927,0.52147 2.4816,1.87745 1.40988,2.99678 -1.41949,1.48255 -1.19009,-0.63692 -2.82226,-0.90535 -3.62705,-0.59652 -1.21036,0.46446 -1.09534,1.05913 0.66554,3.44084 2.77312,3.75086 2.21322,7.11228 -1.546,9.28154 -5.63486,3.25159 -8.15699,3.34328 -10.88856,0.39586 -2.06963,-2.23317 -2.80895,-2.4904 -4.52226,-1.57347 -2.33075,1.24738 -5.36343,0.74425 -12.7524,-2.11568 -7.84718,-3.03727 -9.24322,-2.454 -13.55517,5.66341 l -3.71838,7 -0.0316,36.25 L 203,208 l 20,0 c 12.66667,0 20,0.36667 20,1 0,0.63333 -7.33333,1 -20,1 l -20,0 0,22.5 0,22.5 35.53638,0 35.53638,0 -0.28638,-74.50026 c -0.28418,-73.92901 -0.27104,-74.50027 1.71362,-74.50044 1.9778,-1.8e-4 1.99666,0.56616 1.69918,51.01345 l -0.30082,51.01362 34.25049,-0.26318 34.2505,-0.26319 3.71638,-17.37987 c 2.26505,-10.59264 3.5028,-18.69597 3.16948,-20.75 C 351.7748,166.22481 351.92254,166 354.5,166 c 3.26935,0 3.5668,-2.82956 -2.99603,28.5 -2.53467,12.1 -6.18226,29.875 -8.10575,39.5 -1.92348,9.625 -3.73029,18.2875 -4.01512,19.25 -0.48423,1.63632 1.24043,1.75 26.54951,1.75 L 393,255 l 0,-35.55902 c 0,-28.18427 -0.25924,-35.40202 -1.25,-34.80203 -6.77508,4.10287 -16.20832,11.58649 -20.41902,16.1989 -4.05884,4.44605 -5.43418,5.40365 -6.40359,4.45857 -0.97797,-0.95344 -0.86307,-2.17631 0.55284,-5.88381 0.98306,-2.57413 2.51468,-5.26165 3.40358,-5.97227 0.8889,-0.71061 6.709,-6.1629 12.93354,-12.11618 L 393.13471,170.5 392.81735,138.24935 c -0.31183,-31.68976 -0.28257,-32.25064 1.68265,-32.25065 1.9636,-1e-5 1.99403,0.55726 1.67181,30.61894 l -0.3282,30.61894 4.3282,-2.98395 c 3.11526,-2.14773 8.11142,-3.89847 17.82819,-6.24731 12.65902,-3.06008 16.53675,-4.89506 15.69306,-7.42613 -0.18364,-0.55092 -2.0079,-1.05981 -4.0539,-1.13086 -3.61167,-0.12542 -6.61972,-1.8011 -5.40814,-3.01268 0.32873,-0.32873 1.49939,-0.11511 2.60147,0.4747 1.10208,0.58982 3.39062,0.79503 5.08565,0.45602 1.69502,-0.339 3.08186,-0.21938 3.08186,0.26584 0,0.48521 2.03576,0.72029 4.52392,0.5224 5.84614,-0.46496 7.47608,0.93675 7.47608,6.42929 0,4.17237 0.14402,4.3768 3.75,5.32303 10.39244,2.72704 17.73021,4.07543 19.3611,3.55781 3.01416,-0.95666 5.8889,1.265 5.8889,4.55105 0,4.20332 8.46701,10.56613 13.48508,10.1338 2.61554,-0.22534 4.07334,0.31792 5.98623,2.23081 1.39078,1.39078 2.53038,3.11165 2.53244,3.82415 0.002,0.7125 2.06334,2.14253 4.58062,3.17785 2.51729,1.03532 5.78192,2.89637 7.25473,4.13567 3.35624,2.82408 9.45125,5.51826 14.6609,6.48056 2.2,0.40637 9.175,1.92799 15.5,3.38137 6.325,1.45339 16,3.42496 21.5,4.38126 7.44945,1.29527 10,2.12132 10,3.23874 0,2.63733 -8.85116,4.12488 -18,3.02513 -4.4,-0.52891 -14.075,-1.67647 -21.5,-2.55014 -14.87761,-1.75058 -16.96551,-2.24287 -28.2339,-6.65714 -6.09903,-2.38923 -8.17732,-3.74715 -9.83156,-6.42376 C 492.34101,193.81569 491.14969,193 488.97746,193 c -1.57269,0 -3.11452,-0.41275 -3.4263,-0.91722 -0.34111,-0.55192 -1.9939,-0.52321 -4.14992,0.0721 -4.20271,1.16043 -6.40124,0.56078 -6.40124,-1.74594 0,-1.3324 0.28221,-1.41962 1.45201,-0.44877 0.79861,0.66279 2.28551,0.94053 3.30423,0.6172 1.42741,-0.45305 1.82885,-1.51927 1.75033,-4.64889 -0.0836,-3.33283 -0.68558,-4.51783 -3.35707,-6.60858 -1.79034,-1.40116 -3.47032,-2.33241 -3.73328,-2.06945 -0.26296,0.26295 -2.28517,9.20168 -4.4938,19.86383 -2.20863,10.66214 -4.26979,20.59235 -4.58034,22.06711 -0.52443,2.49045 -0.0555,2.93778 6.58502,6.2819 3.93231,1.98028 9.71989,4.18424 12.86128,4.89769 6.1149,1.38876 7.56639,3.53292 3.21162,4.74426 -5.11289,1.42221 -8.91738,0.8028 -16.45245,-2.67862 -4.25377,-1.96536 -7.86004,-3.42786 -8.01394,-3.25 -0.15391,0.17786 -1.26341,5.27338 -2.46557,11.32338 -1.20216,6.05 -2.41333,11.78354 -2.69149,12.7412 -0.47552,1.63715 2.68062,1.75721 52.80885,2.00896 29.32303,0.14726 -67.2854,0.27226 -214.6854,0.27777 -147.4,0.006 -257.3125,-0.11915 -244.25,-0.27705 z M 336,254.67933 c 0,-0.6393 7.84996,-39.25193 8.52425,-41.92933 l 0.69257,-2.75 -34.10841,0 -34.10841,0 0,22.5 0,22.5 29.5,0 c 16.225,0 29.5,-0.1443 29.5,-0.32067 z m 119,-0.0418 c 0,-0.19937 1.13346,-5.92779 2.5188,-12.72982 1.38534,-6.80204 2.33245,-12.85296 2.10469,-13.44649 -0.22776,-0.59353 -5.64833,-3.01883 -12.04571,-5.38956 C 435.70479,218.6718 433,216.66903 433,212.27749 L 433,210 l -18.5,0 -18.5,0 0,22.5 0,22.5 29.5,0 c 16.225,0 29.5,-0.16312 29.5,-0.36248 z M 486.875,234.375 c 4.40392,-0.88078 3.88076,-2.03458 -1.27296,-2.80743 -2.41888,-0.36273 -8.07735,-2.43882 -12.57439,-4.61354 C 468.53062,224.77931 464.6597,223 464.42561,223 464.19153,223 464,224.11406 464,225.47569 c 0,2.09053 1.12792,3.01043 7.25,5.91293 7.46125,3.53741 10.2269,4.066 15.625,2.98638 z m -25.65975,-10.3882 c 0.42636,-2.905 0.10208,-3.19229 -9.03028,-8 C 446.97508,213.24406 442.18815,211 441.54735,211 c -2.62238,0 -4.84579,2.67479 -4.23762,5.09791 0.49829,1.98536 2.50295,3.13746 11.39745,6.55023 5.93605,2.27763 11.07925,4.18856 11.42932,4.2465 0.35008,0.0579 0.83551,-1.25058 1.07875,-2.90784 z m 2.49568,-13.6092 c -0.24922,-0.24923 -4.89864,-0.32364 -10.33203,-0.16537 L 443.5,210.5 l 9,4.6928 9,4.69279 1.33203,-4.52743 c 0.73262,-2.49009 1.12812,-4.73134 0.8789,-4.98056 z m -27.44285,5.24442 c -0.32164,-1.68256 0.22264,-2.85233 1.86117,-4 L 440.44501,210 l -3.2225,0 C 434.63248,210 434,210.40544 434,212.06574 c 0,1.89699 1.63043,5.93426 2.39651,5.93426 0.17938,0 0.12159,-1.07009 -0.12843,-2.37798 z m 129.6827,-4.70488 C 568.72785,210.32156 571,209.4833 571,209.05433 c 0,-0.42896 -3.4875,-1.3294 -7.75,-2.00096 -4.2625,-0.67157 -13.825,-2.59861 -21.25,-4.28232 -18.5894,-4.21538 -19.72461,-4.33025 -22.04461,-2.23068 -2.23358,2.02136 -2.5333,4.05977 -0.70539,4.79735 0.97906,0.39506 0.97226,0.5215 -0.0314,0.58333 -2.34175,0.14428 -2.5229,-2.96826 -0.30985,-5.32394 l 2.1618,-2.30113 -4.78528,-2.15362 c -2.63191,-1.1845 -6.34317,-3.29552 -8.24725,-4.69117 -3.41248,-2.50129 -3.47279,-2.50823 -4.22078,-0.48624 -1.24862,3.37534 -5.08888,4.55841 -8.19352,2.52417 -3.05621,-2.0025 -3.27401,-1.39852 -0.9279,2.57313 1.23864,2.09684 3.73248,3.66811 9.25,5.82805 8.41951,3.29598 13.56296,4.83813 16.55416,4.96342 1.1,0.0461 6.5,0.73488 12,1.53068 5.5,0.79581 13.6,1.86526 18,2.37658 4.4,0.51131 8.54035,0.99926 9.20078,1.08434 0.66043,0.0851 3.47293,-0.33261 6.25,-0.92818 z M 434.42904,202.59609 C 435.29307,199.62394 436,196.74944 436,196.2083 c 0,-0.54113 1.55003,-3.23722 3.44451,-5.99132 3.39104,-4.92969 3.41432,-5.03476 1.5,-6.7672 C 439.87503,182.48192 439,180.91225 439,179.96164 c 0,-1.99183 -3.13627,-3.12348 -5.1393,-1.85438 -1.68956,1.07048 -3.8607,1.14744 -3.8607,0.13685 0,-1.18489 5.83224,-3.46583 7.00641,-2.74015 0.57925,0.358 2.63043,-0.73394 4.55818,-2.42653 5.28452,-4.63987 7.97864,-3.90184 11.58936,3.17479 l 1.40427,2.75222 5.93958,-6.00222 C 463.76458,169.701 466.10654,167 465.70215,167 c -0.40438,0 -6.41376,-0.91097 -13.35417,-2.02439 -12.50007,-2.00532 -15.44343,-1.92132 -18.34798,0.52358 -0.825,0.69444 -4.54256,1.78027 -8.26125,2.41294 -11.05216,1.88036 -18.07235,4.51994 -24.07546,9.05233 L 396,181.24029 l 0,13.37986 0,13.37985 18.42904,0 18.42904,0 1.57096,-5.40391 z m 9.92571,3.65391 c 0.32341,-0.9625 2.17589,-3.93664 4.11663,-6.60919 3.76189,-5.18043 4.60211,-8.26673 1.97622,-7.25908 -1.89966,0.72897 -6.4476,-2.0902 -6.4476,-3.99674 0,-4.97645 -5.50951,3.40622 -8.02881,12.21575 -1.08415,3.79109 -1.97119,7.00683 -1.97119,7.14608 0,0.13925 2.19752,0.25318 4.88337,0.25318 3.76015,0 5.01861,-0.40251 5.47138,-1.75 z M 468.17306,190 c 4.26113,-19.77983 4.28977,-20.00207 2.57694,-19.9944 -2.14361,0.01 -16.99302,19.84221 -18.07027,24.13432 -0.34593,1.37829 -2.21539,4.58366 -4.15435,7.12304 -1.93896,2.53938 -3.52538,5.11035 -3.52538,5.71326 0,0.73928 3.15884,1.00301 9.70153,0.80999 L 464.40307,207.5 468.17306,190 z m -97.3228,10.17885 c 2.22007,-2.65163 8.11197,-7.66434 13.09312,-11.13935 L 393,182.7213 l 0,-5.55304 0,-5.55304 -10.85056,10.69239 C 376.18164,188.18843 370.83705,193 370.27259,193 369.26518,193 365,201.84602 365,203.93538 c 0,2.16943 1.9221,0.93522 5.85026,-3.75653 z m 130.21548,-7.21403 c 3.27137,-1.75079 2.38777,-4.66673 -1.81574,-5.99208 -3.85818,-1.21647 -12.51209,-6.71425 -20,-12.70589 l -4.25,-3.40075 0,2.51606 c 0,1.75429 1.13536,3.34457 3.75,5.25256 2.0625,1.50507 6,4.82215 8.75,7.37128 5.09563,4.72343 9.3501,7.84731 10.81574,7.94155 0.44866,0.0289 1.68616,-0.41338 2.75,-0.98273 z M 454,188.90798 c 0.825,-1.06081 4.3464,-5.63658 7.82533,-10.16837 3.47893,-4.53178 6.97966,-8.74889 7.77939,-9.37134 1.25252,-0.97487 1.2159,-1.22313 -0.26425,-1.79111 -1.26184,-0.48422 -3.99254,1.5622 -10.27939,7.70349 -4.70859,4.59957 -9.79858,8.88342 -11.31108,9.51967 -3.13375,1.31823 -3.57197,3.85938 -1,5.7988 2.14144,1.61478 5.24132,0.8917 7.25,-1.69114 z M 497,184 c 0,-1.53371 -3.81292,-5 -5.5,-5 -2.27058,0 -1.80362,1.61601 1.13486,3.92742 C 495.51086,185.18968 497,185.55559 497,184 z m -44.89392,-2.596 c 1.4348,-1.29848 1.55937,-2.04415 0.66823,-4 C 452.17187,176.0818 451.1662,175 450.53948,175 448.89358,175 447,177.13995 447,179 c 0,1.48953 1.80205,4 2.87126,4 0.25919,0 1.26486,-0.7182 2.23482,-1.596 z m -45.1349,-9.59178 c 2.43562,-2.26912 2.57148,-4.12671 0.45649,-6.24169 -1.73249,-1.73249 -5.36375,-1.30854 -9.17767,1.07149 -1.92995,1.20436 -2.25,2.26311 -2.25,7.44317 l 0,6.03908 4.47118,-3.21096 c 2.45916,-1.76603 5.38416,-4.06152 6.5,-5.10109 z m 10.81097,-3.20855 c 3.14482,-0.78893 7.74285,-1.74941 10.21785,-2.1344 5.96729,-0.92821 6.24043,-1.1727 4.41781,-3.95436 -1.20981,-1.84641 -1.31165,-2.84476 -0.4537,-4.44785 0.92709,-1.73228 0.81713,-2.06297 -0.67893,-2.04183 -2.51949,0.0356 -28.38738,6.735 -29.15305,7.55021 -0.34767,0.37016 0.35735,0.36909 1.56672,-0.002 2.85585,-0.87719 6.71343,2.74234 5.96657,5.59836 -0.37841,1.44703 -0.1232,1.83447 0.9397,1.4266 0.80255,-0.30797 4.03222,-1.20544 7.17703,-1.99437 z M 471.5,166 c 0.33992,-0.55 -0.0835,-1 -0.94098,-1 -0.85746,0 -1.55902,0.45 -1.55902,1 0,0.55 0.42344,1 0.94098,1 0.51754,0 1.2191,-0.45 1.55902,-1 z m -3.74092,-0.57425 c -0.51108,-0.51108 -24.28156,-6.73892 -30.81596,-8.07375 -3.00697,-0.61425 -5.29558,1.56594 -4.31801,4.11345 0.52601,1.37076 1.49165,1.61165 4.76726,1.18928 2.2592,-0.29131 8.83263,0.28856 14.60763,1.2886 11.03006,1.91006 16.72216,2.4455 15.75908,1.48242 z m -275.83643,-7.03286 c 0.63805,-2.53391 2.71647,-7.69768 4.61872,-11.47504 3.29922,-6.55138 3.4551,-7.34149 3.38203,-17.14289 L 199.8468,119.5 l -5.94912,18 c -4.7115,14.25538 -5.82146,18.78013 -5.3355,21.75 0.82086,5.01648 1.95429,4.72739 3.36048,-0.85711 z M 446,156 c 0,-2.52191 -0.3928,-3 -2.46482,-3 -1.42752,0 -2.90781,0.82774 -3.51746,1.96688 -0.9188,1.71681 -0.6372,2.08678 2.21482,2.90982 1.7971,0.51861 3.37996,0.98351 3.51746,1.03311 C 445.8875,158.95942 446,157.65 446,156 z m -235.30906,-35.65675 2.40419,-3.15675 -3.39494,-1.12043 c -5.96177,-1.96756 -6.70629,-0.9839 -6.65363,8.79092 l 0.0466,8.64301 2.59681,-5 c 1.42825,-2.75 3.6787,-6.42054 5.00101,-8.15675 z m 34.09905,6.58012 c 3.51295,-1.22463 3.37523,-2.92987 -0.43843,-5.42867 C 241.59389,119.6878 236,120.28808 236,122.39089 c 0,1.40546 3.66453,5.60911 4.88973,5.60911 0.4465,0 2.20162,-0.48448 3.90026,-1.07663 z m -11.72425,-2.95855 C 234.12958,123.39547 235,122.4184 235,121.79356 235,119.88301 231.80678,117 229.69065,117 c -2.46211,0 -19.86585,-5.15813 -19.30296,-5.72102 0.22338,-0.22339 4.18826,0.74746 8.81083,2.15743 4.62258,1.40998 9.33887,2.56359 10.48064,2.56359 1.14177,0 2.63615,0.675 3.32084,1.5 0.68469,0.825 1.75229,1.48681 2.37244,1.47069 2.79093,-0.0726 -5.75555,-5.94015 -10.77944,-7.40063 -6.59903,-1.91839 -20.28534,-1.80139 -21.04866,0.17994 -0.26486,0.6875 0.0668,1.25689 0.73704,1.26531 0.78489,0.01 0.68474,0.3891 -0.28138,1.06551 -1.19667,0.83782 -1.07397,0.9314 0.60676,0.46276 2.61178,-0.72825 20.1092,5.78112 22.86546,8.50638 2.26155,2.23611 2.92269,2.34424 5.59352,0.91486 z m -6.48548,-0.83495 c -0.29577,-0.47857 -3.2729,-1.893 -6.61584,-3.14317 -4.55954,-1.70516 -6.36368,-1.98744 -7.22124,-1.12988 -0.85757,0.85757 -0.53108,1.16171 1.30682,1.21734 1.3475,0.0408 4.25,0.90742 6.45,1.92584 4.36511,2.02069 6.92479,2.49634 6.08026,1.12987 z M 199.36163,111.5 c -0.31659,-0.825 -0.75246,-1.5 -0.96862,-1.5 -0.21615,0 -0.39301,0.675 -0.39301,1.5 0,0.825 0.43588,1.5 0.96862,1.5 0.53273,0 0.70959,-0.675 0.39301,-1.5 z M 80.331006,104.51929 C 77.863991,102.79133 73.636358,93.397402 74.613898,91.815709 75.006592,91.180317 74.863179,90.966526 74.284266,91.324314 73.371417,91.888486 67,78.567019 67,76.094246 67,74.45611 63.944824,72 61.907133,72 c -3.886767,0 -4.339759,4.002346 -1.484877,13.119397 1.443351,4.609332 3.626305,10.138295 4.851009,12.286586 2.15508,3.780287 7.21705,8.437037 8.153394,7.500687 0.912037,-0.91203 -8.62465,-20.67772 -11.490785,-23.815736 -1.614731,-1.767904 -2.90735,-3.974097 -2.872488,-4.902652 0.04866,-1.296023 0.261171,-1.19888 0.914648,0.4181 0.468194,1.15851 1.974186,3.318036 3.346648,4.798948 1.372463,1.480912 4.662665,7.599621 7.311561,13.597131 4.480103,10.143649 5.027174,10.925849 7.839966,11.209589 3.955433,0.39901 4.340056,0.048 1.854797,-1.69276 z M 91.0396,83.5 c 4.467869,-9.9 8.525989,-19.575 9.01804,-21.5 1.1337,-4.435225 1.20132,-11 0.1133,-11 -0.455987,0 -1.918487,2.32775 -3.250003,5.172777 -1.331515,2.845028 -6.556258,13.041231 -11.610539,22.658229 l -9.189601,17.485451 2.025449,3.970213 c 1.719107,3.36972 2.232999,3.76172 3.397702,2.59177 C 82.298687,102.1203 86.571731,93.4 91.0396,83.5 z M 72.046443,82.639561 c -1.187523,-3.568508 -2.836678,-7.050509 -3.66479,-7.73778 -1.131882,-0.939379 -0.976456,0.09688 0.626097,4.174318 1.172464,2.983145 2.602394,6.684372 3.177622,8.224948 2.082536,5.577452 1.965886,1.663485 -0.138929,-4.661486 z M 69,64.88499 C 69,61.828774 68.620812,61 67.222506,61 c -5.051289,0 -8.042922,6.036727 -4.665425,9.414224 1.409441,1.409441 1.788714,1.405308 4,-0.04358 C 68.453759,69.127891 69,67.901289 69,64.88499 z M 286.69036,196.25 c -1.89231,-3.31845 -1.37461,-9.4192 2.35773,-27.7841 2.23173,-10.98124 4.17291,-21.21384 4.31372,-22.7391 0.42496,-4.60314 1.09456,-4.9711 23.00095,-12.63965 4.11779,-1.44147 5.05723,-2.26793 6.13216,-5.3947 1.409,-4.09851 1.02289,-4.44387 -2.33708,-2.09045 -1.25795,0.8811 -2.59183,1.29735 -2.96418,0.925 -0.37235,-0.37235 0.0845,-1.10318 1.01531,-1.62407 0.93076,-0.52088 2.27702,-1.49963 2.99167,-2.17499 2.52236,-2.38371 8.01665,-1.89395 11.0187,0.9822 3.43609,3.29199 3.50319,5.65379 0.28066,9.87875 -1.375,1.80272 -2.5,3.4781 -2.5,3.72307 0,0.24497 1.32067,0.99244 2.93482,1.66104 2.61032,1.08123 3.48452,0.90665 7.90625,-1.57893 4.2135,-2.36852 5.2144,-2.59292 6.56518,-1.47188 2.07485,1.72198 2.02028,3.00837 -0.15625,3.68303 -0.9625,0.29835 -4.33135,1.71403 -7.48634,3.14596 l -5.73633,2.6035 -4.97631,-2.33079 c -3.52543,-1.65122 -5.35166,-2.03317 -6.26367,-1.31004 C 321.0394,143.09978 309.45287,147 307.08355,147 c -2.5062,0 -6.66811,10.81831 -12.25779,31.86248 -2.28447,8.60064 -4.58493,16.20002 -5.11212,16.88752 -1.07856,1.40653 -2.3833,1.62231 -3.02328,0.5 z m 7.38102,-18.30082 c 2.62157,-9.59705 6.217,-21.0084 7.98984,-25.35855 3.11788,-7.65056 3.16167,-7.95448 1.33832,-9.28775 -5.80192,-4.24246 -8.59798,1.05382 -13.49904,25.56977 -3.76601,18.83829 -4.3021,27.76122 -1.61406,26.8652 0.56015,-0.18671 3.16337,-8.19161 5.78494,-17.78867 z m 2.7141,-35.19918 c 2.12987,-2.44492 4.8742,-2.18123 7.80543,0.75 1.375,1.375 2.91382,2.5 3.4196,2.5 0.93547,0 8.45042,-2.44444 12.98949,-4.22518 l 2.5,-0.98079 -2.25,-0.86479 c -2.63218,-1.01168 -2.90879,-3.54381 -0.65872,-6.0301 1.51089,-1.66952 1.37196,-1.69011 -2.75,-0.40755 -2.3877,0.74293 -7.14484,2.51125 -10.57141,3.9296 -3.42657,1.41834 -6.91407,2.57881 -7.75,2.57881 -2.10259,0 -5.5366,3.62909 -5.44092,5.75 0.0625,1.38536 0.19387,1.43745 0.63049,0.25 0.30334,-0.825 1.23756,-2.2875 2.07604,-3.25 z M 340,141.5 c 2.71343,-1.375 5.62347,-2.5 6.46676,-2.5 0.84328,0 1.53324,-0.46412 1.53324,-1.03138 0,-2.23523 -3.08438,-2.00348 -7.45944,0.56048 -4.17082,2.44426 -4.87878,2.57345 -7.69971,1.40498 -1.70861,-0.70773 -4.39,-2.36673 -5.95865,-3.68666 -1.56865,-1.31993 -3.64636,-2.24847 -4.61714,-2.06343 -2.07733,0.39596 -3.06866,4.80953 -1.08461,4.82888 0.72575,0.007 3.56955,1.09658 6.31955,2.42112 6.35175,3.05934 6.59046,3.0606 12.5,0.066 z m -7.2862,-10.86001 c -0.62303,-1.87137 -3.7305,-1.93485 -5.73893,-0.11725 -1.76214,1.59472 -1.77613,1.85094 -0.22989,4.2108 l 1.64642,2.51275 2.35096,-2.73316 c 1.29303,-1.50323 2.18018,-3.24615 1.97144,-3.87314 z M 144,157.59384 l 0,-12.40616 -5.25,-0.68901 c -2.8875,-0.37895 -6.15,-1.24497 -7.25,-1.92449 -2.1357,-1.31931 -8.54605,-1.4172 -12.24925,-0.18705 -1.89562,0.6297 -2.07941,1.06451 -1.16898,2.76567 1.16156,2.17038 0.449,3.81839 -0.98604,2.28053 -0.47902,-0.51333 -1.16861,-1.91988 -1.53242,-3.12567 -0.51851,-1.71847 -0.0796,-2.49721 2.03037,-3.60275 1.7165,-0.89937 2.27779,-1.66631 1.54909,-2.11668 -1.95024,-1.20531 -1.34279,-7.74641 0.94559,-10.18229 l 2.08837,-2.22296 -5.83837,-1.17927 C 113.12726,124.3551 108.925,123.50955 107,123.1247 c -2.55292,-0.51039 -3.5,-1.22328 -3.5,-2.63454 0,-2.56179 7.09467,-3.85819 14,-2.55821 2.75,0.5177 7.94291,1.22049 11.5398,1.56175 l 6.5398,0.62047 2.4602,-7.80709 c 2.0748,-6.58407 2.83074,-7.85951 4.82554,-8.14174 3.73277,-0.52815 4.63466,1.33824 4.63466,9.59108 l 0,7.63634 3.22495,0.6722 c 4.11974,0.8587 7.79533,3.27327 9.92083,6.51718 1.3062,1.99351 1.47391,3.34154 0.76392,6.14024 -1.01818,4.01361 -4.11161,6.72429 -9.96752,8.73428 l -3.94218,1.35311 -0.28735,10.30918 c -0.17806,6.38841 -0.72408,10.5791 -1.43569,11.0189 -0.84741,0.52372 -0.80553,1.12279 0.15979,2.28593 C 147.03623,169.74859 146.9861,170 145.62244,170 144.21304,170 144,168.371 144,157.59384 z M 143.92033,133 c -0.0297,-10.90905 -0.97501,-13.61657 -2.94508,-8.4349 -1.4117,3.71305 -1.20748,5.22756 0.77475,5.74557 1.31691,0.34415 1.19317,0.48604 -0.5,0.57333 -1.2375,0.0638 -2.25,0.59632 -2.25,1.18339 0,0.60993 0.9643,0.82196 2.25,0.49473 l 2.25,-0.57266 -2.19899,1.13532 c -1.74592,0.90141 -2.08083,1.72613 -1.6255,4.00279 0.31543,1.57711 0.0714,3.47249 -0.54233,4.21196 -1.39859,1.6852 -0.47899,2.66047 2.50861,2.66047 2.27318,0 2.308,-0.16809 2.27854,-11 z m 10.86218,7.8714 c 5.86233,-2.61762 7.98655,-8.28103 4.66232,-12.43027 -1.48275,-1.85074 -1.50232,-1.83249 -0.42029,0.39206 0.92865,1.90922 0.8081,2.69426 -0.66343,4.32028 -1.74712,1.93055 -5.20834,1.99359 -9.93212,0.18091 -1.13336,-0.43491 -1.42899,0.60514 -1.42899,5.02725 0,6.21995 -0.30581,6.12133 7.78251,2.50977 z m -16.79161,0.63956 c 0.78435,-0.94508 0.99497,-2.77275 0.57655,-5.0031 -0.38591,-2.05712 -0.0278,-6.10408 0.86378,-9.76097 0.83766,-3.43579 1.96918,-8.49689 2.51448,-11.24689 l 0.99145,-5 -0.50302,5.25 c -0.35012,3.6541 -0.14397,5.25 0.67815,5.25 0.85862,0 1.00966,-2.02911 0.55309,-7.43027 -0.55126,-6.52142 -0.41631,-7.48576 1.10327,-7.884 1.08111,-0.28332 0.73338,-0.49729 -0.92588,-0.56973 -2.54077,-0.11092 -2.81543,0.39898 -6.26675,11.634 -1.98524,6.4625 -4.50198,14.0087 -5.59277,16.76933 -2.42909,6.14769 -2.4557,7.10611 -0.23325,8.40057 2.50642,1.45985 4.81551,1.30855 6.2409,-0.40894 z m -7.52501,-6.44501 c 1.45299,-2.80975 1.406,-3.02156 -1.10917,-5 -3.20495,-2.52101 -4.24882,-2.5763 -5.96467,-0.31595 -1.78717,2.3543 -1.72209,4.7771 0.17938,6.67857 2.44074,2.44075 5.21078,1.89328 6.89446,-1.36262 z m 27.39024,-2.39259 c 0.80394,-0.96869 0.78054,-2.17566 -0.0867,-4.47327 -1.24116,-3.28823 -2.15963,-3.92461 -7.51942,-5.21003 l -3.25,-0.77944 0,4.8661 c 0,4.6308 0.15715,4.91147 3.25,5.8045 4.65657,1.34454 6.3563,1.29808 7.60613,-0.20786 z m -25.99937,-3.78305 c -2.15703,-1.36676 -3.21528,-1.02722 -1.8659,0.59868 0.67967,0.81894 1.68281,1.21269 2.22921,0.875 0.60346,-0.37296 0.46084,-0.95147 -0.36331,-1.47368 z m 2.10078,-4.19836 c 0.57831,-1.65895 0.91399,-3.15376 0.74594,-3.3218 -0.16804,-0.16805 -4.50639,-0.78142 -9.64078,-1.36305 -5.13438,-0.58163 -9.70919,-1.28862 -10.16624,-1.57109 -0.45704,-0.28247 -3.09572,-0.21315 -5.86372,0.15404 -6.55977,0.87018 -6.71499,3.04726 -0.28274,3.96546 6.84765,0.9775 19.39459,3.96585 18.87076,4.49452 -0.24521,0.24748 0.84367,0.49682 2.41973,0.55407 2.33023,0.0847 3.06202,-0.45939 3.91705,-2.91215 z"
       id="path2989"
       style="fill:#000000" />
  </g>
</svg>
