<?xml version="1.0" encoding="UTF-8" standalone="no"?>
<!-- Created with Inkscape (http://www.inkscape.org/) -->

<svg
   xmlns:dc="http://purl.org/dc/elements/1.1/"
   xmlns:cc="http://creativecommons.org/ns#"
   xmlns:rdf="http://www.w3.org/1999/02/22-rdf-syntax-ns#"
   xmlns:svg="http://www.w3.org/2000/svg"
   xmlns="http://www.w3.org/2000/svg"
   xmlns:sodipodi="http://sodipodi.sourceforge.net/DTD/sodipodi-0.dtd"
   xmlns:inkscape="http://www.inkscape.org/namespaces/inkscape"
   id="svg3366"
   version="1.1"
   inkscape:version="0.91 r13725"
   width="855"
   height="362.5"
   viewBox="0 0 855 362.5"
   sodipodi:docname="ub741301.svg">
  <metadata
     id="metadata3372">
    <rdf:RDF>
      <cc:Work
         rdf:about="">
        <dc:format>image/svg+xml</dc:format>
        <dc:type
           rdf:resource="http://purl.org/dc/dcmitype/StillImage" />
        <dc:title></dc:title>
      </cc:Work>
    </rdf:RDF>
  </metadata>
  <defs
     id="defs3370" />
  <sodipodi:namedview
     pagecolor="#ffffff"
     bordercolor="#666666"
     borderopacity="1"
     objecttolerance="10"
     gridtolerance="10"
     guidetolerance="10"
     inkscape:pageopacity="0"
     inkscape:pageshadow="2"
     inkscape:window-width="1460"
     inkscape:window-height="722"
     id="namedview3368"
     showgrid="false"
     inkscape:zoom="0.51689092"
     inkscape:cx="11.215626"
     inkscape:cy="-5.2603409"
     inkscape:window-x="0"
     inkscape:window-y="0"
     inkscape:window-maximized="0"
     inkscape:current-layer="svg3366" />
  <g
     id="g3376"
     transform="translate(37.402905,3.7882702)">
    <path
       style="fill:#fefefe"
       d="m 413.14894,205.47036 c -1.37595,-1.37594 -1.78349,-3.1504 -1.26537,-5.5094 0.56074,-2.55301 -0.42057,-5.83259 -3.68464,-12.31416 -2.44692,-4.85891 -4.44893,-9.0239 -4.44893,-9.25553 0,-0.23162 1.67675,-1.6608 3.72611,-3.17596 l 3.72611,-2.75484 5.02389,9.99202 c 3.78924,7.53642 5.02389,11.47337 5.02389,16.01976 0,8.38946 -3.59992,11.49925 -8.10106,6.99811 z M 488.6439,195.055 c -2.18565,-2.71975 -4.53248,-4.82913 -5.21515,-4.6875 -0.68269,0.14163 -1.49501,-0.58625 -1.80516,-1.6175 -0.50126,-1.66666 -0.41658,-1.66666 0.76211,0 0.72931,1.03125 1.33464,1.41385 1.34516,0.85023 0.0328,-1.75594 -7.58893,-12.18094 -8.49611,-11.62097 -0.47286,0.29189 -1.03106,-2.08716 -1.24045,-5.28677 -0.4249,-6.49309 -0.64486,-6.62184 7.81032,4.57146 3.27753,4.33892 6.26992,7.57817 6.64975,7.19834 0.94884,-0.94884 4.05483,1.76746 4.00588,3.50326 -0.0219,0.7752 -0.86563,0.31756 -1.875,-1.01696 -1.00939,-1.33453 -1.83525,-1.8689 -1.83525,-1.1875 0,2.41178 3.05217,4.23891 7.08102,4.23891 4.9564,0 7.52803,3.5592 5.41898,7.5 -2.3361,4.36505 -8.0192,3.26279 -12.6061,-2.445 z m -100.2064,-2.65513 c -1.28298,-0.74726 -2.1875,-2.76443 -2.1875,-4.87829 0,-4.03906 4.238,-7.95599 19.375,-17.90715 4.8125,-3.16378 10.29306,-6.94217 12.17903,-8.39643 3.78324,-2.91725 8.97043,-2.89917 9.17857,0.032 0.0768,1.0817 -0.0888,1.21393 -0.39139,0.3125 C 425.72195,158.97305 420,159.63135 420,162.3208 c 0,1.46357 -4.38628,5.66126 -11.875,11.36444 -10.8658,8.27506 -11.875,9.40197 -11.875,13.26021 0,2.8895 -0.76096,4.62385 -2.41783,5.51057 -2.87753,1.54002 -2.65017,1.54238 -5.39467,-0.0561 z m -99.61138,-11.00762 c -2.68788,-5.02236 -1.41805,-6.94004 10.66049,-16.09921 l 11.9767,-9.08196 5.17858,1.39445 5.17856,1.39443 -5.1976,4.56253 c -2.85869,2.50937 -8.75266,7.725 -13.09773,11.59025 -9.37803,8.34245 -12.79686,9.79369 -14.699,6.23951 z m 94.43817,-0.7301 c -1.92642,-2.94007 -1.92828,-3.45262 -0.026,-7.13126 l 2.0496,-3.96351 2.32825,3.02881 c 2.9687,3.86197 2.98408,6.47312 0.0538,9.12502 -2.2043,1.99485 -2.4421,1.93769 -4.40565,-1.05906 z m 121.91895,1.64063 c -1.25278,-0.45223 -5.60339,-1.23069 -9.66802,-1.72992 -9.4826,-1.16466 -12.53976,-2.34881 -14.2332,-5.51302 -1.35489,-2.53165 -1.14313,-2.55984 19.22929,-2.55984 20.0443,0 20.69376,0.0821 24.10649,3.04926 2.89429,2.51638 3.26394,3.44478 2.11516,5.3125 -1.13392,1.84359 -3.04966,2.26324 -10.33198,2.26324 -4.91698,0 -9.96497,-0.37 -11.21774,-0.82223 z m -326.49029,-8.76463 c -0.77186,-2.86651 -1.11554,-6.38214 -0.76371,-7.8125 0.35182,-1.43035 3.44595,-13.26084 6.87582,-26.28996 5.44116,-20.66934 6.66679,-24.003 9.61405,-26.14994 3.90681,-2.84591 7.19474,-1.66429 7.86133,2.8252 0.22299,1.50185 -3.9348,13.77258 -9.23954,27.26829 -5.30474,13.49571 -9.91972,26.97511 -10.25551,29.95421 -0.77015,6.8328 -2.28724,6.90869 -4.09244,0.2047 z m 279.74455,4.29305 c -7.93786,-0.62591 -7.72963,-3.23816 0.40786,-5.11651 C 468.77751,170.42207 470,170.67252 470,175 c 0,3.12231 -0.47076,3.71229 -2.8125,3.52469 -1.54688,-0.12388 -5.48438,-0.43599 -8.75,-0.69349 z m -59.0341,-8.99172 c -0.42079,-1.32579 -3.55245,-5.89749 -6.95924,-10.15933 -3.40679,-4.26184 -6.19416,-8.2396 -6.19416,-8.83948 0,-4.19982 12.61009,3.79405 17.40551,11.03382 l 3.92648,5.92791 -2.85349,2.196 c -3.65112,2.80985 -4.38985,2.7878 -5.3251,-0.15892 z M 591.25,167.60224 c 0,-5.73693 2.71542,-7.63013 8.02276,-5.5935 4.36344,1.6744 0.42131,7.99126 -4.98705,7.99126 -2.15923,0 -3.03571,-0.69229 -3.03571,-2.39776 z m -123.26995,-1.90423 c -1.09119,-2.8436 -0.004,-6.28149 2.0343,-6.42902 1.33345,-0.0965 1.38254,0.0207 0.17326,0.41385 -1.08186,0.35171 -1.49598,1.85276 -1.154,4.18287 0.57194,3.8968 0.0721,4.76594 -1.05356,1.8323 z m 92.86581,-0.53756 c 0.50403,-1.92744 2.35932,-2.878 7.72129,-3.95605 11.76865,-2.36614 24.23764,-6.35857 30.30245,-9.70253 6.47658,-3.57097 9.42644,-3.12084 10.6163,1.61997 1.34345,5.3527 -2.58261,8.55751 -9.34748,7.63028 -3.0213,-0.41411 -7.71391,-0.15497 -10.42802,0.57585 -2.71411,0.73084 -9.5249,2.0856 -15.13507,3.01058 -5.61018,0.92496 -11.14367,2.05912 -12.29663,2.52035 -1.64636,0.65859 -1.9539,0.29405 -1.43284,-1.69845 z M 48.75,161.54136 c 0,-0.75642 -1.546875,-1.5533 -3.4375,-1.77083 L 41.875,159.375 40.997732,145 c -0.482497,-7.90625 -1.044997,-16.625 -1.25,-19.375 -0.322487,-4.32599 -0.005,-5.05235 2.355192,-5.38835 4.363745,-0.62124 5.602211,3.27126 4.177018,13.12835 -2.084802,14.41917 -1.667967,21.68584 1.43332,24.98701 1.492294,1.58848 2.336044,3.26535 1.875,3.72639 C 49.127217,162.53945 48.75,162.29777 48.75,161.54136 Z m 200.09869,0.0211 c -0.0542,-0.85938 -1.46127,-1.5625 -3.12663,-1.5625 -2.74085,0 -3.39197,-1.17178 -6.86755,-12.35892 -2.11179,-6.7974 -5.52512,-15.56311 -7.58519,-19.47936 -4.07365,-7.7441 -3.60536,-11.91171 1.33844,-11.91171 3.22796,0 5.46869,5.28088 8.64181,20.3669 3.4465,16.38565 4.82884,20.66285 7.08626,21.92616 1.09307,0.61171 1.67784,1.8929 1.29947,2.84708 -0.47605,1.20055 -0.71832,1.25363 -0.78661,0.17236 z M 321.875,158.016 c -7.88568,-2.44436 -15.09318,-3.98106 -16.89933,-3.60306 -1.75572,0.36745 -4.22293,-0.12594 -5.57553,-1.11498 -2.08978,-1.52809 -2.22012,-2.22641 -0.93998,-5.03602 1.83273,-4.0224 2.46079,-4.03119 9.78486,-0.13694 3.23253,1.71875 6.56579,3.125 7.40725,3.125 0.84147,0 4.05334,1.11622 7.13749,2.48049 3.08416,1.36427 8.64004,3.296 12.3464,4.29273 3.70636,0.99674 5.75446,1.84927 4.55134,1.89452 -1.20313,0.0452 -2.1875,0.64476 -2.1875,1.33226 0,1.63864 0.28399,1.69741 -15.625,-3.234 z m 335.625,3.52536 c 0,-0.75642 -1.54688,-1.5533 -3.4375,-1.77083 L 650.625,159.375 649.74774,145 c -0.4825,-7.90625 -1.045,-16.625 -1.25,-19.375 -0.32249,-4.32599 -0.005,-5.05235 2.35518,-5.38835 4.36375,-0.62124 5.60222,3.27126 4.17702,13.12835 -2.0848,14.41917 -1.66797,21.68584 1.43332,24.98701 1.4923,1.58848 2.33605,3.26535 1.875,3.72639 -0.46105,0.46105 -0.83826,0.21937 -0.83826,-0.53704 z M 142.5,160 c 0,-0.6875 -1.40625,-1.25 -3.125,-1.25 -3.65174,0 -3.77202,-1.08274 -1.91476,-17.23565 0.73937,-6.43041 0.74907,-11.52371 0.0256,-13.42665 -2.04014,-5.36595 1.98256,-9.87242 5.906,-6.61626 1.99319,1.6542 1.96947,1.91909 -1.93821,21.64571 -2.56764,12.96174 -2.51871,14.38285 0.49512,14.38285 0.99068,0 1.80123,0.84375 1.80123,1.875 0,1.03125 -0.28125,1.875 -0.625,1.875 -0.34375,0 -0.625,-0.5625 -0.625,-1.25 z m 178.98229,-7.9437 -2.89271,-1.60513 4.80899,-3.33263 c 2.64495,-1.83295 7.01397,-5.59073 9.7089,-8.35059 2.69494,-2.75988 5.34824,-5.01795 5.89622,-5.01795 3.65006,0 -2.36979,12.37652 -8.17264,16.80259 -4.75725,3.62852 -5.34816,3.72357 -9.34876,1.50371 z M 562.5,151.25 c 0,-0.6875 0.68334,-1.25 1.51854,-1.25 0.8352,0 2.66332,-1.16609 4.0625,-2.5913 3.75081,-3.82061 47.06677,-27.35925 50.39568,-27.38589 3.35042,-0.0268 4.60958,2.47099 3.49147,6.92594 -0.84639,3.37225 -7.01355,6.67867 -26.96819,14.45852 -5.15625,2.01032 -12.90127,5.32858 -17.21116,7.37392 C 570.04472,152.45631 562.5,153.67462 562.5,151.25 Z M 305,144.95657 c -3.05753,-2.43411 -3.07261,-2.52798 -0.69859,-4.3472 3.15347,-2.41651 6.27109,-2.3583 8.79359,0.16419 1.86475,1.86476 1.85656,2.20811 -0.1045,4.375 -2.67535,2.95624 -4.07838,2.92253 -7.99055,-0.19199 z M 47.5,133.85224 c 0,-2.00628 0.347775,-4.55405 0.772834,-5.66174 0.694356,-1.80946 0.94418,-1.78811 2.460245,0.21026 0.928077,1.22333 1.705302,3.77111 1.727167,5.66174 0.03027,2.61741 -0.55667,3.4375 -2.460246,3.4375 -1.928874,0 -2.5,-0.83334 -2.5,-3.64776 z m 608.75,0 c 0,-2.00628 0.34778,-4.55405 0.77284,-5.66174 0.69435,-1.80946 0.94417,-1.78811 2.46024,0.21026 0.92807,1.22333 1.7053,3.77111 1.72717,5.66174 0.0303,2.61741 -0.55667,3.4375 -2.46025,3.4375 -1.92887,0 -2.5,-0.83334 -2.5,-3.64776 z m -507.8125,-1.45237 c -1.33293,-0.77636 -2.1875,-2.77586 -2.1875,-5.11823 0,-3.66735 0.18682,-3.80744 4.0625,-3.04605 4.40409,0.8652 7.1875,3.6741 7.1875,7.25332 0,2.56519 -5.30656,3.0986 -9.0625,0.91096 z m 90.57592,-9.48112 c -1.59917,-5.21061 -1.11385,-6.66875 2.21963,-6.66875 2.77917,0 7.51695,5.62118 7.51695,8.91858 0,1.80878 -0.93373,2.33142 -4.16528,2.33142 -3.70693,0 -4.31998,-0.5041 -5.5713,-4.58125 z M 115.625,95.091766 C 113.00103,93.99298 108.11875,88.195018 101.86413,78.75 99.815403,75.65625 93.776609,67.915904 88.444586,61.54923 78.862884,50.108249 77.338797,47.5 80.23515,47.5 c 2.944205,0 9.429465,5.771003 26.01485,23.149691 13.7695,14.428113 16.875,18.353235 16.875,21.328733 0,3.960315 -2.75064,5.102137 -7.5,3.113342 z M 39.382106,87.1875 36.124804,84.375 38.060743,62.5 C 39.12551,50.46875 40.365315,33.453125 40.815865,24.6875 41.266416,15.921875 42.035542,8.75 42.525036,8.75 c 0.489493,0 2.065778,3.234375 3.502856,7.1875 2.349463,6.462924 2.631099,10.161967 2.79371,36.692989 0.153514,25.046879 -0.126416,30.09966 -1.852481,33.4375 -2.420685,4.68109 -3.31016,4.812337 -7.587015,1.119511 z m 608.750004,0 -3.25731,-2.8125 1.93594,-21.875 c 1.06477,-12.03125 2.30457,-29.046875 2.75512,-37.8125 0.45055,-8.765625 1.21968,-15.9375 1.70918,-15.9375 0.48948,0 2.06577,3.234375 3.50285,7.1875 2.34946,6.462924 2.6311,10.161967 2.79371,36.692989 0.15351,25.046879 -0.12641,30.09966 -1.85248,33.4375 -2.42068,4.68109 -3.31016,4.812337 -7.58701,1.119511 z"
       id="path3386"
       inkscape:connector-curvature="0" />
    <path
       style="fill:#0000fe"
       d="m 407.76001,207.57325 c -8.56045,-2.4475 -14.79031,-6.29986 -19.14926,-11.84136 l -2.79361,-3.55151 2.80025,1.49864 c 4.00365,2.14269 8.5895,-1.05581 9.1141,-6.35682 l 0.39351,-3.97631 6.69445,6.46622 c 5.60916,5.41794 6.56684,6.97471 5.90725,9.60271 -1.48104,5.90094 4.5617,11.47675 8.70829,8.03539 1.07282,-0.89036 1.81501,-0.98727 1.81501,-0.237 0,1.20366 -2.9928,2.88932 -4.78974,2.69774 -0.45938,-0.049 -4.3745,-1.10095 -8.70025,-2.3377 z M 493.75,202.8632 c -2.68631,-0.98774 -6.25,-4.28049 -6.25,-5.77482 0,-0.70079 1.30187,-0.0511 2.89306,1.44373 6.7139,6.30738 16.29123,0.50735 11.42522,-6.91911 -1.10992,-1.69395 -1.83247,-3.21255 -1.60565,-3.37467 0.2268,-0.16212 3.11686,-1.29729 6.42235,-2.5226 4.32468,-1.60313 7.59811,-1.98969 11.67353,-1.37855 4.45475,0.66803 6.17347,0.38786 8.05253,-1.31267 2.9548,-2.67406 2.99265,-4.02141 0.20146,-7.17121 -1.7188,-1.93963 -1.78576,-2.34099 -0.3125,-1.8732 1.03125,0.32744 2.70039,2.0592 3.7092,3.84836 1.63381,2.89765 1.60402,3.7357 -0.27273,7.67126 -2.81829,5.91006 -12.27296,12.67463 -22.00564,15.74453 -8.0919,2.55235 -10.5997,2.84379 -13.93083,1.61895 z M 283.06819,180.68181 c -3.80258,-3.80257 -3.92387,-8.47384 -0.50334,-19.38722 2.73104,-8.71355 4.90387,-11.81782 10.18262,-14.54757 5.06561,-2.61952 6.17316,-2.23912 4.45568,1.53032 -1.34019,2.94138 -1.15351,3.55001 1.82111,5.9375 l 3.31438,2.66016 -2.8745,4.74371 c -1.58098,2.60904 -5.20093,6.45458 -8.04433,8.54564 -5.29067,3.89081 -6.26614,6.7015 -3.87584,11.16782 1.87217,3.49815 -0.7012,3.12423 -4.47578,-0.65036 z m 326.11307,-21.71774 c 2.9034,-3.20821 2.57959,-6.06686 -1.10455,-9.751 l -3.17329,-3.17328 3.32888,-5.20739 c 2.01452,-3.15134 5.36501,-6.19449 8.48579,-7.7074 3.79985,-1.84211 5.52082,-3.6259 6.53979,-6.77847 l 1.38286,-4.27848 0.81701,4.35506 c 1.24287,6.62508 -1.13422,17.3471 -6.22373,28.07243 -1.82673,3.84956 -6.17543,6.75446 -10.11157,6.75446 -1.82511,0 -1.81971,-0.21018 0.0589,-2.28593 z M 132.06152,123.4375 c -1.68615,-2.23437 -3.98424,-6.28718 -5.1069,-9.00624 -1.12265,-2.71905 -4.24411,-7.86149 -6.93657,-11.42764 l -4.8954,-6.483901 3.99141,0.177641 c 2.96318,0.131878 4.29293,-0.503072 5.16185,-2.46477 1.098,-2.478893 1.48538,-2.258451 6.25977,3.562272 10.25128,12.497918 18.62078,27.210798 12.66922,22.271448 -3.14305,-2.6085 -9.64484,2.84255 -7.51019,6.29649 1.76059,2.84869 -0.88092,0.72185 -3.63318,-2.9253 z m -85.541404,-2.21948 c -1.665267,-2.66652 -5.851991,-3.31034 -7.21243,-1.10911 -2.892027,4.6794 -4.96922,-8.21704 -3.726467,-23.136118 l 0.893589,-10.72741 3.181169,2.502309 c 4.241812,3.33661 4.958897,3.194229 7.857723,-1.560191 2.760721,-4.52791 2.98798,-3.887258 1.219389,3.4375 -0.80572,3.336947 -0.739242,8.98954 0.199867,16.99463 1.513893,12.90461 0.549214,18.34138 -2.41284,13.59839 z m 169.853924,-0.65918 c -5.77553,-1.63539 -10.97865,-2.67821 -11.5625,-2.31737 -0.58384,0.36084 -1.06154,-0.41494 -1.06154,-1.72396 0,-1.30903 -1.1478,-3.41878 -2.55066,-4.68836 -2.43794,-2.2063 -2.71346,-2.21215 -6.23434,-0.13232 -2.93699,1.73493 -3.54195,1.80669 -2.98451,0.35403 0.90122,-2.34857 5.36044,-4.00055 15.72861,-5.82688 11.77549,-2.07423 21.7226,0.18977 25.38377,5.77743 1.84786,2.82017 1.81602,2.99859 -0.53523,2.99859 -2.79913,0 -6.96489,5.42528 -5.71662,7.44503 0.44359,0.71773 0.6327,1.25598 0.42025,1.19611 -0.21245,-0.0599 -5.1117,-1.44691 -10.88723,-3.0823 z m 438.89607,0.65918 c -1.66526,-2.66652 -5.85199,-3.31034 -7.21242,-1.10911 -2.89203,4.6794 -4.96923,-8.21704 -3.72647,-23.136118 l 0.89359,-10.72741 3.18116,2.502309 c 4.24182,3.33661 4.9589,3.194229 7.85773,-1.560191 2.76072,-4.52791 2.98797,-3.887258 1.21939,3.4375 -0.80572,3.336947 -0.73924,8.98954 0.19987,16.99463 1.51389,12.90461 0.54921,18.34138 -2.41285,13.59839 z"
       id="path3382"
       inkscape:connector-curvature="0" />
    <path
       style="fill:#fe0000"
       d="m 265.01815,173.14373 c -3.95664,-4.08222 -4.63399,-7.70583 -0.85401,-4.56873 1.43032,1.18706 1.84557,-0.11537 2.43397,-7.63437 0.39018,-4.9861 1.84355,-11.59688 3.2297,-14.69063 2.60991,-5.82507 10.77859,-14.81026 12.18543,-13.40344 0.44037,0.44039 -0.8826,2.21708 -2.93994,3.94822 -4.9383,4.1553 -9.21569,14.38503 -9.93674,23.76451 -0.41387,5.38367 -0.21258,7.03539 0.69794,5.72691 0.70376,-1.01134 1.59324,-1.52513 1.97661,-1.14175 0.93243,0.93241 -0.6724,12.35555 -1.73581,12.35555 -0.45919,0 -2.7349,-1.96032 -5.05715,-4.35627 z"
       id="path3380"
       inkscape:connector-curvature="0" />
    <path
       style="fill:#000000"
       d="m 24.725968,346.56481 19.100967,-0.38033 -0.350967,-92.27586 c -0.261567,-68.77056 -0.727796,-92.72971 -1.830301,-94.0576 -0.851788,-1.02592 -1.717379,-7.60277 -2.040493,-15.50388 -0.610708,-14.93368 -1.647344,-21.5028 -3.824717,-24.23705 -1.980846,-2.48747 -1.536051,-28.100916 1.000439,-57.61009 1.152348,-13.40625 2.488685,-31.125 2.96964,-39.375 1.025546,-17.5915785 2.756321,-19.4355777 7.280166,-7.756425 2.634204,6.800692 2.824248,9.365562 3.108263,41.949704 0.166381,19.08837 -0.1025,35.361452 -0.597519,36.162405 -0.495016,0.800952 -0.21183,7.376716 0.629303,14.612796 1.642848,14.13308 1.523035,13.96145 9.30959,13.33609 2.90983,-0.2337 6.034456,2.75321 7.331045,7.00793 1.147991,3.7671 -1.022841,3.57715 -3.571438,-0.3125 -2.898318,-4.42339 -4.454266,-3.87369 -3.618216,1.27827 0.972786,5.99459 -2.099164,9.34673 -8.565465,9.34673 l -4.806265,0 0,8.35694 c 0,6.77795 0.497616,8.88662 2.633673,11.16035 2.463436,2.62221 2.503834,2.98878 0.625,5.6712 C 47.731115,166.4763 47.5,173.7497 47.5,227.15314 l 0,60.34686 17.5,0 c 10.833334,0 17.5,0.47619 17.5,1.25 0,0.77381 -6.666666,1.25 -17.5,1.25 l -17.5,0 0,28.125 0,28.125 45,0 45,0 0,-88.33511 c 0,-57.32024 -0.47129,-91.04141 -1.34229,-96.04308 -0.94457,-5.42416 -0.95649,-11.16346 -0.0403,-19.3704 l 1.30208,-11.66242 -4.36879,-4.83573 c -2.40283,-2.65965 -5.67134,-7.77029 -7.26335,-11.35699 -1.59202,-3.5867 -7.0611,-11.87542 -12.15351,-18.419374 C 108.54143,89.68294 102.6906,81.80794 100.632,78.726896 98.573446,75.645854 92.526571,67.915904 87.194549,61.54923 81.862564,55.182556 77.5,49.399277 77.5,48.697499 c 0,-2.732189 4.054277,-2.625178 7.886975,0.208175 5.461241,4.037266 34.764975,34.583401 44.000695,45.866212 4.11803,5.030786 9.76441,12.700014 12.54751,17.042734 4.73916,7.39493 5.21496,7.78004 7.5,6.0704 1.57163,-1.17587 4.13187,-1.60826 7.19486,-1.21512 5.83996,0.74958 5.72413,-1.68791 -0.15257,-3.21071 -5.35171,-1.38677 -5.27402,-3.93506 0.085,-2.78917 2.23438,0.47777 4.68264,1.36621 5.44059,1.97432 2.28904,1.83655 2.00615,17.49735 -0.36335,20.11562 -2.53504,2.80118 -10.05966,2.95715 -13.87109,0.28751 -3.27898,-2.29668 -3.18737,-2.47155 -5.28037,10.07753 -0.80266,4.8125 -1.72879,9.73437 -2.05806,10.9375 -0.38885,1.42081 0.10175,2.1875 1.39978,2.1875 2.9634,0 3.50864,2.81394 1.34807,6.95719 -1.63945,3.14387 -1.91377,12.28321 -1.92037,63.98031 l -0.008,60.3125 17.5,0 c 10.83334,0 17.5,0.47619 17.5,1.25 0,0.77381 -6.66666,1.25 -17.5,1.25 l -17.5,0 0,28.125 0,28.125 51.28131,0 51.28131,0 -0.34381,-91.5625 -0.34381,-91.5625 -5.29494,-15.34061 c -6.27609,-18.18323 -8.3078,-22.38383 -11.25385,-23.26742 -15.44302,-4.63178 -20.95974,-5.66677 -22.38804,-4.20024 -2.48552,2.55208 -19.3429,46.81615 -20.25341,53.18139 -0.56978,3.98329 -1.43806,5.87688 -2.69476,5.87688 -2.29909,0 -5.37583,-8.8526 -4.56163,-13.125 0.96962,-5.08789 12.36409,-49.07021 13.69738,-52.87145 1.54552,-4.40631 5.41935,-6.32853 16.65647,-8.26507 12.34103,-2.12679 23.46633,0.2821 26.52222,5.74268 1.08493,1.93867 1.42033,1.94789 4.2163,0.1159 1.67068,-1.09467 4.4026,-2.18308 6.07093,-2.41869 4.11047,-0.58049 3.42465,-2.46712 -1.48737,-4.0917 -2.22284,-0.73517 -4.27128,-2.03979 -4.55207,-2.89917 -0.60622,-1.855238 1.71077,-2.111744 2.82277,-0.3125 0.4249,0.6875 2.07672,1.25 3.67071,1.25 3.42033,0 6.27126,2.9695 5.29456,5.51474 -0.40348,1.05146 0.57538,2.62531 2.36017,3.79474 3.52202,2.30772 3.95953,6.55498 1.2208,11.85112 -1.99184,3.85176 -4.18248,5.0894 -9.00835,5.0894 -2.99131,0 -3.0926,0.23966 -2.24528,5.3125 1.88256,11.27072 5.4297,22.42555 7.64979,24.05656 2.2109,1.62428 2.21592,1.85134 0.12012,5.41849 -2.0014,3.40644 -2.1875,8.8377 -2.1875,63.84281 L 247.5,287.5 l 17.5,0 c 10.83334,0 17.5,0.47619 17.5,1.25 0,0.77381 -6.66666,1.25 -17.5,1.25 l -17.5,0 0,28.125 0,28.125 45.64902,0 45.64902,0 -0.33651,-90.67089 c -0.29234,-78.7658 -0.58129,-90.82211 -2.20064,-91.82267 -1.02528,-0.63349 -4.54314,-1.79449 -7.81749,-2.57999 -6.68566,-1.60387 -4.746,-2.79599 -25.13481,15.44785 -10.37863,9.28675 -15.2056,10.421 -20.7506,4.876 -4.60763,-4.60762 -4.85523,-8.681 -1.23068,-20.24577 2.82722,-9.02072 6.5614,-13.67279 13.47897,-16.79218 3.59367,-1.62051 4.97154,-3.2008 6.18731,-7.09627 1.85294,-5.93703 1.42746,-6.91023 -3.49359,-7.99108 -3.60426,-0.79162 -5.86686,-2.6748 -4.6617,-3.87996 0.53147,-0.53148 1.92116,-0.0805 10.2867,3.3378 1.375,0.56186 4.32742,1.38011 6.56095,1.81834 4.23067,0.83008 7.81405,4.62761 7.81405,8.28105 0,1.16927 -1.44009,3.83741 -3.2002,5.92917 l -3.2002,3.80323 3.21287,0.80637 c 3.61805,0.90808 8.50437,-2.19699 18.38042,-11.68002 5.55587,-5.33478 8.55711,-6.05112 8.55711,-2.0424 0,3.52845 -4.949,11.52737 -9.4042,15.19973 l -4.47676,3.69012 6.00297,1.53533 c 10.68604,2.7331 12.02741,3.55669 10.87006,6.67415 -0.56703,1.5274 -1.20642,30.19897 -1.42087,63.71459 l -0.38989,60.9375 17.53434,0 c 10.85624,0 17.53435,0.47608 17.53435,1.25 0,0.77381 -6.66666,1.25 -17.5,1.25 l -17.5,0 0,28.125 0,28.125 39.375,0 39.375,0 0,-68.20924 c 0,-64.83316 -0.11012,-68.17427 -2.22525,-67.50296 -3.41124,1.08269 -18.43689,-3.54041 -23.97061,-7.37529 -5.51019,-3.81856 -9.11579,-8.51048 -10.05414,-13.08331 -0.45555,-2.21999 -1.81119,-3.34799 -5,-4.16035 -2.40625,-0.61301 -4.90938,-1.63302 -5.5625,-2.2667 -1.49384,-1.44936 -3.1875,-1.49005 -3.1875,-0.0766 0,0.59156 1.43405,3.18876 3.18679,5.77155 3.57379,5.26627 2.95595,7.97103 -0.71594,3.13421 -4.74564,-6.25123 -5.49254,-8.47158 -3.61199,-10.7375 0.95464,-1.15026 1.55385,-3.4791 1.33159,-5.1752 -0.50353,-3.84241 5.33795,-10.31863 9.3073,-10.31863 2.5488,0 7.52747,4.63999 10.30596,9.60487 0.97273,1.73816 1.56305,1.63365 4.96049,-0.87818 3.80612,-2.814 3.8303,-2.90162 1.85576,-6.72641 -1.10034,-2.1314 -4.46727,-6.90583 -7.4821,-10.60983 -5.46122,-6.70966 -6.1618,-9.2036 -2.77036,-9.8621 3.16821,-0.61516 13.05614,6.70718 16.90607,12.51953 3.73467,5.63831 3.75059,5.64641 7.42207,3.77429 2.02365,-1.03189 4.88993,-2.97909 6.36953,-4.32713 5.15295,-4.69479 13.3738,-0.0644 8.81978,4.96771 C 425.18388,166.86866 425,172.25794 425,227.28593 l 0,60.21407 11.875,0 c 7.08334,0 11.875,0.50439 11.875,1.25 0,0.74561 -4.79166,1.25 -11.875,1.25 l -11.875,0 0,28.125 0,28.125 22.5,0 22.5,0 0,-71.48194 0,-71.48194 -2.71326,-2.88813 c -1.4923,-1.58848 -2.25904,-3.31223 -1.70387,-3.83056 0.55517,-0.51834 1.2605,-0.23931 1.56743,0.62007 1.50609,4.21706 2.8497,0.61064 2.8497,-7.64895 l 0,-9.21145 -4.6875,-0.77479 c -2.57813,-0.42614 -6.53328,-0.78098 -8.78923,-0.78855 -4.16276,-0.014 -6.69442,-2.84456 -4.50175,-5.0333 0.60692,-0.60582 4.81364,-1.80483 9.34829,-2.66448 l 8.2448,-1.563 -0.53595,-4.63988 c -0.40281,-3.48723 -0.0384,-4.79125 1.46719,-5.24925 1.5722,-0.47827 1.52727,-0.5628 -0.20885,-0.39285 -1.60035,0.15665 -2.21058,1.2991 -2.20686,4.13158 0.002,2.15327 -0.41905,3.65288 -0.9375,3.33246 -1.68137,-1.03914 -0.99682,-6.33396 1.03713,-8.022 2.68087,-2.22491 6.12449,0.0156 6.20928,4.03986 0.0353,1.67204 0.89361,4.22443 1.90751,5.67198 1.74659,2.49361 3.11198,2.65472 25.98294,3.06602 l 24.13947,0.4341 3.01552,3.5072 c 3.65168,4.24711 3.75878,6.50846 0.55695,11.7597 -3.57293,5.85985 -13.24177,12.47441 -22.54144,15.42086 -9.38833,2.97454 -14.60259,2.47695 -18.59675,-1.77464 -2.88494,-3.07087 -6.70843,-3.22043 -12.34075,-0.48274 l -2.8125,1.36707 0,42.91378 0,42.91377 17.5,0 c 10.83334,0 17.5,0.47619 17.5,1.25 0,0.77381 -6.66666,1.25 -17.5,1.25 l -17.5,0 0,28.125 0,28.125 41.29547,0 41.29548,0 -0.35798,-93.22134 -0.35797,-93.22135 3.75,0.59539 c 6.73056,1.06861 32.89075,-5.67292 39.81895,-10.26144 3.88497,-2.57298 11.16497,-13.55088 8.18884,-12.34837 -0.96679,0.39064 -6.25779,2.4723 -11.75779,4.62592 -5.5,2.15363 -13.67399,5.63339 -18.16441,7.73282 -8.25783,3.8608 -14.90763,4.45093 -15.90564,1.41153 -0.28206,-0.85901 0.51831,-1.9406 1.7786,-2.40352 1.2603,-0.46293 3.41645,-1.9382 4.79145,-3.27838 3.67406,-3.58101 47.07308,-27.08648 50,-27.08065 1.375,0.003 3.90129,1.0816 5.61396,2.39746 2.72469,2.09338 3.1014,3.31747 3.01344,9.79167 -0.11737,8.64115 -4.71676,22.79749 -8.859,27.26704 -1.54989,1.67235 -4.53146,3.38333 -6.62574,3.80218 -2.61702,0.52342 -3.44751,1.20007 -2.65576,2.1638 0.63361,0.77123 1.14889,4.85367 1.14506,9.07208 -0.006,7.05669 -0.30461,7.88991 -3.73022,10.42257 -2.0478,1.514 -4.09989,2.3761 -4.56021,1.91578 -0.46033,-0.46033 0.7089,-1.96301 2.59826,-3.33933 5.49246,-4.00097 4.441,-5.70795 -3.12928,-5.08016 -8.48171,0.70336 -11.45725,-1.9962 -10.72011,-9.72585 0.44477,-4.66395 0.25598,-5.07241 -2.05026,-4.43572 -1.39708,0.38568 -6.47764,1.2982 -11.29014,2.0278 -4.8125,0.7296 -10.57813,1.89746 -12.8125,2.59525 l -4.0625,1.2687 0,59.27806 0,59.27806 18.75,0 c 11.66666,0 18.75,0.47223 18.75,1.25 0,0.77778 -7.08334,1.25 -18.75,1.25 l -18.75,0 0,28.125 0,28.125 46.28851,0 46.28851,0 -0.35101,-92.30861 c -0.2616,-68.79574 -0.72782,-92.76246 -1.83035,-94.09036 -0.85179,-1.02593 -1.71737,-7.60278 -2.04049,-15.50389 -0.61071,-14.93368 -1.64735,-21.5028 -3.82471,-24.23705 -1.98085,-2.48747 -1.53605,-28.100916 1.00044,-57.61009 1.15234,-13.40625 2.48869,-31.125 2.96964,-39.375 1.02555,-17.5915785 2.75632,-19.4355777 7.28016,-7.756425 2.63421,6.800692 2.82425,9.365562 3.10826,41.949704 0.16639,19.08837 -0.1025,35.361452 -0.59751,36.162405 -0.49503,0.800952 -0.21184,7.376716 0.6293,14.612796 1.64285,14.13308 1.52304,13.96145 9.30959,13.33609 2.90982,-0.2337 6.03446,2.75321 7.33105,7.00793 1.14798,3.7671 -1.02285,3.57715 -3.57144,-0.3125 -2.89833,-4.42339 -4.45428,-3.87369 -3.61823,1.27827 0.97279,5.99459 -2.09916,9.34673 -8.56546,9.34673 l -4.80626,0 0,8.35694 c 0,6.77795 0.49761,8.88662 2.63368,11.16035 2.46343,2.62221 2.50383,2.98878 0.625,5.6712 -1.77758,2.53783 -2.00868,9.81255 -2.00868,63.23105 l 0,60.36328 42.74959,-0.32891 42.7496,-0.32891 4.64547,-21.72484 c 2.83131,-13.2408 4.3785,-23.36996 3.96185,-25.9375 C 749.7185,235.28101 749.90318,235 753.125,235 c 4.08669,0 4.4585,-3.53695 -3.74504,35.625 -3.16834,15.125 -7.72782,37.34375 -10.13218,49.375 -2.40435,12.03125 -4.65762,22.84283 -5.00723,24.02571 -0.57495,1.94529 0.95328,2.18785 15.99939,2.53954 9.14928,0.21385 -154.64619,0.38681 -363.98994,0.38436 -209.34375,-0.002 -372.029565,-0.17561 -361.524032,-0.3848 z M 730,345.84916 c 0,-0.79912 9.81245,-49.06491 10.65531,-52.41166 l 0.86572,-3.4375 -42.63552,0 -42.63551,0 0,28.125 0,28.125 36.875,0 c 20.28125,0 36.875,-0.18037 36.875,-0.40084 z M 419.27276,209.24126 c 1.08749,-0.4173 1.97724,-1.32992 1.97724,-2.02805 0,-0.75027 -0.74219,-0.65336 -1.81501,0.237 -4.14659,3.44136 -10.18933,-2.13445 -8.70829,-8.03539 0.65959,-2.62799 -0.29809,-4.18477 -5.90725,-9.60271 l -6.69445,-6.46622 -0.39351,3.97631 c -0.50126,5.06526 -5.22345,8.59691 -8.60178,6.43314 -2.16355,-1.38571 -2.16261,-1.4152 0.0234,-0.7292 3.96277,1.2436 7.09695,-1.44177 7.09695,-6.08069 0,-3.85824 1.0092,-4.98515 11.875,-13.26021 7.48872,-5.70318 11.875,-9.90087 11.875,-11.36444 0,-2.68945 5.72195,-3.34775 6.59121,-0.7583 0.3026,0.90142 0.46819,0.7692 0.39139,-0.3125 -0.20814,-2.93118 -5.39533,-2.94925 -9.17858,-0.032 -1.88596,1.45426 -7.36652,5.23265 -12.17902,8.39642 -4.8125,3.16377 -11.16024,7.69228 -14.10609,10.06335 -4.81327,3.87413 -5.32697,4.80449 -5.06881,9.17987 0.48302,8.18623 8.24974,14.97703 21.44865,18.75358 9.19791,2.63175 8.8817,2.58643 11.37401,1.63004 z M 419.75,206 c 3.21346,-3.21346 1.73604,-13.08604 -3.52389,-23.54751 l -5.02389,-9.99201 -3.72611,2.75483 c -2.04936,1.51516 -3.72611,2.94434 -3.72611,3.17596 0,0.23163 2.00201,4.39662 4.44893,9.25553 3.26407,6.48157 4.24538,9.76115 3.68464,12.31416 -1.21087,5.51305 4.22178,9.68369 7.86643,6.03904 z m 87.93083,-4.75575 c 9.73268,-3.0699 19.18735,-9.83447 22.00564,-15.74453 1.87675,-3.93556 1.90654,-4.77361 0.27273,-7.67126 -1.00881,-1.78916 -2.67795,-3.52092 -3.7092,-3.84836 -1.47326,-0.46779 -1.4063,-0.0664 0.3125,1.8732 2.79119,3.1498 2.75334,4.49715 -0.20146,7.17121 -1.87906,1.70053 -3.59778,1.9807 -8.05253,1.31267 -4.07542,-0.61114 -7.34885,-0.22458 -11.67353,1.37855 -3.30549,1.22531 -6.19555,2.36048 -6.42235,2.5226 -0.22682,0.16212 0.49573,1.68072 1.60565,3.37467 4.86601,7.42646 -4.71132,13.22649 -11.42522,6.91911 -1.59119,-1.49485 -2.89306,-2.14452 -2.89306,-1.44373 0,1.49433 3.56369,4.78708 6.25,5.77482 3.33112,1.22484 5.83892,0.9334 13.93082,-1.61895 z M 501.25,197.5 c 2.12824,-3.97664 -0.46157,-7.5 -5.5128,-7.5 -3.76039,0 -4.95537,-1.02375 -12.03746,-10.3125 -4.32444,-5.67188 -8.36292,-10.875 -8.97438,-11.5625 -0.66306,-0.74551 -0.9581,1.09789 -0.73106,4.56749 0.20939,3.19961 0.76759,5.57866 1.24045,5.28677 0.90717,-0.55997 8.52891,9.86503 8.49611,11.62097 -0.01,0.56362 -0.61585,0.18102 -1.34516,-0.85023 -1.17869,-1.66666 -1.26337,-1.66666 -0.76211,0 0.31015,1.03125 1.12247,1.75912 1.80516,1.6175 0.68267,-0.14163 3.0295,1.96775 5.21515,4.6875 4.5869,5.70779 10.27,6.81005 12.6061,2.445 z m -25,0.0737 c 0,-0.64693 -0.5625,-1.52388 -1.25,-1.94878 -0.6875,-0.4249 -1.25,0.10438 -1.25,1.17623 0,1.07182 0.5625,1.94877 1.25,1.94877 0.6875,0 1.25,-0.5293 1.25,-1.17622 z m -70.1919,-11.79763 c -2.98429,-6.14257 -3.23353,-6.33942 -5.89314,-4.65455 -1.32746,0.84096 -0.6283,2.18837 3.125,6.02253 2.65926,2.71656 5.0014,4.81973 5.20473,4.67369 0.20332,-0.14604 -0.89314,-2.86479 -2.43659,-6.04167 z M 421.25,177.5 c 0,-6.1875 -0.42188,-11.2472 -0.9375,-11.24379 -0.51563,0.004 -2.53916,1.2879 -4.49676,2.85442 l -3.55925,2.84821 4.14003,8.39559 c 2.27704,4.61756 4.30058,8.39557 4.49677,8.39557 0.19618,0 0.35671,-5.0625 0.35671,-11.25 z m 69.46708,7.78274 c -2.15969,-2.06278 -2.19322,-2.02925 -0.76182,0.76182 0.8235,1.60575 1.84012,2.57674 2.25912,2.15774 0.419,-0.419 -0.25479,-1.7328 -1.4973,-2.91956 z m 9.99775,1.41511 c 3.3881,-1.12869 6.83437,-2.57981 7.65839,-3.22471 0.82403,-0.64491 4.96847,-0.98708 9.20985,-0.76035 6.37084,0.34054 7.95768,0.0187 9.12678,-1.85103 1.1742,-1.8779 0.818,-2.78242 -2.09205,-5.3125 -3.41272,-2.96711 -4.06219,-3.04926 -24.10649,-3.04926 -20.37242,0 -20.58419,0.0281 -19.22929,2.55984 1.69344,3.16421 4.7506,4.34836 14.2332,5.51302 4.06463,0.49923 8.56463,1.43125 10,2.07116 2.35939,1.05185 2.30995,1.10937 -0.51522,0.59943 -1.71875,-0.31023 -5.9375,-0.93294 -9.375,-1.38383 -3.4375,-0.45087 -7.375,-1.09728 -8.75,-1.43646 -1.4526,-0.35832 -0.78038,0.47425 1.60447,1.98723 2.25747,1.43216 4.42703,3.44445 4.82124,4.47176 0.86626,2.25746 0.0214,2.27846 7.41411,-0.1843 z m -213.17085,-5.36568 c -2.3903,-4.46632 -1.41484,-7.27701 3.87583,-11.16782 2.8434,-2.09106 6.46335,-5.9366 8.04433,-8.54564 l 2.8745,-4.74371 -3.31438,-2.66016 c -2.97462,-2.38749 -3.1613,-2.99612 -1.82111,-5.9375 1.71748,-3.76944 0.60993,-4.14984 -4.45567,-1.53032 -5.27875,2.72975 -7.45159,5.83402 -10.18263,14.54757 -3.42052,10.91338 -3.29924,15.58465 0.50334,19.38722 3.77459,3.77459 6.34795,4.14852 4.47579,0.65036 z m 15.98114,-6.17943 c 4.34507,-3.86525 10.23904,-9.08088 13.09773,-11.59025 l 5.1976,-4.56253 -5.17856,-1.39443 -5.17858,-1.39445 -11.9767,9.08196 c -12.07853,9.15917 -13.34837,11.07685 -10.66049,16.09921 1.90214,3.55418 5.32097,2.10294 14.699,-6.23951 z m 86.44708,2.46602 c -0.0152,-1.09656 -1.0755,-3.35672 -2.35604,-5.02257 l -2.32825,-3.02881 -2.0496,3.96351 c -1.9023,3.67864 -1.90043,4.19119 0.026,7.13126 1.96355,2.99675 2.20135,3.05391 4.40565,1.05906 1.28154,-1.15977 2.31755,-3.00587 2.30227,-4.10245 z M 476.25,181.875 c 1.27446,-1.53564 1.18905,-1.875 -0.47195,-1.875 -1.11543,0 -2.02805,0.84375 -2.02805,1.875 0,1.03125 0.21237,1.875 0.47195,1.875 0.25956,0 1.17219,-0.84375 2.02805,-1.875 z m -293.46461,-8.54155 c 0.33578,-2.9791 4.95077,-16.4585 10.25551,-29.95421 5.30474,-13.49571 9.46252,-25.76644 9.23954,-27.26829 -0.66659,-4.48949 -3.95452,-5.67111 -7.86133,-2.8252 -2.94726,2.14694 -4.17289,5.4806 -9.61405,26.14994 -3.42987,13.02912 -6.524,24.85961 -6.87582,26.28996 -0.75292,3.06099 1.6999,13.02435 3.20637,13.02435 0.57159,0 1.31399,-2.43745 1.64978,-5.41655 z M 470,175 c 0,-4.32748 -1.22249,-4.57793 -11.15464,-2.28531 -8.13749,1.87835 -8.34572,4.4906 -0.40786,5.11651 3.26562,0.2575 7.20312,0.56957 8.75,0.69349 C 469.52924,178.71229 470,178.12231 470,175 Z m -65.2715,-6.0016 2.85349,-2.196 -3.92648,-5.92791 C 398.86009,153.63472 386.25,145.64085 386.25,149.84067 c 0,0.59988 2.78737,4.57764 6.19416,8.83948 3.40679,4.26184 6.53845,8.83354 6.95924,10.15932 0.93525,2.94673 1.67397,2.96878 5.3251,0.15893 z m 194.55721,-0.96269 c 3.67789,-3.67789 1.72948,-6.78571 -4.25421,-6.78571 -2.38399,0 -3.7815,2.34756 -3.7815,6.35224 0,3.01104 5.17879,3.2904 8.03571,0.43347 z m -24.71038,-3.69716 c 5.61017,-0.92498 12.42096,-2.27974 15.13507,-3.01057 2.71411,-0.73083 7.40673,-0.98997 10.42803,-0.57585 6.76486,0.92722 10.69092,-2.27759 9.34747,-7.63029 -1.18986,-4.74081 -4.13972,-5.19094 -10.6163,-1.61996 -6.06481,3.34395 -18.5338,7.33638 -30.30245,9.70252 -5.36197,1.07805 -7.21726,2.02861 -7.72129,3.95605 -0.52106,1.9925 -0.21352,2.35704 1.43284,1.69845 1.15296,-0.46122 6.68645,-1.59539 12.29663,-2.52035 z M 308.12408,155.1776 c -1.49135,-0.2872 -3.45759,0.88135 -5.24824,3.11906 -4.3946,5.49181 -3.42898,6.1015 2.37861,1.50181 4.34755,-3.44332 4.84284,-4.24086 2.86963,-4.62087 z m -260.410817,3.17441 c -3.101288,-3.30117 -3.518123,-10.56784 -1.43332,-24.98701 1.425192,-9.85709 0.186726,-13.74959 -4.177019,-13.12835 -2.360194,0.336 -2.677679,1.06236 -2.355191,5.38835 0.205002,2.75 0.767502,11.46875 1.25,19.375 l 0.877267,14.375 3.4375,0.39552 c 1.890625,0.21754 3.4375,1.01442 3.4375,1.77084 0,0.75641 0.377217,0.99809 0.838263,0.53704 0.461043,-0.46104 -0.382707,-2.13791 -1.875,-3.72639 z m 200.622567,0.19105 c -2.25742,-1.26331 -3.63975,-5.54051 -7.08625,-21.92616 -3.17313,-15.08601 -5.41386,-20.3669 -8.64182,-20.3669 -4.9438,0 -5.41209,4.16761 -1.33844,11.91172 2.06007,3.91625 5.4734,12.68197 7.58519,19.47937 3.47558,11.18713 4.1267,12.35891 6.86755,12.35891 1.66536,0 3.07235,0.70312 3.12663,1.5625 0.0683,1.08127 0.31056,1.02819 0.78661,-0.17236 0.37837,-0.95418 -0.2064,-2.23537 -1.29948,-2.84708 z M 337.5,161.25 c 0,-0.6875 0.98437,-1.28703 2.1875,-1.33226 1.20312,-0.0453 -0.84497,-0.89778 -4.55134,-1.89452 -3.70636,-0.99673 -9.26224,-2.92846 -12.3464,-4.29273 -3.08415,-1.36427 -6.29602,-2.48049 -7.13749,-2.48049 -0.84146,0 -4.17472,-1.40625 -7.40725,-3.125 -7.32407,-3.89425 -7.95213,-3.88546 -9.78486,0.13694 -1.28014,2.80961 -1.1498,3.50793 0.93998,5.03602 1.3526,0.98904 3.81981,1.48243 5.57553,1.11498 1.80615,-0.378 9.01365,1.1587 16.89933,3.60306 15.90899,4.93141 15.625,4.87264 15.625,3.234 z m 318.96326,-2.89799 c -3.10128,-3.30117 -3.51812,-10.56784 -1.43332,-24.98701 1.4252,-9.85709 0.18674,-13.74959 -4.17701,-13.12835 -2.3602,0.336 -2.67768,1.06236 -2.35519,5.38835 0.205,2.75 0.7675,11.46875 1.25,19.375 l 0.87726,14.375 3.4375,0.39552 c 1.89063,0.21754 3.4375,1.01442 3.4375,1.77084 0,0.75641 0.37721,0.99809 0.83826,0.53704 0.46105,-0.46104 -0.3827,-2.13791 -1.875,-3.72639 z M 143.75,159.375 c 0,-1.03125 -0.81055,-1.875 -1.80123,-1.875 -3.01383,0 -3.06276,-1.42111 -0.49516,-14.38285 3.90768,-19.72662 3.9314,-19.99151 1.93821,-21.64571 -3.92343,-3.25616 -7.94613,1.25031 -5.906,6.61626 0.72349,1.90294 0.71379,6.99624 -0.0256,13.42665 -1.85722,16.15291 -1.73694,17.23565 1.9148,17.23565 1.71875,0 3.125,0.5625 3.125,1.25 0,0.6875 0.28125,1.25 0.625,1.25 0.34375,0 0.625,-0.84375 0.625,-1.875 z m 470.50595,0.4518 c 6.16263,-2.80789 13.07479,-23.41985 11.2018,-33.40369 l -0.81701,-4.35506 -1.38286,4.27848 c -1.01897,3.15257 -2.73994,4.93636 -6.53979,6.77847 -3.12078,1.51291 -6.47127,4.55606 -8.48579,7.7074 l -3.32888,5.20739 3.17329,3.17328 c 3.68414,3.68414 4.00795,6.54279 1.10455,9.751 -1.87852,2.07575 -1.88392,2.28593 -0.0589,2.28593 1.10545,0 3.41552,-0.64044 5.1335,-1.4232 z m -283.4249,-9.27421 c 5.80285,-4.42607 11.8227,-16.80259 8.17264,-16.80259 -0.54798,0 -3.20128,2.25807 -5.89622,5.01795 -2.69493,2.75986 -7.06395,6.51764 -9.7089,8.35059 l -4.80899,3.33263 2.89271,1.60513 c 4.0006,2.21986 4.59151,2.12481 9.34876,-1.50371 z m 246.95779,-1.7714 c 4.30989,-2.04534 12.05491,-5.3636 17.21116,-7.37392 19.95464,-7.77984 26.1218,-11.08627 26.96819,-14.45852 1.11811,-4.45495 -0.14105,-6.95274 -3.49146,-6.92594 -3.32892,0.0266 -46.64488,23.56528 -50.39569,27.38589 -1.39918,1.42521 -3.2273,2.5913 -4.0625,2.5913 -0.8352,0 -1.51854,0.5625 -1.51854,1.25 0,2.42462 7.54473,1.20631 15.28884,-2.46881 z m -264.79829,-3.63263 c 1.96101,-2.16688 1.9692,-2.51024 0.1045,-4.375 -2.5225,-2.52248 -5.64012,-2.5807 -8.79359,-0.16419 -2.37402,1.81922 -2.35893,1.91309 0.69859,4.34721 3.91218,3.11451 5.3152,3.14822 7.99055,0.19198 z M 52.460246,134.0625 c -0.02186,-1.89063 -0.79909,-4.43841 -1.727167,-5.66174 -1.516065,-1.99837 -1.765889,-2.01972 -2.460245,-0.21026 -0.425059,1.10769 -0.772834,3.65546 -0.772834,5.66174 0,2.81442 0.571126,3.64776 2.5,3.64776 1.903576,0 2.490516,-0.82009 2.460246,-3.4375 z m 608.750004,0 c -0.0219,-1.89063 -0.7991,-4.43841 -1.72718,-5.66174 -1.51606,-1.99837 -1.76588,-2.01972 -2.46023,-0.21026 -0.42507,1.10769 -0.77284,3.65546 -0.77284,5.66174 0,2.81442 0.57112,3.64776 2.5,3.64776 1.90357,0 2.49051,-0.82009 2.46025,-3.4375 z M 157.5,131.48891 c 0,-3.57922 -2.78341,-6.38812 -7.1875,-7.25332 -3.87568,-0.76139 -4.0625,-0.62131 -4.0625,3.04605 0,4.31555 2.49796,6.37158 7.8125,6.43035 2.4971,0.0276 3.4375,-0.58055 3.4375,-2.22308 z m -21.80529,-5.12611 c -2.13465,-3.45394 4.36714,-8.90499 7.51019,-6.29649 5.95156,4.93935 -2.41794,-9.77353 -12.66923,-22.271448 -4.77438,-5.820723 -5.16176,-6.041165 -6.25976,-3.562272 -0.86892,1.961697 -2.19867,2.596648 -5.16185,2.46477 l -3.99141,-0.177641 4.8954,6.483901 c 2.69246,3.56615 5.81392,8.70859 6.93657,11.42764 1.9957,4.83359 7.54584,13.06874 8.80777,13.06874 0.34933,0 0.31888,-0.51174 -0.0676,-1.1372 z M 248.75,125.16858 c 0,-3.2974 -4.73778,-8.91858 -7.51695,-8.91858 -3.33348,0 -3.8188,1.45814 -2.21963,6.66875 1.25132,4.07715 1.86437,4.58125 5.5713,4.58125 3.23155,0 4.16528,-0.52264 4.16528,-2.33142 z M 48.932956,107.61963 C 47.993847,99.61454 47.927369,93.961947 48.733089,90.625 50.50168,83.300242 50.274421,82.65959 47.5137,87.1875 c -2.898826,4.75442 -3.615911,4.896801 -7.857722,1.560191 l -3.18117,-2.502308 -0.893589,10.72741 c -1.242753,14.919077 0.83444,27.815527 3.726467,23.136127 1.360439,-2.20124 5.547163,-1.55742 7.21243,1.1091 2.962054,4.74299 3.926733,-0.69378 2.41284,-13.59839 z m 177.908064,14.8254 C 225.59275,120.42528 229.75851,115 232.55764,115 c 2.35125,0 2.38309,-0.17842 0.53523,-2.99859 -3.66117,-5.58767 -13.60828,-7.85166 -25.38377,-5.77743 -10.36818,1.82633 -14.82739,3.47831 -15.72861,5.82688 -0.55744,1.45266 0.0475,1.3809 2.98451,-0.35403 3.52088,-2.07983 3.7964,-2.07398 6.23434,0.13232 1.40286,1.26958 2.55066,3.37933 2.55066,4.68836 0,1.30902 0.4777,2.0848 1.06154,1.72396 0.58385,-0.36083 5.78697,0.68198 11.5625,2.31737 5.77553,1.63539 10.67478,3.02242 10.88723,3.0823 0.21245,0.0599 0.0234,-0.47838 -0.42025,-1.19611 z m 430.84194,-14.8254 c -0.93911,-8.00509 -1.00559,-13.657683 -0.19987,-16.99463 1.76858,-7.324758 1.54134,-7.96541 -1.21939,-3.4375 -2.89883,4.75442 -3.61591,4.896801 -7.85772,1.560191 l -3.18117,-2.502308 -0.89358,10.72741 c -1.24277,14.919077 0.83443,27.815527 3.72646,23.136127 1.36044,-2.20124 5.54716,-1.55742 7.21242,1.1091 2.96207,4.74299 3.92674,-0.69378 2.41285,-13.59839 z M 123.125,91.978424 c 0,-2.975498 -3.1055,-6.90062 -16.875,-21.328733 C 89.664615,53.271003 83.179355,47.5 80.23515,47.5 c -2.896353,0 -1.372266,2.608249 8.209436,14.04923 5.332023,6.366674 11.370817,14.10702 13.419544,17.20077 9.32977,14.088754 13.2789,17.694973 18.76087,17.13182 1.87,-0.192101 2.5,-1.17576 2.5,-3.903396 z M 46.969121,86.067989 c 1.726065,-3.33784 2.005995,-8.390621 1.852481,-33.4375 C 48.658991,26.099468 48.377355,22.400424 46.027892,15.9375 44.590814,11.984375 43.014529,8.75 42.525036,8.75 c -0.489494,0 -1.25862,7.171875 -1.709171,15.9375 -0.45055,8.765625 -1.690355,25.78125 -2.755122,37.8125 l -1.935939,21.875 3.257302,2.8125 c 4.276855,3.692826 5.16633,3.561579 7.587015,-1.119511 z m 608.749999,0 c 1.72607,-3.33784 2.00599,-8.390621 1.85248,-33.4375 C 657.40899,26.099468 657.12735,22.400424 654.77789,15.9375 653.34081,11.984375 651.76452,8.75 651.27504,8.75 c -0.4895,0 -1.25863,7.171875 -1.70918,15.9375 -0.45055,8.765625 -1.69035,25.78125 -2.75512,37.8125 l -1.93594,21.875 3.25731,2.8125 c 4.27685,3.692826 5.16633,3.561579 7.58701,-1.119511 z"
       id="path3378"
       inkscape:connector-curvature="0" />
  </g>
</svg>
