<?xml version="1.0" encoding="UTF-8" standalone="no"?>
<!-- Created with Inkscape (http://www.inkscape.org/) -->

<svg
   xmlns:dc="http://purl.org/dc/elements/1.1/"
   xmlns:cc="http://creativecommons.org/ns#"
   xmlns:rdf="http://www.w3.org/1999/02/22-rdf-syntax-ns#"
   xmlns:svg="http://www.w3.org/2000/svg"
   xmlns="http://www.w3.org/2000/svg"
   xmlns:sodipodi="http://sodipodi.sourceforge.net/DTD/sodipodi-0.dtd"
   xmlns:inkscape="http://www.inkscape.org/namespaces/inkscape"
   version="1.1"
   width="570"
   height="295"
   id="svg2"
   inkscape:version="0.91 r13725"
   sodipodi:docname="ub810104.svg">
  <sodipodi:namedview
     pagecolor="#ffffff"
     bordercolor="#666666"
     borderopacity="1"
     objecttolerance="10"
     gridtolerance="10"
     guidetolerance="10"
     inkscape:pageopacity="0"
     inkscape:pageshadow="2"
     inkscape:window-width="1314"
     inkscape:window-height="915"
     id="namedview11"
     showgrid="false"
     inkscape:zoom="1.5134566"
     inkscape:cx="264.11583"
     inkscape:cy="187.62091"
     inkscape:window-x="0"
     inkscape:window-y="0"
     inkscape:window-maximized="0"
     inkscape:current-layer="svg2" />
  <metadata
     id="metadata8">
    <rdf:RDF>
      <cc:Work
         rdf:about="">
        <dc:format>image/svg+xml</dc:format>
        <dc:type
           rdf:resource="http://purl.org/dc/dcmitype/StillImage" />
        <dc:title></dc:title>
      </cc:Work>
    </rdf:RDF>
  </metadata>
  <defs
     id="defs6" />
  <g
     id="g2987"
     transform="translate(-15.399563,-2.4979369)">
    <path
       d="m 491.24916,276.75 c 0.22871,-0.6875 1.72871,-1.48026 3.33334,-1.76169 l 2.9175,-0.51169 0,-11.48831 c 0,-6.31857 -0.383,-18.53563 -0.8511,-27.14902 -0.83698,-15.40086 -0.81561,-15.6797 1.28777,-16.8054 3.39308,-1.81592 5.89588,-0.36947 7.10033,4.10352 0.77721,2.88635 0.77256,7.72402 -0.0165,17.18969 -0.60398,7.2451 -1.19317,18.68459 -1.30931,25.4211 l -0.21116,12.24821 -6.33333,0.002 c -4.62238,0.001 -6.221,-0.33589 -5.91751,-1.2482 z M 505,277.2 c 0,-0.44 0.54321,-1.34321 1.20714,-2.00714 0.94286,-0.94286 0.85275,-1.56154 -0.41157,-2.82586 -1.37383,-1.37383 -1.53645,-3.37723 -1.07491,-13.24286 0.53372,-11.40876 0.60744,-11.70289 3.97852,-15.87414 1.88909,-2.3375 3.74209,-4.24311 4.11777,-4.23469 1.54619,0.0347 2.91292,1.63936 3.52365,4.13716 0.52941,2.1652 -0.36169,4.06052 -4.85071,10.31729 l -5.49925,7.66482 4.1144,6.92557 c 2.26929,3.81977 3.85505,7.60146 3.53607,8.43271 C 513.03333,278.07673 505,278.73413 505,277.2 Z m -20.5,-46.38374 c -9.32922,-0.94778 -13.04634,-2.66992 -10.74031,-4.97595 0.89863,-0.89863 2.11354,-0.75029 5.18001,0.6325 3.888,1.75324 9.73629,1.73996 14.35551,-0.0326 1.38096,-0.52992 1.70479,-0.064 1.70479,2.4528 0,1.70885 -0.3375,3.04637 -0.75,2.97229 -0.4125,-0.0741 -4.8,-0.54615 -9.75,-1.04904 z m 6,-6.68907 c -2.6064,-0.55271 -3.04072,-1.12759 -3.31037,-4.38168 -0.36408,-4.39383 1.1105,-4.87047 5.17551,-1.67293 2.38277,1.87429 3.83391,7.11657 1.88486,6.80911 -0.4125,-0.0651 -2.1,-0.4046 -3.75,-0.7545 z m 8.07143,-29.69862 c -2.31511,-2.31511 -1.98343,-3.1434 2.35559,-5.8825 6.30126,-3.97781 11.267,-8.76617 12.73536,-12.28045 0.89152,-2.13371 2.05304,-3.26562 3.35104,-3.26562 3.97105,0 2.1226,3.75304 -6.89529,14 -8.82744,10.03056 -8.8988,10.07647 -11.5467,7.42857 z M 496.25,186.77951 c -1.7554,-0.8466 -2.25,-1.93084 -2.25,-4.93232 0,-2.11596 0.42883,-3.84719 0.95295,-3.84719 2.72754,0 6.00981,2.55395 6.57203,5.11374 1.03199,4.69859 -0.6745,5.88449 -5.27498,3.66577 z M 474,169.93226 C 463.88916,167.3432 438.77855,163 433.92053,163 c -3.40361,0 -3.91851,-0.29666 -3.90522,-2.25 0.0207,-3.03673 0.89959,-4.17112 4.76739,-6.15306 1.80548,-0.92516 3.01642,-2.11295 2.69098,-2.63953 -0.8976,-1.45234 5.35721,-1.15081 12.06622,0.5817 8.09205,2.08965 31.19902,9.33827 35.2101,11.04536 3.80299,1.61852 4.52408,5.6633 1.31574,7.38035 -2.47236,1.32316 -3.06378,1.27255 -12.06574,-1.03256 z m 1,-7.82842 c -2.08401,-1.16057 -35.00114,-9.43603 -35.50989,-8.92729 -0.37303,0.37303 33.62012,9.52185 36.00989,9.6916 0.55,0.0391 0.325,-0.30487 -0.5,-0.76431 z M 131,160 c -1.1,-1.1 -2,-2.38248 -2,-2.84996 0,-1.71286 5.98572,-8.85044 13.96305,-16.65004 4.50027,-4.4 8.85989,-9.2834 9.68805,-10.85199 1.23273,-2.33488 2.02589,-2.77565 4.37451,-2.43094 1.57782,0.23157 2.64097,0.0525 2.36256,-0.39801 C 159.10976,126.36858 158.23352,126 157.44098,126 c -1.75514,0 -1.75923,1.06123 0.0591,-15.33927 1.06905,-9.6423 1.20509,-14.305938 0.47343,-16.230355 -0.79046,-2.079071 -0.67015,-3.244451 0.52295,-5.065354 1.99051,-3.037898 4.25063,-3.014168 5.65101,0.05933 0.88057,1.932652 0.44715,5.619653 -2.13701,18.178919 -2.95223,14.34815 -3.09739,15.86001 -1.62605,16.93589 3.16065,2.31112 1.24929,4.46084 -3.96622,4.46084 -1.55398,0 -2.41821,0.57407 -2.41821,1.6063 0,0.88346 -3.0375,5.42668 -6.75,10.09603 -8.92261,11.22232 -10.23849,13.32208 -10.24474,16.34767 -0.005,2.4873 -1.5998,4.95 -3.20526,4.95 -0.44,0 -1.7,-0.9 -2.8,-2 z m -8.94613,-1.09178 c -4.53171,-1.832 -5.30515,-2.97307 -3.42411,-5.0516 3.56162,-3.93555 11.16574,-1.18621 9.46457,3.422 -0.94943,2.57188 -2.60487,3.01848 -6.04046,1.6296 z m 37.89591,-6.5403 c -0.55039,-1.44765 -0.73688,-3.46336 -0.41441,-4.47937 0.32247,-1.01601 4.72143,-7.84399 9.77547,-15.17329 5.05404,-7.3293 10.5094,-16.11358 12.12303,-19.52063 1.61363,-3.40705 3.36381,-6.19463 3.88929,-6.19463 0.55594,0 0.71325,2.0448 0.37621,4.8905 -0.85941,7.2564 -17.81357,40.82222 -21.28628,42.14254 -3.41247,1.29742 -3.32447,1.33025 -4.46331,-1.66512 z m 239.5856,1.43187 c -1.09129,-0.63289 -6.6479,-1.18889 -12.5,-1.25076 -6.75182,-0.0714 -11.52298,-0.60673 -13.28538,-1.49071 -2.98179,-1.49561 -3.15795,-1.86618 -1.86048,-3.9138 0.71184,-1.1234 1.27678,-1.08166 3.29965,0.24377 3.98471,2.61089 10.67236,3.00142 19.13945,1.11767 8.60313,-1.91402 12.2243,-1.48995 13.18735,1.54435 1.30112,4.09948 -3.49319,6.35197 -7.98059,3.74948 z m -87.49903,-7.25599 c -1.67075,-2.01313 -0.60575,-3.29154 3.74978,-4.5012 5.16105,-1.43337 8.75832,-1.29643 10.15509,0.38658 0.98926,1.19198 0.43405,1.54196 -3.34533,2.10871 -2.4923,0.37374 -5.05105,1.30561 -5.68611,2.07082 -1.48933,1.79454 -3.3508,1.76974 -4.87343,-0.0649 z m 79.95412,-0.0553 c -0.93157,-1.12246 -0.45604,-1.68497 2.45139,-2.89977 1.98393,-0.82894 4.27112,-1.25237 5.08264,-0.94096 2.43071,0.93275 1.66965,3.27157 -1.2745,3.91669 -1.5125,0.33142 -3.2796,0.76324 -3.92689,0.95961 -0.64728,0.19637 -1.69698,-0.26963 -2.33264,-1.03557 z m -142.82876,-3.7268 c -0.68106,-0.68106 -3.48726,-1.28226 -6.23599,-1.33599 -2.74873,-0.0537 -5.53372,-0.63372 -6.18888,-1.28888 -0.92158,-0.92158 -0.44922,-0.93254 2.08703,-0.0484 1.80302,0.62853 3.50049,0.92052 3.77216,0.64886 C 243.3952,139.93813 227.69795,136 223.71329,136 c -2.79182,0 -3.51856,-0.34389 -3.08952,-1.46193 0.9606,-2.50329 3.61444,-2.60715 14.67818,-0.57446 5.89178,1.08248 11.38513,1.70996 12.20743,1.39442 0.8223,-0.31555 2.61909,-0.29162 3.99286,0.0532 1.91462,0.48053 2.49776,1.27615 2.49776,3.40784 0,2.5444 -1.52668,5.18095 -3,5.18095 -0.33,0 -1.15723,-0.55723 -1.83829,-1.23829 z m 156.90565,-5.40535 c -3.23638,-4.32762 -3.91122,-5.83976 -2.89396,-6.48469 1.95731,-1.2409 2.02871,-1.19311 5.8266,3.89959 4.71375,6.32083 5.43524,8.22874 3.11174,8.22874 -1.05107,0 -3.61203,-2.39117 -6.04438,-5.64364 z m -69.67099,2.31956 c 1.593,-1.36646 4.068,-2.74171 5.5,-3.05612 1.432,-0.31441 3.72863,-0.86871 5.10363,-1.23177 4.1542,-1.0969 1.07292,1.2367 -4.5,3.40806 -9.06625,3.53246 -9.22225,3.55495 -6.10363,0.87983 z m -120.31742,-4.25925 c 0.048,-1.16495 0.28494,-1.4019 0.60416,-0.60417 0.28887,0.72187 0.25335,1.58437 -0.0789,1.91667 -0.3323,0.33229 -0.56864,-0.25834 -0.52522,-1.3125 z m 59.87083,-4.04875 c -0.55039,-1.44765 -0.73688,-3.46336 -0.41441,-4.47937 0.32247,-1.01601 4.72143,-7.84399 9.77547,-15.17329 5.05404,-7.3293 10.5094,-16.113584 12.12303,-19.52063 C 299.0475,88.787583 300.79297,86 301.3127,86 c 0.55839,0 0.66776,2.089609 0.26737,5.10793 -1.00111,7.54671 -17.69064,40.60341 -21.16698,41.92511 -3.41247,1.29742 -3.32447,1.33025 -4.46331,-1.66512 z M 325.5,122.43914 c -8.91654,-4.79449 -17.13239,-12.34877 -16.16683,-14.865 0.95715,-2.49428 2.54377,-1.87506 6.49,2.53288 4.78055,5.33987 16.24711,11.22033 20.83467,10.68476 l 3.34564,-0.39058 -3.19791,3.2994 c -1.75885,1.81467 -3.22213,3.24108 -3.25174,3.1698 -0.0296,-0.0713 -3.65383,-2.06535 -8.05383,-4.43126 z m 40.91204,-5.9736 c -2.97944,-2.93726 -4.39043,-5.07948 -4.00581,-6.08178 0.32657,-0.85104 0.59377,-1.89973 0.59377,-2.33044 0,-0.97489 15.44499,-10.505648 20.33775,-12.549976 3.60734,-1.507239 3.60916,-1.506683 5.20778,1.584701 0.87955,1.700858 1.36666,3.698415 1.08246,4.439005 -0.28419,0.7406 -4.70425,4.135 -9.82235,7.54311 -8.6103,5.73355 -13.52206,9.44014 -9.80564,7.3997 3.45704,-1.89804 16.67108,-10.90203 18.7239,-12.75839 2.16587,-1.95858 2.24166,-1.96149 2.90419,-0.11127 0.37416,1.04489 0.83221,2.18835 1.01789,2.54102 C 392.95981,106.7373 372.69742,121 371.53678,121 c -0.28884,0 -2.59497,-2.04051 -5.12474,-4.53446 z m 27.03936,-13.61866 c -0.43705,-1.37703 -0.27996,-2.40403 0.40252,-2.63152 0.61563,-0.20521 2.13784,-1.247992 3.3827,-2.317295 2.09459,-1.799198 1.99241,-1.791076 -1.37012,0.108913 l -3.6335,2.053102 -2.09734,-3.554721 -2.09733,-3.554719 5.23083,-3.267917 C 404.96061,82.378599 411,82.07793 411,88.8 c 0,3.060507 -6.39265,9.647038 -8.55699,8.816505 -0.85079,-0.326478 -1.31238,-0.214163 -1.02577,0.24959 0.48217,0.780161 -1.509,2.914295 -5.58314,5.984005 -1.4146,1.06585 -1.77403,0.91451 -2.3827,-1.00322 z M 166.48653,98.329697 C 165.06673,95.766426 165.80126,91 167.61608,91 c 2.65625,0 7.22632,2.928086 7.90436,5.064393 0.84608,2.665764 0.45898,2.99847 -4.18785,3.599383 -3.00884,0.389094 -4.05042,0.102356 -4.84606,-1.334079 z m -25.7747,-30.026373 c -0.98349,-0.255571 -7.77528,-7.96587 -15.09285,-17.133999 -7.31758,-9.168129 -15.4645,-19.267731 -18.10427,-22.443561 -2.63976,-3.17583 -4.50917,-6.064639 -4.15423,-6.419575 C 104.12999,21.53668 114,25.999516 114,27.116967 c 0,1.73268 13.87682,16.457008 22.39649,23.764333 7.05898,6.054491 9.36744,8.682395 10.2787,11.701073 1.68232,5.572988 -0.0686,7.252758 -5.96336,5.720951 z"
       id="path2997"
       style="fill:#fefefe"
       inkscape:connector-curvature="0" />
    <path
       d="M 127.63408,189.41354 C 114.95226,186.34394 103.37583,177.83097 95.14127,165.51928 86.337157,152.35604 82.321599,137.39775 83.324282,121.5 c 0.497471,-7.88752 2.898279,-20.05589 4.217235,-21.37485 1.393089,-1.393089 1.385931,1.36199 -0.01693,6.51742 -3.828546,14.06965 -2.714818,32.8268 2.722837,45.85743 3.306794,7.92429 10.390656,18.01745 16.412396,23.38455 12.66562,11.28867 28.39935,15.25227 45.59018,11.48495 1.53702,-0.33683 2.75,-0.17104 2.75,0.37587 0,1.31904 -10.1226,3.27448 -16.41678,3.17132 -2.79577,-0.0458 -7.72289,-0.72224 -10.94914,-1.50315 z M 158.02836,186.25 c 0.0156,-0.4125 2.53779,-2.26928 5.60486,-4.12618 4.02049,-2.43412 5.20078,-3.60838 4.23,-4.20836 -0.88589,-0.54751 -1.00728,-1.16188 -0.35486,-1.796 C 168.79333,174.87053 176,173.53929 176,174.55085 176,176.1288 170.87773,184 169.85086,184 c -0.58986,0 -0.77489,-0.75559 -0.41481,-1.69393 0.58375,-1.52125 0.46723,-1.54271 -1.14302,-0.21049 -1.64866,1.36401 -8.74257,4.90442 -9.82696,4.90442 -0.25634,0 -0.45331,-0.3375 -0.43771,-0.75 z M 386,121.20089 c 0,-0.43951 1.54311,-1.35711 3.42913,-2.0391 2.51374,-0.90898 3.59783,-2.00806 4.06108,-4.11721 C 395.52392,105.78517 382.74534,85 375.01901,85 c -3.17298,0 -8.85662,3.908032 -5.76901,3.966731 0.9625,0.0183 1.73578,0.370769 1.7184,0.783269 C 370.9325,90.601324 366.33492,96 365.64579,96 365.14755,96 363,90.197082 363,88.850777 363,88.38285 363.58757,88 364.30572,88 c 0.71815,0 2.83057,-1.125 4.69428,-2.5 5.64256,-4.162951 8.92533,-3.454675 15.06332,3.25 6.62462,7.236225 11.27364,16.85882 11.36756,23.52869 0.0605,4.29426 -0.30628,5.20897 -2.93088,7.30992 -2.9182,2.33598 -6.5,3.22441 -6.5,1.61228 z"
       id="path2993"
       style="fill:#fe0000"
       inkscape:connector-curvature="0" />
    <path
       d="m 517.13618,242.28518 c -0.0749,-1.21815 -1.07864,-2.7192 -2.23053,-3.33567 -1.72691,-0.92422 -2.50342,-0.73656 -4.42597,1.06958 -3.64931,3.42834 -4.76134,1.76433 -3.98527,-5.96345 1.1976,-11.92518 -2.58693,-19.21723 -8.36792,-16.12334 -2.03058,1.08674 -2.12683,0.92223 -2.13404,-3.64712 -0.004,-2.63185 -0.47495,-7.66579 -1.04622,-11.18653 -0.57126,-3.52075 -0.73815,-7.76955 -0.37087,-9.44178 l 0.66779,-3.04041 1.34824,2.57319 c 0.74152,1.41526 2.06941,2.84995 2.95086,3.18819 1.89163,0.72589 5.45775,-0.95969 5.45775,-2.57969 0,-0.62232 0.3375,-0.79399 0.75,-0.38149 0.4125,0.41249 0.7852,7.34999 0.82823,15.41666 l 0.0782,14.66668 2.92889,3.09575 c 4.1764,4.41434 8.63121,13.00946 8.119,15.66482 l -0.43199,2.23943 -0.13618,-2.21482 z M 134,163.89673 c -1.925,-1.11069 -2.64742,-1.75598 -1.60538,-1.43397 2.58053,0.79742 5.60538,-2.14842 5.60538,-5.45896 0,-2.61019 0.16276,-2.6846 5.75,-2.62871 3.98197,0.0398 6.59558,-0.50558 8.5,-1.7738 l 2.75,-1.83131 0,5.59469 c 0,5.51098 -0.0592,5.62491 -3.96016,7.61501 -5.14588,2.62523 -12.40741,2.58988 -17.03984,-0.083 z m 290.88978,-3.39547 c -1.43562,-0.78026 -6.71094,-1.94455 -11.72295,-2.58732 l -9.11273,-1.16866 2.47295,-1.94522 c 3.13229,-2.46385 3.12357,-4.29258 -0.0344,-7.21928 -6.0893,-5.64337 6.52299,-5.40837 15.11328,0.2816 4.12658,2.73334 5.41646,3.10685 8.91658,2.58197 2.90868,-0.43618 4.43052,-0.20585 5.26237,0.79647 0.94781,1.14204 0.5046,1.72757 -2.33136,3.07994 -2.51615,1.19987 -3.67079,2.51548 -4.1026,4.67453 -0.68033,3.40164 -0.86105,3.46264 -4.46116,1.50597 z M 158.01474,154.75 c 0.0142,-4.10327 0.0595,-4.16369 1.31161,-1.75 0.86949,1.67614 2.01803,2.4215 3.48526,2.26179 1.20361,-0.13102 2.18839,-0.0301 2.18839,0.22432 0,0.4971 -5.53784,3.51389 -6.45034,3.51389 -0.30231,0 -0.54303,-1.9125 -0.53492,-4.25 z M 249,144.89035 c -1.23415,-0.88778 -1.16421,-0.96941 0.39462,-0.46057 2.61489,0.85355 5.60538,-2.10716 5.60538,-5.54958 0,-3.07227 1.49343,-4.22043 7,-5.38166 1.925,-0.40595 5.525,-2.21353 8,-4.01684 l 4.5,-3.27876 0.10511,2.87149 c 0.14019,3.82965 2.14804,6.10688 4.78607,5.42818 1.98969,-0.5119 2.00372,-0.47081 0.24836,0.72742 -7.92134,5.40721 -11.65182,7.2644 -17.87217,8.89749 -8.1432,2.13793 -10.64775,2.28757 -12.76737,0.76283 z m 90,-10.73536 c 0,-1.01476 -0.9,-2.6595 -2,-3.65499 -1.1,-0.99549 -2,-2.32696 -2,-2.95882 0,-1.5198 6.25268,-7.54118 7.83085,-7.54118 2.26091,0 10.63367,-4.76384 13.16915,-7.49284 1.375,-1.47994 3.33008,-3.13811 4.34463,-3.68481 1.58741,-0.8554 1.75093,-0.6988 1.1727,1.12303 -0.52889,1.66639 0.39861,3.18195 4.35717,7.11976 l 5.02909,5.00272 -5.42992,2.40136 c -2.98645,1.32076 -7.14644,3.78081 -9.24441,5.46678 -2.09797,1.68598 -6.40477,3.7401 -9.57067,4.56471 C 339.36204,136.40122 339,136.38487 339,134.15499 Z M 154.76899,92.25 c -0.84755,-0.9625 -2.76689,-4.225 -4.26521,-7.25 -1.49832,-3.025 -4.48179,-7.852683 -6.62992,-10.728185 l -3.90571,-5.228185 2.7889,0.557781 c 3.88562,0.777123 6.92029,-2.467268 5.24163,-5.60387 -0.63839,-1.192859 -0.91331,-2.416242 -0.61092,-2.718631 0.30238,-0.302388 1.35134,0.935316 2.33102,2.750453 0.97967,1.815136 4.04471,6.038586 6.81119,9.385443 5.31874,6.434536 9.84979,13.538771 9.10804,14.280513 -0.24379,0.243791 -1.41549,-0.150423 -2.60378,-0.876031 -1.93924,-1.184164 -2.41617,-1.02487 -4.65656,1.555284 -1.37282,1.581014 -2.25853,3.493514 -1.96824,4.25 0.70792,1.844811 0.2147,1.732191 -1.64044,-0.374572 z"
       id="path2991"
       style="fill:#0000fe"
       inkscape:connector-curvature="0" />
    <path
       d="m 76.809435,278.25151 c 14.893844,-0.27544 16.265176,-0.45134 15.799514,-2.02657 C 92.328492,275.27622 90.525264,266.625 88.601776,257 86.678287,247.375 83.030699,229.6 80.496025,217.5 73.933197,186.17044 74.23065,189 77.5,189 c 2.577459,0 2.725202,0.22481 2.214787,3.37013 -0.333322,2.05403 0.904431,10.15736 3.169484,20.75 L 86.600653,230.5 120.80033,230.76313 155,231.02626 l 0,-34.03346 0,-34.03345 -3.96016,2.02033 C 146.00157,167.55001 138.67372,167.55875 134,165 c -1.925,-1.05389 -2.8625,-1.93503 -2.08333,-1.95808 0.77916,-0.0231 1.10992,-0.34866 0.73502,-0.72357 -0.37491,-0.3749 -2.18214,0.77269 -4.01607,2.5502 -1.83393,1.77752 -3.84144,3.09676 -4.46113,2.93165 -0.61968,-0.16511 -2.15407,0.96737 -3.40974,2.51662 -2.01949,2.49165 -2.59945,2.69653 -5.0239,1.77475 C 114.23338,171.51843 113,170.54022 113,169.91776 c 0,-0.62245 0.675,-0.85859 1.5,-0.52475 0.825,0.33385 2.09794,0.85057 2.82877,1.14827 0.7607,0.30988 1.77153,-0.43826 2.36445,-1.75 0.86787,-1.92 0.57153,-2.82355 -1.82876,-5.57608 -3.52388,-4.04097 -3.55989,-5.23528 -0.27557,-9.13847 2.82144,-3.3531 6.70106,-4.04763 9.8299,-1.75977 1.61496,1.18089 2.86932,0.2215 12.14016,-9.28534 15.15506,-15.54085 15.06942,-15.37796 16.9241,-32.19251 l 1.56559,-14.19371 -2.89388,-3.0727 C 153.56312,91.882715 150.61537,87.35 148.6042,83.5 145.60168,77.752225 124.80209,50.725578 105.59372,27.612854 c -2.91695,-3.509857 -3.61845,-4.988122 -2.7698,-5.836778 1.63286,-1.632856 10.95856,2.915516 12.67853,6.183624 1.68873,3.208761 15.45548,17.296434 26.26385,26.876096 4.54647,4.029619 8.99254,8.752545 9.88016,10.495392 0.88762,1.742847 3.91778,5.926284 6.7337,9.296527 2.81591,3.370243 5.88256,7.526035 6.81477,9.235093 l 1.69494,3.107378 3.07647,-1.735093 3.07647,-1.735093 -2.5214,-2.037565 C 167.9316,79.369598 167.29752,78 168.9184,78 c 1.60313,0 9.02477,7.72032 10.07363,10.479044 2.6782,7.044191 0.26631,10.955663 -7.53621,12.221836 -2.88843,0.46873 -4.04686,0.21131 -5.01648,-1.11472 -1.55176,-2.122164 -1.46091,-2.38276 -4.46985,12.82117 -1.95716,9.88939 -2.0098,10.99061 -0.56405,11.79969 1.98209,1.10923 2.07771,3.67035 0.16444,4.40454 -0.78657,0.30183 -1.91157,1.92986 -2.5,3.61784 -1.36525,3.91634 -1.42819,14.11008 -0.082,13.27809 1.95905,-1.21076 17.84855,-25.17227 21.43571,-32.32526 4.20852,-8.39198 6.13545,-8.90257 5.95733,-1.57855 -0.0979,4.02628 -1.67288,7.9998 -8.8634,22.36172 -9.75714,19.48833 -12.25606,23.26945 -16.55575,25.05044 l -2.96177,1.2268 0,58.87868 0,58.87868 29.5,0 29.5,0 0,-22.5 0,-22.5 -13,0 c -8,0 -13,-0.38462 -13,-1 0,-0.61538 5,-1 13,-1 l 13,0 0,-46.3 c 0,-28.70389 -0.3701,-46.6701 -0.97383,-47.27383 -0.53561,-0.53561 -0.70173,-2.65061 -0.36916,-4.7 0.50028,-3.08289 1.01368,-3.72617 2.97383,-3.72617 1.48452,0 2.36916,0.58526 2.36916,1.56739 0,1.05258 0.5895,1.38028 1.7948,0.99774 0.98715,-0.31331 6.49965,0.24368 12.25,1.23776 25.47081,4.40318 34.40054,0.58961 49.27934,-21.04546 4.63631,-6.74159 10.08106,-15.550425 12.09945,-19.575197 4.25319,-8.481068 6.17954,-8.937805 5.86438,-1.390442 -0.17366,4.158905 -1.82593,8.300705 -9.13254,22.892869 -4.90629,9.79844 -10.21088,19.11324 -11.78798,20.69956 -4.89215,4.92076 -12.99537,9.22942 -20.82556,11.0734 -7.49834,1.76583 -14.59008,1.45042 -11.48974,-0.51102 0.86787,-0.54905 0.97818,-0.92211 0.2754,-0.93129 -0.64485,-0.008 -3.15626,2.25248 -5.58092,5.02423 -4.05758,4.63842 -4.6209,4.95876 -7.07755,4.02475 C 235.20109,152.50615 234,151.54022 234,150.91776 c 0,-0.62245 0.675,-0.85859 1.5,-0.52475 0.825,0.33385 2.11693,0.85785 2.87096,1.16446 0.75402,0.30661 1.6399,-0.14339 1.96861,-1 0.36117,-0.94119 0.0575,-1.55747 -0.76736,-1.55747 -2.1453,0 -7.80071,-7.0182 -7.27509,-9.02817 C 232.80251,138.0392 229.68261,137 223.375,137 l -3.375,0 0,70.5 0,70.5 134.75945,0 c 133.67645,0 134.76949,-0.0161 136.00848,-2 0.7061,-1.13065 2.33202,-2 3.74054,-2 l 2.49153,0 -0.10597,-9.75 c -0.19171,-17.63977 -1.29603,-30.26506 -2.72433,-31.14641 -0.73166,-0.45149 -5.23034,-1.12066 -9.99705,-1.48706 -6.69206,-0.51439 -9.11587,-1.11531 -10.63795,-2.63739 -1.8546,-1.8546 -1.87073,-2.07168 -0.27264,-3.66977 1.59708,-1.59708 1.91089,-1.59732 5.25218,-0.004 3.7362,1.78167 8.29882,2.03549 12.48576,0.6946 l 2.5,-0.80064 -2.55,-0.0997 C 487.16234,224.95162 486,223.16709 486,217.5 c 0,-5.97917 1.17194,-7.5 5.77946,-7.5 3.1513,0 3.34289,-0.18566 2.83787,-2.75 -2.0053,-10.18238 -1.4626,-16.49153 1.58033,-18.37216 0.6535,-0.40388 0.23835,-1.10931 -1.06256,-1.80554 -1.77111,-0.94786 -2.1351,-2.05344 -2.1351,-6.48504 0,-6.57974 1.31951,-7.8646 7.71623,-7.51361 2.63107,0.14437 5.59997,-0.0973 6.59754,-0.53704 1.02162,-0.45034 2.86217,-0.32184 4.21429,0.29422 1.51049,0.68823 2.62102,0.73697 2.99525,0.13146 0.90728,-1.46802 4.46891,-1.14613 5.08508,0.45957 0.75977,1.97994 -1.07445,5.10136 -7.09742,12.07814 l -5.17973,6 0.14551,15.5 0.14552,15.5 3.8224,5 c 5.35467,7.00432 7.9682,12.71884 7.20595,15.7559 -0.34545,1.37638 -3.11027,5.96215 -6.14404,10.19059 l -5.51594,7.68809 4.1144,6.92557 c 2.26293,3.80907 3.85974,7.58924 3.54848,8.40037 -0.47379,1.23469 1.25853,1.52667 10.64028,1.79338 6.16341,0.17522 -95.8938,0.31423 -226.7938,0.30891 -130.9,-0.005 -230.660754,-0.14541 -221.690565,-0.3113 z M 155,255.5 l 0,-22.5 -34.10841,0 -34.108406,0 0.69257,2.75 C 88.150041,238.4274 96,277.04003 96,277.67933 96,277.8557 109.275,278 125.5,278 l 29.5,0 0,-22.5 z m 348.71116,10.2482 c 0.11614,-6.73651 0.70533,-18.176 1.30931,-25.4211 0.78909,-9.46567 0.79374,-14.30334 0.0165,-17.18969 -1.20445,-4.47299 -3.70725,-5.91944 -7.10033,-4.10352 -2.10338,1.1257 -2.12475,1.40454 -1.28777,16.8054 0.4681,8.61339 0.8511,20.83045 0.8511,27.14902 l 0,11.48831 -2.9175,0.51169 c -1.60463,0.28143 -3.10463,1.07419 -3.33334,1.76169 -0.30349,0.91231 1.29513,1.24951 5.91751,1.2482 l 6.33333,-0.002 0.21116,-12.24821 z m 9.92995,10.74466 c 0.31898,-0.83125 -1.26678,-4.61294 -3.53607,-8.43271 l -4.1144,-6.92557 5.51594,-7.68809 c 3.03377,-4.22844 5.80634,-8.84507 6.16125,-10.25916 0.77022,-3.06881 -3.36403,-11.60123 -7.99255,-16.49531 l -3.01882,-3.19202 -0.0782,-14.66668 c -0.043,-8.06667 -0.41573,-15.00417 -0.82823,-15.41666 -0.4125,-0.4125 -0.75,-0.24083 -0.75,0.38149 0,1.62 -3.56612,3.30558 -5.45775,2.57969 -0.88145,-0.33824 -2.20934,-1.77293 -2.95086,-3.18819 l -1.34824,-2.57319 -0.66779,3.04041 c -0.36728,1.67223 -0.20039,5.92103 0.37087,9.44178 0.57127,3.52074 1.04206,8.5292 1.04622,11.12991 0.007,4.6128 0.0657,4.70209 2.38106,3.64712 6.04542,-2.75448 8.88741,3.55316 8.2329,18.27248 -0.22871,5.14351 -0.2002,8.67684 0.0634,7.85184 0.26356,-0.825 1.78219,-2.53555 3.37474,-3.80123 2.34444,-1.86324 3.2819,-2.09445 4.92552,-1.21482 1.19274,0.63834 1.97381,1.99989 1.8938,3.30123 l -0.13618,2.21482 -0.42229,-2.16545 c -0.79975,-4.10099 -3.53446,-3.79657 -7.55265,0.84075 -3.64674,4.20866 -3.75241,4.55278 -3.93792,12.8247 -0.10485,4.675 -0.28276,10.6408 -0.39536,13.25733 -0.1126,2.61653 0.19181,5.0024 0.67647,5.30193 0.48466,0.29954 0.59513,-0.26626 0.24548,-1.25732 -0.51972,-1.47312 -0.38989,-1.57384 0.71145,-0.55194 1.04781,0.97222 1.08051,1.51667 0.14718,2.45 -2.0705,2.0705 -1.33282,2.8 2.83138,2.8 2.66945,0 4.22677,-0.50916 4.60973,-1.50714 z M 495,228.89301 c 0,-2.5168 -0.32383,-2.98272 -1.70479,-2.4528 -4.61922,1.77256 -10.46751,1.78584 -14.35551,0.0326 -3.06647,-1.38279 -4.28138,-1.53113 -5.18001,-0.6325 -2.30603,2.30603 1.41109,4.02817 10.74031,4.97595 4.95,0.50289 9.3375,0.97495 9.75,1.04904 0.4125,0.0741 0.75,-1.26344 0.75,-2.97229 z m 0,-6.32043 C 495,220.0456 490.8789,216 488.30478,216 c -1.03553,0 -1.3406,1.02468 -1.11515,3.74551 0.3112,3.7555 0.86582,4.15897 7.06037,5.13618 0.4125,0.0651 0.75,-0.97403 0.75,-2.30911 z m 7.50886,-27.33789 c 0.55487,-0.40408 3.97904,-4.10969 7.60927,-8.23469 9.01789,-10.24696 10.86634,-14 6.89529,-14 -1.298,0 -2.45952,1.13191 -3.35104,3.26562 -1.46836,3.51428 -6.4341,8.30264 -12.73536,12.28045 -4.33902,2.7391 -4.6707,3.56739 -2.35559,5.8825 1.74401,1.74401 2.45082,1.88872 3.93743,0.80612 z m -0.99378,-8.25909 c 1.24829,-2.01977 -0.60849,-6.69713 -3.11125,-7.83746 -3.8628,-1.76002 -4.40383,-1.4272 -4.40383,2.70905 0,3.00148 0.4946,4.08572 2.25,4.93232 2.91825,1.40741 4.48048,1.4656 5.26508,0.19609 z m 10.101,-11.17058 c -3.15629,-1.76634 -5.11204,-0.13738 -5.16895,4.30527 l -0.0529,4.12719 3.43912,-3.75273 c 3.00996,-3.28444 3.23243,-3.86842 1.7827,-4.67973 z M 151.03984,163.97968 C 154.94075,161.98958 155,161.87565 155,156.36467 l 0,-5.59469 -2.75,1.83131 c -1.90442,1.26822 -4.51803,1.81363 -8.5,1.7738 -5.62929,-0.0563 -5.75,6.1e-4 -5.75,2.71112 0,1.75077 -0.90516,3.48063 -2.46209,4.70531 l -2.46209,1.93668 2.21209,1.06822 c 3.70214,1.78776 11.43233,1.38695 15.75193,-0.81674 z M 135.8,160.8 c 0.66,-0.66 1.20237,-2.3475 1.20526,-3.75 0.006,-3.02559 1.32213,-5.12535 10.24474,-16.34767 3.7125,-4.66935 6.75,-9.21257 6.75,-10.09603 0,-1.03223 0.86423,-1.6063 2.41821,-1.6063 5.21551,0 7.12687,-2.14972 3.96622,-4.46084 -1.47134,-1.07588 -1.32618,-2.58774 1.62605,-16.93589 2.58416,-12.559264 3.01758,-16.246265 2.13701,-18.178917 -1.40038,-3.0735 -3.6605,-3.09723 -5.65101,-0.05933 -1.1931,1.820903 -1.31341,2.986283 -0.52295,5.065354 0.73166,1.924417 0.59562,6.588053 -0.47343,16.230353 C 155.68175,127.06123 155.68584,126 157.441,126 c 0.79254,0 1.66878,0.36858 1.94719,0.81906 0.27841,0.45048 -0.78474,0.62958 -2.36256,0.39801 -2.34862,-0.34471 -3.14178,0.0961 -4.37451,2.43094 C 151.82294,131.2166 147.46332,136.1 142.96305,140.5 134.98572,148.2996 129,155.43718 129,157.15004 c 0,1.07685 3.73424,4.84996 4.8,4.84996 0.44,0 1.34,-0.54 2,-1.2 z m -7.70567,-3.52138 c 1.70117,-4.60821 -5.90295,-7.35755 -9.46457,-3.422 -1.88104,2.07853 -1.1076,3.2196 3.42411,5.0516 3.43559,1.38888 5.09103,0.94228 6.04046,-1.6296 z m 33.95533,0.1957 c 3.11692,-1.61182 4.0869,-3.12444 1.32359,-2.06406 -1.98928,0.76336 -4.39605,-1.0698 -4.30986,-3.2827 0.0429,-1.1014 0.35576,-0.90018 0.96777,0.62244 1.03762,2.58144 0.99766,2.56974 4.38193,1.28304 3.47271,-1.32032 20.42687,-34.88614 21.28628,-42.14254 0.33704,-2.8457 0.17973,-4.8905 -0.37621,-4.8905 -0.52548,0 -2.27566,2.78758 -3.88929,6.19463 -1.61363,3.40705 -7.09637,12.23094 -12.18387,19.60865 -5.0875,7.37771 -9.25,13.84168 -9.25,14.36438 0,0.52271 -0.3375,0.74328 -0.75,0.49017 -0.4125,-0.25311 -0.8884,2.19533 -1.05756,5.44098 -0.16915,3.24566 -0.0343,5.90119 0.29966,5.90119 0.33397,0 1.93487,-0.68656 3.55756,-1.52568 z m -9.47926,-6.1124 c 2.23634,-1.46531 2.4296,-2.22577 2.4296,-9.56026 0,-4.38258 -0.38553,-7.81833 -0.85673,-7.63499 -0.4712,0.18333 -4.08653,4.37206 -8.03408,9.30829 -6.18845,7.73837 -6.93155,9.07825 -5.39328,9.72468 2.50904,1.05437 8.96899,0.0529 11.85449,-1.83772 z m 109.19697,-7.2344 c 6.22035,-1.63309 9.95083,-3.49028 17.87217,-8.89749 1.75536,-1.19823 1.74133,-1.23932 -0.24836,-0.72742 -2.63803,0.6787 -4.64588,-1.59853 -4.78607,-5.42818 L 274.5,126.20294 270,129.4817 c -2.475,1.80331 -6.075,3.61089 -8,4.01684 -5.55017,1.17043 -7,2.30213 -7,5.46406 0,1.93346 -0.87346,3.5793 -2.63486,4.96482 L 249.73028,146 l 2.45249,0 c 1.34887,0 5.66194,-0.84261 9.5846,-1.87248 z M 252.8,142.8 c 0.66,-0.66 1.2,-2.45143 1.2,-3.98095 0,-2.13169 -0.58314,-2.92731 -2.49776,-3.40784 -1.37377,-0.3448 -3.17056,-0.36873 -3.99286,-0.0532 -0.8223,0.31554 -6.31565,-0.31194 -12.20743,-1.39442 -11.06374,-2.03269 -13.71758,-1.92883 -14.67818,0.57446 -0.42904,1.11804 0.2977,1.46193 3.08952,1.46193 3.98466,0 19.68191,3.93813 18.88274,4.73731 -0.27167,0.27166 -1.96914,-0.0203 -3.77216,-0.64886 -2.53625,-0.88415 -3.00861,-0.87319 -2.08703,0.0484 0.65516,0.65516 3.44015,1.23515 6.18888,1.28888 2.74873,0.0537 5.55493,0.65493 6.23599,1.33599 1.54326,1.54326 2.12717,1.54941 3.63829,0.0383 z m -36.11689,-7.9875 c -0.31922,-0.79773 -0.55618,-0.56078 -0.60416,0.60417 -0.0434,1.05416 0.19292,1.64479 0.52522,1.3125 0.33229,-0.3323 0.36781,-1.1948 0.0789,-1.91667 z m 63.72998,-1.77946 c 3.47634,-1.3217 20.16587,-34.3784 21.16698,-41.92511 C 301.98046,88.089609 301.87109,86 301.3127,86 c -0.51973,0 -2.2652,2.787583 -3.87883,6.19463 -1.61363,3.407046 -7.06899,12.19133 -12.12303,19.52063 -5.05404,7.3293 -9.453,14.15728 -9.77547,15.17329 -0.55011,1.73326 0.86773,7.11145 1.87478,7.11145 0.25281,0 1.60413,-0.43513 3.00294,-0.96696 z m -104.7392,-34.3736 c 1.1581,-1.158101 -1.01286,-4.783368 -3.6951,-6.170407 -4.23342,-2.189188 -5.80033,-1.86926 -6.17584,1.260967 -0.56023,4.670085 1.13416,6.48218 5.52964,5.913776 2.10792,-0.27259 4.06151,-0.724541 4.3413,-1.004336 z m -19.26446,-6.034868 c -0.29029,-0.756486 0.59542,-2.668986 1.96824,-4.25 2.24039,-2.580154 2.71732,-2.739448 4.65656,-1.555284 1.18829,0.725608 2.35999,1.119822 2.60378,0.876031 0.74175,-0.741742 -3.7893,-7.845977 -9.10804,-14.280513 -2.76648,-3.346857 -5.83152,-7.570307 -6.81119,-9.385443 -0.97968,-1.815137 -2.02864,-3.052841 -2.33102,-2.750453 -0.30239,0.302389 -0.0275,1.525772 0.61092,2.718631 1.67866,3.136602 -1.35601,6.380993 -5.24163,5.60387 l -2.7889,-0.557781 3.90571,5.228185 c 2.14813,2.875502 5.1316,7.703185 6.62992,10.728185 2.41429,4.874284 5.2197,9 6.11982,9 0.1725,0 0.0761,-0.618943 -0.21417,-1.375428 z m -9.60669,-24.886889 c 0.73346,-0.883761 0.6952,-2.429788 -0.12755,-5.15531 C 145.76393,59.563695 143.45547,56.935791 136.39649,50.8813 127.87682,43.573975 114,28.849647 114,27.116967 c 0,-1.117451 -9.87001,-5.580287 -10.63952,-4.810778 -0.35494,0.354936 1.51447,3.243745 4.15423,6.419575 2.63977,3.17583 10.78669,13.275432 18.10427,22.443561 7.31757,9.168129 14.10936,16.878428 15.09285,17.133999 3.31821,0.862269 5.03843,0.702519 6.09091,-0.565641 z M 471.5,170.41923 c -11.77457,-2.84632 -32.51947,-6.40946 -37.5,-6.441 -1.925,-0.0122 -5.42916,-0.89773 -7.78702,-1.96788 -2.35787,-1.07014 -8.15463,-2.4604 -12.88169,-3.08945 -5.06699,-0.67429 -10.02654,-1.98857 -12.08324,-3.20206 -2.90065,-1.71142 -5.28005,-2.07198 -14.11832,-2.13943 -8.17854,-0.0624 -11.37917,-0.49038 -13.87973,-1.85594 -3.62595,-1.98014 -3.83444,-2.54194 -1.91669,-5.16462 1.24488,-1.70248 1.49788,-1.71557 3.81496,-0.19736 2.99152,1.96013 10.69173,3.14647 14.39307,2.21749 2.50234,-0.62805 2.57451,-0.79348 1.07091,-2.45495 C 389.72551,145.1442 389,143.21889 389,141.84557 389,139.42435 392.62427,135 394.60765,135 c 0.53832,0 1.40932,-1.42432 1.93555,-3.16515 0.9699,-3.20848 3.81223,-5.81275 5.02284,-4.60214 0.36408,0.36408 -0.29557,1.87927 -1.46589,3.3671 l -2.12785,2.70513 3.03424,1.84523 c 1.66883,1.01488 3.5473,2.97127 4.17437,4.34753 0.62706,1.37627 1.56964,2.5023 2.09461,2.5023 1.08796,0 -1.50763,-4.36359 -4.65787,-7.83059 -2.09519,-2.30588 -2.09687,-2.34579 -0.15809,-3.76348 1.07776,-0.78809 2.26624,-1.31432 2.64107,-1.16941 1.14679,0.44336 8.89937,10.63859 8.89937,11.70333 0,0.54928 2.5875,2.66269 5.75,4.69647 5.36728,3.45165 6.34409,3.71908 14.67572,4.01792 9.78451,0.35096 14.64023,1.41373 34.07428,7.4579 17.15024,5.33387 19.92083,6.70384 20.30709,10.04117 0.21463,1.85443 -0.37926,3.13404 -1.9725,4.25 -2.83552,1.98607 -3.12452,1.96752 -15.33459,-0.98408 z m 14.56574,0.54559 c 3.20834,-1.71705 2.48725,-5.76183 -1.31574,-7.38035 -4.01108,-1.70709 -27.11805,-8.95571 -35.2101,-11.04536 -6.70901,-1.73251 -12.96382,-2.03404 -12.06622,-0.5817 0.32544,0.52658 -0.8855,1.71437 -2.69098,2.63953 -3.8678,1.98194 -4.74672,3.11633 -4.76739,6.15306 -0.0133,1.95334 0.50161,2.25 3.90522,2.25 4.85802,0 29.96863,4.3432 40.07947,6.93226 9.00196,2.30511 9.59338,2.35572 12.06574,1.03256 z m -29.27741,-12.77126 c -9.74142,-2.53195 -17.52562,-4.78961 -17.29822,-5.01701 0.50875,-0.50874 33.42588,7.76672 35.50989,8.92729 2.45251,1.36579 0.35325,0.91505 -18.21167,-3.91028 z m -27.43739,0.80173 c 0.43181,-2.15905 1.58645,-3.47466 4.1026,-4.67453 2.83596,-1.35237 3.27917,-1.9379 2.33136,-3.07994 -0.83185,-1.00232 -2.35369,-1.23265 -5.26237,-0.79647 -3.50012,0.52488 -4.79,0.15137 -8.91658,-2.58197 -8.59029,-5.68997 -21.20258,-5.92497 -15.11328,-0.2816 3.15795,2.9267 3.16667,4.75543 0.0344,7.21928 l -2.47295,1.94522 9.11273,1.16866 c 5.01201,0.64277 10.28733,1.80706 11.72295,2.58732 3.60011,1.95667 3.78083,1.89567 4.46116,-1.50597 z m -22.39077,-5.4473 c 1.71282,-2.06381 0.33682,-5.43535 -2.50987,-6.14982 -1.32901,-0.33356 -5.88377,0.16494 -10.12168,1.10779 -8.46709,1.88375 -15.15474,1.49322 -19.13945,-1.11767 -2.02287,-1.32543 -2.58781,-1.36717 -3.29965,-0.24377 -1.29747,2.04762 -1.12131,2.41819 1.86048,3.9138 1.7624,0.88398 6.53356,1.41934 13.28538,1.49071 5.8521,0.0619 11.40871,0.61787 12.5,1.25076 2.73046,1.58354 5.99343,1.47288 7.42479,-0.2518 z M 398.25,146.56447 c 2.94415,-0.64512 3.70521,-2.98394 1.2745,-3.91669 -0.81152,-0.31141 -3.09871,0.11202 -5.08264,0.94096 -2.90743,1.2148 -3.38296,1.77731 -2.45139,2.89977 0.63566,0.76594 1.68536,1.23194 2.33264,1.03557 0.64729,-0.19637 2.41439,-0.62819 3.92689,-0.95961 z m 14.96778,-5.33221 c -0.85404,-2.1033 -7.50053,-11.14397 -8.21778,-11.17795 -0.275,-0.013 -1.09697,0.35479 -1.8266,0.81736 -1.7819,1.1297 6.32388,12.12833 8.93834,12.12833 1.34796,0 1.63654,-0.46122 1.10604,-1.76774 z m -101.74595,5.73661 c -1.65232,-1.82579 -1.68301,-2.18627 -0.30357,-3.56571 0.84402,-0.84401 3.73894,-2.09734 6.43316,-2.78516 4.78008,-1.22034 4.89011,-1.33332 4.54845,-4.67041 -0.19258,-1.8809 -1.20508,-5.09564 -2.25,-7.14387 C 317.78153,124.65144 317.63438,124 318.81479,124 c 0.44813,0 1.57679,1.59795 2.50814,3.551 1.62201,3.40139 1.78665,3.48566 3.90772,2 1.2179,-0.85305 3.37596,-1.551 4.79569,-1.551 1.63726,0 3.822,-1.28005 5.97366,-3.5 l 3.39233,-3.5 -3.22113,0 c -4.65304,0 -16.06563,-6.10954 -20.34803,-10.89298 -3.94623,-4.40794 -5.53285,-5.02716 -6.49,-2.53288 -0.98889,2.57701 7.35072,10.18694 15.91683,14.52417 4.2625,2.1582 7.75,4.14901 7.75,4.42401 0,0.275 -3.4875,-1.26659 -7.75,-3.42576 -9.45755,-4.79072 -18.31116,-13.19072 -16.66076,-15.80714 1.86776,-2.96102 3.37558,-2.56201 7.6852,2.03369 2.32406,2.47834 7.11011,5.93736 10.63567,7.6867 5.76265,2.85936 6.97367,3.11022 11.98955,2.48352 6.59349,-0.8238 12.27381,-3.46975 17.10034,-7.96552 4.30378,-4.00885 26.65374,-17.542535 28.88134,-17.488668 0.89026,0.02153 0.088,0.703481 -1.7829,1.515451 C 378.18288,97.687995 363,107.12985 363,108.05332 c 0,0.43071 -0.2672,1.4794 -0.59377,2.33044 -0.38462,1.0023 1.02637,3.14452 4.00581,6.08178 2.52977,2.49395 4.87542,4.53446 5.21256,4.53446 0.33715,0 4.04704,-2.37731 8.2442,-5.28292 9.46476,-6.55226 13.1312,-8.88385 13.1312,-8.35049 0,0.91643 -23.82039,16.47455 -28.13542,18.37646 -2.54948,1.12372 -7.49948,4.28693 -11,7.02935 -7.11936,5.57756 -15.47822,9.18699 -27.36458,11.8163 -4.4,0.97329 -8.71043,2.364 -9.57874,3.09046 -2.16469,1.81107 -3.30176,1.66286 -5.44943,-0.71029 z m 5.43795,-0.36016 c 0.63506,-0.76521 3.19381,-1.69708 5.68611,-2.07082 3.77938,-0.56675 4.33459,-0.91673 3.34533,-2.10871 -1.39677,-1.68301 -4.99404,-1.81995 -10.15509,-0.38658 -4.35553,1.20966 -5.42053,2.48807 -3.74978,4.5012 1.52263,1.83465 3.3841,1.85945 4.87343,0.0649 z M 342.5,138.79609 c 5.57292,-2.17136 8.6542,-4.50496 4.5,-3.40806 -1.375,0.36306 -3.67163,0.91736 -5.10363,1.23177 -1.432,0.31441 -3.907,1.68966 -5.5,3.05612 -3.11862,2.67512 -2.96262,2.65263 6.10363,-0.87983 z m 4.15859,-4.29538 c 3.1659,-0.82461 7.4727,-2.87873 9.57067,-4.56471 2.09797,-1.68597 6.25796,-4.14602 9.24441,-5.46678 l 5.42992,-2.40136 -5.02909,-5.00272 c -3.95856,-3.93781 -4.88606,-5.45337 -4.35717,-7.11976 0.57823,-1.82183 0.41471,-1.97843 -1.1727,-1.12303 -1.01455,0.5467 -2.96963,2.20487 -4.34463,3.68481 -2.92683,3.15021 -10.91444,7.4254 -14.41459,7.71508 -1.34267,0.11112 -2.26253,0.49117 -2.04414,0.84454 0.2184,0.35338 -0.71404,1.68635 -2.07209,2.96217 -2.99192,2.81076 -3.08562,4.1032 -0.46918,6.47105 1.1,0.99549 2,2.64023 2,3.65499 0,2.22988 0.36204,2.24623 7.65859,0.34572 z M 369.5,116.28305 c 0.55,-0.5557 4.6,-3.38415 9,-6.28544 4.4,-2.90129 9.11138,-6.22514 10.46974,-7.38634 1.98556,-1.69737 2.1858,-1.74311 1.02138,-0.23334 -0.79659,1.03286 -5.28297,4.4399 -9.96973,7.5712 -9.50422,6.34992 -12.0601,7.88857 -10.52139,6.33392 z m 28,-13.65278 c 2.2,-2.01438 5.19777,-4.321262 6.6617,-5.126408 5.60041,-3.080153 8.51086,-9.431306 5.6383,-12.303862 -2.55451,-2.55451 -7.35954,-1.247389 -16.56942,4.507403 -6.21604,3.884099 -8.35615,4.421478 -2.93328,0.736548 C 396.19094,86.439115 403.5566,83 406.24024,83 409.13773,83 412,85.829532 412,88.693882 c 0,2.657408 -3.33499,6.829758 -7.87457,9.851738 -1.99399,1.327391 -5.20043,3.61352 -7.12543,5.08029 -3.04449,2.31978 -2.97942,2.1902 0.5,-0.99564 z m -5.5,-2.00581 c 0,-0.2348 1.60204,-1.372133 3.56008,-2.527408 1.95805,-1.155276 3.27951,-1.646524 2.93659,-1.091665 C 397.82696,98.088998 392,101.335 392,100.62446 Z M 339,71 c 0,-3.325167 -0.41871,-5.005129 -1.25,-5.015313 C 336.91667,65.974479 337,65.64625 338,65 c 2.64441,-1.708949 3,-1.116298 3,5 0,3.333333 -0.44444,6 -1,6 -0.55,0 -1,-2.25 -1,-5 z m 7.93261,3.418799 c -0.99211,-1.195413 -1.03947,-2.018049 -0.19412,-3.37167 0.80445,-1.288118 0.81349,-2.095152 0.0322,-2.876417 C 345.37065,66.770648 347.5159,64 350,64 c 2.4841,0 4.62935,2.770648 3.22929,4.170712 -0.78127,0.781265 -0.77223,1.588299 0.0322,2.876417 C 354.60723,73.201975 352.76471,76 350,76 c -0.96531,0 -2.34564,-0.711541 -3.06739,-1.581201 z m 4.73156,-0.986016 c 0.83346,-2.171962 -1.28244,-4.214515 -2.79695,-2.7 C 347.58718,72.012816 348.38017,75 350,75 c 0.58452,0 1.3334,-0.705248 1.66417,-1.567217 z m -0.11032,-5.519915 c 1.03052,-1.667419 -1.28721,-3.57951 -2.66672,-2.2 C 347.73321,66.866792 348.45541,69 350,69 c 0.48508,0 1.18431,-0.48921 1.55385,-1.087132 z m 5.51381,6.213558 c -1.44958,-2.70857 -1.34319,-6.367351 0.24844,-8.544037 3.16477,-4.328083 8.10306,1.468014 6.10682,7.167611 -1.20039,3.427302 -4.83623,4.214756 -6.35526,1.376426 z M 361.58936,72.5 C 362.33127,69.543977 361.36834,65 360,65 c -1.36834,0 -2.33127,4.543977 -1.58936,7.5 0.34511,1.375 1.06032,2.5 1.58936,2.5 0.52904,0 1.24425,-1.125 1.58936,-2.5 z m 4.77483,-4.993311 C 366.01783,66.604071 366.21394,65.386061 366.8,64.8 c 1.52361,-1.523609 4.41041,-0.131088 4.01242,1.935492 -0.4433,2.301882 -3.64766,2.857428 -4.44823,0.771197 z m 2.31892,-1.694189 c -0.31922,-0.797733 -0.55618,-0.560776 -0.60416,0.604167 -0.0434,1.054166 0.19293,1.644791 0.52522,1.3125 0.33229,-0.332292 0.36781,-1.194792 0.0789,-1.916667 z"
       id="path2989"
       style="fill:#000000"
       inkscape:connector-curvature="0" />
  </g>
</svg>
