<?xml version="1.0" encoding="UTF-8" standalone="no"?>
<!-- Created with Inkscape (http://www.inkscape.org/) -->

<svg
   xmlns:dc="http://purl.org/dc/elements/1.1/"
   xmlns:cc="http://creativecommons.org/ns#"
   xmlns:rdf="http://www.w3.org/1999/02/22-rdf-syntax-ns#"
   xmlns:svg="http://www.w3.org/2000/svg"
   xmlns="http://www.w3.org/2000/svg"
   xmlns:sodipodi="http://sodipodi.sourceforge.net/DTD/sodipodi-0.dtd"
   xmlns:inkscape="http://www.inkscape.org/namespaces/inkscape"
   version="1.1"
   width="592"
   height="286"
   id="svg2"
   inkscape:version="0.91 r13725"
   sodipodi:docname="ub820802.svg">
  <sodipodi:namedview
     pagecolor="#b6b6b6"
     bordercolor="#666666"
     borderopacity="1"
     objecttolerance="10"
     gridtolerance="10"
     guidetolerance="10"
     inkscape:pageopacity="0"
     inkscape:pageshadow="2"
     inkscape:window-width="1338"
     inkscape:window-height="826"
     id="namedview11"
     showgrid="false"
     inkscape:zoom="0.70710678"
     inkscape:cx="187.02567"
     inkscape:cy="256.56531"
     inkscape:window-x="0"
     inkscape:window-y="0"
     inkscape:window-maximized="0"
     inkscape:current-layer="svg2" />
  <metadata
     id="metadata8">
    <rdf:RDF>
      <cc:Work
         rdf:about="">
        <dc:format>image/svg+xml</dc:format>
        <dc:type
           rdf:resource="http://purl.org/dc/dcmitype/StillImage" />
        <dc:title></dc:title>
      </cc:Work>
    </rdf:RDF>
  </metadata>
  <defs
     id="defs6" />
  <g
     id="g4188"
     transform="translate(1.9746145,-6.9534407)">
    <path
       sodipodi:nodetypes="sscsscsssssssssssscssscsssssssssssscssssscssssssssssssssssssssssssssssssssssssssssssccssssssccssssssscsssssssssssssscssss"
       d="m 538.35889,267.49286 c -0.31898,-0.83125 1.26678,-4.61294 3.53607,-8.43271 l 4.1144,-6.92557 -5.49925,-7.66482 c -4.48902,-6.25677 -5.38012,-8.15209 -4.85071,-10.31729 0.61073,-2.4978 1.97746,-4.10249 3.52365,-4.13716 0.37568,-0.008 2.22868,1.89719 4.11777,4.23469 3.37108,4.17125 3.4448,4.46538 3.97852,15.87414 0.46154,9.86563 0.29892,11.86903 -1.07491,13.24286 -1.26432,1.26432 -1.35443,1.883 -0.41157,2.82586 2.07782,2.07782 1.34405,2.80714 -2.82424,2.80714 -2.66945,0 -4.22677,-0.50916 -4.60973,-1.50714 z m 9.92995,-10.74466 c -0.11614,-6.73651 -0.70533,-18.176 -1.30931,-25.4211 -0.78909,-9.46567 -0.79374,-14.30334 -0.0165,-17.18969 1.20445,-4.47299 3.70725,-5.91944 7.10033,-4.10352 2.10338,1.1257 2.12475,1.40454 1.28777,16.8054 -0.4681,8.61339 -0.8511,20.83045 -0.8511,27.14902 l 0,11.48831 2.9175,0.51169 c 1.60463,0.28143 3.10463,1.07419 3.33334,1.76169 0.30349,0.91231 -1.29513,1.24951 -5.91751,1.2482 L 548.5,268.99641 Z M 557,219.91206 c 0,-2.53475 0.32246,-3.0023 1.70479,-2.47185 4.61922,1.77256 10.46751,1.78584 14.35551,0.0326 2.96627,-1.3376 4.29789,-1.51462 5.13049,-0.68202 2.29625,2.29625 -1.03115,4.02682 -8.99678,4.6792 -4.23171,0.34658 -8.70651,0.84119 -9.94401,1.09913 -1.95351,0.40718 -2.25,0.0571 -2.25,-2.65706 z m 0,-6.32043 C 557,211.07331 561.10002,207 563.63486,207 c 1.76159,0 1.86838,6.90773 0.11514,7.44786 -5.67919,1.74961 -6.75,1.61378 -6.75,-0.85623 z M 444.02984,188.25 c 0.0164,-0.4125 1.70391,-2.66132 3.75,-4.99737 3.52789,-4.02785 4.76113,-4.59696 23.86172,-11.01166 22.13906,-7.43514 24.66012,-7.68618 25.16773,-2.50618 0.35399,3.61226 2.57873,2.72776 -22.30929,8.86955 -8.63205,2.1302 -17.85498,5.12256 -21.72504,7.04866 -6.77813,3.37343 -8.7999,3.97382 -8.74512,2.597 z m 105.4613,-2.01531 C 548.93627,185.83061 545.5121,182.125 541.88187,178 c -9.01789,-10.24696 -10.86634,-14 -6.89529,-14 1.298,0 2.45952,1.13191 3.35104,3.26562 1.46836,3.51428 6.4341,8.30264 12.73536,12.28045 4.33902,2.7391 4.6707,3.56739 2.35559,5.8825 -1.74401,1.74401 -2.45082,1.88872 -3.93743,0.80612 z m -40.09144,-1 c -3.10817,-2.07539 -3.53089,-5.17766 -1.91035,-14.01975 2.07066,-11.29802 3.15686,-14.58479 5.52954,-16.73203 1.60304,-1.45074 2.21366,-1.5348 3.48493,-0.47974 1.85667,1.5409 1.20576,4.23899 -2.08213,8.63061 -2.90047,3.87414 -4.91333,14.9429 -3.42788,18.84994 1.63447,4.29898 1.10223,5.55136 -1.59411,3.75097 z m 41.08522,-7.25909 c -1.24829,-2.01977 0.60849,-6.69713 3.11125,-7.83746 3.8619,-1.7596 4.40383,-1.42717 4.40383,2.70134 0,3.14395 -0.46141,4.04972 -2.54705,5 -3.13281,1.42741 -4.1527,1.45535 -4.96803,0.13612 z m -31.80456,-23.01238 c -3.04837,-2.39785 -2.62666,-4.3286 1.30077,-5.95539 3.23857,-1.34146 7.01887,0.0197 7.01887,2.52736 0,1.58447 -3.45455,5.46482 -4.86514,5.46482 -0.47583,0 -2.03035,-0.91655 -3.4545,-2.03679 z M 358.66667,138.33333 c -1.30202,-1.30201 -0.6284,-2.09098 2.2823,-2.67312 4.15669,-0.83134 14.38112,-13.20889 13.5725,-16.43067 -0.87111,-3.47081 1.09258,-6.22954 4.43426,-6.22954 2.39738,0 2.99759,0.51097 3.54894,3.02127 0.58996,2.68605 -0.0171,3.789 -5.47083,9.94056 -3.37393,3.80561 -7.70245,8.29604 -9.61892,9.97873 -3.25066,2.85411 -7.20527,3.93576 -8.74825,2.39277 z M 445,128.86317 c -8.525,-2.15442 -19.06369,-4.24248 -23.41931,-4.64015 -4.35561,-0.39766 -8.08628,-1.22752 -8.29037,-1.84414 -0.74429,-2.24876 8.43619,-3.55721 16.44293,-2.34352 4.10593,0.62239 8.65815,0.85538 10.11604,0.51775 1.62555,-0.37645 2.15382,-0.28091 1.36591,0.24704 -0.7983,0.53491 2.7339,1.29969 9.32828,2.01973 5.83719,0.63736 11.05561,1.43234 11.59648,1.76662 1.87174,1.1568 2.97519,5.56983 1.75909,7.03514 -1.44668,1.74314 -0.59351,1.86767 -18.89905,-2.75847 z m 35.46487,-0.91997 c -0.35923,-0.58125 -0.37697,-2.15724 -0.0394,-3.50218 0.33755,-1.34494 -0.12079,-4.69103 -1.01854,-7.43575 C 477.51255,111.21354 478.16212,105 480.66194,105 c 1.17906,0 1.38916,0.56168 0.84161,2.25 -1.33236,4.10823 -0.72976,6.97528 2.39906,11.41418 1.70357,2.41686 3.09739,4.75269 3.09739,5.19074 0,0.9177 -4.31805,5.14508 -5.25543,5.14508 -0.3446,0 -0.92046,-0.47558 -1.2797,-1.05684 z m 8.00375,-2.4432 c -0.25774,-0.825 -0.67686,-2.16814 -0.93138,-2.98475 -0.57619,-1.84867 2.90934,-3.82567 5.36865,-3.04512 1.00669,0.31951 2.59324,1.42392 3.52568,2.45425 1.60379,1.77218 1.5719,1.95978 -0.59063,3.47447 -2.87841,2.01613 -6.75744,2.06934 -7.37232,0.10115 z m -104.53236,-1.35053 -2.28531,-1.85053 2.24262,-3.14947 c 2.76308,-3.8804 3.43049,-3.90749 6.03834,-0.2451 2.5673,3.60544 2.59246,4.74463 0.13383,6.06045 -2.66531,1.42643 -3.49775,1.31569 -6.12948,-0.81535 z m 30.63118,-4.91536 c -1.21122,-1.21123 -0.42698,-1.95962 3.18866,-3.04289 2.9693,-0.88962 4.63724,-0.82177 7.96265,0.32392 2.3136,0.79711 6.03843,1.74221 8.2774,2.10024 2.23897,0.35802 3.86916,0.85264 3.62265,1.09915 -0.24651,0.24651 -3.83903,-0.0658 -7.98339,-0.694 -5.03483,-0.7632 -8.69082,-0.82313 -11.01786,-0.1806 -1.91547,0.52889 -3.73802,0.70627 -4.05011,0.39418 z M 359.84398,99.763479 c -1.88102,-1.508835 -28.2512,-52.689588 -27.52286,-53.417935 0.74451,-0.74451 8.66216,3.980257 8.67118,5.174425 0.004,0.560983 5.82702,10.178713 12.93953,21.372734 11.28087,17.754415 12.79302,20.624344 11.84457,22.480031 -0.59799,1.169996 -1.38696,2.775482 -1.75327,3.567747 -0.93423,2.020579 -2.34083,2.297579 -4.17915,0.822998 z"
       id="path2997"
       style="fill:#fefefe"
       inkscape:connector-curvature="0" />
    <path
       sodipodi:nodetypes="ssssssscsscssssssscssscssscssscscssscsssssscsssscsscsss"
       d="m 534.13618,232.94117 c -0.15269,-2.869 5.7726,-13.46846 9.08738,-16.25598 2.02693,-1.70452 2.16168,-2.71735 2.21726,-16.66667 0.0326,-8.16853 0.39668,-15.18937 0.80918,-15.60186 0.4125,-0.4125 0.75,-0.24083 0.75,0.38149 0,1.62 3.56612,3.30558 5.45775,2.57969 0.88145,-0.33824 2.20934,-1.77293 2.95086,-3.18819 l 1.34824,-2.57319 0.66779,3.04041 c 0.36728,1.67223 0.20039,5.92103 -0.37087,9.44178 -0.57127,3.52074 -1.04206,8.55468 -1.04622,11.18653 -0.007,4.56935 -0.10346,4.73386 -2.13404,3.64712 -5.78099,-3.09389 -9.56552,4.19816 -8.36792,16.12334 0.77607,7.72778 -0.33596,9.39179 -3.98527,5.96345 -1.88888,-1.77451 -2.71605,-1.98471 -4.35613,-1.10696 -1.11348,0.59592 -2.21966,2.09697 -2.45817,3.33568 -0.3993,2.07378 -0.44444,2.04949 -0.56984,-0.30664 z M 498,169.72032 c 0,-2.85938 -1.7391,-4.713 -4.45,-4.74303 -1.25338,-0.0139 0.42716,-1.35759 4.32468,-3.45785 3.50608,-1.88933 7.10608,-4.07484 8,-4.8567 0.89393,-0.78186 3.17585,-2.20791 5.07094,-3.16899 l 3.44563,-1.74743 -2.69618,3.20423 c -1.4829,1.76232 -2.96852,4.90735 -3.30138,6.98894 -0.7934,4.9616 -1.13978,5.40963 -6.14369,7.9465 L 498,172.04065 Z M 515.67984,162.5 c 1.11925,-1.65 2.28863,-3.675 2.59863,-4.5 0.3962,-1.0544 0.58709,-0.88338 0.64258,0.57569 0.0434,1.14162 -1.12596,3.16662 -2.59862,4.5 L 513.64486,165.5 Z m -51.32755,-30.30127 c 1.65719,-1.86294 1.70474,-2.37806 0.45147,-4.8905 l -1.40082,-2.80823 6.04853,-0.0746 c 3.32669,-0.041 7.05198,-0.61451 8.27841,-1.27442 2.10366,-1.1319 2.19784,-1.03959 1.6638,1.63062 -0.67831,3.39153 1.90076,6.32396 3.8487,4.37602 1.57745,-1.57745 2.81084,-1.4599 2.17122,0.20693 -0.91887,2.39455 -5.67629,3.8425 -14.4136,4.38687 l -8.5,0.52958 z M 371.33964,118.16348 C 369.93527,117.23023 360,102.87941 360,101.78415 c 0,-0.4962 0.47836,-0.60654 1.06301,-0.24521 1.52569,0.94293 4.93631,-2.469904 4.94073,-4.943928 0.003,-1.779404 0.28641,-1.631459 1.88014,0.982064 1.03202,1.692392 4.68655,5.517394 8.12117,8.500004 l 6.24476,5.42292 -3.3749,0.5 c -2.53821,0.37604 -3.76686,1.28429 -4.95588,3.66348 -0.86954,1.73992 -2.03026,2.86492 -2.57939,2.5 z"
       id="path2991"
       style="fill:#0000fe"
       inkscape:connector-curvature="0" />
    <path
       sodipodi:nodetypes="scsssssscccsssssssssssssssssscsssccssssscssssssscssssssssssssscssssssscsssssscssssssssscsssscscssccccssssssssssssccscccsssssssssssscsssssssssscsssssscssssscssssccsccssssccssssssssssccccscscsssscccsscccsccsscsssssscccssssssssssssssssssssscsssssssccsssssssssccscccsscsccsssssssscccssssscccsssssscsssscccccccssccccscc"
       inkscape:connector-curvature="0"
       id="path2989"
       d="m 332.61328,45.572266 c -0.36047,-0.01365 -0.63843,0.0525 -0.80469,0.21875 -0.65691,0.656905 3.99958,10.754921 13.76758,29.851562 14.83793,29.008462 23.21634,42.838302 26.59961,43.912112 1.00354,0.31851 1.82422,0.89394 1.82422,1.27734 0,0.3834 -2.28505,3.52076 -5.07812,6.97266 -3.51538,4.3446 -5.98458,6.45785 -8.02149,6.86523 -3.571,0.7142 -4.47246,1.9341 -2.86328,3.87305 2.79221,3.3644 6.1904,1.73694 14.73242,-7.05859 l 8.26953,-8.51563 2.92188,2.16016 c 2.61003,1.92968 3.25525,2.02471 6.02148,0.8789 5.4392,-2.25299 7.72105,-8.30642 4.85938,-12.88867 -1.53702,-2.46116 -0.47347,-4.92836 2.63281,-6.10937 2.1679,-0.82423 3.60333,-3.00977 1.97656,-3.00977 -1.77376,0 -6.40311,3.27073 -6.91601,4.88672 -0.39961,1.25908 -1.23759,1.74136 -2.4668,1.41992 -1.02464,-0.26795 -2.8375,0.0351 -4.02734,0.67188 -1.93784,1.0371 -2.93513,0.4656 -9.57227,-5.47461 -5.0576,-4.52654 -7.70509,-7.699182 -8.33984,-9.998051 -0.51145,-1.852326 -6.42774,-11.99407 -13.14844,-22.537109 -6.72071,-10.543039 -12.44033,-20.009738 -12.70899,-21.037109 -0.57041,-2.18127 -7.13487,-6.263796 -9.6582,-6.359375 z m -0.0723,0.695312 c 1.48335,-0.09001 8.44273,4.132421 8.45117,5.251953 0.004,0.560983 5.82694,10.179026 12.93945,21.373047 11.28087,17.754415 12.79415,20.624782 11.8457,22.480469 -0.59799,1.169996 -1.38759,2.776094 -1.7539,3.568359 -0.93423,2.020584 -2.34137,2.296844 -4.17969,0.822266 -1.88102,-1.508835 -28.25178,-52.689622 -27.52344,-53.417969 0.0465,-0.04653 0.12182,-0.07212 0.22071,-0.07813 z m 33.71484,49.144531 c 0.25057,0.0057 0.73243,0.693956 1.62891,2.164063 1.03202,1.692392 4.68647,5.517388 8.12109,8.499998 L 382.25,111.5 378.875,112 c -2.53821,0.37604 -3.76606,1.28487 -4.95508,3.66406 -0.86954,1.73992 -2.03095,2.86492 -2.58008,2.5 C 369.93547,117.23081 360,102.87846 360,101.7832 c 0,-0.4962 0.47785,-0.60547 1.0625,-0.24414 1.52569,0.94293 4.93741,-2.469333 4.94141,-4.943357 10e-4,-0.778489 0.0571,-1.187989 0.25195,-1.183594 z M 480.9668,104.0332 c -1.23377,-0.0419 -2.7162,1.49226 -3.36914,4.12696 -0.65261,2.6333 -0.47892,4.91826 0.625,8.27148 1.39023,4.22299 1.38021,4.70686 -0.0996,5.46875 -3.35684,1.72828 -8.91805,2.06947 -17.13867,1.05078 -8.84017,-1.09546 -32.63131,-6.23204 -37.00586,-7.99023 -3.06233,-1.23079 -10.46496,0.98322 -10.50586,3.14258 -0.0145,0.76814 -0.39063,1.97786 -0.83594,2.68945 -1.5603,2.4933 1.31625,3.91812 9.11719,4.51367 4.26025,0.32524 15.39609,2.59882 24.74609,5.05274 14.55977,3.82123 18.15678,4.42056 25.0625,4.17382 9.29859,-0.33223 14.08589,-2.2806 15.05078,-6.125 0.45668,-1.81956 0.94861,-2.24475 1.71289,-1.48047 3.16321,3.16321 11.67383,-2.09846 11.67383,-7.21679 0,-3.45189 -3.73863,-7.89159 -6.32812,-7.51563 -1.16897,0.16972 -3.08778,-0.69093 -4.3379,-1.94531 -1.2333,-1.2375 -3.11102,-2.25 -4.17187,-2.25 -1.11462,0 -2.15924,-0.88189 -2.47461,-2.08789 -0.33006,-1.26215 -0.98044,-1.85375 -1.72071,-1.87891 z M 480.66211,105 c 1.17906,0 1.38935,0.56168 0.8418,2.25 -1.33236,4.10823 -0.73039,6.97516 2.39843,11.41406 1.70357,2.41686 3.09766,4.75336 3.09766,5.19141 0,0.43805 -1.0415,1.77482 -2.31445,2.9707 -1.27295,1.19587 -2.59682,2.17383 -2.94141,2.17383 -1.28061,0 -1.91321,-2.18853 -1.31836,-4.55859 0.33755,-1.34494 -0.12178,-4.69083 -1.01953,-7.43555 C 477.51188,111.21417 478.16229,105 480.66211,105 Z m 2.12305,3.29492 c 0.11025,0.003 0.17733,0.11979 0.18359,0.35742 0.0167,0.6337 1.38125,1.62207 3.03125,2.19727 1.65,0.57519 3,1.6956 3,2.48828 0,0.79268 -0.80718,2.4369 -1.79297,3.6543 -1.49386,1.84484 -1.98306,1.98284 -2.94141,0.82812 -2.18986,-2.63864 -3.32266,-6.89919 -2.30078,-8.65039 0.33514,-0.57433 0.63656,-0.88057 0.82032,-0.875 z M 378.95508,113 c 2.39738,0 2.99748,0.51118 3.54883,3.02148 0.58996,2.68605 -0.0169,3.7879 -5.47071,9.93946 -3.37393,3.80561 -7.70267,8.29778 -9.61914,9.98047 -3.25066,2.85411 -7.20506,3.93556 -8.74804,2.39257 -1.30202,-1.30201 -0.6275,-2.09168 2.2832,-2.67382 4.15669,-0.83134 14.38088,-13.20791 13.57226,-16.42969 C 373.65037,115.75966 375.6134,113 378.95508,113 Z m 42.34375,2.7793 c 1.50491,0.0362 3.04964,0.26423 4.41992,0.73632 2.3136,0.79711 6.03837,1.74158 8.27734,2.09961 2.23897,0.35802 3.86956,0.8531 3.62305,1.09961 -0.24651,0.24651 -3.84001,-0.0651 -7.98437,-0.69336 -5.03483,-0.7632 -8.69054,-0.82417 -11.01758,-0.18164 -1.91547,0.52889 -3.73674,0.70662 -4.04883,0.39454 -1.9445,-1.94451 2.21572,-3.56359 6.73047,-3.45508 z m -34.32813,0.41992 c 0.83822,-0.034 1.65702,0.87388 2.96094,2.70508 2.5673,3.60544 2.5934,4.74472 0.13477,6.06054 -2.66531,1.42643 -3.49913,1.31659 -6.13086,-0.81445 l -2.28516,-1.85156 2.24414,-3.14844 c 1.38154,-1.9402 2.23795,-2.91715 3.07617,-2.95117 z m 104.97461,3.10156 c 0.32955,0.017 0.65353,0.0724 0.96094,0.16992 1.00669,0.31951 2.59295,1.4228 3.52539,2.45313 1.60379,1.77218 1.57269,1.95992 -0.58984,3.47461 -2.87841,2.01613 -6.75817,2.06975 -7.37305,0.10156 -0.25774,-0.825 -0.67712,-2.16777 -0.93164,-2.98438 -0.50417,-1.61758 2.10138,-3.33406 4.4082,-3.21484 z m -68.26367,0.27344 c 1.97499,0.0129 4.0491,0.15751 6.05078,0.46094 4.10593,0.62239 8.6593,0.8552 10.11719,0.51757 1.62555,-0.37645 2.15314,-0.2799 1.36523,0.24805 -0.7983,0.53491 2.73375,1.29949 9.32813,2.01953 5.83719,0.63736 11.05679,1.43135 11.59765,1.76563 1.9526,1.20677 2.96307,5.57543 1.68555,7.28515 -1.0827,1.44904 -1.01584,1.44617 0.59961,-0.0273 1.63169,-1.48831 1.67162,-1.94374 0.39649,-4.5 l -1.41993,-2.84375 6.04883,-0.0742 c 3.32669,-0.041 7.05287,-0.61548 8.2793,-1.27539 2.10366,-1.1319 2.1981,-1.03935 1.66406,1.63086 -0.67831,3.39153 1.89972,6.32489 3.84766,4.37695 1.57745,-1.57745 2.81149,-1.4598 2.17187,0.20703 -0.28799,0.7505 -1.73651,1.92388 -3.21875,2.60938 -1.48225,0.6855 -6.29531,1.38215 -10.69531,1.54687 -6.84502,0.25625 -10.45434,-0.3422 -25,-4.14843 -9.35,-2.44666 -20.5643,-4.77054 -24.91992,-5.16211 -4.35561,-0.39157 -8.08497,-1.21541 -8.28906,-1.83203 -0.55822,-1.68654 4.46566,-2.8433 10.39062,-2.80469 z m 85.01758,18.69336 c -0.18805,-0.004 -0.33923,0.0404 -0.43945,0.14062 -1.32706,1.32705 4.08614,4.63596 6.61718,4.04492 1.97794,-0.46187 2.2594,-0.2527 1.67969,1.2461 -0.38308,0.99044 -0.94411,3.02525 -1.24609,4.52148 -0.30198,1.49622 -1.38239,2.98488 -2.40235,3.3086 -1.01995,0.32372 -4.00381,2.05038 -6.63086,3.83593 -9.7125,6.60137 -18.22977,10.46181 -36.49414,16.54493 -18.55477,6.17984 -18.75372,6.27691 -22.82422,11.13867 -2.25839,2.69739 -3.82054,5.36484 -3.47265,5.92773 0.96424,1.56017 2.01522,1.29743 9.28906,-2.32617 C 456.9335,184.57895 466.1797,181.65803 477,179 c 9.625,-2.3644 20.13341,-5.61084 23.35156,-7.21484 3.21816,-1.604 5.99403,-2.77355 6.16797,-2.59961 0.17395,0.17394 -0.10514,2.56488 -0.61914,5.31445 -1.06423,5.6929 0.15128,9.9223 3.34375,11.63086 2.98626,1.59819 4.20939,-0.22693 2.87305,-4.28906 -0.748,-2.27374 -0.80097,-5.17455 -0.16407,-9.07422 0.77111,-4.72134 1.56368,-6.28225 4.49219,-8.85352 1.95546,-1.71691 3.55469,-4.00069 3.55469,-5.07617 0,-1.07548 0.43989,-1.68446 0.97852,-1.35156 2.48461,1.53557 9.02148,-6.26864 9.02148,-10.77149 0,-4.13621 -12.38671,-9.2172 -15.76953,-6.46875 -0.90574,0.7359 -1.8371,0.51442 -3.25586,-0.76953 -0.81979,-0.74191 -1.71124,-1.19638 -2.27539,-1.20898 z m 13.95508,10.07226 c 0.77414,-0.009 1.47882,0.19548 2.25586,0.61133 2.62994,1.40752 2.66014,3.47853 0.0898,6.04883 -2.49494,2.49493 -3.10626,2.49106 -6.32031,-0.0371 -3.04837,-2.39785 -2.62665,-4.32829 1.30078,-5.95508 1.05455,-0.43682 1.89969,-0.65911 2.67383,-0.66797 z m -9.10157,4.26758 c 0.72753,-0.005 1.35278,0.33929 2.33789,1.0293 2.55384,1.78876 2.17145,4.13391 -1.46874,8.99609 -3.04232,4.06361 -4.87571,14.76513 -3.30274,19.27735 0.61184,1.75512 0.89854,3.40418 0.63867,3.66406 -1.03425,1.03425 -3.63781,-0.86837 -4.70117,-3.43555 -1.54851,-3.73845 2.02534,-22.38046 5.10547,-26.63281 2.16956,-2.99517 2.16973,-2.99933 0.0449,-1.13477 -2.00389,1.75845 -3.28642,4.74284 -4.58203,10.66211 -0.38561,1.76175 -1.93624,3.20614 -5.08984,4.73828 L 498,171.97461 l 0,-2.28711 c 0,-2.87171 -1.78896,-4.71724 -4.44922,-4.58789 -1.71482,0.0834 -1.64202,0.2122 0.44922,0.78906 1.88855,0.52095 2.57495,1.46144 2.80859,3.84571 0.35399,3.61226 2.57943,2.72735 -22.30859,8.86914 -8.63205,2.1302 -17.85455,5.12272 -21.72461,7.04882 -9.94839,4.95124 -10.76374,4.61023 -5.20312,-2.17578 3.44269,-4.20135 4.24844,-4.58327 22.25,-10.57422 16.56953,-5.51437 31.47657,-12.25159 36.17773,-16.35156 0.82545,-0.71989 2.89606,-2.01586 4.60156,-2.8789 1.39519,-0.70603 2.22365,-1.05956 2.95117,-1.06446 z m 5.08789,4.72656 c 0.15753,-0.0791 0.24657,0.33027 0.28126,1.24219 0.0434,1.14162 -1.12695,3.16662 -2.59961,4.5 l -2.67774,2.42383 2.03516,-3 c 1.11925,-1.65 2.28961,-3.675 2.59961,-4.5 0.14857,-0.3954 0.26681,-0.61857 0.36132,-0.66602 z m 16.1836,5.70508 c -1.08084,0.0977 -2.12356,0.57996 -2.43164,1.38282 -0.75977,1.97994 1.07273,5.10134 7.0957,12.07812 l 5.17969,6 -0.14453,15.5 -0.14649,15.5 -3.82226,5 c -5.35467,7.00432 -7.96733,12.7188 -7.20508,15.75586 0.34545,1.37638 3.11076,5.96297 6.14453,10.19141 l 5.51563,7.6875 -4.11524,6.92578 c -2.26929,3.81977 -3.85414,7.60039 -3.53515,8.43164 C 537.87272,268.82997 524.23109,269 415.96875,269 l -106.08594,0 -0.0781,0.54492 c 154.60039,-0.004 274.29298,-0.12552 266.76954,-0.29297 -12.5245,-0.27882 -14.06531,-0.50899 -15.30664,-2.28125 C 560.50845,265.88685 558.7872,265 557.44339,265 c -2.43123,0 -2.44334,-0.0481 -2.33789,-9.75 0.19171,-17.63977 1.29631,-30.26513 2.72461,-31.14648 0.73166,-0.45149 5.23134,-1.11993 9.99804,-1.48633 6.69207,-0.51439 9.11464,-1.11659 10.63672,-2.63867 1.8546,-1.8546 1.87153,-2.07184 0.27344,-3.66993 -1.59708,-1.59711 -1.91066,-1.59725 -5.25195,-0.004 -3.7362,1.78167 -8.29939,2.0362 -12.48633,0.69531 l -2.5,-0.80078 2.55078,-0.0996 C 564.83844,215.95155 566,214.16709 566,208.5 c 0,-5.97917 -1.17178,-7.5 -5.7793,-7.5 -3.1513,0 -3.34291,-0.18566 -2.83789,-2.75 2.0053,-10.18238 1.46285,-16.49242 -1.58008,-18.37305 -0.6535,-0.40388 -0.23841,-1.10845 1.0625,-1.80468 1.77111,-0.94786 2.13477,-2.05278 2.13477,-6.48438 0,-6.57974 -1.32008,-7.86466 -7.7168,-7.51367 -2.63107,0.14437 -5.60008,-0.0974 -6.59765,-0.53711 -1.02162,-0.45034 -2.86077,-0.32309 -4.21289,0.29297 -1.51049,0.68823 -2.62187,0.73832 -2.9961,0.13281 -0.45364,-0.73401 -1.5715,-1.02151 -2.65234,-0.92383 z M 534.98633,164 c 1.298,0 2.46004,1.13192 3.35156,3.26562 1.46836,3.51428 6.43312,8.30344 12.73438,12.28126 4.33902,2.73909 4.67057,3.56574 2.35546,5.88085 -2.6479,2.6479 -2.71748,2.60283 -11.54492,-7.42773 -9.01789,-10.24696 -10.86753,-14 -6.89648,-14 z m 7.52929,2.10742 c 1.86584,-0.0699 2.99398,1.65502 3.03321,4.88477 0.0268,2.20465 -0.0392,4.00781 -0.14649,4.00781 -0.10733,0 -1.63855,-1.6435 -3.40234,-3.65234 -2.79039,-3.17808 -2.99661,-3.77001 -1.58398,-4.56055 0.77291,-0.43255 1.47766,-0.65637 2.0996,-0.67969 z m 14.17188,3.02344 c 1.10162,0.0307 1.3125,1.12866 1.3125,3.70898 0,3.14395 -0.46123,4.04972 -2.54688,5 -1.40087,0.63829 -2.94973,1.16016 -3.4414,1.16016 -3.25253,0 -1.95697,-7.24797 1.58398,-8.86133 1.44822,-0.65985 2.43083,-1.02621 3.0918,-1.00781 z m 0.0703,12.48633 0.66602,3.03906 c 0.36728,1.67223 0.20212,5.92261 -0.36914,9.44336 -0.57127,3.52074 -1.04288,8.5537 -1.04688,11.18555 -0.007,4.42015 -0.15469,4.70622 -1.9414,3.75 -1.06384,-0.56935 -2.41384,-1.03516 -3,-1.03516 -1.92164,0 -5.06867,3.95186 -4.97657,6.25 0.0706,1.7624 0.28957,1.56038 1.01172,-0.93555 1.05234,-3.63717 3.83933,-4.95188 6.96094,-3.28125 2.10338,1.1257 2.12604,1.40578 1.28906,16.80664 -0.4681,8.61339 -0.85156,20.82987 -0.85156,27.14844 l 0,11.48828 2.91797,0.51172 c 1.60463,0.28143 3.10332,1.07422 3.33203,1.76172 0.30349,0.91232 -1.29362,1.24905 -5.91602,1.24805 l -6.33398,-0.002 -0.23242,-12.74804 C 548.14009,249.23658 547.53434,238.1 546.92188,231.5 c -1.40951,-15.18901 -1.91908,-44.89784 -0.80079,-46.66211 0.59993,-0.94649 0.85248,-0.98243 0.86329,-0.12305 0.0213,1.69236 3.54001,3.40373 5.47265,2.66211 0.88145,-0.33824 2.20965,-1.77224 2.95117,-3.1875 z M 563.63477,207 c 1.76159,0 1.86847,6.90714 0.11523,7.44727 -5.67919,1.74961 -6.75,1.61454 -6.75,-0.85547 0,-2.51832 4.09993,-6.5918 6.63477,-6.5918 z m -19.79493,9 c 0.48613,0 1.19515,3.4397 1.57618,7.64453 0.8169,9.01476 -0.14459,10.89919 -3.8086,7.45703 -2.00237,-1.88114 -2.77995,-2.0802 -4.51367,-1.15234 -1.24977,0.66885 -2.03833,2.01429 -1.95703,3.33594 l 0.13476,2.21484 0.42383,-2.16602 c 0.79101,-4.05618 3.53102,-3.79965 7.41992,0.69336 3.61335,4.17465 3.61505,4.18148 4.14649,15.82422 0.44282,9.70135 0.26914,11.94468 -1.04102,13.42188 -1.20594,1.3597 -1.29831,2.04739 -0.39648,2.94922 0.647,0.647 1.17578,1.53656 1.17578,1.97656 0,1.53413 -8.03284,0.87684 -8.64062,-0.70703 -0.31899,-0.83125 1.26586,-4.61187 3.53515,-8.43164 l 4.11524,-6.92578 -5.51563,-7.6875 c -5.82292,-8.11593 -7.06996,-11.05809 -6.04883,-14.27539 C 535.3805,227.22536 542.82173,216 543.83984,216 Z m 33.14454,0.28711 c 0.51246,0.0203 0.8948,0.19168 1.20703,0.50391 2.29625,2.29625 -1.03242,4.0273 -8.99805,4.67968 -4.23171,0.34658 -8.70586,0.83972 -9.94336,1.09766 -1.95351,0.40718 -2.25,0.0579 -2.25,-2.65625 0,-2.53475 0.32275,-3.00311 1.70508,-2.47266 4.61922,1.77256 10.46747,1.78645 14.35547,0.0332 1.85392,-0.836 3.06972,-1.2194 3.92383,-1.18555 z m -31.61915,17.05859 c 0.091,0.0138 0.19866,0.16765 0.31836,0.4668 0.28891,0.72187 0.25222,1.58372 -0.0801,1.91602 -0.33229,0.33229 -0.5688,-0.25834 -0.5254,-1.3125 0.03,-0.7281 0.13554,-1.09327 0.28711,-1.07032 z m 2.16993,30.05274 c 0.10158,-0.0242 0.19451,-0.003 0.27148,0.0742 0.30789,0.30789 0.002,1.11658 -0.68164,1.79492 -0.98762,0.98026 -1.10323,0.86465 -0.56055,-0.56055 0.28165,-0.73966 0.66595,-1.23616 0.97071,-1.30859 z"
       style="fill:#000000" />
    <path
       id="path2997-2"
       d="m 42.101359,30.98535 c -2.317082,0 -1.098956,2.08746 6.566406,11.24024 4.265618,5.09334 9.097348,11.28476 10.736328,13.75976 5.003702,7.55601 8.908637,12.19519 11.007813,13.07422 3.799492,1.59104 6,0.67606 6,-2.49219 0,-2.3804 -2.484402,-5.52001 -13.5,-17.0625 C 49.643598,35.60193 44.456723,30.98535 42.101359,30.98535 Z m 235.277351,32 c -2.22089,0 -1.84522,0.83939 2.86914,6.39258 2.38495,2.80929 8.57245,13.31105 13.75,23.33789 7.2462,14.03298 9.98969,18.44551 11.91406,19.16602 3.76083,1.4081 4.5053,0.80851 4.44141,-3.57618 -0.0494,-3.38878 -1.96594,-6.92034 -12.5,-23.03906 C 285.56776,66.46783 282.36865,62.98535 277.37871,62.98535 Z m -56.74805,19.0586 c -0.0907,0.0181 -0.16865,0.0593 -0.23438,0.125 -0.28859,0.28859 1.24727,7.22717 3.41407,15.41992 3.90316,14.75797 7.10156,32.07105 7.10156,38.4375 0,1.81606 0.746,4.12505 1.65625,5.13086 2.14116,2.36596 3.20816,2.30461 6.0293,-0.34571 2.82771,-2.6565 2.93731,-5.98675 0.44531,-13.60742 -1.02849,-3.14515 -3.75449,-11.79375 -6.05664,-19.21875 -2.30215,-7.425 -4.84609,-15.34498 -5.6543,-17.59961 -1.34197,-3.74364 -5.34025,-8.61405 -6.70117,-8.34179 z M 90.333781,89.28613 c -2.152762,0.11623 -3.657673,2.95036 -2.433594,6.16993 0.578798,1.52235 0.571964,5.5959 -0.01953,10.74023 -1.485809,12.92233 -1.39014,13.78906 1.53125,13.78906 1.375,0 2.5,0.45 2.5,1 0,0.55 0.225,1 0.5,1 0.275,0 0.5,-0.675 0.5,-1.5 0,-0.825 -0.648866,-1.5 -1.441407,-1.5 -2.411069,0 -2.448613,-1.13647 -0.394531,-11.50586 3.12614,-15.7813 3.145332,-15.99304 1.550781,-17.3164 -0.784686,-0.65123 -1.575381,-0.9157 -2.292968,-0.87696 z m 6.578125,2.69922 c -2.045518,0 -2.61745,2.22601 -1.392578,5.41797 0.81873,2.1336 7.392582,2.20656 7.392582,0.082 0,-2.15303 -3.651244,-5.5 -6.000004,-5.5 z M 141.908,94.18262 c -0.59431,0.067 -1.5404,0.55011 -3.04492,1.32812 -2.81185,1.45406 -4.02349,5.06832 -2.2832,6.8086 0.83002,0.83005 2.68185,0.85221 4.75,0.0586 1.06756,-0.40966 1.58203,-1.87257 1.58203,-4.5 0,-2.76253 -0.0134,-3.80691 -1.00391,-3.69531 z m -4.01562,9.95312 c -1.55565,-0.0561 -2.48047,0.88947 -2.48047,2.84766 0,2.7674 0.29901,2.95019 17,10.35742 11.14683,4.94384 11.5,5.05518 11.5,3.64453 0,-0.55 1.0125,-1.03126 2.25,-1.06836 1.24024,-0.0372 0.20473,-0.6191 -2.30859,-1.29687 -5.04965,-1.36172 -13.18251,-6.03762 -19.69336,-11.32227 -2.52468,-2.04921 -4.71194,-3.10602 -6.26758,-3.16211 z m 84.09179,15.15625 c -0.16408,0.003 -0.40308,0.0172 -0.71875,0.0449 -1.77689,0.15613 -1.79557,0.20197 -9.30859,24.68945 -3.40998,11.11426 -3.96836,14.02667 -3.12305,16.25 0.56644,1.48985 1.6641,2.70898 2.43946,2.70898 1.83581,0 4.76976,-4.49769 4.08984,-6.26953 -0.29001,-0.75577 0.65702,-7.64218 2.10547,-15.30273 1.44845,-7.66055 2.59553,-15.58224 2.54883,-17.60547 -0.0569,-2.4613 0.41377,-3.83423 1.42383,-4.14844 0.84755,-0.26362 1.0352,-0.37478 0.54296,-0.36719 z m 63.67969,6.69336 c -2.34174,0 0.10922,2.27905 6.49805,6.04297 3.9875,2.3492 9.46855,6.01753 12.17969,8.15234 2.71114,2.13482 5.63614,3.74947 6.5,3.58594 1.97892,-0.37463 2.60806,-5.09165 0.87109,-6.5332 -1.38258,-1.14745 -24.77436,-11.24805 -26.04883,-11.24805 z m -143.375,5.06641 c -0.57474,-0.0358 -1.03417,0.093 -1.5039,0.33203 -1.18985,0.60557 -2.53448,2.11297 -2.98633,3.34961 -0.93651,2.56307 -1.90138,1.79261 14.61328,11.66992 6.04999,3.61846 11.3375,6.57924 11.75,6.58008 0.4125,8.3e-4 0.74187,-1.91055 0.73047,-4.24805 l -0.0215,-4.25 -10.96093,-7.10156 c -7.14034,-4.62563 -9.89687,-6.22452 -11.6211,-6.33203 z m 165.62305,14.11914 c -0.44189,0.0402 -0.8168,0.50996 -1.45313,1.35156 -1.77612,2.34908 -1.86434,3.49524 -0.54296,6.9707 1.24064,3.26316 3.54648,2.96182 5.79492,-0.75585 1.61243,-2.66607 1.58171,-2.82649 -1.05274,-5.46094 -1.49718,-1.49719 -2.17794,-2.1572 -2.74609,-2.10547 z m -139.47852,1.81445 c -0.28679,0 -0.52148,1.76453 -0.52148,3.92188 0,4.08671 0.75906,4.65801 8.5,6.39648 3.5206,0.79065 6.95761,0.67761 8.4707,-0.27929 1.80503,-1.14154 1.63496,-1.28879 -3.9707,-3.44141 -2.475,-0.95042 -6.17781,-2.82309 -8.22852,-4.16211 -2.05071,-1.33902 -3.96321,-2.43555 -4.25,-2.43555 z m 37.63282,12.00391 c -1.79992,-0.052 -4.47291,0.531 -5.93165,1.55273 -2.67451,1.8733 -2.83371,3.13691 -0.47265,3.75391 0.9625,0.25153 2.171,0.51042 2.68555,0.57422 1.12771,0.13983 5.56445,-3.89364 5.56445,-5.0586 0,-0.53077 -0.76576,-0.79107 -1.8457,-0.82226 z"
       style="fill:#fefefe"
       inkscape:connector-curvature="0" />
    <path
       sodipodi:nodetypes="ssssssscssccssssssssssss"
       style="fill:#fe0000"
       id="path2993-8"
       d="m 204.91242,183.33293 c -3.80503,-0.57849 -10.38487,-2.59547 -11.43333,-3.50477 -1.89014,-1.63927 0.23844,-1.82283 4.34328,-0.37456 2.32206,0.81927 7.05942,1.78029 10.52746,2.1356 5.29319,0.54231 7.60128,0.2145 14.37634,-2.0418 8.12127,-2.70463 18.05683,-8.41492 21.59124,-12.40919 1.6835,-1.90253 1.71256,-2.15284 0.25,-2.15284 -0.91025,0 -1.65128,-0.3375 -1.64674,-0.75 0.0103,-0.9379 8.15378,-5.42131 8.75499,-4.82009 0.24229,0.24229 -0.31648,2.71968 -1.24172,5.50531 -1.66178,5.00314 -3.4929,6.712 -3.55193,3.31478 -0.0283,-1.62661 -0.0999,-1.63083 -1.01614,-0.06 -0.54215,0.92953 -3.02672,3.0675 -5.52127,4.75105 -12.86029,8.67935 -24.43404,12.07857 -35.43218,10.40651 z m 118.58891,-59.15746 c 0.16086,-0.60035 1.27174,-0.8342 2.46861,-0.51966 4.01503,1.05512 12.1254,0.2609 17.30513,-1.69469 6.10258,-2.30401 9.70312,-5.12289 8.11909,-6.3565 -1.06203,-0.82709 6.36889,-5.15947 8.06844,-4.70407 0.46521,0.12465 0.0457,1.99219 -0.93235,4.1501 -1.91946,4.23514 -2.98528,5.36623 -3.1515,3.34449 -0.0605,-0.73556 -2.84991,0.31055 -6.59751,2.47423 -3.571,2.06172 -8.81113,4.19215 -11.64472,4.73429 -5.90328,1.12944 -14.09072,0.27187 -13.63519,-1.42819 z"
       inkscape:connector-curvature="0" />
    <path
       sodipodi:nodetypes="ssscccccsssssscssscscssssssssssssssssssscssssss"
       style="fill:#0000fe"
       id="path2991-9"
       d="m 214.70151,161.28157 c 1.24329,-1.74604 1.83803,-3.79596 1.54542,-5.32666 -0.34166,-1.78727 0.26214,-3.18143 2.14315,-4.94856 l 2.61883,-2.46025 -0.29825,7.46963 -0.29824,7.46964 -3.866,0.31728 -3.866,0.31728 z m 9.21091,-6.56485 c 0,-7.06579 0.12948,-7.46452 3.47803,-10.71005 3.2872,-3.18609 3.57957,-3.27915 5.32874,-1.69617 2.32826,2.10705 3.06736,2.09691 5.47791,-0.0751 1.91556,-1.72603 1.91936,-1.69522 0.2774,2.25 -2.715,6.52347 -8.82827,14.50172 -12.69922,16.5734 -1.73849,0.93038 -1.86286,0.50696 -1.86286,-6.34208 z m 89.48713,-15.98135 c -0.54292,-1.2375 -2.88087,-3.20626 -5.19543,-4.37503 -2.31457,-1.16876 -4.06175,-2.29376 -3.88262,-2.5 0.17913,-0.20623 -0.005,-4.64997 -0.40908,-9.87497 -0.40413,-5.225 -0.63186,-9.62509 -0.50608,-9.77798 0.12579,-0.15289 1.47085,0.19429 2.98903,0.7715 3.64606,1.38623 5.87231,-0.33557 5.0676,-3.91932 -0.42613,-1.89775 -0.32694,-2.16502 0.37748,-1.01705 0.52552,0.85643 1.90181,6.20077 3.05841,11.87631 1.77879,8.72866 1.93097,11.14742 0.98734,15.69285 -0.61357,2.95553 -1.20196,5.37369 -1.30755,5.37369 -0.10558,0 -0.63618,-1.0125 -1.1791,-2.25 z m -178.75701,-7.11443 c -2.59178,-6.30666 -3.03481,-9.89157 -2.25322,-18.23235 0.63168,-6.74099 0.85383,-7.3666 1.87329,-5.27558 0.63614,1.3048 2.97146,3.2905 5.1896,4.41267 3.98228,2.01465 4.02231,2.09009 3.1843,6 -0.46677,2.17783 -0.60663,5.54521 -0.3108,7.48308 0.45074,2.95264 0.18023,3.68158 -1.66996,4.5 -1.2143,0.53713 -2.68164,1.93762 -3.26074,3.11218 -0.98606,1.99996 -1.16085,1.87295 -2.75247,-2 z M 83.561637,91.73537 c -1.348911,-1.7875 -3.187393,-5.02975 -4.085515,-7.20499 -0.898121,-2.17524 -3.39529,-6.2892 -5.549264,-9.14211 l -3.916315,-5.18712 3.193128,0.14211 c 2.370545,0.1055 3.434341,-0.40246 4.129478,-1.97182 0.878231,-1.98271 1.189069,-1.8053 5.007811,2.85824 8.976613,10.96247 13.081571,18.65614 9.14878,17.14699 -1.847789,-0.70907 -5.895086,3.33823 -5.186023,5.18602 0.888626,2.31572 -0.125671,1.63979 -2.74208,-1.82732 z"
       inkscape:connector-curvature="0" />
    <path
       id="path2989-2"
       d="m 41.917765,30.35645 c -1.194125,-0.0315 -2.005859,0.49501 -2.005859,1.58789 0,0.56142 3.490241,5.18792 7.755859,10.28125 4.265618,5.09334 9.103118,11.27734 10.75,13.74218 1.646882,2.46483 6.328415,8.76483 10.402344,14 4.073928,5.23516 8.449043,11.86502 9.722656,14.73438 1.273613,2.86935 3.879241,6.94834 5.791016,9.06445 l 3.476562,3.84766 -1.070312,10.17773 c -0.778456,7.40879 -0.764974,11.38926 0.05078,14.62891 0.749452,2.97635 1.121094,20.20603 1.121094,52.01953 l 0,47.57031 -34.199219,-0.26172 -34.199219,-0.26367 -3.716797,-17.3789 c -2.265053,-10.59264 -3.503243,-18.69597 -3.169922,-20.75 0.510416,-3.14532 0.362616,-3.3711 -2.214843,-3.3711 -3.26935,0 -3.566734,-2.82956 2.996093,28.5 2.534674,12.1 6.18198,29.875 8.105469,39.5 1.923488,9.625 3.726022,18.27394 4.00586,19.22071 0.46107,1.55993 -0.785795,1.751 -13.298829,2.03125 -7.594571,0.17008 137.391412,0.31145 322.191412,0.31445 13.54276,2.2e-4 24.8966,-0.007 37.97851,-0.008 12.40738,0 0,-0.53126 0,-0.53126 l -87.47851,-0.0273 0,-69.5 c 0,-48.90604 0.31959,-69.5 1.07617,-69.5 1.54864,0 13.81047,7.42056 17.88281,10.82227 3.45364,2.8849 3.45717,2.89381 1.68555,5.59765 -2.47299,3.77426 -1.35723,8.1738 2.70117,10.64844 1.73501,1.05795 4.0822,1.92574 5.2168,1.92774 2.61091,0.005 7.1632,-4.73524 7.60351,-7.91797 0.52348,-3.78391 2.52247,-3.55121 3.25977,0.3789 0.36562,1.94894 1.11602,3.54297 1.66602,3.54297 1.36446,0 0.0412,-7.11174 -1.65821,-8.91406 -1.13716,-1.20596 -1.57906,-1.21019 -3.00195,-0.0293 -1.46486,1.21573 -1.96117,1.0222 -4.08008,-1.58593 -1.32736,-1.63382 -2.96271,-4.09571 -3.63281,-5.47071 -0.6701,-1.375 -3.01875,-3.41251 -5.21875,-4.52734 l -4,-2.02735 -0.29688,-7.47265 c -0.16398,-4.11017 -0.54732,-8.75502 -0.85156,-10.32227 -0.50884,-2.62122 -0.36604,-2.78896 1.79688,-2.09961 4.05815,1.29341 5.19754,1.02263 6.52929,-1.55078 0.71156,-1.375 1.3006,-2.11986 1.3086,-1.65625 0.008,0.4636 0.93691,5.36938 2.06445,10.90235 1.69047,8.29523 1.86151,10.93553 0.97852,15.05273 -0.58894,2.74619 -0.87508,5.18742 -0.63672,5.42578 0.23836,0.23836 0.94183,-2.02039 1.56445,-5.01953 0.96329,-4.64012 0.81953,-6.99859 -0.9707,-15.82812 -2.4244,-11.95724 -3.48136,-14.03967 -19.08008,-37.58985 -10.85924,-16.39475 -14.38173,-20.1292 -19.09766,-20.24609 -3.34278,-0.0829 -2.90409,2.13282 1.43555,7.25195 2.42805,2.86417 8.54926,13.15157 13.60156,22.86133 l 9.18555,17.6543 0.86523,10.8457 c 0.47565,5.96524 0.73578,10.99027 0.57813,11.16797 -0.15765,0.1777 -4.15439,-1.33672 -8.88086,-3.36719 -7.44541,-3.19851 -8.59375,-4.0199 -8.59375,-6.14062 0,-2.08033 -0.41281,-2.39979 -2.75,-2.13086 -2.3875,0.27471 -2.79109,0.81072 -3.06055,4.0664 -0.17966,2.17079 0.13618,3.75 0.75,3.75 0.73212,0 1.06055,14.54957 1.06055,47 l 0,47 -10.5,0 c -6.33333,0 -10.5,0.39683 -10.5,1 0,0.60317 4.16667,1 10.5,1 l 10.5,0 0,22.5 0,22.5 -29,0 -29,0 0,-43.96875 c 0,-38.67237 -0.18068,-43.89885 -1.5,-43.39258 -1.26377,0.48496 -1.5,3.70856 -1.5,20.46875 l 0,19.89258 -10.5,0 c -6.33333,0 -10.5,0.39683 -10.5,1 0,0.60317 4.16667,1 10.5,1 l 10.5,0 0,22.5 0,22.5 -26.5,0 -26.5,0 0,-56.60742 c 0,-53.5044 0.0959,-56.57 1.75,-55.92578 5.01448,1.95302 12.41057,2.78159 14.86328,1.66406 3.51551,-1.60177 2.6484,-3.06701 -3.1582,-5.33984 -2.72522,-1.06671 -6.90627,-3.14379 -9.29102,-4.61524 l -4.33594,-2.67578 0.33594,-13.38672 0.33594,-13.38671 -4.55859,-1.16016 c -4.76658,-1.21347 -12.74687,-5.70524 -19.28516,-10.85547 -3.20876,-2.52755 -3.58028,-3.17351 -2.25,-3.91797 1.11235,-0.6225 1.59375,-2.33984 1.59375,-5.6875 0,-6.24915 -2.2399,-8.48291 -7.95899,-7.9375 -4.35903,0.4157 -4.99197,-0.95342 -1.22656,-2.6543 1.20192,-0.54292 2.18555,-1.33042 2.18555,-1.75 0,-1.41585 -2.71274,-0.7759 -5.2832,1.2461 -2.16245,1.70096 -2.50864,2.68618 -2.25587,6.43554 0.1642,2.43547 1.29685,6.04437 2.51758,8.01954 1.83182,2.96395 1.99874,3.85844 0.94922,5.12304 -0.83709,1.00863 -1.28946,5.01519 -1.32226,11.72266 -0.0419,8.56548 0.30811,10.93795 2.19531,14.88476 2.70572,5.65865 3.62822,6.40053 19.01758,15.30469 l 12.09765,7 0.043,33.75 0.041,33.75 -10.5,0 c -6.33333,0 -10.5,0.39683 -10.5,1 0,0.60317 4.16667,1 10.5,1 l 10.5,0 0,22.5 0,22.5 -37.00001,0 -36.999995,0 0,-71.77734 c 0,-63.97415 0.173423,-72.02466 1.589843,-74.04688 1.794095,-2.56143 1.250812,-5.17578 -1.076171,-5.17578 -1.083329,0 -1.407434,-0.67788 -1.072266,-2.25 0.263829,-1.2375 0.965294,-4.95 1.558594,-8.25 1.990126,-11.0693 2.033231,-11.19419 3.128906,-9.23633 1.15686,2.0672 9.746209,2.46278 11.671879,0.53711 1.69521,-1.69521 1.48925,-6.4378 -0.44141,-10.14648 -0.90314,-1.73486 -1.96757,-3.8293 -2.36524,-4.6543 -0.39768,-0.825 -1.64308,-1.5 -2.76757,-1.5 -1.1245,0 -2.386377,-0.3375 -2.802737,-0.75 -1.20664,-1.19545 -2.628988,-0.86824 -2.173828,0.5 0.22871,0.6875 1.69075,1.475 3.25,1.75 1.559245,0.275 3.010315,1.02766 3.224605,1.67188 0.24299,0.73051 -0.34522,0.97898 -1.56445,0.66015 -1.075179,-0.28117 -2.85588,-0.0288 -3.95703,0.56055 -1.77915,0.95217 -2.454272,0.37756 -6.066406,-5.16016 C 88.813029,78.29025 84.384393,72.3352 81.206837,68.4852 73.83687,59.55558 50.436802,35.22568 46.222462,32.1102 44.689383,30.97686 43.111899,30.38781 41.917774,30.3563 Z m 0.183594,0.6289 c 2.355364,0 7.542239,4.61658 20.810547,18.51953 11.015598,11.54249 13.5,14.6821 13.5,17.0625 0,2.18211 -0.504002,2.96937 -2,3.12305 -4.385572,0.45052 -7.543993,-2.43408 -15.007813,-13.70508 -1.63898,-2.475 -6.47071,-8.66642 -10.736328,-13.75976 -7.665362,-9.15278 -8.883488,-11.24024 -6.566406,-11.24024 z m 235.277351,32 c 4.88137,0 8.2199,3.54169 19.20898,20.37891 15.59173,23.88932 15.56907,23.84835 14.37305,26.99414 -1.0851,2.85403 -1.32976,2.92829 -5.04883,1.5293 -1.92258,-0.72322 -4.67458,-5.15191 -11.91406,-19.17188 -5.17755,-10.02685 -11.36505,-20.5286 -13.75,-23.33789 -4.71436,-5.55319 -5.09003,-6.39258 -2.86914,-6.39258 z M 78.296671,67.17481 c 0.64111,-0.0222 1.658209,1.13997 4.044922,4.05468 8.976613,10.96247 13.081229,18.65564 9.148438,17.14649 -1.847789,-0.70907 -5.89461,3.33971 -5.185547,5.1875 1.883364,4.90796 -4.629522,-3.70821 -6.828125,-9.03321 -0.898121,-2.17525 -3.394854,-6.28966 -5.548828,-9.14257 l -3.916016,-5.1875 3.191406,0.14257 c 2.370545,0.1055 3.435723,-0.40134 4.13086,-1.9707 0.329336,-0.74351 0.578225,-1.18394 0.96289,-1.19726 z M 220.66191,81.2002 c -1.7516,-0.14388 -0.98063,4.56189 2.14062,16.36328 4.05391,15.32778 7.10938,32.13169 7.10938,39.10351 0,3.11341 -0.65331,4.56206 -3.10352,6.88086 l -3.10351,2.9375 0.35351,-13.38867 c 0.31276,-11.84421 0.15458,-13.51432 -1.37695,-14.48242 -2.68643,-1.69814 -4.33415,0.7567 -7.2207,10.76172 -1.41079,4.88992 -3.97242,13.32742 -5.69141,18.75 -2.85742,9.0138 -3.33915,9.85937 -5.62305,9.85937 -2.73214,0 -9.23437,6.08132 -9.23437,8.63672 0,2.58356 2.02773,5.42374 4.56055,6.38672 2.54726,0.96846 3.35193,2.97866 1.18945,2.97266 -0.6875,-0.002 -2.7618,-0.92515 -4.61133,-2.05274 -1.84953,-1.12758 -3.60123,-1.81283 -3.89258,-1.52148 -0.97521,0.97521 1.59085,3.11796 5.375,4.48633 3.48479,1.26011 3.86976,1.20456 5.47461,-0.77735 0.94925,-1.17227 2.33984,-2.13086 3.0918,-2.13086 2.50857,0 5.54282,-2.89575 6.13476,-5.85547 0.51353,-2.56764 1.08004,-2.97191 4.63086,-3.31054 l 4.04688,-0.38672 0,7.85937 c 0,5.84172 0.32094,7.75467 1.25,7.44727 0.8185,-0.27082 1.35022,-3.04809 1.54101,-8.04492 l 0.29297,-7.63086 5.99219,-5.99414 c 6.11176,-6.11176 10.54096,-13.94152 11.60938,-20.52539 0.56281,-3.46819 0.16758,-4.96277 -8.85157,-33.5586 -4.95561,-15.71212 -5.74446,-17.54104 -8.85742,-20.52343 -1.46834,-1.40677 -2.54115,-2.20542 -3.22656,-2.26172 z m -0.0312,0.84375 c 1.36092,-0.27226 5.3592,4.59815 6.70117,8.34179 0.80821,2.25463 3.35215,10.17461 5.6543,17.59961 2.30215,7.425 5.02815,16.0736 6.05664,19.21875 2.492,7.62067 2.3824,10.95092 -0.44531,13.60742 -1.27295,1.19587 -2.77694,2.17383 -3.34375,2.17383 -2.0245,0 -4.3418,-3.713 -4.3418,-6.95898 0,-6.36645 -3.1984,-23.67953 -7.10156,-38.4375 -2.1668,-8.19275 -3.70266,-15.13133 -3.41407,-15.41992 0.0657,-0.0657 0.14365,-0.10685 0.23438,-0.125 z M 90.333831,89.28613 c 0.717587,-0.0387 1.508282,0.22573 2.292968,0.87696 1.594551,1.32336 1.575359,1.5351 -1.550781,17.3164 -2.054086,10.36939 -2.016539,11.50586 0.394531,11.50586 0.792541,0 1.441407,0.675 1.441407,1.5 0,0.825 -0.225,1.5 -0.5,1.5 -0.275,0 -0.5,-0.45 -0.5,-1 0,-0.55 -1.125,-1 -2.5,-1 -2.92139,0 -3.017063,-0.86673 -1.53125,-13.78906 0.591491,-5.14433 0.598325,-9.21788 0.01953,-10.74023 -1.224079,-3.21957 0.280832,-6.0537 2.433595,-6.16993 z m 6.578125,2.69922 c 2.34876,0 6.000004,3.34697 6.000004,5.5 0,2.12452 -6.573852,2.05156 -7.392582,-0.082 -1.224872,-3.19196 -0.65294,-5.41797 1.392578,-5.41797 z m 44.996094,2.19727 c 0.99052,-0.1116 1.00391,0.93278 1.00391,3.69531 0,2.62743 -0.51447,4.09034 -1.58203,4.5 -3.72542,1.42958 -5.41797,0.48248 -5.41797,-3.0332 0,-1.54401 0.97714,-2.81318 2.95117,-3.83399 1.50452,-0.77801 2.45061,-1.26116 3.04492,-1.32812 z m -4.01562,9.95312 c 1.55564,0.0561 3.7429,1.1129 6.26758,3.16211 6.51085,5.28465 14.64371,9.96055 19.69336,11.32227 2.51332,0.67777 3.54883,1.25967 2.30859,1.29687 -1.2375,0.0371 -2.25,0.51836 -2.25,1.06836 0,1.41065 -0.35317,1.29931 -11.5,-3.64453 -16.70099,-7.40723 -17,-7.59002 -17,-10.35742 0,-1.95819 0.92482,-2.90374 2.48047,-2.84766 z m -4.38867,2.90625 c 0.19905,0.0262 0.44067,0.41582 0.75976,1.07032 0.63614,1.3048 2.97131,3.29189 5.18945,4.41406 3.98228,2.01465 4.02161,2.09009 3.1836,6 -0.46677,2.17783 -0.59115,5.64648 -0.27539,7.70898 0.42452,2.77289 0.22203,3.75 -0.78125,3.75 -1.74919,0 -4.68552,3.23883 -4.60352,5.07813 0.0349,0.78169 0.47436,0.39886 0.97656,-0.85156 1.92888,-4.80275 4.4157,-4.30316 16.02735,3.21874 l 10.89062,7.05469 0.0215,4.25 c 0.0114,2.3375 -0.31797,4.24905 -0.73047,4.24805 -0.4125,-10e-4 -6.6,-3.51038 -13.75,-7.79883 -11.53534,-6.9187 -13.24277,-8.2988 -15.16406,-12.24805 -2.97939,-6.12419 -3.66954,-10.89404 -2.84571,-19.68554 0.42713,-4.55797 0.66366,-6.26662 1.10157,-6.20899 z m 11.5039,7.94336 c 1.7001,0 18.34195,8.08777 19.10156,9.28321 0.42529,0.66931 0.77911,5.15429 0.78711,9.96679 0.008,4.8125 -0.32187,8.71658 -0.73437,8.67578 -0.4125,-0.0408 -5.09313,-2.92935 -10.40235,-6.41992 -7.80632,-5.13229 -9.78014,-6.92653 -10.31835,-9.37695 -0.78577,-3.57761 0.31835,-12.12891 1.5664,-12.12891 z m 76.9375,4.31055 c 0.47036,-0.003 0.31141,0.11154 -0.46484,0.35547 -1.23712,0.38875 -1.37883,2.63415 -0.89844,14.14844 0.54459,13.05325 0.47326,13.77294 -1.54883,15.58984 -2.52594,2.26962 -2.53001,2.23368 -0.62109,-7.74219 0.82491,-4.31088 1.46287,-8.81088 1.41797,-10 -0.0449,-1.18912 -1.16946,3.46289 -2.5,10.33789 -1.33055,6.875 -2.22082,13.34446 -1.97852,14.37696 0.24229,1.0325 -0.2601,3.0575 -1.11719,4.5 l -1.55859,2.62304 2.04688,-2.48047 c 1.33747,-1.62088 1.8726,-3.35762 1.54296,-5.00586 -0.36881,-1.84402 0.20131,-3.18657 2.11914,-4.98828 l 2.625,-2.46484 -0.29882,7.4707 -0.29883,7.46875 -3.5,0.15625 c -9.65868,0.43297 -10.31251,-2.15356 -4.95508,-19.61523 7.51302,-24.48748 7.5317,-24.53332 9.30859,-24.68945 0.29681,-0.0261 0.52291,-0.0401 0.67969,-0.041 z m 63.71875,6.68945 c 1.27447,0 24.66625,10.1006 26.04883,11.24805 0.71589,0.59413 1.1653,2.24083 1,3.6582 -0.44668,3.82993 -2.86641,3.62358 -8.37109,-0.71094 -2.71114,-2.13481 -8.19219,-5.80314 -12.17969,-8.15234 -6.38883,-3.76392 -8.83979,-6.04297 -6.49805,-6.04297 z m -46.10351,15.16407 c 0.32446,-0.0656 -0.0597,0.87017 -1.08594,3.33593 -2.03022,4.87812 -3.62108,7.35916 -7.69922,12.00391 -1.72488,1.96452 -3.97543,4.02197 -5,4.57031 -1.73849,0.93041 -1.86328,0.50529 -1.86328,-6.34375 0,-7.06579 0.12996,-7.46345 3.47851,-10.70898 3.2872,-3.18609 3.57896,-3.28025 5.32813,-1.69727 2.32826,2.10708 3.06796,2.09782 5.47851,-0.0742 0.71834,-0.64726 1.16861,-1.04656 1.36329,-1.08593 z m 68.35156,4.02148 c 0.56815,-0.0517 1.24891,0.60828 2.74609,2.10547 2.63445,2.63445 2.66517,2.79487 1.05274,5.46094 -2.24844,3.71767 -4.55427,4.01902 -5.79492,0.75585 -1.32138,-3.47547 -1.23316,-4.62162 0.54296,-6.9707 0.63633,-0.8416 1.01124,-1.31133 1.45313,-1.35156 z m -139.47852,1.81445 c 0.28679,0 2.19929,1.09653 4.25,2.43555 2.05071,1.33902 5.75352,3.21169 8.22852,4.16211 5.60566,2.15262 5.77573,2.29986 3.9707,3.44141 -2.24635,1.42063 -6.55884,1.0493 -13.7207,-1.18165 -2.94222,-0.91652 -3.25,-1.38455 -3.25,-4.93554 0,-2.15735 0.23469,-3.92188 0.52148,-3.92188 z m 37.63282,12.00391 c 1.07994,0.0312 1.8457,0.29149 1.8457,0.82226 0,0.45412 -1.0415,1.80412 -2.31445,3 -2.3399,2.19821 -2.78253,2.30835 -5.93555,1.48438 -2.36106,-0.617 -2.20185,-1.88061 0.47265,-3.75391 1.45874,-1.02173 4.13173,-1.60471 5.93165,-1.55273 z m -186.371101,64.99609 34.109375,0 34.107422,0 0,22.5 0,22.5 -29.5,0 c -16.225,0 -29.5,-0.14394 -29.5,-0.32031 0,-0.6393 -7.849151,-39.25229 -8.523438,-41.92969 z"
       style="fill:#000000"
       inkscape:connector-curvature="0"
       sodipodi:nodetypes="cssssscccssccccssssssscccssssscssscssscccsssssssssscscccssssssscssscccccssscssscccccsssscccccsssssscsssssccccssscccccssssssssssssssscsssccssssssssssssssssssscccsssssccssssssscssssssccsscccsssscssssssssccsssssssssccssccsssssscsscsssccssssscssccssssccssssssscssssssscccscccccscccsssssscssssssscccsssscssssssscssssccccccsscc" />
  </g>
</svg>
