<?xml version="1.0" encoding="UTF-8" standalone="no"?>
<!-- Created with Inkscape (http://www.inkscape.org/) -->

<svg
   xmlns:dc="http://purl.org/dc/elements/1.1/"
   xmlns:cc="http://creativecommons.org/ns#"
   xmlns:rdf="http://www.w3.org/1999/02/22-rdf-syntax-ns#"
   xmlns:svg="http://www.w3.org/2000/svg"
   xmlns="http://www.w3.org/2000/svg"
   xmlns:sodipodi="http://sodipodi.sourceforge.net/DTD/sodipodi-0.dtd"
   xmlns:inkscape="http://www.inkscape.org/namespaces/inkscape"
   id="svg3734"
   version="1.1"
   inkscape:version="0.91 r13725"
   width="747.66357"
   height="250.3125"
   viewBox="0 0 747.66357 250.3125"
   sodipodi:docname="ub630101.svg">
  <metadata
     id="metadata3740">
    <rdf:RDF>
      <cc:Work
         rdf:about="">
        <dc:format>image/svg+xml</dc:format>
        <dc:type
           rdf:resource="http://purl.org/dc/dcmitype/StillImage" />
        <dc:title></dc:title>
      </cc:Work>
    </rdf:RDF>
  </metadata>
  <defs
     id="defs3738" />
  <sodipodi:namedview
     pagecolor="#ffffff"
     bordercolor="#666666"
     borderopacity="1"
     objecttolerance="10"
     gridtolerance="10"
     guidetolerance="10"
     inkscape:pageopacity="0"
     inkscape:pageshadow="2"
     inkscape:window-width="640"
     inkscape:window-height="480"
     id="namedview3736"
     showgrid="false"
     inkscape:zoom="1.0895101"
     inkscape:cx="399.29168"
     inkscape:cy="147.65928"
     inkscape:window-x="0"
     inkscape:window-y="0"
     inkscape:window-maximized="0"
     inkscape:current-layer="svg3734" />
  <g
     id="g3744">
    <path
       style="fill:#fefefe"
       d="m 696.49456,235.07812 c 0.21375,-0.64453 1.61562,-1.38774 3.11527,-1.65158 l 2.72664,-0.47971 0,-10.77029 c 0,-5.92366 -0.35795,-17.37715 -0.79542,-25.45221 -0.78223,-14.4383 -0.76226,-14.69971 1.20352,-15.75506 3.1711,-1.70242 5.51017,-0.34638 6.63582,3.84705 0.72637,2.70595 0.72202,7.24127 -0.0154,16.11534 -0.56447,6.79228 -1.11511,17.5168 -1.22365,23.83228 l -0.19735,11.48269 -5.919,0.002 c -4.31998,9.4e-4 -5.81402,-0.3149 -5.53038,-1.17019 z m 12.85125,0.28096 c 0,-0.49 0.70129,-1.2846 1.55842,-1.76578 1.42929,-0.80236 1.39495,-1.1528 -0.4144,-4.22901 -1.46988,-2.49903 -1.82976,-4.23858 -1.41163,-6.82329 l 0.56122,-3.46913 3.65313,7.28312 c 2.00922,4.00571 3.42833,7.87079 3.15356,8.58906 -0.56144,1.46765 -7.1003,1.84987 -7.1003,0.41503 z m 0.1814,-23.68816 c 0.29578,-5.02596 0.81965,-6.77729 2.59398,-8.67188 2.94086,-3.14019 6.3316,-3.12619 7.52826,0.0311 1.15476,3.04675 0.43655,4.34867 -5.6551,10.25112 l -4.83776,4.6875 0.37062,-6.29784 z m -24.64298,-21.0996 c -3.96663,-0.41993 -6.34003,-2.54846 -4.68869,-4.20495 0.77813,-0.78057 2.00624,-0.62203 4.73171,0.61083 2.90613,1.31457 4.87965,1.52544 9.3768,1.00185 5.37182,-0.62541 5.69597,-0.55121 5.69597,1.3039 0,1.80472 -0.48202,1.95405 -5.84112,1.80946 -3.21262,-0.0867 -7.38622,-0.32117 -9.27467,-0.52109 z m 9.54119,-5.82219 C 692.95059,181.98476 693.26689,180 695.18227,180 c 2.08432,0 4.81775,2.83439 4.81775,4.99569 0,2.24017 -4.35054,2.04775 -5.5746,-0.24656 z m -23.85849,-16.43896 c -8.24359,-8.72206 -10.18524,-11.42892 -14.5209,-20.24363 -4.90729,-9.97688 -4.97121,-10.21262 -3.2778,-12.08967 3.03437,-3.36341 5.04768,-2.44576 7.6269,3.47625 1.29128,2.96485 3.26567,7.4964 4.38755,10.07011 1.773,4.0675 9.24211,15.07819 12.08855,17.82052 1.73963,1.676 -0.41135,-1.63281 -4.22392,-6.49756 -6.38089,-8.14186 -13.52607,-24.34908 -11.70502,-26.55016 0.84154,-1.01717 1.80952,0.82471 4.57189,8.69946 3.4029,9.70069 6.13395,14.16599 15.09074,24.67353 2.06406,2.42143 2.6097,3.90312 2.39003,6.49005 -0.15656,1.84373 -0.8758,3.54736 -1.59833,3.78585 -0.78471,0.25901 -5.14542,-3.62055 -10.82969,-9.63475 z m 33.3856,-10.0328 c -1.97735,-1.98354 -1.26547,-4.2731 1.91367,-6.1547 5.08294,-3.00838 10.22394,-8.0043 11.57529,-11.24865 0.8332,-2.00035 1.91873,-3.06152 3.13182,-3.06152 3.75063,0 2.00706,3.4579 -6.85434,13.59375 -6.98677,7.9916 -7.96404,8.67915 -9.76644,6.87112 z m -90.30416,-4.14322 c -0.74383,-1.94446 0.0788,-3.19665 2.10007,-3.19665 0.89068,0 3.39341,-1.81322 5.56163,-4.02938 3.30083,-3.37381 4.15721,-5.06014 5.26364,-10.36484 1.50185,-7.20052 2.66003,-9.04328 5.68374,-9.04328 2.80113,0 3.60365,2.382 1.84466,5.47522 -0.77989,1.37144 -2.35836,4.85184 -3.5077,7.73422 -1.63159,4.09178 -3.36129,6.30119 -7.8899,10.07813 -6.08143,5.07199 -8.10941,5.82141 -9.05614,3.34658 z m 85.95111,-2.79487 c -0.80774,-0.81026 -1.46862,-2.7087 -1.46862,-4.21875 0,-2.39236 0.34203,-2.74553 2.65889,-2.74553 4.77301,0 7.66304,5.47074 3.9446,7.46702 -2.45596,1.31849 -3.41269,1.22482 -5.13487,-0.50274 z m -452.07454,-5.32366 c -1.02649,-1.16015 -5.51569,-8.46464 -9.97601,-16.23219 -8.86721,-15.44205 -12.31528,-20.4308 -12.31528,-17.81803 0,0.87629 0.80489,3.56991 1.78864,5.98581 4.05673,9.96251 6.69493,20.05047 5.59218,21.38335 -1.44724,1.74927 -3.02701,1.62219 -5.57633,-0.44858 -2.07344,-1.68421 -2.14945,-2.2899 -2.41179,-19.21875 -0.14898,-9.61385 0.0407,-17.47973 0.42152,-17.47973 0.38081,0 1.64524,0.94922 2.80984,2.10938 2.24595,2.23739 25.88195,33.78514 27.38676,36.55403 1.25602,2.3111 -1.43034,7.27409 -3.93731,7.27409 -1.05373,0 -2.75573,-0.94922 -3.78222,-2.10938 z m -21.64706,-18.28124 c -0.23507,-0.90235 -0.42741,-0.16407 -0.42741,1.64062 0,1.80469 0.19234,2.54297 0.42741,1.64062 0.23507,-0.90234 0.23507,-2.3789 0,-3.28124 z m -89.82981,12.3549 c -3.18555,-3.1955 -1.68245,-5.98158 5.95688,-11.04138 2.79898,-1.85387 10.23128,-8.23398 16.51622,-14.17804 6.28494,-5.94405 11.6701,-10.80736 11.96702,-10.80736 1.05468,0 0.51242,2.63657 -1.46983,7.14645 -1.27122,2.89221 -5.78403,8.62194 -12.28141,15.59322 -13.23565,14.20102 -17.22422,16.76261 -20.68888,13.28711 z m 83.25566,-8.67872 c -2.20984,-2.44949 -2.02391,-5.78556 0.32244,-5.78556 1.55764,0 1.86916,0.625 1.86916,3.75 0,4.28484 -0.0883,4.36689 -2.1916,2.03556 z m 337.70563,-2.84744 c 0,-1.28309 1.47822,-2.29006 5.54578,-3.7778 4.12396,-1.50837 6.61654,-3.22307 9.72221,-6.68812 4.03791,-4.50515 7.24737,-5.85885 8.61766,-3.63475 1.11515,1.80998 -7.26737,9.37522 -14.0462,12.67672 -7.43089,3.61906 -9.83945,3.96763 -9.83945,1.42395 z m 59.96909,-0.009 c -0.85182,-0.54165 0.17886,-1.1521 3.25859,-1.93001 2.47746,-0.62578 5.03577,-1.5801 5.68513,-2.1207 0.86565,-0.72068 1.18065,-0.59129 1.18065,0.48496 0,3.2026 -6.88316,5.62681 -10.12437,3.56575 z M 141.74455,113.75 c -0.34268,-0.34375 -0.62305,-1.57906 -0.62305,-2.74514 0,-1.69559 0.98251,-2.49393 4.90654,-3.98681 2.6986,-1.02666 9.32243,-3.84215 14.71963,-6.25665 5.39719,-2.414481 10.86448,-4.542766 12.14953,-4.729516 1.28505,-0.18675 1.60047,-0.112818 0.70094,0.164278 -0.89954,0.277097 -1.63552,0.870629 -1.63552,1.31895 0,0.783882 -27.59186,16.859888 -28.93725,16.859888 -0.36178,0 -0.93814,-0.28125 -1.28082,-0.625 z m 426.52408,-0.73751 c 0.7954,-0.80956 2.81947,-1.86702 4.49791,-2.3499 2.82365,-0.81234 3.02988,-0.72394 2.75942,1.18286 -0.24412,1.72115 -0.98543,2.10844 -4.49791,2.34989 -3.81399,0.26217 -4.07094,0.15202 -2.75942,-1.18285 z M 43.882585,106.71611 c -0.577101,-2.14988 -0.834055,-4.7866 -0.571008,-5.85937 0.263046,-1.072765 2.576411,-9.945632 5.140811,-19.717474 4.068152,-15.502001 4.984507,-18.002249 7.188071,-19.612451 2.920977,-2.134432 5.379242,-1.248224 5.877628,2.118897 0.166723,1.126384 -2.941908,10.329432 -6.908069,20.451216 -3.966161,10.121784 -7.41661,20.231332 -7.667667,22.465662 -0.575817,5.1246 -1.710088,5.18151 -3.059766,0.15352 z m 244.952495,0.93148 c -3.07663,-1.14167 -2.20954,-1.71408 0.93226,-0.61543 1.56829,0.54842 3.05171,0.79623 3.29649,0.55069 0.68774,-0.68989 -10.68373,-3.71619 -16.36558,-4.35539 -4.88489,-0.54954 -5.01372,-0.635 -3.39683,-2.25306 1.38601,-1.387 2.43997,-1.551353 6.01204,-0.9375 2.38228,0.40939 6.92938,0.6296 10.10467,0.48936 3.1753,-0.14025 6.01418,0.13603 6.30863,0.61394 0.30842,0.50063 -1.14833,0.7212 -3.43682,0.5204 l -3.97218,-0.34855 3.73832,0.81645 c 2.05608,0.44905 4.84348,0.60359 6.19424,0.34345 3.4606,-0.66651 6.60542,1.22841 6.24565,3.76336 -0.2671,1.88207 -0.82905,2.04908 -7.01603,2.08519 -3.69912,0.0216 -7.58931,-0.28122 -8.64486,-0.67291 z m -68.70567,-5.0274 c -0.36157,-2.902927 -0.46329,-5.472756 -0.22605,-5.71074 0.23723,-0.237984 0.72717,1.942425 1.08874,4.84536 0.36157,2.90293 0.46329,5.47276 0.22605,5.71074 -0.23724,0.23798 -0.72717,-1.94243 -1.08874,-4.84536 z m 341.62663,3.66647 c -0.0406,-1.09701 0.62591,-2.57358 1.4811,-3.28125 1.38995,-1.15018 1.45291,-1.08778 0.59357,0.58834 -0.52871,1.03125 -1.19521,2.50781 -1.4811,3.28125 -0.35691,0.96562 -0.5429,0.78127 -0.59357,-0.58834 z m -417.24175,-2.45853 c -0.84604,-3.16688 -0.78137,-3.346 1.82715,-5.060518 2.05692,-1.35195 2.5412,-1.390012 3.25672,-0.255984 1.4232,2.255622 0.96083,5.435672 -0.93859,6.455392 -2.674,1.43555 -3.51957,1.20323 -4.14528,-1.13889 z m 123.7838,-1.25 c 0.0449,-1.09214 0.2663,-1.31428 0.56464,-0.56641 0.26997,0.67675 0.23677,1.48535 -0.0737,1.79688 -0.31055,0.31152 -0.53144,-0.2422 -0.49086,-1.23047 z m 158.208,-1.60487 c -2.44963,-1.309126 -7.18884,-6.020016 -12.92548,-12.84826 -4.98175,-5.929688 -10.49593,-12.130836 -12.25374,-13.780328 -3.73501,-3.504858 -4.38562,-8.015061 -1.3883,-9.624187 0.99424,-0.533767 2.04929,-0.970485 2.34454,-0.970485 0.29526,0 5.93894,7.277344 12.54151,16.171875 6.60258,8.894531 13.11762,17.194631 14.47789,18.444666 2.32416,2.135829 3.32916,4.810189 1.77227,4.716089 -0.38552,-0.0233 -2.44143,-0.97251 -4.56869,-2.10937 z m 146.91343,0.71568 c -0.99778,-0.75704 -2.68002,-1.39333 -3.73832,-1.41398 -1.6258,-0.0317 -1.50345,-0.26608 0.78905,-1.511416 2.47765,-1.345922 2.99269,-1.340194 5.9321,0.06591 2.67103,1.27771 3.02485,1.77428 2.07888,2.91767 -1.42238,1.71922 -2.73905,1.70409 -5.06171,-0.0581 z M 323.72457,99.901538 c -1.0429,-2.726232 0.52199,-5.871516 9.20731,-18.50597 4.7613,-6.926226 9.89078,-15.206497 11.39885,-18.400602 1.50806,-3.194107 3.13934,-5.807466 3.62507,-5.807466 0.52283,0 0.62257,1.970397 0.24448,4.829569 -0.44858,3.39208 -3.19659,9.879774 -9.23256,21.796875 -8.30409,16.395136 -8.69652,16.977226 -11.63769,17.261556 -2.09794,0.20282 -3.21834,-0.162 -3.60546,-1.173962 z m 281.29841,-0.292163 c -0.84257,-1.326319 -0.4943,-2.409084 1.81796,-5.651869 1.57311,-2.206185 3.75147,-4.235639 4.8408,-4.509897 1.08933,-0.274259 4.21827,0.386108 6.95319,1.467482 2.73493,1.081374 5.14188,1.796309 5.34881,1.588744 0.86038,-0.863078 -10.88146,-4.510965 -12.67842,-3.938853 -1.05943,0.337303 -3.28786,2.515222 -4.95206,4.839821 -2.84418,3.972834 -3.22386,4.190081 -6.32505,3.619172 -1.81457,-0.334059 -3.62126,-0.918694 -4.01487,-1.299188 -0.73986,-0.715209 12.51122,-14.171865 13.9338,-14.149962 2.95228,0.04545 25.2669,6.789839 26.44573,7.992971 1.32298,1.350268 1.21614,1.698086 -1.15684,3.765747 -4.21738,3.674766 -6.83758,3.843198 -14.94922,0.960985 -4.00672,-1.423655 -7.90839,-2.348479 -8.67038,-2.055161 -0.762,0.293317 -2.20051,2.440708 -3.19669,4.77197 -0.99618,2.331263 -1.93348,4.238663 -2.08288,4.238663 -0.14941,0 -0.74065,-0.73828 -1.31388,-1.640625 z m -508.68751,-1.875 C 96.294909,97.089844 95.242937,96.5625 93.997806,96.5625 c -2.04923,0 -2.536055,-0.878831 -5.134617,-9.269184 C 87.28428,82.195265 84.732253,75.62098 83.192016,72.683795 80.146301,66.875705 80.496423,63.75 84.192722,63.75 c 2.413433,0 4.088735,3.960664 6.461172,15.275177 2.576818,12.289237 3.610342,15.497135 5.298127,16.44462 0.817252,0.458784 1.254467,1.419675 0.97157,2.135306 -0.355925,0.900413 -0.537065,0.940228 -0.588121,0.129272 z M 520.91702,96.05535 c -1.24603,-1.907625 -1.34739,-2.84139 -0.50887,-4.687504 0.57718,-1.270721 1.84362,-2.305346 2.82188,-2.305346 0.97611,0 2.33167,-0.738281 3.01235,-1.640625 1.05285,-1.395726 1.04203,-1.465697 -0.0725,-0.46875 -1.72544,1.543432 -5.16911,1.488439 -7.74481,-0.12368 -1.13846,-0.712554 -3.80696,-1.553213 -5.93,-1.868131 -3.55312,-0.527045 -4.36904,-0.200368 -10.26036,4.108054 -3.52013,2.574348 -6.93496,4.680632 -7.58849,4.680632 -2.42937,0 -1.06122,-3.35848 2.29147,-5.625 1.90681,-1.289063 5.3008,-3.736844 7.54218,-5.439515 3.75419,-2.851863 4.32481,-3.01315 7.24266,-2.047163 1.76603,0.584662 4.95455,0.779762 7.20677,0.440966 5.86004,-0.881513 8.69957,1.573094 8.48239,7.33255 -0.16278,4.316835 -2.46871,10.025662 -4.04962,10.025662 -0.48896,0 -1.58922,-1.071966 -2.44502,-2.38215 z m -51.3921,-4.425945 c -2.79606,-2.204972 -4.13677,-4.142492 -4.93302,-7.128909 -0.60139,-2.255551 -2.14502,-5.900998 -3.43028,-8.100991 l -2.33685,-3.999991 -7.21612,3.526014 c -10.26481,5.015696 -10.72164,5.099107 -13.23412,2.416336 -3.28198,-3.504426 -2.08255,-6.735891 2.99002,-8.055582 2.17941,-0.567 7.47897,-2.343332 11.77679,-3.947404 5.78108,-2.157667 8.21272,-2.668862 9.34579,-1.964739 0.84237,0.523464 3.0247,5.343272 4.84964,10.710682 1.82493,5.367411 4.45344,11.694432 5.84112,14.060046 1.38768,2.365613 2.52306,4.580457 2.52306,4.921877 0,1.418644 -2.57502,0.402431 -6.17603,-2.437339 z m 29.13748,2.224901 c -0.28233,-0.458261 0.95453,-1.956293 2.74858,-3.328963 3.03577,-2.322723 3.26193,-2.367097 3.26193,-0.640018 0,3.295726 -4.56718,6.311625 -6.01051,3.968981 z m -10.40824,-9.26412 c -2.45496,-2.95429 -6.15237,-7.15556 -8.21646,-9.336156 -2.06409,-2.180596 -3.50266,-4.215733 -3.19682,-4.522525 0.30583,-0.306793 2.735,0.211707 5.39813,1.15222 3.75845,1.327334 6.0029,3.034209 10.02913,7.627028 3.44628,3.931251 5.49965,5.603444 6.11848,4.982682 0.51227,-0.513877 1.61056,-4.848994 2.44063,-9.633594 1.33487,-7.694336 1.79762,-8.861364 4.00582,-10.102424 2.1258,-1.194746 2.84719,-1.214943 4.85698,-0.135977 4.05807,2.178599 3.98765,3.557416 -0.60008,11.750516 -1.16432,2.079324 -4.55013,5.491009 -7.68809,7.746855 -9.08173,6.528746 -8.14213,6.49506 -13.14772,0.471375 z m -132.75882,0.298458 c -0.71473,-1.868376 0.34464,-3.326144 2.41715,-3.326144 2.29828,0 9.85404,-8.535247 12.13524,-13.708367 1.00076,-2.269455 2.52902,-4.399375 3.39613,-4.733157 3.77218,-1.452046 6.62378,3.97777 3.48278,6.631652 -0.93114,0.786734 -5.34209,4.820489 -9.8021,8.963899 -8.0139,7.445027 -10.6143,8.825172 -11.6292,6.172117 z M 88.982003,68.751561 C 87.786355,64.843606 88.149215,63.75 90.641532,63.75 c 2.077891,0 5.620153,4.215889 5.620153,6.68893 0,1.356596 -0.698113,1.74857 -3.114224,1.74857 -2.771545,0 -3.229897,-0.378079 -4.165458,-3.435939 z m 274.626027,-4.94477 c -1.05918,-1.062485 -1.92578,-2.986479 -1.92578,-4.275541 0,-1.972314 0.43856,-2.34375 2.76733,-2.34375 3.28252,0 6.7745,3.324619 6.38156,6.075711 -0.38565,2.700095 -4.74619,3.02825 -7.22311,0.54358 z m 68.84485,-11.877505 c -0.37244,-0.373607 -0.67717,-1.655624 -0.67717,-2.848925 0,-1.518956 0.68478,-2.342044 2.28333,-2.744509 1.25584,-0.316179 2.66835,-0.336171 3.13893,-0.04443 0.47058,0.291744 4.26826,-0.115224 8.43928,-0.904373 9.04636,-1.711553 15.57771,-1.491757 15.57771,0.524226 0,1.020685 -1.33844,1.438195 -5.14018,1.603412 -4.31039,0.187323 -11.77684,1.7957 -21.05181,4.53485 -1.0411,0.307468 -2.19764,0.253354 -2.57009,-0.120253 z m -1.15842,-8.868042 c -0.75847,-3.464072 1.49777,-6.498744 4.83171,-6.498744 1.85246,0 2.18938,0.471494 2.17729,3.046875 -0.018,3.850217 -0.76499,4.949201 -3.88357,5.714235 -2.21779,0.544056 -2.56617,0.291876 -3.12543,-2.262366 z"
       id="path3754"
       inkscape:connector-curvature="0" />
    <path
       style="fill:#bfbfbf"
       d="M 0,125.15625 0,0 l 373.83179,0 373.83178,0 0,125.15625 0,125.15625 -373.83178,0 L 0,250.3125 0,125.15625 Z m 725.50988,111.33331 c -6.76646,-0.24289 -8.49858,-0.57989 -8.11635,-1.57909 0.26727,-0.69866 -1.24984,-4.73339 -3.37135,-8.96605 l -3.8573,-7.69576 5.61364,-5.86429 c 3.0875,-3.22535 5.88712,-6.95734 6.22138,-8.29329 0.93954,-3.75513 -1.28902,-9.01042 -5.93284,-13.99055 l -4.22887,-4.53514 -0.16285,-15.20457 -0.16285,-15.20457 4.8469,-5.625 c 5.68356,-6.59599 7.34986,-9.4653 6.61396,-11.38901 -0.95474,-2.49582 -4.62471,-1.04682 -6.28821,2.48276 -0.85055,1.80469 -2.53444,4.20429 -3.74196,5.33246 l -2.1955,2.05121 0.0328,-4.3278 c 0.0363,-4.78434 1.7988,-6.40916 3.14576,-2.90001 0.74342,1.93677 0.9162,1.99821 1.50527,0.53533 1.16997,-2.90546 -3.29974,-5.98588 -5.49306,-3.78569 -0.3594,0.36052 -2.50238,0.54144 -4.76217,0.40205 -5.56623,-0.34337 -7.98,2.03068 -7.98,7.8487 0,2.78575 0.56179,4.7823 1.65393,5.87785 1.43014,1.43461 1.48859,1.97372 0.43194,3.98438 -1.16731,2.22123 -1.05219,6.6061 0.38719,14.74714 0.46783,2.64605 0.27912,3.04688 -1.43447,3.04688 -3.38158,0 -5.94846,3.44221 -5.48507,7.35552 0.22311,1.88415 0.72899,4.16401 1.12419,5.06635 0.60915,1.39088 0.21019,1.64063 -2.62078,1.64063 -1.83662,0 -4.83382,-0.71491 -6.66045,-1.58869 -3.1227,-1.49376 -3.41598,-1.49354 -4.90857,0.004 -1.49355,1.49821 -1.47638,1.70382 0.2902,3.47592 1.51412,1.51887 3.61701,1.99814 10.86182,2.47551 10.76406,0.70928 9.70735,-1.5846 10.64591,23.10979 l 0.66602,17.52375 -2.46801,0 c -1.45586,0 -2.94674,0.76895 -3.63532,1.875 -1.16173,1.86603 -2.17947,1.875 -212.62475,1.875 l -211.45744,-3e-5 0,-66.09375 0,-66.09375 3.50468,0.0127 c 6.07573,0.0222 7.71028,0.83765 7.71028,3.84654 0,3.34753 2.95008,6.45316 6.12992,6.45316 1.50234,0 2.1552,0.38371 1.75582,1.03195 -0.36729,0.59613 -1.80372,0.79763 -3.40129,0.47712 -1.96747,-0.39473 -2.6556,-0.21908 -2.38468,0.60868 0.20945,0.63993 1.56231,1.30254 3.00636,1.47249 2.11922,0.24941 3.38816,-0.52426 6.58015,-4.01186 l 3.95461,-4.32084 2.82861,1.62846 c 2.68724,1.54708 3.17218,1.54626 9.70292,-0.0166 7.32024,-1.75174 19.40723,-7.6568 20.45749,-9.99445 0.3475,-0.77344 4.30249,-9.000004 8.78887,-18.281254 6.52313,-13.494773 8.18832,-17.794109 8.31307,-21.463441 0.23404,-6.883895 -1.58601,-6.396813 -5.52289,1.478035 -4.04147,8.084063 -17.68085,28.202069 -21.72502,32.044253 -5.00533,4.755356 -22.12192,8.334797 -25.77326,5.389737 -0.56565,-0.456237 -4.60321,-0.903753 -8.97237,-0.994484 -13.72076,-0.284934 -14.01869,-0.319322 -14.01869,-1.618134 0,-0.683128 -0.99637,-1.242122 -2.21417,-1.242122 -1.83191,0 -2.31172,0.603075 -2.77928,3.49328 -0.31081,1.92131 -0.15556,3.90412 0.34501,4.40625 0.56424,0.566 0.91013,17.40932 0.91013,44.31922 l 0,43.40625 -12.14954,0 c -7.47663,0 -12.14953,0.36058 -12.14953,0.9375 0,0.57692 4.6729,0.9375 12.14953,0.9375 l 12.14954,0 0,21.09375 0,21.09375 -22.42991,0 -22.42991,0 0,-47.25 0,-47.25 3.03738,3.03769 c 6.23677,6.23739 23.22837,9.8339 27.62132,5.84643 2.62368,-2.38149 3.27407,-5.80028 1.68274,-8.84534 -2.06789,-3.95697 -25.264,-35.02237 -28.52021,-38.19569 -1.58766,-1.54724 -2.88665,-3.754037 -2.88665,-4.904012 0,-1.464244 -0.72072,-2.272312 -2.40488,-2.696325 -4.19652,-1.056553 -4.62994,0.539044 -2.88669,10.627187 0.87069,5.03872 1.57637,11.16522 1.56817,13.61444 -0.0138,4.121 -0.18917,4.45312 -2.35137,4.45312 -1.28504,0 -3.22638,0.89272 -4.31409,1.98383 -1.63505,1.64015 -1.90094,2.78444 -1.53493,6.60553 0.37175,3.88102 0.20191,4.57637 -1.05974,4.33882 -0.82635,-0.15559 -1.9176,-1.22963 -2.425,-2.38678 -1.0066,-2.29557 -2.34848,-2.81339 -2.34848,-0.90625 0,2.83386 2.98131,5.49044 5.9376,5.29084 1.61749,-0.10921 4.09745,-0.13723 5.511,-0.0623 l 2.57009,0.13626 0,26.25 0,26.25 -14.95327,0 c -9.34579,0 -14.95327,0.35156 -14.95327,0.9375 0,0.58594 5.60748,0.9375 14.95327,0.9375 l 14.95327,0 0,21.09375 0,21.09375 -22.93032,0 -22.93031,0 0.10201,-69.96215 c 0.0719,-49.27824 -0.19852,-70.263606 -0.91452,-70.981844 -1.13192,-1.135462 -1.0727,-1.154831 -14.77546,4.834294 -7.95572,3.47724 -8.64486,3.631 -8.64486,1.92877 0,-3.154757 -2.72496,-7.326014 -5.19157,-7.947023 -1.2946,-0.32595 -3.60004,-0.3426 -5.12318,-0.03703 -3.19394,0.64079 -3.64685,-1.022717 -1.36749,-5.022516 1.59258,-2.794632 1.71774,-3.75 0.49129,-3.75 -1.93833,0 -3.55018,5.36762 -3.60469,12.003975 -0.0457,5.568235 0.28142,7.186445 1.75092,8.660545 1.78652,1.79209 1.77518,1.8585 -0.99116,5.80852 -5.30353,7.57285 -8.21636,23.18727 -5.14586,27.58472 2.11801,3.03334 7.38541,3.6431 11.17507,1.29365 5.30679,-3.29003 24.34241,-24.39978 26.56087,-29.45496 4.63465,-10.56092 1.95342,-9.93874 -11.33694,2.63076 -16.03324,15.16361 -16.5605,15.47003 -12.41683,7.21607 1.83173,-3.64868 3.33041,-7.1876 3.33041,-7.86427 0,-1.83129 21.78763,-13.913551 22.64697,-12.55881 0.37889,0.59733 0.69534,21.44152 0.70321,46.32042 l 0.0143,45.23438 -26.63551,0 c -17.13396,0 -26.63552,0.33443 -26.63552,0.9375 0,0.60307 9.50156,0.9375 26.63552,0.9375 l 26.63551,0 0,21.09375 0,21.09375 -38.78505,0 -38.785045,0 0.06832,-44.76563 0.06832,-44.76562 6.941059,-3.42801 c 3.81757,-1.8854 6.94104,-3.04556 6.94104,-2.57812 0,0.46744 0.31849,0.84988 0.70774,0.84988 0.79711,0 6.09776,-8.48573 5.60772,-8.97731 -0.66444,-0.66651 -8.57343,2.17865 -8.91519,3.20712 -0.19787,0.59548 0.12066,1.08269 0.70785,1.08269 0.58719,0 0.83232,0.3819 0.54474,0.84866 -0.69007,1.12006 -7.89959,5.29901 -10.568744,6.1261 l -2.102804,0.6516 0,-21.24666 c 0,-18.54614 0.207878,-21.60158 1.635514,-24.039038 1.566972,-2.675362 1.563215,-2.845659 -0.08981,-4.063865 C 95.212946,93.928537 92.56088,85.562422 91.153355,77.109375 90.519842,73.304746 90.595574,73.125 92.832072,73.125 c 3.608127,0 5.245987,-0.928227 6.735211,-3.817051 2.047657,-3.972106 1.720537,-7.157551 -0.912748,-8.88834 -1.33442,-0.877074 -2.06628,-2.057455 -1.764607,-2.846051 0.730243,-1.908932 -1.401299,-4.136058 -3.95855,-4.136058 -1.191772,0 -2.426779,-0.421875 -2.74446,-0.9375 -0.831397,-1.349433 -2.563728,-1.157053 -2.11049,0.234375 0.209947,0.644531 1.74149,1.623003 3.403429,2.174382 3.672538,1.218433 4.185295,2.633406 1.112048,3.068776 -1.24735,0.176706 -3.289907,0.993013 -4.539013,1.814017 -2.090439,1.373988 -2.341207,1.367073 -3.152372,-0.08693 -2.284781,-4.095438 -10.602758,-5.902105 -19.829698,-4.307018 -8.401591,1.452407 -11.297909,2.894075 -12.453437,6.198807 -0.996851,2.850929 -9.516086,35.83767 -10.24103,39.653586 -0.608749,3.2043 1.691622,9.84375 3.410567,9.84375 0.939584,0 1.588762,-1.42019 2.014769,-4.40766 0.680754,-4.77393 13.2844,-37.971981 15.142744,-39.886039 1.067886,-1.099901 5.192534,-0.323655 16.738714,3.150176 2.205154,0.663451 3.727318,3.824131 8.404093,17.450565 l 3.948828,11.505458 0.304865,22.86047 c 0.167677,12.57325 -0.06793,23.23442 -0.523548,23.69147 -1.512288,1.51701 -13.035416,2.02746 -19.107125,0.8464 -25.63786,-4.98703 -44.461931,-32.61367 -42.494146,-62.365395 0.30813,-4.658745 1.230563,-10.941549 2.049851,-13.961787 1.311088,-4.833217 1.317778,-7.416101 0.01582,-6.11008 -1.23267,1.236521 -3.476415,12.644374 -3.941342,20.038922 -0.592891,9.429787 0.983769,19.84805 4.370354,28.87844 2.802633,7.47327 10.334496,18.48526 16.109384,23.55278 11.436708,10.03581 27.585905,14.80197 40.198508,11.86389 l 3.504673,-0.8164 0,22.41358 0,22.41358 -31.962313,-0.24669 -31.962312,-0.24668 -3.473254,-16.29363 c -2.116872,-9.9306 -3.273651,-17.52747 -2.962135,-19.45312 0.477023,-2.94874 0.338946,-3.1595 -2.069895,-3.1595 -3.055467,0 -3.33346,-2.65271 2.800024,26.71875 2.368854,11.34375 5.777815,28.00781 7.575468,37.03125 1.797653,9.02344 3.482329,17.13212 3.743725,18.01928 0.429868,1.45897 -0.712731,1.64089 -11.962163,1.90466 -6.840585,0.16038 150.529868,0.29618 349.712118,0.30177 199.18224,0.006 358.27851,-0.12881 353.54725,-0.29865 z M 37.383178,235.94937 c 0,-0.59934 -7.33641,-36.79868 -7.966585,-39.30875 l -0.647261,-2.57812 31.877017,0 31.877018,0 0,21.09375 0,21.09375 -27.570094,0 c -15.163552,0 -27.570095,-0.13528 -27.570095,-0.30063 z m 671.409702,-3.80393 c -0.29685,-0.77601 -0.39802,-2.14903 -0.22482,-3.05117 0.24888,-1.29644 0.55192,-1.11842 1.44566,0.84925 0.70901,1.56099 0.79287,2.69901 0.22483,3.05117 -0.49827,0.30891 -1.14882,-0.0732 -1.44567,-0.84925 z m 1.48751,-30.52761 c 0,-2.26366 0.51973,-2.49202 1.26107,-0.55411 0.28955,0.75693 0.12427,1.62558 -0.3673,1.93033 -0.49157,0.30477 -0.89377,-0.31454 -0.89377,-1.37622 z M 236.79702,135.7504 c -3.57758,-1.80473 -3.99352,-2.42916 -5.7376,-8.61372 -1.03423,-3.66736 -2.57942,-8.28824 -3.43378,-10.26862 -2.58951,-6.00249 0.0435,-2.93546 4.92645,5.73833 2.5311,4.49618 5.53621,9.75689 6.67802,11.69048 1.14181,1.9336 1.92934,3.48945 1.75006,3.45748 -0.17928,-0.032 -2.0617,-0.93377 -4.18315,-2.00395 z m 446.19365,42.1871 c 2.72854,-2.73707 1.26618,-6.78672 -5.54073,-15.34367 -7.07707,-8.89657 -8.38622,-11.38295 -12.42574,-23.59931 -1.66536,-5.03641 -3.3584,-8.35885 -4.86543,-9.54799 -1.27122,-1.00307 -6.96708,-3.37998 -12.65748,-5.28202 -8.7816,-2.9353 -11.10626,-3.36866 -15.37233,-2.8657 -3.07705,0.36278 -5.02614,0.23441 -5.02614,-0.33104 0,-1.80891 -8.97317,-10.34277 -10.87521,-10.34277 -1.05556,0 -2.68041,0.84375 -3.61077,1.875 -1.89731,2.10306 -0.54074,2.52238 2.33402,0.72145 1.52413,-0.9548 2.12001,-0.87405 3.45861,0.46875 1.53327,1.53807 1.5098,1.6223 -0.45217,1.6223 -3.31271,0 -5.80775,3.22795 -5.80775,7.51378 0,3.24024 0.42249,4.02219 3.03738,5.62149 3.37066,2.06155 6.44164,2.36091 9.17359,0.89425 1.63956,-0.88021 1.80723,-0.64039 1.8025,2.57812 -0.003,1.95174 -0.46103,5.23611 -1.01816,7.29861 C 624.02849,143.3516 618.27364,150 615.81263,150 c -2.55417,0 -3.96634,2.36734 -2.76047,4.62757 1.56558,2.93446 3.20809,2.40408 10.13536,-3.27283 5.52065,-4.52417 6.65048,-6.00088 8.6074,-11.25 1.23894,-3.32324 2.53981,-6.04224 2.89082,-6.04224 0.35102,0 4.18174,1.29489 8.51272,2.87755 l 7.8745,2.87755 4.52612,9.22774 c 3.85726,7.86412 5.98771,10.76589 14.4168,19.63632 5.43988,5.72471 10.33227,10.40233 10.87199,10.39471 0.53972,-0.007 1.48598,-0.52012 2.1028,-1.13887 z M 566.84881,128.07667 c 3.84398,-1.87215 8.24017,-4.9803 10.7213,-7.58009 3.71915,-3.89703 13.29757,-9.87158 15.82614,-9.87158 0.50939,0 3.305,-0.89281 6.21245,-1.98403 5.15412,-1.93443 5.36598,-2.15708 8.47457,-8.906251 1.75357,-3.807216 3.6846,-6.922219 4.29118,-6.922219 0.60657,0 4.27412,1.1268 8.15008,2.503997 8.09321,2.875659 10.63772,2.619487 15.23035,-1.533347 l 3.03018,-2.740006 -1.91479,-1.947559 c -1.22888,-1.249901 -6.25067,-3.111487 -14.01869,-5.196747 -6.65714,-1.787053 -12.46313,-3.254734 -12.90219,-3.261513 -0.43907,-0.0068 -5.06523,4.144065 -10.28038,9.224098 -8.53721,8.316033 -9.91866,9.301796 -13.86336,9.892477 -3.5265,0.52805 -5.15468,0.26025 -8.34548,-1.372659 l -3.96419,-2.028704 -3.86422,1.883241 c -2.12531,1.035788 -4.90028,1.684575 -6.1666,1.441744 -2.858,-0.548053 -6.05175,2.583388 -5.11972,5.019818 0.55435,1.44912 0.75995,1.37927 1.74886,-0.59417 0.61637,-1.22999 1.75151,-2.43677 2.52254,-2.68173 1.10173,-0.35002 1.05171,-0.049 -0.23365,1.40603 -2.05847,2.33021 -2.04465,2.84588 0.20111,7.50862 2.03573,4.22663 3.27667,4.97641 8.23623,4.97641 l 3.37792,0 -3.19534,3.30707 c -1.8814,1.94718 -5.45254,4.13265 -8.68453,5.31477 -5.55563,2.03202 -6.88157,3.35875 -5.90583,5.90941 0.81633,2.13397 3.28416,1.7161 10.43606,-1.76708 z m -38.11474,-10.0357 c 2.83786,-1.07851 6.77996,-4.4437 6.77996,-5.78773 0,-0.47158 -1.26368,0.20922 -2.80818,1.5129 -3.23915,2.73408 -8.99237,3.94325 -17.89788,3.76166 -6.51148,-0.13278 -11.82036,-2.3111 -18.07899,-7.41813 -2.65352,-2.16528 -2.69107,-2.2881 -0.70093,-2.29251 1.15654,-0.003 2.1028,-0.39047 2.1028,-0.86201 0,-0.90063 -8.45858,-5.97014 -9.0206,-5.40635 -0.17884,0.17939 0.15345,2.7168 0.73843,5.63868 1.03486,5.16904 2.22706,6.79415 2.83982,3.871 0.23073,-1.10074 1.96106,-0.34746 7.31935,3.18636 3.85945,2.54534 8.06506,4.84993 9.3458,5.12132 3.36123,0.71224 16.35771,-0.17642 19.38042,-1.32519 z m -96.33515,-15.45423 c 0.36276,-0.94832 -0.77607,-2.874934 -3.18645,-5.390621 -2.06305,-2.153185 -8.65437,-10.587661 -14.64739,-18.743296 -10.88829,-14.817384 -10.90161,-14.830906 -17.88071,-18.155619 -8.96968,-4.272992 -16.91069,-5.097967 -22.21838,-2.30822 -3.52733,1.85398 -3.59364,1.854832 -5.37383,0.06908 -2.25088,-2.257913 -8.01214,-2.400373 -10.3737,-0.256513 -0.94001,0.853349 -1.70911,2.79213 -1.70911,4.308398 0,1.516269 -0.83823,3.937725 -1.86274,5.381013 -2.29855,3.238095 -2.78198,6.67836 -1.02571,7.299237 0.89799,0.31746 1.13596,-0.008 0.74779,-1.022718 -0.31315,-0.818597 0.17371,-2.408885 1.08192,-3.533972 1.43903,-1.782681 1.92999,-1.895986 3.81964,-0.881515 1.19662,0.642414 3.57682,0.934825 5.31121,0.652492 1.72857,-0.281384 3.14285,-0.214479 3.14285,0.148678 0,1.563661 -8.70961,10.471832 -10.23841,10.471832 -2.53407,0 -4.35941,2.618841 -3.15863,4.531709 1.9608,3.123593 4.07594,2.216206 11.32505,-4.858403 6.62289,-6.463472 16.6012,-12.835219 20.01022,-12.777717 1.41235,0.02382 7.10953,2.754135 12.28411,5.887024 1.97275,1.194381 8.19207,7.630759 13.8207,14.303062 6.83194,8.098731 11.54238,12.818835 14.17018,14.199275 4.76797,2.50471 5.24156,2.55848 5.96139,0.67679 z M 531.77571,99.375 c 1.02804,-1.03125 1.86916,-2.251744 1.86916,-2.712197 0,-1.158675 2.52726,-2.02289 4.12126,-1.409297 0.72465,0.278944 1.57378,1.531322 1.88697,2.783081 0.31319,1.25175 1.01033,2.275913 1.54919,2.275913 1.2785,0 0.15573,-3.696656 -1.80073,-5.928872 -0.90655,-1.034309 -2.33204,-1.550346 -3.60718,-1.305825 -1.41597,0.271524 -2.27637,-0.126848 -2.62006,-1.213116 -0.28146,-0.889573 -1.34213,-2.371242 -2.35705,-3.292597 -1.01491,-0.921355 -1.84529,-2.863403 -1.84529,-4.315659 0,-9.258541 -11.31146,-21.443931 -19.90599,-21.443931 -5.65626,0 -7.73214,2.622875 -9.06937,11.459185 -0.64586,4.267761 -1.46616,8.312771 -1.82289,8.988911 -0.4478,0.848767 -2.25615,-0.602381 -5.84133,-4.6875 -4.05697,-4.622696 -6.26324,-6.292659 -10.08708,-7.635061 -6.97069,-2.447139 -8.09608,-0.920062 -3.16909,4.300223 7.09075,7.51285 13.22309,15.232129 13.58891,17.105492 0.25555,1.308638 1.11125,1.875 2.83288,1.875 1.3567,0 2.78448,0.316406 3.17283,0.703125 2.14738,2.138325 6.93664,-1.560754 6.93664,-5.35764 0,-3.24304 2.64979,-4.399096 7.84961,-3.424631 5.56782,1.043433 7.38712,2.514866 6.09767,4.93175 -1.31936,2.472942 -0.36432,4.956677 2.9968,7.793721 3.39724,2.867515 6.69231,3.049665 9.22414,0.509925 z m -20.3271,-19.716714 c -1.15654,-0.466326 -2.1028,-1.283335 -2.1028,-1.815576 0,-1.529748 1.43032,-1.133015 3.27103,0.90729 1.87706,2.080615 1.83001,2.117197 -1.16823,0.908286 z m -35.2734,15.017889 c 0.32152,-0.52185 -0.68598,-3.176464 -2.23888,-5.899141 -1.55291,-2.722677 -4.12223,-8.996662 -5.70961,-13.942188 -1.58738,-4.945526 -3.71371,-9.74314 -4.72517,-10.661363 -2.02723,-1.84035 -1.71092,-1.900478 -14.78065,2.809699 -3.78763,1.365016 -7.10205,2.265715 -7.36539,2.001553 -0.26334,-0.264162 -0.68813,-3.55395 -0.94399,-7.31064 -0.25586,-3.75669 -0.83113,-7.53996 -1.27838,-8.407269 -0.70015,-1.357762 0.17851,-1.798239 6.32215,-3.169342 3.92443,-0.87583 8.9497,-1.642777 11.16727,-1.704327 4.83846,-0.134292 6.87754,-1.6647 5.09256,-3.822174 -1.53123,-1.850795 -7.03614,-1.864073 -16.53944,-0.03989 -4.02886,0.773348 -7.44514,1.40616 -7.59173,1.40625 -0.14658,8.8e-5 0.16884,-0.815855 0.70094,-1.813208 1.47758,-2.769516 1.15639,-8.610821 -0.57926,-10.534688 -1.90201,-2.108268 -6.16828,-2.215273 -9.18807,-0.230449 -1.24179,0.816197 -3.01438,1.25589 -3.93908,0.977095 -1.79605,-0.541504 -4.16858,2.006173 -5.3473,5.742035 -0.90484,2.867834 1.12536,2.770236 2.2157,-0.106514 0.46192,-1.21874 1.50291,-2.471125 2.31332,-2.783078 1.13374,-0.436415 1.47346,0.06243 1.47346,2.163611 0,1.520342 0.98057,3.87435 2.21218,5.31066 2.06594,2.409289 2.12554,2.787915 0.90147,5.726664 -1.4548,3.492731 -1.12055,6.737561 1.65207,16.037408 0.97699,3.27697 1.77633,6.894838 1.77633,8.039706 0,1.144868 1.07511,3.094748 2.38913,4.333067 3.50453,3.302615 7.85778,2.894832 16.84915,-1.57831 l 7.55604,-3.759074 1.69213,2.878243 c 0.93066,1.583033 2.38538,5.07128 3.2327,7.751661 1.1741,3.714108 2.53125,5.663341 5.7051,8.194026 4.31623,3.441564 5.97681,4.010542 6.97525,2.38998 z M 392.52337,47.775152 c 0,-0.536167 -0.84967,-2.645542 -1.88815,-4.6875 -1.95261,-3.839392 -4.3025,-5.113443 -3.45826,-1.874981 0.42739,1.639419 -0.19101,1.501717 -5.73212,-1.276418 -3.41615,-1.712749 -8.48577,-3.652503 -11.26582,-4.310566 -6.7165,-1.589854 -19.53424,-0.712229 -27.14108,1.858334 -7.44529,2.515976 -16.86971,7.246129 -16.86971,8.466974 0,1.275074 0.15271,1.23037 4.91175,-1.437817 7.29794,-4.091646 17.46371,-7.08035 26.07651,-7.666412 8.96371,-0.60994 14.01776,0.316487 22.52262,4.128472 4.36211,1.955156 5.17683,2.657005 4.30607,3.709487 -1.3265,1.603334 -1.13863,1.793016 2.93072,2.958961 4.39904,1.260411 5.60747,1.288742 5.60747,0.131466 z M 598.13086,42.1875 c 0,-3.609375 -0.22508,-6.5625 -0.50017,-6.5625 -1.41168,0 -5.10731,3.213752 -5.10731,4.441364 0,1.149899 0.2612,1.195761 1.40187,0.246136 1.21507,-1.011575 1.40187,-0.527199 1.40187,3.635208 0,3.643704 0.33821,4.802292 1.40187,4.802292 1.11259,0 1.40187,-1.354166 1.40187,-6.5625 z m 11.27793,5.080124 c 0.96563,-1.167144 0.98828,-1.864912 0.10651,-3.28125 -0.87016,-1.397715 -0.87016,-2.200033 0,-3.597748 0.88177,-1.416338 0.85912,-2.114106 -0.10651,-3.28125 -2.83588,-3.427704 -9.07112,-0.407662 -6.77453,3.28125 0.87017,1.397715 0.87017,2.200033 0,3.597748 -1.42628,2.290978 0.35958,4.763626 3.44052,4.763626 1.15917,0 2.65948,-0.66707 3.33401,-1.482376 z m -4.57076,-1.848394 c 0.42269,-2.036356 2.08133,-2.160958 2.4607,-0.184855 0.19701,1.02619 -0.26137,1.640625 -1.22395,1.640625 -0.89788,0 -1.41305,-0.60641 -1.23675,-1.45577 z m 0.43253,-4.819717 C 604.15359,39.479054 604.66709,37.5 606.07478,37.5 c 0.77103,0 1.40187,0.607914 1.40187,1.350922 0,1.566228 -1.33391,2.623505 -2.20609,1.748591 z m 13.82158,6.677272 c 3.10372,-3.11342 1.09807,-11.651785 -2.73698,-11.651785 -2.34879,0 -4.20561,2.897416 -4.20561,6.5625 0,3.665084 1.85682,6.5625 4.20561,6.5625 0.69759,0 1.92924,-0.662947 2.73698,-1.473215 z m -3.70678,-1.562022 c -0.82255,-2.150254 -0.12197,-7.746013 0.9698,-7.746013 1.28159,0 1.76134,7.045649 0.56168,8.249059 -0.66721,0.669299 -1.14276,0.513094 -1.53148,-0.503046 z M 627.57011,38.4375 c 0,-1.718183 -0.56237,-2.423857 -2.10698,-2.643878 -2.29637,-0.327105 -3.60062,1.683377 -2.67009,4.115881 0.33776,0.882939 1.40627,1.351899 2.67009,1.171875 1.54461,-0.220021 2.10698,-0.925695 2.10698,-2.643878 z m -3.27103,0 c 0,-0.515625 0.42056,-0.9375 0.93458,-0.9375 0.51402,0 0.93458,0.421875 0.93458,0.9375 0,0.515625 -0.42056,0.9375 -0.93458,0.9375 -0.51402,0 -0.93458,-0.421875 -0.93458,-0.9375 z"
       id="path3752"
       inkscape:connector-curvature="0" />
    <path
       style="fill:#0000fe"
       d="m 720.09348,202.31964 c -1.02699,-2.37731 -4.55573,-3.3483 -6.44682,-1.77393 -1.81753,1.51313 -3.26775,-2.50408 -2.70666,-7.49761 1.00391,-8.93445 -2.83674,-15.42727 -7.78717,-13.16465 -2.15319,0.98412 -2.21823,0.89185 -2.21823,-3.1465 0,-2.2882 -0.45326,-7.23619 -1.00724,-10.99553 -0.7697,-5.2233 -0.73502,-7.49841 0.1471,-9.64767 0.99728,-2.42986 1.21102,-2.55741 1.57101,-0.9375 0.53063,2.38777 2.95812,5.15625 4.52116,5.15625 0.66222,0 1.85872,-0.93762 2.6589,-2.0836 1.77966,-2.54877 1.68679,-3.22224 1.86158,13.49921 l 0.14383,13.75935 4.26522,4.57411 c 4.17133,4.47344 6.84204,10.02151 6.23552,12.95361 -0.22415,1.08365 -0.54825,0.9016 -1.2382,-0.69554 z M 242.37742,150.93862 c -9.00904,-1.88056 -17.14377,-7.0361 -17.14377,-10.8652 0,-0.9465 0.6403,-0.86759 2.73215,0.33672 2.59488,1.49392 2.83254,1.4818 4.73041,-0.24111 1.12235,-1.01889 1.81035,-2.53486 1.56957,-3.45848 -0.37475,-1.43753 0.13845,-1.35614 4.079,0.64693 2.47924,1.26025 4.77061,3.12233 5.09196,4.13796 0.937,2.96151 5.73701,7.56706 7.88655,7.56706 1.20706,0 2.7304,-1.18491 3.91709,-3.04688 l 1.94187,-3.04687 -0.61524,2.8125 c -0.33838,1.54687 -1.11327,3.3203 -1.72196,3.94093 -1.54021,1.57042 -7.83131,2.18422 -12.46763,1.21644 z M 132.74316,138.81163 c -2.33799,-4.38223 0.33681,-18.88107 4.81654,-26.10824 1.91116,-3.08331 2.1933,-3.24954 2.44968,-1.44335 0.50901,3.58595 2.70325,4.62148 5.84631,2.75902 3.60693,-2.13732 3.48112,-1.07096 -0.90171,7.64238 -2.48067,4.93172 -4.56724,7.78427 -6.53532,8.93445 -3.57545,2.08953 -5.10786,4.8163 -4.36817,7.77268 0.67978,2.71692 0.0243,2.93906 -1.30733,0.44306 z m 510.19002,-2.91735 c -5.33701,-1.98036 -6.91416,-2.97364 -6.78958,-4.27609 0.44185,-4.61954 -3.89502,-6.60796 -7.44844,-3.41507 -1.7837,1.60272 -1.80986,1.5648 -1.13265,-1.64062 0.87339,-4.13397 0.56668,-3.88503 5.46963,-4.43939 3.17725,-0.35924 6.58695,0.34423 14.51835,2.99535 12.06468,4.03268 15.21782,6.03297 13.25322,8.40757 -0.89166,1.07773 -1.58354,1.25418 -2.25941,0.5762 -1.69566,-1.70095 -4.09865,-1.06529 -6.41588,1.69719 l -2.24337,2.67442 -6.95187,-2.57956 z M 580.84114,113.4375 c -0.31769,-0.51562 -1.39391,-0.9375 -2.39161,-0.9375 -1.51729,0 -1.814,-0.66628 -1.814,-4.07345 0,-5.15177 1.74001,-6.76919 8.21644,-7.6376 3.14143,-0.42123 5.92843,-1.492859 7.64021,-2.937734 1.48214,-1.251038 2.93883,-1.878554 3.23706,-1.394485 0.29824,0.484069 2.22777,1.165781 4.28786,1.514916 4.05864,0.687844 6.07613,3.078743 5.1276,6.076653 -0.49954,1.57884 -8.96189,5.6392 -11.75287,5.6392 -0.51182,0 -3.00543,1.05469 -5.54135,2.34375 -5.08072,2.58264 -6.15213,2.79759 -7.00934,1.40625 z m -278.82197,-2.52385 c -0.86816,-0.34733 -0.58171,-0.8376 0.93458,-1.59956 1.49349,-0.7505 2.1987,-1.93314 2.22511,-3.73156 0.0448,-3.0451 0.9592,-3.6672 7.72627,-5.25602 2.72866,-0.640654 6.13731,-2.157547 7.57477,-3.370869 l 2.61356,-2.206041 -0.44175,2.318081 c -0.24296,1.274953 0.0798,2.948489 0.71724,3.718959 1.40937,1.70349 5.69669,1.83575 7.42237,0.22899 1.00887,-0.93935 1.12488,-0.93472 0.58467,0.0233 -1.05059,1.86321 -12.70149,7.42121 -18.97498,9.05192 -5.80923,1.51002 -8.19197,1.69885 -10.38184,0.82276 z M 525.26938,81.405128 c -1.80656,-1.46911 -3.1184,-1.747975 -6.10756,-1.298323 -3.38274,0.508859 -4.10724,0.258107 -6.50355,-2.250921 -2.47143,-2.587675 -2.57552,-2.961992 -1.24598,-4.480354 2.59859,-2.967639 2.86821,-5.612918 0.78506,-7.702575 -2.10248,-2.109051 -1.08185,-2.524512 2.11644,-0.861525 5.37333,2.793925 9.81257,7.485741 11.85204,12.526371 1.16375,2.876269 1.9558,5.389043 1.7601,5.583941 -0.1957,0.194897 -1.39115,-0.48758 -2.65655,-1.516614 z m -88.49149,-1.711355 c -2.64414,-1.070181 -2.85738,-1.487809 -5.1254,-10.037545 -3.49526,-13.176076 -3.80938,-15.775917 -2.31957,-19.198166 1.07362,-2.466251 1.3716,-2.699256 1.43198,-1.119729 0.10639,2.783577 2.25148,4.293125 5.08635,3.579393 2.7556,-0.693774 2.97886,-0.09508 3.77221,10.115714 0.43408,5.586862 0.28067,6.427413 -1.33108,7.292686 -2.95484,1.586326 -3.35829,5.34004 -0.86058,8.007027 2.33948,2.498054 2.30967,2.560094 -0.65391,1.36062 z m -41.40995,-8.863187 c -0.61745,-0.746303 -3.0062,-2.078501 -5.30834,-2.960443 -3.90976,-1.497815 -4.3999,-1.501068 -7.43473,-0.04933 -4.06584,1.944922 -4.04754,1.946787 -3.44837,-0.351634 0.68935,-2.644302 -2.368,-5.845925 -5.08497,-5.324921 -3.52879,0.676679 -2.50771,-2.08116 1.37272,-3.707573 4.76996,-1.999242 12.54777,-1.185548 19.77741,2.069059 5.51666,2.483466 5.65271,2.627239 3.75066,3.963653 -1.51032,1.061171 -1.88716,2.129889 -1.60523,4.552411 0.39632,3.405372 -0.23232,3.968519 -2.01915,1.808784 z M 72.055361,66.981629 c -4.318152,-1.226542 -8.208339,-2.008653 -8.64486,-1.738024 -0.436523,0.270628 -0.793677,-0.31121 -0.793677,-1.292975 0,-0.981766 -0.858166,-2.564085 -1.907037,-3.516267 -1.822754,-1.654724 -2.028759,-1.659109 -4.661187,-0.09924 -2.195878,1.301191 -2.64819,1.355013 -2.231416,0.265522 0.673818,-1.76143 4.00781,-3.000414 11.759717,-4.370164 8.804102,-1.555672 16.241196,0.142325 18.978526,4.333074 1.38157,2.11513 1.357758,2.248942 -0.400186,2.248942 -2.092798,0 -5.207385,4.068963 -4.274098,5.583772 0.331652,0.538301 0.473042,0.941986 0.314202,0.89708 -0.15884,-0.04491 -3.821834,-1.085181 -8.139984,-2.311723 z"
       id="path3750"
       inkscape:connector-curvature="0" />
    <path
       style="fill:#fe0000"
       d="M 69.751475,147.57519 C 57.899311,144.69744 47.080214,136.71653 39.384365,125.17433 31.156222,112.83379 27.403364,98.810391 28.340451,83.90625 c 0.464926,-7.394548 2.708672,-18.802401 3.941341,-20.038922 1.301953,-1.306021 1.295263,1.276863 -0.01582,6.11008 -3.578081,13.190298 -2.537213,30.775122 2.544708,42.991342 10.998957,26.43992 36.954071,39.95757 60.668365,31.59662 7.065507,-2.49109 13.573827,-6.71317 11.924507,-7.73569 -0.70106,-0.43462 -0.9435,-1.12242 -0.53875,-1.52842 0.86712,-0.86984 8.3375,-3.17645 8.79646,-2.71607 0.17337,0.17391 -0.8582,2.26496 -2.29239,4.64676 -2.47867,4.11644 -4.02307,5.42579 -4.02307,3.41079 0,-0.50587 -2.6285,0.52931 -5.84112,2.3004 -10.427127,5.74839 -22.392606,7.39045 -33.753203,4.63205 z M 509.35365,119.36616 c -1.28074,-0.27139 -5.48635,-2.57598 -9.3458,-5.12132 -5.35829,-3.53382 -7.08862,-4.2871 -7.31935,-3.18636 -0.61276,2.92315 -1.80496,1.29804 -2.83982,-3.871 -0.58498,-2.92188 -0.91727,-5.45929 -0.73843,-5.63868 0.56202,-0.56379 9.0206,4.50572 9.0206,5.40635 0,0.47154 -0.94626,0.85945 -2.1028,0.86201 -1.99014,0.005 -1.95259,0.12723 0.70093,2.29251 6.25863,5.10703 11.56751,7.28535 18.07899,7.41813 8.90551,0.18159 14.65873,-1.02758 17.89788,-3.76166 1.5445,-1.30368 2.80818,-1.98448 2.80818,-1.5129 0,1.34403 -3.9421,4.70922 -6.77996,5.78773 -3.02271,1.14877 -16.01919,2.03743 -19.38042,1.32519 z M 386.9159,47.643686 c -4.06935,-1.165945 -4.25722,-1.355627 -2.93072,-2.958961 0.87076,-1.052482 0.0561,-1.754331 -4.30607,-3.709487 -8.50486,-3.811985 -13.55891,-4.738412 -22.52262,-4.128472 -8.6128,0.586062 -18.77857,3.574766 -26.07651,7.666412 -4.75904,2.668187 -4.91175,2.712891 -4.91175,1.437817 0,-1.220845 9.42442,-5.950998 16.86971,-8.466974 7.60684,-2.570563 20.42458,-3.448188 27.14108,-1.858334 2.78005,0.658063 7.84967,2.597817 11.26582,4.310566 5.54111,2.778135 6.15951,2.915837 5.73212,1.276418 -0.84424,-3.238462 1.50565,-1.964411 3.45826,1.874981 3.02437,5.946775 2.66614,6.38559 -3.71932,4.556034 z"
       id="path3748"
       inkscape:connector-curvature="0" />
    <path
       style="fill:#000000"
       d="m 22.250512,236.48644 c 11.249432,-0.26377 12.392031,-0.44569 11.962163,-1.90466 -0.261396,-0.88716 -1.946072,-8.99584 -3.743725,-18.01928 -1.797653,-9.02344 -5.206614,-25.6875 -7.575468,-37.03125 -6.133484,-29.37146 -5.855491,-26.71875 -2.800024,-26.71875 2.408841,0 2.546918,0.21076 2.069895,3.1595 -0.311516,1.92565 0.845263,9.52252 2.962135,19.45312 l 3.473254,16.29363 31.962312,0.24668 31.962313,0.24669 0,-22.51231 c 0,-19.38594 0.194683,-22.51231 1.401869,-22.51231 1.22643,0 1.401869,5.57291 1.401869,44.53125 l 0,44.53125 38.785045,0 38.78505,0 0,-21.09375 0,-21.09375 -26.63551,0 c -17.13396,0 -26.63552,-0.33443 -26.63552,-0.9375 0,-0.60307 9.50156,-0.9375 26.63552,-0.9375 l 26.63551,0 -0.0143,-45.23438 c -0.007,-24.8789 -0.32432,-45.72309 -0.70321,-46.32042 -0.86034,-1.356297 -22.64698,10.72862 -22.64698,12.56215 0,0.67848 -1.28921,3.79553 -2.86493,6.92675 -1.57571,3.13122 -2.6509,5.90783 -2.38931,6.17024 0.50782,0.5094 6.89139,-5.17257 18.47489,-16.44434 8.97699,-8.73541 11.43021,-8.2717 7.20271,1.36145 -2.21846,5.05518 -21.25408,26.16493 -26.56087,29.45496 -3.78966,2.34945 -9.05706,1.73969 -11.17507,-1.29365 -3.0705,-4.39745 -0.15767,-20.01187 5.14586,-27.58472 2.76634,-3.95002 2.77768,-4.01643 0.99116,-5.80852 -3.31509,-3.32546 -1.75965,-20.66452 1.85377,-20.66452 1.22645,0 1.10129,0.955368 -0.49129,3.75 -2.27936,3.999799 -1.82645,5.663306 1.36749,5.022525 1.52314,-0.305578 3.82858,-0.288928 5.12318,0.03703 2.46661,0.62101 5.19157,4.792266 5.19157,7.947024 0,1.70223 0.68914,1.54847 8.64486,-1.92877 13.70276,-5.989126 13.64354,-5.969757 14.77546,-4.834294 0.716,0.718237 0.98637,21.703604 0.91452,70.981844 l -0.10201,69.96214 22.93031,0 22.93032,0 0,-21.09375 0,-21.09375 -14.95327,0 c -9.34579,0 -14.95327,-0.35156 -14.95327,-0.9375 0,-0.58594 5.60748,-0.9375 14.95327,-0.9375 l 14.95327,0 0,-26.25 0,-26.25 -2.57009,-0.13628 c -1.41355,-0.0749 -3.89351,-0.047 -5.511,0.0623 -2.95629,0.19962 -5.9376,-2.45696 -5.9376,-5.29082 0,-1.90714 1.34188,-1.38932 2.34848,0.90625 0.5074,1.15715 1.59865,2.23119 2.425,2.38678 1.26165,0.23755 1.43149,-0.4578 1.05974,-4.33882 -0.36601,-3.82109 -0.10012,-4.96538 1.53493,-6.60554 1.08771,-1.0911 3.02905,-1.98382 4.31409,-1.98382 2.1622,0 2.33756,-0.33212 2.35137,-4.45312 0.008,-2.44922 -0.69748,-8.57572 -1.56817,-13.61444 -1.74325,-10.088143 -1.30983,-11.68374 2.88669,-10.627187 1.68416,0.424013 2.40488,1.232081 2.40488,2.696325 0,1.149975 1.29899,3.356772 2.88665,4.904012 3.25621,3.17332 26.45232,34.23872 28.52021,38.19569 1.59133,3.04506 0.94094,6.46385 -1.68274,8.84535 -4.07437,3.69829 -20.16403,0.70612 -26.93496,-5.00905 -1.53404,-1.29484 -2.78916,-2.70618 -2.78916,-3.1363 0,-0.43013 1.16171,0.38329 2.58158,1.80759 3.60312,3.61438 12.55601,6.80134 19.58102,6.97025 6.47651,0.15572 8.15659,-0.8492 9.17076,-5.48537 l 0.61524,-2.8125 -1.94187,3.04688 c -1.18669,1.86196 -2.71003,3.04687 -3.91709,3.04687 -2.14834,0 -6.94937,-4.605 -7.88541,-7.56346 -0.32072,-1.01364 -2.21803,-2.67966 -4.21626,-3.70226 -4.30373,-2.20246 -4.64217,-2.24608 -4.64217,-0.59833 0,0.69352 -0.87334,2.05378 -1.94075,3.02279 -1.8198,1.65204 -2.10574,1.66685 -4.58801,0.23778 -2.54201,-1.46347 -2.66869,-1.44389 -3.18668,0.49283 -0.29668,1.1093 -0.54516,23.00518 -0.55218,48.65752 l -0.0128,46.64063 22.42991,0 22.42991,0 0,-21.09375 0,-21.09375 -12.14954,0 c -7.47663,0 -12.14953,-0.36058 -12.14953,-0.9375 0,-0.57692 4.6729,-0.9375 12.14953,-0.9375 l 12.14954,0 0,-43.40625 c 0,-26.9099 -0.34589,-43.75322 -0.91013,-44.31922 -0.50057,-0.50213 -0.65582,-2.48494 -0.34501,-4.40625 0.46756,-2.890205 0.94737,-3.49328 2.77928,-3.49328 1.2178,0 2.21417,0.558994 2.21417,1.242216 0,1.298812 0.29793,1.3332 14.01869,1.618134 4.36916,0.09075 8.40672,0.538247 8.97237,0.99448 3.65134,2.94506 20.76793,-0.634377 25.77326,-5.389733 4.04417,-3.842185 17.68355,-23.96019 21.72502,-32.044254 3.93688,-7.874848 5.75693,-8.36193 5.52289,-1.478034 -0.12475,3.669332 -1.78994,7.968668 -8.31307,21.463441 -4.48638,9.28125 -8.44137,17.50781 -8.78887,18.28125 -1.05026,2.33766 -13.13725,8.24272 -20.45749,9.99445 -6.53074,1.56281 -7.01568,1.56363 -9.70292,0.0166 l -2.82861,-1.62847 -3.95461,4.32084 c -3.19199,3.48761 -4.46093,4.26127 -6.58015,4.01187 -1.44405,-0.16995 -2.79691,-0.83257 -3.00636,-1.4725 -0.27092,-0.82775 0.41721,-1.0034 2.38468,-0.60868 1.59757,0.32051 3.034,0.11902 3.40129,-0.47712 0.39938,-0.64828 -0.25348,-1.03199 -1.75582,-1.03199 -3.17984,0 -6.12992,-3.10564 -6.12992,-6.45316 0,-3.0089 -1.63455,-3.82434 -7.71028,-3.84654 l -3.50468,-0.0128 0,66.09375 0,66.09375 211.45744,0 c 210.44528,0 211.46302,-0.009 212.62475,-1.875 0.68858,-1.10604 2.17946,-1.875 3.63532,-1.875 l 2.46801,0 -0.66602,-17.52375 c -0.93856,-24.69439 0.11815,-22.40051 -10.64591,-23.10979 -7.24481,-0.47737 -9.3477,-0.95664 -10.86182,-2.4755 -1.76658,-1.7721 -1.78375,-1.97772 -0.2902,-3.47593 1.49259,-1.49726 1.78587,-1.49748 4.90857,-0.004 1.82663,0.87378 4.82383,1.58869 6.66045,1.58869 2.83097,0 3.22993,-0.24975 2.62078,-1.64062 -0.3952,-0.90235 -0.90108,-3.18221 -1.12419,-5.06636 -0.46339,-3.91328 2.10349,-7.35549 5.48507,-7.35549 1.71359,0 1.9023,-0.40083 1.43447,-3.04688 -1.43938,-8.14104 -1.5545,-12.52591 -0.38719,-14.74714 1.05665,-2.01066 0.9982,-2.54977 -0.43194,-3.98438 -1.09214,-1.09555 -1.65393,-3.0921 -1.65393,-5.87785 0,-5.81802 2.41377,-8.19207 7.98002,-7.8487 2.25979,0.13939 4.40276,-0.0415 4.76217,-0.40205 2.19332,-2.20019 6.66302,0.88023 5.49306,3.78569 -0.58907,1.46288 -0.76185,1.40144 -1.50527,-0.53533 -1.34696,-3.50915 -3.10948,-1.88433 -3.14576,2.90001 l -0.0328,4.3278 2.1955,-2.05121 c 1.20752,-1.12817 2.89141,-3.52777 3.74196,-5.33246 1.6635,-3.52958 5.33347,-4.97858 6.28821,-2.48276 0.7359,1.92371 -0.9304,4.79302 -6.61396,11.38901 l -4.8469,5.625 0.16285,15.20457 0.16284,15.20457 4.22888,4.53514 c 4.64382,4.98013 6.87238,10.23542 5.93284,13.99055 -0.33426,1.33595 -3.13388,5.06794 -6.22138,8.29329 l -5.61364,5.86429 3.8573,7.69576 c 2.12151,4.23266 3.63862,8.26739 3.37135,8.96605 -0.38223,0.9992 1.34989,1.3362 8.11635,1.57909 4.73124,0.16984 -154.36503,0.30423 -353.54727,0.29865 -199.18225,-0.006 -356.552703,-0.14139 -349.712118,-0.30177 z m 70.272855,-21.33019 0,-21.09375 -31.877018,0 -31.877017,0 0.647261,2.57812 c 0.630175,2.51007 7.966585,38.70941 7.966585,39.30875 0,0.16535 12.406543,0.30063 27.570095,0.30063 l 27.570094,0 0,-21.09375 z m 615.617923,9.60769 c 0.10854,-6.31548 0.65919,-17.04 1.22365,-23.83228 0.73747,-8.87407 0.74182,-13.40939 0.0154,-16.11534 -1.12565,-4.19343 -3.46472,-5.54947 -6.63582,-3.84705 -1.96577,1.05535 -1.98575,1.31676 -1.20352,15.75506 0.43747,8.07506 0.79542,19.52855 0.79542,25.45221 l 0,10.77029 -2.72664,0.47971 c -1.49965,0.26384 -2.90152,1.00705 -3.11527,1.65158 -0.28363,0.8553 1.2104,1.17142 5.53038,1.17019 l 5.919,-0.002 0.19735,-11.4827 z m 8.30482,10.18011 c 0.27477,-0.71827 -1.14434,-4.58335 -3.15356,-8.58906 l -3.65313,-7.28312 -0.56122,3.46913 c -0.41813,2.58471 -0.0582,4.32426 1.41163,6.82329 1.80935,3.07621 1.84369,3.42665 0.4144,4.22901 -2.5678,1.44151 -1.77103,2.6567 1.74194,2.6567 1.95886,0 3.50343,-0.53083 3.79994,-1.30595 z m -6.43239,-5.00053 c -0.89374,-1.96767 -1.19678,-2.14569 -1.44566,-0.84925 -0.43203,2.25031 0.56755,4.58421 1.67049,3.90042 0.56804,-0.35216 0.48418,-1.49018 -0.22483,-3.05117 z m 10.63,-24.83192 c 1.66734,-4.03788 -0.30742,-9.43038 -5.488,-14.98615 l -4.32478,-4.63799 -0.14383,-13.75935 c -0.17479,-16.72145 -0.082,-16.04798 -1.86158,-13.49921 -0.80018,1.14598 -1.99668,2.0836 -2.6589,2.0836 -1.56304,0 -3.99053,-2.76848 -4.52116,-5.15625 -0.35999,-1.61991 -0.57373,-1.49236 -1.57101,0.9375 -0.88212,2.14926 -0.9168,4.42437 -0.1471,9.64767 0.55398,3.75934 1.00724,8.70733 1.00724,10.99553 0,4.03835 0.065,4.13062 2.21823,3.1465 5.54302,-2.53346 8.51637,3.75576 7.64918,16.17952 -0.32538,4.66147 -0.18514,7.27658 0.3717,6.93136 0.49181,-0.30491 0.66263,-1.27915 0.37957,-2.16498 -0.39476,-1.23545 -0.30362,-1.31433 0.39129,-0.33864 0.63338,0.88931 1.09823,0.95982 1.54519,0.23438 1.57666,-2.55908 7.13856,-0.44472 7.01176,2.66553 -0.0364,0.89138 -0.38598,0.63769 -0.90446,-0.65625 -1.14459,-2.85648 -4.66972,-2.73169 -7.47587,0.26467 -1.77471,1.89498 -2.2979,3.64486 -2.59282,8.67188 l -0.36946,6.29783 5.18316,-5.07422 c 2.85074,-2.79082 5.68648,-6.29314 6.30165,-7.78293 z m -20.6437,-15.82865 c 0,-1.85511 -0.32415,-1.92931 -5.69597,-1.3039 -4.49715,0.52359 -6.47067,0.31273 -9.3768,-1.00185 -2.72547,-1.23286 -3.95358,-1.3914 -4.73171,-0.61083 -1.65134,1.65649 0.72206,3.78502 4.68869,4.20495 1.88845,0.19992 6.06205,0.43441 9.27467,0.52109 5.3591,0.14459 5.84112,-0.005 5.84112,-1.80946 z m 0,-4.28726 c 0,-2.1613 -2.73343,-4.99569 -4.81775,-4.99569 -1.91538,0 -2.23168,1.98476 -0.75685,4.74913 1.22406,2.29431 5.5746,2.48673 5.5746,0.24656 z m 13.71895,-33.58944 c 8.8614,-10.13585 10.60497,-13.59375 6.85434,-13.59375 -1.21309,0 -2.29862,1.06117 -3.13182,3.06152 -1.35135,3.24435 -6.49235,8.24027 -11.57529,11.24865 -3.17914,1.8816 -3.89102,4.17116 -1.91367,6.1547 1.8024,1.80803 2.77967,1.12048 9.76644,-6.87112 z m -8.98462,0.43577 c 3.71844,-1.99628 0.82841,-7.46702 -3.9446,-7.46702 -2.31686,0 -2.65889,0.35317 -2.65889,2.74553 0,2.69583 2.03526,5.69197 3.86651,5.69197 0.5111,0 1.74274,-0.43672 2.73698,-0.97048 z m -450.05708,-6.53799 c 1.00573,-1.95094 1.18066,-3.32434 0.5672,-4.45312 -1.50481,-2.76889 -25.14081,-34.31664 -27.38676,-36.55403 -1.1646,-1.16016 -2.42903,-2.10938 -2.80984,-2.10938 -0.38082,0 -0.5705,7.86588 -0.42152,17.47973 0.26234,16.92885 0.33835,17.53454 2.41179,19.21875 2.54932,2.07077 4.12909,2.19785 5.57633,0.44858 1.10275,-1.33288 -1.53545,-11.42084 -5.59218,-21.38335 -0.98375,-2.4159 -1.78864,-5.10952 -1.78864,-5.98581 0,-2.61277 3.44807,2.37598 12.31528,17.81803 4.46032,7.76755 8.94952,15.07204 9.97601,16.23219 2.62567,2.9676 5.39786,2.69178 7.15233,-0.71159 z M 225.45047,129.375 c 0,-1.80469 0.19234,-2.54297 0.42741,-1.64062 0.23507,0.90234 0.23507,2.3789 0,3.28124 -0.23507,0.90235 -0.42741,0.16407 -0.42741,-1.64062 z m -82.00107,10.3178 c 5.1704,-3.20547 23.36908,-23.47882 25.56896,-28.48385 1.98225,-4.50988 2.52451,-7.14645 1.46983,-7.14645 -0.29692,0 -5.68208,4.86331 -11.96702,10.80736 -6.28494,5.94406 -13.71724,12.32417 -16.51622,14.17804 -7.63933,5.0598 -9.14243,7.84588 -5.95688,11.04138 1.94879,1.95489 3.76557,1.85757 7.40133,-0.39648 z m -9.46504,-1.81815 c -0.42888,-2.15108 -0.0428,-3.22352 1.77187,-4.92188 4.68911,-4.38859 7.16041,-6.15376 7.80658,-5.57601 0.36416,0.32559 0.3699,0.0814 0.0128,-0.54263 -0.35713,-0.62404 0.62684,-3.6706 2.18661,-6.77014 3.55701,-7.06841 3.57306,-8.10678 0.0935,-6.04493 -3.14305,1.86246 -5.3373,0.82693 -5.8463,-2.75902 -0.25638,-1.80619 -0.53852,-1.63996 -2.44969,1.44335 -4.47973,7.22717 -7.15452,21.72601 -4.81653,26.10824 1.3887,2.60291 1.87393,2.2366 1.2412,-0.93698 z m 105.24575,-3.57778 c -1.14181,-1.93359 -4.14692,-7.1943 -6.67802,-11.69048 -4.8885,-8.68378 -7.50467,-11.72639 -4.93408,-5.73833 0.85015,1.98038 2.39257,6.55381 3.42759,10.16319 1.03503,3.60937 2.25619,6.704 2.71369,6.87695 0.45749,0.17295 0.55392,0.76547 0.21429,1.31672 -0.36037,0.58491 -0.17743,0.72945 0.4393,0.3471 0.58126,-0.36036 2.22334,-0.0205 3.64908,0.7551 1.42574,0.77567 2.73893,1.4272 2.91821,1.44784 0.17928,0.0206 -0.60825,-1.54449 -1.75006,-3.47809 z M 221.49533,129.375 c 0,-3.125 -0.31152,-3.75 -1.86916,-3.75 -2.34635,0 -2.53228,3.33607 -0.32244,5.78556 2.10326,2.33133 2.1916,2.24928 2.1916,-2.03556 z m -63.67246,-23.02237 c 7.77686,-4.41232 14.13975,-8.389196 14.13975,-8.837518 0,-0.448321 0.73598,-1.041853 1.63552,-1.31895 0.89953,-0.277096 0.58411,-0.351028 -0.70094,-0.164278 -1.28505,0.18675 -6.75234,2.315035 -12.14953,4.729516 -5.3972,2.4145 -12.02103,5.22999 -14.71963,6.25665 -3.92403,1.49288 -4.90654,2.29122 -4.90654,3.98681 0,2.13974 0.69508,3.37014 1.90387,3.37014 0.36176,0 7.02064,-3.61007 14.7975,-8.02237 z m 154.60189,3.74295 c 5.94743,-1.50433 18.85755,-7.81844 18.56933,-9.08193 -0.0885,-0.38781 3.60548,-8.252431 8.20875,-17.476942 5.74415,-11.510731 8.56822,-18.273987 9.00284,-21.560524 0.3742,-2.829676 0.27198,-4.788684 -0.24988,-4.788684 -0.48573,0 -2.11701,2.613359 -3.62507,5.807466 -1.50807,3.194105 -6.68832,11.526136 -11.51167,18.515625 -6.7272,9.748325 -8.79507,13.47239 -8.87851,15.989409 -0.10513,3.17152 0.006,3.28125 3.30779,3.28125 1.87911,0 3.22111,0.31641 2.98223,0.70313 -0.76947,1.24567 -5.66566,0.74779 -6.86162,-0.69774 -0.63745,-0.77047 -0.9602,-2.444006 -0.71724,-3.718959 l 0.44175,-2.318081 -2.61356,2.206041 c -1.43746,1.213322 -4.84611,2.730215 -7.57477,3.370869 -6.76707,1.58882 -7.68154,2.21092 -7.72627,5.25602 -0.0265,1.79842 -0.73162,2.98106 -2.22511,3.73156 -1.51629,0.76196 -1.80274,1.25223 -0.93458,1.59956 2.17287,0.86928 4.43883,0.69114 10.40559,-0.81807 z m -7.92879,-3.86027 c 0.35977,-2.53495 -2.78505,-4.42987 -6.24565,-3.76336 -1.35076,0.26014 -4.13816,0.1056 -6.19424,-0.34345 l -3.73832,-0.81645 3.97218,0.34855 c 2.28849,0.2008 3.74524,-0.0198 3.43682,-0.5204 -0.29445,-0.47791 -3.13333,-0.75419 -6.30863,-0.61394 -3.17529,0.14024 -7.72239,-0.08 -10.10467,-0.48936 -3.57207,-0.613853 -4.62603,-0.4495 -6.01204,0.9375 -1.61689,1.61806 -1.48806,1.70352 3.39683,2.25306 5.68185,0.6392 17.05332,3.6655 16.36558,4.35539 -0.24478,0.24554 -1.7282,-0.002 -3.29649,-0.55069 -3.1418,-1.09865 -4.00889,-0.52624 -0.93226,0.61543 1.05555,0.39169 4.94574,0.6945 8.64486,0.67291 6.18698,-0.0361 6.74893,-0.20312 7.01603,-2.08519 z m -83.50387,-4.4805 c -0.36157,-2.902935 -0.85151,-5.083344 -1.08874,-4.84536 -0.23724,0.237984 -0.13552,2.807813 0.22605,5.71074 0.36157,2.90293 0.8515,5.08334 1.08874,4.84536 0.23724,-0.23798 0.13552,-2.80781 -0.22605,-5.71074 z m -72.33253,3.21221 c 1.89942,-1.01972 2.36179,-4.19977 0.93859,-6.455392 -0.71552,-1.134028 -1.1998,-1.095966 -3.25672,0.255984 -2.60852,1.714518 -2.67319,1.893638 -1.82715,5.060518 0.62571,2.34212 1.47128,2.57444 4.14528,1.13889 z m 120.20316,-2.9553 c -0.29834,-0.74787 -0.5198,-0.52573 -0.56464,0.56641 -0.0406,0.98827 0.18031,1.54199 0.49086,1.23047 0.31055,-0.31153 0.34375,-1.12013 0.0737,-1.79688 z m 401.15315,66.66994 c -8.42909,-8.87043 -10.55954,-11.7722 -14.4168,-19.63632 l -4.52612,-9.22774 -7.8745,-2.87755 c -4.33098,-1.58266 -8.1617,-2.87755 -8.51272,-2.87755 -0.35101,0 -1.65188,2.719 -2.89082,6.04224 -1.95692,5.24912 -3.08675,6.72583 -8.6074,11.25 -6.92727,5.67691 -8.56978,6.20729 -10.13536,3.27283 -1.20587,-2.26023 0.2063,-4.62757 2.76047,-4.62757 2.46101,0 8.21586,-6.6484 9.33223,-10.78125 0.55713,-2.0625 1.01531,-5.34687 1.01816,-7.29861 0.005,-3.21851 -0.16294,-3.45833 -1.8025,-2.57812 -2.73195,1.46666 -5.80293,1.1673 -9.17359,-0.89425 -2.61489,-1.5993 -3.03738,-2.38124 -3.03738,-5.62149 0,-4.28583 2.49504,-7.51378 5.80775,-7.51378 1.96197,0 1.98544,-0.0842 0.45217,-1.6223 -1.3386,-1.3428 -1.93448,-1.42355 -3.45861,-0.46875 -2.87476,1.80093 -4.23133,1.38161 -2.33402,-0.72145 0.93036,-1.03125 2.55521,-1.875 3.61077,-1.875 1.90204,0 10.87521,8.53386 10.87521,10.34277 0,0.56545 1.94909,0.69382 5.02614,0.33104 4.26607,-0.50296 6.59073,-0.0696 15.37233,2.8657 5.6904,1.90204 11.38626,4.27895 12.65748,5.28202 1.50703,1.18914 3.20007,4.51158 4.86543,9.54799 4.03952,12.21635 5.34867,14.70274 12.42574,23.59931 5.04887,6.34693 6.66223,9.08263 6.66223,11.29688 0,2.92861 -1.38723,5.15971 -3.2243,5.18566 -0.53972,0.007 -5.43211,-4.67 -10.87199,-10.39471 z m 12.97104,5.61262 c 0.23836,-2.77199 -0.65095,-4.3831 -6.42859,-11.64628 -7.12154,-8.95264 -8.42615,-11.42795 -12.47241,-23.66463 -1.5552,-4.70325 -3.33328,-8.28021 -4.53613,-9.12535 -1.08806,-0.7645 -6.56534,-2.92324 -12.17174,-4.79721 -7.77884,-2.60012 -11.17706,-3.29599 -14.34591,-2.9377 -4.90295,0.55436 -4.59624,0.30542 -5.46963,4.43939 -0.67721,3.20542 -0.65105,3.24334 1.13265,1.64062 3.55342,-3.19289 7.89029,-1.20447 7.44844,3.41507 -0.12458,1.30245 1.45257,2.29573 6.78958,4.27609 l 6.95187,2.57956 2.24337,-2.67442 c 2.26994,-2.70611 5.2016,-3.49183 6.31086,-1.6914 0.40754,0.66148 1.11342,0.58481 2.15796,-0.23437 1.34796,-1.05714 1.40258,-1.02454 0.41489,0.24768 -1.87524,2.41544 5.05027,18.32268 11.63518,26.72486 3.81257,4.86475 5.96355,8.17356 4.22392,6.49756 -2.84644,-2.74233 -10.31555,-13.75302 -12.08855,-17.82052 -1.12188,-2.57371 -3.09627,-7.10526 -4.38755,-10.0701 -2.57922,-5.92202 -4.59253,-6.83967 -7.6269,-3.47625 -1.69341,1.87704 -1.62949,2.11278 3.2778,12.08966 4.33566,8.81471 6.27731,11.52157 14.5209,20.24363 5.68427,6.01421 10.04498,9.89376 10.82969,9.63475 0.72253,-0.23849 1.43815,-1.88127 1.5903,-3.65064 z m -60.28241,-23.50671 c 4.52861,-3.77694 6.25831,-5.98635 7.8899,-10.07813 1.14934,-2.88238 2.72781,-6.36278 3.5077,-7.73422 1.75899,-3.09322 0.95647,-5.47522 -1.84466,-5.47522 -3.02371,0 -4.18189,1.84276 -5.68374,9.04328 -1.10643,5.3047 -1.96281,6.99103 -5.26364,10.36484 -2.16822,2.21616 -4.67095,4.02938 -5.56163,4.02938 -2.02127,0 -2.8439,1.25219 -2.10007,3.19665 0.94673,2.47483 2.97471,1.72541 9.05614,-3.34658 z m 2.3212,-22.87198 c 1.14241,-0.80267 2.07711,-2.11996 2.07711,-2.92729 0,-1.07625 -0.315,-1.20564 -1.18065,-0.48496 -0.64936,0.5406 -3.20767,1.49492 -5.68513,2.1207 -3.07973,0.77791 -4.11041,1.38836 -3.25859,1.93001 1.97214,1.25407 5.78417,0.95162 8.04726,-0.63846 z M 92.340093,122.10938 92.038355,98.90625 88.088385,87.400793 C 83.409827,73.773105 81.888017,70.613593 79.683149,69.950227 68.136969,66.476396 64.012321,65.70015 62.944435,66.800051 c -1.858344,1.914058 -14.46199,35.112109 -15.142744,39.886039 -0.426007,2.98747 -1.075185,4.40766 -2.014769,4.40766 -1.718945,0 -4.019316,-6.63945 -3.410567,-9.84375 0.724944,-3.815916 9.244179,-36.802657 10.24103,-39.653586 1.155528,-3.304732 4.051846,-4.7464 12.453437,-6.198807 9.22694,-1.595087 17.544917,0.21158 19.829698,4.307014 0.811165,1.454002 1.061933,1.460917 3.152372,0.08692 1.249106,-0.821004 3.203181,-1.637311 4.342388,-1.814017 3.155377,-0.489436 2.827545,-1.829946 -0.736297,-3.010751 -1.760458,-0.58329 -3.372608,-1.587872 -3.582555,-2.232403 -0.453238,-1.391428 1.279093,-1.583808 2.11049,-0.234375 0.317681,0.515625 1.552688,0.9375 2.74446,0.9375 2.557251,0 4.688793,2.227126 3.95855,4.136058 -0.301673,0.788596 0.430187,1.968977 1.764607,2.846051 2.633285,1.730789 2.960405,4.916234 0.912748,8.88834 -1.489224,2.888824 -3.127084,3.817051 -6.735211,3.817051 -2.236498,0 -2.31223,0.179746 -1.678717,3.984375 1.407525,8.453047 4.059591,16.819162 5.71947,18.042422 1.653009,1.218206 1.656766,1.388503 0.08981,4.063865 -1.430075,2.441628 -1.635514,5.512208 -1.635514,24.444608 -1.9e-5,18.19689 -0.214281,21.65223 -1.342654,21.65223 -1.122839,0 -1.392036,-3.79853 -1.644377,-23.20312 z M 46.942351,106.56259 c 0.251057,-2.23433 3.701506,-12.343878 7.667667,-22.465662 3.966161,-10.121784 7.074792,-19.324832 6.908069,-20.451216 -0.498386,-3.367121 -2.956651,-4.253329 -5.877628,-2.118897 -2.203564,1.610202 -3.119919,4.11045 -7.188071,19.612451 -2.5644,9.771842 -4.877765,18.644709 -5.140811,19.717474 -0.562924,2.29574 1.270959,9.76826 2.397295,9.76826 0.427357,0 0.982423,-1.82809 1.233479,-4.06241 z M 95.952021,95.469797 C 94.264236,94.522312 93.230712,91.314414 90.653894,79.025177 88.281457,67.710664 86.606155,63.75 84.192722,63.75 c -3.696299,0 -4.046421,3.125705 -1.000706,8.933795 1.540237,2.937185 4.092264,9.51147 5.671173,14.609521 2.598562,8.390353 3.085387,9.269184 5.134617,9.269184 1.245131,0 2.297084,0.527344 2.337664,1.171875 0.05103,0.810956 0.232196,0.771141 0.588121,-0.129272 0.282897,-0.715631 -0.154318,-1.676522 -0.97157,-2.135306 z M 96.261685,70.43893 c 0,-2.473041 -3.542262,-6.68893 -5.620153,-6.68893 -2.492317,0 -2.855177,1.093606 -1.659529,5.001561 0.935561,3.05786 1.393913,3.435939 4.165458,3.435939 2.416111,0 3.114224,-0.391974 3.114224,-1.74857 z M 79.881143,68.396272 c -0.933287,-1.514809 2.1813,-5.583772 4.274098,-5.583772 1.757944,0 1.781756,-0.133812 0.400186,-2.248942 -2.73733,-4.190749 -10.174424,-5.888746 -18.978526,-4.333074 -7.751907,1.36975 -11.085899,2.608734 -11.759717,4.370164 -0.416774,1.089491 0.03554,1.035669 2.231416,-0.265522 2.632428,-1.559872 2.838433,-1.555487 4.661187,0.09924 1.048871,0.952182 1.907037,2.534501 1.907037,3.516267 0,0.981765 0.357154,1.563603 0.793677,1.292975 0.436521,-0.270629 4.326708,0.511483 8.64486,1.738024 4.31815,1.226542 7.981144,2.266818 8.139984,2.311723 0.15884,0.04491 0.01745,-0.358779 -0.314202,-0.897079 z M 556.41275,129.84375 c -0.97574,-2.55066 0.3502,-3.87739 5.90583,-5.90941 3.23199,-1.18212 6.80313,-3.36759 8.68453,-5.31477 l 3.19534,-3.30707 -3.37792,0 c -4.95956,0 -6.2005,-0.74978 -8.23623,-4.97641 -2.25567,-4.6833 -2.28386,-5.70453 -0.20111,-7.28546 1.39138,-1.05614 1.46113,-1.04529 0.46729,0.0727 -0.64252,0.72278 -1.14925,2.179 -1.12607,3.23603 0.0334,1.52014 0.30106,1.33397 1.28077,-0.89062 1.28296,-2.91319 0.58163,-4.93076 -1.30699,-3.75988 -0.59482,0.36877 -1.43047,1.57654 -1.85698,2.68394 -0.72077,1.87138 -0.82421,1.89217 -1.46623,0.29474 -0.4713,-1.17266 -0.0563,-2.35512 1.30624,-3.72192 1.73867,-1.74412 2.36076,-1.865498 4.80925,-0.9384 1.54674,0.58564 2.61052,0.73737 2.36395,0.33716 -0.24658,-0.400221 1.16489,-1.457402 3.1366,-2.349302 3.47574,-1.572234 3.70445,-1.560459 7.50914,0.386616 3.1505,1.612286 4.78804,1.878886 8.30549,1.352193 3.9447,-0.590681 5.32615,-1.576443 13.86336,-9.892476 5.21515,-5.080033 9.84131,-9.230877 10.28038,-9.224098 0.43906,0.0068 6.24505,1.474459 12.90219,3.261513 7.76802,2.085259 12.78981,3.946846 14.01869,5.196747 l 1.91479,1.947559 -3.03018,2.740005 c -4.59263,4.152835 -7.13714,4.409007 -15.23035,1.533347 -3.87596,-1.377234 -7.54351,-2.504034 -8.15008,-2.504034 -0.60658,0 -2.53761,3.115003 -4.29118,6.922219 -3.10859,6.749171 -3.32045,6.971821 -8.47457,8.906251 -2.90745,1.09122 -5.70306,1.98403 -6.21245,1.98403 -2.52857,0 -12.10699,5.97455 -15.82614,9.87158 -4.13496,4.33271 -15.4367,10.75342 -18.9282,10.75342 -0.93017,0 -1.93329,-0.63281 -2.22916,-1.40625 z m 10.43606,-2.70458 c 6.77883,-3.3015 15.16135,-10.86674 14.0462,-12.67672 -1.37029,-2.2241 -4.57975,-0.8704 -8.61766,3.63475 -3.10567,3.46505 -5.59825,5.17975 -9.72221,6.68812 -4.06756,1.48774 -5.54578,2.49471 -5.54578,3.7778 0,2.54368 2.40856,2.19511 9.83945,-1.42395 z m 8.67715,-15.29372 c 0.27046,-1.9068 0.0642,-1.9952 -2.75942,-1.18286 -1.67844,0.48288 -3.70251,1.54034 -4.49791,2.3499 -1.31152,1.33487 -1.05457,1.44502 2.75942,1.18285 3.51248,-0.24145 4.25379,-0.62874 4.49791,-2.34989 z m 12.32452,0.1858 c 2.53592,-1.28906 5.02953,-2.34375 5.54135,-2.34375 2.79098,0 11.25333,-4.06036 11.75287,-5.6392 0.94853,-2.99791 -1.06896,-5.388809 -5.1276,-6.076653 -2.06009,-0.349135 -3.96621,-0.99285 -4.23582,-1.430466 -0.26963,-0.437615 0.88193,-0.400912 2.55902,0.08156 4.57686,1.316728 4.84464,1.20764 8.05998,-3.283623 1.63833,-2.288479 3.84561,-4.436845 4.90504,-4.774149 1.79696,-0.572112 13.5388,3.075776 12.67842,3.938853 -0.20693,0.207566 -2.61388,-0.507369 -5.34881,-1.588743 -2.73492,-1.081375 -5.86386,-1.741741 -6.95319,-1.467482 -1.08933,0.274258 -3.28052,2.31442 -4.86932,4.533691 -2.55156,3.564093 -2.73911,4.240293 -1.60686,5.793562 1.19035,1.632997 1.41545,1.445857 3.15363,-2.62184 1.02949,-2.409188 2.49524,-4.620338 3.25724,-4.913656 0.76199,-0.293317 4.66366,0.631507 8.67038,2.055162 8.11164,2.882212 10.73184,2.713781 14.94922,-0.960986 2.37298,-2.067661 2.47982,-2.415479 1.15684,-3.765747 -1.17827,-1.202569 -23.49251,-7.947408 -26.44348,-7.99297 -0.43907,-0.0067 -5.07202,4.153268 -10.29548,9.24455 -9.10282,8.8725 -9.70998,9.285444 -14.62226,9.944784 -6.65775,0.89363 -8.39612,2.48009 -8.39612,7.66239 0,3.40717 0.29671,4.07345 1.814,4.07345 0.9977,0 2.07392,0.42188 2.39161,0.9375 0.85721,1.39134 1.92862,1.17639 7.00934,-1.40625 z m -9.36925,-10.28415 c 0.94597,-1.14338 0.59215,-1.63996 -2.07888,-2.917669 -2.93941,-1.406081 -3.45445,-1.411809 -5.9321,-0.06591 -2.2925,1.245335 -2.41485,1.479705 -0.78905,1.511415 1.0583,0.0206 2.74054,0.65694 3.73832,1.41398 2.32266,1.76225 3.63933,1.77739 5.06171,0.0581 z m -152.0437,0.16285 c -2.6278,-1.38044 -7.33824,-6.100544 -14.17018,-14.199275 -5.62863,-6.672303 -11.84795,-13.108681 -13.8207,-14.303062 -5.17458,-3.132889 -10.87176,-5.863201 -12.28411,-5.887024 -3.40902,-0.05751 -13.38733,6.314245 -20.01022,12.777717 -7.24911,7.074609 -9.36425,7.981996 -11.32505,4.858403 -1.20078,-1.912868 0.62456,-4.531709 3.15863,-4.531709 1.5288,0 10.23841,-8.908171 10.23841,-10.471832 0,-0.363157 -1.41428,-0.430062 -3.14285,-0.148678 -1.73439,0.282333 -4.11459,-0.01008 -5.31121,-0.652492 -1.88965,-1.014471 -2.38061,-0.901166 -3.81964,0.881515 -0.90821,1.125087 -1.39507,2.715375 -1.08192,3.533972 0.38817,1.014719 0.1502,1.340178 -0.74779,1.022718 -1.75627,-0.620877 -1.27284,-4.061142 1.02571,-7.299237 1.02451,-1.443288 1.86274,-3.864744 1.86274,-5.381013 0,-1.516268 0.7691,-3.455049 1.70911,-4.308402 2.36156,-2.14386 8.12282,-2.0014 10.3737,0.256513 1.78019,1.785752 1.8465,1.7849 5.37383,-0.06908 5.30769,-2.789747 13.2487,-1.964772 22.21838,2.308221 6.9791,3.324712 6.99242,3.338235 17.88071,18.155618 5.99302,8.155635 12.58434,16.590112 14.64739,18.743296 2.41038,2.515688 3.54921,4.442295 3.18645,5.390625 -0.71983,1.88168 -1.19342,1.82792 -5.96139,-0.67679 z m 5.33818,-0.0278 c 0,-0.68355 -1.11294,-2.265586 -2.4732,-3.515629 -1.36027,-1.250035 -7.80323,-9.452669 -14.31771,-18.228074 l -11.8445,-15.955284 -6.75162,-3.121748 c -8.21766,-3.7996 -15.84011,-4.755758 -20.92443,-2.624756 -3.88043,1.626414 -4.90151,4.384252 -1.37272,3.707573 2.71697,-0.521004 5.77432,2.680619 5.08497,5.324921 -0.59697,2.289942 -0.42955,2.313104 3.18113,0.440117 3.41297,-1.770432 6.92953,-1.16234 11.57808,2.002111 1.83896,1.251854 3.46234,2.276099 3.6075,2.276099 0.14516,0 0.0782,-1.269488 -0.14884,-2.821087 -0.41983,-2.869363 1.04448,-5.639555 2.95371,-5.587905 0.57959,0.01567 0.31782,0.458518 -0.58171,0.984085 -2.80374,1.638133 -2.06391,6.181006 1.5605,9.582079 1.75781,1.649492 7.27199,7.85064 12.25374,13.780328 5.73664,6.828244 10.47585,11.539134 12.92548,12.84826 4.56893,2.44174 5.26962,2.56259 5.26962,0.90891 z M 367.12454,78.716527 c 4.46001,-4.14341 8.87096,-8.177165 9.8021,-8.963899 3.141,-2.653882 0.2894,-8.083698 -3.48278,-6.631652 -0.86711,0.333782 -2.39537,2.463702 -3.39613,4.733157 -2.2812,5.17312 -9.83696,13.708367 -12.13524,13.708367 -2.07251,0 -3.13188,1.457768 -2.41715,3.326144 1.0149,2.653055 3.6153,1.27291 11.6292,-6.172117 z m 3.7066,-15.453316 c 0.39294,-2.751092 -3.09904,-6.075711 -6.38156,-6.075711 -2.32877,0 -2.76733,0.371436 -2.76733,2.34375 0,5.139675 8.4552,8.58867 9.14889,3.731961 z m 151.72043,35.601864 c -3.36112,-2.837044 -4.31616,-5.320779 -2.9968,-7.793721 1.28945,-2.416884 -0.52985,-3.888317 -6.09767,-4.93175 -5.19982,-0.974465 -7.84961,0.181591 -7.84961,3.424631 0,3.796886 -4.78926,7.495965 -6.93664,5.35764 -0.38835,-0.386719 -1.81613,-0.703125 -3.17283,-0.703125 -1.72163,0 -2.57733,-0.566362 -2.83288,-1.875 -0.36582,-1.873363 -6.49816,-9.592642 -13.58891,-17.105492 -4.92699,-5.220285 -3.8016,-6.747362 3.16909,-4.300223 3.82384,1.342402 6.03011,3.012365 10.08708,7.635061 3.58518,4.085119 5.39353,5.536267 5.84133,4.6875 0.35673,-0.67614 1.17703,-4.72115 1.82289,-8.988911 1.33723,-8.83631 3.41311,-11.459185 9.06937,-11.459185 8.59453,0 19.90599,12.18539 19.90599,21.443931 0,1.452256 0.83038,3.394304 1.84529,4.315659 1.01492,0.921355 2.07559,2.403024 2.35705,3.292597 0.34369,1.086268 1.20409,1.48464 2.62006,1.213116 1.27514,-0.244521 2.70063,0.271516 3.60718,1.305825 1.95646,2.232216 3.07923,5.928872 1.80073,5.928872 -0.53886,0 -1.236,-1.024163 -1.54919,-2.275913 -0.31319,-1.251759 -1.16232,-2.504137 -1.88697,-2.783081 -1.594,-0.613593 -4.12126,0.250622 -4.12126,1.409297 0,1.683609 -3.79979,4.587197 -6.00305,4.587197 -1.24562,0 -3.53622,-1.07321 -5.09025,-2.384925 z m 3.16155,-3.263672 c 0.80411,-1.559859 1.6143,-5.43936 1.80042,-8.621121 0.5601,-9.575529 -4.07864,-17.362135 -13.19975,-22.157131 -3.19065,-1.677335 -4.22263,-1.262968 -2.11644,0.849804 2.08315,2.089657 1.81353,4.734936 -0.78506,7.702575 -1.32954,1.518362 -1.22545,1.892679 1.24598,4.480354 2.39631,2.509028 3.12081,2.75978 6.50355,2.250921 3.07395,-0.462407 4.24975,-0.186211 6.10756,1.434663 l 2.30073,2.007314 -2.53935,-1.549505 c -1.84652,-1.126744 -3.5624,-1.376123 -6.28904,-0.914022 -2.12986,0.360962 -5.14002,0.175196 -6.96815,-0.430024 -2.98114,-0.986939 -3.51898,-0.837228 -7.29373,2.030254 -2.24138,1.702671 -5.63537,4.150453 -7.54218,5.439515 -3.35269,2.26652 -4.72084,5.625 -2.29147,5.625 0.65353,0 4.06836,-2.106284 7.58852,-4.680632 5.89133,-4.308422 6.70725,-4.635099 10.26037,-4.108054 2.12304,0.314918 4.79154,1.155577 5.93,1.868131 2.5757,1.612119 6.01937,1.667112 7.74481,0.12368 1.11452,-0.996947 1.12534,-0.926976 0.0725,0.46875 -0.68067,0.902344 -2.03623,1.640625 -3.01234,1.640625 -0.97826,0 -2.2447,1.034625 -2.82188,2.305346 -0.83852,1.846114 -0.73716,2.779879 0.50887,4.687504 2.02354,3.097959 3.01335,3.004275 4.79609,-0.453947 z m -22.50884,-2.387118 c 0.80775,-0.810267 1.46863,-2.308299 1.46863,-3.32896 0,-1.727079 -0.22616,-1.682705 -3.26193,0.640018 -3.16742,2.423465 -3.56648,4.162157 -0.95528,4.162157 0.70398,0 1.94085,-0.662944 2.74858,-1.473215 z m -1.8024,-9.095474 c 3.13796,-2.255846 6.52377,-5.667531 7.68809,-7.746855 4.58773,-8.1931 4.65815,-9.571917 0.60008,-11.750516 -2.00979,-1.078966 -2.73118,-1.058769 -4.85698,0.135977 -2.2082,1.24106 -2.67095,2.408088 -4.00582,10.102424 -0.83007,4.7846 -1.92836,9.119717 -2.44063,9.633594 -0.61883,0.620762 -2.6722,-1.051431 -6.11848,-4.982682 -4.02623,-4.592819 -6.27068,-6.299694 -10.02913,-7.627028 -2.66313,-0.940513 -5.0923,-1.459013 -5.39813,-1.15222 -0.30584,0.306793 1.13273,2.341929 3.19682,4.522525 2.06409,2.180596 5.7615,6.381866 8.21646,9.336156 5.00559,6.023685 4.06599,6.057372 13.14772,-0.471375 z M 512.61684,78.75 c -1.84071,-2.040305 -3.27103,-2.437038 -3.27103,-0.90729 0,0.532241 0.94626,1.34925 2.1028,1.815576 2.99824,1.208911 3.04529,1.172329 1.16823,-0.908286 z m -43.41688,13.536195 c -3.17385,-2.530685 -4.531,-4.479918 -5.7051,-8.194026 -0.84732,-2.680381 -2.30204,-6.168628 -3.2327,-7.751661 l -1.69213,-2.878242 -7.55604,3.759073 c -8.99137,4.473142 -13.34462,4.880925 -16.84915,1.57831 -1.31402,-1.238318 -2.38913,-3.188198 -2.38913,-4.333067 0,-1.144868 -0.80535,-4.762736 -1.78967,-8.039705 -2.67512,-8.905939 -3.04849,-13.037061 -1.47052,-16.270627 1.06331,-2.178911 1.21843,-2.284509 0.68857,-0.46875 -1.07494,3.683679 -0.57481,8.952056 1.63405,17.213069 2.58475,9.666793 3.81648,12.217973 6.10988,12.654882 1.79785,0.342503 1.79979,0.308454 0.0908,-1.596215 -2.10039,-2.340817 -1.47148,-6.170128 1.25361,-7.63311 1.61174,-0.865273 1.76515,-1.705824 1.33107,-7.292686 -0.79335,-10.210789 -1.01661,-10.809488 -3.77221,-10.115714 -2.61568,0.658548 -5.01011,-0.768934 -5.01011,-2.986879 0,-0.771138 -1.26168,-2.843536 -2.80374,-4.605329 -1.75253,-2.002261 -2.80373,-4.234491 -2.80373,-5.953716 0,-2.11908 -0.33824,-2.620256 -1.47346,-2.183269 -0.81041,0.311954 -1.8514,1.564338 -2.31332,2.783078 -1.09034,2.876751 -3.12054,2.974348 -2.2157,0.106514 1.17872,-3.735862 3.55125,-6.283538 5.3473,-5.742035 0.9247,0.278795 2.69729,-0.160898 3.93908,-0.977095 3.01979,-1.984823 7.28606,-1.877819 9.18807,0.23045 1.73565,1.923866 2.05684,7.765172 0.57926,10.534687 -0.5321,0.997353 -0.84752,1.813296 -0.70094,1.813208 0.14659,-8.9e-5 3.56287,-0.632902 7.59173,-1.40625 9.5033,-1.82418 15.00821,-1.810903 16.53944,0.03989 1.78498,2.157474 -0.2541,3.687882 -5.09256,3.822175 -2.21757,0.06155 -7.24284,0.828497 -11.16727,1.704326 -6.14364,1.371103 -7.0223,1.81158 -6.32215,3.169342 0.44725,0.867309 1.02252,4.650579 1.27838,8.407269 0.25586,3.75669 0.68065,7.046478 0.94399,7.31064 0.26334,0.264162 3.57776,-0.636536 7.36539,-2.001552 13.06973,-4.710178 12.75342,-4.65005 14.78065,-2.8097 1.01146,0.918223 3.13779,5.715837 4.72517,10.661363 1.58738,4.945527 4.1567,11.219511 5.70961,13.942188 4.29107,7.523454 2.22134,9.056913 -4.73637,3.509161 z m 6.50099,1.780549 c 0,-0.34142 -1.13538,-2.556264 -2.52306,-4.921877 -1.38768,-2.365614 -4.01619,-8.692635 -5.84112,-14.060046 -1.82494,-5.36741 -4.00727,-10.187218 -4.84964,-10.710682 -1.13307,-0.704123 -3.56471,-0.192928 -9.34579,1.964739 -4.29782,1.604072 -9.59738,3.380404 -11.77679,3.947404 -4.62294,1.202715 -6.23886,4.505959 -3.6228,7.405699 0.83307,0.92341 1.25829,1.936114 0.94493,2.250453 -1.73359,1.739 6.14163,-0.661025 12.61822,-3.845488 l 7.51987,-3.697432 2.33685,3.999991 c 1.28526,2.199993 2.82889,5.84544 3.43028,8.100991 0.79625,2.986417 2.13696,4.923937 4.93302,7.128909 3.60101,2.83977 6.17603,3.855983 6.17603,2.437339 z M 443.92524,49.61429 c 3.85514,-1.031919 9.32243,-1.97674 12.14954,-2.099601 3.80174,-0.165217 5.14018,-0.582727 5.14018,-1.603412 0,-2.015983 -6.53135,-2.235779 -15.57771,-0.524226 -4.17102,0.789149 -7.9687,1.196116 -8.43928,0.904373 -0.47058,-0.291743 -1.88309,-0.271751 -3.13893,0.04443 -1.59855,0.402465 -2.28333,1.225553 -2.28333,2.744509 0,2.823129 0.91351,3.658401 3.24726,2.969178 1.04112,-0.307468 5.04713,-1.40333 8.90227,-2.435249 z m -6.32272,-5.930514 c 0.37765,-0.565139 0.69307,-2.39862 0.70094,-4.074401 0.0121,-2.575381 -0.32483,-3.046875 -2.17729,-3.046875 -3.33394,0 -5.59018,3.034672 -4.83171,6.498744 0.55926,2.554242 0.90764,2.806422 3.12543,2.262366 1.3728,-0.336769 2.80499,-1.074695 3.18263,-1.639834 z m 157.7246,0.263932 c 0,-4.162407 -0.1868,-4.646783 -1.40187,-3.635208 -1.14067,0.949625 -1.40187,0.903763 -1.40187,-0.246136 0,-1.227612 3.69563,-4.441364 5.10731,-4.441364 0.27509,0 0.50017,2.953125 0.50017,6.5625 0,5.208334 -0.28928,6.5625 -1.40187,6.5625 -1.06366,0 -1.40187,-1.158588 -1.40187,-4.802292 z m 7.41365,3.319916 c -0.96562,-1.167144 -0.98828,-1.864912 -0.10651,-3.28125 0.87017,-1.397715 0.87017,-2.200033 0,-3.597748 -0.88177,-1.416338 -0.85911,-2.114106 0.10651,-3.28125 2.83588,-3.427704 9.07112,-0.407662 6.77453,3.28125 -0.87016,1.397715 -0.87016,2.200033 0,3.597748 1.42629,2.290978 -0.35957,4.763626 -3.44052,4.763626 -1.15917,0 -2.65948,-0.66707 -3.33401,-1.482376 z m 4.55796,-2.033249 c -0.37937,-1.976103 -2.03801,-1.851501 -2.4607,0.184855 -0.1763,0.84936 0.33887,1.45577 1.23675,1.45577 0.96258,0 1.42096,-0.614435 1.22395,-1.640625 z m 0.17792,-6.383453 c 0,-0.743008 -0.63084,-1.350922 -1.40187,-1.350922 -1.40769,0 -1.92119,1.979054 -0.80422,3.099513 0.87218,0.874914 2.20609,-0.182363 2.20609,-1.748591 z m 6.14152,8.425863 C 610.51445,44.163365 612.5201,35.625 616.35516,35.625 c 2.34878,0 4.2056,2.897416 4.2056,6.5625 0,3.665084 -1.85682,6.5625 -4.2056,6.5625 -0.6976,0 -1.92925,-0.662947 -2.73699,-1.473215 z m 3.96897,-5.668867 c -0.16357,-2.001543 -0.71797,-3.639168 -1.23198,-3.639168 -1.09177,0 -1.79235,5.595759 -0.9698,7.746013 0.99995,2.613955 2.5194,-0.220204 2.20178,-4.106845 z m 5.2059,-1.698415 c -0.93053,-2.432504 0.37372,-4.442985 2.67009,-4.115881 1.54461,0.220021 2.10698,0.925695 2.10698,2.643878 0,1.718183 -0.56237,2.423857 -2.10698,2.643878 -1.26382,0.180024 -2.33233,-0.288936 -2.67009,-1.171875 z m 3.3752,-1.472003 c 0,-0.515625 -0.42056,-0.9375 -0.93458,-0.9375 -0.51402,0 -0.93458,0.421875 -0.93458,0.9375 0,0.515625 0.42056,0.9375 0.93458,0.9375 0.51402,0 0.93458,-0.421875 0.93458,-0.9375 z"
       id="path3746"
       inkscape:connector-curvature="0" />
  </g>
</svg>
