<?xml version="1.0" encoding="UTF-8" standalone="no"?>
<!-- Created with Inkscape (http://www.inkscape.org/) -->

<svg
   xmlns:dc="http://purl.org/dc/elements/1.1/"
   xmlns:cc="http://creativecommons.org/ns#"
   xmlns:rdf="http://www.w3.org/1999/02/22-rdf-syntax-ns#"
   xmlns:svg="http://www.w3.org/2000/svg"
   xmlns="http://www.w3.org/2000/svg"
   xmlns:sodipodi="http://sodipodi.sourceforge.net/DTD/sodipodi-0.dtd"
   xmlns:inkscape="http://www.inkscape.org/namespaces/inkscape"
   id="svg3336"
   version="1.1"
   inkscape:version="0.91 r13725"
   width="500"
   height="250"
   viewBox="0 0 500 250"
   sodipodi:docname="bb320701.svg">
  <metadata
     id="metadata3342">
    <rdf:RDF>
      <cc:Work
         rdf:about="">
        <dc:format>image/svg+xml</dc:format>
        <dc:type
           rdf:resource="http://purl.org/dc/dcmitype/StillImage" />
        <dc:title></dc:title>
      </cc:Work>
    </rdf:RDF>
  </metadata>
  <defs
     id="defs3340" />
  <sodipodi:namedview
     pagecolor="#8f8f8f"
     bordercolor="#666666"
     borderopacity="1"
     objecttolerance="10"
     gridtolerance="10"
     guidetolerance="10"
     inkscape:pageopacity="0"
     inkscape:pageshadow="2"
     inkscape:window-width="1613"
     inkscape:window-height="735"
     id="namedview3338"
     showgrid="false"
     inkscape:zoom="1.2345679"
     inkscape:cx="167.45516"
     inkscape:cy="141.63163"
     inkscape:window-x="0"
     inkscape:window-y="0"
     inkscape:window-maximized="0"
     inkscape:current-layer="svg3336" />
  <g
     id="g4163"
     transform="translate(11.42414,104.37396)">
    <path
       sodipodi:nodetypes="sssssssscsssssssssssssssssssssssssssssssss"
       style="fill:#000000"
       d="m 319.375,-31.6875 c -1.22281,-1.222804 -0.58943,-1.792154 1.95312,-1.755707 3.17165,0.04547 3.57998,-2.633258 0.46875,-3.075122 -2.61143,-0.370883 -2.80328,-2.044171 -0.23437,-2.044171 1.10176,0 1.875,-0.625 1.875,-1.515541 0,-1.117361 -0.62554,-1.395962 -2.3809,-1.060401 -1.50402,0.28751 -2.25214,0.0688 -2.03126,-0.593835 0.19231,-0.576935 1.79107,-1.048973 3.55278,-1.048973 2.90491,0 3.21534,0.261853 3.33419,2.8125 0.0721,1.546875 0.41275,3.496386 0.75704,4.332245 1.18702,2.881812 -5.0078,6.235554 -7.29435,3.949005 z m 10.8125,-0.5 c -1.75089,-1.750895 -1.38045,-7.728221 0.58944,-9.510949 1.87533,-1.69715 5.78556,-2.112163 5.78556,-0.614051 0,0.515625 -0.75937,0.9375 -1.6875,0.9375 -1.76987,0 -3.9375,1.681987 -3.9375,3.055328 0,0.442931 0.44586,0.529777 0.99079,0.192991 0.54492,-0.336785 2.02148,-0.353646 3.28125,-0.03746 4.14312,1.039852 2.49718,7.101643 -1.92829,7.101643 -1.08281,0 -2.475,-0.50625 -3.09375,-1.125002 z m 5.01923,-1.769186 c 0.88214,-1.427334 -1.03351,-3.093823 -2.78415,-2.422036 -0.84226,0.323206 -1.22082,1.164017 -0.90022,1.999484 0.63983,1.667398 2.76442,1.911062 3.68437,0.422552 z M 340.5,-32.1875 c -1.45718,-1.457176 -1.45718,-8.480324 0,-9.9375 1.44609,-1.446095 4.74141,-1.446095 6.1875,0 1.38113,1.381133 1.47146,6.788387 0.15452,9.249132 -1.08481,2.026987 -4.61972,2.410668 -6.34202,0.688368 z m 4.83324,-2.88764 c 0.79978,-3.186581 -0.31697,-6.439653 -2.09507,-6.102867 -1.56478,0.29638 -2.54745,4.49329 -1.61876,6.91345 0.79349,2.067806 3.11878,1.560286 3.71383,-0.810583 z m 4.71988,-4.824322 c -0.85294,-2.22271 0.3539,-4.4675 2.20967,-4.110112 1.03783,0.19987 1.64346,1.170727 1.64346,2.634574 0,2.672463 -2.95901,3.805599 -3.85313,1.475538 z M 352.5,-41.375 c 0,-0.515625 -0.42188,-0.9375 -0.9375,-0.9375 -0.51563,0 -0.9375,0.421875 -0.9375,0.9375 0,0.515625 0.42187,0.9375 0.9375,0.9375 0.51562,0 0.9375,-0.421875 0.9375,-0.9375 z"
       id="path3348"
       inkscape:connector-curvature="0" />
    <g
       transform="translate(44.768474,-184.28159)"
       id="g4298">
      <path
         inkscape:connector-curvature="0"
         id="path3378"
         transform="translate(-44.768474,-67.71841)"
         d="m 308.05664,224.90234 c -0.84011,0.002 -1.54223,1.51919 -2.05664,4.54883 -0.72731,4.28348 -0.51138,5.30086 2.42383,11.44531 l 3.2207,6.74414 -3.35937,3.17774 c -5.19072,4.90825 -9.89591,8.13537 -13.34375,9.1543 -2.65234,0.78383 -3.97017,0.53842 -8.44532,-1.57422 -4.74248,-2.23885 -5.34452,-2.84751 -5.68359,-5.75196 -0.43191,-3.69958 0.8731,-4.70243 3.96289,-3.04882 2.14921,1.15022 3.37653,0.74119 2.41992,-0.80664 -0.89028,-1.4405 -6.23474,-2.32776 -7.34375,-1.21875 -0.53986,0.53985 -2.18586,0.74134 -3.65625,0.44726 -1.48596,-0.29719 -3.26857,-0.0403 -4.01367,0.57813 -1.06555,0.88433 -2.10664,0.60577 -5.07617,-1.35938 -2.35021,-1.55529 -4.69613,-2.35957 -6.32422,-2.16797 -4.07962,0.48012 -3.76653,2.46528 0.70508,4.47071 5.68255,2.54851 7.94954,4.72218 8.60547,8.2539 0.54723,2.94641 0.38558,3.1368 -5.00782,5.85938 -3.06598,1.5477 -6.16955,2.81445 -6.89453,2.81445 -0.725,0 -1.84244,0.63281 -2.48437,1.40625 -0.96736,1.16559 -4.31651,1.39903 -19.56836,1.36133 L 217.73633,269.18945 223.83008,266 c 7.1663,-3.75179 9.10359,-3.9372 14.17187,-1.35156 2.96942,1.51489 4.0717,1.69352 5.11914,0.82422 2.1897,-1.81729 1.60251,-2.59188 -4.18164,-5.51172 -4.18541,-2.11279 -6.3031,-2.65738 -8.77734,-2.25586 -3.00711,0.48798 -3.3027,0.32078 -3.78125,-2.15039 -0.31944,-1.64954 -0.009,-3.24914 0.80859,-4.16016 2.25809,-2.51718 1.5942,-4.25002 -0.78125,-2.03906 -1.47217,1.37024 -2.87286,1.81335 -4.63867,1.46875 -1.90286,-0.37135 -3.07976,0.10045 -4.74609,1.89844 l -2.2168,2.39062 -2.75391,-1.8164 c -4.11293,-2.71124 -6.15999,-2.25987 -10.69726,2.36328 -3.94235,4.01696 -4.04642,4.26758 -2.49805,5.97851 1.52278,1.68261 1.52278,1.82057 0.0117,2.40039 -2.34745,0.90081 -2.94786,-0.15875 -4.0625,-7.15625 -1.37843,-8.65356 -2.37459,-10.88337 -5.17383,-11.58593 -5.05137,-1.26779 -6.79593,4.12824 -5.40234,16.71874 l 0.80469,7.26563 -6.41797,0 -6.41797,0 2.3789,-3.49805 c 1.30766,-1.92438 2.37696,-4.27329 2.37696,-5.21875 0,-2.44236 -1.72126,-5.3457 -3.16992,-5.3457 -0.67641,0 -2.20354,-0.84375 -3.39258,-1.875 -1.18904,-1.03125 -2.41289,-1.86499 -2.7207,-1.85352 -1.35535,0.0505 -5.15143,3.6689 -4.51563,4.30469 0.38761,0.38761 1.2043,0.20585 1.81445,-0.4043 2.15682,-2.15682 3.40837,-1.11146 1.38672,1.15821 l -2.01953,2.26562 -3.7207,-2.73437 c -2.04585,-1.50453 -4.04647,-2.73633 -4.44727,-2.73633 -0.40081,0 -1.41398,1.32487 -2.25195,2.94531 l -1.52344,2.94727 -8.31641,-0.58985 c -5.0466,-0.35821 -9.33519,-0.20352 -10.9082,0.39454 -1.42555,0.54199 -12.03062,1.81579 -23.56836,2.83007 -21.315154,1.87382 -27.126289,3.22106 -26.044919,6.03907 0.412459,1.07484 -1.580805,1.36117 -10.939453,1.57617 l -11.44336,0.26367 -0.302734,2.63477 c -0.408693,3.56436 1.298161,5.33398 5.144531,5.33398 3.799098,0 3.824682,0.0215 17.035156,14.94336 l 10.324219,11.66211 -10.945312,16.16992 -10.94336,16.16797 -7.5,0.33789 c -4.125,0.18571 117.375002,0.3195 270.000002,0.29688 l 82.35351,-0.0137 0,-0.37109 -73.07226,-0.12891 -268.216799,-0.4707 19.076172,-28.0918 c 10.492697,-15.45052 19.078127,-28.64698 19.078127,-29.32617 0,-1.00874 7.16744,-1.15505 39.14062,-0.79883 13.0445,-0.0111 26.09116,0.49137 36.51368,0.44141 10.4225,-0.05 69.5701,-0.22952 142.29101,-0.44336 l 85.18945,-0.25 0,-1.18945 c -22.60797,0.0594 -50.94916,0.0947 -82.90039,0.084 l -129.76562,-0.0449 4.38867,-2.28516 c 2.41376,-1.25691 4.65286,-2.71255 4.97656,-3.23632 0.3934,-0.63655 39.54023,-0.95313 118.06055,-0.95313 l 85.24023,0 0,-0.95703 c -3.42364,-0.0467 -4.98124,-0.42685 -5.33984,-1.36133 -0.29928,-0.77991 -4.82461,-2.69616 -10.39258,-4.40039 -8.77616,-2.68618 -9.71992,-3.1805 -8.55078,-4.47852 2.32433,-2.58055 2.74811,-6.4112 1.00195,-9.07617 -1.38515,-2.11401 -2.09129,-2.3822 -5.17382,-1.96875 -2.0224,0.27126 -4.02083,0.026 -4.61133,-0.56445 -0.76448,-0.76448 -1.68711,-0.34674 -3.46289,1.56836 -1.33136,1.43582 -2.12975,2.899 -1.77539,3.25195 0.35438,0.35296 1.4215,-0.31509 2.37109,-1.48633 2.02722,-2.50042 2.74311,-1.7868 2.14453,2.13672 -0.35019,2.29538 -1.45208,3.38653 -5.91601,5.85938 -5.93598,3.2883 -9.43117,3.81551 -11.19727,1.6875 -0.61704,-0.74349 -6.34522,-3.09346 -12.72852,-5.22071 l -11.42773,-3.80859 c 1.85284,1.49624 4.39594,2.3871 8.91211,3.875 12.45845,4.10458 14.26588,5.96177 10.90625,11.21875 l -1.31836,2.06055 c -2.83775,-0.85737 -6.08837,-2.74165 -13.41211,-6.93164 -9.09036,-5.2007 -9.94207,-6.1716 -13.875,-15.83594 -1.49162,-3.66534 -3.60585,-7.91843 -4.69726,-9.45117 -2.50005,-3.51098 -1.92788,-4.10668 2.08984,-2.17969 2.40886,1.15534 3.69973,2.78426 5.41992,6.83594 2.39053,5.63056 3.62247,8.36631 5.72266,10.1914 l -3.25,-6.8457 c -1.82842,-3.85207 -3.32422,-7.40125 -3.32422,-7.88672 0,-0.48547 -1.73748,-1.76805 -3.86133,-2.85156 -5.16589,-2.63544 -6.43519,-1.30673 -3.30859,3.4668 1.30425,1.99125 3.2572,6.00682 4.33789,8.92382 3.23782,8.73956 5.41388,11.1343 15.34179,16.86524 5.04237,2.91073 9.4244,5.54745 9.73633,5.85937 0.31192,0.31193 -12.05469,0.54994 -27.48047,0.5293 -24.55759,-0.0329 -27.74675,-0.20021 -25.63672,-1.34766 2.96165,-1.61055 15.8711,-16.93801 15.8711,-18.84375 0,-0.759 -1.5412,-4.42888 -3.42383,-8.15429 -1.88264,-3.72541 -4.17019,-8.88281 -5.08398,-11.46094 -0.69824,-1.96997 -1.35618,-3.28653 -1.96289,-3.97266 0.10309,0.28704 0.16651,0.7432 0.17187,1.39454 0.007,0.90235 2.11678,6.01546 4.6875,11.36132 2.57071,5.34587 4.67383,10.27942 4.67383,10.96485 0,0.68542 -2.97704,4.81793 -6.61524,9.18359 -4.66612,5.59913 -7.71038,8.3768 -10.33203,9.42578 -0.17125,0.0685 -0.34401,0.12164 -0.51562,0.18555 -0.67584,0.076 -1.86861,0.10687 -3.02149,-0.39844 -0.1161,-0.0818 -0.22362,-0.16184 -0.375,-0.25 -3.67348,-2.13961 -2.49406,-3.9153 10.17578,-15.31055 l 4.78516,-4.30468 -3.21094,-6.72071 c -2.79806,-5.85737 -3.13059,-7.30413 -2.58789,-11.25 0.37056,-2.69429 1.18774,-4.53122 1.75,-4.65039 -0.17628,-0.11742 -0.34788,-0.19382 -0.51367,-0.19336 z m 0.51367,0.19336 c 0.13533,0.0901 0.27292,0.20954 0.41407,0.36914 -0.10375,-0.28885 -0.24758,-0.40442 -0.41407,-0.36914 z m 32.45899,26.08789 0.0742,0.15821 0.17773,0.0586 c -0.0864,-0.0698 -0.16846,-0.14424 -0.25195,-0.2168 z m -79.84766,-5.33984 0.002,0 c 1.73319,0.001 5.53537,1.99366 10.88086,5.69922 4.37397,3.03208 8.64986,5.64287 9.75391,5.9707 0.003,0.003 0.004,0.005 0.008,0.008 0.53217,0.4896 0.38254,1.27229 0.0156,2.33594 -1.01793,2.2248 -3.4465,2.56956 -4.23242,0.52149 -0.70264,-1.83104 -12.88327,-10.67986 -16.37891,-11.89844 -3.4661,-1.20828 -3.49137,-2.63611 -0.0488,-2.63672 z m -73.52344,0.11914 c 0.52171,-0.0311 1.14875,0.0643 1.91211,0.25586 2.28895,0.57449 2.35476,0.76696 5.21875,15.09375 1.60529,8.03027 2.17563,8.47393 7.25196,5.63672 4.84791,-2.70955 7.90635,-2.98037 10.0039,-0.88281 0.81028,0.81026 1.47266,1.68262 1.47266,1.9375 0,1.98237 -2.73064,4.2063 -8.33399,6.78906 -4.51384,2.08055 -8.11115,3.30867 -10.49414,3.63086 -0.93559,0.0905 -1.58495,0.0635 -2.07031,-0.01 -0.56917,-0.13111 -0.95031,-0.39531 -1.10156,-0.81054 -0.40823,-1.12071 -3.28149,-24.18262 -3.30469,-26.5254 -0.005,-0.47265 -0.22875,-0.63844 -0.49805,-0.36914 -0.2693,0.26931 0.18253,6.28621 1.00391,13.3711 0.82136,7.08488 1.28623,13.08874 1.0332,13.3418 -2.29811,2.29807 -6.1249,-19.20902 -4.80664,-27.01172 0.52863,-3.12893 1.14785,-4.35406 2.71289,-4.44727 z m 20.33789,6.5918 c 1.1928,0.0636 2.43831,0.6138 3.94532,1.60742 2.30817,1.52186 2.4269,1.80813 0.9375,2.26367 -0.55975,0.1712 -1.85509,0.7997 -3.34961,1.59375 -0.19347,-0.13403 -0.88,-0.60823 -1.38086,-0.95117 -0.0151,-0.0163 -0.0196,-0.0223 -0.0352,-0.0391 -0.98778,-1.06326 -1.69379,-0.73614 -4.21875,1.95117 l -2.79492,2.97265 c -0.4359,-0.0791 -0.83384,-0.28442 -1.29492,-0.625 -1.66742,-1.23161 -1.57014,-1.48871 1.94922,-5.10937 2.30686,-2.37326 3.99715,-3.54962 5.73437,-3.66211 0.1689,-0.0109 0.33741,-0.0108 0.50781,-0.002 z m 181.9961,0.92773 c 0.51724,0.0168 1.01946,0.14451 1.5332,0.37891 1.71265,0.78139 1.80965,1.16298 0.79883,3.1582 -1.38553,2.73487 -2.2363,2.98677 -5.61914,1.6582 -3.02644,-1.18858 -2.89085,-2.45545 0.46484,-4.34765 1.05815,-0.59667 1.96021,-0.87559 2.82227,-0.84766 z m -233.54297,0.79883 c 0.41178,0 2.97873,1.8162 5.70508,4.03516 5.07054,4.12688 6.67641,7.47185 4.06836,8.47265 -2.26453,0.86898 -4.01329,-0.20418 -6.09961,-3.74023 -1.05543,-1.78882 -2.23481,-3.05056 -2.6211,-2.80469 -0.38632,0.24587 -1.75781,2.48522 -3.04687,4.97656 -1.28906,2.49134 -2.76562,4.83993 -3.28125,5.21875 -1.20398,0.88454 -3.28125,0.91669 -3.28125,0.0508 0,-1.3644 7.83639,-16.20898 8.55664,-16.20898 z m 114.75781,1.875 c 1.05124,0 5.12305,3.06584 5.12305,3.85742 0,1.21989 -3.19444,1.01065 -4.5,-0.29492 -1.13204,-1.13205 -1.55703,-3.5625 -0.62305,-3.5625 z m -54.24023,0.26758 c 1.36059,-0.0163 2.65721,0.30014 4.11718,0.91015 2.78121,1.16207 3.20591,1.76599 3.12891,4.44336 -0.0769,2.67449 -0.65383,3.39204 -4.2207,5.25782 -4.6636,2.43946 -5.53711,2.64624 -5.53711,1.30859 0,-1.91977 -3.8428,-4.6875 -6.50781,-4.6875 -4.39447,0 -4.16159,-1.51569 0.64453,-4.20508 3.66419,-2.05039 6.10735,-3.00021 8.375,-3.02734 z m 165.3164,0.71484 c 0.65445,-0.0237 0.42683,0.52459 -1.05273,1.72266 -1.83368,1.48482 -1.99069,2.00031 -0.97461,3.22461 0.66526,0.80158 2.12923,1.59352 3.25195,1.75976 1.72111,0.25485 1.36671,0.70519 -2.25976,2.86914 -3.82941,2.28506 -5.21742,2.56575 -12.65625,2.56055 -4.1761,-0.003 -6.32446,0.0223 -8.76172,-0.70508 l 1.73828,-1.9707 c 2.21682,-2.51592 2.48594,-4.81355 0.77734,-6.62109 -0.96613,-1.02211 -0.81125,-1.05331 0.88477,-0.18164 1.13144,0.58153 2.3178,1.47738 2.63476,1.99023 1.0741,1.73792 5.60142,0.91134 10.3086,-1.88086 2.96819,-1.76067 5.26794,-2.73708 6.10937,-2.76758 z m -174.95898,0.34571 c 0.28746,-0.0329 0.53234,0.003 0.72656,0.11328 0.21214,0.12045 0.35604,0.19181 0.48047,0.25 0.27177,0.25789 0.4321,0.41658 0.4668,0.45703 -0.86016,0.46582 -1.75008,0.96023 -2.63086,1.48047 -2.93914,1.73602 -4.20737,2.33822 -5.22852,2.17382 l 2.69336,-2.41015 c 1.3869,-1.24145 2.62982,-1.96585 3.49219,-2.06445 z m 75.63476,0.3789 c 1.18895,0.42189 2.95995,1.19632 4.54297,2.00391 3.21942,1.64244 4.47092,1.82432 7.24414,1.05859 3.17748,-0.87734 3.27205,-0.83821 1.8418,0.74219 -0.82982,0.91695 -1.50781,2.28825 -1.50781,3.04687 0,1.28572 1.15554,2.81529 2.33984,3.3711 0.38021,0.32285 0.74102,0.69377 0.37891,0.78906 -0.0564,0.0148 -0.0986,0.0485 -0.15039,0.0703 -6.52691,1.26867 -13.14384,-0.69932 -18.97461,-5.75 -1.61807,-1.40158 -1.94906,-1.94555 -0.7793,-1.27929 1.84938,1.05333 3.88771,0.33636 4.63867,-1.28907 0.20817,-0.45055 0.32308,-0.96628 0.30078,-1.53906 -0.005,-0.12033 -0.0255,-0.16678 -0.0371,-0.25391 -0.0219,-0.47433 0.0849,-0.75429 0.1621,-0.9707 z m -51.8789,0.68164 c 1.97781,-0.0408 3.78762,0.53285 7.06445,2.04297 2.97465,1.37086 5.26861,2.91297 5.09766,3.42578 -0.53739,1.61219 -1.95302,1.49111 -5.71094,-0.48828 -3.51775,-1.85289 -5.58433,-1.91047 -10.73633,-0.29492 -1.9193,0.60186 -2.15236,0.40978 -1.875,-1.54102 0.25255,-1.77624 1.07628,-2.36509 4.06641,-2.91015 0.75734,-0.13806 1.43448,-0.22077 2.09375,-0.23438 z m -93.15625,0.83594 c 0.71311,-0.0146 1.47758,-0.0129 2.28125,0.008 1.07156,0.027 2.21281,0.0848 3.39648,0.17578 l 7.77149,0.59766 -1.92578,4.56055 c -1.85893,4.39996 -2.0616,4.55859 -5.77149,4.55859 -3.81487,0 -3.84135,-0.0247 -3.47461,-3.16602 0.29127,-2.49495 -0.0904,-3.48813 -1.80273,-4.6875 -0.68065,-0.47674 -1.69757,-1.13482 -2.69532,-1.51562 -0.3096,-0.11816 -0.15682,-0.28166 -0.0859,-0.39844 0.68944,-0.0666 1.44821,-0.11522 2.30664,-0.13281 z m 246.21875,0.21289 c 4.10011,0.19506 26.25,7.63424 26.25,8.81641 0,1.08519 -3.99703,1.14984 -5.20313,0.084 -0.82511,-0.7292 -18.20883,-5.37001 -22.45312,-5.99414 -1.03125,-0.15165 -1.875,-0.90355 -1.875,-1.66992 0,-0.99721 0.933,-1.34805 3.28125,-1.23633 z m -250.49024,0.24609 c 0.38856,0.26161 2.12194,0.94094 3.2793,1.56836 2.16758,1.17509 2.58198,1.95623 2.34375,4.41602 l -0.28906,2.98828 -23.90625,0.084 c -25.170101,0.0889 -30.937502,-0.17833 -30.937502,-1.43359 0,-1.82511 6.43595,-2.99469 25.798832,-4.69141 11.3535,-0.99487 21.8229,-2.25811 23.26562,-2.80664 0.12289,-0.0467 0.29411,-0.0837 0.44531,-0.125 z m 24.38672,0.77344 1.53321,2.96875 c 1.28325,2.48154 3.15033,3.92472 4.84765,4.30664 -0.94706,0.40596 -2.12259,0.83237 -3.51172,1.15235 -4.15721,0.0921 -7.37555,-0.0721 -7.36132,-0.42969 0.0161,-0.4045 1.03271,-2.37042 2.25976,-4.36719 l 2.23242,-3.63086 z m 13.38282,0.30664 c 0.5257,0.0289 1.07973,0.20344 1.62109,0.54492 2.14207,1.35118 2.1938,2.39847 0.24805,4.93164 -0.70562,0.91865 -1.31526,1.46267 -2.45508,1.82422 -0.72059,-0.16652 -3.06271,-0.72483 -3.33399,-1.13281 0.62599,-0.66592 1.01563,-1.69755 1.01563,-3.10742 0,-1.92756 1.32719,-3.14733 2.9043,-3.06055 z m 102.29687,0.70899 c 0.22849,0.01 0.43809,0.04 0.62695,0.0879 2.99201,0.75889 1.49991,1.92706 -6.52734,5.11523 -6.17241,2.45149 -12.75331,3.30577 -11.64453,1.51172 0.31868,-0.51562 1.19724,-0.9375 1.95312,-0.9375 0.75586,0 4.2121,-1.40829 7.67969,-3.12891 3.73133,-1.85148 6.31272,-2.71755 7.91211,-2.64843 z m -70.37305,1.52148 c 0.4417,-0.003 0.77935,0.11332 1.01563,0.34961 0.6301,0.6301 -0.31848,1.58547 -2.86914,2.88672 -2.50823,1.2796 -4.0199,1.60278 -4.42383,0.94922 -0.73504,-1.18933 -0.77241,-1.15185 3.19726,-3.17188 1.31975,-0.67157 2.34393,-1.00875 3.08008,-1.01367 z m 73.40235,0.45508 c 0.89502,0.0383 2.13259,0.77956 4.60547,2.50195 l 4.55664,3.17383 -10.41602,0 c -5.72818,0 -10.41406,-0.17152 -10.41406,-0.38086 0,-0.20934 1.96852,-1.05113 4.375,-1.87109 2.40646,-0.81997 5.04316,-2.07715 5.85937,-2.79297 0.4833,-0.4239 0.89658,-0.65385 1.4336,-0.63086 z m 109.73828,0.36523 7.66015,2.10352 c 4.21345,1.15718 8.4322,2.30328 9.375,2.54687 0.9428,0.2436 -4.14795,0.49098 -11.31445,0.55079 l -13.03125,0.10937 3.65625,-2.65625 3.6543,-2.6543 z m -219.43555,3.50782 c 0.57319,0.57375 1.28713,0.92788 1.9082,1.1289 -1.14323,0.14405 -2.79486,0.23706 -4.84375,0.32617 -0.19972,-0.0681 0.40193,-0.48901 1.12696,-0.94336 0.67061,0.012 1.29265,-0.15452 1.80859,-0.51171 z m -105.408202,2.74023 42.468752,0 c 31.23558,0 42.75963,0.29088 43.56836,1.09961 0.84109,0.8411 1.66767,0.8411 3.51367,0 1.53838,-0.70092 8.09106,-1.09961 18.07617,-1.09961 l 15.66406,0 1.02735,3.28125 1.02734,3.28125 -62.04883,0 c -34.126187,0 -62.328122,-0.28125 -62.671872,-0.625 -0.34375,-0.34374 -0.625,-1.82031 -0.625,-3.28125 l 0,-2.65625 z m 12.050781,7.5 18.261719,0 c 16.938042,0 18.228622,0.11893 17.812502,1.64063 -0.24675,0.90235 -3.70474,6.34673 -7.68555,12.0996 l -7.23828,10.46094 -7.927734,-8.94726 c -4.36089,-4.92079 -9.120664,-10.36519 -10.576172,-12.09961 l -2.646485,-3.1543 z"
         style="fill:#000000" />
      <path
         inkscape:connector-curvature="0"
         id="path4147"
         transform="translate(-44.768474,-67.71841)"
         d="m 308.55859,225.32617 c -0.0761,0.0252 -0.16518,0.1001 -0.27539,0.21485 -0.86957,0.90543 -1.66765,5.05306 -1.47265,7.65429 0.14994,2.00018 0.92329,4.04489 3.8125,10.06836 1.10219,2.29788 1.9748,4.30439 1.9375,4.45703 -0.0373,0.15263 -2.35308,2.34378 -5.14649,4.8711 -9.83425,8.89748 -12.05303,11.49637 -11.27539,13.20312 0.29892,0.65605 1.75296,1.67071 3.01758,2.10547 0.77823,0.26754 1.03465,0.25107 2.04492,-0.13281 1.8484,-0.70233 3.62051,-2.00836 6.00977,-4.43164 3.66286,-3.71504 9.64516,-11.13497 10.79492,-13.38867 l 0.44336,-0.86915 -1.13281,-2.79687 c -0.62239,-1.53798 -2.23602,-5.17309 -3.58789,-8.07813 -3.12889,-6.7237 -4.38494,-9.81033 -4.6504,-11.4414 -0.1845,-1.1336 -0.29128,-1.51121 -0.51953,-1.43555 z m 18.44922,7.98438 c -0.34562,-0.0231 -0.54883,0.0553 -0.54883,0.24609 0,0.18925 0.54291,1.23382 1.20508,2.32031 1.60283,2.62995 3.6564,6.76009 5.00977,10.07422 0.60633,1.48479 1.64249,3.80838 2.30273,5.16406 1.02854,2.11193 1.4888,2.75323 3.20899,4.48243 1.10421,1.11001 2.79924,2.54753 3.76757,3.19336 2.22079,1.48113 9.26472,5.52672 13.26368,7.61914 1.67846,0.87825 3.28957,1.59856 3.58008,1.60156 1.28282,0.0112 3.58007,-3.33606 3.58007,-5.2168 0,-2.60937 -2.38338,-4.04531 -12.39843,-7.46875 -6.04851,-2.06756 -8.00163,-3.00689 -9.55664,-4.59961 -1.28459,-1.31574 -2.91533,-4.23112 -4.57422,-8.17968 -2.20197,-5.24121 -3.52552,-7.02542 -6.1836,-8.33399 -1.10618,-0.54457 -2.08021,-0.86384 -2.65625,-0.90234 z m -139.17187,12.7539 c -1.41704,0.045 -2.08072,1.03097 -2.64258,3.43946 -0.44574,1.91277 -0.44265,8.37415 0.006,12.10937 1.04018,8.66625 2.932,15.82227 4.18164,15.82227 0.21438,0 0.25095,-0.37176 0.21875,-2.20899 -0.0363,-2.07078 -0.25261,-4.45436 -1.38477,-15.20312 -0.54345,-5.15954 -0.66262,-9.45703 -0.26172,-9.45703 0.20558,0 0.32219,0.63457 0.56836,3.09179 0.65278,6.51583 2.80618,23.2268 3.0879,23.96094 0.057,0.14846 0.31251,0.38245 0.56835,0.52148 1.19081,0.64702 4.65332,-0.0274 9.03907,-1.76171 6.59153,-2.60654 11.02569,-5.33208 11.92578,-7.32813 0.39753,-0.88156 0.28778,-1.29975 -0.62305,-2.35547 -2.20848,-2.55976 -4.72899,-2.53971 -9.88867,0.0801 -3.27396,1.66235 -4.24891,1.99244 -5.07227,1.7207 -1.24575,-0.41113 -1.7504,-1.83145 -3.23242,-9.09179 -2.43987,-11.95284 -2.64768,-12.51588 -4.79687,-13.08789 -0.6638,-0.17667 -1.21906,-0.26695 -1.69141,-0.25196 l -0.002,0 z m 73,0.004 c -1.55305,0 -2.14807,0.28858 -1.9043,0.92383 0.0779,0.20308 1.22751,0.88001 2.55469,1.5039 2.75822,1.29663 5.46639,2.99652 9.33789,5.85938 3.77823,2.7939 6.04953,4.72706 6.60937,5.62695 0.26318,0.42304 0.63398,0.925 0.82422,1.11524 0.57805,0.57805 1.95781,0.43264 2.70703,-0.28516 0.86747,-0.83109 0.82924,-1.28978 -0.19531,-2.42383 -2.14555,-2.37487 -11.20845,-8.6632 -15.91797,-11.04492 -2.26736,-1.14665 -2.6753,-1.27539 -4.01562,-1.27539 z m -53.08008,6.625 c -1.69319,-7.7e-4 -2.91949,0.71847 -5.52344,3.24219 -2.05817,1.99476 -3.05158,3.23502 -3.26172,4.07226 -0.0872,0.34745 0.0104,0.5343 0.48633,0.93164 0.91439,0.76337 1.5107,0.4634 4.41602,-2.23437 1.01762,-0.94493 2.15156,-1.87307 2.51953,-2.0625 0.75224,-0.38725 0.8493,-0.35899 2.30664,0.68554 l 0.80078,0.57422 1.94531,-0.95312 c 1.06922,-0.52476 2.04763,-0.9901 2.17578,-1.0332 0.3648,-0.12272 -0.0908,-0.57143 -1.52148,-1.5 -2.05472,-1.33362 -3.0323,-1.72207 -4.34375,-1.72266 z m 181.98242,1.02734 c -1.35514,0.0717 -2.86222,0.73849 -4.24023,1.92969 -0.72321,0.62521 -0.86706,0.8832 -0.75,1.34961 0.1645,0.65541 1.02923,1.22684 2.80859,1.85938 2.50829,0.89167 3.42594,0.49551 4.66602,-2.02344 0.85644,-1.73968 0.79691,-2.05449 -0.51954,-2.72656 -0.426,-0.21746 -0.89697,-0.3448 -1.39453,-0.38282 -0.18659,-0.0143 -0.37672,-0.0158 -0.57031,-0.006 z m -233.25586,0.60157 -0.40234,0.55273 c -1.49964,2.05967 -7.27925,13.01502 -7.8418,14.86328 -0.22505,0.73949 -0.21406,0.93808 0.0625,1.12305 0.4442,0.2971 1.76391,0.0904 2.49805,-0.39063 0.65909,-0.43185 1.90788,-2.35881 4.33008,-6.67968 0.90473,-1.61391 1.84657,-3.14026 2.09179,-3.39258 0.44169,-0.45446 0.45249,-0.45264 1.1836,0.23437 0.40593,0.38143 1.21228,1.43411 1.79101,2.33789 1.89575,2.96055 3.03303,3.87305 4.83008,3.87305 2.05934,0 2.79789,-1.33814 1.80859,-3.27734 -0.95696,-1.87578 -5.29576,-5.88652 -9.10546,-8.41602 l -1.2461,-0.82812 z m 114.92188,2.03906 c -0.10047,-0.0167 -0.18321,-0.0142 -0.24414,0.01 -0.47074,0.18064 -0.4196,1.17431 0.11523,2.22266 0.54877,1.07567 0.92182,1.40072 2.07031,1.81055 1.17125,0.41792 1.98411,0.41216 2.53907,-0.0176 0.43768,-0.33888 0.40334,-0.40136 -0.85938,-1.59961 -1.32861,-1.26076 -2.91781,-2.30892 -3.62109,-2.42578 z m -40.22852,2.39844 c -1.22765,0.004 -2.49453,0.1524 -3.49414,0.44335 -1.93454,0.56307 -2.63476,1.3495 -2.63476,2.9629 0,1.39346 0.01,1.39556 3.03515,0.58593 4.44311,-1.18905 5.80192,-1.06596 10.02539,0.90625 1.53249,0.71562 3.12086,1.30269 3.53125,1.30469 0.70249,0.003 1.48438,-0.48971 1.48438,-0.93555 0,-0.72023 -5.42395,-3.74634 -8.68555,-4.8457 -0.84561,-0.28502 -2.03407,-0.42582 -3.26172,-0.42187 z m 151.60352,1.00195 c -0.99817,0.0364 -1.5941,0.2801 -1.73828,0.73437 -0.35374,1.11454 0.4793,1.6457 3.51953,2.2461 5.23234,1.0333 18.92855,4.78987 20.55859,5.63867 0.44208,0.2302 1.12038,0.49554 1.50781,0.58984 1.47278,0.35855 3.63868,0.0602 3.63867,-0.50195 0,-0.72169 -10.26461,-4.52803 -19.36718,-7.18164 -3.67348,-1.0709 -6.45552,-1.58611 -8.11914,-1.52539 z m -249.71289,0.59961 c -0.39128,-0.0204 -0.74438,0.0208 -1.17579,0.11719 -1.91626,0.42805 -8.45924,1.13806 -22.92578,2.49218 -17.648405,1.65195 -23.766754,2.6748 -24.529293,4.09961 -0.439638,0.82147 0.547838,1.14343 4.339844,1.41407 1.291126,0.0921 13.081519,0.18197 26.201169,0.20117 l 23.85352,0.0352 0.15039,-1.08789 c 0.24901,-1.81675 0.16738,-3.82794 -0.18164,-4.49804 -0.44542,-0.85517 -2.50903,-2.05771 -4.32617,-2.52149 -0.58574,-0.14949 -1.01498,-0.23151 -1.40625,-0.25195 z m 38.19531,0.71289 c -1.36773,0.0783 -2.42406,1.38877 -2.73438,3.59766 -0.0929,0.66134 -0.32922,1.47608 -0.52539,1.80859 -0.41779,0.70811 -0.43003,0.69497 1.28907,1.25195 1.53539,0.49745 1.3957,0.49289 2.19726,0.084 1.12808,-0.57551 2.67566,-2.47892 3.03516,-3.73243 0.27783,-0.96872 -0.37582,-1.93242 -1.80664,-2.66406 -0.50929,-0.26042 -0.99917,-0.3718 -1.45508,-0.3457 z m 101.67578,0.89648 c -1.92172,0.107 -2.98294,0.49452 -9.03906,3.29492 -1.80757,0.83582 -3.92064,1.70221 -4.69532,1.92579 -0.77466,0.22358 -1.75027,0.55269 -2.16992,0.73047 -0.77342,0.32771 -1.00623,0.88391 -0.4707,1.1289 0.67376,0.3082 4.01215,-0.13208 6.75,-0.89062 4.56412,-1.26454 11.82207,-4.41005 12.15039,-5.26563 0.26483,-0.69014 -0.65722,-1.02785 -2.52539,-0.92383 z m -69.49023,1.31641 c -0.77391,0.0348 -2.03798,0.49706 -3.78907,1.38477 -2.68064,1.35894 -3.13616,1.81335 -2.53711,2.53515 0.40097,0.48314 0.98818,0.42593 2.70703,-0.26172 2.96548,-1.18638 4.77165,-2.50097 4.48047,-3.25976 -0.11001,-0.28668 -0.39698,-0.41934 -0.86132,-0.39844 z m 78.41015,7.01367 -24.47265,0.16211 c -13.45998,0.0894 -28.79203,0.26127 -34.07032,0.38086 l -9.5957,0.2168 -2.14063,1.375 c -1.17732,0.75654 -3.22251,1.94822 -4.54492,2.64648 l -2.40429,1.26953 1.58203,0.13282 c 0.87051,0.074 18.24774,0.15493 38.61523,0.17773 l 37.03125,0.041 0,0.0781 86.91602,-0.1875 c 18.23418,-0.0391 33.18304,-0.0865 47.5664,-0.13281 l 0,-6.09571 -51.08398,0 -83.39844,0 0,-0.0645 z m -220.064451,0.0449 0,1.95899 c 7.67e-4,1.07716 0.118521,2.3789 0.261719,2.89453 0.245578,0.88423 0.32139,0.93928 1.3125,0.97266 0.577911,0.0195 5.832031,0.11172 11.675781,0.20312 9.916083,0.15503 111.755091,0.33646 111.746091,0.19922 -0.002,-0.0344 -0.43049,-1.4125 -0.95117,-3.0625 l -0.94727,-3 -14.36132,0.0156 c -15.09995,0.0148 -16.86615,0.11631 -19.96289,1.16211 l -1.59961,0.54102 -0.95508,-0.54883 c -1.78682,-1.02837 -4.37337,-1.09797 -46.40625,-1.2207 L 61.792969,270.3457 Z"
         style="fill:#ffffff;fill-opacity:1;stroke:none;stroke-width:1.39999998;stroke-miterlimit:4;stroke-dasharray:none" />
      <path
         style="fill:#ff0000;fill-opacity:1;stroke:none;stroke-width:1.39999998;stroke-miterlimit:4;stroke-dasharray:none"
         d="m 159.95792,231.20596 c -4.2372,-0.26447 -12.31035,-1.72934 -16.97282,-3.07971 -6.86339,-1.98782 -12.19568,-4.72392 -15.73441,-8.07363 -1.2449,-1.1784 -1.50762,-1.51838 -1.46392,-1.89445 0.0431,-0.37109 0.15949,-0.46863 0.61148,-0.51249 0.35775,-0.0347 0.64343,0.0507 0.79549,0.23783 1.60994,1.98139 2.68573,2.77531 6.00459,4.43135 6.151,3.06922 13.29199,5.19039 21.45629,6.37342 1.6258,0.23559 3.31883,0.30792 7.24785,0.30965 4.43427,0.002 5.49651,-0.0524 7.86656,-0.4024 6.73185,-0.99417 13.6118,-2.86033 13.6118,-3.69215 0,-0.14366 -0.3322,-0.556 -0.73822,-0.91632 -0.55162,-0.48951 -0.70684,-0.73692 -0.61405,-0.97874 0.11434,-0.29794 0.29562,-0.31477 2.28503,-0.21211 2.15255,0.11108 4.47023,0.50108 4.77218,0.80303 0.2878,0.28781 -0.408,1.28577 -2.14336,3.07414 -1.95768,2.01749 -3.26242,3.04369 -3.67065,2.88704 -0.2311,-0.0887 -0.25785,-0.2888 -0.15597,-1.16664 0.0676,-0.58278 0.0775,-1.05959 0.0218,-1.05959 -0.0556,0 -0.68115,0.2304 -1.39005,0.512 -2.96461,1.17767 -12.24222,2.98639 -16.9283,3.30026 -0.7292,0.0488 -1.64402,0.112 -2.03293,0.14036 -0.38891,0.0284 -1.6617,-0.008 -2.82843,-0.0808 z"
         id="path4258"
         inkscape:connector-curvature="0" />
      <path
         sodipodi:nodetypes="cssccscccsscsccsssscscsssscscsssccccccssssssssscsssccscccccccsssccsccccccsccsccccccsccc"
         inkscape:connector-curvature="0"
         style="fill:#008080;fill-opacity:1;stroke:none;stroke-width:1.39999998;stroke-miterlimit:4;stroke-dasharray:none"
         d="m 172.33594,188.77539 c -1.94279,-0.006 -3.57157,0.47752 -6.40821,1.90234 -2.69672,1.35454 -4.27476,2.34314 -5.17773,3.24415 -0.66743,0.66597 -0.79656,0.98184 -0.54297,1.32617 0.27007,0.36672 0.95775,0.5437 2.45117,0.6289 1.51735,0.0865 2.28897,0.26868 3.33399,0.79102 0.98492,0.4923 1.61454,0.93188 2.36719,1.65039 0.85945,0.82049 1.21272,1.40912 1.35351,2.25 0.0883,0.52707 0.14648,0.6692 0.30859,0.75 0.41104,0.20493 1.22851,-0.0651 3.34766,-1.10547 3.79726,-1.8642 5.12856,-2.78998 5.64258,-3.92578 0.46119,-1.01906 0.53537,-3.61472 0.13086,-4.54883 -0.27927,-0.64493 -0.90495,-1.18052 -1.98633,-1.69922 -1.8639,-0.89405 -3.25443,-1.25867 -4.82031,-1.26367 z m 165.07617,0.73047 c -0.32507,0.0298 -0.89823,0.21016 -1.71289,0.54297 -0.74042,0.30249 -2.3998,1.14014 -3.6875,1.86133 -3.74331,2.09647 -5.94845,2.92123 -8.16211,3.05078 -1.58213,0.0926 -1.94725,-0.0382 -2.99414,-1.07422 -0.81172,-0.80328 -1.8577,-1.50375 -3.12695,-2.0918 -0.34055,-0.15774 -0.6211,-0.25605 -0.6211,-0.21875 0,0.0373 0.25572,0.35805 0.56641,0.71289 0.65965,0.75341 1.05859,1.72201 1.05859,2.56446 0,1.36494 -0.67569,2.66844 -2.40625,4.63867 -0.60156,0.68487 -1.09375,1.27219 -1.09375,1.30469 0,0.10801 1.79936,0.46077 2.87696,0.56445 1.48385,0.14277 8.98874,0.15204 10.8789,0.0137 3.49056,-0.25553 5.07728,-0.8585 9.07813,-3.45117 1.33584,-0.86566 1.81224,-1.32157 1.54882,-1.48438 -0.0655,-0.0405 -0.53832,-0.18143 -1.05078,-0.3125 -2.11366,-0.54058 -3.70703,-1.83998 -3.70703,-3.02539 0,-0.52022 0.26489,-0.83469 2.09766,-2.5 0.85434,-0.77628 0.99881,-1.14531 0.45703,-1.0957 z m -99.16992,0.75195 c -0.11164,0.053 -0.13581,0.33265 -0.17383,1.24024 -0.0295,0.70371 -0.0818,0.98765 -0.26172,1.38867 -0.28543,0.6363 -0.90002,1.25446 -1.54883,1.55859 -0.43492,0.20381 -0.61844,0.23438 -1.34375,0.23438 -0.807,0 -0.8695,-0.014 -1.625,-0.37696 -0.43236,-0.20772 -0.80663,-0.35743 -0.83203,-0.33203 -0.0712,0.0712 1.24755,1.30989 2.28125,2.14258 3.64496,2.93619 7.60207,4.7196 11.71484,5.2793 2.26063,0.30764 6.66993,0.0245 6.66993,-0.42774 0,-0.14189 -0.35907,-0.46169 -0.9961,-0.88672 -0.61492,-0.41027 -1.1423,-1.04275 -1.51367,-1.81835 -0.23329,-0.48722 -0.27539,-0.67679 -0.27539,-1.2461 0,-0.62232 0.0303,-0.73135 0.41406,-1.50195 0.22772,-0.45721 0.64697,-1.10636 0.92969,-1.44141 0.70548,-0.83605 1,-1.22084 1,-1.30664 0,-0.15795 -0.62361,-0.0529 -2.28516,0.38477 -1.68703,0.44437 -1.7723,0.45694 -2.9746,0.46094 -1.12485,0.003 -1.30535,-0.0184 -1.98829,-0.24415 -0.41322,-0.13662 -1.64643,-0.6776 -2.74023,-1.20312 -1.79986,-0.86473 -3.79755,-1.7444 -4.30664,-1.89649 -0.0607,-0.0181 -0.10732,-0.0255 -0.14453,-0.008 z M 94.220703,191.7207 c -2.038973,-0.0332 -3.340344,0.0368 -3.410156,0.21875 -0.02949,0.0768 0.215699,0.24162 0.722656,0.48438 1.021715,0.48924 2.625097,1.56545 3.097656,2.07812 0.209368,0.22713 0.487856,0.63818 0.617188,0.91407 0.218219,0.46551 0.234375,0.58796 0.234375,1.69531 0,0.65628 -0.03638,1.69786 -0.08008,2.31445 -0.112257,1.58405 0.04138,1.85665 1.136718,2.01758 0.670266,0.0988 3.72,0.0956 4.40821,-0.004 1.21103,-0.17509 1.8202,-0.61746 2.48632,-1.80859 0.30395,-0.54352 2.91818,-6.5902 3.01368,-6.9707 l 0.0488,-0.19336 -4.44726,-0.34375 c -3.014087,-0.2322 -5.789156,-0.36911 -7.828129,-0.40235 z m 19.078127,1.38481 c -0.0656,-0.0668 -1.87261,2.79859 -3.04883,4.83594 -0.6018,1.04241 -1.17629,2.17706 -1.33984,2.64062 -0.11568,0.32783 -0.11273,0.33818 0.10742,0.42188 0.12454,0.0474 0.55073,0.12126 0.94726,0.16406 0.39652,0.0428 2.05309,0.0734 3.68164,0.0664 l 2.96094,-0.0137 1.12891,-0.38086 c 0.62077,-0.20948 1.27611,-0.44197 1.45703,-0.51757 l 0.32812,-0.13868 -0.53515,-0.19336 c -1.26309,-0.45736 -2.43743,-1.42395 -3.44922,-2.84179 -0.21098,-0.29565 -0.7845,-1.30991 -1.27539,-2.25391 -0.49088,-0.94401 -0.92379,-1.74926 -0.96289,-1.78906 z"
         id="path4275" />
    </g>
  </g>
</svg>
