<?xml version="1.0" encoding="UTF-8" standalone="no"?>
<!-- Created with Inkscape (http://www.inkscape.org/) -->

<svg
   xmlns:dc="http://purl.org/dc/elements/1.1/"
   xmlns:cc="http://creativecommons.org/ns#"
   xmlns:rdf="http://www.w3.org/1999/02/22-rdf-syntax-ns#"
   xmlns:svg="http://www.w3.org/2000/svg"
   xmlns="http://www.w3.org/2000/svg"
   xmlns:sodipodi="http://sodipodi.sourceforge.net/DTD/sodipodi-0.dtd"
   xmlns:inkscape="http://www.inkscape.org/namespaces/inkscape"
   id="svg5864"
   version="1.1"
   inkscape:version="0.91 r13725"
   width="650"
   height="325"
   viewBox="0 0 650 325"
   sodipodi:docname="bb320800.svg">
  <metadata
     id="metadata5870">
    <rdf:RDF>
      <cc:Work
         rdf:about="">
        <dc:format>image/svg+xml</dc:format>
        <dc:type
           rdf:resource="http://purl.org/dc/dcmitype/StillImage" />
        <dc:title></dc:title>
      </cc:Work>
    </rdf:RDF>
  </metadata>
  <defs
     id="defs5868" />
  <sodipodi:namedview
     pagecolor="#b1b1b1"
     bordercolor="#666666"
     borderopacity="1"
     objecttolerance="10"
     gridtolerance="10"
     guidetolerance="10"
     inkscape:pageopacity="0"
     inkscape:pageshadow="2"
     inkscape:window-width="1404"
     inkscape:window-height="902"
     id="namedview5866"
     showgrid="false"
     inkscape:zoom="1"
     inkscape:cx="289.62864"
     inkscape:cy="154.66186"
     inkscape:window-x="0"
     inkscape:window-y="0"
     inkscape:window-maximized="0"
     inkscape:current-layer="svg5864" />
  <g
     id="g4660"
     transform="translate(30.024568,-12.912425)">
    <path
       sodipodi:nodetypes="cssscccccc"
       inkscape:connector-curvature="0"
       id="path4594"
       d="m 127.40851,142.83769 c -0.10753,-0.13935 -2.68428,1.69645 -5.72461,4.08008 -3.04034,2.38363 -11.09711,8.30751 -17.90429,13.16211 -6.80719,4.8546 -12.53103,9.34939 -12.97266,9.79102 -0.8986,0.8986 -1.23849,2.45438 -0.9512,3.20312 1.35777,3.53831 4.41069,2.81513 22.86914,-9.74816 l 13.74414,-9.66288 0.56641,-5.29013 c 0.31193,-2.42336 0.48057,-5.3958 0.37304,-5.53516 z"
       style="fill:#000000" />
    <path
       style="fill:#fefefe"
       d="m 127.40851,143.71269 c -0.10753,-0.13935 -2.68428,1.69645 -5.72461,4.08008 -3.04034,2.38363 -11.09711,8.30751 -17.90429,13.16211 -6.80719,4.8546 -12.64431,9.25974 -12.97266,9.79102 -0.32835,0.53128 -0.36349,1.57938 -0.0762,2.32812 1.08946,2.83909 3.53569,1.62189 21.99414,-10.9414 l 13.74414,-9.35352 0.56641,-4.40625 c 0.31193,-2.42336 0.48057,-4.5208 0.37304,-4.66016 z"
       id="path4581"
       inkscape:connector-curvature="0" />
    <path
       style="fill:#000000"
       d="m 136.61133,112.26172 c -0.93555,-0.025 -1.82333,0.65165 -2.54102,2.01172 -0.60408,1.14477 -2.11746,3.03516 -3.36328,4.20312 -1.88139,1.76382 -2.19666,2.78316 -1.86328,6.01367 0.35483,3.4381 0.0713,4.17193 -2.43945,6.32227 -2.66602,2.28336 -2.86131,2.89327 -3.18164,9.94727 -0.0145,0.31898 -0.0288,0.55964 -0.043,0.85351 -0.19223,5.05916 -0.35404,9.66945 -0.38672,12.11914 l 0.0957,2.19531 c 0.21626,4.94701 -0.0934,6.80493 -1.46679,8.78907 -1.00543,1.42621 -1.87554,2.83856 -2.69922,4.32031 -0.39225,0.65401 -0.72812,1.35899 -0.23047,1.82226 0.47153,0.37544 1.04567,0.33399 1.66015,0.33399 l 7.3418,-0.0137 c 7.45033,-0.0127 13.00481,-0.0359 19.72656,-0.0527 0.32235,-0.25536 0.56057,-0.66104 0.87305,-0.95117 l -0.41016,-2.71094 c -0.25039,-1.65357 -0.68674,-8.62743 -0.96875,-15.49609 -0.70075,-17.06655 -1.15935,-19.35345 -4.24609,-21.125 -2.48894,-1.42844 -2.50739,-1.50028 -1.07227,-4.50977 1.97016,-4.13147 0.69212,-7.79887 -3.15429,-9.05469 -1.65857,-0.54151 -2.66729,-1.42157 -2.4336,-2.12109 0.31003,-0.92802 0.69556,-0.95044 1.72071,-0.0996 1.76285,1.46304 2.77236,0.32357 1.29297,-1.45898 -0.72719,-0.87621 -1.48328,-1.31846 -2.21094,-1.33789 z m 4.77539,33.01953 0.68164,9.98242 c 0.37903,5.5608 0.30836,11.03635 -0.15625,12.36328 -0.75931,2.16856 -1.34854,2.40745 -6.5957,2.65821 -3.6502,0.17443 -5.76368,-0.0895 -5.76368,-0.7168 0,-0.54471 2.66185,-6.23202 5.91602,-12.63867 z m -18.50391,19.11719 c 0.13495,0.0944 0.17461,0.48489 0.17969,1.13867 0.0284,3.65858 -0.89214,4.80513 -4.03516,4.91211 -0.6778,-9.5e-4 1.30458,-2.68251 2.09375,-3.91016 1.04597,-1.63326 1.53682,-2.29787 1.76172,-2.14062 z"
       id="path4531"
       inkscape:connector-curvature="0"
       sodipodi:nodetypes="cssssccccccccccccssssscscccssscccsccc" />
    <path
       style="fill:#fefefe"
       d="m 129.41602,129.97461 c -0.46786,0.0619 -1.1579,0.42728 -2.10352,1.04687 -2.94626,1.93046 -3.2501,3.95417 -3.53711,23.49219 l -0.23437,15.95899 2.54296,-0.002 c 2.81736,-0.001 2.96692,-0.25834 1.60938,-2.79493 -1.05566,-1.97252 0.36809,-26.34578 1.9375,-33.16406 0.76829,-3.33781 0.81443,-4.67331 -0.21484,-4.53711 z m -6.60352,34.42969 c -0.0272,-0.004 -0.0592,0.0113 -0.11719,0.043 -0.20242,0.11076 -0.4969,0.51023 -1.68945,2.29687 -1.71902,2.57537 -2.08203,3.19145 -2.08203,3.52344 l 0,0.14453 0.27734,0 c 0.4028,-1.8e-4 1.01429,-0.0813 1.47266,-0.19727 0.59038,-0.14941 0.99593,-0.37302 1.36719,-0.74804 0.68173,-0.68864 0.93376,-1.54541 0.98046,-3.34375 0.0284,-1.09438 -0.002,-1.49733 -0.12109,-1.64258 -0.0387,-0.0471 -0.0607,-0.0718 -0.0879,-0.0762 z"
       id="path4535"
       inkscape:connector-curvature="0" />
    <path
       inkscape:connector-curvature="0"
       style="fill:#fefefe"
       d="m 142.77364,167.73194 c 0.7772,-2.05903 0.71477,-5.90233 -0.25166,-15.49497 -1.76696,-17.53844 -1.53875,-22.51113 0.92023,-20.05215 1.02375,1.02375 2.53062,15.73024 2.99868,29.26586 l 0.31189,9.01946 -2.50635,0 c -2.39337,0 -2.45976,-0.12342 -1.47279,-2.7382 z"
       id="path4537" />
    <path
       inkscape:connector-curvature="0"
       style="fill:#fefefe"
       d="m 128.20982,166.84107 c -0.37221,-0.60225 -0.39004,-3.56529 -0.0396,-6.58453 0.63352,-5.45838 0.65813,-5.49518 4.34131,-6.48695 2.0373,-0.54858 3.78292,-0.866 3.87917,-0.70536 0.0962,0.16063 -1.55282,3.57252 -3.66457,7.58196 -2.34375,4.44995 -4.10316,6.8633 -4.51628,6.19488 z"
       id="path4539" />
    <path
       inkscape:connector-curvature="0"
       style="fill:#fefefe"
       d="m 132.53448,130.17702 c -2.42075,-1.69556 -2.61218,-3.42202 -0.6023,-5.4319 1.77669,-1.77669 5.01511,-1.87646 7.27482,-0.22412 1.453,1.06246 1.52107,1.53395 0.50086,3.46903 -2.06324,3.91343 -3.90632,4.47534 -7.17338,2.18699 z"
       id="path4541" />
    <path
       inkscape:connector-curvature="0"
       style="fill:#007f7f"
       d="m 129.12098,145.84609 c 0.33486,-4.51861 0.99757,-9.76225 1.4727,-11.65254 0.80031,-3.18393 0.73843,-3.73476 2.74749,-2.81937 1.55054,0.70648 3.1111,0.6118 4.47411,-0.11765 3.18537,-1.70477 4.05202,-1.08221 3.13263,2.12355 -0.46443,1.61934 -0.93573,4.76901 -0.62924,6.6857 0.37854,2.36724 0.007,4.81482 -1.15792,7.6318 -1.43333,3.46544 -2.22244,4.24207 -4.80188,4.72598 -1.69768,0.31848 -3.70769,0.81737 -4.4667,1.10863 -1.18659,0.45533 -1.29468,-0.62199 -0.77119,-7.6861 z"
       id="path4543" />
    <path
       sodipodi:nodetypes="sssssssscccsccscccccscssssccccccssssssss"
       inkscape:connector-curvature="0"
       id="path4201"
       d="m 545.52148,113.51758 c -0.59852,0.0502 -1.21635,0.21859 -1.91406,0.48633 -2.45671,0.94272 -1.69451,2.49991 0.9043,1.84765 3.59869,-0.90322 4.53613,0.3116 1.86328,2.41406 -1.83344,1.44218 -2.375,2.72159 -2.375,5.61133 0,2.05898 0.43694,4.56125 0.9707,5.5586 0.83979,1.56914 0.65317,1.8125 -1.38476,1.8125 -1.47514,0 -2.92667,0.87174 -3.88477,2.33398 -1.54052,2.35115 -1.48492,9.97305 0.19922,26.97266 l 0.53516,5.39843 -3.37305,1.41016 c -1.85588,0.77544 -3.375,1.82528 -3.375,2.33399 0,0.5395 -11.07495,0.8509 -30.19141,0.90429 -44.8893,0.31869 -151.78024,0.38678 -239.04101,0.29883 8.14059,0.10305 59.78951,0.33073 128.73828,0.43555 l 147.78906,0.22461 0.38281,3.28125 0.38282,3.28125 -148.16993,0.23242 -132.4375,0.23047 132.625,0.24023 c 140.46659,0.25443 148.35997,0.32635 148.38477,1.87695 0.0963,6.00918 4.64384,37.04842 5.5957,38.19532 0.64435,0.7764 2.37326,1.41211 3.84375,1.41211 4.42719,0 5.30934,-3.1149 5.98438,-21.14063 0.32728,-8.73961 0.79117,-16.83984 1.0293,-18 0.41165,-2.00554 0.90407,-2.11865 10.02343,-2.30664 l 9.5918,-0.19726 -9.60937,-0.30469 -9.60938,-0.30469 0,-3.24805 0,-3.24804 9.60938,-0.1836 c 7.61249,-0.14546 8.28612,-0.25111 3.23828,-0.51172 -9.91517,-0.51188 -9.95078,-0.58401 -9.35938,-19.13281 0.47016,-14.74597 0.40999,-15.42596 -1.56836,-17.90625 -1.21764,-1.52655 -2.97484,-2.57812 -4.30859,-2.57812 -2.03054,0 -2.16209,-0.23649 -1.33789,-2.4043 2.01814,-5.3081 1.18826,-8.39446 -3.22852,-12.01367 -3.10376,-2.5433 -4.72785,-3.46302 -6.52344,-3.3125 z"
       style="fill:#000000" />
    <path
       id="path4481"
       d="m 45.605776,178.06035 c 0.0268,0.91319 0.0259,2.48736 0.0742,3.31445 0.95855,16.40887 0.94511,20.71686 2.19336,21.50391 2.56189,1.61535 5.17252,0.33719 5.19922,-4.83594 0.013,-2.51293 0.89254,-9.03145 1.51953,-19.98242 l -0.97852,0 c -0.61313,8.93628 -1.35613,15.02954 -1.39648,18.16211 -0.0777,6.04348 -1.21265,6.76638 -3.5,6 -1.19892,-0.40171 -1.06654,-0.0796 -2.22852,-21.8125 -0.0245,-0.45882 -0.0132,-1.56116 -0.0156,-2.34961 l -0.86719,0 z"
       style="fill:#000000"
       inkscape:connector-curvature="0" />
    <path
       sodipodi:nodetypes="csccscccccccccc"
       inkscape:connector-curvature="0"
       id="path4375"
       d="m 12.562806,171.49785 0,2.65625 c 0,1.46094 0.28125,2.93751 0.625,3.28125 0.302826,0.30283 30.031932,0.5453 68.128906,0.60156 -0.816525,-0.50312 -1.578153,-0.96609 -2.503906,-1.54687 -2.88062,-1.8072 -5.438377,-3.45086 -7.810547,-4.99219 l -54.974609,0 z m 75.595703,0 2.529297,1.77344 c 2.679126,1.8776 5.231896,3.31089 7.898438,4.78906 l 433.885376,0 0,-6.30286 -427.22717,-0.25964 z"
       style="fill:#fefefe" />
    <path
       sodipodi:nodetypes="cccccccccscccccsccccccscsssscccccccccccccssccccc"
       inkscape:connector-curvature="0"
       id="path4469"
       d="m 532.47162,170.69902 -446.654908,0.041 c 0.401897,0.27325 0.742888,0.4936 1.134766,0.75781 l 445.785312,-0.0552 z m -461.238892,0.0547 -28.904297,0.0273 -30.234375,0.24805 -0.302734,2.63477 c -0.408753,3.56481 1.298162,5.33398 5.144531,5.33398 3.799098,0 3.824682,0.0215 17.035156,14.94336 l 10.324219,11.66211 -10.945313,16.16992 -10.943359,16.16992 -7.96875,0.33399 c -4.382813,0.18419 379.539064,0.31478 532.937504,0.29492 l 28.89258,-0.004 0,-0.28125 -495.451178,-0.23047 0,-0.008 c -9.556985,-0.0107 -18.965235,-0.0215 -20.162109,-0.0215 l 0.01172,-0.004 c -3.10169,0.0278 -6.880891,0.0371 -12.025391,0.0371 l -22.984375,0 12.871094,-18.98438 c 7.079214,-10.44139 15.734437,-23.16744 19.234375,-28.27929 3.499937,-5.11184 6.363281,-9.85794 6.363281,-10.54688 0,-0.80655 1.16846,-1.25195 3.28125,-1.25195 0.01699,0 13.541758,-9e-5 16.966797,0 -0.671044,-0.39884 -1.392795,-0.83192 -2.154297,-1.29688 l -69.1875,-0.10937 -0.292969,-3.04687 -0.294923,-3.04645 59.931641,0 c -0.402924,-0.2602 -0.755995,-0.49292 -1.142578,-0.74413 z m 25.330078,6.96875 c 0.856517,0.52257 1.513794,0.89787 2.171875,1.27539 10.007989,2.5e-4 423.609439,-0.28626 433.736939,-0.28526 l 0.22097,-0.56365 z m -71.949219,1.27538 18.261719,0 c 16.938039,0 18.228617,0.11895 17.8125,1.64062 -0.24675,0.90236 -3.704739,6.34674 -7.685547,12.09961 l -7.238281,10.46094 -7.927734,-8.94726 c -4.36089,-4.92079 -9.120664,-10.36519 -10.576172,-12.09961 z"
       style="fill:#000000" />
    <path
       style="fill:#fefefe"
       d="m 253.3714,171.49785 1.09571,2.10938 c 0.60218,1.16015 1.51114,2.63671 2.02148,3.28124 0.65625,0.82881 4.46367,1.17188 13.00195,1.17188 41.31777,0.12657 82.89823,0.0625 124.32227,0.0625 l 147.93555,0 -0.38282,-3.28125 -0.38281,-3.28125 -147.55469,0 c -42.00177,0.0828 -84.05144,-0.0625 -125.96093,-0.0625 z"
       id="path4373"
       inkscape:connector-curvature="0"
       sodipodi:nodetypes="ccscccccccc" />
    <path
       inkscape:connector-curvature="0"
       id="path4349"
       d="m 550.25226,121.91387 c -1.6894,-0.0552 -3.40139,0.29591 -4.18945,1.08398 -1.55213,1.55213 -1.40831,4.61605 0.33398,7.10352 1.59692,2.27993 5.245,2.76673 6.78907,0.90625 1.73984,-2.09639 2.34144,-6.2651 1.11718,-7.74024 -0.6942,-0.83646 -2.36137,-1.29835 -4.05078,-1.35351 z"
       style="fill:#fefefe" />
    <path
       inkscape:connector-curvature="0"
       id="path4343"
       d="m 557.50617,132.14433 c -0.81089,-0.0631 -1.23602,0.63952 -0.70703,2.1504 0.40619,1.16015 0.76567,5.06249 0.79687,8.67187 0.0312,3.60937 0.41914,11.30859 0.86328,17.10937 0.78303,10.22689 0.87433,10.54688 3.01758,10.54688 1.21568,0 2.21094,-0.42188 2.21094,-0.9375 0,-0.51563 -0.61323,-0.9375 -1.36328,-0.9375 -1.16211,0 -1.27917,-2.34725 -0.79297,-15.88086 0.49969,-13.90857 0.37491,-16.1799 -1.00195,-18.28125 -1.01473,-1.54867 -2.21255,-2.37833 -3.02344,-2.44141 z"
       style="fill:#fefefe" />
    <path
       inkscape:connector-curvature="0"
       id="path4341"
       d="m 542.11945,132.18535 c -2.29806,0 -2.85507,4.11935 -2.18555,16.17383 0.57436,10.34107 0.79922,11.63549 1.3418,7.73242 1.19603,-8.60353 1.73613,-23.90625 0.84375,-23.90625 z"
       style="fill:#fefefe" />
    <path
       inkscape:connector-curvature="0"
       id="path4325"
       d="m 542.35969,164.04277 c -0.33112,-0.008 -0.60693,0.0776 -0.80274,0.27344 -0.58399,0.584 5.34261,50.31002 6.31055,52.94726 1.09802,2.99165 5.76887,2.93176 7.14648,-0.0918 1.02035,-2.23941 3.69904,-51.83614 2.84571,-52.68945 -0.99609,-0.99611 -3.59617,0.8448 -5.4629,3.86523 -1.89467,3.06564 -1.92214,3.61566 -0.875,17.95312 0.59409,8.13517 0.90625,16.68946 0.69336,19.00977 -0.3266,3.5596 -0.41258,3.27464 -0.55078,-1.82227 -0.45823,-16.89992 -2.23519,-32.43591 -4.04687,-35.39453 -1.36334,-2.22646 -3.823,-4.01762 -5.25781,-4.05078 z"
       style="fill:#fefefe" />
    <path
       inkscape:connector-curvature="0"
       id="path4323"
       d="m 539.69562,167.55449 c -0.48712,-0.0505 -1.20049,0.14446 -2.31836,0.56641 -1.5137,0.57136 -2.75195,1.36695 -2.75195,1.76953 0,0.40258 1.47656,0.73242 3.28125,0.73242 3.50237,0 3.56344,-0.0474 2.75195,-2.16211 -0.21489,-0.56 -0.47577,-0.85579 -0.96289,-0.90625 z"
       style="fill:#fefefe" />
    <path
       inkscape:connector-curvature="0"
       id="path6424"
       d="m 559.00031,171.56035 0,3.28125 0,3.28125 9.375,0 9.375,0 0,-3.28125 0,-3.28125 -9.375,0 -9.375,0 z"
       style="fill:#fefefe" />
    <path
       inkscape:connector-curvature="0"
       id="path4463"
       d="m 547.96267,167.27094 c -1.14398,-1.74516 -3.16854,-3.44623 -4.49902,-3.78016 -2.03869,-0.51168 -2.32498,-0.98201 -1.82071,-2.99119 0.45618,-1.81755 1.3073,-16.36679 2.03093,-28.489 0.0182,-0.30485 2.48473,0.36011 5.57082,0.40204 4.06516,0.0552 6.1405,0.61291 6.56839,1.63844 0.32485,0.77855 0.70402,5.63428 0.8426,10.79053 0.13858,5.15625 0.55354,11.33725 0.92211,13.73557 0.60211,3.91785 0.46921,4.42435 -1.30906,4.98874 -1.08856,0.3455 -2.93475,2.03441 -4.10265,3.75311 l -2.12345,3.12494 z"
       style="fill:#007f7f" />
    <path
       sodipodi:nodetypes="csssccccscccccccsssccccccsccccsscccscccccccscccssccccccccccccc"
       inkscape:connector-curvature="0"
       id="path4677"
       d="m 72.58429,119.37676 c -1.49325,0.0355 -3.250724,0.81525 -4.708984,2.16015 -0.77344,0.71332 -2.187898,1.83024 -3.142578,2.48242 -1.08667,0.74235 -1.910728,2.746 -2.205078,5.35743 -0.2592,2.29962 -0.526795,3.42805 -2.646485,5.46875 -0.22497,0.33738 -0.45684,1.043 -0.6875,1.87304 -1.39741,1.35444 -6.255736,7.29091 -8.972656,10.46875 -4.06208,4.83731 -4.843684,9.43032 -4.964844,23.51367 -3.39279,0.0801 -7.587802,0.12502 -12.976562,0.125 -6.28554,0 -11.913893,0.076 -16.251953,-0.01 l 0,0.68164 29.216797,0 0.988281,0 8.480469,0 0.986328,0 15.302734,0 c 2.37217,1.54133 4.929927,3.18499 7.810547,4.99219 12.45102,7.81135 14.534499,8.30243 19.386719,9.42773 4.704975,1.09116 6.443145,1.16829 7.453125,0.33008 0.75601,-0.62743 1.17205,-1.20316 1.19336,-1.80664 0.0469,-1.32765 -1.82,-2.78921 -6.20312,-5.22852 -3.480498,-1.93691 -6.585694,-3.58004 -9.955084,-5.9414 l -2.529297,-1.7732 40.910161,-0.15468 0,-0.78282 -24.08594,0 c -10.10864,0 -15.6011,-0.0577 -18.67383,-0.29883 -1.16711,-0.78214 -2.583048,-1.80558 -4.048828,-2.87695 -0.28556,-3.23145 -0.381573,-10.11192 -0.251954,-14.49219 -0.0336,-3.91054 -0.07681,-8.32336 -0.123046,-10.45117 -0.0761,-3.50002 -0.456114,-4.71056 -2.158204,-6.63477 -1.702078,-1.92421 -3.528913,-5.02749 -4.189453,-7.24218 -0.85344,-2.86152 -1.932175,-4.33947 -3.728515,-5.11133 l -2.527344,-1.08789 3.046875,-0.33594 c 3.21344,-0.35558 4.002805,-1.52714 1.640625,-2.43359 -0.41794,-0.16038 -0.887006,-0.23059 -1.384766,-0.21875 z m 3.283204,25.27929 c 0.13222,0.31184 0.235151,0.59327 0.263671,0.79102 0.32209,0.75887 0.520322,1.45737 0.613282,2.14648 l 0.03711,-0.002 -0.0078,0.18359 c 1.4e-4,0.001 -1.41e-4,0.003 0,0.004 0.0256,0.2393 0.03906,0.47787 0.03906,0.71875 0,0.0955 -0.03082,0.1834 -0.07813,0.26562 l -0.21875,5.39063 c -0.10178,2.52156 -0.407952,5.77095 -0.763672,8.44336 -0.82413,-0.60406 -1.672921,-1.22892 -2.363281,-1.71484 -2.51691,-1.77158 -4.638499,-3.36971 -5.511719,-4.06836 -0.87321,-0.69865 -1.225184,-0.94222 -3.302734,-2.23438 -0.34881,-0.21694 -0.839945,-0.62574 -1.378907,-1.09765 10e-4,-0.24764 0.0019,-0.56274 0.0039,-0.8086 5.66445,-2.82297 12.298907,-7.74267 12.667969,-8.01758 z m -19.207032,16.79883 0.767578,0.58008 c 0.0239,3.79838 -0.0765,6.78491 -0.271484,7.29297 -0.0925,0.24116 -0.485107,0.45382 -1.310547,0.63867 z m 7.347656,5.40039 c 1.477182,1.01344 3.391513,2.28481 5.539063,3.69141 -3.49391,-0.0288 -4.1973,-0.39125 -5.1875,-2.52344 -0.12611,-0.2715 -0.241642,-0.68888 -0.351563,-1.16797 z"
       style="fill:#000000" />
    <path
       id="path4675"
       d="m 68.685856,132.31426 c 0.82693,-0.002 1.69881,0.0703 2.55273,0.23047 3.36339,0.63096 3.95704,2.03584 2.22852,5.26562 -0.67486,1.26099 -1.96729,1.8125 -4.24219,1.8125 -2.64909,0 -3.4452,-0.45702 -4.18555,-2.4043 -0.50287,-1.32263 -0.91406,-2.77144 -0.91406,-3.21875 0,-1.00462 2.07975,-1.68038 4.56055,-1.68554 z"
       style="fill:#ffffff"
       inkscape:connector-curvature="0" />
    <path
       id="path4673"
       d="m 76.355776,133.99785 c 0.49226,0 1.73828,0.84375 2.76953,1.875 1.71795,1.71795 1.875,3.1255 1.875,16.79883 0,5.80605 0.13084,11.07751 0.31641,14.02539 -1.56857,-1.15503 -3.15232,-2.3281 -4.65235,-3.43555 0.83582,-5.94531 1.39752,-14.0175 0.95508,-15.92578 -0.32604,-1.40624 -1.2133,-3.54953 -1.97266,-4.76367 -1.46785,-2.34697 -0.95285,-8.57422 0.70899,-8.57422 z"
       style="fill:#ffffff"
       inkscape:connector-curvature="0" />
    <path
       id="path4671"
       d="m 62.041326,135.03691 c 1.83209,0.003 2.14532,2.80946 1.20507,6.19532 -0.52508,1.89082 -0.82697,6.58429 -0.92578,11.4707 -1.09495,-1.00201 -2.36376,-2.18976 -3.60351,-3.25781 0.46133,-11.90252 1.00957,-14.01063 2.9375,-14.3711 0.13572,-0.0254 0.26458,-0.0373 0.38672,-0.0371 z"
       style="fill:#ffffff"
       inkscape:connector-curvature="0" />
    <path
       id="path4669"
       d="m 58.806946,138.26152 c -0.70845,3.19295 -1.32793,7.5945 -1.55859,9.99219 -1.23714,-0.94007 -2.3479,-1.59375 -3.03907,-1.4668 -2.16552,0.39774 -3.86772,5.3088 -3.42578,8.04883 0.0642,0.38344 0.59028,1.4102 0.13282,0.97266 -1.06066,-1.10486 -1.98763,-2.54898 -2.20118,-4.08985 -0.0557,-0.9382 0.14229,-1.90226 0.80078,-2.64648 1.05792,-1.35941 7.92269,-10.39132 9.29102,-10.81055 z"
       style="fill:#008080"
       inkscape:connector-curvature="0" />
    <path
       id="path4667"
       d="m 67.324526,140.03496 c 0.3928,-0.006 0.83265,-0.004 1.32812,0.002 3.71698,0.046 4.64462,0.44979 6.13672,2.67188 0.29274,0.43595 0.53511,0.85533 0.74414,1.25 -0.72916,0.55941 -6.54067,4.96778 -12.33203,7.98633 0.58054,-3.7446 -0.51359,-8.34647 1.40039,-11.35157 0.45367,-0.40006 1.24228,-0.53746 2.72266,-0.55859 z"
       style="fill:#008080"
       inkscape:connector-curvature="0" />
    <path
       id="path4663"
       d="m 54.420226,147.76152 c 0.12933,-0.006 0.25973,-0.003 0.39063,0.01 2.09441,0.20819 8.87866,7.28519 10.15039,8.12109 0.0741,0.0489 14.50976,10.44141 14.50976,10.44141 9.02344,6.39702 16.7515,11.32105 20.22852,13.23242 4.488124,2.46719 6.446464,4.04765 6.287114,5.21484 -0.0531,0.38907 -0.34077,0.7324 -0.84961,1.04688 -0.49308,0.30473 -3.64588,-0.084 -7.005864,-0.86328 -4.77778,-1.10804 -6.92199,-1.61385 -18.8125,-9.05078 -8.36203,-5.23003 -14.98267,-9.64834 -17.46289,-11.5 -1.71749,-1.28223 -3.52441,-2.39976 -5.64649,-4.31055 -2.12207,-1.91078 -4.10896,-3.85025 -4.58593,-5.40039 -0.46611,-1.51486 0.857,-6.85055 2.79687,-6.94141 z"
       style="fill:#ffffff"
       inkscape:connector-curvature="0" />
    <path
       id="path4661"
       d="m 47.832337,152.92168 c -0.84997,1.12978 -0.811129,2.14651 -0.917969,3.61719 -0.07194,0.99027 -0.421566,6.04391 -0.654296,14.13281 4.10268,-0.11304 6.821915,-0.28772 8.478515,-0.52539 0.1238,-4.19664 0.765625,-7.52921 0.765625,-9.68164 -2.14439,-1.76946 -5.506015,-4.81709 -7.671875,-7.54297 z m -1.375,26.08203 0.05859,1.05078 c 0.03176,0.57831 0.196008,3.67627 0.365234,6.88477 0.448145,8.49678 0.640209,11.5819 0.804688,12.88476 0.02935,0.23254 0.06604,0.41053 0.08203,0.39453 0.01599,-0.016 1.040121,-1.48842 2.275391,-3.27343 l 2.246093,-3.2461 0.05664,-0.68359 c 0.03123,-0.37608 0.233784,-2.73273 0.449219,-5.23633 0.525608,-6.10817 0.708145,-8.56141 0.640625,-8.62891 -0.03093,-0.031 -1.614239,-0.0767 -3.517578,-0.10156 l -3.460938,-0.0449 z m 5.548828,20.33008 c -0.0061,-0.0389 -0.282349,0.34117 -0.791015,1.08984 -0.429687,0.63242 -0.917341,1.35047 -1.083985,1.5957 l -0.304687,0.44532 0.148437,0 c 0.08071,-3e-4 0.239544,-0.0207 0.353516,-0.0449 0.845234,-0.17915 1.34005,-0.9836 1.621094,-2.63868 0.0362,-0.21316 0.06184,-0.41446 0.05664,-0.44726 z"
       style="fill:#ffffff"
       inkscape:connector-curvature="0" />
    <path
       id="path4657"
       d="m 58.281556,162.67754 2.70703,2.04297 c 0.40993,0.30935 1.11315,0.79898 1.77149,1.26172 0.12055,0.72151 0.26161,1.1942 0.42773,1.29687 0.51562,0.31867 0.9375,1.18668 0.9375,1.92969 0,0.89876 -1.01974,1.35241 -3.04688,1.35351 l -3.04687,0.002 0.25,-7.88672 z"
       style="fill:#ffffff"
       inkscape:connector-curvature="0" />
    <path
       inkscape:connector-curvature="0"
       id="path4338"
       d="m 283.13306,118.07996 c -0.96747,0.0353 -1.71485,0.31202 -1.71485,0.88867 0,0.46933 -1.40771,1.31737 -3.12695,1.88477 -5.02936,1.65983 -6.43677,3.86452 -5.91797,9.26367 0.37459,3.89835 0.19888,4.65039 -1.08984,4.65039 -4.12758,0 -4.73341,1.74634 -5.61914,16.21484 -0.46634,7.61777 -0.85914,14.5705 -0.87305,15.45118 -0.0136,0.86438 -0.88078,1.71879 -2.08398,2.10156 -2.4023,1.14406 -3.84766,2.51758 -3.84766,2.51758 l 8.62891,0.0117 -0.28907,2.7871 c -0.10782,1.04432 -0.46138,5.87458 -0.55468,7.51563 0.27352,3.14429 2.86082,5.20508 6.64257,5.20508 2.91248,0 4.10607,-0.47722 6.51758,-2.89063 1.23595,-1.63705 2.61474,-3.54408 3.65039,-5.2832 2.12132,-3.66812 3.88868,-8.30664 3.88867,-8.30664 l 0.0215,0 c -0.002,-0.005 -0.0342,-0.009 -0.0312,-0.0137 0.60043,-0.97152 2.27829,-11.36874 3.37305,-20.89844 0.75582,-6.57925 0.65336,-7.63217 -1.00196,-10.31055 -1.01401,-1.64069 -2.88573,-3.2446 -4.16015,-3.56445 -1.94468,-0.48809 -2.16653,-0.86697 -1.37305,-2.34961 1.55479,-2.90515 1.12316,-8.18544 -0.82813,-10.13672 -0.97516,-0.97518 -1.52921,-2.01571 -1.23242,-2.3125 0.97494,-0.97494 3.76981,-0.56328 4.19141,0.61719 0.22714,0.63601 0.68546,0.90446 1.02148,0.5957 0.33603,-0.30877 0.35009,-1.24602 0.0293,-2.08203 -0.38547,-1.00437 -2.60825,-1.61542 -4.2207,-1.55664 z"
       style="fill:#000000" />
    <path
       id="path4271"
       d="m 268.38693,183.64726 c -1.36162,-2.54422 -0.38123,-12.93794 1.61774,-17.15043 0.97715,-2.05922 2.0909,-3.04726 3.4242,-3.0377 4.12386,0.0296 4.34293,1.00915 1.95582,8.74606 -1.24065,4.02112 -2.08537,7.48149 -1.87714,7.68972 0.20823,0.20822 1.26832,-2.67934 2.35577,-6.4168 2.23589,-7.6846 4.33517,-10.03315 8.96828,-10.03315 3.13031,0 3.19365,0.0736 2.59031,3.00649 -1.04419,5.07595 -6.20931,15.52214 -8.60778,17.40877 -3.22165,2.53416 -9.02037,2.41572 -10.4272,-0.21296 z"
       style="fill:#fefefe"
       inkscape:connector-curvature="0" />
    <path
       id="path4263"
       d="m 263.00992,169.46353 c 2.11274,-1.14842 2.47861,-2.07471 2.99991,-7.59481 0.32654,-3.45778 0.59667,-8.62241 0.60028,-11.47694 0.0115,-9.0305 0.97507,-13.66303 2.97404,-14.29749 2.61028,-0.82846 2.91219,-0.0212 1.21757,3.25584 -1.29633,2.50684 -1.36826,4.10197 -0.5257,11.65814 0.88189,7.90883 0.79703,9.2635 -0.87907,14.03227 -1.02035,2.90309 -1.85518,5.39684 -1.85518,5.54168 0,0.14483 -1.56106,0.24666 -3.46903,0.22628 l -3.46902,-0.037 2.4062,-1.30794 z"
       style="fill:#fefefe"
       inkscape:connector-curvature="0" />
    <path
       id="path4241"
       d="m 287.56096,157.69955 c -0.31207,-1.16496 -0.57309,-5.56709 -0.58004,-9.78251 -0.009,-5.37829 -0.44438,-8.32334 -1.46015,-9.87359 -1.35761,-2.07198 -1.33884,-2.18078 0.30203,-1.75169 0.96225,0.25164 2.43224,1.61326 3.26667,3.02581 1.31843,2.23195 1.38995,3.70741 0.54603,11.26616 -0.53409,4.78381 -1.0917,8.81846 -1.23912,8.96589 -0.14742,0.14741 -0.52336,-0.68512 -0.83542,-1.85007 z"
       style="fill:#fefefe"
       inkscape:connector-curvature="0" />
    <path
       id="path4233"
       d="m 274.04982,133.90305 c -2.27656,-4.25382 -0.501,-7.4614 4.13028,-7.4614 3.49925,0 5.08791,1.44423 5.08791,4.62536 0,3.21769 -1.59486,4.62537 -5.24038,4.62537 -2.0392,0 -3.33123,-0.58119 -3.97781,-1.78933 z"
       style="fill:#fefefe"
       inkscape:connector-curvature="0" />
    <path
       id="path4400"
       d="m 276.7925,163.44939 c -0.76319,-0.49565 -2.36878,-0.90756 -3.568,-0.91536 -1.60603,-0.0104 -2.03238,-0.39986 -1.61852,-1.47837 0.30904,-0.80531 0.12936,-5.28034 -0.39924,-9.94453 -0.81394,-7.18169 -0.73764,-8.97614 0.49817,-11.71808 1.41852,-3.14732 1.60133,-3.23569 6.54509,-3.16393 6.91802,0.10042 7.41284,1.01633 8.03259,14.86807 l 0.50297,11.24159 -2.91512,0.41212 c -1.60332,0.22666 -3.53954,0.67931 -4.30273,1.00589 -0.76318,0.32658 -2.01203,0.18825 -2.77521,-0.3074 z"
       style="fill:#007f7f"
       inkscape:connector-curvature="0" />
    <path
       inkscape:connector-curvature="0"
       id="path4336"
       d="m 379.87525,112.56629 c -1.23807,0 -2.25,0.41504 -2.25,0.92383 0,0.50879 0.72875,0.93361 1.61914,0.9414 0.89038,0.008 2.24264,0.41178 3.00586,0.89844 1.17939,0.75206 1.08004,1.10201 -0.66602,2.33203 -1.12987,0.79593 -2.55006,3.09652 -3.1543,5.11328 -1.19623,3.99268 -1.82528,4.3937 -3.58008,2.2793 -1.83269,-2.20826 -6.04134,-1.6293 -12.74218,1.75195 -4.8124,2.42833 -7.34416,4.52355 -11.17578,9.25586 -2.72429,3.36469 -4.73196,6.69137 -4.4629,7.39258 0.35587,0.92736 -0.94158,1.55907 -4.75976,2.31641 -2.88708,0.57267 -12.65414,2.85195 -21.70313,5.06445 -12.24636,2.99428 -17.03534,4.56973 -18.73242,6.16406 -4.08918,3.84157 -2.58741,5.93864 5.29883,7.39649 4.41974,0.81704 8.12596,0.41086 29.37891,-3.22071 21.93659,-3.74838 24.63717,-4.40748 27.55859,-6.72461 1.78137,-1.4129 5.99853,-4.5687 9.37109,-7.01367 l 6.13282,-4.44726 0.31054,3.05859 c 0.36907,3.62822 -2.23692,16.41782 -4.3457,21.32813 l -1.49023,3.46874 -0.30078,0 4.84374,0.45508 4.08985,-1.46484 c -1.9918,-1.42322 -0.73252,-5.61843 1.85937,-18.26367 l 2.90625,-14.1836 -1.86523,-2.375 -1.86719,-2.37304 3.22656,-2.19141 c 3.4035,-2.31274 5.1211,-4.74345 5.1211,-7.24414 0,-2.38627 -9.01955,-10.63867 -11.62695,-10.63867 z m -11.49415,17.65625 -1.33203,2.57422 c -0.73256,1.41662 -3.16916,4.08235 -5.41406,5.92187 -2.2449,1.83954 -5.22434,3.63186 -6.62109,3.98242 l -2.53907,0.63672 1.39258,-2.66601 c 2.08592,-3.99533 6.19807,-7.51622 10.5918,-9.06641 l 3.92187,-1.38281 z"
       style="fill:#000000" />
    <path
       id="path4261"
       d="m 374.85022,169.45753 c 0,-0.76318 0.34748,-1.3876 0.77215,-1.3876 1.11888,0 4.78283,-17.22019 4.82229,-22.66429 0.0417,-5.74284 2.73083,-11.48047 4.4244,-9.43985 0.87734,1.05712 0.4932,4.32839 -1.82775,15.56494 -1.61619,7.82458 -2.97558,15.37129 -3.02086,16.77046 -0.0692,2.13855 -0.48774,2.54395 -2.62628,2.54395 -1.64458,0 -2.54395,-0.49057 -2.54395,-1.38761 z"
       style="fill:#fefefe"
       inkscape:connector-curvature="0" />
    <path
       id="path4243"
       d="m 305.68681,163.38902 c -4.68723,-0.92408 -5.76749,-1.50349 -5.76749,-3.09344 0,-2.1341 3.42177,-4.35445 8.93317,-5.79661 8.14833,-2.13218 43.83623,-10.48094 44.80213,-10.48094 0.4642,0 0.84399,0.52145 0.84399,1.15879 0,0.76399 -7.80028,2.84247 -22.89555,6.10079 -12.59256,2.71811 -23.51998,5.35021 -24.28316,5.84911 -1.1886,0.777 -1.17288,0.8416 0.10961,0.45043 0.82347,-0.25116 11.54423,-2.6376 23.82393,-5.30318 19.91999,-4.32409 22.71462,-4.7303 25.92533,-3.76835 2.68514,0.80449 3.75401,1.69726 4.21074,3.517 0.33665,1.34136 0.24933,2.8016 -0.19406,3.24499 -0.76503,0.76502 -48.1333,9.21432 -50.45937,9.00067 -0.60693,-0.0557 -2.87909,-0.45142 -5.04927,-0.87926 z"
       style="fill:#fefefe"
       inkscape:connector-curvature="0" />
    <path
       id="path4239"
       d="m 347.54569,143.06889 c -0.32263,-0.52203 1.422,-3.46572 3.87697,-6.54154 3.35677,-4.20569 6.00617,-6.37886 10.68471,-8.76412 6.08999,-3.10486 11.16489,-4.05146 12.25596,-2.28605 0.64541,1.04429 -2.77305,2.89196 -9.28723,5.01971 -4.67137,1.52583 -9.43928,5.63193 -12.74646,10.97719 -1.60481,2.59381 -3.7289,3.3019 -4.78395,1.59481 z"
       style="fill:#fefefe"
       inkscape:connector-curvature="0" />
    <path
       id="path4227"
       d="m 379.60732,130.50012 c -1.66685,-1.1675 -1.9972,-2.02137 -1.51908,-3.92638 0.66702,-2.6576 2.11465,-4.75746 3.27978,-4.75746 1.2702,0 6.43322,4.73168 6.43322,5.89576 0,0.90861 -4.5046,4.28004 -5.71861,4.28004 -0.18988,0 -1.30377,-0.67138 -2.47531,-1.49196 z"
       style="fill:#fefefe"
       inkscape:connector-curvature="0" />
    <path
       id="path4398"
       d="m 361.87151,152.41797 c -0.52602,-1.6081 -1.8443,-3.37345 -3.90549,-4.23466 -2.05233,-0.85753 -3.05546,-2.2115 -3.05546,-3.42329 0,-1.01075 0.6155,-1.72284 1.17064,-1.89474 1.65709,-0.51312 10.05279,-7.65281 12.07731,-11.14561 0.53753,-0.92738 1.89433,-2.30133 3.84315,-3.30474 l 3.25358,-2.01728 3.20307,3.28998 c 1.56095,1.6033 3.30618,2.78629 3.98966,3.00687 0.96852,0.31258 0.49404,2.21045 -1.14364,5.58129 -1.48353,3.05355 -3.21008,4.78656 -6.83145,7.2642 -2.8211,1.93012 -6.15442,4.68759 -7.89868,6.00507 l -3.9667,3.12293 z"
       style="fill:#007f7f"
       inkscape:connector-curvature="0" />
    <path
       inkscape:connector-curvature="0"
       id="path4334"
       d="m 422.61157,112.6366 c -0.93555,-0.025 -1.82332,0.65165 -2.54101,2.01172 -0.60408,1.14477 -2.11746,3.03516 -3.36328,4.20312 -1.88139,1.76382 -2.19667,2.78317 -1.86329,6.01368 0.35483,3.4381 0.0713,4.17192 -2.43945,6.32226 -2.66602,2.28336 -2.86131,2.89327 -3.18164,9.94727 -0.33203,7.31129 -0.47623,7.72274 -5.35351,15.14453 -5.64766,8.59408 -6.61713,11.19137 -4.92969,13.22461 0.29143,0.35115 0.41473,0.61179 0.26758,0.80273 l 2.79492,1.26758 11.49219,-0.0195 c 7.45033,-0.0127 13.00481,-0.0359 19.72656,-0.0527 0.32235,-0.25536 0.56056,-0.66105 0.87304,-0.95118 l -0.41015,-2.71093 c -0.25039,-1.65357 -0.68674,-8.62744 -0.96875,-15.4961 -0.70075,-17.06655 -1.15936,-19.35345 -4.2461,-21.125 -2.48894,-1.42844 -2.50738,-1.50027 -1.07226,-4.50976 1.97016,-4.13147 0.69211,-7.79887 -3.1543,-9.05469 -1.65857,-0.54151 -2.66728,-1.42158 -2.43359,-2.1211 0.31003,-0.92802 0.69555,-0.95043 1.7207,-0.0996 1.76285,1.46304 2.77236,0.32356 1.29297,-1.45899 -0.72719,-0.87621 -1.48328,-1.31846 -2.21094,-1.33789 z m 4.77539,33.01953 0.68164,9.98242 c 0.37903,5.5608 0.30836,11.03636 -0.15625,12.36329 -0.75931,2.16856 -1.34854,2.40744 -6.5957,2.6582 -3.6502,0.17443 -5.76367,-0.0895 -5.76367,-0.7168 0,-0.54471 2.66184,-6.23202 5.91601,-12.63867 l 5.91797,-11.64844 z"
       style="fill:#000000" />
    <path
       id="path4259"
       d="m 400.0122,169.73506 c -1.86975,-1.86975 -1.29536,-3.68572 3.74654,-11.84479 l 4.85663,-7.85926 0.27417,6.27244 c 0.21626,4.94701 -0.0938,6.80405 -1.46718,8.78819 -2.41539,3.48949 -3.151,4.82843 -2.65272,4.82843 0.23446,0 1.29273,-1.35292 2.3517,-3.00649 1.67354,-2.61322 1.92744,-2.74412 1.94099,-1.00072 0.0299,3.85146 -0.96138,4.93228 -4.52374,4.93228 -1.87896,0 -3.91584,-0.49954 -4.52639,-1.11008 z"
       style="fill:#fefefe"
       inkscape:connector-curvature="0" />
    <path
       id="path4257"
       d="m 409.77488,154.88884 c 0.28701,-19.53802 0.5917,-21.56114 3.53796,-23.4916 3.02598,-1.9827 3.43562,-1.36619 2.3181,3.48881 -1.56941,6.81828 -2.99387,31.19166 -1.93821,33.16418 1.35754,2.53659 1.20903,2.79478 -1.60833,2.79612 l -2.54395,0.001 0.23443,-15.95872 z"
       style="fill:#fefefe"
       inkscape:connector-curvature="0" />
    <path
       id="path4255"
       d="m 428.77364,168.10694 c 0.7772,-2.05903 0.71477,-5.90233 -0.25166,-15.49497 -1.76696,-17.53844 -1.53875,-22.51113 0.92023,-20.05215 1.02375,1.02375 2.53062,15.73024 2.99868,29.26586 l 0.31189,9.01946 -2.50635,0 c -2.39337,0 -2.45976,-0.12342 -1.47279,-2.7382 z"
       style="fill:#fefefe"
       inkscape:connector-curvature="0" />
    <path
       id="path4247"
       d="m 414.20982,167.21607 c -0.37221,-0.60225 -0.39004,-3.56529 -0.0396,-6.58453 0.63352,-5.45838 0.65813,-5.49518 4.34131,-6.48695 2.0373,-0.54858 3.78292,-0.866 3.87917,-0.70536 0.0962,0.16063 -1.55282,3.57252 -3.66457,7.58196 -2.34375,4.44995 -4.10316,6.8633 -4.51628,6.19488 z"
       style="fill:#fefefe"
       inkscape:connector-curvature="0" />
    <path
       id="path4716"
       d="m 418.53448,130.55202 c -2.42075,-1.69556 -2.61218,-3.42202 -0.6023,-5.4319 1.77669,-1.77669 5.01511,-1.87646 7.27482,-0.22412 1.453,1.06246 1.52107,1.53395 0.50086,3.46903 -2.06324,3.91343 -3.90632,4.47534 -7.17338,2.18699 z"
       style="fill:#fefefe"
       inkscape:connector-curvature="0" />
    <path
       id="path4396"
       d="m 415.12098,146.22109 c 0.33486,-4.51861 0.99757,-9.76225 1.4727,-11.65254 0.80031,-3.18393 0.73843,-3.73476 2.74749,-2.81937 1.55054,0.70648 3.1111,0.6118 4.47411,-0.11765 3.18537,-1.70477 4.05202,-1.08221 3.13263,2.12355 -0.46443,1.61934 -0.93573,4.76901 -0.62924,6.6857 0.37854,2.36724 0.007,4.81482 -1.15792,7.6318 -1.43333,3.46544 -2.22244,4.24207 -4.80188,4.72598 -1.69768,0.31848 -3.70769,0.81737 -4.4667,1.10863 -1.18659,0.45533 -1.29468,-0.62199 -0.77119,-7.6861 z"
       style="fill:#007f7f"
       inkscape:connector-curvature="0" />
    <path
       inkscape:connector-curvature="0"
       id="path4354"
       d="m 169.7854,112.25379 c -0.76814,-0.0154 -1.5306,0.14002 -2.12891,0.51367 -2.40448,1.5016 -2.42536,2.87314 -0.0312,2.11328 3.07157,-0.97488 3.72355,0.36239 1.33789,2.74805 -3.20536,3.20536 -3.03743,7.85808 0.42773,11.80469 l 2.68164,3.05273 -2.2207,2.58008 c -1.22053,1.41896 -2.21875,3.36894 -2.21875,4.33398 0,1.6208 1.64888,4.94362 11.24414,22.65625 1.42829,2.63658 2.66231,5.18978 3.21679,6.60352 l 1.24805,2.29883 4.78516,0.10742 0.375,-0.72071 -1.06445,-2.27539 c -0.59481,-1.27198 -3.50411,-7.3996 -6.46485,-13.61523 -2.96073,-6.21564 -5.12366,-11.55992 -4.80664,-11.87695 0.96673,-0.96673 12.02405,7.06077 16.40039,11.90625 2.30156,2.54827 5.97578,5.36243 8.32617,6.37695 6.35629,2.7436 27.08176,6.95903 37.50977,7.62891 8.30734,0.53366 9.55597,0.40215 12.25586,-1.28711 3.54663,-2.21905 3.74867,-3.7344 0.92578,-6.95899 -1.65343,-1.88872 -4.40676,-2.93998 -13.39258,-5.11914 -7.82989,-1.89884 -14.10842,-4.14626 -20.39453,-7.30078 -4.99482,-2.50652 -10.80917,-5.02291 -12.92187,-5.5918 -3.45621,-0.93066 -10.16513,-6.17082 -9.17188,-7.16406 0.21985,-0.21985 2.89029,0.61301 5.93359,1.84961 3.49795,1.42135 7.16428,2.20263 9.97071,2.12695 7.39771,-0.1995 6.19915,-3.24086 -1.85157,-4.69726 -2.01798,-0.36505 -4.72256,-1.39003 -6.01171,-2.27735 -4.59768,-3.16458 -16.85601,-9.32812 -18.55079,-9.32812 -0.94848,0 -2.02195,0.47938 -2.38476,1.06641 -0.40126,0.64926 -1.5136,-0.61303 -2.83985,-3.22266 -1.44811,-2.8494 -2.95302,-4.48333 -4.48242,-4.86719 -1.26644,-0.31786 -2.30273,-0.93535 -2.30273,-1.37109 0,-1.1984 -1.70852,-2.05992 -3.39844,-2.09375 z"
       style="fill:#000000" />
    <path
       id="path4265"
       d="m 182.66405,167.9268 c -0.60593,-1.60531 -3.78829,-7.74548 -7.07192,-13.64483 -7.0804,-12.72064 -7.79338,-14.97848 -5.7262,-18.1334 0.831,-1.26827 1.87688,-2.30594 2.32417,-2.30594 1.02298,0 2.84438,5.11702 2.84438,7.99096 0,1.81237 2.972,8.57409 11.63357,26.468 1.15377,2.38358 1.1011,2.54395 -0.83544,2.54395 -1.46958,0 -2.38521,-0.84344 -3.16856,-2.91874 z"
       style="fill:#fefefe"
       inkscape:connector-curvature="0" />
    <path
       style="fill:#fefefe"
       d="m 206.2832,143.69922 c -0.89174,-0.0286 -1.22702,0.46047 -1.66211,1.27344 -0.67817,1.26842 -0.68111,2.36851 -0.008,3.62695 0.4852,1.63232 1.82093,2.02846 3.18164,2.49414 1.88777,0.42993 5.95429,1.59673 10.58008,3.05664 6.24106,1.96969 15.37208,4.267 20.29102,5.10547 4.91893,0.83846 9.12582,1.70785 9.3496,1.93164 0.64923,0.64922 -2.5906,0.30452 -10.53906,-1.12305 -5.61759,-1.00895 -20.71002,-5.326 -27.45703,-7.66406 -4.77143,-2.16466 -6.3962,-1.31684 -11.30277,-1.0864 -1.97789,0.0674 -3.98706,0.0688 -4.66154,1.32912 -1.15625,2.16047 1.85257,5.25873 7.34322,7.54439 5.13318,2.13685 22.64461,6.03839 30.99023,6.9043 11.13952,1.15578 14.71931,1.06697 17.6211,-0.4336 3.12801,-1.61754 3.40998,-3.11003 1.11132,-5.89648 -1.16647,-1.41399 -4.78063,-2.72924 -12.93359,-4.70899 -7.56078,-1.83595 -14.12038,-4.15698 -19.76953,-6.99414 -7.61686,-3.82543 -10.64855,-5.31165 -12.13477,-5.35937 z"
       id="path4251"
       inkscape:connector-curvature="0"
       sodipodi:nodetypes="ccccsscsccsssssssc" />
    <path
       id="path4237"
       d="m 198.61655,134.57591 c -4.57511,-2.01913 -9.87943,-4.32221 -11.78739,-5.11795 -2.61308,-1.08983 -3.46902,-1.98282 -3.46902,-3.61917 0,-1.52673 0.52875,-2.17236 1.77911,-2.17236 1.71871,0 13.84316,6.06669 18.57249,9.2931 1.27198,0.86775 3.76967,1.86871 5.55044,2.22435 7.92442,1.58261 8.83263,2.89481 2.07412,2.99677 -3.2168,0.0486 -6.64017,-0.92164 -12.71975,-3.60474 z"
       style="fill:#fefefe"
       inkscape:connector-curvature="0" />
    <path
       id="path4231"
       d="m 172.65486,130.78154 c -3.25356,-2.79859 -2.41637,-5.70739 2.1975,-7.63519 3.11424,-1.30122 3.477,-1.2859 4.55804,0.19252 1.69672,2.3204 1.44264,6.27367 -0.5172,8.0473 -2.24882,2.03516 -3.28631,1.93461 -6.23834,-0.60463 z"
       style="fill:#fefefe"
       inkscape:connector-curvature="0" />
    <path
       id="path4394"
       d="m 190.5539,152.0383 c -0.69436,-0.8719 -4.34211,-3.97897 -8.13544,-6.46126 -5.59842,-3.66348 -6.76434,-5.34852 -7.58286,-8.08052 -1.30545,-4.35719 -1.24041,-4.98826 0.4666,-4.33322 2.01722,0.77409 5.67135,-3.32532 5.74234,-6.20997 0.053,-2.15331 1.05874,-1.92087 1.74273,-0.23472 0.42435,1.04609 2.53547,2.97383 5.31992,4.1307 3.2006,1.32978 5.62398,3.09102 6.81636,4.95391 1.01758,1.5898 3.60852,4.03004 5.75764,5.42275 2.14913,1.39272 4.22997,2.53226 3.88498,2.87725 -0.34499,0.34498 -0.88847,1.83708 -0.9121,3.21723 -0.0407,2.37655 -1.49763,3.28732 -5.73155,3.29034 -3.26108,0.002 -3.66784,0.48947 -4.57039,1.72378 -1.19368,1.63245 -1.71443,1.0647 -2.79823,-0.29627 z"
       style="fill:#007f7f"
       inkscape:connector-curvature="0" />
    <path
       inkscape:connector-curvature="0"
       id="path4340"
       d="m 443.60767,112.25184 c -0.76809,-0.0154 -1.53256,0.14197 -2.13086,0.51562 -2.40447,1.5016 -2.42344,2.87314 -0.0293,2.11328 3.07157,-0.97488 3.7216,0.36239 1.33594,2.74805 -3.20536,3.20536 -3.03744,7.85808 0.42773,11.80469 l 2.6836,3.05273 -2.22071,2.58008 c -1.22054,1.41896 -2.21875,3.36894 -2.21875,4.33398 0,1.6208 1.64887,4.94362 11.24414,22.65625 1.82882,3.37596 3.33673,6.60808 3.50196,7.48047 0.32023,0.56124 1.22712,1.61143 3.55468,1.89453 0.67099,-0.003 0.97232,-0.005 1.63086,-0.008 0.42028,-0.18238 0.67856,-0.63726 0.9375,-1.07617 l -1.0664,-2.27735 c -0.59473,-1.27198 -3.50412,-7.3996 -6.46485,-13.61523 -2.96074,-6.21564 -5.12169,-11.55992 -4.80468,-11.87695 0.96673,-0.96673 12.02404,7.06077 16.40039,11.90625 2.30156,2.54827 5.97578,5.36243 8.32617,6.37695 6.35629,2.7436 27.0798,6.95903 37.50781,7.62891 8.30734,0.53366 9.55792,0.40215 12.25781,-1.28711 3.54664,-2.21905 3.74869,-3.7344 0.92578,-6.95899 -1.65341,-1.88872 -4.40871,-2.93998 -13.39453,-5.11914 -7.8299,-1.89884 -14.10645,-4.14626 -20.39257,-7.30078 -4.99483,-2.50652 -10.80916,-5.02291 -12.92188,-5.5918 -3.45621,-0.93066 -10.16708,-6.17082 -9.17383,-7.16406 0.21984,-0.21985 2.8903,0.61301 5.9336,1.84961 3.49795,1.42135 7.16623,2.20263 9.97265,2.12695 7.39771,-0.1995 6.19916,-3.24086 -1.85156,-4.69726 -2.01798,-0.36505 -4.72452,-1.39003 -6.01367,-2.27735 -4.59768,-3.16458 -16.85406,-9.32812 -18.54883,-9.32812 -0.94849,0 -2.02196,0.47938 -2.38477,1.06641 -0.40126,0.64926 -1.51359,-0.61303 -2.83984,-3.22266 -1.44811,-2.8494 -2.95302,-4.48333 -4.48242,-4.86719 -1.26644,-0.31786 -2.30274,-0.93535 -2.30274,-1.37109 0,-1.1984 -1.70862,-2.06181 -3.39843,-2.0957 z"
       style="fill:#000000" />
    <path
       id="path4253"
       d="m 456.48562,167.9264 c -0.60594,-1.60531 -3.7883,-7.74548 -7.07193,-13.64483 -7.0804,-12.72064 -7.79338,-14.97848 -5.72619,-18.1334 0.83099,-1.26827 1.87687,-2.30594 2.32416,-2.30594 1.02298,0 2.84438,5.11702 2.84438,7.99096 0,1.81237 2.972,8.57409 11.63357,26.468 1.15377,2.38358 1.1011,2.54395 -0.83544,2.54395 -1.46958,0 -2.38521,-0.84344 -3.16855,-2.91874 z"
       style="fill:#fefefe"
       inkscape:connector-curvature="0" />
    <path
       id="path4245"
       d="m 506.21056,167.09129 c -8.34562,-0.86591 -25.85676,-4.76697 -30.98994,-6.90382 -5.47947,-2.28101 -8.94228,-5.82735 -7.79085,-7.97881 1.57431,-2.94165 8.75813,-2.2044 23.39049,2.40047 12.57512,3.95744 29.85543,7.62968 30.91532,6.56979 0.28026,-0.28026 0.12798,-0.51091 -0.3384,-0.51253 -7.65918,-0.0267 -40.63626,-9.14893 -42.70754,-11.81391 -1.44079,-1.85376 -1.43934,-2.24367 0.0158,-4.23368 1.08166,-1.47926 1.9868,-1.20317 11.72682,3.57707 7.47829,3.67021 13.81004,5.97048 21.72341,7.89191 8.0295,1.94962 11.62377,3.26343 12.78762,4.67426 2.29866,2.78646 2.0176,4.27897 -1.11041,5.89652 -2.9018,1.50057 -6.4828,1.58851 -17.62232,0.43273 z"
       style="fill:#fefefe"
       inkscape:connector-curvature="0" />
    <path
       id="path4235"
       d="m 472.43811,134.57591 c -4.57511,-2.01913 -9.87943,-4.32221 -11.78739,-5.11795 -2.61308,-1.08983 -3.46902,-1.98282 -3.46902,-3.61917 0,-1.52673 0.52875,-2.17236 1.77912,-2.17236 1.7187,0 13.84315,6.06669 18.57248,9.2931 1.27198,0.86775 3.76967,1.86871 5.55044,2.22435 7.92442,1.58261 8.83263,2.89481 2.07412,2.99677 -3.2168,0.0486 -6.64017,-0.92164 -12.71975,-3.60474 z"
       style="fill:#fefefe"
       inkscape:connector-curvature="0" />
    <path
       id="path4229"
       d="m 446.47642,130.78154 c -3.25356,-2.79859 -2.41637,-5.70739 2.1975,-7.63519 3.11424,-1.30122 3.477,-1.2859 4.55804,0.19252 1.69673,2.3204 1.44264,6.27367 -0.5172,8.0473 -2.24882,2.03516 -3.28631,1.93461 -6.23834,-0.60463 z"
       style="fill:#fefefe"
       inkscape:connector-curvature="0" />
    <path
       id="path4712"
       d="m 465.43111,153.18108 c -0.73944,-0.8456 -4.99461,-5.04112 -8.78794,-7.52341 -5.59843,-3.66348 -7.2078,-5.42915 -8.02632,-8.16115 -1.30545,-4.35719 -0.95821,-4.62542 0.7488,-3.97038 2.01722,0.77408 5.95355,-3.20439 6.02455,-6.08902 0.053,-2.15333 0.1315,-2.20309 0.81548,-0.51693 0.42435,1.04609 2.93862,2.77224 5.72306,3.92912 3.20061,1.32978 5.86588,2.92976 7.05826,4.79264 1.01758,1.5898 3.6255,4.09588 5.74609,5.4705 2.86607,1.85785 3.56249,2.95887 2.94698,3.93961 -0.45542,0.72564 -0.48039,1.9269 -0.20333,2.81728 0.4336,1.39342 0.10012,2.10266 -3.8896,2.10266 -3.65849,0 -5.36512,0.0461 -6.43788,1.57765 -1.33412,1.90472 -0.2078,3.35864 -1.71815,1.63143 z"
       style="fill:#007f7f"
       inkscape:connector-curvature="0" />
  </g>
</svg>
