<?xml version="1.0" encoding="UTF-8" standalone="no"?>
<!-- Created with Inkscape (http://www.inkscape.org/) -->

<svg
   xmlns:dc="http://purl.org/dc/elements/1.1/"
   xmlns:cc="http://creativecommons.org/ns#"
   xmlns:rdf="http://www.w3.org/1999/02/22-rdf-syntax-ns#"
   xmlns:svg="http://www.w3.org/2000/svg"
   xmlns="http://www.w3.org/2000/svg"
   xmlns:sodipodi="http://sodipodi.sourceforge.net/DTD/sodipodi-0.dtd"
   xmlns:inkscape="http://www.inkscape.org/namespaces/inkscape"
   id="svg3336"
   version="1.1"
   inkscape:version="0.91 r13725"
   width="650"
   height="325"
   viewBox="0 0 650 325"
   sodipodi:docname="bb330900.svg">
  <metadata
     id="metadata3342">
    <rdf:RDF>
      <cc:Work
         rdf:about="">
        <dc:format>image/svg+xml</dc:format>
        <dc:type
           rdf:resource="http://purl.org/dc/dcmitype/StillImage" />
        <dc:title></dc:title>
      </cc:Work>
    </rdf:RDF>
  </metadata>
  <defs
     id="defs3340" />
  <sodipodi:namedview
     pagecolor="#b1b1b1"
     bordercolor="#666666"
     borderopacity="1"
     objecttolerance="10"
     gridtolerance="10"
     guidetolerance="10"
     inkscape:pageopacity="0"
     inkscape:pageshadow="2"
     inkscape:window-width="1497"
     inkscape:window-height="763"
     id="namedview3338"
     showgrid="false"
     inkscape:zoom="0.9765625"
     inkscape:cx="329.32534"
     inkscape:cy="170.39408"
     inkscape:window-x="0"
     inkscape:window-y="0"
     inkscape:window-maximized="0"
     inkscape:current-layer="svg3336" />
  <g
     id="g3346"
     transform="translate(26.490874,5.2645356)">
    <path
       style="fill:#fefefe"
       d="M 90.833334,211.66666 C 90.375,211.20834 90,209.23959 90,207.29166 l 0,-3.54166 208.75,0 208.75,0 0,4.375 0,4.375 -207.91666,0 c -114.35418,0 -208.291674,-0.375 -208.750006,-0.83334 z M 110.1245,196.286 c -1.15755,-5.39746 -1.01641,-6.75255 1.07412,-10.3125 1.32373,-2.25418 4.9985,-13.661 8.16616,-25.3485 6.09323,-22.48186 7.71891,-26.16938 12.49662,-28.34625 7.88714,-3.59361 8.98846,3.10109 2.43729,14.81569 -8.90686,15.92696 -20.54869,47.09286 -20.54869,55.01013 0,0.21749 -0.51589,0.39543 -1.14642,0.39543 -0.63053,0 -1.74612,-2.7963 -2.47908,-6.214 z m 33.14937,-4.7235 c 0.35869,-6.01563 1.16913,-13.60943 1.80098,-16.8751 1.00131,-5.17528 0.67361,-7.23966 -2.5523,-16.07889 -2.03561,-5.5777 -4.26891,-10.82542 -4.96289,-11.66161 -0.88766,-1.06959 -0.2731,-3.0451 2.07283,-6.66306 1.83404,-2.82849 3.71698,-4.90638 4.18434,-4.61754 0.46736,0.28885 2.99646,6.99517 5.62023,14.90296 l 4.77048,14.37779 -3.33868,15.79525 c -1.83629,8.68739 -3.05777,16.24977 -2.71444,16.8053 0.34334,0.55554 2.30529,1.37927 4.35992,1.83055 6.0504,1.32889 4.28235,3.12185 -3.07849,3.12185 l -6.81415,0 0.65218,-10.9375 z m 48.78135,5 c -2.74657,-5.4598 -3.05936,-8.01598 -3.88771,-31.7717 l -0.90084,-25.8342 5.2561,1.33414 5.25612,1.33415 -0.76439,5.12505 c -1.96919,13.203 -2.18148,21.25161 -0.92648,35.12506 0.74632,8.25 1.71617,16.26562 2.15524,17.8125 1.53298,5.40073 -3.06799,3.07721 -6.18804,-3.125 z m 62.48639,0.625 c 0.45164,-2.92188 1.30204,-6.61474 1.88978,-8.20638 0.58773,-1.59162 1.06861,-14.41643 1.06861,-28.49957 0,-20.50735 0.37972,-26.34 1.9071,-29.29363 2.28241,-4.41369 5.4425,-4.67701 8.33489,-0.69448 1.9354,2.66485 1.96695,3.86767 0.36788,14.02321 -0.962,6.10959 -2.35763,18.1396 -3.10142,26.73335 -1.02168,11.80442 -2.15083,17.53529 -4.61791,23.4375 -3.88197,9.28712 -7.11138,10.66746 -5.84893,2.5 z m 57.23106,2.5 c 0.44784,-1.54688 1.44282,-10.34214 2.21104,-19.54503 1.04665,-12.53823 1.03369,-19.11823 -0.0517,-26.25 -1.96144,-12.8877 -1.93631,-13.08821 2.19453,-17.51027 6.65786,-7.12726 6.77805,-6.60255 5.76753,25.1803 -0.8659,27.2348 -1.11306,29.4359 -3.93008,35 -3.13852,6.19907 -7.75603,8.52972 -6.19129,3.125 z m 46.89403,-1.69729 c -2.71975,-4.40064 -2.75255,-4.8922 -1.35529,-20.3125 0.78755,-8.69149 1.78202,-20.04906 2.2099,-25.23904 l 0.778,-9.43632 5.62039,-2.74761 5.62038,-2.74762 -0.77678,3.43394 c -0.42724,1.88867 -1.90565,9.90269 -3.28537,17.80894 -1.37972,7.90625 -3.37309,18.40499 -4.42972,23.33054 -1.73161,8.07202 -1.7301,9.41276 0.0154,13.59015 2.39153,5.72376 2.41799,6.82931 0.16341,6.82931 -0.97517,0 -3.02729,-2.0294 -4.56025,-4.50979 z m 58.22936,-1.69866 c -3.46864,-6.84503 -3.90221,-10.0354 -1.66751,-12.2701 0.91716,-0.91716 2.02529,-10.38565 2.9185,-24.9375 1.72096,-28.03725 3.1626,-32.76305 10.01034,-32.81481 1.39282,-0.01 14.04907,5.37913 28.125,11.97702 14.07593,6.59789 28.54573,13.10705 32.15511,14.46481 3.60937,1.35775 6.5625,2.99074 6.5625,3.62884 0,1.88093 -12.18355,1.3262 -17.22765,-0.78439 -2.55604,-1.06951 -14.01313,-4.68571 -25.46018,-8.03598 -11.44706,-3.35029 -23.17343,-7.29572 -26.05863,-8.76763 -2.88519,-1.47192 -5.47828,-2.44374 -5.76242,-2.1596 -0.28413,0.28414 1.79038,1.55691 4.61003,2.8284 l 5.12664,2.31179 -0.82469,6.9463 c -0.45358,3.82046 -2.74576,14.73361 -5.09376,24.25144 -3.57323,14.48446 -4.07359,18.15186 -3.06977,22.5 1.52115,6.58895 1.5233,7.06986 0.0315,7.06986 -0.67592,0 -2.64467,-2.7938 -4.375,-6.20845 z M 357.0321,138.59497 c -1.48325,-2.11763 -1.56085,-3.1918 -0.38337,-5.30698 2.0165,-3.6224 16.26226,-21.21897 23.59968,-29.15066 3.30088,-3.56822 6.00159,-7.013428 6.00159,-7.656009 0,-1.609225 10.78085,-12.731321 12.3407,-12.731321 4.61014,0 2.43041,5.672521 -8.886,23.125 -18.05024,27.83755 -20.0254,30.49232 -24.13861,32.44417 -5.32641,2.52756 -6.31514,2.44364 -8.53399,-0.7242 z m -50.64286,-2.03247 c -3.29855,-2.73554 -4.60664,-9.5634 -6.37855,-33.29434 -1.13755,-15.235005 -1.07588,-18.734407 0.36645,-20.793619 1.70584,-2.435421 1.7695,-2.436855 3.89542,-0.08773 1.56312,1.727216 2.49763,6.138223 3.37665,15.938171 0.66847,7.452508 2.02883,18.718928 3.02303,25.036508 2.33912,14.86386 1.36022,17.88101 -4.283,13.201 z M 202.9441,135 c 0.42446,-1.71875 0.77945,-4.67188 0.78884,-6.5625 0.0112,-2.33781 0.66921,-3.4375 2.05561,-3.4375 1.65074,0 1.89651,0.87528 1.29192,4.60094 -0.41063,2.53051 -1.68297,5.48363 -2.82738,6.5625 -1.91495,1.80525 -2.01927,1.71253 -1.30899,-1.16344 z m 51.00117,-1.90284 C 251.80545,128.35542 247.5,105.90998 247.5,99.496241 c 0,-4.673492 0.0996,-4.793578 2.31375,-2.789794 1.83074,1.656793 2.48587,4.720473 3.13829,14.675733 0.4535,6.92001 1.41476,13.68467 2.13613,15.03258 0.72139,1.34792 1.13728,4.24036 0.92422,6.42766 l -0.38739,3.9769 -1.67973,-3.72216 z M 141.875,121.25 c -1.16091,-1.8784 0.45752,-3.75 3.24275,-3.75 1.35861,0 3.85003,-0.90409 5.53647,-2.0091 l 3.06627,-2.00909 -2.48524,-3.15948 c -1.46738,-1.86545 -2.46896,-5.01029 -2.4455,-7.6784 0.038,-4.324616 0.123,-4.41143 1.97471,-2.01893 1.06423,1.375 3.34046,5.24025 5.0583,8.58945 3.60588,7.03021 3.27588,7.69164 -5.50056,11.02483 -6.9024,2.62146 -7.41389,2.68266 -8.4472,1.01072 z m 63.50189,-7.01031 c 0.82555,-5.74139 0.7586,-9.6927 -0.21956,-12.95753 -1.97384,-6.588043 -1.83862,-7.189909 2.03017,-9.036331 2.97236,-1.418593 3.48994,-2.484963 3.825,-7.880708 0.59961,-9.656065 2.30263,-9.250203 3.29141,0.784409 l 0.89282,9.060629 -4.22555,3.832421 c -2.32404,2.10783 -3.13731,2.98867 -1.80723,1.95742 2.22711,-1.726761 2.36193,-1.677347 1.70525,0.625 -0.39217,1.375 -1.09551,6.85938 -1.56299,12.1875 -0.69904,7.9676 -1.22872,9.6875 -2.9835,9.6875 -1.91601,0 -2.01245,-0.84231 -0.94582,-8.26031 z m 248.61747,-7.46891 c -19.54858,-2.36719 -23.82422,-3.66054 -25.34767,-7.667525 -2.09823,-5.518751 3.671,-6.711467 9.15838,-1.893386 2.18235,1.916164 25.48499,6.508151 33.13243,6.529041 4.31911,0.0117 5.71548,2.85931 2.08526,4.25235 -2.29714,0.8815 -0.96352,0.96704 -19.0284,-1.22048 z m -92.43186,-2.00709 c -3.25181,-1.61374 -3.52036,-3.3178 -1.05435,-6.690285 1.58076,-2.161824 2.30596,-2.257531 7.1875,-0.948576 2.98615,0.800714 6.413,1.835096 7.61525,2.298627 1.77616,0.684814 3.03227,-0.939453 6.70127,-8.665336 4.45348,-9.377756 6.17815,-11.17109 7.4802,-7.778005 1.01504,2.645163 -6.34686,17.796885 -9.67476,19.911855 -3.95619,2.51427 -14.73362,3.6193 -18.25511,1.87172 z m -231.96375,-2.72262 c -1.17443,-1.7924 -4.49814,-4.464334 -7.38602,-5.937625 C 115.68213,92.77178 106.25,84.990201 106.25,82.934069 c 0,-3.569679 2.94626,-2.862714 6.79156,1.629658 3.57039,4.171195 13.21769,9.760941 21.02094,12.179743 2.77862,0.8613 2.7614,2.270829 -0.0705,5.76804 l -2.25796,2.78846 -2.13533,-3.2589 z m 121.83682,-4.931956 -7.93943,-6.484114 0.7976,-6.85817 c 1.2931,-11.11871 4.28786,-12.032224 5.37993,-1.641076 C 250.39772,89.015148 254.99585,95 259.56489,95 c 3.64468,0 6.24575,4.392085 4.1188,6.9549 -2.26304,2.7268 -3.64574,2.17976 -12.24812,-4.845786 z m 69.98303,3.297926 C 320.57095,98.360642 315.96751,92.806358 311.18871,88.064184 305.50581,82.424834 302.5,78.457481 302.5,76.596025 c 0,-4.754017 2.7483,-3.283944 12.84182,6.86913 9.76889,9.826516 10.91084,12.268811 8.55021,18.286225 -0.82709,2.1083 -1.10612,1.95665 -2.47343,-1.34434 z m -25.77503,-1.636515 c -1.99207,-2.201218 -2.08544,-3.288392 -0.832,-9.6875 0.77654,-3.964414 1.55848,-8.608529 1.73765,-10.320255 0.38934,-3.719442 4.70078,-5.216788 4.70078,-1.632558 0,1.272437 -0.90483,3.605333 -2.01071,5.184212 -1.59626,2.278993 -1.8334,4.526306 -1.1505,10.903132 0.47311,4.417844 0.62136,8.032444 0.32943,8.032444 -0.29191,0 -1.54051,-1.11576 -2.77465,-2.479475 z M 140,93.318735 C 140,88.864594 143.09444,85 146.66092,85 c 3.34069,0 2.81173,8.102078 -0.68906,10.55412 C 141.63792,98.589732 140,97.976626 140,93.318735 Z m 46.25,2.683657 c 0,-2.47652 3.21704,-6.626016 4.0687,-5.248006 0.38516,0.623213 -0.37273,2.458242 -1.6842,4.077844 -1.51007,1.864856 -2.3845,2.293971 -2.3845,1.170162 z m 189.14586,-1.235907 c -0.8601,-1.093295 -0.92037,-5.189808 -0.1805,-12.266485 1.01806,-9.737461 0.79178,-14.4686 -1.06121,-22.1875 -0.48751,-2.030766 -0.11638,-2.8125 1.33534,-2.8125 1.10578,0 2.01097,0.140625 2.01153,0.3125 5.7e-4,0.171875 0.8567,4.414044 1.90253,9.427041 1.55246,7.441453 1.6391,10.653796 0.472,17.5 -1.75693,10.306115 -2.66358,12.335471 -4.47969,10.026944 z M 363.96887,93.46888 c -1.86308,-1.863093 -1.87561,-5.360491 -0.0317,-8.863556 1.83029,-3.477257 3.48647,-4.562269 7.00038,-4.586183 2.48146,-0.01689 2.81025,0.606149 2.79336,5.293359 -0.01,2.921875 -0.4324,5.929016 -0.9375,6.682535 -1.44453,2.155005 -7.18462,3.113701 -8.82449,1.473845 z M 253.96789,90.856936 c -1.49484,-1.591185 -2.71789,-4.122435 -2.71789,-5.625 0,-2.158787 0.73429,-2.731936 3.5,-2.731936 4.60256,0 6.5,2.079877 6.5,7.125 0,5.058755 -3.18139,5.596959 -7.28211,1.231936 z M 432.75,92.25 c -0.825,-0.825 -1.5,-2.5125 -1.5,-3.75 0,-2.729905 4.2863,-7.25 6.875,-7.25 2.76205,0 2.51182,8.615977 -0.3125,10.759943 -2.73348,2.075007 -3.20519,2.097374 -5.0625,0.240057 z M 201.19101,89.21985 c -1.66539,-4.380305 -1.08089,-9.482731 1.17113,-10.223331 1.38596,-0.455788 1.60925,0.759651 1.10455,6.012217 -0.44139,4.593585 -0.26893,5.933661 0.57057,4.43356 0.66174,-1.182465 1.04942,-5.618842 0.8615,-9.858616 C 204.31151,66.333989 204.95275,50 206.06016,50 c 0.58308,0 2.07221,2.244362 3.30919,4.987474 1.94426,4.311591 2.13026,6.97956 1.37257,19.6875 -0.48205,8.085013 -1.26806,15.058679 -1.74668,15.497032 -0.47864,0.438354 -2.13543,1.179246 -3.68177,1.646428 -2.29168,0.692365 -3.05392,0.211896 -4.12246,-2.598584 z m 107.12935,0.522237 c -1.01215,-3.870475 -0.42921,-3.942422 2.93427,-0.362158 2.84926,3.032897 2.85929,3.120071 0.35906,3.120071 -1.60104,0 -2.8444,-1.041226 -3.29333,-2.757912 z m 8.63328,-5.900168 C 313.58046,80.312038 313.49189,80 315.86307,80 c 3.1169,0 5.74822,2.874871 5.17765,5.65687 -0.32808,1.599683 -1.18964,1.217093 -4.08708,-1.814951 z M 250,77.180521 c 0,-1.031575 -1.2499,-2.70549 -2.77754,-3.71981 l -2.77755,-1.84422 2.99762,-9.558245 C 251.67411,48.565342 253.75,49.277447 253.75,64.221944 253.75,73.116511 253.29774,76.319229 251.875,77.5 250.35001,78.765624 250,78.705985 250,77.180521 Z M 298.75,66.292409 C 298.75,59.285574 301.68105,50 303.8928,50 c 0.51137,0 1.11032,5.035069 1.33099,11.189042 0.36971,10.310693 0.20496,11.241552 -2.09879,11.857933 -4.23575,1.133296 -4.375,0.918304 -4.375,-6.754566 z M 432.90644,71.6774 c 0.35631,-1.26632 1.55135,-5.536775 2.65562,-9.4899 1.28096,-4.585657 2.67388,-7.1875 3.84785,-7.1875 2.37775,0 2.30088,1.528452 -0.53432,10.625 -1.51105,4.848092 -3.09416,7.651124 -4.47729,7.9274 -1.56176,0.311959 -1.96472,-0.194485 -1.49186,-1.875 z"
       id="path3356"
       inkscape:connector-curvature="0" />
    <path
       style="fill:#008183"
       d="m 191.25,138.85516 c -2.86765,-0.82187 -3.09231,-1.40354 -2.72811,-7.0629 0.21829,-3.392 0.85355,-6.63377 1.4117,-7.20396 0.55815,-0.57019 3.68347,-0.63652 6.94517,-0.1474 l 5.93035,0.88931 -0.74651,6.3032 c -0.96414,8.14058 -2.95866,9.47273 -10.8126,7.22175 z m 121.16721,-1.20047 c 0.99783,-1.86445 0.87396,-5.6074 -0.4685,-14.15712 -1.00371,-6.39241 -2.2108,-15.74206 -2.6824,-20.77699 l -0.85745,-9.15442 4.21738,0.40442 c 3.50103,0.335728 4.71814,1.314879 7.16557,5.76468 2.76159,5.021 2.85855,5.875 1.53195,13.49293 -0.77894,4.47297 -1.06147,10.02377 -0.62786,12.33511 0.70166,3.74019 0.21512,4.77567 -4.42338,9.41418 -2.86647,2.86647 -4.60136,4.07121 -3.85531,2.67721 z m -172.60706,-2.56698 c -0.68744,-4.67195 -4.14998,-6.11735 -8.58409,-3.58335 -2.04934,1.17115 -3.72606,1.92091 -3.72606,1.66614 0,-0.25479 1.16904,-3.18175 2.59785,-6.50436 2.04807,-4.76268 2.42526,-7.43457 1.78231,-12.62555 -0.72916,-5.88716 -0.4748,-6.98934 2.40215,-10.40841 1.76973,-2.10319 3.21769,-4.252785 3.21769,-4.776865 0,-0.52408 2.10572,-0.879749 4.67939,-0.790375 4.60886,0.160049 4.69236,0.25329 5.54123,6.18769 0.95184,6.65414 -0.45625,11.99737 -3.16162,11.99737 -0.96409,0 -2.4619,0.8543 -3.32846,1.89845 -1.28447,1.54769 -1.19728,2.31646 0.47195,4.16092 2.47005,2.72938 2.58325,8.43798 0.25087,12.65068 l -1.70805,3.08505 -0.43516,-2.95739 z m 215.28854,-3.58729 c -0.0542,-1.58101 0.68592,-4.39351 1.64488,-6.24999 0.95898,-1.85649 2.14795,-7.15785 2.64219,-11.78082 0.83303,-7.79196 1.07415,-8.31143 3.30401,-7.11804 1.39888,0.74865 4.87004,0.92534 8.29533,0.42224 5.6688,-0.83263 5.81655,-0.77658 3.9361,1.49304 -11.80124,14.24351 -18.42186,22.68267 -19.01117,24.23315 -0.46872,1.2332 -0.74644,0.89105 -0.81134,-0.99958 z m 63.70023,-0.61272 c -0.0269,-1.91801 1.11625,-5.77122 2.54037,-8.56271 1.81125,-3.55035 2.80083,-8.51209 3.29336,-16.5127 0.68952,-11.200857 1.96609,-15.266841 4.33379,-13.803526 0.65073,0.402181 0.23043,1.427887 -0.934,2.279349 -3.24677,2.374088 0.0745,8.463877 5.48376,10.055027 4.1335,1.21587 4.13972,1.22982 3.351,7.5 -1.3253,10.53585 -2.87319,14.23662 -5.65083,13.51025 -4.53411,-1.18569 -8.80511,0.826 -10.6211,5.00267 l -1.74742,4.01894 -0.0489,-3.4873 z m -162.31418,-3.83421 c -0.81353,-2.24977 -1.8402,-9.39779 -2.2815,-15.88449 l -0.80237,-11.794 3.06763,2.8125 c 3.74549,3.43398 5.0201,3.50193 7.8124,0.41648 1.72985,-1.91147 1.88654,-2.922614 0.77475,-4.999996 C 264.15517,95.921425 264.11149,95 264.9322,95 c 2.1463,0 2.95029,6.08648 2.20841,16.71848 -0.51984,7.44992 -0.24507,10.9893 1.03105,13.28152 2.46303,4.42419 2.25156,7.6697 -0.26469,4.0625 -2.41573,-3.4631 -5.94957,-3.62005 -8.22914,-0.36551 -1.63542,2.33487 -1.78172,2.25957 -3.19309,-1.6435 z M 193.125,121.43258 c -2.80586,-0.61629 -3.83235,-1.60841 -4.07708,-3.94062 -0.17988,-1.71433 -0.91347,-6.36234 -1.63021,-10.3289 -1.18125,-6.53737 -1.055,-7.560423 1.34969,-10.937504 C 190.99457,93.097783 192.26776,92.5 196.70227,92.5 l 5.28204,0 1.60408,7.230459 c 1.09006,4.913541 1.27235,9.619991 0.56886,14.687501 -0.93925,6.76596 -1.32466,7.47471 -4.15872,7.64766 -1.71794,0.10483 -4.81103,-0.18003 -6.87353,-0.63304 z m 178.1335,-24.448841 -4.36651,-1.576068 3.39757,-0.649487 c 2.33547,-0.446453 4.05412,0.07597 5.49775,1.671164 2.40795,2.660756 1.58574,2.761406 -4.52881,0.554391 z"
       id="path3352"
       inkscape:connector-curvature="0" />
    <path
       style="fill:#fe0000"
       d="m 192.5,123.83769 c -8.98398,-1.79641 -13.23323,-6.10606 -11.76974,-11.93704 1.09268,-4.35358 3.40722,-4.01041 2.4467,0.36276 -1.3828,6.29587 6.80349,10.13884 21.74089,10.20603 11.28477,0.0508 21.36484,-6.45885 19.43191,-12.54895 -0.86396,-2.72211 -5.59976,-5.86349 -5.59976,-3.71447 0,2.42008 -2.0935,1.30541 -3.54935,-1.88984 C 213.21487,99.9579 213.18534,100 218.22916,100 c 2.98904,0 4.30866,0.51152 3.96665,1.53756 -0.28189,0.84566 0.491,2.39254 1.71754,3.4375 1.22652,1.04497 2.58445,3.39973 3.0176,5.23281 0.65442,2.76951 -0.0739,4.16885 -4.30875,8.27866 -2.80298,2.72019 -6.85995,5.29852 -9.0155,5.72963 -4.85915,0.97183 -15.28906,0.7848 -21.1067,-0.37847 z"
       id="path3350"
       inkscape:connector-curvature="0" />
    <path
       style="fill:#000000"
       d="m 93.125,292.79094 10,-0.4502 14.59225,-21.55798 14.59225,-21.55797 -13.76653,-15.5499 C 100.92901,213.77914 100.89579,213.75 95.830323,213.75 c -5.128493,0 -7.403149,-2.35883 -6.858145,-7.11191 0.401348,-3.50023 0.440565,-3.51442 10.715322,-3.87614 5.67188,-0.19969 10.29875,-0.76219 10.28194,-1.25 -0.0168,-0.48783 -0.57612,-3.25081 -1.24293,-6.13997 -1.01286,-4.38854 -0.81401,-5.93138 1.20826,-9.375 1.33135,-2.26709 4.95933,-13.40323 8.06218,-24.74698 3.10284,-11.34375 7.20524,-24.5625 9.11641,-29.375 2.85948,-7.20036 3.42205,-10.37091 3.1766,-17.90244 -0.36242,-11.12095 -1.3789,-13.20188 -8.13144,-16.646772 C 115.68417,94.022821 105,85.153821 105,83.082385 c 0,-0.83945 0.90824,-2.280042 2.0183,-3.201315 1.75306,-1.454911 2.5154,-1.055403 5.80083,3.039986 3.63297,4.528594 12.7713,10.097304 19.94693,12.155252 3.3706,0.966672 3.3889,0.940683 1.4362,-2.039505 -1.20634,-1.841107 -1.77824,-4.728839 -1.46607,-7.402729 0.55218,-4.729896 -0.88653,-5.560391 -5.08756,-2.936798 -2.56488,1.601788 -6.39863,0.678025 -6.39863,-1.541781 0,-0.800583 0.8894,-1.081674 2.03344,-0.642665 1.11839,0.429166 2.66526,0.263435 3.4375,-0.368293 0.77224,-0.631727 5.14175,-1.544372 9.71002,-2.028101 7.44096,-0.787912 8.58003,-0.605452 10.9375,1.752029 3.2289,3.228902 3.68101,12.70444 0.72329,15.159134 -1.67873,1.393211 -1.57851,1.749926 0.8331,2.965555 1.50775,0.760015 4.69179,4.942686 7.07564,9.294816 4.00065,7.30387 4.17795,8.06931 2.30328,9.94396 -1.11703,1.11705 -4.42673,2.91283 -7.35487,3.99063 -4.98375,1.83444 -5.34825,2.29289 -5.70495,7.17544 -0.2657,3.63702 1.21751,9.87136 4.90011,20.5964 l 5.28116,15.3806 -2.85867,14.17355 c -1.57227,7.79545 -3.12519,15.19269 -3.45092,16.4383 -0.451,1.72463 0.34924,2.47152 3.35552,3.13181 2.17128,0.47689 4.2512,1.65779 4.62205,2.62421 0.53609,1.39702 4.36577,1.75713 18.68659,1.75713 l 18.01232,0 -3.1631,-6.24208 c -3.10971,-6.13673 -3.16808,-6.77895 -3.45855,-38.05436 -0.20711,-22.29904 0.12604,-32.23622 1.11403,-33.22991 1.04617,-1.05222 1.10446,0.26053 0.22614,5.09301 -0.65084,3.58084 -0.72262,6.95571 -0.15949,7.49971 1.61284,1.55807 9.61189,2.59432 11.30994,1.46518 0.84483,-0.56179 2.0919,-4.08934 2.77125,-7.83899 l 1.23517,-6.81756 -0.53854,6.67804 c -0.45711,5.66821 -0.26969,6.4549 1.23945,5.20242 0.9779,-0.81158 2.30356,-3.8167 2.94593,-6.67804 0.64236,-2.86133 1.22817,-3.97341 1.3018,-2.47129 0.22482,4.58696 -2.15943,9.14151 -5.91329,11.29593 -3.29039,1.88842 -3.69373,2.95178 -5.15402,13.588 -1.64737,11.99861 -1.04345,31.53948 1.35819,43.94744 l 1.27023,6.5625 26.10472,0 26.10474,0 0.77806,-4.6875 c 0.42794,-2.57813 1.29718,-6.31831 1.93165,-8.31153 0.63447,-1.99322 1.15358,-14.19543 1.15358,-27.11605 0,-21.33412 -0.23225,-23.88565 -2.52836,-27.77727 -2.74195,-4.64726 -7.47164,-27.04954 -7.47164,-35.389619 0,-3.223272 -0.75693,-5.79011 -2.01541,-6.834566 -1.63538,-1.357241 -1.84283,-2.977136 -1.10014,-8.590556 0.5034,-3.80485 1.06416,-9.449159 1.24614,-12.542909 0.50815,-8.639469 4.72684,-19.375 7.6137,-19.375 2.14346,0 2.41652,1.152246 2.74012,11.5625 l 0.3594,11.5625 5.2656,0.1885 c 2.89608,0.103675 6.80838,0.06824 8.69402,-0.07875 2.58547,-0.20154 3.77837,0.500847 4.85181,2.856787 0.78287,1.718219 0.99639,4.14428 0.47446,5.391247 -0.78765,1.881852 -1.14035,1.576706 -2.07506,-1.795288 -1.55978,-5.626908 -3.45671,-5.106041 -2.67339,0.734067 0.4037,3.009807 -0.0655,6.167223 -1.25941,8.47611 -1.40165,2.710482 -1.55946,4.293008 -0.59922,6.008877 0.78234,1.397948 1.04535,6.85789 0.65781,13.65496 -0.49124,8.6156 -0.1907,12.2799 1.25601,15.31367 1.70982,3.58554 1.69508,5.35747 -0.14599,17.55643 -1.12628,7.46261 -2.6629,20.51176 -3.41472,28.9981 -1.0054,11.34846 -2.16165,17.22662 -4.37136,22.22315 -1.65241,3.73637 -3.00437,7.05864 -3.00437,7.38277 0,0.32415 11.49137,0.58937 25.53638,0.58937 l 25.53637,0 1.27023,-6.5625 c 2.40165,-12.40797 3.00556,-31.94883 1.35819,-43.94744 -1.46029,-10.63623 -1.86363,-11.69959 -5.15402,-13.588 -4.65605,-2.67221 -5.62059,-5.51104 -7.38915,-21.7478 -1.26754,-11.63705 -1.91917,-14.00778 -4.65923,-16.950632 -3.04026,-3.265287 -3.1186,-3.711578 -1.71718,-9.782863 C 294.33921,86.421948 295,81.947885 295,79.978409 c 0,-1.969477 0.5625,-3.92851 1.25,-4.353409 0.6875,-0.424899 1.25,-4.418004 1.25,-8.873569 0,-5.704838 0.75932,-9.58943 2.56712,-13.133019 3.71328,-7.278613 5.50188,-5.685676 5.87417,5.231577 0.49928,14.641357 0.29255,14.30651 8.69162,14.077847 3.98315,-0.108437 9.00199,-0.586984 11.15299,-1.06343 2.22714,-0.493311 4.24054,-0.332895 4.67656,0.372603 0.42111,0.681377 -1.05754,1.580986 -3.2859,1.999131 -4.02674,0.755605 -4.0514,0.805265 -4.02411,8.103014 0.016,4.269147 0.73009,8.18939 1.70605,9.36535 1.75643,2.116368 1.72094,2.523125 -1.65111,18.920496 -1.70949,8.31279 -1.81578,11.4376 -0.62998,18.52055 0.97411,5.81846 1.13869,16.91789 0.51896,35 -0.83786,24.44749 -1.13698,26.93507 -3.898,32.41695 l -2.99048,5.9375 21.998,0 21.99801,0 -2.7872,-4.50979 c -2.71975,-4.40064 -2.75255,-4.8922 -1.35529,-20.3125 3.28954,-36.3036 3.27446,-34.66356 0.35256,-38.37816 -3.17202,-4.03258 -3.40761,-9.23566 -0.65883,-14.5512 1.28726,-2.48931 2.13206,-7.85842 2.35967,-14.99695 0.26706,-8.37605 0.88248,-11.702791 2.49434,-13.483891 1.97114,-2.178078 1.9822,-2.58948 0.14033,-5.219116 -2.57332,-3.673932 -2.56329,-10.937163 0.0201,-14.625598 1.4861,-2.121707 1.65121,-3.251917 0.625,-4.278134 C 360.6276,71.377597 360,69.93157 360,68.931265 c 0,-1.443734 0.51546,-1.352241 2.5,0.443735 1.375,1.244358 2.5,3.019039 2.5,3.943735 C 365,74.326787 366.40147,75 368.5,75 c 1.925,0 4.24744,0.703125 5.16096,1.5625 1.3753,1.293775 1.5148,0.272621 0.81111,-5.9375 -1.55493,-13.722439 -1.55273,-13.75 1.09797,-13.75 4.47046,0 7.5945,17.394705 5.3879,30 l -0.87527,5 2.28058,-4.759414 c 3.23064,-6.742125 4.59427,-7.871915 7.04567,-5.83743 1.96235,1.628605 1.94134,2.941623 -0.12956,8.096844 -0.60404,1.503641 0.76826,0.631827 3.44328,-2.1875 4.83886,-5.099915 6.22347,-5.58851 8.40117,-2.964546 1.04209,1.255641 1.06603,2.696541 0.0883,5.3125 -1.22284,3.271574 -12.05577,20.578316 -23.76345,37.964546 -2.54624,3.78125 -4.92321,8.84375 -5.28215,11.25 -1.56517,10.4926 -7.39361,42.29742 -8.55542,46.68551 -1.01375,3.82889 -0.82407,6.06078 0.92958,10.9375 l 2.20324,6.12699 26.02413,0 26.02412,0 -3.14605,-6.20845 c -3.43887,-6.78629 -3.90145,-10.03616 -1.73662,-12.20099 1.62607,-1.62607 3.41342,-23.57309 3.51842,-43.20286 0.059,-11.04084 0.53768,-14.39984 2.63868,-18.51812 1.75823,-3.44644 2.77307,-8.45006 3.22232,-15.88771 0.36069,-5.97128 1.25444,-12.094257 1.98611,-13.60662 0.96755,-1.999942 0.91008,-3.764292 -0.21081,-6.470352 -0.84762,-2.04633 -1.18177,-4.852811 -0.74257,-6.23662 1.22147,-3.848528 -3.70277,-6.115774 -6.93324,-3.192238 -1.32203,1.196415 -2.8221,1.755329 -3.33351,1.24203 -1.35943,-1.364449 4.50977,-5.71807 7.70863,-5.71807 1.50509,0 3.31747,0.58094 4.0275,1.290979 2.31475,2.31475 5.40357,-0.187982 6.76577,-5.482008 2.61711,-10.171068 3.97033,-13.493759 5.77811,-14.187462 4.08232,-1.566536 4.65195,1.797367 1.87085,11.04816 -2.41615,8.036815 -2.50568,9.229506 -0.83166,11.079268 1.14657,1.266948 1.87596,4.526924 1.87596,8.384524 0,5.12091 -0.52006,6.656921 -2.75675,8.142025 l -2.75676,1.830418 3.06926,1.919135 c 2.53309,1.583886 20.51326,4.937491 33.68147,6.282151 3.86595,0.39478 4.78267,4.05902 1.46031,5.8371 -1.75239,0.93785 -7.00847,0.78011 -18.39731,-0.55211 -8.7692,-1.02579 -16.10401,-1.70506 -16.29958,-1.50949 -0.19557,0.19557 -0.931,3.71635 -1.6343,7.82395 -0.70329,4.1076 -1.62055,8.63939 -2.03835,10.07065 -0.68533,2.34778 1.84715,3.79273 25.8937,14.77407 14.65932,6.69449 28.5245,12.98801 30.81151,13.98563 10.64533,4.64356 -4.07362,7.47753 -15.923,3.0658 -3.84186,-1.4304 -15.4227,-5.05779 -25.7352,-8.06087 l -18.75,-5.46012 -1.07326,6.4216 c -0.5903,3.53188 -2.96745,14.19116 -5.28254,23.6873 -3.71736,15.24796 -4.055,17.98501 -2.8892,23.42099 l 1.32008,6.1553 42.08746,0.3462 c 23.1481,0.19041 -52.0263,0.47909 -167.05424,0.64151 l -209.141696,0.2953 0.391699,4.0625 0.391697,4.0625 208.75,0.6305 208.75,0.6305 -174.6875,0.307 c -141.32039,0.24836 -174.6875,0.6139 -174.6875,1.9137 0,0.88369 -11.44659,18.46181 -25.43686,39.0625 l -25.43687,37.4558 200.12437,0.63071 200.12436,0.63073 -212.5,0.0524 c -116.875,0.0288 -208,-0.15024 -202.5,-0.39785 z m 61.04277,-76.85344 c 0.55482,-2.02894 -1.16675,-2.1875 -23.7508,-2.1875 l -24.34898,0 3.5285,4.20466 c 1.94068,2.31257 8.28584,9.5728 14.10036,16.13386 l 10.57185,11.92921 9.65045,-13.94637 c 5.30774,-7.6705 9.91962,-14.93074 10.24862,-16.13386 z M 113.75,202.10457 c 0,-7.91727 11.64182,-39.08317 20.54869,-55.01013 6.55117,-11.7146 5.44985,-18.4093 -2.43729,-14.81569 -4.77771,2.17687 -6.40339,5.86439 -12.49662,28.34625 -3.16766,11.6875 -6.84243,23.09432 -8.16616,25.3485 -2.09053,3.55995 -2.23167,4.91504 -1.07412,10.3125 0.73296,3.4177 1.84855,6.214 2.47908,6.214 0.63053,0 1.14642,-0.17794 1.14642,-0.39543 z m 27.94769,-4.29207 c 0.42613,-2.57813 0.79473,-7.78125 0.81911,-11.5625 0.0244,-3.78125 0.59074,-9.24265 1.25859,-12.13645 1.05405,-4.56724 0.70456,-6.6701 -2.64878,-15.9375 C 139.00194,152.30422 136.76871,147.5 136.16389,147.5 132.64847,147.5 115,193.03452 115,202.10457 c 0,0.21749 5.83265,0.39543 12.96145,0.39543 l 12.96145,0 0.77479,-4.6875 z m 14.55231,3.53683 c 0,-0.63288 -1.68105,-1.51992 -3.73566,-1.97118 -2.05463,-0.45128 -4.01658,-1.27501 -4.35992,-1.83055 -0.34333,-0.55553 0.87815,-8.11791 2.71444,-16.8053 l 3.33868,-15.79525 -4.77048,-14.37779 c -2.62377,-7.90779 -5.15287,-14.61411 -5.62024,-14.90296 -0.46735,-0.28884 -2.3503,1.78905 -4.18433,4.61754 -2.34593,3.61796 -2.96049,5.59347 -2.07283,6.66306 0.69398,0.83619 2.92728,6.08391 4.96289,11.66161 3.22591,8.83923 3.55361,10.90361 2.5523,16.07889 -0.63185,3.26567 -1.44229,10.85947 -1.80098,16.8751 l -0.65217,10.9375 6.81415,0 c 3.74779,0 6.81415,-0.51781 6.81415,-1.15067 z m 41.99326,-1.66183 c -0.43907,-1.54688 -1.40892,-9.5625 -2.15524,-17.8125 -1.25499,-13.87345 -1.04271,-21.92206 0.92648,-35.12506 l 0.76439,-5.12505 -5.25611,-1.33415 -5.2561,-1.33414 0.90083,25.8342 c 0.82835,23.75572 1.14114,26.3119 3.88772,31.7717 3.12005,6.20221 7.72101,8.52573 6.18803,3.125 z m 62.14728,-5 c 2.46708,-5.90221 3.59624,-11.63308 4.61791,-23.4375 0.74379,-8.59375 2.13943,-20.62376 3.10143,-26.73335 1.59906,-10.15554 1.56751,-11.35836 -0.36789,-14.02321 -2.89239,-3.98253 -6.05248,-3.71921 -8.33489,0.69448 -1.52738,2.95363 -1.9071,8.78628 -1.9071,29.29363 0,14.08314 -0.48087,26.90795 -1.06861,28.49957 -0.58774,1.59164 -1.43814,5.2845 -1.88978,8.20638 -1.26245,8.16746 1.96696,6.78712 5.84893,-2.5 z m 57.57342,1.875 c 2.81703,-5.5641 3.06419,-7.7652 3.93009,-35 1.01051,-31.78285 0.89032,-32.30756 -5.76754,-25.1803 -4.13084,4.42206 -4.15596,4.62257 -2.19452,17.51027 1.08541,7.13177 1.09837,13.71177 0.0518,26.25 -0.76823,9.20289 -1.7632,17.99815 -2.21104,19.54503 -1.56474,5.40472 3.05277,3.07407 6.19129,-3.125 z M 365,201.40265 c 0,-0.60354 -0.87141,-3.18291 -1.93646,-5.73196 -1.74543,-4.17739 -1.74694,-5.51813 -0.0154,-13.59015 1.05663,-4.92555 3.05,-15.42429 4.42972,-23.33054 1.37972,-7.90625 2.85813,-15.92027 3.28537,-17.80894 l 0.77678,-3.43394 -5.62038,2.74762 -5.62039,2.74761 -0.778,9.43632 c -0.42789,5.18998 -1.42235,16.54755 -2.2099,25.23904 -1.39726,15.4203 -1.36446,15.91186 1.35529,20.3125 2.52706,4.08889 6.3333,6.13971 6.3333,3.41244 z m 57.46944,0.15985 c -0.0168,-0.51563 -0.57024,-3.27519 -1.22986,-6.13236 -1.00383,-4.34814 -0.50347,-8.01554 3.06976,-22.5 2.348,-9.51783 4.64018,-20.43098 5.09376,-24.25144 l 0.82469,-6.9463 -5.12664,-2.31179 c -2.81965,-1.27149 -4.89416,-2.54426 -4.61003,-2.8284 0.28414,-0.28414 2.87723,0.68768 5.76242,2.1596 2.8852,1.47191 14.61157,5.41734 26.05864,8.76763 11.44705,3.35027 22.90413,6.96647 25.46017,8.03599 5.0441,2.11058 17.22765,2.66531 17.22765,0.78438 0,-0.6381 -2.95313,-2.27108 -6.5625,-3.62883 -3.60938,-1.35777 -18.07918,-7.86693 -32.15511,-14.46482 -29.73414,-13.93744 -31.93173,-14.37587 -34.89089,-6.96087 -0.87063,2.18161 -1.25633,2.44677 -1.31226,0.90221 -0.14183,-3.91547 4.69957,-7.48684 9.40465,-6.93755 3.8087,0.44465 4.35842,0.10813 5.41604,-3.31504 0.6474,-2.09545 1.53267,-6.63675 1.96727,-10.09177 0.78873,-6.27018 0.7825,-6.28413 -3.351,-7.5 -5.40931,-1.59115 -8.73052,-7.680939 -5.48376,-10.055027 1.16444,-0.851462 1.58474,-1.877168 0.934,-2.279349 -2.3677,-1.463315 -3.64426,2.602669 -4.33379,13.803526 -0.4739,7.69813 -1.50049,13.0107 -3.14009,16.25 -1.88313,3.72044 -2.47482,7.64967 -2.60702,17.31271 -0.2724,19.9119 -2.22013,43.20959 -3.73939,44.72885 -2.1514,2.1514 -1.6831,5.41299 1.74991,12.1877 2.72914,5.38571 5.6677,8.16481 5.57338,5.27095 z m -56.90335,-62.24333 c 4.11321,-1.95185 6.08837,-4.60662 24.13861,-32.44417 11.31641,-17.452479 13.49614,-23.125 8.886,-23.125 -1.55985,0 -12.3407,11.122096 -12.3407,12.731321 0,0.642581 -2.70071,4.087789 -6.00159,7.656009 -7.33742,7.93168 -21.58318,25.52826 -23.59968,29.15066 -1.17748,2.11518 -1.09988,3.18935 0.38337,5.30698 2.21885,3.16784 3.20757,3.25175 8.53399,0.7242 z M 320.6959,125.5633 c -0.43361,-2.31134 -0.15107,-7.86214 0.62786,-12.33511 1.3266,-7.61793 1.22964,-8.47193 -1.53195,-13.49293 -2.44743,-4.449801 -3.66453,-5.428953 -7.16557,-5.76468 l -4.21738,-0.40442 0.85745,9.15442 c 0.4716,5.03493 1.68037,14.39498 2.68613,20.80012 1.33752,8.51789 1.46341,12.21086 0.46874,13.75 -1.23445,1.91012 -1.29449,1.89542 -0.65063,-0.1592 0.39013,-1.24494 -0.10412,-7.43244 -1.09831,-13.75001 -0.9942,-6.31757 -2.35456,-17.584 -3.02303,-25.036505 -0.87902,-9.799949 -1.81353,-14.210955 -3.37665,-15.938171 -2.12592,-2.349128 -2.18958,-2.347694 -3.89542,0.08772 -1.44233,2.059211 -1.504,5.558613 -0.36645,20.793626 0.75225,10.07476 1.90134,21.13144 2.55352,24.5704 0.65218,3.43896 1.18579,6.46539 1.18579,6.72542 0,0.26002 1.74378,1.53322 3.87506,2.82933 l 3.87507,2.35656 4.99207,-4.99207 c 4.41896,-4.41897 4.90156,-5.47454 4.2037,-9.1945 z m -176.9902,2.66013 c 0.0244,-2.00837 -0.87709,-4.66969 -2.00321,-5.91406 -1.66923,-1.84446 -1.75641,-2.61323 -0.47195,-4.16092 0.86656,-1.04415 2.36437,-1.89845 3.32846,-1.89845 2.70537,0 4.11346,-5.34323 3.16162,-11.99737 -0.84887,-5.9344 -0.93237,-6.027641 -5.54123,-6.18769 -2.57367,-0.08938 -4.67939,0.266295 -4.67939,0.790375 0,0.52408 -1.44796,2.673675 -3.21769,4.776865 -2.87695,3.41907 -3.13131,4.52125 -2.40215,10.40841 0.64295,5.19098 0.26576,7.86287 -1.78231,12.62555 -1.42881,3.32261 -2.59785,6.24957 -2.59785,6.50436 0,0.25477 1.67672,-0.49499 3.72606,-1.66614 4.43411,-2.534 7.89665,-1.0886 8.58409,3.58335 l 0.43516,2.95739 1.70805,-3.08505 c 0.93943,-1.69678 1.72799,-4.72826 1.75234,-6.73663 z m 111.38248,-1.80867 c -0.72138,-1.34791 -1.68264,-8.11257 -2.13614,-15.03258 -0.65242,-9.95525 -1.30755,-13.01894 -3.13829,-14.675733 C 247.5996,94.702663 247.5,94.822749 247.5,99.496241 c 0,6.413739 4.30545,28.859179 6.44527,33.600919 l 1.67973,3.72216 0.38739,-3.9769 c 0.21306,-2.1873 -0.20283,-5.07975 -0.92422,-6.42766 z M 364.79504,120.625 c 4.49478,-5.5 9.05156,-11.06117 10.12616,-12.35815 1.88045,-2.26962 1.7327,-2.32567 -3.9361,-1.49304 -3.42529,0.5031 -6.89645,0.32641 -8.29533,-0.42224 -2.22986,-1.19339 -2.47098,-0.67392 -3.30401,7.11804 -0.49424,4.62297 -1.68321,9.92433 -2.64219,11.78082 -0.95896,1.85648 -1.69916,4.66898 -1.64488,6.24999 0.0649,1.89063 0.34262,2.23278 0.81134,0.99958 0.39196,-1.03125 4.39022,-6.375 8.88501,-11.875 z m -101.12663,5.625 c 1.25216,0 3.15951,1.26563 4.23856,2.8125 2.51625,3.6072 2.72772,0.36169 0.26469,-4.0625 -1.27612,-2.29222 -1.55089,-5.8316 -1.03105,-13.28152 C 267.88249,101.08648 267.0785,95 264.9322,95 c -0.82071,0 -0.77703,0.921425 0.1235,2.603984 1.11179,2.077382 0.9551,3.088526 -0.77475,4.999996 -2.7923,3.08545 -4.06691,3.0175 -7.8124,-0.41648 l -3.06763,-2.8125 0.80237,11.794 c 0.4413,6.4867 1.46797,13.63472 2.2815,15.88449 1.41137,3.90307 1.55767,3.97837 3.19308,1.6435 0.94262,-1.34584 2.73838,-2.44699 3.99054,-2.44699 z M 150.3222,120.23928 c 8.77644,-3.33319 9.10644,-3.99462 5.50056,-11.02483 -1.71784,-3.3492 -3.99407,-7.21445 -5.0583,-8.58945 -1.85175,-2.3925 -1.93666,-2.305686 -1.97471,2.01893 -0.0235,2.66811 0.97812,5.81295 2.4455,7.6784 l 2.48524,3.15948 -3.06627,2.00909 c -1.68644,1.10501 -4.17786,2.0091 -5.53647,2.0091 -2.78523,0 -4.40366,1.8716 -3.24275,3.75 1.03331,1.67194 1.5448,1.61074 8.4472,-1.01072 z m 1.39817,-7.98947 c -1.08428,-1.75442 -2.6586,-1.07704 -3.31302,1.4255 -0.54348,2.07824 -0.30759,2.22132 1.64835,0.99981 1.25542,-0.78402 2.00452,-1.87541 1.66467,-2.42531 z m 321.30239,-4.25855 c 3.63022,-1.39304 2.23385,-4.24056 -2.08526,-4.25235 -7.64744,-0.0209 -30.95008,-4.612877 -33.13243,-6.529041 -5.48738,-4.818082 -11.25661,-3.625365 -9.15838,1.893386 1.52345,4.006985 5.79909,5.300335 25.34767,7.667525 18.06488,2.18752 16.73127,2.10198 19.0284,1.22048 z m -93.20515,-5.09929 c 3.3279,-2.11497 10.6898,-17.266693 9.67476,-19.911855 -1.30205,-3.393085 -3.02672,-1.599751 -7.4802,7.778005 -3.669,7.725882 -4.92511,9.35014 -6.70127,8.665336 -1.20225,-0.463531 -4.6291,-1.497913 -7.61525,-2.298627 -4.88154,-1.308955 -5.60674,-1.213248 -7.1875,0.948576 -2.46601,3.372475 -2.19746,5.076545 1.05435,6.690285 3.52149,1.74757 14.29892,0.64255 18.25511,-1.87172 z M 136.25,98.572289 c 0,-0.632913 -0.98438,-1.455881 -2.1875,-1.828819 -7.80325,-2.418802 -17.45055,-8.008548 -21.02094,-12.179743 -3.8453,-4.492372 -6.79156,-5.199337 -6.79156,-1.629658 0,2.056132 9.43213,9.837711 15.96273,13.169376 2.88788,1.473291 6.21159,4.145225 7.38602,5.937625 l 2.13532,3.2589 2.25797,-2.78846 c 1.24187,-1.53366 2.25796,-3.306308 2.25796,-3.939221 z M 263.68369,101.9549 C 265.81064,99.392085 263.20957,95 259.56489,95 c -4.56904,0 -9.16717,-5.984852 -9.89122,-12.874246 -1.09207,-10.391148 -4.08683,-9.477634 -5.37993,1.641076 l -0.7976,6.85817 7.93943,6.484114 c 8.60238,7.025546 9.98508,7.572586 12.24812,4.845786 z m 61.22845,-5.677245 c 0.0639,-2.252119 -2.54774,-5.74849 -9.57032,-12.8125 C 305.2483,73.312081 302.5,71.842007 302.5,76.596025 c 0,1.861456 3.00581,5.828809 8.68871,11.468159 4.7788,4.742174 9.38224,10.296458 10.22989,12.342856 1.36731,3.30099 1.64634,3.45264 2.47343,1.34434 0.51274,-1.30701 0.9718,-3.770185 1.02011,-5.473725 z m -26.82335,-3.060099 c -0.6829,-6.376826 -0.44577,-8.624138 1.1505,-10.903132 1.10588,-1.578879 2.01071,-3.911775 2.01071,-5.184212 0,-3.58423 -4.31144,-2.086884 -4.70077,1.632558 -0.17918,1.711726 -0.96112,6.355841 -1.73766,10.320255 -1.25344,6.399108 -1.16007,7.486282 0.83201,9.6875 1.23413,1.363715 2.48273,2.479475 2.77464,2.479475 0.29193,0 0.14368,-3.6146 -0.32943,-8.032444 z m 79.16257,3.969944 c 0.0924,-0.859375 1.0439,-5.780436 2.11441,-10.935693 1.07052,-5.155256 1.62433,-11.061506 1.2307,-13.125 C 378.2494,60.822803 377.13696,57.5 375.36481,57.5 c -1.3224,0 -1.68411,0.840302 -1.21066,2.8125 1.85299,7.7189 2.07927,12.450039 1.06121,22.1875 -0.77792,7.440555 -0.69569,11.165216 0.27439,12.427447 1.10816,1.441904 1.01019,1.574638 -0.48975,0.663568 -1.03125,-0.626384 -3.28125,-1.0518 -5,-0.94537 -2.41902,0.149794 -2.56022,0.03781 -0.625,-0.49567 3.47456,-0.957841 4.33375,-2.701016 4.35586,-8.837475 C 373.74811,80.515579 373.45539,80 370.71429,80 c -3.65896,0 -6.67173,2.774119 -7.77148,7.15588 -1.11502,4.442609 0.73854,6.850859 7.18769,9.33864 6.76039,2.607844 6.91334,2.622727 7.12086,0.69298 z M 145.97186,95.55412 C 149.47265,93.102078 150.00161,85 146.66092,85 143.09444,85 140,88.864594 140,93.318735 c 0,4.657891 1.63792,5.270997 5.97186,2.235385 z M 261.25,89.625 c 0,-5.045123 -1.89744,-7.125 -6.5,-7.125 -2.76571,0 -3.5,0.573149 -3.5,2.731936 0,3.386554 4.64946,8.518064 7.71789,8.518064 1.74845,0 2.28211,-0.964616 2.28211,-4.125 z m 176.5625,2.384943 C 440.63682,89.865977 440.88705,81.25 438.125,81.25 c -2.5887,0 -6.875,4.520095 -6.875,7.25 0,2.145514 2.22874,5.294597 3.6875,5.210246 0.37812,-0.02186 1.67187,-0.787001 2.875,-1.700303 z M 311.25463,89.379929 c -3.36348,-3.580264 -3.94642,-3.508316 -2.93427,0.362159 0.44893,1.716686 1.69229,2.757912 3.29333,2.757912 2.50023,0 2.4902,-0.08718 -0.35906,-3.120071 z m 8.69553,-7.564978 C 319.12171,80.816727 317.28253,80 315.86307,80 c -2.37118,0 -2.28261,0.312038 1.09057,3.841919 2.89743,3.032044 3.759,3.414634 4.08708,1.814951 0.22864,-1.114832 -0.26211,-2.843696 -1.09056,-3.841919 z M 253.75,64.221944 c 0,-14.944496 -2.07589,-15.656602 -6.30747,-2.163698 l -2.99762,9.558245 2.77755,1.84422 c 1.52764,1.01432 2.77754,2.688235 2.77754,3.71981 0,1.525464 0.35001,1.585103 1.875,0.319479 1.42274,-1.180771 1.875,-4.383489 1.875,-13.278056 z m 49.375,8.825031 c 2.30375,-0.616381 2.4685,-1.54724 2.09879,-11.857932 C 305.00312,55.035069 304.40417,50 303.8928,50 c -2.21175,0 -5.1428,9.285574 -5.1428,16.292409 0,7.67287 0.13925,7.887862 4.375,6.754566 z M 438.87559,65.625 C 441.71079,56.528452 441.78766,55 439.40991,55 c -1.17397,0 -2.56689,2.601843 -3.84785,7.1875 -1.10427,3.953125 -2.29931,8.22358 -2.65562,9.4899 -0.47287,1.680515 -0.0699,2.186959 1.49186,1.875 1.38312,-0.276276 2.96624,-3.079307 4.47729,-7.9274 z M 204.0745,114.7578 c 0.82769,-5.46856 0.69519,-9.70253 -0.46765,-14.944106 L 201.98431,92.5 l -5.28204,0 c -4.44841,0 -5.7057,0.594977 -7.96646,3.769926 -2.41913,3.397356 -2.55107,4.391704 -1.33512,10.061524 0.74212,3.46038 1.28072,8.09204 1.19689,10.29258 -0.23945,6.28513 -2.68725,-9.93425 -2.60319,-17.24903 0.0395,-3.4375 0.2538,-10.328978 0.47621,-15.314396 l 0.4044,-9.064395 -4.05156,-0.760167 c -2.22837,-0.418091 -3.70702,-1.317656 -3.2859,-1.999033 0.43602,-0.705498 2.44942,-0.865914 4.67656,-0.372603 2.151,0.476447 7.16984,0.95499 11.15299,1.06343 8.39907,0.228663 8.19233,0.56351 8.69162,-14.077847 0.37229,-10.917253 2.16089,-12.51019 5.87417,-5.231576 1.8078,3.543588 2.56712,7.42818 2.56712,13.133018 0,4.455565 0.48859,8.402991 1.08575,8.772059 0.59716,0.369069 1.4802,4.673949 1.96229,9.566401 0.73115,7.420019 0.52687,9.281724 -1.23161,11.224826 -1.3438,1.484885 -2.70769,6.767373 -3.76183,14.569873 l -1.65369,12.24041 0.62762,-10 c 0.3452,-5.5 0.9485,-11.125 1.34067,-12.5 0.69085,-2.422156 0.63441,-2.429816 -1.81244,-0.24603 -1.90538,1.70052 -2.73948,4.53755 -3.397,11.55415 -0.47932,5.11511 -1.29195,9.56005 -1.80582,9.87765 -0.51389,0.31759 -0.41463,-2.85624 0.22056,-7.05297 z M 214.52053,88.125 c -0.41184,-3.4375 -0.75369,-7.628125 -0.75967,-9.3125 -0.0199,-5.61661 -2.3467,-0.91575 -2.74836,5.552621 -0.33506,5.395745 -0.85264,6.462115 -3.825,7.880708 -3.55601,1.697148 -3.9191,2.705512 -2.66223,7.393532 0.73113,2.727039 0.80865,2.710169 5.74259,-1.25 4.90283,-3.935185 4.9867,-4.137632 4.25266,-10.264361 z m -24.20183,2.629386 c -0.85166,-1.37801 -4.0687,2.771486 -4.0687,5.248006 0,1.123809 0.87443,0.694694 2.3845,-1.170162 1.31147,-1.619603 2.06936,-3.454631 1.6842,-4.077844 z m 18.67654,-0.58238 c 0.47862,-0.438353 1.26463,-7.412018 1.74668,-15.497032 0.75769,-12.70794 0.57169,-15.375909 -1.37257,-19.6875 C 208.13237,52.244362 206.64324,50 206.06016,50 c -1.10741,0 -1.74865,16.333989 -1.1614,29.58368 0.18791,4.239774 -0.19976,8.676151 -0.8615,9.858616 -0.8395,1.500101 -1.01196,0.160025 -0.57057,-4.43356 0.5047,-5.252566 0.28141,-6.468005 -1.10455,-6.012217 -2.25202,0.7406 -2.83652,5.843026 -1.17113,10.223331 1.06854,2.81048 1.83078,3.290949 4.12246,2.598584 1.54634,-0.467181 3.20313,-1.208074 3.68177,-1.646428 z M 327.47492,34.344793 c -2.07656,-2.502115 -0.59132,-3.912473 1.92285,-1.825895 1.54478,1.282056 2.27687,1.301895 3.4677,0.09398 1.18148,-1.198423 1.03414,-1.882393 -0.67797,-3.147327 C 329.50452,27.483335 329.38468,26.25 331.875,26.25 c 1.03125,0 1.875,-0.632813 1.875,-1.40625 0,-0.908039 -1.38256,-1.129738 -3.90243,-0.625766 -3.42322,0.684646 -3.70497,0.542581 -2.29448,-1.156948 0.89455,-1.077875 3.04182,-1.77075 4.83991,-1.561733 2.90306,0.337461 3.25364,0.947397 3.44461,5.992982 0.11688,3.089506 -0.37382,6.323881 -1.09056,7.1875 -1.77649,2.140534 -5.3544,1.975716 -7.27213,-0.334993 z m 11.35965,-0.43676 c -3.17625,-5.93488 -0.31825,-13.223379 4.88755,-12.464245 4.2642,0.621827 4.76787,3.484553 0.55909,3.177796 -1.86075,-0.135621 -3.60067,0.362239 -3.86651,1.106354 -0.26583,0.744116 0.72405,1.306616 2.19974,1.25 3.61158,-0.138562 5.95908,3.536162 4.12651,6.459562 -1.99753,3.186536 -6.31529,3.443499 -7.90638,0.470533 z M 345,31.948771 c 0,-0.990676 -0.61151,-2.179164 -1.35891,-2.641085 -1.76503,-1.090846 -4.17425,1.318372 -3.0834,3.083399 C 341.78295,34.373611 345,34.053296 345,31.948771 Z m 5.0724,2.513464 c -2.12745,-2.563414 -1.14125,-10.806025 1.4901,-12.454245 3.39467,-2.126355 6.49354,0.554915 6.95566,6.018341 C 358.94997,33.131592 357.1419,36.25 353.75,36.25 c -1.20664,0 -2.86156,-0.804494 -3.6776,-1.787765 z m 5.5526,-5.816401 c 0,-2.962964 -0.57419,-4.270834 -1.875,-4.270834 -2.00129,0 -3.17284,4.56865 -1.9732,7.694855 1.26787,3.304022 3.8482,1.008121 3.8482,-3.424021 z m 6.11249,-1.67845 c -1.13725,-2.963614 0.47187,-5.956667 2.94623,-5.480149 1.38378,0.266493 2.19128,1.560969 2.19128,3.512765 0,3.563284 -3.94535,5.074132 -5.13751,1.967384 z m 2.84036,-3.529884 c -0.34676,-0.859375 -0.63049,-0.15625 -0.63049,1.5625 0,1.71875 0.28373,2.421875 0.63049,1.5625 0.34676,-0.859375 0.34676,-2.265625 0,-3.125 z"
       id="path3348"
       inkscape:connector-curvature="0" />
  </g>
</svg>
