<?xml version="1.0" encoding="UTF-8" standalone="no"?>
<!-- Created with Inkscape (http://www.inkscape.org/) -->

<svg
   xmlns:dc="http://purl.org/dc/elements/1.1/"
   xmlns:cc="http://creativecommons.org/ns#"
   xmlns:rdf="http://www.w3.org/1999/02/22-rdf-syntax-ns#"
   xmlns:svg="http://www.w3.org/2000/svg"
   xmlns="http://www.w3.org/2000/svg"
   xmlns:sodipodi="http://sodipodi.sourceforge.net/DTD/sodipodi-0.dtd"
   xmlns:inkscape="http://www.inkscape.org/namespaces/inkscape"
   id="svg3426"
   version="1.1"
   inkscape:version="0.91 r13725"
   width="550"
   height="275"
   viewBox="0 0 550 275"
   sodipodi:docname="bb350100.svg">
  <metadata
     id="metadata3432">
    <rdf:RDF>
      <cc:Work
         rdf:about="">
        <dc:format>image/svg+xml</dc:format>
        <dc:type
           rdf:resource="http://purl.org/dc/dcmitype/StillImage" />
        <dc:title></dc:title>
      </cc:Work>
    </rdf:RDF>
  </metadata>
  <defs
     id="defs3430" />
  <sodipodi:namedview
     pagecolor="#d2d2d2"
     bordercolor="#666666"
     borderopacity="1"
     objecttolerance="10"
     gridtolerance="10"
     guidetolerance="10"
     inkscape:pageopacity="0"
     inkscape:pageshadow="2"
     inkscape:window-width="1660"
     inkscape:window-height="984"
     id="namedview3428"
     showgrid="false"
     inkscape:zoom="1.1055832"
     inkscape:cx="210.28499"
     inkscape:cy="-13.966988"
     inkscape:window-x="79"
     inkscape:window-y="75"
     inkscape:window-maximized="0"
     inkscape:current-layer="svg3426" />
  <g
     id="g3436"
     transform="translate(-7.4755755,21.508028)">
    <path
       style="fill:#fefefe"
       d="m 21.25,155.9375 c -0.34375,-0.34375 -0.625,-1.82031 -0.625,-3.28125 l 0,-2.65625 262.03125,0 262.03125,0 0,3.28125 0,3.28125 -261.40625,0 c -143.77344,0 -261.6875,-0.28125 -262.03125,-0.625 z M 35.718372,144.402 c -0.868161,-4.0481 -0.762304,-5.06441 0.805592,-7.73438 0.9928,-1.69063 3.748879,-10.24574 6.124619,-19.01137 4.56993,-16.8614 5.789179,-19.627031 9.372467,-21.259688 5.915352,-2.695211 6.74135,2.325816 1.827968,11.111768 -6.68015,11.94522 -15.411518,35.31964 -15.411518,41.2576 0,0.16312 -0.386917,0.29657 -0.859815,0.29657 -0.472898,0 -1.309589,-2.09723 -1.859313,-4.6605 z m 24.86203,-3.54263 c 0.269022,-4.51171 0.876852,-10.20706 1.350735,-12.65632 0.750981,-3.88146 0.505212,-5.42975 -1.914227,-12.05917 -1.526708,-4.18327 -3.201679,-8.11906 -3.722159,-8.74621 -0.665753,-0.80219 -0.204824,-2.28382 1.554617,-4.99729 1.375521,-2.12137 2.787735,-3.679783 3.138254,-3.463155 0.35052,0.216638 2.247347,5.246385 4.215172,11.177225 l 3.577863,10.78334 -2.504014,11.84643 c -1.377208,6.51555 -2.29333,12.18734 -2.035828,12.60398 0.257503,0.41665 1.728974,1.03446 3.269936,1.37291 4.537805,0.99667 3.211765,2.34139 -2.308865,2.34139 l -5.110614,0 0.48913,-8.20313 z m 36.574645,3.75 c -2.104753,-4.16279 -2.297081,-5.85767 -2.949994,-25.99704 -0.655836,-20.229552 -0.601049,-21.463077 0.898022,-20.218958 0.878053,0.728719 2.437978,2.974448 3.4665,4.990518 1.618805,3.17312 1.787675,4.75591 1.256944,11.78147 -0.572635,7.58028 0.641611,27.04007 1.983481,31.78776 1.14281,4.04341 -2.302672,2.30863 -4.654953,-2.34375 z m 59.161993,0.46875 c 1.02629,-5.72544 0.72239,-22.62618 -0.66586,-37.02895 -1.29914,-13.478379 -0.92702,-15.23667 3.22456,-15.23667 4.42988,0 5.02928,2.209884 4.06858,15 -0.48413,6.44531 -0.63396,15.95408 -0.33296,21.13059 0.53595,9.21725 0.48731,9.52255 -2.35246,14.76563 -3.46707,6.40125 -4.93524,6.9113 -3.94186,1.3694 z m 37.39619,-0.46875 c -2.18623,-4.31569 -2.22287,-4.73463 -1.18766,-13.57536 0.90972,-7.76906 1.4273,-9.48093 3.48913,-11.54027 l 2.42095,-2.41803 -1.25694,9.66527 c -1.18449,9.10824 -0.77593,15.68199 1.31297,21.12558 0.25349,0.66059 -0.2084,1.19594 -1.03184,1.19594 -0.83683,0 -2.48028,-1.95336 -3.74661,-4.45313 z m 51.57963,0.46875 c -0.78359,-2.1914 -2.09782,-12 -2.92053,-21.79687 -0.82271,-9.79687 -1.74465,-19.05499 -2.04875,-20.57359 l -0.55293,-2.761076 2.56202,1.678696 c 1.42086,0.93099 3.55981,1.48795 4.80217,1.25047 2.72868,-0.52163 2.74503,-0.35771 0.29486,2.95633 -2.54133,3.43734 -3.0729,11.88288 -0.73712,11.71134 1.36753,-0.10042 1.4877,1.1356 1.09376,11.25 -0.32948,8.45928 -0.0867,12.50074 0.95004,15.81595 1.31067,4.19108 1.29224,4.45313 -0.31309,4.45313 -1.15824,0 -2.16299,-1.27885 -3.13043,-3.98438 z m 45.08668,0 c 1.02629,-5.72544 0.72238,-22.62618 -0.66586,-37.02895 -1.29914,-13.478379 -0.92702,-15.23667 3.22456,-15.23667 4.42988,0 5.02928,2.209884 4.06858,15 -0.48413,6.44531 -0.63396,15.95408 -0.33296,21.13059 0.53595,9.21725 0.48732,9.52255 -2.35246,14.76563 -3.46707,6.40125 -4.93524,6.9113 -3.94186,1.3694 z m 37.39619,-0.46875 c -2.18623,-4.31569 -2.22287,-4.73463 -1.18766,-13.57536 0.90972,-7.76906 1.4273,-9.48093 3.48913,-11.54027 l 2.42095,-2.41803 -1.25694,9.66527 c -1.18449,9.10824 -0.77593,15.68199 1.31297,21.12558 0.25349,0.66059 -0.2084,1.19594 -1.03184,1.19594 -0.83683,0 -2.48028,-1.95336 -3.74661,-4.45313 z m 45.01713,0.46875 c -0.78359,-2.1914 -2.09782,-12 -2.92054,-21.79687 -0.8227,-9.79687 -1.74464,-19.05499 -2.04874,-20.57359 l -0.55293,-2.761076 2.56202,1.678696 c 1.42086,0.93099 3.55981,1.48795 4.80217,1.25047 2.72868,-0.52163 2.74503,-0.35771 0.29486,2.95633 -2.54133,3.43734 -3.0729,11.88288 -0.73712,11.71134 1.36753,-0.10042 1.4877,1.1356 1.09376,11.25 -0.32948,8.45928 -0.0867,12.50074 0.95004,15.81595 1.31067,4.19108 1.29224,4.45313 -0.31309,4.45313 -1.15824,0 -2.16299,-1.27885 -3.13043,-3.98438 z m 45.08668,0 c 1.02629,-5.72544 0.72238,-22.62618 -0.66586,-37.02895 -1.29914,-13.478379 -0.92702,-15.23667 3.22456,-15.23667 4.42988,0 5.02928,2.209884 4.06858,15 -0.48413,6.44531 -0.63396,15.95408 -0.33296,21.13059 0.53595,9.21725 0.48732,9.52255 -2.35246,14.76563 -3.46707,6.40125 -4.93524,6.9113 -3.94186,1.3694 z m 37.39619,-0.46875 c -2.18623,-4.31569 -2.22287,-4.73463 -1.18766,-13.57536 0.90972,-7.76906 1.4273,-9.48093 3.48913,-11.54027 l 2.42095,-2.41803 -1.25694,9.66527 c -1.18449,9.10824 -0.77593,15.68199 1.31297,21.12558 0.25349,0.66059 -0.2084,1.19594 -1.03184,1.19594 -0.83683,0 -2.48028,-1.95336 -3.74661,-4.45313 z M 487.5,146.41319 c 0,-8.18384 6.96535,-45.13681 8.51162,-45.15634 0.29858,-0.004 1.52622,2.09264 2.7281,4.65869 l 2.18522,4.66556 -2.46845,5.88132 c -3.33513,7.94628 -7.3926,27.02746 -6.08278,28.60569 0.53948,0.65005 1.4814,1.18189 2.09315,1.18189 0.61175,0 1.93119,0.6194 2.93208,1.37644 1.66355,1.25823 1.31667,1.37898 -4.03956,1.40625 -5.81225,0.0295 -5.85938,0.008 -5.85938,-2.6195 z m 29.29687,1.1639 c -1.67578,-0.73286 -3.04687,-1.86644 -3.04687,-2.51907 0,-1.60651 -12.43094,-36.0358 -14.32675,-39.68 -2.20472,-4.23801 -0.48218,-9.75302 3.04624,-9.75302 3.08986,0 4.72386,3.380016 6.61227,13.67783 1.03162,5.62563 3.33192,15.47338 5.11176,21.88389 2.62682,9.46107 3.72809,12.05816 5.8494,13.7944 1.43733,1.17642 3.14067,2.15412 3.7852,2.17267 0.64454,0.0186 1.17188,0.45559 1.17188,0.97121 0,1.33188 -4.60858,1.02406 -8.20313,-0.54791 z M 120.18766,135.25927 c -2.16571,-1.40427 -3.93855,-2.9863 -3.93964,-3.51562 -10e-4,-0.52932 -2.55719,-4.75928 -5.68023,-9.3999 C 104.15191,112.81018 97.5,100.26998 97.5,97.708313 97.5,95.440041 99.294994,93.75 101.70412,93.75 c 2.44045,0 3.35868,1.55415 12.12951,20.52967 3.86143,8.35415 8.30511,16.81095 9.87483,18.79289 1.56972,1.98193 2.85404,3.85921 2.85404,4.17172 0,1.25648 -2.64679,0.43231 -6.37484,-1.98501 z m 27.49237,-7.52489 c -0.39922,-2.70241 -2.46823,-7.59878 -5.2627,-12.45435 -2.53266,-4.40067 -4.60483,-8.93859 -4.60483,-10.08427 0,-1.5575 1.69061,-3.16671 6.70077,-6.378141 9.31325,-5.969643 9.23673,-5.957765 9.23673,-1.43371 0,3.659691 -0.21369,3.942801 -4.6875,6.209841 -2.57813,1.30643 -4.6875,2.58969 -4.6875,2.8517 0,0.262 1.47656,3.40842 3.28125,6.99205 3.32288,6.59838 3.7271,8.89652 2.67952,15.23437 -0.79235,4.7937 -1.865,4.41505 -2.65574,-0.93749 z m 134.0625,0 c -0.39922,-2.70241 -2.46823,-7.59878 -5.2627,-12.45435 -2.53265,-4.40067 -4.60483,-8.93859 -4.60483,-10.08427 0,-1.5575 1.69061,-3.16671 6.70077,-6.378141 9.31325,-5.969643 9.23673,-5.957765 9.23673,-1.43371 0,3.659691 -0.21369,3.942801 -4.6875,6.209841 -2.57813,1.30643 -4.6875,2.58969 -4.6875,2.8517 0,0.262 1.47656,3.40842 3.28125,6.99205 3.32288,6.59838 3.7271,8.89652 2.67952,15.23437 -0.79235,4.7937 -1.865,4.41505 -2.65574,-0.93749 z m 127.5,0 c -0.39922,-2.70241 -2.46823,-7.59878 -5.2627,-12.45435 -2.53265,-4.40067 -4.60483,-8.93859 -4.60483,-10.08427 0,-1.5575 1.69061,-3.16671 6.70077,-6.378141 9.31325,-5.969643 9.23673,-5.957765 9.23673,-1.43371 0,3.659691 -0.21369,3.942801 -4.6875,6.209841 -2.57813,1.30643 -4.6875,2.58969 -4.6875,2.8517 0,0.262 1.47656,3.40842 3.28125,6.99205 3.32288,6.59838 3.7271,8.89652 2.67952,15.23437 -0.79235,4.7937 -1.865,4.41505 -2.65574,-0.93749 z M 187.5,124.65634 c 0,-1.47546 4.81042,-10.70589 5.7696,-11.07095 1.493,-0.56823 4.58558,-7.51086 3.61337,-8.11172 -0.50357,-0.31122 -3.05076,-1.19993 -5.66041,-1.97492 -5.39849,-1.60318 -7.46196,-4.390094 -5.695,-7.691669 1.83153,-3.422268 4.3913,-3.376088 10.77594,0.1944 3.27307,1.830413 6.681,4.442069 7.57317,5.803699 1.54346,2.35563 1.53805,2.66355 -0.11165,6.34993 -0.95357,2.13083 -4.63506,6.93326 -8.18108,10.67207 -6.20835,6.54587 -8.08394,7.89831 -8.08394,5.82916 z m 134.0625,0 c 0,-1.47546 4.81042,-10.70589 5.7696,-11.07095 1.493,-0.56823 4.58558,-7.51086 3.61337,-8.11172 -0.50357,-0.31122 -3.05076,-1.19993 -5.66041,-1.97492 -5.39849,-1.60318 -7.46196,-4.390094 -5.695,-7.691669 1.83153,-3.422268 4.3913,-3.376088 10.77594,0.1944 3.27307,1.830413 6.681,4.442069 7.57317,5.803699 1.54346,2.35563 1.53805,2.66355 -0.11165,6.34993 -0.95357,2.13083 -4.63506,6.93326 -8.18108,10.67207 -6.20835,6.54587 -8.08394,7.89831 -8.08394,5.82916 z m 127.5,0 c 0,-1.47546 4.81042,-10.70589 5.7696,-11.07095 1.493,-0.56823 4.58558,-7.51086 3.61337,-8.11172 -0.50357,-0.31122 -3.05076,-1.19993 -5.66041,-1.97492 -5.39849,-1.60318 -7.46196,-4.390094 -5.695,-7.691669 1.83153,-3.422268 4.3913,-3.376088 10.77594,0.1944 3.27307,1.830413 6.681,4.442069 7.57317,5.803699 1.54346,2.35563 1.53805,2.66355 -0.11165,6.34993 -0.95357,2.13083 -4.63506,6.93326 -8.18108,10.67207 -6.20835,6.54587 -8.08394,7.89831 -8.08394,5.82916 z m -203.43227,-9.57821 c 0.0136,-5.46915 2.02864,-9.12193 8.22619,-14.91171 3.4649,-3.236936 4.82327,-4.723239 3.01858,-3.302889 -4.29457,3.379969 -9.06923,5.500169 -11.58025,5.142239 -1.52142,-0.21688 -2.0135,-0.93986 -2.0135,-2.958342 0,-2.377228 0.7741,-3.070256 7.03125,-6.294823 9.97475,-5.140409 11.91275,-5.472327 13.13783,-2.250098 0.84377,2.219289 0.55525,3.25204 -2.09528,7.499787 -4.15912,6.665436 -13.88648,19.185206 -14.90614,19.185206 -0.45315,0 -0.82156,-0.94922 -0.81868,-2.10937 z m 127.5,0 c 0.0136,-5.46915 2.02864,-9.12193 8.22619,-14.91171 3.4649,-3.236936 4.82327,-4.723239 3.01858,-3.302889 -4.29457,3.379969 -9.06923,5.500169 -11.58025,5.142239 -1.52142,-0.21688 -2.0135,-0.93986 -2.0135,-2.958342 0,-2.377228 0.7741,-3.070256 7.03125,-6.294823 9.97475,-5.140409 11.91275,-5.472327 13.13783,-2.250098 0.84377,2.219289 0.55525,3.25204 -2.09528,7.499787 -4.15912,6.665436 -13.88648,19.185206 -14.90614,19.185206 -0.45315,0 -0.82156,-0.94922 -0.81868,-2.10937 z M 193.1643,108.98438 c -0.0392,-3.97622 0.4046,-4.56807 2.44962,-3.2667 0.78422,0.49904 0.60122,1.59344 -0.66382,3.97002 l -1.74651,3.28105 -0.0393,-3.98437 z m 134.0625,0 c -0.0392,-3.97622 0.4046,-4.56807 2.44962,-3.2667 0.78422,0.49904 0.60122,1.59344 -0.66382,3.97002 l -1.74651,3.28105 -0.0393,-3.98437 z m 127.5,0 c -0.0392,-3.97622 0.4046,-4.56807 2.44962,-3.2667 0.78422,0.49904 0.60122,1.59344 -0.66382,3.97002 l -1.74651,3.28105 -0.0393,-3.98437 z M 59.53125,88.125 c -0.870686,-1.408801 0.343139,-2.8125 2.432062,-2.8125 1.018962,0 2.887522,-0.678069 4.152357,-1.506821 l 2.299699,-1.506822 -1.863933,-2.369609 c -1.100526,-1.39909 -1.851723,-3.757717 -1.83412,-5.758803 0.02854,-3.24346 0.09222,-3.30857 1.481033,-1.514195 0.798169,1.03125 2.505345,3.930188 3.793725,6.442085 2.704406,5.27266 2.456903,5.768733 -4.125425,8.268629 C 60.68985,89.333053 60.306235,89.378953 59.53125,88.125 Z M 50.324067,73.718299 c -0.880819,-1.3443 -3.373603,-3.348247 -5.53952,-4.453215 C 39.886595,66.766335 32.8125,60.930151 32.8125,59.388052 c 0,-2.67726 2.209693,-2.147036 5.093671,1.222244 2.677791,3.128396 9.913269,7.320705 15.765704,9.134806 2.083967,0.645975 2.071053,1.703122 -0.05285,4.326028 l -1.693473,2.091349 -1.601488,-2.44418 z M 496.875,64.707183 C 489.21872,55.707588 485.84285,50.22892 485.69452,46.5625 c -0.12481,-3.085641 2.20788,-1.102129 5.1503,4.379345 3.42216,6.375164 9.8085,13.188489 14.75966,15.746456 2.97896,1.539057 3.52466,2.266781 3.28125,4.375762 -0.59595,5.163342 -3.53211,3.60933 -12.01073,-6.35688 z m -244.60584,5.38399 c -0.9506,-2.880341 -0.86804,-4.136419 0.52113,-7.928734 1.93538,-5.283379 2.15111,-18.45597 0.35715,-21.807998 -0.93272,-1.742821 -0.91068,-2.309274 0.11514,-2.959311 2.18285,-1.383211 2.45547,-0.987527 3.51619,5.103538 1.45847,8.375243 1.25716,12.055946 -1.21147,22.148816 l -2.16861,8.866233 -1.12953,-3.422544 z m 127.5,0 c -0.9506,-2.880341 -0.86804,-4.136419 0.52113,-7.928734 1.93538,-5.283379 2.15111,-18.45597 0.35715,-21.807998 -0.93272,-1.742821 -0.91068,-2.309274 0.11514,-2.959311 2.18285,-1.383211 2.45547,-0.987527 3.51619,5.103538 1.45847,8.375243 1.25716,12.055946 -1.21147,22.148816 l -2.16861,8.866233 -1.12953,-3.422544 z M 58.125,67.176551 c 0,-3.340606 2.320825,-6.239051 4.995695,-6.239051 2.505519,0 2.108792,6.076558 -0.516794,7.91559 C 59.353442,71.129799 58.125,70.66997 58.125,67.176551 Z m 97.63237,2.300098 c -0.91513,-0.57983 -1.09596,-1.860204 -0.64213,-4.546422 0.80451,-4.761843 -1.03452,-21.722217 -2.81826,-25.991309 -1.55289,-3.716587 -1.79501,-8.001418 -0.45211,-8.001418 1.15889,0 5.28946,13.605999 6.54604,21.5625 0.52931,3.351562 1.38915,7.567527 1.91074,9.368811 1.26918,4.383033 1.20458,5.241033 -0.52487,6.970474 -1.67901,1.679018 -2.23601,1.767342 -4.01941,0.637364 z m 33.3102,-0.488063 c -0.27942,-0.728153 -1.02587,-4.706662 -1.65879,-8.84113 -1.02566,-6.70005 -0.96925,-8.008375 0.51892,-12.03546 3.01361,-8.155062 6.37596,-15.299496 7.20032,-15.299496 1.35092,0 0.90406,2.849125 -1.98476,12.654556 -2.68671,9.119448 -2.7237,9.519226 -1.36536,14.761191 1.26723,4.890449 1.25408,5.604679 -0.14246,7.736069 -1.79213,2.735148 -1.89552,2.776387 -2.56786,1.02427 z m 13.65721,-0.900872 c -0.73411,-1.611203 -0.73077,-2.519227 0.012,-3.262006 1.05363,-1.053629 2.07197,-14.159419 1.85009,-23.810083 -0.0682,-2.964844 0.19378,-5.390625 0.58209,-5.390625 1.82716,0 2.95601,2.667402 2.95581,6.984375 -2.1e-4,4.548133 -3.22358,26.551922 -4.00395,27.332287 -0.20831,0.208319 -0.83654,-0.625957 -1.39605,-1.853948 z m 37.86349,0.63352 c -0.2788,-0.929492 -0.99185,-4.545955 -1.58455,-8.036587 -0.83956,-4.944515 -0.82319,-6.653188 0.0742,-7.734375 2.16317,-2.606457 2.72672,-1.388897 2.16104,4.668916 -0.43852,4.695942 -0.22777,6.572264 0.93805,8.351524 1.27049,1.939018 1.3032,2.461182 0.21095,3.367671 -1.00796,0.836527 -1.40434,0.70059 -1.7996,-0.617149 z m 49.26544,0.776327 c -0.86129,-0.546082 -1.04836,-1.807996 -0.61247,-4.131477 0.82075,-4.37498 -1.11878,-22.207772 -2.87165,-26.402961 -1.56153,-3.73728 -1.80852,-8.025623 -0.46222,-8.025623 1.15889,0 5.28946,13.605999 6.54604,21.5625 0.52931,3.351562 1.38915,7.567527 1.91074,9.368811 1.26918,4.383033 1.20458,5.241033 -0.52487,6.970474 -1.6727,1.672705 -2.23828,1.766118 -3.98557,0.658276 z m 33.27636,-0.508975 c -0.27942,-0.728154 -1.02587,-4.706662 -1.65879,-8.84113 -1.02566,-6.70005 -0.96925,-8.008375 0.51892,-12.03546 3.01361,-8.155062 6.37596,-15.299496 7.20032,-15.299496 1.35092,0 0.90406,2.849125 -1.98476,12.654556 -2.68671,9.119448 -2.7237,9.519226 -1.36536,14.761191 1.26723,4.890449 1.25408,5.604679 -0.14246,7.736069 -1.79213,2.735148 -1.89552,2.776387 -2.56787,1.02427 z m 13.65721,-0.900872 c -0.73411,-1.611203 -0.73077,-2.519227 0.012,-3.262006 1.05363,-1.053629 2.07197,-14.159419 1.85009,-23.810083 -0.0682,-2.964844 0.19378,-5.390625 0.58209,-5.390625 1.82716,0 2.95601,2.667402 2.95581,6.984375 -2.1e-4,4.548133 -3.22358,26.551922 -4.00394,27.332287 -0.20832,0.208319 -0.83655,-0.625957 -1.39606,-1.853948 z m 31.30099,0.63352 c -0.2788,-0.929492 -0.99185,-4.545955 -1.58455,-8.036587 -0.83956,-4.944515 -0.82319,-6.653188 0.0742,-7.734375 2.16317,-2.606457 2.72672,-1.388897 2.16104,4.668916 -0.43852,4.695942 -0.22777,6.572264 0.93805,8.351524 1.27049,1.939018 1.3032,2.461182 0.21095,3.367671 -1.00796,0.836527 -1.40434,0.70059 -1.7996,-0.617149 z m 49.26544,0.776327 c -0.86129,-0.546082 -1.04836,-1.807996 -0.61247,-4.131477 0.82075,-4.37498 -1.11878,-22.207772 -2.87165,-26.402961 -1.56153,-3.73728 -1.80852,-8.025623 -0.46222,-8.025623 1.15889,0 5.28946,13.605999 6.54604,21.5625 0.52931,3.351562 1.38915,7.567527 1.91074,9.368811 1.26918,4.383033 1.20458,5.241033 -0.52487,6.970474 -1.6727,1.672705 -2.23828,1.766118 -3.98557,0.658276 z m 33.27637,-0.508975 c -0.27943,-0.728154 -1.02588,-4.706662 -1.6588,-8.84113 -1.02566,-6.70005 -0.96925,-8.008375 0.51892,-12.03546 3.01361,-8.155062 6.37596,-15.299496 7.20032,-15.299496 1.35092,0 0.90406,2.849125 -1.98476,12.654556 -2.68671,9.119448 -2.7237,9.519226 -1.36536,14.761191 1.26723,4.890449 1.25408,5.604679 -0.14246,7.736069 -1.79213,2.735148 -1.89552,2.776387 -2.56787,1.02427 z m 13.6572,-0.900872 c -0.7341,-1.611203 -0.73077,-2.519227 0.012,-3.262006 1.05363,-1.053629 2.07197,-14.159419 1.85009,-23.810083 -0.0682,-2.964844 0.19378,-5.390625 0.58209,-5.390625 1.82716,0 2.95601,2.667402 2.95581,6.984375 -2.1e-4,4.548133 -3.22358,26.551922 -4.00394,27.332287 -0.20832,0.208319 -0.83655,-0.625957 -1.39605,-1.853948 z M 88.828125,62.906704 C 86.894531,59.35604 85.3125,55.457957 85.3125,54.244297 85.3125,50.365773 90.053895,37.5 91.483239,37.5 c 1.704052,0 1.692042,0.199454 -0.590764,9.811289 l -1.920025,8.084333 2.907822,5.082342 c 2.374187,4.14965 2.72049,5.43237 1.887044,6.989688 -0.561434,1.049041 -1.111411,1.904526 -1.222176,1.901076 -0.110765,-0.0034 -1.783421,-2.91136 -3.717015,-6.462024 z m 17.462645,3.998215 c -0.43825,-1.746107 0.14338,-4.013032 1.98441,-7.734375 3.48485,-7.044053 5.14232,-13.567335 4.48168,-17.638434 -0.42378,-2.611444 -0.25427,-3.250971 0.77193,-2.912364 0.85641,0.28258 1.41558,2.176725 1.60351,5.431689 0.22462,3.890229 -0.50233,7.250025 -3.28026,15.160684 -1.96286,5.589584 -3.87764,10.162881 -4.25507,10.162881 -0.37744,0 -0.96522,-1.111537 -1.3062,-2.470081 z m 401.1311,-0.963307 c -1.49501,-0.603249 -1.52907,-6.146917 -0.0469,-7.629112 0.61875,-0.61875 2.09531,-1.125 3.28125,-1.125 1.92278,0 2.15625,0.445937 2.15625,4.118448 0,4.677844 -1.68821,6.12962 -5.39063,4.635664 z m -312.1875,-0.9375 c -0.65907,-0.26594 -1.17187,-2.08845 -1.17187,-4.164836 0,-3.028337 0.42129,-3.883927 2.34375,-4.759858 1.76849,-0.805779 2.94345,-0.794642 4.78709,0.04537 2.20211,1.003347 2.37883,1.457164 1.78989,4.596468 -0.3594,1.915763 -0.85098,3.802825 -1.09242,4.193471 -0.48228,0.780359 -4.80032,0.838338 -6.65643,0.08938 z m 134.0625,0 c -0.65907,-0.26594 -1.17187,-2.08845 -1.17187,-4.164836 0,-3.028337 0.42129,-3.883927 2.34375,-4.759858 1.76849,-0.805779 2.94345,-0.794642 4.78709,0.04537 2.20211,1.003347 2.37883,1.457164 1.78989,4.596468 -0.3594,1.915763 -0.85098,3.802825 -1.09242,4.193471 -0.48229,0.780359 -4.80032,0.838338 -6.65644,0.08938 z m 127.5,0 c -0.65907,-0.26594 -1.17187,-2.08845 -1.17187,-4.164836 0,-3.028337 0.42129,-3.883927 2.34375,-4.759858 1.76849,-0.805779 2.94345,-0.794642 4.78709,0.04537 2.20211,1.003347 2.37883,1.457164 1.78989,4.596468 -0.3594,1.915763 -0.85098,3.802825 -1.09242,4.193471 -0.48229,0.780359 -4.80032,0.838338 -6.65644,0.08938 z M 151.1461,63.22809 c -1.55414,-1.088562 -2.0836,-2.398807 -2.0836,-5.15625 0,-3.838253 0.74215,-4.369092 3.81163,-2.726355 1.37715,0.737029 1.81337,1.977397 1.81337,5.15625 0,4.577946 -0.42774,4.907245 -3.5414,2.726355 z m -46.9758,-0.88434 c 0.0435,-1.03125 0.41687,-2.929688 0.8297,-4.21875 0.73555,-2.296753 0.75218,-2.287355 0.8297,0.46875 0.0435,1.546875 -0.32986,3.445312 -0.8297,4.21875 -0.74868,1.158498 -0.89485,1.075913 -0.8297,-0.46875 z m 180.59532,0.393657 C 282.93635,61.67195 282.37658,54.375 284.12413,54.375 c 2.94339,0 4.62587,2.057873 4.62587,5.657985 0,3.867517 -0.91785,4.490512 -3.98438,2.704422 z m 127.5,0 C 410.43635,61.67195 409.87658,54.375 411.62413,54.375 c 2.94339,0 4.62587,2.057873 4.62587,5.657985 0,3.867517 -0.91785,4.490512 -3.98438,2.704422 z M 239.40658,47.109375 c 0.27118,-1.417969 0.76366,-4.371094 1.09439,-6.5625 0.62386,-4.133601 1.68401,-5.096894 2.69885,-2.452272 0.66077,1.721925 -0.19277,7.456848 -1.4812,9.952272 -1.32871,2.573434 -2.8644,1.950732 -2.31204,-0.9375 z m 127.5,0 c 0.27118,-1.417969 0.76366,-4.371094 1.09439,-6.5625 0.62386,-4.133601 1.68401,-5.096894 2.69885,-2.452272 0.66077,1.721925 -0.19277,7.456848 -1.4812,9.952272 -1.32871,2.573434 -2.8644,1.950732 -2.31204,-0.9375 z"
       id="path3446"
       inkscape:connector-curvature="0" />
    <path
       style="fill:#007f7f"
       d="m 496.4932,100.188 c -0.39234,-0.893728 0.28766,-3.819741 1.63404,-7.031245 1.49669,-3.570045 2.54439,-8.395252 2.98526,-13.748575 0.6279,-7.624419 0.78376,-8.098865 2.0614,-6.274783 1.75235,2.501828 5.01468,2.119235 6.44227,-0.755524 1.06035,-2.135244 1.07416,-2.129341 1.64023,0.700997 0.63658,3.182899 -0.50428,10.29501 -2.78954,17.38988 -1.71285,5.317781 -2.66265,6.710306 -3.57263,5.237934 -1.63605,-2.647193 -6.39084,0.04425 -7.3086,4.137066 -0.36227,1.61555 -0.51345,1.66318 -1.09243,0.34425 z M 57.982616,98.503284 C 57.467038,94.999322 54.870135,93.915272 51.544544,95.815772 50.007545,96.694134 48.75,97.256456 48.75,97.065375 c 0,-0.191091 0.876774,-2.386313 1.948387,-4.878277 1.536058,-3.572005 1.818946,-5.57592 1.336738,-9.469154 -0.54688,-4.415372 -0.3561,-5.242008 1.801613,-7.806305 C 55.164032,73.33424 56.25,71.722046 56.25,71.328986 c 0,-0.39306 1.579292,-0.659811 3.509537,-0.592781 3.456651,0.120037 3.519276,0.189968 4.155935,4.640768 0.713875,4.990603 -0.342192,8.998027 -2.371226,8.998027 -0.723064,0 -1.846417,0.640726 -2.49634,1.423836 -0.963352,1.160767 -0.897954,1.737347 0.353958,3.120693 1.852536,2.04703 1.937441,6.328484 0.188157,9.488009 l -1.281039,2.313792 -0.326366,-2.218046 z m 182.251754,0.742988 c -1.58748,-1.603603 -1.47309,-4.069397 0.3526,-7.599882 1.20245,-2.325284 1.4285,-4.782642 1.07016,-11.633408 -0.41624,-7.957714 -0.28868,-8.835739 1.52241,-10.479662 1.08719,-0.986838 3.10427,-1.994247 4.4824,-2.238685 2.21874,-0.393534 2.67414,-0.0034 3.97645,3.406672 1.33164,3.486843 1.33387,4.648184 0.0235,12.278025 -1.46229,8.514911 -1.77555,9.058833 -6.82759,11.854924 -1.5433,0.854156 -2.94598,2.462635 -3.11706,3.574397 -0.24992,1.624057 -0.54141,1.788707 -1.48294,0.837619 z m 127.5,0 c -1.58748,-1.603603 -1.47309,-4.069397 0.3526,-7.599882 1.20245,-2.325284 1.4285,-4.782642 1.07016,-11.633408 -0.41624,-7.957714 -0.28868,-8.835739 1.52241,-10.479662 1.08719,-0.986838 3.10427,-1.994247 4.4824,-2.238685 2.21874,-0.393534 2.67414,-0.0034 3.97645,3.406672 1.33164,3.486843 1.33387,4.648184 0.0235,12.278025 -1.46229,8.514911 -1.77555,9.058833 -6.82759,11.854924 -1.5433,0.854156 -2.94598,2.462635 -3.11706,3.574397 -0.24992,1.624057 -0.54141,1.788707 -1.48294,0.837619 z M 94.749319,97.105734 c -1.116313,-1.345068 -0.934181,-7.483373 0.2574,-8.674951 0.219665,-0.21967 2.558025,-0.113048 5.196341,0.236938 4.14844,0.55031 4.79694,0.919286 4.79694,2.729303 0,1.728253 -0.40935,2.014714 -2.34914,1.6439 -2.56089,-0.489545 -4.990135,1.04876 -6.010041,3.805826 -0.589031,1.592297 -0.764963,1.616391 -1.8915,0.258984 z M 195.46875,94.621575 c -2.57813,-1.531173 -5.39509,-2.612128 -6.25991,-2.402121 -1.35702,0.329528 -1.42612,0.06077 -0.50447,-1.96204 1.00654,-2.209109 1.36439,-2.309029 6.22406,-1.737869 2.83587,0.3333 5.4822,1.119159 5.88074,1.746352 0.93282,1.468013 0.9732,7.248878 0.0503,7.186872 -0.38672,-0.02597 -2.8125,-1.300013 -5.39062,-2.831194 z m 134.0625,0 c -2.57813,-1.531173 -5.39509,-2.612128 -6.25991,-2.402121 -1.35701,0.329528 -1.42612,0.06077 -0.50447,-1.96204 1.00654,-2.209109 1.36439,-2.309029 6.22406,-1.737869 2.83587,0.3333 5.4822,1.119159 5.88074,1.746352 0.93282,1.468013 0.9732,7.248878 0.0502,7.186872 -0.38672,-0.02597 -2.8125,-1.300013 -5.39063,-2.831194 z m 127.5,0 c -2.57813,-1.531173 -5.39509,-2.612128 -6.25991,-2.402121 -1.35701,0.329528 -1.42612,0.06077 -0.50447,-1.96204 1.00654,-2.209109 1.36439,-2.309029 6.22406,-1.737869 2.83587,0.3333 5.4822,1.119159 5.88074,1.746352 0.93282,1.468013 0.9732,7.248878 0.0502,7.186872 -0.38672,-0.02597 -2.8125,-1.300013 -5.39063,-2.831194 z M 162.30709,93.427243 c -1.45534,-1.75572 -4.86919,-2.052647 -6.36796,-0.553867 -2.20827,2.208268 -5.16841,-20.754661 -3.27087,-25.373376 0.92094,-2.241637 0.96548,-2.253286 1.02231,-0.26736 0.11522,4.02572 6.3235,4.799046 7.87734,0.981228 0.26473,-0.65044 0.24577,1.41218 -0.0421,4.5836 -0.353,3.88884 0.002,7.909194 1.08957,12.348195 0.88715,3.620088 1.47021,7.313643 1.29569,8.2079 -0.29434,1.508274 -0.4104,1.513609 -1.60396,0.07368 z m 134.0625,0 c -1.4613,-1.762919 -4.87102,-2.050816 -6.3829,-0.538936 -1.56917,1.569168 -3.34065,-7.360233 -3.46946,-17.488259 -0.0718,-5.646254 0.28409,-9.124017 1.00844,-9.854205 0.86934,-0.876336 0.9938,-0.648056 0.55712,1.021802 -0.38636,1.477473 -0.0205,2.546363 1.16914,3.416297 2.29361,1.677129 2.90837,1.605761 5.10702,-0.59289 1.8536,-1.853598 1.85729,-1.843073 1.28243,3.656843 -0.39579,3.786772 -0.0709,7.579026 1.03649,12.097768 0.88714,3.620088 1.4702,7.313643 1.29569,8.2079 -0.29435,1.508274 -0.41041,1.513609 -1.60397,0.07368 z m 127.5,0 c -1.4613,-1.762919 -4.87102,-2.050816 -6.3829,-0.538936 -1.56917,1.569168 -3.34065,-7.360233 -3.46946,-17.488259 -0.0718,-5.646254 0.28409,-9.124017 1.00844,-9.854205 0.86934,-0.876336 0.9938,-0.648056 0.55712,1.021802 -0.38636,1.477473 -0.0205,2.546363 1.16914,3.416297 2.29361,1.677129 2.90837,1.605761 5.10702,-0.59289 1.8536,-1.853598 1.85729,-1.843073 1.28243,3.656843 -0.39579,3.786772 -0.0709,7.579026 1.03649,12.097768 0.88714,3.620088 1.4702,7.313643 1.29569,8.2079 -0.29435,1.508274 -0.41041,1.513609 -1.60397,0.07368 z M 97.265625,86.516012 c -2.269894,-0.343861 -2.580863,-0.803421 -2.601047,-3.843908 -0.01256,-1.899345 -0.433734,-5.233564 -0.935849,-7.409377 -0.72882,-3.158201 -0.594647,-4.62348 0.665305,-7.265625 1.466363,-3.074993 1.8816,-3.309353 5.857726,-3.306088 4.15389,0.0034 4.32699,0.120344 5.89817,3.984375 1.36168,3.348813 1.47149,5.002757 0.69162,10.417116 -0.50988,3.53994 -1.15771,6.809472 -1.43962,7.265625 -0.5142,0.831973 -3.32627,0.886541 -8.136305,0.157882 z m 96.668725,0.01025 c -2.30187,-0.354144 -2.54389,-0.864396 -3.51864,-7.418126 -1.02888,-6.917668 -1.0042,-7.093604 1.44528,-10.30504 1.5077,-1.976705 3.02039,-3.064466 3.82969,-2.753907 0.73572,0.282324 2.30668,0.513314 3.49101,0.513314 3.66696,0 4.55299,3.906976 2.87486,12.67674 -0.78718,4.11373 -1.4313,7.584979 -1.43139,7.713885 -2e-4,0.293442 -3.43209,0.07449 -6.69081,-0.426863 z m 134.0625,0 c -2.30187,-0.354144 -2.54389,-0.864396 -3.51864,-7.418126 -1.02888,-6.917668 -1.0042,-7.093604 1.44528,-10.30504 1.5077,-1.976705 3.02039,-3.064466 3.82969,-2.753907 0.73572,0.282324 2.30668,0.513314 3.49101,0.513314 3.66696,0 4.55299,3.906976 2.87486,12.67674 -0.78718,4.11373 -1.4313,7.584979 -1.43139,7.713885 -2e-4,0.293442 -3.43208,0.07449 -6.69081,-0.426863 z m 127.5,0 c -2.30187,-0.354144 -2.54389,-0.864396 -3.51864,-7.418126 -1.02888,-6.917668 -1.0042,-7.093604 1.44528,-10.30504 1.5077,-1.976705 3.02039,-3.064466 3.82969,-2.753907 0.73572,0.282324 2.30668,0.513314 3.49101,0.513314 3.66696,0 4.55299,3.906976 2.87486,12.67674 -0.78718,4.11373 -1.4313,7.584979 -1.43139,7.713885 -2e-4,0.293442 -3.43208,0.07449 -6.69081,-0.426863 z"
       id="path3442"
       inkscape:connector-curvature="0" />
    <path
       style="fill:#fe0000"
       d="m 96.5625,88.190767 c -6.737978,-1.347305 -9.924919,-4.579546 -8.827307,-8.95278 0.819508,-3.265183 2.555412,-3.007809 1.83503,0.272071 -1.037103,4.7219 5.102614,7.604128 16.305667,7.654524 8.46358,0.03807 16.02363,-4.844139 14.57393,-9.411715 -0.64797,-2.041582 -4.19982,-4.397616 -4.19982,-2.785852 0,1.815063 -1.57013,0.979055 -2.66201,-1.417377 -1.48933,-3.268713 -1.51149,-3.237138 2.27138,-3.237138 2.24178,0 3.2315,0.383638 2.97499,1.153173 -0.21142,0.634244 0.36825,1.7944 1.28815,2.578125 0.9199,0.783724 1.9518,2.603442 2.29312,4.04382 0.53146,2.242756 0.0607,3.135811 -3.27836,6.218355 -2.14442,1.979718 -5.20062,3.859821 -6.79154,4.178007 -3.60315,0.720629 -11.44114,0.575018 -15.78323,-0.293212 z m 96.5625,0 c -6.73798,-1.347305 -9.92492,-4.579546 -8.8273,-8.95278 0.8195,-3.265183 2.55541,-3.007809 1.83502,0.272071 -1.0371,4.7219 5.10262,7.604128 16.30567,7.654524 8.46358,0.03807 16.02363,-4.844139 14.57393,-9.411715 -0.64797,-2.041582 -4.19982,-4.397616 -4.19982,-2.785852 0,1.815063 -1.57013,0.979055 -2.66201,-1.417377 -1.48933,-3.268713 -1.51149,-3.237138 2.27138,-3.237138 2.24178,0 3.2315,0.383638 2.97499,1.153173 -0.21142,0.634244 0.36825,1.7944 1.28815,2.578125 0.9199,0.783724 1.9518,2.603442 2.29312,4.04382 0.53146,2.242756 0.0607,3.135811 -3.27836,6.218355 -2.14442,1.979718 -5.20062,3.859821 -6.79155,4.178007 -3.60314,0.720629 -11.44113,0.575018 -15.78322,-0.293212 z m 134.0625,0 c -6.73798,-1.347305 -9.92492,-4.579546 -8.8273,-8.95278 0.8195,-3.265183 2.55541,-3.007809 1.83502,0.272071 -1.0371,4.7219 5.10262,7.604128 16.30567,7.654524 8.46358,0.03807 16.02363,-4.844139 14.57393,-9.411715 -0.64797,-2.041582 -4.19982,-4.397616 -4.19982,-2.785852 0,1.815063 -1.57013,0.979055 -2.66201,-1.417377 -1.48933,-3.268713 -1.51149,-3.237138 2.27138,-3.237138 2.24178,0 3.2315,0.383638 2.97499,1.153173 -0.21142,0.634244 0.36825,1.7944 1.28815,2.578125 0.9199,0.783724 1.9518,2.603442 2.29312,4.04382 0.53146,2.242756 0.0606,3.135811 -3.27836,6.218355 -2.14442,1.979718 -5.20062,3.859821 -6.79154,4.178007 -3.60315,0.720629 -11.44114,0.575018 -15.78323,-0.293212 z m 127.5,0 c -6.73798,-1.347305 -9.92492,-4.579546 -8.8273,-8.95278 0.8195,-3.265183 2.55541,-3.007809 1.83502,0.272071 -1.0371,4.7219 5.10262,7.604128 16.30567,7.654524 8.46358,0.03807 16.02363,-4.844139 14.57393,-9.411715 -0.64797,-2.041582 -4.19982,-4.397616 -4.19982,-2.785852 0,1.815063 -1.57013,0.979055 -2.66201,-1.417377 -1.48933,-3.268713 -1.51149,-3.237138 2.27138,-3.237138 2.24178,0 3.2315,0.383638 2.97499,1.153173 -0.21142,0.634244 0.36825,1.7944 1.28815,2.578125 0.9199,0.783724 1.9518,2.603442 2.29312,4.04382 0.53146,2.242756 0.0606,3.135811 -3.27836,6.218355 -2.14442,1.979718 -5.20062,3.859821 -6.79154,4.178007 -3.60315,0.720629 -11.44114,0.575018 -15.78323,-0.293212 z"
       id="path3440"
       inkscape:connector-curvature="0" />
    <path
       style="fill:#000000"
       d="m 22.96875,216.7807 7.5,-0.33765 L 41.412936,200.27457 52.357122,184.10609 42.03223,172.44367 C 28.821756,157.52185 28.79684,157.5 24.997742,157.5 c -3.84637,0 -5.552362,-1.76912 -5.143609,-5.33393 0.301012,-2.62517 0.330424,-2.63581 8.036492,-2.90711 4.253906,-0.14976 7.724062,-0.57164 7.711457,-0.9375 -0.01261,-0.36587 -0.432096,-2.43811 -0.9322,-4.60498 -0.759643,-3.2914 -0.610511,-4.44853 0.906195,-7.03125 0.998513,-1.70031 3.719498,-10.05242 6.046633,-18.56023 2.327135,-8.50781 5.403926,-18.421875 6.837313,-22.03125 2.144604,-5.400272 2.566539,-7.778183 2.38245,-13.426833 C 50.570649,74.326206 49.808296,72.76551 44.743887,70.181841 39.888125,67.704616 31.875,61.052866 31.875,59.499289 c 0,-0.629588 0.681177,-1.710032 1.513726,-2.400987 1.314796,-1.091183 1.886545,-0.791551 4.350621,2.27999 2.724724,3.396445 9.578473,7.572978 14.960205,9.116439 2.527942,0.725004 2.541667,0.705512 1.077147,-1.529629 -0.904755,-1.38083 -1.333683,-3.546629 -1.099562,-5.552047 0.414141,-3.547422 -0.66489,-4.170293 -3.815671,-2.202598 -1.923653,1.201341 -4.798966,0.508519 -4.798966,-1.156336 0,-0.600437 0.667046,-0.811255 1.525076,-0.481999 0.838793,0.321875 1.998949,0.197577 2.578125,-0.276219 0.579177,-0.473795 3.856312,-1.158279 7.282523,-1.521076 5.580723,-0.590934 6.435014,-0.454089 8.203125,1.314022 2.421677,2.421677 2.760753,9.52833 0.542461,11.36935 -1.259038,1.044908 -1.18388,1.312445 0.62483,2.224166 1.130813,0.570012 3.518841,3.707013 5.306729,6.971114 3.000483,5.4779 3.133455,6.051982 1.727466,7.457972 -0.837784,0.837784 -3.320058,2.184621 -5.516164,2.992972 -3.73781,1.375827 -4.01118,1.719661 -4.278705,5.381576 -0.199279,2.72777 0.913135,7.403521 3.675083,15.447301 l 3.960866,11.53545 -2.144006,10.63016 c -1.179204,5.84659 -2.343889,11.39452 -2.588189,12.32873 -0.33825,1.29347 0.261941,1.85364 2.516645,2.34886 1.628456,0.35766 3.188396,1.24334 3.466533,1.96816 0.402065,1.04776 3.27433,1.31784 14.014947,1.31784 l 13.509239,0 -2.281987,-4.50329 C 94.00995,140.26283 93.875634,138.95989 93.263559,116.19983 92.835723,100.29073 92.94854,91.562996 93.602225,90 c 0.815444,-1.949771 0.893387,-1.628478 0.463712,1.911352 -0.391519,3.225398 -0.15194,4.55767 0.990029,5.505417 1.267312,1.051781 1.506534,1.031859 1.506534,-0.125428 0,-2.298169 3.46016,-4.752829 6.01207,-4.265 1.93412,0.369729 2.39155,0.03255 2.70489,-1.993805 0.29253,-1.89179 0.40861,-1.68607 0.51757,0.917204 0.17243,4.119635 14.85424,36.07911 18.94992,41.25033 2.79063,3.52344 2.97856,5.54993 0.5147,5.54993 -1.78657,0 -9.94717,-5.63995 -9.96241,-6.88523 -0.007,-0.59594 -3.13366,-5.81587 -6.94748,-11.59985 l -6.93422,-10.51632 -0.65655,4.77368 c -0.75316,5.47615 0.12344,22.35375 1.53834,29.61834 l 0.95861,4.92188 25.61314,0 25.61315,0 0.51797,-2.10938 c 1.50981,-6.14854 1.67812,-13.39211 0.64159,-27.61044 -0.63147,-8.66191 -1.33885,-16.0622 -1.57196,-16.44508 -0.32928,-0.54082 -7.12508,2.25172 -8.58512,3.52781 -0.162,0.14158 1.20909,3.24327 3.04687,6.89261 2.22663,4.42149 3.30442,7.8159 3.2305,10.17421 -0.31731,10.12417 -3.35321,12.52332 -5.0715,4.00777 -0.59593,-2.95337 -2.91534,-8.35207 -5.429,-12.63665 -2.41372,-4.11422 -4.38858,-8.43579 -4.38858,-9.60349 0,-2.24276 3.21098,-4.93681 12.04225,-10.10361 3.32472,-1.945152 4.64184,-3.246174 4.27094,-4.21875 -1.35957,-3.565096 -2.51654,-19.846306 -1.6183,-22.773057 0.83128,-2.708533 0.68456,-3.262128 -1.25162,-4.722587 C 147.35819,61.209058 147.16574,53.459259 150,50.625 c 1.03125,-1.03125 2.28633,-1.875 2.78906,-1.875 1.09486,0 0.37918,-4.701881 -1.46553,-9.628346 -1.58065,-4.22126 -1.70707,-7.836458 -0.30435,-8.703389 1.72339,-1.065112 2.84512,0.957064 5.5746,10.049516 1.80797,6.022693 3.01637,8.637947 3.87598,8.388449 3.50562,-1.017504 5.16125,-0.933621 6.80555,0.344809 2.25081,1.749985 1.36439,2.870134 -1.1896,1.503279 -3.61917,-1.93692 -4.38702,-0.586752 -4.09449,7.199611 0.14986,3.988777 0.23614,10.492362 0.19173,14.452413 -0.0444,3.960051 0.59026,9.789619 1.4104,12.954595 1.29953,5.015059 1.35284,7.764111 0.41486,21.393663 -0.59195,8.60153 -0.80148,19.22509 -0.46563,23.6079 0.58948,7.69262 0.50918,8.15554 -2.31763,13.35938 l -2.92828,5.39062 18.36746,0 18.36745,0 -2.30731,-4.55326 c -2.10381,-4.15168 -2.23089,-5.08188 -1.44089,-10.54687 0.47654,-3.2965 0.8749,-7.00822 0.88527,-8.2483 0.0185,-2.20421 -0.0236,-2.21624 -1.8783,-0.53778 -1.46327,1.32425 -2.15147,1.46259 -3.00919,0.60487 -0.85771,-0.85771 -0.42384,-2.50763 1.89715,-7.21434 1.85629,-3.76435 3.00919,-7.52743 3.00919,-9.82199 0,-3.36446 -0.31314,-3.8505 -3.27915,-5.08979 -1.80353,-0.75356 -3.75339,-2.41096 -4.33302,-3.683106 -0.90294,-1.981706 -0.62483,-3.062887 1.9417,-7.548712 1.64756,-2.879647 3.1904,-5.235722 3.4285,-5.235722 0.23812,0 -0.038,0.879882 -0.61351,1.955293 -0.57554,1.075412 -0.90678,2.024631 -0.7361,2.109375 0.17068,0.08475 2.8062,1.419707 5.8567,2.966582 3.0505,1.546875 5.95929,2.973497 6.46396,3.170278 0.56151,0.218934 0.72213,-1.376306 0.41392,-4.110803 -0.30794,-2.73199 -0.18414,-3.964032 0.31855,-3.170278 0.45223,0.714066 0.83808,2.985803 0.85744,5.048303 0.0212,2.252588 0.76727,4.685887 1.86851,6.09375 2.44977,3.13185 2.39898,3.46576 -1.50565,9.8989 -2.86776,4.72483 -3.58108,7.06327 -4.70183,15.4136 -1.28057,9.54121 -1.20807,11.51975 0.69565,18.98437 l 0.8966,3.51563 23.03291,0 c 21.56443,0 22.99053,-0.1046 22.36799,-1.64063 -1.83467,-4.52671 -2.32049,-7.67576 -3.7242,-24.14062 -0.83524,-9.79687 -1.96475,-20.17657 -2.51004,-23.06599 -0.82305,-4.361294 -0.73646,-5.746507 0.50982,-8.156563 0.91932,-1.777755 1.50125,-5.236198 1.50125,-8.921959 0,-7.559178 -3.49612,-28.025425 -4.93983,-28.917684 -0.77207,-0.477164 -0.63797,-1.15482 0.47099,-2.380206 0.8527,-0.942217 2.01567,-4.625904 2.58439,-8.185971 1.10213,-6.898993 1.50209,-8.027877 2.84429,-8.027877 1.9713,0 2.91541,3.874697 1.9953,8.188812 -0.76026,3.56459 -0.64794,4.701983 0.63944,6.47567 0.85892,1.183378 2.21932,2.164853 3.02311,2.181057 0.80379,0.0162 2.28036,0.648856 3.28125,1.405896 1.00089,0.757038 2.19072,1.389851 2.64407,1.40625 1.06228,0.03843 -0.19563,-12.91971 -1.48873,-15.335892 -0.7706,-1.439878 -0.61249,-2.097735 0.74224,-3.088337 2.64735,-1.935791 3.5796,-1.060888 4.7537,4.461292 1.61347,7.588592 1.46529,13.343696 -0.54936,21.336552 -1.69589,6.728201 -3.79056,16.763582 -5.15269,24.685973 l -0.59077,3.436024 4.85139,-1.843382 c 5.57147,-2.116991 7.04864,-1.833019 8.35631,1.606423 0.78384,2.06168 0.4666,3.252884 -1.9414,7.289646 -1.5831,2.653896 -5.1368,7.667406 -7.8971,11.141146 -4.95569,6.23653 -5.02719,6.41737 -5.69168,14.39429 -0.766,9.19585 -0.19193,19.32306 1.31049,23.11796 l 1.02068,2.57812 18.67157,0 c 21.25396,0 19.02756,0.99535 20.34338,-9.09482 0.59345,-4.55087 -1.14849,-35.53322 -2.08422,-37.07008 -0.32927,-0.54082 -7.12507,2.25173 -8.58511,3.52781 -0.162,0.14158 1.20909,3.24327 3.04687,6.89261 2.22663,4.42149 3.30442,7.8159 3.2305,10.17421 -0.31731,10.12417 -3.35321,12.52332 -5.0715,4.00777 -0.59593,-2.95337 -2.91534,-8.35207 -5.429,-12.63665 -2.41372,-4.11422 -4.38858,-8.43579 -4.38858,-9.60349 0,-2.24276 3.21098,-4.93681 12.04225,-10.10361 3.32473,-1.945152 4.64184,-3.246174 4.27094,-4.21875 -1.41225,-3.703225 -2.51625,-19.847273 -1.56843,-22.935532 0.89826,-2.926815 0.78055,-3.368904 -1.25162,-4.700431 -1.86851,-1.224292 -2.24314,-2.249024 -2.24314,-6.135649 0,-4.539771 2.14813,-8.415888 4.66406,-8.415888 1.09486,0 0.37918,-4.701881 -1.46553,-9.628346 -1.58065,-4.22126 -1.70707,-7.836458 -0.30435,-8.703389 1.72339,-1.065112 2.84512,0.957064 5.5746,10.049516 1.80797,6.022693 3.01637,8.637947 3.87598,8.388449 3.50562,-1.017504 5.16125,-0.933621 6.80555,0.344809 2.30854,1.794868 1.33547,2.854657 -1.31745,1.43486 -3.34587,-1.790656 -4.26997,-0.01 -3.96874,7.647388 0.1487,3.78013 0.23498,10.113004 0.19172,14.073055 -0.0432,3.96005 0.59237,9.789619 1.41251,12.954595 1.29953,5.015059 1.35284,7.764111 0.41486,21.393663 -0.59195,8.60153 -0.80148,19.22509 -0.46563,23.6079 0.58948,7.69262 0.50918,8.15554 -2.31763,13.35937 l -2.92828,5.39063 18.36746,0 18.36745,0 -2.30731,-4.55326 c -2.10381,-4.15168 -2.23089,-5.08188 -1.44089,-10.54687 0.47654,-3.2965 0.8749,-7.00822 0.88527,-8.2483 0.0185,-2.20421 -0.0236,-2.21624 -1.8783,-0.53778 -1.46327,1.32425 -2.15147,1.46259 -3.00919,0.60487 -0.85771,-0.85771 -0.42384,-2.50763 1.89715,-7.21434 1.85629,-3.76435 3.00919,-7.52743 3.00919,-9.82199 0,-3.36446 -0.31314,-3.8505 -3.27915,-5.08979 -1.80353,-0.75356 -3.75339,-2.41096 -4.33302,-3.683106 -0.90294,-1.981706 -0.62483,-3.062887 1.9417,-7.548712 1.64756,-2.879647 3.1904,-5.235722 3.4285,-5.235722 0.23812,0 -0.038,0.879882 -0.61351,1.955293 -0.57554,1.075412 -0.90678,2.024631 -0.7361,2.109375 0.17068,0.08475 2.8062,1.419707 5.8567,2.966582 3.0505,1.546875 5.95929,2.973497 6.46396,3.170278 0.56151,0.218934 0.72213,-1.376306 0.41392,-4.110803 -0.30794,-2.73199 -0.18414,-3.964032 0.31855,-3.170278 0.45223,0.714066 0.83808,2.985803 0.85744,5.048303 0.0212,2.252588 0.76727,4.685887 1.86851,6.09375 2.44977,3.13185 2.39898,3.46576 -1.50565,9.8989 -2.86776,4.72483 -3.58108,7.06327 -4.70183,15.4136 -1.28057,9.54121 -1.20807,11.51975 0.69565,18.98437 l 0.8966,3.51563 19.75166,0 c 18.43943,0 19.7075,-0.10899 19.08674,-1.64063 -1.83467,-4.52671 -2.32049,-7.67576 -3.7242,-24.14062 -0.83524,-9.79687 -1.96475,-20.17657 -2.51004,-23.06599 -0.82305,-4.361294 -0.73646,-5.746507 0.50982,-8.156563 0.91932,-1.777755 1.50125,-5.236198 1.50125,-8.921959 0,-7.559178 -3.49612,-28.025425 -4.93983,-28.917684 -0.77207,-0.477164 -0.63797,-1.15482 0.47099,-2.380206 0.8527,-0.942217 2.01567,-4.625904 2.58439,-8.185971 1.10212,-6.898993 1.50209,-8.027877 2.84429,-8.027877 1.9713,0 2.91541,3.874697 1.9953,8.188812 -0.76026,3.56459 -0.64794,4.701983 0.63944,6.47567 0.85892,1.183378 2.21932,2.164853 3.02311,2.181057 0.80379,0.0162 2.28036,0.648856 3.28125,1.405896 1.00089,0.757038 2.19072,1.389851 2.64407,1.40625 1.06228,0.03843 -0.19563,-12.91971 -1.48873,-15.335892 -0.7706,-1.439878 -0.61249,-2.097735 0.74224,-3.088337 2.64735,-1.935791 3.5796,-1.060888 4.7537,4.461292 1.61347,7.588592 1.46529,13.343696 -0.54936,21.336552 -1.69589,6.728201 -3.79056,16.763582 -5.15269,24.685973 l -0.59077,3.436024 4.85139,-1.843382 c 5.57147,-2.116991 7.04864,-1.833019 8.35631,1.606423 0.78384,2.06168 0.4666,3.252884 -1.9414,7.289646 -1.5831,2.653896 -5.1368,7.667406 -7.8971,11.141146 -4.95569,6.23653 -5.02719,6.41737 -5.69168,14.39429 -0.766,9.19585 -0.19193,19.32306 1.31049,23.11796 l 1.02068,2.57812 18.67157,0 c 21.25396,0 19.02756,0.99535 20.34338,-9.09482 0.59345,-4.55087 -1.14849,-35.53322 -2.08422,-37.07008 -0.32927,-0.54082 -7.12507,2.25173 -8.58511,3.52781 -0.162,0.14158 1.20909,3.24327 3.04687,6.89261 2.22663,4.42149 3.30442,7.8159 3.2305,10.17421 -0.31731,10.12417 -3.35321,12.52332 -5.0715,4.00777 -0.59593,-2.95337 -2.91534,-8.35207 -5.429,-12.63665 -2.41372,-4.11422 -4.38858,-8.43579 -4.38858,-9.60349 0,-2.24276 3.21098,-4.93681 12.04225,-10.10361 3.32473,-1.945152 4.64184,-3.246174 4.27094,-4.21875 -1.41225,-3.703225 -2.51625,-19.847273 -1.56843,-22.935532 0.89826,-2.926815 0.78055,-3.368904 -1.25162,-4.700431 -1.86851,-1.224292 -2.24314,-2.249024 -2.24314,-6.135649 0,-4.539771 2.14813,-8.415888 4.66406,-8.415888 1.09486,0 0.37918,-4.701881 -1.46553,-9.628346 -1.58065,-4.22126 -1.70707,-7.836458 -0.30435,-8.703389 1.72339,-1.065112 2.84512,0.957064 5.5746,10.049516 1.80797,6.022693 3.01637,8.637947 3.87598,8.388449 3.50562,-1.017504 5.16125,-0.933621 6.80555,0.344809 2.30854,1.794868 1.33547,2.854657 -1.31745,1.43486 -3.34587,-1.790656 -4.26997,-0.01 -3.96874,7.647388 0.1487,3.78013 0.23498,10.113004 0.19172,14.073055 -0.0432,3.96005 0.59237,9.789619 1.41251,12.954595 1.29953,5.015059 1.35284,7.764111 0.41486,21.393663 -0.59195,8.60153 -0.80148,19.22509 -0.46563,23.6079 0.58948,7.69262 0.50918,8.15554 -2.31763,13.35937 l -2.92828,5.39063 18.36746,0 18.36745,0 -2.30731,-4.55326 c -2.10381,-4.15168 -2.23089,-5.08188 -1.44089,-10.54687 0.47654,-3.2965 0.8749,-7.00822 0.88527,-8.2483 0.0185,-2.20421 -0.0236,-2.21624 -1.8783,-0.53778 -1.46327,1.32425 -2.15147,1.46259 -3.00919,0.60487 -0.85771,-0.85771 -0.42384,-2.50763 1.89715,-7.21434 1.85629,-3.76435 3.00919,-7.52743 3.00919,-9.82199 0,-3.36446 -0.31314,-3.8505 -3.27915,-5.08979 -1.80353,-0.75356 -3.75339,-2.41096 -4.33302,-3.683106 -0.90294,-1.981706 -0.62483,-3.062887 1.9417,-7.548712 1.64756,-2.879647 3.1904,-5.235722 3.4285,-5.235722 0.23812,0 -0.038,0.879882 -0.61351,1.955293 -0.57554,1.075412 -0.90678,2.024631 -0.7361,2.109375 0.17068,0.08475 2.8062,1.419707 5.8567,2.966582 3.0505,1.546875 5.95929,2.973497 6.46396,3.170278 0.56151,0.218934 0.72213,-1.376306 0.41392,-4.110803 -0.30794,-2.73199 -0.18414,-3.964032 0.31855,-3.170278 0.45223,0.714066 0.83808,2.985803 0.85744,5.048303 0.0212,2.252588 0.76727,4.685887 1.86851,6.09375 2.44977,3.13185 2.39898,3.46576 -1.50565,9.8989 -2.86776,4.72483 -3.58108,7.06327 -4.70183,15.4136 -1.28057,9.54121 -1.20807,11.51975 0.69565,18.98437 l 0.8966,3.51563 12.39447,0 12.39448,0 1.59948,-12.89063 c 1.73243,-13.96207 7.09224,-37.722089 10.01042,-44.376182 1.0815,-2.46605 2.08255,-7.623015 2.47628,-12.756714 l 0.66091,-8.617277 -6.31449,-7.320223 c -7.8743,-9.128465 -11.59289,-16.917557 -8.87776,-18.595605 1.39383,-0.861431 3.54821,1.191274 5.7217,5.451662 l 1.87572,3.676714 2.10056,-1.973373 c 2.37302,-2.229341 4.3544,-2.504936 6.02175,-0.837582 0.62468,0.624684 2.78835,1.016471 4.80814,0.870638 5.38635,-0.388907 7.55607,2.121304 7.55607,8.741837 0,4.065346 -0.36608,5.319183 -1.77282,6.072051 -1.6457,0.880748 -1.67748,1.225501 -0.44332,4.807708 1.51378,4.393783 0.7123,10.837263 -2.5147,20.216699 -1.40706,4.089683 -1.64464,6.089108 -0.98149,8.259918 0.48123,1.575259 1.54628,6.660989 2.36678,11.301609 2.58674,14.63017 7.60652,31.22259 10.06598,33.27226 1.2022,1.00189 2.6922,1.83564 3.31111,1.8528 0.61891,0.0172 1.47022,0.64754 1.8918,1.40087 0.57254,1.02307 3.13463,1.44789 10.12471,1.67879 5.14701,0.17001 -108.68806,0.3974 -252.96683,0.50532 L 20.506203,150 l 0.293774,3.04687 0.293773,3.04688 262.03125,0.47123 262.03125,0.47124 -236.48438,0.23189 c -191.91183,0.18818 -236.48437,0.45901 -236.48437,1.43691 0,0.66277 -8.584931,13.84636 -19.077624,29.29688 l -19.077625,28.09185 255.561999,0.47129 255.562,0.4713 -264.84375,0.041 C 134.64844,217.0999 18.84375,216.96641 22.96875,216.7807 Z M 68.750827,159.14062 C 69.166944,157.61892 67.875766,157.5 50.937727,157.5 l -18.261734,0 2.646378,3.1535 c 1.455508,1.73442 6.214379,7.1796 10.575267,12.10039 l 7.92889,8.9469 7.237831,-10.45977 c 3.980808,-5.75287 7.439718,-11.19805 7.686468,-12.1004 z M 38.4375,148.76593 c 0,-5.93796 8.731368,-29.31238 15.411518,-41.2576 4.913382,-8.785952 4.087384,-13.806979 -1.827968,-11.111767 -3.583288,1.632656 -4.802537,4.398287 -9.372467,21.259687 -2.37574,8.76563 -5.131819,17.32074 -6.124619,19.01137 -1.567896,2.66997 -1.673753,3.68628 -0.805592,7.73438 0.549724,2.56327 1.386415,4.6605 1.859313,4.6605 0.472898,0 0.859815,-0.13345 0.859815,-0.29657 z m 20.960767,-3.21906 c 0.319604,-1.93359 0.596054,-5.83593 0.614333,-8.67187 0.01828,-2.83594 0.443052,-6.93199 0.943939,-9.10234 0.790541,-3.42543 0.528423,-5.00257 -1.986581,-11.95312 -1.593505,-4.40387 -3.268426,-8.00704 -3.722045,-8.00704 -2.636559,0 -15.872913,34.15089 -15.872913,40.95343 0,0.16312 4.374488,0.29657 9.721086,0.29657 l 9.721084,0 0.581097,-3.51563 z m 10.914233,2.65262 c 0,-0.47465 -1.260788,-1.13993 -2.801749,-1.47838 -1.540962,-0.33845 -3.012433,-0.95626 -3.269936,-1.37291 -0.257502,-0.41664 0.65862,-6.08843 2.035828,-12.60398 l 2.504014,-11.84643 -3.577863,-10.78334 c -1.967825,-5.93084 -3.864652,-10.960587 -4.215172,-11.177225 -0.350519,-0.216628 -1.762733,1.341785 -3.138254,3.463155 -1.759441,2.71347 -2.22037,4.1951 -1.554617,4.99729 0.52048,0.62715 2.195451,4.56294 3.722159,8.74621 2.419439,6.62942 2.665208,8.17771 1.914227,12.05917 -0.473883,2.44926 -1.081713,8.14461 -1.350735,12.65632 l -0.48913,8.20313 5.110614,0 c 2.810837,0 5.110614,-0.38836 5.110614,-0.86301 z m 31.4975,-1.24637 c -1.34187,-4.74769 -2.556116,-24.20748 -1.983481,-31.78776 0.530731,-7.02556 0.361861,-8.60835 -1.256944,-11.78147 -1.028522,-2.01607 -2.588447,-4.261799 -3.4665,-4.990518 -1.499071,-1.244119 -1.553858,-0.01059 -0.898022,20.218958 0.652913,20.13937 0.845241,21.83424 2.949994,25.99704 2.352281,4.65238 5.797763,6.38716 4.654953,2.34375 z m 58.4489,-3.2444 c 2.83978,-5.24308 2.88841,-5.54838 2.35246,-14.76563 -0.301,-5.17651 -0.15117,-14.68528 0.33296,-21.13059 0.9607,-12.790116 0.3613,-15 -4.06858,-15 -4.15158,0 -4.5237,1.758291 -3.22456,15.23667 1.38825,14.40277 1.69215,31.30351 0.66586,37.02895 -0.99338,5.5419 0.47479,5.03185 3.94186,-1.3694 z m 38.23278,4.15784 c -2.0889,-5.44359 -2.49746,-12.01734 -1.31297,-21.12558 l 1.25694,-9.66527 -2.42095,2.41803 c -2.06183,2.05934 -2.57941,3.77121 -3.48913,11.54027 -1.03521,8.84073 -0.99857,9.25967 1.18766,13.57536 1.26633,2.49977 2.90978,4.45313 3.74661,4.45313 0.82344,0 1.28533,-0.53535 1.03184,-1.19594 z m 50.2447,-3.25719 c -1.03676,-3.31521 -1.27952,-7.35667 -0.95004,-15.81595 0.39394,-10.1144 0.27377,-11.35042 -1.09376,-11.25 -2.33578,0.17154 -1.80421,-8.274 0.73712,-11.71134 2.422,-3.27593 2.42293,-3.59395 0.008,-2.96261 -1.06513,0.27854 -2.91496,-0.0172 -4.11075,-0.65715 -3.2597,-1.74453 -1.88524,-5.550483 2.98074,-8.253876 3.71881,-2.066052 3.87921,-2.354887 4.94586,-8.906247 0.60633,-3.724021 2.32998,-11.984301 3.83034,-18.356179 3.01601,-12.808731 3.20568,-15.517685 1.69418,-24.19735 -1.06071,-6.091065 -1.33333,-6.486749 -3.51618,-5.103538 -0.91786,0.581623 -1.01238,1.290543 -0.34182,2.563769 1.97951,3.758558 2.28591,12.932862 0.62465,18.702689 -1.80668,6.274884 -2.06049,9.197538 -1.09319,12.588412 0.40735,1.427997 0.0284,1.061696 -0.96994,-0.9375 -1.33869,-2.680802 -2.09248,-3.228686 -4.1192,-2.994008 -4.81658,0.557722 -5.91937,3.084795 -5.94357,13.619885 -0.0142,6.15303 -0.49,10.561123 -1.34281,12.439 -0.79025,1.740126 -1.02603,3.623264 -0.58692,4.687504 0.85036,2.060909 0.73395,1.028035 2.78915,24.747619 1.68603,19.45888 3.27563,26.25 6.14436,26.25 1.60533,0 1.62375,-0.26205 0.31309,-4.45313 z m 45.58502,-0.90065 c 2.83977,-5.24308 2.88841,-5.54838 2.35246,-14.76563 -0.301,-5.17651 -0.15117,-14.68528 0.33296,-21.13059 0.9607,-12.790116 0.3613,-15 -4.06858,-15 -4.15158,0 -4.5237,1.758291 -3.22456,15.23667 1.38824,14.40277 1.69215,31.30351 0.66586,37.02895 -0.99338,5.5419 0.47479,5.03185 3.94186,-1.3694 z m 38.23278,4.15784 c -2.0889,-5.44359 -2.49746,-12.01734 -1.31297,-21.12558 l 1.25694,-9.66527 -2.42095,2.41803 c -2.06183,2.05934 -2.57941,3.77121 -3.48913,11.54027 -1.03521,8.84073 -0.99857,9.25967 1.18766,13.57536 1.26633,2.49977 2.90978,4.45313 3.74661,4.45313 0.82344,0 1.28533,-0.53535 1.03184,-1.19594 z m 43.6822,-3.25719 c -1.03676,-3.31521 -1.27952,-7.35667 -0.95004,-15.81595 0.39394,-10.1144 0.27377,-11.35042 -1.09376,-11.25 -2.33578,0.17154 -1.80421,-8.274 0.73712,-11.71134 2.422,-3.27593 2.42293,-3.59395 0.008,-2.96261 -1.06513,0.27854 -2.91496,-0.0172 -4.11075,-0.65715 -3.2597,-1.74453 -1.88524,-5.550483 2.98074,-8.253876 3.71881,-2.066052 3.87921,-2.354887 4.94586,-8.906247 0.60633,-3.724021 2.32998,-11.984301 3.83034,-18.356179 3.01601,-12.808731 3.20568,-15.517685 1.69418,-24.19735 -1.06071,-6.091065 -1.33333,-6.486749 -3.51618,-5.103538 -0.91786,0.581623 -1.01238,1.290543 -0.34182,2.563769 1.97951,3.758558 2.28591,12.932862 0.62465,18.702689 -1.80668,6.274884 -2.06049,9.197538 -1.09319,12.588412 0.40735,1.427997 0.0284,1.061696 -0.96994,-0.9375 -1.33869,-2.680802 -2.09248,-3.228686 -4.1192,-2.994008 -4.81658,0.557722 -5.91937,3.084795 -5.94357,13.619885 -0.0141,6.15303 -0.49,10.561123 -1.34281,12.439 -0.79025,1.740126 -1.02603,3.623264 -0.58692,4.687504 0.85036,2.060909 0.73395,1.028035 2.78915,24.747619 1.68603,19.45888 3.27563,26.25 6.14436,26.25 1.60533,0 1.62375,-0.26205 0.31309,-4.45313 z m 45.58502,-0.90065 c 2.83977,-5.24308 2.88841,-5.54838 2.35246,-14.76563 -0.301,-5.17651 -0.15117,-14.68528 0.33296,-21.13059 0.9607,-12.790116 0.3613,-15 -4.06858,-15 -4.15158,0 -4.5237,1.758291 -3.22456,15.23667 1.38824,14.40277 1.69215,31.30351 0.66586,37.02895 -0.99338,5.5419 0.47479,5.03185 3.94186,-1.3694 z m 38.23278,4.15784 c -2.0889,-5.44359 -2.49746,-12.01734 -1.31297,-21.12558 l 1.25694,-9.66527 -2.42095,2.41803 c -2.06183,2.05934 -2.57941,3.77121 -3.48913,11.54027 -1.03521,8.84073 -0.99857,9.25967 1.18766,13.57536 1.26633,2.49977 2.90978,4.45313 3.74661,4.45313 0.82344,0 1.28533,-0.53535 1.03184,-1.19594 z m 37.34476,-0.24012 c -1.00089,-0.75704 -2.32033,-1.37644 -2.93208,-1.37644 -0.61175,0 -1.55367,-0.53184 -2.09315,-1.18189 -1.30982,-1.57823 2.74765,-20.65941 6.08278,-28.60569 l 2.46845,-5.88132 -2.18522,-4.66556 c -1.20188,-2.56605 -2.42952,-4.66246 -2.7281,-4.65869 -1.54627,0.0195 -8.51162,36.9725 -8.51162,45.15634 0,2.628 0.0472,2.64907 5.85937,2.6195 5.35624,-0.0273 5.70312,-0.14802 4.03957,-1.40625 z m 18.43965,0.46166 c -1.17158,-0.47056 -2.29615,-1.39303 -2.49905,-2.04996 -0.496,-1.60592 -9.98477,-28.70443 -11.08712,-31.66314 -0.84087,-2.25691 -0.95213,-2.16722 -3.00269,2.42047 -1.17121,2.62033 -3.05244,9.15939 -4.18052,14.53125 -1.12808,5.37187 -2.26147,10.48982 -2.51864,11.37324 -0.33607,1.15446 0.43777,1.98449 2.75148,2.95122 1.77048,0.73975 3.50639,1.80993 3.85758,2.37817 0.39838,0.64458 4.05544,1.0108 9.72383,0.97372 6.45655,-0.0422 8.46895,-0.30696 6.95513,-0.91497 z M 525,148.125 c 0,-0.51563 -0.52734,-0.95267 -1.17188,-0.97121 -0.64453,-0.0186 -2.34787,-0.99625 -3.7852,-2.17267 -2.12131,-1.73624 -3.22258,-4.33333 -5.8494,-13.7944 -1.77984,-6.41051 -4.08014,-16.25826 -5.11176,-21.88389 -1.88841,-10.297814 -3.52241,-13.67783 -6.61227,-13.67783 -3.52842,0 -5.25096,5.51501 -3.04624,9.75302 1.89581,3.6442 14.32675,38.07349 14.32675,39.68 0,1.46906 5.20135,3.82506 8.67187,3.92801 C 523.83984,149.02808 525,148.64062 525,148.125 Z M 126.5625,137.24428 c 0,-0.31251 -1.28432,-2.18979 -2.85404,-4.17172 -1.56972,-1.98194 -6.0134,-10.43874 -9.87483,-18.79288 C 105.0628,95.30415 104.14457,93.75 101.70412,93.75 99.294994,93.75 97.5,95.440041 97.5,97.708313 c 0,2.561667 6.65191,15.101867 13.06779,24.635437 3.12304,4.64062 5.67914,8.87058 5.68023,9.3999 0.003,1.15536 7.36663,6.06885 9.09589,6.06885 0.67023,0 1.21859,-0.25569 1.21859,-0.56822 z m 23.77327,-8.57241 c 1.04758,-6.33785 0.64336,-8.63599 -2.67952,-15.23437 -1.80469,-3.58363 -3.28125,-6.73005 -3.28125,-6.99205 0,-0.26201 2.10937,-1.54527 4.6875,-2.8517 4.47381,-2.26704 4.6875,-2.55015 4.6875,-6.209841 0,-4.524055 0.0765,-4.535933 -9.23673,1.43371 -5.01016,3.211431 -6.70077,4.820641 -6.70077,6.378141 0,1.14568 2.07217,5.6836 4.60483,10.08427 2.79447,4.85557 4.86348,9.75195 5.2627,12.45435 0.79074,5.35254 1.86339,5.73119 2.65574,0.93749 z m 134.0625,0 c 1.04758,-6.33785 0.64336,-8.63599 -2.67952,-15.23437 -1.80469,-3.58363 -3.28125,-6.73005 -3.28125,-6.99205 0,-0.26201 2.10937,-1.54527 4.6875,-2.8517 4.47381,-2.26704 4.6875,-2.55015 4.6875,-6.209841 0,-4.524055 0.0765,-4.535933 -9.23673,1.43371 -5.01016,3.211431 -6.70077,4.820641 -6.70077,6.378141 0,1.14568 2.07218,5.6836 4.60483,10.08427 2.79447,4.85557 4.86348,9.75195 5.2627,12.45435 0.79074,5.35254 1.86339,5.73119 2.65574,0.93749 z m 127.5,0 c 1.04758,-6.33785 0.64336,-8.63599 -2.67952,-15.23437 -1.80469,-3.58363 -3.28125,-6.73005 -3.28125,-6.99205 0,-0.26201 2.10937,-1.54527 4.6875,-2.8517 4.47381,-2.26704 4.6875,-2.55015 4.6875,-6.209841 0,-4.524055 0.0765,-4.535933 -9.23673,1.43371 -5.01016,3.211431 -6.70077,4.820641 -6.70077,6.378141 0,1.14568 2.07218,5.6836 4.60483,10.08427 2.79447,4.85557 4.86348,9.75195 5.2627,12.45435 0.79074,5.35254 1.86339,5.73119 2.65574,0.93749 z m -216.31433,-9.84469 c 3.54602,-3.73881 7.22751,-8.54124 8.18108,-10.67207 1.64167,-3.66844 1.6488,-4.00396 0.13401,-6.3158 C 201.773,98.594569 186.03016,89.675791 187.9705,92.815334 188.28821,93.3294 188.11623,93.75 187.58831,93.75 c -0.52791,0 -1.43996,0.897112 -2.02678,1.993584 -1.802,3.367069 0.22216,6.139996 5.66103,7.755166 2.60965,0.77499 5.15684,1.6637 5.66041,1.97492 0.97221,0.60086 -2.12037,7.54349 -3.61337,8.11172 -0.46366,0.17648 -1.95151,2.52168 -3.30631,5.21157 -4.59082,9.1148 -3.0036,9.12333 5.62065,0.0302 z m 134.0625,0 c 3.54602,-3.73881 7.22751,-8.54124 8.18109,-10.67207 1.64166,-3.66844 1.64879,-4.00396 0.134,-6.3158 C 335.8355,98.594569 320.09266,89.675791 322.033,92.815334 322.35071,93.3294 322.17873,93.75 321.65081,93.75 c -0.52791,0 -1.43996,0.897112 -2.02678,1.993584 -1.802,3.367069 0.22216,6.139996 5.66103,7.755166 2.60965,0.77499 5.15684,1.6637 5.66041,1.97492 0.97221,0.60086 -2.12037,7.54349 -3.61337,8.11172 -0.46366,0.17648 -1.95151,2.52168 -3.30631,5.21157 -4.59082,9.1148 -3.0036,9.12333 5.62065,0.0302 z m 127.5,0 c 3.54602,-3.73881 7.22751,-8.54124 8.18109,-10.67207 1.64166,-3.66844 1.64879,-4.00396 0.134,-6.3158 C 463.3355,98.594569 447.59266,89.675791 449.533,92.815334 449.85071,93.3294 449.67873,93.75 449.15081,93.75 c -0.52791,0 -1.43996,0.897112 -2.02678,1.993584 -1.802,3.367069 0.22216,6.139996 5.66103,7.755166 2.60965,0.77499 5.15684,1.6637 5.66041,1.97492 0.97221,0.60086 -2.12037,7.54349 -3.61337,8.11172 -0.46366,0.17648 -1.95151,2.52168 -3.30631,5.21157 -4.59082,9.1148 -3.0036,9.12333 5.62065,0.0302 z m -204.3694,-8.76924 c 3.02732,-3.92125 6.88742,-9.34629 8.57801,-12.055646 2.65053,-4.247747 2.93905,-5.280498 2.09528,-7.499787 -1.22508,-3.222229 -3.16308,-2.890311 -13.13783,2.250098 -6.25715,3.224567 -7.03125,3.917595 -7.03125,6.294823 0,2.018482 0.49207,2.741462 2.0135,2.958342 2.51102,0.35793 7.28568,-1.76227 11.58025,-5.142239 1.80469,-1.42035 0.44632,0.066 -3.01858,3.302889 -4.34781,4.06174 -6.59747,6.95697 -7.2604,9.34384 -1.18116,4.25277 -1.24679,7.67724 -0.14711,7.67724 0.45315,0 3.30081,-3.2083 6.32813,-7.12956 z m 127.5,0 c 3.02732,-3.92125 6.88742,-9.34629 8.57801,-12.055646 2.65053,-4.247747 2.93905,-5.280498 2.09528,-7.499787 -1.22508,-3.222229 -3.16308,-2.890311 -13.13783,2.250098 -6.25715,3.224567 -7.03125,3.917595 -7.03125,6.294823 0,2.018482 0.49207,2.741462 2.0135,2.958342 2.51102,0.35793 7.28568,-1.76227 11.58025,-5.142239 1.80469,-1.42035 0.44632,0.066 -3.01858,3.302889 -4.34781,4.06174 -6.59747,6.95697 -7.2604,9.34384 -1.18116,4.25277 -1.24679,7.67724 -0.14711,7.67724 0.45315,0 3.30081,-3.2083 6.32813,-7.12956 z m -184.66312,-4.34026 c -2.04502,-1.30137 -2.48884,-0.70952 -2.44962,3.2667 l 0.0393,3.98437 1.74651,-3.28105 c 1.26504,-2.37657 1.44804,-3.47097 0.66382,-3.97002 z m 134.0625,0 c -2.04502,-1.30137 -2.48884,-0.70952 -2.44962,3.2667 l 0.0393,3.98437 1.74651,-3.28105 c 1.26504,-2.37657 1.44804,-3.47097 0.66382,-3.97002 z m 127.5,0 c -2.04502,-1.30137 -2.48884,-0.70952 -2.44962,3.2667 l 0.0393,3.98437 1.74651,-3.28105 c 1.26504,-2.37657 1.44804,-3.47097 0.66382,-3.97002 z m 42.28442,-9.389555 c 1.63298,-1.841606 4.47817,-2.167022 5.43339,-0.621441 0.90998,1.472372 1.85978,0.07988 3.57263,-5.237934 2.28526,-7.09487 3.42612,-14.206981 2.78954,-17.38988 -0.56607,-2.830338 -0.57988,-2.836241 -1.64023,-0.700997 -1.42759,2.874759 -4.68992,3.257352 -6.44227,0.755524 -1.27764,-1.824082 -1.4335,-1.349636 -2.0614,6.274783 -0.44087,5.353323 -1.48857,10.17853 -2.98526,13.748575 -1.34638,3.211504 -2.02638,6.137517 -1.63404,7.031245 0.57898,1.31893 0.73016,1.2713 1.09242,-0.34425 0.23125,-1.03125 1.07509,-2.613281 1.87522,-3.515625 z M 60.90428,93.35507 c 0.01827,-1.506275 -0.657816,-3.502268 -1.502416,-4.435541 -1.251912,-1.383347 -1.31731,-1.959926 -0.353958,-3.120693 0.649923,-0.78311 1.773276,-1.423836 2.49634,-1.423836 2.029034,0 3.085101,-4.007424 2.371226,-8.998028 -0.636659,-4.450799 -0.699284,-4.52073 -4.155935,-4.640767 C 57.829292,70.669175 56.25,70.935926 56.25,71.328986 c 0,0.39306 -1.085968,2.005254 -2.413262,3.582653 -2.157713,2.564297 -2.348493,3.390933 -1.801613,7.806305 0.482208,3.893234 0.19932,5.897149 -1.336738,9.469154 C 49.626774,94.679062 48.75,96.874284 48.75,97.065375 c 0,0.191081 1.257545,-0.371241 2.794544,-1.249603 3.325591,-1.9005 5.922494,-0.81645 6.438072,2.687512 l 0.326366,2.218046 1.281039,-2.313792 c 0.704571,-1.272582 1.295987,-3.546197 1.314259,-5.052468 z m 101.71268,-8.202883 c -1.03734,-4.232967 -1.42671,-8.364874 -1.09298,-11.598427 0.31347,-3.037224 -0.008,-6.987193 -0.81394,-9.991492 -0.7328,-2.732685 -1.77092,-7.710706 -2.30694,-11.062268 -1.27882,-7.996043 -5.40506,-21.5625 -6.55823,-21.5625 -1.3429,0 -1.10078,4.284831 0.45211,8.001418 1.78374,4.269092 3.62277,21.229466 2.81826,25.991309 -0.45383,2.686218 -0.273,3.966592 0.64213,4.546422 1.7834,1.129978 2.3404,1.041654 4.01941,-0.637364 0.81028,-0.810267 1.47322,-1.036048 1.47322,-0.501734 0,0.534313 -0.84375,1.423041 -1.875,1.974949 -2.51526,1.346122 -5.60568,-0.328291 -5.68443,-3.07986 -0.0568,-1.985926 -0.10137,-1.974277 -1.02231,0.26736 -1.89754,4.618715 1.0626,27.581644 3.27087,25.373376 1.49877,-1.49878 4.91262,-1.201853 6.36796,0.553867 1.19356,1.439929 1.30962,1.434594 1.60397,-0.07368 0.17451,-0.894257 -0.40783,-4.584877 -1.2941,-8.201377 z m 134.0625,0 c -1.03734,-4.232967 -1.42671,-8.364874 -1.09298,-11.598427 0.31347,-3.037224 -0.008,-6.987193 -0.81394,-9.991492 -0.7328,-2.732685 -1.77092,-7.710706 -2.30694,-11.062268 -1.27882,-7.996043 -5.40506,-21.5625 -6.55823,-21.5625 -1.3463,0 -1.09931,4.288343 0.46222,8.025623 1.75287,4.195189 3.6924,22.027981 2.87165,26.402961 -0.43589,2.323481 -0.24882,3.585395 0.61247,4.131477 1.74729,1.107842 2.31287,1.014429 3.98557,-0.658276 0.81028,-0.810267 1.47322,-1.036048 1.47322,-0.501734 0,0.534313 -0.84375,1.423041 -1.875,1.974949 -2.85978,1.530505 -5.93858,-0.440517 -5.36609,-3.435319 0.33111,-1.732125 0.17431,-2.058079 -0.6097,-1.267374 -1.40639,1.41841 -1.17959,17.073393 0.33909,23.403907 0.84021,3.502381 1.45982,4.600669 2.18589,3.874593 1.51188,-1.51188 4.9216,-1.223983 6.3829,0.538936 1.19356,1.439929 1.30962,1.434594 1.60397,-0.07368 0.17451,-0.894257 -0.40783,-4.584877 -1.2941,-8.201377 z m 127.5,0 c -1.03734,-4.232967 -1.42671,-8.364874 -1.09298,-11.598427 0.31347,-3.037224 -0.008,-6.987193 -0.81394,-9.991492 -0.7328,-2.732685 -1.77092,-7.710706 -2.30694,-11.062268 -1.27882,-7.996043 -5.40506,-21.5625 -6.55823,-21.5625 -1.3463,0 -1.09931,4.288343 0.46222,8.025623 1.75287,4.195189 3.6924,22.027981 2.87165,26.402961 -0.43589,2.323481 -0.24882,3.585395 0.61247,4.131477 1.74729,1.107842 2.31287,1.014429 3.98557,-0.658276 0.81028,-0.810267 1.47322,-1.036048 1.47322,-0.501734 0,0.534313 -0.84375,1.423041 -1.875,1.974949 -2.85978,1.530505 -5.93858,-0.440517 -5.36609,-3.435319 0.33111,-1.732125 0.17431,-2.058079 -0.6097,-1.267374 -1.40639,1.41841 -1.17959,17.073393 0.33909,23.403907 0.84021,3.502381 1.45982,4.600669 2.18589,3.874593 1.51188,-1.51188 4.9216,-1.223983 6.3829,0.538936 1.19356,1.439929 1.30962,1.434594 1.60397,-0.07368 0.17451,-0.894257 -0.40783,-4.584877 -1.2941,-8.201377 z M 65.866648,87.366964 c 6.582328,-2.499896 6.829831,-2.995969 4.125425,-8.268629 -1.28838,-2.511897 -2.995556,-5.410835 -3.793725,-6.442085 -1.388815,-1.794375 -1.452499,-1.729265 -1.481033,1.514195 -0.01761,2.001086 0.733594,4.359713 1.83412,5.758803 l 1.863933,2.369609 -2.299699,1.506822 c -1.264835,0.828752 -3.133395,1.506821 -4.152357,1.506821 -2.088923,0 -3.302748,1.403699 -2.432062,2.8125 0.774985,1.253953 1.1586,1.208053 6.335398,-0.758036 z m 1.048633,-5.992106 c -0.813218,-1.315816 -1.99395,-0.807781 -2.484772,1.069125 -0.407604,1.55868 -0.230689,1.665989 1.236267,0.749859 0.941569,-0.588019 1.503396,-1.406562 1.248505,-1.818984 z M 55.3125,71.116717 c 0,-0.474685 -0.738281,-1.091911 -1.640625,-1.371615 C 47.81944,67.931001 40.583962,63.738692 37.906171,60.610296 35.022193,57.241016 32.8125,56.710792 32.8125,59.388052 c 0,1.542099 7.074095,7.378283 11.972047,9.877032 2.165917,1.104968 4.658701,3.108915 5.53952,4.453215 l 1.601488,2.44418 1.693473,-2.091349 C 54.550437,72.920888 55.3125,71.591402 55.3125,71.116717 Z m 453.57322,-0.05265 c 0.24342,-2.108982 -0.30228,-2.836705 -3.28125,-4.375762 -4.95115,-2.557967 -11.33749,-9.371292 -14.75965,-15.746456 -2.94242,-5.481475 -5.27511,-7.464987 -5.1503,-4.379345 0.14833,3.66642 3.5242,9.145088 11.18048,18.144683 8.47862,9.96621 11.41477,11.520222 12.01072,6.35688 z M 62.603901,68.85309 c 2.625586,-1.839032 3.022313,-7.91559 0.516794,-7.91559 -2.67487,0 -4.995695,2.898445 -4.995695,6.239051 0,3.493419 1.228442,3.953248 4.478901,1.676539 z M 242.17692,65.970712 c -1.16582,-1.77926 -1.37657,-3.655582 -0.93805,-8.351524 0.56569,-6.057813 0.002,-7.275373 -2.16103,-4.668916 -0.89731,1.081187 -0.91368,2.78986 -0.0742,7.734375 1.56692,9.228207 1.84259,9.933122 3.38415,8.653736 1.09225,-0.906489 1.05954,-1.428653 -0.21095,-3.367671 z m 127.5,0 c -1.16582,-1.77926 -1.37657,-3.655582 -0.93805,-8.351524 0.56569,-6.057813 0.002,-7.275373 -2.16103,-4.668916 -0.89731,1.081187 -0.91368,2.78986 -0.0742,7.734375 1.56692,9.228207 1.84259,9.933122 3.38415,8.653736 1.09225,-0.906489 1.05955,-1.428653 -0.21095,-3.367671 z m 141.65265,0.02273 c 1.04084,-0.399403 1.48293,-1.796847 1.48293,-4.687498 0,-3.672511 -0.23348,-4.118448 -2.15625,-4.118448 -2.97683,0 -4.40625,1.708206 -4.40625,5.265625 0,3.518737 1.82362,4.78975 5.07957,3.540323 z M 154.6875,60.501735 c 0,-3.178853 -0.43622,-4.419221 -1.81337,-5.15625 -3.06948,-1.642737 -3.81163,-1.111898 -3.81163,2.726355 0,2.757443 0.52946,4.067688 2.0836,5.15625 3.11366,2.18089 3.5414,1.851591 3.5414,-2.726355 z M 288.75,60.032985 c 0,-3.600112 -1.68248,-5.657985 -4.62587,-5.657985 -1.74755,0 -1.18778,7.29695 0.64149,8.362407 3.06653,1.78609 3.98438,1.163095 3.98438,-2.704422 z m 127.5,0 c 0,-3.600112 -1.68248,-5.657985 -4.62587,-5.657985 -1.74755,0 -1.18778,7.29695 0.64149,8.362407 3.06653,1.78609 3.98438,1.163095 3.98438,-2.704422 z m 83.86126,-2.813278 c -0.0248,-2.55939 -0.34282,-4.951261 -0.70682,-5.315269 -0.36401,-0.364007 -1.72087,0.333079 -3.01524,1.54908 l -2.35341,2.210912 3.00976,3.105285 c 1.65537,1.707907 3.03247,3.104867 3.06023,3.104357 0.0278,-5.11e-4 0.0302,-2.094975 0.006,-4.654365 z M 241.71862,48.046875 c 1.28843,-2.495424 2.14197,-8.230347 1.4812,-9.952272 -1.01484,-2.644622 -2.07499,-1.681329 -2.69885,2.452272 -0.33073,2.191406 -0.82321,5.144531 -1.09439,6.5625 -0.55236,2.888232 0.98333,3.510934 2.31204,0.9375 z m 127.5,0 c 1.28843,-2.495424 2.14197,-8.230347 1.4812,-9.952272 -1.01484,-2.644622 -2.07499,-1.681329 -2.69885,2.452272 -0.33073,2.191406 -0.82321,5.144531 -1.09439,6.5625 -0.55236,2.888232 0.98333,3.510934 2.31204,0.9375 z m -263.8989,38.54563 c 0.32713,-0.58506 1.01195,-3.96006 1.52183,-7.5 0.77987,-5.414359 0.67006,-7.068303 -0.69162,-10.417116 -1.57118,-3.864031 -1.74428,-3.980964 -5.89817,-3.984375 -3.976126,-0.0033 -4.391363,0.231095 -5.857726,3.306088 -1.259952,2.642145 -1.394125,4.107424 -0.665305,7.265625 0.502115,2.175813 0.865799,5.432585 0.80818,7.237273 -0.07453,2.333407 -0.206437,2.604219 -0.456759,0.9375 C 92.573333,73.404697 91.27495,69.043646 88.044822,63.165836 86.02642,59.492983 84.375,55.486609 84.375,54.262782 c 0,-3.588755 4.761734,-16.850115 6.256271,-17.423622 2.651654,-1.017536 3.40942,1.166176 2.181229,6.28584 -1.455474,6.067098 -0.645089,7.03911 5.640619,6.765616 5.443091,-0.236832 8.402931,1.90819 8.451691,6.125009 0.0288,2.485851 0.0798,2.512053 1.42543,0.732092 2.07291,-2.741929 3.58509,-8.822474 3.43823,-13.825305 -0.13931,-4.745779 0.92661,-6.268149 3.11634,-4.450829 2.53659,2.105177 1.67123,10.204331 -2.26685,21.216124 -1.99763,5.585823 -4.10969,13.723576 -4.69348,18.083895 -0.58379,4.360318 -1.54251,8.36813 -2.13049,8.90625 -0.75202,0.68824 -0.89267,0.662929 -0.47427,-0.08535 z M 94.223128,66.554033 c 1.146291,-2.216687 1.229063,-3.250201 0.386372,-4.824774 -0.589819,-1.102093 -0.869287,-3.805839 -0.621037,-6.008324 0.370471,-3.286773 0.15089,-4.083095 -1.225096,-4.442923 -2.937485,-0.76817 -3.181227,3.625482 -0.458835,8.270893 1.310633,2.236424 2.373659,4.412978 2.362287,4.836786 -0.01134,0.423807 -1.29836,-1.420963 -2.859964,-4.09949 l -2.839281,-4.87005 1.922463,-8.094597 C 93.175477,37.698631 93.187474,37.5 91.483239,37.5 90.053895,37.5 85.3125,50.365773 85.3125,54.244297 c 0,1.746679 6.393128,15.09913 7.24155,15.124431 0.115665,0.0035 0.86675,-1.263163 1.669078,-2.814695 z m 17.628912,-7.341914 c 2.77793,-7.910659 3.50488,-11.270455 3.28026,-15.160684 -0.18793,-3.254964 -0.7471,-5.149109 -1.60351,-5.431689 -1.0262,-0.338607 -1.19571,0.30092 -0.77193,2.912364 0.66064,4.071099 -0.99683,10.594381 -4.48168,17.638434 -1.84103,3.721344 -2.42266,5.988268 -1.98441,7.734375 0.34098,1.358544 0.92876,2.470081 1.3062,2.470081 0.37743,0 2.29221,-4.573297 4.25507,-10.162881 z M 105.8297,58.59375 C 105.7522,55.837645 105.7356,55.828247 105,58.125 c -0.41283,1.289062 -0.7862,3.1875 -0.8297,4.21875 -0.0652,1.544663 0.081,1.627248 0.8297,0.46875 0.49984,-0.773438 0.8732,-2.671875 0.8297,-4.21875 z m 94.79546,28.515625 c 9e-5,-0.214844 0.64421,-3.756405 1.43139,-7.870135 1.82535,-9.539112 0.96182,-12.276006 -4.08454,-12.945705 -2.96881,-0.393988 -3.7945,-0.05323 -6.01969,2.484298 -2.18482,2.491487 -2.49771,3.513991 -2.04744,6.690917 0.29233,2.0625 0.70971,5.226562 0.92753,7.03125 0.95958,7.950488 -1.31478,-2.847581 -3.38092,-16.051718 l -2.14497,-13.707968 2.18912,-5.979532 c 2.98327,-8.148737 6.40008,-14.885782 7.54958,-14.885782 2.00047,0 2.00678,3.19797 0.0198,10.036368 -1.1335,3.901021 -1.7173,7.402774 -1.29733,7.781673 0.41995,0.378898 2.71226,0.938894 5.09401,1.244434 l 4.33046,0.555529 0.58687,-4.2817 c 0.32278,-2.354936 0.33253,-5.872252 0.0217,-7.816257 -0.67593,-4.226987 0.8131,-5.630444 3.44585,-3.247835 2.35088,2.127512 2.34847,8.615944 -0.008,21.977788 -2.21793,12.575369 -5.57552,28.33712 -6.16117,28.922772 -0.24873,0.248725 -0.45215,0.276446 -0.45207,0.0616 z m -8.98972,-19.145059 c 1.39654,-2.13139 1.40969,-2.84562 0.14246,-7.736069 -1.35834,-5.241965 -1.32135,-5.641743 1.36536,-14.761191 2.88882,-9.805431 3.33568,-12.654556 1.98476,-12.654556 -0.82436,0 -4.18671,7.144434 -7.20032,15.299496 -1.48817,4.027085 -1.54458,5.33541 -0.51892,12.03546 1.08133,7.063682 1.82195,10.165044 2.42745,10.165044 0.14334,0 0.95299,-1.056683 1.79921,-2.348184 z m 14.67664,-9.510991 C 208.38762,45.731303 208.62092,38.37092 207,36.75 c -2.04797,-2.047967 -2.53836,-1.181123 -2.41313,4.265625 0.22189,9.650664 -0.79645,22.756454 -1.85008,23.810083 -0.74278,0.742779 -0.74612,1.650803 -0.012,3.262006 0.55951,1.227991 1.18774,2.062267 1.39605,1.853948 0.20833,-0.208319 1.19439,-5.37807 2.19125,-11.488337 z m -4.42127,6.46141 c 0.24144,-0.390646 0.73302,-2.277708 1.09242,-4.193471 0.58894,-3.139304 0.41222,-3.593121 -1.78989,-4.596468 -1.84364,-0.84002 -3.0186,-0.851157 -4.78709,-0.04537 -1.92246,0.875931 -2.34375,1.731521 -2.34375,4.759858 0,2.076386 0.5128,3.898896 1.17187,4.164835 1.85612,0.748962 6.17415,0.690983 6.65644,-0.08938 z m 132.79685,22.19464 c 9e-5,-0.214844 0.64421,-3.756405 1.43139,-7.870135 1.82535,-9.539112 0.96182,-12.276006 -4.08454,-12.945705 -2.96881,-0.393988 -3.7945,-0.05323 -6.01969,2.484298 -2.18482,2.491487 -2.49771,3.513991 -2.04744,6.690917 0.29233,2.0625 0.70971,5.226562 0.92753,7.03125 0.95958,7.950488 -1.31478,-2.847581 -3.38092,-16.051718 l -2.14497,-13.707968 2.18912,-5.979532 c 2.98327,-8.148737 6.40008,-14.885782 7.54958,-14.885782 2.00047,0 2.00678,3.19797 0.0198,10.036368 -1.1335,3.901021 -1.7173,7.402774 -1.29733,7.781673 0.41995,0.378898 2.71226,0.938894 5.09401,1.244434 l 4.33046,0.555529 0.58687,-4.2817 c 0.32278,-2.354936 0.33253,-5.872252 0.0217,-7.816257 -0.67593,-4.226987 0.8131,-5.630444 3.44585,-3.247835 2.35088,2.127512 2.34847,8.615944 -0.008,21.977788 -2.21793,12.575369 -5.57552,28.33712 -6.16117,28.922772 -0.24873,0.248725 -0.45215,0.276446 -0.45207,0.0616 z m -8.98972,-19.145059 c 1.39654,-2.13139 1.40969,-2.84562 0.14246,-7.736069 -1.35834,-5.241965 -1.32135,-5.641743 1.36536,-14.761191 2.88882,-9.805431 3.33568,-12.654556 1.98476,-12.654556 -0.82436,0 -4.18671,7.144434 -7.20032,15.299496 -1.48817,4.027085 -1.54458,5.33541 -0.51892,12.03546 1.08133,7.063682 1.82195,10.165044 2.42745,10.165044 0.14334,0 0.95299,-1.056683 1.79921,-2.348184 z m 14.67664,-9.510991 C 342.45012,45.731303 342.68342,38.37092 341.0625,36.75 c -2.04797,-2.047967 -2.53836,-1.181123 -2.41312,4.265625 0.22188,9.650664 -0.79646,22.756454 -1.85009,23.810083 -0.74278,0.742779 -0.74612,1.650803 -0.012,3.262006 0.55951,1.227991 1.18774,2.062267 1.39605,1.853948 0.20833,-0.208319 1.19439,-5.37807 2.19125,-11.488337 z m -4.42127,6.46141 c 0.24144,-0.390646 0.73302,-2.277708 1.09242,-4.193471 0.58894,-3.139304 0.41222,-3.593121 -1.78989,-4.596468 -1.84364,-0.84002 -3.0186,-0.851157 -4.78709,-0.04537 -1.92246,0.875931 -2.34375,1.731521 -2.34375,4.759858 0,2.076386 0.5128,3.898896 1.17187,4.164835 1.85612,0.748962 6.17415,0.690983 6.65644,-0.08938 z m 126.23435,22.19464 c 9e-5,-0.214844 0.64421,-3.756405 1.43139,-7.870135 1.82535,-9.539112 0.96182,-12.276006 -4.08454,-12.945705 -2.96881,-0.393988 -3.7945,-0.05323 -6.01969,2.484298 -2.18482,2.491487 -2.49771,3.513991 -2.04744,6.690917 0.29233,2.0625 0.70971,5.226562 0.92753,7.03125 0.95958,7.950488 -1.31478,-2.847581 -3.38092,-16.051718 l -2.14497,-13.707968 2.18912,-5.979532 c 2.98327,-8.148737 6.40008,-14.885782 7.54958,-14.885782 2.00047,0 2.00678,3.19797 0.0198,10.036368 -1.1335,3.901021 -1.7173,7.402774 -1.29733,7.781673 0.41995,0.378898 2.71226,0.938894 5.09401,1.244434 l 4.33046,0.555529 0.58687,-4.2817 c 0.32278,-2.354936 0.33253,-5.872252 0.0217,-7.816257 -0.67593,-4.226987 0.8131,-5.630444 3.44585,-3.247835 2.35088,2.127512 2.34847,8.615944 -0.008,21.977788 -2.21793,12.575369 -5.57552,28.33712 -6.16117,28.922772 -0.24873,0.248725 -0.45215,0.276446 -0.45207,0.0616 z m -8.98972,-19.145059 c 1.39654,-2.13139 1.40969,-2.84562 0.14246,-7.736069 -1.35834,-5.241965 -1.32135,-5.641743 1.36536,-14.761191 2.88882,-9.805431 3.33568,-12.654556 1.98476,-12.654556 -0.82436,0 -4.18671,7.144434 -7.20032,15.299496 -1.48817,4.027085 -1.54458,5.33541 -0.51892,12.03546 1.08133,7.063682 1.82195,10.165044 2.42745,10.165044 0.14334,0 0.95299,-1.056683 1.79921,-2.348184 z m 14.67664,-9.510991 C 469.95012,45.731303 470.18342,38.37092 468.5625,36.75 c -2.04797,-2.047967 -2.53836,-1.181123 -2.41312,4.265625 0.22188,9.650664 -0.79646,22.756454 -1.85009,23.810083 -0.74278,0.742779 -0.74612,1.650803 -0.012,3.262006 0.55951,1.227991 1.18774,2.062267 1.39605,1.853948 0.20833,-0.208319 1.19439,-5.37807 2.19125,-11.488337 z m -4.42127,6.46141 c 0.24144,-0.390646 0.73302,-2.277708 1.09242,-4.193471 0.58894,-3.139304 0.41222,-3.593121 -1.78989,-4.596468 -1.84364,-0.84002 -3.0186,-0.851157 -4.78709,-0.04537 -1.92246,0.875931 -2.34375,1.731521 -2.34375,4.759858 0,2.076386 0.5128,3.898896 1.17187,4.164835 1.85612,0.748962 6.17415,0.690983 6.65644,-0.08938 z M 465,21.916458 c 0,-3.745741 -0.19074,-4.175239 -1.40625,-3.166458 -0.77344,0.641896 -1.40625,0.758938 -1.40625,0.260093 0,-0.994587 3.05167,-4.010093 4.05819,-4.010093 0.34612,0 0.62931,2.53125 0.62931,5.625 0,3.125 -0.41666,5.625 -0.9375,5.625 C 465.42187,26.25 465,24.299906 465,21.916458 Z m 5.6793,2.992718 c -1.59559,-1.92256 -0.85594,-8.104518 1.11757,-9.340683 2.54601,-1.594767 4.87016,0.416186 5.21675,4.513755 0.32386,3.828946 -1.0322,6.167752 -3.57612,6.167752 -0.90498,0 -2.14617,-0.60337 -2.7582,-1.340824 z m 4.16445,-4.362301 c 0,-2.222222 -0.43064,-3.203125 -1.40625,-3.203125 -1.50097,0 -2.37963,3.426487 -1.4799,5.771141 0.95091,2.478017 2.88615,0.756091 2.88615,-2.568016 z m 4.44494,4.53125 c -0.51749,-0.644531 -0.88555,-2.813781 -0.81791,-4.820553 0.24057,-7.137941 6.56787,-7.137941 6.80844,0 0.13742,4.077281 -0.95055,5.992428 -3.40422,5.992428 -0.90498,0 -2.06882,-0.527344 -2.58631,-1.171875 z M 483.75,22.96875 c 0,-0.78125 -0.83333,-1.40625 -1.875,-1.40625 -1.04167,0 -1.875,0.625 -1.875,1.40625 0,0.78125 0.83333,1.40625 1.875,1.40625 1.04167,0 1.875,-0.625 1.875,-1.40625 z m 0,-4.6875 c 0,-0.78125 -0.83333,-1.40625 -1.875,-1.40625 -1.04167,0 -1.875,0.625 -1.875,1.40625 0,0.78125 0.83333,1.40625 1.875,1.40625 1.04167,0 1.875,-0.625 1.875,-1.40625 z m 3.8043,6.627926 c -0.61203,-0.737453 -0.98009,-2.90957 -0.81792,-4.826928 0.5753,-6.801451 6.57694,-6.801451 7.15224,0 0.32386,3.828946 -1.0322,6.167752 -3.57612,6.167752 -0.90498,0 -2.14617,-0.60337 -2.7582,-1.340824 z m 4.16445,-4.362301 c 0,-2.222222 -0.43064,-3.203125 -1.40625,-3.203125 -1.50097,0 -2.37963,3.426487 -1.4799,5.771141 0.95091,2.478017 2.88615,0.756091 2.88615,-2.568016 z m 4.58437,-1.258837 c -0.85294,-2.22271 0.3539,-4.4675 2.20967,-4.110112 1.03784,0.19987 1.64346,1.170727 1.64346,2.634574 0,2.672463 -2.95901,3.805599 -3.85313,1.475538 z m 2.13027,-2.647413 c -0.26007,-0.644531 -0.47287,-0.117188 -0.47287,1.171875 0,1.289062 0.2128,1.816406 0.47287,1.171875 0.26007,-0.644531 0.26007,-1.699219 0,-2.34375 z"
       id="path3438"
       inkscape:connector-curvature="0" />
  </g>
</svg>
