<?xml version="1.0" encoding="UTF-8" standalone="no"?>
<!-- Created with Inkscape (http://www.inkscape.org/) -->

<svg
   xmlns:dc="http://purl.org/dc/elements/1.1/"
   xmlns:cc="http://creativecommons.org/ns#"
   xmlns:rdf="http://www.w3.org/1999/02/22-rdf-syntax-ns#"
   xmlns:svg="http://www.w3.org/2000/svg"
   xmlns="http://www.w3.org/2000/svg"
   xmlns:sodipodi="http://sodipodi.sourceforge.net/DTD/sodipodi-0.dtd"
   xmlns:inkscape="http://www.inkscape.org/namespaces/inkscape"
   id="svg3426"
   version="1.1"
   inkscape:version="0.91 r13725"
   width="750"
   height="375"
   viewBox="0 0 750 375"
   sodipodi:docname="bb350600.svg">
  <metadata
     id="metadata3432">
    <rdf:RDF>
      <cc:Work
         rdf:about="">
        <dc:format>image/svg+xml</dc:format>
        <dc:type
           rdf:resource="http://purl.org/dc/dcmitype/StillImage" />
        <dc:title></dc:title>
      </cc:Work>
    </rdf:RDF>
  </metadata>
  <defs
     id="defs3430" />
  <sodipodi:namedview
     pagecolor="#b1b1b1"
     bordercolor="#666666"
     borderopacity="1"
     objecttolerance="10"
     gridtolerance="10"
     guidetolerance="10"
     inkscape:pageopacity="0"
     inkscape:pageshadow="2"
     inkscape:window-width="1658"
     inkscape:window-height="869"
     id="namedview3428"
     showgrid="false"
     inkscape:zoom="1.1949417"
     inkscape:cx="345.56204"
     inkscape:cy="155.14653"
     inkscape:window-x="0"
     inkscape:window-y="0"
     inkscape:window-maximized="0"
     inkscape:current-layer="svg3426" />
  <g
     id="g3436"
     transform="translate(-5.4443305,83.695811)">
    <path
       style="fill:#fefefe"
       d="m 25,125 c -0.34375,-0.34375 -0.625,-1.82031 -0.625,-3.28125 l 0,-2.65625 354.375,0 354.375,0 0,3.28125 0,3.28125 -353.75,0 C 184.8125,125.625 25.34375,125.34375 25,125 Z m 35.234375,-7.84171 c -3.091681,-1.24271 -2.581775,-2.57981 1.40625,-3.68753 3.651426,-1.01422 14.221046,-6.76413 26.696587,-14.523035 7.059169,-4.390294 7.30366,-4.465472 9.609375,-2.954709 4.649073,3.04619 3.261403,4.390824 -12.705639,12.311644 -8.289353,4.11213 -15.512885,8.00393 -16.052292,8.64847 -1.124654,1.34383 -5.851944,1.45214 -8.954281,0.20516 z m 51.085065,-1.25874 c -1.93837,-1.1918 -3.77691,-2.41953 -4.08565,-2.72826 -0.92658,-0.92658 6.26938,-11.99397 8.42431,-12.95659 1.81275,-0.809775 1.78069,-0.844416 -0.3456,-0.373388 -1.28906,0.285558 -4.3625,0.779858 -6.82985,1.098438 l -4.48608,0.57923 2.56761,-3.921705 2.56762,-3.921712 6.60597,0.271593 c 6.58505,0.270732 6.60684,0.28051 6.87912,3.084094 0.22709,2.338247 -0.60284,3.67656 -4.92187,7.93672 -2.85726,2.81833 -5.19502,5.59245 -5.19502,6.16471 0,0.57226 1.05469,2.0313 2.34375,3.24232 4.40148,4.13497 2.24119,5.06947 -3.52431,1.52455 z m 36.10243,-0.19665 c -1.67578,-1.32071 -3.04687,-2.9157 -3.04687,-3.5444 0,-0.62871 1.80893,-2.91845 4.01986,-5.0883 3.39444,-3.33139 4.59778,-3.9371 7.73437,-3.89311 l 3.71452,0.052 -2.72911,2.0573 c -7.76334,5.85226 -7.75439,5.8388 -5.94277,8.92589 0.90235,1.53763 1.64063,3.047 1.64063,3.35417 0,1.26436 -2.53268,0.38878 -5.39063,-1.86362 z m 83.20313,1.92037 c 0,-0.27595 0.68272,-1.5437 1.51715,-2.8172 1.03375,-1.57771 1.22303,-2.68734 0.59405,-3.48264 -0.5077,-0.64195 -3.72167,-4.65842 -7.14214,-8.9255 -3.42048,-4.267077 -6.21906,-8.139289 -6.21906,-8.604908 0,-3.739162 7.63685,-4.857307 16.69929,-2.445023 6.58978,1.754097 9.55071,3.782282 9.55071,6.542057 0,4.806634 -6.97799,4.558124 -17.34375,-0.617681 -1.30096,-0.649594 -0.98159,0.03122 1.04319,2.223825 3.95456,4.28229 7.86306,10.3011 7.86306,12.10853 0,0.81509 -1.18324,2.61559 -2.62943,4.00112 -2.49423,2.38963 -3.93307,3.12766 -3.93307,2.01742 z m 56.25,-1.07188 c -1.80469,-0.78136 -3.45068,-1.58434 -3.65774,-1.78439 -0.20707,-0.20006 1.16833,-2.6904 3.05645,-5.53411 3.13365,-4.71962 3.73554,-5.17039 6.90375,-5.17039 l 3.47081,0 -4.57255,4.64234 -4.57253,4.64235 2.96123,1.68578 c 5.38235,3.06409 2.65011,4.2199 -3.58942,1.51842 z m 54.60937,-0.84849 c -1.67578,-1.32071 -3.04687,-2.9157 -3.04687,-3.5444 0,-0.62871 1.80893,-2.91845 4.01986,-5.0883 3.39444,-3.33139 4.59778,-3.9371 7.73437,-3.89311 l 3.71452,0.052 -2.72911,2.0573 c -7.76334,5.85226 -7.75439,5.8388 -5.94277,8.92589 0.90235,1.53763 1.64063,3.047 1.64063,3.35417 0,1.26436 -2.53268,0.38878 -5.39063,-1.86362 z m 85.07813,1.92037 c 0,-0.27595 0.68272,-1.5437 1.51715,-2.8172 1.03375,-1.57771 1.22303,-2.68734 0.59405,-3.48264 -0.5077,-0.64195 -3.72167,-4.65842 -7.14214,-8.9255 -3.42048,-4.267077 -6.21906,-8.139289 -6.21906,-8.604908 0,-3.739162 7.63685,-4.857307 16.69929,-2.445023 6.58978,1.754097 9.55071,3.782282 9.55071,6.542057 0,4.806634 -6.97799,4.558124 -17.34375,-0.617681 -1.30096,-0.649594 -0.98159,0.03122 1.04319,2.223825 3.95456,4.28229 7.86306,10.3011 7.86306,12.10853 0,0.81509 -1.18324,2.61559 -2.62942,4.00112 -2.49424,2.38963 -3.93308,3.12766 -3.93308,2.01742 z m 56.25,-1.07188 c -1.80469,-0.78136 -3.45068,-1.58434 -3.65774,-1.78439 -0.20707,-0.20006 1.16833,-2.6904 3.05645,-5.53411 3.13365,-4.71962 3.73554,-5.17039 6.90375,-5.17039 l 3.47081,0 -4.57255,4.64234 -4.57253,4.64235 2.96123,1.68578 c 5.38235,3.06409 2.65011,4.2199 -3.58942,1.51842 z m 48.98437,-0.84849 c -1.67578,-1.32071 -3.04687,-2.9157 -3.04687,-3.5444 0,-0.62871 1.80893,-2.91845 4.01986,-5.0883 3.39444,-3.33139 4.59778,-3.9371 7.73437,-3.89311 l 3.71452,0.052 -2.72911,2.0573 c -7.76334,5.85226 -7.75439,5.8388 -5.94277,8.92589 0.90235,1.53763 1.64063,3.047 1.64063,3.35417 0,1.26436 -2.53268,0.38878 -5.39063,-1.86362 z m 85.07813,1.92037 c 0,-0.27595 0.68272,-1.5437 1.51715,-2.8172 1.03375,-1.57771 1.22303,-2.68734 0.59405,-3.48264 -0.5077,-0.64195 -3.72167,-4.65842 -7.14214,-8.9255 -3.42048,-4.267077 -6.21906,-8.139289 -6.21906,-8.604908 0,-3.739162 7.63685,-4.857307 16.69929,-2.445023 6.58978,1.754097 9.55071,3.782282 9.55071,6.542057 0,4.806634 -6.97799,4.558124 -17.34375,-0.617681 -1.30096,-0.649594 -0.98159,0.03122 1.04319,2.223825 3.95456,4.28229 7.86306,10.3011 7.86306,12.10853 0,0.81509 -1.18324,2.61559 -2.62942,4.00112 -2.49424,2.38963 -3.93308,3.12766 -3.93308,2.01742 z m 63.51562,-1.48117 c -3.12241,-2.32957 -3.1929,-3.34572 -0.46409,-6.69124 1.76328,-2.16179 2.53154,-2.4629 4.73579,-1.85608 l 2.63107,0.72433 -3.0136,2.22805 -3.01361,2.22805 3.19503,2.64968 c 3.13316,2.59834 3.14965,2.64959 0.85129,2.64519 -1.28906,-0.003 -3.50391,-0.87006 -4.92188,-1.92798 z m 22.73438,-4.69228 c -7.47656,-1.98722 -16.75781,-4.27328 -20.625,-5.08013 -8.69446,-1.81403 -10.0857,-2.93528 -8.26257,-6.659093 1.90398,-3.888985 4.63578,-3.411038 27.37775,4.789833 10.77115,3.88414 20.57974,7.06207 21.79687,7.06207 3.40995,0 2.62098,1.67355 -1.30267,2.76321 -4.32483,1.20107 -2.74537,1.44032 -18.98438,-2.87589 z M 291.91174,103.16108 C 281.7986,102.51409 277.5,100.85335 277.5,97.593178 c 0,-4.499153 6.61031,-4.795536 21.7187,-0.973781 3.9531,0.999956 9.96482,1.818103 13.35937,1.818103 6.73409,0 8.07906,1.370381 4.08833,4.16559 -2.23593,1.56611 -7.23505,1.67879 -24.75466,0.55798 z m 195.9375,0 c -10.11314,-0.64699 -14.41174,-2.30773 -14.41174,-5.567902 0,-4.499153 6.61031,-4.795536 21.7187,-0.973781 3.9531,0.999956 9.96482,1.818103 13.35937,1.818103 6.73409,0 8.07906,1.370381 4.08833,4.16559 -2.23593,1.56611 -7.23505,1.67879 -24.75466,0.55798 z m -346.52112,-1.98617 c -4.24209,-2.470794 -0.63538,-6.675904 6.45411,-7.524941 3.02446,-0.362208 7.89628,-0.965831 10.82628,-1.341383 2.92999,-0.375553 6.09405,-0.320446 7.03125,0.122459 1.18574,0.560367 -0.57704,0.987091 -5.79601,1.403068 -4.67861,0.3729 -0.35813,0.55769 11.48501,0.491203 10.44176,-0.05859 18.98472,0.159768 18.98438,0.485287 -3.5e-4,0.325519 -1.37173,1.624472 -3.04752,2.886563 -2.37352,1.787587 -5.05482,2.537324 -12.13273,3.392524 -11.09624,1.34072 -31.56063,1.39231 -33.80477,0.0852 z m 194.0625,0 c -4.24209,-2.470794 -0.63538,-6.675904 6.45411,-7.524941 3.02446,-0.362208 7.89628,-0.965831 10.82628,-1.341383 2.92999,-0.375553 6.09405,-0.320446 7.03125,0.122459 1.18574,0.560367 -0.57704,0.987091 -5.79601,1.403068 -4.67861,0.3729 -0.35813,0.55769 11.48501,0.491203 10.44176,-0.05859 18.98472,0.159768 18.98438,0.485287 -3.5e-4,0.325519 -1.37173,1.624472 -3.04752,2.886563 -2.37352,1.787587 -5.05482,2.537324 -12.13273,3.392524 -11.09624,1.34072 -31.56063,1.39231 -33.80477,0.0852 z m 190.3125,0 c -4.24209,-2.470794 -0.63538,-6.675904 6.45411,-7.524941 3.02446,-0.362208 7.89628,-0.965831 10.82628,-1.341383 2.92999,-0.375553 6.09405,-0.320446 7.03125,0.122459 1.18574,0.560367 -0.57704,0.987091 -5.79601,1.403068 -4.67861,0.3729 -0.35812,0.55769 11.48501,0.491203 10.44176,-0.05859 18.98472,0.159768 18.98438,0.485287 -3.5e-4,0.325519 -1.37173,1.624472 -3.04752,2.886563 -2.37352,1.787587 -5.05482,2.537324 -12.13273,3.392524 -11.09624,1.34072 -31.56063,1.39231 -33.80477,0.0852 z M 199.80631,99.07515 C 197.16284,98.070712 195,96.883519 195,96.43695 c 0,-0.446569 2.63672,-0.814397 5.85937,-0.817378 3.22266,-0.0028 8.3801,-0.4182 11.46097,-0.922688 5.46299,-0.894562 5.65264,-0.853828 7.66441,1.646054 1.13454,1.409821 1.77788,2.833753 1.42965,3.164287 -0.34823,0.330534 -4.27109,0.779445 -8.71747,0.997575 -6.43864,0.31587 -9.0627,0.0248 -12.89062,-1.42965 z m 195.9375,0 c -2.64347,-1.004438 -4.80631,-2.191631 -4.80631,-2.6382 0,-0.446569 2.63672,-0.814397 5.85937,-0.817378 3.22266,-0.0028 8.3801,-0.4182 11.46097,-0.922688 5.46299,-0.894562 5.65264,-0.853828 7.66441,1.646054 1.13454,1.409821 1.77788,2.833753 1.42965,3.164287 -0.34823,0.330534 -4.27109,0.779445 -8.71747,0.997575 -6.43864,0.31587 -9.0627,0.0248 -12.89062,-1.42965 z m 190.3125,0 c -2.64347,-1.004438 -4.80631,-2.191631 -4.80631,-2.6382 0,-0.446569 2.63672,-0.814397 5.85937,-0.817378 3.22266,-0.0028 8.3801,-0.4182 11.46097,-0.922688 5.46299,-0.894562 5.65264,-0.853828 7.66441,1.646054 1.13454,1.409821 1.77788,2.833753 1.42965,3.164287 -0.34823,0.330534 -4.27109,0.779445 -8.71747,0.997575 -6.43864,0.31587 -9.0627,0.0248 -12.89062,-1.42965 z m 106.32902,1.32593 c -1.81956,-0.711699 -1.81956,-0.725161 0,-1.780589 2.25168,-1.306078 0.97727,-1.480866 -1.42466,-0.195394 -2.1338,1.141978 -9.22856,-1.46971 -7.81971,-2.878556 1.34252,-1.342519 14.44481,-3.853279 16.89676,-3.23788 2.85593,0.716795 2.71703,3.090402 -0.36937,6.311914 -2.5737,2.686355 -4.04655,3.046435 -7.28302,1.780505 z M 294.84375,94.693191 c -5.94741,-1.498943 -6.34282,-1.740696 -4.21875,-2.579275 1.28906,-0.508918 4.77105,-1.223289 7.73775,-1.587492 4.34995,-0.534014 5.49805,-0.391036 5.93156,0.738688 0.57086,1.487612 -1.08884,5.371122 -2.21792,5.189716 -0.36857,-0.05925 -3.62327,-0.851953 -7.23264,-1.761637 z m 195.9375,0 c -5.94741,-1.498943 -6.34282,-1.740696 -4.21875,-2.579275 1.28906,-0.508918 4.77105,-1.223289 7.73775,-1.587492 4.34995,-0.534014 5.49805,-0.391036 5.93156,0.738688 0.57086,1.487612 -1.08884,5.371122 -2.21792,5.189716 -0.36857,-0.05925 -3.62327,-0.851953 -7.23264,-1.761637 z M 108.04688,88.441612 C 106.19087,87.692698 106.68437,86.25 108.79656,86.25 c 2.30523,0 7.45344,-2.532338 7.45344,-3.666253 0,-0.443082 -1.05469,-1.496661 -2.34375,-2.341287 C 111.6273,78.749235 110.61967,75 112.4973,75 c 1.52185,0 8.4402,6.663614 8.4402,8.129429 0,0.741813 -2.33234,2.380223 -5.18298,3.640911 -5.37045,2.375068 -5.75618,2.458706 -7.70764,1.671272 z M 76.875,82.066481 c 0,-1.946451 12.615745,-7.763465 18.515625,-8.537398 3.872953,-0.508046 4.918815,-0.370159 4.907525,0.647013 -0.0256,2.302421 -1.318494,3.16269 -5.1419,3.421254 -4.312886,0.291666 -11.500112,2.690747 -13.66757,4.562206 -1.952789,1.686107 -4.61368,1.632427 -4.61368,-0.09307 z M 675.66895,75.535023 C 674.02407,73.890147 667.5,54.270058 667.5,50.968241 c 0,-1.220032 0.34419,-2.218241 0.76487,-2.218241 1.01839,0 4.45802,6.351341 5.24482,9.684679 0.34449,1.459386 1.90623,5.362339 3.47055,8.673229 2.83778,6.006172 3.18695,8.827213 1.17545,9.496883 -0.58468,0.194653 -1.70371,-0.286743 -2.48674,-1.069768 z M 142.17357,73.133496 c -1.00048,-5.002411 -0.70878,-9.1454 0.68149,-9.678894 1.81976,-0.698306 2.68066,7.483655 1.10405,10.492738 l -1.17447,2.241527 -0.61107,-3.055371 z m 194.0625,0 c -1.00048,-5.002411 -0.70878,-9.1454 0.68149,-9.678894 1.81976,-0.698306 2.68066,7.483655 1.10405,10.492738 l -1.17447,2.241527 -0.61107,-3.055371 z m 190.3125,0 c -1.00048,-5.002411 -0.70878,-9.1454 0.68149,-9.678894 1.81976,-0.698306 2.68066,7.483655 1.10405,10.492738 l -1.17447,2.241527 -0.61107,-3.055371 z M 105,73.133507 c -1.22776,-0.78601 -1.16826,-1.349418 0.46875,-4.438769 1.1719,-2.211603 2.66599,-3.650826 3.98438,-3.838067 1.86223,-0.264479 2.10937,0.107861 2.10937,3.177897 0,4.756958 -3.20587,7.247856 -6.5625,5.098939 z m 51.22683,-4.330997 c 0.92705,-7.887805 0.9119,-17.486966 -0.0307,-19.431881 -0.70362,-1.451869 -0.48771,-1.67324 1.37155,-1.40625 2.81831,0.40471 3.89359,4.714707 3.11968,12.504371 -0.51727,5.206425 -3.32406,13.59375 -4.54912,13.59375 -0.29131,0 -0.25146,-2.366995 0.0886,-5.25999 z m 194.0625,0 c 0.92705,-7.887805 0.9119,-17.486966 -0.0307,-19.431881 -0.70362,-1.451869 -0.48771,-1.67324 1.37155,-1.40625 2.81831,0.40471 3.89359,4.714707 3.11968,12.504371 -0.51727,5.206425 -3.32406,13.59375 -4.54912,13.59375 -0.29131,0 -0.25145,-2.366995 0.0886,-5.25999 z m 190.3125,0 c 0.92705,-7.887805 0.9119,-17.486966 -0.0307,-19.431881 -0.70362,-1.451869 -0.48771,-1.67324 1.37155,-1.40625 2.81831,0.40471 3.89359,4.714707 3.11968,12.504371 -0.51727,5.206425 -3.32406,13.59375 -4.54912,13.59375 -0.29131,0 -0.25146,-2.366995 0.0886,-5.25999 z M 277.17576,67.194482 c -1.61258,-6.419692 -2.06579,-13.767497 -0.84764,-13.742626 1.68254,0.03435 2.82884,1.617953 3.38267,4.673144 1.67997,9.267343 1.70542,10.109572 0.38185,12.6357 l -1.36614,2.607355 -1.55074,-6.173573 z m 13.6793,3.732353 c -0.82085,-1.812077 -0.89165,-3.128128 -0.23437,-4.356278 1.59041,-2.971704 1.1303,-9.19456 -0.82434,-11.149206 -2.23671,-2.236718 -4.19204,-14.150664 -2.586,-15.756709 1.02968,-1.029674 1.35731,-0.0727 3.39004,9.902088 2.26464,11.112828 2.44447,26.194165 0.25467,21.360105 z m 182.2582,-3.732353 c -1.61258,-6.419692 -2.06579,-13.767497 -0.84764,-13.742626 1.68254,0.03435 2.82884,1.617953 3.38267,4.673144 1.67997,9.267343 1.70542,10.109572 0.38185,12.6357 l -1.36614,2.607355 -1.55074,-6.173573 z m 13.6793,3.732353 c -0.82085,-1.812077 -0.89165,-3.128128 -0.23437,-4.356278 1.59041,-2.971704 1.1303,-9.19456 -0.82434,-11.149206 -2.23671,-2.236718 -4.19204,-14.150664 -2.586,-15.756709 1.02968,-1.029674 1.35731,-0.0727 3.39004,9.902088 2.26464,11.112828 2.44447,26.194165 0.25467,21.360105 z M 232.33071,69.657026 c -0.17116,-0.888761 -0.15878,-3.214238 0.0275,-5.167728 0.24417,-2.559913 0.77663,-3.551798 1.90669,-3.551798 2.72866,0 5.73513,2.782493 5.73513,5.30788 0,2.214901 -0.26869,2.363438 -3.68575,2.037568 -2.75473,-0.262706 -3.45368,-0.07185 -2.76698,0.755566 0.59448,0.716303 0.59684,1.306024 0.007,1.67075 -0.50163,0.31003 -1.0521,-0.163476 -1.22326,-1.052238 z m 10.12463,0.836037 c -0.29258,-0.473414 -0.086,-3.392618 0.45909,-6.48712 0.94107,-5.342503 0.85141,-5.904761 -1.77691,-11.144281 -3.70743,-7.390654 -4.40007,-9.750915 -2.84132,-9.68228 0.67928,0.02991 2.71161,3.017801 4.5163,6.639759 2.88973,5.79961 3.28125,7.440696 3.28125,13.75365 0,5.924965 -0.2694,7.221411 -1.55321,7.474648 -0.85427,0.168507 -1.79261,-0.08096 -2.0852,-0.554376 z m 185.81065,-0.847515 c -0.16994,-0.882448 -0.15656,-3.20276 0.0297,-5.15625 0.37839,-3.967742 2.00597,-4.58045 5.55818,-2.092388 1.35063,0.946017 2.0836,2.430093 2.0836,4.21875 10e-6,2.397134 -0.34456,2.75934 -2.62499,2.75934 -1.44375,0 -3.13125,-0.421875 -3.75,-0.9375 -0.81818,-0.681818 -0.86932,-0.630682 -0.1875,0.1875 1.17486,1.409825 1.20668,2.625 0.0687,2.625 -0.47782,0 -1.0078,-0.722003 -1.17774,-1.604452 z m 10.12685,0.847515 c -0.29258,-0.473414 -0.086,-3.392618 0.45909,-6.48712 0.94107,-5.342503 0.85141,-5.904761 -1.77691,-11.144281 -3.70743,-7.390654 -4.40007,-9.750915 -2.84132,-9.68228 0.67928,0.02991 2.71161,3.017801 4.5163,6.639759 2.88973,5.79961 3.28125,7.440696 3.28125,13.75365 0,5.924965 -0.2694,7.221411 -1.55321,7.474648 -0.85427,0.168507 -1.79261,-0.08096 -2.0852,-0.554376 z m 180.18565,-0.847515 c -0.16994,-0.882448 -0.15656,-3.20276 0.0297,-5.15625 0.37839,-3.967742 2.00597,-4.58045 5.55818,-2.092388 1.35063,0.946017 2.0836,2.430093 2.0836,4.21875 1e-5,2.397134 -0.34456,2.75934 -2.62499,2.75934 -1.44375,0 -3.13125,-0.421875 -3.75,-0.9375 -0.81818,-0.681818 -0.86932,-0.630682 -0.1875,0.1875 1.17486,1.409825 1.20667,2.625 0.0687,2.625 -0.47782,0 -1.0078,-0.722003 -1.17774,-1.604452 z m 10.12685,0.847515 c -0.29258,-0.473414 -0.086,-3.392618 0.45909,-6.48712 0.94107,-5.342503 0.85141,-5.904761 -1.77691,-11.144281 -3.70743,-7.390654 -4.40007,-9.750915 -2.84132,-9.68228 0.67928,0.02991 2.71161,3.017801 4.5163,6.639759 2.88973,5.79961 3.28125,7.440696 3.28125,13.75365 0,5.924965 -0.2694,7.221411 -1.55321,7.474648 -0.85427,0.168507 -1.79261,-0.08096 -2.0852,-0.554376 z m 50.06253,-1.084672 c -1.47097,-2.748533 -1.14963,-4.478506 1.12823,-6.073981 3.3701,-2.360513 4.4789,-1.830709 4.4789,2.140107 0,2.922341 -0.43757,3.798886 -2.32588,4.659259 -1.97339,0.899138 -2.47066,0.789206 -3.28125,-0.725385 z M 282.8125,67.8125 c -0.34375,-0.34375 -0.625,-2.227345 -0.625,-4.185765 0,-3.915629 2.15659,-5.859941 5.90773,-5.326227 1.55628,0.221427 2.13218,1.028817 2.35156,3.296799 0.41423,4.282172 -1.22601,6.840193 -4.38603,6.840193 -1.44279,0 -2.90451,-0.28125 -3.24826,-0.625 z m 195.9375,0 c -0.34375,-0.34375 -0.625,-2.227345 -0.625,-4.185765 0,-3.915629 2.15659,-5.859941 5.90773,-5.326227 1.55628,0.221427 2.13218,1.028817 2.35156,3.296799 0.41423,4.282172 -1.22601,6.840193 -4.38603,6.840193 -1.44279,0 -2.90451,-0.28125 -3.24826,-0.625 z M 230.33472,60.530137 C 229.50899,54.006919 231.14187,45 233.15022,45 c 0.99968,0 1.16681,1.105798 0.74392,4.921875 -0.3,2.707031 -0.94048,6.398437 -1.4233,8.203125 -0.48282,1.804687 -1.0025,4.335937 -1.15485,5.625 -0.15235,1.289062 -0.59392,-0.159876 -0.98127,-3.219863 z m 195.9375,0 C 425.44649,54.006919 427.07937,45 429.08772,45 c 0.99968,0 1.16681,1.105798 0.74392,4.921875 -0.3,2.707031 -0.94048,6.398437 -1.4233,8.203125 -0.48282,1.804687 -1.0025,4.335937 -1.15485,5.625 -0.15235,1.289062 -0.59392,-0.159876 -0.98127,-3.219863 z m 190.3125,0 C 615.75899,54.006919 617.39187,45 619.40022,45 c 0.99968,0 1.16681,1.105798 0.74392,4.921875 -0.3,2.707031 -0.94048,6.398437 -1.4233,8.203125 -0.48282,1.804687 -1.0025,4.335937 -1.15485,5.625 -0.15235,1.289062 -0.59392,-0.159876 -0.98127,-3.219863 z m -475.0068,-3.137685 c 0.016,-3.623454 3.33496,-10.554864 5.3752,-11.225819 1.66882,-0.548806 1.45179,2.595186 -0.31382,4.546157 -0.81714,0.902924 -1.71306,3.336811 -1.99095,5.408639 -0.67918,5.063689 -3.09163,6.062334 -3.07043,1.271023 z m 194.0625,0 c 0.016,-3.623454 3.33496,-10.554864 5.3752,-11.225819 1.66882,-0.548806 1.45179,2.595186 -0.31382,4.546157 -0.81714,0.902924 -1.71306,3.336811 -1.99095,5.408639 -0.67918,5.063689 -3.09163,6.062334 -3.07043,1.271023 z m 190.3125,0 c 0.016,-3.623454 3.33496,-10.554864 5.3752,-11.225819 1.66882,-0.548806 1.45179,2.595186 -0.31382,4.546157 -0.81714,0.902924 -1.71306,3.336811 -1.99095,5.408639 -0.67918,5.063689 -3.09162,6.062334 -3.07043,1.271023 z M 277.6069,51.628568 c -1.42701,-0.881943 -0.98799,-3.030861 1.9767,-9.675443 3.53908,-7.931903 4.89575,-4.332243 1.77362,4.705926 -2.00805,5.813039 -2.1281,5.972109 -3.75032,4.969517 z m 195.9375,0 c -1.42701,-0.881943 -0.98799,-3.030861 1.9767,-9.675443 3.53908,-7.931903 4.89575,-4.332243 1.77362,4.705926 -2.00805,5.813039 -2.1281,5.972109 -3.75032,4.969517 z"
       id="path3446"
       inkscape:connector-curvature="0" />
    <path
       style="fill:#007f7f"
       d="m 101.25,99.521166 c 0,-1.036791 -1.11654,-2.763347 -2.481206,-3.836794 -2.324766,-1.828669 -2.383875,-2.059257 -0.9375,-3.657488 1.062984,-1.174577 1.543706,-3.413744 1.543706,-7.190393 0,-3.01654 0.515559,-6.910371 1.14568,-8.652955 0.93081,-2.574093 1.50227,-3.053684 3.04688,-2.55704 1.04566,0.336214 3.01688,0.824151 4.38051,1.084305 1.84382,0.351767 2.62347,1.193814 3.04175,3.285178 0.80098,4.004884 -0.23378,7.316521 -2.28612,7.316521 -2.4426,0 -3.33443,1.953405 -1.50318,3.292449 2.1964,1.606046 1.8784,4.111846 -1.05979,8.351151 -2.95743,4.26705 -4.89073,5.28102 -4.89073,2.565066 z m 570.9375,0.05597 c 0,-0.543515 0.67204,-3.611418 1.49341,-6.817559 1.39613,-5.449637 1.37184,-8.002285 -0.16005,-16.822094 -0.22389,-1.289062 -0.15684,-1.811571 0.14899,-1.161132 0.30584,0.65044 1.39001,1.628934 2.40929,2.174432 2.43733,1.304441 4.54586,-0.399102 4.54586,-3.672715 0,-2.317807 0.0757,-2.353756 1.64062,-0.779614 1.33942,1.347268 1.6067,3.11818 1.45585,9.645907 -0.10163,4.397618 -0.65639,9.424693 -1.23282,11.171278 -0.92984,2.81745 -1.34277,3.116663 -3.66116,2.652985 -2.07826,-0.41565 -3.02522,9.37e-4 -4.62655,2.037056 -1.10739,1.407825 -2.01344,2.11499 -2.01344,1.571475 z M 246.70297,97.410909 c -0.20055,-2.134912 -3.19337,-4.580573 -7.34403,-6.001353 l -3.57769,-1.224631 -1.34687,-8.616493 c -0.94836,-6.067035 -1.05908,-9.076319 -0.37421,-10.170586 1.30956,-2.092352 6.24034,-2.513744 7.7751,-0.664469 0.66375,0.799768 1.80556,1.454123 2.53737,1.454123 1.08784,0 1.21392,1.287011 0.69121,7.055387 -0.51327,5.664063 -0.32104,7.761269 0.97479,10.63491 0.88778,1.968738 1.43204,4.805531 1.20947,6.303984 -0.22257,1.498463 -0.46789,2.051569 -0.54514,1.229147 z m 195.9375,0 c -0.20055,-2.134912 -3.19337,-4.580573 -7.34403,-6.001353 l -3.57769,-1.224631 -1.32637,-8.482128 c -1.08322,-6.927239 -1.10514,-8.748682 -0.11958,-9.936213 1.45662,-1.75512 5.30779,-1.879092 8.76677,-0.282209 2.51117,1.159319 2.53186,1.244957 1.9304,7.992887 -0.48192,5.406894 -0.27333,7.56311 1.00617,10.400535 0.88778,1.968738 1.43204,4.805531 1.20947,6.303984 -0.22257,1.498463 -0.46789,2.051569 -0.54514,1.229147 z m 190.3125,0 c -0.20055,-2.134912 -3.19337,-4.580573 -7.34403,-6.001353 l -3.57769,-1.224631 -1.32637,-8.482128 c -1.08322,-6.927239 -1.10514,-8.748682 -0.11958,-9.936213 1.45662,-1.75512 5.30779,-1.879092 8.76677,-0.282209 2.51117,1.159319 2.53185,1.244957 1.9304,7.992887 -0.48192,5.406894 -0.27333,7.56311 1.00617,10.400535 0.88778,1.968738 1.43204,4.805531 1.20947,6.303984 -0.22257,1.498463 -0.46789,2.051569 -0.54514,1.229147 z M 138.78323,95.347997 c 0.0183,-1.136719 0.61723,-3.121453 1.33103,-4.410516 1.11232,-2.00876 1.96002,-2.34375 5.93095,-2.34375 4.46372,0 4.5981,0.07714 3.67474,2.109375 -0.67181,1.47858 -1.76722,2.109375 -3.66305,2.109375 -1.62158,0 -3.6261,0.921472 -5.00576,2.301141 -2.29911,2.299106 -2.30111,2.299312 -2.26791,0.234375 z m 194.0625,0 c 0.0183,-1.136719 0.61723,-3.121453 1.33103,-4.410516 1.11232,-2.00876 1.96002,-2.34375 5.93095,-2.34375 4.46372,0 4.5981,0.07714 3.67474,2.109375 -0.67181,1.47858 -1.76722,2.109375 -3.66305,2.109375 -1.62158,0 -3.6261,0.921472 -5.00576,2.301141 -2.29911,2.299106 -2.30111,2.299312 -2.26791,0.234375 z m 190.3125,0 c 0.0183,-1.136719 0.61723,-3.121453 1.33103,-4.410516 1.11232,-2.00876 1.96002,-2.34375 5.93095,-2.34375 4.46372,0 4.5981,0.07714 3.67474,2.109375 -0.67181,1.47858 -1.76722,2.109375 -3.66305,2.109375 -1.62158,0 -3.6261,0.921472 -5.00576,2.301141 -2.29911,2.299106 -2.30111,2.299312 -2.26791,0.234375 z M 277.5,93.510533 c 0,-0.773603 0.66646,-3.001616 1.48103,-4.951141 1.08447,-2.595509 1.31417,-4.982113 0.8579,-8.913387 -0.45697,-3.93737 -0.24838,-6.093445 0.78238,-8.086712 1.25707,-2.430897 1.80196,-2.680107 5.15989,-2.359877 5.53808,0.528141 6.19183,2.883858 4.07528,14.684758 l -1.67751,9.352924 -3.98101,-0.287438 c -2.18956,-0.158092 -4.59233,0.219906 -5.33949,0.839996 -1.08363,0.899335 -1.35847,0.84286 -1.35847,-0.279123 z m 195.9375,0 c 0,-0.773603 0.66646,-3.001616 1.48103,-4.951141 1.08447,-2.595509 1.31417,-4.982113 0.8579,-8.913387 -0.45697,-3.93737 -0.24838,-6.093445 0.78238,-8.086712 1.25707,-2.430897 1.80196,-2.680107 5.15989,-2.359877 5.53808,0.528141 6.19183,2.883858 4.07528,14.684758 l -1.67751,9.352924 -3.98101,-0.287438 c -2.18956,-0.158092 -4.59233,0.219906 -5.33949,0.839996 -1.08363,0.899335 -1.35847,0.84286 -1.35847,-0.279123 z m -330.19857,-6.96238 c -1.83129,-0.481374 -1.58559,-3.626181 0.81015,-10.36921 1.25096,-3.520943 1.62428,-3.864286 3.25359,-2.992304 1.01228,0.541751 3.19344,0.854976 4.84704,0.696057 2.48195,-0.23853 3.05716,0.06654 3.29669,1.748454 0.30438,2.137369 -3.07338,9.656282 -4.86921,10.838869 -1.11532,0.734461 -4.69635,0.77259 -7.33826,0.07813 z m 194.0625,0 c -1.83129,-0.481374 -1.58559,-3.626181 0.81015,-10.36921 1.2564,-3.536265 1.61925,-3.866981 3.27212,-2.982392 1.02245,0.547203 3.20362,0.860428 4.84703,0.696056 2.46669,-0.246715 3.03864,0.05661 3.27817,1.738543 0.30438,2.137369 -3.07338,9.656282 -4.86921,10.838869 -1.11532,0.734461 -4.69635,0.77259 -7.33826,0.07813 z m 190.3125,0 c -1.83129,-0.481374 -1.58559,-3.626181 0.81015,-10.36921 1.2564,-3.536265 1.61925,-3.866981 3.27212,-2.982392 1.02245,0.547203 3.20362,0.860428 4.84703,0.696056 2.46669,-0.246715 3.03864,0.05661 3.27817,1.738543 0.30438,2.137369 -3.07338,9.656282 -4.86921,10.838869 -1.11532,0.734461 -4.69635,0.77259 -7.33826,0.07813 z"
       id="path3442"
       inkscape:connector-curvature="0" />
    <path
       style="fill:#fe0000"
       d="m 139.31008,88.026526 c -3.04352,-0.444034 -6.31305,-1.512662 -7.26562,-2.374731 C 130.27091,84.046759 129.61272,78.75 131.18682,78.75 c 0.48088,0 1.12976,-0.804777 1.44194,-1.788393 0.56796,-1.789476 3.15605,-3.364295 4.05371,-2.466629 0.26215,0.262137 -0.64199,1.595221 -2.00917,2.962408 -4.82877,4.828768 -3.07843,7.275161 6.2742,8.769251 5.06811,0.809633 7.86233,0.725355 13.89545,-0.419108 4.15342,-0.787891 7.71234,-1.432529 7.90871,-1.432529 0.19637,0 1.62633,-1.328195 3.17768,-2.951544 2.69622,-2.821328 3.85759,-7.360956 1.88316,-7.360956 -0.51563,0 -0.9375,0.421875 -0.9375,0.9375 0,0.515625 -0.40276,0.9375 -0.89502,0.9375 -0.92815,0 -2.46617,-6.326312 -1.71955,-7.072937 0.59452,-0.594515 8.21842,2.700807 8.23004,3.557312 0.005,0.386719 -0.41235,0.703125 -0.92797,0.703125 -0.51563,0 -0.9375,1.030573 -0.9375,2.290163 0,3.27887 -3.32465,8.45948 -6.33335,9.8689 -2.61108,1.223161 -15.46795,3.821142 -18.04165,3.645671 -0.77344,-0.05273 -3.8964,-0.459175 -6.93992,-0.903208 z m 194.0625,0 c -3.04352,-0.444034 -6.31305,-1.512662 -7.26562,-2.374731 C 324.33341,84.046759 323.67522,78.75 325.24932,78.75 c 0.48088,0 1.12975,-0.804777 1.44194,-1.788393 0.56796,-1.789476 3.15605,-3.364295 4.05371,-2.466629 0.26215,0.262137 -0.64199,1.595221 -2.00917,2.962408 -4.82877,4.828768 -3.07843,7.275161 6.2742,8.769251 5.06811,0.809633 7.86233,0.725355 13.89545,-0.419108 4.15342,-0.787891 7.71234,-1.432529 7.90871,-1.432529 0.19637,0 1.62633,-1.328195 3.17768,-2.951544 2.69622,-2.821328 3.85759,-7.360956 1.88316,-7.360956 -0.51563,0 -0.9375,0.421875 -0.9375,0.9375 0,0.515625 -0.40276,0.9375 -0.89502,0.9375 -0.92815,0 -2.46617,-6.326312 -1.71955,-7.072937 0.59452,-0.594515 8.21842,2.700807 8.23004,3.557312 0.005,0.386719 -0.41235,0.703125 -0.92797,0.703125 -0.51563,0 -0.9375,1.030573 -0.9375,2.290163 0,3.27887 -3.32465,8.45948 -6.33335,9.8689 -2.61108,1.223161 -15.46795,3.821142 -18.04165,3.645671 -0.77344,-0.05273 -3.8964,-0.459175 -6.93992,-0.903208 z m 190.3125,0 c -3.04352,-0.444034 -6.31305,-1.512662 -7.26562,-2.374731 C 514.64591,84.046759 513.98772,78.75 515.56182,78.75 c 0.48088,0 1.12975,-0.804777 1.44194,-1.788393 0.56796,-1.789476 3.15605,-3.364295 4.05371,-2.466629 0.26215,0.262137 -0.64199,1.595221 -2.00917,2.962408 -4.82877,4.828768 -3.07843,7.275161 6.2742,8.769251 5.06811,0.809633 7.86233,0.725355 13.89545,-0.419108 4.15342,-0.787891 7.71234,-1.432529 7.90871,-1.432529 0.19637,0 1.62633,-1.328195 3.17768,-2.951544 2.69622,-2.821328 3.85759,-7.360956 1.88316,-7.360956 -0.51563,0 -0.9375,0.421875 -0.9375,0.9375 0,0.515625 -0.40276,0.9375 -0.89502,0.9375 -0.92815,0 -2.46617,-6.326312 -1.71955,-7.072937 0.59452,-0.594515 8.21842,2.700807 8.23004,3.557312 0.005,0.386719 -0.41235,0.703125 -0.92797,0.703125 -0.51563,0 -0.9375,1.030573 -0.9375,2.290163 0,3.27887 -3.32465,8.45948 -6.33335,9.8689 -2.61108,1.223161 -15.46795,3.821142 -18.04165,3.645671 -0.77344,-0.05273 -3.8964,-0.459175 -6.93992,-0.903208 z"
       id="path3440"
       inkscape:connector-curvature="0" />
    <path
       style="fill:#000000"
       d="m 26.71875,185.8432 7.5,-0.33765 L 45.162936,169.33707 56.107122,153.16859 45.78223,141.50617 C 32.571756,126.58435 32.54684,126.5625 28.747742,126.5625 c -3.84637,0 -5.552362,-1.76912 -5.143609,-5.33393 l 0.302117,-2.63482 17.675452,-0.25542 c 16.013306,-0.2314 17.559428,-0.39521 16.441637,-1.74207 -1.040497,-1.25372 -0.954227,-1.69109 0.550607,-2.79146 0.981432,-0.71764 2.40608,-1.3048 3.165884,-1.3048 2.610987,0 29.768988,-15.709913 34.588295,-20.008069 1.8003,-1.60562 2.109375,-2.825107 2.109375,-8.322831 l 0,-6.441562 -3.515625,0.571177 c -4.825651,0.784013 -11.627884,3.238791 -13.523996,4.880516 -2.113689,1.83011 -4.991629,1.160835 -4.991629,-1.16082 0,-2.664548 12.250815,-8.648369 19.350487,-9.451606 l 5.385773,-0.60933 -1.472226,-2.246894 c -0.972375,-1.484033 -1.292437,-3.354772 -0.942693,-5.509988 0.6267,-3.861915 -1.128066,-4.465434 -3.354516,-1.153718 -0.779962,1.160156 -1.708878,1.829573 -2.064254,1.487591 -0.355376,-0.341981 0.03565,-1.662334 0.86896,-2.934118 1.364494,-2.082481 2.169113,-2.318488 8.094509,-2.374242 8.37092,-0.07877 10.22771,1.414861 10.22771,8.22731 0,3.43089 -0.42776,4.890062 -1.64062,5.596491 -1.45654,0.848357 -1.39783,0.958776 0.52332,0.984085 3.05923,0.0403 10.99429,7.680591 10.18022,9.802043 -0.34069,0.887833 -3.15204,2.707 -6.24743,4.042594 -7.51705,3.24344 -7.42172,4.933871 0.27826,4.933871 6.47636,0 8.15625,0.962391 8.15625,4.67265 0,1.694306 -1.55017,3.95356 -5.15625,7.51485 -2.83594,2.80071 -5.14388,5.52848 -5.12877,6.06172 0.0151,0.53325 1.27479,2.34062 2.79929,4.01641 l 2.7718,3.04687 15.08515,0 15.08514,0 -2.88443,-2.42708 c -1.58643,-1.33491 -2.88443,-2.90097 -2.88443,-3.48014 0,-0.57918 1.77533,-2.862 3.9452,-5.07292 l 3.94519,-4.01986 -4.20535,0 c -5.24602,0 -8.12502,-1.94598 -8.88683,-6.006806 -0.53114,-2.831185 1.46014,-8.993194 2.90619,-8.993194 0.25781,0 -0.1749,1.244675 -0.96158,2.765944 -0.78667,1.521269 -1.43032,3.611465 -1.43032,4.64489 0,1.765585 0.13882,1.740113 2.30114,-0.422193 1.43572,-1.435723 3.37489,-2.301141 5.15625,-2.301141 1.57031,0 2.85511,-0.341242 2.85511,-0.758316 0,-0.417074 0.65608,-1.57723 1.45797,-2.578125 1.40839,-1.757926 1.42433,-1.750174 0.46875,0.227934 -1.4126,2.924169 -1.39633,2.9355 2.99515,2.085954 6.52454,-1.26219 11.59322,-1.009475 12.96759,0.646538 1.04318,1.256951 3.05468,1.446171 12.45782,1.171875 12.73804,-0.371574 13.87435,0.253409 8.36563,4.601187 -3.23035,2.549573 -4.63116,2.922073 -15.26842,4.060223 -11.34572,1.21395 -11.86581,1.36831 -16.64062,4.93914 -2.71088,2.02732 -4.92887,4.01298 -4.92887,4.41259 0,0.3996 0.73828,2.02369 1.64062,3.6091 l 1.64063,2.88254 37.53224,0.006 37.53224,0.006 1.68683,-2.85555 c 1.6647,-2.81811 1.65613,-2.89493 -0.65328,-5.85937 -1.28705,-1.6521 -3.53719,-4.31369 -5.00031,-5.91463 l -2.66022,-2.91017 -8.90625,0.66299 c -7.87822,0.58647 -9.50143,0.42882 -14.0625,-1.365763 -7.95488,-3.12991 -6.89957,-4.611722 3.78144,-5.30971 11.36355,-0.742593 14.70239,-1.493524 17.04169,-3.832818 1.59025,-1.590254 2.81155,-1.823048 7.87329,-1.50074 4.0668,0.258954 5.99108,0.03986 5.99108,-0.682132 0,-2.649566 -2.75652,-18.954402 -3.55984,-21.056497 -3.01808,-7.897577 -1.56479,-22.96875 2.21486,-22.96875 1.61498,0 1.78023,0.579171 1.50805,5.285354 l -0.30569,5.285353 3.66709,0.349714 3.66708,0.349713 -2.73241,-5.839021 c -2.6693,-5.704186 -2.75921,-7.774863 -0.33756,-7.774863 1.16082,0 7.38562,11.428206 8.55383,15.70412 0.31712,1.160703 1.39175,2.546641 2.38808,3.07986 2.31027,1.236416 2.37214,3.082808 0.0789,2.354968 -1.57778,-0.500769 -1.84293,0.468901 -2.96746,10.852044 -1.0143,9.365335 -1.01715,11.92225 -0.0159,14.314854 0.67041,1.602097 1.41146,4.434029 1.64677,6.293182 0.36193,2.859384 0.0173,3.705441 -2.23583,5.490392 -2.31856,1.83671 -3.37584,2.0369 -8.15995,1.54494 l -5.49627,-0.56519 1.65566,2.57478 c 0.91061,1.41614 2.22377,3.40695 2.91813,4.42403 1.84362,2.70042 1.56727,4.29255 -1.25666,7.2401 l -2.51916,2.62942 27.59727,-0.0367 c 24.60483,-0.0327 27.26689,-0.18029 24.55039,-1.36099 -1.67578,-0.72837 -3.04687,-1.6667 -3.04687,-2.08519 0,-0.4185 1.46421,-2.93512 3.25379,-5.5925 l 3.25378,-4.83159 -3.69494,-0.62426 c -5.59007,-0.94448 -8.43763,-3.618126 -8.43763,-7.922366 0,-1.962102 0.67153,-5.174673 1.4923,-7.139043 1.71864,-4.113266 1.28136,-10.001805 -1.52702,-20.563651 -2.10077,-7.900712 -2.45997,-14.073591 -1.02639,-17.639156 0.58361,-1.451535 1.06111,-3.047591 1.06111,-3.546791 0,-2.086459 4.87277,-10.315175 5.90676,-9.974828 1.88494,0.62045 1.79016,3.916624 -0.2902,10.092064 -2.15457,6.395758 -1.72766,7.546829 2.49926,6.738799 2.20186,-0.420912 2.32752,-0.726147 1.7748,-4.311534 -0.94349,-6.120243 -0.86025,-9.045179 0.29015,-10.195577 1.79262,-1.792619 2.72395,0.209741 4.7601,10.234289 2.44527,12.038787 2.4353,18.5536 -0.0473,30.888656 -1.0898,5.414723 -1.80763,10.01876 -1.5952,10.231194 0.21243,0.212434 3.26313,-0.06165 6.77932,-0.609068 5.446,-0.847862 6.60968,-0.778708 7.85521,0.466815 1.16624,1.166242 1.25146,1.924498 0.42108,3.746971 -0.57257,1.256663 -0.78802,2.537879 -0.47876,2.847132 0.30926,0.309253 3.66928,0.562284 7.4667,0.562284 8.25469,0 9.85026,1.599928 5.40705,5.42183 -2.54133,2.18595 -3.16815,2.28885 -11.33999,1.8614 l -8.64996,-0.45245 -4.40199,4.46919 -4.40197,4.46917 2.92872,1.51451 c 1.61083,0.83298 2.92876,1.92554 2.92876,2.42792 0,0.56956 9.20354,0.91343 24.44693,0.91343 l 24.44693,0 -2.88443,-2.42708 C 338.798,114.36301 337.5,112.79695 337.5,112.21778 c 0,-0.57918 1.77533,-2.862 3.9452,-5.07292 l 3.94519,-4.01986 -4.20535,0 c -5.24601,0 -8.12502,-1.94598 -8.88683,-6.006806 -0.53113,-2.831185 1.46014,-8.993194 2.90619,-8.993194 0.25781,0 -0.1749,1.244675 -0.96158,2.765944 -0.78667,1.521269 -1.43032,3.611465 -1.43032,4.64489 0,1.765585 0.13882,1.740113 2.30114,-0.422193 1.43572,-1.435723 3.37489,-2.301141 5.15625,-2.301141 1.57031,0 2.85511,-0.341242 2.85511,-0.758316 0,-0.417074 0.65608,-1.57723 1.45797,-2.578125 1.40839,-1.757926 1.42433,-1.750174 0.46875,0.227934 -1.4126,2.924169 -1.39633,2.9355 2.99515,2.085954 6.52454,-1.26219 11.59322,-1.009475 12.96759,0.646538 1.04318,1.256951 3.05468,1.446171 12.45782,1.171875 12.73804,-0.371574 13.87435,0.253409 8.36563,4.601187 -3.23035,2.549573 -4.63116,2.922073 -15.26842,4.060223 -11.34572,1.21395 -11.86581,1.36831 -16.64062,4.93914 -2.71088,2.02732 -4.92887,4.01298 -4.92887,4.41259 0,0.3996 0.73828,2.02369 1.64062,3.6091 l 1.64063,2.88254 38.46974,0.006 38.46974,0.006 1.68683,-2.85555 c 1.6647,-2.81811 1.65613,-2.89493 -0.65328,-5.85937 -1.28705,-1.6521 -3.53719,-4.31369 -5.00031,-5.91463 l -2.66022,-2.91017 -8.90625,0.66299 c -7.87822,0.58647 -9.50143,0.42882 -14.0625,-1.365763 -7.95488,-3.12991 -6.89957,-4.611722 3.78144,-5.30971 11.36355,-0.742593 14.70239,-1.493524 17.04169,-3.832818 1.59025,-1.590254 2.81155,-1.823048 7.8733,-1.50074 4.06679,0.258954 5.99107,0.03986 5.99107,-0.682132 0,-2.649566 -2.75652,-18.954402 -3.55984,-21.056497 -3.01808,-7.897577 -1.56479,-22.96875 2.21486,-22.96875 1.61498,0 1.78023,0.579171 1.50805,5.285354 l -0.30569,5.285353 3.66709,0.349714 3.66708,0.349713 -2.73241,-5.839021 c -2.6693,-5.704186 -2.75921,-7.774863 -0.33756,-7.774863 1.16082,0 7.38562,11.428206 8.55383,15.70412 0.31712,1.160703 1.39175,2.546641 2.38808,3.07986 2.31027,1.236416 2.37214,3.082808 0.0789,2.354968 -1.57778,-0.500769 -1.84293,0.468901 -2.96746,10.852044 -1.0143,9.365335 -1.01715,11.92225 -0.0159,14.314854 0.67041,1.602097 1.41146,4.434029 1.64677,6.293182 0.36193,2.859384 0.0174,3.705441 -2.23583,5.490392 -2.31856,1.83671 -3.37584,2.0369 -8.15995,1.54494 l -5.49627,-0.56519 1.65566,2.57478 c 0.91061,1.41614 2.22377,3.40695 2.91813,4.42403 1.84362,2.70042 1.56727,4.29255 -1.25666,7.2401 l -2.51916,2.62942 27.59727,-0.0367 c 24.60483,-0.0327 27.26689,-0.18029 24.55039,-1.36099 -1.67578,-0.72837 -3.04687,-1.6667 -3.04687,-2.08519 0,-0.4185 1.46421,-2.93512 3.25379,-5.5925 l 3.25378,-4.83159 -3.69494,-0.62426 C 475.34756,102.64933 472.5,99.975684 472.5,95.671444 c 0,-1.962102 0.67153,-5.174673 1.4923,-7.139043 1.71864,-4.113266 1.28136,-10.001805 -1.52702,-20.563651 -2.10077,-7.900712 -2.45997,-14.073591 -1.02639,-17.639156 0.58361,-1.451535 1.06111,-3.047591 1.06111,-3.546791 0,-2.086459 4.87277,-10.315175 5.90676,-9.974828 1.88494,0.62045 1.79016,3.916624 -0.2902,10.092064 -2.15457,6.395758 -1.72766,7.546829 2.49926,6.738799 2.20186,-0.420912 2.32752,-0.726147 1.7748,-4.311534 -0.94349,-6.120243 -0.86025,-9.045179 0.29015,-10.195577 1.79262,-1.792619 2.72395,0.209741 4.7601,10.234289 2.44527,12.038787 2.4353,18.5536 -0.0473,30.888656 -1.0898,5.414723 -1.80763,10.01876 -1.59521,10.231194 0.21244,0.212434 3.26314,-0.06165 6.77933,-0.609068 5.446,-0.847862 6.60968,-0.778708 7.85521,0.466815 1.16624,1.166242 1.25146,1.924498 0.42108,3.746971 -0.57257,1.256663 -0.78802,2.537879 -0.47877,2.847132 0.30927,0.309253 3.66929,0.562284 7.46671,0.562284 8.25469,0 9.85026,1.599928 5.40704,5.42183 -2.54132,2.18595 -3.16814,2.28885 -11.33998,1.8614 l -8.64996,-0.45245 -4.40199,4.46919 -4.40197,4.46917 2.92872,1.51451 c 1.61083,0.83298 2.92876,1.92554 2.92876,2.42792 0,0.56652 8.21663,0.91343 21.63443,0.91343 l 21.63443,0 -2.88443,-2.42708 c -1.58643,-1.33491 -2.88443,-2.90097 -2.88443,-3.48014 0,-0.57918 1.77533,-2.862 3.9452,-5.07292 l 3.94519,-4.01986 -4.20535,0 c -5.24601,0 -8.12502,-1.94598 -8.88683,-6.006806 -0.53114,-2.831185 1.46014,-8.993194 2.90619,-8.993194 0.25781,0 -0.1749,1.244675 -0.96157,2.765944 -0.78668,1.521269 -1.43033,3.611465 -1.43033,4.64489 0,1.765585 0.13883,1.740113 2.30114,-0.422193 1.43572,-1.435723 3.37489,-2.301141 5.15625,-2.301141 1.57031,0 2.85511,-0.341242 2.85511,-0.758316 0,-0.417074 0.65608,-1.57723 1.45797,-2.578125 1.40839,-1.757926 1.42433,-1.750174 0.46875,0.227934 -1.4126,2.924169 -1.39633,2.9355 2.99515,2.085954 6.52454,-1.26219 11.59322,-1.009475 12.96759,0.646538 1.04318,1.256951 3.05468,1.446171 12.45782,1.171875 12.73804,-0.371574 13.87435,0.253409 8.36563,4.601187 -3.23035,2.549573 -4.63116,2.922073 -15.26842,4.060223 -11.34571,1.21395 -11.86581,1.36831 -16.64062,4.93914 -2.71088,2.02732 -4.92887,4.01298 -4.92887,4.41259 0,0.3996 0.73828,2.02369 1.64062,3.6091 l 1.64063,2.88254 38.46974,0.006 38.46974,0.006 1.68683,-2.85555 c 1.6647,-2.81811 1.65613,-2.89493 -0.65328,-5.85937 -1.28705,-1.6521 -3.53719,-4.31369 -5.00031,-5.91463 L 608.90625,100.58467 600,101.24766 c -7.87822,0.58647 -9.50143,0.42882 -14.0625,-1.365763 -7.95488,-3.12991 -6.89957,-4.611722 3.78144,-5.30971 11.36355,-0.742593 14.70239,-1.493524 17.04169,-3.832818 1.59025,-1.590254 2.81155,-1.823048 7.8733,-1.50074 4.0668,0.258954 5.99107,0.03986 5.99107,-0.682132 0,-2.649566 -2.75652,-18.954402 -3.55984,-21.056497 -3.01808,-7.897577 -1.56479,-22.96875 2.21486,-22.96875 1.61498,0 1.78023,0.579171 1.50805,5.285354 l -0.30569,5.285353 3.66709,0.349714 3.66708,0.349713 -2.73241,-5.839021 c -2.6693,-5.704186 -2.75921,-7.774863 -0.33756,-7.774863 1.16082,0 7.38562,11.428206 8.55383,15.70412 0.31712,1.160703 1.39175,2.546641 2.38808,3.07986 2.31027,1.236416 2.37213,3.082808 0.0789,2.354968 -1.57778,-0.500769 -1.84293,0.468901 -2.96746,10.852044 -1.0143,9.365335 -1.01715,11.92225 -0.0159,14.314854 0.67041,1.602097 1.41146,4.434029 1.64677,6.293182 0.36193,2.859384 0.0173,3.705441 -2.23583,5.490392 -2.31856,1.83671 -3.37584,2.0369 -8.15995,1.54494 l -5.49627,-0.56519 1.65566,2.57478 c 0.91061,1.41614 2.22377,3.40695 2.91813,4.42403 1.84362,2.70042 1.56727,4.29255 -1.25666,7.2401 l -2.51916,2.62942 31.23932,0 31.23933,0 -2.47018,-1.94304 c -2.96608,-2.33312 -3.03255,-3.07149 -0.58584,-6.50758 l 1.88433,-2.6463 -2.72462,-0.59843 c -5.61699,-1.23369 -7.30707,-5.51159 -5.23585,-13.252829 1.25801,-4.701791 1.31431,-6.841494 0.37968,-14.426821 -1.31619,-10.68207 -3.32359,-16.955946 -5.19542,-16.237658 -1.52895,0.586712 -1.73526,-0.769535 -0.33073,-2.17407 0.67397,-0.673968 0.62596,-2.276362 -0.15578,-5.199184 -1.20558,-4.507531 -0.62352,-7.730358 1.28148,-7.095361 0.6388,0.212931 2.24295,2.462858 3.56476,4.999835 2.30293,4.41999 2.55196,4.600304 5.96129,4.316238 5.07479,-0.422834 7.12402,1.713385 7.12402,7.426416 0,3.050316 -0.45875,4.752345 -1.42695,5.294175 -1.27017,0.710824 -1.25852,1.136175 0.10603,3.87149 1.29993,2.605752 1.39571,4.308659 0.63007,11.201148 -0.49662,4.470522 -0.83626,8.223008 -0.75477,8.338858 0.0815,0.115851 3.43578,-0.459808 7.45401,-1.279241 11.19955,-2.283914 15.22381,0.722776 8.9773,6.70731 -2.17741,2.086104 -2.53146,2.873524 -1.54118,3.427714 2.57205,1.43939 20.86111,7.6965 24.05549,8.22994 4.4331,0.7403 4.24928,3.00333 -0.36678,4.51561 -3.34484,1.0958 -4.91635,0.8721 -18.90878,-2.6917 l -15.26075,-3.88685 -2.98627,2.12641 -2.98628,2.12642 3.12119,2.44438 c 3.11965,2.44317 3.13222,2.44461 25.64505,2.93829 12.38813,0.27166 -137.07708,0.58807 -332.1449,0.70313 l -354.668777,0.2092 0.293774,3.04688 0.293773,3.04687 354.375,0.4706 354.375,0.47058 -328.82813,0.23254 c -267.14133,0.18891 -328.82812,0.45859 -328.82812,1.43755 0,0.66277 -8.584928,13.84636 -19.077618,29.29688 l -19.077618,28.09185 349.780746,0.47062 349.78074,0.47061 -359.0625,0.0417 c -197.48438,0.023 -355.6875,-0.11025 -351.5625,-0.29596 z m 45.782077,-57.64008 c 0.416117,-1.5217 -0.875061,-1.64062 -17.8131,-1.64062 l -18.261734,0 2.646378,3.1535 c 1.455508,1.73442 6.214379,7.1796 10.575267,12.10039 l 7.92889,8.9469 7.237831,-10.45977 c 3.980808,-5.75287 7.439718,-11.19805 7.686468,-12.1004 z m -3.312171,-11.24999 c 0.539407,-0.64454 7.762939,-4.53634 16.052292,-8.64847 15.967042,-7.92082 17.354712,-9.265454 12.705639,-12.311644 -2.305715,-1.510763 -2.550206,-1.435585 -9.609375,2.954709 -12.475541,7.758905 -23.045161,13.508815 -26.696587,14.523035 -1.933594,0.53708 -3.515625,1.39572 -3.515625,1.90809 0,2.35129 9.305259,3.67536 11.063656,1.57428 z m 42.028314,-0.0551 c -0.96348,-0.6142 -2.61898,-1.79183 -3.67888,-2.61694 l -1.92709,-1.5002 2.21564,-3.65605 c 1.2186,-2.01083 2.75663,-4.51292 3.41784,-5.56019 1.17438,-1.86006 1.04548,-1.89536 -5.56801,-1.5248 -6.235948,0.34942 -7.935439,0.96251 -21.535845,7.76904 -8.121094,4.06433 -14.765625,7.59815 -14.765625,7.85292 0,0.25478 9.808594,0.43842 21.796875,0.40809 17.235065,-0.0436 21.430245,-0.28885 20.045095,-1.17187 z m 5.97053,0.45292 c 0,-0.42574 -1.05469,-1.7649 -2.34375,-2.97592 -1.28906,-1.21102 -2.34375,-2.67006 -2.34375,-3.24232 0,-0.57226 2.33776,-3.34638 5.19502,-6.16471 4.31903,-4.26016 5.14896,-5.598473 4.92187,-7.93672 -0.27228,-2.803584 -0.29407,-2.813362 -6.87912,-3.084094 l -6.60597,-0.271593 -2.56762,3.921712 -2.56761,3.921705 4.48608,-0.57923 c 2.46735,-0.31858 5.54079,-0.81287 6.82985,-1.098438 2.12629,-0.471028 2.15835,-0.436387 0.3456,0.373388 -2.15493,0.96262 -9.35089,12.03001 -8.42431,12.95659 0.30874,0.30873 2.14728,1.53646 4.08565,2.72826 3.64864,2.24337 5.86806,2.79231 5.86806,1.45137 z m 35.625,0.2156 c 0,-0.30716 -0.73828,-1.81654 -1.64063,-3.35417 -1.81162,-3.08708 -1.82057,-3.07363 5.94277,-8.92589 l 2.72911,-2.05729 -3.71452,-0.052 c -3.13659,-0.044 -4.33993,0.56173 -7.73437,3.89311 -2.21093,2.16986 -4.01986,4.4596 -4.01986,5.0883 0,1.35976 5.58877,5.94123 7.26562,5.95611 0.64454,0.006 1.17188,-0.24092 1.17188,-0.54808 z m 81.74557,-1.96067 c 1.44619,-1.38553 2.62943,-3.18603 2.62943,-4.00112 0,-1.80743 -3.9085,-7.82624 -7.86306,-12.10853 -2.02478,-2.192588 -2.34415,-2.873419 -1.04319,-2.223825 10.36576,5.175805 17.34375,5.424315 17.34375,0.617681 0,-2.759775 -2.96093,-4.78796 -9.55071,-6.542057 -9.06244,-2.412284 -16.69929,-1.294139 -16.69929,2.445023 0,0.465619 2.79858,4.337831 6.21906,8.604908 3.42047,4.26708 6.63444,8.28355 7.14214,8.9255 0.62898,0.7953 0.4397,1.90493 -0.59405,3.48264 -2.72826,4.16384 -1.51472,4.56558 2.41592,0.79978 z m 58.8735,1.81603 c -0.003,-0.38672 -1.33847,-1.46174 -2.96715,-2.38891 l -2.96123,-1.68578 4.57253,-4.64235 4.57255,-4.64234 -3.47081,0 c -3.16821,0 -3.7701,0.45077 -6.90375,5.17039 -1.88812,2.84371 -3.26352,5.33405 -3.05645,5.53411 0.20707,0.20005 1.85305,1.00303 3.65774,1.78439 3.61944,1.56708 6.56574,1.95825 6.55658,0.87049 z m 53.44343,0.14464 c 0,-0.30716 -0.73828,-1.81654 -1.64063,-3.35417 -1.81162,-3.08708 -1.82057,-3.07363 5.94277,-8.92589 l 2.72911,-2.05729 -3.71452,-0.052 c -3.13659,-0.044 -4.33993,0.56173 -7.73437,3.89311 -2.21093,2.16986 -4.01986,4.4596 -4.01986,5.0883 0,1.35976 5.58877,5.94123 7.26562,5.95611 0.64454,0.006 1.17188,-0.24092 1.17188,-0.54808 z m 83.62058,-1.96067 c 1.44618,-1.38553 2.62942,-3.18603 2.62942,-4.00112 0,-1.80743 -3.9085,-7.82624 -7.86306,-12.10853 -2.02478,-2.192588 -2.34415,-2.873419 -1.04319,-2.223825 10.36576,5.175805 17.34375,5.424315 17.34375,0.617681 0,-2.759775 -2.96093,-4.78796 -9.55071,-6.542057 -9.06244,-2.412284 -16.69929,-1.294139 -16.69929,2.445023 0,0.465619 2.79858,4.337831 6.21906,8.604908 3.42047,4.26708 6.63444,8.28355 7.14214,8.9255 0.62898,0.7953 0.4397,1.90493 -0.59405,3.48264 -2.72826,4.16384 -1.51472,4.56558 2.41593,0.79978 z m 58.8735,1.81603 c -0.003,-0.38672 -1.33848,-1.46174 -2.96716,-2.38891 l -2.96123,-1.68578 4.57254,-4.64235 4.57254,-4.64234 -3.47081,0 c -3.16821,0 -3.7701,0.45077 -6.90375,5.17039 -1.88812,2.84371 -3.26352,5.33405 -3.05645,5.53411 0.20707,0.20005 1.85305,1.00303 3.65774,1.78439 3.61944,1.56708 6.56574,1.95825 6.55658,0.87049 z m 47.81842,0.14464 c 0,-0.30716 -0.73828,-1.81654 -1.64063,-3.35417 -1.81162,-3.08708 -1.82057,-3.07363 5.94277,-8.92589 l 2.72911,-2.05729 -3.71452,-0.052 c -3.13659,-0.044 -4.33993,0.56173 -7.73437,3.89311 -2.21093,2.16986 -4.01986,4.4596 -4.01986,5.0883 0,1.35976 5.58877,5.94123 7.26562,5.95611 0.64454,0.006 1.17188,-0.24092 1.17188,-0.54808 z m 83.62058,-1.96067 c 1.44618,-1.38553 2.62942,-3.18603 2.62942,-4.00112 0,-1.80743 -3.9085,-7.82624 -7.86306,-12.10853 -2.02478,-2.192588 -2.34415,-2.873419 -1.04319,-2.223825 10.36576,5.175805 17.34375,5.424315 17.34375,0.617681 0,-2.759775 -2.96093,-4.78796 -9.55071,-6.542057 -9.06244,-2.412284 -16.69929,-1.294139 -16.69929,2.445023 0,0.465619 2.79858,4.337831 6.21906,8.604908 3.42047,4.26708 6.63444,8.28355 7.14214,8.9255 0.62898,0.7953 0.4397,1.90493 -0.59405,3.48264 -2.72826,4.16384 -1.51472,4.56558 2.41593,0.79978 z m 63.65313,-0.18096 -3.19503,-2.64968 3.01361,-2.22805 3.0136,-2.22805 -2.63107,-0.72433 c -2.20425,-0.60682 -2.97251,-0.30571 -4.73579,1.85608 -1.15759,1.41921 -2.10681,3.07255 -2.10937,3.67407 -0.007,1.70626 4.89438,4.94018 7.49534,4.94515 2.29836,0.005 2.28187,-0.0469 -0.85129,-2.64519 z m 37.64816,-1.09918 c 3.92366,-1.08966 4.71263,-2.76321 1.30268,-2.76321 -1.21713,0 -11.02572,-3.17793 -21.79688,-7.06207 -22.74196,-8.200871 -25.47376,-8.678818 -27.37774,-4.789833 -1.82313,3.723813 -0.43189,4.845063 8.26257,6.659093 3.86719,0.80685 13.14844,3.09291 20.625,5.08013 16.23901,4.31621 14.65955,4.07695 18.98437,2.87589 z M 316.6664,102.60309 c 3.99073,-2.795209 2.64576,-4.16559 -4.08833,-4.16559 -3.39455,0 -9.40627,-0.818147 -13.35937,-1.818103 C 284.11031,92.797642 277.5,93.094025 277.5,97.593178 c 0,3.260172 4.2986,4.920912 14.41174,5.567892 17.51961,1.12081 22.51873,1.00813 24.75466,-0.55798 z m 195.9375,0 c 3.99073,-2.795209 2.64576,-4.16559 -4.08833,-4.16559 -3.39455,0 -9.40627,-0.818147 -13.35937,-1.818103 -15.10839,-3.821755 -21.7187,-3.525372 -21.7187,0.973781 0,3.260172 4.2986,4.920912 14.41174,5.567892 17.51961,1.12081 22.51873,1.00813 24.75466,-0.55798 z m -337.47101,-1.5134 c 7.07791,-0.8552 9.75921,-1.604937 12.13273,-3.392524 1.67579,-1.262091 3.04717,-2.561044 3.04752,-2.886563 3.4e-4,-0.325519 -8.54262,-0.5439 -18.98438,-0.485287 -11.84314,0.06647 -16.16362,-0.118303 -11.48501,-0.491203 5.21897,-0.415977 6.98175,-0.842701 5.79601,-1.403068 -0.9372,-0.442905 -4.10126,-0.498012 -7.03125,-0.122459 -2.93,0.375552 -7.80182,0.979175 -10.82628,1.341383 -7.08949,0.849037 -10.6962,5.054147 -6.45411,7.524941 2.24414,1.30709 22.70853,1.2555 33.80477,-0.0852 z m 194.0625,0 c 7.07791,-0.8552 9.75921,-1.604937 12.13273,-3.392524 1.67579,-1.262091 3.04717,-2.561044 3.04752,-2.886563 3.4e-4,-0.325519 -8.54262,-0.5439 -18.98438,-0.485287 -11.84314,0.06647 -16.16362,-0.118303 -11.48501,-0.491203 5.21897,-0.415977 6.98175,-0.842701 5.79601,-1.403068 -0.9372,-0.442905 -4.10126,-0.498012 -7.03125,-0.122459 -2.93,0.375552 -7.80182,0.979175 -10.82628,1.341383 -7.08949,0.849037 -10.6962,5.054147 -6.45411,7.524941 2.24414,1.30709 22.70853,1.2555 33.80477,-0.0852 z m 190.3125,0 c 7.07791,-0.8552 9.75921,-1.604937 12.13274,-3.392524 1.67578,-1.262091 3.04716,-2.561044 3.04751,-2.886563 3.4e-4,-0.325519 -8.54262,-0.5439 -18.98438,-0.485287 -11.84313,0.06647 -16.16362,-0.118303 -11.48501,-0.491203 5.21897,-0.415977 6.98175,-0.842701 5.79601,-1.403068 -0.9372,-0.442905 -4.10126,-0.498012 -7.03125,-0.122459 -2.93,0.375552 -7.80182,0.979175 -10.82628,1.341383 -7.08949,0.849037 -10.6962,5.054147 -6.4541,7.524941 2.24413,1.30709 22.70852,1.2555 33.80476,-0.0852 z M 106.14073,96.9561 c 2.93819,-4.239305 3.25619,-6.745105 1.05979,-8.351151 -1.83125,-1.339044 -0.93942,-3.292449 1.50318,-3.292449 2.05234,0 3.0871,-3.311637 2.28612,-7.316521 -0.41828,-2.091364 -1.19793,-2.933411 -3.04175,-3.285178 -1.36363,-0.260154 -3.33485,-0.748091 -4.38051,-1.084305 -1.54461,-0.496644 -2.11607,-0.01705 -3.04688,2.55704 -0.630121,1.742584 -1.14568,5.636415 -1.14568,8.652955 0,3.776649 -0.480722,6.015816 -1.543706,7.190393 -1.446375,1.598231 -1.387266,1.828819 0.9375,3.657488 1.364666,1.073447 2.481206,2.800003 2.481206,3.836794 0,2.715954 1.9333,1.701984 4.89073,-2.565066 z m 115.27367,2.551125 c 0.34823,-0.330534 -0.29511,-1.754466 -1.42965,-3.164288 -2.01177,-2.499881 -2.20142,-2.540615 -7.66441,-1.646053 -3.08087,0.504488 -8.23831,0.919697 -11.46096,0.922688 C 197.63672,95.622384 195,95.990381 195,96.43695 c 0,0.446569 2.16284,1.633762 4.80631,2.6382 3.82792,1.45449 6.45198,1.74552 12.89062,1.42965 4.44638,-0.21813 8.36924,-0.667041 8.71747,-0.997575 z m 195.9375,0 c 0.34823,-0.330534 -0.29511,-1.754466 -1.42965,-3.164288 -2.01177,-2.499881 -2.20142,-2.540615 -7.66441,-1.646053 -3.08087,0.504488 -8.23831,0.919697 -11.46096,0.922688 -3.22266,0.0028 -5.85938,0.370809 -5.85938,0.817378 0,0.446569 2.16284,1.633762 4.80631,2.6382 3.82792,1.45449 6.45198,1.74552 12.89062,1.42965 4.44638,-0.21813 8.36924,-0.667041 8.71747,-0.997575 z m 190.3125,0 c 0.34823,-0.330534 -0.29511,-1.754466 -1.42965,-3.164288 -2.01177,-2.499881 -2.20142,-2.540615 -7.66441,-1.646053 -3.08087,0.504488 -8.23831,0.919697 -11.46096,0.922688 -3.22266,0.0028 -5.85938,0.370809 -5.85938,0.817378 0,0.446569 2.16284,1.633762 4.80631,2.6382 3.82792,1.45449 6.45198,1.74552 12.89062,1.42965 4.44638,-0.21813 8.36924,-0.667041 8.71747,-0.997575 z m 92.00395,-0.88665 c 3.0864,-3.221513 3.2253,-5.595119 0.36937,-6.311914 -2.45195,-0.615399 -15.55424,1.895361 -16.89676,3.23788 -1.40885,1.408846 5.68591,4.020534 7.81972,2.878556 2.40192,-1.285472 3.67633,-1.110685 1.42465,0.195394 -1.81956,1.055428 -1.81956,1.06889 0,1.780589 3.23647,1.26593 4.70932,0.90585 7.28302,-1.780505 z m -20.84086,-2.651953 c 2.31839,0.463678 2.73132,0.164465 3.66116,-2.652985 0.57643,-1.746585 1.13119,-6.77366 1.23282,-11.171278 0.15085,-6.527727 -0.11643,-8.298639 -1.45584,-9.645907 -1.56497,-1.574142 -1.64063,-1.538193 -1.64063,0.779614 0,3.330166 -2.10356,4.979813 -4.62757,3.629006 -1.06421,-0.569548 -1.93493,-1.472708 -1.93493,-2.007021 0,-0.534314 0.68178,-0.289699 1.51507,0.543587 0.83328,0.833288 1.99344,1.355806 2.57812,1.161153 2.0115,-0.66967 1.66233,-3.490711 -1.17545,-9.496883 -1.56432,-3.31089 -3.12606,-7.213843 -3.47055,-8.673229 -0.7868,-3.333338 -4.22643,-9.684679 -5.24482,-9.684679 -1.50843,0 -0.71144,4.638617 2.49865,14.54259 1.79494,5.537853 3.07884,10.367658 2.8531,10.732899 -0.22573,0.365243 0.0406,3.38611 0.59192,6.713038 0.81815,4.937355 0.72455,7.133323 -0.50934,11.949685 -1.97438,7.706728 -1.91047,8.384098 0.50174,5.317466 1.60133,-2.035762 2.54829,-2.452706 4.62655,-2.037056 z M 246.03864,89.877797 c -1.29583,-2.873641 -1.48806,-4.970847 -0.97479,-10.63491 0.52271,-5.768376 0.39663,-7.055387 -0.69121,-7.055387 -0.73181,0 -1.85574,-0.632813 -2.49764,-1.40625 -1.41784,-1.708389 -5.68865,-1.841299 -7.53125,-0.234375 -0.73907,0.644531 -1.03803,0.788816 -0.66438,0.320633 0.37365,-0.468182 0.29006,-1.320323 -0.18576,-1.893646 -0.61683,-0.743237 0.19269,-0.941529 2.82064,-0.690914 3.41706,0.32587 3.68575,0.177333 3.68575,-2.037568 0,-2.541329 -3.01107,-5.30788 -5.77701,-5.30788 -1.89216,0 -2.61883,5.057791 -1.48162,10.3125 0.39057,1.804687 1.23432,6.801328 1.875,11.103646 l 1.16488,7.822395 3.57769,1.229092 c 4.15284,1.426683 7.14363,3.872486 7.34403,6.005795 0.0773,0.822422 0.32257,0.269316 0.54514,-1.229147 0.22257,-1.498453 -0.32169,-4.335246 -1.20947,-6.303984 z m 195.9375,0 c -1.2795,-2.837424 -1.48809,-4.993641 -1.00617,-10.400535 0.60146,-6.74793 0.58077,-6.833568 -1.9304,-7.992887 -3.45898,-1.596883 -7.31015,-1.472911 -8.76677,0.282209 -0.98556,1.187531 -0.96364,3.008974 0.11958,9.936213 l 1.32637,8.482128 3.57769,1.224649 c 4.15066,1.420781 7.14348,3.866442 7.34403,6.001354 0.0772,0.822422 0.32257,0.269316 0.54514,-1.229147 0.22257,-1.498453 -0.32169,-4.335246 -1.20947,-6.303984 z m 190.3125,0 c -1.2795,-2.837424 -1.48809,-4.993641 -1.00617,-10.400535 0.60145,-6.74793 0.58077,-6.833568 -1.9304,-7.992887 -3.45898,-1.596883 -7.31015,-1.472911 -8.76677,0.282209 -0.98556,1.187531 -0.96364,3.008974 0.11958,9.936213 l 1.32637,8.482128 3.57769,1.224649 c 4.15066,1.420781 7.14348,3.866442 7.34403,6.001354 0.0772,0.822422 0.32257,0.269316 0.54514,-1.229147 0.22257,-1.498453 -0.32169,-4.335246 -1.20947,-6.303984 z m -328.49943,4.736447 c 1.99109,-3.720389 0.53227,-4.819333 -5.42646,-4.08782 -2.9667,0.364203 -6.34322,1.017119 -7.50338,1.450927 -2.69801,1.008845 -2.72317,-0.310671 -0.23437,-12.289851 2.3642,-11.379429 2.34963,-18.470201 -0.0623,-30.305646 -1.99531,-9.791162 -2.32443,-10.745141 -3.35236,-9.717212 -1.64109,1.641097 0.36411,13.534815 2.67076,15.841474 1.53837,1.538372 1.75959,2.667696 1.31011,6.688024 -0.29744,2.66041 -0.6075,5.469923 -0.68903,6.24336 -0.0816,0.773437 0.13674,2.25 0.48504,3.28125 0.52708,1.560608 0.45381,1.53616 -0.43697,-0.145797 -0.75597,-1.427396 -2.16455,-2.125157 -4.79685,-2.376188 -3.32638,-0.317221 -3.87757,-0.06349 -5.1321,2.362527 -1.03076,1.993268 -1.23936,4.149343 -0.78238,8.086713 0.45627,3.931274 0.22656,6.317878 -0.85791,8.913387 -1.96351,4.699335 -1.99343,6.782952 -0.0745,5.190414 1.65414,-1.372821 10.51104,-0.709857 17.81227,1.3333 6.19894,1.734694 5.87982,1.755863 7.07045,-0.468862 z m 195.9375,0 c 1.99109,-3.720389 0.53227,-4.819333 -5.42646,-4.08782 -2.9667,0.364203 -6.34322,1.017119 -7.50338,1.450927 -2.69801,1.008845 -2.72317,-0.310671 -0.23437,-12.289851 2.3642,-11.379429 2.34963,-18.470201 -0.0623,-30.305646 -1.99531,-9.791162 -2.32443,-10.745141 -3.35236,-9.717212 -1.64109,1.641097 0.36411,13.534815 2.67076,15.841474 1.53837,1.538372 1.75959,2.667696 1.31011,6.688024 -0.29744,2.66041 -0.6075,5.469923 -0.68903,6.24336 -0.0816,0.773437 0.13674,2.25 0.48504,3.28125 0.52708,1.560608 0.45381,1.53616 -0.43697,-0.145797 -0.75597,-1.427396 -2.16455,-2.125157 -4.79685,-2.376188 -3.32638,-0.317221 -3.87757,-0.06349 -5.1321,2.362527 -1.03076,1.993268 -1.23936,4.149343 -0.78238,8.086713 0.45627,3.931274 0.22656,6.317878 -0.85791,8.913387 -1.96351,4.699335 -1.99343,6.782952 -0.0745,5.190414 1.65415,-1.372821 10.51105,-0.709857 17.81227,1.3333 6.19894,1.734694 5.87982,1.755863 7.07045,-0.468862 z M 115.75452,86.77034 c 2.85064,-1.260688 5.18298,-2.899098 5.18298,-3.640911 C 120.9375,81.663614 114.01915,75 112.4973,75 c -1.87763,0 -0.87,3.749235 1.40895,5.24246 1.28906,0.844626 2.34375,1.898205 2.34375,2.341287 0,1.133915 -5.14821,3.666253 -7.45344,3.666253 -2.11219,0 -2.60569,1.442698 -0.74968,2.191612 1.95146,0.787434 2.33719,0.703796 7.70764,-1.671272 z M 114.375,83.423144 c 1.23573,-0.811204 1.23873,-1.030824 0.0247,-1.811157 -0.92117,-0.592113 -1.61926,-0.514015 -2.09501,0.234375 -1.55884,2.452113 -0.49612,3.26151 2.07027,1.576782 z M 81.48868,82.159556 c 2.167458,-1.871459 9.354684,-4.27054 13.66757,-4.562206 3.823406,-0.258564 5.11632,-1.118833 5.1419,-3.421254 0.0113,-1.017172 -1.034572,-1.155059 -4.907525,-0.647013 C 89.490745,74.303016 76.875,80.12003 76.875,82.066481 c 0,1.725502 2.660891,1.779182 4.61368,0.09307 z m 28.4332,-9.402099 c 1.04379,-0.792355 1.64062,-2.510449 1.64062,-4.722889 0,-3.070036 -0.24714,-3.442376 -2.10937,-3.177897 -1.31839,0.187241 -2.81248,1.626464 -3.98438,3.838067 -1.63701,3.089351 -1.69651,3.652759 -0.46875,4.438769 1.87216,1.198557 2.95675,1.11569 4.92188,-0.37605 z m 170.96031,-7.977659 c -0.31712,-1.855451 -0.84425,-4.850111 -1.1714,-6.654798 -0.55383,-3.055191 -1.70013,-4.638792 -3.38267,-4.673144 -1.21814,-0.02487 -0.76494,7.322934 0.84764,13.742626 l 1.55074,6.173573 1.36614,-2.607355 c 0.8757,-1.671334 1.15914,-3.818435 0.78955,-5.980902 z m 195.9375,0 c -0.31712,-1.855451 -0.84425,-4.850111 -1.1714,-6.654798 -0.55383,-3.055191 -1.70013,-4.638792 -3.38267,-4.673144 -1.21814,-0.02487 -0.76494,7.322934 0.84764,13.742626 l 1.55074,6.173573 1.36614,-2.607355 c 0.8757,-1.671334 1.15914,-3.818435 0.78955,-5.980902 z M 246.09375,63.572791 c 0,-6.312954 -0.39152,-7.95404 -3.28125,-13.75365 -1.80469,-3.621958 -3.83702,-6.609849 -4.5163,-6.639759 -1.55875,-0.06863 -0.86611,2.291626 2.84132,9.68228 2.62832,5.23952 2.71798,5.801778 1.77691,11.144281 -1.0777,6.118209 -0.75598,7.511368 1.62611,7.041496 1.28381,-0.253236 1.55321,-1.549683 1.55321,-7.474648 z M 430.3125,70.5 c 0,-0.4125 -0.42188,-1.25625 -0.9375,-1.875 -0.68182,-0.818182 -0.63068,-0.869318 0.1875,-0.1875 0.61875,0.515625 2.30625,0.9375 3.75,0.9375 2.28043,0 2.625,-0.362206 2.625,-2.75934 0,-1.788657 -0.73298,-3.272733 -2.0836,-4.21875 -3.55221,-2.488062 -5.17979,-1.875354 -5.55818,2.092388 -0.41452,4.346686 -0.005,6.760702 1.14802,6.760702 0.47782,0 0.86876,-0.3375 0.86876,-0.75 z m 11.71875,-6.927209 c 0,-6.312953 -0.39152,-7.95404 -3.28125,-13.75365 -1.80469,-3.621958 -3.83702,-6.609849 -4.5163,-6.639759 -1.55875,-0.06863 -0.86611,2.291626 2.84132,9.68228 2.62832,5.23952 2.71798,5.801778 1.77691,11.144281 -1.0777,6.118209 -0.75598,7.511368 1.62611,7.041496 1.28381,-0.253236 1.55321,-1.549683 1.55321,-7.474648 z M 620.625,70.5 c 0,-0.4125 -0.42188,-1.25625 -0.9375,-1.875 -0.68182,-0.818182 -0.63068,-0.869318 0.1875,-0.1875 0.61875,0.515625 2.30625,0.9375 3.75,0.9375 2.28043,0 2.625,-0.362206 2.625,-2.75934 0,-1.788657 -0.73298,-3.272733 -2.0836,-4.21875 -3.55221,-2.488062 -5.17979,-1.875354 -5.55818,2.092388 -0.41452,4.346686 -0.005,6.760702 1.14802,6.760702 0.47782,0 0.86876,-0.3375 0.86876,-0.75 z m 11.71875,-6.927209 c 0,-6.312953 -0.39152,-7.95404 -3.28125,-13.75365 -1.80469,-3.621958 -3.83702,-6.609849 -4.5163,-6.639759 -1.55875,-0.06863 -0.86611,2.291626 2.84132,9.68228 2.62832,5.23952 2.71798,5.801778 1.77691,11.144281 -1.0777,6.118209 -0.75598,7.511368 1.62611,7.041496 1.28381,-0.253236 1.55321,-1.549683 1.55321,-7.474648 z m 52.03125,1.901726 c 0,-3.970816 -1.1088,-4.50062 -4.4789,-2.140107 -2.27786,1.595475 -2.5992,3.325448 -1.12823,6.073981 0.81059,1.514591 1.30786,1.624523 3.28125,0.725385 1.88831,-0.860373 2.32588,-1.736918 2.32588,-4.659259 z m -394.66432,1.044665 c 0.56466,-1.055075 0.89591,-3.269919 0.73611,-4.921875 -0.21938,-2.267982 -0.79528,-3.075372 -2.35156,-3.296799 -3.75114,-0.533714 -5.90773,1.410598 -5.90773,5.326227 0,4.255833 0.44679,4.810765 3.87326,4.810765 1.68353,0 2.99105,-0.687208 3.64992,-1.918318 z m 195.9375,0 c 0.56466,-1.055075 0.89591,-3.269919 0.73611,-4.921875 -0.21938,-2.267982 -0.79528,-3.075372 -2.35156,-3.296799 -3.75114,-0.533714 -5.90773,1.410598 -5.90773,5.326227 0,4.255833 0.44679,4.810765 3.87326,4.810765 1.68353,0 2.99105,-0.687208 3.64992,-1.918318 z M 232.47084,58.125 c 0.48282,-1.804688 1.1233,-5.496094 1.4233,-8.203125 C 234.31703,46.105798 234.1499,45 233.15022,45 c -2.00835,0 -3.64123,9.006919 -2.8155,15.530138 0.38735,3.059986 0.82892,4.508925 0.98127,3.219862 0.15235,-1.289062 0.67203,-3.820312 1.15485,-5.625 z m 195.9375,0 c 0.48282,-1.804688 1.1233,-5.496094 1.4233,-8.203125 C 430.25453,46.105798 430.0874,45 429.08772,45 c -2.00835,0 -3.64123,9.006919 -2.8155,15.530138 0.38735,3.059986 0.82892,4.508925 0.98127,3.219862 0.15235,-1.289062 0.67203,-3.820312 1.15485,-5.625 z m 190.3125,0 c 0.48282,-1.804688 1.1233,-5.496094 1.4233,-8.203125 C 620.56703,46.105798 620.3999,45 619.40022,45 c -2.00835,0 -3.64123,9.006919 -2.8155,15.530138 0.38735,3.059986 0.82892,4.508925 0.98127,3.219862 0.15235,-1.289062 0.67203,-3.820312 1.15485,-5.625 z M 281.35722,46.659051 c 3.12213,-9.038169 1.76546,-12.637829 -1.77362,-4.705926 -2.96469,6.644582 -3.40371,8.7935 -1.9767,9.675443 1.62222,1.002592 1.74227,0.843522 3.75032,-4.969517 z m 195.9375,0 c 3.12213,-9.038169 1.76546,-12.637829 -1.77362,-4.705926 -2.96469,6.644582 -3.40371,8.7935 -1.9767,9.675443 1.62222,1.002592 1.74227,0.843522 3.75032,-4.969517 z M 141.11847,84.333602 c 0.79273,-3.435125 0.78287,-8.097788 -0.03,-14.180698 -0.65795,-4.923669 -0.8839,-5.304071 -3.06266,-5.15625 -1.29822,0.08808 -2.56052,-0.432464 -2.81698,-1.16167 -0.32111,-0.913029 0.009,-1.139367 1.06949,-0.732547 2.99407,1.14893 4.34668,-0.296927 4.34668,-4.646337 0,-6.186694 4.84036,-14.6311 7.45894,-13.012731 1.44398,0.892433 1.18997,3.394137 -0.53856,5.304143 -1.93279,2.1357 -3.10971,11.271866 -1.22211,9.486863 1.56207,-1.477166 6.69751,-1.526092 8.146,-0.07761 2.17199,2.171991 2.54598,-1.893564 1.00614,-10.937562 -0.22424,-1.317032 0.26289,-1.957843 1.63788,-2.154616 3.45405,-0.494308 4.61457,2.226117 4.50378,10.55747 -0.10364,7.792828 -0.24962,8.284207 -7.18097,24.172091 -1.06785,2.447718 -2.11038,4.281569 -2.31673,4.075223 -0.20635,-0.206346 0.5231,-2.135945 1.621,-4.287998 1.0979,-2.152052 1.86561,-4.829654 1.70603,-5.950224 -0.23953,-1.68191 -0.81474,-1.986984 -3.29669,-1.748454 -1.6536,0.158919 -3.82582,-0.14952 -4.82716,-0.685423 -1.59064,-0.85128 -2.01024,-0.500487 -3.32159,2.776901 -0.82553,2.063198 -1.50742,4.69195 -1.51531,5.841672 -0.007,1.149722 -0.44259,2.723216 -0.96598,3.496654 -0.72005,1.064039 -0.81768,0.825824 -0.4012,-0.978898 z m 3.52211,-17.001395 c -0.36143,-3.206672 -0.83783,-4.241267 -1.78552,-3.877605 -1.39027,0.533494 -1.68197,4.676483 -0.68149,9.678894 l 0.61107,3.055371 1.17447,-2.241527 c 0.70783,-1.350945 0.97859,-3.979203 0.68147,-6.615133 z m 13.75766,2.745918 c 2.07806,-4.785169 3.12773,-13.987243 2.11204,-18.515625 -0.55193,-2.460765 -1.28773,-3.360485 -2.94257,-3.598121 -1.85926,-0.26699 -2.07517,-0.04562 -1.37155,1.40625 0.94257,1.944915 0.95772,11.544076 0.0307,19.431881 -0.34,2.892995 -0.37986,5.25999 -0.0885,5.25999 0.29132,0 1.3083,-1.792969 2.25997,-3.984375 z M 144.64835,56.121429 c 0.27789,-2.071828 1.17381,-4.505715 1.99095,-5.408639 1.76561,-1.950971 1.98264,-5.094963 0.31383,-4.546157 -2.04025,0.670955 -5.35918,7.602365 -5.37521,11.225819 -0.0212,4.791311 2.39125,3.792666 3.07043,-1.271023 z m 190.53262,28.212173 c 0.79273,-3.435125 0.78287,-8.097788 -0.03,-14.180698 -0.65795,-4.923669 -0.8839,-5.304071 -3.06266,-5.15625 -1.29822,0.08808 -2.56052,-0.432464 -2.81698,-1.16167 -0.3211,-0.913029 0.009,-1.139367 1.06949,-0.732547 2.99407,1.14893 4.34668,-0.296927 4.34668,-4.646337 0,-6.186694 4.84036,-14.6311 7.45894,-13.012731 1.44398,0.892433 1.18997,3.394137 -0.53856,5.304143 -1.93279,2.1357 -3.10971,11.271866 -1.22211,9.486863 1.72808,-1.634155 5.55228,-1.461979 7.54301,0.339609 1.55678,1.408868 1.71195,1.345048 2.28546,-0.940044 0.33842,-1.348341 0.39265,-3.821478 0.12051,-5.495859 -0.27214,-1.674382 -0.63457,-3.887877 -0.8054,-4.918877 -0.21766,-1.313607 0.27502,-1.958354 1.64644,-2.154616 3.45405,-0.494307 4.61457,2.226117 4.50378,10.55747 -0.10364,7.792829 -0.24962,8.284207 -7.18097,24.172091 -1.06785,2.447719 -2.11038,4.281569 -2.31673,4.075223 -0.20634,-0.206345 0.52311,-2.135944 1.621,-4.287997 1.0979,-2.152053 1.86561,-4.829654 1.70603,-5.950225 -0.23952,-1.681932 -0.81147,-1.985258 -3.27817,-1.738543 -1.64341,0.164372 -3.81563,-0.144067 -4.82717,-0.685422 -1.61414,-0.863864 -2.02277,-0.525353 -3.3401,2.766989 -0.82553,2.063199 -1.50742,4.69195 -1.51531,5.841672 -0.007,1.149722 -0.44259,2.723216 -0.96598,3.496654 -0.72005,1.064039 -0.81768,0.825824 -0.4012,-0.978898 z m 3.52211,-17.001395 c -0.36143,-3.206672 -0.83783,-4.241267 -1.78552,-3.877605 -1.39027,0.533494 -1.68197,4.676483 -0.68149,9.678894 l 0.61107,3.055371 1.17447,-2.241527 c 0.70783,-1.350945 0.97859,-3.979203 0.68147,-6.615133 z m 13.75766,2.745918 c 2.07806,-4.785169 3.12773,-13.987243 2.11204,-18.515625 -0.55193,-2.460765 -1.28773,-3.360485 -2.94257,-3.598121 -1.85926,-0.26699 -2.07517,-0.04562 -1.37155,1.40625 0.94257,1.944915 0.95772,11.544076 0.0307,19.431881 -0.34,2.892995 -0.37986,5.25999 -0.0885,5.25999 0.29132,0 1.3083,-1.792969 2.25997,-3.984375 z M 338.71085,56.121429 c 0.27789,-2.071828 1.17381,-4.505715 1.99095,-5.408639 1.76561,-1.950971 1.98264,-5.094963 0.31382,-4.546157 -2.04024,0.670955 -5.35917,7.602365 -5.3752,11.225819 -0.0212,4.791311 2.39125,3.792666 3.07043,-1.271023 z m 186.78262,28.212173 c 0.79273,-3.435125 0.78287,-8.097788 -0.03,-14.180698 -0.65795,-4.923669 -0.8839,-5.304071 -3.06266,-5.15625 -1.29822,0.08808 -2.56052,-0.432464 -2.81698,-1.16167 -0.3211,-0.913029 0.009,-1.139367 1.06949,-0.732547 C 523.64739,64.251367 525,62.80551 525,58.4561 c 0,-6.186694 4.84036,-14.6311 7.45894,-13.012731 1.44398,0.892433 1.18997,3.394137 -0.53856,5.304143 -1.93279,2.1357 -3.10971,11.271866 -1.22211,9.486863 1.56207,-1.477166 6.69751,-1.526092 8.146,-0.07761 2.17199,2.171991 2.54598,-1.893564 1.00614,-10.937562 -0.22424,-1.317032 0.26289,-1.957843 1.63788,-2.154616 3.45405,-0.494308 4.61457,2.226117 4.50378,10.55747 -0.10364,7.792828 -0.24962,8.284207 -7.18097,24.172091 -1.06785,2.447718 -2.11038,4.281569 -2.31673,4.075223 -0.20635,-0.206346 0.5231,-2.135945 1.621,-4.287998 1.0979,-2.152052 1.86561,-4.829654 1.70603,-5.950224 -0.23953,-1.681932 -0.81148,-1.985258 -3.27817,-1.738543 -1.64341,0.164372 -3.81563,-0.144068 -4.82717,-0.685422 -1.61414,-0.863864 -2.02277,-0.525354 -3.3401,2.766989 -0.82553,2.063198 -1.50742,4.69195 -1.51531,5.841672 -0.007,1.149722 -0.44259,2.723216 -0.96598,3.496654 -0.72005,1.064039 -0.81768,0.825824 -0.4012,-0.978898 z m 3.52211,-17.001395 c -0.36143,-3.206672 -0.83783,-4.241267 -1.78552,-3.877605 -1.39027,0.533494 -1.68197,4.676483 -0.68149,9.678894 l 0.61107,3.055371 1.17447,-2.241527 c 0.70783,-1.350945 0.97859,-3.979203 0.68147,-6.615133 z m 13.75766,2.745918 c 2.07806,-4.785169 3.12773,-13.987243 2.11204,-18.515625 -0.55193,-2.460765 -1.28773,-3.360485 -2.94257,-3.598121 -1.85926,-0.26699 -2.07517,-0.04562 -1.37155,1.40625 0.94257,1.944915 0.95772,11.544076 0.0307,19.431881 -0.34,2.892995 -0.37986,5.25999 -0.0885,5.25999 0.29132,0 1.3083,-1.792969 2.25997,-3.984375 z M 529.02335,56.121429 c 0.27789,-2.071828 1.17381,-4.505715 1.99095,-5.408639 1.76561,-1.950971 1.98264,-5.094963 0.31382,-4.546157 -2.04024,0.670955 -5.35917,7.602365 -5.3752,11.225819 -0.0212,4.791311 2.39125,3.792666 3.07043,-1.271023 z M 627.1875,28.478958 c 0,-3.745741 -0.19074,-4.175239 -1.40625,-3.166458 -0.77344,0.641896 -1.40625,0.758938 -1.40625,0.260093 0,-0.994587 3.05168,-4.010093 4.05819,-4.010093 0.34612,0 0.62931,2.53125 0.62931,5.625 0,3.125 -0.41666,5.625 -0.9375,5.625 -0.51563,0 -0.9375,-1.950094 -0.9375,-4.333542 z m 5.6793,2.992718 c -0.61203,-0.737453 -0.98009,-2.90957 -0.81792,-4.826928 0.5753,-6.801451 6.57694,-6.801451 7.15224,0 0.32386,3.828946 -1.03219,6.167752 -3.57612,6.167752 -0.90498,0 -2.14617,-0.60337 -2.7582,-1.340824 z m 4.16445,-4.362301 c 0,-2.222222 -0.43064,-3.203125 -1.40625,-3.203125 -1.50097,0 -2.37963,3.426487 -1.4799,5.771141 0.95091,2.478017 2.88615,0.756091 2.88615,-2.568016 z m 4.44494,4.53125 c -0.51749,-0.644531 -0.88555,-2.813781 -0.81791,-4.820553 0.24057,-7.137941 6.56787,-7.137941 6.80844,0 0.13742,4.077281 -0.95055,5.992428 -3.40422,5.992428 -0.90498,0 -2.06882,-0.527344 -2.58631,-1.171875 z m 4.46131,-2.109375 c 0,-0.78125 -0.83333,-1.40625 -1.875,-1.40625 -1.04167,0 -1.875,0.625 -1.875,1.40625 0,0.78125 0.83333,1.40625 1.875,1.40625 1.04167,0 1.875,-0.625 1.875,-1.40625 z m 0,-4.6875 c 0,-0.78125 -0.83333,-1.40625 -1.875,-1.40625 -1.04167,0 -1.875,0.625 -1.875,1.40625 0,0.78125 0.83333,1.40625 1.875,1.40625 1.04167,0 1.875,-0.625 1.875,-1.40625 z m 3.8043,6.627926 c -0.61203,-0.737453 -0.98009,-2.90957 -0.81792,-4.826928 0.5753,-6.801451 6.57694,-6.801451 7.15224,0 0.32386,3.828946 -1.03219,6.167752 -3.57612,6.167752 -0.90498,0 -2.14617,-0.60337 -2.7582,-1.340824 z m 4.16445,-4.362301 c 0,-2.222222 -0.43064,-3.203125 -1.40625,-3.203125 -1.50097,0 -2.37963,3.426487 -1.4799,5.771141 0.95091,2.478017 2.88615,0.756091 2.88615,-2.568016 z m 4.58437,-1.258837 c -0.85294,-2.22271 0.3539,-4.4675 2.20967,-4.110112 1.03784,0.19987 1.64346,1.170727 1.64346,2.634574 0,2.672463 -2.95901,3.805599 -3.85313,1.475538 z m 2.13027,-2.647413 c -0.26007,-0.644531 -0.47287,-0.117188 -0.47287,1.171875 0,1.289062 0.2128,1.816406 0.47287,1.171875 0.26007,-0.644531 0.26007,-1.699219 0,-2.34375 z"
       id="path3438"
       inkscape:connector-curvature="0" />
  </g>
</svg>
