<?xml version="1.0" encoding="UTF-8" standalone="no"?>
<!-- Created with Inkscape (http://www.inkscape.org/) -->

<svg
   xmlns:dc="http://purl.org/dc/elements/1.1/"
   xmlns:cc="http://creativecommons.org/ns#"
   xmlns:rdf="http://www.w3.org/1999/02/22-rdf-syntax-ns#"
   xmlns:svg="http://www.w3.org/2000/svg"
   xmlns="http://www.w3.org/2000/svg"
   xmlns:sodipodi="http://sodipodi.sourceforge.net/DTD/sodipodi-0.dtd"
   xmlns:inkscape="http://www.inkscape.org/namespaces/inkscape"
   width="500"
   height="225"
   viewBox="0 0 500 224.99999"
   id="svg4197"
   version="1.1"
   inkscape:version="0.91 r13725"
   sodipodi:docname="bb510402.svg">
  <defs
     id="defs4199" />
  <sodipodi:namedview
     id="base"
     pagecolor="#b1b1b1"
     bordercolor="#666666"
     borderopacity="1.0"
     inkscape:pageopacity="0"
     inkscape:pageshadow="2"
     inkscape:zoom="0.98994949"
     inkscape:cx="110.03038"
     inkscape:cy="70.632064"
     inkscape:document-units="px"
     inkscape:current-layer="layer1"
     showgrid="false"
     fit-margin-top="0"
     fit-margin-left="0"
     fit-margin-right="0"
     fit-margin-bottom="0"
     inkscape:window-width="1440"
     inkscape:window-height="810"
     inkscape:window-x="0"
     inkscape:window-y="0"
     inkscape:window-maximized="0"
     units="px" />
  <metadata
     id="metadata4202">
    <rdf:RDF>
      <cc:Work
         rdf:about="">
        <dc:format>image/svg+xml</dc:format>
        <dc:type
           rdf:resource="http://purl.org/dc/dcmitype/StillImage" />
        <dc:title></dc:title>
      </cc:Work>
    </rdf:RDF>
  </metadata>
  <g
     inkscape:label="Layer 1"
     inkscape:groupmode="layer"
     id="layer1"
     transform="translate(-161.95985,-630.84841)">
    <g
       id="g4589">
      <path
         inkscape:connector-curvature="0"
         id="path4559"
         d="m 406.45008,672.18434 c -2.10581,-0.048 -3.39025,5.16724 -5.21093,19.96875 -0.83315,6.77315 -1.67599,18.03514 -1.98438,22.29687 -0.17729,1.68557 -0.29875,3.70775 -0.46484,6.14453 -0.21719,3.18644 -0.42847,5.52851 -0.67969,7.32618 l 0.004,0.0254 c -0.004,0.0189 -0.01,0.0358 -0.0137,0.0547 -0.36169,2.55341 -0.81366,3.95724 -1.50976,4.89258 -0.33519,0.96369 -0.48135,1.57979 -0.0859,1.65039 0.88389,0.15783 13.06777,2.74741 13.32031,0.28516 0.2233,-2.17706 0.21606,-3.18164 0.0605,-5.16016 -0.18797,-1.43782 -0.4263,-3.58874 -0.6582,-6.08398 l -0.55274,-5.95313 c -0.0825,-0.75674 -0.15671,-1.39199 -0.23437,-2.07031 -0.34901,-5.55857 -0.24789,-13.80617 0.12695,-19.99805 l 0,-0.89453 c 0,-6.20834 0.476,-11.01506 1.1582,-11.69726 0.83749,-0.83749 0.83749,-1.75743 0,-3.32227 -0.63691,-1.19009 -1.1582,-3.12126 -1.1582,-4.29101 0,-1.16975 -0.5213,-2.44891 -1.16015,-2.84375 -0.3383,-0.20908 -0.6562,-0.32323 -0.95704,-0.33008 z"
         style="fill:#000000" />
      <path
         inkscape:connector-curvature="0"
         id="path4573"
         d="m 406.24696,673.1277 c -0.51671,-0.0355 -1.07354,0.37275 -1.42383,1.30468 -0.27388,0.72864 -1.43309,8.89973 -2.57617,18.16016 -0.90083,7.29799 -1.14532,12.29847 -1.40039,15.33789 l -0.29102,3.46289 c -0.39453,2.17631 -0.54353,6.32244 -0.79882,14.9336 -0.046,1.55104 -0.24828,2.80237 -0.64649,3.91796 1.19898,-0.89662 2.32269,-1.55716 3.9375,-1.48046 1.77789,-0.046 3.80763,0.49121 4.50977,1.19335 0.9956,0.9956 1.12423,-0.52251 0.58593,-6.89062 l -0.60351,-7.14258 c -1.9e-4,-0.0259 0.008,-0.016 0.006,-0.0508 -0.25718,-4.31535 0,-8.44933 0,-10.09961 l -0.0371,-10.57226 c -0.0232,-6.59394 0.46852,-11.5408 1.1582,-12.23047 0.83748,-0.83749 0.83748,-1.75743 0,-3.32227 -0.63692,-1.19008 -1.1582,-3.14936 -1.1582,-4.35351 0,-1.34327 -0.59738,-2.12238 -1.26172,-2.16797 z"
         style="fill:#ffffff" />
      <path
         id="path4541"
         d="m 390.88173,719.35426 c -0.11409,-0.003 -0.22912,0.0141 -0.34571,0.0527 -0.86432,0.2863 -1.58671,4.16093 -2.09765,11.25391 -0.42862,5.95013 -1.26399,11.72294 -1.85547,12.82812 -0.59148,1.10522 -1.07617,3.6034 -1.07617,5.55079 0,2.99778 -1.21727,4.75044 -7.94727,11.43554 -8.08083,8.02688 -9.26498,10.16018 -6.27734,11.30664 1.09902,0.42174 3.40683,-1.07026 6.74218,-4.35547 4.67785,-4.60751 5.1204,-4.81888 5.66602,-2.73242 0.32716,1.25106 2.04925,2.81312 3.85351,3.49414 3.01722,1.13888 3.26368,1.61152 3.26368,6.29688 0,4.98239 1.27146,6.68372 2.53515,3.39062 0.35382,-0.92205 0.64453,-3.30629 0.64453,-5.29882 0,-2.20966 0.82628,-4.44931 2.11914,-5.74219 2.7458,-2.74573 2.70129,-6.83778 -0.10546,-9.64453 -1.61868,-1.61867 -1.90842,-2.54275 -1.06055,-3.39063 0.64121,-0.6412 1.16601,-2.21382 1.16601,-3.49414 0,-1.97324 6.26115,-8.90625 8.04297,-8.90625 0.82115,0 25.5995,13.56544 31.70117,17.35547 2.91459,1.81039 6.01431,4.13397 6.88868,5.16406 1.3026,1.53456 2.4358,1.7252 6.27539,1.05469 2.5773,-0.45009 4.87518,-1.38335 5.10547,-2.07422 0.23029,-0.69086 -2.03926,-2.50134 -5.04297,-4.02344 -3.94278,-1.99796 -26.61038,-18.00365 -38.31836,-27.03906 -2.1521,-1.19424 -6.33328,-3.10791 -7.71094,-3.07226 -1.52999,-0.0727 -4.95921,2.86409 -6.3418,3.9414 -0.21051,0.31265 -0.43516,0.59484 -0.69726,0.83203 -1.96553,1.77876 -2.02149,1.67688 -2.02149,-3.56445 0,-5.93439 -1.39418,-10.57177 -3.10546,-10.61914 z"
         style="fill:#000000" />
      <path
         id="path4537"
         d="m 390.682,720.20268 c 0.92104,0 2.20157,3.498 2.29296,6.11132 0.0914,2.61334 0.11842,7.29355 0.10352,9.40625 -0.0149,2.11271 0.0302,3.2794 0.0586,4.88477 0.1606,9.0934 0.27577,10.03933 0.54102,4.69727 1.11482,0.73639 0.67587,2.4438 0.39844,3.69336 -0.19136,0.55668 -0.87587,1.48928 -1.70117,2.16406 -1.50272,1.04441 -2.8458,1.38427 -3.60157,-0.17774 -0.17705,-0.69488 -0.23711,-4.36121 -0.21289,-6.47656 0.006,-0.21922 0.0148,-0.33141 0.0195,-0.57422 0.0633,-3.24728 0.25257,-6.07203 0.53321,-8.40625 0.0507,-1.06086 0.3399,-7.84186 0.48632,-10.74804 0.14643,-2.90619 0.56711,-4.57422 1.08204,-4.57422 z"
         style="fill:#ffffff"
         inkscape:connector-curvature="0" />
      <path
         id="path4535"
         d="m 401.70348,729.7144 c 0.35226,0.38724 -0.0472,0.92193 -1.28516,1.78906 -2.88502,2.02075 -2.78277,5.1128 0.24219,7.39453 l 2.4336,1.83594 -4.02344,3.63476 c -2.32053,2.09647 -4.02539,4.61666 -4.02539,5.95117 0,1.27288 -0.57199,2.88644 -1.27149,3.58594 -0.69949,0.6995 -2.03413,1.27149 -2.96679,1.27149 -2.83791,0 -4.24578,-2.32638 -4.13477,-6.83594 0.0902,-3.66647 0.22235,-3.90519 0.93164,-1.70703 0.35319,2.02617 -0.0223,3.72441 0.19922,4.59375 0.83251,2.51092 3.54398,2.03984 5.20508,0.70508 0.94925,-0.77611 1.71395,-1.74139 2.01367,-2.61329 0.54838,-2.13928 0.68959,-4.16201 -1.28711,-5.02343 0.31854,-6.57633 0.77517,-8.09826 3.12109,-10.54688 0.37469,-0.39109 0.69366,-0.779 0.98633,-1.16992 2.41979,-2.22357 2.80613,-2.80066 3.86133,-2.86523 z"
         style="fill:#008080"
         inkscape:connector-curvature="0" />
      <path
         id="path4533"
         d="m 404.54332,730.97221 c 0.98373,-0.0372 2.02158,0.1144 3.0293,0.49609 1.56192,0.5916 10.36956,6.65911 19.57227,13.48438 9.20271,6.82528 18.86158,13.44517 21.46289,14.70898 5.18213,2.51768 6.04033,3.98727 2.34375,4.00977 -1.31156,0.008 -3.45139,0.2988 -4.75586,0.64843 -1.59389,0.42721 -2.57743,0.10193 -2.99805,-0.99414 -0.74348,-1.93753 -6.1923,-5.29699 -27.48437,-16.9414 -12.38751,-6.77461 -15.97347,-9.21822 -16.23633,-11.06836 -0.34359,-2.41844 2.11521,-4.23218 5.0664,-4.34375 z"
         style="fill:#ffffff"
         inkscape:connector-curvature="0" />
      <path
         id="path4531"
         d="m 386.82848,753.79838 c 0.0515,0.007 0.0897,0.0302 0.11328,0.0684 0.34924,0.56509 -0.3069,1.88121 -1.45898,2.92383 -1.15209,1.04262 -2.09571,2.43549 -2.09571,3.0957 0,0.6602 -2.28145,3.44644 -5.07031,6.19336 -5.05112,4.97518 -7.64648,6.21345 -7.64648,3.64453 0,-1.89649 14.56151,-16.1478 16.1582,-15.92578 z"
         style="fill:#ffffff"
         inkscape:connector-curvature="0" />
      <path
         id="path4825"
         d="m 388.89879,756.23783 c 2.24718,0 2.69974,5.14206 0.63477,7.20703 -2.40706,2.40705 -5.08594,1.51215 -5.08594,-1.69726 0,-3.40838 1.69826,-5.50977 4.45117,-5.50977 z"
         style="fill:#ffffff"
         inkscape:connector-curvature="0" />
      <g
         transform="translate(417.60613,-306.33294)"
         id="g4506">
        <path
           inkscape:connector-curvature="0"
           id="path5071"
           d="m -17.51155,1047.2979 c -1.23319,0 -1.6912,0.5056 -1.78906,3.1953 7.2e-4,0.031 0.01,0.067 0.01,0.098 0,3.263 1.0268,5.3828 2.60742,5.3828 1.16121,0 1.39258,5.2419 1.39258,31.5 l 0,31.5 -57.48242,0 0,0.5332 c 16.97591,-0.012 84.9595,-0.037 97.29102,-0.057 l 0,-0.4765 -36.8086,0 0,-31.5 c 0,-26.2581 0.23333,-31.5 1.39453,-31.5 2.18332,0 3.22724,-4.9145 2.38868,-7.5606 -0.81006,-1.2159 -1.67009,-1.1152 -5.46875,-1.1152 l -3.53516,0 z"
           style="fill:#000000" />
        <path
           style="fill:#ffffff;fill-opacity:1;stroke:none;stroke-width:1.39999998;stroke-miterlimit:4;stroke-dasharray:none"
           d="m -16.36394,1054.7288 c -0.98148,-0.2131 -1.49307,-0.724 -1.73154,-1.729 -0.11329,-0.4774 -0.20564,-2.073 -0.16384,-2.8309 0.0757,-1.3736 0.33384,-1.7867 1.24575,-1.9941 1.1807,-0.2685 5.87341,-0.2497 6.76991,0.027 0.61526,0.19 0.86087,0.5925 0.86029,1.4096 -2.7e-4,0.3547 -0.1348,1.8781 -0.21886,2.478 -0.19829,1.4153 -0.59434,2.0107 -1.53699,2.311 -1.06119,0.338 -4.25553,0.5386 -5.22472,0.3282 z"
           id="path4544"
           inkscape:connector-curvature="0" />
      </g>
    </g>
  </g>
</svg>
