<?xml version="1.0" encoding="UTF-8" standalone="no"?>
<!-- Created with Inkscape (http://www.inkscape.org/) -->

<svg
   xmlns:dc="http://purl.org/dc/elements/1.1/"
   xmlns:cc="http://creativecommons.org/ns#"
   xmlns:rdf="http://www.w3.org/1999/02/22-rdf-syntax-ns#"
   xmlns:svg="http://www.w3.org/2000/svg"
   xmlns="http://www.w3.org/2000/svg"
   xmlns:sodipodi="http://sodipodi.sourceforge.net/DTD/sodipodi-0.dtd"
   xmlns:inkscape="http://www.inkscape.org/namespaces/inkscape"
   id="svg9208"
   version="1.1"
   inkscape:version="0.91 r13725"
   width="500"
   height="225"
   viewBox="0 0 500 225"
   sodipodi:docname="bb510604.svg">
  <metadata
     id="metadata9214">
    <rdf:RDF>
      <cc:Work
         rdf:about="">
        <dc:format>image/svg+xml</dc:format>
        <dc:type
           rdf:resource="http://purl.org/dc/dcmitype/StillImage" />
        <dc:title></dc:title>
      </cc:Work>
    </rdf:RDF>
  </metadata>
  <defs
     id="defs9212" />
  <sodipodi:namedview
     pagecolor="#a0a0a0"
     bordercolor="#666666"
     borderopacity="1"
     objecttolerance="10"
     gridtolerance="10"
     guidetolerance="10"
     inkscape:pageopacity="0"
     inkscape:pageshadow="2"
     inkscape:window-width="1547"
     inkscape:window-height="964"
     id="namedview9210"
     showgrid="false"
     inkscape:zoom="2.0000001"
     inkscape:cx="261.70374"
     inkscape:cy="170.5578"
     inkscape:window-x="0"
     inkscape:window-y="0"
     inkscape:window-maximized="0"
     inkscape:current-layer="svg9208" />
  <g
     id="g4164"
     transform="translate(80.500095,-7.1900506)">
    <path
       id="path9820"
       d="m 243.39648,29.97266 c -1.10233,0 -2.27168,0.890228 -2.85742,2.175782 -0.66778,1.465592 -0.77962,5.574613 -0.34179,12.582031 0.35761,5.723166 0.85245,10.40625 1.09961,10.40625 0.24715,0 0.16336,-4.596802 -0.1875,-10.212891 -0.35094,-5.616088 -0.36277,-11.075889 -0.0273,-12.132812 0.33545,-1.056923 1.34433,-1.919922 2.24219,-1.919922 1.13085,0 2.23266,1.477203 3.58398,4.80664 1.07293,2.643531 2.32382,7.396087 2.78125,10.560547 0.45743,3.164459 0.83962,6.325136 0.84961,7.025391 0.01,0.700251 0.24704,1.043974 0.52735,0.763672 0.2803,-0.2803 0.0857,-3.551998 -0.43164,-7.271485 -0.51734,-3.719489 -1.93759,-9.017832 -3.15625,-11.773437 l -2.21485,-5.009766 -1.86719,0 z m 50.29688,0.195313 c -0.58698,0.02898 -1.32524,0.748739 -1.74805,1.755859 -0.48322,1.150997 -1.52354,3.710311 -2.31054,5.6875 l -1.43165,3.595703 -0.0605,24.84375 c -0.0339,13.664709 0.21386,25.290795 0.55078,25.835938 0.33691,0.545143 0.12267,5.036311 -0.47656,9.980467 l -1.08985,8.99023 -1.43359,0.10742 c -0.78853,0.0586 -1.9346,0.0398 -2.54688,-0.0391 -0.61228,-0.0789 -1.84137,0.24773 -2.73242,0.72461 -0.90635,0.48506 -2.13202,2.86137 -2.78125,5.39453 -0.63827,2.49041 -0.90114,4.94972 -0.58398,5.46289 0.31717,0.51318 0.99957,0.93164 1.51758,0.93164 0.51801,0 0.71276,-0.59474 0.43359,-1.32226 -0.27918,-0.72752 -0.0644,-2.64914 0.47656,-4.26953 0.54089,-1.6204 1.30163,-3.29795 1.68946,-3.72852 0.38783,-0.43058 0.48817,0.83677 0.22265,2.81641 l -0.48437,3.59765 1.90234,1.9043 c 1.18075,1.18077 3.04595,1.90039 4.91797,1.90039 l 3.01367,0 0.54102,6.44922 0.54101,6.44922 -2.2539,2.08789 -2.25391,2.08984 -17.83203,0 -17.83399,0 -2.80859,-2.625 -2.80859,-2.62304 0.9082,-7.9375 c 0.50007,-4.36475 0.91171,-8.13992 0.91602,-8.39063 0.004,-0.25071 1.80404,-0.31317 3.99804,-0.13867 l 3.98633,0.31836 1.36914,4.01758 c 0.75288,2.20962 1.14331,5.15461 0.86524,6.54492 -0.29532,1.47663 -0.0719,2.79624 0.53906,3.17383 0.57525,0.35551 1.82968,-0.0632 2.78711,-0.92969 0.95745,-0.86647 1.74023,-2.5076 1.74023,-3.64844 0,-1.14083 -0.81886,-4.15268 -1.82031,-6.69336 -1.24477,-3.15702 -1.63878,-5.59038 -1.24609,-7.68359 0.36426,-1.94174 0.15774,-3.56693 -0.56641,-4.43945 -0.83679,-1.00828 -0.87715,-1.6424 -0.14648,-2.37305 0.73065,-0.73065 1.2884,-0.35944 2.08398,1.38672 0.5973,1.31093 1.45212,2.38281 1.90039,2.38281 0.44826,0 0.54249,-0.90932 0.20898,-2.02148 -0.33352,-1.11218 -1.17666,-2.62174 -1.87304,-3.35352 l -1.26563,-1.33008 -1.60156,1.00195 -1.60352,1 -1.61914,-1.18359 c -0.89007,-0.65083 -1.36031,-1.60105 -1.04492,-2.11133 0.31536,-0.51027 -0.0693,-3.14141 -0.85547,-5.845697 l -1.42968,-4.916015 1.94921,-3.820313 1.94922,-3.820312 -1.03906,-8.144531 c -0.57151,-4.479252 -1.6654,-11.108959 -2.42969,-14.732422 -0.7643,-3.623463 -1.56303,-6.413529 -1.77734,-6.199219 -0.21431,0.21431 0.18305,2.976667 0.88477,6.138672 0.70171,3.162005 1.7752,9.705038 2.38476,14.541015 0.60957,4.835976 0.89006,9.012276 0.62305,9.279297 -0.26701,0.267014 -1.64954,-0.115839 -3.07227,-0.851562 -1.42273,-0.735722 -3.04152,-2.281207 -3.59765,-3.435547 -0.55613,-1.15434 -1.50336,-7.472753 -2.10547,-14.041016 -0.60212,-6.568262 -1.28136,-11.759665 -1.50782,-11.533203 -0.22647,0.226465 0.0986,5.63433 0.72266,12.015625 l 1.13477,11.601563 -1.44336,2.0625 -1.44532,2.0625 -0.55859,-3.03125 c -0.30838,-1.667992 -0.91888,-7.886794 -1.35547,-13.81836 l -0.79297,-10.785156 0.57227,12.132813 c 0.31545,6.673011 0.51052,14.963748 0.43359,18.423828 -0.0413,1.857385 -0.61914,13.4385 -0.61914,15.7832 0,2.12406 0.31716,6.58317 0.26172,12.07812 -0.11973,11.86313 0.0713,22.67975 0.42578,24.03907 l 0.64453,2.47265 -14.34961,0 -14.34961,0 -2.2539,-2.08984 -2.25391,-2.08789 0.54102,-6.44922 0.54101,-6.44922 3.32422,0 c 2.1712,0 3.88349,-0.61698 4.9336,-1.77734 1.17887,-1.30268 1.46883,-2.62745 1.08984,-4.96289 -0.31235,-1.92476 -0.17527,-2.97701 0.34375,-2.65625 0.4725,0.29204 1.50384,2.02197 2.29297,3.84179 0.78914,1.81981 1.6142,2.84139 1.83203,2.26953 0.21784,-0.57187 -0.21595,-2.50021 -0.96094,-4.2832 -0.74497,-1.783 -2.07945,-3.48531 -2.9668,-3.7832 -0.88732,-0.2979 -2.67089,-0.97361 -3.96484,-1.50195 l -2.35351,-0.96094 -1.06836,-8.82227 c -0.58811,-4.852421 -0.79396,-9.269303 -0.45703,-9.814447 0.33691,-0.54515 0.58595,-12.202898 0.55273,-25.90625 -0.0358,-14.769703 -0.43506,-25.80154 -0.97852,-27.091797 -0.50423,-1.197103 -1.53256,-3.72785 -2.28515,-5.625 -0.79318,-1.999448 -1.84532,-3.292337 -2.50391,-3.074219 -0.78177,0.258907 -1.33303,3.719268 -1.76562,11.089844 -0.34579,5.891717 -1.30626,18.597534 -2.13477,28.236328 -0.82851,9.638794 -1.55571,22.659385 -1.61719,28.933594 -0.0789,8.054567 0.21851,11.739587 1.01172,12.537107 0.61786,0.62123 1.12305,2.08648 1.12305,3.25586 0,1.16938 0.44508,2.95791 0.99023,3.97656 0.67177,1.2552 0.78413,5.29143 0.34961,12.52344 l -0.63867,10.67187 -7.95312,0 0,0.26953 110.67773,0.33008 0,-0.61719 -10.66016,0.0176 -0.64062,-10.67187 c -0.43453,-7.23201 -0.32216,-11.26823 0.34961,-12.52344 0.54515,-1.01864 0.99219,-2.80718 0.99219,-3.97656 0,-1.16938 0.50516,-2.63463 1.12304,-3.25586 0.7932,-0.79753 1.09063,-4.48254 1.01172,-12.537107 -0.0614,-6.274209 -0.78868,-19.2948 -1.61719,-28.933594 -0.82851,-9.638795 -1.78896,-22.34461 -2.13476,-28.236328 -0.42431,-7.229576 -0.99077,-10.831901 -1.74024,-11.080078 -0.0763,-0.02528 -0.15638,-0.03539 -0.24023,-0.03125 z m -86.20703,0.703125 c 0.37982,0 1.1816,1.515525 1.77929,3.36914 0.5977,1.853614 1.46495,4.102844 1.92774,4.998047 0.46278,0.895203 0.85019,12.908383 0.86133,26.69336 0.006,7.841221 -0.0748,14.923699 -0.20313,19.742187 l -1.35742,1.142578 c -1.02751,0.865024 -2.48293,1.572266 -3.23242,1.572266 -0.74949,0 -2.04721,-0.754416 -2.88281,-1.677734 l -1.51758,-1.679688 1.37695,-15.621094 c 0.75835,-8.5919 1.64482,-20.777789 1.96875,-27.080078 0.32394,-6.302288 0.89947,-11.458984 1.2793,-11.458984 z m 86.27929,0 c 0.45597,0 0.82813,2.328656 0.82813,5.175781 0,2.847124 0.60816,12.857411 1.34961,22.244141 0.74145,9.386729 1.59231,19.164108 1.89258,21.728515 l 0.54687,4.664063 -2.30273,2.300781 c -1.26639,1.266393 -2.71468,2.302734 -3.21875,2.302734 -0.50406,0 -1.55189,-1.227376 -2.32813,-2.728515 l -1.41211,-2.728516 -0.0371,-21.449219 c -0.0213,-11.961824 0.34136,-22.183501 0.82032,-23.109375 0.47237,-0.913102 1.34763,-3.177636 1.94531,-5.03125 0.59769,-1.853615 1.46006,-3.36914 1.916,-3.36914 z m -50.88085,4.894531 c -0.0465,0.02353 -0.0396,0.329395 0.0293,0.947266 0.22049,1.977189 0.71633,6.830779 1.10156,10.785156 l 0.69922,7.189453 0.23828,-4.494141 c 0.13041,-2.471486 -0.36545,-7.325076 -1.10156,-10.785156 -0.50607,-2.378806 -0.86439,-3.69435 -0.96679,-3.642578 z m 3.36914,45.195313 1.92773,2.28125 c 1.05959,1.254925 2.83807,2.739025 3.95313,3.298828 l 2.02929,1.017578 -1.40429,2.71289 -1.40235,2.712891 1.39649,4.804687 c 0.76846,2.643424 1.3899,5.150134 1.3789,5.568354 -0.011,0.41822 -0.80534,-0.25254 -1.76367,-1.48828 L 250.62695,99.623047 248.12109,101 c -1.37859,0.75797 -2.63314,2.25116 -2.78711,3.31641 -0.15397,1.06525 0.52026,2.73705 1.49805,3.71484 0.9778,0.9778 1.54225,2.01438 1.25391,2.30273 -0.28834,0.28833 -0.82538,0.52344 -1.19336,0.52344 -0.36797,0 -1.7164,-1.24481 -2.9961,-2.76562 -1.44953,-1.72267 -2.31981,-3.84045 -2.30859,-5.61719 0.01,-1.56854 0.71289,-6.034319 0.71289,-10.041016 0,-2.183319 0.21925,-3.184342 0.67188,-4.945313 0.38832,-1.510715 1.83856,-3.842811 2.13086,-4.386719 z m 42.1914,4.158203 c 0.25456,0.09573 0.89657,0.916536 1.64649,2.146484 0.97948,1.606469 2.1354,2.921875 2.57031,2.921875 0.4349,0 1.82014,-0.811274 3.07812,-1.800781 l 2.28711,-1.798828 0.64258,7.71289 c 0.35334,4.242018 0.38594,9.584675 0.0723,11.873045 -0.31365,2.28835 -0.92562,4.51546 -1.35938,4.94922 -0.45241,0.45241 -1.04621,0.37294 -1.39258,-0.1875 -0.33211,-0.53736 -1.36547,-0.97657 -2.29687,-0.97657 -0.9314,0 -2.30074,0.86612 -3.04297,1.92579 l -1.34766,1.92773 -0.58984,-2.34375 c -0.32329,-1.28813 -0.13184,-5.75788 0.42383,-9.93359 0.69491,-5.22185 0.728,-8.809473 0.10937,-11.492187 -0.49471,-2.145257 -0.90768,-4.30453 -0.91797,-4.798828 -9.9e-4,-0.06176 0.0109,-0.101804 0.0332,-0.121094 0.0198,-0.0169 0.0476,-0.01751 0.084,-0.0039 z m -76.59765,0.732421 c -0.0966,3.550563 -0.21959,5.864129 -0.35547,6.083985 -0.32031,0.518275 -0.0998,4.925092 0.49023,9.792969 0.66021,5.44733 0.75808,9.41356 0.25391,10.31445 l -0.82031,1.46484 -1.10743,-1.77539 c -0.60949,-0.97594 -1.89046,-1.77344 -2.8457,-1.77344 -0.95523,0 -2.00772,0.43921 -2.33984,0.97657 -0.34637,0.56044 -0.94018,0.63991 -1.39258,0.1875 -0.43375,-0.43376 -1.04572,-2.66087 -1.35938,-4.94922 -0.31364,-2.28837 -0.27793,-7.65858 0.0781,-11.933592 l 0.64648,-7.771484 1.5586,1.410156 c 0.85674,0.775338 2.17043,1.408203 2.91992,1.408203 0.74949,0 2.13455,-0.909312 3.07617,-2.021484 l 1.19727,-1.414063 z m 38.73828,14.818354 1.3164,1.72266 c 0.72364,0.94815 3.34714,6.88531 5.82813,13.19336 2.481,6.30803 4.50976,12.39425 4.50976,13.52539 0,1.13113 -0.48497,2.54161 -1.07812,3.13476 -0.59316,0.59316 -1.37083,1.07813 -1.72852,1.07813 -0.35769,0 -0.58126,-1.75887 -0.49804,-3.91016 l 0.15039,-3.91211 -3.45899,-6.8125 c -1.90199,-3.74721 -4.83067,-8.06385 -6.50976,-9.59179 -1.6791,-1.52795 -3.05469,-3.58507 -3.05469,-4.57227 0,-1.04564 0.946,-2.22581 2.26367,-2.82617 z m -7.91992,7.28906 1.75781,1.75782 1.75976,1.75976 0.16407,6.65625 c 0.0905,3.66044 -0.155,9.51315 -0.54688,13.00781 l -0.71289,6.35547 2.28516,1.04102 c 1.25689,0.57268 2.28515,1.45409 2.28515,1.95898 0,0.5049 -1.38921,0.91797 -3.08593,0.91797 -2.16707,0 -3.21828,-0.46745 -3.53516,-1.57226 -0.24809,-0.86503 -0.72581,-6.27399 -1.06055,-12.01758 -0.33472,-5.74359 -0.31737,-12.56263 0.0391,-15.1543 l 0.6504,-4.71094 z m -35.07422,3.03516 c 1.04773,0.004 1.93407,0.56227 2.47461,1.57227 0.67395,1.25929 0.70816,3.69233 0.10937,7.91797 -0.47544,3.35522 -1.11584,8.7937 -1.42383,12.08593 l -0.56054,5.98633 1.85937,0.58984 c 1.02319,0.32475 1.86133,0.96869 1.86133,1.42969 0,0.46098 -1.42757,0.83789 -3.17188,0.83789 l -3.17187,0 0.13281,-11.45898 c 0.0723,-6.30229 -0.0176,-13.07555 -0.19922,-15.05274 l -0.33007,-3.5957 1.96093,-0.2793 c 0.15565,-0.0221 0.30932,-0.0338 0.45899,-0.0332 z m 85.93164,0 c 0.14967,-6.5e-4 0.30137,0.011 0.45703,0.0332 l 1.96289,0.2793 -0.33008,3.5957 c -0.18153,1.97719 -0.27148,8.75045 -0.19922,15.05274 l 0.13086,11.45898 -3.17187,0 c -1.74431,0 -3.17188,-0.3082 -3.17188,-0.68359 0,-0.3754 0.82878,-1.19866 1.83985,-1.83008 l 1.83789,-1.14844 -0.54297,-5.58398 c -0.29936,-3.07114 -0.93236,-8.32837 -1.4043,-11.68359 -0.59311,-4.21653 -0.55727,-6.66139 0.11524,-7.91797 0.54052,-1.01 1.42883,-1.56773 2.47656,-1.57227 z m -44.51953,0.084 c 0.68478,0.0514 1.44004,0.50747 1.97851,1.24024 0.68118,0.92702 1.89918,2.79693 2.70508,4.15625 l 1.46484,2.4707 -3.01757,0 c -1.65913,0 -3.50059,-0.48496 -4.09375,-1.07812 -0.59315,-0.59316 -1.07813,-2.2235 -1.07813,-3.62305 0,-1.46794 0.58806,-2.77014 1.39063,-3.07812 0.20162,-0.0774 0.42214,-0.10499 0.65039,-0.0879 z m -36.87891,4.21876 1.21289,1.5996 c 0.66727,0.87955 1.22644,2.71295 1.24219,4.07227 l 0.0273,2.4707 -1.79687,0 -1.79688,0 0,-2.62304 c 0,-1.44247 0.25107,-3.27392 0.55664,-4.07032 l 0.55469,-1.44921 z m 76.86523,0 0.55469,1.44921 c 0.30562,0.7964 0.55664,2.62785 0.55664,4.07032 l 0,2.62304 -1.79883,0 -1.79687,0 0.0273,-2.4707 c 0.0157,-1.35932 0.57687,-3.19272 1.24414,-4.07227 l 1.21289,-1.5996 z"
       style="fill:#000000"
       inkscape:connector-curvature="0"
       sodipodi:nodetypes="ssssccsssccscccscscccccccsssssccscccsccccccccccccccsccscscscsscccccccccccsssssssscccccccccsssccccccccscscssccccccssssssssscccccccccssccsscccssscccscccssssscccsccccsscscccscccccccccscccsscsscsssccsscccsssscccsscccccsscccscsscccscccccsssscccsscccccccccsscsccccsscccssccccccscccccsscccscsccscsssccccccccscccccsccccccc" />
    <path
       style="fill:#fefefe"
       d="m 208.74051,141.41369 -3.17149,0 0.13142,-11.45871 c 0.0723,-6.30229 -0.0172,-13.0764 -0.19871,-15.05359 l -0.33015,-3.59489 1.96132,-0.27922 c 1.24529,-0.17729 2.31652,0.38449 2.93427,1.53877 0.67396,1.25929 0.7073,3.6927 0.10852,7.91835 -0.47545,3.35521 -1.11643,8.79401 -1.42443,12.08622 l -0.55997,5.98584 1.86035,0.59046 c 1.0232,0.32475 1.86036,0.96762 1.86036,1.42861 0,0.46098 -1.42717,0.83816 -3.17149,0.83816 z m 37.83285,0 c -2.16707,0 -3.21918,-0.46795 -3.53605,-1.57276 -0.2481,-0.86503 -0.72498,-6.27207 -1.05972,-12.01566 -0.33475,-5.74359 -0.317,-12.56335 0.0395,-15.15502 l 0.64808,-4.71214 1.75927,1.75926 1.75926,1.75927 0.16458,6.65534 c 0.0905,3.66044 -0.15606,9.51462 -0.54794,13.00929 l -0.71253,6.35395 2.28529,1.04124 c 1.25689,0.57269 2.28528,1.45434 2.28528,1.95924 0,0.50489 -1.38824,0.91799 -3.08497,0.91799 z m 45.80022,0 c -1.74431,0 -3.17148,-0.30714 -3.17148,-0.68253 0,-0.3754 0.82724,-1.19917 1.83831,-1.83059 l 1.83833,-1.14806 -0.5443,-5.58387 c -0.29936,-3.07112 -0.93044,-8.32903 -1.40238,-11.68424 -0.59311,-4.21653 -0.55764,-6.66177 0.11486,-7.91835 0.61775,-1.15428 1.68899,-1.71606 2.93427,-1.53877 l 1.96132,0.27922 -0.33015,3.59489 c -0.18157,1.97719 -0.27099,8.7513 -0.19871,15.05359 l 0.13142,11.45871 z m -32.94043,-8.0885 c -0.35769,0 -0.58223,-1.76014 -0.49897,-3.91143 l 0.15138,-3.91143 -3.45816,-6.81312 c -1.90199,-3.74721 -4.83197,-8.06325 -6.51106,-9.59119 -1.6791,-1.52795 -3.0529,-3.5858 -3.0529,-4.573 0,-1.04563 0.94422,-2.22514 2.26189,-2.8255 l 2.2619,-1.03059 1.31571,1.72389 c 0.72364,0.94815 3.34561,6.88502 5.8266,13.19306 2.481,6.30803 4.51089,12.39463 4.51089,13.52577 0,1.13113 -0.48531,2.54192 -1.07846,3.13507 -0.59316,0.59316 -1.37113,1.07847 -1.72882,1.07847 z m -46.62243,-9.88594 -1.79745,0 0,-2.62266 c 0,-1.44247 0.25005,-3.27426 0.55566,-4.07066 l 0.55564,-1.44801 1.21321,1.59918 c 0.66727,0.87954 1.22607,2.71134 1.2418,4.07066 l 0.0286,2.47149 z m 75.49265,0 -1.79744,0 0.0286,-2.47149 c 0.0158,-1.35932 0.57454,-3.19112 1.2418,-4.07066 l 1.21322,-1.59918 0.55564,1.44801 c 0.30561,0.7964 0.55565,2.62819 0.55565,4.07066 l 0,2.62266 -1.79744,0 z m -36.16768,-4.49361 c -1.65913,0 -3.50191,-0.48531 -4.09507,-1.07847 -0.59315,-0.59316 -1.07846,-2.22355 -1.07846,-3.62309 0,-1.46794 0.58868,-2.77053 1.39126,-3.07851 0.80648,-0.30947 1.91184,0.17457 2.62979,1.1516 0.68118,0.92702 1.8979,2.79766 2.70379,4.15698 l 1.46528,2.47149 z m 40.72522,-29.657831 c -0.50407,0 -1.55162,-1.228194 -2.32788,-2.729326 l -1.41139,-2.729318 -0.0382,-21.448753 c -0.0213,-11.961823 0.3417,-22.183063 0.82067,-23.108937 0.47236,-0.913102 1.34786,-3.176779 1.94555,-5.030393 0.59769,-1.853615 1.45977,-3.370208 1.91572,-3.370208 0.45597,0 0.82903,2.329466 0.82903,5.17659 0,2.847125 0.60663,12.856642 1.34808,22.243372 0.74145,9.38673 1.59376,19.164929 1.89403,21.729329 l 0.54596,4.662556 -2.30254,2.30254 c -1.26638,1.2664 -2.71496,2.302548 -3.21903,2.302548 z m -85.44252,-0.898722 c -0.83538,0 -2.20253,-0.755444 -3.03812,-1.678763 l -1.51927,-1.678762 1.37878,-15.621638 c 0.75833,-8.591901 1.64381,-20.778055 1.96775,-27.080344 0.32393,-6.302288 0.89975,-11.458706 1.27958,-11.458706 0.37982,0 1.17962,1.516593 1.7773,3.370208 0.59769,1.853614 1.4737,4.118253 1.9467,5.032532 0.48262,0.932889 0.8411,11.334776 0.81696,23.705015 l -0.0431,22.042687 -1.52389,1.683889 c -0.83811,0.926137 -2.20735,1.683882 -3.04272,1.683882 z m 46.95822,-1.833429 c -0.37072,-0.01977 -1.70084,-0.594616 -2.95582,-1.277393 -1.25498,-0.68277 -2.7302,-2.183176 -3.27826,-3.334223 -0.54805,-1.151048 -1.44226,-6.788835 -1.98714,-12.528413 -0.54487,-5.73958 -0.99068,-11.098211 -0.99068,-11.908068 0,-1.023447 0.78965,-1.472469 2.58948,-1.472469 l 2.58947,0 0.99241,3.941248 c 0.54584,2.167686 1.60492,8.304458 2.3535,13.637271 0.7486,5.332812 1.36109,10.434476 1.36109,11.33703 0,0.902547 -0.30333,1.62481 -0.67405,1.605017 z m -9.57955,-4.212009 -1.2092,1.593701 -0.55141,-2.043062 c -0.30328,-1.123683 -0.81962,-7.199479 -1.14744,-13.501767 l -0.59603,-11.458707 1.35962,0 1.35961,0 1.02561,9.019433 c 0.56409,4.960688 1.01275,10.319318 0.99704,11.908068 -0.0157,1.588751 -0.57273,3.6058 -1.2378,4.482334 z m -2.01239,-27.46665 c -0.7134,0.240711 -1.22979,-2.817706 -1.67276,-9.907283 -0.35244,-5.640518 -0.36633,-11.120242 -0.0309,-12.177164 0.3355,-1.056923 1.34459,-1.921678 2.24246,-1.921678 1.13084,0 2.23196,1.476986 3.58328,4.806422 1.07293,2.643532 2.32505,7.395525 2.78248,10.559985 0.45744,3.164458 0.83982,6.259093 0.84976,6.876964 0.0105,0.653092 -1.11067,1.123403 -2.67809,1.123403 l -2.69617,0 -0.0554,-4.718291 c -0.0305,-2.59506 -0.63017,-7.347053 -1.3326,-10.559984 l -1.27717,-5.841694 0.62184,4.942972 c 0.34201,2.718634 0.63836,7.536134 0.65854,10.705558 0.0227,3.566611 -0.35655,5.895278 -0.99527,6.11079 z"
       id="path9828"
       inkscape:connector-curvature="0"
       sodipodi:nodetypes="scscccssscssssssscccssccsssssscsssccsscssscsssscsssssccsscssccccsscsscccsssssscscssscsssssssccsssscsssssscsccssssscssscsccscccssscscssssscsscs" />
    <path
       id="path9824"
       d="m 246.25391,80.960938 -1.15039,2.140624 c -0.63305,1.177916 -2.15929,2.315154 -2.80469,6.269532 -0.64544,3.954377 -0.70094,11.534976 -0.71094,13.103516 -0.0112,1.77674 0.85906,3.89451 2.30859,5.61719 1.27969,1.52081 2.62812,2.76562 2.9961,2.76562 0.36797,0 0.90502,-0.23706 1.19336,-0.52539 0.28834,-0.28835 -0.2761,-1.32298 -1.25391,-2.30078 -0.97778,-0.97779 -1.65202,-2.64958 -1.49805,-3.71484 0.15397,-1.06525 1.40852,-2.55649 2.78711,-3.31446 l 2.50586,-1.378903 1.74219,2.246093 c 0.95833,1.23574 1.75277,1.90455 1.76367,1.48633 0.011,-0.41823 -0.61044,-2.92298 -1.3789,-5.566408 l -1.39649,-4.80664 1.40235,-2.710938 1.40234,-2.71289 -2.02734,-1.017578 c -1.11506,-0.559803 -2.89354,-2.043903 -3.95313,-3.298828 l -1.92773,-2.28125 z m 42.10742,4.162109 c -0.0226,0.01929 -0.0345,0.05931 -0.0332,0.121094 0.0102,0.494298 0.42327,2.653571 0.91797,4.798828 0.61863,2.682714 0.58554,6.270342 -0.10937,11.492191 -0.55567,4.17571 -0.74713,8.64545 -0.42383,9.93359 l 0.58789,2.34375 1.34961,-1.92773 c 0.74222,-1.05967 2.11157,-1.92579 3.04297,-1.92579 0.93139,0 1.96478,0.43921 2.29687,0.97657 0.34638,0.56045 0.94018,0.63991 1.39258,0.1875 0.43376,-0.43375 1.04572,-2.66087 1.35938,-4.94922 0.31365,-2.28836 0.28109,-7.63103 -0.0723,-11.873049 l -0.64258,-7.71289 -2.28711,1.798828 c -1.25796,0.989507 -2.64322,1.800781 -3.07812,1.800781 -0.4349,0 -1.59083,-1.315406 -2.57031,-2.921875 -0.85706,-1.405654 -1.57218,-2.277583 -1.73047,-2.142578 z m -76.21289,0.25 -1.73633,1.789062 c -1.13185,1.165456 -2.30981,1.681641 -2.98047,1.681641 -0.67067,0 -1.92061,-0.189506 -2.77734,-0.964844 l -1.5586,-1.410156 -0.64648,7.771484 c -0.35612,4.275013 -0.39179,9.645236 -0.0781,11.933596 0.31365,2.28835 0.92562,4.51547 1.35938,4.94922 0.4524,0.45241 1.04619,0.37295 1.39258,-0.1875 0.33211,-0.53736 1.38461,-0.97657 2.33984,-0.97657 0.95524,0 2.23621,0.7975 2.8457,1.77344 l 1.10743,1.77539 1.23828,-1.22851 c 0.73128,-0.7268 0.28218,-5.12686 -0.36524,-10.46875 -0.57932,-4.779947 -0.45413,-9.293416 -0.23047,-9.99805 0.22368,-0.704627 0.36259,-1.704328 0.27539,-3.220703 l -0.18554,-3.21875 z"
       style="fill:#007f7f"
       inkscape:connector-curvature="0" />
    <path
       style="fill:#fe0000"
       d="m 266.06,71.22603 c -0.37072,-0.04803 -2.19064,-0.709552 -4.04425,-1.470036 -1.85362,-0.760485 -3.34101,-1.631139 -3.30532,-1.934787 0.0357,-0.303649 1.46589,-1.716945 3.17824,-3.140659 1.71233,-1.423712 3.35846,-2.343441 3.65806,-2.043843 0.2996,0.2996 0.0331,1.161138 -0.59211,1.914528 l -1.13683,1.369802 1.25815,0 c 0.692,0 2.157,-0.62957 3.25557,-1.399044 1.09858,-0.769475 1.99742,-2.135442 1.99742,-3.035484 0,-0.900041 -0.58121,-2.118795 -1.29156,-2.708341 -0.71036,-0.589545 -5.38476,-1.516768 -10.38755,-2.060495 -6.72496,-0.730901 -10.81889,-0.720741 -15.7056,0.03898 -3.63528,0.565165 -8.29415,1.701595 -10.35305,2.525401 -2.36243,0.94526 -4.05761,2.324168 -4.59506,3.73775 -0.46839,1.231957 -0.61185,2.995355 -0.3188,3.918661 0.29305,0.923309 0.10883,1.678742 -0.40935,1.678742 -0.51818,0 -1.1886,-0.981875 -1.4898,-2.181943 -0.3012,-1.200069 -0.29097,-2.990613 0.0227,-3.978989 0.31371,-0.988376 1.91613,-2.591069 3.56096,-3.56154 1.64482,-0.97047 5.85208,-2.415324 9.34946,-3.210786 3.49738,-0.795462 8.57522,-1.446295 11.28409,-1.446295 2.70887,0 8.08876,0.43758 11.95533,0.972401 3.86916,0.535178 7.73729,1.608042 8.60289,2.386095 0.86502,0.777532 1.57277,2.186452 1.57277,3.130932 0,0.944481 -0.38897,2.444033 -0.86438,3.332338 -0.4754,0.888306 -2.11561,2.133377 -3.64489,2.766827 -1.95137,0.808284 -2.4976,1.434634 -1.83179,2.100448 0.52179,0.521798 0.94872,1.272263 0.94872,1.667701 0,0.395437 -0.30332,0.679675 -0.67404,0.63164 z"
       id="path9822"
       inkscape:connector-curvature="0"
       sodipodi:nodetypes="cscssscssssssssssscsssssssssssc" />
    <g
       transform="translate(17.0563,27.95183)"
       id="g3376">
      <path
         sodipodi:nodetypes="ssssssscsssssssssssssssssssssssccssssccccsssssccccssscssscssccssscssscccc"
         inkscape:connector-curvature="0"
         id="path3384"
         transform="translate(-17.0563,-27.95183)"
         d="m 113.63672,45.763672 c -0.3384,0 -5.19334,4.671913 -10.78906,10.380859 -7.879811,8.039237 -10.04452,10.787514 -9.601566,12.1875 0.893436,2.823763 3.941676,2.185782 5.68164,-1.189453 1.647786,-3.196427 9.477136,-12.987563 13.124996,-16.412109 2.03466,-1.910086 3.00946,-4.966797 1.58399,-4.966797 z m 14.42578,4.074219 c -0.25262,-0.01923 -0.43953,0.01345 -0.53711,0.111328 -0.28263,0.283514 0.80976,2.306336 2.42578,4.49414 1.61602,2.187805 7.02202,11.570313 12.01367,20.851563 4.99164,9.28125 9.52486,17.18563 10.07422,17.564453 1.72164,1.187216 4.30481,0.780318 4.89844,-0.771484 1.0905,-2.850678 -1.34731,-7.510026 -11.70312,-22.376953 -5.73158,-8.228309 -10.42188,-15.429277 -10.42188,-16 0,-1.037805 -4.98163,-3.738417 -6.75,-3.873047 z m -29.814453,8.234375 c -1.795848,0.109838 -3.621094,1.688335 -3.621094,3.339843 0,1.015962 0.758042,0.814294 3.027344,-0.80664 2.455323,-1.753809 2.710193,-2.224617 1.355469,-2.486328 -0.249908,-0.04828 -0.505169,-0.06257 -0.761719,-0.04687 z m -6.048828,34.566406 c -3.176493,0 -5.048828,4.266039 -5.048828,11.499998 0,3.28247 -0.379829,8.26077 -0.84375,11.0625 -2.090744,12.62652 -3.045164,21.7078 -2.507813,23.85547 0.532927,2.12999 1.02727,2.33203 5.705078,2.33203 2.817309,0 5.123047,-0.23149 5.123047,-0.51562 0,-0.28412 -1.472418,-1.13462 -3.271484,-1.88867 -2.400205,-1.00601 -3.271485,-1.94762 -3.271485,-3.53711 0,-1.1914 1.63934,-8.88387 3.642578,-17.09571 2.003237,-8.21183 3.934938,-16.73802 4.292969,-18.947263 0.750657,-4.631943 -0.453717,-6.765625 -3.820312,-6.765625 z m 5.498047,1.695312 -0.650391,4.074219 c -0.62805,3.926877 -0.507525,4.208477 3.369145,7.769527 2.21238,2.03228 7.91046,7.30219 12.66015,11.71094 4.74969,4.40876 10.00609,8.51541 11.68164,9.125 3.65322,1.3291 5.38281,1.50121 5.38281,0.53711 0,-0.39224 -7.29897,-8.0262 -16.2207,-16.96484 z m 53.634764,1.585938 -1.8125,10.781248 c -1.63572,9.72205 -2.26363,11.52229 -6.39062,18.31055 -5.06442,8.33017 -4.95645,7.93914 -3.59375,12.86133 0.58665,2.11905 1.54604,3.51562 2.41406,3.51562 1.16347,0 1.31742,-0.72331 0.80469,-3.76758 -0.59589,-3.53805 -0.3141,-4.18575 4.59961,-10.62109 3.38199,-4.42928 6.01076,-9.14911 7.43359,-13.3418 l 2.20117,-6.48828 -2.82812,-5.625 z m 17.29102,12.804688 c -2.68649,0.0168 -3.47683,2.70697 -1.6836,6.18555 0.7592,1.47271 2.26881,7.50553 3.35547,13.40625 1.08667,5.90071 2.15638,11.25585 2.37696,11.90039 0.47361,1.38396 7.00195,1.60248 7.00195,0.23437 0,-0.51562 -0.58097,-0.9375 -1.28906,-0.9375 -2.55607,0 -3.4513,-2.7838 -4.41407,-13.71875 -1.32695,-15.07114 -1.77898,-16.68254 -4.78515,-17.03906 -0.19575,-0.0232 -0.3834,-0.0324 -0.5625,-0.0312 z m 5.65625,1.72656 c -0.96053,0 -1.19899,0.62614 -0.80274,2.10938 0.30995,1.16015 0.56917,3.05859 0.57617,4.21875 0.01,1.62158 0.55346,2.10937 2.34961,2.10937 1.9091,0 2.33594,-0.45765 2.33594,-2.5039 0,-2.78986 -2.36209,-5.9336 -4.45898,-5.9336 z m -142.269534,31.875 0,2.65625 c 0,1.46094 0.280366,2.9375 0.623046,3.28125 0.342678,0.34375 98.543918,0.625 218.224608,0.625 l 56.39258,0 0,-6.5625 -57.01562,0 z"
         style="fill:#fefefe" />
      <path
         sodipodi:nodetypes="sssssssssssssssscssss"
         style="fill:#007f7f"
         d="m 144.21353,82.265625 c -3.05358,-3.169038 -9.63409,-14.136936 -9.63409,-16.057373 0,-0.224243 0.84337,-0.186482 1.87414,0.08392 3.04085,0.797686 4.92276,-1.49089 4.36741,-5.311177 -0.52465,-3.609114 -0.35862,-3.300082 3.14112,5.84676 1.40122,3.66219 3.30278,6.476265 5.85987,8.671875 2.08202,1.787706 4.08536,3.250376 4.45186,3.250376 0.36651,0 0.94657,0.738281 1.28902,1.640625 0.49924,1.31545 0.3894,1.408357 -0.55421,0.46875 -2.87708,-2.864875 -8.3991,0.345616 -6.9791,4.057632 0.75277,1.967836 0.39611,1.720024 -3.81602,-2.651388 z M 70.09346,66.433175 c 0,-0.816214 1.051402,-3.038193 2.336448,-4.937733 2.088539,-3.087251 2.339465,-4.419161 2.364869,-12.5527 0.02074,-6.639702 0.285888,-8.655561 0.981018,-7.458367 1.316989,2.268199 4.204006,2.05315 5.946913,-0.442974 1.386184,-1.985239 1.454803,-1.819276 1.453587,3.515625 -0.0011,5.088301 -2.264106,20.840437 -3.116811,21.695806 -0.19463,0.195239 -0.88586,-0.288029 -1.536065,-1.073926 -1.723224,-2.082846 -5.2979,-1.747321 -6.975096,0.654693 -1.075374,1.540109 -1.454863,1.696504 -1.454863,0.599576 z"
         id="path3380"
         inkscape:connector-curvature="0" />
      <path
         sodipodi:nodetypes="sssssssssssccccsscccccsccccsscccccsccscsssssscssssssssccsssssssssccccccsccsssssssccsssscccsssscccssssscsscsssssscssscsssssscssscsssssssccccssscscccccsssccsccscssscssssssssscssccsccscc"
         inkscape:connector-curvature="0"
         id="path3378"
         d="m 96.88324,17.18945 c -0.8351,-0.12282 -3.17639,1.74241 -6.16016,4.92383 -4.89741,5.22185 -5.30327,5.45787 -6.79101,3.96094 -1.20065,-1.20806 -3.00032,-1.54939 -7.46485,-1.41211 -6.24931,0.19215 -6.76454,0.60689 -8.67187,6.97852 -1.04627,3.49514 1.12803,2.38677 2.29883,-1.17188 1.55338,-4.72152 4.14811,-4.4445 4.39062,0.46875 0.2746,5.56339 0.26375,6.15503 -0.30664,17.26953 -0.43575,8.49085 -0.86945,10.70277 -2.53906,12.96484 -1.69884,2.30163 -2.10678,4.50835 -2.61328,14.13672 -0.33012,6.2754 -1.16725,15.20704 -1.86133,19.84766 -0.69409,4.64063 -1.26573,10.65224 -1.26953,13.35938 l -0.008,4.92187 -25.93359,0 -25.93555,0 0,3.09375 c 0,3.92184 1.42888,5.34375 5.36719,5.34375 3.70843,0 3.76178,0.0475 16.9082,14.94336 l 10.29297,11.66211 -10.91015,16.16992 -10.91016,16.16797 -7.47656,0.33789 c -4.11215,0.18571 88.14838,0.31943 153.94649,0.29688 l 119.63359,-0.041 -114.62485,-0.4707 -147.92576,-0.47268 19.01758,-28.0918 c 10.46001,-15.45052 19.01953,-28.6341 19.01953,-29.29687 0,-0.97705 130.86895,-1.25063 174.12564,-1.4375 l 49.53718,-0.23047 -56.58563,-0.47266 -218.01273,-0.4707 -0.29297,-3.04688 -0.29297,-3.04687 218.51758,-0.2207 c 32.29666,-0.0326 55.41014,-0.34673 52.69451,-0.51563 -23.23128,-0.0316 -30.23587,-0.20117 -114.1574,-0.20117 -5.06908,0 -8.33789,-0.37681 -8.33789,-0.96094 0,-0.52839 -1.01717,-1.34958 -2.26172,-1.82422 -2.35746,-0.89911 -2.24768,-0.44962 -3.7461,-15.26171 -0.33762,-3.33754 -0.21791,-3.51563 2.35938,-3.51563 4.3797,0 6.48099,-2.89794 6.28906,-8.67187 -0.09,-2.70699 -0.56181,-5.44922 -1.04883,-6.09376 -1.05803,-1.40025 -4.98084,-1.55885 -5.79687,-0.23437 -0.32624,0.52951 0.43815,0.9375 1.75781,0.9375 1.28505,0 2.5409,0.33231 2.79102,0.73828 0.25013,0.40597 -1.4582,0.66168 -3.79688,0.56836 -6.21144,-0.24785 -11.89774,-4.54106 -14.83398,-11.20117 -1.25076,-2.83702 -2.27344,-5.76507 -2.27344,-6.50586 0,-0.74079 -1.35234,-2.89211 -3.00586,-4.78125 -4.36085,-4.98225 -21.29297,-29.67208 -21.29297,-31.04883 0,-0.64257 -1.73238,-2.05516 -3.84961,-3.13867 -5.54592,-2.83816 -6.7396,-1.17404 -2.89062,4.0293 1.62572,2.19777 7.19672,11.87925 12.38086,21.51367 l 9.42578,17.51758 -2.02735,12.01367 c -1.87982,11.14552 -2.36451,12.57043 -6.70703,19.71875 -4.76218,7.83914 -4.83509,8.20598 -2.95312,14.56054 0.45292,1.52931 -10.23982,1.64063 -21.16016,1.64063 -10.949304,0 -21.79864,-0.12259 -24.01953,-1.875 -1.30694,-1.03125 -2.95063,-1.875 -3.65234,-1.875 -0.70866,0 -1.27539,-0.95922 -1.27539,-2.1582 0,-1.89077 5.82168,-27.1467 7.0332,-30.51172 0.46665,-1.29613 6.61459,3.79462 19.13476,15.84375 6.48504,6.24106 13.21135,9.57427 15.23243,7.54687 0.79844,-0.80093 -3.09044,-5.24625 -15.49024,-17.69922 L 81.31488,66.08203 82.74066,58.11914 c 0.78356,-4.37958 1.32647,-10.93591 1.20703,-14.57031 l -0.2168,-6.60938 4.64844,-5.57812 c 2.55687,-3.06872 5.79799,-6.72071 7.20117,-8.11524 2.71714,-2.70036 3.24666,-4.89272 1.45118,-6.00586 -0.042,-0.026 -0.0928,-0.0426 -0.14844,-0.0508 z M 96.5805,17.8125 c 1.42547,0 0.45067,3.05671 -1.58398,4.9668 -3.64787,3.42454 -11.47721,13.21373 -13.125,16.41015 -1.51219,2.93339 -4.559,4.05109 -5.55469,2.03711 -0.26129,-0.52851 -0.36849,-0.42304 -0.23828,0.23438 0.4225,2.13306 4.02668,1.89864 5.60742,-0.36524 1.43762,-2.05891 1.49144,-1.93382 1.49024,3.46094 -7.1e-4,3.07957 -0.63011,9.18292 -1.39844,13.5625 l -1.39649,7.96289 16.35157,16.42188 c 8.99333,9.03189 16.35156,16.73374 16.35156,17.11523 0,0.38149 -0.52545,0.65984 -1.16797,0.61914 -2.12803,-0.13482 -9.11328,-2.88162 -9.11328,-3.58398 0,-0.37956 -5.28057,-5.48799 -11.73438,-11.35157 l -11.73437,-10.6621 0.61133,-3.62891 c 0.46553,-2.76407 0.22071,-4.06192 -1.02735,-5.44531 -2.18595,-2.42301 -5.57659,-2.29964 -7.36914,0.26757 -1.07537,1.54011 -1.45507,1.69654 -1.45507,0.59961 0,-0.81621 1.01117,-2.98026 2.24804,-4.80859 1.9446,-2.87447 2.29255,-4.6363 2.57032,-13.02148 L 75.23285,38.90625 85.60004,28.35937 C 91.30136,22.55859 96.2421,17.8125 96.5805,17.8125 Z m 14.42578,4.07422 c 1.76838,0.13463 6.75,2.83524 6.75,3.87305 0,0.57072 4.69031,7.76973 10.42188,15.99804 10.35582,14.86693 12.79363,19.52823 11.70312,22.37891 -0.59362,1.5518 -3.17679,1.9587 -4.89843,0.77148 -0.54936,-0.37882 -5.08258,-8.2832 -10.07422,-17.56445 -4.99165,-9.28125 -10.39765,-18.66571 -12.01367,-20.85352 -1.61602,-2.1878 -2.70841,-4.20867 -2.42578,-4.49218 0.0976,-0.0979 0.28448,-0.13056 0.5371,-0.11133 z m -29.81445,8.23437 c 0.25655,-0.0157 0.51181,-10e-4 0.76172,0.0469 1.35472,0.26171 1.09986,0.73056 -1.35547,2.48437 -2.2693,1.62094 -3.02734,1.82261 -3.02734,0.80664 0,-1.6515 1.82524,-3.22805 3.62109,-3.33789 z m 59.46875,28.71289 c 0.22815,0.0133 1.11345,2.27737 3.30078,7.99415 1.40122,3.66219 3.30424,6.47626 5.86133,8.67187 2.08202,1.78771 4.08467,3.25 4.45117,3.25 0.36651,0 0.94662,0.73828 1.28907,1.64063 0.49924,1.31544 0.38892,1.40835 -0.55469,0.46874 -2.87708,-2.86487 -8.39852,0.34658 -6.97852,4.0586 0.75277,1.96783 0.39573,1.71906 -3.8164,-2.65234 -3.05358,-3.16904 -9.63477,-14.13621 -9.63477,-16.05665 0,-0.22424 0.84423,-0.18641 1.875,0.084 3.04085,0.79768 4.92254,-1.49221 4.36719,-5.3125 -0.19675,-1.35342 -0.29705,-2.15448 -0.16016,-2.14649 z M 75.143,64.6875 c 3.3666,0 4.57097,2.13173 3.82032,6.76367 -0.35803,2.20924 -2.28974,10.73543 -4.29297,18.94727 -2.00324,8.21184 -3.64258,15.90625 -3.64258,17.09765 0,1.58949 0.87128,2.53111 3.27148,3.53711 1.79907,0.75405 3.27149,1.60456 3.27149,1.88867 0,0.28414 -2.30574,0.51563 -5.12305,0.51563 -4.67781,0 -5.17215,-0.20204 -5.70508,-2.33203 -0.53735,-2.14767 0.41707,-11.22895 2.50782,-23.85547 0.46392,-2.80173 0.84375,-7.78003 0.84375,-11.0625 0,-7.23396 1.87233,-11.5 5.04882,-11.5 z m 59.13282,3.28125 2.82812,5.625 2.82813,5.625 -2.20118,6.48828 c -1.42283,4.19269 -4.0516,8.91056 -7.43359,13.33984 -4.91371,6.43534 -5.1955,7.085 -4.59961,10.62305 0.51273,3.04427 0.35878,3.76758 -0.80469,3.76758 -1.25574,0 -3.37547,-4.96154 -3.39257,-7.94141 -0.003,-0.50032 2.05511,-4.2972 4.57226,-8.4375 4.12699,-6.78826 4.75491,-8.58654 6.39063,-18.30859 z m 6.3789,11.7832 4.80664,4.64844 4.80469,4.65039 2.08984,11.49024 c 1.14885,6.31967 2.27057,11.80664 2.49219,12.19335 0.22162,0.38671 -5.8944,0.70313 -13.58984,0.70313 l -13.99024,0 -0.63476,-3.76758 c -0.59589,-3.53805 -0.31606,-4.18771 4.59765,-10.62305 3.31774,-4.34514 5.99992,-9.13011 7.32813,-13.07421 z m 10.91211,1.01953 c 0.1791,-10e-4 0.36676,0.01 0.5625,0.0332 3.00617,0.35651 3.45821,1.96596 4.78516,17.03711 0.96277,10.93495 1.85799,13.7207 4.41406,13.7207 0.70809,0 1.28906,0.42188 1.28906,0.9375 0,1.36811 -6.52833,1.14959 -7.00195,-0.23437 -0.22057,-0.64455 -1.29028,-5.99969 -2.37695,-11.9004 -1.08666,-5.90072 -2.59823,-11.93354 -3.35743,-13.40625 -1.79323,-3.47857 -1.00094,-6.17068 1.68555,-6.18749 z M 157.22308,82.5 c 2.09689,0 4.45899,3.14374 4.45899,5.93359 0,2.04626 -0.42684,2.50391 -2.33594,2.50391 -1.79615,0 -2.33961,-0.48779 -2.34961,-2.10937 -0.007,-1.16016 -0.26622,-3.0586 -0.57617,-4.21876 C 156.0241,83.12614 156.26255,82.5 157.22308,82.5 Z m -130.25586,39.375 18.20508,0 c 16.88527,0 18.17263,0.11892 17.75781,1.64063 -0.24598,0.90234 -3.69565,6.34673 -7.66406,12.0996 l -7.21484,10.46094 -7.9043,-8.94726 c -4.3473,-4.92079 -9.09199,-10.36519 -10.54297,-12.09961 z"
         style="fill:#000000" />
    </g>
  </g>
</svg>
