<?xml version="1.0" encoding="UTF-8" standalone="no"?>
<!-- Created with Inkscape (http://www.inkscape.org/) -->

<svg
   xmlns:dc="http://purl.org/dc/elements/1.1/"
   xmlns:cc="http://creativecommons.org/ns#"
   xmlns:rdf="http://www.w3.org/1999/02/22-rdf-syntax-ns#"
   xmlns:svg="http://www.w3.org/2000/svg"
   xmlns="http://www.w3.org/2000/svg"
   xmlns:sodipodi="http://sodipodi.sourceforge.net/DTD/sodipodi-0.dtd"
   xmlns:inkscape="http://www.inkscape.org/namespaces/inkscape"
   id="svg17751"
   version="1.1"
   inkscape:version="0.91 r13725"
   width="473.4375"
   height="234.375"
   viewBox="0 0 473.4375 234.375"
   sodipodi:docname="bb520602.svg">
  <metadata
     id="metadata17757">
    <rdf:RDF>
      <cc:Work
         rdf:about="">
        <dc:format>image/svg+xml</dc:format>
        <dc:type
           rdf:resource="http://purl.org/dc/dcmitype/StillImage" />
        <dc:title></dc:title>
      </cc:Work>
    </rdf:RDF>
  </metadata>
  <defs
     id="defs17755" />
  <sodipodi:namedview
     pagecolor="#b9b9b9"
     bordercolor="#666666"
     borderopacity="1"
     objecttolerance="10"
     gridtolerance="10"
     guidetolerance="10"
     inkscape:pageopacity="0"
     inkscape:pageshadow="2"
     inkscape:window-width="1458"
     inkscape:window-height="950"
     id="namedview17753"
     showgrid="false"
     inkscape:zoom="1"
     inkscape:cx="262.92387"
     inkscape:cy="-5.818516"
     inkscape:window-x="0"
     inkscape:window-y="0"
     inkscape:window-maximized="0"
     inkscape:current-layer="svg17751" />
  <g
     id="g4260"
     transform="translate(-3.4089336,-9.5102085)">
    <path
       style="fill:#fe0000"
       id="path2993"
       d="m 114.28228,128.46702 c 0,-4.14291 2.94911,-15.16491 5.63402,-21.05655 3.68202,-8.079671 10.76848,-17.787281 13.74811,-18.83328 1.47951,-0.51939 1.59267,-0.83962 0.52896,-1.49703 -0.74424,-0.45997 -1.1412,-1.01897 -0.88213,-1.24222 0.92905,-0.800611 7.30391,-2.70329 7.70693,-2.30027 0.36857,0.36856 -2.352,6.39369 -3.41744,7.568479 -0.23496,0.25907 -0.8334,-0.18622 -1.32988,-0.98953 -0.72002,-1.16503 -1.8499,-0.45095 -5.58385,3.52896 -5.84252,6.22738 -11.76579,18.772841 -13.3789,28.336451 -0.66359,3.93419 -1.61586,7.15308 -2.11617,7.15308 -0.50031,0 -0.90965,-0.30064 -0.90965,-0.66809 z"
       inkscape:connector-curvature="0" />
    <g
       transform="matrix(1.0862035,0,0,1.0862035,-117.20035,-302.79774)"
       id="g4466">
      <path
         style="fill:#000000"
         d="m 239.76367,361.54297 c -0.66289,0.0344 -1.48751,0.44209 -2.89648,1.24414 -3.30647,1.88218 -4.36957,4.00096 -1.39258,2.77539 0.9625,-0.39625 2.65,-0.96177 3.75,-1.25586 1.82075,-0.48678 1.78125,-0.29754 -0.42578,2.11328 -1.33338,1.45648 -2.97992,2.64844 -3.66016,2.64844 -2.21376,0 -6.36382,6.01163 -7.8125,11.31641 -0.77855,2.85093 -1.9713,9.99925 -2.65039,15.88476 -1.50983,13.08538 -0.99889,14.30201 7.07422,20.75754 4.63837,3.69735 9.18376,10.00497 13.80469,14.31277 1.84487,1.59064 4.05032,3.60163 6.1289,5.58985 5.26943,4.80019 9.25414,8.69935 10.72852,9.58398 1.81103,1.08662 8.45827,1.51963 6.26367,-1.21484 -1.91299,-2.30698 -4.01419,-4.48068 -5.65625,-6.5625 -5.7888,-6.72041 -10.10729,-12.07646 -19.79492,-24.54492 -2.16244,-2.78317 -0.36621,-5.5591 -1.09673,-9.10121 -0.39281,-1.90461 -0.0852,-3.09601 -2.40833,-4.66493 -0.7483,-0.50536 -1.26259,-10.73641 -0.991,-15.53524 0.1978,-3.49499 0.40059,-8.11261 0.95298,-7.33488 0.71414,1.00547 2.11276,1.11962 3.16027,1.07376 4.17782,-0.18289 9.88281,-5.1213 9.88281,-8.55469 0,-3.31643 -3.08777,-6.00586 -6.89453,-6.00586 -1.34681,0 -3.20976,-0.68882 -4.14063,-1.53125 -0.76189,-0.68951 -1.26289,-1.02851 -1.92578,-0.99414 z"
         id="path4462"
         inkscape:connector-curvature="0"
         sodipodi:nodetypes="cssssssscccsccsssssssssc" />
      <path
         style="fill:#fefefe"
         d="m 230.39648,402.09961 c -1.27345,-0.11178 -2.69182,0.5181 -3.02734,1.71875 -1.29463,4.63275 0.11891,8.72636 3.92969,12.09703 3.17925,2.51644 6.40058,6.74192 9.61328,9.65297 l 9.95898,9.68359 c 5.47755,5.32642 10.95112,10.41203 11.60938,10.67969 2.0545,0.83542 6.04297,1.14015 6.04297,0.2207 0,-0.48265 -1.52995,-2.44531 -2.42188,-3.18554 -2.1519,-1.78592 -15.26838,-17.32342 -18.97851,-22.48047 -3.81759,-5.30642 -13.06975,-16.03265 -15.02344,-17.56836 -0.41074,-0.49199 -1.03463,-0.75968 -1.70313,-0.81836 z"
         id="path4450"
         inkscape:connector-curvature="0"
         sodipodi:nodetypes="sscccsssscs" />
      <path
         sodipodi:nodetypes="sssssssss"
         inkscape:connector-curvature="0"
         style="fill:#fefefe"
         d="m 236.69654,404.8821 c -2.00786,0 -2.25229,-7.56645 -2.53615,-16.13542 -0.18795,-5.67359 -0.52112,-10.30814 -0.93676,-12.91088 -0.64265,-4.02434 -0.49182,-4.8335 1.00828,-5.40914 0.97019,-0.3723 2.49031,-0.21388 3.37805,0.35203 2.05892,1.31251 0.37651,5.5989 0.31242,18.15541 -0.0223,4.36196 0.23283,7.74345 0.31819,10.17473 0.0803,2.28595 2.04034,2.69148 2.49099,3.77945 0.94746,2.28734 -0.58056,1.99382 -4.03502,1.99382 z"
         id="path4446" />
      <path
         inkscape:connector-curvature="0"
         style="fill:#fefefe"
         d="m 241.28157,376.81805 c -1.61348,-5.31165 -1.46759,-5.75 1.91364,-5.75 1.80617,0 3.88695,0.72658 4.62395,1.61462 1.1488,1.38422 1.00777,1.88364 -0.98834,3.5 -2.68366,2.1731 -5.00154,2.43849 -5.54925,0.63538 z"
         id="path2997" />
      <path
         sodipodi:nodetypes="sscssssss"
         inkscape:connector-curvature="0"
         d="m 225.12984,408.49123 c -0.88768,-3.05475 2.17824,-26.34312 4.22671,-31.46276 l 1.69995,-4.24859 1.22865,4.83892 c 0.77583,3.05552 0.69744,8.38269 0.69744,14.47935 0,4.85196 0.31408,8.8925 0.5516,10.17967 0.15618,0.84641 -2.39152,-0.78941 -3.35797,-0.97416 -2.91536,-0.55731 -4.8314,3.31496 -3.9393,6.82304 0.78621,3.09167 -0.21846,3.42248 -1.10708,0.36453 z"
         id="path2991"
         style="fill:#008080" />
    </g>
    <g
       transform="translate(27.22183,2.625)"
       id="g4752">
      <path
         style="fill:#000000"
         d="m 222.76367,91.375 c -0.5958,-0.0644 -0.71682,0.227854 -0.71679,0.839844 0,0.50735 1.64279,1.464363 3.65039,2.126953 l 3.99414,2.111328 c -1.8125,0.125 -2.83789,0.501953 -4.27539,0.939453 -1.68015,0.70644 -2.47724,1.661937 -2.8418,2.810542 -0.77792,2.45105 -1.3567,2.53231 -3.96875,0.55665 -1.24625,-0.942632 -4.27731,-1.468754 -8.4668,-1.468754 -3.70375,0 -11.87915,-4.305999 -14.38074,-5.261369 -4.0244,-1.53693 -1.31322,0.746228 -17.11331,-8.607489 C 159.88,74.313429 157.98652,73.382549 152.89561,72.77964 c -3.02243,-0.357928 -5.63582,-0.136709 -5.80648,0.491764 -0.21844,0.804409 6.43482,5.670707 22.47375,16.438567 19.87219,13.341399 24.55908,16.398529 28.484,17.971669 2.47497,0.99201 7.40397,2.22176 10.95507,2.73242 3.5511,0.51067 5.68445,1.1701 6.11914,1.84375 0.43474,0.67365 -0.64579,2.20327 -2.13671,5.17578 -2.85481,5.69148 -5.19141,12.19617 -6.38868,17.35743 l 5.92774,0.51171 c 1.84167,0 2.31259,-0.94633 1.39062,-2.40429 -1.27204,-2.01154 -2.46317,-2.43662 3.37891,-11.28321 l 7.05664,-9.82421 4.43555,0 c 2.59712,0 4.65503,-0.71025 6.06836,-2.02344 3.4e-4,1.3e-4 0.006,0.004 0.006,0.004 0.20419,-0.18852 0.28447,-0.29279 0.38671,-0.4121 0.0452,-0.0503 0.097,-0.0947 0.14063,-0.14649 l -0.006,0.002 c 0.005,-0.007 0.0184,-0.0187 0.0234,-0.0254 0.0319,-0.0421 0.08,-0.10249 0.10937,-0.14453 0.99692,-1.269 1.53321,-2.94449 1.53321,-4.97851 0,-2.1589 -1.27971,-5.663751 -4.70465,-7.444356 -1.11553,-0.579959 -4.00955,-3.08115 -6.01411,-3.94432 -1.89804,-0.817302 -2.96865,-1.238334 -3.56445,-1.302734 z"
         id="path4743"
         inkscape:connector-curvature="0"
         sodipodi:nodetypes="cccccsssssscsssccccsccscccccccssssc" />
      <path
         style="fill:#fefefe"
         d="m 188.97421,92.817052 c -2.77648,-1.842966 -7.0851,-4.461087 -13.32285,-8.119472 -14.32983,-8.404346 -17.9955,-10.196097 -22.29483,-10.898801 -2.82991,-0.462534 -5.28968,-0.623667 -5.46615,-0.358534 -0.17646,0.265125 10.16679,7.455988 22.98461,15.9808 19.02008,12.649795 24.24712,16.574635 24.41348,15.097465 0.17228,-2.29394 0.72365,-6.078325 -0.39095,-7.720794 -1.27231,-1.874846 -5.6208,-3.75901 -5.92331,-3.980664 z"
         id="path4750"
         inkscape:connector-curvature="0"
         sodipodi:nodetypes="csssscsc" />
      <path
         inkscape:connector-curvature="0"
         style="fill:#fefefe"
         d="m 228.0595,103.49569 c -0.43819,-0.0126 -0.89855,0.0523 -1.41406,0.18164 -2.75611,0.69174 -3.25712,2.51326 -1.5625,5.67969 1.15914,2.16587 3.50226,2.44054 7.58398,0.88867 2.65094,-1.43819 1.23143,-2.07972 -0.33594,-4.13281 -1.83795,-1.83797 -2.95692,-2.5794 -4.27148,-2.61719 z"
         id="path4748" />
      <path
         inkscape:connector-curvature="0"
         style="fill:#fefefe"
         d="m 219.21452,104.51132 c -1.77141,1.0624 -2.27563,1.78309 -1.8894,5.67187 0.25177,2.53477 -3.14749,6.95094 -5.44942,11.73471 -2.30153,4.7839 -4.16326,9.49504 -4.13858,10.46869 0.0254,1.00139 1.04778,1.73186 2.43093,2.10247 2.67201,0.71596 3.55635,-0.7105 1.92764,-2.33921 -1.81683,-1.81683 -1.73101,-1.93263 4.84161,-11.72236 2.77486,-4.13307 5.18249,-6.74559 6.137,-9.29748 1.33079,-3.55787 0.41881,-6.31912 -1.10461,-6.90371 -0.60796,-0.2333 -2.02217,-0.15459 -2.75517,0.28502 z"
         id="path2997-9" />
      <path
         sodipodi:nodetypes="sssssssssss"
         inkscape:connector-curvature="0"
         d="m 208.04713,109.32829 c -2.475,-0.38266 -6.41822,-1.24142 -8.76272,-1.90835 -3.86272,-1.09882 -4.16021,-1.40415 -3.1703,-3.25383 1.29379,-2.41746 0.52794,-8.300214 -2.83798,-9.521686 -1.35137,-0.490416 -0.93748,-0.618413 1.20872,-0.373804 1.7951,0.204591 3.73932,1.730165 5.56284,2.850009 1.82543,1.121014 6.24888,3.170641 9.93043,3.170641 4.0795,0 7.41642,0.53354 8.5581,1.36836 1.80842,1.32236 1.79804,1.40761 -0.30887,2.53519 -1.33501,0.71447 -2.18022,2.12236 -2.18022,3.63163 0,2.667 -0.20953,2.70634 -8,1.50184 z"
         id="path2991-7"
         style="fill:#008080" />
    </g>
    <g
       transform="translate(208.87126,-278.88274)"
       id="g4540">
      <path
         sodipodi:nodetypes="ccsssccccccsscsccsssss"
         inkscape:connector-curvature="0"
         id="path4542"
         d="m 108.25391,416.07617 c -1.23319,0 -1.69121,0.50555 -1.78907,3.19531 7.2e-4,0.0314 0.01,0.0667 0.01,0.0977 0,3.263 1.02679,5.38281 2.60742,5.38281 1.1612,0 1.39258,5.24192 1.39258,31.5 l 0,31.5 -57.482285,0 0,0.53321 c 16.975914,-0.0121 84.959885,-0.0372 97.291405,-0.0566 l 0,-0.47657 -36.80912,0 0,-31.5 c 0,-26.25808 0.23333,-31.5 1.39453,-31.5 2.18332,0 3.22723,-4.91441 2.38867,-7.56054 -0.81006,-1.21588 -1.67009,-1.11524 -5.46875,-1.11524 l -3.53515,0 z m 3.78515,0.67578 c 4.54602,0 4.56217,0.0123 4.25,3.25 -0.28224,2.92727 -0.66497,3.27884 -3.84961,3.54688 -4.22509,0.35561 -4.96484,-0.23329 -4.96484,-3.96289 0,-2.69718 0.22037,-2.83399 4.56445,-2.83399 z"
         style="fill:#000000" />
      <path
         inkscape:connector-curvature="0"
         id="path4544"
         d="m 109.40135,423.507 c -0.98148,-0.21312 -1.49307,-0.72396 -1.73154,-1.72899 -0.11329,-0.47745 -0.20564,-2.07306 -0.16384,-2.83095 0.0757,-1.37352 0.33384,-1.78666 1.24575,-1.99407 1.1807,-0.26854 5.87341,-0.24967 6.76991,0.0272 0.61526,0.19003 0.86087,0.59248 0.86029,1.40961 -2.7e-4,0.35471 -0.1348,1.87811 -0.21886,2.47804 -0.19829,1.41521 -0.59434,2.01068 -1.53699,2.31092 -1.06119,0.338 -4.25553,0.53866 -5.22472,0.32821 z"
         style="fill:#ffffff;fill-opacity:1;stroke:none;stroke-width:1.39999998;stroke-miterlimit:4;stroke-dasharray:none" />
    </g>
    <g
       id="g4546"
       transform="translate(124.87126,-278.88274)">
      <path
         style="fill:#000000"
         d="m 108.25391,416.07617 c -1.23319,0 -1.69121,0.50555 -1.78907,3.19531 7.2e-4,0.0314 0.01,0.0667 0.01,0.0977 0,3.263 1.02679,5.38281 2.60742,5.38281 1.1612,0 1.39258,5.24192 1.39258,31.5 l 0,31.5 -57.482285,0 0,0.53321 c 16.975914,-0.0121 84.959885,-0.0372 97.291405,-0.0566 l 0,-0.47657 -36.80912,0 0,-31.5 c 0,-26.25808 0.23333,-31.5 1.39453,-31.5 2.18332,0 3.22723,-4.91441 2.38867,-7.56054 -0.81006,-1.21588 -1.67009,-1.11524 -5.46875,-1.11524 l -3.53515,0 z m 3.78515,0.67578 c 4.54602,0 4.56217,0.0123 4.25,3.25 -0.28224,2.92727 -0.66497,3.27884 -3.84961,3.54688 -4.22509,0.35561 -4.96484,-0.23329 -4.96484,-3.96289 0,-2.69718 0.22037,-2.83399 4.56445,-2.83399 z"
         id="path4548"
         inkscape:connector-curvature="0"
         sodipodi:nodetypes="ccsssccccccsscsccsssss" />
      <path
         style="fill:#ffffff;fill-opacity:1;stroke:none;stroke-width:1.39999998;stroke-miterlimit:4;stroke-dasharray:none"
         d="m 109.40135,423.507 c -0.98148,-0.21312 -1.49307,-0.72396 -1.73154,-1.72899 -0.11329,-0.47745 -0.20564,-2.07306 -0.16384,-2.83095 0.0757,-1.37352 0.33384,-1.78666 1.24575,-1.99407 1.1807,-0.26854 5.87341,-0.24967 6.76991,0.0272 0.61526,0.19003 0.86087,0.59248 0.86029,1.40961 -2.7e-4,0.35471 -0.1348,1.87811 -0.21886,2.47804 -0.19829,1.41521 -0.59434,2.01068 -1.53699,2.31092 -1.06119,0.338 -4.25553,0.53866 -5.22472,0.32821 z"
         id="path4550"
         inkscape:connector-curvature="0" />
    </g>
    <g
       transform="translate(30.87126,-278.88274)"
       id="g4552">
      <path
         sodipodi:nodetypes="ccsssccccccsscsccsssss"
         inkscape:connector-curvature="0"
         id="path4554"
         d="m 108.25391,416.07617 c -1.23319,0 -1.69121,0.50555 -1.78907,3.19531 7.2e-4,0.0314 0.01,0.0667 0.01,0.0977 0,3.263 1.02679,5.38281 2.60742,5.38281 1.1612,0 1.39258,5.24192 1.39258,31.5 l 0,31.5 -23.482285,0 0,0.53321 c 16.975915,-0.0121 70.959885,-0.0372 83.291405,-0.0566 l 0,-0.47657 -56.80912,0 0,-31.5 c 0,-26.25808 0.23333,-31.5 1.39453,-31.5 2.18332,0 3.22723,-4.91441 2.38867,-7.56054 -0.81006,-1.21588 -1.67009,-1.11524 -5.46875,-1.11524 l -3.53515,0 z m 3.78515,0.67578 c 4.54602,0 4.56217,0.0123 4.25,3.25 -0.28224,2.92727 -0.66497,3.27884 -3.84961,3.54688 -4.22509,0.35561 -4.96484,-0.23329 -4.96484,-3.96289 0,-2.69718 0.22037,-2.83399 4.56445,-2.83399 z"
         style="fill:#000000" />
      <path
         inkscape:connector-curvature="0"
         id="path4556"
         d="m 109.40135,423.507 c -0.98148,-0.21312 -1.49307,-0.72396 -1.73154,-1.72899 -0.11329,-0.47745 -0.20564,-2.07306 -0.16384,-2.83095 0.0757,-1.37352 0.33384,-1.78666 1.24575,-1.99407 1.1807,-0.26854 5.87341,-0.24967 6.76991,0.0272 0.61526,0.19003 0.86087,0.59248 0.86029,1.40961 -2.7e-4,0.35471 -0.1348,1.87811 -0.21886,2.47804 -0.19829,1.41521 -0.59434,2.01068 -1.53699,2.31092 -1.06119,0.338 -4.25553,0.53866 -5.22472,0.32821 z"
         style="fill:#ffffff;fill-opacity:1;stroke:none;stroke-width:1.39999998;stroke-miterlimit:4;stroke-dasharray:none" />
    </g>
    <g
       id="g4216"
       transform="matrix(0.91363261,0,0,0.91363261,-45.999149,-204.34565)">
      <path
         sodipodi:nodetypes="sssssccccccccsssssscsssscccsscccss"
         inkscape:connector-curvature="0"
         id="path4232"
         d="m 360.54364,272.07276 c -0.73514,0.67403 -0.14936,2.61051 1.87462,5.13724 1.59369,1.98953 9.18233,11.77958 16.86218,21.75637 13.01989,16.91404 12.10627,14.68911 9.85248,16.9429 -2.65164,2.65165 -4.30225,10.32611 -3.18164,14.79102 0.37548,1.496 2.90084,5.08842 5.61132,7.98437 l 4.92774,5.26563 0.42383,15.3125 c 0.13577,4.89745 0.32264,8.78177 0.5039,11.1582 0.21196,2.69366 0.0132,3.40803 -0.36523,3.50896 -0.38529,0.10274 -0.67856,0.59217 -0.67856,0.59217 l 9.66879,-0.47222 c 0,0 -0.45216,-0.22437 -0.71484,-0.90821 -0.1279,-0.65887 -0.75233,-1.59827 -1.51172,-2.22851 -1.70738,-1.417 -1.93304,-4.38321 -0.9043,-11.88867 0.63449,-4.62911 0.82158,-4.85547 4.02344,-4.85547 4.78992,0 7.27595,-3.07001 6.47656,-7.9961 -0.34431,-2.12171 -0.23588,-3.42823 0.24024,-2.90234 1.51001,1.66788 3.17861,7.75694 2.56445,9.35742 -0.66466,1.73211 1.23935,2.12812 2.26367,0.4707 1.04605,-1.69253 -2.66329,-11.57794 -4.57031,-12.17968 -4.31107,-1.36033 -7.15195,-3.33207 -11.5918,-8.04492 -5.48292,-5.82005 -6.54525,-7.69766 -3.40234,-6.01563 1.17988,0.63146 2.99643,1.14844 4.03516,1.14844 1.04245,0 9.39407,7.49076 18.64258,16.71875 l 16.75585,16.7168 6.2793,0.2871 c 8.10138,0.37057 8.36991,-1.55644 0.83008,-5.95312 -3.8976,-2.2728 -8.38955,-6.75098 -15.7832,-15.73438 -5.68454,-6.90679 -13.9796,-16.00259 -18.43164,-20.21093 l -8.09375,-7.65039 -15.74369,-19.26112 c -13.983,-15.90192 -13.53183,-15.51672 -24.13803,-20.55209 -1.36658,-0.64879 -2.28407,-0.6992 -2.72514,-0.29479 z"
         style="fill:#000000" />
      <path
         sodipodi:nodetypes="sssscssssssscsssscsccccsccccccccssssccs"
         inkscape:connector-curvature="0"
         id="path4230"
         d="m 361.10202,272.90456 c -0.48401,0.5055 0.63897,2.3947 3.39566,5.49534 2.39017,2.68845 9.32919,11.48694 15.42126,19.552 15.03341,19.90219 12.1055,14.8812 17.3546,14.8812 l 4.44922,0 -14.90758,-18.94619 c -9.04204,-11.49162 -14.25757,-16.17569 -15.85254,-16.70992 -1.25601,-0.42071 -3.87865,-1.70769 -5.82805,-2.85955 -2.30768,-1.36358 -3.65612,-1.80606 -4.03257,-1.41288 z m 42.23402,41.49885 c -2.4842,0 -5.27539,2.22332 -5.27539,4.20313 0,1.26183 7.60411,9.51425 19.97461,21.67773 20.30521,19.96541 21.30539,20.6814 29.4707,21.07227 1.58282,0.0758 2.87891,-0.32477 2.87891,-0.89063 0,-0.56588 -2.23675,-2.16864 -4.9707,-3.56054 -3.74159,-1.9049 -7.47042,-5.59655 -15.07813,-14.92969 -10.52554,-12.91274 -24.88111,-27.57227 -27,-27.57227 z m -5.42383,20.64453 c -0.28234,0.002 -0.53753,0.0301 -0.75585,0.0879 -1.70949,0.45251 -2.52716,3.11768 -1.06836,4.67579 l 0.0195,-0.35938 c 0.27127,-4.94815 1.28876,4.26466 1.6914,13.40625 0.20482,7.36289 0.15068,10.63734 0.0508,19.72852 0,1.00172 1.3347,1.07812 3.3125,1.07812 1.94761,0 3.19085,-0.52301 3.00782,-0.98047 -0.28233,-0.35139 -0.5887,-0.67209 -1.00196,-1.00195 -0.83922,-0.74566 -1.63565,-1.56666 -1.80078,-3.05273 -0.11809,-1.06289 0.0299,-3.49112 0.21094,-5.99024 0.36042,-3.86653 0.65616,-8.91827 0.66016,-11.3125 0.004,-2.27332 0.66508,-6.07321 1.49804,-8.75391 0.24583,-1.22826 0.51248,-3.12675 0.0469,-4.45703 -0.6293,-1.79798 -3.89471,-3.08451 -5.87111,-3.06836 z m 6.79883,9.17383 c -0.2836,-0.0242 -0.48083,0.34999 -0.77148,1.10742 -0.35585,0.92734 -0.64649,3.06061 -0.64649,4.74024 0,2.3562 0.47697,3.05273 2.0918,3.05273 1.59365,0 2.08585,-0.68568 2.06055,-2.87695 -0.0183,-1.5828 -0.66834,-3.71609 -1.44532,-4.74023 -0.63461,-0.83653 -1.00545,-1.25901 -1.28906,-1.28321 z"
         style="fill:#ffffff" />
      <path
         inkscape:connector-curvature="0"
         id="path4228"
         d="m 398.24034,313.35654 c 3.39762,0 3.40733,0.0125 1.09961,1.6289 -3.05555,2.14019 -2.93936,4.80769 0.38281,8.75586 2.83192,3.36554 2.6702,3.93137 -0.62109,2.16992 -4.15,-2.22101 -3.26583,1.36786 1.53906,6.2461 l 4.91992,4.99414 -0.75976,2.23828 c -0.19779,0.0364 -0.0449,-2.10892 -1.73829,-3.37891 -1.84935,-1.38702 -5.49699,-2.36472 -6.78124,-1.38867 -1.28429,0.97606 -1.95081,2.87763 -1.64258,4.00782 0.2686,0.98488 1.08359,1.65719 1.39062,2.25585 l -0.0625,1.11719 -3.23242,-3.07422 c -6.02328,-5.72654 -7.32107,-10.45245 -5.08398,-18.50781 1.24131,-4.46976 5.13094,-7.06445 10.58984,-7.06445 z"
         style="fill:#008080" />
    </g>
  </g>
</svg>
