<?xml version="1.0" encoding="UTF-8" standalone="no"?>
<!-- Created with Inkscape (http://www.inkscape.org/) -->

<svg
   xmlns:dc="http://purl.org/dc/elements/1.1/"
   xmlns:cc="http://creativecommons.org/ns#"
   xmlns:rdf="http://www.w3.org/1999/02/22-rdf-syntax-ns#"
   xmlns:svg="http://www.w3.org/2000/svg"
   xmlns="http://www.w3.org/2000/svg"
   xmlns:sodipodi="http://sodipodi.sourceforge.net/DTD/sodipodi-0.dtd"
   xmlns:inkscape="http://www.inkscape.org/namespaces/inkscape"
   version="1.1"
   width="468"
   height="216"
   id="svg2"
   inkscape:version="0.91 r13725"
   sodipodi:docname="bb540701.svg">
  <sodipodi:namedview
     pagecolor="#aeaeae"
     bordercolor="#666666"
     borderopacity="1"
     objecttolerance="10"
     gridtolerance="10"
     guidetolerance="10"
     inkscape:pageopacity="0"
     inkscape:pageshadow="2"
     inkscape:window-width="1370"
     inkscape:window-height="888"
     id="namedview10"
     showgrid="false"
     inkscape:zoom="1.2606838"
     inkscape:cx="155.20016"
     inkscape:cy="95.769681"
     inkscape:window-x="0"
     inkscape:window-y="0"
     inkscape:window-maximized="0"
     inkscape:current-layer="svg2" />
  <metadata
     id="metadata8">
    <rdf:RDF>
      <cc:Work
         rdf:about="">
        <dc:format>image/svg+xml</dc:format>
        <dc:type
           rdf:resource="http://purl.org/dc/dcmitype/StillImage" />
        <dc:title></dc:title>
      </cc:Work>
    </rdf:RDF>
  </metadata>
  <defs
     id="defs6" />
  <g
     id="g4655"
     transform="translate(22.009428,-4.8945535e-4)">
    <path
       inkscape:transform-center-y="3.2183807"
       inkscape:transform-center-x="4.0204906"
       inkscape:connector-curvature="0"
       id="path4355"
       d="m 355.1256,102.78897 c -2.91351,1.92139 -3.43787,4.7465 -0.48168,5.38018 1.50775,0.32324 3.16675,-0.51454 6.55853,-3.31418 0.57719,-0.47644 1.23754,-0.97785 1.92274,-1.47729 3.81854,-3.778738 3.05411,-6.685619 -3.51948,-2.91956 -0.4598,0.33348 -1.06959,0.65563 -1.76578,0.97941 -0.99869,0.54507 -1.91553,1.00605 -2.71428,1.35149 z"
       style="fill:#000000" />
    <path
       sodipodi:nodetypes="sssssssssssssssssssssssssscssssscssssssssscssscccssssssscccssssscccssssssscssssssscssssscsssssssssssssssssscssssssssssscssssssssssssssssssssssssssscss"
       d="m 69.518981,135.54969 c -0.392843,-0.39285 -0.714259,-1.98926 -0.714259,-3.5476 0,-2.69718 0.219279,-2.83333 4.563358,-2.83333 4.546017,0 4.562168,0.0123 4.25,3.25 -0.282241,2.92727 -0.664461,3.27955 -3.849099,3.54759 -1.944658,0.16368 -3.857158,-0.0238 -4.25,-0.41666 z m 57.999999,0 c -0.39284,-0.39285 -0.71426,-1.98926 -0.71426,-3.5476 0,-2.69718 0.21928,-2.83333 4.56336,-2.83333 4.54601,0 4.56217,0.0123 4.25,3.25 -0.28224,2.92727 -0.66446,3.27955 -3.8491,3.54759 -1.94466,0.16368 -3.85716,-0.0238 -4.25,-0.41666 z m 68,0 c -0.39284,-0.39285 -0.71426,-1.98926 -0.71426,-3.5476 0,-2.69718 0.21928,-2.83333 4.56336,-2.83333 4.54601,0 4.56217,0.0123 4.25,3.25 -0.28224,2.92727 -0.66446,3.27955 -3.8491,3.54759 -1.94466,0.16368 -3.85716,-0.0238 -4.25,-0.41666 z m 93,0 c -0.39284,-0.39285 -0.71426,-1.98926 -0.71426,-3.5476 0,-2.69718 0.21928,-2.83333 4.56336,-2.83333 4.54601,0 4.56217,0.0123 4.25,3.25 -0.28224,2.92727 -0.66446,3.27955 -3.8491,3.54759 -1.94466,0.16368 -3.85716,-0.0238 -4.25,-0.41666 z M 69.804722,127.48321 c 0,-0.37705 0.972355,-1.72057 2.160788,-2.9856 l 2.160789,-2.30006 -4.174085,-19.2644 C 67.656467,92.337734 65.784112,82.693059 65.791425,81.500542 c 0.021,-3.423936 1.082058,-5.331787 2.965298,-5.331787 3.846494,0 4.843436,3.003452 5.974774,18 0.601633,7.975005 1.760032,17.629765 2.574219,21.455025 l 1.480341,6.95502 -2.677759,2.79498 c -2.420524,2.52648 -6.303576,3.82591 -6.303576,2.10943 z m 57.999998,0.0899 c 0,-0.3276 0.86159,-1.80562 1.91464,-3.2845 1.90715,-2.67833 1.90158,-2.7421 -1.42055,-16.28141 -1.83435,-7.47591 -3.65005,-17.202062 -4.03488,-21.613674 -0.67943,-7.788782 -0.62788,-8.068168 1.77964,-9.645638 5.34346,-3.501149 6.76115,-0.264555 6.76115,15.435788 0,5.883503 0.8012,13.658824 2.01567,19.561234 l 2.01567,9.7963 -3.21184,3.31378 c -2.86663,2.95761 -5.8195,4.33682 -5.8195,2.71814 z m 67.42898,-2.87749 c 0.60653,-3.23308 -0.008,-4.88269 -5.38503,-14.44869 l -6.06974,-10.798924 2.5129,-11.622651 c 1.38209,-6.392439 2.51289,-11.800681 2.51289,-12.018296 0,-0.948007 6.10601,-2.811603 7.48204,-2.28357 2.47162,0.948449 2.15522,2.789688 -3.10457,18.066582 -2.18349,6.341871 -2.25485,7.116886 -0.85237,9.257329 0.84184,1.28481 2.87777,5.98972 4.52431,10.45536 3.31607,8.99368 3.24271,13.57796 -0.25222,15.76058 -1.96425,1.2267 -2.02334,1.12445 -1.36821,-2.3677 z m 4.71359,0.63704 c 3.06815,-2.74139 3.23469,-3.31289 4.98813,-17.1174 1.25391,-9.871821 1.50631,-14.856262 0.81745,-16.143406 -2.0619,-3.852699 0.91841,-8.659028 4.51378,-7.279353 2.63052,1.009425 2.64407,3.978669 0.0868,19.027399 -3.86236,22.72897 -4.54008,24.34886 -10.18695,24.34886 l -3.39333,0 3.17412,-2.83608 z m 87.85743,1.8361 c 0,-0.55 0.88417,-1 1.96482,-1 2.90695,0 3.7444,-2.44514 4.55069,-13.28681 0.64397,-8.65892 0.51994,-10.01655 -1.07622,-11.78028 -1.42141,-1.570638 -1.60192,-2.568304 -0.85102,-4.703481 0.52418,-1.490502 1.72995,-2.859619 2.67948,-3.042482 3.19652,-0.615593 3.882,4.016624 2.76952,18.715473 -0.56603,7.47867 -1.03097,14.16008 -1.0332,14.84758 -0.003,0.81421 -1.57291,1.25 -4.50407,1.25 -2.475,0 -4.5,-0.45 -4.5,-1 z m 2,-20.3 c 0,-2.27457 1.65135,-4.7 3.2,-4.7 0.44,0 0.8,1.575 0.8,3.5 0,2.83333 -0.38095,3.5 -2,3.5 -1.42029,0 -2,-0.66667 -2,-2.3 z m -47.85138,-3.45 c 0.0817,-0.4125 7.87533,-8.304623 17.31908,-17.538045 18.17852,-17.77365 19.12851,-18.327261 21.98166,-12.80989 1.73139,3.348134 0.58724,5.62777 -3.75441,7.480445 -1.75722,0.749843 -8.08154,5.74921 -14.05403,11.109705 -8.90861,7.995744 -11.78248,9.992225 -16,11.115195 -6.09934,1.62405 -5.67699,1.57463 -5.4923,0.64259 z m -27.98432,-8.552041 c -1.75783,-2.118053 -0.25315,-5.852784 2.21605,-5.500433 2.9827,0.425625 3.73776,6.802469 0.80545,6.802469 -1.0675,0 -2.42718,-0.585916 -3.0215,-1.302036 z M 60.804722,81.130551 c -1.925,-1.021463 -9.125,-4.379586 -16,-7.462495 -11.438906,-5.12947 -22.318089,-12.514545 -20.748207,-14.084428 0.302137,-0.302136 2.901229,0.642454 5.775761,2.09909 4.651017,2.356849 11.206018,5.014258 28.688209,11.630252 4.622756,1.749445 5.29015,2.370385 5.870038,5.461452 0.359852,1.918174 0.487759,3.650882 0.284237,3.850462 -0.203521,0.19958 -1.945038,-0.472869 -3.870038,-1.494333 z M 113.3628,60.890174 c -4.91806,-8.921781 -9.71074,-17.346419 -10.6504,-18.721419 -1.99827,-2.924054 -3.422442,-11 -1.93982,-11 0.54532,0 1.96435,1.9125 3.1534,4.25 1.18905,2.3375 6.51198,10.55 11.82875,18.25 5.31677,7.7 10.00969,14.570707 10.42871,15.268237 0.57981,0.965188 -2.76636,8.363347 -3.71028,8.203182 -0.0926,-0.01572 -4.19231,-7.32822 -9.11036,-16.25 z m 76.86571,8.940571 c -0.32619,-0.850035 -0.0849,-10.909225 0.53609,-22.353754 0.91313,-16.827121 1.52552,-21.812687 3.20079,-26.058236 1.13939,-2.8875 2.43524,-5.25 2.87967,-5.25 0.44444,0 0.97284,11.3625 1.17424,25.25 0.2014,13.8875 0.69048,25.925 1.08685,26.75 0.54705,1.138614 0.0555,1.517232 -2.04038,1.571525 -1.51858,0.03934 -3.54476,0.423528 -4.50262,0.853754 -1.18225,0.531008 -1.93204,0.285869 -2.33464,-0.763289 z m 92.70863,-2.031076 -4.36757,-1.162088 15.62064,-12.984413 c 13.36916,-11.112903 24.82978,-18.602478 26.26677,-17.165482 0.43548,0.435472 -31.35087,32.093769 -32.45833,32.32757 -0.38166,0.08057 -2.65934,-0.376439 -5.06151,-1.015587 z M 146.82855,61.697472 c -0.85751,-1.033243 -0.81818,-1.885153 0.15931,-3.450356 0.71387,-1.143099 1.54609,-2.078361 1.84937,-2.078361 0.30328,0 4.47545,-2.25 9.27149,-5 9.01092,-5.166769 11.44413,-5.851875 13.496,-3.8 1.84299,1.842986 1.45245,2.466084 -1.55,2.473012 -1.74047,0.004 -6.29943,2.433147 -12.41876,6.617023 -7.91732,5.413198 -9.87501,6.36215 -10.80741,5.238682 z m 0.97617,-7.373729 c 0,-1.17573 3.42004,-4.154988 4.76972,-4.154988 2.50286,0 2.1023,2.014823 -0.68736,3.457412 -3.41403,1.76546 -4.08236,1.879662 -4.08236,0.697576 z M 65.471389,52.502088 c -1.454355,-1.454354 -0.356227,-3.583721 7.428179,-14.403886 4.452165,-6.188418 8.574397,-12.30417 9.160515,-13.590558 0.586118,-1.286389 1.394654,-2.338889 1.796746,-2.338889 1.216062,0 2.202265,5.415209 1.0558,5.797364 -1.545703,0.515235 -11.724137,15.348383 -13.580215,19.790603 -1.936913,4.635684 -4.165962,6.440429 -5.861025,4.745366 z m -3.416667,-4.423182 c -1.821506,-0.684646 -2.25,-1.613606 -2.25,-4.877927 0,-3.286741 0.349281,-4.032224 1.889216,-4.032224 1.039069,0 2.923053,0.83715 4.186632,1.860334 l 2.297415,1.860334 -1.936631,3.017593 c -1.608042,2.505595 -2.318391,2.874101 -4.186632,2.17189 z"
       id="path2995"
       style="fill:#fefefe"
       inkscape:connector-curvature="0" />
    <path
       sodipodi:nodetypes="ssscssssssssscssssssscssssssscsssscssscssssssssssc"
       d="m 288.92552,95.085451 c -0.61644,-1.768328 -1.1208,-4.847864 -1.1208,-6.843413 0,-5.176957 -2.39449,-8.263362 -5.75626,-7.41961 l -2.63711,0.661872 2.1701,-2.758837 c 2.00341,-2.54692 2.05693,-2.977698 0.69671,-5.60807 -0.81037,-1.567078 -2.26091,-3.350113 -3.22342,-3.9623 -1.37054,-0.871705 -0.77423,-0.981007 2.74998,-0.504057 3.582,0.484772 5.49194,1.568693 9.36249,5.313364 2.67437,2.587395 5.44405,6.054355 6.15484,7.704355 1.87245,4.346662 2.95211,12.5 1.65523,12.5 -0.57999,0 -1.33264,-0.45 -1.67256,-1 -1.17201,-1.896349 -3.53459,-0.991453 -5.39389,2.065919 l -1.8645,3.06592 z M 202.48255,84.918755 c -1.68961,-4.020895 -2.5087,-4.463647 -4.62501,-2.5 -1.10839,1.028438 -1.2074,0.895501 -0.55857,-0.75 2.73846,-6.945035 0.73877,-10.781347 -4.57442,-8.775842 -1.60591,0.606163 -2.91983,0.781602 -2.91983,0.389866 0,-0.391736 1.58334,-1.284792 3.51854,-1.984568 8.34731,-3.018426 20.63975,5.157981 20.40251,13.570884 -0.0434,1.539813 -0.30764,2.232003 -0.58715,1.538201 -0.76208,-1.89162 -3.96896,-3.315812 -5.84514,-2.595855 -0.91087,0.349533 -2.0114,1.585419 -2.44564,2.746414 -0.71744,1.918198 -0.93336,1.768567 -2.36529,-1.6391 z m -69.63127,-6.464816 c -0.0256,-1.218149 -1.00054,-2.725369 -2.16651,-3.349378 -1.75188,-0.93758 -2.66259,-0.733366 -5.24545,1.176226 l -3.12551,2.310788 3.49546,-4.612335 c 10.0152,-13.215294 12.55387,-15.869474 16.2519,-16.991337 4.22097,-1.280508 5.66201,-0.630756 3.73928,1.686001 -1.07704,1.297756 -0.92963,1.936307 0.8955,3.879071 l 2.18478,2.325591 -5.63477,3.395094 c -4.07444,2.454953 -6.28737,4.641199 -7.99145,7.895095 -1.78546,3.409294 -2.36795,3.963175 -2.40323,2.285184 z M 64.833764,78.168755 c -0.01748,-0.275 -0.705546,-4.325 -1.529042,-9 -1.58651,-9.006638 -1.887059,-14.827766 -0.898568,-17.403733 0.511711,-1.333496 0.857362,-1.251248 2.317004,0.551333 1.430335,1.766389 2.067593,1.930245 3.832826,0.98552 1.16449,-0.623216 2.309071,-1.13312 2.543514,-1.13312 0.234442,0 0.666128,5.0625 0.959302,11.25 0.293174,6.1875 0.882246,12.15 1.309048,13.25 0.746007,1.922687 0.698757,1.932351 -1.222301,0.25 -1.099069,-0.9625 -2.728012,-1.75 -3.619876,-1.75 -0.891863,0 -2.080245,0.7875 -2.64085,1.75 -0.560605,0.9625 -1.033581,1.525 -1.051057,1.25 z"
       id="path2991"
       style="fill:#007f7f"
       inkscape:connector-curvature="0" />
    <path
       id="path2989"
       d="m 196.62891,15.275391 c -0.74558,-0.08966 -1.77452,1.79327 -3.23243,5.089843 -2.09153,4.729315 -2.51971,7.97009 -3.57617,27.033204 -0.66022,11.913216 -0.9315,22.098961 -0.60156,22.632812 0.32994,0.533852 0.13556,2.189793 -0.43164,3.681641 -0.5672,1.491848 -2.1507,7.893503 -3.51953,14.224609 l -2.48828,11.509766 5.96093,10.611324 c 5.80836,10.33681 5.94984,10.76407 5.47071,16.60938 -0.58513,7.13834 0.092,10.5 2.11328,10.5 1.27659,0 1.48047,4.34677 1.48047,31.5 l 0,31.5 -32.5,0 -32.5,0 0,-31.5 c 0,-27.15323 0.20388,-31.5 1.48047,-31.5 1.60181,0 2.91059,-3.71762 2.34765,-6.66992 -0.19492,-1.02222 -1.38752,-1.97712 -2.70312,-2.16407 -2.35126,-0.33413 -2.34889,-0.339 0.77734,-3.56445 l 3.12891,-3.22851 -2.01563,-9.79688 c -1.26102,-6.12867 -2.01562,-13.674901 -2.01562,-20.158202 0,-12.968222 1.87536,-17.60356 8.85937,-21.900391 2.55268,-1.570505 5.62889,-3.734378 6.83594,-4.808594 1.5743,-1.401054 2.94402,-1.764401 4.8457,-1.287109 1.45806,0.36595 3.1698,0.246669 3.80469,-0.263672 2.00641,-1.612801 5.3315,0.473883 5.98828,3.757812 0.33932,1.696604 1.10817,3.083985 1.70899,3.083985 0.60079,0 0.8582,-0.7875 0.57226,-1.75 -0.28595,-0.9625 -0.81504,-2.9875 -1.17578,-4.5 -0.40037,-1.678656 -1.32605,-2.75 -2.375,-2.75 -1.33021,0 -1.62099,-0.658336 -1.28906,-2.919922 0.55832,-3.804072 4.31615,-7.267144 8.0918,-7.457031 4.0568,-0.204028 4.80194,-1.224846 2.63867,-3.615235 -2.33889,-2.584443 -4.91122,-2.537398 -9.29493,0.171875 -2.41133,1.49029 -4.85922,2.110374 -7.74609,1.960938 -3.5398,-0.183234 -4.60206,0.234522 -6.5918,2.591797 -1.30479,1.545797 -4.21024,3.358922 -6.45507,4.029297 -3.1346,0.93609 -5.16344,2.612558 -8.74805,7.228515 -2.5671,3.305687 -5.00489,6.000281 -5.41797,5.988281 -0.93411,-0.02714 -19.84415,-27.553973 -23.25586,-33.853515 -1.37718,-2.542878 -3.17718,-4.625 -4,-4.625 -2.304993,0 -1.347524,8.248403 1.45117,12.5 1.26717,1.925 6.35322,10.758977 11.30078,19.630859 8.55511,15.340859 9.03027,16.516058 9.73047,23.988281 0.40494,4.321315 2.22409,13.921151 4.04297,21.333981 3.25532,13.26702 3.27823,13.51933 1.45899,16.07422 -3.52923,4.95635 -3.81364,12.97266 -0.46094,12.97266 1.27659,0 1.48047,4.34677 1.48047,31.5 l 0,31.5 -27.5,0 -27.500002,0 0,-31.5 c 0,-26.25808 0.231378,-31.5 1.392578,-31.5 3.176115,0 3.671789,-7.90742 0.546875,-8.72461 -2.007789,-0.52505 -1.995727,-0.60638 0.490234,-3.20117 l 2.550781,-2.66407 -1.482422,-6.95507 c -0.81582,-3.82526 -1.962163,-13.70508 -2.546875,-21.955081 -0.584713,-8.25 -1.488477,-17.445082 -2.007812,-20.433594 -0.519335,-2.988513 -0.943359,-8.922925 -0.943359,-13.189453 0,-4.266527 -0.422537,-8.020372 -0.939454,-8.339844 -0.553389,-0.342013 -0.30537,-2.098166 0.603516,-4.273437 1.850034,-4.427756 9.89613,-16.117428 12.642578,-18.367188 1.603269,-1.313323 1.787088,-2.117251 1.013672,-4.4375 -1.382701,-4.148104 -2.952902,-4.079713 -5.232422,0.226563 -2.582188,4.878052 -6.037566,9.185786 -6.066406,7.564453 -0.03068,-1.724429 -2.510828,-1.57023 -4.021484,0.25 -0.756829,0.911922 -2.947956,1.5 -5.587891,1.5 -5.107123,0 -6.412109,1.640173 -6.412109,8.052734 -10e-7,3.537796 0.609983,4.791623 3.947265,8.128906 3.335788,3.335787 4.253163,3.782153 5.933594,2.882813 1.093386,-0.585162 2.179619,-1.064453 2.414062,-1.064453 0.234442,0 0.665811,5.0625 0.958985,11.25 0.293174,6.1875 0.881792,12.149999 1.308594,13.25 0.746006,1.922687 0.700354,1.932351 -1.220704,0.25 -2.517688,-2.204845 -4.969616,-2.237329 -6.175781,-0.08203 -0.779094,1.392163 -1.031435,1.185552 -1.525391,-1.25 -1.997153,-9.847381 -2.814614,-17.187443 -2.361328,-21.208985 0.393161,-3.48811 0.270684,-4.153934 -0.511718,-2.755859 -0.994909,1.777803 -0.606502,10.616235 0.826172,18.751953 l 0.654296,3.707031 -14.074218,-5.414062 C 41.238469,65.68904 32.579154,62.074371 29.734375,60.632812 26.004261,58.74262 24.25803,58.316189 23.472656,59.101562 c -1.946793,1.946793 7.916435,9.563921 18.332032,14.158204 15.799096,6.968927 22.821747,10.765454 23.367187,12.632812 0.285224,0.976485 2.193979,9.54333 4.240234,19.037112 l 3.720703,17.26172 -2.089843,2.23828 c -3.732089,3.99845 -4.225259,12.73828 -0.71875,12.73828 1.276557,0 1.480469,4.34466 1.480469,31.4707 l 0,31.46875 -12.25,0.31446 c -6.7375,0.173 80.900002,0.31164 194.750002,0.30664 25.37809,-0.001 48.63714,-0.0103 70.45117,-0.0234 l 0,-0.53711 -5.95117,0 -25,0 0,-31.5 c 0,-26.6748 0.22043,-31.5 1.43359,-31.5 1.69873,0 2.67637,-2.62792 2.46484,-6.61914 -0.084,-1.58447 0.36949,-9.47252 1.00782,-17.5293 0.63832,-8.05678 1.05723,-15.03178 0.92968,-15.499999 -0.12754,-0.468219 0.11297,-1.866245 0.53516,-3.107422 0.4222,-1.241178 0.23875,-4.805544 -0.4082,-7.921875 -0.96675,-4.656807 -2.08957,-6.631259 -6.30078,-11.083984 L 288.34375,69.988281 305.13281,53.4375 c 10.11146,-9.967109 16.42807,-16.913732 15.87891,-17.462891 -1.9165,-1.916501 -12.07111,4.275354 -25.70703,15.673829 -4.25372,3.555746 -10.07914,8.822187 -16.31055,14.636718 l 15.19531,-12.632812 c 13.36916,-11.112903 24.83059,-18.601059 26.26758,-17.164063 0.21637,0.216367 -6.84215,7.545499 -15.68555,16.28711 -8.84339,8.74161 -16.39176,15.958482 -16.77343,16.039062 -0.38166,0.08057 -2.65838,-0.376477 -5.06055,-1.015625 l -4.32812,-1.152344 c -17.41696,16.27203 -37.92175,36.804826 -37.06055,37.666016 0.4379,0.4379 3.1454,0.17563 6.01758,-0.58203 4.18715,-1.10456 6.95848,-2.94125 13.98047,-9.271486 14.23375,-12.831547 14.67985,-13.129687 19.29296,-12.892578 4.72539,0.24288 5.92772,1.613548 5.94922,6.78711 0.008,2.026696 0.4404,4.802003 0.95899,6.166015 1.00942,2.65496 -0.0945,3.648438 -4.04688,3.648438 -2.44898,0 -4.35416,4.040051 -3.5039,7.427731 0.96083,3.82827 2.3513,3.11079 2.2207,-1.14453 -0.0804,-2.62056 0.34421,-3.81036 1.43945,-4.03515 1.2402,-0.25455 1.46639,0.42904 1.1211,3.38671 -0.49915,4.27559 1.46235,6.36524 5.9707,6.36524 2.73063,0 2.75534,0.0592 2.24414,5.25 -0.83905,8.51981 -1.22906,9.5888 -3.61914,9.93164 -1.74495,0.25029 -2.28947,1.07502 -2.52344,3.81836 -0.40908,4.79649 0.50137,8 2.27344,8 1.27659,0 1.48047,4.34677 1.48047,31.5 l 0,31.5 -45,0 -45,0 0,-31.5 c 0,-26.25808 0.23138,-31.5 1.39258,-31.5 1.68804,0 2.60742,-2.15447 2.60742,-6.11524 0,-1.62437 0.63309,-3.95177 1.40625,-5.16992 0.77315,-1.21815 1.94672,-4.91484 2.60742,-8.21484 1.78162,-8.89869 1.91497,-9.23349 2.98633,-7.5 1.68185,2.7213 2.14871,0.1889 0.53906,-2.92383 -1.69854,-3.28461 -1.50938,-3.56099 2.93555,-4.27539 4.70389,-0.75602 6.14704,-12.369161 1.77539,-14.287109 -1.64053,-0.719738 -2.25,-1.830354 -2.25,-4.101563 0,-4.350523 -3.69316,-9.337177 -8.98242,-12.126953 -2.46538,-1.300345 -4.94038,-3.133598 -5.5,-4.074219 C 199.74263,67.404634 199.08953,55.730304 198.80469,41.25 198.44191,22.807219 198.05228,15.446563 196.62891,15.275391 Z m 81.98047,51.371093 c 0.12631,-0.118015 0.25878,-0.243774 0.38476,-0.361328 l -0.42383,0.351563 0.0391,0.0098 z M 196.8457,16.167969 c 0.44444,0 0.97243,11.3625 1.17383,25.25 0.2014,13.8875 0.68957,25.925 1.08594,26.75 0.54705,1.138614 0.0568,1.517975 -2.03906,1.572265 -1.51858,0.03934 -3.54605,0.42329 -4.50391,0.853516 -1.18225,0.531008 -1.93138,0.285486 -2.33398,-0.763672 -0.32619,-0.850035 -0.0859,-10.908987 0.53515,-22.353516 0.91313,-16.827121 1.5259,-21.813044 3.20117,-26.058593 1.13939,-2.8875 2.43643,-5.25 2.88086,-5.25 z m -112.988278,6 c 1.216062,0 2.201152,5.416673 1.054687,5.798828 -1.545703,0.515235 -11.724,15.346842 -13.580078,19.789062 -0.882897,2.113069 -2.150239,4.189929 -2.816406,4.613282 -1.504528,0.956136 -2.192293,0.985441 -3.044922,0.132812 -1.454355,-1.454354 -0.354718,-3.584132 7.429688,-14.404297 4.452165,-6.188418 8.574038,-12.303456 9.160156,-13.589844 0.586118,-1.286389 1.394783,-2.339843 1.796875,-2.339843 z m 16.916018,9 c 0.54532,0 1.96329,1.9125 3.15234,4.25 1.18905,2.3375 6.51136,10.55 11.82813,18.25 5.31677,7.7 10.01066,14.572001 10.42968,15.269531 0.43237,0.719745 -0.15945,2.882165 -1.36718,5 -1.32441,2.32244 -1.4454,2.796446 -0.32032,1.255859 0.9943,-1.361502 3.71967,-4.637732 6.05469,-7.279297 2.33503,-2.641566 4.97119,-5.910083 5.85938,-7.265624 1.58677,-2.421719 8.79594,-5.411089 10.04296,-4.164063 0.34983,0.349829 0.0568,1.335038 -0.65234,2.189453 -1.07704,1.297756 -0.9306,1.936142 0.89453,3.878906 l 2.18555,2.326172 -5.63477,3.394532 c -4.07444,2.454953 -6.2881,4.640635 -7.99218,7.894531 -1.78546,3.409294 -2.36705,3.963147 -2.40235,2.285156 -0.0256,-1.218149 -1.00004,-2.723647 -2.16601,-3.347656 -1.73142,-0.926629 -2.62948,-0.759038 -4.90039,0.919922 l -2.78125,2.05664 L 114.28906,62.375 c -4.79309,-8.638484 -9.7356,-17.282031 -10.98437,-19.207031 -2.45525,-3.784808 -4.188111,-12 -2.53125,-12 z m -28.640628,3.40039 c 0.428849,-0.06562 0.877659,0.124899 1.119141,0.515625 0.321975,0.520967 0.15964,1.209274 -0.361328,1.53125 -0.520967,0.321975 -1.211227,0.15964 -1.533203,-0.361328 -0.321975,-0.520967 -0.15964,-1.211227 0.361328,-1.533203 0.130242,-0.08049 0.271113,-0.13047 0.414062,-0.152344 z m -10.439453,4.59961 c 1.039069,0 2.923921,0.838144 4.1875,1.861328 l 2.296875,1.859375 -1.935546,3.017578 c -1.608042,2.505595 -2.31926,2.874086 -4.1875,2.171875 -1.821506,-0.684646 -2.25,-1.612632 -2.25,-4.876953 -10e-7,-3.286741 0.348736,-4.033203 1.888671,-4.033203 z m 107.687501,7.132812 c 0.90479,0.0534 1.5834,0.427149 2.22461,1.06836 1.84299,1.842986 1.45167,2.465756 -1.55078,2.472656 -1.74047,0.004 -6.29864,2.433311 -12.41797,6.617187 -7.91732,5.413198 -9.87619,6.36175 -10.8086,5.238282 -0.8575,-1.033243 -0.81733,-1.884016 0.16016,-3.449219 0.71387,-1.143099 1.54633,-2.080078 1.84961,-2.080078 0.30328,0 4.47544,-2.25 9.27149,-5 6.195,-3.552154 9.28095,-4.98467 11.27148,-4.867188 z m -16.80664,3.867188 c 2.50286,0 2.10216,2.016395 -0.6875,3.458984 -3.41403,1.76546 -4.08203,1.879352 -4.08203,0.697266 0,-1.17573 3.41985,-4.15625 4.76953,-4.15625 z M 24.273438,59.527344 c 0.73919,-0.0017 3.043378,0.881693 5.558593,2.15625 4.651017,2.356849 11.205309,5.012912 28.6875,11.628906 4.622756,1.749445 5.291206,2.371824 5.871094,5.462891 0.359847,1.918174 0.486725,3.650029 0.283203,3.849609 -0.203521,0.19958 -1.944141,-0.472677 -3.86914,-1.494141 -1.925,-1.021463 -9.125,-4.379981 -16,-7.46289 -11.438907,-5.12947 -22.317929,-12.514102 -20.748047,-14.083985 0.03777,-0.03777 0.111198,-0.0564 0.216797,-0.05664 z m 254.751952,8.84375 c 0.54879,0.0047 1.45772,0.10044 2.7793,0.279297 3.582,0.484772 5.49273,1.569782 9.36328,5.314453 2.67437,2.587395 5.44351,6.053125 6.1543,7.703125 1.87245,4.346662 2.95117,12.5 1.65429,12.5 -0.57999,0 -1.33195,-0.45 -1.67187,-1 -1.17201,-1.896349 -3.53523,-0.990966 -5.39453,2.066406 l -1.86328,3.066406 -1.1211,-3.214843 c -0.61644,-1.768328 -1.12109,-4.862195 -1.12109,-6.875 0,-5.237359 -1.9443,-7.387239 -6.91211,-7.642579 -0.41679,-0.02142 -0.77101,-0.02654 -1.13281,-0.03125 l 1.94531,-2.205078 c 1.89942,-2.153914 1.94479,-2.562114 0.58008,-5.201172 -0.81438,-1.574834 -2.26796,-3.364375 -3.23047,-3.976562 -0.85659,-0.544816 -0.94394,-0.791009 -0.0293,-0.783203 z m -0.79883,1.621094 c 1.30903,0.02361 2.06967,1.224742 3.06446,3.148437 1.22907,2.376767 1.21386,3.040017 -0.11719,5.128906 l -1.44531,2.267578 c -3.67369,-0.04076 -5.22556,1.242133 -18.18164,12.921875 -7.01457,6.323533 -9.80117,8.173216 -14,9.291016 -2.88326,0.76757 -5.35469,1.39925 -5.49219,1.40625 -1.22374,0.0581 2.3999,-3.7885 17.21679,-18.275391 11.95496,-11.68869 16.45604,-15.93374 18.95508,-15.888671 z m -81.34179,0.539062 c 1.09926,-0.01207 2.22109,0.21816 3.68945,0.6875 8.64166,2.762193 13.32239,7.620213 13.15234,13.650391 -0.0434,1.539801 -0.30838,2.232864 -0.58789,1.539062 -0.76208,-1.89162 -3.96952,-3.317613 -5.8457,-2.597656 -0.91087,0.349533 -2.01107,1.587052 -2.44531,2.748047 -0.71744,1.918198 -0.93331,1.767042 -2.36524,-1.640625 -1.68961,-4.020895 -2.50869,-4.463647 -4.625,-2.5 -1.10839,1.028438 -1.20742,0.895501 -0.55859,-0.75 2.73846,-6.945035 0.73897,-10.780896 -4.57422,-8.775391 -1.60591,0.606163 -2.91992,0.782361 -2.91992,0.390625 0,-0.391736 1.58433,-1.284599 3.51953,-1.984375 1.38457,-0.500667 2.46128,-0.755507 3.56055,-0.767578 z m -1.31446,2.900391 c 0.29865,-0.0023 0.5448,0.02579 0.7168,0.0918 2.47162,0.948448 2.15432,2.789512 -3.10547,18.066406 -2.18349,6.341871 -2.25404,7.117369 -0.85156,9.257816 3.21118,4.90089 7.53458,18.48783 6.92187,21.7539 -0.32808,1.74878 -1.52128,3.7558 -2.65039,4.46094 -1.96425,1.2267 -2.02232,1.12496 -1.36718,-2.36719 0.60653,-3.23308 -0.008,-4.88322 -5.38477,-14.44922 l -6.07031,-10.798824 2.51172,-11.621094 c 1.38209,-6.392459 2.51367,-11.801916 2.51367,-12.019531 0,-0.829507 4.67506,-2.359076 6.76562,-2.375 z m -66.21679,2.042968 c 2.65299,0.16919 3.45117,4.933727 3.45117,16.708985 0,5.883503 0.80115,13.658136 2.01562,19.560546 l 2.01563,9.79688 -3.21094,3.31445 c -1.76651,1.82257 -3.79852,3.3125 -4.51562,3.3125 -1.75809,0 -1.6477,-0.70913 0.60937,-3.87891 1.90715,-2.67833 1.90221,-2.74194 -1.41992,-16.28125 -1.83435,-7.47591 -3.65033,-17.20362 -4.03516,-21.615232 -0.67943,-7.788782 -0.62822,-8.067061 1.7793,-9.644531 1.33586,-0.875292 2.42621,-1.329834 3.31055,-1.273438 z m -60.597661,0.69336 c 3.846494,0 4.845225,3.003452 5.976563,18 0.601633,7.975001 1.760032,17.629821 2.574219,21.455081 l 1.478515,6.95507 -2.677734,2.79493 c -1.472767,1.53724 -3.493134,2.79492 -4.490234,2.79492 -2.369567,0 -2.287737,-0.86467 0.347656,-3.66992 l 2.162109,-2.30078 -4.173828,-19.26368 C 67.657378,92.338178 65.783716,82.692517 65.791016,81.5 c 0.021,-3.423936 1.081603,-5.332031 2.964843,-5.332031 z m 130.949221,6 c 0.36027,0 1.86018,2.8125 3.33398,6.25 l 2.67969,6.25 -1.77734,13.771481 c -0.97793,7.57401 -2.34189,14.32401 -3.0293,15 -0.99619,0.97964 -1.12127,0.71542 -0.62305,-1.30468 0.64674,-2.6223 -3.96582,-16.71865 -6.9707,-21.30469 -1.4226,-2.171159 -1.33999,-2.88295 1.05859,-9.255861 2.55732,-6.794684 4.03611,-9.40625 5.32813,-9.40625 z m 9.25,2.382812 c 0.42155,-0.0069 0.86308,0.06973 1.3125,0.242188 2.63051,1.009425 2.6432,3.978613 0.0859,19.027341 -2.77561,16.33365 -3.88069,20.83883 -5.62891,22.94531 -0.64045,0.7717 -2.69226,1.40235 -4.55859,1.40235 l -3.39258,0 3.17383,-2.83594 c 3.06815,-2.74139 3.23484,-3.31268 4.98828,-17.11719 1.25391,-9.871817 1.50526,-14.85543 0.8164,-16.142574 -1.80416,-3.371112 0.25225,-7.473124 3.20313,-7.521485 z m 6.88281,4.585938 c 1.26259,0.116464 2.55855,1.491746 2.7793,3.78125 0.25628,2.657987 -0.0396,3.25 -1.62696,3.25 -2.6626,0 -4.22035,-2.151152 -3.51367,-4.853516 0.41758,-1.596819 1.37932,-2.268318 2.36133,-2.177734 z m 79.80469,4.166015 c 2.70508,0.05551 3.24217,4.987408 2.19922,18.767576 -0.56603,7.47867 -1.03121,14.16016 -1.03321,14.84766 -0.003,0.81421 -1.57274,1.25 -4.5039,1.25 -2.475,0 -4.5,-0.45 -4.5,-1 0,-0.55 0.88419,-1 1.96484,-1 2.90695,0 3.74449,-2.44349 4.55078,-13.28516 0.64397,-8.65892 0.51999,-10.01752 -1.07617,-11.78125 -1.42141,-1.570635 -1.60246,-2.567946 -0.85156,-4.703122 0.52418,-1.490503 1.73016,-2.860106 2.67969,-3.042969 0.19978,-0.03848 0.38997,-0.05643 0.57031,-0.05273 z m -2.86719,8.943356 c 0.72208,0.0206 1.0293,1.13173 1.0293,3.42188 0,2.83333 -0.38095,3.5 -2,3.5 -2.28988,0 -2.8131,-3.78651 -0.80078,-5.79883 0.7544,-0.7544 1.33823,-1.13541 1.77148,-1.12305 z M 73.367188,129.16797 c 4.546017,0 4.562167,0.0123 4.25,3.25 -0.282241,2.92727 -0.663019,3.28079 -3.847657,3.54883 -4.22509,0.35561 -4.964843,-0.23525 -4.964843,-3.96485 0,-2.69718 0.218421,-2.83398 4.5625,-2.83398 z m 58.000002,0 c 4.54601,0 4.56217,0.0123 4.25,3.25 -0.28224,2.92727 -0.66302,3.28079 -3.84766,3.54883 -4.22509,0.35561 -4.96484,-0.23525 -4.96484,-3.96485 0,-2.69718 0.21842,-2.83398 4.5625,-2.83398 z m 68,0 c 4.54601,0 4.56217,0.0123 4.25,3.25 -0.28224,2.92727 -0.66302,3.28079 -3.84766,3.54883 -4.22509,0.35561 -4.96484,-0.23525 -4.96484,-3.96485 0,-2.69718 0.21842,-2.83398 4.5625,-2.83398 z m 93,0 c 4.54601,0 4.56217,0.0123 4.25,3.25 -0.28224,2.92727 -0.66302,3.28079 -3.84766,3.54883 -4.22509,0.35561 -4.96484,-0.23525 -4.96484,-3.96485 0,-2.69718 0.21842,-2.83398 4.5625,-2.83398 z"
       style="fill:#000000"
       inkscape:connector-curvature="0" />
    <path
       inkscape:transform-center-y="3.5107687"
       inkscape:transform-center-x="4.1600674"
       inkscape:connector-curvature="0"
       style="fill:#ffffff"
       d="m 360.4525,104.05107 c 5.75646,-4.659179 4.26987,-6.142378 -2.13592,-2.13085 -3.99614,2.50254 -5.17886,3.71883 -4.57672,4.70672 1.00901,1.65536 1.91392,1.30812 6.71264,-2.57587 z"
       id="path8513-8" />
    <path
       inkscape:connector-curvature="0"
       id="path4527"
       d="m 395.91602,35.630859 c -3.41399,0.05709 -12.6799,6.043913 -24.61133,16.017579 -4.22733,3.533684 -10.5015,9.220648 -16.69531,14.998046 -0.034,0.03176 -0.0695,0.06587 -0.10352,0.09766 -0.004,0.0035 -0.008,0.0063 -0.0117,0.0098 -17.39254,16.255134 -37.80465,36.699266 -36.94531,37.558596 0.4379,0.4379 3.1454,0.17563 6.01758,-0.58203 4.18715,-1.10456 6.95848,-2.94125 13.98047,-9.271488 14.23374,-12.831547 14.67985,-13.129687 19.29296,-12.892578 4.72539,0.24288 5.92772,1.613548 5.94922,6.78711 0.008,2.026696 0.4404,4.802003 0.95899,6.166015 1.00942,2.65496 -0.0945,3.648438 -4.04688,3.648438 -2.44898,0 -4.35416,4.040053 -3.5039,7.427733 0.96083,3.82827 2.3513,3.11079 2.2207,-1.14453 -0.0804,-2.62056 0.34421,-3.81036 1.43945,-4.03515 1.2402,-0.25455 1.46639,0.42904 1.1211,3.38671 -0.49915,4.27559 1.46235,6.36524 5.9707,6.36524 2.73063,0 2.75534,0.0592 2.24414,5.25 -0.83905,8.51981 -1.22906,9.5888 -3.61914,9.93164 -1.74495,0.25029 -2.28947,1.07502 -2.52344,3.81836 -0.40908,4.79649 0.50137,8 2.27344,8 1.27659,0 1.48047,4.34677 1.48047,31.5 l 0,31.5 -45,0 -6.77344,0 0,0.55664 c 5.34571,4.1e-4 9.79894,0.004 15.27344,0.004 25.37809,-10e-4 48.63714,-0.0103 70.45117,-0.0234 l 0,-0.53711 -5.95117,0 -25,0 0,-31.5 c 0,-26.6748 0.22043,-31.5 1.43359,-31.5 1.69873,0 2.67638,-2.62792 2.46484,-6.61914 -0.084,-1.58447 0.36949,-9.47252 1.00782,-17.5293 0.63832,-8.05678 1.05723,-15.031782 0.92968,-15.500001 -0.12752,-0.468219 0.11297,-1.866245 0.53516,-3.107422 0.4222,-1.241178 0.23875,-4.805544 -0.4082,-7.921875 -0.96675,-4.656807 -2.08957,-6.631259 -6.30078,-11.083984 L 364.34375,69.988281 381.13281,53.4375 c 10.11146,-9.967109 16.42807,-16.913732 15.87891,-17.462891 -0.23956,-0.239562 -0.60799,-0.351906 -1.0957,-0.34375 z"
       style="fill:#000000" />
    <path
       inkscape:connector-curvature="0"
       id="path4522"
       d="m 396.07227,36.322266 c 0.16614,0.02138 0.29495,0.0762 0.38476,0.166015 0.21637,0.216367 -6.84215,7.545499 -15.68555,16.28711 -8.84339,8.74161 -16.39176,15.958482 -16.77343,16.039062 -0.38166,0.08057 -2.65838,-0.376477 -5.06055,-1.015625 l -4.31836,-1.15039 15.57031,-12.996094 c 12.53359,-10.418347 23.39062,-17.650757 25.88282,-17.330078 z"
       style="fill:#ffffff" />
    <path
       inkscape:connector-curvature="0"
       id="path4518"
       d="m 355.02539,68.371094 c 0.54879,0.0047 1.45772,0.10044 2.7793,0.279297 3.582,0.484772 5.49273,1.569782 9.36328,5.314453 2.67437,2.587395 5.44351,6.053125 6.1543,7.703125 1.87245,4.346662 2.95117,12.5 1.65429,12.5 -0.57999,0 -1.33195,-0.45 -1.67187,-1 -1.17201,-1.896349 -3.53523,-0.990966 -5.39453,2.066406 l -1.86328,3.066406 -1.1211,-3.214843 c -0.61644,-1.768328 -1.12109,-4.862195 -1.12109,-6.875 0,-5.237359 -1.9443,-7.387239 -6.91211,-7.642579 -0.41679,-0.02142 -0.77101,-0.02654 -1.13281,-0.03125 l 1.94531,-2.205078 c 1.89942,-2.153914 1.94479,-2.562114 0.58008,-5.201172 -0.81438,-1.574834 -2.26796,-3.364375 -3.23047,-3.976562 -0.85659,-0.544816 -0.94394,-0.791009 -0.0293,-0.783203 z"
       style="fill:#008080" />
    <path
       inkscape:connector-curvature="0"
       id="path4516"
       d="m 354.22656,69.992188 c 1.30903,0.02361 2.06967,1.224742 3.06446,3.148437 1.22907,2.376767 1.21386,3.040017 -0.11719,5.128906 l -1.44531,2.267578 c -3.67369,-0.04076 -5.22557,1.242133 -18.18164,12.921875 -7.01458,6.323533 -9.80117,8.173216 -14,9.291016 -2.88326,0.76757 -5.35469,1.39925 -5.49219,1.40625 -1.22374,0.0581 2.3999,-3.7885 17.21679,-18.275391 11.95496,-11.68869 16.45604,-15.93374 18.95508,-15.888671 z"
       style="fill:#ffffff" />
    <path
       inkscape:connector-curvature="0"
       id="path4514"
       d="m 371.64258,93.302734 c 2.70508,0.05551 3.24217,4.987411 2.19922,18.767576 -0.56603,7.47867 -1.03121,14.16016 -1.03321,14.84766 -0.003,0.81421 -1.57274,1.25 -4.5039,1.25 -2.475,0 -4.5,-0.45 -4.5,-1 0,-0.55 0.88419,-1 1.96484,-1 2.90695,0 3.74449,-2.44349 4.55078,-13.28516 0.64397,-8.65892 0.51999,-10.01752 -1.07617,-11.78125 -1.42141,-1.570632 -1.60246,-2.567946 -0.85156,-4.703122 0.52418,-1.490504 1.73016,-2.860106 2.67969,-3.042969 0.19978,-0.03848 0.38997,-0.05643 0.57031,-0.05273 z"
       style="fill:#ffffff" />
    <path
       inkscape:connector-curvature="0"
       id="path4512"
       d="m 368.77539,102.24609 c 0.72208,0.0206 1.0293,1.13173 1.0293,3.42188 0,2.83333 -0.38095,3.5 -2,3.5 -2.28988,0 -2.8131,-3.78651 -0.80078,-5.79883 0.7544,-0.7544 1.33823,-1.13541 1.77148,-1.12305 z"
       style="fill:#ffffff" />
    <path
       inkscape:connector-curvature="0"
       id="path4505"
       d="m 368.36719,129.16797 c 4.54601,0 4.56217,0.0123 4.25,3.25 -0.28224,2.92727 -0.66302,3.28079 -3.84766,3.54883 -4.22509,0.35561 -4.96484,-0.23525 -4.96484,-3.96485 0,-2.69718 0.21842,-2.83398 4.5625,-2.83398 z"
       style="fill:#ffffff" />
  </g>
</svg>
