<?xml version="1.0" encoding="UTF-8" standalone="no"?>
<!-- Created with Inkscape (http://www.inkscape.org/) -->

<svg
   xmlns:dc="http://purl.org/dc/elements/1.1/"
   xmlns:cc="http://creativecommons.org/ns#"
   xmlns:rdf="http://www.w3.org/1999/02/22-rdf-syntax-ns#"
   xmlns:svg="http://www.w3.org/2000/svg"
   xmlns="http://www.w3.org/2000/svg"
   xmlns:sodipodi="http://sodipodi.sourceforge.net/DTD/sodipodi-0.dtd"
   xmlns:inkscape="http://www.inkscape.org/namespaces/inkscape"
   id="svg3364"
   version="1.1"
   inkscape:version="0.91 r13725"
   width="590.65424"
   height="196.875"
   viewBox="0 0 590.65424 196.875"
   sodipodi:docname="bb730500.svg">
  <metadata
     id="metadata3370">
    <rdf:RDF>
      <cc:Work
         rdf:about="">
        <dc:format>image/svg+xml</dc:format>
        <dc:type
           rdf:resource="http://purl.org/dc/dcmitype/StillImage" />
        <dc:title></dc:title>
      </cc:Work>
    </rdf:RDF>
  </metadata>
  <defs
     id="defs3368" />
  <sodipodi:namedview
     pagecolor="#ffffff"
     bordercolor="#666666"
     borderopacity="1"
     objecttolerance="10"
     gridtolerance="10"
     guidetolerance="10"
     inkscape:pageopacity="0"
     inkscape:pageshadow="2"
     inkscape:window-width="1603"
     inkscape:window-height="784"
     id="namedview3366"
     showgrid="false"
     inkscape:zoom="1.0581487"
     inkscape:cx="182.9311"
     inkscape:cy="188.84786"
     inkscape:window-x="0"
     inkscape:window-y="0"
     inkscape:window-maximized="0"
     inkscape:current-layer="svg3364" />
  <g
     id="g3374"
     transform="translate(4.4392352,4.7817918)">
    <path
       style="fill:#fefefe"
       d="m 9.9688482,117.5 c -0.3426794,-0.34375 -0.6230533,-1.82031 -0.6230533,-3.28125 l 0,-2.65625 281.7757151,0 281.77572,0 0,3.28125 0,3.28125 -281.15266,0 C 137.1106,118.125 10.311527,117.84375 9.9688482,117.5 Z m 73.2087268,-7.5177 c 0,-0.35349 0.908743,-1.61304 2.019428,-2.799 l 2.019429,-2.15631 -3.901014,-18.060368 C 81.16986,77.033418 79.419995,67.991535 79.42683,66.87355 79.44645,63.66361 80.438099,61.875 82.198137,61.875 c 3.594854,0 4.526576,2.815736 5.583901,16.875 0.562274,7.476562 1.64489,16.5279 2.405812,20.114081 l 1.383496,6.520329 -2.502578,2.6203 c -2.262172,2.36857 -5.891193,3.58679 -5.891193,1.97759 z m 51.401875,0.0843 c 0,-0.30713 0.80522,-1.69277 1.78938,-3.07922 1.78238,-2.51094 1.77718,-2.57072 -1.32762,-15.263827 -1.71434,-7.008659 -3.41126,-16.126924 -3.77091,-20.26281 -0.63498,-7.301983 -0.58681,-7.563908 1.66321,-9.042786 4.99389,-3.282327 6.31883,-0.24802 6.31883,14.471051 0,5.515785 0.74879,12.805139 1.88381,18.338653 l 1.8838,9.184029 -3.00172,3.10667 c -2.67909,2.77276 -5.43878,4.06577 -5.43878,2.54826 z m 79.43925,0.006 c 0,-0.30407 0.82078,-1.25328 1.82395,-2.10937 1.53773,-1.31228 1.92486,-3.29413 2.46703,-12.629758 0.53916,-9.28383 0.37006,-11.977765 -1.04639,-16.670618 -1.31053,-4.341902 -1.43886,-5.848771 -0.57215,-6.71819 0.81702,-0.819571 1.54999,-0.847768 2.72712,-0.104909 2.90195,1.831358 3.75889,22.013226 1.49761,35.270075 -0.554,3.24782 -0.83953,3.51563 -3.74842,3.51563 -1.73181,-6e-5 -3.14875,-0.24884 -3.14875,-0.55291 z m 72.8972,-0.3847 c 0,-0.51562 0.8163,-0.9375 1.814,-0.9375 0.99771,0 2.01991,-0.3342 2.27157,-0.74267 0.9014,-1.46304 -2.10557,-20.224148 -3.72491,-23.240467 -1.35558,-2.525018 -1.4561,-3.510747 -0.55936,-5.485037 1.07511,-2.366958 3.34013,-3.196577 4.332,-1.586691 0.51798,0.84072 1.84065,12.741227 2.85243,25.664245 l 0.56885,7.26562 -3.77729,0 c -2.0775,0 -3.77729,-0.42187 -3.77729,-0.9375 z m 39.25234,0 c 0,-0.51562 0.34018,-0.9375 0.75596,-0.9375 0.41577,0 1.48212,-0.53265 2.36966,-1.18366 1.52437,-1.11814 1.50537,-1.86612 -0.34325,-13.510677 -2.24422,-14.136433 -2.17399,-20.708273 0.23748,-22.22499 1.24026,-0.780072 1.97493,-0.659578 3.14699,0.516146 1.35351,1.357744 1.38797,2.085797 0.30021,6.34326 -0.99975,3.913002 -1.01601,7.172702 -0.0872,17.487924 0.62785,6.973147 0.89639,13.076377 0.59674,13.562717 -0.72995,1.18473 -6.97659,1.13708 -6.97659,-0.0532 z m 51.40188,0 c 0,-0.51562 0.60601,-0.9375 1.34671,-0.9375 0.74069,0 1.55729,-0.34177 1.81464,-0.7595 0.56192,-0.91203 -3.70531,-18.515299 -5.21138,-21.498116 -1.54295,-3.055843 0.39434,-7.038329 3.22729,-6.634326 1.81549,0.258905 2.06309,0.794714 1.86294,4.031533 -0.12694,2.053119 0.60838,8.170217 1.63407,13.593553 2.51629,13.304916 2.5337,13.141856 -1.40325,13.141856 -1.79906,0 -3.27102,-0.42187 -3.27102,-0.9375 z m 63.08411,-0.48989 c -1.54205,-0.71911 -11.00467,-4.76937 -21.02804,-9.00058 -10.02336,-4.231202 -18.75,-8.097205 -19.39252,-8.591108 -3.34088,-2.56811 1.11561,-7.106808 5.80464,-5.911719 1.04811,0.267129 8.38002,4.298338 16.29315,8.958244 7.91313,4.6599 14.57335,8.472553 14.80049,8.472553 0.92829,0 8.66247,6.00114 8.66247,6.72143 0,1.10606 -1.8881,0.86774 -5.14019,-0.64882 z m 26.40678,-0.35051 c -2.43889,-0.82684 -4.43655,-1.74831 -4.43925,-2.04771 -0.003,-0.29939 6.40864,-0.55792 14.24743,-0.57451 7.83878,-0.0166 16.98598,-0.49115 20.3271,-1.05458 3.34112,-0.56343 7.54673,-1.28114 9.3458,-1.59491 3.07132,-0.53565 3.40111,-0.33787 5.40173,3.23956 l 2.13071,3.81005 -21.28959,-0.13728 c -16.79121,-0.10827 -22.22654,-0.45492 -25.72393,-1.64062 z m 48.41257,-0.3057 c -1.82186,-2.6092 -1.8356,-3.93234 -0.0563,-5.4137 1.08909,-0.90669 3.00226,-0.93516 8.64486,-0.12862 3.98543,0.56966 12.71352,1.69843 19.39577,2.50838 14.27419,1.73016 21.02804,3.10275 21.02804,4.27355 0,0.47821 -10.30564,0.84399 -23.77879,0.84399 -23.51286,0 -23.79505,-0.0233 -25.23365,-2.0836 z m -165.00627,-1.52402 c 0,-0.90364 3.23599,-2.37521 15.88785,-7.225071 4.88318,-1.871878 9.35232,-3.60045 9.93142,-3.841275 1.04553,-0.434793 2.72997,4.160526 1.84899,5.044236 -0.25304,0.25384 -3.29002,1.05658 -6.74885,1.78388 -3.45882,0.7273 -6.74187,1.69648 -7.29567,2.15373 -0.5538,0.45726 -3.50238,1.29224 -6.55239,1.8555 -6.67054,1.23189 -7.07135,1.24487 -7.07135,0.229 z M 190.77256,94.921875 189.66009,82.96875 l 3.7216,-9.718996 c 2.04689,-5.345447 3.9168,-9.914784 4.15535,-10.154081 0.23855,-0.239297 1.28238,0.02052 2.31964,0.577375 3.5749,1.919215 3.34655,4.411396 -1.29347,14.11611 -4.16711,8.71561 -4.38177,9.545201 -3.92497,15.168476 0.47278,5.819785 -0.73609,13.917366 -2.07769,13.917366 -0.37152,0 -1.17612,-5.37891 -1.78799,-11.953125 z m 132.61708,9.843755 c 0.0138,-0.64454 1.2642,-2.64844 2.7786,-4.45313 l 2.75346,-3.28125 0.0251,3.36514 c 0.0203,2.70897 -0.43903,3.57729 -2.35528,4.45312 -2.98421,1.36395 -3.23284,1.35745 -3.20192,-0.0839 z m 59.59909,-8.131421 c -0.31942,-2.183146 0.0482,-2.946131 1.80706,-3.750001 2.48016,-1.133565 8.2276,-1.232932 10.87823,-0.188073 1.59869,0.630194 1.53293,0.83121 -0.76631,2.342431 -1.85172,1.2171 -9.67938,4.190184 -11.3904,4.32629 -0.0702,0.0056 -0.30803,-1.223212 -0.52858,-2.730647 z m -49.64208,-1.829522 c -1.19685,-5.951045 -0.709,-12.139542 1.20601,-15.298365 1.0133,-1.671448 2.11293,-4.848849 2.44361,-7.060891 0.33068,-2.212043 1.59444,-6.444535 2.80836,-9.405539 1.92224,-4.688815 2.20996,-5.015178 2.22928,-2.52872 0.0243,3.12906 -2.56464,15.843262 -5.90926,29.020078 -1.97002,7.761281 -2.19267,8.183916 -2.778,5.273438 z m -49.23448,-3.622799 c 0,-1.484186 0.6008,-3.517434 1.33512,-4.518329 1.15235,-1.570699 1.4129,-1.618756 1.90339,-0.351069 0.31255,0.807806 0.65801,2.705815 0.76768,4.217797 0.1604,2.211175 -0.21203,2.807862 -1.90339,3.04959 -1.76305,0.251976 -2.1028,-0.135478 -2.1028,-2.397989 z m -45.7926,-4.697513 c 9.4e-4,-0.386719 2.07429,-2.12004 4.60731,-3.851826 2.53303,-1.731785 9.92612,-8.798192 16.4291,-15.703125 6.50297,-6.904933 12.21006,-12.554424 12.68241,-12.554424 1.73296,0 4.59714,3.817376 4.59714,6.127066 0,1.900191 -0.79684,2.724113 -3.97196,4.106977 -2.18458,0.951451 -8.53887,5.838345 -14.12064,10.859766 -8.32135,7.48597 -11.01377,9.360919 -14.95327,10.413145 -5.70309,1.523273 -5.27232,1.474033 -5.27009,0.602421 z m 84.14007,-0.9375 c 0.0309,-1.700096 2.49346,-5.558915 3.09742,-4.853437 0.18848,0.220171 0.60287,1.771406 0.92087,3.447187 0.5262,2.773015 0.37026,3.046875 -1.73492,3.046875 -1.59121,0 -2.3038,-0.512013 -2.28337,-1.640625 z m 44.5282,-0.347783 c -1.61651,-0.942992 -1.62106,-1.08557 -0.0888,-2.783993 0.97627,-1.082157 2.85129,-1.790099 4.74114,-1.790099 3.51118,0 3.46221,-0.07118 2.21473,3.220219 -0.98228,2.591659 -3.79471,3.146141 -6.86709,1.353873 z m 143.6549,-3.253539 c -1.05808,-4.228925 2.40765,-12.50037 7.55949,-18.041761 7.62493,-8.201481 11.99412,-9.334347 5.32294,-1.380161 -4.12186,4.914592 -8.54825,13.626412 -8.56274,16.852819 -0.0228,5.072599 -3.21786,6.972849 -4.31969,2.569103 z M 222.42992,77.34375 c 0,-3.864103 1.91492,-4.402391 4.17033,-1.172287 1.35007,1.933532 1.33962,2.206476 -0.12564,3.28125 -2.79329,2.048886 -4.04469,1.396387 -4.04469,-2.108963 z m 283.87852,1.331157 C 503.93092,77.285799 504.02782,71.25 506.42766,71.25 c 2.68541,0 4.1053,2.337283 3.39387,5.586601 -0.67723,3.092993 -1.04039,3.283025 -3.51309,1.838306 z M 74.766359,66.526684 C 72.967294,65.569062 66.238322,62.420822 59.813088,59.530595 49.122521,54.721717 38.955059,47.798209 40.422239,46.326443 c 0.282371,-0.283252 2.711429,0.602301 5.397908,1.967897 4.346745,2.209546 10.472914,4.700867 26.811411,10.903362 4.320333,1.640104 4.944066,2.222236 5.486018,5.120111 0.33631,1.798288 0.455849,3.422702 0.265642,3.609808 -0.190207,0.187106 -1.817793,-0.443315 -3.616859,-1.400937 z M 121.08232,47.55133 C 116.48601,39.187161 112.00687,31.289062 111.12868,30 c -1.86754,-2.741301 -3.19854,-10.3125 -1.81292,-10.3125 0.50965,0 1.83584,1.792969 2.94711,3.984375 1.11125,2.191406 6.08596,9.890625 11.0549,17.109375 4.96895,7.21875 9.35485,13.660038 9.74646,14.313972 0.54188,0.904864 -2.58538,7.840638 -3.46755,7.690483 -0.0865,-0.01474 -3.91805,-6.870206 -8.51436,-15.234375 z m 76.11395,12.101314 c 0,-3.092646 -3.02802,-33.945715 -3.38904,-34.531704 C 193.13053,24.022614 196.21877,15 197.27139,15 c 0.47271,0 0.86041,2.214844 0.86156,4.921875 9.3e-4,2.707031 1.4332,12.304687 3.18233,21.328125 1.74914,9.023437 2.90474,16.67821 2.568,17.010607 -0.81404,0.803558 -6.68701,2.026135 -6.68701,1.392037 z m 138.42349,-6.762007 c -1.08619,-1.385173 -1.97048,-2.77801 -1.9651,-3.095192 0.006,-0.317182 4.13591,-8.780242 9.17895,-18.806799 5.80217,-11.535837 10.08278,-18.914349 11.65717,-20.093468 3.24955,-2.4337218 3.99389,-1.5250472 1.94717,2.377075 -0.90412,1.723698 -4.88876,11.782435 -8.85479,22.352747 -4.48835,11.962433 -7.7353,19.325484 -8.59973,19.501443 -0.76384,0.155481 -2.27749,-0.850631 -3.36367,-2.235805 z m -57.83613,0.220449 c -3.89735,-1.054213 -3.94235,-1.110895 -1.89664,-2.388803 1.15248,-0.719932 7.43083,-5.675134 13.95188,-11.011561 10.71299,-8.766863 19.85452,-14.362055 21.22268,-12.989618 0.28414,0.285023 -1.1422,1.853522 -3.16965,3.485551 -2.02745,1.632029 -8.54406,7.737555 -14.48136,13.567836 -5.9373,5.830279 -10.98403,10.559091 -11.21495,10.50847 -0.23093,-0.05063 -2.21631,-0.577965 -4.41196,-1.171875 z m -125.4249,-4.802914 c -0.80141,-0.968665 -0.76466,-1.767331 0.14889,-3.234709 0.66716,-1.071655 1.44494,-1.948463 1.72838,-1.948463 0.28344,0 4.18266,-2.109375 8.66494,-4.6875 8.42143,-4.843846 10.69545,-5.486133 12.61309,-3.5625 1.72242,1.727799 1.35743,2.311954 -1.4486,2.318449 -1.62661,0.0037 -5.88732,2.281075 -11.60632,6.203459 -7.39936,5.074873 -9.22898,5.964515 -10.10038,4.911264 z m 0.91231,-6.912871 c 0,-1.102247 3.1963,-3.895301 4.45768,-3.895301 2.33912,0 1.96477,1.888897 -0.64239,3.241324 -3.19069,1.655118 -3.81529,1.762183 -3.81529,0.653977 z M 79.127731,39.6875 C 77.76852,38.324043 78.794808,36.327761 86.069955,26.183857 90.230857,20.382215 94.083407,14.648697 94.631183,13.442708 95.178959,12.236719 95.934594,11.25 96.310389,11.25 c 1.136505,0 2.058187,5.076758 0.986729,5.435029 -1.444589,0.483033 -10.957141,14.389109 -12.691793,18.55369 -1.8102,4.345954 -3.893423,6.037902 -5.477594,4.448781 z M 75.934584,35.540767 C 74.232242,34.898911 73.83178,34.028011 73.83178,30.96771 c 0,-3.08132 0.326431,-3.78021 1.765623,-3.78021 0.971092,0 2.731825,0.784828 3.91274,1.744063 l 2.147117,1.744063 -1.809936,2.828994 c -1.502843,2.348995 -2.16672,2.694469 -3.91274,2.036147 z"
       id="path3382"
       inkscape:connector-curvature="0" />
    <path
       style="fill:#007f7f"
       d="m 512.28002,106.17188 c -0.47843,-0.90235 -1.98051,-4.38282 -3.33796,-7.73438 -2.04393,-5.046485 -2.36315,-6.941748 -1.85752,-11.028014 0.68657,-5.548373 1.68529,-6.80334 3.18185,-3.998244 1.32694,2.487147 3.17038,2.410281 4.99119,-0.208117 1.39156,-2.00112 1.46818,-2.013148 1.49301,-0.234375 0.0144,1.03125 -0.39592,3.711285 -0.91182,5.955635 -0.8284,3.603823 -0.66962,4.562335 1.35892,8.203127 2.06564,3.707378 2.12993,4.122488 0.63841,4.122488 -2.23339,0 -5.11246,3.33037 -4.42735,5.12133 0.75258,1.96731 -0.0556,1.8245 -1.12873,-0.19946 z M 396.85121,92.15385 c -0.36113,-0.362258 -3.90085,-0.889601 -7.86604,-1.171875 l -7.20945,-0.513225 0,-4.987231 c 0,-3.851293 -0.4132,-5.292645 -1.81414,-6.328125 -2.67436,-1.976717 -0.0776,-1.629666 4.20507,0.561984 2.04507,1.046582 6.62493,2.268985 10.17746,2.716449 7.61743,0.959467 9.72262,1.901873 6.72956,3.012539 -2.6204,0.972381 -3.54086,3.379712 -2.14781,5.617321 0.86088,1.382787 0.82641,1.750813 -0.16402,1.750813 -0.68971,0 -1.5495,-0.296392 -1.91063,-0.65865 z M 283.29048,78.671903 c -0.57611,-1.657808 -1.04747,-4.544873 -1.04747,-6.4157 0,-4.877127 -2.23412,-7.742402 -5.42952,-6.963418 -2.44392,0.595789 -2.46857,0.560979 -0.87889,-1.241851 2.31155,-2.621507 2.0307,-5.614742 -0.79256,-8.446813 l -2.42806,-2.435653 4.06358,0.646058 c 3.10499,0.493656 5.13559,1.686445 8.60796,5.056391 2.49941,2.425683 5.0879,5.675958 5.75219,7.222833 1.74995,4.074996 2.75898,11.71875 1.54694,11.71875 -0.54204,0 -1.24546,-0.421875 -1.56314,-0.9375 -1.09533,-1.777827 -3.30335,-0.929487 -5.04102,1.936799 l -1.74252,2.8743 -1.04749,-3.014196 z m 50.90406,-2.069055 c 0.42677,-1.840842 0.11536,-3.160247 -1.05103,-4.453125 -2.02252,-2.241837 -3.04997,-2.297573 -5.26616,-0.285672 -2.43585,2.211296 -2.20916,0.770298 1.71029,-10.872119 l 3.4194,-10.157041 2.33134,2.779314 c 1.52085,1.813061 2.93138,2.621913 4.05725,2.326572 2.24073,-0.587794 2.1799,0.232604 -0.53231,7.180578 -1.24201,3.181692 -2.52435,7.481025 -2.84965,9.554072 -0.32529,2.073046 -1.00412,4.393359 -1.5085,5.15625 -0.65774,0.994836 -0.74558,0.647347 -0.31063,-1.228829 z M 213.9348,74.765625 c -2.26367,-4.403883 -4.8436,-6.421009 -7.47192,-5.841928 -2.11433,0.465834 -2.59009,0.178815 -3.10323,-1.872086 -0.33334,-1.33225 -1.87709,-3.197642 -3.43055,-4.145318 l -2.8245,-1.723046 4.38295,-1.107089 c 5.97672,-1.509659 12.44338,0.771406 16.85986,5.947189 3.58065,4.196266 4.30656,6.905875 1.35466,5.056626 -2.43359,-1.524553 -5.06299,0.602193 -4.48624,3.628634 0.52099,2.733929 0.10447,2.752468 -1.28103,0.05702 z M 139.29586,64.01736 c -0.066,-3.149802 -3.34524,-4.519965 -6.24935,-2.611173 -2.27958,1.498306 -2.31428,1.487167 -1.29846,-0.416828 0.57403,-1.075953 2.916,-4.070975 5.20436,-6.655605 2.28837,-2.584631 4.83982,-5.73909 5.66991,-7.009911 1.48296,-2.27036 8.2206,-5.072041 9.38605,-3.902954 0.32695,0.327965 0.0522,1.251674 -0.61048,2.052688 -1.00658,1.216646 -0.86882,1.815288 0.83691,3.636629 l 2.04185,2.180242 -5.26614,3.1829 c -3.80788,2.301519 -5.87604,4.351125 -7.46864,7.401652 -1.66866,3.196213 -2.21304,3.715477 -2.24601,2.14236 z M 78.53182,63.75 c -0.01633,-0.257813 -0.659389,-4.054688 -1.429012,-8.4375 -1.482719,-8.443723 -1.763606,-13.901031 -0.839783,-16.316 0.478235,-1.250152 0.801273,-1.173045 2.165424,0.516875 1.336762,1.65599 1.93233,1.809605 3.582081,0.923925 1.088308,-0.584265 2.15801,-1.0623 2.377116,-1.0623 0.219105,0 0.62255,4.746094 0.896544,10.546875 0.273994,5.800781 0.824529,11.390625 1.223409,12.421875 0.697203,1.802519 0.653044,1.811579 -1.142337,0.234375 C 84.338095,61.675781 82.815718,60.9375 81.9822,60.9375 c -0.833517,0 -1.944154,0.738281 -2.468084,1.640625 -0.52393,0.902344 -0.965964,1.429687 -0.982296,1.171875 z"
       id="path3378"
       inkscape:connector-curvature="0" />
    <path
       style="fill:#000000"
       d="M 11.682244,178.3432 19.15888,178.00555 30.068972,161.83707 40.979065,145.66859 30.686337,134.00617 C 17.539911,119.1103 17.485825,119.0625 13.777396,119.0625 c -3.9383104,0 -5.3661806,-1.42191 -5.3661806,-5.34375 l 0,-3.09375 36.6822456,-0.0518 36.682245,-0.0519 2.236807,-2.83684 2.236808,-2.83684 -3.458182,-16.095662 C 80.88914,79.899297 79.114861,71.907241 78.848296,70.991786 78.338539,69.241138 71.774861,65.681555 57.009349,59.148186 47.275146,54.841045 38.05707,47.699003 39.876503,45.873885 c 0.733995,-0.736288 2.365646,-0.335819 5.851734,1.436236 2.658672,1.351461 10.752422,4.740677 17.986112,7.531592 l 13.152163,5.07439 -0.609797,-3.473676 c -1.338947,-7.627236 -1.703734,-15.913934 -0.773912,-17.580624 0.731216,-1.310695 0.847185,-0.686059 0.479744,2.584045 -0.423631,3.770195 0.339995,10.651458 2.206494,19.883378 0.461641,2.28333 0.697239,2.477029 1.425365,1.171875 1.127257,-2.020591 3.417876,-1.990017 5.770856,0.07702 1.795381,1.577204 1.83954,1.568144 1.142337,-0.234375 C 86.108719,61.3125 85.558184,55.722656 85.28419,49.921875 85.010196,44.121094 84.606751,39.375 84.387646,39.375 c -0.219106,0 -1.234436,0.448846 -2.256293,0.997435 -1.570496,0.843132 -2.428477,0.425096 -5.546036,-2.702205 -3.118956,-3.128703 -3.688116,-4.304884 -3.688116,-7.621568 0,-6.011776 1.220201,-7.548662 5.993214,-7.548662 2.467229,0 4.514424,-0.551323 5.221739,-1.40625 1.411829,-1.706466 3.730431,-1.851027 3.7591,-0.234375 0.02695,1.52 3.255414,-2.519419 5.668677,-7.092593 2.130392,-4.0371333 3.597299,-4.1006873 4.889542,-0.21184 0.722822,2.175234 0.551234,2.928916 -0.94715,4.160156 -2.566775,2.10915 -10.086108,13.066958 -11.815111,17.217979 -0.849427,2.039317 -1.081447,3.687388 -0.564261,4.008025 0.4831,0.299506 0.878362,3.817176 0.878362,7.817045 0,3.99987 0.397113,9.564817 0.882472,12.366548 0.48536,2.80173 1.329577,11.42218 1.876038,19.156555 0.54646,7.734375 1.617385,16.99665 2.379834,20.582831 l 1.386269,6.520329 -2.502579,2.6203 -2.502577,2.62029 22.8384,-0.0116 22.83841,-0.0116 2.01114,-3.11622 2.01114,-3.11622 -3.07881,-12.586898 c -1.69336,-6.92279 -3.38363,-15.849825 -3.75617,-19.837857 -0.63968,-6.847589 -1.14487,-8.098634 -9.08114,-22.488404 -4.62209,-8.380553 -9.37905,-16.713964 -10.57103,-18.518651 -2.62925,-3.980716 -3.53427,-11.71875 -1.37061,-11.71875 0.769,0 2.45124,1.950503 3.73832,4.334452 3.18852,5.90582 20.86064,31.713392 21.73364,31.738839 0.38606,0.01125 2.66486,-2.515153 5.06402,-5.614235 3.35011,-4.327459 5.24706,-5.899794 8.17659,-6.777379 2.09797,-0.628477 4.81221,-2.328382 6.03164,-3.777567 1.85957,-2.209945 2.85325,-2.601849 6.16148,-2.430067 2.698,0.140096 4.98538,-0.440593 7.23897,-1.83774 4.09691,-2.539944 6.50078,-2.584721 8.68666,-0.161805 2.02865,2.24863 1.32456,3.198438 -2.51453,3.392119 -5.68756,0.286936 -9.20816,6.867026 -6.20758,11.602133 1.92225,3.033426 2.96039,7.5 1.74319,7.5 -0.51402,0 -1.20936,-1.160156 -1.5452,-2.578125 -0.87565,-3.697111 -3.15013,-6.099933 -4.61765,-4.878196 -0.64383,0.536006 -2.28552,0.693858 -3.64819,0.35078 -1.77727,-0.447462 -3.05734,-0.106216 -4.52865,1.207272 -1.12808,1.007077 -4.00299,3.035698 -6.38867,4.508046 -6.52711,4.02828 -8.27922,8.373145 -8.27922,20.530853 0,6.078096 0.70528,13.153884 1.88381,18.899511 l 1.8838,9.184029 -3.00172,3.10667 -3.00171,3.10666 37.05107,0 37.05108,0 2.27939,-2.11908 c 2.0729,-1.92709 2.32648,-3.05246 2.79899,-12.421873 0.42832,-8.493091 0.33577,-9.68527 -0.52692,-6.787172 -1.37541,4.620544 -3.04896,4.620544 -2.13572,0 1.36188,-6.890497 0.92494,-10.853297 -1.64525,-14.921194 -3.04181,-4.814361 -3.53657,-5.129543 -6.9706,-4.440589 -2.36026,0.473525 -3.32155,1.721298 -6.78188,8.80297 -3.85237,7.884009 -4.00952,8.537291 -3.53102,14.678465 0.56237,7.217693 -0.90544,13.927223 -3.04681,13.927223 -1.07021,0 -1.64315,-2.63356 -2.6052,-11.975081 l -1.23328,-11.975088 3.9069,-10.370709 3.9069,-10.370711 -1.11193,-14.216705 c -0.61156,-7.819188 -1.48072,-16.67252 -1.93146,-19.674071 -0.65611,-4.368996 -0.49577,-6.332146 0.80401,-9.84375 2.28212,-6.165659 4.29345,-5.831762 4.63749,0.769865 0.23229,4.457309 5.04817,32.276902 6.35599,36.716236 0.25276,0.857992 2.60022,2.332157 5.21656,3.275922 4.97003,1.792781 11.99051,8.514372 11.99051,11.480025 0,0.836385 0.93594,1.937146 2.07987,2.446135 4.92078,2.18949 5.7566,9.79061 1.30052,11.827278 -1.97471,0.902548 -2.23019,1.786604 -2.76785,9.577495 -0.32578,4.720734 -0.86219,10.165189 -1.19201,12.098789 l -0.59967,3.51562 32.26528,0 c 27.81812,0 32.33943,-0.19383 32.80324,-1.40625 0.29587,-0.77344 1.42568,-1.40625 2.51069,-1.40625 1.64575,0 1.89294,-0.42735 1.49133,-2.57812 -0.26479,-1.41797 -0.73027,-4.48662 -1.03441,-6.819211 l -0.55298,-4.241072 -3.62313,0.346594 c -4.8947,0.468243 -7.88644,-2.369458 -7.35077,-6.972284 0.23036,-1.979319 -0.003,-3.072412 -0.60937,-2.857722 -0.54033,0.191225 -0.93445,1.885924 -0.87582,3.765998 0.12272,3.935251 -1.18509,4.568467 -2.07656,1.005434 -1.01079,-4.039868 0.83588,-6.615519 5.2509,-7.323714 3.21715,-0.516053 3.79302,-0.912795 3.25432,-2.242078 -0.35998,-0.888291 -0.95328,-4.032789 -1.31845,-6.987772 -0.36516,-2.954983 -0.96344,-5.673134 -1.32949,-6.040336 -0.36606,-0.367202 -2.53881,-0.776814 -4.82835,-0.91025 -4.69522,-0.273641 -4.88206,-0.150896 -18.45872,12.126526 -6.52621,5.901681 -9.16236,7.660225 -13.00893,8.678103 -7.77626,2.057747 -8.53851,0.38577 -1.93712,-4.249003 2.44159,-1.714216 10.95795,-9.701457 18.92524,-17.749423 22.51319,-22.741157 47.62027,-41.74803 50.85502,-38.498886 0.72948,0.73273 -0.16634,1.977511 -3.19147,4.434712 -2.31308,1.878829 -9.02606,8.155406 -14.91773,13.947948 l -10.71212,10.531894 4.77123,5.060635 c 3.95398,4.193823 4.96423,5.993261 5.89805,10.505508 0.76309,3.687225 0.8299,6.098612 0.20698,7.470036 -0.59118,1.301569 -0.61571,5.359691 -0.0686,11.357698 0.46817,5.132891 1.08424,11.969255 1.36905,15.191915 l 0.51783,5.85937 14.87888,0 c 9.50437,0 14.87885,-0.3459 14.87885,-0.9576 0,-0.52668 1.05141,-1.43814 2.33645,-2.02548 1.28505,-0.58734 2.33645,-1.64381 2.33645,-2.34773 0,-1.03991 -0.53077,-1.00451 -2.83119,0.1888 -5.18249,2.68835 -6.07291,0.18854 -1.84171,-5.17049 2.77113,-3.509775 3.31197,-5.970863 2.21469,-10.078125 -0.4436,-1.660478 -1.23644,-2.109375 -3.72556,-2.109375 -4.83955,0 -7.23587,-2.927396 -6.65173,-8.12592 0.3917,-3.486035 0.22082,-4.109981 -1.05899,-3.866785 -0.87586,0.166431 -1.65272,1.391817 -1.82332,2.875991 -0.35018,3.046503 -2.0392,2.493569 -2.0392,-0.667572 0,-2.843373 2.04995,-4.464335 5.31713,-4.204427 5.29183,0.420969 7.76698,-0.0558 7.76698,-1.496104 0,-0.782274 1.67,-6.372118 3.71113,-12.421875 3.54615,-10.510626 19.98373,-44.730273 23.22612,-48.352018 4.58663,-5.1232733 7.89481,-3.8134591 4.9572,1.962721 -1.04601,2.056776 -4.89138,11.704626 -8.54525,21.439667 -6.08263,16.206008 -6.59391,18.111063 -6.05713,22.569046 0.62552,5.195065 -1.22829,15.593337 -5.73393,32.162276 -1.33205,4.898437 -2.47989,11.54225 -2.55077,14.76402 l -0.12886,5.85777 21.16169,0.002 c 17.94926,9.4e-4 21.24336,-0.21188 21.69965,-1.40465 0.29587,-0.77344 1.19,-1.40625 1.98695,-1.40625 1.10715,0 1.30354,-0.60824 0.83244,-2.57812 -0.33912,-1.41797 -0.705,-2.69102 -0.81307,-2.829 -0.38826,-0.49568 -13.90938,2.65648 -14.89143,3.47161 -1.3778,1.14361 -12.50491,3.09626 -13.63864,2.39338 -2.76452,-1.7139 0.48811,-3.58377 17.16832,-9.869693 4.54975,-1.714566 8.46524,-3.621872 8.70111,-4.238456 0.23587,-0.616586 0.0567,-2.543605 -0.39798,-4.282266 -0.77195,-2.951289 -1.05487,-3.14078 -4.2608,-2.853636 -2.79687,0.250509 -3.9543,-0.214409 -6.23875,-2.506008 -1.69061,-1.696162 -2.80482,-3.790477 -2.80482,-5.272329 0,-2.87304 3.78701,-7.060752 6.38514,-7.060752 0.98847,0 2.32076,-0.632813 2.96066,-1.40625 1.63521,-1.976468 5.00925,-1.748231 7.01453,0.474498 2.17764,2.413776 1.05422,3.634881 -1.34244,1.459166 -2.73555,-2.483383 -4.16671,-0.965709 -2.21489,2.34879 1.10937,1.883876 2.12523,2.585571 3.23272,2.232968 0.88825,-0.282798 3.32891,0.362929 5.42371,1.434952 2.09478,1.072022 6.74564,2.319058 10.33523,2.771192 7.60546,0.957959 13.54949,3.600017 29.89444,13.287753 6.429,3.810497 12.83149,7.520881 14.22776,8.245271 1.39626,0.72441 4.07454,2.72832 5.95174,4.45313 l 3.41307,3.13603 10.86384,-0.0983 c 10.09228,-0.0913 10.59834,-0.18056 7.12553,-1.25648 -2.05608,-0.637 -3.73832,-1.75292 -3.73832,-2.47983 0,-1.05416 1.60769,-1.26839 7.94393,-1.05853 11.60756,0.38446 36.67137,-2.19544 39.04218,-4.01873 0.14142,-0.10876 -0.62081,-2.252302 -1.69385,-4.763414 -1.53326,-3.588142 -1.81602,-5.573578 -1.32071,-9.273313 0.34665,-2.58921 1.01109,-5.181644 1.47655,-5.760965 0.55597,-0.691991 0.0392,-1.583785 -1.50652,-2.599737 -1.93408,-1.271219 -2.35279,-2.293358 -2.35279,-5.743563 0,-5.637732 2.53862,-8.304013 7.33455,-7.703371 3.08938,0.386916 3.91623,-0.04897 8.71756,-4.595654 2.91745,-2.762712 5.73141,-5.023113 6.25326,-5.023113 2.39835,0 1.79323,2.245847 -1.73655,6.44503 -3.11741,3.708623 -3.72503,5.032677 -3.22559,7.028828 0.33845,1.352697 0.29366,3.198674 -0.0995,4.102171 -0.58272,1.338997 -0.82411,1.122717 -1.30562,-1.169779 l -0.59073,-2.8125 -1.73876,4.486984 c -1.45477,3.754104 -1.54687,4.846679 -0.56386,6.689179 0.90612,1.698387 0.93842,3.308361 0.14118,7.037343 -0.90188,4.218477 -0.80421,5.286431 0.76581,8.373535 0.98974,1.946118 2.40578,4.043119 3.14677,4.659999 0.74099,0.61689 5.29276,1.51513 10.11504,1.99608 22.90257,2.28423 34.46872,4.47323 34.46872,6.52352 0,0.49874 1.78739,1.06829 3.97197,1.26566 2.18458,0.19738 -122.9589,0.43257 -278.09662,0.52266 l -282.0685722,0.16379 0.2928589,3.04688 0.292858,3.04687 281.7757153,0.47106 281.77572,0.47105 -256.30843,0.23207 c -208.06416,0.18839 -256.308423,0.45889 -256.308423,1.43709 0,0.66277 -8.558186,13.84636 -19.018192,29.29688 l -19.018191,28.09185 275.326626,0.4711 275.32661,0.47112 -284.57946,0.0412 C 132.26636,178.66232 7.5700939,178.52891 11.682244,178.3432 Z m 45.639457,-57.64007 c 0.41482,-1.52171 -0.872336,-1.64063 -17.757609,-1.64063 l -18.204846,0 2.638135,3.1535 c 1.450974,1.73442 6.19502,7.1796 10.542323,12.10039 l 7.904189,8.9469 7.215284,-10.45977 c 3.968406,-5.75287 7.416542,-11.19805 7.662524,-12.10039 z m 31.747067,-12.69842 2.502578,-2.6203 -1.383496,-6.520329 C 89.426928,95.2779 88.344312,86.226562 87.782038,78.75 86.724713,64.690736 85.792991,61.875 82.198137,61.875 c -1.760038,0 -2.751683,1.78861 -2.771307,4.99855 -0.0068,1.117985 1.74303,10.159868 3.888588,20.093072 l 3.901014,18.060368 -2.019429,2.15631 c -2.462984,2.62992 -2.539669,3.4417 -0.32512,3.4417 0.931869,0 2.820467,-1.17913 4.196885,-2.62029 z m 50.949462,-0.48637 3.00172,-3.10667 -1.8838,-9.184029 c -1.13502,-5.533514 -1.88381,-12.822868 -1.88381,-18.338653 0,-14.719071 -1.32494,-17.753378 -6.31883,-14.471032 -2.25002,1.478878 -2.29819,1.740802 -1.66321,9.042786 0.35965,4.135886 2.05657,13.254151 3.77091,20.26281 3.1048,12.693108 3.11,12.752888 1.32762,15.263828 -2.10941,2.97167 -2.21392,3.63762 -0.57085,3.63762 0.6702,0 2.56931,-1.398 4.22025,-3.10666 z m 80.89764,-0.40896 c 2.26128,-13.256855 1.40434,-33.438723 -1.49761,-35.270082 -1.17713,-0.742859 -1.9101,-0.714661 -2.72712,0.10491 -0.86671,0.869419 -0.73838,2.376287 0.57215,6.71819 1.41645,4.692852 1.58555,7.386788 1.04639,16.670618 -0.54217,9.335624 -0.9293,11.317484 -2.46703,12.629754 -2.54294,2.17011 -2.29804,2.66223 1.3248,2.66223 2.90889,0 3.19442,-0.26781 3.74842,-3.51562 z m 72.98576,-3.75 c -1.01178,-12.923018 -2.33445,-24.823525 -2.85243,-25.664245 -0.99187,-1.609886 -3.25689,-0.780267 -4.332,1.586691 -0.89674,1.97429 -0.79622,2.960019 0.55936,5.485037 1.61934,3.016319 4.62631,21.777427 3.72491,23.240467 -0.25166,0.40847 -1.27386,0.74267 -2.27157,0.74267 -0.9977,0 -1.814,0.42188 -1.814,0.9375 0,0.51563 1.69979,0.9375 3.77729,0.9375 l 3.77729,0 -0.56885,-7.26562 z m 39.24317,6.38134 c 0.29964,-0.48635 0.0311,-6.58957 -0.59674,-13.562717 -0.92878,-10.315222 -0.91252,-13.574922 0.0872,-17.487924 1.08729,-4.255618 1.05299,-4.985824 -0.29778,-6.340825 -1.32909,-1.333235 -1.79668,-1.362628 -3.61428,-0.227188 -1.90933,1.192739 -1.97811,1.171149 -0.80504,-0.252702 0.7055,-0.856275 1.79686,-1.556864 2.42529,-1.556864 1.5137,0 3.94107,2.812157 4.45071,5.15625 0.24662,1.134304 0.69625,0.113089 1.13822,-2.585107 0.74674,-4.558836 5.14343,-16.366499 5.14643,-13.821143 9.2e-4,0.773437 -0.76877,3.107617 -1.71043,5.187065 -0.94164,2.079447 -1.99586,5.679126 -2.34271,7.999287 -0.34685,2.320161 -1.4597,5.586022 -2.473,7.25747 -1.87682,3.095833 -2.398,11.123629 -1.03773,15.9844 0.58123,2.076956 4.02494,-10.513579 7.6902,-28.116079 1.40942,-6.768771 0.56082,-12.055655 -1.83422,-11.42738 -1.09627,0.287577 -2.53014,-0.542004 -4.03253,-2.333058 l -2.33134,-2.779314 -3.32506,9.97318 c -3.21008,9.628322 -3.29907,10.264936 -2.57355,18.410679 0.41333,4.640625 1.43888,12.649733 2.279,17.798016 1.43948,8.821104 1.43429,9.428874 -0.0899,10.546874 -0.88957,0.6525 -1.95757,1.18636 -2.37334,1.18636 -0.41578,0 -0.75596,0.42188 -0.75596,0.9375 0,1.1903 6.24664,1.23795 6.97656,0.0533 z m 50.96592,-0.75634 c -7.9e-4,-0.90235 -0.84064,-6.0779 -1.86633,-11.501236 -1.02569,-5.423336 -1.76101,-11.540434 -1.63407,-13.593553 0.20015,-3.236819 -0.0475,-3.772628 -1.86294,-4.031533 -2.83295,-0.404003 -4.77024,3.578483 -3.22729,6.634326 1.50607,2.982817 5.7733,20.586086 5.21138,21.498116 -0.25735,0.41773 -1.07395,0.7595 -1.81464,0.7595 -0.7407,0 -1.34671,0.42188 -1.34671,0.9375 0,0.51563 1.47196,0.9375 3.27102,0.9375 2.49277,0 3.27069,-0.39035 3.26958,-1.64062 z m 61.6837,0.79312 c 0,-0.67232 -7.78702,-6.6525 -8.66247,-6.6525 -0.22714,0 -6.88736,-3.812653 -14.80049,-8.472553 -7.91313,-4.659906 -15.24504,-8.691115 -16.29315,-8.958244 -4.68903,-1.195089 -9.14552,3.343609 -5.80464,5.911719 0.64252,0.493903 9.36916,4.364012 19.39252,8.600248 21.55861,9.11143 22.9067,9.72382 19.62617,8.91553 -1.28504,-0.31663 -10.10268,-3.90479 -19.59475,-7.97369 C 410.16555,97.0791 401.42989,93.75 400.24505,93.75 c -1.18484,0 -3.72234,1.016109 -5.6389,2.258025 -1.91655,1.241916 -4.84663,2.539997 -6.5113,2.884631 -3.91082,0.809644 -4.17887,1.360554 -3.4273,7.043864 l 0.62786,4.74791 30.24951,-0.0987 c 16.63723,-0.0542 30.2495,-0.41797 30.2495,-0.80828 z m 118.69159,-0.0117 c 0,-1.15599 -6.80877,-2.53482 -21.02803,-4.25832 -6.68225,-0.80995 -15.44336,-1.9441 -19.46915,-2.52034 -6.37416,-0.91237 -7.51217,-0.85452 -8.81059,0.44796 -1.17881,1.18249 -1.27967,1.96095 -0.48169,3.71779 1.65581,3.64545 -1.1957,2.76885 -3.18464,-0.97901 -1.56359,-2.94637 -1.95912,-3.15445 -4.96982,-2.61456 -12.42452,2.22801 -16.99689,2.63876 -29.6729,2.66558 -7.83879,0.0166 -14.25014,0.27512 -14.24743,0.57451 0.003,0.2994 2.00036,1.21606 4.43925,2.03702 3.796,1.27778 11.12762,1.51176 50.92967,1.6254 26.40685,0.0754 46.49533,-0.22534 46.49533,-0.69603 z m -206.94735,-2.9774 c 3.05001,-0.56326 5.99859,-1.39824 6.55239,-1.8555 0.5538,-0.45725 3.83685,-1.42643 7.29567,-2.15373 3.45883,-0.7273 6.49581,-1.53004 6.74885,-1.78388 0.88098,-0.88371 -0.80346,-5.479029 -1.84899,-5.044236 -0.5791,0.240825 -5.04824,1.969397 -9.93142,3.841275 -12.65186,4.849861 -15.88785,6.321431 -15.88785,7.225071 0,1.01587 0.40081,1.00289 7.07135,-0.229 z m 155.87009,-0.41705 c -0.68511,-1.79095 2.19396,-5.12133 4.42735,-5.12133 1.49152,0 1.42723,-0.41511 -0.63841,-4.122487 -2.02854,-3.640793 -2.18732,-4.599305 -1.35892,-8.203128 0.5159,-2.24435 0.92622,-4.924385 0.91182,-5.955635 -0.0249,-1.778773 -0.10145,-1.766745 -1.49301,0.234375 -1.82081,2.618398 -3.66425,2.695264 -4.99119,0.208117 -1.49656,-2.805096 -2.49528,-1.550129 -3.18185,3.998244 -0.50563,4.086266 -0.18641,5.981529 1.85752,11.028014 2.77049,6.8404 4.01762,9.375 4.61292,9.375 0.2228,0 0.15699,-0.64853 -0.14623,-1.44117 z m -319.22998,-3.4807 c 0.51849,-2.19141 0.72526,-6.661261 0.45947,-9.932996 -0.4568,-5.623275 -0.24214,-6.452866 3.92497,-15.168476 4.64002,-9.704714 4.86837,-12.196895 1.29347,-14.11611 -1.03726,-0.556853 -2.08109,-0.816672 -2.31964,-0.577375 -0.23855,0.239297 -2.10846,4.808634 -4.15535,10.154081 l -3.7216,9.718996 1.11247,11.953125 c 0.61187,6.574215 1.41647,11.953125 1.78799,11.953125 0.37154,0 1.09973,-1.79297 1.61822,-3.98437 z m 132.41279,1.95888 c 1.91625,-0.87583 2.37552,-1.74415 2.35528,-4.45312 l -0.0251,-3.36514 -2.75346,3.28125 c -2.43696,2.90409 -3.58842,5.625 -2.38042,5.625 0.23283,0 1.49451,-0.48959 2.80374,-1.08799 z m 61.42721,-6.826329 c 2.40564,-0.732347 5.50566,-2.075419 6.88894,-2.984615 2.29924,-1.511221 2.365,-1.712237 0.76631,-2.342431 -2.65063,-1.044859 -8.39807,-0.945492 -10.87823,0.188073 -1.75881,0.80387 -2.12648,1.566854 -1.80706,3.750001 0.22055,1.507435 0.45841,2.736225 0.52858,2.730647 0.0702,-0.0056 2.09582,-0.609337 4.50146,-1.341675 z m -99.90041,-7.492894 c -0.10967,-1.511982 -0.45513,-3.409991 -0.76768,-4.217797 -0.49049,-1.267687 -0.75104,-1.21963 -1.90339,0.351069 -0.73432,1.000895 -1.33512,3.034143 -1.33512,4.518329 0,2.262511 0.33975,2.649965 2.1028,2.39799 1.69136,-0.241729 2.06379,-0.838416 1.90339,-3.049591 z m 110.8075,0.5314 c -1.39305,-2.237609 -0.47259,-4.644939 2.14781,-5.617321 2.99306,-1.110666 0.88787,-2.053072 -6.72956,-3.012539 -3.55253,-0.447464 -8.13239,-1.669867 -10.17746,-2.716449 -4.28261,-2.19165 -6.87943,-2.538701 -4.20507,-0.561984 1.40094,1.03548 1.81414,2.476832 1.81414,6.328125 l 0,4.987231 7.20945,0.513225 c 3.96519,0.282274 7.50491,0.809617 7.86604,1.171875 0.36113,0.362258 1.22092,0.65865 1.91063,0.65865 0.99043,0 1.0249,-0.368026 0.16402,-1.750813 z m -155.3362,-5.179733 c 3.9395,-1.052226 6.63192,-2.927175 14.95327,-10.413145 5.58177,-5.021421 11.93606,-9.908315 14.12064,-10.859766 3.17512,-1.382864 3.97196,-2.206786 3.97196,-4.106977 0,-2.30969 -2.86418,-6.127066 -4.59714,-6.127066 -0.47235,0 -6.17944,5.649491 -12.68241,12.554424 -6.50298,6.904933 -13.89607,13.97134 -16.4291,15.703125 -2.53302,1.731786 -4.60631,3.465107 -4.60731,3.851826 -0.002,0.871612 -0.433,0.920852 5.27009,-0.602421 z m 82.88827,-1.741329 c -0.75746,-3.991703 -1.00798,-4.186403 -2.62607,-2.040937 -2.16512,2.870793 -1.7768,5.087812 0.89115,5.087812 2.10518,0 2.26112,-0.27386 1.73492,-3.046875 z m 47.377,-0.295406 c 1.24748,-3.291401 1.29645,-3.220219 -2.21473,-3.220219 -1.88985,0 -3.76487,0.707942 -4.74115,1.790099 -1.53227,1.698423 -1.52772,1.841001 0.0888,2.783993 3.07238,1.792268 5.88481,1.237786 6.86709,-1.353873 z m 140.53109,-0.953144 c 0.31201,-0.81561 0.57139,-2.397642 0.57641,-3.515625 0.0145,-3.226408 4.44088,-11.938227 8.56274,-16.852819 6.67118,-7.954186 2.30199,-6.82132 -5.32294,1.380161 -5.15184,5.541391 -8.61757,13.812835 -7.55949,18.041761 0.67436,2.695243 2.86265,3.248573 3.74328,0.946522 z M 289.18346,75.9375 c 0.74825,0 1.62037,0.421875 1.93805,0.9375 0.31768,0.515625 1.0211,0.9375 1.56314,0.9375 1.21204,0 0.20301,-7.643754 -1.54694,-11.71875 -0.66429,-1.546875 -3.25278,-4.79715 -5.75219,-7.222833 -3.47237,-3.369946 -5.50297,-4.562735 -8.60796,-5.056391 l -4.06358,-0.646058 2.42806,2.435653 c 2.82326,2.832071 3.10411,5.825306 0.79256,8.446813 -1.58968,1.80283 -1.56503,1.83764 0.87889,1.241851 3.1954,-0.778984 5.42952,2.086291 5.42952,6.963418 0,1.870827 0.47136,4.757892 1.04747,6.4157 l 1.04749,3.014196 1.74252,-2.8743 c 0.95839,-1.580864 2.35472,-2.874299 3.10297,-2.874299 z m -62.70885,3.515213 c 1.46526,-1.074774 1.47571,-1.347718 0.12564,-3.28125 -2.25541,-3.230104 -4.17033,-2.691816 -4.17033,1.172287 0,3.50535 1.2514,4.157849 4.04469,2.108963 z M 509.82153,76.836601 C 510.53296,73.587283 509.11307,71.25 506.42766,71.25 c -2.39984,0 -2.49674,6.035799 -0.11922,7.424907 2.4727,1.444719 2.83586,1.254687 3.51309,-1.838306 z m -294.6057,-2.127994 c -0.57675,-3.026441 2.05265,-5.153187 4.48624,-3.628634 2.9519,1.849249 2.22599,-0.86036 -1.35466,-5.056625 -4.41648,-5.175784 -10.88314,-7.456849 -16.85986,-5.94719 l -4.38295,1.107089 2.8245,1.723046 c 1.55346,0.947676 3.09721,2.813068 3.43055,4.145318 0.51314,2.050901 0.9889,2.33792 3.10323,1.872086 2.62832,-0.579081 5.20825,1.438045 7.47192,5.841928 1.3855,2.69545 1.80202,2.676911 1.28103,-0.05702 z M 78.117576,64.317813 C 77.575624,61.419938 76.951891,60.837806 72.631558,59.197702 56.293061,52.995207 50.166892,50.503886 45.820147,48.29434 43.133668,46.928744 40.70461,46.043191 40.422239,46.326443 c -1.46718,1.471766 8.700282,8.395274 19.390849,13.204152 6.425234,2.890227 13.154206,6.038467 14.953271,6.996089 1.799066,0.957622 3.426652,1.588043 3.616859,1.400937 0.190207,-0.187106 0.07066,-1.81152 -0.265642,-3.609808 z m 70.892934,-9.844465 5.26614,-3.1829 -2.04185,-2.180242 c -1.70573,-1.821341 -1.84349,-2.419983 -0.83691,-3.636629 1.79607,-2.170903 0.45228,-2.780096 -3.50741,-1.590037 -2.40956,0.724176 -4.63167,2.47584 -7.02894,5.54083 -7.11135,9.09211 -10.02041,12.582188 -10.02041,12.021776 0,-0.316038 0.66709,-1.595907 1.48243,-2.844153 0.84063,-1.286991 1.16774,-2.794724 0.75554,-3.482641 C 132.67932,54.452146 128.28672,48 123.31777,40.78125 118.34883,33.5625 113.37412,25.863281 112.26287,23.671875 111.1516,21.480469 109.82541,19.6875 109.31576,19.6875 c -1.33929,0 -0.0563,7.493627 1.76556,10.3125 0.83315,1.289062 5.30452,9.101197 9.93638,17.360298 4.63186,8.2591 8.84212,14.994151 9.35614,14.966779 0.51402,-0.02737 1.88084,-0.577006 3.03738,-1.221407 2.72092,-1.516037 5.82402,0.01937 5.88464,2.91169 0.033,1.573117 0.57735,1.053853 2.24601,-2.14236 1.5926,-3.050528 3.66076,-5.100133 7.46864,-7.401652 z m 54.87277,3.787259 C 204.22002,57.92821 203.06442,50.273437 201.31528,41.25 199.56615,32.226562 198.1341,22.628906 198.13295,19.921875 198.13201,17.214844 197.7441,15 197.27139,15 c -1.05262,0 -4.14086,9.022614 -3.46416,10.12094 0.36102,0.585989 3.38904,31.439058 3.38904,34.531704 0,0.634098 5.87297,-0.588479 6.68701,-1.392037 z M 347.58316,35.625 c 3.96603,-10.570313 7.95067,-20.629049 8.85479,-22.352747 2.04672,-3.9021222 1.30238,-4.8107968 -1.94717,-2.377075 -1.57439,1.179119 -5.855,8.557631 -11.65717,20.093468 -5.04304,10.026557 -9.17357,18.489617 -9.17895,18.806799 -0.0249,1.465672 4.09074,5.583002 5.32877,5.330998 0.86443,-0.175959 4.11138,-7.53901 8.59973,-19.501443 z m -54.17262,8.149491 c 5.9373,-5.830281 12.45391,-11.935807 14.48136,-13.567836 2.02745,-1.632029 3.45379,-3.200527 3.16965,-3.485551 -1.36816,-1.372437 -10.50969,4.222755 -21.22268,12.989618 -6.52105,5.336427 -12.7994,10.291629 -13.95188,11.011561 -2.04571,1.277908 -2.00071,1.33459 1.89664,2.388803 2.19565,0.59391 4.18103,1.121254 4.41196,1.171875 0.23092,0.05062 5.27765,-4.678191 11.21495,-10.50847 z M 174.06543,37.193449 c 2.80603,-0.0065 3.17102,-0.59065 1.4486,-2.318449 -1.91764,-1.923633 -4.19166,-1.281346 -12.61309,3.5625 -4.48228,2.578125 -8.3815,4.6875 -8.66494,4.6875 -0.28344,0 -1.06122,0.876808 -1.72838,1.948463 -0.91355,1.467378 -0.9503,2.266044 -0.14889,3.234709 0.8714,1.053251 2.70102,0.163609 10.10038,-4.911264 5.719,-3.922384 9.97971,-6.199694 11.60632,-6.203459 z m -16.9791,3.547875 C 159.69349,39.388897 160.06784,37.5 157.72872,37.5 c -1.26138,0 -4.45768,2.793054 -4.45768,3.895301 0,1.108206 0.6246,1.001141 3.81529,-0.653977 z m -75.113229,-1.17916 c 0.622586,-0.396893 1.807086,-2.342443 2.632224,-4.323445 C 86.339977,31.074138 95.852529,17.168062 97.297118,16.685029 98.368576,16.326758 97.446894,11.25 96.310389,11.25 c -0.375795,0 -1.13143,0.986719 -1.679206,2.192708 -0.547776,1.205989 -4.400326,6.939507 -8.561228,12.741149 -7.275147,10.143904 -8.301435,12.140186 -6.942224,13.503643 0.796849,0.799339 1.439269,0.771042 2.84537,-0.125336 z M 79.510143,28.931563 C 78.329228,27.972328 76.568495,27.1875 75.597403,27.1875 c -1.439192,0 -1.765623,0.69889 -1.765623,3.78021 0,3.060301 0.400462,3.931201 2.102804,4.573057 1.74602,0.658322 2.409897,0.312848 3.91274,-2.036147 l 1.809936,-2.828994 -2.147117,-1.744063 z m 6.889127,-5.574135 c -0.300912,-0.488407 -0.945473,-0.641043 -1.432359,-0.339191 -0.486886,0.301852 -0.639045,0.948428 -0.338134,1.436835 0.300912,0.488407 0.945474,0.641043 1.432359,0.339191 0.486886,-0.301852 0.639046,-0.948428 0.338134,-1.436835 z"
       id="path3376"
       inkscape:connector-curvature="0" />
  </g>
</svg>
