<?xml version="1.0" encoding="UTF-8" standalone="no"?>
<!-- Created with Inkscape (http://www.inkscape.org/) -->

<svg
   xmlns:dc="http://purl.org/dc/elements/1.1/"
   xmlns:cc="http://creativecommons.org/ns#"
   xmlns:rdf="http://www.w3.org/1999/02/22-rdf-syntax-ns#"
   xmlns:svg="http://www.w3.org/2000/svg"
   xmlns="http://www.w3.org/2000/svg"
   xmlns:sodipodi="http://sodipodi.sourceforge.net/DTD/sodipodi-0.dtd"
   xmlns:inkscape="http://www.inkscape.org/namespaces/inkscape"
   id="svg3336"
   version="1.1"
   inkscape:version="0.91 r13725"
   width="434.57944"
   height="210"
   viewBox="0 0 434.57944 210"
   sodipodi:docname="bb730100.svg">
  <metadata
     id="metadata3342">
    <rdf:RDF>
      <cc:Work
         rdf:about="">
        <dc:format>image/svg+xml</dc:format>
        <dc:type
           rdf:resource="http://purl.org/dc/dcmitype/StillImage" />
        <dc:title></dc:title>
      </cc:Work>
    </rdf:RDF>
  </metadata>
  <defs
     id="defs3340" />
  <sodipodi:namedview
     pagecolor="#ffffff"
     bordercolor="#666666"
     borderopacity="1"
     objecttolerance="10"
     gridtolerance="10"
     guidetolerance="10"
     inkscape:pageopacity="0"
     inkscape:pageshadow="2"
     inkscape:window-width="1709"
     inkscape:window-height="960"
     id="namedview3338"
     showgrid="false"
     inkscape:zoom="1.4381721"
     inkscape:cx="153.32969"
     inkscape:cy="104.09857"
     inkscape:window-x="0"
     inkscape:window-y="0"
     inkscape:window-maximized="0"
     inkscape:current-layer="svg3336" />
  <g
     id="g3346"
     transform="translate(-0.45752389,4.6620944)">
    <path
       style="fill:#fefefe"
       d="m 29.639494,129.73212 c -0.367143,-0.3683 -0.667531,-1.86493 -0.667531,-3.32587 0,-2.52861 0.204933,-2.65625 4.26482,-2.65625 4.248614,0 4.263709,0.0115 3.971963,3.04688 -0.263777,2.74431 -0.620992,3.07457 -3.597289,3.32586 -1.817437,0.15345 -3.60482,-0.0223 -3.971963,-0.39062 z m 71.962616,0 c -0.36714,-0.3683 -0.66753,-1.86493 -0.66753,-3.32587 0,-2.52861 0.20493,-2.65625 4.26482,-2.65625 4.24861,0 4.26371,0.0115 3.97196,3.04688 -0.26377,2.74431 -0.62099,3.07457 -3.59729,3.32586 -1.81743,0.15345 -3.60482,-0.0223 -3.97196,-0.39062 z m 52.33645,0 c -0.36714,-0.3683 -0.66753,-1.86493 -0.66753,-3.32587 0,-2.52861 0.20493,-2.65625 4.26482,-2.65625 4.24861,0 4.26371,0.0115 3.97196,3.04688 -0.26377,2.74431 -0.62099,3.07457 -3.59729,3.32586 -1.81744,0.15345 -3.60482,-0.0223 -3.97196,-0.39062 z m 83.17757,0 c -0.36714,-0.3683 -0.66753,-1.86493 -0.66753,-3.32587 0,-2.52861 0.20493,-2.65625 4.26482,-2.65625 4.24861,0 4.26371,0.0115 3.97196,3.04688 -0.26377,2.74431 -0.62099,3.07457 -3.59729,3.32586 -1.81744,0.15345 -3.60482,-0.0223 -3.97196,-0.39062 z m 71.02804,0 c -0.36714,-0.3683 -0.66753,-1.86493 -0.66753,-3.32587 0,-2.52861 0.20493,-2.65625 4.26482,-2.65625 4.24861,0 4.26371,0.0115 3.97196,3.04688 -0.26377,2.74431 -0.62099,3.07457 -3.59729,3.32586 -1.81744,0.15345 -3.60482,-0.0223 -3.97196,-0.39062 z m 56.07477,0 c -0.36714,-0.3683 -0.66754,-1.86493 -0.66754,-3.32587 0,-2.52861 0.20494,-2.65625 4.26482,-2.65625 4.24861,0 4.26372,0.0115 3.97197,3.04688 -0.26378,2.74431 -0.62099,3.07457 -3.59729,3.32586 -1.81744,0.15345 -3.60482,-0.0223 -3.97196,-0.39062 z m -256.0917,-8.36424 -1.68584,-2.32319 3.32136,1.58879 c 3.56273,1.70425 4.34403,3.13494 1.68584,3.08706 -0.89953,-0.0162 -2.39414,-1.0749 -3.32136,-2.35266 z m -81.572401,-0.8878 c -0.53735,-2.14767 0.417468,-11.22886 2.508212,-23.855386 0.46392,-2.801728 0.843491,-7.779712 0.843491,-11.062181 0,-7.315794 1.866998,-11.500013 5.131305,-11.500013 3.007404,0 4.454756,2.864438 3.677837,7.278763 -0.33904,1.926368 -2.249515,10.221263 -4.245499,18.433103 -1.995985,8.211834 -3.629063,15.905394 -3.629063,17.096794 0,1.58949 0.870822,2.53117 3.271028,3.53717 1.799065,0.75405 3.271028,1.60346 3.271028,1.88758 0,0.28413 -2.305072,0.51659 -5.122382,0.51659 -4.677807,0 -5.17303,-0.20243 -5.705957,-2.33242 z m 75.314321,-0.0284 c 0,-1.29843 2.14532,-6.64919 4.76738,-11.89059 3.84003,-7.67606 4.66746,-10.147461 4.25371,-12.705092 -0.78623,-4.860094 0.72573,-7.919532 3.73556,-7.55889 5.30139,0.635216 5.0252,2.567975 -2.44505,17.110822 -6.85096,13.3372 -6.93212,13.57788 -5.21952,15.47621 1.72555,1.91267 1.71196,1.92832 -1.6762,1.92832 -3.02712,0 -3.41588,-0.26868 -3.41588,-2.36078 z m 51.89277,-4.90484 c 1.01179,-12.92302 2.33446,-24.823525 2.85243,-25.664245 0.99718,-1.618513 3.25943,-0.774714 4.34792,1.621739 0.92155,2.028901 0.82194,2.940576 -0.58898,5.390629 -1.01639,1.764956 -2.11238,6.662827 -2.73005,12.200337 -1.00707,9.02869 -0.98211,9.29206 1.03624,10.93152 2.88701,2.34507 2.61671,2.78564 -1.70912,2.78564 l -3.77729,0 0.56885,-7.26562 z m 155.75256,4.15896 -3.00172,-3.10667 1.8838,-9.18403 c 1.13502,-5.53351 1.8838,-12.822871 1.8838,-18.338652 0,-14.719071 1.32495,-17.753378 6.31884,-14.471032 2.25001,1.478878 2.29819,1.740802 1.66321,9.042786 -0.35965,4.135886 -2.05657,13.254149 -3.77091,20.262818 -3.1048,12.6931 -3.11,12.75288 -1.32762,15.26382 2.10941,2.97167 2.21392,3.63762 0.57085,3.63762 -0.6702,0 -2.56931,-1.398 -4.22025,-3.10666 z m 56.55693,0.48637 -2.50258,-2.6203 1.38351,-6.52033 c 0.76091,-3.58618 1.84353,-12.637518 2.40581,-20.11408 1.05732,-14.059264 1.98904,-16.875 5.5839,-16.875 1.76003,0 2.75168,1.78861 2.77131,4.99855 0.007,1.117985 -1.74303,10.159868 -3.88859,20.093075 l -3.90102,18.060365 2.01943,2.15631 c 2.46299,2.62992 2.53967,3.4417 0.32512,3.4417 -0.93187,0 -2.82047,-1.17913 -4.19689,-2.62029 z M 234.66823,116.0045 c -1.75023,-3.21654 -5.43014,-9.28827 -8.17757,-13.49274 -5.21132,-7.975029 -5.82295,-10.080523 -3.75312,-12.920024 1.01411,-1.391222 1.60311,-1.510378 3.20773,-0.648929 2.18323,1.172077 3.49492,4.226267 2.50507,5.832884 -0.86515,1.404215 3.3647,10.310579 4.54827,9.576809 0.51555,-0.31963 0.64661,-0.11154 0.29212,0.46382 -1.08833,1.76647 5.72724,14.2032 8.32699,15.19471 3.15527,1.20339 2.89421,1.86612 -0.72987,1.85284 -2.75834,-0.0101 -3.32973,-0.54839 -6.21962,-5.85937 z m 7.70589,2.53716 c -1.13342,-2.96287 0.69194,-10.04388 4.26001,-16.52559 l 3.67009,-6.667051 -5.05865,-9.85191 c -2.78226,-5.418551 -5.05865,-10.789175 -5.05865,-11.934718 0,-2.80598 2.12323,-4.394443 4.92948,-3.687916 1.79229,0.451241 3.13608,2.387807 6.04545,8.712242 2.0575,4.472619 4.24006,9.952775 4.85015,12.178126 1.10534,4.031857 1.09095,4.074419 -4.08689,12.092587 -2.85788,4.42556 -5.19848,8.51107 -5.20135,9.0789 -0.003,0.56783 -0.4432,2.61445 -0.97851,4.54805 -1.01818,3.67775 -2.42322,4.53521 -3.37113,2.05728 z m -140.99513,-6.32059 c -0.368,-1.9581 -0.41312,-5.166 -0.10025,-7.12867 0.33432,-2.09727 -0.37076,-9.31305 -1.710207,-17.502194 C 98.315056,79.92666 97.47971,73.465669 97.712206,73.232448 97.944701,72.999227 97.576804,72.141361 96.894654,71.32608 96.212514,70.510798 91.727528,63.515625 86.928024,55.78125 82.12852,48.046875 76.08653,39.514343 73.501381,36.820069 c -2.58515,-2.694275 -4.408271,-5.191595 -4.051379,-5.549602 0.356891,-0.358006 2.808439,0.363718 5.447884,1.603831 4.054283,1.904859 6.338058,4.195476 14.716909,14.760999 12.304315,15.515444 15.058105,19.581667 15.058105,22.234737 0,2.719612 -2.2129,4.50693 -4.62805,3.737995 -1.271691,-0.404881 -1.90656,-0.194914 -1.891822,0.62567 0.03729,2.075524 4.203842,11.566072 6.494462,14.793002 2.00161,2.819795 2.11705,3.659601 1.56855,11.411099 -0.38198,5.39818 -1.22652,9.60501 -2.38001,11.85536 l -1.78794,3.48809 -0.6691,-3.56018 z m -34.000491,-1.13403 c -4.426088,-1.38426 -8.368207,-4.8862 -20.788854,-18.467516 l -7.464215,-8.161726 0.646455,-4.324341 0.646455,-4.324342 2.7756,2.642317 c 1.526582,1.453275 7.557106,8.126693 13.401168,14.829818 5.84406,6.703125 12.113063,13.36564 13.931116,14.80559 5.434124,4.30399 4.343833,5.34318 -3.147725,3.0002 z m 91.512761,-5.85266 c 0.007,-0.90235 0.27075,-2.60671 0.58607,-3.78749 0.54339,-2.03484 0.66462,-2.06394 2.32369,-0.55782 0.96271,0.87397 1.75038,2.57833 1.75038,3.78748 0,1.72002 -0.50847,2.19845 -2.33645,2.19845 -1.607,0 -2.33246,-0.51221 -2.32369,-1.64062 z m 60.84636,-1.50593 c -1.87707,-2.26879 -2.26269,-6.701531 -0.69642,-8.005472 1.2278,-1.022175 1.72422,-0.743184 3.29869,1.853916 1.33682,2.205084 1.60624,3.520386 0.96667,4.719166 -1.28592,2.4103 -2.39247,2.8544 -3.56894,1.43239 z m -17.68235,-5.858316 c -1.6967,-0.743559 -7.58455,-5.400065 -13.08411,-10.3478 C 183.47161,82.5746 177.18458,77.747994 175,76.796543 c -4.13797,-1.802214 -4.96869,-3.801586 -3.06335,-7.372879 2.28933,-4.291016 3.67842,-3.395251 19.8349,12.790688 8.6378,8.653542 15.70509,16.054773 15.70509,16.447182 0,1.031204 -1.89293,0.754885 -5.42137,-0.7914 z m -82.01132,-1.362515 c -2.28135,-2.528738 -0.85186,-4.992086 3.12855,-5.391207 2.4213,-0.242789 3.13285,0.1802 4.38319,2.605656 0.82096,1.592526 1.24038,3.304982 0.93202,3.805466 -1.03368,1.67775 -6.61862,1.003153 -8.44376,-1.019915 z M 376.9276,77.307697 c 0.30941,-1.912634 0.73999,-3.655495 0.95684,-3.873027 0.21685,-0.217531 6.31162,-2.67855 13.54393,-5.468929 7.23229,-2.79038 15.3156,-6.17443 17.96291,-7.520111 2.6473,-1.34568 5.0443,-2.214939 5.32667,-1.931687 1.29613,1.300173 -8.4719,8.301045 -16.58711,11.888202 -4.88318,2.158506 -11.77815,5.377721 -15.32216,7.153811 l -6.44365,3.229254 0.56257,-3.477513 z m -59.12047,-5.507589 c -1.17694,-1.9103 -1.7473,-3.834991 -1.33864,-4.517386 0.3916,-0.653934 4.77751,-7.095222 9.74645,-14.313972 4.96895,-7.21875 9.94366,-14.917969 11.05491,-17.109375 1.11126,-2.191406 2.43746,-3.984375 2.9471,-3.984375 1.33929,0 0.0564,7.493627 -1.76556,10.3125 -0.83315,1.289062 -5.35754,9.228136 -10.0542,17.642385 l -8.5394,15.298636 -2.05066,-3.328413 z m -75.0832,-5.077378 c -3.38045,-1.09416 -4.33447,-1.805407 -3.90767,-2.913275 0.78694,-2.042678 2.07983,-19.158884 2.85482,-37.79383 0.35917,-8.636719 0.97376,-15.703125 1.36574,-15.703125 0.39199,0 1.42153,2.003906 2.28787,4.453125 1.26198,3.567755 1.67715,9.34596 2.08814,29.0625 0.28215,13.535156 0.34884,24.549255 0.14821,24.475775 -0.20063,-0.07348 -2.37733,-0.785007 -4.83711,-1.58117 z M 150.47022,52.034188 c -7.91987,-7.957045 -14.15669,-14.711201 -13.85957,-15.009236 0.2971,-0.298036 2.80041,0.478411 5.5629,1.725436 3.30803,1.493288 9.28217,6.147557 17.49967,13.633465 6.86234,6.25138 12.96047,11.402409 13.55141,11.446728 1.06938,0.0802 -1.44486,0.955459 -5.97655,2.080549 -2.11039,0.52395 -3.9991,-1.0382 -16.77786,-13.876942 z m 136.44567,3.493668 c -5.63839,-3.900072 -9.81643,-6.143376 -11.4486,-6.147057 -2.80602,-0.0064 -3.17103,-0.590485 -1.4486,-2.318299 1.91764,-1.923633 4.19167,-1.281346 12.61309,3.5625 4.48228,2.578125 8.3815,4.6875 8.66494,4.6875 0.28344,0 1.07391,0.897198 1.7566,1.993774 1.03299,1.65925 1.0315,2.192518 -0.008,3.178307 -1.01964,0.966169 -2.88681,0.05242 -10.12859,-4.956725 z m 5.3461,-2.641157 c -2.53377,-1.378386 -2.70202,-3.199199 -0.29561,-3.199199 1.21951,0 4.2953,2.906004 4.2953,4.058195 0,0.947126 -1.12299,0.705947 -3.99969,-0.858996 z M 36.111959,52.243012 C 34.943612,51.386027 34.695093,50.495906 35.232398,49.092704 35.950052,47.218509 55.26086,28.125 56.438729,28.125 c 1.907618,0 -0.296986,3.365588 -6.40376,9.776097 -4.247576,4.45884 -7.585785,8.927217 -8.538185,11.428834 -1.64157,4.311823 -2.698428,4.883561 -5.384825,2.913081 z M 373.16709,51.74878 c -0.62258,-0.396407 -1.80709,-2.341559 -2.63222,-4.322561 -1.73465,-4.164581 -11.24721,-18.070657 -12.69179,-18.55369 -1.07146,-0.358271 -0.14978,-5.435029 0.98672,-5.435029 0.3758,0 1.13143,0.986719 1.67921,2.192708 0.54778,1.205989 4.41887,6.965357 8.60243,12.798595 4.18356,5.833237 7.48279,11.245153 7.33163,12.02648 -0.33227,1.71742 -1.73827,2.27257 -3.27598,1.293497 z m 2.07299,-6.052813 c -1.6738,-2.842374 -1.66807,-2.905198 0.42006,-4.601344 1.16437,-0.945793 2.93574,-1.719623 3.93638,-1.719623 2.72123,0 2.1,7.44986 -0.70744,8.483787 -1.56806,0.577491 -2.28583,0.152061 -3.649,-2.16282 z M 37.383178,42.83488 c 0,-1.887438 2.384961,-3.678264 4.384226,-3.292038 1.35472,0.261711 1.098352,0.731195 -1.356972,2.485004 -2.269302,1.620934 -3.027254,1.822996 -3.027254,0.807034 z"
       id="path3354"
       inkscape:connector-curvature="0" />
    <path
       style="fill:#007f7f"
       d="m 161.49207,90.942262 c -1.58502,-2.804829 -3.85012,-3.664995 -4.95001,-1.879762 -0.31769,0.515625 -1.0211,0.9375 -1.56314,0.9375 -1.21204,0 -0.20301,-7.643754 1.54694,-11.71875 0.66429,-1.546875 3.25278,-4.79715 5.75219,-7.222833 3.47237,-3.369946 5.50297,-4.562735 8.60796,-5.056391 l 4.06358,-0.646058 -2.42807,2.435653 c -2.82325,2.832071 -3.1041,5.825306 -0.79255,8.446813 1.58968,1.80283 1.56503,1.83764 -0.87889,1.241851 -3.26089,-0.794948 -5.4131,2.091235 -5.47167,7.337689 -0.0232,2.076677 -0.54889,4.938075 -1.16822,6.358663 l -1.12608,2.582888 -1.59204,-2.817263 z m -55.29488,-1.166676 c -2.31119,-3.039595 -5.31016,-9.194423 -6.62561,-13.597812 -0.500982,-1.677005 -0.324711,-1.986582 0.8694,-1.526924 1.88497,0.725589 5.1665,-2.161373 5.1665,-4.545283 0,-0.985233 -0.44431,-2.712816 -0.98735,-3.839074 -0.92882,-1.926352 -0.87342,-1.916542 0.93458,0.165492 1.05706,1.217279 1.92193,3.024273 1.92193,4.015541 0,3.141887 4.52551,10.906784 7.83037,13.435406 1.7516,1.340185 3.41073,3.303615 3.68694,4.363178 0.47407,1.818482 0.40541,1.838585 -1.22487,0.358598 -2.27365,-2.064059 -5.77561,-1.482649 -7.09245,1.17752 -1.65565,3.344587 -1.93161,3.344178 -4.47944,-0.0067 z m 122.77477,1.371026 c 0,-0.606863 -1.10571,-1.830143 -2.45714,-2.7184 -2.37978,-1.564165 -2.51219,-1.546817 -4.2056,0.550998 l -1.74847,2.16601 0.0441,-3.150735 c 0.08,-5.71573 4.46345,-12.476314 11.17086,-17.228723 5.3123,-3.763932 6.48533,-4.228249 9.34579,-3.699337 1.79907,0.332653 3.90187,0.993965 4.6729,1.469579 0.99415,0.613249 0.71044,0.709233 -0.97547,0.330023 -3.35391,-0.754394 -6.00287,2.305089 -5.25285,6.06692 0.44596,2.236772 0.27637,2.688107 -0.84749,2.255491 -2.25646,-0.868589 -4.94703,2.382787 -6.64689,8.032324 -1.55857,5.179873 -3.09975,8.1262 -3.09975,5.92585 z m 79.04471,-16.903475 c -1.35968,-3.038889 -3.12642,-4.838487 -7.26712,-7.402256 l -5.4707,-3.387262 2.03046,-2.168077 c 1.6959,-1.810845 1.83192,-2.408045 0.82552,-3.624465 -1.79694,-2.17196 -0.45018,-2.781102 3.49466,-1.580626 3.4561,1.051747 5.82869,3.540041 15.18869,15.929379 l 3.26678,4.324064 -2.92103,-2.166364 c -2.37119,-1.758571 -3.2817,-1.972739 -4.83702,-1.137752 -1.0538,0.565736 -2.05051,1.973553 -2.21491,3.128481 -0.24809,1.742875 -0.60432,1.417288 -2.09533,-1.915122 z M 29.906542,75.816981 c 0,-0.811371 1.051402,-3.458815 2.336449,-5.883208 1.849564,-3.489423 2.336448,-5.77206 2.336448,-10.953865 0,-6.181207 0.100708,-6.491811 1.807719,-5.575393 2.859911,1.535362 3.80494,1.173389 5.118557,-1.960549 1.295615,-3.090988 1.78389,-2.872462 2.761795,1.236033 0.515084,2.16403 -0.132694,5.926346 -3.659303,21.25336 -0.47397,2.05992 -0.625858,2.109033 -2.17453,0.703125 -2.339147,-2.123514 -5.360735,-1.879081 -7.072271,0.572115 -1.066495,1.527393 -1.454864,1.689797 -1.454864,0.608382 z M 368.63259,74.53125 c 0.39889,-1.03125 0.94942,-6.621094 1.22341,-12.421875 0.274,-5.800781 0.67744,-10.546875 0.89654,-10.546875 0.21911,0 1.28882,0.478035 2.37712,1.0623 1.64975,0.88568 2.24532,0.732065 3.58208,-0.923925 1.36416,-1.68992 1.6872,-1.767027 2.16543,-0.516875 0.92382,2.414969 0.64293,7.872277 -0.83979,16.316 -0.76962,4.382812 -1.41267,8.179687 -1.42901,8.4375 -0.0163,0.257812 -0.45836,-0.269531 -0.98229,-1.171875 -0.52393,-0.902344 -1.63457,-1.640625 -2.46809,-1.640625 -0.83351,0 -2.3559,0.738281 -3.38305,1.640625 -1.79539,1.577204 -1.83955,1.568144 -1.14235,-0.234375 z"
       id="path3350"
       inkscape:connector-curvature="0" />
    <path
       style="fill:#000000"
       d="m 20.327103,190.54969 11.448598,-0.2949 0,-29.5024 c 0,-24.59228 -0.216673,-29.50239 -1.301879,-29.50239 -1.434899,0 -2.436439,-1.97196 -2.436439,-4.79716 0,-1.00722 -0.701112,-2.90468 -1.558027,-4.21659 -1.397013,-2.13878 -1.437704,-3.32222 -0.39374,-11.45139 0.640358,-4.98636 1.55175,-11.358438 2.025317,-14.160166 0.473566,-2.801728 0.86103,-8.961553 0.86103,-13.688494 0,-7.366938 0.333703,-9.22401 2.336448,-13.002427 1.920191,-3.622668 2.348152,-5.777092 2.402136,-12.092756 0.03613,-4.226622 0.3955,-8.528517 0.798604,-9.559767 0.461546,-1.180762 0.236149,-2.638043 -0.608752,-3.935827 -0.737918,-1.133455 -1.213672,-3.551121 -1.057233,-5.372592 0.425028,-4.948697 -1.321138,-4.45762 -3.096797,0.870919 -1.13744,3.41332 -1.732194,4.252047 -2.188003,3.085538 -0.763026,-1.952739 1.00877,-7.675178 2.85137,-9.209179 0.761204,-0.633717 2.055248,-0.814822 2.989577,-0.418398 0.906079,0.384437 3.194524,0.612484 5.085436,0.506771 2.370155,-0.132506 3.966719,0.370536 5.140187,1.619559 1.671274,1.778883 1.79801,1.718498 6.983169,-3.327268 4.933019,-4.800405 7.33582,-5.64449 7.33582,-2.577016 0,0.708455 -2.729132,4.066492 -6.064738,7.462304 -7.530955,7.666884 -9.422263,10.437586 -8.193372,12.003007 2.052479,2.614546 2.004417,6.54162 -0.199565,16.306449 L 41.190088,75.46875 46.121537,80.625 c 2.712297,2.835937 8.023047,8.742187 11.801667,13.125 3.77862,4.382812 9.219269,10.14943 12.09033,12.81471 3.967211,3.68286 4.962147,5.1117 4.145323,5.95314 -0.825389,0.85028 -2.27138,0.75825 -6.231525,-0.3966 -4.723893,-1.37756 -6.143056,-2.5403 -16.9073,-13.852359 -6.462809,-6.79172 -11.909969,-12.16893 -12.104801,-11.94936 -0.639442,0.720634 -7.140341,28.478669 -7.119461,30.399219 0.0129,1.18653 1.128231,2.39135 3.03754,3.28125 2.205954,1.02816 3.099596,2.12987 3.323776,4.09765 0.437371,3.83911 -0.578779,7.15235 -2.193583,7.15235 -1.193073,0 -1.384064,4.0751 -1.384064,29.53125 l 0,29.53125 34.57944,0 34.579441,0 0,-29.53125 c 0,-24.61695 -0.21665,-29.53125 -1.30188,-29.53125 -1.94269,0 -2.08009,-1.14767 -1.90812,-15.9375 0.12109,-10.41452 -0.38153,-17.091253 -2.149133,-28.548365 L 96.071991,71.80952 86.674687,56.764135 C 81.506172,48.489173 75.152979,39.507268 72.55648,36.804346 68.855377,32.951547 68.080571,31.644177 68.96973,30.75224 c 0.88916,-0.891939 2.22425,-0.601403 6.180435,1.344955 4.317503,2.124119 6.510013,4.345181 15.181701,15.379407 5.57448,7.093211 11.922804,14.673552 14.107384,16.845202 2.18893,2.175971 3.97197,4.841679 3.97197,5.93824 0,3.402233 4.30144,10.696451 8.12163,13.772327 3.21979,2.592453 3.8545,2.788416 5.38808,1.663526 1.10608,-0.811314 3.79668,-1.198177 7.39739,-1.063621 5.0109,0.187254 5.81469,0.489907 7.01818,2.642577 0.81958,1.465996 1.07742,3.140769 0.64947,4.21875 -0.60822,1.532111 -0.86434,1.328672 -1.79175,-1.423188 -1.70353,-5.054878 -3.22343,-4.648108 -2.70875,0.724944 0.36502,3.810663 0.0982,4.956691 -1.53586,6.595816 -2.64404,2.652305 -8.51358,2.705415 -10.8656,0.09835 -1.674,-1.855528 -1.7871,-1.725225 -7.12044,8.203125 -2.98067,5.54873 -5.43461,10.74874 -5.45318,11.55559 -0.0186,0.80684 1.43821,2.17111 3.23727,3.03171 3.65711,1.7494 4.21582,3.39775 1.40187,4.13591 -1.02803,0.26968 -1.86916,1.25036 -1.86916,2.1793 0,2.69164 -1.02758,4.65484 -2.43644,4.65484 -1.08523,0 -1.30187,4.9143 -1.30187,29.53125 l 0,29.53125 24.76635,0 24.76636,0 0,-29.53125 c 0,-24.61695 -0.21665,-29.53125 -1.30188,-29.53125 -0.71604,0 -1.57079,-0.70294 -1.89944,-1.56208 -0.65527,-1.71294 0.11435,-19.25032 1.32645,-30.225351 0.48164,-4.361156 0.41712,-7.713664 -0.17349,-9.013949 -0.6483,-1.427316 -0.59038,-3.761256 0.1865,-7.515142 0.93285,-4.507579 1.94469,-6.312343 5.87789,-10.484127 l 4.75108,-5.039253 -14.86875,-14.937094 c -10.53094,-10.579354 -14.57794,-15.2288 -13.87197,-15.936978 3.33244,-3.342861 21.00456,10.877702 54.45765,43.821483 13.96698,13.754325 18.0337,18.273132 17.19878,19.110657 -1.95044,1.956534 -8.49659,-1.634644 -17.0105,-9.331849 -13.46076,-12.169519 -13.60734,-12.26497 -18.40577,-11.985314 -4.91229,0.286292 -5.93469,1.424079 -6.01402,6.692744 -0.031,2.0625 -0.67468,5.015625 -1.43027,6.5625 -0.7556,1.546875 -1.11354,1.96875 -0.79542,0.9375 0.31811,-1.03125 0.87385,-4.264584 1.23498,-7.185188 0.80901,-6.542917 2.21609,-8.481159 5.56474,-7.665372 2.39223,0.582789 2.41606,0.54666 0.82764,-1.254756 -2.31155,-2.621507 -2.0307,-5.614742 0.79255,-8.446813 l 2.42807,-2.435653 -4.06358,0.646058 c -3.10499,0.493656 -5.13559,1.686445 -8.60796,5.056391 -2.49941,2.425683 -5.0879,5.675958 -5.75219,7.222833 C 154.77591,82.356246 153.76688,90 154.97892,90 c 0.54204,0 1.24545,-0.421875 1.56314,-0.9375 1.14609,-1.860215 3.37175,-0.873425 5.25618,2.330435 1.39549,2.372562 2.93461,3.541418 5.61751,4.266106 4.17674,1.128197 6.07161,4.042059 5.11496,7.865579 -0.84831,3.39051 -2.51337,3.02907 -1.83024,-0.39729 0.33254,-1.66789 0.0866,-3.382739 -0.60509,-4.218755 -1.86605,-2.255484 -2.41171,-1.660453 -2.04215,2.226935 0.28176,2.96368 -0.0544,3.91655 -1.81876,5.15625 -1.19041,0.83641 -3.2875,1.52074 -4.66019,1.52074 -2.91375,0 -3.63035,1.39654 -3.63035,7.07494 0,3.11948 0.44046,4.34556 1.82894,5.09097 3.28379,1.76292 3.65879,11.27159 0.44452,11.27159 -1.13379,0 -1.33889,4.52362 -1.33889,29.53125 l 0,29.53125 40.18692,0 40.18692,0 0,-29.53125 c 0,-25.45615 -0.19099,-29.53125 -1.38407,-29.53125 -1.7478,0 -2.72751,-3.77867 -2.00691,-7.74053 0.42417,-2.33209 -0.0813,-4.12217 -2.16891,-7.6812 -2.68452,-4.57666 -2.73067,-4.60568 -3.35525,-2.10938 -0.91552,3.65909 -2.58583,3.18164 -1.80436,-0.51577 0.84286,-3.9879 0.84129,-3.74342 0.0357,-5.5846 -0.52336,-1.19607 -1.39718,-1.4604 -3.45985,-1.04657 -5.54963,1.1134 -10.38864,-7.079481 -6.6494,-11.25805 1.36967,-1.5306 1.7175,-2.981788 1.40822,-5.875438 -0.68878,-6.444365 3.75214,-13.961528 11.30683,-19.139142 5.70946,-3.912991 6.20274,-4.531676 7.09052,-8.89307 0.52479,-2.578125 1.48736,-15.234375 2.13906,-28.125 0.98314,-19.446773 1.41861,-23.4375 2.5575,-23.4375 0.78383,0 2.14553,2.0107 3.1745,4.6875 1.58598,4.125864 1.84565,7.815781 2.16725,30.796634 l 0.36538,26.109135 3.11473,6.234615 c 1.7131,3.429039 3.82449,8.704107 4.69196,11.722374 l 1.57723,5.487761 -4.78942,7.317961 c -5.21427,7.96713 -7.82332,15.21937 -7.58424,21.08152 0.20924,5.13026 -0.58817,7.96875 -2.23864,7.96875 -1.1931,0 -1.38409,4.0751 -1.38409,29.53125 l 0,29.53125 34.11214,0 34.11215,0 0,-29.53125 c 0,-25.45615 -0.19099,-29.53125 -1.38406,-29.53125 -1.49702,0 -2.71994,-3.4862 -2.19382,-6.25398 0.18216,-0.95833 1.29645,-1.85312 2.52598,-2.02838 2.19744,-0.31325 2.19659,-0.31718 -0.72512,-3.34104 l -2.92516,-3.02743 1.8838,-9.18403 c 1.17852,-5.74563 1.8838,-12.821418 1.8838,-18.89951 0,-12.157708 -1.7521,-16.502573 -8.27921,-20.530852 -2.38568,-1.472349 -5.26059,-3.50097 -6.38867,-4.508047 -1.47131,-1.313488 -2.75138,-1.654733 -4.52865,-1.207272 -1.36267,0.343078 -2.96305,0.232322 -3.55641,-0.246123 -1.87515,-1.512001 -4.98189,0.443542 -5.5957,3.522226 -0.31712,1.590566 -1.036,2.891938 -1.59751,2.891938 -0.56151,0 -0.80228,-0.738281 -0.53504,-1.640625 0.26724,-0.902344 0.76174,-2.800781 1.09888,-4.21875 C 280.33765,61.004385 281.20212,60 282.18245,60 c 1.24321,0 1.51546,-0.618658 1.20524,-2.738895 -0.52179,-3.566317 -4.0335,-6.812654 -7.56214,-6.990673 -3.7914,-0.191276 -4.488,-1.148694 -2.46625,-3.389684 2.18588,-2.422915 4.58975,-2.378139 8.68666,0.161805 2.25359,1.397147 4.54097,1.977836 7.23898,1.83774 3.30822,-0.171782 4.3019,0.220122 6.16147,2.430067 1.21943,1.449185 3.93367,3.14909 6.03164,3.777567 2.92953,0.877585 4.82648,2.44992 8.17659,6.777379 2.39915,3.099082 4.67796,5.625488 5.06401,5.614235 0.873,-0.02544 18.54513,-25.833019 21.73365,-31.738839 1.28707,-2.383949 2.96932,-4.334452 3.73832,-4.334452 2.15419,0 1.25903,7.732878 -1.35658,11.71875 -1.18427,1.804688 -5.9364,10.086386 -10.56029,18.403776 -7.99543,14.382055 -8.44078,15.483195 -9.09517,22.488404 -0.37845,4.051232 -2.07891,13.051851 -3.77879,20.00138 -3.04236,12.43783 -3.06369,12.67357 -1.36346,15.06878 3.29834,4.64658 3.56521,12.16266 0.43185,12.16266 -1.19308,0 -1.38407,4.0751 -1.38407,29.53125 l 0,29.53125 26.63552,0 26.63551,0 0,-29.53125 c 0,-25.45615 -0.19099,-29.53125 -1.38406,-29.53125 -1.49702,0 -2.71994,-3.4862 -2.19383,-6.25398 0.18182,-0.95647 1.29585,-1.85306 2.51924,-2.0275 l 2.19327,-0.31272 -2.42775,-2.54194 -2.42775,-2.54195 1.38627,-6.52033 c 0.76245,-3.58618 1.83338,-12.848455 2.37984,-20.58283 0.54646,-7.734375 1.39068,-16.354825 1.87603,-19.156555 0.48537,-2.801731 0.88248,-8.366678 0.88248,-12.366548 0,-3.999869 0.39526,-7.517539 0.87836,-7.817045 0.51719,-0.320637 0.28517,-1.968708 -0.56426,-4.008025 -1.72901,-4.151021 -9.24833,-15.108829 -11.81511,-17.217979 -1.49838,-1.23124 -1.66997,-1.984922 -0.94715,-4.160156 1.29224,-3.888847 2.75915,-3.825293 4.88954,0.211841 2.41326,4.573173 5.64172,8.612592 5.66868,7.092592 0.0287,-1.616652 2.34727,-1.472091 3.7591,0.234375 0.70732,0.854927 2.75451,1.40625 5.22174,1.40625 4.77301,0 5.99321,1.536886 5.99321,7.548662 0,3.316684 -0.56916,4.492865 -3.68811,7.621568 -3.11756,3.127301 -3.97554,3.545337 -5.54604,2.702205 -1.02186,-0.548589 -2.03719,-0.997435 -2.2563,-0.997435 -0.2191,0 -0.62254,4.746094 -0.89654,10.546875 -0.27399,5.800781 -0.82452,11.390625 -1.22341,12.421875 -0.6972,1.802519 -0.65304,1.811579 1.14235,0.234375 2.35297,-2.067041 4.64359,-2.097615 5.77085,-0.07703 0.72812,1.305154 0.96372,1.111455 1.42536,-1.171875 1.8665,-9.23192 2.63013,-16.113183 2.2065,-19.883378 -0.36744,-3.270104 -0.25148,-3.89474 0.47974,-2.584045 0.92982,1.66669 0.56503,9.953388 -0.77391,17.580624 l -0.6098,3.473676 13.15216,-5.07439 c 7.23369,-2.790915 15.32744,-6.180131 17.98611,-7.531592 3.48609,-1.772055 5.11774,-2.172524 5.85173,-1.436236 1.81944,1.825118 -7.39863,8.96716 -17.13284,13.274301 -14.76551,6.533369 -21.32919,10.092952 -21.83894,11.8436 -0.26657,0.915455 -2.04935,8.946622 -3.96174,17.84703 l -3.47707,16.18257 1.86118,2.09868 c 2.93173,3.30585 2.77516,11.94243 -0.2165,11.94243 -1.13378,0 -1.33889,4.52126 -1.33889,29.51332 l 0,29.51331 20.79439,0.27118 c 11.43692,0.14915 -69.62617,0.27694 -180.14019,0.28398 -110.514014,0.007 -195.782706,-0.11991 -189.485977,-0.2821 z m 16.881643,-63.75281 c 0.291746,-3.0353 0.276651,-3.04688 -3.971963,-3.04688 -4.059887,0 -4.26482,0.12764 -4.26482,2.65625 0,3.4965 0.690812,4.04987 4.639494,3.71649 2.976297,-0.25129 3.333512,-0.58155 3.597289,-3.32587 z m 71.962614,0 c 0.29175,-3.0353 0.27665,-3.04688 -3.97196,-3.04688 -4.05989,0 -4.26482,0.12764 -4.26482,2.65625 0,3.4965 0.69081,4.04987 4.63949,3.71649 2.9763,-0.25129 3.33352,-0.58155 3.59729,-3.32587 z m 52.33645,0 c 0.29175,-3.0353 0.27665,-3.04688 -3.97196,-3.04688 -4.05989,0 -4.26482,0.12764 -4.26482,2.65625 0,3.4965 0.69081,4.04987 4.63949,3.71649 2.9763,-0.25129 3.33352,-0.58155 3.59729,-3.32587 z m 83.17757,0 c 0.29175,-3.0353 0.27665,-3.04688 -3.97196,-3.04688 -4.05989,0 -4.26482,0.12764 -4.26482,2.65625 0,3.4965 0.69081,4.04987 4.63949,3.71649 2.9763,-0.25129 3.33352,-0.58155 3.59729,-3.32587 z m 71.02804,0 c 0.29175,-3.0353 0.27665,-3.04688 -3.97196,-3.04688 -4.05989,0 -4.26482,0.12764 -4.26482,2.65625 0,3.4965 0.69081,4.04987 4.63949,3.71649 2.9763,-0.25129 3.33352,-0.58155 3.59729,-3.32587 z m 56.07477,0 c 0.29175,-3.0353 0.27664,-3.04688 -3.97197,-3.04688 -4.05988,0 -4.26482,0.12764 -4.26482,2.65625 0,3.4965 0.69082,4.04987 4.6395,3.71649 2.9763,-0.25129 3.33351,-0.58155 3.59729,-3.32587 z m -258.70408,-3.81075 c 0,-0.42012 -1.49461,-1.47882 -3.32135,-2.35265 l -3.32136,-1.58879 1.68584,2.32319 c 1.5871,2.18711 4.95687,3.28724 4.95687,1.61825 z m -75.700932,-0.69022 c 0,-0.28412 -1.471963,-1.13353 -3.271028,-1.88758 -2.400206,-1.006 -3.271028,-1.94768 -3.271028,-3.53717 0,-1.1914 1.633078,-8.88496 3.629063,-17.096794 1.995984,-8.21184 3.906459,-16.506735 4.245499,-18.433103 0.776919,-4.414325 -0.670433,-7.278763 -3.677837,-7.278763 -3.264307,0 -5.131305,4.184219 -5.131305,11.500013 0,3.282469 -0.379571,8.260453 -0.843491,11.062181 -2.090744,12.626526 -3.045562,21.707716 -2.508212,23.855386 0.532927,2.12999 1.02815,2.33242 5.705957,2.33242 2.81731,0 5.122382,-0.23246 5.122382,-0.51659 z m 69.578062,-1.41173 c -1.71252,-1.89824 -1.63277,-2.13641 5.11216,-15.26723 3.88691,-7.566881 6.85183,-14.516941 6.85183,-16.061291 0,-2.010188 -0.89958,-3.446315 -3.43872,-5.489641 -3.54727,-2.85461 -8.00987,-10.441993 -8.00987,-13.618492 0,-0.991268 -0.86487,-2.798262 -1.92193,-4.015541 -1.808,-2.082034 -1.8634,-2.091844 -0.93458,-0.165492 0.54304,1.126258 0.98735,2.853841 0.98735,3.839074 0,2.38391 -3.28153,5.270872 -5.1665,4.545283 -1.194111,-0.459658 -1.370382,-0.150081 -0.8694,1.526924 1.19548,4.001794 4.10639,10.166524 6.17967,13.087277 2.0795,2.929496 2.4149,6.943121 1.1974,14.328699 l -0.46364,2.8125 1.85851,-3.28125 c 1.98808,-3.510009 2.51004,-7.971487 1.03929,-8.8833 -0.52805,-0.327375 -0.20926,-1.797442 0.7744,-3.570953 1.9729,-3.557112 5.67967,-4.474742 7.63472,-1.89002 1.09115,1.44258 1.08631,1.517629 -0.0333,0.516148 -3.93453,-3.519504 -7.88808,0.256032 -6.86841,6.559163 0.41375,2.557631 -0.41368,5.029032 -4.25371,12.705092 -2.62206,5.2414 -4.76738,10.59216 -4.76738,11.89059 0,2.0921 0.38876,2.36078 3.41588,2.36078 3.38816,0 3.40175,-0.0157 1.6762,-1.92832 z m 53.78642,1.37547 c 0,-0.30407 -0.93068,-1.30883 -2.06817,-2.23279 -2.01835,-1.63946 -2.04331,-1.90283 -1.03624,-10.93152 0.61767,-5.53751 1.71366,-10.435381 2.73005,-12.200337 1.41092,-2.450053 1.51053,-3.361728 0.58898,-5.390629 -1.08849,-2.396453 -3.35074,-3.240252 -4.34792,-1.621739 -0.51797,0.84072 -1.84064,12.741225 -2.85243,25.664245 l -0.56885,7.26562 3.77729,0 c 2.07751,0 3.77729,-0.24878 3.77729,-0.55285 z m 154.20561,-0.006 c 0,-0.30712 -0.80522,-1.69277 -1.78938,-3.07922 -1.78238,-2.51093 -1.77718,-2.57072 1.32762,-15.26382 1.71434,-7.008664 3.41126,-16.126927 3.77091,-20.262813 0.63498,-7.301984 0.5868,-7.563908 -1.66321,-9.042786 -4.99389,-3.282271 -6.31884,-0.247964 -6.31884,14.471107 0,5.515781 -0.74878,12.805142 -1.8838,18.338652 l -1.8838,9.18403 3.00172,3.10667 c 2.67909,2.77276 5.43878,4.06577 5.43878,2.54826 z m 57.00935,-0.0843 c 0,-0.35348 -0.90874,-1.61303 -2.01943,-2.799 l -2.01943,-2.15631 3.90102,-18.060361 c 2.14556,-9.933207 3.89542,-18.97509 3.88859,-20.093075 -0.0196,-3.209884 -1.01128,-4.998494 -2.77131,-4.998494 -3.59486,0 -4.52658,2.815736 -5.5839,16.875 -0.56228,7.476562 -1.6449,16.5279 -2.40581,20.11408 l -1.38351,6.52033 2.50258,2.6203 c 2.26218,2.36857 5.8912,3.58679 5.8912,1.97759 z M 243.92523,121.3826 c 0,-0.27057 -1.04095,-0.88896 -2.31322,-1.37419 -2.90419,-1.10762 -13.98275,-22.554569 -13.09692,-25.354291 1.24108,-3.922498 -3.58993,-8.063931 -5.82688,-4.995155 -0.65609,0.900108 -1.19288,1.185663 -1.19288,0.634622 0,-0.55104 0.60395,-1.504699 1.34213,-2.119241 1.58197,-1.317025 4.5795,-0.05478 6.03162,2.539887 0.7684,1.372964 0.98371,1.408008 1.36938,0.222878 0.25169,-0.773438 1.13846,-3.571478 1.97061,-6.217868 1.66158,-5.28415 4.32921,-8.370468 6.50951,-7.531194 1.12177,0.431807 1.29374,-0.01731 0.85303,-2.227723 -0.60352,-3.026994 0.76602,-5.355258 3.81576,-6.486956 1.52273,-0.565056 1.20663,-0.815111 -1.72868,-1.3675 -3.25871,-0.613247 -4.17409,-0.273514 -9.86104,3.659805 -5.17976,3.58254 -6.72157,5.285955 -8.8747,9.804873 -3.62488,7.607846 -2.88673,12.0619 3.65926,22.080273 2.69708,4.12777 6.33579,10.13675 8.08602,13.35329 2.88989,5.31098 3.46128,5.84928 6.21962,5.85937 1.67056,0.007 3.03738,-0.21025 3.03738,-0.48082 z m 1.82002,-4.89867 c 0.53531,-1.93359 0.97565,-3.98021 0.97851,-4.54805 0.003,-0.56782 2.34347,-4.65334 5.20135,-9.0789 5.17784,-8.018164 5.19223,-8.060726 4.08689,-12.092583 -0.61009,-2.225351 -2.79265,-7.705507 -4.85015,-12.178126 -2.90937,-6.324436 -4.25316,-8.261001 -6.04545,-8.712243 -2.80625,-0.70647 -4.92948,0.881993 -4.92948,3.687973 0,1.145543 2.27639,6.516166 5.05865,11.934718 l 5.05865,9.85191 -3.67009,6.667051 c -3.56807,6.48171 -5.39343,13.56272 -4.26001,16.52559 0.94791,2.47793 2.35295,1.62047 3.37113,-2.05728 z m -0.0347,-14.4884 3.72285,-6.762898 -4.38963,-8.240547 c -6.03107,-11.32201 -8.88398,-11.8769 -11.88177,-2.311005 -0.83591,2.667348 -1.99531,5.824977 -2.57646,7.016954 -0.7964,1.633471 -0.77997,2.611638 0.0667,3.971651 0.61786,0.992437 1.12337,2.873269 1.12337,4.179628 0,1.306367 1.97514,6.269117 4.3892,11.028347 l 4.3892,8.65314 0.71683,-5.38618 c 0.46806,-3.51703 2.00876,-7.73311 4.43968,-12.14909 z m -139.49457,-1.55818 c 0.5485,-7.751494 0.43306,-8.5913 -1.56855,-11.411096 -2.29062,-3.226929 -6.457189,-12.717478 -6.49446,-14.793001 -0.01477,-0.820584 0.620131,-1.030551 1.89182,-0.62567 2.41518,0.768991 4.62808,-1.018327 4.62808,-3.737939 0,-2.65307 -2.75379,-6.719293 -15.058105,-22.234737 C 81.235944,37.069774 78.952169,34.779158 74.897886,32.874298 c -2.639445,-1.240113 -5.090993,-1.961837 -5.447884,-1.603831 -0.356892,0.358007 1.466229,2.855327 4.051379,5.549602 2.585149,2.694274 8.627139,11.226806 13.426643,18.961181 4.799504,7.734375 9.28449,14.729548 9.96663,15.54483 0.68215,0.815281 1.050047,1.673147 0.817552,1.906368 -0.232496,0.233221 0.60285,6.694212 1.856327,14.357758 1.339447,8.189144 2.044527,15.404924 1.710207,17.502194 -0.31287,1.96267 -0.26775,5.17057 0.10025,7.12867 l 0.6691,3.56018 1.78794,-3.48809 c 1.15349,-2.25035 1.99803,-6.45718 2.38001,-11.85536 z m -32.384234,11.16473 c 0,-0.49365 -1.486086,-2.07568 -3.302414,-3.51563 C 68.713034,106.64689 63.573072,101.25 59.107223,96.09375 54.641376,90.9375 48.577843,84.173059 45.632708,81.061657 l -5.354794,-5.657092 2.284959,-10.141141 c 2.042505,-9.065078 2.206597,-13.164034 0.637672,-15.928833 -0.256444,-0.451911 -1.019117,0.497307 -1.69483,2.109375 -1.313617,3.133938 -2.258646,3.495911 -5.118557,1.960549 -1.707011,-0.916418 -1.807719,-0.605814 -1.807719,5.575393 0,5.181805 -0.486884,7.464442 -2.336448,10.953865 -2.655097,5.009154 -3.271557,8.697652 -0.881585,5.274826 1.78586,-2.55764 5.182688,-2.692562 7.348507,-0.291881 1.246112,1.381242 1.481315,2.723605 1.026651,5.859375 l -0.589781,4.067657 11.804343,12.413784 c 9.984034,10.499496 12.478216,12.621816 16.174272,13.762826 5.29799,1.63555 6.706378,1.7578 6.706378,0.58211 z m 89.719624,-6.92592 c 0,-1.20915 -0.78767,-2.91351 -1.75038,-3.78748 -1.65907,-1.50612 -1.7803,-1.47702 -2.32369,0.55782 -1.11544,4.17702 -0.71494,5.42811 1.73762,5.42811 1.82798,0 2.33645,-0.47843 2.33645,-2.19845 z m 59.75516,-2.38049 c 0.63957,-1.19878 0.37015,-2.514082 -0.96667,-4.719166 -1.57447,-2.5971 -2.07089,-2.876091 -3.29869,-1.853916 -1.56627,1.303941 -1.18065,5.736682 0.69642,8.005472 1.17647,1.42201 2.28302,0.97791 3.56894,-1.43239 z m -15.82992,-3.634526 c 0,-0.392409 -7.06729,-7.79364 -15.70509,-16.447182 -16.15648,-16.185939 -17.54557,-17.081704 -19.8349,-12.790688 -1.90534,3.571293 -1.07462,5.570665 3.06335,7.372879 2.18458,0.951451 8.47161,5.778057 13.97116,10.725791 9.06636,8.156638 14.08138,11.563053 17.33725,11.776194 0.64252,0.04209 1.16823,-0.244584 1.16823,-0.636994 z m -78.98893,-1.134 c 0.30836,-0.500484 -0.11106,-2.21294 -0.93202,-3.805466 -1.25034,-2.425456 -1.96189,-2.848445 -4.38319,-2.605656 -3.98041,0.399121 -5.4099,2.862469 -3.12855,5.391207 1.82514,2.023068 7.41008,2.697665 8.44376,1.019915 z M 398.13084,70.402145 c 8.11521,-3.587158 17.88324,-10.588029 16.58711,-11.888202 -0.28237,-0.283252 -2.67937,0.586007 -5.32667,1.931687 -2.64731,1.345681 -10.73062,4.729731 -17.96291,7.520111 -7.23231,2.790379 -13.32708,5.251398 -13.54393,5.468929 -0.21685,0.217532 -0.64743,1.960393 -0.95684,3.873027 l -0.56257,3.477513 6.44365,-3.229254 c 3.54401,-1.77609 10.43898,-4.995305 15.32216,-7.153811 z m -85.80393,2.627633 c 1.53683,-0.825059 2.43022,-0.647231 4.51458,0.898619 l 2.59859,1.92723 8.14458,-14.724689 c 4.47953,-8.098579 9.09947,-16.201251 10.26655,-18.005938 2.29462,-3.548257 3.91421,-11.25 2.36574,-11.25 -0.50964,0 -1.83584,1.792969 -2.9471,3.984375 -1.11125,2.191406 -6.08596,9.890625 -11.05491,17.109375 -4.96894,7.21875 -9.35485,13.660038 -9.74645,14.313972 -0.40409,0.674761 0.14815,2.70203 1.27687,4.6875 1.23776,2.177288 1.35081,2.622085 0.29933,1.177784 -0.92925,-1.276408 -3.47504,-4.346944 -5.6573,-6.823411 -2.18227,-2.476468 -4.6469,-5.542431 -5.47699,-6.813252 -1.48296,-2.270361 -8.22061,-5.072041 -9.38605,-3.902954 -0.32695,0.327965 -0.0523,1.251674 0.61048,2.052688 1.0064,1.21642 0.87038,1.81362 -0.82552,3.624465 l -2.03046,2.168077 5.4707,3.387262 c 4.1407,2.563769 5.90744,4.363367 7.26712,7.402256 1.49101,3.33241 1.84724,3.657997 2.09533,1.915122 0.1644,-1.154928 1.16111,-2.562745 2.21491,-3.128481 z M 247.12903,44.447554 c -0.0569,-20.564347 -0.31938,-25.046456 -1.71062,-29.213179 -0.90387,-2.707031 -1.96985,-4.921875 -2.36884,-4.921875 -0.399,0 -1.01932,7.066406 -1.37849,15.703125 -0.78181,18.798851 -2.06957,35.755404 -2.8741,37.84423 -0.45821,1.189692 0.37365,1.75798 3.86376,2.639547 3.43395,0.867382 4.13818,1.339388 3.08974,2.070892 -1.17336,0.818656 -1.16739,0.894511 0.0439,0.558008 1.20229,-0.334001 1.3923,-3.847707 1.33464,-24.680748 z m -75.16641,20.168385 c 1.28504,-0.387627 1.85295,-0.741039 1.26201,-0.785358 -0.59094,-0.04432 -6.68907,-5.195348 -13.55141,-11.446728 -8.2175,-7.485908 -14.19164,-12.140177 -17.49967,-13.633465 -2.76249,-1.247025 -5.2658,-2.023472 -5.5629,-1.725436 -0.29712,0.298035 5.9397,7.052191 13.85957,15.009236 15.45428,15.526821 14.18749,14.785238 21.4924,12.581751 z m 125.0907,-7.309665 c -0.68269,-1.096576 -1.47316,-1.993774 -1.7566,-1.993774 -0.28344,0 -4.18266,-2.109375 -8.66494,-4.6875 -8.42142,-4.843846 -10.69545,-5.486133 -12.61309,-3.5625 -1.72243,1.727814 -1.35742,2.311968 1.4486,2.318299 1.63217,0.0037 5.81021,2.246985 11.4486,6.147057 7.24178,5.009138 9.10895,5.922894 10.12859,4.956725 1.04034,-0.985789 1.04183,-1.519057 0.008,-3.178307 z m -0.79164,-3.560579 c 0,-1.152191 -3.07579,-4.058195 -4.2953,-4.058195 -2.40641,0 -2.23816,1.820813 0.29561,3.199199 2.8767,1.564943 3.99969,1.806122 3.99969,0.858996 z M 41.496784,49.329931 c 0.9524,-2.501617 4.290609,-6.969994 8.538185,-11.428834 6.106774,-6.410509 8.311378,-9.776097 6.40376,-9.776097 -1.177869,0 -20.488677,19.093509 -21.206331,20.967704 -0.537305,1.403202 -0.288786,2.293323 0.879561,3.150308 2.686397,1.97048 3.743255,1.398742 5.384825,-2.913081 z m 334.946286,1.125351 c 0.15116,-0.781326 -3.14807,-6.193242 -7.33163,-12.026479 -4.18356,-5.833238 -8.05465,-11.592606 -8.60243,-12.798595 -0.54778,-1.205989 -1.30341,-2.192708 -1.67921,-2.192708 -1.1365,0 -2.05818,5.076758 -0.98672,5.435029 1.44458,0.483033 10.95714,14.389109 12.69179,18.55369 2.08368,5.002544 5.21572,6.608301 5.9082,3.029064 z m 4.68544,-7.197839 c 0.2458,-3.320743 0.0242,-3.882443 -1.53199,-3.882443 -1.00064,0 -2.77201,0.77383 -3.93638,1.719623 -2.08813,1.696146 -2.09386,1.75897 -0.42006,4.601344 1.36317,2.314881 2.08094,2.740311 3.649,2.16282 1.473,-0.542477 2.02257,-1.671678 2.23943,-4.601344 z M 41.767404,39.542842 c -1.999265,-0.386226 -4.384226,1.4046 -4.384226,3.292038 0,1.015962 0.757952,0.8139 3.027254,-0.807034 2.455324,-1.753809 2.711692,-2.223293 1.356972,-2.485003 z M 370.51141,35.544928 c -0.3009,-0.488407 -0.94547,-0.641043 -1.43235,-0.339191 -0.48689,0.301852 -0.63905,0.948428 -0.33813,1.436835 0.3009,0.488407 0.94546,0.641043 1.43235,0.339191 0.48689,-0.301852 0.63905,-0.948428 0.33813,-1.436835 z"
       id="path3348"
       inkscape:connector-curvature="0" />
  </g>
</svg>
