<?xml version="1.0" encoding="UTF-8" standalone="no"?>
<!-- Created with Inkscape (http://www.inkscape.org/) -->

<svg
   xmlns:dc="http://purl.org/dc/elements/1.1/"
   xmlns:cc="http://creativecommons.org/ns#"
   xmlns:rdf="http://www.w3.org/1999/02/22-rdf-syntax-ns#"
   xmlns:svg="http://www.w3.org/2000/svg"
   xmlns="http://www.w3.org/2000/svg"
   xmlns:sodipodi="http://sodipodi.sourceforge.net/DTD/sodipodi-0.dtd"
   xmlns:inkscape="http://www.inkscape.org/namespaces/inkscape"
   id="svg3484"
   version="1.1"
   inkscape:version="0.91 r13725"
   width="568.2243"
   height="216.5625"
   viewBox="0 0 568.2243 216.5625"
   sodipodi:docname="bb730802.svg">
  <metadata
     id="metadata3490">
    <rdf:RDF>
      <cc:Work
         rdf:about="">
        <dc:format>image/svg+xml</dc:format>
        <dc:type
           rdf:resource="http://purl.org/dc/dcmitype/StillImage" />
        <dc:title></dc:title>
      </cc:Work>
    </rdf:RDF>
  </metadata>
  <defs
     id="defs3488" />
  <sodipodi:namedview
     pagecolor="#ffffff"
     bordercolor="#666666"
     borderopacity="1"
     objecttolerance="10"
     gridtolerance="10"
     guidetolerance="10"
     inkscape:pageopacity="0"
     inkscape:pageshadow="2"
     inkscape:window-width="1268"
     inkscape:window-height="839"
     id="namedview3486"
     showgrid="false"
     inkscape:zoom="1.0999178"
     inkscape:cx="308.7553"
     inkscape:cy="119.3294"
     inkscape:window-x="0"
     inkscape:window-y="0"
     inkscape:window-maximized="0"
     inkscape:current-layer="svg3484" />
  <g
     id="g3504">
    <path
       style="fill:#fefefe"
       d="m 9.9688477,137.1875 c -0.3426795,-0.34375 -0.6230533,-1.82031 -0.6230533,-3.28125 l 0,-2.65625 270.0934556,0 270.09346,0 0,3.28125 0,3.28125 -269.4704,0 c -148.20873,0 -269.750784,-0.28125 -270.0934623,-0.625 z m 63.8629283,-7.33025 c 0,-0.25039 1.904093,-0.93621 4.231318,-1.52404 3.207293,-0.81013 4.123576,-1.43734 3.786126,-2.59162 -0.244856,-0.83757 -1.527323,-5.35256 -2.849926,-10.03332 l -2.404734,-8.51046 4.195475,-9.06766 c 4.54139,-9.815276 6.060367,-10.914494 8.511618,-6.159484 1.41154,2.738143 1.391583,3.02589 -0.341365,4.921871 -1.012303,1.107544 -3.13528,4.148853 -4.717726,6.758453 l -2.877176,4.74475 2.805092,9.77719 c 2.625265,9.15042 2.701857,9.85292 1.194755,10.95839 -1.500682,1.10075 -11.533457,1.73222 -11.533457,0.72593 z M 103.73832,129.375 c 0,-0.51563 0.86876,-0.9375 1.9306,-0.9375 4.59001,0 5.33123,-1.33489 6.04515,-10.88699 l 0.67571,-9.04083 5.721,-8.551714 c 3.14655,-4.703447 6.33459,-8.551716 7.08455,-8.551716 0.80644,0 1.6354,1.333304 2.02889,3.263288 0.60264,2.955787 0.29103,3.664715 -3.30684,7.523142 -6.19128,6.63967 -6.89229,8.2242 -7.96532,18.00475 -0.54934,5.00702 -0.99879,9.33124 -0.99879,9.60937 0,0.27813 -2.52336,0.5057 -5.60748,0.5057 -3.11526,0 -5.60747,-0.41666 -5.60747,-0.9375 z m 194.1548,-0.72492 c 1.93459,-1.49397 2.14725,-2.63566 2.71913,-14.5972 0.47141,-9.86017 0.93636,-13.09809 1.93606,-13.4829 2.92283,-1.125108 3.34074,1.21904 2.2576,12.66345 -1.61991,17.11598 -1.60901,17.08292 -5.62367,17.05822 l -3.38785,-0.0208 2.09873,-1.62073 z m 185.28743,-0.9157 c 0.002,-1.41797 0.61287,-6.16407 1.35827,-10.54688 0.74541,-4.38281 1.79018,-12.01781 2.32171,-16.96666 1.46634,-13.652382 4.88831,-19.696851 7.6762,-13.558987 0.81415,1.792436 0.70381,3.126471 -0.51032,6.170374 -1.84768,4.632242 -7.11052,28.313603 -7.11052,31.995443 0,2.21475 0.47108,2.67602 3.27103,3.20294 4.99537,0.94006 3.89625,2.28189 -1.86916,2.28189 -4.98515,0 -5.1401,-0.0778 -5.13721,-2.57812 z m -150.47027,-0.70313 c 0,-0.77344 0.44449,-1.40625 0.98775,-1.40625 0.54326,0 2.45092,-3.22076 4.23925,-7.15725 1.78833,-3.93649 4.28777,-7.97492 5.55431,-8.97429 1.26654,-0.99938 2.3028,-2.3741 2.3028,-3.05495 0,-0.68085 0.62667,-1.47913 1.39258,-1.77396 2.00891,-0.77329 -9.37628,21.60247 -11.59883,22.79565 -2.42752,1.30324 -2.87786,1.23612 -2.87786,-0.42895 z m -64.81962,-2.10937 c 0.76119,-1.55923 0.89273,-19.4947 0.19425,-26.48438 -0.29581,-2.960109 -0.1,-3.28125 2.00086,-3.28125 l 2.32874,0 -0.32067,14.0625 c -0.32716,14.34626 -0.93812,17.34375 -3.53512,17.34375 -1.08109,0 -1.2575,-0.43322 -0.66806,-1.64062 z m 190.82595,-3.81774 c -1.85803,-2.49653 -4.32134,-6.39356 -5.47402,-8.66006 -2.71993,-5.34815 -5.98907,-10.42801 -10.82392,-16.81908 -2.14539,-2.835937 -4.17933,-6.089533 -4.51987,-7.230213 -0.88657,-2.969622 1.02428,-6.073652 3.51957,-5.717303 1.61705,0.230926 4.21211,4.466932 12.52653,20.447516 5.76783,11.08594 10.36771,20.55175 10.22196,21.03516 -0.63611,2.10982 -2.29993,1.17691 -5.45025,-3.05602 z m -318.52969,2.66143 c 0,-0.593 1.04963,-2.45862 2.33253,-4.14583 1.28289,-1.68722 5.50471,-9.9911 9.38182,-18.45307 7.67986,-16.761652 9.73608,-19.763979 12.36406,-18.053069 3.0808,2.00572 1.66425,7.403082 -4.62641,17.627579 -3.18597,5.17829 -6.82387,11.31351 -8.08425,13.63382 -1.26038,2.32031 -4.01831,5.48437 -6.12874,7.03125 -4.75824,3.48763 -5.23901,3.70414 -5.23901,2.35932 z M 325.23365,118.125 c 0,-0.51562 0.53241,-0.9375 1.18312,-0.9375 0.65072,0 4.87167,-4.21875 9.37988,-9.375 4.50821,-5.15625 8.61517,-9.375 9.12658,-9.375 0.51141,0 1.15266,0.582516 1.42501,1.294472 0.69969,1.829038 -16.65563,19.330528 -19.16906,19.330528 -1.07005,0 -1.94553,-0.42187 -1.94553,-0.9375 z m 51.21353,-15.33455 c -9.61294,-7.292556 -17.47949,-13.681075 -17.48122,-14.1967 -0.002,-0.515625 0.53137,-2.194933 1.18466,-3.731795 l 1.1878,-2.794294 5.07846,4.737255 c 5.59858,5.22244 22.62847,19.578764 24.60348,20.740934 2.29956,1.35313 5.44867,8.86735 3.60581,8.60398 -0.38552,-0.0551 -8.56607,-6.06682 -18.17899,-13.35938 z m -110.09204,7.42113 c 0,-1.25863 0.42056,-2.54915 0.93458,-2.86783 0.54525,-0.33804 0.93458,0.61526 0.93458,2.28842 0,1.5773 -0.42056,2.86783 -0.93458,2.86783 -0.51402,0 -0.93458,-1.02979 -0.93458,-2.28842 z m 138.31776,1.41195 c 0,-2.35061 2.31026,-6.37144 6.07304,-10.56962 2.28641,-2.550991 5.9558,-7.135385 8.15418,-10.187526 2.78551,-3.867262 4.54146,-5.478998 5.79303,-5.317244 3.72019,0.480798 2.32005,2.948873 -7.20437,12.699435 -5.39,5.517975 -10.08636,10.981895 -10.43634,12.142055 -0.62186,2.06136 -2.37954,2.97207 -2.37954,1.2329 z m -63.60164,-3.98969 c 2.2606,-2.06084 3.34497,-2.56248 3.63734,-1.68265 0.49731,1.49658 -3.15788,4.68523 -5.32615,4.64633 -1.07335,-0.0192 -0.56776,-0.9065 1.68881,-2.96368 z m -42.92611,0.41304 c 0.007,-0.90235 0.42199,-2.27344 0.92027,-3.04688 0.68748,-1.06712 0.90941,-0.67146 0.92027,1.64063 0.007,1.67578 -0.40625,3.04687 -0.92027,3.04687 -0.51402,0 -0.92814,-0.73828 -0.92027,-1.64062 z m 97.18195,-9.14063 c 0,-2.053181 3.03237,-4.765819 8.34823,-7.467982 5.41603,-2.753086 5.67047,-2.80245 5.67047,-1.100135 0,0.701598 -2.55186,2.640006 -5.67079,4.307573 -3.11893,1.667569 -5.89758,3.624788 -6.17476,4.349372 -0.66907,1.749032 -2.17315,1.687552 -2.17315,-0.08883 z M 201.86916,88.965125 c -6.47832,-5.695927 -14.45841,-10.610156 -17.28972,-10.647195 -2.35785,-0.03084 -2.80374,-0.409414 -2.80374,-2.38043 0,-2.002703 0.47598,-2.38261 3.27103,-2.610806 3.62492,-0.295949 4.74665,0.383348 16.69616,10.110806 4.11717,3.351563 7.37403,6.515625 7.23747,7.03125 -0.52474,1.981507 -3.97777,1.251383 -7.1112,-1.503625 z M 413.27103,88.875 c -1.58328,-1.588228 -1.39222,-4.195186 0.35681,-4.868448 2.38198,-0.91691 5.53692,-0.656906 6.74599,0.555948 1.76877,1.774297 1.36009,2.499839 -2.26366,4.018669 -4.04102,1.693721 -3.47771,1.659517 -4.83914,0.293831 z m 82.99065,-3.828578 0,-4.174367 14.877,-12.779778 C 519.32104,61.0634 526.26029,55.3125 526.55924,55.3125 c 2.04982,0 -1.64887,8.795701 -4.20281,9.994559 -0.92175,0.43268 -7.17014,5.990275 -13.88533,12.350211 l -12.20942,11.563519 0,-4.174367 z M 248.59813,83.351685 c -3.34112,-0.454572 -11.75234,-1.450938 -18.69159,-2.214144 -6.93925,-0.763208 -14.19392,-1.843393 -16.12149,-2.400412 -7.86054,-2.271498 -3.06868,-2.76967 21.02803,-2.186116 22.29953,0.540031 24.77117,0.761527 27.15229,2.433235 1.45363,1.020547 2.48967,2.525202 2.3277,3.380563 -0.35256,1.861829 -6.44727,2.245056 -15.69494,0.986874 z M 354.82866,82.8125 c -1.24004,-1.24392 -0.55055,-6.271389 3.50889,-25.585142 3.38083,-16.085103 4.59023,-20.261414 6.65298,-22.97428 1.38657,-1.823567 2.89169,-3.315578 3.34469,-3.315578 1.12735,0 1.03808,3.471364 -0.14636,5.69142 -1.17658,2.205334 -7.4412,37.111308 -7.4412,41.4618 0,1.703229 -0.50467,3.60303 -1.12149,4.22178 -1.2219,1.22572 -3.80561,1.494997 -4.79751,0.5 z m 87.30782,-2.278919 -2.19228,-2.974483 9.70079,-19.980876 c 9.64492,-19.865772 12.6675,-24.111085 11.4585,-16.093847 -0.33046,2.191406 -1.13252,5.460937 -1.78235,7.265625 -2.87186,7.975687 -9.70866,24.369152 -12.23281,29.332156 l -2.75958,5.425907 -2.19227,-2.974482 z m -142.70746,-0.05713 c -1.74339,-0.847588 -9.4358,-13.193571 -13.9265,-22.351453 -0.88496,-1.804688 -2.42801,-4.181097 -3.42901,-5.280911 -1.91805,-2.107398 -5.02046,-12.325427 -4.04067,-13.308281 0.3154,-0.316391 0.86602,-0.13893 1.22358,0.394359 7.89449,11.774186 18.17023,26.177343 21.00704,29.444833 5.11118,5.887151 6.6987,9.143852 5.2883,10.848595 -1.2744,1.540358 -3.30225,1.624105 -6.12274,0.252858 z m 7.13515,-3.547901 c -0.63679,-1.542137 -1.7133,-3.266356 -2.39225,-3.831597 -0.98272,-0.818139 -0.0569,-2.49728 4.5398,-8.234209 3.17584,-3.963573 7.22192,-9.618992 8.99127,-12.567598 3.09484,-5.157505 10.72109,-11.907242 12.00188,-10.622456 0.34054,0.341615 -4.6e-4,1.627326 -0.75779,2.857135 -0.75735,1.22981 -5.23814,8.483233 -9.95732,16.11872 -4.71918,7.635486 -9.18501,15.05297 -9.92407,16.483296 l -1.34374,2.600593 -1.15778,-2.803884 z m -43.03983,-0.09017 c -0.75614,-0.479693 -2.69013,-0.87863 -4.29776,-0.886525 -1.60762,-0.0079 -3.34788,-0.541702 -3.86724,-1.186233 -0.51937,-0.644531 -4.30982,-7.921875 -8.42322,-16.171875 -6.87381,-13.786388 -10.22955,-23.90625 -7.92728,-23.90625 0.44309,0 1.76172,1.974101 2.93029,4.386892 1.16858,2.41279 6.95373,11.951433 12.85591,21.196984 5.90217,9.245551 10.59012,16.951636 10.41766,17.124634 -0.17246,0.172997 -0.93222,-0.07793 -1.68836,-0.557629 z M 89.252337,75.447377 c -5.96988,-1.539304 -11.944466,-1.684335 -13.301667,-0.322893 -0.582271,0.584091 -1.717785,0.808269 -2.523364,0.498173 -1.873326,-0.72111 -1.912597,-5.196588 -0.05188,-5.912843 1.657231,-0.637926 22.886258,5.31337 22.886258,6.415882 0,0.94131 -1.165299,0.82854 -7.009345,-0.678319 z M 192.71491,75.177638 c -2.48863,-1.920989 -1.874,-2.990138 1.71894,-2.990138 2.74803,0 5.15944,2.134767 4.18958,3.708933 -0.90084,1.462156 -3.49139,1.147006 -5.90852,-0.718795 z m -62.80837,-4.701719 c 0,-0.941369 1.01682,-2.669822 2.25961,-3.841006 1.24278,-1.171183 3.82922,-4.725191 5.74764,-7.897794 3.74414,-6.1919 6.80077,-9.987119 8.04351,-9.987119 1.44503,0 0.77745,2.516658 -1.12594,4.244582 -1.04369,0.947475 -4.01631,5.653486 -6.60585,10.4578 -3.43736,6.377308 -5.19554,8.735118 -6.51359,8.735118 -1.12486,0 -1.80538,-0.645158 -1.80538,-1.711581 z M 66.413552,69.433594 C 63.928761,66.941038 63.858487,63.75 66.288384,63.75 c 2.473939,0 4.898702,2.642745 4.555744,4.965298 -0.398452,2.69837 -2.170308,2.985627 -4.430576,0.718296 z m 412.900808,-5.46116 c -1.73038,-1.940161 -4.80108,-5.959534 -6.82379,-8.931939 -2.15064,-3.160411 -4.59285,-5.634793 -5.88182,-5.959316 -2.82089,-0.710209 -2.17068,-2.746037 0.78399,-2.454735 1.32356,0.13049 3.56601,1.844142 5.50446,4.206443 1.79906,2.192436 5.49374,6.285644 8.21039,9.096017 4.67024,4.831368 5.63836,7.571096 2.67535,7.571096 -0.72735,0 -2.73821,-1.587405 -4.46858,-3.527566 z m -2.67986,0.902751 c -1.1425,-0.928024 -1.92507,-2.317208 -1.73906,-3.087076 0.24347,-1.007638 1.08396,-0.534962 3.00035,1.687315 2.86711,3.324763 2.12394,4.149523 -1.26129,1.399761 z M 131.2291,64.325697 c -0.78394,-2.022088 0.62682,-4.794447 2.43973,-4.794447 1.99782,0 2.03151,1.906329 0.0762,4.311205 -1.72308,2.119236 -1.87066,2.147582 -2.51592,0.483242 z"
       id="path3512"
       inkscape:connector-curvature="0" />
    <path
       style="fill:#007f7f"
       d="m 306.04987,101.92767 c -0.51943,-1.18485 -1.71914,-2.064148 -2.78079,-2.038086 -1.68536,0.04134 -1.87786,-0.601612 -1.97656,-6.602301 -0.0671,-4.078035 -0.69071,-7.775897 -1.61316,-9.565319 l -1.50384,-2.917175 2.73458,1.035412 c 2.27267,0.860516 3.04646,0.752274 4.581,-0.640809 1.80926,-1.642473 1.85978,-1.586991 2.50897,2.755591 1.01314,6.777212 0.96418,16.637117 -0.0916,18.441437 -0.8613,1.47202 -1.02605,1.43047 -1.85864,-0.46875 z m 40.8486,0.33595 c 0.88518,-1.42181 0.85545,-2.11853 -0.14182,-3.323911 -0.69395,-0.838772 -1.81397,-1.312462 -2.48892,-1.052643 -0.67496,0.259818 0.96951,-3.967097 3.6544,-9.393129 2.99721,-6.057219 5.01062,-9.208737 5.21582,-8.164104 0.54756,2.787463 2.22337,4.221345 4.43742,3.796782 1.82022,-0.349046 1.98133,-0.134723 1.28326,1.70708 -2.23571,5.898738 -7.65925,15.452255 -9.51079,16.753185 -2.8301,1.98847 -3.8082,1.85939 -2.44937,-0.32326 z M 273.2024,98.55615 c 0.29685,-5.753909 -5.41024,-6.546441 -6.96649,-0.967425 -0.50582,1.813322 -0.65531,1.520503 -0.76321,-1.494975 -0.0738,-2.0625 -0.69423,-5.323942 -1.37874,-7.247648 -1.04622,-2.940247 -1.03968,-3.668208 0.041,-4.567916 1.92792,-1.605031 1.56296,-3.298229 -1.17691,-5.460142 -3.31722,-2.617483 -1.41006,-2.478705 2.52885,0.184015 6.31208,4.267003 11.1715,16.210432 8.52537,20.953572 -0.81261,1.456589 -0.94539,1.227129 -0.80989,-1.399481 z M 128.14879,94.567912 c -0.15022,-3.32155 -2.40768,-5.219973 -4.31701,-3.630412 -1.1792,0.981706 -1.40187,0.813326 -1.40187,-1.060067 0,-2.573861 2.94728,-13.18053 4.73289,-17.032731 0.9978,-2.152598 1.36188,-2.363144 2.02647,-1.171875 1.17503,2.10622 4.10673,1.780269 5.91106,-0.657202 1.40411,-1.896809 1.50981,-1.920427 1.04887,-0.234375 -0.28193,1.03125 -1.64701,4.828125 -3.03352,8.4375 -1.38651,3.609375 -3.0462,9.09375 -3.68821,12.1875 -0.642,3.09375 -1.21741,4.5165 -1.27868,3.161663 z M 89.877726,91.379939 c -1.416063,-3.117632 -3.562445,-3.848725 -5.673331,-1.932431 -1.602737,1.45499 -1.804266,1.401451 -3.290697,-0.874219 -0.870871,-1.33327 -3.66169,-4.726218 -6.20182,-7.539883 -3.354653,-3.715899 -4.583594,-5.818508 -4.491147,-7.683956 0.104381,-2.106282 0.198521,-2.201052 0.523397,-0.526907 0.615474,3.171643 2.861663,4.645054 5.020014,3.292928 3.08891,-1.935084 5.033975,-1.275842 6.967256,2.361417 1.016423,1.91229 3.425144,5.312948 5.352714,7.557019 1.92757,2.244071 3.504673,4.898221 3.504673,5.898112 0,2.42654 -0.419637,2.291137 -1.711059,-0.55208 z m 77.039444,-3.541217 c 0.45021,-1.969689 0.0912,-3.174488 -1.4297,-4.798531 l -2.03086,-2.168504 2.96318,-2.501136 c 4.05073,-3.419128 7.15495,-4.903078 11.91744,-5.697069 3.93238,-0.655594 4.00601,-0.621571 2.81056,1.298634 -1.68301,2.703356 0.0398,5.308714 3.35084,5.067212 1.53863,-0.112229 2.22902,0.195257 1.84345,0.821051 -0.38281,0.621338 -2.55079,0.800203 -5.72093,0.471993 -5.54485,-0.574067 -4.85306,-0.985847 -11.51661,6.855128 l -2.78853,3.28125 0.60116,-2.630028 z m 268.7669,-0.182472 c -1.1732,-2.582942 -2.15992,-2.846651 -4.98213,-1.331527 -1.47447,0.791576 -2.26927,0.663805 -3.64615,-0.586154 -1.00972,-0.916638 -2.57062,-1.38591 -3.65964,-1.100235 -2.41355,0.633131 -3.20678,-0.628006 -1.91634,-3.046756 2.68584,-5.034203 13.79719,-6.483312 18.42135,-2.402454 2.05853,1.816679 2.27526,2.320493 1.00823,2.34375 -2.23051,0.04094 -4.75943,4.171367 -4.00802,6.546223 0.84631,2.674837 0.0667,2.404026 -1.2173,-0.422847 z m 53.10098,-5.716521 c 0,-2.304398 -0.85383,-4.481717 -2.66852,-6.804819 -1.46767,-1.878888 -3.14262,-4.323969 -3.7221,-5.433514 -0.91049,-1.743346 -0.82478,-1.957331 0.63099,-1.575447 2.13149,0.559138 4.27988,-1.955058 3.5288,-4.129635 -0.31394,-0.90891 0.47987,-0.386939 1.76401,1.159936 2.81045,3.385467 7.00887,13.995705 7.00887,17.712803 0,2.330741 -0.18923,2.515492 -1.47775,1.442768 -1.16351,-0.968644 -1.85911,-0.991365 -3.27103,-0.106848 -1.64379,1.029766 -1.79327,0.840933 -1.79327,-2.265244 z"
       id="path3508"
       inkscape:connector-curvature="0" />
    <path
       style="fill:#000000"
       d="M 12.616822,198.03356 19.158879,197.68969 30.06897,181.52288 40.979063,165.35609 30.686336,153.69367 C 17.517015,138.77185 17.492177,138.75 13.704914,138.75 c -3.8343869,0 -5.5350644,-1.76912 -5.1275846,-5.33393 l 0.3011753,-2.63482 31.3084113,-0.23231 c 24.612313,-0.18263 31.908062,-0.515 34.11215,-1.55408 1.542056,-0.72696 3.696823,-1.67711 4.788372,-2.11143 l 1.984633,-0.78968 -2.694009,-9.375 -2.69401,-9.375 3.361159,-7.408519 c 3.932712,-8.668307 4.000041,-8.395054 -4.410305,-17.89917 -3.011815,-3.403503 -5.476027,-6.842511 -5.476027,-7.64224 0,-0.799729 -1.261683,-2.636323 -2.803739,-4.081321 -2.110701,-1.977851 -2.803738,-3.461232 -2.803738,-6.001134 0,-4.963334 2.569101,-7.116541 8.335615,-6.986218 3.798884,0.08586 5.090026,0.586098 7.191309,2.786218 3.455147,3.617667 2.03215,4.682488 -1.639112,1.226538 -2.636404,-2.481784 -2.805196,-2.531525 -1.765422,-0.520247 0.632333,1.22315 0.90958,3.428245 0.616103,4.900211 -0.525895,2.637694 -0.422763,2.709759 7.149004,4.995564 4.225428,1.275595 8.843112,2.597704 10.261522,2.938021 2.958906,0.709927 4.101028,2.053965 2.829392,3.32958 -0.546841,0.548546 -3.268853,0.323815 -7.224701,-0.596474 -3.491004,-0.812148 -6.556093,-1.267169 -6.811306,-1.011157 -0.659395,0.661454 3.268321,6.962131 6.92804,11.113674 3.678249,4.172561 3.863584,6.205658 0.890546,9.769115 -1.216036,1.457531 -3.5163,4.785199 -5.111699,7.394799 l -2.900727,4.74475 2.778928,9.686 c 2.105223,7.3378 2.52372,9.99447 1.726237,10.95838 -0.873261,1.05551 0.383456,1.27238 7.372972,1.27238 6.627327,0 8.540477,-0.30014 8.963607,-1.40625 0.29587,-0.77344 1.4974,-1.41271 2.67008,-1.4206 3.71331,-0.025 4.2742,-1.16747 4.97312,-10.12966 0.66433,-8.51877 0.806,-8.92804 5.67876,-16.40573 3.19761,-4.907004 5.0036,-8.683009 5.01455,-10.484493 0.0193,-3.170268 2.94496,-14.027078 4.70027,-17.441972 0.63399,-1.233399 2.1872,-3.356424 3.45158,-4.717832 1.46958,-1.58233 1.93411,-2.701446 1.28769,-3.102203 -2.90348,-1.800056 2.11632,-8.95376 6.28291,-8.95376 1.12841,0 2.05167,-0.407196 2.05167,-0.904879 0,-1.226192 5.58272,-7.532621 6.6682,-7.532621 2.17384,0 1.72142,3.058385 -0.89453,6.047104 -2.52044,2.879595 -2.71322,3.504227 -1.73454,5.620209 0.60558,1.309307 1.61196,2.38385 2.2364,2.387873 0.62444,0.004 1.5707,0.823329 2.1028,1.820682 1.23474,2.314341 1.25613,6.624132 0.0329,6.624132 -0.51402,0 -0.94102,-0.949219 -0.94889,-2.109375 -0.007,-1.160156 -0.40308,-2.72594 -0.87825,-3.47952 -0.71077,-1.127248 -1.21731,-0.9195 -2.85725,1.171875 -1.09633,1.398112 -2.7549,2.54202 -3.6857,2.54202 -0.98728,0 -1.89589,0.878834 -2.18083,2.109375 -0.26865,1.160156 -1.75195,5.391778 -3.29621,9.403603 -1.54426,4.011826 -3.10153,9.437008 -3.46061,12.05596 -0.53709,3.917324 -1.45381,5.648924 -5.16948,9.764732 -6.72871,7.45329 -7.21404,8.53078 -8.29969,18.42626 -0.54934,5.00702 -0.99879,9.33124 -0.99879,9.60937 0,0.27813 40.26869,0.49167 89.48598,0.47451 84.17377,-0.0293 89.60333,-0.12957 91.46276,-1.68853 1.61133,-1.35094 2.10198,-3.16506 2.65399,-9.81256 0.63714,-7.67266 0.57021,-8.15522 -1.13099,-8.15522 -3.08089,0 -5.16978,-3.21991 -4.68639,-7.2238 0.56269,-4.660822 -0.89149,-7.984803 -3.17512,-7.257744 -1.79739,0.57225 -2.39407,-0.923081 -0.77009,-1.92989 1.59298,-0.987598 4.32815,0.39389 5.38453,2.71965 0.79537,1.751081 1.52767,2.109196 3.5285,1.725515 2.52006,-0.483244 2.52363,-0.495881 1.89513,-6.680821 -0.45489,-4.476382 -1.50123,-7.758237 -3.76908,-11.82166 -1.72668,-3.09375 -5.45372,-9.84375 -8.28234,-15 C 285.6561,60 282.42013,54.607052 281.29367,53.17192 c -1.12645,-1.43513 -2.65196,-4.928957 -3.39,-7.764057 -1.28364,-4.930954 -1.12385,-6.970363 0.54613,-6.970363 0.42317,0 5.19346,6.436151 10.60065,14.302558 5.40719,7.866407 10.75705,15.143007 11.88857,16.170221 l 2.05732,1.867664 3.21922,-3.748347 c 1.77057,-2.06159 5.74992,-7.598882 8.843,-12.305093 6.09179,-9.268832 13.13237,-15.570483 15.14293,-13.553638 0.81633,0.818886 0.74108,1.63219 -0.30864,3.335773 -0.76349,1.239071 -5.79241,9.345252 -11.17536,18.013735 l -9.78719,15.760877 0.3992,7.03125 c 0.66006,11.625975 0.38,15.7098 -1.2483,18.20267 -0.93223,1.42719 -1.92128,6.01441 -2.48741,11.53643 -0.51691,5.04193 -1.19265,10.53824 -1.50166,12.21403 l -0.56183,3.04687 89.17121,0 89.1712,0 1.0324,-7.26562 c 0.56783,-3.9961 1.98315,-15.55335 3.14515,-25.682799 l 2.11274,-18.417167 -2.82477,-3.614082 c -1.55363,-1.987745 -3.33553,-4.59054 -3.95976,-5.783989 -0.91639,-1.751994 -1.39415,-1.954148 -2.48063,-1.049638 -0.81019,0.674504 -2.83776,0.919506 -5.09557,0.615724 -3.41984,-0.46013 -3.87364,-0.264574 -5.15524,2.221514 -0.77292,1.499331 -1.81507,2.726057 -2.31589,2.726057 -1.32205,0 -1.12304,-1.04473 0.80363,-4.21875 1.12078,-1.846401 1.57046,-3.981881 1.30908,-6.216794 -0.3253,-2.781477 0.0213,-3.721647 1.89436,-5.13893 l 2.29249,-1.734634 -1.96955,-3.044052 c -1.08326,-1.674228 -3.1261,-3.453046 -4.53965,-3.952927 -2.70621,-0.957011 -3.03435,-1.633087 -1.7662,-3.638904 1.36608,-2.16072 5.65689,-0.171644 9.29114,4.307071 7.12827,8.784602 9.79666,11.45042 11.46148,11.45042 2.30821,0 6.10457,5.187196 8.68253,11.863483 1.16387,3.014147 2.37797,5.480267 2.698,5.480267 0.32003,0 7.12735,-5.615698 15.12739,-12.479329 13.61155,-11.678027 16.42154,-13.376866 16.42154,-9.927994 0,2.41896 -3.52455,8.429916 -5.47784,9.342218 -3.52647,1.647062 -26.55596,24.237027 -27.83217,27.300992 -1.48883,3.574382 -6.8769,27.807303 -6.8769,30.928893 0,1.56786 0.68998,2.30407 2.57009,2.7423 1.41355,0.32948 3.0323,1.17479 3.59722,1.87848 0.81665,1.01725 6.65775,1.33341 28.50467,1.5429 15.11265,0.14491 -94.19629,0.36233 -242.90877,0.48313 L 9.2273673,131.25 9.5202262,134.29687 9.8130841,137.34375 279.90654,137.8149 550,138.28606 305.37383,138.51802 c -198.547,0.18828 -244.626166,0.45897 -244.626166,1.437 0,0.66277 -8.558186,13.84636 -19.018192,29.29688 L 22.71128,197.34375 286.35565,197.81496 550,198.28616 278.03738,198.33182 C 128.45794,198.35691 9.0186916,198.22269 12.616822,198.03356 Z M 57.321697,140.39062 C 57.736518,138.86892 56.449362,138.75 39.56409,138.75 l -18.204845,0 2.638134,3.1535 c 1.450974,1.73442 6.19502,7.1796 10.542323,12.10039 l 7.904189,8.9469 7.215283,-10.45977 c 3.968406,-5.75287 7.416542,-11.19805 7.662523,-12.1004 z m 28.043536,-11.2593 c 1.507102,-1.10547 1.43051,-1.80797 -1.194755,-10.95839 l -2.805092,-9.77719 2.900727,-4.74475 c 1.595399,-2.6096 3.895664,-5.937268 5.111699,-7.394799 3.024381,-3.624994 2.791324,-5.466512 -1.2937,-10.222284 -1.92757,-2.244071 -4.336291,-5.644729 -5.352714,-7.557019 -1.944242,-3.65788 -3.877554,-4.296997 -7.028036,-2.32334 C 72.972114,77.864571 70.790957,75.279 70.857949,70.409737 70.915228,66.246395 69.202332,63.75 66.288384,63.75 c -1.179349,0 -1.802403,0.648148 -1.802403,1.875 0,1.953232 3.050274,5.625 4.672898,5.625 0.514018,0 0.934579,1.050221 0.934579,2.333825 0,1.481773 1.686131,4.201528 4.61842,7.449581 2.54013,2.813665 5.330949,6.206613 6.20182,7.539883 1.438897,2.202897 1.727783,2.293057 3.165451,0.98792 0.870127,-0.789915 2.050787,-1.436209 2.623689,-1.436209 1.177544,0 3.971003,3.661716 3.913949,5.130474 -0.02058,0.529804 -0.664852,-0.19688 -1.431717,-1.614849 -2.366549,-4.375863 -3.925275,-3.170937 -8.395035,6.489525 l -4.195475,9.06766 2.404734,8.51047 c 1.322603,4.68075 2.60507,9.19575 2.849926,10.03331 0.33745,1.15429 -0.578833,1.78149 -3.786126,2.59162 -2.327225,0.58783 -4.231318,1.27365 -4.231318,1.52404 0,1.00629 10.032775,0.37482 11.533457,-0.72593 z m 29.588037,0.67548 c 0,-0.27813 0.44945,-4.60235 0.99879,-9.60937 1.08565,-9.89548 1.57098,-10.97297 8.29969,-18.42626 3.71567,-4.115808 4.63239,-5.847408 5.16948,-9.764732 0.35908,-2.618952 1.90978,-8.044134 3.44599,-12.05596 1.53623,-4.011825 3.01846,-8.137978 3.29385,-9.169228 0.45119,-1.689511 0.34625,-1.666325 -1.06074,0.234375 -1.80433,2.437471 -4.73603,2.763422 -5.91106,0.657202 -0.66459,-1.191269 -1.02867,-0.980723 -2.02647,1.171875 -1.78561,3.852201 -4.73289,14.45887 -4.73289,17.032731 0,1.873393 0.22267,2.041773 1.40187,1.060067 1.96043,-1.632099 4.24052,0.389294 4.09503,3.630412 -0.10653,2.373207 -0.13251,2.360429 -0.71012,-0.349162 -0.34058,-1.597706 -1.20107,-2.8125 -1.99222,-2.8125 -0.76598,0 -3.96714,3.848269 -7.11369,8.551716 l -5.721,8.551714 -0.67571,9.04083 c -0.71392,9.5521 -1.45514,10.88699 -6.04515,10.88699 -1.06184,0 -1.9306,0.42187 -1.9306,0.9375 0,0.52084 2.49221,0.9375 5.60747,0.9375 3.08412,0 5.60748,-0.22757 5.60748,-0.5057 z m 188.20638,-2.45132 c 0.32427,-1.62637 1.06508,-7.98129 1.64626,-14.12205 1.08314,-11.44441 0.66523,-13.788558 -2.2576,-12.66345 -0.9997,0.38481 -1.46465,3.62273 -1.93606,13.4829 -0.57188,11.96154 -0.78454,13.10323 -2.71913,14.5972 l -2.09873,1.62073 3.38785,0.0208 c 3.05959,0.0189 3.44498,-0.26567 3.97741,-2.93617 z m 190.29829,2.12385 c 0,-0.45824 -1.47196,-1.11016 -3.27102,-1.44872 -2.79995,-0.52692 -3.27103,-0.98819 -3.27103,-3.20294 0,-3.68184 5.26284,-27.363201 7.11052,-31.995443 1.21413,-3.043903 1.32447,-4.377938 0.51032,-6.170374 -1.27165,-2.79968 -3.87441,-2.989233 -4.56697,-0.332601 -0.35649,1.367489 -0.72412,1.605823 -1.22442,0.793787 -0.44936,-0.729341 -0.69996,-0.323422 -0.67453,1.092625 0.0579,3.22196 -1.94073,19.615586 -3.53199,28.971836 -0.7454,4.38281 -1.35662,9.12891 -1.35827,10.54687 -0.003,2.50036 0.15206,2.57813 5.13721,2.57813 2.8271,0 5.14018,-0.37493 5.14018,-0.83317 z m -193.47225,-22.8387 c -0.0109,-2.31209 -0.23279,-2.70775 -0.92027,-1.64063 -1.1871,1.84265 -1.1871,4.6875 0,4.6875 0.51402,0 0.92814,-1.37109 0.92027,-3.04687 z m 8.76448,-10.024918 c 0.0242,-2.349581 -0.13569,-7.436025 -0.35525,-11.303212 l -0.3992,-7.03125 9.78719,-15.760877 c 5.38295,-8.668483 10.40682,-16.765656 11.16417,-17.99372 0.75733,-1.228063 1.09833,-2.512346 0.75779,-2.85396 -1.28079,-1.284787 -8.90704,5.46495 -12.00188,10.622455 -1.76935,2.948606 -5.82636,8.61761 -9.01557,12.597787 -3.1892,3.980177 -5.39416,7.487398 -4.89989,7.793824 0.49426,0.306427 1.56549,1.850665 2.38049,3.431643 1.40063,2.716972 1.37477,2.981908 -0.47191,4.834353 -1.68842,1.693692 -2.33175,1.816723 -4.73717,0.905942 l -2.78342,-1.053908 1.50384,2.917175 c 0.92245,1.789422 1.5461,5.487284 1.61316,9.565319 0.0987,6.000689 0.2912,6.643683 1.97656,6.602301 1.06165,-0.02606 2.26136,0.853236 2.78079,2.038086 0.8122,1.85268 1.01027,1.9106 1.78496,0.52197 0.47926,-0.85907 0.89117,-3.484337 0.91534,-5.833927 z M 522.35643,65.307059 c 2.55394,-1.198858 6.25263,-9.994559 4.20281,-9.994559 -0.29895,0 -7.2382,5.7509 -15.42056,12.779777 l -14.877,12.779778 0,4.174367 0,4.174367 12.20942,-11.563519 c 6.71519,-6.359936 12.96358,-11.917531 13.88533,-12.350211 z m -28.8226,18.897914 c 1.60873,1.007804 1.79327,0.851456 1.79327,-1.519266 0,-3.243505 -3.81187,-13.214547 -6.49907,-17.00016 -1.10069,-1.550605 -2.5354,-2.574284 -3.23208,-2.306112 -1.13268,0.436009 -2.9383,-1.384463 -13.34513,-13.454914 -2.6435,-3.066089 -6.76907,-4.423963 -7.46888,-2.458276 -0.20755,0.582996 0.61451,1.309717 1.82681,1.614934 1.28897,0.324523 3.73118,2.798905 5.88182,5.959316 4.8983,7.198134 9.66715,12.459505 11.29316,12.459505 0.72778,0 1.70358,-0.949219 2.16846,-2.109375 0.57197,-1.427452 0.86437,-1.616101 0.90446,-0.583542 0.0791,2.039075 -2.3689,3.975602 -4.15609,3.287649 -1.21139,-0.466307 -1.26507,-0.226639 -0.34396,1.535741 0.60028,1.148552 2.29226,3.625549 3.75993,5.504437 1.84893,2.366939 2.66852,4.489752 2.66852,6.911667 0,3.080603 0.1754,3.349479 1.47775,2.265244 1.16351,-0.968644 1.85911,-0.991365 3.27103,-0.106848 z M 305.55176,80.223595 c 1.4104,-1.704743 -0.17712,-4.961444 -5.2883,-10.848595 -2.83681,-3.26749 -13.11255,-17.670647 -21.00704,-29.444833 -0.35756,-0.533289 -0.90818,-0.71075 -1.22358,-0.394359 -0.97979,0.982854 2.12262,11.200883 4.04067,13.308281 1.001,1.099814 2.54405,3.476223 3.42901,5.280911 4.4907,9.157882 12.18311,21.503865 13.9265,22.351453 2.82049,1.371247 4.84834,1.2875 6.12274,-0.252858 z M 96.261682,76.125696 c 0,-1.102512 -21.229027,-7.053808 -22.886258,-6.415882 -1.860715,0.716255 -1.821444,5.191733 0.05188,5.912843 0.805579,0.310096 1.941093,0.08592 2.523364,-0.498173 1.357201,-1.361442 7.331787,-1.216411 13.301667,0.322893 5.844047,1.506859 7.009346,1.619629 7.009346,0.678319 z M 138.22551,63.452382 c 2.58954,-4.804314 5.56216,-9.510325 6.60585,-10.4578 1.90339,-1.727924 2.57097,-4.244582 1.12594,-4.244582 -1.24274,0 -4.29937,3.795219 -8.04351,9.987119 -1.91842,3.172603 -4.50486,6.726611 -5.74764,7.897794 -2.75346,2.594822 -2.99542,5.552587 -0.45423,5.552587 1.31805,0 3.07623,-2.35781 6.51359,-8.735118 z m 339.67028,0.02304 c -1.91639,-2.222277 -2.75688,-2.694953 -3.00035,-1.687315 -0.18601,0.769868 0.59656,2.159052 1.73906,3.087076 3.38523,2.749762 4.1284,1.925002 1.26129,-1.399761 z M 135.23322,60.561207 c -0.50694,-1.525551 -2.649,-1.248632 -3.73804,0.483242 -0.52334,0.832259 -0.64308,2.308822 -0.26608,3.28125 0.64526,1.66434 0.79283,1.635994 2.51592,-0.483242 1.00674,-1.238211 1.67643,-2.714774 1.4882,-3.28125 z m 196.82859,67.271973 c -0.3472,-0.90762 0.0373,-2.00182 0.93486,-2.66018 0.83858,-0.61509 2.76721,-3.89635 4.28584,-7.29169 3.52276,-7.87611 1.99339,-8.91322 -3.57729,-2.42586 -3.14632,3.66408 -4.50229,4.58935 -6.39394,4.36303 -3.15996,-0.37806 -3.73549,-2.39898 -0.98537,-3.46012 1.19831,-0.46238 3.22931,-2.25794 4.5133,-3.99014 1.83086,-2.46998 2.26525,-4.02237 2.01344,-7.19534 -0.22036,-2.77651 0.15384,-4.57231 1.19267,-5.723797 1.67208,-1.853411 1.08104,-4.761583 -0.96774,-4.761583 -0.71603,0 -1.30188,-0.421875 -1.30188,-0.9375 0,-1.876997 3.4655,-0.877598 4.44656,1.282322 0.56767,1.249781 2.08566,2.426428 3.47375,2.692603 2.33318,0.447413 2.77099,-0.137109 8.15805,-10.891697 5.32059,-10.621878 5.95431,-12.606351 9.69824,-30.369631 3.53355,-16.765072 4.35274,-19.444706 6.95008,-22.734375 C 366.1218,31.678149 367.84521,30 368.33216,30 c 1.79018,0 1.9767,3.080325 0.47268,7.806189 -1.84772,5.805812 -7.1226,35.714077 -7.1226,40.384686 0,2.725478 0.76897,4.014998 4.43926,7.444492 5.90524,5.51781 23.44515,20.154033 25.42826,21.218683 0.8652,0.46449 2.34949,2.57165 3.29843,4.68258 3.39555,7.55352 0.71299,6.38809 -18.19322,-7.90399 C 366.73635,96.134681 358.47479,90 358.29597,90 c -0.17883,0 -1.58346,2.500518 -3.12142,5.556703 -1.53795,3.056194 -3.2399,5.831747 -3.78212,6.167897 -0.54221,0.33616 -3.69206,6.0286 -6.99964,12.64987 -6.64445,13.30114 -10.69857,17.72602 -12.33098,13.45871 z m 3.52633,-0.37298 c 1.81277,-0.97319 13.64137,-23.3977 12.34195,-23.3977 -0.37534,0 0.26353,-0.66465 1.4197,-1.47699 1.94921,-1.36955 9.52872,-15.092609 9.52872,-17.2522 0,-0.52707 -0.78963,-0.95831 -1.75473,-0.95831 -1.98287,0 -3.4921,-1.5317 -3.98583,-4.045167 -0.2052,-1.044633 -2.21861,2.106885 -5.21582,8.164104 -2.68489,5.426032 -4.32936,9.652947 -3.6544,9.393129 0.67495,-0.259819 1.79497,0.213871 2.48892,1.052643 0.99727,1.205381 1.027,1.902101 0.14182,3.323911 -0.88093,1.41501 -0.86894,1.81468 0.0563,1.8729 0.9355,0.0589 0.93713,0.17075 0.007,0.54687 -0.64253,0.26007 -1.16823,1.0399 -1.16823,1.73294 0,0.69305 -1.03626,2.07775 -2.3028,3.07713 -1.26654,0.99937 -3.76598,5.0378 -5.55431,8.97429 -1.78833,3.93649 -3.69599,7.15725 -4.23925,7.15725 -0.54326,0 -0.98775,0.63281 -0.98775,1.40625 0,1.66507 0.45034,1.73219 2.87786,0.42895 z m 2.39593,-17.41573 c 8.00526,-8.14863 10.07281,-11.60697 6.93916,-11.60697 -0.51141,0 -4.61837,4.21875 -9.12658,9.375 -4.50821,5.15625 -8.72916,9.375 -9.37988,9.375 -0.65071,0 -1.18312,0.42188 -1.18312,0.9375 0,0.51563 0.87548,0.9375 1.94553,0.9375 1.22214,0 5.2396,-3.35306 10.80489,-9.01803 z m 57.34303,5.22147 c 0,-1.61817 -2.96288,-6.92933 -4.30674,-7.72009 -1.97501,-1.16217 -19.0049,-15.518494 -24.60348,-20.740934 l -5.07846,-4.737255 -1.1878,2.794294 c -0.65329,1.536862 -1.18639,3.21617 -1.18466,3.731795 0.003,0.902701 34.23068,27.35178 35.66021,27.55608 0.38551,0.0551 0.70093,-0.34266 0.70093,-0.88389 z m -52.30731,-6.35108 c 1.15794,-0.94059 1.9179,-2.27423 1.68881,-2.96367 -0.29237,-0.87983 -1.37674,-0.37819 -3.63734,1.68265 -2.25657,2.05718 -2.76216,2.94443 -1.68881,2.96368 0.84258,0.0151 2.47938,-0.74209 3.63734,-1.68266 z m 16.36592,-25.412581 c -0.29574,-0.479996 -0.11027,-1.137706 0.41213,-1.461578 0.5224,-0.323872 0.94982,-2.041886 0.94982,-3.817809 0,-4.446849 6.24431,-39.35057 7.4412,-41.593972 1.18444,-2.220056 1.27371,-5.69142 0.14636,-5.69142 -0.453,0 -1.95812,1.492011 -3.34469,3.315578 -2.06542,2.716368 -3.27563,6.905759 -6.69642,23.180942 -4.66051,22.173503 -4.80616,25.133159 -1.28476,26.107562 1.28504,0.355585 2.46641,0.688571 2.62525,0.739968 0.15884,0.05139 0.0468,-0.299274 -0.24889,-0.779271 z m -92.55135,43.079601 c -0.31111,-0.50498 -0.12565,-1.74286 0.41215,-2.75087 0.53778,-1.00801 0.97779,-3.75892 0.97779,-6.11313 0,-4.0905 -0.1193,-4.28038 -2.68931,-4.28038 -3.70788,0 -5.04099,-1.98698 -4.64912,-6.92947 0.25757,-3.24863 0.0736,-3.94834 -0.8387,-3.18888 -0.64277,0.53511 -1.16866,1.78993 -1.16866,2.78847 0,0.99855 -0.42057,1.55481 -0.93458,1.23613 -2.60713,-1.61633 1.17203,-7.859953 4.07996,-6.74059 1.71468,0.66004 4.08097,-1.171048 4.48605,-3.471429 0.79767,-4.529675 6.1416,-4.201479 7.44107,0.456994 0.49664,1.780453 0.64864,1.455244 0.72219,-1.545281 0.11486,-4.68563 -3.62769,-12.57316 -7.52785,-15.865192 -3.23302,-2.728906 -5.56463,-3.193095 -3.27151,-0.651307 1.88353,2.087783 1.95253,3.343126 0.26114,4.751241 -1.0807,0.899708 -1.08724,1.627669 -0.041,4.567916 0.68451,1.923706 1.21173,5.185148 1.17162,7.247648 -0.0633,3.252122 -0.17741,3.034537 -0.85973,-1.638844 -1.33164,-9.120687 -0.10779,-8.517038 -22.05366,-10.8777 -27.88451,-2.999464 -34.46464,-4.514394 -32.61912,-7.509833 0.49965,-0.810983 6.49006,-0.929043 23.27362,-0.458683 19.40228,0.54375 22.45027,0.44599 21.53727,-0.690776 -0.58491,-0.72829 -4.44629,-8.074164 -8.58081,-16.324164 -5.74543,-11.464377 -7.58749,-16.081663 -7.815,-19.588994 -0.41249,-6.359057 1.37201,-6.517518 4.45066,-0.395213 2.091,4.158222 9.84869,16.475675 29.70787,47.169367 3.33209,5.149968 4.16938,11.248121 2.09648,15.26918 -1.09967,2.13318 -1.50595,5.53325 -1.50595,12.603 0,7.24539 -0.36611,10.20603 -1.45486,11.76531 -1.5259,2.18533 -3.64882,2.72227 -4.60798,1.16548 z m 4.1608,-1.83275 c 0.5321,-0.99735 0.9739,-7.22 0.98177,-13.82812 0.01,-8.43127 0.29726,-11.595332 0.96297,-10.60851 0.69407,1.02888 0.78326,0.6515 0.33232,-1.40625 -0.78568,-3.585188 -1.62052,-4.479309 -3.78043,-4.048847 -1.37282,0.2736 -1.66637,1.025475 -1.40688,3.603544 0.69867,6.941623 0.56683,24.901933 -0.19425,26.460933 -1.15001,2.3557 1.84442,2.18909 3.1045,-0.17275 z m -2.77086,-15.11696 c 0,-1.67316 -0.38933,-2.62646 -0.93458,-2.28842 -0.51402,0.31868 -0.93458,1.6092 -0.93458,2.86783 0,1.25863 0.42056,2.28842 0.93458,2.28842 0.51402,0 0.93458,-1.29053 0.93458,-2.86783 z m -3.93123,-27.267359 c 0.16197,-0.855361 -0.87407,-2.360016 -2.3277,-3.380563 -2.38112,-1.671708 -4.85276,-1.893204 -27.15229,-2.433235 -24.09671,-0.583554 -28.88857,-0.08538 -21.02803,2.186116 1.92757,0.557019 9.18224,1.637204 16.12149,2.400412 6.93925,0.763206 15.35047,1.759572 18.69159,2.214144 9.24767,1.258182 15.34238,0.874955 15.69494,-0.986874 z m 1.12683,-5.23499 c 3.6e-4,-0.117661 -4.80461,-7.741216 -10.67771,-16.941233 -5.87311,-9.200018 -11.63448,-18.701406 -12.80306,-21.114196 -1.16857,-2.412791 -2.4872,-4.386892 -2.93029,-4.386892 -2.30227,0 1.05347,10.119862 7.92728,23.90625 4.1134,8.25 7.90385,15.527344 8.42322,16.171875 0.51936,0.644531 2.4699,1.178335 4.33453,1.186231 2.34121,0.0099 2.98444,0.272081 2.07876,0.847272 -0.93841,0.595979 -0.60628,0.791911 1.16756,0.688769 1.36347,-0.07928 2.47935,-0.240415 2.47971,-0.358076 z M 458.17786,121.6081 c -2.05092,-2.72491 -4.68613,-6.83819 -5.85602,-9.14062 -3.26595,-6.42763 -9.74691,-15.938233 -13.86747,-20.350059 -2.0426,-2.186982 -3.88291,-4.485185 -4.08957,-5.107118 -0.28959,-0.871487 -1.04972,-0.850748 -3.31487,0.09044 -3.66959,1.524745 -21.64451,19.720806 -23.23905,23.524966 -0.64823,1.54649 -1.59464,2.81179 -2.10313,2.81179 -3.17395,0 -1.47541,-6.76511 2.70798,-10.78559 1.73718,-1.66953 2.4615,-3.033878 1.9485,-3.670253 -0.4491,-0.5571 -0.76466,-2.778572 -0.70125,-4.936613 0.0634,-2.158047 -0.16266,-4.202537 -0.50238,-4.543317 -1.05349,-1.056774 -12.11826,5.436436 -13.15555,7.720149 -1.14825,2.528006 -0.0171,4.285654 1.27158,1.975781 0.84563,-1.515788 11.13235,-7.637391 11.7659,-7.00186 0.17195,0.172481 -1.89742,1.494216 -4.59859,2.937188 -2.70118,1.442972 -5.6245,3.515081 -6.49629,4.604681 -1.29184,1.614614 -1.80795,1.758174 -2.79004,0.776074 -2.05697,-2.057018 0.97899,-5.831711 7.64715,-9.507887 3.34168,-1.842279 7.21275,-4.509756 8.60238,-5.927724 1.74558,-1.781183 3.48136,-2.578125 5.61529,-2.578125 2.06009,0 3.47133,-0.614597 4.23765,-1.845509 2.08783,-3.353594 6.57812,-4.956803 12.64926,-4.516283 l 5.57227,0.40432 9.72884,-19.755639 c 8.99433,-18.264136 11.75829,-22.352946 12.92599,-19.121802 1.19784,3.314568 -6.71549,25.869622 -14.24996,40.616163 l -2.874,5.625 10.2778,19.971036 c 8.33172,16.18954 10.06522,20.228 9.15503,21.32813 -1.70524,2.06111 -2.23934,1.75456 -6.26745,-3.59731 z m 5.989,2.55206 c 0.14575,-0.48341 -4.45413,-9.94922 -10.22196,-21.03516 -8.31442,-15.980584 -10.90948,-20.21659 -12.52653,-20.447516 -2.49529,-0.356349 -4.40614,2.747681 -3.51957,5.717303 0.34054,1.14068 2.37448,4.394275 4.51987,7.230213 4.83485,6.39107 8.10399,11.47093 10.82392,16.81908 1.15268,2.2665 3.61599,6.16353 5.47402,8.66006 3.15032,4.23293 4.81414,5.16584 5.45025,3.05602 z m -57.11442,-13.76953 c 0.34998,-1.16016 5.04634,-6.62408 10.43634,-12.142055 9.52442,-9.750562 10.92456,-12.218637 7.20437,-12.699435 -1.25157,-0.161754 -3.00752,1.449982 -5.79303,5.317244 -2.19838,3.052141 -5.86777,7.636535 -8.15418,10.187526 -4.94461,5.51678 -7.63906,11.44609 -5.20144,11.44609 0.47938,0 1.15795,-0.94922 1.50794,-2.10937 z m 6.10177,-14.085943 c -0.1156,-1.120968 -1.39747,-0.903881 -1.79907,0.304688 -0.20561,0.61875 0.13084,0.95625 0.74766,0.75 0.61683,-0.20625 1.08996,-0.680859 1.05141,-1.054688 z m 4.95596,-7.723518 c 3.62375,-1.51883 4.03243,-2.244372 2.26366,-4.018669 -1.20907,-1.212854 -4.36401,-1.472858 -6.74599,-0.555948 -1.74903,0.673262 -1.94009,3.28022 -0.35681,4.868448 1.36143,1.365686 0.79812,1.39989 4.83914,-0.293831 z m 18.7912,-0.502072 c -0.75141,-2.374856 1.77751,-6.50528 4.00802,-6.546223 1.26703,-0.02326 1.0503,-0.527071 -1.00823,-2.34375 -4.62416,-4.080858 -15.73551,-2.631749 -18.42135,2.402454 -1.29044,2.41875 -0.49721,3.679887 1.91634,3.046756 1.08902,-0.285675 2.64992,0.183597 3.65964,1.100235 1.37688,1.249959 2.17168,1.37773 3.64615,0.586153 2.82221,-1.515123 3.80893,-1.251414 4.98213,1.331528 1.284,2.826873 2.06361,3.097684 1.2173,0.422847 z M 453.99378,62.34375 c 5.70341,-14.186762 6.42094,-16.291968 7.10971,-20.859375 1.209,-8.017238 -1.81358,-3.771925 -11.4585,16.093847 l -9.70079,19.980876 2.19228,2.974483 2.19227,2.974482 2.75958,-5.425907 c 1.51776,-2.984248 4.62521,-10.066531 6.90545,-15.738406 z m -314.38593,61.92087 c -0.28621,-0.74821 0.56634,-2.78961 1.89457,-4.53646 1.32823,-1.74685 5.5881,-10.09952 9.46637,-18.56149 5.54809,-12.105348 7.98969,-16.350388 11.45252,-19.911672 7.95353,-8.179659 15.30173,-11.033224 23.59691,-9.163514 2.63261,0.593382 4.49586,0.611461 5.05655,0.04906 1.50181,-1.506375 5.74409,-0.987766 7.45772,0.911688 0.89425,0.991229 1.85548,3.519119 2.13606,5.617532 0.42787,3.199997 1.24407,4.376743 5.06098,7.296658 4.93964,3.778788 5.09958,4.045619 3.42935,5.721075 -1.85306,1.858848 -3.53485,1.3135 -8.3055,-2.693193 -3.01513,-2.532297 -5.26205,-3.716296 -6.67175,-3.515625 -2.74759,0.391115 -2.76513,3.02395 -0.0227,3.414647 2.84321,0.405073 2.68224,2.044175 -0.20081,2.044175 -2.37475,0 -4.79675,-3.022931 -3.76445,-4.698451 0.30827,-0.500334 -0.15602,-1.862709 -1.03174,-3.0275 -1.39878,-1.860503 -2.39112,-2.109634 -8.16794,-2.050596 -5.39162,0.0551 -6.75474,0.381653 -7.5699,1.813456 -0.54679,0.960439 -2.49912,3.461449 -4.33849,5.557797 -2.95104,3.363324 -14.29142,21.105654 -17.79894,27.846914 -1.11757,2.1479 -9.30872,9.24588 -10.66986,9.24588 -0.2687,0 -0.72272,-0.61217 -1.00894,-1.36038 z m 5.81808,-2.85837 c 2.11043,-1.54687 4.86836,-4.71094 6.12874,-7.03125 1.26038,-2.32031 4.89828,-8.45553 8.08425,-13.63382 6.29066,-10.224497 7.70721,-15.621859 4.62641,-17.627579 -2.62798,-1.71091 -4.6842,1.291417 -12.36406,18.053069 -3.87711,8.46197 -8.09893,16.76585 -9.38182,18.45307 -2.23392,2.93797 -3.10823,5.56984 -1.6316,4.91151 0.38551,-0.17187 2.42765,-1.57812 4.53808,-3.125 z m 63.55037,-30.9375 c 0.22849,-0.87717 -15.81112,-14.454503 -19.56336,-16.560136 -0.9397,-0.527331 -4.51446,-0.994476 -7.94392,-1.0381 -6.6585,-0.08469 -9.78774,1.058944 -15.04923,5.500037 l -2.96318,2.501136 2.03086,2.168504 c 1.52095,1.624043 1.87991,2.828842 1.4297,4.798531 l -0.60116,2.630028 2.78853,-3.28125 c 6.66355,-7.840975 5.97176,-7.429195 11.51661,-6.855128 3.53154,0.365625 5.32398,0.172293 5.81667,-0.627384 0.51872,-0.841925 0.1605,-0.980232 -1.3189,-0.509222 -1.1595,0.36916 -2.61336,0.161853 -3.38807,-0.483103 -1.45259,-1.20931 -1.83232,-4.244838 -0.62466,-4.99354 0.40279,-0.249719 0.71821,0.674601 0.70093,2.054046 -0.0271,2.160804 0.3568,2.513159 2.77232,2.544761 2.83131,0.03704 10.8114,4.951268 17.28972,10.647195 3.13285,2.754497 6.59075,3.486068 7.10714,1.503625 z M 198.62343,75.896433 c 0.96986,-1.574166 -1.44155,-3.708933 -4.18958,-3.708933 -3.59294,0 -4.20757,1.069149 -1.71894,2.990138 2.41713,1.865801 5.00768,2.180951 5.90852,0.718795 z"
       id="path3506"
       inkscape:connector-curvature="0" />
  </g>
</svg>
