<?xml version="1.0" encoding="UTF-8" standalone="no"?>
<!-- Created with Inkscape (http://www.inkscape.org/) -->

<svg
   xmlns:dc="http://purl.org/dc/elements/1.1/"
   xmlns:cc="http://creativecommons.org/ns#"
   xmlns:rdf="http://www.w3.org/1999/02/22-rdf-syntax-ns#"
   xmlns:svg="http://www.w3.org/2000/svg"
   xmlns="http://www.w3.org/2000/svg"
   xmlns:sodipodi="http://sodipodi.sourceforge.net/DTD/sodipodi-0.dtd"
   xmlns:inkscape="http://www.inkscape.org/namespaces/inkscape"
   id="svg3366"
   version="1.1"
   inkscape:version="0.91 r13725"
   width="478.50467"
   height="205.3125"
   viewBox="0 0 478.50467 205.3125"
   sodipodi:docname="bb740203.svg">
  <metadata
     id="metadata3372">
    <rdf:RDF>
      <cc:Work
         rdf:about="">
        <dc:format>image/svg+xml</dc:format>
        <dc:type
           rdf:resource="http://purl.org/dc/dcmitype/StillImage" />
        <dc:title></dc:title>
      </cc:Work>
    </rdf:RDF>
  </metadata>
  <defs
     id="defs3370" />
  <sodipodi:namedview
     pagecolor="#a8a8a8"
     bordercolor="#666666"
     borderopacity="1"
     objecttolerance="10"
     gridtolerance="10"
     guidetolerance="10"
     inkscape:pageopacity="0"
     inkscape:pageshadow="2"
     inkscape:window-width="1692"
     inkscape:window-height="807"
     id="namedview3368"
     showgrid="false"
     inkscape:zoom="1.4142136"
     inkscape:cx="177.99456"
     inkscape:cy="182.94655"
     inkscape:window-x="0"
     inkscape:window-y="0"
     inkscape:window-maximized="0"
     inkscape:current-layer="svg3366" />
  <g
     id="g4388"
     transform="translate(-3.7402753e-4,-0.96345109)">
    <path
       sodipodi:nodetypes="sscccccssssssssssssscsscsssccscccsssscccsssscccssssssssssssssssssssscsssssssccssssssssssssssssssssssssscssssscssssssssssssssssssssssscsssssssssss"
       style="fill:#fefefe"
       d="m 17.62573,125.06596 c -0.34268,-0.34375 -0.623053,-1.82031 -0.623053,-3.28125 l 0,-2.65625 222.429903,0 222.4299,0 0,3.28125 0,3.28125 -221.80685,0 c -121.99377,0 -222.087222,-0.28125 -222.4299,-0.625 z m 45.557954,-9.20742 c -0.537351,-2.14767 0.417467,-11.22886 2.508211,-23.855389 0.463921,-2.801731 0.843492,-7.779713 0.843492,-11.062182 0,-7.315794 1.866998,-11.500013 5.131304,-11.500013 3.007404,0 4.454756,2.864438 3.677838,7.278763 -0.339041,1.926368 -2.249515,10.221263 -4.245499,18.433099 -1.995985,8.211842 -3.629064,15.905402 -3.629064,17.096802 0,1.58949 0.870822,2.53117 3.271028,3.53717 1.799065,0.75405 3.271028,1.60346 3.271028,1.88758 0,0.28413 -2.305072,0.51659 -5.122381,0.51659 -4.677808,0 -5.17303,-0.20243 -5.705957,-2.33242 z m 146.301586,0.38102 c -0.81602,-1.52951 -0.50458,-4.26587 1.44049,-12.65625 2.442,-10.534012 2.52373,-10.704854 5.12142,-10.704854 l 2.63981,0 -2.74092,9.140624 c -3.30031,11.00616 -3.20795,12.54347 0.82296,13.69809 4.47062,1.28057 3.6976,2.47379 -1.60264,2.47379 -3.74407,0 -4.84104,-0.3768 -5.68112,-1.95142 z m 160.55587,-1.56421 -3.41565,-3.51562 1.52446,-9.50012 1.52445,-9.500122 -3.43867,-9.122953 c -1.89127,-5.017642 -3.43867,-10.485797 -3.43867,-12.151474 0,-4.823234 4.79976,-7.960877 7.38955,-4.830614 0.592,0.715545 1.91858,5.757832 2.94797,11.205081 l 1.8716,9.904089 -1.92031,11.290273 -1.92031,11.29027 1.89052,3.7173 c 3.08299,6.06206 2.08553,6.46366 -3.01494,1.21389 z m -266.0338,-8.20985 c -4.426084,-1.38426 -8.368204,-4.8862 -20.788851,-18.46752 l -7.464215,-8.161726 0.646456,-4.324341 0.646455,-4.324342 2.7756,2.642317 c 1.526581,1.453275 7.557105,8.126693 13.401167,14.829818 5.844061,6.703125 12.113058,13.365634 13.931108,14.805594 5.43413,4.30399 4.34384,5.34318 -3.14772,3.0002 z m 125.37646,-5.81144 c -1.15767,-0.2236 -2.53467,-1.212185 -3.06,-2.196841 -1.3066,-2.449017 -0.16297,-6.516263 1.83223,-6.516263 2.12498,0 5.37191,3.57776 6.1684,6.796875 0.67524,2.729119 0.20739,2.910569 -4.94063,1.916229 z m 38.08616,-5.694759 c -4.54983,-1.46215 -6.1976,-6.968595 -2.96379,-9.904294 2.40155,-2.180165 3.79947,-1.934545 4.85608,0.85323 1.85148,4.884963 0.79962,9.916144 -1.89229,9.051064 z m -63.78505,-4.492072 c -1.41355,-0.76926 -2.57009,-1.807057 -2.57009,-2.306214 0,-1.239002 3.477,-1.152657 4.25222,0.105596 0.42037,0.682295 3.26147,0.801921 8.70001,0.366318 6.92804,-0.554906 8.44591,-0.994955 10.67989,-3.096224 2.07388,-1.950671 2.93018,-2.243057 4.20561,-1.436018 2.42355,1.533509 2.01336,5.232136 -0.73493,6.626886 -3.41614,1.733686 -21.21568,1.544796 -24.53271,-0.260344 z m 136.68225,-2.232161 c 0,-0.491363 0.46952,-1.927105 1.04339,-3.190537 0.80491,-1.772097 0.66529,-4.29999 -0.61084,-11.059737 -0.90982,-4.819424 -1.69477,-10.871963 -1.74433,-13.450088 -0.0783,-4.073558 0.16543,-4.724122 1.86085,-4.967116 2.86425,-0.410516 4.80053,2.258604 3.34016,4.604346 -0.88844,1.427048 -0.89917,4.121663 -0.0489,12.267807 0.99347,9.517777 0.94158,10.714861 -0.58795,13.563896 -1.60578,2.991067 -3.2524,4.120794 -3.2524,2.231429 z M 214.51939,85.144081 c 0.2877,-1.160156 0.81193,-4.957031 1.16495,-8.4375 0.35303,-3.480469 0.96483,-6.328125 1.35954,-6.328125 1.22735,0 3.69711,8.566225 3.69711,12.823255 0,4.028752 -0.0191,4.051745 -3.37235,4.051745 -3.02917,0 -3.31911,-0.214645 -2.84925,-2.109375 z m 96.12778,-3.464762 c -3.74174,-1.278548 -6.71408,-3.406 -12.14954,-8.696053 -3.95773,-3.851874 -8.14462,-7.506452 -9.30417,-8.121285 -1.99536,-1.058001 -2.03291,-1.264107 -0.70094,-3.847896 0.77404,-1.501509 1.40735,-3.483791 1.40735,-4.405071 0,-1.061536 4.96345,3.295021 13.5514,11.894442 7.45327,7.463224 13.5514,13.89136 13.5514,14.284748 0,0.962972 -0.59685,0.858835 -6.3555,-1.108885 z m -45.06934,-0.547376 c -1.95506,-2.363065 0.27054,-6.065987 3.6459,-6.065987 2.29663,0 3.92672,-1.418543 10.30041,-8.963688 4.1646,-4.930028 7.57199,-9.570653 7.57199,-10.3125 0,-0.741846 0.42056,-1.348812 0.93458,-1.348812 1.42267,0 1.1167,3.48982 -0.59752,6.815116 -1.29194,2.506157 -11.14519,16.309273 -14.37536,20.138009 -1.37557,1.630471 -6.04969,1.466665 -7.48,-0.262138 z M 218.76091,66.421178 c -0.81215,-0.659434 -5.37111,-7.527097 -10.13103,-15.261472 -4.75992,-7.734375 -10.79163,-16.266907 -13.40381,-18.961181 -2.61216,-2.694275 -4.51399,-5.134826 -4.22626,-5.423446 0.28772,-0.288622 2.42053,0.228285 4.73959,1.14868 4.38575,1.740631 4.31883,1.664537 22.29851,25.356688 5.91493,7.794205 6.50232,8.94604 5.73713,11.25 -0.97182,2.92604 -2.86149,3.638598 -5.01413,1.890731 z m 149.45397,-5.781124 -2.52613,-3.175843 1.94471,-1.746003 c 2.50078,-2.245281 17.72411,-25.169004 19.36998,-29.167877 0.68972,-1.675781 1.66303,-3.046875 2.16293,-3.046875 1.19068,0 -0.0521,9.40312 -1.47395,11.151912 -0.58497,0.719489 -4.21779,7.436237 -8.07293,14.926105 -3.85514,7.489868 -7.4299,13.75665 -7.94392,13.926182 -0.51402,0.169533 -2.07133,-1.120888 -3.46069,-2.867601 z m -88.36174,0.675902 c -1.87641,-0.752908 -1.36799,-6.072098 0.80183,-8.388988 1.66238,-1.775051 2.3213,-1.943047 4.21904,-1.075679 2.5016,1.143374 2.36486,3.191884 -0.48186,7.218057 -1.75501,2.482151 -2.73865,2.969007 -4.53901,2.24661 z m 50.63248,-1.881432 c -2.62338,-2.839525 -2.53792,-4.393566 0.2645,-4.809832 2.62178,-0.389432 7.30476,3.741815 6.53184,5.76228 -0.89273,2.333691 -4.18683,1.872051 -6.79634,-0.952448 z M 265.00976,46.676648 c -3.53007,-3.744383 -8.06627,-8.993109 -10.08043,-11.663835 -2.01417,-2.670727 -5.4838,-6.168178 -7.71028,-7.772115 -3.98637,-2.871739 -5.31641,-5.612242 -2.72377,-5.612242 4.24369,0 10.86924,4.518195 21.43484,14.617176 6.24411,5.96834 11.35292,11.176748 11.35292,11.574238 0,0.397489 -1.31737,1.834668 -2.92748,3.193728 l -2.9275,2.471018 z M 72.802834,47.780367 c -1.125517,-0.656972 -1.482704,-1.591006 -1.08686,-2.842097 0.585684,-1.851093 20.129689,-22.372314 21.30695,-22.372314 1.432647,0 0.446044,3.059634 -1.601531,4.96664 -4.753761,4.427407 -13.514524,16.045143 -14.023155,18.596245 -0.563328,2.825444 -1.814142,3.27497 -4.595404,1.651526 z m 1.209188,-9.567031 c 0,-1.887438 2.384962,-3.678264 4.384226,-3.292038 1.354721,0.261711 1.098353,0.731195 -1.356972,2.485004 -2.269302,1.620934 -3.027254,1.822996 -3.027254,0.807034 z"
       id="path3384"
       inkscape:connector-curvature="0" />
    <path
       sodipodi:nodetypes="cssssssscsssssssssssssssssssscsssscssssscc"
       style="fill:#007f7f"
       d="m 222.58602,83.737831 c -0.0219,-1.486168 -3.21838,-11.238977 -5.10569,-15.577813 -0.68257,-1.569194 -0.54611,-1.634279 1.32282,-0.630934 2.61409,1.403394 4.54961,0.694897 5.60501,-2.051722 0.62282,-1.620868 0.94069,-1.793942 1.32955,-0.723906 3.16213,8.701485 6.21823,18.255131 6.21823,19.438749 0,1.316906 -0.1851,1.308816 -1.7091,-0.0747 -2.11633,-1.921234 -3.33337,-1.957824 -4.83295,-0.145299 -1.5561,1.880836 -2.79827,1.777883 -2.82787,-0.234375 z m 41.64836,-11.437896 c 0.36237,-3.325998 1.40743,-7.799109 2.32238,-9.940244 3.18289,-7.448604 11.30134,-14.62571 14.50785,-12.825651 1.17405,0.659088 1.0179,1.151171 -0.95542,3.010804 -2.75191,2.593362 -3.30508,8.153225 -0.90318,9.0778 1.18475,0.456049 1.06521,0.755929 -0.64224,1.611201 -1.21207,0.607138 -2.45228,2.436358 -2.93716,4.332111 -1.12494,4.398164 -3.22886,6.5625 -6.37934,6.5625 -1.62517,0 -3.18281,0.793868 -4.13881,2.109375 -1.46034,2.009509 -1.50172,1.823074 -0.87408,-3.937896 z M 66.535387,71.195437 c 0,-0.811371 1.051401,-3.458815 2.336448,-5.883208 1.849565,-3.489423 2.336449,-5.77206 2.336449,-10.953865 0,-6.181207 0.100707,-6.491811 1.807718,-5.575393 2.859912,1.535362 3.804941,1.173389 5.118557,-1.960549 1.295615,-3.090988 1.78389,-2.872462 2.761796,1.236033 0.515084,2.16403 -0.132695,5.926346 -3.659304,21.25336 -0.473969,2.05992 -0.625858,2.109033 -2.17453,0.703125 -2.339147,-2.123514 -5.360734,-1.879081 -7.072271,0.572115 -1.066494,1.527393 -1.454863,1.689797 -1.454863,0.608382 z M 360.5978,68.249228 c -0.40255,-1.60888 -2.08971,-3.352358 -4.76732,-4.926444 -3.64701,-2.143968 -4.56473,-2.319837 -7.64844,-1.465722 -4.1785,1.157344 -4.59747,0.909457 -2.9731,-1.759013 1.10498,-1.815221 0.96049,-2.262897 -1.3919,-4.31235 l -2.62488,-2.286858 2.62488,-1.027035 c 2.16237,-0.846069 4.02463,-0.581002 10.56881,1.504324 9.24565,2.946161 11.26157,4.080704 13.92979,7.839591 1.95084,2.748267 1.95116,2.76039 0.0598,2.264244 -2.09824,-0.550412 -5.385,1.904871 -6.47682,4.838327 -0.60838,1.63457 -0.74161,1.566044 -1.30084,-0.669064 z"
       id="path3380"
       inkscape:connector-curvature="0" />
    <path
       sodipodi:nodetypes="ssscccsssssssssssssssssssssscccsssssssssssscssscccccscccccsccccsscccccssccccccssssssssccccccsscssscccsssssssccccccsssssssssssssssscccssscssccccssssssscscccssssssssssssssssssssscccsssssssccsscsssccscssscccccssssscssssssscsccsssscsssssssssssccssccsssssscssssccscssssssccccsscccssssssssscccssscccscccccscccccscsssssssssssssssssssssssssssccscssscssccccc"
       inkscape:connector-curvature="0"
       id="path3378"
       d="m 244.64062,21.03125 c -3.57129,-0.149262 -3.31492,2.626376 1.78321,6.53125 2.30243,1.76353 6.88176,6.528973 10.17773,10.589844 3.29596,4.060869 7.90502,9.238327 10.24219,11.505859 l 4.25,4.123047 -2.1875,2.908203 c -5.08297,6.760159 -7.57956,19.265782 -4.7207,23.642578 1.50201,2.299531 1.4847,2.508533 -0.37305,4.492188 -1.07183,1.144481 -1.94922,3.140692 -1.94922,4.435547 0,2.306244 2.82647,5.687262 5.60742,6.707031 4.64337,1.702714 9.34571,-1.021582 9.34571,-5.414063 0,-2.217187 0.19589,-2.299283 4.20507,-1.748046 2.59112,0.356262 4.20508,0.214774 4.20508,-0.369141 0,-0.875043 -4.17759,-2.317856 -7.47656,-2.582031 -0.77102,-0.06174 -2.33766,-0.624693 -3.48242,-1.251954 -1.901,-1.041633 -1.95462,-1.280951 -0.62696,-2.759765 0.79952,-0.890526 3.75617,-4.783203 6.57032,-8.650391 2.81415,-3.867187 5.46886,-7.385827 5.90039,-7.820312 1.27416,-1.282895 4.74025,1.108631 12.37695,8.541015 5.72372,5.570584 8.28062,7.355112 12.56055,8.771485 9.78314,3.237565 8.71663,1.135458 -7.59766,-14.998047 C 294.46721,58.80114 286.44565,51.728502 283.35742,49.96875 280.53032,48.357798 272.7506,41.839166 266.06836,35.484375 257.20767,27.057886 252.7084,23.468732 249.44922,22.222656 c -2.00311,-0.765846 -3.61817,-1.141652 -4.8086,-1.191406 z m -0.14453,0.597656 c 4.24369,0 10.868,4.518205 21.4336,14.617188 6.24411,5.968339 11.35351,11.176728 11.35351,11.574218 0,0.39749 -1.31762,1.8343 -2.92773,3.19336 l -2.92774,2.470703 -6.41796,-6.806641 c -3.53007,-3.744383 -8.06592,-8.993336 -10.08008,-11.664062 -2.01417,-2.670727 -5.48446,-6.169501 -7.71094,-7.773438 -3.98637,-2.871739 -5.3153,-5.611328 -2.72266,-5.611328 z M 93.138672,21.943359 c -0.9635,0.130164 -3.189764,1.9545 -5.97461,4.923829 -4.964042,5.292884 -5.284952,5.474519 -6.84375,3.90625 -1.790408,-1.801288 -6.773788,-2.227568 -7.738281,-0.66211 -0.414686,0.673073 -1.017372,0.64137 -1.912109,-0.103516 -1.741935,-1.450195 -3.976911,-0.483132 -4.957031,2.144532 -1.79893,4.822867 -2.075435,6.351562 -1.146485,6.351562 0.528024,0 1.454304,-1.65449 2.058594,-3.677734 0.909229,-3.044219 1.358743,-3.516624 2.607422,-2.734375 0.829894,0.519899 1.596608,2.387278 1.703125,4.148437 0.668129,11.051216 -0.851866,25.751563 -2.990235,28.925782 -1.499048,2.225204 -1.974328,5.021967 -2.472656,14.53125 -0.339404,6.476634 -1.1826,15.572265 -1.873047,20.21289 -0.690447,4.640634 -1.257918,10.645334 -1.261718,13.343754 l -0.0078,4.90625 -22.896484,0.25 -22.898438,0.25 -0.300781,2.63476 c -0.407479,3.56481 1.292567,5.33399 5.126953,5.33399 3.787263,0 3.813101,0.0215 16.982422,14.94336 l 10.292969,11.66211 -10.910157,16.16796 -10.910156,16.16602 -6.542968,0.34375 c -3.598131,0.18913 94.393319,0.32367 217.757809,0.29883 l 224.29883,-0.0449 -215.98047,-0.47071 -215.980466,-0.47265 19.017578,-28.0918 C 59.846741,141.68036 68.40431,128.49677 68.40431,127.834 c 0,-0.97715 37.24577,-1.24981 196.96289,-1.4375 l 196.96289,-0.23046 -222.42969,-0.47266 -222.429684,-0.4707 -0.292969,-3.04688 -0.292968,-3.04687 222.722651,-0.21094 c 122.49752,-0.11653 214.95268,-0.33884 205.45703,-0.49219 -1.13307,-0.0183 -1.82118,-0.0442 -2.82226,-0.0645 l -38.5586,-0.16992 -7.99023,0 -19.43945,0 -2.06836,-4.27149 -2.06836,-4.27148 1.9082,-11.218752 c 1.81119,-10.648843 1.83372,-11.636054 0.43359,-19.400391 -0.81137,-4.499414 -1.85723,-9.350343 -2.32226,-10.779297 -0.6878,-2.113434 -0.40013,-3.250192 1.54101,-6.09375 1.31247,-1.922609 4.9147,-8.558594 8.00391,-14.746094 3.08921,-6.1875 6.18032,-11.891422 6.86914,-12.675781 1.65266,-1.881913 2.20657,-11.36177 0.69531,-11.896484 -0.62117,-0.219779 -2.24285,1.82604 -3.63671,4.58789 -2.92949,5.804534 -14.63006,23.565147 -17.84961,27.09375 l -2.20899,2.421875 -9.03711,-3.158203 c -10.20758,-3.567562 -12.671,-3.469783 -16.61914,0.664063 l -2.60351,2.726562 -2.32618,-1.833984 c -3.20859,-2.531766 -5.49263,-2.300464 -8.66015,0.876953 -2.61166,2.619818 -2.68641,2.946351 -2.19336,9.609375 0.28073,3.793571 0.52405,7.845703 0.53906,9.005859 0.0151,1.160156 0.35902,2.109375 0.76367,2.109375 1.34756,0 1.82895,-2.797436 0.90235,-5.242187 -1.28476,-3.389724 -0.47185,-4.112198 3.31836,-2.945313 2.99892,0.923271 3.51842,0.786079 5.98046,-1.580078 l 2.69727,-2.591797 0.53711,2.664063 c 2.23614,11.084851 2.60864,15.49157 1.5293,18.105468 -1.09962,2.663005 -0.70703,4.714844 0.90234,4.714844 0.44176,0 1.7256,-1.49741 2.85352,-3.328125 1.82492,-2.962005 1.98319,-4.123513 1.4375,-10.546875 -0.33727,-3.970066 -0.83241,-8.355352 -1.10157,-9.74414 -0.44547,-2.298444 -0.14601,-2.617017 3.33985,-3.558594 3.35951,-0.907447 4.27557,-0.783798 7.4707,1.017578 3.427,1.932103 3.93326,2.828442 8.54883,15.169922 l 4.9043,13.117187 -1.52149,9.482421 -1.52148,9.48438 3.41601,3.51562 3.41602,3.51563 -75.79102,0 c -64.24769,0 -75.86757,-0.20123 -76.29492,-1.31836 -0.27727,-0.72482 -1.7943,-1.60182 -3.37109,-1.94922 -3.57225,-0.78705 -3.58798,-1.90169 -0.1875,-13.13867 2.48387,-8.208046 2.63585,-8.446172 5.57812,-8.734379 2.77036,-0.271369 2.97604,-0.107554 2.46485,1.935547 -0.81068,3.240119 2.03882,6.166922 6.69726,6.880862 5.24703,0.80414 8.06755,-1.82172 7.68359,-7.156252 -0.21329,-2.963323 0.25059,-4.198603 2.43555,-6.486329 3.59056,-3.759451 2.23167,-4.885598 -1.61914,-1.341797 -2.13337,1.963301 -3.75968,2.687621 -5.52539,2.458985 -2.24262,-0.290393 -2.45339,-0.635666 -2.03516,-3.316406 0.31616,-2.026503 -0.71,-6.351469 -3.18164,-13.414063 C 226.30485,63.832959 224.6744,60.797999 219.05274,53.392548 199.9789,28.26652 200.48945,28.846767 195.87695,27.029297 c -6.80794,-2.68254 -7.38719,-0.814904 -1.59961,5.154297 2.62068,2.702922 8.64569,11.167641 13.39063,18.810547 l 8.62695,13.896484 -1.07422,8.603516 c -1.89402,15.158617 -1.72658,14.697265 -5.34375,14.697265 -1.74883,0 -3.95914,-0.488933 -4.91211,-1.085937 -1.87221,-1.17286 -4.78515,-0.521217 -4.78515,1.070312 0,1.654023 5.8991,4.695519 9.11328,4.699219 1.67056,0.0019 3.03711,0.176577 3.03711,0.388672 0,0.212096 -1.07479,4.949391 -2.38867,10.527348 -1.81625,7.71069 -2.15707,10.65288 -1.42188,12.27148 l 0.9668,2.12891 -4.58203,0 c -37.11805,0.15455 -74.44834,-0.002 -108.650394,0 -19.130529,0 -20.709295,-0.12915 -22.921875,-1.875 -1.306938,-1.03125 -2.948681,-1.875 -3.65039,-1.875 -0.701707,0 -1.277258,-0.94921 -1.277344,-2.10938 -1.58e-4,-2.11146 6.472994,-29.880407 7.140625,-30.632811 0.194832,-0.21957 5.640708,5.157501 12.103516,11.949219 C 98.412677,104.9605 99.832753,106.12244 104.55664,107.5 c 3.96015,1.15485 5.40508,1.24676 6.23047,0.39648 0.81682,-0.84144 -0.17731,-2.27025 -4.14453,-5.95312 C 103.77177,99.278083 98.331353,93.511718 94.552734,89.128906 90.774115,84.746093 85.462297,78.839843 82.75,76.003906 l -4.931641,-5.15625 2.277344,-10.08789 c 2.155901,-9.55167 2.270321,-15.03829 0.337891,-16.236328 -0.447627,-0.277514 -0.814453,-0.847948 -0.814453,-1.267579 0,-0.895913 8.685264,-11.587353 12.392578,-15.255859 2.726805,-2.698261 3.259156,-4.891026 1.460937,-6.005859 -0.08403,-0.05209 -0.196341,-0.06938 -0.333984,-0.05078 z m -0.115234,0.623047 c 1.432647,0 0.446012,3.059791 -1.601563,4.966797 C 86.668114,31.96061 77.907068,43.577804 77.398438,46.128906 76.83511,48.95435 75.583996,49.404694 72.802734,47.78125 71.677214,47.124278 71.320953,46.190544 71.716797,44.939453 72.302481,43.08836 91.846176,22.566406 93.023438,22.566406 Z m 296.142582,0.9375 c 1.25199,0 -0.082,9.463208 -1.58594,11.25 -0.651,0.773437 -4.03243,7.059034 -7.51563,13.96875 -7.03,13.945577 -8.6918,16.14342 -11.62109,15.375 -1.2057,-0.316281 -2.72484,0.165813 -3.91797,1.242188 -1.0718,0.966914 -2.25415,2.576527 -2.62695,3.578125 -0.60838,1.634571 -0.74155,1.567139 -1.30078,-0.667969 -0.40255,-1.60888 -2.08997,-3.353648 -4.76758,-4.927734 -3.64701,-2.143968 -4.56473,-2.318959 -7.64844,-1.464844 -4.17849,1.157344 -4.59703,0.908704 -2.97266,-1.759766 1.10498,-1.815221 0.96177,-2.261094 -1.39062,-4.310547 l -2.625,-2.287109 2.625,-1.03125 c 2.19378,-0.860737 4.1158,-0.542376 11.71094,1.931641 7.53103,2.453132 9.58964,3.552364 12.01367,6.421875 1.60878,1.904445 2.48452,2.585375 1.94531,1.511718 -0.53921,-1.073658 -1.65344,-2.511675 -2.47461,-3.195312 -1.34245,-1.117615 -1.218,-1.536258 1.22461,-4.142578 3.4209,-3.65018 17.09456,-24.374965 18.76758,-28.445313 0.68878,-1.675781 1.66026,-3.046875 2.16016,-3.046875 z m -197.97461,3.199219 c 0.0902,-0.01183 0.20543,-0.01113 0.34375,0 0.82994,0.06676 2.46577,0.530407 4.20507,1.220703 4.38575,1.740631 4.31915,1.665271 22.29883,25.357422 5.91493,7.794205 6.50151,8.94604 5.73633,11.25 -0.97182,2.92604 -2.86103,3.638492 -5.01367,1.890625 -0.81215,-0.659434 -5.37094,-7.527344 -10.13086,-15.261719 -4.75992,-7.734375 -10.79212,-16.266662 -13.4043,-18.960937 -2.61216,-2.694274 -4.51429,-5.135208 -4.22656,-5.423828 0.036,-0.03608 0.10119,-0.06044 0.19141,-0.07227 z M 77.634766,34.875 c 0.25655,-0.01569 0.51181,-0.0014 0.761718,0.04687 1.354721,0.26171 1.097903,0.730566 -1.357422,2.484375 -2.269301,1.620934 -3.027343,1.822603 -3.027343,0.806641 0,-1.651508 1.8272,-3.228057 3.623047,-3.337891 z m 2.076172,9.732422 c 0.04672,0.01414 0.08709,0.04898 0.11914,0.105469 1.568928,2.764799 1.403833,6.864609 -0.638672,15.929687 l -2.285156,10.140625 5.355469,5.658203 c 2.945135,3.111402 9.008761,9.875 13.474609,15.03125 4.465852,5.15625 9.605552,10.552224 11.421872,11.992184 1.81633,1.43995 3.30274,3.02198 3.30274,3.51563 0,1.17569 -1.40905,1.05352 -6.70703,-0.58203 -3.69605,-1.14101 -6.189799,-3.26222 -16.173832,-13.761721 L 75.775391,80.222656 76.365234,76.154297 c 0.454665,-3.13577 0.220722,-4.478133 -1.02539,-5.859375 -2.165819,-2.400681 -5.563749,-2.264671 -7.34961,0.292969 -2.389972,3.422826 -1.772283,-0.266237 0.882813,-5.275391 1.849565,-3.489423 2.335937,-5.77132 2.335937,-10.953125 0,-6.181207 0.09963,-6.49259 1.806641,-5.576172 2.859912,1.535362 3.805525,1.173001 5.119141,-1.960937 0.59125,-1.410559 1.249156,-2.313863 1.576172,-2.214844 z m 200.115232,4.646484 c 0.72003,0.07929 1.53285,0.486079 2.7793,1.220703 l -2.28516,2.021485 c -2.95667,2.614659 -3.63234,8.15728 -1.11328,9.126953 1.18475,0.456049 1.06487,0.756056 -0.64258,1.611328 -1.21207,0.607138 -2.45262,2.436278 -2.9375,4.332031 -1.11123,4.344585 -3.22266,6.5625 -6.24609,6.5625 -2.55098,0 -4.73535,1.508237 -4.68555,3.234375 0.0156,0.541406 0.45654,0.246094 0.98047,-0.65625 0.5544,-0.954834 2.06601,-1.640625 3.61524,-1.640625 2.21264,0 3.94044,-1.512178 10.23437,-8.96289 4.1646,-4.930028 7.57031,-9.570653 7.57031,-10.3125 0,-0.741846 0.42153,-1.34961 0.93555,-1.34961 1.42267,0 1.11656,3.489157 -0.59766,6.814453 -1.29194,2.506157 -11.14483,16.309936 -14.375,20.138672 -1.41893,1.681869 -6.06915,1.444504 -7.57617,-0.386719 -1.88558,-2.29123 -1.36058,-12.947839 0.89844,-18.234374 2.19343,-5.133063 6.86771,-10.700484 10.61914,-12.646485 1.25586,-0.651459 1.99826,-0.964221 2.82617,-0.873047 z M 282.64844,50.5 c 0.17398,0.102779 0.32862,0.19034 0.52148,0.306641 1.90226,1.147159 3.58943,2.176522 3.74805,2.289062 0.60094,0.426364 -2.39801,6.553408 -3.76367,7.689453 -4.12796,3.433882 -6.2132,-3.758774 -2.36524,-8.158203 z m 48.61523,4.103516 c 2.67193,0.14039 6.74414,3.889019 6.01953,5.783203 -0.89273,2.333692 -4.18736,1.873327 -6.79687,-0.951172 -2.62338,-2.839525 -2.53875,-4.394281 0.26367,-4.810547 0.16387,-0.02434 0.33554,-0.03084 0.51367,-0.02148 z m 10.17774,0.921875 c 2.56745,-0.03643 4.18355,2.447351 2.81445,4.646484 -0.88846,1.427048 -0.89914,4.121434 -0.0488,12.267578 0.99347,9.517777 0.94165,10.715418 -0.58789,13.564453 -2.56657,4.780723 -4.44552,3.965029 -2.20898,-0.958984 0.80491,-1.772098 0.66675,-4.300799 -0.60938,-11.060547 -0.90982,-4.819423 -1.69463,-10.871094 -1.74414,-13.449219 -0.0783,-4.073558 0.16396,-4.723804 1.85938,-4.966797 0.17902,-0.02566 0.35423,-0.04054 0.52539,-0.04297 z m -51.31055,0.9375 c 1.06745,0.240297 5.80585,4.516522 13.32031,12.041015 7.45327,7.463224 13.55274,13.891768 13.55274,14.285156 0,0.962972 -0.59682,0.858345 -6.35547,-1.109374 -3.74174,-1.278549 -6.71493,-3.40526 -12.15039,-8.695313 -3.95773,-3.851874 -8.14514,-7.506261 -9.30469,-8.121094 -1.99536,-1.058001 -2.03314,-1.26582 -0.70117,-3.849609 0.77404,-1.501509 1.40819,-3.483017 1.4082,-4.404297 0,-0.132692 0.078,-0.180812 0.23047,-0.146484 z m -10.63867,7.298828 c 0.24962,0.0081 0.4719,0.08856 0.64062,0.257812 0.23799,0.238735 -0.41021,1.198636 -1.4414,2.134766 -1.71094,1.55322 -1.875,1.563823 -1.875,0.121094 0,-1.136235 1.35851,-2.345221 2.41797,-2.498047 0.0883,-0.01274 0.1746,-0.0183 0.25781,-0.01563 z m -54.72461,0.154297 c 0.57508,0.112145 2.00954,3.567335 4.2793,10.318359 3.43523,10.217635 3.20892,14.439178 -0.88672,16.521484 -3.35747,1.707011 -21.19435,1.496068 -24.47461,-0.289062 -1.41355,-0.76926 -2.57032,-1.805531 -2.57032,-2.304688 0,-1.239002 3.47674,-1.152784 4.25196,0.105469 0.42037,0.682295 3.26263,0.800837 8.70117,0.365234 6.9257,-0.554719 8.44464,-0.995191 10.67578,-3.09375 2.3464,-2.206968 2.8058,-2.319251 4.67383,-1.152343 1.89251,1.18221 1.96104,1.158856 0.78906,-0.263672 -1.7523,-2.126901 -2.97536,-1.961309 -5.95117,0.806641 l -2.54102,2.363281 0.45899,-2.597657 c 0.39057,-2.208257 -1.77804,-9.859321 -4.66406,-16.457031 -0.65694,-1.501807 -0.48524,-1.558404 1.68945,-0.564453 2.72877,1.247199 5.28125,-0.08392 5.28125,-2.753906 0,-0.707198 0.0954,-1.041287 0.28711,-1.003906 z m 142.71094,0.888672 c 0.15395,-0.0088 0.30827,-0.0074 0.46093,0.0059 0.81416,0.07067 1.60061,0.461575 2.24805,1.244141 0.592,0.715545 1.91788,5.757829 2.94727,11.205078 l 1.87109,9.904296 -1.91992,11.291016 -1.91992,11.289061 1.89062,3.7168 c 1.03981,2.04452 1.89063,3.94626 1.89063,4.22461 0,1.2992 -1.78145,0.2065 -4.90625,-3.00977 l -3.41602,-3.51562 1.52539,-9.5 1.52344,-9.500003 -3.4375,-9.123047 c -1.89127,-5.017623 -3.43946,-10.486666 -3.43945,-12.152343 0,-3.391322 2.37244,-5.948326 4.68164,-6.080078 z M 71.667969,69.441406 c 3.007404,0 4.45465,2.864972 3.677734,7.279297 -0.339042,1.926368 -2.25011,10.219804 -4.246094,18.431641 -1.995985,8.211846 -3.628906,15.906256 -3.628906,17.097656 0,1.58949 0.871279,2.53111 3.271485,3.53711 1.799064,0.75405 3.269531,1.60454 3.269531,1.88867 0,0.28413 -2.303785,0.51563 -5.121094,0.51563 -4.677808,0 -5.174104,-0.20205 -5.707031,-2.33203 -0.537351,-2.14768 0.417068,-11.22894 2.507812,-23.855474 0.463921,-2.801731 0.84375,-7.780031 0.84375,-11.0625 0,-7.315794 1.868507,-11.5 5.132813,-11.5 z m 145.376951,0.9375 c 1.22735,0 3.69727,8.567189 3.69727,12.824219 0,4.028755 -0.0198,4.050781 -3.37305,4.050781 -3.02916,0 -3.31947,-0.214645 -2.84961,-2.109375 0.2877,-1.160156 0.813,-4.957031 1.16602,-8.4375 0.35303,-3.480469 0.96466,-6.328125 1.35937,-6.328125 z m 50.28906,13.125 c 1.37455,0 2.94509,3.933033 2.92579,7.326172 -0.0267,4.693226 -2.10933,5.498022 -5.82618,2.25 -3.09266,-2.702559 -1.01083,-9.576172 2.90039,-9.576172 z m -39.17773,8.4375 c 2.12498,0 5.37148,3.57776 6.16797,6.796875 0.52933,2.139379 0.3436,2.557109 -1.09766,2.451169 -4.10941,-0.30207 -6.00689,-1.05401 -6.90234,-2.732419 -1.3066,-2.449017 -0.16317,-6.515625 1.83203,-6.515625 z m -12.10937,0.9375 2.64062,0 -2.74023,9.140624 c -3.30031,11.00616 -3.20865,12.54265 0.82226,13.69727 1.67056,0.47852 3.03712,1.23083 3.03711,1.67187 0,0.44104 -2.08861,0.80274 -4.64062,0.80274 -6.92153,0 -7.31338,-1.35091 -4.24024,-14.60743 2.442,-10.533992 2.5234,-10.705074 5.1211,-10.705074 z m -187.031255,33.750004 18.205078,0 c 16.885272,0 18.172634,0.11892 17.757813,1.64062 -0.245981,0.90234 -3.693704,6.34674 -7.66211,12.09961 l -7.214844,10.46094 -7.904296,-8.94727 C 37.849963,136.96202 33.10527,131.51762 31.654297,129.7832 Z"
       style="fill:#000000" />
    <path
       inkscape:connector-curvature="0"
       id="path4295"
       d="m 164.94814,50.992642 c -0.93796,-0.06218 -1.86763,0.162027 -3.19671,0.644128 -1.75067,0.63503 -3.18275,1.497669 -3.18275,1.918416 0,1.097303 2.63935,0.94619 3.34028,-0.191443 0.32437,-0.526475 1.22918,-0.957217 2.01216,-0.957217 1.04792,0 0.75243,0.884121 -1.12274,3.35026 -1.74398,2.293645 -3.32013,3.35026 -4.99548,3.35026 -1.75067,0 -4.27563,1.838858 -8.87021,6.461221 -3.53231,3.553671 -8.21927,8.049661 -10.41771,9.990949 -3.9124,3.454752 -3.72502,5.523403 -3.36622,8.140338 0.4707,3.433097 0.34831,6.359854 -0.43673,9.059666 -1.30621,5.224864 -4.28919,15.45825 -6.11422,21.0508 -0.28602,0.87648 -0.92394,2.44231 -1.00308,3.3024 -0.50132,5.44897 -0.78332,8.29479 0.83955,8.20415 1.99185,-0.31794 4.28831,-2.78392 5.32851,-7.87909 0.13296,-0.65154 0.0619,-1.73883 0.31908,-2.36911 1.69266,-4.14876 4.62172,-10.96043 5.87492,-13.78393 2.15477,-5.503559 3.7738,-14.069004 3.88071,-14.226651 0.0134,-0.01971 0.0499,-0.01899 0.10969,-0.0082 0.41838,0.09434 1.91173,0.965416 3.60751,2.119835 1.93811,1.319357 4.32304,2.654141 5.30059,2.965382 2.39779,0.763395 3.67083,5.070025 4.52285,15.307504 0.65206,7.83497 0.91702,8.67029 3.09899,9.77558 1.13854,0.57674 0.90054,0.99824 -1.77085,1.14663 l 0,0.58234 c 4.44269,0.006 9.37893,0.009 13.57653,0.0159 l 0,-0.50853 -0.48858,0 -4.22771,-2.91751 -4.22771,-2.91752 0,-10.14253 0,-5.59572 c 0,-3.106723 -1.18037,-5.691261 -2.21556,-6.726454 l -2.31726,-2.279372 c -2.49294,-2.453498 -5.82002,-5.380939 -7.3945,-6.505085 -2.80675,-2.003907 -2.82439,-2.071643 -0.95323,-3.467924 1.04966,-0.783264 3.06778,-2.114505 4.48496,-2.957398 2.46214,-1.464394 2.62564,-1.434713 3.68927,0.648121 1.55259,3.040295 8.67326,10.315983 10.09665,10.316004 1.90193,-1.1e-5 2.50864,-1.876299 1.14069,-3.529738 -1.12249,-1.356736 -0.99533,-1.444943 1.11077,-0.771757 7.20805,2.303969 7.0815,-0.953592 -0.18546,-4.768136 -4.34721,-2.281924 -5.71929,-3.595104 -6.89396,-6.594834 -1.52721,-3.900065 -1.14886,-6.367449 0.69198,-4.520852 1.74864,1.754071 3.76262,1.177607 7.04951,-2.018131 4.97984,-4.841722 4.04295,-8.006062 -3.44997,-11.64216 -1.36039,-0.660159 -2.30661,-1.008708 -3.24456,-1.070879 z"
       style="fill:#000000"
       sodipodi:nodetypes="csscsssssscscccccccscssccccccccsccsssscssssssscc" />
    <path
       sodipodi:nodetypes="cscscsscsscssc"
       inkscape:connector-curvature="0"
       id="path5405"
       d="m 140.39107,77.294326 c -0.92377,0 -3.17462,-0.05238 -4.0921,1.471726 -0.92468,1.53607 -0.50973,4.650431 -0.0379,5.416256 0.30948,0.502358 0.26719,3.28422 -0.0937,6.182031 -0.12128,0.973686 -0.25804,1.788224 -0.42676,2.538611 -1.03041,4.387537 -4.29352,14.83723 -6.32345,21.23838 -0.19666,0.62018 -0.65408,2.16994 -0.72182,2.785 -0.57545,5.22456 -0.878,7.78554 -0.0519,7.85254 0.82686,0.0671 2.7712,-1.89321 4.05638,-6.91886 0.19435,-0.75984 0.0866,-2.25819 0.42851,-3.02035 2.90164,-6.469 7.03785,-17.065061 8.11427,-21.168935 0.37164,-1.298527 0.73041,-2.815985 1.18855,-4.81201 2.13233,-9.290081 1.73053,-11.564389 -2.04008,-11.564389 z"
       style="fill:#fefefe" />
    <path
       id="path5403"
       d="m 161.81749,116.99723 c -2.90478,-1.27853 -2.96435,-1.44218 -3.55264,-9.75573 -0.84243,-11.90537 -1.83709,-14.233782 -7.25742,-16.989056 -6.08325,-3.092256 -7.32838,-4.706119 -5.95821,-7.722706 1.41899,-3.124092 2.38666,-2.996657 7.86234,1.035418 8.8313,6.503033 9.47464,7.804143 9.47464,19.161924 l 0,9.97134 3.96012,2.87766 3.96011,2.87765 -2.76732,-0.0781 c -1.52202,-0.043 -4.09676,-0.66324 -5.72163,-1.37842 z"
       style="fill:#fefefe"
       inkscape:connector-curvature="0" />
    <path
       id="path5387"
       d="m 164.12404,81.361555 c -3.65254,-3.832881 -5.57963,-6.988564 -5.51478,-9.030627 0.022,-0.692699 0.81844,0.20634 1.76987,1.997863 0.95142,1.791533 3.36809,4.376019 5.37035,5.743303 3.86493,2.639245 5.29374,4.879031 3.11242,4.879031 -0.72446,0 -2.85651,-1.615303 -4.73787,-3.58957 z"
       style="fill:#fefefe"
       inkscape:connector-curvature="0" />
    <path
       id="path5383"
       d="m 172.07898,81.059728 c -3.04287,-0.815345 -3.69055,-1.292157 -5.86,-2.183752 -2.07142,-0.824943 -3.35613,-1.634437 -5.23151,-5.346867 -1.32859,-2.630066 -3.27503,-5.243304 -4.32539,-5.8072 -2.43517,-1.307339 -2.44351,-4.005517 -0.0192,-6.206361 1.54717,-1.404542 2.15381,-1.497129 3.33983,-0.509751 0.79709,0.663589 1.44925,2.108564 1.44925,3.211053 0,1.10249 0.71345,3.878532 1.58545,6.168961 1.35113,3.548913 2.40893,4.581421 7.15677,6.985613 3.06422,1.551642 5.57132,3.245717 5.57132,3.764616 0,1.129128 -0.70388,1.114487 -3.66652,-0.07627 z"
       style="fill:#fefefe"
       inkscape:connector-curvature="0" />
    <path
       id="path5373"
       d="m 163.89449,64.355731 c -1.77463,-1.346965 -1.77745,-1.45011 -0.0907,-3.319813 1.93975,-2.150109 4.41591,-2.451262 7.32292,-0.890605 1.92486,1.033366 1.92361,1.051673 -0.22907,3.35026 -2.46193,2.628799 -4.36506,2.862544 -7.0032,0.860158 z"
       style="fill:#fefefe"
       inkscape:connector-curvature="0" />
    <path
       id="path5415"
       d="m 143.75825,78.228029 c -1.76007,-1.950926 -4.13059,-2.43077 -5.79957,-1.173951 -0.52434,0.394853 0.34341,-0.358954 1.92833,-1.675125 1.58492,-1.316172 5.72568,-5.300595 9.20168,-8.854265 3.476,-3.55366 6.66827,-6.461211 7.09394,-6.461211 0.42567,0 0.0633,0.787726 -0.8053,1.750498 -2.23299,2.475144 -1.96153,4.654628 0.80634,6.473872 1.31208,0.862394 2.3856,1.933139 2.3856,2.379442 0,0.66119 -7.59733,6.233379 -12.03898,8.829872 -0.58589,0.342506 -1.83331,-0.228609 -2.77204,-1.269132 z"
       style="fill:#008080"
       inkscape:connector-curvature="0" />
    <path
       style="fill:#fe0000"
       d="m 168.9436,113.33834 c -0.19872,0.19871 -15.85454,0.99587 -18.00359,0.91668 -0.60009,-0.022 -4.15822,-0.72692 -7.90695,-1.56625 -8.39197,-1.87895 -22.25354,-10.47002 -27.08784,-16.788387 -2.43503,-3.182546 -3.2912,-3.778236 -5.04183,-3.507867 -1.98474,0.306514 -2.11378,0.08679 -2.19508,-3.73669 -0.0475,-2.234283 0.16122,-4.309948 0.46384,-4.612572 0.92478,-0.924769 7.24667,5.962121 6.62054,7.212251 -0.81786,1.632977 7.53168,9.505885 15.10666,14.244315 8.27247,5.17472 18.49459,7.63248 28.87228,6.94191 6.79235,-0.45199 10.18857,-0.11999 9.17197,0.89661 z"
       id="path5431"
       inkscape:connector-curvature="0" />
    <path
       inkscape:connector-curvature="0"
       style="fill:#000000"
       d="m 404.52302,53.0859 c -2.72388,0 -4.36385,3.21634 -4.00977,7.86328 0.0607,0.79619 0.19334,1.41402 0.44727,1.94336 -1.75876,-1.97234 -4.6242,-3.23138 -5.99023,-2.09766 -2.92716,2.42931 -1.14237,4.99143 5.81445,8.34766 3.67529,1.77311 6.99706,3.71994 7.38281,4.32422 1.06087,1.66187 0.8702,15.69566 -0.22265,16.37109 -1.40121,0.86599 -1.16377,5.89673 0.42382,8.9668 0.75859,1.46695 1.66563,4.82648 2.01563,7.46484 l 0.63672,4.79687 -7.7168,1.12891 c -4.24405,0.62051 -9.12452,0.89011 -10.8457,0.59961 -2.4045,-0.40584 -3.76636,10e-4 -5.87696,1.75586 -1.51081,1.25586 -2.45028,2.76055 -2.08984,3.34375 0.43712,0.7072 5.83254,0.74805 16.20117,0.74805 19.13669,0 18.70703,0.58148 18.70703,-11.41407 l 0,-8.23437 3.38477,-0.63477 c 1.86213,-0.34934 3.56177,-0.46166 3.77539,-0.24804 0.21362,0.21362 0.94427,4.88334 1.625,10.37695 l 1.23828,9.98828 4.51562,-0.0703 c 2.82619,-0.0123 3.71148,0.18598 4.15235,-0.52735 0.44589,-0.72148 -0.0763,-1.7118 -1.3457,-2.55468 -1.92168,-1.27595 -2.07227,-2.15424 -2.07227,-12.08985 0,-13.06308 -0.53866,-13.87304 -9.24023,-13.87304 l -5.75,0 -0.56836,-8.76563 c -0.44436,-6.85872 -1.01149,-9.36607 -2.60938,-11.52734 -1.87407,-2.53481 -1.91882,-2.90013 -0.52929,-4.43555 3.70646,-4.09559 0.092,-11.1612 -5.30469,-10.36914 -1.54629,0.22695 -3.03235,0.0547 -3.30274,-0.38281 -0.27039,-0.43751 -1.55107,-0.79492 -2.8457,-0.79493 z m 0.6582,2.41601 c 0.10558,0.0117 0.21554,0.0401 0.33008,0.084 1.08166,0.41507 1.14707,1.00275 0.31445,2.83007 -0.77044,1.69108 -0.76227,2.94345 0.0352,4.69336 1.23905,2.71941 1.13576,2.78468 -2.09961,1.31055 -1.77654,-0.80945 -2.1562,-1.46295 -1.5332,-2.62695 0.45582,-0.85164 1.07346,-2.71337 1.37305,-4.13867 0.31991,-1.52207 0.841,-2.23405 1.58007,-2.15235 z"
       id="path4547"
       sodipodi:nodetypes="sccssssscccsccssccscccccssccsssssccccssccc" />
    <path
       inkscape:connector-curvature="0"
       style="fill:#ffffff"
       d="m 414.81794,58.81246 c -2.4796,0 -4.00976,1.89485 -4.00976,4.96484 0,3.10328 1.81255,3.50887 4.14843,0.92774 2.1538,-2.37992 2.07105,-5.89258 -0.13867,-5.89258 z m -18.21484,2.04687 c -0.36882,-0.0224 -0.76834,0.13553 -1.1582,0.52539 -0.57429,0.57429 -0.89731,1.80525 -0.7168,2.73633 0.21631,1.11583 0.72679,1.77854 1.29297,1.96485 1.3196,0.86672 3.99935,1.6623 7.74804,3.54492 2.11434,1.06183 4.07466,2.39882 4.98438,3.33984 0.086,0.10421 0.1692,0.20788 0.2168,0.29688 0.18527,0.34619 0.33608,0.99119 0.46093,1.79882 0.77979,0.0149 1.65233,-0.13587 2.33399,-0.51171 0.72889,-0.4019 1.2432,-1.0114 1.3125,-2.01172 0.0747,-1.07733 -0.0211,-2.37416 -0.33789,-3.41602 -0.24248,-0.79757 -0.60301,-1.41173 -1.07422,-1.73242 -0.0569,-0.001 -0.10616,-0.009 -0.16406,-0.01 -0.73679,-0.005 -1.75886,-0.17901 -2.83399,-0.42968 -1.58563,-0.4104 -3.38176,-1.06068 -4.83594,-1.79688 -0.52124,-0.26388 -1.50009,-0.95821 -2.52343,-1.6875 -0.008,-0.0104 -0.0115,-0.0228 -0.0195,-0.0332 -0.90534,-0.62486 -2.62009,-1.83361 -3.03321,-2.07422 -0.35098,-0.17107 -1.16481,-0.41411 -1.65234,-0.50391 z m 22.79687,29.45703 0,3.79883 0,3.80078 4.15821,-0.57031 4.1582,-0.56836 0.57813,4.64453 c 0.31806,2.55494 0.86433,7.32981 1.21484,10.61133 l 0.63867,5.9668 3.69531,0 c 4.09827,0 4.66701,-0.84284 1.78516,-2.64258 -1.72611,-1.07798 -1.91016,-2.22542 -1.91016,-11.9707 0,-7.11095 -0.38882,-11.17007 -1.14453,-11.92578 -0.64854,-0.64854 -3.75532,-1.14454 -7.16015,-1.14454 l -6.01368,0 z m -5.26367,0.95508 c -2.67493,0 -5.6873,5.96661 -4.31055,8.53906 0.51817,0.96825 1.21663,4.09915 1.55274,6.95899 l 0.61133,5.20117 -8.53516,1.16602 c -4.69466,0.64156 -9.65959,0.88382 -11.0332,0.53906 -2.39433,-0.60093 -7.28153,1.7952 -7.35743,3.60742 -0.053,1.26366 30.95633,0.85032 32.23633,-0.42969 1.57978,-1.57977 1.57978,-22.85773 0,-24.4375 -0.63005,-0.63005 -2.0537,-1.14453 -3.16406,-1.14453 z"
       id="path4543" />
    <path
       style="fill:#008080"
       d="m 412.71638,67.47847 c 0.92276,0.1335 1.69503,0.42465 2.33203,0.95703 0.12335,0.1031 0.23761,0.22462 0.35156,0.34571 0.0578,0.0607 0.12034,0.11221 0.17578,0.17773 l 0.006,0.006 c 0.0312,0.037 0.0574,0.0845 0.0879,0.12305 1.54231,1.95156 2.16225,5.89639 2.51757,13.33984 0.10134,2.12277 0.16713,3.81427 0.19532,5.14063 0.0282,1.32635 0.0174,2.28712 -0.0391,2.95312 l 0,0.002 c -0.0424,0.49815 -0.10951,0.83069 -0.20508,1.02539 l 0,0.002 c -0.0317,0.0642 -0.0676,0.11332 -0.10546,0.14844 -0.0765,0.0716 -0.16456,0.0857 -0.26758,0.0508 -0.10257,-0.0347 -0.21934,-0.11696 -0.34961,-0.24024 -0.15536,-0.14703 -0.31158,-0.28107 -0.4707,-0.40234 -0.15913,-0.12127 -0.3203,-0.23042 -0.48243,-0.32617 -1.73046,-1.02203 -3.60853,-0.59015 -5.17773,1.13476 -0.44523,0.52026 -0.85335,1.15242 -1.20703,1.90039 l -1.65625,3.5 c -0.11353,-1.12534 -0.28473,-2.24439 -0.43557,-3.36523 -0.0232,-1.93792 0.38901,-3.78879 0.91406,-4.11328 0.0448,-0.0277 0.0854,-0.10781 0.12696,-0.16992 0.42857,-1.05672 0.70486,-4.01139 0.79297,-7.12891 10e-4,-0.11404 0.009,-0.21947 0.01,-0.33398 10e-4,-0.0569 -0.001,-0.11297 0,-0.16993 0.007,-2.24867 -0.0919,-4.54452 -0.29883,-6.26953 0.8523,0.002 1.78048,-0.16108 2.57227,-0.59765 0.88419,-0.48752 1.58652,-1.3447 1.67187,-2.57617 0.08,-1.15448 -0.0135,-2.51117 -0.36523,-3.66797 -0.16321,-0.53685 -0.3943,-1.03259 -0.69336,-1.44532 z"
       id="path4539"
       inkscape:connector-curvature="0"
       sodipodi:nodetypes="ccccccsscccccccccccccccccccscccc" />
  </g>
</svg>
