<?xml version="1.0" encoding="UTF-8" standalone="no"?>
<!-- Created with Inkscape (http://www.inkscape.org/) -->

<svg
   xmlns:dc="http://purl.org/dc/elements/1.1/"
   xmlns:cc="http://creativecommons.org/ns#"
   xmlns:rdf="http://www.w3.org/1999/02/22-rdf-syntax-ns#"
   xmlns:svg="http://www.w3.org/2000/svg"
   xmlns="http://www.w3.org/2000/svg"
   xmlns:sodipodi="http://sodipodi.sourceforge.net/DTD/sodipodi-0.dtd"
   xmlns:inkscape="http://www.inkscape.org/namespaces/inkscape"
   id="svg3424"
   version="1.1"
   inkscape:version="0.91 r13725"
   width="550"
   height="275"
   viewBox="0 0 550 275"
   sodipodi:docname="bb751100.svg">
  <metadata
     id="metadata3430">
    <rdf:RDF>
      <cc:Work
         rdf:about="">
        <dc:format>image/svg+xml</dc:format>
        <dc:type
           rdf:resource="http://purl.org/dc/dcmitype/StillImage" />
        <dc:title></dc:title>
      </cc:Work>
    </rdf:RDF>
  </metadata>
  <defs
     id="defs3428" />
  <sodipodi:namedview
     pagecolor="#b6b6b6"
     bordercolor="#666666"
     borderopacity="1"
     objecttolerance="10"
     gridtolerance="10"
     guidetolerance="10"
     inkscape:pageopacity="0"
     inkscape:pageshadow="2"
     inkscape:window-width="1644"
     inkscape:window-height="1012"
     id="namedview3426"
     showgrid="false"
     inkscape:zoom="2"
     inkscape:cx="293.3501"
     inkscape:cy="142.17055"
     inkscape:window-x="0"
     inkscape:window-y="0"
     inkscape:window-maximized="0"
     inkscape:current-layer="svg3424" />
  <g
     id="g4570"
     transform="translate(-111.80445,499.94056)">
    <path
       inkscape:connector-curvature="0"
       id="path3382"
       d="m 156.86051,-332.21859 c -0.34268,-0.34375 -2.07127,-3.08891 -0.62305,-3.28125 l 0,-2.65625 210.74767,0 250.74767,0 0,3.28125 0,3.28125 -250.12462,0 c -115.56854,0 -210.40499,-0.28125 -210.74767,-0.625 z m 439.37696,-7.68602 c 0,-0.44609 0.84112,-1.88373 1.86916,-3.19475 1.02804,-1.31102 1.86916,-2.63768 1.86916,-2.94813 0,-0.31045 -2.28491,-4.04078 -5.07758,-8.28962 -4.79867,-7.30086 -5.14009,-8.21856 -6.21567,-16.70758 -1.20574,-9.51633 -0.7616,-13.72189 1.54282,-14.60895 0.77486,-0.29827 2.1878,0.16486 3.13989,1.02917 1.54077,1.39874 1.67655,2.64273 1.23521,11.31697 l -0.49583,9.7455 5.4212,8.98834 5.4212,8.98832 -3.13624,3.2459 c -2.97139,3.07525 -5.57332,4.21195 -5.57332,2.4348 z m -140.18692,-0.45116 c 0,-0.1786 0.70597,-1.7443 1.56883,-3.47935 1.0468,-2.1049 1.58929,-5.61017 1.6303,-10.53403 0.0338,-4.05867 0.30558,-6.39531 0.60395,-5.19253 0.38216,1.54057 0.75425,0.55031 1.259,-3.35073 0.92671,-7.16219 1.31272,-8.05618 3.47845,-8.05618 2.31554,0 3.1099,2.11953 1.74982,4.66882 -0.5877,1.10155 -1.86778,6.67563 -2.84461,12.38684 -1.73652,10.15281 -3.39897,13.88184 -6.18872,13.88184 -0.69136,0 -1.25702,-0.14612 -1.25702,-0.32471 z m 114.63351,-11.826 c -0.72353,-3.62892 -5.11054,-8.40133 -18.81254,-20.46515 -6.18284,-5.44364 -11.60269,-10.50154 -12.0441,-11.23978 -1.33513,-2.23291 1.50631,-4.25966 4.91808,-3.50796 2.19074,0.48267 5.89371,3.91237 14.82294,13.72905 12.18943,13.40092 14.91134,17.69522 13.86548,21.87529 -0.79957,3.1957 -2.07075,3.01475 -2.74986,-0.39145 z m -105.14015,-8.47432 c 0,-1.28906 0.21213,-1.81641 0.47139,-1.17187 0.25926,0.64453 0.25926,1.69921 0,2.34375 -0.25926,0.64453 -0.47139,0.11718 -0.47139,-1.17188 z m 29.75898,-11.53661 c 0,-1.76211 3.32915,-6.04132 11.40333,-14.65761 7.33125,-7.82346 10.33175,-9.2486 12.91029,-6.13194 1.59717,1.93049 -0.89891,4.70671 -4.96529,5.52253 -2.09098,0.4195 -5.32329,2.98084 -10.78355,8.5451 -4.28864,4.37032 -7.97017,7.94603 -8.18116,7.94603 -0.21099,0 -0.38362,-0.55085 -0.38362,-1.22411 z m -27.82319,-17.68602 c -0.63183,-0.63381 -1.14878,-2.14304 -1.14878,-3.35385 0,-2.71769 11.96595,-18.93901 20.45515,-27.72949 5.77421,-5.97914 12.7166,-10.79362 13.88056,-9.62603 0.28033,0.28122 -1.5478,2.92079 -4.06253,5.86571 -2.51474,2.94492 -9.24265,12.13098 -14.95094,20.41347 -5.70828,8.28249 -10.97405,15.17685 -11.70169,15.32081 -0.72765,0.14395 -1.83995,-0.25683 -2.47177,-0.89062 z m 37.72182,-2.55754 c -1.5273,-1.69292 -1.5013,-1.85376 0.5304,-3.28125 4.38635,-3.08193 8.33376,-0.51825 4.96002,3.22134 -2.08206,2.30785 -3.44894,2.32276 -5.49042,0.0599 z m 74.2958,-10.49271 c -1.23979,-0.49722 -6.7793,-1.26892 -12.31003,-1.7149 -9.68275,-0.78077 -12.07105,-1.31658 -12.07155,-2.70817 -1.7e-4,-0.47681 24.50994,-0.67598 29.10585,-0.23651 1.56433,0.14958 1.71261,3.38066 0.20588,4.48585 -1.87751,1.37716 -1.92526,1.37884 -4.93015,0.17373 z m -2.27998,-6.18169 c -0.33332,-0.33436 -0.60604,-1.80324 -0.60604,-3.26418 0,-2.02093 0.44192,-2.65625 1.84762,-2.65625 1.63658,0 5.50934,4.26637 4.58739,5.05362 -0.89088,0.76072 -5.28355,1.41394 -5.82897,0.86681 z"
       style="fill:#fefefe"
       sodipodi:nodetypes="sscccccsscssssssscccscccssssssssccssssssssssssssssssssscsssssssssssssssssss" />
    <path
       inkscape:connector-curvature="0"
       id="path3378"
       d="m 467.38777,-366.4877 c 0.84615,-1.98504 0.82414,-2.86824 -0.0993,-3.98438 -1.58871,-1.92025 -4.38097,-1.8164 -5.55559,0.20662 -0.87523,1.50736 -0.95401,1.48833 -0.96993,-0.23438 -0.01,-1.03125 0.60353,-4.19531 1.36236,-7.03125 0.75882,-2.83594 1.39111,-7.05469 1.40508,-9.375 0.0139,-2.32031 0.43309,-4.85156 0.93137,-5.625 0.79235,-1.22992 0.90774,-1.21875 0.92027,0.0891 0.007,0.82243 0.87895,2.28027 1.93574,3.23964 1.58829,1.44187 2.23646,1.54696 3.73832,0.6061 2.16859,-1.35853 2.18314,-1.16779 0.41501,5.44019 -0.75882,2.83594 -1.38467,7.32436 -1.39077,9.97426 -0.008,3.46243 -0.54127,5.44073 -1.89541,7.03125 l -1.8843,2.21324 z m 69.03661,-18.15274 c -1.28504,-0.71528 -3.80841,-1.3104 -5.60747,-1.32248 -1.79907,-0.0121 -5.49542,-0.28996 -8.21412,-0.6175 l -4.94309,-0.59553 2.13935,-2.28745 2.13935,-2.28746 -2.6222,-2.26512 c -2.32159,-2.00543 -2.40896,-2.26511 -0.76204,-2.26511 3.26121,0 14.55979,2.64999 20.28177,4.75693 5.57935,2.05442 8.93699,4.0304 5.16899,3.04196 -2.3689,-0.62141 -6.02985,2.20385 -5.30638,4.09508 0.259,0.67707 0.37898,1.18967 0.26661,1.13911 -0.11237,-0.0506 -1.25572,-0.67715 -2.54077,-1.39243 z m 56.75226,-1.05034 c -1.36157,-1.36581 -1.95703,-1.45023 -3.48366,-0.49386 -2.54177,1.59233 -2.45088,1.67384 -3.67943,-3.29957 -0.60501,-2.44922 -2.12689,-6.02612 -3.38198,-7.94865 -2.615,-4.00569 -2.77201,-4.60302 -1.03411,-3.93405 0.68632,0.26419 2.21426,-0.30466 3.39544,-1.26411 1.90904,-1.55067 2.01486,-1.99783 0.95262,-4.02539 l -1.19498,-2.28093 2.12626,1.875 c 2.52172,2.22373 5.04156,7.7935 7.05875,15.60242 1.70694,6.60788 1.51696,8.05212 -0.75891,5.76914 z"
       style="fill:#007f7f"
       sodipodi:nodetypes="ssscscscssssscsssscccssssscsssssssscsss" />
    <path
       style="fill:#000000"
       d="m 500.12305,-431.49023 c -4.2277,-0.15651 -16.04178,11.06338 -27.82422,26.72461 -9.4075,12.50445 -9.63288,12.91211 -9.67188,17.39062 -0.018,2.0625 -0.75381,6.96755 -1.63476,10.90039 l -1.60157,7.15039 -4.45703,1.2168 c -4.35704,1.19016 -10.13536,5.85085 -8.85156,7.13867 0.3534,0.35451 1.89886,-0.56417 3.43555,-2.04102 l 2.79492,-2.68554 0,2.98828 c 0,3.21215 2.73624,6.73799 5.22852,6.73828 1.25549,0 1.38731,0.77347 0.8457,4.92187 -0.35343,2.70704 -1.22681,6.13465 -1.94141,7.61524 -0.71461,1.48061 -1.0701,3.06263 -0.79101,3.51562 0.28334,0.45989 -6.01785,0.82353 -14.26758,0.82422 l -5.77149,0 -279.84765,0.48242 -0.29883,2.61915 c -0.40748,3.56481 1.29257,5.33398 5.12695,5.33398 3.78727,0 3.81311,0.0215 16.98242,14.94336 l 10.29297,11.66211 -10.91015,16.16797 -10.91016,16.16601 -6.54297,0.34375 c -3.59813,0.18913 89.13691,0.31962 206.07617,0.29883 l 252.61524,-0.0449 -244.29688,-0.4707 -204.29882,-0.47266 19.01757,-28.0918 c 10.46001,-15.45052 19.01758,-28.6341 19.01758,-29.29687 0,-0.97686 75.08123,-1.24804 225.28125,-1.43555 l 185.2793,-0.23242 -250.7461,-0.4707 -210.74804,-0.47266 -0.29297,-3.04688 -0.29297,-3.04687 211.04102,-0.19531 c 116.07229,-0.10742 246.87282,-0.3363 241.77929,-0.50586 l -9.26172,-0.3086 3.10157,-3.20898 3.10156,-3.21094 -5.32813,-8.83398 -5.32812,-8.83594 0.27148,-13.46484 c 0.25599,-12.64731 0.11961,-13.887 -2.24414,-20.38086 -2.54658,-6.99613 -5.88779,-11.77037 -7.52734,-10.75391 -0.49262,0.30541 -0.19175,-0.52455 0.66992,-1.84375 0.89124,-1.36445 1.43716,-3.69721 1.26563,-5.41211 -0.38562,-3.85533 1.49956,-4.58256 3.24023,-1.25 0.8822,1.68902 1.55317,2.16298 2.00977,1.42188 0.9807,-1.59177 -1.98896,-5.7168 -4.11524,-5.7168 -0.98585,0 -2.03526,0.39333 -2.33203,0.875 -0.29675,0.48167 -1.95766,0.64519 -3.68945,0.36328 -4.5821,-0.7459 -7.40393,2.28 -6.91602,7.41211 l 0.35938,3.78125 -10.57032,-0.46875 c -10.78608,-0.47747 -12.92913,0.0958 -10.2832,2.75 1.1664,1.17004 11.96314,2.68123 21.85156,3.05859 1.94928,0.0744 6.70996,8.84933 8.16016,15.04102 0.785,3.35156 1.89022,10.52344 2.45703,15.9375 1.01666,9.71091 1.10106,9.94995 6.24024,17.75 4.20775,6.38632 5.00608,8.18909 4.14843,9.375 -0.58401,0.80753 -1.54783,2.41796 -2.14062,3.57813 l -1.07813,2.10937 -68.23633,0 -68.23632,0 2.07617,-2.21875 c 1.39944,-1.49429 2.4122,-4.32452 3.10351,-8.67188 0.56445,-3.54949 1.59538,-7.11955 2.29102,-7.93359 0.69565,-0.81404 1.26562,-2.46791 1.26562,-3.67578 0,-1.20786 0.73455,-3.01018 1.63282,-4.00586 1.04755,-1.16115 1.82644,-4.04559 2.17187,-8.04297 1.23556,-14.2983 2.44027,-17.39433 12.45703,-32.01367 5.12273,-7.47656 11.41353,-16.03112 13.97852,-19.00977 3.2691,-3.7963 4.3684,-5.71146 3.67773,-6.40429 -0.26655,-0.26738 -0.6232,-0.40373 -1.06054,-0.41992 z m -0.15039,0.73437 c 0.3125,-0.0316 0.54786,0.022 0.69336,0.16797 0.28033,0.28122 -1.54777,2.92031 -4.0625,5.86523 -2.51474,2.94493 -9.24289,12.13158 -14.95118,20.41407 -5.70828,8.28248 -10.97353,15.17635 -11.70117,15.32031 -1.88155,0.37224 -3.62109,-1.6661 -3.62109,-4.24414 0,-2.71768 11.96588,-18.94 20.45508,-27.73047 5.05243,-5.23175 10.99997,-9.5719 13.1875,-9.79297 z m 78.48632,15.72461 c 1.63658,0 5.50985,4.26743 4.5879,5.05469 -0.89088,0.76071 -5.28466,1.41236 -5.83008,0.86523 -0.33332,-0.33436 -0.60547,-1.80273 -0.60547,-3.26367 0,-2.02093 0.44195,-2.65625 1.84765,-2.65625 z m -10.51367,7.2168 c 6.702,-0.0545 13.97744,0.007 16.27539,0.22656 1.56433,0.14958 1.71376,3.37918 0.20703,4.48437 -1.87751,1.37716 -1.92479,1.37894 -4.92968,0.17383 -1.23979,-0.49722 -6.77982,-1.26887 -12.31055,-1.71484 -9.68275,-0.78078 -12.07177,-1.31543 -12.07227,-2.70703 -8e-5,-0.23841 6.12809,-0.40843 12.83008,-0.46289 z m 18.10352,0.36718 c 0.13763,-0.09 0.54044,0.21303 1.30273,0.84766 2.06255,1.7171 4.65872,7.68755 6.58399,15.14063 1.70694,6.60788 1.5161,8.05055 -0.75977,5.76757 -1.36157,-1.36581 -1.95579,-1.45051 -3.48242,-0.49414 -2.54177,1.59233 -2.45114,1.67459 -3.67969,-3.29883 -0.60501,-2.44921 -2.12772,-6.02667 -3.38281,-7.94921 -2.46402,-3.77441 -2.84261,-4.93198 -1.30469,-3.97852 0.53662,0.33269 2.0284,-0.087 3.31641,-0.93359 1.79194,-1.17781 2.18965,-2.0213 1.69336,-3.58985 -0.29705,-0.93885 -0.42475,-1.42171 -0.28711,-1.51172 z m -81.51563,2.05469 c -1.78765,0.0233 -4.12365,0.78852 -5.89062,2.11524 -2.86318,2.1498 -0.87135,2.78509 2.69336,0.85937 3.86548,-2.08821 5.17432,-1.35664 2.45508,1.37109 -2.86101,2.86996 -2.45808,6.01662 1.16601,9.12696 l 3.11133,2.66992 -5.9707,6.4043 c -6.781,7.27381 -8.61278,10.4271 -7,12.04492 0.77907,0.78152 2.79356,-0.81501 7.77343,-6.16406 7.50723,-8.0638 10.98324,-10.31794 14.69532,-9.52539 1.37603,0.29379 6.12773,0.89446 10.55859,1.33593 9.66634,0.96312 11.07581,1.82038 27.45898,16.71289 10.08104,9.1638 13.36897,13.21669 14.87696,18.33203 1.29915,4.40696 4.76905,-0.61089 3.84375,-5.55859 -0.6115,-3.26975 -7.02235,-11.06438 -22.64844,-27.53711 -6.14739,-6.48045 -7.35977,-7.30893 -14.01758,-9.56836 -9.07327,-3.07915 -17.52956,-4.77584 -20.30859,-4.07617 -1.58699,0.39955 -2.35687,0.005 -3.07227,-1.57031 -0.52516,-1.15619 -2.16601,-2.72851 -3.64648,-3.4961 -1.48046,-0.76758 -3.14372,-1.97415 -3.69531,-2.67968 -0.4361,-0.5578 -1.31022,-0.81084 -2.38282,-0.79688 z m 4.97266,8.30274 c 2.36495,0.007 3.50499,2.02278 1.18555,4.59375 -2.08206,2.30785 -3.44876,2.3234 -5.49024,0.0605 -1.5273,-1.69292 -1.50045,-1.85375 0.53125,-3.28125 1.37074,-0.9631 2.69846,-1.3762 3.77344,-1.37304 z m 9.04883,0.80859 c 3.26121,0 14.55927,2.65088 20.28125,4.75781 5.57935,2.05442 8.93792,4.02945 5.16992,3.04102 -2.31371,-0.60694 -6.03816,2.18548 -5.3418,4.00586 0.31581,0.82554 -0.257,0.78 -2.06836,-0.16797 -1.3788,-0.7216 -4.19002,-1.31917 -6.24609,-1.32617 -2.05608,-0.007 -6.36846,-0.43943 -9.58399,-0.96289 -7.45723,-1.21398 -8.96533,-0.46494 -17.79492,8.85937 -3.70046,3.90779 -6.93877,7.10547 -7.19726,7.10547 -0.25848,0 -0.47071,-0.55135 -0.47071,-1.22461 0,-1.76211 3.33012,-6.03996 11.4043,-14.65625 7.33125,-7.82346 10.33162,-9.24946 12.91016,-6.13281 0.9645,1.16579 0.86357,1.80293 -0.55274,3.51562 -1.65483,2.00113 -1.62973,1.9988 0.57227,-0.0723 l 2.30078,-2.16602 -2.62109,-2.28711 c -2.32459,-2.0285 -2.41076,-2.28906 -0.76172,-2.28906 z m -53.33985,2.84375 c 0.12946,0.0125 0.16172,0.34218 0.16797,0.99609 0.008,0.82243 0.87876,2.27891 1.93555,3.23829 1.58829,1.44187 2.23642,1.54827 3.73828,0.60742 2.16859,-1.35854 2.18219,-1.16853 0.41406,5.43945 -0.75882,2.83594 -1.38462,7.3247 -1.39062,9.97461 -0.008,3.46242 -0.54039,5.44073 -1.89453,7.03125 l -1.88477,2.21289 1.08789,-2.55078 c 0.85273,-2.00051 0.82327,-2.86897 -0.13672,-4.0293 -1.4003,-1.69253 -4.86322,-1.5097 -5.21679,0.27539 -0.13021,0.65742 -0.023,0.76289 0.23828,0.23438 0.70697,-1.42998 4.04012,-1.16099 4.62695,0.37304 0.28046,0.73315 0.0291,2.23438 -0.55859,3.33594 -0.5877,1.10156 -1.86888,6.67551 -2.84571,12.38672 -1.07654,6.29413 -2.39714,11.07274 -3.35351,12.13281 -0.8678,0.96191 -2.14458,1.74805 -2.83594,1.74805 -1.57825,0 -1.57722,-0.005 0.3125,-3.80469 1.0468,-2.1049 1.58986,-5.60933 1.63086,-10.5332 0.0338,-4.05867 0.30141,-6.39614 0.5957,-5.19336 0.39374,1.60927 0.71137,0.89695 1.20118,-2.69727 0.36607,-2.68634 0.41462,-5.88739 0.10742,-7.11523 -0.30721,-1.22784 0.1,-4.78703 0.90625,-7.9082 0.80626,-3.12118 1.47347,-7.51193 1.48047,-9.75782 0.008,-2.24588 0.42164,-4.71679 0.91992,-5.49023 0.39617,-0.61496 0.62444,-0.91878 0.7539,-0.90625 z m 78.28516,5.88672 c 0.40161,0.0122 0.81962,0.0623 1.24609,0.15625 2.19074,0.48267 5.89304,3.91183 14.82227,13.72851 12.18943,13.40092 14.91109,17.69493 13.86523,21.875 -0.79957,3.1957 -2.07089,3.01558 -2.75,-0.39062 -0.72353,-3.62891 -5.1105,-8.40102 -18.8125,-20.46484 -6.18284,-5.44365 -11.60155,-10.50201 -12.04297,-11.24024 -1.16823,-1.9538 0.86064,-3.74918 3.67188,-3.66406 z m 47.4082,1.81055 c 0.76892,0.0449 1.74297,0.467 2.45703,1.11523 1.54077,1.39874 1.67572,2.64411 1.23438,11.31836 l -0.49414,9.74414 5.41992,8.98828 5.42188,8.98828 -3.13672,3.2461 c -4.66864,4.83186 -7.61394,4.22756 -3.70313,-0.75977 1.02804,-1.31101 1.86914,-2.63683 1.86914,-2.94727 0,-0.31046 -2.28545,-4.04217 -5.07812,-8.29101 -4.79867,-7.30086 -5.14122,-8.21801 -6.2168,-16.70703 -1.20574,-9.51634 -0.76145,-13.72232 1.54297,-14.60938 0.19371,-0.0746 0.42729,-0.10091 0.68359,-0.0859 z m -125.07617,23.64257 c 0.0564,0.0211 0.11878,0.1084 0.18359,0.26954 0.25927,0.64453 0.25927,1.69921 0,2.34374 -0.25925,0.64454 -0.47265,0.11719 -0.47265,-1.17187 0,-0.9668 0.12002,-1.50458 0.28906,-1.44141 z m -297.58203,31.44141 18.20508,0 c 16.88527,0 18.17263,0.11892 17.75781,1.64063 -0.24598,0.90234 -3.6937,6.34673 -7.66211,12.0996 l -7.21484,10.46094 -7.9043,-8.94726 c -4.34724,-4.92085 -9.09199,-10.36519 -10.54297,-12.09961 z"
       id="path3376"
       inkscape:connector-curvature="0"
       sodipodi:nodetypes="ssscccsccscsssccccscccccsccccsscccccscccccccssssssscscccsssssscccccsssssssssscsssssssssssssssscscssssssssscsssscccsssssssssssssssssssssscscssssssscccsscsssccccssssssssssssssccssssssscscscccccsssscccccsccssccscc" />
    <path
       inkscape:connector-curvature="0"
       id="path4365"
       d="m 394.73446,-438.61157 c -0.31947,0.0176 -0.64846,0.18461 -0.96093,0.49805 -0.69716,0.69934 -0.44998,3.11323 0.83789,8.15625 1.32692,5.19588 4.29462,11.57023 10.80469,23.21875 4.93576,8.83158 8.97266,16.58241 8.97266,17.22461 0,0.64221 0.92762,3.22547 2.06055,5.74023 2.17102,4.81899 3.01058,16.19055 1.21093,16.40039 -5.06766,0.59092 -11.4438,0.40379 -12.40429,-0.36328 -0.65495,-0.52306 -1.49687,-0.64493 -1.86914,-0.27148 -1.15412,1.15771 2.92671,3.47593 5.48047,3.11328 2.29995,-0.3266 2.41683,-0.13747 2.33593,3.76562 -0.10652,5.13375 2.05476,7.12017 7.04883,6.47852 l 3.39649,-0.43555 0.62304,5.5332 c 0.65633,5.81924 0.28596,7.38282 -1.7539,7.38282 -1.04544,0 -2.55775,1.77805 -3.47071,3.67383 l 9.65821,0 c 0.16601,-2.35262 0.30569,-5.34114 0.44531,-9.29883 0.30739,-8.71335 0.98281,-14.93353 1.88281,-17.32813 3.56085,-9.47418 -0.87819,-21.30272 -18.83984,-50.19922 -7.52213,-12.1015 -14.07045,-22.40469 -14.55274,-22.89453 -0.27671,-0.28105 -0.58678,-0.41209 -0.90625,-0.39453 z"
       style="fill:#000000" />
    <path
       inkscape:connector-curvature="0"
       id="path4363"
       d="m 334.10165,-423.43383 c -0.22371,-0.0103 -0.43538,-0.01 -0.63672,0.004 -0.74341,0.0495 -1.33507,0.26104 -1.7793,0.63086 -0.77449,0.6448 -1.4082,1.90994 -1.4082,2.8125 0,1.78933 9.58961,11.27058 20.39063,20.16016 7.68069,6.32143 14.31842,15.73837 16.48242,23.38281 2.13019,7.52503 4.35722,29.50817 3.20703,31.66406 -0.53389,1.0006 -0.73116,2.44718 -0.4375,3.21485 0.3381,0.88381 1.4786,1.28581 3.10938,1.09765 l 2.57617,-0.29687 -0.15235,-10.78125 -0.15039,-10.78125 5.05664,0 5.0586,0 0.19531,3.75 c 0.10786,2.0625 0.21377,6.07031 0.23437,8.90625 0.0354,4.86496 0.16859,5.15625 2.37305,5.15625 l 2.33789,0 0,-11.23242 c 0,-10.49357 0.12299,-11.25415 1.86914,-11.57422 3.32941,-0.61026 3.8159,-2.03711 0.69531,-2.03711 -2.6833,0 -2.99879,-0.316 -3.51367,-3.51563 -0.72502,-4.5056 -2.37146,-7.51374 -8.84961,-16.17187 -2.89349,-3.86719 -6.19772,-8.58115 -7.34375,-10.47657 -1.14602,-1.89542 -4.06704,-4.60662 -6.49023,-6.02539 -2.42318,-1.41877 -9.114,-5.60769 -14.86914,-9.30859 -8.71592,-5.60485 -14.59941,-8.42429 -17.95508,-8.57812 z"
       style="fill:#000000" />
    <path
       inkscape:connector-curvature="0"
       id="path4361"
       d="m 265.85556,-421.85766 c -2.06494,0 -8.23313,6.55085 -11.26758,11.96679 -1.80468,3.22105 -2.72938,3.97071 -4.89453,3.97071 -3.03823,0 -7.82623,2.28059 -13.49219,6.42383 -4.53093,3.31325 -6.00699,7.4186 -7.71875,21.48437 -1.1987,9.84991 -1.43448,9.0631 6.06056,20.06055 2.69414,3.9531 5.19868,8.59372 5.56639,10.3125 0.36771,1.71877 0.86766,3.46495 1.11133,3.8789 0.9857,1.67448 2.65678,-0.19055 3.4336,-3.83203 0.77443,-3.63032 0.51089,-4.4212 -4.33594,-13.04883 l -5.16016,-9.18554 0.83009,-5.94336 c 0.53061,-3.80352 2.09081,-8.3623 4.33398,-12.65625 3.50145,-6.70259 3.51279,-6.71207 7.71288,-6.95899 6.32957,-0.37209 8.5795,-1.04959 7.84571,-2.35937 -0.35262,-0.62942 1.29665,0.90142 3.66406,3.40039 4.17848,4.41068 6.15238,5.11738 7.01758,2.51367 0.2759,-0.83028 -0.0822,-1.07099 -1.04297,-0.70117 -0.80357,0.30933 -1.96358,-0.0443 -2.57813,-0.78711 -0.8748,-1.05733 -0.85479,-1.35156 0.0918,-1.35156 2.00614,0 4.62695,-2.96345 4.62695,-5.23243 0,-2.7669 -4.41847,-6.28344 -7.2207,-5.74609 -4.2554,0.81602 -1.57822,-5.68728 4.48633,-10.89453 3.82839,-3.2872 4.18358,-5.31445 0.92969,-5.31445 z"
       style="fill:#000000" />
    <path
       inkscape:connector-curvature="0"
       id="path4359"
       d="m 317.74618,-421.41626 c -0.80248,-0.0313 -1.89318,0.48934 -3.04687,1.57032 -3.27653,3.07006 -4.77519,6.28523 -5.50586,11.81054 -0.46107,3.48659 -1.1534,5.01984 -2.6211,5.80078 -1.69692,0.90291 -1.71685,0.96483 -0.12695,0.41993 4.76173,-1.63196 7.76943,-1.49855 8.77734,0.39062 0.76263,1.42946 0.67213,2.1416 -0.38476,3.02148 -0.76023,0.63291 -1.38281,1.69595 -1.38281,2.36329 0,0.66733 -0.52545,1.42547 -1.16797,1.68554 -0.72208,0.29228 -0.56825,0.50118 0.40429,0.54688 0.86539,0.0407 1.7544,1.02344 1.97461,2.18359 0.22031,1.16016 0.23107,0.38147 0.0254,-1.73047 -0.41047,-4.21461 1.32353,-6.65691 3.99414,-5.6289 1.8474,0.71112 1.21416,5.34139 -1.61523,11.8125 -1.01452,2.32031 -1.34815,3.7217 -0.74023,3.11328 0.60792,-0.60841 1.86157,-3.3506 2.78515,-6.09375 1.08656,-3.22715 2.28028,-5.10955 3.38281,-5.33203 0.93719,-0.18911 2.85919,-1.16409 4.26954,-2.16797 2.29635,-1.63451 2.55122,-2.36402 2.44531,-6.97266 -0.12012,-5.2267 -2.59791,-10.16872 -4.22852,-8.43359 -0.42975,0.45731 -0.25581,1.01981 0.38672,1.25 0.64252,0.23019 1.16797,1.13286 1.16797,2.00586 0,1.28282 -0.7074,1.51946 -3.6875,1.23437 -2.9842,-0.28548 -4.14223,0.10494 -6.07422,2.04297 l -2.38867,2.39453 0,-3.75781 c 0,-2.46283 0.80632,-4.94609 2.33789,-7.20703 1.28504,-1.89703 2.33594,-3.95872 2.33594,-4.58203 0,-1.126 -0.51393,-1.70892 -1.31641,-1.74024 z m -15.90625,21.40625 c -1.79826,0.32034 -9.13304,4.93549 -11.40625,7.36524 -2.71917,2.90644 -21.13914,27.9319 -24.94922,33.89648 -1.32757,2.07829 -1.45091,2.92708 -0.57617,3.98438 3.21741,3.88885 8.86455,-0.17839 24.99414,-18.00782 7.86311,-8.69178 14.59237,-16.12372 14.95313,-16.51367 0.36075,-0.38995 1.70713,-1.5597 2.99218,-2.59961 2.21979,-1.79639 2.16335,-1.79236 -1.12695,0.0742 -1.90478,1.08058 -3.73584,2.82407 -4.06836,3.875 -0.58566,1.85103 -0.63743,1.84324 -1.69726,-0.30078 -0.68229,-1.38028 -2.08504,-2.32947 -3.72656,-2.51953 -2.34434,-0.27142 -2.56428,-0.57873 -2.00586,-2.81055 0.34482,-1.3782 0.69846,-2.55864 0.78516,-2.62304 0.0867,-0.0644 1.52475,-0.81376 3.19531,-1.66602 1.67056,-0.85225 3.03711,-1.75651 3.03711,-2.00977 0,-0.14848 -0.14349,-0.19029 -0.40039,-0.14453 z m 11.42969,13.14649 c -0.0891,-0.029 -0.55735,0.17972 -1.44922,0.61328 -1.15654,0.56221 -2.0699,1.74468 -2.0293,2.62891 0.0598,1.30322 0.17724,1.34114 0.61914,0.20117 0.29982,-0.77344 1.21121,-1.95594 2.02735,-2.62891 0.62937,-0.51897 0.92113,-0.78546 0.83203,-0.81445 z"
       style="fill:#000000" />
    <path
       sodipodi:nodetypes="sssssscccsccscsssssssssssscsss"
       style="fill:#000000"
       d="m 190.73828,-412.25977 c -5.48734,-0.0473 -8.125,1.8432 -8.125,5.82227 0,3.2986 3.77198,8.95508 5.9707,8.95508 0.62207,0 1.63516,1.40025 2.25196,3.11133 0.61681,1.71108 3.22115,5.82435 5.78711,9.14062 2.56598,3.31627 4.66883,6.37441 4.67383,6.79492 0.005,0.42051 -1.47722,3.98941 -3.29297,7.93164 l -3.30079,7.16797 2.76954,9.41797 c 2.42822,8.25845 2.64984,9.97239 1.81054,13.91992 -0.11278,0.53047 -0.19703,1.03836 -0.26758,1.53321 l 1.20704,0 c 0.90924,6.2e-4 0.93274,-0.0984 1.60351,-0.0957 l 1.92969,0.008 c -1.81219,-0.24144 -0.34378,-1.23911 0.98633,-4.03711 1.38552,-2.91453 1.35256,-3.54678 -0.50977,-9.69727 -1.09567,-3.61852 -1.99219,-7.28701 -1.99219,-8.15234 0,-0.86534 2.10179,-5.0021 4.67188,-9.19141 2.5701,-4.18931 4.67383,-8.37056 4.67383,-9.29297 0,-0.92242 -1.39573,-3.26023 -3.10156,-5.19531 -3.64091,-4.13022 -7.58814,-10.45084 -6.93555,-11.10547 0.25085,-0.25164 3.49393,0.23487 7.20703,1.08203 4.56825,1.04228 7.05719,1.23193 7.69922,0.58789 1.41703,-1.42146 0.15469,-2.76858 -3.24414,-3.46289 -1.66467,-0.34005 -6.64077,-1.68471 -11.05664,-2.98633 -7.35339,-2.16748 -7.99433,-2.54535 -7.6211,-4.5039 0.22414,-1.17615 -0.10678,-3.13558 -0.73632,-4.35352 -1.03004,-1.99271 -0.85371,-1.94009 1.76953,0.5293 3.66729,3.45222 5.09705,2.39413 1.64648,-1.21875 -1.9974,-2.09135 -3.41038,-2.68259 -6.47461,-2.70899 z"
       id="path4357"
       inkscape:connector-curvature="0" />
    <path
       inkscape:connector-curvature="0"
       id="path4231"
       d="m 337.94113,-441.73201 c -1.52637,-1.53113 -1.40952,-2.625 0.28037,-2.625 0.77103,0 1.40187,0.42187 1.40187,0.9375 0,0.51562 0.63084,0.9375 1.40187,0.9375 1.72,0 1.91738,-4.28992 0.23365,-5.07813 -0.93458,-0.4375 -0.93458,-0.65625 0,-1.09375 1.6385,-0.76702 1.4608,-3.20312 -0.23365,-3.20312 -0.77103,0 -1.40187,0.42187 -1.40187,0.9375 0,0.51562 -0.63084,0.9375 -1.40187,0.9375 -1.68989,0 -1.80674,-1.09387 -0.28037,-2.625 1.46446,-1.46903 4.95112,-1.44215 6.08061,0.0469 1.24714,1.64412 1.33101,9.2699 0.11809,10.73596 -1.2635,1.52718 -4.71697,1.57853 -6.1987,0.0922 z"
       style="fill:#000000" />
    <path
       inkscape:connector-curvature="0"
       id="path4229"
       d="m 351.56454,-453.80493 c -2.31154,0.11893 -4.46484,2.77989 -4.46484,6.63477 0,2.03734 0.64131,4.25981 1.46875,5.08984 0.80774,0.81026 2.03874,1.47266 2.73633,1.47266 1.96893,0 4.20703,-2.71584 4.20703,-5.10743 0,-2.63491 -2.24211,-4.68353 -4.27149,-3.90234 -0.95538,0.36775 -1.34444,0.15321 -1.08203,-0.59766 0.23387,-0.66918 1.54164,-1.0458 3.04688,-0.87695 2.30015,0.25803 2.48093,0.1082 1.42187,-1.17187 -0.9293,-1.12325 -2.0118,-1.59508 -3.0625,-1.54102 z m -0.23828,6.0332 c 0.14187,-0.004 0.28931,0.0358 0.43945,0.12891 0.51764,0.32092 0.94142,1.37727 0.94142,2.34766 0,2.30966 -1.72475,3.34532 -2.44336,1.46679 -0.6443,-1.68424 0.0694,-3.91187 1.0625,-3.94336 z"
       style="fill:#000000" />
    <path
       inkscape:connector-curvature="0"
       id="path4225"
       d="m 361.58603,-453.73266 c -3.83506,0 -5.84005,8.53891 -2.73633,11.65234 0.80774,0.81026 2.03873,1.47266 2.73633,1.47266 2.34878,0 4.20507,-2.89742 4.20507,-6.5625 0,-3.66508 -1.85629,-6.5625 -4.20507,-6.5625 z m 0,2.34375 c 0.51402,0 1.06885,1.63908 1.23242,3.64062 0.31763,3.88664 -1.20318,6.71943 -2.20313,4.10547 -0.82255,-2.15025 -0.12106,-7.74609 0.97071,-7.74609 z"
       style="fill:#000000" />
    <path
       inkscape:connector-curvature="0"
       id="path4221"
       d="m 370.27548,-453.5979 c -2.03203,-0.0397 -3.12434,1.86992 -2.25195,4.15039 0.33775,0.88294 1.40611,1.3519 2.66992,1.17188 1.54461,-0.22002 2.10742,-0.92635 2.10742,-2.64453 0,-1.71818 -0.56281,-2.42256 -2.10742,-2.64258 -0.14353,-0.0204 -0.2825,-0.0325 -0.41797,-0.0352 z m 0.18946,1.74024 c 0.51402,0 0.9336,0.42187 0.9336,0.9375 0,0.51562 -0.41958,0.9375 -0.9336,0.9375 -0.51403,0 -0.93554,-0.42188 -0.93554,-0.9375 0,-0.51563 0.42151,-0.9375 0.93554,-0.9375 z"
       style="fill:#000000" />
    <path
       id="path4418"
       d="m 200.55458,-343.34139 c 0.0531,-2.1914 -1.02752,-7.6023 -2.40131,-12.02422 l -2.49781,-8.03985 4.19633,-9.06953 c 4.53519,-9.80186 6.06203,-10.91482 8.49615,-6.19304 1.46262,2.8372 1.42331,2.97231 -2.87825,9.89544 -4.72566,7.60571 -4.71018,7.4602 -1.90351,17.89224 1.43091,5.31856 1.43918,6.06627 0.096,8.67188 -2.05188,3.98027 -3.22109,3.55401 -3.10758,-1.13292 z"
       style="fill:#fefefe"
       inkscape:connector-curvature="0" />
    <path
       id="path4416"
       d="m 419.06262,-340.0722 c 0,-0.39336 0.94626,-1.13419 2.10281,-1.6463 1.90978,-0.84563 2.08076,-1.48993 1.8627,-7.01918 -0.13207,-3.34844 -0.70444,-8.98736 -1.27196,-12.53094 -1.08252,-6.75919 -0.46139,-8.43061 2.91393,-7.84126 1.14878,0.20057 1.45046,2.52766 1.67102,12.88945 0.34264,16.09784 0.15991,16.86342 -4.02527,16.86342 -1.78927,0 -3.25322,-0.32183 -3.25322,-0.71519 z"
       style="fill:#fefefe"
       inkscape:connector-curvature="0" />
    <path
       id="path4408"
       d="m 370.46449,-342.23114 c 0,-0.54953 0.40861,-1.76501 0.90803,-2.7011 0.8989,-1.68484 -0.89851,-21.50033 -2.66195,-29.34664 -0.89528,-3.98349 -0.26897,-4.40133 2.31001,-1.54115 1.14881,1.27406 1.83003,3.51885 1.92039,6.32812 0.077,2.39451 0.57202,6.67396 1.1,9.5099 0.52799,2.83594 0.99068,8.21484 1.02821,11.95313 0.0666,6.64324 0.0154,6.79687 -2.26823,6.79687 -1.28506,0 -2.33646,-0.44961 -2.33646,-0.99913 z"
       style="fill:#fefefe"
       inkscape:connector-curvature="0" />
    <path
       id="path4404"
       d="m 241.10204,-347.24482 c -0.32918,-1.76017 -3.31991,-7.28339 -6.64607,-12.27382 -3.32615,-4.99043 -6.03423,-9.562 -6.01794,-10.15906 0.0163,-0.59706 0.61395,-5.4669 1.32814,-10.82187 1.42928,-10.71657 2.62427,-12.90744 6.50708,-11.92988 2.84876,0.71723 3.22857,3.77591 1.00459,8.09006 -0.77602,1.50536 -1.78068,5.38675 -2.23257,8.62532 l -0.82162,5.88831 5.12224,9.11818 c 4.61981,8.22382 5.05991,9.4882 4.48687,12.89063 -0.77725,4.61485 -1.92951,4.85627 -2.73072,0.57213 z"
       style="fill:#fefefe"
       inkscape:connector-curvature="0" />
    <path
       id="path4402"
       d="m 386.62511,-354.62001 c -0.1554,-8.84623 0.61569,-13.22077 2.07279,-11.75913 0.3179,0.3189 0.82432,5.26371 1.1254,10.98847 0.5163,9.81775 0.44588,10.40866 -1.24073,10.40866 -1.63418,0 -1.8027,-0.82977 -1.95745,-9.638 z"
       style="fill:#fefefe"
       inkscape:connector-curvature="0" />
    <path
       id="path4400"
       d="m 265.34062,-355.26803 c -0.30871,-0.50106 0.18831,-2.08309 1.10446,-3.51562 4.21398,-6.58903 23.72841,-32.85352 25.96655,-34.94836 l 2.50407,-2.34375 -0.69203,2.8125 c -0.38061,1.54687 -5.95301,9.35156 -12.38309,17.34375 -6.43009,7.99219 -12.12287,15.16406 -12.65061,15.9375 -2.66583,3.90689 2.88882,-2.59597 13.41339,-15.70313 10.03228,-12.49406 11.82109,-14.29687 14.18583,-14.29687 3.0264,0 4.01154,1.49759 2.91467,4.43085 -1.25988,3.36918 -23.91384,27.54305 -27.56661,29.41612 -3.84556,1.97192 -5.95045,2.24043 -6.79662,0.86701 z"
       style="fill:#fefefe"
       inkscape:connector-curvature="0" />
    <path
       id="path4398"
       d="m 416.77374,-357.40388 c 0.35244,-1.16016 1.32315,-2.88765 2.15714,-3.83885 1.44659,-1.64994 1.54563,-1.58575 2.15352,1.3958 0.67415,3.30649 -0.19011,4.51217 -3.25297,4.53807 -1.33006,0.0112 -1.55949,-0.44322 -1.05768,-2.09502 z"
       style="fill:#fefefe"
       inkscape:connector-curvature="0" />
    <path
       id="path4390"
       d="m 386.79833,-372.87264 c -0.33171,-2.44921 -0.81697,-5.29687 -1.07836,-6.32812 -0.47526,-1.875 -0.47526,-1.875 0.88439,0 1.6926,2.33414 3.04936,10.78125 1.73167,10.78125 -0.51401,0 -1.20598,-2.00391 -1.5377,-4.45313 z"
       style="fill:#fefefe"
       inkscape:connector-curvature="0" />
    <path
       id="path4386"
       d="m 310.92919,-382.48074 c -0.11386,-1.5906 0.35242,-2.85575 1.16823,-3.16979 1.72516,-0.66407 1.88555,3.43806 0.1895,4.84669 -0.88252,0.73296 -1.21456,0.32286 -1.35773,-1.6769 z"
       style="fill:#fefefe"
       inkscape:connector-curvature="0" />
    <path
       id="path4384"
       d="m 315.36594,-385.76326 c -0.0637,-1.03125 -0.28324,-4.05999 -0.48784,-6.73053 -0.40006,-5.22196 0.9818,-7.57716 3.80749,-6.48945 1.19792,0.46112 1.38031,1.31897 0.86945,4.08926 -0.87671,4.75418 -4.03426,11.63651 -4.1891,9.13072 z"
       style="fill:#fefefe"
       inkscape:connector-curvature="0" />
    <path
       id="path4382"
       d="m 416.20563,-390.21641 c -1.31433,-1.67577 -6.09009,-9.69719 -10.61278,-17.82538 -5.79575,-10.41615 -8.7602,-16.88178 -10.0427,-21.90375 -1.71265,-6.70631 -1.71504,-9.31415 -0.007,-7.31772 0.41181,0.48125 6.92983,10.86073 14.4845,23.0655 12.77498,20.63833 13.65891,22.35969 12.63708,24.60937 -1.47629,3.25023 -3.57785,3.0459 -6.45938,-0.62802 z"
       style="fill:#fefefe"
       inkscape:connector-curvature="0" />
    <path
       id="path4380"
       d="m 205.04393,-395.70421 c -6.94689,-1.49867 -8.07415,-1.54128 -8.98153,-0.33953 -1.46931,1.94598 -2.93781,1.70367 -3.66836,-0.60531 -0.38702,-1.2232 -0.10383,-2.50365 0.74117,-3.35129 1.20026,-1.20402 2.3263,-1.08534 9.2082,0.97051 4.3124,1.28825 9.20754,2.61891 10.87809,2.95703 3.14583,0.63672 4.28868,2.43965 1.40187,2.21157 -0.89953,-0.0711 -5.21028,-0.90041 -9.57944,-1.84298 z"
       style="fill:#fefefe"
       inkscape:connector-curvature="0" />
    <path
       id="path4378"
       d="m 349.90375,-401.33809 c -16.77969,-14.26393 -20.8305,-19.08222 -17.68318,-21.03344 1.47783,-0.91621 9.35296,1.49959 8.6433,2.65144 -0.34647,0.56236 -0.13625,0.68105 0.50365,0.28434 0.6331,-0.39251 5.93968,2.39859 12.52758,6.58911 14.55311,9.25717 14.4221,9.13863 11.55133,10.45074 -2.05086,0.93735 -3.15,0.43064 -10.79352,-4.97582 -9.32461,-6.59556 -13.96794,-9.63025 -13.00704,-8.50086 0.34134,0.4012 5.23471,3.97695 10.87415,7.94612 l 10.25352,7.21668 -1.78433,3.48889 c -0.98138,1.91888 -1.87942,3.47567 -1.99564,3.45953 -0.11623,-0.0161 -4.20665,-3.42567 -9.08982,-7.57673 z"
       style="fill:#fefefe"
       inkscape:connector-curvature="0" />
    <path
       id="path4376"
       d="m 320.21409,-398.41951 c -0.64202,-1.03125 -1.74959,-1.875 -2.46127,-1.875 -2.37781,0 -2.35971,-2.54298 0.0259,-3.63332 3.56618,-1.62994 5.77691,-1.26365 7.40357,1.2267 1.15892,1.77427 1.26019,2.71131 0.45595,4.21875 -1.31251,2.4601 -3.91294,2.49024 -5.42414,0.0629 z"
       style="fill:#fefefe"
       inkscape:connector-curvature="0" />
    <path
       id="path4374"
       d="m 186.02991,-400.13396 c -2.02833,-2.24827 -1.95364,-3.62613 0.261,-4.81507 2.69328,-1.4459 3.60046,-1.20962 5.29063,1.37796 1.23617,1.89251 1.30884,2.62055 0.37441,3.75 -1.56864,1.89599 -4.05154,1.76489 -5.92604,-0.31289 z"
       style="fill:#fefefe"
       inkscape:connector-curvature="0" />
    <path
       id="path4372"
       d="m 252.22153,-400.35354 c -1.30485,-4.12408 9.60752,-20.56597 13.6495,-20.56597 2.51509,0 2.29181,0.48737 -2.00909,4.38511 -4.72116,4.27861 -6.48156,7.6073 -6.48156,12.25583 0,5.30938 -3.80491,8.20428 -5.15885,3.92503 z"
       style="fill:#fefefe"
       inkscape:connector-curvature="0" />
    <path
       id="path4370"
       d="m 258.7849,-401.22362 c -1.1017,-3.48199 1.40937,-4.82238 5.21086,-2.78153 1.46168,0.78471 1.62696,1.33796 0.84026,2.8125 -1.30491,2.44586 -5.27388,2.42554 -6.05112,-0.031 z"
       style="fill:#fefefe"
       inkscape:connector-curvature="0" />
    <path
       id="path3446"
       d="m 310.17024,-408.49764 c 0.75031,-5.01949 1.72803,-7.26051 4.49919,-10.3125 3.92674,-4.32467 4.74148,-1.62593 1.12217,3.71702 -1.54234,2.27684 -2.33645,4.74059 -2.33645,7.24887 0,3.24278 -0.28954,3.79974 -1.97527,3.79974 -1.82684,0 -1.92526,-0.33464 -1.30964,-4.45313 z"
       style="fill:#fefefe"
       inkscape:connector-curvature="0" />
    <path
       id="path4464"
       d="m 427.53308,-366.19535 c -0.0928,-3.12308 -2.441,-4.59299 -5.27108,-3.29949 -3.40558,1.55653 -3.47245,1.48236 -2.78845,-3.09315 0.49244,-3.29411 0.12262,-5.42352 -1.76305,-10.15169 -2.732,-6.85026 -3.0184,-8.56494 -0.93133,-5.57593 1.85034,2.64999 4.70644,2.67399 6.1057,0.0513 1.01176,-1.89642 1.22581,-1.68329 3.2013,3.18751 2.55103,6.2899 3.73709,15.29011 2.44221,18.53229 -0.85627,2.14397 -0.94111,2.17374 -0.9953,0.34917 z"
       style="fill:#007f7f"
       inkscape:connector-curvature="0" />
    <path
       id="path4462"
       d="m 370.53582,-377.23121 c -2.16626,-2.1145 -5.53384,-6.40544 -7.48351,-9.53542 l -3.54486,-5.69087 2.05311,-4.03701 c 1.91305,-3.76158 5.10281,-6.5015 7.65948,-6.57928 0.6006,-0.0183 2.05257,1.54881 3.2266,3.4824 1.17404,1.9336 4.31834,6.46875 6.98734,10.07813 3.24636,4.39014 5.06674,7.87905 5.49919,10.53967 l 0.64646,3.97718 -2.81545,-0.56485 c -1.68404,-0.33786 -3.91539,-0.0144 -5.55257,0.80487 -2.6669,1.33458 -2.83817,1.27109 -6.67578,-2.47482 z"
       style="fill:#007f7f"
       inkscape:connector-curvature="0" />
    <path
       id="path4460"
       d="m 208.94035,-379.22707 c -1.40413,-3.09136 -3.55854,-3.85226 -5.61679,-1.98376 -1.53935,1.39746 -1.89966,1.17024 -5.33903,-3.36699 -4.06373,-5.36091 -6.8751,-10.05133 -6.89169,-11.49794 -0.006,-0.51563 0.41791,-0.19922 0.94184,0.70312 1.17699,2.02709 3.3018,2.12242 4.37633,0.19634 1.16885,-2.09516 3.29279,-0.88686 5.39553,3.06949 1.00954,1.89947 3.41263,5.28964 5.3402,7.53371 1.92758,2.24407 3.50468,4.89822 3.50468,5.89811 0,2.42654 -0.41964,2.29114 -1.71107,-0.55208 z"
       style="fill:#007f7f"
       inkscape:connector-curvature="0" />
    <path
       id="path4458"
       d="m 300.94059,-386.47832 c 0.76885,-2.213 -1.21543,-4.44119 -3.95501,-4.44119 -1.22211,0 -2.21628,-0.31641 -2.20926,-0.70313 0.052,-2.86319 1.56682,-4.92887 4.63104,-6.31496 3.85718,-1.74478 5.63315,-1.29895 8.79743,2.20848 1.71316,1.89893 1.68956,1.95528 -1.64596,3.92944 -1.86123,1.10158 -3.38406,2.30245 -3.38406,2.66859 0,0.36614 -0.63186,1.48463 -1.40415,2.48552 -1.18649,1.5377 -1.31516,1.56363 -0.83003,0.16725 z"
       style="fill:#007f7f"
       inkscape:connector-curvature="0" />
    <path
       id="path4456"
       d="m 238.36368,-392.17344 c -1.07831,-1.08775 -2.5702,-1.58038 -3.97196,-1.31158 -1.23473,0.23678 -2.24498,0.11386 -2.24498,-0.27313 0,-2.86563 12.67371,-11.22386 17.0189,-11.22386 2.32709,0 2.57525,0.27034 2.0768,2.26251 -0.39391,1.57437 0.0133,2.84367 1.33878,4.17332 l 1.90485,1.91081 -5.29656,0.27981 c -4.69916,0.24824 -5.51098,0.59811 -7.1977,3.102 -1.85192,2.74912 -1.94586,2.77709 -3.62813,1.08012 z"
       style="fill:#007f7f"
       inkscape:connector-curvature="0" />
    <path
       id="path3442-1"
       d="m 308.4397,-397.76445 -3.61358,-3.06704 2.48933,-1.13776 c 3.63014,-1.65917 6.86907,-1.39912 7.95633,0.6388 0.70374,1.31905 0.59187,2.0729 -0.4344,2.92729 -0.76023,0.6329 -1.38223,1.73189 -1.38223,2.44219 0,1.94385 -1.04168,1.56927 -5.01545,-1.80348 z"
       style="fill:#007f7f"
       inkscape:connector-curvature="0" />
    <path
       id="path3440-0"
       d="m 306.26319,-379.18899 c -1.85734,-3.90703 -1.37959,-4.62074 2.51817,-3.76197 2.13732,0.47091 2.78556,1.04156 2.38189,2.09682 -0.46029,1.20324 -0.31255,1.2483 0.86865,0.26494 1.93984,-1.61496 1.78831,-5.94093 -0.35495,-10.13328 -3.28781,-6.43115 -9.36143,-10.50222 -16.08514,-10.78168 -3.99275,-0.16596 -5.0123,0.1529 -6.54083,2.04558 -2.12419,2.63025 -3.32554,2.09086 -1.78294,-0.80051 1.48948,-2.79183 5.18131,-3.96216 10.21727,-3.23892 8.43449,1.21132 17.83901,11.18687 17.83901,18.92218 0,3.06788 -2.33202,6.78132 -4.25861,6.78132 -0.74189,0 -1.34888,0.42187 -1.34888,0.9375 0,2.08465 -1.99417,0.73815 -3.45364,-2.33198 z"
       style="fill:#fe0000"
       inkscape:connector-curvature="0" />
  </g>
</svg>
