<?xml version="1.0" encoding="UTF-8" standalone="no"?>
<!-- Created with Inkscape (http://www.inkscape.org/) -->

<svg
   xmlns:dc="http://purl.org/dc/elements/1.1/"
   xmlns:cc="http://creativecommons.org/ns#"
   xmlns:rdf="http://www.w3.org/1999/02/22-rdf-syntax-ns#"
   xmlns:svg="http://www.w3.org/2000/svg"
   xmlns="http://www.w3.org/2000/svg"
   xmlns:sodipodi="http://sodipodi.sourceforge.net/DTD/sodipodi-0.dtd"
   xmlns:inkscape="http://www.inkscape.org/namespaces/inkscape"
   id="svg3431"
   version="1.1"
   inkscape:version="0.91 r13725"
   width="531.5625"
   height="246.5625"
   viewBox="0 0 531.5625 246.5625"
   sodipodi:docname="fx111503.svg">
  <metadata
     id="metadata3437">
    <rdf:RDF>
      <cc:Work
         rdf:about="">
        <dc:format>image/svg+xml</dc:format>
        <dc:type
           rdf:resource="http://purl.org/dc/dcmitype/StillImage" />
        <dc:title></dc:title>
      </cc:Work>
    </rdf:RDF>
  </metadata>
  <defs
     id="defs3435" />
  <sodipodi:namedview
     pagecolor="#ffe1dd"
     bordercolor="#666666"
     borderopacity="1"
     objecttolerance="10"
     gridtolerance="10"
     guidetolerance="10"
     inkscape:pageopacity="0"
     inkscape:pageshadow="2"
     inkscape:window-width="1815"
     inkscape:window-height="802"
     id="namedview3433"
     showgrid="false"
     inkscape:zoom="1.175779"
     inkscape:cx="178.28857"
     inkscape:cy="102.56602"
     inkscape:window-x="104"
     inkscape:window-y="63"
     inkscape:window-maximized="0"
     inkscape:current-layer="svg3431" />
  <g
     id="g4180"
     transform="translate(-20.518906,33.665326)">
    <rect
       y="146.72339"
       x="129.80817"
       height="0.89323962"
       width="312.98398"
       id="rect4178"
       style="fill:#000000;stroke:none;stroke-width:0.60000002;stroke-miterlimit:4;stroke-dasharray:none" />
    <path
       id="path4177"
       d="m 326.67806,126.26305 c -0.3342,-1.053 -0.33963,-3.50092 -0.0121,-5.43983 0.33877,-2.00513 -0.0325,-6.53602 -0.86101,-10.50733 -2.28565,-10.956047 -2.03251,-12.551027 3.47009,-21.863501 5.04538,-8.538622 8.34817,-12.774806 9.96009,-12.774806 2.12577,0 4.02269,3.190905 3.67375,6.179798 -0.19671,1.685023 -0.024,2.857436 0.38391,2.605362 1.25615,-0.776349 0.82279,0.991154 -0.84054,3.428112 -0.87016,1.274887 -3.44506,4.523934 -5.72201,7.220098 l -4.1399,4.902127 1.47134,8.59843 c 0.80923,4.72915 1.23388,8.98264 0.94366,9.45222 -0.29022,0.46957 -0.72143,2.19901 -0.95825,3.84318 -0.73134,5.07737 -6.12765,8.26735 -7.36903,4.35614 z"
       style="fill:#ffffff"
       inkscape:connector-curvature="0" />
    <path
       id="path4175"
       d="m 331.9429,109.39889 c -0.53141,-4.75967 -1.24048,-8.9152 -1.57572,-9.2345 -0.33524,-0.319307 -0.36786,1.10694 -0.0725,3.16944 0.29536,2.0625 0.80984,6.4126 1.14332,9.6669 0.33346,3.2543 0.80088,5.72232 1.0387,5.48451 0.23781,-0.23782 -0.003,-4.32668 -0.53381,-9.08635 z"
       style="fill:#ffb380"
       inkscape:connector-curvature="0" />
    <path
       id="path4173"
       d="m 339.3199,89.900292 c 3.00691,-4.393648 2.32807,-3.69649 -4.86471,4.996041 -2.85438,3.44954 -3.11991,3.98704 -1.00545,2.03521 1.58031,-1.45876 4.22188,-4.622822 5.87016,-7.031251 z"
       style="fill:#ffb380"
       inkscape:connector-curvature="0" />
    <path
       id="path4171"
       d="m 232.70536,123.97077 c -1.08157,-2.81851 -0.58282,-8.55185 1.25353,-14.41003 1.00746,-3.21397 1.83711,-6.35707 1.84366,-6.9847 0.007,-0.62762 -3.20299,-2.769123 -7.13229,-4.758918 -5.1019,-2.583572 -6.71151,-3.789866 -5.63061,-4.219774 1.92883,-0.767156 16.46212,6.446072 16.46212,8.170552 0,0.69111 -0.64199,3.07171 -1.42663,5.29023 -2.04824,5.79117 -3.13339,11.02584 -2.16111,10.42494 0.45225,-0.2795 0.82224,-1.23279 0.82224,-2.11844 0,-0.88564 0.87068,-4.18848 1.93484,-7.33964 1.06416,-3.15115 1.70473,-6.32902 1.42349,-7.06194 -0.28126,-0.73291 -3.81692,-2.994561 -7.85704,-5.025891 -4.04012,-2.031339 -7.60362,-4.110729 -7.91892,-4.62087 -0.86215,-1.395004 1.09362,-4.445552 3.29888,-5.145474 2.14123,-0.679601 12.01043,5.472346 16.80161,10.473267 l 2.60656,2.720662 -5.11448,12.777256 c -3.839,9.59079 -5.55254,12.84688 -6.87104,13.05645 -0.97272,0.15461 -2.0146,-0.39323 -2.33481,-1.22768 z"
       style="fill:#ffffff"
       inkscape:connector-curvature="0" />
    <path
       id="path4163"
       d="m 318.36682,73.099458 c 1.07297,-4.474854 3.28366,-8.014058 9.08979,-14.552354 6.09611,-6.864846 9.21519,-8.446357 11.71931,-5.942228 2.03364,2.03362 0.59765,4.433427 -3.46159,5.785023 -4.05405,1.34987 -13.8497,11.183213 -14.5303,14.586223 -0.31545,1.577275 -1.14268,2.701461 -1.98784,2.701461 -1.10402,0 -1.30084,-0.611859 -0.82937,-2.578125 z"
       style="fill:#ffffff"
       inkscape:connector-curvature="0" />
    <path
       id="path4159"
       d="m 229.64691,65.796858 c -0.85883,-2.238079 0.6929,-4.055266 4.61397,-5.403263 4.75082,-1.633253 10.2631,-5.497345 16.17926,-11.341593 2.72056,-2.6875 5.12599,-4.706861 5.34538,-4.487465 1.98973,1.989733 -10.32248,16.007463 -18.36909,20.913631 -3.63211,2.214553 -6.98918,2.352253 -7.76952,0.31869 z"
       style="fill:#ffffff"
       inkscape:connector-curvature="0" />
    <path
       id="path4153"
       d="m 317.99166,59.505708 c 0.41321,-1.331911 5.52292,-3.950947 9.47267,-4.855315 l 2.64874,-0.606475 -1.71124,2.349871 c -1.07828,1.48071 -2.64434,2.36077 -4.23401,2.379333 -1.38754,0.0162 -2.78355,0.451336 -3.10222,0.966961 -0.83884,1.357263 -3.50466,1.154004 -3.07394,-0.234375 z"
       style="fill:#ffffff"
       inkscape:connector-curvature="0" />
    <path
       id="path4147"
       d="m 231.20529,56.787124 c 0,-2.185616 2.68321,-8.308387 3.34916,-7.642426 0.92723,0.927225 -0.5348,6.831943 -1.99081,8.04032 -1.1035,0.915822 -1.35835,0.841169 -1.35835,-0.397894 z"
       style="fill:#ffffff"
       inkscape:connector-curvature="0" />
    <path
       id="path4145"
       d="m 331.09685,49.240083 c -1.53773,-1.537727 -1.47861,-8.25 0.0727,-8.25 2.81086,0 5.36485,2.926306 5.36485,6.14691 0,2.743442 -0.32373,3.22809 -2.15625,3.22809 -1.18594,0 -2.6625,-0.50625 -3.28125,-1.125 z"
       style="fill:#ffffff"
       inkscape:connector-curvature="0" />
    <path
       id="path3451"
       d="m 235.56992,47.716018 c -0.57435,-1.66224 3.1557,-8.987841 4.57645,-8.987841 1.77242,0 1.47642,1.502965 -1.19312,6.058201 -2.61699,4.465554 -2.79835,4.622599 -3.38333,2.92964 z"
       style="fill:#ffffff"
       inkscape:connector-curvature="0" />
    <path
       id="path4193"
       d="m 219.63916,91.796756 c -1.8316,-2.795384 -1.28613,-8.39283 1.50891,-15.483897 0.96841,-2.456884 1.76075,-6.262468 1.76075,-8.456854 0,-5.492506 2.69425,-8.847573 7.10494,-8.847573 l 3.28382,0 -2.42889,1.910567 c -4.10419,3.228354 -2.31733,8.029991 2.63587,7.083125 1.50524,-0.287743 2.30988,-0.02495 2.30988,0.754402 0,2.720552 -5.89737,16.06314 -7.09985,16.06314 -1.91039,0 -6.04525,4.499101 -5.48254,5.965493 0.26895,0.700894 -0.0808,1.747264 -0.77727,2.325269 -0.99319,0.824281 -1.6004,0.540985 -2.81562,-1.313672 z"
       style="fill:#ffff00"
       inkscape:connector-curvature="0" />
    <path
       id="path4189"
       d="m 344.03435,81.566758 c 0,-4.726687 -3.22527,-7.675203 -6.48647,-5.929866 -1.61709,0.865441 -1.89996,0.49184 -2.79795,-3.695337 -2.32754,-10.852931 -2.36477,-12.201472 -0.33683,-12.201472 2.13628,0 6.80875,-3.373646 6.80875,-4.916099 0,-0.566507 -0.69819,-1.801512 -1.55155,-2.744456 -0.88951,-0.982904 -1.0998,-1.714445 -0.49283,-1.714445 2.05173,0 3.66742,5.248139 4.18495,13.59375 0.28779,4.640625 1.03556,10.4688 1.66171,12.951501 0.84929,3.367426 0.86818,4.784293 0.0743,5.578125 -0.79384,0.793832 -1.06413,0.559716 -1.06413,-0.921701 z"
       style="fill:#ffff00"
       inkscape:connector-curvature="0" />
    <path
       inkscape:connector-curvature="0"
       id="path8233"
       d="m 345.97266,31.61523 c -0.48088,0 -1.12137,0.77943 -1.42383,1.73243 -0.7651,2.41062 -4.08315,3.68123 -8.28906,3.17187 -5.00502,-0.60614 -7.22461,1.58347 -7.22461,7.13281 0,3.02782 0.56577,4.85206 1.97265,6.34961 l 1.97461,2.09961 -6.51172,1.93946 c -7.11061,2.11764 -10.749,4.94827 -8.82812,6.86914 0.87667,0.87667 1.53347,0.87243 2.96484,-0.0215 1.01138,-0.63162 2.5567,-1.14844 3.4336,-1.14844 1.30258,0 1.15427,0.47183 -0.81641,2.57813 -3.05647,3.26683 -5.23375,7.56365 -5.61328,11.08398 -0.23901,2.21699 0.0649,2.74414 1.58008,2.74414 1.28992,0 2.18298,-0.95393 2.86328,-3.05859 0.54386,-1.6826 2.85295,-4.95829 5.13086,-7.2793 4.75661,-4.84663 4.63539,-4.95377 6.54297,5.76368 l 1.18945,6.67578 -2.7793,4.10547 c -5.56675,8.22376 -8.72927,14.67501 -8.72851,17.8125 4.3e-4,1.74192 0.65105,6.2826 1.44531,10.08984 0.85337,4.08979 1.20083,8.55309 0.84765,10.9082 -0.35318,2.35512 -0.16388,4.7976 0.4629,5.96875 1.36303,2.54684 3.12865,2.5096 5.99609,-0.12695 3.63502,-3.34228 4.46664,-8.87017 2.80078,-18.60547 l -1.42383,-8.32227 4.85742,-5.8125 c 6.90543,-8.26422 8.86395,-12.75225 7.56446,-17.33593 -0.56055,-1.97721 -1.27272,-7.60353 -1.58203,-12.50196 -0.38352,-6.07357 -1.11,-9.8702 -2.28516,-11.93554 -1.40204,-2.46408 -1.53867,-3.561 -0.72656,-5.89063 0.54906,-1.57483 0.79692,-3.92674 0.54883,-5.22461 -0.32975,-1.72493 0.27262,-3.08316 2.24023,-5.05078 2.68855,-2.68854 3.46773,-4.71094 1.81641,-4.71094 z m -14.41602,9.42774 c 0.68885,0.0452 1.63405,0.52338 2.89453,1.40625 1.46716,1.02764 2.08399,2.41445 2.08399,4.6875 0,2.74344 -0.32373,3.22851 -2.15625,3.22851 -3.09075,0 -4.40625,-1.73533 -4.40625,-5.8125 0,-2.45788 0.43593,-3.58516 1.58398,-3.50976 z m 7.62109,9.32226 c 2.05173,0 3.66803,5.24814 4.18555,13.59375 0.28779,4.64063 1.03596,10.46848 1.66211,12.95118 0.84924,3.36743 0.86809,4.78429 0.0742,5.57812 -0.79384,0.79383 -1.06445,0.55955 -1.06445,-0.92187 0,-4.72668 -3.22513,-7.67503 -6.48633,-5.92969 -1.61709,0.86544 -1.90084,0.49187 -2.79883,-3.69531 -2.32752,-10.85293 -2.36388,-12.20118 -0.33594,-12.20118 2.13628,0 6.8086,-3.37356 6.8086,-4.91601 0,-0.56651 -0.69743,-1.8012 -1.55078,-2.74414 -0.88951,-0.98291 -1.10112,-1.71485 -0.49415,-1.71485 z m -2.60156,1.125 c 0.97473,-0.052 1.81708,0.3327 2.59961,1.11524 2.03364,2.03362 0.5983,4.43357 -3.46094,5.78515 -4.05405,1.34988 -13.84869,11.18293 -14.52929,14.58594 -0.31545,1.57728 -1.14312,2.70117 -1.98828,2.70117 -1.10401,0 -1.30155,-0.61186 -0.83008,-2.57812 1.07297,-4.47486 3.28371,-8.01444 9.08984,-14.55273 4.19108,-4.7196 6.97474,-6.94228 9.11914,-7.05665 z m -6.46289,2.55469 -1.71094,2.34961 c -1.07829,1.48071 -2.6447,2.36035 -4.23437,2.37891 -1.38754,0.0162 -2.78289,0.45117 -3.10156,0.96679 -0.83884,1.35727 -3.50495,1.15401 -3.07422,-0.23437 0.4132,-1.33191 5.52289,-3.9511 9.47265,-4.85547 l 2.64844,-0.60547 z m 9.12305,21.63281 c 2.12577,0 4.02277,3.1908 3.67383,6.17969 -0.19671,1.68502 -0.0251,2.85754 0.38281,2.60547 1.25615,-0.77635 0.82351,0.99081 -0.83985,3.42773 -0.87015,1.27491 -3.44571,4.52456 -5.72265,7.22071 l -4.13867,4.90234 1.42968,8.35352 c 1.61441,9.43457 0.83728,15.34258 -2.38671,18.16992 -3.87531,3.3985 -6.07991,0.86407 -4.96875,-5.71289 0.33877,-2.00513 -0.0309,-6.5365 -0.85938,-10.50781 -2.28565,-10.95605 -2.03385,-12.55079 3.46875,-21.86329 5.04534,-8.53861 8.34902,-12.77539 9.96094,-12.77539 z M 341,87.25781 c -0.0969,-0.10443 -2.04944,2.20584 -6.54492,7.63867 -2.85438,3.44954 -3.11837,3.98699 -1.00391,2.03516 1.58031,-1.45876 4.22086,-4.62282 5.86914,-7.03125 1.12759,-1.64762 1.73786,-2.57992 1.67969,-2.64258 z M 330.25586,100.125 c -0.22679,0.0873 -0.21945,1.40429 0.0391,3.20898 0.29537,2.0625 0.81106,6.41172 1.14453,9.66602 0.33346,3.2543 0.7993,5.72414 1.03711,5.48633 0.59973,-0.59974 -1.3582,-17.60681 -2.10937,-18.32227 -0.0419,-0.0399 -0.0789,-0.0515 -0.11133,-0.0391 z"
       style="fill:#000000" />
    <path
       inkscape:connector-curvature="0"
       id="path8229"
       d="m 240.32451,37.82954 c -1.11427,0.111652 -2.53327,1.599756 -3.88896,4.26731 -1.32587,2.608901 -2.43681,3.873209 -2.83655,3.226404 -0.90822,-1.469519 -5.49804,-1.332616 -9.3585,0.280384 -1.77067,0.739834 -3.74604,1.144052 -4.39021,0.896864 -0.64416,-0.247188 -2.08301,0.59827 -3.19759,1.88015 -1.11459,1.281879 -2.65267,2.331457 -3.41653,2.331457 -0.76386,0 -1.38851,0.414828 -1.38851,0.92183 0,1.862656 3.61049,0.85002 5.49064,-1.540218 2.20505,-2.803257 3.00392,-2.330533 4.62452,2.738597 0.616,1.926796 1.87919,3.977417 2.80773,4.5573 1.60528,1.002518 1.57875,1.185576 -0.54733,3.712284 -1.62302,1.928852 -2.23543,3.765599 -2.23543,6.700548 0,2.223856 -0.81189,6.101883 -1.80334,8.617196 -0.99144,2.515321 -2.07064,6.59563 -2.39867,9.068494 -0.52111,3.928391 -0.30717,4.840388 1.69194,7.215238 1.25838,1.494927 5.24136,4.146316 8.85149,5.892031 3.61012,1.745721 6.55955,3.612431 6.55267,4.148231 -0.007,0.53581 -0.8362,3.60373 -1.84366,6.8177 -2.01331,6.42272 -2.35252,12.2028 -0.87766,14.95861 1.07551,2.00959 4.09704,2.37634 5.1853,0.62992 0.39492,-0.63374 2.94155,-6.69433 5.65965,-13.46832 l 4.9433,-12.316032 -2.60993,-2.7578 c -1.43532,-1.516462 -5.20259,-4.618176 -8.37136,-6.892603 -3.1688,-2.274427 -5.76143,-4.503613 -5.76143,-4.952915 0,-0.449302 1.24446,-3.949001 2.76548,-7.777942 1.52102,-3.828942 2.76549,-7.779614 2.76549,-8.780422 0,-1.000817 0.36848,-1.820621 0.81813,-1.820621 1.74524,0 18.36345,-16.68211 18.95127,-19.024256 1.04725,-4.17256 -1.13222,-4.951922 -3.90816,-1.396186 -4.42877,5.672877 -17.89704,14.971224 -19.03003,13.137987 -0.27959,-0.45237 0.10952,-2.00597 0.86422,-3.453012 0.75469,-1.447032 1.37403,-2.991212 1.37698,-3.431901 0.003,-0.440679 1.49661,-3.255696 3.31859,-6.255001 1.82198,-2.999295 3.07933,-6.061432 2.79429,-6.804254 -0.37074,-0.966127 -0.92928,-1.394043 -1.59784,-1.327052 z m -0.17668,0.898782 c 1.77243,0 1.475,1.503875 -1.19454,6.059111 -2.61699,4.46556 -2.79698,4.621695 -3.38196,2.928734 -0.57436,-1.662243 3.15576,-8.987845 4.5765,-8.987845 z m 15.63846,5.836338 c 1.98973,1.989736 -10.32277,16.007842 -18.36938,20.914012 -3.63211,2.214554 -6.98799,2.352362 -7.76834,0.3188 -0.85883,-2.238075 0.69193,-4.056228 4.613,-5.404223 4.75082,-1.633256 10.26388,-5.49618 16.18003,-11.340434 2.72056,-2.687495 5.12529,-4.707546 5.34469,-4.488155 z m -21.37877,4.532334 c 0.0563,-0.0088 0.10626,0.0069 0.14788,0.04798 0.30772,0.307709 0.29127,1.988124 -0.0365,3.735333 -0.65722,3.503248 -3.31282,6.634539 -3.31282,3.906257 0,-2.049019 2.3579,-7.557657 3.20143,-7.689594 z m -4.39213,9.911583 3.28209,0 -2.42748,1.910877 c -4.10419,3.228351 -2.3183,8.029595 2.6349,7.08273 1.50523,-0.287748 2.31033,-0.02458 2.31033,0.75475 0,2.502667 -5.87223,16.062877 -6.95597,16.062877 -1.87267,0 -5.30387,3.254526 -5.44456,5.164174 -0.0722,0.979991 -0.44515,2.288566 -0.82773,2.907603 -0.45982,0.744003 -0.24414,0.952174 0.63569,0.614553 1.76749,-0.67826 16.27989,6.660949 16.27989,8.233099 0,0.67548 -0.82964,3.63994 -1.84366,6.58723 -1.01401,2.94728 -1.79491,6.22682 -1.73611,7.28822 0.10249,1.84997 0.12296,1.85379 0.51853,0.0864 0.22694,-1.01401 1.25435,-4.45094 2.28345,-7.63774 1.02908,-3.18681 1.64389,-6.38788 1.36545,-7.11346 -0.27842,-0.72556 -3.81079,-2.98112 -7.85091,-5.012439 -4.04012,-2.031349 -7.60475,-4.110535 -7.92006,-4.620673 -0.86214,-1.395006 1.09414,-4.445048 3.29939,-5.14497 2.14123,-0.679598 12.00917,5.47147 16.80035,10.472369 l 2.60801,2.72132 -5.11424,12.776943 c -3.839,9.59079 -5.55297,12.84585 -6.87147,13.05542 -3.43501,0.54598 -3.92639,-6.56011 -1.08123,-15.63654 1.00746,-3.21397 1.83678,-6.35861 1.84366,-6.98669 0.007,-0.62811 -3.29784,-2.804334 -7.34199,-4.837698 -4.04415,-2.033355 -8.03098,-4.734577 -8.86109,-6.001491 -1.7894,-2.730966 -1.22137,-8.397658 1.5479,-15.423367 0.96841,-2.456886 1.76109,-6.261481 1.76109,-8.455869 0,-5.492502 2.69507,-8.847648 7.10577,-8.847648 z"
       style="fill:#000000" />
    <path
       inkscape:connector-curvature="0"
       id="path4343"
       d="m 182.98602,143.86346 -3.03059,-3.18212 4.31827,-10.30402 c 2.42449,-5.68235 4.54588,-10.75857 4.77317,-11.28893 0.2273,-0.53038 -2.34868,-4.24283 -5.75781,-8.25837 -6.59153,-7.80376 -8.03103,-11.440457 -5.83387,-14.395287 2.50024,-3.409417 5.45506,-1.28802 11.21288,8.182597 2.95482,4.84892 5.68236,9.84939 5.98543,11.21316 0.45458,1.89413 -0.53037,4.84895 -4.16708,12.12237 -2.65175,5.22776 -4.77318,10.30402 -4.77318,11.28893 0,0.98496 1.0607,2.72754 2.34872,3.93979 2.95482,2.80331 2.95482,3.78822 0.15141,3.78822 -1.21225,0 -3.48519,-1.36377 -5.22748,-3.10634 z"
       style="fill:#ffffff;fill-opacity:1;fill-rule:nonzero;stroke:none" />
    <path
       inkscape:connector-curvature="0"
       id="path4337"
       d="m 156.84736,135.3778 c 2.87897,-9.09178 2.27283,-8.4099 12.57685,-13.41037 l 9.77355,-4.6974 -0.60611,-5.75813 -0.60611,-5.68237 3.40943,3.78827 c 2.95449,3.33363 3.33331,4.16704 2.87872,7.50071 -0.30318,1.96988 -0.75762,3.93974 -0.98464,4.31859 -0.22729,0.37881 -4.16703,2.19717 -8.71292,4.0913 -6.13687,2.57598 -9.54629,4.62163 -12.57685,7.72801 -4.62156,4.77318 -6.13684,5.37929 -5.15192,2.12139 z"
       style="fill:#ffffff;fill-opacity:1;fill-rule:nonzero;stroke:none" />
    <path
       inkscape:connector-curvature="0"
       id="path4329"
       d="m 160.10514,80.372896 c 0,-1.43955 21.66864,-12.57686 26.28997,-13.48604 2.34872,-0.45459 3.18213,-0.22728 3.71249,1.0607 1.06069,2.87908 -0.98495,4.69744 -5.45507,4.84896 -3.86371,0.15141 -19.01655,5.8338 -21.21375,7.95519 -1.28798,1.36377 -3.33364,1.13647 -3.33364,-0.37881 z"
       style="fill:#ffffff;fill-opacity:1;fill-rule:nonzero;stroke:none" />
    <path
       inkscape:connector-curvature="0"
       id="path4323"
       d="m 191.54711,68.250626 c -1.66679,-1.74257 -1.36377,-3.03061 1.13648,-5.45506 2.87907,-2.65175 7.50071,-2.42446 7.9553,0.37881 0.60614,4.24284 -6.2127,7.9553 -9.09178,5.07625 z"
       style="fill:#ffffff;fill-opacity:1;fill-rule:nonzero;stroke:none" />
    <path
       inkscape:connector-curvature="0"
       id="path4235"
       d="m 175.25802,96.055883 c 0,-1.06069 1.13647,-3.333637 2.57598,-5.000477 2.04564,-2.42446 2.87908,-4.69741 3.63672,-10.22793 l 0.90916,-7.19757 3.03029,0.2273 c 2.1972,0.15141 3.48519,-0.3787 4.84895,-2.12131 l 1.81836,-2.34869 0.60611,2.12139 c 0.30317,1.13647 0.53036,3.10627 0.53036,4.39426 0.0758,3.78827 -3.6367,14.62232 -5.83387,17.349857 -2.04565,2.50025 -2.34872,2.57598 -5.30322,1.43951 -2.95483,-1.13646 -3.33368,-0.98491 -5.00049,1.06074 -1.74261,2.12138 -1.81834,2.12138 -1.81834,0.30317 z"
       style="fill:#ffff00;fill-opacity:1;fill-rule:nonzero;stroke:none" />
    <path
       sodipodi:nodetypes="cccscccscsccccccccccccccccccccccccccccscccccccsccccsccccscscccccsccccccccccccsccccccccccccc"
       inkscape:connector-curvature="0"
       id="path4374"
       d="m 188.10938,53.262266 c -1.27744,0.0214 -2.91779,0.86799 -4.29102,2.33594 -2.80299,2.95483 -1.74165,4.39311 1.21289,1.58984 1.21221,-1.13647 2.42506,-2.04492 2.65235,-2.04492 0.2274,0 0.4547,2.19629 0.3789,4.92383 l 0,5.00195 -7.12304,2.8789 c -10.22815,4.24285 -21.81837,10.83472 -21.81837,12.42579 0,1.81835 2.57456,2.72744 4.08985,1.43945 1.21225,-0.98495 16.44086,-7.72852 17.42578,-7.72852 0.30317,0 0.22847,3.10588 -0.15039,6.81836 -0.53032,5.68204 -1.13721,7.34824 -3.41016,10 -3.03056,3.485197 -3.40935,5.986597 -1.43944,10.759774 0.68189,1.74258 1.59135,5.91007 1.89453,9.16797 l 0.68163,5.9082 -8.86523,4.0918 c -4.84891,2.27295 -9.24155,4.69742 -9.84765,5.45508 -0.53038,0.68189 -1.74289,3.41034 -2.57617,5.98632 -2.34872,6.97039 -0.68259,7.50072 5.30273,1.81836 3.56093,-3.33363 7.19778,-5.60752 12.72852,-7.80468 8.48562,-3.40942 9.1674,-3.94036 10.15235,-8.10743 0.60611,-2.42447 0.8331,-2.57511 2.12109,-1.28711 1.28804,1.28799 1.28841,1.74152 0.0762,4.16602 -0.83341,1.51528 -2.95579,6.59321 -4.84961,11.21484 l -3.4082,8.48438 3.02929,3.10742 3.03125,3.10547 -2.07226,0.0156 2.36056,0.17276 c 3.26226,0.33814 6.88358,0.43626 6.88358,-0.13974 l -2.77734,-3.08008 c -1.59106,-1.66684 -2.80311,-3.86232 -2.87891,-4.77148 0,-0.90918 2.19742,-5.98708 4.77344,-11.21485 3.63671,-7.27342 4.69676,-10.22699 4.24218,-12.12109 -0.37881,-1.36377 -2.87989,-6.06114 -5.60742,-10.53125 l -5.07617,-8.107417 2.80469,-3.25782 c 3.40942,-4.091297 6.81861,-15.153437 6.13672,-20.078127 -0.37884,-3.03049 -0.22778,-3.56055 1.36328,-3.56055 1.0607,0 2.87801,-1.13623 4.16601,-2.5 5.22777,-5.60658 1.28947,-14.47002 -5.9082,-13.25781 -1.6668,0.22729 -3.33353,0.0757 -3.63672,-0.37891 -0.36934,-0.62506 -1.00502,-0.90934 -1.77148,-0.89648 z m 9.27148,7.63867 c 1.66683,0 3.0305,0.75813 3.25782,2.27344 0.37884,2.57601 -3.10534,6.13672 -5.98437,6.13672 -2.19722,0 -2.27447,0.30355 -1.74414,4.09179 0.68189,5.00036 -2.42296,16.06138 -5.5293,19.849607 -2.04565,2.50024 -2.42514,2.57633 -5.15234,1.51564 -2.42448,-0.90916 -3.33463,-0.90882 -4.54688,0.0762 -0.8334,0.68188 -1.51367,1.74112 -1.51367,2.27148 0,0.53034 0.60522,0.2291 1.28711,-0.75586 2.50024,-3.333637 5.45507,-1.2128 11.21289,8.257817 2.95482,4.84892 5.68314,9.84912 5.98633,11.21289 0.45458,1.89413 -0.53126,4.84962 -4.16797,12.12304 -2.65175,5.22776 -4.77344,10.30416 -4.77344,11.28907 0,0.98496 1.06159,2.72565 2.34961,4.01367 1.28798,1.21222 2.34766,2.57623 2.34766,2.95508 0,1.96986 -4.62085,0.53139 -7.42383,-2.34766 l -3.03125,-3.18359 4.31836,-10.30274 c 2.42449,-5.68236 4.54615,-10.7587 4.77344,-11.28906 0.2273,-0.53036 -2.34829,-4.16807 -5.68164,-8.18359 -5.30355,-6.28846 -8.10743,-11.666117 -8.10743,-15.681637 0,-0.60611 1.13667,-2.501137 2.57617,-4.167977 2.04566,-2.42446 2.8791,-4.69801 3.63673,-10.22852 l 0.9082,-7.19726 3.03125,0.22851 c 3.93977,0.30307 7.42426,-3.63811 5.68164,-6.4414 -0.90917,-1.4395 -0.68124,-2.19654 1.21289,-4.24219 1.43953,-1.51531 3.40935,-2.27344 5.07617,-2.27344 z m -9.49023,5.7793 c 1.25013,-0.0675 1.81903,0.30162 2.2168,1.26757 1.06069,2.87911 -0.98496,4.6982 -5.45508,4.84961 -3.86371,0.15151 -19.0157,5.83369 -21.2129,7.95508 -1.28798,1.36377 -3.33397,1.13638 -3.33397,-0.3789 0,-1.43955 21.66774,-12.57715 26.28907,-13.48633 0.58717,-0.11365 1.07937,-0.18454 1.49609,-0.20703 z m -9.9043,39.148434 3.40821,3.78907 c 2.95453,3.33363 3.33349,4.16633 2.8789,7.5 -0.30303,1.96988 -0.75742,3.94146 -0.98437,4.32031 -0.22729,0.37881 -4.167,2.19571 -8.7129,4.08984 -6.13687,2.57598 -9.54561,4.62214 -12.57617,7.72852 -4.62156,4.77318 -6.13726,5.37899 -5.15234,2.12109 2.87897,-9.09178 2.27215,-8.40968 12.57617,-13.41015 l 9.77344,-4.69727 -0.60547,-5.75781 z"
       style="fill:#000000;fill-opacity:1;fill-rule:nonzero;stroke:none" />
    <g
       transform="matrix(0.92843528,0,0,0.92843528,15.557587,10.529984)"
       id="g4248">
      <path
         style="fill:#ffffff;fill-opacity:1;fill-rule:nonzero;stroke:none"
         d="m 387.07322,144.47194 2.12139,-2.27295 -2.42446,-13.18306 c -2.65176,-14.31955 -2.65176,-15.45602 1.36376,-29.927068 2.57602,-9.243334 2.27295,-12.955774 -1.13646,-14.849594 -3.93979,-2.1972 -6.06117,0.30318 -6.81883,8.33379 -0.37882,3.485194 -1.0607,9.394842 -1.59107,13.183072 -0.98495,6.5158 -0.8334,7.50071 2.57602,19.69887 3.63671,13.2588 3.63671,12.95577 0.83339,19.62305 -1.06068,2.50023 2.50025,2.12142 5.07626,-0.60611 z"
         id="path4341"
         inkscape:connector-curvature="0" />
      <path
         style="fill:#ffffff;fill-opacity:1;fill-rule:nonzero;stroke:none"
         d="m 430.71273,125.15193 c -0.0758,-0.90918 -0.75766,-3.40942 -1.66684,-5.60658 -1.21225,-3.10638 -3.93979,-5.90965 -11.51623,-12.19816 -5.53085,-4.54588 -13.3336,-11.061638 -17.42489,-14.471062 -4.01556,-3.48519 -7.72801,-6.44002 -8.1826,-6.59154 -1.06073,-0.3788 -1.74261,8.561424 -0.75766,9.925184 0.45459,0.60614 7.3492,5.758128 15.22873,11.516268 7.95429,5.68236 16.28841,12.34963 18.63712,14.77413 4.54589,4.6974 5.7581,5.22776 5.68237,2.65176 z"
         id="path4333"
         inkscape:connector-curvature="0" />
      <path
         style="fill:#ffffff;fill-opacity:1;fill-rule:nonzero;stroke:none"
         d="m 386.46708,60.676508 c 1.36376,-1.96976 4.77321,-6.36413 7.57649,-9.69777 5.68236,-6.66721 8.33415,-11.13734 8.33415,-14.09218 0,-3.4094 -2.34872,-1.96986 -4.5459,2.80332 -1.74261,3.56092 -4.31858,6.28846 -11.13744,11.89497 -4.92471,4.01552 -8.94023,7.42494 -8.94023,7.57649 0,0.1514 0.45459,1.43939 1.0607,2.72742 1.66684,3.63671 4.77318,3.18212 7.65223,-1.21225 z"
         id="path4319"
         inkscape:connector-curvature="0" />
      <path
         style="fill:#ffffff;fill-opacity:1;fill-rule:nonzero;stroke:none"
         d="m 380.33014,55.600368 c 0.68187,-0.6061 1.13646,-1.81835 1.13646,-2.65175 0,-2.19717 -3.93974,-5.68236 -6.43997,-5.68236 -1.66684,0 -2.04566,0.53036 -2.04566,3.25789 0,4.62163 4.62163,7.80375 7.34917,5.07622 z"
         id="path4313"
         inkscape:connector-curvature="0" />
      <path
         style="fill:#ffff00;fill-opacity:1;fill-rule:nonzero;stroke:none"
         d="m 390.93722,85.754548 c 0,-0.30317 -0.75766,-1.89412 -1.81836,-3.6367 -2.12141,-3.71249 -4.16707,-14.16792 -3.33366,-17.12274 0.53036,-1.74258 0.45459,-1.89413 -0.60611,-0.90918 -2.12143,1.96987 -5.53084,1.43954 -6.66731,-1.21225 -1.43951,-3.10623 -2.42447,-2.95483 -3.18213,0.53037 -0.98491,4.4701 0.45459,14.16791 2.80332,18.7138 2.04565,4.09097 2.04565,4.09097 3.78822,2.12142 2.1972,-2.42449 3.40942,-2.42449 6.59153,0 1.36377,1.13648 2.4245,1.74225 2.4245,1.51528 z"
         id="path4231"
         inkscape:connector-curvature="0" />
      <path
         style="fill:#000000;fill-opacity:1;fill-rule:nonzero;stroke:none"
         d="m 401.38618,34.188128 c 0.85599,-0.0647 1.47496,0.80788 1.67382,2.69727 0.30309,2.87904 -2.42497,7.42503 -9.54687,15.98632 -6.59168,7.95523 -7.80433,11.82058 -6.28906,20.23047 0.60611,3.18201 1.66772,6.89405 2.34961,8.25782 1.36376,2.72752 8.33326,8.93935 27.27343,24.546872 11.2132,9.24329 12.1234,10.22838 13.63868,14.92578 1.21224,3.93978 1.28851,5.30371 0.45507,6.21289 -0.90917,0.8334 -2.34894,-0.0747 -6.59179,-4.16601 -2.95482,-2.95483 -10.98643,-9.24479 -17.72852,-14.09375 -6.81883,-4.84892 -13.25845,-9.620908 -14.4707,-10.681638 -1.66684,-1.51529 -2.19683,-1.59198 -2.5,-0.53125 -4.54589,14.016478 -4.69783,16.669228 -1.89453,31.443358 l 2.42383,13.18164 -2.1211,2.27343 -2.11914,2.27149 -3.41211,0.39648 -2.42153,-0.18229 1.66372,-3.6224 c 2.12143,-4.39431 2.12182,-4.46985 -1.74219,-18.48632 -3.18211,-11.59202 -3.33299,-12.57604 -2.42383,-19.0918 2.34873,-16.971332 2.34863,-18.109292 -0.3789,-23.488282 -3.2579,-6.43999 -3.94003,-19.31943 -1.13672,-22.42578 1.51527,-1.7425 1.51463,-1.89381 -1.21289,-3.93946 -2.42447,-1.81836 -2.80274,-2.652 -2.80274,-6.59179 0,-6.36412 1.81911,-8.63672 7.04688,-8.63672 2.27294,0 4.47026,-0.45402 4.77344,-0.98438 0.75763,-1.21222 4.92398,-1.21222 5.68164,0 0.30303,0.53036 1.36311,0.98438 2.42382,0.98438 0.98494,0 1.81836,0.45401 1.81836,0.98437 0,1.06069 -1.59088,0.90983 -6.51562,-0.60546 -2.12142,-0.68189 -2.27325,-0.5296 -1.51563,1.59179 0.37886,1.21225 0.75782,3.55976 0.75782,5.22656 l 0,3.03125 4.16797,-3.48632 c 2.34872,-1.96976 5.22803,-5.6811 6.59179,-8.48438 1.49164,-3.02587 2.98342,-4.66091 4.08399,-4.74414 z m 0.0801,0.82813 c -0.85902,0.009 -2.26153,1.69059 -3.63477,4.67382 -1.74261,3.56092 -4.31786,6.28804 -11.13672,11.89453 -4.92471,4.01554 -9.01562,7.42477 -9.01562,7.57618 0,0.15152 0.52865,1.44048 1.13476,2.72851 1.66684,3.63671 4.77327,3.18148 7.65235,-1.21289 1.36373,-1.96976 4.77484,-6.36362 7.57812,-9.69726 5.68236,-6.66721 8.25781,-11.13696 8.25781,-14.0918 0,-1.27853 -0.32056,-1.87643 -0.83593,-1.87109 z m -26.43946,12.25 c -1.66684,0 -2.04492,0.53028 -2.04492,3.25781 0,2.27295 0.60581,3.7127 2.12109,4.77344 1.13647,0.75762 2.57511,1.43945 3.10547,1.43945 1.51529,0 3.25779,-2.04649 3.25782,-3.78906 -4e-5,-2.19717 -3.93923,-5.68164 -6.43946,-5.68164 z m 1.63867,13.40039 c -0.52088,0.0852 -0.9571,0.9957 -1.33593,2.73828 -0.98491,4.47015 0.454,14.16701 2.80273,18.71289 2.04565,4.09101 2.04649,4.09067 3.78906,2.12109 2.27295,-2.4246 3.41008,-2.42366 6.66797,0.15235 2.34862,1.81803 2.57608,2.49853 2.19727,6.58984 -0.53036,5.379314 -1.44036,4.470834 16.74219,17.578122 7.27341,5.30354 15.15324,11.51691 17.50195,13.94141 6.06117,6.21272 7.04588,5.68105 4.31836,-2.42578 -1.28803,-3.56097 -3.18143,-5.60568 -12.95508,-13.63672 -10.30301,-8.409888 -14.24422,-11.743178 -23.71484,-19.925782 -1.43951,-1.2877 -3.1818,-3.48429 -3.93946,-4.92383 -1.89409,-3.63671 -3.71271,-14.01773 -2.95508,-16.59375 0.53036,-1.74258 0.45524,-1.89311 -0.60546,-0.9082 -2.12143,1.96991 -5.5315,1.43886 -6.66797,-1.21289 -0.71976,-1.55314 -1.32482,-2.29226 -1.84571,-2.20703 z m 7.71094,22.81836 c -2.29425,0.15268 -3.62902,3.06482 -4.19726,9.08789 -0.37882,3.485194 -1.06143,9.395362 -1.5918,13.183592 -0.98495,6.5158 -0.83325,7.50106 2.57617,19.69922 3.63671,13.2588 3.63732,12.95577 0.83398,19.62305 -1.06064,2.50023 2.50017,2.1201 5.07618,-0.60743 l 2.12109,-2.27148 -2.42383,-13.18359 c -2.65176,-14.31955 -2.65224,-15.45669 1.36328,-29.927738 2.57602,-9.243334 2.27269,-12.955794 -1.13672,-14.849614 -0.98491,-0.5493 -1.85634,-0.8048 -2.62109,-0.7539 z"
         id="path4380"
         inkscape:connector-curvature="0"
         sodipodi:nodetypes="ccccsccccccccccccccccccsssccssccscccccccscccscsscscsccccccccccccccccscccccccccs" />
      <path
         style="fill:#ffffff;fill-rule:evenodd;stroke:none;stroke-width:1px;stroke-linecap:butt;stroke-linejoin:miter;stroke-opacity:1"
         d="m 391.82438,97.152631 c 0,0 -8.56783,-6.125313 -9.5778,-8.251563 -1.00997,-2.12625 -1.75416,-4.358812 -0.47841,-5.740874 1.27575,-1.382063 4.6246,-2.12625 5.9535,-1.169438 1.32891,0.956813 5.90035,4.730906 7.01663,5.687719"
         id="path4242"
         inkscape:connector-curvature="0"
         sodipodi:nodetypes="csssc" />
      <path
         style="color:#000000;font-style:normal;font-variant:normal;font-weight:normal;font-stretch:normal;font-size:medium;line-height:normal;font-family:sans-serif;text-indent:0;text-align:start;text-decoration:none;text-decoration-line:none;text-decoration-style:solid;text-decoration-color:#000000;letter-spacing:normal;word-spacing:normal;text-transform:none;direction:ltr;block-progression:tb;writing-mode:lr-tb;baseline-shift:baseline;text-anchor:start;white-space:normal;clip-rule:nonzero;display:inline;overflow:visible;visibility:visible;opacity:1;isolation:auto;mix-blend-mode:normal;color-interpolation:sRGB;color-interpolation-filters:linearRGB;solid-color:#000000;solid-opacity:1;fill:#000000;fill-opacity:1;fill-rule:evenodd;stroke:none;stroke-width:1px;stroke-linecap:butt;stroke-linejoin:miter;stroke-miterlimit:4;stroke-dasharray:none;stroke-dashoffset:0;stroke-opacity:1;color-rendering:auto;image-rendering:auto;shape-rendering:auto;text-rendering:auto;enable-background:accumulate"
         d="m 386.45703,81.064453 c -0.58266,-0.04718 -1.21107,0.01679 -1.83203,0.144531 -1.24192,0.255481 -2.46917,0.792939 -3.22461,1.611328 -0.76176,0.825237 -0.91041,1.923458 -0.74414,3.007813 0.16627,1.084355 0.62501,2.205713 1.13867,3.287109 0.33013,0.695001 1.07426,1.45215 2.03516,2.339844 0.96089,0.887694 2.13347,1.858517 3.27344,2.761719 2.27993,1.806403 4.56593,3.44986 4.56593,3.44986 l 0.38,-0.882976 c -0.78933,-0.972567 -2.06837,-1.564224 -4.32484,-3.35204 -1.12824,-0.893908 -2.28717,-1.852128 -3.2168,-2.710938 -0.92963,-0.85881 -1.63569,-1.665079 -1.81054,-2.033203 -0.49631,-1.044854 -0.91336,-2.102714 -1.05274,-3.011719 -0.13938,-0.909004 -0.0238,-1.618955 0.49024,-2.175781 0.52031,-0.563673 1.60773,-1.089574 2.6914,-1.3125 1.08367,-0.222926 2.15057,-0.117136 2.60352,0.208984 1.2642,0.910225 6.19729,4.934086 7.29471,5.874735 l 0.35334,-0.859434 c -1.13514,-0.972977 -5.67045,-4.822446 -7.06407,-5.825847 -0.43798,-0.315346 -0.97398,-0.474302 -1.55664,-0.521485 z"
         id="path4244"
         inkscape:connector-curvature="0"
         sodipodi:nodetypes="sssssssccsscscssccss" />
    </g>
    <g
       transform="translate(10,0)"
       id="g8184">
      <path
         inkscape:connector-curvature="0"
         id="path8102"
         d="m 174.65868,115.27862 c 0,0 0.0274,-16.20807 0.0274,-17.861905 0,-1.653834 -3.08216,-4.284934 -5.11185,-4.134586 -2.02971,0.150349 -3.5332,1.277963 -4.05942,3.082146 -0.52622,1.804183 1.50349,8.569865 1.57866,9.622305 0.0752,1.05244 1.72901,11.05062 1.72901,11.05062"
         style="color:#000000;clip-rule:nonzero;display:inline;overflow:visible;visibility:visible;opacity:1;isolation:auto;mix-blend-mode:normal;color-interpolation:sRGB;color-interpolation-filters:linearRGB;solid-color:#000000;solid-opacity:1;fill:#ffffff;fill-opacity:1;fill-rule:evenodd;stroke:none;stroke-width:1px;stroke-linecap:butt;stroke-linejoin:miter;stroke-miterlimit:4;stroke-dasharray:none;stroke-dashoffset:0;stroke-opacity:1;color-rendering:auto;image-rendering:auto;shape-rendering:auto;text-rendering:auto;enable-background:accumulate"
         sodipodi:nodetypes="cssscc" />
      <path
         style="color:#000000;font-style:normal;font-variant:normal;font-weight:normal;font-stretch:normal;font-size:medium;line-height:normal;font-family:sans-serif;text-indent:0;text-align:start;text-decoration:none;text-decoration-line:none;text-decoration-style:solid;text-decoration-color:#000000;letter-spacing:normal;word-spacing:normal;text-transform:none;direction:ltr;block-progression:tb;writing-mode:lr-tb;baseline-shift:baseline;text-anchor:start;white-space:normal;clip-rule:nonzero;display:inline;overflow:visible;visibility:visible;opacity:1;isolation:auto;mix-blend-mode:normal;color-interpolation:sRGB;color-interpolation-filters:linearRGB;solid-color:#000000;solid-opacity:1;fill:#000000;fill-opacity:1;fill-rule:evenodd;stroke:none;stroke-width:1px;stroke-linecap:butt;stroke-linejoin:miter;stroke-miterlimit:4;stroke-dasharray:none;stroke-dashoffset:0;stroke-opacity:1;color-rendering:auto;image-rendering:auto;shape-rendering:auto;text-rendering:auto;enable-background:accumulate"
         d="m 169.53697,92.783204 c -2.19524,0.162611 -3.91972,1.445223 -4.50194,3.441406 -0.17927,0.61463 -0.12272,1.390476 -0.002,2.320313 0.12076,0.929837 0.32952,1.988017 0.55664,3.019527 0.22712,1.03152 0.47201,2.03573 0.66406,2.84375 0.19205,0.80803 0.33168,1.47169 0.3418,1.61328 0.0241,0.33693 0.1387,1.12324 0.30469,2.21094 0.16598,1.08771 0.38025,2.43764 0.59179,3.75391 0.42308,2.63253 0.83789,5.13281 0.83789,5.13281 l 0.9066,0.10172 c 0,0 -0.33358,-2.76307 -0.75621,-5.39274 -0.21131,-1.31483 -0.42458,-2.66314 -0.58984,-3.74609 -0.16526,-1.08295 -0.2853,-1.94157 -0.29883,-2.13086 -0.0275,-0.38463 -0.17006,-0.96052 -0.36328,-1.77344 -0.19322,-0.81291 -0.43819,-1.81114 -0.66211,-2.82812 -0.22392,-1.01699 -0.42685,-2.054549 -0.54101,-2.933593 -0.11417,-0.879044 -0.1151,-1.624648 -0.0313,-1.91211 0.47022,-1.612182 1.75301,-2.584569 3.61719,-2.722656 0.78197,-0.05792 2.0016,0.48523 2.96094,1.277344 0.95934,0.792113 1.61328,1.841111 1.61328,2.357422 0,0.872371 0.11379,5.108083 0.22656,9.167963 0.11278,4.05989 -0.0412,12.32408 -0.0412,12.32408 l 1.26578,-4.44127 c 0,0 -0.11186,-3.85317 -0.22461,-7.91211 -0.11274,-4.05894 -0.22656,-8.35721 -0.22656,-9.138673 0,-1.137524 -0.8874,-2.229599 -1.97656,-3.128907 -1.08916,-0.899308 -2.42415,-1.59633 -3.67188,-1.503906 z"
         id="path8100"
         inkscape:connector-curvature="0"
         sodipodi:nodetypes="cscssccsccsscssccssssccssscc" />
    </g>
    <g
       id="g8259"
       transform="translate(55.156545,-10.110845)">
      <path
         style="fill:#fefefe"
         d="m 230.75757,111.98938 c -3.07445,-0.9529 -3.35403,-1.47448 -4.38342,-8.17753 -0.65169,-4.243445 -2.66606,-8.503027 -0.24555,-9.520767 4.54285,-1.910127 5.0873,-1.996677 5.14741,2.590436 0.0303,2.315196 0.24178,4.111131 0.46988,3.990971 0.22809,-0.12015 0.3833,-2.228449 0.34489,-4.68509 -0.0384,-2.456645 0.18626,-4.990385 0.49924,-5.63053 0.32186,-0.658299 -0.0877,-0.543021 -0.94292,0.26537 -1.50206,1.41989 -1.55755,1.293986 -0.0399,-2.926558 1.56659,-4.356519 2.66392,-5.095783 4.63626,-3.12344 1.75572,1.755719 -0.2546,2.488917 0.75667,10.23121 0.89807,6.875618 -0.57524,16.119688 -2.75191,17.266328 -0.52683,0.27752 -2.09763,0.15134 -3.49066,-0.28042 z"
         id="path8229-4"
         inkscape:connector-curvature="0" />
      <path
         style="fill:#fefefe"
         d="m 232.68097,79.669714 c 0,-2.209203 3.7077,-6.334972 5.69304,-6.334972 3.12818,0 1.88287,1.993578 -4.05242,6.487405 -1.38393,1.047829 -1.64062,1.02398 -1.64062,-0.152433 z"
         id="path8213"
         inkscape:connector-curvature="0" />
      <path
         style="fill:#fefefe"
         d="m 216.97784,75.180528 c -2.73934,-1.101085 -2.66248,-3.081006 0.31703,-8.165144 2.83844,-4.843435 3.53182,-4.809856 2.17468,0.105315 -0.53521,1.938353 -0.70119,4.762288 -0.36885,6.275411 0.33234,1.513123 0.46526,2.724391 0.29539,2.691708 -0.16989,-0.03268 -1.25809,-0.440965 -2.41825,-0.90729 z"
         id="path8211"
         inkscape:connector-curvature="0" />
      <path
         style="fill:#fefefe"
         d="m 234.74263,67.944117 c -2.60069,-7.558522 -2.60318,-7.505973 0.23227,-4.921875 2.28684,2.084127 5.20607,6.526377 5.20607,7.922194 0,0.283418 -0.95146,0.515306 -2.11435,0.515306 -1.60321,0 -2.40679,-0.849907 -3.32399,-3.515625 z"
         id="path8205"
         inkscape:connector-curvature="0" />
      <path
         style="fill:#fefefe"
         d="m 222.77738,57.961348 c -0.31037,-1.236617 -0.4096,-3.240523 -0.22052,-4.453125 0.32669,-2.095016 0.44701,-2.041446 2.41795,1.076519 2.56698,4.060888 2.62927,5.625 0.22402,5.625 -1.17808,0 -2.06348,-0.822121 -2.42145,-2.248394 z"
         id="path8199"
         inkscape:connector-curvature="0" />
      <path
         style="fill:#ffff00"
         d="m 219.87735,91.553847 c -2.60362,-2.603618 -2.60233,-4.751508 0.007,-10.995601 1.18068,-2.82577 1.98423,-3.352891 7.06041,-4.631586 l 5.72811,-1.442912 -0.54855,5.284872 c -0.76536,7.373581 -2.06459,11.138601 -4.41082,12.781965 -2.89237,2.025891 -5.09309,1.745954 -7.83578,-0.996738 z"
         id="path8249"
         inkscape:connector-curvature="0" />
      <path
         style="fill:#ffff00"
         d="m 220.03865,73.378627 c -0.35397,-1.115256 -0.14554,-4.103827 0.46319,-6.641269 1.00228,-4.177986 1.43028,-4.703389 4.53357,-5.565345 4.80495,-1.3346 6.70806,-1.195433 6.70806,0.490535 0,0.799044 0.65455,2.718566 1.45456,4.265606 2.66662,5.156693 0.89534,6.795982 -9.61438,8.897927 -2.42161,0.484322 -3.00785,0.244955 -3.545,-1.447454 z"
         id="path3410"
         inkscape:connector-curvature="0" />
      <path
         style="fill:#fe0000"
         d="m 246.04034,86.304172 c -4.23107,-0.947519 -5.11645,-2.171271 -2.23301,-3.086438 0.96325,-0.305723 2.50519,-1.38884 3.42655,-2.406925 2.23021,-2.464355 3.5222,-2.345355 2.80446,0.258308 l -0.58147,2.109375 1.92454,-2.213235 c 3.8302,-4.404718 1.91579,-6.50659 -6.63935,-7.28947 -6.55231,-0.599602 -19.11445,1.879541 -26.83985,5.296855 -4.78704,2.117537 -4.90874,2.144433 -4.90874,1.084853 0,-1.293455 8.42334,-4.688883 16.875,-6.80227 10.15428,-2.539137 19.6825,-2.070251 23.096,1.136559 2.83804,2.666205 2.78803,3.744875 -0.34634,7.46987 -1.69933,2.019527 -2.17315,3.175675 -1.40625,3.431306 1.5124,0.504135 1.49998,2.133701 -0.0153,2.003883 -0.64453,-0.05522 -2.96484,-0.501921 -5.15625,-0.992671 z"
         id="path3408"
         inkscape:connector-curvature="0" />
      <path
         style="fill:#000000"
         d="m 227.96875,47.14258 c -1.56479,0.0234 -3.15483,0.49103 -4.45313,1.40039 -1.56396,1.09544 -2.08398,2.39762 -2.08398,5.21875 0,2.06716 0.42226,4.54508 0.9375,5.50781 0.7531,1.40719 0.55422,1.87151 -1.01367,2.36914 -2.13193,0.67665 -7.42383,8.34237 -7.42383,10.75391 0,0.82717 0.50625,2.01015 1.125,2.6289 0.61875,0.61875 1.77893,1.09909 2.57813,1.06641 0.89138,-0.0365 0.63767,-0.38811 -0.65625,-0.9082 -1.16016,-0.46633 -2.10938,-1.56189 -2.10938,-2.43555 0,-1.66373 4.60478,-10.11789 5.19141,-9.53125 0.18602,0.18602 -0.10692,2.08934 -0.65039,4.23047 -0.70269,2.76824 -0.69173,4.65643 0.0371,6.5332 l 1.02539,2.63867 -0.50391,-2.91796 c -0.27709,-1.60462 -0.0123,-4.86641 0.58789,-7.25 0.96943,-3.84997 1.47056,-4.44032 4.49805,-5.28125 1.87436,-0.52063 4.04413,-0.94828 4.82031,-0.95118 1.59898,-0.006 3.94472,5.68538 3.98242,9.66016 0.0178,1.87609 0.31442,2.34377 1.03125,1.62695 0.71681,-0.71682 0.657,-1.88009 -0.21094,-4.04101 -2.59052,-6.44969 -2.50638,-7.01141 0.61524,-4.09571 1.58296,1.47855 3.38727,3.91904 4.00976,5.42188 0.6225,1.50283 1.31653,2.54674 1.54297,2.32031 0.74468,-0.74468 -2.31596,-5.68899 -5.24609,-8.47461 -3.08926,-2.93692 -3.18308,-5.29882 -0.38672,-9.77148 1.04378,-1.66947 1.91132,-2.05659 3.63867,-1.62305 3.02653,0.75961 2.89886,-0.75268 -0.18164,-2.15625 -1.5621,-0.71174 -2.83524,-0.7948 -3.51758,-0.22851 -0.69297,0.57512 -1.70942,0.41944 -2.88672,-0.44141 -1.19273,-0.87216 -2.73208,-1.2929 -4.29687,-1.26953 z m -4.92773,4.92578 c 0.30365,-0.0223 0.82493,0.76177 1.93359,2.51562 1.14078,1.80469 2.07612,3.8086 2.07812,4.45313 0.002,0.64453 -0.83209,1.17187 -1.85351,1.17187 -2.03551,0 -3.2195,-3.00137 -2.64258,-6.70117 0.14293,-0.91657 0.2482,-1.42208 0.48438,-1.43945 z m 17.99804,22.20703 c -0.36875,0.0237 -1.96253,1.29117 -3.85742,3.09375 -4.06979,3.87149 -5.90804,3.40977 -3.1543,-0.79297 1.08356,-1.65371 1.17622,-2.25349 0.32227,-2.08008 -1.50551,0.30573 -2.39117,2.96509 -2.51172,7.53907 -0.21443,8.13607 -4.94146,13.43297 -9.95117,11.15039 -3.78981,-1.72675 -4.69636,-4.86286 -2.91602,-10.08789 0.83507,-2.45081 1.35222,-4.6224 1.14844,-4.82618 -0.80688,-0.80688 -3.47547,9.20666 -2.91992,10.95704 0.32631,1.02811 1.63853,2.69044 2.91601,3.69531 l 3.66993,2.01172 1.75781,9.08984 c 1.42293,7.36296 1.24206,7.48956 5,8.6543 1.70963,0.52988 3.56206,0.72408 4.11719,0.43164 0.55514,-0.29244 1.70814,-2.96413 2.56054,-5.9375 1.60461,-5.59716 1.08594,-13.72366 1.08594,-18.58594 0,-2.80771 -2.39704,-5.87585 -4.59766,-5.88477 -0.88866,-0.004 0.31057,-1.5539 2.95704,-3.82226 2.44921,-2.09929 4.45312,-4.14144 4.45312,-4.53711 0,-0.0495 -0.0274,-0.0717 -0.0801,-0.0684 z m -6.91211,9.37109 c 1.76947,0 3.24219,2.19058 3.24219,4.82227 0,4.64391 0.63347,13.40855 -0.80078,18.48047 -1.55568,5.50131 -2.28522,6.13365 -5.81055,5.04101 -3.07441,-0.95292 -3.35338,-1.4747 -4.38281,-8.17773 -0.65169,-4.24345 -2.6666,-8.50374 -0.24609,-9.52148 4.54285,-1.91012 5.08638,-1.99727 5.14648,2.58984 0.0303,2.3152 0.0591,7.86625 0.28711,7.74609 0.2281,-0.12016 0.5677,-5.98281 0.5293,-8.43945 -0.0384,-2.45664 0.18506,-4.98876 0.49804,-5.62891 0.32186,-0.6583 -0.0881,-0.54471 -0.94336,0.26368 -1.50205,1.41989 -1.55675,1.2928 -0.0391,-2.92774 0.84026,-2.33664 1.97405,-4.24805 2.51953,-4.24805 z"
         id="path8176"
         inkscape:connector-curvature="0" />
    </g>
  </g>
</svg>
