<?xml version="1.0" encoding="UTF-8" standalone="no"?>
<!-- Created with Inkscape (http://www.inkscape.org/) -->

<svg
   xmlns:dc="http://purl.org/dc/elements/1.1/"
   xmlns:cc="http://creativecommons.org/ns#"
   xmlns:rdf="http://www.w3.org/1999/02/22-rdf-syntax-ns#"
   xmlns:svg="http://www.w3.org/2000/svg"
   xmlns="http://www.w3.org/2000/svg"
   xmlns:sodipodi="http://sodipodi.sourceforge.net/DTD/sodipodi-0.dtd"
   xmlns:inkscape="http://www.inkscape.org/namespaces/inkscape"
   id="svg3431"
   version="1.1"
   inkscape:version="0.91 r13725"
   width="531.5625"
   height="246.5625"
   viewBox="0 0 531.5625 246.5625"
   sodipodi:docname="fx111504.svg">
  <metadata
     id="metadata3437">
    <rdf:RDF>
      <cc:Work
         rdf:about="">
        <dc:format>image/svg+xml</dc:format>
        <dc:type
           rdf:resource="http://purl.org/dc/dcmitype/StillImage" />
        <dc:title></dc:title>
      </cc:Work>
    </rdf:RDF>
  </metadata>
  <defs
     id="defs3435" />
  <sodipodi:namedview
     pagecolor="#ffe1dd"
     bordercolor="#666666"
     borderopacity="1"
     objecttolerance="10"
     gridtolerance="10"
     guidetolerance="10"
     inkscape:pageopacity="0"
     inkscape:pageshadow="2"
     inkscape:window-width="1815"
     inkscape:window-height="802"
     id="namedview3433"
     showgrid="false"
     inkscape:zoom="1.175779"
     inkscape:cx="240.47066"
     inkscape:cy="135.84909"
     inkscape:window-x="104"
     inkscape:window-y="63"
     inkscape:window-maximized="0"
     inkscape:current-layer="svg3431" />
  <g
     id="g4288"
     transform="translate(-1.4684372,-1.6343575e-6)">
    <rect
       y="180.38872"
       x="110.7577"
       height="0.89323962"
       width="312.98398"
       id="rect4178"
       style="fill:#000000;stroke:none;stroke-width:0.60000002;stroke-miterlimit:4;stroke-dasharray:none" />
    <path
       id="path4177"
       d="m 306.15915,159.92838 c -0.3342,-1.053 -0.33963,-3.50092 -0.0121,-5.43983 0.33877,-2.00513 -0.0325,-6.53602 -0.86101,-10.50733 -2.28565,-10.95605 -2.03251,-12.55103 3.47009,-21.8635 5.04538,-8.53863 8.34817,-12.77481 9.96009,-12.77481 2.12577,0 4.02269,3.1909 3.67375,6.1798 -0.19671,1.68502 -0.024,2.85743 0.38391,2.60536 1.25615,-0.77635 0.82279,0.99115 -0.84054,3.42811 -0.87016,1.27489 -3.44506,4.52394 -5.72201,7.2201 l -4.1399,4.90213 1.47134,8.59843 c 0.80923,4.72915 1.23388,8.98264 0.94366,9.45222 -0.29022,0.46957 -0.72143,2.19901 -0.95825,3.84318 -0.73134,5.07737 -6.12765,8.26735 -7.36903,4.35614 z"
       style="fill:#ffffff"
       inkscape:connector-curvature="0" />
    <path
       id="path4175"
       d="m 311.42399,143.06422 c -0.53141,-4.75967 -1.24048,-8.9152 -1.57572,-9.2345 -0.33524,-0.31931 -0.36786,1.10694 -0.0725,3.16944 0.29536,2.0625 0.80984,6.4126 1.14332,9.6669 0.33346,3.2543 0.80088,5.72232 1.0387,5.48451 0.23781,-0.23782 -0.003,-4.32668 -0.53381,-9.08635 z"
       style="fill:#ffb380"
       inkscape:connector-curvature="0" />
    <path
       id="path4173"
       d="m 318.80099,123.56562 c 3.00691,-4.39365 2.32807,-3.69649 -4.86471,4.99604 -2.85438,3.44954 -3.11991,3.98704 -1.00545,2.03521 1.58031,-1.45876 4.22188,-4.62282 5.87016,-7.03125 z"
       style="fill:#ffb380"
       inkscape:connector-curvature="0" />
    <path
       id="path4171"
       d="m 212.18645,157.6361 c -1.08157,-2.81851 -0.58282,-8.55185 1.25353,-14.41003 1.00746,-3.21397 1.83711,-6.35707 1.84366,-6.9847 0.007,-0.62762 -3.20299,-2.76913 -7.13229,-4.75892 -5.1019,-2.58357 -6.71151,-3.78987 -5.63061,-4.21978 1.92883,-0.76715 16.46212,6.44608 16.46212,8.17056 0,0.69111 -0.64199,3.07171 -1.42663,5.29023 -2.04824,5.79117 -3.13339,11.02584 -2.16111,10.42494 0.45225,-0.2795 0.82224,-1.23279 0.82224,-2.11844 0,-0.88564 0.87068,-4.18848 1.93484,-7.33964 1.06416,-3.15115 1.70473,-6.32902 1.42349,-7.06194 -0.28126,-0.73291 -3.81692,-2.99457 -7.85704,-5.0259 -4.04012,-2.03133 -7.60362,-4.11072 -7.91892,-4.62087 -0.86215,-1.395 1.09362,-4.44555 3.29888,-5.14547 2.14123,-0.6796 12.01043,5.47235 16.80161,10.47327 l 2.60656,2.72066 -5.11448,12.77726 c -3.839,9.59079 -5.55254,12.84688 -6.87104,13.05645 -0.97272,0.15461 -2.0146,-0.39323 -2.33481,-1.22768 z"
       style="fill:#ffffff"
       inkscape:connector-curvature="0" />
    <path
       id="path4163"
       d="m 297.84791,106.76478 c 1.07297,-4.47485 3.28366,-8.014054 9.08979,-14.55235 6.09611,-6.864846 9.21519,-8.446357 11.71931,-5.942228 2.03364,2.03362 0.59765,4.433427 -3.46159,5.785023 -4.05405,1.34987 -13.8497,11.183215 -14.5303,14.586225 -0.31545,1.57727 -1.14268,2.70146 -1.98784,2.70146 -1.10402,0 -1.30084,-0.61186 -0.82937,-2.57813 z"
       style="fill:#ffffff"
       inkscape:connector-curvature="0" />
    <path
       id="path4159"
       d="m 209.128,99.462184 c -0.85883,-2.238079 0.6929,-4.055266 4.61397,-5.403263 4.75082,-1.633253 10.2631,-5.497345 16.17926,-11.341593 2.72056,-2.6875 5.12599,-4.706861 5.34538,-4.487465 1.98973,1.989733 -10.32248,16.007463 -18.36909,20.913631 -3.63211,2.214556 -6.98918,2.352256 -7.76952,0.31869 z"
       style="fill:#ffffff"
       inkscape:connector-curvature="0" />
    <path
       id="path4153"
       d="m 297.47275,93.171034 c 0.41321,-1.331911 5.52292,-3.950947 9.47267,-4.855315 l 2.64874,-0.606475 -1.71124,2.349871 c -1.07828,1.48071 -2.64434,2.36077 -4.23401,2.379333 -1.38754,0.0162 -2.78355,0.451336 -3.10222,0.966961 -0.83884,1.357263 -3.50466,1.154004 -3.07394,-0.234375 z"
       style="fill:#ffffff"
       inkscape:connector-curvature="0" />
    <path
       id="path4147"
       d="m 210.68638,90.45245 c 0,-2.185616 2.68321,-8.308387 3.34916,-7.642426 0.92723,0.927225 -0.5348,6.831943 -1.99081,8.04032 -1.1035,0.915822 -1.35835,0.841169 -1.35835,-0.397894 z"
       style="fill:#ffffff"
       inkscape:connector-curvature="0" />
    <path
       id="path4145"
       d="m 310.57794,82.905409 c -1.53773,-1.537727 -1.47861,-8.25 0.0727,-8.25 2.81086,0 5.36485,2.926306 5.36485,6.14691 0,2.743442 -0.32373,3.22809 -2.15625,3.22809 -1.18594,0 -2.6625,-0.50625 -3.28125,-1.125 z"
       style="fill:#ffffff"
       inkscape:connector-curvature="0" />
    <path
       id="path3451"
       d="m 215.05101,81.381344 c -0.57435,-1.66224 3.1557,-8.987841 4.57645,-8.987841 1.77242,0 1.47642,1.502965 -1.19312,6.058201 -2.61699,4.465554 -2.79835,4.622599 -3.38333,2.92964 z"
       style="fill:#ffffff"
       inkscape:connector-curvature="0" />
    <path
       id="path4193"
       d="m 199.12025,125.46208 c -1.8316,-2.79538 -1.28613,-8.39283 1.50891,-15.4839 0.96841,-2.45688 1.76075,-6.26246 1.76075,-8.45685 0,-5.492505 2.69425,-8.847572 7.10494,-8.847572 l 3.28382,0 -2.42889,1.910567 c -4.10419,3.228354 -2.31733,8.029995 2.63587,7.083125 1.50524,-0.28774 2.30988,-0.025 2.30988,0.7544 0,2.72055 -5.89737,16.06314 -7.09985,16.06314 -1.91039,0 -6.04525,4.4991 -5.48254,5.9655 0.26895,0.70089 -0.0808,1.74726 -0.77727,2.32526 -0.99319,0.82429 -1.6004,0.54099 -2.81562,-1.31367 z"
       style="fill:#ffff00"
       inkscape:connector-curvature="0" />
    <path
       id="path4189"
       d="m 323.51544,115.23208 c 0,-4.72668 -3.22527,-7.6752 -6.48647,-5.92986 -1.61709,0.86544 -1.89996,0.49184 -2.79795,-3.69534 -2.32754,-10.85293 -2.36477,-12.201471 -0.33683,-12.201471 2.13628,0 6.80875,-3.373646 6.80875,-4.916099 0,-0.566507 -0.69819,-1.801512 -1.55155,-2.744456 -0.88951,-0.982904 -1.0998,-1.714445 -0.49283,-1.714445 2.05173,0 3.66742,5.248139 4.18495,13.59375 0.28779,4.640621 1.03556,10.468801 1.66171,12.951501 0.84929,3.36743 0.86818,4.78429 0.0743,5.57813 -0.79384,0.79383 -1.06413,0.55971 -1.06413,-0.92171 z"
       style="fill:#ffff00"
       inkscape:connector-curvature="0" />
    <path
       inkscape:connector-curvature="0"
       id="path8233"
       d="m 325.45375,65.280556 c -0.48088,0 -1.12137,0.77943 -1.42383,1.73243 -0.7651,2.41062 -4.08315,3.68123 -8.28906,3.17187 -5.00502,-0.60614 -7.22461,1.58347 -7.22461,7.13281 0,3.02782 0.56577,4.85206 1.97265,6.34961 l 1.97461,2.09961 -6.51172,1.93946 c -7.11061,2.11764 -10.749,4.94827 -8.82812,6.86914 0.87667,0.87667 1.53347,0.87243 2.96484,-0.0215 1.01138,-0.63162 2.5567,-1.14844 3.4336,-1.14844 1.30258,0 1.15427,0.47183 -0.81641,2.57813 -3.05647,3.26683 -5.23375,7.563654 -5.61328,11.083984 -0.23901,2.21699 0.0649,2.74414 1.58008,2.74414 1.28992,0 2.18298,-0.95393 2.86328,-3.05859 0.54386,-1.6826 2.85295,-4.95829 5.13086,-7.279304 4.75661,-4.84663 4.63539,-4.95377 6.54297,5.763684 l 1.18945,6.67578 -2.7793,4.10547 c -5.56675,8.22376 -8.72927,14.67501 -8.72851,17.8125 4.3e-4,1.74192 0.65105,6.2826 1.44531,10.08984 0.85337,4.08979 1.20083,8.55309 0.84765,10.9082 -0.35318,2.35512 -0.16388,4.7976 0.4629,5.96875 1.36303,2.54684 3.12865,2.5096 5.99609,-0.12695 3.63502,-3.34228 4.46664,-8.87017 2.80078,-18.60547 l -1.42383,-8.32227 4.85742,-5.8125 c 6.90543,-8.26422 8.86395,-12.75225 7.56446,-17.33593 -0.56055,-1.97721 -1.27272,-7.60353 -1.58203,-12.501964 -0.38352,-6.07357 -1.11,-9.8702 -2.28516,-11.93554 -1.40204,-2.46408 -1.53867,-3.561 -0.72656,-5.89063 0.54906,-1.57483 0.79692,-3.92674 0.54883,-5.22461 -0.32975,-1.72493 0.27262,-3.08316 2.24023,-5.05078 2.68855,-2.68854 3.46773,-4.71094 1.81641,-4.71094 z m -14.41602,9.42774 c 0.68885,0.0452 1.63405,0.52338 2.89453,1.40625 1.46716,1.02764 2.08399,2.41445 2.08399,4.6875 0,2.74344 -0.32373,3.22851 -2.15625,3.22851 -3.09075,0 -4.40625,-1.73533 -4.40625,-5.8125 0,-2.45788 0.43593,-3.58516 1.58398,-3.50976 z m 7.62109,9.32226 c 2.05173,0 3.66803,5.24814 4.18555,13.59375 0.28779,4.640634 1.03596,10.468484 1.66211,12.951184 0.84924,3.36743 0.86809,4.78429 0.0742,5.57812 -0.79384,0.79383 -1.06445,0.55955 -1.06445,-0.92187 0,-4.72668 -3.22513,-7.67503 -6.48633,-5.92969 -1.61709,0.86544 -1.90084,0.49187 -2.79883,-3.69531 -2.32752,-10.852934 -2.36388,-12.201184 -0.33594,-12.201184 2.13628,0 6.8086,-3.37356 6.8086,-4.91601 0,-0.56651 -0.69743,-1.8012 -1.55078,-2.74414 -0.88951,-0.98291 -1.10112,-1.71485 -0.49415,-1.71485 z m -2.60156,1.125 c 0.97473,-0.052 1.81708,0.3327 2.59961,1.11524 2.03364,2.03362 0.5983,4.43357 -3.46094,5.78515 -4.05405,1.34988 -13.84869,11.182934 -14.52929,14.585944 -0.31545,1.57728 -1.14312,2.70117 -1.98828,2.70117 -1.10401,0 -1.30155,-0.61186 -0.83008,-2.57812 1.07297,-4.47486 3.28371,-8.014444 9.08984,-14.552734 4.19108,-4.7196 6.97474,-6.94228 9.11914,-7.05665 z m -6.46289,2.55469 -1.71094,2.34961 c -1.07829,1.48071 -2.6447,2.36035 -4.23437,2.37891 -1.38754,0.0162 -2.78289,0.45117 -3.10156,0.96679 -0.83884,1.35727 -3.50495,1.15401 -3.07422,-0.23437 0.4132,-1.33191 5.52289,-3.9511 9.47265,-4.85547 l 2.64844,-0.60547 z m 9.12305,21.632814 c 2.12577,0 4.02277,3.1908 3.67383,6.17969 -0.19671,1.68502 -0.0251,2.85754 0.38281,2.60547 1.25615,-0.77635 0.82351,0.99081 -0.83985,3.42773 -0.87015,1.27491 -3.44571,4.52456 -5.72265,7.22071 l -4.13867,4.90234 1.42968,8.35352 c 1.61441,9.43457 0.83728,15.34258 -2.38671,18.16992 -3.87531,3.3985 -6.07991,0.86407 -4.96875,-5.71289 0.33877,-2.00513 -0.0309,-6.5365 -0.85938,-10.50781 -2.28565,-10.95605 -2.03385,-12.55079 3.46875,-21.86329 5.04534,-8.53861 8.34902,-12.77539 9.96094,-12.77539 z m 1.76367,11.58008 c -0.0969,-0.10443 -2.04944,2.20584 -6.54492,7.63867 -2.85438,3.44954 -3.11837,3.98699 -1.00391,2.03516 1.58031,-1.45876 4.22086,-4.62282 5.86914,-7.03125 1.12759,-1.64762 1.73786,-2.57992 1.67969,-2.64258 z m -10.74414,12.86719 c -0.22679,0.0873 -0.21945,1.40429 0.0391,3.20898 0.29537,2.0625 0.81106,6.41172 1.14453,9.66602 0.33346,3.2543 0.7993,5.72414 1.03711,5.48633 0.59973,-0.59974 -1.3582,-17.60681 -2.10937,-18.32227 -0.0419,-0.0399 -0.0789,-0.0515 -0.11133,-0.0391 z"
       style="fill:#000000" />
    <path
       inkscape:connector-curvature="0"
       id="path8229"
       d="m 219.8056,71.494866 c -1.11427,0.111652 -2.53327,1.599756 -3.88896,4.26731 -1.32587,2.608901 -2.43681,3.873209 -2.83655,3.226404 -0.90822,-1.469519 -5.49804,-1.332616 -9.3585,0.280384 -1.77067,0.739834 -3.74604,1.144052 -4.39021,0.896864 -0.64416,-0.247188 -2.08301,0.59827 -3.19759,1.88015 -1.11459,1.281879 -2.65267,2.331457 -3.41653,2.331457 -0.76386,0 -1.38851,0.414828 -1.38851,0.92183 0,1.862656 3.61049,0.85002 5.49064,-1.540218 2.20505,-2.803257 3.00392,-2.330533 4.62452,2.738597 0.616,1.926796 1.87919,3.977417 2.80773,4.5573 1.60528,1.002518 1.57875,1.185576 -0.54733,3.712284 -1.62302,1.928852 -2.23543,3.765599 -2.23543,6.700552 0,2.22385 -0.81189,6.10188 -1.80334,8.61719 -0.99144,2.51532 -2.07064,6.59563 -2.39867,9.0685 -0.52111,3.92839 -0.30717,4.84038 1.69194,7.21523 1.25838,1.49493 5.24136,4.14632 8.85149,5.89203 3.61012,1.74573 6.55955,3.61244 6.55267,4.14824 -0.007,0.53581 -0.8362,3.60373 -1.84366,6.8177 -2.01331,6.42272 -2.35252,12.2028 -0.87766,14.95861 1.07551,2.00959 4.09704,2.37634 5.1853,0.62992 0.39492,-0.63374 2.94155,-6.69433 5.65965,-13.46832 l 4.9433,-12.31604 -2.60993,-2.7578 c -1.43532,-1.51646 -5.20259,-4.61817 -8.37136,-6.8926 -3.1688,-2.27443 -5.76143,-4.50361 -5.76143,-4.95291 0,-0.44931 1.24446,-3.94901 2.76548,-7.77795 1.52102,-3.82894 2.76549,-7.77961 2.76549,-8.78042 0,-1.00082 0.36848,-1.82062 0.81813,-1.82062 1.74524,0 18.36345,-16.682109 18.95127,-19.024255 1.04725,-4.17256 -1.13222,-4.951922 -3.90816,-1.396186 -4.42877,5.672877 -17.89704,14.971224 -19.03003,13.137987 -0.27959,-0.45237 0.10952,-2.00597 0.86422,-3.453012 0.75469,-1.447032 1.37403,-2.991212 1.37698,-3.431901 0.003,-0.440679 1.49661,-3.255696 3.31859,-6.255001 1.82198,-2.999295 3.07933,-6.061432 2.79429,-6.804254 -0.37074,-0.966127 -0.92928,-1.394043 -1.59784,-1.327052 z m -0.17668,0.898782 c 1.77243,0 1.475,1.503875 -1.19454,6.059111 -2.61699,4.46556 -2.79698,4.621695 -3.38196,2.928734 -0.57436,-1.662243 3.15576,-8.987845 4.5765,-8.987845 z m 15.63846,5.836338 c 1.98973,1.989736 -10.32277,16.007842 -18.36938,20.914012 -3.63211,2.214552 -6.98799,2.352362 -7.76834,0.3188 -0.85883,-2.238075 0.69193,-4.056228 4.613,-5.404223 4.75082,-1.633256 10.26388,-5.49618 16.18003,-11.340434 2.72056,-2.687495 5.12529,-4.707546 5.34469,-4.488155 z m -21.37877,4.532334 c 0.0563,-0.0088 0.10626,0.0069 0.14788,0.04798 0.30772,0.307709 0.29127,1.988124 -0.0365,3.735333 -0.65722,3.503248 -3.31282,6.634539 -3.31282,3.906257 0,-2.049019 2.3579,-7.557657 3.20143,-7.689594 z m -4.39213,9.911583 3.28209,0 -2.42748,1.910877 c -4.10419,3.228351 -2.3183,8.02959 2.6349,7.08273 1.50523,-0.28775 2.31033,-0.0246 2.31033,0.75475 0,2.50267 -5.87223,16.06288 -6.95597,16.06288 -1.87267,0 -5.30387,3.25452 -5.44456,5.16417 -0.0722,0.97999 -0.44515,2.28857 -0.82773,2.9076 -0.45982,0.74401 -0.24414,0.95218 0.63569,0.61456 1.76749,-0.67826 16.27989,6.66095 16.27989,8.2331 0,0.67548 -0.82964,3.63994 -1.84366,6.58723 -1.01401,2.94728 -1.79491,6.22682 -1.73611,7.28822 0.10249,1.84997 0.12296,1.85379 0.51853,0.0864 0.22694,-1.01401 1.25435,-4.45094 2.28345,-7.63774 1.02908,-3.18681 1.64389,-6.38788 1.36545,-7.11346 -0.27842,-0.72556 -3.81079,-2.98112 -7.85091,-5.01244 -4.04012,-2.03135 -7.60475,-4.11054 -7.92006,-4.62068 -0.86214,-1.395 1.09414,-4.44504 3.29939,-5.14497 2.14123,-0.67959 12.00917,5.47147 16.80035,10.47237 l 2.60801,2.72132 -5.11424,12.77695 c -3.839,9.59079 -5.55297,12.84585 -6.87147,13.05542 -3.43501,0.54598 -3.92639,-6.56011 -1.08123,-15.63654 1.00746,-3.21397 1.83678,-6.35861 1.84366,-6.98669 0.007,-0.62811 -3.29784,-2.80434 -7.34199,-4.8377 -4.04415,-2.03336 -8.03098,-4.73458 -8.86109,-6.00149 -1.7894,-2.73097 -1.22137,-8.39766 1.5479,-15.42337 0.96841,-2.45689 1.76109,-6.26148 1.76109,-8.45587 0,-5.492501 2.69507,-8.847647 7.10577,-8.847647 z"
       style="fill:#000000" />
    <path
       inkscape:connector-curvature="0"
       id="path4343"
       d="m 162.46711,177.52879 -3.03059,-3.18212 4.31827,-10.30402 c 2.42449,-5.68235 4.54588,-10.75857 4.77317,-11.28893 0.2273,-0.53038 -2.34868,-4.24283 -5.75781,-8.25837 -6.59153,-7.80376 -8.03103,-11.44046 -5.83387,-14.39529 2.50024,-3.40942 5.45506,-1.28802 11.21288,8.1826 2.95482,4.84892 5.68236,9.84939 5.98543,11.21316 0.45458,1.89413 -0.53037,4.84895 -4.16708,12.12237 -2.65175,5.22776 -4.77318,10.30402 -4.77318,11.28893 0,0.98496 1.0607,2.72754 2.34872,3.93979 2.95482,2.80331 2.95482,3.78822 0.15141,3.78822 -1.21225,0 -3.48519,-1.36377 -5.22748,-3.10634 z"
       style="fill:#ffffff;fill-opacity:1;fill-rule:nonzero;stroke:none" />
    <path
       inkscape:connector-curvature="0"
       id="path4329"
       d="m 139.58623,114.03822 c 0,-1.43955 21.66864,-12.57686 26.28997,-13.48604 2.34872,-0.45459 3.18213,-0.22728 3.71249,1.0607 1.06069,2.87908 -0.98495,4.69744 -5.45507,4.84896 -3.86371,0.15141 -19.01655,5.8338 -21.21375,7.95519 -1.28798,1.36377 -3.33364,1.13647 -3.33364,-0.37881 z"
       style="fill:#ffffff;fill-opacity:1;fill-rule:nonzero;stroke:none" />
    <path
       inkscape:connector-curvature="0"
       id="path4323"
       d="m 171.0282,101.91595 c -1.66679,-1.74257 -1.36377,-3.030608 1.13648,-5.455058 2.87907,-2.65175 7.50071,-2.42446 7.9553,0.37881 0.60614,4.242838 -6.2127,7.955298 -9.09178,5.076248 z"
       style="fill:#ffffff;fill-opacity:1;fill-rule:nonzero;stroke:none" />
    <path
       inkscape:connector-curvature="0"
       id="path4235"
       d="m 154.73911,129.72121 c 0,-1.06069 1.13647,-3.33364 2.57598,-5.00048 2.04564,-2.42446 2.87908,-4.69741 3.63672,-10.22793 l 0.90916,-7.19757 3.03029,0.2273 c 2.1972,0.15141 3.48519,-0.3787 4.84895,-2.12131 l 1.81836,-2.34869 0.60611,2.12139 c 0.30317,1.13647 0.53036,3.10627 0.53036,4.39426 0.0758,3.78827 -3.6367,14.62232 -5.83387,17.34986 -2.04565,2.50025 -2.34872,2.57598 -5.30322,1.43951 -2.95483,-1.13646 -3.33368,-0.98491 -5.00049,1.06074 -1.74261,2.12138 -1.81834,2.12138 -1.81834,0.30317 z"
       style="fill:#ffff00;fill-opacity:1;fill-rule:nonzero;stroke:none" />
    <path
       sodipodi:nodetypes="cccscccscscccccccccccccccccccccccsccccscsccccsccccscscccccsccccccsccccscc"
       inkscape:connector-curvature="0"
       id="path4374"
       d="m 167.58984,86.927734 c -1.27744,0.0214 -2.91778,0.867988 -4.29101,2.335938 -2.80299,2.95483 -1.74165,4.393114 1.21289,1.589844 1.21221,-1.13647 2.42505,-2.044922 2.65234,-2.044922 0.2274,0 0.45471,2.196288 0.37891,4.923828 l 0,5.001953 -7.12305,2.878905 c -10.22815,4.24285 -21.81836,10.83471 -21.81836,12.42578 0,1.81835 2.57456,2.72745 4.08985,1.43946 1.21225,-0.98495 16.44086,-7.72852 17.42578,-7.72852 0.30317,0 0.22847,3.10588 -0.15039,6.81836 -0.53032,5.68204 -1.13721,7.34824 -3.41016,10 -2.80542,3.22629 -3.31147,5.63311 -1.8125,9.75586 l 6.13281,8.95898 c 0.0222,0.025 0.0347,0.0416 0.0566,0.0664 0.61483,0.695 1.10244,1.274 1.50586,1.79687 1.58283,1.96325 2.58254,3.45074 4.32422,5.46875 1.22607,1.24119 1.21403,1.72226 0.0215,4.10743 -0.83341,1.51528 -2.95579,6.59321 -4.84961,11.21484 l -3.40821,8.48438 3.0293,3.10742 3.03125,3.10547 -2.07227,0.0156 2.36133,0.17188 c 3.26226,0.33814 6.88282,0.43732 6.88282,-0.13868 l -2.77735,-3.08007 c -1.59106,-1.66684 -2.8031,-3.86233 -2.8789,-4.77149 0,-0.90918 2.19741,-5.98707 4.77343,-11.21484 3.63671,-7.27342 4.69677,-10.227 4.24219,-12.1211 -0.37881,-1.36377 -2.87989,-6.06114 -5.60742,-10.53125 l -5.07617,-8.10742 2.80468,-3.25781 c 3.40942,-4.0913 6.81861,-15.15344 6.13672,-20.07813 -0.37884,-3.03049 -0.22778,-3.56054 1.36328,-3.56054 1.0607,0 2.87802,-1.13623 4.16602,-2.5 5.22777,-5.60658 1.28947,-14.470025 -5.9082,-13.257815 -1.6668,0.22729 -3.33353,0.0757 -3.63672,-0.378906 -0.36934,-0.62506 -1.00503,-0.909345 -1.77149,-0.896485 z m 9.27149,7.638672 c 1.66683,0 3.03049,0.758128 3.25781,2.273438 0.37884,2.57601 -3.10534,6.136716 -5.98437,6.136716 -2.19722,0 -2.27448,0.30356 -1.74415,4.0918 0.6819,5.00036 -2.42295,16.06138 -5.52929,19.84961 -2.04565,2.50024 -2.42515,2.57631 -5.15235,1.51562 -2.42448,-0.90916 -3.33462,-0.90884 -4.54687,0.0762 -0.8334,0.68188 -1.51367,1.74112 -1.51367,2.27148 0,0.53034 0.60522,0.2291 1.28711,-0.75586 2.50024,-3.33364 5.45507,-1.21281 11.21289,8.25781 2.95482,4.84892 5.68314,9.84912 5.98633,11.21289 0.45458,1.89413 -0.53126,4.84963 -4.16797,12.12305 -2.65175,5.22776 -4.77344,10.30415 -4.77344,11.28906 0,0.98496 1.06159,2.72565 2.34961,4.01368 1.28798,1.21222 2.34765,2.57622 2.34765,2.95507 0,1.96986 -4.62084,0.5314 -7.42382,-2.34765 l -3.03125,-3.1836 4.31836,-10.30273 c 2.42449,-5.68236 4.54614,-10.7587 4.77343,-11.28906 0.2273,-0.53036 -2.34829,-4.16808 -5.68164,-8.1836 -5.30355,-6.28846 -8.10742,-11.66612 -8.10742,-15.68164 0,-0.60611 1.13667,-2.50113 2.57617,-4.16797 2.04566,-2.42446 2.87909,-4.698 3.63672,-10.22851 l 0.90821,-7.19727 3.03124,0.22852 c 3.93978,0.30307 7.42427,-3.63812 5.68165,-6.44141 -0.90917,-1.439497 -0.68124,-2.196536 1.21289,-4.242186 1.43953,-1.51531 3.40935,-2.273438 5.07617,-2.273438 z m -9.49024,5.779294 c 1.25013,-0.0675 1.81903,0.30163 2.2168,1.26758 1.06069,2.87911 -0.98496,4.6982 -5.45508,4.84961 -3.86371,0.15151 -19.01569,5.83369 -21.21289,7.95508 -1.28798,1.36377 -3.33398,1.13637 -3.33398,-0.37891 0,-1.43955 21.66773,-12.57715 26.28906,-13.48633 0.58717,-0.11365 1.07937,-0.18454 1.49609,-0.20703 z"
       style="fill:#000000;fill-opacity:1;fill-rule:nonzero;stroke:none" />
    <path
       inkscape:connector-curvature="0"
       id="path4341"
       d="m 354.41111,178.32816 1.96958,-2.11029 -2.25096,-12.23962 c -2.46198,-13.29477 -2.46198,-14.34991 1.26617,-27.78534 2.39166,-8.58184 2.11028,-12.0286 -1.05513,-13.78689 -3.65784,-2.03996 -5.62741,0.28148 -6.33085,7.73738 -0.35171,3.23578 -0.98479,8.72251 -1.4772,12.23963 -0.91446,6.0495 -0.77376,6.96393 2.39167,18.28913 3.37645,12.30994 3.37645,12.02859 0.77375,18.21873 -0.98478,2.3213 2.32132,1.9696 4.71297,-0.56273 z"
       style="fill:#ffffff;fill-opacity:1;fill-rule:nonzero;stroke:none" />
    <path
       inkscape:connector-curvature="0"
       id="path4333"
       d="m 394.92758,160.39078 c -0.0704,-0.84412 -0.70344,-3.16543 -1.54756,-5.20535 -1.12549,-2.88407 -3.65784,-5.48673 -10.69207,-11.3252 -5.13504,-4.22056 -12.37939,-10.27002 -16.17788,-13.43545 -3.72819,-3.23577 -7.17496,-5.97914 -7.59702,-6.11981 -0.98482,-0.3517 -1.6179,7.94872 -0.70344,9.21489 0.42206,0.56276 6.82326,5.34605 14.13889,10.69211 7.38505,5.2757 15.12274,11.46583 17.30336,13.71682 4.22057,4.36123 5.34603,4.85364 5.27572,2.46199 z"
       style="fill:#ffffff;fill-opacity:1;fill-rule:nonzero;stroke:none" />
    <path
       inkscape:connector-curvature="0"
       id="path4319"
       d="m 353.84835,100.52952 c 1.26617,-1.828794 4.43162,-5.908682 7.03428,-9.003751 5.27571,-6.190073 7.73772,-10.340299 7.73772,-13.083677 0,-3.165407 -2.18063,-1.828888 -4.22057,2.602701 -1.6179,3.306084 -4.00952,5.838428 -10.34039,11.04371 -4.57228,3.72815 -8.30043,6.893576 -8.30043,7.03428 0,0.140566 0.42206,1.336377 0.98479,2.532237 1.54756,3.37645 4.43159,2.95439 7.1046,-1.1255 z"
       style="fill:#ffffff;fill-opacity:1;fill-rule:nonzero;stroke:none" />
    <path
       inkscape:connector-curvature="0"
       id="path4313"
       d="m 348.1506,95.816653 c 0.63307,-0.562724 1.05513,-1.68822 1.05513,-2.461978 0,-2.03993 -3.65779,-5.275704 -5.97909,-5.275704 -1.54756,0 -1.89927,0.492405 -1.89927,3.02474 0,4.290885 4.29089,7.245277 6.82323,4.712942 z"
       style="fill:#ffffff;fill-opacity:1;fill-rule:nonzero;stroke:none" />
    <path
       inkscape:connector-curvature="0"
       id="path4231"
       d="m 357.99859,123.81286 c 0,-0.28148 -0.70344,-1.75857 -1.68823,-3.37644 -1.96959,-3.44681 -3.86886,-13.154 -3.09509,-15.89736 0.49241,-1.61787 0.42206,-1.75858 -0.56273,-0.84411 -1.96961,1.82889 -5.13503,1.33652 -6.19017,-1.1255 -1.33649,-2.883933 -2.25096,-2.743368 -2.9544,0.49242 -0.91443,4.15019 0.42206,13.15398 2.6027,17.37455 1.89925,3.7982 1.89925,3.7982 3.51712,1.9696 2.03996,-2.25098 3.16542,-2.25098 6.11981,0 1.26617,1.05515 2.25099,1.61756 2.25099,1.40684 z"
       style="fill:#ffff00;fill-opacity:1;fill-rule:nonzero;stroke:none" />
    <path
       sodipodi:nodetypes="ccccsccccccccccccccccccsssccssccscccccccscccscsscscsccccccccccccccccscccccccccs"
       inkscape:connector-curvature="0"
       id="path4380"
       d="m 367.69977,75.936774 c 0.79473,-0.06007 1.36941,0.750064 1.55403,2.504241 0.2814,2.673002 -2.25142,6.89366 -8.86365,14.842263 -6.11994,7.385912 -7.24581,10.974642 -5.83898,18.782682 0.56273,2.95429 1.54837,6.40068 2.18146,7.66685 1.26616,2.53233 7.73689,8.29961 25.32161,22.79018 10.41073,8.5818 11.2558,9.49639 12.66264,13.85762 1.12548,3.65784 1.19629,4.92416 0.4225,5.76827 -0.84411,0.77376 -2.18084,-0.0693 -6.12005,-3.86787 -2.74336,-2.74337 -10.20019,-8.58319 -16.45978,-13.08513 -6.33085,-4.50191 -12.30962,-8.9324 -13.43511,-9.91721 -1.54756,-1.40685 -2.03962,-1.47805 -2.32109,-0.49324 -4.22057,13.0134 -4.36163,15.4763 -1.75895,29.19313 l 2.25037,12.2383 -1.9693,2.11073 -1.96749,2.10893 -3.16792,0.36811 -2.24824,-0.16925 1.54466,-3.36316 c 1.96961,-4.07983 1.96997,-4.14997 -1.61751,-17.16335 -2.95438,-10.76244 -3.09447,-11.67604 -2.25037,-17.7255 2.18064,-15.75679 2.18055,-16.81331 -0.35178,-21.80735 -3.02475,-5.97912 -3.65807,-17.93684 -1.05537,-20.820889 1.40683,-1.617798 1.40623,-1.75828 -1.12609,-3.657533 -2.25097,-1.68823 -2.60217,-2.462211 -2.60217,-6.120051 0,-5.908673 1.68893,-8.018635 6.54257,-8.018635 2.11028,0 4.15035,-0.421528 4.43183,-0.913933 0.70342,-1.125468 4.5716,-1.125468 5.27504,0 0.28134,0.492405 1.26556,0.913933 2.25036,0.913933 0.91445,0 1.68823,0.421519 1.68823,0.913924 0,0.984782 -1.47703,0.844718 -6.04933,-0.562131 -1.9696,-0.633091 -2.11057,-0.491699 -1.40717,1.477874 0.35175,1.125496 0.70359,3.305007 0.70359,4.852523 l 0,2.814319 3.86969,-3.236822 c 2.18064,-1.828795 4.85389,-5.274534 6.12005,-7.877198 1.38489,-2.809324 2.76991,-4.327353 3.79172,-4.404627 z m 0.0744,0.768865 c -0.79755,0.0084 -2.09969,1.569604 -3.37465,4.33934 -1.6179,3.306083 -4.00885,5.838038 -10.33972,11.043301 -4.57228,3.728169 -8.37042,6.893418 -8.37042,7.033993 0,0.140676 0.49081,1.337397 1.05355,2.533247 1.54755,3.37645 4.43167,2.9538 7.10471,-1.12609 1.26613,-1.828797 4.43313,-5.908211 7.03579,-9.00328 5.27571,-6.190073 7.66685,-10.339947 7.66685,-13.083325 0,-1.187032 -0.29762,-1.742144 -0.77611,-1.737186 z m -24.54733,11.373332 c -1.54755,0 -1.89857,0.492331 -1.89857,3.024666 0,2.110287 0.56245,3.447002 1.96929,4.43183 1.05514,0.703401 2.39082,1.336436 2.88323,1.336436 1.40685,0 3.02465,-1.900033 3.02467,-3.517896 -3e-5,-2.039931 -3.65732,-5.275036 -5.97862,-5.275036 z m 1.5214,12.441399 c -0.4836,0.0791 -0.8886,0.92444 -1.24032,2.54231 -0.91443,4.15025 0.42151,13.15315 2.60215,17.37371 1.89925,3.79824 1.90003,3.79792 3.5179,1.96929 2.11028,-2.25108 3.16604,-2.25021 6.19078,0.14145 2.18054,1.68792 2.39172,2.31972 2.04002,6.11824 -0.49241,4.99435 -1.33728,4.15088 15.54404,16.32015 6.75289,4.92399 14.0688,10.69271 16.24943,12.9437 5.6274,5.76811 6.54164,5.27448 4.00931,-2.25218 -1.19585,-3.30613 -2.95375,-5.20451 -12.02795,-12.66081 -9.56568,-7.80804 -13.22484,-10.90279 -22.01769,-18.4998 -1.3365,-1.19555 -2.9541,-3.23494 -3.65754,-4.57146 -1.75854,-3.37645 -3.44701,-13.01456 -2.7436,-15.40622 0.49241,-1.61788 0.42266,-1.75763 -0.56213,-0.84321 -1.96961,1.82893 -5.13564,1.33589 -6.19078,-1.12609 -0.66825,-1.44199 -1.23001,-2.12821 -1.71362,-2.04908 z m 7.15911,21.18537 c -2.13006,0.14175 -3.36931,2.84548 -3.89688,8.43751 -0.35171,3.23578 -0.98547,8.72299 -1.47789,12.24012 -0.91446,6.0495 -0.77362,6.96425 2.39181,18.28945 3.37645,12.30993 3.37702,12.02859 0.7743,18.21873 -0.98474,2.3213 2.32124,1.96837 4.7129,-0.56396 l 1.96929,-2.10892 -2.25036,-12.24011 c -2.46199,-13.29478 -2.46244,-14.35054 1.26571,-27.78597 2.39167,-8.58184 2.11005,-12.02862 -1.05537,-13.78691 -0.91442,-0.50999 -1.72349,-0.7472 -2.43351,-0.69994 z"
       style="fill:#000000;fill-opacity:1;fill-rule:nonzero;stroke:none" />
    <path
       sodipodi:nodetypes="csssc"
       inkscape:connector-curvature="0"
       id="path4242"
       d="m 358.82226,134.39524 c 0,0 -7.95468,-5.68696 -8.89237,-7.66104 -0.93769,-1.97409 -1.62862,-4.04688 -0.44417,-5.33003 1.18445,-1.28316 4.29364,-1.97409 5.52744,-1.08575 1.23381,0.88834 5.47809,4.39234 6.51449,5.28068"
       style="fill:#ffffff;fill-rule:evenodd;stroke:none;stroke-width:1px;stroke-linecap:butt;stroke-linejoin:miter;stroke-opacity:1" />
    <path
       sodipodi:nodetypes="sssssssccsscscssccss"
       inkscape:connector-curvature="0"
       id="path4244"
       d="m 353.83902,119.45841 c -0.54096,-0.0438 -1.1244,0.0156 -1.70092,0.13419 -1.15304,0.23719 -2.29246,0.73619 -2.99384,1.49601 -0.70725,0.76618 -0.84526,1.78581 -0.69089,2.79256 0.15437,1.00675 0.58028,2.04786 1.05718,3.05187 0.30651,0.64526 0.99739,1.34822 1.88952,2.17239 0.89212,0.82417 1.98079,1.72551 3.03918,2.56408 2.11676,1.67713 4.23917,3.20297 4.23917,3.20297 l 0.3528,-0.81979 c -0.73284,-0.90296 -1.92035,-1.45228 -4.01533,-3.11215 -1.0475,-0.82993 -2.12349,-1.71958 -2.98659,-2.51693 -0.8631,-0.79735 -1.51864,-1.54592 -1.68097,-1.8877 -0.46079,-0.97008 -0.848,-1.95223 -0.9774,-2.79618 -0.12941,-0.84395 -0.0221,-1.5031 0.45515,-2.02007 0.48308,-0.52334 1.49268,-1.0116 2.49879,-1.21858 1.00612,-0.20697 1.99667,-0.10875 2.4172,0.19403 1.17373,0.84509 5.75379,4.58098 6.77267,5.45431 l 0.32805,-0.79792 c -1.0539,-0.90335 -5.26464,-4.47733 -6.55853,-5.40893 -0.40663,-0.29278 -0.90428,-0.44036 -1.44524,-0.48416 z"
       style="color:#000000;font-style:normal;font-variant:normal;font-weight:normal;font-stretch:normal;font-size:medium;line-height:normal;font-family:sans-serif;text-indent:0;text-align:start;text-decoration:none;text-decoration-line:none;text-decoration-style:solid;text-decoration-color:#000000;letter-spacing:normal;word-spacing:normal;text-transform:none;direction:ltr;block-progression:tb;writing-mode:lr-tb;baseline-shift:baseline;text-anchor:start;white-space:normal;clip-rule:nonzero;display:inline;overflow:visible;visibility:visible;opacity:1;isolation:auto;mix-blend-mode:normal;color-interpolation:sRGB;color-interpolation-filters:linearRGB;solid-color:#000000;solid-opacity:1;fill:#000000;fill-opacity:1;fill-rule:evenodd;stroke:none;stroke-width:1px;stroke-linecap:butt;stroke-linejoin:miter;stroke-miterlimit:4;stroke-dasharray:none;stroke-dashoffset:0;stroke-opacity:1;color-rendering:auto;image-rendering:auto;shape-rendering:auto;text-rendering:auto;enable-background:accumulate" />
    <path
       inkscape:connector-curvature="0"
       id="path8229-4"
       d="m 265.39521,135.54386 c -3.07445,-0.9529 -3.35403,-1.47448 -4.38342,-8.17753 -0.65169,-4.24344 -2.66606,-8.50303 -0.24555,-9.52077 4.54285,-1.91012 5.0873,-1.99667 5.14741,2.59044 0.0303,2.3152 0.24178,4.11113 0.46988,3.99097 0.22809,-0.12015 0.3833,-2.22845 0.34489,-4.68509 -0.0384,-2.45664 0.18626,-4.99038 0.49924,-5.63053 0.32186,-0.6583 -0.0877,-0.54302 -0.94292,0.26537 -1.50206,1.41989 -1.55755,1.29399 -0.0399,-2.92656 1.56659,-4.35652 2.66392,-5.09578 4.63626,-3.12344 1.75572,1.75572 -0.2546,2.48892 0.75667,10.23121 0.89807,6.87562 -0.57524,16.11969 -2.75191,17.26633 -0.52683,0.27752 -2.09763,0.15134 -3.49066,-0.28042 z"
       style="fill:#fefefe" />
    <path
       inkscape:connector-curvature="0"
       id="path8213"
       d="m 267.31861,103.22419 c 0,-2.2092 3.7077,-6.334967 5.69304,-6.334967 3.12818,0 1.88287,1.993578 -4.05242,6.487407 -1.38393,1.04783 -1.64062,1.02398 -1.64062,-0.15244 z"
       style="fill:#fefefe" />
    <path
       inkscape:connector-curvature="0"
       id="path8211"
       d="m 251.61548,98.735009 c -2.73934,-1.101085 -2.66248,-3.081006 0.31703,-8.165144 2.83844,-4.843435 3.53182,-4.809856 2.17468,0.105315 -0.53521,1.938353 -0.70119,4.762288 -0.36885,6.275411 0.33234,1.513123 0.46526,2.724391 0.29539,2.691708 -0.16989,-0.03268 -1.25809,-0.440965 -2.41825,-0.90729 z"
       style="fill:#fefefe" />
    <path
       inkscape:connector-curvature="0"
       id="path8205"
       d="m 269.38027,91.498598 c -2.60069,-7.558522 -2.60318,-7.505973 0.23227,-4.921875 2.28684,2.084127 5.20607,6.526377 5.20607,7.922194 0,0.283418 -0.95146,0.515306 -2.11435,0.515306 -1.60321,0 -2.40679,-0.849907 -3.32399,-3.515625 z"
       style="fill:#fefefe" />
    <path
       inkscape:connector-curvature="0"
       id="path8199"
       d="m 257.41502,81.515829 c -0.31037,-1.236617 -0.4096,-3.240523 -0.22052,-4.453125 0.32669,-2.095016 0.44701,-2.041446 2.41795,1.076519 2.56698,4.060888 2.62927,5.625 0.22402,5.625 -1.17808,0 -2.06348,-0.822121 -2.42145,-2.248394 z"
       style="fill:#fefefe" />
    <path
       inkscape:connector-curvature="0"
       id="path8249"
       d="m 254.51499,115.10833 c -2.60362,-2.60362 -2.60233,-4.75151 0.007,-10.9956 1.18068,-2.82577 1.98423,-3.35289 7.06041,-4.631589 l 5.72811,-1.442912 -0.54855,5.284871 c -0.76536,7.37358 -2.06459,11.1386 -4.41082,12.78197 -2.89237,2.02589 -5.09309,1.74595 -7.83578,-0.99674 z"
       style="fill:#ffff00" />
    <path
       inkscape:connector-curvature="0"
       id="path3410"
       d="m 254.67629,96.933108 c -0.35397,-1.115256 -0.14554,-4.103827 0.46319,-6.641269 1.00228,-4.177986 1.43028,-4.703389 4.53357,-5.565345 4.80495,-1.3346 6.70806,-1.195433 6.70806,0.490535 0,0.799044 0.65455,2.718566 1.45456,4.265606 2.66662,5.156693 0.89534,6.795982 -9.61438,8.897927 -2.42161,0.484322 -3.00785,0.244955 -3.545,-1.447454 z"
       style="fill:#ffff00" />
    <path
       inkscape:connector-curvature="0"
       id="path3408"
       d="m 280.67798,109.85865 c -4.23107,-0.94752 -5.11645,-2.17127 -2.23301,-3.08644 0.96325,-0.30572 2.50519,-1.38884 3.42655,-2.40692 2.23021,-2.46436 3.5222,-2.34536 2.80446,0.25831 l -0.58147,2.10937 1.92454,-2.21323 c 3.8302,-4.40472 1.91579,-6.506592 -6.63935,-7.289472 -6.55231,-0.599602 -19.11445,1.879541 -26.83985,5.296852 -4.78704,2.11754 -4.90874,2.14444 -4.90874,1.08486 0,-1.29346 8.42334,-4.688887 16.875,-6.802274 10.15428,-2.539137 19.6825,-2.070251 23.096,1.136559 2.83804,2.666205 2.78803,3.744875 -0.34634,7.469865 -1.69933,2.01953 -2.17315,3.17568 -1.40625,3.43131 1.5124,0.50414 1.49998,2.1337 -0.0153,2.00388 -0.64453,-0.0552 -2.96484,-0.50192 -5.15625,-0.99267 z"
       style="fill:#fe0000" />
    <path
       inkscape:connector-curvature="0"
       id="path8176"
       d="m 262.60639,70.697061 c -1.56479,0.0234 -3.15483,0.49103 -4.45313,1.40039 -1.56396,1.09544 -2.08398,2.39762 -2.08398,5.21875 0,2.06716 0.42226,4.54508 0.9375,5.50781 0.7531,1.40719 0.55422,1.87151 -1.01367,2.36914 -2.13193,0.67665 -7.42383,8.34237 -7.42383,10.75391 0,0.82717 0.50625,2.01015 1.125,2.6289 0.61875,0.61875 1.77893,1.09909 2.57813,1.06641 0.89138,-0.0365 0.63767,-0.38811 -0.65625,-0.9082 -1.16016,-0.46633 -2.10938,-1.56189 -2.10938,-2.43555 0,-1.66373 4.60478,-10.11789 5.19141,-9.53125 0.18602,0.18602 -0.10692,2.08934 -0.65039,4.23047 -0.70269,2.76824 -0.69173,4.65643 0.0371,6.5332 l 1.02539,2.638669 -0.50391,-2.917959 c -0.27709,-1.60462 -0.0123,-4.86641 0.58789,-7.25 0.96943,-3.84997 1.47056,-4.44032 4.49805,-5.28125 1.87436,-0.52063 4.04413,-0.94828 4.82031,-0.95118 1.59898,-0.006 3.94472,5.68538 3.98242,9.66016 0.0178,1.87609 0.31442,2.34377 1.03125,1.62695 0.71681,-0.71682 0.657,-1.88009 -0.21094,-4.04101 -2.59052,-6.44969 -2.50638,-7.01141 0.61524,-4.09571 1.58296,1.47855 3.38727,3.91904 4.00976,5.42188 0.6225,1.50283 1.31653,2.54674 1.54297,2.32031 0.74468,-0.74468 -2.31596,-5.68899 -5.24609,-8.47461 -3.08926,-2.93692 -3.18308,-5.29882 -0.38672,-9.77148 1.04378,-1.66947 1.91132,-2.05659 3.63867,-1.62305 3.02653,0.75961 2.89886,-0.75268 -0.18164,-2.15625 -1.5621,-0.71174 -2.83524,-0.7948 -3.51758,-0.22851 -0.69297,0.57512 -1.70942,0.41944 -2.88672,-0.44141 -1.19273,-0.87216 -2.73208,-1.2929 -4.29687,-1.26953 z m -4.92773,4.92578 c 0.30365,-0.0223 0.82493,0.76177 1.93359,2.51562 1.14078,1.80469 2.07612,3.8086 2.07812,4.45313 0.002,0.64453 -0.83209,1.17187 -1.85351,1.17187 -2.03551,0 -3.2195,-3.00137 -2.64258,-6.70117 0.14293,-0.91657 0.2482,-1.42208 0.48438,-1.43945 z m 17.99804,22.20703 c -0.36875,0.0237 -1.96253,1.29117 -3.85742,3.093749 -4.06979,3.87149 -5.90804,3.40977 -3.1543,-0.79297 1.08356,-1.653709 1.17622,-2.253489 0.32227,-2.080079 -1.50551,0.30573 -2.39117,2.965089 -2.51172,7.539069 -0.21443,8.13607 -4.94146,13.43297 -9.95117,11.15039 -3.78981,-1.72675 -4.69636,-4.86286 -2.91602,-10.08789 0.83507,-2.45081 1.35222,-4.6224 1.14844,-4.82618 -0.80688,-0.80688 -3.47547,9.20666 -2.91992,10.95704 0.32631,1.02811 1.63853,2.69044 2.91601,3.69531 l 3.66993,2.01172 1.75781,9.08984 c 1.42293,7.36296 1.24206,7.48956 5,8.6543 1.70963,0.52988 3.56206,0.72408 4.11719,0.43164 0.55514,-0.29244 1.70814,-2.96413 2.56054,-5.9375 1.60461,-5.59716 1.08594,-13.72366 1.08594,-18.58594 0,-2.80771 -2.39704,-5.87585 -4.59766,-5.88477 -0.88866,-0.004 0.31057,-1.5539 2.95704,-3.82226 2.44921,-2.09929 4.45312,-4.141439 4.45312,-4.537109 0,-0.0495 -0.0274,-0.0717 -0.0801,-0.0684 z m -6.91211,9.371089 c 1.76947,0 3.24219,2.19058 3.24219,4.82227 0,4.64391 0.63347,13.40855 -0.80078,18.48047 -1.55568,5.50131 -2.28522,6.13365 -5.81055,5.04101 -3.07441,-0.95292 -3.35338,-1.4747 -4.38281,-8.17773 -0.65169,-4.24345 -2.6666,-8.50374 -0.24609,-9.52148 4.54285,-1.91012 5.08638,-1.99727 5.14648,2.58984 0.0303,2.3152 0.0591,7.86625 0.28711,7.74609 0.2281,-0.12016 0.5677,-5.98281 0.5293,-8.43945 -0.0384,-2.45664 0.18506,-4.98876 0.49804,-5.62891 0.32186,-0.6583 -0.0881,-0.54471 -0.94336,0.26368 -1.50205,1.41989 -1.55675,1.2928 -0.0391,-2.92774 0.84026,-2.33664 1.97405,-4.24805 2.51953,-4.24805 z"
       style="fill:#000000" />
  </g>
</svg>
