<?xml version="1.0" encoding="UTF-8" standalone="no"?>
<!-- Created with Inkscape (http://www.inkscape.org/) -->

<svg
   xmlns:dc="http://purl.org/dc/elements/1.1/"
   xmlns:cc="http://creativecommons.org/ns#"
   xmlns:rdf="http://www.w3.org/1999/02/22-rdf-syntax-ns#"
   xmlns:svg="http://www.w3.org/2000/svg"
   xmlns="http://www.w3.org/2000/svg"
   xmlns:sodipodi="http://sodipodi.sourceforge.net/DTD/sodipodi-0.dtd"
   xmlns:inkscape="http://www.inkscape.org/namespaces/inkscape"
   id="svg2985"
   version="1.1"
   inkscape:version="0.91 r13725"
   width="653"
   height="386"
   sodipodi:docname="20PH23903.svg">
  <metadata
     id="metadata2991">
    <rdf:RDF>
      <cc:Work
         rdf:about="">
        <dc:format>image/svg+xml</dc:format>
        <dc:type
           rdf:resource="http://purl.org/dc/dcmitype/StillImage" />
        <dc:title></dc:title>
      </cc:Work>
    </rdf:RDF>
  </metadata>
  <defs
     id="defs2989" />
  <sodipodi:namedview
     pagecolor="#ffffff"
     bordercolor="#666666"
     borderopacity="1"
     objecttolerance="10"
     gridtolerance="10"
     guidetolerance="10"
     inkscape:pageopacity="0"
     inkscape:pageshadow="2"
     inkscape:window-width="1416"
     inkscape:window-height="851"
     id="namedview2987"
     showgrid="false"
     inkscape:zoom="0.65621242"
     inkscape:cx="83.183538"
     inkscape:cy="366.93999"
     inkscape:window-x="0"
     inkscape:window-y="0"
     inkscape:window-maximized="0"
     inkscape:current-layer="svg2985" />
  <g
     id="g2995">
    <path
       style="fill:#fefefe"
       d="m 22,347 0,-10 30,0 30,0 0,10 0,10 -30,0 -30,0 0,-10 z m 71,0 0,-10 28,0 28,0 0,10 0,10 -28,0 -28,0 0,-10 z m 65.42858,8.67448 c -0.28316,-0.73791 -0.38293,-5.12904 -0.22171,-9.75807 L 158.5,337.5 l 58.5,0 58.5,0 0,9.5 0,9.5 -58.27829,0.25807 c -48.00228,0.21256 -58.36907,0.0215 -58.79313,-1.08359 z m 152.9969,-1.00807 c -0.28146,-0.73347 -0.37983,-5.12097 -0.21861,-9.75 L 311.5,336.5 l 45.25,-0.26019 45.25,-0.26019 0,10.01019 0,10.01019 -45.03138,0 c -36.60799,0 -45.12711,-0.24946 -45.54314,-1.33359 z m 101,0 c -0.28146,-0.73347 -0.37983,-5.12097 -0.21861,-9.75 L 412.5,336.5 l 46.25,-0.25999 46.25,-0.25998 0,10.00998 0,10.00999 -46.03138,0 c -37.44142,0 -46.12689,-0.24886 -46.54314,-1.33359 z M 518,346 l 0,-10 59,0 59,0 0,10 0,10 -59,0 -59,0 0,-10 z m -78.64134,-13.50772 c -0.71022,-1.85082 0.89392,-4.25564 7.9995,-11.99228 4.30548,-4.68786 5.3785,-5.45328 4.90659,-3.5 -0.3322,1.375 -1.42767,3.08802 -2.43438,3.8067 C 447.62682,322.37982 447.39652,326 449.5,326 c 2.57695,0 1.57867,2.38502 -2.19747,5.25 -4.02696,3.05528 -7.06579,3.5305 -7.94387,1.24228 z M 519.5,327 c -0.97212,-1.57292 -0.13405,-2.36046 10.75134,-10.10306 5.63676,-4.00934 14.53556,-11.256 19.7751,-16.10368 15.35745,-14.2089 15.526,-14.29845 26.84785,-14.26381 8.35425,0.0256 12.20147,0.71197 29.12571,5.19654 10.725,2.8419 22.5375,5.68735 26.25,6.32321 3.95568,0.67751 6.75,1.65454 6.75,2.36012 0,1.82374 -13.4455,4.78818 -16.23835,3.58021 -1.24391,-0.53802 -7.88665,-1.87747 -14.76165,-2.97656 -6.875,-1.09909 -14.975,-2.49828 -18,-3.10932 -6.86703,-1.38712 -15.85683,-0.5275 -20.78701,1.98769 -4.2567,2.17161 -23.75396,15.52306 -29.50245,20.20287 -2.1363,1.73915 -7.15319,4.12997 -11.5,5.48038 -9.11609,2.83206 -7.95828,2.64259 -8.71054,1.42541 z M 35,324.56739 c 0,-0.78794 0.954633,-1.7356 2.121406,-2.10592 1.844777,-0.58551 2.048265,-1.21369 1.560506,-4.81739 -2.049443,-15.14183 -2.064115,-14.31087 0.263417,-14.91953 C 41.99877,301.92606 43,305.19385 43,315.95811 43,325.41019 42.672153,326 37.418213,326 35.985912,326 35,325.41592 35,324.56739 z m 161,0.0546 c 0,-0.75791 0.91285,-1.99541 2.02855,-2.75 1.44483,-0.97718 3.11639,-5.25663 5.80903,-14.87197 3.59853,-12.85028 6.06332,-19.30746 6.13201,-16.06445 0.0167,0.78955 0.92324,2.38592 2.01447,3.54748 1.9837,2.11156 1.98345,2.11345 -1.38992,10.56445 -1.85569,4.64889 -4.09852,10.12557 -4.98406,12.1704 -0.88554,2.04484 -1.61008,4.85734 -1.61008,6.25 0,2.28747 -0.38647,2.53212 -4,2.53212 -2.73153,0 -4,-0.437 -4,-1.37803 z M 231.51431,319.75 c 0.24148,-3.4375 0.65995,-9.9558 0.92992,-14.4851 0.46341,-7.77446 0.67444,-8.39913 3.77263,-11.16736 1.80497,-1.61274 3.39146,-2.82255 3.52554,-2.68848 0.13407,0.13408 -0.66956,6.7284 -1.78586,14.65405 -1.88697,13.39737 -1.91281,14.4957 -0.36766,15.62554 2.63818,1.92908 0.96953,4.31135 -3.01987,4.31135 l -3.49376,0 0.43906,-6.25 z M 102,323.5 c 0,-0.825 0.64844,-1.5 1.44098,-1.5 0.79254,0 1.68045,-0.38746 1.97312,-0.86101 0.29268,-0.47356 -1.25502,-7.32717 -3.43932,-15.23025 -4.667011,-16.88581 -4.767898,-19.32042 -0.81287,-19.61593 3.4831,-0.26025 4.18964,0.89509 4.38998,7.17848 0.0882,2.76579 0.90009,9.72047 1.80422,15.45485 0.90414,5.73437 1.64389,11.69687 1.64389,13.25 0,2.5606 -0.32629,2.82386 -3.5,2.82386 -2.44444,0 -3.5,-0.45238 -3.5,-1.5 z m 280.50978,-4.44231 c 0.2414,-3.05673 0.67282,-10.09547 0.9587,-15.64165 0.48699,-9.44743 1.1089,-12.69802 3.78313,-19.77341 l 1.07998,-2.85738 1.30177,2.48452 c 0.98652,1.88283 1.06618,3.9068 0.32894,8.35738 -0.53506,3.23007 -1.26088,11.09076 -1.61293,17.46821 -0.62244,11.27555 -0.58092,11.61082 1.50527,12.15638 1.17995,0.30856 2.14536,1.19161 2.14536,1.96233 0,1.01358 -1.37368,1.40131 -4.96457,1.40131 l -4.96457,0 0.43892,-5.55769 z M 449,323.46786 c 0,-0.67315 0.8973,-1.8413 1.994,-2.59589 1.63881,-1.12758 2.46048,-4.31107 4.61284,-17.87197 1.44036,-9.075 3.26909,-17.76548 4.06384,-19.31219 1.81845,-3.53899 4.97227,-3.29985 4.52884,0.3434 -0.16527,1.35783 -0.68607,5.61879 -1.15734,9.46879 -0.47127,3.85 -1.54953,10.15 -2.39614,14 -0.84661,3.85 -1.83145,9.25 -2.18853,12 l -0.64924,5 -4.40414,0.0959 C 450.54532,324.65813 449,324.26233 449,323.46786 z m 141.49192,-0.49309 c -0.26621,-0.83888 -0.91148,-4.88888 -1.43394,-9 -0.52246,-4.11112 -1.24312,-9.30203 -1.60147,-11.53535 l -0.65155,-4.06059 3.59752,0.41999 3.59752,0.41999 0,9.33389 c 0,8.33576 0.22361,9.49052 2.09106,10.79852 3.11651,2.1829 2.1062,4.93815 -1.85309,5.05364 -2.10767,0.0615 -3.43331,-0.4446 -3.74605,-1.43009 z M 556,323.04545 c 0,-0.525 1.02448,-1.9875 2.27663,-3.25 1.47814,-1.49035 2.74615,-4.67482 3.61528,-9.07938 1.15011,-5.82844 1.74496,-6.99405 4.22337,-8.27568 3.64103,-1.88285 3.63667,-1.71232 -0.28491,11.15753 L 562.66075,324 l -3.33038,0 C 557.49867,324 556,323.57045 556,323.04545 z M 45.426702,318.75 c 0.362981,-1.2375 1.154664,-5.04848 1.759295,-8.46884 0.943322,-5.3363 0.867317,-6.54256 -0.535574,-8.5 -0.899198,-1.25464 -3.2594,-4.64704 -5.244893,-7.53868 -1.985494,-2.89164 -4.279696,-5.63231 -5.098227,-6.09038 -2.243246,-1.25538 -1.261767,-5.58734 1.350234,-5.95953 2.876197,-0.40984 5.423189,2.48081 11.436632,12.97973 l 4.967212,8.67231 -1.693046,6.74005 C 50.748742,317.03229 48.278303,321 45.883369,321 c -0.686867,0 -0.862627,-0.86597 -0.456667,-2.25 z m 245.005788,0.93468 c -0.33534,-0.8739 -0.31431,-2.06689 0.0468,-2.65108 1.12243,-1.81614 8.5248,-5.14631 9.80506,-4.4111 0.66863,0.38398 0.87454,0.32234 0.45756,-0.13698 -0.74407,-0.81963 9.09919,-5.81026 20.56056,-10.42441 l 5.80242,-2.33595 6.72234,2.63742 c 3.69729,1.45058 7.9487,2.63742 9.44758,2.63742 1.49888,0 2.71878,0.3375 2.71088,0.75 -0.0124,0.64958 -36.90216,11.97503 -40.98564,12.58294 -0.825,0.12281 -2.05178,0.56808 -2.72618,0.98947 -0.67439,0.4214 -3.4774,1.0328 -6.22889,1.35867 -4.01792,0.47587 -5.12274,0.27972 -5.61244,-0.9964 z m 169.28462,-2.35348 c 0.33975,-2.10716 1.10488,-6.25325 1.70031,-9.21354 l 1.08258,-5.38235 7.01556,-0.13055 c 5.26639,-0.098 7.94665,-0.67992 10.75,-2.33394 L 484,298.06745 l 0,3.01279 c 0,2.34727 -0.69239,3.38908 -3.13444,4.71627 -2.57438,1.39911 -15.89945,10.74206 -20.56587,14.41988 -0.90914,0.71653 -1.05046,0.0167 -0.58258,-2.88519 z m 31.6567,1.22999 c -3.4709,-1.51054 -4.47995,-4.43698 -6.39999,-18.56119 -0.56075,-4.125 -1.75337,-9.43339 -2.65026,-11.79642 -1.13519,-2.99082 -1.3128,-4.61434 -0.5845,-5.34264 1.475,-1.475 5.12298,0.646 6.2615,3.64054 0.69926,1.83917 3.99944,22.53478 3.99944,25.08065 0,0.28235 1.17775,1.60487 2.61723,2.93893 1.56219,1.4478 2.38107,3.04099 2.03138,3.95225 -0.70475,1.83655 -1.23638,1.84541 -5.2748,0.0879 z m -232.5093,-12.1997 C 250.96403,299.41031 241.8,291.70784 238.5,289.24489 l -6,-4.47809 -7.10587,0.52859 c -5.09147,0.37873 -13.24034,2.55544 -28.74545,7.67842 -11.90177,3.93242 -22.16116,6.8275 -22.79864,6.43351 -0.67097,-0.41469 -0.89028,-0.28144 -0.52078,0.31642 0.36447,0.58972 -0.69532,1.29947 -2.47049,1.65451 -4.81343,0.96268 -8.66865,0.73839 -9.46534,-0.55068 -0.95941,-1.55237 6.63242,-7.98371 8.57609,-7.26514 0.80823,0.2988 1.14299,0.21675 0.7439,-0.18235 -0.94772,-0.94772 7.35509,-5.17315 25.28658,-12.86875 7.975,-3.42261 16.84754,-7.41281 19.71676,-8.86713 6.27126,-3.17869 14.94762,-3.54929 19.95376,-0.85228 2.82275,1.52072 25.46993,21.26253 28.29063,24.66127 0.86637,1.04391 0.33202,1.82053 -2.42496,3.52444 -1.9449,1.20202 -3.53619,2.52756 -3.53619,2.94564 0,0.41809 1.6875,1.31062 3.75,1.98342 2.0625,0.67279 4.3125,1.45652 5,1.74162 1.75797,0.729 1.55657,-1.19888 -0.32143,-3.07688 C 265,301.14286 265.07682,301 267.27358,301 c 2.80607,0 5.76609,2.87652 5.98773,5.81882 0.0846,1.12344 0.46803,1.84846 0.85201,1.61114 0.90828,-0.56134 4.01805,8.54846 3.30951,9.6949 -1.44491,2.33792 -5.33063,-0.12508 -18.55832,-11.76337 z M 120.25,304.76469 C 115.23826,299.71865 112,295.6441 112,294.3841 c 0,-1.89481 3.57391,-6.25572 4.33913,-5.29464 0.17978,0.2258 2.04573,3.33554 4.14657,6.91054 4.50892,7.67287 8.13228,11.85869 11.34558,13.10679 2.88661,1.12121 2.3499,3.29474 -0.9084,3.67879 -1.8874,0.22246 -4.24621,-1.55023 -10.67288,-8.02089 z m 225.25,-1.29697 c -3.85,-0.69642 -8.96842,-2.0578 -11.37428,-3.02528 l -4.37427,-1.75905 6.02268,-2.7339 c 3.91319,-1.77634 6.26797,-3.50677 6.723,-4.94046 1.15845,-3.64994 -0.32163,-10.37939 -7.67878,-34.91289 -6.58521,-21.95934 -6.97607,-23.79905 -6.33269,-29.80682 0.55433,-5.17628 0.99875,-6.34268 2.31976,-6.08828 0.89873,0.17308 2.41153,2.33615 3.36177,4.80683 0.95024,2.47067 5.58074,14.51921 10.28999,26.77452 4.70926,12.25532 9.97349,24.78292 11.69831,27.83912 1.72481,3.0562 3.52294,7.62779 3.99583,10.15909 0.4729,2.53129 1.85802,5.66489 3.07804,6.96355 2.40469,2.55967 2.314,2.7184 -3.22936,5.6521 -4.11756,2.17913 -7.14141,2.40257 -14.5,1.07147 z M 31.510513,302.01701 c -0.334137,-0.54064 -0.317499,-2.52894 0.03697,-4.41844 0.486048,-2.59086 1.393884,-3.74586 3.692693,-4.69806 2.771847,-1.14813 3.216449,-1.05482 4.90401,1.02923 1.020696,1.2605 1.855811,3.34582 1.855811,4.63404 0,1.85475 -0.780456,2.55896 -3.75,3.38364 -4.680006,1.2997 -5.970998,1.31303 -6.739487,0.0696 z m 75.048437,-4.47245 c -0.73045,-4.87099 0.0613,-6.49091 3.19105,-6.52925 1.94102,-0.0238 1.50618,6.44675 -0.60876,9.05859 l -1.85876,2.29548 -0.72353,-4.82482 z M 491,296.3846 c 0,-1.07181 -0.60674,-4.28777 -1.3483,-7.14659 l -1.34831,-5.19784 7.45437,-10.27009 c 4.0999,-5.64854 9.00845,-13.56114 10.9079,-17.58355 1.96228,-4.15545 3.96757,-7.14247 4.64394,-6.91748 0.65472,0.21779 1.54642,2.92797 1.98156,6.02262 0.95386,6.7837 0.54157,7.70983 -12.50308,28.08578 C 490.22245,299.88114 491,298.84787 491,296.3846 z M 372.5,274.57587 c -4.67674,-2.09806 -10.09412,-8.55764 -11.92634,-14.22072 C 359.0332,255.59383 359.21403,250 360.90841,250 c 1.51458,0 3.09159,2.539 3.09159,4.97749 0,1.41763 0.74219,3.69013 1.6493,5.05 2.94929,4.42135 8.71755,9.97251 10.36252,9.97251 0.88326,0 2.46244,0.6263 3.5093,1.39179 1.61719,1.18252 1.7027,1.6336 0.56869,3 -1.60427,1.93302 -3.58424,1.98104 -7.58981,0.18408 z M 114,260.43713 c -1.925,-0.72833 -4.91065,-1.34964 -6.63478,-1.38069 -3.70606,-0.0667 -3.39379,1.62453 -5.93473,-32.14295 l -1.624341,-21.58651 3.111321,-6.16349 C 104.6287,195.77357 106.47231,193 107.0144,193 c 0.54208,0 0.9856,2.42164 0.9856,5.38142 0,7.48743 5.79387,46.81678 7.08334,48.08235 0.73295,0.71938 1.83734,0.1189 3.61175,-1.96377 1.40578,-1.65 8.54128,-9.54503 15.85667,-17.54451 10.22785,-11.1843 14.45555,-15.08541 18.29942,-16.88579 5.0447,-2.36281 8.14882,-2.27522 8.14882,0.22994 0,0.74932 -1.17128,1.98925 -2.60284,2.7554 -2.34295,1.25391 -9.33817,9.78274 -32.30848,39.39169 -4.07623,5.2543 -7.67623,9.49958 -8,9.43396 -0.32378,-0.0656 -2.16368,-0.71522 -4.08868,-1.44356 z m -69.5,-2.06782 c -1.307916,-0.96844 -3.124636,-1.27289 -5.25,-0.87979 -2.165603,0.40054 -3.25,0.20857 -3.25,-0.57535 0,-0.64704 1.155222,-12.89204 2.567161,-27.21109 2.227231,-22.58728 2.891534,-26.67476 5.016846,-30.86886 C 44.945218,196.148 46.731341,194 47.603801,194 c 1.403093,0 1.492975,2.52634 0.844978,23.75 -0.398821,13.0625 -1.000451,27.8788 -1.336954,32.9251 -0.597466,8.95977 -0.658764,9.14035 -2.611825,7.69421 z M 16,167 l 0,-10 59,0 59,0 0,10 0,10 -59,0 -59,0 0,-10 z m 131,0 0,-10 21.25,0.0495 21.25,0.0495 L 182,161 c -4.125,2.14556 -7.84607,3.92329 -8.26905,3.95051 -0.42298,0.0272 -0.4867,-1.07551 -0.14159,-2.45051 0.88892,-3.54174 -0.68097,-3.08601 -3.46826,1.00683 -1.3084,1.92124 -2.7709,3.49317 -3.25,3.49317 -0.47911,0 -0.8711,0.675 -0.8711,1.5 0,1.17949 1.38889,1.5 6.5,1.5 3.66667,0 6.5,-0.4359 6.5,-1 0,-0.55 -0.9,-1 -2,-1 -3.85816,0 -1.91493,-1.57834 7.75,-6.29475 l 9.75,-4.75793 15.81672,0.0263 c 15.44603,0.0257 15.89608,0.0869 19.20252,2.60881 3.90195,2.97616 6.5596,2.86332 7.96789,-0.33831 0.54292,-1.23429 1.78042,-2.24416 2.75,-2.24416 1.5663,0 1.76287,1.11504 1.76287,10 l 0,10 -47.5,0 -47.5,0 0,-10 z m 109,0 0,-10 21.364,0 21.364,0 2.59987,3.75 c 4.10917,5.92697 12.94573,14.15891 15.53063,14.46799 1.40072,0.16749 2.82206,-0.43697 3.5,-1.48846 0.93085,-1.44374 0.44948,-3.03869 -2.6085,-8.64282 -2.0625,-3.7798 -3.75,-7.14559 -3.75,-7.47954 C 314,157.27323 316.925,157 320.5,157 l 6.5,0 0,10 0,10 -35.5,0 -35.5,0 0,-10 z m 85.42548,8.66641 c -0.28146,-0.73347 -0.37983,-5.12097 -0.21861,-9.75 L 341.5,157.5 l 48.75,-0.25951 48.75,-0.25952 0,10.00952 0,10.00951 -48.53138,0 c -39.525,0 -48.62636,-0.24749 -49.04314,-1.33359 z m 113.0031,0.008 c -0.28316,-0.73791 -0.38293,-5.12904 -0.22171,-9.75807 L 454.5,157.5 l 58.5,0 58.5,0 0,9.5 0,9.5 -58.27829,0.25807 c -48.00228,0.21256 -58.36907,0.0215 -58.79313,-1.08359 z M 581,167 l 0,-10 28.5,0 28.5,0 0,10 0,10 -28.5,0 -28.5,0 0,-10 z m -265.5,7.03191 c -2.61357,-1.09941 -9.7568,-8.50143 -14.35335,-14.87336 -2.00566,-2.78031 -8.9222,-11.82763 -15.3701,-20.10515 -6.44789,-8.27751 -12.45906,-16.47256 -13.35816,-18.21121 -1.65088,-3.19245 -17.52094,-55.307965 -17.24456,-56.629226 0.082,-0.39213 -0.39519,-2.036726 -1.06048,-3.654658 -0.66529,-1.617932 -1.07545,-4.767932 -0.91148,-7 C 253.4624,50.011838 253.80577,49.5 255.9244,49.5 c 2.08978,0 2.58262,0.690116 3.57069,5 0.63046,2.75 1.84988,6.35 2.70983,8 0.85994,1.65 6.18621,14.398371 11.83615,28.329713 7.58764,18.709247 10.89563,25.737927 12.65627,26.891547 2.76615,1.81245 5.72045,6.20494 18.01083,26.77874 13.38066,22.3989 15.73118,26.91269 15.00287,28.81063 -0.71576,1.86526 -1.26707,1.95969 -4.21104,0.72128 z M 223,153.36186 c -5.225,-4.20723 -9.63631,-7.99372 -9.80292,-8.41443 -0.1666,-0.42071 1.32749,-2.00849 3.3202,-3.52841 l 3.62311,-2.76348 7.96288,7.96288 c 5.9721,5.97211 8.01711,8.70248 8.1798,10.92121 0.38173,5.20575 -2.91877,4.16769 -13.28307,-4.17777 z m 143,-0.43306 c 0,-1.21222 2.56533,-5.98062 5.70074,-10.59645 l 5.70074,-8.39241 2.98034,2.98034 2.98034,2.98034 -6.04401,7.29969 c -4.27108,5.15842 -6.81756,7.39251 -8.68108,7.61611 C 366.48958,155.0741 366,154.72366 366,152.9288 z M 88.483336,144.09623 c -0.979955,-2.55418 -3.491632,-27.91104 -2.913824,-29.41678 0.31176,-0.81243 0.128638,-1.74797 -0.406936,-2.07897 -0.963026,-0.59519 0.718597,-5.57611 1.888158,-5.59268 0.302904,-0.004 1.540404,2.02924 2.75,4.51895 C 91.673658,115.38179 92,117.74757 92,127.47005 c 0,10.44864 0.177282,11.54072 2.091056,12.88117 3.10705,2.17627 2.106935,4.93799 -1.830096,5.05364 -1.930126,0.0567 -3.456685,-0.47213 -3.777624,-1.30863 z m 73.763924,0.10573 c -0.27396,-0.71393 0.24877,-1.84418 1.16163,-2.51168 1.53443,-1.12201 1.42832,-2.64474 -1.4056,-20.16995 -2.49576,-15.43397 -2.85122,-19.47325 -1.913,-21.738321 1.42472,-3.439568 2.39611,-3.495497 4.51608,-0.260019 1.28611,1.96286 1.72893,5.61567 1.99738,16.47619 0.1897,7.67481 0.80306,16.77742 1.36302,20.22801 1.48698,9.16299 1.46195,9.27381 -2.09409,9.27381 -1.72002,0 -3.35147,-0.58412 -3.62542,-1.29804 z m 100.94593,-0.1409 c -0.30416,-0.79262 -0.0859,-1.59683 0.48509,-1.78715 3.28631,-1.09544 4.34625,-3.21714 5.38234,-10.77391 1.53911,-11.22555 1.76898,-11.6433 4.01801,-7.30204 1.80793,3.48983 1.83105,4.10068 0.41067,10.8529 -0.8278,3.93521 -1.89663,7.85458 -2.37518,8.70971 -1.1263,2.01259 -7.17587,2.24209 -7.92093,0.30049 z m 150.49666,0.57309 c -0.28827,-0.75122 0.59213,-5.81372 1.95643,-11.25 2.45199,-9.77028 2.52592,-9.90346 6.41714,-11.55989 2.16512,-0.92165 3.93658,-1.33987 3.93658,-0.92937 0,0.41049 -1.81231,4.98661 -4.02737,10.16914 -3.66152,8.56681 -3.87722,9.53257 -2.37457,10.63133 0.92066,0.6732 1.38965,1.89428 1.05875,2.7566 -0.74096,1.93091 -6.24072,2.07473 -6.96696,0.18219 z m 78.81128,0.36768 c -0.3393,-0.549 0.50912,-2.0115 1.88536,-3.25 1.91372,-1.72218 3.48934,-5.77998 6.6988,-17.25183 4.7561,-17.00012 5.76656,-19.54435 6.91449,-17.4099 1.07026,1.99001 1.82561,12.9099 0.89301,12.9099 -0.42447,0 -1.94009,3.9375 -3.36804,8.75 -4.94133,16.65333 -5.25431,17.25 -9.04844,17.25 -1.84705,0 -3.63588,-0.44918 -3.97518,-0.99817 z m 33.62328,-0.76937 c -1.13018,-2.11176 -2.93647,-22.26947 -2.75387,-30.73246 0.12113,-5.61392 1.72901,-10.5 3.45528,-10.5 0.4155,0 1.2771,8.19355 1.91468,18.20788 1.05602,16.58686 1.34609,18.34883 3.25814,19.7911 1.36594,1.03032 1.86991,2.17999 1.44315,3.29212 -0.88651,2.31021 -6.07185,2.26866 -7.31738,-0.0586 z m 96.62803,0.9845 c -1.87575,-0.23849 -2.88367,-1.04227 -3.1765,-2.53315 -3.35211,-17.066 -4.58874,-25.06813 -4.10804,-26.58267 0.32067,-1.01034 0.17185,-2.91847 -0.33071,-4.2403 -0.71807,-1.88866 -0.43086,-3.00891 1.34122,-5.23131 l 2.25496,-2.82799 0.61846,2.46414 c 0.34016,1.35528 1.54791,9.80447 2.68389,18.77597 1.58487,12.51657 2.46084,16.60405 3.76486,17.56777 2.22851,1.64695 0.56814,3.06732 -3.04814,2.60754 z M 54,144.04545 c 0,-0.525 1.030045,-1.9875 2.288989,-3.25 1.875927,-1.88122 2.886526,-5.54366 5.600252,-20.29545 1.821196,-9.9 3.813186,-18.9 4.426647,-20 1.004831,-1.80177 1.189152,-1.603539 1.859667,2 0.409357,2.2 1.044675,5.50528 1.411818,7.34507 0.499395,2.50252 -0.537331,7.35119 -4.115966,19.25 L 60.687907,145 57.343954,145 C 55.504779,145 54,144.57045 54,144.04545 z m 532.40624,-0.19715 c -0.62934,-1.0183 1.41614,-3.26601 3.69674,-4.06224 0.68542,-0.2393 6.21053,-21.65144 8.70076,-33.71911 l 0.70842,-3.43305 1.19235,2.61691 c 0.83263,1.82742 0.86752,2.72518 0.11565,2.9758 -0.65243,0.21748 -1.17156,4.35195 -1.31745,10.49263 -0.22309,9.39013 -0.51877,10.72614 -4.02943,18.20724 -3.1134,6.63455 -4.19563,8.07352 -6.07196,8.07352 -1.25581,0 -2.60359,-0.51827 -2.99508,-1.1517 z M 12.5,143 C 11.512493,141.40218 12.292122,140.70347 26.247764,130.6792 33.536494,125.44374 45.125,116.19114 52,110.11788 64.485417,99.088458 66.959258,97.339093 65.064589,100.87931 c -0.553178,1.03363 -1.533886,4.97113 -2.179351,8.75 L 61.711665,116.5 48.626591,125 c -7.196791,4.675 -14.536233,9.76596 -16.309871,11.31324 -1.825072,1.59215 -6.608642,3.8644 -11.020759,5.23499 C 12.081323,144.41069 13.252397,144.2174 12.5,143 z m 184.71591,-9.39701 c -18.58502,-14.32984 -17.32194,-12.26595 -12.2607,-20.03425 2.34659,-3.60168 4.0181,-7.19591 3.71447,-7.98717 -0.51776,-1.34924 6.81211,-45.833503 9.44677,-57.33157 0.70008,-3.055254 1.7516,-5.25 2.51533,-5.25 0.72874,0 2.01669,2.422836 2.89619,5.448204 1.50001,5.159876 1.42473,7.131215 -1.42245,37.25 L 199.09924,117.5 l 9.91321,10 9.91321,10 -3.89557,3.25 c -2.14257,1.7875 -4.03834,3.21526 -4.21283,3.17279 -0.17449,-0.0425 -6.2951,-4.68637 -13.60135,-10.3198 z M 346.04519,141.75 c 0.0249,-0.6875 1.05299,-3.17522 2.28475,-5.52828 1.70237,-3.25206 4.37704,-5.70082 11.15072,-10.20885 l 8.91115,-5.93057 2.40186,4.02775 c 1.32103,2.21526 2.24537,4.16944 2.0541,4.34261 -0.19128,0.17317 -4.17277,2.22427 -8.84777,4.558 -4.675,2.33373 -10.13976,5.53604 -12.1439,7.11624 -3.90649,3.08013 -5.88355,3.63236 -5.81091,1.6231 z m -45.66305,-6.11834 c -1.54379,-2.82241 -2.68438,-6.10404 -2.53463,-7.29251 0.47253,-3.75037 -1.90168,-18.38489 -3.54003,-21.82056 -2.74362,-5.75343 0.11574,-13.462791 3.43767,-9.26859 0.54452,0.6875 1.969,9.11662 3.1655,18.73139 1.74262,14.0031 2.56485,17.89585 4.13241,19.56445 2.46719,2.6262 2.48308,4.08331 0.0515,4.71919 -1.47844,0.38662 -2.53453,-0.65176 -4.71238,-4.63337 z m 81.0906,0.33989 c -2.86677,-2.99227 -2.88022,-3.06098 -1.12544,-5.75 0.9768,-1.49685 2.01249,-3.4584 2.30155,-4.359 0.4662,-1.45255 2.93194,-2.77194 11.23038,-6.00927 2.74142,-1.06946 3.6887,-0.56117 2.479,1.33019 -0.46312,0.72409 -1.31734,2.66904 -1.89827,4.32212 C 393.37928,128.58075 386.05473,139 384.97364,139 c -0.3297,0 -1.90511,-1.3628 -3.5009,-3.02845 z m 13.09735,-4.64948 c -0.35458,-0.92402 0.53088,-4.44204 1.97069,-7.82978 2.36336,-5.56078 3.12624,-6.40279 7.94009,-8.76372 4.18777,-2.05388 5.56549,-3.33901 6.44878,-6.01541 1.49124,-4.51849 4.91282,-6.40418 8.2794,-4.56289 2.14821,1.17491 2.36052,1.75144 1.63926,4.4513 -0.66041,2.4721 -2.40346,4.03575 -8.58844,7.70446 -7.40215,4.3907 -11.46667,8.86113 -13.58707,14.94397 -0.77554,2.2248 -3.25988,2.26844 -4.10271,0.0721 z m -22.2943,-8.02694 -2.11732,-3.70487 12.17077,-6.78576 c 6.69392,-3.73217 12.64819,-6.78998 13.23171,-6.79513 1.58211,-0.014 4.0454,10.28851 2.57699,10.77798 -0.63272,0.21091 -0.85307,0.86456 -0.48966,1.45257 0.3634,0.588 0.22348,0.79886 -0.31094,0.46857 -1.24658,-0.77043 -7.83743,1.50557 -15.36793,5.30695 -3.25181,1.64151 -6.28676,2.98456 -6.74434,2.98456 -0.45758,0 -1.78475,-1.66719 -2.94928,-3.70487 z m 54.36057,-6.93149 c -3.64832,-3.64833 -3.31018,-5.10511 1.48467,-6.39623 3.86297,-1.04019 4.30132,-0.93695 7,1.64855 3.5915,3.44087 3.58508,3.96753 -0.0714,5.85836 -4.06897,2.10415 -5.37026,1.93236 -8.4133,-1.11068 z M 121,117.07429 c -0.825,-0.47568 -7.8,-1.81944 -15.5,-2.98612 -10.293421,-1.55963 -14.264756,-2.55695 -15,-3.76696 -0.55,-0.90514 -1.722642,-2.40784 -2.605871,-3.33933 -0.883229,-0.93149 -1.838319,-2.90959 -2.122422,-4.39578 -0.418936,-2.19153 -0.209956,-2.58366 1.105871,-2.07508 3.52296,1.36168 40.940672,10.30532 45.922192,10.9764 3.16154,0.4259 5.15148,1.15884 4.9322,1.81666 -0.20216,0.60649 -3.48706,1.9009 -7.29977,2.87647 -8.04384,2.05821 -7.50172,2.00685 -9.4322,0.89374 z m -47.203012,-4.75457 c -1.683946,-0.44325 -3.451505,-3.99854 -2.473941,-4.9761 0.278113,-0.27811 1.414617,-0.0192 2.525565,0.57536 2.957659,1.58289 7.229996,1.31986 9.322647,-0.57397 C 84.887709,105.79165 85,105.81887 85,107.78831 c 0,3.86268 -5.418015,6.05416 -11.203012,4.53141 z M 571.27126,109.9767 c -1.22581,-0.49309 -6.17581,-3.54239 -11,-6.77624 C 555.44707,99.96662 545.425,94.136722 538,90.245135 c -13.41829,-7.032786 -13.54133,-7.073453 -20.32736,-6.718616 -3.75505,0.196349 -7.35505,0.756424 -8,1.244611 -1.94493,1.472186 -10.51679,4.76733 -22.67264,8.715686 -6.325,2.05443 -15.691,5.54684 -20.81334,7.760914 -6.97521,3.01495 -9.59975,3.73918 -10.45415,2.88478 -0.85439,-0.85439 -0.0594,-2.24265 3.16661,-5.529722 3.4392,-3.504284 8.8419,-6.561389 26.80405,-15.167014 21.45472,-10.278898 22.85189,-10.798651 30.16663,-11.222095 7.39688,-0.428199 8.00754,-0.286239 17.15009,3.986873 16.25306,7.596474 44.17427,29.245128 42.69398,33.102698 -0.72555,1.89077 -1.2273,1.96683 -4.44261,0.67345 z M 162.32118,93.735105 c -2.6449,-1.18625 -4.73839,-5.845234 -3.86419,-8.599602 0.68569,-2.160396 6.69596,-4.674523 9.03197,-3.778114 0.77356,0.296842 2.10528,1.891068 2.95939,3.542724 1.23142,2.381319 1.31722,3.520289 0.41445,5.501673 -1.39939,3.071309 -5.53094,4.683625 -8.54162,3.333319 z M 282.2456,92.761429 C 281.01052,91.446747 280,89.638117 280,88.742253 c 0,-3.731536 8.93001,-6.412244 11.8,-3.542253 2.93713,2.93713 0.35667,8.418666 -4.41212,9.372423 -2.2297,0.445941 -3.41374,0.02895 -5.14228,-1.810994 z m -106.46663,-1.569001 -2.72102,-1.794393 6.10441,-7.699017 C 184.60573,74.833724 185.63134,74 188.63339,74 191.5283,74 192,74.339142 192,76.420545 c 0,1.821634 -0.68043,2.575982 -2.75,3.048756 -2.20213,0.503056 -3.32607,1.913456 -5.64155,7.079455 -1.59035,3.548184 -3.39035,6.448279 -4,6.444655 -0.60965,-0.0036 -2.33291,-0.814066 -3.82948,-1.800983 z m 423.734,-14.370757 c -0.63136,-6.88811 0.88454,-46.791154 2.02567,-53.321671 0.53274,-3.048793 3.67449,-6.5 5.91716,-6.5 2.20172,0 4.72081,3.770749 5.13183,7.681695 0.73154,6.960646 3.4189,57.64511 3.07468,57.989332 -0.1859,0.185895 -1.76097,-0.158059 -3.50015,-0.764343 -3.02295,-1.053805 -4.39415,-0.846172 -10.32012,1.562705 -1.42261,0.578283 -1.75323,-0.365392 -2.32907,-6.647718 z m 8.23268,-34.627095 C 607.56916,36.312559 607.42538,41.4 607.42614,53.5 c 7.5e-4,12.1 0.14515,16.912559 0.32089,10.694576 0.17573,-6.217983 0.17511,-16.117983 -10e-4,-22 z"
       id="path3005"
       inkscape:connector-curvature="0" />
    <path
       style="fill:#fefe00"
       d="m 464.6549,300.54306 c -1.06047,-2.76352 -0.75068,-11.63618 0.52991,-15.1776 1.1366,-3.1432 1.35506,-3.2532 5.36815,-2.70315 2.59856,0.35617 4.44506,0.14992 4.8742,-0.54446 C 475.80714,281.50303 477.2468,281 478.6264,281 c 2.02144,0 2.38967,0.374 1.8969,1.9266 -0.33632,1.05962 0.0469,3.5024 0.85166,5.42838 2.72389,6.51919 2.48687,8.81038 -1.13059,10.92899 -1.79059,1.04869 -5.88339,2.14498 -9.0951,2.43621 -4.89,0.44341 -5.94596,0.25201 -6.49437,-1.17712 z m 107.98585,-0.31532 c -0.64697,-1.04683 4.7108,-2.19888 10.30925,-2.21673 5.24491,-0.0167 2.42964,1.71133 -4.07911,2.50383 -3.35044,0.40795 -5.8724,0.29173 -6.23014,-0.2871 z m -208.57653,-3.65938 c -1.1292,-1.20198 -2.48485,-4.40907 -3.01257,-7.12688 -0.79677,-4.10344 -0.69475,-5.11107 0.60153,-5.94148 0.85857,-0.55 3.5376,-2.48293 5.95341,-4.29541 3.66508,-2.74975 4.95303,-3.19023 7.77837,-2.66019 2.04015,0.38273 3.65371,0.20204 4.05954,-0.45459 1.29584,-2.09672 4.49473,-1.10801 6.03176,1.86428 1.38056,2.66971 1.36663,3.47693 -0.14472,8.38505 -1.89484,6.15355 -3.67689,7.57886 -13.16981,10.53339 l -6.04442,1.88124 -2.05309,-2.18541 z M 212.8852,294.33642 c -3.69605,-4.29262 -3.2023,-5.10399 4.11936,-6.76927 9.47336,-2.15467 14.55939,-1.99976 18.71746,0.57007 l 3.45809,2.13721 -2.61079,2.61279 c -2.39748,2.39931 -3.40705,2.64027 -12.35686,2.9492 -8.47254,0.29246 -9.95268,0.0965 -11.32726,-1.5 z m -103.55924,-4.0322 c -1.19572,-0.23288 -2.91958,-1.56125 -3.8308,-2.95195 -1.3099,-1.99916 -2.18851,-2.39507 -4.1967,-1.89104 -2.859627,0.71772 -2.863642,1.26157 0.0846,-11.46123 0.82844,-3.575 1.77654,-8.1875 2.1069,-10.25 0.52264,-3.26291 0.95197,-3.74928 3.30534,-3.74442 3.53793,0.007 9.975,1.81376 10.71193,3.00614 0.31873,0.51572 0.12371,6.18597 -0.43339,12.60056 -0.73406,8.45223 -1.47689,12.17559 -2.69836,13.5253 -0.92701,1.02433 -1.95322,1.80114 -2.28048,1.72624 -0.32725,-0.0749 -1.57333,-0.32672 -2.76905,-0.5596 z m -65.215868,-4.8413 c -3.811533,-5.57405 -9.944424,-5.62838 -10.213444,-0.0905 -0.06394,1.3162 -0.477852,0.72 -1.08537,-1.56337 -0.724128,-2.72165 -0.56568,-5.70412 0.603353,-11.35696 C 34.286584,268.23579 35,263.53429 35,262.00433 c 0,-2.39964 0.492134,-2.87407 3.582694,-3.45387 4.247146,-0.79676 8.944592,1.63307 7.986071,4.13094 -0.323446,0.84288 -0.103161,5.42189 0.489522,10.17556 0.61838,4.95978 0.729035,10.23216 0.259659,12.37202 L 46.5,288.95796 44.110092,285.46292 z M 294.34827,125.38441 c -1.01655,-1.51381 -3.57321,-4.48718 -5.68146,-6.60748 -2.59073,-2.60554 -5.06007,-6.87038 -7.6183,-13.15771 -3.44661,-8.470698 -3.63455,-9.396649 -2.10152,-10.354042 1.11598,-0.696942 2.27293,-0.721611 3.43163,-0.07317 0.96492,0.539999 3.90667,0.68136 6.56648,0.315543 l 4.81845,-0.662707 -1.08069,4.048834 c -0.88281,3.307452 -0.77792,4.683762 0.57282,7.516312 1.6612,3.48356 4.38773,20.27994 3.44504,21.22263 -0.2773,0.27729 -1.3359,-0.73441 -2.35245,-2.24821 z m 119.39069,-4.34379 c -2.06858,-0.40115 -4.01577,-0.9841 -4.32711,-1.29543 -0.31133,-0.31134 2.05614,-2.09481 5.26105,-3.96327 4.40515,-2.5682 6.11836,-4.23721 7.02066,-6.83956 l 1.19356,-3.44236 0.0882,4 c 0.0485,2.2 0.74894,4.87351 1.55644,5.94113 2.04906,2.7091 1.87606,3.2966 -1.48214,5.03319 -3.17796,1.64339 -3.61853,1.67019 -9.3107,0.5663 z M 173,117.40421 c -2.475,-1.41444 -4.63124,-2.70276 -4.79163,-2.86293 -0.1604,-0.16017 -0.42524,-2.93498 -0.58852,-6.16625 -0.16329,-3.23127 -1.05149,-7.32859 -1.97378,-9.105171 l -1.67689,-3.230141 3.51541,-1.468832 C 169.41807,93.763028 171,92.404091 171,91.551027 c 0,-2.036714 0.87919,-1.948995 4.5,0.448973 1.65,1.092752 3.70287,1.989787 4.56194,1.993411 1.99899,0.0084 5.26821,4.431984 6.87113,9.297249 1.20728,3.66443 1.10873,4.00574 -2.95956,10.25 -2.31463,3.55264 -4.71807,6.45392 -5.34097,6.44729 -0.6229,-0.007 -3.15754,-1.16931 -5.63254,-2.58374 z M 72.25,115.39378 C 71.5625,115.08553 71,114.23795 71,113.51027 c 0,-1.05532 0.723518,-1.10101 3.575188,-0.22581 2.598565,0.79752 4.37297,0.79613 6.495677,-0.005 1.877019,-0.70849 3.136457,-0.75291 3.524947,-0.12432 0.332452,0.53792 0.423841,1.15865 0.203086,1.3794 -0.71496,0.71497 -11.260286,1.4371 -12.548898,0.85935 z m 326.50253,-4.71004 -1.46675,-5.18374 5.10711,-1.68891 C 407.98586,101.96151 414,101.48582 414,102.89301 c 0,0.49116 -0.6297,1.13465 -1.39934,1.42999 -0.76964,0.29534 -1.90096,2.05688 -2.51404,3.91454 -0.82795,2.5087 -2.24049,3.92452 -5.49102,5.50375 l -4.37632,2.12618 -1.46675,-5.18373 z m 109.28007,-5.60505 c -0.87982,-2.12405 -0.90041,-4.79439 -0.0823,-10.676228 0.60003,-4.314038 1.46236,-8.215105 1.9163,-8.669039 1.09609,-1.096098 15.30406,-1.818541 14.64022,-0.744423 -0.28394,0.459422 0.16087,4.054261 0.98847,7.988532 1.84296,8.761098 1.90674,7.943178 -0.8856,11.356248 -2.23397,2.73058 -2.46771,2.78903 -6.41871,1.60529 -3.49043,-1.04576 -4.46359,-0.99046 -6.5427,0.37183 -2.35909,1.54573 -2.48241,1.50371 -3.61566,-1.23221 z M 612,106.98653 c -0.825,-0.54057 -3.3,-0.73427 -5.5,-0.43044 -3.65302,0.50448 -4.14404,0.29395 -5.66057,-2.42705 -1.31876,-2.36618 -1.54705,-4.635601 -1.10908,-11.025356 l 0.55148,-8.045898 4.27718,-1.633474 c 3.45081,-1.317875 4.93537,-1.416255 7.68379,-0.509194 l 3.40661,1.12428 1.28371,9.350016 c 1.16627,8.494616 1.12605,9.590656 -0.43971,11.980306 -1.90298,2.9043 -2.30674,3.04958 -4.49341,1.61681 z"
       id="path3001"
       inkscape:connector-curvature="0" />
    <path
       style="fill:#fe0000"
       d="m 346,305.61487 c -16.63996,-2.85407 -35.32121,-12.64727 -39.54567,-20.73088 -1.57776,-3.01909 -0.38444,-9.09674 2.31642,-11.7976 2.20711,-2.20711 12.63871,-2.0934 17.13289,0.18675 4.12665,2.09369 4.09636,2.09201 4.09636,0.22686 0,-2.11546 0.35303,-1.94697 4.4,2.1 1.98,1.98 3.6,3.78 3.6,4 0,0.22 -2.7,0.4 -6,0.4 -5.58777,0 -8.22014,-1.37935 -4.25,-2.22698 2.5056,-0.53495 -3.0642,-3.34919 -8.25,-4.16846 -6.42643,-1.01527 -9.79627,0.41513 -11.24416,4.77283 -1.7359,5.22453 0.27901,8.71926 7.84757,13.61105 10.38952,6.71507 30.28166,13.00479 41.14659,13.01019 1.5125,7.5e-4 2.75,0.45137 2.75,1.00137 0,1.23469 -5.42636,1.08542 -14,-0.38513 z m -83.75,-1.45436 c -2.3375,-0.87936 -4.25,-1.86359 -4.25,-2.18718 0,-0.32358 2.07443,-2.05052 4.60985,-3.83765 4.58625,-3.23269 6.82325,-3.56738 4.41021,-0.65985 -1.06875,1.28776 -0.92041,1.52417 0.95637,1.52417 3.42121,0 9.09702,-3.0671 10.21452,-5.51974 0.74854,-1.64288 0.57956,-3.02336 -0.66459,-5.42928 -2.051,-3.96621 -8.32423,-6.94123 -17.77636,-8.43027 -3.7125,-0.58485 -6.75,-1.4719 -6.75,-1.97121 0,-1.06266 11.9775,0.10209 13.4901,1.31185 0.55545,0.44424 2.45354,1.11628 4.21799,1.49343 4.48509,0.95868 9.29191,6.66418 9.29191,11.02912 0,2.71989 -0.70424,3.95147 -3.46256,6.05534 -1.90441,1.45257 -5.25551,2.88151 -7.44689,3.17544 -3.47661,0.46631 -3.79995,0.71878 -2.53743,1.98129 1.54008,1.54009 1.94364,3.38372 0.69688,3.18371 -0.4125,-0.0662 -2.6625,-0.8398 -5,-1.71917 z M 166,168.5 c 0,-0.825 0.39199,-1.5 0.8711,-1.5 0.4791,0 1.9416,-1.57193 3.25,-3.49317 2.78729,-4.09284 4.35718,-4.54857 3.46826,-1.00683 -0.34511,1.375 -0.32444,2.5 0.0459,2.5 0.37036,0 6.29435,-2.93393 13.16443,-6.51985 14.19226,-7.40782 23.66568,-13.54302 30.20029,-19.55839 2.475,-2.27834 5.54041,-4.83783 6.81203,-5.68775 3.31636,-2.21659 7.18797,-10.42555 7.18797,-15.2406 0,-8.73849 -5.47674,-14.41814 -15.93895,-16.52949 -6.67332,-1.34673 -8.19074,-3.556686 -1.86508,-2.716287 C 224.98706,100.31414 233,108.12815 233,118.06 c 0,2.24714 -1.05422,6.08689 -2.40072,8.74409 -4.62922,9.13532 -29.68097,27.60507 -50.34928,37.1207 C 174.80163,166.4332 173.5521,168 177,168 c 1.1,0 2,0.45 2,1 0,0.5641 -2.83333,1 -6.5,1 -5.11111,0 -6.5,-0.32051 -6.5,-1.5 z m 226.22193,-22.58125 c -7.16504,-2.16495 -20.7203,-18.55534 -28.84268,-34.87525 -2.20401,-4.42841 -3.2765,-5.81622 -3.31797,-4.2935 C 360.02758,107.9875 359.55,109 359,109 c -0.5641,0 -1,-2.83333 -1,-6.5 0,-3.666667 0.4359,-6.5 1,-6.5 0.55,0 1,0.391994 1,0.871098 0,0.479104 1.57193,1.941604 3.49317,3.250002 4.09284,2.78729 4.54857,4.35718 1.00683,3.46826 -1.375,-0.34511 -2.49136,-0.28139 -2.48081,0.14159 0.0434,1.7405 10.06491,19.52851 14.51709,25.76768 8.75195,12.26476 18.39336,17.6576 25.23934,14.1174 1.95434,-1.01063 3.16339,-2.56109 3.56569,-4.57258 0.33478,-1.6739 1.11872,-3.04345 1.7421,-3.04345 1.75546,0 0.13341,5.15474 -2.44846,7.78102 -2.6135,2.65845 -7.75767,3.54437 -12.41302,2.13773 z"
       id="path2999"
       inkscape:connector-curvature="0" />
    <path
       style="fill:#000000"
       d="m 22,358 c 0,-0.64444 10.666667,-1 30,-1 19.333333,0 30,0.35556 30,1 0,0.64444 -10.666667,1 -30,1 -19.333333,0 -30,-0.35556 -30,-1 z m 71,0 c 0,-0.64286 10,-1 28,-1 18,0 28,0.35714 28,1 0,0.64286 -10,1 -28,1 -18,0 -28,-0.35714 -28,-1 z m 64.2,-0.2 c -1.73877,-1.73877 -1.63213,-20.19647 0.1251,-21.65485 0.8328,-0.69116 8.35607,-1.20105 20.25,-1.37244 L 196.5,334.5 l 0.33209,-2.91236 c 0.18265,-1.60179 -0.25676,-4.01263 -0.97647,-5.35741 -1.17155,-2.18908 -1.06718,-2.6405 0.99702,-4.31199 1.68678,-1.36587 3.32292,-5.42996 6.09618,-15.14259 2.08483,-7.30161 4.11025,-14.03154 4.50093,-14.9554 0.55098,-1.30296 -3.62573,-0.24167 -18.61972,4.7312 -20.07026,6.65646 -25.61855,7.61321 -27.93858,4.81776 -2.8594,-3.44537 8.52128,-10.52564 35.19624,-21.89665 7.37677,-3.14457 15.98698,-7.01232 19.13379,-8.59498 6.79131,-3.41564 15.28695,-3.86668 20.44904,-1.08566 3.09897,1.66953 25.87934,21.66135 28.50444,25.0152 0.72877,0.93108 -2.90469,-2.13212 -8.07435,-6.80712 -20.53531,-18.57036 -21.20417,-19 -29.57947,-19 -4.15303,0 -7.03993,0.73518 -11.29966,2.87758 -3.14681,1.58266 -11.75702,5.45041 -19.13379,8.59498 -24.22707,10.32752 -36.45812,17.50102 -34.69738,20.34996 1.50549,2.43594 8.47637,0.9478 32.38919,-6.91442 17.85202,-5.8695 26.54888,-8.236 31.66594,-8.61659 l 7.05456,-0.52471 6,4.47809 c 3.3,2.46295 12.4884,10.18677 20.41867,17.16405 10.19217,8.96736 15.02876,12.59782 16.5,12.38527 1.56748,-0.22645 2.01166,-0.91709 1.79914,-2.79744 -0.33062,-2.92521 -3.83188,-10.63452 -6.12186,-13.47954 -1.48785,-1.84846 -1.47882,-1.89213 0.1333,-0.64477 1.93386,1.49631 4.25169,5.6884 6.36868,11.51857 1.55358,4.27856 0.63332,6.60897 -2.60984,6.60897 -0.97186,0 -8.90426,-6.25931 -17.62756,-13.90958 -8.72329,-7.65027 -16.01609,-13.75721 -16.20623,-13.57097 -0.19013,0.18624 -1.21547,6.53297 -2.27853,14.10386 -1.724,12.27798 -1.76768,13.85768 -0.4043,14.62066 1.96175,1.09785 1.95229,3.15945 -0.022,4.79799 -1.00312,0.83252 -1.44445,2.55279 -1.25,4.87245 L 237.5,334.5 l 18.9249,0.27271 c 11.89393,0.17139 19.4172,0.68128 20.25,1.37244 1.75723,1.45838 1.86387,19.91608 0.1251,21.65485 -0.90603,0.90603 -15.55556,1.2 -59.8,1.2 -44.24444,0 -58.89397,-0.29397 -59.8,-1.2 z m 118.3,-10.8 0,-9.5 -58.5,0 -58.5,0 -0.29313,8.41641 c -0.16122,4.62903 -0.0615,9.02016 0.22171,9.75807 0.42406,1.10509 10.79085,1.29615 58.79313,1.08359 L 275.5,356.5 l 0,-9.5 z m -44.827,-24.5 c 0.0952,-6.6 0.4266,-15.15 0.73654,-19 0.40833,-5.07224 0.27816,-6.51806 -0.4727,-5.25 -1.41882,2.39614 -10.50907,2.4471 -13.13173,0.0736 -1.12561,-1.01867 -2.20178,-1.31292 -2.74296,-0.75 -1.23873,1.28849 -8.02307,18.06625 -9.27062,22.92637 -0.56472,2.2 -1.42384,4.78139 -1.90915,5.73643 -1.05097,2.0682 -1.16846,7.14416 -0.18804,8.12458 0.38188,0.38188 6.56938,0.56938 13.75,0.41666 L 230.5,334.5 l 0.173,-12 z M 204,323.46788 c 0,-1.39266 0.72454,-4.20516 1.61008,-6.25 0.88554,-2.04483 3.12837,-7.52151 4.98406,-12.1704 l 3.37398,-8.45251 -2.09122,-2.22601 c -1.15017,-1.2243 -1.85353,-2.82066 -1.56301,-3.54748 0.37674,-0.94253 0.55085,-0.86409 0.60716,0.27353 0.0434,0.87726 0.95094,2.38415 2.0167,3.34865 2.89695,2.62171 19.86166,1.93409 23.28171,-0.94366 1.30729,-1.1 1.1031,-0.7558 -0.45374,0.7649 -2.5431,2.48405 -2.88048,3.60138 -3.32149,11 -0.26997,4.5293 -0.68844,11.0476 -0.92992,14.4851 l -0.43906,6.25 3.49376,0 c 3.9894,0 5.65805,-2.38227 3.01987,-4.31135 -1.54509,-1.1298 -1.51874,-2.23218 0.37457,-15.67463 1.1201,-7.95265 2.03655,-14.56794 2.03655,-14.70064 0,-0.1327 -1.67946,-1.3825 -3.73213,-2.77733 -4.44463,-3.0202 -9.21035,-3.25539 -19.32925,-0.9539 -5.10928,1.16208 -7.26756,2.15773 -8.12896,3.75 -0.64503,1.19232 -2.87823,8.24285 -4.96267,15.66785 -2.69689,9.60664 -4.37491,13.89567 -5.81844,14.87197 C 194.63845,324.1648 195.51489,326 200,326 c 3.61353,0 4,-0.24465 4,-2.53212 z M 310.2,356.8 c -1.73877,-1.73877 -1.63213,-20.19647 0.1251,-21.65485 0.8328,-0.69116 8.35607,-1.20105 20.25,-1.37244 L 349.5,333.5 350,329 c 0.44444,-4 0.77778,-4.5 3,-4.5 2.22222,0 2.55556,0.5 3,4.5 l 0.5,4.5 13.5,0 13.5,0 0.32587,-3.41779 c 0.22051,-2.31273 -0.17737,-3.69942 -1.23061,-4.28884 -1.21666,-0.68087 -1.45715,-2.11794 -1.10152,-6.58221 0.25022,-3.14114 0.69457,-10.33605 0.98743,-15.98868 l 0.53248,-10.27753 -2.33625,1.53077 c -1.28494,0.84192 -4.77551,2.24637 -7.75682,3.12098 -2.98132,0.87462 -7.72536,2.89816 -10.54231,4.49676 -2.81695,1.5986 -5.96695,2.88679 -7,2.86265 -1.03305,-0.0241 -0.18651,-0.64758 1.88121,-1.38542 2.06771,-0.73784 4.54271,-1.94075 5.5,-2.67314 0.95728,-0.73239 1.92979,-1.46072 2.16113,-1.61853 0.23134,-0.1578 -0.55366,-1.32397 -1.74443,-2.59149 -1.19078,-1.26752 -2.55196,-4.37564 -3.02486,-6.90693 -0.47289,-2.5313 -2.27102,-7.10289 -3.99583,-10.15909 -1.72482,-3.0562 -6.98905,-15.5838 -11.69831,-27.83912 -4.70925,-12.25531 -9.33975,-24.30385 -10.28999,-26.77452 -0.95024,-2.47068 -2.46304,-4.63375 -3.36177,-4.80683 -1.32101,-0.2544 -1.76543,0.912 -2.31976,6.08828 -0.64401,6.01367 -0.25536,7.83428 6.3924,29.94466 7.62495,25.3605 9.13493,33.17331 6.95428,35.98221 C 340.53946,293.88155 329,299.49521 329,298.4588 c 0,-0.28378 2.68648,-1.68107 5.96996,-3.10507 3.60149,-1.56192 6.21942,-3.37506 6.59874,-4.57018 1.08304,-3.41237 -0.51106,-10.54692 -7.75035,-34.68741 -6.58803,-21.96876 -6.97629,-23.79695 -6.33186,-29.81458 1.08481,-10.12976 5.61445,-9.33134 8.89474,1.56783 C 340.95208,243.03666 357.82094,283 359.66076,283 c 0.91771,0 4.88448,-2.34606 8.14549,-4.81748 l 3.30625,-2.50571 -4.94047,-5.0884 c -3.3189,-3.41829 -5.48572,-6.77706 -6.60169,-10.23326 -1.62612,-5.03612 -1.36692,-9.7448 0.60345,-10.96256 1.60364,-0.9911 4.82621,2.75639 4.82621,5.61236 0,2.67496 4.02944,9.1463 7.44944,11.96391 0.9806,0.80787 3.27296,1.98111 5.09416,2.60721 3.13692,1.07842 3.34497,1.00108 3.95155,-1.46886 C 382.822,262.70442 384.72981,261 389.45047,261 c 3.56704,0 4.79839,0.50092 6.47695,2.63486 3.87493,4.92617 1.8193,12.98477 -3.91848,15.36144 -5.15776,2.13641 -7.73585,9.54266 -8.52966,24.5037 -0.29182,5.5 -0.7281,12.50096 -0.9695,15.55769 l -0.43892,5.55769 4.96457,0 c 3.59089,0 4.96457,-0.38773 4.96457,-1.40131 0,-0.77072 -0.9,-1.63666 -2,-1.92432 -1.71601,-0.44875 -2,-1.36402 -2,-6.4458 0,-3.25753 0.50385,-10.29254 1.11966,-15.63336 1.37682,-11.9409 1.44323,-14.1707 0.49763,-16.71059 -0.40953,-1.1 -0.0556,-0.81778 0.78663,0.62715 1.23756,2.12331 1.34702,3.75344 0.57075,8.5 -0.52826,3.23007 -1.25764,10.73217 -1.62086,16.67133 -0.62996,10.30106 -0.56119,10.86796 1.4929,12.30671 2.49743,1.74926 2.81595,4.20329 0.65329,5.03318 -1.53507,0.58907 -1.97806,3.95226 -0.89301,6.77984 0.44967,1.17182 2.00477,1.58179 6,1.58179 2.96615,0 5.39301,0.44541 5.39301,0.98981 0,0.63466 -16.23582,1.08317 -45.25,1.25 L 311.5,336.5 l 0,9.5 0,9.5 45.25,0.26019 c 29.01418,0.16683 45.25,0.61534 45.25,1.25 0,1.54227 -90.25419,1.33562 -91.8,-0.21019 z m 70.73268,-63.4193 c 1.91878,-1.13346 3.22197,-3.21955 4.39886,-7.04156 1.51135,-4.90812 1.52528,-5.71534 0.14472,-8.38505 -1.53703,-2.97229 -4.73592,-3.961 -6.03176,-1.86428 -0.40583,0.65663 -2.01939,0.83732 -4.05954,0.45459 -2.82534,-0.53004 -4.11329,-0.0896 -7.77837,2.66019 -2.41581,1.81248 -5.09484,3.74541 -5.95341,4.29541 -1.29628,0.83041 -1.3983,1.83804 -0.60153,5.94148 0.52772,2.71781 1.88337,5.9249 3.01257,7.12688 l 2.05309,2.18541 6.04442,-1.88124 c 3.32443,-1.03468 7.27135,-2.606 8.77095,-3.49183 z m -0.84287,-18.98891 c 1.13401,-1.3664 1.0485,-1.81748 -0.56869,-3 C 378.47426,270.6263 376.89508,270 376.01182,270 c -1.64497,0 -7.41323,-5.55116 -10.36252,-9.97251 C 364.74219,258.66762 364,256.39512 364,254.97749 364,252.539 362.42299,250 360.90841,250 c -1.69438,0 -1.87521,5.59383 -0.33475,10.35515 3.32647,10.28155 15.41614,18.97684 19.51615,14.03664 z M 411.2,356.8 c -0.76667,-0.76667 -1.2,-4.66667 -1.2,-10.8 0,-6.13333 0.43333,-10.03333 1.2,-10.8 0.81218,-0.81218 5.46808,-1.2 14.40638,-1.2 12.5148,0 13.18018,-0.1002 12.70602,-1.9134 -0.35592,-1.36104 1.69291,-4.37857 7.09734,-10.45297 l 7.5977,-8.53957 2.12028,-13.48636 C 457.4885,284.59161 459.44562,280 463.4853,280 c 2.95588,0 2.94227,0.0485 1.02086,-3.63569 -2.04129,-3.914 -1.8841,-6.61412 0.56642,-9.72945 2.84028,-3.61083 8.95398,-3.69921 12.47287,-0.18031 2.65196,2.65196 3.31432,8.07043 1.41937,11.61119 -0.78113,1.45955 -0.71031,1.93426 0.28855,1.93426 0.72806,0 2.91399,0.81075 4.85763,1.80167 l 3.53388,1.80168 7.76474,-10.85563 c 4.27061,-5.9706 9.06501,-13.72331 10.65422,-17.22823 1.58921,-3.50493 3.36969,-6.66939 3.95662,-7.03213 1.99993,-1.23603 3.70521,1.52142 4.35383,7.04017 0.7862,6.68932 0.29393,7.76157 -13.26411,28.89165 -5.3221,8.29445 -9.57772,15.75582 -9.45692,16.58082 0.1208,0.825 0.50545,3.66849 0.85479,6.31887 0.43844,3.32642 1.38725,5.47281 3.06355,6.93033 2.76551,2.40459 3.04924,3.99066 1.01578,5.67828 -1.09025,0.90482 -2.23277,0.8297 -5.00636,-0.32918 -3.86792,-1.61612 -5.28285,-4.14379 -6.24369,-11.15386 l -0.57493,-4.1946 -3.42414,2.12508 c -1.88328,1.16879 -7.56732,5.12326 -12.6312,8.7877 -9.5809,6.93315 -12.12284,10.36349 -11.5266,15.55511 L 457.5,333.5 l 13.5,0 13.5,0 0.5,-4.5 c 0.44444,-4 0.77778,-4.5 3,-4.5 1.92535,0 2.56435,0.57465 2.77995,2.5 0.78967,7.05176 0.73245,7 7.7391,7 3.61038,0 6.48095,0.4385 6.48095,0.99001 0,0.63534 -16.56945,1.08316 -46.25,1.25 L 412.5,336.5 l 0,9.5 0,9.5 46.25,0.25999 c 29.68055,0.16684 46.25,0.61466 46.25,1.25 0,1.54286 -92.25367,1.33634 -93.8,-0.20999 z m 36.10253,-25.55 c 3.77614,-2.86498 4.77442,-5.25 2.19747,-5.25 -2.10348,0 -1.87318,-3.62018 0.33037,-5.1933 1.00671,-0.71868 2.10218,-2.4317 2.43438,-3.8067 0.47191,-1.95328 -0.60111,-1.18786 -4.90659,3.5 -7.10558,7.73664 -8.70972,10.14146 -7.9995,11.99228 0.87808,2.28822 3.91691,1.813 7.94387,-1.24228 z m 3.35239,1.20687 c 1.00042,-2.60704 -0.59213,-2.96411 -2.90492,-0.65131 L 445.55556,334 l 2.2536,0 c 1.23949,0 2.52008,-0.69441 2.84576,-1.54313 z M 458.45751,319.5 c 0.35708,-2.75 1.34192,-8.15 2.18853,-12 0.84661,-3.85 1.92487,-10.15 2.39614,-14 0.47127,-3.85 0.99207,-8.11096 1.15734,-9.46879 0.44343,-3.64325 -2.71039,-3.88239 -4.52884,-0.3434 -0.79475,1.54671 -2.62348,10.23719 -4.06384,19.31219 -2.15236,13.5609 -2.97403,16.74439 -4.61284,17.87197 -3.38284,2.32757 -2.41118,3.82889 2.41013,3.72392 l 4.40414,-0.0959 0.64924,-5 z m 11.15805,-6.11481 c 4.46356,-3.23686 9.52606,-6.65176 11.25,-7.58868 2.44205,-1.32719 3.13444,-2.369 3.13444,-4.71627 l 0,-3.01279 -3.73444,2.20337 c -2.80335,1.65402 -5.48361,2.23593 -10.75,2.33394 l -7.01556,0.13055 -1.08258,5.38235 c -2.19392,10.90761 -2.39711,13.10707 -1.11773,12.09873 0.66017,-0.52031 4.85231,-3.59435 9.31587,-6.8312 z m 27.03305,5.08812 c 0.34969,-0.91126 -0.46919,-2.50445 -2.03138,-3.95225 C 493.17775,313.187 492,311.86448 492,311.58213 c 0,-2.54587 -3.30018,-23.24148 -3.99944,-25.08065 -1.13852,-2.99454 -4.7865,-5.11554 -6.2615,-3.64054 -0.7283,0.7283 -0.55069,2.35182 0.5845,5.34264 0.89689,2.36303 2.08951,7.67142 2.65026,11.79642 1.92004,14.12421 2.92909,17.05065 6.39999,18.56119 4.03842,1.75753 4.57005,1.74867 5.2748,-0.0879 z m -16.40424,-19.18934 c 3.61746,-2.11861 3.85448,-4.4098 1.13059,-10.92899 -0.80473,-1.92598 -1.18798,-4.36876 -0.85166,-5.42838 0.49277,-1.5526 0.12454,-1.9266 -1.8969,-1.9266 -1.3796,0 -2.81926,0.50303 -3.19924,1.11785 -0.42914,0.69438 -2.27564,0.90063 -4.8742,0.54446 -4.01309,-0.55005 -4.23155,-0.44005 -5.36815,2.70315 -1.28059,3.54142 -1.59038,12.41408 -0.52991,15.1776 0.54841,1.42913 1.60437,1.62053 6.49437,1.17712 3.21171,-0.29123 7.30451,-1.38752 9.0951,-2.43621 z m 20.54371,-15.90652 c 13.04465,-20.37595 13.45694,-21.30208 12.50308,-28.08578 -0.43514,-3.09465 -1.32684,-5.80483 -1.98156,-6.02262 -0.67637,-0.22499 -2.68166,2.76203 -4.64394,6.91748 -1.89945,4.02241 -6.808,11.93501 -10.9079,17.58355 l -7.45437,10.27009 1.34831,5.19784 c 0.74156,2.85882 1.3483,6.07478 1.3483,7.14659 0,2.46327 -0.77755,3.49654 9.78808,-13.00715 z m 16.29823,73.22655 c -0.75823,-0.91361 -1.0597,-4.9738 -0.87244,-11.75 L 516.5,334.5 l 20,-0.5 20,-0.5 0.32628,-3.42322 c 0.17945,-1.88276 -0.25438,-4.50817 -0.96406,-5.83423 -1.14818,-2.14538 -1.04199,-2.59835 0.96384,-4.11135 1.47259,-1.11077 2.73433,-3.76586 3.63898,-7.65752 0.76163,-3.27645 1.23781,-6.10417 1.05816,-6.28381 -0.44078,-0.44078 -19.36084,12.53254 -22.60435,15.49961 -1.41963,1.29864 -6.14316,3.46017 -10.49673,4.80339 -6.83097,2.10759 -8.1098,2.24802 -9.33295,1.02487 -1.95807,-1.95806 -0.93204,-3.0218 11.26931,-11.68357 5.57783,-3.95972 13.67023,-10.49594 17.9831,-14.52492 10.89113,-10.17426 15.88563,-14.14389 19.28764,-15.32984 2.69813,-0.94057 2.88986,-1.33358 2.5237,-5.1731 C 569.66763,275.71757 571.52166,274 577.5,274 c 5.98363,0 7.83248,1.71642 7.34581,6.81963 -0.39685,4.16133 -0.38972,4.17109 4.12833,5.64955 4.87926,1.59665 38.63885,9.80803 46.02586,11.19491 3.48883,0.65501 4.5,1.27894 4.5,2.77667 0,1.5539 -1.36934,2.28343 -7,3.72927 -5.03059,1.29177 -7.70336,1.52745 -9.5,0.83771 -1.375,-0.52788 -7.225,-1.6604 -13,-2.51673 -5.775,-0.85632 -11.5125,-1.77569 -12.75,-2.04303 -2.20244,-0.47581 -2.25,-0.29618 -2.25,8.49778 0,7.96042 0.22784,9.10581 2,10.05424 2.17307,1.16299 2.63387,3.96613 0.93178,5.66822 -0.58752,0.58752 -0.92502,2.81502 -0.75,4.95 L 597.5,333.5 l 20,0.5 20,0.5 0.28613,10.354 c 0.18726,6.7762 -0.11421,10.83639 -0.87244,11.75 C 635.94626,357.76968 626.06138,358 577,358 c -49.06138,0 -58.94626,-0.23032 -59.91369,-1.396 z M 636,346 l 0,-10 -59,0 -59,0 0,10 0,10 59,0 59,0 0,-10 z m -45.19216,-16.20766 c 0.16931,-2.03922 -0.14691,-4.55739 -0.70273,-5.59594 -0.55581,-1.03855 -1.50507,-5.8951 -2.10946,-10.79233 -1.71935,-13.93153 -1.35051,-13.27043 -6.81825,-12.22096 -2.57257,0.49378 -6.0274,0.65996 -7.6774,0.36931 l -3,-0.52847 -3.77925,12.73802 c -3.61691,12.19083 -4.52885,18.09659 -3.02641,19.59904 0.38188,0.38188 6.56938,0.56938 13.75,0.41666 L 590.5,333.5 l 0.30784,-3.70766 z m -62.5973,-4.21775 c 4.34681,-1.35041 9.3637,-3.74123 11.5,-5.48038 5.74849,-4.67981 25.24575,-18.03126 29.50245,-20.20287 4.93018,-2.51519 13.91998,-3.37481 20.78701,-1.98769 3.025,0.61104 11.125,2.01023 18,3.10932 6.875,1.09909 13.51774,2.43854 14.76165,2.97656 C 625.5545,305.1975 639,302.23306 639,300.40932 c 0,-0.70558 -2.79432,-1.68261 -6.75,-2.36012 -3.7125,-0.63586 -15.525,-3.48131 -26.25,-6.32321 -16.92424,-4.48457 -20.77146,-5.17098 -29.12571,-5.19654 -11.32185,-0.0346 -11.4904,0.0549 -26.84785,14.26381 -5.23954,4.84768 -14.13834,12.09434 -19.7751,16.10368 -10.88539,7.7426 -11.72346,8.53014 -10.75134,10.10306 0.75226,1.21718 -0.40555,1.40665 8.71054,-1.42541 z m 69.63052,-3.01181 c 0.18758,-0.96081 -0.59992,-2.40601 -1.75,-3.21156 C 594.22361,318.04322 594,316.88846 594,308.5527 l 0,-9.33389 -3.59752,-0.41999 -3.59752,-0.41999 0.65155,4.06059 c 0.35835,2.23332 1.07901,7.42423 1.60147,11.53535 0.52246,4.11112 1.16773,8.16112 1.43394,9 0.707,2.22788 6.90155,1.88062 7.34914,-0.41199 z m -32.01069,-8.96486 c 3.92158,-12.86985 3.92594,-13.04038 0.28491,-11.15753 -2.47841,1.28163 -3.07326,2.44724 -4.22337,8.27568 -0.86913,4.40456 -2.13714,7.58903 -3.61528,9.07938 -3.12314,3.14897 -2.85859,4.20455 1.05374,4.20455 l 3.33038,0 3.16962,-10.40208 z M 585.45,298.91472 c 0.58131,-0.55972 -0.38894,-0.91045 -2.5,-0.90371 -5.59845,0.0179 -10.95622,1.1699 -10.30925,2.21673 0.71002,1.14883 11.38937,0.0541 12.80925,-1.31302 z M 22,336.04772 c 0,-0.52376 2.8125,-1.08626 6.25,-1.25 L 34.5,334.5 l 0,-5.70413 c 0,-4.37711 0.426716,-6.01681 1.834225,-7.04817 1.696177,-1.24289 1.744738,-1.95605 0.645223,-9.47568 l -1.189002,-8.13163 -4.00099,-0.67596 C 26.565809,302.5819 24,299.94348 24,295.45455 24,291.6029 27.574636,287 30.565836,287 c 1.356483,0 1.535962,-0.64383 0.990304,-3.55244 -0.375674,-2.00252 -0.01064,-6.91086 0.836665,-11.25 1.783327,-9.13261 2.895159,-18.37034 5.68059,-47.19756 1.851281,-19.15945 2.3686,-22.04431 4.752021,-26.5 1.841079,-3.44181 3.297862,-5 4.674584,-5 1.951677,0 1.991958,0.55572 1.667145,23 -0.18307,12.65 -0.689189,29.06998 -1.124709,36.48885 -0.467239,7.9592 -0.3964,16.44828 0.172802,20.70798 0.627855,4.69862 0.619782,8.83614 -0.02312,11.85051 -0.937042,4.3935 -0.785822,4.98168 2.944069,11.45109 l 3.931848,6.8197 -1.71162,6.81399 c -1.790127,7.12653 -5.288107,11.99181 -7.900883,10.98919 C 44.49312,321.252 44,321.71288 44,322.98169 c 0,1.05541 -0.706746,2.31444 -1.570546,2.79785 -1.110409,0.62142 -1.476633,2.02763 -1.25,4.79969 L 41.5,334.5 l 13.5,0 13.5,0 0.5,-4.5 c 0.444444,-4 0.777778,-4.5 3,-4.5 2.222222,0 2.555556,0.5 3,4.5 0.469377,4.22439 0.699051,4.51919 3.75,4.81336 1.7875,0.17235 3.25,0.73485 3.25,1.25 C 82,336.62473 69.980447,337 52,337 33.668836,337 22,336.6296 22,336.04772 z M 41.418213,325.39301 C 42.695304,324.90295 43,323.08552 43,315.95811 c 0,-10.76426 -1.00123,-14.03205 -4.054671,-13.23356 -2.327532,0.60866 -2.31286,-0.2223 -0.263417,14.91953 0.487759,3.6037 0.284271,4.23188 -1.560506,4.81739 C 34.184551,323.39359 34.403173,326 37.418213,326 c 1.330016,0 3.130016,-0.27314 4,-0.60699 z m 7.419431,-6.23065 c 1.010704,-1.01071 2.599515,-4.87067 3.530691,-8.5777 l 1.693046,-6.74005 -4.967212,-8.67231 c -6.013443,-10.49892 -8.560435,-13.38957 -11.436632,-12.97973 -2.564803,0.36546 -3.599548,4.70075 -1.413914,5.92389 0.783508,0.43848 2.724148,2.72915 4.312535,5.09038 1.588387,2.36124 3.954437,5.61438 5.257889,7.2292 2.095342,2.59587 2.290643,3.57048 1.685713,8.41218 -0.37631,3.01188 -1.103051,6.41566 -1.61498,7.56396 -0.841478,1.88751 -0.887487,1.84796 -0.479543,-0.41218 1.778013,-9.85077 1.790714,-12.052 0.08456,-14.65591 -1.473141,-2.2483 -1.872071,-2.4124 -2.61918,-1.07739 -0.523114,0.93476 -0.472707,2.64969 0.124015,4.21919 0.55295,1.45437 1.011509,4.75251 1.019019,7.32921 0.01601,5.49464 0.860937,9.1849 2.102976,9.1849 0.485853,0 1.710309,-0.82694 2.721013,-1.83764 z M 38.25,301.94742 c 2.969544,-0.82468 3.75,-1.52889 3.75,-3.38364 0,-1.28822 -0.835115,-3.37354 -1.855811,-4.63404 -1.687561,-2.08405 -2.132163,-2.17736 -4.90401,-1.02923 -2.298809,0.9522 -3.206645,2.1072 -3.692693,4.69806 -1.038706,5.53678 -5.44e-4,6.21038 6.702514,4.34885 z m 8.808287,-29.09046 c -0.592683,-4.75367 -0.812968,-9.33268 -0.489522,-10.17556 0.958521,-2.49787 -3.738925,-4.9277 -7.986071,-4.13094 C 35.492134,259.13026 35,259.60469 35,262.00433 c 0,1.52996 -0.713416,6.23146 -1.585369,10.44778 -1.169033,5.65284 -1.327481,8.63531 -0.603353,11.35696 0.607518,2.28337 1.021431,2.87957 1.08537,1.56337 0.26902,-5.5379 6.401911,-5.48357 10.213444,0.0905 L 46.5,288.95798 47.317946,285.229 c 0.469376,-2.13986 0.358721,-7.41224 -0.259659,-12.37202 z M 48.448779,217.75 C 49.096776,196.52634 49.006894,194 47.603801,194 c -0.87246,0 -2.658583,2.148 -4.019794,4.83422 -2.125312,4.1941 -2.789615,8.28158 -5.016846,30.86886 C 37.155222,244.02213 36,256.26713 36,256.91417 c 0,0.78392 1.084397,0.97589 3.25,0.57535 2.125364,-0.3931 3.942084,-0.0887 5.25,0.87979 1.953061,1.44614 2.014359,1.26556 2.611825,-7.69421 0.336503,-5.0463 0.938133,-19.8626 1.336954,-32.9251 z M 93,336.05479 c 0,-0.51986 2.1375,-1.08236 4.75,-1.25 4.72104,-0.30293 4.75192,-0.32808 5.06453,-4.12458 0.17298,-2.10088 -0.21486,-4.45765 -0.86188,-5.23726 C 100.48788,323.67801 101.41312,321 103.48767,321 c 1.68361,0 1.64543,-0.29588 -1.48394,-11.5 -1.39677,-5.00086 -2.077815,-6.05681 -4.089783,-6.34118 C 94.197196,302.63352 92,300.08355 92,296.29535 c 0,-3.94015 2.24554,-8.79186 4.463015,-9.64278 C 97.308357,286.32818 98,285.11906 98,283.96564 c 0,-1.15342 0.438931,-2.91727 0.975402,-3.91968 0.536471,-1.0024 1.678018,-5.81032 2.536768,-10.68426 1.46026,-8.28788 1.42297,-10.65302 -0.57588,-36.52546 l -2.137249,-27.66375 3.350479,-6.33625 c 4.76484,-9.011 6.18908,-8.4714 7.03079,2.66376 0.79169,10.47335 5.5759,43.59083 6.41833,44.42923 0.31544,0.31392 1.47698,-0.55423 2.5812,-1.92923 1.10423,-1.375 8.21498,-9.26192 15.80167,-17.52649 10.84184,-11.81056 14.90249,-15.54568 18.97352,-17.45244 3.94075,-1.84576 5.58197,-2.17211 6.86225,-1.36453 2.58326,1.62948 2.01231,4.07244 -1.53646,6.57412 -1.77054,1.24814 -7.95078,8.34434 -13.73385,15.76934 -5.78307,7.425 -13.85555,17.78681 -17.93883,23.02625 l -7.42414,9.52625 -1.10226,12.89831 -1.10227,12.89831 4.14523,7.07544 C 125.62772,303.11073 129.68672,308 131.56465,308 c 0.65475,0 1.75066,0.675 2.43535,1.5 0.99319,1.19672 0.99319,1.80328 0,3 -2.48764,2.99742 -5.36458,1.59316 -13.67658,-6.67566 l -8.21835,-8.17566 -2.0889,2.42566 c -1.8614,2.16148 -2.0051,3.13358 -1.31948,8.92566 0.42318,3.575 0.77705,10.775 0.78637,16 l 0.0169,9.5 13.5,0 13.5,0 0.5,-4.5 c 0.44444,-4 0.77778,-4.5 3,-4.5 2.22222,0 2.55556,0.5 3,4.5 0.44658,4.01918 0.79383,4.53381 3.25,4.81642 1.5125,0.17403 2.75,0.73653 2.75,1.25 C 149,336.6223 137.6719,337 121,337 c -16.91794,0 -28,-0.3741 -28,-0.94521 z m 16,-13.87865 c 0,-1.55313 -0.73975,-7.51563 -1.64389,-13.25 -0.90413,-5.73438 -1.71603,-12.68906 -1.80422,-15.45485 -0.20433,-6.40869 -1.06029,-7.78236 -4.41098,-7.0789 l -2.64091,0.55445 2.37707,-1.18294 c 2.08772,-1.03894 2.63549,-0.86953 4.5,1.3917 1.16761,1.41604 3.29727,2.85305 4.73258,3.19334 4.54125,1.07667 5.82716,-1.64439 6.9642,-14.73666 0.5571,-6.41459 0.75212,-12.08484 0.43339,-12.60056 C 116.43297,261.27351 104,258.84099 104,260.36901 c 0,2.06434 -3.25899,18.24652 -3.9257,19.49269 -0.482081,0.90107 -1.155093,3.8883 -1.495585,6.6383 -0.500069,4.03882 0.148576,7.76607 3.374225,19.38899 2.19631,7.91394 3.75384,14.77644 3.46116,15.25 C 105.12143,321.61254 104.23352,322 103.44098,322 102.64844,322 102,322.675 102,323.5 c 0,1.04762 1.05556,1.5 3.5,1.5 3.17371,0 3.5,-0.26326 3.5,-2.82386 z m 24.75416,-10.91999 c 0.22462,-0.68411 -0.64067,-1.65133 -1.92288,-2.14936 -3.2133,-1.2481 -6.83666,-5.43392 -11.34558,-13.10679 -2.10084,-3.575 -3.96679,-6.68474 -4.14657,-6.91054 C 115.57391,288.12838 112,292.48929 112,294.3841 c 0,1.26 3.23826,5.33455 8.25,10.38059 6.42667,6.47066 8.78548,8.24335 10.67288,8.02089 1.33259,-0.15707 2.60666,-0.84531 2.83128,-1.52943 z M 111,294.38922 c 0,-3.41406 -1.18559,-4.19182 -3.83229,-2.51403 -0.9842,0.6239 -1.14325,2.1051 -0.60876,5.66937 l 0.72353,4.82482 1.85876,-2.29548 C 110.16356,298.81139 111,296.25328 111,294.38922 z m 15.08868,-41.94249 c 22.97031,-29.60895 29.96553,-38.13778 32.30848,-39.39169 1.43156,-0.76615 2.60284,-2.00608 2.60284,-2.7554 0,-2.50516 -3.10412,-2.59275 -8.14882,-0.22994 -3.84387,1.80038 -8.07157,5.70149 -18.29942,16.88579 -7.31539,7.99948 -14.45089,15.89451 -15.85667,17.54451 -1.77441,2.08267 -2.8788,2.68315 -3.61175,1.96377 C 113.79387,245.1982 108,205.86885 108,198.38142 108,195.42164 107.55648,193 107.0144,193 c -0.54209,0 -2.3857,2.77357 -4.09693,6.16349 l -3.111321,6.16349 1.624341,21.58651 c 2.54094,33.76748 2.22867,32.07622 5.93473,32.14295 1.72413,0.031 4.70978,0.65236 6.63478,1.38069 1.925,0.72834 3.7649,1.37794 4.08868,1.44356 0.32377,0.0656 3.92377,-4.17966 8,-9.43396 z m 163.84175,67.96945 c -2.18636,-2.63441 -0.0461,-4.58272 11.09832,-10.10304 11.55629,-5.72432 25.96421,-11.8765 24.44289,-10.43711 -0.5344,0.50563 -4.34664,2.32892 -8.47164,4.05176 -15.93905,6.65706 -26.5,12.46447 -26.5,14.57221 0,3.62884 5.30328,2.79063 31.37023,-4.95824 13.95362,-4.14797 26.10362,-7.48956 27,-7.42576 1.1494,0.0818 1.04028,0.26334 -0.37023,0.61588 -1.1,0.27493 -13.1916,3.82273 -26.87023,7.884 C 307.95115,318.67715 295.51875,322 294.00222,322 c -1.51653,0 -3.34884,-0.71272 -4.07179,-1.58382 z M 15.086313,177.604 c -0.758232,-0.91361 -1.059703,-4.9738 -0.872444,-11.75 L 14.5,155.5 l 20,-0.5 20,-0.5 0.326277,-3.42322 c 0.179453,-1.88276 -0.230663,-4.46386 -0.911368,-5.73577 -1.085262,-2.02783 -0.937857,-2.59135 1.197206,-4.57679 1.899463,-1.76635 2.83989,-4.41935 4.276893,-12.06536 1.013123,-5.39063 1.654001,-9.98918 1.424173,-10.21901 -0.541702,-0.5417 -25.51648,16.02768 -28.894331,19.16978 -1.419632,1.32056 -6.143162,3.50002 -10.496733,4.84324 -6.830963,2.10759 -8.109797,2.24802 -9.332948,1.02487 -1.998683,-1.99868 -1.095076,-2.88035 14.262748,-13.91648 C 33.583363,124.40475 44.9,115.3865 51.5,109.56072 68.457576,94.592372 74.708166,92.285187 83.966301,97.576928 c 4.449142,2.543032 38.259209,11.486132 48.782579,12.903492 9.24478,1.24514 7.93299,4.23539 -3.02941,6.90565 -4.38859,1.06898 -7.3871,1.33198 -8.5,0.74553 -0.94571,-0.49835 -6.66947,-1.64933 -12.71947,-2.55773 -6.05,-0.9084 -12.125,-1.87084 -13.5,-2.13875 l -2.5,-0.48711 0.300976,12.77599 c 0.266938,11.33113 0.521396,12.93116 2.25,14.14797 2.143312,1.50874 2.542355,4.1347 0.880803,5.79625 -0.587522,0.58752 -0.925022,2.81502 -0.75,4.95 L 95.5,154.5 l 20,0.5 20,0.5 0.28613,10.354 c 0.18726,6.7762 -0.11421,10.83639 -0.87244,11.75 -1.72862,2.08286 -118.098757,2.08286 -119.827377,0 z M 134,167 l 0,-10 -59,0 -59,0 0,10 0,10 59,0 59,0 0,-10 z M 88.807841,150.79234 c 0.169313,-2.03922 -0.151629,-4.5662 -0.713204,-5.61551 -0.561576,-1.04931 -1.494101,-6.13086 -2.07228,-11.29234 -0.578178,-5.16147 -1.2842,-11.20958 -1.568938,-13.44024 l -0.517705,-4.05575 -6.84726,0.0558 -6.847259,0.0558 -4.648473,15.5 c -4.404485,14.68644 -5.468692,20.7907 -3.898384,22.36101 0.381887,0.38188 6.569387,0.56938 13.75,0.41666 L 88.5,154.5 l 0.307841,-3.70766 z m 7.033215,-7.22956 c 0.18758,-0.96081 -0.59992,-2.40601 -1.75,-3.21156 C 92.177282,139.01077 92,137.91869 92,127.47005 c 0,-9.72248 -0.326342,-12.08826 -2.199266,-15.9433 -1.209596,-2.48971 -2.447096,-4.52324 -2.75,-4.51895 -1.169561,0.0166 -2.851184,4.99749 -1.888158,5.59268 0.535574,0.331 0.718696,1.26654 0.406936,2.07897 -0.577808,1.50574 1.933869,26.8626 2.913824,29.41678 0.807616,2.10498 6.929264,1.66115 7.35772,-0.53345 z M 65.471407,129.09507 c 3.578635,-11.89881 4.615361,-16.74748 4.115966,-19.25 C 69.22023,108.00528 68.584912,104.7 68.175555,102.5 c -0.670515,-3.603539 -0.854836,-3.80177 -1.859667,-2 -0.613461,1.1 -2.605451,10.1 -4.426647,20 -2.713726,14.75179 -3.724325,18.41423 -5.600252,20.29545 C 53.149716,143.94359 53.414779,145 57.343954,145 l 3.343953,0 4.7835,-15.90493 z m -44.175446,12.45316 c 4.412117,-1.37059 9.195687,-3.64284 11.020759,-5.23499 C 34.090358,134.76596 41.4298,129.675 48.626591,125 l 13.085074,-8.5 1.173573,-6.87069 c 0.645465,-3.77887 1.626173,-7.71637 2.179351,-8.75 C 66.959258,97.339093 64.485417,99.088458 52,110.11788 45.125,116.19114 33.536494,125.44374 26.247764,130.6792 12.292122,140.70347 11.512493,141.40218 12.5,143 c 0.752397,1.2174 -0.418677,1.41069 8.795961,-1.45177 z M 130.4322,116.18055 c 3.81271,-0.97557 7.09761,-2.26998 7.29977,-2.87647 0.21928,-0.65782 -1.77066,-1.39076 -4.9322,-1.81666 -4.98152,-0.67108 -42.399232,-9.61472 -45.922192,-10.9764 -1.315827,-0.50858 -1.524807,-0.11645 -1.105871,2.07508 0.284103,1.48619 1.239193,3.46429 2.122422,4.39578 0.883229,0.93149 2.055871,2.43419 2.605871,3.33933 0.735244,1.21001 4.706579,2.20733 15,3.76696 7.7,1.16668 14.675,2.51044 15.5,2.98612 1.93048,1.11311 1.38836,1.16447 9.4322,-0.89374 z m -45.633302,-1.64612 c 0.220755,-0.22075 0.129366,-0.84148 -0.203086,-1.3794 -0.38849,-0.62859 -1.647928,-0.58417 -3.524947,0.12432 -2.122707,0.80124 -3.897112,0.80263 -6.495677,0.005 C 71.723518,112.40926 71,112.45495 71,113.51027 c 0,0.72768 0.5625,1.57526 1.25,1.88351 1.288612,0.57775 11.833938,-0.14438 12.548898,-0.85935 z M 82.777494,111.4433 C 83.999872,110.58711 85,108.94236 85,107.78831 c 0,-1.96944 -0.112291,-1.99666 -1.828741,-0.4433 -2.092651,1.89383 -6.364988,2.15686 -9.322647,0.57397 -2.474655,-1.3244 -3.233937,-0.70839 -2.392931,1.94138 1.026219,3.23333 7.64447,4.15865 11.321813,1.58294 z M 147,178 c 0,-0.65263 16.5,-1 47.5,-1 l 47.5,0 0,-10 c 0,-8.88496 -0.19657,-10 -1.76287,-10 -0.96958,0 -2.20708,1.00987 -2.75,2.24416 -1.40829,3.20163 -4.06594,3.31447 -7.96789,0.33831 -3.31884,-2.5314 -3.70846,-2.58271 -19.70252,-2.59452 l -16.31672,-0.012 4.43416,-2.53458 c 3.85879,-2.2057 4.54646,-2.33389 5.29969,-0.98795 0.69024,1.2334 2.83003,1.54022 10.56584,1.51502 l 9.70031,-0.0316 -2.55104,-2.2184 c -1.40308,-1.22012 -4.10308,-3.4862 -6,-5.03574 -3.35517,-2.74072 -3.36183,-2.76015 -0.24503,-0.7147 1.76216,1.15644 6.48716,4.79647 10.5,8.08895 8.17372,6.70642 11.44222,7.44333 11.08128,2.49836 -0.15935,-2.18319 -2.35318,-5.15108 -8.4999,-11.49899 l -8.28512,-8.55628 8.9999,8.68329 c 6.56881,6.33772 9.81028,8.76884 11.99991,9 l 3,0.31671 0.28613,10.354 c 0.18726,6.7762 -0.11421,10.83639 -0.87244,11.75 C 241.95204,178.76272 233.70227,179 194.37756,179 163.45919,179 147,178.6526 147,178 z m 109,0 c 0,-0.64789 12.5,-1 35.5,-1 23,0 35.5,0.35211 35.5,1 0,0.64789 -12.5,1 -35.5,1 -23,0 -35.5,-0.35211 -35.5,-1 z m 84.2,-0.2 c -0.76667,-0.76667 -1.2,-4.66667 -1.2,-10.8 0,-6.13333 0.43333,-10.03333 1.2,-10.8 0.79774,-0.79774 5.15556,-1.2 13,-1.2 11.45921,0 11.8,-0.063 11.8,-2.18067 0,-2.02106 8.38795,-15.4049 11.79449,-18.81933 0.82309,-0.825 -1.26895,2.5907 -4.64898,7.59044 C 365.4228,151.53467 364.46282,155 368.43074,155 c 1.8068,0 4.02315,-1.92514 8.63452,-7.5 3.41208,-4.125 6.43799,-7.5 6.72425,-7.5 0.28626,0 -0.22428,0.82293 -1.13452,1.82874 -2.18868,2.41846 -2.09072,2.97028 0.59501,3.35171 1.86061,0.26425 2.33653,1.09834 2.75,4.81955 l 0.5,4.5 13.5,0 13.5,0 0.30784,-3.70766 c 0.16931,-2.03922 -0.14126,-4.54683 -0.69017,-5.57248 -0.72305,-1.35103 -0.33124,-4.46222 1.42211,-11.29233 1.33107,-5.18514 2.42915,-9.9408 2.44018,-10.56812 0.011,-0.62733 -1.44246,-1.34626 -3.22996,-1.59762 -1.7875,-0.25136 -3.99155,-0.78111 -4.89788,-1.17721 -2.06489,-0.90243 -5.0809,2.19084 -7.98466,8.1892 -2.49432,5.15259 -4.59178,6.31358 -6.5737,3.6387 -1.37076,-1.85004 -1.48119,-1.82522 -3.38235,0.76002 -1.08092,1.46987 -2.8993,3.71987 -4.04085,5 -1.14154,1.28012 -0.44344,0.0775 1.55134,-2.6725 4.1367,-5.70284 7.93005,-12.5 6.97598,-12.5 -0.35352,0 -0.0735,-0.68587 0.62218,-1.52417 1.69953,-2.04781 0.76495,-2.75613 -2.14083,-1.62255 -8.09946,3.1597 -10.8798,4.57708 -10.8842,5.54859 -0.003,0.60397 -1.16492,2.44813 -2.58264,4.09813 l -2.57768,3 2.08265,-3.15437 c 2.79611,-4.23499 2.63454,-4.68239 -1.01029,-2.79757 -1.70111,0.87968 -3.26596,1.42638 -3.47744,1.2149 -0.38463,-0.38463 11.31217,-6.02664 19.32037,-9.31928 2.3375,-0.96109 4.25,-2.12263 4.25,-2.5812 C 399,113.39183 396.44174,106 395.58667,106 c -0.54919,0 -6.24628,2.925 -12.6602,6.5 -6.41392,3.575 -12.05876,6.49861 -12.54407,6.4969 -0.48532,-0.002 4.2926,-2.92503 10.6176,-6.49629 19.76955,-11.1624 31.12489,-13.574544 39.80207,-8.45489 3.0532,1.80144 3.63752,1.86643 5.07599,0.56463 2.6133,-2.365 7.24585,-3.74205 10.31843,-3.06719 3.28577,0.72167 7.28796,7.35512 6.30539,10.45091 -0.68809,2.168 -9.05445,8.00593 -11.47332,8.00593 -0.89571,0 -2.16856,-0.54 -2.82856,-1.2 -0.93333,-0.93333 -1.2,-0.75097 -1.2,0.82062 0,1.11135 -1.79419,6.21848 -3.9871,11.34919 -3.63723,8.51 -3.84109,9.43534 -2.32314,10.54529 1.43186,1.047 1.48909,1.63889 0.41031,4.24332 -0.68951,1.66462 -1.1066,4.31246 -0.92687,5.88409 L 420.5,154.5 l 9.25,0.28753 c 5.0875,0.15814 9.25,0.71635 9.25,1.24048 0,0.58737 -18.70242,1.05252 -48.75,1.21248 L 341.5,157.5 l 0,9.5 0,9.5 48.75,0.25951 c 31.34653,0.16687 48.75,0.61311 48.75,1.25 0,1.54425 -97.25248,1.33801 -98.8,-0.20951 z m 39.84597,-28.05 c 0.30028,-2.6125 0.45468,-4.75 0.34312,-4.75 -0.11157,0 -2.1128,2.28122 -4.44718,5.06938 l -4.24432,5.06938 3.9012,-0.31938 c 3.85327,-0.31546 3.90792,-0.37775 4.44718,-5.06938 z m 40.61084,-5.29804 c 0.3309,-0.86232 -0.13809,-2.0834 -1.05875,-2.7566 -1.50265,-1.09876 -1.28695,-2.06452 2.37457,-10.63133 C 424.18769,125.8815 426,121.30538 426,120.89489 c 0,-0.4105 -1.77146,0.008 -3.93658,0.92937 -3.89122,1.65643 -3.96515,1.78961 -6.41714,11.55989 -1.3643,5.43628 -2.2447,10.49878 -1.95643,11.25 0.72624,1.89254 6.226,1.74872 6.96696,-0.18219 z M 398.6728,131.25 c 2.1204,-6.08284 6.18492,-10.55327 13.58707,-14.94397 6.09784,-3.61703 7.95262,-5.26719 8.65981,-7.70446 0.49497,-1.70586 0.94053,-2.28449 0.99013,-1.28583 0.15977,3.21651 -1.74036,5.39771 -7.56647,8.68577 -6.23281,3.51757 -6.03976,4.24528 1.42714,5.37981 2.97112,0.45144 5.17703,0.18006 7.25,-0.89191 3.38811,-1.75206 3.56289,-2.33587 1.51132,-5.04828 -0.8075,-1.06762 -1.4825,-3.61707 -1.5,-5.66545 -0.0269,-3.14787 -0.51722,-3.97534 -3.16798,-5.3461 -4.05774,-2.09834 -7.34488,-0.53201 -8.92381,4.2522 -0.85789,2.59943 -2.29611,3.96805 -6.27646,5.97269 -2.83995,1.4303 -5.31448,2.99597 -5.49896,3.47927 -0.18448,0.48329 -0.8165,0.58139 -1.40451,0.21798 -0.62805,-0.38816 -0.77768,-0.18921 -0.3627,0.48224 0.38853,0.62864 -0.22403,3.24639 -1.36123,5.81723 -2.16147,4.88636 -1.92814,8.34881 0.56262,8.34881 0.8052,0 1.73851,-0.7875 2.07403,-1.75 z m 36.37686,-13.77568 c 3.65645,-1.89083 3.66287,-2.41749 0.0714,-5.85836 -2.69868,-2.5855 -3.13703,-2.68874 -7,-1.64855 -4.79485,1.29112 -5.13299,2.7479 -1.48467,6.39623 3.04304,3.04304 4.34433,3.21483 8.4133,1.11068 z m -24.96304,-9.23678 c 0.61308,-1.85766 1.7444,-3.6192 2.51404,-3.91454 0.76964,-0.29534 1.39934,-0.93883 1.39934,-1.42999 0,-1.40719 -6.01414,-0.9315 -11.60711,0.91808 l -5.10711,1.68891 1.46675,5.18374 1.46675,5.18373 4.37632,-2.12618 c 3.25053,-1.57923 4.66307,-2.99505 5.49102,-5.50375 z M 453.2,177.8 c -1.73877,-1.73877 -1.63213,-20.19647 0.1251,-21.65485 0.8328,-0.69116 8.35607,-1.20105 20.25,-1.37244 L 492.5,154.5 l 0.31453,-3.81979 c 0.17298,-2.10088 -0.24542,-4.49447 -0.92978,-5.31908 -1.02754,-1.23811 -0.78866,-1.87923 1.37127,-3.68021 2.08716,-1.74031 3.55623,-5.41339 7.27158,-18.18092 3.91043,-13.43796 8.08492,-35.182216 6.97347,-36.323736 -0.17337,-0.178055 -1.59453,0.322829 -3.15814,1.113076 -1.56361,0.790248 -8.69293,3.348447 -15.84293,5.684887 -7.15,2.336441 -17.19547,6.061513 -22.32327,8.277933 -8.64124,3.73506 -9.44326,3.90989 -10.96334,2.3898 -1.52009,-1.52009 -1.28718,-1.99834 3.18377,-6.537551 4.05522,-4.117132 8.40724,-6.614282 27.31325,-15.672103 21.44727,-10.275332 22.84483,-10.795194 30.15939,-11.218627 7.39688,-0.428199 8.00754,-0.286239 17.15009,3.986873 10.93603,5.11136 26.59584,15.987815 37.15488,25.805768 6.3595,5.91316 7.17474,7.05385 6.18373,8.65239 -1.80994,2.91952 -5.0325,1.81943 -16.3585,-5.58432 -11.09308,-7.251496 -33.78935,-19.618371 -34.57066,-18.837065 -0.25392,0.253924 0.22592,3.566904 1.06631,7.362178 0.84039,3.795273 2.18917,15.821477 2.99728,26.724907 1.3438,18.13133 1.65308,19.97323 3.6213,21.567 1.83917,1.48927 1.97888,2.0661 0.96105,3.96793 -0.65503,1.22393 -1.05243,3.89378 -0.88312,5.933 L 533.5,154.5 l 18.9249,0.27271 c 11.89393,0.17139 19.4172,0.68128 20.25,1.37244 1.75723,1.45838 1.86387,19.91608 0.1251,21.65485 -0.90603,0.90603 -15.55556,1.2 -59.8,1.2 -44.24444,0 -58.89397,-0.29397 -59.8,-1.2 z m 118.3,-10.8 0,-9.5 -58.5,0 -58.5,0 -0.29313,8.41641 c -0.16122,4.62903 -0.0614,9.02016 0.22171,9.75807 0.42406,1.10509 10.79085,1.29615 58.79313,1.08359 L 571.5,176.5 l 0,-9.5 z m -44.69275,-16.1978 c 0.17197,-2.06965 -0.34453,-4.71147 -1.17305,-6 -0.84997,-1.32189 -1.95994,-7.18463 -2.60671,-13.76832 -0.61951,-6.30636 -1.2906,-11.63032 -1.4913,-11.83102 -0.20069,-0.20069 -1.36516,0.17042 -2.5877,0.82471 -1.22254,0.65428 -3.70821,0.94855 -5.52372,0.65394 -1.95348,-0.31701 -3.68415,-0.0552 -4.23974,0.64141 -0.51636,0.64739 -2.16579,5.45208 -3.6654,10.67708 -1.49961,5.225 -3.58001,10.98822 -4.6231,12.80716 -1.89373,3.30228 -2.51517,8.24087 -1.20219,9.55385 0.38188,0.38188 6.56938,0.56938 13.75,0.41666 L 526.5,154.5 l 0.30725,-3.6978 z M 501.38153,141.75 c 0.85082,-2.3375 2.71527,-8.1875 4.14322,-13 1.42795,-4.8125 2.94357,-8.75 3.36804,-8.75 0.9326,0 0.17725,-10.91989 -0.89301,-12.9099 -1.14793,-2.13445 -2.15839,0.40978 -6.91449,17.4099 -3.20946,11.47185 -4.78508,15.52965 -6.6988,17.25183 -3.07289,2.76534 -2.34344,4.24817 2.08982,4.24817 3.04159,0 3.50415,-0.40078 4.90522,-4.25 z m 32.06026,2.5411 c 0.42676,-1.11213 -0.0772,-2.2618 -1.44315,-3.29212 -1.91205,-1.44227 -2.20212,-3.20424 -3.25814,-19.7911 C 528.10292,111.19355 527.24132,103 526.82582,103 c -1.72627,0 -3.33415,4.88608 -3.45528,10.5 -0.1826,8.46299 1.62369,28.6207 2.75387,30.73246 1.24553,2.3273 6.43087,2.36885 7.31738,0.0586 z m 42.27208,-34.98785 c 1.48029,-3.85757 -26.44092,-25.506224 -42.69398,-33.102698 -9.14255,-4.273112 -9.75321,-4.415072 -17.15009,-3.986873 -7.31474,0.423444 -8.71191,0.943197 -30.16663,11.222095 -17.96215,8.605625 -23.36485,11.66273 -26.80405,15.167014 -3.22602,3.287072 -4.021,4.675332 -3.16661,5.529722 0.8544,0.8544 3.47894,0.13017 10.45415,-2.88478 C 471.309,99.033656 480.675,95.541246 487,93.486816 c 12.15585,-3.948356 20.72771,-7.2435 22.67264,-8.715686 0.64495,-0.488187 4.24495,-1.048262 8,-1.244611 6.78603,-0.354837 6.90907,-0.31417 20.32736,6.718616 7.425,3.891587 17.44707,9.721485 22.27126,12.955325 11.88946,7.96996 14.35258,8.94337 15.44261,6.10279 z m -57.52291,-3.36418 c 3.951,1.18374 4.18474,1.12529 6.41871,-1.60529 2.79234,-3.41307 2.72856,-2.59515 0.8856,-11.356248 -0.8276,-3.934271 -1.27241,-7.52911 -0.98847,-7.988532 0.66384,-1.074118 -13.54413,-0.351675 -14.64022,0.744423 -0.45394,0.453934 -1.31627,4.355001 -1.9163,8.669039 -0.81809,5.881838 -0.7975,8.552178 0.0823,10.676228 1.13325,2.73592 1.25657,2.77794 3.61566,1.23221 2.07911,-1.36229 3.05227,-1.41759 6.5427,-0.37183 z M 581,178 c 0,-0.64327 10.16667,-1 28.5,-1 18.33333,0 28.5,0.35673 28.5,1 0,0.64327 -10.16667,1 -28.5,1 -18.33333,0 -28.5,-0.35673 -28.5,-1 z M 315.5,175.04996 C 313.2435,174.12915 303.2965,163.94001 300.56363,159.75 l -1.79365,-2.75 -21.38499,0 C 264.71089,157 256,156.61725 256,156.06037 c 0,-0.5168 1.6875,-1.0793 3.75,-1.25 3.46695,-0.28694 3.77463,-0.56876 4.07628,-3.73359 0.17945,-1.88276 -0.2583,-4.5155 -0.97278,-5.85051 -1.13295,-2.11695 -1.06064,-2.60163 0.56553,-3.79073 1.02553,-0.74988 2.23745,-1.49214 2.69316,-1.64948 0.45572,-0.15733 1.52989,-5.01588 2.38706,-10.79676 l 1.55848,-10.5107 -6.45537,-21.489301 C 251.03956,55.168994 250.25475,51.108926 254.25,48.606392 c 2.73514,-1.71323 4.97415,0.394817 6.33565,5.965061 0.66256,2.710701 2.78977,8.528547 4.72714,12.928547 1.93737,4.4 5.25135,12.275 7.36439,17.5 4.70922,11.644646 7.00782,12.792281 6.47053,3.23058 C 278.67029,79.734059 280.41163,77 286.30055,77 c 6.16479,0 8.70089,2.131591 8.69329,7.306704 -0.003,2.306313 -0.65084,5.429137 -1.43878,6.939608 -1.35468,2.596894 -1.30394,2.77861 0.93256,3.339937 4.42198,1.109846 5.17653,3.283602 7.42666,21.395141 1.74018,14.00689 2.56079,17.8954 4.12878,19.56445 2.47967,2.63948 2.47483,4.10663 -0.018,5.44072 -1.89789,1.01572 -1.82653,1.29975 1.83031,7.28518 l 3.80519,6.22826 7.66969,0.29206 C 328.64017,155.14659 329.62205,157 320.5,157 c -3.575,0 -6.5,0.27323 -6.5,0.60717 0,0.33395 1.6875,3.69974 3.75,7.47954 2.95676,5.41863 3.52336,7.23427 2.67856,8.5833 -1.3321,2.12719 -2.37906,2.42033 -4.92856,1.37995 z m 4.21104,-1.73933 c 0.72831,-1.89794 -1.62221,-6.41173 -15.00287,-28.81063 -12.29038,-20.5738 -15.24468,-24.96629 -18.01083,-26.77874 -1.76064,-1.15362 -5.06863,-8.1823 -12.65627,-26.891547 C 268.39113,76.898371 263.06486,64.15 262.20492,62.5 c -0.85995,-1.65 -2.07937,-5.25 -2.70983,-8 -0.98807,-4.309884 -1.48091,-5 -3.57069,-5 -2.06334,0 -2.46945,0.53875 -2.72687,3.617546 -0.16636,1.98965 0.87921,7.83965 2.32349,13 5.79161,20.693176 15.4367,51.900004 16.93805,54.803294 0.87672,1.6954 6.86959,9.85505 13.31748,18.13256 6.4479,8.27752 13.36444,17.32484 15.3701,20.10515 6.48243,8.98621 13.54176,15.4866 17.13473,15.77806 0.42977,0.0349 1.07311,-0.69683 1.42966,-1.62598 z m -32.98821,-31.67127 c -5.62256,-7.34835 -10.38496,-13.22372 -10.58312,-13.05637 -0.19816,0.16734 -0.99983,3.35524 -1.78149,7.08422 -0.78166,3.72898 -2.08203,7.78852 -2.88971,9.02119 -1.49713,2.28491 -2.00868,8.43809 -0.80184,9.64493 C 271.03333,154.7 277.09611,155 284.1395,155 l 12.80616,0 -10.22283,-13.36064 z m -15.60871,2.12121 c 0.47855,-0.85513 1.54738,-4.7745 2.37518,-8.70971 1.42038,-6.75222 1.39726,-7.36307 -0.41067,-10.8529 -2.24903,-4.34126 -2.4789,-3.92351 -4.01801,7.30204 -1.03609,7.55677 -2.09603,9.67847 -5.38234,10.77391 -0.57096,0.19032 -0.78925,0.99453 -0.48509,1.78715 0.74506,1.9416 6.79463,1.7121 7.92093,-0.30049 z M 307,138.69782 c 0,-0.5879 -0.88062,-2.0063 -1.95694,-3.15198 -1.56756,-1.6686 -2.38979,-5.56135 -4.13241,-19.56445 -1.1965,-9.61477 -2.62098,-18.04389 -3.1655,-18.73139 -3.32193,-4.194201 -6.18129,3.51516 -3.43767,9.26859 1.63835,3.43567 4.01256,18.07019 3.54003,21.82056 -0.14975,1.18847 0.99084,4.4701 2.53463,7.29251 2.17785,3.98161 3.23394,5.01999 4.71238,4.63337 C 306.14253,139.99097 307,139.28572 307,138.69782 z m -10.94295,-20.19487 c -0.63131,-4.74402 -1.89193,-10.18585 -2.80137,-12.09296 -1.35074,-2.83255 -1.45563,-4.20886 -0.57282,-7.516312 l 1.08069,-4.048834 -4.81845,0.662707 c -2.65981,0.365817 -5.60156,0.224456 -6.56648,-0.315543 -1.1587,-0.648441 -2.31565,-0.623772 -3.43163,0.07317 -1.53303,0.957393 -1.34509,1.883344 2.10152,10.354042 2.55823,6.28733 5.02757,10.55217 7.6183,13.15771 2.10825,2.1203 4.66491,5.09367 5.68146,6.60748 1.01655,1.5138 2.07515,2.5255 2.35245,2.24821 0.27729,-0.2773 -0.0124,-4.38564 -0.64367,-9.12967 z M 291.61048,92.246543 C 293.27806,90.04994 293.36637,86.766375 291.8,85.2 288.93001,82.330009 280,85.010717 280,88.742253 c 0,0.895864 1.01052,2.704494 2.2456,4.019176 2.5743,2.740218 7.08187,2.49239 9.36488,-0.514886 z M 147,156.04206 c 0,-0.52686 3.4875,-1.08936 7.75,-1.25 l 7.75,-0.29206 0.32628,-3.42322 c 0.17945,-1.88276 -0.2583,-4.5155 -0.97278,-5.85051 -1.12149,-2.09552 -1.06172,-2.60084 0.43722,-3.6969 1.63705,-1.19704 1.55971,-2.36504 -1.35338,-20.43782 l -3.08965,-19.16823 1.93581,-3.280954 1.93581,-3.280956 -3.35965,-3.66602 c -7.696,-8.397781 -1.34503,-18.68192 9.08753,-14.715468 2.59312,0.985901 3.91031,3.167589 5.00947,8.297245 0.58106,2.711747 0.73772,2.599856 6.65038,-4.75 C 184.71939,73.550607 185.43912,73 188.94628,73 l 3.78395,0 1.80495,-11.218681 C 196.99237,46.508738 198.25545,42.5 200.61038,42.5 c 1.41065,0 2.35001,1.416261 3.70594,5.587389 1.79542,5.523096 1.78161,5.954607 -1.20011,37.5 L 200.09978,117.5 l 9.69375,10 9.69376,10 -10.19765,-10 -10.19764,-10 3.0099,-31.801796 c 2.85085,-30.121266 2.92621,-32.089699 1.42607,-37.25 C 202.64847,45.422836 201.36052,43 200.63178,43 c -0.76373,0 -1.81525,2.194746 -2.51533,5.25 -2.63466,11.498067 -9.96453,55.98233 -9.44677,57.33157 0.30363,0.79126 -1.33719,4.33839 -3.64628,7.88251 -2.30908,3.54412 -3.90879,6.91234 -3.55491,7.48494 0.35388,0.57259 6.91824,5.80549 14.58747,11.62865 7.66922,5.82317 13.94404,10.80091 13.94404,11.06166 0,0.58331 -0.59904,0.14514 -15.91262,-11.63933 -13.83914,-10.64982 -12.52889,-9.7907 -20.45649,-13.41322 -3.22802,-1.47504 -5.65499,-2.89602 -5.39327,-3.15773 0.26171,-0.26172 2.45281,0.65426 4.86911,2.03551 2.4163,1.38124 4.90291,2.51677 5.52581,2.52339 0.6229,0.007 3.02634,-2.89465 5.34097,-6.44729 4.06829,-6.24426 4.16684,-6.58557 2.95956,-10.25 -1.59735,-4.848371 -4.86521,-9.281789 -6.87113,-9.32187 -2.26956,-0.04535 -8.79764,-4.293208 -8.40439,-5.46879 0.51482,-1.538992 -3.45413,-7.5 -4.99363,-7.5 -3.08606,0 -7.62322,2.296405 -8.21385,4.1573 -0.86734,2.732771 1.2252,7.373723 3.86752,8.577582 2.38053,1.084588 6.5974,-0.003 7.88887,-2.034696 0.57496,-0.904504 0.76669,-0.87966 0.77823,0.100841 0.008,0.715564 -1.56662,1.962001 -3.5001,2.769859 l -3.51541,1.468832 1.69518,3.230141 c 1.28791,2.454091 1.76099,6.353441 1.9691,16.230141 0.15066,7.15 0.6939,16.6 1.2072,21 0.5133,4.4 0.87163,10.25 0.7963,13 l -0.13696,5 12,0.5 c 6.78795,0.28283 11.20439,0.82575 10.16821,1.25 C 188.91614,157.3768 147,157.18167 147,156.04206 z M 168.99245,144 c -0.004,-0.825 -0.46571,-4.32321 -1.02568,-7.77381 -0.55996,-3.45059 -1.17332,-12.5532 -1.36302,-20.22801 -0.26845,-10.86052 -0.71127,-14.51333 -1.99738,-16.47619 -2.11997,-3.235478 -3.09136,-3.179549 -4.51608,0.260019 -0.93822,2.265071 -0.58276,6.304351 1.913,21.738321 2.83392,17.52521 2.94003,19.04794 1.4056,20.16995 -2.43784,1.78259 -1.12687,3.80972 2.46379,3.80972 2.11653,0 3.12488,-0.48482 3.11977,-1.5 z m 21.76531,-63.575577 c -1.29167,-1.291671 -3.71279,1.250882 -6.25397,6.567657 l -2.82131,5.90285 2.65876,3.485813 c 1.46232,1.917197 2.70582,4.078337 2.76333,4.802537 0.0575,0.7242 1.0091,-3.544197 2.11463,-9.485319 1.10553,-5.941121 1.79788,-11.014213 1.53856,-11.273538 z m -7.14931,6.124333 c 2.31548,-5.165999 3.43942,-6.576399 5.64155,-7.079455 C 191.31957,78.996527 192,78.242179 192,76.420545 192,74.339142 191.5283,74 188.63339,74 c -3.00205,0 -4.02766,0.833724 -9.47103,7.699018 l -6.10441,7.699017 2.72102,1.794393 c 1.49657,0.986917 3.21983,1.797359 3.82948,1.800983 0.60965,0.0036 2.40965,-2.896471 4,-6.444655 z M 581,156.06955 c 0,-0.51175 1.0125,-1.07425 2.25,-1.25 2.05834,-0.29233 2.25307,-0.85913 2.28608,-6.65389 0.0309,-5.41967 0.36872,-6.58525 2.33972,-8.07198 1.83237,-1.38215 3.01471,-4.68936 5.77934,-16.16566 4.49019,-18.63937 5.59085,-28.546614 4.88024,-43.92802 -0.72006,-15.586249 1.16602,-55.607652 2.77866,-58.961145 0.65228,-1.35641 2.41541,-3.155367 3.91808,-3.997681 2.59787,-1.456229 2.86438,-1.399219 5.42383,1.160232 3.05385,3.053853 3.08531,3.333608 5.82498,51.798594 0.79281,14.025 2.14134,28.65 2.99673,32.5 0.85539,3.85 2.44249,13.93364 3.52689,22.4081 1.37312,10.73081 2.47248,15.96153 3.62155,17.23124 1.30721,1.44445 1.40014,2.12412 0.44739,3.27211 -0.6614,0.79694 -1.061,3.16788 -0.88802,5.26876 L 626.5,154.5 l 5.75,0.2999 c 3.1625,0.16495 5.75,0.72745 5.75,1.25 0,0.57791 -11.16464,0.9501 -28.5,0.9501 -16.91309,0 -28.5,-0.37828 -28.5,-0.93045 z m 38.83118,-5.05855 c 0.18215,-1.91894 -0.12891,-5.06894 -0.69125,-7 -0.56235,-1.93105 -1.74984,-7.561 -2.63888,-12.511 -2.30443,-12.8306 -2.25233,-12.70348 -4.67477,-11.40703 -1.12168,0.60031 -3.98802,0.93649 -6.36965,0.74707 l -4.33024,-0.3444 -0.9931,5.63797 c -0.54621,3.10088 -2.59965,8.82813 -4.5632,12.72721 -3.36892,6.68977 -4.67053,13.70541 -2.87575,15.50019 0.38188,0.38188 6.56938,0.56938 13.75,0.41666 L 619.5,154.5 l 0.33118,-3.489 z m 5.9694,-8.40158 c -1.30402,-0.96372 -2.17999,-5.0512 -3.76486,-17.56777 -1.13598,-8.9715 -2.34373,-17.42069 -2.68389,-18.77597 l -0.61846,-2.46414 -2.25496,2.82799 c -1.77208,2.2224 -2.05929,3.34265 -1.34122,5.23131 0.50256,1.32183 0.65138,3.22996 0.33071,4.2403 -0.4807,1.51454 0.75593,9.51667 4.10804,26.58267 0.29283,1.49088 1.30075,2.29466 3.1765,2.53315 3.61628,0.45978 5.27665,-0.96059 3.04814,-2.60754 z m -30.3273,-5.68294 c 3.51066,-7.4811 3.80634,-8.81711 4.02943,-18.20724 0.14589,-6.14068 0.66502,-10.27515 1.31745,-10.49263 0.75187,-0.25062 0.71698,-1.14838 -0.11565,-2.9758 l -1.19235,-2.61691 -0.70842,3.43305 c -2.49023,12.06767 -8.01534,33.47981 -8.70076,33.71911 -4.47003,1.56063 -4.96167,5.21394 -0.70166,5.21394 1.87633,0 2.95856,-1.43897 6.07196,-8.07352 z m 21.02013,-31.55676 c 1.56576,-2.38965 1.60598,-3.48569 0.43971,-11.980306 l -1.28371,-9.350016 -3.40661,-1.12428 c -2.74842,-0.907061 -4.23298,-0.808681 -7.68379,0.509194 l -4.27718,1.633474 -0.55148,8.045898 c -0.43797,6.389755 -0.20968,8.659176 1.10908,11.025356 1.51653,2.721 2.00755,2.93153 5.66057,2.42705 2.2,-0.30383 4.675,-0.11013 5.5,0.43044 2.18667,1.43277 2.59043,1.28749 4.49341,-1.61681 z M 606.25,81.799892 c 1.88096,-0.680936 3.74929,-0.647189 5.91216,0.106792 1.73918,0.606284 3.31388,0.950614 3.49931,0.765178 0.47159,-0.471584 -2.55434,-56.579195 -3.22604,-59.81817 -0.30184,-1.455469 -1.42511,-3.439368 -2.49617,-4.408664 -1.60734,-1.454624 -2.38672,-1.562183 -4.4634,-0.615983 -1.38381,0.630506 -2.93357,2.244626 -3.44392,3.586934 -1.34257,3.531233 -3.30694,46.767876 -2.51724,55.405692 0.57438,6.282675 0.90465,7.226033 2.32734,6.647718 0.91188,-0.370675 2.89546,-1.121949 4.40796,-1.669497 z M 607.42614,53.5 c -7.6e-4,-12.1 0.14302,-17.187441 0.31951,-11.305424 0.17649,5.882017 0.17711,15.782017 0.001,22 C 607.57129,70.412559 607.42689,65.6 607.42614,53.5 z m -410.2422,95.84556 C 197.45935,145.99458 197.82153,145.5 200,145.5 c 3.8519,0 3.83497,3.57555 -0.0277,5.85731 l -3.10439,1.83381 0.31606,-3.84556 z m 148.21653,-6.74433 c -0.29521,-0.76932 0.5787,-3.60002 1.94204,-6.29043 2.01825,-3.98282 4.07281,-5.95247 11.05833,-10.60123 4.71874,-3.14026 8.92145,-5.70862 9.33935,-5.70746 0.41789,0.001 -3.27455,2.68843 -8.20544,5.97172 -6.82213,4.54259 -9.50061,6.99233 -11.20481,10.24789 -3.88012,7.41226 -2.64947,8.77495 3.52616,3.90447 C 355.48299,137.2658 374,127.52705 374,128.47993 c 0,0.275 -4.1625,2.5863 -9.25,5.13623 -5.0875,2.54992 -10.88976,5.92944 -12.8939,7.51003 -4.04713,3.19182 -5.65579,3.55938 -6.45563,1.47504 z"
       id="path2997"
       inkscape:connector-curvature="0" />
  </g>
</svg>
