<?xml version="1.0" encoding="UTF-8" standalone="no"?>
<!-- Created with Inkscape (http://www.inkscape.org/) -->

<svg
   xmlns:dc="http://purl.org/dc/elements/1.1/"
   xmlns:cc="http://creativecommons.org/ns#"
   xmlns:rdf="http://www.w3.org/1999/02/22-rdf-syntax-ns#"
   xmlns:svg="http://www.w3.org/2000/svg"
   xmlns="http://www.w3.org/2000/svg"
   xmlns:sodipodi="http://sodipodi.sourceforge.net/DTD/sodipodi-0.dtd"
   xmlns:inkscape="http://www.inkscape.org/namespaces/inkscape"
   id="svg3508"
   version="1.1"
   inkscape:version="0.91 r13725"
   width="533.64484"
   height="168.75"
   viewBox="0 0 533.64484 168.75"
   sodipodi:docname="fx530202.svg">
  <metadata
     id="metadata3514">
    <rdf:RDF>
      <cc:Work
         rdf:about="">
        <dc:format>image/svg+xml</dc:format>
        <dc:type
           rdf:resource="http://purl.org/dc/dcmitype/StillImage" />
        <dc:title />
      </cc:Work>
    </rdf:RDF>
  </metadata>
  <defs
     id="defs3512" />
  <sodipodi:namedview
     pagecolor="#ffffff"
     bordercolor="#666666"
     borderopacity="1"
     objecttolerance="10"
     gridtolerance="10"
     guidetolerance="10"
     inkscape:pageopacity="0"
     inkscape:pageshadow="2"
     inkscape:window-width="1416"
     inkscape:window-height="711"
     id="namedview3510"
     showgrid="false"
     inkscape:zoom="1.5264591"
     inkscape:cx="142.52765"
     inkscape:cy="88.443925"
     inkscape:window-x="0"
     inkscape:window-y="0"
     inkscape:window-maximized="0"
     inkscape:current-layer="svg3508" />
  <g
     id="g3518"
     transform="translate(6.1349145,2.4158207)">
    <path
       style="fill:#fefefe"
       d="m 34.057202,137.2929 c -1.208628,-4.17052 -1.310185,-6.08347 -0.510159,-9.60937 1.55831,-6.86786 3.621286,-20.57587 4.260267,-28.30853 0.937019,-11.339368 5.461525,-17.012615 9.96501,-12.495057 1.787444,1.79303 1.744241,2.076128 -3.823346,25.053327 -3.09717,12.78189 -5.631218,24.88836 -5.631218,26.90326 0,5.65832 -2.428388,4.77849 -4.260554,-1.54363 z m 307.578668,4.34604 c -0.52159,-0.8466 -2.52953,-12.05719 -3.77467,-21.07461 -0.34874,-2.52555 -1.75483,-6.88427 -3.12466,-9.68603 -2.44212,-4.99495 -2.45532,-5.11999 -0.67794,-6.42371 2.65179,-1.9451 5.12154,-1.62587 6.033,0.77979 1.65205,4.3603 2.89927,11.20697 2.90569,15.95095 0.004,2.69963 0.27832,7.79455 0.61039,11.32205 0.51937,5.51726 0.91029,6.55374 2.79709,7.41611 1.20634,0.55136 2.19335,1.35663 2.19335,1.7895 0,1.071 -6.29804,1.00402 -6.96225,-0.0741 z m 132.73314,0.0371 c -0.2792,-0.45317 -0.39194,-12.60301 -0.25055,-26.99964 0.23839,-24.273187 0.39383,-26.410596 2.13859,-29.407377 2.22553,-3.822542 4.48415,-4.512053 7.07516,-2.159899 1.66051,1.507442 1.81301,2.437354 1.28189,7.816549 -0.33156,3.358053 -1.40059,10.746177 -2.37561,16.418057 -0.97504,5.67187 -2.24657,14.46196 -2.82563,19.53352 -0.94242,8.25392 -0.88799,9.40375 0.51894,10.96325 0.86448,0.95823 2.44119,1.87127 3.50379,2.02898 1.0626,0.15771 2.10513,0.81409 2.31674,1.45862 0.45262,1.37869 -10.54123,1.71473 -11.38332,0.34794 z M 290.02269,125.39063 c -4.92124,-5.48695 -8.67403,-13.38536 -9.64331,-20.29606 -0.53511,-3.81518 -0.80807,-7.102045 -0.6066,-7.304161 0.20149,-0.202106 1.68083,0.74206 3.28742,2.098153 2.43205,2.052828 2.9211,3.135908 2.9211,6.469338 0,5.25644 5.00497,15.15641 8.60703,17.02493 3.15533,1.63678 3.31769,2.77018 0.50512,3.52627 -2.99349,0.80473 -2.9847,0.80737 -5.07076,-1.51847 z m 19.63653,-0.48985 c -0.59863,-0.38156 -3.02713,-4.68947 -5.39664,-9.57312 -2.36953,-4.88365 -5.61224,-10.22898 -7.20602,-11.87848 -2.55909,-2.64857 -2.82126,-3.40834 -2.24301,-6.500346 l 0.65479,-3.501223 4.16533,4.178342 c 3.25222,3.262387 4.88794,6.121377 7.46169,13.041827 1.813,4.8749 3.93911,9.35896 4.72468,9.96455 2.56014,1.97364 0.53017,5.98364 -2.16082,4.26845 z m 34.01385,-8.4164 c -0.27404,-1.9336 -0.7968,-4.25869 -1.16169,-5.16689 -0.51648,-1.28549 -0.31399,-1.51674 0.91408,-1.04401 2.90416,1.11791 4.69613,9.72652 2.02469,9.72652 -0.76612,0 -1.47858,-1.40949 -1.77708,-3.51562 z m 16.4641,-2.61438 c -0.72001,-1.88217 1.27292,-7.84768 6.72184,-20.120845 2.17497,-4.898902 4.50354,-10.745394 5.1746,-12.992204 1.53279,-5.13197 4.36301,-6.743876 7.83464,-4.462074 3.27039,2.149542 2.98198,4.047629 -1.21402,7.989757 -5.19712,4.882672 -14.15053,21.646126 -15.27879,28.606426 -0.38456,2.37235 -2.46468,3.00118 -3.23827,0.97894 z m -71.14418,-5.64191 c -3.17163,-2.22843 -2.6132,-4.47598 1.42733,-5.74459 2.94518,-0.92472 3.76548,-0.86333 5.14018,0.38464 4.68976,4.25743 -1.24413,9.10025 -6.56751,5.35995 z M 58.549515,97.992225 c -1.00259,-2.620875 -0.761448,-3.177009 3.288737,-7.584669 2.55711,-2.782806 4.392574,-4.04626 5.345346,-3.679504 0.798058,0.307201 1.158072,0.264688 0.800031,-0.09447 -0.358042,-0.35916 5.881893,-4.6466 13.866522,-9.527644 7.98463,-4.881044 14.669761,-8.721899 14.855845,-8.535234 0.186085,0.186666 0.625346,1.48654 0.97615,2.888612 0.624962,2.497823 0.332458,2.700979 -14.507857,10.076203 -8.330122,4.13984 -14.684566,7.526983 -14.120987,7.526983 0.563579,0 7.545662,-3.26262 15.51574,-7.250267 l 14.491048,-7.250267 2.76063,2.797142 2.76063,2.797142 -19.474393,9.18231 C 64.398184,99.102891 59.57553,100.67434 58.549515,97.992225 Z M 253.0142,85.546875 c -0.81461,-0.902344 -6.54541,-4.15191 -12.73511,-7.221257 -10.57605,-5.244454 -11.16406,-5.68032 -9.76106,-7.235458 1.10765,-1.227776 1.92907,-1.420677 3.18302,-0.747493 0.92954,0.499033 2.3476,0.907333 3.15122,0.907333 0.80364,0 3.45979,1.427048 5.90257,3.171219 2.44278,1.744171 6.66911,4.292573 9.39187,5.663114 5.22353,2.629357 6.93246,4.86932 4.76517,6.245928 -1.82238,1.157532 -2.21711,1.078198 -3.89768,-0.783386 z m 110.90518,-1.376953 c 0.74923,-3.757854 1.28799,-4.299028 5.02656,-5.04908 l 2.9997,-0.601813 -1.04559,3.16236 c -1.19814,3.623769 -3.17238,5.506111 -5.77495,5.506111 -1.53703,0 -1.71737,-0.451344 -1.20572,-3.017578 z M 318.36965,78.984375 C 308.13778,58.108616 300.73908,45.197039 296.76923,41.28918 c -2.33523,-2.298763 -4.24588,-4.759701 -4.24588,-5.46875 0,-0.709049 0.31542,-1.144345 0.70094,-0.967324 0.38551,0.177021 3.34852,1.330372 6.58447,2.563004 3.43956,1.310193 6.31111,3.058742 6.91285,4.209394 0.56614,1.082535 4.55957,7.395219 8.87431,14.028185 12.58587,19.34801 14.59242,24.603026 10.73235,28.10726 -3.1154,2.828207 -4.69633,1.879371 -7.95862,-4.776574 z M 109.0411,78.008774 c 4.25337,-3.6421 8.5039,-5.986341 9.09999,-5.018819 0.57707,0.936647 -9.04943,7.656041 -10.88373,7.596944 -0.65043,-0.02095 0.15225,-1.181111 1.78374,-2.578125 z m 111.55399,-0.899399 c 0.0756,-5.675876 2.57207,-15.583547 4.23371,-16.802362 4.48408,-3.289086 7.62368,-0.205398 3.41118,3.350441 -2.4261,2.047918 -2.98865,3.332996 -3.52889,8.061296 -0.6264,5.482522 -1.66542,7.96875 -3.3302,7.96875 -0.45109,0 -0.80469,-1.160156 -0.7858,-2.578125 z m 47.80624,-6.09375 C 266.3307,66.246094 262.49735,57.070312 259.88276,50.625 c -2.61458,-6.445313 -6.28151,-14.742603 -8.14873,-18.438423 -1.86723,-3.69582 -3.15481,-7.347445 -2.86129,-8.114722 0.29351,-0.767278 1.82323,-1.679173 3.39937,-2.026433 2.24334,-0.494259 3.75361,-0.05535 6.95398,2.020973 3.77185,2.447075 4.89309,4.267188 14.48715,23.517134 5.71939,11.475628 10.3989,21.612227 10.3989,22.525775 0,2.689005 -2.73837,5.828196 -5.08403,5.828196 -1.91198,0 -3.04838,-1.95106 -9.41936,-16.171875 C 257.29834,32.287283 255.51931,28.639357 253.72099,27.1875 c -1.42311,-1.148936 -1.37049,-0.891622 0.28756,1.40625 1.11616,1.546875 5.79934,11.326298 10.40705,21.732051 4.60772,10.405753 9.26706,20.66837 10.35411,22.805817 1.55204,3.051754 1.73931,4.172894 0.87211,5.221074 -2.15879,2.60931 -3.52219,1.227718 -7.24049,-7.337067 z m 155.50969,2.577983 c -18.85352,-1.016126 -21.56533,-1.35901 -22.66355,-2.865606 -0.68612,-0.941254 -1.24748,-2.052612 -1.24748,-2.469686 0,-1.419031 3.73185,-4.508316 5.44603,-4.508316 0.93925,0 11.10536,1.265625 22.59135,2.8125 11.48599,1.546875 22.70349,2.8125 24.92779,2.8125 5.83983,0 5.39357,2.33788 -0.79835,4.18243 -2.6634,0.793414 -5.2919,1.385835 -5.84113,1.316492 -0.54923,-0.06935 -10.63583,-0.645484 -22.41466,-1.280314 z M 119.3811,71.961599 c -0.2793,-0.730095 1.79337,-3.059328 5.02504,-5.647068 5.07587,-4.064483 5.5004,-4.238812 5.5004,-2.258696 0,1.481854 -1.37348,3.144245 -4.43925,5.373071 -5.56952,4.049044 -5.51484,4.026289 -6.08619,2.532693 z m 75.01142,-2.660442 c -3.85514,-0.971632 -13.44727,-3.254837 -21.31584,-5.07379 -13.35761,-3.087838 -21.67482,-6.087521 -21.67482,-7.817236 0,-1.83189 2.66299,-3.860602 6.32942,-4.821871 4.53257,-1.188352 11.58571,-0.440986 31.52105,3.340033 14.07805,2.670101 15.9777,3.339399 16.79314,5.916647 0.84879,2.682664 -1.11054,6.022118 -3.07977,5.2491 -2.77295,-1.088521 -44.39632,-8.908956 -44.87283,-8.430962 -0.25326,0.254057 -0.2692,0.461922 -0.0354,0.461922 2.81447,0 44.38996,8.689322 45.33336,9.474717 1.80844,1.505564 1.59374,3.667646 -0.35342,3.559163 -0.89954,-0.05012 -4.78972,-0.886092 -8.64486,-1.857723 z m 39.01869,-0.0012 c -0.89954,-0.525598 -1.63552,-1.778394 -1.63552,-2.784022 0,-2.68881 5.02955,-2.504308 6.95636,0.255183 0.80017,1.145981 1.45486,2.411606 1.45486,2.8125 0,1.047858 -4.84381,0.845053 -6.7757,-0.283692 z M 49.944979,63.336158 c -2.442821,-1.819642 -1.066589,-3.996256 4.340218,-6.86438 2.267192,-1.202666 4.543593,-2.665708 5.05867,-3.251203 0.515078,-0.585496 -0.325178,-0.30208 -1.867234,0.629815 -2.320772,1.402488 -2.553286,1.428883 -1.349798,0.15323 0.799668,-0.847618 2.32406,-1.709218 3.387539,-1.914664 1.06348,-0.205448 5.434868,-2.946241 9.714197,-6.090653 4.27933,-3.144411 8.195941,-5.57823 8.703582,-5.408489 1.496352,0.500343 1.701409,2.288322 0.388895,3.390933 -2.536474,2.130834 -10.697336,7.631996 -13.951864,9.404825 -1.863303,1.014991 -4.911669,3.973148 -6.774147,6.573683 -3.596661,5.021934 -4.755138,5.533311 -7.650058,3.376903 z M 478.23604,59.41804 c -0.36628,-0.367422 -0.66596,-1.662947 -0.66596,-2.878944 0,-2.517278 -5.63049,-14.268078 -8.98045,-18.742169 -2.2923,-3.061515 -2.65936,-4.65798 -1.66723,-7.251502 0.81458,-2.129408 3.17104,-1.830432 3.17104,0.402327 0,1.687176 5.53645,11.390551 11.85274,20.773524 2.90563,4.316377 2.62402,7.701724 -0.67276,8.08739 -1.30429,0.152578 -2.67111,-0.0232 -3.03738,-0.390626 z M 60.235905,57.259672 c 0.346656,-0.562653 1.954338,-1.70984 3.572624,-2.549305 l 2.942341,-1.526299 -1.473192,2.236092 c -1.433779,2.176267 -6.355633,3.972028 -5.041773,1.839513 z m 56.586525,-4.479065 c 0,-2.473704 10.68066,-9.315521 20.81871,-13.336049 7.30801,-2.898195 10.95699,-3.584014 10.95699,-2.05935 0,1.353769 -2.03069,2.56546 -7.94393,4.740077 -6.20774,2.282917 -12.9962,5.95229 -15.93277,8.612146 -2.14468,1.942573 -7.899,3.431003 -7.899,2.043176 z m 365.00624,-2.364206 c -2.01893,-2.891444 -1.83427,-4.043438 1.00763,-6.285857 4.01413,-3.167382 5.94873,-2.601516 5.94873,1.739991 0,5.972186 -4.09288,8.646818 -6.95636,4.545866 z"
       id="path3528"
       inkscape:connector-curvature="0" />
    <path
       style="fill:#fefe00"
       d="M 329.93876,105.06337 C 326.37791,98.061731 322.48243,86.25 323.73414,86.25 c 0.64552,0 2.13713,-1.028761 3.3147,-2.286136 1.64975,-1.761566 2.04931,-3.074183 1.74132,-5.720532 -0.35113,-3.017079 -0.25081,-3.230139 0.82562,-1.75343 0.67394,0.924532 1.22533,2.240172 1.22533,2.923647 0,0.683475 2.31308,5.869253 5.14019,11.523951 5.63817,11.27735 6.35295,13.90064 3.25948,11.96271 -2.56912,-1.60947 -7.03057,0.83712 -6.9236,3.79678 0.10234,2.8312 -0.22051,2.60944 -2.37842,-1.63362 z M 282.8924,98.803303 c -3.31735,-2.5926 -4.77868,-4.621022 -6.24744,-8.671871 -1.05447,-2.908225 -2.25828,-6.112967 -2.67514,-7.121649 -0.57749,-1.397363 -0.15142,-2.345903 1.78972,-3.984375 1.40122,-1.182724 3.1924,-2.150408 3.98043,-2.150408 0.78802,0 2.3103,-1.119092 3.38284,-2.486871 1.07255,-1.367779 2.09243,-2.316998 2.2664,-2.109375 0.17399,0.207623 0.82201,2.486871 1.44007,5.064996 0.61806,2.578125 2.61236,6.955902 4.43181,9.728392 2.9441,4.486259 3.24067,5.491708 2.69555,9.138186 -0.59845,4.003262 -2.38971,5.977172 -5.42408,5.977172 -0.72047,0 -3.25854,-1.52288 -5.64016,-3.384197 z M 38.759114,88.125 c 0.301842,-1.289063 1.613692,-6.984375 2.915222,-12.65625 2.41936,-10.543214 5.594096,-17.501424 8.760834,-19.201507 3.025618,-1.624322 2.990035,-1.066501 -0.10916,1.711282 -3.36981,3.020334 -3.186916,5.144814 0.591583,6.871793 2.055301,0.939385 2.691208,0.783206 4.763818,-1.169995 2.325584,-2.1916 2.286462,-1.957599 -1.411113,8.440275 -2.091655,5.881903 -3.80301,11.678189 -3.80301,12.880635 0,2.579166 -0.656566,2.729254 -2.926136,0.668904 -2.274323,-2.064668 -5.982426,-1.010367 -7.851625,2.232401 -1.454841,2.523921 -1.470173,2.527588 -0.930413,0.222462 z M 474.43481,83.4375 c 0.43935,-2.320313 0.66943,-9.380722 0.51129,-15.689798 -0.16816,-6.709632 0.11099,-12.157573 0.67253,-13.125 0.80938,-1.394421 0.96448,-1.20527 0.98845,1.205423 0.0335,3.37632 1.49429,5.109375 4.30651,5.109375 2.79675,0 4.4495,-2.295728 3.86414,-5.36741 -0.46775,-2.454528 -0.42829,-2.485223 0.91089,-0.708512 1.40213,1.860254 1.29454,9.318012 -0.34163,23.679796 -0.53279,4.676653 -0.65501,4.864696 -2.2316,3.433451 -2.36235,-2.144587 -4.6628,-1.380508 -7.24584,2.406664 l -2.23355,3.274761 0.79881,-4.21875 z m -91.97175,-2.45391 c 1.00516,-2.212981 0.85209,-2.68041 -1.55905,-4.760866 -1.55963,-1.345736 -3.3953,-2.117647 -4.40565,-1.852609 -4.72636,1.239833 1.58883,-5.025077 7.8771,-7.814394 2.45792,-1.090268 7.45206,-2.233181 11.09809,-2.539807 l 6.62915,-0.5575 -1.62614,2.489544 c -1.49846,2.294097 -1.50905,2.668772 -0.13491,4.772536 0.95863,1.467638 2.58248,2.402378 4.54674,2.617266 l 3.05552,0.334272 -3.73832,0.674673 c -8.66014,1.562941 -11.61106,2.607041 -16.28434,5.761756 -5.88365,3.971776 -6.94178,4.141429 -5.45819,0.875129 z M 101.93112,76.470374 c -2.328124,-2.409515 -3.136638,-4.106573 -3.220722,-6.760251 -0.104112,-3.285577 0.19343,-3.704783 4.093332,-5.767063 2.31309,-1.223164 4.98171,-2.92348 5.93028,-3.778478 1.61696,-1.457469 1.83135,-1.422373 3.43321,0.562025 0.9397,1.164113 2.44645,4.054756 3.34832,6.423653 1.51143,3.969996 1.52018,4.374219 0.11173,5.164889 -0.84042,0.471792 -3.44232,2.323577 -5.782,4.115078 -2.33969,1.7915 -4.37812,3.257273 -4.52984,3.257273 -0.15173,0 -1.67467,-1.447706 -3.38431,-3.217126 z m 113.7175,-3.897846 c -0.30292,-0.30386 -0.34577,-2.096829 -0.0952,-3.984375 0.98017,-7.384433 1.12599,-7.650653 4.19056,-7.650653 2.17081,0 2.75371,0.345635 2.35235,1.394832 -0.29347,0.767157 -0.81321,3.509345 -1.15497,6.09375 -0.53303,4.030715 -0.91438,4.698918 -2.68167,4.698918 -1.13316,0 -2.30813,-0.248613 -2.61104,-0.552472 z m 10.24669,-3.070907 c 0.28011,-1.874329 1.40236,-4.126164 2.49391,-5.004077 1.94332,-1.563001 1.99072,-1.527511 2.27856,1.706051 0.31957,3.590132 -0.76953,5.52223 -3.51941,6.24359 -1.55012,0.40663 -1.70102,0.0519 -1.25306,-2.945564 z m -18.95414,1.968398 c -1.93815,-1.331274 -2.24737,-4.067993 -0.7233,-6.401294 1.21621,-1.86197 1.31248,-2.798506 0.47679,-4.638379 -1.24444,-2.739785 -0.89233,-2.797983 4.1845,-0.691622 3.68822,1.530234 3.86693,1.784882 3.45395,4.921875 -0.93349,7.090826 -1.15658,7.527621 -3.8369,7.512545 -1.40376,-0.0079 -3.00353,-0.324302 -3.55504,-0.703125 z m -90.49358,-6.551658 c -0.97718,-2.447286 -2.3789,-5.154318 -3.11492,-6.015625 -1.18442,-1.386041 -1.08764,-1.707337 0.84213,-2.795715 1.19919,-0.676336 3.86258,-1.659129 5.91865,-2.183986 3.69539,-0.943325 3.76764,-0.911216 6.29141,2.795715 1.40419,2.0625 2.56073,4.056596 2.57009,4.431324 0.0192,0.76764 -9.15687,8.226861 -10.11365,8.221412 -0.33935,-0.002 -1.41652,-2.005839 -2.39371,-4.453125 z"
       id="path3524"
       inkscape:connector-curvature="0" />
    <path
       style="fill:#fe0000"
       d="m 109.92401,88.656302 c -1.34606,-1.770284 -2.44738,-3.668722 -2.44738,-4.21875 0,-0.563687 1.87871,-1.000052 4.3056,-1.000052 3.71286,0 4.22055,0.225859 3.68781,1.640625 -0.57805,1.535125 -0.516,1.539627 0.96508,0.07 0.88268,-0.875863 1.7776,-3.603642 2.02309,-6.166599 0.37966,-3.963549 -0.0948,-5.720553 -3.4482,-12.768513 -4.33866,-9.1188 -6.36157,-10.900832 -15.243659,-13.428585 -6.010326,-1.710477 -7.388599,-3.674619 -1.869158,-2.663692 4.144607,0.759118 13.317757,5.206046 13.317757,6.456137 0,0.479969 0.66265,1.358733 1.47258,1.952809 0.80991,0.594076 2.91272,4.402394 4.6729,8.46293 4.00601,9.241458 4.42025,16.529697 1.09751,19.310297 -1.15654,0.967841 -2.62851,1.773746 -3.27103,1.7909 -0.64252,0.01715 -1.16822,0.874938 -1.16822,1.906188 0,2.737274 -1.32138,2.303655 -4.09468,-1.343698 z m 86.79432,-9.969475 c -0.35323,-2.097245 -0.41104,-4.045086 -0.12847,-4.328535 0.85902,-0.861707 6.142,3.83889 5.72606,5.094833 -0.61619,1.860565 3.69289,1.393725 6.32806,-0.685574 3.08206,-2.43192 4.98244,-7.43781 5.80079,-15.280128 0.97488,-9.34226 0.007,-13.497813 -4.00344,-17.183049 -1.85017,-1.700267 -3.12004,-3.336051 -2.82195,-3.635075 0.2981,-0.299023 2.07624,0.818889 3.95143,2.484249 4.39801,3.905866 5.62904,8.444837 4.78109,17.628472 -0.77747,8.420296 -2.34672,12.571392 -6.30223,16.671105 -3.0356,3.146262 -5.95376,3.806559 -9.17654,2.07639 -1.2461,-0.668979 -1.80772,-0.668979 -1.80772,0 0,0.533767 -0.38359,0.970485 -0.85243,0.970485 -0.46884,0 -1.14144,-1.715928 -1.49465,-3.813173 z M 463.9763,72.143128 c -1.94306,-2.034458 -2.4011,-3.059865 -1.59113,-3.562025 3.24256,-2.010272 -6.35241,-7.643603 -13.01896,-7.643603 -1.45049,0 -2.63725,-0.421875 -2.63725,-0.9375 0,-1.43244 6.17531,-1.116059 10.07674,0.516263 1.91106,0.799571 4.84148,2.780766 6.51204,4.402657 1.67056,1.621891 3.03738,2.44426 3.03738,1.827487 0,-0.616774 0.42056,-1.121407 0.93458,-1.121407 0.51402,0 0.93458,2.109375 0.93458,4.6875 0,2.578125 -0.34188,4.6875 -0.75973,4.6875 -0.41785,0 -1.98756,-1.285592 -3.48825,-2.856872 z"
       id="path3522"
       inkscape:connector-curvature="0" />
    <path
       style="fill:#000000"
       d="m 20.884595,142.73587 c 11.477055,-0.23742 13.78784,-0.51553 13.36952,-1.60906 -2.046441,-5.34961 -2.544009,-9.46208 -1.633981,-13.50511 1.880449,-8.35437 3.114233,-16.62699 4.282642,-28.71545 1.440618,-14.904758 5.390679,-32.353165 8.555805,-37.793126 1.293824,-2.22372 3.475776,-4.75497 4.848782,-5.625 1.817363,-1.151607 2.536243,-2.43265 2.642957,-4.709739 0.08429,-1.798651 1.047126,-4.089444 2.265713,-5.390625 1.435016,-1.532277 1.700737,-2.26276 0.823104,-2.26276 -0.712816,0 -2.22039,1.160156 -3.350166,2.578125 -2.74711,3.447865 -3.910528,2.055147 -1.325419,-1.586648 2.031368,-2.86171 5.832077,-3.90198 7.047661,-1.928977 0.317681,0.515625 1.510606,0.9375 2.650945,0.9375 1.140338,0 3.041196,0.68003 4.224128,1.511177 2.053832,1.443055 2.381483,1.351792 7.268492,-2.024537 4.521389,-3.123732 5.279086,-3.373827 6.502718,-2.146372 1.958378,1.964498 0.74536,4.310547 -3.298866,6.380204 -3.724552,1.906064 -7.934624,5.765995 -10.615347,9.732499 -0.941886,1.393652 -2.583262,2.499901 -3.738318,2.519539 -1.812377,0.03082 -2.532848,1.519605 -6.011326,12.421875 C 50.539024,86.734752 39.252335,133.80072 39.252335,138.8293 l 0,3.6707 150.989735,0 c 91.48559,0 150.78066,-0.33934 150.45922,-0.86106 -0.52308,-0.849 -2.52644,-12.04144 -3.78711,-21.15784 -0.70459,-5.09525 -2.78441,-9.89099 -4.80439,-11.07825 -1.6538,-0.97203 -4.46191,-6.52562 -7.32587,-14.488344 -1.25036,-3.476414 -4.18633,-10.018805 -6.52438,-14.538643 -16.20369,-31.324535 -18.363,-35.088225 -22.42489,-39.086683 -6.97758,-6.868611 -5.63627,-8.651311 3.66545,-4.871652 l 6.3569,2.583063 7.50339,11.671579 c 4.12687,6.419369 8.83101,13.840188 10.45364,16.490708 1.62262,2.65052 4.0778,6.163358 5.45595,7.806305 1.37814,1.642948 2.50571,3.594648 2.50571,4.337113 0,0.742464 2.31308,5.976506 5.14019,11.631204 2.8271,5.6547 5.14018,11.25827 5.14018,12.45238 0,1.9301 0.36388,2.1285 3.27782,1.78726 2.00342,-0.23463 4.15891,0.19526 5.54408,1.1057 2.16277,1.42153 2.35319,1.37273 4.16921,-1.06852 1.34148,-1.80331 1.91169,-2.1113 1.93256,-1.04388 0.0163,0.83281 -0.81152,2.58686 -1.83956,3.89788 -1.08128,1.37892 -1.86916,3.80323 -1.86916,5.75143 0,4.24227 -2.69159,7.11775 -6.66259,7.11775 l -2.92429,0 0.66819,8.67187 c 0.36751,4.76954 1.10516,8.83008 1.63924,9.02344 0.53407,0.19336 1.7596,1.14258 2.72338,2.10938 1.67787,1.68311 4.36363,1.75779 63.20093,1.75735 l 61.4486,-4.7e-4 0.25975,-30.2339 c 0.14287,-16.628657 0.25683,-36.078968 0.25325,-43.222916 -0.004,-7.143948 0.41553,-13.780046 0.93135,-14.746885 0.72253,-1.354275 0.26521,-3.107514 -1.99179,-7.636004 -1.61132,-3.232963 -3.9347,-7.22106 -5.16308,-8.862438 -2.44526,-3.2674 -2.73983,-5.095983 -1.26595,-7.858559 1.1507,-2.156813 3.54601,-2.383489 4.30205,-0.407118 0.29588,0.773437 1.11993,1.40625 1.83124,1.40625 0.71131,0 2.21839,1.415681 3.34908,3.145958 1.89968,2.907039 2.35339,3.112313 5.97414,2.702927 3.12055,-0.352832 4.32112,-0.03897 5.89671,1.541541 2.73922,2.747781 2.79086,10.544556 0.0879,13.25606 -1.56934,1.574243 -1.70763,2.239392 -0.81389,3.914579 0.71577,1.341618 0.87048,4.498351 0.46153,9.417323 -0.33834,4.069578 -1.03044,12.960361 -1.53803,19.757297 -0.50758,6.796936 -1.73635,16.998685 -2.73061,22.670565 -0.99427,5.67188 -2.28015,14.45036 -2.85753,19.50774 -1.11933,9.80464 -0.61103,11.89851 2.88849,11.89851 0.93595,0 2.28222,0.83136 2.99172,1.84747 1.16012,1.66149 2.60019,1.87672 14.30532,2.13811 7.15841,0.15986 -100.95665,0.2899 -240.25571,0.28898 -139.29906,-9.2e-4 -247.027152,-0.13083 -239.395765,-0.28869 z m 17.433161,-3.89934 c 0,-2.0149 2.534048,-14.12137 5.631218,-26.90326 5.567587,-22.977199 5.61079,-23.260297 3.823346,-25.053327 -4.503485,-4.517558 -9.027991,1.155689 -9.96501,12.495057 -0.638981,7.73266 -2.701957,21.44067 -4.260267,28.30853 -0.800026,3.5259 -0.698469,5.43885 0.510159,9.60937 1.832166,6.32212 4.260554,7.20195 4.260554,1.54363 z m 310.280364,2.87646 c 0,-0.43287 -0.98701,-1.23814 -2.19335,-1.7895 -1.8868,-0.86237 -2.27772,-1.89885 -2.79709,-7.41611 -0.33207,-3.5275 -0.60674,-8.62242 -0.61039,-11.32205 -0.007,-4.74398 -1.25364,-11.59065 -2.90569,-15.95096 -0.91146,-2.40565 -3.38121,-2.72488 -6.033,-0.77978 -1.77738,1.30372 -1.76418,1.42876 0.67794,6.42371 1.36983,2.80176 2.77592,7.16048 3.12466,9.68603 1.24514,9.01742 3.25308,20.22801 3.77467,21.07461 0.66421,1.07807 6.96225,1.14505 6.96225,0.0741 z m 137.15421,-0.38487 c -0.21161,-0.64453 -1.25414,-1.30091 -2.31674,-1.45862 -1.0626,-0.15771 -2.63931,-1.07075 -3.50379,-2.02898 -1.40693,-1.5595 -1.46136,-2.70933 -0.51894,-10.96325 0.57906,-5.07156 1.85059,-13.86164 2.82563,-19.53352 0.97502,-5.67187 2.04405,-13.060003 2.37561,-16.418056 0.53112,-5.379195 0.37862,-6.309108 -1.28189,-7.81655 -2.59101,-2.352153 -4.84963,-1.662643 -7.07516,2.1599 -1.74476,2.996781 -1.9002,5.13419 -2.13859,29.407376 -0.14139,14.39663 -0.0286,26.54647 0.25055,26.99964 0.84209,1.36679 11.83594,1.03075 11.38332,-0.34794 z M 346.72896,117.71728 c 0,-3.35988 -1.50521,-6.75157 -3.3035,-7.4438 -1.22807,-0.47273 -1.43056,-0.24148 -0.91408,1.04401 0.36489,0.9082 0.88765,3.23329 1.16169,5.16689 0.55924,3.9459 3.05589,4.95318 3.05589,1.2329 z m -14.41178,-11.02029 c -0.10697,-2.95966 4.35448,-5.40625 6.9236,-3.79678 3.09347,1.93793 2.37869,-0.68536 -3.25948,-11.96271 -2.82711,-5.654698 -5.14019,-10.840476 -5.14019,-11.523951 0,-0.683475 -0.55139,-1.999115 -1.22533,-2.923647 -1.07643,-1.476709 -1.17675,-1.263649 -0.82562,1.75343 0.30799,2.646349 -0.0916,3.958966 -1.74132,5.720532 -1.17757,1.257375 -2.66918,2.286136 -3.3147,2.286136 -1.25171,0 2.64377,11.811731 6.20462,18.81337 2.15791,4.24306 2.48076,4.46482 2.37842,1.63362 z M 43.519226,84.744549 c 1.539494,-0.387596 2.927182,-0.06824 4.021926,0.925588 2.26957,2.06035 2.926136,1.910262 2.926136,-0.668904 0,-1.202446 1.658804,-6.850957 3.686232,-12.552247 2.027429,-5.701289 3.453512,-10.59943 3.169074,-10.884757 -0.978413,-0.98147 3.587287,-6.296796 7.008446,-8.159137 3.28425,-1.787813 11.438667,-7.281022 13.990008,-9.424345 1.312514,-1.102611 1.107457,-2.89059 -0.388895,-3.390933 -0.507641,-0.169742 -4.424252,2.264078 -8.703582,5.408489 -4.279329,3.144412 -8.650717,5.885205 -9.714197,6.090653 -1.063479,0.205446 -2.587871,1.067046 -3.387539,1.914664 -1.26512,1.340981 -1.089825,1.328968 1.349798,-0.0925 l 2.803739,-1.633625 -2.336449,1.970762 c -1.285047,1.083919 -3.17757,2.23857 -4.205607,2.565891 -2.555363,0.813612 -5.140187,3.205998 -5.140187,4.757502 0,0.704578 1.049693,1.760816 2.332652,2.347198 1.931336,0.882725 2.695077,0.764286 4.439252,-0.688426 l 2.1066,-1.754573 -2.063185,2.243168 c -1.80628,1.963851 -2.362314,2.106449 -4.465481,1.145188 -3.808387,-1.74064 -3.999664,-3.858264 -0.621957,-6.885677 3.099195,-2.777783 3.134778,-3.335604 0.10916,-1.711282 -3.166738,1.700083 -6.341474,8.658293 -8.760834,19.201507 -1.30153,5.671875 -2.61338,11.367188 -2.915222,12.65625 -0.53976,2.305126 -0.524428,2.301459 0.930413,-0.222462 0.81357,-1.411417 2.536934,-2.832511 3.829699,-3.157989 z M 479.77528,80.78369 c 0.9197,-0.177672 2.42276,0.358339 3.34011,1.191135 1.57659,1.431245 1.69881,1.243202 2.2316,-3.433451 1.63617,-14.361784 1.74376,-21.819541 0.34163,-23.679796 -1.33918,-1.776711 -1.37864,-1.746015 -0.91089,0.708512 0.58536,3.071682 -1.06739,5.36741 -3.86414,5.36741 -2.81222,0 -4.27295,-1.733055 -4.30651,-5.109375 -0.0239,-2.410693 -0.17907,-2.599844 -0.98845,-1.205423 -0.56154,0.967427 -0.84069,6.415368 -0.67253,13.125 0.15814,6.309076 -0.0719,13.369485 -0.51129,15.689798 l -0.79881,4.21875 2.23355,-3.274761 c 1.22845,-1.801118 2.98603,-3.420127 3.90573,-3.597799 z m -153.44701,2.977259 c 3.86007,-3.504234 1.85352,-8.75925 -10.73235,-28.10726 -4.31474,-6.632966 -8.30817,-12.94565 -8.87431,-14.028185 -0.60174,-1.150652 -3.47329,-2.899201 -6.91285,-4.209394 -3.23595,-1.232632 -6.19896,-2.385983 -6.58447,-2.563004 -0.38552,-0.177021 -0.70094,0.258275 -0.70094,0.967324 0,0.709049 1.91065,3.169987 4.24588,5.46875 3.96985,3.907859 11.36855,16.819436 21.60042,37.695195 3.26229,6.655945 4.84322,7.604781 7.95862,4.776574 z m 157.6251,-26.414673 c 0.17148,-1.214472 -0.72005,-3.712932 -2.00719,-5.625 -6.31629,-9.382973 -11.85274,-19.086348 -11.85274,-20.773524 0,-2.232759 -2.35646,-2.531735 -3.17104,-0.402327 -0.99213,2.593522 -0.62507,4.189987 1.66723,7.251502 3.34996,4.474091 8.98045,16.224891 8.98045,18.742169 0,2.887141 0.81577,3.607364 3.70334,3.26957 1.66849,-0.195185 2.46287,-0.925085 2.67995,-2.46239 z M 65.277678,55.42016 66.75087,53.184068 63.808529,54.710367 c -3.795432,1.968829 -4.897201,3.675895 -2.103475,3.259098 1.154688,-0.172268 2.762368,-1.319456 3.572624,-2.549305 z M 487.3164,51.026785 c 0.83668,-0.839285 1.46863,-3.058035 1.46863,-5.15625 0,-4.341507 -1.9346,-4.907373 -5.94873,-1.739991 -2.8419,2.242419 -3.02656,3.394413 -1.00763,6.285857 1.71298,2.453263 3.4572,2.647266 5.48773,0.610384 z M 474.90603,36.344146 c -2.64363,-4.188365 -4.37761,-4.488217 -1.93451,-0.334528 1.0887,1.85096 2.39976,3.365382 2.91349,3.365382 0.51372,0 0.0732,-1.363884 -0.97898,-3.030854 z M 289.56482,125.85938 c -5.51071,-5.98543 -9.11783,-13.55387 -10.16495,-21.32813 -1.07916,-8.012063 -3.2495,-14.392802 -9.72583,-28.59375 -2.23394,-4.898438 -6.62855,-15.234375 -9.76583,-22.96875 -3.13728,-7.734375 -7.26438,-17.143937 -9.17134,-20.910138 -3.87667,-7.656297 -3.65359,-9.386943 1.39731,-10.840046 2.3948,-0.688969 3.59309,-0.377557 7.18766,1.867938 4.09906,2.560634 4.86695,3.796791 15.4295,24.838406 6.22473,12.400255 11.78377,24.775502 12.63392,28.125 1.44269,5.684038 5.88006,13.763745 10.12872,18.442731 l 1.95126,2.148881 1.64846,-2.148881 c 1.13974,-1.485734 1.65046,-1.714916 1.65493,-0.742641 0.004,0.773437 -0.37717,2.014491 -0.84607,2.7579 -0.5916,0.93795 -0.20567,2.122819 1.26089,3.87117 1.16238,1.38573 3.48601,6.33799 5.16362,11.00501 1.67761,4.66703 3.64001,8.71254 4.3609,8.99004 1.67833,0.64604 1.69484,3.764 0.0273,5.15226 -2.40937,2.00585 -4.51461,-0.17387 -8.94465,-9.26115 l -4.42916,-9.08548 -2.12072,1.72263 c -2.59372,2.10683 -5.49217,2.19933 -8.24775,0.26321 -1.72992,-1.21547 -2.0771,-1.23749 -2.0771,-0.13169 0,2.88102 5.77702,12.4357 8.44908,13.97404 3.39838,1.9565 3.50947,3.31736 0.36858,4.51526 -3.33988,1.27379 -3.50511,1.22923 -6.16872,-1.66382 z m 5.52863,1.04972 c 2.81257,-0.75609 2.65021,-1.88949 -0.50512,-3.52627 -3.60206,-1.86852 -8.60703,-11.76849 -8.60703,-17.02493 0,-3.33343 -0.48905,-4.41651 -2.9211,-6.469338 -1.60659,-1.356093 -3.08593,-2.300259 -3.28742,-2.098153 -0.20147,0.202116 0.0715,3.488981 0.6066,7.304161 0.96928,6.9107 4.72207,14.80911 9.64331,20.29606 2.08606,2.32584 2.07727,2.3232 5.07076,1.51847 z m 17.83913,-3.54195 c 0.17366,-0.89855 -0.32698,-2.12922 -1.11254,-2.73482 -0.78557,-0.60559 -2.91168,-5.08965 -4.72468,-9.96455 -2.57375,-6.92045 -4.20947,-9.77944 -7.46169,-13.041827 l -4.16533,-4.178342 -0.65479,3.501223 c -0.57825,3.092006 -0.31608,3.851776 2.24301,6.500346 1.59378,1.6495 4.83649,6.99483 7.20602,11.87848 2.36951,4.88365 4.79801,9.19156 5.39664,9.57312 1.5571,0.99247 2.90739,0.35983 3.27336,-1.53363 z M 296.07476,108.5625 c 1.59967,-1.60467 1.38614,-3.96915 -0.51426,-5.69436 -1.3747,-1.24797 -2.195,-1.30936 -5.14018,-0.38464 -4.04053,1.26861 -4.59896,3.51616 -1.42733,5.74459 2.47972,1.74229 5.53447,1.88654 7.08177,0.33441 z m -4.48144,-7.31494 c 1.10964,-0.59571 1.97513,-2.440423 2.36332,-5.037232 0.54512,-3.646478 0.24855,-4.651927 -2.69555,-9.138186 -1.81945,-2.77249 -3.81375,-7.150267 -4.43181,-9.728392 -0.61806,-2.578125 -1.26608,-4.857373 -1.44007,-5.064996 -0.17397,-0.207623 -1.19385,0.741596 -2.2664,2.109375 -1.07254,1.367779 -2.59482,2.486871 -3.38284,2.486871 -0.78803,0 -2.57921,0.967684 -3.98043,2.150408 -1.94114,1.638472 -2.36721,2.587012 -1.78972,3.984375 0.41686,1.008682 1.62067,4.213424 2.67514,7.121649 1.46876,4.050849 2.93009,6.079271 6.24744,8.671871 4.58783,3.585527 5.89243,3.952017 8.70092,2.444257 z m -15.9515,-22.894868 c 0.8672,-1.04818 0.67993,-2.16932 -0.87211,-5.221074 -1.08705,-2.137447 -5.74639,-12.400064 -10.35411,-22.805817 -4.60771,-10.405753 -9.29089,-20.185176 -10.40705,-21.732051 -1.65805,-2.297872 -1.71067,-2.555186 -0.28756,-1.40625 1.79832,1.451857 3.57735,5.099783 15.88776,32.578125 6.37098,14.220815 7.50738,16.171875 9.41936,16.171875 2.34566,0 5.08403,-3.139191 5.08403,-5.828196 0,-0.913548 -4.67951,-11.050147 -10.3989,-22.525775 -9.59406,-19.249946 -10.7153,-21.070059 -14.48715,-23.517134 -3.20037,-2.076318 -4.71064,-2.515232 -6.95398,-2.020973 -1.57614,0.34726 -3.10586,1.259155 -3.39937,2.026433 -0.29352,0.767277 0.99406,4.418902 2.86129,8.114722 1.86722,3.69582 5.53415,11.99311 8.14873,18.438423 11.66414,28.75374 12.98598,31.079491 15.75906,27.727692 z M 359.99999,115.125 c -1.69371,-1.699 -1.40439,-3.45432 2.00549,-12.16721 2.70733,-6.917731 2.95818,-8.221624 1.86916,-9.7156 -1.57482,-2.160425 -1.6085,-8.586108 -0.0611,-11.6538 0.74618,-1.47928 2.51634,-2.695156 4.89276,-3.360717 2.21593,-0.620612 4.14891,-1.888961 4.77406,-3.132554 1.89675,-3.773172 6.09802,-7.424127 10.97529,-9.537644 7.83135,-3.393645 18.04603,-3.406607 43.11442,-0.05471 11.82243,1.580778 23.38785,2.993244 25.70093,3.138814 3.49461,0.219927 4.20561,0.581662 4.20561,2.139673 0,1.422953 -1.1266,2.24034 -4.6729,3.390356 -4.08733,1.325468 -7.00446,1.399293 -23.2794,0.589143 -18.51689,-0.921751 -19.65971,-0.848564 -32.8643,2.104673 -2.09399,0.468325 -6.02643,2.349568 -8.73877,4.180539 -2.71231,1.830972 -5.46657,3.32904 -6.12054,3.32904 -1.80072,0 -2.51955,9.442922 -0.86201,11.323819 1.70127,1.930518 1.62559,2.733703 -0.52171,5.537168 -2.18846,2.85719 -3.31948,2.08021 -1.80989,-1.243325 0.86175,-1.897228 0.85144,-2.746003 -0.0465,-3.831356 -1.43815,-1.738275 -6.65067,-0.922725 -7.98291,1.249013 -1.73785,2.832948 -6.09165,13.631928 -6.09165,15.109508 0,1.45757 -1.70818,3.73017 -2.80374,3.73017 -0.30841,0 -1.06542,-0.50625 -1.68224,-1.125 z m 3.37545,-2.23394 c 1.12826,-6.9603 10.08167,-23.723754 15.27879,-28.606426 4.196,-3.942128 4.48441,-5.840215 1.21402,-7.989757 -3.47163,-2.281802 -6.30185,-0.669896 -7.83464,4.462074 -0.67106,2.24681 -2.99963,8.093302 -5.1746,12.992204 -5.44892,12.273165 -7.44185,18.238675 -6.72184,20.120845 0.77359,2.02224 2.85371,1.39341 3.23827,-0.97894 z m 5.01802,-26.875435 c 0.80355,-0.644531 1.93153,-2.594937 2.50659,-4.334236 l 1.04559,-3.16236 -2.9997,0.601813 c -3.73857,0.750052 -4.27733,1.291226 -5.02656,5.04908 -0.51165,2.566234 -0.33131,3.017578 1.20572,3.017578 0.99405,0 2.46481,-0.527344 3.26836,-1.171875 z m 19.52779,-5.907164 c 4.67328,-3.154715 7.6242,-4.198815 16.28434,-5.761756 l 3.73832,-0.674673 -3.05552,-0.334272 c -1.96426,-0.214888 -3.58811,-1.149628 -4.54674,-2.617266 -1.37414,-2.103764 -1.36355,-2.478439 0.13491,-4.772536 l 1.62614,-2.489544 -6.62915,0.5575 c -3.64603,0.306626 -8.64017,1.449539 -11.09809,2.539807 -6.28827,2.789317 -12.60346,9.054227 -7.8771,7.814394 1.01035,-0.265038 2.84602,0.506873 4.40565,1.852609 2.41114,2.080456 2.56421,2.547885 1.55905,4.760866 -1.48359,3.2663 -0.42546,3.096647 5.45819,-0.875129 z m 64.24556,-6.551031 c 6.19192,-1.84455 6.63818,-4.18243 0.79835,-4.18243 -2.2243,0 -13.4418,-1.265625 -24.92779,-2.8125 -11.48599,-1.546875 -21.6521,-2.8125 -22.59135,-2.8125 -1.71418,0 -5.44603,3.089285 -5.44603,4.508316 0,0.417074 0.56136,1.528432 1.24748,2.469686 1.09822,1.506596 3.81003,1.84948 22.66355,2.865606 11.77883,0.63483 21.86543,1.210971 22.41466,1.280314 0.54923,0.06935 3.17773,-0.523078 5.84113,-1.316492 z M 57.982617,98.510025 C 55.45261,93.767897 60.218444,89.237549 80.841118,76.781013 89.579436,71.502883 97.917781,66.200732 99.370772,64.998457 100.82375,63.79618 102.44655,62.8125 102.97697,62.8125 c 1.52695,0 12.91088,-8.684319 12.91088,-9.849166 0,-2.871937 11.03622,-10.206121 21.75329,-14.456276 7.697,-3.052461 10.46148,-3.507265 11.46067,-1.885483 1.0726,1.740921 -2.14805,4.202072 -8.39266,6.413495 l -6.0538,2.143852 2.00695,2.723039 c 2.32298,3.151807 3.0857,3.34329 4.34266,1.090223 0.50101,-0.898048 1.2047,-1.338117 1.56376,-0.977932 1.05414,1.057435 -0.37386,3.687375 -2.2726,4.185461 -0.96279,0.252561 -2.20299,1.455383 -2.75602,2.672938 -0.63114,1.389532 -2.39849,2.63239 -4.74694,3.338199 -3.17719,0.954887 -3.60649,1.377352 -2.84673,2.801422 1.81627,3.404329 0.92167,5.260151 -4.47914,9.291862 -2.95561,2.206364 -4.56039,3.097229 -3.56616,1.979701 0.99421,-1.117529 3.20216,-2.896408 4.90654,-3.953066 2.13314,-1.322474 3.09887,-2.631131 3.09887,-4.199269 0,-2.177556 -0.22842,-2.091447 -5.17655,1.951462 -2.84712,2.326246 -5.47562,4.216173 -5.84113,4.199838 -0.36551,-0.01633 0.5965,-0.965554 2.1378,-2.109375 1.5413,-1.143821 4.03787,-3.181207 5.54792,-4.527523 l 2.74556,-2.447848 -2.74418,-4.114652 -2.74419,-4.114652 -3.87353,0.937838 c -2.13045,0.515811 -6.35641,2.742169 -9.39103,4.947462 -3.03462,2.205291 -6.96909,4.736389 -8.74329,5.624661 -2.884727,1.444281 -3.213587,1.997339 -3.110335,5.230858 0.08916,2.793397 0.857411,4.360094 3.377505,6.888058 l 3.26205,3.272237 4.42815,-3.390655 c 4.28697,-3.282536 10.45979,-6.949597 6.91685,-4.109052 -0.8394,0.672976 -3.57304,2.663012 -6.07477,4.422301 -2.50174,1.75929 -4.03744,3.371618 -3.41267,3.582951 0.62475,0.211334 2.93784,-0.839884 5.14018,-2.336041 5.06939,-3.443878 6.3407,-4.184966 6.3407,-3.696178 0,1.153235 -10.66128,7.27329 -11.86384,6.810382 -0.77775,-0.299385 -10.331631,3.684794 -21.291367,8.878971 -22.083321,10.466007 -25.871094,11.631387 -27.553756,8.477482 z m 27.12434,-9.171465 19.474393,-9.18231 -2.76063,-2.797142 -2.76063,-2.797142 -14.491048,7.250267 c -7.970078,3.987647 -14.802992,7.228 -15.184253,7.200785 -0.381262,-0.02722 5.970555,-3.424861 14.115148,-7.550323 C 97.936099,74.150377 98.292408,73.89837 97.676305,71.435974 97.328716,70.046739 96.897632,68.76294 96.718342,68.583086 96.539043,68.403232 89.318556,72.546251 80.672809,77.789795 60.980763,89.732788 57.061713,93.234816 58.456242,97.642322 c 0.987219,3.120168 5.217733,1.802034 26.650715,-8.303762 z M 124.72143,50.737431 c 2.93657,-2.659856 9.72503,-6.329229 15.93277,-8.612146 5.91324,-2.174617 7.94393,-3.386308 7.94393,-4.740077 0,-1.524664 -3.64898,-0.838845 -10.95699,2.05935 -10.13805,4.020528 -20.81871,10.862345 -20.81871,13.336049 0,1.387827 5.75432,-0.100603 7.899,-2.043176 z m 128.47762,35.894326 c -1.83986,-2.223825 -25.16619,-13.705624 -26.66899,-13.127143 -0.71303,0.274472 -1.29642,1.290644 -1.29642,2.258162 0,2.156382 -3.24928,5.276068 -4.61401,4.429984 -0.5464,-0.338754 -0.99347,-1.856644 -0.99347,-3.373088 0,-2.104228 -0.42959,-2.757172 -1.814,-2.757172 -0.9977,0 -2.0269,-0.345539 -2.28709,-0.767865 -0.2602,-0.422326 0.70702,-0.59412 2.14938,-0.381764 2.51778,0.370686 2.64775,0.195033 3.25537,-4.399804 0.3481,-2.632247 0.87301,-5.413578 1.16648,-6.180735 0.40168,-1.050044 -0.24195,-1.429554 -2.60379,-1.535299 -3.09027,-0.138359 -3.09528,-0.145545 -0.33364,-0.478547 1.54206,-0.185943 4.36721,-0.818555 6.2781,-1.405805 2.66429,-0.818775 3.79371,-0.801864 4.84401,0.07252 1.10637,0.921073 1.76195,0.746719 3.41057,-0.907051 1.66846,-1.673672 2.79121,-1.962472 6.15207,-1.582471 4.8466,0.547989 5.65895,-0.265099 3.52656,-3.529714 -2.07521,-3.177062 -0.75389,-4.374853 1.53276,-1.389466 1.92957,2.519204 2.3487,5.176298 0.95298,6.041594 -0.48017,0.29769 -0.63913,1.987186 -0.35324,3.754435 0.74635,4.613607 -0.30813,7.766644 -3.08565,9.226484 l -2.41903,1.271418 4.5337,2.842026 c 2.49354,1.563116 6.38801,3.849298 8.65438,5.080407 5.40763,2.937464 6.79077,5.159369 4.34556,6.980789 -2.29701,1.711035 -2.81358,1.694116 -4.33259,-0.141901 z m 3.71283,-0.301496 c 2.16729,-1.376608 0.45836,-3.616571 -4.76517,-6.245928 -2.72276,-1.370541 -6.94909,-3.918943 -9.39187,-5.663114 C 240.31206,72.677048 237.65591,71.25 236.85227,71.25 c -0.80362,0 -2.22168,-0.4083 -3.15122,-0.907333 -1.25395,-0.673184 -2.07537,-0.480283 -3.18302,0.747493 -1.403,1.555138 -0.81499,1.991004 9.76106,7.235458 6.1897,3.069347 11.9205,6.318913 12.73511,7.221257 1.68057,1.861584 2.0753,1.940918 3.89768,0.783386 z m -33.77716,-7.814636 c 0.51353,-0.644531 1.22291,-3.703125 1.57637,-6.796875 0.54024,-4.7283 1.10279,-6.013378 3.52889,-8.061296 2.95753,-2.496508 2.92139,-4.594954 -0.0791,-4.594954 -3.32404,0 -5.01493,2.417542 -6.28005,8.978887 -1.97398,10.23765 -1.5277,13.965452 1.25393,10.474238 z m 6.80151,-7.77026 c 0.56401,-0.681732 0.89321,-2.725528 0.73155,-4.54177 -0.28784,-3.233562 -0.33524,-3.269052 -2.27856,-1.706051 -1.09155,0.877913 -2.2138,3.129748 -2.49391,5.004077 -0.44796,2.997461 -0.29706,3.352194 1.25306,2.945564 0.96929,-0.254268 2.22383,-1.020087 2.78786,-1.70182 z m 10.25068,-1.161766 c 0,-0.400894 -0.65469,-1.666519 -1.45486,-2.8125 -1.92681,-2.759491 -6.95636,-2.943993 -6.95636,-0.255183 0,1.005628 0.73598,2.258424 1.63552,2.783991 1.93189,1.128745 6.7757,1.33155 6.7757,0.283692 z m -34.57944,2.919014 c -2.30717,-0.362445 -4.39924,-0.834333 -32.53079,-7.337635 -13.49418,-3.119515 -20.76807,-5.747298 -22.15926,-8.005309 -1.26477,-2.052848 2.21732,-5.377359 6.78305,-6.476085 5.15438,-1.240381 14.20475,-0.148374 37.62663,4.539984 11.90389,2.382803 22.67156,5.634151 18.69158,5.644016 -0.77102,0.0019 -2.45327,-0.599439 -3.73831,-1.336334 -3.68174,-2.111246 -4.82306,-1.825067 -3.58571,0.899096 0.83143,1.830485 0.74266,2.771452 -0.43094,4.568185 -1.84366,2.822579 -1.07225,6.136477 1.55823,6.693973 1.09512,0.232097 2.83225,0.600419 3.86029,0.818493 2.35595,0.499763 -2.88619,0.492528 -6.07477,-0.0083 z m -0.93458,-2.544071 c 0,-0.710302 -0.57694,-1.771773 -1.28209,-2.358825 C 202.4474,66.814322 160.87191,58.125 158.05744,58.125 c -0.23377,0 -0.21783,-0.207865 0.0354,-0.461922 0.47651,-0.477994 42.09988,7.342441 44.87283,8.430962 1.96923,0.773018 3.92856,-2.566436 3.07977,-5.2491 -0.81543,-2.577248 -2.71508,-3.246546 -16.79313,-5.916647 -19.93534,-3.781019 -26.98848,-4.528385 -31.52105,-3.340033 -3.66643,0.961269 -6.32942,2.989981 -6.32942,4.821871 0,1.729715 8.31721,4.729398 21.67482,7.817236 7.86857,1.818953 17.4607,4.102158 21.31584,5.07379 8.68688,2.189404 10.28037,2.2913 10.28037,0.657385 z"
       id="path3520"
       inkscape:connector-curvature="0" />
  </g>
</svg>
