<?xml version="1.0" encoding="UTF-8" standalone="no"?>
<!-- Created with Inkscape (http://www.inkscape.org/) -->

<svg
   xmlns:dc="http://purl.org/dc/elements/1.1/"
   xmlns:cc="http://creativecommons.org/ns#"
   xmlns:rdf="http://www.w3.org/1999/02/22-rdf-syntax-ns#"
   xmlns:svg="http://www.w3.org/2000/svg"
   xmlns="http://www.w3.org/2000/svg"
   xmlns:sodipodi="http://sodipodi.sourceforge.net/DTD/sodipodi-0.dtd"
   xmlns:inkscape="http://www.inkscape.org/namespaces/inkscape"
   version="1.1"
   width="403"
   height="213"
   id="svg2"
   inkscape:version="0.91 r13725"
   sodipodi:docname="fx620103.svg">
  <sodipodi:namedview
     pagecolor="#ffffff"
     bordercolor="#666666"
     borderopacity="1"
     objecttolerance="10"
     gridtolerance="10"
     guidetolerance="10"
     inkscape:pageopacity="0"
     inkscape:pageshadow="2"
     inkscape:window-width="1347"
     inkscape:window-height="889"
     id="namedview11"
     showgrid="false"
     inkscape:zoom="0.73200993"
     inkscape:cx="32.786441"
     inkscape:cy="106.5"
     inkscape:window-x="0"
     inkscape:window-y="0"
     inkscape:window-maximized="0"
     inkscape:current-layer="svg2" />
  <metadata
     id="metadata8">
    <rdf:RDF>
      <cc:Work
         rdf:about="">
        <dc:format>image/svg+xml</dc:format>
        <dc:type
           rdf:resource="http://purl.org/dc/dcmitype/StillImage" />
        <dc:title />
      </cc:Work>
    </rdf:RDF>
  </metadata>
  <defs
     id="defs6" />
  <g
     id="g2987"
     transform="translate(15.964078,4.7384237)">
    <path
       d="m 336.38411,183.75 c -0.0128,-3.4375 -0.61709,-14.8 -1.34295,-25.25 -1.27513,-18.35768 -1.25318,-19.11832 0.64955,-22.5 2.16366,-3.84543 5.27937,-4.9459 7.25689,-2.56314 1.01495,1.22294 1.04784,4.45098 0.16249,15.94473 -1.51467,19.66372 -1.45527,35.10164 0.13991,36.35808 0.6875,0.5415 2.4875,1.28018 4,1.64149 5.04002,1.204 2.85397,2.61884 -4.04635,2.61884 l -6.79634,0 -0.0232,-6.25 z M 35.570849,179.96726 c -1.554853,-5.54146 -1.566912,-6.6205 -0.148083,-13.25 0.849541,-3.96949 2.012286,-12.84226 2.583879,-19.71726 0.593023,-7.13276 1.742848,-14.1194 2.677876,-16.2715 2.011928,-4.63072 5.563701,-5.92472 8.420595,-3.06783 1.897543,1.89754 1.878255,2.12238 -1.448169,16.88124 C 41.690116,171.01589 40,179.45181 40,182.76026 c 0,5.48483 -2.559349,3.87092 -4.429151,-2.793 z m 276.213251,-9.468 c -2.54245,-1.72764 -5.13981,-5.20555 -8.40169,-11.25 -2.59683,-4.81209 -7.34522,-13.41853 -10.55196,-19.12541 -3.20675,-5.70688 -5.82431,-11.33188 -5.8168,-12.5 0.0371,-5.76221 2.43515,-8.52439 5.8255,-6.70993 1.82949,0.97911 10.13548,17.05676 12.18497,23.58608 0.69056,2.2 3.66764,8.83 6.61572,14.73334 7.07516,14.16751 7.09851,15.99146 0.14426,11.26592 z M 71,145.39434 c 0,-0.33311 0.686023,-3.2531 1.524495,-6.48887 1.176303,-4.5395 3.898415,-9.25464 11.918248,-20.64435 5.716563,-8.11861 11.315659,-15.31814 12.442435,-15.99894 2.369693,-1.43178 6.508892,-0.28359 7.406062,2.05439 0.55543,1.44744 -0.96445,3.43082 -17.765749,23.18343 -4.210401,4.95 -8.863574,11.13102 -10.340383,13.73559 -1.476809,2.60458 -3.247608,4.74208 -3.935108,4.75 -0.6875,0.008 -1.25,-0.25813 -1.25,-0.59125 z M 233.66667,112.33333 C 233.3,111.96667 233,110.72113 233,109.56547 c 0,-2.2542 -3.73669,-8.3985 -7.73671,-12.721618 -2.86407,-3.095401 -2.41173,-6.310266 1.01391,-7.20609 2.84657,-0.744396 4.15429,0.704853 6.19208,6.862238 0.91012,2.75 2.476,6.40205 3.47975,8.11566 2.68046,4.57612 0.83075,10.83079 -2.28236,7.71767 z m 103.9852,-3.34552 c -0.97864,-1.65671 -3.66317,-3.95258 -5.96561,-5.10193 -6.61935,-3.30431 -13.6323,-8.267247 -13.66047,-9.667265 -0.0457,-2.27238 3.00551,-2.536223 5.27509,-0.45614 1.20952,1.108526 5.43632,3.695936 9.39289,5.7498 C 339.90633,103.25633 344,106.31399 344,107.95717 c 0,4.66811 -3.83193,5.29023 -6.34813,1.03064 z m -151.54542,-0.3745 c -3.94827,-4.20274 -1.73923,-9.490913 3.42338,-8.19518 3.24609,0.81472 4.01973,2.84091 2.49249,6.52798 -1.60787,3.88175 -3.36911,4.3781 -5.91587,1.6672 z M 270.2,108.8 c -3.27235,-3.27235 1.93047,-7.20369 9.20658,-6.95665 5.3472,0.18156 7.10233,-0.52272 12.9934,-5.213838 2.96415,-2.360384 3.87088,-2.64961 5.10238,-1.627555 1.9807,1.643839 1.89289,2.922302 -0.25236,3.674079 -0.9625,0.337296 -3.1,1.844274 -4.75,3.348834 -2.07502,1.89213 -4.44155,2.8862 -7.67542,3.22411 -2.62498,0.27428 -5.86367,1.42321 -7.38486,2.61978 -3.04624,2.39617 -5.46382,2.70714 -7.23972,0.93124 z m -54.28884,-3.67086 c -2.21263,-1.79168 -2.24005,-1.97825 -0.64783,-4.40827 0.91442,-1.395585 2.9979,-3.203571 4.62996,-4.01775 2.80432,-1.398981 3.09485,-1.344002 5.28705,1.000509 l 2.31966,2.480831 -4,3.3929 c -2.2,1.86609 -4.28765,3.39958 -4.63922,3.40776 -0.35156,0.008 -1.6789,-0.82701 -2.94962,-1.85598 z M 53,102 c -2.730904,-2.730904 -2.509759,-4.833954 0.590122,-5.611975 1.424567,-0.357544 6.037067,-3.198792 10.25,-6.313884 13.588599,-10.047572 17.288966,-12.345053 18.282683,-11.351336 1.866033,1.866033 -0.419393,4.183039 -9.611884,9.7447 C 65.397804,92.771099 62.367443,95.29693 59.831892,99.03558 57.999351,101.73765 56.1625,103.96003 55.75,103.97421 55.3375,103.9884 54.1,103.1 53,102 Z m 286.75,0.60795 c -2.04059,-1.54903 -2.20478,-3.515707 -0.58948,-7.060897 C 340.06688,93.557797 341.05237,93 343.66052,93 346.87344,93 347,93.147237 347,96.88499 c 0,3.025718 -0.54516,4.24219 -2.46482,5.5 -2.90853,1.90574 -2.58806,1.89081 -4.78518,0.22296 z M 154,100.56343 C 154,98.462522 167.08615,90 170.33493,90 c 3.07633,0 11.61121,4.025253 13.58976,6.409257 0.71448,0.8609 1.03784,2.246004 0.71857,3.078008 -0.96549,2.516015 -4.56254,1.712775 -9.14487,-2.042093 l -4.3382,-3.554828 -6.08009,3.069223 C 161.73604,98.64764 159,100.47231 159,101.0144 c 0,0.54208 -1.125,0.9856 -2.5,0.9856 -1.50649,0 -2.5,-0.5709 -2.5,-1.43657 z m 115.65499,-1.392171 c -2.29693,-2.538079 -2.07221,-4.430669 0.8523,-7.178107 2.45787,-2.309054 2.53656,-2.317416 3.99283,-0.424314 2.61042,3.393479 2.98956,6.59993 0.95621,8.086753 -2.47126,1.807029 -3.83038,1.693559 -5.80134,-0.484332 z M 63,96.099004 c 0,-0.576204 1.445273,-1.795023 3.211717,-2.708487 l 3.211717,-1.660844 -1.581197,2.385164 C 66.191996,96.604151 63,97.912111 63,96.099004 Z m 75.36468,-3.051611 c -1.72442,-0.411337 -4.49389,-1.715274 -6.15437,-2.897639 C 130.54983,88.967389 128.10923,88 126.78676,88 c -5.59269,0 -7.96734,-6.297551 -3.05512,-8.102139 1.83049,-0.67246 3.44832,0.159556 9,4.628498 6.50932,5.239809 8.58229,6.05118 14.46174,5.660403 3.07342,-0.204276 4.74348,1.60574 2.68474,2.909729 -1.62396,1.028599 -7.09324,1.005276 -11.51344,-0.0491 z M 60,90.684925 c 0,-2.110596 3.861817,-5.223108 5.030494,-4.054431 0.644316,0.644316 -0.05323,1.749528 -2.023628,3.206309 C 60.866865,91.418974 60,91.663484 60,90.684925 Z m 69.89322,-9.570309 c -1.99611,-1.616352 -2.13714,-2.115781 -0.98834,-3.5 1.59948,-1.927263 5.05354,-2.096722 7.42294,-0.364176 1.56783,1.146425 1.57901,1.437565 0.13443,3.5 -1.92153,2.743362 -3.52133,2.832052 -6.56903,0.364176 z M 165.96555,78.75 c -0.54537,-1.2375 -2.09258,-11.009655 -3.43825,-21.715901 -2.59151,-20.618325 -2.55384,-20.985748 2.15531,-21.018786 2.6028,-0.01826 2.49402,-0.351065 5.84031,17.868379 1.45298,7.911031 3.11772,15.428254 3.69942,16.704941 1.40911,3.092666 -0.52568,7.772916 -3.83698,9.281647 -3.26562,1.487915 -3.27098,1.486556 -4.41981,-1.12028 z m 79.34982,1.24302 c -2.84806,-1.147512 -4.63561,-4.580941 -3.90354,-7.497732 0.71506,-2.849022 2.29742,-3.137793 24.58817,-4.487165 25.22184,-1.526807 45,-1.346971 45,0.409169 0,1.829637 -8.27986,5.004293 -11.11683,4.262407 -3.19271,-0.834912 -43.32368,4.979615 -46.80941,6.782157 -3.32704,1.720478 -4.59168,1.80706 -7.75839,0.531164 z M 159.16564,25.601849 c -1.43949,-11.713348 -1.44027,-11.605599 0.0844,-11.584783 1.5771,0.02153 5.46741,8.975765 6.6182,15.232934 0.77652,4.222219 0.6748,4.75 -0.91552,4.75 -0.98401,0 -2.42637,0.244542 -3.20525,0.543427 -1.11474,0.427766 -1.66425,-1.475344 -2.58179,-8.941578 z"
       id="path2997"
       style="fill:#fefefe"
       inkscape:connector-curvature="0" />
    <path
       d="m 334.53587,124.15818 c 0.0708,-6.962 0.21179,-13.78318 0.31329,-15.15818 0.18211,-2.46717 0.21187,-2.45732 2.26589,0.75 1.14474,1.7875 2.92133,3.25 3.94797,3.25 2.36904,0 4.23195,-3.40452 3.4406,-6.28777 -0.59128,-2.15429 -0.56654,-2.16139 0.9446,-0.2711 1.94377,2.43148 1.9565,6.74577 0.0518,17.55887 -0.8235,4.675 -1.49788,8.61631 -1.49863,8.75847 -7.5e-4,0.14216 -0.90293,-0.30455 -2.00483,-0.9927 -2.33852,-1.46044 -4.86966,-0.30354 -6.54298,2.99057 -0.77635,1.52833 -1.0132,-1.20703 -0.91769,-10.59816 z M 39.472253,129 c 0.322971,-1.375 1.726651,-7.45 3.119288,-13.5 C 45.774892,101.67064 50.198804,93.819886 54.684259,94.040038 55.132916,94.062058 54.2625,94.75143 52.75,95.571975 51.2375,96.39252 50,97.529086 50,98.097679 c 0,1.928201 2.036854,4.851681 4.179049,5.998141 1.807919,0.96757 2.425456,0.78046 4.049682,-1.22708 l 1.91647,-2.36874 -0.649569,4 c -0.357264,2.2 -1.919462,6.025 -3.471552,8.5 -1.55209,2.475 -3.12605,6.075 -3.497688,8 -1.397915,7.24088 -1.474197,7.35721 -3.576663,5.45451 -2.513392,-2.27459 -6.451778,-1.20283 -8.481934,2.3082 -1.556679,2.69218 -1.573085,2.69609 -0.995542,0.23729 z m 245.137527,-3.67739 c -0.5095,-2.19718 -2.36799,-4.43584 -6.02441,-7.25675 -2.90819,-2.24365 -6.07103,-4.94503 -7.02854,-6.00306 -1.67077,-1.84618 -1.65374,-1.9009 0.42249,-1.35796 1.33152,0.3482 3.20087,-0.20127 4.86139,-1.42895 5.0145,-3.70738 6.73212,-3.70249 9.57694,0.0272 1.42029,1.8621 2.58235,3.83592 2.58235,4.38626 0,0.55035 0.9,1.81511 2,2.8106 2.03491,1.84157 2.80537,4.11578 1.02067,3.01277 -1.89538,-1.1714 -4.82244,1.48731 -5.74318,5.21664 l -0.93093,3.77059 -0.73678,-3.17739 z M 104.69361,103.64395 c -0.961,-2.50434 -5.56707,-3.987466 -7.501531,-2.41545 -3.385826,2.75146 2.435374,-5.704405 8.240881,-11.970682 5.91472,-6.384168 10.37801,-9.348673 16.06704,-10.671682 2.98104,-0.693255 2.98578,-0.687474 0.75,0.914804 -3.0748,2.203562 -2.87621,5.876082 0.4487,8.298116 l 2.69871,1.96587 -5.44871,2.687227 c -3.0693,1.513738 -7.44963,4.909666 -10.03071,7.776497 -3.69682,4.10607 -4.70611,4.76587 -5.22438,3.4153 z M 177.87244,101.25 c -1.19363,-1.521995 -1.17701,-1.601159 0.12756,-0.60761 0.825,0.62832 2.4,1.36362 3.5,1.634 1.89963,0.46694 1.89323,0.49743 -0.12756,0.60761 -1.17015,0.0638 -2.74515,-0.6715 -3.5,-1.634 z m 6.05368,-5.839019 C 182.0242,93.119301 173.46206,89 170.60063,89 c -1.69889,0 -2.66701,-0.699825 -3.11259,-2.25 -0.3557,-1.2375 -0.88424,-3.093853 -1.17452,-4.125229 -0.33297,-1.183051 -0.12997,-1.629363 0.54998,-1.209134 1.66077,1.026413 6.90383,-2.122004 7.75143,-4.65467 0.64512,-1.927642 0.87292,-1.611523 1.54522,2.144261 0.50456,2.818694 2.15152,6.060027 4.57302,9 2.08145,2.527125 4.36484,5.34221 5.0742,6.255744 1.67003,2.150718 -0.13715,3.351515 -1.88125,1.250009 z m 36.10984,-3.140745 c -0.10598,-6.571146 6.24876,-14.313868 15.70901,-19.140129 5.17724,-2.641231 5.07683,-2.648732 4.50614,0.336603 -0.34437,1.801459 0.34652,3.284762 2.56175,5.5 1.99634,1.996333 2.52399,3.03329 1.5435,3.03329 -2.44149,0 -8.34032,5.069766 -10.37295,8.915054 -1.04226,1.97172 -1.91491,2.86719 -1.93921,1.989934 -0.0243,-0.877257 -0.87912,-2.350607 -1.89958,-3.274111 -2.25658,-2.042173 -4.80559,-1.304587 -7.85866,2.273994 -2.1846,2.560627 -2.21451,2.565485 -2.25,0.365365 z"
       id="path2993"
       style="fill:#fefe00"
       inkscape:connector-curvature="0" />
    <path
       d="m 71,117.74682 c 0,-0.13925 0.853687,-3.17675 1.897083,-6.75 C 75.730868,101.29214 79.829467,92.95566 83.834651,88.75 86.501714,85.94944 86.974737,85 85.702948,85 82.715754,85 83.871884,83.358367 87.75,82.093311 c 2.0625,-0.672795 4.3125,-1.456524 5,-1.741621 1.861401,-0.771896 1.519032,2.200639 -0.770324,6.688148 C 89.878198,91.159075 87.377789,92.487341 88.289749,89 89.712544,83.559224 84.056345,89.837933 79.708915,98.525223 78.325775,101.2891 76.206608,106.8016 74.999656,110.77522 73.792704,114.74885 72.399028,118 71.902599,118 71.406169,118 71,117.88607 71,117.74682 Z M 187.5,47.328016 c -4.04338,-2.145566 -4.1605,-2.301768 -2.4968,-3.329994 1.07463,-0.664158 -0.34329,-1.731753 -5.52896,-4.162902 -9.34472,-4.381002 -18.35192,-4.560683 -26.191,-0.522473 C 147.61958,42.230219 147,42.414737 147,41.183869 c 0,-1.187118 10.87752,-6.038108 15.14779,-6.755384 6.70994,-1.127066 22.17362,3.811694 25.0869,8.012205 0.43758,0.630935 0.74088,0.351626 0.75,-0.69069 0.027,-3.084165 1.66177,-1.873382 2.85702,2.11602 1.78315,5.951624 1.63646,6.103594 -3.34171,3.461996 z"
       id="path2991"
       style="fill:#fe0000"
       inkscape:connector-curvature="0" />
    <path
       d="m 170.20524,190.25002 164.70525,-0.25595 0.65815,-3.50827 c 0.36199,-1.92955 0.10173,-7.21571 -0.57835,-11.74703 -1.44098,-9.60109 -2.25898,-61.3151 -1.03726,-65.57499 0.76433,-2.66507 0.53973,-3.03333 -2.81116,-4.60926 -6.32298,-2.9737 -14.22811,-8.86987 -13.92835,-10.388676 0.15757,-0.798313 1.05376,-1.934651 1.99154,-2.525197 1.32406,-0.833794 2.21786,-0.616144 4,0.97404 4.51291,4.026837 14.58793,8.778303 10.99494,5.185313 -1.48376,-1.483764 -1.5786,-6.447981 -0.14016,-7.336984 0.66892,-0.413416 0.39636,-1.14017 -0.73897,-1.970341 C 331.14924,86.904743 330,87.446802 330,90.059017 330,91.126558 329.55,92 329,92 c -1.29827,0 -1.28015,-2.608011 0.0352,-5.065741 1.02211,-1.909814 3.97238,-2.593362 5.33068,-1.235061 0.38456,0.384559 2.74656,0.573296 5.24889,0.419416 6.55608,-0.403167 8.38525,1.566188 8.38525,9.0279 0,4.674353 -0.38267,6.075516 -1.92179,7.036716 -1.89571,1.18389 -1.89571,1.23332 0,3.64333 2.30076,2.92494 2.4038,6.76597 0.48755,18.17344 -1.76779,10.52363 -3.88043,43.91036 -3.41265,53.93127 0.34088,7.30257 0.39883,7.44511 3.34573,8.23007 1.64936,0.43934 3.48905,1.4692 4.0882,2.28857 0.84967,1.162 4.04026,1.55839 14.50115,1.80157 7.3765,0.17148 -70.51319,0.29889 -173.08819,0.28314 L 5.5,190.50597 170.20524,190.25002 Z M 350,189.01905 c 0,-0.53952 -1.2375,-1.27657 -2.75,-1.63789 -1.5125,-0.36131 -3.3125,-1.09999 -4,-1.64149 -1.59518,-1.25644 -1.65458,-16.69436 -0.13991,-36.35808 0.88535,-11.49375 0.85246,-14.72179 -0.16249,-15.94473 -1.97752,-2.38276 -5.09323,-1.28229 -7.25689,2.56314 -1.90273,3.38168 -1.92468,4.14232 -0.64955,22.5 0.72586,10.45 1.33019,21.8125 1.34295,25.25 l 0.0232,6.25 6.79634,0 C 346.97989,190 350,189.56409 350,189.01905 Z m -11.75346,-57.4136 c 1.28702,-0.80385 2.27367,-0.76167 3.75,0.16032 1.1019,0.68815 2.00408,1.13486 2.00483,0.9927 7.5e-4,-0.14216 0.67513,-4.08347 1.49863,-8.75847 1.90472,-10.8131 1.89199,-15.12739 -0.0518,-17.55887 -1.51114,-1.89029 -1.53588,-1.88319 -0.9446,0.2711 0.79135,2.88325 -1.07156,6.28777 -3.4406,6.28777 -1.02664,0 -2.80323,-1.4625 -3.94797,-3.25 -2.05402,-3.20732 -2.08378,-3.21717 -2.26589,-0.75 -0.1015,1.375 -0.24248,8.19618 -0.31329,15.15818 -0.0955,9.39113 0.14134,12.12649 0.91769,10.59816 0.57554,-1.13302 1.83238,-2.55092 2.79298,-3.15089 z m 5.14647,-21.18724 c 1.40536,-3.6623 -0.51404,-5.61878 -10.69924,-10.905935 -3.95657,-2.053864 -8.18337,-4.641274 -9.39289,-5.7498 -2.26958,-2.080083 -5.32082,-1.81624 -5.27509,0.45614 0.0282,1.400018 7.04112,6.362955 13.66047,9.667265 2.30244,1.14935 4.98697,3.44522 5.96561,5.10193 1.92573,3.25999 4.76738,3.96799 5.74114,1.4304 z m 1.14217,-8.03322 C 346.45484,101.12718 347,99.910708 347,96.88499 347,93.147237 346.87344,93 343.66052,93 c -2.60815,0 -3.59364,0.557797 -4.5,2.547053 -1.6153,3.54519 -1.45111,5.511867 0.58948,7.060897 2.19712,1.66785 1.87665,1.68278 4.78518,-0.22296 z M 36.07494,184.69711 C 33.182228,177.0887 32.869829,173.86795 34.374518,167.16623 35.197714,163.4998 36.367799,153.975 36.974706,146 c 1.074446,-14.11862 4.559896,-32.97128 7.753275,-41.93715 0.870534,-2.44415 3.466042,-6.269805 5.778549,-8.517304 2.447915,-2.379101 4.409214,-5.323663 4.704389,-7.062848 C 55.489341,86.842214 56.05393,84.7125 56.46556,83.75 56.888624,82.760763 56.785486,82 56.228309,82 55.686191,82 54.683452,83.35 54,85 53.316548,86.65 52.136953,88 51.37868,88 50.620406,88 50,87.766058 50,87.480128 c 0,-1.454545 5.193907,-8.478651 6.262545,-8.469304 2.182656,0.01909 10.972618,2.939455 12.391318,4.116871 1.067883,0.886265 2.614447,0.313354 6.981588,-2.586264 4.944223,-3.282779 5.784839,-3.549712 7.084812,-2.24974 2.191483,2.191483 0.26834,4.972457 -5.902291,8.535047 -2.864429,1.653767 -6.376062,4.731792 -7.803628,6.840056 -1.688345,2.493387 -3.496118,3.939321 -5.172016,4.1368 -2.29392,0.270303 -2.642098,0.857966 -3.1752,5.359186 -0.364267,3.07565 -1.758316,6.87307 -3.559592,9.6964 -1.919653,3.00887 -3.493389,7.45403 -4.475279,12.64082 -0.832945,4.4 -2.466873,12.05 -3.630949,17 -3.290296,13.99131 -7.241207,33.48527 -7.902162,38.98958 -0.689389,5.74111 -3.402419,7.47315 -5.024206,3.20753 z M 40,182.76026 c 0,-3.30845 1.690116,-11.74437 7.656947,-38.21835 3.326424,-14.75886 3.345712,-14.9837 1.448169,-16.88124 -2.856894,-2.85689 -6.408667,-1.56289 -8.420595,3.06783 -0.935028,2.1521 -2.084853,9.13874 -2.677876,16.2715 -0.571593,6.875 -1.734338,15.74777 -2.583879,19.71726 -1.418829,6.6295 -1.40677,7.70854 0.148083,13.25 C 37.440651,186.63118 40,188.24509 40,182.76026 Z m 4.565574,-57.36607 c 1.673483,-0.42002 3.140435,-0.0652 4.384155,1.06032 2.102466,1.9027 2.178748,1.78637 3.576663,-5.45451 0.371638,-1.925 1.945598,-5.525 3.497688,-8 1.55209,-2.475 3.114288,-6.3 3.471552,-8.5 l 0.649569,-4 -1.91647,2.36874 c -1.624226,2.00754 -2.241763,2.19465 -4.049682,1.22708 C 52.036854,102.94936 50,100.02588 50,98.097679 c 0,-0.568593 1.2375,-1.705159 2.75,-2.525704 1.5125,-0.820545 2.382916,-1.509917 1.934259,-1.531937 -4.485455,-0.220152 -8.909367,7.630602 -12.092718,21.459962 -1.392637,6.05 -2.796317,12.125 -3.119288,13.5 -0.577543,2.4588 -0.561137,2.45489 0.995542,-0.23729 0.87052,-1.50551 2.71452,-3.02135 4.097779,-3.36852 z M 59.831892,99.03558 c 2.535551,-3.73865 5.565912,-6.264481 12.679029,-10.568075 9.192491,-5.561661 11.477917,-7.878667 9.611884,-9.7447 -0.993717,-0.993717 -4.694084,1.303764 -18.282683,11.351336 -4.212933,3.115092 -8.825433,5.95634 -10.25,6.313884 C 52.165555,96.745568 51,97.704531 51,98.519052 c 0,1.543448 3.445127,5.500028 4.75,5.455158 0.4125,-0.0142 2.249351,-2.23656 4.081892,-4.93863 z m 8.010345,-4.920743 1.581197,-2.385164 -3.211717,1.660844 c -3.356688,1.735811 -4.395388,3.990848 -1.581197,3.432807 0.896786,-0.177828 2.342059,-1.396648 3.211717,-2.708487 z M 65.030494,86.630494 C 63.861817,85.461817 60,88.574329 60,90.684925 c 0,0.978559 0.866865,0.734049 3.006866,-0.848122 1.970401,-1.456781 2.667944,-2.561993 2.023628,-3.206309 z M 310.97765,170.75 c -3.2682,-2.54239 -6.12995,-6.84248 -13.14381,-19.75 -4.9313,-9.075 -10.03283,-18.075 -11.33674,-20 -1.30391,-1.925 -2.6558,-4.66915 -3.00421,-6.09812 -0.36191,-1.48433 -2.7487,-4.21121 -5.56768,-6.361 C 271.44028,113.59542 268,109.40411 268,106.44895 c 0,-1.63535 -0.92389,-2.87535 -2.90604,-3.90036 -1.59833,-0.82653 -3.50818,-2.863084 -4.24411,-4.525683 C 259.17574,94.24084 258.55862,94.237168 257,98 c -0.68345,1.65 -1.67555,3 -2.20465,3 -0.52911,0 -0.80977,-0.3375 -0.6237,-0.75 0.18608,-0.4125 0.99325,-2.449316 1.79372,-4.526257 0.97813,-2.537913 1.92117,-3.597523 2.87575,-3.231216 0.81565,0.312995 2.87528,-0.953049 4.83776,-2.973743 C 265.55845,87.583453 267.80898,86 268.68006,86 c 2.10102,0 8.15558,6.496942 8.93,9.582481 0.34391,1.370243 0.0712,3.096628 -0.62084,3.930505 -1.06042,1.277734 -0.61874,1.484944 3.13834,1.472274 4.6985,-0.0158 6.62428,-0.85914 12.3288,-5.398748 l 3.66111,-2.913488 2.10896,2.108963 c 1.76149,1.761491 1.8964,2.365085 0.81882,3.663488 C 298.33567,99.300464 297.2194,100 296.56465,100 c -0.65476,0 -2.48385,1.35 -4.06465,3 -1.60631,1.67663 -3.91691,3 -5.23798,3 l -2.3638,0 2.55089,3.34439 c 1.40299,1.83942 2.55089,3.79467 2.55089,4.34501 0,0.55035 0.9,1.81511 2,2.8106 1.1,0.99549 2,2.14994 2,2.56545 0,0.41552 1.73344,3.83327 3.8521,7.59502 2.11865,3.76174 5.05413,9.98953 6.52329,13.83953 1.46915,3.85 5.20543,12.23127 8.30284,18.62503 7.14798,14.75509 6.65502,18.12493 -1.70058,11.62497 z M 317,171.48334 c 0,-0.83416 -2.41207,-6.34666 -5.36016,-12.25 C 308.69176,153.33 305.71468,146.7 305.02412,144.5 c -2.04949,-6.52932 -10.35548,-22.60697 -12.18497,-23.58608 -3.39035,-1.81446 -5.78845,0.94772 -5.8255,6.70993 -0.008,1.16812 2.61005,6.79312 5.8168,12.5 3.20674,5.70688 7.95513,14.31332 10.55196,19.12541 3.26188,6.04445 5.85924,9.52236 8.40169,11.25 4.2638,2.89733 5.2159,3.07696 5.2159,0.98408 z m -27.87513,-51.55017 c 1.05406,-0.56411 2.35716,-0.75329 2.8958,-0.4204 1.7847,1.10301 1.01424,-1.1712 -1.02067,-3.01277 -1.1,-0.99549 -2,-2.26025 -2,-2.8106 0,-0.55034 -1.16206,-2.52416 -2.58235,-4.38626 -2.82388,-3.70229 -4.73029,-3.73622 -9.30251,-0.16558 -1.31167,1.02434 -3.33667,1.82376 -4.5,1.77649 -1.66529,-0.0677 -1.50742,-0.26807 0.74231,-0.94226 1.5716,-0.47096 3.69084,-1.6105 4.70942,-2.53231 1.01858,-0.9218 4.00773,-1.90169 6.64255,-2.17752 3.3514,-0.35086 5.69183,-1.32333 7.79058,-3.23709 1.65,-1.50456 3.7875,-3.011538 4.75,-3.348834 2.14525,-0.751777 2.23306,-2.03024 0.25236,-3.674079 -1.2315,-1.022055 -2.13823,-0.732829 -5.10238,1.627555 -5.89107,4.691118 -7.6462,5.395398 -12.9934,5.213838 -6.82418,-0.2317 -13.21303,4.30414 -9.39027,6.66673 0.55897,0.34546 0.76716,1.03126 0.46263,1.52399 -0.30452,0.49273 2.59536,3.46848 6.44418,6.61277 4.90654,4.00839 7.21088,6.63381 7.71065,8.78503 l 0.71279,3.06813 0.93093,-3.77059 c 0.51201,-2.07382 1.79333,-4.23213 2.84738,-4.79624 z M 275.45633,99.655591 c 2.03335,-1.486823 1.65421,-4.693274 -0.95621,-8.086753 -1.45627,-1.893102 -1.53496,-1.88474 -3.99283,0.424314 -2.92451,2.747438 -3.14923,4.640028 -0.8523,7.178107 1.97096,2.177891 3.33008,2.291361 5.80134,0.484332 z M 70.522292,146.03607 c -0.327658,-0.53016 0.109222,-3.68447 0.970843,-7.00958 1.176163,-4.53896 3.628209,-8.97209 9.83895,-17.78814 4.549801,-6.45837 10.668485,-15.34156 13.597076,-19.74042 C 103.91595,87.999414 113.0875,79.616313 121,77.66832 c 3.3389,-0.822009 7.69289,-8.465203 5.3372,-9.369165 -1.002,-0.384506 -2.42909,0.521987 -4.01803,2.552277 C 120.00634,73.806679 117,75.086795 117,73.116362 117,71.747251 124.83061,65 126.41955,65 c 0.77758,0 1.5823,0.505562 1.78827,1.123472 0.20597,0.617909 2.10747,1.405409 4.22555,1.75 4.77299,0.776516 8.13428,4.728705 7.19718,8.462403 -0.34648,1.38049 -1.76399,3.85769 -3.15002,5.50489 l -2.52005,2.994909 3.03807,2.163296 c 1.99061,1.417437 4.74177,2.224871 7.97949,2.34189 6.09329,0.220224 8.46769,2.075074 5.52196,4.313686 -2.96792,2.255479 -12.83752,1.049635 -17.68951,-2.161263 -4.02384,-2.66285 -6.30458,-3.120879 -7.32432,-1.470905 -0.34753,0.562308 -3.18658,2.324892 -6.30902,3.916854 -4.14744,2.11456 -7.42857,4.986038 -12.17715,10.656828 -3.575,4.26929 -9.449223,11.1692 -13.05383,15.33314 -10.486434,12.11363 -15.946985,19.15207 -18.037246,23.24932 -1.876218,3.6777 -4.138155,4.87763 -5.386632,2.85755 z M 75.182118,142.75 c 1.669219,-3.49424 7.314177,-10.74725 17.764052,-22.82441 3.604607,-4.16592 9.70383,-11.30179 13.55383,-15.85749 5.32642,-6.302747 8.42278,-9.002334 12.951,-11.291455 l 5.95101,-3.008369 -2.70101,-1.967544 c -3.32718,-2.423686 -3.52671,-6.095578 -0.451,-8.299792 2.23578,-1.602278 2.23104,-1.608059 -0.75,-0.914804 -5.68903,1.323009 -10.15232,4.287514 -16.06704,10.671682 -5.908001,6.376906 -11.640957,14.735082 -8.171092,11.912762 1.359624,-1.10588 2.093125,-1.10588 4.362442,0 1.5004,0.73118 2.92537,2.00442 3.1666,2.82942 0.34732,1.18785 0.15459,1.15684 -0.92616,-0.14902 -2.32426,-2.8084 -5.141341,-3.01555 -8.004122,-0.58856 -1.451654,1.23067 -6.950772,8.42098 -12.220261,15.97847 -7.247285,10.39404 -9.953486,15.17879 -11.110628,19.64434 C 70.676426,146.0374 70.677556,146 72.314788,146 c 0.723133,0 2.013431,-1.4625 2.86733,-3.25 z M 149.87812,93.096491 c 2.05874,-1.303989 0.38868,-3.114005 -2.68474,-2.909729 -5.87945,0.390777 -7.95242,-0.420594 -14.46174,-5.660403 -5.55168,-4.468942 -7.16951,-5.300958 -9,-4.628498 C 118.81942,81.702449 121.19407,88 126.78676,88 c 1.32247,0 3.76307,0.967389 5.42355,2.149754 4.67567,3.329372 14.48158,4.964857 17.66781,2.946737 z M 136.46225,80.75044 c 1.44458,-2.062435 1.4334,-2.353575 -0.13443,-3.5 -2.3694,-1.732546 -5.82346,-1.563087 -7.42294,0.364176 -1.1488,1.384219 -1.00777,1.883648 0.98834,3.5 3.0477,2.467876 4.6475,2.379186 6.56903,-0.364176 z M 223,120.10699 c 0,-0.49116 0.675,-1.15203 1.5,-1.46862 1.62453,-0.62339 2.0947,-3.63837 0.56739,-3.63837 -0.51294,0 -1.18953,-0.80945 -1.50353,-1.79879 -0.44446,-1.40039 -1.35519,-1.70722 -4.112,-1.38538 C 215.32349,112.29779 212,109.92379 212,106.4929 c 0,-2.76139 3.89263,-8.631029 6.62849,-9.995 1.61225,-0.803795 1.84026,-1.393001 1.03381,-2.671492 -1.85942,-2.947797 1.05521,-9.854771 6.19743,-14.686411 10.97092,-10.30829 20.07013,-12.148268 61.61852,-12.460058 22.2335,-0.166846 24.00367,-0.05101 24.32755,1.591989 0.45312,2.29863 -7.85606,6.147521 -11.66595,5.403778 -3.67028,-0.716489 -43.46926,4.932899 -46.86575,6.652502 -1.52575,0.772473 -4.52298,1.721542 -6.66049,2.109044 -5.0157,0.909276 -9.33436,4.126995 -11.67623,8.699656 -2.06981,4.041418 -1.58934,7.398054 1.90723,13.324292 3.15247,5.34305 0.60423,11.81604 -3.35734,8.52823 -0.818,-0.67888 -1.48727,-2.1088 -1.48727,-3.17762 0,-1.06881 -0.50721,-2.89103 -1.12714,-4.04938 -1.07502,-2.00869 -1.21139,-1.93289 -2.94884,1.63911 -1.69814,3.4912 -1.71242,3.97433 -0.21055,7.1238 1.32267,2.77366 1.38111,3.65577 0.32639,4.92663 C 226.66307,121.1109 223,121.58698 223,120.10699 Z m 14.27043,-9.74133 c 0.29915,-1.56489 -0.2373,-3.8992 -1.3214,-5.75 -1.00375,-1.71361 -2.56963,-5.36566 -3.47975,-8.11566 -2.03779,-6.157385 -3.34551,-7.606634 -6.19208,-6.862238 -3.42564,0.895824 -3.87798,4.110689 -1.01391,7.20609 C 229.26331,101.16697 233,107.31127 233,109.56547 c 0,4.18551 3.49799,4.84096 4.27043,0.80019 z m -13.77043,-6.7883 4,-3.3929 -2.31966,-2.480831 c -2.1922,-2.344511 -2.48273,-2.39949 -5.28705,-1.000509 -1.63206,0.814179 -3.71554,2.622165 -4.62996,4.01775 -1.59222,2.43002 -1.5648,2.61659 0.64783,4.40827 1.27072,1.02897 2.59806,1.86417 2.94962,1.85598 0.35157,-0.008 2.43922,-1.54167 4.63922,-3.40776 z m 2.89462,-14.946599 c 2.17592,-0.779793 5.58091,1.796281 5.64958,4.274227 0.0243,0.877256 0.89695,-0.01821 1.93921,-1.989934 C 236.01604,87.069766 241.91487,82 244.35636,82 c 0.98049,0 0.45284,-1.036957 -1.5435,-3.03329 -2.21523,-2.215238 -2.90612,-3.698541 -2.56175,-5.5 0.57069,-2.985335 0.6711,-2.977834 -4.50614,-0.336603 -9.46025,4.826261 -15.81499,12.568983 -15.70901,19.140129 0.0355,2.20012 0.0654,2.195262 2.25,-0.365365 1.21772,-1.427321 3.06662,-2.900671 4.10866,-3.27411 z m 26.67914,-9.168905 c 3.48573,-1.802542 43.6167,-7.617069 46.80941,-6.782157 C 302.72014,73.421585 311,70.246929 311,68.417292 c 0,-1.75614 -19.77816,-1.935976 -45,-0.409169 -22.29075,1.349372 -23.87311,1.638143 -24.58817,4.487165 -0.73207,2.916791 1.05548,6.35022 3.90354,7.497732 3.16671,1.275896 4.43135,1.189314 7.75839,-0.531164 z M 186.5348,109.89641 c -1.94414,-1.70698 -3.5348,-3.73198 -3.5348,-4.5 0,-0.76803 -0.7875,-1.39275 -1.75,-1.38827 -0.9625,0.004 -3.56622,-2.0769 -5.78603,-4.625274 l -4.03604,-4.633406 -5.45556,2.764541 c -3.00056,1.520498 -5.93455,3.419609 -6.51999,4.220239 -1.54009,2.1062 -5.95238,1.24145 -5.95238,-1.16658 0,-1.64245 5.82137,-6.582066 12.28042,-10.420329 1.03288,-0.613783 0.99264,-2.006545 -0.20811,-7.204107 C 164.75361,79.399451 163.16678,69.3 162.04603,60.5 c -1.12076,-8.8 -2.28522,-17.783106 -2.58768,-19.962458 -0.30246,-2.179351 -0.27991,-3.692439 0.0501,-3.362416 0.48933,0.489329 5.38151,35.733438 5.4668,39.383744 0.0136,0.582379 0.60553,1.853155 1.31539,2.823946 3.1017,4.241817 10.25673,-3.691265 7.93169,-8.794183 -0.5817,-1.276687 -2.24644,-8.79391 -3.69942,-16.704941 C 169.06993,45.972662 167.6805,38.6 167.43529,37.5 c -0.44583,-2 -0.44583,-2 0.52269,0 0.53269,1.1 2.1558,8.525 3.60691,16.5 1.45111,7.975 2.99946,15.177204 3.44076,16.004897 0.4413,0.827694 1.28894,4.137014 1.88364,7.354046 1.46403,7.919646 9.41246,18.103785 14.81357,18.980263 1.94986,0.316419 4.38938,1.339286 5.42117,2.273038 2.59842,2.351536 2.45329,0.0073 -0.23312,-3.765449 -2.29003,-3.216045 -2.12859,-4.258968 0.50295,-3.249152 2.66916,1.024254 4.86176,6.056208 3.63649,8.345647 -0.56669,1.05887 -1.03035,3.53643 -1.03035,5.50567 0,2.96633 -0.55743,3.92031 -3.25,5.562 -4.41701,2.69311 -6.08591,2.51102 -10.2152,-1.11455 z m 5.48752,-2.9503 c 1.52724,-3.68707 0.7536,-5.71326 -2.49249,-6.52798 -5.16261,-1.295733 -7.37165,3.99244 -3.42338,8.19518 2.54676,2.7109 4.308,2.21455 5.91587,-1.6672 z M 181.5,102.28693 c -3.34378,-0.80428 -3.76742,-1.97979 -0.54294,-1.50654 3.4961,0.51312 5.08224,-1.82318 2.96763,-4.371133 C 181.94614,94.025253 173.41126,90 170.33493,90 167.08615,90 154,98.462522 154,100.56343 154,101.4291 154.99351,102 156.5,102 c 1.375,0 2.5,-0.44352 2.5,-0.9856 0,-0.54209 2.71296,-2.355106 6.02879,-4.028935 l 6.0288,-3.043325 3.49842,2.668379 c 1.92413,1.467608 3.26508,2.901723 2.97988,3.186921 -1.00179,1.00179 1.73217,3.2013 3.83655,3.08656 2.01812,-0.11004 2.02468,-0.14075 0.12756,-0.59707 z m 4.30737,-8.125958 c -0.70936,-0.913534 -2.99275,-3.728619 -5.0742,-6.255744 -2.4215,-2.939973 -4.06846,-6.181306 -4.57302,-9 -0.6723,-3.755784 -0.9001,-4.071903 -1.54522,-2.144261 -0.8476,2.532666 -6.09066,5.681083 -7.75143,4.65467 -0.67995,-0.420229 -0.88295,0.02608 -0.54998,1.209134 0.29028,1.031376 0.81882,2.887729 1.17452,4.125229 0.44558,1.550175 1.4137,2.25 3.11259,2.25 2.86143,0 11.42357,4.119301 13.32549,6.410981 1.7441,2.101506 3.55128,0.900709 1.88125,-1.250009 z m -27.68476,-68.95379 c -0.68072,-5.61659 -0.96023,-10.660902 -0.62113,-11.209582 1.41034,-2.281969 3.50238,-0.668925 5.88652,4.538733 2.50846,5.479199 5.00112,15.822191 3.60523,14.959485 -0.39784,-0.245882 -0.97184,-2.299648 -1.27554,-4.563925 -0.71607,-5.338739 -4.85914,-14.892865 -6.46769,-14.914827 -1.52383,-0.0208 -1.53233,0.56703 -0.1562,10.792519 0.6016,4.470177 0.90766,8.68604 0.68014,9.368586 -0.22751,0.682546 -0.97061,-3.354399 -1.65133,-8.970989 z"
       id="path2989"
       style="fill:#000000"
       inkscape:connector-curvature="0" />
  </g>
</svg>
