<?xml version="1.0" encoding="UTF-8" standalone="no"?>
<!-- Created with Inkscape (http://www.inkscape.org/) -->

<svg
   xmlns:dc="http://purl.org/dc/elements/1.1/"
   xmlns:cc="http://creativecommons.org/ns#"
   xmlns:rdf="http://www.w3.org/1999/02/22-rdf-syntax-ns#"
   xmlns:svg="http://www.w3.org/2000/svg"
   xmlns="http://www.w3.org/2000/svg"
   xmlns:sodipodi="http://sodipodi.sourceforge.net/DTD/sodipodi-0.dtd"
   xmlns:inkscape="http://www.inkscape.org/namespaces/inkscape"
   id="svg3388"
   version="1.1"
   inkscape:version="0.91 r13725"
   width="467.28973"
   height="198.75"
   viewBox="0 0 467.28973 198.75"
   sodipodi:docname="fx840301.svg">
  <metadata
     id="metadata3394">
    <rdf:RDF>
      <cc:Work
         rdf:about="">
        <dc:format>image/svg+xml</dc:format>
        <dc:type
           rdf:resource="http://purl.org/dc/dcmitype/StillImage" />
        <dc:title></dc:title>
      </cc:Work>
    </rdf:RDF>
  </metadata>
  <defs
     id="defs3392" />
  <sodipodi:namedview
     pagecolor="#ffffff"
     bordercolor="#666666"
     borderopacity="1"
     objecttolerance="10"
     gridtolerance="10"
     guidetolerance="10"
     inkscape:pageopacity="0"
     inkscape:pageshadow="2"
     inkscape:window-width="1505"
     inkscape:window-height="924"
     id="namedview3390"
     showgrid="false"
     inkscape:zoom="0.94575529"
     inkscape:cx="60.945322"
     inkscape:cy="149.45568"
     inkscape:window-x="0"
     inkscape:window-y="0"
     inkscape:window-maximized="0"
     inkscape:current-layer="svg3388" />
  <g
     id="g3398"
     transform="translate(-0.70050339,0.65396209)">
    <path
       style="fill:#fefefe"
       d="m 52.341662,182.57812 c 0.0029,-0.64453 0.432505,-2.71506 0.954751,-4.60119 0.755271,-2.7277 0.466568,-5.86419 -1.411117,-15.33045 -1.298362,-6.54562 -2.577585,-12.25322 -2.842717,-12.68356 -0.265134,-0.43033 -1.332784,-4.86901 -2.372557,-9.86373 -1.780515,-8.553 -1.79818,-9.18363 -0.303635,-10.84025 2.158851,-2.39295 5.62651,-2.22612 7.283606,0.35043 0.746147,1.16016 1.796567,6.32813 2.334264,11.48438 0.537698,5.15625 1.45606,14.01562 2.040805,19.6875 0.584746,5.67187 1.444763,10.78753 1.911149,11.36813 1.045234,1.3012 -4.632308,11.60062 -6.394823,11.60062 -0.662716,0 -1.202592,-0.52734 -1.199726,-1.17188 z m 375.695728,0.23438 c 0,-0.51563 0.78963,-0.9375 1.75473,-0.9375 0.9651,0 2.2577,-0.60794 2.87245,-1.35098 0.88804,-1.07337 0.72268,-1.89214 -0.80464,-3.98438 -2.8313,-3.87854 -6.84282,-14.33035 -6.94777,-18.10214 -0.071,-2.55146 1.25372,-5.32573 5.95621,-12.4736 5.75742,-8.75138 6.1798,-9.1667 8.80481,-8.65775 3.22695,0.62565 4.21808,1.89114 4.23776,5.41086 0.0106,1.91034 -1.52116,4.10103 -6.03089,8.62485 -3.32486,3.33525 -6.28573,7.03447 -6.57972,8.22049 -0.33931,1.36882 0.84742,5.55847 3.24927,11.47135 4.60865,11.34553 4.40359,12.7163 -1.90229,12.7163 -2.53545,0 -4.60992,-0.42188 -4.60992,-0.9375 z M 64.485983,156.4102 c 0,-0.59939 1.218335,-3.02517 2.707411,-5.39062 1.489077,-2.36546 6.175981,-12.45271 10.415344,-22.41613 7.894211,-18.5531 9.184842,-20.79095 11.99073,-20.79095 5.212291,0 5.268459,8.69302 0.09388,14.53125 -2.096812,2.36574 -13.9719,25.01122 -14.051996,26.79679 -0.07327,1.63352 -7.972222,8.35946 -9.817343,8.35946 -0.735917,0 -1.33803,-0.49041 -1.33803,-1.0898 z M 403.95115,132.0158 c 0.20272,-0.61006 2.77217,-1.59065 5.7099,-2.17908 6.12142,-1.22614 10.15213,-3.84753 10.91761,-7.10033 0.67127,-2.85238 4.84198,-4.52586 6.9356,-2.78288 2.05636,1.71196 1.81016,3.54901 -0.64509,4.8135 -1.15654,0.59564 -3.43653,2.34856 -5.06663,3.89538 -3.03441,2.87937 -7.88553,4.34483 -14.63742,4.42178 -2.35648,0.0268 -3.45642,-0.33877 -3.21397,-1.06837 z m -1.62844,-8.22176 c -3.55086,-3.53311 -4.21743,-3.78922 -14.29239,-5.49147 -5.81231,-0.98204 -10.91163,-2.16201 -11.33183,-2.62217 -0.42018,-0.46016 -2.97344,-5.19037 -5.6739,-10.51158 -4.26051,-8.39527 -4.77306,-9.976251 -3.87513,-11.953123 0.76347,-1.680889 1.77513,-2.278197 3.85855,-2.278197 4.11689,0 6.17226,2.691435 7.91075,10.35886 0.84841,3.74186 1.91277,7.49728 2.36524,8.34536 0.53806,1.00851 4.70917,2.49943 12.05657,4.3095 l 11.23391,2.76753 1.45108,3.78134 c 1.56954,4.09003 1.87566,6.99991 0.7364,6.99991 -0.39306,0 -2.39073,-1.66768 -4.43925,-3.70596 z m 11.2977,-4.84459 -2.51952,-1.98805 2.0891,-2.2307 c 2.68597,-2.86801 5.54684,-2.83242 8.29615,0.10322 2.12208,2.26592 2.13622,2.38886 0.48535,4.21875 -2.19325,2.43109 -5.18614,2.3941 -8.35108,-0.10322 z m -64.08769,-6.38842 c 0,-0.48206 0.42317,-1.99296 0.94036,-3.35754 0.63431,-1.67356 0.62434,-4.51586 -0.0306,-8.73291 -0.8094,-5.211496 -1.44729,-6.649977 -3.83333,-8.644483 -3.1741,-2.653244 -3.42511,-6.030919 -0.58109,-7.819308 2.3549,-1.480819 4.65204,0.257369 6.1089,4.622465 1.65184,4.949242 3.25642,17.106276 2.60269,19.719086 -0.84887,3.39285 -5.20688,6.91874 -5.20688,4.21269 z M 33.882742,95.855334 c -6.2944,-6.571996 -11.44627,-12.054553 -11.448599,-12.183459 -0.0023,-0.128906 0.812413,-0.234375 1.810539,-0.234375 0.998125,0 4.235208,2.124686 7.193517,4.721525 2.958309,2.596838 7.29353,5.952916 9.633824,7.457959 8.400766,5.402516 8.586183,5.598756 8.280022,8.763736 -0.556459,5.7525 -3.178551,4.30741 -15.469303,-8.525386 z m 10.506161,0.964941 c -1.540065,-0.793472 -2.936268,-1.558744 -3.102674,-1.700606 -0.53441,-0.455578 2.658635,-6.057169 3.452737,-6.057169 1.557888,0 3.859166,3.505058 3.859166,5.877863 0,3.236118 -0.844701,3.613378 -4.209229,1.879912 z m 59.955657,-3.782241 c -0.90349,-1.466455 0.0871,-25.243974 1.22991,-29.522409 1.10969,-4.154384 2.91178,-5.669199 4.21942,-3.546789 0.30711,0.498483 -0.12267,4.552348 -0.9551,9.008585 -1.40834,7.539309 -1.40319,8.553779 0.0741,14.600948 1.50924,6.177819 1.50582,6.589372 -0.0692,8.335163 -1.69922,1.883493 -3.72034,2.388637 -4.49918,1.124502 z M 333.64487,90.12643 c 0,-2.23173 4.04504,-5.75143 6.60989,-5.75143 3.23654,0 3.75571,2.533608 1.0268,5.010949 -1.76763,1.604678 -7.63669,2.173764 -7.63669,0.740481 z M 156.3092,87.469171 c -2.97025,-2.560224 -1.34898,-5.906671 2.86164,-5.906671 3.97604,0 7.14232,3.052272 5.64889,5.445503 -1.40289,2.248141 -6.13958,2.504814 -8.51053,0.461168 z m -6.12111,-1.870389 c -0.24941,-0.415267 -1.77697,-4.730422 -3.39456,-9.589232 -2.45586,-7.376717 -2.89654,-10.006116 -2.67105,-15.9375 0.24285,-6.388004 0.45827,-7.1033 2.13921,-7.1033 1.72359,0 1.84412,0.517516 1.54771,6.645382 -0.29532,6.105266 -0.0441,7.197765 3.09047,13.441724 3.66105,7.292591 4.17335,12.456607 1.29008,13.003999 -0.85161,0.161679 -1.75245,-0.04581 -2.00186,-0.461073 z m -40.70708,-3.333157 c -0.7091,-2.533419 -0.53866,-3.323351 1.01139,-4.6875 1.02531,-0.902344 2.86902,-1.640625 4.09712,-1.640625 1.50487,0 2.23177,0.534934 2.22942,1.640625 -0.006,2.43416 -3.49754,7.734375 -5.09624,7.734375 -0.76895,0 -1.76953,-1.359967 -2.24169,-3.046875 z m 158.27601,0.02566 c -1.02804,-1.621944 -6.22757,-6.773661 -11.55452,-11.448262 -9.82577,-8.622492 -12.78582,-12.446285 -11.87161,-15.335717 0.441,-1.393816 8.04125,-6.757306 9.57533,-6.757306 0.30745,0 0.33286,2.501668 0.0565,5.559262 l -0.50252,5.559262 7.81667,7.137825 c 7.78761,7.111285 9.73152,10.341869 9.74599,16.196776 0.007,2.885293 -1.04533,2.591438 -3.26581,-0.91184 z m 42.66595,-7.05691 c -1.06351,-0.902344 -2.78621,-3.855469 -3.82822,-6.5625 L 304.70017,63.75 l 5.05872,0 c 4.35187,0 5.32938,0.345157 6.99572,2.47018 2.30836,2.943778 2.46514,5.731206 0.48213,8.571221 -1.7498,2.505976 -4.19496,2.664941 -6.81377,0.442974 z m -36.55519,-0.9375 c 0.0198,-0.386719 1.35892,-1.546875 2.97581,-2.578125 1.61688,-1.03125 6.75256,-6.247028 11.41259,-11.59062 8.59563,-9.856474 12.40752,-12.825779 15.28795,-11.908709 1.38947,0.44238 6.73625,8.066373 6.73625,9.605248 0,0.308411 -2.49388,0.333904 -5.54194,0.05665 l -5.54195,-0.504096 -7.11559,7.841098 c -5.24532,5.780138 -8.02605,8.094754 -10.57955,8.806159 -4.07761,1.136025 -7.68437,1.264728 -7.63357,0.272394 z M 131.98366,71.66559 c -4.31282,-3.030252 -1.66229,-7.668432 6.10046,-10.675239 l 4.90654,-1.900491 0,5.074526 c 0,4.365463 -0.34409,5.346027 -2.46249,7.01757 -2.93461,2.315577 -5.71334,2.472858 -8.54451,0.483634 z M 179.62617,70.125 c -1.63908,-1.644203 -1.3695,-5.878264 0.51402,-8.073241 2.50839,-2.923174 5.84112,-1.252003 5.84112,2.92898 0,4.659971 -3.78425,7.723187 -6.35514,5.144261 z M 148.84811,59.296875 149.32954,53.90625 141.0738,45.9375 c -7.5782,-7.314758 -8.30776,-8.337771 -8.88951,-12.465183 -0.5806,-4.119271 0.23435,-7.349698 1.18348,-4.691239 0.8729,2.444938 4.58547,6.295984 13.45101,13.952735 9.35093,8.075955 12.57564,12.283703 11.65175,15.203734 -0.43704,1.381287 -8.03986,6.749953 -9.55893,6.749953 -0.29971,0 -0.32828,-2.425781 -0.0635,-5.390625 z m 59.93646,4.673144 c -1.1208,-0.750577 -5.98083,-8.245778 -5.98083,-9.22373 0,-0.331908 2.41823,-0.386151 5.37383,-0.120539 l 5.37384,0.482933 7.94392,-8.281536 c 7.29197,-7.601873 8.3118,-8.333712 12.42636,-8.917283 4.10643,-0.582421 7.32679,0.23508 4.67661,1.187177 -2.43731,0.875626 -6.27636,4.599797 -13.90926,13.493048 -8.91634,10.388617 -13.01042,13.318 -15.90447,11.37993 z m 89.70142,-2.518875 c -0.96456,-2.521462 0.50822,-3.080905 6.90255,-2.621964 5.91962,0.42487 6.84271,0.215614 13.18723,-2.989423 7.65866,-3.868888 12.73265,-4.283981 12.73265,-1.041631 0,2.951922 -15.58154,7.91392 -25.02933,7.970682 -5.52515,0.0332 -7.39744,-0.283375 -7.7931,-1.317664 z m -43.49816,-0.978985 c -0.29068,-0.291587 -0.32518,-3.380895 -0.0766,-6.865128 0.41931,-5.878708 0.20441,-6.827847 -2.98368,-13.178349 -3.85686,-7.682588 -4.27065,-12.772432 -1.03841,-12.772432 1.466,0 2.4233,1.746796 4.88091,8.90625 2.59447,7.558168 3.02573,10.039907 2.84922,16.395881 -0.16404,5.906447 -0.51397,7.548218 -1.65545,7.766785 -0.79609,0.152433 -1.68527,0.03858 -1.97595,-0.253007 z m -73.36555,-1.941425 c -0.81929,-2.141681 0.15814,-2.732334 9.89469,-5.979347 7.33898,-2.447456 9.9868,-2.891768 15.88785,-2.666025 6.3681,0.24361 7.08117,0.459699 7.08117,2.145888 0,1.728982 -0.51591,1.849889 -6.62469,1.552548 -6.06964,-0.295436 -7.18347,-0.04016 -13.29442,3.046875 -7.14718,3.610511 -12.01685,4.3253 -12.9446,1.900061 z m 78.19081,-9.25762 c 0,-4.365463 0.34408,-5.346027 2.46249,-7.01757 2.9346,-2.315576 5.71334,-2.472858 8.54451,-0.483634 4.31281,3.030252 1.66229,7.668432 -6.10046,10.675239 l -4.90654,1.900491 0,-5.074526 z m 69.39252,2.246697 c -1.60139,-0.635433 -2.1028,-1.589352 -2.1028,-4.00055 0,-3.988476 3.04277,-7.164651 5.42854,-5.666554 4.11005,2.580821 1.07187,11.412072 -3.32574,9.667104 z M 196.32952,46.27982 c -2.30837,-2.943778 -2.46515,-5.731206 -0.48213,-8.571221 3.02081,-4.32629 7.64454,-1.667478 10.64199,6.119526 l 1.89457,4.921875 -5.05872,0 c -4.35187,0 -5.32938,-0.345158 -6.99571,-2.47018 z m 42.40603,-16.334698 c -2.2584,-2.5033 -0.86371,-4.9898 3.01937,-5.383043 3.87584,-0.392509 6.98516,2.365635 5.86609,5.203546 -1.11363,2.824076 -6.40321,2.930932 -8.88546,0.179497 z"
       id="path3408"
       inkscape:connector-curvature="0" />
    <path
       style="fill:#fefe00"
       d="m 444.39253,140.62559 c -0.72834,-2.52314 -1.61372,-3.43011 -4.01216,-4.11002 -1.9286,-0.54673 -3.41033,-0.53863 -3.9689,0.0217 -0.5654,0.56717 -2.93586,-0.98121 -6.48241,-4.23427 l -5.59108,-5.12839 2.78429,-1.69852 c 1.53136,-0.93416 2.78428,-2.27212 2.78428,-2.97322 0,-1.39158 -2.45102,-3.83071 -4.6729,-4.65023 -0.78415,-0.28924 -0.24893,-0.54968 1.21464,-0.59108 5.68567,-0.16084 11.79064,5.30468 16.49898,14.77083 1.89401,3.80794 2.85081,6.99562 2.66681,8.88472 l -0.28697,2.94611 -0.93458,-3.23759 z M 44.826522,126.94218 c -0.01831,-1.49789 -0.642581,-5.25468 -1.38727,-8.34843 -0.744688,-3.09375 -1.360548,-7.27241 -1.368577,-9.28593 -0.01391,-3.48755 0.06634,-3.58744 1.694504,-2.10937 3.191434,2.89723 6.637816,1.32655 6.778017,-3.08907 0.07531,-2.37183 0.0857,-2.36851 1.321221,0.42187 0.684922,1.54688 1.506177,5.76563 1.825008,9.375 0.31883,3.60938 0.826535,8.67188 1.128232,11.25 0.537967,4.59715 0.513419,4.65588 -1.273568,3.04687 -2.287233,-2.05942 -4.769821,-2.09112 -6.975171,-0.0891 -1.618177,1.46901 -1.710875,1.40666 -1.742396,-1.17187 z m 49.625246,-14.53125 c -0.07458,-3.06346 -3.119991,-5.93235 -5.60527,-5.28041 -1.379575,0.3619 -0.445327,-1.38767 3.566755,-6.67948 2.989758,-3.943384 6.102413,-8.466142 6.917002,-10.050571 0.814595,-1.584429 2.154455,-3.44138 2.977475,-4.126557 1.3375,-1.113494 1.46809,-0.821454 1.22984,2.750329 -0.34409,5.1588 1.82656,7.01085 4.94314,4.217598 l 2.04808,-1.835589 -0.70624,2.34375 c -0.38843,1.289062 -3.59781,5.5746 -7.13196,9.52341 -3.534158,3.94881 -6.820354,8.16756 -7.302663,9.375 l -0.876925,2.19534 -0.05925,-2.43282 z M 363.08412,96.070237 c -0.51402,-0.189328 -2.70509,-0.80054 -4.86906,-1.35825 -3.47348,-0.8952 -4.00599,-1.396376 -4.54478,-4.277403 -1.17066,-6.259605 -5.5539,-9.609647 -8.85719,-6.769406 -0.74533,0.640849 -0.64874,0.369185 0.21464,-0.603697 1.44644,-1.629905 2.03384,-1.677834 7.47663,-0.610058 5.48001,1.075079 20.02158,6.098039 21.51578,7.431996 0.3606,0.321932 -0.90108,0.585331 -2.80374,0.585331 -2.98559,0 -3.65138,0.414516 -4.86125,3.026586 -1.4169,3.059036 -1.58895,3.194467 -3.27103,2.574901 z M 142.48776,85.907258 c -5.14199,-2.401912 -12.58122,-10.069489 -12.58122,-12.967409 0,-1.668877 0.14721,-1.692743 2.07712,-0.336759 2.65673,1.866662 5.35777,1.853178 8.05252,-0.0402 1.9606,-1.377548 2.27281,-1.373894 3.83567,0.0449 0.93575,0.849481 2.40071,4.04481 3.2555,7.100732 0.94398,3.374841 2.35325,6.117691 3.58957,6.986349 2.01929,1.418784 2.0134,1.430056 -0.74261,1.42097 -1.52792,-0.0051 -4.89688,-0.9989 -7.48655,-2.208583 z M 318.17132,74.791401 c 1.86084,-2.665034 1.8474,-5.37452 -0.0401,-8.077695 -1.37326,-1.966726 -1.36961,-2.279908 0.0448,-3.847659 0.84683,-0.938666 4.0322,-2.408213 7.07861,-3.265661 3.36433,-0.946932 6.09863,-2.360607 6.96458,-3.60079 1.41437,-2.0256 1.4256,-2.019691 1.41655,0.74493 -0.015,4.561546 -4.0534,11.932178 -8.86621,16.18182 -4.9941,4.40972 -9.20638,5.600365 -6.59821,1.865055 z M 179.44839,55.755474 c 0.0149,-4.561546 4.0534,-11.932178 8.8662,-16.18182 4.99411,-4.40972 9.20639,-5.600365 6.59822,-1.865055 -1.86084,2.665034 -1.8474,5.37452 0.0401,8.077695 1.37326,1.966726 1.36962,2.279909 -0.0448,3.847659 -0.84684,0.938666 -4.03221,2.408213 -7.07861,3.265661 -3.36434,0.946932 -6.09864,2.360607 -6.96459,3.60079 -1.41437,2.0256 -1.4256,2.019691 -1.41654,-0.74493 z m 79.19147,-15.208599 c -0.80462,-0.902344 -2.16026,-4.062697 -3.01252,-7.023007 -0.90775,-3.15301 -2.38344,-5.968261 -3.56276,-6.796875 -1.98748,-1.396431 -1.97771,-1.414376 0.76486,-1.405335 4.54733,0.01499 11.89501,4.066067 16.13141,8.893916 4.39598,5.009706 5.58292,9.235149 1.85924,6.618836 -2.60656,-1.831413 -5.44668,-1.861661 -7.79099,-0.08298 -2.33766,1.773642 -2.63777,1.759656 -4.38924,-0.20456 z"
       id="path3404"
       inkscape:connector-curvature="0" />
    <path
       style="fill:#fe0000"
       d="m 156.30841,31.242233 c -4.39317,-2.566267 -5.07742,-4.052285 -1.86915,-4.05939 1.99014,-0.0044 1.95258,-0.127232 -0.70094,-2.292505 -6.25863,-5.107033 -11.5675,-7.285364 -18.07898,-7.418138 -8.90551,-0.18159 -14.65874,1.027586 -17.89789,3.761663 -1.54449,1.303672 -2.80818,1.948437 -2.80818,1.432812 0,-1.73772 5.63515,-5.711344 9.13967,-6.444825 1.91244,-0.400266 6.84164,-0.725392 10.95379,-0.722501 7.45029,0.0053 7.50298,0.02266 14.95327,4.944475 5.67855,3.751359 7.54931,4.592539 7.77881,3.497697 0.54249,-2.587966 1.81247,-1.517794 2.46136,2.074104 0.34932,1.933594 0.86227,4.464844 1.13991,5.625 0.62109,2.595331 -0.0349,2.543797 -5.07167,-0.398392 z"
       id="path3402"
       inkscape:connector-curvature="0" />
    <path
       style="fill:#000000"
       d="m 37.940941,183.98739 13.174584,-0.28712 1.062928,-4.89701 c 0.918623,-4.23219 0.760223,-6.36067 -1.166766,-15.67826 -1.226331,-5.92969 -3.110494,-14.21207 -4.187031,-18.40528 -1.076536,-4.19322 -2.371117,-11.3651 -2.876845,-15.9375 -0.505728,-4.57241 -1.338504,-10.00097 -1.850614,-12.06347 -0.51211,-2.0625 -0.941142,-5.76952 -0.953404,-8.23783 -0.02203,-4.43398 -0.139918,-4.60683 -9.824361,-14.404286 -5.391136,-5.45405 -9.571923,-10.289994 -9.290639,-10.746543 1.132554,-1.838238 4.320424,-0.613256 8.807587,3.384435 7.06227,6.291896 9.565268,7.795515 10.132951,6.087148 0.251735,-0.757568 1.584349,-2.507565 2.961365,-3.888883 2.136141,-2.142816 3.272817,-2.504555 7.743329,-2.464259 4.091921,0.03688 5.645941,0.48237 7.094397,2.033724 3.008971,3.222728 5.029744,9.955244 2.988079,9.955244 -0.473176,0 -1.133096,-1.245816 -1.466487,-2.768475 C 59.661144,92.796848 56.501056,88.125 55.187157,88.125 c -0.41357,0 -0.540361,1.883035 -0.281759,4.184524 0.402451,3.581689 0.142345,4.477451 -1.805493,6.217864 -2.258558,2.018032 -2.263285,2.058852 -0.628182,5.424852 1.076252,2.21556 1.992731,7.61734 2.64317,15.57901 2.538843,31.07665 4.765452,51.38523 5.770991,52.63638 0.563193,0.70075 -0.122686,2.75093 -1.974024,5.90062 -1.560401,2.65472 -2.837092,5.01913 -2.837092,5.25426 0,0.23511 83.436322,0.42749 185.414032,0.42749 163.95033,0 185.4763,-0.16279 185.95199,-1.40625 0.29586,-0.77344 1.36744,-1.40625 2.38128,-1.40625 2.80009,0 3.17801,-1.55503 1.07735,-4.43304 -2.81981,-3.8633 -6.81667,-14.31394 -6.92841,-18.11584 -0.0764,-2.60165 1.08236,-5.07308 5.29738,-11.29765 3.28741,-4.85473 5.17779,-8.536 4.83863,-9.4226 -0.30615,-0.8003 -2.78415,-3.3842 -5.50668,-5.742 l -4.95005,-4.28692 -2.37298,2.3804 c -2.41776,2.42531 -7.6637,3.92707 -13.97915,4.00182 -6.83663,0.0809 -5.32708,-4.04371 1.83031,-5.00104 5.0702,-0.67816 10.49771,-3.6384 10.49771,-5.7256 0,-0.79435 -0.8224,-1.42003 -1.86647,-1.42003 -2.80763,0 -9.34849,-6.33757 -9.34849,-9.05796 0,-2.93061 3.93337,-6.87954 6.85243,-6.87954 1.24548,0 2.78805,-0.63281 3.42795,-1.40625 1.83235,-2.21476 5.02168,-1.65344 7.93459,1.39647 3.45753,3.62018 2.25638,4.92283 -1.34649,1.46028 -1.80649,-1.73614 -3.28182,-2.42229 -4.33586,-2.01656 -1.45437,0.55984 -1.41876,0.80601 0.39712,2.74497 1.09712,1.17149 2.2641,3.4808 2.59326,5.13178 0.47592,2.38699 1.06262,3.00181 2.86454,3.00181 5.42051,0 12.46107,6.4804 17.03143,15.67639 4.43826,8.9302 4.12162,10.36803 -4.08427,18.54632 -3.8407,3.82776 -7.22213,7.92402 -7.51431,9.1028 -0.33518,1.35225 0.86522,5.58104 3.25257,11.45819 2.0811,5.12322 3.54925,10.05629 3.26257,10.96237 -0.43868,1.38649 0.18919,1.70333 3.96414,2.00044 2.46696,0.19416 -90.56135,0.33615 -206.72958,0.31551 -116.16822,-0.0206 -205.286391,-0.16671 -198.040369,-0.32463 z m 19.824315,-5.50988 c 1.935987,-3.38116 2.714747,-5.65118 2.170955,-6.32813 -0.466386,-0.5806 -1.326403,-5.69626 -1.911149,-11.36813 -0.584745,-5.67188 -1.503107,-14.53125 -2.040805,-19.6875 -0.537697,-5.15625 -1.588117,-10.32422 -2.334264,-11.48438 -1.657096,-2.57655 -5.124755,-2.74338 -7.283606,-0.35043 -1.494545,1.65662 -1.47688,2.28725 0.303635,10.84025 1.039773,4.99472 2.107423,9.4334 2.372557,9.86373 0.265132,0.43034 1.544355,6.13794 2.842717,12.68356 1.877685,9.46626 2.166388,12.60275 1.411117,15.33045 -2.124266,7.67191 0.21278,7.9337 4.468843,0.50058 z m 380.030064,3.57182 c 0.29948,-0.94654 -1.13978,-5.83123 -3.24572,-11.01563 -2.40185,-5.91288 -3.58858,-10.10252 -3.24927,-11.47135 0.29399,-1.18602 3.25486,-4.88524 6.57972,-8.22049 4.50973,-4.52382 6.04156,-6.71451 6.03089,-8.62485 -0.0197,-3.51972 -1.01081,-4.78521 -4.23776,-5.41086 -2.62501,-0.50895 -3.04739,-0.0937 -8.80481,8.65775 -4.70249,7.14787 -6.02721,9.92214 -5.95621,12.4736 0.10495,3.77179 4.11647,14.2236 6.94777,18.10214 1.52732,2.09224 1.69268,2.91101 0.80464,3.98438 -0.61475,0.74304 -1.90735,1.35098 -2.87245,1.35098 -0.9651,0 -1.75473,0.42187 -1.75473,0.9375 0,0.51562 2.07447,0.9375 4.60992,0.9375 3.63161,0 4.72411,-0.36092 5.14801,-1.70067 z m 5.15195,-50.01698 c -4.70834,-9.46615 -10.81331,-14.93167 -16.49898,-14.77083 -1.46357,0.0414 -1.99879,0.30184 -1.21464,0.59108 2.22188,0.81952 4.6729,3.25865 4.6729,4.65023 0,0.7011 -1.25292,2.03906 -2.78428,2.97325 l -2.78429,1.69851 5.59108,5.1284 c 3.54655,3.25306 5.91701,4.80143 6.48241,4.23427 0.55857,-0.56032 2.0403,-0.56842 3.9689,-0.0217 2.39844,0.67991 3.28382,1.58688 4.01216,4.11002 l 0.93458,3.23759 0.28697,-2.94611 c 0.184,-1.8891 -0.7728,-5.07678 -2.66681,-8.88472 z m -28.15407,0.22671 c 2.43499,-0.47206 5.22542,-1.90389 7.00934,-3.59667 1.6301,-1.54682 3.91009,-3.29974 5.06663,-3.89538 2.45525,-1.26449 2.70145,-3.10154 0.64509,-4.8135 -2.09362,-1.74298 -6.26433,-0.0695 -6.9356,2.78288 -0.76548,3.2528 -4.79619,5.87419 -10.91761,7.10033 -6.30426,1.26275 -7.87678,3.30877 -2.49593,3.24745 1.9704,-0.0224 5.40304,-0.39376 7.62808,-0.82511 z M 50.000001,126.5625 c 0.947089,0 2.541929,0.73828 3.544088,1.64062 1.786987,1.60901 1.811535,1.55028 1.273568,-3.04687 -0.301697,-2.57812 -0.809402,-7.64062 -1.128232,-11.25 -0.318831,-3.60937 -1.140086,-7.82812 -1.825008,-9.375 -1.235521,-2.79038 -1.245912,-2.7937 -1.321221,-0.42187 -0.140201,4.41562 -3.586583,5.9863 -6.778017,3.08907 -1.628166,-1.47807 -1.708412,-1.37818 -1.694504,2.10937 0.008,2.01352 0.623889,6.19218 1.368577,9.28593 0.744689,3.09375 1.368961,6.85054 1.38727,8.34843 0.03152,2.57854 0.124219,2.64088 1.742396,1.17187 0.940006,-0.85336 2.483994,-1.55155 3.431083,-1.55155 z m 371.971489,-7.50983 c 1.65087,-1.82989 1.63673,-1.95283 -0.48535,-4.21875 -2.74931,-2.93564 -5.61018,-2.97123 -8.29615,-0.10322 l -2.0891,2.2307 2.51952,1.98805 c 3.16494,2.49732 6.15783,2.53431 8.35108,0.10322 z M 49.352045,104.38072 c 0.306161,-3.16498 0.120744,-3.36122 -8.280022,-8.763736 C 38.731729,94.111941 34.396508,90.755863 31.438199,88.159025 28.47989,85.562186 25.242807,83.4375 24.244682,83.4375 c -0.998126,0 -1.812868,0.105469 -1.810539,0.234375 0.0023,0.128906 5.154199,5.611463 11.448599,12.183459 12.290752,12.832796 14.912844,14.277886 15.469303,8.525386 z m -0.753913,-9.440357 c 0,-2.372805 -2.301278,-5.877863 -3.859166,-5.877863 -0.794102,0 -3.987147,5.601591 -3.452737,6.057169 1.310891,1.117528 6.043462,3.056062 6.607347,2.706478 0.387505,-0.240244 0.704556,-1.538841 0.704556,-2.885784 z m 15.292199,62.093397 c -0.295344,-0.77206 0.72764,-3.40878 2.273296,-5.85937 1.545656,-2.45061 5.846903,-11.62752 9.558326,-20.39314 8.6761,-20.49118 9.495912,-22.06653 15.85597,-30.46875 2.927266,-3.867188 5.862023,-8.085938 6.521687,-9.375 0.659663,-1.289063 1.93406,-3.1875 2.83199,-4.21875 1.18727,-1.363551 1.77251,-4.176521 2.14555,-10.3125 0.88603,-14.574093 3.33621,-20.687137 6.87061,-17.141696 1.23241,1.236265 1.22412,2.281569 -0.0724,9.138011 -1.85864,9.828562 -1.86117,9.795265 0.61305,8.056845 C 111.63073,75.656735 114.08892,75 115.95096,75 c 4.67567,0 6.92494,2.678947 7.00683,8.345337 0.0349,2.421012 0.39848,4.945373 0.80777,5.609689 0.80673,1.309393 -2.02718,8.544974 -3.34674,8.544974 -1.15975,0 -0.96794,-3.199163 0.26602,-4.436984 0.58227,-0.584091 0.7988,-1.741346 0.48116,-2.571679 -0.47029,-1.22939 -0.94706,-1.311301 -2.56787,-0.441162 -1.0947,0.587693 -3.16682,0.895325 -4.60473,0.683626 -2.27485,-0.334921 -2.68672,-0.02197 -3.17157,2.409833 -0.31898,1.599891 -3.27165,5.834053 -6.90629,9.903676 -3.492,3.90992 -7.529257,9.42925 -8.971697,12.26519 -1.442448,2.83594 -3.369892,6 -4.283223,7.03125 -2.009886,2.26938 -12.065767,21.12543 -13.503676,25.3211 -1.099544,3.20836 -9.072937,10.77265 -11.355264,10.77265 -0.755898,0 -1.616005,-0.63169 -1.911349,-1.40374 z m 7.481578,-3.04939 c 2.315427,-1.93359 4.236678,-4.11331 4.269447,-4.84383 0.08009,-1.78557 11.955184,-24.43105 14.051996,-26.79679 2.627155,-2.9641 3.764594,-5.7214 3.764594,-9.12587 0,-4.94862 -3.715942,-7.1689 -6.807621,-4.06756 -0.73351,0.73581 -4.802224,9.48971 -9.041587,19.45313 -4.239363,9.96342 -8.926267,20.05067 -10.415344,22.41613 -4.671289,7.42052 -2.771362,8.76858 4.178515,2.96479 z m 31.318681,-50.71096 c 3.53415,-3.94881 6.74353,-8.234348 7.13196,-9.52341 l 0.70624,-2.34375 -2.04808,1.835589 c -3.11658,2.793252 -5.28723,0.941202 -4.94314,-4.217598 0.23825,-3.571783 0.10766,-3.863823 -1.22984,-2.750329 -0.82302,0.685177 -2.16288,2.542128 -2.977475,4.126557 -0.814589,1.584429 -3.927244,6.107187 -6.917002,10.050571 -4.012082,5.29181 -4.94633,7.04138 -3.566755,6.67948 2.485279,-0.65194 5.530672,2.21695 5.60527,5.28041 l 0.05925,2.43282 0.876925,-2.19534 c 0.482308,-1.20744 3.768505,-5.42619 7.302667,-9.375 z m 6.15315,-11.359878 c 1.575,-1.745791 1.57842,-2.157344 0.0692,-8.335163 -1.47732,-6.047169 -1.48247,-7.061639 -0.0741,-14.600948 0.83243,-4.456237 1.26221,-8.510102 0.9551,-9.008585 -1.30764,-2.12241 -3.10973,-0.607595 -4.21942,3.546789 -1.14283,4.278435 -2.1334,28.055954 -1.22991,29.522409 0.77884,1.264135 2.79996,0.758991 4.49918,-1.124502 z m 6.11978,-9.647907 c 2.54212,-4.182411 2.41531,-6.328125 -0.374,-6.328125 -1.2281,0 -3.07181,0.738281 -4.09712,1.640625 -1.55005,1.364149 -1.72049,2.154081 -1.01139,4.6875 0.47216,1.686908 1.47274,3.046875 2.24169,3.046875 0.76389,0 2.22226,-1.371094 3.24082,-3.046875 z m 287.36263,42.469695 c -3.50626,-3.48845 -4.28392,-3.79839 -13.0738,-5.21069 -5.14019,-0.82588 -10.28122,-1.88654 -11.42452,-2.35701 -1.34465,-0.55334 -3.71751,-4.13128 -6.71938,-10.1319 l -4.64067,-9.276511 -5.77708,-1.45979 -5.77708,-1.4598 0.63195,6.433341 c 0.48117,4.89831 0.29345,7.08997 -0.78672,9.18533 -2.76901,5.37141 -7.25812,4.67343 -5.34522,-0.83109 0.75646,-2.17675 0.7745,-4.73043 0.0649,-9.18626 -0.82409,-5.174721 -1.46509,-6.578103 -3.96898,-8.689528 -2.60361,-2.195512 -3.17518,-2.348891 -4.46162,-1.197258 -2.26725,2.029657 -7.99863,1.660902 -10.31602,-0.663728 -1.59784,-1.60284 -1.88996,-2.771594 -1.51865,-6.076176 0.57956,-5.157916 -1.16455,-7.151047 -4.00286,-4.574384 -2.42683,2.203117 -3.58266,1.015695 -1.38379,-1.421618 1.96331,-2.176214 4.46009,-2.432405 5.96605,-0.612168 0.72623,0.877783 2.47037,1.131632 5.66171,0.824027 4.0609,-0.391421 4.88,-0.154628 6.85326,1.981203 1.63974,1.774843 2.51898,2.147016 3.27665,1.386977 2.2088,-2.215693 25.14273,4.563507 29.80299,8.809669 1.17601,1.071511 2.68703,4.455235 3.60958,8.083163 3.35242,13.183391 1.83098,11.645751 14.58875,14.743961 l 11.30821,2.74617 1.80072,4.1604 c 1.84915,4.27231 1.97441,7.64141 0.30453,8.19149 -0.51969,0.17119 -2.6225,-1.35783 -4.6729,-3.39782 z m 5.15049,1.1554 c 0,-0.88511 -0.65299,-3.31089 -1.45108,-5.39063 l -1.45108,-3.78134 -11.23391,-2.76753 c -7.3474,-1.81007 -11.51851,-3.30099 -12.05657,-4.3095 -0.45247,-0.84808 -1.51683,-4.6035 -2.36524,-8.34536 -1.73849,-7.667425 -3.79386,-10.35886 -7.91075,-10.35886 -2.08342,0 -3.09508,0.597308 -3.85855,2.278197 -0.89793,1.976872 -0.38538,3.557853 3.87513,11.953123 2.70046,5.32121 5.25372,10.05142 5.6739,10.51158 0.4202,0.46016 5.51952,1.64013 11.33183,2.62217 10.07496,1.70225 10.74153,1.95836 14.29239,5.49147 4.10287,4.08236 5.15393,4.50994 5.15393,2.09668 z m -54.74105,-13.92503 c 2.26757,-2.27466 2.62391,-5.16393 1.5723,-12.748387 -1.74635,-12.594967 -4.47315,-17.604252 -8.27984,-15.210514 -2.84402,1.788389 -2.59301,5.166064 0.58109,7.819308 2.38604,1.994506 3.02392,3.432987 3.83333,8.644483 0.65495,4.21705 0.66492,7.05935 0.0306,8.73291 -1.67303,4.41413 -0.64069,5.67447 2.2625,2.7622 z m 13.61956,-18.470354 c 1.20987,-2.61207 1.87566,-3.026586 4.86125,-3.026586 1.90266,0 3.16434,-0.263399 2.80374,-0.585331 -1.4942,-1.333957 -16.03577,-6.356917 -21.51578,-7.431996 -5.44279,-1.067776 -6.03019,-1.019847 -7.47663,0.610058 -0.86338,0.972882 -0.95997,1.244546 -0.21464,0.603697 3.30329,-2.840241 7.68653,0.509801 8.85719,6.769406 0.53879,2.881027 1.0713,3.382204 4.54478,4.277403 2.16397,0.55771 4.35504,1.168922 4.86906,1.35825 1.68208,0.619566 1.85413,0.484135 3.27103,-2.574901 z m -25.07359,-4.109387 c 2.72891,-2.477341 2.20974,-5.010949 -1.0268,-5.010949 -2.56485,0 -6.60989,3.5197 -6.60989,5.75143 0,1.433283 5.86906,0.864197 7.63669,-0.740481 z M 151.09035,99.687497 c -1.04498,-1.048238 -0.69811,-3.362916 0.7434,-4.960753 2.09659,-2.323936 0.81595,-5.662267 -2.17639,-5.673402 -4.37743,-0.01629 -11.66892,-4.196295 -16.2651,-9.324326 -3.83516,-4.278964 -4.42029,-5.469912 -4.42029,-8.996882 0,-5.139883 2.5225,-8.146583 8.8785,-10.582742 3.72837,-1.429031 4.73134,-2.274503 4.96202,-4.182866 0.15902,-1.315498 0.8711,-2.876328 1.58242,-3.468511 1.0536,-0.877141 0.0159,-2.323349 -5.59867,-7.802981 -6.17672,-6.028218 -6.95926,-7.195752 -7.5402,-11.249892 -0.75619,-5.277027 0.84435,-8.132498 2.71926,-4.851392 1.40829,2.464501 8.85753,9.90217 16.73891,16.712925 6.7688,5.849306 9.53673,9.957565 8.63309,12.813558 -0.30915,0.977087 -2.74903,3.11583 -5.42198,4.752761 -2.67294,1.636931 -4.97769,3.079101 -5.12165,3.204821 -0.14397,0.125721 1.3394,3.555737 3.29636,7.622259 3.47599,7.223026 3.63,7.386719 6.67243,7.092252 4.53566,-0.438993 7.58268,2.703212 7.58268,7.819542 0,5.438938 -2.30602,7.418929 -7.9035,6.786032 -4.8486,-0.548213 -7.21238,1.052559 -5.18061,3.50835 0.94356,1.14048 0.90631,1.40625 -0.19709,1.40625 -0.7483,0 -1.64092,-0.28125 -1.98359,-0.625003 z m 13.72938,-12.679494 c 1.49343,-2.393231 -1.67285,-5.445503 -5.64889,-5.445503 -2.4037,0 -3.35464,0.502974 -3.9881,2.109375 -1.73952,4.41135 7.06422,7.459023 9.63699,3.336128 z m -14.10281,-0.313131 c -1.23632,-0.868659 -2.64559,-3.611508 -3.58957,-6.98635 -0.85479,-3.055921 -2.31975,-6.25125 -3.2555,-7.100731 -1.56286,-1.418795 -1.87507,-1.422449 -3.83567,-0.0449 -2.69475,1.893378 -5.39579,1.906862 -8.05252,0.0402 -3.72369,-2.616313 -2.53674,1.609129 1.85924,6.618836 4.2364,4.827848 11.58408,8.878924 16.13141,8.893915 2.75601,0.0091 2.7619,-0.0022 0.74261,-1.420969 z m 3.30814,-3.885825 c 0.19103,-1.969969 -0.85203,-5.225197 -3.12519,-9.753191 -3.13461,-6.243959 -3.38579,-7.336458 -3.09047,-13.441724 0.29641,-6.127866 0.17588,-6.645382 -1.54771,-6.645382 -1.68094,0 -1.89636,0.715296 -2.13921,7.1033 -0.22549,5.931384 0.21519,8.560783 2.67105,15.9375 3.51311,10.552407 3.44267,10.421224 5.39642,10.050305 0.97148,-0.184438 1.6552,-1.395608 1.83511,-3.250808 z M 140.29024,71.354591 c 2.00857,-1.631526 2.27733,-1.649912 3.42612,-0.234375 1.08369,1.335326 1.11772,1.268463 0.26044,-0.511709 -0.54239,-1.126258 -0.98614,-4.178695 -0.98614,-6.783194 l 0,-4.735453 -4.90654,1.900491 c -7.76275,3.006807 -10.41328,7.644987 -6.10046,10.675239 2.77367,1.948832 5.65742,1.840865 8.30658,-0.310999 z m 13.42115,-9.245149 c 2.34016,-1.417932 4.48178,-3.295284 4.75914,-4.171895 0.92389,-2.920031 -2.30082,-7.127779 -11.65175,-15.203734 -8.86554,-7.656751 -12.57811,-11.507797 -13.45101,-13.952735 -0.94913,-2.658459 -1.76408,0.571968 -1.18348,4.691239 0.58175,4.127412 1.31131,5.150425 8.88951,12.465183 l 8.25574,7.96875 -0.48143,5.390625 c -0.26479,2.964844 -0.23622,5.390625 0.0635,5.390625 0.29971,0 2.45962,-1.160126 4.79979,-2.578058 z M 267.53261,83.17116 c -0.996,-1.693362 -6.17359,-6.874649 -11.50575,-11.513971 -10.24174,-8.910951 -13.56337,-13.201642 -12.59336,-16.267416 0.32177,-1.016966 2.77198,-3.188336 5.44493,-4.825267 2.67294,-1.636931 4.97769,-3.079101 5.12165,-3.204821 0.14396,-0.125721 -1.3394,-3.555737 -3.29636,-7.622259 -3.47599,-7.223026 -3.63,-7.386719 -6.67243,-7.092252 -4.53566,0.438993 -7.58269,-2.703212 -7.58269,-7.819542 0,-5.438941 2.30603,-7.418924 7.90351,-6.786036 4.93837,0.558365 7.21008,-1.055338 5.09115,-3.616476 -1.08721,-1.314094 -1.01106,-1.467658 0.57576,-1.16111 2.3485,0.453693 2.89585,3.292962 1.03289,5.35794 -2.17306,2.408717 -0.95794,5.75285 2.09448,5.764208 4.37743,0.01629 11.66891,4.196295 16.26509,9.324326 3.83517,4.278964 4.4203,5.469912 4.4203,8.996882 0,5.139883 -2.5225,8.146583 -8.8785,10.582742 -3.72838,1.429031 -4.73134,2.274503 -4.96202,4.182866 -0.15902,1.315498 -0.8711,2.876328 -1.58242,3.468511 -1.0536,0.877141 -0.016,2.323349 5.59867,7.802981 6.1093,5.96242 6.96327,7.22444 7.51971,11.112847 0.98769,6.901939 -0.94281,8.504415 -3.99461,3.315847 z m 3.49022,0.03197 c -0.0145,-5.854907 -1.95838,-9.085491 -9.74599,-16.196776 l -7.81668,-7.137825 0.50253,-5.559263 c 0.27639,-3.057597 0.25098,-5.559265 -0.0565,-5.559265 -1.53408,0 -9.13433,5.36349 -9.57533,6.757306 -0.91421,2.889432 2.04584,6.713225 11.87161,15.335717 5.32695,4.674601 10.52648,9.826318 11.55452,11.448262 2.22048,3.503278 3.27294,3.797133 3.26581,0.91184 z m -12.4036,-30.244748 c 0.17651,-6.355974 -0.25475,-8.837713 -2.84922,-16.395881 -2.45761,-7.159454 -3.41491,-8.90625 -4.88091,-8.90625 -3.23224,0 -2.81845,5.089844 1.03839,12.772432 3.1881,6.350502 3.40299,7.299641 2.98368,13.178349 -0.48001,6.729717 -0.24134,7.557374 2.05261,7.118135 1.14148,-0.218567 1.49141,-1.860338 1.65545,-7.766785 z m 12.64246,-4.351412 c 2.21505,-2.627002 2.05658,-5.079804 -0.4416,-6.835059 -2.80503,-1.970858 -5.60492,-1.83588 -8.44772,0.407253 -2.04651,1.614822 -2.44034,1.671494 -2.91907,0.420058 -0.3161,-0.826329 -0.15794,-1.201448 0.36886,-0.874851 0.50723,0.314465 1.85767,-0.0855 3.00098,-0.888808 2.64178,-1.856161 5.35625,-1.856552 7.99695,-0.0011 3.72368,2.616313 2.53674,-1.60913 -1.85924,-6.618836 -4.2364,-4.827848 -11.58408,-8.878924 -16.13141,-8.893915 -2.76483,-0.0091 -2.76828,-0.0023 -0.72774,1.431415 1.12766,0.792315 2.51321,3.165085 3.079,5.272823 0.56578,2.107738 1.4836,4.939948 2.03957,6.293802 1.65364,4.026749 1.87231,5.026219 2.32327,10.61908 l 0.43099,5.34503 4.82582,-1.868576 c 2.65421,-1.027715 5.56181,-2.741434 6.46134,-3.808263 z M 247.62101,29.765625 c 1.73952,-4.41135 -7.06422,-7.459023 -9.637,-3.336128 -1.49343,2.393231 1.67286,5.445503 5.6489,5.445503 2.40369,0 3.35464,-0.502974 3.9881,-2.109375 z m 62.27682,45.9375 c -1.29578,-1.160156 -3.15941,-4.21875 -4.14142,-6.796875 -1.42458,-3.740027 -2.26742,-4.746122 -4.16983,-4.977526 -1.31141,-0.159514 -2.86738,-0.873829 -3.45771,-1.587366 -0.87441,-1.05689 -2.31612,-0.01598 -7.77868,5.616175 -6.00944,6.196016 -7.17333,6.980997 -11.21484,7.563757 -5.26059,0.758544 -8.10717,-0.846984 -4.83628,-2.727763 2.45682,-1.412688 9.87133,-8.885198 16.66086,-16.791215 5.83109,-6.789955 9.92654,-9.566532 12.77364,-8.660075 0.97404,0.310115 3.10613,2.757634 4.73796,5.43893 1.63183,2.681295 3.0695,4.993242 3.19483,5.137657 0.12534,0.144416 3.54467,-1.343582 7.59852,-3.306663 7.20052,-3.486856 7.36371,-3.641341 7.07016,-6.69328 -0.43763,-4.549834 2.69479,-7.606381 7.79518,-7.606381 5.42199,0 7.39582,2.313237 6.76489,7.928206 -0.55663,4.9538 1.05206,7.23261 3.60522,5.107054 1.31,-1.090601 1.46308,-1.014214 1.15749,0.577567 -0.45228,2.355838 -3.28271,2.904895 -5.34125,1.036117 -2.40122,-2.179859 -5.73493,-0.960941 -5.74625,2.101023 -0.0163,4.391108 -4.18323,11.705377 -9.29528,16.315918 -4.26564,3.847157 -5.45287,4.434115 -8.96886,4.434115 -2.88139,0 -4.7332,-0.609544 -6.40835,-2.109375 z m 7.33891,-0.911724 c 1.98301,-2.840015 1.82623,-5.627443 -0.48213,-8.571221 C 315.08827,64.095157 314.11076,63.75 309.75889,63.75 l -5.05872,0 1.89458,4.921875 c 2.99744,7.787004 7.62117,10.445816 10.64199,6.119526 z m 7.53279,-1.865055 c 4.8128,-4.249642 8.85126,-11.620274 8.86621,-16.18182 0.009,-2.764621 -0.002,-2.77053 -1.41655,-0.74493 -0.86595,1.240183 -3.60025,2.653858 -6.96458,3.60079 -3.04641,0.857448 -6.23178,2.326995 -7.07861,3.265661 -1.41438,1.567751 -1.41802,1.880933 -0.0448,3.847659 1.88748,2.703175 1.90092,5.412661 0.0401,8.077695 -2.60816,3.73531 1.60412,2.544665 6.59822,-1.865055 z m -43.26818,1.098136 c 2.5535,-0.711405 5.33423,-3.026022 10.57955,-8.80616 l 7.11559,-7.841098 5.54195,0.504096 c 3.04806,0.277253 5.54194,0.25176 5.54194,-0.05665 0,-1.538875 -5.34678,-9.162868 -6.73625,-9.605248 -2.88043,-0.91707 -6.69232,2.052235 -15.28795,11.908709 -4.66003,5.343592 -9.79571,10.55937 -11.41259,11.59062 -1.61689,1.03125 -2.956,2.191406 -2.97581,2.578125 -0.0508,0.992334 3.55596,0.863632 7.63357,-0.272393 z m 35.78176,-11.201244 c 0.3405,-0.552653 -0.10882,-0.681577 -1.11307,-0.319378 -0.92623,0.33406 -1.41566,0.306087 -1.08761,-0.06217 0.32803,-0.36825 4.11308,-1.810643 8.41121,-3.205319 6.33234,-2.054745 7.81478,-2.889735 7.81478,-4.401701 0,-3.273853 -5.03306,-2.884486 -12.68575,0.981394 -6.22451,3.144408 -7.31361,3.396376 -13.39985,3.100131 -6.10878,-0.297338 -6.62468,-0.176432 -6.62468,1.552551 0,1.697151 0.79783,1.924889 8.41121,2.400965 4.62617,0.289281 8.70182,0.605688 9.05699,0.703125 0.35518,0.09744 0.90273,-0.239883 1.21677,-0.749602 z m 17.10984,-17.187835 c -0.64864,-6.445134 -7.29014,-4.728892 -7.29014,1.883858 0,2.411198 0.50141,3.365117 2.1028,4.00055 2.82908,1.122574 5.57862,-1.996462 5.18734,-5.884408 z M 173.38521,70.33547 c -1.27344,-1.411533 -1.55795,-2.856724 -1.1962,-6.076176 0.55663,-4.9538 -1.05205,-7.23261 -3.60521,-5.107054 -1.31,1.090601 -1.46309,1.014214 -1.1575,-0.577567 0.45228,-2.355838 3.28271,-2.904895 5.34126,-1.036117 2.40121,2.179859 5.73492,0.960941 5.74625,-2.101023 0.0163,-4.391108 4.18322,-11.705377 9.29528,-16.315918 4.26563,-3.847157 5.45287,-4.434115 8.96885,-4.434115 5.12387,0 8.1212,2.530387 10.54977,8.90625 1.42458,3.740027 2.26743,4.746122 4.16984,4.977526 1.3114,0.159514 2.86737,0.873829 3.45771,1.587366 0.8744,1.05689 2.31611,0.01598 7.77867,-5.616175 6.00944,-6.196016 7.17334,-6.980997 11.21484,-7.563757 5.26059,-0.758544 8.10717,0.846984 4.83628,2.727763 -2.45682,1.412688 -9.87133,8.885198 -16.66086,16.791215 -5.83108,6.789955 -9.92654,9.566532 -12.77363,8.660075 -0.97405,-0.310115 -3.10613,-2.757634 -4.73797,-5.43893 -1.63183,-2.681296 -3.0695,-4.993242 -3.19483,-5.137657 -0.12533,-0.144416 -3.54466,1.343582 -7.59851,3.306663 -7.20053,3.486856 -7.36371,3.641341 -7.07016,6.69328 0.43762,4.549834 -2.6948,7.606381 -7.79519,7.606381 -2.69482,0 -4.41353,-0.571606 -5.56869,-1.85203 z m 10.887,-0.637021 c 2.53729,-2.303396 2.2958,-7.651067 -0.3937,-8.71826 -1.62794,-0.645965 -2.47215,-0.403976 -3.73832,1.07157 -1.88352,2.194977 -2.1531,6.429038 -0.51402,8.073241 1.51304,1.517769 2.61581,1.416525 4.64604,-0.426551 z m 29.73781,-6.412699 c 1.48624,-0.770963 6.29179,-5.58401 10.67902,-10.695661 7.6329,-8.893251 11.47195,-12.617422 13.90926,-13.493048 2.65018,-0.952097 -0.57018,-1.769598 -4.67661,-1.187177 -4.11456,0.583571 -5.13439,1.31541 -12.42636,8.917283 l -7.94392,8.281536 -5.37384,-0.482933 c -2.9556,-0.265612 -5.37383,-0.211369 -5.37383,0.120539 0,0.977952 4.86003,8.473154 5.98083,9.22373 1.47107,0.985134 2.18829,0.891214 5.22545,-0.684269 z m -19.44314,-6.655077 c 6.11095,-3.08704 7.22478,-3.342311 13.29442,-3.046875 6.10878,0.297341 6.62469,0.176434 6.62469,-1.552548 0,-1.686189 -0.71307,-1.902278 -7.08117,-2.145888 -5.90105,-0.225743 -8.54887,0.218569 -15.88785,2.666025 -9.73655,3.247013 -10.71398,3.837666 -9.89469,5.979347 0.92775,2.425239 5.79742,1.71045 12.9446,-1.900061 z m -8.43514,-3.233805 c 2.10117,-0.567555 4.92455,-1.488231 6.27419,-2.045946 4.01421,-1.658806 5.01057,-1.878156 10.586,-2.330533 l 5.32838,-0.432331 -1.86275,-4.840904 c -2.96603,-7.708094 -7.60209,-10.346608 -10.61017,-6.038555 -1.96472,2.813796 -1.83016,5.622437 0.40599,8.474118 1.60978,2.052913 1.66628,2.447971 0.41875,2.928191 -0.82376,0.317093 -1.19771,0.158444 -0.87213,-0.370002 0.31348,-0.508814 -0.0852,-1.863477 -0.88604,-3.010361 -1.85038,-2.65004 -1.85077,-5.372992 -9.4e-4,-8.021946 2.60817,-3.73531 -1.60411,-2.544665 -6.59821,1.865055 -4.81281,4.249642 -8.85126,11.620274 -8.86621,16.18182 -0.009,2.773465 -0.002,2.776938 1.42696,0.730018 0.78985,-1.131189 3.15522,-2.521069 5.2564,-3.088624 z"
       id="path3400"
       inkscape:connector-curvature="0" />
  </g>
</svg>
