<?xml version="1.0" encoding="UTF-8" standalone="no"?>
<!-- Created with Inkscape (http://www.inkscape.org/) -->

<svg
   xmlns:dc="http://purl.org/dc/elements/1.1/"
   xmlns:cc="http://creativecommons.org/ns#"
   xmlns:rdf="http://www.w3.org/1999/02/22-rdf-syntax-ns#"
   xmlns:svg="http://www.w3.org/2000/svg"
   xmlns="http://www.w3.org/2000/svg"
   xmlns:sodipodi="http://sodipodi.sourceforge.net/DTD/sodipodi-0.dtd"
   xmlns:inkscape="http://www.inkscape.org/namespaces/inkscape"
   id="svg3396"
   version="1.1"
   inkscape:version="0.91 r13725"
   width="550"
   height="225"
   viewBox="0 0 550 225"
   sodipodi:docname="ub110402.svg">
  <metadata
     id="metadata3402">
    <rdf:RDF>
      <cc:Work
         rdf:about="">
        <dc:format>image/svg+xml</dc:format>
        <dc:type
           rdf:resource="http://purl.org/dc/dcmitype/StillImage" />
        <dc:title></dc:title>
      </cc:Work>
    </rdf:RDF>
  </metadata>
  <defs
     id="defs3400" />
  <sodipodi:namedview
     pagecolor="#ffffff"
     bordercolor="#666666"
     borderopacity="1"
     objecttolerance="10"
     gridtolerance="10"
     guidetolerance="10"
     inkscape:pageopacity="0"
     inkscape:pageshadow="2"
     inkscape:window-width="1390"
     inkscape:window-height="795"
     id="namedview3398"
     showgrid="false"
     inkscape:zoom="1.2960272"
     inkscape:cx="285.66306"
     inkscape:cy="117.05359"
     inkscape:window-x="0"
     inkscape:window-y="0"
     inkscape:window-maximized="0"
     inkscape:current-layer="svg3396" />
  <g
     transform="translate(-2.366357,-361.92275)"
     id="g4930">
    <path
       id="path4747-0"
       d="m 360.09244,408.43031 c -0.43759,0.0921 -0.69393,0.59056 -0.90268,1.59017 -0.24045,1.15141 -1.01215,3.20724 -1.71688,4.56829 -0.70473,1.36107 -0.90459,2.66925 -0.4432,2.9074 0.46139,0.23813 1.47891,-1.06949 2.26166,-2.90517 0.78274,-1.83569 1.57274,-3.38513 1.75472,-3.44295 0.18202,-0.0578 0.63233,1.45808 1.00244,3.36826 0.37014,1.91016 1.37233,3.92075 2.22481,4.46771 1.24524,0.79895 0.94655,2.55175 -1.51148,8.9173 -2.5999,6.73296 -5.35279,10.77251 -18.32631,26.88129 -8.397,10.42625 -15.59381,19.05979 -15.9939,19.18689 -1.75483,0.55753 -4.94001,8.85861 -3.89916,10.16157 1.46979,1.83992 2.31406,1.153 15.1793,-12.33336 30.35904,-31.82478 33.45172,-35.60968 35.5429,-43.50972 1.22471,-4.62669 1.91278,-5.51716 6.236,-8.06976 7.35077,-4.3402 13.188,-15.65682 9.15418,-17.74549 -1.00607,-0.52092 -2.06351,0.56231 -3.88406,3.97805 -2.2038,4.13489 -6.25325,7.95434 -9.54328,8.99961 -0.59918,0.19036 -1.97647,-1.45792 -3.05956,-3.66354 -2.43031,-4.94909 -4.54207,-5.91186 -8.53405,-3.8916 -1.77234,0.89693 -3.66777,1.22581 -4.52708,0.7866 -0.42358,-0.21653 -0.75185,-0.3068 -1.01441,-0.25154 z"
       style="fill:#000000"
       inkscape:connector-curvature="0" />
    <path
       id="path4764-2"
       d="m 324.95819,483.33643 c -0.41496,-1.30609 2.59133,-8.03388 3.75513,-8.40363 0.39272,-0.12477 6.40428,-7.2285 13.35901,-15.78607 6.95473,-8.55756 13.57933,-15.85606 14.72135,-16.21889 2.58231,-0.82042 5.11367,0.70236 4.97874,2.99503 -0.0559,0.95003 -5.84155,7.65832 -12.85697,14.90732 -7.01543,7.249 -14.35978,14.96295 -16.32078,17.14212 -4.65757,5.17573 -7.14191,6.92082 -7.63648,5.36412 z"
       style="fill:#fefefe"
       inkscape:connector-curvature="0" />
    <path
       id="path4756-5"
       d="m 367.35227,423.70348 c -1.70817,-2.41841 -0.15781,-4.22737 4.24701,-4.95543 5.75591,-0.95139 12.60109,-5.95176 15.44049,-11.27921 2.55695,-4.7975 4.0446,-5.51252 4.04563,-1.94449 0.001,4.49559 -4.29478,10.13051 -10.88602,14.27859 -8.57469,5.3963 -11.22276,6.20029 -12.84711,3.90054 z"
       style="fill:#fefefe"
       inkscape:connector-curvature="0" />
    <path
       id="path2997-7-6"
       d="m 370.04787,418.02118 c -1.50955,0.24376 -2.93025,-0.14099 -3.15709,-0.855 -0.66064,-2.0794 1.51585,-5.34792 3.81784,-5.73338 1.606,-0.26893 2.33069,0.3168 3.00054,2.42518 0.95456,3.00452 0.53089,3.48626 -3.66129,4.1632 z"
       style="fill:#fefefe"
       inkscape:connector-curvature="0" />
    <path
       id="path2991-7"
       d="m 362.64585,445.46179 c 0.45304,-1.81401 -3.4668,-4.33931 -5.66188,-3.64759 -0.90718,0.28612 -0.59085,-0.59105 0.7839,-2.17272 1.26785,-1.45867 3.42376,-5.72149 4.79092,-9.47294 2.41648,-6.63073 2.54438,-6.78039 4.58945,-5.36998 1.17058,0.80729 3.54013,1.13951 5.34201,0.74897 l 3.2383,-0.70187 -1.6426,4.8266 c -0.90344,2.65464 -2.92259,6.4034 -4.487,8.33059 -6.5614,8.08294 -7.30932,8.88527 -6.9531,7.45894 z"
       style="fill:#0000fe"
       inkscape:connector-curvature="0" />
    <path
       style="fill:#000000"
       d="m 27.396765,465.50566 c -0.14241,-0.0213 -0.278501,-0.0202 -0.402341,0.01 -1.0793,0.26165 -1.177669,2.19179 -0.91602,3.63086 0.12678,0.69731 0.6613,1.49194 1.56836,2.54492 l 3.13086,3.14063 c 2.77572,2.78439 3.47949,4.21433 3.55469,7.2207 0.104011,4.15867 -1.962159,5.94204 -3.86329,3.33398 -0.7834,-1.07473 -1.29739,-1.20114 -1.77148,-0.43164 -0.367179,0.59596 -0.0418,1.71167 0.72266,2.47852 1.08929,1.0927 2.10434,1.19615 4.69531,0.47851 2.13996,-0.59301 3.62701,-0.59347 4.214841,-0.004 0.499489,0.50105 2.11564,0.77273 3.591799,0.60351 1.84071,-0.211 3.27082,0.33467 4.55273,1.73828 1.02803,1.12566 6.74161,4.60612 12.69532,7.73438 8.41705,4.42259 11.72785,5.6875 14.88867,5.6875 3.913232,0 12.088902,0.80341 28.958986,2.84375 6.14977,0.74378 8.89268,0.68058 12.14844,-0.2793 8.16489,-2.40722 5.65097,-3.48941 -19.625004,-8.43359 -25.155932,-4.92071 -29.139711,-6.10274 -34.253911,-10.17969 -1.74915,-1.3944 -5.04154,-3.30812 -7.3164,-4.25195 -2.70761,-1.12338 -4.31741,-2.44262 -4.66211,-3.82031 -0.74783,-2.98891 -4.58369,-5.24012 -8.05859,-4.72852 -2.4464,0.36017 -3.67509,-0.2903 -7.94727,-4.20703 -1.27813,-1.17179 -2.41826,-2.38826 -3.31055,-3.4668 -0.25124,-0.24011 -1.59881,-1.49375 -2.5957,-1.64258 z"
       id="path4194"
       inkscape:connector-curvature="0" />
    <path
       inkscape:connector-curvature="0"
       style="fill:#fefefe"
       d="m 102.55037,505.51345 c -2.570094,-0.4114 -10.140184,-1.26245 -16.822434,-1.89123 -11.651932,-1.09642 -17.289722,-2.63672 -17.289722,-4.72375 0,-2.00073 1.98888,-4.60267 3.53755,-4.62797 2.80536,-0.0459 46.911936,8.90715 46.921026,9.52426 0.0108,0.73839 -7.69795,2.72883 -9.98457,2.57805 -0.92892,-0.0612 -3.79175,-0.44797 -6.36185,-0.85936 z"
       id="path4282" />
    <path
       inkscape:connector-curvature="0"
       style="fill:#fefefe"
       d="m 46.864565,487.91912 c -5.25358,-3.46178 -19.547841,-17.40396 -19.547841,-19.06635 0,-2.47679 1.11618,-2.17124 4.264401,1.16735 3.220919,3.41569 12.33385,9.88805 17.6811,12.55781 2.8843,1.44007 3.755429,2.41867 3.755429,4.21875 0,2.91023 -2.69412,3.40169 -6.153089,1.12244 z"
       id="path4270" />
    <path
       inkscape:connector-curvature="0"
       style="fill:#fefefe"
       d="m 44.732474,479.22864 c -2.74624,-2.16695 -3.182649,-3.68196 -1.060609,-3.68196 1.57671,0 5.14018,3.24965 5.14018,4.6875 0,1.45837 -1.391711,1.11533 -4.079571,-1.00554 z"
       id="path4264" />
    <path
       inkscape:connector-curvature="0"
       style="fill:#0000fe"
       d="m 60.027004,497.48825 c -11.56732,-6.1502 -14.342599,-7.86665 -13.7235,-8.48769 0.25155,-0.25233 1.3409,0.0947 2.42077,0.7712 2.60455,1.63165 5.23888,-0.0121 5.1977,-3.24321 l -0.0303,-2.37431 3.36381,1.72145 c 1.8501,0.9468 3.85896,2.31993 4.46413,3.0514 0.60519,0.73148 2.74034,2.07181 4.74479,2.97852 l 3.64445,1.64855 -1.53627,2.76506 c -1.4827,2.66864 -1.45933,2.8287 0.67006,4.59001 3.64088,3.01151 1.128421,2.07885 -9.21568,-3.42098 z"
       id="path4248" />
    <path
       style="fill:#000000"
       d="m 270.52177,412.85527 c -0.47239,-0.007 -0.98449,-0.006 -1.54102,0.002 -6.13122,0.0866 -7.98661,1.57316 -7.21875,5.78515 0.33419,1.83318 0.50653,1.72374 1.55274,-0.98632 1.50984,-3.911 2.58733,-3.911 2.13476,0 -0.24904,2.15213 0.35913,4.09765 2.07227,6.62695 1.33395,1.96947 1.99912,3.3169 1.47852,2.99414 -0.52061,-0.32276 -1.41676,0.44992 -1.99219,1.7168 -0.85545,1.88338 -0.58258,3.73072 1.50195,10.13085 1.40219,4.30517 3.39454,9.30469 4.42578,11.10938 1.63518,2.86158 2.70621,4.62345 3.43164,8.24023 0.65268,1.9414 0.88461,2.77717 2.4961,3.06641 1.41347,0.2537 5.84056,3.79846 7.73828,5.35938 1.67052,1.22128 3.90955,2.95978 7.14453,5.51757 6.16823,4.87702 11.36054,9.2774 11.53711,9.77735 0.39535,1.11942 8.11323,5.05082 11.53711,5.87695 1.38205,0.33347 2.77439,0.17972 3.0957,-0.3418 0.32132,-0.52153 -7.42594,-8.79034 -17.2168,-18.375 l -17.80078,-17.42578 -2.81836,-8.82812 c -1.55036,-4.855 -2.82031,-9.42268 -2.82031,-10.15039 0,-0.72771 -1.01883,-2.53902 -2.26562,-4.02539 -2.2042,-2.62772 -2.21858,-2.73388 -0.46875,-3.83008 2.49952,-1.56585 2.47154,-7.93858 -0.0469,-10.46485 -1.2742,-1.27819 -2.65031,-1.72556 -5.95703,-1.77539 z"
       id="path4226"
       inkscape:connector-curvature="0" />
    <path
       style="fill:#fefefe"
       d="m 316.64383,487.13373 c -3.45561,-1.11523 -10.28037,-4.46842 -10.28037,-5.05102 0,-0.35391 -5.46729,-4.95057 -12.14954,-10.21481 -6.68224,-5.26423 -12.14953,-9.96506 -12.14953,-10.44628 0,-0.48122 -1.01915,-0.87494 -2.26477,-0.87494 -2.1292,0 -2.41139,-0.65945 -4.71385,-11.01562 -1.34699,-6.0586 -2.89929,-12.28125 -3.44957,-13.82813 -1.93148,-5.4296 -2.03329,-7.90751 -0.3515,-8.5549 2.96603,-1.14172 4.10117,1.77071 5.70943,14.64865 1.7317,13.86641 2.46289,16.64968 4.58894,17.46808 0.77875,0.29976 1.44911,1.23817 1.48969,2.08535 0.056,1.16798 0.19872,1.22393 0.59068,0.23147 0.2843,-0.71986 -0.39293,-1.99727 -1.50494,-2.83869 -1.13209,-0.85661 -2.11176,-2.73983 -2.22619,-4.27941 -0.44314,-5.96219 2.58657,-3.926 21.0688,14.15977 9.88854,9.67643 18.11936,17.93492 18.29069,18.35221 0.33729,0.82145 -0.44769,0.86836 -2.64797,0.15827 z"
       id="path4268"
       inkscape:connector-curvature="0" />
    <path
       style="fill:#fefefe"
       d="m 270.84944,423.66073 c 0,-2.48992 2.64117,-5.30155 4.98013,-5.30155 2.30374,0 2.10546,5.26723 -0.2458,6.52952 -3.00971,1.61579 -4.73433,1.16847 -4.73433,-1.22797 z"
       id="path3446"
       inkscape:connector-curvature="0" />
    <path
       style="fill:#0000fe"
       d="m 278.83469,448.35918 c -0.92063,-4.57293 -2.35974,-18.14309 -1.96596,-18.5381 0.21995,-0.22064 0.86948,1.43439 1.44341,3.67784 0.57392,2.24346 2.00928,7.03214 3.18968,10.64151 l 2.14619,6.5625 -2.17074,0 c -1.56657,0 -2.30206,-0.65231 -2.64258,-2.34375 z"
       id="path4238"
       inkscape:connector-curvature="0" />
    <path
       style="fill:#0000fe"
       d="m 270.0116,440.6817 c -3.33119,-10.03028 -3.34123,-10.1095 -1.58695,-12.51613 1.23547,-1.69488 1.28573,-1.65605 0.84566,0.65326 -0.25734,1.35038 0.0604,3.44541 0.70604,4.65561 1.23205,2.30929 3.90601,14.96734 3.29192,15.58335 -0.19591,0.19652 -1.66142,-3.57272 -3.25667,-8.37609 z"
       id="path3442"
       inkscape:connector-curvature="0" />
    <path
       style="fill:#000000"
       d="m 136.43193,459.88262 c -0.45526,-0.0252 -0.90227,0.078 -1.31055,0.33594 -0.86944,0.54921 -1.72705,1.74725 -1.90625,2.6621 -0.33032,1.68633 0.94106,4.35553 1.80927,4.91911 0.71857,0.46644 1.27981,1.10497 1.66931,1.70587 0.69649,1.08449 2.84571,5.26563 2.84571,5.26563 0,0 -3.11717,1.84584 -6.16406,3.84961 -0.35651,0.23446 -0.71308,0.46087 -1.0625,0.69726 -0.0275,0.0186 -0.0438,0.0201 -0.0703,0.0371 -0.19431,0.12519 -0.34744,0.22583 -0.55859,0.36133 -7.31382,4.69322 -12.97976,13.99602 -9.27735,15.23242 0.55846,0.1865 3.66086,-1.78202 6.89454,-4.375 2.66118,-2.13393 5.14922,-3.92825 6.20507,-4.5039 2.35404,-1.41607 4.97757,-2.48695 7.61719,-3.32227 0.0882,-0.026 0.17431,-0.0379 0.25977,-0.0391 0.16107,-0.002 0.31725,0.0373 0.46679,0.10742 0.7165,0.12458 1.38428,0.67779 2.44141,1.83203 1.63863,1.78916 1.87937,2.51998 0.94336,2.85352 -0.69233,0.2467 -2.68825,1.70933 -4.4375,3.25 l -2.58984,2.2793 c -1.16631,1.43119 -0.7999,3.85509 -0.55274,4.93359 0.0223,0.0971 0.0614,0.20117 0.0977,0.30469 l 2.25586,2.26172 c 1.78598,1.79156 3.09286,2.29625 5.1582,1.99218 1.61682,-0.23804 3.19407,0.11123 3.79688,0.83985 1.39158,1.682 2.70148,1.54089 5.46093,-0.58594 2.90306,-2.2375 1.92078,-3.53879 -1.14843,-1.52149 -2.89453,1.90251 -3.68315,1.08383 -2.02539,-2.10351 0.71851,-1.38152 1.30949,-3.46095 1.3125,-4.62109 0.005,-1.74053 0.52219,-2.10938 2.95507,-2.10938 2.22813,0 3.82356,-0.92392 6.53321,-3.78125 4.45121,-4.69383 5.84089,-7.35212 7.79882,-14.93164 1.48254,-5.73918 1.4718,-6.07014 -0.25195,-8.39649 -3.05423,-4.12191 -7.00924,-3.71647 -18.06641,1.84961 l -9.61914,4.8418 -1.68164,-2.08203 c -0.92445,-1.14522 -1.67968,-3.23664 -1.67968,-4.64648 0,-2.76596 -2.14636,-5.28327 -4.11914,-5.39258 z m 22.29296,14.72656 c 0.2708,0 -0.427,1.89844 -1.55078,4.21875 -2.24104,4.62714 -4.66699,5.48708 -6.38672,2.26367 -0.57375,-1.0754 -0.90257,-2.07824 -0.73242,-2.22851 0.60478,-0.53412 8.18589,-4.25391 8.66992,-4.25391 z"
       id="path4206"
       inkscape:connector-curvature="0"
       sodipodi:nodetypes="ccscccscccssccccsscccccssssccsssscccsccsssss" />
    <path
       inkscape:connector-curvature="0"
       style="fill:#fefefe"
       d="m 144.38337,493.92903 -2.1003,-2.24265 2.14534,-1.50735 c 2.78763,-1.95863 4.20693,-1.90087 6.97576,0.2839 l 2.27012,1.79126 -2.48238,1.95874 c -3.1788,2.50826 -4.23485,2.46422 -6.80854,-0.2839 z"
       id="path4278" />
    <path
       style="fill:#fefefe"
       d="m 140.14368,475.56035 c -0.78332,0.14309 -8.12191,4.83594 -8.12191,4.83594 -4.53511,2.7992 -10.16211,9.81949 -10.16211,12.67773 0,2.0581 1.39566,1.41124 7.47656,-3.46484 3.16833,-2.54059 6.20438,-4.64233 11.44141,-6.68945 0.37528,-0.0558 0.86118,-0.29753 1.49609,-0.70117 1.03697,-0.65926 0.99182,-1.31032 -0.25781,-3.73438 -0.8327,-1.6153 -1.71826,-2.96585 -1.87223,-2.92383 z"
       id="path4274"
       inkscape:connector-curvature="0"
       sodipodi:nodetypes="ccsscssc" />
    <path
       inkscape:connector-curvature="0"
       id="path4272"
       d="m 137.05888,460.66973 c -0.17962,0.002 -0.41373,0.0262 -0.70313,0.0723 -2.05712,0.32713 -2.89797,2.80473 -1.78125,5.25 0.12601,0.2759 0.23422,0.46387 0.33203,0.58594 0.71589,1.44655 2.93744,3.09736 5.65626,8.50781 0.27543,0.54811 1.7545,2.1424 2.73828,4.04101 0.98379,1.89861 3.67416,5.48966 5.98046,7.98048 4.47009,4.8277 7.39484,5.51458 9.39844,2.20898 0.83719,-1.38121 0.61553,-2.03941 -1.17773,-3.51562 -1.21349,-0.99896 -2.957,-1.81642 -3.875,-1.81642 -0.99641,0 -4.91418,-2.76456 -7.83985,-8.08593 0,0 -6.09698,-7.48108 -8.30664,-15.07617 8.2e-4,-0.0184 -0.007,-0.0337 -0.0156,-0.0488 -0.002,-0.008 -0.005,-0.0169 -0.008,-0.0254 0,0 -0.006,0.006 -0.006,0.006 -0.0537,-0.0561 -0.17951,-0.0866 -0.39258,-0.084 z"
       style="fill:#fefefe" />
    <path
       inkscape:connector-curvature="0"
       style="fill:#fefefe"
       d="m 146.31779,475.56319 -2.06073,-2.79599 9.34463,-4.70401 c 10.6542,-5.36323 13.31822,-5.76065 15.56438,-2.32186 1.27206,1.94748 1.35666,2.821 0.46364,4.7871 -0.95894,2.11119 -1.48339,2.33135 -4.29391,1.80244 -2.55615,-0.48103 -4.52461,0.0659 -9.76456,2.71291 -3.60964,1.82347 -6.70468,3.3154 -6.87786,3.3154 -0.17318,0 -1.24218,-1.2582 -2.37559,-2.79599 z"
       id="path4262" />
    <path
       inkscape:connector-curvature="0"
       style="fill:#0000fe"
       d="m 159.46769,489.54998 c 1.02717,-1.68922 0.86799,-2.20287 -1.25676,-4.05539 l -2.43288,-2.12121 2.7186,-5.39318 2.71862,-5.39318 3.61838,0.61323 c 3.22761,0.54701 3.79698,0.33983 5.27196,-1.91831 1.54695,-2.36832 1.55413,-2.70537 0.11132,-5.22716 -1.86749,-3.2641 -1.32292,-3.59158 0.73453,-0.4417 1.34204,2.05462 1.33728,2.77623 -0.0538,8.16155 -1.89714,7.34417 -3.27847,10.05571 -7.3037,14.33703 -3.53752,3.76259 -6.07806,4.64817 -4.12622,1.43832 z"
       id="path4246" />
    <path
       style="fill:#000000"
       d="m 175.83036,434.62676 c -1.03395,-0.0462 -1.94966,0.0171 -2.92968,0.15234 -2.51446,0.34691 -4.81927,1.03158 -5.1211,1.52149 -0.90281,1.46534 1.53607,3.61711 4.16602,3.67578 1.35061,0.0301 5.6097,1.2712 9.46484,2.75781 6.38431,2.46191 6.70866,2.70791 3.64844,2.75781 -4.71674,0.0769 -6.8522,2.65648 -6.20508,7.4961 0.34284,2.56409 0.0895,4.07651 -0.80859,4.82421 -1.72008,1.43199 -1.66387,4.08366 0.11718,5.56641 1.87073,1.55743 2.92529,0.44227 1.36524,-1.44336 -1.82984,-2.2117 0.16161,-3.60855 5.28125,-3.70508 3.53783,-0.0667 4.81715,0.38888 6.86523,2.44336 3.80168,3.81356 12.47219,4.52499 26.2793,2.1543 0,0 2.47303,-0.41804 4.05961,-0.41804 0.69439,-0.002 3.38112,0.45559 3.74332,0.74988 0.37002,0.30065 0.71596,1.50303 1.52539,1.71117 0.47074,0.12105 0.72716,-0.0844 0.9004,-0.34961 1.40439,-3.11783 -0.14952,-5.60985 -4.20508,-6.37305 -2.82118,-0.53091 -3.31446,-0.99762 -3.31446,-3.14648 0,-2.79193 -4.19958,-7.37888 -8.8789,-9.69727 -1.54206,-0.76402 -9.89178,-3.58542 -18.55664,-6.27148 -10.13153,-3.14071 -14.29462,-4.26762 -17.39649,-4.40625 z m 12.34961,10.92383 c 1.04103,-0.005 17.5293,6.69655 17.5293,7.125 0,0.20367 -0.94698,0.29712 -2.10352,0.20703 -8.84468,-0.68892 -10.04687,-0.95824 -10.04687,-2.24805 0,-0.75137 -1.36655,-2.20091 -3.03711,-3.22266 -1.67057,-1.02174 -2.72377,-1.85932 -2.3418,-1.86132 z"
       id="path4216"
       inkscape:connector-curvature="0"
       sodipodi:nodetypes="ccccssscssssccsscsssscccssssc" />
    <path
       inkscape:connector-curvature="0"
       style="fill:#fefefe"
       d="m 226.65244,463.05412 c -0.64883,-0.74545 -6.57202,-1.59477 -16.29322,-2.33625 -8.40057,-0.64076 -15.82734,-1.62587 -16.50392,-2.18915 -1.62606,-1.35372 -1.57276,-4.47151 0.0874,-5.11054 0.72464,-0.27894 2.68324,0.20129 4.35247,1.06717 1.66922,0.86589 8.69954,2.3288 15.62292,3.25092 12.22303,1.62797 14.1699,2.3664 14.20681,5.38854 0.0175,1.43306 -0.17147,1.42399 -1.47241,-0.0707 z"
       id="path4258" />
    <path
       inkscape:connector-curvature="0"
       style="fill:#fefefe"
       d="m 209.44757,453.99344 c -4.79311,-3.23876 -31.20704,-13.91211 -36.79882,-14.86968 -5.3854,-0.92223 -5.28232,-2.64374 0.20361,-3.4006 3.98022,-0.54913 6.79898,0.0386 20.37362,4.24795 17.46336,5.41521 21.2161,7.04477 24.60153,10.68272 1.81664,1.95215 2.09376,2.81588 1.3076,4.07561 -1.62211,2.59926 -5.14805,2.33138 -9.68754,-0.736 z"
       id="path4256" />
    <path
       inkscape:connector-curvature="0"
       style="fill:#fefefe"
       d="m 187.53869,453.65456 c -2.36328,-2.37066 -3.30657,-7.17038 -1.4092,-7.17038 2.12272,0 6.28399,2.83682 6.74277,4.59669 0.29007,1.11268 -0.20359,2.48411 -1.22935,3.41531 -1.60897,1.46066 -1.86055,1.40907 -4.10422,-0.84162 z"
       id="path4254" />
    <path
       style="fill:#0000fe"
       d="m 196.07006,462.40615 c -3.5943,-0.96309 -5.31408,-2.66736 -5.31408,-4.83904 0,-1.6211 0.22204,-1.56033 2.1028,0.57559 1.89136,2.14794 3.0191,2.44992 11.21496,3.00315 5.01168,0.33829 13.87625,0.37339 13.87625,0.81291 0,1.01843 -13.03232,2.8181 -21.87993,0.44739 z"
       id="path4244"
       inkscape:connector-curvature="0"
       sodipodi:nodetypes="ssssss" />
    <path
       inkscape:connector-curvature="0"
       style="fill:#0000fe"
       d="m 218.32607,456.79668 c 0.31769,-0.51562 0.76307,-0.9375 0.98974,-0.9375 0.22667,0 0.41213,0.42188 0.41213,0.9375 0,0.51563 -0.44538,0.9375 -0.98974,0.9375 -0.54435,0 -0.72981,-0.42187 -0.41213,-0.9375 z"
       id="path4242" />
    <path
       inkscape:connector-curvature="0"
       style="fill:#0000fe"
       d="m 206.06998,455.86015 c -2.6287,-0.38644 -5.57263,-1.20659 -6.54206,-1.82255 -1.5907,-1.0107 -1.53473,-1.06917 0.57385,-0.59947 1.28505,0.28624 3.62289,0.52621 5.19521,0.53325 1.57232,0.007 3.67512,0.6322 4.6729,1.38924 0.99777,0.75703 1.60386,1.33722 1.34685,1.28929 -0.25701,-0.0479 -2.61805,-0.40332 -5.24675,-0.78976 z"
       id="path4240" />
    <path
       inkscape:connector-curvature="0"
       style="fill:#fe0000"
       d="m 156.17654,431.59831 c 0,-0.45286 2.7848,-3.84061 6.18843,-7.52834 7.92775,-8.58946 16.79247,-14.35372 26.10576,-16.9752 7.09309,-1.99655 8.92253,-2.02566 18.88544,-0.30054 2.53771,0.43942 2.95177,0.27433 2.4701,-0.98482 -0.31827,-0.832 -0.19563,-1.51273 0.27255,-1.51273 0.98264,0 6.82538,5.85656 6.82538,6.84151 0,0.36217 -2.31308,0.65849 -5.14018,0.65849 -2.82711,0 -5.14019,-0.42187 -5.14019,-0.9375 0,-0.51562 0.70094,-0.9375 1.55764,-0.9375 3.48182,0 0.0956,-1.12117 -5.90591,-1.95545 -8.34709,-1.16034 -17.34974,1.10134 -26.52858,6.66461 -5.89356,3.57207 -17.72128,14.91099 -17.72128,16.98893 0,0.44105 -0.42056,0.80191 -0.93458,0.80191 -0.51402,0 -0.93458,-0.37052 -0.93458,-0.82337 z"
       id="path3440" />
    <path
       inkscape:connector-curvature="0"
       id="path4400-9"
       d="m 104.03567,401.07488 c -1.9778,-1.8e-4 -1.9967,0.56639 -1.69922,51.01367 l 0.30078,51.01366 -34.250006,-0.26367 -34.25,-0.26367 -3.7168,-17.37891 c -2.26505,-10.59264 -3.50324,-18.69597 -3.16992,-20.74999 0.510411,-3.14532 0.362621,-3.37109 -2.21484,-3.37109 -3.26935,0 -3.56674,-2.82956 2.99609,28.49999 2.53467,12.1 6.181981,29.875 8.10547,39.5 1.92348,9.625 3.7308,17.21132 4.01563,18.17382 0.453,1.5308 -2.34501,1.71848 -28.8418,1.73829 l 0,0.60351 c 9.59946,0.002 18.15969,0.0102 28.22461,0.01 29.37562,-0.002 358.001606,-0.0181 382.322266,-0.041 l 0,-0.56055 -316.39453,0 0.28516,-73.42382 c 0.28418,-73.92899 0.27177,-74.49981 -1.71289,-74.49999 z m -69.716806,103.99999 34.10742,0 34.109386,0 0,22.5 0,21.42382 -29.500005,0 c -16.225,0 -29.5,-0.14394 -29.5,-0.32031 0,-0.6393 -7.84915,-38.17611 -8.52344,-40.85351 z"
       style="fill:#000000"
       sodipodi:nodetypes="csccccsssssccccccccccccccsscc" />
    <path
       style="fill:#000000"
       d="m 137.02372,461.01543 c -2.1574,-0.11326 -1.6663,1.14523 4.07617,28.55859 2.53467,12.1 6.18198,29.875 8.10547,39.5 1.92348,9.625 3.7308,17.21133 4.01563,18.17383 0.453,1.5308 -2.34501,1.71847 -28.8418,1.73828 l 0,0.60352 c 9.59946,0.002 18.15969,0.0119 28.22461,0.0117 10.79594,-7.4e-4 19.4443,-0.0114 29.51953,-0.0156 l 0,-0.5957 c -14.27635,-0.0221 -25.51953,-0.15145 -25.51953,-0.3125 0,-0.6393 -7.84915,-38.17612 -8.52344,-40.85352 l -0.69336,-2.75 34.10743,0 0.6289,0 0,-2.23046 -0.66797,-0.006 -34.25,-0.26368 -3.71679,-17.3789 c -2.26505,-10.59264 -3.50325,-18.69597 -3.16993,-20.75 0.51041,-3.14532 0.36262,-3.3711 -2.21484,-3.3711 -0.40867,0 -0.77188,-0.0424 -1.08008,-0.0586 z"
       id="path4408"
       inkscape:connector-curvature="0" />
    <path
       style="fill:#000000"
       d="m 223.68193,461.01543 c -2.15741,-0.11326 -1.66826,1.14523 4.07421,28.55859 2.53467,12.1 6.18198,29.875 8.10547,39.5 1.92348,9.625 3.7308,17.21133 4.01563,18.17383 0.453,1.5308 -2.34501,1.71847 -28.8418,1.73828 l 0,0.60352 c 9.59946,0.002 18.15969,0.0119 28.22461,0.0117 6.53942,-4.5e-4 11.60906,-0.008 17.88086,-0.01 l 0,-0.64844 c -8.14643,-0.0571 -13.88086,-0.15292 -13.88086,-0.26562 0,-0.6393 -7.84915,-38.17612 -8.52344,-40.85352 l -0.69336,-2.75 23.09766,0 0,-2.32031 -23.2793,-0.17969 -3.71679,-17.3789 c -2.26505,-10.59264 -3.50325,-18.69597 -3.16993,-20.75 0.51041,-3.14532 0.36262,-3.3711 -2.21484,-3.3711 -0.40867,0 -0.76992,-0.0424 -1.07812,-0.0586 z"
       id="path4411"
       inkscape:connector-curvature="0" />
    <path
       inkscape:connector-curvature="0"
       style="fill:#000000"
       d="m 279.56474,461.01543 c -2.15741,-0.11326 -1.66631,1.14523 4.07617,28.55859 2.53467,12.1 6.18198,29.875 8.10547,39.5 1.92348,9.625 3.73079,17.21133 4.01562,18.17383 0.453,1.5308 -2.345,1.71847 -28.84179,1.73828 l 0,0.60352 c 9.59946,0.002 18.15969,0.0119 28.22461,0.0117 11.00166,-7.5e-4 19.82837,-0.0113 30.08203,-0.0156 l 0,-0.5957 c -14.55425,-0.0193 -26.08203,-0.14929 -26.08203,-0.3125 0,-0.6393 -7.84915,-38.17612 -8.52344,-40.85352 l -0.69336,-2.75 34.10742,0 1.19141,0 0,-2.22656 -1.23047,-0.01 -34.25,-0.26368 -3.7168,-17.3789 c -2.26505,-10.59264 -3.50324,-18.69597 -3.16992,-20.75 0.51041,-3.14532 0.36262,-3.3711 -2.21484,-3.3711 -0.40867,0 -0.77188,-0.0424 -1.08008,-0.0586 z"
       id="path4413" />
    <path
       inkscape:connector-curvature="0"
       id="path2989-70"
       d="m 442.3774,401.04817 c -1.9778,-1.8e-4 -1.9967,0.5664 -1.69922,51.01368 l 0.30078,51.01367 -20.12305,-0.1543 0,2.12695 20.02149,0 0,22.5 0,21.42383 -20.02149,0 0,0.58008 c 12.34853,-0.007 26.03649,-0.009 37.34375,-0.0195 l 0,-0.56055 -14.39453,0 0.28516,-73.42383 c 0.28418,-73.929 0.27177,-74.49982 -1.71289,-74.5 z"
       style="fill:#000000" />
    <path
       style="fill:#000000"
       d="m 442.50174,399.24713 c -0.81716,0.0375 -1.74313,0.42968 -2.61719,1.22071 -2.15528,1.95049 -2.48089,4.3363 -0.90625,6.04101 l 4.94336,3.39258 0,-0.13476 2.70117,1.96875 c 2.12161,1.54547 2.72303,2.83435 2.80273,6.01171 0.0829,3.30527 -0.31978,4.23654 -2.20117,5.09375 -2.24259,1.0218 -3.19232,3.09375 -1.41797,3.09375 0.48713,0 2.15088,-0.6567 3.69727,-1.45898 2.03725,-1.05694 3.16963,-1.16273 4.10937,-0.38281 0.71332,0.592 2.3461,0.87608 3.62891,0.63086 1.85798,-0.35518 2.76711,0.30843 4.4668,3.26172 1.8322,3.1835 3.44481,4.2331 11.42187,7.43359 7.81464,3.13533 12.86364,4.26095 31.79102,7.08594 12.37499,1.84702 24.07499,3.62096 26,3.94336 4.38403,0.73422 12.5,-1.57608 12.5,-3.5586 0,-0.80082 -1.125,-1.60057 -2.5,-1.77734 -1.375,-0.17677 -10.375,-2.11396 -20,-4.30469 -37.37578,-8.50703 -36.52097,-8.23122 -44.53906,-14.35156 -2.41116,-1.84048 -5.75259,-3.64661 -7.42383,-4.01367 -2.35315,-0.51684 -3.03711,-1.20786 -3.03711,-3.0625 -10e-6,-2.90249 -4.32246,-5.44532 -9.25391,-5.44532 -4.12177,0 -11.74609,-5.27066 -11.74609,-8.11914 0,-1.70832 -1.05797,-2.63087 -2.41992,-2.56836 z"
       id="path4477-0"
       inkscape:connector-curvature="0" />
    <path
       style="fill:#fefefe"
       d="m 529.80877,445.48931 c -0.24417,-0.24417 -8.75667,-1.6273 -18.91667,-3.07362 -24.14901,-3.43772 -28.9891,-5.44266 -24.01217,-9.94673 2.35199,-2.12852 1.28912,-2.28265 29.75829,4.31508 12.22036,2.83207 23.13286,5.14922 24.25,5.14922 3.6068,0 2.15831,1.73055 -2.41166,2.88128 -4.65153,1.17127 -7.91708,1.42549 -8.66779,0.67477 z"
       id="path4514"
       inkscape:connector-curvature="0" />
    <path
       style="fill:#fefefe"
       d="m 462.91938,424.2012 c -1.375,-0.89493 -4.75,-3.72746 -7.5,-6.29451 -2.75,-2.56704 -6.4625,-5.66686 -8.25,-6.88848 -1.7875,-1.22163 -3.25,-3.0905 -3.25,-4.15304 0,-1.06255 0.25601,-1.93191 0.56892,-1.93191 0.3129,0 4.4754,2.77652 9.25,6.17003 4.77459,3.39352 10.17298,6.62805 11.99642,7.18784 4.34727,1.3346 6.14386,4.46758 3.62014,6.31297 -2.2991,1.68114 -3.33295,1.61642 -6.43548,-0.4029 z"
       id="path4510"
       inkscape:connector-curvature="0" />
    <path
       style="fill:#fefefe"
       d="m 460.17258,414.68326 c -3.4746,-2.42893 -4.1088,-3.75 -1.80025,-3.75 2.84759,0 6.54705,2.35093 6.54705,4.16051 0,2.3923 -0.84147,2.31952 -4.7468,-0.41051 z"
       id="path4506"
       inkscape:connector-curvature="0" />
    <path
       style="fill:#0000fe"
       d="m 474.38999,434.91196 c -7.81237,-3.086 -10.40973,-4.60563 -11.75,-6.87452 -2.38509,-4.03764 -2.17084,-4.48321 1.19865,-2.4928 2.76328,1.6323 3.05981,1.63235 5.54973,9e-4 2.01047,-1.31731 2.46998,-2.22921 1.94957,-3.86887 -0.67667,-2.13201 -0.66301,-2.13394 2.20027,-0.31202 1.58464,1.00832 3.78117,2.62183 4.88117,3.58559 1.1,0.96376 3.71076,2.61341 5.80169,3.66589 3.79525,1.91036 3.79821,1.91674 1.75,3.77035 -2.51303,2.27426 -2.61486,4.11939 -0.30169,5.46668 4.01443,2.33819 -1.66047,0.85841 -11.27939,-2.9412 z"
       id="path4526"
       inkscape:connector-curvature="0" />
    <path
       inkscape:connector-curvature="0"
       style="fill:#fefefe"
       d="m 444.10403,409.90658 c -0.30962,-0.80686 -0.36997,-2.04436 -0.1341,-2.75 0.23587,-0.70565 0.66592,-0.0455 0.95566,1.46701 0.56574,2.95322 0.099,3.68204 -0.82156,1.28299 z"
       id="path4500" />
    <path
       style="fill:#000000"
       d="m 404.88872,401.04833 c -1.9778,-1.8e-4 -1.9967,0.56639 -1.69922,51.01366 l 0.30078,51.01367 -34.25,-0.26367 -34.25,-0.26367 -3.7168,-17.37891 c -2.26505,-10.59264 -3.50324,-18.69597 -3.16992,-20.75 0.51041,-3.14532 0.36262,-3.37109 -2.21484,-3.37109 -3.26935,0 -3.56674,-2.82956 2.99609,28.5 2.53467,12.1 6.18198,29.875 8.10547,39.5 1.92348,9.625 3.7308,17.21132 4.01563,18.17382 0.453,1.5308 -2.34501,1.71848 -28.8418,1.73829 l 0,0.60351 c 9.59946,0.002 18.15969,0.0102 28.22461,0.01 29.37562,-0.002 56.0016,-0.0181 80.32226,-0.041 l 0,-0.56055 -14.39453,0 0.28516,-73.42382 c 0.28418,-73.929 0.27177,-74.49981 -1.71289,-74.49999 z m -69.7168,103.99999 34.10742,0 34.10938,0 0,22.5 0,21.42382 -29.5,0 c -16.225,0 -29.5,-0.14394 -29.5,-0.32031 0,-0.6393 -7.84915,-38.17611 -8.52344,-40.85351 l -0.69336,-2.75 z"
       id="path4382-0"
       inkscape:connector-curvature="0" />
    <path
       style="fill:#fe0000"
       d="m 451.41938,473.20094 c -7.51067,-1.08317 -26.5,-9.16766 -26.5,-11.28208 0,-1.36007 0.1634,-1.31239 5.25557,1.53368 12.0808,6.75209 30.88096,10.1829 41.40186,7.55536 7.73282,-1.93122 16.60241,-6.2148 15.38636,-7.43085 -0.57409,-0.57409 -1.04379,-1.35037 -1.04379,-1.72508 0,-0.90653 9.08438,-3.16766 9.81025,-2.4418 0.80935,0.80935 -3.58019,9.52309 -4.79725,9.52309 -0.55715,0 -1.013,-0.675 -1.013,-1.5 0,-1.97703 -0.1995,-1.9405 -6.28324,1.15052 -9.43374,4.79307 -20.24922,6.34309 -32.21676,4.61716 z"
       id="path2993-7"
       inkscape:connector-curvature="0" />
    <path
       inkscape:connector-curvature="0"
       style="fill:#fe0000"
       d="m 140.73371,513.70517 c -3.58482,-3.71015 -3.69752,-4.40849 -0.71147,-4.40849 1.25159,0 3.41272,-0.43368 4.80252,-0.96373 3.19671,-1.21918 4.252,-0.27087 1.79891,1.61654 -1.72506,1.32727 -1.43572,1.40108 3.78892,0.96653 7.04473,-0.58592 14.67682,-3.80185 17.76786,-7.48682 1.29431,-1.543 2.62267,-2.53523 2.95193,-2.20495 1.05183,1.05513 -5.66606,7.18164 -10.02126,9.13907 -2.31308,1.03961 -7.27644,2.13121 -11.02967,2.42577 -4.77322,0.37461 -6.52866,0.83189 -5.84112,1.52157 0.54061,0.54231 0.98294,1.32352 0.98294,1.73602 0,1.50069 -1.56661,0.68364 -4.48956,-2.34151 z"
       id="path4288" />
    <rect
       y="548.84393"
       x="12.897503"
       height="0.75740933"
       width="488.23364"
       id="rect4802-1"
       style="color:#000000;clip-rule:nonzero;display:inline;overflow:visible;visibility:visible;opacity:1;isolation:auto;mix-blend-mode:normal;color-interpolation:sRGB;color-interpolation-filters:linearRGB;solid-color:#000000;solid-opacity:1;fill:#000000;fill-opacity:1;fill-rule:nonzero;stroke:none;stroke-width:0.80000001;stroke-linecap:round;stroke-linejoin:round;stroke-miterlimit:4;stroke-dasharray:none;stroke-dashoffset:0;stroke-opacity:1;color-rendering:auto;image-rendering:auto;shape-rendering:auto;text-rendering:auto;enable-background:accumulate" />
  </g>
</svg>
