<?xml version="1.0" encoding="UTF-8" standalone="no"?>
<!-- Created with Inkscape (http://www.inkscape.org/) -->

<svg
   xmlns:dc="http://purl.org/dc/elements/1.1/"
   xmlns:cc="http://creativecommons.org/ns#"
   xmlns:rdf="http://www.w3.org/1999/02/22-rdf-syntax-ns#"
   xmlns:svg="http://www.w3.org/2000/svg"
   xmlns="http://www.w3.org/2000/svg"
   xmlns:sodipodi="http://sodipodi.sourceforge.net/DTD/sodipodi-0.dtd"
   xmlns:inkscape="http://www.inkscape.org/namespaces/inkscape"
   version="1.1"
   width="492"
   height="235"
   id="svg2"
   inkscape:version="0.91 r13725"
   sodipodi:docname="ub120802.svg">
  <sodipodi:namedview
     pagecolor="#b9b9b9"
     bordercolor="#666666"
     borderopacity="1"
     objecttolerance="10"
     gridtolerance="10"
     guidetolerance="10"
     inkscape:pageopacity="0"
     inkscape:pageshadow="2"
     inkscape:window-width="1230"
     inkscape:window-height="758"
     id="namedview11"
     showgrid="false"
     inkscape:zoom="0.6199187"
     inkscape:cx="16.773391"
     inkscape:cy="53.716062"
     inkscape:window-x="0"
     inkscape:window-y="0"
     inkscape:window-maximized="0"
     inkscape:current-layer="svg2" />
  <metadata
     id="metadata8">
    <rdf:RDF>
      <cc:Work
         rdf:about="">
        <dc:format>image/svg+xml</dc:format>
        <dc:type
           rdf:resource="http://purl.org/dc/dcmitype/StillImage" />
        <dc:title></dc:title>
      </cc:Work>
    </rdf:RDF>
  </metadata>
  <defs
     id="defs6" />
  <g
     id="g2987"
     transform="translate(-1.1697179,-7.3733545)">
    <path
       d="m 64.5,203.97108 c 3.593759,-1.60563 37.80213,-7.91994 46,-8.49086 4.4,-0.30643 10.25,-0.1828 13,0.27474 l 5,0.83187 -7.5,2.37039 -7.5,2.37038 7.35028,1.2863 c 4.04266,0.70746 7.86766,1.49822 8.5,1.75725 0.63235,0.25902 -14.15028,0.47603 -32.85028,0.48222 -20.782405,0.007 -33.222494,-0.33611 -32,-0.88229 z m 46.63725,-12.84287 C 108.05609,188.24997 108,188.0314 108,178.90174 c 0,-16.92631 1.89258,-31.88438 4.63738,-36.65174 2.8511,-4.952 5.78823,-5.60475 7.5749,-1.68345 0.98673,2.16566 0.68108,4.0791 -1.95685,12.25 -1.71944,5.3259 -3.84835,14.35055 -4.73091,20.05479 -1.4816,9.57603 -1.47874,10.75041 0.0373,15.31478 0.90307,2.71889 1.43286,5.15253 1.17731,5.40808 -0.25555,0.25555 -1.8764,-0.85415 -3.60188,-2.46599 z m 68.77459,-40.11326 c -1.97348,-1.04317 -6.10574,-4.96078 -9.18279,-8.70581 -3.07705,-3.74503 -7.86252,-9.03005 -10.63438,-11.74449 -4.19119,-4.10439 -4.93927,-5.36717 -4.44305,-7.5 0.32817,-1.41056 1.21091,-3.21867 1.96163,-4.01804 1.18899,-1.26602 1.71847,-1.18945 4.10713,0.59394 1.50819,1.12603 3.8756,4.10025 5.26089,6.60938 3.70328,6.70756 9.92858,15.66185 14.23676,20.47773 5.57967,6.23721 5.13624,7.69269 -1.30619,4.28729 z M 185,148.29056 c -2.66379,-0.97945 -5.12406,-3.6477 -9.86005,-10.69353 -10.65389,-15.85006 -10.62009,-16.34715 0.21602,-3.17714 4.2628,5.18094 8.85159,10.14131 10.19729,11.02305 3.64461,2.38804 3.28138,4.2576 -0.55326,2.84762 z M 121.66667,114.33333 C 121.3,113.96667 121,113.08086 121,112.36488 c 0,-1.389 8.06132,-7.87471 16.09021,-12.945345 2.6827,-1.694256 5.70781,-3.831756 6.72246,-4.75 2.37773,-2.151818 3.18733,-2.10865 3.18733,0.16995 0,1.011717 -1.03906,2.312914 -2.30903,2.891548 -1.26996,0.578635 -6.4481,4.700867 -11.50696,9.160517 -9.0966,8.01911 -10.21644,8.74268 -11.51734,7.44178 z M 280.85956,108.25 c -1.95048,-2.0625 -6.15133,-7.50298 -9.33522,-12.089953 l -5.78888,-8.339954 2.13564,-2.135637 2.13564,-2.135636 3.62012,1.949563 c 1.99106,1.07226 3.975,2.861275 4.40874,3.97559 0.43374,1.114315 1.81727,4.726027 3.07451,8.026027 1.25724,3.3 3.59479,7.23788 5.19455,8.75085 3.10181,2.93351 3.06737,5.74915 -0.0703,5.74915 -1.00564,0 -3.42429,-1.6875 -5.37477,-3.75 z M 218.5,110.52941 c -0.55,-0.17198 -3.63743,-1.09405 -6.86096,-2.04903 -3.22352,-0.95498 -7.37322,-3.06411 -9.22154,-4.68696 -3.23183,-2.83758 -3.2998,-3.04342 -1.77404,-5.372029 2.14221,-3.269423 6.25988,-3.167085 9.94389,0.247138 1.58366,1.467691 5.69937,3.947171 9.14602,5.509961 3.44665,1.56278 6.26663,3.21471 6.26663,3.67095 0,0.45624 -1.14617,1.35176 -2.54705,1.99004 -2.5769,1.17412 -3.14946,1.25387 -4.95295,0.68993 z m 207.38939,-0.97336 c -0.24417,-0.24417 -8.75667,-1.6273 -18.91667,-3.07362 -24.14901,-3.43772 -28.9891,-5.44266 -24.01217,-9.946731 2.35199,-2.128523 1.28912,-2.282644 29.75829,4.315081 12.22036,2.83207 23.13286,5.14922 24.25,5.14922 3.6068,0 2.15831,1.73055 -2.41166,2.88129 -4.65153,1.17126 -7.91708,1.42548 -8.66779,0.67476 z M 125,103.65499 c 0,-1.28976 0.86419,-3.12709 1.92042,-4.082967 1.83488,-1.660546 1.97442,-1.637029 3.13312,0.528007 1.04962,1.96124 0.91095,2.51031 -1.0312,4.08297 C 126.02793,106.60772 125,106.47279 125,103.65499 Z m 159.02032,-1.61515 c -2.75871,-5.407536 -2.5645,-5.724823 1.38278,-2.259067 1.8717,1.643377 3.97637,3.179047 4.67705,3.412607 1.82508,0.60836 0.16552,2.80662 -2.11884,2.80662 -1.23078,0 -2.64635,-1.42246 -3.94099,-3.96016 z m -68.26936,-0.70455 c -2.61197,-1.468803 -4.58863,-2.83095 -4.39259,-3.026996 C 211.96313,97.703536 230,100.40088 230,101.09607 c 0,0.35966 -1.2375,0.92435 -2.75,1.25486 -1.5125,0.33051 -3.65,0.83807 -4.75,1.12791 -1.15505,0.30435 -4.00634,-0.60124 -6.74904,-2.14355 z M 163.10519,98.626748 C 161.69997,96.933559 162.69386,94 164.67273,94 c 0.80231,0 2.26368,0.430784 3.24748,0.957298 1.27385,0.681745 4.86934,0.09917 12.49107,-2.023909 5.88628,-1.639664 11.12677,-2.71889 11.64553,-2.398281 1.60251,0.99041 1.0417,2.464892 -0.93752,2.464892 -1.03439,0 -6.23172,1.575 -11.54961,3.5 -10.37512,3.75564 -14.65393,4.30834 -16.46449,2.126748 z M 166.25,93.337719 C 164.34219,92.5679 164.75159,90.582001 167.31445,88.174314 170.6346,85.055195 173,85.331931 173,88.839485 c 0,2.072352 -0.68813,3.153017 -2.54705,4 -1.40088,0.638283 -2.63838,1.124989 -2.75,1.081568 -0.11162,-0.04342 -0.76545,-0.305921 -1.45295,-0.583334 z M 235,89.908443 c -4.125,-1.590383 -8.71094,-2.895394 -10.19098,-2.900024 -3.15765,-0.0099 -4.18276,-1.255503 -3.30618,-4.017368 0.85727,-2.701005 2.91274,-2.506143 8.9163,0.84528 2.79447,1.559982 7.55586,3.681185 10.58086,4.713784 6.73601,2.299372 6.791,2.337966 4.97104,3.488945 -1.98922,1.258023 -2.3774,1.182638 -10.97104,-2.130617 z m 124,-1.640502 c -1.375,-0.894935 -4.75,-3.727463 -7.5,-6.294506 -2.75,-2.567043 -6.4625,-5.666863 -8.25,-6.888487 C 341.4625,73.863323 340,71.994454 340,70.931906 340,69.869358 340.25601,69 340.56892,69 c 0.3129,0 4.4754,2.776515 9.25,6.170034 4.77459,3.393518 10.17298,6.628044 11.99642,7.187835 4.34727,1.3346 6.14386,4.467578 3.62014,6.312966 -2.2991,1.681148 -3.33295,1.616423 -6.43548,-0.402894 z M 302,85.57577 c -2.475,-1.282109 -5.98837,-2.652593 -7.80748,-3.04552 -2.64996,-0.572386 -3.24636,-1.143408 -3,-2.872331 0.4406,-3.092181 3.98353,-3.222111 7.4865,-0.274555 1.62515,1.367478 4.79037,3.220765 7.03382,4.118415 4.03665,1.615145 4.14279,1.599889 10.22282,-1.4693 C 321.60328,79.171474 324,78.848755 324,80.946615 c 0,0.852895 -14.71166,7.105083 -16.5,7.0122 -0.55,-0.02857 -3.025,-1.100936 -5.5,-2.383045 z M 228.25,81.779505 C 223.94161,79.701647 226.49667,75 231.93426,75 c 2.27072,0 2.57682,1.525556 1.09049,5.4349 -1.07278,2.821634 -1.47646,2.935312 -4.77475,1.344605 z M 356.2532,78.75 C 352.7786,76.321069 352.1444,75 354.45295,75 357.30054,75 361,77.350931 361,79.160515 c 0,2.392291 -0.84147,2.319519 -4.7468,-0.410515 z m -58.26877,-1.268758 c -1.03151,-1.242892 -0.93478,-1.878628 0.53255,-3.5 3.42893,-3.78893 6.80631,-1.649787 4.04616,2.562734 -1.86495,2.846276 -2.83036,3.043896 -4.57871,0.937266 z m 37.38986,-7.948253 c -0.30962,-0.806856 -0.36997,-2.044356 -0.1341,-2.75 0.23587,-0.705644 0.66592,-0.04549 0.95566,1.467011 0.56574,2.953223 0.099,3.682039 -0.82156,1.282989 z"
       id="path2997"
       style="fill:#fefefe"
       inkscape:connector-curvature="0" />
    <path
       d="m 249,57.819932 c -4.3542,-1.243675 -4.55522,-1.446002 -3.13587,-3.156225 0.93172,-1.122648 0.06,-1.871287 -4.60749,-3.956786 -9.1002,-4.066118 -14.50804,-5.054307 -24.09921,-4.403704 -9.21569,0.625133 -20.09306,3.813084 -27.90186,8.177506 C 184.1634,57.326789 184,57.374474 184,56.014395 c 0,-1.302235 10.08413,-6.347731 18.05059,-9.031439 8.13785,-2.741441 21.85379,-3.677962 29.04095,-1.982907 2.97465,0.701556 7.98313,2.563546 11.12994,4.137754 C 248.85626,52.456881 249,52.485766 249,50.5 c 0,-2.74503 1.93417,-1.549362 3.97968,2.460162 3.23607,6.343227 2.85277,6.811296 -3.97968,4.85977 z"
       id="path2993"
       style="fill:#fe0000"
       inkscape:connector-curvature="0" />
    <path
       d="m 111.03168,141.71016 c -0.0174,-0.43441 0.80904,-2.45941 1.83659,-4.5 1.02755,-2.04059 2.40305,-7.42865 3.05666,-11.97347 0.65362,-4.54482 1.66802,-9.63917 2.25423,-11.32078 l 1.06584,-3.05747 1.18599,2.32078 c 1.19285,2.33419 2.58615,2.65142 5.81901,1.32488 2.4483,-1.00461 2.26683,0.59174 -1.25,10.9959 -1.65,4.88135 -3,10.21051 -3,11.84258 0,2.81142 -0.0961,2.88041 -1.82874,1.31241 -2.623,-2.37378 -4.70978,-2.04994 -7.05617,1.09501 -1.12845,1.5125 -2.06599,2.39457 -2.08341,1.96016 z m 42.64378,-20.23558 c -0.49695,-2.04355 -0.0769,-5.08782 1.29441,-9.38027 1.11657,-3.49517 2.03013,-6.76068 2.03013,-7.2567 0,-0.49602 0.68205,-2.53422 1.51566,-4.52933 l 1.51566,-3.627485 2.29879,2.159602 C 163.59445,100.02818 165.43554,101 166.42144,101 c 1.31539,0 1.60047,0.46582 1.07098,1.75 C 165.11791,108.50892 163,115.23176 163,117.0102 c 0,1.77771 -0.28561,1.90731 -2.08319,0.94528 -2.47889,-1.32667 -5.58275,0.89151 -6.15535,4.39895 -0.29304,1.79495 -0.47051,1.65117 -1.086,-0.87985 z M 370.47061,98.978698 c -7.81237,-3.086 -10.40973,-4.605623 -11.75,-6.874517 -2.38509,-4.037636 -2.17084,-4.483209 1.19865,-2.492804 2.76328,1.632308 3.05981,1.632356 5.54973,8.99e-4 2.01047,-1.317309 2.46998,-2.229201 1.94957,-3.868867 -0.67667,-2.132004 -0.66301,-2.13394 2.20027,-0.312016 1.58464,1.008315 3.78117,2.621831 4.88117,3.585589 1.1,0.963758 3.71076,2.613407 5.80169,3.665888 3.79525,1.910361 3.79821,1.916745 1.75,3.770353 -2.51303,2.274258 -2.61486,4.119387 -0.30169,5.466677 4.01443,2.33819 -1.66047,0.85841 -11.27939,-2.941202 z M 199,98.445012 c 0,-2.182246 3.27897,-5.457842 8.39167,-8.383031 2.95569,-1.691075 5.95643,-3.776495 6.66832,-4.634268 0.71189,-0.857772 2.5778,-2.223289 4.14648,-3.034481 2.7829,-1.439094 2.83772,-1.417487 2.25854,0.890139 -0.67678,2.696517 0.84083,4.354575 4.45822,4.870811 1.98506,0.283286 0.99053,1.122618 -5.5,4.641724 -6.64513,3.602932 -8.29377,4.12719 -10.22028,3.25 -3.67835,-1.674843 -6.962,-1.227996 -8.64625,1.1766 C 199.70052,98.444885 199,98.995012 199,98.445012 Z m 76.02822,-12.994049 c -4.10658,-2.899114 -4.79182,-2.974874 -7.19948,-0.795975 -1.00581,0.910243 -1.82874,1.1618 -1.82874,0.559017 0,-1.650058 1.77868,-2.510028 10,-4.834878 4.125,-1.16648 9.67858,-2.822302 12.34128,-3.679603 4.60935,-1.484056 4.76504,-1.474493 3.25,0.199614 -2.22898,2.462998 -1.9805,5.021328 0.57969,5.968404 2.73946,1.013394 1.46441,1.877619 -5.50988,3.734556 -6.78889,1.807572 -7.54832,1.732422 -11.63287,-1.151135 z"
       id="path2991"
       style="fill:#0000fe"
       inkscape:connector-curvature="0" />
    <path
       d="m 54.974068,205.25379 c 3.560738,-0.19847 6.739348,-0.79009 7.063578,-1.3147 0.562241,-0.90973 36.374885,-8.25561 46.092184,-9.45442 l 4.62982,-0.57117 -3.02787,-3.02788 -3.02788,-3.02787 0.59456,-15.17888 c 0.72696,-18.55866 2.36966,-31.03513 4.69763,-35.67887 0.96503,-1.925 2.30639,-7.43198 2.9808,-12.23774 0.67441,-4.80575 2.05777,-10.36879 3.07412,-12.36231 1.69413,-3.32294 1.71782,-3.82312 0.28468,-6.01038 -0.90308,-1.37827 -1.37718,-3.65351 -1.12266,-5.38769 0.50595,-3.447269 0.15451,-3.644475 -2.39042,-1.341344 -2.31114,2.091554 -3.63224,1.006244 -1.44166,-1.184346 0.89048,-0.890476 1.61917,-1.924404 1.61931,-2.297619 1.5e-4,-0.373214 2.90869,-0.800357 6.46343,-0.949206 6.10936,-0.255821 6.55808,-0.118968 8.19708,2.5 0.95365,1.523849 1.84978,2.937805 1.9914,3.142125 0.38531,0.55593 9.52465,-4.849609 12.0238,-7.11157 1.19679,-1.083201 2.65929,-1.670754 3.25,-1.305672 2.18898,1.352861 1.00686,4.38783 -2.51942,6.468388 -1.9764,1.166104 -6.47203,4.694874 -9.99029,7.841704 -4.64,4.15015 -6.24165,6.21044 -5.8318,7.50176 0.31076,0.97914 -0.78304,5.93232 -2.43067,11.00707 -1.64764,5.07476 -3.27959,11.47683 -3.62657,14.22683 -0.34698,2.75 -1.93191,9.05 -3.52206,14 -1.59016,4.95 -3.60576,13.64128 -4.47912,19.31395 -1.47501,9.58057 -1.46723,10.69684 0.10952,15.69885 l 1.69743,5.38489 5.58351,0.68735 c 9.71206,1.19559 10.38041,1.98206 3.36961,3.96513 -3.41765,0.96671 -6.01109,2.0858 -5.76322,2.48687 0.24787,0.40107 2.93163,1.03918 5.96389,1.41804 3.03227,0.37886 5.51322,1.10645 5.51322,1.61688 0,0.55797 19.34765,0.92804 48.51905,0.92804 l 48.51905,0 -0.53407,-2.25 c -0.29374,-1.2375 -3.42572,-16.425 -6.95995,-33.75 -3.53422,-17.325 -7.19933,-34.875 -8.14468,-39 -2.4517,-10.69788 -2.42532,-14.5 0.1006,-14.5 1.7515,0 2.02939,0.7455 2.23651,6 0.13008,3.3 1.73112,12.75 3.55788,21 l 3.32138,15 12.19212,0.28078 C 249.89662,158.1513 249.96635,160 233.89159,160 l -12.10841,0 0.69257,2.75 C 223.15004,165.4274 231,204.04003 231,204.67933 231,204.8557 240.90857,205 253.01905,205 l 22.01905,0 -0.53407,-2.25 c -0.29374,-1.2375 -3.42572,-16.425 -6.95995,-33.75 -3.53422,-17.325 -7.18859,-34.875 -8.12081,-39 -3.01377,-13.33575 -3.018,-14 -0.0892,-14 2.43854,0 2.55391,0.25754 2.57576,5.75 0.0126,3.1625 1.52713,12.5 3.36566,20.75 l 3.3428,15 34.19085,0.26313 34.19085,0.26313 0,-42.89069 C 337,78.230472 336.79067,72.07116 335.5,71 c -3.10146,-2.573979 -1.07813,-7 3.2,-7 1.59867,0 2.3,0.583471 2.3,1.91349 C 341,68.730262 348.65495,74 352.74666,74 357.67811,74 362,76.543729 362,79.446225 c 0,1.85463 0.68545,2.545414 3.0386,3.062254 1.67124,0.367064 5.01137,2.173233 7.42252,4.013709 8.01809,6.120342 7.16311,5.84484 44.53888,14.351872 9.625,2.19073 18.625,4.12777 20,4.30454 1.375,0.17677 2.5,0.97661 2.5,1.77743 0,1.98252 -8.11596,4.29341 -12.5,3.55918 -1.925,-0.3224 -13.625,-2.09738 -26,-3.9444 -18.92738,-2.82498 -23.97504,-3.95001 -31.78968,-7.08534 -7.97706,-3.200491 -9.59117,-4.25098 -11.42337,-7.434488 -1.69969,-2.953288 -2.60808,-3.616669 -4.46606,-3.261494 -1.28281,0.245225 -2.916,-0.0385 -3.62932,-0.6305 -0.93974,-0.779915 -2.07131,-0.674617 -4.10856,0.382325 C 344.03662,89.343591 342.37282,90 341.88569,90 c -1.77435,0 -0.82569,-2.070216 1.4169,-3.092007 1.88139,-0.857219 2.28402,-1.789096 2.2011,-5.094354 -0.0797,-3.177366 -0.68098,-4.467355 -2.80259,-6.012839 L 340,73.833187 l 0,65.549573 0,65.54958 10.75,0.32145 c 5.9125,0.17679 -59.675,0.33031 -145.75,0.34115 -86.075,0.0108 -153.586669,-0.14268 -150.025932,-0.34115 z m 74.376212,-0.88264 c -0.63234,-0.25903 -4.45734,-1.04979 -8.5,-1.75725 l -7.35028,-1.2863 7.5,-2.37038 7.5,-2.37039 -5,-0.83187 c -2.75,-0.45754 -8.6,-0.58117 -13,-0.27474 -8.19787,0.57092 -42.406241,6.88523 -46,8.49086 -1.222494,0.54618 11.217595,0.88918 32,0.88229 18.7,-0.006 33.48263,-0.2232 32.85028,-0.48222 z M 337,182.5 l 0,-22.5 -34.10841,0 -34.10841,0 0.69257,2.75 C 270.15004,165.4274 278,204.04003 278,204.67933 278,204.8557 291.275,205 307.5,205 l 29.5,0 0,-22.5 z m -223.43818,5.68612 c -1.51604,-4.56437 -1.5189,-5.73875 -0.0373,-15.31478 0.88256,-5.70424 3.01147,-14.72889 4.73091,-20.05479 2.63793,-8.1709 2.94358,-10.08434 1.95685,-12.25 -1.44723,-3.17632 -4.40106,-3.3165 -6.67028,-0.31655 -1.69543,2.2414 -1.6964,2.24045 -0.25249,-0.25 1.82685,-3.15093 4.30745,-3.67472 6.78489,-1.43267 1.8597,1.683 1.9256,1.64108 1.9256,-1.22475 0,-1.63207 1.35,-6.96123 3,-11.84258 3.51683,-10.40416 3.6983,-12.00051 1.25,-10.9959 -3.23286,1.32654 -4.62616,1.00931 -5.81901,-1.32488 l -1.18599,-2.32078 -1.06584,3.05747 c -0.58621,1.68161 -1.59992,6.77596 -2.25268,11.32078 -0.65276,4.54482 -1.87818,9.61331 -2.72316,11.26331 -0.84497,1.65 -1.67953,4.125 -1.85457,5.5 -0.17504,1.375 -0.75258,4.975 -1.28342,8 -0.53084,3.025 -1.28235,12.7919 -1.67001,21.70422 l -0.70485,16.20421 3.29201,3.07521 c 1.81061,1.69136 3.5011,2.86611 3.75665,2.61056 0.25555,-0.25555 -0.27424,-2.68919 -1.17731,-5.40808 z m 19.62219,-81.29457 c 5.05886,-4.45965 10.237,-8.581882 11.50696,-9.160517 C 145.96094,97.152399 147,95.851202 147,94.839485 c 0,-2.2786 -0.8096,-2.321768 -3.18733,-0.16995 -1.01465,0.918244 -4.03976,3.055744 -6.72246,4.75 C 129.06132,104.49017 121,110.97588 121,112.36488 c 0,1.48273 0.94448,2.63512 2.1597,2.63512 0.4545,0 4.96544,-3.6488 10.02431,-8.10845 z m 301.37317,1.98974 C 439.12715,107.73055 440.57564,106 436.96884,106 c -1.11714,0 -12.02964,-2.31715 -24.25,-5.14922 -12.22036,-2.832064 -23.47409,-5.360744 -25.00829,-5.619285 -4.31355,-0.726913 -9.108,4.634445 -5.46055,6.106225 0.97906,0.39506 0.97226,0.5215 -0.0314,0.58333 -2.34572,0.14452 -2.52189,-2.969334 -0.3017,-5.332619 l 2.16995,-2.309806 -3.07509,-1.273746 c -1.6913,-0.70056 -4.74835,-2.605799 -6.79344,-4.233863 -2.04509,-1.628065 -4.54842,-3.406192 -5.56297,-3.951394 -1.57301,-0.845312 -1.74975,-0.692333 -1.20027,1.038914 0.47692,1.502652 -0.0392,2.47805 -1.98611,3.75374 -2.48992,1.631457 -2.78645,1.631409 -5.54973,-8.99e-4 -3.36344,-1.986835 -3.58296,-1.543521 -1.21808,2.459902 1.28122,2.168946 3.93495,3.780436 10.75,6.528007 4.97685,2.006484 10.62382,3.808104 12.54882,4.003614 5.59409,0.56815 42.23166,6.29881 43.42025,6.79157 1.89561,0.78587 4.57574,0.63534 9.13693,-0.51318 z M 129.02234,104.183 c 1.94215,-1.57266 2.08082,-2.12173 1.0312,-4.08297 -1.1587,-2.165036 -1.29824,-2.188553 -3.13312,-0.528007 C 124.98634,101.32234 124.23593,106 125.88922,106 c 0.48906,0 1.89897,-0.81765 3.13312,-1.817 z M 365.43548,88.670835 c 2.52372,-1.845388 0.72713,-4.978366 -3.62014,-6.312966 -1.82344,-0.559791 -7.22183,-3.794317 -11.99642,-7.187835 C 345.04432,71.776515 340.88182,69 340.56892,69 340.25601,69 340,69.869358 340,70.931906 c 0,1.062548 1.4625,2.931417 3.25,4.153042 1.7875,1.221624 5.5,4.321444 8.25,6.888487 5.37163,5.014258 9.35977,7.889947 11.05887,7.974113 0.58238,0.02885 1.87685,-0.545672 2.87661,-1.276713 z M 361,79.160515 C 361,77.350931 357.30054,75 354.45295,75 c -2.30855,0 -1.67435,1.321069 1.80025,3.75 3.90533,2.730034 4.7468,2.802806 4.7468,0.410515 z M 336.19585,68.25 c -0.28974,-1.5125 -0.71979,-2.172655 -0.95566,-1.467011 C 334.81485,68.055491 335.57576,71 336.32994,71 c 0.216,0 0.15565,-1.2375 -0.13409,-2.75 z M 179.866,151.98881 c -1.9987,-1.05466 -6.57247,-5.4211 -10.16394,-9.70319 -3.59147,-4.28209 -8.58779,-9.78604 -11.10293,-12.231 -6.52467,-6.3426 -7.27718,-9.3361 -4.60365,-18.31351 3.64113,-12.226525 3.93444,-12.96045 6.55028,-16.389992 2.11969,-2.779051 2.35035,-3.676712 1.40074,-5.451075 -0.62524,-1.168288 -0.93139,-3.198734 -0.68033,-4.512102 0.57451,-3.005326 -0.56546,-3.06736 -2.53489,-0.137941 -2.15176,3.200631 -3.12715,1.601772 -1.13748,-1.864557 1.50173,-2.61627 2.21655,-2.910015 7.6626,-3.148851 3.41077,-0.149579 6.5978,0.22744 7.37498,0.872445 2.09343,1.737387 1.80935,10.534883 -0.38138,11.810864 -2.94567,1.715698 0.32491,1.230075 9.95953,-1.478814 7.98753,-2.245787 9.28023,-2.379896 10.56417,-1.095961 1.70358,1.703578 0.85466,3.658965 -1.58272,3.645605 -0.93004,-0.0051 -6.26207,1.614624 -11.84896,3.599383 l -10.15797,3.608656 -2.14314,5.15061 c -1.17872,2.83284 -2.39802,7.00276 -2.70956,9.26649 -0.54962,3.99374 -0.31816,4.40913 7.80111,14 4.60215,5.43627 10.33416,11.75204 12.7378,14.03503 2.59998,2.46947 4.07804,4.62373 3.64885,5.31817 -0.39677,0.642 -1.34252,0.92894 -2.10164,0.63763 -0.93911,-0.36037 -1.30629,0.14192 -1.14885,1.5716 0.31543,2.86447 -1.10602,3.07772 -5.40262,0.81051 z m 5.134,-0.0112 c 0,-0.56229 -1.70189,-2.92479 -3.78197,-5.25 -4.30818,-4.81588 -10.53348,-13.77017 -14.23676,-20.47773 -3.26003,-5.90475 -7.29584,-9.06367 -9.37505,-7.33808 -0.81739,0.67836 -1.67688,2.21321 -1.91,3.41077 -0.41189,2.11592 -0.4277,2.11824 -0.56004,0.0824 -0.0749,-1.15226 0.72639,-2.87563 1.78063,-3.82971 1.52918,-1.38388 2.3381,-1.50923 4,-0.6198 1.79758,0.96203 2.08319,0.83243 2.08319,-0.94528 0,-1.77844 2.11791,-8.50128 4.49242,-14.2602 0.52949,-1.28418 0.24441,-1.75 -1.07098,-1.75 -0.9859,0 -2.82699,-0.97182 -4.09133,-2.159603 l -2.29879,-2.159602 -1.51566,3.627485 C 157.68205,102.30339 157,104.34159 157,104.83761 c 0,0.49602 -0.91356,3.76153 -2.03013,7.2567 -1.28176,4.01225 -1.78997,7.44826 -1.37866,9.32097 0.37985,1.72943 3.6329,6.11789 7.80222,10.52542 3.93291,4.15762 8.90663,9.72623 11.05271,12.37471 C 177.05409,150.00206 185,154.85184 185,151.97766 Z m 3,-3.95461 c 0,-0.53732 -1.10103,-1.69837 -2.44674,-2.58011 -1.3457,-0.88174 -5.93449,-5.84211 -10.19729,-11.02305 C 171.09316,129.23895 167.42777,125 167.21065,125 c -0.91292,0 12.17589,19.1575 14.4293,21.11951 2.92514,2.54687 6.36005,3.57493 6.36005,1.90354 z M 179.56968,96.5 c 5.31789,-1.925 10.51522,-3.5 11.54961,-3.5 1.97922,0 2.54003,-1.474482 0.93752,-2.464892 -0.51876,-0.320609 -5.69127,0.739683 -11.49448,2.356204 -9.02202,2.513145 -11.00954,2.770248 -13.71311,1.773909 -2.48027,-0.91405 -3.25432,-0.894432 -3.59093,0.09101 -0.23601,0.690926 -0.9102,0.958898 -1.49821,0.595491 -0.68585,-0.423881 -0.77866,-0.157258 -0.25889,0.74377 2.89679,5.021618 5.17275,5.072578 18.06849,0.404508 z m -9.45181,-2.405989 c -1.08573,-0.687643 -0.92489,-1.020484 0.75,-1.552075 C 172.40551,92.053907 173,91.047544 173,88.932612 c 0,-3.602064 -2.328,-3.912556 -5.68555,-0.758298 -2.90903,2.732889 -2.92618,4.225029 -0.0644,5.605191 2.71856,1.311113 4.80222,1.539618 2.86787,0.314506 z M 280.36333,108.75 C 274.72549,102.83825 265,88.596745 265,86.252724 c 0,-2.835801 2.80489,-4.83591 8.72003,-6.218081 2.87102,-0.67086 8.24198,-2.237526 11.93548,-3.48148 6.07971,-2.047625 6.83492,-2.606859 7.97762,-5.907449 1.27778,-3.690785 0.74249,-4.621334 -1.41646,-2.462381 -0.65084,0.650834 -1.49559,0.871082 -1.87723,0.48944 -0.38164,-0.381641 0.34415,-1.660981 1.61288,-2.842978 1.88681,-1.757831 2.64483,-1.937964 4.16366,-0.98944 C 297.13726,65.47816 298.59328,66 299.35157,66 301.26634,66 306,69.868305 306,71.433033 c 0,0.70833 -1.125,2.945653 -2.5,4.971829 -1.375,2.026176 -2.5,3.827836 -2.5,4.003689 0,0.175853 1.99033,1.079848 4.42296,2.008877 l 4.42296,1.689143 6.20987,-3.134736 c 5.49293,-2.772822 6.38138,-2.963232 7.69537,-1.649247 2.18749,2.18749 1.1232,3.100152 -7.81836,6.704498 l -8.09503,3.263113 -5.75991,-2.752987 c -5.38229,-2.572498 -5.95063,-2.655227 -8.66889,-1.26186 -1.59993,0.82012 -5.4235,2.048948 -8.49682,2.730729 -5.07747,1.126381 -5.54676,1.454516 -5.13804,3.5926 0.42941,2.24632 6.69309,8.645049 10.79154,11.024219 1.79471,1.04185 1.81744,1.25841 0.31484,3 -0.89073,1.03241 -1.41069,2.45473 -1.15546,3.16072 0.61688,1.70637 -1.54957,4.21638 -3.63927,4.21638 -0.91814,0 -3.49323,-1.9125 -5.72243,-4.25 z m 8.27472,1.75085 c 0.34219,-0.89175 -0.60321,-2.6137 -2.33339,-4.25 -1.59976,-1.51297 -3.93731,-5.45085 -5.19455,-8.75085 -1.25724,-3.3 -2.64077,-6.911712 -3.07451,-8.026027 -0.43374,-1.114315 -2.41768,-2.90333 -4.40874,-3.97559 l -3.62012,-1.949563 -2.13564,2.135636 -2.13564,2.135637 5.78888,8.339954 c 9.69648,13.969563 15.41675,18.762993 17.11371,14.340803 z m 1.97998,-5.69183 c 0.40484,-0.65504 0.16279,-1.38208 -0.53788,-1.61564 -0.70068,-0.23356 -2.80535,-1.76923 -4.67705,-3.412607 -3.94728,-3.465756 -4.14149,-3.148469 -1.38278,2.259067 2.03166,3.98237 5.06188,5.25421 6.59771,2.76918 z m -3.95694,-18.206922 c 6.97429,-1.856937 8.24934,-2.721162 5.50988,-3.734556 -2.56019,-0.947076 -2.80867,-3.505406 -0.57969,-5.968404 1.51504,-1.674107 1.35935,-1.68367 -3.25,-0.199614 -2.6627,0.857301 -8.21628,2.513123 -12.34128,3.679603 -8.22132,2.32485 -10,3.18482 -10,4.834878 0,0.602783 0.82293,0.351226 1.82874,-0.559017 2.40766,-2.178899 3.0929,-2.103139 7.19948,0.795975 4.08455,2.883557 4.84398,2.958707 11.63287,1.151135 z M 316.25,84.892974 c 4.2625,-1.714778 7.75,-3.49064 7.75,-3.946359 0,-2.09786 -2.39672,-1.775141 -8.06434,1.085864 -6.08003,3.069189 -6.18617,3.084445 -10.22282,1.4693 -2.24345,-0.89765 -5.40867,-2.750937 -7.03382,-4.118415 -3.50297,-2.947556 -7.0459,-2.817626 -7.4865,0.274555 -0.24636,1.728923 0.35004,2.299945 3,2.872331 1.81911,0.392927 5.33248,1.763411 7.80748,3.04552 2.475,1.282109 4.95,2.354479 5.5,2.383045 0.55,0.02857 4.4875,-1.351062 8.75,-3.065841 z m -13.68686,-8.348998 c 2.76015,-4.212521 -0.61723,-6.351664 -4.04616,-2.562734 -1.46733,1.621372 -1.56406,2.257108 -0.53255,3.5 1.74835,2.10663 2.71376,1.90901 4.57871,-0.937266 z M 218.5,111.52941 c -0.55,-0.17198 -3.65663,-1.10008 -6.90362,-2.06245 C 205.24535,107.58461 198,102.01675 198,99.018496 c 0,-2.699574 3.51161,-6.545407 8.74599,-9.578401 2.6147,-1.51506 6.22476,-4.027377 8.02235,-5.582926 1.79759,-1.555549 4.35648,-3.101377 5.68644,-3.435174 2.14677,-0.538806 2.29501,-0.877043 1.32114,-3.01445 -0.80264,-1.761614 -0.79134,-3.078281 0.0421,-4.907545 1.39247,-3.05614 0.32115,-3.183934 -3.23585,-0.385996 -3.49199,2.746795 -4.60612,1.604812 -1.5785,-1.617947 2.30554,-2.454134 4.96505,-3.193978 6.38327,-1.775753 0.39617,0.396167 2.30675,0.583623 4.24574,0.41657 6.50078,-0.560075 9.42232,5.400151 5.92922,12.096191 -1.6603,3.182674 -1.71609,3.13408 7.16261,6.238901 7.36994,2.577219 8.64644,3.960835 5.10401,5.532315 -1.84862,0.820077 -3.91103,0.437183 -10.00647,-1.857734 -4.39528,-1.654815 -8.05252,-2.516111 -8.5541,-2.014531 -0.4819,0.481901 -3.75971,2.416829 -7.28402,4.299839 -7.19576,3.844635 -7.12184,3.932152 4.51604,5.34709 7.12392,0.866128 8.21081,3.123185 2.18969,4.547145 -3.66645,0.86709 -3.73252,0.95561 -1.75,2.34422 2.78944,1.9538 2.5953,3.00167 -0.89003,4.80401 -2.93489,1.51769 -3.64097,1.65193 -5.54966,1.05509 z m 4.95295,-1.68993 C 224.85383,109.2012 226,108.30568 226,107.84944 c 0,-0.45624 -2.81998,-2.10817 -6.26663,-3.67095 -3.44665,-1.56279 -7.56236,-4.04227 -9.14602,-5.509961 -3.68401,-3.414223 -7.80168,-3.516561 -9.94389,-0.247138 -1.52576,2.328609 -1.45779,2.534449 1.77404,5.372029 1.84832,1.62285 5.99802,3.73198 9.22154,4.68696 3.22353,0.95498 6.31096,1.87705 6.86096,2.04903 1.80349,0.56394 2.37605,0.48419 4.95295,-0.68993 z m 3.79705,-7.48855 c 1.5125,-0.33051 2.75,-0.8952 2.75,-1.25486 0,-0.69519 -18.03687,-3.392534 -18.64163,-2.787776 -0.89537,0.895374 9.33989,5.645296 11.14163,5.170546 1.1,-0.28984 3.2375,-0.7974 4.75,-1.12791 z M 204.50965,95 c 1.31793,0 3.42992,0.470658 4.6933,1.045906 1.92651,0.87719 3.57515,0.352932 10.22028,-3.25 6.49053,-3.519106 7.48506,-4.358438 5.5,-4.641724 -3.61739,-0.516236 -5.135,-2.174294 -4.45822,-4.870811 0.57918,-2.307626 0.52436,-2.329233 -2.25854,-0.890139 -1.56868,0.811192 -3.43459,2.176709 -4.14648,3.034481 -0.71189,0.857773 -3.71263,2.943193 -6.66832,4.634268 C 202.27897,92.98717 199,96.262766 199,98.445012 c 0,0.55 0.70052,-1.27e-4 1.5567,-1.222506 C 201.42891,95.977258 203.16706,95 204.50965,95 Z m 41.46139,-2.96094 C 247.791,90.888081 247.73601,90.849487 241,88.550115 c -3.025,-1.032599 -7.78639,-3.153802 -10.58086,-4.713784 -6.00356,-3.351423 -8.05903,-3.546285 -8.9163,-0.84528 -0.87658,2.761865 0.14853,4.007489 3.30618,4.017368 1.48004,0.0046 6.06598,1.309641 10.19098,2.900024 8.59364,3.313255 8.98182,3.38864 10.97104,2.130617 z M 233.02475,80.4349 C 234.51108,76.525556 234.20498,75 231.93426,75 c -5.43759,0 -7.99265,4.701647 -3.68426,6.779505 3.29829,1.590707 3.70197,1.477029 4.77475,-1.344605 z"
       id="path2989"
       style="fill:#000000"
       inkscape:connector-curvature="0" />
  </g>
</svg>
