<?xml version="1.0" encoding="UTF-8" standalone="no"?>
<!-- Created with Inkscape (http://www.inkscape.org/) -->

<svg
   xmlns:dc="http://purl.org/dc/elements/1.1/"
   xmlns:cc="http://creativecommons.org/ns#"
   xmlns:rdf="http://www.w3.org/1999/02/22-rdf-syntax-ns#"
   xmlns:svg="http://www.w3.org/2000/svg"
   xmlns="http://www.w3.org/2000/svg"
   xmlns:sodipodi="http://sodipodi.sourceforge.net/DTD/sodipodi-0.dtd"
   xmlns:inkscape="http://www.inkscape.org/namespaces/inkscape"
   version="1.1"
   width="705"
   height="241"
   id="svg2"
   inkscape:version="0.91 r13725"
   sodipodi:docname="ub151301.svg">
  <sodipodi:namedview
     pagecolor="#ffffff"
     bordercolor="#666666"
     borderopacity="1"
     objecttolerance="10"
     gridtolerance="10"
     guidetolerance="10"
     inkscape:pageopacity="0"
     inkscape:pageshadow="2"
     inkscape:window-width="1299"
     inkscape:window-height="868"
     id="namedview11"
     showgrid="false"
     inkscape:zoom="0.43262411"
     inkscape:cx="204.56557"
     inkscape:cy="143.61475"
     inkscape:window-x="0"
     inkscape:window-y="0"
     inkscape:window-maximized="0"
     inkscape:current-layer="svg2" />
  <metadata
     id="metadata8">
    <rdf:RDF>
      <cc:Work
         rdf:about="">
        <dc:format>image/svg+xml</dc:format>
        <dc:type
           rdf:resource="http://purl.org/dc/dcmitype/StillImage" />
        <dc:title></dc:title>
      </cc:Work>
    </rdf:RDF>
  </metadata>
  <defs
     id="defs6" />
  <g
     id="g2987">
    <path
       d="m 64.569547,203.3052 c -0.38802,-4.78214 -1.304193,-10.12769 -2.035939,-11.87901 -0.731746,-1.75131 -4.188658,-5.554 -7.682028,-8.45043 -3.493369,-2.89642 -6.491605,-5.84746 -6.662746,-6.55786 -0.171142,-0.7104 0.870359,-2.0658 2.314447,-3.01201 l 2.625613,-1.72036 6.544557,6.40723 C 67.836658,186.08469 69,188.72596 69,199.26788 69,208.15926 69.806128,210 73.7,210 c 1.265,0 2.3,0.45 2.3,1 0,0.55 -2.413116,1 -5.362481,1 l -5.36248,0 -0.705492,-8.6948 z m 65.762313,5.4448 c 0.30495,-1.7875 0.83128,-7.3 1.16962,-12.25 0.64583,-9.4484 3.37246,-23.5 4.56004,-23.5 0.38271,0 1.24171,1.31785 1.90889,2.92856 0.9819,2.37053 0.92541,3.94254 -0.29646,8.25 -2.46934,8.70511 -4.01033,23.32438 -2.71392,25.74675 1.01431,1.89526 0.83822,2.07469 -2.03614,2.07469 -2.99693,0 -3.12012,-0.15446 -2.59203,-3.25 z M 157,211.32874 c 0,-0.36919 0.68581,-1.42907 1.52402,-2.35528 1.37656,-1.52108 1.19559,-2.45131 -1.87035,-9.61442 -1.86689,-4.36173 -4.44114,-9.93935 -5.72054,-12.39472 -3.03243,-5.81969 -3.38006,-10.20412 -0.93035,-11.73398 1.63218,-1.01932 1.98774,-0.76404 2.85912,2.05279 0.54733,1.76928 1.29448,4.70861 1.66035,6.53184 0.36586,1.82323 2.42302,7.63515 4.57148,12.91538 2.14845,5.28022 3.90627,10.87598 3.90627,12.43503 0,2.48291 -0.37223,2.83462 -3,2.83462 -1.65,0 -3,-0.30207 -3,-0.67126 z m 57.5,-0.35766 c 3.59376,-1.60563 37.80213,-7.91994 46,-8.49086 4.4,-0.30643 10.25,-0.1828 13,0.27474 l 5,0.83187 -7.5,2.40254 -7.5,2.40254 6.5,0.84795 c 16.36634,2.13506 13.13273,2.52195 -21.5,2.57237 -21.92084,0.0319 -35.21782,-0.29705 -34,-0.84115 z M 16,209.61481 c 0,-3.67529 3.208285,-8.01664 9.748543,-13.19142 7.156299,-5.66221 7.175487,-5.69059 10.34425,-15.29806 1.746059,-5.29393 3.619577,-10.18783 4.163374,-10.87533 1.783265,-2.25451 5.704116,-1.48466 6.774289,1.33011 0.828915,2.18021 0.262396,3.97137 -3.655147,11.55645 -4.283217,8.2931 -5.377613,9.57685 -14.37784,16.86549 -5.357955,4.33903 -10.010153,8.58862 -10.338218,9.44354 C 17.919516,211.37331 16,211.49546 16,209.61481 z M 261.38512,199.25 c 1.8163,-6.11372 1.64678,-6.93213 -3.86628,-18.66522 l -5.58159,-11.87894 0.28137,-11.10292 c 0.28067,-11.0748 0.28784,-11.10367 2.83356,-11.40025 1.54378,-0.17986 3.23678,0.45914 4.28486,1.61726 1.45927,1.61247 1.57324,2.60619 0.72227,6.29733 -1.24096,5.38274 -1.37154,16.57174 -0.20184,17.29465 0.47161,0.29148 2.54973,5.2797 4.61803,11.08496 l 3.76055,10.555 -2.75402,3.97407 c -2.85045,4.11319 -5.00574,5.28322 -4.09691,2.22406 z M 139.36077,185.49776 C 138.04219,182.0616 141.62014,175 144.67974,175 c 0.75337,0 1.79816,1.12678 2.32177,2.50396 1.22132,3.21232 -0.38513,6.89417 -3.65883,8.38577 -3.12121,1.42211 -3.29224,1.40528 -3.98191,-0.39197 z m 134.21066,-3.06919 c -0.86429,-0.86428 -1.56789,-1.65178 -1.56357,-1.75 0.004,-0.0982 1.36437,-5.57857 3.02234,-12.17857 1.65797,-6.6 3.90005,-17.08156 4.9824,-23.29235 2.12859,-12.21439 4.29715,-18.07911 5.52417,-14.93969 0.38005,0.97238 0.19334,2.99738 -0.41491,4.5 -0.60825,1.50262 -2.00347,7.00704 -3.1005,12.23204 -1.09702,5.225 -3.1259,14.41221 -4.50862,20.41603 -1.38271,6.00381 -2.32749,11.10255 -2.09951,11.33053 0.22798,0.22799 1.16433,-3.10923 2.08077,-7.41602 0.91644,-4.3068 2.30873,-10.16195 3.09397,-13.01144 0.78525,-2.8495 2.13085,-8.9245 2.99022,-13.5 1.80589,-9.61504 3.08961,-12.02464 7.34525,-13.78739 2.41039,-0.99841 3.39415,-1.01302 4.53366,-0.0673 0.80041,0.66428 2.00147,0.87022 2.66903,0.45764 0.87383,-0.54005 0.99666,-0.21409 0.43859,1.16392 -0.42633,1.05272 -3.82751,10.91404 -7.55818,21.91404 -7.46852,22.02123 -9.1108,25.75919 -12.29814,27.99169 -2.69486,1.88756 -3.19241,1.88144 -5.13697,-0.0631 z M 228.76413,171.25 C 221.93968,164.77588 212.92578,157.3554 208.68915,154.72372 202.01705,150.57921 201,149.57016 201,147.09504 c 0,-2.20676 0.65851,-3.12517 2.90927,-4.05746 1.99011,-0.82433 3.49345,-0.89242 4.75826,-0.21551 3.27437,1.75239 31.70398,32.1562 33.04053,35.33494 3.20557,7.62379 1.30305,6.60859 -12.94393,-6.90701 z m -59.10621,1.54988 c -0.62263,-2.38095 4.59498,-28.53539 6.34487,-31.8051 1.38979,-2.59684 3.63434,-2.54133 5.0614,0.12517 0.9202,1.7194 0.76921,2.61687 -0.79911,4.75 -2.50936,3.41306 -5.95207,14.94403 -6.83112,22.88005 -0.70575,6.37148 -2.6294,8.43464 -3.77604,4.04988 z m -82.650955,-1.40739 c -4.210801,-1.13138 -14.579217,-5.9951 -16.778448,-7.8706 -0.149315,-0.12734 0.106925,-1.25445 0.569422,-2.5047 l 0.840905,-2.27319 3.430578,2.98933 c 4.033964,3.51511 8.894259,6.14481 14.378956,7.77988 2.171608,0.64738 4.121608,1.69675 4.333333,2.33192 0.472473,1.41742 0.09031,1.39189 -6.774746,-0.45264 z M 69.697906,156.65514 c -0.3097,-0.80707 1.12868,-3.03286 3.381575,-5.23275 L 77,147.5941 l 0,3.58051 c 0,3.73138 -1.042862,5.13478 -4.631575,6.2328 -1.388096,0.42471 -2.319556,0.16232 -2.670519,-0.75227 z M 64.75,155.31067 c -2.655457,-0.69394 -2.178743,-1.63608 3.065241,-6.05787 4.093512,-3.4517 5.934548,-4.24835 12.28305,-5.31508 6.257358,-1.05142 7.93675,-1.0265 10.360917,0.15373 3.700954,1.80186 4.871775,4.51348 1.409105,3.26349 -1.302572,-0.47022 -5.277901,-0.7424 -8.834065,-0.60484 -6.18694,0.23931 -6.662755,0.44414 -11.034349,4.75 -2.512728,2.47494 -4.77814,4.4477 -5.034248,4.3839 C 66.709543,155.8202 65.7125,155.5622 64.75,155.31067 z m 56.20608,-8.76353 C 115.75524,144.09807 107.675,140.48419 103,138.5163 91.749019,133.78034 83.863742,128.9509 84.230993,127.021 c 0.512484,-2.69311 4.262423,-2.20163 11.172661,1.46433 3.710918,1.96868 10.200696,4.73328 14.421736,6.14355 13.11858,4.383 22.9424,8.3864 24.15015,9.84165 0.89326,1.07631 0.77345,1.98292 -0.52365,3.96255 -0.92505,1.4118 -1.98742,2.56692 -2.36082,2.56692 -0.3734,0 -4.93414,-2.00379 -10.13499,-4.45286 z M 593,147.46016 C 593,146.12609 597.13044,139 597.90369,139 c 2.2192,0 1.70714,3.99867 -0.8224,6.42212 -2.56325,2.45575 -4.08129,3.2138 -4.08129,2.03804 z m -426.25721,-3.03591 c -2.67794,-1.45268 -2.71314,-1.58091 -1.22432,-4.45997 1.74205,-3.36875 3.94674,-3.71602 7.28489,-1.14749 1.97446,1.51924 2.15649,2.15863 1.27475,4.47776 -1.15902,3.04845 -3.21459,3.36503 -7.33532,1.1297 z M 134.08786,143.5 c -1.80267,-2.36513 -16.18146,-42.82246 -15.89911,-44.735022 0.67918,-4.600607 2.87067,-2.610237 7.68159,6.976642 2.72668,5.43356 7.26136,15.47701 10.07706,22.31879 2.81569,6.84177 5.52341,13.40524 6.01715,14.58549 0.83581,1.99794 0.6215,2.13584 -3.1084,2 -2.20336,-0.0803 -4.34909,-0.5959 -4.76829,-1.1459 z m 363.46454,-5.75 c 1.74093,-5.70027 3.69559,-8.75457 9.91889,-15.49899 l 6.68888,-7.249 0.56545,-9.47772 c 0.44295,-7.424514 0.96164,-9.836279 2.39429,-11.132809 1.70261,-1.54084 2.00815,-1.537596 4.42654,0.04699 2.50039,1.638321 2.57212,1.952266 1.91515,8.381799 -1.4244,13.94007 -1.86199,15.13983 -7.10939,19.4925 -2.66871,2.21367 -7.78413,7.09889 -11.36758,10.85604 -6.88863,7.22253 -8.55208,8.24787 -7.43223,4.58119 z M 602,138.11281 c 0,-1.18854 3.7946,-4.95115 10.25,-10.16356 5.6375,-4.552 11.825,-9.74423 13.75,-11.53828 4.06746,-3.79076 9.97858,-5.34663 11.83138,-3.11414 1.52349,1.83568 0.55641,4.42728 -2.19903,5.89304 -1.17279,0.62386 -8.98996,5.56136 -17.37147,10.97222 C 609.87936,135.57294 602.79186,140 602.51088,140 602.22989,140 602,139.15076 602,138.11281 z M 328.53147,121.68267 c -5.74847,-4.50047 -10.4697,-8.75482 -10.49162,-9.45411 -0.062,-1.97901 4.45028,-3.54679 8.18933,-2.84534 2.1436,0.40214 4.8267,2.15554 7.32653,4.78787 3.75317,3.95211 3.78828,4.04634 0.72453,1.94457 -1.77087,-1.21483 -3.48492,-2.63783 -3.80902,-3.16222 C 330.14713,112.42905 329.41727,112 328.84931,112 c -0.56795,0 1.51958,2.07903 4.63896,4.62006 3.11939,2.54103 6.01281,4.22853 6.42983,3.75 0.41702,-0.47853 1.60285,-4.69506 2.63518,-9.37006 2.78989,-12.634347 7.55562,-16.402192 11.72232,-9.26782 1.85475,3.17578 1.85192,3.31105 -0.18286,8.74949 -2.80074,7.48566 -7.77251,17.20238 -9.27806,18.13286 -3.49701,2.16127 -6.06473,1.06818 -16.28321,-6.93186 z m 21.9195,-6.09374 c 2.50812,-6.00109 4.39408,-11.07721 4.19103,-11.28027 -0.20306,-0.20305 -2.27261,4.25693 -4.59901,9.91108 -2.3264,5.65414 -4.91852,11.40526 -5.76027,12.78026 -1.38934,2.26949 -1.38576,2.3617 0.0388,1 0.86308,-0.825 3.62134,-6.40998 6.12946,-12.41107 z m -105.16384,3.59255 c -2.08292,-2.10019 -6.15819,-5.30259 -9.05615,-7.11645 -2.89796,-1.81386 -6.16046,-4.43121 -7.25,-5.81634 C 226.63697,103.26877 226.38537,100 228.5,100 c 0.825,0 1.5,0.43929 1.5,0.97621 0,1.51463 13.94169,11.5449 19.25,13.8493 5.08687,2.20827 5.8365,3.88125 2.92126,6.5195 -2.46431,2.23018 -2.55474,2.20176 -6.88413,-2.16353 z m 135.91636,-2.30944 c -0.93692,-1.72037 -3.21271,-5.37744 -5.05731,-8.12682 -2.6542,-3.95607 -3.07141,-5.17981 -2,-5.86628 1.64892,-1.05651 4.07086,1.64244 7.43981,8.29075 1.30679,2.57882 2.83454,4.97218 3.39499,5.31856 1.5812,0.97723 1.20049,3.51175 -0.52749,3.51175 -0.85058,0 -2.31308,-1.40758 -3.25,-3.12796 z m 6.41551,-2.67949 c -0.27446,-0.4441 -0.81115,-3.16037 -1.19264,-6.03616 -0.63632,-4.79683 -1.03361,-5.42411 -4.80999,-7.59451 -2.264,-1.301187 -5.54128,-2.662415 -7.28283,-3.024946 -3.51635,-0.731983 -4.97287,-3.061659 -3.22835,-5.163682 1.92668,-2.32151 3.91708,-1.580539 10.89168,4.054686 6.9398,5.607092 7.95932,7.625452 7.99212,15.822062 0.0105,2.61226 -1.29485,3.68215 -2.36999,1.94255 z M 247.25,112.96528 C 244.30024,111.78429 243.96392,106 246.84501,106 c 2.41009,0 5.42268,3.37468 4.99264,5.59273 -0.41859,2.15903 -1.68036,2.53653 -4.58765,1.37255 z m 58.38642,-1.47037 C 304.58624,108.75819 304.91055,106.31913 306.5,105 c 0.825,-0.68469 1.5,-1.94186 1.5,-2.7937 0,-0.85185 0.70489,-2.327718 1.56643,-3.279706 1.43118,-1.581436 1.33806,-2.181553 -1.07844,-6.950298 -1.86584,-3.682058 -2.33214,-5.53215 -1.5831,-6.281186 0.58398,-0.583977 1.20964,-0.866777 1.39036,-0.628443 3.84226,5.067184 7.70475,10.92375 7.70475,11.682451 0,0.539641 -0.9545,2.194612 -2.12111,3.677712 -1.1666,1.4831 -3.35521,4.9533 -4.86358,7.71156 -2.06561,3.77727 -2.89954,4.60568 -3.37889,3.35652 z M 293.43011,104.75 c 0.36485,-1.2375 0.92322,-4.95 1.24081,-8.25 0.78809,-8.188712 6.37666,-17.5 10.50339,-17.5 1.98689,0 2.45177,1.495028 0.78517,2.525043 C 302.46508,83.684701 298,95.714422 298,102.9693 c 0,1.64599 -0.65745,3.06901 -1.58179,3.42371 -2.87683,1.10395 -3.66949,0.6681 -2.9881,-1.64301 z m 143.3734,0 c -1.35013,-1.06899 -1.44121,-2.37447 -0.62892,-9.015111 l 0.94983,-7.765111 -6.2334,-7.013695 c -4.19855,-4.724115 -5.90356,-7.343548 -5.22297,-8.024137 0.68059,-0.680588 3.21295,1.149128 7.75741,5.604991 6.53541,6.408006 6.77609,6.821144 7.67608,13.176258 0.51102,3.608454 1.19748,7.630015 1.52546,8.936805 1.04809,4.17593 -2.53843,6.701 -5.82349,4.1 z m -137.08945,-0.36927 c -1.14371,-1.14371 -0.8238,-5.870992 0.48594,-7.18073 1.58996,-1.589962 5.28204,-1.529033 6.64199,0.10961 0.6664,0.802958 0.78498,2.447164 0.30653,4.25 -0.61281,2.3091 -1.418,3.00424 -3.75038,3.23778 -1.63351,0.16357 -3.29135,-0.0239 -3.68408,-0.41666 z m 130.56586,-1.40082 c -2.11938,-0.85281 -4.15309,-5.440078 -2.94664,-6.646519 0.3154,-0.315407 2.16945,-0.27406 4.12009,0.09188 3.59548,0.674516 4.37258,2.258756 2.93964,5.992939 -0.6823,1.77805 -0.98684,1.81964 -4.11309,0.5617 z m -54.29998,-1.50408 c -0.69572,-0.83829 -0.99025,-1.798858 -0.65451,-2.134598 0.80191,-0.801901 6.67457,1.644178 6.67457,2.780088 0,1.47742 -4.67414,0.97625 -6.02006,-0.64549 z m 275.68673,-0.1425 c -1.79402,-1.794011 -0.48041,-5.285327 2.73669,-7.273606 3.44166,-2.127057 5.66679,-4.477579 15.56854,-16.445836 4.28773,-5.182595 6.01899,-6.581463 8,-6.464056 2.46402,0.146034 2.4584,0.160391 -0.2219,0.566422 -2.18172,0.330503 -2.75,0.949715 -2.75,2.996463 0,1.624206 -1.57433,4.337472 -4.25,7.324605 -8.03195,8.966934 -12.25214,14.348315 -13.45173,17.152992 -1.1286,2.638726 -4.03131,3.743306 -5.6316,2.143016 z m 8.99085,-5.009143 c -0.3717,-0.371697 0.30147,-1.716078 1.49592,-2.987513 1.67789,-1.786033 2.48158,-2.054541 3.53437,-1.180804 1.13912,0.945384 1.08703,1.435452 -0.31757,2.987512 -1.73147,1.913256 -3.52971,2.363817 -4.71272,1.180805 z M 447.53542,85.05731 C 447.17602,84.475789 445.4337,84 443.6636,84 c -2.37655,0 -4.51903,-1.144546 -8.19098,-4.375757 L 430.5,75.248486 l 0,-16.124197 c 0,-8.868308 0.24349,-16.124217 0.54109,-16.124243 0.2976,-2.5e-5 1.7601,2.407415 3.25,5.349867 C 436.70135,53.11002 437,54.807037 437,63.742924 c 0,11.224484 -0.32074,10.747679 7.96957,11.847427 6.41308,0.850725 8.15134,2.192756 8.36072,6.454941 0.14966,3.046646 -0.14396,3.491007 -2.48585,3.762018 -1.46056,0.16902 -2.94962,-0.16848 -3.30902,-0.75 z m 87.51477,-6.496838 c -0.65709,-0.791741 -1.04969,-2.704241 -0.87245,-4.25 0.29066,-2.5349 0.68203,-2.799991 3.99141,-2.703579 2.01804,0.05879 5.54235,1.083255 7.83181,2.276587 l 4.16265,2.169695 5.39706,-3.087888 c 2.96839,-1.698339 5.65813,-3.510303 5.97722,-4.026588 1.29024,-2.087652 2.33934,-0.763348 1.26434,1.596013 -0.63519,1.394091 -3.70678,4.084901 -6.82575,5.979578 l -5.67087,3.444868 -4.1178,-1.617521 c -3.80128,-1.493183 -4.30997,-1.491613 -6.61763,0.02042 -3.03582,1.989149 -3.03389,1.989064 -4.51999,0.198414 z m 7.04023,-7.483426 c -1.17687,-0.745018 -1.19812,-1.402829 -0.12868,-3.984687 1.34615,-3.249889 2.89809,-3.772926 6.104,-2.057175 C 550.52032,66.348837 550.50515,67.49485 548,70 c -2.17585,2.175853 -3.7272,2.458593 -5.90958,1.077046 z"
       id="path2997"
       style="fill:#fefefe" />
    <path
       d="m 389.25,82.325049 c -4.7007,-2.737352 -5.43284,-4.322438 -2,-4.330016 2.12945,-0.0047 2.08927,-0.135715 -0.75,-2.445339 -1.65,-1.342204 -5.25,-3.679671 -8,-5.19437 -4.31384,-2.37606 -6.09786,-2.747857 -13,-2.709239 -9.75939,0.0546 -15.3724,1.524741 -18.48944,4.842679 C 345.713,73.869944 344.19154,75 343.62952,75 c -2.10701,0 5.87091,-7.01129 9.29839,-8.171767 1.96465,-0.665192 7.62209,-1.236169 12.57209,-1.268837 l 9,-0.0594 8,5.287622 c 6.07078,4.012501 8.07797,4.916822 8.32332,3.75 0.58047,-2.760497 1.93935,-1.61898 2.63366,2.212378 0.37377,2.0625 0.92263,4.7625 1.2197,6 0.66457,2.768353 -0.0374,2.713384 -5.42668,-0.424951 z"
       id="path2993"
       style="fill:#fe0000" />
    <path
       d="m 137.73862,173.89281 c -1.47325,-2.58834 -1.58362,-3.75471 -0.6747,-7.13019 0.96099,-3.56883 0.78229,-4.71393 -1.54489,-9.89957 -2.5758,-5.73965 -2.59402,-5.92751 -0.8597,-8.86349 1.89098,-3.20118 2.85913,-3.51334 6.54733,-2.11109 2.92675,1.11275 8.53767,14.15674 9.46777,22.01022 0.53091,4.48285 0.33975,5.61778 -1.12687,6.69019 -1.3508,0.98773 -2.19777,1.022 -3.60096,0.1457 -1.45664,-0.90969 -2.2231,-0.79432 -3.7194,0.55981 -2.44587,2.21348 -2.4277,2.21915 -4.48858,-1.40158 z m -90.045643,-2.95887 c -0.277389,-1.06073 -1.51059,-2.30084 -2.740446,-2.7558 -2.057183,-0.761 -1.804683,-1.07929 3.155683,-3.97797 2.965482,-1.73293 7.191786,-4.50703 9.391786,-6.16466 3.720222,-2.80306 4.261197,-2.93328 7.734338,-1.86171 3.684975,1.13692 5.546004,3.75456 4.208234,5.91912 -0.553686,0.89588 -10.679254,6.08279 -19.593912,10.03714 -1.163593,0.51614 -1.800304,0.16286 -2.155683,-1.19612 z M 181.22347,145.91161 c 1.52981,-2.06917 1.74057,-3.11028 0.93456,-4.61633 -0.99503,-1.85924 -0.79087,-1.90908 4.65062,-1.13532 3.13024,0.44511 8.22045,0.53969 11.31158,0.21018 6.11194,-0.65152 8.37272,0.6286 4.34841,2.46219 -1.58918,0.72408 -2.46864,1.94884 -2.46864,3.4379 0,2.26885 -0.1985,2.3131 -10.37591,2.3131 l -10.37591,0 1.97529,-2.67172 z m 77.83341,0.66825 c -0.96572,-1.1712 -2.4023,-1.60939 -4.34263,-1.32461 -1.59473,0.23405 -3.04022,-0.0651 -3.2122,-0.66485 -0.17198,-0.59972 -1.50266,-5.05299 -2.95706,-9.89616 -2.72881,-9.08695 -2.70043,-13.89806 0.0684,-11.60012 1.15706,0.96027 1.91682,0.75638 3.81041,-1.02255 1.30085,-1.22209 2.60436,-1.835 2.89668,-1.36201 0.29231,0.47298 0.82476,3.76932 1.1832,7.3252 0.35844,3.55588 1.54366,8.63622 2.63381,11.28963 1.09015,2.65342 1.84268,5.76518 1.67229,6.91502 -0.29159,1.96776 -0.39461,1.98776 -1.75292,0.34045 z m 27.09938,-16.70126 c -1.0191,-1.63183 -0.89018,-2.61123 0.74702,-5.67538 1.08827,-2.03677 2.67894,-6.24306 3.53484,-9.3473 1.34847,-4.89078 2.05706,-5.89179 5.30902,-7.5 5.64682,-2.79255 7.62829,-2.088 8.84217,3.14402 0.77214,3.328 0.70918,4.98315 -0.25521,6.70899 -0.70412,1.26009 -2.00884,4.81514 -2.89938,7.90011 -1.64786,5.70845 -2.55503,6.3272 -6.59446,4.49789 -0.95479,-0.43239 -2.88992,-0.11549 -4.55605,0.7461 -2.68576,1.38886 -2.98585,1.35437 -4.12795,-0.47443 z m 353.41752,-14.21026 c 0.84782,-2.20941 -3.1571,-4.98974 -6.11727,-4.24678 -3.4569,0.86763 -2.36407,-0.91734 1.8569,-3.03295 1.75263,-0.87844 6.33179,-4.58774 10.17592,-8.24289 3.84413,-3.655144 6.43163,-5.99322 5.75,-5.19572 -1.57519,1.842952 -1.59501,5.29432 -0.0393,6.85 1.8601,1.8601 4.53058,1.42274 6.2433,-1.02251 0.85618,-1.222375 1.5567,-1.638324 1.5567,-0.924329 0,1.431879 -0.97609,2.318289 -12.21149,11.089519 -4.24132,3.3111 -7.48795,5.43765 -7.21473,4.72566 z M 354.78557,100.97461 c -0.94294,-1.657009 -2.74294,-3.407822 -4,-3.890694 L 348.5,96.205966 351,95.225401 C 353.68692,94.171521 372.32879,89 373.4408,89 c 0.3689,0 -0.53995,1.041381 -2.01967,2.31418 -2.32978,2.003995 -2.53359,2.607161 -1.52058,4.5 0.6434,1.202201 1.79599,2.18582 2.56131,2.18582 1.98103,0 2.39885,3.28076 0.59295,4.65592 -1.16849,0.8898 -2.19231,0.80722 -4.44689,-0.35867 -2.63349,-1.36183 -3.26917,-1.35235 -6.30234,0.0941 -4.64605,2.21555 -5.54994,2.04526 -7.52001,-1.41671 z m 88.29729,-3.023831 C 442.48729,95.173707 442,92.102149 442,91.125093 c 0,-2.319176 4.55168,-6.659508 5.45352,-5.200298 0.98523,1.594129 5.11285,1.302621 6.57958,-0.464675 0.98846,-1.191025 1.02647,-2.380394 0.16776,-5.25 L 453.09063,76.5 l 1.95469,2.360784 c 2.5089,3.030149 2.46723,6.019661 -0.1736,12.453835 C 452.87411,96.181645 447.17094,103 445.09755,103 c -0.5125,0 -1.41911,-2.27215 -2.01469,-5.049221 z m 71.9224,-3.545791 c 0.0134,-2.296569 10.26257,-15.609155 14.51362,-18.851593 L 533,72.898217 l 0,2.395904 c 0,3.17409 3.58297,6.522906 5.22363,4.88225 C 539.66333,78.736667 541,78.652256 541,80.001043 c 0,0.550574 -2.79815,3.138074 -6.2181,5.75 -3.41996,2.611926 -7.26359,5.759627 -8.54139,6.994891 -2.2,2.126747 -2.45512,2.159554 -4.80752,0.618201 -2.31297,-1.515512 -2.62036,-1.504546 -4.45861,0.159054 -1.08591,0.982732 -1.97201,1.379542 -1.96912,0.881799 z"
       id="path2991"
       style="fill:#0000fe" />
    <path
       d="m 12.142274,212.27795 c 2.839564,-0.3008 3.544341,-0.76033 3.197908,-2.08509 -0.93682,-3.58241 2.522319,-8.69713 9.579775,-14.16476 7.051857,-5.46329 7.067892,-5.48688 10.195687,-15 3.247939,-9.87853 6.061726,-14.01688 11.384356,-16.74341 1.65,-0.84522 5.987205,-3.73536 9.638233,-6.42253 5.323846,-3.91837 6.734124,-5.52693 7.122528,-8.12396 0.594936,-3.97798 -0.961481,-5.16432 -4.087847,-3.11584 -3.211193,2.10405 -4.016662,0.90058 -1.064577,-1.59062 2.263326,-1.90996 6.500482,-2.01881 7.881646,-0.20246 0.595208,0.78275 3.852979,0.71415 6.010017,-0.12655 3.808712,-1.48444 13.524037,-2.827 16.464921,-2.27529 3.863503,0.7248 7.395608,4.11203 5.87429,5.63335 -0.684709,0.68471 -1.951756,0.65682 -3.905425,-0.086 -1.668033,-0.63419 -4.910975,-0.82181 -7.662839,-0.44333 C 78.189204,148.16165 78,148.31661 78,151.43885 78,154.66808 75.530173,158 73.136463,158 c -1.671127,0 4.603938,5.33054 8.863537,7.5294 1.925,0.99371 5.278233,2.33685 7.451628,2.98476 3.843365,1.14575 6.618633,3.74891 5.349651,5.01789 -1.17056,1.17056 -13.200105,-2.58295 -19.412729,-6.05725 l -6.179999,-3.45605 -7.741432,3.52788 -7.741433,3.52788 7.637157,7.84791 c 4.200436,4.31635 7.692298,8.01208 7.759693,8.21274 0.0674,0.20066 0.404896,5.08984 0.75,10.86484 L 70.5,208.5 l 2.80906,0.32212 c 1.544984,0.17717 3.055629,0.96467 3.356989,1.75 C 77.121191,211.7582 81.579869,212 102.9957,212 l 25.78172,0 0.56252,-3.25 c 0.30938,-1.7875 0.85439,-7.525 1.21113,-12.75 0.35673,-5.225 1.97814,-14.85807 3.60313,-21.40682 l 2.95452,-11.90682 -2.30436,-5.32612 c -1.2674,-2.92936 -2.75436,-5.33308 -3.30436,-5.3416 -0.55,-0.009 -5.275,-2.0127 -10.5,-4.45373 -5.225,-2.44103 -13.68484,-6.23416 -18.79965,-8.42919 C 91.746363,134.64938 83,129.39257 83,127.59575 83,125.86064 85.130332,124 87.116947,124 c 0.944321,0 4.675037,1.5693 8.290479,3.48733 3.615443,1.91803 11.415314,5.13724 17.333054,7.15379 5.91774,2.01655 12.7223,4.50281 15.12125,5.52503 2.99941,1.27806 4.21545,1.46428 3.89338,0.59621 -0.25759,-0.6943 -3.68287,-9.87683 -7.61173,-20.40563 C 120.21452,109.82794 117,100.32054 117,99.229177 c 0,-2.422223 2.48329,-4.666556 4.07496,-3.682846 3.69529,2.283813 29.16978,62.525889 30.8535,72.962369 1.43051,8.86689 4.34704,18.86914 8.43727,28.93563 1.99885,4.91937 3.63427,10.20687 3.63427,11.75 l 0,2.80567 23.91667,0 c 14.81349,0 24.04354,-0.37501 24.25,-0.98525 0.35543,-1.05056 31.29443,-7.65058 41.33333,-8.81738 l 6,-0.69737 1.36981,-4.3296 c 1.3653,-4.31535 1.35131,-4.36917 -4.25,-16.3501 L 251,168.7998 l 0,-11.28803 c 0,-9.38232 -0.45342,-12.78415 -2.68572,-20.1499 -1.47715,-4.87403 -2.74384,-10.43687 -2.81487,-12.36187 -0.19787,-5.36242 -1.25375,-6.81389 -8.10405,-11.14024 C 230.3377,109.40244 226,104.84681 226,101.89189 c 0,-2.927586 2.96403,-3.585738 4.87796,-1.08313 0.89212,1.16651 4.08267,3.94933 7.09011,6.18404 l 5.46807,4.0631 1.03193,-4.25963 c 1.2866,-5.31088 4.59291,-6.899204 10.16633,-4.88383 2.99035,1.08132 3.75399,1.07717 4.43463,-0.0241 0.45222,-0.73171 0.99097,-1.11842 1.19721,-0.85935 1.03354,1.2983 4.70643,12.33171 4.25526,12.78287 -0.77539,0.77539 -1.1665,0.1616 -3.38666,-5.31486 l -2.02578,-4.99697 -0.0545,3.69424 c -0.0354,2.40048 -0.89601,4.67251 -2.45732,6.48764 -2.15339,2.50347 -2.26606,3.05782 -1.08546,5.34084 0.72453,1.40108 1.76163,5.90664 2.30466,10.01235 0.54304,4.10571 1.8037,9.56975 2.80147,12.14231 1.61264,4.15789 1.67907,5.46495 0.59812,11.76856 -1.41217,8.23516 -1.59596,17.7012 -0.35853,18.46597 0.47161,0.29148 2.55321,5.28949 4.62578,11.10671 l 3.76831,10.57677 -2.63748,3.7023 -2.63748,3.70231 8.09428,1.16592 c 4.45186,0.64125 8.33933,1.41096 8.63883,1.71046 0.2995,0.29949 -2.19642,1.30659 -5.54648,2.23799 -3.35006,0.9314 -5.8968,2.00771 -5.65942,2.3918 0.23738,0.38409 3.70289,0.97259 7.70113,1.30779 3.99824,0.3352 7.42528,1.07669 7.61563,1.64775 0.23428,0.70283 20.37232,1.03829 62.33015,1.03829 58.56305,0 61.95547,-0.0966 61.46618,-1.75 -0.28483,-0.9625 -2.09164,-9.625 -4.01512,-19.25 -1.92349,-9.625 -5.57108,-27.4 -8.10575,-39.5 C 389.9332,120.17044 390.23065,123 393.5,123 c 2.57746,0 2.7252,0.22481 2.21479,3.37013 -0.33324,2.05352 0.90426,10.15996 3.16762,20.75 l 3.71452,17.37987 9.70154,0.28621 c 12.65157,0.37325 12.729,2.21379 0.0931,2.21379 l -9.60841,0 0.69257,2.75 C 404.15004,172.4274 412,211.04003 412,211.67933 412,211.8557 423.28032,212 437.06739,212 c 23.40432,0 25.03303,-0.1161 24.54951,-1.75 -0.28483,-0.9625 -2.09164,-9.625 -4.01512,-19.25 -1.92349,-9.625 -5.57108,-27.4 -8.10575,-39.5 C 442.9332,120.17044 443.23065,123 446.5,123 c 2.57746,0 2.7252,0.22481 2.21479,3.37013 -0.33326,2.05363 0.90429,10.15941 3.16801,20.75 l 3.71492,17.37987 11.20114,0.28275 C 481.51655,165.15427 481.59374,167 466.89159,167 l -11.10841,0 0.69257,2.75 C 457.15004,172.4274 465,211.04003 465,211.67933 465,211.8557 474.03032,212 485.06739,212 c 18.64241,0 20.03061,-0.12427 19.54951,-1.75 -0.28483,-0.9625 -2.09164,-9.625 -4.01512,-19.25 -1.92349,-9.625 -5.57108,-27.4 -8.10575,-39.5 C 485.9332,120.17044 486.23065,123 489.5,123 c 2.57746,0 2.7252,0.22481 2.21479,3.37013 -0.33332,2.05403 0.90443,10.15736 3.16948,20.75 l 3.71638,17.37987 34.25416,0.26319 34.25416,0.26319 -0.30449,-47.01367 C 566.50366,71.564142 566.52404,70.99903 568.5,70.999229 c 1.98381,2e-4 1.99767,0.57085 1.71177,70.500491 L 569.92355,212 l 22.05728,0 22.05727,0 -0.53278,-2.25 C 613.21228,208.5125 610.28489,194.225 607,178 c -3.28489,-16.225 -6.22765,-30.57375 -6.53948,-31.88611 l -0.56695,-2.38611 -2.95338,2.82952 c -2.10531,2.01702 -3.2619,2.52099 -4.0278,1.75509 -1.21975,-1.21975 2.07993,-8.6283 4.45779,-10.00876 1.17759,-0.68365 1.1728,-1.6222 -0.032,-6.28633 -1.77956,-6.88905 -1.45871,-9.5173 1.16184,-9.5173 1.64532,0 2.02271,0.70935 2.12805,4 0.34344,10.72788 -0.88148,10.6325 11.12195,0.86594 5.9125,-4.81069 13.52355,-11.36104 16.91345,-14.55633 3.38989,-3.19528 6.68089,-5.80961 7.31332,-5.80961 0.63243,0 4.69288,-3.375 9.02323,-7.5 4.33035,-4.125 8.2956,-7.5 8.81168,-7.5 0.51608,0 1.18806,-1.2375 1.49329,-2.75 0.30523,-1.5125 0.87904,-3.588093 1.27513,-4.61243 0.63107,-1.632017 0.35597,-1.78244 -2.22359,-1.215872 -2.35145,0.516465 -3.42203,0.137463 -5.32074,-1.883627 -1.30735,-1.391602 -2.08647,-2.820707 -1.73138,-3.175791 0.35508,-0.355083 1.52755,0.430643 2.60548,1.746057 1.6122,1.967394 2.28805,2.19225 3.80986,1.267548 1.17648,-0.714869 3.59246,-0.859673 6.63622,-0.397746 l 4.78623,0.726368 5.17891,-5.891184 c 4.07892,-4.639911 5.7099,-5.829817 7.67891,-5.602254 1.92031,0.221935 2.39759,0.752682 2.05833,2.288931 -0.24292,1.1 -0.59235,32.92215 -0.77651,70.7159 l -0.33482,68.7159 10.7765,0.32172 c 5.92707,0.17694 -144.9235,0.34164 -335.2235,0.366 -190.3,0.0243 -344.360977,-0.12935 -342.357726,-0.34157 z m 51.427273,-8.97275 c -1.039055,-12.80579 -1.998609,-14.37732 -14.736775,-24.1355 -1.472157,-1.12776 -2.110523,-0.43361 -5.455996,5.93284 -3.063943,5.8307 -5.232008,8.37579 -11.332773,13.30358 -4.149202,3.35145 -9.003421,7.58489 -10.787154,9.40765 -1.783734,1.82276 -2.963694,2.58586 -2.622134,1.69577 0.341559,-0.8901 5.004799,-5.16846 10.362754,-9.50749 9.000227,-7.28864 10.094623,-8.57239 14.37784,-16.86549 3.917543,-7.58508 4.484062,-9.37624 3.655147,-11.55645 -1.070173,-2.81477 -4.991024,-3.58462 -6.774289,-1.33011 -0.543797,0.6875 -2.421149,5.59291 -4.171894,10.9009 l -3.183172,9.6509 -7.340131,5.74951 c -5.593406,4.38131 -7.648472,6.68379 -8.635846,9.67557 -1.096884,3.32359 -1.075465,4.06542 0.139581,4.83427 0.789412,0.49952 11.734679,0.91512 24.322814,0.92354 L 64.275039,212 63.569547,203.3052 z M 76,211 c 0,-0.55 -1.035,-1 -2.3,-1 -3.893872,0 -4.7,-1.84074 -4.7,-10.73212 0,-10.54192 -1.163342,-13.18319 -9.326549,-21.17512 l -6.544557,-6.40723 -2.625613,1.72036 c -1.444088,0.94621 -2.485589,2.30161 -2.314447,3.01201 0.171141,0.7104 3.169377,3.66144 6.662746,6.55786 3.49337,2.89643 6.950282,6.69912 7.682028,8.45043 0.731746,1.75132 1.647919,7.09687 2.035939,11.87901 l 0.705492,8.6948 5.36248,0 C 73.586884,212 76,211.55 76,211 z m 58.96003,-1.07469 c -1.29641,-2.42237 0.24458,-17.04164 2.71392,-25.74675 1.22187,-4.30746 1.27836,-5.87947 0.29646,-8.25 C 137.30323,174.31785 136.44423,173 136.06152,173 c -1.18758,0 -3.91421,14.0516 -4.56004,23.5 -0.33834,4.95 -0.86467,10.4625 -1.16962,12.25 -0.52809,3.09554 -0.4049,3.25 2.59203,3.25 2.87436,0 3.05045,-0.17943 2.03614,-2.07469 z m 22.28267,-0.38517 c 1.68943,-2.32373 1.6399,-2.63721 -1.62034,-10.25426 -1.84967,-4.32149 -4.32744,-9.74763 -5.50616,-12.05811 -2.13828,-4.19137 -2.1476,-4.19637 -4.12966,-2.21431 -1.96259,1.96259 -2.56712,2.18483 -6.48654,2.3846 -1.76579,0.09 -2.15345,1.26946 -3.31037,10.07173 -1.87798,14.28838 -1.70474,14.53859 10.03893,14.49879 8.61398,-0.0292 9.39502,-0.20141 11.01414,-2.42844 z M 163,209.16538 c 0,-1.55905 -1.75782,-7.15481 -3.90627,-12.43503 -2.14846,-5.28023 -4.20562,-11.09215 -4.57148,-12.91538 -0.36587,-1.82323 -1.11302,-4.76256 -1.66035,-6.53184 -0.87138,-2.81683 -1.22694,-3.07211 -2.85912,-2.05279 -2.44971,1.52986 -2.10208,5.91429 0.93035,11.73398 1.2794,2.45537 3.85365,8.03299 5.72054,12.39472 3.06594,7.16311 3.24691,8.09334 1.87035,9.61442 C 156.32676,211.40141 156.61868,212 160,212 c 2.62777,0 3,-0.35171 3,-2.83462 z m 117.5,1.75844 c -2.2,-0.45981 -6.925,-1.21759 -10.5,-1.68396 l -6.5,-0.84795 7.5,-2.40254 7.5,-2.40254 -5,-0.83187 c -2.75,-0.45754 -8.6,-0.58117 -13,-0.27474 -8.19787,0.57092 -42.40624,6.88523 -46,8.49086 -1.21782,0.5441 12.07916,0.87306 34,0.84115 21.95468,-0.032 34.43941,-0.37858 32,-0.88841 z M 567,189.5 l 0,-22.5 -34.10841,0 -34.10841,0 0.69257,2.75 C 500.15004,172.4274 508,211.04003 508,211.67933 508,211.8557 521.275,212 537.5,212 l 29.5,0 0,-22.5 z m 109,0 0,-22.5 -34.10841,0 -34.10841,0 0.69257,2.75 C 609.15004,172.4274 617,211.04003 617,211.67933 617,211.8557 630.275,212 646.5,212 l 29.5,0 0,-22.5 z m -410.51797,7.52594 2.75402,-3.97407 -3.76055,-10.555 c -2.0683,-5.80526 -4.14642,-10.79348 -4.61803,-11.08496 -1.1697,-0.72291 -1.03912,-11.91191 0.20184,-17.29465 0.85097,-3.69114 0.737,-4.68486 -0.72227,-6.29733 -1.04808,-1.15812 -2.74108,-1.79712 -4.28486,-1.61726 -2.54572,0.29658 -2.55289,0.32545 -2.83356,11.40025 l -0.28137,11.10292 5.58159,11.87894 c 5.51306,11.73309 5.68258,12.5515 3.86628,18.66522 -0.90883,3.05916 1.24646,1.88913 4.09691,-2.22406 z M 143.34268,185.88973 c 3.2737,-1.4916 4.88015,-5.17345 3.65883,-8.38577 C 146.4779,176.12678 145.43311,175 144.67974,175 c -3.0596,0 -6.63755,7.0616 -5.31897,10.49776 0.68967,1.79725 0.8607,1.81408 3.98191,0.39197 z m -1.11548,-10.59534 c 1.4963,-1.35413 2.26276,-1.4695 3.7194,-0.55981 1.40319,0.8763 2.25016,0.84203 3.60096,-0.1457 1.46662,-1.07241 1.65778,-2.20734 1.12687,-6.69019 -0.9301,-7.85348 -6.54102,-20.89747 -9.46777,-22.01022 -3.6882,-1.40225 -4.65635,-1.09009 -6.54733,2.11109 -1.73432,2.93598 -1.7161,3.12384 0.8597,8.86349 2.32718,5.18564 2.50588,6.33074 1.54489,9.89957 -0.90892,3.37548 -0.79855,4.54185 0.6747,7.13019 2.06088,3.62073 2.04271,3.61506 4.48858,1.40158 z m -82.099176,-7.99374 c 4.745414,-2.2533 8.93696,-4.59678 9.314548,-5.20773 1.33777,-2.16456 -0.523259,-4.7822 -4.208234,-5.91912 -3.473141,-1.07157 -4.014116,-0.94135 -7.734338,1.86171 -2.2,1.65763 -6.426304,4.43173 -9.391786,6.16466 -4.960366,2.89868 -5.212866,3.21697 -3.155683,3.97797 1.229856,0.45496 2.463057,1.69507 2.740446,2.7558 0.355379,1.35898 0.99209,1.71226 2.155683,1.19612 0.908237,-0.40288 5.533951,-2.57611 10.279364,-4.82941 z m 33.653687,4.54448 c -0.211725,-0.63517 -2.161725,-1.68454 -4.333333,-2.33192 -5.484697,-1.63507 -10.344992,-4.26477 -14.378956,-7.77988 l -3.430578,-2.98933 -0.840905,2.27319 c -0.462497,1.25025 -0.718737,2.37736 -0.569422,2.5047 2.199231,1.8755 12.567647,6.73922 16.778448,7.8706 6.865051,1.84453 7.247219,1.87006 6.774746,0.45264 z M 676,122 c 0,-23.65 -0.36581,-43 -0.81291,-43 -0.4471,0 -2.02733,1.267585 -3.51163,2.816857 -2.10634,2.198545 -2.57471,3.460693 -2.13379,5.75 0.72182,3.747693 -4.58015,10.691343 -7.80939,10.227476 -1.55258,-0.223019 -2.09517,0.303109 -2.23944,2.171498 -0.10854,1.405649 -1.40108,3.340419 -3.00627,4.499999 -1.54872,1.11879 -6.06616,4.58687 -10.03875,7.70683 -3.97258,3.11996 -10.76099,7.89387 -15.08535,10.60868 C 613.06087,134.27101 603,141.10123 603,142.03635 c 0,1.14184 3.88817,19.81964 4.52014,21.71365 0.32278,0.96734 8.11248,1.25 34.44848,1.25 L 676,165 676,122 z M 75.75,155.75517 c 0.6875,-0.55003 1.25,-2.61129 1.25,-4.58056 l 0,-3.58051 -3.920519,3.82829 c -4.151385,4.05372 -4.519266,7.15021 -0.711056,5.98502 1.172366,-0.3587 2.694075,-1.10221 3.381575,-1.65224 z m -3.750101,-4.25507 c 4.371594,-4.30586 4.847409,-4.51069 11.034349,-4.75 3.556164,-0.13756 7.531493,0.13462 8.834065,0.60484 3.46267,1.24999 2.291849,-1.46163 -1.409105,-3.26349 -2.424167,-1.18023 -4.103559,-1.20515 -10.360917,-0.15373 -6.348502,1.06673 -8.189538,1.86338 -12.28305,5.31508 -6.0102,5.06788 -6.044682,5.33702 -0.84959,6.6312 0.256108,0.0638 2.52152,-1.90896 5.034248,-4.3839 z m 61.451991,-3.06702 c 1.2971,-1.97963 1.41691,-2.88624 0.52365,-3.96255 -1.20775,-1.45525 -11.03157,-5.45865 -24.15015,-9.84165 -4.22104,-1.41027 -10.710818,-4.17487 -14.421736,-6.14355 -6.910238,-3.66596 -10.660177,-4.15744 -11.172661,-1.46433 -0.367251,1.9299 7.518026,6.75934 18.769007,11.4953 4.675,1.96789 12.75524,5.58177 17.95608,8.03084 5.20085,2.44907 9.76159,4.45286 10.13499,4.45286 0.3734,0 1.43577,-1.15512 2.36082,-2.56692 z m 125.68562,-9.10869 c -1.09015,-2.65341 -2.27537,-7.73375 -2.63381,-11.28963 -0.35844,-3.55588 -0.89089,-6.85222 -1.1832,-7.3252 -0.29232,-0.47299 -1.59583,0.13992 -2.89668,1.36201 -1.89359,1.77893 -2.65335,1.98282 -3.81041,1.02255 -2.76885,-2.29794 -2.79723,2.51317 -0.0684,11.60012 1.4544,4.84317 2.78508,9.29644 2.95706,9.89616 0.17198,0.59972 1.61747,0.8989 3.2122,0.66485 1.94033,-0.28478 3.37691,0.15341 4.34263,1.32461 1.35831,1.64731 1.46133,1.62731 1.75292,-0.34045 0.17039,-1.14984 -0.58214,-4.2616 -1.67229,-6.91502 z m 337.94378,6.09773 c 1.73269,-1.66002 2.51177,-3.26227 2.18809,-4.5 -0.76538,-2.92682 -2.02421,-2.32302 -4.24906,2.03804 -3.05495,5.98821 -2.41614,6.75131 2.06097,2.46196 z M 141.96455,142.6459 c -0.49374,-1.18025 -3.20146,-7.74372 -6.01715,-14.58549 -2.8157,-6.84178 -7.35038,-16.88523 -10.07706,-22.31879 -4.81092,-9.586879 -7.00241,-11.577249 -7.68159,-6.976642 -0.28235,1.912562 14.09644,42.369892 15.89911,44.735022 0.4192,0.55 2.56493,1.06565 4.76829,1.1459 3.7299,0.13584 3.94421,-0.002 3.1084,-2 z m 476.29633,-12.48381 c 8.38151,-5.41086 16.19868,-10.34836 17.37147,-10.97222 2.75544,-1.46576 3.72252,-4.05736 2.19903,-5.89304 -1.8528,-2.23249 -7.76392,-0.67662 -11.83138,3.11414 -1.925,1.79405 -8.1125,6.98628 -13.75,11.53828 -6.4554,5.21241 -10.25,8.97502 -10.25,10.16356 0,1.03795 0.22989,1.88719 0.51088,1.88719 0.28098,0 7.36848,-4.42706 15.75,-9.83791 z m -366.08962,-8.81708 c 2.91524,-2.63825 2.16561,-4.31123 -2.92126,-6.5195 C 243.94169,112.52111 230,102.49084 230,100.97621 230,100.43929 229.325,100 228.5,100 c -2.11463,0 -1.86303,3.26877 0.48098,6.24869 1.08954,1.38513 4.35204,4.00248 7.25,5.81634 2.89796,1.81386 6.97323,5.01626 9.05615,7.11645 4.32939,4.36529 4.41982,4.39371 6.88413,2.16353 z m 404.65,-18.37157 c 1.62525,-1.36465 2.12862,-2.55601 1.67878,-3.973321 -0.64779,-2.04099 1.02088,-4.348713 12.24996,-16.941422 2.67014,-2.994396 4.25,-5.725127 4.25,-7.34598 0,-2.046748 0.56828,-2.66596 2.75,-2.996463 2.6803,-0.406031 2.68592,-0.420388 0.2219,-0.566422 -1.98859,-0.117857 -3.69585,1.277312 -8,6.53761 -8.80995,10.767014 -14.73808,16.575104 -16.07459,15.749091 -0.82114,-0.507489 -0.94496,-0.322642 -0.38777,0.578897 0.57973,0.938025 0.37272,1.153368 -0.7095,0.73808 -1.00166,-0.384374 -3.55566,1.478664 -7.41404,5.40825 -3.2373,3.29704 -7.54297,6.853 -9.56815,7.90214 -4.66472,2.41654 -5.96217,4.26141 -2.36134,3.35766 2.96017,-0.74296 6.96509,2.03737 6.11727,4.24678 -0.42321,1.10284 9.60952,-6.28168 17.24748,-12.6949 z M 651.2,101.8 c -1.3296,-1.3296 -1.62616,-5.418585 -0.44589,-6.148031 0.41476,-0.256336 0.75226,0.943352 0.75,2.665973 -0.005,3.719918 3.08051,4.970608 5.17979,2.099668 C 657.40776,99.427682 658,99.063749 658,99.60887 658,101.12531 655.78871,103 654,103 c -0.88,0 -2.14,-0.54 -2.8,-1.2 z m -399.36235,9.79273 C 252.26769,109.37468 249.2551,106 246.84501,106 c -2.88109,0 -2.54477,5.78429 0.40499,6.96528 2.90729,1.16398 4.16906,0.78648 4.58765,-1.37255 z M 665.37024,95.143382 c 1.4046,-1.55206 1.45669,-2.042128 0.31757,-2.987512 -1.05279,-0.873737 -1.85648,-0.605229 -3.53437,1.180804 C 660.02646,95.600737 660.1633,97 662.51168,97 c 0.64809,0 1.93444,-0.835478 2.85856,-1.856618 z M 274.23854,184.3339 c -3.12643,-1.25955 -3.15671,-4.03399 -0.17395,-15.93923 1.63906,-6.54207 3.87055,-17.00482 4.95887,-23.25056 1.4198,-8.14803 2.93499,-13.23273 5.36381,-18 4.83625,-9.49252 9.59769,-25.7489 9.60715,-32.80049 C 293.99934,90.678368 293.76367,90.24904 292,90.710251 288.60761,91.59738 289.79376,89.454217 293.5,88 295.425,87.244689 297,86.276357 297,85.84815 297,84.160683 303.31487,78 305.04458,78 c 2.821,0 3.37188,1.913566 1.24481,4.324028 C 304.3227,84.552733 301,89.59534 301,90.351317 c 0,0.231927 1.35,0.619822 3,0.861991 3.36923,0.494497 3.41769,0.435677 1.93061,-2.342972 C 304.89656,86.938201 306.1001,84 307.92559,84 308.69673,84 317,95.527094 317,96.597635 c 0,0.382445 -1.51692,2.991932 -3.37093,5.798855 -7.10968,10.76386 -8.74455,14.71601 -21.55354,52.10351 -7.68585,22.43386 -9.10042,25.58782 -12.77134,28.47536 -2.68244,2.11001 -2.99338,2.1934 -5.06565,1.35854 z m 4.46986,-1.84221 c 3.17189,-2.22167 4.80361,-5.9149 12.36713,-27.99169 9.14485,-26.69245 12.36927,-35.68549 13.55373,-37.80201 0.65432,-1.1692 0.64137,-3.2615 -0.0383,-6.19101 -1.21563,-5.23954 -3.19477,-5.94471 -8.84381,-3.15106 -3.24501,1.60477 -3.96642,2.61968 -5.33109,7.5 -0.86803,3.10424 -3.11625,8.63393 -4.99603,12.28819 -2.47991,4.8209 -3.96079,9.7603 -5.39656,18 -1.08832,6.24574 -3.33529,16.75589 -4.99326,23.35589 -1.65797,6.6 -3.01802,12.08036 -3.02234,12.17857 -0.0222,0.50558 3.23415,3.32143 3.84106,3.32143 0.38834,0 1.6751,-0.67874 2.85948,-1.50831 z M 275,178.81814 c 0,-0.53189 3.39388,-15.44849 7.69443,-33.81814 1.35199,-5.775 2.53633,-11.74576 2.63187,-13.26835 0.13589,-2.16572 0.39825,-2.46125 1.20526,-1.3576 0.88438,1.20947 1.44533,1.19395 3.93164,-0.10876 2.26879,-1.18874 3.30476,-1.26678 4.75912,-0.35852 1.02247,0.63854 2.40323,0.85472 3.06836,0.4804 0.90772,-0.51084 0.92698,-0.37412 0.0772,0.54823 -0.88607,0.96176 -1.55147,0.96691 -3.06179,0.0237 -1.55605,-0.97176 -2.55541,-0.88153 -5.16125,0.466 -3.94419,2.03962 -4.62146,3.51774 -7.13648,15.57491 C 278.59559,168.15525 275,182.44092 275,178.81814 z m 38.87889,-78.39131 C 315.0455,98.94373 316,97.288759 316,96.749118 c 0,-0.758701 -3.86249,-6.615267 -7.70475,-11.682451 -0.18072,-0.238334 -0.80638,0.04447 -1.39036,0.628443 -0.74904,0.749036 -0.28274,2.599128 1.5831,6.281186 2.4165,4.768745 2.50962,5.368862 1.07844,6.950298 C 308.70489,99.878582 308,101.35445 308,102.2063 c 0,0.85184 -0.675,2.10901 -1.5,2.7937 -1.58945,1.31913 -1.91376,3.75819 -0.86358,6.49491 0.47935,1.24916 1.31328,0.42075 3.37889,-3.35652 1.50837,-2.75826 3.69698,-6.22846 4.86358,-7.71156 z m -17.46068,5.96618 C 297.34255,106.03831 298,104.61529 298,102.9693 298,95.714422 302.46508,83.684701 305.95948,81.525043 307.62608,80.495028 307.1612,79 305.17431,79 c -4.12673,0 -9.7153,9.311288 -10.50339,17.5 -0.31759,3.3 -0.87596,7.0125 -1.24081,8.25 -0.68139,2.31111 0.11127,2.74696 2.9881,1.64301 z m 10.73031,-4.8334 C 308.06871,98.092281 306.72483,96 303.57756,96 300.66498,96 299,97.830764 299,101.03333 c 0,3.43717 0.80263,4.12409 4.39814,3.76406 2.33238,-0.23354 3.13757,-0.92868 3.75038,-3.23778 z M 228.73808,172.25 c -6.82654,-6.4625 -16.07877,-14.07599 -20.56053,-16.91886 -6.8466,-4.34294 -9.14961,-5.2682 -14.41309,-5.79056 -3.44546,-0.34193 -8.24103,-0.26176 -10.65683,0.17816 -4.10981,0.74841 -4.48308,1.08875 -5.80242,5.29056 -0.77553,2.46989 -1.95658,8.086 -2.62454,12.48026 -0.93946,6.18029 -1.6063,8.06502 -2.94467,8.32276 -4.0906,0.78778 -3.82137,-7.68671 0.83339,-26.23277 0.52179,-2.07897 0.28679,-2.58028 -1.21098,-2.58329 -1.02213,-0.002 -3.32091,-0.89544 -5.10841,-1.9853 -2.81213,-1.71459 -3.25,-2.53145 -3.25,-6.06298 0,-2.81281 0.77707,-5.10021 2.5,-7.35909 1.375,-1.80272 2.5,-3.74296 2.5,-4.31164 0,-1.00581 8.05399,-3.55659 8.81787,-2.79272 0.92266,0.92267 -1.13806,2.51547 -3.25444,2.51547 -1.2752,0 -2.82012,0.60437 -3.43317,1.34305 -0.86353,1.04048 -0.57453,1.58913 1.28287,2.43542 1.31863,0.6008 3.18845,2.43133 4.15516,4.06785 2.07642,3.51509 5.9534,4.40715 19.93171,4.58611 6.23991,0.0799 9.92003,0.61485 12,1.7444 4.29514,2.3325 33.55475,33.04811 35.19292,36.94416 1.39674,3.32186 1.14161,5.87901 -0.58655,5.87901 -0.52602,0 -6.54175,-5.2875 -13.36829,-11.75 z M 243,182.11481 c 0,-3.23989 -4.4078,-8.93811 -17.53368,-22.66681 -8.22239,-8.60001 -15.78185,-16.08168 -16.79879,-16.62593 -1.26481,-0.67691 -2.76815,-0.60882 -4.75826,0.21551 -2.25076,0.93229 -2.90927,1.8507 -2.90927,4.05746 0,2.47512 1.01705,3.48417 7.68915,7.62868 4.23663,2.63168 13.25053,10.05216 20.07498,16.52628 C 240.38512,182.27442 243,184.27009 243,182.11481 z M 173.43396,168.75 c 0.88213,-7.96381 4.32495,-19.54226 6.73704,-22.65713 1.11589,-1.441 1.63716,-3.24712 1.29877,-4.5 -0.52625,-1.94841 -0.4854,-1.96472 0.59178,-0.23635 0.93293,1.49691 0.77251,2.37665 -0.82816,4.54167 l -1.98521,2.68514 10.37591,0 c 10.10677,0 10.37591,-0.0586 10.37591,-2.25973 0,-1.43682 1.00145,-2.80302 2.75,-3.75163 3.30323,-1.79203 3.14654,-1.83158 -8.25,-2.08257 -4.95,-0.10902 -10.88707,-0.50667 -13.19348,-0.88367 -3.59322,-0.58735 -4.34935,-0.39422 -5.28239,1.34918 -1.76572,3.29927 -6.99311,29.44769 -6.36621,31.84497 1.14664,4.38476 3.07029,2.3216 3.77604,-4.04988 z m 0.64415,-25.45545 c 0.88174,-2.31913 0.69971,-2.95852 -1.27475,-4.47776 -3.33815,-2.56853 -5.54284,-2.22126 -7.28489,1.14749 -1.48882,2.87906 -1.45362,3.00729 1.22432,4.45997 4.12073,2.23533 6.1763,1.91875 7.33532,-1.1297 z m 322.49906,-3.16969 c -1.41102,-2.28307 2.87863,-10.10431 9.55438,-17.42031 l 7.11323,-7.79546 0.51735,-10.91498 c 0.36296,-7.65776 0.99788,-11.63843 2.12761,-13.339288 5.12275,-7.712515 10.75892,-14.026386 15.49893,-17.362559 4.38185,-3.084088 5.48384,-4.44586 5.90114,-7.292263 0.28222,-1.925 0.86059,-4.365624 1.28527,-5.423609 0.6515,-1.623072 0.4716,-1.79451 -1.15147,-1.097303 -2.85073,1.224558 -6.67414,1.177575 -7.1121,-0.0874 -0.39482,-1.140385 1.75821,-1.389318 11.68849,-1.351426 4.32675,0.01651 5.87331,0.464725 7.25,2.101144 2.51272,2.986767 2.2107,7.488798 -0.69747,10.396971 -2.40276,2.402759 -2.41092,2.467037 -0.44663,3.518291 1.60323,0.858028 2.93414,0.533777 6.69747,-1.631716 2.58315,-1.486394 5.45577,-3.359162 6.38362,-4.161707 0.92784,-0.802545 2.16369,-1.164552 2.74633,-0.804461 2.08957,1.291425 -1.88329,6.366013 -7.79579,9.957664 -5.76617,3.502765 -5.97623,3.548891 -9.48503,2.082821 -4.47426,-1.869466 -4.31904,-1.88243 -4.91873,0.410806 -0.27473,1.050544 -3.33869,4.088044 -6.8088,6.75 -9.87212,7.572987 -9.48945,6.906479 -10.83606,18.873715 -0.67105,5.96354 -1.59994,11.54556 -2.06421,12.40449 -0.46427,0.85894 -3.76569,3.97258 -7.33649,6.9192 -3.57079,2.94662 -8.58735,7.78411 -11.14791,10.75 -4.62207,5.35371 -5.92416,6.19846 -6.96313,4.51737 z m 8.40746,-6.95605 c 3.58345,-3.75715 8.69887,-8.64237 11.36758,-10.85604 5.2474,-4.35267 5.68499,-5.55243 7.10939,-19.4925 0.65697,-6.429529 0.58524,-6.743474 -1.91515,-8.381795 -2.41839,-1.58459 -2.72393,-1.587834 -4.42654,-0.04699 -1.43265,1.29653 -1.95134,3.708295 -2.39429,11.132805 l -0.56545,9.47772 -6.68888,7.249 c -6.2233,6.74442 -8.17796,9.79872 -9.91889,15.49899 -1.11985,3.66668 0.5436,2.64134 7.43223,-4.58119 z m 16.44836,-39.804675 c 2.3524,1.541353 2.60752,1.508546 4.80752,-0.618201 1.2778,-1.235264 5.12143,-4.382965 8.54139,-6.994891 3.41995,-2.611926 6.2181,-5.199426 6.2181,-5.75 0,-1.348787 -1.33667,-1.264376 -2.77637,0.175328 C 536.58297,81.817027 533,78.468211 533,75.294121 l 0,-2.395904 -3.48112,2.655178 c -3.14522,2.398975 -8.05108,8.294595 -12.76362,15.338659 -2.33334,3.487777 -2.2208,4.839229 0.21912,2.631135 1.83825,-1.6636 2.14564,-1.674566 4.45861,-0.159054 z m 18.13719,-15.002077 c 2.30766,-1.512034 2.81635,-1.513604 6.61763,-0.02042 l 4.1178,1.617521 5.67087,-3.444868 c 3.11897,-1.894677 6.19056,-4.585487 6.82575,-5.979578 1.075,-2.359361 0.0259,-3.683665 -1.26434,-1.596013 -0.31909,0.516285 -3.00883,2.328249 -5.97722,4.026588 l -5.39706,3.087888 -4.16265,-2.169695 c -2.28946,-1.193332 -5.81377,-2.217796 -7.83181,-2.276587 -3.30938,-0.09641 -3.70075,0.168679 -3.99141,2.703579 C 533.90179,76.717137 535.33268,80 536.65763,80 c 0.227,0 1.53765,-0.737074 2.91255,-1.637942 z M 548,70 c 2.50515,-2.50515 2.52032,-3.651163 0.0657,-4.964816 -3.20591,-1.715751 -4.75785,-1.192714 -6.104,2.057175 -1.06944,2.581858 -1.04819,3.239669 0.12868,3.984687 C 544.2728,72.458593 545.82415,72.175853 548,70 z m -219.75908,52.37756 c -5.90751,-4.67473 -10.88094,-9.11866 -11.05209,-9.8754 -0.54101,-2.39222 4.43089,-4.82556 8.50796,-4.16394 3.6677,0.59519 12.42775,7.85355 12.00092,9.94366 -0.10874,0.53247 0.28979,1.14937 0.88562,1.3709 0.59584,0.22153 1.10058,-0.17222 1.12166,-0.875 0.14236,-4.7473 4.47829,-17.22139 7.16534,-20.614054 2.85142,-3.600217 3.98757,-4.150349 14.60522,-7.071988 7.88263,-2.169045 12.06689,-2.883167 13.26886,-2.264575 1.21286,0.624192 2.63802,0.357922 4.60999,-0.861304 2.61606,-1.617449 2.69045,-1.81685 0.89088,-2.388011 -1.07994,-0.342759 -2.70192,-0.339849 -3.6044,0.0065 C 375.53921,86.007062 375,85.6859 375,84.606989 375,83.533071 375.88388,83 377.66455,83 c 4.02271,0 11.31812,7.529223 11.32793,11.690983 0.004,1.755041 -0.47179,3.487215 -1.05762,3.849277 -0.7065,0.43664 -0.53912,1.239543 0.49709,2.38455 2.00964,2.22063 3.29385,13.50859 1.65226,14.52314 -2.1136,1.30628 -3.94577,-1.49175 -4.64585,-7.095 -0.66619,-5.33199 -0.77147,-5.48616 -3.31116,-4.84874 -1.44271,0.3621 -2.7348,0.77005 -2.87132,0.90657 -0.26638,0.26639 5.0358,9.95947 7.00809,12.8117 0.90376,1.30696 0.91118,2.00237 0.0308,2.88278 -1.68148,1.68148 -4.00627,0.4362 -6.20114,-3.32168 -5.4638,-9.35464 -6.90225,-11.14038 -10.42883,-12.94674 -3.73946,-1.9154 -3.94582,-1.91916 -8.26439,-0.15064 -3.88554,1.59118 -4.67128,2.45852 -6.40177,7.06655 -2.92222,7.78146 -7.52561,16.53176 -9.63927,18.32271 -3.57329,3.02773 -6.05523,2.05663 -17.11842,-6.6979 z m 16.57376,6.23697 c 2.38188,-1.47208 12.10124,-23.03194 10.9169,-24.21628 -0.25506,-0.25506 -2.61145,4.72271 -5.23643,11.06172 -2.62497,6.33901 -5.49774,12.09125 -6.38392,12.78275 -1.37133,1.07008 -1.43765,1.03379 -0.44538,-0.24379 0.64122,-0.82558 3.44532,-6.87988 6.23135,-13.45398 4.72295,-11.14462 4.96377,-12.10819 3.5611,-14.24894 -3.68475,-5.623641 -8.00397,-1.389317 -10.90296,10.68867 -1.24315,5.17933 -2.66417,9.54171 -3.15781,9.69418 -0.49364,0.15246 -2.94696,-1.62541 -5.45183,-3.95083 -2.50486,-2.32541 -3.62986,-3.53168 -2.5,-2.68058 5.32735,4.01297 5.76174,4.04674 2.11001,0.16404 -2.52301,-2.68258 -5.16305,-4.4224 -7.32653,-4.82827 -3.73905,-0.70145 -8.25136,0.86633 -8.18933,2.84534 0.0219,0.69929 4.74315,4.95364 10.49162,9.45411 10.21848,8.00004 12.7862,9.09313 16.28321,6.93186 z M 386,118.55902 c 0,-0.79254 -0.45856,-1.72439 -1.01902,-2.07077 -0.56045,-0.34638 -2.0882,-2.73974 -3.39499,-5.31856 -3.36895,-6.64831 -5.79089,-9.34726 -7.43981,-8.29075 -1.07141,0.68647 -0.6542,1.91021 2,5.86628 1.8446,2.74938 4.12039,6.40645 5.05731,8.12682 1.74341,3.20125 4.79651,4.27506 4.79651,1.68698 z m 3.98899,-6.30902 c -0.0328,-8.19661 -1.05232,-10.21497 -7.99212,-15.822062 -6.9746,-5.635225 -8.965,-6.376196 -10.89168,-4.054686 -1.74452,2.102023 -0.288,4.431699 3.22835,5.163682 1.74155,0.362531 5.01883,1.723759 7.28283,3.024946 3.77638,2.1704 4.17367,2.79768 4.80999,7.59451 0.38149,2.87579 0.91818,5.59206 1.19264,6.03616 1.07514,1.7396 2.38045,0.66971 2.36999,-1.94255 z m -27.68341,-9.85868 c 3.03317,-1.44642 3.66885,-1.4559 6.30234,-0.0941 2.25458,1.16589 3.2784,1.24847 4.44689,0.35867 C 374.86071,101.28076 374.44289,98 372.46186,98 c -0.76532,0 -1.91791,-0.983619 -2.56131,-2.18582 -1.01301,-1.892839 -0.8092,-2.496005 1.52058,-4.5 C 372.90085,90.041381 373.8097,89 373.4408,89 372.32879,89 353.68692,94.171521 351,95.225401 l -2.5,0.980565 2.28557,0.87795 c 1.25706,0.482872 3.05706,2.233685 4,3.890694 1.97007,3.46197 2.87396,3.63226 7.52001,1.41671 z M 382,102.12132 c 0,-1.13591 -5.87266,-3.581989 -6.67457,-2.780088 -0.33574,0.33574 -0.0412,1.296308 0.65451,2.134598 1.34592,1.62174 6.02006,2.12291 6.02006,0.64549 z m 41.56681,12.5364 c -1.98323,-1.98323 -2.35864,-3.41654 -2.44896,-9.35008 -0.13773,-9.048311 1.4605,-10.873031 8.76564,-10.007845 4.45515,0.527646 4.96903,0.377366 5.50168,-1.608893 1.18238,-4.40915 0.49736,-5.993292 -5.51879,-12.762541 -5.23705,-5.892621 -5.9445,-7.129305 -4.83979,-8.460401 0.71161,-0.857438 1.86379,-1.340266 2.5604,-1.072952 1.65242,0.634092 2.72678,-9.045387 2.25861,-20.34892 -0.41643,-10.054176 0.76446,-11.137797 4.73205,-4.342312 2.46129,4.215563 2.86824,6.127416 3.36133,15.791784 L 438.5,73.491119 446,74.786557 c 8.25856,1.426461 12,4.180728 12,8.833825 0,6.399399 -7.5296,18.500088 -12.43899,19.990498 -1.13356,0.34412 -2.83175,1.30203 -3.77376,2.12868 -0.94202,0.82665 -2.40344,1.23796 -3.2476,0.91403 -0.84416,-0.32394 -3.11769,0.34493 -5.05229,1.48637 -2.35822,1.39138 -4.67764,1.93989 -7.03785,1.66435 -2.77573,-0.32405 -3.45879,-0.0824 -3.22912,1.14235 0.16021,0.85434 1.30116,1.99755 2.53545,2.54047 2.26882,0.99797 3.12698,3.51287 1.19871,3.51287 -0.575,0 -2.09949,-1.05403 -3.38774,-2.34228 z m 18.42241,-10.14473 c 0.67876,-0.81786 0.96577,-2.55621 0.63778,-3.86299 -0.32798,-1.30679 -1.01444,-5.328351 -1.52546,-8.936805 -0.89999,-6.355114 -1.14067,-6.768252 -7.67608,-13.176258 -4.54446,-4.455863 -7.07682,-6.285579 -7.75741,-5.604991 -0.68059,0.680589 1.02442,3.300022 5.22297,8.024137 l 6.2334,7.013695 -0.94983,7.765111 c -0.81229,6.640641 -0.72121,7.946121 0.62892,9.015111 2.08541,1.65116 3.67912,1.57831 5.18571,-0.23701 z m -7.59621,-2.09478 c 1.43294,-3.734179 0.65584,-5.318419 -2.93964,-5.992935 -1.95064,-0.365944 -3.80469,-0.407291 -4.12009,-0.09188 -1.20645,1.206441 0.82726,5.793705 2.94664,6.646515 3.12625,1.25794 3.43079,1.21635 4.11309,-0.5617 z M 449.38641,99.75 C 452.92428,96.32493 457,87.76287 457,83.755748 457,81.033544 454.92491,77.801167 452.88833,77.351002 452.12475,77.18222 449.25,76.59057 446.5,76.036226 435.97491,73.914583 437,75.231589 437,63.830861 c 0,-9.031495 -0.294,-10.711671 -2.70891,-15.480948 -1.4899,-2.942452 -2.9524,-5.349892 -3.25,-5.349867 -0.2976,2.6e-5 -0.54109,7.255935 -0.54109,16.124243 l 0,16.124197 4.97262,4.375757 C 439.04376,82.76674 441.31256,84 443.52262,84 c 1.69256,0 3.56548,0.488099 4.16204,1.084665 0.59657,0.596566 2.14907,0.93397 3.45,0.749788 2.06716,-0.292661 2.34684,-0.839105 2.21862,-4.334665 L 453.20656,77.5 l 1.03568,3.230106 c 0.77269,2.409912 0.71537,3.616041 -0.22573,4.75 -1.45319,1.750985 -5.58273,2.03079 -6.56299,0.444689 C 446.55168,84.465585 442,88.805917 442,91.125093 442,94.627066 444.18407,103 445.09755,103 c 0.5125,0 2.44249,-1.4625 4.28886,-3.25 z m -5.80895,-14.588397 c -2.13533,-0.416719 -3.00352,0.340006 -2.08857,1.820424 0.49468,0.8004 1.1313,0.748624 2.25586,-0.183469 1.41152,-1.169933 1.39495,-1.332077 -0.16729,-1.636955 z M 292,57.877555 C 292,53.437654 291.80013,52.920987 290.5,54 289.27949,55.012933 289,54.964014 289,53.737455 289,52.428002 292.95432,49 294.46482,49 294.75917,49 295,52.15 295,56 c 0,5.555556 -0.30952,7 -1.5,7 -1.13811,0 -1.5,-1.235827 -1.5,-5.122445 z m 7.93261,3.541244 c -1.03322,-1.244954 -1.05746,-1.98924 -0.11397,-3.5 0.93108,-1.490896 0.93108,-2.346702 0,-3.837598 -0.94349,-1.51076 -0.91925,-2.255046 0.11397,-3.5 3.03439,-3.656218 9.7061,-0.434839 7.24875,3.5 -0.93108,1.490896 -0.93108,2.346702 0,3.837598 C 308.70748,60.362509 306.79661,63 303.5,63 c -1.24031,0 -2.84564,-0.711541 -3.56739,-1.581201 z M 304.80963,59.25 c -0.40593,-2.107843 -2.18068,-1.974934 -2.63295,0.197179 C 301.98803,60.353163 302.53927,61 303.5,61 c 1.02996,0 1.52043,-0.655397 1.30963,-1.75 z M 305,52.440983 C 305,51.648442 304.325,51 303.5,51 c -1.50623,0 -2.05568,2.110991 -0.86052,3.306147 C 303.57272,55.239389 305,54.111627 305,52.440983 z m 6.57143,8.987588 C 308.25045,58.107589 310.39649,49 314.5,49 c 2.5132,0 4.5,3.090577 4.5,7 0,3.909423 -1.9868,7 -4.5,7 -0.74643,0 -2.06429,-0.707143 -2.92857,-1.571429 z m 4.24679,-6.046792 C 315.6432,53.2468 315.05,51.5 314.5,51.5 c -1.16819,0 -1.91781,5.96881 -1.03768,8.262414 1.06994,2.788219 2.69576,-0.234884 2.3559,-4.380635 z m 5.57032,-1.811642 c -0.99567,-2.594671 0.39988,-4.739185 2.85699,-4.390274 C 325.89826,49.414553 326.5,50.167272 326.5,52 c 0,1.832728 -0.60174,2.585447 -2.25447,2.820137 -1.35228,0.192025 -2.49559,-0.308199 -2.85699,-1.25 z M 325,52 c 0,-0.55 -0.45,-1 -1,-1 -0.55,0 -1,0.45 -1,1 0,0.55 0.45,1 1,1 0.55,0 1,-0.45 1,-1 z"
       id="path2989"
       style="fill:#000000" />
  </g>
</svg>
