<?xml version="1.0" encoding="UTF-8" standalone="no"?>
<!-- Created with Inkscape (http://www.inkscape.org/) -->

<svg
   xmlns:dc="http://purl.org/dc/elements/1.1/"
   xmlns:cc="http://creativecommons.org/ns#"
   xmlns:rdf="http://www.w3.org/1999/02/22-rdf-syntax-ns#"
   xmlns:svg="http://www.w3.org/2000/svg"
   xmlns="http://www.w3.org/2000/svg"
   xmlns:sodipodi="http://sodipodi.sourceforge.net/DTD/sodipodi-0.dtd"
   xmlns:inkscape="http://www.inkscape.org/namespaces/inkscape"
   version="1.1"
   width="537"
   height="298"
   id="svg2"
   inkscape:version="0.91 r13725"
   sodipodi:docname="ub220302.svg">
  <sodipodi:namedview
     pagecolor="#b6b6b6"
     bordercolor="#666666"
     borderopacity="1"
     objecttolerance="10"
     gridtolerance="10"
     guidetolerance="10"
     inkscape:pageopacity="0"
     inkscape:pageshadow="2"
     inkscape:window-width="1489"
     inkscape:window-height="979"
     id="namedview11"
     showgrid="false"
     inkscape:zoom="0.68999505"
     inkscape:cx="147.20089"
     inkscape:cy="56.976891"
     inkscape:window-x="0"
     inkscape:window-y="0"
     inkscape:window-maximized="0"
     inkscape:current-layer="svg2"
     showguides="true"
     inkscape:guide-bbox="true" />
  <metadata
     id="metadata8">
    <rdf:RDF>
      <cc:Work
         rdf:about="">
        <dc:format>image/svg+xml</dc:format>
        <dc:type
           rdf:resource="http://purl.org/dc/dcmitype/StillImage" />
        <dc:title></dc:title>
      </cc:Work>
    </rdf:RDF>
  </metadata>
  <defs
     id="defs6" />
  <g
     id="g6439"
     transform="translate(6.3728113,-15.32353)">
    <path
       id="path4197"
       d="m 114.58605,222.36366 c -0.90692,-2.36342 1.22863,-6.41512 5.14945,-9.76984 3.33238,-2.85125 3.43103,-2.87015 5.21878,-1 1.77369,1.85544 1.66834,2.04601 -3.95788,7.15925 -4.69106,4.26334 -5.89882,4.94361 -6.41035,3.61059 z"
       style="fill:#fefefe"
       inkscape:connector-curvature="0" />
    <path
       id="path4195"
       d="m 126.66619,210.18363 c -1.55368,-1.71679 -1.02767,-2.42179 9.59501,-12.86015 12.72162,-12.50087 14.7661,-13.91442 17.78686,-12.29776 2.28934,1.22522 1.93748,4.05496 -0.91634,7.36933 C 151.16315,194.68131 129.76922,212 128.91355,212 c -0.33197,0 -1.34328,-0.81736 -2.24736,-1.81637 z"
       style="fill:#fefefe"
       inkscape:connector-curvature="0" />
    <path
       id="path4193"
       d="m 164.75,167.9199 c -2.4564,-1.43072 -2.17667,-3.59423 0.70919,-5.48512 1.35255,-0.88622 6.13147,-7.89268 10.61981,-15.56991 4.48834,-7.67722 8.39233,-13.72688 8.67553,-13.44368 0.97832,0.97833 -14.0701,33.20863 -16.25453,34.8135 -1.28557,0.94449 -1.63886,0.91484 -3.75,-0.31479 z"
       style="fill:#fefefe"
       inkscape:connector-curvature="0" />
    <path
       id="path4191"
       d="m 172,164.52417 c 0,-0.26171 0.89832,-1.94921 1.99626,-3.75 1.95119,-3.20024 1.99635,-3.2166 2,-0.72417 0.002,1.4025 -0.53626,3.09 -1.19626,3.75 -1.20302,1.20302 -2.8,1.61605 -2.8,0.72417 z"
       style="fill:#fefefe"
       inkscape:connector-curvature="0" />
    <path
       id="path4189"
       d="m 244.1782,160.49942 c -2.70483,-3.43864 -2.71454,-4.14201 -0.0767,-5.55376 1.5814,-0.84634 7.08847,-0.71327 22.25,0.53764 11.76502,0.97067 22.95702,1.38178 26.89846,0.98803 3.84393,-0.384 6.75,-0.28588 6.75,0.22791 0,0.49623 -1.95346,1.85129 -4.34102,3.01126 -3.84929,1.87013 -6.88752,2.1911 -26.8218,2.83354 l -22.48078,0.72451 -2.1782,-2.76913 z"
       style="fill:#fefefe"
       inkscape:connector-curvature="0" />
    <path
       id="path4187"
       d="m 215.5,154.83574 c -1.1,-0.60689 -3.21875,-2.23443 -4.70833,-3.61676 C 207.2307,147.91442 196.23245,140.33473 192.75,138.78517 189.96661,137.54667 189.06303,136 191.12287,136 c 0.61757,0 5.90507,2.41378 11.75,5.36395 5.84492,2.95017 12.29313,5.90297 14.32935,6.56178 4.4144,1.42826 5.99303,4.72712 3.2292,6.74807 -2.15724,1.57742 -2.35413,1.58389 -4.93142,0.16194 z"
       style="fill:#fefefe"
       inkscape:connector-curvature="0" />
    <path
       id="path4185"
       d="m 206.0279,151.53362 c -1.97732,-2.38253 -0.78809,-3.75438 1.7273,-1.99253 1.23464,0.86478 2.2448,1.9968 2.2448,2.51561 0,1.45843 -2.6132,1.1143 -3.9721,-0.52308 z"
       style="fill:#fefefe"
       inkscape:connector-curvature="0" />
    <path
       id="path4183"
       d="m 286.8078,136.7691 c -0.45576,-2.37908 0.32811,-3.47761 6.08452,-8.52709 3.63423,-3.18791 7.85781,-6.34261 9.38574,-7.01045 1.52794,-0.66784 3.04497,-1.90979 3.37119,-2.75989 C 306.24245,116.9258 310.999,114 312.91896,114 c 2.3932,0 -0.73758,3.25811 -12.40272,12.90713 -6.82322,5.64394 -12.58122,10.78622 -12.79557,11.42729 -0.21434,0.64107 -0.62513,-0.0633 -0.91287,-1.56532 z"
       style="fill:#fefefe"
       inkscape:connector-curvature="0" />
    <path
       sodipodi:nodetypes="sssssss"
       inkscape:connector-curvature="0"
       id="path4173"
       d="m 171.5,119.53911 c -6.05,-5.3591 -11.64231,-10.35614 -12.42735,-11.10453 -1.15271,-1.09889 -1.19895,-1.86197 -0.24032,-3.96592 1.67461,-3.67537 5.16567,-2.97446 7.39083,1.48386 0.94774,1.89889 5.14275,7.18892 9.32224,11.75562 4.35872,4.76253 10.63247,12.09363 10.44763,13.03193 -0.23215,1.17849 -6.56843,-4.18133 -14.49303,-11.20096 z"
       style="fill:#fefefe" />
    <path
       id="path4171"
       d="m 276,125.06739 c 0,-0.51294 0.92217,-1.2253 2.04927,-1.58303 1.26062,-0.4001 3.45354,-3.4884 5.69824,-8.02485 l 3.64897,-7.37444 7.30379,-2.97474 7.3038,-2.97473 -0.64029,2.6822 c -0.90138,3.77588 -1.23051,4.17057 -2.93305,3.51724 -0.82787,-0.31768 -2.27596,0.0836 -3.21798,0.89168 -0.94201,0.8081 -2.51424,1.75393 -3.49384,2.10183 -0.9796,0.3479 -3.4546,3.33223 -5.5,6.63184 -2.47232,3.98831 -4.69074,6.34126 -6.61813,7.01945 -3.53977,1.24555 -3.60078,1.24703 -3.60078,0.0876 z"
       style="fill:#fefefe"
       inkscape:connector-curvature="0" />
    <path
       id="path4165"
       d="M 169.2357,109.73899 C 167.66848,107.77943 166.75647,104 167.85082,104 c 2.49734,0 4.14918,1.41249 4.14918,3.54797 0,2.79991 -1.39379,3.90464 -2.7643,2.19102 z"
       style="fill:#fefefe"
       inkscape:connector-curvature="0" />
    <path
       id="path4161"
       d="m 325.7357,98.402364 c -1.47361,-1.473604 -0.67576,-5.537065 1.88307,-9.590508 l 2.61877,-4.148401 1.85899,2.418272 c 1.02245,1.33005 1.85558,2.643273 1.85139,2.918273 -0.0201,1.320243 -7.56981,9.044775 -8.21222,8.402364 z"
       style="fill:#fefefe"
       inkscape:connector-curvature="0" />
    <path
       id="path4159"
       d="m 317.22581,92.160722 c -0.95768,-0.607787 -0.34569,-2.218549 2.46378,-6.484687 C 321.74548,82.554216 323.93662,80 324.55879,80 c 0.62218,0 1.94642,0.900774 2.94277,2.00172 1.74987,1.933589 1.74664,2.124324 -0.095,5.60387 -2.40648,4.546722 -6.97391,6.590312 -10.18073,4.555132 z"
       style="fill:#fefefe"
       inkscape:connector-curvature="0" />
    <path
       id="path4157"
       d="m 136.89156,85.285539 c -3.02546,-2.632046 -7.05125,-5.97138 -8.9462,-7.420742 -3.41974,-2.615611 -3.4312,-2.650925 -1.54037,-4.75 C 127.45273,71.951659 128.65459,71 129.0758,71 c 1.52174,0 16.25206,9.541297 17.28683,11.197231 1.34257,2.148514 -0.26937,7.161127 -2.43709,7.578593 -0.84323,0.16239 -4.00851,-1.858238 -7.03398,-4.490285 z"
       style="fill:#fefefe"
       inkscape:connector-curvature="0" />
    <path
       id="path4155"
       d="M 330.25,83.048904 C 327.9125,80.437723 326,77.97784 326,77.582498 326,75.965983 349.3865,45 350.60734,45 c 0.72726,0 1.78813,0.870416 2.35748,1.934259 C 354.23344,49.304708 354.32257,53 353.11111,53 c -0.48889,0 -0.82639,0.5625 -0.75,1.25 0.15395,1.385502 -16.56526,33.77751 -17.36111,33.635639 -0.275,-0.04902 -2.4125,-2.225553 -4.75,-4.836735 z"
       style="fill:#fefefe"
       inkscape:connector-curvature="0" />
    <path
       id="path4153"
       d="m 348.03342,55.937556 c 0.53459,-0.998898 0.59577,-2.048694 0.13595,-2.332879 -0.45982,-0.284185 -0.83604,0.07799 -0.83604,0.804841 0,0.726847 -3.675,7.173143 -8.16666,14.325103 C 334.675,75.886581 331,82.111076 331,82.566831 c 0,0.739637 14.60967,-22.100458 17.03342,-26.629275 z"
       style="fill:#fefefe"
       inkscape:connector-curvature="0" />
    <path
       id="path4145"
       d="M 117,69.34269 C 113.975,66.856236 108.4625,62.839896 104.75,60.417489 98.293789,56.20481 96.438817,54 99.350777,54 c 3.185353,0 8.778303,2.723575 17.979683,8.755489 l 9.83047,6.444307 -2.25478,2.400102 c -1.24013,1.320056 -2.28884,2.369393 -2.33046,2.331859 C 122.53406,73.894224 120.025,71.829144 117,69.34269 Z"
       style="fill:#fefefe"
       inkscape:connector-curvature="0" />
    <path
       d="m 171.34157,233.52053 c -20.3486,-3.69245 -38.18446,-13.25363 -52.15011,-27.95583 -8.59222,-9.04537 -12.3487,-14.48945 -17.32454,-25.10761 -6.595764,-14.075 -8.192651,-21.66839 -8.192651,-38.95709 0,-17.2887 1.596887,-24.88209 8.192651,-38.95709 4.97584,-10.618158 8.73232,-16.06224 17.32454,-25.107613 7.24279,-7.624781 21.8098,-18.476607 21.80675,-16.245145 -9.8e-4,0.720416 -2.13848,2.653677 -4.75,4.296136 -7.20357,4.530535 -20.44234,17.70921 -25.77621,25.659214 -5.41764,8.074859 -10.33354,19.138258 -13.043349,29.354498 -2.603567,9.8157 -2.603567,32.1843 0,42 7.314849,27.57771 25.209809,49.2915 50.642969,61.45034 14.07046,6.72666 21.95374,8.38146 39.92838,8.38146 18.20103,0 25.97048,-1.66813 40.5,-8.69548 7.74836,-3.74757 21.5,-12.87252 21.5,-14.2664 0,-0.2533 -1.575,-0.16507 -3.5,0.19606 -5.46629,1.02548 -4.07709,-0.78416 3.04412,-3.96542 6.9253,-3.09374 8.45072,-2.9454 6.69373,0.65095 -0.60418,1.23667 -1.61476,3.93599 -2.24573,5.99849 -1.25886,4.11491 -2.6741,4.88415 -3.17257,1.72441 -0.2881,-1.82625 -0.90999,-1.58176 -6.31955,2.48452 -20.07993,15.09377 -48.05236,21.61735 -73.15843,17.0616 z M 340,113.24055 c 0,-0.4177 0.9,-1.32152 2,-2.00848 2.75706,-1.72181 2.52804,-3.69457 -1.36529,-11.760282 C 336.22154,90.329122 325.43946,79.006175 317.82889,75.521941 310.30932,72.079365 303.88384,71.259019 301.68236,73.460499 299.79968,75.343173 299.54818,77.753474 301,80 c 0.82843,1.281897 0.9716,1.245547 0.98469,-0.25 C 301.99311,78.7875 302.45,78 303,78 c 0.55,0 1,2.25 1,5 0,2.75 -0.29502,5 -0.65561,5 C 302.16382,88 296,82.921758 296,81.949109 296,81.427099 296.64671,81 297.43713,81 c 1.07485,0 1.29856,-0.853909 0.88743,-3.387426 -0.42883,-2.642554 -0.0573,-3.879852 1.68968,-5.626814 1.92246,-1.922456 2.97394,-2.163577 7.42958,-1.703714 8.45261,0.872387 14.21001,4.242943 23.55618,13.790511 8.33354,8.513116 13.31305,16.242683 14.59587,22.656813 0.46503,2.32513 0.10594,3.56882 -1.4917,5.16646 C 341.99302,114.00698 340,114.65999 340,113.24055 Z"
       id="path2993"
       style="fill:#fe0000"
       inkscape:connector-curvature="0" />
    <path
       id="path4211"
       d="m 156.56181,187.82444 c 0.39499,-1.11226 -0.2718,-2.24353 -1.98339,-3.36501 -2.39402,-1.56862 -2.75721,-1.5723 -5.07842,-0.0514 -3.3338,2.18439 -3.15481,1.10178 0.50746,-3.06931 1.6541,-1.88392 4.31738,-6.02025 5.9184,-9.19185 3.20962,-6.35823 6.07414,-9.56146 6.07414,-6.79238 0,1.93166 4.49111,5.07804 5.95602,4.17268 1.69311,-1.0464 1.19705,2.26593 -0.93789,6.26266 -2.18908,4.09808 -11.40444,14.7044 -10.45632,12.0346 z"
       style="fill:#0000fe"
       inkscape:connector-curvature="0" />
    <path
       id="path4209"
       d="m 231,159.45859 c -6.325,-1.25125 -11.71263,-2.31631 -11.97251,-2.36679 -0.25987,-0.0505 0.56367,-0.81756 1.8301,-1.70461 1.72396,-1.20751 2.15065,-2.21822 1.69794,-4.02195 -0.89545,-3.56777 1.72957,-4.02958 8.03935,-1.41432 2.97104,1.23143 7.217,2.48242 9.43546,2.77997 3.84228,0.51536 3.95466,0.6282 2.36981,2.37944 -1.5488,1.7114 -1.54941,2.01292 -0.009,4.36405 0.91017,1.38909 1.30698,2.46568 0.8818,2.39242 -0.42518,-0.0733 -5.94805,-1.15695 -12.27305,-2.40821 z"
       style="fill:#0000fe"
       inkscape:connector-curvature="0" />
    <path
       id="path4207"
       d="m 306.32163,113.1219 c -0.27013,-1.03296 -1.55266,-2.36177 -2.85008,-2.95291 -2.08866,-0.95166 -2.25435,-1.43951 -1.44611,-4.25771 0.50207,-1.7506 1.03923,-3.28093 1.1937,-3.40075 0.15448,-0.11982 2.42069,-1.45283 5.03605,-2.962252 2.61535,-1.509422 5.17117,-3.487775 5.6796,-4.39634 0.64493,-1.152485 2.30625,-1.660342 5.49482,-1.679734 4.06229,-0.02471 4.57039,0.218868 4.57039,2.190983 0,1.220328 0.45955,2.502798 1.02123,2.849933 1.5524,0.959434 -9.86903,13.39645 -13.81762,15.04627 -4.33565,1.81155 -4.29284,1.81539 -4.88198,-0.43749 z"
       style="fill:#0000fe"
       inkscape:connector-curvature="0" />
    <path
       id="path4203"
       d="m 153.73753,102.43367 c -1.3857,-2.16352 -4.12266,-5.46422 -6.08212,-7.334892 l -3.56267,-3.401222 1.95363,-2.483637 c 1.0745,-1.366 1.95363,-3.330542 1.95363,-4.365648 0,-1.507883 1.31888,-0.845544 6.63448,3.331824 C 163.7941,95.378363 167.03464,101 162.02439,101 c -1.02167,0 -2.73729,1.20765 -3.81249,2.68367 l -1.95492,2.68367 -2.51945,-3.93367 z"
       style="fill:#0000fe"
       inkscape:connector-curvature="0" />
    <path
       sodipodi:nodetypes="ccsssssssscssssssssssscsssccsssssscccccssscccccssssssssscccssssssscscsssssssssccccssssscsssssssscscsscccccsssssssssscccccssscccsssscccsscssssssssssssssssssssscssscssssssccssssscssccccsssssscssssscscssscccccssscssscccccssscccccsssccsscsssscccscccssccsssscssscssccsssssccssscscsssccccsccsssccscssscssccccccssccscc"
       inkscape:connector-curvature="0"
       id="path2989"
       d="m 350.32617,44.111328 c -0.14936,0.01383 -0.29688,0.0461 -0.4414,0.101563 C 348.46466,44.757836 325,76.219147 325,77.578125 c 0,0.392696 5.46011,-6.776428 12.13281,-15.931641 C 343.8055,52.491272 349.86471,45 350.59766,45 352.18094,45 354,48.093492 354,50.785156 c 0,1.054241 -1.04419,3.896989 -2.32031,6.316406 -1.27611,2.419419 -5.58101,10.585938 -9.56641,18.148438 -3.9854,7.5625 -7.02648,13.75 -6.75781,13.75 1.00656,0 18.83984,-34.624737 19.32617,-37.523438 0.55057,-3.281534 -2.11503,-7.572652 -4.35547,-7.365234 z M 99.453125,53.189453 c -0.709767,0.01762 -1.24401,0.201041 -1.597656,0.554688 -1.586508,1.586508 -0.387113,2.91765 6.998051,7.757812 3.65506,2.395488 8.89648,6.164556 11.64648,8.375 2.75,2.210443 5.1125,4.041673 5.25,4.070313 2.13345,0.444392 -9.85848,-9.049222 -18,-14.25 C 98.199051,56.151335 96.538336,54 99.351562,54 c 3.174118,0 8.762368,2.713785 17.828128,8.65625 C 122.50312,66.145675 127.21738,69 127.65625,69 c 0.43887,0 -3.93522,-3.103396 -9.71875,-6.896484 -9.056,-5.939312 -15.40872,-8.990415 -18.484375,-8.914063 z M 348.70508,54.150391 C 348.63373,54.165177 348.49216,54.282544 348.2832,54.5 346.72836,56.118072 331,81.65963 331,82.566406 c 0,0.455756 3.61436,-4.940708 8.03125,-11.992187 7.24004,-11.558571 10.17325,-16.52733 9.67383,-16.423828 z m -219.31446,16.125 c -0.17837,0.178379 3.33191,2.55287 7.80079,5.27539 9.15194,5.575524 10.38951,6.998052 9.42578,10.837891 -1.01678,4.051142 -3.2529,4.273583 -7.42383,0.740234 -2.0312,-1.72071 -6.39336,-5.17973 -9.69336,-7.6875 -3.3,-2.507769 -4.21806,-3.070127 -2.04102,-1.25 11.52965,9.639411 22.35859,19.927517 24.82422,23.583984 0.5374,0.79695 1.87159,2.27636 3.67969,4.13281 l -2.22461,-3.47461 c -1.3857,-2.16352 -4.12257,-5.463309 -6.08203,-7.333981 l -3.56445,-3.402343 1.95508,-2.482422 c 1.0745,-1.366 1.95312,-3.332082 1.95312,-4.367188 0,-1.507883 1.31917,-0.845339 6.63477,3.332032 C 163.79439,95.377954 167.03369,101 162.02344,101 c -1.02167,0 -2.7373,1.20757 -3.8125,2.68359 l -1.89063,2.59571 c 3.34044,3.40077 8.22206,8.01636 13.17774,12.40625 l 14.42773,12.7832 -3.14844,5.51563 c -1.73163,3.03372 -4.06685,7.1676 -5.1914,9.18554 -1.86679,3.34984 -2.47491,3.69639 -6.97656,4 -4.14439,0.2795 -5.35723,-0.0653 -7.60547,-2.16797 -1.47109,-1.37583 -2.91072,-3.17695 -3.20118,-4.00195 -0.29047,-0.82503 -0.84938,-1.20514 -1.24023,-0.84375 -0.9482,0.87672 2.02297,6.51134 4.02344,7.63086 1.03313,0.57817 1.70612,2.64777 1.93359,5.9375 0.30155,4.36102 0.004,5.37114 -2.18555,7.41211 -1.39427,1.29969 -3.79389,4.84643 -5.33203,7.88086 -3.73167,7.36182 -7.50959,12.1552 -20.00195,25.37304 L 124.5,208.5 136,197.39062 c 6.325,-6.11056 12.5125,-11.63889 13.75,-12.28515 3.23201,-1.68788 6.59204,0.20776 5.67969,3.20508 -0.97637,3.20763 -2.85447,5.09297 -13.92969,13.97656 -9.49497,7.61606 -15.16526,12.58538 -11.5,10.07812 7.01297,-4.7973 23.07354,-18.70256 28.9375,-25.05273 7.03034,-7.61327 10.35535,-12.96758 11.52539,-18.5625 0.3163,-1.5125 1.17112,-2.75 1.90039,-2.75 2.51304,0 4.63779,-3.558 4.52539,-7.57812 -0.0722,-2.5835 1.13404,-6.61058 3.53516,-11.80274 2.00472,-4.33501 3.46823,-8.05911 3.25195,-8.27539 -0.21628,-0.21629 -1.60936,2.42957 -3.0957,5.88086 -5.46068,12.67974 -11.11483,23.73367 -12.40235,24.24414 C 166.36424,169.18776 163,167.25128 163,165.48828 c 0,-0.79297 1.10643,-2.1665 2.45898,-3.05273 1.35255,-0.88622 6.11852,-7.87199 10.5918,-15.52344 C 180.52405,139.26066 184.3507,133 184.55273,133 c 0.5756,0 0.62885,2.62351 1.07032,52.75 0.35997,40.87227 0.61564,47.25 1.89648,47.25 1.28634,0 1.48047,-6.09622 1.48047,-46.44141 0,-29.9855 0.35607,-46.66016 1.00391,-47.06054 0.55184,-0.34106 4.07033,1.27907 7.81836,3.60156 l 6.81445,4.22461 -1.54297,4.28906 c -1.48715,4.13561 -1.45819,4.40114 0.79102,7.44336 2.15297,2.91204 2.20632,3.28001 0.70703,4.7793 -1.37122,1.37122 -1.94831,1.42329 -3.70508,0.32617 -2.70391,-1.68861 -3.97904,-0.43422 -1.44336,1.41992 2.84359,2.07928 5.30139,1.73723 7.08594,-0.98633 0.86663,-1.32264 2.68881,-2.68404 4.04882,-3.02539 1.36007,-0.34135 3.33345,-1.48188 4.38477,-2.5332 1.52569,-1.52569 2.47933,-1.72655 4.72461,-0.99609 1.54718,0.50335 9.06689,2.1035 16.71094,3.55468 13.30332,2.52557 14.78022,2.60659 34.5,1.90625 19.05372,-0.67668 20.96339,-0.91535 25.41797,-3.16797 6.73236,-3.40447 5.67101,-4.90439 -3.20703,-4.5332 -7.9579,0.33271 -43.23747,-2.30377 -52.56641,-3.92773 -3.27663,-0.5704 -7.32663,-1.75253 -9,-2.62696 -1.67336,-0.87442 -5.65722,-1.65703 -8.85352,-1.74023 -4.93452,-0.12851 -7.57521,-1.03954 -17.5,-6.03125 -6.4287,-3.23334 -11.83086,-6.21095 -12.0039,-6.61914 -0.17303,-0.4082 -0.96053,-0.49436 -1.75,-0.19141 C 190.64609,134.967 190,134.75246 190,134.18945 c 0,-2.80888 -1.42268,-3.43963 -1.91211,-3.5664 -0.71245,-0.18618 -1.63581,-1.30541 -2.49805,-2.43164 -1.53755,-2.2784 -2.05322,-2.96349 -3.32226,-4.48438 -0.0357,-0.0428 -0.0472,-0.0652 -0.0781,-0.10351 L 176.90234,118 c -5.35808,-5.6798 -5.86323,-6.54083 -4.01367,-6.82031 2.82064,-0.42621 4.43544,-3.68988 3.73438,-7.54492 -0.31358,-1.72434 -0.77099,-5.012128 -1.01758,-7.306645 -0.26567,-2.471993 -1.33056,-5.053215 -2.61133,-6.333984 -2.52082,-2.520819 -4.07399,-1.848283 -1.73242,0.75 0.87045,0.965872 1.89205,2.993359 2.26953,4.505859 0.63526,2.545438 0.45968,2.75 -2.3418,2.75 -1.66465,0 -3.62494,0.226095 -4.35742,0.501953 -0.75489,0.284297 -2.03238,-0.733177 -2.94922,-2.349609 -1.95434,-3.445593 -17.96653,-16.359213 -27.36719,-22.070313 -3.73975,-2.271994 -6.9466,-3.985019 -7.125,-3.80664 z m 26.92969,36.003909 c -0.13149,-0.13387 -0.23079,-0.24108 -0.35742,-0.3711 l 0.29492,0.45899 z M 323.57227,79.394531 c -0.15759,0.06197 -0.66565,0.601292 -1.51563,1.605469 -1.16385,1.375 -3.88689,5.42727 -6.05273,9.003906 -4.33581,7.160084 -6.23022,8.438678 -20.83399,14.072264 l -8.33008,3.21289 -3.59961,7.27735 c -2.18378,4.41333 -4.51328,7.69307 -5.91992,8.33398 -4.51978,2.05935 -2.28843,4.68237 2.54883,2.99609 2.17114,-0.75687 4.16873,-2.841 6.67383,-6.96484 4.46809,-7.35527 5.20824,-7.81659 5.06836,-3.1543 -0.0974,3.2467 0.30328,3.93017 3.125,5.33985 l 3.23633,1.61719 -6.90235,6.13281 c -3.79558,3.3733 -7.44646,6.13281 -8.11523,6.13281 -0.84863,0 -1.03025,1.13284 -0.59766,3.75 0.34091,2.0625 0.62486,4.7625 0.63086,6 0.007,1.32844 0.62609,2.25 1.51172,2.25 1.00366,0 1.5,-1.00357 1.5,-3.0332 0,-3.59341 2.07269,-5.80346 17.05664,-18.19727 5.80568,-4.8021 11.27649,-10.2021 12.1582,-12 0.8817,-1.7979 4.90573,-6.9019 8.94336,-11.3418 4.03762,-4.439885 8.0168,-8.968394 8.8418,-10.062496 0.825,-1.094103 -0.31102,-0.0221 -2.52539,2.38086 -2.21437,2.402965 -4.35187,4.04266 -4.75,3.644531 -1.45431,-1.454312 -0.66279,-5.529056 1.84766,-9.505859 1.4147,-2.241034 2.39461,-4.251866 2.17773,-4.46875 -0.21688,-0.216883 -1.3838,1.368673 -2.59375,3.521484 -2.32358,4.13425 -6.59202,6.038028 -9.67187,4.314453 -1.37591,-0.769991 -1.10429,-1.615592 2,-6.228515 3.09161,-4.594128 4.43458,-6.765237 4.08789,-6.628907 z m -4.14258,14.078125 C 323.49198,93.44795 324,93.691947 324,95.664062 c 0,1.220331 0.4598,2.502475 1.02148,2.84961 1.5524,0.959434 -9.86974,13.395098 -13.81836,15.044918 -4.33564,1.81155 -4.29171,1.81538 -4.88085,-0.4375 -0.27013,-1.03296 -1.55415,-2.36003 -2.85157,-2.95117 -2.08866,-0.95166 -2.25355,-1.43961 -1.44531,-4.25781 0.50207,-1.7506 1.03889,-3.28252 1.19336,-3.40234 0.15448,-0.11982 2.42175,-1.45152 5.03711,-2.960942 2.61535,-1.509422 5.17126,-3.487919 5.67969,-4.396484 0.64493,-1.152485 2.30557,-1.660298 5.49414,-1.679688 z m -157.61524,8.632814 c 1.50414,0.0199 3.15655,1.33987 4.40821,3.84765 0.94774,1.8989 5.14277,7.18916 9.32226,11.75586 4.35872,4.76253 10.41922,11.85858 10.23438,12.79688 -0.23215,1.17849 -6.3547,-3.94717 -14.2793,-10.9668 -6.05,-5.3591 -11.64269,-10.35512 -12.42773,-11.10351 -1.15271,-1.09889 -1.19887,-1.86285 -0.24024,-3.9668 0.73264,-1.60797 1.81254,-2.37878 2.98242,-2.36328 z m 140.18946,0.0293 -0.64063,2.68359 c -0.90138,3.77588 -1.2291,4.17091 -2.93164,3.51758 -0.82787,-0.31768 -2.27673,0.0825 -3.21875,0.89062 -0.94201,0.8081 -2.51454,1.75367 -3.49414,2.10156 -0.9796,0.3479 -3.4546,3.33321 -5.5,6.63282 -2.47232,3.98831 -4.6898,6.34134 -6.61719,7.01953 -3.53978,1.2456 -3.60156,1.24735 -3.60156,0.0879 0,-0.51294 0.92173,-1.22626 2.04883,-1.58398 1.26062,-0.40011 3.45452,-3.48895 5.69922,-8.0254 l 3.64843,-7.37304 7.30469,-2.97656 z M 167.85156,104 c 2.49734,0 4.14844,1.41335 4.14844,3.54883 0,4.56537 -2.90811,3.71541 -4.44531,-1.29883 -0.39179,-1.27799 -0.26294,-2.25 0.29687,-2.25 z m 145.06836,10 c 2.3932,0 -0.73914,3.25723 -12.4043,12.90625 -6.82321,5.64394 -12.58057,10.78666 -12.79492,11.42773 -0.21434,0.64107 -0.62437,-0.0624 -0.91211,-1.56445 -0.45576,-2.37908 0.32758,-3.47786 6.08399,-8.52734 3.63423,-3.18791 7.85683,-6.34193 9.38476,-7.00977 1.52794,-0.66784 3.04488,-1.91162 3.3711,-2.76172 0.5932,-1.54587 5.35152,-4.4707 7.27148,-4.4707 z m 67.13867,24.3325 c 0.0627,8.75727 0.2294,23.80414 0.48633,47.9175 l 0.54102,50.75 -15.54297,0 C 355.84731,237 350,237.37622 350,238 c 0,0.62366 5.83333,1 15.5,1 l 15.5,0 0,22.5 0,22.5 -47.5,0 -47.5,0 0,-57.5 c 0,-50.44444 -0.18406,-57.5 -1.5,-57.5 -1.30392,0 -1.5,4.44444 -1.5,34 l 0,34 -10,0 c -6,0 -10,0.4 -10,1 0,0.6 4,1 10,1 l 10,0 0,22.5 0,22.5 -47,0 -47,0 0,-24.5 c 0,-21.11111 -0.20748,-24.5 -1.5,-24.5 -0.825,0 -1.5,0.45645 -1.5,1.01367 0,0.66954 -11.58902,0.92389 -34.17383,0.75 L 117.65039,236.5 l -1.29687,-5.5 -1.29688,-5.5 5.99805,-5.75 c 3.29912,-3.1625 5.73467,-5.75 5.41211,-5.75 -0.32256,0 -2.99537,2.2781 -5.93946,5.0625 -4.81694,4.55566 -5.41706,4.86225 -5.98828,3.0625 -0.76972,-2.4252 0.8142,-5.28751 5.46094,-9.87305 l 3.5,-3.45507 -4.23242,3.35156 c -2.32759,1.84321 -4.24,3.94019 -4.25,4.66015 -0.01,0.71991 -0.41591,1.06431 -0.90235,0.76368 -1.2034,-0.74375 -3.57481,-13.24343 -3.33398,-17.57227 0.2419,-4.34798 -1.01842,-6.5061 -3.28906,-5.63477 -1.93392,0.74211 -1.82507,2.43651 0.93164,14.63477 0.93222,4.125 4.58687,21.675 8.12109,39 3.53423,17.325 6.66403,32.50372 6.95508,33.73047 l 0.52734,2.23047 -21.76367,0.29101 c -11.970278,0.15955 70.71117,0.29028 183.73633,0.29102 48.76981,3.2e-4 89.9575,-0.0278 122.47266,-0.0684 l 0,-0.47461 -24.52344,0 0.27539,-73.34766 c 0.22799,-60.79811 0.53762,-70.00966 1.00381,-71.74952 0.29672,-1.10735 0.36986,-4.2842 -2.59252,-4.2842 -1.92886,0 -2.57731,0.9629 -2.57731,3.71392 z M 191.12305,136 c 0.61757,0 5.90507,2.41311 11.75,5.36328 5.84492,2.95017 12.29387,5.90369 14.33007,6.5625 4.41442,1.42826 5.99235,4.7271 3.22852,6.74805 -0.99752,0.72941 -2.06567,1.31162 -2.37305,1.29492 -1.18602,-0.0645 -4.67627,-2.34528 -7.26757,-4.75 C 207.23005,147.91419 196.23245,140.33472 192.75,138.78516 189.96661,137.54666 189.06321,136 191.12305,136 Z m 33.29297,12.28711 c 1.36371,-0.0362 3.41915,0.51989 6.17968,1.66406 2.97104,1.23143 7.21709,2.48175 9.43555,2.7793 3.84228,0.51536 3.95399,0.62765 2.36914,2.37891 -1.5489,1.71137 -1.5498,2.0141 -0.01,4.36523 0.91023,1.38909 1.308,2.46588 0.88282,2.39258 -0.42518,-0.0733 -5.94844,-1.15695 -12.27344,-2.40821 -6.325,-1.25125 -11.71278,-2.31668 -11.97266,-2.36718 -0.25987,-0.0505 0.56365,-0.81803 1.83008,-1.70508 1.72394,-1.20751 2.14998,-2.21776 1.69727,-4.02149 -0.50369,-2.00687 0.10798,-3.0316 1.86133,-3.07812 z m -18.57422,0.45508 c 0.47088,0.003 1.128,0.24825 1.91406,0.79883 1.23464,0.86478 2.24414,1.99681 2.24414,2.51562 0,1.45843 -2.61376,1.11394 -3.97266,-0.52344 -1.3594,-1.63799 -1.22148,-2.79831 -0.18554,-2.79101 z m 41.99609,5.67187 c 3.33204,-0.0577 9.03772,0.28654 18.51367,1.06836 11.76502,0.97063 22.957,1.38203 26.89844,0.98828 3.84393,-0.384 6.75,-0.28527 6.75,0.22852 0,0.49623 -1.95424,1.85175 -4.3418,3.01172 -3.84929,1.87013 -6.88603,2.19154 -26.82031,2.83398 l -22.48242,0.72266 -2.17774,-2.76758 c -2.70487,-3.43864 -2.71399,-4.14294 -0.0762,-5.55469 0.59303,-0.31737 1.73711,-0.49663 3.73633,-0.53125 z m -72.02734,3.86133 c 0.17359,0.0735 0.18379,0.68495 0.18554,1.77539 0.002,1.4025 -0.53531,3.09 -1.19531,3.75 -1.20302,1.20302 -2.80078,1.61454 -2.80078,0.72266 0,-0.26171 0.89815,-1.94921 1.99609,-3.75 1.09755,-1.80014 1.59126,-2.59256 1.81446,-2.49805 z m -14.3086,6.07813 c 0.3187,-0.0103 0.49805,0.30968 0.49805,1.00195 0,1.93166 4.49017,5.07723 5.95508,4.17187 1.69311,-1.0464 1.19744,2.26499 -0.9375,6.26172 -2.18908,4.09808 -11.4032,14.70496 -10.45508,12.03516 0.39499,-1.11226 -0.27278,-2.24376 -1.98438,-3.36524 -2.39402,-1.56863 -2.75691,-1.57165 -5.07812,-0.0508 -3.3338,2.18439 -3.15446,1.10078 0.50781,-3.07031 1.6541,-1.88392 4.31695,-6.01981 5.91797,-9.19141 2.40722,-4.76867 4.62008,-7.76222 5.57617,-7.79296 z M 117.7832,239 l 34.10742,0 34.10938,0 0,22.5 0,22.5 -29.5,0 c -16.225,0 -29.5,-0.14394 -29.5,-0.32031 0,-0.6393 -7.84915,-39.25229 -8.52344,-41.92969 z"
       style="fill:#000000" />
    <path
       id="path4319-7"
       d="m 380.40184,88.144166 c 0.6841,0.008 1.36399,0.47603 2.38867,1.50391 2.46669,2.47438 1.54805,4.06049 -1.00781,1.74024 -2.20621,-2.00284 -3.43841,-0.50268 -1.92188,2.33984 0.58665,1.09969 0.88168,2.96741 0.65625,4.15039 -0.33177,1.74091 0.083,2.250834 2.17188,2.669924 3.7195,0.74623 9.02741,5.79184 11.73828,11.1582 1.28889,2.55147 3.89054,6.20674 5.78125,8.12305 4.60504,4.6674 10.40608,11.97825 17.16211,21.62695 3.06885,4.38282 6.5672,9.02346 7.77539,10.3125 3.07463,3.28044 6.46106,12.16958 5.14062,13.49415 -1.15122,1.15482 -16.29257,-13.9227 -34.98047,-34.83204 -6.11088,-6.83728 -11.24864,-12.29485 -11.41601,-12.12695 -0.16737,0.1679 0.31245,3.86381 1.0664,8.21289 0.63353,3.65444 0.91835,6.67139 0.87487,9.28401 -0.009,0.52728 -0.91915,4.76866 -0.9545,5.26492 l -4.27498,-0.94941 c -0.56062,-0.91876 -0.57681,-2.24761 -0.95789,-3.04092 -0.38323,-0.79801 -0.46407,-1.75312 0.23438,-2.875 0.87357,-1.4032 0.68859,-4.25385 -0.88086,-13.57227 -1.09277,-6.48814 -1.98633,-12.8361 -1.98633,-14.10547 0,-1.94797 -0.35891,-2.23836 -2.30469,-1.86523 -3.26403,0.62591 -7.97656,-4.20108 -7.97656,-8.171884 0,-4.24572 3.84968,-7.86387 7.75391,-7.28906 1.63263,0.24037 3.7043,-0.0253 4.60547,-0.58984 0.48866,-0.30614 0.90203,-0.46751 1.3125,-0.4629 z"
       style="fill:#000000"
       inkscape:connector-curvature="0"
       sodipodi:nodetypes="cssccsssssssssscccsssssscc" />
    <path
       id="path4356-6"
       d="m 430.28212,164.45978 c 0,-1.95654 -4.383,-10.90901 -6.4428,-13.15971 -1.41567,-1.54687 -4.85592,-6.12923 -7.64502,-10.18303 -10.32931,-15.01312 -16.77939,-20.96567 -20.31168,-18.74495 -4.48053,2.81686 -0.79439,8.02145 22.6461,31.97485 9.17811,9.37893 11.7534,11.59476 11.7534,10.11284 z"
       style="fill:#fefefe"
       inkscape:connector-curvature="0" />
    <path
       id="path4334-4"
       d="m 385.41611,135.59695 c -0.004,-0.64454 -0.83561,-6.00436 -1.84934,-11.91075 -1.50287,-8.75633 -1.64472,-11.40317 -0.76838,-14.33727 0.90343,-3.02479 0.83733,-3.83656 -0.41465,-5.09245 -1.93759,-1.94365 -4.43499,-0.94466 -4.44933,1.77979 -0.007,1.17634 0.93323,8.01218 2.08761,15.19075 1.61219,10.0255 1.83151,13.14136 0.94584,13.43751 -2.20659,0.73783 -1.13467,2.10429 1.65071,2.10429 1.62324,0 2.80113,-0.49341 2.79754,-1.17187 z"
       style="fill:#fefefe"
       inkscape:connector-curvature="0" />
    <path
       id="path3474-0"
       d="m 376.67589,102.54283 c 0.73636,-1.92493 -2.12209,-6.086514 -4.18061,-6.086514 -0.91795,0 -2.45525,0.57672 -3.41623,1.2816 -1.67855,1.23122 -1.6505,1.37864 0.71347,3.750004 2.72152,2.73002 6.04758,3.23976 6.88337,1.05491 z"
       style="fill:#fefefe"
       inkscape:connector-curvature="0" />
    <path
       id="path3470-7"
       d="m 392.89894,125.29676 c 0,-0.74928 0.86219,-2.14505 1.91598,-3.1017 1.64288,-1.49143 2.34225,-1.5838 4.90654,-0.64804 l 2.99056,1.09131 -3.41387,-3.01288 c -1.87762,-1.65708 -4.3433,-4.91132 -5.47929,-7.23163 -2.46239,-5.02954 -5.15173,-8.14155 -8.58379,-9.93283 -2.87884,-1.50254 -5.99769,-1.71778 -6.76824,-0.4671 -0.28806,0.46754 0.22936,0.65251 1.14981,0.41106 0.9451,-0.24792 2.42473,0.39361 3.39931,1.47388 1.54045,1.7075 1.60141,2.35837 0.56774,6.06181 -0.67693,2.42531 -0.82675,4.71629 -0.36063,5.51465 1.8099,3.09998 9.67588,11.10057 9.67588,9.84147 z"
       style="fill:#0000fe"
       inkscape:connector-curvature="0" />
  </g>
</svg>
