<?xml version="1.0" encoding="UTF-8" standalone="no"?>
<!-- Created with Inkscape (http://www.inkscape.org/) -->

<svg
   xmlns:dc="http://purl.org/dc/elements/1.1/"
   xmlns:cc="http://creativecommons.org/ns#"
   xmlns:rdf="http://www.w3.org/1999/02/22-rdf-syntax-ns#"
   xmlns:svg="http://www.w3.org/2000/svg"
   xmlns="http://www.w3.org/2000/svg"
   xmlns:sodipodi="http://sodipodi.sourceforge.net/DTD/sodipodi-0.dtd"
   xmlns:inkscape="http://www.inkscape.org/namespaces/inkscape"
   version="1.1"
   width="681"
   height="307"
   id="svg2"
   inkscape:version="0.91 r13725"
   sodipodi:docname="ub240304.svg">
  <sodipodi:namedview
     pagecolor="#ffffff"
     bordercolor="#666666"
     borderopacity="1"
     objecttolerance="10"
     gridtolerance="10"
     guidetolerance="10"
     inkscape:pageopacity="0"
     inkscape:pageshadow="2"
     inkscape:window-width="1365"
     inkscape:window-height="940"
     id="namedview11"
     showgrid="false"
     inkscape:zoom="0.44787078"
     inkscape:cx="43.539344"
     inkscape:cy="153.5"
     inkscape:window-x="0"
     inkscape:window-y="0"
     inkscape:window-maximized="0"
     inkscape:current-layer="svg2" />
  <metadata
     id="metadata8">
    <rdf:RDF>
      <cc:Work
         rdf:about="">
        <dc:format>image/svg+xml</dc:format>
        <dc:type
           rdf:resource="http://purl.org/dc/dcmitype/StillImage" />
        <dc:title></dc:title>
      </cc:Work>
    </rdf:RDF>
  </metadata>
  <defs
     id="defs6" />
  <g
     id="g2987">
    <path
       d="m 210.52455,258.25 c -1.50225,-3.05189 -1.99263,-7.43921 -2.63415,-23.56717 -0.75042,-18.8654 -0.68982,-20.00606 1.26163,-23.75 C 210.27948,208.76977 211.6065,207 212.10097,207 212.61122,207 213,218.89228 213,234.5 c 0,15.125 -0.14165,27.5 -0.31479,27.5 -0.17313,0 -1.14543,-1.6875 -2.16066,-3.75 z m -67.3566,-28.77537 c -1.83263,-0.79589 -9.25763,-7.03845 -16.5,-13.87235 -12.55657,-11.84836 -13.16428,-12.60348 -13.08886,-16.26377 0.12327,-5.98273 0.2749,-6.33851 2.7014,-6.33851 1.75152,0 4.40452,2.84141 11.4377,12.25 5.03646,6.7375 11.88525,14.93591 15.21951,18.2187 7.81268,7.69205 7.87533,9.32613 0.23025,6.00593 z m 68.18794,-44.98957 c -0.31973,-0.83322 -0.34786,-2.40778 -0.0625,-3.49901 0.28536,-1.09123 0.11109,-2.23606 -0.38728,-2.54407 -1.41589,-0.87507 -1.06308,-5.06683 0.53832,-6.39587 1.23765,-1.02716 1.44445,-0.11408 1.44445,6.37755 0,7.47256 -0.39387,9.02991 -1.533,6.0614 z M 216.38735,166.25 c 0.13171,-17.51309 0.058,-18.25 -1.82505,-18.25 -1.34973,0 -1.63989,-0.32241 -0.92952,-1.03278 0.56803,-0.56803 1.78303,-0.74489 2.7,-0.39301 1.37753,0.5286 1.66846,2.14154 1.67433,9.28278 0.004,4.75365 0.17002,11.56801 0.36914,15.14301 0.23595,4.23627 0.15824,4.9328 -0.22313,2 -0.53819,-4.13872 -0.63807,-3.85772 -1.2441,3.5 -0.44554,5.40934 -0.61448,2.09007 -0.52167,-10.25 z m -117.1605,7.5 c -0.559921,-0.6875 -1.699212,-2.89478 -2.531757,-4.90508 -0.832544,-2.01029 -4.254527,-6.99448 -7.604405,-11.07597 C 83.555225,151.02454 81.598898,147 83.855911,147 c 0.470751,0 4.593558,4.3875 9.161793,9.75 4.568235,5.3625 9.199276,10.55074 10.291206,11.52942 1.66809,1.49509 1.80545,2.17418 0.85964,4.25 -1.22209,2.68219 -3.32774,3.20228 -4.9417,1.22058 z m 0.92392,-9.90796 c -1.978595,-2.44079 -2.143042,-3.14643 -1.042344,-4.47269 1.172664,-1.41297 1.490954,-1.34737 3.099224,0.63876 1.83793,2.26975 2.37851,5.53855 1.04235,6.30289 -0.4125,0.23597 -1.80715,-0.87506 -3.09923,-2.46896 z M 294,152.89964 c -1.925,-0.4926 -6.03724,-0.63318 -9.13831,-0.31241 -3.41655,0.3534 -5.88818,0.17893 -6.27241,-0.44277 -0.41298,-0.66821 0.6814,-0.82293 3.13831,-0.44368 2.07483,0.32026 3.46608,0.24978 3.09169,-0.15663 -0.3744,-0.40641 -3.27965,-0.85404 -6.45611,-0.99473 -6.68405,-0.29605 -9.03929,-2.30187 -6.12492,-5.21624 1.6058,-1.6058 2.18305,-1.55176 9.98305,0.93462 4.55329,1.45144 10.85788,3.36446 14.01022,4.25117 3.15233,0.88671 5.99139,2.03269 6.30901,2.54662 0.70403,1.13914 -3.781,1.052 -8.54053,-0.16595 z m 50.95432,-7.74709 c -4.70013,-4.7589 -9.63937,-9.37529 -10.97609,-10.25864 -2.19903,-1.4532 -2.31276,-1.86429 -1.19464,-4.31829 1.69039,-3.71 5.18207,-3.14534 7.34669,1.18809 0.89665,1.79504 4.04665,6.16387 7,9.70851 2.95334,3.54465 5.65039,7.81348 5.99342,9.48629 0.34304,1.67282 0.56804,2.99764 0.5,2.94404 -0.068,-0.0536 -3.96926,-3.99109 -8.66938,-8.75 z M 539,149.95487 c -0.825,-0.44581 -2.2172,-1.02694 -3.09377,-1.29138 -1.24255,-0.37486 -1.73839,-2.51819 -2.25,-9.72578 C 532.39284,121.13898 532.94071,117 536.5601,117 c 1.73406,0 2.45722,10.08952 1.38912,19.38101 -0.85907,7.47312 -0.76784,8.34401 1.14679,10.9476 2.26553,3.08076 2.23608,3.88646 -0.096,2.62626 z m -142,-0.91731 c 0,-0.25433 1.1471,-1.37933 2.54911,-2.5 2.4969,-1.99583 2.53002,-2.19117 1.61695,-9.53756 -0.99814,-8.03081 -0.89382,-8.40373 2.65078,-9.47621 l 2.31684,-0.70099 -0.69395,9.8386 c -0.38168,5.41123 -1.0551,10.5136 -1.4965,11.3386 C 403.23792,149.31825 397,150.25042 397,149.03756 z m 55.01531,0.67726 c -0.008,-0.43185 0.65011,-1.80075 1.4634,-3.04199 1.20699,-1.84209 1.31218,-3.81104 0.57246,-10.71482 -0.90804,-8.47462 -0.76387,-19.57865 0.2676,-20.61011 1.26962,-1.26962 2.63892,7.99369 2.90061,19.62252 0.26524,11.78706 0.17102,12.49207 -1.71938,12.86568 -1.1,0.21739 -2.33061,0.90571 -2.73469,1.52958 -0.40408,0.62388 -0.74158,0.78099 -0.75,0.34914 z M 590.5,149.05569 l -3,-0.57058 -0.67105,-12.8636 c -0.36907,-7.07498 -1.13351,-13.32607 -1.69875,-13.89131 -1.74637,-1.74637 1.55439,-6.91549 4.17753,-6.54219 1.88977,0.26894 2.15782,0.86392 1.94259,4.31199 -1.60873,25.77295 -1.59762,26.14333 0.83553,27.84758 2.80765,1.96655 2.35221,2.45711 -1.58585,1.70811 z M 629.99245,141.25 c -0.004,-4.8125 -0.46538,-11.57113 -1.02493,-15.01917 -1.1919,-7.34465 -0.127,-10.53653 3.35014,-10.04151 1.88299,0.26806 2.14496,0.85936 1.90985,4.31068 -1.52533,22.39075 -1.47717,24.25034 0.68401,26.41152 C 637.71202,149.71202 637.5804,150 633.5,150 l -3.5,0 -0.008,-8.75 z M 34,147.41029 c 0,-0.32434 0.889087,-1.33684 1.975749,-2.25 1.967213,-1.65312 1.967239,-1.72228 0.0059,-16.00971 C 33.702255,112.54626 33.970803,110 38.001419,110 c 3.555277,0 4.305825,2.02041 2.423814,6.5247 -1.258126,3.01112 -1.326409,5.51046 -0.433752,15.87637 0.582691,6.76646 0.774837,13.04432 0.42699,13.9508 C 39.831919,147.8804 34,148.8421 34,147.41029 z M 78,147 c 0,-0.55 0.513034,-1 1.140077,-1 0.627042,0 5.464542,-4.21864 10.75,-9.37475 C 102.12429,124.69043 106,122.62009 106,128.01959 c 0,2.2167 -0.27634,2.46735 -9.5,8.61657 -3.85,2.56672 -8.768499,6.1736 -10.929999,8.0153 C 81.771611,147.88786 78,149.05798 78,147 z m 417.08846,-11.75 c 0.0804,-7.0125 -0.0191,-14.55 -0.22111,-16.75 -0.32016,-3.4862 -0.087,-4.03991 1.81499,-4.31068 3.48807,-0.49658 4.50104,2.65177 3.38568,10.52285 -0.52902,3.73331 -1.24224,9.78501 -1.58494,13.44823 -0.57433,6.13927 -0.46112,6.7118 1.44692,7.31738 3.27118,1.03824 2.41282,2.52222 -1.45888,2.52222 l -3.52889,0 0.14623,-12.75 z m 101.1498,8 c 0.11808,-0.9625 -1.07438,-4.27311 -2.64992,-7.3569 -2.33825,-4.57666 -2.73338,-6.30641 -2.15043,-9.41383 0.71057,-3.78763 0.73165,-3.75679 4.15853,6.08256 1.89439,5.43923 3.22429,10.46295 2.95534,11.16384 -0.73306,1.91031 -2.56014,1.53466 -2.31352,-0.47567 z m -159.9749,-1.57134 c -0.5947,-1.30522 -1.39463,-4.88117 -1.77763,-7.94654 -0.60593,-4.84974 -0.27545,-6.6886 2.54524,-14.16211 2.70222,-7.15963 3.47919,-8.3915 4.66959,-7.40356 1.70351,1.41379 1.18759,4.03131 -2.36197,11.98351 -2.39625,5.3684 -2.4569,5.94147 -1.21699,11.5 1.61703,7.24916 1.63013,7.59946 0.30071,8.0426 -0.59272,0.19758 -1.56425,-0.70868 -2.15895,-2.0139 z m 116.05527,-3.9654 c 0.2089,-5.3976 -4.74508,-15.85808 -10.36392,-21.88374 -4.57747,-4.90889 -4.97577,-7.40717 -1.43792,-9.01912 3.41178,-1.55451 4.27937,-0.27342 10.46398,15.45123 5.18905,13.19339 5.8681,16.4895 3.81923,18.53837 -2.06756,2.06756 -2.65268,1.33969 -2.48137,-3.08674 z m -166.32565,0.77828 c -2.30703,-2.7798 0.0712,-9.94027 8.54498,-25.72779 2.65465,-4.94587 5.6241,-7.29927 8.04018,-6.37214 3.08894,1.18534 1.17396,5.36099 -5.89046,12.8443 -5.14112,5.44596 -8.87736,13.56569 -8.07899,17.55756 0.69008,3.45039 -0.51315,4.2315 -2.61571,1.69807 z m -143.7528,-6.46912 c -9.56661,-7.26313 -21.73828,-15.19524 -29.007,-18.90346 -6.07814,-3.10084 -5.49969,-4.50765 1.49415,-3.63382 6.08667,0.76048 11.78482,3.31186 24.90949,11.15339 4.47526,2.67381 9.5105,5.6124 11.18944,6.5302 2.21161,1.20899 3.23829,2.65841 3.72653,5.26097 0.62493,3.33118 -0.58778,6.5703 -2.45989,6.5703 -0.36422,0 -4.79794,-3.13991 -9.85272,-6.97758 z m 99.70709,1.33889 c -0.55177,-1.45128 -0.74405,-2.89786 -0.42728,-3.21463 1.03148,-1.03149 3.97182,1.50256 4.29956,3.70545 0.46757,3.14278 -2.64057,2.74882 -3.87228,-0.49082 z M 582,131.43426 c 0,-0.86116 0.52067,-2.53862 1.15704,-3.7277 1.13082,-2.11295 1.17456,-2.11713 1.92972,-0.18426 1.39836,3.57918 1.0217,5.4777 -1.08676,5.4777 -1.14843,0 -2,-0.66667 -2,-1.56574 z M 94.452721,128.9235 C 93.530971,127.43208 96.571502,125 99.357796,125 c 1.086544,0 1.788034,0.1125 1.558874,0.25 -0.22917,0.1375 -1.606697,1.29634 -3.061174,2.57521 -1.941366,1.70696 -2.846117,1.99898 -3.402775,1.09829 z M 625,128.19113 c 0,-0.99488 0.66069,-2.68238 1.4682,-3.75 1.37587,-1.81907 1.47019,-1.70533 1.5,1.80887 0.0227,2.6808 -0.39588,3.75 -1.4682,3.75 -0.825,0 -1.5,-0.81399 -1.5,-1.80887 z m -180.75,-1.22229 c -4.10584,-1.65035 -2.21188,-4.26504 3.88398,-5.362 4.27345,-0.76901 5.56883,0.94475 3.23388,4.27836 -1.5778,2.25263 -3.4866,2.54323 -7.11786,1.08364 z M 501.0318,124.25 c 0.0298,-3.5142 0.12413,-3.62794 1.5,-1.80887 1.90187,2.51449 1.88445,5.55887 -0.0318,5.55887 -1.07232,0 -1.49093,-1.0692 -1.4682,-3.75 z m -98.2989,0 c -1.94655,-2.15999 -3.01285,-6.36838 -1.99285,-7.86522 1.41753,-2.08021 4.96942,-2.53245 6.65458,-0.8473 2.00437,2.00438 2.02293,3.75436 0.0797,7.51218 -1.76437,3.41191 -2.56559,3.61475 -4.74142,1.20034 z m 137.5171,1.08772 c -1.73155,-0.6987 -1.56865,-4.82837 0.25,-6.33772 1.79381,-1.48873 3.17827,-0.55333 5.80654,3.92312 l 1.80653,3.07688 -3.30653,-0.079 c -1.8186,-0.0434 -3.86904,-0.30592 -4.55654,-0.58333 z M 32.666667,119.33333 c -0.366667,-0.36666 -0.638143,-1.60416 -0.603281,-2.75 0.05828,-1.91559 0.140529,-1.89048 1.021483,0.31185 0.979312,2.44822 0.776174,3.63253 -0.418202,2.43815 z M 123.2,117.8 c -2.53094,-2.53094 -0.9586,-5.47344 7.73418,-14.47384 l 8.8603,-9.173834 2.10276,2.238288 C 143.05376,97.621673 144,99.24083 144,99.988741 c 0,1.494079 -13.30075,15.782979 -16.5,17.725819 -2.53375,1.5387 -2.84064,1.5448 -4.3,0.0854 z m 189.76762,-6.99957 C 304.87827,98.316439 291.46031,80.243882 288.1273,77.343171 c -4.41186,-3.839629 -3.64736,-5.028683 2.18355,-3.39613 3.60641,1.009733 5.2636,2.385354 9.50257,7.88799 2.8239,3.665733 8.74611,11.294004 13.16047,16.951712 8.17668,10.479727 8.81399,11.872577 6.99093,15.278997 -1.65848,3.09889 -3.39993,2.28622 -6.9972,-3.26531 z M 143.54919,95.76677 c -1.50801,-2.152986 -1.33172,-2.465724 4.90626,-8.703703 3.55876,-3.558761 6.76275,-6.178197 7.11998,-5.820968 1.2358,1.235793 -2.61352,10.201986 -5.78434,13.473443 -3.77272,3.892454 -4.20127,3.964629 -6.2419,1.051228 z M 391.99931,91.27568 C 391.99893,90.299056 391.30885,77.8 390.4658,63.5 c -1.40512,-23.833951 -1.39818,-26.354066 0.0834,-30.25 1.65574,-4.35393 4.64702,-5.786995 5.8012,-2.779245 1.28418,3.346502 7.64912,48.925444 7.64344,54.734111 -0.006,6.082162 -0.0547,6.202055 -1.44136,3.543852 -0.82401,-1.579623 -2.74848,-14.117714 -4.51902,-29.441841 -1.69609,-14.679807 -3.29748,-26.90423 -3.55863,-27.165385 -0.68058,-0.680573 -0.75725,-1.493928 2.55967,27.151833 3.32037,28.675557 3.26536,29.466011 -2.24914,32.317669 -2.54215,1.3146 -2.78542,1.285322 -2.78605,-0.335314 z M 584.01447,92.5 c -0.11964,-0.55 -0.1417,-12.925 -0.049,-27.5 0.15266,-24.010629 0.36267,-27.040147 2.23552,-32.25 1.13686,-3.1625 2.45673,-5.75 2.93303,-5.75 0.47631,0 0.86805,2.5875 0.87054,5.75 0.002,3.1625 0.90045,17 1.99547,30.75 1.09502,13.75 1.99298,25.5625 1.99547,26.25 0.003,0.748182 -0.79838,0.447092 -1.99547,-0.75 -3.23878,-3.238782 -6.1081,-2.252951 -7.27639,2.5 -0.27038,1.1 -0.5895,1.55 -0.70914,1 z M 141.69865,90.75 c 4.5127,-5.978401 8.69476,-10.75 9.42181,-10.75 2.09732,0 0.5364,2.913159 -3.90481,7.287592 -4.38805,4.322067 -7.76622,6.442174 -5.517,3.462408 z M 627.01447,89.5 c -0.11964,-0.55 -0.1417,-12.925 -0.049,-27.5 0.15266,-24.010629 0.36267,-27.040147 2.23552,-32.25 1.13686,-3.1625 2.45673,-5.75 2.93303,-5.75 0.47631,0 0.86805,2.5875 0.87054,5.75 0.002,3.1625 0.90045,17 1.99547,30.75 1.09502,13.75 1.99298,25.5625 1.99547,26.25 0.003,0.748182 -0.79838,0.447092 -1.99547,-0.75 -3.23878,-3.238782 -6.1081,-2.252951 -7.27639,2.5 -0.27038,1.1 -0.5895,1.55 -0.70914,1 z M 454.68715,84.951846 c -3.35168,-3.517294 -4.88956,-3.65597 -8.89719,-0.802286 l -3.01878,2.149559 0.57318,-4.899559 C 443.65961,78.704802 444.1892,72.9 444.52123,68.5 445.32049,57.908356 445.64485,57 448.62763,57 l 2.49285,0 -0.52347,12.25 c -0.62735,14.681097 0.0219,13.647535 0.94228,-1.5 l 0.65317,-10.75 2.90377,0 2.90377,0 0,15.5 c 0,8.525 -0.1125,15.478331 -0.25,15.451846 -0.1375,-0.02649 -1.51578,-1.376485 -3.06285,-3 z M 501,86.366667 C 501,84.115148 499.20778,82 497.3,82 c -0.715,0 -2.23665,0.93665 -3.38144,2.081444 l -2.08145,2.081444 0.65583,-9.331444 C 492.85365,71.69915 493.7903,59.179476 494.57439,49.009946 495.35847,38.840416 496,27.927916 496,24.759946 496,21.591976 496.3897,19 496.86601,19 c 0.4763,0 1.79697,2.5875 2.93481,5.75 1.87811,5.219999 2.09296,8.351134 2.33087,33.969788 0.14414,15.520884 -0.0515,28.533384 -0.43481,28.916667 C 501.3136,88.019738 501,87.448333 501,86.366667 z m 42.96108,0.171952 c -3.7258,-2.027026 -4.63589,-4.768788 -5.85876,-17.650216 C 536.61314,53.201676 536.51775,54 539.88129,54 c 2.56916,0 3.0009,0.475054 3.98553,4.385391 C 545.01886,62.960559 548,83.003696 548,86.174069 c 0,2.156016 -0.63993,2.213776 -4.03892,0.36455 z M 39,85.018158 c -1.27293,-0.805621 -1.5,-5.041616 -1.5,-27.982575 0,-14.868284 0.260578,-27.03377 0.579063,-27.034414 0.318484,-6.43e-4 1.561269,2.136331 2.761745,4.748831 1.78172,3.877418 2.452578,8.413048 3.65189,24.690226 1.37765,18.697591 1.360768,20.125903 -0.270911,22.919722 C 42.222191,85.783731 41.106808,86.351529 39,85.018158 z M 534.60089,82.775989 C 534.23816,80.974195 533.66013,73.9875 533.31637,67.25 532.77835,56.705156 532.90198,55 534.20449,55 c 1.17452,0 1.76851,2.245846 2.65432,10.035842 1.46481,12.881798 1.43638,15.166558 -0.22861,18.37584 l -1.3698,2.640297 -0.65951,-3.27599 z M 446.0258,52.75 c 0.0695,-6.05762 2.08105,-22.555404 3.03245,-24.87028 0.59231,-1.441155 2.27281,-3.165161 3.73444,-3.831124 2.34682,-1.069285 2.86911,-0.949527 4.46747,1.024363 1.55776,1.923746 1.74608,3.64201 1.35148,12.331124 -0.25217,5.552755 -0.49295,11.783417 -0.53506,13.845917 -0.0715,3.501664 -0.27971,3.75 -3.14397,3.75 -2.45169,0 -2.96357,-0.351263 -2.55015,-1.75 0.28448,-0.9625 0.74267,-5.125 1.01821,-9.25 l 0.50097,-7.5 -1.36485,9 c -0.75067,4.95 -1.40354,9.1125 -1.45082,9.25 C 451.03869,54.8875 449.875,55 448.5,55 c -1.93357,0 -2.49415,-0.509787 -2.4742,-2.25 z M 532.48545,40.587292 C 531.67375,26.51431 532.15324,23 534.88506,23 c 2.3384,0 5.64152,8.658887 7.06767,18.527349 C 543.45364,51.913157 543.43744,52 540,52 c -2.97668,0 -3.00059,-0.0447 -3.07614,-5.75 -0.0419,-3.1625 -0.70368,-9.125 -1.47067,-13.25 l -1.39454,-7.5 0.68846,6.5 c 1.09071,10.297773 0.9011,20.274918 -0.3936,20.711265 -0.79725,0.268692 -1.36629,-3.424495 -1.86806,-12.123973 z"
       id="path2997"
       style="fill:#fefefe" />
    <path
       d="m 154,154.45616 c 0,-3.76806 0.29792,-4.49367 1.74497,-4.25 1.4786,0.24899 1.87093,-0.88433 2.57017,-7.42451 0.73816,-6.90425 0.54367,-8.64133 -1.84391,-16.46897 -2.93447,-9.62063 -9.00028,-22.39958 -13.84677,-29.171244 -1.85323,-2.589397 -5.0485,-5.3361 -7.87194,-6.766846 C 132.13863,89.050035 130,87.523889 130,86.983154 c 0,-1.361341 0.15472,-1.314795 5.42968,1.633432 8.19812,4.58202 17.67177,20.091334 23.05693,37.746514 2.46724,8.0888 2.60906,9.46202 1.75256,16.96896 -0.65076,5.70359 -0.60644,8.37994 0.14689,8.87061 C 161.47085,152.90923 156.47701,159 154.81291,159 154.36581,159 154,156.95527 154,154.45616 z m 94,-61.885446 c 0,-1.380481 8.60695,-12.800767 12.68412,-16.830159 8.67425,-8.572597 20.61557,-15.785381 28.59191,-17.270053 3.09956,-0.576937 3.56669,-0.955087 2.6075,-2.110842 -0.64269,-0.774396 -0.93512,-1.641404 -0.64984,-1.926686 C 291.89678,53.76989 299,57.127169 299,58.103653 299,58.897345 292.73667,63 291.52498,63 291.11855,63 291.05873,62.289342 291.39203,61.420759 292.25122,59.181752 287.21532,60.385917 279.5,64.264336 268.31816,69.885341 258.9167,78.153825 253.36476,87.25 251.4345,90.4125 249.43777,93 248.9276,93 248.41742,93 248,92.806821 248,92.570714 z M 465.25,74.337719 c -2.3375,-0.827412 -4.24443,-1.804386 -4.23762,-2.171052 C 461.02565,71.451991 467.55766,67 468.59296,67 c 0.34156,0 0.362,0.675 0.0454,1.5 -0.74838,1.950248 1.31281,1.922925 4.13645,-0.05483 2.08241,-1.458577 2.12758,-1.73323 0.72962,-4.436588 -1.69262,-3.273152 -2.70236,-4.059628 -5.81157,-4.526543 -1.20608,-0.181118 -4.90806,-0.875001 -8.22662,-1.541962 -7.99602,-1.607029 -22.59596,-0.465378 -25.64738,2.005511 -1.98212,1.605025 -2.06348,2.04966 -0.89237,4.87697 0.70873,1.711014 2.1402,3.381224 3.18105,3.711577 1.9974,0.63395 2.62664,2.465866 0.847,2.465866 -1.76006,0 -5.83393,-4.671239 -6.54513,-7.504858 -0.98281,-3.915832 1.95904,-6.333229 9.13778,-7.508769 11.88522,-1.94624 27.08829,-0.420906 32.74467,3.285295 3.73315,2.446058 4.49508,7.261759 1.63125,10.310171 -1.24946,1.329989 -3.20581,2.431845 -4.34743,2.44857 -1.89008,0.02769 -1.91921,0.121551 -0.32569,1.04969 1.7385,1.01258 2.43525,2.992033 1,2.840954 -0.4125,-0.04342 -2.6625,-0.755921 -5,-1.583334 z m 90.5,-5.070594 c -2.0625,-0.846185 -3.71751,-1.814954 -3.6778,-2.152821 0.0397,-0.337867 1.63108,-1.910429 3.53639,-3.494582 3.48032,-2.893694 5.77389,-2.990431 3.41147,-0.143888 -1.74904,2.107463 0.73284,2.085971 3.75743,-0.03254 2.5396,-1.778803 2.89159,-4.643116 0.7854,-6.391102 -2.55553,-2.120904 -20.7786,-3.532702 -29.03361,-2.249324 -13.32372,2.071393 -18.77235,5.705195 -16.98736,11.329212 0.32607,1.027357 0.1211,1.86792 -0.45548,1.86792 -1.39432,0 -2.42903,-4.345243 -1.63239,-6.855214 C 516.84999,56.746564 530.82322,52 542.37505,52 c 8.63786,0 20.95634,2.01241 22.87495,3.736969 3.3752,3.033836 1.73177,8.199514 -3.26742,10.270246 -2.17127,0.89937 -2.77906,1.596304 -2.03821,2.33715 1.22254,1.222541 1.39905,2.700133 0.30563,2.558456 -0.4125,-0.05345 -2.4375,-0.789512 -4.5,-1.635696 z"
       id="path2993"
       style="fill:#fe0000" />
    <path
       d="m 216.17553,199 c -0.0746,-9.43469 0.2125,-13.94023 0.82197,-12.8976 0.56775,0.97126 0.61293,6.68242 0.11472,14.5 L 216.29025,213.5 216.17553,199 z m -8.51473,7.5419 c -0.96563,-7.04504 -0.8123,-12.733 0.49605,-18.40107 l 1.15685,-5.01174 1.84315,2.34318 c 2.48452,3.15855 2.74122,19.96913 0.31913,20.89858 -0.83822,0.32165 -1.89086,1.57645 -2.33921,2.78845 -0.67389,1.82171 -0.92971,1.36806 -1.47597,-2.6174 z m -97.5794,-9.84135 c -1.18299,-2.9147 -4.16026,-7.74901 -6.61615,-10.74291 -2.45589,-2.9939 -4.471395,-5.89665 -4.478905,-6.45055 -0.0075,-0.5539 -0.310546,-2.13209 -0.673415,-3.50709 -0.590475,-2.23746 -0.485364,-2.35698 1.00092,-1.13812 2.286,1.87468 4.51733,0.76924 6.11446,-3.02921 l 1.34466,-3.19801 1.94948,3.93267 c 1.07222,2.16297 2.98174,6.75473 4.24339,10.20392 1.26165,3.44918 2.68546,6.51324 3.16403,6.80901 1.38966,0.85886 1.00605,2.41974 -0.59469,2.41974 -2.17202,0 -3.75872,3.70577 -3.0223,7.05865 0.99232,4.51799 -0.0516,3.50559 -2.43148,-2.3581 z m 155.31947,-46.49247 c -1.70452,-0.93944 -5.28446,-3.5955 -7.95543,-5.90235 -4.76352,-4.11414 -4.82135,-4.23287 -3.02759,-6.21496 1.1689,-1.29162 1.6514,-2.9482 1.33728,-4.59139 -0.44008,-2.30214 -0.32237,-2.42174 1.12672,-1.14488 0.88998,0.7842 5.66815,3.47747 10.61815,5.98504 4.95,2.50758 8.28224,4.58201 7.40499,4.60985 -0.87726,0.0278 -2.43228,0.97578 -3.45561,2.10655 -1.53242,1.6933 -1.64795,2.39645 -0.65499,3.98643 0.66308,1.06177 1.20561,2.1616 1.20561,2.44406 0,1.06616 -3.61632,0.36563 -6.59913,-1.27835 z M 105.4433,131.77749 c 1.97582,-2.82088 1.96844,-4.66504 -0.0275,-6.87053 -1.78699,-1.9746 -2.47834,-1.36696 9.3342,-8.20407 5.35007,-3.09662 6.25,-3.35799 6.25,-1.81518 0,2.36623 3.52736,5.52243 5.0915,4.55574 0.78115,-0.48278 0.95921,-0.33452 0.49681,0.41366 -1.23386,1.99643 -19.94549,14.06308 -21.89501,14.11953 -0.44369,0.0128 -0.10619,-0.97677 0.75,-2.19915 z m 222.29423,-3.34382 c -1.3857,-2.16352 -4.12266,-5.46422 -6.08212,-7.33489 l -3.56267,-3.40122 1.95363,-2.48364 c 1.0745,-1.366 1.95363,-3.33054 1.95363,-4.36565 0,-1.50788 1.31888,-0.84554 6.63448,3.33183 9.15962,7.19826 12.40016,12.8199 7.38991,12.8199 -1.02167,0 -2.73729,1.20765 -3.81249,2.68367 l -1.95492,2.68367 -2.51945,-3.93367 z M 583.63434,112 c 0.44042,-4.675 0.85016,-10.525 0.91053,-13 0.0604,-2.475 0.41248,-5.2875 0.78245,-6.25 0.36997,-0.9625 0.88356,-2.425 1.1413,-3.25 0.66,-2.112615 3.11527,-1.863013 5.35843,0.544737 2.72509,2.925034 4.17435,17.698283 2.53856,25.877193 -0.62501,3.12509 -0.65123,3.13802 -1.77503,0.875 -1.81621,-3.65733 -5.18488,-3.48694 -7.64823,0.38687 l -2.10877,3.3162 0.80076,-8.5 z m 42.80236,4.60381 c -0.37047,-1.47607 -0.13876,-6.93274 0.51491,-12.12593 0.65367,-5.193198 0.87889,-9.943118 0.50049,-10.555381 -0.3784,-0.612262 -0.22572,-2.082796 0.33927,-3.267852 0.565,-1.185056 1.27896,-2.942147 1.58657,-3.904647 0.75423,-2.359958 3.11902,-2.206326 5.50789,0.357827 1.40557,1.508703 2.16366,4.241315 2.66711,9.613831 1.09752,11.712232 -0.67107,23.132282 -2.99909,19.365472 -1.11304,-1.80094 -4.34275,-1.22661 -5.94201,1.05665 l -1.50156,2.14379 -0.67358,-2.68376 z m -126.22061,-1.6294 c -1.33221,-2.13321 -4.68159,-2.64827 -5.76994,-0.88728 -2.32802,3.76681 -4.09661,-7.65324 -2.99909,-19.365472 0.50345,-5.372516 1.26154,-8.105128 2.66711,-9.613831 2.38887,-2.564153 4.75366,-2.717785 5.50789,-0.357827 0.30761,0.9625 1.02157,2.719591 1.58657,3.904647 0.56499,1.185056 0.72965,2.636209 0.36589,3.224785 -0.36376,0.588575 -0.12091,5.719701 0.53966,11.402498 1.2855,11.05892 0.54707,15.6078 -1.89809,11.69248 z m 32.83464,-2.66817 c -0.68105,-2.30658 -0.99972,-4.57975 -0.70816,-5.05151 0.29156,-0.47176 1.04098,-4.88457 1.66537,-9.80624 0.62438,-4.921669 1.82693,-10.46955 2.67232,-12.328624 l 1.53708,-3.380134 2.14133,2.535931 c 1.17773,1.394762 3.15647,3.045567 4.39719,3.668456 2.1623,1.085552 2.19067,1.258604 0.6839,4.172367 -1.58299,3.061176 -1.51701,3.932658 1.12692,14.883514 l 0.60359,2.5 -2.04614,-2.5 c -1.9454,-2.37691 -2.18347,-2.4245 -4.83514,-0.96658 -3.48388,1.91547 -4.04654,5.20903 -1.35048,7.90509 2.26969,2.26969 2.27813,2.25823 -1.79401,2.43649 -2.52633,0.11059 -2.99825,-0.35845 -4.09377,-4.06876 z m -81.96512,1.50015 c -0.5076,-1.26852 -1.17039,-3.09389 -1.47287,-4.05639 C 449.02312,107.87385 446,107.29564 446,109.05902 c 0,0.58246 0.45,0.7809 1,0.44098 1.63138,-1.00825 1.13654,2.14179 -0.55729,3.54754 -1.30878,1.0862 -1.95242,0.89729 -4.03357,-1.18386 -2.47473,-2.47472 -2.47533,-2.48038 -0.9575,-8.91999 0.83534,-3.544028 1.52545,-8.550548 1.53358,-11.125596 0.0127,-4.018092 0.42657,-4.975126 2.91915,-6.75 3.80412,-2.708775 5.28147,-2.609532 8.45927,0.56827 3.09143,3.091431 3.06504,2.897186 1.13636,8.363636 -0.87222,2.472126 -1.5,7.73157 -1.5,12.56671 0,8.41342 -1.22603,11.45901 -2.91439,7.23968 z M 403,113.27215 c 0,-0.16461 0.55922,-1.19474 1.24271,-2.28917 0.91966,-1.47263 0.95679,-2.4439 0.14281,-3.73644 -1.78423,-2.83323 -4.18617,-2.59974 -7.51661,0.7307 l -3.12505,3.12506 0.50028,-5.80115 c 0.33212,-3.85108 0.037,-6.712689 -0.87779,-8.512828 -1.27241,-2.503763 -1.20511,-2.798514 0.87779,-3.844203 1.24072,-0.622889 3.24504,-2.305772 4.45403,-3.739742 l 2.19817,-2.607217 1.13504,2.95142 c 0.92294,2.399917 4.96862,21.5226 4.96862,23.48515 0,0.29574 -0.9,0.5377 -2,0.5377 -1.1,0 -2,-0.13468 -2,-0.29928 z M 42.084441,111.15089 c -1.027465,-1.91422 -1.8925,-2.27537 -4.672665,-1.9508 -3.097332,0.3616 -3.410336,0.16336 -3.396155,-2.15089 0.0086,-1.40206 0.667562,-5.2492 1.464378,-8.5492 0.796817,-3.3 1.464788,-7.703333 1.484379,-9.785184 0.03368,-3.579095 0.154631,-3.721492 2.221442,-2.615368 1.892839,1.013016 2.496005,0.809203 4.5,-1.52058 L 46,81.888473 45.954896,94.694236 C 45.926393,102.78661 45.437844,108.6042 44.627561,110.5 l -1.282232,3 -1.260888,-2.34911 z"
       id="path2991"
       style="fill:#0000fe" />
    <path
       d="M 21.75,297.25228 36,296.94509 36,224.97254 C 36,184.51204 35.616895,153 35.125,153 c -0.48125,0 -1.165689,-1.45344 -1.520975,-3.22988 -0.504553,-2.52276 -0.216041,-3.56267 1.317828,-4.75 1.842134,-1.42594 1.895816,-2.04675 0.866442,-10.02012 -0.808724,-6.26424 -1.582776,-8.8437 -2.942829,-9.8067 -2.286763,-1.61917 -2.576972,-9.34131 -0.418386,-11.13278 0.953786,-0.79157 1.246305,-2.29836 0.882005,-4.54328 -0.299791,-1.84739 0.187203,-6.65703 1.082208,-10.68807 1.249689,-5.628516 1.717702,-14.514569 2.016956,-38.295491 0.256872,-20.412897 0.747688,-31.085658 1.440175,-31.316487 0.577775,-0.192592 2.176829,1.872534 3.553452,4.589169 2.212935,4.367017 2.682269,7.326011 4.050537,25.537266 2.146947,28.575238 2.043957,46.953013 -0.292286,52.156373 -1.959832,4.365 -2.115089,12.94504 -0.267672,14.79246 1.590673,1.59067 1.364077,5.24975 -0.416621,6.7276 -1.972426,1.63696 -3.141057,0.48641 -1.506459,-1.48316 C 44.347931,129.87584 43.705977,127 41.956634,127 c -0.749606,0 -1.025728,3.14263 -0.85667,9.75 0.137207,5.3625 -0.26842,11.55 -0.901392,13.75 -0.794279,2.76065 -1.15825,18.79476 -1.174715,51.75 L 39,250 l 9.5,0 c 5.666667,0 9.5,0.40351 9.5,1 0,0.59649 -3.833333,1 -9.5,1 l -9.5,0 0,22.5 0,22.5 20,0 20,0 0,-71.13398 c 0,-52.70929 -0.312992,-72.17866 -1.208398,-75.16726 -1.092855,-3.64762 -1.024624,-4.1368 0.713573,-5.11602 1.057085,-0.5955 4.46201,-3.45283 7.566501,-6.34961 4.409945,-4.11489 5.547441,-5.77476 5.200641,-7.58893 -0.559805,-2.92843 4.917175,-7.89354 8.228634,-7.4596 C 102.04313,124.51774 105,122.43894 105,120.31854 c 0,-0.79012 0.47035,-1.14588 1.04522,-0.7906 0.57486,0.35529 4.46037,-1.30565 8.63446,-3.69098 5.42387,-3.09954 10.09651,-6.98493 16.37679,-13.61766 4.83315,-5.104392 9.04269,-8.867881 9.35453,-8.363312 0.31184,0.504569 -0.10307,1.473487 -0.92201,2.15315 C 138.67005,96.688801 138,97.019773 138,96.74463 c 0,-0.275143 -3.6,3.187979 -8,7.69583 -8.0104,8.20673 -9.43064,11.12732 -6.56685,13.50406 2.13051,1.76816 4.89847,-0.15808 13.83977,-9.6312 4.24989,-4.50267 7.72708,-7.95644 7.72708,-7.67504 0,0.28139 -4.3875,5.24085 -9.75,11.021 -9.31568,10.04124 -14.29152,14.09758 -25.642,20.90359 -4.79538,2.87542 -5.09041,3.28563 -4.82065,6.70247 0.23499,2.97632 -0.18074,3.94631 -2.28121,5.32259 -3.280649,2.14957 -4.303458,1.20939 -1.61215,-1.48192 2.33022,-2.33022 1.87694,-5.99071 -0.49779,-4.01987 -0.753624,0.62546 -2.418347,0.87413 -3.69938,0.55261 -2.338882,-0.58702 -5.062093,0.76035 -9.407101,4.65438 l -2.21028,1.98087 4.436742,5.19326 c 3.779409,4.42385 4.860384,5.13109 7.296153,4.77359 3.952886,-0.58016 8.632786,4.78355 7.801266,8.94117 -0.41111,2.05553 -0.17075,2.81798 0.88835,2.81798 2.00052,0 4.06985,3.43361 7.60989,12.62696 3.53423,9.17825 17.93148,29.29637 29.79659,41.63651 5.40593,5.62236 7.16278,8.06532 6.37016,8.85794 -2.56844,2.56844 -8.53834,-1.30927 -23.10268,-15.00615 -12.19303,-11.46681 -14.9053,-14.56204 -17.18831,-19.61526 -1.49091,-3.3 -4.55846,-8.2241 -6.81676,-10.94244 -2.840372,-3.41898 -4.306301,-6.27807 -4.755794,-9.27551 -0.796373,-5.31059 -3.488917,-7.54642 -8.056105,-6.68961 -2.682552,0.50325 -3.460856,0.18165 -4.908932,-2.02839 -1.890929,-2.88592 -1.180013,-4.90026 0.810323,-2.29601 2.471232,3.23349 4.032828,2.48796 4.010667,-1.91473 -0.01524,-3.02716 -0.783328,-5.10225 -2.844962,-7.68601 -1.55325,-1.94663 -3.184528,-3.31656 -3.625064,-3.04429 C 82.360438,152.89527 82,174.92238 82,201.57214 l 0,48.45412 34.1712,-0.26313 34.1712,-0.26313 1.3549,-5.96699 c 0.74519,-3.28184 1.24188,-6.65684 1.10376,-7.5 -0.13813,-0.84315 0.0909,-2.0781 0.50901,-2.74432 1.49187,-2.37734 4.39475,-17.93983 3.93307,-21.08545 C 156.8122,209.26708 157.00037,209 159.5,209 c 3.08584,0 3.08362,-0.43542 0.0662,13 -0.92642,4.125 -4.57605,21.675 -8.11027,39 -3.53423,17.325 -6.66621,32.5125 -6.95995,33.75 l -0.53407,2.25 34.51905,0 34.51905,0 0,-16.37405 c 0,-15.45983 -0.13537,-16.61837 -2.42453,-20.75 -3.33767,-6.02402 -3.50361,-7.63936 -4.04188,-39.34499 -0.39016,-22.98191 -0.20266,-29.01937 1.05157,-33.85961 1.42292,-5.49123 1.40585,-6.0238 -0.25185,-7.85554 -1.07863,-1.19188 -1.80025,-3.60769 -1.83417,-6.14038 -0.0308,-2.29649 -0.65679,-5.25392 -1.39119,-6.57207 -1.15253,-2.06863 -1.11443,-2.52023 0.27839,-3.29969 C 205.27385,162.30699 206,161.24798 206,160.45031 206,159.65264 206.45,159 207,159 c 1.48585,0 1.21076,2.10963 -0.52523,4.02788 -2.29615,2.53722 0.25758,4.40458 4.05111,2.96228 l 2.76916,-1.05283 -0.62902,-8.86158 c -0.49737,-7.00707 -0.33235,-9.10779 0.78856,-10.03806 0.99994,-0.82987 1.98037,-0.87528 3.32787,-0.15412 1.70955,0.91492 1.97198,2.62753 2.49734,16.29716 0.33067,8.60405 0.19245,15.75025 -0.3165,16.36351 -1.15462,1.39122 -1.57222,6.66147 -0.64654,8.15926 0.38964,0.63045 0.27875,8.26757 -0.24642,16.97138 -0.52517,8.70382 -1.26346,22.68762 -1.64064,31.07512 l -0.68578,15.25 16.12805,0 C 241.95732,250 248,250.37467 248,251 c 0,0.625 -6,1 -16,1 l -16,0 0,22.5 0,22.5 43.5,0 43.5,0 0,-70.79645 0,-70.79645 -6.75,-1.133 c -3.7125,-0.62314 -8.89853,-0.87997 -11.5245,-0.57073 -3.60761,0.42484 -5.21696,0.16184 -6.58487,-1.0761 -1.5067,-1.36355 -2.35903,-1.4471 -5.08136,-0.49809 -4.24306,1.47914 -8.1864,-0.3296 -16.47977,-7.55896 -10.32256,-8.99823 -23.60464,-18.69198 -34.5795,-25.2374 -13.91562,-8.29929 -14.48871,-8.73306 -13.54828,-10.2547 1.26241,-2.04262 11.13949,-0.3125 18.02561,3.15746 3.31247,1.66918 8.37019,4.53385 11.23939,6.36593 2.8692,1.83209 7.3692,4.4267 10,5.76579 2.6308,1.3391 5.90828,3.65067 7.28328,5.13682 1.375,1.48615 6.92452,4.92838 12.33227,7.64939 10.48299,5.27472 11.71538,5.37528 19.4557,1.58752 1.95871,-0.9585 2.67063,-0.73697 4.94697,1.53937 1.46245,1.46244 2.33501,2.98298 1.93903,3.37896 -0.39599,0.39599 -1.41541,-0.2729 -2.26539,-1.48642 -2.06101,-2.9425 -3.31689,-1.95971 -2.51377,1.96713 0.50775,2.48259 1.40667,3.43254 4.12716,4.36146 7.0931,2.42195 8.97803,2.63557 8.97803,1.01752 0,-0.90851 0.90432,-1.51923 2.25,-1.51949 l 2.25,-4.4e-4 -0.30078,51.00044 -0.30078,51.00044 8.55078,0 c 5.03385,0 8.55078,0.4113 8.55078,1 0,0.58824 -3.5,1 -8.5,1 l -8.5,0 0,22.5 0,22.5 24,0 24,0 0,-70.99622 0,-70.99623 -9.62461,-9.25377 C 325.60384,127.70549 316.48939,117.58999 309.00625,106.5 298.97454,91.633019 290.60236,80.515648 287.04242,77.33435 c -2.76702,-2.472719 -3.28078,-3.434806 -2.34714,-4.395282 0.94555,-0.97272 2.14073,-0.964921 5.72042,0.03733 3.83147,1.072743 5.37134,2.359692 10.0452,8.395282 17.13313,22.12486 20.51472,25.96987 27.89577,31.71869 4.32116,3.36559 8.59616,7.40909 9.5,8.98554 1.49699,2.61104 1.99952,2.81194 5.64333,2.25603 2.2,-0.33564 4.19303,-0.77817 4.42897,-0.9834 0.23593,-0.20522 -0.55157,-1.69938 -1.75,-3.32035 -2.31707,-3.13399 -2.6363,-4.03236 -1.42897,-4.02136 1.26227,0.0115 5.16126,6.36799 5.2096,8.49317 0.025,1.1 0.30828,3.82509 0.62946,6.05576 0.61498,4.27119 -0.36642,5.90089 -3.96645,6.58663 -1.61411,0.30746 -1.2635,1.09137 2.5,5.58968 2.57008,3.07189 5.20314,5.23929 6.37739,5.24956 1.9776,0.0173 1.99663,0.58881 1.69922,51.01793 L 356.89844,250 l 13.05078,0 c 8.03385,0 13.05078,0.38442 13.05078,1 0,0.61538 -5,1 -13,1 l -13,0 0,22.5 0,22.5 20.5,0 20.5,0 -0.006,-70.25 c -0.004,-47.98738 -0.35401,-71.50506 -1.10508,-74.21034 -1.03032,-3.71115 -0.93247,-4.09354 1.55507,-6.07703 2.63553,-2.1015 2.64766,-2.17241 1.69018,-9.88462 -0.71559,-5.76391 -1.53982,-8.38046 -3.19485,-10.14216 -1.22675,-1.30581 -2.66604,-2.10501 -3.19842,-1.77598 -2.04667,1.26492 -4.73388,9.12734 -4.13793,12.10708 0.36151,1.80756 0.13776,3.27499 -0.56566,3.70973 C 387.36737,141.50902 384,138.1036 384,135.38203 c 0,-2.92815 3.35463,-11.54245 6.76902,-17.38203 2.13066,-3.64405 2.6451,-5.83148 2.70454,-11.5 0.0404,-3.85 -0.44864,-8.125 -1.08669,-9.5 -0.64645,-1.393107 -1.88809,-15.245222 -2.80434,-31.28603 -1.6188,-28.340624 -1.61369,-28.855101 0.33038,-33.25 2.13785,-4.832951 5.19697,-5.995694 6.98491,-2.654896 1.8506,3.45787 8.19888,49.361199 7.97805,57.687869 -0.20232,7.628882 2.00586,22.526417 4.30648,29.053667 0.84539,2.39852 0.7443,3.69055 -0.4729,6.04437 -0.92335,1.78556 -1.83869,7.33129 -2.26809,13.74162 -0.58389,8.71661 -1.11886,11.25479 -2.83066,13.43014 -2.07265,2.63393 -2.11586,3.56153 -2.3968,51.45777 L 400.9278,250 l 11.5361,0 c 7.02407,0 11.5361,0.39112 11.5361,1 0,0.6087 -4.5,1 -11.5,1 l -11.5,0 0,22.5 0,22.5 26.5,0 26.5,0 0,-71.77749 c 0,-62.99858 -0.18827,-72.04629 -1.53932,-73.97518 -1.37845,-1.96802 -1.38057,-2.43996 -0.0202,-4.51608 1.2661,-1.93231 1.35717,-3.72664 0.5469,-10.77482 -0.53469,-4.65104 -0.97558,-8.62403 -0.97975,-8.82887 -0.004,-0.20485 -0.66416,0.17245 -1.46663,0.83845 -1.95747,1.62455 -7.1636,0.41084 -8.90557,-2.07617 -1.31046,-1.87095 -1.41953,-1.82517 -2.63332,1.10517 -1.04679,2.52717 -1.00095,4.13563 0.26451,9.28098 1.47429,5.99448 1.04774,8.72401 -1.36334,8.72401 -1.55025,0 -3.68652,-5.41729 -4.40549,-11.17169 -0.61051,-4.88641 -0.28986,-6.8202 2.32125,-13.99896 4.05262,-11.14189 5.85433,-21.869258 7.18292,-42.766886 0.60973,-9.590645 1.55522,-18.140645 2.10109,-19 0.81376,-1.281091 0.9051,-1.202298 0.5072,0.437536 -0.26691,1.1 -0.75695,5.6 -1.08898,10 -0.33203,4.4 -0.86162,10.204802 -1.17687,12.89956 l -0.57318,4.899559 3.01878,-2.149559 c 4.02562,-2.866489 5.48773,-2.718029 9.13312,0.927363 L 458,88.153846 458.22026,72.826923 458.44052,57.5 l 0.30834,14.437163 c 0.2648,12.398816 0.0219,15.285278 -1.72026,20.444172 -2.44264,7.233039 -2.68556,19.149215 -0.51727,25.373595 1.75562,5.03974 1.82298,10.51602 0.9902,80.49507 l -0.60395,50.75 10.05121,0 c 6.03414,0 10.05121,0.39966 10.05121,1 0,0.6 -4,1 -10,1 l -10,0 0,23 0,23 20.02505,0 20.02505,0 -0.27505,-73.34681 c -0.2154,-57.43914 -0.55008,-73.67809 -1.54315,-74.87427 -0.89932,-1.08326 -1.21081,-5.12646 -1.07112,-13.90319 0.19157,-12.036 -0.49904,-18.22447 -2.28511,-20.47662 -2.46083,-3.103 -2.20076,-13.47197 1.6529,-65.89911 0.80855,-11 1.5829,-22.25 1.72076,-25 0.3467,-6.915487 2.5134,-6.593499 5.37685,0.79904 2.12906,5.496562 2.25824,7.378283 2.47665,36.075874 0.12674,16.652258 -0.0891,30.793843 -0.47963,31.425744 -0.39054,0.631901 -0.16857,5.807255 0.49325,11.500782 1.13701,9.78146 1.35213,10.41775 3.90403,11.54733 1.48539,0.6575 3.44089,0.91142 4.34556,0.56426 1.21572,-0.46651 2.03479,0.30204 3.13941,2.94577 1.72101,4.11895 1.8759,5.6412 0.57401,5.6412 -0.5063,0 -1.21706,-1.35 -1.57946,-3 -0.97611,-4.44419 -3.5313,-3.96771 -2.80262,0.52262 C 511.46649,126.26205 509.0105,129 503.99005,129 l -3.69998,0 -0.61624,7.25 c -0.56533,6.65097 -0.43679,7.3868 1.55567,8.9057 1.93222,1.47297 2.01182,1.8485 0.72121,3.40275 -1.21607,1.46448 -1.49688,9.80926 -1.73617,51.5943 L 499.92907,250 l 8.53547,0 c 5.02364,0 8.53546,0.41144 8.53546,1 0,0.58824 -3.5,1 -8.5,1 l -8.5,0 0,22.5 0,22.5 18.03682,0 18.03683,0 -0.28683,-73.34696 c -0.23705,-60.62024 -0.52654,-73.6357 -1.66841,-75.01102 -1.0193,-1.2277 -1.49857,-6.31566 -1.82769,-19.40304 C 532.04537,119.48254 531.8042,110.375 531.7548,109 c -0.0494,-1.375 0.48501,-6.58907 1.18759,-11.586825 0.98649,-7.017327 1.02464,-11.41039 0.16751,-19.289219 -0.61044,-5.611316 -1.04372,-13.222245 -0.96283,-16.913175 0.11519,-5.256248 0.31284,-4.235618 0.9119,4.708884 0.42065,6.280815 1.06882,13.446844 1.44037,15.924509 l 0.67554,4.504845 1.57662,-3.255354 c 1.39322,-2.876694 1.42955,-4.707658 0.31225,-15.740873 -0.69539,-6.867036 -1.05208,-12.697795 -0.79263,-12.957242 0.25944,-0.259447 1.01988,5.507917 1.68985,12.816364 0.66997,7.308447 1.72442,14.338977 2.34322,15.6234 1.13911,2.36443 6.42852,5.765308 7.42187,4.771963 0.70059,-0.700595 -1.51582,-18.25822 -3.34581,-26.50425 -0.7808,-3.518334 -1.22453,-6.592077 -0.98607,-6.830538 0.61602,-0.616027 3.29827,12.6264 4.67653,23.088352 1.10366,8.377488 1.04641,9.119027 -1.0495,13.593883 -2.15583,4.602773 -2.17279,4.904985 -0.61636,10.980336 0.88027,3.43601 1.32922,6.6862 0.99768,7.22265 -1.03483,1.67439 2.82749,3.78955 4.89718,2.68189 2.05792,-1.10136 4.70029,0.46308 4.70029,2.78284 0,1.92159 -1.653,1.7242 -2.42579,-0.28966 -0.47385,-1.23483 -0.9315,-1.37549 -1.76461,-0.54238 -0.83312,0.83312 -0.79522,1.522 0.14613,2.65626 0.80575,0.97086 1.03694,2.77886 0.63162,4.93941 -0.43694,2.3291 0.002,5.03519 1.38665,8.54798 2.53475,6.4307 2.55675,9.27565 0.089,11.50892 -2.56075,2.31745 -4.41485,1.06623 -3.70196,-2.49823 0.3094,-1.54699 -0.12288,-4.8243 -0.96061,-7.28291 -1.46355,-4.29528 -1.69683,-4.48402 -5.9618,-4.82322 -2.44125,-0.19416 -4.44206,-0.12478 -4.44623,0.15418 -0.004,0.27897 -0.45059,4.33221 -0.99204,9.00721 -0.90064,7.77629 -0.81677,8.7281 0.98508,11.17907 1.79683,2.44413 1.84052,2.92645 0.49821,5.5 -1.23429,2.36644 -1.47233,10.43352 -1.4775,50.07093 L 539,250 l 9,0 c 5.33333,0 9,0.40741 9,1 0,0.59259 -3.66667,1 -9,1 l -9,0 0,22.5 0,22.5 25.03682,0 25.03683,0 -0.28683,-73.45054 C 588.56379,166.43439 588.222,149.82105 587.25,148.84946 586.49505,148.09483 586,144.90695 586,140.8 l 0,-6.8 -3.84501,0 c -6.49527,0 -8.55827,-4.20924 -5.63629,-11.5 0.70819,-1.76704 0.49216,-1.71804 -1.85463,0.42061 -3.42477,3.12103 -4.75986,1.87471 -1.5976,-1.49137 1.91324,-2.03654 3.03645,-2.44491 5.46931,-1.98851 l 3.06161,0.57437 1.22952,-11.05739 c 0.67624,-6.08156 0.91421,-11.56757 0.52882,-12.191136 -0.38538,-0.623566 -0.59391,-14.080245 -0.4634,-29.903731 0.22368,-27.119756 0.36607,-29.102454 2.4825,-34.566409 2.86226,-7.389455 5.0277,-7.710029 5.37984,-0.796434 0.14006,2.75 1.20171,17.375 2.35922,32.5 2.57475,33.643783 2.91822,51.64275 1.05267,55.16367 -1.19049,2.24686 -0.93559,3.66869 2.37772,13.26306 3.33301,9.65138 3.55508,10.90248 2.1794,12.27816 -1.73267,1.73268 -4.13579,0.81142 -3.33396,-1.2781 0.28934,-0.754 -0.57457,-3.29598 -1.91978,-5.64885 l -2.44585,-4.27794 -0.012,6.12803 c -0.0103,5.24194 0.31131,6.34273 2.22422,7.61285 2.01539,1.33817 2.08947,1.66161 0.75,3.27471 -1.26188,1.51966 -1.52941,9.23995 -1.77205,51.13714 L 591.92844,251 l 8.53578,0 c 5.02385,0 8.53578,0.41144 8.53578,1 0,0.58824 -3.5,1 -8.5,1 l -8.5,0 0,22 0,22 20.02537,0 20.02536,0 -0.27536,-72.45042 c -0.21409,-56.32736 -0.55354,-72.72851 -1.52537,-73.7 C 629.42918,150.02904 629,146.40689 629,140.3 l 0,-9.3 -3.84501,0 c -5.17304,0 -7.6306,-2.68171 -6.85237,-7.47738 0.70698,-4.3566 -1.03019,-4.70462 -2.60872,-0.52262 -0.62281,1.65 -1.48372,3 -1.91314,3 -1.16256,0 -0.95376,-1.65018 0.71379,-5.6412 1.10462,-2.64373 1.92369,-3.41228 3.13941,-2.94577 0.90467,0.34716 2.86017,0.0932 4.34556,-0.56426 2.5519,-1.12958 2.76702,-1.76587 3.90403,-11.54733 0.66182,-5.693527 0.88115,-10.87314 0.4874,-11.510246 -0.39375,-0.637107 -0.60913,-14.104865 -0.47862,-29.928351 0.22368,-27.119756 0.36607,-29.102454 2.4825,-34.566409 2.86226,-7.389455 5.0277,-7.710029 5.37984,-0.796434 0.14006,2.75 1.20171,17.375 2.35922,32.5 2.43305,31.792217 2.88868,51.55464 1.26975,55.07351 C 635.21761,120.78156 634,128.1232 634,136.4754 c 0,7.35692 0.27755,8.70527 2.15127,10.45091 1.87901,1.75055 1.97393,2.21779 0.75,3.69169 -1.1511,1.38621 -1.45229,10.49732 -1.68705,51.03473 L 634.92844,251 l 8.03578,0 c 4.69052,0 8.03578,0.4163 8.03578,1 0,0.58333 -3.33333,1 -8,1 l -8,0 0,21.97178 0,21.97178 13.75,0.30887 c 7.5625,0.16989 -133.625,0.30847 -313.75,0.30796 -180.125,-5e-4 -321.0875,-0.13915 -313.25,-0.30811 z M 141,296.67933 c 0,-0.6393 7.84996,-39.25193 8.52425,-41.92933 L 150.21682,252 116.10841,252 82,252 l 0,22.5 0,22.5 29.5,0 c 16.225,0 29.5,-0.1443 29.5,-0.32067 z M 213,234.5 c 0,-15.60772 -0.38878,-27.5 -0.89903,-27.5 -0.49447,0 -1.82149,1.76977 -2.94894,3.93283 -1.95145,3.74394 -2.01205,4.8846 -1.26163,23.75 0.64152,16.12796 1.1319,20.51528 2.63415,23.56717 1.01523,2.0625 1.98753,3.75 2.16066,3.75 C 212.85835,262 213,249.625 213,234.5 z m -64,-4.2813 c 0,-0.42972 -2.72803,-3.46722 -6.0623,-6.75 -3.33426,-3.28279 -10.18305,-11.4812 -15.21951,-18.2187 -6.89074,-9.21803 -9.70497,-12.25 -11.37031,-12.25 -2.57449,0 -3.67593,2.54695 -2.88229,6.66496 l 0.54637,2.83504 -1.12192,-2.84783 c -1.3178,-3.34501 0.1392,-7.65217 2.58852,-7.65217 1.64637,0 2.06287,-1.54735 0.65131,-2.41974 -0.47857,-0.29577 -1.90238,-3.35983 -3.16403,-6.80901 -1.26165,-3.44919 -3.17117,-8.04095 -4.24339,-10.20392 l -1.94948,-3.93267 -1.34466,3.19801 c -1.59713,3.79845 -3.82846,4.90389 -6.11446,3.02921 -1.486284,-1.21886 -1.591395,-1.09934 -1.00092,1.13812 0.362869,1.375 0.665905,2.95825 0.673415,3.51833 0.0075,0.56008 1.875945,3.26008 4.152075,6 2.27613,2.73992 5.36399,7.68167 6.8619,10.98167 2.26518,4.99034 5.00463,8.14784 16.27953,18.76377 12.22609,11.51155 17.79351,15.58196 21.47015,15.69709 0.6875,0.0215 1.25,-0.31245 1.25,-0.74216 z m 67.9975,-44.1163 c -0.60947,-1.04263 -0.89661,3.46291 -0.82197,12.8976 l 0.11472,14.5 0.82197,-12.8976 c 0.49821,-7.81758 0.45303,-13.52874 -0.11472,-14.5 z m -5.52152,20.26845 c 2.42209,-0.92945 2.16539,-17.74003 -0.31913,-20.89858 l -1.84315,-2.34318 -1.15685,5.01174 c -1.30835,5.66807 -1.46168,11.35603 -0.49605,18.40107 0.54626,3.98546 0.80208,4.43911 1.47597,2.6174 0.44835,-1.212 1.50099,-2.4668 2.33921,-2.78845 z m 1.41291,-27.94719 c 0,-6.49163 -0.2068,-7.40471 -1.44445,-6.37755 -1.6014,1.32904 -1.95421,5.5208 -0.53832,6.39587 0.49837,0.30801 0.67264,1.45284 0.38728,2.54407 -0.50812,1.94303 0.17765,5.01395 1.11966,5.01395 0.26171,0 0.47583,-3.40935 0.47583,-7.57634 z M 218.15312,173 c 0.38137,2.9328 0.45908,2.23627 0.22313,-2 -0.19912,-3.575 -0.36523,-10.38936 -0.36914,-15.14301 -0.006,-7.14124 -0.2968,-8.75418 -1.67433,-9.28278 -0.91697,-0.35188 -2.13197,-0.17502 -2.7,0.39301 -0.71037,0.71037 -0.42021,1.03278 0.92952,1.03278 1.88306,0 1.95676,0.73691 1.82505,18.25 -0.0928,12.34007 0.0761,15.65934 0.52167,10.25 0.60603,-7.35772 0.70591,-7.63872 1.2441,-3.5 z m -113.98457,-0.47058 c 0.94581,-2.07582 0.80845,-2.75491 -0.85964,-4.25 C 102.21698,167.30074 97.585939,162.1125 93.017704,156.75 88.449469,151.3875 84.326662,147 83.855911,147 c -2.257013,0 -0.300686,4.02454 5.234777,10.76895 3.349878,4.08149 6.771861,9.06568 7.604405,11.07597 2.796449,6.75241 5.474137,8.07254 7.473457,3.6845 z M 104,164.05177 c 0,-1.00661 -0.80656,-2.82626 -1.79235,-4.04366 -1.60827,-1.98613 -1.92656,-2.05173 -3.099224,-0.63876 -1.100698,1.32626 -0.936251,2.0319 1.042344,4.47269 2.51112,3.0977 3.84923,3.17061 3.84923,0.20973 z m 198.54053,-10.98618 c -0.31762,-0.51393 -3.15668,-1.65991 -6.30901,-2.54662 -3.15234,-0.88671 -9.45693,-2.79973 -14.01022,-4.25117 -7.8,-2.48638 -8.37725,-2.54042 -9.98305,-0.93462 -2.91437,2.91437 -0.55913,4.92019 6.12492,5.21624 3.17646,0.14069 6.08171,0.58832 6.45611,0.99473 0.37439,0.40641 -1.01686,0.47689 -3.09169,0.15663 -2.45691,-0.37925 -3.55129,-0.22453 -3.13831,0.44368 0.38423,0.6217 2.85586,0.79617 6.27241,0.44277 3.10107,-0.32077 7.21331,-0.18019 9.13831,0.31241 4.75953,1.21795 9.24456,1.30509 8.54053,0.16595 z m 50.58317,-2.10708 c -0.34303,-1.67281 -3.04008,-5.94164 -5.99342,-9.48629 -2.95335,-3.54464 -6.10335,-7.91347 -7,-9.70851 -2.16462,-4.33343 -5.6563,-4.89809 -7.34669,-1.18809 -1.11812,2.454 -1.00439,2.86509 1.19464,4.31829 1.33672,0.88335 6.27596,5.49974 10.97609,10.25864 4.70012,4.75891 8.60135,8.69641 8.66938,8.75 0.068,0.0536 -0.15696,-1.27122 -0.5,-2.94404 z M 272,151.48643 c 0,-0.28246 -0.54253,-1.38229 -1.20561,-2.44406 -0.99296,-1.58998 -0.87743,-2.29313 0.65499,-3.98643 1.02333,-1.13077 2.57835,-2.07872 3.45561,-2.10655 0.87725,-0.0278 -2.45499,-2.10227 -7.40499,-4.60985 -4.95,-2.50757 -9.72817,-5.20084 -10.61815,-5.98504 -1.44909,-1.27686 -1.5668,-1.15726 -1.12672,1.14488 0.31412,1.64319 -0.16838,3.29977 -1.33728,4.59139 -1.79376,1.98209 -1.73593,2.10082 3.02759,6.21496 2.67097,2.30685 6.25091,4.96291 7.95543,5.90235 2.98281,1.64398 6.59913,2.34451 6.59913,1.27835 z m 267.09601,-4.15782 c -1.91463,-2.60359 -2.00586,-3.47448 -1.14679,-10.9476 C 539.01732,127.08952 538.29416,117 536.5601,117 c -3.61939,0 -4.16726,4.13898 -2.90387,21.93771 0.51161,7.20759 1.00745,9.35092 2.25,9.72578 0.87657,0.26444 2.26877,0.84557 3.09377,1.29138 2.33209,1.2602 2.36154,0.4545 0.096,-2.62626 z M 403.94323,148 c 0.4414,-0.825 1.11482,-5.92737 1.4965,-11.3386 l 0.69395,-9.8386 -2.31684,0.70099 c -3.5446,1.07248 -3.64892,1.4454 -2.65078,9.47621 0.91307,7.34639 0.87995,7.54173 -1.61695,9.53756 -1.40201,1.12067 -2.54911,2.24567 -2.54911,2.5 0,1.21286 6.23792,0.28069 6.94323,-1.03756 z M 455.5,147.83647 c 1.89433,-0.37403 1.98449,-1.07295 1.70643,-13.22785 -0.17966,-7.85392 -0.85299,-14.43838 -1.73544,-16.97079 C 453.58191,112.21666 453.59765,99.391829 455.5,94 c 1.92868,-5.46645 1.95507,-5.272205 -1.13636,-8.363636 -3.1778,-3.177802 -4.65515,-3.277045 -8.45927,-0.56827 -2.49258,1.774874 -2.90647,2.731908 -2.91915,6.75 -0.008,2.575048 -0.69824,7.581568 -1.53358,11.125596 -1.51783,6.43961 -1.51723,6.44527 0.9575,8.91999 2.08115,2.08115 2.72479,2.27006 4.03357,1.18386 1.69383,-1.40575 2.18867,-4.55579 0.55729,-3.54754 -0.55,0.33992 -1,0.10848 -1,-0.51431 0,-2.51707 3.3206,-0.25243 4.41982,3.01431 0.64774,1.925 1.68934,3.39714 2.31467,3.27143 0.78734,-0.15829 1.02349,1.8255 0.76799,6.45143 -0.20292,3.674 0.0419,10.28225 0.54404,14.685 0.74333,6.51746 0.63801,8.42466 -0.56677,10.26338 -0.81386,1.24212 -1.47286,2.61173 -1.46444,3.04358 0.008,0.43185 0.34592,0.27474 0.75,-0.34914 0.40408,-0.62387 1.63469,-1.31202 2.73469,-1.52921 z m 136.58585,-0.48889 c -2.43315,-1.70425 -2.44426,-2.07463 -0.83553,-27.84758 0.21503,-3.44482 -0.0537,-4.04319 -1.93633,-4.31117 -1.5475,-0.22027 -2.63115,0.50996 -3.70997,2.5 -0.83817,1.54615 -1.54196,2.3488 -1.56398,1.78368 -0.022,-0.56513 0.67841,-2.05323 1.55652,-3.3069 1.98716,-2.83707 5.42577,-2.52668 6.99402,0.63132 1.1238,2.26302 1.15002,2.25009 1.77503,-0.875 1.63579,-8.17891 0.18653,-22.952159 -2.53856,-25.877193 -2.33558,-2.50695 -4.7012,-2.634904 -5.44911,-0.294737 -0.30761,0.9625 -1.02157,2.719591 -1.58657,3.904647 -0.56499,1.185056 -0.72965,2.636209 -0.36589,3.224785 0.36376,0.588575 0.11211,5.795448 -0.55923,11.570828 -1.12042,9.63877 -1.07631,10.66014 0.53742,12.44329 1.39552,1.54204 1.896,4.58699 2.42718,14.76708 l 0.66915,12.82448 3,0.57058 c 3.93806,0.749 4.3935,0.25844 1.58585,-1.70811 z M 637,149.5 c 0,-0.275 -0.93982,-1.43982 -2.08848,-2.58848 -2.16118,-2.16118 -2.20934,-4.02077 -0.68401,-26.41152 0.23511,-3.45132 -0.0269,-4.04262 -1.90985,-4.31068 -3.47714,-0.49502 -4.54204,2.69686 -3.35014,10.04151 0.55955,3.44804 1.02077,10.20667 1.02493,15.01917 L 630,150 l 3.5,0 c 1.925,0 3.5,-0.225 3.5,-0.5 z M 40.450387,146.15632 c 0.32184,-1.01403 0.118392,-7.16819 -0.452106,-13.67592 -1.034523,-11.80093 -0.15844,-19.31545 2.089898,-17.9259 0.509848,0.3151 0.40135,-0.58075 -0.241106,-1.99079 -1.60378,-3.51992 -6.363322,-3.62726 -7.232764,-0.16313 -0.331379,1.32032 0.283925,8.85782 1.367341,16.75 1.961338,14.28743 1.961312,14.35659 -0.0059,16.00971 C 33.289627,147.41754 33.485892,148 36.932612,148 c 1.971474,0 3.124395,-0.60425 3.517775,-1.84368 z m 45.119614,-1.50486 c 2.1615,-1.8417 7.079999,-5.44858 10.929999,-8.0153 9.22366,-6.14922 9.5,-6.39987 9.5,-8.61657 0,-5.3995 -3.87571,-3.32916 -16.109923,8.60566 C 84.604619,141.78136 79.767119,146 79.140077,146 78.513034,146 78,146.45 78,147 c 0,2.05798 3.771611,0.88786 7.570001,-2.34854 z M 502,147.06739 c 0,-0.51294 -0.9315,-1.22826 -2.07,-1.58961 -1.90804,-0.60558 -2.02125,-1.17811 -1.44692,-7.31738 0.3427,-3.66322 1.05592,-9.71492 1.58494,-13.44823 1.11536,-7.87108 0.10239,-11.01943 -3.38568,-10.52285 -1.90202,0.27077 -2.13515,0.82448 -1.81499,4.31068 0.20204,2.2 0.30154,9.7375 0.22111,16.75 l -0.14623,12.75 3.52889,0 C 500.412,148 502,147.58032 502,147.06739 z m 96.55178,-3.34172 c 0.26895,-0.70089 -1.06095,-5.72461 -2.95534,-11.16384 -3.42688,-9.83935 -3.44796,-9.87019 -4.15853,-6.08256 -0.58295,3.10742 -0.18782,4.83717 2.15043,9.41383 1.57554,3.08379 2.768,6.3944 2.64992,7.3569 -0.24662,2.01033 1.58046,2.38598 2.31352,0.47567 z m -159.08851,-1.309 c -0.0202,-0.50417 -0.62395,-3.54919 -1.34167,-6.76671 -1.23991,-5.55853 -1.17926,-6.1316 1.21699,-11.5 3.54956,-7.9522 4.06548,-10.56972 2.36197,-11.98351 -1.1904,-0.98794 -1.96737,0.24393 -4.66959,7.40356 -2.82069,7.47351 -3.15117,9.31237 -2.54524,14.16211 0.80648,6.45481 2.39506,10.47428 3.93658,9.96044 0.59273,-0.19757 1.06116,-0.77173 1.04096,-1.27589 z M 554.8,140.8 c 2.04887,-2.04887 1.36982,-5.34498 -3.81923,-18.53837 -6.18461,-15.72465 -7.0522,-17.00574 -10.46398,-15.45123 -3.53785,1.61195 -3.13955,4.11023 1.43792,9.01912 5.61884,6.02566 10.57282,16.48614 10.36392,21.88374 -0.17131,4.42643 0.41381,5.1543 2.48137,3.08674 z m -166.19131,-4.00653 c -0.79837,-3.99187 2.93787,-12.1116 8.07899,-17.55756 7.06442,-7.48331 8.9794,-11.65896 5.89046,-12.8443 -2.41608,-0.92713 -5.38553,1.42627 -8.04018,6.37214 -8.4738,15.78752 -10.85201,22.94799 -8.54498,25.72779 2.10256,2.53343 3.30579,1.75232 2.61571,-1.69807 z m -134.61779,0.71749 c 2.1417,-2.58059 0.35553,-8.4179 -3.16464,-10.34223 -1.67894,-0.9178 -6.71418,-3.85639 -11.18944,-6.5302 -13.12467,-7.84153 -18.82282,-10.39291 -24.90949,-11.15339 -6.99384,-0.87383 -7.57229,0.53298 -1.49415,3.63382 7.26872,3.70822 19.44039,11.64033 29.007,18.90346 5.05478,3.83767 9.4885,6.97758 9.85272,6.97758 0.36421,0 1.21832,-0.67007 1.898,-1.48904 z m 91.82865,-3.65883 c -0.32774,-2.20289 -3.26808,-4.73694 -4.29956,-3.70545 -0.31677,0.31677 -0.12449,1.76335 0.42728,3.21463 1.23171,3.23964 4.33985,3.6336 3.87228,0.49082 z m -235.69416,-2.62549 c 7.25587,-4.27729 15.67178,-10.08944 16.46292,-11.36953 0.4624,-0.74818 0.28434,-0.89644 -0.49681,-0.41366 -1.56414,0.96669 -5.0915,-2.18951 -5.0915,-4.55574 0,-1.54281 -0.89993,-1.28144 -6.25,1.81518 -11.81254,6.83711 -11.12119,6.22947 -9.3342,8.20407 1.99594,2.20549 2.00332,4.04965 0.0275,6.87053 -2.03204,2.90114 -0.95976,2.77499 4.68209,-0.55085 z m 475.80432,0.0234 c -0.0386,-0.9625 -0.41798,-2.63996 -0.84295,-3.7277 -0.75516,-1.93287 -0.7989,-1.92869 -1.92972,0.18426 C 581.41582,130.96006 581.74067,133 584,133 c 1.26487,0 1.97417,-0.64324 1.92971,-1.75 z M 336.02439,127 c 5.01025,0 1.76971,-5.62164 -7.38991,-12.8199 C 323.31888,110.00273 322,109.34039 322,110.84827 c 0,1.03511 -0.87913,2.99965 -1.95363,4.36565 l -1.95363,2.48364 3.56267,3.40122 c 1.95946,1.87067 4.69642,5.17137 6.08212,7.33489 l 2.51945,3.93367 1.95492,-2.68367 C 333.2871,128.20765 335.00272,127 336.02439,127 z m -235.10772,-1.75 c 0.22916,-0.1375 -0.47233,-0.25 -1.558874,-0.25 -2.786294,0 -5.826825,2.43208 -4.905075,3.9235 0.556658,0.90069 1.461409,0.60867 3.402775,-1.09829 1.454477,-1.27887 2.832004,-2.43771 3.061174,-2.57521 z m 527.05153,1 c -0.0298,-3.5142 -0.12413,-3.62794 -1.5,-1.80887 C 624.56633,126.95562 624.58375,130 626.5,130 c 1.07232,0 1.49093,-1.0692 1.4682,-3.75 z m -176.60034,-0.3648 c 2.33495,-3.33361 1.03957,-5.04737 -3.23388,-4.27836 -6.09586,1.09696 -7.98982,3.71165 -3.88398,5.362 3.63126,1.45959 5.54006,1.16899 7.11786,-1.08364 z M 504,126.19113 c 0,-0.99488 -0.66069,-2.68238 -1.4682,-3.75 -1.37587,-1.81907 -1.47019,-1.70533 -1.5,1.80887 -0.0227,2.6808 0.39588,3.75 1.4682,3.75 0.825,0 1.5,-0.81399 1.5,-1.80887 z m -96.52568,-3.14147 c 1.94324,-3.75782 1.92468,-5.5078 -0.0797,-7.51218 -1.68516,-1.68515 -5.23705,-1.23291 -6.65458,0.8473 -1.53529,2.25302 1.82549,9.61522 4.38926,9.61522 0.45063,0 1.50589,-1.32765 2.34501,-2.95034 z m 138.83222,-0.12654 C 543.67827,118.44667 542.29381,117.51127 540.5,119 c -1.81865,1.50935 -1.98155,5.63902 -0.25,6.33772 0.6875,0.27741 2.73794,0.53991 4.55654,0.58333 l 3.30653,0.079 -1.80653,-3.07688 z M 33.084869,116.89518 c -0.880954,-2.20233 -0.9632,-2.22744 -1.021483,-0.31185 -0.03486,1.14584 0.236614,2.38334 0.603281,2.75 1.194376,1.19438 1.397514,0.0101 0.418202,-2.43815 z M 631.99769,115 c 1.03635,0 2.18662,0.48921 2.55616,1.08713 2.32802,3.76681 4.09661,-7.65324 2.99909,-19.365472 -0.50345,-5.372516 -1.26154,-8.105128 -2.66711,-9.613831 -2.38887,-2.564153 -4.75366,-2.717785 -5.50789,-0.357827 -0.30761,0.9625 -1.02157,2.719591 -1.58657,3.904647 -0.56499,1.185056 -0.71767,2.65559 -0.33927,3.267852 0.3784,0.612263 0.15318,5.362183 -0.50049,10.555381 -0.65367,5.19319 -0.88538,10.64986 -0.51491,12.12593 l 0.67358,2.68376 1.50156,-2.14379 C 629.4377,115.9647 630.96133,115 631.99769,115 z M 502.11418,103.28193 c -0.66057,-5.682797 -0.90342,-10.813923 -0.53966,-11.402498 0.36376,-0.588576 0.1991,-2.039729 -0.36589,-3.224785 -0.565,-1.185056 -1.27896,-2.942147 -1.58657,-3.904647 -0.75423,-2.359958 -3.11902,-2.206326 -5.50789,0.357827 -1.40557,1.508703 -2.16366,4.241315 -2.66711,9.613831 -1.09752,11.712232 0.67107,23.132282 2.99909,19.365472 1.08835,-1.76099 4.43773,-1.24593 5.76994,0.88728 2.44516,3.91532 3.18359,-0.63356 1.89809,-11.69248 z M 540.5,116.125 c 0.275,-0.0687 -0.42767,-1.05267 -1.56149,-2.18649 -2.69606,-2.69606 -2.1334,-5.98962 1.35048,-7.90509 2.65167,-1.45792 2.88974,-1.41033 4.83514,0.96658 l 2.04614,2.5 -0.60359,-2.5 c -2.64393,-10.950856 -2.70991,-11.822338 -1.12692,-14.883514 1.50677,-2.913763 1.4784,-3.086815 -0.6839,-4.172367 -1.24072,-0.622889 -3.21946,-2.273694 -4.39719,-3.668456 l -2.14133,-2.535931 -1.53708,3.380134 c -0.84539,1.859074 -2.04794,7.406955 -2.67232,12.328624 -0.62439,4.92167 -1.37381,9.33448 -1.66537,9.80624 -0.29156,0.47176 0.0271,2.74493 0.70816,5.05151 1.09552,3.71031 1.56744,4.17935 4.09377,4.06876 1.57052,-0.0687 3.0805,-0.18125 3.3555,-0.25 z m -220.53518,-2.05926 c 1.82306,-3.40642 1.18575,-4.79927 -6.99093,-15.278997 -4.41436,-5.657708 -10.33657,-13.285979 -13.16047,-16.951712 -4.23897,-5.502636 -5.89616,-6.878257 -9.50257,-7.88799 -5.83091,-1.632553 -6.59541,-0.443499 -2.18355,3.39613 3.33301,2.900711 16.75097,20.973268 24.84032,33.457259 3.59727,5.55153 5.33872,6.3642 6.9972,3.26531 z m 87.03501,-1.03003 c -10e-5,-0.29464 -0.72849,-4.13571 -1.61866,-8.53571 -0.89017,-4.4 -1.55279,-11.876296 -1.4725,-16.613992 0.12933,-7.631246 -5.83222,-52.917242 -7.55827,-57.415253 -1.15418,-3.00775 -4.14546,-1.574685 -5.8012,2.779245 -1.48158,3.895934 -1.48852,6.416049 -0.0834,30.25 0.84305,14.3 1.53313,26.799056 1.53351,27.77568 6.3e-4,1.620636 0.2439,1.649914 2.78605,0.335314 5.5145,-2.851658 5.56951,-3.642112 2.24914,-32.317669 -3.31692,-28.645761 -3.24025,-27.832406 -2.55967,-27.151833 0.26115,0.261155 1.8699,12.598655 3.575,27.416667 1.7051,14.818013 3.51642,27.369341 4.02517,27.891841 0.50875,0.5225 0.89648,1.6475 0.86161,2.5 -0.0353,0.86273 -0.49877,0.459416 -1.04531,-0.909595 l -0.98192,-2.459595 -2.20469,2.615392 c -1.21258,1.438466 -3.21983,3.125028 -4.46055,3.747917 -2.0829,1.045689 -2.1502,1.34044 -0.87779,3.844203 0.91484,1.800139 1.20991,4.661748 0.87779,8.512828 l -0.50028,5.80115 3.12505,-3.12506 c 3.33044,-3.33044 5.73238,-3.56393 7.51661,-0.7307 0.81398,1.29254 0.77685,2.26381 -0.14281,3.73644 -1.60458,2.56933 -1.59898,2.58845 0.75729,2.58845 1.1,0 1.99992,-0.24107 1.99983,-0.53572 z M 45.954896,94.694236 46,81.888473 43.68582,84.578868 c -2.003995,2.329783 -2.607161,2.533596 -4.5,1.52058 -2.066811,-1.106124 -2.187759,-0.963727 -2.221442,2.615368 C 36.944787,90.796667 36.276816,95.2 35.479999,98.5 c -0.796816,3.3 -1.455787,7.14714 -1.464378,8.5492 -0.01418,2.31425 0.298823,2.51249 3.396155,2.15089 2.780165,-0.32457 3.6452,0.0366 4.672665,1.9508 l 1.260888,2.34911 1.282232,-3 c 0.810283,-1.8958 1.298832,-7.71339 1.327335,-15.805764 z M 586.23005,88.25 c 1.4637,-1.802875 3.47904,-1.540915 5.76995,0.75 1.19709,1.197092 1.99818,1.498182 1.99547,0.75 C 593.99298,89.0625 593.09502,77.25 592,63.5 590.90498,49.75 590.00702,35.9125 590.00453,32.75 590.00204,29.5875 589.6103,27 589.13399,27 c -0.4763,0 -1.79617,2.5875 -2.93303,5.75 -1.87285,5.209853 -2.08286,8.239371 -2.23552,32.25 -0.17275,27.169226 -0.0928,29.962176 0.75817,26.5 0.27038,-1.1 0.94828,-2.5625 1.50644,-3.25 z m 43,-3 c 1.4637,-1.802875 3.47904,-1.540915 5.76995,0.75 1.19709,1.197092 1.99818,1.498182 1.99547,0.75 C 636.99298,86.0625 636.09502,74.25 635,60.5 633.90498,46.75 633.00702,32.9125 633.00453,29.75 633.00204,26.5875 632.6103,24 632.13399,24 c -0.4763,0 -1.79617,2.5875 -2.93303,5.75 -1.87285,5.209853 -2.08286,8.239371 -2.23552,32.25 -0.17275,27.169226 -0.0928,29.962176 0.75817,26.5 0.27038,-1.1 0.94828,-2.5625 1.50644,-3.25 z M 502.13169,58.719788 C 501.89378,33.101134 501.67893,29.969999 499.80082,24.75 498.66298,21.5875 497.34231,19 496.86601,19 496.3897,19 496,21.591976 496,24.759946 c 0,3.16797 -0.64153,14.08047 -1.42561,24.25 -0.78409,10.16953 -1.72074,22.689204 -2.08145,27.821498 l -0.65583,9.331444 2.08145,-2.081444 C 495.06335,82.93665 496.585,82 497.3,82 c 1.90778,0 3.7,2.115148 3.7,4.366667 0,1.081666 0.3136,1.653071 0.69688,1.269788 0.38328,-0.383283 0.57895,-13.395783 0.43481,-28.916667 z M 44.221787,82.359948 C 45.853466,79.566129 45.870348,78.137817 44.492698,59.440226 43.293386,43.163048 42.622528,38.627418 40.840808,34.75 39.640332,32.1375 38.397547,30.000526 38.079063,30.001169 37.760578,30.001813 37.5,42.167299 37.5,57.035583 c 0,22.940959 0.22707,27.176954 1.5,27.982575 2.106808,1.333371 3.222191,0.765573 5.221787,-2.65821 z M 149.23446,95.473755 c 3.62037,-3.903247 7.64853,-12.924094 6.35067,-14.221963 -0.3519,-0.351898 -3.66423,2.259991 -7.36073,5.804197 -5.77721,5.539186 -5.98399,5.667323 -1.47266,0.912566 C 151.6982,82.755198 153.19001,80 151.06635,80 c -0.51351,0 -3.05489,2.7 -5.64752,6 -2.59262,3.3 -4.90312,6 -5.13444,6 -0.62162,0 3.03259,-4.931914 7.03886,-9.5 2.70337,-3.082478 3.78473,-3.731199 4.71426,-2.828145 0.66341,0.64452 1.78085,0.951342 2.48319,0.681826 4.75245,-1.823684 1.11822,9.718183 -4.78988,15.212098 L 145.5,99.5 149.23446,95.473755 z M 450.10853,74.916667 C 450.16823,71.3875 450.57169,65.8 451.00511,62.5 c 0.52891,-4.027 0.61535,-2.054 0.26286,6 -0.55993,12.793804 -1.34036,17.112932 -1.15944,6.416667 z m -5.08273,-22 c 0.068,-6.369176 2.08276,-22.726088 3.10572,-25.213825 0.6326,-1.538437 2.52387,-3.507516 4.20281,-4.375731 2.95819,-1.52974 3.12397,-1.495622 5.35915,1.102922 1.97997,2.301855 2.28893,3.700036 2.18231,9.875731 -0.0683,3.95683 -0.46611,10.344236 -0.88398,14.194236 -0.49516,4.562034 -0.58353,2.124068 -0.25376,-7 0.45914,-12.70322 0.33031,-14.215925 -1.39092,-16.331124 -1.67387,-2.057014 -2.2044,-2.191031 -4.51176,-1.139728 -3.76837,1.716986 -4.69405,4.565768 -5.93341,18.260177 -1.01705,11.237904 -1.93839,16.456769 -1.87616,10.627342 z M 451.59065,52 c 2.21621,-15.393252 2.33253,-15.889835 1.75687,-7.5 -0.3019,4.4 -0.93408,8.675 -1.40484,9.5 -0.54205,0.949939 -0.67114,0.216523 -0.35203,-2 z M 531.47016,40.322254 C 530.64138,25.953087 531.31833,22.5 534.96406,22.5 c 2.02466,0 2.78782,0.960182 4.71252,5.929149 2.1663,5.592715 5.07146,22.156146 4.06298,23.164625 -0.25593,0.25593 -0.96516,-3.406706 -1.57606,-8.139191 C 540.74203,32.442869 537.40425,23 534.9334,23 c -2.76731,0 -3.23209,3.240119 -2.46205,17.163522 C 532.86182,47.223585 532.96081,53 532.69134,53 c -0.26948,0 -0.819,-5.704986 -1.22118,-12.677746 z M 535.76628,44 c -0.40354,-4.675 -0.95575,-10.75 -1.22712,-13.5 -0.27138,-2.75 0.18678,-1.175 1.01812,3.5 0.83135,4.675 1.38356,10.75 1.22713,13.5 -0.23845,4.192096 -0.40296,3.626563 -1.01813,-3.5 z M 465.01999,18.524091 c -0.71774,-0.864833 -1.01122,-1.866198 -0.65216,-2.225256 0.35906,-0.359058 1.25492,0.170565 1.9908,1.176941 C 467.90716,19.593517 470,18.74533 470,16 470,13.612438 468.16624,12.433756 466.71287,13.887132 464.78915,15.810847 464,15.116449 464,11.5 c 0,-3.4760842 0.029,-3.4989065 4.25,-3.3399629 3.6841,0.1387278 3.81726,0.2137402 1,0.5633585 -3.6666,0.4550205 -4.4642,2.9568594 -1.10213,3.4570534 1.18133,0.175753 2.64153,1.107051 3.24489,2.069551 2.32351,3.706569 -3.56572,7.656369 -6.37277,4.274091 z M 479,18.5 C 479,17.566667 478.05556,17 476.5,17 475.125,17 474,16.765352 474,16.47856 474,15.432412 479.2879,8 480.03219,8 c 0.8291,0 1.67239,7.614663 1.14449,10.334311 C 480.77426,20.407457 479,20.542514 479,18.5 z m 0,-4.666667 c 0,-1.191666 -0.12734,-1.979166 -0.28297,-1.75 C 478.5614,12.3125 477.8313,13.2875 477.09459,14.25 475.94801,15.747982 475.98876,16 477.37756,16 478.37493,16 479,15.165267 479,13.833333 z m 6.06766,4.293093 c -1.44958,-2.70857 -1.34319,-6.367351 0.24844,-8.544037 3.16477,-4.3280828 8.10306,1.468014 6.10682,7.167611 -1.20039,3.427302 -4.83623,4.214756 -6.35526,1.376426 z M 489.58936,16.5 C 490.33127,13.543977 489.36834,9 488,9 c -1.36834,0 -2.33127,4.543977 -1.58936,7.5 0.34511,1.375 1.06032,2.5 1.58936,2.5 0.52904,0 1.24425,-1.125 1.58936,-2.5 z m 4.77483,-4.993311 C 494.01783,10.604071 494.21394,9.3860608 494.8,8.8 c 1.52361,-1.5236089 4.41041,-0.1310884 4.01242,1.935492 -0.4433,2.301882 -3.64766,2.857428 -4.44823,0.771197 z M 496.68311,9.8125 c -0.31922,-0.7977327 -0.55618,-0.5607763 -0.60416,0.604167 -0.0434,1.054166 0.19293,1.644791 0.52522,1.3125 0.33229,-0.332292 0.36781,-1.194792 0.0789,-1.916667 z"
       id="path2989"
       style="fill:#000000" />
  </g>
</svg>
