<?xml version="1.0" encoding="UTF-8" standalone="no"?>
<!-- Created with Inkscape (http://www.inkscape.org/) -->

<svg
   xmlns:dc="http://purl.org/dc/elements/1.1/"
   xmlns:cc="http://creativecommons.org/ns#"
   xmlns:rdf="http://www.w3.org/1999/02/22-rdf-syntax-ns#"
   xmlns:svg="http://www.w3.org/2000/svg"
   xmlns="http://www.w3.org/2000/svg"
   xmlns:sodipodi="http://sodipodi.sourceforge.net/DTD/sodipodi-0.dtd"
   xmlns:inkscape="http://www.inkscape.org/namespaces/inkscape"
   version="1.1"
   width="613"
   height="322"
   id="svg2"
   inkscape:version="0.91 r13725"
   sodipodi:docname="ub320201.svg">
  <sodipodi:namedview
     pagecolor="#e0e0e0"
     bordercolor="#666666"
     borderopacity="1"
     objecttolerance="10"
     gridtolerance="10"
     guidetolerance="10"
     inkscape:pageopacity="0"
     inkscape:pageshadow="2"
     inkscape:window-width="1462"
     inkscape:window-height="949"
     id="namedview11"
     showgrid="false"
     inkscape:zoom="1"
     inkscape:cx="374.34973"
     inkscape:cy="99.537912"
     inkscape:window-x="0"
     inkscape:window-y="0"
     inkscape:window-maximized="0"
     inkscape:current-layer="svg2" />
  <metadata
     id="metadata8">
    <rdf:RDF>
      <cc:Work
         rdf:about="">
        <dc:format>image/svg+xml</dc:format>
        <dc:type
           rdf:resource="http://purl.org/dc/dcmitype/StillImage" />
        <dc:title></dc:title>
      </cc:Work>
    </rdf:RDF>
  </metadata>
  <defs
     id="defs6" />
  <path
     style="fill:#000000"
     d="m 358.4978,59.29273 c -1.26906,-0.0126 -2.57323,0.45899 -3.52148,1.60156 -1.03322,1.24496 -1.05677,1.98924 -0.11328,3.5 0.93108,1.4909 0.93108,2.34504 0,3.83594 -0.94349,1.51076 -0.91994,2.25505 0.11328,3.5 0.72175,0.86966 2.32805,1.58203 3.56836,1.58203 3.29661,0 5.20776,-2.63832 3.68164,-5.08203 -0.93108,-1.4909 -0.93108,-2.34504 0,-3.83594 1.68943,-2.7052 -0.93656,-5.07385 -3.72852,-5.10156 z m -8.98828,0.0195 c -1.5105,0 -5.46484,3.42883 -5.46484,4.73828 0,1.22656 0.27949,1.27465 1.5,0.26172 1.30013,-1.07901 1.5,-0.56295 1.5,3.87695 0,3.88662 0.36189,5.12305 1.5,5.12305 1.19048,0 1.5,-1.44444 1.5,-7 0,-3.85 -0.24081,-7 -0.53516,-7 z m 20.03516,0 c -4.10351,0 -6.24871,9.10675 -2.92773,12.42773 0.86428,0.86429 2.1813,1.57227 2.92773,1.57227 2.5132,0 4.5,-3.09058 4.5,-7 0,-3.90942 -1.9868,-7 -4.5,-7 z m 9.29688,0.14258 c -2.17427,-0.0424 -3.34165,1.99523 -2.40821,4.42773 0.3614,0.9418 1.50514,1.44203 2.85742,1.25 1.65273,-0.23469 2.25391,-0.98758 2.25391,-2.82031 0,-1.83273 -0.60118,-2.58562 -2.25391,-2.82031 -0.15357,-0.0218 -0.30428,-0.0343 -0.44921,-0.0371 z m -20.29688,1.85742 c 0.825,0 1.5,0.64887 1.5,1.44141 0,1.67064 -1.42809,2.79847 -2.36133,1.86523 -1.19516,-1.19515 -0.6449,-3.30664 0.86133,-3.30664 z m 20.5,0 c 0.55,0 1,0.45 1,1 0,0.55 -0.45,1 -1,1 -0.55,0 -1,-0.45 -1,-1 0,-0.55 0.45,-1 1,-1 z m -9.5,0.5 c 0.55,0 1.14334,1.74588 1.31836,3.88086 0.33986,4.14575 -1.28553,7.16908 -2.35547,4.38086 -0.88013,-2.2936 -0.13108,-8.26172 1.03711,-8.26172 z m -10.99023,6.24414 c 0.55096,-0.0413 1.09781,0.45194 1.30078,1.50586 0.2108,1.0946 -0.28059,1.75 -1.31055,1.75 -0.96073,0 -1.51287,-0.64675 -1.32422,-1.55273 0.22614,-1.08606 0.78302,-1.66187 1.33399,-1.70313 z"
     id="path2989"
     inkscape:connector-curvature="0"
     sodipodi:nodetypes="ssssssssssssssssssssssssssssssssssssssssssssss" />
  <path
     style="fill:#000000"
     d="m 439.65236,48.636416 c -2.09094,0.594499 -4.60333,3.036927 -10.61223,9.451722 -2.6942,2.876195 -7.21619,7.54618 -10.04822,10.377492 -2.83204,2.831322 -4.96231,5.260995 -4.73436,5.399421 0.42556,0.258388 6.36163,-5.59699 15.01766,-14.814988 8.30494,-8.844088 9.99287,-10.066097 13.09744,-9.476012 3.34505,0.635803 4.40373,3.959871 2.5559,8.02299 -0.71737,1.577407 -4.93781,7.528099 -9.37875,13.223756 -4.44095,5.695655 -8.7743,11.277469 -9.63117,12.404789 -1.43847,1.892995 -1.38409,1.879726 0.70627,-0.16236 3.70305,-3.618936 17.72653,-22.298466 19.24109,-25.628744 1.83578,-4.036617 0.45869,-7.613376 -3.33555,-8.662813 -1.06457,-0.294457 -1.92758,-0.405301 -2.87802,-0.135067 z"
     id="path4229"
     inkscape:connector-curvature="0" />
  <path
     style="fill:#000000"
     d="m 438.2256,60.280701 c -0.39669,0.250665 -1.9465,2.003161 -3.74917,4.255877 -2.06019,2.574527 -5.3144,6.540999 -7.23133,8.814445 -1.91693,2.273458 -4.05549,4.895879 -4.75226,5.828039 -0.69676,0.932158 -0.0365,0.505771 1.46735,-0.947718 3.01612,-2.915194 14.52347,-17.306074 14.36306,-17.962444 -0.007,-0.02838 -0.041,-0.02404 -0.0977,0.01152 z"
     id="path4227"
     inkscape:connector-curvature="0" />
  <path
     style="fill:#000000"
     d="m 412.66873,75.566261 c -1.44571,0.348173 -7.75823,8.048855 -7.49169,9.139469 0.46791,1.914576 -5.64764,5.49323 -15.97892,9.873972 -1.12055,0.475144 -2.61245,1.010711 -4.63436,-2.082444 -1.39489,-2.13392 -2.85516,-3.992831 -3.31959,-4.46327 -1.15732,-1.172253 -18.26118,-5.687604 -18.95383,-5.003785 -0.30628,0.302363 -0.47745,1.473106 -0.37993,2.600919 0.13808,1.596658 0.62318,2.128699 2.19018,2.404738 1.10688,0.194988 4.32303,1.076898 7.14703,1.96006 l 5.13429,1.606007 3.07024,4.866716 c 1.69556,2.602061 2.74808,8.617137 2.58178,9.129437 -0.1663,0.5123 -1.93608,1.62068 -3.93437,2.46145 -4.61097,1.94001 -5.60419,4.01837 -4.07735,8.54026 1.05797,3.13325 0.90983,3.8547 -1.13201,5.52835 -1.29133,1.0585 -4.06208,2.66579 -6.15769,3.57381 l -3.08333,1.33661 c -1.74439,0.75408 -1.5926,1.60471 -0.3712,3.56984 0.87228,1.14706 8.24236,-1.66614 9.88111,-2.47587 3.92531,-1.94573 13.18391,-7.2919 20.32883,-11.8003 2.76504,-1.74473 7.30787,-5.90234 10.09478,-9.24082 2.78691,-3.33848 7.38365,-7.96416 10.21492,-10.279502 2.83127,-2.315353 6.18155,-5.666186 7.44532,-7.445246 1.66215,-2.339867 1.73651,-2.649614 0.26976,-1.117477 -2.53457,2.647531 -6.33762,3.668459 -6.78887,1.822011 -0.18522,-0.757835 0.96202,-2.697836 2.54954,-4.310547 1.58752,-1.612702 2.83322,-3.149794 2.76794,-3.416917 -0.0653,-0.267134 -1.36958,0.784753 -2.89724,2.336651 -1.52766,1.551908 -3.72347,3.051275 -4.8793,3.333747 -4.51603,1.103686 -5.37562,-5.865908 -1.23647,-10.020264 1.46544,-1.470842 2.20356,-2.563158 1.64049,-2.427611 z"
     id="path4225"
     inkscape:connector-curvature="0"
     sodipodi:nodetypes="csssscsscccssscccccssssssscssscc" />
  <path
     d="m 368.15569,129.51707 c -1.71537,0.5609 -4.10799,1.35499 -4.70359,0.0349 -0.43543,-0.96507 -0.29979,-1.47888 1.96268,-2.15248 1.44575,-0.43043 4.58573,-2.12962 6.97774,-3.77598 2.39202,-1.64636 4.79303,-2.74136 5.33559,-2.43334 0.54256,0.30805 1.90413,0.52391 3.0257,0.47972 1.33674,-0.0527 0.32812,0.89898 -2.92787,2.76254 -7.89477,4.51858 -8.70591,4.76932 -9.67025,5.08464 z m 20.62577,-12.90964 c 2.28738,-2.25502 8.80467,-6.4754 10.72396,-6.94445 1.8414,-0.45003 -0.91029,2.26289 -5.44685,5.3701 -5.95614,4.07951 -8.62622,4.87609 -5.27711,1.57435 z M 362.63065,84.743635 c 0.16274,-0.670101 0.49772,-1.196235 0.74441,-1.169158 2.47458,0.27149 16.47555,4.472458 17.13625,5.141697 0.47589,0.482091 2.16111,2.516052 3.55735,4.652057 1.82938,2.798631 2.15541,2.402281 4.60661,2.726542 l -0.0484,-0.08115 -2.36871,4.041942 -2.3687,4.04194 -3.43249,-7.730728 -3.36917,-5.469251 -5.23802,-1.752046 c -2.88091,-0.963625 -5.76345,-1.631584 -6.40562,-1.484328 -1.5288,0.350572 -3.1891,-1.37109 -2.81356,-2.917516 z m 52.09669,5.344149 c -0.18303,-0.748955 0.866,-2.616867 2.33119,-4.150952 2.50607,-2.623879 2.76294,-2.7079 4.3332,-1.417444 1.42022,1.167158 1.41868,1.701719 -0.0103,3.583742 -2.02407,2.665799 -6.18437,3.906649 -6.65409,1.984654 z m -4.98453,-2.142782 c -2.83404,-1.720852 -0.54579,-10.504058 2.95977,-11.360795 1.24584,-0.304472 5.78513,3.61692 6.21288,5.367172 0.55933,2.28866 -7.06725,7.272047 -9.17265,5.993623 z m 13.32063,-4.204047 c -1.60407,-2.314244 -1.45904,-2.777627 2.06005,-6.581718 3.47706,-3.758668 11.53947,-14.02688 12.82162,-16.329521 0.98429,-1.767691 -5.25681,5.516195 -7.60924,8.880616 -1.04885,1.500076 -3.61366,4.599798 -5.69957,6.888291 l -3.79256,4.160871 -3.05292,-3.00525 -3.05295,-3.005257 1.6776,-2.057302 c 0.92268,-1.131515 4.56778,-5.027711 8.10022,-8.65821 3.53242,-3.630496 7.43022,-7.731187 8.66174,-9.112635 1.23154,-1.38146 2.80928,-2.326666 3.50609,-2.100474 0.76464,0.248206 0.89322,0.04337 0.3243,-0.516665 -1.37081,-1.349399 3.06457,-3.401131 5.82045,-2.692448 1.32339,0.340318 2.53401,1.551892 2.85238,2.854614 0.64942,2.657288 -1.75649,8.543079 -3.28879,8.045675 -0.58098,-0.188593 -0.83016,0.06159 -0.55377,0.556012 0.45424,0.812469 -8.9637,13.837263 -15.28823,21.143283 -2.18993,2.529781 -2.65274,2.732885 -3.48642,1.530118 z"
     id="path2997-2"
     style="fill:#fefefe"
     inkscape:connector-curvature="0"
     sodipodi:nodetypes="sssssssssssssssscccccssssssssssssssssscccsssssssscsss" />
  <path
     d="m 429.08333,102.49514 c -0.12287,-0.50274 0.14772,-1.29108 0.60129,-1.75185 1.96281,-1.993963 -1.03765,-7.905886 -8.21391,-16.184123 -9.12981,-10.531808 -12.07808,-12.720154 -18.16945,-13.486287 -4.47819,-0.563234 -4.8932,-0.4669 -6.02605,1.398798 -0.7756,1.277326 -0.78903,1.89916 -0.0371,1.715383 1.48723,-0.363467 2.0217,1.733558 1.34682,5.284275 -0.69084,3.634597 -1.32168,3.638679 -4.26979,0.02758 -3.00592,-3.681869 -3.05734,-3.850322 -1.30567,-4.278411 0.76541,-0.187054 1.45384,-1.258099 1.52983,-2.380082 0.3036,-4.481657 6.88526,-5.539669 13.77483,-2.214349 5.06874,2.446496 9.21141,6.238064 16.96552,15.527684 5.63833,6.754856 7.43352,10.839944 6.44791,14.672682 -0.56668,2.20365 -2.25338,3.26809 -2.64425,1.66875 z"
     id="path2993-3"
     style="fill:#fe0000"
     inkscape:connector-curvature="0"
     sodipodi:nodetypes="sssssssssssssss" />
  <path
     d="m 390.01014,111.10443 c -0.24207,-0.99054 -1.77177,-2.68047 -3.39931,-3.7554 l -2.95919,-1.95442 3.14278,-4.73066 c 2.91028,-4.380728 5.42242,-6.240996 13.98823,-10.358461 1.4705,-0.706841 3.51209,-2.778292 4.53688,-4.603234 l 1.86325,-3.31806 0.73314,2.999841 c 0.53258,2.179226 1.39514,3.116036 3.15316,3.424594 1.33101,0.233609 2.54962,0.955065 2.70804,1.60324 0.15841,0.648175 1.15698,1.419466 2.21905,1.713996 1.63008,0.452043 1.28088,1.02427 -2.24059,3.671715 -2.29439,1.724914 -5.79611,4.957079 -7.78161,7.182589 -3.03795,3.40518 -11.29728,8.89233 -14.59966,9.69941 -0.50821,0.1242 -1.12208,-0.58462 -1.36417,-1.57515 z"
     id="path2991-4"
     style="fill:#0000fe"
     inkscape:connector-curvature="0"
     sodipodi:nodetypes="ssscssscsssssss" />
  <path
     style="fill:#000000"
     d="m 362.56618,125.28305 c 0.85136,-0.0525 2.25269,0.25068 2.5,1.70703 0.0282,0.16617 0.0435,0.45578 0.0664,0.67383 l -0.11914,70.11523 -0.125,75.25 9.28515,0 0,0.47657 c -10.10328,0.005 -21.49422,0.006 -31.03515,0.0117 l 0,-0.48828 18.83007,0 0,-22.5 0,-22.5 -6.26859,0 c -12.75748,0 -17.27203,-0.37784 -17.27203,-1.05859 0,-0.68075 5.33846,-1.05859 17.27203,-1.05859 l 6.26859,0.14453 0,-48.44141 c 0,-39.03579 -0.15754,-47.31898 -1.24218,-49.51562 -0.1041,-0.67614 0.78735,-2.62212 1.51367,-2.77344 0.0942,-0.0196 0.20455,-0.0355 0.32617,-0.043 z"
     id="path4220"
     inkscape:connector-curvature="0"
     sodipodi:nodetypes="ccccccccccccczccscccc" />
  <path
     inkscape:connector-curvature="0"
     style="fill:#fefefe"
     id="path2997-3"
     d="m 326.91822,176.73693 c -1.09834,-1.2375 -5.90179,-9.02895 -10.67433,-17.31434 -9.73349,-16.89785 -13.19061,-21.84372 -13.15539,-18.82052 0.0121,1.03667 0.91208,3.8465 2,6.24406 1.08792,2.39757 1.97804,4.93937 1.97804,5.64846 0,0.70909 1.35987,3.8744 3.02193,7.03403 3.21541,6.11259 3.18084,8.94179 -0.12205,9.99009 -3.60419,1.14392 -6.64208,-1.90371 -7.21638,-7.23954 -0.78161,-7.26187 -0.67008,-32.29224 0.14388,-32.29224 0.39308,0 1.73424,1.0125 2.98036,2.25 2.40317,2.38655 27.69369,36.03749 29.30384,38.99097 1.34394,2.46517 -1.53047,7.75903 -4.21293,7.75903 -1.12749,0 -2.94863,-1.0125 -4.04697,-2.25 z m -23.16235,-19.5 c -0.25153,-0.9625 -0.45733,-0.175 -0.45733,1.75 0,1.925 0.2058,2.7125 0.45733,1.75 0.25152,-0.9625 0.25152,-2.5375 0,-3.5 z m -87.1179,13.17857 c -0.86429,-0.86428 -1.57143,-2.40714 -1.57143,-3.42857 0,-2.02378 2.50502,-5 4.20838,-5 1.21362,0 12.20923,-9.61136 24.88249,-21.75 4.73734,-4.5375 8.9049,-8.25 9.26124,-8.25 1.19731,0 0.66277,2.71202 -1.50247,7.62288 -1.3602,3.08502 -6.18891,9.19674 -13.14111,16.63277 -14.16214,15.14775 -18.42991,17.88012 -22.1371,14.17292 z m 80.08356,-9.25731 c -2.36453,-2.61278 -2.16559,-6.17126 0.34501,-6.17126 1.66667,0 2,0.66667 2,4 0,4.5705 -0.0945,4.65802 -2.34501,2.17126 z m -72.40846,-19.32473 c -1.9545,-1.9545 -1.46404,-4.79938 1.00347,-5.82062 1.2375,-0.51217 8.1,-3.47321 15.25,-6.5801 7.15,-3.10688 14.125,-5.81202 15.5,-6.01142 1.375,-0.19941 1.7125,-0.12072 0.75,0.17485 -0.9625,0.29557 -1.75,0.92896 -1.75,1.40753 0,0.47857 -4.6125,3.45123 -10.25,6.60591 -5.6375,3.15468 -11.15,6.76136 -12.25,8.01485 -2.45797,2.80094 -6.56287,3.8996 -8.25347,2.209 z m -96.29218,-7.01601 c -0.6175,-2.29321 -0.89244,-5.10571 -0.61098,-6.25 0.28146,-1.14428 2.75676,-10.60867 5.50067,-21.03196 4.35292,-16.535485 5.33342,-19.202415 7.69124,-20.919965 3.12544,-2.27673 5.75579,-1.33144 6.28906,2.26016 0.17839,1.20148 -3.14784,11.01807 -7.39163,21.814635 -4.2438,10.79657 -7.93578,21.58009 -8.20441,23.96337 -0.61612,5.46624 -1.82979,5.52695 -3.27395,0.16376 z M 297.605,130.44847 c -0.38688,-3.09646 -0.49572,-5.83761 -0.24187,-6.09146 0.25384,-0.25385 0.77807,2.07192 1.16495,5.16838 0.38688,3.09646 0.49572,5.83761 0.24187,6.09146 -0.25384,0.25385 -0.77807,-2.07192 -1.16495,-5.16838 z m -72.87179,2.87179 c -1.45664,-1.45664 -0.52658,-4.29837 2.07711,-6.34643 l 2.74378,-2.15826 1.34121,3.28695 c 1.19605,2.93117 1.14897,3.42752 -0.43491,4.58568 -1.91773,1.40228 -4.6549,1.70436 -5.72719,0.63206 z m -40.58774,-8.08333 c -0.0434,-0.6875 -1.169,-1.25 -2.50129,-1.25 -2.19268,0 -2.71358,-0.93742 -5.49404,-9.88713 -1.68944,-5.43792 -4.4201,-12.45048 -6.06816,-15.583485 -3.25891,-6.1953 -2.88428,-9.52939 1.07076,-9.52939 2.58237,0 4.37494,4.22472 6.91345,16.293535 2.7572,13.10851 3.86306,16.53027 5.669,17.54092 0.87446,0.48937 1.34227,1.51432 1.03958,2.27766 -0.38085,0.96044 -0.57466,1.00291 -0.6293,0.13789 z m -7.8682,-30.914995 c -1.27934,-4.1685 -0.89108,-5.33501 1.77569,-5.33501 2.22335,0 6.01357,4.49696 6.01357,7.13487 0,1.44703 -0.74698,1.86514 -3.33222,1.86514 -2.96555,0 -3.45599,-0.40328 -4.45704,-3.665 z"
     sodipodi:nodetypes="sscsssssssssssssssssssssssssssssssssssssssssssscscssscsssssssssssssssss" />
  <path
     inkscape:connector-curvature="0"
     style="fill:#fe0000"
     id="path2993-9"
     d="m 155.7006,178.40047 c -12.68181,-3.0696 -24.25824,-11.58257 -32.4928,-23.89426 -8.80412,-13.16324 -12.81967,-28.12153 -11.81699,-44.01928 0.49747,-7.88752 2.89828,-20.055895 4.21723,-21.374855 1.39309,-1.39309 1.38594,1.36199 -0.0169,6.51743 -3.82854,14.069645 -2.71481,32.826795 2.72284,45.857425 11.76888,28.20258 39.54086,42.62141 64.91515,33.70306 7.5601,-2.65716 14.52399,-7.16071 12.75922,-8.2514 -0.75012,-0.4636 -1.00953,-1.19725 -0.57646,-1.63032 0.92782,-0.92782 8.92113,-3.38821 9.41221,-2.89714 0.18551,0.18551 -0.91827,2.41596 -2.45284,4.95655 -2.65219,4.39087 -4.3047,5.78751 -4.3047,3.63817 0,-0.53959 -2.8125,0.5646 -6.25,2.45376 -11.15703,6.13162 -23.96009,7.88315 -36.11593,4.94086 z"
     sodipodi:nodetypes="ssssssssssssss" />
  <path
     inkscape:connector-curvature="0"
     style="fill:#0000fe"
     id="path2991-9"
     d="m 321.41037,181.98812 c -10.22089,-2.12687 -18.34383,-7.51112 -18.34383,-12.1591 0,-1.77417 0.14802,-1.79121 2.45104,-0.28221 1.44367,0.94592 3.29359,1.33856 4.50106,0.95532 2.43258,-0.77207 4.42444,-4.09157 3.65629,-6.09334 -0.71684,-1.86805 0.81217,-1.82497 2.38247,0.0671 0.67967,0.81894 1.70429,1.19941 2.27696,0.84549 0.57266,-0.35392 0.75162,-0.17496 0.3977,0.3977 -0.35392,0.57267 0.006,1.58038 0.8002,2.23937 0.79403,0.65899 2.60319,3.1767 4.02036,5.59491 4.23064,7.21904 8.32419,8.34044 11.62112,3.18354 l 2.0778,-3.25 -0.65831,3 c -0.36206,1.65 -1.19119,3.54165 -1.84249,4.20366 -1.64803,1.67511 -8.37951,2.32983 -13.34037,1.29753 z M 213.10171,169.05267 c -2.45781,-4.59247 0.34031,-20.08312 4.98526,-27.59879 2.1987,-3.55758 3.97957,-4.50715 3.97957,-2.12194 0,2.31312 3.66522,4.89602 5.92834,4.17774 3.07056,-0.97456 2.63589,1.43258 -1.28902,7.13839 -1.84837,2.68706 -3.68112,5.8952 -4.07278,7.1292 -0.39165,1.234 -2.21099,2.86991 -4.04296,3.63536 -3.55293,1.48451 -5.05749,4.31678 -4.02359,7.5743 0.80998,2.552 -0.11206,2.59339 -1.46482,0.0657 z M 158.16576,92.434005 c -4.62042,-1.30832 -8.78292,-2.14257 -9.25,-1.8539 -0.46708,0.28867 -0.84923,-0.33196 -0.84923,-1.37918 0,-1.04721 -0.91824,-2.73502 -2.04053,-3.75068 -1.95035,-1.76504 -2.17077,-1.76972 -4.98747,-0.10585 -2.34959,1.38794 -2.83357,1.44534 -2.38762,0.28322 0.72099,-1.87886 4.28836,-3.20044 12.5829,-4.66151 9.42039,-1.65938 17.37808,0.15182 20.30702,4.62195 1.47828,2.25614 1.4528,2.39887 -0.4282,2.39887 -2.23929,0 -5.5719,4.34024 -4.57328,5.95603 0.35487,0.57419 0.50615,1.00479 0.33619,0.95689 -0.16995,-0.0479 -4.08936,-1.15753 -8.70978,-2.46584 z"
     sodipodi:nodetypes="cssssssscsscsscccsssssssccssssssssssss" />
  <path
     inkscape:connector-curvature="0"
     style="fill:#000000"
     d="m 175.92287,76.015473 c -0.51398,0.0569 -0.85577,0.478603 -0.61328,1.220703 0.22464,0.6875 1.94835,1.75868 3.83204,2.38086 3.81331,1.25953 4.16531,2.688867 0.78906,3.210937 -1.21895,0.18849 -3.30994,1.059817 -4.64649,1.935547 -2.23677,1.46561 -2.5051,1.459143 -3.37304,-0.0918 -2.44472,-4.36846 -11.34593,-6.297123 -21.21875,-4.595703 -8.9897,1.54924 -12.08781,3.088241 -13.32422,6.613281 -1.06663,3.041 -10.1833,38.226562 -10.95899,42.296872 -0.65136,3.41792 1.81112,10.5 3.65039,10.5 1.00536,0 1.70043,-1.51454 2.15625,-4.70117 0.72841,-5.0922 14.21275,-40.50326 16.20118,-42.54492 1.14263,-1.17324 5.55769,-0.346055 17.91211,3.359375 2.35921,0.70759 3.98613,4.077084 8.99218,18.613285 l 4.22657,12.27343 0.32421,24.75 c 0.27,20.69823 0.55638,24.75 1.75782,24.75 1.20736,0 1.4375,-3.68569 1.4375,-23.0957 0,-20.19456 0.21983,-23.4698 1.75,-26.07422 1.67666,-2.85372 1.673,-3.03456 -0.0957,-4.33398 -1.77607,-1.30481 -4.61504,-10.22952 -6.12109,-19.2461 -0.67786,-4.058267 -0.59619,-4.249997 1.79687,-4.249997 3.8607,0 5.61358,-0.990855 7.20704,-4.072265 2.19099,-4.23692 1.84106,-7.634289 -0.97657,-9.480469 -1.42782,-0.93554 -2.21145,-2.193986 -1.88867,-3.035156 0.78136,-2.03619 -1.49812,-4.41211 -4.23437,-4.41211 -1.2752,0 -2.59758,-0.45 -2.9375,-1 -0.4448,-0.7197 -1.13056,-1.027603 -1.64453,-0.970703 z m -17.95312,4.34375 c 6.34962,0.0189 11.37555,1.875916 13.57226,5.228516 1.47828,2.25614 1.45327,2.398437 -0.42773,2.398437 -2.23929,0 -5.57283,4.339289 -4.57422,5.955078 0.35487,0.574191 0.5059,1.004932 0.33594,0.957032 -0.16996,-0.0479 -4.08856,-1.156534 -8.70899,-2.464844 -4.62043,-1.30832 -8.78292,-2.142186 -9.25,-1.853516 -0.46708,0.28867 -0.8496,-0.331686 -0.8496,-1.378906 0,-1.04721 -0.91873,-2.736293 -2.04102,-3.751953 -1.95035,-1.76504 -2.16963,-1.769339 -4.98633,-0.105469 -2.34958,1.38794 -2.83462,1.445333 -2.38867,0.283203 0.72099,-1.87885 4.28944,-3.201039 12.58398,-4.662109 2.35509,-0.41485 4.61784,-0.611769 6.73438,-0.605469 z m -14.14453,5.023438 c 1.58053,0.0368 2.73311,1.247437 3.0664,3.492187 0.17839,1.20148 -3.14683,11.017886 -7.39062,21.814452 -4.24379,10.79658 -7.93645,21.57961 -8.20508,23.96289 -0.26863,2.38328 -0.86304,4.33398 -1.32031,4.33398 -1.20518,0 -3.16678,-7.97113 -2.56445,-10.41992 0.28146,-1.14428 2.75609,-10.60795 5.5,-21.03125 4.35292,-16.535476 5.33359,-19.202367 7.6914,-20.919917 1.17205,-0.85378 2.27435,-1.254482 3.22266,-1.232422 z m 27.32812,3.603515 c 2.58237,0 4.37556,4.224159 6.91407,16.292974 2.75719,13.10851 3.86203,16.53036 5.66797,17.54101 0.87446,0.48937 1.3437,1.514 1.04101,2.27734 -0.38085,0.96044 -0.57623,1.00369 -0.63086,0.13867 -0.0434,-0.6875 -1.16771,-1.25 -2.5,-1.25 -2.19268,0 -2.71368,-0.937 -5.49414,-9.88671 -1.68943,-5.43792 -4.4203,-12.45099 -6.06836,-15.583987 -3.25891,-6.1953 -2.88473,-9.529297 1.07031,-9.529297 z m 6.9004,0 c 2.22333,0 6.01367,4.496856 6.01367,7.134766 0,1.44703 -0.74679,1.865234 -3.33203,1.865234 -2.96556,0 -3.45599,-0.402342 -4.45704,-3.664062 -1.27935,-4.1685 -0.89139,-5.335938 1.7754,-5.335938 z m 41.26367,26.005854 c -1.2578,0.0106 -4.25,6.00599 -4.25,8.51563 0,1.29797 0.45,2.63859 1,2.97851 0.55,0.33992 1,1.872 1,3.4043 0,1.5323 0.86352,3.56742 1.91992,4.52344 1.88494,1.70585 1.86663,1.81711 -1.00586,5.90625 -5.61336,7.99087 -8.70603,24.66442 -5.43945,29.32812 2.26628,3.23556 7.90404,3.88499 11.95898,1.37891 5.67826,-3.50936 26.04617,-26.02578 28.41992,-31.41797 4.52682,-10.28306 1.89518,-10.77158 -7.70703,-1.43164 -11.34358,11.03375 -20.31306,18.976 -20.83789,18.45117 -0.25509,-0.25509 1.14552,-2.80539 3.11328,-5.66601 1.96776,-2.86063 3.57813,-5.94703 3.57813,-6.85938 0,-2.69101 3.90062,-5.92952 13.98828,-11.61523 6.62519,-3.73416 9.7132,-4.99514 10.23437,-4.17578 0.41052,0.6454 0.75371,33.46132 0.76172,72.92382 l 0.002,9.30664 2.96289,0 0.10546,-35.48632 c 0.0836,-28.0108 -0.1722,-51.45276 -0.56835,-52.09375 -0.97821,-1.58277 -3.31234,-0.91852 -14.98633,4.25976 l -10,4.43555 -2.5,-5.08594 c -2.92226,-5.94477 -5.68656,-6.9345 -10.15235,-3.63281 -2.36687,1.74991 -2.9778,1.8706 -3.43554,0.67773 -0.30627,-0.79812 0.15082,-2.8179 1.01562,-4.49023 1.76269,-3.40868 1.90865,-4.14377 0.82227,-4.13477 z m 79.06445,8.09375 c -2.47028,0.12429 -2.4921,2.88585 -0.97656,11.62891 0.93164,5.37463 1.68673,11.90898 1.67773,14.52148 -0.0153,4.54987 -0.13619,4.75 -2.86133,4.75 -4.52169,0 -6.50251,3.01542 -5.92578,9.01758 0.41093,4.2766 0.23398,5.02779 -1.12109,4.77344 -0.88419,-0.16596 -2.05083,-1.31259 -2.59375,-2.54688 -0.54292,-1.23428 -1.33042,-2.24414 -1.75,-2.24414 -1.26063,0 -0.86509,2.41238 0.7832,4.76563 1.34671,1.92269 2.32101,2.17267 7.5,1.93359 l 5.95313,-0.27343 0,41.13085 3,0 0,-10.43164 c 0,-14.23125 0.27721,-27.25713 0.61523,-28.94726 0.59276,-2.96379 0.69774,-3.01948 2.95117,-1.54297 1.3543,0.88724 3.19649,1.25802 4.38477,0.88086 2.43258,-0.77207 4.4244,-4.09199 3.65625,-6.09375 -1.67905,-4.37552 6.48862,3.40717 10.32617,9.83984 3.91241,6.55815 7.9909,7.46687 11.17383,2.48828 l 2.04687,-3.20117 c -0.14203,-0.44062 -0.32334,-0.87652 -0.54882,-1.30664 -2.21264,-4.22077 -27.03343,-37.35732 -30.51758,-40.74219 -1.69879,-1.65039 -3.08789,-4.00578 -3.08789,-5.23242 0,-1.56186 -0.77022,-2.42272 -2.57227,-2.875 -0.84193,-0.21131 -1.54322,-0.32165 -2.11328,-0.29297 z M 337.2217,173.535 c 0.004,0.0136 0.007,0.0274 0.0117,0.041 l 0.0195,-0.0899 -0.0312,0.0488 z m 0.0117,0.041 -0.63867,2.91015 c -1.08516,4.94525 -2.88263,6.01767 -9.8125,5.85157 -7.51676,-0.18017 -17.09778,-3.58021 -20.95312,-7.43555 -1.51924,-1.51924 -2.76172,-2.38653 -2.76172,-1.92773 0,0.4588 1.34294,1.96454 2.98437,3.3457 7.2449,6.09618 24.46073,9.28665 28.82031,5.3418 2.42406,-2.19345 3.27067,-5.21155 2.36133,-8.08594 z m -79.98047,-50.26172 c 0.2347,0.0182 0.10584,0.11502 -0.43554,0.28125 -0.9625,0.29556 -1.75,0.92963 -1.75,1.4082 0,0.47857 -4.6125,3.45079 -10.25,6.60547 -5.6375,3.15468 -11.15,6.76018 -12.25,8.01367 -2.45797,2.80094 -6.56331,3.89959 -8.25391,2.20899 -1.9545,-1.9545 -1.4636,-4.79908 1.00391,-5.82031 1.2375,-0.51217 8.1,-3.47319 15.25,-6.58008 7.15,-3.10688 14.125,-5.81232 15.5,-6.01172 0.34375,-0.0499 0.62207,-0.0816 0.83203,-0.0977 0.15747,-0.012 0.27528,-0.0139 0.35351,-0.008 z m 40.16211,1.02344 c 0.26816,0.0577 0.75058,2.28457 1.11328,5.1875 0.38688,3.09646 0.49604,5.83794 0.24219,6.09179 -0.25383,0.25385 -0.77718,-2.07346 -1.16406,-5.16992 -0.38688,-3.09646 -0.49604,-5.83795 -0.24219,-6.0918 0.0159,-0.0159 0.0329,-0.0214 0.0508,-0.0176 z m -67.85937,0.47656 1.33984,3.28711 c 1.19605,2.93117 1.15029,3.42778 -0.43359,4.58594 -5.5001,4.02177 -9.02099,-1.49033 -3.65039,-5.71485 l 2.74414,-2.1582 z m 73.33984,5.17187 c 0.39309,0 1.73435,1.0125 2.98047,2.25 2.40317,2.38655 27.69259,36.03676 29.30274,38.99024 0.6564,1.20403 0.4687,2.66899 -0.60743,4.75 -1.87728,3.63026 -4.84287,3.92519 -7.65234,0.75976 -1.09834,-1.2375 -5.90129,-9.02906 -10.67383,-17.31445 -9.73349,-16.89785 -13.19145,-21.84351 -13.15625,-18.82031 0.0121,1.03667 0.91208,3.84658 2,6.24414 1.08792,2.39757 1.97852,4.93935 1.97852,5.64844 0,0.70909 1.35942,3.87357 3.02148,7.0332 3.21541,6.11259 3.1818,8.94193 -0.12109,9.99023 -3.60419,1.14392 -6.6425,-1.90245 -7.2168,-7.23828 -0.78161,-7.26187 -0.66943,-32.29297 0.14453,-32.29297 z m -49.47656,2 c 1.19731,0 0.66329,2.71219 -1.50195,7.62305 -2.35387,5.3387 -21.82705,26.96365 -27.35938,30.38281 -1.7748,1.09689 -3.92881,1.99414 -4.78711,1.99414 -2.12846,0 -4.70312,-2.7373 -4.70312,-5 0,-2.02378 2.50562,-5 4.20898,-5 1.21362,0 12.20955,-9.61136 24.88281,-21.75 4.73734,-4.5375 8.90343,-8.25 9.25977,-8.25 z m -32.03125,6.0293 c 0.42899,-0.005 0.67969,0.42196 0.67969,1.31641 0,2.31312 3.66461,4.89601 5.92773,4.17773 3.07056,-0.97456 2.63585,1.43286 -1.28906,7.13867 -1.84837,2.68706 -3.68061,5.89491 -4.07227,7.12891 -0.39165,1.234 -2.211,2.86932 -4.04297,3.63477 -3.55293,1.48451 -5.05733,4.31669 -4.02343,7.57421 0.80998,2.55196 -0.11209,2.59407 -1.46485,0.0664 -2.45781,-4.59247 0.33943,-20.08394 4.98438,-27.59961 1.37419,-2.22349 2.5858,-3.42896 3.30078,-3.4375 z m 83.26953,4.32227 c 0.54788,-0.0326 3.63754,4.73156 8.22656,12.89843 3.32227,5.9125 5.91803,10.75 5.76758,10.75 -0.15044,0 -1.08849,-0.9 -2.08398,-2 -0.99549,-1.1 -2.40327,-2 -3.12891,-2 -1.48773,0 -3.65663,-3.78618 -5.15625,-9 -0.55368,-1.925 -1.7691,-5.3 -2.69922,-7.5 -0.8996,-2.12785 -1.17481,-3.13363 -0.92578,-3.14843 z m -7.58984,12.64843 c 1.66667,0 2,0.66667 2,4 0,4.5705 -0.0952,4.65864 -2.34571,2.17188 -2.36453,-2.61278 -2.16489,-6.17188 0.34571,-6.17188 z m 6.51172,1.84571 c -0.164,-0.0943 -0.2793,0.71054 -0.2793,2.15429 0,1.925 0.2055,2.7125 0.45703,1.75 0.25152,-0.9625 0.25152,-2.5375 0,-3.5 -0.0629,-0.24062 -0.12307,-0.37284 -0.17773,-0.40429 z m -122.01172,21.15429 c -1.11593,0 -1.4051,5.72411 -1.47071,32.55664 l 2.97071,0 0,-8.55664 c 0,-20.66667 -0.20834,-24 -1.5,-24 z"
     id="path2989-1-6" />
  <path
     sodipodi:nodetypes="cssccsssssssssscccsssssscc"
     inkscape:connector-curvature="0"
     style="fill:#000000"
     d="m 451.58141,76.23871 c 0.6841,0.008 1.36399,0.47603 2.38867,1.50391 2.46669,2.47438 1.54805,4.06049 -1.00781,1.74024 -2.20621,-2.00284 -3.43841,-0.50268 -1.92188,2.33984 0.58665,1.09969 0.88168,2.96741 0.65625,4.15039 -0.33177,1.74091 0.083,2.25083 2.17188,2.66992 3.7195,0.74623 9.02741,5.79184 11.73828,11.1582 1.28889,2.55147 3.89054,6.20674 5.78125,8.12305 4.60504,4.6674 10.40608,11.97825 17.16211,21.62695 3.06885,4.38282 6.5672,9.02346 7.77539,10.3125 3.07463,3.28044 6.46106,12.16958 5.14062,13.49415 -1.15122,1.15482 -16.29257,-13.9227 -34.98047,-34.83204 -6.11088,-6.83728 -11.24864,-12.29485 -11.41601,-12.12695 -0.16737,0.1679 0.31245,3.86381 1.0664,8.21289 0.63353,3.65444 0.91835,6.67139 0.87487,9.28401 -0.009,0.52728 -0.91915,4.76866 -0.9545,5.26492 l -4.27498,-0.94941 c -0.56062,-0.91876 -0.57681,-2.24761 -0.95789,-3.04092 -0.38323,-0.79801 -0.46407,-1.75312 0.23438,-2.875 0.87357,-1.4032 0.68859,-4.25385 -0.88086,-13.57227 -1.09277,-6.48814 -1.98633,-12.8361 -1.98633,-14.10547 0,-1.94797 -0.35891,-2.23836 -2.30469,-1.86523 -3.26403,0.62591 -7.97656,-4.20108 -7.97656,-8.17188 0,-4.24572 3.84968,-7.86387 7.75391,-7.28906 1.63263,0.24037 3.7043,-0.0253 4.60547,-0.58984 0.48866,-0.30614 0.90203,-0.46751 1.3125,-0.4629 z"
     id="path4319" />
  <path
     inkscape:connector-curvature="0"
     style="fill:#fefefe"
     d="m 501.46169,152.55432 c 0,-1.95654 -4.383,-10.90901 -6.4428,-13.15971 -1.41567,-1.54687 -4.85592,-6.12923 -7.64502,-10.18303 -10.32931,-15.01312 -16.77939,-20.96567 -20.31168,-18.74495 -4.48053,2.81686 -0.79439,8.02145 22.6461,31.97485 9.17811,9.37893 11.7534,11.59476 11.7534,10.11284 z"
     id="path4356" />
  <path
     inkscape:connector-curvature="0"
     style="fill:#fefefe"
     d="m 456.59568,123.69149 c -0.004,-0.64454 -0.83561,-6.00436 -1.84934,-11.91075 -1.50287,-8.75633 -1.64472,-11.40317 -0.76838,-14.33727 0.90343,-3.02479 0.83733,-3.83656 -0.41465,-5.09245 -1.93759,-1.94365 -4.43499,-0.94466 -4.44933,1.77979 -0.007,1.17634 0.93323,8.01218 2.08761,15.19075 1.61219,10.0255 1.83151,13.14136 0.94584,13.43751 -2.20659,0.73783 -1.13467,2.10429 1.65071,2.10429 1.62324,0 2.80113,-0.49341 2.79754,-1.17187 z"
     id="path4334" />
  <path
     inkscape:connector-curvature="0"
     style="fill:#fefefe"
     d="m 447.85546,90.63737 c 0.73636,-1.92493 -2.12209,-6.08651 -4.18061,-6.08651 -0.91795,0 -2.45525,0.57672 -3.41623,1.2816 -1.67855,1.23122 -1.6505,1.37864 0.71347,3.75 2.72152,2.73002 6.04758,3.23976 6.88337,1.05491 z"
     id="path3474" />
  <path
     inkscape:connector-curvature="0"
     style="fill:#0000fe"
     d="m 464.07851,113.3913 c 0,-0.74928 0.86219,-2.14505 1.91598,-3.1017 1.64288,-1.49143 2.34225,-1.5838 4.90654,-0.64804 l 2.99056,1.09131 -3.41387,-3.01288 c -1.87762,-1.65708 -4.3433,-4.91132 -5.47929,-7.23163 -2.46239,-5.02954 -5.15173,-8.14155 -8.58379,-9.93283 -2.87884,-1.50254 -5.99769,-1.71778 -6.76824,-0.4671 -0.28806,0.46754 0.22936,0.65251 1.14981,0.41106 0.9451,-0.24792 2.42473,0.39361 3.39931,1.47388 1.54045,1.7075 1.60141,2.35837 0.56774,6.06181 -0.67693,2.42531 -0.82675,4.71629 -0.36063,5.51465 1.8099,3.09998 9.67588,11.10057 9.67588,9.84147 z"
     id="path3470" />
  <path
     style="fill:#000000"
     d="m 180.67555,195.10946 c 0,0 -0.64253,15.52794 -0.65249,18.76513 -0.01,3.23719 0.10991,12.1819 0.10991,12.1819 l -18.83008,-0.14453 c -17.27229,0 -22.01399,0.0871 -22.01399,1.05859 0,0.97153 4.63001,1.05859 22.01399,1.05859 l 18.83008,0 0,22.5 0,22.5 -18.83008,0 0,0.48828 c 9.54093,-0.006 20.93188,-0.007 31.03516,-0.0117 l 0,-0.47657 -9.28516,0 c 0,0 0.29396,-48.39975 0.22358,-59.46551 -0.0704,-11.06575 -0.52245,-18.45418 -0.52245,-18.45418 z"
     id="path4401"
     inkscape:connector-curvature="0"
     sodipodi:nodetypes="czcczccccccccczcc" />
  <path
     sodipodi:nodetypes="czcczccccccccczcc"
     inkscape:connector-curvature="0"
     id="path4408"
     d="m 256.4979,195.10946 c 0,0 -0.64253,15.52794 -0.65249,18.76513 -0.01,3.23719 0.10991,12.1819 0.10991,12.1819 l -9.28336,-0.14453 c -17.27229,0 -22.01399,0.0871 -22.01399,1.05859 0,0.97153 4.63001,1.05859 22.01399,1.05859 l 9.28336,0 0,22.5 0,22.5 -18.83008,0 0,0.48828 c 9.54093,-0.006 20.93188,-0.007 31.03516,-0.0117 l 0,-0.47657 -9.28516,0 c 0,0 0.29396,-48.39975 0.22358,-59.46551 -0.0704,-11.06575 -0.52245,-18.45418 -0.52245,-18.45418 z"
     style="fill:#000000" />
  <path
     style="fill:#000000"
     d="m 299.61039,195.10946 c 0,0 -0.64253,15.52794 -0.65249,18.76513 -0.01,3.23719 0.10991,12.1819 0.10991,12.1819 l -6.01738,-0.14453 c -17.27229,0 -22.01399,0.0871 -22.01399,1.05859 0,0.97153 4.63001,1.05859 22.01399,1.05859 l 6.01738,0 0,22.5 0,22.5 -18.83008,0 0,0.48828 c 9.54093,-0.006 20.93188,-0.007 31.03516,-0.0117 l 0,-0.47657 -9.28516,0 c 0,0 0.29396,-48.39975 0.22358,-59.46551 -0.0704,-11.06575 -0.52245,-18.45418 -0.52245,-18.45418 z"
     id="path4410"
     inkscape:connector-curvature="0"
     sodipodi:nodetypes="czcczccccccccczcc" />
  <path
     sodipodi:nodetypes="ccccccccccccczccscccc"
     inkscape:connector-curvature="0"
     id="path4412"
     d="m 453.56618,125.28305 c 0.85136,-0.0525 2.25269,0.25068 2.5,1.70703 0.0282,0.16617 0.0435,0.45578 0.0664,0.67383 l -0.11914,70.11523 -0.125,75.25 9.28515,0 0,0.47657 c -10.10328,0.005 -21.49422,0.006 -31.03515,0.0117 l 0,-0.48828 18.83007,0 0,-22.5 0,-22.5 -6.26859,0 c -12.75748,0 -17.27203,-0.37784 -17.27203,-1.05859 0,-0.68075 5.33846,-1.05859 17.27203,-1.05859 l 6.26859,0.14453 0,-48.44141 c 0,-39.03579 -0.15754,-47.31898 -1.24218,-49.51562 -0.1041,-0.67614 0.78735,-2.62212 1.51367,-2.77344 0.0942,-0.0196 0.20455,-0.0355 0.32617,-0.043 z"
     style="fill:#000000" />
  <path
     sodipodi:nodetypes="ccccccccc"
     inkscape:connector-curvature="0"
     id="path4190"
     d="m 160.13297,272.88853 -18.83008,0 c -6.01057,0 -7.82237,0.38183 -7.82237,0.38183 0,0 1.43322,0.24121 7.82237,0.24121 l 331.03516,0 c 10.81268,0 13.47834,-0.24414 13.47834,-0.24414 0,0 -2.72834,-0.3789 -13.47834,-0.3789 l -309.28516,0 z"
     style="fill:#000000" />
</svg>
