<?xml version="1.0" encoding="UTF-8" standalone="no"?>
<!-- Created with Inkscape (http://www.inkscape.org/) -->

<svg
   xmlns:dc="http://purl.org/dc/elements/1.1/"
   xmlns:cc="http://creativecommons.org/ns#"
   xmlns:rdf="http://www.w3.org/1999/02/22-rdf-syntax-ns#"
   xmlns:svg="http://www.w3.org/2000/svg"
   xmlns="http://www.w3.org/2000/svg"
   xmlns:sodipodi="http://sodipodi.sourceforge.net/DTD/sodipodi-0.dtd"
   xmlns:inkscape="http://www.inkscape.org/namespaces/inkscape"
   id="svg3508"
   version="1.1"
   inkscape:version="0.91 r13725"
   width="542.05609"
   height="282.1875"
   viewBox="0 0 542.05609 282.1875"
   sodipodi:docname="ub330501.svg">
  <metadata
     id="metadata3514">
    <rdf:RDF>
      <cc:Work
         rdf:about="">
        <dc:format>image/svg+xml</dc:format>
        <dc:type
           rdf:resource="http://purl.org/dc/dcmitype/StillImage" />
        <dc:title></dc:title>
      </cc:Work>
    </rdf:RDF>
  </metadata>
  <defs
     id="defs3512" />
  <sodipodi:namedview
     pagecolor="#ffffff"
     bordercolor="#666666"
     borderopacity="1"
     objecttolerance="10"
     gridtolerance="10"
     guidetolerance="10"
     inkscape:pageopacity="0"
     inkscape:pageshadow="2"
     inkscape:window-width="1551"
     inkscape:window-height="948"
     id="namedview3510"
     showgrid="false"
     inkscape:zoom="1.6062208"
     inkscape:cx="297.30581"
     inkscape:cy="92.174989"
     inkscape:window-x="0"
     inkscape:window-y="0"
     inkscape:window-maximized="0"
     inkscape:current-layer="svg3508" />
  <g
     id="g3518">
    <path
       style="fill:#fefefe"
       d="m 181.01788,165.53591 c -5.7084,-1.53947 -6.44654,-2.32893 -6.08163,-6.50448 l 0.2974,-3.40317 4.20532,2.8009 c 2.31292,1.54049 6.20311,3.52153 8.64486,4.40231 4.6743,1.68611 5.39879,2.53617 2.96123,3.47448 -2.13436,0.82159 -4.91801,0.60782 -10.02718,-0.77004 z m 39.14391,-0.49774 c -1.71108,-0.61552 -1.71606,-0.68042 -0.0999,-1.30255 1.85702,-0.71483 2.74997,-0.28269 2.23171,1.08002 -0.18205,0.47868 -1.14137,0.57881 -2.13183,0.22253 z m -61.67573,-10.79049 c -7.1543,-4.3669 -13.31331,-8.26925 -13.68667,-8.67187 -1.11484,-1.2022 0.80232,-4.93973 2.94088,-5.7333 1.57929,-0.58605 4.28335,0.77281 13.1061,6.58618 l 11.11625,7.32457 0,4.21712 c 0,2.31941 -0.10547,4.21712 -0.23436,4.21712 -0.12891,0 -6.0879,-3.57292 -13.2422,-7.93982 z m 68.38311,5.05223 c -1.44271,-0.84292 -1.62575,-2.52506 -1.55268,-14.26837 l 0.0828,-13.31279 2.08244,9.62517 c 1.14533,5.29385 2.58002,10.12432 3.18818,10.73438 1.4325,1.43697 1.42312,5.66583 -0.0157,7.1092 -1.33916,1.34334 -1.66183,1.35292 -3.78505,0.11241 z m -9.81309,-1.06912 c -1.57087,-0.75997 -2.1028,-1.82542 -2.1028,-4.2119 0,-3.11823 0.0837,-3.18762 3.50467,-2.90361 3.4019,0.28244 3.5131,0.40781 3.79206,4.27534 0.31319,4.34229 -0.81445,4.95891 -5.19393,2.84017 z m 79.17569,-3.15348 c -1.38626,-3.65752 -1.0998,-5.5298 1.23227,-8.054 2.33678,-2.52931 3.92985,-2.47839 5.34323,0.1708 0.67795,1.27072 0.39246,2.70339 -1.09621,5.50109 -2.52793,4.75078 -4.29101,5.51727 -5.47929,2.38211 z m -53.75511,-7.96563 c -0.34337,-0.55733 -1.15901,-3.19405 -1.81252,-5.85937 -1.33463,-5.44325 -13.7557,-38.58173 -16.47324,-43.949335 -0.96854,-1.913053 -1.76099,-3.706023 -1.76099,-3.984377 0,-1.450031 2.77216,-0.106236 6.21369,3.012058 3.40811,3.088022 4.90643,6.011124 12.38318,24.158474 4.67826,11.35495 8.50594,21.10195 8.50594,21.65997 0,1.31 -4.30034,5.9759 -5.50769,5.9759 -0.50824,0 -1.205,-0.45599 -1.54837,-1.01332 z m 58.25432,-2.83234 c -0.85647,-0.48081 -6.3129,-1.92821 -12.1254,-3.21645 -12.0739,-2.67599 -15.4415,-3.8931 -14.20463,-5.13384 0.51497,-0.51658 5.4051,-0.1235 12.32853,0.99098 6.31127,1.01593 12.51531,1.58524 13.78678,1.26512 2.68839,-0.67685 5.09123,0.95571 5.09123,3.45916 0,2.25555 -2.82923,3.78432 -4.87651,2.63503 z m -31.57209,-8.39717 c 0,-0.54606 0.42056,-0.7321 0.93458,-0.41342 0.51401,0.31868 0.93458,0.76545 0.93458,0.99283 0,0.22738 -0.42057,0.41342 -0.93458,0.41342 -0.51402,0 -0.93458,-0.44678 -0.93458,-0.99283 z m 72.92561,-2.91342 c -0.0156,-0.85937 -0.42546,-1.70312 -0.91074,-1.875 -0.48528,-0.17188 2.45665,-4.74219 6.53762,-10.15625 4.08098,-5.41406 7.75513,-11.07463 8.16479,-12.57905 1.07797,-3.95873 3.34963,-5.1197 5.75137,-2.93936 1.05813,0.96058 1.92387,2.31654 1.92387,3.01325 0,0.69671 -4.34859,6.01023 -9.66354,11.80783 -5.31494,5.79759 -10.13861,11.38483 -10.71924,12.41608 -0.86682,1.53952 -1.06079,1.59544 -1.08413,0.3125 z m -176.92814,-3.2022 c -2.4584,-1.28351 -8.10156,-3.80234 -12.54037,-5.59741 -9.4538,-3.82317 -10.74559,-4.74093 -10.37137,-7.36835 0.47651,-3.3455 3.95302,-2.89071 9.09998,1.19046 6.39069,5.06733 14.6009,9.67871 19.68344,11.05547 2.34707,0.63578 3.27634,1.16719 2.10281,1.20251 -1.15655,0.0348 -2.10281,0.48514 -2.10281,1.00077 0,1.34985 -0.86197,1.13208 -5.87168,-1.48345 z m 55.42507,-2.66124 c -1.07625,-3.85595 -0.80024,-6.17013 0.73542,-6.16613 0.35517,9.3e-4 0.70043,2.32124 0.76723,5.15625 0.0668,2.83502 0.0164,5.15457 -0.11219,5.15457 -0.1285,0 -0.75421,-1.86511 -1.39046,-4.14469 z m 233.62419,3.16488 c -0.77103,-0.41795 -2.09377,-0.97107 -2.93942,-1.22917 -1.26981,-0.38754 -1.65421,-2.49818 -2.20751,-12.12118 -0.36848,-6.40856 -0.37858,-13.38199 -0.0224,-15.49652 0.57348,-3.405014 0.83945,-3.724354 2.3262,-2.792957 2.23572,1.400587 2.98986,9.064787 1.86114,18.914337 -0.80287,7.00605 -0.71761,7.82251 1.07177,10.26337 2.11732,2.88821 2.08979,3.64356 -0.0897,2.46212 z m 50.46729,0.3024 c 0,-0.49884 0.83752,-1.6673 1.86115,-2.59657 1.99723,-1.81312 1.99004,-3.81735 -0.0666,-18.55836 -1.02943,-7.37829 -0.0793,-10.329966 3.17526,-9.865172 1.77546,0.253546 1.99648,0.776862 1.70689,4.041262 -0.18299,2.0625 -0.39327,8.59331 -0.46729,14.51292 -0.12463,9.96469 -0.27324,10.78916 -2.00377,11.11651 -1.02804,0.19448 -2.39486,0.78172 -3.03738,1.30499 -0.72211,0.5881 -1.16823,0.60505 -1.16823,0.0444 z M 92.806364,128.76255 c -0.326106,-0.85248 -0.158023,-5.59857 0.373518,-10.54687 0.531541,-4.94832 0.773934,-10.94122 0.538644,-13.31757 -0.44426,-4.48705 0.830318,-6.123598 3.860682,-4.957104 2.444952,0.941144 2.349113,4.545554 -0.408719,15.371494 -2.728384,10.71032 -2.734262,10.79149 -0.893047,12.33777 2.45329,2.06033 2.337449,2.66223 -0.512374,2.66223 -1.338262,0 -2.623306,-0.67318 -2.958704,-1.54995 z m 310.402366,0.68782 c -0.47975,-0.45698 -1.71339,-0.98554 -2.74143,-1.17457 -1.73116,-0.31833 -1.87909,-1.13835 -2.00377,-11.10663 -0.074,-5.91961 -0.2843,-12.45042 -0.46729,-14.51292 -0.28959,-3.264403 -0.0686,-3.787716 1.70689,-4.041263 2.5582,-0.365334 4.36242,2.721353 3.62729,6.205623 -0.29279,1.38772 -0.9359,6.52056 -1.42914,11.40628 -0.85077,8.42725 -0.79447,8.9924 1.09686,11.01193 1.88387,2.01155 2.07172,3.98436 0.21059,2.21155 z m -47.03078,-8.31947 c -0.77508,-1.45279 -0.45852,-2.27428 1.66153,-4.31175 2.3717,-2.27935 2.73731,-2.37407 3.87156,-1.0031 1.05464,1.27474 1.01376,1.91 -0.25876,4.02082 -1.88141,3.1208 -4.0198,3.64545 -5.27433,1.29403 z m 110.47499,-2.33722 c 0.19523,-5.06025 -4.43466,-14.86695 -9.68591,-20.516005 -4.27801,-4.602081 -4.65025,-6.944224 -1.34385,-8.45543 3.18858,-1.457353 3.99941,-0.256326 9.77942,14.485535 4.84958,12.3688 5.48421,15.4589 3.56938,17.37972 -1.9323,1.93834 -2.47914,1.25596 -2.31904,-2.89382 z m -169.57041,-0.34447 c -0.83359,-0.22845 -2.91388,-2.18783 -4.62286,-4.35417 -11.4352,-14.495481 -20.34419,-24.454037 -24.96088,-27.901523 -2.94208,-2.19699 -5.52448,-4.137737 -5.73866,-4.312772 -0.21417,-0.175035 -0.14932,-0.559082 0.14412,-0.853439 0.29344,-0.294357 3.4126,0.327611 6.93147,1.38215 6.17156,1.849503 6.84118,2.363286 18.92519,14.520722 9.12122,9.176632 12.61931,13.325272 12.86582,15.258472 0.1862,1.4603 0.43678,3.48269 0.55685,4.49418 0.22235,1.87327 -1.30716,2.53206 -4.10105,1.76638 z M 143.61371,112.8125 c -1.62643,-1.63152 -0.49362,-5.01898 2.13428,-6.38217 3.74957,-1.94505 3.78472,-1.92443 3.78472,2.21937 0,2.46321 -0.48058,3.83469 -1.4783,4.21875 -1.93285,0.74402 -3.66498,0.7222 -4.4407,-0.056 z m 358.28518,-2.89062 c 0.0164,-1.41797 0.59746,-3.32881 1.29135,-4.24631 1.1335,-1.49878 1.32029,-1.51479 1.83943,-0.1577 0.3178,0.83077 0.57782,2.7416 0.57782,4.24631 0,2.11082 -0.42701,2.73582 -1.86916,2.73582 -1.42323,0 -1.86206,-0.61507 -1.83944,-2.57812 z m -98.16056,-1.0952 c 0,-1.50471 0.26002,-3.41554 0.57782,-4.24631 0.51914,-1.35709 0.70593,-1.34108 1.83943,0.1577 0.69389,0.9175 1.27499,2.82834 1.29135,4.24631 0.0226,1.96305 -0.41621,2.57812 -1.83944,2.57812 -1.44215,0 -1.86916,-0.625 -1.86916,-2.73582 z m 51.63551,-1.63507 c -1.71464,-0.69404 -1.48715,-6.81519 0.27855,-7.494869 1.45864,-0.561478 2.637,0.615019 5.54638,5.537639 l 1.52374,2.57812 -3.09022,-0.0741 c -1.69962,-0.0407 -3.61592,-0.2868 -4.25845,-0.54687 z m -354.40638,-3.06748 c -1.583756,-2.96853 -1.115401,-4.676164 1.4604,-5.324671 1.92715,-0.485193 3.02293,-0.01434 5.31321,2.283111 l 2.88535,2.89436 -2.57031,0.98028 c -3.8147,1.45488 -6.00534,1.19742 -7.08865,-0.83308 z M 20.560748,99.668803 c 0,-1.934981 8.985664,-4.865578 16.588786,-5.410294 l 7.71028,-0.552381 0,2.834435 0,2.834437 -6.404962,0 c -3.522729,0 -8.990018,0.271041 -12.149533,0.602306 -3.506408,0.367634 -5.744571,0.247444 -5.744571,-0.308503 z m 36.682244,-0.05616 -10.514019,-0.299053 0,-2.691582 0,-2.691581 9.88356,-0.675769 c 6.900176,-0.471787 10.200814,-0.357525 10.93458,0.378534 0.578061,0.579863 1.756534,1.054304 2.618828,1.054304 2.129579,0 3.82789,2.235525 3.114682,4.099922 -0.367239,0.96 -1.498637,1.450828 -3.053508,1.324678 -1.358557,-0.11021 -7.201412,-0.334969 -12.984123,-0.499453 z M 355.9365,81.438137 c -1.76936,-0.647485 -2.63885,-1.783196 -3.05055,-3.984515 -1.12429,-6.011712 -13.60422,-35.601512 -16.13153,-38.247694 -2.7976,-2.929187 -2.46199,-4.091752 0.93436,-3.23666 4.33039,1.090255 6.25848,3.983332 14.4533,21.686982 9.88213,21.348838 10.67187,26.298653 3.79442,23.781887 z m 150.06791,-7.512145 c -1.29052,-2.50338 -1.49981,-6.292966 -1.38503,-25.078125 0.12158,-19.898266 0.33215,-22.672549 2.08876,-27.519742 1.07444,-2.964844 2.31775,-5.390625 2.76289,-5.390625 0.44515,0 0.80936,2.429978 0.80936,5.399949 0,5.398701 2.29996,36.690471 3.37147,45.870032 0.5096,4.365718 0.32257,5.10967 -1.82668,7.265625 -3.10048,3.110174 -3.97792,3.027701 -5.82077,-0.547114 z M 397.52064,73.535606 c -2.14925,-2.155955 -2.33628,-2.899907 -1.82668,-7.265625 1.07151,-9.179561 3.37147,-40.471331 3.37147,-45.870032 0,-2.969972 0.36421,-5.399949 0.80936,-5.399949 0.44514,0 1.68845,2.425781 2.76289,5.390625 1.75661,4.847193 1.96718,7.621476 2.08876,27.519742 0.11478,18.785159 -0.0945,22.574745 -1.38503,25.078125 -1.84285,3.574815 -2.72029,3.657288 -5.82077,0.547114 z m 61.3215,-0.843151 c -3.48205,-1.900337 -4.3326,-4.470738 -5.47547,-16.547077 -1.39176,-14.706307 -1.48091,-13.957878 1.66259,-13.957878 2.40108,0 2.80458,0.445363 3.72479,4.111304 1.07667,4.28922 3.86279,23.079661 3.86279,26.051886 0,2.021265 -0.59807,2.075415 -3.7747,0.341765 z M 450.0943,69.16499 c -0.339,-1.689182 -0.87921,-8.239209 -1.20048,-14.555615 -0.50283,-9.885791 -0.38728,-11.484375 0.83002,-11.484375 1.09768,0 1.65281,2.105481 2.48067,9.408602 1.36898,12.076685 1.34241,14.218648 -0.21366,17.22735 l -1.28018,2.475278 -0.61637,-3.07124 z M 448.12196,30.644677 C 447.39119,18.912639 447.85641,15.9375 450.42173,15.9375 c 2.19544,0 5.44311,7.864079 6.61975,16.029434 1.21602,8.438578 1.23721,8.345566 -1.90128,8.345566 -2.75192,0 -2.8048,-0.09098 -2.86136,-4.921875 -0.0317,-2.707031 -0.65529,-7.664063 -1.38576,-11.015625 -1.30948,-6.008179 -1.31905,-6.021343 -0.68147,-0.9375 1.03203,8.229147 0.85427,17.134273 -0.35016,17.541937 -0.74186,0.251098 -1.27885,-2.939283 -1.73949,-10.33476 z"
       id="path3528"
       inkscape:connector-curvature="0" />
    <path
       style="fill:#0000fe"
       d="m 226.53736,161.09068 c -0.46521,-0.75508 -0.14909,-0.89408 1.01458,-0.44615 3.59199,1.38269 7.01878,-5.59079 4.15768,-8.46082 -0.71117,-0.7134 0.40101,-1.86895 3.84433,-3.99428 4.82098,-2.97564 4.85169,-2.98089 6.19385,-1.0587 1.81954,2.60588 2.82102,2.44255 6.00809,-0.97988 3.2013,-3.43772 3.54737,-1.99938 0.96379,4.0058 -2.34274,5.4454 -8.10855,9.94589 -14.23547,11.11146 -6.18958,1.1775 -7.12493,1.15662 -7.94685,-0.17743 z m -84.73351,-20.80733 c -2.42222,-5.9125 -2.83627,-9.27335 -2.10581,-17.09283 0.59036,-6.31968 0.79797,-6.90619 1.75074,-4.94586 0.59452,1.22325 2.77707,3.08485 4.85009,4.13688 3.72176,1.88873 3.75917,1.95946 2.97598,5.625 -0.43623,2.04172 -0.56694,5.19863 -0.29046,7.01539 0.42125,2.7681 0.16844,3.45148 -1.56071,4.21875 -1.13486,0.50356 -2.50621,1.81652 -3.04742,2.91767 -0.92156,1.87496 -1.08491,1.75589 -2.57241,-1.875 z m 162.47116,-2.35823 c -0.50631,-0.82177 -1.7809,-1.02465 -3.91474,-0.62308 -3.67566,0.69171 -3.48982,1.21174 -3.57168,-9.99473 -0.057,-7.80398 0.0253,-8.14011 1.8789,-7.67412 2.91737,0.73343 4.2752,-1.50335 3.19857,-5.26907 -1.28324,-4.48837 -0.4482,-4.55182 1.79728,-0.13657 1.27013,2.49743 2.10481,6.43354 2.45462,11.57523 0.54519,8.01347 -0.42851,14.41812 -1.84295,12.12234 z m 57.85459,-32.94723 c -2.02791,-2.24781 -3.06191,-2.31523 -5.23616,-0.34141 -1.54889,1.4061 -1.69795,1.35708 -2.13807,-0.70312 -0.46635,-2.18311 -1.24952,-22.37086 -0.86785,-22.37086 0.10803,0 1.32635,0.430943 2.70739,0.957652 3.33556,1.272142 5.4119,-0.374142 4.6673,-3.700587 -0.39826,-1.779146 -0.30555,-2.029704 0.35278,-0.953491 1.7744,2.900728 4.78022,20.45871 4.16408,24.323856 -0.73741,4.62593 -1.47971,5.19301 -3.64947,2.78796 z M 85.046731,104.09721 c -2.313084,-0.35875 -5.998341,-1.16384 -8.18946,-1.78908 -3.610016,-1.03015 -3.888047,-1.31639 -2.962893,-3.050467 1.209145,-2.266369 -0.847956,-5.151957 -4.13216,-5.796368 -1.318571,-0.258725 -0.954848,-0.437171 1.062194,-0.521124 1.68707,-0.07022 4.577216,0.505142 6.422546,1.278579 1.847256,0.774244 6.16374,1.40625 9.604441,1.40625 3.812612,0 6.93123,0.500194 7.99822,1.282837 1.690113,1.239713 1.680412,1.319635 -0.288663,2.376741 -1.247672,0.669816 -2.037589,1.989712 -2.037589,3.404652 0,2.50031 -0.19582,2.53719 -7.476636,1.40798 z M 504.1647,100.01397 c -0.3362,-1.343717 -0.13848,-6.007029 0.43937,-10.362905 0.72263,-5.447161 0.75862,-9.190083 0.1153,-11.988548 -1.34528,-5.852006 -1.20322,-6.320802 0.87788,-2.896892 2.16734,3.565815 2.70348,3.672601 5.87493,1.170143 l 2.37844,-1.876731 0.6681,8.045557 c 0.92917,11.18931 -0.62387,20.861636 -2.78614,17.35209 -1.04022,-1.688381 -4.05864,-1.149946 -5.55328,0.990606 l -1.40332,2.00981 -0.61128,-2.44313 z m -101.159,-0.662961 c -1.24505,-1.999884 -4.37531,-2.482753 -5.39246,-0.831825 -2.16227,3.509546 -3.71531,-6.16278 -2.78614,-17.35209 l 0.6681,-8.045557 2.37844,1.876731 c 3.17145,2.502458 3.70759,2.395672 5.87493,-1.170143 2.0641,-3.395933 2.234,-2.915443 0.91169,2.578125 -0.6024,2.502711 -0.5527,6.742155 0.14944,12.745973 1.13188,9.678455 0.41063,13.756037 -1.804,10.198786 z m 48.11017,-1.875468 c -1.32399,-1.044694 -2.6406,-2.636972 -2.9258,-3.538388 -0.57324,-1.811769 2.44328,-18.744444 4.11706,-23.110359 l 1.06079,-2.766957 2.05436,2.444266 c 1.1299,1.344347 3.0031,2.92205 4.16265,3.506009 2.0168,1.015669 2.045,1.184504 0.64985,3.890861 -1.32025,2.561055 -1.32077,3.304171 -0.006,7.842737 1.87071,6.455143 1.80871,7.113976 -0.40054,4.25629 -1.72429,-2.230376 -1.93803,-2.27421 -4.41848,-0.906171 -3.22066,1.776292 -3.78744,4.877824 -1.34002,7.332893 1.69343,1.698722 1.7382,2.948278 0.10563,2.948278 -0.35903,0 -1.73604,-0.854756 -3.06002,-1.899459 z"
       id="path3524"
       inkscape:connector-curvature="0" />
    <path
       style="fill:#fe0000"
       d="m 314.95328,164.64933 c 0,-0.19286 1.0595,-2.25226 2.35447,-4.57643 6.31036,-11.32575 9.51673,-28.9509 7.06108,-38.81424 -1.80488,-7.24952 -5.80822,-15.56476 -6.94472,-14.42471 -0.53653,0.53821 -1.26203,0.97855 -1.61222,0.97855 -0.84723,0 -2.96043,-8.516606 -2.28206,-9.197109 0.80012,-0.802613 8.90009,3.390009 8.90009,4.606759 0,0.5903 -0.81083,0.84633 -1.83195,0.57847 -1.63432,-0.42872 -1.49704,0.19161 1.27244,5.75003 1.70741,3.42683 3.64112,8.5123 4.29714,11.30103 1.5849,6.73749 0.71001,19.59529 -1.85255,27.22589 C 321.80687,155.54613 317.09145,165 315.8744,165 c -0.50662,0 -0.92112,-0.1578 -0.92112,-0.35067 z M 86.573905,160.70019 C 74.721741,157.82244 63.902645,149.84153 56.206796,138.29932 47.978653,125.95879 44.225795,111.93539 45.162882,97.03125 c 0.464926,-7.394548 2.708672,-18.802401 3.941341,-20.038922 1.301952,-1.306021 1.295263,1.276863 -0.01582,6.11008 -2.444672,9.012081 -2.85048,21.241702 -1.007686,30.368032 1.968951,9.75112 4.282125,15.43702 9.606135,23.61239 14.815785,22.7506 42.698881,29.79545 63.831221,16.12739 3.67956,-2.37988 3.92985,-2.74363 2.08007,-3.02302 -1.15654,-0.17468 -2.10281,-0.64072 -2.10281,-1.03563 0,-0.72818 10.46641,-3.96497 11.02126,-3.40837 0.57254,0.57433 -5.57654,9.8818 -6.52851,9.8818 -0.52492,0 -0.71973,-0.61347 -0.4329,-1.36327 0.32416,-0.84739 -1.67154,-0.15427 -5.27385,1.83164 -10.38117,5.72307 -22.364754,7.36087 -33.707422,4.60682 z M 469.85983,56.50043 c -1.92757,-0.793299 -3.47431,-1.70152 -3.4372,-2.01827 0.0371,-0.31675 1.52437,-1.791027 3.30504,-3.276171 3.25263,-2.712838 5.39616,-2.803529 3.18829,-0.134895 -1.63462,1.975747 0.68489,1.955598 3.51161,-0.03051 2.37346,-1.667628 2.70242,-4.352921 0.73402,-5.991658 -2.38834,-1.988347 -19.41925,-3.311908 -27.13421,-2.108741 -12.45208,1.941931 -17.54426,5.34862 -15.87604,10.621136 0.30474,0.963147 0.11318,1.751175 -0.42568,1.751175 -1.30311,0 -2.27012,-4.073665 -1.5256,-6.426763 1.30462,-4.123333 14.36371,-8.573237 25.15981,-8.573237 8.07277,0 19.58537,1.886634 21.37846,3.503408 3.15439,2.844222 1.61848,7.687045 -3.05366,9.628356 -2.02923,0.843159 -2.59725,1.496535 -1.90487,2.191078 1.14256,1.146132 1.30752,2.531375 0.28563,2.398553 -0.38551,-0.05011 -2.27803,-0.740168 -4.2056,-1.533465 z"
       id="path3522"
       inkscape:connector-curvature="0" />
    <path
       style="fill:#000000"
       d="m 23.185091,262.73644 c 11.249432,-0.26377 12.392031,-0.44569 11.962163,-1.90466 -0.261395,-0.88716 -1.946072,-8.99584 -3.743724,-18.01928 -1.797653,-9.02344 -5.206614,-25.6875 -7.575469,-37.03125 -6.133484,-29.37146 -5.85549,-26.71875 -2.800023,-26.71875 2.40884,0 2.546918,0.21076 2.069894,3.1595 -0.311515,1.92565 0.845263,9.52252 2.962135,19.45312 l 3.473254,16.29363 31.962313,0.24668 31.962313,0.24669 0,-28.13731 c 0,-24.38594 0.186906,-28.13731 1.401869,-28.13731 1.228635,0 1.401869,6.19792 1.401869,50.15625 l 0,50.15625 37.850465,0 37.85047,0 0,-21.09375 0,-21.09375 -10.28037,0 c -6.23054,0 -10.28038,-0.36932 -10.28038,-0.9375 0,-0.56818 4.04984,-0.9375 10.28038,-0.9375 l 10.28037,0 0,-27.51594 0,-27.51594 -12.85047,-7.79135 c -15.45253,-9.369 -15.65452,-9.53443 -18.2325,-14.93099 -1.70203,-3.5629 -2.03539,-5.87204 -1.99658,-13.82971 0.0307,-6.28826 0.45272,-10.04356 1.23505,-10.98915 0.98086,-1.18557 0.82613,-2.02455 -0.88585,-4.80326 -1.14087,-1.85172 -2.19985,-5.23488 -2.35331,-7.51814 -0.23624,-3.51503 0.0868,-4.440036 2.1078,-6.034686 2.40238,-1.895625 4.93848,-2.495503 4.93848,-1.168143 0,0.393356 -0.91906,1.131637 -2.04235,1.640625 -3.51907,1.594575 -2.92792,2.878434 1.14594,2.488714 5.34494,-0.511321 7.43846,1.58311 7.43846,7.44169 0,3.18663 -0.44499,4.74542 -1.5283,5.35356 -1.26801,0.71184 -0.67113,1.49684 3.50467,4.60912 7.26828,5.41716 13.63233,8.90694 18.51835,10.1547 l 4.27164,1.09086 -0.34133,12.61697 -0.34132,12.61698 4.54693,2.90847 c 2.50081,1.59967 6.43946,3.63672 8.75254,4.52679 5.73366,2.20628 6.47036,3.03847 4.20561,4.75071 -2.14581,1.62232 -8.97439,1.10401 -14.17555,-1.07595 l -3.11417,-1.30526 0,49.17092 0,49.17091 23.83178,0 23.83177,0 0,-21.09375 0,-21.09375 -8.41121,0 c -4.98442,0 -8.41122,-0.38195 -8.41122,-0.9375 0,-0.55568 3.4318,-0.9375 8.42624,-0.9375 l 8.42623,0 -0.24866,-25.46802 -0.24867,-25.46801 -3.79254,-1.01637 c -6.26304,-1.67841 -8.09339,-3.55964 -8.59899,-8.83794 -0.40314,-4.20871 -0.21613,-4.79745 1.98304,-6.24291 1.65013,-1.08458 3.78153,-1.48798 6.65197,-1.25898 l 4.22381,0.33699 0.003,-7.038 c 0.002,-4.49056 -0.72927,-9.51613 -2.01998,-13.88449 -1.91377,-6.47697 -1.93607,-6.93233 -0.41314,-8.4375 1.5142,-1.49652 1.68193,-1.49358 2.82395,0.0496 0.66777,0.90234 1.70363,1.64062 2.3019,1.64062 0.66001,0 1.03008,1.3825 0.94106,3.51563 -0.0806,1.93359 0.81503,8.07098 1.9905,13.63865 2.33571,11.06324 2.0031,10.79735 8.42195,6.73265 3.55286,-2.24983 3.85807,-2.74264 3.33219,-5.38027 -0.72823,-3.65249 -12.86463,-36.02968 -16.00825,-42.706384 -3.70839,-7.876238 -1.47254,-9.029377 5.33864,-2.7534 3.94827,3.638025 5.05925,5.777244 12.78071,24.609374 4.65111,11.34375 8.70995,21.6958 9.01965,23.00456 0.88783,3.7519 -2.4719,10.32532 -7.30993,14.3021 -4.45334,3.66057 -12.72259,6.09283 -16.5604,4.87094 -1.81194,-0.57692 -1.83792,0.12456 -1.83792,49.63423 l 0,50.21943 22.8972,0 22.8972,0 0,-21.09375 0,-21.09375 -13.55141,0 c -8.41121,0 -13.5514,-0.3556 -13.5514,-0.9375 0,-0.5819 5.14019,-0.9375 13.5514,-0.9375 l 13.55141,0 0,-39.97478 c 0,-34.71336 -0.18729,-40.11213 -1.42287,-41.01844 -1.20063,-0.88067 -1.23713,-1.44479 -0.23365,-3.61166 1.28514,-2.77511 5.39483,-3.7036 5.39483,-1.21885 0,1.42286 0.78173,1.63238 13.55141,3.63186 l 7.47663,1.17069 -0.0119,-9.04325 -0.0119,-9.04327 -3.68719,-4.58677 c -14.09971,-17.539627 -20.6521,-24.804082 -25.64652,-28.433585 -3.1291,-2.273955 -5.68928,-4.458312 -5.68928,-4.854126 0,-1.740783 2.26,-1.730011 8.16056,0.0389 6.16039,1.846802 6.69486,2.26992 20.48492,16.216656 7.78772,7.876208 14.92391,15.796938 15.85821,17.601628 1.38987,2.68466 1.69182,5.45834 1.66069,15.25538 -0.0237,7.46001 -0.42839,12.3657 -1.07345,13.01279 -0.75748,0.75984 -0.42575,2.00741 1.2359,4.64785 1.24922,1.98507 2.2713,4.09844 2.2713,4.69638 0,0.59792 0.64418,1.55965 1.43152,2.13717 1.17895,0.86476 1.24526,1.58597 0.37587,4.08772 -0.58061,1.67074 -1.43508,3.03771 -1.89882,3.03771 -1.05396,0 -1.05072,-0.26778 0.038,-3.14046 1.0816,-2.85371 -0.57165,-3.84072 -3.20179,-1.9115 -2.3037,1.68977 -8.35525,1.67697 -9.75975,-0.0206 -0.60183,-0.72742 -1.33151,-2.78931 -1.62151,-4.58196 -0.41454,-2.56251 -0.0851,-3.70285 1.54055,-5.33366 1.1373,-1.14085 1.71035,-2.40507 1.27343,-2.80937 -0.43691,-0.4043 -5,-1.64725 -10.14018,-2.76212 -5.14019,-1.11487 -10.29206,-2.26419 -11.4486,-2.55404 l -2.1028,-0.52702 0,61.97663 0,61.97664 32.24299,0 32.24299,0 0,-21.09375 0,-21.09375 -9.81309,0 c -5.919,0 -9.81308,-0.37203 -9.81308,-0.9375 0,-0.56579 3.9112,-0.9375 9.86442,-0.9375 l 9.86442,0 -0.28498,-43.59421 c -0.15674,-23.97682 -0.006,-43.594 0.3365,-43.59375 0.34182,2.5e-4 4.26549,-4.93265 8.71928,-10.96201 6.80208,-9.20838 7.99677,-11.34599 7.46644,-13.35937 -0.34725,-1.3183 -0.95447,-7.881286 -1.34938,-14.584411 -0.3949,-6.703125 -1.01801,-13.554903 -1.38468,-15.226174 -1.4438,-6.580892 -13.68118,-35.375098 -16.11902,-37.927608 -4.64417,-4.862613 1.35369,-6.168233 6.65607,-1.4489 1.35,1.201555 6.39112,10.740863 11.76291,22.258932 7.81702,16.761078 9.72205,21.758294 11.30967,29.66717 1.73641,8.650115 1.78964,9.981805 0.58823,14.713691 -1.26545,4.9841 -1.23402,5.31216 0.74771,7.80525 1.81334,2.28126 2.26114,2.44225 3.62796,1.30434 1.32981,-1.10709 1.74268,-1.10303 2.80545,0.0276 1.58828,1.68968 2.82366,8.35697 1.54847,8.35697 -0.51402,0 -1.21416,-1.49492 -1.55586,-3.32205 -0.68907,-3.68451 -2.55697,-3.90163 -3.05002,-0.35452 -0.85096,6.12207 -9.15205,8.81455 -13.50287,4.3797 l -2.06938,-2.10937 -4.51255,4.89939 c -2.4819,2.69467 -5.53097,6.40481 -6.7757,8.24476 l -2.26316,3.34537 0,62.77086 0,62.77087 29.43926,0 29.43925,0 0,-21.09375 0,-21.09375 -15.42056,0 c -9.65732,0 -15.42056,-0.35038 -15.42056,-0.9375 0,-0.58726 5.78253,-0.9375 15.47845,-0.9375 l 15.47846,0 -0.29155,-44.29688 c -0.18072,-27.46083 -0.64673,-44.83135 -1.22611,-45.70312 -0.51402,-0.77344 -0.96973,-6.04687 -1.01269,-11.71875 -0.0814,-10.74554 -0.82835,-15.95514 -2.60939,-18.198684 -1.48101,-1.865597 -1.14845,-21.075686 0.74799,-43.207566 0.86156,-10.054688 1.8607,-23.34375 2.22029,-29.53125 0.76676,-13.193684 2.0608,-14.576683 5.44311,-5.817319 1.96951,5.10052 2.11159,7.024172 2.32394,31.462278 0.1244,14.316278 -0.0825,26.530715 -0.45992,27.143194 -0.37736,0.612478 -0.18713,5.243476 0.42273,10.291106 0.9899,8.193082 1.34659,9.29006 3.32539,10.226829 1.21911,0.577125 2.96881,0.851981 3.88823,0.6108 1.86471,-0.48916 4.3137,1.857302 5.28893,5.067492 0.85831,2.82532 -0.76475,2.68286 -2.67023,-0.23438 -2.16698,-3.31754 -3.3303,-2.90527 -2.70522,0.95871 0.71928,4.44621 -1.57613,7.01004 -6.27613,7.01004 l -3.46551,0 -0.51763,6.32813 c -0.4516,5.52096 -0.27161,6.59367 1.41109,8.41001 1.67774,1.81099 1.75884,2.28714 0.62331,3.65919 -1.08417,1.31001 -1.34916,12.59474 -1.56368,66.58999 l -0.25828,65.01268 24.3237,0 24.32371,0 0,-21.09375 0,-21.09375 -12.61682,0 c -7.78816,0 -12.61682,-0.3588 -12.61682,-0.9375 0,-0.57889 4.84561,-0.9375 12.6677,-0.9375 l 12.66769,0 -0.28451,-43.91953 c -0.2311,-35.67227 -0.527,-44.21239 -1.57573,-45.47908 -0.96816,-1.16937 -1.34755,-5.63565 -1.51641,-17.85168 -0.12386,-8.96067 -0.50109,-16.739907 -0.83828,-17.287182 -0.33718,-0.547284 0.0885,-4.84157 0.94591,-9.542861 1.33368,-7.312568 1.40507,-10.070603 0.49396,-19.085545 -0.58575,-5.795759 -1.00316,-13.25521 -0.92756,-16.576558 0.10156,-4.462161 0.32408,-3.243638 0.85225,4.667122 0.39313,5.888264 0.99889,12.606416 1.34614,14.929227 l 0.63134,4.223292 1.47348,-3.051894 c 1.30207,-2.696901 1.33603,-4.413429 0.29182,-14.757068 -0.6499,-6.437847 -0.98325,-11.904183 -0.74077,-12.147415 0.24246,-0.243231 0.95315,5.163672 1.57929,12.015341 0.62614,6.851669 1.61161,13.442791 2.18993,14.646938 1.06459,2.216653 6.00796,5.404976 6.93633,4.473715 0.65475,-0.656808 -1.41666,-17.117081 -3.12693,-24.847734 -0.72972,-3.298438 -1.14442,-6.180072 -0.92156,-6.40363 0.59604,-0.597903 3.13251,12.057839 4.37593,21.833784 1.02071,8.024977 0.96829,8.716235 -0.94644,12.481148 -1.9554,3.844866 -1.9745,4.166835 -0.54059,9.114699 0.81752,2.820973 1.21808,5.564557 0.89013,6.096853 -0.32795,0.532296 0.18182,1.545496 1.13282,2.251558 1.47352,1.093988 2.05192,1.073691 3.91299,-0.137287 2.53773,-1.651268 2.59893,-1.61973 3.44894,1.777584 0.41267,1.649344 0.27188,2.576203 -0.39132,2.576203 -0.56975,0 -1.0359,-0.632813 -1.0359,-1.40625 0,-0.773438 -0.39574,-1.40625 -0.87942,-1.40625 -1.55932,0 -2.11769,1.9179 -0.96426,3.312037 0.68742,0.830888 0.88987,2.590613 0.52345,4.549903 -0.40836,2.18353 0.002,4.72049 1.29593,8.01373 2.36893,6.02878 2.38949,8.69592 0.0832,10.78961 -2.39322,2.17261 -4.12603,0.99959 -3.45978,-2.34209 0.28916,-1.4503 -0.11484,-4.52278 -0.89776,-6.82772 -1.36781,-4.02683 -1.58582,-4.20377 -5.57178,-4.52177 -2.28154,-0.18203 -4.15146,-0.11698 -4.15535,0.14454 -0.004,0.26153 -0.42112,4.06145 -0.92714,8.44426 -0.84172,7.29027 -0.76334,8.18259 0.92063,10.48038 1.67928,2.29137 1.72011,2.74354 0.46562,5.15625 -1.17075,2.25163 -1.37594,12.08312 -1.38084,66.16024 l -0.006,63.51563 26.16823,0 26.16822,0 0,-21.09375 0,-21.09375 -10.74766,0 c -6.54206,0 -10.74767,-0.36684 -10.74767,-0.9375 0,-0.57066 4.20561,-0.9375 10.74767,-0.9375 l 10.74766,0 -0.006,-41.48438 c -0.005,-35.25805 -0.21863,-41.89386 -1.42412,-44.21268 -1.30973,-2.51935 -1.27944,-2.87839 0.39543,-4.6875 1.55105,-1.67539 1.73881,-2.87585 1.29617,-8.28731 l -0.51763,-6.32813 -3.46551,0 c -4.7,0 -6.99541,-2.56383 -6.27613,-7.01004 0.62508,-3.86398 -0.53824,-4.27625 -2.70522,-0.95871 -1.90548,2.91724 -3.52854,3.0597 -2.67023,0.23438 0.97523,-3.21019 3.42422,-5.55665 5.28892,-5.06749 0.91943,0.24118 2.66913,-0.0337 3.88824,-0.6108 1.9788,-0.936771 2.33549,-2.033749 3.32539,-10.226831 0.60986,-5.04763 0.80009,-9.678628 0.42273,-10.291106 -0.37735,-0.612479 -0.58432,-12.826916 -0.45992,-27.143194 0.21235,-24.438106 0.35443,-26.361758 2.32394,-31.462278 3.38231,-8.759364 4.67634,-7.376365 5.44311,5.817319 0.35959,6.1875 1.35873,19.476562 2.22029,29.53125 1.89644,22.13188 2.229,41.341969 0.74799,43.207566 -1.76841,2.227634 -2.5257,7.419234 -2.65463,18.198684 -0.0679,5.67187 -0.26181,10.52344 -0.43103,10.78125 -1.10905,1.68964 -1.35172,11.94578 -1.64643,69.58352 l -0.32941,64.42727 13.33653,0.28811 c 7.33494,0.15846 -104.84119,0.28891 -249.28045,0.28988 -144.43925,9.8e-4 -257.019984,-0.12946 -250.179399,-0.28984 z m 70.272856,-21.33019 0,-21.09375 -31.877018,0 -31.877018,0 0.647262,2.57812 c 0.630175,2.51007 7.966585,38.70941 7.966585,39.30875 0,0.16535 12.406542,0.30063 27.570094,0.30063 l 27.570095,0 0,-21.09375 z m 97.587113,-75.1003 c 2.43756,-0.93831 1.71307,-1.78837 -2.96123,-3.47448 -2.44175,-0.88078 -6.33194,-2.86182 -8.64486,-4.40231 l -4.20532,-2.8009 -0.2974,3.40317 c -0.36491,4.17555 0.37323,4.96501 6.08163,6.50448 5.10917,1.37787 7.89282,1.59163 10.02718,0.77004 z m 31.14868,-2.79286 c -0.23699,-0.23772 -1.1963,-0.13759 -2.13183,0.22253 -1.61618,0.62213 -1.6112,0.68703 0.0999,1.30255 1.63872,0.58948 3.06944,-0.48435 2.03195,-1.52508 z m -50.23112,-5.54271 0,-4.21712 -11.11625,-7.32457 c -11.83584,-7.79871 -14.10332,-8.32706 -15.9493,-3.71636 -0.46935,1.17227 -0.88001,1.53182 -0.91259,0.79899 -0.0766,-1.72435 2.66751,-4.76132 4.30226,-4.76132 0.93765,0 1.12825,-0.91604 0.73151,-3.51563 -0.29511,-1.93359 -0.17963,-5.18611 0.2566,-7.22783 0.78319,-3.66554 0.74578,-3.73627 -2.97598,-5.625 -2.07302,-1.05203 -4.25557,-2.91363 -4.85009,-4.13688 -0.9543,-1.96348 -1.15801,-1.39915 -1.73864,4.81627 -0.77032,8.24629 -0.12413,12.72596 2.6588,18.43178 1.80185,3.69433 3.50725,5.05546 15.56379,12.42188 7.44712,4.5501 13.65039,8.27291 13.78505,8.27291 0.13466,0 0.24484,-1.89771 0.24484,-4.21712 z m 62.55021,3.29229 c 6.36488,-1.21084 12.3354,-6.0381 14.49985,-11.72335 0.90741,-2.38344 1.3302,-5.10284 0.98191,-6.31565 -0.33641,-1.17146 -4.40564,-11.41117 -9.0427,-22.75492 -7.43488,-18.18807 -8.88916,-21.040088 -12.30829,-24.138094 -3.44153,-3.118294 -6.21369,-4.462089 -6.21369,-3.012058 0,0.278354 0.79245,2.071324 1.76099,3.984377 2.71754,5.367605 15.13861,38.506085 16.47324,43.949335 1.93049,7.87347 2.81356,8.43891 6.70692,4.29456 2.0054,-2.13467 2.23517,-2.21899 1.33583,-0.49023 -0.5974,1.14834 -1.99461,2.57559 -3.10493,3.17167 -1.70334,0.91445 -2.27464,0.76682 -3.65628,-0.94476 l -1.63751,-2.02856 -4.7996,2.96246 c -3.41107,2.10541 -4.51012,3.25286 -3.79895,3.96626 2.8611,2.87003 -0.56569,9.84351 -4.15768,8.46082 -1.16367,-0.44793 -1.47979,-0.30893 -1.01458,0.44615 0.82257,1.33511 1.7557,1.35523 7.97547,0.17199 z m -3.85862,-2.07517 c 1.43887,-1.44337 1.44825,-5.67223 0.0157,-7.1092 -0.60816,-0.61006 -2.04285,-5.44053 -3.18818,-10.73438 l -2.0824,-9.62517 -0.0828,13.31279 c -0.0731,11.74331 0.10997,13.42545 1.55267,14.26837 2.12322,1.24051 2.44589,1.23093 3.78505,-0.11241 z m -8.4042,-3.79688 c -0.27896,-3.86753 -0.39016,-3.9929 -3.79206,-4.27534 -3.42093,-0.28401 -3.50467,-0.21462 -3.50467,2.90361 0,3.29008 2.07043,5.14901 5.89486,5.29266 1.41703,0.0532 1.64293,-0.57861 1.40187,-3.92093 z m 79.46105,-2.69542 c 1.48867,-2.7977 1.77416,-4.23037 1.09621,-5.50109 -1.41338,-2.64919 -3.00645,-2.70011 -5.34323,-0.1708 -2.33207,2.5242 -2.61853,4.39648 -1.23227,8.054 1.18828,3.13516 2.95136,2.36867 5.47929,-2.38211 z M 171.55549,135.37769 c -0.35007,-1.40077 -3.18512,-3.22026 -9.86025,-6.32812 -5.1529,-2.39914 -9.73943,-4.36207 -10.19231,-4.36207 -1.1742,0 -2.21509,7.99741 -1.47865,11.36084 0.51057,2.33195 2.45799,4.02815 11.04546,9.62064 l 10.42559,6.78956 0.27575,-7.5574 c 0.15166,-4.15656 0.0547,-8.44212 -0.21559,-9.52345 z m 134.052,6.26662 c 0,-2.50345 -2.40284,-4.13601 -5.09123,-3.45916 -1.27147,0.32012 -7.47551,-0.24919 -13.78678,-1.26512 -6.92343,-1.11448 -11.81356,-1.50756 -12.32853,-0.99098 -1.23687,1.24074 2.13073,2.45785 14.20463,5.13384 5.8125,1.28824 11.26893,2.73564 12.1254,3.21645 2.04728,1.14929 4.87651,-0.37948 4.87651,-2.63503 z m 0.50966,-15.85204 c -0.29197,-4.29082 -1.19877,-9.14238 -2.0151,-10.78125 -0.81634,-1.63887 -7.64569,-9.21307 -15.17632,-16.831529 -13.34221,-13.49782 -13.85556,-13.900769 -20.09001,-15.769572 -3.51887,-1.054794 -6.63803,-1.67697 -6.93147,-1.382613 -0.29344,0.294357 -0.35829,0.678404 -0.14412,0.853439 0.21418,0.175035 2.79658,2.115782 5.73866,4.312772 4.61307,3.444781 13.53561,13.417283 24.93493,27.869123 3.03262,3.84471 7.07703,5.86565 8.62701,4.31083 0.4347,-0.43606 0.38105,-2.22444 -0.1192,-3.97419 -0.50026,-1.74974 -0.73713,-3.35432 -0.52637,-3.56572 0.21075,-0.21141 0.82181,1.20919 1.35792,3.15689 1.14858,4.17281 -0.0792,6.40359 -3.10559,5.64274 -1.8536,-0.46599 -1.9359,-0.12986 -1.8789,7.67412 0.0819,11.20647 -0.10398,10.68644 3.57168,9.99473 2.13384,-0.40157 3.40843,-0.19869 3.91474,0.62308 1.41516,2.29693 2.38802,-4.11061 1.84214,-12.13285 z m -35.0891,10.66931 c 0,-0.22738 -0.42057,-0.67415 -0.93458,-0.99283 -0.51402,-0.31868 -0.93458,-0.13264 -0.93458,0.41342 0,0.54605 0.42056,0.99283 0.93458,0.99283 0.51401,0 0.93458,-0.18604 0.93458,-0.41342 z m 82.85982,-16.22141 c 5.31495,-5.7976 9.66354,-11.11112 9.66354,-11.80783 0,-0.69671 -0.86574,-2.05267 -1.92387,-3.01325 -2.40174,-2.18034 -4.6734,-1.01937 -5.75137,2.93936 -0.40966,1.50442 -4.08381,7.16499 -8.16479,12.57905 -4.08097,5.41406 -7.0229,9.98437 -6.53762,10.15625 0.48528,0.17188 0.89511,1.01563 0.91074,1.875 0.0234,1.28294 0.21731,1.22702 1.08413,-0.3125 0.58063,-1.03125 5.4043,-6.61849 10.71924,-12.41608 z M 171.02804,131.25 c 0,-0.51563 0.94626,-0.96597 2.10281,-1.00077 1.17353,-0.0354 0.24426,-0.56673 -2.10281,-1.20251 -5.08254,-1.37676 -13.29275,-5.98814 -19.68344,-11.05547 -5.14696,-4.08117 -8.62347,-4.53596 -9.09998,-1.19046 -0.37422,2.62742 0.91757,3.54518 10.37137,7.36835 4.43881,1.79507 10.08197,4.3139 12.54037,5.59741 5.00971,2.61553 5.87168,2.8333 5.87168,1.48345 z m 51.05604,-5.15457 c -0.1175,-4.98675 -0.7389,-6.25209 -2.03625,-4.14637 -0.52486,0.85191 1.22297,9.30094 1.92406,9.30094 0.12851,0 0.17899,-2.31955 0.11219,-5.15457 z m 232.21127,1.71264 c -1.78937,-2.44086 -1.87464,-3.25732 -1.07177,-10.26337 1.12872,-9.84955 0.37458,-17.51375 -1.86114,-18.914337 -1.48675,-0.931397 -1.75272,-0.612057 -2.32619,2.792957 -0.35614,2.11453 -0.34604,9.08796 0.0224,15.49652 0.5533,9.623 0.93769,11.73364 2.2075,12.12118 0.84566,0.2581 2.16839,0.81122 2.93942,1.22917 2.17952,1.18144 2.20705,0.42609 0.0897,-2.46212 z m 54.58317,1.41511 c 1.73053,-0.32735 1.87914,-1.15182 2.00377,-11.11651 0.074,-5.91961 0.2843,-12.45042 0.46729,-14.51292 0.28959,-3.2644 0.0686,-3.787716 -1.70689,-4.041262 -3.25465,-0.464794 -4.20469,2.486882 -3.17526,9.865172 2.05667,14.74101 2.06386,16.74524 0.0666,18.55836 -2.03143,1.84417 -2.65821,4.1527 -0.69292,2.55215 0.64252,-0.52327 2.00934,-1.11051 3.03738,-1.30499 z m -105.88038,-1.98436 c -1.89133,-2.01953 -1.94763,-2.58468 -1.09686,-11.01193 0.49324,-4.88572 1.13635,-10.01856 1.42914,-11.40628 0.73513,-3.48427 -1.06909,-6.570957 -3.62729,-6.205622 -1.77546,0.253546 -1.99648,0.776859 -1.70689,4.041262 0.18299,2.0625 0.39327,8.59331 0.46729,14.51292 0.12468,9.96828 0.27261,10.7883 2.00377,11.10663 1.02804,0.18903 2.26168,0.71759 2.74143,1.17458 1.86113,1.7728 1.67328,-0.20001 -0.21059,-2.21156 z m -41.54586,-7.40195 c 1.27252,-2.11082 1.3134,-2.74608 0.25876,-4.02082 -1.13425,-1.37097 -1.49986,-1.27625 -3.87156,1.0031 -2.12005,2.03748 -2.43661,2.85896 -1.66153,4.31175 1.25453,2.35142 3.39292,1.82677 5.27433,-1.29403 z m 107.5197,1.85063 c 1.91483,-1.92082 1.2802,-5.01092 -3.56938,-17.37972 -5.78001,-14.741861 -6.59084,-15.942888 -9.77942,-14.485535 -3.3064,1.511206 -2.93416,3.853349 1.34385,8.45543 5.25125,5.649055 9.88114,15.455755 9.68591,20.516005 -0.1601,4.14978 0.38674,4.83216 2.31904,2.89382 z m -320.91757,-8.81905 c 0.99772,-0.38406 1.4783,-1.75554 1.4783,-4.21875 0,-4.1438 -0.0351,-4.16442 -3.78472,-2.21937 -1.84489,0.957 -2.75733,2.14623 -2.75733,3.59374 0,3.29595 1.58204,4.18461 5.06375,2.84438 z m 357.55308,-3.10427 c 0,-1.50471 -0.26002,-3.41554 -0.57782,-4.24631 -0.51914,-1.35709 -0.70593,-1.34108 -1.83943,0.1577 -0.69389,0.9175 -1.27499,2.82834 -1.29135,4.24631 -0.0226,1.96305 0.41621,2.57812 1.83944,2.57812 1.44215,0 1.86916,-0.625 1.86916,-2.73582 z m -98.16056,-0.7798 c -0.0164,-1.41797 -0.59746,-3.32881 -1.29135,-4.24631 -1.1335,-1.49878 -1.32029,-1.51479 -1.83943,-0.1577 -0.3178,0.83077 -0.57782,2.7416 -0.57782,4.24631 0,2.11082 0.42701,2.73582 1.86916,2.73582 1.42323,0 1.86206,-0.61507 1.83944,-2.57812 z m 53.75184,-3.75 c -2.90938,-4.92262 -4.08774,-6.099117 -5.54638,-5.537639 -1.7657,0.679679 -1.99319,6.800829 -0.27855,7.494869 0.64253,0.26007 2.55883,0.50617 4.25845,0.54687 l 3.09022,0.0741 -1.52374,-2.57813 z m -95.41995,-3.26972 c 1.20061,-8.359044 -2.32401,-20.1065 -12.70196,-42.335351 -7.772,-16.647092 -10.13036,-20.879848 -12.41086,-22.274929 -2.81867,-1.724296 -6.08655,-2.302838 -6.08655,-1.077554 0,0.358505 1.05321,1.754584 2.34048,3.102398 2.36316,2.474314 14.89703,32.358373 15.9636,38.061425 0.43476,2.324724 1.25469,3.304173 3.39154,4.051412 3.58658,1.254198 4.75868,0.509137 4.10588,-2.609962 -0.49398,-2.360236 -0.46948,-2.378391 0.52446,-0.388785 0.79245,1.58628 0.75483,2.434921 -0.15679,3.536792 -1.10255,1.332652 -2.22872,1.305469 -6.10005,-0.147239 -0.96681,-0.362795 -0.88064,17.428092 0.1068,22.050493 0.44012,2.0602 0.58918,2.10922 2.13807,0.70312 2.17425,-1.97382 3.20825,-1.9064 5.23616,0.34141 2.19885,2.4373 2.95619,1.81196 3.64922,-3.01323 z M 509.34365,98.4375 c 0.96855,0 2.04357,0.458634 2.38893,1.019184 2.16227,3.509546 3.71531,-6.16278 2.78614,-17.35209 l -0.6681,-8.045557 -2.37844,1.876731 c -3.17145,2.502458 -3.70759,2.395672 -5.87493,-1.170143 -2.0811,-3.42391 -2.22316,-2.955114 -0.87788,2.896892 0.64332,2.798465 0.60733,6.541387 -0.1153,11.988548 -0.57785,4.355876 -0.77557,9.019188 -0.43937,10.362905 l 0.61128,2.44313 1.40332,-2.00981 c 0.77184,-1.105384 2.19579,-2.00979 3.16435,-2.00979 z M 404.8097,89.152223 c -0.70214,-6.003818 -0.75184,-10.243262 -0.14944,-12.745973 1.32231,-5.493568 1.15241,-5.974058 -0.91169,-2.578125 -2.16734,3.565815 -2.70348,3.672601 -5.87493,1.170143 l -2.37844,-1.876731 -0.6681,8.045557 c -0.92917,11.18931 0.62387,20.861636 2.78614,17.35209 1.01715,-1.650928 4.14741,-1.168059 5.39246,0.831825 2.21463,3.557251 2.93588,-0.520331 1.804,-10.198786 z m 50.56414,9.675905 c 0.29985,-0.300787 -0.28676,-1.381416 -1.30357,-2.401406 -2.44743,-2.455069 -1.88065,-5.556601 1.34001,-7.332893 2.48045,-1.368039 2.69419,-1.324205 4.41848,0.906171 2.20925,2.857686 2.27125,2.198853 0.40054,-4.25629 -1.31529,-4.538566 -1.31477,-5.281682 0.006,-7.842737 1.39515,-2.706357 1.36695,-2.875192 -0.64985,-3.890861 -1.15955,-0.583959 -3.03275,-2.161662 -4.16265,-3.506009 l -2.05436,-2.444266 -1.06078,2.766957 c -1.67379,4.365915 -4.69031,21.29859 -4.11707,23.110359 0.51162,1.617009 4.71749,5.437847 5.98582,5.437847 0.35903,0 0.89811,-0.246094 1.19796,-0.546872 z m 56.45134,-24.355022 c 2.14925,-2.155955 2.33628,-2.899907 1.82668,-7.265625 -1.07151,-9.179561 -3.37147,-40.471331 -3.37147,-45.870032 0,-2.969972 -0.36421,-5.399949 -0.80936,-5.399949 -0.44514,0 -1.68845,2.425781 -2.76289,5.390625 -1.75661,4.847193 -1.96718,7.621476 -2.08876,27.519742 -0.11478,18.785159 0.0945,22.574745 1.38503,25.078125 1.84285,3.574815 2.72029,3.657288 5.82077,0.547114 z M 403.34141,72.988492 c 1.29052,-2.50338 1.49981,-6.292966 1.38503,-25.078125 C 404.60486,28.012101 404.39429,25.237818 402.63768,20.390625 401.56324,17.425781 400.31993,15 399.87479,15 c -0.44515,0 -0.80936,2.429977 -0.80936,5.399949 0,5.398701 -2.29996,36.690471 -3.37147,45.870032 -0.5096,4.365718 -0.32257,5.10967 1.82668,7.265625 3.10048,3.110174 3.97792,3.027701 5.82077,-0.547114 z M 93.027118,145.07812 c -1.005169,-23.40916 -1.020407,-25.14907 -0.272996,-31.17187 0.383925,-3.09375 0.36565,-6.14172 -0.04061,-6.77327 -0.40626,-0.63155 -3.454025,-1.54162 -6.772811,-2.02241 -3.31879,-0.48078 -8.136963,-1.61566 -10.707057,-2.52196 -2.889208,-1.01884 -9.31049,-1.91498 -16.82243,-2.34772 l -12.149533,-0.699887 13.267377,0.256069 c 11.048576,0.213238 13.356647,0.02269 13.801171,-1.139335 0.68812,-1.798809 -1.114574,-3.970237 -3.296051,-3.970237 -0.934762,0 -1.990685,-0.472509 -2.346494,-1.05002 -0.444984,-0.72225 -3.890077,-0.896967 -11.036465,-0.559712 -7.297901,0.344406 -8.720909,0.26868 -4.782062,-0.254479 9.725959,-1.291807 21.719439,-1.075376 25.377798,0.457961 1.847256,0.774244 6.16374,1.40625 9.604441,1.40625 4.047962,0 6.888333,0.484856 8.063435,1.376437 2.441178,1.852182 2.982487,1.776038 3.709524,-0.521821 0.34071,-1.076832 1.904202,-2.499756 3.474442,-3.162051 l 2.85496,-1.204174 -3.41146,-1.1294 c -1.876297,-0.621171 -3.411456,-1.518559 -3.411456,-1.994196 0,-1.147495 0.454243,-1.098208 4.001986,0.434235 5.06613,2.188313 10.01671,7.465067 10.01671,10.676679 0,4.570671 -2.84828,7.243041 -7.71982,7.243041 l -4.14663,0 -2.428097,9.84375 c -2.366037,9.59216 -2.383205,9.87969 -0.672018,11.25 1.783252,1.42802 1.720327,5.97294 -0.0983,7.10043 -0.452645,0.28063 -0.822991,6.18065 -0.822991,13.11115 0,10.09113 -0.256981,12.60092 -1.290206,12.60092 -1.017458,0 -1.428504,-3.22057 -1.944361,-15.23438 z m 5.103726,-15.31847 c 0,-0.30407 -0.834028,-1.25329 -1.853402,-2.10938 -1.841215,-1.54628 -1.835337,-1.62745 0.893047,-12.33777 2.585018,-10.14755 2.845071,-15 0.803878,-15 -0.488626,0 -0.626523,-0.425072 -0.30643,-0.944616 0.325692,-0.528628 -0.508084,-0.44639 -1.893308,0.186732 -2.258785,1.032394 -2.438246,1.504494 -2.051795,5.397744 0.232916,2.34651 -0.0114,8.315 -0.542952,13.26332 -0.531541,4.9483 -0.699624,9.69439 -0.373518,10.54687 0.541581,1.41575 5.32448,2.31142 5.32448,0.9971 z m 9.925266,-24.80244 2.57031,-0.98028 -2.88535,-2.89436 c -2.29028,-2.297445 -3.38606,-2.768304 -5.31321,-2.283111 -2.575801,0.648507 -3.044156,2.356141 -1.4604,5.324671 1.08331,2.0305 3.27395,2.28796 7.08865,0.83308 z m -15.532743,-2.26798 c 0,-1.41494 0.789917,-2.734836 2.037589,-3.404652 1.969075,-1.057106 1.978776,-1.137028 0.288663,-2.376741 -1.06699,-0.782643 -4.185608,-1.282837 -7.99822,-1.282837 -3.440701,0 -7.757185,-0.632006 -9.604441,-1.40625 -1.84533,-0.773438 -4.735476,-1.348798 -6.422546,-1.278579 -2.017042,0.08395 -2.380765,0.262399 -1.062194,0.521124 3.284204,0.644411 5.341305,3.529999 4.13216,5.796368 -0.925154,1.734077 -0.647123,2.020317 2.962893,3.050467 3.760882,1.07318 10.408148,2.28917 14.030582,2.56661 1.149044,0.088 1.635514,-0.56206 1.635514,-2.18551 z m -72.300152,-2.09031 c -1.267546,-1.271517 -0.442012,-2.207611 3.842206,-4.356773 3.298447,-1.65465 6.60078,-2.356735 12.850468,-2.73202 5.712496,-0.343028 7.211784,-0.252511 4.672897,0.282117 -2.056075,0.432956 -5.724731,0.811509 -8.152569,0.841228 -4.229054,0.05176 -12.875469,3.3408 -12.875469,4.897734 0,0.396047 5.57243,0.46441 12.383178,0.151922 6.810748,-0.312497 12.172898,-0.357384 11.915888,-0.09977 -0.728849,0.730581 -23.965806,1.688441 -24.636599,1.015561 z M 447.17183,30.395257 C 446.42983,18.482587 447.1824,15 450.49869,15 c 1.45684,0 2.51505,1.302922 4.24478,5.226368 2.22999,5.058165 4.80774,18.786338 3.73044,19.867003 -0.29149,0.292396 -0.53843,-0.06603 -0.54877,-0.796496 -0.131,-9.258996 -4.66027,-23.359375 -7.50341,-23.359375 -2.56346,0 -3.0306,2.974241 -2.30266,14.660844 0.36491,5.858411 0.45319,10.651656 0.19618,10.651656 -0.25701,0 -0.77155,-4.884635 -1.14342,-10.854743 z m 3.969,2.885993 c -0.4006,-4.125 -0.91594,-9.1875 -1.14522,-11.25 -0.22927,-2.0625 0.20944,-0.796875 0.97491,2.8125 0.76547,3.609375 1.28082,8.671875 1.14521,11.25 -0.21811,4.146717 -0.33059,3.822247 -0.9749,-2.8125 z M 467.28973,16.875 c 0,-3.117344 -0.39132,-4.692308 -1.16822,-4.701856 -0.77881,-0.0096 -0.70094,-0.317285 0.23364,-0.923144 2.47141,-1.6021397 2.80374,-1.046529 2.80374,4.6875 0,3.125 -0.41536,5.625 -0.93458,5.625 -0.51402,0 -0.93458,-2.109375 -0.93458,-4.6875 z m 7.41366,3.205124 c -0.92721,-1.1207 -0.97147,-1.891921 -0.18142,-3.160941 0.75182,-1.20761 0.76027,-1.964205 0.0301,-2.696641 -1.30845,-1.312559 0.69646,-3.910042 3.01805,-3.910042 2.32159,0 4.32649,2.597483 3.01803,3.910042 -0.73016,0.732436 -0.72172,1.489031 0.0301,2.696641 1.2577,2.020169 -0.46428,4.643317 -3.04812,4.643317 -0.90216,0 -2.19219,-0.66707 -2.86672,-1.482376 z m 4.42202,-0.92439 c 0.77893,-2.036214 -1.19855,-3.951108 -2.61398,-2.53125 -1.1963,1.200031 -0.45518,4.000516 1.05868,4.000516 0.54628,0 1.24617,-0.66117 1.5553,-1.469266 z m -0.10311,-5.17492 c 0.96311,-1.563206 -1.203,-3.355791 -2.49226,-2.0625 C 475.45161,13.000118 476.12656,15 477.57011,15 c 0.45334,0 1.10683,-0.458634 1.45219,-1.019186 z m 5.1531,5.82521 c -1.35475,-2.539284 -1.25532,-5.969391 0.23218,-8.010034 2.95773,-4.0575779 7.57296,1.376263 5.70731,6.719635 -1.12186,3.213096 -4.51984,3.951334 -5.93949,1.290399 z m 4.22588,-1.524774 C 489.09466,15.509978 488.19472,11.25 486.9159,11.25 c -1.27882,0 -2.17876,4.259978 -1.48538,7.03125 0.32253,1.289062 0.99095,2.34375 1.48538,2.34375 0.49443,0 1.16285,-1.054688 1.48538,-2.34375 z m 4.46246,-4.681229 c -0.3237,-0.846204 -0.14042,-1.988089 0.4073,-2.537521 1.42394,-1.4283834 4.12188,-0.122895 3.74993,1.814524 -0.4143,2.158014 -3.40903,2.678839 -4.15723,0.722997 z m 2.16722,-1.588302 c -0.29834,-0.747875 -0.5198,-0.525728 -0.56464,0.566406 -0.0406,0.988281 0.18031,1.541992 0.49086,1.230469 0.31055,-0.311524 0.34375,-1.120117 0.0737,-1.796875 z"
       id="path3520"
       inkscape:connector-curvature="0" />
  </g>
</svg>
