<?xml version="1.0" encoding="UTF-8" standalone="no"?>
<!-- Created with Inkscape (http://www.inkscape.org/) -->

<svg
   xmlns:dc="http://purl.org/dc/elements/1.1/"
   xmlns:cc="http://creativecommons.org/ns#"
   xmlns:rdf="http://www.w3.org/1999/02/22-rdf-syntax-ns#"
   xmlns:svg="http://www.w3.org/2000/svg"
   xmlns="http://www.w3.org/2000/svg"
   xmlns:sodipodi="http://sodipodi.sourceforge.net/DTD/sodipodi-0.dtd"
   xmlns:inkscape="http://www.inkscape.org/namespaces/inkscape"
   version="1.1"
   width="669"
   height="228"
   id="svg2"
   inkscape:version="0.91 r13725"
   sodipodi:docname="ub330101.svg">
  <sodipodi:namedview
     pagecolor="#ffffff"
     bordercolor="#666666"
     borderopacity="1"
     objecttolerance="10"
     gridtolerance="10"
     guidetolerance="10"
     inkscape:pageopacity="0"
     inkscape:pageshadow="2"
     inkscape:window-width="1372"
     inkscape:window-height="790"
     id="namedview11"
     showgrid="false"
     inkscape:zoom="0.45590433"
     inkscape:cx="42.772131"
     inkscape:cy="114"
     inkscape:window-x="0"
     inkscape:window-y="0"
     inkscape:window-maximized="0"
     inkscape:current-layer="svg2" />
  <metadata
     id="metadata8">
    <rdf:RDF>
      <cc:Work
         rdf:about="">
        <dc:format>image/svg+xml</dc:format>
        <dc:type
           rdf:resource="http://purl.org/dc/dcmitype/StillImage" />
        <dc:title></dc:title>
      </cc:Work>
    </rdf:RDF>
  </metadata>
  <defs
     id="defs6" />
  <g
     id="g2987"
     transform="translate(-6.8491542,-1.9467062)">
    <path
       d="m 215.75,164.31067 c -2.36106,-0.617 -2.202,-1.88067 0.47251,-3.75397 2.33397,-1.63478 7.77749,-2.14642 7.77749,-0.73101 0,1.16496 -4.43674,5.19814 -5.56445,5.05831 -0.51455,-0.0638 -1.72305,-0.3218 -2.68555,-0.57333 z m 9.16983,-4.02154 c -0.86425,-2.27314 -0.0188,-5.91371 5.23574,-22.54578 4.90857,-15.53695 6.44292,-19.35777 7.08098,-17.63294 0.49857,1.34776 0.25546,4.178 -0.62667,7.29578 -2.31258,8.17345 -5.77074,27.73224 -5.17691,29.27974 0.69339,1.80692 -2.21384,6.31407 -4.07273,6.31407 -0.77536,0 -1.87354,-1.21989 -2.44041,-2.71087 z M 177.25,152.96884 c -1.2375,-0.49742 -2.25,-1.55709 -2.25,-2.35483 0,-0.79774 -0.26721,-2.14677 -0.59379,-2.99784 -0.4614,-1.20238 0.82064,-0.95273 5.75,1.11972 7.75276,3.2595 7.62022,3.16141 5.81483,4.30317 -1.8272,1.15556 -5.75005,1.12397 -8.72104,-0.0702 z m -10.03305,-3.06965 c -4.45598,-1.91975 -28.01902,-15.74327 -28.63207,-16.79732 -0.77618,-1.33453 1.50152,-5.19828 3.50028,-5.93767 1.70158,-0.62946 4.80682,0.96967 15.37557,7.91807 12.48293,8.20688 13.2788,8.92519 13.86049,12.50977 0.33943,2.09162 0.51851,3.88157 0.39796,3.97767 -0.12055,0.0961 -2.14655,-0.65564 -4.50223,-1.67052 z M 484,145.68301 c 0,-1.66674 4.63942,-6.92723 16.53134,-18.74436 17.4414,-17.33171 22.05943,-20.76321 25.47943,-18.93288 2.97446,1.59188 2.42074,4.17216 -1.76077,8.20505 C 517.14816,123.06025 486.58574,148 485.29394,148 484.58227,148 484,146.95735 484,145.68301 Z M 248.5567,140.77749 C 247.70052,139.55512 247,137.24631 247,135.64682 c 0,-5.99907 -3.29456,-23.64701 -7.10191,-38.042713 -2.1668,-8.192742 -3.70351,-15.132016 -3.41492,-15.42061 1.05156,-1.051565 5.50454,4.223956 6.93597,8.217175 0.80821,2.254631 3.35304,10.174328 5.65519,17.599328 2.30215,7.425 5.02721,16.0733 6.0557,19.21845 2.492,7.62067 2.38323,10.95074 -0.44448,13.60724 -2.92315,2.74615 -4.17853,2.73628 -6.12885,-0.0482 z m 73.63293,-7.492 c 0.2755,-3.29712 0.67556,-3.78858 3.56037,-4.3737 3.5606,-0.72219 3.75924,-0.3814 2.18744,3.75276 -2.12857,5.59855 -6.20046,6.03844 -5.74781,0.62094 z m 0.30335,-6.11178 C 321.94684,126.67197 317.225,125.46024 312,124.48098 c -11.84164,-2.21935 -13.12257,-2.66462 -12.15752,-4.2261 0.59927,-0.96965 2.46906,-0.93083 8.80297,0.18278 4.42314,0.77767 9.84751,1.17178 12.05415,0.87581 5.06576,-0.67947 8.53411,1.03275 8.11108,4.00419 -0.33262,2.33648 -4.47128,3.55235 -6.3177,1.85605 z M 82,117 c 0,-0.55 -1.125,-1 -2.5,-1 -2.92139,0 -3.017617,-0.86619 -1.531808,-13.78852 0.591495,-5.144333 0.599258,-9.218973 0.02046,-10.741318 -1.632105,-4.29276 1.586055,-7.897936 4.724802,-5.293007 1.594551,1.323359 1.575576,1.535266 -1.550564,17.316565 C 79.108808,113.86311 79.147947,115 81.559017,115 82.351558,115 83,115.675 83,116.5 c 0,0.825 -0.225,1.5 -0.5,1.5 -0.275,0 -0.5,-0.45 -0.5,-1 z m 71.5,-3.64514 c -16.70099,-7.40723 -17,-7.5894 -17,-10.3568 0,-3.916368 3.6979,-3.783045 8.74726,0.31537 6.51085,5.28465 14.64351,9.96029 19.69315,11.32201 2.51333,0.67777 3.54983,1.25986 2.30959,1.29707 C 166.0125,115.96963 165,116.45 165,117 c 0,1.41065 -0.35317,1.2987 -11.5,-3.64514 z m 490.38939,-12.79881 c -0.24417,-0.24417 -8.75667,-1.627297 -18.91667,-3.073618 C 606.68811,94.879537 599,92.813608 599,90.503113 c 0,-0.656226 0.88982,-1.998413 1.97738,-2.982639 2.36556,-2.140804 1.50217,-2.26812 30.02262,4.427156 11.825,2.775961 22.2875,5.048364 23.25,5.049785 3.36462,0.005 1.71214,1.77469 -2.69282,2.88387 -4.74515,1.194845 -6.95339,1.389165 -7.66779,0.674765 z M 137.66667,98.333333 c -1.74029,-1.740285 -0.52818,-5.353588 2.28367,-6.807653 C 143.96239,89.45097 144,89.472957 144,93.893011 c 0,2.627427 -0.51423,4.090338 -1.58179,4.5 -2.06815,0.793623 -3.92152,0.770345 -4.75154,-0.05968 z M 322.25,97.968838 c -1.2375,-0.497414 -2.24039,-1.25639 -2.22865,-1.686614 C 320.03309,95.852001 321.3789,86.275 323.01204,75 c 1.63314,-11.275 2.97353,-22.364355 2.97865,-24.643011 0.0105,-4.65121 2.28489,-6.579099 3.99406,-3.385492 1.59388,2.978204 1.1172,3.810223 -0.58926,1.028503 -1.02781,-1.675454 -1.30793,-1.840363 -0.84931,-0.5 1.94181,5.675144 2.22333,9.769088 1.40139,20.379449 -1.01811,13.142502 -0.98215,18.831259 0.0766,12.120551 0.41433,-2.626175 0.50734,-0.75235 0.22336,4.5 -0.36473,6.745875 -0.97464,9.68876 -2.43517,11.75 -2.126,3.000429 -2.26618,3.043744 -5.56237,1.718838 z M 85.606989,93.418213 C 84.382118,90.22625 84.954482,88 87,88 c 2.348764,0 6,3.346967 6,5.5 0,2.124527 -6.574278,2.051797 -7.393011,-0.08179 z M 537.25,89.968838 c -2.56026,-1.029099 -3.05935,-4.721031 -0.75761,-5.604291 2.15039,-0.825182 10.00237,-12.989368 14.07624,-21.806712 2.45804,-5.320113 4.00111,-7.523489 5.21165,-7.441834 1.52493,0.102863 1.51399,0.169248 -0.0966,0.5861 -1.3087,0.338713 -1.73457,1.24954 -1.52379,3.25898 0.16089,1.533885 -0.26642,3.462378 -0.94958,4.28554 -0.68317,0.823162 -2.29934,4.59192 -3.5915,8.375019 -2.45164,7.177726 -8.48888,19.424578 -9.52157,19.314974 -0.32847,-0.03486 -1.60972,-0.470362 -2.84722,-0.967776 z M 415.38486,85.813925 c -1.58667,-1.202341 -3.05832,-2.313297 -3.27032,-2.468791 -0.212,-0.155495 0.39684,-1.476652 1.35298,-2.935905 l 1.73843,-2.653187 10.72036,0.694815 c 9.89979,0.641631 11.07835,0.520884 15.39752,-1.577527 3.48099,-1.6912 4.96659,-1.982912 5.80887,-1.140631 1.56956,1.569559 -2.69211,6.831083 -6.6327,8.188829 C 436.38619,85.338959 423.38232,88 420.56948,88 c -1.26487,0 -3.59795,-0.983734 -5.18462,-2.186075 z m 129.83528,-1.804506 c 2.17486,-3.806794 2.2947,-3.873091 2.60212,-1.439528 C 548.17949,85.397772 546.5144,88 544.3477,88 c -1.06414,0 -0.85134,-0.973333 0.87244,-3.990581 z M 577,79.267941 c -1.375,-0.894935 -4.75,-3.727463 -7.5,-6.294506 -2.75,-2.567043 -6.4625,-5.666863 -8.25,-6.888487 -3.07828,-2.103776 -4.15275,-4.430159 -2.5,-5.412847 0.4125,-0.245264 4.77227,2.411042 9.68838,5.902902 4.91611,3.49186 10.20735,6.627549 11.75831,6.968198 3.86996,0.849986 5.70596,4.323599 3.23879,6.127634 -2.2991,1.681148 -3.33295,1.616423 -6.43548,-0.402894 z m -154.36288,-2.00759 -4.86288,-0.379153 7.36288,-3.769105 c 4.04958,-2.073008 8.80586,-4.630798 10.5695,-5.683977 2.52289,-1.50657 3.46671,-1.654789 4.42637,-0.695123 0.95967,0.959666 0.809,1.683507 -0.70662,3.394697 -2.05288,2.317778 -10.44443,7.993782 -11.37215,7.692062 -0.30482,-0.09914 -2.74252,-0.350867 -5.4171,-0.559401 z m -19.07694,-5.391674 c -5.1899,-4.082373 -5.62475,-10.245919 -0.68243,-9.672772 2.1021,0.243774 2.57031,0.776848 2.36042,2.687382 -0.46183,4.20387 1.27013,5.162856 6.25606,3.463977 2.41003,-0.821179 4.91485,-2.13525 5.56627,-2.920158 1.62036,-1.952415 2.9395,-1.791639 2.9395,0.358262 0,1.202494 -2.12826,2.83486 -6.51893,5 C 409.89565,72.553416 406.80634,74 406.61592,74 c -0.19041,0 -1.56549,-0.959096 -3.05574,-2.131323 z m -72.18836,-9.575459 c 0.0638,-6.16373 0.43936,-10.332672 0.83457,-9.264317 0.39522,1.068356 0.34301,6.111408 -0.116,11.206782 L 331.25581,73.5 331.37182,62.293218 Z M 574.2532,69.75 C 570.7786,67.321069 570.1444,66 572.45295,66 575.30054,66 579,68.350931 579,70.160515 579,72.552806 578.15853,72.480034 574.2532,69.75 Z M 60.5,65.073413 C 58.400824,64.194384 54.495004,59.556014 49.491302,52 47.852322,49.525 43.021287,43.332723 38.755669,38.239384 31.090307,29.086599 29.871038,27 32.18812,27 34.543484,27 39.731692,31.616802 53,45.519753 c 11.015598,11.54249 13.5,14.682588 13.5,17.062986 0,3.168252 -2.200508,4.08171 -6,2.490674 z M 405,59.019052 c 0,-2.360226 0.53027,-3.114038 2.54657,-3.620096 3.20993,-0.805643 3.34392,-0.608217 2.27428,3.351044 C 408.62124,63.190288 405,63.39239 405,59.019052 Z"
       id="path2997"
       style="fill:#fefefe"
       inkscape:connector-curvature="0" />
    <path
       d="m 221,183.34756 c -3.80503,-0.57849 -10.38487,-2.59547 -11.43333,-3.50477 -1.90227,-1.64979 0.25001,-1.81875 4.42116,-0.34708 2.3649,0.83438 7.2726,1.78111 10.90599,2.10384 5.71989,0.50806 7.74372,0.18016 15.08519,-2.44405 8.0626,-2.88198 11.81171,-3.3176 7.51266,-0.87292 -7.36681,4.18918 -18.3899,6.2967 -26.49167,5.06498 z m 31,-9.11149 c 0,-0.42016 1.73176,-1.83422 3.84835,-3.14234 4.52495,-2.79658 7.04642,-6.09373 4.66012,-6.09373 -0.82966,0 -1.50476,-0.3375 -1.50022,-0.75 0.0103,-0.9379 8.15378,-5.42131 8.75499,-4.82009 0.24229,0.24229 -0.31648,2.71968 -1.24172,5.50531 -1.66178,5.00314 -3.4929,6.712 -3.55193,3.31478 -0.0286,-1.64879 -0.0903,-1.64711 -1.06598,0.0291 C 260.97504,169.87439 253.81864,175 252.51987,175 252.23394,175 252,174.65623 252,174.23607 Z M 70.634076,148.41354 C 57.952261,145.34394 46.375828,136.83097 38.14127,124.51928 29.337157,111.35604 25.321599,96.397748 26.324282,80.5 c 0.497471,-7.887518 2.898279,-20.055894 4.217235,-21.37485 1.393089,-1.393089 1.385931,1.361987 -0.01693,6.517419 -3.828546,14.069651 -2.714818,32.826806 2.722837,45.857431 11.768884,28.20258 39.540855,42.62141 64.91515,33.70306 7.135766,-2.50802 14.981886,-7.48506 12.587426,-7.98461 -3.16566,-0.66044 -1.83367,-2.04348 3.46357,-3.59632 2.86747,-0.84058 5.3638,-1.37809 5.54742,-1.19448 0.18361,0.18361 -0.92172,2.41251 -2.4563,4.9531 -2.65218,4.39087 -4.30469,5.78751 -4.30469,3.63817 0,-0.53959 -2.8125,0.5646 -6.25,2.45376 -11.157021,6.13162 -23.960083,7.88315 -36.115921,4.94086 z M 307.42276,93.75 c -3.28775,-6.968038 -3.87012,-9.182336 -3.74778,-14.25 0.13886,-5.751813 3.10562,-14.628337 5.35349,-16.017597 C 310.5161,62.563002 310.18335,61 308.5,61 c -0.825,0 -1.49629,-0.3375 -1.49175,-0.75 0.01,-0.90178 8.14204,-5.433043 8.71759,-4.857491 0.59783,0.597828 -0.73582,7.014751 -1.8024,8.672347 -0.79047,1.228489 -1.05371,1.232855 -1.82814,0.03032 -0.67895,-1.054274 -1.58198,-0.06828 -3.61891,3.951407 -4.1956,8.279627 -3.97827,15.317757 0.78146,25.307205 4.10226,8.609572 4.11455,8.646212 2.89984,8.646212 -0.46326,0 -2.59398,-3.712504 -4.73493,-8.250004 z m 92.798,4.207948 c -12.19542,-5.417022 -18.26555,-15.892791 -15.34275,-26.478325 0.68654,-2.486426 0.72469,-4.107135 0.10568,-4.489702 -0.53277,-0.329274 0.82794,-2.353036 3.02381,-4.497248 4.34213,-4.239971 4.62086,-3.927408 3.35065,3.757327 -0.62716,3.79431 -2.33257,5.222289 -2.38856,2 -0.0256,-1.471189 -0.16445,-1.511019 -0.87177,-0.25 -3.40085,6.063095 -1.23163,18.163809 4.13476,23.065251 1.71154,1.563251 5.50939,3.815346 8.43966,5.004655 2.93027,1.18931 5.32776,2.560116 5.32776,3.046237 0,1.208867 -0.82038,1.044457 -5.77924,-1.158195 z"
       id="path2993"
       style="fill:#fe0000"
       inkscape:connector-curvature="0" />
    <path
       d="m 230.88172,161.1661 c 1.262,-1.77231 1.80102,-3.66331 1.43891,-5.04803 -0.66246,-2.53324 2.13351,-6.00844 7.2745,-9.0417 l 3.22934,-1.90535 1.12358,6.45204 c 0.61796,3.54862 0.83288,6.92238 0.47759,7.49725 C 243.39525,160.78753 235.1156,164 231.849,164 l -2.98519,0 2.01791,-2.8339 z m 15.77918,-12.75247 c -1.84016,-8.06729 -1.30527,-10.50253 1.51837,-6.91285 2.31583,2.9441 3.49921,3.10016 6.04409,0.79708 1.81226,-1.64007 1.84245,-1.60115 0.8279,1.06732 -1.45042,3.8149 -3.03263,6.72634 -5.11323,9.40892 -1.75866,2.26749 -1.76817,2.25485 -3.27713,-4.36047 z M 135.73012,127.63557 c -2.59178,-6.30666 -3.03481,-9.89157 -2.25322,-18.23235 0.63168,-6.74099 0.85383,-7.3666 1.87329,-5.27558 0.63614,1.3048 2.97146,3.2905 5.1896,4.41267 3.98228,2.01465 4.02231,2.09009 3.1843,6 -0.46677,2.17783 -0.60663,5.54521 -0.3108,7.48308 0.45074,2.95264 0.18023,3.68158 -1.66996,4.5 -1.2143,0.53713 -2.68164,1.93762 -3.26074,3.11218 -0.98606,1.99996 -1.16085,1.87295 -2.75247,-2 z m 193.47498,-4.67876 c -0.69308,-1.1098 -2.569,-2.27959 -4.1687,-2.59953 -3.72325,-0.74465 -4.149,-1.91322 -4.78554,-13.13488 l -0.52626,-9.277606 2.88103,1.095368 c 2.53212,0.962708 3.1304,0.805472 4.93997,-1.298278 l 2.05893,-2.393646 1.39514,7.575882 c 1.52281,8.2692 1.65141,16.3067 0.317,19.81319 -0.84362,2.2168 -0.86298,2.21881 -2.11157,0.2195 z M 529,109.84294 c 0,-0.43826 -1.09071,-1.5115 -2.4238,-2.38497 -2.22256,-1.45628 -2.69998,-1.44871 -5.75,0.0911 l -3.3262,1.67923 3.65804,-3.86415 c 2.01192,-2.12528 4.9735,-6.78915 6.5813,-10.36415 3.44419,-7.65829 5.73438,-10.1205 6.54175,-7.033116 0.54587,2.087412 5.20244,4.470347 6.80283,3.481253 1.6098,-0.994912 0.98458,2.496849 -1.22505,6.841701 C 537.87335,102.19402 529,111.63467 529,109.84294 Z m 59.47061,-19.864242 c -7.81237,-3.086 -10.40973,-4.605623 -11.75,-6.874517 -2.38509,-4.037636 -2.17084,-4.483209 1.19865,-2.492804 2.76328,1.632308 3.05981,1.632356 5.54973,8.99e-4 2.01047,-1.317309 2.46998,-2.229201 1.94957,-3.868867 -0.67667,-2.132004 -0.66301,-2.13394 2.20027,-0.312016 1.58464,1.008315 3.78117,2.621831 4.88117,3.585589 1.1,0.963758 3.71076,2.613407 5.80169,3.665888 3.79525,1.910361 3.79821,1.916745 1.75,3.770353 -2.51303,2.274258 -2.61486,4.119383 -0.30169,5.466678 4.01443,2.338189 -1.66047,0.858408 -11.27939,-2.941203 z M 73.649216,87.75 c -1.348911,-1.7875 -3.187393,-5.029746 -4.085515,-7.20499 -0.898121,-2.175245 -3.39529,-6.289195 -5.549264,-9.142112 l -3.916315,-5.187123 3.193128,0.142113 c 2.370545,0.105502 3.434341,-0.402458 4.129478,-1.971816 0.878231,-1.982716 1.189069,-1.805303 5.007811,2.858242 8.976613,10.962465 13.081575,18.656137 9.14878,17.146982 -1.847789,-0.709063 -5.895086,3.338234 -5.186023,5.186023 0.888626,2.315722 -0.125671,1.639795 -2.74208,-1.827319 z M 410.5,85.162888 C 406.20472,82.543291 399.1087,72.938534 398.499,68.919047 398.21375,67.038571 398.26706,66.175 398.61747,67 c 0.88149,2.075421 4.52565,5.991265 6.63253,7.127006 1.13555,0.612135 2.46722,0.559516 3.79271,-0.149863 1.68692,-0.902813 2.36217,-0.698705 3.87686,1.17186 1.78689,2.206717 1.77968,2.338773 -0.28005,5.124708 l -2.11422,2.859623 2.48735,1.911097 c 3.17493,2.439382 1.42794,2.521742 -2.51265,0.118457 z"
       id="path2991"
       style="fill:#0000fe"
       inkscape:connector-curvature="0" />
    <path
       d="m 60.765753,205.25042 34.265752,-0.27671 -0.530526,-2.23686 C 93.762904,199.62491 85.046068,157.22871 84.326276,153.25 83.862131,150.6844 84.077735,150 85.350106,150 c 0.945571,0 1.860859,1.13669 2.214365,2.75 0.331416,1.5125 0.775866,3.3125 0.987667,4 0.28776,0.93406 4.563419,1.25 16.916482,1.25 10.35425,0 16.53138,0.37366 16.53138,1 0,0.62653 -6.2028,1 -16.60841,1 l -16.608406,0 0.69257,2.75 C 90.150041,165.4274 98,204.04003 98,204.67933 98,204.8557 117.15532,205 140.56739,205 c 40.06745,0 42.53752,-0.10278 42.05878,-1.75 -0.27973,-0.9625 -2.35376,-10.975 -4.60895,-22.25 -5.87514,-29.37318 -5.3012,-27.76415 -10.73426,-30.09304 -5.00918,-2.14718 -25.67744,-14.26336 -28.56925,-16.7479 -0.98246,-0.8441 -2.77008,-3.5877 -3.97249,-6.09689 -1.82117,-3.80043 -2.17787,-6.26351 -2.13634,-14.7517 0.0328,-6.70747 0.48441,-10.71313 1.3215,-11.72176 1.04952,-1.2646 0.88396,-2.159517 -0.94786,-5.123466 -1.22073,-1.975175 -2.35384,-5.583883 -2.51804,-8.01935 -0.25277,-3.749378 0.0929,-4.736046 2.25535,-6.437008 C 135.28638,79.986892 138,79.347017 138,80.762872 c 0,0.419579 -0.98339,1.207079 -2.18531,1.75 -3.76541,1.700881 -3.13288,3.070324 1.22615,2.654624 5.71909,-0.545403 7.95916,1.688653 7.95916,7.937801 0,3.347661 -0.48103,5.064519 -1.59338,5.687024 -1.33028,0.744462 -0.95876,1.391599 2.25,3.919149 6.53935,5.15106 14.5176,9.64184 19.28379,10.8544 l 4.55959,1.16001 0.076,5.38706 c 0.0762,5.40365 3.02256,20.97215 4.54337,24.00693 0.44647,0.89093 3.41477,2.6486 6.59622,3.90592 7.49239,2.96104 8.28478,3.73087 5.78446,5.6198 -1.40358,1.06038 -3.28872,1.34129 -6.32153,0.94201 -3.73477,-0.4917 -4.27623,-0.33261 -3.98792,1.17173 0.29069,1.51672 1.8438,1.77692 12.07153,2.02241 C 203.69702,158.15221 203.8049,160 188.39159,160 l -11.60841,0 0.69257,2.75 C 178.15004,165.4274 186,204.04003 186,204.67933 186,204.8557 201.55532,205 220.56739,205 c 32.45073,0 34.53587,-0.10716 34.05268,-1.75 -0.28309,-0.9625 -2.41965,-11.30873 -4.74791,-22.99162 -3.79894,-19.06255 -4.39421,-21.09882 -5.80268,-19.84958 -2.3909,2.12057 -8.96491,4.5912 -12.2166,4.5912 -2.43304,0 -3.00115,0.49136 -3.51006,3.03588 -0.6107,3.0535 -3.61448,5.96412 -6.15503,5.96412 -0.75196,0 -2.14386,0.95913 -3.09311,2.1314 -1.60485,1.98191 -1.98877,2.03635 -5.47356,0.77624 -3.78415,-1.36837 -6.35161,-3.51048 -5.3764,-4.48569 0.29135,-0.29135 2.04297,0.39284 3.8925,1.52042 1.84953,1.12759 3.92528,2.05184 4.61278,2.05389 2.16248,0.006 1.35806,-2.00468 -1.1892,-2.97314 C 213.02798,172.06014 211,169.2205 211,166.63694 211,164.03949 217.50362,158 220.30069,158 c 1.79598,0 2.76366,-0.67429 3.22897,-2.25 0.36544,-1.2375 3.34721,-10.6875 6.62617,-21 5.95609,-18.73224 5.96453,-18.75 8.90304,-18.75 2.8655,0 2.93703,0.12241 2.77568,4.75 -0.1837,5.2684 1.8394,16.08035 3.35992,17.9562 0.53774,0.6634 0.73934,1.59188 0.448,2.06328 -0.29134,0.47139 0.15913,3.87695 1.00104,7.5679 1.52713,6.69498 1.53492,6.70545 3.30222,4.43672 2.20177,-2.82648 5.05427,-8.31948 5.05427,-9.73291 0,-0.67945 -0.73837,-0.60775 -2.06315,0.20034 -1.81159,1.10503 -2.36026,0.91637 -4.5,-1.54729 C 246.99103,140.02953 246,137.63796 246,135.81357 c 0,-6.15813 -3.25426,-23.66138 -7.10892,-38.235784 -4.34261,-16.419313 -4.1362,-19.102928 1.08458,-14.10111 3.29705,3.158776 4.01532,4.90301 10.09867,24.523324 2.30215,7.425 5.02721,16.0733 6.0557,19.21845 1.02848,3.14515 1.85929,6.97015 1.84623,8.5 -0.0315,3.68965 -3.95119,13.07106 -7.29055,17.44919 -1.47188,1.92973 -2.37829,3.80644 -2.01426,4.17048 C 249.03549,157.70215 255.33333,158 262.66667,158 270,158 276,158.40754 276,158.90564 c 0,0.4981 -5.92223,0.94533 -13.1605,0.99384 -7.23828,0.0485 -13.29384,0.22153 -13.45682,0.3845 -0.16297,0.16298 1.26368,7.92825 3.17033,17.25617 1.90665,9.32792 3.94412,19.32235 4.52771,22.20985 l 1.06108,5.25 27.49649,0 c 25.71775,0 27.46298,-0.11321 26.97861,-1.75 -0.28483,-0.9625 -2.09164,-9.625 -4.01512,-19.25 -1.92349,-9.625 -5.57108,-27.4 -8.10575,-39.5 -6.52724,-31.15964 -6.22766,-28.5 -3.21021,-28.5 1.40113,0 2.69796,0.45133 2.88183,1.00295 0.42784,1.28353 16.69714,4.17474 19.13605,3.40066 1.2499,-0.3967 1.6194,-1.11714 1.15089,-2.24395 C 320.07506,117.24685 319.54372,112.225 319.27384,107 318.89471,99.659946 319.48988,92.576359 321.89157,75.844551 323.60121,63.934054 325,52.401654 325,50.216996 c 0,-4.624013 2.14027,-7.175399 4.42711,-5.277493 0.7849,0.651416 2.11445,3.201646 2.95454,5.667178 1.37618,4.038874 1.36373,6.565551 -0.12572,25.515413 -1.56138,19.864864 -1.55615,21.514147 0.0942,29.705266 1.44617,7.17762 1.54976,9.58955 0.60096,13.99164 -0.63053,2.92546 -1.33681,5.12862 -1.5695,4.89593 -0.23269,-0.23269 0.0729,-2.73598 0.67921,-5.56287 0.88473,-4.12536 0.79014,-6.51221 -0.47926,-12.09333 C 330.7117,103.23428 330,98.931428 330,97.496831 l 0,-2.608358 -2.25666,2.623528 c -2.00909,2.335696 -2.57275,2.503349 -5.13771,1.528161 l -2.88103,-1.095368 0.52626,9.277606 c 0.63562,11.20552 1.06459,12.39069 4.75169,13.12811 2.81661,0.56332 7.99745,6.61805 7.99745,9.34644 0,0.67798 0.92154,1.72588 2.04787,2.32867 1.12632,0.60279 2.50128,2.28856 3.05546,3.74615 1.12508,2.9592 0.4224,7.22823 -1.18977,7.22823 -0.57658,0 -0.78339,-0.83478 -0.45956,-1.85507 0.32383,-1.02029 0.15768,-2.93279 -0.36922,-4.25 -0.58488,-1.46215 -0.9827,-1.77371 -1.02139,-0.79992 -0.17892,4.50202 -9.11352,6.71705 -12.4084,3.07625 -1.90702,-2.10723 -2.20699,-8.21926 -0.48777,-9.93848 0.88962,-0.88962 0.83016,-1.28035 -0.25,-1.64294 -2.26706,-0.76098 -22.2215,-4.62509 -22.43517,-4.34449 -0.10665,0.14006 1.44889,7.90465 3.45674,17.25465 l 3.65064,17 22.20529,0.26913 C 342.45991,157.93476 351,158.4155 351,159.01913 351,159.63071 342.67639,160 328.89159,160 l -22.10841,0 0.69257,2.75 C 308.15004,165.4274 316,204.04003 316,204.67933 316,204.8557 332.45532,205 352.56739,205 c 34.3567,0 36.53608,-0.1058 36.04951,-1.75 -0.28483,-0.9625 -2.09164,-9.625 -4.01512,-19.25 -1.92349,-9.625 -5.57108,-27.4 -8.10575,-39.5 C 369.9332,113.17044 370.23065,116 373.5,116 c 2.57746,0 2.7252,0.22481 2.21479,3.37013 -0.33332,2.05403 0.90443,10.15736 3.16948,20.75 l 3.71638,17.37987 34.25809,0.2632 34.25809,0.26319 -0.30842,-51.01364 c -0.305,-50.449836 -0.28631,-51.013649 1.69159,-51.013483 1.98471,1.67e-4 1.99777,0.569544 1.70799,74.500453 L 453.91597,205 l 19.6094,0 c 18.20102,0 19.57319,-0.12569 19.10523,-1.75 -0.2773,-0.9625 -2.58751,-12.1 -5.1338,-24.75 -2.5463,-12.65 -5.27986,-24.3169 -6.0746,-25.92646 -0.79473,-1.60955 -1.20427,-3.68481 -0.91009,-4.61168 0.29418,-0.92688 -0.8257,-7.91015 -2.48862,-15.51837 C 476.36057,124.83527 475,118.02303 475,117.30518 475,116.56454 476.13044,116 477.6135,116 c 2.38538,0 2.56946,0.28367 2.10901,3.25 -0.62807,4.04607 4.36157,28.75 5.80684,28.75 1.1177,0 32.3248,-25.62064 38.72065,-31.78918 4.18151,-4.03289 4.73523,-6.61317 1.76077,-8.20505 -3.42,-1.83033 -8.03803,1.60117 -25.47943,18.93288 -9.09224,9.03506 -16.5291,16.23252 -16.52637,15.99436 0.003,-0.23816 8.7882,-9.31853 19.52324,-20.1786 17.65711,-17.86276 19.83965,-20.45082 22.88865,-27.141417 2.06513,-4.531617 4.54111,-8.261377 6.39338,-9.630818 2.65116,-1.960085 2.95573,-2.680706 2.47614,-5.858585 -0.76966,-5.099969 -1.70935,-5.67262 -4.1717,-2.542247 -2.64095,3.357415 -4.02383,2.455138 -1.69187,-1.103879 1.96289,-2.995748 4.30315,-4.151502 5.65962,-2.795039 0.52139,0.521395 2.81589,0.693647 5.09889,0.382783 4.12245,-0.561335 4.1823,-0.630299 8.73479,-10.065208 5.01023,-10.383584 7.10035,-11.794619 10.00252,-6.752687 C 561.27165,61.335206 566.86162,65 570.74394,65 575.67784,65 580,67.543137 580,70.446225 c 0,1.85463 0.68545,2.545414 3.0386,3.062254 1.67124,0.367064 5.01137,2.173233 7.42252,4.013709 8.01074,6.114733 6.65996,5.679364 44.53888,14.355322 9.625,2.204553 18.4,4.152639 19.5,4.329079 3.59628,0.576845 2.17988,3.15191 -2.5,4.545111 -3.43177,1.02164 -5.80561,1.09347 -10,0.30262 -3.025,-0.57037 -14.5,-2.34001 -25.5,-3.932537 -16.64341,-2.409553 -21.55908,-3.522173 -29.28968,-6.629474 -7.97303,-3.204743 -9.5921,-4.259427 -11.42337,-7.441327 -1.69969,-2.953288 -2.60808,-3.616669 -4.46606,-3.261494 -1.28281,0.245225 -2.916,-0.0385 -3.62932,-0.6305 -0.93974,-0.779915 -2.07131,-0.674617 -4.10856,0.382325 C 562.03662,80.343591 560.37282,81 559.88569,81 c -1.77435,0 -0.82569,-2.070216 1.4169,-3.092007 1.88139,-0.857219 2.28402,-1.789096 2.2011,-5.094354 -0.0797,-3.177366 -0.68098,-4.467355 -2.80259,-6.012839 L 558,64.833187 l 0,70.074073 0,70.07407 49.75,0.26888 c 27.3625,0.14789 -92.225,0.2707 -265.75,0.27291 -173.525,0.002 -300.080411,-0.1205 -281.234247,-0.2727 z M 451,182.5 l 0,-22.5 -34.10841,0 -34.10841,0 0.69257,2.75 C 384.15004,165.4274 392,204.04003 392,204.67933 392,204.8557 405.275,205 421.5,205 l 29.5,0 0,-22.5 z m 104,0 0,-22.5 -34.10841,0 -34.10841,0 0.69257,2.75 C 488.15004,165.4274 496,204.04003 496,204.67933 496,204.8557 509.275,205 525.5,205 l 29.5,0 0,-22.5 z M 221.68555,162.82569 c 1.27295,-1.19588 2.31445,-2.54588 2.31445,-3 0,-1.41541 -5.44352,-0.90377 -7.77749,0.73101 -2.67451,1.8733 -2.83357,3.13697 -0.47251,3.75397 3.15302,0.82397 3.59565,0.71323 5.93555,-1.48498 z m 17.62138,-0.74293 c 2.46001,-1.05448 4.7826,-2.41861 5.16132,-3.0314 0.37873,-0.61278 -0.79245,-8.54345 -2.60261,-17.62371 -3.68247,-18.47229 -3.76035,-18.49394 -6.94402,-1.92963 -2.38891,12.4293 -2.39389,12.28076 0.32838,9.80126 1.2375,-1.12715 3.375,-2.56478 4.75,-3.19474 2.12595,-0.97401 2.21508,-0.9553 0.59567,0.12504 -6.16631,4.11368 -8.76504,7.17357 -8.25563,9.72063 0.34406,1.72029 -0.16862,3.41871 -1.52996,5.06852 l -2.04742,2.48127 1.60739,-2.6976 c 0.88407,-1.48369 1.36238,-3.3361 1.06292,-4.11647 -0.59383,-1.5475 2.86433,-21.10629 5.17691,-29.27974 0.88213,-3.11778 1.12524,-5.94802 0.62667,-7.29578 -0.63806,-1.72483 -2.17241,2.09599 -7.08098,17.63294 -5.1611,16.33627 -6.09027,20.29821 -5.26778,22.46152 1.57082,4.13157 7.39266,4.88979 14.41914,1.87789 z M 555,110.3 c 0,-31.387447 -0.3376,-47.362398 -0.98719,-46.712807 -1.98354,1.983542 -5.73378,14.953917 -5.25902,18.188608 0.5241,3.570972 -0.91179,5.953572 -4.38343,7.273487 -1.5422,0.586346 -2.05902,1.425262 -1.7071,2.77102 0.82134,3.140811 -3.32432,9.879922 -10.98556,17.857942 -6.68058,6.9568 -39.52721,35.33729 -44.47284,38.42589 -1.837,1.14722 -2.09975,1.9631 -1.57369,4.88651 0.34733,1.93014 0.82396,3.84685 1.05919,4.25935 0.23522,0.4125 15.70112,0.75 34.36866,0.75 L 555,158 l 0,-47.7 z m -369.02896,42.73906 c 1.80539,-1.14176 1.93793,-1.04367 -5.81483,-4.30317 -4.92936,-2.07245 -6.2114,-2.3221 -5.75,-1.11972 0.32658,0.85107 0.59379,2.2001 0.59379,2.99784 0,2.68361 7.82665,4.41362 10.97104,2.42505 z m -14.64982,-5.44702 c -0.58169,-3.58458 -1.37756,-4.30289 -13.86049,-12.50977 -14.07585,-9.25414 -16.40755,-9.86878 -18.42087,-4.85579 -0.5022,1.25043 -0.94161,1.63395 -0.97647,0.85226 -0.082,-1.8393 2.85423,-5.07874 4.60342,-5.07874 1.00328,0 1.20723,-0.97711 0.78271,-3.75 -0.31576,-2.0625 -0.1922,-5.53186 0.27457,-7.70969 0.83801,-3.90991 0.79798,-3.98535 -3.1843,-6 -2.21814,-1.12217 -4.55346,-3.10787 -5.1896,-4.41267 -1.0211,-2.09438 -1.23907,-1.49243 -1.86034,5.13735 -0.82384,8.79168 -0.13442,13.56203 2.84491,19.68472 1.85523,3.81262 3.66858,5.36464 12.66524,10.84001 9.43491,5.74209 22.14994,12.35351 22.71918,11.81327 0.12055,-0.11441 -0.0585,-1.91933 -0.39796,-4.01095 z m 82.18886,-5.60835 c 0.34546,-0.55897 1.11655,-0.71444 1.71353,-0.34549 0.62317,0.38514 0.79973,0.20858 0.41459,-0.41459 -0.36895,-0.59698 -0.21348,-1.36807 0.34549,-1.71353 1.56055,-0.96447 1.21274,-5.97247 -0.85366,-12.29163 -1.02849,-3.14515 -3.75355,-11.79345 -6.0557,-19.21845 -2.30215,-7.425 -4.84698,-15.344697 -5.65519,-17.599328 -1.43143,-3.993219 -5.88441,-9.26874 -6.93597,-8.217175 -0.28859,0.288594 1.24812,7.227868 3.41492,15.42061 C 243.70544,111.99981 247,129.64775 247,135.64682 c 0,4.99413 4.58291,9.4551 6.51008,6.33687 z m -85.55483,-10.06048 c -1.11741,-5.18277 -2.25115,-10.15197 -2.51941,-11.04267 C 165.01369,119.47891 148.39574,111 146.07081,111 c -1.22717,0 -2.32096,8.58457 -1.54434,12.12054 0.55175,2.51207 2.71171,4.34983 12.79759,10.88854 6.67359,4.32651 12.25284,7.74735 12.39833,7.60186 0.14549,-0.14549 -0.64972,-4.50497 -1.76714,-9.68773 z m 157.73219,4.29113 C 326.8169,135.49616 329,130.78198 329,129.0612 c 0,-0.44473 -1.4625,-0.51196 -3.25,-0.14941 -2.88481,0.58512 -3.28487,1.07658 -3.56037,4.3737 -0.31194,3.73342 0.78627,4.65299 3.49781,2.92885 z m 3.12324,-10.89668 c 0.42303,-2.97144 -3.04532,-4.68366 -8.11108,-4.00419 -2.20664,0.29597 -7.63101,-0.0981 -12.05415,-0.87581 -6.33391,-1.11361 -8.2037,-1.15243 -8.80297,-0.18278 -0.96505,1.56148 0.31588,2.00675 12.15752,4.2261 5.225,0.97926 9.94684,2.19099 10.49298,2.69273 1.84642,1.6963 5.98508,0.48043 6.3177,-1.85605 z M 165,117 c 0,-0.55 1.0125,-1.03037 2.25,-1.06749 1.24024,-0.0372 0.20374,-0.6193 -2.30959,-1.29707 -5.04964,-1.36172 -13.1823,-6.03736 -19.69315,-11.32201 C 140.1979,99.215015 136.5,99.081692 136.5,102.99806 c 0,2.7674 0.29901,2.94957 17,10.3568 C 164.64683,118.2987 165,118.41065 165,117 Z M 539.85887,98.289838 c 2.20963,-4.344852 2.83485,-7.836613 1.22505,-6.841701 -1.60039,0.989094 -6.25696,-1.393841 -6.80283,-3.481253 C 533.47372,84.8795 531.18353,87.34171 527.73934,95 c -1.6078,3.575 -4.56938,8.23887 -6.5813,10.36415 l -3.65804,3.86415 3.3262,-1.67923 c 3.05002,-1.53981 3.52744,-1.54738 5.75,-0.0911 1.33309,0.87347 2.4238,1.94671 2.4238,2.38497 0,1.79173 8.87335,-7.64892 10.85887,-11.553102 z m 111.69831,1.591447 c 4.40496,-1.10918 6.05744,-2.8789 2.69282,-2.88387 -0.9625,-0.0014 -11.425,-2.273824 -23.25,-5.049785 -28.52045,-6.695276 -27.65706,-6.56796 -30.02262,-4.427156 -2.25339,2.039288 -2.56112,4.077314 -0.72738,4.817245 0.97906,0.395059 0.97226,0.521498 -0.0314,0.583334 -2.34572,0.144522 -2.52189,-2.969337 -0.3017,-5.332622 l 2.16995,-2.309806 -3.07509,-1.273746 c -1.6913,-0.70056 -4.74835,-2.605799 -6.79344,-4.233863 -2.04509,-1.628065 -4.54842,-3.406192 -5.56297,-3.951394 -1.57301,-0.845312 -1.74975,-0.692333 -1.20027,1.038914 0.47692,1.502652 -0.0392,2.47805 -1.98611,3.75374 -2.48992,1.631457 -2.78645,1.631409 -5.54973,-8.99e-4 -3.36344,-1.986835 -3.58296,-1.543521 -1.21808,2.459902 1.28122,2.168946 3.93495,3.780436 10.75,6.528007 4.97685,2.006479 10.62382,3.808105 12.54882,4.003614 5.59409,0.56815 42.23166,6.298809 43.42025,6.79157 1.82498,0.75659 3.51835,0.64979 8.13693,-0.513185 z M 142.41821,98.393011 C 143.48577,97.983349 144,96.520438 144,93.893011 144,89.472957 143.96239,89.45097 139.95034,91.52568 137.97631,92.546488 137,93.814999 137,95.359013 c 0,3.515679 1.69279,4.463578 5.41821,3.033998 z M 327.81237,96.25 c 1.46053,-2.06124 2.07044,-5.004125 2.43517,-11.75 0.28398,-5.25235 0.19097,-7.126175 -0.22336,-4.5 -1.05876,6.710708 -1.09472,1.021951 -0.0766,-12.120551 C 330.76952,57.269088 330.488,53.175144 328.54619,47.5 c -0.45862,-1.340363 -0.1785,-1.175454 0.84931,0.5 1.70646,2.78172 2.18314,1.949701 0.58926,-1.028503 -1.70917,-3.193607 -3.98361,-1.265718 -3.99406,3.385492 C 325.9857,52.635645 324.64519,63.725 323.01205,75 c -1.63314,11.275 -2.97895,20.852001 -2.99069,21.282224 -0.0193,0.705665 3.4625,2.496548 5.16056,2.65439 0.37504,0.03486 1.55875,-1.174114 2.63046,-2.686614 z m 216.16955,-11.5 c 1.80811,-3.4375 4.3447,-9.345262 5.63687,-13.12836 1.29216,-3.783099 2.90833,-7.551857 3.5915,-8.375019 0.68316,-0.823162 1.11047,-2.751655 0.94958,-4.28554 -0.21078,-2.00944 0.21509,-2.920267 1.52379,-3.25898 1.61061,-0.416852 1.62155,-0.483237 0.0966,-0.5861 -1.21054,-0.08165 -2.75361,2.121721 -5.21165,7.441834 -4.07387,8.817344 -11.92585,20.98153 -14.07624,21.806712 -2.30174,0.88326 -1.80265,4.575192 0.75761,5.604291 1.2375,0.497414 2.51875,0.932913 2.84722,0.967776 0.32847,0.03486 2.07659,-2.749114 3.8847,-6.186614 z m 2.96789,1.810472 c 0.65709,-0.791741 1.04969,-2.587502 0.87245,-3.990581 -0.30742,-2.433563 -0.42726,-2.367266 -2.60212,1.439528 C 543.49636,87.026667 543.28356,88 544.3477,88 c 0.77407,0 1.94503,-0.647788 2.60211,-1.439528 z m 36.48567,-6.889637 c 2.46717,-1.804035 0.63117,-5.277648 -3.23879,-6.127634 -1.55096,-0.340649 -6.8422,-3.476338 -11.75831,-6.968198 -4.91611,-3.49186 -9.27588,-6.148166 -9.68838,-5.902902 -1.65275,0.982688 -0.57828,3.309071 2.5,5.412847 1.7875,1.221624 5.5,4.321444 8.25,6.888487 5.37163,5.014258 9.35977,7.889947 11.05887,7.974113 0.58238,0.02885 1.87685,-0.545672 2.87661,-1.276713 z M 332.20639,53.028901 c -0.39521,-1.068355 -0.77076,3.100587 -0.83457,9.264317 L 331.25581,73.5 l 0.83458,-9.264317 c 0.45901,-5.095374 0.51122,-10.138426 0.116,-11.206782 z M 579,70.160515 C 579,68.350931 575.30054,66 572.45295,66 c -2.30855,0 -1.67435,1.321069 1.80025,3.75 3.90533,2.730034 4.7468,2.802806 4.7468,0.410515 z M 79.590561,130.59064 c -3.695872,-16.96016 -3.766382,-17.6613 -2.732718,-27.17369 l 1.061041,-9.764334 -3.48664,-3.859293 c -1.917651,-2.122612 -4.528686,-6.20695 -5.802299,-9.076308 -1.273613,-2.869358 -5.648874,-9.500332 -9.722802,-14.735498 -4.073929,-5.235165 -8.754592,-11.535165 -10.401474,-14 -1.646882,-2.464834 -6.484382,-8.648794 -10.75,-13.742133 C 33.490051,33.146045 30,28.519422 30,27.957999 c 0,-2.185751 3.243422,-2.100142 6.30958,0.16654 4.21434,3.115485 27.613913,27.445841 34.98388,36.375461 3.177556,3.85 7.606505,9.804213 9.842109,13.231585 3.612135,5.537713 4.28766,6.112277 6.066815,5.160103 1.101144,-0.589315 2.881773,-0.841437 3.956953,-0.560271 1.219232,0.318836 1.80826,0.07043 1.565269,-0.660103 C 92.510325,81.027091 91.059252,80.275 89.5,80 c -1.559252,-0.275 -3.022128,-1.0625 -3.250835,-1.75 -0.455165,-1.368237 0.967884,-1.695446 2.174526,-0.5 0.416363,0.4125 1.677063,0.75 2.801555,0.75 1.124492,0 2.369903,0.675 2.76758,1.5 0.397678,0.825 1.461978,2.919431 2.365112,4.654292 C 98.2886,88.362966 98.495208,93.104792 96.8,94.8 94.874328,96.725672 86.284799,96.331326 85.127941,94.264134 84.032265,92.306271 83.990126,92.430696 82,103.5 c -0.5933,3.3 -1.294587,7.0125 -1.558416,8.25 -0.335168,1.57212 -0.01258,2.25 1.070749,2.25 2.341202,0 2.836393,2.53814 1.032359,5.29145 -1.497194,2.285 -1.433905,3.25493 0.924012,14.16079 C 86.379718,146.91628 86.470858,148 84.69216,148 c -0.881761,0 -2.543801,-5.67176 -5.101599,-17.40936 z M 83,116.5 c 0,-0.825 -0.648442,-1.5 -1.440983,-1.5 -2.41107,0 -2.450209,-1.13689 -0.396123,-11.50628 3.12614,-15.781299 3.145115,-15.993206 1.550564,-17.316565 -3.138747,-2.604929 -6.356907,1.000247 -4.724802,5.293007 0.578794,1.522345 0.571031,5.596985 -0.02046,10.741318 C 76.482383,115.13381 76.57861,116 79.5,116 c 1.375,0 2.5,0.45 2.5,1 0,0.55 0.225,1 0.5,1 0.275,0 0.5,-0.675 0.5,-1.5 z m 10,-23 C 93,91.346967 89.348764,88 87,88 84.954482,88 84.382118,90.22625 85.606989,93.418213 86.425722,95.551797 93,95.624527 93,93.5 Z M 76.391296,89.577319 c -0.709063,-1.847789 3.338234,-5.895086 5.186023,-5.186023 3.932795,1.509155 -0.172167,-6.184517 -9.14878,-17.146982 -3.818742,-4.663545 -4.12958,-4.840958 -5.007811,-2.858242 -0.695137,1.569358 -1.758933,2.077318 -4.129478,1.971816 l -3.193128,-0.142113 3.916315,5.187123 c 2.153974,2.852917 4.651143,6.966867 5.549264,9.142112 2.198603,5.325001 8.710959,13.940275 6.827595,9.032309 z M 66.5,62.582739 C 66.5,60.202341 64.015598,57.062243 53,45.519753 39.731692,31.616802 34.543484,27 32.18812,27 29.871038,27 31.090307,29.086599 38.755669,38.239384 43.021287,43.332723 47.852322,49.525 49.491302,52 56.955122,63.271003 60.114428,66.155978 64.5,65.705456 c 1.495998,-0.153681 2,-0.940608 2,-3.122717 z m 348.6228,25.415184 c -4.54425,-1.072895 -7.53034,-3.450374 -12.93265,-10.29678 -4.86868,-6.170136 -4.82012,-5.933255 -3.98964,-19.46137 0.24514,-3.993124 0.22817,-7.477762 -0.0377,-7.743638 -0.26588,-0.265877 -1.11179,0.413725 -1.87981,1.510226 C 394.84591,54.058089 391,54.781436 391,53 c 0,-0.55 0.79175,-1 1.75945,-1 0.9677,0 2.28021,-0.833853 2.91668,-1.853007 0.92288,-1.47777 2.23723,-1.811008 6.49055,-1.645605 6.94985,0.270266 6.54525,0.129335 8.37108,2.915901 1.94918,2.974823 0.64353,9.126776 -2.51008,11.826981 -1.9905,1.704317 -2.60445,3.845625 -1.43727,5.012806 0.82473,0.824735 8.44583,-1.979897 10.54693,-3.881367 C 419.17558,62.531127 421,63.317138 421,66.03985 c 0,1.276572 -1.53425,2.701544 -4.56965,4.24418 -4.53704,2.305785 -4.55667,2.337961 -2.75,4.507288 L 415.5,76.976242 424,72.670195 c 4.675,-2.368326 9.94706,-5.174845 11.7157,-6.236708 3.03936,-1.82479 3.30988,-1.836482 4.93316,-0.213202 1.62328,1.623279 1.61145,1.836868 -0.2157,3.894985 -1.06324,1.197639 -3.68818,3.461647 -5.8332,5.031128 L 430.69992,78 l 3.12329,0 c 1.71781,0 5.16487,-0.99188 7.66015,-2.204177 4.20048,-2.04075 4.65816,-2.082871 6.17294,-0.568094 1.51478,1.514776 1.43068,1.882099 -1.13427,4.954177 -3.66625,4.391129 -4.068,4.583805 -14.25406,6.836088 -9.41157,2.081031 -11.88313,2.222293 -17.14517,0.979929 z m 15.06182,-1.520328 c 10.58509,-2.202865 13.0325,-3.2321 15.69758,-6.601458 1.77297,-2.241492 2.09278,-3.301158 1.2505,-4.143438 -0.84228,-0.842281 -2.32788,-0.550569 -5.80887,1.140631 -4.31917,2.098411 -5.49773,2.219158 -15.39752,1.577527 l -10.72036,-0.694815 -1.73843,2.653187 c -0.95614,1.459253 -1.56498,2.78041 -1.35298,2.935905 0.212,0.155494 1.68365,1.26645 3.27032,2.468791 3.42247,2.593464 5.15377,2.671101 14.79976,0.66367 z m -17.17197,-1.433164 -2.48735,-1.911097 2.11422,-2.859623 c 2.05973,-2.785935 2.06694,-2.917991 0.28005,-5.124708 -1.48956,-1.839528 -2.20558,-2.066303 -3.81112,-1.207044 C 408.02112,74.523882 406.89256,75 406.60054,75 c -1.40859,0 -7.59874,-6.408669 -7.5858,-7.853592 0.0101,-1.130482 0.40183,-0.893205 1.25,0.757193 0.67939,1.321981 2.3985,3.266899 3.82023,4.322041 l 2.58498,1.918441 6.66502,-3.286673 C 417.83899,68.63638 420,66.991864 420,65.785368 c 0,-2.149901 -1.31914,-2.310677 -2.9395,-0.358262 -0.65142,0.784908 -3.15624,2.098979 -5.56627,2.920158 -4.98593,1.698879 -6.71789,0.739893 -6.25606,-3.463977 0.20954,-1.907335 -0.25878,-2.44372 -2.34506,-2.6859 -2.08426,-0.241945 -2.85425,0.294592 -3.84078,2.676282 -0.68076,1.643505 -0.9171,4.020578 -0.52719,5.302612 1.06925,3.515817 8.58093,12.916719 11.97486,14.986607 3.94059,2.403285 5.68758,2.320925 2.51265,-0.118457 z m 20.04157,-9.893112 c 6.2354,-3.995397 8.64094,-6.856156 7.07877,-8.418326 -0.95966,-0.959666 -1.90348,-0.811447 -4.42637,0.695123 -1.76364,1.053179 -6.51992,3.610969 -10.5695,5.683977 l -7.36288,3.769105 4.86288,0.379153 c 2.67458,0.208534 5.11228,0.460264 5.4171,0.559401 0.30482,0.09914 2.55482,-1.101658 5,-2.668433 z M 409.82085,58.75 c 1.06964,-3.959261 0.93565,-4.156687 -2.27428,-3.351044 -2.0163,0.506058 -2.54657,1.25987 -2.54657,3.620096 0,4.373338 3.62124,4.171236 4.82085,-0.269052 z"
       id="path2989"
       style="fill:#000000"
       inkscape:connector-curvature="0" />
  </g>
</svg>
