<?xml version="1.0" encoding="UTF-8" standalone="no"?>
<!-- Created with Inkscape (http://www.inkscape.org/) -->

<svg
   xmlns:dc="http://purl.org/dc/elements/1.1/"
   xmlns:cc="http://creativecommons.org/ns#"
   xmlns:rdf="http://www.w3.org/1999/02/22-rdf-syntax-ns#"
   xmlns:svg="http://www.w3.org/2000/svg"
   xmlns="http://www.w3.org/2000/svg"
   xmlns:sodipodi="http://sodipodi.sourceforge.net/DTD/sodipodi-0.dtd"
   xmlns:inkscape="http://www.inkscape.org/namespaces/inkscape"
   version="1.1"
   width="750"
   height="300"
   id="svg2"
   inkscape:version="0.91 r13725"
   sodipodi:docname="ub330603.svg">
  <sodipodi:namedview
     pagecolor="#cacaca"
     bordercolor="#666666"
     borderopacity="1"
     objecttolerance="10"
     gridtolerance="10"
     guidetolerance="10"
     inkscape:pageopacity="0"
     inkscape:pageshadow="2"
     inkscape:window-width="1414"
     inkscape:window-height="905"
     id="namedview11"
     showgrid="false"
     inkscape:zoom="1"
     inkscape:cx="378.34831"
     inkscape:cy="164.3381"
     inkscape:window-x="0"
     inkscape:window-y="0"
     inkscape:window-maximized="0"
     inkscape:current-layer="svg2" />
  <metadata
     id="metadata8">
    <rdf:RDF>
      <cc:Work
         rdf:about="">
        <dc:format>image/svg+xml</dc:format>
        <dc:type
           rdf:resource="http://purl.org/dc/dcmitype/StillImage" />
        <dc:title></dc:title>
      </cc:Work>
    </rdf:RDF>
  </metadata>
  <defs
     id="defs6" />
  <g
     id="g6286"
     transform="translate(0.81699957,-29.570128)">
    <path
       sodipodi:nodetypes="sssccccccccssssscscssscsccs"
       inkscape:connector-curvature="0"
       id="path4380"
       d="m 246.66611,99.552734 c 0.52515,-0.01779 0.95076,0.0075 1.26172,0.08203 4.14444,0.992776 6.35292,3.065566 7.62305,7.150396 0.97457,3.13434 -0.10444,12.63875 -1.9961,17.5957 l -1.05859,2.78125 5.95508,-0.82227 c 3.27638,-0.45182 7.99779,-0.93879 10.49219,-1.08203 l 2.44726,-0.14062 c 1.98049,0.11614 1.5878,1.21828 2.23633,2.0957 0.18079,2.16969 0.0206,5.3501 -1.5293,4.64063 -0.2251,-0.0997 -0.45195,-0.20381 -0.67578,-0.33985 -1.28639,-0.78195 -4.84464,-0.58904 -9.69531,0.52539 -4.21513,0.96843 -9.57367,1.7062 -11.90625,1.64063 -4.25036,-0.11948 -6.966,1.3446 -6.47461,3.49023 0.14434,0.63025 -0.50977,1.90706 -1.45313,2.83789 -2.03523,2.00817 0.0896,3.52079 2.91993,2.07813 2.07885,-1.05959 3.5616,-0.0458 2.07617,1.41992 -1.33333,1.31561 -7.63376,0.49858 -8.32422,-1.08008 -0.29587,-0.67647 -1.03717,-0.9871 -1.64649,-0.6875 -1.52484,0.74971 -6.75182,-4.73767 -6.9746,-7.32226 -0.2781,-3.22621 5.29201,-8.29911 8.47265,-7.7168 2.49062,0.45598 2.50902,0.42895 3.8125,-5.82813 2.01401,-9.66781 2.20472,-11.12952 1.46094,-11.11523 -1.85503,0.0356 -34.06932,7.16196 -37.98242,8.40234 -5.06801,1.60648 -6.36891,0.47909 -3.50391,-2.58789 0.40929,-0.43812 0.90391,-0.91663 1.48438,-1.43164 4.73232,-4.19788 35.10132,-14.319114 42.97851,-14.585938 z"
       style="fill:#000000" />
    <path
       id="path4364"
       d="m 137.8636,104.16405 c 4.11365,0.12892 9.78287,0.77572 17.66015,1.96093 26.49522,3.98646 29.84111,5.04701 32.57812,10.33985 0.88606,1.71344 1.42027,4.41412 1.1875,6 -0.36985,2.52008 -0.0368,2.98617 2.6543,3.69922 1.69351,0.44871 3.23073,0.44169 3.41406,-0.0156 0.67834,-1.6922 5.11383,-0.79803 6.21094,1.25195 0.87715,1.63896 0.77801,2.4548 -0.46484,3.82813 -1.39261,1.53881 -1.58008,7.33154 -1.58008,48.91601 l -1.5,13.93165 -1.5,-61.61719 -5.25,-1.07617 c -6.75269,-1.38355 -8.9411,-1.38281 -16.32227,0.008 -5.50698,1.03739 -6.47966,0.9471 -10.45312,-0.97266 -3.41215,-1.64857 -5.42571,-1.97784 -9.10156,-1.49023 -4.88708,0.6483 -5.79454,2.6442 -1.78125,3.91797 2.22399,0.70587 2.56727,2.4707 0.48047,2.4707 -1.91209,0 -5.77694,-5.02346 -5.14063,-6.68164 0.27817,-0.72531 0.10624,-1.31858 -0.3828,-1.31858 -0.48904,0 -1.19129,-1.36867 -1.5586,-3.04102 -0.94212,-4.28948 1.52783,-7.68133 6.25196,-8.58593 3.7423,-0.71659 3.72735,-0.72682 -3.74219,-2.63867 -4.125,-1.05582 -10.61447,-2.4474 -14.42188,-3.09376 -7.29586,-1.23856 -9.10811,-2.75101 -5.5664,-4.64648 1.65632,-0.88643 4.21448,-1.2754 8.32812,-1.14648 z m 20.55469,11.31836 c -0.72999,0.068 -0.005,0.72372 1.3164,2.04492 2.29655,2.29655 7.61282,3.14618 11.28906,1.80468 1.48456,-0.54171 0.14523,-1.15354 -5.19727,-2.37304 -4.49347,-1.02571 -6.67822,-1.54456 -7.40819,-1.47656 z"
       style="fill:#000000"
       inkscape:connector-curvature="0" />
    <path
       id="path4348"
       d="m 37.030569,123.37889 c 1.874527,0.10018 3.486671,1.92187 3.75,4.53906 0.454488,4.5171 4.292499,13.39844 5.789062,13.39844 0.74076,0 3.6292,-0.9 6.419922,-2 6.626595,-2.61196 12.38804,-2.61196 15,0 3.08756,3.08756 2.725974,11.44515 -0.835938,19.30078 -2.889954,6.37365 -5.713848,9.06312 -10.810546,10.30274 -4.312618,1.04892 -11.610352,6.54003 -10.357422,7.79296 0.708941,0.70894 2.02283,0.65622 4.201172,-0.16601 1.74355,-0.6581 3.395319,-0.97187 3.669922,-0.69727 0.983305,0.9833 -1.603867,2.55054 -5.167969,3.12891 -3.139411,0.50946 -3.773927,0.26803 -4.710938,-1.78711 -0.595585,-1.30629 -2.186189,-2.8955 -3.535156,-3.53125 l -2.453125,-1.15625 -1.595703,10.68164 c -1.595491,-10.88987 -1.904479,-25.86914 -2.285156,-25.86914 -1.355006,0 -13.162681,4.56208 -18.421871,7.11719 -6.3565395,3.08824 -8.1075195,1.55385 -4.06055,-3.5586 2.02979,-2.5642 5.88837,-5.06381 13.26172,-8.5957 l 10.398435,-4.98242 -0.570313,-11.55078 c -0.486659,-9.88144 -0.343284,-11.63942 0.988282,-12.15039 0.447135,-0.17158 0.893588,-0.23992 1.326172,-0.2168 z m 25.273437,15.1875 c -2.820643,-0.0119 -6.280503,0.59422 -9.623047,1.81836 -3.405261,1.24711 -6.312302,2.35076 -6.460937,2.45312 -0.148635,0.10236 1.0095,3.18759 2.574219,6.85547 2.637281,6.18208 2.955173,6.5376 4.367187,4.89453 3.331143,-3.8762 3.282209,-4.52147 -0.296875,-3.88086 -3.347372,0.59917 -3.343499,0.59177 0.490234,-0.88085 2.126022,-0.81666 4.230518,-1.25957 4.675782,-0.98438 2.877244,1.77823 9.164299,-5.61789 7.408203,-8.71484 -0.581744,-1.02594 -0.462003,-1.05036 0.548828,-0.11524 2.231127,2.064 -0.684463,7.26143 -5.208985,9.28711 -4.835656,2.16499 -9.250513,7.75712 -7.648437,9.6875 0.607304,0.73176 1.708962,1.33008 2.447266,1.33008 1.718754,0 3.732296,3.72069 3.019531,5.57812 -0.725063,1.88948 0.399569,1.76325 3.101562,-0.3496 5.161263,-4.03588 9.342168,-20.44283 6.394532,-25.09571 -0.786539,-1.24155 -2.968419,-1.87091 -5.789063,-1.88281 z m -20.666015,16.17969 c -0.312361,-0.007 -0.662118,0.0557 -1.066407,0.17969 -1.145617,0.35122 -2.224447,0.76256 -2.398437,0.91406 -0.17399,0.1515 -0.17399,1.80048 0,3.66406 0.304567,3.26217 0.409493,3.34026 2.816406,2.11523 1.375,-0.69982 2.873425,-1.40365 3.330078,-1.56445 0.456652,-0.1608 0.27002,-1.52362 -0.416016,-3.0293 -0.726305,-1.59406 -1.328544,-2.25681 -2.265624,-2.27929 z"
       style="fill:#000000"
       inkscape:connector-curvature="0" />
    <path
       id="path4346"
       d="m 119.2329,123.71483 c 0.50393,-0.0104 0.9577,0.18088 1.43164,0.57422 2.14003,1.77607 2.49612,6.0013 1.29101,15.35156 -1.28069,9.93662 -1.23841,10.02264 5.48438,11.09766 5.62494,0.89946 9.48259,3.14599 11.24024,6.54492 4.06381,7.85853 -0.10605,13.18117 -11.8047,15.06836 l -7.67773,1.23828 -1.52539,20.48633 -1.53711,-21.25977 -2.45508,-1.78711 c -1.93525,-1.40823 -3.50052,-1.64716 -7.39258,-1.13086 -5.31605,0.7052 -6.11132,2.87289 -1.48046,4.03516 2.86086,0.71803 3.18447,2.38281 0.46289,2.38281 -2.29915,0 -6.35912,-4.80929 -5.64063,-6.68164 0.2782,-0.72487 0.10624,-1.31836 -0.3828,-1.31836 -1.83139,0 -2.26376,-6.02207 -0.61328,-8.54102 1.35088,-2.06169 2.40656,-2.45898 6.5371,-2.45898 3.48897,0 5.19034,0.46973 5.82813,1.60938 0.8172,1.4603 0.95694,1.46291 1.50781,0.0273 0.45518,-1.18619 -0.31955,-1.82406 -3.09962,-2.54883 -12.88494,-3.35915 -17.46237,-4.4151 -23.63085,-5.45508 -7.294508,-1.22982 -9.109678,-2.74236 -5.566398,-4.63867 3.165468,-1.6941 10.133238,-1.57437 22.833978,0.39258 6.23976,0.96634 11.63976,1.46146 12,1.09961 0.36025,-0.36185 0.64672,-5.52659 0.63672,-11.47656 -0.0157,-9.44653 0.21592,-10.96387 1.82813,-11.97071 0.66751,-0.41688 1.22067,-0.63023 1.72461,-0.64062 z m 1.1875,35.17968 c -0.71718,-0.0495 -1.22265,0.14175 -1.22265,0.51563 0,0.49851 0.9,0.90625 2,0.90625 1.09999,0 2,-0.17196 2,-0.38281 0,-0.21085 -0.90001,-0.61859 -2,-0.90625 -0.27501,-0.0719 -0.53828,-0.11633 -0.77735,-0.13282 z"
       style="fill:#000000"
       inkscape:connector-curvature="0" />
    <path
       id="path4462"
       d="m 47.7247,168.65906 c 0.941024,-0.38051 0.851208,-1.25468 -0.377176,-3.67105 -0.886778,-1.74439 -1.726995,-3.30602 -1.867149,-3.47029 -0.140153,-0.16427 -1.432924,-0.003 -2.872823,0.35841 -3.23074,0.81086 -3.32398,2.4284 -0.303548,5.26595 2.335416,2.19401 3.169256,2.42736 5.420696,1.51698 z"
       style="fill:#fefefe"
       inkscape:connector-curvature="0" />
    <path
       id="path4460"
       d="m 116.11314,159.06639 -0.0846,-10.25 -2.05572,8.66309 c -2.12131,8.93935 -1.95153,11.83691 0.69354,11.83691 1.28108,0 1.51755,-1.67536 1.44677,-10.25 z"
       style="fill:#fefefe"
       inkscape:connector-curvature="0" />
    <path
       id="path4458"
       d="m 56.420974,166.99019 c 2.373594,-1.73561 1.30755,-5.27151 -1.826465,-6.0581 -1.880199,-0.4719 -3.431256,-3.209 -8.131512,-14.34942 -3.194475,-7.57145 -6.070331,-15.56628 -6.39079,-17.76628 -0.492681,-3.38232 -0.968702,-4.02529 -3.082654,-4.1638 -2.420483,-0.1586 -2.4248,-0.14796 -0.135708,0.33452 2.140706,0.45121 2.304876,0.8699 1.736009,4.4274 -1.264,7.90462 7.629815,35.34912 12.258143,37.82612 2.598864,1.39087 3.376123,1.35594 5.572977,-0.25044 z"
       style="fill:#fefefe"
       inkscape:connector-curvature="0" />
    <path
       id="path4456"
       d="m 15.989553,163.33021 c 1.925,-1.04629 6.9875,-3.15721 11.25,-4.69093 l 7.75,-2.78858 0,-3.71074 0,-3.71074 -9.89409,4.74099 c -8.5306,4.08764 -15.1059095,9.11102 -15.1059095,11.54054 0,1.10929 2.4609095,0.54306 5.9999995,-1.38054 z"
       style="fill:#fefefe"
       inkscape:connector-curvature="0" />
    <path
       id="path4454"
       d="m 111.44277,163.48743 c 0.73467,-2.80939 -1.59695,-5.17104 -5.10527,-5.17104 -2.38517,0 -3.13975,0.44342 -3.13975,1.84501 0,4.17774 7.25676,7.10511 8.24502,3.32603 z"
       style="fill:#fefefe"
       inkscape:connector-curvature="0" />
    <path
       id="path4452"
       d="m 135.84302,160.79843 c 0.32037,-0.83488 0.0279,-2.8569 -0.64997,-4.49339 -1.2324,-2.97527 -2.63835,-3.63196 -11.7453,-5.48593 -3.74548,-0.7625 -3.95032,-1.97967 -2.24004,-13.31117 1.08617,-7.19652 0.26943,-12.32073 -2.06448,-12.95252 -0.87069,-0.2357 -1.04783,-0.0628 -0.44548,0.43484 0.58982,0.48727 1,7.32412 1,16.66784 l 0,15.84172 5.91987,2.40828 c 6.85744,2.7897 9.41121,3.01206 10.2254,0.89033 z"
       style="fill:#fefefe"
       inkscape:connector-curvature="0" />
    <path
       id="path4450"
       d="m 113.57933,154.7644 c 0.85361,-2.22449 0.77612,-5.44416 -0.13158,-5.46633 -0.4125,-0.0101 -5.475,-0.76286 -11.25,-1.67286 -11.58962,-1.82624 -16.12603,-2.04599 -20.249998,-0.98093 -4.26708,1.10202 -3.26279,2.34746 2.499998,3.10029 4.3397,0.56693 20.54744,4.2741 26.88157,6.14858 0.92028,0.27235 1.90118,-0.21974 2.25,-1.12875 z"
       style="fill:#fefefe"
       inkscape:connector-curvature="0" />
    <path
       id="path4448"
       d="m 41.393045,153.47254 c 0.826984,-1.33808 -1.408259,-8.27124 -2.457564,-7.62273 -1.59617,0.98649 -1.158796,8.46658 0.495055,8.46658 0.792541,0 1.67567,-0.37973 1.962509,-0.84385 z"
       style="fill:#fefefe"
       inkscape:connector-curvature="0" />
    <path
       id="path4446"
       d="m 53.355048,149.70471 c 2.126022,-0.74997 4.2298,-1.13844 4.675064,-0.86325 1.594059,0.98518 5.84619,-1.83744 7.013547,-4.65569 1.500583,-3.62273 -0.06404,-5.86938 -4.087567,-5.86938 -2.111279,0 -12.814697,3.29265 -14.73744,4.53362 -0.148996,0.0962 0.526004,1.98463 1.5,4.19658 l 1.770901,4.02172 z"
       style="fill:#fefefe"
       inkscape:connector-curvature="0" />
    <path
       id="path4444"
       d="m 201.06488,130.24986 c 0.36253,-0.58659 0.44468,-1.281 0.18255,-1.54313 -0.26212,-0.26213 -0.74307,0.21781 -1.06875,1.06653 -0.67618,1.76211 -0.0999,2.07206 0.8862,0.4766 z"
       style="fill:#fefefe"
       inkscape:connector-curvature="0" />
    <path
       id="path4442"
       d="m 195.65608,129.56363 c -1.32625,-2.47812 -30.76067,-9.80057 -32.75213,-8.1478 -2.05519,1.70565 -1.67767,3.65954 1.05275,5.44858 1.89938,1.24452 2.88911,1.34999 4.51303,0.4809 1.6171,-0.86545 4.87408,-0.54741 14.63319,1.42893 14.92124,3.02172 13.707,2.94537 12.55316,0.78939 z"
       style="fill:#fefefe"
       inkscape:connector-curvature="0" />
    <path
       inkscape:transform-center-y="0.81293274"
       inkscape:transform-center-x="15.112367"
       id="path4438"
       d="m 271.48115,129.5441 c -0.79156,-0.89306 -1.17562,-2.14222 -0.85346,-2.77591 0.32217,-0.6337 -3.03496,-0.69282 -7.46028,-0.13139 -8.41228,1.06724 -12.01612,1.14389 -16.82758,0.35787 l -2.88319,-0.471 0.34914,3.16762 0.34914,3.16762 4.58659,0.1067 c 2.52261,0.0587 8.30612,-0.73035 12.85222,-1.75341 4.54611,-1.02306 8.95437,-1.45156 9.79614,-0.95223 1.16341,0.69014 1.18531,0.51844 0.0913,-0.71587 z"
       style="fill:#fefefe"
       inkscape:connector-curvature="0" />
    <path
       id="path4436"
       d="m 160.93402,122.68964 c 1.05635,-2.7528 -2.47388,-6.3333 -6.26867,-6.35794 -2.07427,-0.0135 -2.27542,0.31533 -1.6696,2.7291 0.37884,1.50942 1.15772,3.30942 1.73085,4 1.48648,1.79109 5.46906,1.55297 6.20742,-0.37116 z"
       style="fill:#fefefe"
       inkscape:connector-curvature="0" />
    <path
       id="path4434"
       d="m 185.16903,119.79843 c 0.32037,-0.83488 0.0295,-2.85302 -0.64639,-4.48475 -1.53362,-3.70248 -3.25469,-4.21144 -25.99888,-7.68839 -18.4472,-2.82006 -22.78118,-3.13513 -27.25,-1.98101 -4.2215,1.09024 -3.28222,2.34385 2.31223,3.08598 7.85441,1.04192 37.3613,8.4101 42.49938,10.61254 5.5176,2.36512 8.29741,2.50456 9.08366,0.45563 z"
       style="fill:#fefefe"
       inkscape:connector-curvature="0" />
    <path
       inkscape:transform-center-y="1.9478503"
       inkscape:transform-center-x="34.730559"
       id="path4426"
       d="m 243.13605,130.74673 c -0.88302,-3.20924 -6.04825,-4.26068 -8.59346,-1.74929 -2.42205,2.38987 -1.69013,3.64198 2.61836,4.47929 5.11787,0.99462 6.78974,0.23075 5.9751,-2.73 z"
       style="fill:#fefefe"
       inkscape:connector-curvature="0" />
    <path
       inkscape:transform-center-y="-19.073153"
       inkscape:transform-center-x="47.912796"
       id="path4422"
       d="m 248.95903,104.211 c -0.35834,-0.8193 -1.8793,-2.00783 -3.37989,-2.6412 -5.37512,-2.26869 -47.46572,13.25157 -44.39042,16.36828 0.35861,0.36344 2.24472,0.1086 4.19135,-0.56631 3.94443,-1.36757 35.7215,-8.25299 39.00138,-8.45078 2.78403,-0.1679 5.39098,-2.85025 4.57758,-4.70999 z"
       style="fill:#fefefe"
       inkscape:connector-curvature="0" />
    <path
       id="path4468"
       d="m 66.989553,188.38971 c 0,-0.50967 -0.7875,-1.11388 -1.75,-1.34269 -1.145463,-0.27231 0.557568,-1.52794 4.92989,-3.63477 8.24352,-3.9722 15.82011,-12.66987 15.82011,-18.16096 0,-2.33972 -1.797419,-0.57262 -2.863407,2.8151 -2.120297,6.73833 -9.412441,12.74806 -19.128751,15.76474 -2.245153,0.69706 -2.35492,0.60839 -1.107499,-0.89466 0.761562,-0.91763 1.152247,-1.90082 0.868189,-2.18488 -0.668368,-0.66837 -7.768532,3.50806 -7.768532,4.56957 0,0.44398 2.105162,1.52453 4.678139,2.40123 5.409044,1.84304 6.321861,1.9394 6.321861,0.66732 z"
       style="fill:#fe0000"
       inkscape:connector-curvature="0" />
    <path
       id="path4466"
       d="m 158.52376,153.47468 c 0,-0.46294 -1.6875,-1.37271 -3.75,-2.0217 -6.73833,-2.12029 -12.74806,-9.41244 -15.76474,-19.12875 -0.69707,-2.24515 -0.60839,-2.35492 0.89466,-1.1075 0.91762,0.76156 1.88492,1.16815 2.14954,0.90352 0.55555,-0.55555 -3.74448,-8.78322 -4.59685,-8.79561 -0.52218,-0.008 -3.93262,9.81767 -3.93262,11.32964 0,1.45146 1.87994,0.55025 2.26937,-1.08789 0.27231,-1.14546 1.52794,0.55757 3.63477,4.92989 2.11582,4.39096 4.70675,7.89919 7.56123,10.23822 5.4942,4.50207 11.53464,6.9844 11.53464,4.74018 z"
       style="fill:#fe0000"
       inkscape:connector-curvature="0" />
    <path
       id="path4416"
       d="m 129.61989,170.8791 c 8.88512,-1.90493 11.67095,-6.61443 8.05218,-13.61237 -1.95661,-3.78367 -2.62154,-3.8006 -1.19848,-0.0305 1.54559,4.09474 -0.48614,6.50311 -4.71897,5.59376 -1.68128,-0.36119 -5.09584,-0.88629 -7.58789,-1.1669 l -4.53101,-0.51018 -0.0807,5.58175 c -0.0925,6.39999 -0.21685,6.34879 10.06486,4.14445 z"
       style="fill:#0000fe"
       inkscape:connector-curvature="0" />
    <path
       id="path4414"
       d="m 61.699091,165.54415 c 5.72744,-4.47861 9.586137,-21.78923 5.719033,-25.65633 -2.00081,-2.00081 -3.074928,-2.05517 -1.429321,-0.0723 2.076443,2.50196 -0.633778,7.43506 -5.210538,9.48413 -4.835659,2.16499 -9.250087,7.75592 -7.648011,9.6863 0.607304,0.73173 1.708256,1.33044 2.44656,1.33044 1.718754,0 3.733892,3.72071 3.021127,5.57814 -0.725063,1.88948 0.399157,1.76247 3.10115,-0.35038 z"
       style="fill:#0000fe"
       inkscape:connector-curvature="0" />
    <path
       id="path4412"
       d="m 176.52376,130.42829 c 3.96359,-0.70759 3.22821,-1.53743 -2.23599,-2.52325 -2.18037,-0.39336 -4.60251,-0.21026 -5.81705,0.43974 -1.62233,0.86824 -2.61074,0.7667 -4.48391,-0.46064 -1.7425,-1.14173 -2.26416,-1.21302 -1.89822,-0.25941 0.58769,1.53151 6.20332,3.75129 9.00616,3.56002 1.06095,-0.0724 3.50401,-0.41281 5.42901,-0.75646 z"
       style="fill:#0000fe"
       inkscape:connector-curvature="0" />
    <path
       id="path4410"
       d="m 187.9724,124.53442 c 1.0494,-1.0494 0.54498,-5.32968 -0.97432,-8.26769 -1.95662,-3.78367 -2.62153,-3.8006 -1.19848,-0.0305 1.54274,4.08718 -0.48527,6.49755 -4.71896,5.60869 -4.07868,-0.85631 -11.31678,-1.62023 -10.05688,-1.06141 2.65801,1.17895 16.46497,4.23458 16.94864,3.75092 z"
       style="fill:#0000fe"
       inkscape:connector-curvature="0" />
    <path
       inkscape:transform-center-y="-15.287513"
       inkscape:transform-center-x="24.289448"
       id="path4408"
       d="m 253.44712,121.65233 c 3.67936,-13.13239 1.21963,-20.39747 -7.32652,-21.63962 -2.29196,-0.333127 -2.24838,-0.250332 0.56934,1.08166 3.98127,1.88203 4.37653,4.75641 1.04863,7.62585 -2.2807,1.96652 -2.96061,3.78872 -4.97978,13.34638 -0.79179,3.7479 -0.65425,4.38745 0.85431,3.97237 0.98894,-0.27211 3.25821,-0.12857 5.04283,0.31898 l 3.2448,0.81371 z"
       style="fill:#0000fe"
       inkscape:connector-curvature="0" />
    <path
       sodipodi:nodetypes="cccccccccccssscsscc"
       inkscape:connector-curvature="0"
       id="path4223"
       d="m 36.094549,125.25433 c -1.48402,0.54708 -0.64621,3.55638 -0.56471,6.12327 0.0721,2.11927 0.7246,34.1984 0.73242,72.74024 l 0.0156,71.75 -7.503896,0.32222 0,0.15042 16.769528,0 0,-0.10747 -6.265633,-0.36519 0,-22.5 0,-22.5 9.000003,0 c 5.33333,0 9,-0.40743 9,-1 0,-0.59299 -3.68289,-1 -9.04882,-1 l -9.048833,0 0.15234,-50.92969 c 0.0604,-20.19056 -0.0558,-38.00729 -0.27371,-46.62197 -0.0844,-3.33665 0.25645,-4.50297 -0.0972,-5.41102 -0.34985,-0.65612 -1.574709,-1.10972 -2.867089,-0.65081 z"
       style="fill:#000000" />
    <path
       style="fill:#000000"
       d="m 116.27163,125.25433 c -1.48401,0.54708 -0.64621,3.55638 -0.5647,6.12327 0.0721,2.11927 0.7246,34.1984 0.73241,72.74024 l 0.0156,71.75 -7.50389,0.32222 0,0.15042 16.76953,0 0,-0.10747 -6.26563,-0.36519 0,-22.5 0,-22.5 9,0 c 5.33333,0 9,-0.40743 9,-1 0,-0.59299 -3.68289,-1 -9.04883,-1 l -9.04882,0 0.15234,-50.92969 c 0.0604,-20.19056 -0.0558,-38.00729 -0.27371,-46.62197 -0.0844,-3.33665 0.25645,-4.50297 -0.0972,-5.41102 -0.34985,-0.65612 -1.57471,-1.10972 -2.86709,-0.65081 z"
       id="path4396"
       inkscape:connector-curvature="0"
       sodipodi:nodetypes="cccccccccccssscsscc" />
    <path
       sodipodi:nodetypes="cccccccccccssscsscc"
       inkscape:connector-curvature="0"
       id="path4398"
       d="m 196.51151,125.25433 c -1.48402,0.54708 -0.64621,3.55638 -0.56471,6.12327 0.0721,2.11927 0.7246,34.1984 0.73242,72.74024 l 0.0156,71.75 -7.5039,0.32222 0,0.15042 16.76954,0 0,-0.10747 -6.26563,-0.36519 0,-22.5 0,-22.5 9,0 c 5.33333,0 9,-0.40743 9,-1 0,-0.59299 -3.68289,-1 -9.04883,-1 l -9.04883,0 0.15235,-50.92969 c 0.0604,-20.19056 -0.0558,-38.00729 -0.27371,-46.62197 -0.0844,-3.33665 0.25645,-4.50297 -0.0972,-5.41102 -0.34985,-0.65612 -1.57471,-1.10972 -2.86709,-0.65081 z"
       style="fill:#000000" />
    <path
       style="fill:#000000"
       d="m 271.25443,125.25433 c -1.48402,0.54708 -0.64621,3.55638 -0.56471,6.12327 0.0721,2.11927 0.7246,34.1984 0.73242,72.74024 l 0.0156,71.75 -7.5039,0.32222 0,0.15042 16.76953,0 0,-0.10747 -6.26563,-0.36519 0,-22.5 0,-22.5 9,0 c 5.33333,0 9,-0.40743 9,-1 0,-0.59299 -3.68289,-1 -9.04882,-1 l -9.04883,0 0.15234,-50.92969 c 0.0604,-20.19056 -0.0558,-38.00729 -0.27371,-46.62197 -0.0844,-3.33665 0.25645,-4.50297 -0.0972,-5.41102 -0.34985,-0.65612 -1.5747,-1.10972 -2.86709,-0.65081 z"
       id="path4400"
       inkscape:connector-curvature="0"
       sodipodi:nodetypes="cccccccccccssscsscc" />
    <path
       id="path2989"
       d="m 607.78364,82.7811 c -1.26906,-0.0126 -2.57324,0.45899 -3.52148,1.60156 -1.03322,1.24495 -1.05677,1.98924 -0.11328,3.5 0.93108,1.4909 0.93108,2.34699 0,3.83789 -0.94349,1.51076 -0.91994,2.25504 0.11328,3.5 0.72175,0.86966 2.32805,1.58008 3.56836,1.58008 3.29661,0 5.20776,-2.63637 3.68164,-5.08008 -0.93108,-1.4909 -0.93108,-2.34699 0,-3.83789 1.68943,-2.7052 -0.93658,-5.07385 -3.72852,-5.10156 z m -8.98828,0.0195 c -1.5105,0 -5.46484,3.42883 -5.46484,4.73828 0,1.22656 0.27949,1.27465 1.5,0.26172 1.30013,-1.07901 1.5,-0.561 1.5,3.8789 0,3.88662 0.36189,5.1211 1.5,5.1211 1.19048,0 1.5,-1.44444 1.5,-7 0,-3.85 -0.24081,-7 -0.53516,-7 z m 20.03516,0 c -4.10351,0 -6.24872,9.1087 -2.92774,12.42968 0.86428,0.86429 2.18131,1.57032 2.92774,1.57032 2.5132,0 4.5,-3.09058 4.5,-7 0,-3.90942 -1.9868,-7 -4.5,-7 z m 9.29687,0.14453 c -2.17427,-0.0424 -3.34164,1.99328 -2.4082,4.42578 0.3614,0.9418 1.50514,1.44202 2.85742,1.25 1.65273,-0.23469 2.25391,-0.98758 2.25391,-2.82031 0,-1.83273 -0.60118,-2.58563 -2.25391,-2.82032 -0.15357,-0.0218 -0.30427,-0.0324 -0.44922,-0.0351 z m -20.29687,1.85547 c 0.825,0 1.5,0.64886 1.5,1.4414 0,1.67065 -1.42809,2.79848 -2.36133,1.86524 -1.19516,-1.19516 -0.6449,-3.30664 0.86133,-3.30664 z m 20.5,0 c 0.55,0 1,0.45 1,1 0,0.55 -0.45,1 -1,1 -0.55,0 -1,-0.45 -1,-1 0,-0.55 0.45,-1 1,-1 z m -9.5,0.5 c 0.55,0 1.14334,1.74783 1.31836,3.88281 0.33986,4.14575 -1.28553,7.16908 -2.35547,4.38086 -0.88013,-2.2936 -0.13108,-8.26367 1.03711,-8.26367 z m -10.99024,6.24414 c 0.55096,-0.0413 1.09782,0.45194 1.30078,1.50586 0.2108,1.0946 -0.28058,1.75 -1.31054,1.75 -0.96073,0 -1.51287,-0.64676 -1.32422,-1.55274 0.22613,-1.08605 0.78302,-1.66186 1.33398,-1.70312 z m 46.5534,4.387783 c -2.1551,0.0714 -5.13205,1.81137 -12.33008,6.499997 -3.16859,2.06395 -10.07068,6.41406 -15.33985,9.66797 -5.26917,3.25391 -11.3785,7.64231 -13.57421,9.75196 -2.19575,2.10966 -5.1917,4.09297 -6.65821,4.40625 -1.46652,0.31328 -7.53581,2.41209 -10.28581,2.99502 -2.75,0.58293 -3.875,0.6276 -9.375,2.84961 -8.0085,3.23545 -11.09339,5.10284 -15.49219,9.37305 -4.51776,4.38565 -5.30491,5.63201 -4.42969,7.01953 1.83084,2.90248 3.36784,2.61521 6.95117,-1.29688 2.84084,-3.10146 3.47071,-3.43147 3.47071,-1.8164 0,6.37255 6.38643,8.17386 13.85156,3.90625 2.39364,-1.36837 2.73649,-4.52121 3.1929,-4.52121 2.17671,0 7.1383,8.7118 8.95749,17.69308 1.09619,5.41187 2.73645,11.52735 3.64648,13.58985 0.23642,0.53579 0.49289,1.02185 0.75977,1.46093 0.62674,1.21601 1.21315,2.01293 2.04492,2.04688 1.08276,0.0442 2.62999,-0.50713 2.87305,-1.23633 0.24307,-0.7292 0.30974,-1.8118 -0.1543,-2.54101 -0.0171,-0.0269 -0.0553,-0.0546 -0.0859,-0.082 -0.16167,-0.32491 -0.35733,-0.64522 -0.6289,-0.94531 -1.10404,-1.21995 -2.06423,-6.13174 -3.14063,-16.05469 l -1.55078,-14.29882 2.86719,-2.32227 c 1.57721,-1.27698 2.33699,-2.62904 5.36199,-4.08682 9.99834,-4.8183 38.00516,-25.68276 43.00195,-32.03516 2.74161,-3.48539 2.25303,-7.286817 -1.18359,-9.207027 -0.95978,-0.53628 -1.77042,-0.84886 -2.75,-0.81641 z m -0.0293,0.83789 c 2.00424,-0.0335 4.48391,1.65378 4.75781,3.988287 0.32605,2.77895 -3.36039,8.3143 -4.90234,7.36132 -0.51959,-0.32112 -0.82104,-0.13767 -0.66992,0.40821 0.28242,1.02011 -12.15093,11.41428 -22.64063,18.92578 -5.88697,4.21557 -10.58398,5.48344 -10.58398,2.85742 0,-0.75566 3.54788,-3.70354 7.88476,-6.55078 4.33687,-2.84724 10.97124,-7.63566 14.74219,-10.64063 4.1652,-3.31915 7.44881,-5.23906 8.36523,-4.89062 1.17848,0.44808 1.24372,0.30757 0.30274,-0.64063 -0.94281,-0.95005 -2.43326,-0.25615 -6.85938,3.19141 -10.92087,8.50644 -23.93959,16.9043 -26.20703,16.9043 -2.67962,0 -3.69766,-1.99273 -2.81445,-5.51172 0.41687,-1.66095 2.67774,-3.77113 6.69531,-6.24805 7.75144,-4.77892 20.57893,-12.97055 24.16211,-15.42969 1.52429,-1.046107 3.18309,-1.645727 3.6875,-1.333977 0.50442,0.31174 1.3577,-0.21849 1.89453,-1.17773 0.46256,-0.82655 1.27453,-1.19769 2.18555,-1.2129 z m -114.98699,6.424717 c -1.1886,10e-4 -2.8019,0.52744 -4.50195,1.57812 -3.69762,2.28526 -9.90521,4.39657 -30.91406,10.51563 -12.67961,3.69308 -12.99334,3.7326 -21.37696,2.65039 -4.67973,-0.60407 -8.90085,-0.85524 -9.38086,-0.5586 -0.48001,0.29668 -0.87304,-0.64788 -0.87304,-2.09765 0,-3.20433 -4.95843,-8.48242 -7.96875,-8.48242 -1.87335,0 -3.87006,1.65318 -8.45703,7 -1.93262,2.25274 -2.97151,7.29909 -1.39454,6.77343 0.69632,-0.2321 1.5059,-1.44411 1.80078,-2.69336 l 0.53711,-2.26953 1.89649,2.09375 c 1.04301,1.15252 2.52857,2.09571 3.30078,2.09571 2.93403,0 0.007,1.93301 -6.9707,4.60156 -3.98391,1.52369 -8.59392,2.68026 -10.24414,2.57031 -4.02621,-0.26827 -6.43517,3.13861 -4.06836,5.75391 1.39326,1.53953 1.56836,9.6209 1.56836,72.40429 l 0,70.66993 -25,0 -25,0 0,-22.57032 0,-22.57226 12.25,0.15039 c 21.36337,0.26254 27.75,0.0306 27.75,-1.00781 0,-0.57085 -2.98511,-1 -6.95704,-1 l -6.95898,0 -2.43164,-4.25 c -1.33715,-2.3375 -2.96407,-5.93149 -3.61523,-7.98633 -0.65116,-2.05484 -1.55675,-3.96565 -2.01368,-4.24805 -1.16843,-0.72213 2.73054,9.31561 5.14063,13.23438 l 2,3.25 -2.4082,0 c -3.1814,0 -6.09011,-3.24718 -9.19141,-10.25977 -1.39615,-3.15695 -2.76406,-5.74023 -3.03906,-5.74023 -0.99549,0 4.62928,11.53689 6.69922,13.74023 l 2.12304,2.25977 -9.67383,0 -9.67382,0 0,-7.5 c 0,-6 -0.3,-7.5 -1.5,-7.5 -1.30108,0 -1.5,4.11111 -1.5,31 l 0,31 -57.5,0 -303.207031,0 c -14.446155,0 -17.109375,0.27246 -17.109375,0.27246 0,0 2.598374,0.27246 17.109375,0.27246 29.64016,0.006 310.791091,0.0153 343.207031,0.0137 68.94597,-0.003 129.40372,-0.0272 180.46484,-0.0586 l 0,-0.5 -22.49609,0 c -21.05801,0 -22.5684,-0.11967 -22.08594,-1.75 0.28483,-0.9625 2.09214,-9.625 4.01562,-19.25 1.92349,-9.625 5.5708,-27.4 8.10547,-39.5 6.56283,-31.32956 6.26545,-28.5 2.9961,-28.5 -2.57746,0 -2.72526,0.22577 -2.21485,3.37109 0.33332,2.05403 -0.90487,10.15736 -3.16992,20.75 l -3.7168,17.37891 -34.19921,0.26367 -34.19922,0.26367 0,-47.8418 0,-47.83984 12.2207,-3.62695 c 10.31623,-3.06166 12.45974,-3.4199 13.75,-2.29297 4.08068,3.56414 24.28196,2.24461 35.78711,-2.33789 2.88271,-1.14819 7.60469,-3.02708 10.49219,-4.17578 2.8875,-1.1487 5.7,-2.43537 6.25,-2.85938 0.55,-0.42401 3.1419,-1.57172 5.75976,-2.55078 4.47845,-1.6749 11.74024,-8.19129 11.74024,-10.53516 0,-1.04913 -0.76453,-1.57337 -1.95313,-1.57226 z m -0.29687,0.61328 c 4.14371,-0.0218 -3.24789,8.15865 -9.47657,10.48828 -2.62549,0.98197 -5.22343,2.13263 -5.77343,2.55664 -0.55,0.42401 -3.3625,1.71068 -6.25,2.85938 -2.8875,1.1487 -7.60846,3.02795 -10.49024,4.17578 -2.88179,1.14783 -9.06929,2.71486 -13.75,3.48242 -8.50009,1.39388 -10.4241,1.47305 -17.00976,0.69922 -3.68058,-0.43249 -6.70295,-2.26953 -3.73438,-2.26953 0.91565,0 2.16611,-0.93627 2.7793,-2.08203 0.89542,-1.6731 0.75468,-2.48963 -0.71485,-4.14258 -1.81444,-2.04093 -1.80089,-2.05225 1.66993,-1.46875 1.925,0.32362 6.01757,0.87966 9.09375,1.23633 5.09219,0.59042 5.55349,0.84644 5.16797,2.86328 -0.25036,1.30958 0.28907,2.80348 1.31835,3.65429 1.61906,1.33832 1.64292,1.28109 0.33789,-0.81445 -2.25902,-3.62746 -0.21065,-5.25135 10.61524,-8.42187 20.84567,-6.10497 29.06418,-8.88643 31.9668,-10.81641 1.65,-1.0971 3.5625,-1.996 4.25,-2 z m -70.54297,6.30078 c 0.49246,0.0634 0.89018,0.47243 1.46875,1.26367 0.72788,0.99543 1.32422,3.07426 1.32422,4.61914 0,3.52786 -3.14571,3.8663 -5.44336,0.58594 -2.08205,-2.97254 -1.96563,-4.04009 0.61914,-5.6543 0.95156,-0.59426 1.53878,-0.87785 2.03125,-0.81445 z m 3.61328,9.18555 c 0.84338,-0.0152 1.36113,0.25956 1.91797,0.8164 1.81614,1.81614 0.53559,4.68848 -2.09571,4.70118 -1.17865,0.006 -7.31757,1.5747 -13.64257,3.48828 -6.325,1.91358 -11.6464,3.48423 -11.82422,3.49023 -0.17783,0.006 -0.17783,-0.70711 0,-1.58398 0.30771,-1.5173 11.61998,-6.70826 21.77539,-9.99219 1.85639,-0.6003 3.02576,-0.90474 3.86914,-0.91992 z m 142.67449,1.71396 0,3.08789 c 0,2.24336 0.6155,3.35907 2.25,4.07617 1.2375,0.54292 2.25,1.53197 2.25,2.19922 0,0.66725 0.78626,1.65316 1.74804,2.1914 1.47616,0.8261 1.00244,1.29942 -3.04687,3.03516 -2.6383,1.13091 -3.80495,2.55684 -6.26433,4.24893 -2.45938,1.6921 -6.82455,3.69985 -9.70118,4.46094 -4.69195,1.2414 -5.35909,1.21427 -6.48046,-0.25391 -0.6875,-0.90012 -1.25,-2.15443 -1.25,-2.78906 0,-0.63464 -0.91192,-1.97866 -2.02539,-2.98633 -2.02041,-1.82845 -2.0179,-1.84019 1.25,-5.3457 3.0576,-3.27993 2.96161,-3.24323 -1.46875,0.54883 -3.04164,2.60342 -6.13734,4.28385 -8.625,4.68164 -2.91755,0.46654 -4.5859,1.54486 -6.72071,4.34375 -1.56168,2.04745 -3.64297,4.52578 -4.625,5.50781 -2.20936,2.20936 -3.66054,2.27213 -4.45898,0.19141 -1.19436,-3.11245 8.243,-10.71069 18.56445,-14.94532 5.16467,-2.11894 8.42717,-2.6701 9.3125,-2.7539 0.88534,-0.0838 5.09688,-1.90134 7.29688,-2.50977 2.2,-0.60844 2.30088,-0.49359 3.89714,-0.8251 1.59626,-0.33151 4.07126,-1.85334 5.5,-3.38281 z m -225.76238,3.7919 c -1.11234,0 -6.65152,2.48318 -12.3086,5.51757 l -10.28515,5.51758 -3.7461,-2.54297 c -4.51259,-3.06233 -5.42031,-3.26814 -16.89257,-3.8457 -17.30953,-0.87143 -62.5,9.47391 -62.5,14.30859 0,2.02939 2.52095,2.19737 10.33203,0.6836 13.85745,-2.68553 44.04097,-4.79834 53.16797,-3.7207 8.21035,0.9694 10.34549,1.47146 14.25195,3.34375 2.05903,0.98685 2.11769,1.22476 0.69141,2.80078 -1.38923,1.53514 -1.3986,2.10845 -0.0859,5.25 1.63214,3.90628 4.17653,5.6875 8.12304,5.6875 3.33353,0 7.51954,-4.14876 7.51954,-7.45313 0,-3.65902 1.65073,-3.1352 3,0.95313 0.63531,1.925 1.57078,3.5 2.07812,3.5 1.22928,0 1.19109,-0.26817 -0.74023,-5.22852 -2.08758,-5.36169 -2.01522,-5.28469 -3.68555,-3.89844 -1.08425,0.89985 -2.29145,0.6481 -5.41992,-1.1289 l -4.02539,-2.28516 8.62109,-6.12109 8.61914,-6.11914 1.76172,5.64062 c 1.54075,4.93409 1.76249,10.0597 1.77539,40.89063 0.0127,30.29846 0.2222,35.25 1.48242,35.25 1.1797,0 1.52162,-2.10042 1.75,-10.75 l 0.28321,-10.75 4.44336,10.72461 c 2.44337,5.8983 4.61857,10.54744 4.83398,10.33203 0.21541,-0.21541 -1.6349,-5.26477 -4.11133,-11.22266 -2.47643,-5.95788 -4.80251,-11.86838 -5.16797,-13.13281 -1.3307,-4.60398 4.5507,-9.46714 7.19727,-5.95117 0.5175,0.6875 2.68655,7.1985 4.82031,14.46875 2.13376,7.27025 4.05792,13.04169 4.27539,12.82422 0.21747,-0.21747 -1.45772,-6.61597 -3.72265,-14.21875 -4.09649,-13.75089 -4.11155,-13.87331 -3.14649,-23.13477 0.53357,-5.1206 0.7199,-9.9581 0.41602,-10.75 -0.37691,-0.98222 0.14298,-1.43945 1.63281,-1.43945 2.79341,0 8.0293,-5.19675 8.0293,-7.96875 0,-1.88087 -1.13887,-3.26612 -7.00782,-8.52149 -2.0878,-1.86954 -6.99218,-3.0173 -6.99218,-1.63672 0,0.59915 1.15134,1.37924 2.55859,1.73243 2.54454,0.63864 2.54767,0.65241 0.62695,2.76757 -1.06225,1.16978 -2.13561,2.79303 -2.38476,3.60547 -0.83325,2.7171 -6.79883,-14.7363 -6.14844,-17.98828 0.69376,-3.46876 -0.95622,-5.99023 -3.91992,-5.99023 z m -1.00586,1.10156 c 0.29612,-0.01 0.63603,-7e-4 1.02344,0.0156 1.84045,0.0776 2.14378,0.27134 0.91796,0.58789 -1.58474,0.40929 -1.74066,1.13566 -1.15624,5.38477 0.84158,6.11909 0.0937,6.37126 -1.39258,0.46875 -1.36645,-5.42667 -1.46541,-6.389 0.60742,-6.45703 z m -3.31445,1.875 c 1.53505,0.009 -1.76641,3.20018 -9.70899,8.94141 -9.90337,7.15857 -13.25141,8.42617 -14.39453,5.44726 -0.91552,-2.3858 0.9563,-4.73386 4.32031,-5.42187 1.61562,-0.33043 6.90488,-2.76501 11.75391,-5.40821 4.44706,-2.42409 7.10827,-3.56382 8.0293,-3.55859 z m 55.97265,2.34961 c 0.27211,-0.0721 0.67596,0.38823 0.96094,1.13086 0.67618,1.76211 0.0993,2.07202 -0.88672,0.47656 -0.36253,-0.58659 -0.44572,-1.28084 -0.18359,-1.54297 0.0328,-0.0328 0.0705,-0.0541 0.10937,-0.0644 z m -102.33203,0.31445 c 1.05692,0.0153 1.56394,0.17292 1.35938,0.50391 -0.29113,0.47106 -0.0532,0.85547 0.52929,0.85547 1.5036,0 1.31475,4.54184 -0.24218,5.83398 -0.71493,0.59333 -9.60244,1.78484 -19.75,2.64649 -10.14759,0.86164 -21.83509,2.23059 -25.97266,3.04296 -4.13756,0.81237 -8.07506,1.47657 -8.75,1.47657 -2.65718,0 -0.97407,-1.70761 4.16992,-4.23047 6.8505,-3.3598 41.2578,-10.23592 48.65625,-10.12891 z m 10.625,0.35938 c 5.49266,0 8.43969,0.53029 11.42773,2.05468 l 4.02735,2.05469 -2.56641,2.01758 c -1.41137,1.11019 -2.5664,2.66023 -2.5664,3.44531 0,1.55658 -1.16361,1.65637 -5,0.42774 -1.375,-0.44035 -4.37546,-0.84559 -6.66797,-0.90039 -5.8086,-0.13891 -7.6948,-0.9583 -6.24024,-2.71094 0.6288,-0.75761 0.92752,-2.50465 0.66407,-3.88281 -0.47633,-2.49175 -0.43801,-2.50586 6.92187,-2.50586 z m 43.82227,6.61133 2.80859,7.44531 c 1.54474,4.09438 3.65486,9.5756 4.68945,12.18164 1.8601,4.68529 1.86148,6.20512 0.0195,22.41797 -0.01,0.086 -0.9327,-0.0826 -2.05078,-0.375 -1.18943,-0.31104 -2.85648,0.21482 -4.01757,1.26562 -1.97137,1.78406 -1.98237,1.69696 -1.86133,-13.125 0.0756,-9.25803 0.43941,-14.09024 0.96093,-12.73242 0.46223,1.20358 0.64191,3.28629 0.39844,4.62891 -0.25237,1.39177 0.1775,2.95605 1,3.63867 1.87668,1.55751 5.78282,0.96391 6.30078,-0.95703 0.32265,-1.19657 0.21408,-1.22905 -0.53515,-0.16211 -0.51657,0.73562 -2.01338,1.18349 -3.32617,0.99609 -1.86206,-0.26581 -2.32803,-0.87371 -2.11719,-2.76758 0.14865,-1.33524 -0.43834,-4.56158 -1.30469,-7.16992 -0.88479,-2.66385 -1.4408,-7.05295 -1.26953,-10.01367 l 0.30469,-5.27148 z m -26.67578,7.43164 c 0.13801,-0.006 0.27273,-0.003 0.40429,0.01 2.31547,0.23324 3.55098,3.42805 1.06641,6.75586 -2.75662,3.69221 -3.92019,3.70765 -5.1875,0.0723 -0.92782,-2.66153 -0.83359,-3.52384 0.54297,-5.04493 1.09466,-1.20958 2.20767,-1.74808 3.17383,-1.79296 z m 238.88476,0.0723 c 0.93148,0.0429 1.29641,0.36157 1.30078,1.00391 0.005,0.75946 0.65588,7.16871 1.44531,14.24219 1.00097,8.96879 1.93539,13.41399 3.08789,14.6875 0.0977,0.10789 0.16948,0.22654 0.25586,0.33984 -1.11733,-0.27295 -2.61217,-0.39874 -3.4414,-0.0508 -1.03841,-2.6434 -2.11799,-6.68381 -3.23242,-12.16602 -1.2323,-6.06195 -2.97549,-11.55789 -4.22071,-13.30664 -2.4797,-3.48242 -2.32925,-3.75981 2.47266,-4.53906 1.01145,-0.16414 1.77314,-0.23666 2.33203,-0.21094 z m -13.24476,-0.0167 c 0.85099,0.002 1.7276,0.12606 1.36405,1.07345 -0.51669,1.34648 -6.82827,5.29761 -6.82827,4.24207 0,-0.29937 0.4658,-1.41468 1.03515,-2.47852 0.6657,-1.24388 3.33495,-2.83929 4.42907,-2.837 z m -187.49743,5.90146 c 2.39239,0 5.67116,3.76243 4.39258,5.04101 -0.5466,0.5466 -2.38803,1.39417 -4.0918,1.88282 -2.8031,0.80392 -3.15844,0.6503 -3.72656,-1.61329 -0.71435,-2.84619 0.87529,-5.31054 3.42578,-5.31054 z m 41.03321,80 34.10937,0 34.10742,0 -0.69336,2.75 c -0.67429,2.6774 -8.52343,41.29038 -8.52343,41.92968 0,0.17637 -13.275,0.32032 -29.5,0.32032 l -29.5,0 0,-22.5 z"
       style="fill:#000000"
       inkscape:connector-curvature="0"
       sodipodi:nodetypes="ssssssssssssssssssssscssscccssssssssssssscsscccsssssssssssssccscccccccssscccsscssssssssssscsccssscsssscccscsssccccccssccssccsssccccssscccccsccssssssccccccssssssscccssssssssssscsssscsssssscscssssccssssssssssssssssssssccscccsssssccsssssscccccsscccssssssssssssssssssscccsscccssssccssscccssssssscscccssccssccscccscssssssscccccsssccccscccssscccssscsssssccccssccc" />
    <path
       id="path2997-0"
       d="m 662.44857,172.84225 c -2.05897,0 -2.46485,0.48197 -2.46485,2.92969 0,2.82917 0.11257,2.89813 3.24414,2 1.78387,-0.5116 3.37468,-0.92969 3.53516,-0.92969 0.16048,0 -0.1906,-0.9 -0.7793,-2 -0.62592,-1.16955 -2.09379,-2 -3.53515,-2 z m 7.68164,4.24805 c -0.34846,-0.006 -0.71395,0.0267 -1.08985,0.10352 -6.47731,1.32317 -30.302,7.56175 -30.80664,8.0664 -0.31107,0.31107 -1.16342,0.0677 -1.89453,-0.53906 -0.7311,-0.60676 -2.12228,-0.77838 -3.09179,-0.38281 -1.58125,0.64517 -1.59625,0.78482 -0.14258,1.36133 1.60963,0.63834 15.73276,18.13325 17.88476,22.15429 0.61841,1.1555 2.10901,2.49636 3.31055,2.98047 2.87561,1.15861 2.90297,1.1567 4.93359,-0.38476 2.7138,-2.06006 2.09791,-4.56234 -1.5,-6.09375 -1.7875,-0.76083 -6.98001,-5.15107 -11.53906,-9.75782 l -8.28906,-8.37695 14.28906,-2.125 c 7.85905,-1.16937 15.68738,-1.8886 17.39649,-1.59766 2.33889,0.39816 3.27098,0.10268 3.76757,-1.1914 0.85549,-2.22937 -0.78931,-4.17617 -3.22851,-4.2168 z m 30.49414,7.26172 c -1.56893,0.0856 -2.54933,0.81059 -3.08594,2.20898 -1.16069,3.02471 0.60071,4.86647 13.65235,14.28125 7.24336,5.225 15.89648,12.07837 19.23046,15.23047 7.93315,7.50037 9.56288,7.43596 5.78711,-0.23047 -2.53554,-5.14821 -28.10844,-29.81992 -32.09375,-30.96289 -1.39533,-0.40017 -2.54888,-0.57871 -3.49023,-0.52734 z m -68.90625,5.83984 c -0.31442,-0.0727 -1.12348,0.57215 -2.48438,1.8418 -5.1608,4.81478 -17.58116,13.04313 -21.91992,14.52148 -4.67087,1.59153 -5.8079,4.32701 -2.58008,6.20704 0.9625,0.56061 2.0961,1.03212 2.51954,1.04882 1.5072,0.0595 8.28613,-4.80923 11.73046,-8.42578 1.925,-2.02126 5.01464,-4.61414 6.86524,-5.76172 1.8506,-1.14757 3.9881,-3.57886 4.75,-5.40234 1.11038,-2.65752 1.52339,-3.93586 1.11914,-4.0293 z m 23.92383,4.9375 c -0.92037,0.0141 -1.78552,0.69579 -2.39844,2.04102 -0.87807,1.92716 -0.76955,2.73436 0.54492,4.04883 1.88796,1.88796 3.10997,1.70699 4.61914,-0.68555 0.75913,-1.20341 0.74939,-2.19563 -0.0352,-3.44141 -0.83321,-1.32309 -1.8101,-1.97698 -2.73047,-1.96289 z m -41.15821,3.71289 c -1.68708,0 -5.5,3.46629 -5.5,5 0,1.55559 1.48924,1.19 4.36524,-1.07226 2.93848,-2.31141 3.40534,-3.92774 1.13476,-3.92774 z m -32.46484,20.05274 c -1.39348,0.0475 -2.95768,0.34028 -4.63672,0.88086 -1.59457,0.51338 -7.28594,1.90026 -12.64844,3.08203 -8.48212,1.86926 -9.75,2.4171 -9.75,4.20898 0,2.00219 0.37013,2.04504 13.25,1.53907 9.9011,-0.38895 14.1978,-0.97821 17,-2.32813 4.17195,-2.00979 4.51711,-2.93181 2.09571,-5.60742 -1.13587,-1.25512 -2.98808,-1.85454 -5.31055,-1.77539 z m -31.14258,6.0918 c -0.29882,-1.2e-4 -0.67384,0.064 -1.14258,0.17578 -1.2375,0.29515 -4.3875,0.84378 -7,1.2207 -5.71962,0.8252 -6.05384,1.91358 -1,3.25586 7.0454,1.87123 10.25,1.08351 10.25,-2.52149 0,-1.55729 -0.21094,-2.13052 -1.10742,-2.13085 z m 113.54883,5.85546 c -0.64716,0 -9.22337,4.24165 -19.05859,9.42579 -9.83523,5.18413 -19.12032,9.73194 -20.63282,10.10742 -1.79019,0.44443 -2.75,1.34283 -2.75,2.57422 0,2.83307 3.59766,2.40141 12.10938,-1.45704 4.06496,-1.84268 13.37242,-5.55467 20.68359,-8.24804 11.2565,-4.1468 13.38662,-5.26541 13.89844,-7.30469 0.60907,-2.42669 -1.6178,-5.09766 -4.25,-5.09766 z m -46.88281,21 c -0.85746,0 -1.5586,0.45 -1.5586,1 0,0.55 0.42387,1 0.94141,1 0.51754,0 1.21867,-0.45 1.55859,-1 0.33992,-0.55 -0.0839,-1 -0.9414,-1 z"
       style="fill:#fefefe"
       inkscape:connector-curvature="0"
       sodipodi:nodetypes="ssssssccssscsssscccssccsssssccssscsssccssccccssssssssssssccssscsssssssssssss" />
    <path
       sodipodi:nodetypes="sssssssssssssssssscssssscscc"
       inkscape:connector-curvature="0"
       style="fill:#0000fe"
       id="path2991-6"
       d="m 669.43813,235.17308 c 0.036,-2.23146 -0.6355,-3.14844 -3.17158,-4.33084 -1.7695,-0.825 -3.67584,-2.625 -4.23632,-4 -0.56048,-1.375 -2.60021,-4.68664 -4.53273,-7.35919 -3.74989,-5.18587 -4.58172,-8.26464 -1.96127,-7.25908 1.89966,0.72897 6.4476,-2.0902 6.4476,-3.99674 0,-4.97645 5.50951,3.40622 8.02881,12.21575 2.28406,7.98696 2.51049,13.27946 0.67549,15.78897 -1.17158,1.60224 -1.29132,1.50081 -1.25,-1.05887 z m -81.2043,-9.41094 c 2.30563,-1.34291 2.21282,-3.19108 -0.27323,-5.44092 -2.00803,-1.81724 -1.99019,-1.85033 2.37352,-4.40499 2.4182,-1.41569 5.90925,-3.5783 7.75788,-4.8058 3.31449,-2.20083 3.37136,-2.20419 4.09727,-0.24187 1.22811,3.31989 5.0874,4.48314 8.17082,2.4628 3.06462,-2.00801 3.27436,-1.39911 0.90163,2.6176 -1.3511,2.28723 -3.92014,3.77469 -11.92464,6.90429 -9.7063,3.79497 -15.01032,5.18455 -11.10325,2.90889 z m 104.98932,-35.95501 c -1.24337,-0.49959 -5.96837,-1.62702 -10.5,-2.5054 -11.53073,-2.23504 -11.08662,-1.99981 -9.2031,-4.87442 1.25049,-1.90849 1.36108,-2.90845 0.49967,-4.51801 -0.92709,-1.73228 -0.81713,-2.06297 0.67893,-2.04183 2.51949,0.0356 28.38738,6.735 29.15305,7.55021 0.34767,0.37016 -0.35735,0.36909 -1.56672,-0.002 -2.80431,-0.86135 -6.71344,2.74231 -5.98722,5.51937 0.55124,2.10796 0.22838,2.19958 -3.07461,0.87244 z" />
    <path
       id="path2989-0"
       d="m 553.48372,126.8403 c -1.97664,0 -1.99654,0.56579 -1.69726,48.44531 l 0.30273,48.44532 -3.80273,0.66992 c -9.40403,1.65259 -10.80274,2.09683 -10.80274,3.4414 0,1.83184 8.15333,4.2174 11.75,3.4375 l 2.75,-0.5957 0,22.57813 0,22.58007 -26.0664,0 c -0.35507,0 -0.49045,-0.002 -0.83594,-0.002 l 0,0.48242 c 104.88133,-0.0409 178.7331,-0.1194 153.08789,-0.23047 -57.73958,-0.25006 -61.28613,-0.36712 -60.82617,-2.00781 0.26865,-0.95826 1.26234,-5.45469 2.20898,-9.99219 1.67677,-8.0373 1.79665,-8.25 4.61719,-8.25 1.59235,0 4.76072,-0.95286 7.04297,-2.11718 2.28224,-1.16431 11.82761,-4.99708 21.21094,-8.51758 10.0745,-3.77981 17.77714,-7.25824 18.81054,-8.49414 0.9633,-1.15207 1.75,-3.7294 1.75,-5.73438 0,-5.67464 -3.68161,-17.16646 -6.96484,-21.73828 -2.94625,-4.10258 -2.95681,-4.16019 -1.00586,-5.92578 1.08361,-0.98065 1.9707,-2.56111 1.9707,-3.51172 0,-1.99183 3.13565,-3.12261 5.13868,-1.85351 1.68956,1.07048 3.86132,1.14731 3.86132,0.13672 0,-1.1849 -5.83169,-3.46592 -7.00586,-2.74024 -0.57925,0.358 -2.63084,-0.73319 -4.55859,-2.42578 -5.28452,-4.63987 -7.97912,-3.9028 -11.58984,3.17383 l -1.4043,2.75195 -5.93945,-6.00195 c -3.26677,-3.30122 -5.60752,-6.00196 -5.20313,-6.00196 0.40438,0 6.41311,-0.91197 13.35352,-2.02539 12.50007,-2.00532 15.4431,-1.91951 18.34765,0.52539 0.825,0.69444 4.54303,1.77944 8.26172,2.41211 13.10211,2.22913 17.61166,4.26479 30.73828,13.87305 6.875,5.03227 15.5558,11.93455 19.29102,15.33984 4.81039,4.3855 7.10385,5.88052 7.85937,5.125 2.65952,-2.65952 -1.23956,-8.21616 -15.75585,-22.45703 -7.94008,-7.78944 -15.89025,-15.14194 -17.66602,-16.33984 -1.77577,-1.19791 -9.30352,-3.64878 -16.72852,-5.44531 -12.65788,-3.06266 -16.53681,-4.89934 -15.69336,-7.42969 0.18364,-0.55092 2.00869,-1.05976 4.05469,-1.13086 3.61167,-0.12542 6.61979,-1.80014 5.40821,-3.01172 -0.32873,-0.32873 -1.49949,-0.1152 -2.60157,0.47461 -1.10208,0.58982 -3.39091,0.79604 -5.08593,0.45703 -1.69502,-0.339 -3.08204,-0.21959 -3.08204,0.26563 0,0.4852 -2.03527,0.71937 -4.52343,0.52148 -5.84614,-0.46496 -7.47657,0.93715 -7.47657,6.42969 0,4.17237 -0.14402,4.37603 -3.75,5.32226 -10.55469,2.76962 -17.61649,4.03977 -19.64257,3.53125 -2.97062,-0.74557 -4.99723,1.74515 -4.31641,5.30665 0.75705,3.96023 -1.53564,8.62479 -5.42578,11.0371 -1.8506,1.14758 -4.94024,3.74046 -6.86524,5.76172 -1.925,2.02125 -5.24933,4.79487 -7.38672,6.16407 -3.21023,2.05646 -4.29727,2.30183 -6.25,1.41211 -3.89122,-1.77297 -2.99345,-4.71559 1.95118,-6.4004 4.39319,-1.4969 20.10293,-12.07882 22.73632,-15.31445 0.79719,-0.97949 -1.14911,0.24939 -4.32617,2.73047 -4.60418,3.59557 -6.38039,4.42229 -8.75195,4.07422 -3.59413,-0.52751 -7.71708,1.92559 -8.50391,5.06055 -0.37164,1.48073 -2.10563,2.88439 -5.0957,4.12109 -2.4932,1.0312 -5.73496,2.87676 -7.20312,4.10156 -3.92624,3.27544 -9.13577,5.77086 -13.66993,6.55078 -2.2,0.37842 -9.12335,1.87356 -15.38476,3.32227 -6.26141,1.44872 -11.5725,2.63476 -11.80274,2.63476 -0.23023,0 -0.28188,-21.82474 -0.11523,-48.5 0.29948,-47.9348 0.2794,-48.50195 -1.69727,-48.50195 z m 108.96485,46.00195 c 1.44136,0 2.90923,0.83045 3.53515,2 0.5887,1.1 0.93978,2 0.7793,2 -0.16048,0 -1.75129,0.41809 -3.53516,0.92969 -3.13157,0.89813 -3.24414,0.82917 -3.24414,-2 0,-2.44772 0.40588,-2.92969 2.46485,-2.92969 z m 12.25,3.02539 c 2.51949,0.0356 28.38667,6.73362 29.15234,7.54883 0.34767,0.37052 -0.35703,0.36955 -1.56641,-0.002 -2.8043,-0.86135 -6.71254,2.74247 -5.98632,5.51953 0.55125,2.10796 0.22877,2.20019 -3.07422,0.87305 -1.24337,-0.49959 -5.96837,-1.62748 -10.5,-2.50586 -11.53073,-2.23504 -11.08665,-2.00039 -9.20313,-4.875 1.25049,-1.90849 1.36141,-2.90802 0.5,-4.51758 -0.92709,-1.73228 -0.81832,-2.06211 0.67774,-2.04102 z m -4.56836,1.22266 c 2.4392,0.0406 4.084,1.98743 3.22851,4.2168 -0.49659,1.29408 -1.42868,1.58956 -3.76757,1.1914 -1.70911,-0.29094 -9.53744,0.42829 -17.39649,1.59766 l -14.28906,2.125 8.28906,8.37695 c 4.55905,4.60675 9.75156,8.99699 11.53906,9.75782 3.59791,1.53141 4.2138,4.03369 1.5,6.09375 -2.03062,1.54146 -2.05798,1.54337 -4.93359,0.38476 -1.20154,-0.48411 -2.69214,-1.82497 -3.31055,-2.98047 -2.152,-4.02104 -16.27513,-21.51595 -17.88476,-22.15429 -1.45367,-0.57651 -1.43867,-0.71616 0.14258,-1.36133 0.96951,-0.39557 2.36069,-0.22395 3.09179,0.38281 0.73111,0.60672 1.58346,0.84818 1.89453,0.53711 0.50464,-0.50465 24.32933,-6.74128 30.80664,-8.06445 0.3759,-0.0768 0.74139,-0.10932 1.08985,-0.10352 z m 30.80273,7.08203 c 3.51461,-0.152 8.52521,3.68939 19.99024,14.9043 12.25513,11.98777 16.95995,17.93013 17.03515,21.51562 0.0457,2.17779 -1.31798,1.36032 -7.53711,-4.51953 -3.33398,-3.1521 -11.9871,-10.00547 -19.23046,-15.23047 -7.24338,-5.225 -13.41332,-10.22436 -13.71094,-11.10937 -0.69468,-2.0658 0.27569,-4.58909 2.02344,-5.25977 0.45554,-0.1748 0.92759,-0.27906 1.42968,-0.30078 z m -64.98242,5.86719 c 0.77262,0.29906 10.58065,12.60329 14.61914,18.33984 1.14701,1.62929 2.37308,4.12004 2.72461,5.53516 0.35154,1.41513 2.20226,4.62027 4.11328,7.12305 6.69012,8.76179 7.04696,8.23939 -12.60742,18.51757 -9.52355,4.98033 -18.32891,9.36261 -19.56641,9.73829 -2.81837,0.85558 -2.83739,0.18327 -0.3164,-11.21094 1.06348,-4.80667 3.12115,-14.59024 4.57226,-21.74024 4.30042,-21.18938 5.63529,-26.62231 6.46094,-26.30273 z m 19.69141,5.08984 c 0.92037,-0.0141 1.89726,0.63982 2.73047,1.96289 0.7845,1.24578 0.7942,2.23605 0.0352,3.43946 -1.50917,2.39254 -2.73118,2.57546 -4.61914,0.6875 -1.31447,-1.31447 -1.42299,-2.12167 -0.54492,-4.04883 0.61292,-1.34521 1.47806,-2.02692 2.39844,-2.04102 z m -25.56055,2.47461 -0.64844,2.86914 c -0.35707,1.57798 -1.07184,4.55664 -1.58789,6.61914 -0.51604,2.0625 -1.03409,3.74238 -1.15039,3.73438 -1.35253,-0.098 -2.21762,-2.19123 -2.20312,-5.32422 0.014,-3.03679 0.59832,-4.26334 2.80273,-5.86914 z m -15.59766,1.23828 c 2.27058,0 1.80372,1.61633 -1.13476,3.92774 -2.876,2.26226 -4.36524,2.62785 -4.36524,1.07226 0,-1.53371 3.81292,-5 5.5,-5 z m 48.0586,8.07227 c 0.612,-0.0368 1.71192,1.07299 3.2207,3.28906 2.70447,3.97229 6.2207,15.66918 6.2207,20.69336 0,1.95913 -0.58228,4.35941 -1.29492,5.33399 -1.1716,1.60224 -1.2913,1.50108 -1.25,-1.0586 0.036,-2.23146 -0.6358,-3.14768 -3.17187,-4.33008 -1.76951,-0.825 -3.67585,-2.625 -4.23633,-4 -0.56048,-1.375 -2.60068,-4.68682 -4.5332,-7.35937 -3.74989,-5.18587 -4.58139,-8.26533 -1.96094,-7.25977 1.89966,0.72897 6.44726,-2.08955 6.44726,-3.99609 0,-0.85632 0.19139,-1.29041 0.5586,-1.3125 z m -61.43164,2.51367 c 0.51927,-0.0306 0.71517,0.45831 1.07812,1.43945 1.22811,3.31989 5.08847,4.48324 8.17188,2.4629 3.06463,-2.00801 3.27312,-1.39757 0.90039,2.61914 -1.3511,2.28723 -3.91933,3.77469 -11.92383,6.90429 -9.7063,3.79497 -15.01059,5.18387 -11.10352,2.90821 2.30563,-1.34291 2.21262,-3.19157 -0.27343,-5.44141 -2.00803,-1.81724 -1.99067,-1.84964 2.37304,-4.4043 2.4182,-1.41569 5.91114,-3.57914 7.75977,-4.80664 1.65724,-1.10041 2.49832,-1.65098 3.01758,-1.68164 z m 20.78906,1.85547 c 0.20548,0.006 0.41534,0.0388 0.61719,0.10156 0.80737,0.25098 2.09498,0.65074 2.86328,0.88672 1.17848,0.36196 1.1294,1.65202 -0.31445,8.25 l -1.71094,7.82031 -34.18555,0.16211 c -32.51414,0.15348 -34.18555,0.0719 -34.18555,-1.66796 0,-1.50038 1.75304,-2.21618 9.75,-3.97852 5.3625,-1.18177 11.05582,-2.56865 12.65039,-3.08203 4.47743,-1.44153 8.12793,-1.11366 9.94532,0.89453 2.36735,2.6159 2.07811,3.59738 -1.59571,5.42578 l -3.25,1.61719 3.32618,0.0645 c 1.82895,0.0352 7.99473,-1.76228 13.70312,-3.99414 8.72901,-3.41288 10.71672,-4.60512 12.50586,-7.5 1.62188,-2.62426 2.80823,-3.44141 4.98828,-3.44141 1.57269,0 3.12414,-0.43105 3.44922,-0.95703 0.2438,-0.3945 0.82691,-0.61951 1.44336,-0.60156 z m -71.02344,13.70313 c 0.89647,3.3e-4 1.10742,0.57357 1.10742,2.13085 0,1.73875 -0.67997,2.673 -2.25,3.09376 -2.72368,0.72991 -3.23412,0.69353 -8,-0.57227 -5.05384,-1.34228 -4.71962,-2.43066 1,-3.25586 2.6125,-0.37692 5.7625,-0.92555 7,-1.2207 0.46873,-0.1118 0.84376,-0.1759 1.14258,-0.17578 z m 4.10742,5.85546 33.44141,0 c 18.39254,0 33.67605,0.37963 33.96289,0.84375 0.28684,0.46411 0.11998,2.37661 -0.36914,4.25 -0.48912,1.87338 -1.40395,5.99375 -2.0332,9.15625 -0.72534,3.64542 -1.64506,5.75 -2.51368,5.75 -2.21901,0 -2.92982,2.2031 -1.13476,3.51563 1.53856,1.12502 1.5131,1.91556 -0.34766,10.95898 -1.10292,5.36028 -2.00586,9.92031 -2.00586,10.13477 0,0.21446 -13.275,0.39062 -29.5,0.39062 l -29.5,0 0,-22.5 z m 109.44141,0 c 2.6322,0 4.85907,2.67102 4.25,5.09766 -0.51182,2.03928 -2.64194,3.15789 -13.89844,7.30469 -7.31117,2.69337 -16.61863,6.40537 -20.68359,8.24804 -8.51172,3.85845 -12.10938,4.29011 -12.10938,1.45704 0,-1.23139 0.95981,-2.12979 2.75,-2.57422 1.5125,-0.37548 10.79759,-4.92329 20.63282,-10.10742 9.83522,-5.18414 18.41143,-9.42579 19.05859,-9.42579 z m -46.88281,21 c 0.85748,0 1.28132,0.45 0.9414,1 -0.33992,0.55 -1.04105,1 -1.55859,1 -0.51754,0 -0.94141,-0.45 -0.94141,-1 0,-0.55 0.70114,-1 1.5586,-1 z"
       style="fill:#000000"
       inkscape:connector-curvature="0"
       sodipodi:nodetypes="csccsccccsccsssssssssssssssccsssssssssssscssssssssssssssssssssssssccsssssscccsssssccssscccsssscscscscscsscccssssssssscccssccccsccccsssscsssssssssccsssssssscccscccsssscccsssccccsssscccssssscssscccscsssssssssss" />
    <path
       sodipodi:nodetypes="cscssssssssssscssccsssssssccsssssscsssscsccsssccccsssscccssscccccsccssssssssccssssssccssscccssssssscccssscssssscsscsssccsccssccsc"
       id="path2997"
       d="m 654.36438,96.770443 c -0.91102,0.0152 -1.72299,0.38636 -2.18555,1.2129 -0.53683,0.95926 -1.39011,1.48947 -1.89453,1.17773 -0.50441,-0.31175 -2.16321,0.28787 -3.6875,1.333977 -3.58318,2.45914 -16.41067,10.65077 -24.16211,15.42969 -4.01757,2.47692 -6.27844,4.5871 -6.69531,6.24805 -0.88321,3.51899 0.13483,5.51172 2.81445,5.51172 2.26744,0 15.28616,-8.39786 26.20703,-16.9043 4.42612,-3.44757 5.91657,-4.14146 6.85938,-3.19141 0.94098,0.9482 0.87574,1.08871 -0.30274,0.64063 -0.91642,-0.34844 -4.20003,1.57147 -8.36523,4.89062 -3.77095,3.00497 -10.40532,7.79339 -14.74219,10.64063 -4.33688,2.84724 -7.88476,5.79512 -7.88476,6.55078 0,2.62602 4.69701,1.35815 10.58398,-2.85742 10.4897,-7.5115 22.92305,-17.90567 22.64063,-18.92578 -0.15112,-0.54588 0.15033,-0.72933 0.66992,-0.40821 1.54195,0.95298 5.22839,-4.58237 4.90234,-7.36132 -0.2739,-2.334507 -2.75357,-4.021747 -4.75781,-3.988287 z M 539.5102,103.85336 c -0.90097,-0.0613 -2.52631,0.61792 -4.79101,2.01758 -3.51606,2.17305 -10.34954,4.49193 -29.38867,9.97266 -6.325,1.82075 -12.0625,3.73532 -12.75,4.25586 -1.58434,1.19959 -1.61006,3.94268 -0.0508,5.50195 2.85952,2.85953 11.60209,0.35836 32.30078,-9.24024 2.75,-1.27526 5.98388,-2.61857 7.1875,-2.98632 2.2876,-0.69894 8.3125,-6.93921 8.3125,-8.60938 0,-0.5725 -0.27973,-0.87532 -0.82032,-0.91211 z m -70.97265,6.25586 c -0.49247,-0.0634 -1.07969,0.22019 -2.03125,0.81445 -2.58477,1.61421 -2.70119,2.68176 -0.61914,5.6543 2.29765,3.28036 5.44336,2.94192 5.44336,-0.58594 0,-1.54488 -0.59634,-3.62371 -1.32422,-4.61914 -0.57857,-0.79124 -0.97629,-1.20027 -1.46875,-1.26367 z m 3.61328,9.18555 c -0.84338,0.0152 -2.01275,0.31962 -3.86914,0.91992 -10.15541,3.28393 -21.46768,8.47489 -21.77539,9.99219 -0.17783,0.87687 -0.17783,1.58998 0,1.58398 0.17782,-0.006 5.49922,-1.57665 11.82422,-3.49023 6.325,-1.91358 12.46392,-3.48228 13.64257,-3.48828 2.6313,-0.0127 3.91185,-2.88504 2.09571,-4.70118 -0.55684,-0.55684 -1.07459,-0.83159 -1.91797,-0.8164 z m -84.09375,6.60742 c -2.07283,0.068 -1.97387,1.03036 -0.60742,6.45703 1.48624,5.90251 2.23416,5.65034 1.39258,-0.46875 -0.58442,-4.24911 -0.4285,-4.97548 1.15624,-5.38477 1.22581,-0.31658 0.92249,-0.51029 -0.91796,-0.58789 -0.38741,-0.0163 -0.72732,-0.0253 -1.02344,-0.0156 z m -3.31445,1.875 c -0.92103,-0.005 -3.58224,1.1345 -8.0293,3.55859 -4.84903,2.6432 -10.13829,5.07778 -11.75391,5.40821 -3.36401,0.68801 -5.23583,3.03607 -4.32031,5.42187 1.14312,2.97891 4.49116,1.71131 14.39453,-5.44726 7.94258,-5.74123 11.24404,-8.93269 9.70899,-8.94141 z m 209.96289,2.91797 -8.27735,2.5625 c -11.25062,4.73116 -20.01429,11.71052 -18.77148,14.94922 1.18582,3.0902 3.4757,1.6536 9.08398,-5.69922 2.14692,-2.81476 3.79872,-3.87651 6.76953,-4.35156 2.70458,-0.43248 5.39245,-1.97391 8.625,-4.94922 z M 440.71528,130.1268 c -0.0389,0.0103 -0.0766,0.0317 -0.10937,0.0644 -0.26213,0.26213 -0.17894,0.95638 0.18359,1.54297 0.9861,1.59546 1.5629,1.28555 0.88672,-0.47656 -0.28498,-0.74263 -0.68883,-1.203 -0.96094,-1.13086 z m -104.57226,0.68555 c -9.56453,0.37717 -38.99922,6.31677 -46.0625,9.64648 -3.1625,1.49084 -5.75,3.07652 -5.75,3.52539 0,1.12572 1.32368,1.03875 9.97656,-0.66016 4.13757,-0.81237 15.82507,-2.18132 25.97266,-3.04296 10.14758,-0.86165 19.03507,-2.05316 19.75,-2.64649 2.1594,-1.79215 1.54565,-5.40142 -1.12696,-6.61914 -0.4322,-0.19692 -1.3934,-0.25701 -2.75976,-0.20312 z m 56.6875,6.48828 -0.30469,5.32617 c -0.17678,3.08825 0.38654,7.41304 1.3418,10.28906 0.9062,2.72831 1.38051,5.65949 1.05273,6.51367 -0.32778,0.85418 -0.34244,1.96058 -0.0332,2.46094 0.90278,1.46073 5.17598,1.0473 5.79297,-0.56055 0.3104,-0.80889 -0.57442,-4.52139 -1.9668,-8.25 -1.39238,-3.72861 -3.28536,-8.80429 -4.20703,-11.27929 z m -26.27149,7.55273 c -1.05248,-0.10602 -2.32708,0.40082 -3.57812,1.7832 -1.37656,1.52109 -1.47079,2.3834 -0.54297,5.04493 1.26731,3.6354 2.43088,3.61993 5.1875,-0.0723 2.48457,-3.32781 1.24906,-6.52262 -1.06641,-6.75586 z m 238.48047,0.0625 c -0.55883,-0.0257 -1.32058,0.0468 -2.33203,0.21094 -4.80191,0.77925 -4.95236,1.05664 -2.47266,4.53906 1.24522,1.74875 2.98841,7.24469 4.22071,13.30664 1.15474,5.68046 2.7342,11.56563 3.51172,13.07813 0.77751,1.5125 1.82666,2.75 2.33007,2.75 1.86115,0 2.17893,-2.18015 0.57617,-3.95117 -1.15251,-1.2735 -2.08692,-5.71871 -3.08789,-14.6875 -0.78943,-7.07346 -1.44031,-13.48273 -1.44531,-14.24219 -0.005,-0.64234 -0.36939,-0.96105 -1.30078,-1.00391 z m -13.11217,-0.14928 c -1.09412,-0.002 -3.89596,1.72571 -4.56166,2.96959 -0.56935,1.06384 -1.03515,2.17915 -1.03515,2.47852 0,1.05554 6.35578,-2.76301 6.87247,-4.10949 0.36355,-0.94739 -0.42467,-1.33684 -1.27566,-1.33862 z M 403.80708,150.91 c -2.12655,0.15266 -3.69754,2.16519 -2.93555,5.20117 0.56812,2.26359 0.92346,2.41721 3.72656,1.61329 4.58119,-1.31387 5.39285,-2.53691 3.25391,-4.9004 -1.29254,-1.42824 -2.76899,-2.00565 -4.04492,-1.91406 z m -6.31641,28.93164 c -1.30553,0.0864 -2.7447,0.921 -3.70508,2.38672 -1.86121,2.84056 -1.37425,5.12536 3.47461,16.35352 1.72946,4.0048 3.56583,8.3923 4.08204,9.75 0.92949,2.44477 2.94782,2.99387 6.06054,1.64843 1.36777,-0.5912 1.0414,-2.43768 -2.51172,-14.17968 -2.2468,-7.425 -4.44475,-14.0625 -4.88281,-14.75 -0.56791,-0.8913 -1.50216,-1.27621 -2.51758,-1.20899 z m 10.47657,32.20703 c -0.55355,-0.007 -1.21611,0.11035 -2.03711,0.31641 l -2.49024,0.625 2.49609,5.64648 c 1.37313,3.10485 3.45136,6.66125 4.61915,7.9043 1.16778,1.24305 3.18987,2.25977 4.49218,2.25977 l 2.36719,0 -2.43164,-4.25 c -1.33715,-2.3375 -2.96407,-5.93149 -3.61523,-7.98633 -1.05759,-3.33738 -1.73977,-4.49327 -3.40039,-4.51563 z"
       style="fill:#fefefe"
       inkscape:connector-curvature="0" />
    <path
       sodipodi:nodetypes="ssssssssssssscsssssssssssssssccssss"
       style="fill:#fe0000"
       id="path2993"
       d="m 383.83051,213.06883 c -7.51067,-1.08317 -26.5,-9.16766 -26.5,-11.28208 0,-1.36007 0.1634,-1.31239 5.25557,1.53368 12.0808,6.75209 30.88096,10.1829 41.40186,7.55536 7.73282,-1.93122 16.60241,-6.2148 15.38636,-7.43085 -0.57409,-0.57409 -1.04379,-1.35037 -1.04379,-1.72508 0,-0.90653 9.08438,-3.16766 9.81025,-2.4418 0.85612,0.85613 -3.61601,9.52309 -4.91388,9.52309 -0.63004,0 -0.9027,-0.86779 -0.61652,-1.96214 0.46242,-1.76829 -0.0941,-1.65476 -5.63337,1.14916 -3.38056,1.71122 -8.39648,3.71384 -11.14648,4.45027 -4.738,1.26881 -15.44575,1.57563 -22,0.63039 z m 213.0825,-33.13599 c -2.95722,-0.64029 -4.86521,-3.12241 -2.41583,-3.14278 0.73333,-0.006 -0.1891,-1.21061 -2.04985,-2.6767 -4.1258,-3.25073 -9.92466,-15.31221 -7.36173,-15.31221 0.4153,0 1.78806,2.66395 3.05058,5.91989 1.53937,3.96991 3.43171,6.78653 5.74491,8.55089 2.65216,2.0229 3.44942,2.27255 3.44942,1.08011 0,-0.85299 0.45,-1.55089 1,-1.55089 0.55,0 1,0.86786 1,1.92857 0,1.06072 0.675,2.60357 1.5,3.42857 2.70651,2.70651 1.95633,3.04632 -3.9175,1.77455 z M 486.40816,146.94162 c -2.43229,-0.35226 -4.61383,-1.2226 -4.84787,-1.93409 -0.31692,-0.96345 0.30132,-1.10411 2.42235,-0.55113 1.56633,0.40837 5.99787,0.72025 9.84787,0.69307 12.1072,-0.0855 25.95811,-7.38977 30.37378,-16.01765 0.84308,-1.64733 0.81146,-2.26892 -0.13143,-2.58322 -1.24239,-0.41413 3.88457,-5.65132 5.59555,-5.71585 0.80292,-0.0303 -0.0975,7.96655 -1.00651,8.93944 -0.24208,0.25907 -0.81647,-0.13789 -1.27644,-0.88213 -0.65371,-1.05772 -0.96899,-0.93512 -1.444,0.56152 -0.33423,1.05307 -2.97093,4.18512 -5.85932,6.96011 -8.53571,8.20056 -21.58417,12.28085 -33.67398,10.52993 z"
       inkscape:connector-curvature="0" />
    <path
       sodipodi:nodetypes="sssssssssssssscssssssssssssssscssscssssscsscc"
       style="fill:#0000fe"
       id="path2991"
       d="m 392.33051,171.01515 c 0,-7.30861 0.39407,-11.33951 1.15451,-11.80949 0.73036,-0.45139 0.88242,-0.27329 0.41391,0.48479 -1.06087,1.71652 1.27136,4.1107 4.00433,4.1107 1.28033,0 2.80355,-0.7875 3.38494,-1.75 0.79099,-1.30951 0.91847,-0.36559 0.50643,3.75 -1.36629,13.64722 -1.41399,13.82587 -3.54245,13.26926 -1.13477,-0.29674 -2.83139,0.24405 -3.95455,1.2605 -1.94493,1.76013 -1.96712,1.65505 -1.96712,-9.31576 z m 202.53758,-28.46981 c -0.78212,-1.87187 -2.14235,-4.00122 -3.02275,-4.73188 -1.43668,-1.19234 -1.26725,-1.67254 1.65338,-4.68585 3.02525,-3.12127 4.74154,-4.22898 13.22888,-5.96387 1.59626,-0.32629 4.07125,-1.84465 5.5,-3.37412 l 2.59771,-2.78085 0,3.08813 c 0,2.24336 0.6155,3.35816 2.25,4.07526 1.2375,0.54292 2.25,1.53306 2.25,2.20031 0,0.66725 0.78692,1.65356 1.7487,2.1918 1.47616,0.8261 1.0011,1.29908 -3.04821,3.03482 -2.6383,1.13091 -3.85074,2.58896 -6.36733,4.32043 -2.51659,1.73146 -5.9824,3.46868 -7.70179,3.86048 -1.71939,0.39181 -4.14776,1.04006 -5.39636,1.44056 -1.92706,0.61812 -2.48513,0.21377 -3.69223,-2.67522 z m -240.53758,-1.74419 c -1.375,-0.44035 -4.3757,-0.8455 -6.66821,-0.90032 -5.8086,-0.13891 -7.6942,-0.95808 -6.23964,-2.71072 0.62876,-0.75761 0.92765,-2.50505 0.6642,-3.88321 -0.47633,-2.49177 -0.43772,-2.50575 6.92216,-2.50575 5.49266,0 8.43941,0.52967 11.42746,2.05406 l 4.02629,2.05406 -2.56613,2.01852 c -1.41137,1.11019 -2.56613,2.66086 -2.56613,3.44594 0,1.55658 -1.16361,1.65605 -5,0.42742 z m 122,-12.73133 c -3.68061,-0.43249 -6.70375,-2.26867 -3.73518,-2.26867 0.91565,0 2.16651,-0.93743 2.7797,-2.08319 0.89542,-1.6731 0.75471,-2.48832 -0.71482,-4.14127 -1.81444,-2.04093 -1.80052,-2.05319 1.6703,-1.46969 1.925,0.32362 6.03357,0.88231 9.13016,1.24153 4.92543,0.57137 5.56691,0.89503 5.12477,2.58575 -0.27796,1.06295 0.23877,2.75492 1.14829,3.75993 1.57463,1.73994 1.43053,1.85788 -3.01434,2.46712 -4.74428,0.65027 -6.16529,0.63978 -12.38888,-0.0915 z"
       inkscape:connector-curvature="0" />
    <path
       inkscape:connector-curvature="0"
       id="path6261"
       d="m 581.23286,150.36508 c 2.25,3.25 1.875,5 1.875,6 0,1 3.0625,0.5625 2.6875,-1.0625 -0.375,-1.625 -0.3125,-6.4375 -1.9375,-7.3125 -1.625,-0.875 -3.5625,0.125 -2.625,2.375 z"
       style="color:#000000;clip-rule:nonzero;display:inline;overflow:visible;visibility:visible;opacity:1;isolation:auto;mix-blend-mode:normal;color-interpolation:sRGB;color-interpolation-filters:linearRGB;solid-color:#000000;solid-opacity:1;fill:#000000;fill-opacity:1;fill-rule:evenodd;stroke:none;stroke-width:3.00000024;stroke-linecap:round;stroke-linejoin:round;stroke-miterlimit:4;stroke-dasharray:none;stroke-dashoffset:0;stroke-opacity:1;color-rendering:auto;image-rendering:auto;shape-rendering:auto;text-rendering:auto;enable-background:accumulate" />
  </g>
</svg>
