<?xml version="1.0" encoding="UTF-8" standalone="no"?>
<!-- Created with Inkscape (http://www.inkscape.org/) -->

<svg
   xmlns:dc="http://purl.org/dc/elements/1.1/"
   xmlns:cc="http://creativecommons.org/ns#"
   xmlns:rdf="http://www.w3.org/1999/02/22-rdf-syntax-ns#"
   xmlns:svg="http://www.w3.org/2000/svg"
   xmlns="http://www.w3.org/2000/svg"
   xmlns:sodipodi="http://sodipodi.sourceforge.net/DTD/sodipodi-0.dtd"
   xmlns:inkscape="http://www.inkscape.org/namespaces/inkscape"
   version="1.1"
   width="760"
   height="292"
   id="svg2"
   inkscape:version="0.91 r13725"
   sodipodi:docname="ub550503.svg">
  <sodipodi:namedview
     pagecolor="#cacaca"
     bordercolor="#666666"
     borderopacity="1"
     objecttolerance="10"
     gridtolerance="10"
     guidetolerance="10"
     inkscape:pageopacity="0"
     inkscape:pageshadow="2"
     inkscape:window-width="1368"
     inkscape:window-height="909"
     id="namedview11"
     showgrid="false"
     inkscape:zoom="0.80263158"
     inkscape:cx="303.72385"
     inkscape:cy="125.32418"
     inkscape:window-x="0"
     inkscape:window-y="0"
     inkscape:window-maximized="0"
     inkscape:current-layer="svg2" />
  <metadata
     id="metadata8">
    <rdf:RDF>
      <cc:Work
         rdf:about="">
        <dc:format>image/svg+xml</dc:format>
        <dc:type
           rdf:resource="http://purl.org/dc/dcmitype/StillImage" />
        <dc:title></dc:title>
      </cc:Work>
    </rdf:RDF>
  </metadata>
  <defs
     id="defs6" />
  <g
     id="g2987">
    <path
       d="m 174.24346,226.75 c -0.55079,-0.6875 -1.98688,-3.20532 -3.19131,-5.59516 -2.08911,-4.14519 -2.10957,-4.43391 -0.44465,-6.27363 0.95988,-1.06066 2.081,-1.58033 2.49138,-1.15484 0.65349,0.67757 3.90112,12.05596 3.90112,13.66797 0,1.0555 -1.7161,0.65436 -2.75654,-0.64434 z m -16.42074,-25.8974 c -11.13738,-15.904 -11.77686,-17.27159 -8.81684,-18.85575 3.92375,-2.09993 7.46163,1.53308 15.54714,15.96518 4.09584,7.31079 7.44698,13.40836 7.44698,13.55015 0,0.14179 -1.0125,0.91067 -2.25,1.70861 -2.19253,1.41376 -2.49717,1.09786 -11.92728,-12.36819 z m 588.04972,5.46605 c -0.75484,-0.92473 -10.41564,-7.6196 -21.46844,-14.87748 -11.0528,-7.25788 -20.40683,-14.00617 -20.78674,-14.9962 -0.40417,-1.05323 -0.1122,-2.3786 0.70372,-3.19452 2.52491,-2.52491 7.9431,-0.48927 15.81801,5.9429 4.04856,3.30683 11.26587,8.71905 16.03847,12.02717 7.31452,5.07003 9.00299,6.77145 10.75,10.8325 1.1399,2.64976 2.07254,5.07182 2.07254,5.38236 0,1.15301 -1.79923,0.51057 -3.12756,-1.11673 z M 134.5,165.23393 c -2.3038,-1.69431 -15.78305,-30.94096 -14.59775,-31.67352 0.40711,-0.2516 3.98732,5.10355 7.95604,11.90034 3.96871,6.79679 8.32416,13.084 9.67877,13.97158 2.95747,1.93781 3.1661,4.12098 0.52868,5.53249 -2.27588,1.21801 -2.27553,1.21798 -3.56574,0.26911 z M 128.2,160.8 c -0.66,-0.66 -1.19832,-2.3475 -1.19626,-3.75 0.004,-2.49243 0.0488,-2.47607 2,0.72417 1.09794,1.80079 1.99626,3.48829 1.99626,3.75 0,0.89188 -1.59698,0.47885 -2.8,-0.72417 z m 555.90974,-2.33858 c -2.33505,-3.95761 -6.4793,-9.3052 -12.35974,-15.94856 C 668.23303,138.5396 666.88257,135 668.88364,135 c 0.88675,0 4.7219,4.17522 10.96661,11.93906 1.84264,2.29089 5.12781,5.34158 7.30038,6.77932 3.14707,2.08263 3.88907,3.13936 3.64975,5.19785 -0.48764,4.19454 -4.09202,3.94953 -6.69064,-0.45481 z M 584,159.46016 c 0,-0.29691 0.84387,-2.20941 1.87527,-4.25 1.03141,-2.04059 3.78814,-9.11016 6.12609,-15.71016 3.88888,-10.97829 5.89167,-14.5 8.24614,-14.5 1.40901,0 6.75298,6.31499 6.74692,7.97286 -0.003,0.83993 -0.4906,3.27398 -1.08341,5.409 l -1.07784,3.88186 -2.25922,-3.74339 -2.25923,-3.74338 -3.16274,7.86152 c -1.7395,4.32384 -3.16031,8.37167 -3.15736,8.99517 0.006,1.33905 -7.55108,8.36636 -8.9975,8.36636 C 584.4487,160 584,159.75707 584,159.46016 z M 52.5,157.95751 c -6.861241,-1.91605 -25.735831,-7.86001 -26.092986,-8.21716 -0.212399,-0.2124 -0.664376,-1.77716 -1.004392,-3.47724 l -0.61821,-3.09105 7.357794,1.94523 c 4.046787,1.06988 9.672316,2.04367 12.501176,2.16397 2.828859,0.12031 4.939802,0.55624 4.690983,0.96874 -0.24882,0.4125 1.124065,0.75 3.050854,0.75 2.244,0 4.493802,0.85203 6.258967,2.37037 2.696148,2.31912 2.71847,2.4272 1.032711,5 -1.824372,2.78434 -2.418947,2.91583 -7.176897,1.58714 z m 624.16864,-2.77116 c -1.25536,-1.38716 -1.36556,-2.08943 -0.46864,-2.98635 0.89692,-0.89692 1.59919,-0.78672 2.98635,0.46864 2.12964,1.9273 2.38976,4.33136 0.46864,4.33136 -0.73976,0 -2.08362,-0.81614 -2.98635,-1.81365 z m -455.2733,0.19982 C 220.31584,154.94061 220.68297,150 221.79558,150 c 1.36586,0 7.20442,2.46396 7.20442,3.04037 0,0.69503 -4.65622,3.00881 -5.79705,2.88068 -0.38662,-0.0434 -1.20005,-0.28412 -1.80761,-0.53488 z M 82.568579,151.6738 c -2.763103,-2.02043 -1.185063,-5.31935 3.229199,-6.7507 C 87.834,144.26284 93.1,141.87503 97.5,139.61685 c 20.35098,-10.4446 23.35557,-10.51998 7.1342,-0.17901 -5.701197,3.63446 -11.212635,7.54384 -12.247644,8.68751 C 90.791054,149.88836 85.910527,153 84.74079,153 c -0.197192,0 -1.174687,-0.59679 -2.172211,-1.3262 z m 9.98091,-1.59373 c -0.3127,-0.50595 0.644985,-1.87448 2.128188,-3.04117 2.399939,-1.88779 2.79488,-1.94587 3.588519,-0.52772 1.64264,2.93524 -3.950362,6.4269 -5.716707,3.56889 z m 120.891431,-7.07923 c -7.11751,-4.39953 -13.27842,-7.99953 -13.69092,-8 C 199.3375,135.00038 199,134.55 199,134 c 0,-1.97561 3.21738,-0.90645 14.90901,4.95439 9.70554,4.86523 12.4977,5.85387 15.26472,5.40484 2.87749,-0.46695 3.58753,-0.17384 4.72431,1.95026 1.79834,3.36022 0.73021,4.69051 -3.76614,4.69051 -2.94235,0 -6.53734,-1.7229 -16.69098,-7.99916 z m 394.41324,4.34727 c -1.54562,-2.54732 -1.39281,-4.94317 0.71559,-11.21959 0.6529,-1.94359 7.40826,6.78339 7.42054,9.5863 0.01,2.17157 -2.55182,4.28518 -5.19293,4.28518 -0.73377,0 -2.05821,-1.19335 -2.9432,-2.65189 z M 16.5,146.42691 c -6.222518,-2.58085 -10.4236764,-5.83657 -9.1609198,-7.09932 0.7539525,-0.75396 13.6840358,2.30597 14.7818118,3.49813 1.027725,1.11609 1.975421,6.17748 1.14816,6.13201 C 22.846073,148.93448 19.8,147.79561 16.5,146.42691 z m 620.06858,0.24689 c -2.7718,-2.02678 -1.18668,-5.32493 3.2292,-6.719 2.03622,-0.64283 8.33959,-3.59563 14.0075,-6.56179 5.6679,-2.96615 11.0679,-5.35748 12,-5.31406 1.37986,0.0643 1.41604,0.18441 0.19472,0.64663 -0.825,0.31223 -1.84183,1.14449 -2.25963,1.84947 -0.41779,0.70498 -4.58029,3.62479 -9.25,6.48847 -4.6697,2.86368 -8.49037,5.60251 -8.49037,6.08629 0,0.82608 -5.84384,4.83833 -7.05887,4.84645 -0.30738,0.002 -1.37503,-0.59305 -2.37255,-1.32246 z M 42.5,146.35147 c -14.896815,-3.1025 -18.767095,-4.41771 -17.304374,-5.88043 0.32845,-0.32845 18.018415,4.62308 21.304374,5.96323 1.272906,0.51914 -1.372693,0.46437 -4,-0.0828 z M 649,142.19032 c 0,-0.53699 0.7126,-1.24979 1.58356,-1.58401 0.97391,-0.37373 1.43108,-0.15024 1.1875,0.58051 -0.49828,1.49484 -2.77106,2.31789 -2.77106,1.0035 z m -631.719006,-2.1021 c -5.24811,-1.59708 -8.1695619,-3.53299 -7.038479,-4.66407 1.037505,-1.0375 11.818675,2.57173 12.428415,4.16069 0.845924,2.20444 0.351587,2.25061 -5.389936,0.50338 z M 255.6952,139.75 c -1.49309,-1.10628 -1.5261,-1.55806 -0.28711,-3.92931 0.76998,-1.47362 1.25722,-2.82362 1.08277,-3 -0.17446,-0.17638 7.74373,-5.44741 17.59597,-11.7134 9.85225,-6.266 17.91317,-11.8005 17.91317,-12.2989 0,-1.10456 7.81928,-4.75592 10.25,-4.78643 0.9625,-0.0121 1.75,0.54479 1.75,1.23749 0,0.6927 -0.7875,1.75888 -1.75,2.36929 -0.9625,0.6104 -10.68868,8.36865 -21.61374,17.24054 C 269.71121,133.74118 260.00971,141 259.07739,141 c -0.93232,0 -2.45431,-0.5625 -3.38219,-1.25 z M 98.7411,123.03727 C 87.269686,118.75085 84,117.13074 84,115.73316 c 0,-2.60026 2.907369,-3.31923 5.906823,-1.46071 1.426247,0.88373 7.655677,4.2589 13.843177,7.50037 l 11.25,5.89359 -0.008,-7.0832 c -0.004,-3.89577 -0.46538,-9.90434 -1.02493,-13.35238 -1.1919,-7.344654 -0.127,-10.53653 3.35014,-10.041514 1.88959,0.269007 2.14138,0.847271 1.87703,4.310684 -1.35713,17.78036 -1.29245,24.52526 0.24084,25.11363 2.71464,1.04171 1.70352,1.93182 -2.19443,1.93182 -2.10611,0 -10.24059,-2.42195 -18.5,-5.50818 z M 311,126.57011 C 311,125.30498 313.41824,121 314.12889,121 c 2.0582,0 18.71279,-16.32251 20.34276,-19.93713 2.00458,-4.445363 3.78525,-5.530931 6.60079,-4.0241 3.1728,1.698027 1.6845,7.96123 -1.89178,7.96123 -0.96194,0 -4.20861,2.52082 -7.21482,5.60183 C 325.66079,117.06374 311,128.22988 311,126.57011 z m 240,-1.4995 C 542.73576,119.05994 529.95221,112 527.33282,112 c -1.62281,0 -3.82407,-0.6496 -4.89169,-1.44354 -1.80151,-1.33972 -1.83077,-1.6449 -0.40676,-4.24293 0.84391,-1.53966 2.20657,-2.92883 3.02814,-3.08705 0.82157,-0.15822 5.37654,2.80219 10.12215,6.5787 4.74562,3.7765 11.03296,8.388 13.97187,10.24778 2.93891,1.85977 5.67408,3.84618 6.07816,4.41422 2.10757,2.9628 -0.48315,3.33197 -4.23469,0.60343 z m -26.96482,-7.00487 C 523.46583,117.0019 523,115.30251 523,114.28932 c 0,-1.52591 0.64379,-1.78051 3.75,-1.48303 3.47236,0.33255 3.76846,0.61215 3.9994,3.77643 0.23188,3.17724 0.0412,3.41728 -2.71482,3.41728 -1.90717,0 -3.33336,-0.68976 -3.9994,-1.93426 z M 557,117.0637 548.5,116.5 l -3.24629,-6.13796 c -2.12257,-4.01327 -3.33412,-7.82099 -3.5,-11.000002 L 541.5,94.5 l 3.27758,0.150448 c 4.76717,0.218824 6.06341,1.821941 6.81017,8.422382 0.36673,3.24143 1.17201,6.30432 1.78951,6.80642 0.61751,0.50209 6.01267,1.43429 11.98926,2.07154 10.58397,1.12852 18.63348,3.35664 18.63348,5.15779 0,0.934 -12.55406,0.91313 -27,-0.0449 z M 92.891663,115.05827 c -1.849898,-1.54056 -2.022986,-1.99927 -0.764108,-2.025 1.713034,-0.035 4.514174,2.65833 3.656608,3.5159 -0.275461,0.27546 -1.577086,-0.39544 -2.8925,-1.4909 z M 334.54714,108.9508 c 3.05623,-3.19002 4.2258,-3.26357 2.56555,-0.16136 -0.57715,1.0784 -2.02209,2.21511 -3.21098,2.52601 -1.9683,0.51473 -1.91058,0.30325 0.64543,-2.36465 z M 109.0318,108.25 c 0.0175,-1.5125 0.63928,-3.55073 1.38174,-4.52939 1.21285,-1.5987 1.41271,-1.61578 1.96819,-0.16821 0.34005,0.88615 0.61827,2.92437 0.61827,4.52939 0,2.25154 -0.4569,2.91821 -2,2.91821 -1.52286,0 -1.99241,-0.65607 -1.9682,-2.75 z m -45.365622,-3.91715 c -0.366935,-0.36694 -1.499712,-0.7285 -2.517282,-0.80346 -1.01757,-0.075 -4.729851,-2.6521 -8.249512,-5.726961 -3.519661,-3.074861 -7.726861,-6.704969 -9.349334,-8.066908 -2.92825,-2.458036 -2.93682,-2.49629 -1.165033,-5.200378 1.778244,-2.713945 1.793009,-2.716873 3.94995,-0.783437 2.107174,1.888826 14.377282,10.288599 19.92531,13.640311 2.677821,1.617742 2.714394,1.756284 1.22432,4.637773 -1.529438,2.9576 -2.548955,3.57252 -3.818419,2.30306 z M 468,93.733986 C 465.64721,92.532372 464.65332,89.488159 463.10794,78.75 463.04857,78.3375 457.8801,78 451.62244,78 c -8.50271,0 -11.66954,-0.35183 -12.53315,-1.392413 -0.63558,-0.765827 -2.49068,-1.945422 -4.12245,-2.62132 -1.63176,-0.675899 -2.96682,-1.511814 -2.96679,-1.857587 2e-5,-0.345774 7.17499,-0.62868 15.94436,-0.62868 l 15.94433,0 3.64095,3.5 c 4.90058,4.710869 6.33033,7.733646 6.67756,14.117678 0.25809,4.744994 0.0559,5.412563 -1.70725,5.637714 -1.1,0.140466 -3.125,-0.319167 -4.5,-1.021406 z m -68.75,-3.765148 c -2.67824,-1.076523 -2.88207,-3.621418 -0.55603,-6.94231 0.93169,-1.330167 2.01545,-4.692794 2.40836,-7.472506 0.63607,-4.499996 1.45052,-5.802333 7.42966,-11.880386 4.6801,-4.757514 7.03276,-6.508883 7.76284,-5.778806 0.73008,0.730077 -0.82682,3.156565 -5.13712,8.006426 l -6.18467,6.958868 0.64104,6.897336 c 0.91338,9.827702 -0.7357,12.473711 -6.36408,10.211378 z m 7.55357,-4.411954 c 0.33507,-2.87015 0.89599,-3.551622 3.3707,-4.09516 1.63281,-0.358625 3.18346,-0.437322 3.4459,-0.174883 1.16529,1.165289 -1.00189,5.56605 -3.24414,6.58769 -3.66888,1.671653 -4.01219,1.448929 -3.57246,-2.317647 z m 80.25045,-1.221178 c -1.34529,-0.948008 -4.72029,-2.045124 -7.5,-2.438035 -4.49999,-0.636072 -5.80233,-1.450517 -11.88038,-7.429663 -4.75752,-4.680097 -6.50889,-7.032761 -5.77881,-7.762838 0.73008,-0.730077 3.15024,0.821192 7.98554,5.118559 l 6.93799,6.166118 7.34082,-0.587816 c 9.10943,-0.729436 11.89518,0.690964 10.29794,5.250717 -1.19728,3.417955 -4.02787,4.061438 -7.4031,1.682958 z M 33.965936,80.71148 c -6.521783,-6.119853 -9.716319,-14.809598 -3.703963,-10.075484 1.302014,1.025202 4.500647,3.742684 7.108072,6.038849 4.31158,3.796886 4.623447,4.362713 3.444817,6.25 -0.712775,1.141335 -1.52521,2.067531 -1.805409,2.058212 -0.280199,-0.0093 -2.549782,-1.931528 -5.043517,-4.271577 z m 319.536904,2.297469 c -0.34756,-1.095079 -0.35784,-2.434541 -0.0228,-2.976584 0.335,-0.542042 0.7711,-2.265648 0.96911,-3.830235 0.19801,-1.564587 2.47066,-6.107426 5.05034,-10.095199 2.57967,-3.987772 4.53512,-7.349434 4.34543,-7.47036 C 363.6552,58.515646 359.9,56.769627 355.5,54.75653 c -6.72445,-3.076585 -8.4628,-4.387598 -10.90261,-8.22241 -4.30737,-6.770187 -2.1298,-7.179645 6.10094,-1.147189 1.75908,1.289262 6.25908,3.574183 10,5.077601 9.51064,3.822181 9.76335,3.981952 10.12285,6.400033 0.40526,2.725846 -10.52033,26.806011 -12.50851,27.568949 -2.68603,1.030722 -4.17006,0.591185 -4.80983,-1.424565 z m 135.81379,-6.727375 c -2.59355,-0.324545 -3.30599,-0.956624 -3.84516,-3.411469 -0.78596,-3.578469 -0.30467,-4.269327 2.38056,-3.41707 1.8207,0.577869 7.03666,7.760596 5.36424,7.386928 -0.39395,-0.08802 -2.14879,-0.339295 -3.89964,-0.558389 z M 113.4247,69.854391 c -1.38085,-2.670272 -1.60479,-6.712497 -1.48198,-26.75 0.13009,-21.224817 0.3554,-24.184052 2.23497,-29.354391 1.14966,-3.1625 2.48,-5.75 2.9563,-5.75 C 117.6103,8 118,10.591976 118,13.759946 c 0,5.758614 2.46096,39.136502 3.60747,48.928034 0.54528,4.656766 0.34515,5.450314 -1.95454,7.75 -3.31752,3.317519 -4.25638,3.229547 -6.22823,-0.583589 z m 275.10905,0.200215 c -0.8981,-1.45315 0.27516,-6.653431 1.78053,-7.891922 0.65215,-0.536531 3.43572,-1.280452 6.18572,-1.653157 9.08468,-1.231238 8.5,-0.400549 8.5,-12.076393 0,-9.50504 0.24438,-10.875182 2.75,-15.418204 1.5125,-2.742363 2.975,-4.992577 3.25,-5.000476 0.275,-0.0079 0.5,7.160583 0.5,15.92996 l 0,15.944321 -3.5,3.640952 c -1.925,2.002523 -4.625,4.224796 -6,4.938383 -3.63104,1.884412 -12.62711,2.94429 -13.46625,1.586536 z"
       id="path2997"
       style="fill:#fefefe" />
    <path
       d="M 101.34157,229.52053 C 80.992966,225.82808 63.157109,216.2669 49.191455,201.5647 40.599235,192.51933 36.842758,187.07525 31.866919,176.45709 25.271156,162.38209 23.674269,154.7887 23.674269,137.5 c 0,-17.2887 1.596887,-24.88209 8.19265,-38.957086 4.975839,-10.618162 8.732316,-16.062244 17.324536,-25.107617 7.242796,-7.624781 21.809803,-18.476607 21.806757,-16.245145 -9.84e-4,0.720416 -2.138484,2.653677 -4.75,4.296136 C 59.044639,66.016823 45.805874,79.195498 40.472001,87.145502 35.054358,95.220361 30.13846,106.28376 27.428651,116.5 c -2.603567,9.8157 -2.603567,32.1843 0,42 7.314854,27.57771 25.20981,49.2915 50.642973,61.45034 14.07046,6.72666 21.953736,8.38146 39.928376,8.38146 18.30867,0 25.90411,-1.65098 41,-8.91192 8.24275,-3.96467 10.6884,-5.78367 18.47975,-13.74464 7.80421,-7.97411 8.68785,-9.21707 6.75,-9.49479 C 183.00339,196.0047 182,195.52554 182,195.11566 182,194.17282 188.57891,191 190.53393,191 c 1.84374,0 1.83222,0.56912 -0.12793,6.32186 -1.57967,4.63606 -3.406,6.23984 -3.406,2.99096 0,-1.04478 -3.71242,1.95194 -9.75,7.87032 -5.53824,5.42891 -11.90988,10.63991 -14.75,12.0632 -18.7184,9.38046 -41.51891,12.83798 -61.15843,9.27419 z M 606.08403,168.1061 c -3.43654,-4.33899 -3.84638,-5.61262 -1.51864,-4.71938 1.13723,0.43639 1.43037,0.12376 1.07174,-1.14301 -0.27151,-0.95904 -0.79168,-4.95718 -1.15594,-8.88475 -0.52905,-5.70446 -0.22955,-8.72205 1.48878,-15 C 608.23871,130.0701 611.79416,122 613.17726,122 c 1.19551,0 1.04513,0.64376 -1.16024,4.96663 -1.09064,2.13783 -2.9262,7.32506 -4.07904,11.52718 -1.70473,6.21381 -1.96576,9.0746 -1.39813,15.3232 0.38386,4.22564 1.08074,8.35799 1.54863,9.18299 0.55582,0.98005 0.86124,1.06671 0.88111,0.25 C 608.98632,162.5625 609.45,162 610,162 c 0.55,0 1,2.25 1,5 0,2.75 -0.41219,5 -0.91597,5 -0.50378,0 -2.30378,-1.75226 -4,-3.8939 z M 403.35556,109.61194 C 396.52914,108.13645 385.22373,100 390,100 c 0.55,0 1.00307,0.3375 1.00683,0.75 0.004,0.4125 1.53872,1.79307 3.41102,3.06793 4.35496,2.96532 14.78514,5.45459 20.58215,4.91215 5.20572,-0.48711 16.44651,-5.01375 13.75,-5.53709 -2.91673,-0.56608 -1.97731,-1.80831 2.34736,-3.10401 4.37904,-1.311996 5.80768,-0.923721 4.18303,1.13685 -0.55254,0.7008 -1.30024,2.51167 -1.66155,4.02417 -0.69942,2.92781 -2.61884,3.80254 -2.61884,1.19346 0,-1.4011 -0.27461,-1.40424 -2.75,-0.0314 -8.42819,4.67425 -14.47636,5.45167 -24.89444,3.19987 z M 453.49529,54.25 c 0.3901,-0.9625 1.15727,-2.9875 1.70482,-4.5 C 456.28946,46.740868 458,46.047468 458,48.61501 c 0,1.430079 0.25764,1.451953 2.25,0.191029 5.59331,-3.539897 11.89606,-5.065293 18.61393,-4.504954 3.64984,0.304435 8.24936,1.036894 10.22116,1.627687 3.95427,1.184783 11.81378,7.462916 10.73103,8.571887 -0.37614,0.385244 -1.72614,-0.282991 -3,-1.484967 -5.58245,-5.267411 -17.0524,-7.973453 -25.81612,-6.090656 -5.87604,1.262409 -13.77494,4.960596 -10.75,5.033048 3.06646,0.07345 1.88369,1.685288 -2.11602,2.883628 -5.08708,1.524128 -5.47612,1.474502 -4.63869,-0.591712 z"
       id="path2993"
       style="fill:#fe0000" />
    <path
       d="M 141.84084,180.74063 C 136.96723,175.09555 134,170.08132 134,167.49064 c 0,-0.88477 0.46979,-1.31833 1.04398,-0.96346 1.46491,0.90536 5.95602,-2.24102 5.95602,-4.17268 0,-2.73393 2.84706,0.40173 5.97954,6.58567 1.54898,3.05791 4.21226,7.30921 5.9184,9.44733 3.75415,4.7047 3.84153,5.14313 0.60206,3.02054 -2.32121,-1.52091 -2.6844,-1.51723 -5.07842,0.0514 -1.51473,0.99249 -2.35275,2.27754 -2.03139,3.11501 0.86503,2.25424 0.28385,1.76446 -4.54935,-3.83381 z M 695,170.89053 c -11.31547,-9.00565 -12,-9.63527 -12,-11.03737 0,-0.71399 0.70052,-0.29804 1.5567,0.92433 1.71272,2.44525 4.3832,2.88261 6.2433,1.02251 1.55568,-1.55568 1.53586,-5.00705 -0.0393,-6.85 -0.68163,-0.7975 1.90587,1.54058 5.75,5.19572 3.84413,3.65515 8.42329,7.36445 10.17592,8.24289 4.22097,2.11561 5.3138,3.90058 1.8569,3.03295 -2.97197,-0.74592 -6.96382,2.0407 -6.11014,4.26534 0.65913,1.71767 1.14693,2.03242 -7.43335,-4.79637 z M 60.507355,156.62912 c 1.639407,-2.50205 1.64556,-2.80267 0.09249,-4.51879 -1.584853,-1.75124 -1.472473,-1.86408 2.369814,-2.37944 2.218461,-0.29755 6.464415,-1.54854 9.435454,-2.77997 5.923863,-2.4553 9.095444,-2.10341 8.141159,0.90328 -0.809103,2.54926 0.331641,5.1458 2.260713,5.1458 4.390869,0 -1.44956,1.87222 -10.771535,3.45295 -5.755501,0.97596 -11.099001,2.01794 -11.874445,2.31551 -1.053958,0.40444 -0.966521,-0.13565 0.346346,-2.13934 z M 614.25,152.33772 c -1.8732,-0.75586 -1.50747,-2.03713 0.75,-2.62747 1.16988,-0.30593 2,-1.36401 2,-2.54924 0,-1.24293 0.86981,-2.27633 2.25,-2.67316 1.2375,-0.35581 4.56908,-1.57595 7.4035,-2.71141 5.54573,-2.2216 8.97034,-1.84453 7.92758,0.87287 -0.91383,2.3814 0.29943,5.35069 2.18631,5.35069 4.36559,0 -1.30128,1.85183 -10.26739,3.3552 -10.61068,1.77911 -10.33136,1.75671 -12.25,0.98252 z m -379.5,-0.91124 c 1.9544,-0.9274 1.47308,-3.89372 -1.07855,-6.64698 -2.30234,-2.48426 -2.30608,-2.52658 -0.33292,-3.75884 1.09759,-0.68546 5.64268,-2.2497 10.1002,-3.47608 4.45751,-1.22639 9.08175,-2.75277 10.27609,-3.39196 2.11597,-1.13243 2.13437,-1.09169 0.71943,1.59261 -1.36512,2.58977 -1.29862,2.87936 1.11024,4.83492 l 2.56233,2.08015 -9.00979,4.18613 c -4.95538,2.30236 -10.49191,4.40821 -12.3034,4.67966 -1.8115,0.27145 -2.73113,0.22662 -2.04363,-0.0996 z M 76.372654,115.09347 c -3.37004,-2.13815 -6.442964,-4.39822 -6.82872,-5.02238 -0.385755,-0.62417 -2.708257,-2.0782 -5.161115,-3.23118 -2.452858,-1.15297 -4.255974,-2.30009 -4.006926,-2.54914 0.249048,-0.24904 1.473704,0.0936 2.721457,0.76133 1.954641,1.04609 2.509217,0.91704 4.006773,-0.93236 0.955971,-1.18057 1.887342,-2.59413 2.069711,-3.14124 0.41294,-1.238823 15.874267,6.41266 17.558298,8.68922 1.032744,1.39612 0.870919,1.84841 -1,2.79494 -1.501365,0.75957 -2.219226,2.01454 -2.192711,3.83331 0.02168,1.48722 -0.203319,2.69975 -0.5,2.69453 -0.296682,-0.005 -3.296727,-1.75889 -6.666767,-3.89703 z M 530.3736,105.09522 c -1.71952,-1.56538 -3.74452,-3.07589 -4.5,-3.35668 -2.19737,-0.81669 3.85739,-6.115364 9.81178,-8.586527 6.42059,-2.664644 9.41659,-2.712115 12.45384,-0.197328 l 2.36078,1.954684 -3.71012,-1.110226 c -5.06516,-1.515712 -7.21369,0.201808 -6.41435,5.127582 0.46991,2.895705 0.0996,4.011675 -2.08929,6.296385 -3.2939,3.43809 -4.00821,3.42655 -7.91264,-0.12789 z m -186.73493,-4.03855 c 0.46067,-2.303372 0.0867,-3.190512 -1.89132,-4.48656 -1.44825,-0.948928 -3.24573,-1.335123 -4.35645,-0.935996 -1.03999,0.373717 1.75913,-3.103575 6.22029,-7.727315 4.46115,-4.623739 8.43974,-9.453211 8.8413,-10.73216 0.40157,-1.278948 0.91606,-2.139419 1.14333,-1.912157 0.22726,0.227261 -0.0717,1.804278 -0.66443,3.504482 -1.46878,4.213345 0.28849,7.61532 3.60605,6.981128 2.33372,-0.446119 2.3423,-0.416224 0.75956,2.644473 -2.78324,5.38218 -9.19922,13.241855 -11.76318,14.410075 -2.36226,1.07631 -2.44446,1.00058 -1.89515,-1.74597 z M 111.45621,97.681568 c -0.35973,-1.433299 -0.14817,-6.407493 0.47013,-11.053765 0.77321,-5.810305 0.81172,-9.802755 0.12337,-12.787785 -1.43945,-6.24214 -1.28744,-6.742189 0.93933,-3.090018 2.31906,3.803536 2.89273,3.917441 6.28618,1.248153 l 2.54493,-2.001847 0.71487,8.581928 c 0.99421,11.935264 -0.66755,22.252416 -2.98117,18.508898 -1.11304,-1.800938 -4.34275,-1.226608 -5.94201,1.056652 l -1.50156,2.143786 -0.65407,-2.606002 z M 467.86078,96.045315 465.5,94.090631 l 3.71012,1.110226 c 5.05731,1.513364 7.21349,-0.203058 6.41743,-5.108597 C 474.95327,85.93718 477.05681,83 480.70687,83 c 2.31459,0 10.26973,3.915848 10.28543,5.062909 0.0197,1.440132 -6.00161,5.824287 -10.67768,7.774483 -6.41459,2.675261 -9.41342,2.725328 -12.45384,0.207923 z M 391.8497,84.25 C 388.88609,81.021641 385,72.1856 385,68.675402 c 0,-1.349609 0.87961,-3.516187 1.95468,-4.814618 L 388.90937,61.5 l -1.11023,3.71012 c -1.51336,5.057313 0.20306,7.213485 5.1086,6.417426 C 397.06282,70.953269 400,73.056814 400,76.70687 c 0,2.314588 -3.91585,10.269733 -5.06291,10.285428 -0.3096,0.0042 -1.69892,-1.229798 -3.08739,-2.742298 z"
       id="path2991"
       style="fill:#0000fe" />
    <path
       d="m 34.263735,278.2512 19.763734,-0.29357 -0.528757,-2.22882 C 53.207896,274.50297 50.078314,259.325 46.544085,242 43.009856,224.675 39.36023,207.125 38.433806,203 c -2.910127,-12.95764 -2.91213,-13 -0.614693,-13 1.992313,0 3.834366,3.13363 2.813261,4.78581 -0.273196,0.44205 1.182914,8.65857 3.2358,18.25895 L 47.600694,230.5 83.300347,230.76263 119,231.02526 l 0,23.48737 0,23.48737 38,0 38,0 0,-22.5 0,-22.5 -5.5,0 c -3.025,0 -5.5,-0.45 -5.5,-1 0,-0.55 2.50457,-1 5.5657,-1 l 5.5657,0 -0.3157,-51.00044 -0.3157,-51.00044 2.25,4.4e-4 c 1.33314,2.6e-4 2.25,0.61168 2.25,1.50044 0,0.825 0.68996,1.5 1.53324,1.5 0.84329,0 3.68514,1.09045 6.31523,2.42321 3.22316,1.6333 5.24969,2.12726 6.21676,1.51532 2.40287,-1.5205 5.38518,-1.04821 6.7027,1.06147 0.68696,1.1 1.73824,2 2.33617,2 0.59794,0 2.31607,0.87506 3.81808,1.94459 2.713,1.93182 2.75336,1.93094 6.14925,-0.13422 1.88008,-1.14335 7.15471,-3.10679 11.72139,-4.36321 7.05108,-1.93995 11.19848,-4.1325 27.50513,-14.54076 10.56113,-6.741 19.7638,-13.04011 20.45038,-13.99803 1.57307,-2.19477 9.66739,-5.34656 11.71396,-4.56121 2.22611,0.85424 1.88709,3.19172 -0.71229,4.91108 -1.2375,0.81854 -11.25,8.8132 -22.25,17.76591 -16.67087,13.56813 -21.74779,17.12436 -30.5,21.36434 -8.48089,4.10854 -11.4134,5.06003 -15.25,4.94804 -2.6125,-0.0763 -4.75,0.25527 -4.75,0.73673 0,0.48146 -1.35169,1.57436 -3.00375,2.42868 -6.02057,3.11336 -14.72577,-2.41065 -12.27508,-7.78933 1.00343,-2.20227 0.5907,-2.63616 -6.77337,-7.12063 -4.31305,-2.6265 -8.31573,-4.48262 -8.89485,-4.1247 C 198.33181,136.91296 198,159.3157 198,207.55902 L 198,278 l 53,0 53,0 0,-22.5 0,-22.5 -12.5,0 c -7.66667,0 -12.5,-0.38667 -12.5,-1 0,-0.61355 4.85026,-1 12.55078,-1 l 12.55078,0 -0.30078,-51.00044 c -0.29744,-50.43409 -0.27857,-51.00044 1.69922,-51.00026 1.98466,1.7e-4 1.9978,0.57143 1.71362,74.50044 L 306.92724,278 l 50.03638,0 50.03638,0 0,-22.5 0,-22.5 -13,0 c -8,0 -13,-0.38462 -13,-1 0,-0.61558 5.01693,-1 13.05078,-1 l 13.05078,0 -0.30078,-51.00044 c -0.29744,-50.43409 -0.27857,-51.00044 1.69922,-51.00026 1.98466,1.7e-4 1.9978,0.57143 1.71362,74.50044 L 409.92724,278 l 32.03638,0 32.03638,0 0,-22.5 0,-22.5 -13.5,0 c -8.33333,0 -13.5,-0.38272 -13.5,-1 0,-0.61747 5.18374,-1 13.55121,-1 l 13.55121,0 -0.30121,-50.50045 c -0.29783,-49.93423 -0.27879,-50.50044 1.69879,-50.50026 1.98456,1.8e-4 1.99779,0.57137 1.7134,74.00045 L 476.9268,278 l 36.0366,0 36.0366,0 0,-22.5 0,-22.5 -19.5,0 c -12.33333,0 -19.5,-0.36752 -19.5,-1 0,-0.63257 7.18359,-1 19.55078,-1 l 19.55078,0 -0.30078,-51.00044 c -0.29744,-50.43409 -0.27857,-51.00044 1.69922,-51.00026 1.98466,1.7e-4 1.9978,0.57143 1.71362,74.50044 L 551.92724,278 l 25.60377,0 c 23.91516,0 25.56961,-0.11542 25.08589,-1.75 -0.28483,-0.9625 -2.09164,-9.625 -4.01512,-19.25 -1.92349,-9.625 -5.57108,-27.4 -8.10575,-39.5 C 583.9332,186.17044 584.23065,189 587.5,189 c 2.57746,0 2.7252,0.22481 2.21479,3.37013 -0.33332,2.05403 0.90443,10.15736 3.16948,20.75 l 3.71638,17.37987 34.19968,0.26313 34.19967,0.26313 0,-46.39883 c 0,-36.2902 -0.28527,-46.94868 -1.30941,-48.92271 l -1.30942,-2.5239 -4.97968,3.15959 -4.97968,3.15959 1.49837,4.2213 c 1.43386,4.03956 1.3986,4.35626 -0.8192,7.35599 -2.13899,2.89313 -2.1924,3.25986 -0.69311,4.75915 1.37122,1.37122 1.9489,1.42184 3.70567,0.32472 2.70391,-1.68861 3.97944,-0.43354 1.44376,1.4206 -2.73811,2.00215 -5.33029,1.76069 -6.79883,-0.63333 -0.69216,-1.12836 -3.17097,-2.90306 -5.50847,-3.94377 -2.3375,-1.04071 -4.25,-2.41565 -4.25,-3.05542 0,-0.71836 -0.66927,-0.88494 -1.75,-0.43557 -0.9625,0.40021 -6.46394,1.59595 -12.22542,2.65721 -9.92108,1.82746 -10.674,1.84002 -14.228,0.23739 -3.40235,-1.53425 -7.56055,-5.97764 -6.54466,-6.99353 0.22646,-0.22645 1.01345,0.7126 1.74889,2.08677 1.44563,2.70119 3.03527,3.08473 6.06493,1.46331 2.8796,-1.54112 2.33735,-4.93332 -1.57545,-9.85555 C 609.20268,134.9735 608.59376,134 609.29451,134 c 0.16199,0 2.0081,2.247 4.10248,4.99333 4.13725,5.42511 5.34485,5.64411 12.10301,2.19483 1.65,-0.84214 5.63135,-1.59966 8.84744,-1.68337 5.05396,-0.13155 7.54215,-1.01616 18.33626,-6.51897 13.27647,-6.76832 15.43926,-7.02064 16.14637,-1.88369 0.18154,1.31883 2.08538,4.20608 4.23075,6.41611 3.18751,3.28358 4.53012,3.98863 7.3434,3.85631 1.8935,-0.089 3.90885,-0.45001 4.47857,-0.80211 0.56972,-0.35211 1.91762,-0.0895 2.99533,0.58352 1.56378,0.97659 2.28367,0.95466 3.56484,-0.10862 0.88296,-0.73279 1.93129,-1.00642 2.32963,-0.60808 1.42257,1.42256 -3.15263,3.63618 -6.15326,2.97713 -2.55473,-0.56111 -2.82959,-0.4085 -2.19943,1.22118 0.39609,1.02434 0.9699,3.09993 1.27513,4.61243 0.30523,1.5125 0.97721,2.75 1.49329,2.75 0.51608,0 4.48133,3.375 8.81168,7.5 4.33035,4.125 8.28847,7.5 8.79583,7.5 0.50735,0 5.46681,3.77816 11.02102,8.39592 5.5542,4.61776 14.32695,11.34399 19.49498,14.94717 8.23098,5.7387 9.67245,7.19289 11.62189,11.72448 2.79055,6.48681 1.53954,8.6941 -2.67713,4.72354 C 743.74047,205.36348 734.4,198.91381 724.5,192.45852 708.55454,182.0613 693.15387,170.87707 684.66947,163.53291 c -2.08959,-1.80877 -2.65767,-2.99472 -2.1702,-4.5306 0.5747,-1.81072 0.34325,-2.00089 -1.78511,-1.4667 -1.98678,0.49864 -3.0333,-0.0994 -5.57979,-3.18877 -3.24634,-3.93837 -3.85769,-6.22352 -2.12778,-7.95343 0.67546,-0.67546 0.0175,-1.95418 -2,-3.88709 L 668,139.62582 l 0,69.176 0,69.17599 41.25,0.2725 c 22.6875,0.14987 -124.35,0.27744 -326.75,0.28348 -202.4,0.006 -359.106319,-0.12112 -348.236265,-0.28259 z M 116,255.5 l 0,-22.5 -34.108408,0 -34.108408,0 0.69257,2.75 C 49.150041,238.4274 57,277.04003 57,277.67933 57,277.8557 70.275,278 86.5,278 l 29.5,0 0,-22.5 z m 549,0 0,-22.5 -34.10841,0 -34.10841,0 0.69257,2.75 C 598.15004,238.4274 606,277.04003 606,277.67933 606,277.8557 619.275,278 635.5,278 l 29.5,0 0,-22.5 z m 84,-48.06462 c 0,-0.31054 -0.93264,-2.7326 -2.07254,-5.38236 -1.74701,-4.06105 -3.43548,-5.76247 -10.75,-10.8325 -4.7726,-3.30812 -11.98991,-8.72034 -16.03847,-12.02717 -7.87491,-6.43217 -13.2931,-8.46781 -15.81801,-5.9429 -0.81592,0.81592 -1.10789,2.14129 -0.70372,3.19452 0.37991,0.99003 9.73394,7.73832 20.78674,14.9962 11.0528,7.25788 20.7136,13.95275 21.46844,14.87748 1.32833,1.6273 3.12756,2.26974 3.12756,1.11673 z M 702.43335,175.6869 c -0.85368,-2.22464 3.13817,-5.01126 6.11014,-4.26534 3.60083,0.90375 2.30338,-0.94112 -2.36134,-3.35766 -2.02518,-1.04914 -6.33085,-4.6051 -9.56815,-7.90214 -3.85838,-3.92959 -6.41238,-5.79262 -7.41404,-5.40825 -1.08222,0.41529 -1.28923,0.19995 -0.7095,-0.73808 0.55719,-0.90154 0.43337,-1.08639 -0.38777,-0.5789 -1.23759,0.76488 -7.07434,-4.81021 -14.42246,-13.7759 -2.10087,-2.56335 -4.23837,-4.66063 -4.75,-4.66063 -2.04449,0 -0.72982,3.50275 2.81977,7.51286 5.88044,6.64336 10.02469,11.99095 12.35974,15.94856 1.56405,2.65087 2.72752,3.56123 4.27004,3.34112 1.64977,-0.23541 2.11931,-1.00305 2.11611,-3.45959 -0.002,-1.73637 0.33524,-2.94732 0.75,-2.69098 1.18027,0.72945 0.88371,4.81843 -0.44589,6.14803 -1.8601,1.8601 -4.53058,1.42274 -6.2433,-1.02251 -0.85618,-1.22237 -1.5567,-1.63832 -1.5567,-0.92433 0,1.4021 0.68453,2.03172 12,11.03737 8.58028,6.82879 8.09248,6.51404 7.43335,4.79637 z M 681,155.65499 c 0,-0.73976 -0.81614,-2.08362 -1.81365,-2.98635 -1.38716,-1.25536 -2.08943,-1.36556 -2.98635,-0.46864 -0.89692,0.89692 -0.78672,1.59919 0.46864,2.98635 1.9273,2.12964 4.33136,2.38976 4.33136,0.46864 z M 226.45295,154.83948 C 227.85383,154.2012 229,153.3916 229,153.04037 229,152.46396 223.16144,150 221.79558,150 c -1.11261,0 -1.47974,4.94061 -0.40024,5.38617 1.78876,0.73829 2.37693,0.67471 5.05761,-0.54669 z M 626.5,151.3552 C 635.46611,149.85183 641.13298,148 636.76739,148 c -1.88688,0 -3.10014,-2.96929 -2.18631,-5.35069 1.04276,-2.7174 -2.38185,-3.09447 -7.92758,-0.87287 -2.83442,1.13546 -6.166,2.3556 -7.4035,2.71141 -1.38019,0.39683 -2.25,1.43023 -2.25,2.67316 0,1.18523 -0.83012,2.24331 -2,2.54924 -2.25747,0.59034 -2.6232,1.87161 -0.75,2.62747 1.91864,0.77419 1.63932,0.79659 12.25,-0.98252 z m -377.3581,-4.52962 9.05465,-4.20697 -2.55406,-1.8605 c -2.18258,-1.5899 -2.41233,-2.23328 -1.57963,-4.42345 0.85265,-2.24262 0.75338,-2.47175 -0.79421,-1.83326 -0.97276,0.40132 -5.40597,1.75192 -9.85157,3.00132 -4.44561,1.24941 -8.98096,2.83248 -10.07855,3.51794 -1.97316,1.23226 -1.96942,1.27458 0.33292,3.75884 2.40011,2.58976 3.14111,6.2205 1.26953,6.2205 -0.58246,0 -0.75438,-0.49291 -0.38205,-1.09535 0.37233,-0.60245 0.0749,-2.22027 -0.66089,-3.59516 -1.13678,-2.1241 -1.84682,-2.41721 -4.72431,-1.95026 -2.76702,0.44903 -5.55918,-0.53961 -15.26472,-5.40484 C 207.37597,135.67948 201.34883,133 200.51538,133 c -2.02563,0 -1.93374,1.62548 0.1368,2.42002 0.9087,0.3487 6.8405,3.87274 13.18179,7.8312 16.36782,10.21738 20.17964,10.60327 35.30793,3.57436 z M 642.75,146.01096 c 1.7875,-1.08986 3.25,-2.37738 3.25,-2.86115 0,-0.48378 3.82067,-3.22261 8.49037,-6.08629 4.66971,-2.86368 8.83221,-5.78349 9.25,-6.48847 0.4178,-0.70498 1.43463,-1.53724 2.25963,-1.84947 1.22132,-0.46222 1.18514,-0.58235 -0.19472,-0.64663 -0.9321,-0.0434 -6.3321,2.34791 -12,5.31406 -5.66791,2.96616 -11.97128,5.91896 -14.0075,6.56179 -4.41588,1.39407 -6.001,4.69222 -3.2292,6.719 2.31375,1.69186 2.32065,1.69112 6.18142,-0.66284 z m 9.02106,-4.82414 c 0.24358,-0.73075 -0.21359,-0.95424 -1.1875,-0.58051 -0.87096,0.33422 -1.58356,1.04702 -1.58356,1.58401 0,1.31439 2.27278,0.49134 2.77106,-1.0035 z m -371.1348,-16.31754 c 10.92506,-8.87189 20.65124,-16.63014 21.61374,-17.24054 0.9625,-0.61041 1.75,-1.67659 1.75,-2.36929 0,-0.6927 -0.7875,-1.24957 -1.75,-1.23749 -2.4288,0.0305 -10.25,3.68147 -10.25,4.78476 0,0.49748 -8.325,6.20342 -18.5,12.67987 -10.175,6.47644 -18.5,11.96797 -18.5,12.2034 0,0.23542 0.431,0.16167 0.95778,-0.16389 0.52677,-0.32557 0.3036,0.66037 -0.49593,2.19098 -1.30337,2.49511 -1.27924,2.9122 0.23335,4.03292 0.92788,0.6875 2.44987,1.25 3.38219,1.25 0.93232,0 10.63382,-7.25882 21.55887,-16.13072 z M 218.36163,138.5 c -0.31659,-0.825 -1.20246,-1.5 -1.96862,-1.5 -1.73208,0 -1.83337,1.65564 -0.14301,2.33772 2.20805,0.89097 2.70008,0.69577 2.11163,-0.83772 z M 116,181.5 c 0,-26.125 -0.27657,-47.5 -0.61459,-47.5 -0.33803,0 -4.30229,2.33334 -8.80948,5.1852 l -8.194878,5.1852 1.533902,4.26561 c 1.476896,4.10708 1.447206,4.38286 -0.798823,7.42079 -2.15297,2.91204 -2.207548,3.28035 -0.708263,4.77964 1.371224,1.37122 1.948902,1.42184 3.705672,0.32472 2.70391,-1.68861 3.97944,-0.43354 1.44376,1.4206 -2.73811,2.00215 -5.33029,1.76069 -6.798826,-0.63333 C 96.066313,160.82007 93.5875,159.04537 91.25,158.00466 88.9125,156.96395 87,155.58901 87,154.94924 c 0,-0.71456 -0.674975,-0.88641 -1.75,-0.44553 -4.149891,1.7019 -27.860191,5.52484 -30.684513,4.94744 C 52.879469,159.10646 49.025,157.98129 46,156.95079 c -3.025,-1.03051 -8.805607,-2.8229 -12.845793,-3.98309 -4.040186,-1.1602 -7.168111,-2.28713 -6.950945,-2.5043 0.217167,-0.21716 5.547774,1.18802 11.845793,3.12264 19.059433,5.85464 19.162453,5.87098 21.193522,3.36272 2.215919,-2.73655 2.198885,-3.23927 -0.182796,-5.39466 -1.210299,-1.0953 -6.006914,-2.45493 -12.75,-3.61406 -12.030021,-2.06795 -19.369492,-3.84412 -20.675951,-5.00364 -0.476393,-0.4228 2.418174,0.0935 6.432371,1.14743 4.014198,1.05389 8.453974,1.88064 9.86617,1.83722 3.014141,-0.0927 3.117306,-0.0496 -8.263712,-3.45173 -4.857238,-1.45198 -8.647217,-2.8241 -8.422175,-3.04914 0.225041,-0.22504 7.799145,1.88117 16.831341,4.68046 17.751297,5.50156 22.272495,5.85578 29.118411,2.28134 1.853416,-0.96772 5.833751,-1.79092 9.066849,-1.87518 4.94945,-0.12899 7.651103,-1.09304 19.136182,-6.8285 7.355203,-3.67306 13.761813,-6.67145 14.236913,-6.66307 1.31107,0.0231 -22.560799,12.04689 -27.091319,13.64535 -5.741299,2.02565 -7.333554,5.31177 -3.553892,7.33459 2.290292,1.22572 6.266162,-0.41184 9.395587,-3.86982 1.035009,-1.14367 6.546447,-5.05305 12.247644,-8.68751 5.70119,-3.63445 10.3658,-6.96469 10.3658,-7.40053 0,-1.42828 -2.39739,-2.82806 -9.28059,-5.41869 l -6.780587,-2.55202 -3.219411,1.96296 c -1.770677,1.07963 -4.486496,1.96465 -6.035153,1.9667 -1.548658,0.002 -3.686158,0.46957 -4.75,1.03892 -2.165049,1.1587 -2.608471,4.55736 -0.684259,5.24458 0.6875,0.24554 0.923375,0.79716 0.524166,1.22584 -0.399209,0.42867 -1.411709,0.21018 -2.25,-0.48554 C 80.593035,133.41736 80.479896,128 82.377555,128 c 1.966764,0 4.003745,-2.64631 2.671003,-3.46999 -0.576707,-0.35642 -1.049016,-1.40899 -1.049575,-2.33903 -5.91e-4,-0.98389 -2.058689,-2.84666 -4.921851,-4.45474 -2.70646,-1.52006 -6.798578,-4.33256 -9.093597,-6.25 C 67.688516,109.56881 65.223724,108 64.506219,108 63.788714,108 60.321187,105.4125 56.800603,102.25 53.28002,99.0875 47.947145,94.313958 44.949771,91.64213 L 39.5,86.784259 l 6,4.781489 c 3.3,2.629819 7.678822,6.361213 9.730715,8.291987 2.051893,1.930775 4.526893,3.594585 5.5,3.697355 0.973107,0.10277 2.526368,0.50639 3.451692,0.89693 1.238613,0.52277 2.098625,-0.0948 3.260277,-2.34118 1.542035,-2.981971 1.515182,-3.089438 -1.182407,-4.732046 -7.712086,-4.696021 -19.509225,-13.01432 -21.026857,-14.826279 -1.67297,-1.997425 -1.652203,-1.996252 0.773734,0.04368 2.566512,2.158142 13.110825,9.33859 23.249955,15.832713 3.166409,2.028092 8.233237,4.782502 11.259616,6.120912 3.2259,1.42664 6.222574,3.5885 7.242891,5.22516 1.110387,1.78113 2.400795,2.6574 3.564788,2.4207 C 93.277723,111.79848 97,114.57691 97,116.43213 c 0,0.61719 3.825,3.01916 8.5,5.33772 l 8.5,4.21557 0,-6.99271 0,-6.99271 -3.84501,0 c -5.17304,0 -7.6306,-2.68171 -6.85237,-7.47738 0.66884,-4.12157 -0.57592,-4.561335 -2.89458,-1.02262 -2.038874,3.11172 -3.77554,3.26368 -2.857147,0.25 1.043495,-3.4242 3.663917,-5.927088 5.659147,-5.405323 0.98378,0.257263 2.85596,-0.03592 4.16041,-0.65152 2.11732,-0.999213 2.49898,-2.169325 3.55817,-10.908614 0.65255,-5.384139 0.85609,-10.32387 0.45232,-10.97718 -0.40376,-0.653311 -0.62522,-13.682044 -0.49211,-28.95274 0.22721,-26.067313 0.37924,-28.119209 2.48661,-33.559763 3.61907,-9.3433222 5.00369,-7.8681228 5.82413,6.20514 0.38476,6.6 1.45384,20.775 2.37571,31.5 2.02919,23.607339 2.38503,44.098096 0.80035,46.088068 -1.67748,2.106512 -2.54946,7.299572 -3.05555,18.197242 -0.43123,9.28578 -0.33613,9.88392 1.86275,11.71674 1.27444,1.06227 1.80281,1.94638 1.17416,1.96468 -0.62866,0.0183 -1.42126,0.75837 -1.76134,1.64461 -0.43558,1.13509 -0.18669,1.4457 0.84208,1.05093 0.9058,-0.34759 1.27719,-0.083 0.97796,0.69685 -0.26535,0.6915 1.22006,4.2552 3.30092,7.91933 3.58476,6.3123 3.97717,6.66364 7.47437,6.69181 2.03004,0.0164 3.96469,0.4726 4.29921,1.01387 0.33452,0.54127 2.20608,-0.61373 4.15902,-2.56667 1.95293,-1.95294 3.76725,-3.33433 4.03181,-3.06977 0.81332,0.81332 -1.61554,4.5469 -3.675,5.64909 -1.51093,0.80862 -1.81448,1.71091 -1.35258,4.02043 0.32756,1.63781 0.0978,3.57764 -0.51065,4.31074 -0.84891,1.02287 -0.39068,2.01201 1.96999,4.25248 1.69191,1.60576 4.35631,5.44001 5.92088,8.52056 1.56458,3.08054 3.9353,6.90554 5.26827,8.5 2.72482,3.25934 20.10564,33.76894 18.76592,32.94095 -0.47328,-0.29251 -4.04474,-6.27975 -7.93657,-13.30497 -7.66851,-13.84259 -11.16923,-17.3574 -15.16037,-15.2214 -2.92976,1.56796 -2.21036,3.10659 8.61575,18.42722 C 162.764,207.76952 167,214.10962 167,214.5319 c 0,0.42227 -3.90823,-4.81215 -8.68496,-11.63206 C 153.53831,196.07993 146.43605,186.9 142.53225,182.5 c -6.82418,-7.69158 -8.66921,-10.79128 -9.97002,-16.75 -0.33018,-1.5125 -1.19702,-2.75 -1.92629,-2.75 -2.51126,0 -4.63767,-3.5586 -4.5283,-7.57822 0.0674,-2.47717 -1.05951,-6.4479 -3.05931,-10.7796 -1.74131,-3.7718 -2.97087,-7.05297 -2.73235,-7.29149 0.23851,-0.23851 1.20344,1.4975 2.14428,3.85782 3.62646,9.09778 11.10075,23.76819 12.36218,24.26426 1.81586,0.7141 5.17756,-1.22395 5.17756,-2.9849 0,-0.79297 -1.10832,-2.16796 -2.46294,-3.05554 -1.35461,-0.88758 -5.71659,-7.18597 -9.69328,-13.99643 -3.9767,-6.81046 -7.47514,-12.13788 -7.77431,-11.8387 -0.78683,0.78683 -0.75167,-1.09777 -0.91716,49.1528 -0.13297,40.37675 -0.34279,46.25 -1.65231,46.25 -1.31228,0 -1.5,-5.94444 -1.5,-47.5 z m 30.39019,3.07444 c -0.32136,-0.83747 0.51666,-2.12252 2.03139,-3.11501 2.39402,-1.56862 2.75721,-1.5723 5.07842,-0.0514 3.23947,2.12259 3.15209,1.68416 -0.60206,-3.02054 -1.70614,-2.13812 -4.36942,-6.38942 -5.9184,-9.44733 C 143.84706,162.75623 141,159.62057 141,162.3545 c 0,1.93166 -4.49111,5.07804 -5.95602,4.17268 -1.58153,-0.97744 -1.25012,2.1735 0.60613,5.76311 C 137.07366,175.04311 145.8723,186 146.65934,186 c 0.15284,0 0.0317,-0.6415 -0.26915,-1.42556 z M 131,161.52417 c 0,-0.26171 -0.89832,-1.94921 -1.99626,-3.75 -1.95119,-3.20024 -1.99635,-3.2166 -2,-0.72417 -0.002,1.4025 0.53626,3.09 1.19626,3.75 1.20302,1.20302 2.8,1.61605 2.8,0.72417 z M 72.035454,156.45295 C 81.357429,154.87222 87.197858,153 82.806989,153 c -1.929072,0 -3.069816,-2.59654 -2.260713,-5.1458 0.954285,-3.00669 -2.217296,-3.35858 -8.141159,-0.90328 -2.971039,1.23143 -7.216993,2.48242 -9.435454,2.77997 -3.842287,0.51536 -3.954667,0.6282 -2.369814,2.37944 1.553066,1.71612 1.546913,2.01674 -0.09249,4.51879 -1.312867,2.00369 -1.400304,2.54378 -0.346346,2.13934 0.775444,-0.29757 6.118944,-1.33955 11.874445,-2.31551 z m 25.921093,-6.90059 c 0.764649,-0.92135 0.877223,-2.02698 0.309649,-3.04118 -0.793639,-1.41815 -1.18858,-1.36007 -3.588519,0.52772 -1.483203,1.16669 -2.440888,2.53522 -2.128188,3.04117 0.869227,1.40644 4.060326,1.095 5.407058,-0.52771 z m -51.22738,-3.15653 c -0.332292,-0.33229 -1.194792,-0.36781 -1.916667,-0.0789 -0.797733,0.31922 -0.560776,0.55618 0.604167,0.60416 1.054166,0.0434 1.644791,-0.19293 1.3125,-0.52522 z M 121,127.87972 c 0,-0.36616 -0.70401,-0.9359 -1.56447,-1.26609 -1.53329,-0.58837 -1.59797,-7.33327 -0.24084,-25.11363 0.26435,-3.463413 0.0126,-4.041677 -1.87703,-4.310684 -3.47714,-0.495016 -4.54204,2.69686 -3.35014,10.041514 0.55955,3.44804 1.02077,9.46334 1.02493,13.36733 l 0.008,7.09816 -9.75,-4.9619 c -5.3625,-2.72904 -11.405651,-6.07484 -13.429225,-7.43511 -4.36988,-2.93748 -6.958304,-2.70846 -7.978485,0.70594 l -0.745401,2.49475 0.201555,-2.47497 c 0.116224,-1.42714 1.146572,-2.9442 2.433688,-3.5833 1.871439,-0.92924 2.033031,-1.3775 1,-2.77401 -1.684031,-2.27656 -17.145358,-9.928043 -17.558298,-8.68922 -0.182369,0.54711 -1.11374,1.96067 -2.069711,3.14124 -1.497556,1.8494 -2.052132,1.97845 -4.006773,0.93236 -1.247753,-0.66778 -2.472409,-1.01037 -2.721457,-0.76133 -0.249048,0.24905 1.502285,1.37182 3.891851,2.49505 2.389567,1.12323 4.938464,2.75772 5.664216,3.6322 2.168328,2.61267 12.753204,8.63905 14.213331,8.0922 0.74509,-0.27906 7.631748,1.86471 15.303686,4.76393 C 111.82266,127.95015 121,129.9114 121,127.87972 z M 95.020056,114.52417 c -0.69572,-0.8383 -1.997345,-1.5092 -2.892501,-1.4909 -1.258878,0.0257 -1.08579,0.48444 0.764108,2.025 2.655006,2.21105 4.104737,1.84724 2.128393,-0.5341 z M 113,108.08179 c 0,-1.60502 -0.27822,-3.64324 -0.61827,-4.52939 -0.55548,-1.44757 -0.75534,-1.43049 -1.96819,0.16821 -0.74246,0.97866 -1.36424,3.01689 -1.38174,4.52939 -0.0242,2.09393 0.44534,2.75 1.9682,2.75 1.5431,0 2,-0.66667 2,-2.91821 z M 116.99769,96 c 1.03635,0 2.18662,0.48921 2.55616,1.087132 2.31362,3.743518 3.97538,-6.573634 2.98117,-18.508898 l -0.71487,-8.581928 -2.54493,2.001847 c -3.39345,2.669288 -3.96712,2.555383 -6.28618,-1.248153 -2.22677,-3.652171 -2.37878,-3.152122 -0.93933,3.090018 0.68835,2.98503 0.64984,6.97748 -0.12337,12.787785 -0.6183,4.646272 -0.82986,9.620466 -0.47013,11.053765 l 0.65407,2.606002 1.50156,-2.143786 C 114.4377,96.964703 115.96133,96 116.99769,96 z m 2.65524,-25.56202 c 2.29969,-2.299686 2.49982,-3.093234 1.95454,-7.75 C 120.46096,52.896448 118,19.51856 118,13.759946 118,10.591976 117.6103,8 117.13399,8 c -0.4763,0 -1.80664,2.5875 -2.9563,5.75 -1.87957,5.170339 -2.10488,8.129574 -2.23497,29.354391 -0.12281,20.037503 0.10113,24.079728 1.48198,26.75 1.97185,3.813136 2.91071,3.901108 6.22823,0.583589 z m 54.14059,156.83635 C 171.97998,225.21228 167.71915,217 168.46283,217 c 0.27691,0 1.6275,2.21815 3.00131,4.92923 2.46473,4.86392 4.17651,6.76345 5.1856,5.75436 0.28417,-0.28417 -0.38716,-3.81284 -1.49185,-7.84148 -1.10468,-4.02865 -1.84376,-7.48958 -1.64239,-7.69095 0.52476,-0.52475 3.55421,10.21555 3.78803,13.42966 0.23975,3.29574 -1.40356,4.08861 -3.51001,1.69351 z M 583.5212,160.0343 c -0.32826,-0.53114 0.26405,-2.66864 1.31625,-4.75 1.05221,-2.08137 3.81909,-9.1843 6.14864,-15.7843 3.87253,-10.97155 6.57202,-15.5 9.23982,-15.5 1.25588,0 7.77409,7.03437 7.77409,8.3897 0,0.54937 -1.13403,-0.53823 -2.52007,-2.4169 -5.57064,-7.55058 -7.89704,-6.29577 -12.38624,6.68083 -1.87347,5.4155 -4.68597,12.72111 -6.25,16.23469 -3.22634,7.24794 -3.19096,7.11168 -1.84657,7.11168 2.37699,0 8.57627,-7.02152 9.83616,-11.14078 0.7333,-2.39757 2.31075,-6.54509 3.50544,-9.21671 l 2.17217,-4.8575 2.31744,4.3575 c 2.1065,3.96086 1.14069,3.47072 -1.36638,-0.69343 -0.86214,-1.43198 -1.49763,-0.55277 -3.75,5.18814 -1.49157,3.80177 -2.71195,7.40635 -2.71195,8.01018 0,1.30685 -8.53269,9.3526 -9.91864,9.3526 -0.52983,0 -1.2319,-0.43457 -1.56016,-0.9657 z M 16.552478,147.44648 C 10.738099,145.03277 6,141.56897 6,139.73207 c 0,-0.50562 0.8688615,-1.14652 1.9308034,-1.42423 1.0661299,-0.27879 1.707346,-1.08723 1.4318263,-1.80523 -0.2744374,-0.71517 -0.012386,-1.60104 0.5823373,-1.9686 1.196012,-0.73917 11.665075,2.02601 12.444359,3.28692 0.270115,0.43705 -2.191077,-0.0848 -5.469317,-1.1596 -3.27824,-1.07483 -6.240466,-1.67421 -6.582724,-1.33195 -1.2882484,1.28825 1.935719,3.53663 6.715326,4.68324 2.724456,0.65359 5.178475,1.55227 5.453375,1.99707 0.274901,0.4448 -2.313986,-0.047 -5.753083,-1.09284 C 9.9599666,138.85105 7,138.52575 7,139.84501 c 0,1.67291 3.776645,4.20417 10.079677,6.7558 3.531178,1.42952 6.607823,2.77914 6.83699,2.99916 1.01091,0.97055 -1.863529,0.12999 -7.364189,-2.15349 z M 310.52823,127.04568 C 309.76654,125.81324 312.68756,120 314.06852,120 c 0.55944,0 3.25013,-2.08868 5.97932,-4.64152 3.79221,-3.54716 4.70663,-4.9494 3.87839,-5.94737 -0.59607,-0.71821 -1.00658,-3.24203 -0.91226,-5.60848 0.28318,-7.104278 0.40619,-6.929938 -4.6589,-6.602712 -2.75614,0.178059 -4.80399,-0.150594 -5.0361,-0.808225 -0.22983,-0.651166 0.758,-1.072488 2.39493,-1.021465 1.53235,0.04776 3.97224,-0.236682 5.42198,-0.632101 2.11608,-0.57717 2.73616,-0.335458 3.14442,1.225727 0.42849,1.63855 1.11547,1.854248 4.36412,1.370244 C 330.76499,97.018162 333.4,96.190067 334.5,95.493885 338.95391,92.675037 350.63112,78.903118 356.54021,69.5 l 6.28418,-10 -8.14093,-4.034802 c -6.78042,-3.360503 -8.62103,-4.811332 -11.01366,-8.681324 -4.17216,-6.74832 -1.72679,-9.227039 4.19068,-4.247819 C 351.08486,45.249196 364.93678,52 367.27947,52 c 2.63565,0 5.02467,3.729313 4.39758,6.864729 -1.06877,5.343887 -14.42131,31.954828 -19.05641,37.97849 -3.21933,4.183761 -5.85951,6.471071 -8.94008,7.745211 -2.45147,1.01394 -5.052,2.99364 -5.92068,4.50723 -0.90733,1.58094 -2.78356,2.97027 -4.5289,3.35361 -1.6389,0.35996 -4.04883,1.79504 -5.3554,3.18906 -2.02543,2.16099 -11.78927,9.50775 -15.55648,11.7054 -0.6495,0.37889 -1.45539,0.24477 -1.79087,-0.29805 z M 321.5,119.88339 c 2.75,-2.02386 7.45963,-6.20056 10.46584,-9.28156 3.00621,-3.08101 6.25288,-5.60183 7.21482,-5.60183 3.57628,0 5.06458,-6.263203 1.89178,-7.96123 -2.81554,-1.506831 -4.59621,-0.421263 -6.60079,4.0241 C 332.84168,104.67749 316.18709,121 314.12889,121 313.41824,121 311,125.30498 311,126.57011 c 0,0.62012 4.24348,-2.08226 10.5,-6.68672 z m 15.61269,-11.09395 c 1.66025,-3.10221 0.49068,-3.02866 -2.56555,0.16136 -2.55601,2.6679 -2.61373,2.87938 -0.64543,2.36465 1.18889,-0.3109 2.63383,-1.44761 3.21098,-2.52601 z m 14.73698,-12.206552 c 2.11556,-2.802047 4.56686,-6.487692 5.44733,-8.190323 1.58869,-3.072194 1.58247,-3.092181 -0.81894,-2.633122 -3.63511,0.694895 -5.16579,-3.245116 -3.04073,-7.826912 0.87561,-1.887892 1.3585,-2.603226 1.07308,-1.58963 -1.994,7.081264 -1.2586,9.312682 2.73855,8.309463 2.00202,-0.502476 3.53439,-2.961252 8.17851,-13.12291 3.14319,-6.877519 5.57036,-13.476719 5.39371,-14.664889 -0.3595,-2.418081 -0.61221,-2.577852 -10.12285,-6.400033 -3.74092,-1.503418 -8.24092,-3.788339 -10,-5.077601 -8.23074,-6.032456 -10.40831,-5.622998 -6.10094,1.147189 2.43981,3.834812 4.17816,5.145825 10.90261,8.22241 4.4,2.013097 8.1492,3.753117 8.33155,3.86671 1.19796,0.746236 -13.7452,22.205797 -20.33155,29.197728 -4.4,4.670947 -7.14909,8.186863 -6.1091,7.813146 1.11072,-0.399127 2.9082,-0.01293 4.35645,0.935996 1.97802,1.296048 2.35199,2.183188 1.89132,4.48656 -0.54931,2.74655 -0.46711,2.82228 1.89515,1.74597 1.35815,-0.61882 4.20028,-3.417705 6.31585,-6.219752 z M 551,126.07652 C 548.10017,123.97429 532.08854,114 531.61369,114 c -0.17606,0 -0.11304,2.15496 0.14004,4.78881 0.60584,6.30511 -0.92435,7.64143 -7.97437,6.96401 -2.86566,-0.27535 -5.96919,-0.0267 -6.89673,0.55255 C 514.86835,127.56331 510,124.85532 510,122.47695 c 0,-2.03039 0.87691,-1.85053 2.84846,0.58424 2.3639,2.91929 4.91718,1.70207 4.36215,-2.07957 -0.26987,-1.83876 0.34745,-4.26228 1.64652,-6.46404 1.14304,-1.93731 1.80718,-4.22879 1.47587,-5.09217 -0.33131,-0.86338 0.35823,-2.86908 1.53231,-4.4571 1.17408,-1.58803 2.13469,-3.26727 2.13469,-3.73165 0,-1.784075 6.72968,-7.010974 11.68538,-9.075965 10.39807,-4.332769 14.71886,-1.86 16.63287,9.518925 0.66421,3.9488 1.42683,7.38926 1.69471,7.64548 0.26787,0.25622 5.43704,0.99289 11.48704,1.63704 11.43312,1.2173 20.01814,4.01515 19.24208,6.27098 -0.57601,1.67432 -34.48212,1.22752 -36.54139,-0.48153 -0.75014,-0.62256 -2.71578,-3.81001 -4.3681,-7.08322 l -3.0042,-5.9513 -2.6642,2.68347 -2.66419,2.68346 2.5,2.02687 c 1.375,1.11478 5.875,4.28066 10,7.03531 7.66915,5.12139 9.57685,7.11143 8.49511,8.86174 -0.88607,1.43369 -2.6436,1.13579 -5.49511,-0.9314 z m 4.98469,0.17348 c -0.0301,-1.47441 -1.56142,-2.86419 -6.82816,-6.19704 -2.93891,-1.85978 -9.22625,-6.47128 -13.97187,-10.24778 -4.74561,-3.77651 -9.30058,-6.73692 -10.12215,-6.5787 -0.82157,0.15822 -2.18423,1.54739 -3.02814,3.08705 -1.42401,2.59803 -1.39475,2.90321 0.40676,4.24293 1.06762,0.79394 3.26888,1.44354 4.89169,1.44354 2.61939,0 15.40294,7.05994 23.66718,13.07061 2.60884,1.89744 5.01095,2.46578 4.98469,1.17939 z m -25.23529,-9.66728 c -0.23094,-3.16428 -0.52704,-3.44388 -3.9994,-3.77643 -3.10621,-0.29748 -3.75,-0.0429 -3.75,1.48303 0,3.49905 1.94979,5.71068 5.03458,5.71068 2.756,0 2.9467,-0.24004 2.71482,-3.41728 z M 584,117.10858 c 0,-1.80115 -8.04951,-4.02927 -18.63348,-5.15779 -5.97659,-0.63725 -11.37175,-1.56945 -11.98926,-2.07154 -0.6175,-0.5021 -1.4258,-3.59162 -1.79621,-6.86562 -0.37041,-3.273993 -1.11002,-6.222515 -1.64357,-6.552271 -0.53356,-0.329756 -0.73024,-0.987671 -0.43706,-1.462035 C 550.274,93.74764 545.95429,91 543.21288,91 c -6.02882,0 -21.12746,9.32877 -17.36598,10.72965 0.7408,0.27589 2.82521,1.79958 4.63202,3.38598 1.80681,1.58641 3.70401,2.88437 4.216,2.88437 0.512,0 2.12809,-1.2496 3.59132,-2.77689 2.1889,-2.28471 2.5592,-3.40068 2.08929,-6.296385 -0.77183,-4.756243 1.35758,-6.623595 5.89436,-5.168961 l 3.23011,1.035673 -4,-0.146718 -4,-0.146719 0.25371,4.862038 c 0.16588,3.179012 1.37743,6.986732 3.5,11.000002 L 548.5,116.5 l 8.5,0.5637 c 14.44594,0.95801 27,0.97888 27,0.0449 z M 415,101.41029 c 0,-0.32434 0.92753,-1.34078 2.06119,-2.258754 3.36262,-2.722884 1.67408,-4.724426 -3.62975,-4.302596 -3.01667,0.239926 -5.11085,-0.135217 -6.23659,-1.117199 -0.93217,-0.813129 -3.30274,-1.765871 -5.26794,-2.117204 C 396.86662,90.709873 388.79458,82.900671 386.11204,76.314619 381.81756,65.77101 384.29236,61.595378 396,59.631044 l 7.5,-1.258366 0.5255,-10.936339 c 0.4659,-9.696003 0.84712,-11.480299 3.36133,-15.732563 4.01163,-6.784852 5.1842,-5.716873 4.76757,4.342312 -0.46817,11.303533 0.60619,20.983012 2.25861,20.34892 0.69661,-0.267314 1.84879,0.215514 2.5604,1.072952 1.10471,1.331096 0.39726,2.56778 -4.83979,8.460401 -6.00893,6.761129 -6.70061,8.356053 -5.5248,12.739564 0.52704,1.964829 1.06727,2.117791 5.76662,1.632776 6.74771,-0.696426 8.06901,0.722044 7.37738,7.919935 -0.27535,2.865666 -0.0267,5.969198 0.55255,6.896737 0.78647,1.259336 0.62207,2.344418 -0.64914,4.284531 C 418.16499,101.67783 415,103.04299 415,101.41029 z m -9.90763,-12.582892 c 0.76042,-1.420843 0.94093,-4.559207 0.52171,-9.069938 l -0.64104,-6.897336 6.18467,-6.958868 c 4.3103,-4.849861 5.8672,-7.276349 5.13712,-8.006426 -0.73008,-0.730077 -3.08274,1.021292 -7.76284,5.778806 -5.97914,6.078053 -6.79359,7.38039 -7.42966,11.880386 -0.39291,2.779712 -1.47667,6.142339 -2.40836,7.472506 -2.32604,3.320892 -2.12221,5.865787 0.55603,6.94231 3.50779,1.409959 4.59007,1.198511 5.84237,-1.14144 z m 5.28366,-0.952867 c 2.24225,-1.02164 4.40943,-5.422401 3.24414,-6.58769 -0.26244,-0.262439 -1.81309,-0.183742 -3.4459,0.174883 -2.47471,0.543538 -3.03563,1.22501 -3.3707,4.09516 -0.43973,3.766576 -0.0964,3.9893 3.57246,2.317647 z M 397.75,83.04418 c 4.16491,-7.293993 1.94891,-12.518689 -4.84226,-11.416634 -4.73619,0.768578 -6.60218,-1.368238 -5.14998,-5.89744 L 388.79344,62.5 l -0.14672,4 -0.14672,4 5.38232,-0.292746 C 400.26635,69.860025 403.28913,68.430272 408,63.529687 l 3.5,-3.640952 0,-15.944321 c 0,-8.769377 -0.225,-15.937859 -0.5,-15.92996 -0.275,0.0079 -1.7375,2.258113 -3.25,5.000476 -2.50562,4.543022 -2.75,5.913164 -2.75,15.418204 0,11.715138 0.58738,10.903559 -8.74888,12.088216 -2.88689,0.36631 -5.50548,1.081201 -5.8191,1.588646 -0.31362,0.507445 -0.95833,0.682759 -1.4327,0.389586 C 387.74764,61.725999 385,66.045705 385,68.787125 c 0,4.937891 7.26178,18.241778 9.93709,18.205173 0.3096,-0.0042 1.57541,-1.780889 2.81291,-3.948118 z M 401,70.972368 c 0,-0.500279 -0.67242,-0.651568 -1.49426,-0.336198 -0.82184,0.31537 -1.24074,0.983587 -0.9309,1.484927 C 399.2229,73.169682 401,72.327922 401,70.972368 z m 66.62537,25.885069 C 465.41721,94.954776 464.64638,93.053166 463.6296,87 l -1.25982,-7.5 -10.69042,-0.283888 c -9.06229,-0.240652 -11.20371,-0.621396 -14.06076,-2.5 -1.8537,-1.218862 -4.18009,-2.69395 -5.16977,-3.277974 -1.09305,-0.645028 -1.49653,-1.551946 -1.02782,-2.310324 0.57119,-0.924217 2.80742,-1.070873 8.6103,-0.564681 9.96454,0.869219 21.04302,-0.205864 20.3637,-1.976143 -0.26732,-0.696609 0.21551,-1.848789 1.07295,-2.560399 1.3311,-1.104712 2.56778,-0.397265 8.4604,4.839786 6.76113,6.008937 8.35605,6.700611 12.73957,5.5248 1.96482,-0.527036 2.11779,-1.067264 1.63277,-5.766613 -0.69642,-6.747713 0.72204,-8.069012 7.91994,-7.377386 2.86566,0.275355 5.96919,0.02671 6.89673,-0.552552 1.25934,-0.786468 2.34442,-0.622069 4.28453,0.649142 C 505.91006,64.987173 507.04383,69 505,69 c -0.55,0 -1,-0.6199 -1,-1.377555 0,-1.937695 -2.46916,-3.763377 -4.19443,-3.10133 -0.97691,0.374877 -1.3025,1.546411 -1.0009,3.601396 0.29716,2.024676 -0.21888,3.946465 -1.53927,5.732391 -1.32974,1.79857 -1.83691,3.704532 -1.53433,5.766123 0.97345,6.632505 -11.68165,17.72359 -21.8004,19.106156 -2.76369,0.377614 -4.18688,-0.04441 -6.3053,-1.869744 z m 12.68925,-1.020045 C 484.99069,93.887196 491.012,89.503041 490.9923,88.062909 490.9766,86.915848 483.02146,83 480.70687,83 c -3.65006,0 -5.7536,2.93718 -5.07932,7.09226 0.76857,4.736193 -1.36824,6.602181 -5.89744,5.149976 L 466.5,94.206563 l 4,0.146718 4,0.146719 -0.29275,-5.382322 C 473.86002,82.733646 472.43027,79.710869 467.52969,75 l -3.64095,-3.5 -15.94433,0 c -8.76937,0 -15.94434,0.282906 -15.94436,0.62868 -3e-5,0.345773 1.33503,1.181688 2.96679,1.857587 1.63177,0.675898 3.48687,1.855493 4.12245,2.62132 C 439.95216,77.647281 443.10992,78 451.55506,78 c 12.70814,0 11.77639,-0.628685 12.96629,8.748883 0.36631,2.886886 1.0812,5.50548 1.58865,5.819098 0.50744,0.313619 0.68276,0.958331 0.38958,1.432695 C 465.726,95.25236 470.04571,98 472.78712,98 c 1.28817,0 4.67554,-0.973174 7.5275,-2.162608 z m 14.1425,-13.184644 c 1.59724,-4.559753 -1.18851,-5.980153 -10.29794,-5.250717 l -7.34082,0.587816 -6.93799,-6.166118 c -4.8353,-4.297367 -7.25546,-5.848636 -7.98554,-5.118559 -0.73008,0.730077 1.02129,3.082741 5.77881,7.762838 6.07805,5.979146 7.38039,6.793591 11.88038,7.429663 2.77971,0.392911 6.15471,1.490027 7.5,2.438035 3.37523,2.37848 6.20582,1.734997 7.4031,-1.682958 z m -17.99983,0.278154 c -0.94036,-1.521544 -2.44282,-1.056767 -1.82112,0.563354 0.31537,0.821841 0.98359,1.240747 1.48493,0.930902 0.50134,-0.309845 0.65263,-0.98226 0.33619,-1.494256 z m 15.43637,-9.386561 c -1.88985,-3.203059 -5.35035,-5.420983 -6.56418,-4.207153 -0.28589,0.28589 -0.222,1.875703 0.14199,3.532917 0.53917,2.454845 1.25161,3.086924 3.84516,3.411469 1.75085,0.219094 3.50569,0.470369 3.89964,0.558389 0.39396,0.08802 -0.20122,-1.39501 -1.32261,-3.295622 z M 33.453781,81.23249 C 27.87669,76.002133 24.995729,70.604271 26.811919,68.788081 c 1.081446,-1.081446 4.485962,1.331101 13.534299,9.590835 L 43.5,81.257831 40.325497,78.878916 c -1.745976,-1.308404 -5.244904,-4.129988 -7.775395,-6.270188 -2.530491,-2.140199 -4.875035,-3.617128 -5.210099,-3.282064 -1.299825,1.299825 2.306459,7.310189 7.118082,11.863254 2.773053,2.62404 4.816915,4.7719 4.541915,4.773022 -0.275,0.0011 -2.770799,-2.127581 -5.546219,-4.73045 z"
       id="path2989"
       style="fill:#000000" />
  </g>
</svg>
