<?xml version="1.0" encoding="UTF-8" standalone="no"?>
<!-- Created with Inkscape (http://www.inkscape.org/) -->

<svg
   xmlns:dc="http://purl.org/dc/elements/1.1/"
   xmlns:cc="http://creativecommons.org/ns#"
   xmlns:rdf="http://www.w3.org/1999/02/22-rdf-syntax-ns#"
   xmlns:svg="http://www.w3.org/2000/svg"
   xmlns="http://www.w3.org/2000/svg"
   xmlns:sodipodi="http://sodipodi.sourceforge.net/DTD/sodipodi-0.dtd"
   xmlns:inkscape="http://www.inkscape.org/namespaces/inkscape"
   version="1.1"
   width="573"
   height="296"
   id="svg2"
   inkscape:version="0.91 r13725"
   sodipodi:docname="ub640102.svg">
  <sodipodi:namedview
     pagecolor="#bcbcbc"
     bordercolor="#666666"
     borderopacity="1"
     objecttolerance="10"
     gridtolerance="10"
     guidetolerance="10"
     inkscape:pageopacity="0"
     inkscape:pageshadow="2"
     inkscape:window-width="1528"
     inkscape:window-height="862"
     id="namedview11"
     showgrid="false"
     inkscape:zoom="1.5055328"
     inkscape:cx="305.17015"
     inkscape:cy="165.63905"
     inkscape:window-x="0"
     inkscape:window-y="0"
     inkscape:window-maximized="0"
     inkscape:current-layer="svg2" />
  <metadata
     id="metadata8">
    <rdf:RDF>
      <cc:Work
         rdf:about="">
        <dc:format>image/svg+xml</dc:format>
        <dc:type
           rdf:resource="http://purl.org/dc/dcmitype/StillImage" />
        <dc:title></dc:title>
      </cc:Work>
    </rdf:RDF>
  </metadata>
  <defs
     id="defs6" />
  <g
     id="g3368"
     transform="translate(1.0987258e-4,0.0063632)">
    <path
       style="color:#000000;clip-rule:nonzero;display:inline;overflow:visible;visibility:visible;opacity:1;isolation:auto;mix-blend-mode:normal;color-interpolation:sRGB;color-interpolation-filters:linearRGB;solid-color:#000000;solid-opacity:1;fill:#000000;fill-opacity:1;fill-rule:evenodd;stroke:none;stroke-width:3.00000024;stroke-linecap:round;stroke-linejoin:round;stroke-miterlimit:4;stroke-dasharray:none;stroke-dashoffset:0;stroke-opacity:1;color-rendering:auto;image-rendering:auto;shape-rendering:auto;text-rendering:auto;enable-background:accumulate"
       d="m 116.2014,136.67102 c 2.81208,0 3.85973,0.38597 3.30833,1.37848 -0.55139,0.99249 -1.7093,2.37097 -3.19806,2.31583 -1.48874,-0.0551 -0.88222,-3.47376 -0.11024,-3.69431 z"
       id="path3352"
       inkscape:connector-curvature="0" />
    <path
       inkscape:connector-curvature="0"
       id="path3350"
       d="m 116.34102,137.18638 c 1.92308,0 2.63953,0.26606 2.26245,0.95026 -0.37708,0.68417 -1.16893,1.63442 -2.18704,1.59642 -1.01809,-0.038 -0.60331,-2.39464 -0.0754,-2.54668 z"
       style="color:#000000;clip-rule:nonzero;display:inline;overflow:visible;visibility:visible;opacity:1;isolation:auto;mix-blend-mode:normal;color-interpolation:sRGB;color-interpolation-filters:linearRGB;solid-color:#000000;solid-opacity:1;fill:#ffffff;fill-opacity:1;fill-rule:evenodd;stroke:none;stroke-width:3.00000024;stroke-linecap:round;stroke-linejoin:round;stroke-miterlimit:4;stroke-dasharray:none;stroke-dashoffset:0;stroke-opacity:1;color-rendering:auto;image-rendering:auto;shape-rendering:auto;text-rendering:auto;enable-background:accumulate" />
    <path
       style="fill:#fefefe"
       d="m 527.51562,12.464844 c -0.35244,0 -1.59973,2.634546 -2.77343,5.853515 -1.93452,5.305607 -2.13232,7.852733 -2.10352,27.25 0.0323,21.753829 0.34745,23.748091 3.96875,25.15625 2.23492,0.86906 4.81655,0.845286 5.36914,-0.04883 0.69145,-1.118786 -3.68375,-58.210939 -4.46094,-58.210935 z m -402.32226,39.09375 c -2.94857,0.0089 -10.56336,5.43334 -20.5918,14.765625 -13.771886,12.815888 -15.819771,15.674991 -14.035154,19.591797 1.872266,4.109178 6.823083,3.272182 8.69336,-1.470704 1.299144,-3.294539 18.137804,-23.509639 23.447264,-28.148437 2.30889,-2.017246 3.86531,-3.999936 3.45899,-4.40625 -0.22419,-0.224182 -0.55144,-0.333302 -0.97266,-0.332031 z m 5.22656,6.021484 c -0.88057,0.07215 -2.53879,0.447108 -5.64062,1.177734 -4.85562,1.143722 -5.63565,1.815614 -14.73242,12.707032 -5.28281,6.325 -9.61315,11.8375 -9.62305,12.25 -0.0352,1.4687 1.00699,0.625893 12.17773,-9.855469 6.21721,-5.833521 12.98861,-11.571021 15.04688,-12.75 2.05826,-1.178979 3.746,-2.482031 3.75,-2.894531 0.005,-0.476868 -0.0979,-0.706919 -0.97852,-0.634766 z m 339.38867,20.054688 c -0.95221,-0.0571 -1.86645,0.177565 -2.86132,0.630859 -3.48146,1.58626 -3.2723,4.785133 0.46289,7.056641 5.59814,3.404434 20.05308,17.334204 22.05078,21.250004 2.32096,4.54947 3.65059,4.91841 4.5664,1.26953 0.99189,-3.95198 -2.31942,-9.658593 -11.5332,-19.876956 -6.64202,-7.366199 -9.82892,-10.158781 -12.68555,-10.330078 z m -1.74023,9.234375 c -0.413,-0.09272 -0.017,0.620685 1.17969,2.134765 3.01125,3.809761 15.1582,23.552394 15.1582,24.636714 0,0.45396 0.40143,0.82422 0.89258,0.82422 1.91104,0 2.05914,-3.47592 0.37109,-8.69336 -1.4661,-4.53141 -2.94768,-6.510435 -8.76367,-11.701168 -5.21515,-4.654482 -8.14955,-7.046634 -8.83789,-7.201171 z M 164.57422,99.558594 c -0.98614,0.06042 -1.61362,0.788276 -2.29297,2.279296 -1.45881,3.20173 0.23701,6.23006 4.48242,8.00391 1.80697,0.755 6.38135,4.91645 10.16406,9.24804 3.78271,4.33159 7.23726,7.7625 7.67774,7.625 0.44048,-0.1375 0.71415,0.0875 0.60937,0.5 -0.10477,0.4125 0.1566,2.2125 0.58008,4 0.99776,4.21158 2.35259,4.14261 3.16016,-0.16211 0.7551,-4.02505 -0.23464,-7.8995 -1.77539,-6.94726 -0.63178,0.39046 -0.79523,0.20423 -0.39258,-0.44727 1.3671,-2.21201 -13.52068,-20.22965 -19.06445,-23.07226 -1.3966,-0.716122 -2.38145,-1.074339 -3.14844,-1.027346 z m 362.48437,1.130856 c -1.18115,0.0495 -2.3219,0.71274 -2.6902,2.24977 -0.35188,1.4685 -0.34286,5.44803 -0.13258,9.17004 0.1032,1.8266 0.29006,4.77065 0.37896,6.50592 0.0889,1.73526 0.0701,4.14801 0.17349,5.75523 0.23644,3.67603 0.26982,4.69352 -0.76724,6.70898 -0.40339,0.78395 -1.26079,2.36885 -1.26079,2.59134 0,0.45702 0.54096,1.3247 1.37303,1.52235 0.7934,0.1881 3.53616,-0.66691 4.22807,-0.85928 1.05404,-0.29277 1.05564,-0.3044 0.58008,-3.85546 -0.66238,-4.94597 -0.8165,-6.91806 -0.8125,-10.42188 0.004,-3.5099 0.0989,-4.4028 0.98242,-9.29883 0.77106,-4.27301 0.93064,-7.53056 0.42578,-8.67187 -0.40961,-0.92601 -0.85412,-1.23951 -1.94727,-1.37305 -0.18601,-0.0227 -0.36251,-0.0305 -0.53125,-0.0234 z m -70.63476,1.9043 c -0.14818,-0.0207 -0.30257,-0.0175 -0.46289,0.01 -0.23633,0.0399 -0.90355,0.3348 -1.48242,0.65429 -0.57887,0.31949 -1.27226,0.69467 -1.54102,0.83399 -0.43835,0.22704 -0.48381,0.28965 -0.44141,0.61523 0.41019,3.14926 0.58665,4.12824 1.50586,8.34766 0.69043,3.16924 1.49069,8.17585 1.87891,11.74219 0.0984,0.90411 0.29898,2.67428 0.44531,3.93359 0.14632,1.2593 0.26679,2.82712 0.26758,3.48242 10e-4,1.16945 -0.004,1.19993 -0.37891,1.66602 -0.32325,0.4023 -0.38141,0.56956 -0.38086,1.09765 7.7e-4,0.7357 0.18561,1.48219 0.4375,1.76563 0.24683,0.27775 0.33768,0.18728 0.54883,-0.53907 0.31557,-1.08552 0.93101,-1.60056 1.91407,-1.60156 0.6614,-9.7e-4 1.30567,-0.21394 1.44726,-0.47851 0.10113,-0.18896 0.0355,-0.43227 -0.34375,-1.25782 -0.25848,-0.56262 -0.52615,-1.36538 -0.59375,-1.78515 -0.21908,-1.36053 -0.34431,-4.85513 -0.41602,-11.625 -0.11934,-11.26969 -0.38019,-14.45695 -1.31445,-16.06836 -0.26518,-0.45739 -0.64532,-0.73075 -1.08984,-0.79297 z m 66.72265,5.1582 c -0.21969,0.0612 -0.55436,0.47215 -1.07031,1.1543 -0.80751,1.06762 -1.46875,2.75512 -1.46875,3.75 0,0.99488 0.675,1.80859 1.5,1.80859 1.07232,0 1.49145,-1.0692 1.46875,-3.75 -0.0186,-2.19637 -0.0635,-3.06481 -0.42969,-2.96289 z m -107.81836,0.8418 c -0.51296,-0.0313 -0.81412,0.43016 -1.36523,1.35547 -5.80763,9.75095 -19.1873,20.84195 -26.66601,22.10547 -4.81507,0.8135 -5.04953,2.11877 -0.7168,4.00195 3.78741,1.64617 4.07389,1.68804 6.16211,0.88672 0.86678,-0.33264 1.28455,-1.07696 0.92773,-1.6543 -0.37114,-0.60051 -0.17042,-0.7544 0.46875,-0.35937 1.56556,0.96757 21.22363,-12.10044 24.94141,-16.58008 2.32396,-2.80021 1.89936,-5.90152 -1.11719,-8.15625 -1.39704,-1.04422 -2.1218,-1.5683 -2.63477,-1.59961 z m -314.36132,0.0625 c -0.1456,0.003 -0.28895,0.0191 -0.43164,0.0488 -2.730873,0.56866 -1.577113,5.28248 3.44531,14.06836 2.57542,4.50526 4.74666,8.82945 5.40234,9.94531 0.4153,0.70679 2.37033,4.82302 3.58008,5.0918 0.93949,0.20873 1.09958,-3.35247 1.84766,-3.35547 l 0.71875,-1.42188 -0.91211,-1.18164 c -3.88438,-3.0611 -10.57002,-15.67786 -9.72266,-18.34765 0.65908,-2.07659 -1.7438,-4.89513 -3.92773,-4.84766 z m 349.78906,1.04492 c -1.1608,0.0426 -2.46715,0.90474 -3.00586,2.3086 -0.3356,0.87458 -0.0246,2.68553 0.69141,4.02343 1.47006,2.74683 1.26767,2.63588 3.38281,1.82422 1.71496,-0.65809 2.11362,-5.00402 0.66797,-7.28711 -0.39515,-0.62405 -1.03985,-0.89472 -1.73633,-0.86914 z m -52.85742,4.92188 c -1.04255,0.0303 -2.2899,1.06076 -3.36524,3.0039 -0.93692,1.69301 -3.39062,5.37338 -5.45312,8.17969 -2.0625,2.80632 -3.75,5.29479 -3.75,5.5293 0,0.23452 0.71204,0.15415 1.58203,-0.17969 0.86998,-0.33385 2.21369,-0.60742 2.98633,-0.60742 0.77263,0 2.06338,-1.57428 2.86718,-3.49805 0.80381,-1.92377 2.58372,-4.00904 3.95704,-4.63476 2.87013,-1.30772 3.90807,-3.34367 3.0625,-6.00782 -0.38938,-1.2268 -1.07585,-1.80873 -1.88672,-1.78515 z m -6.47071,2.92578 c -3.66981,0 -6.85647,5.20196 -3.84765,6.28125 1.75701,0.63026 2.54593,0.0138 4.2832,-3.3457 1.42986,-2.76507 1.40454,-2.93555 -0.43555,-2.93555 z m -292.376949,0.30273 c -0.949297,0.0158 -1.644531,1.17846 -1.644531,3.24219 0,2.00812 0.434806,2.44701 2.171875,2.19141 2.716475,-0.39972 3.167865,-1.78188 1.361325,-4.16993 -0.65793,-0.86971 -1.319091,-1.27314 -1.888669,-1.26367 z m 71.140629,4.93555 c -0.44115,0.0234 -0.949,0.22988 -1.62891,0.59375 -2.61271,1.39828 -2.67906,2.21768 -0.40625,5.02148 1.11555,1.37618 3.56271,2.4623 6.75,2.99414 8.66464,1.4458 10.37584,1.30964 9.83008,-0.77734 -0.33223,-1.27048 -2.0953,-2.21388 -5.65625,-3.0293 -3.01376,-0.69012 -5.83912,-2.05705 -6.76758,-3.27343 -0.83767,-1.09745 -1.38585,-1.56832 -2.12109,-1.5293 z m 69.71093,2.38867 c -1.288,0.05 -2.29203,1.38149 -3.46484,4.21289 -1.33732,3.22859 5.5e-4,6.40462 6.52344,15.4961 2.73126,3.80677 3.39437,5.54053 2.92968,7.65625 -0.3562,1.62176 -0.12686,3.02781 0.56446,3.45507 0.83007,0.51301 0.95438,0.0351 0.43359,-1.65625 -0.40225,-1.30638 -0.47576,-2.13881 -0.16406,-1.84961 1.11315,1.03283 6.68164,17.15422 6.68164,19.34375 0,1.22748 0.54601,2.77648 1.21289,3.44336 0.66687,0.66687 1.67937,1.05984 2.25,0.87305 1.41634,-0.46363 1.88084,-5.24697 0.71289,-7.33398 -0.60339,-1.07823 -0.59751,-2.71372 0.0156,-4.47266 0.65404,-1.87617 0.61463,-3.35619 -0.125,-4.57617 -0.90907,-1.49947 -0.99007,-1.33979 -0.47266,0.94726 0.34218,1.5125 0.39464,2.75 0.11523,2.75 -0.27942,0 -1.27465,-3.4875 -2.21093,-7.75 -2.31076,-10.51994 -9.14753,-26.82756 -12.2793,-29.29101 -1.07557,-0.84605 -1.94985,-1.27806 -2.72266,-1.24805 z m -73.15039,3.69531 c -0.14536,0.0136 -0.28606,0.0576 -0.41406,0.13672 -1.7796,1.09985 -0.91523,3.40298 1.81836,4.8418 2.46591,1.29793 2.81305,1.27471 3.36133,-0.21875 0.38965,-1.06138 -0.0274,-1.91241 -1.14844,-2.3457 -0.96751,-0.37396 -2.06041,-1.16812 -2.42969,-1.76563 -0.27696,-0.44817 -0.75139,-0.68925 -1.1875,-0.64844 z m 25.63477,2.33594 c -2.98951,0.0332 -3.93769,2.42522 -0.84766,3.01563 4.40541,0.84175 9.18946,0.20805 9.18946,-0.76758 0,-1.03021 -2.86636,-1.77564 -7.7168,-2.22266 -0.21686,-0.02 -0.4257,-0.0276 -0.625,-0.0254 z m 82.90039,1.2207 c -2.02945,0.0736 -5.107,1.15597 -7.0957,2.8711 -1.80664,1.55811 -5.78873,4.84935 -8.84766,7.31445 -3.1919,2.57226 -5.39428,5.09436 -5.16992,5.91797 0.215,0.78929 0.59802,2.08098 0.85156,2.87109 0.52549,1.63762 15.657,-13.20845 17.50195,-14.29296 1.12086,-0.6589 1.56641,-0.95118 2.94141,-0.95118 1.375,0 1.87695,-2.14336 1.87695,-2.69336 0,-0.76285 -0.84092,-1.08123 -2.05859,-1.03711 z m 107.76367,3.0918 c -1.6064,0.0629 -3.16098,1.74645 -3.76562,4.05859 -0.62679,2.39689 1.77548,1.54814 4.88086,-0.62695 2.16552,-1.51679 2.18876,-1.66456 0.4746,-2.91797 -0.51353,-0.3755 -1.05437,-0.53464 -1.58984,-0.51367 z m -60.31445,5.58594 c -0.30877,-0.0189 -0.47246,0.34518 -0.60352,0.98047 -0.26472,1.28325 0.81008,5.05392 2.38867,8.3789 2.74716,5.78628 4.93151,7.89427 7.61524,6.18946 0.85026,-0.54012 -0.32777,-3.04482 -4.08594,-8.70899 -3.25669,-4.90834 -4.63516,-6.7983 -5.31445,-6.83984 z m 16.55859,10.58984 c -1.36444,-0.0588 -2.83595,1.33457 -2.87304,2.92578 -0.0212,0.90737 3.8881,-0.19203 4.5625,-1.2832 0.30126,-0.4875 -0.19987,-1.17413 -1.11524,-1.52539 -0.18604,-0.0714 -0.3793,-0.10879 -0.57422,-0.11719 z m 10.5332,0.32227 c -1.94056,0.0178 -3.80483,0.28741 -4.7246,0.875 -1.20822,0.77185 -7.48477,3.04076 -13.94727,5.04297 l -11.75,3.64062 0,4.44531 c 0,2.44444 0.3375,4.44055 0.75,4.43555 0.4125,-0.005 5.925,-2.52797 12.25,-5.60547 6.325,-3.07749 14.18288,-6.61944 17.46094,-7.87109 3.27807,-1.25164 6.10571,-2.7156 6.28515,-3.25391 0.35604,-1.06809 -3.08993,-1.73874 -6.32422,-1.70898 z m -33.42187,10.39648 -3.25,1.64649 c -4.13993,2.09706 -6.75,4.3839 -6.75,5.91406 0,0.65945 1.10439,2.38843 2.45313,3.84375 2.8786,3.10607 3.30077,3.18043 5.71874,0.99219 1.33923,-1.21197 1.82813,-3.09234 1.82813,-7.02539 z m 22.70508,0.58203 c -0.46016,-0.0644 -1.12071,0.15778 -2.17188,0.63672 -2.77025,1.26221 -3.22526,2.38628 -1.2832,3.16992 1.83098,0.73882 2.11214,0.71959 3.64648,-0.25195 0.76761,-0.48607 1.11981,-1.60134 0.78321,-2.47851 -0.2539,-0.66166 -0.51445,-1.01175 -0.97461,-1.07618 z m -87.61328,6.44727 c -0.67965,0.18124 -1.18004,3.52991 -0.67969,5.52344 1.02259,4.07432 2.76567,2.98311 2,-1.25196 -0.37288,-2.0625 -0.83241,-3.92635 -1.02148,-4.14257 -0.10202,-0.11665 -0.20174,-0.1548 -0.29883,-0.12891 z"
       id="path2997"
       inkscape:connector-curvature="0"
       sodipodi:nodetypes="sssssssssssssssscsscssssssssscsssssssssscsssssscsscssscsscsscscssccscsccsssccccssccssssccscscsssscccssscccsccssssccssscsssscsssscsssccssssssccssssscsssccssssscccssccccsscscsscsssscsssssscssssscccsssccssssscccssssccsscssssscsssscs" />
    <path
       d="m 309.86911,195.39873 c -3.69592,-1.15066 -7.15786,-3.04935 -8.9271,-4.89603 -3.90209,-4.0729 -2.46883,-5.06377 1.84542,-1.27581 2.40335,2.11017 5.68263,3.55444 10.82106,4.76583 6.87615,1.62105 7.74059,1.62816 12.83522,0.10551 8.13547,-2.43146 18.51946,-10.63288 13.46252,-10.63288 -2.96469,0 -1.4082,-2.01282 3.46676,-4.48315 2.73171,-1.38427 5.20671,-2.51685 5.5,-2.51685 1.01818,0 0.52427,3.45662 -1.10262,7.71657 -1.66483,4.3593 -3.36414,5.66277 -3.36414,2.58048 0,-1.2566 -0.98288,-0.74453 -3.75,1.95371 -4.34102,4.23297 -15.42415,8.79621 -21.02283,8.6557 -2.04994,-0.0514 -6.44387,-0.93933 -9.76429,-1.97308 z M 135.40128,103.71535 c -0.003,-0.4125 0.76118,-2.8875 1.69755,-5.500003 1.70667,-4.761659 3.3074,-6.236386 3.3074,-3.047052 0,1.256604 0.98288,0.744537 3.75,-1.953708 4.07911,-3.977571 15.21307,-8.74924 20.41502,-8.74924 5.77768,0 16.25158,3.781627 19.30706,6.970857 3.89613,4.066683 2.45632,5.051477 -1.85328,1.267599 -2.40335,-2.11017 -5.68263,-3.554437 -10.82106,-4.765822 -6.87615,-1.621055 -7.74059,-1.628161 -12.83522,-0.105518 -8.13547,2.431468 -18.51946,10.632884 -13.46252,10.632884 2.74503,0 1.54936,1.934173 -2.46016,3.979683 -4.05399,2.06819 -7.03598,2.6059 -7.04479,1.27032 z"
       id="path2993"
       style="fill:#fe0000"
       inkscape:connector-curvature="0" />
    <path
       d="m 311.98792,178.48041 c -3.90121,-0.75165 -6.58169,-3.11863 -6.58169,-5.81194 0,-0.8309 1.19715,-0.13308 2.90121,1.69112 3.34841,3.58449 3.7975,3.6884 6.27005,1.45077 1.72802,-1.56384 1.82874,-1.50876 1.82874,1 0,1.46025 -0.1125,2.60324 -0.25,2.53999 -0.1375,-0.0632 -2.01324,-0.45472 -4.16831,-0.86994 z m 7.41831,-2.96291 c 0,-3.67118 0.14138,-3.8122 6.5545,-6.53781 5.52184,-2.34682 6.9516,-2.60478 9.07494,-1.63732 1.38624,0.63161 2.93156,0.8943 3.43404,0.58375 2.12663,-1.31433 -0.39485,2.40744 -2.8621,4.22453 -3.91408,2.88267 -6.73552,4.27016 -11.75538,5.78091 l -4.446,1.33805 z m -77.3621,-20.78317 c -4.99239,-3.55214 -8.57015,-10.70375 -9.2897,-18.56925 -0.49146,-5.37224 -0.27591,-6.56678 1.6149,-8.94973 3.13139,-3.94641 4.34798,-3.39156 1.84929,0.8434 l -2.12016,3.59341 2.14975,4.15659 c 1.18236,2.28613 3.75333,6.38201 5.71326,9.10195 2.62823,3.6474 3.4054,5.57534 2.96108,7.34566 -0.33134,1.32016 -0.078,3.03225 0.56307,3.80464 1.7112,2.06188 0.85958,1.73359 -3.44149,-1.32667 z M 163.6954,125.69311 c -6.38428,-4.98932 -8.23735,-24.10239 -2.51968,-25.988623 1.00368,-0.33111 1.02632,0.11489 0.10815,2.130073 -1.46823,3.2224 0.89745,7.30782 5.07487,8.76408 2.31481,0.80695 2.96932,1.81171 3.74908,5.75539 0.91814,4.64354 0.86249,4.82495 -1.98076,6.45676 -1.87308,1.075 -2.72006,2.21417 -2.35452,3.16676 0.70885,1.84723 0.63812,1.83754 -2.07714,-0.28444 z m 236.337,-2.77621 c -0.34732,-0.34732 -0.15102,-1.52924 0.43621,-2.6265 1.31518,-2.45743 -0.3477,-6.74202 -2.61662,-6.74202 -4.82706,0 3.55247,-5.55485 11.80942,-7.82854 4.15505,-1.14417 8.11373,-0.0612 9.09162,2.48713 0.43389,1.1307 0.12937,1.17194 -1.64433,0.22268 -1.85535,-0.99295 -2.40586,-0.83918 -3.7275,1.04118 -3.59611,5.1164 -11.18415,14.07755 -11.92044,14.07755 -0.43828,0 -1.08104,-0.28417 -1.42836,-0.63148 z M 94.512176,109.07812 c -2.539856,-2.70355 -4.799884,-10.375333 -5.630428,-19.112773 -0.55566,-5.845628 -0.5297,-5.929246 1.009013,-3.25 1.654646,2.881112 4.27287,3.485388 7.535653,1.7392 1.701516,-0.910624 2.100091,-0.300979 4.021706,6.15144 1.17315,3.93923 2.38148,8.693433 2.68518,10.564893 0.52453,3.23234 0.42569,3.37091 -1.97464,2.76847 -1.88626,-0.47342 -2.894159,-0.10974 -3.975885,1.43464 l -1.449069,2.06884 z M 451.9707,99.426907 c 0.76864,-6.088519 6.09675,-18.556036 9.03166,-21.133649 1.04713,-0.919649 3.25387,-1.962816 4.90387,-2.318149 l 3,-0.64606 -2.75,2.151555 c -3.06077,2.394697 -3.46695,4.535044 -1.31242,6.915771 1.25853,1.390654 1.08816,2.619159 -1.36783,9.863237 -1.54298,4.551105 -3.04607,8.515388 -3.3402,8.809518 -0.29414,0.29414 -1.45344,-0.0389 -2.57623,-0.7401 -1.73387,-1.08282 -2.36061,-0.98606 -4.15989,0.64226 l -2.11844,1.91717 z m 70.05355,1.561493 c -0.38162,-1.520493 -0.1828,-6.378258 0.44181,-10.79504 0.85674,-6.058208 0.84859,-9.588489 -0.0332,-14.374039 -1.24101,-6.735232 -0.67178,-8.89419 1.54554,-5.861823 0.84761,1.159172 2.67381,1.876234 4.90766,1.926999 l 3.55772,0.08085 0.69239,10.116925 c 0.69085,10.094481 0.0515,17.906655 -1.54628,18.894148 -0.46414,0.28686 -1.15591,0.47516 -1.50137,-0.0838 -1.0746,-1.738733 -4.29665,-1.528183 -5.86888,0.71651 l -1.50156,2.14379 -0.69385,-2.76452 z"
       id="path2991"
       style="fill:#0000fe"
       inkscape:connector-curvature="0"
       sodipodi:nodetypes="ssssscssssssscssssscssscssssssssscssssssscsssssssscsssscsssssscscsssscssssccc" />
    <path
       style="fill:#000000"
       d="m 527.65471,11.964844 c -0.81239,0 -2.39329,2.494028 -3.67187,5.794922 -2.10262,5.428307 -2.25931,7.515729 -2.48828,33.05664 -0.13443,14.994207 0.0844,27.793043 0.48633,28.44336 0.40192,0.650318 0.17774,5.614352 -0.49805,11.029296 -1.14786,9.19761 -1.40475,9.923348 -3.91211,11.033208 -1.47617,0.65344 -3.42345,0.9038 -4.32812,0.55664 -1.21572,-0.46651 -2.03601,0.30158 -3.14063,2.94531 -1.72101,4.11895 -1.87611,5.64062 -0.57422,5.64062 0.5063,0 1.21768,-1.35 1.58008,-3 0.97611,-4.44419 3.53141,-3.96689 2.80273,0.52344 -0.73559,4.53289 1.71086,7.47656 6.2129,7.47656 3.12047,0 3.2221,0.1396 3.83593,5.25 0.34683,2.8875 0.63563,5.61539 0.64063,7.56789 0.005,1.9525 -3.60309,5.33916 -2.02989,6.91235 0.6486,0.64861 1.44869,-0.0429 1.59716,1.18063 0.58735,4.84 0.85251,18.74254 1.03192,49.63796 l 0.29297,50.45117 -13.54297,0 c -8.36221,0 -13.54297,0.38256 -13.54297,1 0,0.61728 5.16667,1 13.5,1 l 13.5,0 0,22.5 0,22.5 -32.5,0 -32.5,0 0,-71.77734 c 0,-63.97415 0.50304,-71.41439 0.96714,-73.83931 0.34818,-1.81928 -0.28682,-2.09312 -0.40908,-3.97189 -0.0844,-1.29637 -0.37693,-2.3528 -0.58094,-3.65262 -1.0183,-6.48798 -0.57997,-24.93853 1.18108,-28.25884 0.87514,-1.65 2.35482,-5.652618 3.28711,-8.894528 2.18394,-7.594306 2.06741,-7.708489 15.83399,15.644528 2.18852,3.7125 4.38043,6.75 4.87109,6.75 0.49067,0 1.37079,-1.04966 1.95508,-2.33203 0.80791,-1.77317 0.67928,-3.24578 -0.53516,-6.15234 -2.22113,-5.31592 -1.2688,-5.50993 1.5918,-0.32422 2.73798,4.96344 4.87375,5.49191 6.25976,1.55078 1.4334,-4.07584 -1.67151,-9.530274 -11.78124,-20.699218 C 476.7131,80.510437 472.36679,76.648581 468.8125,75.400391 l -2.65625,2.080078 c -3.06077,2.394697 -3.46703,4.535288 -1.3125,6.916015 1.25853,1.390654 1.0888,2.619204 -1.36719,9.863282 -1.54298,4.551105 -3.04571,8.514464 -3.33984,8.808594 -0.29414,0.29414 -1.47252,-0.0488 -2.61719,-0.76367 -1.78127,-1.11243 -2.33602,-1.0357 -3.84765,0.54101 -1.70162,1.77487 -1.68472,1.79371 0.45898,0.50586 4.00469,-2.40585 4.66542,-0.26855 4.74609,15.35352 0.0423,8.18985 0.14043,11.7584 0.62001,13.33772 0.40769,1.15618 1.30823,1.92346 0.45637,2.3842 -0.80892,0.42822 -1.71675,-0.0814 -2.4866,0.65713 -0.70999,0.68106 -0.6569,1.9946 -0.97222,1.93789 -0.66357,-0.11936 -0.94505,-2.45991 -0.64022,-2.76474 1.36467,-1.36467 0.63551,-2.17887 0.17701,-7.54243 -0.36438,-4.2625 -1.4059,-10.9 -2.31445,-14.75 -2.40159,-10.17674 -1.88565,-16.396532 2.0625,-24.873043 3.70175,-7.947486 5.72514,-10.169244 10.12695,-11.117188 l 2.80859,-0.605468 c -3.23835,-1.097364 -5.82562,-0.01874 -8.65039,2.929687 -3.31401,3.459077 -8.23134,14.459581 -8.9375,19.994141 -0.74022,5.801581 -3.22919,8.484881 -7.18945,7.750001 -2.61121,-0.48455 -3.27383,-0.13555 -4.78125,2.51172 -1.92743,3.38488 -2.31011,6.91015 -0.75,6.91015 0.55,0 1.01567,-0.7875 1.03516,-1.75 0.0619,-3.05766 2.35478,-6.24427 3.83398,-5.33007 0.93882,0.58022 1.01081,1.03622 0.23828,1.51367 -1.66035,1.02615 -1.33339,5.6606 0.54688,7.73828 1.81955,2.01058 5.45267,2.37573 8.32617,0.83789 1.7047,-0.91233 1.90031,-0.38263 2.48047,6.75 0.10505,1.29149 1.26907,5.10326 1.23054,6.75317 -0.0466,1.99495 -1.29511,1.84576 -1.07922,3.45494 0.1941,1.44674 1.25946,2.12733 1.43266,2.88786 0.53428,2.34612 0.95508,23.9767 0.95508,50.58762 l 0,47.55664 -13,0 c -8,0 -13,0.38462 -13,1 0,0.61538 5,1 13,1 l 13,0 0,22.5 0,22.5 -38,0 -38,0 0,-71 c 0,-59.32715 0.48313,-70.27674 1.36523,-71 0.48099,-0.39438 0.47383,-0.84745 1.92042,-1.98533 1.70046,-1.3376 3.3482,-1.84146 4.66406,-1.42382 2.34132,0.7431 7.85183,-2.18712 18.47461,-9.82813 13.96897,-10.04795 15.64329,-12.51731 12.57422,-18.5332 -2.49196,-4.88469 -5.69083,-6.36649 -10.74414,-4.97656 -4.41794,1.21517 -11.11144,4.43456 -13.40821,6.44726 -1.36511,1.19627 -2.17676,0.99112 -6,-1.50976 -2.43173,-1.59067 -5.88437,-3.20013 -7.67187,-3.57813 -4.75702,-1.00594 -4.09789,1.1653 0.75,2.4707 2.2,0.5924 4,1.28527 4,1.53907 0,0.2538 -0.9,1.36093 -2,2.46093 -2.80076,2.80076 -2.57594,7.51586 0.50586,10.59766 l 2.50586,2.50586 -3.57227,4.68164 c -2.89331,3.78926 -7.82233,7.86465 -7.58624,10.37639 l 0.72247,1.87549 0.30078,42.83111 0.30078,51.04882 -11.05078,0 c -6.70052,0 -11.05078,0.39366 -11.05078,1 0,0.60606 4.33333,1 11,1 l 11,0 0,22.5 0,22.5 -29.5,0 -29.5,0 0,-43 c 0,-37.55556 -0.18992,-43 -1.5,-43 -1.28205,0 -1.5,2.83333 -1.5,19.5 l 0,19.5 -11.5,0 c -7,0 -11.5,0.3913 -11.5,1 0,0.6087 4.5,1 11.5,1 l 11.5,0 0,22.5 0,22.5 -20.52539,0 -20.52539,0 0.37109,-73.25 c 0.16493,-32.58301 0.42581,-61.10976 0.63672,-71.55664 0.0499,-2.47024 1.07813,-3.37109 1.07813,-3.37109 0.33529,-2.07347 -0.0373,-3.3734 -2.18555,-3.62305 -1.97761,-0.22982 -5.51863,1.36258 -11.93945,6.73047 -4.62539,3.86689 -8.82816,6.90093 -9.33789,6.74219 -0.50973,-0.15874 -2.43184,-3.86288 -4.27149,-8.23047 -3.4304,-8.14423 -7.85532,-13.44141 -11.22851,-13.44141 -1.04243,0 -3.11549,1.45155 -4.60743,3.22461 -2.50061,2.97181 -2.66682,3.7098 -2.13086,9.44922 0.76693,8.21285 4.41972,15.30761 9.91211,19.25195 4.17705,2.99971 4.28638,3.22208 4.11914,8.32813 -0.18138,5.53784 -1.75066,7.11216 -4.5332,4.54687 -2.16556,-1.99646 -5.96769,-3.99715 -6.5293,-3.43554 -0.88954,0.88954 0.43074,2.07906 5.125,4.61914 3.85977,2.08854 4.90668,2.28773 6.56836,1.25 2.7637,-1.72596 3.00391,-1.60032 3.00391,1.57422 0,4.00199 2.33611,6.98753 4.23437,5.41211 0.79763,-0.66195 1.73539,-0.91697 2.08399,-0.56836 1.43214,1.43214 3.79625,-2.105 3.52344,-5.27149 -0.15508,-1.80001 0.0413,-3.59797 0.4375,-3.99414 1.37785,-1.37785 0.68197,-4.91338 -1.83594,-9.31836 l -2.53516,-4.43164 7.72266,-7.76758 c 4.24718,-4.27224 8.09208,-7.53963 8.54492,-7.25976 0.45283,0.27986 0.82422,22.30668 0.82422,48.94922 l 0,48.4414 -19.5,0 c -12.33333,0 -19.5,0.36752 -19.5,1 0,0.63248 7.16667,1 19.5,1 l 19.5,0 0,22.5 0,22.5 -36.52539,0 -36.52539,0 0.37109,-73.25 c 0.20394,-40.2875 0.87532,-74.38492 1.09766,-75.73632 0.41787,-2.53984 -0.91705,-3.13962 -7.54102,-4.4629 -1.8635,-0.37226 -2.78948,-1.3237 -3.19922,-3.2871 -0.66811,-3.20139 -8.91381,-14.80166 -14.99414,-21.09375 -7.08228,-7.328927 -12.66483,-9.063338 -16.27929,-5.0586 -2.89629,3.20903 -2.53651,14.1165 0.67968,20.61524 2.30388,4.65529 2.35402,5.12142 0.92579,8.58203 -1.04756,2.53826 -1.99175,3.50804 -3.08399,3.16406 -0.97876,-0.30824 -2.0844,0.45445 -2.91992,2.01562 -0.73934,1.38148 -1.94372,2.51172 -2.67578,2.51172 -0.73206,0 -1.33008,0.45 -1.33008,1 0,1.76312 2.94073,1.06833 4.23242,-1 1.46367,-2.34371 4.02794,-2.59706 5.71485,-0.56445 1.6833,2.02825 6.56055,2.89966 8.98242,1.60352 1.12577,-0.60249 2.3385,-2.25999 2.69531,-3.68164 0.6343,-2.52725 0.78478,-2.56938 6.76172,-1.90235 3.36218,0.37523 6.50308,1.06406 6.98047,1.53125 0.47739,0.4672 2.23016,0.64176 3.9707,0.66016 6.38613,0.0676 6.13339,-3.70263 6.44727,51.3164 l 0.28515,50.03711 -21.03515,0 c -13.35697,0 -21.03516,0.36503 -21.03516,1 0,0.63492 7.66667,1 21,1 l 21,0 0,22.5 0,22.5 -40,0 -40,0 0,-71.34961 c 0,-50.94395 0.32639,-72.28953 1.14258,-74.63085 0.35351,-1.01409 -0.4683,-4.68522 -2.43164,-6.39844 -5.00874,-4.37064 -9.31548,-13.71089 -9.54492,-20.70117 -0.14659,-4.46596 -2.55228,-14.73117 -5.2793,-22.525395 -0.50726,-1.449824 22.36761,-22.851723 27.90625,-26.109375 6.53052,-3.841052 4.69191,-5.760277 -3.68164,-3.841797 l -3.38867,0.777344 3.38867,-3.042969 c 2.64375,-2.374023 3.12514,-3.310918 2.18945,-4.259766 -2.39492,-2.428595 -9.70371,2.224888 -22.78711,14.509766 -14.681499,13.785444 -17.01181,17.427332 -16.054686,25.087891 1.062074,8.500555 3.274217,15.572941 5.669922,18.123051 1.774587,1.88897 1.986821,2.64599 1.015625,3.61718 -0.971196,0.97121 -1.392372,0.96158 -2.015625,-0.0469 -1.193041,-1.93038 -3.866465,-0.40755 -4.585937,2.61328 -0.350755,1.4727 -0.872258,3.46523 -1.158203,4.42773 -0.285945,0.9625 -0.02855,1.75 0.572265,1.75 0.600814,0 1.364977,-1.35808 1.697266,-3.01953 0.83093,-4.15465 2.345703,-4.78283 2.345703,-0.97265 0,5.1706 1.557983,6.99218 5.976562,6.99218 2.14819,0 4.208708,-0.4909 4.580078,-1.09179 0.39009,-0.63117 1.7418,0.74123 3.20117,3.25 1.38933,2.38839 3.65311,7.29123 4.96875,8.9414 l 2.77344,3.48047 0.28516,47.49805 0.28515,49.94922 -34.234372,-0.26367 -34.234376,-0.26368 -3.716796,-17.3789 c -2.265053,-10.59264 -3.503244,-18.69597 -3.169922,-20.75 0.510415,-3.14532 0.362615,-3.3711 -2.214844,-3.3711 -3.26935,0 -3.566734,-2.82956 2.996094,28.5 2.534674,12.1 6.181979,29.875 8.105468,39.5 1.923488,9.625 3.726167,18.2744 4.00586,19.22071 0.459959,1.55623 -0.761936,1.7499 -12.798828,2.03125 -7.319426,0.17108 104.816406,0.31506 249.191406,0.31836 144.375,0.003 257.65086,-0.13947 251.72461,-0.31641 l -10.77539,-0.32227 0.27539,-73.3125 c 0.23371,-62.30351 0.74482,-72.72078 0.81657,-74.64958 0.0306,-0.8235 0.60436,-1.37626 0.34801,-3.90516 -0.17487,-1.72513 -0.3535,-2.57091 -0.4669,-10.68158 -0.0692,-4.94628 0.36992,-10.31781 0.97461,-11.9375 4.46085,-11.948601 4.63603,-13.750016 3.33985,-34.330082 -2.87741,-45.686054 -4.60263,-63.169497 -5.98829,-62.615234 z m -58.93987,63.404297 c 0.0327,0.01109 0.0648,0.01971 0.0977,0.03125 l 0.0937,-0.07227 z m 58.8012,-62.904297 c 0.77719,0 5.15239,57.092151 4.46094,58.210937 -0.55259,0.894112 -3.13422,0.917888 -5.36914,0.04883 -3.6213,-1.408159 -3.93645,-3.402421 -3.96875,-25.15625 -0.0288,-19.397267 0.169,-21.944393 2.10352,-27.25 1.1737,-3.218969 2.42098,-5.853515 2.77343,-5.853517 z m -402.32268,39.09375 c 0.42128,-0.0013 0.74842,0.107795 0.97266,0.332031 0.40632,0.406314 -1.1501,2.389004 -3.45899,4.40625 -5.30946,4.638798 -22.14812,24.853897 -23.447264,28.148437 -1.164512,2.95312 -2.591606,3.983247 -5.53711,4.003907 -1.33919,0.0094 -2.435688,-0.785211 -2.839844,-2.058594 -0.362281,-1.141448 -0.879095,-1.855281 -1.148437,-1.585937 -0.269343,0.269342 0.01304,1.427112 0.626953,2.574218 1.206145,2.253701 4.052328,2.688212 7.064453,1.076172 1.701516,-0.910624 2.099872,-0.302028 4.021489,6.150391 1.17315,3.93923 2.38185,8.692991 2.68554,10.564451 0.52454,3.23234 0.42573,3.37197 -1.97461,2.76953 -1.88626,-0.47342 -2.89288,-0.11078 -3.974606,1.4336 l -1.449219,2.07031 -2.222656,-2.36524 c -2.37491,-2.52797 -4.587424,-9.621216 -5.646485,-18.097651 -0.955397,-7.646739 1.36302,-11.280083 15.728516,-24.648438 10.03518,-9.338626 17.65063,-14.764564 20.59961,-14.773437 z m 5.22656,6.021484 c 0.8806,-0.07215 0.98352,0.157898 0.97852,0.634766 -0.004,0.4125 -1.69174,1.715552 -3.75,2.894531 -2.05827,1.178979 -8.82967,6.916479 -15.04688,12.75 -6.2172,5.833521 -11.5047,10.605469 -11.75,10.605469 -1.333697,0 0.48674,-2.573386 9.19532,-13 9.09678,-10.891418 9.8768,-11.56331 14.73242,-12.707032 3.10183,-0.730625 4.76002,-1.105581 5.64062,-1.177734 z m 391.96722,11.03711 c -0.36732,-0.03673 0.89888,0.392229 1.59179,1.339843 0.84761,1.159172 2.6724,1.876975 4.90625,1.927735 l 3.5586,0.08008 0.69336,10.117187 c 0.6918,10.094417 0.0509,17.907042 -1.54688,18.894527 -0.46414,0.28686 -1.12719,0.0648 -1.47265,-0.49414 -0.34546,-0.558966 -1.47537,-1.017574 -2.51172,-1.017574 -1.03636,0 -2.56088,0.965444 -3.38672,2.144534 l -1.50196,2.14257 -0.69335,-2.76367 c -0.38147,-1.520525 -0.18321,-6.378137 0.4414,-10.794919 0.85672,-6.058208 0.84857,-9.58945 -0.0332,-14.375 -0.8532,-4.630472 0.76321,-7.12036 -0.0449,-7.201171 z m -52.57855,9.017578 c 2.85663,0.171297 6.04353,2.963878 12.68555,10.330078 9.21378,10.218363 12.52509,15.924976 11.5332,19.876956 -0.91581,3.64888 -2.24544,3.27994 -4.5664,-1.26953 -1.9977,-3.9158 -16.45264,-17.84557 -22.05078,-21.250004 -3.73519,-2.271508 -3.94435,-5.470381 -0.46289,-7.056641 0.99487,-0.453294 1.90911,-0.687958 2.86132,-0.630859 z m -1.74023,9.234375 c 0.68834,0.154537 3.62274,2.546688 8.83789,7.201171 5.81599,5.190733 7.29757,7.169758 8.76367,11.701168 0.9705,2.99964 1.48638,6.18338 1.14453,7.07422 -0.64189,1.67273 -2.4082,2.25587 -2.4082,0.79492 0,-1.08433 -12.14695,-20.826953 -15.1582,-24.636714 -1.19673,-1.51408 -1.59269,-2.227488 -1.17969,-2.134765 z M 164.45117,99.464844 c 3.70454,0 10.13876,5.775856 17.60547,15.800776 6.88518,9.24411 7.75765,11.20969 6.92969,15.62305 -0.80636,4.2983 -2.18928,4.634 -3.04492,0.73828 -0.86192,-3.92431 -15.61938,-20.64713 -19.37696,-21.95703 -3.94195,-1.37417 -5.73343,-4.64912 -4.2832,-7.83203 0.59479,-1.30543 1.57197,-2.373046 2.16992,-2.373046 z m -2.70508,0.148437 c 0.38676,0.08021 0.22574,0.709319 -0.46289,2.220699 -1.46823,3.2224 0.89875,7.30937 5.07618,8.76563 2.3148,0.80695 2.96828,1.81023 3.74804,5.75391 0.91814,4.64354 0.86278,4.82522 -1.98047,6.45703 -1.87308,1.075 -2.71905,2.21538 -2.35351,3.16797 0.70885,1.84723 0.63713,1.83682 -2.07813,-0.28516 -6.38428,-4.98932 -8.2372,-24.10205 -2.51953,-25.988282 0.25092,-0.08278 0.4414,-0.118534 0.57031,-0.0918 z m 365.52386,0.982419 c 0.20636,0.006 0.42527,0.0257 0.65625,0.0586 2.46071,0.35031 2.65622,3.18709 0.85156,12.31054 -1.42482,7.20315 -0.0354,15.40285 0.30921,18.0062 0.12481,0.94292 0.32123,2.25763 0.32123,2.67533 0,0.7537 -1.28003,-0.40945 -3.02171,-0.30495 -1.24415,0.0746 -2.54051,2.33383 -3.25328,1.10633 -0.90156,-1.5526 2.69048,-3.02447 2.02288,-8.99821 -0.1982,-1.77348 -0.26075,-5.54478 -0.392,-7.48468 -0.9608,-14.20015 -0.58957,-17.45166 2.50586,-17.36914 z m -114.57219,4.67092 c 2.91213,-0.0587 5.32127,1.02819 6.05468,2.93946 0.43293,1.1282 0.12954,1.17247 -1.62695,0.23242 -1.81907,-0.97354 -2.40914,-0.82679 -3.72851,0.92969 -0.86185,1.14739 -3.12613,4.18939 -5.03125,6.75976 -1.90513,2.57037 -5.82314,6.41642 -8.70703,8.54688 -6.57594,4.85792 -7.53925,5.00581 -5.29297,0.80859 0.59362,-1.10919 2.08657,-1.93555 3.5,-1.93555 1.35565,0 2.37654,-0.3375 2.26757,-0.75 -0.10896,-0.4125 0.14026,-1.7442 0.55469,-2.96093 0.8904,-2.61406 -0.79968,-6.28907 -2.89258,-6.28907 -4.77627,0 3.66725,-5.57067 11.86524,-7.82812 1.03876,-0.28604 2.0664,-0.43357 3.03711,-0.45313 z m 110.44914,2.48533 c -0.38008,0 0.41106,0.76652 0.42969,2.96289 0.0227,2.6808 -0.39643,3.75 -1.46875,3.75 -1.91625,0 -1.93312,-3.0441 -0.0312,-5.55859 0.51595,-0.68215 1.29835,-1.1543 1.07031,-1.1543 z m -107.81828,0.84085 c 0.51296,0.0313 1.23577,0.55539 2.63281,1.59961 3.01655,2.25473 3.4431,5.35799 1.11914,8.1582 -1.75343,2.11274 -15.13882,11.88895 -21.66797,15.82617 -6.30543,3.8023 -6.38032,3.81576 -10.83203,1.88086 -4.33273,-1.88318 -4.09827,-3.19041 0.7168,-4.00391 7.47873,-1.26352 20.85643,-12.35452 26.66406,-22.10547 0.55111,-0.92531 0.85422,-1.38677 1.36719,-1.35546 z m -314.36182,0.0635 c 2.18393,-0.0475 4.58681,2.77107 3.92773,4.84766 -0.84736,2.66979 4.66445,14.17132 8.54883,17.23242 1.04333,0.73809 1.02549,1.98743 0.54687,3.16601 -0.44155,1.22671 -0.35924,4.43699 -1.53515,3.5 -1.7106,-1.36303 -4.90257,-8.3802 -8.47461,-14.6289 -5.02242,-8.78588 -6.176179,-13.4997 -3.44531,-14.06836 0.14269,-0.0297 0.28604,-0.0457 0.43164,-0.0488 z m 349.78906,1.04492 c 0.69648,-0.0256 1.34118,0.24509 1.73633,0.86914 1.44565,2.28309 1.04699,6.62902 -0.66797,7.28711 -2.11514,0.81166 -1.91275,0.92261 -3.38281,-1.82422 -0.71606,-1.3379 -1.02701,-3.14885 -0.69141,-4.02343 0.53871,-1.40386 1.84506,-2.26596 3.00586,-2.3086 z m -279.74414,4.4375 c 0.48112,0.0957 1.73028,1.41547 4.39648,4.32617 2.77091,3.025 5.49439,6.2875 6.05274,7.25 1.12646,1.94179 1.00442,1.95772 -4.25586,0.5586 -3.8079,-1.01282 -4.61335,-2.34643 -6.22656,-10.3086 -0.2502,-1.23484 -0.341,-1.90063 0.0332,-1.82617 z m 226.88526,0.48342 c 0.81087,-0.0236 1.49929,0.55836 1.88867,1.78516 0.84557,2.66415 -0.19237,4.70009 -3.0625,6.00781 -1.37332,0.62572 -3.15323,2.711 -3.95703,4.63477 -0.8038,1.92377 -2.09456,3.49804 -2.86719,3.49804 -0.77264,0 -2.11635,0.27358 -2.98633,0.60743 -2.23735,0.85855 -2.04559,0.38547 2.16797,-5.34766 2.0625,-2.80631 4.51621,-6.48863 5.45313,-8.18164 1.07533,-1.94315 2.32073,-2.97359 3.36328,-3.00391 z m -6.46875,2.92578 c 1.84009,0 1.8654,0.17245 0.43554,2.9375 -1.73727,3.35953 -2.52619,3.97401 -4.2832,3.34375 -3.00882,-1.07929 0.17785,-6.28125 3.84766,-6.28125 z m -292.441902,0.2744 c 1.334852,0.14389 3.461052,2.77588 3.058592,4.14257 -0.16196,0.55 -1.27238,1.14457 -2.466795,1.32032 -1.737069,0.2556 -2.171875,-0.18329 -2.171875,-2.19141 0,-1.3808 0.479812,-2.80739 1.066406,-3.16992 0.148777,-0.0919 0.322979,-0.12212 0.513672,-0.10156 z m 71.205082,4.96484 c 0.73524,-0.039 1.28342,0.43185 2.12109,1.5293 0.92846,1.21638 3.75382,2.58331 6.76758,3.27343 3.56095,0.81542 5.32402,1.75882 5.65625,3.0293 0.38453,1.47043 -0.0577,1.82222 -2.17383,1.72852 -6.93581,-0.3071 -12.74731,-1.8988 -14.40625,-3.94532 -2.27281,-2.8038 -2.20646,-3.6232 0.40625,-5.02148 0.67991,-0.36387 1.18776,-0.57034 1.62891,-0.59375 z m 67.03711,1.76367 c 0.62511,-0.0928 0.39574,1.12565 -1.00977,3.50781 l -2.12109,3.59375 2.15039,4.15625 c 1.18236,2.28613 3.7449,6.37005 5.69531,9.07618 2.74757,3.81216 3.41262,5.53753 2.94726,7.65625 -0.33034,1.50401 -0.16762,3.00195 0.36329,3.33007 0.55664,0.34404 0.76447,-0.35594 0.49023,-1.65429 -0.43575,-2.06298 -0.37704,-2.09617 0.69727,-0.4043 2.07253,3.26388 -0.39555,3.76964 -4.41993,0.90625 -7.82245,-5.56575 -12.29733,-21.64992 -7.65234,-27.50391 1.36998,-1.72655 2.37317,-2.59188 2.85938,-2.66406 z m 2.67382,0.625 c 0.77292,-0.0304 1.6467,0.4017 2.72266,1.24805 3.13177,2.46345 9.96854,18.77107 12.2793,29.29101 0.93628,4.2625 1.93151,7.75 2.21093,7.75 0.27941,0 0.22047,-1.2375 -0.13085,-2.75 -0.35134,-1.51247 -0.28858,-2.22891 0.14062,-1.59375 0.42921,0.63516 0.78125,4.64568 0.78125,8.91407 0,7.66171 -1.029,9.96874 -3.21875,7.21289 -0.56084,-0.70581 -1.33837,-3.04258 -1.72656,-5.19336 -1.17134,-6.48971 -8.08957,-23.21155 -11.28516,-27.27735 -5.26276,-6.69588 -6.59725,-10.10472 -5.24023,-13.38086 1.17453,-2.83556 2.17861,-4.17008 3.46679,-4.2207 z m -73.15039,3.69531 c 0.43611,-0.0408 0.91054,0.2003 1.1875,0.64844 0.36928,0.59751 1.46218,1.39167 2.42969,1.76563 1.12108,0.43329 1.53809,1.28432 1.14844,2.3457 -0.54828,1.49346 -0.89542,1.51668 -3.36133,0.21875 -2.73359,-1.43882 -3.59796,-3.74195 -1.81836,-4.8418 0.128,-0.0791 0.2687,-0.12311 0.41406,-0.13672 z m 148.84961,3.91211 c -1.39748,1.39748 -1.05662,1.25407 -0.46094,6.37891 0.57373,4.9358 1.26563,8.15573 1.26563,14.14648 l 0,7.78907 -3.80273,2.13672 c -4.6963,2.63946 -6.85133,4.96655 -7.68164,8.29492 -0.90989,3.64733 2.13987,7.03307 7.04687,7.82617 l 3.9375,0.63672 0.27344,6.48633 c 0.15059,3.56766 0.4741,7.04882 0.71875,7.73632 1.20788,3.39435 2.45301,0.45822 2.71484,-6.40039 l 0.29297,-7.65039 5.23633,-1.70508 c 7.37405,-2.3996 13.31793,-6.78846 15.18945,-11.21679 0.96365,-2.28019 2.65476,-4.17551 4.36328,-4.88867 1.5344,-0.64048 3.3344,-1.91888 4,-2.8418 1.91543,-2.65595 4.71094,-3.33014 4.71094,-1.13672 0,1.99016 2.66599,4.75784 3.64258,3.78125 0.32719,-0.32719 -0.13297,-1.32436 -1.02344,-2.21484 -2.008,-2.00798 -2.01012,-2.38656 -0.0215,-4.58399 2.04492,-2.2596 1.02917,-3.89258 -2.42188,-3.89258 -1.48818,0 -4.38514,-0.9 -6.4375,-2 -5.86206,-3.14187 -8.55517,-2.68841 -10.39453,1.75 -0.85474,2.0625 -1.74523,3.95201 -1.97852,4.19727 -0.23328,0.24525 -2.91194,-3.23 -6.07812,-8 -5.25747,-7.92061 -6.48808,-9.79495 -6.77344,-13.0332 -0.18856,-2.13984 -2.65206,-3.5248 -4.26076,-3.37029 -1.2854,0.18552 -1.46623,1.14161 -2.0576,1.77458 z m -123.21484,-1.57617 c 0.1993,-0.002 0.40814,0.005 0.625,0.0254 4.85044,0.44702 7.7168,1.19245 7.7168,2.22266 0,0.97563 -4.78405,1.60933 -9.18946,0.76758 -3.09003,-0.59041 -2.14185,-2.98243 0.84766,-3.01563 z m 125.48828,0.36524 c 0.3354,-0.0148 0.79034,0.0863 1.38477,0.39453 1.58515,0.82192 1.81927,1.87866 2.34765,3.99218 0.52838,2.11353 1.5857,4.40246 2.70117,6.33985 0.0267,0.0464 0.0902,0.14761 0.11914,0.19726 0.83815,1.09008 1.97876,2.74915 3.61719,5.21485 3.76206,5.66159 4.94206,8.40324 4.0918,8.94336 -0.67651,0.42974 -2.00258,0.78692 -2.94727,0.79492 -1.66433,0.0148 -5.01759,-6.78453 -6.44336,-11.58399 -2.61179,-5.39391 -3.71991,-7.33087 -3.48632,-8.73242 0.23484,-1.40902 1.35088,-4.04974 -0.29297,-4.57812 -1.64386,-0.52838 -1.87891,0.0574 -1.87891,-0.35352 0,-0.25685 0.22811,-0.60425 0.78711,-0.6289 z m -42.58789,0.85546 c 1.21767,-0.0441 2.05859,0.27426 2.05859,1.03711 0,0.55 -0.29546,2.48622 -1.46289,2.98438 -0.60587,0.25853 -2.80327,-1.27157 -3.51758,-1.20117 -0.77671,0.0766 -0.0562,1.75017 -0.33593,1.98437 -2.40779,2.01555 -16.47842,15.80754 -17.00391,14.16992 -0.25354,-0.79011 -0.63656,-2.0818 -0.85156,-2.87109 -0.22436,-0.82361 1.97802,-3.34571 5.16992,-5.91797 3.05893,-2.4651 7.04102,-5.75634 8.84766,-7.31445 1.9887,-1.71513 5.06625,-2.79755 7.0957,-2.8711 z m 107.5376,2.91116 c 0.56284,-0.002 1.17449,0.22593 1.81641,0.69531 1.71415,1.25341 1.69091,1.39923 -0.47461,2.91602 -3.10538,2.17509 -5.5088,2.77498 -4.88201,0.3781 0.55426,-2.11947 2.30196,-3.985 3.54021,-3.98943 z m -63.41846,6.14353 4.32227,11.58789 3.38281,4.89453 -3.10156,1.17383 c -1.70656,0.64566 -3.44102,1.2082 -3.85352,1.25 -0.4125,0.0418 -0.75,-2.66226 -0.75,-6.00976 z m 19.88867,10.21289 c 0.19492,0.008 0.38818,0.0458 0.57422,0.11719 0.91537,0.35126 1.41652,1.03789 1.11524,1.52539 -0.6744,1.09117 -4.58371,2.19057 -4.5625,1.2832 0.0371,-1.59121 1.5086,-2.98459 2.87304,-2.92578 z m 10.5332,0.32227 c 3.23429,-0.0298 6.68026,0.64089 6.32422,1.70898 -0.17944,0.53831 -3.00708,2.00227 -6.28515,3.25391 -3.27806,1.25165 -11.13594,4.7936 -17.46094,7.87109 -6.325,3.0775 -11.8375,5.60047 -12.25,5.60547 -0.4125,0.005 -0.75,-1.99111 -0.75,-4.43555 l 0,-4.44531 11.75,-3.64062 c 6.4625,-2.00221 12.73905,-4.27112 13.94727,-5.04297 0.91977,-0.58759 2.78404,-0.85715 4.7246,-0.875 z m -33.42187,10.40625 0,5.36523 c 0,3.92786 -0.48935,5.80991 -1.82813,7.02149 -2.42648,2.19593 -2.82873,2.12025 -5.85937,-1.09571 -2.14577,-2.27699 -2.39199,-2.36549 -1.42969,-0.52148 1.88701,3.61601 4.92798,4.75446 7.20117,2.69726 1.84331,-1.66821 1.91602,-1.63331 1.91602,0.91993 0,1.46025 -0.1125,2.60236 -0.25,2.53906 -0.1375,-0.0633 -2.0129,-0.45392 -4.16797,-0.86914 -4.66088,-0.89801 -6.92167,-3.51829 -6.04687,-7.00977 0.85287,-3.40391 2.17886,-4.81941 6.64843,-7.09961 z m 22.70508,0.57226 c 0.46016,0.0644 0.72071,0.41452 0.97461,1.07618 0.3366,0.87717 -0.0156,1.99244 -0.78321,2.47851 -1.53434,0.97154 -1.8155,0.99077 -3.64648,0.25195 -1.94206,-0.78364 -1.48705,-1.90771 1.2832,-3.16992 1.05117,-0.47894 1.71172,-0.70114 2.17188,-0.63672 z m -6.42383,3.82032 c 0.85355,-0.0274 1.5514,0.16259 2.34766,0.52539 1.38624,0.63165 2.93111,0.89453 3.43359,0.58398 0.50249,-0.31056 0.67239,0.066 0.37695,0.83594 -0.56975,1.48475 -4.41966,4.56928 -8.24414,6.60547 -1.26719,0.67466 -4.30469,1.82853 -6.75,2.56445 l -4.44531,1.33789 0,-3.75195 c 0,-3.67118 0.14157,-3.8115 6.55469,-6.53711 3.45115,-1.46676 5.30397,-2.11842 6.72656,-2.16406 z m -81.08789,2.7832 c 0.37678,0.0228 0.70683,1.2837 1.21875,4.11523 0.42265,2.33772 0.2921,3.75 -0.34766,3.75 -1.33677,0 -2.46009,-4.52547 -1.64843,-6.64062 0.30942,-0.80634 0.55127,-1.23831 0.77734,-1.22461 z m -206.410157,68.86523 34.107422,0 34.109375,0 0,22.5 0,22.5 -29.5,0 c -16.225,0 -29.5,-0.14394 -29.5,-0.32031 0,-0.6393 -7.849151,-39.25229 -8.523438,-41.92969 z"
       id="path2989"
       inkscape:connector-curvature="0"
       sodipodi:nodetypes="csssscssssssscssscssscccccsssssssssssssccsssssssccssssssccssssssssssssssscssscccccssssssssssssssccccccssscccccssscssscccccsscssssssssssssssccsscccsscssscccccsssssssssssssssssscscssscccccssssssccssssssssssssssscccccccsssssssccssssssscsccsssssssssssssssssscccssssssssssssscccssscccsssssssssssssssssssssssscscssssscscssscsssssssssssscsssscssccsssccssscsccssccssscsssssssssssssssssssssssssscsssscsssscccsscsssssssssscscsssscscsccccssccscccscccsssssssssssssccccsscsssccssccssscssscsscsssssssscssccssssccssssscsscsscsssssccsscccsssscccsssccssscsssccscccscccccssccc" />
    <path
       inkscape:connector-curvature="0"
       id="path3339"
       d="m 195.0051,134.70652 c -0.25632,-3.26685 0.56387,-4.58335 1.9992,-4.58335 1.43532,0 2.87064,0.78015 3.17822,2.87679 0.30756,2.09663 -4.10094,5.16846 -5.17742,1.70656 z"
       style="color:#000000;clip-rule:nonzero;display:inline;overflow:visible;visibility:visible;opacity:1;isolation:auto;mix-blend-mode:normal;color-interpolation:sRGB;color-interpolation-filters:linearRGB;solid-color:#000000;solid-opacity:1;fill:#000000;fill-opacity:1;fill-rule:evenodd;stroke:none;stroke-width:3.00000024;stroke-linecap:round;stroke-linejoin:round;stroke-miterlimit:4;stroke-dasharray:none;stroke-dashoffset:0;stroke-opacity:1;color-rendering:auto;image-rendering:auto;shape-rendering:auto;text-rendering:auto;enable-background:accumulate" />
    <path
       sodipodi:nodetypes="csssc"
       style="color:#000000;clip-rule:nonzero;display:inline;overflow:visible;visibility:visible;opacity:1;isolation:auto;mix-blend-mode:normal;color-interpolation:sRGB;color-interpolation-filters:linearRGB;solid-color:#000000;solid-opacity:1;fill:#000000;fill-opacity:1;fill-rule:evenodd;stroke:none;stroke-width:3.00000024;stroke-linecap:round;stroke-linejoin:round;stroke-miterlimit:4;stroke-dasharray:none;stroke-dashoffset:0;stroke-opacity:1;color-rendering:auto;image-rendering:auto;shape-rendering:auto;text-rendering:auto;enable-background:accumulate"
       d="m 271.23994,135.11748 c -0.25632,-3.26685 0.56387,-4.58335 1.9992,-4.58335 1.43532,0 2.87066,0.78015 3.17822,2.87679 0.10154,0.69216 -0.31092,4.5211 -0.94779,5.15566 -1.29228,1.28759 -3.50853,-1.13008 -4.22963,-3.4491 z"
       id="path3341"
       inkscape:connector-curvature="0" />
    <path
       inkscape:connector-curvature="0"
       id="path3345"
       d="m 322.78217,145.93975 c -2.6419,-5.45993 -3.75737,-7.39733 -3.52254,-8.80635 0.23484,-1.40902 1.35031,-4.05092 -0.29354,-4.5793 -1.64386,-0.52838 -1.87869,0.0587 -1.87869,-0.35226 0,-0.41096 0.58709,-1.05676 2.17223,-0.23483 1.58515,0.82192 1.81998,1.87869 2.34836,3.99221 0.52838,2.11353 1.58515,4.40318 2.70062,6.34057 1.11547,1.9374 4.16834,6.75154 4.16834,6.75154 0,0 -3.34642,0.93935 -5.69478,-3.11158 z"
       style="color:#000000;clip-rule:nonzero;display:inline;overflow:visible;visibility:visible;opacity:1;isolation:auto;mix-blend-mode:normal;color-interpolation:sRGB;color-interpolation-filters:linearRGB;solid-color:#000000;solid-opacity:1;fill:#ffffff;fill-opacity:1;fill-rule:evenodd;stroke:none;stroke-width:3.00000024;stroke-linecap:round;stroke-linejoin:round;stroke-miterlimit:4;stroke-dasharray:none;stroke-dashoffset:0;stroke-opacity:1;color-rendering:auto;image-rendering:auto;shape-rendering:auto;text-rendering:auto;enable-background:accumulate" />
  </g>
</svg>
