<?xml version="1.0" encoding="UTF-8" standalone="no"?>
<!-- Created with Inkscape (http://www.inkscape.org/) -->

<svg
   xmlns:dc="http://purl.org/dc/elements/1.1/"
   xmlns:cc="http://creativecommons.org/ns#"
   xmlns:rdf="http://www.w3.org/1999/02/22-rdf-syntax-ns#"
   xmlns:svg="http://www.w3.org/2000/svg"
   xmlns="http://www.w3.org/2000/svg"
   xmlns:sodipodi="http://sodipodi.sourceforge.net/DTD/sodipodi-0.dtd"
   xmlns:inkscape="http://www.inkscape.org/namespaces/inkscape"
   version="1.1"
   width="589"
   height="273"
   id="svg2"
   inkscape:version="0.91 r13725"
   sodipodi:docname="ub720300.svg">
  <sodipodi:namedview
     pagecolor="#cdcdcd"
     bordercolor="#666666"
     borderopacity="1"
     objecttolerance="10"
     gridtolerance="10"
     guidetolerance="10"
     inkscape:pageopacity="0"
     inkscape:pageshadow="2"
     inkscape:window-width="1606"
     inkscape:window-height="992"
     id="namedview11"
     showgrid="false"
     inkscape:zoom="1"
     inkscape:cx="503.13973"
     inkscape:cy="122.03757"
     inkscape:window-x="0"
     inkscape:window-y="0"
     inkscape:window-maximized="0"
     inkscape:current-layer="svg2" />
  <metadata
     id="metadata8">
    <rdf:RDF>
      <cc:Work
         rdf:about="">
        <dc:format>image/svg+xml</dc:format>
        <dc:type
           rdf:resource="http://purl.org/dc/dcmitype/StillImage" />
        <dc:title></dc:title>
      </cc:Work>
    </rdf:RDF>
  </metadata>
  <defs
     id="defs6" />
  <g
     id="g4174"
     transform="translate(52.524291,-11.837058)">
    <path
       d="m 331.77408,183.74967 c -0.79846,-4.99328 6.32634,-41.25867 9.07557,-46.19488 2.14453,-3.8505 4.80792,-4.78009 7.6795,-2.68034 1.82335,1.33327 1.77956,1.63719 -1.33832,9.28775 -1.77284,4.35015 -5.36827,15.7615 -7.98984,25.35855 -2.62157,9.59706 -5.22479,17.60196 -5.78494,17.78867 -0.56015,0.18672 -1.29904,-1.41517 -1.64197,-3.55975 z m 40.85553,-50.74411 c -2.75,-1.32454 -5.5938,-2.41405 -6.31955,-2.42112 -1.98405,-0.0194 -0.99272,-4.43292 1.08461,-4.82888 0.97078,-0.18504 3.04849,0.7435 4.61714,2.06343 1.56865,1.31993 4.25004,2.97893 5.95865,3.68666 2.82093,1.16847 3.52889,1.03928 7.69971,-1.40498 4.37506,-2.56396 7.45944,-2.79571 7.45944,-0.56048 0,0.56726 -0.68996,1.03138 -1.53324,1.03138 -0.84329,0 -3.75333,1.125 -6.46676,2.5 -5.90954,2.99459 -6.14825,2.99333 -12.5,-0.066 z m -0.75502,-6.70045 c -1.54624,-2.35986 -1.53225,-2.61608 0.22989,-4.2108 2.00843,-1.8176 5.1159,-1.75412 5.73893,0.11725 0.20874,0.62699 -0.67841,2.36991 -1.97144,3.87314 l -2.35096,2.73316 z"
       id="path2997"
       style="fill:#fefefe"
       inkscape:connector-curvature="0"
       sodipodi:nodetypes="ssssscsccsssssssccsssscs" />
    <path
       d="m 379.12961,163.6549 c 0,-0.50416 0.5625,-1.10662 1.25,-1.3388 0.6875,-0.23217 -0.325,-1.23267 -2.25,-2.22333 -4.23446,-2.17916 -9.53142,-8.11868 -13.25,-14.85732 -3.05615,-5.53821 -3.09851,-5.66388 -1.90893,-5.66388 0.46259,0 2.09944,2.3625 3.63745,5.25 3.22263,6.05025 7.83752,11.30037 11.72182,13.33532 3.39241,1.77725 3.79966,1.7681 3.79966,-0.0853 0,-0.825 0.3375,-1.49443 0.75,-1.48762 0.72987,0.012 5.25,6.44664 5.25,7.4736 0,0.28271 -2.025,0.51402 -4.5,0.51402 -2.475,0 -4.5,-0.4125 -4.5,-0.91667 z"
       id="path2993"
       style="fill:#fe0000"
       inkscape:connector-curvature="0"
       sodipodi:nodetypes="scsssssscssss" />
    <path
       d="m 339.20856,137.32157 c -0.0957,-2.12091 3.33833,-5.75 5.44092,-5.75 0.83593,0 4.32343,-1.16047 7.75,-2.57881 3.42657,-1.41835 8.18371,-3.18667 10.57141,-3.9296 4.12196,-1.28256 4.26089,-1.26197 2.75,0.40755 -2.25007,2.48629 -1.97346,5.01842 0.65872,6.0301 l 2.25,0.86479 -2.5,0.98079 c -4.53907,1.78074 -12.05402,4.22518 -12.98949,4.22518 -0.50578,0 -2.0446,-1.125 -3.4196,-2.5 -1.375,-1.375 -3.35071,-2.5 -4.39047,-2.5 -1.94153,0 -4.51376,2.34222 -5.491,5 -0.43662,1.18745 -0.568,1.13536 -0.63049,-0.25 z"
       id="path2991"
       style="fill:#0000fe"
       inkscape:connector-curvature="0"
       sodipodi:nodetypes="cssssscsssssc" />
    <path
       sodipodi:nodetypes="sccccscssssssccccsscscscsssssssssccsssssssscsscccsscccccssssssssccsssssssccccssscscccccssccc"
       inkscape:connector-curvature="0"
       id="path2989"
       d="m 320.62891,97.572266 c -1.98466,1.7e-4 -1.99707,0.570992 -1.71289,74.500004 l 0.28515,74.5 -14.18164,0 c 0,0 -19.37316,0.51953 0,0.51953 12.53914,0.001 23.40736,0.008 36.60938,0.008 147.4,-0.006 161.08984,-0.27734 161.08984,-0.27734 -28.57449,-0.20348 -42.2048,-0.25 -91.6582,-0.25 -25.30908,0 -27.03306,-0.11368 -26.54883,-1.75 0.28483,-0.9625 2.09214,-9.625 4.01562,-19.25 1.92349,-9.625 5.5708,-27.4 8.10547,-39.5 6.56283,-31.32956 6.26545,-28.5 2.9961,-28.5 -2.57746,0 -2.72526,0.22577 -2.21485,3.37109 0.33332,2.05403 -0.90487,10.15736 -3.16992,20.75 l -3.7168,17.37891 -34.25,0.26367 -34.25,0.26367 0.30078,-51.01367 c 0.29749,-50.44729 0.27859,-51.013854 -1.69921,-51.013674 z m 50.25976,15.208984 c -1.78366,-0.0163 -3.45506,0.47665 -4.55859,1.51953 -0.71465,0.67536 -2.06143,1.65295 -2.99219,2.17383 -0.93081,0.52089 -1.38797,1.25265 -1.01562,1.625 0.37235,0.37235 1.70689,-0.0447 2.96484,-0.92578 3.35997,-2.35342 3.74494,-2.00672 2.33594,2.09179 -1.07493,3.12677 -2.01307,3.95307 -6.13086,5.39454 -21.90639,7.66855 -22.577,8.03553 -23.00196,12.63867 -0.14081,1.52526 -2.08077,11.75899 -4.3125,22.74023 -3.73234,18.3649 -4.25168,24.46476 -2.35937,27.78321 0.63998,1.12231 1.94488,0.90653 3.02344,-0.5 0.52719,-0.6875 2.82881,-8.28608 5.11328,-16.88672 5.58968,-21.04417 9.75161,-31.86328 12.25781,-31.86328 2.36932,0 13.95518,-3.90118 15.70313,-5.28711 0.91201,-0.72313 2.73824,-0.34068 6.26367,1.31054 l 4.97656,2.33203 5.73633,-2.60351 c 3.15499,-1.43193 6.52383,-2.84814 7.48633,-3.14649 2.17653,-0.67466 2.2311,-1.96161 0.15625,-3.68359 -1.35078,-1.12105 -2.35096,-0.89586 -6.56446,1.47266 -4.42173,2.48558 -5.29593,2.65935 -7.90625,1.57812 -1.61415,-0.6686 -2.93554,-1.41518 -2.93554,-1.66015 0,-0.24497 1.125,-1.91994 2.5,-3.72266 3.22253,-4.22496 3.15484,-6.58692 -0.28125,-9.87891 -1.68865,-1.61784 -4.16573,-2.48094 -6.45899,-2.50195 z m 4.60352,7.98828 c 1.1058,0.0226 2.0381,0.50768 2.34961,1.44336 0.20874,0.627 -0.67768,2.36982 -1.97071,3.87305 l -2.35156,2.73242 -1.64648,-2.51172 c -1.54624,-2.35986 -1.53167,-2.61622 0.23047,-4.21094 1.00421,-0.9088 2.28287,-1.34877 3.38867,-1.32617 z m -9.03516,3.39063 c 0.36112,0.0535 0.0191,0.47578 -0.73633,1.31054 -2.25007,2.48629 -1.97397,5.01957 0.65821,6.03125 l 2.25,0.86524 -2.5,0.98047 c -4.53907,1.78079 -12.05477,4.22461 -12.99024,4.22461 -0.50578,0 -2.04297,-1.125 -3.41797,-2.5 -2.93123,-2.93123 -5.67677,-3.19492 -7.80664,-0.75 -0.83848,0.9625 -1.77283,2.425 -2.07617,3.25 -0.43662,1.18745 -0.56836,1.13536 -0.63086,-0.25 -0.0957,-2.12091 3.33882,-5.75 5.44141,-5.75 0.83593,0 4.32343,-1.15979 7.75,-2.57813 3.42657,-1.41836 8.18456,-3.18676 10.57226,-3.92969 2.06098,-0.64128 3.12522,-0.95781 3.48633,-0.90429 z m 1.34961,1.57812 c 1.06948,0.0718 2.83251,0.92709 4.20508,2.08203 1.56865,1.31993 4.25037,2.97782 5.95898,3.68555 2.82093,1.16847 3.5284,1.03996 7.69922,-1.4043 4.37506,-2.56391 7.45899,-2.79577 7.45899,-0.56054 0,0.56726 -0.68993,1.03125 -1.53321,1.03125 -0.84329,0 -3.75336,1.125 -6.46679,2.5 -5.90954,2.9946 -6.14825,2.99292 -12.5,-0.0664 -2.75,-1.32454 -5.59457,-2.41292 -6.32032,-2.41992 -1.98405,-0.0194 -0.99139,-4.43412 1.08594,-4.83008 0.12135,-0.0231 0.25933,-0.0278 0.41211,-0.0176 z m -22.25781,7.82031 c 0.9102,0.0609 1.89261,0.52095 2.98047,1.31641 1.82335,1.33327 1.77803,1.63655 -1.33985,9.28711 -1.77284,4.35015 -5.36671,15.76232 -7.98828,25.35937 -2.62157,9.59706 -5.225,17.60236 -5.78515,17.78907 -2.68804,0.89602 -2.15273,-8.02695 1.61328,-26.86524 3.98211,-19.91921 6.57533,-27.15086 10.51953,-26.88672 z m -23.41992,68.01368 34.10937,0 34.10742,0 -0.69336,2.75 c -0.67429,2.6774 -8.52343,41.29038 -8.52343,41.92968 0,0.17637 -13.275,0.32032 -29.5,0.32032 l -29.5,0 0,-22.5 z"
       style="fill:#000000" />
    <path
       style="fill:#fefefe"
       d="m 429.84653,107.86588 c -0.30149,0.0119 -0.5862,0.0569 -0.84375,0.13867 -0.98959,0.31408 -2.28377,2.14783 -2.875,4.07422 -1.06776,3.4791 -0.98382,3.62418 12.42383,21.62695 7.42386,9.9682 13.75349,18.84617 14.0664,19.73047 0.31291,0.88429 1.73674,2.58133 3.16407,3.76953 1.42731,1.1882 2.74206,2.01423 2.92187,1.83789 0.60333,-0.5917 -3.11847,-12.98246 -4.35547,-14.5 -1.20417,-1.47726 -13.4707,-22.94593 -13.4707,-23.57617 0,-0.17805 -1.35,-2.32274 -3,-4.76758 -1.65,-2.44484 -3,-4.92724 -3,-5.51563 0,-1.39463 -2.92083,-2.90162 -5.03125,-2.81835 z m 23.23437,10.08398 c -3.3467,0.13189 -5.63411,5.48131 -2.75781,9.87109 1.79302,2.7365 9.55469,28.97876 9.55469,32.30469 0,1.1467 0.29934,2.38529 0.66601,2.75195 1.00059,1.00059 1.02257,0.90713 0.54688,-2.33398 -0.26431,-1.80081 0.005,-3 0.67383,-3 1.72727,0 1.35614,-3.15666 -1.87891,-15.9707 -2.13927,-8.47366 -2.82363,-13.09131 -2.39844,-16.19336 0.48829,-3.5625 0.2312,-4.66936 -1.43554,-6.17774 -1.01299,-0.91674 -2.03363,-1.28888 -2.97071,-1.25195 z m 6.81446,7.82617 c -1.95872,0.37272 -2.59959,4.78511 -0.85547,5.89063 1.52944,0.96944 5.83789,1.17663 5.83789,0.28125 0,-1.84042 -3.69466,-6.41693 -4.98242,-6.17188 z"
       id="path2997-5"
       inkscape:connector-curvature="0" />
    <path
       style="fill:#0000fe"
       id="path2991-4"
       d="m 439.93671,118.40646 c -0.31245,-0.9739 -1.22133,-2.36636 -1.80499,-3.23124 -1.53847,-2.27976 -2.2541,-3.90771 -2.2541,-4.50276 0,-1.86515 -4.75402,-4.34088 -6.97933,-3.63459 -1.14249,0.36261 -2.7419,2.08743 -3.55425,3.83293 l -1.47699,3.17363 0.57109,-3 c 0.88226,-4.63462 2.79303,-5.92857 8.75466,-5.92857 11.52918,0 24.68482,6.63603 24.68482,12.45163 0,2.19524 -0.0773,2.21696 -1.92834,0.54179 -2.57066,-2.32642 -5.95756,-1.19061 -7.21622,2.41998 -0.749,2.1486 -3.75866,-0.0588 -5.70079,-0.18622 -1.3901,-0.0913 -2.78311,-0.96268 -3.09556,-1.93658 z"
       inkscape:connector-curvature="0"
       sodipodi:nodetypes="ssssscssssscs" />
    <path
       style="fill:#000000"
       d="m 433.19028,104.07291 c -5.3647,0.091 -8.76123,2.14242 -9.7461,6.0664 -0.82738,3.29658 -0.22233,4.29859 14.6504,24.26563 7.11207,9.54814 13.20816,18.09814 13.54687,19 0.3387,0.90186 2.48045,3.46329 4.75977,5.6914 l 4.14453,4.05079 -0.78125,-4.17774 c -1.4153,-7.57571 -7.81274,-28.66237 -9.45703,-31.17187 -3.6686,-5.599 1.12666,-12.77447 5.74414,-8.59571 1.66674,1.50838 1.92383,2.61524 1.43554,6.17774 -0.42519,3.10205 0.25917,7.7197 2.39844,16.19336 3.13245,12.40763 3.59659,15.9707 2.08399,15.9707 -0.49923,0 -0.93315,2.5875 -0.96485,5.75 -0.0317,3.1625 -1.56169,12.5 -3.40039,20.75 l -3.34375,15 -16.69141,0.27539 c -9.99798,0.16423 -16.6914,0.6655 -16.6914,1.25 0,0.59526 6.47616,0.97461 16.60742,0.97461 l 16.60938,0 -0.69336,2.75 c -0.67429,2.6774 -8.52344,41.29039 -8.52344,41.92969 0,0.17637 -12.40629,0.32031 -27.56836,0.32031 -2.2753,0 -3.43948,0.0652 -5.35547,0.0625 l 0,0.43555 c 25.61533,-0.0178 47.7286,-0.092 65.66016,-0.11784 l 0,-0.19942 c -0.9663,0.001 -1.81148,-0.0313 -2.80469,-0.0313 -25.30908,0 -27.03306,-0.26303 -26.54883,-1.89935 0.28483,-0.9625 2.09215,-9.625 4.01563,-19.25 1.92349,-9.625 5.57079,-27.4 8.10546,-39.5 6.00811,-28.68142 5.97875,-28.5 4.62696,-28.5 -0.62196,0 -1.13939,-1.0125 -1.15039,-2.25 -0.011,-1.2375 -1.12752,-6.525 -2.48047,-11.75 -1.35295,-5.225 -2.46947,-9.73585 -2.48047,-10.02539 -0.011,-0.28953 1.80184,-0.35305 4.0293,-0.14063 5.84057,0.55699 8.15363,-1.79701 7.82617,-7.96679 -0.1375,-2.5906 0.29562,-5.36631 0.96094,-6.16797 0.96089,-1.15781 0.84357,-2.09629 -0.56446,-4.5625 -1.80693,-3.16489 -4.07227,-4.71161 -5.16406,-3.52344 -0.33378,0.36325 -0.035,0.86584 0.66406,1.11524 0.69907,0.24939 1.97184,1.80699 2.82813,3.46289 l 1.55664,3.01171 -4.00391,-0.67578 c -2.36589,-0.39971 -4.85184,-0.22269 -6.07812,0.4336 -1.80623,0.96667 -2.07422,0.8264 -2.07422,-1.08008 0,-3.64675 -6.85173,-9.21594 -14.00196,-11.38086 -4.53889,-1.37427 -8.46672,-2.02533 -11.68554,-1.9707 z m 0.002,1.04297 c 11.52918,0 24.68555,6.63556 24.68555,12.45117 0,2.19524 -0.0767,2.21813 -1.92774,0.54297 -2.57066,-2.32642 -5.95813,-1.19068 -7.21679,2.41992 -0.749,2.14859 -3.75864,-0.0603 -5.70077,-0.18772 -1.39011,-0.0913 -2.78259,-0.96283 -3.09504,-1.93672 -0.31245,-0.9739 0.27569,-0.22666 -1.26279,-2.50642 -1.53848,-2.27976 -2.79687,-4.63151 -2.79687,-5.22656 0,-1.86515 -4.75516,-4.34106 -6.98047,-3.63477 -1.14249,0.36261 -2.74039,2.08849 -3.55273,3.83398 l -1.47657,3.17188 0.57031,-3 c 0.88227,-4.63462 2.79228,-5.92773 8.75391,-5.92773 z m -3.3457,2.75 c 2.11042,-0.0833 5.03125,1.42372 5.03125,2.81835 0,0.58839 1.35,3.07079 3,5.51563 1.65,2.44484 3,4.58953 3,4.76758 0,0.63024 12.26653,22.09891 13.4707,23.57617 0.67249,0.825 2.00152,4.35298 2.95313,7.83984 0.95161,3.48686 1.58215,6.48382 1.40234,6.66016 -0.58535,0.57407 -5.50135,-3.95533 -6.08594,-5.60742 -0.31291,-0.8843 -6.64254,-9.76227 -14.0664,-19.73047 -13.40765,-18.00277 -13.49159,-18.14785 -12.42383,-21.62695 0.59123,-1.92639 1.88541,-3.76014 2.875,-4.07422 0.25755,-0.0817 0.54226,-0.12678 0.84375,-0.13867 z m 12.84548,13.14727 c 0.27851,-0.007 0.67253,0.12241 1.17337,0.35277 3.30553,0.24589 6.8339,8.21422 8.63154,14.26753 0.83424,2.80919 1.34191,5.2831 1.1289,5.4961 -0.213,0.213 -2.53334,-3.46732 -5.15624,-8.17774 -3.87472,-6.95851 -6.98447,-11.90674 -5.77757,-11.93866 z m 17.20335,4.76288 c 1.28776,-0.24505 4.98242,4.33146 4.98242,6.17188 0,0.89538 -4.30845,0.68819 -5.83789,-0.28125 -1.74412,-1.10552 -1.10325,-5.51791 0.85547,-5.89063 z"
       id="path2989-8"
       inkscape:connector-curvature="0"
       sodipodi:nodetypes="cssscccsssssscccssccssccccsssssssssssssccccsssccsssscsssscccscssssscsssccccscscssss" />
    <path
       style="fill:#fefefe"
       id="path2997-4"
       d="m 196.91055,150.30165 c -1.09834,-1.2375 -5.90179,-9.02895 -10.67433,-17.31434 -9.73349,-16.89785 -13.19061,-21.84372 -13.15539,-18.82052 0.0121,1.03667 0.91208,3.8465 2,6.24406 1.08792,2.39757 1.97804,4.93937 1.97804,5.64846 0,0.70909 1.35987,3.8744 3.02193,7.03403 3.21541,6.11259 3.18084,8.94179 -0.12205,9.99009 -3.60419,1.14393 -6.64208,-1.9037 -7.21638,-7.23954 -0.78161,-7.26186 -0.67008,-32.29224 0.14388,-32.29224 0.39308,0 1.73424,1.0125 2.98036,2.25 2.40317,2.38655 27.69369,36.03749 29.30384,38.99098 1.34394,2.46517 -1.53047,7.75902 -4.21293,7.75902 -1.12749,0 -2.94863,-1.01249 -4.04697,-2.25 z m -23.16235,-19.5 c -0.25153,-0.9625 -0.45733,-0.175 -0.45733,1.75 0,1.92501 0.2058,2.71251 0.45733,1.75 0.25152,-0.9625 0.25152,-2.53749 0,-3.5 z m -87.117896,13.17858 c -0.86429,-0.86429 -1.57143,-2.40714 -1.57143,-3.42858 0,-2.02377 2.50502,-5 4.20838,-5 1.21362,0 12.209226,-9.61135 24.882486,-21.75 4.73734,-4.53749 8.9049,-8.25 9.26124,-8.25 1.19731,0 0.66277,2.71202 -1.50247,7.62289 -1.3602,3.08501 -6.18891,9.19674 -13.14111,16.63277 -14.162136,15.14775 -18.429906,17.88012 -22.137096,14.17292 z m 80.083556,-9.25731 c -2.36453,-2.61278 -2.16559,-6.17127 0.34501,-6.17127 1.66667,0 2,0.66668 2,4 0,4.57051 -0.0945,4.65802 -2.34501,2.17126 z M 94.305404,115.39819 c -1.9545,-1.9545 -1.46404,-4.79938 1.00347,-5.82062 1.2375,-0.51217 8.099996,-3.47321 15.249996,-6.5801 7.15,-3.106885 14.125,-5.812025 15.5,-6.011425 1.375,-0.19941 1.7125,-0.12072 0.75,0.17485 -0.9625,0.29557 -1.75,0.92896 -1.75,1.40753 0,0.47857 -4.6125,3.451235 -10.25,6.605915 -5.6375,3.15468 -11.15,6.76136 -12.25,8.01485 -2.45797,2.80094 -6.562866,3.8996 -8.253466,2.209 z m -96.292165,-7.01601 c -0.617498,-2.29321 -0.892439,-5.10571 -0.610979,-6.25 C -2.316281,100.9879 0.15902,91.523505 2.902928,81.100205 7.25585,64.564738 8.23635,61.897806 10.594164,60.180258 c 3.125445,-2.276728 5.755788,-1.331439 6.289061,2.260156 0.178394,1.201477 -3.147841,11.018061 -7.391633,21.814631 -4.243792,10.79657 -7.935773,21.580085 -8.204404,23.963375 -0.616124,5.46624 -1.829794,5.52695 -3.273949,0.16376 z M 167.59733,104.0132 c -0.38688,-3.09646 -0.49572,-5.837615 -0.24187,-6.091465 0.25384,-0.25385 0.77807,2.07192 1.16495,5.168385 0.38688,3.09646 0.49572,5.83761 0.24187,6.09146 -0.25384,0.25385 -0.77807,-2.07192 -1.16495,-5.16838 z m -72.871786,2.87179 c -1.45664,-1.45664 -0.52658,-4.29837 2.07711,-6.34643 l 2.74378,-2.158265 1.341206,3.286955 c 1.19605,2.93117 1.14897,3.42752 -0.43491,4.58568 -1.917726,1.40228 -4.654896,1.70436 -5.727186,0.63206 z M 247.06085,117.2252 c 2.46691,-3.87017 5.11285,-3.97968 7.81745,-0.32357 2.2236,3.00587 -3.15208,5.57213 -6.80059,3.2465 -1.45664,-0.92849 -1.75023,-1.7724 -1.01686,-2.92293 z m -19.46086,-14.72122 c 1.16903,-1.08371 2.82828,-0.92698 6.90917,0.65266 9.21787,3.56807 21.61267,6.73289 25.0365,6.39269 4.33742,-0.43097 6.88231,1.85093 6.04442,5.41979 -0.52658,2.24285 -1.2148,2.95798 -3.43204,3.56626 -2.31914,0.63624 -3.3273,0.29077 -6.15541,-2.10923 -1.86012,-1.57854 -5.13721,-3.42158 -7.28243,-4.09565 -2.14523,-0.67405 -7.32239,-2.68881 -11.50479,-4.47722 -4.18241,-1.78843 -8.40303,-3.40275 -9.37916,-3.58739 -1.39384,-0.26366 -1.44456,-0.64182 -0.23626,-1.76191 z M 54.137824,98.801655 c -0.0434,-0.6875 -1.16901,-1.25 -2.5013,-1.25 -2.19268,0 -2.71358,-0.93742 -5.49404,-9.88713 -1.68943,-5.43792 -4.4201,-12.45049 -6.06815,-15.58349 -3.25892,-6.195295 -2.88429,-9.52938 1.07075,-9.52938 2.58237,0 4.37495,4.224708 6.91345,16.29352 2.7572,13.10852 3.86307,16.53028 5.669,17.54093 0.87446,0.48937 1.34228,1.51432 1.03958,2.27766 -0.38084,0.96044 -0.57466,1.00291 -0.62929,0.13789 z M 232.5908,97.512135 c 2.01499,-0.28289 2.6187,-0.98283 3.61458,-0.34804 0.86608,0.55206 3.50546,0.7247 5.8653,0.38364 4.9185,-0.71083 32.63978,-2.88089 37.33481,-2.92261 2.60843,-0.0232 3.39852,0.38079 4.71697,2.41177 2.3639,3.641435 0.76982,7.251805 -3.38574,7.668205 -6.88834,0.69024 -44.30578,-1.77361 -47.66284,-3.13848 l -4.79691,-0.69489 0.35148,-2.803305 z M 46.269614,67.886653 c -1.27934,-4.168485 -0.89108,-5.334998 1.7757,-5.334998 2.22334,0 6.01356,4.496948 6.01356,7.134859 0,1.447031 -0.74698,1.865141 -3.33222,1.865141 -2.96555,0 -3.45599,-0.40328 -4.45704,-3.665002 z"
       inkscape:connector-curvature="0"
       sodipodi:nodetypes="sscsssssssssssssssssssssssssssssssssssssssssssscscssscssssssssssssssssscssssssccsssssssccssssss" />
    <path
       style="fill:#fe0000"
       id="path2993-1"
       d="M 25.69295,151.9652 C 13.011135,148.8956 1.434702,140.38263 -6.799856,128.07094 -15.603969,114.9077 -19.619527,99.949405 -18.616844,84.051655 c 0.497471,-7.88752 2.898279,-20.055894 4.217235,-21.37485 1.393089,-1.393089 1.385931,1.361987 -0.01693,6.517419 -3.828546,14.069651 -2.714818,32.826806 2.722837,45.857426 11.768884,28.20259 39.540855,42.62141 64.915146,33.70306 7.56009,-2.65716 14.52399,-7.16071 12.75922,-8.25139 -0.75013,-0.46361 -1.00954,-1.19725 -0.57646,-1.63033 0.92782,-0.92782 8.92113,-3.3882 9.41221,-2.89714 0.18551,0.18551 -0.91827,2.41596 -2.45285,4.95655 -2.65218,4.39087 -4.30469,5.78751 -4.30469,3.63817 0,-0.53959 -2.8125,0.5646 -6.25,2.45376 -11.15702,6.13162 -23.96009,7.88315 -36.115921,4.94086 z"
       inkscape:connector-curvature="0" />
    <path
       style="fill:#0000fe"
       id="path2991-40"
       d="m 191.4027,155.55285 c -10.22089,-2.12687 -18.34383,-7.51112 -18.34383,-12.1591 0,-1.77417 0.14802,-1.79121 2.45104,-0.28221 1.44367,0.94592 3.29359,1.33856 4.50106,0.95532 2.43258,-0.77207 4.42444,-4.09157 3.65629,-6.09334 -0.71684,-1.86806 0.81217,-1.82497 2.38247,0.0671 0.67967,0.81894 1.70429,1.19941 2.27696,0.84549 0.57266,-0.35392 0.75162,-0.17496 0.3977,0.3977 -0.35392,0.57267 0.006,1.58038 0.8002,2.23937 0.79403,0.65899 2.60319,3.1767 4.02036,5.59491 4.23064,7.21904 8.32419,8.34044 11.62112,3.18354 l 2.0778,-3.25 -0.65831,3 c -0.36206,1.65 -1.19119,3.54165 -1.84249,4.20366 -1.64803,1.67511 -8.37951,2.32983 -13.34037,1.29753 z M 83.094054,142.6174 c -2.45781,-4.59247 0.34031,-20.08313 4.98525,-27.5988 2.1987,-3.55758 3.97957,-4.50715 3.97957,-2.12193 0,2.31311 3.66522,4.89601 5.92834,4.17774 3.070556,-0.97456 2.635886,1.43258 -1.28902,7.13838 -1.84837,2.68706 -3.68112,5.8952 -4.07278,7.1292 -0.39165,1.234 -2.21099,2.86991 -4.04296,3.63536 -3.55293,1.48451 -5.05748,4.31678 -4.02358,7.5743 0.80997,2.552 -0.11206,2.59339 -1.46482,0.0657 z M 262.87187,119.10839 c 1.3082,-0.35889 2.72897,-1.20228 3.15726,-1.8742 1.47284,-2.31064 0.59076,-6.61272 -1.64848,-8.04005 -2.13761,-1.36255 -2.12759,-1.41404 0.41026,-2.11024 1.43072,-0.3925 2.25921,-0.93462 1.8411,-1.20469 -0.41812,-0.27008 2.70108,-0.39741 6.93155,-0.28296 4.23047,0.11445 8.53957,-0.064 9.57579,-0.39665 2.7292,-0.87602 3.7494,-5.00341 2.04486,-8.272805 l -1.46049,-2.80129 2.19775,2.13342 c 3.51458,3.4117 3.51415,5.629525 -0.002,10.981965 -3.26814,4.97478 -6.95635,8.4231 -13.45022,12.5754 -3.65862,2.3394 -7.73208,2.64967 -10.61991,0.80891 -1.23124,-0.78481 -1.13722,-0.92427 1.02268,-1.51678 z M 28.158104,65.998726 c -4.620418,-1.308311 -8.782918,-2.142563 -9.249996,-1.853892 -0.467079,0.28867 -0.849234,-0.331958 -0.849234,-1.379174 0,-1.047217 -0.918238,-2.735024 -2.040529,-3.750684 -1.950347,-1.765039 -2.170773,-1.769717 -4.98747,-0.105853 -2.34959,1.387937 -2.833564,1.445347 -2.387616,0.283223 0.720986,-1.878859 4.288357,-3.200441 12.582897,-4.661508 9.420388,-1.659384 17.378078,0.151813 20.307018,4.621945 1.47828,2.256139 1.45281,2.398872 -0.42819,2.398872 -2.2393,0 -5.57191,4.340227 -4.57329,5.956024 0.35487,0.574187 0.50616,1.004785 0.3362,0.956885 -0.16996,-0.0479 -4.08936,-1.157527 -8.70979,-2.465838 z"
       inkscape:connector-curvature="0"
       sodipodi:nodetypes="cssssssscsscsscccssssssscccssscssscssssccssssssssssss" />
    <path
       style="fill:#000000"
       d="m 45.914343,49.58095 c -0.513976,0.0569 -0.855767,0.4786 -0.613281,1.2207 0.22464,0.6875 1.948341,1.75868 3.832031,2.38086 3.81331,1.25952 4.165312,2.68887 0.789062,3.21094 -1.21895,0.18848 -3.309934,1.05981 -4.646484,1.93554 -2.23677,1.4656 -2.505097,1.45914 -3.373047,-0.0918 -2.44471,-4.36847 -11.345928,-6.29713 -21.21875,-4.59571 -8.989702,1.54924 -12.087804,3.08824 -13.324219,6.61328 -1.066631,3.041 -10.183294,38.22657 -10.958984,42.29688 -0.651362,3.41792 1.81112,10.5 3.650391,10.5 1.005354,0 1.700423,-1.51454 2.15625,-4.70117 0.728406,-5.0922 14.212743,-40.50326 16.201171,-42.54492 1.142638,-1.17323 5.557695,-0.34605 17.91211,3.35937 2.35921,0.70759 3.986127,4.07708 8.992187,18.61328 l 4.226563,12.27344 0.324219,24.75 c 0.27,20.69823 0.556372,24.75 1.757812,24.75 1.20736,0 1.43748,-3.68569 1.4375,-23.0957 0,-20.19456 0.21982,-23.46982 1.75,-26.07422 1.67664,-2.85372 1.673017,-3.03457 -0.0957,-4.33399 -1.77607,-1.30481 -4.615044,-10.22951 -6.121094,-19.24609 -0.67786,-4.05827 -0.596175,-4.25 1.796875,-4.25 3.8607,0 5.613561,-0.99085 7.207031,-4.07227 2.19099,-4.23691 1.841058,-7.63429 -0.976562,-9.48046 -1.42783,-0.93555 -2.211462,-2.19399 -1.888672,-3.03516 0.781357,-2.03618 -1.498118,-4.4121 -4.234378,-4.4121 -1.27519,0 -2.59758,-0.45 -2.9375,-1 -0.4448,-0.7197 -1.130555,-1.0276 -1.644531,-0.9707 z M 27.961218,53.9247 c 6.34962,0.0189 11.37556,1.87591 13.572265,5.22851 1.47828,2.25614 1.453266,2.39844 -0.427734,2.39844 -2.2393,0 -5.572839,4.33928 -4.574219,5.95508 0.3549,0.57419 0.505898,1.00493 0.335938,0.95703 -0.16996,-0.0479 -4.088555,-1.15653 -8.708985,-2.46484 -4.620418,-1.30832 -8.782922,-2.14219 -9.25,-1.85352 -0.467079,0.28867 -0.849609,-0.33169 -0.849609,-1.37891 0,-1.04721 -0.918725,-2.73629 -2.041016,-3.75195 -1.950347,-1.76504 -2.169631,-1.76933 -4.986328,-0.10547 -2.349586,1.38794 -2.83462,1.44533 -2.388672,0.2832 0.720986,-1.87885 4.289445,-3.20104 12.583985,-4.6621 2.355097,-0.41485 4.617835,-0.61177 6.734375,-0.60547 z m -14.144532,5.02343 c 1.580527,0.0368 2.733111,1.24744 3.066407,3.49219 0.178394,1.20148 -3.146833,11.01789 -7.390625,21.81445 -4.243792,10.79658 -7.936447,21.57962 -8.205078,23.9629 -0.26863,2.38328 -0.863041,4.33398 -1.320313,4.33398 -1.20518,0 -3.166781,-7.97113 -2.564453,-10.41992 0.281459,-1.14428 2.756092,-10.60795 5.5,-21.03125 4.352922,-16.53547 5.333592,-19.20238 7.691406,-20.91992 1.172042,-0.85378 2.274341,-1.25449 3.222656,-1.23243 z m 27.328126,3.60352 c 2.582369,0 4.375562,4.22416 6.914062,16.29297 2.7572,13.10852 3.862039,16.53036 5.667969,17.54101 0.87446,0.48937 1.343715,1.51401 1.041015,2.27735 -0.38084,0.96044 -0.576259,1.00369 -0.630859,0.13867 -0.04342,-0.6875 -1.16771,-1.25 -2.5,-1.25 -2.19268,0 -2.713681,-0.93701 -5.494141,-9.88672 -1.68943,-5.43792 -4.420309,-12.45098 -6.068359,-15.58398 -3.25892,-6.1953 -2.884727,-9.5293 1.070313,-9.5293 z m 6.90039,0 c 2.22334,0 6.013672,4.49685 6.013672,7.13477 0,1.44703 -0.746791,1.86523 -3.332031,1.86523 -2.96555,0 -3.455982,-0.40234 -4.457031,-3.66406 -1.279341,-4.16849 -0.89139,-5.33594 1.77539,-5.33594 z m 238.256418,32.7148 c -1.27444,-0.85874 -2.90702,-1.33244 -4.87472,-1.40022 -4.4027,-0.15167 -32.18713,1.87888 -38.81851,2.83726 -2.35984,0.34105 -5.04502,0.14033 -5.96641,-0.44698 -0.96862,-0.61741 -2.64662,-0.43649 -3.97896,0.42843 -1.38792,0.90099 -3.87189,0.13205 -5.15252,-0.0891 -1.31703,-0.29451 -3.76413,0.0536 -3.76413,1.26831 0,2.69871 0.95801,2.00462 0.95801,22.41605 0,18.56766 0.14551,51.27145 0.14551,51.27145 l 0.29296,75 -26.54296,0 -26.54102,0 0,-22.5 0,-22.5 20,0 c 12.66667,0 20,-0.36667 20,-1 0,-0.63333 -7.33333,-1 -20,-1 l -20,0 0,-25.875 c 0,-14.23125 0.27721,-27.25714 0.61523,-28.94727 0.59276,-2.96379 0.69775,-3.01947 2.95118,-1.54296 1.3543,0.88724 3.19648,1.25801 4.38476,0.88085 2.43258,-0.77206 4.4244,-4.09198 3.65625,-6.09374 -1.67905,-4.37553 6.48862,3.40717 10.32617,9.83984 3.91241,6.55815 7.9909,7.46687 11.17383,2.48828 l 2.04688,-3.20117 c -0.14203,-0.44062 -0.32335,-0.87652 -0.54883,-1.30664 -2.21264,-4.22077 -27.03343,-37.35732 -30.51758,-40.74219 -1.69879,-1.65039 -3.08789,-4.00578 -3.08789,-5.23242 0,-1.56186 -0.77022,-2.42272 -2.57227,-2.875 -4.49028,-1.12699 -4.95512,0.57525 -3.08984,11.33594 0.93164,5.37463 1.68673,11.90898 1.67773,14.52148 -0.0153,4.54987 -0.13618,4.75 -2.86132,4.75 -4.52169,0 -6.50251,3.01542 -5.92578,9.01758 0.41093,4.2766 0.23397,5.02779 -1.1211,4.77344 -0.88419,-0.16596 -2.05083,-1.31259 -2.59375,-2.54688 -0.54292,-1.23429 -1.33042,-2.24414 -1.75,-2.24414 -1.26063,0 -0.86508,2.41237 0.78321,4.76562 1.34671,1.92269 2.32101,2.17268 7.5,1.9336 l 5.95312,-0.27344 0,51.78711 0,51.78711 -20,0 -20,0 0,-22.5 0,-22.5 9,0 c 5.33333,0 9,-0.40741 9,-1 0,-0.59299 -3.6829,-1 -9.04883,-1 l -9.04883,0 0.15235,-50.92969 c 0.0836,-28.0108 -0.17221,-51.45276 -0.56836,-52.09375 -0.97821,-1.58277 -3.31234,-0.91851 -14.98633,4.25977 l -10,4.43555 -2.5,-5.08594 c -2.922256,-5.94477 -5.686546,-6.93451 -10.152336,-3.63282 -2.36687,1.74991 -2.97781,1.87061 -3.43555,0.67774 -0.30627,-0.79812 0.15082,-2.81791 1.01562,-4.49024 1.76269,-3.40867 1.90865,-4.14376 0.82227,-4.13476 -1.2578,0.0106 -4.25,6.00598 -4.25,8.51562 0,1.29797 0.45,2.6386 1,2.97852 0.55,0.33992 1,1.872 1,3.4043 0,1.5323 0.86352,3.56741 1.91992,4.52343 1.88494,1.70585 1.86663,1.81711 -1.00586,5.90625 -5.61335,7.99087 -8.70603,24.66443 -5.43945,29.32813 2.26627,3.23556 7.90404,3.88499 11.95898,1.37891 5.678256,-3.50936 26.046176,-26.02578 28.419926,-31.41797 4.52682,-10.28306 1.89517,-10.77158 -7.70704,-1.43164 -11.34358,11.03375 -20.313056,18.976 -20.837886,18.45117 -0.25509,-0.25509 1.14553,-2.8054 3.11329,-5.66602 1.96775,-2.86063 3.578116,-5.94702 3.578116,-6.85937 0,-2.69101 3.90062,-5.92953 13.98828,-11.61524 6.62519,-3.73416 9.71321,-4.99514 10.23438,-4.17578 0.41052,0.6454 0.75371,33.46133 0.76172,72.92383 l 0.0156,71.75 -36.499996,0 -36.5,0 0,-22.5 0,-22.5 12.5,0 c 7.66667,0 12.5,-0.38667 12.5,-1 0,-0.61333 -4.83333,-1 -12.5,-1 l -12.5,0 0,-24 c 0,-20.66667 -0.20833,-24 -1.5,-24 -1.31227,0 -1.5,5.94344 -1.5,47.48633 l 0,47.48437 -31.25,0.2793 c -17.1875,0.15346 81.249996,0.2876 218.749996,0.29688 30.89429,0.002 59.4711,-0.005 86.29688,-0.0156 l 0,-0.48828 -14.33399,-0.043 c -18.19549,-0.0545 -19.56089,-0.12525 -19.08008,-1.75 0.28483,-0.9625 2.09215,-9.625 4.01563,-19.25 1.92349,-9.625 5.5708,-27.4 8.10547,-39.5 6.56283,-31.32956 6.26544,-28.5 2.99609,-28.5 -2.57746,0 -2.72525,0.22577 -2.21484,3.37109 0.33332,2.05403 -0.90488,10.15736 -3.16993,20.75 l -3.71679,17.37891 -34.19922,0.26367 -34.19922,0.26172 0,-47.43555 0,-46.81682 0.62948,0.25933 c 1.80738,0.49006 6.19908,2.18149 9.75936,3.75871 3.56028,1.57721 7.37975,3.14516 8.48808,3.48573 1.82958,0.56218 1.78152,0.91934 -0.52405,3.87442 -3.82108,4.8975 -2.97483,7.99867 3.04944,11.17137 5.37692,2.83176 5.35246,4.43597 -0.0732,4.77326 -1.8664,0.11603 -3.30009,0.62594 -3.1875,1.13442 0.1126,0.50848 1.86715,0.81062 3.89964,0.66983 3.4,-0.23552 3.958,-0.67012 6.99664,-5.42792 1.81652,-2.84413 3.22449,-5.81985 3.12869,-6.61258 -0.11971,-0.9906 0.73258,-1.09092 2.72312,-0.31868 4.0775,1.58191 8.42498,0.14025 14.93526,-4.95369 7.06369,-5.52696 12.14063,-12.89909 11.49649,-16.69519 -0.39561,-2.33145 -1.4401,-4.07314 -3.07866,-5.17723 z m -79.08845,51.83403 c 0.004,0.0136 0.007,0.0274 0.0117,0.041 l 0.0195,-0.0898 z m 0.0117,0.041 -0.63868,2.91016 c -1.08516,4.94525 -2.88263,6.01766 -9.8125,5.85156 -7.51676,-0.18017 -17.09778,-3.5802 -20.95312,-7.43554 -1.51924,-1.51924 -2.7617,-2.38653 -2.7617,-1.92773 0,0.4588 1.34295,1.96454 2.98438,3.3457 7.2449,6.09618 24.46073,9.28665 28.82031,5.3418 2.42406,-2.19345 3.27067,-5.21155 2.36133,-8.08594 z M 284.87141,95.3554 c 2.51949,1.45297 4.08877,5.20015 3.17588,8.17146 -2.22047,7.2272 -16.56894,19.12763 -22.119,18.34578 -1.49797,-0.21103 -3.3326,-0.77163 -4.07835,-1.24698 -1.23119,-0.78479 -1.13769,-0.92386 1.02215,-1.51639 1.30822,-0.3589 2.72832,-1.20253 3.15661,-1.87445 1.47284,-2.31064 0.59181,-6.61295 -1.64744,-8.04029 -2.13761,-1.36255 -2.12824,-1.4144 0.40963,-2.11064 1.43072,-0.3925 2.25781,-0.93371 1.83863,-1.2021 -0.41898,-0.26873 2.38574,-0.40203 6.23181,-0.29642 8.88792,0.24406 11.37491,-0.17113 12.60812,-2.10584 1.14408,-1.79487 0.28647,-6.78697 -1.32174,-7.69371 -0.59974,-0.33815 -0.49322,0.34964 0.23673,1.52902 0.72995,1.17936 0.95942,3.24973 0.50946,4.60038 -1.08018,3.24244 -2.71377,3.36447 -27.91072,2.09809 -11.22782,-0.5643 -21.9871,-1.66428 -23.9095,-2.44586 -1.87825,-0.59662 -3.44531,-1.03744 -4.57226,-0.88276 0,0 0.0287,-1.72709 0.43682,-2.17394 0.40811,-0.44685 1.0015,-0.33641 2.57039,-0.57948 2.3196,-0.35937 3.7004,-1.40226 4.69628,-0.76747 0.86608,0.55205 3.51081,0.71663 5.87645,0.36647 8.11648,-1.20141 39.57906,-3.20253 41.65659,-2.64953 0.39427,0.10494 0.77354,0.26709 1.13346,0.47466 z m -18.94346,10.6096 c 0.2068,0.19289 -0.43517,0.38678 -1.95005,0.57751 -1.08086,0.13608 -2.29176,0.76112 -2.69142,1.38811 -0.90965,1.42709 -5.2079,1.03697 -12.57018,-1.14041 -3.13512,-0.92721 -6.52007,-1.89578 -7.52228,-2.1521 -1.0022,-0.25632 4.1084,-0.20472 11.35714,0.11473 8.36536,0.36865 12.92182,0.78779 13.37679,1.21216 z m -1.852,4.45705 c 1.38632,0.93929 1.98581,2.53866 1.51449,4.54615 -0.52657,2.24285 -1.21506,2.95958 -3.4323,3.56786 -2.31914,0.63624 -3.32685,0.29027 -6.15495,-2.10973 -1.86012,-1.57854 -5.13848,-3.42208 -7.2837,-4.09614 -2.14523,-0.67406 -7.32171,-2.68869 -11.50411,-4.47711 -4.18241,-1.78842 -6.54702,-2.63021 -7.63364,-3.05792 -1.31998,-0.51956 -1.84321,-0.92807 -0.63491,-2.04816 1.16903,-1.08371 1.48133,-1.17025 5.56223,0.40939 9.21786,3.56807 21.61293,6.73333 25.03675,6.39313 1.89763,-0.18855 3.45189,0.14196 4.53014,0.87253 z M 126.8909,96.88759 c 0.62988,-0.0481 0.63985,0.0518 -0.082,0.27344 -0.9625,0.29557 -1.75,0.92963 -1.75,1.4082 0,0.47857 -4.6125,3.45079 -10.25,6.60547 -5.6375,3.15468 -11.15,6.76018 -12.25,8.01367 -2.45797,2.80094 -6.563306,3.89958 -8.253906,2.20898 -1.9545,-1.9545 -1.4636,-4.79907 1.00391,-5.82031 1.2375,-0.51217 8.099996,-3.47319 15.249996,-6.58008 7.15,-3.10688 14.125,-5.81232 15.5,-6.01172 0.34375,-0.0498 0.62207,-0.0816 0.83203,-0.0976 z m 40.51563,1.01562 c 0.26816,0.0577 0.75058,2.28457 1.11328,5.1875 0.38688,3.09646 0.49603,5.83795 0.24218,6.0918 -0.25383,0.25385 -0.77718,-2.07346 -1.16406,-5.16992 -0.38688,-3.09646 -0.49603,-5.83795 -0.24218,-6.0918 0.0159,-0.0159 0.0329,-0.0214 0.0508,-0.0176 z m -67.859376,0.47656 1.339836,3.28711 c 1.19605,2.93117 1.15029,3.42778 -0.43359,4.58594 -5.500096,4.02177 -9.020986,-1.49032 -3.650386,-5.71484 z M 252.34354,114.5661 c 4.03663,2.57303 4.01424,5.50615 -0.0484,6.40577 -3.1558,0.6988 -6.52919,-1.71521 -5.23442,-3.74648 1.72203,-2.70158 3.67456,-3.68442 5.28282,-2.65929 z m -79.45655,-11.01445 c 0.39309,0 1.73435,1.0125 2.98047,2.25 2.40317,2.38655 27.69259,36.03675 29.30274,38.99023 0.6564,1.20403 0.46871,2.66899 -0.60742,4.75 -1.87728,3.63026 -4.84288,3.9252 -7.65235,0.75977 -1.09834,-1.2375 -5.90129,-9.02906 -10.67383,-17.31445 -9.73349,-16.89785 -13.19145,-21.84352 -13.15625,-18.82032 0.0121,1.03667 0.91208,3.84659 2,6.24415 1.08792,2.39757 1.97852,4.93934 1.97852,5.64843 0,0.70909 1.35942,3.87358 3.02148,7.03321 3.21541,6.11259 3.1818,8.94193 -0.12109,9.99023 -3.60419,1.14392 -6.6425,-1.90245 -7.2168,-7.23828 -0.78161,-7.26187 -0.66943,-32.29297 0.14453,-32.29297 z m -49.47656,2 c 1.19731,0 0.66329,2.71219 -1.50195,7.62305 -2.35387,5.3387 -21.82705,26.96365 -27.359376,30.38281 -1.7748,1.09689 -3.9288,1.99414 -4.78711,1.99414 -2.12847,0 -4.70312,-2.7373 -4.70312,-5 0,-2.02378 2.50562,-5 4.20898,-5 1.21362,0 12.209556,-9.61136 24.882816,-21.75 4.73734,-4.5375 8.90342,-8.25 9.25976,-8.25 z m -32.031246,6.0293 c 0.42899,-0.005 0.67969,0.42195 0.67969,1.3164 0,2.31312 3.66461,4.89602 5.92773,4.17774 3.070556,-0.97456 2.635846,1.43286 -1.28906,7.13867 -1.84837,2.68706 -3.6806,5.89491 -4.07226,7.12891 -0.39165,1.234 -2.211,2.86931 -4.04297,3.63476 -3.55293,1.48451 -5.05734,4.3167 -4.02344,7.57422 0.80997,2.55196 -0.11208,2.59406 -1.46484,0.0664 -2.45781,-4.59247 0.33943,-20.08394 4.98437,-27.59961 1.37419,-2.22349 2.5858,-3.42896 3.30078,-3.4375 z m 83.269526,4.32226 c 0.54788,-0.0326 3.63755,4.73157 8.22657,12.89844 3.32227,5.9125 5.91802,10.75 5.76757,10.75 -0.15044,0 -1.08849,-0.9 -2.08398,-2 -0.99549,-1.1 -2.40327,-2 -3.12891,-2 -1.48773,0 -3.65663,-3.78618 -5.15625,-9 -0.55368,-1.925 -1.7691,-5.3 -2.69922,-7.5 -0.8996,-2.12785 -1.17481,-3.13364 -0.92578,-3.14844 z m -7.58984,12.64844 c 1.66667,0 2,0.66667 2,4 0,4.5705 -0.0952,4.65864 -2.3457,2.17188 -2.36453,-2.61278 -2.1649,-6.17188 0.3457,-6.17188 z m 6.51172,1.84766 c -0.164,-0.0943 -0.2793,0.70859 -0.2793,2.15234 0,1.925 0.2055,2.7125 0.45703,1.75 0.25152,-0.9625 0.25152,-2.5375 0,-3.5 -0.0629,-0.24063 -0.12307,-0.3709 -0.17773,-0.40234 z m 54.48828,71.15234 34.10938,0 34.10742,0 -0.69336,2.75 c -0.67429,2.6774 -8.52344,41.29039 -8.52344,41.92969 0,0.17637 -13.275,0.32031 -29.5,0.32031 l -29.5,0 0,-22.5 z"
       id="path2989-89"
       inkscape:connector-curvature="0"
       sodipodi:nodetypes="ssssssssssssscccssssssssssssssscsssssssssssssssssssssccssssssssscssssccsccccccssscssccssccssssscssssssccccccccssscsscccssscssssssssssssssccccccssscssscssccsssssscccccccsssssssccsssscccccsssssscsssssssscsssssscccczssssssssssssssssssssscscssssssccsccccccscsssssssssssssssssssssssssscssssssssccsssscscssssccsscscccsccccssccc" />
  </g>
</svg>
