<?xml version="1.0" encoding="UTF-8" standalone="no"?>
<!-- Created with Inkscape (http://www.inkscape.org/) -->

<svg
   xmlns:dc="http://purl.org/dc/elements/1.1/"
   xmlns:cc="http://creativecommons.org/ns#"
   xmlns:rdf="http://www.w3.org/1999/02/22-rdf-syntax-ns#"
   xmlns:svg="http://www.w3.org/2000/svg"
   xmlns="http://www.w3.org/2000/svg"
   xmlns:sodipodi="http://sodipodi.sourceforge.net/DTD/sodipodi-0.dtd"
   xmlns:inkscape="http://www.inkscape.org/namespaces/inkscape"
   version="1.1"
   width="574"
   height="290"
   id="svg2"
   inkscape:version="0.91 r13725"
   sodipodi:docname="ub720900.svg">
  <sodipodi:namedview
     pagecolor="#d2d2d2"
     bordercolor="#666666"
     borderopacity="1"
     objecttolerance="10"
     gridtolerance="10"
     guidetolerance="10"
     inkscape:pageopacity="0"
     inkscape:pageshadow="2"
     inkscape:window-width="1407"
     inkscape:window-height="1007"
     id="namedview11"
     showgrid="false"
     inkscape:zoom="0.70710678"
     inkscape:cx="107.50933"
     inkscape:cy="118.38082"
     inkscape:window-x="0"
     inkscape:window-y="0"
     inkscape:window-maximized="0"
     inkscape:current-layer="svg2" />
  <metadata
     id="metadata8">
    <rdf:RDF>
      <cc:Work
         rdf:about="">
        <dc:format>image/svg+xml</dc:format>
        <dc:type
           rdf:resource="http://purl.org/dc/dcmitype/StillImage" />
        <dc:title></dc:title>
      </cc:Work>
    </rdf:RDF>
  </metadata>
  <defs
     id="defs6" />
  <g
     id="g3415"
     transform="translate(-12.860497,-13.006106)">
    <path
       d="m 268.85168,179.75 c -1.09834,-1.2375 -5.90179,-9.02895 -10.67433,-17.31434 -9.73349,-16.89785 -13.19061,-21.84372 -13.15539,-18.82052 0.0121,1.03667 0.91208,3.8465 2,6.24406 1.08792,2.39757 1.97804,4.93937 1.97804,5.64846 0,0.70909 1.35987,3.8744 3.02193,7.03403 3.21541,6.11259 3.18084,8.94179 -0.12205,9.99009 -3.60419,1.14392 -6.64208,-1.90371 -7.21638,-7.23954 C 243.90189,158.03037 244.01342,133 244.82738,133 c 0.39308,0 1.73424,1.0125 2.98036,2.25 2.40317,2.38655 27.69369,36.03749 29.30384,38.99097 1.34394,2.46517 -1.53047,7.75903 -4.21293,7.75903 -1.12749,0 -2.94863,-1.0125 -4.04697,-2.25 z m -23.16235,-19.5 c -0.25153,-0.9625 -0.45733,-0.175 -0.45733,1.75 0,1.925 0.2058,2.7125 0.45733,1.75 0.25152,-0.9625 0.25152,-2.5375 0,-3.5 z m -87.1179,13.17857 C 157.70714,172.56429 157,171.02143 157,170 c 0,-2.02378 2.50502,-5 4.20838,-5 1.21362,0 12.20923,-9.61136 24.88249,-21.75 4.73734,-4.5375 8.9049,-8.25 9.26124,-8.25 1.19731,0 0.66277,2.71202 -1.50247,7.62288 -1.3602,3.08502 -6.18891,9.19674 -13.14111,16.63277 -14.16214,15.14775 -18.42991,17.88012 -22.1371,14.17292 z m 80.08356,-9.25731 C 236.29046,161.55848 236.4894,158 239,158 c 1.66667,0 2,0.66667 2,4 0,4.5705 -0.0945,4.65802 -2.34501,2.17126 z m -72.40846,-19.32473 c -1.9545,-1.9545 -1.46404,-4.79938 1.00347,-5.82062 1.2375,-0.51217 8.1,-3.47321 15.25,-6.5801 7.15,-3.10688 14.125,-5.81202 15.5,-6.01142 1.375,-0.19941 1.7125,-0.12072 0.75,0.17485 -0.9625,0.29557 -1.75,0.92896 -1.75,1.40753 0,0.47857 -4.6125,3.45123 -10.25,6.60591 -5.6375,3.15468 -11.15,6.76136 -12.25,8.01485 -2.45797,2.80094 -6.56287,3.8996 -8.25347,2.209 z m -96.292165,-7.01601 c -0.617498,-2.29321 -0.892439,-5.10571 -0.610979,-6.25 0.281459,-1.14428 2.75676,-10.60867 5.500668,-21.03197 4.352922,-16.535467 5.333422,-19.202399 7.691236,-20.919947 3.125445,-2.276728 5.755788,-1.331439 6.289061,2.260156 0.178394,1.201477 -3.147841,11.018061 -7.391633,21.814631 -4.243792,10.79657 -7.935773,21.58009 -8.204404,23.96337 -0.616124,5.46624 -1.829794,5.52695 -3.273949,0.16376 z m 169.584095,-4.36898 c -0.38688,-3.09646 -0.49572,-5.83761 -0.24187,-6.09146 0.25384,-0.25385 0.77807,2.07192 1.16495,5.16838 0.38688,3.09646 0.49572,5.83761 0.24187,6.09146 -0.25384,0.25385 -0.77807,-2.07192 -1.16495,-5.16838 z m -72.87179,2.87179 c -1.45664,-1.45664 -0.52658,-4.29837 2.07711,-6.34643 l 2.74378,-2.15826 1.34121,3.28695 c 1.19605,2.93117 1.14897,3.42752 -0.43491,4.58568 -1.91773,1.40228 -4.6549,1.70436 -5.72719,0.63206 z M 325,133.08179 c 0,-4.58954 2.17234,-6.1041 6.41821,-4.4748 C 334.90896,129.94651 331.75526,135 327.42857,135 325.70118,135 325,134.44617 325,133.08179 Z m -24.32331,-1.95343 c 0.40329,-1.54221 1.88671,-2.3019 6.17703,-3.16337 9.69091,-1.94587 21.84405,-5.93942 24.54836,-8.06663 3.42592,-2.69482 6.79846,-2.13849 8.01019,1.32136 0.76151,2.17434 0.56555,3.1473 -0.9772,4.85202 -1.61365,1.78307 -2.64949,2.03365 -6.32433,1.52996 -2.41704,-0.33129 -6.17113,-0.12398 -8.34242,0.46068 -2.17129,0.58467 -7.61992,1.66848 -12.10806,2.40846 -4.48814,0.73997 -8.91493,1.6473 -9.8373,2.01628 -1.31709,0.52687 -1.56312,0.23524 -1.14627,-1.35876 z M 126.07895,128.25 c -0.0434,-0.6875 -1.16901,-1.25 -2.5013,-1.25 -2.19268,0 -2.71358,-0.93742 -5.49404,-9.88713 -1.68943,-5.43792 -4.4201,-12.45049 -6.06815,-15.58349 C 108.75654,95.334085 109.13117,92 113.08621,92 c 2.58237,0 4.37495,4.224708 6.91345,16.29352 2.7572,13.10852 3.86307,16.53028 5.669,17.54093 0.87446,0.48937 1.34228,1.51432 1.03958,2.27766 -0.38084,0.96044 -0.57466,1.00291 -0.62929,0.13789 z m 176.05763,-3.21196 C 302.80637,123.11668 303.88204,122 305.06303,122 c 1.02706,0 3.34554,-1.27311 5.15217,-2.82914 3.76549,-3.24315 25.97527,-19.973483 29.91197,-22.532288 2.18712,-1.421599 3.07051,-1.505627 5.27397,-0.50166 3.95068,1.800051 4.54706,5.701358 1.26667,8.286148 -5.43764,4.28458 -38.31455,22.3191 -41.87905,22.97261 l -3.71124,0.68041 z m 100.5166,2.23636 c -3.34057,-0.4998 -3.43374,0.0293 2.42526,-13.7744 2.33448,-5.5 4.28434,-11.30052 4.33303,-12.89005 0.10922,-3.565487 2.81152,-5.589048 5.33853,-3.997652 2.88049,1.814001 2.52838,3.490532 -2.6017,12.387702 -9.59859,16.64697 -8.87622,14.92857 -6.8983,16.40987 1.78748,1.33869 2.34938,2.70987 1,2.4403 -0.4125,-0.0824 -2.03107,-0.3415 -3.59682,-0.57577 z m 11.74546,-16.67795 c -0.37359,-0.97355 0.006,-3.19353 0.84386,-4.93328 l 1.52312,-3.16317 1.29702,2.79239 c 1.15878,2.49478 1.06884,3.02057 -0.84386,4.93328 -1.98601,1.98601 -2.19003,2.01283 -2.82014,0.37078 z M 118.21074,97.334998 C 116.9314,93.166513 117.31966,92 119.98644,92 122.20978,92 126,96.496948 126,99.134859 126,100.58189 125.25302,101 122.66778,101 c -2.96555,0 -3.45599,-0.40328 -4.45704,-3.665002 z M 414.94112,72.108427 c -1.9411,-1.040365 -11.12598,-6.209802 -20.41084,-11.487638 -9.28486,-5.277836 -18.37753,-9.876709 -20.20592,-10.219718 -4.64186,-0.870817 -4.14246,-2.155844 1.14603,-2.948901 4.11637,-0.617289 6.04428,0.02146 24.34514,8.066023 18.79132,8.260152 19.94219,8.922896 21.11186,12.157542 0.96579,2.670847 0.9729,3.739488 0.0324,4.872704 -1.53515,1.849739 -1.77989,1.831847 -6.01868,-0.440012 z"
       id="path2997"
       style="fill:#fefefe"
       inkscape:connector-curvature="0"
       sodipodi:nodetypes="sscsssssssssssssssssssssssssssssssssssssssssssscscssscssssssssssssssssscssssssccssssssscssssssscssccsssssssscsssssscc" />
    <path
       d="M 97.634076,181.41354 C 84.952261,178.34394 73.375828,169.83097 65.14127,157.51928 56.337157,144.35604 52.321599,129.39775 53.324282,113.5 c 0.497471,-7.88752 2.898279,-20.055894 4.217235,-21.37485 1.393089,-1.393089 1.385931,1.361987 -0.01693,6.517419 -3.828546,14.069651 -2.714818,32.826801 2.722837,45.857431 11.768884,28.20258 39.540855,42.62141 64.915146,33.70306 7.56009,-2.65716 14.52399,-7.16071 12.75922,-8.2514 -0.75013,-0.4636 -1.00954,-1.19725 -0.57646,-1.63032 0.92782,-0.92782 8.92113,-3.38821 9.41221,-2.89714 0.18551,0.18551 -0.91827,2.41596 -2.45285,4.95655 -2.65218,4.39087 -4.30469,5.78751 -4.30469,3.63817 0,-0.53959 -2.8125,0.5646 -6.25,2.45376 -11.15702,6.13162 -23.96009,7.88315 -36.115921,4.94086 z"
       id="path2993"
       style="fill:#fe0000"
       inkscape:connector-curvature="0" />
    <path
       d="M 263.34383,185.00119 C 253.12294,182.87432 245,177.49007 245,172.84209 c 0,-1.77417 0.14802,-1.79121 2.45104,-0.28221 1.44367,0.94592 3.29359,1.33856 4.50106,0.95532 2.43258,-0.77207 4.42444,-4.09157 3.65629,-6.09334 -0.71684,-1.86805 0.81217,-1.82497 2.38247,0.0671 0.67967,0.81894 1.70429,1.19941 2.27696,0.84549 0.57266,-0.35392 0.75162,-0.17496 0.3977,0.3977 -0.35392,0.57267 0.006,1.58038 0.8002,2.23937 0.79403,0.65899 2.60319,3.1767 4.02036,5.59491 4.23064,7.21904 8.32419,8.34044 11.62112,3.18354 l 2.0778,-3.25 -0.65831,3 c -0.36206,1.65 -1.19119,3.54165 -1.84249,4.20366 -1.64803,1.67511 -8.37951,2.32983 -13.34037,1.29753 z M 155.03518,172.06574 c -2.45781,-4.59247 0.34031,-20.08312 4.98525,-27.59879 2.1987,-3.55758 3.97957,-4.50715 3.97957,-2.12194 0,2.31312 3.66522,4.89602 5.92834,4.17774 3.07056,-0.97456 2.63589,1.43258 -1.28902,7.13839 -1.84837,2.68706 -3.68112,5.8952 -4.07278,7.1292 -0.39165,1.234 -2.21099,2.86991 -4.04296,3.63536 -3.55293,1.48451 -5.05748,4.31678 -4.02358,7.5743 0.80997,2.552 -0.11206,2.59339 -1.46482,0.0657 z M 339.34501,126.17126 C 340.25526,125.16545 341,123.69058 341,122.89377 341,120.15364 337.94378,117 335.28831,117 c -2.53494,0 -2.55416,-0.0488 -0.78831,-2 0.99549,-1.1 1.40273,-2.00246 0.90499,-2.00547 -0.49775,-0.003 2.0641,-1.78697 5.693,-3.96437 3.62889,-2.1774 7.16664,-4.64409 7.86166,-5.48155 1.83055,-2.20567 0.47234,-6.234504 -2.72236,-8.075239 L 343.5,93.896183 l 3,0.617713 c 4.79752,0.987831 5.98926,2.858262 5.90113,9.261774 -0.0819,5.95168 -1.33852,10.84195 -4.58263,17.83392 -1.82772,3.93926 -5.09593,6.39041 -8.52054,6.39041 -1.46009,0 -1.45577,-0.16814 0.0471,-1.82874 z m 77.10993,-29.221055 c -1.23589,-1.365637 -2.71484,-1.942514 -4.23504,-1.651909 -1.85133,0.353903 -2.19366,0.109948 -1.65005,-1.175874 2.93482,-6.941777 4.33336,-11.294192 4.94962,-15.403676 0.58439,-3.897019 1.03283,-4.678227 2.43078,-4.234536 0.9987,0.316976 2.47653,-0.298316 3.54063,-1.474136 1.52349,-1.683434 1.63426,-2.440012 0.66778,-4.561189 -1.4236,-3.124465 -1.45411,-3.749519 -0.14351,-2.939521 1.60942,0.994674 3.69899,6.750346 4.38847,12.087898 0.98573,7.63096 -3.06717,19.790587 -7.03746,21.114018 -0.55668,0.18556 -1.86673,-0.606923 -2.91122,-1.761075 z M 100.09923,95.447071 C 95.478812,94.13876 91.316312,93.304508 90.849234,93.593179 90.382155,93.881849 90,93.261221 90,92.214005 c 0,-1.047217 -0.918238,-2.735024 -2.040529,-3.750684 -1.950347,-1.765039 -2.170773,-1.769717 -4.98747,-0.105853 -2.34959,1.387937 -2.833564,1.445347 -2.387616,0.283223 0.720986,-1.878859 4.288357,-3.200441 12.582897,-4.661508 9.420388,-1.659384 17.378078,0.151813 20.307018,4.621945 C 114.95258,90.857267 114.92711,91 113.04611,91 c -2.2393,0 -5.57191,4.340227 -4.57329,5.956024 0.35487,0.574187 0.50616,1.004785 0.3362,0.956885 -0.16996,-0.0479 -4.08936,-1.157527 -8.70979,-2.465838 z"
       id="path2991"
       style="fill:#0000fe"
       inkscape:connector-curvature="0"
       sodipodi:nodetypes="cssssssscsscsscccssssssscccssscssscssssccsssssssssssssssssssssss" />
    <path
       style="fill:#000000"
       d="m 377.46875,46.277344 c -0.74071,0.03318 -1.45703,0.156464 -2.30469,0.320312 -5.91774,1.143876 -6.08796,3.260914 -0.39648,4.941406 2.34753,0.693146 12.40906,5.882267 22.35742,11.53125 l 18.08789,10.271485 -0.67383,5.076172 c -0.37041,2.79229 -1.8334,7.974685 -3.25,11.515625 -1.4166,3.54094 -2.67613,8.041605 -2.80078,10.001953 C 408.36362,101.8959 406.3419,108 403.99609,113.5 c -2.34581,5.5 -4.16237,10.9 -4.03711,12 0.12527,1.1 0.42332,35.4125 0.66407,76.25 l 0.43945,74.25 -19.59961,0 c -18.19557,0 -19.56089,-0.12525 -19.08008,-1.75 0.28483,-0.9625 2.09215,-9.625 4.01563,-19.25 1.92349,-9.625 5.5708,-27.4 8.10547,-39.5 6.56283,-31.32956 6.26544,-28.5 2.99609,-28.5 -2.57746,0 -2.72525,0.22577 -2.21484,3.37109 0.33332,2.05403 -0.90488,10.15736 -3.16993,20.75 L 368.39844,228.5 334.19922,228.76367 300,229.02539 l 0,-47.43555 0,-47.43554 3.25,-1.01368 c 1.7875,-0.55822 6.4,-1.49249 10.25,-2.07617 3.85,-0.58368 7.91359,-1.31449 9.03125,-1.62304 1.84499,-0.50935 1.99644,-0.18234 1.64063,3.54882 -0.58971,6.18372 1.7908,8.34394 8.57617,7.78125 6.05622,-0.50223 6.89787,0.86368 2.5039,4.06446 -1.51149,1.10105 -2.44638,2.30166 -2.07812,2.66992 0.36826,0.36826 2.0102,-0.32005 3.64844,-1.53125 2.74049,-2.02613 2.97742,-2.69254 2.98242,-8.33789 0.003,-3.37473 -0.40913,-6.64083 -0.91602,-7.25781 -0.6334,-0.77099 0.0314,-1.3137 2.125,-1.73243 4.28868,-0.85773 7.17982,-4.41023 9.93164,-12.20507 2.98573,-8.45745 3.30432,-17.402954 0.72071,-20.257816 -2.82094,-3.117105 -6.36627,-3.558334 -10.24219,-1.271485 -3.79414,2.238593 -26.13216,18.885231 -31.20899,23.257811 -1.80663,1.55603 -4.17882,2.83008 -5.27148,2.83008 -1.14866,0 -2.4664,1.05451 -3.125,2.5 -0.68609,1.50579 -1.96998,2.50017 -3.22852,2.5 l -2.08984,0 0.29102,75 0.29296,75 -26.54296,0 -26.54102,0 0,-22.5 0,-22.5 20,0 c 12.66667,0 20,-0.36667 20,-1 0,-0.63333 -7.33333,-1 -20,-1 l -20,0 0,-25.875 c 0,-14.23125 0.27721,-27.25714 0.61523,-28.94727 0.59276,-2.96379 0.69775,-3.01947 2.95118,-1.54296 1.3543,0.88724 3.19648,1.25801 4.38476,0.88085 2.43258,-0.77207 4.4244,-4.09198 3.65625,-6.09374 -1.67905,-4.37552 6.48862,3.40717 10.32617,9.83984 3.91241,6.55815 7.9909,7.46687 11.17383,2.48828 l 2.04688,-3.20117 c -0.14203,-0.44062 -0.32335,-0.87652 -0.54883,-1.30664 C 276.39283,171.02142 251.57204,137.88487 248.08789,134.5 246.3891,132.84961 245,130.49422 245,129.26758 c 0,-1.56186 -0.77022,-2.42272 -2.57227,-2.875 -4.49028,-1.12699 -4.95512,0.57525 -3.08984,11.33594 0.93164,5.37463 1.68673,11.90898 1.67773,14.52148 -0.0153,4.54987 -0.13618,4.75 -2.86132,4.75 -4.52169,0 -6.50251,3.01542 -5.92578,9.01758 0.41093,4.2766 0.23397,5.02779 -1.1211,4.77344 -0.88419,-0.16596 -2.05083,-1.31259 -2.59375,-2.54688 -0.54292,-1.23429 -1.33042,-2.24414 -1.75,-2.24414 -1.26063,0 -0.86508,2.41237 0.78321,4.76562 1.34671,1.92269 2.32101,2.17268 7.5,1.9336 L 241,172.42578 l 0,51.78711 0,51.78711 -20,0 -20,0 0,-22.5 0,-22.5 9,0 c 5.33333,0 9,-0.40741 9,-1 0,-0.59299 -3.6829,-1 -9.04883,-1 l -9.04883,0 0.15235,-50.92969 c 0.0836,-28.0108 -0.17221,-51.45276 -0.56836,-52.09375 -0.97821,-1.58277 -3.31234,-0.91851 -14.98633,4.25977 l -10,4.43555 -2.5,-5.08594 c -2.92226,-5.94477 -5.68655,-6.9345 -10.15234,-3.63282 -2.36687,1.74991 -2.97781,1.87061 -3.43555,0.67774 -0.30627,-0.79812 0.15082,-2.8179 1.01562,-4.49024 1.76269,-3.40867 1.90865,-4.14376 0.82227,-4.13476 -1.2578,0.0106 -4.25,6.00598 -4.25,8.51562 0,1.29797 0.45,2.6386 1,2.97852 0.55,0.33992 1,1.872 1,3.4043 0,1.5323 0.86352,3.56741 1.91992,4.52343 1.88494,1.70585 1.86663,1.81711 -1.00586,5.90625 -5.61335,7.99087 -8.70603,24.66443 -5.43945,29.32813 2.26627,3.23556 7.90404,3.88499 11.95898,1.37891 5.67826,-3.50936 26.04618,-26.02578 28.41993,-31.41797 4.52682,-10.28306 1.89517,-10.77158 -7.70704,-1.43164 -11.34358,11.03375 -20.31306,18.976 -20.83789,18.45117 -0.25509,-0.25509 1.14553,-2.8054 3.11329,-5.66602 1.96775,-2.86063 3.57812,-5.94702 3.57812,-6.85937 0,-2.69101 3.90062,-5.92953 13.98828,-11.61524 6.62519,-3.73416 9.71321,-4.99514 10.23438,-4.17578 0.41052,0.6454 0.75371,33.46133 0.76172,72.92383 L 198,276 l -36.5,0 -36.5,0 0,-22.5 0,-22.5 12.5,0 c 7.66667,0 12.5,-0.38667 12.5,-1 0,-0.61333 -4.83333,-1 -12.5,-1 l -12.5,0 0,-24 c 0,-20.66667 -0.20833,-24 -1.5,-24 -1.31227,0 -1.5,5.94344 -1.5,47.48633 l 0,47.48437 -31.25,0.2793 c -17.1875,0.15346 81.25,0.2876 218.75,0.29688 137.5,0.009 244.01084,-0.12385 236.69141,-0.29493 -1.82347,-0.0426 -2.96927,-0.0872 -4.32813,-0.13086 L 453.32812,276 436.03125,276 404,276 l 0,-22.5 0,-22.5 17.5,0 c 11,0 17.5,-0.37143 17.5,-1 0,-0.62863 -6.50919,-1 -17.52734,-1 l -17.52735,0 0.27735,-49.45703 c 0.26966,-48.10709 0.33195,-49.49958 2.27734,-51 1.89106,-1.45853 1.90468,-1.61619 0.25,-2.90235 -2.34524,-1.82291 -2.26436,-2.18041 2.12891,-9.39257 3.75515,-6.16457 3.83289,-6.22378 5.61914,-4.25 2.41122,2.66437 4.6476,2.52378 7.9082,-0.49805 3.30049,-3.05879 4.32087,-3.10571 7.27539,-0.33008 1.27078,1.19384 2.56754,1.91294 2.88281,1.59766 0.89018,-0.89018 -1.85396,-4.72437 -3.83007,-5.35156 -1.83831,-0.58346 -7.72247,-6.38414 -7.73047,-7.621098 -0.003,-0.388075 1.03464,-2.237863 2.30468,-4.109375 C 428.43946,88.12478 428.86863,73.394868 424.14453,67 422.88776,65.298753 415.51299,61.495398 401.0625,55.097656 384.33886,47.693511 380.67849,46.133557 377.46875,46.277344 Z M 279.1543,176.54883 c 0.004,0.0136 0.007,0.0274 0.0117,0.041 l 0.0195,-0.0898 -0.0312,0.0488 z m 0.0117,0.041 -0.63868,2.91016 c -1.08516,4.94525 -2.88263,6.01766 -9.8125,5.85156 -7.51676,-0.18017 -17.09778,-3.5802 -20.95312,-7.43554 -1.51924,-1.51924 -2.7617,-2.38653 -2.7617,-1.92773 0,0.4588 1.34295,1.96454 2.98438,3.3457 7.2449,6.09618 24.46073,9.28665 28.82031,5.3418 2.42406,-2.19345 3.27067,-5.21155 2.36133,-8.08594 z M 377.67773,47.277344 c 3.20796,0.05682 7.26923,1.70403 22.13868,8.240234 18.79132,8.260152 19.94165,8.923557 21.11132,12.158203 0.96578,2.670847 0.97174,3.739831 0.0312,4.873047 -1.87452,2.258653 0.0771,3.138543 -26.42773,-11.927734 -9.28486,-5.277836 -18.37864,-9.877694 -20.20703,-10.220703 -4.64186,-0.870817 -4.14201,-2.154209 1.14648,-2.947266 0.77182,-0.115742 1.46674,-0.188893 2.20703,-0.175781 z M 421.28516,65.1875 c 0.1592,0.0065 0.40281,0.119766 0.73046,0.322266 1.60942,0.994674 3.6992,6.750338 4.38868,12.08789 0.72371,5.602542 -1.29539,14.440818 -4.18164,18.306641 -2.48636,3.330215 -3.52945,3.519986 -5.76758,1.046875 -1.23589,-1.365637 -2.71418,-1.942949 -4.23438,-1.652344 -1.85133,0.353903 -2.194,0.110041 -1.65039,-1.175781 2.93482,-6.941777 4.33296,-11.294813 4.94922,-15.404297 0.58439,-3.897019 1.03369,-4.678066 2.43164,-4.234375 0.9987,0.316976 2.47496,-0.298789 3.53906,-1.474609 1.52349,-1.683434 1.63445,-2.43937 0.66797,-4.560547 -1.0677,-2.343349 -1.35064,-3.281181 -0.87304,-3.261719 z M 117.85547,79.029297 c -0.51398,0.0569 -0.85577,0.478608 -0.61328,1.220703 0.22464,0.6875 1.94834,1.758683 3.83203,2.380859 3.81331,1.259525 4.16531,2.688869 0.78906,3.210938 -1.21895,0.188486 -3.30993,1.05981 -4.64648,1.935547 -2.23677,1.465592 -2.5051,1.459139 -3.37305,-0.0918 -2.44471,-4.36846 -11.34593,-6.297126 -21.21875,-4.5957 -8.989702,1.549234 -12.087804,3.088233 -13.324219,6.613281 C 78.23415,92.744116 69.117487,127.92969 68.341797,132 c -0.651362,3.41792 1.81112,10.5 3.650391,10.5 1.005354,0 1.700423,-1.51454 2.15625,-4.70117 0.728406,-5.0922 14.212743,-40.503262 16.201171,-42.544924 1.142638,-1.173228 5.557695,-0.346045 17.912111,3.359375 2.35921,0.70759 3.98613,4.077079 8.99219,18.613279 l 4.22656,12.27344 0.32422,24.75 c 0.27,20.69823 0.55637,24.75 1.75781,24.75 1.20736,0 1.43748,-3.68569 1.4375,-23.0957 0,-20.19456 0.21982,-23.46982 1.75,-26.07422 1.67664,-2.85372 1.67302,-3.03457 -0.0957,-4.33399 -1.77607,-1.30481 -4.61505,-10.22951 -6.1211,-19.24609 -0.67786,-4.05827 -0.59617,-4.25 1.79688,-4.25 3.8607,0 5.61356,-0.99085 7.20703,-4.072266 2.19099,-4.236913 1.84106,-7.634293 -0.97656,-9.480468 -1.42783,-0.935546 -2.21146,-2.193988 -1.88867,-3.035157 C 127.45323,83.375915 125.17376,81 122.4375,81 c -1.27519,0 -2.59758,-0.45 -2.9375,-1 -0.4448,-0.719698 -1.13056,-1.027604 -1.64453,-0.970703 z m -17.953126,4.34375 c 6.349616,0.01888 11.375556,1.875917 13.572266,5.228515 C 114.95289,90.857702 114.92788,91 113.04688,91 c -2.2393,0 -5.57284,4.339281 -4.57422,5.955078 0.3549,0.574187 0.50589,1.004931 0.33593,0.957031 -0.16996,-0.0479 -4.08855,-1.156532 -8.70898,-2.464843 C 95.479191,94.138955 91.316687,93.305079 90.849609,93.59375 90.38253,93.88242 90,93.26206 90,92.214844 c 0,-1.047217 -0.918725,-2.736293 -2.041016,-3.751953 -1.950347,-1.765039 -2.169631,-1.769333 -4.986328,-0.105469 -2.349586,1.387937 -2.83462,1.445327 -2.388672,0.283203 0.720986,-1.878859 4.289445,-3.201042 12.583985,-4.662109 2.355097,-0.414846 4.617835,-0.611764 6.734375,-0.605469 z m -14.144532,5.023437 c 1.580527,0.03677 2.733111,1.247441 3.066407,3.492188 0.178394,1.201477 -3.146833,11.017878 -7.390625,21.814448 -4.243792,10.79658 -7.936447,21.57962 -8.205078,23.9629 C 72.959886,140.0493 72.365475,142 71.908203,142 c -1.20518,0 -3.166781,-7.97113 -2.564453,-10.41992 0.281459,-1.14428 2.756092,-10.60795 5.5,-21.03125 4.352922,-16.535469 5.333592,-19.202376 7.691406,-20.919924 1.172042,-0.853773 2.274341,-1.254481 3.222656,-1.232422 z M 113.08594,92 c 2.58237,0 4.37556,4.224157 6.91406,16.29297 2.7572,13.10852 3.86204,16.53036 5.66797,17.54101 0.87446,0.48937 1.34371,1.51401 1.04101,2.27735 -0.38084,0.96044 -0.57626,1.00369 -0.63086,0.13867 -0.0434,-0.6875 -1.1677,-1.25 -2.5,-1.25 -2.19268,0 -2.71368,-0.93701 -5.49414,-9.88672 -1.68943,-5.43792 -4.42031,-12.45098 -6.06836,-15.58398 C 108.7567,95.334002 109.1309,92 113.08594,92 Z m 6.90039,0 C 122.20967,92 126,96.496855 126,99.134766 126,100.5818 125.25321,101 122.66797,101 c -2.96555,0 -3.45598,-0.40234 -4.45703,-3.664062 C 116.9316,93.167452 117.31955,92 119.98633,92 Z m 225.14258,2.316406 c 2.90556,-0.129019 6.24301,2.187329 7.07031,5.183594 2.01225,7.28792 -3.69064,25.03548 -8.79102,27.35938 -1.37661,0.62723 -3.22501,1.14062 -4.10937,1.14062 -1.46004,0 -1.45595,-0.16752 0.0469,-1.82812 C 340.25595,125.16607 341,123.69134 341,122.89453 341,120.1544 337.94453,117 335.28906,117 c -2.53494,0 -2.55491,-0.0488 -0.78906,-2 0.99549,-1.1 1.40204,-2.00095 0.9043,-2.00195 -0.49775,-0.001 1.7957,-1.62137 5.0957,-3.59961 7.626,-4.57153 9.5,-6.25842 9.5,-8.55274 0,-2.128495 -3.40649,-5.877151 -5.25,-5.777341 -0.6875,0.03722 -0.22798,0.559951 1.02148,1.16211 1.24945,0.602158 2.55579,2.224669 2.90235,3.605469 0.83197,3.314832 -0.47998,4.295802 -22.40821,16.771482 -9.77128,5.55919 -19.43538,10.41483 -21.47656,10.78906 l -3.71094,0.67969 1.0586,-3.03906 C 302.80651,123.11575 303.88151,122 305.0625,122 c 1.02706,0 3.34571,-1.28278 5.15234,-2.84961 6.19853,-5.37577 31.654,-23.974629 33.70313,-24.624999 0.38888,-0.123428 0.79586,-0.190553 1.21094,-0.208985 z m 67.73632,1.748047 c 0.61041,-0.02163 1.25302,0.149026 1.88477,0.546875 2.88049,1.814001 2.52852,3.491502 -2.60156,12.388672 -9.59859,16.64697 -8.87636,14.92886 -6.89844,16.41016 0.9625,0.72084 1.75,1.59735 1.75,1.94922 0,0.35186 -0.3375,0.57263 -0.75,0.49023 -0.4125,-0.0824 -2.03191,-0.3419 -3.59766,-0.57617 -3.34057,-0.4998 -3.43321,0.0303 2.42578,-13.77344 2.33448,-5.5 4.28529,-11.3011 4.33399,-12.89062 0.0819,-2.67412 1.6219,-4.480038 3.45312,-4.544927 z m 3.90039,6.435547 1.29688,2.79297 c 1.15878,2.49478 1.06895,3.02088 -0.84375,4.93359 -1.98601,1.98601 -2.1902,2.01119 -2.82031,0.36914 -0.37359,-0.97355 0.006,-3.19189 0.84375,-4.93164 L 416.76562,102.5 Z m -81.9082,10.94531 c 0.27807,0.0515 -0.15906,0.56006 -1.33398,1.53516 -0.8383,0.69572 -1.52344,1.87366 -1.52344,2.61719 0,1.69236 -3.83423,3.67373 -11.21289,5.79492 -3.1421,0.90328 -6.5171,1.90596 -7.5,2.22851 -0.98289,0.32255 3.3544,-2.38093 9.63867,-6.00781 7.25232,-4.18558 11.31988,-6.28127 11.93164,-6.16797 z m 0.83399,4.75391 c 1.6739,0.0469 3.0391,1.07336 3.7207,3.01953 0.76151,2.17434 0.56619,3.1488 -0.97656,4.85352 -1.61365,1.78307 -2.64938,2.03298 -6.32422,1.52929 -2.41704,-0.33129 -6.17246,-0.12372 -8.34375,0.46094 -2.17129,0.58467 -7.61928,1.66822 -12.10742,2.4082 -4.48814,0.73997 -8.91552,1.64665 -9.83789,2.01563 -1.31709,0.52687 -1.56334,0.23658 -1.14649,-1.35742 0.40329,-1.54221 1.88742,-2.3026 6.17774,-3.16407 9.69091,-1.94587 21.84451,-5.93919 24.54882,-8.0664 1.49884,-1.17899 2.98714,-1.73571 4.28907,-1.69922 z m -136.85938,8.13672 c 0.62988,-0.0481 0.63985,0.0518 -0.082,0.27344 -0.9625,0.29557 -1.75,0.92963 -1.75,1.4082 0,0.47857 -4.6125,3.45079 -10.25,6.60547 -5.6375,3.15468 -11.15,6.76018 -12.25,8.01367 -2.45797,2.80094 -6.56331,3.89958 -8.25391,2.20898 -1.9545,-1.9545 -1.4636,-4.79907 1.00391,-5.82031 1.2375,-0.51217 8.1,-3.47319 15.25,-6.58008 7.15,-3.10688 14.125,-5.81232 15.5,-6.01172 0.34375,-0.0498 0.62207,-0.0816 0.83203,-0.0977 z m 40.51563,1.01562 c 0.26816,0.0577 0.75058,2.28457 1.11328,5.1875 0.38688,3.09646 0.49603,5.83795 0.24218,6.0918 -0.25383,0.25385 -0.77718,-2.07346 -1.16406,-5.16992 -0.38688,-3.09646 -0.49603,-5.83795 -0.24218,-6.0918 0.0159,-0.0159 0.0329,-0.0214 0.0508,-0.0176 z m -67.85938,0.47656 1.33984,3.28711 c 1.19606,2.93117 1.15029,3.42778 -0.43359,4.58594 -5.5001,4.02177 -9.02099,-1.49032 -3.65039,-5.71484 l 2.74414,-2.15821 z M 328.02539,128 c 4.78695,0 6.34465,2.48542 3.40234,5.42773 C 329.14219,135.71327 325,135.49086 325,133.08203 325,129.87829 326.1182,128 328.02539,128 Z m -83.19727,5 c 0.39309,0 1.73435,1.0125 2.98047,2.25 2.40317,2.38655 27.69259,36.03675 29.30274,38.99023 0.6564,1.20403 0.46871,2.66899 -0.60742,4.75 -1.87728,3.63026 -4.84288,3.9252 -7.65235,0.75977 -1.09834,-1.2375 -5.90129,-9.02906 -10.67383,-17.31445 -9.73349,-16.89785 -13.19145,-21.84352 -13.15625,-18.82032 0.0121,1.03667 0.91208,3.84659 2,6.24415 1.08792,2.39757 1.97852,4.93934 1.97852,5.64843 0,0.70909 1.35942,3.87358 3.02148,7.03321 3.21541,6.11259 3.1818,8.94193 -0.12109,9.99023 -3.60419,1.14392 -6.6425,-1.90245 -7.2168,-7.23828 C 243.90198,158.0311 244.01416,133 244.82812,133 Z m -49.47656,2 c 1.19731,0 0.66329,2.71219 -1.50195,7.62305 -2.35387,5.3387 -21.82705,26.96365 -27.35938,30.38281 C 164.71543,174.10275 162.56143,175 161.70312,175 159.57465,175 157,172.2627 157,170 c 0,-2.02378 2.50562,-5 4.20898,-5 1.21362,0 12.20956,-9.61136 24.88282,-21.75 4.73734,-4.5375 8.90342,-8.25 9.25976,-8.25 z m -32.03125,6.0293 c 0.42899,-0.005 0.67969,0.42195 0.67969,1.3164 0,2.31312 3.66461,4.89602 5.92773,4.17774 3.07056,-0.97456 2.63585,1.43286 -1.28906,7.13867 -1.84837,2.68706 -3.6806,5.89491 -4.07226,7.12891 -0.39165,1.234 -2.211,2.86931 -4.04297,3.63476 -3.55293,1.48451 -5.05734,4.3167 -4.02344,7.57422 0.80997,2.55196 -0.11208,2.59406 -1.46484,0.0664 -2.45781,-4.59247 0.33943,-20.08394 4.98437,-27.59961 1.37419,-2.22349 2.5858,-3.42896 3.30078,-3.4375 z m 83.26953,4.32226 c 0.54788,-0.0326 3.63755,4.73157 8.22657,12.89844 3.32227,5.9125 5.91802,10.75 5.76757,10.75 -0.15044,0 -1.08849,-0.9 -2.08398,-2 -0.99549,-1.1 -2.40327,-2 -3.12891,-2 -1.48773,0 -3.65663,-3.78618 -5.15625,-9 -0.55368,-1.925 -1.7691,-5.3 -2.69922,-7.5 -0.8996,-2.12785 -1.17481,-3.13364 -0.92578,-3.14844 z M 239,158 c 1.66667,0 2,0.66667 2,4 0,4.5705 -0.0952,4.65864 -2.3457,2.17188 C 236.28977,161.55909 236.4894,158 239,158 Z m 6.51172,1.8457 c -0.164,-0.0943 -0.2793,0.71055 -0.2793,2.1543 0,1.925 0.2055,2.7125 0.45703,1.75 0.25152,-0.9625 0.25152,-2.5375 0,-3.5 -0.0629,-0.24062 -0.12307,-0.37285 -0.17773,-0.4043 z M 300,231 l 34.10938,0 34.10742,0 -0.69336,2.75 C 366.84915,236.4274 359,275.04039 359,275.67969 359,275.85606 345.725,276 329.5,276 l -29.5,0 0,-22.5 0,-22.5 z"
       id="path2989"
       inkscape:connector-curvature="0" />
    <path
       inkscape:connector-curvature="0"
       id="path3357"
       d="m 433.99786,40.087868 c -2.28749,0 -1.08415,2.059641 6.48334,11.095558 4.21115,5.02831 8.9808,11.141832 10.59886,13.58523 4.9398,7.459538 8.79643,12.038704 10.8688,12.906513 3.75097,1.570717 5.92339,0.668971 5.92339,-2.458823 0,-2.350006 -2.45268,-5.451074 -13.32763,-16.846182 C 441.44573,44.644731 436.32316,40.087868 433.99786,40.087868 Z m 47.6185,57.557146 c -2.12527,0.11474 -3.61174,2.911516 -2.40329,6.089976 0.57138,1.50292 0.56389,5.52484 -0.0201,10.60349 -1.46684,12.75733 -1.37085,13.61299 1.51324,13.61299 1.35745,0 2.46808,0.44426 2.46808,0.98724 0,0.54297 0.22213,0.98723 0.49362,0.98723 0.27149,0 0.49361,-0.66638 0.49361,-1.48085 0,-0.81447 -0.64135,-1.48085 -1.42378,-1.48085 -2.38027,0 -2.41814,-1.12234 -0.39026,-11.35933 3.08623,-15.57979 3.1044,-15.789605 1.53021,-17.096068 -0.77467,-0.642917 -1.55296,-0.902077 -2.26138,-0.863828 z m 5.93573,2.761156 c -1.33284,-0.0868 -1.41606,0.51944 -1.41606,2.69175 0,1.84997 0.67493,3.42832 1.72766,4.04148 2.96638,1.72777 7.15743,1.30712 7.15743,-0.71883 0,-2.82681 -2.1983,-5.0457 -5.67658,-5.72902 -0.76524,-0.15034 -1.34817,-0.25645 -1.79245,-0.28538 z"
       style="fill:#fefefe" />
    <path
       sodipodi:nodetypes="csscssssscc"
       style="fill:#0000fe"
       d="m 474.92977,100.06163 c -1.3317,-1.764672 -3.14669,-4.965521 -4.03335,-7.112994 -0.88666,-2.147466 -3.35194,-6.208889 -5.4784,-9.025382 l -3.86632,-5.120888 3.15236,0.140297 c 2.34027,0.104157 3.39049,-0.397317 4.07675,-1.946639 0.86718,-1.95779 1.17313,-1.78369 4.94387,2.813429 8.09631,9.870672 14.70642,21.490687 10.00597,17.589662 -2.48234,-2.060155 -7.61735,2.245004 -5.93144,4.972875 1.39049,2.24985 -0.69574,0.57011 -2.86943,-2.31036 z"
       id="path3359"
       inkscape:connector-curvature="0" />
    <path
       sodipodi:nodetypes="cssssscccsscccccccssscsssssssssssssssccssssssscsscsscccscccsssssssssccsscsc"
       inkscape:connector-curvature="0"
       id="path3363"
       d="m 433.81739,39.46622 c -1.17888,-0.03112 -1.97909,0.488308 -1.97909,1.567234 0,0.554255 3.44454,5.12167 7.65567,10.149972 4.21115,5.02831 8.98692,11.133358 10.61274,13.566726 1.62584,2.433359 6.24684,8.652918 10.26875,13.821241 4.02191,5.168315 8.34192,11.715058 9.59928,14.547781 1.25734,2.832723 3.83902,6.86783 5.73674,8.968386 l 3.45069,3.81934 -1.02889,9.21056 c -0.72359,6.48172 -0.71515,11.01509 0.0309,15.29901 0.68791,3.95025 1.06128,30.58264 1.06128,75.85332 l 0,69.76642 -21.23474,0.0926 0.0571,0.35325 c 17.37499,0.0211 40.08113,-0.18987 50.09186,-0.1953 l -25.95251,-0.25048 0,-22.21271 0,-22.21271 13.82124,0 c 8.55601,0 13.82124,-0.37609 13.82124,-0.98723 0,-0.61115 -5.26523,-0.98723 -13.82124,-0.98723 l -13.82124,0 0.006,-47.63392 c 0.006,-40.82961 0.22152,-48.04785 1.51633,-50.53084 1.70639,-3.27227 1.27609,-5.49455 -1.06436,-5.49455 -1.02517,0 -1.41312,-0.60553 -1.10601,-1.72766 0.26005,-0.95021 0.99192,-4.83743 1.62585,-8.63828 1.65302,-9.91107 1.57982,-9.77343 4.16951,-7.95955 3.01021,2.10845 8.95305,1.98558 10.95519,-0.22675 1.87139,-2.06787 2.09476,-14.436241 0.28691,-15.886721 -0.59862,-0.480276 -2.53132,-1.182182 -4.296,-1.559518 -4.23247,-0.904999 -4.29457,1.107516 -0.0678,2.202767 4.64133,1.202685 4.73263,3.12796 0.12032,2.535945 -2.41911,-0.310496 -4.43996,0.0308 -5.68121,0.95947 -1.80469,1.350249 -2.18047,1.046166 -5.92339,-4.794241 -2.19805,-3.429816 -6.65852,-9.48705 -9.91088,-13.460286 -7.29424,-8.910997 -30.43734,-33.036653 -34.75055,-36.225229 -1.5135,-1.118873 -3.07085,-1.699626 -4.24972,-1.730743 z m 0.18047,0.621648 c 2.3253,0 7.44787,4.556863 20.54676,18.282296 10.87495,11.395108 13.32763,14.496176 13.32763,16.846182 0,2.154242 -0.49756,2.930293 -1.97446,3.08201 -4.32958,0.444776 -7.44922,-2.402605 -14.81773,-13.5297 -1.61806,-2.443398 -6.38771,-8.55692 -10.59886,-13.58523 -7.56749,-9.035917 -8.77083,-11.095558 -6.48334,-11.095558 z m 35.7347,35.725445 c 0.63276,-0.0229 1.63541,1.123541 3.99212,3.99674 8.09631,9.870672 14.70697,21.490717 10.00651,17.589694 -2.48233,-2.060155 -7.61855,2.243764 -5.93264,4.971633 0.30523,0.49398 0.32988,0.89931 0.054,0.89931 -0.99666,0 -5.37918,-6.505244 -6.95536,-10.322742 -0.88665,-2.147465 -3.35267,-6.208959 -5.47913,-9.025452 l -3.86563,-5.119727 3.15143,0.140376 c 2.34028,0.104157 3.3907,-0.39738 4.07696,-1.946702 0.32519,-0.734169 0.5721,-1.169372 0.95175,-1.18313 z m 11.8838,21.831701 c 0.70842,-0.03822 1.48671,0.220911 2.26138,0.863828 1.57419,1.306463 1.55602,1.516278 -1.53021,17.096068 -2.02785,10.23699 -1.98848,11.35933 0.3918,11.35933 0.78243,0 1.42224,0.66638 1.42224,1.48085 0,0.81447 -0.22213,1.48085 -0.49362,1.48085 -0.27148,0 -0.49361,-0.44426 -0.49361,-0.98723 0,-0.54298 -1.11064,-0.98724 -2.46808,-0.98724 -2.88409,0 -2.98005,-0.85566 -1.51324,-13.61299 0.58395,-5.07864 0.59145,-9.10057 0.0201,-10.60349 -1.20845,-3.17846 0.27802,-5.975236 2.40328,-6.089976 z m 5.93573,2.761156 c 0.44428,0.0289 1.02721,0.13504 1.79245,0.28538 3.47828,0.68332 5.67658,2.90221 5.67658,5.72902 0,1.29725 -0.74272,1.77722 -2.71489,1.75542 -4.19734,-0.0464 -6.1702,-1.66971 -6.1702,-5.07807 0,-2.17232 0.0832,-2.77855 1.41606,-2.69175 z"
       style="fill:#000000" />
  </g>
</svg>
