<?xml version="1.0" encoding="UTF-8" standalone="no"?>
<!-- Created with Inkscape (http://www.inkscape.org/) -->

<svg
   xmlns:dc="http://purl.org/dc/elements/1.1/"
   xmlns:cc="http://creativecommons.org/ns#"
   xmlns:rdf="http://www.w3.org/1999/02/22-rdf-syntax-ns#"
   xmlns:svg="http://www.w3.org/2000/svg"
   xmlns="http://www.w3.org/2000/svg"
   version="1.1"
   width="736"
   height="268"
   id="svg2">
  <metadata
     id="metadata8">
    <rdf:RDF>
      <cc:Work
         rdf:about="">
        <dc:format>image/svg+xml</dc:format>
        <dc:type
           rdf:resource="http://purl.org/dc/dcmitype/StillImage" />
        <dc:title></dc:title>
      </cc:Work>
    </rdf:RDF>
  </metadata>
  <defs
     id="defs6" />
  <g
     id="g2987">
    <path
       d="m 725.87244,186.3182 c -0.75484,-0.92499 -7.29313,-5.57478 -14.52952,-10.33288 l -13.15708,-8.65108 1.94832,-3.07714 1.94831,-3.07715 11.20876,7.97612 c 10.715,7.62475 13.23195,10.38174 15.14915,16.59393 0.81714,2.64771 -0.61274,2.9641 -2.56794,0.5682 z M 569.66667,171.33333 c -1.6008,-1.60079 -0.06,-5.56589 9.94517,-25.59242 5.83651,-11.6825 10.79401,-21.43591 11.01666,-21.67424 1.0281,-1.10049 2.57348,2.09748 2.71491,5.61816 l 0.15659,3.89799 3.90241,-1.339 c 2.14633,-0.73645 4.27981,-0.9616 4.74107,-0.50034 0.83857,0.83857 -23.92569,37.86704 -26.35659,39.40939 -1.56172,0.99087 -5.20246,1.09823 -6.12022,0.18046 z M 586.51196,147.5 c 3.72938,-7.15 6.32531,-12.55 5.76873,-12 -0.55658,0.55 -4.06327,6.85 -7.79265,14 -3.72938,7.15 -6.32531,12.55 -5.76873,12 0.55658,-0.55 4.06327,-6.85 7.79265,-14 z m 103.36153,14.49234 c -6.19944,-4.30409 -7.67196,-6.62244 -5.55251,-8.74189 2.07057,-2.07057 7.58053,-0.67307 12.40803,3.14707 l 4.10014,3.24455 -2.01278,3.17897 c -1.10702,1.74843 -2.30608,3.15616 -2.66457,3.12829 -0.35849,-0.0279 -3.18373,-1.80851 -6.27831,-3.95699 z m -502.18436,-13.4207 c -6.10799,-1.6421 -6.8978,-2.48419 -6.50735,-6.93812 l 0.31822,-3.63004 4.49969,2.98762 c 2.47483,1.64319 6.63733,3.7563 9.25,4.6958 5.0015,1.79852 5.77671,2.70525 3.16852,3.70611 -2.28377,0.87637 -5.26227,0.64835 -10.72908,-0.82137 z m -24.10905,-12.04078 c -7.6551,-4.65803 -14.24524,-8.82053 -14.64474,-9.25 -1.19288,-1.28234 0.85848,-5.26904 3.14674,-6.11552 1.68985,-0.62512 4.58319,0.82434 14.02353,7.02526 L 178,136.00348 l 0,4.49826 c 0,2.47404 -0.11285,4.49826 -0.25077,4.49826 -0.13793,0 -6.51405,-3.81111 -14.16915,-8.46914 z M 236.75,141.9199 c -1.54369,-0.89911 -1.73955,-2.69339 -1.66136,-15.21959 l 0.0886,-14.20031 2.22821,10.26685 c 1.22551,5.64677 2.76063,10.79927 3.41136,11.45 1.53277,1.53277 1.52274,6.04356 -0.0168,7.58315 -1.4329,1.4329 -1.77816,1.44312 -4.05,0.1199 z m -10.5,-1.14039 c -1.68083,-0.81064 -2.25,-1.94712 -2.25,-4.49269 0,-3.32612 0.0896,-3.40013 3.75,-3.09719 3.64003,0.30127 3.75902,0.435 4.0575,4.56037 0.33512,4.63177 -0.87146,5.2895 -5.5575,3.02951 z m 437.85974,-2.31809 c -2.47307,-4.19154 -6.77971,-9.70074 -12.85974,-16.45061 -2.6763,-2.97114 -4.25,-5.67095 -4.25,-7.29119 0,-1.60956 -0.65526,-2.74421 -1.75,-3.03029 -1.3046,-0.34093 -1.36107,-0.48685 -0.2219,-0.57333 0.84046,-0.0638 3.99046,2.86025 7,6.49789 9.91972,11.98997 12.12845,14.31975 15.62379,16.47998 2.73988,1.69335 3.39519,2.68498 3.15337,4.77184 -0.49185,4.2445 -4.08052,4.02781 -6.69552,-0.40429 z M 310.96799,137.4158 c -1.4833,-3.90136 -1.17679,-5.89846 1.31852,-8.59094 2.50036,-2.69793 4.20494,-2.64361 5.71726,0.18219 0.72541,1.35544 0.41993,2.88362 -1.17295,5.86783 -2.70488,5.0675 -4.59138,5.88509 -5.86283,2.54092 z m 345.70065,-2.22945 c -1.25536,-1.38716 -1.36556,-2.08943 -0.46864,-2.98635 0.89692,-0.89692 1.59919,-0.78672 2.98635,0.46864 0.99751,0.90273 1.81365,2.24659 1.81365,2.98635 0,1.92112 -2.40406,1.661 -4.33136,-0.46864 z m -403.21862,-6.26722 c -0.36741,-0.59449 -1.24014,-3.40699 -1.9394,-6.25 C 250.08257,116.863 236.79202,81.515294 233.88426,75.789838 232.84792,73.749249 232,71.836749 232,71.539838 c 0,-1.5467 2.96621,-0.113319 6.64865,3.212867 3.64667,3.293882 5.24988,6.411868 13.25,25.769035 C 256.90439,112.63369 261,123.03048 261,123.62571 261,125.02304 256.39864,130 255.10677,130 c -0.54381,0 -1.28934,-0.48639 -1.65675,-1.08087 z m 62.33212,-3.02117 c -0.91642,-0.51286 -6.7548,-2.05675 -12.97418,-3.43088 -12.91907,-2.85439 -16.5224,-4.15264 -15.19895,-5.47609 0.55102,-0.55102 5.78345,-0.13174 13.19153,1.05704 6.75305,1.08366 13.39138,1.69092 14.75185,1.34946 2.87658,-0.72197 5.44761,1.01943 5.44761,3.68977 0,2.40592 -3.02727,4.03661 -5.21786,2.8107 z m 142.88453,-2.56463 c -1.60479,-1.60478 -0.50896,-6.10843 2.08333,-8.56209 1.5125,-1.43162 11.01983,-6.69833 21.12741,-11.7038 14.26474,-7.064183 18.68211,-8.847969 19.73899,-7.97084 0.74887,0.621508 1.135,1.496627 0.85807,1.94471 -0.27693,0.448084 0.34368,1.083584 1.37913,1.412223 2.90511,0.922048 5.68762,4.405247 4.48208,5.610787 -1.71179,1.71179 -41.58953,16.89683 -42.65074,16.24097 -0.54667,-0.33787 -0.68682,-0.11736 -0.31144,0.49003 1.18226,1.91294 -4.99449,4.25036 -6.70683,2.53801 z m 42.0257,-24.974297 c -0.46434,-0.464338 -34.85963,14.408227 -36.03143,15.580027 -0.50523,0.50523 7.47325,-2.71551 17.72994,-7.15719 10.2567,-4.44168 18.49237,-8.231956 18.30149,-8.422837 z m 14.32519,23.672987 c -1.24557,-0.78759 -1.05778,-1.38431 1.17533,-3.73469 3.09572,-3.25828 9.87469,-17.64926 10.03225,-21.29733 0.0594,-1.375 -0.2019,-3.187912 -0.58065,-4.028694 -1.08794,-2.415159 1.61361,-5.341551 4.17938,-4.527207 4.17396,1.324762 3.73417,4.765409 -2.18167,17.068131 -5.49243,11.42222 -9.1324,17.50228 -10.46029,17.47246 -0.37505,-0.008 -1.34901,-0.43713 -2.16435,-0.95267 z M 402.90164,119.24131 C 401.61906,115.86785 402.61079,110 404.46353,110 c 0.75509,0 2.05019,-0.2599 2.87799,-0.57756 0.90089,-0.3457 1.93424,0.22431 2.5741,1.4199 0.83661,1.56322 0.60078,2.87466 -1.0848,6.03254 -2.75031,5.1526 -4.59062,5.8871 -5.92918,2.36643 z M 282,116.94098 c 0,-0.58246 0.45,-0.7809 1,-0.44098 0.55,0.33992 1,0.81648 1,1.05902 0,0.24254 -0.45,0.44098 -1,0.44098 -0.55,0 -1,-0.47656 -1,-1.05902 z M 377.5,113 c -1.08343,-1.75302 0.63684,-3.18247 3.08921,-2.56696 4.0248,1.01016 19.48532,-3.38389 23.19559,-6.59243 4.65903,-4.029019 9.2152,-3.38609 9.2152,1.30037 0,2.09127 -1.14971,2.89705 -4.79115,3.3579 -1.50425,0.19037 -7.31066,1.506 -12.90314,2.92363 C 384.6154,114.13236 378.53288,114.67124 377.5,113 z M 98,112 c 0,-0.55 -1.125,-1 -2.5,-1 -2.92139,0 -3.017617,-0.86619 -1.531808,-13.788522 0.591495,-5.144331 0.599258,-9.218971 0.02046,-10.741316 -1.632105,-4.29276 1.586055,-7.897936 4.724802,-5.293007 1.594556,1.323359 1.575576,1.535266 -1.550564,17.316567 C 95.108808,108.86311 95.147947,110 97.559017,110 98.351558,110 99,110.675 99,111.5 c 0,0.825 -0.225,1.5 -0.5,1.5 -0.275,0 -0.5,-0.45 -0.5,-1 z m 72.7173,-1.58235 c -2.63049,-1.36907 -8.66867,-4.05583 -13.41819,-5.97057 -10.11557,-4.07805 -11.49779,-5.056987 -11.09737,-7.859575 0.50986,-3.568528 4.22973,-3.083412 9.73698,1.269822 6.83804,5.405163 15.62296,10.323963 21.06128,11.792513 2.51136,0.67816 3.50568,1.245 2.25,1.28267 C 178.0125,110.96963 177,111.45 177,112 c 0,1.43984 -0.92231,1.20755 -6.2827,-1.58235 z m 59.30482,-2.83865 c -1.15158,-4.11302 -0.85625,-6.58147 0.7869,-6.57721 0.38004,9.9e-4 0.74946,2.47599 0.82094,5.5 0.0715,3.02402 0.0175,5.49821 -0.12004,5.49821 -0.1375,0 -0.80701,-1.98945 -1.4878,-4.421 z m 385.98285,-2.17401 c -0.005,-2.25526 3.46789,-6.066945 4.30057,-4.71964 0.27725,0.4486 -0.57584,2.16542 -1.89576,3.81514 -2.14983,2.68702 -2.40036,2.78125 -2.40481,0.9045 z m -16.08213,-2.99796 c -0.98838,-1.19092 -2.33591,-1.42221 -5.5115,-0.946 -2.99356,0.44891 -6.03199,0.0189 -10.55731,-1.494165 -7.33393,-2.452112 -8.7486,-3.472293 -7.10045,-5.120449 0.87145,-0.871446 2.32667,-0.690824 5.95,0.738511 3.2164,1.268807 7.43175,1.912615 12.79642,1.954388 4.4,0.03426 8.7875,0.425076 9.75,0.868478 1.42088,0.654564 1.75,0.324734 1.75,-1.753751 C 607,93.916776 608.90177,89 609.96052,89 611.2113,89 613,91.426889 613,93.123942 c 0,0.948167 -1.35741,2.770667 -3.01646,4.05 -1.65905,1.279332 -4.30706,3.334808 -5.88446,4.567738 -2.58203,2.01815 -2.99845,2.08449 -4.17624,0.66535 z M 311.8783,98.34582 c -0.89194,-0.243679 -3.11785,-2.333676 -4.94646,-4.644437 C 294.69617,78.239526 285.16356,67.61707 280.2237,63.939752 c -3.14803,-2.343456 -5.9112,-4.413587 -6.14037,-4.600291 -0.22916,-0.186704 -0.15977,-0.596354 0.15421,-0.910335 0.31398,-0.31398 3.65148,0.349452 7.41667,1.474294 6.60357,1.972803 7.32007,2.520838 20.24996,15.488765 9.7597,9.788417 13.50266,14.21362 13.76642,16.275707 0.19924,1.557659 0.46736,3.714866 0.59583,4.793793 0.23792,1.99816 -1.39866,2.700863 -4.38812,1.884135 z m 308.92657,0.12572 c -0.31357,-0.31357 -0.15597,-2.41338 0.35021,-4.666243 0.79241,-3.526765 0.63215,-4.402881 -1.15301,-6.303098 -1.14035,-1.21384 -3.85732,-2.741469 -6.03771,-3.394732 -4.25796,-1.275714 -5.22734,-3.571839 -1.94745,-4.612834 1.40978,-0.447447 3.47705,0.431695 6.86754,2.920549 7.11773,5.224892 7.24086,5.458584 5.83366,11.071856 -1.13431,4.524697 -2.55871,6.33903 -3.91324,4.984502 z m -473.1382,-6.138207 c -1.74029,-1.740285 -0.52818,-5.353588 2.28367,-6.807653 C 153.96239,83.45097 154,83.472957 154,87.893011 c 0,2.627427 -0.51423,4.090338 -1.58179,4.5 -2.06815,0.793623 -3.92152,0.770345 -4.75154,-0.05968 z M 534,91.90121 C 534,90.653289 539.7725,85 541.04674,85 c 1.92224,0 1.66612,1.792863 -0.68536,4.797493 C 537.95286,92.875011 534,94.182228 534,91.90121 z M 101.60699,88.418213 C 100.38212,85.22625 100.95448,83 103,83 c 2.34876,0 6,3.346967 6,5.5 0,2.124527 -6.57428,2.051797 -7.39301,-0.08179 z M 381,81.156675 C 377.975,78.038899 370.775,71.764833 365,67.214306 348.73697,54.399526 347.4518,53.27415 348.1958,52.499513 c 1.5715,-1.636202 10.43395,2.892308 25.91358,13.241248 12.86784,8.602826 16.44665,11.473943 16.65131,13.358612 0.81361,7.492317 0.83642,7.394308 -1.76069,7.563306 -1.83928,0.119685 -3.95357,-1.335477 -8,-5.506004 z m 144.29783,4.048557 c -0.93622,-0.595098 -0.93622,-1.285857 0,-3.122489 1.44865,-2.841877 2.63901,-3.129975 4.00233,-0.968666 2.01248,3.190448 -0.83699,6.103161 -4.00233,4.091155 z m 4.91082,-6.453828 c -0.82245,-0.990991 -0.26593,-1.858692 2.33529,-3.641078 1.87828,-1.28702 4.09929,-2.077475 4.93556,-1.756566 2.03943,0.782603 1.92468,2.279057 -0.2295,2.992821 -0.9625,0.318915 -2.69761,1.283199 -3.85579,2.142854 -1.71457,1.272624 -2.3064,1.321294 -3.18556,0.261969 z M 76.5,60.073413 C 74.400824,59.194384 70.495004,54.556014 65.491302,47 63.852322,44.525 59.021287,38.332723 54.755669,33.239384 47.090307,24.086599 45.871038,22 48.18812,22 50.543484,22 55.731692,26.616802 69,40.519753 c 11.015598,11.54249 13.5,14.682588 13.5,17.062986 0,3.168252 -2.200508,4.08171 -6,2.490674 z"
       id="path2997"
       style="fill:#fefefe" />
    <path
       d="M 0,134 0,0 l 368,0 368,0 0,134 0,134 -368,0 -368,0 0,-134 z m 686.75,118.25032 -40.75,-0.27275 0,-67.19174 0,-67.19173 3.99851,3.90444 c 2.66169,2.59908 3.66468,4.23827 3,4.90295 -1.72174,1.72174 -1.10595,4.01248 2.13586,7.94535 2.54649,3.08934 3.59301,3.68741 5.57979,3.18877 2.12836,-0.53419 2.35981,-0.34402 1.78511,1.4667 -0.48747,1.53588 0.0806,2.72183 2.1702,4.5306 4.4677,3.86727 21.35346,16.78668 26.58053,20.33694 2.6125,1.77443 4.75,3.57961 4.75,4.01152 0,1.22945 -6.52156,7.4254 -9.9127,9.41776 -2.57295,1.51167 -2.96726,1.55162 -2.46778,0.25 1.04446,-2.72182 -1.12308,-1.65954 -2.96045,1.45087 -0.97468,1.65 -2.1967,3 -2.71561,3 -0.5189,0 -0.94346,0.49223 -0.94346,1.09384 0,0.74265 1.68557,0.86688 5.25,0.38693 6.12279,-0.82443 6.40574,-0.98572 4.90393,-2.79529 -0.89455,-1.07787 -0.19312,-2.03644 3.35437,-4.58405 2.46699,-1.77166 4.95267,-4.09425 5.52375,-5.16131 0.57107,-1.06707 1.53012,-1.94012 2.13121,-1.94012 1.48164,0 23.64805,14.56087 27.09333,17.79732 4.209,3.95386 5.46792,1.7576 2.69171,-4.69587 -1.98228,-4.60792 -3.39596,-5.97452 -13.67124,-13.21595 -8.47588,-5.97331 -11.32353,-8.50744 -10.93497,-9.73104 0.28896,-0.90996 1.17916,-3.45446 1.97823,-5.65446 2.16675,-5.9655 2.97771,-10.5 1.87785,-10.5 -0.52841,0 -1.4786,2.1375 -2.11155,4.75 -1.59744,6.59351 -3.14748,10.25 -4.3451,10.25 -0.55872,0 -3.91511,-2.475 -7.45866,-5.5 -3.54355,-3.025 -6.88532,-5.5 -7.42616,-5.5 -0.54084,0 -4.52635,-3.375 -8.8567,-7.5 -4.33035,-4.125 -8.2956,-7.5 -8.81168,-7.5 -0.51608,0 -1.18806,-1.2375 -1.49329,-2.75 -0.30523,-1.5125 -0.87904,-3.58809 -1.27513,-4.61243 -0.63016,-1.62968 -0.3553,-1.78229 2.19943,-1.22118 3.00063,0.65905 7.57583,-1.55457 6.15326,-2.97713 -0.39834,-0.39834 -1.44667,-0.12471 -2.32963,0.60808 -1.28117,1.06328 -2.00106,1.08521 -3.56484,0.10862 -1.07771,-0.67304 -2.42561,-0.93563 -2.99533,-0.58352 -0.56972,0.3521 -2.63143,0.71524 -4.58157,0.80696 -3.1587,0.14856 -4.13151,-0.49067 -8.91242,-5.85632 -9.02165,-10.12506 -8.68213,-11.84133 -8.4589,42.76056 l 0.191,46.71636 -9.06045,0 C 628.68682,205 625,205.40691 625,206 c 0,0.59259 3.66667,1 9,1 l 9,0 0,22.5 0,22.5 -39.03847,0 -39.03847,0 0.28847,-70.00029 c 0.28612,-69.42972 0.27217,-70.00029 -1.71153,-70.00049 -1.9757,-2e-4 -1.9963,0.56476 -1.69507,46.50029 L 562.10986,205 l -8.55493,0 C 548.51831,205 545,205.41126 545,206 c 0,0.58824 3.5,1 8.5,1 l 8.5,0 0,22.5 0,22.5 -55.53847,0 -55.53847,0 0.28847,-70.00029 c 0.28612,-69.42972 0.27217,-70.00029 -1.71153,-70.00049 -1.9757,-2e-4 -1.9963,0.56476 -1.69507,46.50029 L 448.10986,205 l -5.05493,0 C 440.27472,205 438,205.45 438,206 c 0,0.55 2.25,1 5,1 l 5,0 0,22.5 0,22.5 -45.03847,0 -45.03847,0 0.28847,-70.00029 c 0.28612,-69.42972 0.27217,-70.00029 -1.71153,-70.00049 -1.9757,-2e-4 -1.9963,0.56476 -1.69507,46.50029 L 355.10986,205 345.05493,205 C 339.01831,205 335,205.39964 335,206 c 0,0.6 4,1 10,1 l 10,0 0,22.5 0,22.5 -34,0 -34,0 0,-66.10841 0,-66.10841 2.25,0.56215 c 1.2375,0.30918 6.75,1.53512 12.25,2.72431 5.5,1.1892 10.3825,2.51501 10.85,2.94627 0.4675,0.43125 -0.14566,1.77975 -1.36257,2.99666 -1.73953,1.73953 -2.09195,2.95589 -1.64839,5.68923 0.3103,1.91216 1.09105,4.11151 1.73501,4.88743 1.50282,1.81078 7.97798,1.82443 10.44293,0.022 2.81425,-2.05783 4.58323,-1.00502 3.42592,2.03894 -1.165,3.06419 -1.16847,3.34982 -0.0407,3.34982 0.4962,0 1.41048,-1.4581 2.03173,-3.24022 0.93025,-2.66854 0.8593,-3.43783 -0.40218,-4.36024 C 325.68927,136.78352 325,135.75768 325,135.11989 c 0,-0.6378 -1.09363,-2.89206 -2.43029,-5.00947 -1.77797,-2.81647 -2.13292,-4.14721 -1.32242,-4.95771 0.69022,-0.69022 1.12323,-5.92296 1.14859,-13.8803 C 322.42919,100.82223 322.10611,97.863643 320.61895,95 319.61925,93.075 311.98352,84.626219 303.65066,76.224931 288.8953,61.348412 288.32341,60.897086 281.7318,58.927164 275.4182,57.040329 273,57.028838 273,58.885674 c 0,0.422201 2.73939,2.752182 6.08753,5.177734 5.34403,3.87147 12.35508,11.620223 27.44173,30.329151 l 3.9453,4.892559 0.0127,9.646152 0.0127,9.64614 -8,-1.24874 c -13.66355,-2.13278 -14.5,-2.35626 -14.5,-3.87398 0,-2.6504 -4.39737,-1.66001 -5.77247,1.3001 -1.07372,2.31133 -1.03467,2.91306 0.25,3.85244 1.32208,0.96673 1.52247,6.72542 1.52247,43.75301 L 284,205 l -14.5,0 c -9,0 -14.5,0.37931 -14.5,1 0,0.62069 5.5,1 14.5,1 l 14.5,0 0,22.5 0,22.5 -24.5,0 -24.5,0 0,-53.56739 c 0,-52.81032 0.0278,-53.55856 1.96674,-52.94317 4.10646,1.30335 12.95456,-1.29106 17.71963,-5.19567 5.17669,-4.2419 8.7716,-11.25355 7.82163,-15.25557 -0.33138,-1.39601 -4.67434,-12.4382 -9.65103,-24.5382 -8.26196,-20.087609 -9.45071,-22.369439 -13.67536,-26.25 -7.28796,-6.694375 -9.68032,-5.46436 -5.71234,2.936957 3.36367,7.121823 16.34962,41.657493 17.12882,45.553483 0.56269,2.81347 0.23612,3.33913 -3.56544,5.73895 -6.86817,4.33568 -6.51228,4.6193 -9.01149,-7.18149 -1.25775,-5.93885 -2.21617,-12.4854 -2.12983,-14.5479 0.0952,-2.27533 -0.30072,-3.75 -1.00693,-3.75 -0.64015,0 -1.74852,-0.7875 -2.46304,-1.75 -1.22196,-1.646061 -1.40143,-1.649203 -3.02162,-0.0529 -1.62954,1.60551 -1.60568,2.09123 0.44205,9 1.38107,4.65958 2.1634,10.02019 2.16138,14.81012 l -0.003,7.5072 -4.51948,-0.35945 c -3.07137,-0.24427 -5.35197,0.18602 -7.11761,1.34291 -2.35311,1.54182 -2.55321,2.16981 -2.12185,6.6591 0.54099,5.63019 2.49947,7.63683 9.20092,9.42714 l 4.05802,1.08412 0.26607,27.16588 0.26607,27.16589 -9.01607,0 C 217.67202,205 214,205.40728 214,206 c 0,0.59259 3.66667,1 9,1 l 9,0 0,22.5 0,22.5 -25.5,0 -25.5,0 0,-52.44897 0,-52.44898 3.33216,1.39227 c 5.56524,2.3253 12.87182,2.87816 15.16784,1.14769 2.42328,-1.82639 1.63501,-2.71406 -4.5,-5.06743 -2.475,-0.94941 -6.68935,-3.12226 -9.36522,-4.82857 l -4.86522,-3.10237 0.36522,-13.45811 0.36522,-13.45811 -4.57065,-1.16358 c -5.22805,-1.33094 -12.03758,-5.05338 -19.81464,-10.831681 -4.4681,-3.319772 -5.10677,-4.157096 -3.75,-4.916387 1.15915,-0.648688 1.63529,-2.3114 1.63529,-5.710475 0,-6.249148 -2.24007,-8.483204 -7.95916,-7.937801 -4.35903,0.4157 -4.99156,-0.953743 -1.22615,-2.654624 1.20192,-0.542921 2.18531,-1.330421 2.18531,-1.75 0,-1.415855 -2.71362,-0.77598 -5.28417,1.246014 -2.16242,1.700962 -2.50812,2.68763 -2.25535,6.437008 0.1642,2.435467 1.29731,6.044175 2.51804,8.01935 1.83182,2.963949 1.99738,3.858865 0.94786,5.123465 -0.83709,1.008628 -1.28868,5.014291 -1.3215,11.721761 -0.0415,8.48819 0.31517,10.95127 2.13634,14.7517 2.75844,5.75633 2.97457,5.93278 19.50878,15.92638 l 13.75,8.31078 0,29.35033 0,29.35034 -11,0 c -6.66667,0 -11,0.39394 -11,1 0,0.60606 4.33333,1 11,1 l 11,0 0,22.5 0,22.5 -40.5,0 -40.5,0 0,-53.5 0,-53.5 3.25,-0.0148 c 5.81295,-0.0264 16.11107,-3.00134 22.45102,-6.48562 3.85447,-2.11831 5.98987,-2.85764 5.64302,-1.95376 -0.30691,0.79979 -0.0985,1.45416 0.4632,1.45416 1.01861,0 7.59812,-9.92797 6.9855,-10.54059 -0.59369,-0.5937 -11.79274,2.85887 -11.79274,3.6356 0,0.42124 1.0125,0.91834 2.25,1.10467 1.97927,0.29802 1.71146,0.68602 -2.22567,3.22455 -5.87495,3.78799 -13.65874,6.4637 -21.05086,7.23633 L 97,143.28491 97,129.86496 c 0,-10.64512 0.328595,-13.88908 1.589191,-15.68883 C 100.38329,111.6147 99.839316,109 97.512333,109 96.429009,109 96.106416,108.32212 96.441584,106.75 96.705413,105.5125 97.4067,101.8 98,98.5 c 1.990126,-11.069304 2.03227,-11.193729 3.12794,-9.235866 1.15686,2.067192 9.74639,2.461538 11.67206,0.535866 1.69521,-1.695208 1.4886,-6.437034 -0.44206,-10.145708 C 111.4548,77.919431 110.3905,75.825 109.99283,75 c -0.39768,-0.825 -1.64309,-1.5 -2.76758,-1.5 -1.1245,0 -2.3852,-0.3375 -2.80156,-0.75 -1.20664,-1.195446 -2.62969,-0.868237 -2.17453,0.5 0.22871,0.6875 1.69159,1.475 3.25084,1.75 1.55925,0.275 3.01032,1.027091 3.22461,1.671314 0.24299,0.730535 -0.34604,0.978939 -1.56527,0.660103 -1.07518,-0.281166 -2.85581,-0.02904 -3.95696,0.560271 -1.77915,0.952174 -2.45468,0.37761 -6.066811,-5.160103 C 94.899965,69.304213 90.471016,63.35 87.29346,59.5 79.923493,50.57038 56.52392,26.240024 52.30958,23.124539 49.243422,20.857857 46,20.772248 46,22.957999 c 0,0.561423 3.490051,5.188046 7.755669,10.281385 4.265618,5.093339 9.103118,11.277299 10.75,13.742133 1.646882,2.464835 6.327545,8.764835 10.401474,14 4.073928,5.235166 8.449189,11.86614 9.722802,14.735498 1.273613,2.869358 3.87984,6.948375 5.791615,9.064482 l 3.475956,3.847467 -1.069404,10.177849 C 92.049658,106.2156 92.063599,110.1955 92.879354,113.43515 93.495709,115.88292 94,123.52512 94,130.41782 L 94,142.95 90.75,142.3461 C 62.576862,137.11114 42.19245,107.77166 44.331243,75.535141 c 0.329699,-4.969328 1.316703,-11.670985 2.193341,-14.892572 1.402864,-5.155432 1.410022,-7.910508 0.01693,-6.517419 -1.318956,1.318956 -3.719764,13.487332 -4.217235,21.37485 -1.002192,15.889963 3.01322,30.85656 11.805327,44.00185 9.379206,14.02308 19.998103,21.15469 37.120391,24.92992 l 2.75,0.60633 0,29.99408 0,29.99408 L 59.800326,204.76313 25.600653,204.5 21.884271,187.12013 c -2.265053,-10.59264 -3.502806,-18.69597 -3.169484,-20.75 C 19.225202,163.22481 19.077459,163 16.5,163 c -3.26935,0 -3.566803,-2.82956 2.996025,28.5 2.534674,12.1 6.182262,29.875 8.105751,39.5 1.923488,9.625 3.726092,18.27426 4.005785,19.22057 0.459959,1.55623 -0.762622,1.75028 -12.799514,2.03163 -7.319426,0.17108 149.141953,0.30201 347.691953,0.29096 198.55,-0.0111 342.6625,-0.14283 320.25,-0.29284 z M 35,251.67933 C 35,251.04003 27.150041,212.4274 26.475754,209.75 L 25.783184,207 59.891592,207 94,207 l 0,22.5 0,22.5 -29.5,0 C 48.275,252 35,251.8557 35,251.67933 z M 229.57311,148.04071 c -1.83086,-0.65655 -1.83619,-0.72578 -0.10687,-1.38938 1.98701,-0.76249 2.94246,-0.30154 2.38793,1.15202 -0.1948,0.51059 -1.22127,0.6174 -2.28106,0.23736 z m -63.22849,-20.66046 c -9.1886,-5.96533 -11.27233,-7.77461 -11.81865,-10.26202 C 153.73798,113.53057 154.85174,105 156.10813,105 c 0.48458,0 5.39217,2.09379 10.90577,4.65287 7.14239,3.31506 10.17589,5.25584 10.55047,6.75 0.28916,1.15342 0.39296,5.72468 0.23068,10.15835 L 177.5,134.62244 166.34462,127.38025 z M 576.7872,171.25 c 1.10482,-0.9625 7.83929,-10.3 14.9655,-20.75 8.8306,-12.94936 13.18952,-20.26281 13.68775,-22.96544 0.79495,-4.31231 3.17744,-9.54372 4.33523,-9.51925 1.3891,0.0294 2.8944,1.51206 5.55017,5.46682 3.04598,4.53584 3.43675,9.01772 1.01916,11.68913 -2.00161,2.21176 -3.49901,2.39363 -2.70664,0.32874 0.46139,-1.20237 -0.35807,-1.5 -4.12987,-1.5 l -4.70548,0 2.84849,3.4278 c 3.09868,3.72888 4.34849,4.35136 4.34849,2.16582 0,-0.87977 0.69786,-1.22389 1.86371,-0.91901 2.6265,0.68685 6.13629,-4.08607 6.13629,-8.34465 0,-3.67656 -1.77903,-7.11341 -6.12357,-11.82996 l -2.76339,-3 4.8993,-6.5 c 3.20298,-4.24946 5.48097,-6.38747 6.57926,-6.17498 1.22278,0.23657 1.50224,-0.13809 1.02692,-1.37675 -0.35916,-0.93597 -0.21883,-2.224946 0.31186,-2.864387 0.53069,-0.639442 1.41401,-3.161487 1.96293,-5.604545 1.15332,-5.133051 0.66111,-5.933886 -7.18874,-11.696205 -4.26467,-3.130551 -5.12534,-3.412448 -7.33911,-2.403788 -3.58867,1.635109 -2.61042,4.28632 2.24911,6.095447 4.95355,1.844126 7.38543,3.751874 7.38543,5.793675 0,1.059624 -0.74675,0.717822 -2.45225,-1.122444 -3.58877,-3.872344 -7.98269,-3.621004 -10.55871,0.603977 -1.08986,1.7875 -1.98325,4.251362 -1.9853,5.475249 -0.003,2.017987 -0.25988,2.126354 -2.75374,1.163476 -1.55604,-0.600788 -5.17315,-0.793859 -8.33117,-0.444694 -4.40045,0.486535 -6.79198,0.153728 -11.30461,-1.573155 -5.26054,-2.013096 -5.8536,-2.060065 -7.33292,-0.580744 -1.26558,1.265574 -1.35539,1.915663 -0.42034,3.042337 1.84151,2.218877 14.11862,5.702591 19.10202,5.420321 5.08957,-0.28828 6.09765,1.27241 4.0363,6.24895 -1.04368,2.51965 -1.56015,2.7815 -4.53427,2.29887 -4.75329,-0.77135 -8.17722,0.33054 -10.08782,3.24648 -2.31635,3.5352 -0.89206,4.30051 2.06513,1.10965 2.31968,-2.50297 7.24809,-3.63299 8.85154,-2.02955 0.34496,0.34496 -0.64792,2.48246 -2.2064,4.75 C 589.12006,124.14965 568,166.59114 568,168.79131 c 0,4.16155 5.17155,5.60858 8.7872,2.45869 z M 418.9339,123.75978 c 0.93025,-2.66854 0.8593,-3.43783 -0.40218,-4.36024 C 417.68927,118.78352 417,117.75768 417,117.11989 c 0,-0.6378 -1.117,-2.92908 -2.48222,-5.09173 -1.44828,-2.29422 -2.07309,-4.18496 -1.5,-4.53915 1.63222,-1.00877 1.10694,-6.32421 -1.04106,-10.534642 -1.29064,-2.529872 -4.50281,-5.769414 -8.87087,-8.946472 -3.76617,-2.739284 -8.06719,-6.57949 -9.5578,-8.53379 -3.27813,-4.297843 -34.04605,-25.083718 -40.26773,-27.203659 -3.41911,-1.165008 -4.70736,-1.2402 -5.60938,-0.327408 -1.37934,1.395803 0.82175,3.482657 16.40854,15.556961 11.95824,9.263456 20.53518,17.507645 27.70212,26.627408 2.79131,3.551868 6.24266,7.082802 7.66967,7.846512 1.42701,0.76371 2.44115,1.84881 2.25365,2.41132 -0.49614,1.48843 -17.74508,5.6833 -20.79558,5.0574 -3.35967,-0.68934 -5.77141,1.81371 -3.90934,4.05736 1.68455,2.02976 6.97929,1.8643 16,-0.5 4.125,-1.08115 7.725,-1.97344 8,-1.98286 0.275,-0.009 0.5,1.9387 0.5,4.32917 0,2.39046 0.6176,5.09046 1.37244,6 1.69162,2.03827 8.00447,2.1954 10.64454,0.26493 2.81425,-2.05783 4.58323,-1.00502 3.42592,2.03894 -1.165,3.06419 -1.16847,3.34982 -0.0407,3.34982 0.4962,0 1.41048,-1.4581 2.03173,-3.24022 z m 11.64597,-1.29478 c 0.75342,-2.18075 1.65042,-7.115 1.99333,-10.965 0.52228,-5.86379 0.22896,-8.16253 -1.80705,-14.162158 -2.67697,-7.888331 -9.95048,-20.653116 -12.97581,-22.772141 -1.41543,-0.991405 -1.57834,-1.480819 -0.61049,-1.833985 0.88076,-0.321383 0.98731,-0.815951 0.32015,-1.485914 -1.21387,-1.218961 -8.45894,-3.620191 -9.07231,-3.006827 -0.57044,0.570438 3.86319,8.741979 4.74899,8.752776 0.37217,0.0045 0.82217,-0.636551 1,-1.424641 0.96498,-4.276572 10.56714,10.154107 14.38535,21.619136 2.2563,6.775064 2.58411,9.083154 2.0418,14.376344 -0.35531,3.46804 -1.31153,8.19178 -2.12492,10.4972 -1.77131,5.02042 -1.78622,5.20931 -0.3739,4.73854 0.60775,-0.20258 1.72144,-2.15258 2.47486,-4.33333 z m 34.8021,0.61145 c 1.71491,-1.05795 11.44303,-5.13838 21.61803,-9.06763 10.175,-3.92924 20.525,-8.27059 23,-9.64744 5.23167,-2.9104 15,-6.382072 15,-5.331018 0,2.088568 -7.52486,16.866058 -9.82467,19.293918 -2.61088,2.75625 -2.62857,2.85863 -0.7342,4.25 1.06762,0.78415 2.28222,1.42572 2.69911,1.42572 1.60582,0 5.99972,-7.04515 11.40623,-18.28868 C 532.71009,97.052547 534.65706,94 536.01616,94 538.14265,94 544,87.328921 544,84.907015 c 0,-2.575592 -3.923,-6.900548 -6.32258,-6.970401 -2.13571,-0.06217 -2.13271,-0.08131 0.15633,-0.998756 2.5227,-1.011102 2.49886,-2.694688 -0.061,-4.309417 -1.21615,-0.76713 -2.57325,-0.345684 -5.56659,1.728703 -2.94511,2.040966 -4.63002,2.574574 -6.58225,2.084594 -2.74409,-0.688722 -3.83724,1.155426 -1.26907,2.140924 1.12743,0.432636 1.10849,1.056751 -0.11286,3.718615 -1.21121,2.63976 -2.88961,3.778851 -9.60482,6.518562 -4.47543,1.825912 -10.01431,3.718219 -12.30862,4.205127 -5.93368,1.25927 -38.1944,17.565584 -42.07852,21.268764 -3.39634,3.23812 -4.26943,7.28684 -2.05,9.50627 1.68849,1.68849 3.58119,1.49781 7.18197,-0.72355 z"
       id="path2995"
       style="fill:#bfbfbf" />
    <path
       d="M 677,183.09384 C 677,182.49223 677.42456,182 677.94346,182 c 0.51891,0 1.74093,-1.35 2.71561,-3 1.83737,-3.11041 4.00491,-4.17269 2.96045,-1.45087 -0.49929,1.30114 -0.10608,1.26112 2.45623,-0.25 1.67788,-0.98952 4.3841,-3.10162 6.01383,-4.69356 4.00072,-3.90795 11.40342,-17.88735 12.89735,-24.35557 0.6669,-2.8875 1.65342,-5.25 2.19227,-5.25 0.58078,0 0.69758,1.32339 0.28684,3.25 -2.33026,10.93042 -10.05097,24.62672 -16.68226,29.59383 -3.67996,2.75644 -4.47261,3.82618 -3.6075,4.86857 1.47744,1.78021 1.1828,1.94578 -4.92628,2.76837 -3.56443,0.47995 -5.25,0.35572 -5.25,-0.38693 z M 86.634076,143.41354 C 73.952261,140.34394 62.375828,131.83097 54.14127,119.51928 45.337157,106.35604 41.321599,91.397748 42.324282,75.5 c 0.497471,-7.887518 2.898279,-20.055894 4.217235,-21.37485 1.393089,-1.393089 1.385931,1.361987 -0.01693,6.517419 -2.615799,9.612886 -3.050014,22.657815 -1.078224,32.392572 2.106777,10.401189 4.581873,16.466149 10.278564,25.186539 15.852889,24.26731 45.687793,31.78182 68.299403,17.20255 3.93713,-2.53853 4.20494,-2.92653 2.22567,-3.22455 -1.2375,-0.18633 -2.25,-0.68343 -2.25,-1.10467 0,-0.77673 11.19905,-4.2293 11.79274,-3.6356 0.61262,0.61262 -5.96689,10.54059 -6.9855,10.54059 -0.56167,0 -0.77011,-0.65437 -0.4632,-1.45416 0.34685,-0.90388 -1.78855,-0.16455 -5.64302,1.95376 -11.10786,6.1046 -23.93029,7.85159 -36.066941,4.91394 z M 607.65151,137.4278 604.80302,134 l 4.70548,0 c 3.7718,0 4.59126,0.29763 4.12987,1.5 -0.79237,2.06489 0.70503,1.88302 2.70664,-0.32874 2.41454,-2.66803 2.03016,-6.86853 -1.07811,-11.78165 -2.20226,-3.48102 -3.80465,-4.70641 -8.25,-6.30899 C 593.80128,112.31631 589.82336,112.00854 586.58758,115.5 584.10321,118.18068 583,118.62797 583,116.95455 583,114.70126 587.95586,111 590.97293,111 c 4.54403,0 18.15505,3.80934 21.02707,5.88489 4.16613,3.01077 7.93031,9.26185 7.96678,13.23025 0.0411,4.4684 -3.38311,9.27076 -6.10307,8.55947 -1.16585,-0.30488 -1.86371,0.0392 -1.86371,0.91901 0,2.18554 -1.24981,1.56306 -4.34849,-2.16582 z M 427,126.70906 c 0,-0.25168 0.66551,-2.34386 1.47891,-4.64927 0.81339,-2.30542 1.76961,-7.02916 2.12492,-10.4972 0.54231,-5.29319 0.2145,-7.60128 -2.0418,-14.376344 -3.81821,-11.465029 -13.42037,-25.895708 -14.38535,-21.619136 -0.17783,0.78809 -0.62783,1.429178 -1,1.424641 -0.8858,-0.0108 -5.31943,-8.182338 -4.74899,-8.752776 0.61337,-0.613364 7.85844,1.787866 9.07231,3.006827 0.66716,0.669963 0.56061,1.164531 -0.32015,1.485914 -0.96785,0.353166 -0.80494,0.84258 0.61049,1.833985 3.02533,2.119025 10.29884,14.88381 12.97581,22.772141 2.03601,5.999628 2.32933,8.298368 1.80705,14.162158 -0.68395,7.67903 -2.74119,14.72266 -4.46819,15.29833 C 427.49725,127.00092 427,126.96074 427,126.70906 z"
       id="path2993"
       style="fill:#fe0000" />
    <path
       d="m 675,150.89053 c -11.31547,-9.00565 -12,-9.63527 -12,-11.03737 0,-0.71399 0.70052,-0.29804 1.5567,0.92433 1.71272,2.44525 4.3832,2.88261 6.2433,1.02251 1.55568,-1.55568 1.53586,-5.00705 -0.0393,-6.85 -0.68163,-0.7975 1.90587,1.54058 5.75,5.19572 3.84413,3.65515 8.42329,7.36445 10.17592,8.24289 4.22097,2.11561 5.3138,3.90058 1.8569,3.03295 -2.97197,-0.74592 -6.96382,2.0407 -6.11014,4.26534 0.65913,1.71767 1.14693,2.03242 -7.43335,-4.79637 z m -438.60503,-7.06047 c -0.49778,-0.80542 -0.15953,-0.95369 1.0856,-0.47589 3.84343,1.47486 7.51009,-5.96351 4.44872,-9.02488 -0.76096,-0.76096 0.42908,-1.99355 4.11343,-4.26056 5.15845,-3.17402 5.19131,-3.17962 6.62742,-1.12928 1.94691,2.7796 3.01849,2.60538 6.42865,-1.04521 3.4254,-3.6669 3.79569,-2.13267 1.03126,4.27285 -2.50673,5.80843 -8.67615,10.60895 -15.23195,11.85223 -6.62285,1.256 -7.62368,1.23373 -8.50313,-0.18926 z m 358.031,-15.37301 c -0.34935,-1.86218 -1.25274,-3.89832 -2.00753,-4.52474 -1.136,-0.9428 -0.85139,-1.89614 1.65265,-5.53563 1.66374,-2.41817 3.1467,-4.39668 3.29545,-4.39668 0.14875,0 2.63935,0.70348 5.53466,1.5633 4.28312,1.27195 5.13043,1.87764 4.54644,3.25 -2.2002,5.17038 -3.36481,8.9543 -3.40375,11.05914 -0.0344,1.85678 -0.33251,2.13292 -1.37173,1.27044 -0.88295,-0.73279 -2.38044,-0.80014 -4.46943,-0.20102 -3.01882,0.86578 -3.16641,0.76868 -3.77676,-2.48481 z m -448.69585,-6.82148 c -2.59178,-6.30666 -3.03481,-9.89157 -2.25322,-18.23235 0.63168,-6.740989 0.85383,-7.366602 1.87329,-5.275575 0.63614,1.304795 2.97146,3.290495 5.1896,4.412665 3.98228,2.01465 4.02231,2.09009 3.1843,6 -0.46677,2.17783 -0.60663,5.54521 -0.3108,7.48308 0.45074,2.95264 0.18023,3.68158 -1.66996,4.5 -1.2143,0.53713 -2.68164,1.93762 -3.26074,3.11218 -0.98606,1.99996 -1.16085,1.87295 -2.75247,-2 z m 173.84413,-2.51544 c -0.54175,-0.87656 -1.90556,-1.09296 -4.18877,-0.66462 -3.93296,0.73782 -3.73411,1.29252 -3.8217,-10.66105 -0.061,-8.32424 0.0271,-8.682777 2.01042,-8.185717 3.12159,0.782317 4.57447,-1.603581 3.42247,-5.620355 -1.37306,-4.787588 -0.47957,-4.855265 1.92309,-0.145664 1.35904,2.663929 2.25215,6.862436 2.62645,12.346906 0.58335,8.5477 -0.45851,15.37933 -1.97196,12.9305 z M 603.25,113.65861 c -2.3375,-0.5735 -4.25,-1.35135 -4.25,-1.72855 0,-1.82403 3.06219,-7.67636 4.87503,-9.31696 1.98364,-1.79517 2.16442,-1.79489 6.52865,0.0102 2.46868,1.02106 4.68647,2.61347 4.92842,3.53869 0.57962,2.21644 -4.2072,8.87976 -6.24181,8.68871 -0.87466,-0.0821 -3.50279,-0.61856 -5.84029,-1.19206 z M 399.29323,100.75633 c -1.74284,-1.240982 -4.94168,-4.535857 -7.10852,-7.321945 -3.83423,-4.929979 -3.88276,-5.090689 -1.81222,-6.00208 2.19773,-0.967376 2.53979,-3.042338 1.22523,-7.432305 -0.68203,-2.277613 -0.51289,-2.210657 1.90142,0.752703 1.45753,1.788986 5.55878,5.328335 9.11391,7.86522 4.01552,2.865412 7.20685,6.068884 8.42541,8.457459 2.4412,4.785148 2.44557,5.243848 0.0356,3.738818 -1.82744,-1.141258 -3.17457,-0.823323 -8.09307,1.91004 -0.28545,0.15863 -1.94495,-0.72693 -3.68779,-1.96791 z m 106.89792,-1.918553 -4.28828,-4.162222 3.29856,-1.239301 c 1.81421,-0.681615 6.83722,-2.662132 11.16224,-4.401148 8.98108,-3.611142 11.64231,-3.500066 9.10011,0.379826 -1.29223,1.972192 -1.37654,2.879566 -0.43161,4.645184 1.4329,2.6774 0.66358,3.304635 -6.76369,5.5145 -2.87733,0.856104 -5.49139,1.977044 -5.80901,2.490974 -0.95639,1.54746 -1.79144,1.11746 -6.26832,-3.227813 z M 89.649216,82.75 c -1.348911,-1.7875 -3.187393,-5.029746 -4.085515,-7.20499 -0.898121,-2.175245 -3.39529,-6.289195 -5.549264,-9.142112 l -3.916315,-5.187123 3.193128,0.142113 c 2.370545,0.105502 3.434341,-0.402458 4.129478,-1.971816 0.878231,-1.982716 1.189069,-1.805303 5.007811,2.858242 8.976613,10.962465 13.081571,18.656137 9.14878,17.146982 -1.847789,-0.709063 -5.895086,3.338234 -5.186023,5.186023 0.888626,2.315722 -0.125671,1.639795 -2.74208,-1.827319 z"
       id="path2991"
       style="fill:#0000fe" />
    <path
       d="M 18.808047,252.2522 C 30.844939,251.97085 32.06752,251.7768 31.607561,250.22057 31.327868,249.27426 29.525264,240.625 27.601776,231 25.678287,221.375 22.030699,203.6 19.496025,191.5 12.933197,160.17044 13.23065,163 16.5,163 c 2.577459,0 2.725202,0.22481 2.214787,3.37013 -0.333322,2.05403 0.904431,10.15736 3.169484,20.75 L 25.600653,204.5 59.800326,204.76313 94,205.02626 94,175.01313 C 94,149.00146 94.199985,145 95.5,145 c 1.314642,0 1.5,6.61111 1.5,53.5 l 0,53.5 40.5,0 40.5,0 0,-22.5 0,-22.5 -11,0 c -6.66667,0 -11,-0.39394 -11,-1 0,-0.60606 4.33333,-1 11,-1 l 11,0 0,-29.35034 0,-29.35033 -13.75,-8.31078 c -16.53421,-9.9936 -16.75034,-10.17005 -19.50878,-15.92638 -1.82117,-3.80043 -2.17787,-6.26351 -2.13634,-14.7517 0.0328,-6.70747 0.48441,-10.713133 1.3215,-11.721761 1.04952,-1.2646 0.88396,-2.159516 -0.94786,-5.123465 -1.22073,-1.975175 -2.35384,-5.583883 -2.51804,-8.01935 -0.25277,-3.749378 0.0929,-4.736046 2.25535,-6.437008 C 145.28638,73.986892 148,73.347017 148,74.762872 c 0,0.419579 -0.98339,1.207079 -2.18531,1.75 -3.76541,1.700881 -3.13288,3.070324 1.22615,2.654624 5.71909,-0.545403 7.95916,1.688653 7.95916,7.937801 0,3.399075 -0.47614,5.061787 -1.63529,5.710475 -1.35677,0.759291 -0.7181,1.596615 3.75,4.916387 7.77706,5.778301 14.58659,9.500741 19.81464,10.831681 l 4.57065,1.16358 -0.36522,13.45811 -0.36522,13.45811 4.86522,3.10237 c 2.67587,1.70631 6.89022,3.87916 9.36522,4.82857 6.13501,2.35337 6.92328,3.24104 4.5,5.06743 -2.29602,1.73047 -9.6026,1.17761 -15.16784,-1.14769 L 181,147.10205 l 0,52.44898 0,52.44897 25.5,0 25.5,0 0,-22.5 0,-22.5 -9,0 c -5.33333,0 -9,-0.40741 -9,-1 0,-0.59272 3.67202,-1 9.01607,-1 l 9.01607,0 -0.26607,-27.16589 -0.26607,-27.16588 -4.05802,-1.08412 c -6.70145,-1.79031 -8.65993,-3.79695 -9.20092,-9.42714 -0.43136,-4.48929 -0.23126,-5.11728 2.12185,-6.6591 1.76564,-1.15689 4.04624,-1.58718 7.11761,-1.34291 l 4.51948,0.35945 0.003,-7.5072 c 0.002,-4.78993 -0.78031,-10.15054 -2.16138,-14.81012 -2.04773,-6.90877 -2.07159,-7.39449 -0.44205,-9 1.62019,-1.596293 1.79966,-1.593151 3.02162,0.0529 0.71452,0.9625 1.82289,1.75 2.46304,1.75 0.70621,0 1.10218,1.47467 1.00693,3.75 -0.0863,2.0625 0.87208,8.60905 2.12983,14.5479 2.49921,11.80079 2.14332,11.51717 9.01149,7.18149 3.80156,-2.39982 4.12813,-2.92548 3.56544,-5.73895 -0.7792,-3.89599 -13.76515,-38.43166 -17.12882,-45.553483 -3.96798,-8.401317 -1.57562,-9.631332 5.71234,-2.936957 4.22465,3.880561 5.4134,6.162391 13.67536,26.25 4.97669,12.1 9.31965,23.14219 9.65103,24.5382 0.94997,4.00202 -2.64494,11.01367 -7.82163,15.25557 -4.76507,3.90461 -13.61317,6.49902 -17.71963,5.19567 C 235.0278,144.87405 235,145.62229 235,198.43261 L 235,252 l 24.5,0 24.5,0 0,-22.5 0,-22.5 -14.5,0 c -9,0 -14.5,-0.37931 -14.5,-1 0,-0.62069 5.5,-1 14.5,-1 l 14.5,0 0,-42.63976 c 0,-37.02759 -0.20039,-42.78628 -1.52247,-43.75301 -1.28467,-0.93938 -1.32372,-1.54111 -0.25,-3.85244 1.3751,-2.96011 5.77247,-3.9505 5.77247,-1.3001 0,1.51772 0.83645,1.7412 14.5,3.87398 l 8,1.24874 -0.0127,-9.64614 -0.0127,-9.646152 -3.9453,-4.892559 C 291.44261,75.683631 284.43156,67.934878 279.08753,64.063408 275.73939,61.637856 273,59.307875 273,58.885674 c 0,-1.856836 2.4182,-1.845345 8.7318,0.04149 6.59161,1.969922 7.1635,2.421248 21.91886,17.297767 C 311.98352,84.626219 319.61925,93.075 320.61895,95 c 1.48716,2.863643 1.81024,5.82223 1.77693,16.27241 -0.0254,7.95734 -0.45837,13.19008 -1.14859,13.8803 -0.8105,0.8105 -0.45555,2.14124 1.32242,4.95771 1.33666,2.11741 2.43029,4.37167 2.43029,5.00947 0,0.63779 0.68927,1.66363 1.53172,2.27965 1.26148,0.92241 1.33243,1.6917 0.40218,4.36024 -0.62125,1.78212 -1.53553,3.24022 -2.03173,3.24022 -1.12774,0 -1.12427,-0.28563 0.0407,-3.34982 1.15731,-3.04396 -0.61167,-4.09677 -3.42592,-2.03894 -2.46495,1.80242 -8.94011,1.78877 -10.44293,-0.022 -0.64396,-0.77592 -1.42471,-2.97527 -1.73501,-4.88743 -0.44356,-2.73334 -0.0911,-3.9497 1.64839,-5.68923 1.21691,-1.21691 1.83007,-2.56541 1.36257,-2.99666 -0.4675,-0.43126 -5.35,-1.75707 -10.85,-2.94627 -5.5,-1.18919 -11.0125,-2.41513 -12.25,-2.72431 l -2.25,-0.56215 0,66.10841 0,66.10841 34,0 34,0 0,-22.5 0,-22.5 -10,0 c -6,0 -10,-0.4 -10,-1 0,-0.60036 4.01831,-1 10.05493,-1 l 10.05493,0 -0.30493,-46.50049 c -0.30123,-45.93553 -0.28063,-46.50049 1.69507,-46.50029 1.9837,2e-4 1.99765,0.57077 1.71153,70.00049 L 357.92306,252 l 45.03847,0 45.03847,0 0,-22.5 0,-22.5 -5,0 c -2.75,0 -5,-0.45 -5,-1 0,-0.55 2.27472,-1 5.05493,-1 l 5.05493,0 -0.30493,-46.50049 c -0.30123,-45.93553 -0.28063,-46.50049 1.69507,-46.50029 1.9837,2e-4 1.99765,0.57077 1.71153,70.00049 L 450.92306,252 l 55.53847,0 55.53847,0 0,-22.5 0,-22.5 -8.5,0 c -5,0 -8.5,-0.41176 -8.5,-1 0,-0.58874 3.51831,-1 8.55493,-1 l 8.55493,0 -0.30493,-46.50049 c -0.30123,-45.93553 -0.28063,-46.50049 1.69507,-46.50029 1.9837,2e-4 1.99765,0.57077 1.71153,70.00049 L 564.92306,252 l 39.03847,0 39.03847,0 0,-22.5 0,-22.5 -9,0 c -5.33333,0 -9,-0.40741 -9,-1 0,-0.59309 3.68682,-1 9.06045,-1 l 9.06045,0 -0.191,-46.71636 c -0.22323,-54.60189 -0.56275,-52.88562 8.4589,-42.76056 4.78091,5.36565 5.75372,6.00488 8.91242,5.85632 1.95014,-0.0917 4.01185,-0.45486 4.58157,-0.80696 0.56972,-0.35211 1.91762,-0.0895 2.99533,0.58352 1.56378,0.97659 2.28367,0.95466 3.56484,-0.10862 0.88296,-0.73279 1.93129,-1.00642 2.32963,-0.60808 1.42257,1.42256 -3.15263,3.63618 -6.15326,2.97713 -2.55473,-0.56111 -2.82959,-0.4085 -2.19943,1.22118 0.39609,1.02434 0.9699,3.09993 1.27513,4.61243 0.30523,1.5125 0.97721,2.75 1.49329,2.75 0.51608,0 4.48133,3.375 8.81168,7.5 4.33035,4.125 8.29673,7.5 8.81418,7.5 0.51746,0 4.16451,2.7 8.10456,6 7.29215,6.10756 8.99262,8.40433 2.27262,3.06956 -4.47083,-3.54924 -10.2686,-4.88634 -12.02274,-2.77273 -1.9357,2.33237 -0.33036,4.55254 6.7039,9.27146 3.63337,2.43744 6.24201,4.43171 5.79698,4.43171 -1.18022,0 -8.83206,-5.3244 -19.6695,-13.68667 -14.5253,-11.20786 -15.25657,-11.92957 -14.50073,-14.31102 0.5747,-1.81072 0.34325,-2.00089 -1.78511,-1.4667 -4.19795,1.05361 -11.07817,-8.95654 -7.62353,-11.09162 0.67968,-0.42007 -0.35651,-2.22692 -2.75,-4.79533 -2.21051,-2.37204 -2.62136,-3.06599 -0.96798,-1.63497 3.02858,2.62128 9.2454,10.3688 13.90837,17.33289 3.35035,5.00372 7.03426,5.74749 7.52424,1.51913 0.24182,-2.08686 -0.41349,-3.07849 -3.15337,-4.77184 -3.46178,-2.13949 -5.80192,-4.60008 -15.15189,-15.93171 l -5,-6.05971 -0.69237,3.69878 c -0.3808,2.03432 -0.7183,33.50622 -0.75,69.93755 L 646,251.97757 l 40.75,0.27275 c 22.4125,0.15001 -121.7,0.28179 -320.25,0.29284 -198.55,0.0111 -355.011379,-0.11988 -347.691953,-0.29096 z M 94,229.5 94,207 l -34.108408,0 -34.108408,0 0.69257,2.75 C 27.150041,212.4274 35,251.04003 35,251.67933 35,251.8557 48.275,252 64.5,252 l 29.5,0 0,-22.5 z m 588.43335,-73.8131 c -0.85368,-2.22464 3.13817,-5.01126 6.11014,-4.26534 3.4569,0.86763 2.36407,-0.91734 -1.8569,-3.03295 -1.75263,-0.87844 -6.33179,-4.58774 -10.17592,-8.24289 -3.84413,-3.65514 -6.43163,-5.99322 -5.75,-5.19572 1.57519,1.84295 1.59501,5.29432 0.0393,6.85 -1.8601,1.8601 -4.53058,1.42274 -6.2433,-1.02251 -0.85618,-1.22237 -1.5567,-1.63832 -1.5567,-0.92433 0,1.4021 0.68453,2.03172 12,11.03737 8.58028,6.82879 8.09248,6.51404 7.43335,4.79637 z m -484.01514,-6.29389 c 2.60819,-1.00086 1.83298,-1.90759 -3.16852,-3.70611 -2.61267,-0.9395 -6.77517,-3.05261 -9.25,-4.6958 l -4.49969,-2.98762 -0.31822,3.63004 c -0.39045,4.45393 0.39936,5.29602 6.50735,6.93812 5.46681,1.46972 8.44531,1.69774 10.72908,0.82137 z m 33.32908,-2.97905 c -0.25357,-0.25357 -1.28004,-0.14676 -2.28105,0.23737 -1.72932,0.6636 -1.72399,0.73283 0.10687,1.38938 1.75343,0.62878 3.2843,-0.51664 2.17418,-1.62675 z M 178,140.50174 l 0,-4.49826 -11.89439,-7.81288 c -12.66435,-8.31862 -15.09055,-8.88219 -17.06575,-3.96412 -0.5022,1.25043 -0.94161,1.63395 -0.97647,0.85226 -0.082,-1.8393 2.85423,-5.07874 4.60342,-5.07874 1.00328,0 1.20723,-0.97711 0.78271,-3.75 -0.31576,-2.0625 -0.1922,-5.53186 0.27457,-7.70969 0.83801,-3.90991 0.79798,-3.98535 -3.1843,-6 -2.21814,-1.12217 -4.55346,-3.10787 -5.1896,-4.412665 -1.0211,-2.094383 -1.23907,-1.49243 -1.86034,5.137345 -0.82425,8.79604 -0.13282,13.57436 2.84491,19.66057 1.92798,3.94062 3.75276,5.39249 16.65326,13.25 C 170.95643,141.029 177.59393,145 177.73802,145 177.88211,145 178,142.97578 178,140.50174 z m 66.92872,3.51178 c 6.81042,-1.29157 13.19888,-6.44065 15.51484,-12.50491 0.97093,-2.54234 1.42331,-5.44303 1.05064,-6.7367 C 261.13424,123.52236 256.78017,112.6 251.81851,100.5 243.86319,81.099392 242.30711,78.057241 238.64865,74.752705 234.96621,71.426519 232,69.993138 232,71.539838 c 0,0.296911 0.84792,2.209411 1.88426,4.25 2.90776,5.725456 16.19831,41.073162 17.62636,46.879292 2.06563,8.39837 3.01051,9.00151 7.17641,4.58087 2.14577,-2.27699 2.39163,-2.36693 1.42933,-0.52292 -0.63921,1.2249 -2.13423,2.7473 -3.32227,3.38312 -1.82257,0.97541 -2.43386,0.81794 -3.91222,-1.00775 l -1.75213,-2.16379 -5.13558,3.15995 c -3.64984,2.24577 -4.82583,3.46972 -4.06487,4.23068 3.06137,3.06137 -0.60529,10.49974 -4.44872,9.02488 -1.24513,-0.4778 -1.58338,-0.32953 -1.0856,0.47589 0.88015,1.42412 1.8786,1.44558 8.53375,0.18346 z M 240.8,141.8 c 1.53959,-1.53959 1.54962,-6.05038 0.0168,-7.58315 -0.65073,-0.65073 -2.18585,-5.80323 -3.41136,-11.45 L 235.17728,112.5 l -0.0886,14.20031 c -0.0782,12.5262 0.11767,14.32048 1.66136,15.21959 2.27184,1.32322 2.6171,1.313 4.05,-0.1199 z m -8.9925,-4.05 c -0.29848,-4.12537 -0.41747,-4.2591 -4.0575,-4.56037 -3.66039,-0.30294 -3.75,-0.22893 -3.75,3.09719 0,3.50942 2.21536,5.49227 6.3075,5.6455 1.51623,0.0568 1.75794,-0.61718 1.5,-4.18232 z m 85.02332,-2.87512 c 1.59288,-2.98421 1.89836,-4.51239 1.17295,-5.86783 -1.51232,-2.8258 -3.2169,-2.88012 -5.71726,-0.18219 -2.49531,2.69248 -2.80182,4.68958 -1.31852,8.59094 1.27145,3.34417 3.15795,2.52658 5.86283,-2.54092 z M 661,135.65499 c 0,-0.73976 -0.81614,-2.08362 -1.81365,-2.98635 -1.38716,-1.25536 -2.08943,-1.36556 -2.98635,-0.46864 -0.89692,0.89692 -0.78672,1.59919 0.46864,2.98635 1.9273,2.12964 4.33136,2.38976 4.33136,0.46864 z M 177.56437,116.40287 c -0.37458,-1.49416 -3.40808,-3.43494 -10.55047,-6.75 C 161.5003,107.09379 156.59271,105 156.10813,105 c -1.25639,0 -2.37015,8.53057 -1.58216,12.11823 0.54632,2.48741 2.63005,4.29669 11.81865,10.26202 l 11.15538,7.24219 0.29505,-8.06122 c 0.16228,-4.43367 0.0585,-9.00493 -0.23068,-10.15835 z M 321,123.08726 c 0,-2.67034 -2.57103,-4.41174 -5.44761,-3.68977 -1.36047,0.34146 -7.9988,-0.2658 -14.75185,-1.34946 -7.40808,-1.18878 -12.64051,-1.60806 -13.19153,-1.05704 -1.32345,1.32345 2.27988,2.6217 15.19895,5.47609 6.21938,1.37413 12.05776,2.91802 12.97418,3.43088 2.19059,1.22591 5.21786,-0.40478 5.21786,-2.8107 z m 0.54534,-16.90884 c -0.31241,-4.57687 -1.28268,-9.751873 -2.15616,-11.500003 -0.87348,-1.748129 -8.18088,-9.827263 -16.23866,-17.95363 -14.27616,-14.397671 -14.82545,-14.827484 -21.49631,-16.820873 -3.76519,-1.125114 -7.10269,-1.788768 -7.41667,-1.474788 -0.31398,0.313981 -0.38337,0.723631 -0.15421,0.910335 0.22917,0.186704 2.99234,2.256835 6.14037,4.600291 4.93598,3.674433 14.4831,14.311766 26.68037,29.727069 3.24491,4.101022 7.57242,6.256692 9.2309,4.598207 0.46513,-0.465126 0.40773,-2.372731 -0.12754,-4.239124 -0.53528,-1.866392 -0.78873,-3.577942 -0.56322,-3.803444 0.2255,-0.225501 0.87934,1.289808 1.45298,3.367354 1.22898,4.450997 -0.0847,6.830496 -3.32299,6.018929 -1.98335,-0.49706 -2.07141,-0.138523 -2.01042,8.185717 0.0876,11.95357 -0.11126,11.39887 3.8217,10.66105 2.28321,-0.42834 3.64702,-0.21194 4.18877,0.66462 1.51422,2.45006 2.55518,-4.38465 1.97109,-12.94171 z M 284,117.55902 c 0,-0.24254 -0.45,-0.7191 -1,-1.05902 -0.55,-0.33992 -1,-0.14148 -1,0.44098 0,0.58246 0.45,1.05902 1,1.05902 0.55,0 1,-0.19844 1,-0.44098 z M 177,112 c 0,-0.55 1.0125,-1.03037 2.25,-1.06749 1.25568,-0.0377 0.26136,-0.60451 -2.25,-1.28267 -5.43832,-1.46855 -14.22324,-6.38735 -21.06128,-11.792513 -5.50725,-4.353234 -9.22712,-4.83835 -9.73698,-1.269822 -0.40042,2.802588 0.9818,3.781525 11.09737,7.859575 4.74952,1.91474 10.7877,4.6015 13.41819,5.97057 C 176.07769,113.20755 177,113.43984 177,112 z m 54.62996,-5.49821 c -0.12573,-5.3192 -0.79062,-6.668888 -2.17879,-4.42279 -0.5616,0.9087 1.30858,9.921 2.05875,9.921 0.1375,0 0.19152,-2.47419 0.12004,-5.49821 z m 415.09921,4.89404 c -0.33229,-0.33229 -1.1948,-0.36781 -1.91667,-0.0789 -0.79773,0.31922 -0.56078,0.55618 0.60417,0.60416 1.05416,0.0434 1.64479,-0.19292 1.3125,-0.52522 z M 152.41821,92.393011 C 153.48577,91.983349 154,90.520438 154,87.893011 154,83.472957 153.96239,83.45097 149.95034,85.52568 147.97631,86.546488 147,87.814999 147,89.359013 c 0,3.515679 1.69279,4.463578 5.41821,3.033998 z M 725.87244,187.3182 c -0.75484,-0.92499 -7.40772,-5.64999 -14.78417,-10.5 C 703.71182,171.96819 698.03195,168 698.46635,168 c 1.25444,0 23.74518,14.93686 26.77322,17.78101 1.50676,1.41525 3.00057,2.31219 3.31957,1.99319 0.319,-0.319 -0.38009,-2.81179 -1.55353,-5.53953 -1.87067,-4.34848 -3.41627,-5.85343 -12.54492,-12.21493 -5.72626,-3.99047 -10.94785,-7.90181 -11.60354,-8.69187 -0.65569,-0.79006 4.23075,2.41982 10.85875,7.13307 10.74454,7.64055 12.28477,9.11314 14.20812,13.58408 2.01873,4.69267 2.06408,6.95498 0.13941,6.95498 -0.4502,0 -1.43614,-0.75681 -2.19099,-1.6818 z M 569.2,171.8 c -0.66,-0.66 -1.2,-2.02967 -1.2,-3.04371 0,-2.59975 23.36407,-48.62104 26.52946,-52.25629 2.27217,-2.60945 2.21547,-2.39508 -0.43556,1.64668 -2.52438,3.84865 -2.81212,4.84229 -1.67546,5.78563 0.75479,0.62642 1.65818,2.66256 2.00753,4.52474 0.61035,3.25349 0.75794,3.35059 3.77676,2.48481 2.08899,-0.59912 3.58648,-0.53177 4.46943,0.20102 1.02324,0.84922 1.32912,0.67249 1.33342,-0.77044 0.009,-3.0824 1.86985,-8.83183 3.53356,-10.91863 1.42366,-1.78571 1.43183,-1.69273 0.095,1.08075 -0.80447,1.669 -1.79164,4.819 -2.19369,7 -0.49823,2.70263 -4.85715,10.01608 -13.68775,22.96544 -7.12621,10.45 -13.86068,19.7875 -14.9655,20.75 -2.32461,2.02515 -5.85605,2.28115 -7.5872,0.55 z m 6.58689,-0.64713 c 2.4309,-1.54235 27.19516,-38.57082 26.35659,-39.40939 -0.46126,-0.46126 -2.59474,-0.23611 -4.74107,0.50034 l -3.90241,1.339 -0.15659,-3.89799 c -0.14143,-3.52068 -1.68681,-6.71865 -2.71491,-5.61816 -0.22265,0.23833 -5.18015,9.99174 -11.01666,21.67424 -10.00514,20.02653 -11.54597,23.99163 -9.94517,25.59242 0.91776,0.91777 4.5585,0.81041 6.12022,-0.18046 z M 584.48804,149.5 c 3.72938,-7.15 7.23607,-13.45 7.79265,-14 0.55658,-0.55 -2.03935,4.85 -5.76873,12 -3.72938,7.15 -7.23607,13.45 -7.79265,14 -0.55658,0.55 2.03935,-4.85 5.76873,-12 z M 94,130.44282 c 0,-6.90645 -0.504291,-14.5599 -1.120646,-17.00767 -0.815755,-3.23965 -0.829696,-7.21955 -0.05124,-14.628337 L 93.897516,88.628964 90.42156,84.781497 c -1.911775,-2.116107 -4.518002,-6.195124 -5.791615,-9.064482 -1.273613,-2.869358 -5.648874,-9.500332 -9.722802,-14.735498 -4.073929,-5.235165 -8.754592,-11.535165 -10.401474,-14 -1.646882,-2.464834 -6.484382,-8.648794 -10.75,-13.742133 C 49.490051,28.146045 46,23.519422 46,22.957999 c 0,-2.185751 3.243422,-2.100142 6.30958,0.16654 4.21434,3.115485 27.613913,27.445841 34.98388,36.375461 3.177556,3.85 7.606505,9.804213 9.842109,13.231585 3.612131,5.537713 4.287661,6.112277 6.066811,5.160103 1.10115,-0.589315 2.88178,-0.841437 3.95696,-0.560271 1.21923,0.318836 1.80826,0.07043 1.56527,-0.660103 C 108.51032,76.027091 107.05925,75.275 105.5,75 c -1.55925,-0.275 -3.02213,-1.0625 -3.25084,-1.75 -0.45516,-1.368237 0.96789,-1.695446 2.17453,-0.5 0.41636,0.4125 1.67706,0.75 2.80156,0.75 1.12449,0 2.3699,0.675 2.76758,1.5 0.39767,0.825 1.46197,2.919431 2.36511,4.654292 1.93066,3.708674 2.13727,8.4505 0.44206,10.145708 -1.92567,1.925672 -10.5152,1.531326 -11.67206,-0.535866 C 100.03227,87.306271 99.990126,87.430696 98,98.5 c -0.5933,3.3 -1.294587,7.0125 -1.558416,8.25 -0.335168,1.57212 -0.01258,2.25 1.070749,2.25 2.326983,0 2.870957,2.6147 1.076858,5.17613 C 97.330652,115.97294 97,119.20757 97,129.72251 97,140.85806 96.758018,143 95.5,143 94.246302,143 94,140.93809 94,130.44282 z M 99,111.5 c 0,-0.825 -0.648442,-1.5 -1.440983,-1.5 -2.41107,0 -2.450209,-1.13689 -0.396123,-11.506278 3.126136,-15.781301 3.145116,-15.993208 1.550564,-17.316567 -3.138747,-2.604929 -6.356907,1.000247 -4.724802,5.293007 0.578794,1.522345 0.571031,5.596985 -0.02046,10.741316 C 92.482383,110.13381 92.57861,111 95.5,111 c 1.375,0 2.5,0.45 2.5,1 0,0.55 0.225,1 0.5,1 0.275,0 0.5,-0.675 0.5,-1.5 z m 10,-23 c 0,-2.153033 -3.65124,-5.5 -6,-5.5 -2.04552,0 -2.61788,2.22625 -1.39301,5.418213 C 102.42572,90.551797 109,90.624527 109,88.5 z M 92.391296,84.577319 c -0.709063,-1.847789 3.338234,-5.895086 5.186023,-5.186023 3.932791,1.509155 -0.172167,-6.184517 -9.14878,-17.146982 -3.818742,-4.663545 -4.12958,-4.840958 -5.007811,-2.858242 -0.695137,1.569358 -1.758933,2.077318 -4.129478,1.971816 l -3.193128,-0.142113 3.916315,5.187123 c 2.153974,2.852917 4.651143,6.966867 5.549264,9.142112 2.198603,5.325001 8.710959,13.940275 6.827595,9.032309 z M 82.5,57.582739 C 82.5,55.202341 80.015598,52.062243 69,40.519753 55.731692,26.616802 50.543484,22 48.18812,22 45.871038,22 47.090307,24.086599 54.755669,33.239384 59.021287,38.332723 63.852322,44.525 65.491302,47 72.955122,58.271003 76.114428,61.155978 80.5,60.705456 c 1.495998,-0.153681 2,-0.940608 2,-3.122717 z M 416,126.5651 c 0,-0.2392 0.42431,-1.55091 0.9429,-2.91492 1.15731,-3.04396 -0.61167,-4.09677 -3.42592,-2.03894 -2.64007,1.93047 -8.95292,1.77334 -10.64454,-0.26493 -0.75484,-0.90954 -1.37244,-3.60954 -1.37244,-6 0,-2.39047 -0.225,-4.3386 -0.5,-4.32917 -0.275,0.009 -3.875,0.90171 -8,1.98286 -9.02071,2.3643 -14.31545,2.52976 -16,0.5 -1.86207,-2.24365 0.54967,-4.7467 3.90934,-4.05736 3.0505,0.6259 20.29944,-3.56897 20.79558,-5.0574 0.1875,-0.56251 -0.82664,-1.64761 -2.25365,-2.41132 -1.42701,-0.76371 -4.87836,-4.294644 -7.66967,-7.846512 C 384.61466,85.007645 376.03772,76.763456 364.07948,67.5 348.49269,55.425696 346.2916,53.338842 347.67094,51.943039 c 0.90202,-0.912792 2.19027,-0.8376 5.60938,0.327408 6.22168,2.119941 36.9896,22.905816 40.26773,27.203659 1.49061,1.9543 5.79163,5.794506 9.5578,8.53379 4.36806,3.177058 7.58023,6.4166 8.87087,8.946472 2.148,4.210432 2.67328,9.525872 1.04106,10.534642 -0.57309,0.35419 0.0517,2.24493 1.5,4.53915 1.36522,2.16265 2.48222,4.45393 2.48222,5.09173 0,0.63779 0.68927,1.66363 1.53172,2.27965 1.26148,0.92241 1.33243,1.6917 0.40218,4.36024 C 418.31265,125.5419 417.39837,127 416.90217,127 416.40598,127 416,126.80429 416,126.5651 z m -7.16918,-9.69022 c 1.68558,-3.15788 1.92141,-4.46932 1.0848,-6.03254 -0.63986,-1.19559 -1.67321,-1.7656 -2.5741,-1.4199 -0.8278,0.31766 -2.1229,0.57756 -2.87799,0.57756 -1.85274,0 -2.84447,5.86785 -1.56189,9.24131 1.33856,3.52067 3.17887,2.78617 5.92918,-2.36643 z m -13.52511,-5.45237 c 5.59248,-1.41763 11.39889,-2.73326 12.90314,-2.92363 3.64144,-0.46085 4.79115,-1.26663 4.79115,-3.3579 0,-4.68646 -4.55617,-5.329389 -9.2152,-1.30037 -3.71027,3.20854 -19.17079,7.60259 -23.19559,6.59243 -2.45237,-0.61551 -4.17264,0.81394 -3.08921,2.56696 1.03288,1.67124 7.1154,1.13236 17.80571,-1.57749 z m 11.01838,-10.39887 c 2.23887,-1.119545 3.2232,-1.162947 4.75,-0.20944 2.40994,1.50503 2.40557,1.04633 -0.0356,-3.738818 -1.22207,-2.395443 -4.41625,-5.596582 -8.4729,-8.491345 -3.58124,-2.555521 -7.74727,-6.266788 -9.25785,-8.24726 -1.53018,-2.006159 -10.01892,-8.46201 -19.16773,-14.57743 -15.4436,-10.323095 -24.34828,-14.884383 -25.94349,-13.289172 -0.80273,0.802733 1.68471,2.999684 15.88493,14.029825 5.66457,4.4 13.21465,10.833828 16.77796,14.297396 8.63958,8.397747 12.18582,8.109908 9.82409,-0.797396 -0.4036,-1.522197 -0.0581,-1.177423 0.88336,0.881503 1.76878,3.868222 1.276,6.085332 -1.51475,6.815128 -1.75282,0.458375 -1.55547,0.998243 2.06726,5.655061 3.79201,4.874417 9.73222,10.000228 10.86168,9.372548 0.28544,-0.15863 1.78982,-0.9239 3.34307,-1.7006 z M 458.2,123.8 c -2.21943,-2.21943 -1.34634,-6.26815 2.05,-9.50627 3.88412,-3.70318 36.14484,-20.009494 42.07852,-21.268764 2.29431,-0.486908 7.83319,-2.379215 12.30862,-4.205127 6.71521,-2.739711 8.39361,-3.878802 9.60482,-6.518562 1.22135,-2.661864 1.24029,-3.285979 0.11286,-3.718615 -2.56817,-0.985498 -1.47502,-2.829646 1.26907,-2.140924 1.95223,0.48998 3.63714,-0.04363 6.58225,-2.084594 2.99334,-2.074387 4.35044,-2.495833 5.56659,-1.728703 2.55988,1.614729 2.58372,3.298315 0.061,4.309417 -2.28904,0.917451 -2.29204,0.936584 -0.15633,0.998756 C 540.077,78.006467 544,82.331423 544,84.907015 544,87.328921 538.14265,94 536.01616,94 c -1.3591,0 -3.30607,3.052547 -7.46969,11.71132 C 523.13996,116.95485 518.74606,124 517.14024,124 c -0.41689,0 -1.63149,-0.64157 -2.69911,-1.42572 -1.89437,-1.39137 -1.87668,-1.49375 0.7342,-4.25 C 517.47514,115.89642 525,101.11893 525,99.030362 c 0,-1.051054 -9.76833,2.420618 -15,5.331018 -2.475,1.37685 -12.825,5.7182 -23,9.64744 -10.175,3.92925 -19.90312,8.00968 -21.61803,9.06763 -3.60078,2.22136 -5.49348,2.41204 -7.18197,0.72355 z m 6.72577,-1.46056 c 1.30393,-0.91331 11.37575,-5.17 22.38182,-9.45932 11.00607,-4.28931 20.46871,-8.25642 21.02809,-8.8158 1.20554,-1.20554 -1.57697,-4.688739 -4.48208,-5.610787 -1.03545,-0.328639 -1.65606,-0.964139 -1.37913,-1.412223 0.27693,-0.448083 -0.1092,-1.323202 -0.85807,-1.94471 -1.05688,-0.877129 -5.47425,0.906657 -19.73899,7.97084 C 462.1976,112.81327 458,115.79357 458,120.02042 c 0,4.40262 2.67313,5.29769 6.92577,2.31902 z m 0.17265,-8.6952 c 0.87585,-0.98707 35.18163,-15.697519 35.60962,-15.269532 0.1995,0.199503 -7.19069,3.617412 -16.42265,7.595352 -19.16822,8.25936 -20.00217,8.59291 -19.18697,7.67418 z m 54.87395,6.39456 c 1.15971,-1.62865 4.61113,-8.16561 7.66983,-14.52657 5.91584,-12.302722 6.35563,-15.743369 2.18167,-17.068131 -2.56577,-0.814344 -5.26732,2.112048 -4.17938,4.527207 0.37875,0.840782 0.64004,2.653694 0.58065,4.028694 -0.15756,3.64807 -6.93653,18.03905 -10.03225,21.29733 -2.23311,2.35038 -2.4209,2.9471 -1.17533,3.73469 2.22175,1.40483 2.66102,1.22812 4.95481,-1.99322 z m -7.5129,-17.97321 c 0.31762,-0.51393 2.93168,-1.63487 5.80901,-2.490974 7.42727,-2.209865 8.19659,-2.8371 6.76369,-5.5145 -0.94493,-1.765618 -0.86062,-2.672992 0.43161,-4.645184 2.5422,-3.879892 -0.11903,-3.990968 -9.10011,-0.379826 -4.32502,1.739016 -9.34803,3.719533 -11.16224,4.401148 l -3.29856,1.239301 4.28828,4.162222 c 4.47688,4.345273 5.31193,4.775273 6.26832,3.227813 z M 540.36138,89.797493 C 542.71286,86.792863 542.96898,85 541.04674,85 539.7725,85 534,90.653289 534,91.90121 c 0,2.281018 3.95286,0.973801 6.36138,-2.103717 z m -10.67085,-5.433416 c 0.67934,-1.770328 -0.85171,-4.93419 -2.29952,-4.751879 -0.49005,0.06171 -1.43199,1.173454 -2.09318,2.470545 -0.93622,1.836632 -0.93622,2.527391 0,3.122489 1.95767,1.244365 3.72206,0.906503 4.3927,-0.841155 z M 537.25,76.346581 c 2.15418,-0.713764 2.26893,-2.210218 0.2295,-2.992821 -0.83627,-0.320909 -3.05728,0.469546 -4.93556,1.756566 -2.60122,1.782386 -3.15774,2.650087 -2.33529,3.641078 0.87916,1.059325 1.47099,1.010655 3.18556,-0.261969 1.15818,-0.859655 2.89329,-1.823939 3.85579,-2.142854 z m 75.55642,35.601999 c 1.6387,-2.22828 2.77837,-4.82033 2.53261,-5.76013 -0.24576,-0.93979 -2.46667,-2.54412 -4.93535,-3.56518 -4.33804,-1.79423 -4.55579,-1.79559 -6.49524,-0.0404 -1.10369,0.99883 -2.89034,3.6388 -3.97032,5.8666 -1.07999,2.2278 -1.65805,3.15054 -1.28458,2.05054 0.37347,-1.1 0.7167,-3.35 0.76275,-5 0.082,-2.93708 -0.0107,-2.9947 -4.41629,-2.74721 -5.02015,0.28201 -17.29059,-3.193073 -19.13904,-5.420321 -0.93505,-1.126674 -0.84524,-1.776763 0.42034,-3.042337 1.47932,-1.479321 2.07238,-1.432352 7.33292,0.580744 4.51263,1.726883 6.90416,2.05969 11.30461,1.573155 3.15802,-0.349165 6.77513,-0.156094 8.33117,0.444694 2.49386,0.962878 2.75035,0.854511 2.75374,-1.163476 0.002,-1.223887 0.89544,-3.687749 1.9853,-5.475249 2.57602,-4.224981 6.96994,-4.476321 10.55871,-0.603977 1.7055,1.840266 2.45225,2.182068 2.45225,1.122444 0,-2.041801 -2.43188,-3.949549 -7.38543,-5.793675 -4.85953,-1.809127 -5.83778,-4.460338 -2.24911,-6.095447 2.21377,-1.00866 3.07444,-0.726763 7.33911,2.403788 7.84985,5.762319 8.34206,6.563154 7.18874,11.696205 -0.54892,2.443058 -1.43224,4.965103 -1.96293,5.604545 -0.53069,0.639441 -0.654,1.972777 -0.27402,2.962977 0.53055,1.38261 0.31542,1.65629 -0.92717,1.17946 -1.1791,-0.45246 -3.01517,1.26375 -6.76827,6.32639 -2.83263,3.82101 -5.37157,6.94729 -5.64209,6.94729 -0.27052,0 0.8489,-1.82314 2.48759,-4.05142 z m 7.49912,-11.26323 c -0.83268,-1.347305 -4.30592,2.46438 -4.30057,4.71964 0.004,1.87675 0.25498,1.78252 2.40481,-0.9045 1.31992,-1.64972 2.17301,-3.36654 1.89576,-3.81514 z m -10.322,-3.511408 C 611.64259,95.894609 613,94.072109 613,93.123942 613,91.426889 611.2113,89 609.96052,89 608.90177,89 607,93.916776 607,96.654042 c 0,2.078485 -0.32912,2.408315 -1.75,1.753751 -0.9625,-0.443402 -5.35,-0.834217 -9.75,-0.868478 -5.36467,-0.04177 -9.58002,-0.685581 -12.79642,-1.954388 -3.62333,-1.429335 -5.07855,-1.609957 -5.95,-0.738511 -1.64815,1.648156 -0.23348,2.668337 7.10045,5.120449 4.52532,1.513045 7.56375,1.943075 10.55731,1.494165 3.17559,-0.47621 4.52312,-0.24492 5.5115,0.946 1.17779,1.41914 1.59421,1.3528 4.17624,-0.66535 1.5774,-1.23293 4.22541,-3.288406 5.88446,-4.567738 z m 14.73457,-3.686904 c 1.4072,-5.613272 1.28407,-5.846964 -5.83366,-11.071856 -3.39049,-2.488854 -5.45776,-3.367996 -6.86754,-2.920549 -3.27989,1.040995 -2.31051,3.33712 1.94745,4.612834 2.18039,0.653263 4.89736,2.180892 6.03771,3.394732 1.78516,1.900217 1.94542,2.776333 1.15301,6.303098 -0.50618,2.252863 -0.66378,4.352673 -0.35021,4.666243 1.35453,1.354528 2.77893,-0.459805 3.91324,-4.984502 z"
       id="path2989"
       style="fill:#000000" />
  </g>
</svg>
