<?xml version="1.0" encoding="UTF-8" standalone="no"?>
<!-- Created with Inkscape (http://www.inkscape.org/) -->

<svg
   xmlns:dc="http://purl.org/dc/elements/1.1/"
   xmlns:cc="http://creativecommons.org/ns#"
   xmlns:rdf="http://www.w3.org/1999/02/22-rdf-syntax-ns#"
   xmlns:svg="http://www.w3.org/2000/svg"
   xmlns="http://www.w3.org/2000/svg"
   version="1.1"
   width="717"
   height="285"
   id="svg2">
  <metadata
     id="metadata8">
    <rdf:RDF>
      <cc:Work
         rdf:about="">
        <dc:format>image/svg+xml</dc:format>
        <dc:type
           rdf:resource="http://purl.org/dc/dcmitype/StillImage" />
        <dc:title></dc:title>
      </cc:Work>
    </rdf:RDF>
  </metadata>
  <defs
     id="defs6" />
  <g
     id="g2987">
    <path
       d="m 397.22539,219.73991 c -1.16779,-1.24305 -3.2467,-4.80042 -4.61982,-7.90527 l -2.49656,-5.64518 2.49148,-0.62533 c 3.28401,-0.82423 4.02741,-0.25004 5.43752,4.1998 0.65116,2.05484 2.27796,5.64857 3.61511,7.98607 l 2.43119,4.25 -2.36784,0 c -1.30231,0 -3.3233,-1.01704 -4.49108,-2.26009 z m -9.21343,-18.20846 c -0.5162,-1.3577 -2.35356,-5.7452 -4.08302,-9.75 -4.84886,-11.22816 -5.33426,-13.51391 -3.47305,-16.35447 1.70733,-2.60572 4.92446,-3.21423 6.22255,-1.17698 0.43806,0.6875 2.63477,7.325 4.88157,14.75 3.55312,11.742 3.88031,13.58851 2.51254,14.17971 -3.11272,1.34544 -5.13109,0.79651 -6.06059,-1.64826 z M 681.01531,181.40499 C 681.00689,180.80273 681.9,179.49549 683,178.5 c 2.30614,-2.08703 2.61932,-8.4426 0.97605,-19.808 -1.14016,-7.88567 -0.14939,-10.99967 3.34161,-10.50268 1.88816,0.2688 2.14214,0.84989 1.88415,4.31068 -0.164,2.2 -0.614,9.175 -1,15.5 -0.68867,11.28463 -0.74863,11.50657 -3.20181,11.85082 -1.375,0.19294 -2.83061,0.86794 -3.23469,1.5 -0.50046,0.78282 -0.73957,0.80009 -0.75,0.0542 z M 594.63768,169.25 c -0.77752,-1.5125 -2.35847,-7.39766 -3.51321,-13.07812 -1.2323,-6.06195 -2.97588,-11.55883 -4.2211,-13.30758 -2.4797,-3.48242 -2.32918,-3.75866 2.47273,-4.53791 2.6972,-0.43769 3.62645,-0.23497 3.63389,0.79277 0.005,0.75946 0.65589,7.16822 1.44532,14.24168 1.00097,8.9688 1.93547,13.41349 3.08798,14.68699 1.60275,1.77102 1.28452,3.95217 -0.57663,3.95217 -0.50341,0 -1.55146,-1.2375 -2.32898,-2.75 z m -467.13457,-2.32908 c -2.19829,-1.6629 -4.34634,-3.9681 -4.77345,-5.12268 -0.42711,-1.15458 -4.89101,-9.74857 -9.91978,-19.09775 -8.8903,-16.5283 -10.24537,-20.51727 -8.50793,-25.04497 0.5006,-1.30454 5.69805,-2.56133 5.69805,-1.37784 0,0.15272 2.6235,6.12017 5.83001,13.261 3.2065,7.14083 6.79594,16.12838 7.97652,19.97233 1.18059,3.84394 3.73209,9.59903 5.67,12.78907 5.19845,8.55731 4.71792,9.68249 -1.97342,4.62084 z M 679.0318,159.25 c 0.0175,-1.5125 0.63928,-3.55073 1.38174,-4.52939 1.21285,-1.5987 1.41271,-1.61578 1.96819,-0.16821 0.34005,0.88615 0.61827,2.92437 0.61827,4.52939 0,2.25154 -0.4569,2.91821 -2,2.91821 -1.52286,0 -1.99241,-0.65607 -1.9682,-2.75 z m -297.47603,-4.15976 c -0.30924,-0.50036 -0.29408,-1.60863 0.0337,-2.46281 0.32778,-0.85418 -0.14547,-3.78531 -1.05167,-6.51362 -0.95526,-2.87602 -1.5195,-7.19894 -1.34272,-10.28719 L 379.5,130.5 l 1.67578,4.5 c 0.92167,2.475 2.81499,7.55068 4.20737,11.27929 1.39238,3.72861 2.27764,7.44111 1.96724,8.25 -0.61699,1.60785 -4.89184,2.02168 -5.79462,0.56095 z M 55.290519,153.19562 c -4.543418,-1.83013 -6.925908,-4.59448 -17.132812,-19.87883 -3.372908,-5.05077 -6.610069,-9.47833 -7.193692,-9.83903 -0.726053,-0.44873 -0.662999,-1.13554 0.19968,-2.175 1.036161,-1.2485 0.936085,-1.75663 -0.561663,-2.85181 -1.749592,-1.27933 -1.735362,-1.45496 0.355841,-4.39179 C 32.155947,112.37662 33.520738,111 33.990743,111 c 0.470005,0 5.163701,8.01108 10.430435,17.80241 5.434532,10.10327 11.090185,19.27013 13.077351,21.19616 5.379594,5.21411 4.81804,6.0272 -2.20801,3.19705 z m 332.251211,-3.8854 c -1.21918,-4.85757 3.53288,-7.09523 6.97965,-3.28659 2.13894,2.36349 1.32714,3.58583 -3.25405,4.8997 -2.8031,0.80392 -3.15748,0.65048 -3.7256,-1.61311 z m -38.43361,-4.42991 c -0.92782,-2.66153 -0.83524,-3.52435 0.54132,-5.04544 4.00333,-4.42363 8.25916,0.1318 4.64524,4.97225 -2.75662,3.6922 -3.91925,3.7086 -5.18656,0.0732 z M 573,143.41282 c 0,-0.29937 0.46583,-1.41472 1.03518,-2.47856 1.18347,-2.21134 5.20939,-2.73518 4.37842,-0.56971 -0.51669,1.34648 -5.4136,4.10381 -5.4136,3.04827 z m -18.67438,-2.00666 c -1.24281,-3.2387 7.52113,-10.21798 18.77175,-14.94914 l 10.40263,-4.37457 -4.69605,4.32234 c -3.23255,2.97531 -5.92051,4.51814 -8.62509,4.95062 -2.97081,0.47505 -4.62152,1.53617 -6.76844,4.35093 -5.60828,7.35282 -7.89898,8.79002 -9.0848,5.69982 z M 271,137.18387 c 0,-0.44887 2.5875,-2.03591 5.75,-3.52675 8.07232,-3.80538 45.36394,-11.01796 48.82153,-9.44257 2.67261,1.21772 3.28803,4.82719 1.12862,6.61934 -0.71492,0.59333 -9.60242,1.78376 -19.75,2.64541 -10.14758,0.86164 -21.83543,2.23129 -25.973,3.04366 C 272.32427,138.22187 271,138.30959 271,137.18387 z m 76.30947,-1.81979 c -0.91552,-2.3858 0.95489,-4.7339 4.3189,-5.42191 1.61562,-0.33043 6.90488,-2.76341 11.75391,-5.40661 11.85884,-6.46426 11.02855,-3.80341 -1.67957,5.38255 -9.90337,7.15857 -13.25012,8.42488 -14.39324,5.44597 z m 26.80924,-9.8069 c -1.56165,-6.20191 -1.46795,-6.57191 1.63129,-6.44118 1.84045,0.0776 2.14421,0.27246 0.91841,0.58904 -1.58475,0.40928 -1.74057,1.13489 -1.15616,5.384 0.84159,6.11909 0.0927,6.37065 -1.39354,0.46814 z m 53.34017,-0.62371 c -0.36253,-0.58659 -0.44468,-1.281 -0.18255,-1.54313 0.26212,-0.26213 0.74306,0.21781 1.06875,1.06653 0.67618,1.76211 0.0999,2.07206 -0.8862,0.4766 z m 5.7178,-1.52777 c 0.30771,-1.5173 11.61939,-6.70792 21.7748,-9.99185 3.71279,-1.20059 4.67306,-1.21788 5.78674,-0.1042 1.81614,1.81614 0.53609,4.68799 -2.09521,4.70073 -1.17865,0.006 -7.31801,1.57604 -13.64301,3.48962 -6.325,1.91358 -11.6455,3.48391 -11.82332,3.48962 -0.17783,0.006 -0.17783,-0.70705 0,-1.58392 z M 610,122.62608 c 0,-0.75566 3.54835,-3.70349 7.88523,-6.55073 4.33687,-2.84724 10.97054,-7.63542 14.74149,-10.64039 4.1652,-3.31915 7.44835,-5.23847 8.36477,-4.89003 1.17848,0.44808 1.24499,0.30802 0.30401,-0.640183 -0.94281,-0.950044 -2.43304,-0.256812 -6.85916,3.190753 C 623.51547,111.60194 610.49516,120 608.22772,120 c -2.67962,0 -3.69719,-1.99334 -2.81398,-5.51233 0.41687,-1.66095 2.678,-3.77085 6.69557,-6.24777 7.75144,-4.77892 20.57893,-12.970294 24.16211,-15.429428 1.52429,-1.046114 3.18413,-1.646961 3.68854,-1.335216 0.50442,0.311745 1.35634,-0.218041 1.89317,-1.177301 1.48018,-2.644929 6.54604,-0.620527 6.94444,2.775112 0.32605,2.778951 -3.36047,8.315113 -4.90242,7.362133 -0.51959,-0.32112 -0.82105,-0.13723 -0.66993,0.40865 0.28242,1.02011 -12.15162,11.41296 -22.64132,18.92446 C 614.69693,123.98388 610,125.2521 610,122.62608 z m 73.4247,-1.77169 c -1.38085,-2.67027 -1.60479,-6.7125 -1.48198,-26.749999 0.13009,-21.224817 0.3554,-24.184052 2.23497,-29.354391 1.14966,-3.1625 2.41069,-5.75 2.80228,-5.75 0.3916,0 1.0069,5.7375 1.36734,12.75 0.36044,7.0125 1.35228,20.625 2.2041,30.25 l 1.54875,17.5 -2.60585,2.25 c -3.42148,2.95426 -4.13306,2.84926 -6.06961,-0.89561 z M 169,121.06955 c 0,-0.51175 -0.96789,-1.07425 -2.15086,-1.25 -1.71398,-0.25464 -3.03622,-2.5293 -6.5096,-11.19846 -2.3973,-5.9834 -5.72899,-12.439562 -7.40377,-14.347026 -3.25498,-3.707216 -3.51542,-6.538753 -0.65214,-7.09017 3.33322,-0.64192 6.86352,5.121556 10.22246,16.688956 3.1602,10.88296 5.60455,16.12715 7.51696,16.12715 0.53732,0 0.97695,0.45 0.97695,1 0,0.55 -0.45,1 -1,1 -0.55,0 -1,-0.4187 -1,-0.93045 z M 26.91397,120.29957 c -2.526119,-0.39149 -2.611718,-0.66296 -3.694854,-11.71825 -0.609853,-6.22462 -2.031845,-13.943644 -3.15998,-17.153393 -2.23599,-6.361791 -1.704077,-8.057597 2.218569,-7.073076 2.360624,0.592479 2.456883,1.008452 3.674005,15.876789 C 27.164027,115.04128 28.025335,119 30.035184,119 30.565833,119 31,119.45 31,120 c 0,0.55 -0.3375,0.93258 -0.75,0.85017 -0.4125,-0.0824 -1.913713,-0.33018 -3.33603,-0.5506 z M 247.5,112.91754 c -4.4,-3.86875 -9.14989,-7.64912 -10.55531,-8.40082 -3.55315,-1.90043 -5.30904,-5.96044 -3.69532,-8.544413 C 233.92682,94.887538 234.85243,94 235.30629,94 237.19646,94 240,96.182349 240,97.653713 c 0,2.278761 15.93206,19.405647 19.49715,20.959337 l 3.00285,1.30867 -3.5,0.015 c -2.91998,0.0125 -4.82577,-1.15074 -11.5,-7.01913 z M 479.2,118.8 c -1.55927,-1.55927 -1.53434,-4.30196 0.05,-5.50155 0.6875,-0.52054 6.425,-2.43615 12.75,-4.2569 19.03913,-5.48073 25.87213,-7.7994 29.38819,-9.972449 C 525.01172,96.829638 527,96.438524 527,97.965204 c 0,1.670163 -6.02399,7.908816 -8.31159,8.607756 -1.20362,0.36775 -4.43841,1.71203 -7.18841,2.98729 -20.69869,9.5986 -29.44047,12.09928 -32.3,9.23975 z M 98.517035,118.02756 c -0.330549,-0.53484 -2.42727,-1.5196 -4.65938,-2.18835 -4.912435,-1.4718 -6.451023,-3.69151 -7.360394,-10.61878 C 85.843316,100.2389 86.814411,97 88.96193,97 90.286997,97 92,102.05976 92,105.97366 c 0,3.6544 0.319204,4.06219 5.5,7.02634 5.5101,3.15256 7.19912,6 3.55902,6 -1.067544,0 -2.211435,-0.4376 -2.541985,-0.97244 z M 228.75,109.88491 c -3.56737,-2.66155 -3.46688,-3.57541 0.60676,-5.518 3.10973,-1.48292 3.55128,-1.47327 6,0.13119 3.29617,2.15974 3.34623,3.81127 0.17842,5.88689 -3.09459,2.02765 -3.43034,2.00291 -6.78518,-0.50008 z m 223.8067,-0.10742 c -2.08205,-2.97254 -1.96489,-4.04148 0.61988,-5.65569 1.90312,-1.18852 2.34286,-1.13191 3.5,0.45058 0.72788,0.99543 1.32342,3.07387 1.32342,4.61875 0,3.52786 -3.14565,3.86672 -5.4433,0.58636 z M 80,97.712265 c -1.89599,-0.954252 -2.576339,-2.181409 -2.815966,-5.079202 l -0.315966,-3.820951 3.315966,0.694384 c 4.759617,0.996694 6.156544,2.666378 5.340247,6.382954 C 84.777493,99.289551 83.784737,99.617125 80,97.712265 z m 63.25,-5.23929 C 141.78562,91.440501 141,89.858897 141,87.943296 141,85.241213 141.28941,85 144.53138,85 c 3.70288,0 4.21724,0.60408 4.68314,5.5 0.2243,2.357129 -0.1431,3.059932 -1.71452,3.279679 -1.1,0.153823 -3.0125,-0.434194 -4.25,-1.306704 z M 21.557081,82.414224 C 18.179584,79.036727 21.171217,73 26.222506,73 c 2.972576,0 2.45221,7.327889 -0.665425,9.370642 -2.211286,1.44889 -2.590559,1.453023 -4,0.04358 z M 168.2,77.8 C 167.54,77.14 167,76.061292 167,75.402871 167,72.608069 153.8459,41.555187 151.05364,37.758306 148.13077,33.783813 147.17337,31 148.72935,31 c 0.40114,0 2.76364,1.433969 5.25,3.186599 4.00002,2.819611 5.47688,5.094139 12.82371,19.75 4.56669,9.10987 8.27919,17.329727 8.25,18.266348 C 174.88963,77.447969 171.01361,80.613605 168.2,77.8 z m 51.82248,-6.277365 C 216.16012,67.634318 213,64.144114 213,63.766626 c 0,-0.377489 1.74628,-1.209542 3.88063,-1.849007 3.759,-1.126224 4.05674,-1.029692 9.5,3.080004 5.65323,4.268231 5.68235,4.324929 6.03604,11.752377 0.0595,1.248889 -0.69769,1.763215 -2.64419,1.796151 -2.08109,0.03521 -4.39183,-1.629352 -9.75,-7.023516 z M 200.5,52.937588 c -5.5,-4.966563 -10.15,-9.459296 -10.33333,-9.983851 -0.4867,-1.392553 2.97968,-1.166203 7.71244,0.50361 3.28552,1.159198 11.51698,7.319993 19.48579,14.584047 0.79357,0.723386 -4.21623,3.979797 -6.06524,3.942457 C 210.85985,61.97497 206,57.904151 200.5,52.937588 z"
       id="path2997"
       style="fill:#fefefe" />
    <path
       d="M 0,142.5 0,0 358.5,0 717,0 717,142.5 717,285 358.5,285 0,285 0,142.5 z m 691.18874,126.75084 c -20.6081,-0.26734 -22.2722,-0.42155 -21.79952,-2.02014 0.28147,-0.95188 2.08987,-9.6057 4.01869,-19.2307 9.38286,-46.82155 13.49045,-66.07075 14.61724,-68.5 0.51023,-1.1 1.11143,-6.725 1.33601,-12.5 0.44639,-11.47905 1.28498,-16.74011 3.01447,-18.91193 1.58468,-1.98997 1.22884,-22.48073 -0.80035,-46.08807 -0.92187,-10.725 -1.99095,-24.9 -2.37571,-31.5 -0.82044,-14.073263 -2.20506,-15.548462 -5.82413,-6.20514 -2.10737,5.440554 -2.2594,7.49245 -2.48661,33.559763 -0.13311,15.270697 0.082,28.289157 0.47801,28.929927 0.39602,0.64076 0.16947,5.90137 -0.50344,11.69023 -1.31428,11.30647 -1.21843,11.16916 -7.44767,10.66888 -2.32786,-0.18696 -4.82757,2.20257 -5.86484,5.60634 -0.91839,3.01368 0.81828,2.86172 2.85715,-0.25 2.31866,-3.53871 3.56342,-3.09895 2.89458,1.02262 -0.77823,4.79567 1.67933,7.47738 6.85237,7.47738 l 3.84501,0 0,6.68555 c 0,5.40031 -0.40086,7.11225 -2.0852,8.90515 -1.95689,2.08301 -1.98612,2.37081 -0.475,4.67709 1.51303,2.30917 1.37937,3.53707 -2.2147,20.34485 L 675.40018,221.5 658.20009,221.77361 C 647.86417,221.93803 641,222.43688 641,223.02361 641,223.62075 647.64531,224 658.10841,224 l 17.10841,0 -0.69257,2.75 C 673.84996,229.4274 666,268.04003 666,268.67933 666,268.8557 652.01968,269 634.93261,269 c -29.1186,0 -31.0349,-0.10977 -30.54951,-1.75 0.28483,-0.9625 2.09164,-9.625 4.01512,-19.25 1.92349,-9.625 5.57108,-27.4 8.10575,-39.5 6.56283,-31.32956 6.26538,-28.5 2.99603,-28.5 -2.57746,0 -2.7252,0.22481 -2.21479,3.37013 0.33332,2.05403 -0.90443,10.15736 -3.16948,20.75 l -3.71638,17.37987 -34.2505,0.26319 -34.25049,0.26318 0.30082,-51.01362 c 0.29748,-50.44729 0.27862,-51.01363 -1.69918,-51.01345 -1.98466,1.7e-4 -1.9978,0.57143 -1.71362,74.50044 L 539.07276,269 l -22.60377,0 c -21.05801,0 -22.56835,-0.11967 -22.08589,-1.75 0.28483,-0.9625 2.09164,-9.625 4.01512,-19.25 1.92349,-9.625 5.57108,-27.4 8.10575,-39.5 6.56283,-31.32956 6.26538,-28.5 2.99603,-28.5 -2.57746,0 -2.7252,0.22481 -2.21479,3.37013 0.33332,2.05403 -0.90443,10.15736 -3.16948,20.75 L 500.39935,221.5 466.19967,221.76313 432,222.02626 l 0,-47.84062 0,-47.84061 12.22146,-3.62708 c 10.31623,-3.06166 12.45974,-3.41897 13.75,-2.29204 4.08068,3.56414 24.2821,2.2442 35.78725,-2.3383 2.88271,-1.14819 7.60379,-3.02745 10.49129,-4.17615 2.8875,-1.1487 5.7,-2.43546 6.25,-2.85947 0.55,-0.42401 3.14188,-1.57198 5.75974,-2.55104 C 520.73819,106.82605 528,100.3096 528,97.965734 c 0,-2.098149 -3.05436,-2.095254 -6.45446,0.0061 -3.69762,2.285256 -9.90535,4.396916 -30.9142,10.515976 -12.67961,3.69308 -12.99364,3.732 -21.37726,2.64979 -4.67973,-0.60409 -8.90133,-0.85563 -9.38134,-0.55897 C 459.39273,110.87531 459,109.93186 459,108.48209 459,105.27776 454.04179,100 451.03147,100 c -1.87335,0 -3.87082,1.65318 -8.45781,7 -1.93261,2.25274 -2.97183,7.29939 -1.39486,6.77373 0.69632,-0.2321 1.50732,-1.44411 1.80222,-2.69335 l 0.53619,-2.27133 1.89638,2.09547 c 1.04301,1.15252 2.5282,2.09548 3.30041,2.09548 2.93403,0 0.007,1.93192 -6.97053,4.60047 -3.98391,1.52369 -8.59364,2.68037 -10.24386,2.57042 -4.02619,-0.26827 -6.43472,3.13834 -4.06791,5.75364 1.39326,1.53953 1.5683,9.6208 1.5683,72.40421 L 429,269 l -25,0 -25,0 0,-22.57136 0,-22.57135 12.25,0.15054 C 412.61337,224.27037 419,224.03842 419,223 c 0,-0.57031 -2.97281,-1 -6.91844,-1 -6.72875,0 -6.97324,-0.0891 -8.91722,-3.25 -1.91429,-3.1126 -6.36121,-13.92445 -5.89061,-14.32188 0.12445,-0.10509 2.99219,-1.57738 6.37275,-3.27174 5.55521,-2.78431 6.09712,-2.89191 5.63337,-1.11852 -0.28618,1.09435 -0.0135,1.96214 0.61652,1.96214 1.29787,0 5.77,-8.66696 4.91388,-9.52309 -0.72587,-0.72586 -9.81025,1.53527 -9.81025,2.4418 0,0.37471 0.45891,1.1402 1.01979,1.70108 0.69306,0.69306 -0.58759,1.77265 -3.99709,3.36958 -2.75929,1.29238 -5.18738,2.16097 -5.39576,1.93021 -0.20839,-0.23077 -2.24577,-6.71958 -4.52752,-14.41958 -4.12823,-13.93109 -4.14387,-14.04583 -3.17851,-23.31019 0.53357,-5.1206 0.7215,-9.9581 0.41762,-10.75 C 388.96162,152.45759 389.4801,152 390.96993,152 393.76334,152 399,146.80347 399,144.03147 399,142.1506 397.86077,140.76537 391.99182,135.51 389.90402,133.64046 385,132.49196 385,133.87254 c 0,0.59915 1.15139,1.37834 2.55864,1.73153 2.54454,0.63864 2.548,0.6539 0.62728,2.76906 -1.06225,1.16978 -2.13521,2.79159 -2.38436,3.60403 -0.83325,2.7171 -6.79983,-14.7358 -6.14944,-17.98778 C 380.34588,120.52062 378.69639,118 375.73269,118 c -1.11234,0 -6.65092,2.48269 -12.30796,5.51709 l -10.28553,5.5171 -3.7465,-2.54244 c -4.51259,-3.06233 -5.42044,-3.26905 -16.8927,-3.84661 -12.18895,-0.61364 -47.77058,5.94826 -56.70218,10.45692 -9.50816,4.7997 -7.45006,6.85805 4.53488,4.5354 13.85745,-2.68553 44.0403,-4.797 53.1673,-3.71936 8.21035,0.9694 10.34493,1.47001 14.25139,3.3423 2.05903,0.98685 2.11814,1.22628 0.69186,2.8023 -1.38927,1.53514 -1.39866,2.10824 -0.086,5.24979 1.63214,3.90628 4.17598,5.68751 8.1225,5.68751 3.33351,0 7.52029,-4.15018 7.52029,-7.45455 0,-3.65902 1.65073,-3.13378 3,0.95455 0.63531,1.925 1.57021,3.5 2.07755,3.5 1.22928,0 1.19115,-0.26941 -0.74017,-5.22976 -2.08758,-5.36169 -2.01382,-5.28366 -3.68415,-3.89741 -1.08425,0.89985 -2.29202,0.64837 -5.42049,-1.12863 l -4.02539,-2.28646 8.62001,-6.12017 8.62002,-6.12016 1.76158,5.64129 c 1.54093,4.93467 1.76343,10.06241 1.77631,40.93661 l 0.0147,35.29532 -3.75,-0.628 c -5.89212,-0.98673 -16.27707,-4.49415 -21.75,-7.34587 -6.71703,-3.49997 -6.5,-3.42603 -6.5,-2.21449 0,2.3999 18.6726,10.06035 28.25,11.58959 l 3.75,0.59877 0,30.95468 0,30.95469 -57.5,0 -57.5,0 0,-22.5 0,-22.5 15,0 c 9.33333,0 15,-0.37778 15,-1 0,-0.62235 -5.68123,-1 -15.04369,-1 l -15.04368,0 0.295,-49.75 c 0.16225,-27.3625 0.6714,-50.51496 1.13145,-51.44991 0.65979,-1.34089 0.12445,-1.9974 -2.53477,-3.1085 -1.85418,-0.77472 -6.4357,-4.8326 -10.18117,-9.0175 -6.55106,-7.31966 -6.78477,-7.75794 -6.14767,-11.52888 0.8548,-5.059564 -0.87763,-11.602096 -4.40758,-16.64521 -1.5399,-2.2 -3.7435,-5.861961 -4.89688,-8.137692 -1.22378,-2.414617 -4.28234,-5.741828 -7.34465,-7.989771 l -5.24758,-3.852079 2.71061,-0.953271 C 225.78023,59.042888 227,58.250785 227,57.806958 c 0,-1.078011 -1.31772,-1.016859 -4.5473,0.211026 -2.46896,0.938695 -3.40347,0.405057 -11.9979,-6.851222 -6.43478,-5.43289 -10.72369,-8.262107 -13.85298,-9.138255 C 192.16617,40.786602 189,41.099359 189,42.77942 c 0,0.463204 4.70273,5.042578 10.45052,10.176386 11.8118,10.550066 11.65811,9.234123 1.79948,15.407833 -3.28705,2.058431 -4.25,2.318745 -4.25,1.148906 0,-2.793075 -1.49991,-1.546772 -2.6814,2.228031 -0.64393,2.057316 -1.01273,3.898626 -0.81956,4.0918 0.32748,0.327482 7.42972,-1.854602 8.472,-2.60293 0.25907,-0.186005 -0.0989,-0.690407 -0.7954,-1.120892 -0.88337,-0.545958 0.0328,-1.663767 3.02896,-3.695627 7.19423,-4.878772 6.78568,-4.982195 15.4942,3.922262 8.07933,8.261103 10.23863,12.285524 10.34509,19.280831 0.0241,1.586189 0.6363,4.542918 1.36034,6.570508 1.29249,3.619432 1.26367,3.708392 -1.58372,4.887822 -5.4854,2.27212 -7.72791,8.95823 -4.07051,12.13635 2.45488,2.13319 7.17666,3.09506 8.75663,1.7838 2.07919,-1.72558 2.85409,0.65242 1.0513,3.22625 -1.73578,2.47818 -1.98207,3.77925 -0.7154,3.77925 0.46339,0 1.67214,-1.54049 2.6861,-3.4233 1.36738,-2.53908 1.56064,-3.76598 0.74822,-4.75 -0.80985,-0.98091 -0.6506,-2.18458 0.61099,-4.61811 l 1.70635,-3.2914 5.47632,4.7914 c 3.01197,2.63528 6.81578,5.84449 8.4529,7.13159 l 2.97659,2.34018 0.281,73.40982 0.281,73.40982 -45.031,0 -45.031,0 0,-22.5 0,-22.5 15,0 c 9.33333,0 15,-0.37778 15,-1 0,-0.62222 -5.66667,-1 -15,-1 l -15,0 0,-48.46104 c 0,-48.42057 0.002,-48.46274 2.16735,-50.48024 l 2.16735,-2.01919 -2.56269,-2.37502 c -1.66898,-1.54676 -3.47499,-5.36602 -5.17874,-10.95173 -4.23721,-13.891641 -4.26433,-14.328195 -0.94165,-15.157538 4.29097,-1.07103 9.11791,-5.183167 11.44998,-9.75439 3.1808,-6.23488 2.00662,-10.694482 -7.83188,-29.745965 C 159.83288,38.654028 158.13027,36.077128 154.18423,33.25 151.68928,31.4625 149.26304,30 148.79259,30 c -2.30579,0 -1.769,3.504956 1.16183,7.586065 4.16454,5.799013 16.32644,36.158753 15.61711,38.984959 -0.36477,1.453358 -2.5896,2.986629 -7.1398,4.920491 -3.63545,1.545088 -6.85042,3.436006 -7.14438,4.20204 -0.4388,1.143498 -0.8663,1.092475 -2.38846,-0.285062 -1.38174,-1.250453 -2.93339,-1.533076 -6.09136,-1.109503 -5.28493,0.708858 -7.15407,2.987801 -6.3162,7.70101 0.34221,1.925 0.66457,4.671659 0.71636,6.103686 0.0741,2.048254 0.86192,2.878364 3.69323,3.891324 1.97949,0.7082 4.16158,1.49719 4.84908,1.7533 0.6875,0.25612 1.25,0.002 1.25,-0.56377 0,-0.56619 -1.6875,-1.59684 -3.75,-2.29033 l -3.75,-1.260888 3.96688,-0.846095 c 2.18178,-0.465352 4.91822,-1.739833 6.08097,-2.832179 2.02588,-1.903216 2.18153,-1.911558 3.73052,-0.199945 0.88904,0.982376 3.7776,6.951857 6.41903,13.265517 L 164.5,120.5 l 0.28638,74.25 0.28638,74.25 -31.03638,0 -31.03638,0 0,-22.5 0,-22.5 15,0 c 9.33333,0 15,-0.37778 15,-1 0,-0.62222 -5.66667,-1 -15,-1 l -15,0 0.0203,-47.75 0.0203,-47.75 9.4594,17.5 c 5.20267,9.625 9.46853,18.02417 9.4797,18.66483 0.0288,1.655 9.77331,8.60585 11.00096,7.84712 1.58387,-0.97888 1.27551,-1.9901 -2.50413,-8.21187 -1.93791,-3.19004 -4.47541,-8.89903 -5.63888,-12.68665 -1.91562,-6.23615 -10.35446,-26.12443 -13.91108,-32.785 -0.78461,-1.46936 -4.54787,-6.13984 -8.36279,-10.37883 -6.807996,-7.564796 -11.994378,-10.989066 -14.93492,-9.860675 -1.109332,0.425691 -1.343799,0.037 -0.930667,-1.542816 0.811264,-3.102276 -2.246279,-5.855795 -7.352644,-6.621541 -5.775042,-0.866021 -8.383981,1.227238 -8.175054,6.559183 0.07967,2.033336 -0.17193,4.209554 -0.559121,4.836042 C 69.728701,101.24799 71.97787,109 73.274919,109 c 0.527089,0 0.677342,-1.0125 0.333896,-2.25 -2.11558,-7.622823 -2.148358,-7.241319 0.464893,-5.41093 1.304218,0.91351 3.87094,1.66093 5.703827,1.66093 3.071056,0 3.520174,0.42431 5.724224,5.40806 2.609224,5.89992 3.093955,6.36474 8.984542,8.61557 3.483407,1.33102 4.076633,2.02627 4.692946,5.5 0.388022,2.187 0.731427,36.03887 0.763123,75.22637 L 100,269 l -36,0 -36,0 0,-22.5 0,-22.5 14,0 c 8.666667,0 14,-0.38095 14,-1 0,-0.61905 -5.333333,-1 -14,-1 l -14,0 0.01531,-48.25 c 0.0084,-26.5375 0.400697,-48.85816 0.871722,-49.60146 0.879323,-1.38762 3.322655,1.26205 7.70111,8.35146 1.019049,1.65 4.685205,6.89745 8.147013,11.661 5.471067,7.52835 6.906197,8.86953 10.973963,10.25555 6.771613,2.30733 7.716536,0.64202 2.650234,-4.67069 C 56.07243,147.3477 50.460291,138.32768 45.463158,129.01866 33.516748,106.764 34.204139,108.32364 31.482483,97.297418 29.779527,90.398246 28.414917,86.969907 26.869468,85.708041 l -2.19467,-1.791959 2.162601,-1.514745 c 3.01389,-2.111011 3.17919,-11.786908 0.228342,-13.366153 -2.539485,-1.359092 -8.765867,-1.329408 -9.615818,0.04584 -0.367462,0.594565 -1.658299,0.832506 -2.868528,0.528758 -1.832307,-0.45988 -2.423216,0.07026 -3.53223,3.168973 C 10.316667,74.825441 9.5078018,77.0625 9.2516865,77.75 8.9955713,78.4375 9.2492689,79 9.8154591,79 10.381649,79 11.415368,77.3125 12.112612,75.25 l 1.267715,-3.75 0.844182,4.126095 c 0.464301,2.269352 1.688607,4.890289 2.720682,5.824304 1.746339,1.580415 1.766707,1.88951 0.293641,4.456181 -1.496636,2.607738 -1.408751,3.278043 1.613372,12.305293 1.757927,5.251027 3.701105,12.639007 4.318174,16.417727 0.728994,4.46412 1.256645,32.68855 1.506546,80.58626 l 0.384604,73.71585 -10.780764,0.32176 C 8.3513438,269.43044 163.25,269.56737 358.5,269.55775 c 195.25,-0.01 344.95993,-0.14773 332.68874,-0.30691 z M 432,246.5 l 0,-22.5 34.10841,0 34.10841,0 -0.69257,2.75 C 498.84996,229.4274 491,268.04003 491,268.67933 491,268.8557 477.725,269 461.5,269 l -29.5,0 0,-22.5 z m 110,0 0,-22.5 34.10841,0 34.10841,0 -0.69257,2.75 C 608.84996,229.4274 601,268.04003 601,268.67933 601,268.8557 587.725,269 571.5,269 l -29.5,0 0,-22.5 z m -163,-32 0,-7.5 5.36414,0 5.36414,0 1.73365,4.53949 c 0.95351,2.49672 2.85465,5.87172 4.22475,7.5 l 2.49111,2.96051 -9.5889,0 -9.58889,0 0,-7.5 z m 0,-20 c 0,-5.775 0.16927,-10.5 0.37616,-10.5 C 379.77727,184 388,203.48618 388,204.43673 388,204.74653 385.975,205 383.5,205 l -4.5,0 0,-10.5 z m 0.0634,-45.55 c 0.0596,-3.24171 0.12177,-3.30393 1.03048,-1.03048 0.64038,1.60213 0.61897,2.76764 -0.0634,3.45 -0.70731,0.70731 -1.0106,-0.0515 -0.96709,-2.41952 z M 589,173.42857 c 0,-0.31428 -0.675,-1.24643 -1.5,-2.07143 -0.825,-0.825 -1.5,-2.36785 -1.5,-3.42857 C 586,166.86786 585.55,166 585,166 c -0.55,0 -1,0.6979 -1,1.55089 0,1.19244 -0.79726,0.94279 -3.44942,-1.08011 -2.3132,-1.76436 -4.20554,-4.58098 -5.74491,-8.55089 C 573.54315,154.66395 572.17039,152 571.75509,152 c -2.56293,0 3.23593,12.06148 7.36173,15.31221 1.86075,1.46609 2.78318,2.6706 2.04985,2.6767 -2.44938,0.0204 -0.54139,2.50249 2.41583,3.14278 4.08566,0.8846 5.4175,0.95759 5.4175,0.29688 z m 10.41712,-2.07319 c 0.34885,-0.90909 -0.0804,-2.43077 -0.95969,-3.40242 -1.10404,-1.21995 -2.06537,-6.13275 -3.14177,-16.0557 l -1.55098,-14.29789 2.86766,-2.32179 c 1.57721,-1.27698 5.34266,-3.51451 8.36766,-4.97229 9.99834,-4.8183 38.00441,-25.68155 43.0012,-32.033947 2.74161,-3.48539 2.25283,-7.286942 -1.18379,-9.207156 -3.07128,-1.716074 -4.60861,-1.136642 -15.07848,5.683187 -3.16859,2.063944 -10.07221,6.414916 -15.34138,9.668826 -5.26917,3.25391 -11.37682,7.64228 -13.57254,9.75193 -2.19573,2.10966 -5.19211,4.09206 -6.65862,4.40534 -1.46652,0.31328 -4.91639,1.04654 -7.66639,1.62947 -2.75,0.58293 -9.5,2.87788 -15,5.09989 -8.0085,3.23545 -11.09386,5.10191 -15.49266,9.37212 -4.51771,4.38565 -5.30378,5.63154 -4.42856,7.01906 1.83084,2.90248 3.36761,2.6159 6.95094,-1.29619 2.84084,-3.10146 3.47028,-3.43081 3.47028,-1.81574 0,6.37255 6.38694,8.17348 13.85207,3.90587 2.39364,-1.36837 4.7255,-2.48795 5.18191,-2.48795 2.17671,0 5.14827,6.67896 6.96746,15.66024 1.09619,5.41187 2.73766,11.52726 3.64769,13.58976 1.74605,3.95721 4.65055,5.01739 5.76799,2.10538 z M 495,137.27541 c 6.64905,-2.67951 16.38602,-10.76556 17.61095,-14.62498 0.47501,-1.49664 0.79029,-1.61924 1.444,-0.56152 0.45997,0.74424 1.03436,1.1412 1.27644,0.88213 0.90905,-0.97289 1.80943,-8.96972 1.00651,-8.93944 -1.71098,0.0645 -6.83794,5.30172 -5.59555,5.71585 0.94289,0.3143 0.97451,0.93589 0.13143,2.58322 -4.41567,8.62788 -18.26658,15.93217 -30.37378,16.01765 -3.85,0.0272 -8.28154,-0.2847 -9.84787,-0.69307 -2.12103,-0.55298 -2.73927,-0.41232 -2.42235,0.55113 1.14549,3.48233 17.2047,2.92385 26.77022,-0.93097 z M 586,83 c 0,-3.85 -0.24083,-7 -0.53518,-7 C 583.95432,76 580,79.428002 580,80.737455 c 0,1.226559 0.27949,1.275478 1.5,0.262545 1.30013,-1.079013 1.5,-0.562346 1.5,3.877555 C 583,88.764173 583.36189,90 584.5,90 c 1.19048,0 1.5,-1.444444 1.5,-7 z m 12.06739,5.418799 c 1.03322,-1.244954 1.05746,-1.98924 0.11397,-3.5 -0.93108,-1.490896 -0.93108,-2.346702 0,-3.837598 0.94349,-1.51076 0.91925,-2.255046 -0.11397,-3.5 -3.03439,-3.656218 -9.7061,-0.434839 -7.24875,3.5 0.93108,1.490896 0.93108,2.346702 0,3.837598 C 589.29252,87.362509 591.20339,90 594.5,90 c 1.24031,0 2.84564,-0.711541 3.56739,-1.581201 z m -4.89071,-1.97162 c 0.45227,-2.172113 2.22702,-2.305022 2.63295,-0.197179 0.2108,1.094603 -0.27967,1.75 -1.30963,1.75 -0.96073,0 -1.51197,-0.646837 -1.32332,-1.552821 z m 0.4628,-5.141032 C 592.44432,80.110991 592.99377,78 594.5,78 c 0.825,0 1.5,0.648442 1.5,1.440983 0,1.670644 -1.42728,2.798406 -2.36052,1.865164 z m 14.78909,7.122424 C 611.74955,85.107589 609.60351,76 605.5,76 c -2.5132,0 -4.5,3.090577 -4.5,7 0,3.909423 1.9868,7 4.5,7 0.74643,0 2.06429,-0.707143 2.92857,-1.571429 z m -3.96625,-1.666157 C 603.58219,84.46881 604.33181,78.5 605.5,78.5 c 1.37131,0 1.88464,7.515359 0.601,8.798996 -0.71391,0.713919 -1.22275,0.547301 -1.63868,-0.536582 z M 617.5,79 c 0,-1.832728 -0.60174,-2.585447 -2.25447,-2.820137 -2.45711,-0.348911 -3.85266,1.795603 -2.85699,4.390274 0.3614,0.941801 1.50471,1.442025 2.85699,1.25 C 616.89826,81.585447 617.5,80.832728 617.5,79 z m -3.5,0 c 0,-0.55 0.45,-1 1,-1 0.55,0 1,0.45 1,1 0,0.55 -0.45,1 -1,1 -0.55,0 -1,-0.45 -1,-1 z"
       id="path2995"
       style="fill:#bfbfbf" />
    <path
       d="m 370.5,206.26768 c -7.51067,-1.08317 -26.5,-9.16766 -26.5,-11.28208 0,-1.36007 0.1634,-1.31239 5.25557,1.53368 12.0808,6.75209 30.88096,10.1829 41.40186,7.55536 7.73282,-1.93122 16.60241,-6.2148 15.38636,-7.43085 C 405.4697,196.0697 405,195.29342 405,194.91871 c 0,-0.90653 9.08438,-3.16766 9.81025,-2.4418 0.85612,0.85613 -3.61601,9.52309 -4.91388,9.52309 -0.63004,0 -0.9027,-0.86779 -0.61652,-1.96214 0.46242,-1.76829 -0.0941,-1.65476 -5.63337,1.14916 -3.38056,1.71122 -8.39648,3.71384 -11.14648,4.45027 -4.738,1.26881 -15.44575,1.57563 -22,0.63039 z m 213.0825,-33.13599 c -2.95722,-0.64029 -4.86521,-3.12241 -2.41583,-3.14278 0.73333,-0.006 -0.1891,-1.21061 -2.04985,-2.6767 C 574.99102,164.06148 569.19216,152 571.75509,152 c 0.4153,0 1.78806,2.66395 3.05058,5.91989 1.53937,3.96991 3.43171,6.78653 5.74491,8.55089 2.65216,2.0229 3.44942,2.27255 3.44942,1.08011 0,-0.85299 0.45,-1.55089 1,-1.55089 0.55,0 1,0.86786 1,1.92857 0,1.06072 0.675,2.60357 1.5,3.42857 2.70651,2.70651 1.95633,3.04632 -3.9175,1.77455 z M 473.07765,140.14047 c -2.43229,-0.35226 -4.61383,-1.2226 -4.84787,-1.93409 -0.31692,-0.96345 0.30132,-1.10411 2.42235,-0.55113 1.56633,0.40837 5.99787,0.72025 9.84787,0.69307 12.1072,-0.0855 25.95811,-7.38977 30.37378,-16.01765 0.84308,-1.64733 0.81146,-2.26892 -0.13143,-2.58322 -1.24239,-0.41413 3.88457,-5.65132 5.59555,-5.71585 0.80292,-0.0303 -0.0975,7.96655 -1.00651,8.93944 -0.24208,0.25907 -0.81647,-0.13789 -1.27644,-0.88213 -0.65371,-1.05772 -0.96899,-0.93512 -1.444,0.56152 -0.33423,1.05307 -2.97093,4.18512 -5.85932,6.96011 -8.53571,8.20056 -21.58417,12.28085 -33.67398,10.52993 z M 193.52161,74.25 c 0.40457,-0.9625 0.95517,-2.7625 1.22356,-4 C 195.28932,67.741033 197,67.165013 197,69.490756 c 0,1.090957 1.36006,0.621632 5.07132,-1.75 7.56571,-4.834771 12.84336,-7.441986 18.58259,-9.179997 C 226.65648,56.743 227,56.706777 227,57.891592 c 0,0.490376 -1.2375,1.199266 -2.75,1.575312 -9.90197,2.461879 -25.5841,11.09054 -23.02781,12.670415 1.47862,0.913841 1.24644,1.100433 -3.29319,2.6465 -4.72267,1.608407 -5.2795,1.540965 -4.40739,-0.533819 z"
       id="path2993"
       style="fill:#fe0000" />
    <path
       d="m 379,164.214 c 0,-7.30861 0.39407,-11.33951 1.15451,-11.80949 0.73036,-0.45139 0.88242,-0.27329 0.41391,0.48479 -1.06087,1.71652 1.27136,4.1107 4.00433,4.1107 1.28033,0 2.80355,-0.7875 3.38494,-1.75 0.79099,-1.30951 0.91847,-0.36559 0.50643,3.75 -1.36629,13.64722 -1.41399,13.82587 -3.54245,13.26926 -1.13477,-0.29674 -2.83139,0.24405 -3.95455,1.2605 C 379.02219,175.28989 379,175.18481 379,164.214 z m 302.45621,-15.53243 c -0.35973,-1.4333 -0.14817,-6.4075 0.47013,-11.05377 0.77321,-5.8103 0.81172,-9.80275 0.12337,-12.78778 -1.43945,-6.24214 -1.28744,-6.74219 0.93933,-3.09002 2.31906,3.80354 2.89273,3.91744 6.28618,1.24815 l 2.54493,-2.00184 0.71487,8.58192 c 0.99421,11.93527 -0.66755,22.25242 -2.98117,18.5089 -1.11304,-1.80094 -4.34275,-1.22661 -5.94201,1.05665 l -1.50156,2.14379 -0.65407,-2.606 z m -99.91863,-12.93738 c -0.78212,-1.87187 -2.14235,-4.00122 -3.02275,-4.73188 -1.43668,-1.19234 -1.26725,-1.67254 1.65338,-4.68585 3.02525,-3.12127 7.74674,-5.11286 16.23408,-6.84775 1.59626,-0.32629 4.07126,-1.84465 5.5,-3.37412 l 2.59771,-2.78085 0,3.08813 c 0,2.24336 0.6155,3.35816 2.25,4.07526 1.2375,0.54292 2.25,1.53306 2.25,2.20031 0,0.66725 0.78692,1.65356 1.7487,2.1918 1.47616,0.8261 1.0011,1.29908 -3.04821,3.03482 -2.6383,1.13091 -6.85594,3.47284 -9.37253,5.20431 -2.51659,1.73146 -5.9824,3.46868 -7.70179,3.86048 -1.71939,0.39181 -4.14776,1.04006 -5.39636,1.44056 -1.92706,0.61812 -2.48513,0.21377 -3.69223,-2.67522 z M 341,134 c -1.375,-0.44035 -4.3757,-0.8455 -6.66821,-0.90032 -5.8086,-0.13891 -7.6942,-0.95808 -6.23964,-2.71072 0.62876,-0.75761 0.92765,-2.50505 0.6642,-3.88321 C 328.28002,124.01398 328.31863,124 335.67851,124 c 5.49266,0 8.43941,0.52967 11.42746,2.05406 l 4.02629,2.05406 -2.56613,2.01852 C 347.15476,131.23683 346,132.7875 346,133.57258 c 0,1.55658 -1.16361,1.65605 -5,0.42742 z M 463,121.26867 C 459.31939,120.83618 456.29625,119 459.26482,119 c 0.91565,0 2.16651,-0.93743 2.7797,-2.08319 0.89542,-1.6731 0.75471,-2.48832 -0.71482,-4.14127 -1.81444,-2.04093 -1.80052,-2.05319 1.6703,-1.46969 1.925,0.32362 6.03357,0.88231 9.13016,1.24153 4.92543,0.57137 5.56691,0.89503 5.12477,2.58575 -0.27796,1.06295 0.23877,2.75492 1.14829,3.75993 1.57463,1.73994 1.43053,1.85788 -3.01434,2.46712 -4.74428,0.65027 -6.16529,0.63978 -12.38888,-0.0915 z M 27.61912,108.2924 C 25.760886,86.499074 25.728192,85.47679 26.925331,86.598854 c 0.644807,0.60437 2.232628,5.32937 3.52849,10.5 1.295862,5.170626 2.606951,10.076146 2.91353,10.901146 0.310999,0.83689 -0.689495,2.95548 -2.263192,4.7924 l -2.820611,3.29241 -0.664428,-7.79241 z m 70.648393,4.342 c -4.839226,-2.89883 -5.233803,-3.42118 -5.25,-6.95014 -0.0096,-2.09866 -0.483346,-4.68616 -1.052697,-5.750001 -0.773738,-1.445743 -0.710598,-1.935462 0.25,-1.939023 1.097582,-0.0041 17.142254,16.084664 16.510294,16.555644 -0.12381,0.0923 -1.35011,0.40405 -2.72511,0.69285 -1.70472,0.35804 -4.16451,-0.47201 -7.732487,-2.60933 z M 18.601269,94.661226 c -2.230748,-7.622416 -1.52191,-9.717764 0.795271,-2.350845 0.979081,3.112755 1.585148,6.228819 1.346816,6.924587 -0.238333,0.695768 -1.202272,-1.362416 -2.142087,-4.573742 z m 222.281801,3.372192 c -0.22093,-1.422562 -1.57095,-3.115626 -3.18953,-4 -2.56739,-1.4028 -2.91654,-1.385676 -4.09887,0.201038 -1.65131,2.216091 -2.59177,1.259165 -2.60549,-2.651123 -0.006,-1.695833 -0.66725,-5.246807 -1.46954,-7.891053 -1.38218,-4.555466 -1.36279,-4.777273 0.36964,-4.227422 2.48347,0.788224 4.45433,-1.787625 3.57076,-4.66687 -0.38786,-1.263894 1.1424,0.447435 3.40058,3.802953 4.77152,7.090181 6.91579,14.62062 5.40802,18.99234 -0.99643,2.889109 -1.00482,2.891769 -1.38557,0.440137 z m -82.53532,-7.625436 c -0.89886,-1.371832 -2.72891,-3.067771 -4.06678,-3.768753 -2.36099,-1.237047 -2.2245,-1.366385 4.64327,-4.399809 C 162.81591,80.520507 166,78.568701 166,77.902074 c 0,-0.787926 0.63992,-0.632932 1.82874,0.442938 2.65925,2.406592 4.90147,2.034542 6.59929,-1.095012 1.42732,-2.630972 1.49363,-2.650889 1.53193,-0.460162 0.10199,5.832841 -5.64211,12.610862 -12.71894,15.008321 -2.97093,1.006478 -3.40343,0.883605 -4.89327,-1.390177 z"
       id="path2991"
       style="fill:#0000fe" />
    <path
       d="m 14.280764,269.25347 10.780764,-0.32176 -0.384604,-73.71585 C 24.427023,147.31815 23.899372,119.09372 23.170378,114.6296 22.553309,110.85088 20.610131,103.4629 18.852204,98.211873 15.830081,89.184623 15.742196,88.514318 17.238832,85.90658 18.711898,83.339909 18.69153,83.030814 16.945191,81.450399 15.913116,80.516384 14.68881,77.895447 14.224509,75.626095 L 13.380327,71.5 12.112612,75.25 C 11.415368,77.3125 10.381649,79 9.8154591,79 9.2492689,79 8.9955713,78.4375 9.2516865,77.75 c 0.2561153,-0.6875 1.0649805,-2.924559 1.7974785,-4.971242 1.109014,-3.098713 1.699923,-3.628853 3.53223,-3.168973 1.210229,0.303748 2.501066,0.06581 2.868528,-0.528758 0.849951,-1.375251 7.076333,-1.404935 9.615818,-0.04584 2.950848,1.579245 2.785548,11.255142 -0.228342,13.366153 l -2.162601,1.514745 2.19467,1.791959 c 1.545449,1.261866 2.910059,4.690205 4.613015,11.589377 2.721656,11.026219 2.034265,9.466579 13.980675,31.721239 4.997133,9.30902 10.609272,18.32904 12.896197,20.7272 5.061605,5.30778 4.121791,6.97816 -2.631501,4.67708 -3.835645,-1.30694 -5.530217,-2.76885 -9.569382,-8.25556 -7.27119,-9.87701 -16.201845,-23.31222 -15.004003,-22.57191 0.574855,0.35528 2.751635,3.28616 4.837288,6.51307 2.085654,3.22691 6.371217,9.4492 9.523475,13.8273 4.873558,6.76878 6.411824,8.19204 10.277655,9.50926 2.500453,0.85199 4.7794,1.31595 5.064327,1.03102 0.284928,-0.28493 -1.299166,-2.42112 -3.520208,-4.74709 C 55.011006,147.29315 49.381911,138.18584 44.061127,128.25 38.980436,118.7625 34.443861,111 33.979848,111 c -0.464013,0 -1.823901,1.37662 -3.021975,3.05916 -2.073825,2.91242 -2.092555,3.12187 -0.390474,4.36646 1.701105,1.24388 1.682195,1.44161 -0.389779,4.0757 C 28.008969,125.25831 28,125.46893 28,173.63486 L 28,222 l 14,0 c 8.666667,0 14,0.38095 14,1 0,0.61905 -5.333333,1 -14,1 l -14,0 0,22.5 0,22.5 36,0 36,0 -0.05763,-71.25 c -0.0317,-39.1875 -0.375101,-73.03937 -0.763123,-75.22637 -0.616313,-3.47373 -1.209539,-4.16898 -4.692946,-5.5 -2.193099,-0.838 -4.586936,-1.9107 -5.319637,-2.3838 -1.567596,-1.01216 -5.374467,-9.49458 -4.729488,-10.53818 0.243951,-0.39472 -1.442116,-0.82773 -3.746815,-0.96226 -2.304698,-0.13452 -5.264362,-0.94658 -6.57703,-1.80459 -2.622631,-1.714236 -2.587579,-2.090459 -0.504516,5.4152 0.343446,1.2375 0.193193,2.25 -0.333896,2.25 -1.297049,0 -3.546218,-7.75201 -2.663545,-9.180207 0.387191,-0.626488 0.638795,-2.802706 0.559121,-4.836042 -0.208927,-5.331945 2.400012,-7.425204 8.175054,-6.559183 5.106365,0.765746 8.163908,3.519265 7.352644,6.621541 -0.413132,1.579818 -0.178665,1.968507 0.930667,1.542816 2.940542,-1.128391 8.126924,2.295879 14.93492,9.860675 3.81492,4.23899 7.57818,8.90947 8.36279,10.37883 3.55662,6.66057 11.99546,26.54885 13.91108,32.785 1.16347,3.78762 3.70097,9.49661 5.63888,12.68665 3.77964,6.22177 4.088,7.23299 2.50413,8.21187 -1.22765,0.75873 -10.97212,-6.19212 -11.00096,-7.84712 C 121.96853,162.02417 117.70267,153.625 112.5,144 l -9.4594,-17.5 -0.0203,47.75 L 103,222 l 15,0 c 9.33333,0 15,0.37778 15,1 0,0.62222 -5.66667,1 -15,1 l -15,0 0,22.5 0,22.5 31.03638,0 31.03638,0 -0.28638,-74.25 L 164.5,120.5 159.6974,109.02062 c -2.64143,-6.31366 -5.52999,-12.283141 -6.41903,-13.265517 -1.54899,-1.711613 -1.70464,-1.703271 -3.73052,0.199945 -1.16275,1.092346 -3.89919,2.366827 -6.08097,2.832179 l -3.96688,0.846095 3.75,1.260888 c 2.0625,0.69349 3.75,1.72414 3.75,2.29033 0,0.56619 -0.5625,0.81989 -1.25,0.56377 -0.6875,-0.25611 -2.86959,-1.0451 -4.84908,-1.7533 -2.83131,-1.01296 -3.61916,-1.84307 -3.69323,-3.891324 C 137.1559,96.671659 136.83354,93.925 136.49133,92 c -0.83787,-4.713209 1.03127,-6.992152 6.3162,-7.70101 3.15797,-0.423573 4.70962,-0.14095 6.09136,1.109503 1.52216,1.377537 1.94966,1.42856 2.38846,0.285062 0.29396,-0.766034 3.50893,-2.656952 7.14438,-4.20204 4.5502,-1.933862 6.77503,-3.467133 7.1398,-4.920491 C 166.28086,73.744818 154.11896,43.385078 149.95442,37.586065 147.02359,33.504956 146.4868,30 148.79259,30 c 0.47045,0 2.89669,1.4625 5.39164,3.25 3.94604,2.827128 5.64865,5.404028 13.08549,19.804887 9.8385,19.051483 11.01268,23.511085 7.83188,29.745965 -2.33207,4.571223 -7.15901,8.68336 -11.44998,9.75439 -3.32268,0.829343 -3.29556,1.265897 0.94165,15.157538 1.70375,5.58571 3.50976,9.40497 5.17874,10.95173 l 2.56269,2.37502 -2.16735,2.01919 C 168.00181,125.07622 168,125.11839 168,173.53896 L 168,222 l 15,0 c 9.33333,0 15,0.37778 15,1 0,0.62222 -5.66667,1 -15,1 l -15,0 0,22.5 0,22.5 45.031,0 45.031,0 -0.281,-73.40982 -0.281,-73.40982 -2.97659,-2.34018 c -1.63712,-1.2871 -5.44093,-4.49631 -8.4529,-7.13159 l -5.47632,-4.7914 -1.70635,3.2914 c -1.26159,2.43353 -1.42084,3.6372 -0.61099,4.61811 0.81242,0.98402 0.61916,2.21092 -0.74822,4.75 -1.01396,1.88281 -2.22271,3.4233 -2.6861,3.4233 -1.26667,0 -1.02038,-1.30107 0.7154,-3.77925 1.80279,-2.57383 1.02789,-4.95183 -1.0513,-3.22625 -1.57997,1.31126 -6.30175,0.34939 -8.75663,-1.7838 -3.6574,-3.17812 -1.41489,-9.86423 4.07051,-12.13635 2.84739,-1.17943 2.87621,-1.26839 1.58372,-4.887822 -0.72404,-2.02759 -1.3362,-4.984319 -1.36034,-6.570508 -0.10567,-6.942988 -2.29008,-11.042654 -10.45191,-19.615909 L 211.5,63.500223 l 8,7.524672 c 5.61671,5.282986 8.74478,7.517288 10.5,7.499888 2.33717,-0.02317 2.4807,-0.317868 2.20368,-4.524783 -0.24159,-3.668691 -0.87873,-4.961838 -3.44896,-7 -6.49265,-5.148594 -8.04331,-6.996043 -2.43808,-2.904721 3.55165,2.592393 6.62167,5.8342 7.88403,8.325177 1.13707,2.243749 3.32732,5.879544 4.86722,8.079544 3.52995,5.043114 5.26238,11.585646 4.40758,16.64521 -0.6371,3.77094 -0.40339,4.20922 6.14767,11.52888 3.74547,4.1849 8.32699,8.24278 10.18117,9.0175 2.65922,1.1111 3.19456,1.76761 2.53477,3.1085 -0.46005,0.93495 -0.9692,24.08741 -1.13145,51.44991 l -0.295,49.75 15.04368,0 c 9.36246,0 15.04369,0.37765 15.04369,1 0,0.62222 -5.66667,1 -15,1 l -15,0 0,22.5 0,22.5 57.5,0 57.5,0 0,-31 c 0,-26.88889 0.19892,-31 1.5,-31 1.2,0 1.5,1.5 1.5,7.5 l 0,7.5 9.67431,0 9.67432,0 -2.12324,-2.26009 C 394.15545,217.53657 388.52973,206 389.52522,206 c 0.275,0 1.64231,2.58296 3.03846,5.73991 3.1013,7.01259 6.01079,10.26009 9.19219,10.26009 l 2.40725,0 -1.99878,-3.25 c -2.41009,-3.91877 -6.30947,-13.95773 -5.14104,-13.2356 0.45693,0.2824 1.36355,2.19469 2.01471,4.24953 0.65116,2.05484 2.27796,5.64857 3.61511,7.98607 l 2.43119,4.25 6.95784,0 c 3.9719,0 6.95785,0.42915 6.95785,1 0,1.03842 -6.38663,1.27037 -27.75,1.00783 l -12.25,-0.15054 0,22.57135 0,22.57136 25,0 25,0 0,-70.67126 c 0,-62.78341 -0.17504,-70.86468 -1.5683,-72.40421 -2.36681,-2.6153 0.0417,-6.02191 4.06791,-5.75364 1.65022,0.10995 6.25995,-1.04673 10.24386,-2.57042 C 448.72083,114.93192 451.64803,113 448.714,113 c -0.77221,0 -2.2574,-0.94296 -3.30041,-2.09548 l -1.89638,-2.09547 -0.53619,2.27133 c -0.2949,1.24924 -1.1059,2.46125 -1.80222,2.69335 -1.57697,0.52566 -0.53775,-4.52099 1.39486,-6.77373 4.58699,-5.34682 6.58446,-7 8.45781,-7 3.01032,0 7.96853,5.27776 7.96853,8.48209 0,1.44977 0.39273,2.39322 0.87274,2.09656 0.48001,-0.29666 4.70161,-0.0451 9.38134,0.55897 8.38362,1.08221 8.69765,1.04329 21.37726,-2.64979 21.00885,-6.11906 27.21658,-8.23072 30.9142,-10.515977 3.4001,-2.101373 6.45446,-2.104268 6.45446,-0.0061 0,2.343867 -7.26181,8.860317 -11.74026,10.535217 -2.61786,0.97906 -5.20974,2.12703 -5.75974,2.55104 -0.55,0.42401 -3.3625,1.71077 -6.25,2.85947 -2.8875,1.1487 -7.60858,3.02796 -10.49129,4.17615 -11.50515,4.5825 -31.70657,5.90244 -35.78725,2.3383 -1.29026,-1.12693 -3.43377,-0.76962 -13.75,2.29204 L 432,126.34503 l 0,47.84061 0,47.84062 34.19967,-0.26313 34.19968,-0.26313 3.71638,-17.37987 c 2.26505,-10.59264 3.5028,-18.69597 3.16948,-20.75 C 506.7748,180.22481 506.92254,180 509.5,180 c 3.26935,0 3.5668,-2.82956 -2.99603,28.5 -2.53467,12.1 -6.18226,29.875 -8.10575,39.5 -1.92348,9.625 -3.73029,18.2875 -4.01512,19.25 -0.48246,1.63033 1.02788,1.75 22.08589,1.75 l 22.60377,0 -0.28638,-74.50026 c -0.28418,-73.92901 -0.27104,-74.50027 1.71362,-74.50044 1.9778,-1.8e-4 1.99666,0.56616 1.69918,51.01345 l -0.30082,51.01362 34.25049,-0.26318 34.2505,-0.26319 3.71638,-17.37987 c 2.26505,-10.59264 3.5028,-18.69597 3.16948,-20.75 C 616.7748,180.22481 616.92254,180 619.5,180 c 3.26935,0 3.5668,-2.82956 -2.99603,28.5 -2.53467,12.1 -6.18226,29.875 -8.10575,39.5 -1.92348,9.625 -3.73029,18.2875 -4.01512,19.25 -0.48539,1.64023 1.43091,1.75 30.54951,1.75 C 652.01968,269 666,268.8557 666,268.67933 c 0,-0.6393 7.84996,-39.25193 8.52425,-41.92933 l 0.69257,-2.75 -17.10841,0 C 647.64531,224 641,223.62075 641,223.02361 c 0,-0.58673 6.86417,-1.08558 17.20009,-1.25 L 675.40018,221.5 679.2251,203.61264 c 3.59407,-16.80778 3.72773,-18.03568 2.2147,-20.34485 -1.51112,-2.30628 -1.48189,-2.59408 0.475,-4.67709 1.68434,-1.7929 2.0852,-3.50484 2.0852,-8.90515 L 684,163 l -3.84501,0 c -5.17304,0 -7.6306,-2.68171 -6.85237,-7.47738 0.66884,-4.12157 -0.57592,-4.56133 -2.89458,-1.02262 -2.03887,3.11172 -3.77554,3.26368 -2.85715,0.25 1.03727,-3.40377 3.53698,-5.7933 5.86484,-5.60634 6.22924,0.50028 6.13339,0.63759 7.44767,-10.66888 0.67291,-5.78886 0.89946,-11.04947 0.50344,-11.69023 -0.39601,-0.64077 -0.61112,-13.65923 -0.47801,-28.929927 0.22721,-26.067313 0.37924,-28.119209 2.48661,-33.559763 3.61907,-9.343322 5.00369,-7.868123 5.82413,6.20514 0.38476,6.6 1.45384,20.775 2.37571,31.5 2.02919,23.60734 2.38503,44.0981 0.80035,46.08807 -1.72949,2.17182 -2.56808,7.43288 -3.01447,18.91193 -0.22458,5.775 -0.82578,11.4 -1.33601,12.5 -1.12679,2.42925 -5.23438,21.67845 -14.61724,68.5 -1.92882,9.625 -3.73722,18.27882 -4.01869,19.2307 -0.47268,1.59859 1.19142,1.7528 21.79952,2.02014 12.27119,0.15918 -137.43874,0.29729 -332.68874,0.30691 -195.25,0.01 -350.1486562,-0.12731 -344.219236,-0.30428 z M 491,268.67933 c 0,-0.6393 7.84996,-39.25193 8.52425,-41.92933 l 0.69257,-2.75 -34.10841,0 -34.10841,0 0,22.5 0,22.5 29.5,0 c 16.225,0 29.5,-0.1443 29.5,-0.32067 z m 110,0 c 0,-0.6393 7.84996,-39.25193 8.52425,-41.92933 l 0.69257,-2.75 -34.10841,0 -34.10841,0 0,22.5 0,22.5 29.5,0 c 16.225,0 29.5,-0.1443 29.5,-0.32067 z m 84,-88.82851 c 2.45318,-0.34425 2.51314,-0.56619 3.20181,-11.85082 0.386,-6.325 0.836,-13.3 1,-15.5 0.25799,-3.46079 0.004,-4.04188 -1.88415,-4.31068 -3.491,-0.49699 -4.48177,2.61701 -3.34161,10.50268 1.64327,11.3654 1.33009,17.72097 -0.97605,19.808 -1.1,0.99549 -1.99311,2.30273 -1.98469,2.90499 0.0104,0.74592 0.24954,0.72865 0.75,-0.0542 0.40408,-0.63206 1.85969,-1.30706 3.23469,-1.5 z M 133,169.05008 c 0,-0.52246 -1.58556,-3.55996 -3.52347,-6.75 -1.93791,-3.19004 -4.48941,-8.94513 -5.67,-12.78907 -1.18058,-3.84395 -4.77002,-12.8315 -7.97652,-19.97233 C 112.6235,122.39785 110,116.4304 110,116.27768 c 0,-1.18349 -5.19745,0.0733 -5.69805,1.37784 -1.73744,4.5277 -0.38237,8.51667 8.50793,25.04497 5.02877,9.34918 9.49267,17.94317 9.91978,19.09775 0.42711,1.15458 2.57516,3.45978 4.77345,5.12268 4.21733,3.19019 5.49689,3.68581 5.49689,2.12916 z m 550,-9.96829 c 0,-1.60502 -0.27822,-3.64324 -0.61827,-4.52939 -0.55548,-1.44757 -0.75534,-1.43049 -1.96819,0.16821 -0.74246,0.97866 -1.36424,3.01689 -1.38174,4.52939 -0.0242,2.09393 0.44534,2.75 1.9682,2.75 1.5431,0 2,-0.66667 2,-2.91821 z M 686.99769,147 c 1.03635,0 2.18662,0.48921 2.55616,1.08713 2.31362,3.74352 3.97538,-6.57363 2.98117,-18.5089 l -0.71487,-8.58192 -2.54493,2.00184 c -3.39345,2.66929 -3.96712,2.55539 -6.28618,-1.24815 -2.22677,-3.65217 -2.37878,-3.15212 -0.93933,3.09002 0.68835,2.98503 0.64984,6.97748 -0.12337,12.78778 -0.6183,4.64627 -0.82986,9.62047 -0.47013,11.05377 l 0.65407,2.606 1.50156,-2.14379 C 684.4377,147.9647 685.96133,147 686.99769,147 z M 428.34508,124.45687 c -0.32569,-0.84872 -0.80663,-1.32866 -1.06875,-1.06653 -0.26213,0.26213 -0.17998,0.95654 0.18255,1.54313 0.98605,1.59546 1.56238,1.28551 0.8862,-0.4766 z M 445,121.5 c 6.325,-1.91358 12.46436,-3.48391 13.64301,-3.48962 2.6313,-0.0127 3.91135,-2.88459 2.09521,-4.70073 -1.11368,-1.11368 -2.07395,-1.09639 -5.78674,0.1042 -10.15541,3.28393 -21.46709,8.47455 -21.7748,9.99185 -0.17783,0.87687 -0.17783,1.58963 0,1.58392 C 433.3545,124.98391 438.675,123.41358 445,121.5 z m 244.49431,0.25 2.60585,-2.25 -1.54875,-17.5 C 689.69959,92.375 688.70775,78.7625 688.34731,71.75 687.98687,64.7375 687.37157,59 686.97997,59 c -0.39159,0 -1.65262,2.5875 -2.80228,5.75 -1.87957,5.170339 -2.10488,8.129574 -2.23497,29.354391 -0.12281,20.037499 0.10113,24.079729 1.48198,26.749999 1.93655,3.74487 2.64813,3.84987 6.06961,0.89561 z M 171,121 c 0,-0.55 -0.43963,-1 -0.97695,-1 -1.91241,0 -4.35676,-5.24419 -7.51696,-16.12715 -3.35894,-11.5674 -6.88924,-17.330876 -10.22246,-16.688956 -2.86328,0.551417 -2.60284,3.382954 0.65214,7.09017 1.67478,1.907464 5.00647,8.363626 7.40377,14.347026 3.47338,8.66916 4.79562,10.94382 6.5096,11.19846 1.18297,0.17575 2.15086,0.73825 2.15086,1.25 0,0.51175 0.45,0.93045 1,0.93045 0.55,0 1,-0.45 1,-1 z m 309.01039,-0.43049 c 4.68071,-0.76756 10.86821,-2.33471 13.75,-3.48254 2.88178,-1.14783 7.60211,-3.02681 10.48961,-4.17551 2.8875,-1.1487 5.7,-2.43546 6.25,-2.85947 0.55,-0.42401 3.14812,-1.57436 5.77361,-2.55633 6.22868,-2.32963 13.6201,-10.510914 9.47639,-10.489071 -0.6875,0.0036 -2.6,0.904219 -4.25,2.001321 -2.90262,1.92998 -11.12197,4.7109 -31.96764,10.81587 -10.82589,3.17052 -12.87344,4.7953 -10.61441,8.42276 1.30501,2.09554 1.28135,2.1526 -0.33771,0.81428 -1.02928,-0.85081 -1.56794,-2.34481 -1.3176,-3.65439 0.38554,-2.01684 -0.0774,-2.27327 -5.16959,-2.86369 -3.07618,-0.35667 -7.16805,-0.91327 -9.09305,-1.23689 -3.47082,-0.5835 -3.48474,-0.57124 -1.6703,1.46969 1.46953,1.65295 1.61024,2.46817 0.71482,4.14127 -0.61319,1.14576 -1.86405,2.08319 -2.7797,2.08319 -2.96857,0 0.0546,1.83618 3.73518,2.26867 6.58566,0.77383 8.5103,0.69472 17.01039,-0.69916 z M 31,120 c 0,-0.55 -0.434167,-1 -0.964816,-1 -1.995377,0 -2.857242,-3.92324 -4.064112,-18.5 -0.708257,-8.554438 -1.720852,-15.315698 -2.356492,-15.734687 -2.159382,-1.42338 -4.669141,-0.73967 -5.715595,1.557046 -0.799532,1.754782 -0.63421,3.771057 0.67645,8.25 0.954023,3.260203 1.934549,5.343493 2.178946,4.629533 0.244396,-0.713959 -0.300732,-3.576086 -1.211396,-6.360282 -0.910664,-2.784196 -1.47536,-5.242568 -1.25488,-5.463049 1.071911,-1.07191 3.944679,11.348043 4.931566,21.320839 1.08144,10.92828 1.170873,11.2091 3.694299,11.60017 1.422317,0.22042 2.92353,0.46819 3.33603,0.5506 C 30.6625,120.93258 31,120.55 31,120 z m 228.49715,-1.38695 C 255.93206,117.05936 240,99.932474 240,97.653713 240,96.182349 237.19646,94 235.30629,94 c -0.45386,0 -1.37947,0.887538 -2.05692,1.972307 -1.61372,2.583973 0.14217,6.643983 3.69532,8.544413 1.40542,0.7517 6.15531,4.53207 10.55531,8.40082 6.67423,5.86839 8.58002,7.03161 11.5,7.01913 l 3.5,-0.015 -3.00285,-1.30867 z M 103,117.57339 C 103,116.78876 100.525,114.73073 97.5,113 92.319204,110.03585 92,109.62806 92,105.97366 92,102.05976 90.286997,97 88.96193,97 c -1.332992,0 -2.708334,2.483267 -3.155352,5.69719 -0.244579,1.75845 -0.07612,2.96939 0.374366,2.69098 C 86.631425,105.10976 87,106.1584 87,107.71848 c 0,4.0686 2.268638,6.74582 6.889468,8.13026 2.214612,0.66351 4.297018,1.64398 4.627567,2.17882 C 99.448105,119.53407 103,119.17422 103,117.57339 z M 33.367351,108 c -0.306579,-0.825 -1.617668,-5.73052 -2.91353,-10.901146 -1.295862,-5.17063 -2.883683,-9.89563 -3.52849,-10.5 -1.197139,-1.122064 -1.164445,-0.09978 0.693789,21.693546 l 0.664428,7.79241 2.820611,-3.29241 c 1.573697,-1.83692 2.574191,-3.95551 2.263192,-4.7924 z m 75.357759,6.55088 c 0.63196,-0.47098 -15.412712,-16.559713 -16.510294,-16.555644 -0.960598,0.0036 -1.023738,0.49328 -0.25,1.939023 0.569351,1.063841 1.043065,3.651341 1.052697,5.750001 0.0162,3.52896 0.410774,4.05131 5.25,6.95014 3.567977,2.13732 6.027767,2.96737 7.732487,2.60933 1.375,-0.2888 2.6013,-0.60058 2.72511,-0.69285 z m 126.81007,-4.16589 c 3.16781,-2.07562 3.11775,-3.72715 -0.17842,-5.88689 -2.44872,-1.60446 -2.89027,-1.61411 -6,-0.13119 -4.07364,1.94259 -4.17413,2.85645 -0.60676,5.518 3.35484,2.50299 3.69059,2.52773 6.78518,0.50008 z M 458,109.19113 c 0,-1.54488 -0.59554,-3.62332 -1.32342,-4.61875 -1.15714,-1.58249 -1.59688,-1.6391 -3.5,-0.45058 -2.58477,1.61421 -2.70193,2.68315 -0.61988,5.65569 2.29765,3.28036 5.4433,2.9415 5.4433,-0.58636 z M 242.11878,89.694221 c -0.63381,-2.745787 -2.99998,-7.737763 -5.25816,-11.09328 -2.25818,-3.355518 -3.78844,-5.066847 -3.40058,-3.802953 0.88357,2.879245 -1.08729,5.455094 -3.57076,4.66687 -1.73243,-0.549851 -1.75182,-0.328044 -0.36964,4.227422 0.80229,2.644246 1.46358,6.19522 1.46954,7.891053 0.0137,3.910288 0.95418,4.867214 2.60549,2.651123 1.18233,-1.586714 1.53148,-1.603838 4.09887,-0.201038 1.61858,0.884374 2.9686,2.577438 3.18953,4 0.38075,2.451632 0.38914,2.448972 1.38557,-0.440137 0.69278,-2.008681 0.64648,-4.449116 -0.14986,-7.89906 z M 85.524281,95.88945 c 0.816297,-3.716576 -0.58063,-5.38626 -5.340247,-6.382954 l -3.315966,-0.694384 0.315966,3.820951 c 0.239627,2.897793 0.919976,4.12495 2.815966,5.079202 3.784737,1.90486 4.777493,1.577286 5.524281,-1.822815 z M 149.21452,90.5 C 148.74862,85.60408 148.23426,85 144.53138,85 141.28941,85 141,85.241213 141,87.943296 c 0,3.336404 3.28495,6.285974 6.5,5.836383 1.57142,-0.219747 1.93882,-0.92255 1.71452,-3.279679 z m 20.05812,-1.737167 c 4.25006,-2.960348 6.98956,-9.115998 6.28055,-14.112337 -0.32394,-2.282773 -4.29343,-11.604027 -8.82109,-20.713897 -7.30921,-14.706502 -8.7389,-16.920647 -12.75275,-19.75 C 151.49299,32.433969 149.13049,31 148.72935,31 c -1.55697,0 -0.60041,2.814673 2.23344,6.571861 1.62953,2.160476 5.94575,11.578139 9.5916,20.928139 3.64585,9.35 6.97105,17.675 7.38934,18.5 1.23659,2.438959 4.78563,2.42807 5.56169,-0.01707 0.37245,-1.173511 0.89756,-1.913285 1.16691,-1.643942 C 175.61289,76.279554 172.91593,80 171.29356,80 170.39372,80 168.83455,79.255256 167.82874,78.345012 166.63992,77.269142 166,77.114148 166,77.902074 c 0,0.666627 -3.18409,2.618433 -7.07576,4.337346 -6.86777,3.033424 -7.00426,3.162762 -4.64327,4.399809 1.33787,0.700982 3.16792,2.396921 4.06678,3.768753 1.48984,2.273782 1.92234,2.396655 4.89327,1.390177 1.79244,-0.607235 4.50667,-1.973132 6.03162,-3.035326 z M 28,76.88499 C 28,73.828774 27.620812,73 26.222506,73 c -5.051289,0 -8.042922,6.036727 -4.665425,9.414224 1.409441,1.409441 1.788714,1.405308 4,-0.04358 C 27.453759,81.127891 28,79.901289 28,76.88499 z M 375.98527,169.75 c -0.0129,-30.83093 -0.23556,-35.95721 -1.77631,-40.8913 l -1.76158,-5.64129 -8.62002,6.12016 -8.62001,6.12017 4.02539,2.28646 c 3.12847,1.777 4.33624,2.02848 5.42049,1.12863 1.67033,-1.38625 1.59657,-1.46428 3.68415,3.89741 1.93132,4.96035 1.96945,5.22976 0.74017,5.22976 -0.50734,0 -1.44224,-1.575 -2.07755,-3.5 -1.34927,-4.08833 -3,-4.61357 -3,-0.95455 0,3.30437 -4.18678,7.45455 -7.52029,7.45455 -3.94652,0 -6.49036,-1.78123 -8.1225,-5.68751 -1.31262,-3.14155 -1.30323,-3.71465 0.086,-5.24979 1.42628,-1.57602 1.36717,-1.81545 -0.69186,-2.8023 -3.90646,-1.87229 -6.04104,-2.3729 -14.25139,-3.3423 -9.127,-1.07764 -39.30985,1.03383 -53.1673,3.71936 -7.81108,1.51377 -10.3327,1.34731 -10.3327,-0.68208 0,-4.83469 45.19047,-15.18167 62.5,-14.31024 11.47226,0.57756 12.38011,0.78428 16.8927,3.84661 l 3.7465,2.54244 10.28553,-5.5171 c 5.65708,-3.0344 11.19566,-5.51709 12.308,-5.51709 2.9637,0 4.61319,2.52062 3.91943,5.98938 -0.65039,3.25198 5.31619,20.70488 6.14944,17.98778 0.24915,-0.81244 1.32211,-2.43425 2.38436,-3.60403 1.92072,-2.11516 1.91726,-2.13042 -0.62728,-2.76906 C 386.15139,135.25088 385,134.47169 385,133.87254 c 0,-1.38058 4.90402,-0.23208 6.99182,1.63746 5.86895,5.25537 7.00818,6.6406 7.00818,8.52147 0,2.772 -5.23666,7.96853 -8.03007,7.96853 -1.48983,0 -2.00831,0.45759 -1.6314,1.43981 0.30388,0.7919 0.11595,5.6294 -0.41762,10.75 -0.96506,9.26146 -0.94858,9.38253 3.14791,23.13342 2.26493,7.60278 3.94012,14.00116 3.72265,14.21863 -0.21747,0.21747 -2.14121,-5.55298 -4.27497,-12.82323 -2.13376,-7.27025 -4.30298,-13.78113 -4.82048,-14.46863 -2.64657,-3.51597 -8.5281,1.34706 -7.1974,5.95104 0.36546,1.26443 2.69064,7.1736 5.16707,13.13148 2.47643,5.95789 4.32635,11.00877 4.11094,11.22418 -0.21541,0.21541 -2.39077,-4.43422 -4.83414,-10.33252 L 379.5,183.5 l -0.28383,10.75 c -0.22838,8.64958 -0.5703,10.75 -1.75,10.75 -1.26022,0 -1.46824,-4.95154 -1.4809,-35.25 z m 8.98185,2.53115 c 1.11808,0.29239 2.04087,0.46124 2.05065,0.37523 1.84192,-16.21285 1.8406,-17.73284 -0.0195,-22.41813 -1.03459,-2.60604 -3.14495,-8.0882 -4.68969,-12.18258 l -2.80863,-7.44433 -0.30492,5.27095 c -0.17127,2.96072 0.38548,7.34955 1.27027,10.0134 0.86635,2.60834 1.45357,5.8349 1.30492,7.17014 -0.21084,1.89387 0.25459,2.50262 2.11664,2.76843 1.3128,0.1874 2.80956,-0.26115 3.32613,-0.99677 0.74923,-1.06694 0.85741,-1.03406 0.53476,0.16251 -0.51796,1.92094 -4.42386,2.51374 -6.30054,0.95623 -0.8225,-0.68262 -1.25237,-2.24667 -1,-3.63844 0.24347,-1.34262 0.0644,-3.42588 -0.39783,-4.62946 -0.52152,-1.35782 -0.88674,3.47435 -0.96234,12.73238 -0.12104,14.82196 -0.10871,14.90883 1.86265,13.12477 1.16112,-1.0508 2.82795,-1.57537 4.01738,-1.26433 z m 10.3918,-23.24007 C 396.6375,147.7625 393.35985,144 390.96746,144 c -2.55049,0 -4.14008,2.46403 -3.42573,5.31022 0.56812,2.26359 0.9225,2.41703 3.7256,1.61311 1.70377,-0.48864 3.54499,-1.33565 4.09159,-1.88225 z m -41.06424,-4.23396 c 3.61392,-4.84045 -0.64191,-9.39588 -4.64524,-4.97225 -1.37656,1.52109 -1.46914,2.38391 -0.54132,5.04544 1.26731,3.63541 2.42994,3.61901 5.18656,-0.0732 z m -73.31753,-8.28416 c 4.13757,-0.81237 15.82542,-2.18202 25.973,-3.04366 10.14758,-0.86165 19.03508,-2.05208 19.75,-2.64541 1.55694,-1.29214 1.74443,-5.83389 0.24083,-5.83389 -0.58246,0 -0.82082,-0.38541 -0.52969,-0.85647 1.63648,-2.64788 -42.1851,5.78637 -50.01424,9.62614 -5.14399,2.52286 -6.82708,4.23033 -4.1699,4.23033 0.67494,0 4.61244,-0.66467 8.75,-1.47704 z m 80.72556,-6.60485 c 12.70812,-9.18596 13.53841,-11.84681 1.67957,-5.38255 -4.84903,2.6432 -10.13829,5.07618 -11.75391,5.40661 -3.36401,0.68801 -5.23442,3.03611 -4.3189,5.42191 1.14312,2.97891 4.48987,1.7126 14.39324,-5.44597 z M 346,133.57258 c 0,-0.78508 1.15476,-2.33575 2.56613,-3.44594 l 2.56613,-2.01852 -4.02629,-2.05406 C 344.11792,124.52967 341.17117,124 335.67851,124 c -7.35988,0 -7.39849,0.014 -6.92216,2.50575 0.26345,1.37816 -0.0354,3.1256 -0.6642,3.88321 -1.45456,1.75264 0.43104,2.57181 6.23964,2.71072 2.29251,0.0548 5.29321,0.45997 6.66821,0.90032 3.83639,1.22863 5,1.12916 5,-0.42742 z m 29.51225,-8.48354 c -0.58441,-4.24911 -0.42859,-4.97472 1.15616,-5.384 1.2258,-0.31658 0.92204,-0.5114 -0.91841,-0.58904 -3.09924,-0.13073 -3.19294,0.23927 -1.63129,6.44118 1.48628,5.90251 2.23513,5.65095 1.39354,-0.46814 z M 593.64913,169.25 c -0.91003,-2.0625 -2.5515,-8.17789 -3.64769,-13.58976 C 588.18225,146.67896 585.21069,140 583.03398,140 c -0.45641,0 -2.78827,1.11958 -5.18191,2.48795 C 570.38694,146.75556 564,144.95463 564,138.58208 c 0,-1.61507 -0.62944,-1.28572 -3.47028,1.81574 -3.58333,3.91209 -5.1201,4.19867 -6.95094,1.29619 -0.87522,-1.38752 -0.0892,-2.63341 4.42856,-7.01906 4.3988,-4.27021 7.48416,-6.13667 15.49266,-9.37212 5.5,-2.22201 12.25,-4.51696 15,-5.09989 2.75,-0.58293 6.19987,-1.31619 7.66639,-1.62947 1.46651,-0.31328 4.46289,-2.29568 6.65862,-4.40534 2.19572,-2.10965 8.30337,-6.49802 13.57254,-9.75193 5.26917,-3.25391 12.17279,-7.604882 15.34138,-9.668826 10.46987,-6.819829 12.0072,-7.399261 15.07848,-5.683187 3.43662,1.920214 3.9254,5.721766 1.18379,9.207156 -4.99679,6.352397 -33.00286,27.215647 -43.0012,32.033947 -3.025,1.45778 -6.79045,3.69531 -8.36766,4.97229 l -2.86766,2.32179 1.55098,14.29789 c 1.0764,9.92295 2.03773,14.83575 3.14177,16.0557 1.88573,2.08371 1.05637,5.04704 -1.41254,5.04704 -1.05116,0 -2.39683,-1.48605 -3.39576,-3.75 z m 4.88981,1.68699 c 0.36134,-0.58466 -0.0867,-1.88478 -0.99565,-2.88916 -1.15251,-1.2735 -2.08701,-5.71819 -3.08798,-14.68699 -0.78943,-7.07346 -1.43983,-13.48222 -1.44532,-14.24168 -0.007,-1.02774 -0.93669,-1.23046 -3.63389,-0.79277 -4.80191,0.77925 -4.95243,1.05549 -2.47273,4.53791 1.24522,1.74875 2.9888,7.24563 4.2211,13.30758 2.70958,13.32909 5.21654,18.32143 7.41447,14.76511 z M 578.4136,140.36455 c 0.83097,-2.16547 -3.19495,-1.64163 -4.37842,0.56971 -0.56935,1.06384 -1.03518,2.17919 -1.03518,2.47856 0,1.05554 4.89691,-1.70179 5.4136,-3.04827 z m -19.62809,0.84994 c 0.98203,-0.98203 3.06323,-3.4607 4.62491,-5.50815 2.13481,-2.79889 3.80233,-3.87663 6.71988,-4.34317 2.48766,-0.39779 5.58345,-2.07813 8.62509,-4.68155 4.43036,-3.79206 4.52773,-3.82839 1.47013,-0.54846 -3.2679,3.50551 -3.27041,3.51624 -1.25,5.34469 1.11347,1.00767 2.02448,2.35137 2.02448,2.98601 0,0.63463 0.5625,1.89035 1.25,2.79047 1.12137,1.46818 1.78822,1.4942 6.48019,0.2528 2.87661,-0.76109 7.24242,-2.76824 9.7018,-4.46034 2.45938,-1.69209 6.6302,-4.00182 9.2685,-5.13273 4.04931,-1.73574 4.52437,-2.20872 3.04821,-3.03482 C 609.78692,124.341 609,123.35469 609,122.68744 c 0,-0.66725 -1.0125,-1.65739 -2.25,-2.20031 -1.6345,-0.7171 -2.25,-1.8319 -2.25,-4.07526 l 0,-3.08813 -2.59771,2.78085 c -1.42874,1.52947 -3.90374,3.05209 -5.5,3.3836 -1.59626,0.33151 -4.70229,1.10055 -6.90229,1.70899 -2.2,0.60843 -4.72436,1.17483 -5.6097,1.25866 -0.88533,0.0838 -5.83533,1.88608 -11,4.00502 -10.32145,4.23463 -19.75939,11.83194 -18.56503,14.94439 0.79844,2.08072 2.25088,2.0186 4.46024,-0.19076 z m 61.79839,-21.44618 c 10.4897,-7.5115 22.92374,-17.90435 22.64132,-18.92446 -0.15112,-0.54588 0.15034,-0.72977 0.66993,-0.40865 1.54195,0.95298 5.22847,-4.583182 4.90242,-7.362133 -0.3984,-3.395639 -5.46426,-5.420041 -6.94444,-2.775112 -0.53683,0.95926 -1.38875,1.489046 -1.89317,1.177301 -0.50441,-0.311745 -2.16425,0.289102 -3.68854,1.335216 -3.58318,2.459134 -16.41067,10.650508 -24.16211,15.429428 -4.01757,2.47692 -6.2787,4.58682 -6.69557,6.24777 -0.88321,3.51899 0.13436,5.51233 2.81398,5.51233 2.26744,0 15.28775,-8.39806 26.20862,-16.9045 4.42612,-3.447565 5.91635,-4.140797 6.85916,-3.190753 0.94098,0.948203 0.87447,1.088263 -0.30401,0.640183 -0.91642,-0.34844 -4.19957,1.57088 -8.36477,4.89003 -3.77095,3.00497 -10.40462,7.79315 -14.74149,10.64039 -4.33688,2.84724 -7.88523,5.79507 -7.88523,6.55073 0,2.62602 4.69693,1.3578 10.5839,-2.85777 z M 583,84.877555 C 583,80.437654 582.80013,79.920987 581.5,81 580.27949,82.012933 580,81.964014 580,80.737455 580,79.428002 583.95432,76 585.46482,76 585.75917,76 586,79.15 586,83 c 0,5.555556 -0.30952,7 -1.5,7 -1.13811,0 -1.5,-1.235827 -1.5,-5.122445 z m 7.93261,3.541244 c -1.03322,-1.244954 -1.05746,-1.98924 -0.11397,-3.5 0.93108,-1.490896 0.93108,-2.346702 0,-3.837598 -0.94349,-1.51076 -0.91925,-2.255046 0.11397,-3.5 3.03439,-3.656218 9.7061,-0.434839 7.24875,3.5 -0.93108,1.490896 -0.93108,2.346702 0,3.837598 C 599.70748,87.362509 597.79661,90 594.5,90 c -1.24031,0 -2.84564,-0.711541 -3.56739,-1.581201 z M 595.80963,86.25 c -0.40593,-2.107843 -2.18068,-1.974934 -2.63295,0.197179 C 592.98803,87.353163 593.53927,88 594.5,88 c 1.02996,0 1.52043,-0.655397 1.30963,-1.75 z M 596,79.440983 C 596,78.648442 595.325,78 594.5,78 c -1.50623,0 -2.05568,2.110991 -0.86052,3.306147 C 594.57272,82.239389 596,81.111627 596,79.440983 z m 6.57143,8.987588 C 599.25045,85.107589 601.39649,76 605.5,76 c 2.5132,0 4.5,3.090577 4.5,7 0,3.909423 -1.9868,7 -4.5,7 -0.74643,0 -2.06429,-0.707143 -2.92857,-1.571429 z m 4.24679,-6.046792 C 606.6432,80.2468 606.05,78.5 605.5,78.5 c -1.16819,0 -1.91781,5.96881 -1.03768,8.262414 1.06994,2.788219 2.69576,-0.234884 2.3559,-4.380635 z m 5.57032,-1.811642 c -0.99567,-2.594671 0.39988,-4.739185 2.85699,-4.390274 C 616.89826,76.414553 617.5,77.167272 617.5,79 c 0,1.832728 -0.60174,2.585447 -2.25447,2.820137 -1.35228,0.192025 -2.49559,-0.308199 -2.85699,-1.25 z M 616,79 c 0,-0.55 -0.45,-1 -1,-1 -0.55,0 -1,0.45 -1,1 0,0.55 0.45,1 1,1 0.55,0 1,-0.45 1,-1 z M 200,53.482984 c -5.775,-5.215856 -10.64992,-9.93305 -10.83316,-10.482653 -0.60524,-1.81537 2.83229,-2.260496 7.45712,-0.965624 2.98532,0.835838 7.19436,3.497841 12.21539,7.725618 7.79691,6.5651 12.82591,11.306051 8.66065,8.164586 -1.1,-0.829627 -5.00305,-4.084931 -8.67344,-7.234009 C 202.53692,45.294598 196.11055,42 191.87427,42 190.84342,42 190,42.340364 190,42.756363 c 0,0.416 4.725,4.98301 10.5,10.148911 9.34373,8.358228 11.15468,10.138777 10.25,10.077905 -0.1375,-0.0093 -4.975,-4.28434 -10.75,-9.500195 z"
       id="path2989"
       style="fill:#000000" />
  </g>
</svg>
