<?xml version="1.0" encoding="UTF-8" standalone="no"?>
<!-- Created with Inkscape (http://www.inkscape.org/) -->

<svg
   xmlns:dc="http://purl.org/dc/elements/1.1/"
   xmlns:cc="http://creativecommons.org/ns#"
   xmlns:rdf="http://www.w3.org/1999/02/22-rdf-syntax-ns#"
   xmlns:svg="http://www.w3.org/2000/svg"
   xmlns="http://www.w3.org/2000/svg"
   xmlns:sodipodi="http://sodipodi.sourceforge.net/DTD/sodipodi-0.dtd"
   xmlns:inkscape="http://www.inkscape.org/namespaces/inkscape"
   version="1.1"
   width="599"
   height="285"
   id="svg2"
   inkscape:version="0.91 r13725"
   sodipodi:docname="ub810102.svg">
  <sodipodi:namedview
     pagecolor="#cacaca"
     bordercolor="#666666"
     borderopacity="1"
     objecttolerance="10"
     gridtolerance="10"
     guidetolerance="10"
     inkscape:pageopacity="0"
     inkscape:pageshadow="2"
     inkscape:window-width="1289"
     inkscape:window-height="798"
     id="namedview11"
     showgrid="false"
     inkscape:zoom="1.0183639"
     inkscape:cx="285.63946"
     inkscape:cy="121.50986"
     inkscape:window-x="0"
     inkscape:window-y="0"
     inkscape:window-maximized="0"
     inkscape:current-layer="svg2" />
  <metadata
     id="metadata8">
    <rdf:RDF>
      <cc:Work
         rdf:about="">
        <dc:format>image/svg+xml</dc:format>
        <dc:type
           rdf:resource="http://purl.org/dc/dcmitype/StillImage" />
        <dc:title></dc:title>
      </cc:Work>
    </rdf:RDF>
  </metadata>
  <defs
     id="defs6" />
  <g
     id="g3376"
     transform="translate(34.989435,2.6802238e-5)">
    <path
       sodipodi:nodetypes="sscsscsssssscssssscssccccssssssssssssssssssssssssssssssssssssssssssssscsssscsssssssssscsccssssssssssssccsscsssscsscccscccsssssssssssssssssssss"
       d="m 440.28947,268.99778 c -0.31898,-0.83125 1.26679,-4.61294 3.53607,-8.43271 l 4.1144,-6.92557 -5.49925,-7.66482 c -4.48902,-6.25677 -5.38012,-8.15209 -4.85071,-10.31729 0.61073,-2.4978 1.97746,-4.10249 3.52365,-4.13716 0.37568,-0.008 2.22868,1.89719 4.11777,4.23469 3.37108,4.17125 3.4448,4.46538 3.97852,15.87414 0.46154,9.86563 0.29892,11.86903 -1.07491,13.24286 -1.26432,1.26432 -1.35443,1.883 -0.41157,2.82586 2.07782,2.07782 1.34405,2.80714 -2.82424,2.80714 -2.66945,0 -4.22677,-0.50916 -4.60973,-1.50714 z m 9.92995,-10.74466 c -0.11614,-6.73651 -0.70533,-18.176 -1.30931,-25.4211 -0.78909,-9.46567 -0.79374,-14.30334 -0.0165,-17.18969 1.20445,-4.47299 3.70725,-5.91944 7.10033,-4.10352 2.10338,1.1257 2.12475,1.40454 1.28777,16.8054 -0.4681,8.61339 -0.8511,20.83045 -0.8511,27.14902 l 0,11.48831 2.9175,0.51169 c 1.60463,0.28143 3.10463,1.07419 3.33334,1.76169 0.30349,0.91231 -1.29513,1.24951 -5.91751,1.2482 l -6.33336,-0.002 -0.21116,-12.24821 z m -30.50474,-28.24894 c -2.54245,-1.72764 -5.13981,-5.20555 -8.40169,-11.25 -2.59683,-4.81209 -7.34522,-13.41853 -10.55196,-19.12541 -3.20675,-5.70688 -5.82431,-11.33188 -5.8168,-12.5 0.0371,-5.76221 2.43515,-8.52439 5.8255,-6.70993 1.82949,0.97911 10.13548,17.05676 12.18497,23.58608 0.69056,2.2 3.66764,8.83 6.61572,14.73334 7.07516,14.16751 7.09851,15.99146 0.14426,11.26592 z m 39.2159,-8.5872 c 0,-2.53475 0.32246,-3.0023 1.70479,-2.47185 4.61922,1.77256 10.46751,1.78584 14.35551,0.0326 2.96627,-1.3376 4.29789,-1.51462 5.13049,-0.68202 2.29625,2.29625 -1.03115,4.02682 -8.99678,4.6792 -4.23171,0.34658 -8.70651,0.84119 -9.94401,1.09913 -1.95351,0.40718 -2.25,0.0571 -2.25,-2.65706 z m 0,-6.32043 c 0,-2.51832 4.10002,-6.59163 6.63486,-6.59163 1.76159,0 1.86838,6.90773 0.11514,7.44786 -5.67919,1.74961 -6.75,1.61378 -6.75,-0.85623 z m -7.50886,-27.35694 c -0.55487,-0.40408 -3.97904,-4.10969 -7.60927,-8.23469 -9.01789,-10.24696 -10.86634,-14 -6.89529,-14 1.298,0 2.45952,1.13191 3.35104,3.26562 1.46836,3.51428 6.4341,8.30264 12.73536,12.28045 4.33902,2.7391 4.6707,3.56739 2.35559,5.8825 -1.74401,1.74401 -2.45082,1.88872 -3.93743,0.80612 z m 0.99378,-8.25909 c -1.24829,-2.01977 0.60849,-6.69713 3.11125,-7.83746 3.8619,-1.7596 4.40383,-1.42717 4.40383,2.70134 0,3.14395 -0.46141,4.04972 -2.54705,5 -3.13281,1.42741 -4.1527,1.45535 -4.96803,0.13612 z m -75.28492,-12.1756 c -3.27235,-3.27235 1.93047,-7.20369 9.20658,-6.95665 5.3472,0.18156 7.10233,-0.52272 12.9934,-5.21384 2.96415,-2.36038 3.87088,-2.64961 5.10238,-1.62755 1.9807,1.64384 1.89289,2.9223 -0.25236,3.67408 -0.9625,0.33729 -3.1,1.84427 -4.75,3.34883 -2.07502,1.89213 -4.44155,2.8862 -7.67542,3.22411 -2.62498,0.27428 -5.86367,1.42321 -7.38486,2.61978 -3.04624,2.39617 -5.46382,2.70714 -7.23972,0.93124 z m -0.54501,-9.62874 c -2.29693,-2.53808 -2.07221,-4.43067 0.8523,-7.17811 2.45787,-2.30905 2.53656,-2.31741 3.99283,-0.42431 2.61042,3.39348 2.98956,6.59993 0.95621,8.08675 -2.47126,1.80703 -3.83038,1.69356 -5.80134,-0.48433 z m -273.65499,-5.17126 c -1.1,-1.1 -2,-2.38248 -2,-2.84996 0,-1.71286 5.98572,-8.85044 13.96305,-16.65004 4.50027,-4.4 8.85989,-9.2834 9.68805,-10.85199 1.23273,-2.33488 2.02589,-2.77565 4.37451,-2.43094 1.57782,0.23157 2.64097,0.0525 2.36256,-0.39801 -0.27841,-0.45048 -1.15465,-0.81906 -1.94719,-0.81906 -1.75514,0 -1.75923,1.06123 0.0591,-15.33927 1.06905,-9.642299 1.20509,-14.30594 0.47343,-16.230357 -0.79046,-2.079071 -0.67015,-3.244451 0.52295,-5.065354 1.99051,-3.037898 4.25063,-3.014168 5.65101,0.05933 0.88057,1.932652 0.44715,5.619653 -2.13701,18.178911 -2.95223,14.34816 -3.09739,15.86002 -1.62605,16.9359 3.16065,2.31112 1.24929,4.46084 -3.96622,4.46084 -1.55398,0 -2.41821,0.57407 -2.41821,1.6063 0,0.88346 -3.0375,5.42668 -6.75,10.09603 -8.92261,11.22232 -10.23849,13.32208 -10.24474,16.34767 -0.005,2.4873 -1.5998,4.95 -3.20526,4.95 -0.44,0 -1.7,-0.9 -2.8,-2 z m -8.946132,-1.09178 c -4.53171,-1.832 -5.30515,-2.97307 -3.42411,-5.0516 3.56162,-3.93555 11.165742,-1.18621 9.464572,3.422 -0.949432,2.57188 -2.604872,3.01848 -6.040462,1.6296 z m 37.895912,-6.5403 c -0.55039,-1.44765 -0.73688,-3.46336 -0.41441,-4.47937 0.32247,-1.01601 4.72143,-7.84399 9.77547,-15.17329 5.05404,-7.3293 10.5094,-16.11358 12.12303,-19.52063 1.61363,-3.40705 3.36381,-6.194632 3.88929,-6.194632 0.55594,0 0.71325,2.044802 0.37621,4.890502 -0.85941,7.2564 -17.81357,40.82222 -21.28628,42.14254 -3.41247,1.29742 -3.32447,1.33025 -4.46331,-1.66512 z m 82.21193,-9.60621 c -0.68106,-0.68106 -3.48726,-1.28226 -6.23599,-1.33599 -2.74873,-0.0537 -5.53372,-0.63372 -6.18888,-1.28888 -0.92158,-0.92158 -0.44922,-0.93254 2.08703,-0.0484 1.80302,0.62853 3.50049,0.92052 3.77216,0.64886 0.79917,-0.79917 -14.89808,-4.7373 -18.88274,-4.7373 -2.79182,0 -3.51856,-0.34389 -3.08952,-1.46193 0.9606,-2.50329 3.61444,-2.60715 14.67818,-0.57446 5.89178,1.08248 11.38513,1.70996 12.20743,1.39442 0.8223,-0.31555 2.61909,-0.29162 3.99286,0.0532 1.91462,0.48053 2.49776,1.27615 2.49776,3.40784 0,2.5444 -1.52668,5.18095 -3,5.18095 -0.33,0 -1.15723,-0.55723 -1.83829,-1.23829 z m -33.08276,-7.34504 c 0.048,-1.16495 0.28494,-1.4019 0.60416,-0.60417 0.28887,0.72187 0.25335,1.58437 -0.0789,1.91667 -0.3323,0.33229 -0.56864,-0.25834 -0.52522,-1.3125 z m 59.87083,-4.04875 c -0.55039,-1.44765 -0.73688,-3.46336 -0.41441,-4.47937 0.32247,-1.01601 4.72143,-7.84399 9.77547,-15.17329 5.05404,-7.329301 10.5094,-16.113586 12.12303,-19.520632 1.61363,-3.407047 3.3591,-6.19463 3.87883,-6.19463 0.55839,0 0.66776,2.089609 0.26737,5.10793 -1.00111,7.54671 -17.69064,40.603412 -21.16698,41.925112 -3.41247,1.29742 -3.32447,1.33025 -4.46331,-1.66512 z M 138.41711,90.834615 c -1.4198,-2.563271 -0.68527,-7.329697 1.12955,-7.329697 2.65625,0 7.22632,2.928086 7.90436,5.064393 0.84608,2.665764 0.45898,2.99847 -4.18785,3.599383 -3.00884,0.389093 -4.05042,0.102356 -4.84606,-1.334079 z m -25.7747,-30.026373 c -0.98349,-0.255571 -7.77528,-7.96587 -15.092852,-17.133999 -7.31758,-9.168129 -15.464499,-19.267731 -18.104265,-22.443561 -2.639767,-3.17583 -4.509173,-6.064639 -4.154237,-6.419575 0.769509,-0.769509 10.639522,3.693327 10.639522,4.810778 0,1.73268 13.87682,16.457008 22.396492,23.764333 7.05898,6.054491 9.36744,8.682395 10.2787,11.701073 1.68232,5.572988 -0.0686,7.252758 -5.96336,5.720951 z"
       id="path2997"
       style="fill:#fefefe"
       inkscape:connector-curvature="0" />
    <path
       sodipodi:nodetypes="sssssssssssssssssssss"
       d="M 99.564658,181.91846 C 86.882838,178.84886 75.306406,170.33589 67.071848,158.0242 58.267735,144.86096 54.252177,129.90267 55.25486,114.00492 c 0.497471,-7.88752 2.898279,-20.055896 4.217235,-21.374852 1.393089,-1.393089 1.385931,1.361987 -0.01693,6.517419 -3.828546,14.069653 -2.714818,32.826803 2.722837,45.857433 3.306794,7.92429 10.390658,18.01745 16.412402,23.38455 12.665614,11.28867 28.399346,15.25227 45.590176,11.48495 1.53702,-0.33683 2.75,-0.17104 2.75,0.37587 0,1.31904 -10.1226,3.27448 -16.41678,3.17132 -2.79577,-0.0458 -7.72289,-0.72224 -10.949142,-1.50315 z m 30.394282,-3.16354 c 0.0156,-0.4125 2.53779,-2.26928 5.60486,-4.12618 4.02049,-2.43412 5.20078,-3.60838 4.23,-4.20836 -0.88589,-0.54751 -1.00728,-1.16188 -0.35486,-1.796 1.28497,-1.24893 8.49164,-2.58017 8.49164,-1.56861 0,1.57795 -5.12227,9.44915 -6.14914,9.44915 -0.58986,0 -0.77489,-0.75559 -0.41481,-1.69393 0.58375,-1.52125 0.46723,-1.54271 -1.14302,-0.21049 -1.64866,1.36401 -8.74257,4.90442 -9.82696,4.90442 -0.25634,0 -0.45331,-0.3375 -0.43771,-0.75 z"
       id="path2993"
       style="fill:#fe0000"
       inkscape:connector-curvature="0" />
    <path
       sodipodi:nodetypes="ssssssscsscssssssssssssssscscsssscssccssssssssssscsssssssscsscsssssss"
       d="m 436.06676,234.44609 c -0.15269,-2.869 5.7726,-13.46846 9.08738,-16.25598 2.02693,-1.70452 2.16168,-2.71735 2.21726,-16.66667 0.0326,-8.16853 0.39668,-15.18937 0.80918,-15.60186 0.4125,-0.4125 0.75,-0.24083 0.75,0.38149 0,1.62 3.56612,3.30558 5.45775,2.57969 0.88145,-0.33824 2.20933,-1.77294 2.95086,-3.18819 l 1.34824,-2.57319 0.66779,3.04041 c 0.36729,1.67223 0.20039,5.92103 -0.37087,9.44178 -0.57127,3.52074 -1.04206,8.55468 -1.04622,11.18653 -0.007,4.56935 -0.10346,4.73386 -2.13404,3.64712 -5.78099,-3.09389 -9.56552,4.19816 -8.36792,16.12334 0.77607,7.72778 -0.33596,9.39179 -3.98527,5.96345 -1.88888,-1.77451 -2.71605,-1.98471 -4.35613,-1.10696 -1.11348,0.59592 -2.21966,2.09697 -2.45817,3.33568 -0.3993,2.07378 -0.44444,2.04949 -0.56984,-0.30664 z m -43.50641,-49.52752 c -0.50473,-2.17325 -2.82529,-4.82095 -7.84361,-8.94936 -7.09057,-5.83319 -7.11269,-5.86679 -4.34904,-6.6059 1.52778,-0.40859 3.51693,-1.39066 4.42033,-2.18236 3.67665,-3.22207 5.75838,-2.94889 9.03275,1.18534 1.71039,2.15954 2.96591,4.74162 3.22457,5.1963 0.45623,0.80196 1.00313,1.37559 1.81,2.62056 1.49265,2.3031 2.8806,3.93755 1.0959,2.83454 -1.89538,-1.1714 -4.82244,1.48731 -5.74318,5.21664 l -0.93093,3.77059 z M 105.93058,156.40165 c -1.925,-1.11069 -2.64742,-1.75598 -1.60538,-1.43397 2.58053,0.79742 5.60538,-2.14842 5.60538,-5.45896 0,-2.61019 0.16276,-2.6846 5.75,-2.62871 3.98197,0.0398 6.59558,-0.50558 8.5,-1.7738 l 2.75,-1.83131 0,5.59469 c 0,5.51098 -0.0592,5.62491 -3.96016,7.61501 -5.14588,2.62523 -12.40741,2.58988 -17.03984,-0.083 z m 24.01474,-9.14673 c 0.0142,-4.10327 0.0595,-4.16369 1.31161,-1.75 0.86949,1.67614 2.01803,2.4215 3.48526,2.26179 1.20361,-0.13102 2.18839,-0.0301 2.18839,0.22432 0,0.4971 -5.53784,3.51389 -6.45034,3.51389 -0.30231,0 -0.54303,-1.9125 -0.53492,-4.25 z m 83.98526,-9.85965 c -1.23415,-0.88778 -1.16421,-0.96941 0.39462,-0.46057 2.61489,0.85355 5.60538,-2.10716 5.60538,-5.54958 0,-3.07227 1.49343,-4.22043 7,-5.38166 1.925,-0.40595 5.525,-2.21353 8,-4.01684 l 4.5,-3.27876 0.10511,2.87149 c 0.14019,3.82965 2.14804,6.10688 4.78607,5.42818 1.98969,-0.5119 2.00372,-0.47081 0.24836,0.72742 -7.92134,5.40721 -11.65182,7.2644 -17.87217,8.89749 -8.1432,2.13793 -10.64775,2.28757 -12.76737,0.76283 z M 126.69957,84.754918 c -0.84755,-0.9625 -2.76689,-4.225 -4.26521,-7.25 -1.49832,-3.025 -4.48179,-7.852683 -6.62992,-10.728185 l -3.90571,-5.228185 2.7889,0.557781 c 3.88562,0.777123 6.92029,-2.467268 5.24163,-5.60387 -0.63839,-1.192859 -0.91331,-2.416242 -0.61092,-2.718631 0.30238,-0.302388 1.35134,0.935316 2.33102,2.750453 0.97967,1.815136 4.04471,6.038586 6.81119,9.385443 5.31874,6.434536 9.84979,13.538771 9.10804,14.280513 -0.24379,0.243791 -1.41549,-0.150423 -2.60378,-0.876031 -1.93924,-1.184164 -2.41617,-1.02487 -4.65656,1.555284 -1.37282,1.581014 -2.25853,3.493514 -1.96824,4.25 0.70792,1.844811 0.2147,1.732191 -1.64044,-0.374572 z"
       id="path2991"
       style="fill:#0000fe"
       inkscape:connector-curvature="0" />
    <path
       sodipodi:nodetypes="csssssscccccssccsssssscsssssscssssssssscccsssssssssssssscccccccssscsssssssssssssscssscsssscccssscssscccssssssssssssscsssssssssssccccccsssccssssssccsssssscssscscssssssscsscsscsssccccsssscccccsssssssssssssssssssssscssscsscsssscssscssssssssssssssssssssssssssssssssssssscssssssscsssscssssssssscsscsscccccssssssssssssscsssssccscssscssssssssscssssssssscsssssssccsssscsssssssccsssscssssscssssssscssssssssssssssss"
       d="m 48.740013,270.75643 c 14.893844,-0.27544 16.265176,-0.45134 15.799514,-2.02657 -0.280457,-0.94872 -2.083685,-9.59994 -4.007173,-19.22494 -1.923489,-9.625 -5.571077,-27.4 -8.105751,-39.5 -6.562828,-31.32956 -6.265375,-28.5 -2.996025,-28.5 2.577459,0 2.725202,0.22481 2.214787,3.37013 -0.333322,2.05403 0.904431,10.15736 3.169484,20.75 l 3.716382,17.37987 34.199677,0.26313 34.199672,0.26313 0,-34.03346 0,-34.03345 -3.96016,2.02033 c -5.03827,2.57033 -12.36612,2.57907 -17.03984,0.0203 -1.925,-1.05389 -2.8625,-1.93503 -2.08333,-1.95808 0.77916,-0.0231 1.10992,-0.34866 0.73502,-0.72357 -0.37491,-0.3749 -2.18214,0.77269 -4.01607,2.5502 -1.833932,1.77752 -3.841442,3.09676 -4.461132,2.93165 -0.61968,-0.16511 -2.15407,0.96737 -3.40974,2.51662 -2.01949,2.49165 -2.59945,2.69653 -5.0239,1.77475 -1.50747,-0.57314 -2.74085,-1.55135 -2.74085,-2.17381 0,-0.62245 0.675,-0.85859 1.5,-0.52475 0.825,0.33385 2.09794,0.85057 2.82877,1.14827 0.7607,0.30988 1.77153,-0.43826 2.36445,-1.75 0.86787,-1.92 0.57153,-2.82355 -1.82876,-5.57608 -3.52388,-4.04097 -3.55989,-5.23528 -0.27557,-9.13847 2.82144,-3.3531 6.70106,-4.04763 9.8299,-1.75977 1.614962,1.18089 2.869322,0.2215 12.140162,-9.28534 15.15506,-15.54085 15.06942,-15.37796 16.9241,-32.19251 l 1.56559,-14.193712 -2.89388,-3.0727 c -1.59164,-1.689985 -4.53939,-6.2227 -6.55056,-10.0727 -3.00252,-5.747775 -23.802112,-32.774422 -43.010486,-55.887146 -2.91695,-3.509857 -3.618448,-4.988122 -2.769792,-5.836778 1.632856,-1.632856 10.958556,2.915516 12.678526,6.183624 1.68873,3.208761 15.455482,17.296434 26.263852,26.876096 4.54647,4.029619 8.99254,8.752545 9.88016,10.495392 0.88762,1.742847 3.91778,5.926284 6.7337,9.296527 2.81591,3.370243 5.88256,7.526035 6.81477,9.235093 l 1.69494,3.107378 3.07647,-1.735093 3.07647,-1.735093 -2.5214,-2.037565 c -2.58981,-2.092837 -3.22389,-3.462435 -1.60301,-3.462435 1.60313,0 9.02477,7.72032 10.07363,10.479044 2.6782,7.044191 0.26631,10.955663 -7.53621,12.221838 -2.88843,0.468728 -4.04686,0.211312 -5.01648,-1.114722 -1.55176,-2.122164 -1.46091,-2.38276 -4.46985,12.821172 -1.95716,9.88939 -2.0098,10.99061 -0.56405,11.79969 1.98209,1.10923 2.07771,3.67035 0.16444,4.40454 -0.78657,0.30183 -1.91157,1.92986 -2.5,3.61784 -1.36525,3.91634 -1.42819,14.11008 -0.082,13.27809 1.95905,-1.21076 17.84855,-25.17227 21.43571,-32.32526 4.20852,-8.391984 6.13545,-8.902576 5.95733,-1.57855 -0.0979,4.02628 -1.67288,7.9998 -8.8634,22.36172 -9.75714,19.48833 -12.25606,23.26945 -16.55575,25.05044 l -2.96177,1.2268 0,58.87868 0,58.87868 26,0 26,0 0,-22.5 0,-22.5 -13,0 c -8,0 -13,-0.38462 -13,-1 0,-0.61538 5,-1 13,-1 l 13,0 0,-46.3 c 0,-28.70389 -0.3701,-46.6701 -0.97383,-47.27383 -0.53561,-0.53561 -0.70173,-2.65061 -0.36916,-4.7 0.50028,-3.08289 1.01368,-3.72617 2.97383,-3.72617 1.48452,0 2.36916,0.58526 2.36916,1.56739 0,1.05258 0.5895,1.38028 1.7948,0.99774 0.98715,-0.31331 6.49965,0.24368 12.25,1.23776 25.47081,4.40318 34.40054,0.58961 49.27934,-21.04546 4.63631,-6.741587 10.08106,-15.550427 12.09945,-19.575199 4.25319,-8.481068 6.17954,-8.937805 5.86438,-1.390442 -0.17366,4.158905 -1.82593,8.300705 -9.13254,22.892871 -4.90629,9.79844 -10.21088,19.11324 -11.78798,20.69956 -4.89215,4.92076 -12.99537,9.22942 -20.82556,11.0734 -7.49834,1.76583 -14.59008,1.45042 -11.48974,-0.51102 0.86787,-0.54905 0.97818,-0.92211 0.2754,-0.93129 -0.64485,-0.008 -3.15626,2.25248 -5.58092,5.02423 -4.05758,4.63842 -4.6209,4.95876 -7.07755,4.02475 -1.46799,-0.55814 -2.66908,-1.52407 -2.66908,-2.14653 0,-1.04327 0.48979,-0.9653 4.62096,0.73564 0.61652,0.25385 1.3899,-0.23932 1.71861,-1.09593 0.36117,-0.94119 0.0575,-1.55747 -0.76736,-1.55747 -2.1453,0 -7.80071,-7.0182 -7.27509,-9.02817 0.50539,-1.93263 -2.61451,-2.97183 -8.92212,-2.97183 l -3.375,0 0,70.5 0,70.5 162.46862,0 c 47.13777,0 92.4041,-0.1681 91.89027,-1.50714 -0.31898,-0.83125 1.26679,-4.61294 3.53607,-8.43271 l 4.1144,-6.92557 -5.51594,-7.68809 c -3.03376,-4.22844 -5.79859,-8.81421 -6.14404,-10.19059 -0.76225,-3.03706 1.85128,-8.75158 7.20595,-15.7559 l 3.8224,-5 0.14552,-15.5 0.14551,-15.5 -5.17973,-6 c -6.02297,-6.97678 -7.85719,-10.0982 -7.09742,-12.07814 0.61617,-1.6057 4.1778,-1.92759 5.08508,-0.45957 0.37423,0.60551 1.48476,0.55677 2.99525,-0.13146 1.35212,-0.61606 3.19267,-0.74456 4.21429,-0.29422 0.99757,0.43974 3.96647,0.68141 6.59754,0.53704 6.39672,-0.35099 7.71623,0.93387 7.71623,7.51361 0,4.4316 -0.36399,5.53718 -2.1351,6.48504 -1.30091,0.69623 -1.71606,1.40166 -1.06256,1.80554 3.04293,1.88063 3.58563,8.18978 1.58033,18.37216 -0.50502,2.56434 -0.31343,2.75 2.83787,2.75 4.60752,0 5.77946,1.52083 5.77946,7.5 0,5.66709 -1.16234,7.45159 -4.95,7.59968 l -2.55,0.0997 2.5,0.80062 c 4.18695,1.34086 8.74956,1.08707 12.48576,-0.6946 3.34129,-1.59335 3.6551,-1.59311 5.25218,0.004 1.59809,1.59809 1.58196,1.81517 -0.27264,3.66977 -1.52208,1.52208 -3.94589,2.123 -10.63795,2.63739 -4.76671,0.3664 -9.26539,1.03557 -9.99705,1.48706 -1.4283,0.88135 -2.53262,13.50664 -2.72433,31.14641 -0.10545,9.70191 -0.0939,9.75 2.33733,9.75 1.34381,0 3.06442,0.88678 3.82358,1.97063 1.24133,1.77226 27.8343,2.28066 15.3067,2.28066 -99.27263,0 -35.32358,0.30815 -181.07358,0.3059 -145.75,-0.002 -257.660756,-0.13982 -248.690567,-0.30571 z m 78.190567,-22.75151 0,-22.5 -34.108412,0 -34.108406,0 0.69257,2.75 c 0.674287,2.6774 8.524246,41.29003 8.524246,41.92933 0,0.17637 13.275,0.32067 29.5,0.32067 l 29.500002,0 z m 322,21.7 c 0,-0.44 -0.52937,-1.32937 -1.17637,-1.97637 -0.90183,-0.90183 -0.80925,-1.5903 0.39669,-2.95 1.31016,-1.4772 1.48421,-3.7204 1.04139,-13.42175 -0.53144,-11.64274 -0.53335,-11.65005 -4.1467,-15.8247 -3.8889,-4.49301 -6.62935,-4.74881 -7.42036,-0.69263 l -0.42229,2.16545 -0.13618,-2.21482 c -0.0813,-1.32165 0.7084,-2.66682 1.95817,-3.33567 1.73372,-0.92786 2.51087,-0.72957 4.51324,1.15157 3.66401,3.44216 4.62623,1.55883 3.80933,-7.45593 -0.38103,-4.20483 -1.09053,-7.64515 -1.57666,-7.64515 -1.01811,0 -8.45964,11.22543 -9.39483,14.17194 -1.02113,3.21731 0.22508,6.15861 6.04799,14.27455 l 5.51594,7.68809 -4.1144,6.92557 c -2.26928,3.81977 -3.85505,7.60146 -3.53607,8.43271 0.60778,1.58387 8.64111,2.24127 8.64111,0.70714 z m 13.75084,-0.45 c -0.22871,-0.6875 -1.72871,-1.48026 -3.33334,-1.76169 l -2.9175,-0.51169 0,-11.48831 c 0,-6.31857 0.383,-18.53563 0.8511,-27.14902 0.83698,-15.40086 0.81561,-15.6797 -1.28777,-16.8054 -3.12161,-1.67063 -5.90867,-0.35752 -6.96101,3.27965 -0.72215,2.49593 -0.94149,2.69886 -1.01213,0.93646 -0.0921,-2.29814 3.05391,-6.25 4.97555,-6.25 0.58616,0 1.93616,0.46583 3,1.03518 1.78671,0.95622 1.93484,0.67015 1.94181,-3.75 0.004,-2.63185 0.47495,-7.66579 1.04622,-11.18653 0.57126,-3.52075 0.73816,-7.76955 0.37087,-9.44178 l -0.66779,-3.04041 -1.34824,2.57319 c -0.74153,1.41525 -2.06941,2.84995 -2.95086,3.18819 -1.93264,0.74162 -5.45173,-0.97066 -5.47306,-2.66302 -0.0108,-0.85938 -0.26345,-0.82335 -0.86338,0.12314 -1.11829,1.76427 -0.60797,31.47303 0.80153,46.66204 0.61246,6.6 1.21787,17.73666 1.34536,24.74813 l 0.2318,12.74812 6.33333,0.002 c 4.6224,10e-4 6.221,-0.33581 5.91751,-1.24813 z m -12.94397,-4.27646 c -0.30789,-0.30789 -0.86705,0.24711 -1.24258,1.23333 -0.54268,1.4252 -0.42782,1.54006 0.5598,0.5598 0.68342,-0.67834 0.99067,-1.48524 0.68278,-1.79313 z m -2.12376,-29.66104 c -0.31922,-0.79773 -0.55618,-0.56078 -0.60416,0.60417 -0.0434,1.05416 0.19293,1.64479 0.52522,1.3125 0.33229,-0.3323 0.36781,-1.1948 0.0789,-1.91667 z m 23.5109,-12.34251 c 7.96563,-0.65238 11.29303,-2.38295 8.99678,-4.6792 -0.8326,-0.8326 -2.16422,-0.65558 -5.13049,0.68202 -3.888,1.75324 -9.73629,1.73996 -14.35551,-0.0326 -1.38233,-0.53045 -1.70479,-0.0629 -1.70479,2.47185 0,2.71412 0.29649,3.06424 2.25,2.65706 1.2375,-0.25794 5.7123,-0.75255 9.94401,-1.09913 z m -5.44401,-7.02213 c 1.75324,-0.54013 1.64645,-7.44786 -0.11514,-7.44786 -2.53484,0 -6.63486,4.07331 -6.63486,6.59163 0,2.47001 1.07081,2.60584 6.75,0.85623 z m -10.32143,-29.01929 c 2.31511,-2.31511 1.98343,-3.1434 -2.35559,-5.8825 -6.30126,-3.97781 -11.267,-8.76617 -12.73536,-12.28045 -0.89152,-2.13371 -2.05304,-3.26562 -3.35104,-3.26562 -3.97105,0 -2.1226,3.75304 6.89529,14 8.82744,10.03056 8.8988,10.07647 11.5467,7.42857 z m 2.02438,-7.58909 c 2.08564,-0.95028 2.54705,-1.85605 2.54705,-5 0,-4.12851 -0.54193,-4.46094 -4.40383,-2.70134 -3.54095,1.61336 -4.83674,8.86186 -1.58421,8.86186 0.49167,0 2.04011,-0.52223 3.44099,-1.16052 z m -9.90423,-6.84793 c -0.0523,-4.30633 -2.04019,-5.93515 -5.13183,-4.20497 -1.41263,0.79054 -1.20698,1.3829 1.58341,4.56098 1.76379,2.00884 3.29469,3.65244 3.40202,3.65244 0.10732,0 0.1732,-1.8038 0.1464,-4.00845 z M 122.97042,156.4846 c 3.90091,-1.9901 3.96016,-2.10403 3.96016,-7.61501 l 0,-5.59469 -2.75,1.83131 c -1.90442,1.26822 -4.51803,1.81363 -8.5,1.7738 -5.62929,-0.0563 -5.75,6.1e-4 -5.75,2.71112 0,1.75077 -0.90516,3.48063 -2.46209,4.70531 l -2.46209,1.93668 2.21209,1.06822 c 3.70214,1.78776 11.43233,1.38695 15.75193,-0.81674 z m -15.23984,-3.17968 c 0.66,-0.66 1.20237,-2.3475 1.20526,-3.75 0.006,-3.02559 1.32213,-5.12535 10.24474,-16.34767 3.7125,-4.66935 6.75,-9.21257 6.75,-10.09603 0,-1.03223 0.86423,-1.6063 2.41821,-1.6063 5.21551,0 7.12687,-2.14972 3.96622,-4.46084 -1.47134,-1.07588 -1.32618,-2.58774 1.62605,-16.9359 2.58416,-12.559256 3.01758,-16.246257 2.13701,-18.178909 -1.40038,-3.0735 -3.6605,-3.09723 -5.65101,-0.05933 -1.1931,1.820903 -1.31341,2.986283 -0.52295,5.065354 0.73166,1.924417 0.59562,6.588058 -0.47343,16.230355 -1.81835,16.4005 -1.81426,15.33927 -0.0591,15.33927 0.79254,0 1.66878,0.36858 1.94719,0.81906 0.27841,0.45048 -0.78474,0.62958 -2.36256,0.39801 -2.34862,-0.34471 -3.14178,0.0961 -4.37451,2.43094 -0.82818,1.56859 -5.1878,6.45199 -9.68807,10.85199 -7.97733,7.7996 -13.96305,14.93718 -13.96305,16.65004 0,1.07685 3.73424,4.84996 4.8,4.84996 0.44,0 1.34,-0.54 2,-1.2 z m -7.70567,-3.52138 c 1.70117,-4.60821 -5.902952,-7.35755 -9.464572,-3.422 -1.88104,2.07853 -1.1076,3.2196 3.42411,5.0516 3.43559,1.38888 5.09103,0.94228 6.040462,-1.6296 z m 33.95533,0.1957 c 3.11692,-1.61182 4.0869,-3.12444 1.32359,-2.06406 -1.98928,0.76336 -4.39605,-1.0698 -4.30986,-3.2827 0.0429,-1.1014 0.35576,-0.90018 0.96777,0.62244 1.03762,2.58144 0.99766,2.56974 4.38193,1.28304 3.47271,-1.32032 20.42687,-34.88614 21.28628,-42.14254 0.33704,-2.8457 0.17973,-4.890502 -0.37621,-4.890502 -0.52548,0 -2.27566,2.787582 -3.88929,6.194632 -1.61363,3.40705 -7.09637,12.23094 -12.18387,19.60865 -5.0875,7.37771 -9.25,13.84168 -9.25,14.36438 0,0.52271 -0.3375,0.74328 -0.75,0.49017 -0.4125,-0.25311 -0.8884,2.19533 -1.05756,5.44098 -0.16915,3.24566 -0.0343,5.90119 0.29966,5.90119 0.33397,0 1.93487,-0.68656 3.55756,-1.52568 z m -9.47926,-6.1124 c 2.23634,-1.46531 2.4296,-2.22577 2.4296,-9.56026 0,-4.38258 -0.38553,-7.81833 -0.85673,-7.63499 -0.4712,0.18333 -4.08653,4.37206 -8.03408,9.30829 -6.18845,7.73837 -6.93155,9.07825 -5.39328,9.72468 2.50904,1.05437 8.96899,0.0529 11.85449,-1.83772 z m 102.19697,-7.2344 c 6.22035,-1.63309 9.95083,-3.49028 17.87217,-8.89749 1.75536,-1.19823 1.74133,-1.23932 -0.24836,-0.72742 -2.63803,0.6787 -4.64588,-1.59853 -4.78607,-5.42818 l -0.10511,-2.87149 -4.5,3.27876 c -2.475,1.80331 -6.075,3.61089 -8,4.01684 -5.55017,1.17043 -7,2.30213 -7,5.46406 0,1.93346 -0.87346,3.5793 -2.63486,4.96482 l -2.63486,2.07258 2.45249,0 c 1.34887,0 5.66194,-0.84261 9.5846,-1.87248 z m -8.96737,-1.32752 c 0.66,-0.66 1.2,-2.45143 1.2,-3.98095 0,-2.13169 -0.58314,-2.92731 -2.49776,-3.40784 -1.37377,-0.3448 -3.17056,-0.36873 -3.99286,-0.0532 -0.8223,0.31554 -6.31565,-0.31194 -12.20743,-1.39442 -11.06374,-2.03269 -13.71758,-1.92883 -14.67818,0.57446 -0.42904,1.11804 0.2977,1.46193 3.08952,1.46193 3.98466,0 19.68191,3.93813 18.88274,4.73731 -0.27167,0.27166 -1.96914,-0.0203 -3.77216,-0.64886 -2.53625,-0.88415 -3.00861,-0.87319 -2.08703,0.0484 0.65516,0.65516 3.44015,1.23515 6.18888,1.28888 2.74873,0.0537 5.55493,0.65493 6.23599,1.33599 1.54326,1.54326 2.12717,1.54941 3.63829,0.0383 z m -36.11689,-7.9875 c -0.31922,-0.79773 -0.55618,-0.56078 -0.60416,0.60417 -0.0434,1.05416 0.19292,1.64479 0.52522,1.3125 0.33229,-0.3323 0.36781,-1.1948 0.0789,-1.91667 z m 63.72998,-1.77946 c 3.47634,-1.3217 20.16587,-34.378402 21.16698,-41.925112 0.40039,-3.018321 0.29102,-5.10793 -0.26737,-5.10793 -0.51973,0 -2.2652,2.787583 -3.87883,6.19463 -1.61363,3.407046 -7.06899,12.191331 -12.12303,19.520632 -5.05404,7.3293 -9.453,14.15728 -9.77547,15.17329 -0.55011,1.73326 0.86773,7.11145 1.87478,7.11145 0.25281,0 1.60413,-0.43513 3.00294,-0.96696 z m -97.7392,-34.373602 c 1.1581,-1.158101 -1.01286,-4.783368 -3.6951,-6.170407 -4.23342,-2.189188 -5.80033,-1.86926 -6.17584,1.260967 -0.56023,4.670085 1.13416,6.482185 5.52964,5.913776 2.10792,-0.27259 4.06151,-0.724541 4.3413,-1.004336 z M 128.34001,85.12949 c -0.29029,-0.756486 0.59542,-2.668986 1.96824,-4.25 2.24039,-2.580154 2.71732,-2.739448 4.65656,-1.555284 1.18829,0.725608 2.35999,1.119822 2.60378,0.876031 0.74175,-0.741742 -3.7893,-7.845977 -9.10804,-14.280513 -2.76648,-3.346857 -5.83152,-7.570307 -6.81119,-9.385443 -0.97968,-1.815137 -2.02864,-3.052841 -2.33102,-2.750453 -0.30239,0.302389 -0.0275,1.525772 0.61092,2.718631 1.67866,3.136602 -1.35601,6.380993 -5.24163,5.60387 l -2.7889,-0.557781 3.90571,5.228185 c 2.14813,2.875502 5.1316,7.703185 6.62992,10.728185 2.41429,4.874284 5.2197,9 6.11982,9 0.1725,0 0.0761,-0.618943 -0.21417,-1.375428 z m -9.60669,-24.886889 c 0.73346,-0.883761 0.6952,-2.429788 -0.12755,-5.15531 -0.91126,-3.018678 -3.21972,-5.646582 -10.2787,-11.701073 -8.519672,-7.307325 -22.396492,-22.031653 -22.396492,-23.764333 0,-1.117451 -9.870013,-5.580287 -10.639522,-4.810778 -0.354936,0.354936 1.51447,3.243745 4.154237,6.419575 2.639766,3.17583 10.786685,13.275432 18.104265,22.443561 7.317572,9.168129 14.109362,16.878428 15.092852,17.133999 3.31821,0.862269 5.03843,0.702519 6.09091,-0.565641 z M 418.90823,230.25492 c -3.2682,-2.54239 -6.12995,-6.84248 -13.14381,-19.75 -4.9313,-9.075 -10.03283,-18.075 -11.33674,-20 -1.30391,-1.925 -2.65137,-4.65151 -2.99437,-6.0589 -0.35324,-1.44944 -3.03068,-4.47964 -6.17531,-6.98892 -7.20287,-5.74757 -10.32742,-9.53041 -10.32742,-12.50323 0,-1.63535 -0.92389,-2.87535 -2.90604,-3.90036 -1.59833,-0.82653 -3.50818,-2.86308 -4.24411,-4.52568 -1.67411,-3.78207 -2.29123,-3.78574 -3.84985,-0.0229 -0.68345,1.65 -1.67555,3 -2.20465,3 -0.52911,0 -0.80977,-0.3375 -0.6237,-0.75 0.18608,-0.4125 0.99325,-2.44932 1.79372,-4.52626 0.97813,-2.53791 1.92117,-3.59752 2.87575,-3.23121 0.81565,0.31299 2.87528,-0.95305 4.83776,-2.97375 1.87957,-1.93533 3.11792,-2.35068 5.27736,-2.32201 3.72909,0.0495 7.8794,5.30017 8.65382,8.38571 0.34391,1.37024 0.0712,3.09663 -0.62084,3.93051 -1.06042,1.27773 -0.61874,1.48494 3.13834,1.47227 4.6985,-0.0158 6.62429,-0.85913 12.3288,-5.39875 2.95544,-2.49158 3.10225,-3.47235 5.77007,-0.80452 1.76149,1.76149 1.8964,2.36508 0.81882,3.66348 -0.70958,0.85499 -1.82585,1.55453 -2.4806,1.55453 -0.65476,0 -2.48385,1.35 -4.06465,3 -1.62825,1.69953 -3.91323,3 -5.27112,3 l -2.39694,0 3.08403,3.8939 c 1.69622,2.14165 2.63577,4.12324 2.96926,4.52627 0.33348,0.40303 1.29107,1.96349 2.09794,3.20846 0.80687,1.24498 1.28035,2.20543 1.74065,2.86643 0.23745,0.34099 2.00962,3.40366 4.12828,7.16541 2.11865,3.76174 5.05413,9.98953 6.52329,13.83953 1.46915,3.85 5.20543,12.23127 8.30284,18.62503 7.14798,14.75509 6.65502,18.12493 -1.70058,11.62497 z m 6.02235,0.73334 c 0,-0.83416 -2.41207,-6.34666 -5.36016,-12.25 -2.94808,-5.90334 -5.92516,-12.53334 -6.61572,-14.73334 -2.04949,-6.52932 -10.35548,-22.60697 -12.18497,-23.58608 -3.39035,-1.81446 -5.78845,0.94772 -5.8255,6.70993 -0.008,1.16812 2.61005,6.79312 5.8168,12.5 3.20674,5.70688 7.95513,14.31332 10.55196,19.12541 3.26188,6.04445 5.85924,9.52236 8.40169,11.25 4.2638,2.89733 5.2159,3.07696 5.2159,0.98408 z m -27.87513,-51.55017 c 1.05406,-0.56411 2.35716,-0.75329 2.8958,-0.4204 1.7847,1.10301 0.30469,-0.50075 -1.18796,-2.80385 -0.80687,-1.24498 -1.38445,-2.03341 -1.71794,-2.65125 -0.24847,-0.46033 -1.51418,-3.03676 -3.22457,-5.1963 -3.27437,-4.13423 -5.3561,-4.40741 -9.03275,-1.18534 -0.9034,0.7917 -2.89255,1.77377 -4.42033,2.18236 -2.76365,0.73911 -2.74153,0.77271 4.34904,6.6059 5.01832,4.12841 6.36944,7.27467 7.84361,8.94936 l 0.71679,3.08635 0.93093,-3.77059 c 0.51201,-2.07382 1.79333,-4.23213 2.84738,-4.79624 z M 384.3703,166.37368 c 1.52119,-1.19657 4.75988,-2.3455 7.38486,-2.61978 3.23387,-0.33791 5.6004,-1.33198 7.67542,-3.22411 1.65,-1.50456 3.7875,-3.01154 4.75,-3.34883 2.14525,-0.75178 2.23306,-2.03024 0.25236,-3.67408 -1.2315,-1.02206 -2.13823,-0.73283 -5.10238,1.62755 -5.89107,4.69112 -7.6462,5.3954 -12.9934,5.21384 -7.27611,-0.24704 -12.47893,3.6843 -9.20658,6.95665 1.7759,1.7759 4.19348,1.46493 7.23972,-0.93124 z m -1.98339,-8.21317 c 2.03335,-1.48682 1.65421,-4.69327 -0.95621,-8.08675 -1.45627,-1.8931 -1.53496,-1.88474 -3.99283,0.42431 -2.92451,2.74744 -3.14923,4.64003 -0.8523,7.17811 1.97096,2.17789 3.33008,2.29136 5.80134,0.48433 z"
       id="path2989"
       style="fill:#000000"
       inkscape:connector-curvature="0" />
    <path
       style="fill:#fefefe"
       d="m 269.25714,123.32087 c -2.61581,0.70091 -2.7839,1.05054 -1.96884,4.09238 0.62753,2.34198 1.64566,3.60061 3.44102,4.25437 1.40232,0.51064 2.79075,0.86377 3.08559,0.78477 1.26775,-0.3397 3.99558,-4.40682 3.69882,-5.51436 -0.62235,-2.32263 -5.35366,-4.39499 -8.25659,-3.61716 z m 12.27604,2.99713 c -0.45143,0.1047 -0.90394,0.3066 -1.34116,0.62425 -0.80405,0.58403 -1.7964,3.20212 -2.20419,5.81753 -0.92954,5.96172 -6.38185,16.84891 -8.75721,17.48538 -2.14202,0.57396 -2.83434,2.36823 -1.57983,4.09531 1.78139,2.45244 4.08799,0.30989 10.3153,-9.58022 3.46572,-5.50418 6.91128,-10.88088 7.65645,-11.94935 2.19948,-3.15367 -0.92941,-7.22606 -4.08936,-6.4929 z m 28.8455,-6.70383 -0.93054,3.18315 c -1.03346,3.53297 -1.03167,3.53746 2.24725,6.51538 7.2379,6.57344 29.30377,20.9017 33.78399,21.93714 2.51556,0.58139 4.90333,0.98976 5.30821,0.90704 1.6351,-0.33421 -0.14228,-2.81202 -3.13405,-4.36896 -1.75098,-0.91123 -10.83083,-7.70347 -20.17779,-15.09266 l -14.0051,-11.03828 z"
       id="path2997-6"
       inkscape:connector-curvature="0"
       sodipodi:nodetypes="ssssssccssssscccsscsscc" />
    <path
       style="fill:#0000fe"
       id="path2991-4"
       d="m 309.44318,129.76923 c -0.79903,-0.56596 -4.46349,-1.51497 -8.14323,-2.10894 -6.84189,-1.10438 -6.79169,-1.11762 -12.48355,3.29285 -1.10148,0.85351 -1.42691,0.58424 -1.56413,-1.29419 -0.21994,-3.01099 -4.33504,-5.30411 -6.8989,-3.84438 -3.2889,1.87253 -2.7676,-1.63131 0.63347,-4.25772 4.37502,-3.37853 12.6399,-4.69666 20.9938,-3.34822 7.01926,1.13301 7.73752,1.79526 6.28209,5.79219 -0.83048,2.28068 -0.70328,2.71301 1.33336,4.53182 2.38987,2.13424 2.28715,2.96487 -0.15291,1.23659 z"
       inkscape:connector-curvature="0"
       sodipodi:nodetypes="ssssssssss" />
    <path
       style="fill:#000000"
       d="m 294.27784,116.74642 c -6.20421,0.0666 -11.20338,1.63834 -14.44532,4.625 -3.1338,2.88704 -3.20225,2.90551 -5.53515,1.55859 -1.47486,-0.85151 -3.71227,-0.91341 -5.81055,-0.40625 -2.09828,0.50716 -4.05797,1.58419 -4.98242,3.01563 -0.73595,1.13955 -0.99673,3.34987 -0.57813,4.91211 0.41861,1.56224 0.22098,4.28978 -0.43945,6.06054 -1.48168,3.97283 -1.03152,7.65137 0.95508,7.80469 1.01574,0.0784 1.17363,-0.32132 0.49219,-1.25976 -0.54965,-0.7567 -0.48744,-2.5307 0.14062,-3.94141 0.99514,-2.23526 1.47198,-2.48871 3.70508,-1.9668 1.41411,0.33051 3.95531,-0.0257 5.66992,-0.79687 1.70887,-0.76861 3.18881,-1.09097 3.28906,-0.7168 0.43169,1.61107 -6.11132,13.19967 -7.6914,13.62305 -2.61906,0.70177 -3.78283,3.9066 -2.01367,5.54492 2.88891,2.67529 4.82415,1.15408 10.36328,-8.14258 5.04317,-8.46428 13.56542,-17.7702 17.15039,-18.72851 2.00318,-0.53572 14.0418,2.03276 17.5664,3.74609 1.76422,0.85759 8.99696,5.59763 16.07032,10.53516 8.48232,5.92104 14.43801,9.33291 17.49414,10.01953 5.61281,1.26101 6.11731,1.18301 6.34179,-0.95508 0.11313,-1.07755 -1.5955,-2.74548 -4.78125,-4.66992 -2.72668,-1.64714 -11.8669,-8.51459 -20.3125,-15.25782 -5.27201,-3.69138 -10.08259,-8.54521 -15.5664,-11.49804 -2.25978,-1.24531 -5.8572,-1.87327 -7.92774,-2.25391 -3.26568,-0.59953 -6.3342,-0.88181 -9.15429,-0.85156 z m 1.89258,0.94531 c 1.89909,0.0309 3.85259,0.20154 5.81054,0.51758 7.01926,1.13301 7.73668,1.79409 6.28125,5.79102 -0.83047,2.28068 -0.70265,2.71439 1.33399,4.5332 2.38986,2.13424 2.28772,2.96266 -0.15235,1.23437 -0.79903,-0.56596 -4.46478,-1.51343 -8.14453,-2.10742 -6.84188,-1.10437 -6.79055,-1.11943 -12.48242,3.29102 -1.10148,0.85351 -1.42724,0.58545 -1.56445,-1.29297 -0.21994,-3.01099 -4.33459,-5.30348 -6.89844,-3.84375 -3.2889,1.87254 -2.76825,-1.6314 0.63281,-4.25781 1.64062,-1.26695 3.82907,-2.24489 6.36328,-2.90039 2.63981,-0.68281 5.65516,-1.01637 8.82032,-0.96485 z m 14.1101,2.45579 c 0,0 1.71545,0.76054 2.24433,1.09 2.35334,1.39211 14.95025,11.45812 14.95025,11.45812 9.34695,7.38918 18.42675,14.18056 20.17774,15.09179 1.75099,0.91124 3.33863,2.23323 3.52734,2.9375 0.45648,1.7036 -0.29805,1.77415 -5.70117,0.5254 -4.48022,-1.03545 -26.54531,-15.36406 -33.7832,-21.9375 -3.27892,-2.97792 -3.28151,-2.98265 -2.24805,-6.51563 z m -39.8601,3.01101 c 2.85884,-0.0927 6.54919,1.747 7.09374,3.7793 0.17862,0.66658 -0.46079,2.14957 -1.41992,3.29296 -0.95912,1.14339 -1.98445,2.1417 -2.27929,2.22071 -0.29484,0.079 -1.68362,-0.27256 -3.08594,-0.78321 -1.79536,-0.65375 -2.81388,-1.91388 -3.44141,-4.25585 -0.81506,-3.04185 -0.64706,-3.39089 1.96875,-4.0918 0.36287,-0.0972 0.75566,-0.14887 1.16407,-0.16211 z m 11.70312,3.07617 c 2.93941,-0.14515 5.56006,3.6196 3.49805,6.57617 -0.74518,1.06846 -4.19054,6.44504 -7.65625,11.94922 -6.22732,9.89011 -8.53307,12.03252 -10.31446,9.58008 -1.25451,-1.7271 -0.56194,-3.52175 1.58008,-4.0957 2.37537,-0.63648 7.82827,-11.52265 8.75781,-17.48438 0.40779,-2.61541 1.39908,-5.23433 2.20313,-5.81836 0.43722,-0.31759 0.89037,-0.51831 1.3418,-0.62304 0.19749,-0.0458 0.39388,-0.0743 0.58984,-0.084 z"
       id="path2989-1"
       inkscape:connector-curvature="0"
       sodipodi:nodetypes="sssssssscssccssscssssscccssssssssssssscccssssccscsccsssssssssccs" />
  </g>
</svg>
