<?xml version="1.0" encoding="UTF-8" standalone="no"?>
<!-- Created with Inkscape (http://www.inkscape.org/) -->

<svg
   xmlns:dc="http://purl.org/dc/elements/1.1/"
   xmlns:cc="http://creativecommons.org/ns#"
   xmlns:rdf="http://www.w3.org/1999/02/22-rdf-syntax-ns#"
   xmlns:svg="http://www.w3.org/2000/svg"
   xmlns="http://www.w3.org/2000/svg"
   xmlns:sodipodi="http://sodipodi.sourceforge.net/DTD/sodipodi-0.dtd"
   xmlns:inkscape="http://www.inkscape.org/namespaces/inkscape"
   version="1.1"
   width="551"
   height="296"
   id="svg2"
   inkscape:version="0.91 r13725"
   sodipodi:docname="ub810705.svg">
  <sodipodi:namedview
     pagecolor="#ffe1d7"
     bordercolor="#666666"
     borderopacity="1"
     objecttolerance="10"
     gridtolerance="10"
     guidetolerance="10"
     inkscape:pageopacity="0"
     inkscape:pageshadow="2"
     inkscape:window-width="1455"
     inkscape:window-height="962"
     id="namedview11"
     showgrid="false"
     inkscape:zoom="0.553539"
     inkscape:cx="263.08923"
     inkscape:cy="187.16762"
     inkscape:window-x="0"
     inkscape:window-y="0"
     inkscape:window-maximized="0"
     inkscape:current-layer="svg2" />
  <metadata
     id="metadata8">
    <rdf:RDF>
      <cc:Work
         rdf:about="">
        <dc:format>image/svg+xml</dc:format>
        <dc:type
           rdf:resource="http://purl.org/dc/dcmitype/StillImage" />
        <dc:title></dc:title>
      </cc:Work>
    </rdf:RDF>
  </metadata>
  <defs
     id="defs6" />
  <g
     id="g4462"
     transform="translate(2.8951923,1.8982013)">
    <path
       inkscape:connector-curvature="0"
       id="path8313"
       d="m 430.34003,146.45422 c -2.09139,0.20086 -7.49681,7.2464 -7.9727,10.39185 -0.20727,1.37001 0.18603,3.05158 0.87488,3.73621 0.99632,0.9902 0.66207,1.42219 -1.6334,2.11506 -1.99644,0.60261 -3.97204,2.64176 -6.41267,6.61408 -1.94019,3.15783 -3.48471,6.19009 -3.43191,6.73984 0.0528,0.54975 -0.72198,1.89667 -1.72177,2.99276 -0.99979,1.0961 -1.7852,2.33226 -1.74548,2.74587 0.0397,0.41361 -1.35861,3.98011 -3.10792,7.92719 -1.74931,3.94706 -4.07607,10.42729 -5.17042,14.40011 -1.09435,3.97282 -4.01212,12.67286 -6.48408,19.33346 -2.65686,7.15882 -4.17688,12.74713 -3.71813,13.66807 1.02359,2.05484 2.4479,1.82497 6.16717,-0.99847 2.3816,-1.80798 4.96058,-6.76098 11.42716,-21.943 4.59347,-10.7844 8.90459,-20.37026 9.57974,-21.30053 0.67515,-0.93029 1.63841,-3.34654 2.14095,-5.36991 0.64907,-2.6133 3.11361,-5.83062 8.51034,-11.10668 7.43679,-7.2705 7.69226,-7.42128 12.09484,-7.18729 3.54655,0.1885 6.07842,-0.50312 11.9712,-3.26491 8.87933,-4.16145 9.59878,-4.79067 7.66484,-6.71275 -1.56044,-1.55086 -2.33763,-1.40952 -13.54751,2.46075 -3.32735,1.14881 -6.94601,1.89477 -8.04226,1.6593 -1.90846,-0.40994 -1.90049,-0.54664 0.16258,-3.25115 1.18507,-1.55353 2.09552,-3.43231 2.02432,-4.17358 -0.22851,-2.37928 1.57257,-1.60443 3.14367,1.35213 0.83807,1.5771 1.95512,2.82602 2.48179,2.77544 0.52668,-0.0506 0.77314,-0.41331 0.54849,-0.80613 -0.22466,-0.39282 -1.22203,-2.34235 -2.2174,-4.33325 -1.21628,-2.43277 -2.25762,-3.39846 -3.17281,-2.94256 -0.78199,0.38953 -2.95325,-0.6727 -5.09993,-2.49652 -2.05598,-1.74677 -4.44649,-3.10867 -5.31358,-3.02539 z"
       style="fill:#000000" />
    <path
       id="path8261"
       d="m 390.82837,236.25444 c -0.36473,-0.7322 1.29936,-6.4299 3.69799,-12.66154 2.39863,-6.23164 4.75148,-13.17603 5.22855,-15.43198 1.41587,-6.69535 8.14673,-23.49344 9.87423,-24.64297 3.22048,-2.143 5.85345,0.39028 6.44817,6.20402 0.12396,1.20698 -0.83479,4.46355 -2.12948,7.23673 -1.29468,2.77319 -5.34323,12.11032 -8.99677,20.74918 -4.78644,11.31761 -7.42086,16.27306 -9.42695,17.73248 -3.36022,2.44455 -3.84194,2.52806 -4.69574,0.81408 z"
       style="fill:#fefefe"
       inkscape:connector-curvature="0" />
    <path
       id="path8249"
       d="m 424.46543,170.30892 c -1.6501,-0.88664 -1.20095,-5.7054 0.61616,-6.61057 0.66275,-0.33014 4.34317,-0.25087 8.17874,0.17615 6.12683,0.68211 7.6859,0.5247 12.83777,-1.29628 13.24269,-4.68063 17.96239,-3.33624 6.49901,1.85123 -4.53531,2.05233 -9.4272,3.44087 -13.94245,3.95749 -3.82567,0.43775 -8.27156,1.21673 -9.87975,1.73113 -1.60819,0.51441 -3.54746,0.60027 -4.30949,0.19081 z"
       style="fill:#fefefe"
       inkscape:connector-curvature="0" />
    <path
       id="path8243"
       d="m 424.35588,160.60413 c -1.53422,-1.52481 -1.22769,-4.93876 0.72279,-8.05013 1.26861,-2.02365 1.34774,-2.02285 4.0151,0.0406 3.225,2.49488 3.65493,4.75741 1.37831,7.25331 -2.06167,2.26027 -4.32169,2.53968 -6.1162,0.75618 z"
       style="fill:#fefefe"
       inkscape:connector-curvature="0" />
    <path
       id="path8189"
       d="m 416.42304,186.73138 c -1.04652,-3.61868 -4.26721,-6.08771 -6.11312,-4.68641 -1.47632,1.12073 -1.22873,-1.03496 0.29495,-2.56805 0.76506,-0.76978 1.93608,-2.9053 2.60224,-4.74559 1.6149,-4.46117 6.77896,-11.20905 8.72087,-11.39556 1.31333,-0.12614 1.43235,0.35633 0.76331,3.09411 -0.68093,2.78639 -0.50681,3.41692 1.23538,4.47372 1.26463,0.76712 3.27322,0.91071 5.33594,0.38147 1.81936,-0.46679 3.15629,-0.66756 2.97096,-0.44615 -0.18532,0.22141 -3.22708,3.19509 -6.75945,6.60817 -4.23358,4.09062 -6.69036,7.35284 -7.20848,9.57172 l -0.786,3.36614 -1.0566,-3.65357 z"
       style="fill:#0000fe"
       inkscape:connector-curvature="0" />
    <path
       inkscape:connector-curvature="0"
       id="path8301"
       d="m 418.19688,134.46776 c -0.27843,-0.27771 -0.64168,-0.54014 -1.09795,-0.8162 -1.25014,-0.75657 -3.31792,-2.47976 -4.59619,-3.82832 -3.49083,-3.68288 -6.66014,-3.41338 -11.0085,0.93498 -2.00093,2.00093 -3.6501,4.4456 -3.66535,5.43311 -0.0226,1.46297 -1.13776,0.54832 -6.02146,-4.93869 -3.29656,-3.7038 -6.68973,-7.62918 -7.53925,-8.72421 -1.19095,-1.53513 -1.86319,-1.67234 -2.93752,-0.598 -1.95047,1.95046 -0.33188,6.02346 4.22192,10.62732 5.76417,5.82752 5.67358,6.51632 -1.26921,9.74896 l -5.835,2.71656 -6.32391,-5.35164 c -5.37778,-4.55073 -14.54105,-14.10103 -25.64505,-26.73057 -2.26223,-2.57303 -2.85155,-2.80531 -4.06035,-1.59652 -0.97393,0.97394 -0.90131,3.1027 0.23341,6.83767 1.4487,4.76845 2.87281,6.84156 11.78602,17.16391 5.5756,6.45706 10.13413,12.08087 10.13014,12.49728 -0.004,0.41641 2.2347,2.76169 4.97599,5.21353 6.25157,5.5915 7.9452,5.72659 20.37766,1.61171 8.59615,-2.84513 9.8225,-3.5327 12.68096,-7.11802 2.25302,-2.82594 3.85701,-4.06858 5.56709,-4.31308 2.70625,-0.38693 5.8096,-3.14234 6.37638,-5.66099 0.65419,-2.90702 2.26567,-2.25294 1.94731,0.78997 -0.40793,3.90315 1.40641,3.72875 2.22767,-0.21407 0.39209,-1.88235 0.3105,-2.85155 -0.52481,-3.68469 z"
       style="fill:#000000" />
    <path
       id="path8233"
       d="m 365.28215,147.0107 c 0,-0.34761 -4.54444,-5.90017 -10.09875,-12.33904 -8.46779,-9.81632 -10.36918,-12.53308 -11.7732,-16.82186 -0.96122,-2.93621 -1.1868,-5.60249 -0.52959,-6.2597 0.98232,-0.98232 1.53279,-0.57906 3.87718,2.84034 1.50278,2.19186 9.66419,10.91707 18.13649,19.38937 12.92266,12.92267 15.34151,15.68324 15.01518,17.13651 -0.58027,2.58427 -1.15765,2.89503 -5.10053,2.74517 -2.63337,-0.10009 -4.40307,-0.93506 -6.5659,-3.0979 -1.62848,-1.62848 -2.96087,-3.24528 -2.96088,-3.59289 z"
       style="fill:#fefefe"
       inkscape:connector-curvature="0" />
    <path
       id="path8225"
       d="m 391.67069,140.63567 c -1.00934,-3.32916 -2.62196,-5.99599 -5.16125,-8.53527 -4.49012,-4.49012 -6.33876,-8.30289 -4.78098,-9.86067 0.90433,-0.90433 1.38369,-0.68102 2.17074,1.01124 0.55555,1.19454 4.78311,6.03562 9.39456,10.75798 9.07545,9.29371 10.45785,11.46246 8.53321,13.38711 -3.13508,3.13507 -8.17284,-0.21825 -10.15628,-6.76039 z"
       style="fill:#fefefe"
       inkscape:connector-curvature="0" />
    <path
       id="path8219"
       d="m 398.56334,136.55061 c 0,-0.79601 1.05006,-2.49733 2.33346,-3.78073 2.17285,-2.17286 2.49556,-2.17134 4.68883,0.0219 1.77131,1.77131 2.15713,3.01021 1.55588,4.99601 -0.43974,1.45234 -1.43457,2.92344 -2.21073,3.26912 -1.72881,0.76994 -6.36744,-2.5129 -6.36744,-4.50633 z"
       style="fill:#fefefe"
       inkscape:connector-curvature="0" />
    <path
       id="path8185"
       d="m 375.54336,154.54234 c 1.96953,0 3.91364,-0.33267 4.32023,-0.73925 0.87043,-0.87044 0.98506,-5.55091 0.17558,-7.16985 -0.40645,-0.81294 0.98806,-1.83403 5.00056,-3.66151 3.06031,-1.3938 5.73089,-2.36751 5.93463,-2.16377 0.20373,0.20373 0.73165,1.77433 1.17314,3.49021 0.73199,2.84493 1.09504,3.21754 4.12073,4.2292 1.82493,0.61015 3.01789,1.40953 2.65101,1.77641 -1.13024,1.13025 -19.22447,6.86229 -21.03434,6.66345 -0.93787,-0.10304 -2.65412,-0.69079 -3.81388,-1.3061 -2.08093,-1.10404 -2.06157,-1.11876 1.47231,-1.11876 z"
       style="fill:#0000fe"
       inkscape:connector-curvature="0" />
    <path
       inkscape:connector-curvature="0"
       id="path8283"
       d="m 337.10089,72.881809 c -5.06468,0.0246 -12.18062,2.74242 -30.86133,11.61523 -13.79831,6.55381 -14.9707,7.78977 -14.9707,15.798831 0,2.47103 0.85658,6.16253 1.9043,8.20312 1.91381,3.72743 8.69326,11.57591 10.63672,12.31446 0.57255,0.21759 2.46671,2.94461 4.20898,6.05859 2.50566,4.47841 2.90064,5.88246 1.89062,6.7207 -0.91968,0.76327 -1.9054,0.61965 -3.52343,-0.51367 -3.10886,-2.17752 -3.94655,-0.87343 -1.00977,1.57227 2.78395,2.31842 5.89258,2.67055 5.89258,0.66797 0,-0.76443 1.98848,-2.32389 4.41992,-3.4668 4.36716,-2.05281 7.58008,-5.3841 7.58008,-7.86133 0,-2.18944 -7.19322,-9.4213 -8.76953,-8.81641 -1.08804,0.41752 -1.31802,-0.01 -0.91406,-1.70312 0.29672,-1.24371 0.8485,-4.51172 1.22656,-7.26172 0.78152,-5.68482 5.61605,-14.979381 8.62891,-16.591801 1.35881,-0.72722 1.84499,-1.73715 1.49023,-3.09375 -0.45003,-1.72092 0.85582,-2.66115 8.97461,-6.45507 5.62234,-2.62734 9.341,-4.93465 9.10547,-5.6504 -0.21894,-0.66534 -2.43415,-1.34351 -4.92188,-1.50781 -0.32222,-0.0213 -0.65063,-0.0309 -0.98828,-0.0293 z m 2.77344,0.73242 c 1.47383,0.0171 2.39453,0.28641 2.39453,0.85547 0,1.07153 -18.02337,9.43476 -20.77148,9.63867 -1.24962,0.0927 -3.30185,1.27845 -4.56055,2.63476 -1.2587,1.3563 -4.73685,4.14614 -7.72852,6.19922 -6.38678,4.38302 -10.97982,5.62838 -12.77539,3.46485 -0.9643,-1.16135 -0.96379,-2.04136 -0.002,-4.15235 1.25424,-2.75276 13.0493,-8.97721 29.61328,-15.625 4.66914,-1.87391 10.58765,-3.05315 13.83008,-3.01562 z m -17.83985,11.1582 c 0.85988,0.055 1.53475,0.55929 1.89649,1.50195 0.36307,0.94612 -0.21464,2.13352 -1.46289,3.00782 -3.68162,2.57871 -7.85769,11.485031 -9.10938,19.427731 -0.65006,4.125 -1.72237,8.00559 -2.38476,8.62305 -0.66238,0.61746 -2.72061,1.40392 -4.57227,1.74804 -2.9778,0.55342 -3.76717,0.19235 -6.83398,-3.12304 -4.89696,-5.29389 -7.29883,-10.44916 -7.29883,-15.66211 0,-4.628671 1.65239,-9.585941 3.19531,-9.585941 0.48107,0 0.37296,0.93822 -0.24023,2.08398 -1.47815,2.76195 1.45352,6.26324 4.7207,5.63868 1.78268,-0.34079 2.35333,0.13716 2.8457,2.378901 0.33889,1.54296 1.53863,3.97691 2.66602,5.41016 l 2.05078,2.60547 -2.11914,2.25586 c -2.14777,2.2862 -2.82749,6.07062 -1.26367,7.03711 0.47055,0.29082 0.64552,-0.57046 0.38867,-1.91407 -0.31682,-1.65733 0.37287,-3.44137 2.14453,-5.54687 1.4363,-1.70694 2.61133,-4.17184 2.61133,-5.47852 0,-2.80696 7.41927,-17.418071 9.75977,-19.220701 1.10231,-0.84898 2.14598,-1.24252 3.00585,-1.1875 z m -6.55273,4.71875 -2.80664,4.78906 c -1.54352,2.63381 -3.32213,6.821531 -3.95313,9.306641 l -1.14843,4.51758 -1.58399,-2.44726 c -3.71453,-5.736791 -3.32135,-7.129371 3.33594,-11.824221 l 6.15625,-4.3418 z m -0.22266,26.410161 c 0.85323,0.008 1.56024,0.76545 2.98243,2.27929 l 2.32031,2.47071 -2.39649,1.99609 c -3.08625,2.57004 -4.98278,2.5611 -7.76953,-0.0352 l -2.25195,-2.09765 3.25586,-2.40235 c 2.00573,-1.47977 3.00615,-2.21942 3.85937,-2.21093 z"
       style="fill:#000000" />
    <path
       id="path8217"
       d="m 310.3949,122.61272 -2.25109,-2.0972 3.2568,-2.4028 c 4.01146,-2.95955 3.99643,-2.9597 6.8408,0.068 l 2.32118,2.47079 -2.39686,1.99594 c -3.08625,2.57002 -4.98408,2.56154 -7.77083,-0.0347 z"
       style="fill:#fefefe"
       inkscape:connector-curvature="0" />
    <path
       id="path8213"
       d="m 304.93553,118.04326 c -1.37888,-1.37887 -0.58214,-4.64507 1.83333,-7.5157 1.375,-1.63409 2.5,-4.04018 2.5,-5.34685 0,-2.80696 7.41878,-17.418153 9.75928,-19.220781 2.20462,-1.697973 4.18009,-1.571565 4.90356,0.313771 0.36307,0.946122 -0.2148,2.134538 -1.46305,3.008843 -3.66639,2.56804 -7.8574,11.485937 -9.10576,19.375827 -0.64819,4.09664 -1.66461,8.03414 -2.25872,8.75 -1.13638,1.36926 -5.03321,1.77033 -6.16864,0.63489 z"
       style="fill:#fefefe"
       inkscape:connector-curvature="0" />
    <path
       id="path8207"
       d="m 296.43329,96.408055 c -0.96383,-1.161341 -0.96437,-2.043114 -0.003,-4.154104 1.25424,-2.752759 13.05015,-8.97606 29.61413,-15.623856 6.79194,-2.72569 16.22444,-3.982232 16.22444,-2.161261 0,1.071523 -18.02393,9.43659 -20.77204,9.640491 -1.24962,0.09272 -3.30189,1.278283 -4.56059,2.63459 -3.56704,3.843636 -12.84409,9.867938 -16.22338,10.53509 -2.07352,0.409362 -3.44938,0.129355 -4.27956,-0.87095 z"
       style="fill:#fefefe"
       inkscape:connector-curvature="0" />
    <path
       id="path8197"
       d="m 302.26886,144.22306 c -0.825,-0.20897 -3.17425,-0.65282 -5.22056,-0.98633 -3.68582,-0.60072 -9.77944,-4.77838 -9.77944,-6.70459 0,-0.55 1.35214,0.13775 3.00475,1.52834 3.46589,2.91635 9.62184,4.20613 19.15074,4.01244 6.96728,-0.14163 12.64778,-2.46518 19.34451,-7.91268 2.83927,-2.30963 2.87945,-2.44064 0.75,-2.44534 -1.2375,-0.003 -2.25,-0.4165 -2.25,-0.91948 0,-0.96067 9.05068,-6.36815 9.65205,-5.76677 0.19135,0.19135 -0.1642,2.89792 -0.79012,6.01459 -1.1073,5.51364 -2.38296,7.2471 -3.03861,4.12907 -0.24626,-1.17117 -2.17068,-0.32313 -8.07468,3.55829 -7.04433,4.6311 -8.36693,5.13134 -14.5,5.48416 -3.71175,0.21353 -7.42364,0.21727 -8.24864,0.008 z"
       style="fill:#fe0000"
       inkscape:connector-curvature="0" />
    <path
       id="path8179"
       d="m 299.56978,115.95993 c -4.89845,-5.29552 -7.30092,-10.44968 -7.30092,-15.66311 0,-4.628671 1.65278,-9.586891 3.1957,-9.586891 0.48107,0 0.37297,0.937434 -0.24022,2.083187 -1.47815,2.761956 1.45239,6.26316 4.71957,5.6386 1.78268,-0.340782 2.3547,0.137174 2.84707,2.378914 0.33889,1.54296 1.53857,3.97803 2.66596,5.41128 l 2.04981,2.6059 -2.11895,2.25551 c -2.35889,2.51093 -2.74161,5.60394 -0.91894,7.42661 0.93333,0.93333 0.90775,1.2 -0.11513,1.2 -0.72332,0 -2.8761,-1.6875 -4.78395,-3.75 z"
       style="fill:#0000fe"
       inkscape:connector-curvature="0" />
    <path
       sodipodi:nodetypes="ccsssssssssscccscsssccssscccccscssscccsssccssccccssccsscsssscsccccccsssscccssssccsscccsssscssscccsscsscscccsscsscsscccsccsssccsssssscscccccsscc"
       inkscape:connector-curvature="0"
       id="path8355"
       d="m 480.86252,177.05079 c -0.16894,-0.004 -0.33706,0.002 -0.50195,0.0176 -0.79146,0.0738 -1.50547,0.37332 -1.8457,0.92383 -0.37423,0.60551 -1.48561,0.55542 -2.9961,-0.13281 -1.35212,-0.61606 -3.19127,-0.74331 -4.21289,-0.29297 -0.99757,0.43974 -3.96658,0.68148 -6.59765,0.53711 -6.39672,-0.35099 -7.7168,0.93393 -7.7168,7.51367 0,4.4316 0.36366,5.53652 2.13477,6.48438 1.30091,0.69623 1.716,1.4008 1.0625,1.80468 -3.04293,1.88063 -3.58538,8.19067 -1.58008,18.37305 0.50502,2.56434 0.31341,2.75 -2.83789,2.75 -4.60752,0 -5.7793,1.52083 -5.7793,7.5 0,5.66709 1.16156,7.4516 4.94922,7.59961 l 2.55078,0.0996 -2.5,0.80078 c -4.18694,1.34089 -8.75013,1.08636 -12.48633,-0.69531 -3.34129,-1.59332 -3.65487,-1.59318 -5.25195,0.004 -1.59809,1.59809 -1.58116,1.81532 0.27344,3.66992 1.52208,1.52208 3.94464,2.12428 10.63672,2.63867 4.7667,0.3664 9.26638,1.03484 9.99804,1.48633 1.4283,0.88135 2.5329,13.50671 2.72461,31.14648 l 0.10547,9.74991 -2.49219,0 c -1.40852,0 -3.03413,0.86935 -3.74023,2 -1.23928,1.9844 -2.33136,2 -140.00781,2 l -138.75977,0 0,-23.48828 0,-23.48633 -35.69922,-0.26367 -35.69921,-0.26172 -3.73243,-17.45508 c -2.052882,-9.60038 -3.50952,-17.81771 -3.236325,-18.25976 1.021107,-1.65218 -0.82214,-4.78516 -2.814453,-4.78516 -2.297437,0 -2.294892,0.0424 0.615235,13 0.926424,4.125 4.577103,21.675 8.111333,39 3.53422,17.325 6.6623,32.50268 6.95312,33.72852 l 0.5293,2.22851 -19.763675,0.29492 c -10.870054,0.16147 76.086325,0.30047 193.236325,0.31055 117.15,0.0101 208.63263,-0.12713 203.29492,-0.30664 -8.04739,-0.27063 -9.60884,-0.57868 -9.14062,-1.79883 0.31056,-0.80931 -1.2859,-4.58741 -3.54883,-8.39648 l -4.11524,-6.92578 5.51563,-7.6875 c 3.03377,-4.22844 5.79908,-8.81503 6.14453,-10.19141 0.76225,-3.03706 -1.85041,-8.75154 -7.20508,-15.75586 l -3.82226,-5 -0.14649,-15.5 -0.14453,-15.5 5.17969,-6 c 6.02297,-6.97678 7.85547,-10.09819 7.0957,-12.07812 -0.33696,-0.87813 -1.55373,-1.37293 -2.73633,-1.4004 z m 0.14258,0.9785 c 3.97105,0 2.12141,3.75304 -6.89648,14 -3.63023,4.125 -7.05255,7.83029 -7.60742,8.23438 -1.48661,1.08258 -2.19349,0.93736 -3.9375,-0.80665 -2.31511,-2.31511 -1.98356,-3.14176 2.35546,-5.88085 6.30126,-3.97783 11.26602,-8.76698 12.73438,-12.28126 0.89152,-2.13371 2.05356,-3.26562 3.35156,-3.26562 z m -7.52929,2.10742 c 0.62809,0.0263 1.34178,0.25568 2.13085,0.69727 1.44973,0.81131 1.22871,1.39523 -1.78125,4.67969 l -3.43945,3.7539 0.0527,-4.1289 c 0.0427,-3.332 1.15282,-5.08074 3.03711,-5.00196 z m -14.17188,3.02344 c 0.66094,-0.0188 1.64325,0.3478 3.0918,1.00781 2.50276,1.14033 4.35961,5.81812 3.11132,7.83789 -0.7846,1.26951 -2.34737,1.21015 -5.26562,-0.19726 -1.7554,-0.8466 -2.25,-1.93016 -2.25,-4.93164 0,-2.58516 0.21093,-3.68545 1.3125,-3.7168 z m -0.0684,12.48633 1.34766,2.57226 c 0.74152,1.41526 2.06972,2.84926 2.95117,3.1875 1.89163,0.72589 5.45703,-0.95812 5.45703,-2.57812 0,-0.62232 0.3375,-0.79531 0.75,-0.38281 0.4125,0.41249 0.78512,7.35129 0.82812,15.41796 l 0.0781,14.66602 3.01953,3.19141 c 4.62852,4.89408 8.76241,13.42728 7.99219,16.49609 -0.35491,1.41409 -3.12834,6.03133 -6.16211,10.25977 l -5.51563,7.6875 4.11524,6.92578 c 2.26929,3.81977 3.85414,7.60039 3.53515,8.43164 -0.38287,0.99798 -1.93985,1.50781 -4.6093,1.50781 -4.1642,0 -4.90253,-0.73028 -2.83203,-2.80078 0.93333,-0.93333 0.90132,-1.477 -0.14649,-2.44922 -1.10134,-1.0219 -1.23065,-0.92039 -0.71093,0.55273 0.34965,0.99106 0.23856,1.5554 -0.2461,1.25586 -0.48466,-0.29953 -0.78838,-2.68425 -0.67578,-5.30078 0.1126,-2.61653 0.28968,-8.58281 0.39453,-13.25781 0.18551,-8.27192 0.29076,-8.61556 3.9375,-12.82422 4.01819,-4.63732 6.75299,-4.94279 7.55274,-0.8418 l 0.42383,2.16602 0.13476,-2.21484 c 0.08,-1.30134 -0.69984,-2.66244 -1.89258,-3.30078 -1.64362,-0.87964 -2.58134,-0.6484 -4.92578,1.21484 -1.59255,1.26568 -3.11144,2.97578 -3.375,3.80078 -0.2636,0.825 -0.29316,-2.70805 -0.0644,-7.85156 0.65451,-14.71932 -2.187,-21.02792 -8.23242,-18.27344 -2.31536,1.05497 -2.37386,0.96632 -2.38086,-3.64648 -0.004,-2.60071 -0.47561,-7.60817 -1.04688,-11.12891 -0.57126,-3.52075 -0.73642,-7.77113 -0.36914,-9.44336 l 0.66797,-3.03906 z m -6.93941,25.38281 c 2.57412,0 6.69531,4.04529 6.69531,6.57227 0,1.33508 -0.3375,2.37369 -0.75,2.30859 -6.19455,-0.97721 -6.74935,-1.37927 -7.06055,-5.13477 -0.22545,-2.72083 0.0797,-3.74609 1.11524,-3.74609 z m 12.0039,2.2793 c 2.19183,-0.14961 3.82518,1.50268 4.72852,4.85742 0.77724,2.88635 0.77151,7.72378 -0.0176,17.18945 -0.60398,7.2451 -1.19245,18.68537 -1.30859,25.42188 l -0.21092,12.24804 -6.33398,0.002 c -4.62238,0.001 -6.21951,-0.33573 -5.91602,-1.24804 0.22871,-0.6875 1.7274,-1.48029 3.33203,-1.76172 l 2.91797,-0.51172 0,-11.48828 c 0,-6.31857 -0.38346,-18.53505 -0.85156,-27.14844 -0.83698,-15.40086 -0.81432,-15.68094 1.28906,-16.80664 0.84827,-0.45398 1.64048,-0.70404 2.37109,-0.75391 z m -25.32421,7.00195 c 0.84482,-0.0544 2.03853,0.32716 3.95507,1.19141 3.888,1.75324 9.73625,1.73935 14.35547,-0.0332 1.38096,-0.52992 1.70508,-0.0637 1.70508,2.45312 0,1.70885 -0.3375,3.04676 -0.75,2.97266 -0.4125,-0.0741 -4.8,-0.54594 -9.75,-1.04883 -9.32922,-0.94778 -13.04626,-2.67053 -10.74023,-4.97656 0.33698,-0.33699 0.71769,-0.52596 1.22461,-0.5586 z m -334.20117,7.71875 34.10741,0 34.10938,0 0,22.5 0,22.5 -29.5,0 c -16.225,0 -29.5,-0.14394 -29.5,-0.32031 0,-0.6393 -7.84915,-39.25229 -8.52343,-41.92969 z"
       style="fill:#000000" />
    <path
       inkscape:connector-curvature="0"
       id="path8291"
       d="m 275.35862,53.910146 c -1.0514,-0.006 -2.88641,1.10617 -5.48242,3.41016 -2.92528,2.5962 -6.79148,8.12404 -12.5625,17.95898 -0.24208,0.4125 -0.22331,0.75 0.043,0.75 0.26627,0 2.53065,-3.36946 5.03125,-7.48828 4.53983,-7.47772 9.99088,-13.42702 12.35352,-13.48242 2.16628,-0.0508 1.43081,1.95374 -5.75,15.67773 -3.85,7.35814 -6.99242,13.69719 -6.98242,14.08594 0.0239,0.93318 5.04969,-8.12013 10.63086,-19.15235 3.87605,-7.66175 4.72596,-11.74901 2.71875,-11.75976 z m -19.58789,24.56445 c -0.18346,-0.18346 -2.81917,4.02969 -5.85742,9.36133 -4.93688,8.66343 -6.26259,10.20272 -12.47266,14.486334 -3.82179,2.63622 -8.55591,6.36098 -10.51953,8.27734 -3.44848,3.36547 -3.6275,3.42175 -5.25,1.62891 -0.92388,-1.02088 -1.67969,-2.5544 -1.67969,-3.40625 0,-3.45913 -5.73337,-5.09612 -6.78516,-1.9375 -0.32184,0.96653 0.13098,1.16953 1.58204,0.70898 2.96579,-0.94131 3.76955,1.27004 0.86328,2.375 -2.7744,1.05483 -5.66016,4.69005 -5.66016,7.12891 0,0.89238 0.9,2.43615 2,3.43164 1.1,0.99549 2,2.1834 2,2.64062 0,0.45723 -3.2625,2.43877 -7.25,4.40235 -9.0793,4.47095 -10.54686,5.7906 -8.79102,7.90625 1.59176,1.91797 2.06086,1.92592 4.7129,0.0684 4.41698,-3.09378 16.08681,-8.81452 22.54492,-11.05078 8.45561,-2.92794 13.5439,-6.44143 21.90039,-15.12305 5.71134,-5.93355 13.8225,-18.738044 12.62695,-19.933594 -0.21294,-0.21295 -1.6945,2.34522 -3.29102,5.68554 -3.19125,6.676834 -5.87697,8.954954 -7.96289,6.751964 -2.93802,-3.102904 -2.53211,-5.359574 2.56446,-14.248054 2.78147,-4.85093 4.90807,-8.97084 4.72461,-9.1543 z"
       style="fill:#000000" />
    <path
       id="path8269"
       d="m 455.24059,281.77929 c 0.22871,-0.6875 1.72871,-1.48026 3.33334,-1.76169 l 2.9175,-0.51169 0,-11.48831 c 0,-6.31857 -0.383,-18.53563 -0.8511,-27.14902 -0.83698,-15.40086 -0.81561,-15.6797 1.28777,-16.8054 3.39308,-1.81592 5.89588,-0.36947 7.10033,4.10352 0.77721,2.88635 0.77256,7.72402 -0.0165,17.18969 -0.60398,7.2451 -1.19317,18.68459 -1.30931,25.4211 l -0.21116,12.24821 -6.33333,0.002 c -4.62238,0.001 -6.221,-0.33589 -5.91751,-1.2482 z"
       style="fill:#fefefe"
       inkscape:connector-curvature="0" />
    <path
       id="path8267"
       d="m 468.99143,282.22929 c 0,-0.44 0.54321,-1.34321 1.20714,-2.00714 0.94286,-0.94286 0.85275,-1.56154 -0.41157,-2.82586 -1.37383,-1.37383 -1.53645,-3.37723 -1.07491,-13.24286 0.53372,-11.40876 0.60744,-11.70289 3.97852,-15.87414 1.88909,-2.3375 3.74209,-4.24311 4.11777,-4.23469 1.54619,0.0347 2.91292,1.63936 3.52365,4.13716 0.52941,2.1652 -0.36169,4.06052 -4.85071,10.31729 l -5.49925,7.66482 4.1144,6.92557 c 2.26929,3.81977 3.85505,7.60146 3.53607,8.43271 -0.60778,1.58387 -8.64111,2.24127 -8.64111,0.70714 z"
       style="fill:#fefefe"
       inkscape:connector-curvature="0" />
    <path
       id="path8265"
       d="m 448.49143,235.84555 c -9.32922,-0.94778 -13.04634,-2.66992 -10.74031,-4.97595 0.89863,-0.89863 2.11354,-0.75029 5.18001,0.6325 3.888,1.75324 9.73629,1.73996 14.35551,-0.0326 1.38096,-0.52992 1.70479,-0.064 1.70479,2.4528 0,1.70885 -0.3375,3.04637 -0.75,2.97229 -0.4125,-0.0741 -4.8,-0.54615 -9.75,-1.04904 z"
       style="fill:#fefefe"
       inkscape:connector-curvature="0" />
    <path
       id="path8259"
       d="m 454.49143,229.15648 c -2.6064,-0.55271 -3.04072,-1.12759 -3.31037,-4.38168 -0.36408,-4.39383 1.1105,-4.87047 5.17551,-1.67293 2.38277,1.87429 3.83391,7.11657 1.88486,6.80911 -0.4125,-0.0651 -2.1,-0.4046 -3.75,-0.7545 z"
       style="fill:#fefefe"
       inkscape:connector-curvature="0" />
    <path
       id="path8255"
       d="m 462.56286,199.45786 c -2.31511,-2.31511 -1.98343,-3.1434 2.35559,-5.8825 6.30126,-3.97781 11.267,-8.76617 12.73536,-12.28045 0.89152,-2.13371 2.05304,-3.26562 3.35104,-3.26562 3.97105,0 2.1226,3.75304 -6.89529,14 -8.82744,10.03056 -8.8988,10.07647 -11.5467,7.42857 z"
       style="fill:#fefefe"
       inkscape:connector-curvature="0" />
    <path
       id="path8253"
       d="m 460.24143,191.8088 c -1.7554,-0.8466 -2.25,-1.93084 -2.25,-4.93232 0,-2.11596 0.42883,-3.84719 0.95295,-3.84719 2.72754,0 6.00981,2.55395 6.57203,5.11374 1.03199,4.69859 -0.6745,5.88449 -5.27498,3.66577 z"
       style="fill:#fefefe"
       inkscape:connector-curvature="0" />
    <path
       id="path8229"
       d="m 198.43758,134.94216 c -0.93057,-1.50569 -0.17197,-2.06054 10.05385,-7.35343 4.95,-2.56213 10.66111,-5.98615 12.69136,-7.60893 4.02525,-3.21738 7.53959,-3.81522 8.4519,-1.43778 0.8436,2.1984 -1.05742,3.99517 -5.69798,5.38552 -4.00843,1.20095 -17.34669,7.86864 -21.35012,10.67276 -2.44648,1.71358 -3.25982,1.78059 -4.14901,0.34186 z"
       style="fill:#fefefe"
       inkscape:connector-curvature="0" />
    <path
       id="path8223"
       d="m 213.98263,121.51869 c -0.98185,-1.18307 -0.98005,-1.79791 0.009,-2.9894 1.5336,-1.84787 4.38802,-1.94232 5.83965,-0.19321 0.82649,0.99586 0.40681,1.70712 -1.76391,2.9894 -2.51307,1.4845 -2.99398,1.50725 -4.08454,0.19321 z"
       style="fill:#fefefe"
       inkscape:connector-curvature="0" />
    <path
       id="path8209"
       d="m 248.23626,101.77929 c -2.56219,-3.202563 -2.17955,-5.412986 2.29675,-13.267869 2.49485,-4.377891 4.89354,-8.317253 5.33042,-8.754137 0.43689,-0.436884 1.62172,1.040482 2.63298,3.283037 l 1.83863,4.077372 -3.40952,7.047835 c -3.88483,8.030342 -6.51333,10.333512 -8.68926,7.613762 z"
       style="fill:#fefefe"
       inkscape:connector-curvature="0" />
    <path
       id="path8203"
       d="m 259.169,80.605673 -2.0951,-3.550937 5.00278,-8.066153 c 4.98612,-8.03927 10.29118,-13.874322 12.66475,-13.929984 0.6875,-0.01612 1.25,0.490137 1.25,1.12502 0,1.239268 -12.59775,25.803561 -13.92861,27.159329 -0.43929,0.447515 -1.74151,-0.784259 -2.89382,-2.737275 z"
       style="fill:#fefefe"
       inkscape:connector-curvature="0" />
    <path
       id="path2993"
       d="m 256.34198,112.02454 c 2.91635,-3.46589 4.20613,-9.62184 4.01244,-19.150746 -0.14163,-6.967277 -2.46518,-12.64778 -7.91268,-19.344508 -2.30963,-2.83927 -2.44064,-2.879452 -2.44534,-0.75 -0.003,1.2375 -0.4165,2.25 -0.91948,2.25 -0.96067,0 -6.36815,-9.050675 -5.76677,-9.652051 0.19135,-0.191351 2.89792,0.164204 6.01459,0.790123 5.51364,1.107295 7.2471,2.382959 4.12907,3.038604 -1.16783,0.245566 -0.27057,2.247287 3.73087,8.323324 5.24994,7.97181 5.26852,8.02819 5.27411,16 0.003,4.4 -0.34372,9.674254 -0.77067,11.720564 -0.78238,3.74983 -5.02091,9.77944 -6.87448,9.77944 -0.55,0 0.13775,-1.35214 1.52834,-3.00475 z"
       style="fill:#fe0000"
       inkscape:connector-curvature="0" />
    <path
       id="path8193"
       d="m 481.12761,247.31447 c -0.0749,-1.21815 -1.07864,-2.7192 -2.23053,-3.33567 -1.72691,-0.92422 -2.50342,-0.73656 -4.42597,1.06958 -3.64931,3.42834 -4.76134,1.76433 -3.98527,-5.96345 1.1976,-11.92518 -2.58693,-19.21723 -8.36792,-16.12334 -2.03058,1.08674 -2.12683,0.92223 -2.13404,-3.64712 -0.004,-2.63185 -0.47495,-7.66579 -1.04622,-11.18653 -0.57126,-3.52075 -0.73815,-7.76955 -0.37087,-9.44178 l 0.66779,-3.04041 1.34824,2.57319 c 0.74152,1.41526 2.06941,2.84995 2.95086,3.18819 1.89163,0.72589 5.45775,-0.95969 5.45775,-2.57969 0,-0.62232 0.3375,-0.79399 0.75,-0.38149 0.4125,0.41249 0.7852,7.34999 0.82823,15.41666 l 0.0782,14.66668 2.92889,3.09575 c 4.1764,4.41434 8.63121,13.00946 8.119,15.66482 l -0.43199,2.23943 -0.13618,-2.21482 z"
       style="fill:#0000fe"
       inkscape:connector-curvature="0" />
    <path
       id="path8181"
       d="m 230.61584,120.56569 c 0.82985,-2.16255 -1.39248,-4.5364 -4.24685,-4.5364 -3.26573,0 -2.99581,-1.01013 1.37244,-5.13619 3.44008,-3.24934 16.74231,-12.863814 17.79791,-12.863814 0.24865,0 0.45209,0.605256 0.45209,1.345012 0,2.001882 3.6771,4.953892 5.18699,4.164152 0.72215,-0.37771 -2.30495,2.8407 -6.7269,7.15204 -8.36555,8.1563 -14.99063,12.88494 -13.83568,9.8752 z"
       style="fill:#0000fe"
       inkscape:connector-curvature="0" />
    <path
       sodipodi:nodetypes="ccccsccscsssssssssssssssssscsscsccscscccccccssscccsssscssssccccscsssscc"
       style="fill:#000000"
       d="m 173.85666,132.65919 c -0.49772,0.024 -0.9725,0.14127 -1.44922,0.51758 -0.66717,0.59564 -0.29492,2.43098 -0.29492,3.65234 0.003,0.11999 0.0781,3.1649 0.16992,7.31055 0.78324,6.38893 1.97956,14.37801 2.57422,10.71093 0.36938,-2.27781 0.86865,-4.27524 1.29101,-5.76562 0.10247,-11.22118 0.27157,-12.17588 0.76367,-12.66797 0.30656,-0.30657 3.89382,5.15023 7.96875,12.12891 4.07491,6.97869 8.54358,13.43228 9.93164,14.34179 1.38809,0.9095 2.52344,2.32026 2.52344,3.13282 0,1.80444 -3.44398,3.79033 -5.30468,3.05859 -1.29259,-0.50832 -8.95193,-15.54078 -12.66797,-24.86328 -0.96408,-2.41863 -1.95482,-4.19948 -2.19922,-3.95508 -0.24441,0.24441 1.01645,3.60769 2.80078,7.47266 2.04918,4.43869 3.20578,8.50851 3.13672,11.04687 -0.11207,4.11891 2.06538,7.76367 4.63867,7.76367 0.74728,0 1.63628,1.2685 1.97461,2.81836 1.33294,6.10591 3.2221,9.2825 10.21484,17.16407 4.00022,4.50867 11.27911,13.91592 16.17383,20.90429 4.89472,6.98837 8.90039,12.35067 8.90039,11.91797 0,-0.43271 -4.34126,-6.92979 -9.64648,-14.4375 -11.09352,-15.69906 -11.83026,-17.27417 -8.82813,-18.88086 4.08972,-2.18876 7.67723,1.41119 15.53516,15.5957 3.98796,7.19875 7.64589,13.33505 8.13086,13.63477 1.37282,0.84844 -16.43639,-30.41602 -19.22852,-33.75586 -1.36589,-1.63385 -3.79521,-5.55235 -5.39844,-8.70898 -1.60322,-3.15664 -4.33466,-7.08504 -6.06836,-8.73047 -2.41898,-2.29581 -2.88745,-3.30929 -2.01757,-4.35742 0.62348,-0.75121 0.85908,-2.73775 0.52343,-4.41602 -0.47331,-2.36656 -0.16153,-3.2925 1.38672,-4.12109 2.11033,-1.12941 4.59709,-4.95566 3.76368,-5.78907 -0.2711,-0.27109 -2.12969,1.14531 -4.13086,3.14649 -2.00118,2.00118 -3.91698,3.1855 -4.25977,2.63086 -0.34278,-0.55464 -2.32802,-1.02226 -4.4082,-1.03907 -3.58358,-0.0289 -3.98294,-0.39115 -7.65625,-6.85937 -2.13226,-3.75463 -3.65472,-7.4047 -3.38282,-8.11328 0.30662,-0.79911 -0.0738,-1.07102 -1.00195,-0.71485 -0.30328,0.11638 -0.46548,0.25742 -0.80859,0.39844 -0.93827,0.43667 -0.80507,-0.85823 -1.17188,-1.43945 -0.24855,-0.3806 -0.67761,-0.67677 -1.26367,-0.69727 -0.24419,-0.008 -0.47963,-0.0265 -0.70898,-0.0352 -0.17201,-0.007 -0.33995,-0.008 -0.50586,0 z m 10.34961,25.9707 c 0.22874,-0.0968 0.73666,0.71398 1.86132,2.55859 1.12506,1.84527 2.04688,3.57558 2.04688,3.84375 0,0.91391 -1.63836,0.49055 -2.87109,-0.74218 -0.6763,-0.67631 -1.22666,-2.40661 -1.22461,-3.84375 0.002,-1.11738 0.01,-1.74108 0.1875,-1.81641 z m 14.66015,6.23438 c 0.97098,0.0189 3.21371,3.01507 5.6211,7.76757 1.58724,3.13345 4.31616,7.48875 6.06445,9.67969 3.84687,4.82091 3.93668,5.27072 0.61719,3.0957 -2.37854,-1.55847 -2.74998,-1.55468 -5.20313,0.0527 -1.55214,1.01701 -2.41328,2.33326 -2.08398,3.19141 0.30828,0.80342 0.43395,1.46093 0.27734,1.46093 -0.80648,0 -9.82254,-11.22801 -11.28125,-14.04883 -1.9021,-3.67827 -2.24168,-6.90587 -0.62109,-5.90429 1.5011,0.92773 6.10351,-2.29795 6.10351,-4.27735 0,-0.70035 0.1822,-1.02385 0.50586,-1.01757 z m 32.86914,52.02929 c -0.0216,-0.005 -0.0398,-9.7e-4 -0.0566,0.0156 -0.20633,0.20634 0.55164,3.7527 1.6836,7.88086 1.13198,4.12815 1.81854,7.74592 1.52734,8.03711 -1.034,1.03401 -2.78884,-0.91242 -5.31445,-5.89649 -1.40775,-2.77804 -2.79047,-5.05273 -3.07422,-5.05273 -0.76204,0 3.60456,8.41435 5.46289,10.52734 2.15848,2.45426 3.84138,1.64278 3.5957,-1.73437 -0.2321,-3.19058 -3.15304,-13.61758 -3.82422,-13.77735 z"
       id="path2989-6-9"
       inkscape:connector-curvature="0" />
    <path
       sodipodi:nodetypes="scssscccssssssssssssssssscccccssscccccccssscscccsssssssssssssss"
       inkscape:connector-curvature="0"
       id="path4222"
       d="m 168.64103,8.6113983 c -0.33413,-0.006 -0.63278,0.17474 -0.87696,0.57813 -0.24969,0.4125 -0.0904,15.3749997 0.35352,33.2499997 0.53728,21.63494 0.45745,34.72921 -0.23828,39.16797 -0.77782,4.96251 -0.72197,8.54316 0.21875,14 0.69521,4.03265 1.43789,12.282032 1.65039,18.332032 l 0.38672,11 -6.13282,-6.5 c -5.35808,-5.6798 -5.86323,-6.54083 -4.01367,-6.82031 2.82064,-0.42621 4.43544,-3.68988 3.73438,-7.54492 -0.31358,-1.72434 -0.77099,-5.012122 -1.01758,-7.306652 -0.26567,-2.47197 -1.33056,-5.05321 -2.61133,-6.33398 -2.52082,-2.52082 -4.07399,-1.84828 -1.73242,0.75 0.87045,0.96587 1.89205,2.99336 2.26953,4.50586 0.63526,2.54544 0.45968,2.75 -2.3418,2.75 -1.66465,0 -3.62494,0.22609 -4.35742,0.50195 -0.75489,0.2843 -2.03238,-0.73318 -2.94922,-2.34961 -1.95434,-3.44558 -17.96653,-16.35921 -27.36719,-22.07031 -3.73978,-2.272 -6.94662,-3.98502 -7.125,-3.80664 -0.17838,0.17838 3.3319,2.55287 7.80078,5.27539 9.15194,5.57552 10.38953,6.99805 9.42579,10.83789 -1.01678,4.05114 -3.25291,4.27358 -7.42384,0.74023 -2.0312,-1.72071 -6.39336,-5.17973 -9.69336,-7.6875 -3.3,-2.50777 -4.21806,-3.07012 -2.04101,-1.25 11.52965,9.63941 22.35859,19.92752 24.82422,23.583992 0.5374,0.79695 1.87159,2.27636 3.67969,4.13281 l -2.22461,-3.47461 c -1.3857,-2.16352 -4.12257,-5.463312 -6.08203,-7.333982 l -3.56445,-3.40235 1.95507,-2.48242 c 1.0745,-1.366 1.95313,-3.33208 1.95313,-4.36719 0,-1.50788 1.31917,-0.84533 6.63477,3.33204 9.15962,7.19826 12.39892,12.820312 7.38867,12.820312 -1.02167,0 -2.7373,1.20757 -3.8125,2.68359 l -1.89063,2.59571 c 3.34044,3.40077 8.22206,8.01636 13.17774,12.40625 l 13.72656,12.16015 c 0.83329,0.73843 1.62022,0.75814 1.76172,3.93164 0.0205,0.4602 0.0286,1.1071 0.041,1.69141 7e-5,0.002 -6e-5,0.002 0,0.004 0.19493,5.17425 0.31979,17.94828 0.59571,49.27734 0.35997,40.87227 0.61564,47.25 1.89648,47.25 1.28634,0 1.48047,-6.09622 1.48047,-46.44141 0,-16.42486 0.11134,-28.6904 0.31445,-36.64062 0.0187,-3.75236 0.0687,-7.75751 0.22071,-10.61133 0.29692,-5.57566 0.40911,-5.63765 0.8125,-5.95312 5.9e-4,-7.2e-4 10e-4,-0.001 0.002,-0.002 0.28042,-0.18925 0.55779,-0.36653 0.83789,-0.58008 0.62752,-0.47297 0.40789,-1.17609 -1,-2.58398 -1.87666,-1.87666 -2.18553,-3.28875 -2.17383,-9.9375 0.0199,-11.2674 0.42795,-12.25 5.07813,-12.25 3.30462,0 4.08623,-0.44527 5.46289,-3.10742 0.95602,-1.84873 1.35583,-4.11568 0.98437,-5.595702 -0.79949,-3.18539 1.13896,-5.80984 3.09375,-4.18751 0.75203,0.62413 1.36719,1.75603 1.36719,2.51368 0,0.75766 0.45,1.37695 1,1.37695 1.25767,0 1.26479,-1.17561 0.0254,-4.43555 -1.06781,-2.80856 -3.51889,-3.26578 -6.27734,-1.17187 -0.96314,0.73111 -2.76314,1.13521 -4,0.89843 -2.1948,-0.42015 -2.24379,-0.72333 -2.10352,-12.61132 0.079,-6.69939 -0.46226,-16.22974 -1.20122,-21.17974 -1.61862,-10.84251 -3.44336,-30.33392 -3.44336,-36.77539 0,-6.31291 -4.12009,-15.5128297 -6.45898,-15.5527397 z"
       style="fill:#000000" />
    <path
       id="path4268"
       d="m 169.07462,9.4395283 c -0.41784,0 -0.57454,10.4624997 -0.34766,23.2499997 0.5575,31.42194 0.84648,35.93202 2.46485,38.52344 2.92607,4.68539 6.24368,1.46846 6.27148,-6.08204 0.0105,-2.85488 -0.74163,-12.1664 -1.66992,-20.6914 -0.92828,-8.525 -1.68745,-17.57803 -1.68945,-20.11719 -0.003,-4.50013 -3.51152,-14.8828097 -5.0293,-14.8828097 z"
       style="fill:#fefefe"
       inkscape:connector-curvature="0" />
    <path
       id="path4262"
       d="m 86.451566,54.439528 c -2.911959,0 -1.057773,2.20529 5.398438,6.41797 3.7125,2.4224 9.224996,6.43737 12.249996,8.92382 3.025,2.48646 5.53455,4.55232 5.57618,4.58985 0.0416,0.0375 1.08994,-1.01198 2.33007,-2.33203 l 2.25391,-2.40039 -9.83008,-6.44336 c -9.20138,-6.03192 -14.793158,-8.75586 -17.978514,-8.75586 z"
       style="fill:#fefefe"
       inkscape:connector-curvature="0" />
    <path
       id="path4260"
       d="m 116.17618,71.439528 c -0.42121,0 -1.62414,0.95209 -2.67188,2.11523 -1.89083,2.09908 -1.87873,2.13439 1.54102,4.75 1.89494,1.44936 5.91985,4.78788 8.94531,7.41992 3.02546,2.63205 6.19193,4.65263 7.03516,4.49024 2.16773,-0.41747 3.78007,-5.42961 2.4375,-7.57813 -1.03477,-1.65593 -15.76537,-11.19726 -17.28711,-11.19726 z"
       style="fill:#fefefe"
       inkscape:connector-curvature="0" />
    <path
       id="path4254"
       d="m 173.24649,93.439528 c -3.55742,0 -4.5935,2.54807 -3.30664,8.123052 0.63856,2.7664 1.16016,10.58814 1.16016,17.38086 0,10.92138 0.20248,12.40224 1.75,12.80664 2.99645,0.78306 4.25,0.72353 4.25,-0.20313 0,-0.49116 -0.675,-1.15216 -1.5,-1.46875 -2.0363,-0.7814 -2.02648,-14.17437 0.0176,-24.07031 1.70531,-8.256012 0.89115,-12.568362 -2.37112,-12.568362 z"
       style="fill:#fefefe"
       inkscape:connector-curvature="0" />
    <path
       id="path4252"
       d="m 179.01993,100.65437 c -0.30839,-5.9e-4 -0.59534,0.11552 -0.83398,0.37696 -0.45568,0.49919 -1.12008,2.1457 -1.47656,3.6582 -0.5977,2.53587 -0.41289,2.75 2.37109,2.75 2.51219,0 3.01953,-0.39855 3.01953,-2.37695 0,-2.19787 -1.74371,-4.40563 -3.08008,-4.40821 z"
       style="fill:#fefefe"
       inkscape:connector-curvature="0" />
    <path
       id="path4250"
       d="m 148.91446,102.545 c -1.16988,-0.0155 -2.24978,0.75531 -2.98242,2.36328 -0.95863,2.10395 -0.91247,2.86791 0.24024,3.9668 0.78504,0.74839 6.37773,5.74441 12.42773,11.10351 7.9246,7.01963 11.09012,9.28591 11.32227,8.10742 0.18484,-0.9383 -2.91863,-5.17497 -7.27735,-9.9375 -4.17949,-4.5667 -8.37452,-9.85697 -9.32226,-11.75586 -1.25166,-2.5078 -2.90407,-3.82773 -4.40821,-3.84765 z"
       style="fill:#fefefe"
       inkscape:connector-curvature="0" />
    <path
       id="path4246"
       d="m 154.95157,104.43953 c -1.09435,0 -0.18245,3.77872 1.38477,5.73828 1.37051,1.71362 2.76367,0.61046 2.76367,-2.18945 0,-2.13548 -1.6511,-3.54883 -4.14844,-3.54883 z"
       style="fill:#fefefe"
       inkscape:connector-curvature="0" />
    <path
       id="path4236"
       d="m 140.83754,102.8732 c -1.3857,-2.16352 -4.12266,-5.464222 -6.08212,-7.334892 l -3.56267,-3.40123 1.95363,-2.48363 c 1.0745,-1.366 1.95363,-3.33055 1.95363,-4.36565 0,-1.50788 1.31888,-0.84555 6.63448,3.33182 9.15962,7.19827 12.40016,12.819912 7.38991,12.819912 -1.02167,0 -2.73729,1.20765 -3.81249,2.68367 l -1.95492,2.68367 z"
       style="fill:#0000fe"
       inkscape:connector-curvature="0" />
    <path
       id="path2991-78"
       d="m 176.80864,95.433328 c -0.66418,-2.53984 -3.47227,-3.6225 -5.73328,-2.21048 -2.38214,1.48767 -2.98639,0.61673 -2.9139,-4.19999 0.0983,-6.53243 2.40582,-18.34209 3.1914,-16.33333 1.33105,3.40355 6.01474,0.87334 6.94164,-3.75 0.22054,-1.1 0.43513,4.64609 0.47687,12.76908 0.0697,13.57277 -0.66284,18.695522 -1.96273,13.72472 z"
       style="fill:#0000fe"
       inkscape:connector-curvature="0" />
    <path
       id="path4220"
       d="m 143.42032,106.71883 c -0.13149,-0.13387 -0.23079,-0.24108 -0.35742,-0.3711 l 0.29492,0.45899 0.0625,-0.0879 z"
       style="fill:#000000"
       inkscape:connector-curvature="0" />
    <path
       id="path4216"
       d="m 86.553129,53.628978 c -0.709766,0.0176 -1.244011,0.20104 -1.597656,0.55469 -1.586509,1.58651 -0.38711,2.91765 6.998047,7.75781 3.655054,2.39549 8.89648,6.16456 11.64648,8.375 2.75,2.21044 5.1125,4.04167 5.25,4.07031 2.13345,0.4444 -9.858481,-9.04922 -17.999996,-14.25 -5.55095,-3.54593 -7.211663,-5.69726 -4.398438,-5.69726 3.174116,0 8.762365,2.71378 17.828124,8.65625 5.32343,3.48942 10.03769,6.34375 10.47656,6.34375 0.43888,0 -3.93521,-3.1034 -9.71875,-6.89649 -9.055997,-5.93931 -15.408717,-8.99041 -18.484371,-8.91406 z"
       style="fill:#000000"
       inkscape:connector-curvature="0" />
    <path
       id="path4212"
       d="m 101.95661,154.57367 c 0.111,-0.14578 0.82235,-0.51558 2.11851,-1.1042 1.77481,-0.80597 6.79678,-2.44528 11.1592,-3.64485 8.73316,-2.40141 10.62312,-3.99637 20.7964,-17.53759 l 5.80233,-7.72415 8.63804,-1.6004 c 5.23876,-0.9714 9.34038,-2.42893 10.42259,-3.70423 3.47732,-4.09776 5.54971,-1.00097 2.36712,3.53737 -1.42847,2.03697 -4.18749,3.5017 -9.21967,4.89301 -8.97538,2.48154 -9.67399,3.11598 -4.77905,4.34583 3.40871,0.85645 4.00202,1.47521 4.6371,4.82865 l 0.72879,3.84628 8.4209,-5.37637 c 4.63155,-2.95619 8.62181,-5.3729 9.23111,-5.76329 1.07643,-0.68968 3.11064,-1.44274 5.08967,0.57948 1.19178,1.34814 0.0982,3.84424 -2.84654,5.10657 -3.33338,1.46786 -8.39137,4.85533 -18.23528,11.64172 -6.71202,4.62728 -13.9477,8.72955 -16.07952,9.11703 -2.13183,0.38748 -8.63252,3.0709 -14.44587,5.96441 -5.81334,2.89349 -11.70166,5.70001 -13.08407,6.2361 -1.38241,0.53608 0.0687,-0.33031 3.22364,-1.92665 3.15488,-1.59635 5.4925,-3.33784 5.19548,-3.86978 -1.08496,-1.94306 -5.56048,-2.32118 -10.44116,-0.88092 -2.7504,0.81162 -5.13287,1.23851 -5.29467,0.94875 -0.1618,-0.28977 1.83311,-1.03682 4.43125,-1.66131 4.98946,-1.19927 8.23067,-5.08127 7.34497,-8.79604 -0.39568,-1.65956 -1.35613,-1.62624 -7.07424,0.24455 -5.6948,1.86316 -8.35124,2.62073 -8.10703,2.30003 z"
       style="fill:#000000"
       inkscape:connector-curvature="0"
       sodipodi:nodetypes="ssscccsssscccsccssssscssssss" />
    <path
       id="path4266"
       d="m 58.174253,172.57147 c 0.360174,-1.27095 39.496347,-16.48205 41.179219,-16.00514 0.411571,0.11663 2.408608,2.83347 4.437368,6.03728 2.02875,3.20381 3.66319,6.07094 3.6331,6.37169 -0.0871,0.87038 -38.740463,8.72005 -40.137421,8.15103 -0.693182,-0.28237 -1.378345,-0.0969 -1.522578,0.41201 -0.357407,1.26119 -4.178726,0.0778 -6.272211,-1.94223 -0.939542,-0.90657 -1.532034,-2.26752 -1.317477,-3.02464 z"
       style="fill:#fefefe"
       inkscape:connector-curvature="0" />
    <path
       id="path4264"
       d="m 67.846073,172.20637 c -0.03499,0.10244 -0.03404,0.22571 0.006,0.36634 0.160193,0.56254 1.270477,0.80751 2.468094,0.54567 5.429778,-1.18715 33.517163,-9.6581 32.747163,-9.87631 -0.47446,-0.13445 -8.038297,1.85442 -16.808978,4.42049 -8.77068,2.56606 -16.565259,4.49173 -17.321943,4.2773 -0.567516,-0.16083 -0.985205,-0.0409 -1.090353,0.26651 z"
       style="fill:#fefefe"
       inkscape:connector-curvature="0" />
    <path
       id="path4258"
       d="m 102.29594,155.7791 c 0.18356,-0.64771 3.48878,-2.17526 7.34527,-3.39454 5.27012,-1.66619 7.12696,-1.82726 7.47716,-0.65096 1.17265,3.93888 -2.30159,8.08994 -7.74488,9.25383 -4.1657,0.8907 -4.36505,0.83863 -5.86177,-1.55353 -0.85219,-1.36205 -1.39933,-3.00708 -1.21578,-3.6548 z"
       style="fill:#fefefe"
       inkscape:connector-curvature="0" />
    <path
       id="path4256"
       d="m 105.47583,163.06794 5.09143,-1.50278 c 4.97475,-1.46801 9.43963,-1.09973 10.53897,0.86911 0.47926,0.85831 -9.78928,6.4377 -11.16965,6.06913 -0.28747,-0.077 -1.4085,-1.33163 -2.4915,-2.78844 z"
       style="fill:#fefefe"
       inkscape:connector-curvature="0" />
    <path
       id="path4248"
       d="m 131.99345,138.8288 5.25118,-6.72494 5.25379,-6.7264 8.75206,-1.62299 c 5.38491,-0.99849 9.2478,-2.37117 10.03623,-3.5655 0.70411,-1.06659 1.71693,-1.81525 2.25142,-1.6662 l 0.002,5.9e-4 c 1.20478,0.34151 1.18543,0.40803 -1.15405,3.72347 -1.27465,1.80642 -4.37847,3.42074 -9.25989,4.81791 -4.03849,1.1559 -7.87653,2.85177 -8.52771,3.76894 -0.65118,0.91718 -2.09949,2.2753 -3.21867,3.01757 -1.11917,0.74229 -1.96327,2.13255 -1.87678,3.08813 0.17786,1.96517 -0.33007,2.1898 -4.52688,2.01422 l -2.98274,-0.12479 z"
       style="fill:#fefefe"
       inkscape:connector-curvature="0" />
    <path
       id="path2997-2"
       d="m 141.12529,153.6934 c 0.56643,-1.99877 5.01513,-6.08953 6.79946,-6.25102 0.98124,-0.0888 2.7236,-1.30108 3.86963,-2.69471 1.14603,-1.39363 5.67528,-4.85906 10.06623,-7.70197 6.95502,-4.503 10.82168,-8.17284 13.16397,-6.9965 0.7732,0.38832 1.56017,1.11974 1.24515,2.11148 -0.28751,0.905 -1.6083,2.07246 -2.37726,2.47813 -0.64691,0.34129 -7.78299,4.51051 -15.6716,9.94872 -13.48658,9.29732 -17.80163,11.59731 -17.09558,9.10587 z"
       style="fill:#fefefe"
       inkscape:connector-curvature="0"
       sodipodi:nodetypes="sssssscss" />
    <path
       id="path2993-25"
       d="m 100.69262,131.06633 c -0.0857,0.44376 -1.227442,1.21922 -2.537091,1.72323 -3.28254,1.26327 -3.444205,3.40614 -0.963697,12.77433 2.811708,10.61906 11.942138,24.86185 19.312318,30.12579 7.28205,5.20099 13.94003,7.39155 16.73079,5.50464 2.38663,-1.61366 3.14862,-4.12273 2.06739,-6.80745 -0.61698,-1.53195 -0.77652,-1.52272 -1.09745,0.0634 -0.20652,1.02083 -0.85359,1.76368 -1.43792,1.65077 -0.58433,-0.11285 -0.6005,-2.59566 -0.036,-5.51725 0.56453,-2.92158 1.33984,-5.25141 1.72293,-5.17737 1.25423,0.24234 6.76016,6.90274 6.5605,7.93608 -0.10722,0.55456 -0.88189,0.87557 -1.72164,0.71331 -1.14189,-0.22069 -1.55487,0.64062 -1.63818,3.41662 -0.0869,2.89546 -0.73558,4.13369 -2.95016,5.63102 -2.43707,1.64777 -3.60365,1.68809 -8.2429,0.28487 -8.80092,-2.66199 -14.22563,-7.42473 -22.19501,-19.4866 -7.105921,-10.75501 -10.809383,-19.98906 -10.855548,-27.06673 -0.01673,-2.56566 0.620068,-3.81324 2.645351,-5.18259 2.676254,-1.80949 4.927677,-2.09412 4.636297,-0.58612 z"
       style="fill:#fe0000"
       inkscape:connector-curvature="0" />
    <path
       id="path4238"
       d="m 142.15778,146.5652 c -0.99567,-0.58597 -2.00065,-2.31317 -2.23329,-3.83825 -0.37453,-2.45516 -0.83352,-2.77158 -4.00585,-2.76159 -1.97059,0.006 -3.72221,0.11395 -3.89252,0.23941 -0.17031,0.12547 -2.22663,2.09144 -4.5696,4.36885 -2.34296,2.2774 -5.15655,4.35447 -6.25241,4.61573 -1.39006,0.33139 -2.40889,1.91108 -3.36978,5.22482 -1.22418,4.22175 -1.12051,4.82257 0.93256,5.40439 1.27043,0.36002 2.46997,1.21679 2.66564,1.90394 0.54082,1.89918 16.85795,-6.32191 19.74041,-9.94585 3.16502,-3.97918 3.15639,-3.93348 0.98484,-5.21145 z"
       style="fill:#0000fe"
       inkscape:connector-curvature="0" />
    <path
       id="path4218"
       d="m 57.332076,172.0165 c 0.05846,-0.15141 0.135579,-0.29547 0.235955,-0.42956 0.986278,-1.31763 40.661633,-16.46374 42.076397,-16.06281 0.408812,0.11585 -8.665445,3.68505 -20.165064,7.93068 -11.499614,4.24561 -21.085995,8.34346 -21.302231,9.1065 -0.467101,1.64827 2.216715,4.45465 5.01887,5.24875 1.097517,0.31102 4.365017,0.0626 7.260232,-0.55208 2.895214,-0.61472 12.667002,-2.68703 21.715716,-4.60493 9.048719,-1.9179 16.387389,-3.25837 16.308129,-2.97867 -0.29696,1.04788 -41.604219,9.39817 -44.765387,9.04928 -3.578669,-0.39495 -7.259526,-4.43594 -6.382616,-6.70716 z"
       style="fill:#000000"
       inkscape:connector-curvature="0" />
    <path
       id="path4214"
       d="m 68.261494,173.2906 c 0.03644,-0.0699 0.200394,-0.18267 0.488424,-0.33605 2.143204,-1.1413 33.373432,-9.97999 34.317432,-9.71248 0.47446,0.13446 -6.209839,2.30512 -14.853853,4.82298 -14.16901,4.12721 -20.207093,5.71494 -19.952003,5.22555 z"
       style="fill:#000000"
       inkscape:connector-curvature="0" />
    <path
       id="path4242"
       d="m 158.44158,233.96006 c -20.3486,-3.69245 -38.18447,-13.25363 -52.15012,-27.95583 -8.592222,-9.04537 -12.348699,-14.48945 -17.324538,-25.10761 -6.595763,-14.075 -8.19265,-21.66839 -8.19265,-38.95709 0,-17.2887 1.596887,-24.88209 8.19265,-38.95709 4.975839,-10.618162 8.732316,-16.062242 17.324538,-25.107622 7.24279,-7.62478 21.8098,-18.4766 21.80675,-16.24514 -9.8e-4,0.72042 -2.13848,2.65368 -4.74999,4.29614 -7.20358,4.53053 -20.44234,17.70921 -25.776216,25.65921 -5.417643,8.07486 -10.333541,19.138262 -13.04335,29.354502 -2.603567,9.8157 -2.603567,32.1843 0,42 7.314854,27.57771 25.209806,49.2915 50.642976,61.45034 14.07046,6.72666 21.95374,8.38146 39.92838,8.38146 18.20103,0 25.97048,-1.66813 40.5,-8.69548 7.74836,-3.74757 21.5,-12.87252 21.5,-14.2664 0,-0.2533 -1.575,-0.16507 -3.5,0.19606 -5.46629,1.02548 -4.07709,-0.78416 3.04412,-3.96542 6.9253,-3.09374 8.45072,-2.9454 6.69373,0.65095 -0.60418,1.23667 -1.61476,3.93599 -2.24573,5.99849 -1.25886,4.11491 -2.6741,4.88415 -3.17257,1.72441 -0.2881,-1.82625 -0.90999,-1.58176 -6.31955,2.48452 -20.07993,15.09377 -48.05236,21.61735 -73.15843,17.0616 z"
       style="fill:#fe0000"
       inkscape:connector-curvature="0" />
    <path
       inkscape:connector-curvature="0"
       id="path4313"
       d="m 172.26815,137.15793 c -0.12128,-3.59798 -0.80854,-5.65975 0.36384,-6.10445 1.17238,-0.44469 3.63841,-0.6064 4.00225,1.17238 0.36384,1.77878 0.32342,3.75969 0.0809,5.09378 -0.24256,1.33408 -4.08311,2.91073 -4.44695,-0.16171 z"
       style="color:#000000;clip-rule:nonzero;display:inline;overflow:visible;visibility:visible;opacity:1;isolation:auto;mix-blend-mode:normal;color-interpolation:sRGB;color-interpolation-filters:linearRGB;solid-color:#000000;solid-opacity:1;fill:#000000;fill-opacity:1;fill-rule:evenodd;stroke:none;stroke-width:3.00000024;stroke-linecap:round;stroke-linejoin:round;stroke-miterlimit:4;stroke-dasharray:none;stroke-dashoffset:0;stroke-opacity:1;color-rendering:auto;image-rendering:auto;shape-rendering:auto;text-rendering:auto;enable-background:accumulate" />
    <path
       inkscape:connector-curvature="0"
       id="path2997-1-7"
       d="m 176.74096,136.37841 c -1.21458,0.75065 12.59827,30.71891 14.95898,32.45508 1.32207,0.9723 1.32026,0.9727 3.65235,-0.27539 2.70257,-1.44638 2.4895,-3.68424 -0.54102,-5.66992 -1.38807,-0.9095 -5.85123,-7.35174 -9.91797,-14.31641 -4.06675,-6.96468 -7.73517,-12.45117 -8.15234,-12.19336 z m 7.46679,22.25195 c -0.17789,0.0753 -0.1877,0.70099 -0.18945,1.81836 -0.002,1.43714 0.54831,3.1655 1.22461,3.8418 1.23274,1.23274 2.86914,1.6561 2.86914,0.74219 0,-0.26817 -0.91987,-1.99652 -2.04492,-3.8418 -1.12467,-1.84459 -1.63066,-2.65739 -1.85938,-2.56055 z m 24.60938,26.82422 c -0.7594,-0.0438 -1.50003,0.15318 -2.25391,0.55664 -3.03313,1.62329 -2.37732,3.02347 9.03516,19.32032 9.66304,13.79867 9.97402,14.1225 12.2207,12.67382 1.26807,-0.81765 2.30664,-1.60471 2.30664,-1.75 0,-0.1453 -3.43385,-6.39339 -7.63086,-13.88476 -6.73174,-12.01572 -10.38701,-16.72617 -13.67773,-16.91602 z m 21.99609,32.91797 c -0.54661,0.0168 -1.37754,0.52079 -2.11523,1.33594 -1.70604,1.88516 -1.68369,2.18015 0.45703,6.42773 1.23418,2.44887 2.70514,5.02794 3.26953,5.73242 1.06614,1.33078 2.82422,1.74369 2.82422,0.66211 0,-1.65182 -3.32842,-13.31156 -3.99805,-14.00586 -0.10513,-0.109 -0.25529,-0.15793 -0.4375,-0.15234 z"
       style="fill:#fefefe"
       sodipodi:nodetypes="csssscccsscccsssssccsssscc" />
    <path
       sodipodi:nodetypes="csssssssssc"
       style="fill:#0000fe"
       id="path2991-7-2"
       d="m 199.22121,184.72376 c -4.99399,-5.78452 -8.03451,-10.9226 -8.03451,-13.57727 0,-0.90663 0.48139,-1.3509 1.06976,-0.98726 1.5011,0.92772 6.10314,-2.29638 6.10314,-4.27575 0,-2.80146 2.91738,0.41165 6.12724,6.74834 1.58724,3.13344 4.3163,7.48975 6.06459,9.68069 3.84688,4.82091 3.93641,5.27016 0.61693,3.09515 -2.37855,-1.55848 -2.75071,-1.55471 -5.20386,0.0527 -1.55215,1.01701 -2.41087,2.3338 -2.08157,3.19196 0.8864,2.30992 0.29086,1.80804 -4.66172,-3.92852 z"
       inkscape:connector-curvature="0" />
  </g>
</svg>
