<?xml version="1.0" encoding="UTF-8" standalone="no"?>
<!-- Created with Inkscape (http://www.inkscape.org/) -->

<svg
   xmlns:dc="http://purl.org/dc/elements/1.1/"
   xmlns:cc="http://creativecommons.org/ns#"
   xmlns:rdf="http://www.w3.org/1999/02/22-rdf-syntax-ns#"
   xmlns:svg="http://www.w3.org/2000/svg"
   xmlns="http://www.w3.org/2000/svg"
   xmlns:sodipodi="http://sodipodi.sourceforge.net/DTD/sodipodi-0.dtd"
   xmlns:inkscape="http://www.inkscape.org/namespaces/inkscape"
   id="svg3756"
   version="1.1"
   inkscape:version="0.91 r13725"
   width="500"
   height="275.625"
   viewBox="0 0 500 275.625"
   sodipodi:docname="ub820703.svg">
  <metadata
     id="metadata3762">
    <rdf:RDF>
      <cc:Work
         rdf:about="">
        <dc:format>image/svg+xml</dc:format>
        <dc:type
           rdf:resource="http://purl.org/dc/dcmitype/StillImage" />
        <dc:title></dc:title>
      </cc:Work>
    </rdf:RDF>
  </metadata>
  <defs
     id="defs3760" />
  <sodipodi:namedview
     pagecolor="#cdcdcd"
     bordercolor="#666666"
     borderopacity="1"
     objecttolerance="10"
     gridtolerance="10"
     guidetolerance="10"
     inkscape:pageopacity="0"
     inkscape:pageshadow="2"
     inkscape:window-width="1446"
     inkscape:window-height="851"
     id="namedview3758"
     showgrid="false"
     inkscape:zoom="1.629174"
     inkscape:cx="295.4385"
     inkscape:cy="97.562023"
     inkscape:window-x="0"
     inkscape:window-y="0"
     inkscape:window-maximized="0"
     inkscape:current-layer="svg3756" />
  <g
     id="g5578"
     transform="translate(1.1954128e-6,-9.1976904e-7)">
    <path
       sodipodi:nodetypes="csscscsssssssscsssscssssscscsscssssssssssscsscssssscssccsssscsssccsssssccsssssssscssssssscsssscsssssssssssssssscscssssscccsssss"
       style="fill:#fefefe"
       d="m 194.93277,216.34695 c -0.51476,-0.64453 -1.8569,-3.00498 -2.98253,-5.24546 -1.95244,-3.88611 -1.97156,-4.15679 -0.41556,-5.88153 0.89708,-0.99436 1.94486,-1.48155 2.32839,-1.08266 0.61074,0.63522 3.64591,11.30246 3.64591,12.81372 0,0.98953 -1.60384,0.61347 -2.57621,-0.60407 z m -15.34649,-24.27881 c -10.40876,-14.91 -11.00641,-16.19211 -8.24003,-17.67726 3.66705,-1.96869 6.97348,1.43726 14.53003,14.96735 3.82789,6.85387 6.9598,12.57034 6.9598,12.70327 0,0.13293 -0.94626,0.85375 -2.10281,1.60182 -2.04909,1.3254 -2.3338,1.02924 -11.14699,-11.59518 z m -21.79693,-33.37206 c -0.51402,-0.38968 -2.18676,-3.10866 -3.7172,-6.04219 -1.53043,-2.93353 -2.94939,-5.16638 -3.15323,-4.96191 -0.20385,0.20449 0.53971,1.91953 1.65236,3.81122 2.38336,4.05212 1.67629,5.62991 -1.02501,2.28729 -1.36183,-1.68511 -1.73928,-3.17088 -1.37602,-5.41637 0.37698,-2.33029 -0.39587,-5.04995 -3.13009,-11.01486 -1.99686,-4.35632 -3.30917,-8.11989 -2.91622,-8.36349 0.39293,-0.24361 3.74912,4.77052 7.4582,11.14251 3.70908,6.37199 7.80536,12.28319 9.10284,13.13599 1.56779,1.03046 2.2615,2.23822 2.06817,3.60069 -0.29731,2.09526 -3.19825,3.15956 -4.9638,1.82112 z M 81.153837,151.854 c -6.412374,-1.7963 -24.052178,-7.36876 -24.385968,-7.70359 -0.198504,-0.19913 -0.620912,-1.66609 -0.938684,-3.25991 l -0.577766,-2.89786 6.876443,1.82365 c 3.782044,1.00301 9.039547,1.91594 11.683342,2.02872 2.643793,0.11279 4.616637,0.52148 4.384096,0.9082 -0.232542,0.38671 1.050528,0.70312 2.851265,0.70312 2.097197,0 4.199815,0.79878 5.849502,2.22222 2.519765,2.17418 2.540626,2.2755 0.965151,4.6875 -1.705021,2.61032 -2.260698,2.73359 -6.707381,1.48795 z m 28.101473,-5.891 c -2.58233,-1.89416 -1.10753,-4.98689 3.01795,-6.32878 1.90301,-0.619 6.8245,-2.85757 10.93665,-4.97461 19.01961,-9.79182 21.82764,-9.86248 6.66748,-0.16783 -5.32823,3.40731 -10.4791,7.07235 -11.4464,8.14455 -1.49113,1.65282 -6.05236,4.56998 -7.14558,4.56998 -0.18428,0 -1.09784,-0.55949 -2.0301,-1.24331 z m 9.32796,-1.49407 c -0.29225,-0.47433 0.60278,-1.75732 1.98896,-2.85109 2.24293,-1.76981 2.61204,-1.82426 3.35375,-0.49474 1.53518,2.75179 -3.69193,6.02522 -5.34271,3.34583 z m -71.074292,-3.42487 c -5.815438,-2.41955 -9.741754,-5.47179 -8.561608,-6.65561 0.704629,-0.70684 12.788819,2.16184 13.814778,3.27949 0.96049,1.04634 1.846188,5.79139 1.073046,5.74876 -0.395307,-0.0218 -3.242104,-1.08949 -6.326216,-2.37264 z m 24.299065,-0.0707 c -13.922257,-2.90859 -17.539341,-4.1416 -16.172312,-5.5129 0.306962,-0.30792 16.83964,4.33413 19.91063,5.59053 1.189632,0.48669 -1.282891,0.43534 -3.738318,-0.0776 z m -23.569164,-5.87182 c -4.904776,-1.49727 -7.635105,-3.31218 -6.578018,-4.37257 0.969631,-0.97266 11.04549,2.411 11.615341,3.90065 0.790583,2.06666 0.328586,2.10994 -5.037323,0.47192 z m 76.130941,-15.98527 c -10.72095,-4.01852 -13.77673,-5.53737 -13.77673,-6.8476 0,-2.43775 2.71717,-3.11178 5.52039,-1.36942 1.33294,0.8285 7.15484,3.99272 12.93755,7.0316 l 10.51402,5.52524 -0.007,-6.6405 c -0.004,-3.65229 -0.43493,-9.28532 -0.95787,-12.51786 -1.11393,-6.885611 -0.1187,-9.878001 3.13097,-9.413921 1.76597,0.25219 2.00129,0.79432 1.75423,4.04127 -1.26834,16.669091 -1.2079,22.992431 0.22508,23.544031 2.53705,0.9766 1.59208,1.81108 -2.05086,1.81108 -1.96833,0 -9.57065,-2.27058 -17.28972,-5.16392 z m 43.85567,2.15256 c -1.41494,-1.41936 -0.19907,-2.38384 8.57017,-6.7982 5.05627,-2.54528 10.47913,-5.71319 12.0508,-7.0398 3.19068,-2.69318 6.57068,-3.14744 7.39453,-0.99382 0.79878,2.08809 -1.00586,3.7541 -5.49661,5.07438 -2.19069,0.64406 -7.93372,3.24358 -12.7623,5.77673 -9.91061,5.19924 -8.93761,4.80226 -9.75659,3.98071 z m -49.32244,-9.63287 c -1.72888,-1.44428 -1.89064,-1.87432 -0.71411,-1.89844 1.60096,-0.0328 4.21885,2.49218 3.41738,3.29616 -0.25744,0.25824 -1.47391,-0.37073 -2.70327,-1.39772 z m 61.98317,-2.10433 c -0.85525,-0.85793 -0.75805,-1.50091 0.42522,-2.8125 1.76426,-1.95556 4.11401,-2.19658 5.71897,-0.58662 0.85723,0.85992 0.52715,1.49939 -1.4486,2.80633 -3.03349,2.00663 -3.25791,2.03496 -4.69559,0.59279 z m -46.89893,-4.27842 c 0.0164,-1.41797 0.59746,-3.32881 1.29135,-4.24631 1.1335,-1.498781 1.32029,-1.514801 1.83943,-0.1577 0.3178,0.83077 0.57782,2.7416 0.57782,4.24631 0,2.11082 -0.42701,2.73582 -1.86916,2.73582 -1.42323,0 -1.86206,-0.61507 -1.83944,-2.57812 z M 88.515998,101.02064 C 85.939607,99.516519 70.406174,86.088061 70.406174,85.364912 c 0,-0.304638 0.676193,-1.522307 1.502653,-2.70593 1.487038,-2.129678 1.523456,-2.133344 3.504673,-0.352789 1.952208,1.754487 13.449649,9.646706 18.590805,12.761336 2.989786,1.81128 3.356188,4.77581 0.762374,6.168321 -2.343471,1.25811 -3.813742,1.20748 -6.250681,-0.21521 z M 212.64916,90.768829 c -2.07831,-2.084807 -1.14684,-4.983052 5.16282,-16.064037 5.65067,-9.92366 6.40864,-10.865981 7.51723,-9.345595 2.76631,3.793878 2.45699,5.954287 -2.21952,15.502107 -5.13317,10.480165 -7.5797,12.797355 -10.46053,9.907525 z M 63.832282,79.435837 c -6.095124,-5.737362 -9.080672,-13.883998 -3.461647,-9.445766 1.216835,0.961127 4.206212,3.508766 6.643058,5.661421 4.029514,3.559581 4.320978,4.090044 3.219455,5.859375 -0.666145,1.070002 -1.42543,1.93831 -1.687298,1.929574 -0.261869,-0.0087 -2.382974,-1.810808 -4.713568,-4.004604 z m 74.384008,-9.983136 c -1.47506,-1.635029 -1.62541,-4.088949 -1.50771,-24.609375 0.11811,-20.588821 0.31986,-23.3146 2.08612,-28.183876 1.07546,-2.964844 2.25482,-5.390625 2.62079,-5.390625 0.36598,0 0.94074,5.378906 1.27725,11.953125 0.33652,6.574219 1.2417,19.094672 2.01153,27.823229 1.25098,14.184114 1.24862,16.101358 -0.0222,18.046875 -1.73243,2.652294 -4.27064,2.793868 -6.46582,0.360647 z m 88.70629,-4.796126 c -1.4232,-2.760778 -1.3744,-3.027099 1.37669,-7.512155 4.26242,-6.94896 11.26578,-12.72785 11.26578,-9.296062 0,1.753673 -9.34976,19.670467 -10.2649,19.670467 -0.49613,0 -1.56603,-1.288012 -2.37757,-2.86225 z"
       id="path3776"
       inkscape:connector-curvature="0" />
    <path
       sodipodi:nodetypes="cssssssssccsssssssssssssssssccscsssssssssccssssssssc"
       style="fill:#0000fe"
       d="m 164.64995,173.21317 c -7.02997,-8.16823 -9.29811,-13.93714 -5.16825,-13.1452 2.66692,0.51141 4.78896,-1.82592 4.09043,-4.50544 -0.50081,-1.92108 -0.46876,-1.92658 1.39375,-0.23937 1.0485,0.94981 3.07912,4.04723 4.51252,6.88317 1.43338,2.83594 3.91076,6.79629 5.50529,8.80078 3.50855,4.41066 3.59021,4.82169 0.56267,2.83176 -2.16936,-1.42586 -2.50879,-1.42241 -4.74619,0.0482 -1.41563,0.93046 -2.19883,2.1352 -1.89849,2.92033 0.80844,2.11335 0.26528,1.65418 -4.25173,-3.5942 z M 88.637347,150.60863 c 1.532156,-2.34567 1.537906,-2.6275 0.08644,-4.23637 -1.481171,-1.64178 -1.376143,-1.74757 2.214779,-2.23072 2.073328,-0.27895 6.04151,-1.45176 8.818182,-2.60622 5.536322,-2.30185 8.500412,-1.97195 7.608562,0.84682 -0.75618,2.38993 0.30994,4.82419 2.11281,4.82419 4.10362,0 -1.35473,1.75521 -10.066852,3.23714 -5.378973,0.91496 -10.372898,1.89182 -11.097612,2.17079 -0.985007,0.37916 -0.90329,-0.12717 0.323691,-2.00563 z m 14.946393,-38.87434 c -3.08411,-1.96857 -6.162233,-4.25776 -6.840275,-5.08708 -0.678041,-0.82932 -2.460601,-1.77837 -3.961244,-2.109 -1.500644,-0.33063 -2.944128,-0.95121 -3.207741,-1.37908 -0.263613,-0.42787 0.361661,-0.55733 1.389499,-0.28771 2.179707,0.57178 6.544999,-2.00211 6.544999,-3.859101 0,-1.54462 13.866142,5.167891 15.637502,7.570001 0.96519,1.30886 0.81394,1.73288 -0.93458,2.62025 -1.40314,0.7121 -2.07404,1.88863 -2.04926,3.59373 0.0203,1.39427 -0.19002,2.53102 -0.46729,2.52612 -0.27727,-0.005 -3.02749,-1.61956 -6.11161,-3.58813 z m 93.57422,-3.40008 c 0.77556,-2.0274 -1.30139,-4.25288 -3.96902,-4.25288 -1.22211,0 -2.22202,-0.36815 -2.22202,-0.8181 0,-1.26779 7.41294,-7.765801 12.751,-11.177231 2.82517,-1.80549 5.28357,-4.226042 5.96281,-5.870992 0.63566,-1.539401 1.5635,-3.051708 2.06187,-3.360682 0.49837,-0.308973 0.44361,0.305157 -0.12169,1.364732 -0.5653,1.059577 -1.02782,2.732602 -1.02782,3.717835 0,2.480537 3.27583,5.260747 5.33902,4.531247 2.35851,-0.83393 -12.7209,13.597611 -16.34592,15.643621 -2.54191,1.43471 -2.90469,1.46794 -2.42823,0.22245 z M 136.2531,95.345299 c -0.3362,-1.34372 -0.1361,-6.02502 0.44468,-10.402897 0.96407,-7.267284 0.87486,-9.484916 -0.60671,-15.079827 -0.46807,-1.767582 -0.36594,-1.754154 1.78262,0.234375 2.6885,2.488267 4.22934,2.641232 6.43508,0.638833 1.52115,-1.380927 1.6609,-0.976435 2.29317,6.637576 0.93385,11.24583 -0.61313,20.93322 -2.78096,17.41465 -1.04022,-1.68838 -4.05864,-1.14994 -5.55328,0.99061 l -1.40332,2.0098 z"
       id="path3772"
       inkscape:connector-curvature="0" />
    <path
       sodipodi:nodetypes="sssssssssssssssssssssssssscscssscsss"
       style="fill:#fe0000"
       d="M 126.80016,218.94433 C 107.78278,215.48265 91.113752,206.51905 78.061739,192.73574 70.031627,184.2557 66.520901,179.15188 61.870584,169.19735 55.70632,156.00204 54.213902,148.88324 54.213902,132.67508 c 0,-16.20816 1.492418,-23.32696 7.656682,-36.522281 4.650317,-9.954519 8.161043,-15.058346 16.191155,-23.538383 6.768969,-7.148232 20.382994,-17.321819 20.380147,-15.229823 -9.2e-4,0.67539 -1.998583,2.487822 -4.439252,4.027627 -6.732312,4.247377 -19.104989,16.602384 -24.089917,24.055513 -5.063218,7.570176 -9.657515,17.942127 -12.190047,27.519847 -2.43324,9.20222 -2.43324,30.17278 0,39.375 6.836312,25.8541 23.56057,46.21078 47.32988,57.60969 13.14996,6.30625 20.51751,7.85762 37.31624,7.85762 17.11091,0 24.20945,-1.54779 38.31776,-8.35492 7.7035,-3.71688 9.98915,-5.42219 17.27079,-12.8856 7.29365,-7.47573 8.11949,-8.64101 6.30841,-8.90137 -1.14613,-0.16476 -2.08388,-0.61398 -2.08388,-0.99824 0,-0.88391 6.14852,-3.85843 7.97564,-3.85843 1.72312,0 1.71235,0.53355 -0.11956,5.92674 -1.47633,4.34631 -3.18318,5.84985 -3.18318,2.80403 0,-0.97948 -3.46955,1.82994 -9.11215,7.37842 -5.17592,5.08961 -11.13073,9.97492 -13.78505,11.30925 -17.49383,8.79418 -38.80272,12.03561 -57.15741,8.69456 z M 224.00482,93.764369 c 2.72556,-3.24927 3.93096,-9.020471 3.74994,-17.953818 -0.13236,-6.531822 -2.30391,-11.857294 -7.39503,-18.135476 -2.15853,-2.661816 -2.28097,-2.699486 -2.28536,-0.703125 -0.003,1.160156 -0.38925,2.109375 -0.85933,2.109375 -0.91708,0 -5.94543,-8.491137 -5.3701,-9.068258 0.18949,-0.190096 2.50872,0.119954 5.15382,0.688999 4.48858,0.965636 6.08148,2.172618 3.85139,2.918302 -0.52683,0.176161 1.25251,3.691786 3.9541,7.812499 4.89231,7.462209 4.912,7.522238 4.91721,14.992208 0.003,4.125 -0.32123,9.069612 -0.72025,10.988028 -0.7312,3.515456 -4.69244,9.168226 -6.42475,9.168226 -0.51402,0 0.12874,-1.26763 1.42836,-2.81696 z"
       id="path3770"
       inkscape:connector-curvature="0" />
    <path
       sodipodi:nodetypes="ssscsssssssccccsssssssssscccsssssssscccssssscsssscsscssssssssssssssssscccsssscsssscsssssssssscsssccscccssccscssssssssssscssssssssssssssssssssssssssccsssssscsssssssscssscccscsssssccsssccsssssssssccscssccscccscccssscsccsssssssssscsssssssssssssssscssccsssssssscssscscssssssssssssscssccsccsssssssssssscsssssssccccsccccccccccssccssssssccccccsscc"
       inkscape:connector-curvature="0"
       id="path3768"
       d="m 141.23954,10.6907 c -0.78944,0.09886 -1.8193,1.984477 -3.19336,5.542969 -1.9695,5.10052 -2.11188,7.022831 -2.32422,31.460937 -0.12441,14.316278 0.0836,26.532053 0.46093,27.144531 0.37737,0.612478 0.18604,5.243386 -0.42382,10.291016 -0.98989,8.193086 -1.34542,9.289796 -3.32422,10.226566 -1.21911,0.57714 -2.96925,0.85055 -3.88867,0.60937 -1.8647,-0.48916 -4.31384,1.85818 -5.28907,5.068361 -0.85831,2.82534 0.76445,2.68286 2.66993,-0.23437 2.16698,-3.317541 3.33015,-2.904991 2.70507,0.95898 -0.72732,4.49594 1.56969,7.00977 6.4043,7.00977 l 3.59375,0 0,6.55469 0,6.55664 -7.94336,-3.95117 c -4.36916,-2.17365 -7.94336,-4.42725 -7.94336,-5.00586 0,-1.73927 -3.47916,-4.34309 -5.30469,-3.97071 -1.08784,0.2219 -2.29429,-0.59972 -3.33203,-2.26953 -0.95357,-1.53437 -3.75467,-3.56096 -6.76953,-4.89844 -2.82838,-1.25475 -7.564173,-3.836941 -10.523434,-5.738281 -9.475822,-6.08824 -19.329906,-12.820492 -21.728515,-14.84375 -2.267231,-1.912436 -2.28618,-1.913602 -0.722657,-0.04102 1.417847,1.698111 12.452685,9.50405 19.642579,13.89453 3.053526,1.86462 3.3404,4.7957 0.613281,6.259781 -2.860112,1.53546 -6.423531,0.29956 -10.660156,-3.697281 -2.056075,-1.9397 -6.261591,-5.54317 -9.345704,-8.00781 l -5.607421,-4.482423 5.138671,4.554683 c 2.827011,2.50484 7.663841,6.92866 10.748047,9.83008 3.084205,2.901431 6.658314,5.595531 7.94336,5.986341 1.285047,0.3908 3.668514,1.8742 5.294922,3.29687 1.626406,1.42267 5.063717,3.7746 7.638667,5.22657 5.43765,3.0662 6.71922,6.20466 3.81446,9.33789 -2.15772,2.32744 -2.31787,5.36787 -0.36914,6.99023 1.95397,1.62672 2.70267,0.58024 1.25195,-1.75 -1.7792,-2.85784 1.15836,-5.89102 4.96679,-5.12695 2.00863,0.40298 3.53037,-0.015 5.58008,-1.53516 l 2.81836,-2.08984 5.76367,2.0918 c 6.49118,2.35708 9.97071,4.28285 9.97071,5.51953 0,0.45984 -4.35929,3.62395 -9.6875,7.03125 -5.32823,3.4073 -10.47997,7.07234 -11.44727,8.14453 -2.9247,3.24185 -6.64079,4.77801 -8.78125,3.6289 -3.53239,-1.89639 -2.04343,-4.9779 3.32227,-6.87695 4.23413,-1.49855 26.54366,-12.77137 25.31836,-12.79297 -0.44402,-0.008 -6.43067,2.80455 -13.30469,6.24805 -10.73372,5.37699 -13.25912,6.27946 -17.88477,6.40039 -3.02157,0.079 -6.74244,0.85057 -8.474604,1.75781 -6.398052,3.35103 -10.622893,3.01904 -27.21289,-2.13867 -8.441305,-2.62433 -15.520151,-4.5977 -15.730469,-4.38672 -0.21032,0.21097 3.33162,1.49619 7.871094,2.85742 10.636466,3.18949 10.53961,3.14943 7.722656,3.23633 -1.31981,0.0407 -5.469116,-0.73463 -9.220703,-1.72266 -3.751586,-0.9881 -6.454993,-1.47255 -6.009766,-1.07617 1.22099,1.08704 8.079256,2.7527 19.322266,4.69141 6.30195,1.08668 10.784895,2.36182 11.916016,3.38867 2.225869,2.02068 2.240874,2.49113 0.169921,5.05664 -1.898195,2.3515 -1.994085,2.33639 -19.80664,-3.15234 -5.885999,-1.8137 -10.867353,-3.13133 -11.070313,-2.92774 -0.202959,0.20359 2.720219,1.25997 6.496094,2.34766 3.775875,1.08768 9.178756,2.76827 12.005859,3.73437 2.827103,0.96609 6.428189,2.02257 8.003907,2.34571 2.639553,0.54132 24.799332,-3.04314 28.677732,-4.63867 1.0047,-0.41333 1.63672,-0.25194 1.63672,0.41796 0,0.5998 1.78612,1.88762 3.9707,2.86329 2.18458,0.97566 4.50156,2.63943 5.14844,3.69726 1.37247,2.2444 3.79453,2.47077 6.35351,0.59375 2.36979,-1.73826 1.17742,-2.9151 -1.3496,-1.33203 -1.64184,1.02855 -2.18139,0.98083 -3.4629,-0.30469 -1.40121,-1.40558 -1.35001,-1.75043 0.66211,-4.48047 2.0991,-2.84806 2.12638,-3.10664 0.7461,-6.95703 l -1.4336,-3.99804 7.66016,-4.86133 c 4.21232,-2.67362 7.9165,-4.86133 8.23242,-4.86133 0.3159,0 0.57422,20.03906 0.57422,44.53125 0,38.95834 0.17592,44.53125 1.40235,44.53125 1.22384,0 1.42065,-5.50618 1.54492,-43.35938 0.15467,-47.10991 0.12012,-45.34242 0.85547,-46.08007 0.2796,-0.28049 3.54908,4.71284 7.26562,11.09765 3.71654,6.3848 7.79456,12.29094 9.06055,13.12305 3.93408,2.58576 2.63902,6.93739 -1.72461,5.79687 -1.96177,-0.51275 -7.68887,-11.1095 -12.36719,-22.88281 -0.87929,-2.2128 -1.78101,-3.84079 -2.00391,-3.61719 -0.22292,0.22361 0.85453,3.19454 2.39454,6.60157 1.99336,4.41002 2.65956,7.0727 2.30859,9.24219 -0.53515,3.30799 2.36778,8.20312 4.86523,8.20312 0.72392,0 1.56838,1.16017 1.87696,2.57812 1.21571,5.5863 2.94062,8.49227 9.31836,15.70313 3.64841,4.125 10.28576,12.73133 14.75,19.125 4.46423,6.39367 8.11718,11.30017 8.11718,10.9043 0,-0.39589 -3.95824,-6.33822 -8.79687,-13.20703 -10.11786,-14.36309 -10.79083,-15.80738 -8.05274,-17.27735 3.73004,-2.0025 7.00114,1.29406 14.16797,14.27149 3.63723,6.58614 6.97565,12.19842 7.41797,12.47265 1.25052,0.77527 -14.99009,-27.82345 -17.5332,-30.875 -1.24297,-1.49147 -3.33272,-4.86647 -4.64453,-7.5 -2.67696,-5.3741 -6.56823,-9.94531 -8.4668,-9.94531 -0.99448,0 -1.03704,-0.41984 -0.19922,-1.99023 0.58367,-1.09424 0.84878,-3.09815 0.58985,-4.45313 -0.3816,-1.99703 0.0878,-2.82165 2.47656,-4.35352 1.76058,-1.129 3.06236,-2.82731 3.23437,-4.21874 l 0.28907,-2.32813 -2.15821,2.49023 c -2.95394,3.40961 -5.24322,4.32168 -9.63281,3.8379 -3.49064,-0.38473 -3.97182,-0.82269 -7.27344,-6.59766 -1.94473,-3.4016 -3.33392,-6.715 -3.08594,-7.36328 0.27967,-0.73109 -0.0675,-0.97822 -0.91406,-0.65235 -0.96147,0.37009 -1.19419,0.0778 -0.78711,-0.98632 0.31783,-0.83085 1.05896,-1.52382 1.64649,-1.54102 0.58753,-0.0172 0.0934,-0.84592 -1.09766,-1.8418 -2.05503,-1.71827 -2.14325,-2.27896 -1.74023,-10.98437 0.47298,-10.21657 1.28773,-15.085701 2.85547,-17.060561 1.48101,-1.86559 1.14839,-21.075144 -0.74805,-43.207024 -0.86156,-10.054687 -1.86111,-23.34375 -2.2207,-29.53125 -0.45527,-7.83375 -1.09622,-11.503867 -2.25,-11.359375 z m 0.17578,0.578125 c 0.36598,0 0.94083,5.378906 1.27734,11.953125 0.33652,6.574219 1.2419,19.093709 2.01172,27.822266 1.25094,14.184114 1.2493,16.101358 -0.0215,18.046875 -1.69558,2.595884 -3.79907,2.771824 -6.44531,0.537109 -0.91368,-0.771595 -1.36128,-1.144506 -1.43164,-1.140625 -0.12697,-5.005468 -0.18898,-12.258786 -0.13281,-20.546875 0.16029,-23.647076 0.34288,-26.357706 2.125,-31.28125 1.07316,-2.964844 2.25122,-5.390625 2.61719,-5.390625 z m 96.99414,34.6875 c -1.83933,0 -9.31322,7.694132 -11.72266,12.068359 -2.97798,5.406392 -1.8951,4.838636 1.58203,-0.830078 4.2892,-6.99261 11.29688,-12.789719 11.29688,-9.345703 0,0.524993 -2.20505,5.271087 -4.89844,10.546875 -2.6934,5.275788 -5.0381,10.013672 -5.21094,10.529297 -0.8391,2.503182 2.25547,-2.814943 6.47071,-11.119141 4.49405,-8.853486 5.1221,-11.849609 2.48242,-11.849609 z m -14.13477,16.875 c -0.26895,0 -2.89554,4.113281 -5.83789,9.140625 -2.94236,5.027344 -6.06362,9.651396 -6.93555,10.275391 -0.87192,0.623995 -2.07219,2.315009 -2.66796,3.757812 -0.59577,1.442802 -3.07323,3.874116 -5.50391,5.404296 -2.43069,1.53018 -6.31327,4.54694 -8.62891,6.70313 -4.04212,3.763781 -4.28414,3.856241 -6.07422,2.320311 -1.02549,-0.879901 -2.32801,-2.421671 -2.89453,-3.427741 -1.42828,-2.53648 -4.34979,-2.74864 -6.41015,-0.46484 -1.35993,1.50741 -1.4388,1.91602 -0.36914,1.91602 0.7479,0 1.8656,-0.50625 2.48242,-1.125 0.87227,-0.875 1.36992,-0.875 2.24219,0 0.87227,0.87499 0.75899,1.125 -0.50977,1.125 -1.98291,0 -6.21875,4.072121 -6.21875,5.978521 0,0.75731 1.02897,2.60558 2.28711,4.10546 l 2.28711,2.72657 -6.55274,3.17968 c -7.71098,3.74199 -9.01905,4.98191 -7.36718,6.97852 0.6399,0.77344 1.2741,1.40625 1.41015,1.40625 0.13604,0 3.82183,-1.90757 8.18946,-4.23828 4.36764,-2.33072 10.9199,-5.25398 14.56054,-6.4961 8.21928,-2.80428 12.8954,-6.00871 20.81836,-14.265621 4.38857,-4.57354 7.45255,-8.969877 10.51367,-15.083988 2.37616,-4.745989 4.29974,-8.952588 4.27344,-9.34961 -0.0263,-0.397022 -2.1174,3.357797 -4.64648,8.345703 -4.68726,9.244285 -7.07765,11.473735 -9.83789,9.175785 -0.74636,-0.62136 -1.35547,-2.045408 -1.35547,-3.164066 0,-1.748304 4.9402,-11.239044 11.38867,-21.876953 1.01583,-1.675781 1.62637,-3.046875 1.35742,-3.046875 z M 57.634069,68.03445 c -0.200245,0.02006 -0.361944,0.09592 -0.488281,0.222656 -1.697374,1.702678 0.994796,6.76451 6.207031,11.667969 2.59385,2.44019 4.926585,4.434594 5.183594,4.433594 0.257009,-0.0011 -1.652503,-2.014572 -4.244141,-4.47461 -4.496844,-4.268498 -7.867134,-9.902507 -6.652344,-11.121093 0.313143,-0.314122 2.504196,1.069734 4.869141,3.076171 2.364945,2.006437 5.635825,4.652278 7.267578,5.878907 l 2.966797,2.230469 -2.949219,-2.699219 C 62.394884,70.47373 59.035786,67.894029 57.634069,68.03445 Z m 79.171871,0.486328 c 0.0419,0.116121 0.44094,0.596775 1.26758,1.576172 2.09198,2.47858 3.9932,2.673237 6.23437,0.638672 1.52115,-1.380927 1.66266,-0.975339 2.29493,6.638672 0.93385,11.24583 -0.61342,20.932635 -2.78125,17.414065 -0.34536,-0.56055 -1.42013,-1.01953 -2.38868,-1.01953 -0.96856,0 -2.39417,0.90438 -3.16601,2.00976 l -1.40234,2.00977 -0.60547,-2.41992 c -0.3331,-1.33134 -0.11285,-6.230099 0.49023,-10.88477 0.60309,-4.654671 0.79297,-8.956277 0.42188,-9.558594 -0.15458,-0.250898 -0.27411,-2.83085 -0.36524,-6.404297 z m 75.09766,14.259766 c 0.31566,-0.07495 0.21143,0.512325 -0.28321,1.439453 -0.56529,1.059577 -1.02734,2.731564 -1.02734,3.716797 0,2.480535 3.27666,5.260755 5.33984,4.531255 0.91869,-0.32483 -1.71109,2.68301 -5.84374,6.68359 -7.86707,7.615611 -13.99717,11.966981 -12.93165,9.181641 0.77556,-2.0274 -1.30112,-4.25195 -3.96875,-4.25195 -1.22211,0 -2.22265,-0.36841 -2.22265,-0.81836 0,-1.26779 7.41389,-7.766311 12.75195,-11.177741 2.82517,-1.80549 5.28365,-4.226142 5.96289,-5.871092 0.63566,-1.5394 1.56413,-3.0504 2.0625,-3.359374 0.0623,-0.03862 0.11506,-0.06351 0.16016,-0.07422 z m -70.75586,12.056645 c 0.18553,0.002 0.38088,0.0179 0.58398,0.0469 1.76603,0.25218 2.00097,0.79406 1.75391,4.04101 -1.26834,16.669091 -1.20838,22.993321 0.22461,23.544931 0.80416,0.30955 1.46289,0.84227 1.46289,1.18555 l -0.002,0 c 0,1.9047 -8.57645,0.0673 -20.14063,-4.31641 -7.17004,-2.71802 -13.60638,-4.72841 -14.30273,-4.46679 -0.18719,0.0703 -0.5212,0.0297 -0.95508,-0.0898 l 0.67383,-2.25781 c 0.95344,-3.201 3.37108,-3.41599 7.45508,-0.66211 1.89119,1.27526 7.5391,4.41222 12.55078,6.97069 l 9.11328,4.65039 -0.008,-6.65429 c -0.004,-3.65998 -0.43409,-9.29871 -0.95703,-12.53125 -1.04431,-6.455261 -0.23603,-9.489361 2.54688,-9.460941 z m -43.039062,3.95898 c 2.678292,0.28288 13.486802,5.685271 15.037112,7.787111 0.96545,1.30923 0.81541,1.72845 -0.9336,2.59961 -1.20291,0.59916 -2.16676,2.02143 -2.27539,3.35938 l -0.17969,2.23437 c -2.88519,-0.80306 -10.3915,-5.30729 -12.626947,-7.78515 -0.926462,-1.02693 -2.897998,-2.13423 -4.38086,-2.46094 -1.482862,-0.32671 -2.912168,-0.94323 -3.175781,-1.3711 -0.263613,-0.42786 0.362787,-0.55672 1.390625,-0.2871 2.179707,0.57178 6.544922,-2.00239 6.544922,-3.859381 0,-0.19308 0.216996,-0.25721 0.599609,-0.2168 z m 38.320312,1.06055 c 0.25328,-0.0217 0.42988,0.313641 0.68945,0.992181 0.3178,0.83077 0.57813,2.74139 0.57813,4.2461 0,2.11082 -0.42699,2.73633 -1.86914,2.73633 -1.42323,0 -1.86245,-0.61508 -1.83985,-2.57812 0.0164,-1.41797 0.59713,-3.3286 1.29102,-4.2461 0.56675,-0.74939 0.89711,-1.128681 1.15039,-1.150391 z m 57.49219,5.220701 c 1.10905,-0.0252 1.95987,0.41717 2.32031,1.35938 0.79878,2.08809 -1.0073,3.75394 -5.49805,5.07422 -2.19069,0.64406 -7.93314,3.24419 -12.76172,5.77734 -9.91061,5.19924 -8.93688,4.80202 -9.75586,3.98047 -1.41494,-1.41936 -0.19892,-2.38447 8.57032,-6.79883 5.05627,-2.54528 10.47911,-5.71245 12.05078,-7.03906 1.79476,-1.51491 3.64829,-2.32109 5.07422,-2.35352 z m -9.69141,0.0117 c 1.00859,-0.10345 1.9983,0.23799 2.80078,1.04297 0.85723,0.85992 0.52653,1.4997 -1.44922,2.80664 -3.03349,2.00663 -3.25763,2.03592 -4.69531,0.59375 -0.85525,-0.85793 -0.75749,-1.50091 0.42578,-2.8125 0.88213,-0.97778 1.90938,-1.5274 2.91797,-1.63086 z m -66.04102,4.64844 c 0.83659,-0.0172 2.05292,0.61253 2.70313,1.39844 1.84705,2.23251 0.49304,2.57286 -1.98828,0.5 -1.72888,-1.44428 -1.89138,-1.87434 -0.71485,-1.89844 z m -76.015619,20.04102 c -0.375932,-0.007 -0.651294,0.0286 -0.791015,0.11523 -0.555821,0.34459 -0.799453,1.17522 -0.542969,1.8457 0.257495,0.67312 -0.341508,1.43199 -1.337891,1.69336 -0.992468,0.26035 -1.804687,0.85997 -1.804687,1.33399 0,1.72209 4.427329,4.96957 9.861328,7.23242 5.140804,2.14077 7.827588,2.92942 6.882813,2.01953 -0.214176,-0.20627 -3.09046,-1.47233 -6.390626,-2.8125 -5.890684,-2.39215 -9.419921,-4.76368 -9.419921,-6.33203 0,-1.23681 2.766695,-0.93278 9.115234,1.00391 3.214109,0.98042 5.633869,1.44239 5.376953,1.02539 -0.256916,-0.417 -2.551435,-1.26031 -5.097656,-1.87305 -4.466922,-1.07495 -7.479361,-3.18289 -6.275391,-4.39063 0.319867,-0.32086 3.088569,0.24039 6.152344,1.24805 3.063776,1.00762 5.363772,1.49763 5.111328,1.08789 -0.637265,-1.03434 -8.208318,-3.14914 -10.839844,-3.19726 z m 63.265629,10.23437 c 1.70994,-0.0149 2.42744,0.78358 1.92578,2.36914 -0.75618,2.38993 0.31041,4.82422 2.11328,4.82422 4.10361,0 -1.35428,1.7544 -10.066407,3.23633 -5.37897,0.91496 -10.372943,1.8929 -11.097657,2.17187 -0.985008,0.37916 -0.90276,-0.1274 0.324219,-2.00586 1.532153,-2.34567 1.537401,-2.62745 0.08594,-4.23632 -1.481171,-1.64178 -1.376079,-1.74732 2.214843,-2.23047 2.073328,-0.27895 6.041688,-1.45296 8.81836,-2.60743 2.422142,-1.00705 4.351682,-1.50992 5.681642,-1.52148 z m 17.37304,0.19531 c 0.46536,-0.0686 0.74243,0.24931 1.11328,0.91407 0.53044,0.95081 0.42557,1.98779 -0.28906,2.85156 -1.25862,1.52129 -4.24037,1.81267 -5.05273,0.49414 -0.29225,-0.47433 0.6021,-1.75584 1.98828,-2.84961 1.12146,-0.8849 1.77487,-1.34151 2.24023,-1.41016 z m -47.810544,0.55078 c 0.324669,0.0134 0.604489,0.1001 0.759766,0.25586 0.310552,0.31153 -0.24136,0.53289 -1.226562,0.49219 -1.088732,-0.045 -1.309999,-0.26713 -0.564454,-0.5664 0.337325,-0.13542 0.706581,-0.19506 1.03125,-0.18165 z m 75.150394,7.02149 c 0.30022,0.0729 0.89182,1.02059 2.04101,3.03711 1.27885,2.24403 2.32617,4.24794 2.32617,4.45312 0,0.20518 -0.39793,0.37305 -0.88281,0.37305 -1.46985,0 -3.7913,-4.01604 -3.7793,-6.53711 0.004,-0.91086 0.0614,-1.38287 0.29493,-1.32617 z m 13.23046,6.30859 c 0.17823,-0.0306 0.65273,0.39077 1.58399,1.23438 1.0485,0.94981 3.07832,4.04687 4.51172,6.88281 1.43338,2.83594 3.91133,6.79629 5.50586,8.80078 3.50855,4.41066 3.59004,4.82196 0.5625,2.83203 -2.16936,-1.42584 -2.5087,-1.42176 -4.7461,0.0488 -1.41563,0.93045 -2.19878,2.13479 -1.89843,2.91992 0.80843,2.11335 0.26505,1.65268 -4.25196,-3.5957 -7.02997,-8.16823 -9.29783,-13.93647 -5.16797,-13.14453 2.66692,0.51141 4.78838,-1.82634 4.08985,-4.50586 -0.25041,-0.96054 -0.36768,-1.44205 -0.18946,-1.47266 z m -95.949213,27.80471 c -2.147137,0 -2.145526,0.0397 0.574219,12.1875 0.865817,3.86719 4.27706,20.32031 7.580078,36.5625 3.303017,16.24219 6.228209,30.47186 6.5,31.62109 l 0.49414,2.08985 -18.470703,0.27539 0,-0.002 c -10.158929,0.15142 76.575919,0.29064 192.744139,0.30864 116.16822,0.018 208.58339,-0.11757 205.36719,-0.30078 -0.33887,-0.0193 -8.60525,-0.12146 -12.73068,-0.11285 -7.21577,0 -16.32163,-0.12934 -21.88456,-0.12934 -5.46794,0 -139.19726,0 -139.19726,0 l -145.10547,0 0,-22.01953 0,-22.01953 -33.36524,-0.2461 -33.363275,-0.24609 -3.488281,-16.36523 c -1.918585,-9.00035 -3.280714,-16.70277 -3.025391,-17.11719 0.954304,-1.54892 -0.766931,-4.48633 -2.628906,-4.48633 z m 126.873043,20.75195 c -0.0197,-0.005 -0.0374,2.5e-4 -0.0527,0.0156 -0.18819,0.18879 0.50079,3.43212 1.5332,7.20898 1.03242,3.77685 1.66011,7.08515 1.39453,7.35156 -0.94307,0.94602 -2.54221,-0.8346 -4.8457,-5.39453 -1.28393,-2.54163 -2.54589,-4.62109 -2.80469,-4.62109 -0.69503,0 3.28752,7.69964 4.98242,9.63281 1.96864,2.24541 3.50336,1.50186 3.2793,-1.58789 -0.21169,-2.91906 -2.87418,-12.45928 -3.48633,-12.60547 z m -117.560543,19.56055 31.876953,0 31.87695,0 0,21.09375 0,21.09375 -27.57031,0 c -15.163554,0 -27.570312,-0.13543 -27.570312,-0.30078 0,-0.59934 -7.334669,-36.79852 -7.964844,-39.3086 z"
       style="fill:#000000" />
    <path
       inkscape:connector-curvature="0"
       id="path4902"
       d="m 325.78126,75.371134 c -1.06598,-0.0106 -2.15962,0.38542 -2.95613,1.34817 -0.86788,1.049 -0.88906,1.67614 -0.0966,2.9491 0.78209,1.25624 0.78209,1.97727 0,3.233503 -0.79251,1.27298 -0.77133,1.90012 0.0966,2.94912 0.60625,0.73278 1.95467,1.33236 2.99651,1.33236 2.76909,0 4.37323,-2.2224 3.09131,-4.28148 -0.78208,-1.256233 -0.78208,-1.977243 0,-3.233503 1.41908,-2.27941 -0.78651,-4.27392 -3.13169,-4.29727 z m -7.55008,0.0158 c -1.26879,0 -4.59044,2.88849 -4.59044,3.99184 0,1.03351 0.23519,1.07468 1.2604,0.22118 1.09207,-0.90918 1.2604,-0.47423 1.2604,3.266853 0,3.27488 0.30439,4.31659 1.26039,4.31659 0.99997,0 1.25864,-1.2171 1.25864,-5.898233 0,-3.24403 -0.20215,-5.89823 -0.44939,-5.89823 z m 16.82926,0 c -3.44686,0 -5.2489,7.674603 -2.45935,10.472873 0.72598,0.72825 1.83237,1.32359 2.45935,1.32359 2.11104,0 3.78119,-2.60414 3.78119,-5.898233 0,-3.29409 -1.67015,-5.89823 -3.78119,-5.89823 z m 7.80989,0.12113 c -1.82634,-0.0357 -2.80807,1.68064 -2.024,3.73028 0.30357,0.79356 1.26552,1.21505 2.40142,1.05325 1.38824,-0.19775 1.89234,-0.83259 1.89234,-2.37685 0,-1.54426 -0.50409,-2.17734 -1.89234,-2.37508 -0.12902,-0.0183 -0.25566,-0.0292 -0.37742,-0.0316 z m 0.005,1.59393 c 0.0411,8.3e-4 0.0829,0.004 0.1264,0.0105 0.46863,0.0668 0.63897,0.28092 0.63897,0.80222 0,0.52129 -0.17034,0.73546 -0.63897,0.80224 -0.38345,0.0546 -0.70855,-0.0866 -0.81101,-0.3546 -0.26469,-0.69189 0.0681,-1.27243 0.68461,-1.26039 z m -17.03114,0.11058 c 0.0529,9e-4 0.10902,0.006 0.16502,0.014 0.60231,0.0857 0.81978,0.36044 0.81978,1.03043 0,0.66999 -0.21747,0.94636 -0.81978,1.0322 -0.49283,0.0702 -0.91102,-0.11387 -1.04273,-0.45817 -0.34018,-0.88925 0.0853,-1.63396 0.87771,-1.6185 z m 9.16157,0.75133 c 0.0829,0.004 0.16847,0.0165 0.25629,0.0404 0.94466,0.25207 1.28673,1.05948 1.28673,3.02811 0,1.968613 -0.34207,2.777673 -1.28673,3.029873 -0.77294,0.20626 -1.42772,-0.33124 -1.6343,-1.3429 -0.53353,-2.612873 0.13523,-4.800873 1.37801,-4.755453 z m -9.16157,4.953813 c 0.0529,9e-4 0.10902,0.006 0.16502,0.014 0.60231,0.0858 0.81978,0.36045 0.81978,1.03044 0,0.66998 -0.21747,0.94636 -0.81978,1.03219 -0.49283,0.0702 -0.91102,-0.11386 -1.04273,-0.45817 -0.34018,-0.88925 0.0853,-1.63396 0.87771,-1.6185 z"
       style="fill:#000000" />
    <path
       inkscape:connector-curvature="0"
       id="path4381"
       d="m 233.6219,149.60202 c 1.19675,0.39052 5.8041,0.49937 10.23854,0.24189 6.15658,-0.35746 7.95878,-0.15084 7.62329,0.87399 -0.89086,2.72161 0.88107,1.94561 4.22072,-1.8484 1.88778,-2.14462 3.38084,-4.09153 3.31789,-4.32646 -0.19783,-0.73835 -9.67262,-0.59664 -10.10434,0.15111 -0.22604,0.3915 0.37611,1.16858 1.33812,1.72682 1.65524,0.96085 1.56523,1.04453 -1.68269,1.56632 -7.66054,1.2307 -13.12622,0.48652 -18.61295,-2.53426 -7.504,-4.13141 -11.71596,-7.90175 -13.10311,-11.72926 -0.66141,-1.82505 -1.38753,-2.99793 -1.61359,-2.6064 -0.64425,1.11589 1.02582,5.80541 2.87237,8.06541 1.9668,2.40723 12.36493,9.39437 15.50575,10.41924 z"
       style="fill:#fe0000" />
    <path
       inkscape:connector-curvature="0"
       id="path4271"
       d="m 384.81193,169.201 c -0.97162,0.0876 -1.91036,0.52125 -2.18725,1.24284 -0.68287,1.77952 0.9659,4.58498 6.37921,10.85555 l 4.65539,5.39267 -0.13166,13.93106 -0.1299,13.93106 -3.43537,4.49388 c -4.81265,6.29533 -7.16261,11.43138 -6.47751,14.16102 0.31048,1.23706 2.79588,5.35763 5.52256,9.15806 l 4.95732,6.9111 -3.69693,6.22475 c -2.03958,3.43312 -3.46576,6.83106 -3.17907,7.57817 0.46201,1.20398 -18.31461,1.35519 -168.87193,1.35519 l -93.60426,-0.0288 0.0336,0.43012 c 171.86013,-0.005 305.84619,-0.0276 298.5886,-0.17666 -12.15717,-0.24975 -13.53083,-0.44035 -14.65605,-2.04683 -0.68288,-0.97494 -2.23109,-1.77297 -3.43888,-1.77297 -2.18513,0 -2.19426,-0.0432 -2.09949,-8.76309 0.17231,-15.85423 1.1651,-27.20164 2.44882,-27.99377 0.6576,-0.40579 4.70005,-1.00656 8.98427,-1.33588 6.01467,-0.46232 8.19379,-1.00357 9.5618,-2.37158 1.66687,-1.66688 1.68034,-1.86212 0.24401,-3.29845 -1.43542,-1.43544 -1.71726,-1.43557 -4.72034,-0.004 -3.35801,1.60132 -7.45931,1.83009 -11.22244,0.62493 l -2.24694,-0.71973 2.29258,-0.0895 c 3.40427,-0.13308 4.44825,-1.73691 4.44825,-6.83036 0,-5.37395 -1.05317,-6.74084 -5.1943,-6.74084 -2.83232,0 -3.00454,-0.16687 -2.55064,-2.47164 1.80232,-9.1517 1.31478,-14.82302 -1.42014,-16.51329 -0.58735,-0.363 -0.21428,-0.99626 0.95495,-1.62201 1.59184,-0.85192 1.91869,-1.84499 1.91869,-5.82801 0,-5.91373 -1.18471,-7.06858 -6.93394,-6.75312 -2.36475,0.12975 -5.03323,-0.0875 -5.92982,-0.48275 -0.91821,-0.40475 -2.57296,-0.29038 -3.78821,0.26332 -1.3576,0.61857 -2.35472,0.66359 -2.69107,0.11937 -0.40772,-0.65972 -1.41224,-0.91798 -2.38387,-0.83032 z m 6.91111,2.75777 c 1.67697,-0.0628 2.69093,1.4875 2.72618,4.39033 0.0241,1.98149 -0.0352,3.60213 -0.13166,3.60213 -0.0965,0 -1.47094,-1.47715 -3.05619,-3.28265 -2.50794,-2.85639 -2.69329,-3.3884 -1.42365,-4.09892 0.69468,-0.38876 1.32634,-0.58993 1.88532,-0.61089 z m 2.56117,60.43228 c 0.0817,0.0124 0.17854,0.15068 0.28613,0.41955 0.25967,0.6488 0.22845,1.4234 -0.0702,1.72207 -0.29866,0.29865 -0.51122,-0.23219 -0.47221,-1.17965 0.027,-0.65439 0.12006,-0.9826 0.25628,-0.96197 z m 1.95204,27.01074 c 0.0913,-0.0217 0.17482,-0.003 0.244,0.0667 0.27672,0.27672 -1.6e-4,1.0018 -0.6144,1.61148 -0.88765,0.88104 -0.99156,0.77889 -0.50381,-0.50205 0.25314,-0.6648 0.60029,-1.11103 0.87421,-1.17613 z"
       style="fill:#000000"
       sodipodi:nodetypes="ccsccccscccssccsssscsssccccssssssscscccccsssccccccccssc" />
    <path
       id="path4355"
       d="m 387.98785,263.08157 c -0.28669,-0.7471 1.13855,-4.146 3.17814,-7.57913 l 3.69793,-6.22455 -4.9426,-6.88897 c -4.03464,-5.62344 -4.83554,-7.32692 -4.35971,-9.27295 0.54891,-2.24497 1.77729,-3.68723 3.16697,-3.71839 0.33766,-0.007 2.00309,1.70515 3.70096,3.80605 3.02986,3.74902 3.09611,4.01338 3.57581,14.26732 0.41482,8.86701 0.26866,10.66762 -0.96611,11.90239 -1.13634,1.13635 -1.21733,1.6924 -0.36991,2.53982 1.8675,1.8675 1.20801,2.523 -2.53836,2.523 -2.39924,0 -3.79893,-0.45762 -4.14312,-1.35459 z"
       style="fill:#fefefe"
       inkscape:connector-curvature="0" />
    <path
       id="path4353"
       d="m 396.91267,253.42451 c -0.10439,-6.05462 -0.63394,-16.33618 -1.17678,-22.84792 -0.70922,-8.50753 -0.7134,-12.85553 -0.0148,-15.44971 1.08253,-4.02023 3.33199,-5.32026 6.38162,-3.68816 1.89047,1.01176 1.90968,1.26237 1.15742,15.10433 -0.42072,7.74152 -0.76495,18.72194 -0.76495,24.40093 l 0,10.32544 2.62218,0.4599 c 1.44221,0.25294 2.79037,0.96546 2.99593,1.58337 0.27277,0.81996 -1.16403,1.12303 -5.31852,1.12185 l -5.69229,-0.002 -0.18978,-11.00842 z"
       style="fill:#fefefe"
       inkscape:connector-curvature="0" />
    <path
       id="path4351"
       d="m 404.74206,220.317 c 0,-2.27817 0.28982,-2.6984 1.53223,-2.22164 4.15165,1.59314 9.40797,1.60507 12.90242,0.0293 2.66601,-1.2022 3.86284,-1.36131 4.61117,-0.61298 2.06382,2.06381 -0.92678,3.61921 -8.08611,4.20556 -3.80337,0.3115 -7.82522,0.75604 -8.93746,0.98787 -1.75577,0.36597 -2.02225,0.0513 -2.02225,-2.38811 z"
       style="fill:#fefefe"
       inkscape:connector-curvature="0" />
    <path
       id="path4349"
       d="m 404.74206,214.63634 c 0,-2.26341 3.68501,-5.92441 5.96327,-5.92441 1.58328,0 1.67926,6.20852 0.10348,6.69397 -5.10433,1.57251 -6.06675,1.45043 -6.06675,-0.76956 z"
       style="fill:#fefefe"
       inkscape:connector-curvature="0" />
    <path
       id="path4345"
       d="m 397.99327,190.04853 c -0.49871,-0.36318 -3.57628,-3.6937 -6.83905,-7.40116 -8.10508,-9.20974 -9.76642,-12.58289 -6.19733,-12.58289 1.16661,0 2.21056,1.01734 3.01184,2.93507 1.31973,3.15856 5.78283,7.46223 11.44626,11.0374 3.89982,2.46184 4.19792,3.20629 2.11715,5.28706 -1.56748,1.56747 -2.20274,1.69754 -3.53887,0.72452 z"
       style="fill:#fefefe"
       inkscape:connector-curvature="0" />
    <path
       id="path4343"
       d="m 398.88645,182.62544 c -1.12193,-1.81532 0.5469,-6.01923 2.79633,-7.04413 3.47099,-1.58149 3.95806,-1.28271 3.95806,2.4279 0,2.82571 -0.4147,3.6398 -2.28923,4.49389 -2.8157,1.28293 -3.73235,1.30804 -4.46516,0.12234 z"
       style="fill:#fefefe"
       inkscape:connector-curvature="0" />
    <path
       id="path4373"
       d="m 384.19257,232.02728 c -0.13724,-2.57859 5.18828,-12.10515 8.16753,-14.61051 1.82176,-1.53199 1.94288,-2.4423 1.99283,-14.97964 0.0293,-7.34169 0.35653,-13.65187 0.72727,-14.02261 0.37075,-0.37074 0.67409,-0.21645 0.67409,0.34288 0,1.45602 3.20515,2.97098 4.9053,2.31857 0.79223,-0.30401 1.98571,-1.59347 2.65217,-2.86548 l 1.21177,-2.31272 0.60019,2.73265 c 0.3301,1.50296 0.18011,5.32169 -0.33333,8.48606 -0.51344,3.16437 -0.93658,7.68876 -0.94032,10.05421 -0.006,4.10683 -0.093,4.25469 -1.91803,3.27795 -5.19582,-2.78072 -8.59727,3.77321 -7.5209,14.4913 0.69752,6.94556 -0.30195,8.44113 -3.58187,5.35982 -1.69768,-1.59489 -2.44113,-1.78382 -3.91519,-0.99491 -1.00077,0.5356 -1.99498,1.88471 -2.20935,2.99803 -0.35888,1.86387 -0.39945,1.84204 -0.51216,-0.2756 z"
       style="fill:#0000fe"
       inkscape:connector-curvature="0" />
    <g
       transform="matrix(1,0,0,-1,-14.112295,416.92168)"
       id="g5540">
      <path
         inkscape:connector-curvature="0"
         style="fill:#000000"
         d="m 255.80078,280.70703 c -1.61156,-0.0404 -3.35785,0.41036 -4.80469,1.36133 -1.18995,0.78212 -2.88931,1.2027 -3.77539,0.93555 -1.72106,-0.51889 -3.9955,1.92209 -5.125,5.50195 -0.86706,2.74808 1.08019,2.65311 2.125,-0.10352 0.44262,-1.16784 1.44023,-2.36513 2.2168,-2.66406 1.0864,-0.41819 1.41211,0.0588 1.41211,2.07227 0,1.45685 0.93896,3.71156 2.11914,5.08789 1.97966,2.30869 2.03818,2.67225 0.86523,5.48828 -1.39406,3.34689 -1.07481,6.45763 1.58204,15.36914 0.93618,3.14014 1.70117,6.60606 1.70117,7.70312 0,1.98917 2.825,5.22971 5.37304,6.16407 3.00568,1.10217 5.19216,0.28121 21.28321,-8.00782 16.12071,-8.30432 24.39062,-14.1291 24.39062,-17.17578 0,-2.48657 -2.63149,-1.93895 -12.13281,2.52344 -14.14003,6.64103 -28.30646,11.83553 -29.36914,10.76953 -0.48148,-0.48299 -1.11994,-3.82576 -1.41992,-7.42773 -0.29997,-3.60198 -0.84747,-7.02513 -1.21485,-7.60742 -0.77001,-1.22048 10.54175,-4.04813 16.90039,-4.22461 4.63642,-0.12869 6.58935,-1.59473 4.87891,-3.66211 -1.46729,-1.77351 -6.74118,-1.78515 -15.84766,-0.0371 -3.86062,0.74105 -7.13492,1.34756 -7.27539,1.34765 -0.14047,8e-5 0.16199,-0.78257 0.67188,-1.73828 1.41588,-2.65387 1.10654,-8.25022 -0.55664,-10.09375 -0.91129,-1.01012 -2.38648,-1.54161 -3.99805,-1.58203 z"
         id="path5472" />
      <path
         inkscape:connector-curvature="0"
         style="fill:#fefefe"
         d="m 258.28749,285.13699 c -3.19473,0 -5.35705,2.90728 -4.63026,6.22671 0.53591,2.44758 0.86933,2.69048 2.99451,2.16914 2.98836,-0.73308 3.70344,-1.78676 3.72069,-5.47621 0.0116,-2.46784 -0.30984,-2.91964 -2.08494,-2.91964 z"
         id="path5524" />
      <path
         inkscape:connector-curvature="0"
         style="fill:#fefefe"
         d="m 278.15046,292.50348 c -2.62904,-0.0965 -6.33899,0.2548 -10.66046,1.07241 -3.94756,0.74687 -7.77144,1.12968 -8.49879,0.84969 -3.29236,-1.26734 -8.75476,3.31863 -7.11757,5.97592 0.79268,1.2866 2.07688,1.14003 7.23173,-0.82536 5.03429,-1.91944 17.50372,-4.43761 20.98403,-4.23723 1.45021,0.0835 2.23839,-0.34556 2.23839,-1.21839 0,-0.97618 -1.5483,-1.52057 -4.17733,-1.61704 z"
         id="path5522" />
      <path
         inkscape:connector-curvature="0"
         style="fill:#fefefe"
         d="m 303.49899,301.30734 c -0.42394,0 -5.16027,2.06066 -10.52384,4.57973 -12.3303,5.79107 -27.81062,11.64888 -29.28443,11.08156 -1.45782,-0.56117 -5.09441,2.83276 -5.09441,4.75378 0,0.81357 0.87865,2.41906 1.95391,3.56721 1.35004,1.44155 2.52854,1.91349 3.80678,1.52533 4.93204,-1.49767 33.60376,-17.16907 36.5536,-19.979 3.15116,-3.00169 4.33488,-5.52861 2.58839,-5.52861 z"
         id="path5520" />
      <path
         inkscape:connector-curvature="0"
         style="fill:#0000fe"
         d="m 250.72449,300.57369 c -0.31964,0.0526 -0.21306,0.89947 0.1385,2.97953 0.71585,4.23552 4.01515,17.08074 5.14119,20.01456 0.43224,1.12615 1.69511,2.41516 2.80736,2.8635 2.93832,1.1844 2.97615,1.13355 0.83659,-1.15102 -2.52311,-2.69413 -2.46182,-4.71517 0.21897,-7.20741 2.06708,-1.9217 2.13761,-2.34876 1.53843,-9.34287 -0.34538,-4.03145 -0.88674,-7.59158 -1.20342,-7.90925 -0.31669,-0.31767 -1.99041,-0.0636 -3.71881,0.56334 -2.62029,0.95048 -3.40002,0.92674 -4.6864,-0.14223 -0.53582,-0.44527 -0.88063,-0.69973 -1.07241,-0.66815 z"
         id="path5538" />
    </g>
    <g
       transform="matrix(-0.54482946,0.76799349,0.76799349,0.54482946,376.44771,-409.58802)"
       id="g5372">
      <path
         style="fill:#000000"
         d="m 520.25457,323.38853 c -2.21033,0.65208 -4.43086,1.65371 -6.12813,2.79297 -2.02031,1.35607 -5.05905,2.85609 -6.75283,3.33236 -1.69378,0.47627 -4.4785,1.87224 -6.18877,3.10178 -1.82773,1.31399 -7.59926,3.66576 -13.99941,5.70423 -12.05379,3.83915 -13.82258,5.19944 -9.9327,7.64106 1.81647,1.14018 2.47042,1.13669 3.548,-0.0206 1.18662,-1.27444 1.13823,-1.31293 -0.48146,-0.36508 -1.24647,0.72944 -1.9045,0.6803 -2.12961,-0.15985 -0.54103,-2.01912 0.41605,-2.73887 2.32985,-1.75389 1.38156,0.71106 1.98204,1.95377 2.53682,5.25897 0.59828,3.56423 1.13671,4.56585 3.04909,5.67393 3.11667,1.8059 9.58401,0.17044 11.3305,-2.86549 0.90583,-1.57462 1.49626,-1.9136 2.28061,-1.30862 1.90685,1.47081 6.6487,12.57493 7.30836,17.11537 0.35487,2.443 0.94469,4.61561 1.31108,4.82787 2.4613,1.42615 4.60941,-3.28999 3.9347,-8.63609 -0.31066,-2.46155 -1.59163,-6.63442 -2.84723,-9.2738 -3.16179,-6.64628 -3.16196,-6.55043 0.0388,-9.11125 1.57467,-1.25985 4.34087,-3.77724 6.14865,-5.5944 4.06332,-4.08439 7.07451,-4.72715 34.82876,-7.43156 20.09061,-1.95766 23.58749,-2.93134 22.68118,-6.31378 -0.55057,-2.05474 -5.67339,-4.87323 -9.27501,-5.10431 -5.56195,-0.35684 -36.86988,1.12694 -41.40549,1.9627 -0.71492,0.13174 -1.44891,0.31016 -2.1857,0.52752 z"
         id="path8288"
         inkscape:connector-curvature="0" />
      <path
         inkscape:connector-curvature="0"
         style="fill:#fefefe"
         d="m 524.90745,323.05698 c -0.43088,0.14527 -0.43349,0.4371 -0.0747,0.92875 0.46295,0.63443 7.80404,1.03326 18.12653,0.98484 9.54097,-0.0448 18.02401,0.10884 18.85116,0.34117 1.83663,0.51584 2.93383,0.48785 -20.45729,0.52709 -15.4555,0.0259 -18.56987,0.2742 -20.19605,1.61772 -2.09592,1.73162 -1.80949,5.30695 0.5079,6.33546 0.72344,0.32108 8.20859,-0.16258 16.63276,-1.07564 8.42416,-0.91307 18.38004,-1.90279 22.12477,-2.20039 8.47178,-0.67326 8.21254,-0.62749 10.38952,-1.88677 0.99338,-0.5746 1.62655,-1.71038 1.408,-2.52605 -0.54606,-2.03791 -5.42793,-4.55444 -6.53963,-3.37071 -0.56812,0.60493 -0.76215,0.52443 -0.53856,-0.22383 0.19178,-0.64194 0.20431,-1.12817 0.0263,-1.08047 -0.50804,0.13613 -36.65317,1.53883 -39.00692,1.51376 -0.58265,-0.006 -0.99526,0.0279 -1.25378,0.11507 z"
         id="path8254" />
      <path
         inkscape:connector-curvature="0"
         style="fill:#ffffff"
         d="m 497.3665,335.66804 -2.77718,1.3138 c -1.52759,0.72184 -5.11262,1.93764 -7.96603,2.70221 -4.05246,1.08585 -4.92743,1.57475 -3.99927,2.23415 1.89942,1.34941 10.95209,-1.48598 13.0135,-4.07598 l 1.72898,-2.17418 z"
         id="path8252" />
      <path
         inkscape:connector-curvature="0"
         style="fill:#ffffff"
         d="m 478.89723,343.15899 c -0.68575,0.17101 -1.05397,0.96201 -0.74771,2.10501 0.37784,1.41009 0.55841,1.422 2.30694,0.14913 0.96011,-0.69893 0.94651,-1.1214 -0.0576,-1.83494 -0.56394,-0.40075 -1.09012,-0.5218 -1.50158,-0.4192 z"
         id="path8250" />
      <path
         inkscape:connector-curvature="0"
         style="fill:#fefefe"
         d="m 505.76924,343.56952 -2.74916,1.36054 c -3.7079,1.83614 -4.30466,3.07907 -2.49356,5.19241 2.69946,3.15 6.49799,11.95562 7.29353,16.90815 0.43246,2.69223 1.12026,4.80538 1.52767,4.69622 3.20762,-0.85948 2.80275,-9.49167 -0.80008,-17.06505 -1.2619,-2.65259 -2.40259,-6.23427 -2.53547,-7.95841 l -0.24293,-3.13386 z"
         id="path8248" />
      <path
         inkscape:connector-curvature="0"
         style="fill:#fefefe"
         d="m 495.44808,346.76715 c -1.89344,0.71582 -6.09217,5.71845 -5.74381,7.01854 0.12138,0.45297 1.56795,0.46342 3.21461,0.0222 4.6961,-1.25832 7.1845,-7.42638 2.87462,-7.12555 -0.10373,0.007 -0.21919,0.0371 -0.34542,0.0848 z"
         id="path3386" />
      <path
         inkscape:connector-curvature="0"
         style="fill:#0000ff"
         d="m 520.18186,324.21469 c -1.72906,0.48148 -3.67097,1.33352 -5.03173,2.33642 -1.19877,0.88354 -4.8041,2.68932 -8.01257,4.01092 -3.9764,1.63792 -6.86925,3.51135 -9.08511,5.88714 -2.96549,3.1795 -3.15481,3.74042 -2.15204,6.38747 1.34678,3.55514 2.54543,3.99611 5.46165,2.00871 2.6391,-1.79854 4.94415,-1.76655 5.43776,0.0756 0.43399,1.61967 2.87612,0.0135 6.88076,-4.52531 1.48786,-1.68632 3.91847,-3.66758 5.40237,-4.40239 1.90452,-0.9431 2.3556,-1.53409 1.53243,-2.01106 -3.18124,-1.84332 -1.51797,-7.64976 2.49995,-8.72636 0.87375,-0.23412 1.24335,-0.75167 0.82143,-1.15014 -0.51027,-0.4819 -2.02585,-0.37246 -3.7549,0.10901 z"
         id="path3382" />
    </g>
    <g
       transform="translate(-33.637151,-189.45313)"
       id="g5363">
      <path
         style="fill:#000000"
         d="m 345.22508,308.87204 c -1.04657,0.0309 -1.98101,0.2316 -2.67634,0.63259 -1.18506,0.68341 -0.68297,0.78331 2.0007,0.40239 3.35342,-0.47598 3.46717,-0.42082 1.76676,0.84969 -0.99902,0.74646 -2.81388,1.5439 -4.03135,1.77238 -2.15999,0.40536 -2.15444,0.41776 0.23206,0.53714 1.85164,0.0927 2.59143,0.70229 3.04317,2.50789 0.89892,3.59276 -0.6644,5.28017 -4.71448,5.08693 l -4.17781,1.21283 3.98504,-0.47169 3.26777,0.90584 -2.13734,3.75063 c -2.79766,4.90779 -2.71241,6.20034 0.66066,10.05406 3.47107,3.96568 6.91764,5.82432 10.79895,5.82432 2.69957,0 3.06539,0.33653 4.1474,3.81426 1.62411,5.22011 2.51997,6.06762 6.41387,6.06762 1.89672,0 3.84799,0.58751 4.47679,1.34753 0.61317,0.74115 1.66522,1.34753 2.33759,1.34753 1.22382,0 5.72326,-6.34309 5.72326,-8.06833 0,-1.78648 -1.37098,-0.8508 -3.43433,2.3432 -1.59901,2.47524 -2.33683,2.98749 -3.13488,2.17851 -0.79571,-0.8066 -0.67094,-1.26819 0.52404,-1.94456 2.69398,-1.52479 2.03942,-6.52664 -1.21278,-9.27175 -2.27923,-1.92385 -2.58207,-2.58365 -1.68628,-3.6664 0.75729,-0.91533 0.89633,-2.88939 0.45479,-6.43445 -0.95424,-7.66135 -1.75653,-9.06085 -6.48873,-11.2968 -2.35161,-1.11112 -4.41509,-2.33804 -4.58534,-2.72687 -0.17026,-0.38883 -1.27497,-1.85852 -2.45549,-3.26588 -1.80008,-2.14612 -5.95806,-3.58139 -9.0977,-3.48861 z m -1.6668,0.30502 c -2.56172,-0.13711 -32.61776,9.39018 -37.77277,12.00054 -5.42668,2.74794 -7.57857,5.64313 -6.04517,8.13197 0.32173,0.52218 0.86308,0.95879 1.20342,0.97134 1.36786,0.0503 40.14162,-9.0073 39.80501,-9.34495 -0.19922,-0.19985 -13.14334,1.41203 -22.56224,3.98665 -9.41891,2.57462 -17.36418,4.44238 -17.65451,4.15114 -0.29057,-0.29123 -0.29226,-1.46657 -0.006,-2.61271 0.74761,-2.98807 8.238,-6.41238 25.21564,-11.52699 7.88088,-2.37416 18.11631,-4.95071 17.48519,-4.98453 z m -0.74959,3.39196 c -3.562,0.2039 -31.49105,8.1958 -33.07604,9.65105 -0.43267,0.39725 4.20033,-0.85883 10.29737,-2.79238 6.09705,-1.93356 12.83882,-3.95214 14.9819,-4.48615 2.14309,-0.53402 8.42854,-2.12382 8.23471,-2.31824 -0.0503,-0.0505 -0.20048,-0.0678 -0.43794,-0.0542 z m 4.30105,15.67563 c 0.49958,0.054 1.03938,1.01665 2.15231,3.31454 1.08947,2.24947 1.87921,4.08938 1.75553,4.08938 -0.57288,0 -5.99029,-4.10026 -6.00399,-4.54417 -0.009,-0.27614 0.49861,-1.20832 1.12668,-2.06995 0.38496,-0.5281 0.66973,-0.82223 0.96947,-0.7898 z"
         id="path8316"
         inkscape:connector-curvature="0"
         sodipodi:nodetypes="csssscccccccssssssssssssssccccssccsccscccssscccssscss" />
      <path
         inkscape:connector-curvature="0"
         style="fill:#fefefe"
         d="m 345.78883,309.59695 c -1.23138,0 -3.02285,0.59402 -3.97896,1.31945 -1.67782,1.27296 -1.65929,1.31759 0.50159,1.31759 1.23139,0 3.02097,-0.59217 3.97708,-1.31759 1.67783,-1.27306 1.66118,-1.31945 -0.49971,-1.31945 z"
         id="path8272" />
      <path
         inkscape:connector-curvature="0"
         style="fill:#fefefe"
         d="m 342.93068,310.21541 c -1.08733,0.0391 -8.9371,2.27903 -17.46895,4.79973 -14.38769,4.25077 -19.1343,6.16909 -18.36196,7.42264 0.3168,0.51422 0.11787,0.63764 -0.45479,0.2826 -1.08983,-0.67564 -4.65913,0.88395 -5.74011,2.50791 -0.36187,0.54365 -0.66518,1.69563 -0.67189,2.5603 -0.008,0.86466 0.28937,1.5791 0.65879,1.58897 0.36941,0.01 8.37311,-1.2849 18.05517,-3.88872 l 23.61815,-4.78837 -0.0873,-5.05377 c 0.79038,-2.57789 0.71547,-2.90238 -0.58767,-2.52474 -0.82218,0.23827 -8.10869,2.20752 -10.32518,2.75784 -6.41418,1.59253 -20.91826,6.44369 -22.38958,7.48815 -1.19407,0.84766 -1.19407,0.79327 0,-0.48848 1.21315,-1.30222 20.89915,-7.71902 30.54748,-10.13183 2.09336,-0.52349 3.80677,-1.34037 3.80677,-1.81542 0,-0.4485 0.0535,-0.74027 -0.5989,-0.71681 z"
         id="path8268"
         sodipodi:nodetypes="ssccscccccsssssss" />
      <path
         inkscape:connector-curvature="0"
         style="fill:#fefefe"
         d="m 342.78871,313.04812 c -1.18724,0.0902 -2.42556,1.096 -3.07686,2.97018 -1.30482,3.75468 -1.25486,4.15408 0.58392,4.6471 3.98161,1.06758 6.25546,-1.13098 5.26472,-5.09066 -0.44802,-1.79068 -1.58455,-2.61679 -2.77178,-2.52662 z"
         id="path8266" />
      <path
         inkscape:connector-curvature="0"
         style="fill:#fefefe"
         d="m 357.9952,317.68212 c -0.7988,0 1.96194,4.94977 3.45304,6.19116 0.73966,0.61576 1.60561,2.40542 1.92398,3.97708 0.31836,1.57167 1.02304,4.14936 1.56463,5.72886 2.26706,6.61163 3.07043,-1.89093 0.97134,-10.28052 -0.43537,-1.74011 -5.89709,-5.61658 -7.91299,-5.61658 z"
         id="path8264" />
      <path
         inkscape:connector-curvature="0"
         style="fill:#fefefe"
         d="m 344.53676,323.07224 c -0.65415,0 -4.01639,7.01282 -4.01639,8.37715 0,1.84079 3.44734,5.93967 6.63658,7.89052 2.81443,1.72158 6.79567,2.29225 6.79567,0.97322 0,-1.24941 -2.09553,-3.31544 -6.04518,-5.9572 -4.29229,-2.87093 -4.32589,-2.95138 -2.4218,-5.67834 1.05791,-1.5151 1.15502,-2.40753 0.41548,-3.79367 -0.5318,-0.9968 -1.14543,-1.81168 -1.36436,-1.81168 z"
         id="path8262" />
      <path
         inkscape:connector-curvature="0"
         style="fill:#0000ff"
         d="m 349.53571,310.55144 c -0.8746,0.0569 -1.79818,0.33228 -2.73062,0.83285 -1.43524,0.77053 -1.5215,1.25664 -0.63446,3.61401 0.79117,2.1026 0.76668,3.13646 -0.10855,4.54229 -0.9932,1.59534 -0.50223,3.03708 3.96398,11.65987 2.80291,5.41151 5.46378,9.83884 5.91416,9.83884 0.45039,0 2.13992,-1.01065 3.75436,-2.24588 1.61443,-1.23523 3.4004,-2.24588 3.9696,-2.24588 0.56921,0 1.03229,-0.50533 1.0275,-1.12295 -0.0119,-1.62119 -9.6861,-21.47118 -11.37914,-23.34781 -0.99746,-1.10563 -2.31916,-1.62022 -3.77683,-1.52534 z"
         id="path8278" />
    </g>
  </g>
</svg>
