<?xml version="1.0" encoding="UTF-8" standalone="no"?>
<!-- Created with Inkscape (http://www.inkscape.org/) -->

<svg
   xmlns:dc="http://purl.org/dc/elements/1.1/"
   xmlns:cc="http://creativecommons.org/ns#"
   xmlns:rdf="http://www.w3.org/1999/02/22-rdf-syntax-ns#"
   xmlns:svg="http://www.w3.org/2000/svg"
   xmlns="http://www.w3.org/2000/svg"
   xmlns:sodipodi="http://sodipodi.sourceforge.net/DTD/sodipodi-0.dtd"
   xmlns:inkscape="http://www.inkscape.org/namespaces/inkscape"
   version="1.1"
   width="592"
   height="286"
   id="svg2"
   inkscape:version="0.91 r13725"
   sodipodi:docname="ub820801.svg">
  <sodipodi:namedview
     pagecolor="#ffffff"
     bordercolor="#666666"
     borderopacity="1"
     objecttolerance="10"
     gridtolerance="10"
     guidetolerance="10"
     inkscape:pageopacity="0"
     inkscape:pageshadow="2"
     inkscape:window-width="1338"
     inkscape:window-height="826"
     id="namedview11"
     showgrid="false"
     inkscape:zoom="0.5152027"
     inkscape:cx="37.84918"
     inkscape:cy="143"
     inkscape:window-x="0"
     inkscape:window-y="0"
     inkscape:window-maximized="0"
     inkscape:current-layer="svg2" />
  <metadata
     id="metadata8">
    <rdf:RDF>
      <cc:Work
         rdf:about="">
        <dc:format>image/svg+xml</dc:format>
        <dc:type
           rdf:resource="http://purl.org/dc/dcmitype/StillImage" />
        <dc:title></dc:title>
      </cc:Work>
    </rdf:RDF>
  </metadata>
  <defs
     id="defs6" />
  <g
     id="g2987">
    <path
       d="m 528.35889,267.49286 c -0.31898,-0.83125 1.26678,-4.61294 3.53607,-8.43271 l 4.1144,-6.92557 -5.49925,-7.66482 c -4.48902,-6.25677 -5.38012,-8.15209 -4.85071,-10.31729 0.61073,-2.4978 1.97746,-4.10249 3.52365,-4.13716 0.37568,-0.008 2.22868,1.89719 4.11777,4.23469 3.37108,4.17125 3.4448,4.46538 3.97852,15.87414 0.46154,9.86563 0.29892,11.86903 -1.07491,13.24286 -1.26432,1.26432 -1.35443,1.883 -0.41157,2.82586 2.07782,2.07782 1.34405,2.80714 -2.82424,2.80714 -2.66945,0 -4.22677,-0.50916 -4.60973,-1.50714 z m 9.92995,-10.74466 c -0.11614,-6.73651 -0.70533,-18.176 -1.30931,-25.4211 -0.78909,-9.46567 -0.79374,-14.30334 -0.0165,-17.18969 1.20445,-4.47299 3.70725,-5.91944 7.10033,-4.10352 2.10338,1.1257 2.12475,1.40454 1.28777,16.8054 -0.4681,8.61339 -0.8511,20.83045 -0.8511,27.14902 l 0,11.48831 2.9175,0.51169 c 1.60463,0.28143 3.10463,1.07419 3.33334,1.76169 0.30349,0.91231 -1.29513,1.24951 -5.91751,1.2482 L 538.5,268.99641 538.28884,256.7482 z M 547,219.91206 c 0,-2.53475 0.32246,-3.0023 1.70479,-2.47185 4.61922,1.77256 10.46751,1.78584 14.35551,0.0326 2.96627,-1.3376 4.29789,-1.51462 5.13049,-0.68202 2.29625,2.29625 -1.03115,4.02682 -8.99678,4.6792 -4.23171,0.34658 -8.70651,0.84119 -9.94401,1.09913 -1.95351,0.40718 -2.25,0.0571 -2.25,-2.65706 z m 0,-6.32043 C 547,211.07331 551.10002,207 553.63486,207 c 1.76159,0 1.86838,6.90773 0.11514,7.44786 -5.67919,1.74961 -6.75,1.61378 -6.75,-0.85623 z M 434.02984,188.25 c 0.0164,-0.4125 1.70391,-2.66132 3.75,-4.99737 3.52789,-4.02785 4.76113,-4.59696 23.86172,-11.01166 22.13906,-7.43514 24.66012,-7.68618 25.16773,-2.50618 0.35399,3.61226 2.57873,2.72776 -22.30929,8.86955 -8.63205,2.1302 -17.85498,5.12256 -21.72504,7.04866 -6.77813,3.37343 -8.7999,3.97382 -8.74512,2.597 z m 105.4613,-2.01531 C 538.93627,185.83061 535.5121,182.125 531.88187,178 c -9.01789,-10.24696 -10.86634,-14 -6.89529,-14 1.298,0 2.45952,1.13191 3.35104,3.26562 1.46836,3.51428 6.4341,8.30264 12.73536,12.28045 4.33902,2.7391 4.6707,3.56739 2.35559,5.8825 -1.74401,1.74401 -2.45082,1.88872 -3.93743,0.80612 z m -40.09144,-1 c -3.10817,-2.07539 -3.53089,-5.17766 -1.91035,-14.01975 2.07066,-11.29802 3.15686,-14.58479 5.52954,-16.73203 1.60304,-1.45074 2.21366,-1.5348 3.48493,-0.47974 1.85667,1.5409 1.20576,4.23899 -2.08213,8.63061 -2.90047,3.87414 -4.91333,14.9429 -3.42788,18.84994 1.63447,4.29898 1.10223,5.55136 -1.59411,3.75097 z m 41.08522,-7.25909 c -1.24829,-2.01977 0.60849,-6.69713 3.11125,-7.83746 3.8619,-1.7596 4.40383,-1.42717 4.40383,2.70134 0,3.14395 -0.46141,4.04972 -2.54705,5 -3.13281,1.42741 -4.1527,1.45535 -4.96803,0.13612 z M 172.5,158.39924 c -2.41533,-0.88149 -6.86944,-4.30737 -11.243,-8.64755 l -7.243,-7.18773 2.67606,-2.13381 2.67605,-2.13381 10.31694,10.31695 C 175.35737,154.28761 180,159.17093 180,159.46512 c 0,0.9253 -3.3477,0.44954 -7.5,-1.06588 z m 122.16667,-0.0659 C 293.64797,157.31464 293.87321,150 294.92327,150 296.77783,150 302,155.23115 302,157.08889 302,158.58815 301.28165,159 298.66667,159 c -1.83334,0 -3.63334,-0.3 -4,-0.66667 z m 214.01369,-3.37012 c -3.04837,-2.39785 -2.62666,-4.3286 1.30077,-5.95539 3.23857,-1.34146 7.01887,0.0197 7.01887,2.52736 0,1.58447 -3.45455,5.46482 -4.86514,5.46482 -0.47583,0 -2.03035,-0.91655 -3.4545,-2.03679 z m -313.35693,-4.59235 c -1.66845,-2.54637 -1.64994,-2.68805 0.58773,-4.5 3.05545,-2.47416 7.71305,-2.44154 9.05366,0.0634 1.38517,2.58821 1.3637,2.68176 -1.15338,5.02678 -3.03405,2.82665 -6.40269,2.59242 -8.48801,-0.59018 z m 11.68714,-2.85813 C 205.49098,145.68174 206.38112,143 208.50845,143 c 0.86418,0 3.3461,-0.90547 5.51539,-2.01216 4.62127,-2.3576 5.55009,-4.8921 4.51544,-12.32144 -1.10967,-7.96805 -1.11376,-8.93787 -0.0393,-9.31461 0.62963,-0.22077 1,3.97824 1,11.33726 l 0,11.68789 -4.32774,3.31153 c -4.8036,3.67565 -6.34015,4.01909 -8.16169,1.82426 z M 287.75,146.9552 c -2.77088,-1.48 -3.75,-2.64389 -3.75,-4.45765 0,-2.2554 0.20295,-2.3622 2.5,-1.3156 1.86509,0.84979 3.1319,0.85117 4.98815,0.005 2.98432,-1.35974 4.61088,-0.85968 6.37096,1.95865 2.7623,4.42315 -4.11087,7.01302 -10.10911,3.8092 z m -13.80915,-7.42196 c -7.40099,-3.80071 -9.25359,-5.55468 -8.35111,-7.90649 0.76519,-1.99406 2.28671,-2.1123 3.00758,-0.23372 0.29401,0.76616 3.20489,2.5914 6.46862,4.05607 4.90025,2.19911 5.93406,3.08882 5.93406,5.10698 0,1.34415 -0.1125,2.42179 -0.25,2.39474 -0.1375,-0.0271 -3.20162,-1.56496 -6.80915,-3.41758 z M 152.01488,134.75 l 0.0149,-6.25 3.4461,4 3.4461,4 -2.71097,2.24503 c -1.49104,1.23477 -3.04848,2.24727 -3.46098,2.25 -0.4125,0.003 -0.74331,-2.80753 -0.73512,-6.24503 z m 196.65179,3.58333 c -1.30202,-1.30201 -0.6284,-2.09098 2.2823,-2.67312 4.15669,-0.83134 14.38112,-13.20889 13.5725,-16.43067 -0.87111,-3.47081 1.09258,-6.22954 4.43426,-6.22954 2.39738,0 2.99759,0.51097 3.54894,3.02127 0.58996,2.68605 -0.0171,3.789 -5.47083,9.94056 -3.37393,3.80561 -7.70245,8.29604 -9.61892,9.97873 -3.25066,2.85411 -7.20527,3.93576 -8.74825,2.39277 z M 145.75,135.26926 c -3.08253,-3.22679 -3.57742,-7.29898 -1.17857,-9.69783 3.44689,-3.4469 4.67537,-1.45452 4.23259,6.86453 l -0.30402,5.71201 -2.75,-2.87871 z M 223.19495,134.5 c 0.0204,-1.65 0.2445,-2.20394 0.49804,-1.23097 0.25354,0.97297 0.23687,2.32297 -0.0371,3 -0.27393,0.67703 -0.48137,-0.11903 -0.46099,-1.76903 z M 435,128.86317 c -8.525,-2.15442 -19.06369,-4.24248 -23.41931,-4.64015 -4.35561,-0.39766 -8.08628,-1.22752 -8.29037,-1.84414 -0.74429,-2.24876 8.43619,-3.55721 16.44293,-2.34352 4.10593,0.62239 8.65815,0.85538 10.11604,0.51775 1.62555,-0.37645 2.15382,-0.28091 1.36591,0.24704 -0.7983,0.53491 2.7339,1.29969 9.32828,2.01973 5.83719,0.63736 11.05561,1.43234 11.59648,1.76662 1.87174,1.1568 2.97519,5.56983 1.75909,7.03514 -1.44668,1.74314 -0.59351,1.86767 -18.89905,-2.75847 z M 227,128 c -1.16785,-1.16785 -2.00726,-3.35224 -2.01746,-5.25 -0.0312,-5.81327 -2.76011,-20.1667 -6.90213,-36.303928 -2.23099,-8.691906 -3.83207,-16.027745 -3.55795,-16.301866 0.93105,-0.93105 6.23277,4.985369 7.77729,8.679013 1.40469,3.359227 8.57632,26.499281 12.51517,40.381581 1.61,5.67434 1.60588,5.71838 -0.77245,8.25 C 231.1603,130.52273 229.64039,130.64039 227,128 z m 243.46487,-0.0568 c -0.35923,-0.58125 -0.37697,-2.15724 -0.0394,-3.50218 0.33755,-1.34494 -0.12079,-4.69103 -1.01854,-7.43575 C 467.51255,111.21354 468.16212,105 470.66194,105 c 1.17906,0 1.38916,0.56168 0.84161,2.25 -1.33236,4.10823 -0.72976,6.97528 2.39906,11.41418 1.70357,2.41686 3.09739,4.75269 3.09739,5.19074 0,0.9177 -4.31805,5.14508 -5.25543,5.14508 -0.3446,0 -0.92046,-0.47558 -1.2797,-1.05684 z m 8.00375,-2.4432 c -0.25774,-0.825 -0.67686,-2.16814 -0.93138,-2.98475 -0.57619,-1.84867 2.90934,-3.82567 5.36865,-3.04512 1.00669,0.31951 2.59324,1.42392 3.52568,2.45425 1.60379,1.77218 1.5719,1.95978 -0.59063,3.47447 -2.87841,2.01613 -6.75744,2.06934 -7.37232,0.10115 z m -104.53236,-1.35053 -2.28531,-1.85053 2.24262,-3.14947 c 2.76308,-3.8804 3.43049,-3.90749 6.03834,-0.2451 2.5673,3.60544 2.59246,4.74463 0.13383,6.06045 -2.66531,1.42643 -3.49775,1.31569 -6.12948,-0.81535 z M 99,121 c 0,-0.55 -1.125,-1 -2.5,-1 -2.92139,0 -3.017617,-0.86619 -1.531808,-13.78852 0.591495,-5.14433 0.599258,-9.218973 0.02046,-10.741318 -1.632105,-4.29276 1.586055,-7.897936 4.724802,-5.293007 1.594556,1.323359 1.575576,1.535266 -1.550564,17.316565 C 96.108808,117.86311 96.147947,119 98.559017,119 99.351558,119 100,119.675 100,120.5 c 0,0.825 -0.225,1.5 -0.5,1.5 -0.275,0 -0.5,-0.45 -0.5,-1 z m 186,0 c 0,-0.55 -0.5793,-1 -1.28733,-1 -0.76503,0 -4.518,-8.78663 -9.25,-21.656519 -6.09367,-16.573284 -8.8748,-22.808404 -11.84868,-26.563987 -5.04569,-6.371967 -3.7926,-8.341431 2.69563,-4.23667 4.14635,2.623175 5.1586,4.256303 15.20175,24.525852 11.20122,22.606844 11.73997,24.537124 7.9157,28.361394 C 286.64537,122.21177 285,122.4854 285,121 z m -141.9449,-5.67474 c -4.09904,-4.65676 -4.11233,-4.69812 -3.45468,-10.75 C 140.32249,97.930551 141.31645,96 144.01546,96 c 2.8499,0 3.18704,2.950241 0.88142,7.71302 l -2.147,4.43511 2.98796,4.17593 c 1.64337,2.29677 3.94965,4.62015 5.12506,5.16307 3.00446,1.38776 2.65616,2.51287 -0.77791,2.51287 -2.21749,0 -3.89966,-1.11861 -7.02989,-4.67474 z m 261.51234,3.90885 c -1.21122,-1.21123 -0.42698,-1.95962 3.18866,-3.04289 2.9693,-0.88962 4.63724,-0.82177 7.96265,0.32392 2.3136,0.79711 6.03843,1.74221 8.2774,2.10024 2.23897,0.35802 3.86916,0.85264 3.62265,1.09915 -0.24651,0.24651 -3.83903,-0.0658 -7.98339,-0.694 -5.03483,-0.7632 -8.69082,-0.82313 -11.01786,-0.1806 -1.91547,0.52889 -3.73802,0.70627 -4.05011,0.39418 z M 349.84398,99.763479 c -1.88102,-1.508835 -28.2512,-52.689588 -27.52286,-53.417935 0.74451,-0.74451 8.66216,3.980257 8.67118,5.174425 0.004,0.560983 5.82702,10.178713 12.93953,21.372734 11.28087,17.754415 12.79302,20.624344 11.84457,22.480031 -0.59799,1.169996 -1.38696,2.775482 -1.75327,3.567747 -0.93423,2.020579 -2.34083,2.297579 -4.17915,0.822998 z M 102.60699,97.418213 C 101.38212,94.22625 101.95448,92 104,92 c 2.34876,0 6,3.346967 6,5.5 0,2.124527 -6.57428,2.051797 -7.39301,-0.08179 z m 40.82081,-3.745764 c -0.28018,-0.730154 -0.0522,-2.530154 0.50664,-4 C 144.66542,87.749811 145.65887,87 147.47525,87 149.67885,87 150,87.431596 150,90.393011 c 0,2.171492 -0.56946,3.611534 -1.58179,4 -2.54827,0.977864 -4.44368,0.704187 -4.99041,-0.720562 z M 77.5,69.073413 C 75.400824,68.194384 71.495004,63.556014 66.491302,56 64.852322,53.525 60.021287,47.332723 55.755669,42.239384 48.090307,33.086599 46.871038,31 49.18812,31 51.543484,31 56.731692,35.616802 70,49.519753 c 11.015598,11.54249 13.5,14.682588 13.5,17.062986 0,3.168252 -2.200508,4.08171 -6,2.490674 z"
       id="path2997"
       style="fill:#fefefe" />
    <path
       d="m 139,145.13005 c 0,-0.62153 1.0125,-1.13492 2.25,-1.14087 4.1513,-0.02 11.77976,-2.88628 16.27685,-6.11585 5.29832,-3.80496 8.04659,-7.45968 6.19726,-8.24128 -1.23991,-0.52403 4.8165,-6.63205 6.57601,-6.63205 0.48162,0 0.55971,1.9125 0.17354,4.25 -0.75792,4.58763 -1.49467,5.95603 -2.1785,4.0462 -0.24879,-0.69484 -2.67242,1.03758 -5.73232,4.09748 -2.91571,2.91571 -7.42589,6.3298 -10.02262,7.58685 C 147.13042,145.59937 139,146.89008 139,145.13005 z m 164,-13 c 0,-0.62153 1.0125,-1.13492 2.25,-1.14087 4.1513,-0.02 11.77976,-2.88628 16.27685,-6.11585 5.29832,-3.80496 8.04659,-7.45968 6.19726,-8.24128 -1.23991,-0.52403 4.8165,-6.63205 6.57601,-6.63205 0.48162,0 0.55971,1.9125 0.17354,4.25 -0.75792,4.58763 -1.49467,5.95603 -2.1785,4.0462 -0.24879,-0.69484 -2.67242,1.03758 -5.73232,4.09748 -2.91571,2.91571 -7.42589,6.3298 -10.02262,7.58685 C 311.13042,132.59937 303,133.89008 303,132.13005 z"
       id="path2993"
       style="fill:#fe0000" />
    <path
       d="m 524.13618,232.94117 c -0.15269,-2.869 5.7726,-13.46846 9.08738,-16.25598 2.02693,-1.70452 2.16168,-2.71735 2.21726,-16.66667 0.0326,-8.16853 0.39668,-15.18937 0.80918,-15.60186 0.4125,-0.4125 0.75,-0.24083 0.75,0.38149 0,1.62 3.56612,3.30558 5.45775,2.57969 0.88145,-0.33824 2.20934,-1.77293 2.95086,-3.18819 l 1.34824,-2.57319 0.66779,3.04041 c 0.36728,1.67223 0.20039,5.92103 -0.37087,9.44178 -0.57127,3.52074 -1.04206,8.55468 -1.04622,11.18653 -0.007,4.56935 -0.10346,4.73386 -2.13404,3.64712 -5.78099,-3.09389 -9.56552,4.19816 -8.36792,16.12334 0.77607,7.72778 -0.33596,9.39179 -3.98527,5.96345 -1.88888,-1.77451 -2.71605,-1.98471 -4.35613,-1.10696 -1.11348,0.59592 -2.21966,2.09697 -2.45817,3.33568 -0.3993,2.07378 -0.44444,2.04949 -0.56984,-0.30664 z M 488,169.72032 c 0,-2.85938 -1.7391,-4.713 -4.45,-4.74303 -1.25338,-0.0139 0.42716,-1.35759 4.32468,-3.45785 3.50608,-1.88933 7.10608,-4.07484 8,-4.8567 0.89393,-0.78186 3.17585,-2.20791 5.07094,-3.16899 l 3.44563,-1.74743 -2.69618,3.20423 c -1.4829,1.76232 -2.96852,4.90735 -3.30138,6.98894 -0.7934,4.9616 -1.13978,5.40963 -6.14369,7.9465 l -4.25,2.15466 0,-2.32033 z M 505.67984,162.5 c 1.11925,-1.65 2.28863,-3.675 2.59863,-4.5 0.3962,-1.0544 0.58709,-0.88338 0.64258,0.57569 0.0434,1.14162 -1.12596,3.16662 -2.59862,4.5 l -2.67757,2.42431 2.03498,-3 z M 216,146.21048 c 2.6945,-2.32826 3.57912,-2.67605 3.84378,-1.51116 0.45294,1.9936 -0.69501,3.01034 -4.34378,3.8473 l -3,0.68814 3.5,-3.02428 z m 7,-5.56743 c 0,-1.38876 0.47698,-2.81981 1.05995,-3.1801 0.67816,-0.41913 0.81317,-2.6303 0.37482,-6.13875 l -0.68514,-5.48366 2.57973,2.57973 c 3.02504,3.02504 4.33661,3.192 6.894,0.87759 1.81226,-1.64007 1.84245,-1.60115 0.8279,1.06732 -1.86624,4.90859 -2.9424,6.38055 -7.03427,9.62137 L 223,143.16806 l 0,-2.52501 z m 73.67268,0.12963 c -1.1483,-1.21114 -2.44887,-1.67151 -3.5,-1.23891 -3.83714,1.57921 -4.62193,0.95034 -6.90576,-5.53377 -2.52221,-7.16088 -2.30525,-10.53567 0.73945,-11.50202 1.10094,-0.34943 2.65688,-1.84192 3.45764,-3.31665 1.31111,-2.41464 1.4599,-2.4713 1.49595,-0.56965 0.022,1.16143 1.33023,4.98643 2.90713,8.5 3.95532,8.81307 5.5059,13.93364 4.49085,14.83038 -0.47187,0.41687 -1.68023,-0.10935 -2.68526,-1.16938 z M 208,141.21345 c 0,-0.43259 2.25,-2.46632 5,-4.51939 4.03174,-3.00997 4.99703,-3.3902 4.98469,-1.96345 -0.0219,2.53177 -1.05064,3.76796 -4.68503,5.62986 -3.48938,1.7876 -5.29966,2.07897 -5.29966,0.85298 z m 246.35229,-9.01472 c 1.65719,-1.86294 1.70474,-2.37806 0.45147,-4.8905 l -1.40082,-2.80823 6.04853,-0.0746 c 3.32669,-0.041 7.05198,-0.61451 8.27841,-1.27442 2.10366,-1.1319 2.19784,-1.03959 1.6638,1.63062 -0.67831,3.39153 1.90076,6.32396 3.8487,4.37602 1.57745,-1.57745 2.81084,-1.4599 2.17122,0.20693 -0.91887,2.39455 -5.67629,3.8425 -14.4136,4.38687 l -8.5,0.52958 1.85229,-2.08227 z m -314.62047,-4.63491 c -2.09723,-4.39795 -3.24399,-18.89115 -1.8249,-23.06382 0.89926,-2.64419 0.95495,-2.4575 0.46952,1.57405 -0.53113,4.41105 -0.36478,4.77754 4.66842,10.28465 2.87054,3.14083 5.04726,5.85906 4.83715,6.0405 -0.2101,0.18144 -1.38434,0.85123 -2.6094,1.48843 -1.22506,0.63719 -2.58497,2.5385 -3.02202,4.22513 l -0.79464,3.06659 -1.72413,-3.61553 z m 221.60782,-9.40034 C 359.93527,117.23023 350,102.87941 350,101.78415 c 0,-0.4962 0.47836,-0.60654 1.06301,-0.24521 1.52569,0.94293 4.93631,-2.469904 4.94073,-4.943928 0.003,-1.779404 0.28641,-1.631459 1.88014,0.982064 1.03202,1.692392 4.68655,5.517394 8.12117,8.500004 l 6.24476,5.42292 -3.3749,0.5 c -2.53821,0.37604 -3.76686,1.28429 -4.95588,3.66348 -0.86954,1.73992 -2.03026,2.86492 -2.57939,2.5 z M 145.0978,110.18274 c -0.8848,-1.65327 -0.82205,-2.90695 0.2772,-5.53783 2.35279,-5.631001 3.89131,-5.631849 3.07788,-0.002 -0.97509,6.74904 -1.89495,8.2678 -3.35508,5.53952 z M 90.649216,91.75 c -1.348911,-1.7875 -3.187393,-5.029746 -4.085515,-7.20499 -0.898121,-2.175245 -3.39529,-6.289195 -5.549264,-9.142112 l -3.916315,-5.187123 3.193128,0.142113 c 2.370545,0.105502 3.434341,-0.402458 4.129478,-1.971816 0.878231,-1.982716 1.189069,-1.805303 5.007811,2.858242 8.976613,10.962465 13.081571,18.656137 9.14878,17.146982 -1.847789,-0.709063 -5.895086,3.338234 -5.186023,5.186023 0.888626,2.315722 -0.125671,1.639795 -2.74208,-1.827319 z"
       id="path2991"
       style="fill:#0000fe" />
    <path
       d="M 18.308796,269.25181 C 31.774137,268.97362 33.07139,268.78956 32.60831,267.22293 32.328205,266.27532 30.525264,257.625 28.601776,248 26.678287,238.375 23.030699,220.6 20.496025,208.5 13.933197,177.17044 14.23065,180 17.5,180 c 2.577459,0 2.725202,0.22481 2.214787,3.37013 -0.333322,2.05403 0.904431,10.15736 3.169484,20.75 L 26.600653,221.5 60.800326,221.76313 95,222.02626 95,174.45595 c 0,-31.8135 -0.371194,-49.04445 -1.120646,-52.0208 -0.815755,-3.23965 -0.829696,-7.21955 -0.05124,-14.62834 L 94.897516,97.628964 91.42156,93.781497 c -1.911775,-2.116107 -4.518002,-6.195124 -5.791615,-9.064482 -1.273613,-2.869358 -5.648874,-9.500332 -9.722802,-14.735498 -4.073929,-5.235165 -8.754592,-11.535165 -10.401474,-14 -1.646882,-2.464834 -6.484382,-8.648794 -10.75,-13.742133 C 50.490051,37.146045 47,32.519422 47,31.957999 c 0,-2.185751 3.243422,-2.100142 6.30958,0.16654 4.21434,3.115485 27.613913,27.445841 34.98388,36.375461 3.177556,3.85 7.606505,9.804213 9.842109,13.231585 3.612131,5.537713 4.287661,6.112277 6.066811,5.160103 1.10115,-0.589315 2.88178,-0.841437 3.95696,-0.560271 1.21923,0.318836 1.80826,0.07043 1.56527,-0.660103 C 109.51032,85.027091 108.05925,84.275 106.5,84 c -1.55925,-0.275 -3.02213,-1.0625 -3.25084,-1.75 -0.45516,-1.368237 0.96789,-1.695446 2.17453,-0.5 0.41636,0.4125 1.67706,0.75 2.80156,0.75 1.12449,0 2.3699,0.675 2.76758,1.5 0.39767,0.825 1.46197,2.919431 2.36511,4.654292 1.93066,3.708674 2.13727,8.4505 0.44206,10.145708 -1.92567,1.92567 -10.5152,1.53133 -11.67206,-0.535866 C 101.03227,96.306271 100.99013,96.430696 99,107.5 c -0.5933,3.3 -1.294587,7.0125 -1.558416,8.25 -0.335168,1.57212 -0.01258,2.25 1.070749,2.25 2.326987,0 2.870957,2.6147 1.076858,5.17613 C 98.17277,125.19835 98,133.24836 98,197.22251 L 98,269 l 25.5,0 25.5,0 0,-22.5 0,-22.5 -10.5,0 c -6.33333,0 -10.5,-0.39683 -10.5,-1 0,-0.60317 4.16667,-1 10.5,-1 l 10.5,0 0,-39 c 0,-34 0.19231,-39 1.5,-39 1.31733,0 1.5,7.61111 1.5,62.5 l 0,62.5 34,0 34,0 0,-22.5 0,-22.5 -10.5,0 c -6.33333,0 -10.5,-0.39683 -10.5,-1 0,-0.60317 4.16667,-1 10.5,-1 l 10.5,0 0,-36.97525 0,-36.97525 -2.5651,0.97525 C 216.0241,149.56114 213.63196,150 212.11904,150 c -2.16786,0 -3.22714,0.84761 -4.99888,4 -1.23647,2.2 -2.66934,4 -3.18414,4 -0.51481,0 -0.93602,0.59165 -0.93602,1.31479 0,1.95267 -6.6712,4.80584 -9.5484,4.08371 -1.34838,-0.33843 -2.4516,-1.24153 -2.4516,-2.00691 0,-1.67103 1.19155,-1.80004 2.69934,-0.29225 0.61172,0.61172 2.06963,0.79137 3.28691,0.40502 l 2.18758,-0.69431 -2.33692,-1.62427 c -6.72736,-4.67585 -7.3936,-8.61181 -2.22576,-13.14923 2.75589,-2.4197 4.38937,-3.10359 6.89697,-2.88754 2.54689,0.21942 3.93184,-0.38393 6.15848,-2.68296 1.57996,-1.63133 4.64638,-4.35155 6.81427,-6.04494 l 3.94162,-3.07888 -1.23712,-5.35952 c -1.03109,-4.46692 -1.0041,-5.59255 0.16206,-6.75871 1.1597,-1.1597 1.75541,-1.17672 3.4804,-0.0995 1.14467,0.71486 2.30775,1.0732 2.58463,0.79632 0.91295,-0.91295 -2.20812,-17.40803 -6.33886,-33.501323 -4.45121,-17.341824 -4.27821,-19.889869 1.00908,-14.862954 3.99014,3.793634 5.68734,7.12851 8.0674,15.851855 1.06416,3.900354 4.0091,13.547882 6.5443,21.438962 l 4.60945,14.34741 -1.75184,5.65259 c -1.36987,4.42009 -2.92929,6.76031 -7.15192,10.73289 L 223,144.66059 l 0,62.16971 0,62.1697 29,0 29,0 0,-22.5 0,-22.5 -10.5,0 c -6.33333,0 -10.5,-0.39683 -10.5,-1 0,-0.60317 4.16667,-1 10.5,-1 l 10.5,0 0,-38.98743 0,-38.98743 -6.75,-3.40225 c -8.5184,-4.2936 -10.83154,-6.66775 -9.29452,-9.5397 1.33238,-2.48957 2.35525,-2.61864 4.09924,-0.51725 1.35238,1.62951 5.10015,3.78204 9.49251,5.45202 l 2.5608,0.97361 -0.43375,-10.24578 c -0.41608,-9.82851 -0.74122,-11.07033 -7.98352,-30.491463 -5.65655,-15.168757 -8.48593,-21.388135 -11.28298,-24.801568 -3.41007,-4.161542 -3.59579,-4.693324 -2.14551,-6.143604 1.45028,-1.45028 1.99352,-1.337618 6.27594,1.301567 4.49385,2.76949 5.16031,3.838783 16.07501,25.791256 C 287.87595,104.99807 293,116.45455 293,117.86084 c 0,1.40628 1.65611,6.40039 3.68024,11.09802 2.02413,4.69763 3.76314,10.34114 3.86447,12.54114 0.10133,2.2 0.24523,4.25956 0.31977,4.57681 0.20413,0.86883 6.07835,-0.17528 6.70678,-1.19211 0.30072,-0.48658 1.40866,-0.8847 2.46208,-0.8847 2.01695,0 5.66804,5.67371 4.40349,6.84293 -0.39085,0.36139 -0.89026,0.15838 -1.1098,-0.45112 -0.98508,-2.73491 -3.14892,-4.67413 -4.59593,-4.11887 -1.19042,0.45681 -1.43012,1.55211 -1.01577,4.64138 C 308.55667,157.18695 306.22268,160 300.17695,160 294.45825,160 293,158.78074 293,153.99927 c 0,-3.27698 -0.40461,-3.79731 -4.5,-5.78701 l -4.5,-2.18627 0,61.48701 0,61.487 121.96862,0 c 108.26234,0 121.90362,-0.16936 121.39027,-1.50714 -0.31898,-0.83125 1.26678,-4.61294 3.53607,-8.43271 l 4.1144,-6.92557 -5.51594,-7.68809 c -3.03377,-4.22844 -5.79859,-8.81421 -6.14404,-10.19059 -0.76225,-3.03706 1.85128,-8.75158 7.20595,-15.7559 l 3.8224,-5 0.14552,-15.5 0.14551,-15.5 -5.17973,-6 c -6.02297,-6.97678 -7.85719,-10.0982 -7.09742,-12.07814 0.61617,-1.6057 4.1778,-1.92759 5.08508,-0.45957 0.37423,0.60551 1.48476,0.55677 2.99525,-0.13146 1.35212,-0.61606 3.19267,-0.74456 4.21429,-0.29422 0.99757,0.43974 3.96647,0.68141 6.59754,0.53704 6.39672,-0.35099 7.71623,0.93387 7.71623,7.51361 0,4.4316 -0.36399,5.53718 -2.1351,6.48504 -1.30091,0.69623 -1.71606,1.40166 -1.06256,1.80554 3.04293,1.88063 3.58563,8.18978 1.58033,18.37216 -0.50502,2.56434 -0.31343,2.75 2.83787,2.75 4.60752,0 5.77946,1.52083 5.77946,7.5 0,5.66709 -1.16234,7.45162 -4.95,7.59968 l -2.55,0.0997 L 551,217 c 4.18694,1.34089 8.74956,1.08707 12.48576,-0.6946 3.34129,-1.59335 3.6551,-1.59311 5.25218,0.004 1.59809,1.59809 1.58196,1.81517 -0.27264,3.66977 -1.52208,1.52208 -3.94589,2.123 -10.63795,2.63739 -4.76671,0.3664 -9.26539,1.03557 -9.99705,1.48706 -1.4283,0.88135 -2.53262,13.50664 -2.72433,31.14641 -0.10545,9.70191 -0.0939,9.75 2.33733,9.75 1.34381,0 3.06442,0.88678 3.82358,1.97063 1.24133,1.77226 2.7822,2.00184 15.3067,2.28066 C 574.23311,269.4218 450.675,269.56051 292,269.55953 133.325,269.55855 10.163958,269.42008 18.308796,269.25181 z M 95,246.5 95,224 l -34.108408,0 -34.108408,0 0.69257,2.75 C 28.150041,229.4274 36,268.04003 36,268.67933 36,268.8557 49.275,269 65.5,269 l 29.5,0 0,-22.5 z m 442,21.7 c 0,-0.44 -0.52937,-1.32937 -1.17637,-1.97637 -0.90183,-0.90183 -0.80925,-1.5903 0.39669,-2.95 1.31016,-1.4772 1.48421,-3.7204 1.04139,-13.42175 -0.53144,-11.64274 -0.53335,-11.65005 -4.1467,-15.8247 -3.8889,-4.49301 -6.62935,-4.74881 -7.42036,-0.69263 l -0.42229,2.16545 -0.13618,-2.21482 c -0.0813,-1.32165 0.7084,-2.66682 1.95817,-3.33567 1.73372,-0.92786 2.51087,-0.72957 4.51324,1.15157 3.66401,3.44216 4.62623,1.55883 3.80933,-7.45593 C 535.03589,219.44032 534.32639,216 533.84026,216 c -1.01811,0 -8.45964,11.22543 -9.39483,14.17194 -1.02113,3.21731 0.22507,6.15862 6.04799,14.27455 l 5.51594,7.68809 -4.1144,6.92557 c -2.26929,3.81977 -3.85505,7.60146 -3.53607,8.43271 C 528.96667,269.07673 537,269.73413 537,268.2 z m 13.75084,-0.45 c -0.22871,-0.6875 -1.72871,-1.48026 -3.33334,-1.76169 l -2.9175,-0.51169 0,-11.48831 c 0,-6.31857 0.383,-18.53563 0.8511,-27.14902 0.83698,-15.40086 0.81561,-15.6797 -1.28777,-16.8054 -3.12161,-1.67063 -5.90867,-0.35752 -6.96101,3.27965 -0.72215,2.49593 -0.94149,2.69886 -1.01213,0.93646 -0.0921,-2.29814 3.05391,-6.25 4.97555,-6.25 0.58616,0 1.93616,0.46583 3,1.03518 1.78671,0.95622 1.93484,0.67015 1.94181,-3.75 0.004,-2.63185 0.47495,-7.66579 1.04622,-11.18653 0.57126,-3.52075 0.73815,-7.76955 0.37087,-9.44178 l -0.66779,-3.04041 -1.34824,2.57319 c -0.74152,1.41526 -2.06941,2.84995 -2.95086,3.18819 -1.93264,0.74162 -5.45173,-0.97066 -5.47306,-2.66302 -0.0108,-0.85938 -0.26345,-0.82335 -0.86338,0.12314 -1.11829,1.76427 -0.60797,31.47303 0.80153,46.66204 0.61246,6.6 1.21787,17.73666 1.34536,24.74813 l 0.2318,12.74812 6.33333,0.002 c 4.6224,0.001 6.221,-0.33581 5.91751,-1.24813 z m -12.94397,-4.27646 c -0.30789,-0.30789 -0.86705,0.24711 -1.24258,1.23333 -0.54268,1.4252 -0.42782,1.54006 0.5598,0.5598 0.68342,-0.67834 0.99067,-1.48524 0.68278,-1.79313 z m -2.12376,-29.66104 c -0.31922,-0.79773 -0.55618,-0.56078 -0.60416,0.60417 -0.0434,1.05416 0.19293,1.64479 0.52522,1.3125 0.33229,-0.3323 0.36781,-1.1948 0.0789,-1.91667 z m 23.5109,-12.34251 c 7.96563,-0.65238 11.29303,-2.38295 8.99678,-4.6792 -0.8326,-0.8326 -2.16422,-0.65558 -5.13049,0.68202 -3.888,1.75324 -9.73629,1.73996 -14.35551,-0.0326 -1.38233,-0.53045 -1.70479,-0.0629 -1.70479,2.47185 0,2.71412 0.29649,3.06424 2.25,2.65706 1.2375,-0.25794 5.7123,-0.75255 9.94401,-1.09913 z M 553.75,214.44786 C 555.50324,213.90773 555.39645,207 553.63486,207 551.10002,207 547,211.07331 547,213.59163 c 0,2.47001 1.07081,2.60584 6.75,0.85623 z m -10.32143,-29.01929 c 2.31511,-2.31511 1.98343,-3.1434 -2.35559,-5.8825 -6.30126,-3.97781 -11.267,-8.76617 -12.73536,-12.28045 C 527.4461,165.13191 526.28458,164 524.98658,164 c -3.97105,0 -2.1226,3.75304 6.89529,14 8.82744,10.03056 8.8988,10.07647 11.5467,7.42857 z m 2.02438,-7.58909 c 2.08564,-0.95028 2.54705,-1.85605 2.54705,-5 0,-4.12851 -0.54193,-4.46094 -4.40383,-2.70134 -3.54095,1.61336 -4.83674,8.86186 -1.58421,8.86186 0.49167,0 2.04011,-0.52223 3.44099,-1.16052 z m -9.90423,-6.84793 c -0.0523,-4.30633 -2.04019,-5.93515 -5.13183,-4.20497 -1.41263,0.79054 -1.20698,1.3829 1.58341,4.56098 1.76379,2.00884 3.29469,3.65244 3.40202,3.65244 0.10732,0 0.1732,-1.8038 0.1464,-4.00845 z M 302,157.08889 C 302,155.23115 296.77783,150 294.92327,150 c -1.05006,0 -1.2753,7.31464 -0.2566,8.33333 0.36666,0.36667 2.16666,0.66667 4,0.66667 2.61498,0 3.33333,-0.41185 3.33333,-1.91111 z m -98.18856,-6.12785 c 2.51708,-2.34502 2.53855,-2.43857 1.15338,-5.02678 -1.34061,-2.50494 -5.99821,-2.53756 -9.05366,-0.0634 -2.23767,1.81195 -2.25618,1.95363 -0.58773,4.5 2.08532,3.1826 5.45396,3.41683 8.48801,0.59018 z m 11.36082,-5.27257 4.32774,-3.31153 0,-11.68789 c 0,-7.35902 -0.37037,-11.55803 -1,-11.33726 -1.07448,0.37674 -1.07039,1.34656 0.0393,9.31461 1.03465,7.42934 0.10583,9.96384 -4.51544,12.32144 -2.16929,1.10669 -4.65121,2.01216 -5.51539,2.01216 -2.12733,0 -3.01747,2.68174 -1.49788,4.51273 1.82154,2.19483 3.35809,1.85139 8.16169,-1.82426 z m 4.17152,1.34699 c 0.46408,-0.45266 0.68908,-1.50392 0.5,-2.33614 -0.26466,-1.16489 -1.14928,-0.8171 -3.84378,1.51116 l -3.5,3.02428 3,-0.68814 c 1.65,-0.37848 3.3797,-1.0585 3.84378,-1.51116 z m 78.49381,-0.47457 c 1.10844,-1.0835 1.11213,-1.66855 0.0215,-3.41489 -1.76008,-2.81833 -3.38664,-3.31839 -6.37096,-1.95865 -1.85625,0.84577 -3.12306,0.84439 -4.98815,-0.005 -2.29705,-1.0466 -2.5,-0.9398 -2.5,1.3156 0,4.92534 9.96288,7.85088 13.83759,4.06334 z m -65.82144,-11.59106 c 0.54019,-1.00936 1.45599,-3.08145 2.03511,-4.60465 1.01455,-2.66847 0.98436,-2.70739 -0.8279,-1.06732 -2.61101,2.36293 -4.00714,2.14227 -7.07215,-1.11777 l -2.65121,-2.81991 -0.11525,6.06991 c -0.0858,4.51666 0.0759,5.30223 0.63168,3.06991 l 0.74694,-3 0.11832,2.69098 c 0.0651,1.48004 -0.33169,2.9691 -0.88169,3.30902 -0.55,0.33992 -1,1.75429 -1,3.14305 l 0,2.52501 4.01699,-3.18151 c 2.20934,-1.74984 4.45896,-4.00736 4.99916,-5.01672 z M 281,140.55608 c 0,-2.01816 -1.03381,-2.90787 -5.93406,-5.10698 -3.26373,-1.46467 -6.17461,-3.28991 -6.46862,-4.05607 -0.72087,-1.87858 -2.24239,-1.76034 -3.00758,0.23372 -0.90248,2.35181 0.95012,4.10578 8.35111,7.90649 3.60753,1.85262 6.67165,3.39053 6.80915,3.41758 0.1375,0.0271 0.25,-1.05059 0.25,-2.39474 z m 18.51604,-1.41517 c -0.35531,-1.4525 -2.15596,-6.24091 -4.00145,-10.64091 -1.84549,-4.4 -3.63569,-9.575 -3.97823,-11.5 -0.34254,-1.925 -5.38421,-13.20805 -11.2037,-25.073434 -9.90231,-20.189865 -10.86578,-21.753668 -15.02304,-24.383742 -6.48823,-4.104761 -7.74132,-2.135297 -2.69563,4.23667 2.97388,3.755583 5.75501,9.990703 11.84868,26.563987 C 278.84214,110.25457 282.96714,120 283.62934,120 c 0.66219,0 1.36258,0.47575 1.5564,1.05723 0.53626,1.60876 3.65499,0.0199 4.3675,-2.22497 0.34615,-1.09064 0.84974,-1.76261 1.11909,-1.49327 0.9001,0.90011 -1.64561,4.51776 -3.62012,5.14444 -3.02551,0.96026 -3.32305,3.83727 -1.09786,10.61554 1.12552,3.42849 1.8487,6.43131 1.60708,6.67294 -0.24163,0.24162 -1.11045,-1.74571 -1.93072,-4.4163 L 284.1393,130.5 l -0.0696,4.21482 c -0.0919,5.55823 3.22338,7.31978 9.10303,4.83689 1.06252,-0.44869 2.33925,-0.006 3.5,1.21234 2.35877,2.47672 3.664,1.73162 2.84336,-1.62314 z m -86.21638,1.21956 c 3.63439,-1.8619 4.66312,-3.09809 4.68503,-5.62986 0.0123,-1.42675 -0.95295,-1.04652 -4.98469,1.96345 -6.80123,5.07759 -6.62656,7.2147 0.29966,3.66641 z m 20.74281,-12.90567 c 2.37833,-2.53162 2.38245,-2.57566 0.77245,-8.25 -3.93885,-13.8823 -11.11048,-37.022354 -12.51517,-40.381581 -1.54452,-3.693644 -6.84624,-9.610063 -7.77729,-8.679013 -0.27412,0.274121 1.32696,7.60996 3.55795,16.301866 4.14202,16.137228 6.8709,30.490658 6.90213,36.303928 0.0179,3.33843 2.9007,7.25 5.34315,7.25 0.72912,0 2.40167,-1.14534 3.71678,-2.5452 z M 100,120.5 c 0,-0.825 -0.648442,-1.5 -1.440983,-1.5 -2.41107,0 -2.450209,-1.13689 -0.396123,-11.50628 3.126136,-15.781299 3.145116,-15.993206 1.550564,-17.316565 -3.138747,-2.604929 -6.356907,1.000247 -4.724802,5.293007 0.578794,1.522345 0.571031,5.596988 -0.02046,10.741318 C 93.482383,119.13381 93.57861,120 96.5,120 c 1.375,0 2.5,0.45 2.5,1 0,0.55 0.225,1 0.5,1 0.275,0 0.5,-0.675 0.5,-1.5 z m 10,-23 c 0,-2.153033 -3.65124,-5.5 -6,-5.5 -2.04552,0 -2.61788,2.22625 -1.39301,5.418213 C 103.42572,99.551797 110,99.624527 110,97.5 z M 93.391296,93.577319 c -0.709063,-1.847789 3.338234,-5.895086 5.186023,-5.186023 3.932791,1.509155 -0.172167,-6.184517 -9.14878,-17.146982 -3.818742,-4.663545 -4.12958,-4.840958 -5.007811,-2.858242 -0.695137,1.569358 -1.758933,2.077318 -4.129478,1.971816 l -3.193128,-0.142113 3.916315,5.187123 c 2.153974,2.852917 4.651143,6.966867 5.549264,9.142112 2.198603,5.325001 8.710959,13.940275 6.827595,9.032309 z M 83.5,66.582739 C 83.5,64.202341 81.015598,61.062243 70,49.519753 56.731692,35.616802 51.543484,31 49.18812,31 46.871038,31 48.090307,33.086599 55.755669,42.239384 60.021287,47.332723 64.852322,53.525 66.491302,56 73.955122,67.271003 77.114428,70.155978 81.5,69.705456 c 1.495998,-0.153681 2,-0.940608 2,-3.122717 z M 433.48552,188.97657 c -0.34789,-0.56289 1.21525,-3.2304 3.47364,-5.92779 4.0705,-4.86176 4.26873,-4.95851 22.8235,-11.13835 18.26437,-6.08312 26.78129,-9.94463 36.49379,-16.546 2.62705,-1.78555 5.61097,-3.51131 6.63092,-3.83503 1.01996,-0.32372 2.10154,-1.81277 2.40352,-3.30899 0.30198,-1.49623 0.86248,-3.53077 1.24556,-4.52121 0.57971,-1.4988 0.29797,-1.70773 -1.67997,-1.24585 -2.53104,0.59104 -7.94473,-2.71844 -6.61767,-4.04549 0.40091,-0.40091 1.62325,0.0804 2.7163,1.06962 1.41876,1.28395 2.35039,1.50361 3.25613,0.76771 3.38282,-2.74845 15.76876,2.33275 15.76876,6.46896 0,4.50285 -6.53606,12.30865 -9.02067,10.77308 -0.53863,-0.3329 -0.97933,0.27468 -0.97933,1.35016 0,1.07548 -1.59991,3.36017 -3.55537,5.07708 -2.92851,2.57127 -3.72042,4.13225 -4.49152,8.85359 -0.6369,3.89967 -0.5847,6.80026 0.1633,9.074 1.33634,4.06213 0.11436,5.88699 -2.8719,4.2888 -3.19247,-1.70856 -4.40838,-5.93717 -3.34415,-11.63007 0.514,-2.74957 0.79223,-5.14154 0.61828,-5.31548 -0.17394,-0.17394 -2.94929,0.9961 -6.16745,2.6001 -3.21815,1.604 -13.72619,4.85087 -23.35119,7.21527 -10.8203,2.65803 -20.06693,5.57768 -24.22504,7.64912 -7.27384,3.6236 -8.3252,3.88694 -9.28944,2.32677 z m 9.28944,-3.32357 c 3.87006,-1.9261 13.09299,-4.91846 21.72504,-7.04866 24.88802,-6.14179 22.66328,-5.25729 22.30929,-8.86955 -0.23364,-2.38426 -0.92074,-3.32486 -2.80929,-3.84581 -2.09124,-0.57686 -2.16482,-0.70592 -0.45,-0.7893 2.66026,-0.12935 4.45,1.71561 4.45,4.58732 l 0,2.28701 4.53526,-2.2034 c 3.1536,-1.53214 4.7042,-2.97526 5.08981,-4.73701 1.29561,-5.91927 2.57839,-8.90423 4.58228,-10.66268 2.12481,-1.86456 2.12466,-1.8607 -0.0449,1.13447 -3.08013,4.25235 -6.65344,22.89513 -5.10493,26.63358 1.06336,2.56718 3.66694,4.46987 4.70119,3.43562 0.25987,-0.25988 -0.0281,-1.9085 -0.63994,-3.66362 -1.57297,-4.51222 0.26056,-15.21358 3.30288,-19.27719 3.64019,-4.86218 4.02345,-7.20859 1.46962,-8.99735 -1.97024,-1.38002 -2.50002,-1.37646 -5.2904,0.0356 -1.7055,0.86304 -3.77628,2.15817 -4.60173,2.87806 -4.70116,4.09997 -19.6076,10.83767 -36.17713,16.35204 -18.00156,5.99095 -18.80731,6.37392 -22.25,10.57527 -5.56062,6.78601 -4.74548,7.12686 5.20291,2.17562 z m 66.14609,-27.07731 c -0.0555,-1.45907 -0.24638,-1.63009 -0.64258,-0.57569 -0.31,0.825 -1.47938,2.85 -2.59863,4.5 l -2.03498,3 2.67757,-2.42431 c 1.47266,-1.33338 2.64204,-3.35838 2.59862,-4.5 z M 515,155 c 2.5703,-2.5703 2.53924,-4.64104 -0.0907,-6.04856 -1.55407,-0.83171 -2.81904,-0.81724 -4.92814,0.0564 -3.92743,1.62679 -4.34914,3.55754 -1.30077,5.95539 3.21405,2.52817 3.8247,2.53173 6.31964,0.0368 z m -342.53742,4.40858 c -2.66428,-0.94598 -6.57545,-4.05631 -11.5,-9.14529 l -7.46258,-7.71176 8,7.54867 c 6.15183,5.80476 9.10398,7.85213 12.77868,8.86222 2.62827,0.72246 5.09712,0.99512 5.48633,0.60591 0.38921,-0.38921 -2.52361,-3.71381 -6.47292,-7.38799 -3.94931,-3.67419 -8.66816,-8.47052 -10.48633,-10.65852 -1.81817,-2.188 1.56254,0.84263 7.51269,6.73474 12.51434,12.39226 13.01821,15.01297 2.14413,11.15202 z M 149,140.70295 c 0,-0.71338 -1.83813,-3.07588 -4.08473,-5.25 -6.75916,-6.54108 -8.22929,-10.416 -8.32892,-21.95295 -0.0735,-8.51594 0.23075,-10.5365 2.05033,-13.615096 l 2.13668,-3.615096 -1.999,-3.157196 C 137.58884,91.2402 136.96811,88.947141 137.24901,87.477708 137.50952,86.114969 137.35089,85 136.89651,85 c -1.44873,0 -3.03003,-4.003959 -2.38452,-6.037773 0.92339,-2.90935 2.39296,-2.377392 2.17627,0.787773 -0.18764,2.740915 -0.16917,2.748845 5.5891,2.400258 7.35002,-0.444945 8.72264,0.646684 8.72264,6.937003 0,3.818915 -0.42271,5.068598 -2,5.912739 -1.85473,0.99262 -1.88761,1.241892 -0.45273,3.431805 1.31724,2.010345 1.3758,3.346125 0.39392,8.984525 -1.19723,6.87499 -0.45609,9.58367 2.62224,9.58367 2.17321,0 2.58669,1.72879 1.43576,6.00302 -1.0409,3.86559 -0.92442,4.26332 2.56923,8.77307 l 3.65956,4.72391 -3.59911,-4 -3.59912,-4 -0.0149,6.75 c -0.0117,5.32672 -0.33116,6.75 -1.51488,6.75 -0.825,0 -1.5,-0.58367 -1.5,-1.29705 z m -0.41459,-15.34098 c -0.68888,-1.79519 -2.08203,-1.72249 -4.01398,0.20946 -2.39885,2.39885 -1.90396,6.47104 1.17857,9.69783 l 2.75,2.87871 0.30402,-5.71201 c 0.16721,-3.14161 0.0688,-6.3249 -0.21861,-7.07399 z m -3.3128,-1.47434 c 1.22506,-0.6372 2.3993,-1.30699 2.6094,-1.48843 0.21011,-0.18144 -1.96661,-2.89967 -4.83715,-6.0405 -5.0332,-5.50711 -5.19955,-5.8736 -4.66842,-10.28465 0.48543,-4.03155 0.42974,-4.21824 -0.46952,-1.57405 -1.41909,4.17267 -0.27233,18.66587 1.8249,23.06382 l 1.72413,3.61553 0.79464,-3.06659 c 0.43705,-1.68663 1.79696,-3.58794 3.02202,-4.22513 z M 153,119.23713 c 0,-0.41958 -0.9617,-1.20708 -2.1371,-1.75 -1.17541,-0.54292 -3.48169,-2.8663 -5.12506,-5.16307 l -2.98796,-4.17593 2.147,-4.43511 C 147.2025,98.950241 146.86536,96 144.01546,96 c -2.69901,0 -3.69297,1.930551 -4.41504,8.57526 -0.65765,6.05188 -0.64436,6.09324 3.45468,10.75 3.13023,3.55613 4.8124,4.67474 7.02989,4.67474 1.60325,0 2.91501,-0.34329 2.91501,-0.76287 z m -4.54712,-14.59391 c 0.81343,-5.630159 -0.72509,-5.629311 -3.07788,0.002 -1.09925,2.63088 -1.162,3.88456 -0.2772,5.53783 1.46013,2.72828 2.37999,1.20952 3.35508,-5.53952 z m -0.0347,-10.250209 C 149.43054,94.004545 150,92.564503 150,90.393011 150,87.431596 149.67885,87 147.47525,87 c -1.81638,0 -2.80983,0.749811 -3.54081,2.672449 -1.6989,4.468443 0.12814,6.391974 4.48377,4.720562 z M 348.03635,138.5438 c -1.60918,-1.93895 -0.70646,-3.15978 2.86454,-3.87398 2.03691,-0.40738 4.50544,-2.52009 8.02081,-6.86469 2.79307,-3.4519 5.0783,-6.58987 5.0783,-6.97327 0,-0.3834 -0.82108,-0.95769 -1.82462,-1.2762 -3.38327,-1.07381 -11.76099,-14.905 -26.59892,-43.913459 -9.768,-19.096641 -14.42509,-29.193573 -13.76818,-29.850478 1.33002,-1.330021 9.81151,3.646342 10.46341,6.139222 0.26866,1.027371 5.98724,10.49407 12.70795,21.037109 6.7207,10.543039 12.63792,20.684701 13.14937,22.537027 0.63475,2.298869 3.28175,5.472739 8.33935,9.999279 6.63714,5.94021 7.63493,6.51073 9.57277,5.47363 1.18984,-0.63678 3.00168,-0.93855 4.02632,-0.6706 1.22921,0.32144 2.06902,-0.16199 2.46863,-1.42107 0.5129,-1.61599 5.1405,-4.88632 6.91426,-4.88632 1.62677,0 0.19193,2.18551 -1.97597,3.00974 -3.10628,1.18101 -4.16921,3.648 -2.63219,6.10916 2.86167,4.58225 0.57899,10.63558 -4.86021,12.88857 -2.76623,1.14581 -3.41042,1.05188 -6.02045,-0.8778 l -2.92277,-2.16089 -8.27015,8.51561 c -8.54202,8.79554 -11.94004,10.42381 -14.73225,7.05941 z m 9.37857,-2.60324 c 1.91647,-1.68269 6.24499,-6.17312 9.61892,-9.97873 5.45377,-6.15156 6.06079,-7.25451 5.47083,-9.94056 C 371.95332,113.51097 371.35311,113 368.95573,113 c -3.34168,0 -5.30537,2.75873 -4.43426,6.22954 0.80862,3.22178 -9.41581,15.59933 -13.5725,16.43067 -2.9107,0.58214 -3.58432,1.37111 -2.2823,2.67312 1.54298,1.54299 5.49759,0.46134 8.74825,-2.39277 z m 22.65082,-10.97574 c 2.45863,-1.31582 2.43347,-2.45501 -0.13383,-6.06045 -2.60785,-3.66239 -3.27526,-3.6353 -6.03834,0.2451 l -2.24262,3.14947 2.28531,1.85053 c 2.63173,2.13104 3.46417,2.24178 6.12948,0.81535 z M 368.87491,112 l 3.3749,-0.5 -6.24476,-5.42292 c -3.43462,-2.98261 -7.08915,-6.807612 -8.12117,-8.500004 -1.59373,-2.613523 -1.87697,-2.761468 -1.88014,-0.982064 -0.004,2.474024 -3.41504,5.886858 -4.94073,4.943928 C 350.47836,101.17761 350,101.28795 350,101.78415 c 0,1.09526 9.93527,15.44608 11.33964,16.37933 0.54913,0.36492 1.70985,-0.76008 2.57939,-2.5 1.18902,-2.37919 2.41767,-3.28744 4.95588,-3.66348 z M 354.02313,98.940481 c 0.36631,-0.792265 1.15528,-2.397751 1.75327,-3.567747 0.94845,-1.855687 -0.5637,-4.725616 -11.84457,-22.480031 -7.11251,-11.194021 -12.9353,-20.811751 -12.93953,-21.372734 -0.009,-1.194168 -7.92667,-5.918935 -8.67118,-5.174425 -0.72834,0.728347 25.64184,51.9091 27.52286,53.417935 1.83832,1.474581 3.24492,1.197581 4.17915,-0.822998 z M 436.5,130.35914 c -9.35,-2.45392 -20.48566,-4.72778 -24.74591,-5.05302 -7.80094,-0.59555 -10.67691,-2.01902 -9.11661,-4.51232 0.44531,-0.71159 0.82155,-1.92228 0.83609,-2.69042 0.0409,-2.15936 7.44248,-4.37414 10.50481,-3.14335 4.37455,1.75819 28.16587,6.8958 37.00604,7.99126 8.22063,1.01869 13.78235,0.67782 17.13919,-1.05046 1.47982,-0.76189 1.48853,-1.24621 0.0983,-5.4692 -1.10392,-3.35322 -1.27621,-5.63854 -0.6236,-8.27184 1.04471,-4.21551 4.20908,-5.61249 5.08924,-2.24676 0.31537,1.206 1.35996,2.08697 2.47458,2.08697 1.06085,0 2.93788,1.0125 4.17118,2.25 1.25012,1.25438 3.17018,2.11529 4.33915,1.94557 2.58949,-0.37596 6.32758,4.06432 6.32758,7.51621 0,5.11833 -8.51001,10.37821 -11.67322,7.215 -0.76428,-0.76428 -1.2578,-0.33774 -1.71448,1.48182 -0.96489,3.8444 -5.75059,5.7919 -15.04918,6.12413 -6.90572,0.24674 -10.50335,-0.35235 -25.06312,-4.17359 z m 35.69499,1.61633 c 1.48224,-0.6855 2.93062,-1.86042 3.21861,-2.61092 0.63962,-1.66683 -0.59377,-1.78438 -2.17122,-0.20693 -1.94794,1.94794 -4.52701,-0.98449 -3.8487,-4.37602 0.53404,-2.67021 0.43986,-2.76252 -1.6638,-1.63062 -1.22643,0.65991 -4.95172,1.23339 -8.27841,1.27442 l -6.04853,0.0746 1.41872,2.8441 c 1.27513,2.55626 1.23498,3.01169 -0.39671,4.5 -1.61545,1.47351 -1.68139,1.47654 -0.59869,0.0275 1.27752,-1.70972 0.26629,-6.07837 -1.6863,-7.28514 -0.54087,-0.33428 -5.75929,-1.12926 -11.59648,-1.76662 -6.59438,-0.72004 -10.12658,-1.48482 -9.32828,-2.01973 0.78791,-0.52795 0.25964,-0.62349 -1.36591,-0.24704 -1.45789,0.33763 -6.01011,0.10464 -10.11604,-0.51775 -8.00674,-1.21369 -17.18722,0.0948 -16.44293,2.34352 0.20409,0.61662 3.93476,1.44149 8.29037,1.83306 4.35562,0.39157 15.56931,2.71375 24.91931,5.16041 14.54566,3.80623 18.15498,4.40523 25,4.14898 4.4,-0.16472 9.21274,-0.86036 10.69499,-1.54586 z m 2.49056,-5.14978 C 475.9585,125.62981 477,124.29297 477,123.85492 c 0,-0.43805 -1.39382,-2.77388 -3.09739,-5.19074 -3.12882,-4.4389 -3.73142,-7.30595 -2.39906,-11.41418 0.54755,-1.68832 0.33745,-2.25 -0.84161,-2.25 -2.49982,0 -3.14939,6.21354 -1.25502,12.00523 0.89775,2.74472 1.35609,6.09081 1.01854,7.43575 -0.59485,2.37006 0.0385,4.55902 1.31911,4.55902 0.34459,0 1.66803,-0.97844 2.94098,-2.17431 z m 11.15539,-1.42684 c 2.16253,-1.51469 2.19442,-1.70229 0.59063,-3.47447 -0.93244,-1.03033 -2.51899,-2.13474 -3.52568,-2.45425 -2.45931,-0.78055 -5.94484,1.19645 -5.36865,3.04512 0.25452,0.81661 0.67364,2.15975 0.93138,2.98475 0.61488,1.96819 4.49391,1.91498 7.37232,-0.10115 z m -66.20553,-6.37832 c 4.14436,0.62821 7.73688,0.94051 7.98339,0.694 0.24651,-0.24651 -1.38368,-0.74113 -3.62265,-1.09915 -2.23897,-0.35803 -5.9638,-1.30313 -8.2774,-2.10024 -5.48112,-1.88839 -13.74398,0.12629 -11.15131,2.71897 0.31209,0.31209 2.13464,0.13471 4.05011,-0.39418 2.32704,-0.64253 5.98303,-0.5826 11.01786,0.1806 z M 479,113.3372 c 0,-0.79268 -1.35,-1.91185 -3,-2.48704 -1.65,-0.5752 -3.01368,-1.56429 -3.03041,-2.19799 -0.0167,-0.63369 -0.46914,-0.40031 -1.00536,0.51862 -1.02188,1.7512 0.11139,6.01047 2.30126,8.64911 0.95834,1.15472 1.4483,1.01683 2.94216,-0.82801 C 478.19344,115.77449 479,114.12988 479,113.3372 z"
       id="path2989"
       style="fill:#000000" />
  </g>
</svg>
