<?xml version="1.0" encoding="UTF-8" standalone="no"?>
<!-- Created with Inkscape (http://www.inkscape.org/) -->

<svg
   xmlns:dc="http://purl.org/dc/elements/1.1/"
   xmlns:cc="http://creativecommons.org/ns#"
   xmlns:rdf="http://www.w3.org/1999/02/22-rdf-syntax-ns#"
   xmlns:svg="http://www.w3.org/2000/svg"
   xmlns="http://www.w3.org/2000/svg"
   xmlns:sodipodi="http://sodipodi.sourceforge.net/DTD/sodipodi-0.dtd"
   xmlns:inkscape="http://www.inkscape.org/namespaces/inkscape"
   id="svg3844"
   version="1.1"
   inkscape:version="0.91 r13725"
   width="485.04672"
   height="279.375"
   viewBox="0 0 485.04672 279.375"
   sodipodi:docname="ub620401.svg">
  <metadata
     id="metadata3850">
    <rdf:RDF>
      <cc:Work
         rdf:about="">
        <dc:format>image/svg+xml</dc:format>
        <dc:type
           rdf:resource="http://purl.org/dc/dcmitype/StillImage" />
        <dc:title></dc:title>
      </cc:Work>
    </rdf:RDF>
  </metadata>
  <defs
     id="defs3848" />
  <sodipodi:namedview
     pagecolor="#ffffff"
     bordercolor="#666666"
     borderopacity="1"
     objecttolerance="10"
     gridtolerance="10"
     guidetolerance="10"
     inkscape:pageopacity="0"
     inkscape:pageshadow="2"
     inkscape:window-width="640"
     inkscape:window-height="480"
     id="namedview3846"
     showgrid="false"
     inkscape:zoom="0.83969953"
     inkscape:cx="202.44435"
     inkscape:cy="136.75714"
     inkscape:window-x="0"
     inkscape:window-y="0"
     inkscape:window-maximized="0"
     inkscape:current-layer="svg3844" />
  <g
     id="g3854">
    <path
       style="fill:#fefefe"
       d="m 403.97117,264.14062 c 0.21375,-0.64453 1.61562,-1.38774 3.11527,-1.65158 l 2.72664,-0.47971 0,-10.77029 c 0,-5.92366 -0.35795,-17.37715 -0.79542,-25.45221 -0.78223,-14.4383 -0.76226,-14.69971 1.20352,-15.75506 3.1711,-1.70242 5.51017,-0.34638 6.63582,3.84705 0.72637,2.70595 0.72202,7.24127 -0.0154,16.11534 -0.56447,6.79228 -1.11511,17.5168 -1.22365,23.83228 l -0.19735,11.48269 -5.919,0.002 c -4.31998,9.4e-4 -5.81402,-0.3149 -5.53038,-1.17019 z m 12.85125,0.26736 c 0,-0.49748 0.88377,-1.37897 1.96392,-1.95885 1.95818,-1.05126 1.95672,-1.06189 -0.50176,-3.63601 -2.1585,-2.26003 -2.38691,-3.07578 -1.83345,-6.54784 l 0.63225,-3.96618 4.17363,7.10433 c 2.29551,3.90737 3.93223,7.73539 3.63718,8.50669 -0.60201,1.57372 -8.07177,2.03444 -8.07177,0.49786 z m 0.10896,-22.06423 c 0.0564,-7.60185 2.93078,-13.125 6.83058,-13.125 2.14174,0 2.90149,0.55284 3.58452,2.60832 0.90383,2.71999 0.96976,2.61237 -8.38765,13.69171 l -2.06918,2.44997 0.0417,-5.625 z m -19.26784,-23.14101 c -8.71889,-0.88854 -12.19284,-2.50305 -10.03767,-4.66495 0.83984,-0.84247 1.96047,-0.71009 4.77799,0.56441 2.90613,1.31457 4.87965,1.52544 9.3768,1.00185 5.67968,-0.66125 5.69597,-0.65618 5.69597,1.77265 0,1.33969 -0.31542,2.37897 -0.70094,2.30952 -0.38551,-0.0695 -4.48598,-0.51202 -9.11215,-0.98348 z m 3.89409,-5.14024 c -0.34268,-0.34375 -0.62306,-1.82031 -0.62306,-3.28125 0,-3.15967 2.55916,-3.64217 4.99534,-0.94181 2.45391,2.72002 1.97051,4.84806 -1.10125,4.84806 -1.4564,0 -2.92836,-0.28125 -3.27103,-0.625 z M 70.641172,207.52843 c -0.847597,-2.2157 1.148246,-6.01417 4.812562,-9.15922 3.114379,-2.67305 3.20657,-2.69077 4.877368,-0.9375 1.657656,1.73947 1.559194,1.91813 -3.69895,6.71179 -4.384171,3.99688 -5.512918,4.63464 -5.99098,3.38493 z m 260.800988,-6.22064 c -0.90055,-0.66055 -1.39702,-1.82269 -1.10328,-2.58252 0.29374,-0.75984 5.01884,-4.33464 10.50023,-7.94402 5.48138,-3.60938 14.17561,-9.40031 19.32052,-12.86876 8.81382,-5.94184 11.66399,-7.2271 9.06769,-4.08896 -0.62288,0.75285 -5.41411,4.21065 -10.64721,7.684 -18.30631,12.15041 -22.13152,14.76366 -22.13152,15.11953 0,0.47987 1.37945,-0.34816 7.47664,-4.48795 2.8271,-1.91951 7.66355,-5.07066 10.74766,-7.00257 3.08411,-1.93189 8.06251,-5.37901 11.06312,-7.66024 6.32068,-4.80536 9.32484,-5.08397 9.80133,-0.90902 0.41102,3.60146 -1.28589,5.24171 -11.36816,10.98865 -4.70894,2.68411 -11.08507,6.47805 -14.16919,8.43098 -3.08411,1.95292 -7.5,4.03147 -9.81308,4.61898 -2.31308,0.58752 -4.85851,1.25602 -5.6565,1.48556 -0.798,0.22953 -2.18771,-0.12311 -3.08825,-0.78366 z M 81.931013,196.10965 c -1.452032,-1.60949 -0.960438,-2.27043 8.967301,-12.05639 11.889366,-11.71956 13.800096,-13.04477 16.623236,-11.52915 2.13957,1.14865 1.81073,3.80153 -0.85639,6.90875 -1.83979,2.14337 -21.834115,18.37964 -22.633805,18.37964 -0.310249,0 -1.255403,-0.76628 -2.100342,-1.70285 z m 328.883397,-9.14537 c -2.16365,-2.17041 -1.85367,-2.94693 2.20149,-5.51484 5.88903,-3.7292 10.52991,-8.21828 11.9022,-11.51292 0.8332,-2.00035 1.91873,-3.06152 3.13182,-3.06152 3.71126,0 1.98374,3.51847 -6.4442,13.125 -8.24994,9.40365 -8.31663,9.44669 -10.79131,6.96428 z m -21.53621,-5.32366 c 0.32229,-3.22265 1.02902,-8.17968 1.57052,-11.01562 0.5415,-2.83594 0.96667,-6.21094 0.94481,-7.5 -0.0456,-2.68956 1.31012,-4.6875 3.18071,-4.6875 1.86627,0 1.63398,5.3318 -0.58172,13.3524 -1.02804,3.72139 -1.86916,8.52247 -1.86916,10.66908 0,3.51552 -1.02705,5.04102 -3.39387,5.04102 -0.2405,0 -0.17358,-2.63672 0.14871,-5.85938 z m 18.73247,-2.17634 c -1.58326,-1.5882 -2.0451,-7.90178 -0.57801,-7.90178 0.48983,0 1.94114,0.48015 3.22512,1.06701 2.33903,1.06906 4.07433,5.45408 2.90771,7.34761 -0.88469,1.43595 -3.88857,1.15861 -5.55482,-0.51284 z m -74.93276,-19.34401 c -2.34493,-2.16824 -5.09877,-5.58463 -6.11965,-7.59198 l -1.85616,-3.64974 2.81129,1.66586 c 1.5462,0.91622 4.33037,3.48886 6.18704,5.71697 1.85668,2.22811 4.14874,4.05112 5.09349,4.05112 0.94474,0 4.48492,-1.29898 7.86708,-2.88663 5.64629,-2.65048 8.07918,-2.92515 8.07918,-0.91213 0,1.05737 -13.76379,7.54876 -16.00573,7.54876 -0.98618,0 -3.71162,-1.774 -6.05654,-3.94223 z m 29.0166,0.72409 c -1.47278,-1.0904 -1.58993,-1.5711 -0.62259,-2.55465 0.9481,-0.96398 1.56609,-0.97687 3.0247,-0.0631 1.00823,0.63162 3.43575,1.1484 5.39448,1.1484 2.92344,0 4.21517,-0.67169 7.2117,-3.75 2.66232,-2.73499 4.41252,-3.75 6.46616,-3.75 l 2.81578,0 -5.07634,5.15625 -5.07633,5.15625 -6.16171,0 c -3.88117,0 -6.83315,-0.49712 -7.97585,-1.34314 z m -27.44725,-4.87704 c -2.5308,-3.22745 -2.44344,-4.65371 0.39946,-6.52228 2.16437,-1.42257 2.50854,-1.42257 4.6729,0 2.81876,1.85269 2.99776,4.57908 0.46729,7.11746 -2.44368,2.45132 -3.21579,2.36836 -5.53965,-0.59518 z m -217.1239,0.52009 c -2.2957,-1.3413 -2.03427,-3.36959 0.6628,-5.1423 1.26406,-0.83084 5.73034,-7.39939 9.92505,-14.59679 4.19471,-7.1974 7.8433,-12.86895 8.10797,-12.60345 0.91432,0.91718 -13.14962,31.13309 -15.19114,32.63765 -1.20147,0.88546 -1.53165,0.85766 -3.50468,-0.29511 z m 273.44667,-2.78467 c -2.80735,-1.06817 -3.60437,-4.22714 -1.77366,-7.02989 1.86798,-2.85981 2.47115,-2.86379 5.12145,-0.0338 3.29502,3.51835 0.85656,8.66346 -3.34779,7.06375 z m -266.67097,-0.39883 c 0,-0.24535 0.83955,-1.82739 1.86567,-3.51563 1.82354,-3.00022 1.86574,-3.01556 1.86916,-0.67891 0.002,1.31485 -0.50118,2.89688 -1.118,3.51563 -1.12432,1.12783 -2.61683,1.51505 -2.61683,0.67891 z m 67.45626,-3.7732 c -2.52787,-3.22373 -2.53695,-3.88314 -0.0717,-5.20665 1.47795,-0.79345 6.62474,-0.66869 20.79439,0.50403 10.99535,0.91001 21.45516,1.29542 25.13875,0.92628 3.59246,-0.36 6.30841,-0.26801 6.30841,0.21367 0,0.46521 -1.82566,1.73558 -4.05703,2.82305 -3.59746,1.75325 -6.43693,2.05416 -25.0671,2.65645 l -21.01007,0.67923 -2.0357,-2.59606 z m -26.80205,-5.3097 c -1.02804,-0.56896 -3.00818,-2.09478 -4.40031,-3.39072 -3.32801,-3.09802 -13.60675,-10.20398 -16.86137,-11.65669 -2.6013,-1.1611 -3.44577,-2.6111 -1.52069,-2.6111 0.57717,0 5.51876,2.26292 10.98131,5.0287 5.46254,2.76579 11.48891,5.53404 13.39192,6.15167 4.12561,1.339 5.60096,4.43168 3.01794,6.32632 -2.01611,1.47883 -2.20012,1.48489 -4.6088,0.15182 z m 170.09482,-2.65711 c -2.93587,-3.016 -3.41788,-3.9779 -2.46633,-4.92188 0.94932,-0.94176 1.81631,-0.4823 4.39392,2.32858 2.99123,3.26195 4.18901,6.3419 2.46632,6.3419 -0.4097,0 -2.38696,-1.68687 -4.39391,-3.7486 z m -178.94725,-0.43863 c -1.84796,-2.23362 -0.73653,-3.51973 1.6143,-1.868 1.15387,0.81073 2.09794,1.872 2.09794,2.35839 0,1.36727 -2.44224,1.04465 -3.71224,-0.49039 z m 147.63747,-7.39053 c -13.65332,-5.24947 -12.81549,-3.95206 -13.28561,-20.57315 -0.41083,-14.524515 0.1173,-17.875778 2.7356,-17.358774 3.39217,0.669806 5.17023,5.041454 6.0928,14.980114 0.4945,5.3272 1.2146,10.02189 1.60023,10.43265 0.38563,0.41076 4.61519,1.55124 9.39904,2.53442 10.03503,2.06239 11.05164,2.7125 9.51884,6.08714 -2.0863,4.59324 -4.95816,4.66747 -15.66134,0.40473 -6.70886,-2.67193 -9.85283,-4.41716 -10.25668,-5.69354 -0.32029,-1.01231 -0.30263,-5.29747 0.0392,-9.52257 0.34187,-4.22511 0.27253,-8.6023 -0.1541,-9.72709 -0.48327,-1.27414 -0.77568,2.08326 -0.77568,8.90625 0,6.02323 0.32152,11.4483 0.7145,12.05571 0.39297,0.6074 4.67046,2.64196 9.50551,4.52125 4.83505,1.87928 9.02136,4.01903 9.30289,4.755 0.68281,1.78492 0.407,1.72828 -8.77524,-1.80214 z m 14.033,2.47821 c 0.0427,-2.21982 1.78301,-2.74864 7.7367,-2.35093 8.55287,0.57132 7.85184,2.45376 -1.05006,2.81968 -3.68553,0.15149 -6.69451,-0.0594 -6.68664,-0.46875 z m -180.62178,-14.0467 c -1.44628,-0.37912 -1.63551,-1.76842 -1.63551,-12.00722 0,-6.36817 -0.48828,-13.700433 -1.08507,-16.293933 -1.20267,-5.226542 -0.2329,-7.615097 3.0918,-7.615097 3.04885,0 3.809,4.04341 2.21523,11.783419 -1.91034,9.277441 -1.91944,21.832491 -0.0164,22.565051 0.77103,0.2968 1.40187,0.91637 1.40187,1.37683 0,0.86875 -1.17154,0.92507 -3.97196,0.19095 z m 103.06915,-0.7216 c -2.33333,-2.82027 1.95135,-11.28465 10.19152,-20.13335 l 2.91236,-3.127431 6.28264,0.829312 c 3.45546,0.456131 9.96255,0.725466 14.46022,0.598538 4.49766,-0.126938 8.17757,0.140756 8.17757,0.594861 0,0.45411 -2.32399,1.77183 -5.16441,2.92827 -4.37257,1.78025 -6.14672,2.00553 -11.57127,1.46935 -10.15354,-1.00363 -10.99034,-0.54248 -15.06357,8.30157 -2.5232,5.47852 -4.2208,7.96205 -5.99749,8.77409 -3.06422,1.40051 -2.8651,1.41159 -4.22757,-0.23521 z M 123.83177,111.13042 c -5.6542,-5.02416 -10.88066,-9.70889 -11.61434,-10.4105 -1.0773,-1.030211 -1.12052,-1.745598 -0.2246,-3.718051 1.56506,-3.44566 4.82773,-2.788557 6.90732,1.391118 0.88574,1.780213 4.80631,6.739613 8.71237,11.020893 4.07357,4.46487 6.97353,8.43811 6.80079,9.31777 -0.21697,1.10483 -3.17537,-1.02033 -10.58154,-7.60123 z m 96.15331,1.89309 c -1.64638,-4.30382 3.54583,-8.0196 11.20956,-8.02206 4.98276,-0.002 13.40345,-4.06495 15.93376,-7.688753 0.8171,-1.170235 1.92777,-1.711988 2.812,-1.37161 1.762,0.678254 1.88013,2.530257 0.29324,4.597083 -1.6847,2.19422 -15.34002,9.14933 -17.96335,9.14933 -1.22118,0 -3.46986,1.05469 -4.99705,2.34375 -3.08212,2.60154 -6.4948,3.06617 -7.28816,0.99226 z m -8.53649,-1.46951 c -1.15654,-0.47772 -2.10854,-1.40952 -2.11556,-2.07067 -0.007,-0.66114 -0.26635,-2.1513 -0.5763,-3.31145 -0.52408,-1.96176 -0.26528,-2.10938 3.69809,-2.10938 3.27972,0 4.58069,0.45696 5.64644,1.98328 2.94684,4.22036 -1.28594,7.72498 -6.65267,5.50822 z m -89.73298,-9.6112 c -1.4647,-1.83708 -2.31704,-5.3803 -1.29429,-5.3803 2.33397,0 3.87774,1.324209 3.87774,3.326222 0,2.624918 -1.3026,3.660598 -2.58345,2.054078 z m 19.04145,-5.145925 c 0.33316,-1.417969 0.9542,-2.961028 1.38007,-3.429017 1.18951,-1.307164 3.65726,1.242176 3.65726,3.778179 0,1.854751 -0.4737,2.228963 -2.82154,2.228963 -2.60185,0 -2.77439,-0.200747 -2.21579,-2.578125 z M 91.487442,79.017693 C 88.659908,76.55015 84.897486,73.419524 83.126506,72.060747 79.93048,69.608612 79.919777,69.575505 81.686903,67.607622 82.666102,66.51718 83.78934,65.625 84.182985,65.625 c 1.422192,0 15.188845,8.944966 16.155915,10.497404 1.25474,2.014232 -0.25174,6.713557 -2.277649,7.104931 -0.788066,0.152241 -3.746271,-1.742098 -6.573809,-4.209642 z M 72.897195,64.071272 C 70.070092,61.740221 64.918223,57.974903 61.448597,55.703896 55.414755,51.754509 53.681136,49.6875 56.402594,49.6875 c 2.976968,0 8.204025,2.553352 16.803447,8.208271 l 9.187349,6.041538 -2.107269,2.250095 c -1.158999,1.237553 -2.139101,2.221306 -2.178005,2.186118 -0.0389,-0.03519 -2.383818,-1.9712 -5.210921,-4.30225 z m 62.701725,1.341723 C 134.08643,62.98354 133.81676,58.754949 133.29574,29.296875 133.0837,17.308594 133.22972,7.5 133.62022,7.5 c 1.41849,0 4.6976,9.734268 4.7003,13.953143 0.002,2.380459 0.71259,10.867169 1.58014,18.859357 0.86756,7.992187 1.56936,16.721075 1.55954,19.397527 -0.026,7.078594 -3.12663,10.095523 -5.86128,5.702968 z"
       id="path3864"
       inkscape:connector-curvature="0" />
    <path
       style="fill:#bfbfbf"
       d="M 0,139.6875 0,0 l 242.52336,0 242.52336,0 0,139.6875 0,139.6875 -242.52336,0 L 0,279.375 0,139.6875 Z m 434.90884,125.8643 c -8.40356,-0.26829 -9.43955,-0.48601 -9.09634,-1.91166 0.21302,-0.88489 -1.48363,-4.74331 -3.77036,-8.57427 l -4.15768,-6.96539 2.03907,-2.49359 c 8.21612,-10.04754 9.983,-12.55476 9.983,-14.16593 0,-2.48597 -2.91401,-8.02774 -7.13301,-13.56533 l -3.50038,-4.59438 -0.136,-14.53125 -0.13599,-14.53125 4.84087,-5.625 c 5.62894,-6.54073 7.34317,-9.46706 6.6331,-11.32326 -0.56582,-1.47912 -3.89856,-1.81673 -4.72308,-0.47846 -0.30793,0.4998 -1.69695,0.41136 -3.34606,-0.21305 -2.01216,-0.76188 -3.28222,-0.78149 -4.43521,-0.0684 -0.8886,0.54953 -3.15153,0.81501 -5.02875,0.58997 -2.58473,-0.30988 -3.889,0.0681 -5.37383,1.55766 -2.57254,2.58058 -2.6777,8.74763 -0.19169,11.2414 1.6292,1.6343 1.6496,1.89435 0.25812,3.29018 -1.6835,1.68876 -1.97157,6.70245 -0.82674,14.38839 0.68007,4.56564 0.59551,4.92188 -1.16822,4.92188 -3.08551,0 -5.63967,3.31177 -5.63967,7.3125 0,1.95937 0.50468,4.06875 1.1215,4.6875 1.77507,1.78062 -5.09622,1.42865 -9.05211,-0.46369 -3.1227,-1.49376 -3.41599,-1.49354 -4.90858,0.004 -1.49355,1.49821 -1.47847,1.70172 0.2548,3.44041 1.4225,1.42695 3.68775,1.99031 9.94201,2.47255 4.45487,0.3435 8.61181,0.942 9.23765,1.33 1.2318,0.76367 2.58773,16.69202 2.69068,31.60763 0.0595,8.6332 0.0494,8.67188 -2.26869,8.67188 -1.31637,0 -2.83592,0.81501 -3.49583,1.875 -1.1583,1.86052 -2.17946,1.875 -132.25091,1.875 l -131.0836,-5e-5 0,-22.76285 0,-22.76284 9.39169,-1.12664 c 15.72275,-1.8861 30.62558,-7.733 42.47747,-16.66536 4.32224,-3.25753 5.67902,-3.88693 5.91961,-2.74611 0.47255,2.2407 2.27014,1.13854 3.20247,-1.96354 0.45522,-1.51466 1.28822,-3.70249 1.85109,-4.86187 1.62557,-3.34825 0.10466,-3.60132 -5.39181,-0.89718 -5.28596,2.60058 -6.94732,4.90867 -2.77762,3.85886 1.28505,-0.32353 2.33645,-0.36733 2.33645,-0.0973 0,1.35709 -12.69383,9.84381 -20.09346,13.4339 -9.53681,4.62699 -19.64892,7.46749 -29.90207,8.39951 l -7.01382,0.63756 0,-43.66773 c 0,-28.1979 0.3322,-43.87369 0.93772,-44.24908 0.51574,-0.31974 3.80367,1.2001 7.3065,3.37744 l 6.36878,3.9588 -1.44148,4.0211 c -1.38986,3.87714 -1.36342,4.12702 0.73864,6.9791 2.01212,2.73004 2.06313,3.07533 0.66193,4.48091 -1.28152,1.28552 -1.8214,1.33298 -3.46325,0.30443 -2.52701,-1.58307 -3.7191,-0.40645 -1.3493,1.33181 2.65756,1.94933 4.95544,1.62844 6.62325,-0.9249 0.80993,-1.23998 2.51257,-2.51633 3.78363,-2.83635 1.27107,-0.32002 3.11494,-1.38826 4.09748,-2.37387 1.42588,-1.43034 2.31709,-1.61887 4.41549,-0.93406 1.44596,0.47189 8.4741,1.9711 15.61807,3.33158 12.43301,2.36772 13.81329,2.44425 32.24299,1.78768 17.80722,-0.63438 19.59218,-0.8575 23.75534,-2.96933 6.29192,-3.19169 5.29961,-4.59886 -2.99763,-4.25087 -7.43728,0.31192 -40.40899,-2.15862 -49.12762,-3.68108 -3.06228,-0.53475 -6.84732,-1.64299 -8.41122,-2.46277 -1.56389,-0.81977 -5.28749,-1.55435 -8.27469,-1.63238 -4.6117,-0.12048 -7.07964,-0.97354 -16.35514,-5.65327 -6.00813,-3.03125 -11.05619,-5.82448 -11.21791,-6.20716 -0.16171,-0.38269 -0.89769,-0.46341 -1.63551,-0.1794 -0.73781,0.28401 -1.34149,0.0846 -1.34149,-0.44329 0,-0.52783 0.49941,-1.12667 1.10982,-1.33078 0.71429,-0.23883 0.3812,-1.10197 -0.93458,-2.42187 -1.75389,-1.75937 -2.04258,-3.0832 -2.03164,-9.3164 0.0186,-10.56319 0.39918,-11.48438 4.74514,-11.48438 3.08843,0 3.82065,-0.417703 5.10724,-2.913469 0.89347,-1.733184 1.2655,-3.858385 0.91834,-5.245928 -0.74719,-2.986311 1.06502,-5.445804 2.89193,-3.924871 0.70283,0.585118 1.27786,1.645008 1.27786,2.35531 0,0.710302 0.42057,1.291458 0.93458,1.291458 1.17535,0 1.18148,-1.101528 0.0232,-4.157719 -0.99795,-2.633026 -3.28736,-3.061968 -5.86535,-1.098931 -0.90013,0.68542 -2.58238,1.064603 -3.73832,0.842628 -2.05122,-0.393895 -2.09848,-0.677906 -1.96738,-11.822909 0.0738,-6.280626 -0.43078,-15.216194 -1.1214,-19.856819 -1.51273,-10.164855 -3.21858,-28.437156 -3.21858,-34.476037 0,-6.763829 -5.03041,-17.0649588 -6.85603,-14.039588 -0.23336,0.3867187 -0.0849,14.414062 0.33002,31.171875 0.50213,20.282759 0.42776,32.558571 -0.22245,36.719905 -0.72694,4.652356 -0.67462,8.009215 0.20456,13.125 0.64973,3.780615 1.3438,11.51447 1.5424,17.186345 l 0.36108,10.3125 -5.73068,-6.09375 c -5.00755,-5.32481 -5.48106,-6.13159 -3.7525,-6.3936 2.63611,-0.39957 4.14622,-3.459337 3.49102,-7.073438 -0.29306,-1.616568 -0.7214,-4.699211 -0.95186,-6.85032 -0.24828,-2.317494 -1.24211,-4.73678 -2.43909,-5.937501 -2.35591,-2.363268 -3.80826,-1.733654 -1.61988,0.702236 0.81351,0.905505 1.76773,2.806529 2.12052,4.224498 0.5937,2.386348 0.43101,2.578125 -2.1872,2.578125 -1.55575,0 -3.38872,0.211596 -4.07328,0.470213 -0.7055,0.266528 -1.89949,-0.687881 -2.75635,-2.203286 -1.80869,-3.198774 -17.390331,-15.825884 -25.180405,-20.405788 -3.052994,-1.794903 -5.550898,-3.661881 -5.550898,-4.148843 0,-0.486962 2.095247,-2.259721 4.656105,-3.939465 2.560858,-1.679744 4.663661,-3.614042 4.672895,-4.29844 0.0097,-0.719417 -2.512332,0.529152 -5.978423,2.959694 L 83.336668,63.575637 73.6416,57.197329 c -10.296006,-6.773662 -16.88009,-9.51122 -18.636894,-7.748925 -1.454716,1.459262 -0.333737,2.774412 5.612398,6.584551 2.89891,1.857552 7.90339,5.450255 11.121068,7.983785 l 5.850322,4.60642 -4.710093,5.169698 c -9.145158,10.037529 -16.031643,22.767101 -19.781639,36.566102 -2.636021,9.69985 -2.890752,31.2505 -0.483289,40.88689 2.010441,8.04722 6.32184,18.49597 10.512218,25.47653 1.776197,2.95888 3.229448,5.53961 3.229448,5.73495 0,0.19534 -0.888855,0.35517 -1.975233,0.35517 -2.220002,0 -2.220663,-0.0157 0.5115,12.1875 0.865817,3.86719 4.276682,20.32031 7.5797,36.5625 3.303018,16.24219 6.228035,30.47223 6.500037,31.62231 l 0.494552,2.09105 -20.340325,0.27195 c -11.187178,0.14958 70.92136,0.27979 182.46341,0.28936 111.54205,0.01 198.53608,-0.11885 193.32006,-0.28537 z M 82.242989,265.01187 c 0,-0.59934 -7.33641,-36.79868 -7.966585,-39.30875 l -0.647261,-2.57812 31.877017,0 31.87702,0 0,21.09375 0,21.09375 -27.5701,0 c -15.163549,0 -27.570091,-0.13528 -27.570091,-0.30063 z m 333.988611,-3.903 c -0.96712,-2.52815 0.1248,-3.49182 1.8233,-1.60913 1.4756,1.63561 1.49421,1.89182 0.17436,2.39988 -0.85375,0.32864 -1.69716,-0.006 -1.99766,-0.79075 z M 73.419913,220.07812 c -0.194259,-0.64453 -0.794123,-3.07031 -1.33303,-5.39062 -0.959609,-4.13168 -0.908313,-4.29293 2.485333,-7.8129 1.905841,-1.97678 4.569784,-4.39419 5.919874,-5.37204 l 2.454708,-1.7779 7.493692,5.03149 c 11.4334,7.67673 25.88456,12.74011 40.63427,14.23739 14.03027,1.42425 4.62683,2.25646 -25.49661,2.25646 -24.632607,0 -31.88469,-0.26427 -32.158237,-1.17188 z M 123.68371,216.113 c -3.67956,-0.66978 -8.93657,-1.95024 -11.68224,-2.84546 -6.63677,-2.1639 -20.14076,-9.14386 -23.966045,-12.38759 l -3.064613,-2.5987 9.513289,-7.5 c 16.081099,-12.67787 26.632199,-25.13894 28.378519,-33.51563 0.29561,-1.41796 1.09513,-2.57812 1.77669,-2.57812 2.31719,0 4.41513,-3.39362 4.18814,-6.77473 -0.2703,-4.02611 6.58402,-20.20319 7.76751,-18.33231 0.41778,0.66043 0.76604,20.71251 0.77391,44.56016 l 0.0143,43.35938 -3.50468,-0.0846 c -1.92757,-0.0465 -6.51522,-0.63262 -10.19479,-1.3024 z M 69.748172,202.5 c -1.413883,-3.53218 -3.134181,-14.42251 -2.592608,-16.41248 0.567084,-2.0837 0.892776,-1.88411 5.701015,3.49369 l 5.099571,5.70365 -3.321561,2.90445 c -1.826858,1.59744 -3.547001,3.53725 -3.822538,4.31069 -0.445313,1.25 -0.563522,1.25 -1.063879,0 z m 5.358675,-13.32817 c -9.407398,-9.7129 -16.573714,-22.91446 -20.500632,-37.76558 -2.43324,-9.20222 -2.43324,-30.17278 0,-39.375 3.85906,-14.594494 11.837245,-29.314879 20.522289,-37.865242 l 4.136789,-4.072637 4.526231,3.459987 c 7.881537,6.024883 20.019056,17.536234 22.282486,21.132942 1.19991,1.906725 8.29937,8.90296 15.77658,15.5472 l 13.59491,12.08043 -2.94245,5.17115 c -1.61834,2.84414 -3.80234,6.71902 -4.85332,8.61084 -1.74467,3.14047 -2.3117,3.46678 -6.51886,3.75141 -3.87326,0.26204 -5.00656,-0.0622 -7.10772,-2.03341 -1.37485,-1.28985 -2.72184,-2.97798 -2.9933,-3.75142 -0.27147,-0.77344 -0.79245,-1.12905 -1.15773,-0.79025 -0.88617,0.82193 1.88972,6.10444 3.75932,7.15399 0.96554,0.54203 1.59566,2.48148 1.80825,5.5656 0.28182,4.08846 0.004,5.03562 -2.0429,6.94903 -1.30305,1.21846 -3.54534,4.54293 -4.98286,7.38771 -3.55966,7.04444 -7.19431,11.63075 -18.695507,23.59064 l -9.814287,10.20569 -4.797289,-4.95308 z M 418.25691,172.82176 c 0.0927,-4.9485 1.44323,-6.06399 4.56733,-3.77244 1.68224,1.23391 1.6183,1.44615 -1.44614,4.8005 l -3.20621,3.5095 0.085,-4.53756 z m -78.07,28.72666 c 2.31308,-0.58476 5.81378,-2.11304 7.77934,-3.3962 6.38944,-4.17117 21.47758,-12.71638 25.52917,-14.45853 2.17404,-0.93481 4.52076,-2.78703 5.21494,-4.11606 1.21467,-2.32553 10.00742,-10.2701 10.65149,-9.62401 0.17279,0.17332 -0.10924,4.05291 -0.62672,8.62131 -1.02128,9.01606 -0.49751,10.72416 2.75331,8.97894 1.52697,-0.81977 1.9695,-1.94941 1.9695,-5.02757 0,-2.18363 0.84112,-7.01501 1.86916,-10.7364 2.28094,-8.25678 2.36228,-12.18941 0.29942,-14.47598 -1.48697,-1.6482 -1.40072,-1.88491 1.63551,-4.48884 1.76289,-1.51189 3.66578,-2.76603 4.22863,-2.78698 1.43216,-0.0533 4.54856,-3.6675 3.80529,-4.4131 -0.33639,-0.33743 -1.4553,0.15242 -2.48649,1.08855 -1.68417,1.52891 -1.87489,1.54422 -1.87489,0.1505 0,-2.28328 -3.40335,-5.30155 -5.97795,-5.30155 -2.79528,0 -8.38359,6.0836 -7.76566,8.45393 0.36606,1.4042 -0.0737,1.58381 -2.95995,1.2087 -3.0019,-0.39013 -3.81275,-0.003 -7.08424,3.38591 -3.05009,3.15917 -4.3154,3.82646 -7.25567,3.82646 -1.95873,0 -4.38995,-0.51909 -5.4027,-1.15355 -1.53046,-0.95878 -2.12006,-0.86942 -3.49199,0.52923 -1.57932,1.61009 -1.55173,1.76408 0.63884,3.56482 1.91783,1.57654 3.38245,1.83303 9.02293,1.58014 6.02358,-0.27006 6.64602,-0.13856 5.90398,1.24735 -1.39335,2.60238 -7.86919,7.25849 -35.60134,25.59726 -5.99958,3.96742 -11.17719,7.9163 -11.50579,8.77528 -0.73296,1.91604 2.84202,5.09743 5.02102,4.46822 0.82789,-0.23905 3.39778,-0.91308 5.71086,-1.49783 z m 7.85963,-39.93981 c 7.98611,-3.80444 8.84378,-4.62979 6.86934,-6.6104 -1.21702,-1.22082 -1.79908,-1.20873 -4.92698,0.10227 -1.95081,0.81765 -3.60748,1.37563 -3.68149,1.23995 -0.074,-0.13567 -0.6317,-1.4078 -1.23931,-2.82696 -0.60762,-1.41915 -2.38626,-3.36205 -3.95254,-4.31753 -2.48015,-1.51298 -2.66358,-1.89061 -1.42093,-2.92514 2.20512,-1.8358 1.73514,-3.4772 -2.23166,-7.79413 l -3.65853,-3.98143 2.25186,-3.732 c 3.17165,-5.25633 3.08746,-10.91288 -0.20104,-13.5077 -1.35436,-1.06867 -3.23369,-1.94304 -4.17627,-1.94304 -1.13941,0 -1.53349,-0.47131 -1.17585,-1.40625 0.97404,-2.54623 -1.26328,-1.46682 -3.75671,1.81245 -1.34605,1.77028 -2.44737,3.45778 -2.44737,3.75 0,0.29222 1.93751,0.5313 4.3056,0.5313 3.44323,0 4.19785,-0.28165 3.76764,-1.40625 -0.70299,-1.83771 0.74602,-1.8005 2.60767,0.0669 2.05203,2.05845 1.82991,7.4704 -0.47548,11.58511 -1.68957,3.01558 -2.30934,3.4161 -4.73378,3.05915 -1.96773,-0.2897 -3.43649,-1.43855 -4.98501,-3.89923 -1.8198,-2.89174 -3.13197,-3.75214 -7.67071,-5.02962 -3.01144,-0.8476 -7.41529,-1.80784 -9.78632,-2.13383 -2.37103,-0.32601 -4.73151,-0.85842 -5.24551,-1.18314 -0.514,-0.32473 -1.34675,-4.94902 -1.85056,-10.27623 -0.93091,-9.84329 -2.24014,-13.138862 -6.17918,-15.554181 -2.61304,-1.602248 -5.60831,2.638912 -4.89925,6.937101 0.29968,1.81659 0.54951,8.23121 0.55516,14.25469 l 0.0103,10.95178 2.87776,2.05556 c 1.58276,1.13055 7.14587,3.68737 12.36245,5.68183 7.01669,2.68269 10.43373,4.57829 13.13191,7.2849 l 3.64723,3.65862 -2.17606,1.16823 c -3.0446,1.63451 -11.50449,1.61748 -13.47996,-0.0271 -0.88263,-0.7348 -1.97111,-2.30256 -2.41886,-3.4839 -1.06911,-2.82076 -3.06669,-2.85534 -2.22567,-0.0385 0.71886,2.40769 3.55974,5.03118 6.97279,6.43923 2.82778,1.16661 9.79507,0.25109 12.72008,-1.67144 2.05652,-1.35168 2.20466,-1.24631 4.42366,3.14635 2.65355,5.25291 10.90368,13.41399 13.56034,13.41399 0.9967,0 5.01577,-1.52612 8.93125,-3.39139 z m -96.87959,-30.33923 c 5.51776,-3.63883 7.31628,-4.43387 7.54643,-3.3359 0.61276,2.92315 1.80496,1.29804 2.83982,-3.871 0.58497,-2.92188 0.91726,-5.45929 0.73843,-5.63868 -0.56203,-0.56379 -9.02061,4.50572 -9.02061,5.40635 0,0.47154 0.94627,0.85945 2.10281,0.86201 1.99014,0.005 1.95259,0.12723 -0.70094,2.29251 -6.25862,5.10703 -11.5675,7.28535 -18.07898,7.41813 -8.90551,0.18159 -14.65874,-1.02758 -17.89789,-3.76166 -1.54449,-1.30368 -2.80817,-1.94844 -2.80817,-1.43282 0,1.80582 5.69497,5.72238 9.13966,6.28555 1.91244,0.31267 4.108,0.72878 4.87903,0.92469 0.77103,0.19591 4.24008,0.1924 7.70901,-0.008 5.73184,-0.33077 6.96791,-0.79974 13.5514,-5.1414 z m -7.3593,-6.05214 c 1.9166,-0.99421 3.63837,-3.66551 6.598,-10.23663 4.60015,-10.21354 4.87306,-10.3819 15.31051,-9.44468 5.95642,0.53485 7.32926,0.3288 12.17039,-1.82669 7.72819,-3.44093 6.69724,-4.796624 -3.67227,-4.828949 -11.195,-0.03487 -21.63659,-1.365338 -22.92354,-2.920857 -1.48985,-1.800768 -3.39888,-1.576622 -4.52338,0.531094 -1.72266,3.2289 -10.53795,7.571972 -15.36909,7.571972 -2.39553,0 -5.88378,0.64055 -7.75168,1.42344 -3.18591,1.33532 -3.52048,1.30631 -5.40405,-0.46875 -1.42418,-1.34212 -3.28087,-1.89219 -6.38689,-1.89219 -7.0576,0 -10.00924,4.53264 -6.71547,10.3125 0.7346,1.28906 1.35055,2.82536 1.36875,3.41399 0.0492,1.58992 -4.59225,2.48016 -6.15363,1.18028 -0.73428,-0.6113 -1.63965,-0.80591 -2.01193,-0.43246 -0.85795,0.86062 2.45248,3.33819 4.46036,3.33819 0.83156,0 2.32828,-0.6194 3.32605,-1.37644 0.99778,-0.75703 2.78129,-1.38984 3.96336,-1.40625 1.18206,-0.0164 3.33766,-0.6463 4.7902,-1.39979 2.55533,-1.32554 2.7736,-1.24668 6.72929,2.43127 2.24856,2.09068 5.56026,4.58696 7.35933,5.54729 3.94056,2.10345 11.25353,2.34185 14.83569,0.48366 z m -9.81695,-11.25511 c -3.91748,-1.71015 -4.82955,-3.33713 -1.87078,-3.33713 1.27803,0 5.07607,-1.43912 8.44008,-3.19804 l 6.11637,-3.19804 -3.896,5.54179 c -2.1428,3.04798 -4.33891,5.52528 -4.88024,5.5051 -0.54134,-0.0202 -2.30058,-0.61134 -3.90943,-1.31368 z M 348.59812,99.375 c 0,-3.609375 -0.22507,-6.5625 -0.50016,-6.5625 -1.41169,0 -5.10731,3.21375 -5.10731,4.441359 0,1.1499 0.2612,1.195763 1.40187,0.246141 1.21507,-1.011572 1.40187,-0.527203 1.40187,3.63521 0,3.6437 0.33821,4.80229 1.40187,4.80229 1.11259,0 1.40186,-1.35416 1.40186,-6.5625 z m 11.27794,5.08013 c 0.96562,-1.16715 0.98828,-1.86492 0.10651,-3.28125 -0.87017,-1.397724 -0.87017,-2.200036 0,-3.597755 0.88177,-1.416337 0.85911,-2.114109 -0.10651,-3.28125 -2.83588,-3.427703 -9.07112,-0.407662 -6.77453,3.28125 0.87016,1.397719 0.87016,2.200031 0,3.597755 -1.42628,2.29097 0.35958,4.76362 3.44052,4.76362 1.15917,0 2.65948,-0.66707 3.33401,-1.48237 z m -4.57076,-1.8484 c 0.42268,-2.03635 2.08133,-2.16096 2.4607,-0.18485 0.19701,1.02618 -0.26137,1.64062 -1.22395,1.64062 -0.89788,0 -1.41306,-0.60641 -1.23675,-1.45577 z m 0.43253,-4.819714 c -1.11698,-1.120463 -0.60347,-3.099516 0.80422,-3.099516 0.77103,0 1.40187,0.607912 1.40187,1.350919 0,1.566234 -1.33391,2.623509 -2.20609,1.748597 z m 13.82157,6.677264 c 3.10372,-3.11341 1.09808,-11.65178 -2.73698,-11.65178 -2.34878,0 -4.2056,2.897419 -4.2056,6.5625 0,3.66508 1.85682,6.5625 4.2056,6.5625 0.6976,0 1.92925,-0.66294 2.73698,-1.47322 z m -3.70677,-1.56202 c -0.82255,-2.15025 -0.12197,-7.74601 0.96979,-7.74601 1.2816,0 1.76135,7.04565 0.56169,8.24906 -0.66721,0.66929 -1.14276,0.5131 -1.53148,-0.50305 z M 378.03738,95.625 c 0,-1.718184 -0.56238,-2.423857 -2.10699,-2.643878 -2.29636,-0.327105 -3.60061,1.683381 -2.67008,4.115884 0.33776,0.882938 1.40627,1.351894 2.67008,1.171875 1.54461,-0.220022 2.10699,-0.925697 2.10699,-2.643881 z m -3.27103,0 c 0,-0.515625 0.42056,-0.9375 0.93458,-0.9375 0.51402,0 0.93458,0.421875 0.93458,0.9375 0,0.515625 -0.42056,0.9375 -0.93458,0.9375 -0.51402,0 -0.93458,-0.421875 -0.93458,-0.9375 z"
       id="path3862"
       inkscape:connector-curvature="0" />
    <path
       style="fill:#0000fe"
       d="m 427.57009,230.44464 c -1.14963,-2.66119 -4.71749,-3.30647 -6.97095,-1.26076 -1.54683,1.40425 -1.72168,1.40427 -2.25875,3e-4 -0.32017,-0.83696 -0.32709,-3.70283 -0.0153,-6.36859 1.11389,-9.52576 -2.82742,-16.554 -7.78938,-13.89014 -1.75981,0.94476 -1.88802,0.57124 -2.6217,-7.63793 -1.22202,-13.6734 -1.08316,-16.37293 0.93784,-18.23172 1.3648,-1.25527 1.52264,-1.2858 0.66033,-0.12775 -2.34392,3.14779 1.87777,7.42247 5.44114,5.50945 1.02804,-0.55191 1.86916,-1.48081 1.86916,-2.06423 0,-0.58343 0.31542,-0.74437 0.70093,-0.35765 0.38552,0.38671 0.73384,6.89061 0.77405,14.45312 l 0.0731,13.75001 2.73729,2.90227 c 3.44735,3.65514 8.09224,12.12889 7.69637,14.04063 -0.21691,1.04752 -0.55723,0.84978 -1.23409,-0.71701 z m -52.50004,-49.28782 c 3.12994,-3.53907 1.61255,-7.46964 -3.51066,-9.09378 -1.60456,-0.50868 -1.41985,-0.89079 1.66263,-3.43957 1.90725,-1.57704 4.2598,-4.40856 5.22787,-6.29228 0.96808,-1.88372 3.26136,-4.8714 5.09618,-6.6393 3.15777,-3.0426 3.47427,-3.14486 5.92302,-1.91378 4.91422,2.47056 5.15987,2.87982 3.06882,5.11261 -1.05428,1.12573 -1.84278,2.85538 -1.75222,3.84366 0.35228,3.8443 -0.32793,4.91061 -6.16104,9.65806 -3.31626,2.69903 -6.28866,5.72627 -6.60535,6.72719 -0.31669,1.00092 -1.49358,2.30267 -2.61531,2.89278 -2.00004,1.05216 -2.00651,1.0356 -0.33394,-0.85559 z m -265.1992,-6.00891 c 0.36915,-1.04274 -0.25402,-2.10331 -1.85364,-3.15469 -2.2374,-1.47059 -2.57683,-1.47404 -4.74618,-0.0482 -3.1157,2.04786 -2.94842,1.03292 0.47426,-2.87748 1.54589,-1.76618 4.03493,-5.64398 5.53121,-8.61736 2.99965,-5.96084 5.67677,-8.96387 5.67677,-6.36786 0,1.81094 4.1973,4.76067 5.56637,3.91189 1.58235,-0.981 1.11874,2.12431 -0.87653,5.87125 -2.04587,3.84195 -10.65836,13.78537 -9.77226,11.28243 z m 217.38191,-25.84735 -4.01673,-2.37954 4.00966,-4.09833 4.00968,-4.09832 3.76483,3.86818 c 2.47738,2.5454 3.35354,4.02312 2.56208,4.32124 -0.66151,0.24918 -2.35251,1.42353 -3.75777,2.60968 l -2.55502,2.15662 -4.01673,-2.37953 z m -147.81351,-0.74563 c -5.91122,-1.17305 -10.94638,-2.17154 -11.18926,-2.21887 -0.24287,-0.0473 0.52679,-0.76646 1.71037,-1.59807 1.61118,-1.13204 2.00995,-2.07958 1.58686,-3.77058 -0.83687,-3.34478 1.61642,-3.77773 7.51341,-1.32592 2.77668,1.15446 6.74486,2.32727 8.81819,2.60622 3.59091,0.48315 3.69594,0.58894 2.21477,2.23072 -1.44747,1.60444 -1.44804,1.88712 -0.008,4.0913 0.85063,1.30227 1.22148,2.31158 0.82412,2.24289 -0.39737,-0.0687 -5.55893,-1.08464 -11.47014,-2.25769 z m 137.84883,-8.02868 c -3.48063,-3.73269 -4.17737,-4.96771 -3.16527,-5.61063 2.0685,-1.31403 3.43711,-0.9871 3.29671,0.7875 -0.11016,1.39232 0.84687,1.68309 6.32336,1.92115 l 6.45316,0.28052 -3.60545,3.70385 c -1.983,2.03713 -3.88311,3.70386 -4.22247,3.70386 -0.33936,0 -2.62538,-2.15381 -5.08004,-4.78625 z m 3.65245,-8.11873 c -0.73282,-0.49384 -0.69923,-1.46836 0.11869,-3.44333 l 1.14076,-2.75456 1.51684,2.94238 c 0.83425,1.61831 1.51682,3.17427 1.51682,3.45768 0,0.74986 -3.09677,0.60403 -4.29311,-0.20217 z m -91.96857,-8.62187 c -4.16669,-2.23743 -10.28038,-7.88121 -10.28038,-9.49022 0,-0.95895 0.24923,-0.98293 1.1215,-0.10793 1.70343,1.70875 4.59409,1.34995 6.94076,-0.86151 l 2.10795,-1.98651 2.43542,1.92169 c 1.33948,1.05693 3.61525,2.18163 5.05727,2.49934 2.09509,0.4616 2.54178,0.99787 2.22328,2.66913 -0.5837,3.06298 2.68846,5.81036 5.26972,4.4246 1.07081,-0.57487 1.94691,-0.67621 1.94691,-0.22521 0,3.09777 -11.70837,3.90278 -16.82243,1.15662 z M 107.23133,95.094066 c -1.29504,-2.028299 -3.85295,-5.122707 -5.68422,-6.876462 l -3.329598,-3.188645 1.825818,-2.32841 c 1.00421,-1.280625 1.82583,-3.122383 1.82583,-4.092795 0,-1.41364 1.2326,-0.792697 6.20045,3.123585 C 116.63,88.479715 119.65854,93.75 114.97606,93.75 c -0.95483,0 -2.55821,1.132172 -3.56307,2.515941 l -1.82703,2.51594 -2.35463,-3.687815 z m 33.61785,-6.974878 c -0.62072,-2.3811 -3.24511,-3.396096 -5.3582,-2.072322 -2.2263,1.394692 -2.79102,0.578187 -2.72327,-3.937491 0.0919,-6.124155 2.24843,-17.195708 2.98261,-15.3125 1.24398,3.190831 5.62126,0.818756 6.48752,-3.515625 0.20611,-1.03125 0.40666,4.355708 0.44567,11.971016 0.0651,12.724468 -0.61948,17.527047 -1.83433,12.866922 z"
       id="path3860"
       inkscape:connector-curvature="0" />
    <path
       style="fill:#fe0000"
       d="m 123.68371,217.988 c -19.01738,-3.46168 -35.686413,-12.42528 -48.738426,-26.20859 -8.030112,-8.48004 -11.540838,-13.58386 -16.191155,-23.53839 -6.164265,-13.19531 -7.656682,-20.31411 -7.656682,-36.52227 0,-16.20816 1.492417,-23.32696 7.656682,-36.522272 4.650317,-9.954523 8.161043,-15.05835 16.191155,-23.538387 6.768968,-7.148232 20.382995,-17.321819 20.380144,-15.229823 -9.16e-4,0.67539 -1.998581,2.487822 -4.43925,4.027627 -6.732311,4.247377 -19.104989,16.602384 -24.089917,24.055513 -5.063217,7.57018 -9.657514,17.942122 -12.190046,27.519842 -2.43324,9.20222 -2.43324,30.17278 0,39.375 6.836312,25.8541 23.56057,46.21078 47.329875,57.60969 13.14996,6.30625 20.51752,7.85762 37.31624,7.85762 17.01031,0 24.27148,-1.56387 37.85047,-8.15201 7.39963,-3.59009 20.09346,-12.07681 20.09346,-13.4339 0,-0.27001 -1.0514,-0.22621 -2.33645,0.0973 -4.1697,1.04981 -2.50834,-1.25828 2.77762,-3.85886 5.49647,-2.70414 7.01738,-2.45107 5.39181,0.89718 -0.56287,1.15938 -1.39587,3.34721 -1.85109,4.86187 -0.93233,3.10208 -2.72992,4.20424 -3.20247,1.96354 -0.24059,-1.14082 -1.59737,-0.51142 -5.91961,2.74611 -18.77562,14.15054 -44.91061,20.26386 -68.37236,15.99319 z m 184.26021,-68.00214 c -3.04933,-1.35859 -5.83247,-4.05979 -6.50551,-6.31399 -0.84101,-2.8168 1.15657,-2.78221 2.22568,0.0385 1.36687,3.60637 3.66924,4.82506 8.97041,4.74819 7.78735,-0.11292 13.93716,-4.8635 20.45676,-15.80235 3.67668,-6.16888 4.39377,-11.48264 1.88871,-13.99553 -1.86165,-1.86747 -3.31066,-1.90468 -2.60767,-0.0669 0.43021,1.12459 -0.32441,1.40625 -3.76764,1.40625 -2.36809,-3e-5 -4.3056,-0.23911 -4.3056,-0.53133 0,-0.29222 1.10132,-1.97972 2.44737,-3.75 2.49343,-3.27927 4.73075,-4.35868 3.75671,-1.81245 -0.35764,0.93494 0.0365,1.40625 1.17585,1.40625 0.94258,0 2.82191,0.87437 4.17627,1.94304 1.94825,1.53728 2.46249,2.74951 2.46249,5.80484 0,8.43107 -14.20431,25.9512 -22.1007,27.25983 -4.55968,0.75566 -5.95304,0.69935 -8.27313,-0.33435 z m -78.03738,-13.5673 c -0.77103,-0.19591 -2.96659,-0.61202 -4.87903,-0.92469 -3.44469,-0.56317 -9.13966,-4.47973 -9.13966,-6.28555 0,-0.51562 1.26368,0.12914 2.80817,1.43282 3.23915,2.73408 8.99238,3.94325 17.89789,3.76166 6.51148,-0.13278 11.82036,-2.3111 18.07898,-7.41813 2.65353,-2.16528 2.69108,-2.2881 0.70094,-2.29251 -1.15654,-0.003 -2.10281,-0.39047 -2.10281,-0.86201 0,-0.90063 8.45858,-5.97014 9.02061,-5.40635 0.17883,0.17939 -0.15346,2.7168 -0.73843,5.63868 -1.03486,5.16904 -2.22706,6.79415 -2.83982,3.871 -0.23015,-1.09797 -2.02867,-0.30293 -7.54643,3.3359 -6.58349,4.34165 -7.81956,4.81063 -13.5514,5.1414 -3.46893,0.20018 -6.93798,0.20369 -7.70901,0.008 z"
       id="path3858"
       inkscape:connector-curvature="0" />
    <path
       style="fill:#000000"
       d="m 59.12537,265.54781 20.340325,-0.27195 -0.494552,-2.09105 C 78.699141,262.03473 75.774124,247.80469 72.471106,231.5625 69.168088,215.32031 65.757223,198.86719 64.891406,195 c -2.80949,-12.54863 -2.808849,-12.1875 -0.02164,-12.1875 2.263871,0 2.447484,0.28699 2.249303,3.51562 -0.258271,4.20756 1.914259,15.9834 3.082393,16.7076 0.454612,0.28184 0.834149,-0.0399 0.843414,-0.71476 0.0093,-0.67497 1.796648,-2.64104 3.971962,-4.36904 l 3.955118,-3.14184 -3.271028,3.23804 c -4.342745,4.29895 -5.82245,6.98304 -5.10308,9.25666 0.533849,1.68727 1.094148,1.39979 5.595958,-2.87114 2.75149,-2.61037 5.249357,-4.74614 5.550815,-4.74614 0.301458,0 -1.974589,2.42578 -5.057882,5.39062 l -5.605986,5.39063 1.212256,5.15625 1.212257,5.15625 31.938949,0.24668 c 21.1073,0.16303 31.93896,-0.0754 31.93896,-0.70312 0,-0.52239 0.63084,-0.94981 1.40186,-0.94981 1.20797,0 1.40187,3.17708 1.40187,22.96875 l 0,22.96875 131.0836,0 c 130.07145,0 131.09261,-0.0144 132.25091,-1.875 0.65991,-1.05998 2.17946,-1.875 3.49583,-1.875 2.31815,0 2.32827,-0.0386 2.26869,-8.67188 -0.10295,-14.91561 -1.45888,-30.84396 -2.69068,-31.60763 -0.62584,-0.38799 -4.78278,-0.98649 -9.23765,-1.32999 -6.25426,-0.48224 -8.51951,-1.04561 -9.94201,-2.47256 -1.73327,-1.73868 -1.74835,-1.9422 -0.2548,-3.44041 1.49259,-1.49726 1.78588,-1.49748 4.90858,-0.004 3.95589,1.89234 10.82718,2.24431 9.05211,0.46369 -0.61682,-0.61875 -1.1215,-2.72812 -1.1215,-4.6875 0,-4.00072 2.55416,-7.3125 5.63967,-7.3125 1.76373,0 1.84829,-0.35624 1.16822,-4.92187 -1.14483,-7.68595 -0.85676,-12.69964 0.82674,-14.3884 1.39148,-1.39583 1.37108,-1.65588 -0.25812,-3.29017 -2.48601,-2.49378 -2.38085,-8.66082 0.19169,-11.24141 1.48483,-1.48947 2.7891,-1.86753 5.37383,-1.55766 1.87722,0.22505 4.14015,-0.0404 5.02875,-0.58997 1.15299,-0.71302 2.42305,-0.69342 4.43521,0.0684 1.64911,0.62441 3.03813,0.71285 3.34606,0.21305 0.82452,-1.33827 4.15726,-1.00066 4.72308,0.47847 0.71007,1.85619 -1.00416,4.78252 -6.6331,11.32325 l -4.84087,5.625 0.13599,14.53125 0.136,14.53125 3.50038,4.59438 c 4.219,5.5376 7.13301,11.07937 7.13301,13.56534 0,1.61116 -1.76688,4.11839 -9.983,14.16592 l -2.03907,2.49359 4.15768,6.96539 c 2.28673,3.83096 3.98338,7.68939 3.77036,8.57427 -0.34321,1.42565 0.69278,1.64338 9.09634,1.91166 5.21602,0.16653 -81.77801,0.29494 -193.32006,0.28538 -111.54205,-0.01 -193.650588,-0.13974 -182.46341,-0.28932 z m 78.25781,-21.32906 0,-21.09375 -31.87702,0 -31.877017,0 0.647261,2.57812 c 0.630175,2.51007 7.966585,38.70941 7.966585,39.30875 0,0.16535 12.406542,0.30063 27.570091,0.30063 l 27.5701,0 0,-21.09375 z m 278.23472,9.60769 c 0.10854,-6.31548 0.65919,-17.04 1.22365,-23.83228 0.73747,-8.87407 0.74182,-13.40939 0.0154,-16.11534 -1.12565,-4.19343 -3.46472,-5.54947 -6.63582,-3.84705 -1.96577,1.05535 -1.98575,1.31676 -1.20352,15.75506 0.43747,8.07506 0.79542,19.52855 0.79542,25.45221 l 0,10.77029 -2.72664,0.47971 c -1.49965,0.26384 -2.90152,1.00705 -3.11527,1.65158 -0.28363,0.8553 1.2104,1.17142 5.53039,1.17019 l 5.919,-0.002 0.19734,-11.4827 z m 9.27629,10.08368 c 0.29505,-0.7713 -1.34167,-4.59932 -3.63718,-8.5067 l -4.17363,-7.10432 -0.63225,3.96618 c -0.55346,3.47206 -0.32505,4.28781 1.83345,6.54784 2.45848,2.57412 2.45994,2.58475 0.50176,3.63601 -3.07705,1.65193 -2.31393,2.86337 1.80373,2.86337 2.48226,0 3.95068,-0.47844 4.30412,-1.40238 z m -6.83929,-4.41038 c -0.97947,-1.08568 -1.79269,-1.40758 -1.99766,-0.79075 -0.63002,1.89596 0.65014,3.77645 2.17202,3.19063 1.31985,-0.50806 1.30124,-0.76427 -0.17436,-2.39988 z m 6.47236,-20.63335 c 5.05631,-6.07241 5.24555,-8.48654 1.19715,-15.27264 -1.84563,-3.09375 -4.26331,-6.39062 -5.3726,-7.32638 -1.89433,-1.59799 -2.02027,-2.54752 -2.07221,-15.62501 -0.0305,-7.65799 -0.37073,-14.24003 -0.75624,-14.62674 -0.38552,-0.38672 -0.70094,-0.22578 -0.70094,0.35765 0,1.51785 -3.33238,3.09915 -5.09845,2.41932 -2.44889,-0.94267 -3.62953,-3.97477 -2.26058,-5.80564 1.00833,-1.34857 0.91851,-1.33846 -0.61159,0.0688 -2.01995,1.85783 -2.15986,4.56336 -0.94073,18.1909 0.75489,8.4383 0.80542,8.57357 2.85255,7.63792 3.04318,-1.39089 5.82014,0.47671 6.9096,4.64695 1.00691,3.85429 0.85725,21.31754 -0.19171,22.36979 -0.3625,0.36362 -0.64397,3.22755 -0.62548,6.36427 l 0.0336,5.70312 2.06919,-2.44997 c 1.13806,-1.34747 3.64385,-4.34105 5.56843,-6.65238 z m -5.83568,-6.94999 c 0,-1.57992 3.23532,-4.1039 5.26051,-4.1039 2.23138,0 4.1067,1.7249 4.02604,3.70312 -0.0364,0.89138 -0.38598,0.63769 -0.90446,-0.65625 -1.11819,-2.7906 -4.98664,-2.805 -6.92723,-0.0258 -0.80017,1.14598 -1.45486,1.63324 -1.45486,1.0828 z m -11.21495,-14.0397 c 0,-2.42883 -0.0163,-2.4339 -5.69597,-1.77265 -4.49715,0.52359 -6.47067,0.31272 -9.3768,-1.00185 -2.81752,-1.2745 -3.93815,-1.40688 -4.77799,-0.56441 -2.15517,2.1619 1.31878,3.77641 10.03767,4.66495 4.62617,0.47146 8.72664,0.91402 9.11215,0.98348 0.38552,0.0695 0.70094,-0.96983 0.70094,-2.30952 z m 0,-4.75601 c 0,-2.1613 -2.73343,-4.99569 -4.81775,-4.99569 -1.27031,0 -1.72431,0.69937 -1.72431,2.65625 0,3.32382 0.58062,3.90625 3.89409,3.90625 1.8513,0 2.64797,-0.47139 2.64797,-1.56681 z m 7.01762,-25.40067 c 0.51857,-0.37882 3.71873,-3.85283 7.11147,-7.72002 8.42794,-9.60653 10.15546,-13.125 6.4442,-13.125 -1.21309,0 -2.29862,1.06117 -3.13182,3.06152 -1.37229,3.29464 -6.01317,7.78372 -11.9022,11.51292 -4.05516,2.56791 -4.36514,3.34443 -2.20149,5.51484 1.62992,1.63501 2.29049,1.77068 3.67984,0.75574 z m -0.92876,-7.7429 c 1.16662,-1.89353 -0.56868,-6.27855 -2.90771,-7.34761 -1.28398,-0.58686 -2.73529,-1.06701 -3.22512,-1.06701 -1.46709,0 -1.00525,6.31358 0.57801,7.90178 1.66625,1.67145 4.67013,1.94879 5.55482,0.51284 z m 9.25875,-10.9278 c -3.1241,-2.29155 -4.47461,-1.17606 -4.56733,3.77244 l -0.0851,4.53756 3.20621,-3.5095 c 3.06445,-3.35435 3.12838,-3.56659 1.44614,-4.8005 z m -285.79391,4.1538 C 136.61775,126.20954 136.568,123.75 136.03005,123.75 c -0.18881,0 -3.76381,5.86901 -7.94444,13.04225 -4.18063,7.17323 -8.63539,13.72202 -9.89945,14.55286 -1.26407,0.83084 -2.29831,2.11886 -2.29831,2.86227 0,1.65281 3.14399,3.46842 4.83884,2.79435 1.20329,-0.47857 6.48832,-10.84111 11.59176,-22.72837 1.3891,-3.23558 2.69102,-5.71699 2.89315,-5.51421 0.20214,0.20276 -1.1654,3.69381 -3.03897,7.75788 -2.24403,4.86765 -3.37153,8.64388 -3.30402,11.06589 0.10505,3.76887 -1.88067,7.10458 -4.2293,7.10458 -0.68156,0 -1.48108,1.16016 -1.77669,2.57812 -1.09349,5.24524 -4.20043,10.26514 -10.77084,17.40258 -5.48033,5.95329 -20.490879,18.98843 -27.045053,23.4859 -3.425472,2.35055 1.873859,-2.30796 10.747664,-9.44802 10.350669,-8.32836 12.105989,-10.09496 13.018489,-13.10211 0.85266,-2.80999 -2.28764,-4.58823 -5.30821,-3.00584 -1.15654,0.60587 -6.939251,5.78869 -12.850466,11.51735 l -10.747663,10.41577 9.813084,-10.41543 c 11.675105,-12.39173 15.206765,-16.88554 18.694305,-23.78724 1.43752,-2.84478 3.67981,-6.16925 4.98286,-7.38771 2.04627,-1.91341 2.32472,-2.86057 2.0429,-6.94903 -0.21259,-3.08412 -0.84271,-5.02357 -1.80825,-5.5656 -1.8696,-1.04955 -4.64549,-6.33206 -3.75932,-7.15399 0.36528,-0.3388 0.88626,0.0168 1.15773,0.79025 0.27146,0.77344 1.61845,2.46157 2.9933,3.75142 2.10116,1.97122 3.23446,2.29545 7.10772,2.03341 4.20716,-0.28463 4.77419,-0.61094 6.51886,-3.75141 1.05098,-1.89182 3.23498,-5.7667 4.85332,-8.61084 l 2.94245,-5.17115 -13.48547,-11.98318 C 114.54301,103.74 107.30376,96.605887 105.87278,94.477172 103.56846,91.049231 93.446647,81.403208 82.671273,72.36626 c -2.034621,-1.706369 -1.175947,-1.178917 1.908165,1.172117 3.084112,2.351034 7.16065,5.59447 9.058971,7.207636 3.898066,3.312514 5.988393,3.103223 6.938651,-0.694723 0.90069,-3.599849 -0.25565,-4.933646 -8.808864,-10.1607 -4.17652,-2.552362 -7.457275,-4.777484 -7.290566,-4.944714 0.166709,-0.16723 3.162752,1.438669 6.657872,3.568663 8.785664,5.354156 23.750628,17.459645 25.577108,20.689888 0.85686,1.515405 2.05085,2.469814 2.75635,2.203286 0.68456,-0.258617 2.51753,-0.470213 4.07328,-0.470213 2.61821,0 2.7809,-0.191777 2.1872,-2.578125 -0.35279,-1.417969 -1.30701,-3.318993 -2.12052,-4.224498 -2.18838,-2.43589 -0.73603,-3.065504 1.61988,-0.702236 1.19698,1.200721 2.19081,3.620007 2.43909,5.937501 0.23046,2.151109 0.6588,5.233752 0.95186,6.85032 0.6552,3.6141 -0.85491,6.673868 -3.49102,7.073438 -1.72856,0.26201 -1.25505,1.06879 3.7525,6.3936 l 5.73068,6.09375 -0.36108,-10.3125 c -0.1986,-5.671875 -0.89267,-13.40573 -1.5424,-17.186345 -0.87918,-5.115785 -0.9315,-8.472644 -0.20456,-13.125 0.65021,-4.161334 0.72458,-16.437146 0.22245,-36.719905 -0.41487,-16.757813 -0.56338,-30.7851563 -0.33002,-31.171875 1.82562,-3.0253708 6.85603,7.275759 6.85603,14.039588 0,6.038881 1.70585,24.311182 3.21858,34.476037 0.69062,4.640625 1.19523,13.576193 1.12135,19.856819 -0.13109,11.145003 -0.0838,11.429014 1.96738,11.822909 1.15595,0.221975 2.83819,-0.157208 3.73832,-0.842628 2.57799,-1.963038 4.8674,-1.534095 5.86535,1.098931 1.15835,3.056191 1.15222,4.157719 -0.0231,4.157719 -0.51401,0 -0.93458,-0.581156 -0.93458,-1.291458 0,-0.710302 -0.57503,-1.770192 -1.27786,-2.35531 -1.82691,-1.520933 -3.63912,0.93856 -2.89193,3.924871 0.34716,1.387543 -0.0249,3.512744 -0.91834,5.245928 -1.28659,2.495766 -2.01881,2.913469 -5.10724,2.913469 -4.34596,0 -4.72658,0.92119 -4.74514,11.48437 -0.0109,6.23321 0.27775,7.55704 2.03164,9.31641 1.31578,1.3199 1.64887,2.18304 0.93458,2.42187 -0.61041,0.20411 -1.10982,0.80295 -1.10982,1.33077 0,0.52783 0.60368,0.72731 1.34149,0.4433 0.73782,-0.28401 1.4738,-0.20329 1.63551,0.1794 0.16172,0.38268 5.20978,3.1759 11.21791,6.20716 9.2755,4.67973 11.74344,5.53279 16.35514,5.65327 2.9872,0.078 6.7108,0.81261 8.27469,1.63238 1.5639,0.81978 5.34894,1.92802 8.41122,2.46277 8.71863,1.52246 41.69034,3.993 49.12762,3.68108 8.29724,-0.34799 9.28955,1.05918 2.99763,4.25087 -4.16316,2.11183 -5.94812,2.33495 -23.75534,2.96933 -18.4297,0.65657 -19.80998,0.58004 -32.24299,-1.78768 -7.14397,-1.36048 -14.17211,-2.85969 -15.61807,-3.33158 -2.0984,-0.68481 -2.98961,-0.49628 -4.41549,0.93406 -0.98254,0.98561 -2.82641,2.05385 -4.09748,2.37387 -1.27106,0.32002 -2.9737,1.59637 -3.78363,2.83635 -1.66781,2.55334 -3.96569,2.87422 -6.62325,0.9249 -2.3698,-1.73826 -1.17771,-2.91488 1.3493,-1.33181 1.64185,1.02855 2.18173,0.98109 3.46325,-0.30443 1.4012,-1.40558 1.35019,-1.75087 -0.66193,-4.48091 -2.10206,-2.85208 -2.1285,-3.10196 -0.73864,-6.9791 l 1.44148,-4.0211 -6.36878,-3.9588 c -3.50283,-2.17734 -6.79076,-3.69718 -7.3065,-3.37744 -0.60546,0.37536 -0.93772,16.00836 -0.93772,44.11977 0,37.82362 -0.18164,43.53842 -1.38383,43.53842 -1.19705,0 -1.43633,-5.97912 -1.77275,-44.29688 z m -17.38722,-9.33765 c 1.99527,-3.74693 2.45888,-6.85224 0.87653,-5.87124 -1.36907,0.84878 -5.56637,-2.10096 -5.56637,-3.91189 0,-2.59601 -2.67712,0.40702 -5.67677,6.36786 -1.49628,2.97338 -3.98532,6.85118 -5.53121,8.61736 -3.42268,3.9104 -3.58996,4.92534 -0.47426,2.87748 2.16935,-1.42586 2.50878,-1.42241 4.74618,0.0482 1.59962,1.05139 2.22279,2.11196 1.85364,3.1547 -0.8861,2.50294 7.72639,-7.44049 9.77226,-11.28244 z m 7.27278,-11.24047 c 0.61682,-0.61875 1.11992,-2.20078 1.118,-3.51563 -0.004,-2.33665 -0.0456,-2.32131 -1.86916,0.67891 -1.02612,1.68824 -1.86567,3.27028 -1.86567,3.51563 0,0.83614 1.49251,0.44892 2.61683,-0.67891 z m 112.95231,-3.83391 c 2.23137,-1.08747 4.05703,-2.35784 4.05703,-2.82305 0,-0.48168 -2.71595,-0.57367 -6.30841,-0.21367 -3.68359,0.36914 -14.1434,-0.0163 -25.13875,-0.92628 -14.16965,-1.17272 -19.31645,-1.29748 -20.79439,-0.50403 -2.46531,1.32351 -2.45623,1.98292 0.0717,5.20665 l 2.0357,2.59606 21.01008,-0.67923 c 18.63016,-0.60229 21.46963,-0.9032 25.0671,-2.65645 z m -49.78292,-0.22136 c -1.43973,-2.20418 -1.43916,-2.48686 0.008,-4.0913 1.48117,-1.64178 1.37614,-1.74757 -2.21478,-2.23072 -2.07332,-0.27895 -6.04151,-1.45176 -8.81818,-2.60622 -5.89699,-2.45181 -8.35028,-2.01886 -7.51342,1.32592 0.4231,1.691 0.0243,2.63854 -1.58686,3.77058 -1.18357,0.83161 -1.95324,1.55074 -1.71037,1.59807 0.24288,0.0473 5.27805,1.04582 11.18926,2.21887 5.91122,1.17305 11.07278,2.18901 11.47014,2.2577 0.39737,0.0687 0.0265,-0.94063 -0.82411,-2.2429 z m -20.52321,-4.50054 c 2.58302,-1.89464 1.10767,-4.98732 -3.01794,-6.32632 -1.90301,-0.61763 -7.92938,-3.38588 -13.39192,-6.15167 -5.46255,-2.76578 -10.40414,-5.0287 -10.98131,-5.0287 -1.92508,0 -1.08061,1.45 1.52069,2.6111 3.25462,1.45271 13.53336,8.55867 16.86137,11.65669 2.42178,2.25443 5.68335,4.3932 6.79178,4.4537 0.28727,0.0157 1.28507,-0.53098 2.21733,-1.2148 z m -9.74899,-2.45353 c 0,-0.48639 -0.94407,-1.54766 -2.09794,-2.35839 -2.35083,-1.65173 -3.46226,-0.36562 -1.6143,1.868 1.27,1.53504 3.71224,1.85766 3.71224,0.49039 z M 141.12149,121.9753 c 0,-0.46046 -0.63084,-1.08003 -1.40187,-1.37683 -1.90308,-0.73256 -1.89398,-13.28761 0.0164,-22.565051 C 141.32975,90.29341 140.5696,86.25 137.52075,86.25 c -3.3247,0 -4.29447,2.388555 -3.0918,7.615097 0.59679,2.5935 1.08507,9.925763 1.08507,16.293933 0,10.2388 0.18923,11.6281 1.63551,12.00722 2.80042,0.73412 3.97196,0.6778 3.97196,-0.19095 z m -13.50897,-12.56142 c -3.90606,-4.28128 -7.82663,-9.24068 -8.71237,-11.020893 -2.07959,-4.179675 -5.34226,-4.836778 -6.90732,-1.391118 -0.89592,1.972453 -0.8527,2.68784 0.2246,3.718051 0.73368,0.70161 5.96014,5.38634 11.61434,10.4105 7.40617,6.5809 10.36457,8.70606 10.58154,7.60123 0.17274,-0.87966 -2.72722,-4.8529 -6.80079,-9.31777 z m -3.31346,-9.525158 c 0,-2.002013 -1.54377,-3.326222 -3.87774,-3.326222 -0.52318,0 -0.64262,0.911259 -0.27646,2.109375 1.43663,4.700855 4.1542,5.496885 4.1542,1.216847 z m 21.49533,-2.742684 c 0,-2.536004 -2.46775,-5.085344 -3.65726,-3.77818 -0.42587,0.467989 -1.04691,2.011048 -1.38007,3.429017 -0.5586,2.377378 -0.38606,2.578125 2.21579,2.578125 2.34784,0 2.82154,-0.374212 2.82154,-2.228963 z M 114.97606,93.75 c 4.68248,0 1.65394,-5.270285 -6.90645,-12.018661 -4.96785,-3.916282 -6.20045,-4.537225 -6.20045,-3.123585 0,0.970412 -0.82162,2.81217 -1.82583,4.092795 l -1.825818,2.32841 3.329598,3.188645 c 1.83127,1.753755 4.38918,4.848163 5.68422,6.876462 l 2.35463,3.687815 1.82703,-2.51594 C 112.41785,94.882172 114.02123,93.75 114.97606,93.75 Z m 27.62352,-21.005473 c -0.16143,-8.947292 -0.57039,-16.7172 -0.90879,-17.266463 C 140.96111,54.293726 138.3245,27.675532 138.32052,21.453143 138.31786,17.283253 135.0449,7.5 133.65254,7.5 c -0.72863,0 -0.25471,46.74087 0.53706,52.96875 0.64132,5.044347 2.70487,7.79964 4.83298,6.453072 0.87401,-0.553038 1.87217,-2.020283 2.21815,-3.260547 0.49487,-1.774081 0.64889,-1.870876 0.72218,-0.453845 0.10943,2.115798 -2.44306,5.23007 -4.28662,5.23007 -0.7075,0 -1.57418,-0.738281 -1.92597,-1.640625 -0.73418,-1.883208 -2.89073,9.188345 -2.98261,15.3125 -0.0678,4.515678 0.49697,5.332183 2.72327,3.937491 2.11309,-1.323774 4.73748,-0.308779 5.3582,2.072321 0.26665,1.022849 0.83561,1.642244 1.26436,1.376433 0.42876,-0.265809 0.64747,-7.803802 0.48604,-16.751093 z M 330.91419,201.81037 c -1.31285,-1.0664 -1.84054,-2.23535 -1.45916,-3.23234 0.3286,-0.85898 5.50621,-4.80786 11.50579,-8.77528 27.73215,-18.33877 35.67469,-24.0835 35.67469,-25.80302 0,-0.4811 -2.89734,-0.87473 -6.43853,-0.87473 -4.98397,0 -6.93695,-0.40992 -8.64486,-1.81452 -2.11083,-1.73597 -2.13488,-1.88737 -0.55571,-3.4973 1.37193,-1.39865 1.96153,-1.48801 3.49199,-0.52923 1.01275,0.63446 3.44397,1.15355 5.4027,1.15355 2.94027,0 4.20558,-0.66729 7.25567,-3.82646 3.27149,-3.38849 4.08234,-3.77604 7.08424,-3.38591 2.8862,0.37511 3.32601,0.1955 2.95995,-1.2087 -0.61793,-2.37033 4.97038,-8.45393 7.76566,-8.45393 2.5746,0 5.97795,3.01827 5.97795,5.30155 0,1.39372 0.19072,1.37841 1.87489,-0.1505 1.03119,-0.93613 2.1501,-1.42598 2.48649,-1.08855 0.74327,0.7456 -2.37313,4.35978 -3.80529,4.4131 -0.56285,0.021 -2.46574,1.27509 -4.22863,2.78698 -3.03623,2.60393 -3.12248,2.84064 -1.63551,4.48885 2.06286,2.28656 1.98152,6.21919 -0.29942,14.47597 -1.02804,3.72139 -1.86916,8.55277 -1.86916,10.7364 0,3.07816 -0.44253,4.2078 -1.9695,5.02757 -3.25082,1.74522 -3.77459,0.0371 -2.75331,-8.97894 0.51748,-4.5684 0.79951,-8.44799 0.62672,-8.62131 -0.64407,-0.64609 -9.43682,7.29848 -10.65149,9.62401 -0.69418,1.32903 -3.0409,3.18125 -5.21494,4.11606 -4.05159,1.74215 -19.13973,10.28736 -25.52917,14.45853 -1.96556,1.28316 -5.46626,2.81144 -7.77934,3.3962 -2.31308,0.58475 -4.88297,1.25878 -5.71086,1.49783 -0.8279,0.23907 -2.43073,-0.31709 -3.56186,-1.23588 z m 9.27272,-1.20448 c 2.31308,-0.58751 6.72897,-2.66606 9.81308,-4.61898 3.08412,-1.95293 9.46025,-5.74687 14.16919,-8.43098 10.08227,-5.74694 11.77918,-7.38719 11.36816,-10.98865 -0.47649,-4.17495 -3.48065,-3.89634 -9.80133,0.90902 -3.00061,2.28123 -7.97901,5.72835 -11.06312,7.66024 -3.08411,1.93191 -7.92056,5.08306 -10.74766,7.00257 -6.09719,4.13979 -7.47664,4.96782 -7.47664,4.48795 0,-0.35623 3.73852,-2.91002 22.2939,-15.229 5.32238,-3.53356 10.11952,-7.13534 10.6603,-8.00397 1.00755,-1.61838 3.80067,-1.48316 6.06449,0.29361 1.68701,1.32406 1.435,5.39401 -0.46729,7.54677 -1.58383,1.79237 -1.57106,1.81695 0.404,0.77794 1.12173,-0.59011 2.29862,-1.89186 2.61531,-2.89278 0.31669,-1.00092 3.28909,-4.02815 6.60535,-6.72719 5.83311,-4.74745 6.51332,-5.81376 6.16104,-9.65806 -0.0906,-0.98828 0.69794,-2.71793 1.75222,-3.84366 2.09105,-2.23279 1.8454,-2.64205 -3.06882,-5.11261 -2.44875,-1.23108 -2.76525,-1.12882 -5.92302,1.91378 -1.83482,1.7679 -4.13031,4.75993 -5.10109,6.64897 -2.16327,4.20948 -6.35927,7.66711 -21.43564,17.66357 -6.42523,4.26029 -14.92292,9.90448 -18.88374,12.54265 -3.96083,2.63817 -7.45334,5.41835 -7.76115,6.17819 -0.67724,1.67181 2.14068,3.94874 4.16596,3.36618 0.79799,-0.22954 3.34342,-0.89804 5.6565,-1.48556 z m 50.85814,-13.67494 c 1.02045,-0.39281 1.47831,-1.77786 1.47831,-4.47197 0,-2.14661 0.84112,-6.94769 1.86916,-10.66908 2.2157,-8.0206 2.44799,-13.3524 0.58172,-13.3524 -1.87059,0 -3.22629,1.99794 -3.18071,4.6875 0.0219,1.28906 -0.40331,4.66406 -0.94481,7.5 -1.24016,6.49493 -2.29768,16.875 -1.71923,16.875 0.24048,0 1.10249,-0.25607 1.91556,-0.56905 z m -13.81059,-24.45512 c -0.35592,-0.35705 1.55728,-2.8883 4.25157,-5.625 l 4.89871,-4.97583 -2.81578,0 c -2.05364,0 -3.80384,1.01501 -6.46616,3.75 -2.99653,3.07831 -4.28826,3.75 -7.2117,3.75 -1.95873,0 -4.38625,-0.51678 -5.39448,-1.1484 -1.44653,-0.9062 -2.0746,-0.9062 -2.97797,0 -2.06997,2.07644 0.80875,3.46355 8.38439,4.04001 3.95987,0.30132 7.37499,0.61772 7.58917,0.70312 0.21417,0.0854 0.0982,-0.13686 -0.25775,-0.4939 z m 18.61194,-11.70275 c 0.39507,-1.24863 -0.11291,-2.62247 -1.52858,-4.13409 -2.6503,-2.82993 -3.25347,-2.82595 -5.12145,0.0338 -1.83071,2.80275 -1.03369,5.96172 1.77366,7.02989 2.29416,0.87291 3.99693,-0.15009 4.87637,-2.92966 z m -63.26943,9.79236 c -2.59938,-2.439 -5.77445,-6.50977 -7.05572,-9.04613 l -2.32958,-4.61157 4.06986,2.39255 4.06985,2.39254 2.49587,-2.15356 c 1.37272,-1.18446 3.04979,-2.35636 3.72683,-2.60422 0.83631,-0.30618 0.0324,-1.76566 -2.50736,-4.55223 l -3.73831,-4.10157 3.77771,3.51562 c 2.07775,1.9336 4.07542,3.51563 4.43926,3.51563 1.64117,0 0.37348,-3.14486 -2.73871,-6.79418 l -3.40024,-3.98707 3.86753,3.94807 c 4.1581,4.2447 4.68408,5.9238 2.44067,7.79148 -1.24265,1.03453 -1.05922,1.41216 1.42093,2.92514 1.56628,0.95548 3.34492,2.89838 3.95254,4.31753 0.60761,1.41916 1.1653,2.69129 1.23931,2.82696 0.074,0.13568 1.73068,-0.4223 3.68149,-1.23995 3.1279,-1.311 3.70996,-1.32309 4.92698,-0.10227 0.75902,0.7614 1.12572,1.79716 0.81487,2.30169 -0.83925,1.36219 -14.51536,7.7001 -16.61546,7.7001 -0.99671,0 -3.93896,-1.99555 -6.53832,-4.43456 z m 15.45686,0.11173 c 3.90849,-1.86194 7.10635,-3.73548 7.10635,-4.16343 0,-2.01302 -2.43289,-1.73835 -8.07918,0.91213 -3.38216,1.58765 -6.92234,2.88663 -7.86708,2.88663 -0.94475,0 -3.23681,-1.82301 -5.09349,-4.05112 -1.85667,-2.22811 -4.64084,-4.80076 -6.18704,-5.71697 l -2.81129,-1.66586 1.85616,3.64974 c 2.27362,4.4706 9.73039,11.53421 12.17619,11.53421 0.98617,0 4.99089,-1.5234 8.89938,-3.38533 z m -7.84692,-4.11467 c 2.53047,-2.53838 2.35147,-5.26477 -0.46729,-7.11746 -2.16436,-1.42257 -2.50853,-1.42257 -4.6729,0 -2.8429,1.86857 -2.93026,3.29483 -0.39946,6.52228 2.32386,2.96354 3.09597,3.0465 5.53965,0.59518 z m -22.46917,-14.53939 c -2.28533,-2.29247 -6.15277,-4.38806 -12.76087,-6.91454 -5.21495,-1.99383 -10.77673,-4.55014 -12.35949,-5.6807 l -2.87776,-2.05555 -0.0103,-10.95178 c -0.006,-6.02348 -0.25548,-12.4381 -0.55516,-14.2547 -0.70906,-4.298181 2.28621,-8.539341 4.89925,-6.937093 3.93904,2.415319 5.24827,5.710893 6.17918,15.554183 0.50381,5.3272 1.33656,9.9515 1.85056,10.27623 0.514,0.32472 2.87448,0.85713 5.24551,1.18313 2.37102,0.326 6.77487,1.28624 9.78632,2.13384 4.56042,1.28359 5.84751,2.13245 7.70235,5.07989 1.46607,2.32967 3.11509,3.6975 4.82631,4.00332 1.42963,0.2555 -0.44973,0.34112 -4.17637,0.19028 -3.72663,-0.15085 -6.7757,-0.15417 -6.7757,-0.007 0,0.14679 -0.24758,0.91409 -0.55017,1.70509 -0.45277,1.18361 0.54055,1.49992 5.61123,1.78684 l 6.16139,0.34865 -6.31216,-0.0696 c -5.41418,-0.0596 -6.29369,-0.30294 -6.18235,-1.71016 0.1404,-1.77461 -1.22821,-2.10154 -3.29671,-0.78751 -1.0121,0.64292 -0.31536,1.87794 3.16527,5.61063 5.07877,5.4466 5.36656,6.4492 0.42966,1.49686 z m -5.20419,-6.48623 c -0.28153,-0.73597 -4.46784,-2.87572 -9.30289,-4.755 -4.83505,-1.87929 -9.11253,-3.91385 -9.50551,-4.52125 -0.39298,-0.60741 -0.7145,-6.03248 -0.7145,-12.05571 0,-6.823 0.29241,-10.18039 0.77568,-8.90625 0.42663,1.12479 0.49597,5.50198 0.1541,9.72709 -0.34187,4.2251 -0.35953,8.51026 -0.0393,9.52257 0.40385,1.27638 3.54782,3.02161 10.25668,5.69354 10.70318,4.26274 13.57504,4.18851 15.66134,-0.40473 1.5328,-3.37464 0.51619,-4.02475 -9.51884,-6.08714 -4.78385,-0.98318 -9.01341,-2.12366 -9.39904,-2.53442 -0.38562,-0.41076 -1.10573,-5.10545 -1.60023,-10.43265 -0.92257,-9.93866 -2.70063,-14.310308 -6.0928,-14.980114 -2.6183,-0.517004 -3.14643,2.834259 -2.7356,17.358774 0.47012,16.62109 -0.36771,15.32368 13.28561,20.57315 9.18225,3.53042 9.45805,3.58706 8.77525,1.80214 z m 12.72009,-2.92719 c 0,-0.28341 -0.68257,-1.83937 -1.51682,-3.45768 l -1.51684,-2.94238 -1.14076,2.75456 c -0.81792,1.97497 -0.85151,2.94949 -0.11869,3.44333 1.19634,0.8062 4.29311,0.95203 4.29311,0.20217 z m -96.26168,-7.87611 c -1.79907,-0.96033 -5.11077,-3.45661 -7.35933,-5.54729 -3.95569,-3.67795 -4.17396,-3.75681 -6.72929,-2.43127 -1.45254,0.75349 -3.60814,1.3834 -4.7902,1.39979 -1.18207,0.0164 -2.96558,0.64922 -3.96336,1.40625 -0.99777,0.75704 -2.49449,1.37644 -3.32605,1.37644 -2.00788,0 -5.31831,-2.47757 -4.46036,-3.33819 0.37228,-0.37345 1.27765,-0.17884 2.01193,0.43246 1.56138,1.29988 6.20284,0.40964 6.15363,-1.18028 -0.0182,-0.58863 -0.63415,-2.12493 -1.36875,-3.41399 -3.29377,-5.77986 -0.34213,-10.3125 6.71547,-10.3125 3.10602,0 4.96271,0.55007 6.38689,1.89219 1.88357,1.77506 2.21814,1.80407 5.40405,0.46875 1.8679,-0.78289 5.35615,-1.42344 7.75168,-1.42344 4.83114,0 13.64643,-4.343072 15.36909,-7.571972 1.1245,-2.107716 3.03353,-2.331862 4.52338,-0.531094 1.28695,1.555519 11.72854,2.885963 22.92354,2.920857 10.36951,0.03234 11.40046,1.388019 3.67227,4.828949 -4.84113,2.15549 -6.21397,2.36154 -12.17039,1.82669 -10.43745,-0.93722 -10.71036,-0.76886 -15.31051,9.44468 -2.95963,6.57112 -4.6814,9.24242 -6.598,10.23663 -3.58216,1.85819 -10.89513,1.61979 -14.83569,-0.48366 z m 14.44201,-0.19657 c 1.30923,-0.59838 2.38042,-1.45698 2.38042,-1.90798 0,-0.451 -0.8761,-0.34966 -1.94691,0.22521 -2.58126,1.38576 -5.85342,-1.36162 -5.26972,-4.4246 0.3185,-1.67126 -0.12819,-2.20753 -2.22328,-2.66913 -1.44202,-0.31771 -3.71779,-1.44241 -5.05727,-2.49934 l -2.43542,-1.92169 -2.10795,1.98651 c -2.34667,2.21146 -5.23733,2.57026 -6.94076,0.86151 -0.87227,-0.875 -1.1215,-0.85102 -1.1215,0.10793 0,1.60901 6.11369,7.2528 10.28038,9.49022 3.71897,1.99702 10.89928,2.37058 14.44201,0.75136 z m 1.03228,-2.85715 c 1.77669,-0.81204 3.47429,-3.29557 5.99749,-8.77409 4.07323,-8.84405 4.91003,-9.3052 15.06357,-8.30157 5.42455,0.53618 7.1987,0.3109 11.57127,-1.46935 2.84042,-1.15644 5.16441,-2.47416 5.16441,-2.92827 0,-0.454105 -3.67991,-0.721799 -8.17757,-0.594861 -4.49767,0.126928 -11.00476,-0.142407 -14.46022,-0.598538 l -6.28264,-0.829312 -2.91236,3.127431 c -8.24017,8.8487 -12.52485,17.31308 -10.19152,20.13335 1.36247,1.6468 1.16335,1.63572 4.22757,0.23521 z m -1.66588,-11.90915 3.896,-5.54178 -6.11637,3.19803 c -3.36401,1.75892 -7.16205,3.19804 -8.44008,3.19804 -1.45037,0 -2.08518,0.38714 -1.68906,1.03008 0.66515,1.07959 5.77715,3.55764 7.46927,3.62073 0.54133,0.0201 2.73744,-2.45712 4.88024,-5.5051 z m -15.50713,2.26054 c 1.52719,-1.28906 3.77587,-2.34375 4.99705,-2.34375 2.62333,0 16.27865,-6.95511 17.96335,-9.14933 1.58689,-2.066826 1.46876,-3.918829 -0.29324,-4.597083 -0.88423,-0.340378 -1.9949,0.201375 -2.812,1.37161 -2.53031,3.623803 -10.951,7.687173 -15.93376,7.688753 -5.23487,0.002 -10.94934,2.49315 -11.41113,4.97518 -0.88854,4.77581 3.00157,5.84296 7.48973,2.05462 z m -8.51887,-2.00109 c 1.27267,-3.48058 -1.35273,-5.96766 -6.29955,-5.96766 -3.96337,0 -4.22217,0.14762 -3.69809,2.10938 0.30995,1.16015 0.56928,2.65031 0.5763,3.31145 0.0342,3.22237 8.26827,3.70028 9.42134,0.54683 z m 127.04002,-8.89495 c 0,-4.162413 -0.1868,-4.646782 -1.40187,-3.63521 -1.14067,0.949622 -1.40187,0.903759 -1.40187,-0.246141 0,-1.227609 3.69562,-4.441359 5.10731,-4.441359 0.27509,0 0.50016,2.953125 0.50016,6.5625 0,5.20834 -0.28927,6.5625 -1.40186,6.5625 -1.06366,0 -1.40187,-1.15859 -1.40187,-4.80229 z m 7.41365,3.31992 c -0.96563,-1.16715 -0.98828,-1.86492 -0.10651,-3.28125 0.87016,-1.397724 0.87016,-2.200036 0,-3.597755 -0.88177,-1.416337 -0.85912,-2.114109 0.10651,-3.28125 2.83588,-3.427703 9.07112,-0.407662 6.77453,3.28125 -0.87017,1.397719 -0.87017,2.200031 0,3.597755 1.42628,2.29097 -0.35958,4.76362 -3.44052,4.76362 -1.15917,0 -2.65948,-0.66707 -3.33401,-1.48237 z m 4.55796,-2.03325 c -0.37937,-1.97611 -2.03802,-1.8515 -2.4607,0.18485 -0.17631,0.84936 0.33887,1.45577 1.23675,1.45577 0.96258,0 1.42096,-0.61444 1.22395,-1.64062 z m 0.17792,-6.383461 c 0,-0.743007 -0.63084,-1.350919 -1.40187,-1.350919 -1.40769,0 -1.9212,1.979053 -0.80422,3.099516 0.87218,0.874912 2.20609,-0.182363 2.20609,-1.748597 z m 6.14152,8.425861 c -3.10372,-3.11341 -1.09807,-11.65178 2.73698,-11.65178 2.34879,0 4.20561,2.897419 4.20561,6.5625 0,3.66508 -1.85682,6.5625 -4.20561,6.5625 -0.69759,0 -1.92924,-0.66294 -2.73698,-1.47322 z m 3.96896,-5.668861 c -0.16357,-2.001544 -0.71796,-3.639169 -1.23198,-3.639169 -1.09176,0 -1.79234,5.59576 -0.96979,7.74601 0.99994,2.61396 2.5194,-0.2202 2.20177,-4.106841 z m 5.20591,-1.698413 c -0.93053,-2.432503 0.37372,-4.442989 2.67008,-4.115884 1.54461,0.220021 2.10699,0.925694 2.10699,2.643878 0,1.718184 -0.56238,2.423859 -2.10699,2.643881 -1.26381,0.180019 -2.33232,-0.288937 -2.67008,-1.171875 z m 3.3752,-1.472006 c 0,-0.515625 -0.42056,-0.9375 -0.93458,-0.9375 -0.51402,0 -0.93458,0.421875 -0.93458,0.9375 0,0.515625 0.42056,0.9375 0.93458,0.9375 0.51402,0 0.93458,-0.421875 0.93458,-0.9375 z M 72.429905,64.572059 c -2.570093,-2.072291 -7.467757,-5.605251 -10.883696,-7.851021 -6.902016,-4.537651 -8.024221,-5.785283 -6.541503,-7.272634 1.762722,-1.768231 8.35273,0.983054 18.76941,7.836106 5.405171,3.55602 9.491997,6.46549 9.081835,6.46549 -0.410162,0 -4.816339,-2.676547 -9.791505,-5.947883 C 64.591775,52.231056 59.369058,49.6875 56.402594,49.6875 c -2.629184,0 -1.076379,2.017495 4.111424,5.341806 7.608893,4.875729 18.816309,13.775992 16.822429,13.359375 -0.128505,-0.02685 -2.336448,-1.744332 -4.906542,-3.816622 z"
       id="path3856"
       inkscape:connector-curvature="0" />
  </g>
</svg>
