<?xml version="1.0" encoding="UTF-8" standalone="no"?>
<!-- Created with Inkscape (http://www.inkscape.org/) -->

<svg
   xmlns:dc="http://purl.org/dc/elements/1.1/"
   xmlns:cc="http://creativecommons.org/ns#"
   xmlns:rdf="http://www.w3.org/1999/02/22-rdf-syntax-ns#"
   xmlns:svg="http://www.w3.org/2000/svg"
   xmlns="http://www.w3.org/2000/svg"
   xmlns:sodipodi="http://sodipodi.sourceforge.net/DTD/sodipodi-0.dtd"
   xmlns:inkscape="http://www.inkscape.org/namespaces/inkscape"
   version="1.1"
   width="575"
   height="302"
   id="svg2"
   inkscape:version="0.91 r13725"
   sodipodi:docname="ub830401.svg">
  <sodipodi:namedview
     pagecolor="#ffffff"
     bordercolor="#666666"
     borderopacity="1"
     objecttolerance="10"
     gridtolerance="10"
     guidetolerance="10"
     inkscape:pageopacity="0"
     inkscape:pageshadow="2"
     inkscape:window-width="792"
     inkscape:window-height="480"
     id="namedview11"
     showgrid="false"
     inkscape:zoom="0.53043478"
     inkscape:cx="36.762295"
     inkscape:cy="151"
     inkscape:window-x="0"
     inkscape:window-y="0"
     inkscape:window-maximized="0"
     inkscape:current-layer="svg2" />
  <metadata
     id="metadata8">
    <rdf:RDF>
      <cc:Work
         rdf:about="">
        <dc:format>image/svg+xml</dc:format>
        <dc:type
           rdf:resource="http://purl.org/dc/dcmitype/StillImage" />
        <dc:title></dc:title>
      </cc:Work>
    </rdf:RDF>
  </metadata>
  <defs
     id="defs6" />
  <g
     id="g2987">
    <path
       d="m 507.35889,282.49286 c -0.31898,-0.83125 1.26678,-4.61294 3.53607,-8.43271 l 4.1144,-6.92557 -5.49925,-7.66482 c -4.48902,-6.25677 -5.38012,-8.15209 -4.85071,-10.31729 0.61073,-2.4978 1.97746,-4.10249 3.52365,-4.13716 0.37568,-0.008 2.22868,1.89719 4.11777,4.23469 3.37108,4.17125 3.4448,4.46538 3.97852,15.87414 0.46154,9.86563 0.29892,11.86903 -1.07491,13.24286 -1.26432,1.26432 -1.35443,1.883 -0.41157,2.82586 2.07782,2.07782 1.34405,2.80714 -2.82424,2.80714 -2.66945,0 -4.22677,-0.50916 -4.60973,-1.50714 z m 9.92995,-10.74466 c -0.11614,-6.73651 -0.70533,-18.176 -1.30931,-25.4211 -0.78909,-9.46567 -0.79374,-14.30334 -0.0165,-17.18969 1.20445,-4.47299 3.70725,-5.91944 7.10033,-4.10352 2.10338,1.1257 2.12475,1.40454 1.28777,16.8054 -0.4681,8.61339 -0.8511,20.83045 -0.8511,27.14902 l 0,11.48831 2.9175,0.51169 c 1.60463,0.28143 3.10463,1.07419 3.33334,1.76169 0.30349,0.91231 -1.29513,1.24951 -5.91751,1.2482 L 517.5,283.99641 517.28884,271.7482 z M 526,234.91206 c 0,-2.53475 0.32246,-3.0023 1.70479,-2.47185 4.61922,1.77256 10.46751,1.78584 14.35551,0.0326 2.96627,-1.3376 4.29789,-1.51462 5.13049,-0.68202 2.29625,2.29625 -1.03115,4.02682 -8.99678,4.6792 -4.23171,0.34658 -8.70651,0.84119 -9.94401,1.09913 -1.95351,0.40718 -2.25,0.0571 -2.25,-2.65706 z m 0,-6.32043 C 526,226.07331 530.10002,222 532.63486,222 c 1.76159,0 1.86838,6.90773 0.11514,7.44786 -5.67919,1.74961 -6.75,1.61378 -6.75,-0.85623 z M 56.586055,222.36366 c -0.906928,-2.36342 1.228624,-6.41512 5.149442,-9.76984 3.332386,-2.85125 3.43103,-2.87015 5.218784,-1 1.773692,1.85544 1.668337,2.04601 -3.957877,7.15925 -4.691063,4.26334 -5.898822,4.94361 -6.410349,3.61059 z m 12.080131,-12.18003 c -1.553675,-1.71679 -1.027669,-2.42179 9.595012,-12.86015 12.721618,-12.50087 14.766106,-13.91442 17.78686,-12.29776 2.289342,1.22522 1.937478,4.05496 -0.916339,7.36933 C 93.163152,194.68131 71.76922,212 70.913552,212 c -0.331967,0 -1.343282,-0.81736 -2.247366,-1.81637 z M 405.02984,211.25 c 0.0164,-0.4125 1.70391,-2.66132 3.75,-4.99737 3.52789,-4.02785 4.76113,-4.59696 23.86172,-11.01166 22.13906,-7.43514 24.66012,-7.68618 25.16773,-2.50618 0.35399,3.61226 2.57873,2.72776 -22.30929,8.86955 -8.63205,2.1302 -17.85498,5.12256 -21.72504,7.04866 -6.77813,3.37343 -8.7999,3.97382 -8.74512,2.597 z m 65.36986,-3.01531 c -3.10817,-2.07539 -3.53089,-5.17766 -1.91035,-14.01975 2.07066,-11.29802 3.15686,-14.58479 5.52954,-16.73203 1.60304,-1.45074 2.21366,-1.5348 3.48493,-0.47974 1.85667,1.5409 1.20576,4.23899 -2.08213,8.63061 -2.90047,3.87414 -4.91333,14.9429 -3.42788,18.84994 1.63447,4.29898 1.10223,5.55136 -1.59411,3.75097 z m 48.09144,-7 C 517.93627,200.83061 514.5121,197.125 510.88187,193 c -9.01789,-10.24696 -10.86634,-14 -6.89529,-14 1.298,0 2.45952,1.13191 3.35104,3.26562 1.46836,3.51428 6.4341,8.30264 12.73536,12.28045 4.33902,2.7391 4.6707,3.56739 2.35559,5.8825 -1.74401,1.74401 -2.45082,1.88872 -3.93743,0.80612 z m 0.99378,-8.25909 c -1.24829,-2.01977 0.60849,-6.69713 3.11125,-7.83746 3.8619,-1.7596 4.40383,-1.42717 4.40383,2.70134 0,3.14395 -0.46141,4.04972 -2.54705,5 -3.13281,1.42741 -4.1527,1.45535 -4.96803,0.13612 z M 424.18199,177.50423 C 422.98189,175.97856 422,173.91649 422,172.92185 c 0,-2.48793 3.52075,-4.73612 6.51927,-4.16292 3.28523,0.62801 3.36766,5.09842 0.16272,8.82439 l -2.31802,2.69486 -2.18198,-2.77395 z m 55.49837,0.45898 c -3.04837,-2.39785 -2.62666,-4.3286 1.30077,-5.95539 3.23857,-1.34146 7.01887,0.0197 7.01887,2.52736 0,1.58447 -3.45455,5.46482 -4.86514,5.46482 -0.47583,0 -2.03035,-0.91655 -3.4545,-2.03679 z M 106.75,167.9199 c -2.4564,-1.43072 -2.17667,-3.59423 0.70919,-5.48512 1.35255,-0.88622 6.13147,-7.89268 10.61981,-15.56991 4.48834,-7.67722 8.39233,-13.72688 8.67553,-13.44368 0.97832,0.97833 -14.0701,33.20863 -16.25453,34.8135 -1.28557,0.94449 -1.63886,0.91484 -3.75,-0.31479 z m 295.91667,-0.58657 c -1.68515,-1.68514 -0.18823,-3.0228 5.77666,-5.16204 4.96621,-1.78108 7.49108,-2.15371 11.01378,-1.62545 2.95152,0.44261 5.67573,0.22756 7.69076,-0.60709 2.78735,-1.15456 3.27009,-1.08764 4.52396,0.62713 3.37769,4.61927 -0.42762,8.69932 -5.80336,6.22237 -8.40116,-3.87096 -10.11915,-4.00958 -16.22531,-1.30914 -6.43019,2.84373 -6.08005,2.75067 -6.97649,1.85422 z M 114,164.52417 c 0,-0.26171 0.89832,-1.94921 1.99626,-3.75 1.95119,-3.20024 1.99635,-3.2166 2,-0.72417 0.002,1.4025 -0.53626,3.09 -1.19626,3.75 -1.20302,1.20302 -2.8,1.61605 -2.8,0.72417 z m 72.07258,-4.15903 C 184.93266,158.91597 184,157.3568 184,156.90033 c 0,-1.581 3.56739,-2.72051 14.84277,-4.74113 l 11.32781,-2.03002 10.66471,3.50731 c 5.86559,1.92901 12.65228,3.81265 15.08153,4.18586 5.92758,0.91067 6.30642,2.76713 0.73516,3.60259 -3.23264,0.48476 -7.20734,-0.0378 -14.66399,-1.92798 l -10.22932,-2.593 -10.25298,3.04802 C 195.86655,161.62839 190.55351,163 189.69893,163 c -0.85457,0 -2.48643,-1.18569 -3.62635,-2.63486 z M 157.5,154.83574 c -1.1,-0.60689 -3.21875,-2.23443 -4.70833,-3.61676 C 149.2307,147.91442 138.23245,140.33473 134.75,138.78517 131.96661,137.54667 131.06303,136 133.12287,136 c 0.61757,0 5.90507,2.41378 11.75,5.36395 5.84492,2.95017 12.29313,5.90297 14.32935,6.56178 4.4144,1.42826 5.99303,4.72712 3.2292,6.74807 -2.15724,1.57742 -2.35413,1.58389 -4.93142,0.16194 z m -9.4721,-3.30212 c -1.97732,-2.38253 -0.78809,-3.75438 1.7273,-1.99253 1.23464,0.86478 2.2448,1.9968 2.2448,2.51561 0,1.45843 -2.6132,1.1143 -3.9721,-0.52308 z M 267,148.38421 c 0,-0.33868 0.7875,-2.85345 1.75,-5.58837 1.33287,-3.78732 3.2544,-6.29552 8.06147,-10.52274 4.19333,-3.68752 5.97701,-5.88462 5.31486,-6.54677 -0.54813,-0.54813 -5.17226,-1.7233 -10.27583,-2.61147 -8.20729,-1.42831 -9.45212,-1.92346 -10.77592,-4.28623 -1.2744,-2.27461 -1.29594,-3.0465 -0.14504,-5.19697 2.3239,-4.34225 3.80826,-4.26615 12.52347,0.64209 2.45638,1.38338 5.96871,5.06579 9.27704,9.72625 l 5.32403,7.5 -3.27704,2.86473 c -1.80237,1.5756 -6.28266,5.5131 -9.95619,8.75 C 268.39521,148.77662 267,149.71667 267,148.38421 z m 149,-5.59285 c -4.125,-0.50522 -8.47416,-1.1139 -9.66479,-1.35263 -1.23065,-0.24676 -5.40037,-4.45689 -9.66298,-9.75665 -4.12401,-5.12742 -8.54985,-10.02928 -9.83521,-10.89302 -1.28536,-0.86374 -1.99406,-1.92509 -1.57489,-2.35855 0.86051,-0.88983 11.73787,2.26838 11.73787,3.40806 0,0.40501 2.86586,3.80656 6.36859,7.559 6.15855,6.59763 6.49659,6.80415 10.25,6.26213 2.13477,-0.30828 6.89041,-0.84059 10.56808,-1.18292 l 6.68666,-0.6224 1.63604,3.16373 c 1.52558,2.95015 1.51939,3.29263 -0.0917,5.07282 -1.9031,2.1029 -4.17531,2.19984 -16.41771,0.70043 z m -73.85391,-1.86988 c -2.25483,-2.10069 -2.21698,-4.77756 0.10862,-7.68338 0.55547,-0.69405 1.73789,-2.70445 2.62761,-4.46755 0.92635,-1.8357 4.82286,-5.47471 9.11768,-8.51514 l 7.5,-5.30949 2.86473,3.27704 c 1.5756,1.80237 5.56359,6.33905 8.8622,10.08151 3.2986,3.74246 5.76366,7.03827 5.47791,7.32403 -0.28576,0.28575 -2.85102,-0.30126 -5.70057,-1.30447 -4.02994,-1.41878 -6.4238,-3.2373 -10.77479,-8.18518 -6.72848,-7.65152 -7.28425,-7.32771 -9.16924,5.34234 -0.99447,6.68438 -1.73524,8.87819 -3.38895,10.0365 -2.88504,2.02076 -4.88641,1.86219 -7.5252,-0.59621 z M 214,131.63616 c 0,-5.27466 2.67274,-8.07778 6.3655,-6.676 1.68278,0.63879 2.10904,1.59014 2.0142,4.49535 -0.14166,4.33971 -0.79393,5.105 -5.1297,6.01859 l -3.25,0.68481 0,-4.52275 z m -86.25,-0.32549 c -1.54752,-0.4044 -1.75,-1.88632 -1.75,-12.8077 0,-6.79272 -0.52246,-14.6138 -1.16102,-17.3802 C 123.55212,95.547792 124.58978,93 128.1472,93 c 3.26227,0 4.07563,4.312971 2.3703,12.56898 -2.04406,9.89594 -2.0538,23.28799 -0.0175,24.06939 0.825,0.31659 1.5,0.97746 1.5,1.46862 0,0.92666 -1.25355,0.98674 -4.25,0.20368 z M 286,127.27672 c -1.375,-2.04029 -3.98597,-5.67186 -5.80215,-8.07014 -3.05865,-4.03898 -3.21834,-4.61447 -2.1656,-7.80429 0.64556,-1.95609 0.84371,-5.17697 0.45869,-7.45592 -0.4929,-2.91743 -0.23678,-4.685319 0.93866,-6.479266 4.02494,-6.142842 9.10784,0.536496 5.18848,6.818076 -0.76006,1.21815 -1.65677,4.07345 -1.99268,6.3451 -0.56218,3.80184 -0.21372,4.67487 4.38193,10.97859 2.74597,3.76657 4.99267,7.42044 4.99267,8.11972 0,2.59943 -3.58238,1.13551 -6,-2.45187 z m -172.5,-7.73761 c -6.05,-5.3591 -11.64231,-10.35614 -12.42735,-11.10453 -1.152708,-1.09889 -1.198949,-1.86197 -0.24032,-3.96592 1.67461,-3.67537 5.16567,-2.97446 7.39083,1.48386 0.94774,1.89889 5.14275,7.18892 9.32224,11.75562 4.35872,4.76253 7.46168,9.00065 7.27684,9.93895 -0.23215,1.17849 -3.39764,-1.08835 -11.32224,-8.10798 z m 175.06037,2.95115 C 286.08279,119.24199 286.03546,119 287.87768,119 c 2.27939,0 5.12232,2.50443 5.12232,4.51241 0,2.79399 -1.8546,2.36699 -4.43963,-1.02215 z M 341,124.86804 c -1.375,-0.55285 -4.44253,-0.71725 -6.81674,-0.36533 -3.12839,0.46371 -4.98659,0.20095 -6.75,-0.95448 -6.11673,-4.00784 0.59634,-9.06945 6.85192,-5.16631 1.21815,0.76006 4.07345,1.65677 6.3451,1.99268 3.80184,0.56218 4.67487,0.21372 10.97859,-4.38193 7.30641,-5.32665 9.39113,-6.04472 9.39113,-3.23473 0,1.04583 -2.64708,3.55301 -6.53463,6.18926 -3.59404,2.43722 -7.02414,5.02115 -7.62244,5.74206 -1.26617,1.52564 -2.40638,1.56053 -5.84293,0.17878 z m -134,-4.37882 c -6.875,-1.78708 -13.5125,-3.02946 -14.75,-2.76082 -3.47677,0.75472 -2.81849,-2.33457 0.76354,-3.58328 2.33973,-0.81563 5.07874,-0.5947 12.25,0.98811 7.62993,1.68405 9.81414,1.83402 12.55772,0.86221 2.84513,-1.00778 3.60455,-0.92006 5.29733,0.61189 1.21242,1.09721 1.86117,2.77462 1.67874,4.34049 -0.40991,3.51853 -2.72679,3.45883 -17.79733,-0.4586 z m 114.75,-5.14986 c -3.553,-1.87145 -3.48181,-4.26406 0.23277,-7.82285 2.89371,-2.77235 3.04223,-2.80386 4.97447,-1.05521 2.89785,2.62252 3.42859,5.3009 1.60264,8.08766 -1.80297,2.75168 -2.8546,2.87373 -6.80988,0.7904 z M 349,115.12232 C 349,112.84293 351.50443,110 353.51241,110 c 2.79399,0 2.36699,1.8546 -1.02215,4.43963 C 349.24199,116.91721 349,116.96454 349,115.12232 z M 111.2357,109.73899 C 109.66848,107.77943 108.75647,104 109.85082,104 c 2.49734,0 4.14918,1.41249 4.14918,3.54797 0,2.79991 -1.39379,3.90464 -2.7643,2.19102 z M 131.61006,104.25 c 0.35648,-1.5125 1.02099,-3.15843 1.47667,-3.65762 1.27278,-1.394306 3.91327,1.32499 3.91327,4.03006 0,1.9784 -0.50686,2.37756 -3.01905,2.37756 -2.78398,0 -2.96859,-0.21413 -2.37089,-2.75 z M 226,101.87944 C 222.22125,100.37734 209.15759,90.090854 208.59972,88.178257 207.8765,85.698772 208.32025,57 209.08181,57 c 0.35834,0 1.61154,2.310009 2.78486,5.133353 1.55681,3.746094 2.13333,7.241675 2.13333,12.9349 0,11.171026 0.52359,12.052336 9.50536,15.999534 5.57871,2.451661 8.07226,4.148527 9.14517,6.223309 2.45673,4.750794 -0.72306,6.944604 -6.65053,4.588344 z m 61.92879,-3.736022 c -2.25549,-1.826381 -2.26466,-1.915849 -0.56387,-5.5 2.13113,-4.491015 4.3083,-4.64142 8.19799,-0.56634 l 2.93709,3.077078 -2.80576,2.422922 c -3.36943,2.909672 -4.74745,3.010172 -7.76545,0.56634 z M 78.891565,85.285539 c -3.025462,-2.632046 -7.051253,-5.97138 -8.946202,-7.420742 -3.419748,-2.615611 -3.4312,-2.650925 -1.540375,-4.75 C 69.452731,71.951659 70.654595,71 71.075796,71 c 1.521745,0 16.252063,9.541297 17.28683,11.197231 1.342572,2.148514 -0.269361,7.161127 -2.437089,7.578593 -0.843223,0.16239 -4.008511,-1.858238 -7.033972,-4.490285 z M 59,69.34269 C 55.975,66.856236 50.4625,62.839896 46.75,60.417489 40.293789,56.20481 38.438817,54 41.350777,54 c 3.185355,0 8.778307,2.723575 17.979688,8.755489 l 9.830464,6.444307 -2.254778,2.400102 c -1.240129,1.320056 -2.288838,2.369393 -2.330465,2.331859 C 64.534059,73.894224 62.025,71.829144 59,69.34269 z m 67.09085,1.431171 C 124.47248,68.182443 124.18394,63.671946 123.62644,32.25 123.39956,19.4625 123.5558,9 123.97364,9 c 1.51778,0 5.02643,10.383219 5.02932,14.883353 0.002,2.539156 0.76247,11.591647 1.69075,20.116647 0.92829,8.525 1.67921,17.835813 1.66871,20.690695 -0.0278,7.550501 -3.3455,10.768558 -6.27157,6.083166 z"
       id="path2997"
       style="fill:#fefefe" />
    <path
       d="M 113.34157,233.52053 C 92.992966,229.82808 75.157109,220.2669 61.191455,205.5647 52.599235,196.51933 48.842758,191.07525 43.866919,180.45709 37.271156,166.38209 35.674269,158.7887 35.674269,141.5 c 0,-17.2887 1.596887,-24.88209 8.19265,-38.95709 4.975839,-10.618158 8.732316,-16.06224 17.324536,-25.107613 7.242796,-7.624781 21.809803,-18.476607 21.806757,-16.245145 -9.84e-4,0.720416 -2.138484,2.653677 -4.75,4.296136 C 71.044639,70.016823 57.805874,83.195498 52.472001,91.145502 47.054358,99.220361 42.13846,110.28376 39.428651,120.5 c -2.603567,9.8157 -2.603567,32.1843 0,42 7.314854,27.57771 25.20981,49.2915 50.642973,61.45034 14.070456,6.72666 21.953736,8.38146 39.928376,8.38146 18.20103,0 25.97048,-1.66813 40.5,-8.69548 7.9176,-3.82943 21.5,-12.88193 21.5,-14.32949 0,-0.28801 -1.125,-0.24129 -2.5,0.10381 -4.46158,1.11979 -2.68392,-1.34217 2.97205,-4.11612 5.88123,-2.88442 7.5086,-2.61448 5.76924,0.95699 -0.60227,1.23667 -1.49358,3.57036 -1.98067,5.18599 -0.99759,3.30889 -2.92101,4.48453 -3.42664,2.09445 -0.25743,-1.21688 -1.70918,-0.54552 -6.33398,2.92918 -20.08992,15.09391 -48.05436,21.61478 -73.15843,17.0594 z M 333,158.51313 c -0.825,-0.20897 -3.17425,-0.65282 -5.22056,-0.98633 C 324.09362,156.92608 318,152.74842 318,150.82221 c 0,-0.55 1.35214,0.13775 3.00475,1.52834 3.46589,2.91635 9.62184,4.20613 19.15074,4.01244 6.96728,-0.14163 12.64778,-2.46518 19.34451,-7.91268 2.83927,-2.30963 2.87945,-2.44064 0.75,-2.44534 -1.2375,-0.003 -2.25,-0.4165 -2.25,-0.91948 0,-0.96067 9.05068,-6.36815 9.65205,-5.76677 0.19135,0.19135 -0.1642,2.89792 -0.79012,6.01459 -1.1073,5.51364 -2.38296,7.2471 -3.03861,4.12907 -0.24626,-1.17117 -2.17068,-0.32313 -8.07468,3.55829 -7.04433,4.6311 -8.36693,5.13134 -14.5,5.48416 -3.71175,0.21353 -7.42364,0.21727 -8.24864,0.008 z m -90.64945,-33.51788 c 2.91635,-3.46589 4.20613,-9.62184 4.01244,-19.15074 -0.14163,-6.967279 -2.46518,-12.647782 -7.91268,-19.34451 -2.30963,-2.83927 -2.44064,-2.879452 -2.44534,-0.75 -0.003,1.2375 -0.4165,2.25 -0.91948,2.25 -0.96067,0 -6.36815,-9.050675 -5.76677,-9.652051 0.19135,-0.191351 2.89792,0.164204 6.01459,0.790123 5.51364,1.107295 7.2471,2.382959 4.12907,3.038604 -1.16783,0.245566 -0.27057,2.247287 3.73087,8.323324 5.24994,7.97181 5.26852,8.02819 5.27411,16 0.003,4.4 -0.34372,9.67425 -0.77067,11.72056 -0.78238,3.74983 -5.02091,9.77944 -6.87448,9.77944 -0.55,0 0.13775,-1.35214 1.52834,-3.00475 z"
       id="path2993"
       style="fill:#fe0000" />
    <path
       d="m 503.13618,247.94117 c -0.15269,-2.869 5.7726,-13.46846 9.08738,-16.25598 2.02693,-1.70452 2.16168,-2.71735 2.21726,-16.66667 0.0326,-8.16853 0.39668,-15.18937 0.80918,-15.60186 0.4125,-0.4125 0.75,-0.24083 0.75,0.38149 0,1.62 3.56612,3.30558 5.45775,2.57969 0.88145,-0.33824 2.20934,-1.77293 2.95086,-3.18819 l 1.34824,-2.57319 0.66779,3.04041 c 0.36728,1.67223 0.20039,5.92103 -0.37087,9.44178 -0.57127,3.52074 -1.04206,8.55468 -1.04622,11.18653 -0.007,4.56935 -0.10346,4.73386 -2.13404,3.64712 -5.78099,-3.09389 -9.56552,4.19816 -8.36792,16.12334 0.77607,7.72778 -0.33596,9.39179 -3.98527,5.96345 -1.88888,-1.77451 -2.71605,-1.98471 -4.35613,-1.10696 -1.11348,0.59592 -2.21966,2.09697 -2.45817,3.33568 -0.3993,2.07378 -0.44444,2.04949 -0.56984,-0.30664 z M 459,192.72032 c 0,-2.85938 -1.7391,-4.713 -4.45,-4.74303 -1.25338,-0.0139 0.42716,-1.35759 4.32468,-3.45785 3.50608,-1.88933 7.10608,-4.07484 8,-4.8567 0.89393,-0.78186 3.17585,-2.20791 5.07094,-3.16899 l 3.44563,-1.74743 -2.69618,3.20423 c -1.4829,1.76232 -2.96852,4.90735 -3.30138,6.98894 -0.7934,4.9616 -1.13978,5.40963 -6.14369,7.9465 l -4.25,2.15466 0,-2.32033 z M 98.56181,187.82444 c 0.394994,-1.11226 -0.271796,-2.24353 -1.983386,-3.36501 -2.394022,-1.56862 -2.757218,-1.5723 -5.078424,-0.0514 -3.3338,2.18439 -3.154808,1.10178 0.507457,-3.06931 1.654102,-1.88392 4.317381,-6.02025 5.918399,-9.19185 C 101.13548,165.78865 104,162.58542 104,165.3545 c 0,1.93166 4.49111,5.07804 5.95602,4.17268 1.69311,-1.0464 1.19705,2.26593 -0.93789,6.26266 -2.18908,4.09808 -11.404442,14.7044 -10.45632,12.0346 z M 476.67984,185.5 c 1.11925,-1.65 2.28863,-3.675 2.59863,-4.5 0.3962,-1.0544 0.58709,-0.88338 0.64258,0.57569 0.0434,1.14162 -1.12596,3.16662 -2.59862,4.5 l -2.67757,2.42431 2.03498,-3 z M 432.4008,160.33501 c -1.93153,-2.58708 -2.29908,-2.70239 -4.87416,-1.5291 -3.87596,1.766 -4.36495,0.70459 -1.76032,-3.82104 C 426.99484,152.85026 428,149.73042 428,148.05188 428,146.18412 428.51436,145 429.32569,145 c 0.72912,0 2.33943,-1.07908 3.57844,-2.39796 2.16517,-2.30471 2.18903,-2.52121 0.61366,-5.56765 -1.58463,-3.06433 -1.57518,-3.13547 0.2844,-2.14026 4.72652,2.52956 5.79843,12.05164 2.52411,22.42241 l -1.83643,5.81655 -2.08907,-2.79808 z M 173,159.45859 c -6.325,-1.25125 -11.71263,-2.31631 -11.97251,-2.36679 -0.25987,-0.0505 0.56367,-0.81756 1.8301,-1.70461 1.72396,-1.20751 2.15065,-2.21822 1.69794,-4.02195 -0.89545,-3.56777 1.72957,-4.02958 8.03935,-1.41432 2.97104,1.23143 7.217,2.48242 9.43546,2.77997 3.84228,0.51536 3.95466,0.6282 2.36981,2.37944 -1.5488,1.7114 -1.54941,2.01292 -0.009,4.36405 0.91017,1.38909 1.30698,2.46568 0.8818,2.39242 -0.42518,-0.0733 -5.94805,-1.15695 -12.27305,-2.40821 z m 165.5,-17.64482 c -5.71138,-3.21384 -9.95695,-7.59816 -12.14189,-12.53869 -3.0448,-6.88483 -2.97206,-7.90317 0.37639,-5.26928 2.18238,1.71666 3.55235,2.02831 6.78508,1.54353 3.59299,-0.5388 4.37656,-0.26717 6.93608,2.40439 2.64443,2.76019 2.75581,3.15946 1.3332,4.77905 -2.78049,3.16548 -3.06898,5.98711 -0.84001,8.21608 2.22846,2.22846 0.84359,2.7176 -2.44885,0.86492 z M 224.8,123.8 c 1.82267,-1.82267 1.43995,-4.91568 -0.91894,-7.42661 l -2.11895,-2.25551 2.04981,-2.6059 c 1.12739,-1.43324 2.32707,-3.86832 2.66596,-5.41128 0.49237,-2.24174 1.06439,-2.7197 2.84707,-2.37891 3.26718,0.62456 6.19772,-2.87665 4.71957,-5.638603 C 233.43133,96.937434 233.32323,96 233.8043,96 c 1.54292,0 3.1957,4.95822 3.1957,9.58689 0,2.47103 -0.86222,6.16236 -1.91605,8.20295 C 232.72759,118.35259 226.69768,125 224.91513,125 c -1.02288,0 -1.04846,-0.26667 -0.11513,-1.2 z M 260,111.93426 c 0,-4.2281 7.62054,-12.876501 13.72492,-15.57615 6.88483,-3.044799 7.90317,-2.972058 5.26928,0.37639 -1.71666,2.182379 -2.02831,3.55235 -1.54353,6.78508 0.5388,3.59299 0.26717,4.37656 -2.40439,6.93608 -2.76019,2.64443 -3.15946,2.75581 -4.77905,1.3332 -3.16548,-2.78049 -5.98711,-3.06898 -8.21608,-0.84001 C 260.92302,112.07698 260,112.52042 260,111.93426 z M 95.737526,102.43367 c -1.3857,-2.16352 -4.122653,-5.46422 -6.082119,-7.334892 l -3.562665,-3.401222 1.953629,-2.483637 C 89.120867,87.847919 90,85.883377 90,84.848271 90,83.340388 91.31888,84.002727 96.63448,88.180095 105.7941,95.378363 109.03464,101 104.02439,101 c -1.02167,0 -2.73729,1.20765 -3.81249,2.68367 l -1.95492,2.68367 -2.519454,-3.93367 z M 131.70863,94.9938 c -0.66418,-2.53984 -3.47227,-3.622502 -5.73328,-2.210476 -2.38214,1.487671 -2.98639,0.616733 -2.9139,-4.199991 0.0983,-6.532432 2.40582,-18.342088 3.1914,-16.333333 1.33105,3.403553 6.01474,0.87334 6.94164,-3.75 0.22054,-1.1 0.43513,4.646088 0.47687,12.769084 0.0697,13.572766 -0.66284,18.695516 -1.96273,13.724716 z"
       id="path2991"
       style="fill:#0000fe" />
    <path
       d="m 44.264147,284.251 21.764148,-0.29008 -0.52917,-2.23046 C 65.208082,280.50371 62.078314,265.325 58.544085,248 55.009856,230.675 51.36023,213.125 50.433806,209 c -3.006155,-13.38521 -3.005469,-13 -0.02315,-13 2.422342,0 2.618808,0.30612 2.406754,3.75 -0.276349,4.48806 2.048258,17.04895 3.298161,17.82143 0.486435,0.30063 0.892539,-0.0425 0.902453,-0.76241 0.0099,-0.71996 1.922414,-2.8171 4.25,-4.66031 L 65.5,208.79742 62,212.25133 c -4.646737,4.58554 -6.230022,7.44857 -5.460296,9.87377 0.571219,1.79975 1.170738,1.49311 5.987675,-3.06255 C 65.471474,216.27815 68.144191,214 68.466751,214 c 0.32256,0 -2.11281,2.5875 -5.411933,5.75 l -5.998406,5.75 1.297114,5.5 1.297115,5.5 34.174679,0.26313 C 116.41013,236.93702 128,236.68267 128,236.01313 128,235.45591 128.675,235 129.5,235 c 1.29252,0 1.5,3.38889 1.5,24.5 l 0,24.5 187.96862,0 c 167.06788,0 187.9043,-0.16758 187.39027,-1.50714 -0.31898,-0.83125 1.26678,-4.61294 3.53607,-8.43271 l 4.1144,-6.92557 -5.51594,-7.68809 c -3.03377,-4.22844 -5.79859,-8.81421 -6.14404,-10.19059 -0.76225,-3.03706 1.85128,-8.75158 7.20595,-15.7559 l 3.8224,-5 0.14552,-15.5 0.14551,-15.5 -5.17973,-6 c -6.02297,-6.97678 -7.85719,-10.0982 -7.09742,-12.07814 0.61617,-1.6057 4.1778,-1.92759 5.08508,-0.45957 0.37423,0.60551 1.48476,0.55677 2.99525,-0.13146 1.35212,-0.61606 3.19267,-0.74456 4.21429,-0.29422 0.99757,0.43974 3.96647,0.68141 6.59754,0.53704 6.39672,-0.35099 7.71623,0.93387 7.71623,7.51361 0,4.4316 -0.36399,5.53718 -2.1351,6.48504 -1.30091,0.69623 -1.71606,1.40166 -1.06256,1.80554 3.04293,1.88063 3.58563,8.18978 1.58033,18.37216 -0.50502,2.56434 -0.31343,2.75 2.83787,2.75 4.60752,0 5.77946,1.52083 5.77946,7.5 0,5.66709 -1.16234,7.45162 -4.95,7.59968 l -2.55,0.0997 L 530,232 c 4.18694,1.34089 8.74956,1.08707 12.48576,-0.6946 3.34129,-1.59335 3.6551,-1.59311 5.25218,0.004 1.59809,1.59809 1.58196,1.81517 -0.27264,3.66977 -1.52208,1.52208 -3.94589,2.123 -10.63795,2.63739 -4.76671,0.3664 -9.26539,1.03557 -9.99705,1.48706 -1.4283,0.88135 -2.53262,13.50664 -2.72433,31.14641 -0.10545,9.70191 -0.0939,9.75 2.33733,9.75 1.34381,0 3.06442,0.88678 3.82358,1.97063 1.24133,1.77226 2.7822,2.00184 15.3067,2.28066 C 553.23311,284.4218 438.675,284.55676 291,284.5512 143.325,284.54564 32.293866,284.41055 44.264147,284.251 z M 128,261.5 l 0,-22.5 -34.108408,0 -34.108408,0 0.69257,2.75 C 61.150041,244.4274 69,283.04003 69,283.67933 69,283.8557 82.275,284 98.5,284 l 29.5,0 0,-22.5 z m 388,21.7 c 0,-0.44 -0.52937,-1.32937 -1.17637,-1.97637 -0.90183,-0.90183 -0.80925,-1.5903 0.39669,-2.95 1.31016,-1.4772 1.48421,-3.7204 1.04139,-13.42175 -0.53144,-11.64274 -0.53335,-11.65005 -4.1467,-15.8247 -3.8889,-4.49301 -6.62935,-4.74881 -7.42036,-0.69263 l -0.42229,2.16545 -0.13618,-2.21482 c -0.0813,-1.32165 0.7084,-2.66682 1.95817,-3.33567 1.73372,-0.92786 2.51087,-0.72957 4.51324,1.15157 3.66401,3.44216 4.62623,1.55883 3.80933,-7.45593 C 514.03589,234.44032 513.32639,231 512.84026,231 c -1.01811,0 -8.45964,11.22543 -9.39483,14.17194 -1.02113,3.21731 0.22507,6.15862 6.04799,14.27455 l 5.51594,7.68809 -4.1144,6.92557 c -2.26929,3.81977 -3.85505,7.60146 -3.53607,8.43271 C 507.96667,284.07673 516,284.73413 516,283.2 z m 13.75084,-0.45 c -0.22871,-0.6875 -1.72871,-1.48026 -3.33334,-1.76169 l -2.9175,-0.51169 0,-11.48831 c 0,-6.31857 0.383,-18.53563 0.8511,-27.14902 0.83698,-15.40086 0.81561,-15.6797 -1.28777,-16.8054 -3.12161,-1.67063 -5.90867,-0.35752 -6.96101,3.27965 -0.72215,2.49593 -0.94149,2.69886 -1.01213,0.93646 -0.0921,-2.29814 3.05391,-6.25 4.97555,-6.25 0.58616,0 1.93616,0.46583 3,1.03518 1.78671,0.95622 1.93484,0.67015 1.94181,-3.75 0.004,-2.63185 0.47495,-7.66579 1.04622,-11.18653 0.57126,-3.52075 0.73815,-7.76955 0.37087,-9.44178 l -0.66779,-3.04041 -1.34824,2.57319 c -0.74152,1.41526 -2.06941,2.84995 -2.95086,3.18819 -1.93264,0.74162 -5.45173,-0.97066 -5.47306,-2.66302 -0.0108,-0.85938 -0.26345,-0.82335 -0.86338,0.12314 -1.11829,1.76427 -0.60797,31.47303 0.80153,46.66204 0.61246,6.6 1.21787,17.73666 1.34536,24.74813 l 0.2318,12.74812 6.33333,0.002 c 4.6224,0.001 6.221,-0.33581 5.91751,-1.24813 z m -12.94397,-4.27646 c -0.30789,-0.30789 -0.86705,0.24711 -1.24258,1.23333 -0.54268,1.4252 -0.42782,1.54006 0.5598,0.5598 0.68342,-0.67834 0.99067,-1.48524 0.68278,-1.79313 z m -2.12376,-29.66104 c -0.31922,-0.79773 -0.55618,-0.56078 -0.60416,0.60417 -0.0434,1.05416 0.19293,1.64479 0.52522,1.3125 0.33229,-0.3323 0.36781,-1.1948 0.0789,-1.91667 z m 23.5109,-12.34251 c 7.96563,-0.65238 11.29303,-2.38295 8.99678,-4.6792 -0.8326,-0.8326 -2.16422,-0.65558 -5.13049,0.68202 -3.888,1.75324 -9.73629,1.73996 -14.35551,-0.0326 -1.38233,-0.53045 -1.70479,-0.0629 -1.70479,2.47185 0,2.71412 0.29649,3.06424 2.25,2.65706 1.2375,-0.25794 5.7123,-0.75255 9.94401,-1.09913 z M 532.75,229.44786 C 534.50324,228.90773 534.39645,222 532.63486,222 530.10002,222 526,226.07331 526,228.59163 c 0,2.47001 1.07081,2.60584 6.75,0.85623 z m -10.32143,-29.01929 c 2.31511,-2.31511 1.98343,-3.1434 -2.35559,-5.8825 -6.30126,-3.97781 -11.267,-8.76617 -12.73536,-12.28045 C 506.4461,180.13191 505.28458,179 503.98658,179 c -3.97105,0 -2.1226,3.75304 6.89529,14 8.82744,10.03056 8.8988,10.07647 11.5467,7.42857 z m 2.02438,-7.58909 c 2.08564,-0.95028 2.54705,-1.85605 2.54705,-5 0,-4.12851 -0.54193,-4.46094 -4.40383,-2.70134 -3.54095,1.61336 -4.83674,8.86186 -1.58421,8.86186 0.49167,0 2.04011,-0.52223 3.44099,-1.16052 z m -9.90423,-6.84793 c -0.0523,-4.30633 -2.04019,-5.93515 -5.13183,-4.20497 -1.41263,0.79054 -1.20698,1.3829 1.58341,4.56098 1.76379,2.00884 3.29469,3.65244 3.40202,3.65244 0.10732,0 0.1732,-1.8038 0.1464,-4.00845 z M 127.62246,185.75 c -0.44147,-50.12649 -0.4947,-52.75 -1.0703,-52.75 -0.20203,0 -4.02728,6.26028 -8.50055,13.91173 -4.47328,7.65145 -9.23987,14.63683 -10.59242,15.52305 -1.35255,0.88623 -2.45919,2.26012 -2.45919,3.05309 0,1.763 3.36407,3.69965 5.17756,2.98064 1.28752,-0.51047 6.9425,-11.56385 12.40318,-24.24359 1.48634,-3.45129 2.8794,-6.09812 3.09568,-5.88183 0.21628,0.21628 -1.24698,3.94007 -3.2517,8.27508 -2.40112,5.19216 -3.60754,9.22013 -3.5353,11.80361 0.1124,4.02013 -2.01232,7.57822 -4.52536,7.57822 -0.72927,0 -1.58475,1.2375 -1.90105,2.75 -1.17004,5.59492 -4.49446,10.94948 -11.5248,18.56275 -5.863956,6.35017 -21.925244,20.25432 -28.93821,25.05162 -3.665255,2.50726 2.005029,-2.46182 11.5,-10.07788 11.075218,-8.88359 12.953409,-10.76796 13.929777,-13.97559 0.912354,-2.99732 -2.447766,-4.89411 -5.679777,-3.20623 -1.2375,0.64626 -7.425,6.1746 -13.75,12.28518 L 66.5,208.5 77,197.39021 c 12.492363,-13.21785 16.271239,-18.01124 20.002914,-25.37306 1.53814,-3.03443 3.937386,-6.58053 5.331656,-7.88022 2.18951,-2.04097 2.48745,-3.05128 2.1859,-7.4123 -0.22747,-3.28973 -0.9017,-5.35847 -1.93483,-5.93664 -2.00047,-1.11952 -4.970671,-6.7542 -4.022472,-7.63092 0.390853,-0.36139 0.948298,0.0179 1.238767,0.84293 0.290465,0.825 1.731745,2.62568 3.202835,4.00151 2.24824,2.10264 3.46088,2.44848 7.60526,2.16898 4.50166,-0.30361 5.10839,-0.65167 6.97518,-4.00151 1.12455,-2.01794 3.46143,-6.15114 5.19306,-9.18489 l 3.14842,-5.5159 -14.42946,-12.78206 C 103.56102,111.656 95.815018,104.04628 94.283883,101.77565 91.818247,98.11918 80.987914,87.830088 69.458264,78.190677 67.281219,76.37055 68.2,76.933166 71.5,79.440935 c 3.3,2.50777 7.661896,5.967435 9.693102,7.688145 4.170928,3.533349 6.407582,3.310105 7.424353,-0.741037 0.963739,-3.839839 -0.273547,-5.262556 -9.425483,-10.83808 -4.468877,-2.72252 -7.979285,-5.095983 -7.800906,-5.274362 0.178378,-0.178379 3.384144,1.53458 7.123923,3.806574 9.400661,5.7111 25.413171,18.623621 27.367511,22.069214 0.91684,1.616432 2.1944,2.634468 2.94929,2.350171 C 109.56427,98.225702 111.52555,98 113.1902,98 c 2.80148,0 2.97556,-0.204562 2.3403,-2.75 -0.37748,-1.5125 -1.3985,-3.540259 -2.26895,-4.506131 -2.34157,-2.598283 -0.78755,-3.269871 1.73327,-0.749052 1.28077,1.280769 2.34416,3.861341 2.60983,6.333334 0.24659,2.294517 0.70491,5.582669 1.01849,7.307009 0.70106,3.85504 -0.91476,7.11879 -3.7354,7.545 -1.84956,0.27948 -1.3429,1.14004 4.01518,6.81984 l 6.13183,6.5 -0.38636,-11 c -0.2125,-6.05 -0.95516,-14.299445 -1.65037,-18.332101 -0.94072,-5.456838 -0.9967,-9.037487 -0.21888,-14 C 123.47487,76.729142 123.55444,63.634943 123.01716,42 122.57325,24.125 122.41435,9.1625 122.66404,8.75 124.61746,5.5229378 130,16.51081 130,23.72556 c 0,6.441474 1.82526,25.931928 3.44388,36.77444 0.73896,4.95 1.27889,14.481273 1.19984,21.180607 -0.14027,11.888003 -0.0897,12.190948 2.1051,12.611103 1.23686,0.236773 3.03686,-0.167689 4,-0.898803 2.75845,-2.093907 5.20812,-1.636368 6.27593,1.172193 C 148.26418,97.825037 148.25762,99 147,99 c -0.55,0 -1,-0.6199 -1,-1.377555 0,-0.757656 -0.61529,-1.888205 -1.36732,-2.512331 -1.95479,-1.622328 -3.89385,1.001131 -3.09436,4.186529 0.37146,1.480047 -0.0266,3.746927 -0.98262,5.595657 -1.37666,2.66215 -2.16013,3.1077 -5.46475,3.1077 -4.65018,0 -5.05744,0.9826 -5.0773,12.25 -0.0117,6.64875 0.29719,8.06084 2.17385,9.9375 1.40789,1.40789 1.76429,2.32857 1,2.58333 -0.65313,0.21771 -1.1875,0.85648 -1.1875,1.41949 0,0.56301 0.64593,0.77579 1.43539,0.47285 0.78947,-0.30295 1.57697,-0.21684 1.75,0.19136 0.17304,0.40819 5.57446,3.38763 12.00316,6.62097 9.92479,4.99171 12.56548,5.90164 17.5,6.03015 3.1963,0.0832 7.18056,0.86679 8.85392,1.74121 6.46869,3.38026 14.17256,3.92376 25.82702,1.82207 l 10.78178,-1.94431 12.16515,3.93769 c 6.69084,2.16573 13.3517,3.93769 14.80192,3.93769 2.78862,0 5.44586,2.27809 4.48005,3.84081 -1.46134,2.3645 -9.48073,2.22388 -19.6104,-0.34385 l -10.22932,-2.593 -10.3008,3.06223 -10.3008,3.06224 -13.32854,-2.53907 c -7.33069,-1.3965 -14.59441,-2.94952 -16.14159,-3.45116 -2.24321,-0.72731 -3.20028,-0.52486 -4.72457,0.99943 -1.05132,1.05132 -3.02426,2.19078 -4.3843,2.53213 -1.36004,0.34135 -3.18186,1.7028 -4.04849,3.02544 -1.78455,2.72356 -4.24329,3.06584 -7.08688,0.98656 -2.53568,-1.85414 -1.26015,-3.10921 1.44376,-1.4206 1.75677,1.09712 2.33445,1.0465 3.70567,-0.32472 1.49929,-1.49929 1.44471,-1.8676 -0.70826,-4.77964 -2.24921,-3.04222 -2.2775,-3.30876 -0.79035,-7.44437 l 1.54239,-4.28918 -6.8146,-4.22272 c -3.74803,-2.32249 -7.26611,-3.94366 -7.81795,-3.6026 C 131.35552,139.89831 131,156.57352 131,186.55902 131,226.90421 130.80564,233 129.5193,233 c -1.28084,0 -1.53687,-6.37773 -1.89684,-47.25 z m -18.60433,-9.96016 c 2.13494,-3.99673 2.631,-7.30906 0.93789,-6.26266 C 108.49111,170.43254 104,167.28616 104,165.3545 c 0,-2.76908 -2.86452,0.43415 -6.074144,6.79238 -1.601018,3.1716 -4.264297,7.30793 -5.918399,9.19185 -3.662265,4.17109 -3.841257,5.2537 -0.507457,3.06931 2.321206,-1.52091 2.684402,-1.51723 5.078424,0.0514 1.71159,1.12148 2.37838,2.25275 1.983386,3.36501 -0.948122,2.6698 8.26724,-7.93652 10.45632,-12.0346 z M 116.8,163.8 c 0.66,-0.66 1.19832,-2.3475 1.19626,-3.75 -0.004,-2.49243 -0.0488,-2.47607 -2,0.72417 -1.09794,1.80079 -1.99626,3.48829 -1.99626,3.75 0,0.89188 1.59698,0.47885 2.8,-0.72417 z m 84.70569,-3.84802 10.25298,-3.04802 10.22932,2.593 c 7.45665,1.89016 11.43135,2.41274 14.66399,1.92798 5.57126,-0.83546 5.19242,-2.69192 -0.73516,-3.60259 -2.42925,-0.37321 -9.21594,-2.25685 -15.08153,-4.18586 l -10.66471,-3.50731 -11.32781,2.03002 C 187.56739,154.17982 184,155.31933 184,156.90033 c 0,1.63185 4.17429,6.09967 5.69893,6.09967 0.85458,0 6.16762,-1.37161 11.80676,-3.04802 z m -17.11444,-0.4776 c -1.54051,-2.35113 -1.5399,-2.65265 0.009,-4.36405 1.58485,-1.75124 1.47247,-1.86408 -2.36981,-2.37944 -2.21846,-0.29755 -6.46442,-1.54854 -9.43546,-2.77997 -6.30978,-2.61526 -8.9348,-2.15345 -8.03935,1.41432 0.45271,1.80373 0.026,2.81444 -1.69794,4.02195 -1.26643,0.88705 -2.08997,1.65412 -1.8301,1.70461 0.25988,0.0505 5.64751,1.11554 11.97251,2.36679 6.325,1.25126 11.84787,2.33495 12.27305,2.40821 0.42518,0.0733 0.0284,-1.00333 -0.8818,-2.39242 z m -21.95983,-4.80058 c 2.76383,-2.02095 1.1852,-5.31981 -3.2292,-6.74807 -2.03622,-0.65881 -8.48443,-3.61161 -14.32935,-6.56178 C 139.02794,138.41378 133.74044,136 133.12287,136 c -2.05984,0 -1.15626,1.54667 1.62713,2.78517 3.48245,1.54956 14.4807,9.12925 18.04167,12.43381 2.5913,2.40472 6.08118,4.68608 7.2672,4.75061 0.30738,0.0167 1.37503,-0.56638 2.37255,-1.29579 z M 152,152.0567 c 0,-0.51881 -1.01016,-1.65083 -2.2448,-2.51561 -2.51539,-1.76185 -3.70462,-0.39 -1.7273,1.99253 1.3589,1.63738 3.9721,1.98151 3.9721,0.52308 z m -20,-20.94971 c 0,-0.49116 -0.675,-1.15203 -1.5,-1.46862 -2.0363,-0.7814 -2.02656,-14.17345 0.0175,-24.06939 C 132.22283,97.312971 131.40947,93 128.1472,93 c -3.55742,0 -4.59508,2.547792 -3.30822,8.12277 0.63856,2.7664 1.16102,10.58748 1.16102,17.3802 0,10.92138 0.20248,12.4033 1.75,12.8077 2.99645,0.78306 4.25,0.72298 4.25,-0.20368 z m -14.4546,-13.39885 c -4.17949,-4.5667 -8.3745,-9.85673 -9.32224,-11.75562 -2.22516,-4.45832 -5.71622,-5.15923 -7.39083,-1.48386 -0.958629,2.10395 -0.912388,2.86703 0.24032,3.96592 0.78504,0.74839 6.37735,5.74543 12.42735,11.10453 7.9246,7.01963 11.09009,9.28647 11.32224,8.10798 0.18484,-0.9383 -2.91812,-5.17642 -7.27684,-9.93895 z M 114,107.54797 C 114,105.41249 112.34816,104 109.85082,104 c -0.55981,0 -0.68761,0.97201 -0.29582,2.25 1.5372,5.01424 4.445,5.86334 4.445,1.29797 z m 23,-2.92553 c 0,-2.70507 -2.64049,-5.424366 -3.91327,-4.03006 -0.45568,0.49919 -1.12019,2.14512 -1.47667,3.65762 -0.5977,2.53587 -0.41309,2.75 2.37089,2.75 C 136.49314,107 137,106.60084 137,104.62244 z M 104.02439,101 c 5.01025,0 1.76971,-5.621637 -7.38991,-12.819905 C 91.31888,84.002727 90,83.340388 90,84.848271 c 0,1.035106 -0.879133,2.999648 -1.953629,4.365648 l -1.953629,2.483637 3.562665,3.401222 c 1.959466,1.870672 4.696419,5.171372 6.082119,7.334892 l 2.519454,3.93367 1.95492,-2.68367 C 101.2871,102.20765 103.00272,101 104.02439,101 z m 29.55716,-22.405838 c -0.17273,-9.543778 -0.61031,-17.83168 -0.9724,-18.41756 -0.78076,-1.263294 -3.60193,-29.656034 -3.60619,-36.293249 C 129.00011,19.43547 125.49805,9 124.00822,9 c -0.77963,0 -0.27254,49.856928 0.57466,56.5 0.68621,5.380637 2.89421,8.319616 5.17128,6.883277 0.93519,-0.589907 2.00323,-2.154969 2.37342,-3.477917 0.52951,-1.892353 0.69432,-1.995601 0.77274,-0.484101 C 133.01741,70.67811 130.28624,74 128.31363,74 c -0.75702,0 -1.68437,-0.7875 -2.06078,-1.75 -0.78558,-2.008755 -3.09309,9.800901 -3.1914,16.333333 -0.0725,4.816724 0.53176,5.687662 2.9139,4.199991 2.26101,-1.412026 5.0691,-0.329364 5.73328,2.210476 0.28531,1.091038 0.8941,1.751726 1.35286,1.468195 0.45877,-0.28353 0.69279,-8.324056 0.52006,-17.867833 z M 404.48552,211.97657 c -0.34789,-0.56289 1.21525,-3.2304 3.47364,-5.92779 4.0705,-4.86176 4.26873,-4.95851 22.8235,-11.13835 18.26437,-6.08312 26.78129,-9.94463 36.49379,-16.546 2.62705,-1.78555 5.61097,-3.51131 6.63092,-3.83503 1.01996,-0.32372 2.10154,-1.81277 2.40352,-3.30899 0.30198,-1.49623 0.86248,-3.53077 1.24556,-4.52121 0.57971,-1.4988 0.29797,-1.70773 -1.67997,-1.24585 -2.53104,0.59104 -7.94473,-2.71844 -6.61767,-4.04549 0.40091,-0.40091 1.62325,0.0804 2.7163,1.06962 1.41876,1.28395 2.35039,1.50361 3.25613,0.76771 3.38282,-2.74845 15.76876,2.33275 15.76876,6.46896 0,4.50285 -6.53606,12.30865 -9.02067,10.77308 -0.53863,-0.3329 -0.97933,0.27468 -0.97933,1.35016 0,1.07548 -1.59991,3.36017 -3.55537,5.07708 -2.92851,2.57127 -3.72042,4.13225 -4.49152,8.85359 -0.6369,3.89967 -0.5847,6.80026 0.1633,9.074 1.33634,4.06213 0.11436,5.88699 -2.8719,4.2888 -3.19247,-1.70856 -4.40838,-5.93717 -3.34415,-11.63007 0.514,-2.74957 0.79223,-5.14154 0.61828,-5.31548 -0.17394,-0.17394 -2.94929,0.9961 -6.16745,2.6001 -3.21815,1.604 -13.72619,4.85087 -23.35119,7.21527 -10.8203,2.65803 -20.06693,5.57768 -24.22504,7.64912 -7.27384,3.6236 -8.3252,3.88694 -9.28944,2.32677 z m 9.28944,-3.32357 c 3.87006,-1.9261 13.09299,-4.91846 21.72504,-7.04866 24.88802,-6.14179 22.66328,-5.25729 22.30929,-8.86955 -0.23364,-2.38426 -0.92074,-3.32486 -2.80929,-3.84581 -2.09124,-0.57686 -2.16482,-0.70592 -0.45,-0.7893 2.66026,-0.12935 4.45,1.71561 4.45,4.58732 l 0,2.28701 4.53526,-2.2034 c 3.1536,-1.53214 4.7042,-2.97526 5.08981,-4.73701 1.29561,-5.91927 2.57839,-8.90423 4.58228,-10.66268 2.12481,-1.86456 2.12466,-1.8607 -0.0449,1.13447 -3.08013,4.25235 -6.65344,22.89513 -5.10493,26.63358 1.06336,2.56718 3.66694,4.46987 4.70119,3.43562 0.25987,-0.25988 -0.0281,-1.9085 -0.63994,-3.66362 -1.57297,-4.51222 0.26056,-15.21358 3.30288,-19.27719 3.64019,-4.86218 4.02345,-7.20859 1.46962,-8.99735 -1.97024,-1.38002 -2.50002,-1.37646 -5.2904,0.0356 -1.7055,0.86304 -3.77628,2.15817 -4.60173,2.87806 -4.70116,4.09997 -19.6076,10.83767 -36.17713,16.35204 -18.00156,5.99095 -18.80731,6.37392 -22.25,10.57527 -5.56062,6.78601 -4.74548,7.12686 5.20291,2.17562 z m 66.14609,-27.07731 c -0.0555,-1.45907 -0.24638,-1.63009 -0.64258,-0.57569 -0.31,0.825 -1.47938,2.85 -2.59863,4.5 l -2.03498,3 2.67757,-2.42431 c 1.47266,-1.33338 2.64204,-3.35838 2.59862,-4.5 z M 486,178 c 2.5703,-2.5703 2.53924,-4.64104 -0.0907,-6.04856 -1.55407,-0.83171 -2.81904,-0.81724 -4.92814,0.0564 -3.92743,1.62679 -4.34914,3.55754 -1.30077,5.95539 3.21405,2.52817 3.8247,2.53173 6.31964,0.0368 z m -61.89641,0.4652 c -3.73631,-4.25542 -3.9133,-6.68312 -0.67306,-9.2319 l 2.43053,-1.91185 -5.29042,-1.66766 c -5.22966,-1.64851 -5.35641,-1.63847 -11.03669,0.87362 -4.54974,2.01211 -6.04544,2.29298 -7.183,1.34889 -2.59232,-2.15143 -0.9509,-4.05369 5.64905,-6.54677 4.63795,-1.75195 7.64588,-2.29978 10.5,-1.91233 3.94991,0.53621 4.02839,0.48378 6.26714,-4.1871 1.24693,-2.60155 2.25943,-5.91135 2.25,-7.3551 -0.0195,-2.98691 -1.40603,-3.45343 -13.43544,-4.52051 -3.89493,-0.34551 -7.80142,-0.99617 -8.68107,-1.44591 -0.87966,-0.44975 -4.20795,-4.10067 -7.3962,-8.11315 -3.18825,-4.01249 -7.63323,-8.97073 -9.87774,-11.01831 -3.20004,-2.91927 -3.8189,-3.98491 -2.86702,-4.93679 0.95187,-0.95187 2.35001,-0.85311 6.47712,0.45757 4.38147,1.39145 6.08661,2.69346 10.17823,7.77186 7.25898,9.00964 7.28298,9.01924 19.497,7.79555 11.94889,-1.19712 14.10289,-0.63811 16.728,4.34134 2.43646,4.6216 2.0936,11.9023 -0.98971,21.01669 l -2.61273,7.72333 2.32591,2.32591 c 1.80144,1.80144 2.69917,2.09047 3.98121,1.28178 2.06038,-1.29965 4.99313,0.32186 5.52152,3.05282 0.35903,1.8556 0.32498,1.8557 -1.73124,0.005 -1.69342,-1.52432 -2.38257,-1.6514 -3.5775,-0.6597 -0.81401,0.67558 -1.74241,2.05501 -2.06309,3.0654 -0.6766,2.13176 -6.75783,5.98231 -9.44796,5.98231 -1.01158,0 -3.23586,-1.59066 -4.94284,-3.5348 z M 431,172.06081 c 0,-2.2162 -0.53643,-2.9302 -2.48073,-3.30188 -2.99852,-0.5732 -6.51927,1.67499 -6.51927,4.16292 0,0.99464 0.98189,3.05671 2.18199,4.58238 l 2.18198,2.77395 2.31802,-2.69486 C 429.95689,176.10116 431,173.61603 431,172.06081 z m -21.35684,-6.5817 c 6.10616,-2.70044 7.82415,-2.56182 16.22531,1.30914 5.37574,2.47695 9.18105,-1.6031 5.80336,-6.22237 -1.25387,-1.71477 -1.73661,-1.78169 -4.52396,-0.62713 -2.01503,0.83465 -4.73924,1.0497 -7.69076,0.60709 -3.5227,-0.52826 -6.04757,-0.15563 -11.01378,1.62545 -5.96489,2.13924 -7.46181,3.4769 -5.77666,5.16204 0.89644,0.89645 0.5463,0.98951 6.97649,-1.85422 z m 27.3051,-10.78657 c 1.9066,-7.09468 2.06563,-8.92723 1.08938,-12.55275 -1.90813,-7.08626 -3.67585,-8.14047 -12.74993,-7.60364 -4.28324,0.2534 -9.53435,0.73597 -11.66912,1.07239 -3.77302,0.59458 -4.05928,0.42112 -10.25,-6.21097 -3.50273,-3.75244 -6.36859,-7.15399 -6.36859,-7.559 0,-1.13968 -10.87736,-4.29789 -11.73787,-3.40806 -0.41917,0.43346 0.28953,1.49481 1.57489,2.35855 1.28536,0.86374 5.7112,5.7656 9.83521,10.89302 4.27793,5.3188 8.42791,9.50668 9.66298,9.75123 1.19063,0.23576 7.00548,0.97657 12.92187,1.64625 10.0158,1.1337 10.89684,1.09112 12.78527,-0.61788 1.1155,-1.00952 1.78731,-2.42638 1.49292,-3.14858 -1.48071,-3.63242 -1.48786,-4.51098 -0.016,-1.96581 1.57583,2.72498 1.5496,2.95051 -0.61066,5.25 C 431.66712,143.91878 430.05481,145 429.32569,145 428.51436,145 428,146.18412 428,148.05188 c 0,1.67854 -1.00516,4.79838 -2.23368,6.93299 -2.60463,4.52563 -2.11564,5.58704 1.76032,3.82104 2.56851,-1.17029 2.94369,-1.05656 4.82448,1.46256 1.12166,1.50234 2.11256,2.73153 2.202,2.73153 0.0894,0 1.16725,-3.73836 2.39514,-8.30746 z m -170.4369,-5.67415 c -0.33367,-0.53989 0.20228,-3.29376 1.19099,-6.11972 1.39265,-3.98052 3.21954,-6.38987 8.10895,-10.69433 4.35746,-3.83614 5.90535,-5.77107 5,-6.25022 -0.72121,-0.3817 -5.03589,-1.25942 -9.58817,-1.95049 -6.80598,-1.0332 -8.62752,-1.70226 -10.25,-3.76492 -6.75698,-8.59011 5.04445,-24.667712 19.94474,-27.171591 2.68714,-0.451553 3.62368,-1.214966 4.38049,-3.570733 0.52944,-1.648012 1.65826,-3.794519 2.5085,-4.770015 1.1851,-1.359697 1.27134,-2.048171 0.36951,-2.95 -1.69133,-1.691335 -1.44904,-4.226958 0.57363,-6.003103 2.32148,-2.038535 6.25,-3.207478 6.25,-1.859708 0,0.576585 -1.09244,1.322521 -2.42764,1.657635 -4.89682,1.229023 -3.91551,6.755252 1.40714,7.924302 3.49316,0.767226 7.0205,4.79826 7.0205,8.022999 0,1.354886 -1.59115,3.68629 -4.00288,5.865142 -4.32288,3.905462 -5.11475,4.158962 -8.06286,2.581178 C 287.34852,99.116155 287,99.260301 287,100.76482 c 0,1.00935 -0.50077,2.33595 -1.11282,2.948 -0.61205,0.61205 -1.50607,3.2178 -1.98671,5.79056 -1.05851,5.6659 0.15243,8.49662 3.63471,8.49662 4.05002,0 7.9957,5.12451 5.71482,7.4222 -0.4125,0.41554 -0.75,1.94326 -0.75,3.39493 0,1.8261 -0.60559,2.75851 -1.9653,3.02593 -1.86034,0.36587 -17.554,13.06541 -20.43371,16.53525 -1.53541,1.85006 -2.71213,2.05989 -3.58963,0.64008 z m 8.30949,-5.90366 c 3.67353,-3.2369 8.15382,-7.1744 9.95619,-8.75 L 288.05408,131.5 282.73005,124 c -3.30833,-4.66046 -6.82066,-8.34287 -9.27704,-9.72625 -8.71521,-4.90824 -10.19957,-4.98434 -12.52347,-0.64209 -1.1509,2.15047 -1.12936,2.92236 0.14504,5.19697 1.3238,2.36277 2.56863,2.85792 10.77592,4.28623 5.10357,0.88817 9.7277,2.06334 10.27583,2.61147 0.66215,0.66215 -1.12153,2.85925 -5.31486,6.54677 -4.80707,4.22722 -6.7286,6.73542 -8.06147,10.52274 -2.82712,8.0332 -2.69212,8.04029 6.07085,0.31889 z M 292,129.72859 c 0,-0.69928 -2.2467,-4.35315 -4.99267,-8.11972 -4.59565,-6.30372 -4.94411,-7.17675 -4.38193,-10.97859 0.33591,-2.27165 1.23262,-5.12695 1.99268,-6.3451 1.49795,-2.40077 1.7898,-6.13101 0.61661,-7.881208 -2.81811,-4.204135 -14.61773,-0.524233 -19.89359,6.204138 -5.13315,6.54638 -7.50257,12.55336 -3.28995,8.34074 2.22897,-2.22897 5.0506,-1.94048 8.21608,0.84001 1.61959,1.42261 2.01886,1.31123 4.77905,-1.3332 2.67629,-2.56405 2.94376,-3.33926 2.40098,-6.95879 -0.49324,-3.28913 -0.19863,-4.547236 1.53031,-6.535086 L 281.1187,94.5 l -1.65281,2.717104 c -1.20186,1.975779 -1.46786,3.811766 -0.97495,6.729266 0.38502,2.27895 0.18687,5.49983 -0.45869,7.45592 -1.05274,3.18982 -0.89305,3.76531 2.1656,7.80429 1.81618,2.39828 4.42715,6.02985 5.80215,8.07014 2.41762,3.58738 6,5.0513 6,2.45187 z m 1,-6.21618 C 293,121.50443 290.15707,119 287.87768,119 c -1.84222,0 -1.79489,0.24199 0.68269,3.49026 C 291.1454,125.8794 293,126.3064 293,123.51241 z m -15.80776,-12.50306 c 0.86875,-2.34844 0.84979,-2.35736 -1.15449,-0.54351 -2.21787,2.00714 -2.73051,3.93175 -0.88325,3.31599 0.63497,-0.21165 1.55196,-1.45927 2.03774,-2.77248 z m 18.502,-13.432272 2.80576,-2.422922 -2.93709,-3.077078 c -3.88969,-4.07508 -6.06686,-3.924675 -8.19799,0.56634 -1.70079,3.584151 -1.69162,3.673619 0.56387,5.5 3.018,2.443832 4.39602,2.343332 7.76545,-0.56634 z M 228,146.2 c 0,-0.44 0.47491,-1.27491 1.05536,-1.85536 1.29722,-1.29722 0.16317,-6.35815 -1.41377,-6.3092 -0.62787,0.0195 -2.26659,0.67854 -3.64159,1.46456 -6.23831,3.56614 -11,0.37254 -11,-7.37756 0,-3.11565 0.54184,-5.32724 1.5,-6.12244 0.825,-0.68469 1.5,-1.56541 1.5,-1.95715 0,-0.86266 -19.28994,-5.34916 -23.48558,-5.46232 -4.48623,-0.121 -4.60656,-3.22626 -0.19642,-5.06893 3.13085,-1.30815 4.42773,-1.24483 13.20175,0.64457 9.0454,1.94784 9.96383,1.98365 13.0561,0.50905 3.57808,-1.70627 5.9335,-4.67149 6.8832,-8.66522 0.52708,-2.21655 -0.33115,-3.17967 -7.56948,-8.494579 -4.49019,-3.297019 -8.75143,-6.897019 -9.46944,-8 -0.95446,-1.466213 -1.25312,-6.150765 -1.11078,-17.42276 0.22388,-17.729296 1.19478,-19.713947 5.20649,-10.642761 1.93942,4.385373 2.48715,7.310336 2.49781,13.338613 0.0205,11.611825 -0.0896,11.443228 10.64035,16.291064 10.63457,4.804755 12.346,6.803769 12.346,14.420603 0,5.50543 -2.38514,10.47335 -7.86625,16.3843 -3.92494,4.23274 -4.00902,4.46604 -2.59506,7.20034 0.80372,1.55422 1.46131,3.71174 1.46131,4.79448 0,1.08274 0.76869,3.30799 1.7082,4.94499 1.40691,2.4514 1.49888,3.43579 0.52144,5.58104 C 230.12466,146.82051 228,148.00773 228,146.2 z m -6.6203,-12.23506 c 0.48384,-0.45339 0.93384,-2.48264 1,-4.50943 0.0948,-2.90521 -0.33142,-3.85656 -2.0142,-4.49535 -3.69276,-1.40178 -6.3655,1.40134 -6.3655,6.676 l 0,4.52275 3.25,-0.68481 c 1.7875,-0.37664 3.64587,-1.05576 4.1297,-1.50916 z M 229.69908,121.25 C 234.59753,115.95448 237,110.80032 237,105.58689 237,100.95822 235.34722,96 233.8043,96 c -0.48107,0 -0.37297,0.937434 0.24022,2.083187 1.47815,2.761953 -1.45239,6.263163 -4.71957,5.638603 -1.78268,-0.34079 -2.3547,0.13717 -2.84707,2.37891 -0.33889,1.54296 -1.53857,3.97804 -2.66596,5.41128 l -2.04981,2.6059 2.11895,2.25551 c 2.12626,2.26331 2.83135,6.06828 1.29988,7.01478 -0.45048,0.27841 -0.63943,-0.71766 -0.41988,-2.2135 0.2679,-1.82537 -0.26141,-3.31751 -1.60969,-4.53768 -1.72653,-1.56249 -2.4756,-1.65265 -5.33011,-0.64155 -2.74358,0.97181 -4.92779,0.82184 -12.55772,-0.86221 -7.17126,-1.58281 -9.91027,-1.80374 -12.25,-0.98811 -3.36456,1.1729 -4.32391,4.43081 -1.05284,3.57541 1.07838,-0.282 8.84088,1.20113 17.25,3.29586 8.40911,2.09473 15.67861,3.84798 16.15443,3.8961 0.47582,0.0481 2.4261,-1.59999 4.33395,-3.66249 z m 3.2413,-19.67817 c 0.92225,-1.11124 0.85793,-2.061174 -0.28985,-4.280734 -1.07291,-2.074782 -3.56646,-3.771648 -9.14517,-6.223309 C 214.52359,87.120589 214,86.239279 214,75.068253 c 0,-5.693225 -0.57652,-9.188806 -2.13333,-12.9349 C 210.69335,59.310009 209.44015,57 209.08181,57 c -0.76156,0 -1.20531,28.698772 -0.48209,31.178257 0.26923,0.923042 3.73194,4.159815 7.6949,7.192829 9.79393,7.495694 14.20679,9.139534 16.64576,6.200744 z m 103.44917,39.8263 c -2.13925,-1.43102 -5.09744,-3.73685 -6.57376,-5.12406 -2.6987,-2.53581 -6.46374,-10.68805 -7.01802,-15.19574 -0.20708,-1.68413 -1.21145,-2.71369 -3.29777,-3.38049 -1.65,-0.52735 -3.79813,-1.65446 -4.77363,-2.5047 -1.3597,-1.1851 -2.04817,-1.27134 -2.95,-0.36951 -1.69133,1.69133 -4.22696,1.44904 -6.0031,-0.57363 -2.03854,-2.32148 -3.20748,-6.25 -1.85971,-6.25 0.57658,0 1.32252,1.09244 1.65764,2.42764 1.22902,4.89682 6.75525,3.91551 7.9243,-1.40714 0.76722,-3.49316 4.79826,-7.0205 8.023,-7.0205 1.35488,0 3.68629,1.59115 5.86514,4.00288 3.90546,4.32288 4.15896,5.11475 2.58118,8.06286 -0.84867,1.58574 -0.70452,1.93426 0.8,1.93426 1.00935,0 2.33595,0.50077 2.948,1.11282 0.61205,0.61205 3.2178,1.50607 5.79056,1.98671 5.6659,1.05851 8.49662,-0.15243 8.49662,-3.63471 0,-4.05002 5.12451,-7.9957 7.4222,-5.71482 0.41554,0.4125 1.94326,0.75 3.39493,0.75 1.84215,0 2.75775,0.60412 3.03118,2 0.39143,1.99825 6.95303,10.23215 14.54014,18.24586 5.27188,5.5683 4.06771,7.19718 -3.39093,4.5869 -4.09151,-1.43189 -6.45222,-3.21319 -10.79318,-8.14406 -3.83614,-4.35746 -5.77107,-5.90535 -6.25022,-5 -0.3817,0.72121 -1.25942,5.03589 -1.95049,9.58817 -1.0332,6.80598 -1.70226,8.62752 -3.76492,10.25 -3.56166,2.80161 -9.09677,2.55032 -13.84916,-0.62874 z m 4.5593,-0.44928 c -2.22897,-2.22897 -1.94048,-5.0506 0.84001,-8.21608 1.42261,-1.61959 1.31123,-2.01886 -1.3332,-4.77905 -2.56405,-2.67629 -3.33926,-2.94376 -6.95879,-2.40098 -3.28913,0.49324 -4.54724,0.19863 -6.53509,-1.53031 L 324.5,121.8813 l 2.7171,1.65281 c 1.97578,1.20186 3.81177,1.46786 6.72927,0.97495 2.27895,-0.38502 5.49983,-0.18687 7.45592,0.45869 3.18982,1.05274 3.76531,0.89305 7.80429,-2.1656 2.39828,-1.81618 6.02985,-4.42715 8.07014,-5.80215 3.58738,-2.41762 5.0513,-6 2.45187,-6 -0.69928,0 -4.35315,2.2467 -8.11972,4.99267 -6.30372,4.59565 -7.17675,4.94411 -10.97859,4.38193 -2.27165,-0.33591 -5.12695,-1.23262 -6.3451,-1.99268 -2.40077,-1.49795 -6.13101,-1.7898 -7.88121,-0.61661 -4.20668,2.81982 -0.52223,14.62741 6.20414,19.88246 4.69143,3.66523 7.46716,5.28108 9.14189,5.32182 0.72662,0.0177 0.39118,-0.82841 -0.80115,-2.02074 z m 8.72244,0.56884 c 1.65371,-1.15831 2.39448,-3.35212 3.38895,-10.0365 1.88499,-12.67005 2.44076,-12.99386 9.16924,-5.34234 4.35099,4.94788 6.74485,6.7664 10.77479,8.18518 2.84955,1.00321 5.41481,1.59022 5.70057,1.30447 0.28575,-0.28576 -2.17931,-3.58157 -5.47791,-7.32403 -3.29861,-3.74246 -7.2866,-8.27914 -8.8622,-10.08151 L 361.5,114.94592 354,120.25541 c -4.29482,3.04043 -8.19133,6.67944 -9.11768,8.51514 -0.88972,1.7631 -2.07214,3.7735 -2.62761,4.46755 -2.3256,2.90582 -2.36345,5.58269 -0.10862,7.68338 2.63879,2.4584 4.64016,2.61697 7.5252,0.59621 z m -5.88946,-13.67219 c -0.21165,-0.63497 -1.45927,-1.55196 -2.77248,-2.03774 -2.34844,-0.86875 -2.35736,-0.84979 -0.54351,1.15449 2.00714,2.21787 3.93175,2.73051 3.31599,0.88325 z m -15.22195,-13.29654 c 1.82595,-2.78676 1.29521,-5.46514 -1.60264,-8.08766 -1.93224,-1.74865 -2.08076,-1.71714 -4.97447,1.05521 -3.71458,3.55879 -3.78577,5.9514 -0.23277,7.82285 3.95528,2.08333 5.00691,1.96128 6.80988,-0.7904 z m 26.87136,-3.66022 C 353.88688,108.38992 349,111.60688 349,115.12232 c 0,1.84222 0.24199,1.79489 3.49026,-0.68269 1.91964,-1.46418 3.24308,-3.06208 2.94098,-3.55089 z M 58.5,69.876863 c -2.75,-2.210444 -7.9905,-5.978934 -11.645555,-8.374422 -7.385157,-4.840162 -8.585917,-6.170969 -6.999409,-7.757477 1.886113,-1.886113 8.937422,1.048591 20.08327,8.358513 C 65.721839,65.896565 70.094743,69 69.655869,69 69.216996,69 64.502386,66.145016 59.178959,62.655591 50.113201,56.713126 44.524893,54 41.350777,54 38.53755,54 40.199051,56.151995 45.75,59.697926 c 8.141516,5.200778 20.133451,14.694392 18,14.25 -0.1375,-0.02864 -2.5,-1.86062 -5.25,-4.071063 z"
       id="path2989"
       style="fill:#000000" />
  </g>
</svg>
