<?xml version="1.0" encoding="UTF-8" standalone="no"?>
<!-- Created with Inkscape (http://www.inkscape.org/) -->

<svg
   xmlns:dc="http://purl.org/dc/elements/1.1/"
   xmlns:cc="http://creativecommons.org/ns#"
   xmlns:rdf="http://www.w3.org/1999/02/22-rdf-syntax-ns#"
   xmlns:svg="http://www.w3.org/2000/svg"
   xmlns="http://www.w3.org/2000/svg"
   xmlns:sodipodi="http://sodipodi.sourceforge.net/DTD/sodipodi-0.dtd"
   xmlns:inkscape="http://www.inkscape.org/namespaces/inkscape"
   id="svg3360"
   version="1.1"
   inkscape:version="0.91 r13725"
   width="600"
   height="290"
   viewBox="0 0 600 290"
   sodipodi:docname="ub850602.svg">
  <metadata
     id="metadata3366">
    <rdf:RDF>
      <cc:Work
         rdf:about="">
        <dc:format>image/svg+xml</dc:format>
        <dc:type
           rdf:resource="http://purl.org/dc/dcmitype/StillImage" />
        <dc:title></dc:title>
      </cc:Work>
    </rdf:RDF>
  </metadata>
  <defs
     id="defs3364" />
  <sodipodi:namedview
     pagecolor="#ffffff"
     bordercolor="#666666"
     borderopacity="1"
     objecttolerance="10"
     gridtolerance="10"
     guidetolerance="10"
     inkscape:pageopacity="0"
     inkscape:pageshadow="2"
     inkscape:window-width="1179"
     inkscape:window-height="916"
     id="namedview3362"
     showgrid="false"
     inkscape:zoom="0.70710678"
     inkscape:cx="287.46871"
     inkscape:cy="79.852605"
     inkscape:window-x="538"
     inkscape:window-y="15"
     inkscape:window-maximized="0"
     inkscape:current-layer="svg3360" />
  <g
     id="g4212"
     transform="translate(-17.584515,9.6488869)">
    <path
       style="fill:#fefefe"
       d="m 110.25586,6.5625 c -0.39048,0 -0.53626,9.808594 -0.32422,21.796875 0.52102,29.458074 0.79025,33.685779 2.30274,36.115234 2.73464,4.392555 5.83532,1.377422 5.86132,-5.701171 0.01,-2.676453 -0.69103,-11.406251 -1.55859,-19.398438 -0.86755,-7.992188 -1.58003,-16.478916 -1.58203,-18.859375 C 114.95238,16.29675 111.67435,6.5625 110.25586,6.5625 Z M 33.039062,48.75 c -2.721458,0 -0.98892,2.066238 5.044922,6.015625 3.469627,2.271007 8.622116,6.036136 11.449219,8.367187 2.827103,2.331051 5.172038,4.267545 5.210938,4.302735 0.0389,0.03519 1.018735,-0.947994 2.177734,-2.185547 L 59.029297,63 49.841797,56.958984 C 41.242375,51.304065 36.01603,48.75 33.039062,48.75 Z M 223.89062,59.101562 c -1.47046,-0.06232 -3.31082,0.387431 -5.36523,1.453126 -1.58237,0.820832 -7.7644,2.756056 -13.73828,4.300781 -5.97388,1.544723 -11.37693,3.23562 -12.00586,3.757812 -2.39778,1.990879 -2.33641,6.841758 0.17578,13.964844 2.9367,8.326661 2.8589,6.775459 0.89258,17.939455 -1.30453,7.40663 -1.38177,9.37958 -0.41602,10.54687 2.34898,2.83919 2.82813,1.27213 2.82813,-9.24804 l 0,-10.685551 3.30273,-2.908203 c 1.81694,-1.600291 3.74153,-2.910156 4.27539,-2.910156 0.53385,0 -0.37566,-2.358086 -2.01953,-5.240234 -2.50766,-4.396639 -2.78102,-5.430038 -1.70312,-6.414063 1.32243,-1.20725 14.83669,-4.34321 18.1289,-4.207031 1.01629,0.04204 -2.43266,0.991257 -7.66406,2.109375 -5.23139,1.118118 -9.797,2.325514 -10.14648,2.681641 -0.96036,0.978639 5.10922,11.070312 6.6582,11.070312 1.04627,0 0.83515,-1.016305 -0.9375,-4.525391 l -2.28516,-4.523437 6.3086,-2.039063 c 3.46947,-1.120906 7.58033,-2.037109 9.13476,-2.037109 3.05059,0 4.81842,-1.547938 7.23633,-6.335938 2.01772,-3.995521 0.57487,-6.612892 -2.66016,-6.75 z m 30.09961,1.052735 c -1.9468,0.196904 -4.23087,2.107879 -11.29882,9.042969 -5.23243,5.134072 -10.88023,10.028383 -12.55079,10.875 -5.62516,2.850761 -2.9765,4.287262 4.63477,2.513672 1.91913,-0.447201 4.85,-2.216623 6.56641,-3.962891 1.70518,-1.734833 5.29743,-5.082847 7.98242,-7.439453 l 4.88086,-4.285156 0.0117,3.347656 c 0.0136,4.115742 2.25341,12.815521 3.77148,14.65039 1.46962,1.77631 6.40442,1.753465 7.08789,-0.0332 0.73437,-1.919722 -3.19493,-16.411077 -5.63867,-20.794922 -1.46261,-2.623796 -2.71719,-3.681513 -4.62109,-3.902343 -0.27729,-0.03216 -0.54806,-0.03985 -0.82618,-0.01172 z m 25.00391,0.644531 c -0.44738,-0.03678 -0.9423,0.21795 -1.48437,0.761719 -1.21973,1.223551 1.22067,17.860952 3.16796,21.595703 1.67899,3.220185 2.1271,5.416251 0.63086,3.09375 -0.74428,-1.155284 -0.90812,-1.057687 -0.91992,0.546875 -0.008,1.074219 0.26473,2.234375 0.60742,2.578125 1.17845,1.182139 5.0441,0.623128 5.5918,-0.808594 0.30159,-0.788402 -0.50886,-3.882259 -1.80273,-6.875 -1.41361,-3.269698 -2.62361,-8.339364 -3.03125,-12.703125 -0.50007,-5.353136 -1.41763,-8.079104 -2.75977,-8.189453 z M 60.818359,64.6875 c -0.393646,0 -1.516894,0.89198 -2.496093,1.982422 -1.767126,1.967883 -1.756573,2.00099 1.439453,4.453125 1.770981,1.358777 5.533793,4.489488 8.361328,6.957031 2.827534,2.467544 5.78616,4.361226 6.574219,4.208984 2.025914,-0.391373 3.532083,-5.089283 2.277343,-7.103515 C 76.007537,73.633109 62.24055,64.6875 60.818359,64.6875 Z m 258.876951,7.832031 c -1.84434,0.07357 -3.77035,0.837418 -4.88086,2.179688 -1.01334,1.224805 -0.79556,1.804783 1.38867,3.689453 3.04075,2.623712 4.14863,2.747838 6.95313,0.777344 2.55325,-1.793946 2.63149,-3.373176 0.27148,-5.515625 -0.91195,-0.827888 -2.29793,-1.188077 -3.73242,-1.13086 z m 9.11328,4.5 c -0.19288,-8.83e-4 -0.39281,0.0092 -0.59961,0.0332 -1.93667,0.224438 -2.57441,0.864807 -2.79882,2.814454 -0.15978,1.388219 0.31697,3.497595 1.05859,4.6875 0.74162,1.189904 1.60232,3.895885 1.91406,6.011718 0.50676,3.439675 0.16787,4.407431 -3.21093,9.140625 C 323.09349,102.61855 321.15495,105 320.86523,105 c -0.28973,0 0.59654,-1.47656 1.96875,-3.28125 2.53256,-3.330722 2.21,-4.252016 -0.73242,-2.09375 -1.0039,0.73637 -1.7762,2.87487 -2.0332,5.625 -0.35024,3.74805 -0.16314,4.43764 1.20703,4.43164 0.8921,-0.004 2.67395,-1.5716 3.95899,-3.48437 1.28505,-1.91278 3.72451,-5.31802 5.42187,-7.566411 2.85856,-3.786544 3.00731,-4.325954 2.02344,-7.316406 -0.59035,-1.79437 -0.78796,-4.854287 -0.44531,-6.888672 0.77742,-4.615899 -0.53259,-7.392994 -3.42579,-7.40625 z m -34.32031,4.589844 c -1.48593,-0.03958 -2.88516,0.31443 -3.64648,1.078125 -1.73519,1.740606 -1.39537,6.163927 0.51367,6.683594 3.14571,0.856307 5.20099,0.140146 7.14844,-2.490235 1.93651,-2.615597 1.93816,-2.669219 0.14843,-3.984375 -1.107,-0.813463 -2.67813,-1.247527 -4.16406,-1.287109 z M 114.15625,85.3125 c -3.3247,0 -4.29447,2.388692 -3.0918,7.615234 0.59679,2.5935 1.08594,9.924796 1.08594,16.292966 0,10.2388 0.18849,11.6287 1.63477,12.00782 2.80042,0.73412 3.97265,0.67734 3.97265,-0.19141 0,-0.46046 -0.63131,-1.08015 -1.40234,-1.37695 -1.90304,-0.73256 -1.89472,-13.28702 0.0156,-22.564457 1.59377,-7.740009 0.83401,-11.783203 -2.21484,-11.783203 z m 230.89844,5.140625 c -1.63606,0.08407 -4.02168,1.251697 -8.10547,3.552734 -3.13771,1.767956 -9.06304,8.749781 -12.66797,14.925781 -0.76978,1.3188 0.62059,2.86932 8.18945,9.125 8.93856,7.38775 10.51953,8.40182 10.51953,6.74609 0,-2.84354 -3.56713,-8.19542 -8.86523,-13.29882 -3.89856,-3.75528 -5.80298,-6.22844 -5.23438,-6.79883 0.49157,-0.49309 4.79671,-1.5775 9.56641,-2.41016 7.67036,-1.33904 8.83507,-1.80248 10.07227,-4.017576 1.19103,-2.132447 1.21037,-2.856984 0.13476,-4.873047 -1.0859,-2.035375 -1.97332,-3.035246 -3.60937,-2.951172 z m -225.50196,1.623047 c -0.28821,-5.58e-4 -0.55626,0.108422 -0.77929,0.353516 -0.42587,0.46799 -1.0477,2.011718 -1.38086,3.429687 -0.5586,2.377378 -0.38701,2.578125 2.21484,2.578125 2.34784,0 2.82227,-0.373766 2.82227,-2.228516 0,-2.0605 -1.62802,-4.130394 -2.87696,-4.132812 z m -28.136714,1.773437 c -1.093352,-0.01453 -2.102398,0.707368 -2.78711,2.214844 -0.895913,1.972453 -0.852691,2.68854 0.22461,3.71875 0.733683,0.701607 5.959078,5.385997 11.613284,10.410157 7.40617,6.5809 10.36506,8.70639 10.58203,7.60156 0.17274,-0.87966 -2.72721,-4.85349 -6.80078,-9.31836 -3.90607,-4.28128 -7.827155,-9.241272 -8.712894,-11.021482 -1.169767,-2.351069 -2.713403,-3.586791 -4.11914,-3.605469 z M 384.02148,86.773438 c -0.69729,-0.01952 -1.37987,0.245671 -2.38476,0.785156 -4.05818,2.178656 -3.98753,3.569721 0.59961,11.740236 1.29418,2.30517 4.70501,5.56675 9.02148,8.62695 3.81668,2.70587 7.24368,4.72962 7.61719,4.49805 1.70333,-1.056 15.08471,-18.34537 14.58594,-18.84571 -1.41089,-1.41529 -8.3499,2.89191 -13.75196,8.53516 -3.76159,3.92957 -6.23803,5.84969 -6.80664,5.2793 -0.49156,-0.49309 -1.57227,-4.81111 -2.40234,-9.5957 -1.33487,-7.694336 -1.79767,-8.860506 -4.00586,-10.101568 -1.0629,-0.597375 -1.77536,-0.902353 -2.47266,-0.921874 z M 97.056641,95.625 c -1.022757,0 -0.16977,3.543775 1.294921,5.38086 1.280852,1.60652 2.583988,0.57023 2.583988,-2.054688 0,-2.002013 -1.544946,-3.326172 -3.878909,-3.326172 z m 113.521479,4.51172 c -0.48575,0.10487 -0.34766,2.3671 0.31446,7.21289 0.5527,4.04502 0.7369,4.3189 1.86914,2.76562 1.66717,-2.28711 1.53722,-3.99101 -0.61133,-7.92773 -0.76402,-1.3999 -1.28081,-2.1137 -1.57227,-2.05078 z m 171.59766,2.9082 c -0.73029,-0.033 -1.50512,0.17677 -2.62305,0.54688 -1.78877,0.59219 -4.83913,0.79096 -6.86718,0.44726 -4.90829,-0.83185 -7.73186,0.72001 -7.34961,4.03906 0.22374,1.94272 0.86307,2.58154 2.80664,2.80665 1.38389,0.16029 3.48568,-0.31662 4.67187,-1.06055 1.1862,-0.74394 3.88295,-1.60916 5.99219,-1.92188 3.42896,-0.50835 4.39484,-0.16671 9.11328,3.22266 2.90245,2.08488 5.27539,4.02774 5.27539,4.31836 0,0.29064 -1.47047,-0.59615 -3.26953,-1.97266 -1.79907,-1.3765 -3.27148,-2.14058 -3.27148,-1.69726 0,1.23987 2.18219,3.7148 3.66406,4.15625 0.72985,0.21742 2.72771,0.43567 4.43945,0.48437 4.27775,0.12164 4.10809,-2.32481 -0.36914,-5.35156 -1.90681,-1.28906 -5.29962,-3.73678 -7.54101,-5.43945 -2.35922,-1.79218 -3.45473,-2.5232 -4.67188,-2.57813 z m -183.45312,12.63672 c -0.14023,-0.0299 -0.33329,0.1671 -0.5918,0.56836 -0.49828,0.77344 -0.91192,2.37972 -0.91992,3.57031 -0.008,1.20709 0.39877,1.90903 0.91992,1.58594 0.51402,-0.31868 0.92692,-1.92496 0.91992,-3.57031 -0.007,-1.4227 -0.0944,-2.10443 -0.32812,-2.1543 z m 166.01172,-4.32226 c -0.78674,0.024 -1.62392,0.42429 -2.48829,1.20898 -2.02825,1.84128 -1.90773,5.9009 0.25391,8.51367 1.38528,1.67437 2.58343,1.22077 4.86719,-1.84765 1.55978,-2.09567 1.68129,-2.87467 0.76562,-4.89063 -0.91722,-2.01938 -2.08722,-3.02431 -3.39843,-2.98437 z m -251.87891,11.84765 c -0.26467,-0.2655 -3.91467,5.40612 -8.10938,12.60352 -4.19471,7.1974 -8.659759,13.76681 -9.923824,14.59765 -2.697063,1.77271 -2.959759,3.80128 -0.664063,5.14258 1.973028,1.15277 2.304393,1.18038 3.505859,0.29492 2.041524,-1.50456 16.105728,-31.72149 15.191408,-32.63867 z m 5.95117,2.41797 c -1.92508,0 -1.08177,1.45023 1.51953,2.61133 3.25462,1.45271 13.53527,8.55823 16.86328,11.65625 1.39213,1.29594 3.3704,2.82166 4.39844,3.39062 2.40868,1.33307 2.59327,1.32649 4.60938,-0.15234 2.58302,-1.89464 1.10803,-4.98717 -3.01758,-6.32617 -1.90301,-0.61763 -7.93004,-3.3846 -13.39258,-6.15039 -5.46255,-2.76578 -10.4033,-5.0293 -10.98047,-5.0293 z m 13.75586,11.94531 c -0.96816,-0.007 -1.09664,1.08158 0.17383,2.61719 1.27,1.53504 3.71289,1.8575 3.71289,0.49023 0,-0.48639 -0.94379,-1.54669 -2.09766,-2.35742 -0.73463,-0.51616 -1.34899,-0.74689 -1.78906,-0.75 z m 39.25,5.31836 c -1.86843,0.0325 -2.93991,0.20051 -3.49414,0.49805 -2.46526,1.32351 -2.45562,1.9833 0.0723,5.20703 l 2.03516,2.5957 21.01172,-0.67968 c 18.63016,-0.60229 21.46894,-0.903 25.06641,-2.65625 2.23136,-1.08747 4.05664,-2.35706 4.05664,-2.82227 0,-0.48168 -2.71615,-0.57484 -6.3086,-0.21484 -3.68359,0.36914 -14.14333,-0.0158 -25.13867,-0.92579 -8.85604,-0.73294 -14.18672,-1.05604 -17.30078,-1.00195 z m -67.31641,3.61914 c -0.20862,-0.0886 -0.66957,0.65613 -1.69531,2.34375 -1.02612,1.68825 -1.86523,3.27028 -1.86523,3.51563 0,0.83614 1.49092,0.44814 2.61523,-0.67969 0.61683,-0.61875 1.12114,-2.20078 1.11914,-3.51562 -0.001,-1.02229 -0.0116,-1.59515 -0.17383,-1.66407 z m -21.90234,24.57617 c -2.326897,-0.15011 -5.400439,2.50911 -15.060547,12.03125 -9.92774,9.78596 -10.41883,10.44716 -8.966797,12.05665 0.844938,0.93656 1.78936,1.70312 2.09961,1.70312 0.79969,0 20.794983,-16.23554 22.634765,-18.37891 2.667119,-3.10722 2.995041,-5.7615 0.855469,-6.91015 -0.529338,-0.28418 -1.025524,-0.46731 -1.5625,-0.50196 z M 55.294922,195.2832 c -0.658202,-0.0193 -1.45324,0.64485 -3.205078,2.14844 -3.664316,3.14505 -5.660096,6.94446 -4.8125,9.16016 0.478063,1.24971 1.606063,0.61016 5.990234,-3.38672 5.258144,-4.79366 5.356876,-4.97147 3.699219,-6.71094 -0.730974,-0.76705 -1.15994,-1.19589 -1.671875,-1.21094 z"
       id="path3380"
       inkscape:connector-curvature="0"
       sodipodi:nodetypes="ssssscssssccccsssssssssccssssssscccsssssssscccssssssssscccsssssssssssssssssssssssssscsssssssssssssscsssssssssscsssssssssssssscsssssssccssssssssscssscsssssssssssscssscsccccssssssssssssssssssssssssssscccssssscssscccsssssccssssc" />
    <path
       style="fill:#0000fe"
       d="m 118.91211,62.224609 c -0.0128,0.01533 -0.0262,0.05469 -0.0391,0.119141 -0.86626,4.334381 -5.24235,6.706456 -6.48633,3.515625 -0.73418,-1.883208 -2.89248,9.188345 -2.98438,15.3125 -0.0677,4.515678 0.49831,5.332192 2.72461,3.9375 2.11309,-1.323774 4.7367,-0.308834 5.35743,2.072266 1.21485,4.660125 1.89908,-0.14272 1.83398,-12.867188 -0.0366,-7.139351 -0.21425,-12.31985 -0.40625,-12.089844 z m 209.79883,12.916016 c -2.85589,0.133244 -2.8772,0.160861 -0.41992,0.533203 3.64648,0.552537 5.72644,4.072974 4.92773,8.34375 -0.54384,2.907959 -0.26229,3.792356 1.93945,6.097656 2.97171,3.111488 2.99816,3.120394 4.95508,1.402344 2.7924,-2.451555 5.46108,-2.676149 7.50195,-0.628906 3.93703,3.949333 1.72312,-1.681127 -3.07421,-7.81836 -3.26182,-4.172832 -11.19378,-8.145996 -15.83008,-7.929687 z M 78.941406,76.980469 c -0.317117,0.0059 -0.4375,0.24769 -0.4375,0.689453 0,0.970412 -0.820016,2.813125 -1.824218,4.09375 l -1.826172,2.328125 3.330078,3.1875 c 1.831276,1.753755 4.388547,4.848654 5.683594,6.876953 l 2.353515,3.6875 1.828125,-2.515625 c 1.004864,-1.383769 2.60767,-2.515625 3.5625,-2.515625 4.682477,0 1.654146,-5.271155 -6.90625,-12.019531 -3.415397,-2.692444 -5.066015,-3.825497 -5.763672,-3.8125 z m 186.732424,2.68164 0.45117,2.361329 c 0.24758,1.299199 -0.0715,2.993197 -0.70898,3.763671 -1.40928,1.703384 -5.70528,1.835832 -7.4004,0.228516 -1.01771,-0.965008 -1.05531,-0.818065 -0.21289,0.828125 1.37088,2.678841 3.28548,3.285919 8.4375,2.681641 2.42751,-0.284722 6.57262,0.07434 9.46094,0.818359 6.83798,1.761444 10.74477,1.820782 12.09766,0.185547 1.36337,-1.647896 0.93684,-7.278924 -0.58985,-7.78125 -0.84579,-0.2783 -0.85896,0.299408 -0.0566,2.431641 1.26289,3.356259 -0.20097,5.757812 -3.50781,5.757812 -2.79426,0 -4.54607,-2.263214 -3.86328,-4.992188 0.89542,-3.578749 -1.14538,-5.045266 -7.92578,-5.693359 z m -59.24805,6.59375 c -1.93466,-0.0296 -4.48378,0.843678 -6.35351,2.421875 l -2.87696,2.425782 0,10.699214 0,10.69727 6.37891,0 6.37695,0 -0.16211,-12.04883 c -0.0893,-6.626895 -0.45956,-12.53314 -0.82422,-13.124998 -0.43744,-0.710017 -1.37826,-1.052553 -2.53906,-1.070313 z m 173.58008,0.326172 c -1.22126,0.109547 -4.84805,2.105576 -8.67188,5.113281 -4.15983,3.272008 -8.11993,11.228128 -7.90429,15.878908 0.13283,2.86482 0.16008,2.88683 0.53125,0.42187 0.55292,-3.67184 3.99927,-5.69549 8.42578,-4.94531 3.12583,0.52977 3.87637,0.26336 6.26562,-2.23828 2.4876,-2.6046 2.59141,-2.98149 1.26172,-4.5 -2.59859,-2.96764 -2.8683,-5.611513 -0.78515,-7.701172 1.47638,-1.480998 1.60971,-2.095025 0.87695,-2.029297 z M 149.92188,137.14453 c -1.63865,0.0436 -2.20903,1.00333 -1.73829,2.88477 0.4231,1.691 0.0233,2.63944 -1.58789,3.77148 -1.18358,0.83161 -1.9538,1.55036 -1.71093,1.59766 0.24288,0.0473 5.27824,1.0457 11.18945,2.21875 5.91121,1.17305 11.07333,2.18911 11.4707,2.25781 0.39736,0.0687 0.0264,-0.93992 -0.82422,-2.24219 -1.44005,-2.20418 -1.43966,-2.48735 0.008,-4.09179 1.48117,-1.64178 1.37607,-1.74732 -2.21485,-2.23047 -2.07333,-0.27895 -6.04168,-1.45296 -8.81836,-2.60743 -2.57993,-1.07266 -4.49894,-1.59251 -5.77343,-1.55859 z m -58.798833,15.0625 c -0.893549,0.0288 -2.961201,2.83407 -5.210938,7.30469 -1.496278,2.97338 -3.98536,6.85296 -5.53125,8.61914 -3.422677,3.9104 -3.59031,4.92481 -0.474609,2.87695 2.169352,-1.42584 2.50869,-1.42176 4.746094,0.0488 1.599617,1.05138 2.222668,2.11156 1.853515,3.1543 -0.886095,2.50294 7.727569,-7.44126 9.773438,-11.28321 1.995271,-3.74693 2.457346,-6.85209 0.875,-5.87109 -1.369075,0.84878 -5.566406,-2.10118 -5.566406,-3.91211 0,-0.649 -0.166994,-0.94711 -0.464844,-0.9375 z"
       id="path3376"
       inkscape:connector-curvature="0"
       sodipodi:nodetypes="scssssssssssssssssccccccsssccsssssscsssccsccccccccssssssssssssscsccssssssssssssss" />
    <path
       style="fill:#fe0000"
       d="M 100.31923,217.0505 C 81.30184,213.58882 64.632814,204.62522 51.580801,190.84191 43.550688,182.36187 40.039962,177.25805 35.389645,167.30352 29.22538,154.10821 27.732962,146.98941 27.732962,130.78125 c 0,-16.20816 1.492418,-23.32696 7.656683,-36.522272 4.650317,-9.954523 8.161043,-15.05835 16.191156,-23.538387 6.768968,-7.148232 20.382994,-17.321819 20.380147,-15.229823 -9.2e-4,0.67539 -1.998583,2.487822 -4.439253,4.027627 -6.732311,4.247377 -19.104989,16.602384 -24.089917,24.055513 -5.063218,7.57018 -9.657515,17.942122 -12.190047,27.519842 -2.43324,9.20222 -2.43324,30.17278 0,39.375 6.836312,25.8541 23.560571,46.21078 47.329883,57.60969 13.149963,6.30625 20.51751,7.85762 37.316236,7.85762 17.01031,0 24.27148,-1.56387 37.85047,-8.15201 7.39963,-3.59009 20.09346,-12.07681 20.09346,-13.4339 0,-0.27001 -1.0514,-0.22621 -2.33645,0.0973 -4.1697,1.04981 -2.50833,-1.25828 2.77762,-3.85886 5.49648,-2.70414 7.01738,-2.45107 5.39181,0.89718 -0.56287,1.15938 -1.39587,3.34721 -1.85109,4.86187 -0.93233,3.10208 -2.72992,4.20424 -3.20247,1.96354 -0.24059,-1.14082 -1.59736,-0.51142 -5.91961,2.74611 -18.77562,14.15054 -44.91061,20.26386 -68.37236,15.99319 z M 302.17134,63.515625 c 0.27763,-1.160156 0.79058,-3.691406 1.1399,-5.625 0.64911,-3.59313 1.91927,-4.662158 2.46137,-2.071598 0.23412,1.118845 1.67015,0.545033 6.37693,-2.548115 5.85957,-3.850724 6.33962,-3.992755 13.5514,-4.00948 4.11215,-0.0095 9.04136,0.310152 10.9538,0.710418 3.50451,0.733481 9.13966,4.707105 9.13966,6.444825 0,0.515625 -1.26368,-0.12914 -2.80817,-1.432812 -3.22883,-2.725365 -8.98769,-3.942783 -17.80882,-3.764769 -6.23981,0.125922 -10.74433,1.809088 -15.83161,5.915673 l -2.33645,1.88604 2.10281,0.02085 c 3.28488,0.03257 2.49234,1.517148 -2.22052,4.159445 -5.25449,2.94597 -5.35159,2.95244 -4.7203,0.314527 z"
       id="path3374"
       inkscape:connector-curvature="0" />
    <path
       style="fill:#000000"
       d="m 109.84961,5.7851562 c -0.31227,-0.00534 -0.59016,0.1647975 -0.81836,0.5429688 -0.23336,0.3867187 -0.0848,14.414062 0.33008,31.171875 0.50214,20.282759 0.42755,32.559369 -0.22266,36.720703 -0.72694,4.652356 -0.6741,8.009215 0.20508,13.125 0.64973,3.780615 1.34437,11.513672 1.54297,17.185547 l 0.36133,10.3125 -5.73047,-6.09375 c -5.00755,-5.32481 -5.48247,-6.13252 -3.75391,-6.39453 2.63611,-0.39957 4.14739,-3.458167 3.49219,-7.072267 -0.29306,-1.616566 -0.72267,-4.6985 -0.95313,-6.849609 -0.24829,-2.317494 -1.24052,-4.736779 -2.4375,-5.9375 -2.355902,-2.363268 -3.80947,-1.734718 -1.62109,0.701172 0.81351,0.905505 1.7683,2.80664 2.12109,4.224609 0.5937,2.386348 0.43071,2.578125 -2.1875,2.578125 -1.555744,0 -3.389653,0.212086 -4.074214,0.470703 -0.705504,0.266528 -1.899001,-0.68772 -2.75586,-2.203125 -1.826484,-3.230243 -16.790508,-15.33725 -25.576172,-20.691406 -3.495121,-2.129994 -6.491495,-3.73559 -6.658203,-3.56836 -0.16671,0.167231 3.114495,2.392951 7.291016,4.945313 8.553212,5.227054 9.709285,6.560307 8.808594,10.160156 -0.950253,3.797946 -3.041389,4.007827 -6.939453,0.695313 -1.898324,-1.613166 -5.974482,-4.855998 -9.058594,-7.207032 -3.084112,-2.351034 -3.942825,-2.878243 -1.908203,-1.171874 10.775374,9.036948 20.896839,18.681435 23.201171,22.109374 0.502234,0.747125 1.749686,2.134612 3.439454,3.875 L 83.867188,94.15625 C 82.572141,92.127951 80.01487,89.033052 78.183594,87.279297 l -3.330078,-3.1875 1.826172,-2.328125 c 1.004202,-1.280625 1.824218,-3.123338 1.824218,-4.09375 0,-1.41364 1.233321,-0.793235 6.201172,3.123047 8.560396,6.748376 11.588727,12.019531 6.90625,12.019531 -0.95483,0 -2.557636,1.131856 -3.5625,2.515625 l -1.769531,2.433594 c 3.121938,3.188351 7.684327,7.514801 12.316406,11.630861 l 13.484377,11.98437 -2.94141,5.16993 c -1.61834,2.84414 -3.80253,6.7195 -4.85351,8.61132 -1.74467,3.14047 -2.31237,3.46733 -6.519535,3.75196 -3.873252,0.26204 -5.00627,-0.062 -7.107422,-2.03321 -1.374852,-1.28985 -2.720719,-2.97851 -2.992187,-3.75195 -0.271466,-0.77345 -0.79292,-1.12982 -1.158204,-0.79102 -0.886167,0.82193 1.890164,6.10475 3.759766,7.1543 0.965535,0.54203 1.596003,2.48229 1.808594,5.56641 0.281823,4.08846 0.0033,5.03581 -2.042969,6.94922 -1.303057,1.21846 -3.546861,4.54193 -4.984375,7.38671 -3.487547,6.90171 -7.018253,11.39538 -18.693359,23.78711 l -9.8125,10.41602 10.746093,-10.41602 c 5.911215,-5.72866 11.695021,-10.9117 12.851563,-11.51757 3.020571,-1.58239 6.161262,0.19587 5.308594,3.00586 -0.912493,3.00715 -2.66886,4.77515 -13.019531,13.10351 -8.873805,7.14006 -14.173519,11.79782 -10.748047,9.44727 6.554174,-4.49747 21.564587,-17.53304 27.044921,-23.48633 6.57041,-7.13744 9.67799,-12.15711 10.771485,-17.40235 0.295608,-1.41795 1.095773,-2.57812 1.777343,-2.57812 2.34863,0 4.33357,-3.3366 4.22852,-7.10547 -0.0675,-2.42201 1.06065,-6.1968 3.30468,-11.06445 1.87357,-4.06407 3.24121,-7.55505 3.03907,-7.75781 -0.20213,-0.20278 -1.50544,2.27809 -2.89454,5.51367 -5.10343,11.88726 -10.388502,22.24994 -11.591792,22.72851 -1.69485,0.67407 -4.83789,-1.14211 -4.83789,-2.79492 -10e-7,-0.74341 1.034762,-2.03049 2.298828,-2.86133 1.264065,-0.83084 5.717804,-7.3795 9.898434,-14.55273 4.18063,-7.17324 7.75651,-13.04297 7.94532,-13.04297 0.53795,0 0.58742,2.45954 1,49.45312 0.33642,38.31777 0.57638,44.29688 1.77343,44.29688 1.20219,0 1.38282,-5.71544 1.38282,-43.53906 0,-28.11141 0.33205,-43.74378 0.9375,-44.11914 0.51574,-0.31974 3.80381,1.19961 7.30664,3.37695 l 6.36914,3.95898 -1.44141,4.02149 c -1.38986,3.87714 -1.36378,4.12643 0.73828,6.97851 2.01212,2.73004 2.06331,3.07489 0.66211,4.48047 -1.28152,1.28552 -1.82104,1.33324 -3.46289,0.30469 -2.52701,-1.58307 -3.71941,-0.40623 -1.34961,1.33203 2.65756,1.94932 4.95525,1.62951 6.62305,-0.92383 0.80993,-1.23998 2.51214,-2.51787 3.7832,-2.83789 1.27107,-0.32002 3.11512,-1.38743 4.09766,-2.37304 1.42588,-1.43034 2.31761,-1.61841 4.41601,-0.9336 1.44596,0.47189 8.47322,1.97155 15.61719,3.33203 12.43301,2.36772 13.81444,2.44368 32.24414,1.78711 17.80722,-0.63438 19.5927,-0.85692 23.75586,-2.96875 6.29193,-3.19169 5.29919,-4.59994 -2.99805,-4.25195 -7.43729,0.31192 -40.41027,-2.15918 -49.1289,-3.68164 -3.06227,-0.53475 -6.84626,-1.64311 -8.41016,-2.46289 -1.56389,-0.81977 -5.28819,-1.55286 -8.27539,-1.63086 -4.6117,-0.12048 -7.07997,-0.97457 -16.35547,-5.6543 -6.00813,-3.03126 -11.05507,-5.82435 -11.21679,-6.20703 -0.16171,-0.38269 -0.8989,-0.4637 -1.63672,-0.17969 -0.73781,0.28401 -1.33985,0.0845 -1.33985,-0.44336 0,-0.52782 0.49897,-1.12596 1.10938,-1.33007 0.71429,-0.23883 0.38023,-1.10198 -0.93555,-2.42188 -1.75389,-1.75937 -2.04215,-3.0832 -2.03125,-9.3164 0.0186,-10.56319 0.40013,-11.48438 4.74609,-11.48438 3.08843,0 3.82084,-0.418296 5.10743,-2.914062 0.89344,-1.733185 1.26513,-3.858551 0.91797,-5.246094 -0.7472,-2.986311 1.06371,-5.444761 2.89062,-3.923828 0.70283,0.585118 1.2793,1.645166 1.2793,2.355468 0,0.710302 0.41958,1.291016 0.93359,1.291016 1.17531,0 1.18178,-1.102012 0.0234,-4.158203 -0.99796,-2.633026 -3.28725,-3.060694 -5.86524,-1.097656 -0.90013,0.68542 -2.58233,1.063772 -3.73828,0.841797 -2.05118,-0.393895 -2.09788,-0.677263 -1.96679,-11.822266 0.0739,-6.280626 -0.43243,-15.216797 -1.12305,-19.857422 -1.51273,-10.164855 -3.2168,-28.437682 -3.2168,-34.476562 0,-5.918351 -3.85319,-14.544619 -6.03906,-14.5820318 z M 86.279297,97.761719 c -0.122499,-0.125105 -0.214052,-0.226142 -0.332031,-0.347657 l 0.273437,0.429688 z M 110.28711,6.5625 c 1.39236,0 4.66497,9.783235 4.66797,13.953125 0.004,6.222389 2.64141,32.841053 3.37109,34.025391 0.3384,0.549263 0.74678,8.318333 0.90821,17.265625 0.16142,8.947291 -0.0556,16.486144 -0.48438,16.751953 -0.42875,0.265811 -0.99898,-0.354104 -1.26562,-1.376953 -0.62073,-2.3811 -3.24434,-3.39604 -5.35743,-2.072266 -2.2263,1.394692 -2.79241,0.578178 -2.72461,-3.9375 0.0919,-6.124155 2.2502,-17.195708 2.98438,-15.3125 0.35179,0.902344 1.21828,1.640625 1.92578,1.640625 1.84356,0 4.39459,-3.114671 4.28516,-5.230469 -0.0733,-1.417031 -0.22584,-1.319003 -0.72071,0.455078 -0.34598,1.240264 -1.34474,2.706728 -2.21875,3.259766 -2.12811,1.346568 -4.19266,-1.408778 -4.83398,-6.453125 C 110.03245,53.30337 109.55848,6.5625 110.28711,6.5625 Z m 125.47461,27.185547 c -0.58449,-0.02632 -1.22025,0.157279 -1.88281,0.576172 -1.84498,1.16646 -2.48193,7.581625 -0.94336,9.503906 C 233.45143,44.472656 234.61151,45 235.51367,45 c 2.44602,0 3.53152,-1.914906 3.39453,-5.992188 -0.10777,-3.207795 -1.39303,-5.180818 -3.14648,-5.259765 z m -7.41797,0.002 c -1.00338,0 -4.04492,3.01518 -4.04492,4.009766 0,0.498846 0.63131,0.38213 1.40234,-0.259766 1.21172,-1.008781 1.40235,-0.579725 1.40235,3.166016 0,2.383448 0.41957,4.333984 0.93359,4.333984 0.51921,0 0.93555,-2.5 0.93555,-5.625 0,-3.09375 -0.28387,-5.625 -0.62891,-5.625 z m 15.78125,0.02539 c -0.57952,-0.02829 -1.20142,0.144277 -1.83594,0.542968 -1.96737,1.236166 -2.70389,7.417284 -1.11328,9.339844 0.61012,0.737454 1.84784,1.341797 2.75,1.341797 2.536,0 3.8873,-2.339023 3.56445,-6.167969 -0.25913,-3.073177 -1.62666,-4.971778 -3.36523,-5.05664 z m 7.63672,0.115234 c -1.65341,-0.03972 -2.66237,2.062693 -1.86524,4.146484 0.89134,2.330061 3.8418,1.197854 3.8418,-1.474609 0,-1.463847 -0.60407,-2.434896 -1.63867,-2.634766 -0.11563,-0.02234 -0.22766,-0.03446 -0.33789,-0.03711 z m 0.0762,1.230469 c 0.0564,0.02106 0.11878,0.108398 0.18359,0.269531 0.25926,0.644531 0.25926,1.699219 0,2.34375 -0.25926,0.644531 -0.47265,0.117187 -0.47265,-1.171875 0,-0.966797 0.12002,-1.504578 0.28906,-1.441406 z M 235.51367,35.625 c 1.03842,0 1.86914,0.625 1.86914,1.40625 0,0.78125 -0.83072,1.40625 -1.86914,1.40625 -1.03842,0 -1.86914,-0.625 -1.86914,-1.40625 0,-0.78125 0.83072,-1.40625 1.86914,-1.40625 z m 8.41211,0.46875 c 0.97257,0 1.40039,0.980902 1.40039,3.203125 0,3.324107 -1.92901,5.046376 -2.87695,2.568359 -0.89692,-2.344654 -0.0197,-5.771484 1.47656,-5.771484 z m -8.41211,4.21875 c 1.03842,0 1.86914,0.625 1.86914,1.40625 0,0.78125 -0.83072,1.40625 -1.86914,1.40625 -1.03842,0 -1.86914,-0.625 -1.86914,-1.40625 0,-0.78125 0.83072,-1.40625 1.86914,-1.40625 z M 33.134766,47.990234 c -0.663334,0.01652 -1.16363,0.189941 -1.494141,0.521485 -1.482717,1.487351 -0.361,2.733833 6.541016,7.271484 3.41594,2.24577 8.312718,5.779272 10.882812,7.851563 2.570094,2.07229 4.779699,3.789556 4.908203,3.816406 1.99388,0.416617 -9.213372,-8.483646 -16.822265,-13.359375 C 31.962588,50.767486 30.409879,48.75 33.039062,48.75 c 2.966464,0 8.187486,2.544173 16.660157,8.115234 4.975166,3.271336 9.382807,5.947266 9.792969,5.947266 0.410163,0 -3.676861,-2.908824 -9.082032,-6.464844 C 41.946604,50.779552 36.00921,47.918654 33.134766,47.990234 Z M 223.39062,58.171875 c -1.40519,0.01738 -3.0389,0.497928 -4.86523,1.445313 -1.58237,0.820833 -7.7644,2.754736 -13.73828,4.296874 -5.97388,1.54214 -11.58905,3.460151 -12.47852,4.261719 -2.85186,2.569997 -2.93376,6.868539 -0.28125,14.794922 l 2.45704,7.34375 -1.58594,9.693357 c -1.51739,9.2753 -1.5124,9.77567 0.0996,11.5625 0.92665,1.02715 2.69516,1.86719 3.92968,1.86719 2.13285,0 2.17151,0.1041 0.78907,2.08398 -2.08979,2.99292 -1.84137,7.8407 0.52343,10.2129 1.60211,1.60714 2.76063,1.89595 6.08985,1.51953 4.88687,-0.55254 5.93283,0.55094 3.24414,3.42187 -1.08189,1.15522 -1.9668,2.39065 -1.9668,2.74414 0,1.17508 1.25781,0.66499 3.44531,-1.39648 2.20372,-2.07676 2.84233,-4.92898 1.31641,-5.875 -0.46509,-0.28834 -0.62196,-2.20238 -0.34766,-4.25391 0.33378,-2.49627 0.0267,-4.45477 -0.93164,-5.92187 -1.36682,-2.09255 -1.31071,-2.23961 1.25977,-3.21289 1.48109,-0.5608 3.2007,-2.13583 3.82031,-3.5 0.97677,-2.15047 0.78844,-3.16918 -1.41015,-7.66602 -1.91913,-3.925298 -2.3914,-5.959142 -1.94141,-8.365234 0.45768,-2.447283 -0.0791,-4.625259 -2.33398,-9.458985 -1.61114,-3.453665 -2.60107,-6.573254 -2.20118,-6.93164 1.3876,-1.243584 9.95296,-3.712891 12.87891,-3.712891 3.23562,0 5.79134,-2.243865 8.35937,-7.337891 1.44168,-2.859722 1.44906,-3.306743 0.0879,-5.390625 -0.9824,-1.504004 -2.41207,-2.246956 -4.21876,-2.224609 z m 98.28126,0.04102 c -0.32493,-0.06872 -0.23911,0.457873 0.0937,1.751953 0.73058,2.840335 -1.53745,5.660156 -4.55273,5.660156 -2.5305,0 -5.99805,4.074964 -5.99805,7.048828 0,1.270206 1.48629,3.455373 3.74024,5.498047 4.04008,3.661369 4.78186,3.899094 7.53711,2.419922 1.43052,-0.767986 1.80664,-0.663077 1.80664,0.501953 0,0.80972 0.58068,2.406813 1.29101,3.548828 1.56687,2.519074 2.64405,9.179222 1.7168,10.617188 -0.36922,0.572578 -2.0554,1.752972 -3.74805,2.623046 -3.43415,1.765285 -5.09926,5.108434 -4.67968,9.400384 0.18754,1.91839 0.85786,2.96706 2.03711,3.19141 0.9661,0.1838 6.01272,3.87571 11.21484,8.20312 5.20211,4.32742 9.78585,7.87196 10.1875,7.87696 1.52714,0.018 1.61016,-2.56653 0.19141,-5.97266 -0.81052,-1.94593 -4.21387,-6.11174 -7.56446,-9.25586 -4.23865,-3.97742 -5.71962,-5.91355 -4.86523,-6.36719 0.67539,-0.35861 4.70843,-1.18219 8.96289,-1.83007 8.80879,-1.34141 11.42383,-3.423718 11.42383,-9.097656 0,-8.691435 -12.15375,-19.96875 -21.52149,-19.96875 -2.17461,0 -2.77734,-0.416376 -2.77734,-1.917969 0,-1.054688 -1.01211,-2.934028 -2.25,-4.175781 -1.89432,-1.900247 -2.04328,-2.43131 -0.93555,-3.353516 1.7754,-1.478046 1.6605,-4.1017 -0.24804,-5.671875 -0.52587,-0.432634 -0.86755,-0.689234 -1.0625,-0.730468 z m -67.2793,0.849609 c -1.68576,0 -4.9302,2.553232 -11.77149,9.265625 -5.19418,5.096311 -10.7839,9.945682 -12.42187,10.775391 -6.25643,3.16918 -4.86372,5.81968 2.52148,4.800781 3.99886,-0.551702 5.56075,-1.364639 8.83985,-4.607422 2.19062,-2.166356 5.72056,-5.321358 7.8457,-7.009766 3.80052,-3.019428 3.86506,-3.033085 3.88086,-0.880859 0.009,1.203484 0.83328,5.351562 1.83203,9.21875 2.26201,8.758647 4.268,10.730528 10.0332,9.863281 2.49771,-0.375725 7.0154,0.02333 11.99024,1.060547 6.35701,1.325385 8.35047,1.435883 9.78515,0.53711 1.51445,-0.94875 1.95937,-0.834202 2.79102,0.724609 0.54415,1.019943 1.94257,2.095393 3.10742,2.388672 3.03612,0.76439 4.69177,3.678209 2.92578,5.148437 -0.74801,0.62272 -1.35937,1.50258 -1.35937,1.95507 0,1.37608 1.48891,0.92311 3.19922,-0.97265 0.89046,-0.98704 1.49072,-2.569067 1.33593,-3.515623 -0.15477,-0.946557 0.86557,-2.861332 2.26563,-4.255859 3.80419,-3.789188 3.46758,-7.549966 -0.94336,-10.556641 -3.89985,-2.658297 -7.85523,-3.074153 -9.56641,-1.005859 -0.9944,1.20193 -1.40494,1.194575 -3.30859,-0.05664 -2.88888,-1.898781 -3.36966,-3.212163 -4.57422,-12.464844 -1.12544,-8.644869 -2.90734,-11.269437 -5.72656,-8.441406 -1.24201,1.245891 -1.31516,2.382345 -0.49024,7.482422 0.53509,3.308123 0.97452,7.175781 0.97852,8.59375 0.006,2.375045 -0.26747,2.56898 -3.49609,2.466797 -7.95383,-0.251733 -8.78973,-0.802386 -10.47657,-6.919922 -2.59177,-9.399427 -5.429,-13.59375 -9.19726,-13.59375 z m -30.66602,0.154297 c 3.60052,-0.04494 4.96295,2.399621 2.82422,6.634765 -2.41791,4.788 -4.18574,6.335938 -7.23633,6.335938 -1.55443,0 -5.66529,0.916203 -9.13476,2.037109 l -6.3086,2.039063 2.28516,4.523437 c 1.77265,3.509086 1.98377,4.525391 0.9375,4.525391 -1.54898,0 -7.61856,-10.091673 -6.6582,-11.070312 0.34948,-0.356126 4.91509,-1.563523 10.14648,-2.681641 5.2314,-1.118118 8.68035,-2.067335 7.66406,-2.109375 -3.29221,-0.136179 -16.80647,2.999781 -18.1289,4.207031 -1.0779,0.984025 -0.80454,2.017424 1.70312,6.414063 1.64387,2.882148 2.55338,5.240234 2.01953,5.240234 -0.53386,0 -2.45751,1.30905 -4.27539,2.910156 l -3.30664,2.91211 -1.83789,-4.083985 c -3.17614,-7.053468 -4.19905,-13.232739 -2.70703,-16.355469 1.16536,-2.43903 2.31502,-2.969215 11.56641,-5.345703 5.64974,-1.451301 12.0712,-3.459815 14.26953,-4.46289 2.44225,-1.114373 4.54113,-1.649495 6.17773,-1.669922 z m 30.26367,0.9375 c 0.27812,-0.02813 0.54889,-0.02044 0.82618,0.01172 3.39171,0.393397 5.94388,4.906495 8.70898,15.40625 2.4938,9.469558 2.16053,11.02283 -2.25391,10.505859 -1.7578,-0.205854 -2.99152,-0.04068 -2.74023,0.367187 0.78644,1.276462 5.67015,0.809898 6.88477,-0.658203 0.63744,-0.770474 0.95656,-2.464472 0.70898,-3.763671 l -0.45117,-2.361329 6.18164,0.589844 c 6.7804,0.648093 8.8212,2.11461 7.92578,5.693359 -0.68279,2.728975 1.06902,4.992188 3.86328,4.992188 3.30684,0 4.77068,-2.401552 3.50781,-5.757812 -0.80234,-2.132234 -0.78917,-2.709941 0.0566,-2.431641 1.5267,0.502326 1.95517,6.133354 0.5918,7.78125 -1.3515,1.633533 -5.25391,1.576428 -12.09961,-0.179688 -3.00467,-0.770787 -7.08339,-1.100796 -9.8164,-0.794921 -5.10993,0.571893 -7.66995,-0.581391 -8.38086,-3.773438 -0.22967,-1.03125 -1.05945,-4.195313 -1.84571,-7.03125 -0.78626,-2.835938 -1.4344,-6.662925 -1.4414,-8.503906 l -0.0117,-3.347656 -4.88086,4.285156 c -2.68499,2.356606 -6.27724,5.70462 -7.98242,7.439453 -1.71641,1.746268 -4.64728,3.515691 -6.56641,3.962891 -7.61127,1.77359 -10.25993,0.33709 -4.63477,-2.513672 1.67057,-0.846617 7.31836,-5.740928 12.55079,-10.875 7.06795,-6.93509 9.35202,-8.846065 11.29882,-9.042969 z m 25.00391,0.644531 c 1.34214,0.110349 2.2597,2.836317 2.75977,8.189453 0.40764,4.363761 1.61764,9.433427 3.03125,12.703125 1.29387,2.992741 2.10432,6.086598 1.80273,6.875 -0.5477,1.431722 -4.41335,1.990733 -5.5918,0.808594 -0.34269,-0.34375 -0.61442,-1.503906 -0.60742,-2.578125 0.0118,-1.604562 0.17564,-1.702159 0.91992,-0.546875 1.49624,2.322501 1.04813,0.126435 -0.63086,-3.09375 -1.94729,-3.734751 -4.38769,-20.372152 -3.16796,-21.595703 0.54207,-0.543769 1.03699,-0.798502 1.48437,-0.761719 z m 40.70117,11.720703 c 1.43449,-0.05722 2.82047,0.302972 3.73242,1.13086 2.36001,2.142449 2.28177,3.721679 -0.27148,5.515625 -2.8045,1.970494 -3.91237,1.846368 -6.95313,-0.777344 -2.18423,-1.88467 -2.40201,-2.464648 -1.38867,-3.689453 1.11051,-1.34227 3.03652,-2.106123 4.88086,-2.179688 z m 9.01563,2.621094 c 4.6363,-0.216309 12.56826,3.756856 15.83008,7.929687 4.79733,6.137234 7.01124,11.767693 3.07421,7.81836 -2.08168,-2.088187 -4.71945,-1.817946 -7.67187,0.783203 -1.49992,1.321458 -1.87127,1.249084 -4.19922,-0.814453 -1.87196,-1.659333 -2.11786,-1.743058 -0.92383,-0.314453 0.89586,1.07185 1.62891,2.232006 1.62891,2.578125 0,0.346117 -0.43427,0.628906 -0.96484,0.628906 -1.60813,0 -2.59859,-3.953241 -2.21485,-8.845703 0.43482,-5.54388 -1.24878,-8.665318 -4.97851,-9.230469 -2.45728,-0.372342 -2.43597,-0.399959 0.41992,-0.533203 z m 0.0976,1.878906 c 2.8932,0.01326 4.20321,2.790351 3.42579,7.40625 -0.34264,2.034385 -0.14504,5.094302 0.44531,6.888672 0.98387,2.990452 0.83512,3.529862 -2.02344,7.316406 -1.69736,2.248387 -4.13682,5.653637 -5.42187,7.566407 -1.28505,1.91278 -3.06689,3.48037 -3.95899,3.48437 -1.37017,0.005 -1.55727,-0.68359 -1.20703,-4.43164 0.257,-2.75013 1.0293,-4.88863 2.0332,-5.624996 2.94242,-2.158266 3.26498,-1.236972 0.73242,2.093746 -1.37221,1.80469 -2.25848,3.28125 -1.96875,3.28125 0.28972,0 2.22825,-2.38145 4.30665,-5.292965 3.37881,-4.733194 3.71769,-5.70095 3.21093,-9.140625 -0.31174,-2.115833 -1.17244,-4.821815 -1.91406,-6.011718 -0.74162,-1.189905 -1.21837,-3.29928 -1.05859,-4.6875 0.22441,-1.949647 0.86215,-2.590016 2.79882,-2.814454 0.2068,-0.02397 0.40673,-0.03409 0.59961,-0.0332 z m -34.32031,4.589844 c 1.48593,0.03958 3.05706,0.473646 4.16406,1.287109 1.78973,1.315156 1.78808,1.368778 -0.14843,3.984375 -1.94745,2.630381 -4.00273,3.346542 -7.14844,2.490235 -1.90904,-0.519667 -2.24886,-4.942988 -0.51367,-6.683594 0.76132,-0.763695 2.16055,-1.117707 3.64648,-1.078125 z M 114.15625,85.3125 c 3.04885,0 3.80861,4.043194 2.21484,11.783203 -1.91038,9.277437 -1.9187,21.831897 -0.0156,22.564457 0.77103,0.2968 1.40234,0.91649 1.40234,1.37695 0,0.86875 -1.17223,0.92553 -3.97265,0.19141 -1.44628,-0.37912 -1.63477,-1.76902 -1.63477,-12.00782 0,-6.36817 -0.48915,-13.699466 -1.08594,-16.292966 -1.20267,-5.226542 -0.2329,-7.615234 3.0918,-7.615234 z m 92.26953,0.943359 c 1.1608,0.01776 2.10162,0.360296 2.53906,1.070313 0.36466,0.591858 0.73492,6.498103 0.82422,13.124998 l 0.16211,12.04883 -6.37695,0 -6.37891,0 0,-10.69727 0,-10.699214 2.87696,-2.425782 c 1.86973,-1.578196 4.41885,-2.451475 6.35351,-2.421875 z m 138.62891,4.197266 c 1.63605,-0.08407 2.52347,0.915797 3.60937,2.951172 1.07561,2.016063 1.05627,2.7406 -0.13476,4.873047 -1.2372,2.215096 -2.40191,2.678536 -10.07227,4.017576 -4.7697,0.83266 -9.07485,1.91707 -9.56641,2.41016 -0.56861,0.57039 1.33582,3.04355 5.23438,6.79883 5.2981,5.1034 8.86523,10.45528 8.86523,13.29882 0,1.65573 -1.58097,0.64166 -10.51953,-6.74609 -7.56886,-6.25568 -8.95923,-7.8062 -8.18945,-9.125 3.60493,-6.176 9.53026,-13.157825 12.66797,-14.925781 4.08379,-2.301037 6.46941,-3.46866 8.10547,-3.552734 z m -225.50196,1.623047 c 1.24894,0.0024 2.87696,2.072311 2.87696,4.132812 0,1.854751 -0.47443,2.228516 -2.82227,2.228516 -2.60185,0 -2.77344,-0.200747 -2.21484,-2.578125 0.33316,-1.417969 0.95499,-2.961697 1.38086,-3.429687 0.22303,-0.245094 0.49108,-0.354074 0.77929,-0.353516 z m 75.97071,0.517578 c 0.43713,-0.07524 0.64743,2.891421 0.67968,8.89063 0.0581,10.80054 -0.40798,12.43305 -2.74414,9.60937 -0.92831,-1.12201 -0.92472,-2.9686 0.0195,-9.14063 0.94352,-6.167158 1.60778,-9.284127 2.04492,-9.35937 z M 382.26172,85.75 c -8.66435,0 -19.90625,12.19283 -19.90625,21.58984 0,2.1814 -0.41521,2.78516 -1.91211,2.78516 -1.05141,0 -2.92422,1.01606 -4.16211,2.25781 -1.89433,1.90025 -2.42442,2.0487 -3.34375,0.9375 -1.47344,-1.78094 -4.08901,-1.66645 -5.6543,0.24805 -1.15009,1.40669 -1.04454,1.5069 1.01953,0.97266 2.83149,-0.73285 5.64063,1.54366 5.64063,4.56836 0,1.18488 1.09331,2.99158 2.46289,4.07226 3.67886,2.90283 6.21178,2.44749 10.04492,-1.80859 3.64996,-4.0527 3.88862,-4.7967 2.41406,-7.56055 -0.7656,-1.43499 -0.6614,-1.8125 0.5,-1.8125 0.80719,0 2.39865,-0.58237 3.53711,-1.29492 2.51122,-1.57177 9.15051,-2.6528 10.58399,-1.72266 0.5708,0.37038 1.74787,2.06379 2.61523,3.76172 1.69054,3.30933 4.60713,4.88086 9.05469,4.88086 1.82464,0 2.94469,-0.56079 3.27734,-1.64062 0.78243,-2.54 1.27749,-3.23483 9.16211,-12.85743 5.34206,-6.51959 7.10691,-9.30288 6.36914,-10.04297 -1.93553,-1.941564 -8.39217,1.72883 -14.42968,8.20313 -3.98622,4.2746 -5.92875,5.7709 -6.38086,4.91406 -0.35749,-0.6775 -1.17836,-4.72442 -1.82422,-8.99219 C 389.99284,88.372676 387.91798,85.75 382.26172,85.75 Z M 91.416016,93.849609 c 1.405737,0.01868 2.949373,1.2544 4.11914,3.605469 0.885739,1.78021 4.806824,6.740202 8.712894,11.021482 4.07357,4.46487 6.97352,8.4387 6.80078,9.31836 -0.21697,1.10483 -3.17586,-1.02066 -10.58203,-7.60156 -5.654206,-5.02416 -10.879601,-9.70855 -11.613284,-10.410157 -1.077301,-1.03021 -1.120523,-1.746297 -0.22461,-3.71875 0.684712,-1.507476 1.693758,-2.229371 2.78711,-2.214844 z M 380.00586,86.582031 c 0.73276,-0.06573 0.59943,0.548299 -0.87695,2.029297 -2.08168,2.088188 -1.81375,4.733662 0.77929,7.695312 1.31735,1.5046 1.24657,1.87766 -0.81054,4.21289 -2.062,2.34078 -2.07522,2.40795 -0.14844,0.77735 2.20973,-1.87008 4.19321,-1.33794 2.25586,0.60546 -0.64202,0.64403 -3.838,1.13655 -7.50391,1.15625 -3.87623,0.0209 -6.97064,0.52244 -7.875,1.27539 -0.81947,0.68227 -1.66254,2.36977 -1.87305,3.75 -0.34656,2.27239 -0.39663,2.22501 -0.52343,-0.50976 -0.21564,-4.65078 3.74446,-12.6069 7.90429,-15.878908 3.82383,-3.007704 7.45062,-5.003734 8.67188,-5.113281 z m 4.01562,0.191407 c 0.6973,0.01952 1.40976,0.3245 2.47266,0.921874 2.20819,1.241063 2.67099,2.407232 4.00586,10.101568 0.83007,4.78459 1.91078,9.10261 2.40234,9.5957 0.56861,0.57039 3.04505,-1.34973 6.80664,-5.2793 5.40206,-5.64325 12.34107,-9.95046 13.75196,-8.53516 0.30889,0.30987 -2.69307,4.58236 -6.67188,9.49415 -3.9788,4.91179 -7.54053,9.11999 -7.91406,9.35156 -1.44303,0.89464 -14.59016,-9.47624 -16.63867,-13.125 -4.58714,-8.170515 -4.65779,-9.56158 -0.59961,-11.740236 1.00489,-0.539485 1.68747,-0.804678 2.38476,-0.785156 z M 97.056641,95.625 c 2.333963,0 3.878909,1.324159 3.878909,3.326172 0,4.280038 -2.717665,3.484058 -4.1543,-1.216797 C 96.415091,96.536259 96.533454,95.625 97.056641,95.625 Z m 113.521479,4.51172 c 0.29146,-0.0629 0.80825,0.65088 1.57227,2.05078 0.98494,1.80469 1.80858,3.9384 1.83008,4.74219 0.0215,0.80379 -0.52794,2.23784 -1.21875,3.18554 -1.13224,1.55328 -1.31644,1.2794 -1.86914,-2.76562 -0.66212,-4.84579 -0.80021,-7.10802 -0.31446,-7.21289 z m 171.59766,2.9082 c 1.21715,0.0549 2.31266,0.78595 4.67188,2.57813 2.24139,1.70267 5.6342,4.15039 7.54101,5.43945 1.90681,1.28906 3.47061,3.03932 3.47461,3.89062 0.005,1.14782 -0.79756,1.52654 -3.10547,1.46094 -4.14368,-0.11782 -5.54044,-0.59288 -6.93554,-2.35742 -2.20902,-2.79401 -1.16259,-3.0849 2.10351,-0.58594 1.79906,1.37651 3.26953,2.2633 3.26953,1.97266 0,-0.29062 -2.37294,-2.23348 -5.27539,-4.31836 -4.71844,-3.38937 -5.68432,-3.73101 -9.11328,-3.22266 -2.10924,0.31272 -4.80599,1.17794 -5.99219,1.92188 -1.18619,0.74393 -3.28798,1.22084 -4.67187,1.06055 -1.94357,-0.22511 -2.5829,-0.86393 -2.80664,-2.80665 -0.38225,-3.31905 2.44132,-4.87091 7.34961,-4.03906 2.02805,0.3437 5.07841,0.14493 6.86718,-0.44726 1.11793,-0.37011 1.89276,-0.57984 2.62305,-0.54688 z m -183.45312,12.63672 c 0.23371,0.0499 0.32131,0.7316 0.32812,2.1543 0.008,1.64535 -0.4059,3.25163 -0.91992,3.57031 -1.19783,0.74261 -1.19783,-3.29694 0,-5.15625 0.25851,-0.40126 0.45157,-0.59828 0.5918,-0.56836 z m 166.01172,-4.32226 c 1.31121,-0.0399 2.48121,0.96499 3.39843,2.98437 0.91567,2.01596 0.79416,2.79496 -0.76562,4.89063 -2.28376,3.06842 -3.48191,3.52202 -4.86719,1.84765 -2.16164,-2.61277 -2.28216,-6.67239 -0.25391,-8.51367 0.86437,-0.78469 1.70155,-1.18502 2.48829,-1.20898 z M 118.80664,125.625 c 0.57717,0 5.51792,2.26352 10.98047,5.0293 5.46254,2.76579 11.48957,5.53276 13.39258,6.15039 4.12561,1.339 5.6006,4.43153 3.01758,6.32617 -0.93226,0.68382 -1.92953,1.23054 -2.2168,1.21484 -1.10843,-0.0605 -4.36924,-2.19869 -6.79102,-4.45312 -3.32801,-3.09802 -13.60866,-10.20354 -16.86328,-11.65625 -2.6013,-1.1611 -3.44461,-2.61133 -1.51953,-2.61133 z m 31.11328,11.51953 c 1.2745,-0.0339 3.19546,0.48593 5.77539,1.55859 2.77667,1.15446 6.74504,2.32848 8.81836,2.60743 3.59092,0.48315 3.69602,0.58869 2.21485,2.23047 -1.44716,1.60444 -1.44755,1.88761 -0.008,4.09179 0.85071,1.30227 1.22159,2.31089 0.82422,2.24219 -0.39736,-0.0687 -5.55948,-1.08476 -11.4707,-2.25781 -5.91121,-1.17305 -10.94657,-2.17145 -11.18945,-2.21875 -0.24287,-0.0473 0.52735,-0.76605 1.71093,-1.59766 1.61116,-1.13204 2.00903,-2.08048 1.58594,-3.77148 -0.47074,-1.88144 0.0996,-2.84115 1.73828,-2.88477 z m -17.35742,0.42578 c 0.44007,0.003 1.05443,0.23384 1.78906,0.75 1.15387,0.81073 2.09766,1.87103 2.09766,2.35742 0,1.36727 -2.44289,1.04481 -3.71289,-0.49023 -1.27047,-1.53561 -1.14199,-2.62403 -0.17383,-2.61719 z m 39.25,5.31836 c 3.11406,-0.0541 8.44475,0.26901 17.30078,1.00195 10.99535,0.90999 21.45508,1.29493 25.13867,0.92579 3.59246,-0.36 6.3086,-0.26684 6.3086,0.21484 0,0.46521 -1.82528,1.7348 -4.05664,2.82227 -3.59746,1.75325 -6.43624,2.05396 -25.06641,2.65625 l -21.01172,0.67968 -2.03516,-2.5957 c -2.52793,-3.22373 -2.53757,-3.88352 -0.0723,-5.20703 0.55423,-0.29754 1.62571,-0.46559 3.49414,-0.49805 z m -67.31641,3.61914 c 0.16222,0.0689 0.17208,0.64178 0.17383,1.66407 0.002,1.31484 -0.50231,2.89687 -1.11914,3.51562 -1.12431,1.12783 -2.61523,1.51583 -2.61523,0.67969 0,-0.24535 0.83911,-1.82739 1.86523,-3.51563 1.02575,-1.68762 1.48675,-2.43235 1.69531,-2.34375 z m -13.373043,5.69922 c 0.29785,-0.01 0.464844,0.2885 0.464844,0.9375 0,1.81093 4.197331,4.76089 5.566406,3.91211 1.582346,-0.981 1.120271,2.12416 -0.875,5.87109 -2.045869,3.84195 -10.659533,13.78615 -9.773438,11.28321 0.369153,-1.04274 -0.253898,-2.10291 -1.853515,-3.1543 -2.237404,-1.47061 -2.576742,-1.47469 -4.746094,-0.0488 -3.115701,2.04786 -2.948068,1.03345 0.474609,-2.87695 1.54589,-1.76618 4.034972,-5.64381 5.53125,-8.61719 2.249737,-4.47063 4.317389,-7.27781 5.210938,-7.30664 z M 41.505859,181.875 c -2.78721,0 -2.788006,-0.36113 0.02148,12.1875 0.865817,3.86719 4.27706,20.32031 7.580078,36.5625 3.303018,16.24219 6.226376,30.47038 6.498047,31.61914 l 0.49414,2.08984 -17.535156,0.27735 0,-0.002 c -9.644791,0.15239 98.327302,0.29084 239.939462,0.30664 93.72971,0.0105 171.31412,-0.0476 214.50586,-0.13868 l -3.59571,-0.40234 -180.75781,0 -191.83398,0 0,-22.96875 c 0,-19.79167 -0.19438,-22.96875 -1.40235,-22.96875 -0.77102,0 -1.40039,0.42683 -1.40039,0.94922 0,0.62772 -10.83215,0.86615 -31.939457,0.70312 l -31.939453,-0.24609 -1.212891,-5.15625 -1.210937,-5.15625 5.605469,-5.39063 c 3.083293,-2.96483 5.360051,-5.39062 5.058593,-5.39062 -0.301458,0 -2.799291,2.13572 -5.550781,4.74609 -4.501811,4.27093 -5.063807,4.55837 -5.597656,2.8711 -0.719371,-2.27362 0.76077,-4.95691 5.103516,-9.25586 l 3.271484,-3.23828 -3.955078,3.14062 c -2.175314,1.728 -3.963356,3.69417 -3.972656,4.36914 -0.0093,0.67486 -0.387185,0.99669 -0.841797,0.71485 -1.168134,-0.7242 -3.342255,-12.49947 -3.083985,-16.70704 0.198181,-3.22863 0.01582,-3.51562 -2.248047,-3.51562 z m 8.759766,40.3125 31.876953,0 31.876952,0 0,21.09375 0,21.09375 -27.570311,0 c -15.163552,0 -27.570313,-0.13543 -27.570313,-0.30078 0,-0.59934 -7.336622,-36.79852 -7.966797,-39.3086 z"
       id="path3372"
       inkscape:connector-curvature="0"
       sodipodi:nodetypes="ssssscccssssssssssssssssscscccssscccccssssssssscccssssssssscsssssssssssccsssssssssssssscscsscssscsssssssssssccccscsscsscssscssssssssssssssssssssssssscsccsscssssssssssssssssssssssssssssscccsssssssssssssssssssssssssssssssssscsscsssssssssssssscsssssscsccssssssscsssssscccssssssscccsssssssssscccsscsssssscccsssssssscccsssssssssssssssssssssssssscsssssssssssssssssssscssssccccccccssssssssssssssssssssssssssssssssssssssscssssssssscssssssssssssssssssssscscssssssscscsscssscsssssssssssscssscsssssssssscsssssscccscssssssssssssscccssccssscsssssssssssssccccsccccssscccccsssccccssscccccsscc" />
    <path
       id="path3532"
       d="m 418.76494,88.70468 c -0.0381,-0.003 -0.0673,0.005 -0.084,0.0215 -0.26706,0.2679 0.28313,2.67229 1.22071,5.34375 1.32596,3.77807 3.02424,6.02251 7.64843,10.10156 7.15095,6.30795 6.84899,6.82852 -4.99218,8.5957 -6.24709,0.93231 -8.29833,1.62738 -9.38086,3.17774 -1.88856,2.70472 -1.73898,4.58082 0.55859,7.05469 1.96326,2.1139 4.46397,2.07868 7.17969,-0.10157 0.64864,-0.52075 2.52802,-1.62878 4.17578,-2.46289 1.7156,-0.86846 5.11746,-4.52244 7.95898,-8.54883 l 4.96094,-7.03125 -3.0625,-2.68554 c -1.68446,-1.47713 -5.92424,-5.21615 -9.42187,-8.3086 -3.27902,-2.89916 -6.19046,-5.11176 -6.76172,-5.15625 z m 21.75586,16.58008 c -1.17945,0.10271 -3.01753,1.42732 -4.42969,3.5293 -1.28505,1.91277 -3.72451,5.31801 -5.42188,7.5664 -2.85854,3.78655 -3.00729,4.32596 -2.02343,7.31641 0.60333,1.83384 0.78756,4.85371 0.42773,6.99024 -0.46066,2.73508 -0.22159,4.39239 0.87696,6.07421 3.76163,5.75892 8.51255,-0.50358 4.8496,-6.39257 -0.71034,-1.14201 -1.54739,-3.8176 -1.86132,-5.94727 -0.5254,-3.56422 -0.20125,-4.38323 4.09375,-10.29297 2.56633,-3.53115 4.66601,-6.95771 4.66601,-7.61328 0,-0.91386 -0.47006,-1.29209 -1.17773,-1.23047 z m 1.20508,5.33399 c -0.73998,-0.0133 -1.88324,0.89635 -3.24219,2.68359 -2.3155,3.04525 -2.35842,3.27148 -0.63672,3.27148 2.13027,0 4.78711,-2.34799 4.78711,-4.23047 0,-1.14597 -0.33266,-1.71428 -0.9082,-1.7246 z m 20.50195,18.53899 c -3.08871,0.2637 -3.75015,4.15934 -1.08399,10.03906 0.99994,2.20519 2.99909,8.6389 4.44336,14.29687 2.21272,8.66834 2.99231,10.47359 4.95703,11.47071 3.02261,1.53402 3.96061,1.50719 10.36329,-0.29493 4.88664,-1.37539 5.39888,-1.77239 5.92578,-4.58984 0.31728,-1.69646 0.081,-4.17669 -0.52539,-5.51172 l -1.10157,-2.42773 -5.08007,2.91601 c -4.26332,2.44685 -5.2688,2.70849 -6.25,1.62696 -1.20348,-1.32656 -4.33107,-14.88306 -4.19532,-18.18555 0.0419,-1.01947 0.98888,2.43975 2.10352,7.6875 1.11463,5.24774 2.31685,9.82912 2.67187,10.17969 0.97559,0.96336 11.03711,-5.12587 11.03711,-6.67969 0,-1.04954 -1.01161,-0.83875 -4.50976,0.93945 l -4.51172,2.29297 -2.03125,-6.32812 c -1.11741,-3.48031 -2.03125,-7.60478 -2.03125,-9.16407 0,-3.06012 -1.54333,-4.83429 -6.31641,-7.25976 -1.53525,-0.78015 -2.83566,-1.09572 -3.86523,-1.00781 z m 45.1289,13.78125 c -1.08898,-0.0944 -2.19817,0.35093 -4.37695,1.44921 -3.8746,1.95305 -3.89109,1.98429 -1.13086,1.98829 1.54205,0.002 4.48495,-0.3236 6.54102,-0.72266 l 3.73828,-0.72461 -2.60547,-1.26367 c -0.86573,-0.41935 -1.51263,-0.66991 -2.16602,-0.72656 z m -66.08789,-8.19524 c -0.95009,0.021 -1.91182,0.35141 -2.88671,0.99218 -2.68818,1.76687 -2.86253,3.02494 -0.74414,5.37305 2.04048,2.26175 6.1543,2.18228 8.26757,-0.16016 1.6247,-1.80088 1.62545,-1.94866 0.0215,-3.72656 -1.52298,-1.68814 -3.07472,-2.51356 -4.65822,-2.47851 z m 76.64649,23.00774 c -2.26922,0.0109 -2.64678,0.23231 -1.58008,0.92382 1.85351,1.20157 5.87897,1.20157 5.13867,0 -0.31768,-0.51563 -1.91836,-0.93182 -3.55859,-0.92382 z m -28.13281,1.35351 c -0.33716,-0.0508 -0.60146,0.2284 -0.83985,0.85156 -0.34907,0.91249 0.0167,1.40038 1.04297,1.38868 0.87029,-0.01 4.73666,0.6053 8.5918,1.36718 3.85514,0.76188 8.08183,1.43053 9.39258,1.48633 2.30412,0.0981 4.62695,-1.3567 4.62695,-2.89844 0,-0.4125 -4.75214,-0.75 -10.56055,-0.75 -6.23783,0 -10.96946,-0.40903 -11.55859,-1 -0.26506,-0.26588 -0.49302,-0.41484 -0.69531,-0.44531 z m 75.67968,5.88281 c -3.71126,0 -1.98458,3.51847 6.44336,13.125 3.39274,3.86719 6.59471,7.34189 7.11328,7.72071 1.38936,1.01494 2.04977,0.87915 3.67969,-0.75586 2.16365,-2.17041 1.85204,-2.94772 -2.20312,-5.51563 -5.88903,-3.7292 -10.52809,-8.21708 -11.90039,-11.51172 -0.83319,-2.00035 -1.91973,-3.0625 -3.13282,-3.0625 z m -22.43945,4.86329 c -0.9284,0.0321 -1.97737,0.40366 -3.05664,1.19531 -1.60259,1.1755 -1.66497,1.62709 -0.58594,4.24023 0.78004,1.88909 0.98202,4.44389 0.56836,7.21094 -0.4937,3.30253 -0.14698,5.6684 1.51758,10.32422 2.00312,5.60277 3.6268,7.3017 4.94141,5.16797 0.29621,-0.48079 -0.52932,-3.29657 -1.83399,-6.25586 -2.54141,-5.76454 -2.41331,-7.362 1.20899,-15.24805 1.73618,-3.77982 0.0254,-6.73108 -2.75977,-6.63476 z m 9.33398,2.04296 c -0.45122,0.009 -0.95097,0.0842 -1.53515,0.21289 -3.27462,0.72148 -4.20999,3.03584 -2.19531,5.42774 1.67674,1.99069 5.68464,2.13215 8.15625,0.28711 1.77206,-1.32283 1.75726,-1.41227 -0.64258,-3.84961 -1.5053,-1.5288 -2.42954,-2.10375 -3.78321,-2.07813 z m 32.83204,-1.17968 c -0.22429,0.013 -0.47668,0.0372 -0.75977,0.0703 -2.87735,0.33596 -5.59447,4.25517 -4.6543,6.71289 1.48293,3.87652 7.19532,0.54119 7.19532,-4.20117 0,-2.19027 -0.21125,-2.67282 -1.78125,-2.58202 z m -66.26172,8.70507 c -1.38651,0.0166 -2.69531,0.90897 -3.50782,2.61524 -0.84054,1.76516 -0.91512,4.56443 -0.28515,10.68945 0.47893,4.65635 0.50159,8.95776 0.0508,9.80274 -0.44183,0.82815 -3.41123,4.00194 -6.59766,7.05078 -5.30532,5.07623 -8.40234,10.32566 -8.40234,14.24609 0,1.832 1.64028,1.59616 2.69922,-0.38867 0.49234,-0.92282 4.72799,-5.02777 9.41406,-9.12305 4.68608,-4.09527 8.68534,-8.2974 8.88672,-9.33789 0.20139,-1.04049 0.87804,-6.42995 1.50391,-11.97656 1.06092,-9.40223 1.02221,-10.21375 -0.58399,-11.99414 -0.97348,-1.07905 -2.09934,-1.59692 -3.17773,-1.58399 z m 72.14844,26.81836 c -2.23059,0 -5.03907,2.72714 -5.03907,4.89258 0,1.45372 0.56909,1.73481 3.03711,1.4961 2.67077,-0.25831 3.07256,-0.66268 3.33008,-3.3418 0.2287,-2.3794 -0.0621,-3.04688 -1.32812,-3.04688 z m -10,1.19922 c -2.04844,-0.14025 -3.57569,1.40962 -4.41993,4.55469 -0.72843,2.71362 -0.71892,7.26415 0.0352,16.28906 0.57556,6.88822 1.12721,17.82486 1.22461,24.30274 l 0.17578,11.77734 5.91016,0.002 c 5.11543,6.3e-4 5.86714,-0.21893 5.5957,-1.63281 -0.18604,-0.9691 -1.44878,-1.83219 -3.10547,-2.12109 l -2.79297,-0.48633 0,-10.77148 c 0,-5.92367 0.35941,-17.37612 0.79688,-25.45118 0.78223,-14.4383 0.76069,-14.70051 -1.20508,-15.75586 -0.79278,-0.4256 -1.53203,-0.66028 -2.21484,-0.70703 z m 23.64453,4.69336 c -0.78932,-0.0358 -1.90792,0.31345 -3.61133,1.08399 -2.90613,1.31458 -4.87981,1.52554 -9.37696,1.00195 -5.68896,-0.66235 -5.69531,-0.65968 -5.69531,1.79101 0,2.04979 0.34486,2.38098 2.10157,2.01368 1.15655,-0.24182 5.33809,-0.70439 9.29296,-1.0293 7.44451,-0.61161 10.55423,-2.23399 8.40821,-4.38672 -0.2918,-0.29271 -0.64555,-0.45315 -1.11914,-0.47461 z M 569.19463,226.98 c -1.52253,-0.0472 -2.13516,0.51439 -2.81446,2.30664 -1.22318,3.22726 -1.38083,2.88369 4.70313,10.25586 l 5.13867,6.22852 0.27539,-5.08399 c 0.36508,-6.72982 -2.76318,-13.20902 -6.5918,-13.65234 -0.2574,-0.0298 -0.49343,-0.0479 -0.71093,-0.0547 z m 7.23437,19.43164 -4.15039,7.06446 c -2.8786,4.8999 -3.96452,7.64843 -3.54492,8.9746 0.47367,1.4971 1.40314,1.91211 4.28125,1.91211 4.14764,0 5.05115,-2.00757 1.71094,-3.80078 -1.95819,-1.05126 -1.95653,-1.0626 0.50195,-3.63672 2.1585,-2.26003 2.38744,-3.07481 1.83398,-6.54687 z"
       style="fill:#fefefe"
       inkscape:connector-curvature="0"
       sodipodi:nodetypes="ccsssssssccssccssssssssssscssscsssssccccssssscccsssccccccccssssccssccscssssccsssssssssssscsssccssscccssccsscsssssssccssssscsscccsccssccccssssssccscccccccsssscc" />
    <path
       id="path3528"
       d="m 422.78642,122.48984 c -0.42335,0.0463 -0.83082,0.34362 -1.39843,0.84375 -2.9584,2.60671 -5.59459,2.87872 -7.67774,0.78906 -2.10619,-2.11277 -2.51976,-1.07757 -0.84766,2.12305 2.63159,5.03717 7.07889,9.48711 11.49805,11.50391 6.42553,2.93242 7.6627,2.86071 5.18359,-0.30079 -1.60435,-2.04599 -1.89641,-3.33063 -1.44335,-6.36132 0.50355,-3.36842 0.25068,-4.10436 -2.2461,-6.50391 -1.61226,-1.54947 -2.36277,-2.17087 -3.06836,-2.09375 z m 89.81055,24.15032 -9.75977,0.1582 c -9.01237,0.14635 -9.82987,0.31269 -10.68945,2.18359 -1.37198,2.98613 -2.25711,8.48639 -1.55078,9.63282 0.37704,0.61198 4.75208,0.99804 11.30664,0.99804 l 10.69336,0 0,-6.48632 z m -22.17578,0.15429 c -0.47642,-0.0448 -1.19143,0.13074 -2.04297,0.58789 -1.95299,1.0485 -2.52243,4.02051 -1.35352,7.07618 0.47652,1.24565 0.75833,1.30806 1.38868,0.31054 0.43462,-0.68776 0.79768,-2.11483 0.80468,-3.17187 0.008,-1.05703 0.51089,-2.4211 1.11914,-3.03125 1.00742,-1.01056 0.87802,-1.69679 0.084,-1.77149 z m 46.21094,20.39844 c -3.63228,0.0132 -8.01908,1.44848 -14.21485,4.58399 -5.05702,2.55921 -7.27929,4.85695 -7.27929,7.52539 -10e-6,0.9229 0.24882,0.93554 1.12109,0.0605 1.74678,-1.75223 3.96267,-1.33621 6.32617,1.1875 l 2.16602,2.3125 2.63672,-1.88476 c 1.45049,-1.03608 4.75547,-2.13391 7.34374,-2.44141 2.58826,-0.3075 4.70508,-0.69178 4.70508,-0.85351 0,-0.16173 -0.51165,-1.42071 -1.13672,-2.79688 -1.03621,-2.28134 -0.89842,-2.69136 1.56055,-4.6582 l 2.69727,-2.15821 -3.51953,-0.6621 c -0.7708,-0.14506 -1.56804,-0.2179 -2.40625,-0.21485 z m 46.86328,13.00781 c -0.10227,-0.0198 0.0728,0.26082 0.5039,0.83985 2.34392,3.14779 -1.87607,7.42279 -5.43945,5.50976 -1.02803,-0.55191 -1.86914,-1.48103 -1.86914,-2.06445 0,-0.58343 -0.31565,-0.74414 -0.70117,-0.35742 -0.38551,0.38671 -0.72731,6.96896 -0.75782,14.62695 -0.0519,13.07749 -0.17793,14.02701 -2.07226,15.625 -2.75417,2.32332 -8.62237,12.39688 -8.60547,14.77149 0.0124,1.73436 0.13306,1.69193 1.19141,-0.41407 1.42241,-2.83039 4.87341,-3.52443 7.16797,-1.4414 1.54684,1.40425 1.72075,1.40397 2.25781,0 0.32011,-0.83696 0.32735,-3.70143 0.0156,-6.36719 -1.10246,-9.42791 2.57906,-16.20933 7.5625,-13.93164 2.04713,0.93565 2.09667,0.79964 2.85157,-7.63867 1.21913,-13.62753 1.07854,-16.33163 -0.94141,-18.18946 -0.6824,-0.62763 -1.06179,-0.94896 -1.16406,-0.96875 z"
       style="fill:#0000fe"
       inkscape:connector-curvature="0"
       sodipodi:nodetypes="cssssssscccssscccccsccscccscccccssscccccccssscscssccssscc" />
    <path
       id="path3526"
       d="m 504.41728,134.35891 c -5.9045,0.0168 -12.59543,8.45632 -16.50586,21.75781 -1.34867,4.58759 -1.41136,5.94078 -0.4082,8.90625 0.65059,1.9232 2.04229,4.22436 3.0918,5.11523 2.54734,2.16235 5.44917,2.07828 7.52148,-0.21875 2.05505,-2.27791 1.17622,-3.65751 -0.96289,-1.51171 -1.80428,1.80992 -4.53479,1.97244 -5.80273,0.3457 -2.53015,-3.24608 -2.8769,-6.99892 -1.20508,-13.04688 4.16258,-15.05847 11.43123,-22.65658 17.36523,-18.15429 1.02189,0.77533 1.30454,1.38945 0.64649,1.40625 -0.64253,0.0164 -1.16797,0.38355 -1.16797,0.8164 0,0.66643 1.30979,1.50078 5.83984,3.71485 1.03434,0.50553 0.82473,-5.67517 -0.24805,-7.31446 -0.71404,-1.09112 -1.08916,-1.14359 -1.67578,-0.23437 -0.59408,0.92076 -1.14489,0.87642 -2.57031,-0.20508 -1.2349,-0.93695 -2.55539,-1.38082 -3.91797,-1.37695 z m -46.41406,17.16023 c -1.39239,0.0957 -8.82813,4.60292 -8.82813,5.44726 0,0.47154 0.94697,0.85833 2.10352,0.86133 1.99014,0.004 1.95235,0.12769 -0.70117,2.29297 -6.25863,5.10703 -11.56665,7.28519 -18.07813,7.41797 -8.90551,0.18159 -14.65928,-1.02764 -17.89843,-3.76172 -1.54449,-1.30368 -2.8086,-1.94726 -2.8086,-1.43164 0,1.80582 5.69594,5.72198 9.14063,6.28515 1.91244,0.31267 4.10787,0.72792 4.8789,0.92383 l 0,0.002 c 0.77102,0.19569 4.24006,0.19041 7.70899,-0.01 5.73184,-0.33077 6.96729,-0.79897 13.55078,-5.14063 5.51775,-3.63882 7.31672,-4.4339 7.54687,-3.33593 0.61275,2.92315 1.80499,1.29794 2.83985,-3.8711 0.58497,-2.92188 0.91711,-5.45928 0.73828,-5.63867 -0.0351,-0.0352 -0.10053,-0.0474 -0.19336,-0.041 z"
       style="fill:#fe0000"
       inkscape:connector-curvature="0"
       sodipodi:nodetypes="sssssssssssssssscscssssscccsssccc" />
    <path
       id="path3524"
       d="m 418.55205,87.87851 c -1.08501,0.18576 -0.96598,2.264 0.40625,6.19727 1.33821,3.8358 3.00304,6.04949 7.61133,10.11914 4.07239,3.59638 5.51799,5.41017 4.67187,5.85937 -0.67403,0.35785 -4.70647,1.18025 -8.96094,1.82813 -6.36073,0.96862 -8.06178,1.59751 -9.57812,3.53125 -2.04689,2.61035 -2.41592,7.67986 -0.78711,10.83203 3.9559,7.65569 11.43741,13.29404 19.42578,14.64062 2.51134,0.42332 3.3884,1.13914 4.0957,3.34766 0.49481,1.54502 1.50314,3.50642 2.24219,4.35937 1.12152,1.29435 1.14174,1.87699 0.11914,3.51954 -1.46376,2.35118 -0.37503,4.62897 3.05859,6.40039 2.72989,1.40836 3.64649,1.47481 3.64649,0.26562 0,-0.5058 -1.02168,-1.17605 -2.26953,-1.49023 -4.57647,-1.15221 -3.65804,-6.33371 1.3164,-7.42969 3.26463,-0.71927 6.56055,-4.49829 6.56055,-7.52148 0,-1.2702 -1.48824,-3.45538 -3.74219,-5.49805 -4.04007,-3.66137 -4.77991,-3.89909 -7.53515,-2.41992 -1.482,0.79563 -1.80664,0.66049 -1.80664,-0.75 0,-0.94626 -0.46901,-2.18987 -1.04102,-2.76368 -0.57201,-0.57379 -1.40627,-3.01772 -1.85547,-5.42968 -0.98926,-5.31178 0.14202,-7.96485 3.39649,-7.96485 3.78506,0 7.4715,-4.8049 5.33984,-6.95898 -0.38551,-0.38957 -0.69922,-1.8207 -0.69922,-3.18164 0,-1.72701 -0.56458,-2.58546 -1.86914,-2.8418 -1.86753,-0.36697 -9.56328,-6.51795 -17.05273,-13.63086 -2.27676,-2.16229 -3.84946,-3.16401 -4.69336,-3.01953 z m 0.21289,0.82617 c 0.57126,0.0445 3.4827,2.25709 6.76172,5.15625 3.49763,3.09245 7.73741,6.83147 9.42187,8.3086 l 3.0625,2.68554 -4.96094,7.03125 c -2.84152,4.02639 -6.24338,7.68037 -7.95898,8.54883 -1.64776,0.83411 -3.52714,1.94214 -4.17578,2.46289 -2.71572,2.18025 -5.21643,2.21547 -7.17969,0.10157 -2.29757,-2.47387 -2.44715,-4.34997 -0.55859,-7.05469 1.08253,-1.55036 3.13377,-2.24543 9.38086,-3.17774 11.84117,-1.76718 12.14313,-2.28775 4.99218,-8.5957 -4.62419,-4.07905 -6.32247,-6.32349 -7.64843,-10.10156 -0.93758,-2.67146 -1.48777,-5.07585 -1.22071,-5.34375 0.0167,-0.0168 0.0459,-0.0245 0.084,-0.0215 z m 21.75586,16.58008 c 0.70767,-0.0616 1.17773,0.31661 1.17773,1.23047 0,0.65557 -2.09968,4.08213 -4.66601,7.61328 -4.295,5.90974 -4.61915,6.72875 -4.09375,10.29297 0.31393,2.12967 1.15098,4.80526 1.86132,5.94727 1.4007,2.25193 1.67122,5.7349 0.57618,7.41601 -0.72761,1.11701 -2.15063,1.62113 -3.91016,1.65235 l -1.48047,-2.44141 c -1.12323,-1.8523 -1.37278,-3.57345 -0.91211,-6.30859 0.35983,-2.13652 0.1756,-5.1564 -0.42773,-6.99024 -0.98386,-2.99045 -0.83511,-3.52986 2.02343,-7.31641 1.69737,-2.24839 4.13683,-5.65363 5.42188,-7.5664 1.41216,-2.10198 3.25024,-3.42659 4.42969,-3.5293 z m 1.20508,5.33399 c 0.57554,0.0103 0.9082,0.57863 0.9082,1.7246 0,0.70618 -0.661,1.94756 -1.46875,2.75782 -0.80774,0.81028 -2.30088,1.47265 -3.31836,1.47265 -1.7217,0 -1.67878,-0.22623 0.63672,-3.27148 1.35895,-1.78724 2.50221,-2.69687 3.24219,-2.68359 z m 21.32617,17.47649 c -0.72744,-0.0119 -1.35779,0.32705 -2.39649,1.00976 -2.66546,1.75193 -2.93604,4.92382 -0.77734,9.11133 0.81828,1.58732 2.74719,7.79065 4.28711,13.7832 2.9243,11.37989 3.67659,12.94641 6.81055,14.22071 2.8746,1.16883 5.13908,0.95457 10.77929,-1.0254 5.14354,-1.8056 4.21621,-1.75936 -3.81836,0.19141 -3.40233,0.82608 -4.84431,0.77081 -7,-0.26562 -2.45018,-1.17801 -2.97174,-2.30999 -5.3457,-11.60938 -1.44679,-5.6674 -3.44733,-12.10926 -4.44727,-14.31445 -3.55489,-7.83963 -1.1918,-12.15185 4.94922,-9.03125 4.77308,2.42547 6.31641,4.19964 6.31641,7.25976 0,1.55929 0.91384,5.68376 2.03125,9.16407 l 2.03125,6.32812 4.51172,-2.29297 c 3.49815,-1.7782 4.50976,-1.98899 4.50976,-0.93945 0,1.55382 -10.06152,7.64305 -11.03711,6.67969 -0.35502,-0.35057 -1.55724,-4.93195 -2.67187,-10.17969 -1.11464,-5.24775 -2.06162,-8.70697 -2.10352,-7.6875 -0.13575,3.30249 2.99184,16.85899 4.19532,18.18555 0.98097,1.08127 2.00963,0.80651 6.39257,-1.70899 2.87317,-1.649 5.22461,-2.62678 5.22461,-2.17187 0,0.45491 0.65373,1.64561 1.45313,2.64648 1.404,1.75793 1.41939,1.75154 0.4668,-0.22656 -1.93157,-4.01097 -1.22794,-6.84307 2.05273,-8.27344 1.67061,-0.72836 2.4058,-1.34153 1.63477,-1.36133 -0.77102,-0.0198 -4.09926,1.24388 -7.39649,2.8086 -3.29723,1.56471 -6.29126,2.51434 -6.65234,2.10937 -1.24505,-1.39636 -3.70899,-9.98421 -3.70899,-12.92773 0,-3.24574 -2.23434,-5.80873 -7.3125,-8.38477 -1.4254,-0.72305 -2.25108,-1.08574 -2.97851,-1.09765 z m -37.19141,-6.74407 c 0.78633,0.0732 1.67891,1.14765 2.08594,2.70898 0.27096,1.03929 0.38702,1.88867 0.25781,1.88867 -0.78209,0 -3.52858,-3.8606 -3.07226,-4.31836 0.21622,-0.21689 0.4664,-0.30368 0.72851,-0.27929 z m -3.07422,1.13867 c 0.70559,-0.0771 1.4561,0.54428 3.06836,2.09375 2.5012,2.4038 2.75142,3.13208 2.24414,6.52539 -0.46097,3.08356 -0.18612,4.26137 1.42969,6.125 l 1.91016,2.20313 c -4.45829,0.066 -11.12684,-2.98398 -14.65235,-7.49415 -4.79871,-6.13894 -7.01398,-11.77042 -3.07617,-7.82031 2.08315,2.08966 4.71934,1.81765 7.67774,-0.78906 0.56761,-0.50013 0.97508,-0.79748 1.39843,-0.84375 z m 84.42383,19.55266 c -1.24135,0.006 -2.75127,0.57268 -5.61914,1.88672 -2.94276,1.34835 -5.98092,2.69089 -6.75195,2.98242 -0.77103,0.29154 2.90904,0.31358 8.17773,0.0488 l 9.58008,-0.48242 0,6.56836 0,6.5664 -10.56055,0 c -7.12684,0 -10.98701,-0.38104 -11.87109,-1.17187 -1.11333,-0.99585 -1.12593,-0.92774 -0.082,0.45703 1.04928,1.39191 0.97522,1.73149 -0.51172,2.31836 -1.16346,0.45921 1.20268,1.20284 7.13672,2.24414 4.88318,0.85691 9.89605,1.60757 11.14062,1.66797 2.93618,0.14244 5.68164,-2.39287 5.68164,-5.2461 0,-2.13951 0.1044,-2.17779 2.07813,-0.79101 2.98359,2.09632 7.81684,1.84681 10.18164,-0.52539 1.6021,-1.60712 1.88893,-2.76975 1.51367,-6.10938 -0.56004,-4.98426 0.55522,-5.94618 3.58203,-3.09375 2.98939,2.81715 4.15077,1.53505 1.33399,-1.47265 -2.20768,-2.35731 -5.05026,-3.06224 -6.01758,-1.49219 -0.28745,0.46654 -2.1951,0.62478 -4.24024,0.34961 -2.48849,-0.33482 -4.44176,-0.0257 -5.90429,0.93555 -2.08603,1.37109 -2.23094,1.31288 -3.20118,-1.26563 -0.18101,-0.48105 -0.47464,-0.98412 -0.82421,-1.46875 l -3.64258,0.70508 c -2.05607,0.39906 -4.99897,0.72466 -6.54102,0.72266 -2.76023,-0.004 -2.74374,-0.0352 1.13086,-1.98829 3.48604,-1.75725 4.23435,-1.84091 6.54297,-0.72265 l 2.4375,1.18164 c -0.72324,-0.97203 -1.68997,-1.84763 -2.57031,-2.25 -0.78752,-0.35994 -1.43488,-0.55831 -2.17969,-0.55469 z m 4.75,2.80469 c 0.025,0.0336 0.0479,0.0678 0.0723,0.10156 l 0.0957,-0.0195 -0.16797,-0.082 z m -70.69141,-10.10344 c 1.58349,-0.0351 3.13523,0.79037 4.65821,2.47851 1.60395,1.7779 1.6032,1.92568 -0.0215,3.72656 -2.11327,2.34244 -6.22709,2.42191 -8.26757,0.16016 -2.11839,-2.34811 -1.94404,-3.60618 0.74414,-5.37305 0.97489,-0.64077 1.93662,-0.97116 2.88672,-0.99218 z m 76.64649,23.00774 c 1.64023,-0.008 3.24091,0.40819 3.55859,0.92382 0.7403,1.20157 -3.28516,1.20157 -5.13867,0 -1.0667,-0.69151 -0.68914,-0.91282 1.58008,-0.92382 z m 33.95508,0.0566 c -0.37898,-0.065 -0.96497,0.14227 -1.66211,0.72265 -1.62219,1.35052 -1.89336,4.30597 -0.47461,5.18555 0.57389,0.35579 0.11062,1.61582 -1.16797,3.17383 l -2.11914,2.58203 -4.10938,-1.81641 c -5.29598,-2.34029 -9.38884,-1.79264 -18.28906,2.44727 -9.02874,4.30113 -10.12402,6.04687 -10.07812,16.04687 0.0197,4.3051 0.3352,9.60441 0.70117,11.77735 0.66472,3.94673 0.65872,3.95835 -6.08985,10.58203 -6.73259,6.608 -10.23157,12.89714 -8.98632,16.15234 0.76301,1.9946 2.20499,1.71285 3.80859,-0.74219 0.7653,-1.17165 5.19871,-5.45744 9.85352,-9.52539 4.6548,-4.06794 8.63329,-8.2767 8.83984,-9.35351 0.20656,-1.07683 0.87607,-6.28803 1.48828,-11.58008 1.03247,-8.92484 1.30651,-9.76051 3.77734,-11.52539 1.46509,-1.0465 4.81601,-2.15809 7.44727,-2.4707 l 4.7832,-0.56836 -0.60351,4.12304 c -0.46447,3.17025 -0.0725,5.53458 1.6914,10.21875 2.32998,6.18745 4.10651,7.72718 6.11719,5.29688 0.88233,-1.06646 0.62072,-2.469 -1.25976,-6.73438 -2.35535,-5.34251 -2.3615,-5.4288 -0.79493,-10.41406 l 1.57813,-5.02734 1.99219,1.87695 c 4.47179,4.21415 11.68359,0.48042 11.68359,-6.04883 0,-3.41839 -2.58019,-7.07422 -4.99414,-7.07422 -0.69136,0 -2.01195,-0.83585 -2.93359,-1.85742 -1.38398,-1.53406 -1.46692,-2.10806 -0.47852,-3.30273 0.96636,-1.16803 0.91093,-2.03621 0.2793,-2.14453 z m -50.17774,2.74218 c 5.99689,0 10.9043,0.3375 10.9043,0.75 0,0.4125 -0.50622,1.25625 -1.12305,1.875 -0.61682,0.61875 -2.19315,1.07924 -3.5039,1.02344 -3.40448,-0.14489 -16.06183,-2.52671 -16.66993,-3.13672 -0.28096,-0.28183 4.3957,-0.51172 10.39258,-0.51172 z m 64.35938,3.52735 c -1.22742,-0.0978 -2.66199,0.38219 -3.01563,1.30664 -0.71007,1.8562 1.00582,4.78153 6.63477,11.32226 l 4.83984,5.625 -0.13672,14.53125 -0.13476,14.53125 -3.5,4.59375 c -4.219,5.53759 -7.13477,11.08044 -7.13477,13.56641 0,1.61117 1.76827,4.11848 9.98438,14.16602 l 2.03906,2.49414 -4.15625,6.96484 c -2.84326,4.76658 -3.99708,7.63073 -3.65625,9.07422 l 0.49805,2.10937 -154.9043,0.0312 0,0.48047 c 119.35923,-0.0209 194.42144,-0.12896 188.95703,-0.27148 -10.57694,-0.27594 -11.29118,-0.41734 -12.14844,-2.37695 -0.55881,-1.2774 -1.90572,-2.19692 -3.48242,-2.37891 l -2.56836,-0.29492 0.0586,-8.61133 c 0.10333,-14.86423 1.46187,-30.78265 2.6914,-31.54492 0.62585,-0.388 4.78341,-0.98658 9.23828,-1.33008 6.25426,-0.48224 8.5189,-1.04571 9.94141,-2.47266 1.73327,-1.73869 1.74745,-1.94124 0.25391,-3.43945 -1.4926,-1.49754 -1.78551,-1.49767 -4.90821,-0.004 -3.9559,1.89234 -10.8278,2.24351 -9.05273,0.46289 0.61682,-0.61875 1.12305,-2.72813 1.12305,-4.6875 0,-4.00073 -2.55512,-7.3125 -5.64063,-7.3125 -1.76374,0 -1.84804,-0.35623 -1.16797,-4.92187 1.14483,-7.68594 0.85732,-12.69991 -0.82617,-14.38867 -1.39149,-1.39583 -1.37139,-1.65477 0.25781,-3.28907 2.48601,-2.49377 2.38114,-8.6616 -0.1914,-11.24218 -1.48483,-1.48956 -2.79027,-1.86652 -5.375,-1.55664 -1.87722,0.22504 -4.13875,-0.0403 -5.02735,-0.58985 -1.15299,-0.71309 -2.42339,-0.69352 -4.43555,0.0684 -1.64911,0.62441 -3.03778,0.71269 -3.3457,0.21289 -0.30919,-0.50185 -0.97253,-0.76943 -1.70898,-0.82812 z m -0.58985,0.91015 c 1.21309,0 2.29963,1.06215 3.13282,3.0625 1.3723,3.29464 6.01136,7.78252 11.90039,11.51172 4.05516,2.56791 4.36677,3.34522 2.20312,5.51563 -2.47468,2.48241 -2.54303,2.4388 -10.79297,-6.96485 -8.42794,-9.60653 -10.15462,-13.125 -6.44336,-13.125 z m -27.99804,2.24805 c 0.55237,0.0224 1.07886,0.0787 1.57422,0.17188 l 3.51953,0.6621 -2.69727,2.15821 c -2.45897,1.96684 -2.59676,2.37686 -1.56055,4.6582 0.62507,1.37616 1.13672,2.63516 1.13672,2.79688 0,0.16173 -2.11682,0.54601 -4.70508,0.85351 -2.58826,0.3075 -5.89325,1.40534 -7.34374,2.44141 l -2.63672,1.88476 -2.16602,-2.3125 c -2.3635,-2.5237 -4.57939,-2.93973 -6.32617,-1.1875 -0.87227,0.87503 -1.12109,0.86239 -1.12109,-0.0605 -10e-6,-5.09592 14.04055,-12.40212 22.32617,-12.06641 z m 35.65039,-1.21094 c 1.41058,-0.078 2.07624,1.49172 2.13867,4.82422 0.0459,2.44841 0.0107,4.45117 -0.0781,4.45117 -0.0888,0 -1.51764,-1.54894 -3.17578,-3.44336 -2.86867,-3.27745 -2.93095,-3.50621 -1.2832,-4.71484 0.96195,-0.7056 1.75726,-1.08173 2.39844,-1.11719 z m -30.0918,3.82618 c 2.7852,-0.0963 4.49595,2.85494 2.75977,6.63476 -3.6223,7.88605 -3.7504,9.48351 -1.20899,15.24805 1.30467,2.95929 2.1302,5.77507 1.83399,6.25586 -2.37633,3.85699 -7.51051,-8.45824 -6.45899,-15.49219 0.41366,-2.76705 0.21168,-5.32185 -0.56836,-7.21094 -1.07903,-2.61314 -1.01665,-3.06473 0.58594,-4.24023 1.07927,-0.79165 2.12824,-1.16321 3.05664,-1.19531 z m 9.33398,2.04296 c 1.35367,-0.0256 2.27791,0.54933 3.78321,2.07813 2.39984,2.43734 2.41464,2.52678 0.64258,3.84961 -2.47161,1.84504 -6.47951,1.70358 -8.15625,-0.28711 -2.01468,-2.3919 -1.07931,-4.70626 2.19531,-5.42774 0.58418,-0.12871 1.08393,-0.20435 1.53515,-0.21289 z m 32.83204,-1.17968 c 1.57,-0.0907 1.78125,0.39198 1.78125,2.58203 0,1.54429 -0.661,3.47099 -1.46875,4.28125 -0.80773,0.81028 -2.29333,1.47265 -3.30078,1.47265 -4.53281,0 -2.4516,-7.71916 2.22851,-8.26562 0.28309,-0.0331 0.53548,-0.0574 0.75977,-0.0703 z m -66.26172,8.70507 c 1.07839,-0.0129 2.20425,0.50494 3.17773,1.58399 1.6062,1.78039 1.64491,2.59191 0.58399,11.99414 -0.62587,5.54661 -1.30252,10.93607 -1.50391,11.97656 -0.20138,1.04049 -4.20064,5.24262 -8.88672,9.33789 -4.68607,4.09528 -8.92172,8.20023 -9.41406,9.12305 -1.05895,1.98483 -2.69922,2.22067 -2.69922,0.38867 0,-3.92043 3.09701,-9.16986 8.40234,-14.24609 3.18643,-3.04884 6.15583,-6.22263 6.59766,-7.05078 0.45079,-0.84498 0.42813,-5.14639 -0.0508,-9.80274 -0.62997,-6.12502 -0.5554,-8.92429 0.28515,-10.68945 0.81251,-1.70627 2.12131,-2.5986 3.50782,-2.61524 z m 64.47656,0.68165 c 0.0877,0.01 0.49081,0.3647 1.25586,1.06835 2.01995,1.85782 2.16054,4.56193 0.94141,18.18946 -0.7549,8.43831 -0.80444,8.57432 -2.85157,7.63867 -3.04318,-1.3909 -5.82069,0.47624 -6.91015,4.64648 -0.9867,3.77693 -0.7673,20.34358 0.30273,22.83008 0.35952,0.8349 0.52488,3.71877 0.36719,6.4082 l -0.28711,4.89063 -5.13867,-6.21484 c -6.98413,-8.44395 -7.44633,-10.30627 -4.08789,-16.4961 1.46966,-2.7087 3.9027,-6.23188 5.4082,-7.82812 l 2.73828,-2.90235 0.0723,-13.75 c 0.0402,-7.56251 0.38988,-14.06641 0.77539,-14.45312 0.38552,-0.38672 0.70117,-0.22601 0.70117,0.35742 0,1.51785 3.3316,3.09971 5.09766,2.41992 2.4489,-0.94267 3.62872,-3.97577 2.25976,-5.80664 -0.50416,-0.67431 -0.73221,-1.00791 -0.64453,-0.99804 z m 7.67188,26.13671 c 1.26608,0 1.55682,0.66748 1.32812,3.04688 -0.25752,2.67912 -0.65931,3.08349 -3.33008,3.3418 -2.46802,0.23871 -3.03711,-0.0424 -3.03711,-1.4961 0,-2.16544 2.80849,-4.89258 5.03907,-4.89258 z m -10,1.19922 c 0.68281,0.0467 1.42206,0.28143 2.21484,0.70703 1.96577,1.05535 1.98731,1.31756 1.20508,15.75586 -0.43747,8.07506 0.28452,19.62705 -0.79688,25.45118 l 0,10.77148 2.79297,0.48633 c 1.65669,0.2889 2.91943,1.15199 3.10547,2.12109 0.27144,1.41388 -0.48027,1.63344 -5.5957,1.63281 l -5.91016,-0.002 -0.17578,-11.77734 c -0.0975,-6.47788 -0.64905,-17.41452 -1.22461,-24.30274 -0.75408,-9.02491 -0.76359,-13.57544 -0.0352,-16.28906 0.84424,-3.14507 2.37149,-4.69494 4.41993,-4.55469 z m 23.64453,4.69336 c 0.47359,0.0215 0.82734,0.1819 1.11914,0.47461 2.14602,2.15273 -0.9637,3.77511 -8.40821,4.38672 -3.95487,0.32491 -8.13642,0.78748 -9.29296,1.0293 -1.75671,0.3673 -2.10157,0.0361 -2.10157,-2.01368 0,-2.45069 0.006,-2.45336 5.69531,-1.79101 4.49715,0.52359 6.47083,0.31262 9.37696,-1.00195 1.70341,-0.77054 2.82201,-1.11975 3.61133,-1.08399 z m -34.99805,13.79492 c -2.37632,0 -4.2702,1.67526 -4.1875,3.70313 0.0363,0.89138 0.38583,0.63769 0.9043,-0.65625 1.1182,-2.79063 4.98714,-2.80462 6.92773,-0.0254 0.80017,1.146 1.45508,1.70693 1.45508,1.24609 0,-1.64767 -3.13092,-4.26758 -5.09961,-4.26757 z m 6.70703,20.48633 0.63281,3.9668 c 0.55346,3.47206 0.32452,4.28684 -1.83398,6.54687 -2.45848,2.57412 -2.46014,2.58546 -0.50195,3.63672 1.08015,0.57988 1.96484,1.67244 1.96484,2.42774 0,0.97323 -1.07111,1.37304 -3.67578,1.37304 -5.61303,0 -5.77057,-2.31751 -0.73633,-10.88671 z m 0.93945,9.7207 c 0.24263,0.0318 0.25586,0.51018 0.25586,1.4668 0,2.31444 -1.03658,3.17172 -2.63672,2.17969 -0.84293,-0.52259 -0.64537,-1.16454 0.7461,-2.42773 0.92072,-0.83585 1.39213,-1.25058 1.63476,-1.21876 z"
       style="fill:#000000"
       inkscape:connector-curvature="0"
       sodipodi:nodetypes="ssscssssssssssssssscssssssscssccsssssssccccssssscsssssccscssccssssssssssscccssssssscscssssccccscccssscsssccscccccsccsscsssssscscscccsccsccccccccssssccssccsscccscsssssssscccssscccsssscsssccscscccccscccscccsscccsssccsssssscsccsccssssssccccsssccccsccccsssccssscsssscssssccscscccssssssscsscccssssccccscccssccccsssssccssccscccsccccsssssscscscssccsssscccsssc" />
  </g>
</svg>
