<?xml version="1.0" encoding="UTF-8" standalone="no"?>
<!-- Created with Inkscape (http://www.inkscape.org/) -->

<svg
   xmlns:dc="http://purl.org/dc/elements/1.1/"
   xmlns:cc="http://creativecommons.org/ns#"
   xmlns:rdf="http://www.w3.org/1999/02/22-rdf-syntax-ns#"
   xmlns:svg="http://www.w3.org/2000/svg"
   xmlns="http://www.w3.org/2000/svg"
   xmlns:sodipodi="http://sodipodi.sourceforge.net/DTD/sodipodi-0.dtd"
   xmlns:inkscape="http://www.inkscape.org/namespaces/inkscape"
   version="1.1"
   width="644"
   height="297"
   id="svg2"
   inkscape:version="0.91 r13725"
   sodipodi:docname="20ub650602.svg">
  <sodipodi:namedview
     pagecolor="#ffffff"
     bordercolor="#666666"
     borderopacity="1"
     objecttolerance="10"
     gridtolerance="10"
     guidetolerance="10"
     inkscape:pageopacity="0"
     inkscape:pageshadow="2"
     inkscape:window-width="1476"
     inkscape:window-height="840"
     id="namedview11"
     showgrid="false"
     inkscape:zoom="0.94720497"
     inkscape:cx="312.26436"
     inkscape:cy="230.70827"
     inkscape:window-x="0"
     inkscape:window-y="0"
     inkscape:window-maximized="0"
     inkscape:current-layer="svg2" />
  <metadata
     id="metadata8">
    <rdf:RDF>
      <cc:Work
         rdf:about="">
        <dc:format>image/svg+xml</dc:format>
        <dc:type
           rdf:resource="http://purl.org/dc/dcmitype/StillImage" />
        <dc:title></dc:title>
      </cc:Work>
    </rdf:RDF>
  </metadata>
  <defs
     id="defs6" />
  <g
     id="g2987">
    <path
       d="m 588.35889,280.49286 c -0.31898,-0.83125 1.26678,-4.61294 3.53607,-8.43271 l 4.1144,-6.92557 -5.49925,-7.66482 c -4.48902,-6.25677 -5.38012,-8.15209 -4.85071,-10.31729 0.61073,-2.4978 1.97746,-4.10249 3.52365,-4.13716 0.37568,-0.008 2.22868,1.89719 4.11777,4.23469 3.37108,4.17125 3.4448,4.46538 3.97852,15.87414 0.46154,9.86563 0.29892,11.86903 -1.07491,13.24286 -1.26432,1.26432 -1.35443,1.883 -0.41157,2.82586 2.07782,2.07782 1.34405,2.80714 -2.82424,2.80714 -2.66945,0 -4.22677,-0.50916 -4.60973,-1.50714 z m 9.92995,-10.74466 c -0.11614,-6.73651 -0.70533,-18.176 -1.30931,-25.4211 -0.78909,-9.46567 -0.79374,-14.30334 -0.0165,-17.18969 1.20445,-4.47299 3.70725,-5.91944 7.10033,-4.10352 2.10338,1.1257 2.12475,1.40454 1.28777,16.8054 -0.4681,8.61339 -0.8511,20.83045 -0.8511,27.14902 l 0,11.48831 2.9175,0.51169 c 1.60463,0.28143 3.10463,1.07419 3.33334,1.76169 0.30349,0.91231 -1.29513,1.24951 -5.91751,1.2482 L 598.5,281.99641 598.28884,269.7482 z M 502,235.62573 c 0,-0.75585 0.68965,-3.34335 1.53255,-5.75 1.17131,-3.34432 4.85289,-7.70675 15.61897,-18.50743 12.7584,-12.79939 14.33447,-14.06593 16.71745,-13.43408 2.0018,0.53077 2.70315,1.42131 2.9326,3.72367 0.24951,2.50359 -0.35479,3.5198 -3.5,5.88574 -5.92381,4.45611 -19.08748,16.31724 -25.7548,23.20637 C 503.34742,237.1556 502,238.02613 502,235.62573 z m 105,-2.71367 c 0,-2.53475 0.32246,-3.0023 1.70479,-2.47185 4.61922,1.77256 10.46751,1.78584 14.35551,0.0326 2.96627,-1.3376 4.29789,-1.51462 5.13049,-0.68202 2.29625,2.29625 -1.03115,4.02682 -8.99678,4.6792 -4.23171,0.34658 -8.70651,0.84119 -9.94401,1.09913 -1.95351,0.40718 -2.25,0.0571 -2.25,-2.65706 z m 0,-6.32043 C 607,224.07331 611.10002,220 613.63486,220 c 1.76159,0 1.86838,6.90773 0.11514,7.44786 -5.67919,1.74961 -6.75,1.61378 -6.75,-0.85623 z M 30.586055,220.36366 c -0.906928,-2.36342 1.228624,-6.41512 5.149442,-9.76984 3.332386,-2.85125 3.43103,-2.87015 5.218784,-1 1.773692,1.85544 1.668337,2.04601 -3.957877,7.15925 -4.691063,4.26334 -5.898822,4.94361 -6.410349,3.61059 z m 520.985375,-6.93509 c -3.30675,-3.30675 -1.30974,-21.29614 2.90849,-26.20012 1.98519,-2.30792 2.50954,-2.48209 3.92812,-1.30477 1.99284,1.65391 1.35369,4.25102 -2.2184,9.01433 -2.02668,2.70254 -2.58906,4.62787 -2.62883,9 -0.0278,3.0591 0.33339,6.79949 0.8027,8.31199 0.97098,3.12925 -0.30345,3.6672 -2.79208,1.17857 z M 42.666186,208.18363 c -1.553675,-1.71679 -1.027669,-2.42179 9.595012,-12.86015 12.721618,-12.50087 14.766106,-13.91442 17.78686,-12.29776 2.289342,1.22522 1.937478,4.05496 -0.916339,7.36933 C 67.163152,192.68131 45.76922,210 44.913552,210 c -0.331967,0 -1.343282,-0.81736 -2.247366,-1.81637 z M 599.49114,199.23469 C 598.93627,198.83061 595.5121,195.125 591.88187,191 c -9.01789,-10.24696 -10.86634,-14 -6.89529,-14 1.298,0 2.45952,1.13191 3.35104,3.26562 1.46836,3.51428 6.4341,8.30264 12.73536,12.28045 4.33902,2.7391 4.6707,3.56739 2.35559,5.8825 -1.74401,1.74401 -2.45082,1.88872 -3.93743,0.80612 z m 0.99378,-8.25909 c -1.24829,-2.01977 0.60849,-6.69713 3.11125,-7.83746 3.8619,-1.7596 4.40383,-1.42717 4.40383,2.70134 0,3.14395 -0.46141,4.04972 -2.54705,5 -3.13281,1.42741 -4.1527,1.45535 -4.96803,0.13612 z m -39.80456,-4.01239 c -3.04837,-2.39785 -2.62666,-4.3286 1.30077,-5.95539 2.19265,-0.90823 3.36931,-0.89826 5.17814,0.0439 3.21772,1.67599 3.14497,1.50714 1.77205,4.11264 -2.29883,4.36268 -4.40722,4.82235 -8.25096,1.79886 z m -34.60631,-8.37398 c -2.44609,-2.94736 -2.32386,-7.90099 0.3353,-13.58923 2.25793,-4.82998 2.38625,-5.63771 1.05335,-6.63039 -1.26419,-0.94151 -0.84142,-1.40104 2.52998,-2.75 2.22629,-0.89079 4.26369,-1.61961 4.52756,-1.61961 1.26095,0 0.1593,3.95803 -3.12829,11.2393 -3.04745,6.74944 -3.43588,8.36886 -2.5,10.42291 0.60943,1.33754 1.10805,2.86072 1.10805,3.38484 0,1.44333 -2.59974,1.14016 -3.92595,-0.45782 z M 80.75,165.9199 c -2.456395,-1.43072 -2.176667,-3.59423 0.70919,-5.48512 1.352554,-0.88622 6.131468,-7.89268 10.619809,-15.56991 4.488341,-7.67722 8.392331,-13.72688 8.675531,-13.44368 0.97832,0.97833 -14.070103,33.20863 -16.25453,34.8135 -1.285574,0.94449 -1.638862,0.91484 -3.75,-0.31479 z M 88,162.52417 c 0,-0.26171 0.898318,-1.94921 1.996262,-3.75 1.95119,-3.20024 1.996346,-3.2166 2,-0.72417 0.0021,1.4025 -0.536262,3.09 -1.196262,3.75 -1.20302,1.20302 -2.8,1.61605 -2.8,0.72417 z m 302.47784,-2.76294 c -2.18781,-1.78133 -4.0989,-3.46883 -4.24686,-3.75 -0.3702,-0.70351 -12.10783,-21.07552 -15.45762,-26.82848 -3.94763,-6.77969 -3.6572,-12.18508 0.72664,-13.52406 1.76727,-0.53979 3.15708,1.80091 11.94356,20.11522 5.46896,11.39935 10.53146,21.43652 11.25,22.30483 1.42469,1.72164 1.77206,4.92126 0.53428,4.92126 -0.42468,0 -2.56218,-1.45745 -4.75,-3.23877 z m 118.87345,1.71183 c -1.22919,-3.20321 7.26576,-13.11521 15.65906,-18.27118 5.88666,-3.61615 9.63608,-3.86112 11.38879,-0.74411 1.52542,2.7128 3.28727,4.54223 4.37444,4.54223 1.76678,0 4.22642,3.68312 4.22642,6.32874 0,2.38342 -0.37509,2.67126 -3.48095,2.67126 -3.83301,0 -4.94164,-1.93816 -4.33403,-7.57696 0.23653,-2.19505 -0.0586,-2.82759 -1.18502,-2.53977 -0.825,0.21079 -2.85,0.46166 -4.5,0.55747 -1.65,0.0958 -4.35,0.89975 -6,1.78653 -3.43079,1.84384 -10.70816,9.18236 -12.41839,12.52273 -1.33497,2.60742 -2.89145,2.90912 -3.73032,0.72306 z M 416,158.61501 c 0,-4.02654 3.48351,-7.04318 6.30796,-5.46254 2.20889,1.23616 2.13412,2.41795 -0.37605,5.94316 C 418.98033,163.24073 416,162.99926 416,158.61501 z M 159.07258,158.36514 C 157.93266,156.91597 157,155.3568 157,154.90033 c 0,-1.65739 3.89686,-2.76838 25.93384,-7.39373 14.17376,-2.97494 24.38094,-5.6636 27.72205,-7.30224 2.90852,-1.42647 5.60905,-2.27275 6.00119,-1.88062 0.39213,0.39214 -1.01428,2.48184 -3.12537,4.64378 -2.92357,2.99401 -5.52962,4.43365 -10.93502,6.04072 -3.90318,1.16045 -13.99544,4.33333 -22.42725,7.05084 C 171.73763,158.77658 164.0078,161 162.99202,161 c -1.01577,0 -2.77952,-1.18569 -3.91944,-2.63486 z M 454.75,156.98155 c -2.15545,-1.33137 -2.28296,-5.29434 -0.22529,-7.00206 1.26066,-1.04625 34.48234,-6.47436 34.9932,-5.71755 0.0884,0.13093 -0.034,2.09504 -0.27188,4.36468 l -0.43257,4.12662 -14.09802,0.72637 c -7.75392,0.3995 -15.02444,1.14037 -16.15673,1.64638 -1.83309,0.81918 -1.78473,0.8703 0.44129,0.46645 1.375,-0.24946 8.6875,-0.77053 16.25,-1.15794 12.34717,-0.63252 13.75,-0.53759 13.75,0.93056 0,1.41585 -1.50752,1.6361 -11.25,1.64363 -6.1875,0.005 -13.5,0.24384 -16.25,0.53124 -2.8115,0.29383 -5.76598,0.0494 -6.75,-0.55838 z M 491,155.63084 c 0,-0.80528 1.54442,-1.62443 3.75,-1.98899 5.90491,-0.97602 7.10667,-0.77818 8.25,1.35815 1.01961,1.90517 0.76049,2 -5.46482,2 C 492.67037,157 491,156.65005 491,155.63084 z m -359.52582,-2.84948 c -1.0858,-0.57698 -3.19293,-2.18005 -4.68251,-3.56238 C 123.2307,145.91442 112.23245,138.33473 108.75,136.78517 106.01048,135.56619 105.054,134 107.04907,134 c 1.26423,0 26.92529,12.5463 28.70093,14.03257 3.15839,2.64366 -0.52953,6.73953 -4.27582,4.74879 z M 491,149.68497 C 491,145.39608 493.15618,143 497.01566,143 c 3.70066,0 8.35227,3.87762 7.45538,6.21486 -0.73814,1.92358 -1.94173,2.38476 -8.72104,3.34172 l -4.75,0.67051 0,-3.54212 z m -368.9721,-0.15135 c -1.97732,-2.38253 -0.78809,-3.75438 1.7273,-1.99253 1.23464,0.86478 2.2448,1.9968 2.2448,2.51561 0,1.45843 -2.6132,1.1143 -3.9721,-0.52308 z M 418.26316,149.75 c -1.71427,-2.18271 -2.30311,-7.88794 -1.2267,-11.88541 1.13021,-4.19728 1.07403,-4.14316 3.38175,-3.2576 0.96739,0.37122 1.58179,1.80022 1.58179,3.679 0,1.68961 0.5554,4.60793 1.23421,6.48517 1.09978,3.04137 1.0245,3.5665 -0.69113,4.821 -2.36528,1.72953 -3.02639,1.75391 -4.27992,0.15784 z M 234,138.34786 c 0,-1.18858 6.47491,-9.25394 7.89034,-9.82846 1.21572,-0.49346 9.99427,-5.48771 25.91955,-14.74604 6.7898,-3.94732 12.19244,-3.6572 13.53142,0.72664 0.53979,1.76727 -1.80091,3.15708 -20.11522,11.94356 -11.39935,5.46896 -21.43652,10.53146 -22.30483,11.25 -1.63991,1.35706 -4.92126,1.79333 -4.92126,0.6543 z m 185.54949,-6.26779 C 418.97462,131.14991 423.5373,127 425.13486,127 c 1.12838,0 1.09382,0.404 -0.29538,3.45295 -1.14024,2.50257 -4.17251,3.43525 -5.28999,1.62712 z M 101.75,129.31067 c -1.54752,-0.4044 -1.75,-1.88632 -1.75,-12.8077 0,-6.79272 -0.522459,-14.6138 -1.161019,-17.3802 C 97.552121,93.547792 98.589778,91 102.1472,91 c 3.26227,0 4.07563,4.312971 2.3703,12.56898 -2.04406,9.89594 -2.0538,23.28799 -0.0175,24.06939 0.825,0.31659 1.5,0.97746 1.5,1.46862 0,0.92666 -1.25355,0.98674 -4.25,0.20368 z M 189,128.12132 c 0,-0.48327 1.36637,-1.44465 3.03639,-2.13639 3.60777,-1.49439 14.3953,-12.97115 17.0239,-18.1116 1.67895,-3.28332 3.62026,-4.87333 5.95007,-4.87333 1.29249,0 3.98964,2.98134 3.98964,4.41001 0,0.69693 -3.7125,4.22271 -8.25,7.83507 -4.5375,3.61236 -9.80078,8.18499 -11.69617,10.16142 -2.59329,2.70416 -4.26381,3.5935 -6.75,3.5935 C 190.48672,129 189,128.60459 189,128.12132 z M 87.5,117.53911 c -6.05,-5.3591 -11.642306,-10.35614 -12.427346,-11.10453 -1.152712,-1.09889 -1.198953,-1.86197 -0.240327,-3.96592 1.674609,-3.67537 5.165675,-2.974464 7.390834,1.48386 0.947739,1.89889 5.142748,7.18892 9.322242,11.75562 4.358717,4.76253 7.461672,9.00065 7.276839,9.93895 -0.232149,1.17849 -3.397639,-1.08835 -11.322242,-8.10798 z m 124.16667,4.79422 c -1.47247,-1.47246 -0.54071,-6.10303 1.64033,-8.15202 2.7568,-2.58987 4.693,-1.36784 4.693,2.96199 0,3.43845 -4.44353,7.07984 -6.33333,5.19003 z m 218.44734,-1.69596 c -0.85264,-1.02737 -0.53667,-4.41036 1.28427,-13.75 1.32833,-6.81305 3.17936,-17.56237 4.11341,-23.88737 2.11413,-14.316098 2.81064,-16.236008 5.73862,-15.818283 4.3183,0.616078 5.04252,4.493304 3.37823,18.086119 -0.82373,6.72769 -2.02098,16.957164 -2.66056,22.732164 -1.33405,12.04555 -1.62368,13.33082 -2.83529,12.58201 -0.48793,-0.30156 -0.52859,-2.45044 -0.0911,-4.81339 0.4347,-2.34774 1.29344,-9.66862 1.90832,-16.26862 0.61488,-6.6 1.38534,-14.025 1.71215,-16.5 0.3268,-2.475 0.32316,-4.249138 -0.008,-3.94253 -0.33124,0.306609 -1.06416,5.031609 -1.62869,10.5 -3.06064,29.64689 -3.00865,29.38256 -6.09239,30.97722 -3.45616,1.78725 -3.42145,1.78651 -4.8189,0.10268 z M 280.72998,119.75 c -0.24017,-0.6875 0.35785,-1.7 1.32894,-2.25 4.45557,-2.52352 17.83195,-14.92906 18.35819,-17.02578 0.78236,-3.117163 4.19125,-4.138628 6.58428,-1.972964 1.80163,1.630454 1.80264,1.772644 0.0334,4.681964 -1.00357,1.65024 -6.10875,5.86528 -11.34484,9.36675 -5.23609,3.50148 -9.80992,6.83516 -10.16406,7.40818 -0.89718,1.45166 -4.26713,1.3054 -4.79589,-0.20815 z M 85.235696,107.73899 C 83.668484,105.77943 82.756472,102 83.850825,102 86.348162,102 88,103.41249 88,105.54797 c 0,2.79991 -1.393788,3.90464 -2.764304,2.19102 z M 348.36163,106.5 c -1.64286,-4.28122 1.4158,-5.84028 17.0146,-8.672661 8.00105,-1.452808 11.1711,-1.680012 11.99164,-0.859467 0.82055,0.820546 0.74344,1.345299 -0.29167,1.985035 -1.35495,0.837405 -3.10886,1.142703 -15.04013,2.618003 -4.21883,0.52166 -6.07631,1.33116 -8.15121,3.55235 -2.99292,3.20393 -4.66239,3.62007 -5.52323,1.37674 z m -8.63621,-3.26471 C 338.22644,101.67069 337,100.11344 337,99.774736 c 0,-0.338704 1.38022,-0.918973 3.06716,-1.289487 3.67915,-0.808076 7.18248,1.774861 6.72686,4.959581 -0.44981,3.14412 -3.95514,3.04021 -7.0686,-0.20954 z M 105.61006,102.25 c 0.35648,-1.5125 1.02099,-3.158428 1.47667,-3.657618 1.27278,-1.394308 3.91327,1.32499 3.91327,4.030058 0,1.9784 -0.50686,2.37756 -3.01905,2.37756 -2.78398,0 -2.96859,-0.21413 -2.37089,-2.75 z M 308.12929,98.65579 C 306.59983,96.812897 311.49202,91 314.57248,91 316.67759,91 317,91.462318 317,94.480948 c 0,2.984652 -0.39208,3.56686 -2.75,4.083523 -1.5125,0.331416 -3.2796,0.763241 -3.92689,0.959611 -0.64728,0.19637 -1.6345,-0.194361 -2.19382,-0.868292 z M 52.891565,83.285539 c -3.025462,-2.632046 -7.051253,-5.97138 -8.946202,-7.420742 -3.419748,-2.615611 -3.4312,-2.650925 -1.540375,-4.75 C 43.452731,69.951659 44.654595,69 45.075796,69 c 1.521745,0 16.252063,9.541297 17.28683,11.197231 1.342572,2.148514 -0.269361,7.161127 -2.437089,7.578593 -0.843223,0.16239 -4.008511,-1.858238 -7.033972,-4.490285 z M 194.87498,71.413627 c -5.70624,-9.122505 -12.79293,-19.267056 -15.7482,-22.543446 -2.95527,-3.276391 -5.08731,-6.242982 -4.73787,-6.592426 0.34944,-0.349443 3.03278,0.120372 5.96297,1.044033 3.87889,1.222711 5.65077,2.388616 6.51598,4.287533 1.29468,2.84153 16.23543,22.313883 22.35304,29.13284 2.96815,3.308441 3.59886,4.62907 2.86547,6 -0.51721,0.966811 -1.1841,2.545339 -1.48199,3.507839 -0.31933,1.031801 -1.5292,1.75 -2.94801,1.75 -2.02814,0 -4.03725,-2.60722 -12.78139,-16.586373 z M 33,67.34269 C 29.975,64.856236 24.4625,60.839896 20.75,58.417489 14.293789,54.20481 12.438817,52 15.350777,52 c 3.185355,0 8.778307,2.723575 17.979688,8.755489 l 9.830464,6.444307 -2.254778,2.400102 c -1.240129,1.320056 -2.288838,2.369393 -2.330465,2.331859 C 38.534059,71.894224 36.025,69.829144 33,67.34269 z m 67.09085,1.431171 C 98.472479,66.182443 98.183939,61.671946 97.626444,30.25 97.399565,17.4625 97.555805,7 97.973643,7 c 1.51778,0 5.026427,10.383219 5.029317,14.883353 0.002,2.539156 0.76247,11.591647 1.69075,20.116647 0.92829,8.525 1.67921,17.835813 1.66871,20.690695 -0.0278,7.550501 -3.3455,10.768558 -6.27157,6.083166 z"
       id="path2997"
       style="fill:#fefefe" />
    <path
       d="m 0,290 0,-7 316.75,-0.2109 c 174.2125,-0.11599 312.05571,-0.35764 306.31824,-0.53699 -9.01471,-0.28179 -10.61853,-0.59274 -11.8067,-2.2891 C 610.50532,278.88335 608.78711,278 607.4433,278 c -2.43125,0 -2.44278,-0.0481 -2.33733,-9.75 0.19171,-17.63977 1.29603,-30.26506 2.72433,-31.14641 0.73166,-0.45149 5.23034,-1.12066 9.99705,-1.48706 6.69206,-0.51439 9.11587,-1.11531 10.63795,-2.63739 1.8546,-1.8546 1.87073,-2.07168 0.27264,-3.66977 -1.59708,-1.59708 -1.91089,-1.59732 -5.25218,-0.004 -3.7362,1.78167 -8.29882,2.03549 -12.48576,0.6946 l -2.5,-0.80064 2.55,-0.0997 c 3.78766,-0.14806 4.95,-1.93259 4.95,-7.59968 0,-5.97917 -1.17194,-7.5 -5.77946,-7.5 -3.1513,0 -3.34289,-0.18566 -2.83787,-2.75 2.0053,-10.18238 1.4626,-16.49153 -1.58033,-18.37216 -0.6535,-0.40388 -0.23835,-1.10931 1.06256,-1.80554 1.77111,-0.94786 2.1351,-2.05344 2.1351,-6.48504 0,-6.57974 -1.31951,-7.8646 -7.71623,-7.51361 -2.63107,0.14437 -5.59997,-0.0973 -6.59754,-0.53704 -1.02162,-0.45034 -2.86217,-0.32184 -4.21429,0.29422 -1.51049,0.68823 -2.62102,0.73697 -2.99525,0.13146 -0.90728,-1.46802 -4.46891,-1.14613 -5.08508,0.45957 -0.75977,1.97994 1.07445,5.10136 7.09742,12.07814 l 5.17973,6 -0.14551,15.5 -0.14552,15.5 -3.8224,5 c -5.35467,7.00432 -7.9682,12.71884 -7.20595,15.7559 0.34545,1.37638 3.11027,5.96215 6.14404,10.19059 l 5.51594,7.68809 -4.1144,6.92557 c -2.26929,3.81977 -3.85505,7.60146 -3.53607,8.43271 C 587.8732,281.83315 561.20463,282 346.46862,282 L 105,282 l 0,-24.28037 0,-24.28037 9.88901,-1.1826 c 15.62355,-1.86837 32.63737,-8.63422 44.61099,-17.74034 4.61039,-3.50627 6.07735,-4.19746 6.33398,-2.98437 0.50563,2.39008 2.42905,1.21444 3.42664,-2.09445 0.48709,-1.61563 1.3784,-3.94932 1.98067,-5.18599 1.73936,-3.57147 0.11199,-3.84141 -5.76924,-0.95699 -5.65597,2.77395 -7.43363,5.23591 -2.97205,4.11612 1.375,-0.3451 2.5,-0.39182 2.5,-0.10381 0,0.288 -2.81228,2.63767 -6.24952,5.22149 -6.57854,4.94518 -16.03517,10.05412 -24.93175,13.46938 C 128.08297,228.19956 113.83545,231 108.36901,231 L 105,231 l 0,-46.44098 c 0,-29.9855 0.35552,-46.66071 1.00336,-47.06109 0.55184,-0.34106 4.06992,1.28011 7.81795,3.6026 l 6.8146,4.22272 -1.54239,4.28918 c -1.48715,4.13561 -1.45886,4.40215 0.79035,7.44437 2.15297,2.91204 2.20755,3.28035 0.70826,4.77964 -1.37122,1.37122 -1.9489,1.42184 -3.70567,0.32472 -2.70391,-1.68861 -3.97944,-0.43354 -1.44376,1.4206 2.80978,2.05456 5.29716,1.7449 7.01247,-0.873 0.8257,-1.26018 3.08608,-2.8643 5.02305,-3.56472 1.95621,-0.70738 3.52178,-1.95909 3.52178,-2.81576 0,-1.0766 0.52838,-1.32474 1.75,-0.82182 2.18732,0.90049 1.97396,0.85399 18.28392,3.98424 l 13.53393,2.59747 15.46607,-4.98501 c 8.50635,-2.74175 18.65638,-5.93349 22.55564,-7.09275 5.64079,-1.67703 7.98146,-3.01654 11.45414,-6.55494 3.38091,-3.4449 4.09566,-4.71611 3.17136,-5.64041 -0.92431,-0.92431 -2.4916,-0.58261 -6.95415,1.51614 -3.58646,1.68672 -13.85821,4.40296 -27.21363,7.19632 -23.54839,4.92529 -27.16282,4.96299 -37.49809,0.39122 -3.10965,-1.37555 -5.59245,-1.81365 -7.86366,-1.38757 -2.76877,0.51943 -5.38095,-0.41937 -15.75235,-5.66128 -6.83825,-3.45618 -12.57475,-6.61552 -12.74779,-7.02075 -0.17303,-0.40523 -0.96053,-0.48892 -1.75,-0.18597 -0.78946,0.30294 -1.43539,0.0902 -1.43539,-0.47285 0,-0.56301 0.53437,-1.20178 1.1875,-1.41949 0.76429,-0.25476 0.40789,-1.17544 -1,-2.58333 -1.87666,-1.87666 -2.18556,-3.28875 -2.17385,-9.9375 0.0199,-11.2674 0.42712,-12.25 5.0773,-12.25 3.30462,0 4.08809,-0.44555 5.46475,-3.1077 0.95601,-1.84873 1.35408,-4.115611 0.98262,-5.595657 -0.79949,-3.185398 1.13957,-5.808857 3.09436,-4.186529 C 119.38471,93.73424 120,94.864789 120,95.622445 120,96.3801 120.45,97 121,97 c 1.25762,0 1.26418,-1.174963 0.0247,-4.4349 -1.06781,-2.808561 -3.51748,-3.2661 -6.27593,-1.172193 -0.96314,0.731114 -2.76314,1.135576 -4,0.898803 -2.1948,-0.420155 -2.24537,-0.7231 -2.1051,-12.611103 C 108.72277,72.981273 108.18284,63.45 107.44388,58.5 105.82526,47.657488 104,28.167034 104,21.72556 104,14.51081 98.617458,3.5229378 96.664041,6.75 96.414345,7.1625 96.573248,22.125 97.017158,40 c 0.537285,21.634943 0.457714,34.729142 -0.238017,39.167899 -0.777823,4.962513 -0.721842,8.543162 0.218883,14 0.695204,4.032656 1.43787,12.282101 1.650369,18.332101 l 0.386361,11 -6.131829,-6.5 c -5.358083,-5.6798 -5.86474,-6.54036 -4.015185,-6.81984 2.820642,-0.42621 4.436464,-3.68996 3.735403,-7.545 -0.313581,-1.724338 -0.771903,-5.012492 -1.018494,-7.307009 -0.265664,-2.471993 -1.329063,-5.052565 -2.609832,-6.333334 -2.520819,-2.520819 -4.074837,-1.849231 -1.733264,0.749052 0.870444,0.965872 1.891469,2.993631 2.268944,4.506131 0.635266,2.545438 0.46118,2.75 -2.340302,2.75 -1.664641,0 -3.625924,0.225702 -4.358408,0.50156 C 82.076898,96.785857 80.799339,95.767821 79.8825,94.151389 77.947202,90.739363 61.274839,77.270446 52.939461,72.385215 49.672757,70.470652 47,68.479208 47,67.959782 c 0,-0.519426 2.241915,-2.410369 4.982033,-4.202096 2.740118,-1.791727 4.990118,-3.854978 5,-4.585002 0.01039,-0.767378 -2.688198,0.564429 -6.396915,3.157007 L 44.170236,66.814013 33.796513,60.010484 C 22.779787,52.785245 15.734817,49.865183 13.855036,51.744964 c -1.556546,1.556546 -0.357098,2.959373 6.005266,7.023521 3.101834,1.981389 8.456628,5.813606 11.899543,8.516038 l 6.259845,4.913514 -5.0398,5.514345 c -9.785319,10.706697 -17.153858,24.284908 -21.166354,39.003838 -2.8205419,10.34651 -3.0931044,33.33387 -0.517119,43.61269 2.151172,8.5837 6.764369,19.72903 11.248074,27.17496 C 24.445021,190.66001 26,193.41279 26,193.62115 26,193.82952 25.048925,194 23.886501,194 c -2.375403,0 -2.37611,-0.0168 0.547305,13 0.926424,4.125 4.57605,21.675 8.110279,39 3.534229,17.325 6.666204,32.5125 6.959945,33.75 L 40.038104,282 20.019052,282 0,282 0,141 0,0 l 322,0 322,0 0,148.5 0,148.5 -322,0 -322,0 0,-7 z m 509.55496,-58.23818 c 6.66315,-6.89078 19.54915,-18.52242 25.88492,-23.36519 3.7236,-2.84614 11.73381,-7.39663 13.02028,-7.39663 0.29691,0 0.53984,2.475 0.53984,5.5 0,4.22222 0.47917,5.97917 2.0625,7.5625 2.56738,2.56738 4.54358,2.00758 4.1081,-1.16371 -0.18118,-1.31933 -0.40618,-4.90126 -0.5,-7.95984 -0.16144,-5.26239 0.0308,-5.73787 3.5794,-8.85359 2.0625,-1.8109 3.75,-4.17249 3.75,-5.24797 0,-1.07548 0.45403,-1.67482 1.00895,-1.33186 2.01233,1.24369 5.06737,-0.73481 7.00782,-4.5384 2.60308,-5.10245 2.50177,-7.13136 -0.49674,-9.94831 -2.82467,-2.65364 -11.26754,-4.41583 -13.28879,-2.77363 -0.90574,0.7359 -1.83737,0.51624 -3.25613,-0.76771 -1.09305,-0.98921 -2.31539,-1.47053 -2.7163,-1.06962 -1.32706,1.32705 4.08663,4.63653 6.61767,4.04549 1.97794,-0.46188 2.25968,-0.25295 1.67997,1.24585 -0.38308,0.99044 -0.94358,3.02498 -1.24556,4.52121 -0.30198,1.49622 -1.38356,2.98527 -2.40352,3.30899 -1.01995,0.32372 -4.02292,2.08022 -6.67325,3.90332 -2.65033,1.82311 -6.82473,4.31439 -9.27645,5.53619 -2.66698,1.32908 -10.58294,8.30363 -19.70565,17.36216 -12.70952,12.6201 -15.51347,15.94001 -16.84272,19.942 -1.51738,4.56841 -1.39169,7.71302 0.30932,7.73875 0.42976,0.006 3.50611,-2.806 6.83634,-6.25 z m 20.98234,-51.82218 c 0.36044,-0.58319 0.12145,-2.34927 -0.53107,-3.9246 -1.05158,-2.53875 -0.77842,-3.76787 2.40368,-10.81551 1.97455,-4.37319 3.60377,-8.79461 3.6205,-9.82539 0.0284,-1.75191 0.0969,-1.76001 1.04969,-0.12414 0.76768,1.31802 2.3264,1.75 6.3146,1.75 6.63711,0 8.899,-2.05046 8.49127,-7.69752 -0.34574,-4.78844 0.45662,-6.12985 4.73611,-7.91793 3.27226,-1.36724 4.98137,-4.21383 1.79613,-2.99154 -0.86998,0.33385 -1.96045,0.60699 -2.42327,0.60699 -0.46282,0 -2.19228,1.13662 -3.84325,2.52581 -1.91215,1.60897 -3.24264,2.13604 -3.66539,1.45202 -0.40747,-0.65929 -2.27592,-0.83201 -4.84047,-0.44743 -3.34085,0.50099 -4.70566,0.21038 -6.81906,-1.45202 -3.36837,-2.64957 -4.27201,-2.6169 -14.57934,0.52703 -7.90596,2.41147 -8.9752,2.51343 -14.36408,1.36984 -3.20225,-0.67957 -8.08602,-1.01806 -10.85281,-0.75221 C 494.26374,142.4889 492,142.3568 492,141.9295 c 0,-3.80551 2.87909,-11.65905 5.17531,-14.11717 2.37211,-2.53936 3.26768,-2.88196 6.0543,-2.31609 1.79872,0.36526 4.06914,1.59177 5.04539,2.72559 0.97626,1.13382 2.06553,1.77097 2.42061,1.41589 1.08899,-1.08898 -3.77496,-5.49624 -6.79872,-6.16037 -1.56857,-0.34451 -3.77894,-0.33217 -4.91193,0.0274 -2.83996,0.90137 -6.41759,6.91588 -8.02742,13.49523 -0.74016,3.025 -1.41553,5.61963 -1.50083,5.76586 -0.0853,0.14622 -7.65709,1.32224 -16.8262,2.61338 C 454.9587,147.86768 452,149.04641 452,153.59828 c 0,4.57191 2.62977,5.16411 20.52225,4.62138 15.46528,-0.4691 16.47775,-0.3877 16.47775,1.32466 0,3.65982 3.20714,13.02718 5.38838,15.7383 1.41697,1.76118 3.57493,2.99945 5.8788,3.37331 3.13207,0.50827 4.06516,0.16557 6.68643,-2.45569 1.67551,-1.67552 3.04639,-2.63101 3.04639,-2.12332 0,0.5077 0.45,0.92308 1,0.92308 0.55,0 1,-2.25 1,-5 0,-2.75 -0.31288,-5 -0.69528,-5 -0.99192,0 -6.30472,5.21368 -6.30472,6.18709 0,0.4471 0.67881,0.81291 1.50847,0.81291 2.65406,0 -0.59382,3.85983 -3.84959,4.57492 -4.38862,0.9639 -7.53865,-1.96758 -9.75903,-9.08196 -2.96441,-9.49832 -2.96825,-9.4908 4.85015,-9.50661 3.7125,-0.008 7.78577,-0.29109 9.05172,-0.63016 2.04289,-0.54718 2.23245,-0.34051 1.68571,1.83786 -0.79973,3.18639 1.76932,5.66768 3.97384,3.83809 0.8037,-0.66701 1.73403,-2.07211 2.06739,-3.12245 0.49477,-1.55886 1.55821,-1.90688 5.78873,-1.89438 7.62746,0.0225 8.04834,0.60605 5.06363,7.02018 -1.79487,3.85714 -2.38453,6.45697 -2.00467,8.83854 0.84545,5.30058 5.30119,9.07477 7.16095,6.06561 z M 427.55887,166.5318 c 1.06762,-0.8075 2.87519,-1.4825 4.01682,-1.5 2.4932,-0.0382 6.90657,-4.44248 5.97006,-5.95777 -1.00645,-1.62848 -2.8405,-1.28452 -2.18998,0.41072 0.33148,0.86381 -0.2236,1.90933 -1.32727,2.5 -2.68688,1.43797 -3.02656,1.30018 -3.04381,-1.23475 -0.008,-1.2375 -0.4096,-2.87256 -0.89151,-3.63348 -0.60027,-0.94778 0.17911,-2.766 2.4748,-5.77353 3.44635,-4.51495 5.41665,-9.79711 5.42644,-14.54768 0.005,-2.34693 0.5016,-2.78682 3.75558,-3.32565 7.97598,-1.32074 11.529,-3.70419 12.73637,-8.54386 0.43654,-1.74981 0.1335,-2.99639 -0.94625,-3.8925 -2.05254,-1.70346 -3.22183,-0.55963 -1.52185,1.48872 2.21237,2.66573 -1.69182,6.72469 -7.97132,8.28731 -2.89389,0.72013 -5.50848,1.06247 -5.8102,0.76075 -0.30172,-0.30171 0.21093,-2.46591 1.13923,-4.80933 1.59187,-4.01859 2.22689,-8.20781 6.11585,-40.346629 1.62653,-13.441764 1.31897,-16.6664 -1.83962,-19.287794 -2.20648,-1.83122 -4.88126,-1.031045 -6.28686,1.880748 C 436.70348,70.378184 435.40758,76.675 434.48557,83 c -2.21078,15.165992 -6.32622,36.80821 -7.64752,40.21675 -0.57923,1.49421 -1.83357,2.96444 -2.78743,3.26718 -0.95386,0.30275 -2.76556,1.64819 -4.02601,2.98987 -2.15905,2.29821 -2.45831,2.35328 -5.16932,0.95137 -2.43231,-1.2578 -2.77711,-1.90876 -2.22819,-4.20662 0.92718,-3.88131 1.50799,-4.618 2.44523,-3.10152 0.64278,1.04004 1.3797,0.80694 3.375,-1.06755 C 419.8513,120.73052 421,119.27981 421,118.82569 421,118.37156 418.75,118 416,118 c -2.75,0 -5,0.45 -5,1 0,0.55 0.74474,1 1.65499,1 1.49492,0 1.50636,0.16925 0.11828,1.75 -2.91505,3.31966 -3.14323,6.22729 -0.69335,8.83508 1.24779,1.3282 2.90102,2.41492 3.67385,2.41492 1.08617,0 1.21972,0.73776 0.58834,3.25 -1.25719,5.00225 -0.62281,11.78234 1.30133,13.9085 1.63345,1.80494 1.61046,1.97536 -0.46226,3.42715 -2.76212,1.93467 -3.08903,9.7537 -0.52619,12.58561 2.02452,2.23707 8.15489,2.43977 10.90388,0.36054 z m -30.72122,-4.93907 c 0.18571,-0.95785 -0.28827,-2.49556 -1.05329,-3.41713 C 395.01933,157.25402 389.77448,146.825 384.12912,135 374.47869,114.78579 373.4951,113.15711 367.68242,107.76645 L 361.5,102.0329 l 4,-0.0403 c 5.03563,-0.0507 11.40995,-1.50254 12.82941,-2.921997 0.77984,-0.779838 0.64377,-1.525985 -0.48392,-2.653675 -1.42506,-1.425062 -2.5874,-1.386256 -12.68639,0.423547 -6.11467,1.095789 -12.43171,2.647912 -14.03785,3.449165 -2.74628,1.37002 -3.07066,1.30641 -5.44473,-1.067655 -2.42766,-2.427657 -2.7035,-2.474343 -7.19294,-1.217378 -6.0129,1.683509 -7.55576,4.523803 -5.17234,9.521893 0.91102,1.91043 2.11368,3.47351 2.67258,3.47351 0.5589,0 1.01618,0.73125 1.01618,1.625 0,1.28164 -0.65087,1.49483 -3.08036,1.00893 -2.21141,-0.44228 -2.96507,-0.26598 -2.67167,0.625 0.68942,2.09358 4.61606,1.99319 7.39019,-0.18895 1.44736,-1.13849 3.19077,-2.06998 3.87425,-2.06998 0.68349,0 1.8029,-0.675 2.48759,-1.5 0.68469,-0.825 1.90986,-1.5 2.7226,-1.5 1.88044,0 13.2774,5.20158 13.2774,6.05982 0,0.354 1.9125,3.63078 4.25,7.28172 8.10426,12.65805 10.05694,15.8961 15.21041,25.22276 3.56938,6.45983 6.5562,10.4676 9.60939,12.89412 4.68095,3.72017 6.2166,3.97755 6.76785,1.13431 z M 238.92126,138.70437 c 0.86831,-0.7126 10.29683,-5.50733 20.95227,-10.65496 16.95128,-8.18915 19.48932,-9.15241 20.29969,-7.70437 1.12775,2.01518 4.16489,2.15742 5.73257,0.26847 0.63288,-0.76257 5.39765,-4.18692 10.58838,-7.60966 5.808,-3.82978 10.20701,-7.52709 11.43803,-9.61351 C 309.19602,101.24832 310.70557,100 312.03202,100 316.46321,100 318,98.228308 318,93.119804 c 0,-6.095323 -2.2156,-8.426775 -7.56968,-7.965494 -4.85821,0.41856 -6.76287,-2.024377 -3.97775,-5.101905 2.40109,-2.653169 1.19693,-3.950165 -1.44644,-1.557953 -2.31411,2.094245 -2.6277,5.7448 -0.63551,7.398171 0.91881,0.762547 1.15896,2.172405 0.72852,4.277005 -0.66062,3.230076 -0.8933,3.424463 -7.49735,6.263535 -2.14402,0.921708 -5.84571,3.271664 -8.22599,5.222127 -2.38028,1.95045 -6.70108,4.31525 -9.60179,5.2551 -5.31651,1.72258 -8.96602,3.58676 -15.63815,7.98798 -1.99972,1.31911 -8.25414,4.96517 -13.8987,8.10238 -7.50541,4.17144 -11.22452,6.93836 -13.84209,10.29812 -1.96858,2.52676 -3.28625,5.06819 -2.92814,5.64762 0.89089,1.44149 3.54647,1.32361 5.45433,-0.24212 z m -12.23571,-8.87868 c 2.83123,-2.65981 2.97298,-5.40289 0.35169,-6.80576 -1.08108,-0.57858 -1.72239,-1.67685 -1.42765,-2.44493 0.60729,-1.58255 -1.74221,-6.61025 -3.94232,-8.43618 -1.17452,-0.97476 -1.24456,-1.79845 -0.35362,-4.15881 0.8353,-2.21298 0.79768,-4.11469 -0.15163,-7.66404 C 219.0178,92.298948 213.02128,79.675185 209.61149,76 204.53681,70.530334 189.47766,50.852398 187.64898,47.30138 c -1.29705,-2.518689 -2.81933,-3.568101 -7.1613,-4.936787 -8.41752,-2.653388 -9.05314,-0.915845 -2.37674,6.497048 2.96399,3.290941 10.23462,13.704176 16.15697,23.140521 10.20724,16.26365 10.82587,17.55638 11.88095,24.827415 0.61218,4.218733 1.48564,8.144263 1.94102,8.723393 1.81,2.30186 -9.80705,16.24177 -16.29275,19.55052 -4.55001,2.32125 -4.52526,4.26033 0.0601,4.71213 2.75863,0.2718 4.20538,-0.61374 10.42299,-6.37988 l 7.21974,-6.6955 0.33008,2.87988 c 0.42489,3.70718 3.85574,7.37988 6.89389,7.37988 1.30644,0 3.71622,-0.69339 5.35506,-1.54087 4.08094,-2.11033 5.41805,-0.96595 2.93907,2.51545 -3.23797,4.54731 -2.305,5.58303 1.66745,1.85111 z m 107.6885,-38.411185 c 5.0392,-2.816465 5.89682,-4.411699 2.37595,-4.419472 -2.12945,-0.0047 -2.08927,-0.135715 0.75,-2.445339 6.69673,-5.447502 12.37723,-7.771055 19.34451,-7.912681 9.5289,-0.193696 15.68485,1.096092 19.15074,4.012441 1.65261,1.390583 3.00475,2.078333 3.00475,1.528333 0,-1.853568 -6.02961,-6.092101 -9.77944,-6.87448 C 367.17425,74.876356 361.9,74.529555 357.5,74.532639 c -7.97181,0.0056 -8.02819,0.02417 -16,5.274107 -6.07604,4.001449 -8.07776,4.898708 -8.32332,3.730876 -0.58047,-2.760497 -1.93935,-1.61898 -2.63366,2.212378 -0.37377,2.0625 -0.92263,4.7625 -1.2197,6 -0.67548,2.813774 -0.57158,2.806873 5.05073,-0.335495 z M 43,281.67933 C 43,281.04003 35.150041,242.4274 34.475754,239.75 L 33.783184,237 67.891592,237 102,237 l 0,22.5 0,22.5 -29.5,0 C 56.275,282 43,281.8557 43,281.67933 z m 553.56429,-3.97246 c 0.37553,-0.98622 0.93469,-1.54122 1.24258,-1.23333 0.30789,0.30789 6.4e-4,1.11479 -0.68278,1.79313 -0.98762,0.98026 -1.10248,0.8654 -0.5598,-0.5598 z m -1.48534,-30.2902 c 0.048,-1.16495 0.28494,-1.4019 0.60416,-0.60417 0.28887,0.72187 0.25335,1.58437 -0.0789,1.91667 -0.33229,0.33229 -0.56864,-0.25834 -0.52522,-1.3125 z M 33.559308,233.75 c -0.207857,-0.6875 -0.849711,-3.275 -1.426342,-5.75 -1.026781,-4.40712 -0.971895,-4.57913 2.659307,-8.33376 2.03925,-2.10856 4.889669,-4.68714 6.334265,-5.73018 l 2.626537,-1.89642 8.018251,5.36692 C 64.005064,225.59507 79.46781,230.99601 95.25,232.59311 110.26238,234.11231 100.2007,235 67.968615,235 41.611733,235 33.852004,234.71811 33.559308,233.75 z m 53.782265,-4.22947 c -3.937135,-0.71443 -9.562135,-2.08025 -12.5,-3.03515 -7.101343,-2.30816 -21.550612,-9.75345 -25.643667,-13.21343 L 45.91877,210.5 l 10.17922,-8 c 17.206777,-13.52306 28.496454,-26.81487 30.365019,-35.75 0.316302,-1.5125 1.171777,-2.75 1.901055,-2.75 2.479401,0 4.724188,-3.61986 4.481302,-7.22638 -0.289221,-4.29452 7.044918,-21.55007 8.311244,-19.55446 0.44702,0.70446 0.81966,22.09334 0.82808,47.53084 L 102,231 98.25,230.9098 c -2.0625,-0.0496 -6.971292,-0.67479 -10.908427,-1.38922 z M 29.630545,215 c -1.512854,-3.76766 -3.353573,-15.38401 -2.77409,-17.50664 0.60678,-2.22262 0.95527,-2.00972 6.100086,3.7266 l 5.456541,6.08389 -3.55407,3.09808 c -1.954738,1.70394 -3.795291,3.77307 -4.090116,4.59807 -0.476485,1.33333 -0.602969,1.33333 -1.138351,0 z m 5.733783,-14.21671 C 25.298412,190.42286 17.630453,176.3412 13.428651,160.5 c -2.603567,-9.8157 -2.603567,-32.1843 0,-42 4.129194,-15.56746 12.665853,-31.269204 21.95885,-40.389591 l 4.426364,-4.344147 4.843067,3.690653 c 8.433245,6.426542 21.420391,18.705316 23.842261,22.541807 1.283905,2.033838 8.880326,9.496488 16.880935,16.583678 l 14.546562,12.88579 -3.148422,5.5159 c -1.731633,3.03375 -4.06851,7.16695 -5.193061,9.18489 -1.866787,3.34984 -2.473517,3.6979 -6.97518,4.00151 -4.144373,0.2795 -5.35702,-0.0663 -7.605253,-2.16898 C 75.533682,144.62568 74.092405,142.825 73.801935,142 c -0.290469,-0.825 -0.847914,-1.20432 -1.238767,-0.84293 -0.948199,0.87672 2.022002,6.5114 4.022476,7.63092 1.033123,0.57817 1.707354,2.64691 1.934827,5.93664 0.30155,4.36102 0.0036,5.37133 -2.1859,7.4123 -1.394271,1.29969 -3.793517,4.84579 -5.331657,7.88022 -3.808848,7.51407 -7.697916,12.40614 -20.0042,25.16335 l -10.501287,10.88607 -5.133099,-5.28328 z M 592.0003,184.34756 c -2.79039,-3.17808 -2.99604,-3.77044 -1.58341,-4.56098 3.09164,-1.73018 5.07949,-0.10136 5.13183,4.20497 0.0268,2.20465 -0.0391,4.00845 -0.1464,4.00845 -0.10733,0 -1.63823,-1.6436 -3.40202,-3.65244 z"
       id="path2995"
       style="fill:#bfbfbf" />
    <path
       d="M 87.341573,231.52053 C 66.992966,227.82808 49.157109,218.2669 35.191455,203.5647 26.599235,194.51933 22.842758,189.07525 17.866919,178.45709 11.271156,164.38209 9.6742692,156.7887 9.6742692,139.5 c 0,-17.2887 1.5968868,-24.88209 8.1926498,-38.95709 4.975839,-10.618158 8.732316,-16.06224 17.324536,-25.107613 7.242796,-7.624781 21.809803,-18.476607 21.806757,-16.245145 -9.84e-4,0.720416 -2.138484,2.653677 -4.75,4.296136 C 45.044639,68.016823 31.805874,81.195498 26.472001,89.145502 21.054358,97.220361 16.13846,108.28376 13.428651,118.5 c -2.603567,9.8157 -2.603567,32.1843 0,42 4.415154,16.64556 11.832457,29.88673 23.434522,41.83469 32.868134,33.84803 84.662657,38.18012 121.886827,10.1946 3.4375,-2.58435 6.25,-4.93446 6.25,-5.22246 0,-0.28801 -1.125,-0.24129 -2.5,0.10381 -4.46158,1.11979 -2.68392,-1.34217 2.97205,-4.11612 5.88123,-2.88442 7.5086,-2.61448 5.76924,0.95699 -0.60227,1.23667 -1.49358,3.57036 -1.98067,5.18599 -0.98561,3.26915 -3.26062,4.68125 -3.26062,2.02386 0,-1.59082 -0.15105,-1.5945 -2.25,-0.0549 -20.64516,15.14393 -38.76527,21.60051 -60.25,21.46835 -4.95,-0.0305 -12.221292,-0.6399 -16.158427,-1.35433 z M 497.83255,178.17971 c -2.83549,-1.15584 -5.58287,-5.51304 -7.38502,-11.71221 -1.38056,-4.74897 -1.59907,-8.04323 -1.09127,-16.4527 1.15805,-19.17814 5.89974,-28.12736 14.08911,-26.59103 3.28103,0.61553 8.43304,5.03115 7.25024,6.21395 -0.35508,0.35508 -1.44435,-0.28207 -2.42061,-1.41589 -0.97625,-1.13382 -3.24667,-2.36033 -5.04539,-2.72559 -2.78662,-0.56587 -3.68219,-0.22327 -6.0543,2.31609 -3.49377,3.7401 -5.19577,10.67902 -5.81017,23.68767 -0.77676,16.44609 3.84639,26.71063 11.29374,25.07492 C 505.91465,175.85983 509.16253,172 506.50847,172 505.67881,172 505,171.63419 505,171.18709 505,170.21368 510.3128,165 511.30472,165 c 0.3824,0 0.69528,2.25 0.69528,5 0,2.75 -0.45,5 -1,5 -0.55,0 -1,-0.41538 -1,-0.92308 0,-0.50769 -1.31538,0.39231 -2.92308,2 -2.84622,2.84622 -5.78226,3.51408 -9.24437,2.10279 z m -79.48257,-43.9764 C 410.1047,130.80116 408.26059,126.71269 412.7329,121.75 414.1721,120.15299 414.16529,120 412.65499,120 411.74474,120 411,119.55 411,119 c 0,-0.55 2.25,-1 5,-1 2.75,0 5,0.37156 5,0.82569 0,0.45412 -1.1487,1.90483 -2.55267,3.22379 -2.12036,1.99198 -2.70399,2.15326 -3.44621,0.95234 -0.77651,-1.25643 -0.9645,-1.253 -1.43544,0.0262 -1.86321,5.06096 -1.211,6.33349 4.43432,8.65185 6.88424,2.82714 11.175,2.83436 22.40254,0.0377 7.08023,-1.76363 9.31361,-2.77101 10.91077,-4.92137 1.67933,-2.261 1.79479,-2.961 0.70496,-4.27416 -1.7809,-2.14586 -0.36111,-3.29344 1.62161,-1.31071 2.06712,2.06712 0.73434,6.42015 -2.76577,9.03336 -5.78107,4.31619 -25.76324,6.7483 -32.52413,3.95864 z M 329.32332,91.75 c 0.29707,-1.2375 0.84593,-3.9375 1.2197,-6 0.69431,-3.831358 2.05319,-4.972875 2.63366,-2.212378 0.24556,1.167832 2.24728,0.270573 8.32332,-3.730876 7.97181,-5.249935 8.02819,-5.268519 16,-5.274107 4.4,-0.0031 9.67425,0.343717 11.72056,0.770668 3.74983,0.782379 9.77944,5.020912 9.77944,6.87448 0,0.55 -1.35214,-0.13775 -3.00475,-1.528333 -3.46589,-2.916349 -9.62184,-4.206137 -19.15074,-4.012441 -6.96728,0.141626 -12.64778,2.465179 -19.34451,7.912681 -2.83927,2.309624 -2.87945,2.440638 -0.75,2.445339 3.52087,0.0078 2.66325,1.603007 -2.37595,4.419472 -5.62231,3.142368 -5.72621,3.149269 -5.05073,0.335495 z"
       id="path2993"
       style="fill:#fe0000" />
    <path
       d="m 584.13618,245.94117 c -0.15269,-2.869 5.7726,-13.46846 9.08738,-16.25598 2.02693,-1.70452 2.16168,-2.71735 2.21726,-16.66667 0.0326,-8.16853 0.39668,-15.18937 0.80918,-15.60186 0.4125,-0.4125 0.75,-0.24083 0.75,0.38149 0,1.62 3.56612,3.30558 5.45775,2.57969 0.88145,-0.33824 2.20934,-1.77293 2.95086,-3.18819 l 1.34824,-2.57319 0.66779,3.04041 c 0.36728,1.67223 0.20039,5.92103 -0.37087,9.44178 -0.57127,3.52074 -1.04206,8.55468 -1.04622,11.18653 -0.007,4.56935 -0.10346,4.73386 -2.13404,3.64712 -5.78099,-3.09389 -9.56552,4.19816 -8.36792,16.12334 0.77607,7.72778 -0.33596,9.39179 -3.98527,5.96345 -1.88888,-1.77451 -2.71605,-1.98471 -4.35613,-1.10696 -1.11348,0.59592 -2.21966,2.09697 -2.45817,3.33568 -0.3993,2.07378 -0.44444,2.04949 -0.56984,-0.30664 z M 540,201.72032 c 0,-2.85938 -1.7391,-4.713 -4.45,-4.74303 -1.25338,-0.0139 0.42716,-1.35759 4.32468,-3.45785 3.50608,-1.88933 7.10608,-4.07484 8,-4.8567 0.89393,-0.78186 3.17585,-2.20791 5.07094,-3.16899 l 3.44563,-1.74743 -2.69618,3.20423 c -1.4829,1.76232 -2.96852,4.90735 -3.30138,6.98894 -0.7934,4.9616 -1.13978,5.40963 -6.14369,7.9465 l -4.25,2.15466 0,-2.32033 z M 557.67984,194.5 c 1.11925,-1.65 2.28863,-3.675 2.59863,-4.5 0.3962,-1.0544 0.58709,-0.88338 0.64258,0.57569 0.0434,1.14162 -1.12596,3.16662 -2.59862,4.5 l -2.67757,2.42431 2.03498,-3 z M 72.56181,185.82444 c 0.394994,-1.11226 -0.271796,-2.24353 -1.983386,-3.36501 -2.394022,-1.56862 -2.757218,-1.5723 -5.078424,-0.0514 -3.3338,2.18439 -3.154808,1.10178 0.507457,-3.06931 1.654102,-1.88392 4.317381,-6.02025 5.918399,-9.19185 C 75.13548,163.78865 78,160.58542 78,163.3545 c 0,1.93166 4.491113,5.07804 5.956024,4.17268 1.693104,-1.0464 1.197051,2.26593 -0.937894,6.26266 -2.189085,4.09808 -11.404442,14.7044 -10.45632,12.0346 z M 146,157.45859 c -6.325,-1.25125 -11.71263,-2.31631 -11.97251,-2.36679 -0.25987,-0.0505 0.56367,-0.81756 1.8301,-1.70461 1.72396,-1.20751 2.15065,-2.21822 1.69794,-4.02195 -0.89545,-3.56777 1.72957,-4.02958 8.03935,-1.41432 2.97104,1.23143 7.217,2.48242 9.43546,2.77997 3.84228,0.51536 3.95466,0.6282 2.36981,2.37944 -1.5488,1.7114 -1.54941,2.01292 -0.009,4.36405 0.91017,1.38909 1.30698,2.46568 0.8818,2.39242 C 157.84787,159.79354 152.325,158.70985 146,157.45859 z M 503.47834,154.3266 C 502.6399,153.04697 502.39844,152 502.94176,152 c 0.54333,0 1.49226,-0.94246 2.10873,-2.09435 0.9296,-1.73696 0.7223,-2.52892 -1.21481,-4.64102 L 501.5,142.71795 504,143.2907 c 7.55671,1.73124 10.02528,1.77927 15.03178,0.2925 7.09062,-2.10569 7.22217,-2.01888 1.95514,1.29017 -2.48219,1.55946 -5.77342,4.65405 -7.31384,6.87687 -3.5058,5.05888 -7.84897,6.15646 -10.19474,2.57636 z m 16.08457,-0.41818 c 3.57601,-3.76411 10.09424,-7.25396 12.10648,-6.48179 0.81152,0.31141 2.41113,0.0655 3.55468,-0.54655 1.77776,-0.95142 1.98472,-0.86656 1.42756,0.58537 -0.3584,0.93397 -0.65823,2.44882 -0.66631,3.36634 C 535.96664,152.95512 525.7784,157 520.44884,157 l -3.82302,0 2.93709,-3.09158 z M 427.5,153.28513 c -1.1,-0.19965 -3.04247,-0.58658 -4.31661,-0.85983 l -2.31661,-0.49684 2.30333,-1.86513 c 2.11341,-1.71133 2.20136,-2.14715 1.06661,-5.28523 C 423.55653,142.89705 423,140.15245 423,138.679 c 0,-2.44443 0.33929,-2.679 3.875,-2.679 2.13125,0 5.35207,-0.29541 7.15737,-0.65647 l 3.28237,-0.65648 -0.66141,4.82551 c -0.59551,4.34472 -4.54004,12.80527 -6.41519,13.75982 -0.40598,0.20666 -1.63814,0.2124 -2.73814,0.0128 z m -2.02568,-22.23547 C 426.31344,129.42697 427,127.37239 427,126.48392 c 0,-0.88847 0.48138,-2.51487 1.06974,-3.61423 0.82622,-1.54381 1.37897,-1.74218 2.42816,-0.87143 1.02192,0.84812 2.09447,0.74677 4.32968,-0.4091 4.41183,-2.28144 5.42548,-0.43278 3.33307,6.07877 C 436.37794,133.21571 435.03884,134 427.34932,134 l -3.40068,0 1.52568,-2.95034 z m -61.78087,-12.87157 c -2.22238,-4.08323 -3.57985,-5.35119 -7.21541,-6.73963 -2.46292,-0.9406 -4.47804,-2.03333 -4.47804,-2.4283 0,-1.75197 5.12072,-6.00788 7.20225,-5.9859 1.3476,0.0142 4.77883,2.25329 8.29775,5.41473 l 6,5.39046 -2.72207,1.04991 c -1.75274,0.67603 -2.94122,2.04178 -3.33747,3.83527 -0.33847,1.53195 -0.70411,3.16957 -0.81252,3.63914 -0.10842,0.46958 -1.42894,-1.40948 -2.93449,-4.17568 z m -81.60877,-4.45535 c -0.9845,-2.58944 -2.85115,-3.68809 -6.41647,-3.77652 -1.19251,-0.0296 0.43009,-0.88422 3.6058,-1.89921 3.17571,-1.01499 7.67571,-3.39937 10,-5.29862 4.89582,-4.000521 8.99228,-6.203068 13.22599,-7.111238 l 3,-0.643527 -2.68133,1.499145 c -1.47473,0.824529 -2.97874,2.513463 -3.34225,3.75319 -0.65758,2.24267 -1.71539,3.31921 -11.38877,11.59039 l -5.07149,4.33636 -0.93148,-2.44997 z m -62.77372,-7.90827 c -1.55142,-3.44589 -4.7356,-4.42148 -7.82474,-2.3974 -1.32872,0.87061 -2.60484,1.58293 -2.83581,1.58293 -0.23098,0 -0.73017,-2.5875 -1.10931,-5.75 -0.37914,-3.1625 -0.92977,-6.7625 -1.22363,-8 C 205.90572,89.516019 206.22086,89 207.69159,89 210.09351,89 212,87.141477 212,84.8 c 0,-2.829359 1.43448,-2.110244 2.89243,1.45 4.42174,10.797635 6.17175,16.47377 5.90731,19.16027 l -0.29974,3.04519 -1.18904,-2.64099 z m -149.573434,-5.3808 c -1.3857,-2.163519 -4.122653,-5.46422 -6.082119,-7.334892 l -3.562665,-3.401222 1.953629,-2.483637 C 63.120867,85.847919 64,83.883377 64,82.848271 64,81.340388 65.31888,82.002727 70.63448,86.180095 79.794103,93.378363 83.034641,99 78.02439,99 c -1.021668,0 -2.737289,1.20765 -3.812494,2.68367 l -1.954916,2.68367 -2.519454,-3.93367 z M 105.70863,92.9938 c -0.66418,-2.53984 -3.47227,-3.622502 -5.733284,-2.210476 -2.38214,1.487671 -2.986383,0.616733 -2.913893,-4.199991 0.09831,-6.532432 2.405817,-18.342088 3.191397,-16.333333 1.33105,3.403553 6.01474,0.87334 6.94164,-3.75 0.22054,-1.1 0.43513,4.646088 0.47687,12.769084 0.0697,13.572766 -0.66284,18.695516 -1.96273,13.724716 z"
       id="path2991"
       style="fill:#0000fe" />
    <path
       d="m 19.763844,282.25115 20.263844,-0.29265 -0.528866,-2.22925 C 39.207945,278.50316 36.078314,263.325 32.544085,246 29.009856,228.675 25.36023,211.125 24.433806,207 c -3.006155,-13.38521 -3.005469,-13 -0.02315,-13 2.422342,0 2.618808,0.30612 2.406754,3.75 -0.276349,4.48806 2.048258,17.04895 3.298161,17.82143 0.486435,0.30063 0.892539,-0.0425 0.902453,-0.76241 0.0099,-0.71996 1.922414,-2.8171 4.25,-4.66031 L 39.5,206.79742 36,210.25133 c -4.646737,4.58554 -6.230022,7.44857 -5.460296,9.87377 0.571219,1.79975 1.170738,1.49311 5.987675,-3.06255 C 39.471474,214.27815 42.144191,212 42.466751,212 c 0.32256,0 -2.11281,2.5875 -5.411933,5.75 l -5.998406,5.75 1.297114,5.5 1.297115,5.5 34.174679,0.26313 C 90.410132,234.93702 102,234.68267 102,234.01313 102,233.45591 102.675,233 103.5,233 c 1.29252,0 1.5,3.38889 1.5,24.5 l 0,24.5 241.46862,0 c 214.73601,0 241.40458,-0.16685 240.89027,-1.50714 -0.31898,-0.83125 1.26678,-4.61294 3.53607,-8.43271 l 4.1144,-6.92557 -5.51594,-7.68809 c -3.03377,-4.22844 -5.79859,-8.81421 -6.14404,-10.19059 -0.76225,-3.03706 1.85128,-8.75158 7.20595,-15.7559 l 3.8224,-5 0.14552,-15.5 0.14551,-15.5 -5.17973,-6 c -6.02297,-6.97678 -7.85719,-10.0982 -7.09742,-12.07814 0.61617,-1.6057 4.1778,-1.92759 5.08508,-0.45957 0.37423,0.60551 1.48476,0.55677 2.99525,-0.13146 1.35212,-0.61606 3.19267,-0.74456 4.21429,-0.29422 0.99757,0.43974 3.96647,0.68141 6.59754,0.53704 6.39672,-0.35099 7.71623,0.93387 7.71623,7.51361 0,4.4316 -0.36399,5.53718 -2.1351,6.48504 -1.30091,0.69623 -1.71606,1.40166 -1.06256,1.80554 3.04293,1.88063 3.58563,8.18978 1.58033,18.37216 -0.50502,2.56434 -0.31343,2.75 2.83787,2.75 4.60752,0 5.77946,1.52083 5.77946,7.5 0,5.66709 -1.16234,7.45162 -4.95,7.59968 l -2.55,0.0997 L 611,230 c 4.18694,1.34089 8.74956,1.08707 12.48576,-0.6946 3.34129,-1.59335 3.6551,-1.59311 5.25218,0.004 1.59809,1.59809 1.58196,1.81517 -0.27264,3.66977 -1.52208,1.52208 -3.94589,2.123 -10.63795,2.63739 -4.76671,0.3664 -9.26539,1.03557 -9.99705,1.48706 -1.4283,0.88135 -2.53262,13.50664 -2.72433,31.14641 -0.10545,9.70191 -0.0939,9.75 2.33733,9.75 1.34381,0 3.06202,0.88335 3.81824,1.96301 1.18817,1.69636 2.79199,2.00731 11.8067,2.2891 C 628.80571,282.43146 490.85,282.57046 316.5,282.561 142.15,282.55154 8.6187299,282.41211 19.763844,282.25115 z M 102,259.5 l 0,-22.5 -34.108408,0 -34.108408,0 0.69257,2.75 C 35.150041,242.4274 43,281.04003 43,281.67933 43,281.8557 56.275,282 72.5,282 l 29.5,0 0,-22.5 z m 495,21.7 c 0,-0.44 -0.52937,-1.32937 -1.17637,-1.97637 -0.90183,-0.90183 -0.80925,-1.5903 0.39669,-2.95 1.31016,-1.4772 1.48421,-3.7204 1.04139,-13.42175 -0.53144,-11.64274 -0.53335,-11.65005 -4.1467,-15.8247 -3.8889,-4.49301 -6.62935,-4.74881 -7.42036,-0.69263 l -0.42229,2.16545 -0.13618,-2.21482 c -0.0813,-1.32165 0.7084,-2.66682 1.95817,-3.33567 1.73372,-0.92786 2.51087,-0.72957 4.51324,1.15157 3.66401,3.44216 4.62623,1.55883 3.80933,-7.45593 C 595.03589,232.44032 594.32639,229 593.84026,229 c -1.01811,0 -8.45964,11.22543 -9.39483,14.17194 -1.02113,3.21731 0.22507,6.15862 6.04799,14.27455 l 5.51594,7.68809 -4.1144,6.92557 c -2.26929,3.81977 -3.85505,7.60146 -3.53607,8.43271 C 588.96667,282.07673 597,282.73413 597,281.2 z m 13.75084,-0.45 c -0.22871,-0.6875 -1.72871,-1.48026 -3.33334,-1.76169 l -2.9175,-0.51169 0,-11.48831 c 0,-6.31857 0.383,-18.53563 0.8511,-27.14902 0.83698,-15.40086 0.81561,-15.6797 -1.28777,-16.8054 -3.12161,-1.67063 -5.90867,-0.35752 -6.96101,3.27965 -0.72215,2.49593 -0.94149,2.69886 -1.01213,0.93646 -0.0921,-2.29814 3.05391,-6.25 4.97555,-6.25 0.58616,0 1.93616,0.46583 3,1.03518 1.78671,0.95622 1.93484,0.67015 1.94181,-3.75 0.004,-2.63185 0.47495,-7.66579 1.04622,-11.18653 0.57126,-3.52075 0.73815,-7.76955 0.37087,-9.44178 l -0.66779,-3.04041 -1.34824,2.57319 c -0.74152,1.41526 -2.06941,2.84995 -2.95086,3.18819 -1.93264,0.74162 -5.45173,-0.97066 -5.47306,-2.66302 -0.0108,-0.85938 -0.26345,-0.82335 -0.86338,0.12314 -1.11829,1.76427 -0.60797,31.47303 0.80153,46.66204 0.61246,6.6 1.21787,17.73666 1.34536,24.74813 l 0.2318,12.74812 6.33333,0.002 c 4.6224,0.001 6.221,-0.33581 5.91751,-1.24813 z m -12.94397,-4.27646 c -0.30789,-0.30789 -0.86705,0.24711 -1.24258,1.23333 -0.54268,1.4252 -0.42782,1.54006 0.5598,0.5598 0.68342,-0.67834 0.99067,-1.48524 0.68278,-1.79313 z m -2.12376,-29.66104 c -0.31922,-0.79773 -0.55618,-0.56078 -0.60416,0.60417 -0.0434,1.05416 0.19293,1.64479 0.52522,1.3125 0.33229,-0.3323 0.36781,-1.1948 0.0789,-1.91667 z m 23.5109,-12.34251 c 7.96563,-0.65238 11.29303,-2.38295 8.99678,-4.6792 -0.8326,-0.8326 -2.16422,-0.65558 -5.13049,0.68202 -3.888,1.75324 -9.73629,1.73996 -14.35551,-0.0326 -1.38233,-0.53045 -1.70479,-0.0629 -1.70479,2.47185 0,2.71412 0.29649,3.06424 2.25,2.65706 1.2375,-0.25794 5.7123,-0.75255 9.94401,-1.09913 z M 613.75,227.44786 C 615.50324,226.90773 615.39645,220 613.63486,220 611.10002,220 607,224.07331 607,226.59163 c 0,2.47001 1.07081,2.60584 6.75,0.85623 z m -10.32143,-29.01929 c 2.31511,-2.31511 1.98343,-3.1434 -2.35559,-5.8825 -6.30126,-3.97781 -11.267,-8.76617 -12.73536,-12.28045 C 587.4461,178.13191 586.28458,177 584.98658,177 c -3.97105,0 -2.1226,3.75304 6.89529,14 8.82744,10.03056 8.8988,10.07647 11.5467,7.42857 z m 2.02438,-7.58909 c 2.08564,-0.95028 2.54705,-1.85605 2.54705,-5 0,-4.12851 -0.54193,-4.46094 -4.40383,-2.70134 -3.54095,1.61336 -4.83674,8.86186 -1.58421,8.86186 0.49167,0 2.04011,-0.52223 3.44099,-1.16052 z m -9.90423,-6.84793 c -0.0523,-4.30633 -2.04019,-5.93515 -5.13183,-4.20497 -1.41263,0.79054 -1.20698,1.3829 1.58341,4.56098 1.76379,2.00884 3.29469,3.65244 3.40202,3.65244 0.10732,0 0.1732,-1.8038 0.1464,-4.00845 z m -94.17282,52.54564 c -0.30874,-0.80455 0.15629,-3.6234 1.0334,-6.26412 1.32925,-4.00199 4.1332,-7.3219 16.84272,-19.942 9.12271,-9.05853 17.03867,-16.03308 19.70565,-17.36216 2.45172,-1.2218 6.62612,-3.71308 9.27645,-5.53619 2.65033,-1.8231 5.6533,-3.5796 6.67325,-3.90332 1.01996,-0.32372 2.10154,-1.81277 2.40352,-3.30899 0.30198,-1.49623 0.86248,-3.53077 1.24556,-4.52121 0.57971,-1.4988 0.29797,-1.70773 -1.67997,-1.24585 -2.53104,0.59104 -7.94473,-2.71844 -6.61767,-4.04549 0.40091,-0.40091 1.62325,0.0804 2.7163,1.06962 1.41876,1.28395 2.35039,1.50361 3.25613,0.76771 2.02125,-1.6422 10.46412,0.11999 13.28879,2.77363 2.99851,2.81695 3.09982,4.84586 0.49674,9.94831 -1.94045,3.80359 -4.99549,5.78209 -7.00782,4.5384 -0.55492,-0.34296 -1.00895,0.25638 -1.00895,1.33186 0,1.07548 -1.6875,3.43707 -3.75,5.24797 -3.54861,3.11572 -3.74084,3.5912 -3.5794,8.85359 0.0938,3.05858 0.31882,6.64051 0.5,7.95984 0.43548,3.17129 -1.54072,3.73109 -4.1081,1.16371 C 549.47917,212.47917 549,210.72222 549,206.5 c 0,-3.025 -0.24293,-5.5 -0.53984,-5.5 -1.28647,0 -9.29668,4.55049 -13.02028,7.39663 -6.33577,4.84277 -19.22177,16.47441 -25.88492,23.36519 -6.38946,6.60775 -7.27705,7.12597 -8.17906,4.77537 z m 8.17087,-5.78719 c 6.66732,-6.88913 19.83099,-18.75026 25.7548,-23.20637 3.15541,-2.37361 3.75032,-3.37855 3.5,-5.91236 -0.22487,-2.27631 -0.93737,-3.22806 -2.80157,-3.74229 -2.09124,-0.57686 -2.16482,-0.70592 -0.45,-0.7893 2.66026,-0.12935 4.45,1.71561 4.45,4.58732 l 0,2.28701 4.53526,-2.2034 c 3.1536,-1.53214 4.7042,-2.97526 5.08981,-4.73701 1.29561,-5.91927 2.57839,-8.90423 4.58228,-10.66268 l 2.13206,-1.87092 -2.13456,3 c -4.11789,5.78746 -5.83804,22.72396 -2.63342,25.92857 2.48863,2.48863 3.76306,1.95068 2.79208,-1.17857 -0.46931,-1.5125 -0.83053,-5.25289 -0.8027,-8.31199 0.0398,-4.37213 0.60215,-6.29746 2.62883,-9 3.87224,-5.16355 4.29674,-7.48393 1.70167,-9.30158 -1.97232,-1.38147 -2.49709,-1.3752 -5.2904,0.0632 -1.7055,0.87824 -4.45091,2.60476 -6.10091,3.83673 -1.65,1.23196 -5.25,3.38264 -8,4.77929 -7.37624,3.74619 -32.92471,29.72766 -34.96745,35.56008 -1.68097,4.7995 -1.93666,7.12427 -0.78354,7.12427 0.41195,0 3.47094,-2.8125 6.79776,-6.25 z m 51.37428,-40.17431 c -0.0555,-1.45907 -0.24638,-1.63009 -0.64258,-0.57569 -0.31,0.825 -1.47938,2.85 -2.59863,4.5 l -2.03498,3 2.67757,-2.42431 c 1.47266,-1.33338 2.64204,-3.35838 2.59862,-4.5 z m 5.67925,-2.341 c 1.22911,-0.82071 3.74648,-5.25033 3.23072,-5.68488 -2.42864,-2.04624 -5.28022,-2.60639 -7.84989,-1.54199 -3.92743,1.62679 -4.34914,3.55754 -1.30077,5.95539 2.74843,2.16192 4.13906,2.4606 5.91994,1.27148 z M 101.62246,183.75 c -0.44147,-50.12649 -0.4947,-52.75 -1.0703,-52.75 -0.20203,0 -4.02728,6.26028 -8.500555,13.91173 -4.473274,7.65145 -9.239861,14.63683 -10.592415,15.52305 C 80.106635,161.32101 79,162.6949 79,163.48787 c 0,1.763 3.36407,3.69965 5.177558,2.98064 1.287521,-0.51047 6.942504,-11.56385 12.403182,-24.24359 1.486341,-3.45129 2.879397,-6.09812 3.095681,-5.88183 0.216283,0.21628 -1.246984,3.94007 -3.251706,8.27508 -2.401113,5.19216 -3.607531,9.22013 -3.535299,11.80361 0.1124,4.02013 -2.012318,7.57822 -4.525352,7.57822 -0.729278,0 -1.584753,1.2375 -1.901055,2.75 -1.170041,5.59492 -4.494455,10.94948 -11.524797,18.56275 C 69.074254,191.66292 53.012966,205.56707 46,210.36437 c -3.665255,2.50726 2.005029,-2.46182 11.5,-10.07788 11.075218,-8.88359 12.953409,-10.76796 13.929777,-13.97559 0.912354,-2.99732 -2.447766,-4.89411 -5.679777,-3.20623 -1.2375,0.64626 -7.425,6.1746 -13.75,12.28518 L 40.5,206.5 51,195.39021 c 12.492363,-13.21785 16.271239,-18.01124 20.002914,-25.37306 1.53814,-3.03443 3.937386,-6.58053 5.331657,-7.88022 2.189508,-2.04097 2.48745,-3.05128 2.1859,-7.4123 -0.227473,-3.28973 -0.901704,-5.35847 -1.934827,-5.93664 -2.000474,-1.11952 -4.970675,-6.7542 -4.022476,-7.63092 0.390853,-0.36139 0.948298,0.0179 1.238767,0.84293 0.29047,0.825 1.731747,2.62568 3.202839,4.00151 2.248233,2.10264 3.46088,2.44848 7.605253,2.16898 4.501663,-0.30361 5.108393,-0.65167 6.97518,-4.00151 1.124551,-2.01794 3.461428,-6.15114 5.193061,-9.18489 l 3.148422,-5.5159 -14.429462,-12.78206 C 77.561023,109.656 69.815018,102.04628 68.283883,99.775649 65.818247,96.11918 54.987914,85.830088 43.458264,76.190677 41.281219,74.37055 42.2,74.933166 45.5,77.440935 c 3.3,2.50777 7.661896,5.967435 9.693102,7.688145 4.170928,3.533349 6.407582,3.310105 7.424353,-0.741037 0.963739,-3.839839 -0.273547,-5.262556 -9.425483,-10.83808 -4.468877,-2.72252 -7.979285,-5.095983 -7.800906,-5.274362 0.178378,-0.178379 3.384144,1.53458 7.123923,3.806574 9.400661,5.7111 25.413174,18.623621 27.367511,22.069214 0.916839,1.616432 2.194398,2.634468 2.949287,2.350171 C 83.564271,96.225702 85.525554,96 87.190195,96 c 2.801482,0 2.975568,-0.204562 2.340302,-2.75 -0.377475,-1.5125 -1.3985,-3.540259 -2.268944,-4.506131 -2.341573,-2.598283 -0.787555,-3.269871 1.733264,-0.749052 1.280769,1.280769 2.344168,3.861341 2.609832,6.333334 0.246591,2.294517 0.704913,5.582671 1.018494,7.307009 0.701061,3.85504 -0.914761,7.11879 -3.735403,7.545 -1.849555,0.27948 -1.342898,1.14004 4.015185,6.81984 l 6.131829,6.5 -0.386361,-11 c -0.212499,-6.05 -0.955165,-14.299445 -1.650369,-18.332101 -0.940725,-5.456838 -0.996706,-9.037487 -0.218883,-14 C 97.474872,74.729142 97.554443,61.634943 97.017158,40 96.573248,22.125 96.414345,7.1625 96.664041,6.75 98.617458,3.5229378 104,14.51081 104,21.72556 c 0,6.441474 1.82526,25.931928 3.44388,36.77444 0.73896,4.95 1.27889,14.481273 1.19984,21.180607 -0.14027,11.888003 -0.0897,12.190948 2.1051,12.611103 1.23686,0.236773 3.03686,-0.167689 4,-0.898803 2.75845,-2.093907 5.20812,-1.636368 6.27593,1.172193 C 122.26418,95.825037 122.25762,97 121,97 c -0.55,0 -1,-0.6199 -1,-1.377555 0,-0.757656 -0.61529,-1.888205 -1.36732,-2.512331 -1.95479,-1.622328 -3.89385,1.001131 -3.09436,4.186529 0.37146,1.480046 -0.0266,3.746927 -0.98262,5.595657 -1.37666,2.66215 -2.16013,3.1077 -5.46475,3.1077 -4.65018,0 -5.05744,0.9826 -5.0773,12.25 -0.0117,6.64875 0.29719,8.06084 2.17385,9.9375 1.40789,1.40789 1.76429,2.32857 1,2.58333 -0.65313,0.21771 -1.1875,0.85648 -1.1875,1.41949 0,0.56301 0.64593,0.77579 1.43539,0.47285 0.78947,-0.30295 1.57697,-0.21926 1.75,0.18597 0.17304,0.40523 5.90954,3.56457 12.74779,7.02075 10.3714,5.24191 12.98358,6.18071 15.75235,5.66128 2.27121,-0.42608 4.75401,0.012 7.86366,1.38757 10.33527,4.57177 13.9497,4.53407 37.49809,-0.39122 13.35542,-2.79336 23.62717,-5.5096 27.21363,-7.19632 4.46255,-2.09875 6.02984,-2.44045 6.95415,-1.51614 0.9243,0.9243 0.20955,2.19551 -3.17136,5.64041 -3.47268,3.5384 -5.81335,4.87791 -11.45414,6.55494 -3.89926,1.15926 -14.04929,4.351 -22.55564,7.09275 l -15.46607,4.98501 -13.53393,-2.59747 c -16.30996,-3.13025 -16.0966,-3.08375 -18.28392,-3.98424 -1.22162,-0.50292 -1.75,-0.25478 -1.75,0.82182 0,0.85667 -1.56557,2.10838 -3.52178,2.81576 -1.93697,0.70042 -4.19735,2.30454 -5.02305,3.56472 -1.71531,2.6179 -4.20269,2.92756 -7.01247,0.873 -2.53568,-1.85414 -1.26015,-3.10921 1.44376,-1.4206 1.75677,1.09712 2.33445,1.0465 3.70567,-0.32472 1.49929,-1.49929 1.44471,-1.8676 -0.70826,-4.77964 -2.24921,-3.04222 -2.2775,-3.30876 -0.79035,-7.44437 l 1.54239,-4.28918 -6.8146,-4.22272 c -3.74803,-2.32249 -7.26611,-3.94366 -7.81795,-3.6026 C 105.35552,137.89831 105,154.57352 105,184.55902 105,224.90421 104.80564,231 103.5193,231 c -1.28084,0 -1.53687,-6.37773 -1.89684,-47.25 z m -18.60433,-9.96016 c 2.134945,-3.99673 2.630998,-7.30906 0.937894,-6.26266 C 82.491113,168.43254 78,165.28616 78,163.3545 c 0,-2.76908 -2.86452,0.43415 -6.074144,6.79238 -1.601018,3.1716 -4.264297,7.30793 -5.918399,9.19185 -3.662265,4.17109 -3.841257,5.2537 -0.507457,3.06931 2.321206,-1.52091 2.684402,-1.51723 5.078424,0.0514 1.71159,1.12148 2.37838,2.25275 1.983386,3.36501 -0.948122,2.6698 8.267235,-7.93652 10.45632,-12.0346 z M 90.8,161.8 c 0.66,-0.66 1.198318,-2.3475 1.196262,-3.75 -0.0037,-2.49243 -0.04881,-2.47607 -2,0.72417 C 88.898318,160.57496 88,162.26246 88,162.52417 c 0,0.89188 1.59698,0.47885 2.8,-0.72417 z m 89.36944,-5.74092 c 8.43181,-2.71751 18.52407,-5.89039 22.42725,-7.05084 5.4054,-1.60707 8.01145,-3.04671 10.93502,-6.04072 2.11109,-2.16194 3.5175,-4.25164 3.12537,-4.64378 -0.39214,-0.39213 -3.09267,0.45415 -6.00119,1.88062 -3.34111,1.63864 -13.54829,4.3273 -27.72205,7.30224 C 160.89686,152.13195 157,153.24294 157,154.90033 c 0,1.78053 4.24291,6.09967 5.99202,6.09967 1.01578,0 8.74561,-2.22342 17.17742,-4.94092 z m -22.77819,1.4153 c -1.54051,-2.35113 -1.5399,-2.65265 0.009,-4.36405 1.58485,-1.75124 1.47247,-1.86408 -2.36981,-2.37944 -2.21846,-0.29755 -6.46442,-1.54854 -9.43546,-2.77997 -6.08831,-2.52346 -9.0996,-2.1165 -8.08121,1.09214 0.6727,2.11949 -0.94568,4.95694 -2.82724,4.95694 -0.58778,0 -0.25253,-0.59679 0.74499,-1.3262 3.56986,-2.61034 0.97241,-4.94605 -12.98196,-11.6738 -7.41509,-3.575 -14.14966,-6.6455 -14.96572,-6.82332 -2.53159,-0.55167 -1.58972,1.24662 1.47875,2.82332 4.42702,2.27478 16.70503,10.65302 17.50247,11.9433 2.67012,4.32036 11.91845,7.49641 31.80809,10.9235 0.42518,0.0733 0.0284,-1.00333 -0.8818,-2.39242 z M 126,150.0567 c 0,-0.51881 -1.01016,-1.65083 -2.2448,-2.51561 -2.51539,-1.76185 -3.70462,-0.39 -1.7273,1.99253 1.3589,1.63738 3.9721,1.98151 3.9721,0.52308 z m -20,-20.94971 c 0,-0.49116 -0.675,-1.15203 -1.5,-1.46862 -2.0363,-0.7814 -2.02656,-14.17345 0.0175,-24.06939 C 106.22283,95.312971 105.40947,91 102.1472,91 c -3.557422,0 -4.595079,2.547792 -3.308219,8.12277 0.63856,2.7664 1.161019,10.58748 1.161019,17.3802 0,10.92138 0.20248,12.4033 1.75,12.8077 2.99645,0.78306 4.25,0.72298 4.25,-0.20368 z M 91.545403,115.70814 c -4.179494,-4.5667 -8.374503,-9.85673 -9.322242,-11.75562 -2.225159,-4.458324 -5.716225,-5.15923 -7.390834,-1.48386 -0.958626,2.10395 -0.912385,2.86703 0.240327,3.96592 0.78504,0.74839 6.377346,5.74543 12.427346,11.10453 7.924603,7.01963 11.090093,9.28647 11.322242,8.10798 0.184833,-0.9383 -2.918122,-5.17642 -7.276839,-9.93895 z M 88,105.54797 C 88,103.41249 86.348162,102 83.850825,102 c -0.559816,0 -0.687613,0.97201 -0.295824,2.25 C 85.092204,109.26424 88,110.11334 88,105.54797 z m 23,-2.92553 c 0,-2.705068 -2.64049,-5.424366 -3.91327,-4.030058 -0.45568,0.49919 -1.12019,2.145118 -1.47667,3.657618 -0.5977,2.53587 -0.41309,2.75 2.37089,2.75 C 110.49314,105 111,104.60084 111,102.62244 z M 78.02439,99 C 83.034641,99 79.794103,93.378363 70.63448,86.180095 65.31888,82.002727 64,81.340388 64,82.848271 c 0,1.035106 -0.879133,2.999648 -1.953629,4.365648 l -1.953629,2.483637 3.562665,3.401222 c 1.959466,1.870672 4.696419,5.171373 6.082119,7.334892 l 2.519454,3.93367 1.954916,-2.68367 C 75.287101,100.20765 77.002722,99 78.02439,99 z m 29.55716,-22.405838 c -0.17273,-9.543778 -0.61031,-17.83168 -0.9724,-18.41756 -0.78076,-1.263294 -3.60193,-29.656034 -3.60619,-36.293249 C 103.00011,17.43547 99.498047,7 98.008225,7 c -0.779638,0 -0.272546,49.856928 0.574659,56.5 0.686203,5.380637 2.894206,8.319616 5.171276,6.883277 0.93519,-0.589907 2.00323,-2.154969 2.37342,-3.477917 0.52951,-1.892353 0.69432,-1.995601 0.77274,-0.484101 C 107.01741,68.67811 104.28624,72 102.31363,72 c -0.75702,0 -1.68437,-0.7875 -2.06078,-1.75 -0.78558,-2.008755 -3.093086,9.800901 -3.191397,16.333333 -0.07249,4.816724 0.531753,5.687662 2.913893,4.199991 2.261014,-1.412026 5.069104,-0.329364 5.733284,2.210476 0.28531,1.091038 0.8941,1.751726 1.35286,1.468195 0.45877,-0.28353 0.69279,-8.324056 0.52006,-17.867833 z M 525.61224,179.12403 c -2.9587,-3.26933 -3.0373,-8.05832 -0.23122,-14.08854 2.98471,-6.41413 2.56383,-6.99764 -5.06363,-7.02018 -4.23052,-0.0125 -5.29396,0.33552 -5.78873,1.89438 -0.33336,1.05034 -1.26369,2.45544 -2.06739,3.12245 -2.06149,1.71089 -4.77605,-0.64181 -4.05505,-3.5145 0.51727,-2.06099 0.24918,-2.12553 -8.18572,-1.97086 -5.30159,0.0972 -6.26601,0.003 -2.4599,-0.23936 5.96158,-0.38021 6.208,-0.49758 5.15922,-2.45723 -0.97149,-1.81526 -1.76877,-1.99477 -6.7606,-1.5222 l -5.65922,0.53575 6.36774,-1.31335 c 5.65019,-1.16537 8.06826,-2.57379 8.11695,-4.72781 0.008,-0.37258 -1.22219,-1.65293 -2.73469,-2.84522 -2.13884,-1.68602 -3.62741,-2.05076 -6.69803,-1.64117 -2.59948,0.34674 -3.45342,0.21371 -2.5,-0.38947 1.99578,-1.26263 9.80962,-1.17428 15.66416,0.17711 4.32636,0.99865 5.82693,0.83156 13.4709,-1.5 10.37171,-3.16356 11.26886,-3.19699 14.63974,-0.54545 2.1134,1.6624 3.47821,1.95301 6.81906,1.45202 2.56455,-0.38458 4.433,-0.21186 4.84047,0.44743 0.42275,0.68402 1.75324,0.15695 3.66539,-1.45202 1.65097,-1.38919 3.38043,-2.52581 3.84325,-2.52581 0.46282,0 1.55329,-0.27314 2.42327,-0.60699 3.18524,-1.22229 1.47613,1.6243 -1.79613,2.99154 -4.27949,1.78808 -5.08185,3.12949 -4.73611,7.91793 0.40773,5.64706 -1.85416,7.69752 -8.49127,7.69752 -3.9882,0 -5.54692,-0.43198 -6.3146,-1.75 -0.95281,-1.63587 -1.02127,-1.62777 -1.04969,0.12414 -0.0167,1.03078 -1.64595,5.4522 -3.6205,9.82539 -3.1821,7.04764 -3.45526,8.27676 -2.40368,10.81551 1.95797,4.72696 -1.02175,6.83527 -4.39399,3.10899 z M 530,179.04705 c 0,-0.52412 -0.49862,-2.0473 -1.10805,-3.38484 -0.93588,-2.05405 -0.54745,-3.67347 2.5,-10.42291 3.28759,-7.28127 4.38924,-11.2393 3.12829,-11.2393 -0.26387,0 -2.30127,0.72882 -4.52756,1.61961 -3.3714,1.34896 -3.79417,1.80849 -2.52998,2.75 1.3329,0.99268 1.20458,1.80041 -1.05335,6.63039 -2.65916,5.68824 -2.78139,10.64187 -0.3353,13.58923 1.32621,1.59798 3.92595,1.90115 3.92595,0.45782 z M 513.39411,160.25 c 3.37715,-6.42498 14.79516,-14.95948 18.45833,-13.79684 0.96386,0.30592 2.62887,-0.0945 3.70002,-0.8899 1.5555,-1.15502 1.72594,-1.81019 0.84668,-3.25469 -1.8054,-2.96604 -5.58939,-2.66923 -11.38879,0.89331 -8.3933,5.15597 -16.88825,15.06797 -15.65906,18.27118 0.88567,2.30802 2.43281,1.83998 4.04282,-1.22306 z m 0.27897,-8.49976 c 1.54042,-2.22282 4.83165,-5.31741 7.31384,-6.87687 5.26703,-3.30905 5.13548,-3.39586 -1.95514,-1.29017 -5.0065,1.48677 -7.47507,1.43874 -15.03178,-0.2925 l -2.5,-0.57275 2.33568,2.54668 c 1.93711,2.1121 2.14441,2.90406 1.21481,4.64102 -0.61647,1.15189 -1.5654,2.09435 -2.10873,2.09435 -0.54332,0 -0.30186,1.04697 0.53658,2.3266 2.34577,3.5801 6.68894,2.48252 10.19474,-2.57636 z m 16.44817,2.99976 c 4.40315,-1.69369 5.85681,-2.7445 5.87939,-4.25 0.0165,-1.1 0.48676,-2.675 1.04505,-3.5 0.75311,-1.1129 0.85021,-0.79031 0.37628,1.25 -0.35133,1.5125 -0.35643,3.875 -0.0113,5.25 0.51896,2.0677 1.22939,2.5 4.10841,2.5 C 544.62491,156 545,155.71216 545,153.32874 545,150.46611 542.4962,147 540.42835,147 c -0.69393,0 -1.43469,-0.51901 -1.64614,-1.15336 -0.26554,-0.79662 -1.17566,-0.63495 -2.94243,0.52268 -1.40688,0.92183 -3.25275,1.40944 -4.10192,1.08358 -2.07181,-0.79503 -8.55001,2.6399 -12.17495,6.45552 L 516.62582,157 l 3.82302,0 c 2.10266,0 6.45524,-1.0125 9.67241,-2.25 z m -113.46626,11.42126 c -2.56284,-2.83191 -2.23593,-10.65094 0.52619,-12.58561 2.11665,-1.48256 2.12736,-1.58724 0.36197,-3.53797 -2.16079,-2.38764 -2.61746,-11.45149 -0.73297,-14.54768 1.0678,-1.75438 1.1235,-1.63157 0.45356,1 -1.12793,4.43056 -0.53742,11.65489 1.08529,13.2776 1.1328,1.1328 1.86295,1.17932 3.63396,0.2315 1.76879,-0.94663 2.07897,-1.72355 1.53613,-3.84762 -0.37411,-1.46381 -0.8365,-4.46148 -1.02755,-6.66148 -0.19104,-2.2 -0.14748,-2.875 0.0968,-1.5 0.24428,1.375 0.97775,4.24474 1.62993,6.37719 1.09141,3.56866 1.00524,4.02338 -1.08287,5.71423 l -2.26865,1.83704 2.31661,0.50476 c 6.51788,1.42016 7.1119,1.21601 9.98996,-3.43322 1.53212,-2.475 3.19229,-6.975 3.68926,-10 0.56761,-3.45496 0.94498,-4.38452 1.01491,-2.5 0.17937,4.83368 -1.71799,10.13781 -5.30954,14.84299 -2.29569,3.00753 -3.07507,4.82575 -2.4748,5.77353 0.48191,0.76092 0.88309,2.39598 0.89151,3.63348 0.0172,2.53493 0.35693,2.67272 3.04381,1.23475 1.10367,-0.59067 1.65875,-1.63619 1.32727,-2.5 -0.65052,-1.69524 1.18353,-2.0392 2.18998,-0.41072 0.93651,1.51529 -3.47686,5.91957 -5.97006,5.95777 -1.14163,0.0175 -2.9492,0.6925 -4.01682,1.5 -2.74899,2.07923 -8.87936,1.87653 -10.90388,-0.36054 z m 5.27692,-7.07563 c 2.51017,-3.52521 2.58494,-4.707 0.37605,-5.94316 -2.82445,-1.58064 -6.30796,1.436 -6.30796,5.46254 0,4.38425 2.98033,4.62572 5.93191,0.48062 z m -31.86211,1.36279 c -3.05319,-2.42652 -6.04001,-6.43429 -9.60939,-12.89412 C 375.30694,138.23764 373.35426,134.99959 365.25,122.34154 362.9125,118.6906 361,115.41382 361,115.05982 361,114.20158 349.60304,109 347.7226,109 c -0.81274,0 -2.03791,0.675 -2.7226,1.5 -0.68469,0.825 -1.8041,1.5 -2.48759,1.5 -0.68348,0 -2.42689,0.93149 -3.87425,2.06998 -2.77413,2.18214 -6.70077,2.28253 -7.39019,0.18895 -0.2934,-0.89098 0.46026,-1.06728 2.67167,-0.625 2.42949,0.4859 3.08036,0.27271 3.08036,-1.00893 0,-0.89375 -0.45728,-1.625 -1.01618,-1.625 -0.5589,0 -1.76156,-1.56308 -2.67258,-3.47351 -2.38342,-4.99809 -0.84056,-7.838384 5.17234,-9.521893 4.48944,-1.256965 4.76528,-1.210279 7.19294,1.217378 2.37407,2.374065 2.69845,2.437675 5.44473,1.067655 1.60614,-0.801253 7.92318,-2.353376 14.03785,-3.449165 10.09899,-1.809803 11.26133,-1.848609 12.68639,-0.423547 1.12769,1.12769 1.26376,1.873837 0.48392,2.653675 -1.41946,1.419457 -7.79378,2.871257 -12.82941,2.921997 l -4,0.0403 6.18242,5.73355 c 5.81268,5.39066 6.79627,7.01934 16.4467,27.23355 5.64536,11.825 10.89021,22.25402 11.65524,23.1756 1.50119,1.80839 1.33779,4.95801 -0.28436,5.48119 -0.55,0.17738 -2.99359,-1.26188 -5.4302,-3.19837 z M 396,161.32874 c 0,-0.91919 -0.5879,-2.38169 -1.30644,-3.25 -0.71854,-0.86831 -5.78104,-10.90548 -11.25,-22.30483 C 374.65708,117.4596 373.26727,115.1189 371.5,115.65869 c -4.38384,1.33898 -4.67427,6.74437 -0.72664,13.52406 3.34979,5.75296 15.08742,26.12497 15.45762,26.82848 0.52519,0.99803 8.23725,6.98877 8.99686,6.98877 0.42469,0 0.77216,-0.75207 0.77216,-1.67126 z m -28.55954,-42.61411 c 0.39625,-1.79349 1.58473,-3.15924 3.33747,-3.83527 l 2.72207,-1.04991 -6,-5.39046 c -3.51892,-3.16144 -6.95015,-5.40049 -8.29775,-5.41473 -2.08153,-0.022 -7.20225,4.23393 -7.20225,5.9859 0,0.39497 2.01512,1.4877 4.47804,2.4283 3.63556,1.38844 4.99303,2.6564 7.21541,6.73963 1.50555,2.7662 2.82607,4.64526 2.93449,4.17568 0.10841,-0.46957 0.47405,-2.10719 0.81252,-3.63914 z m -13.5556,-13.59137 c 2.0749,-2.22119 3.93238,-3.03069 8.15121,-3.55235 11.93127,-1.4753 13.68518,-1.780598 15.04013,-2.618003 1.03511,-0.639736 1.11222,-1.164489 0.29167,-1.985035 -0.82054,-0.820545 -3.99059,-0.593341 -11.99164,0.859467 -15.5988,2.832381 -18.65746,4.391441 -17.0146,8.672661 0.86084,2.24333 2.53031,1.82719 5.52323,-1.37674 z m -7.09084,-1.67843 c 0.45562,-3.18472 -3.04771,-5.767657 -6.72686,-4.959581 C 338.38022,98.855763 337,99.436032 337,99.774736 c 0,0.338704 1.22644,1.895954 2.72542,3.460554 3.11346,3.24975 6.61879,3.35366 7.0686,0.20954 z m 107.2512,53.87429 C 452.92035,156.53123 452,154.85685 452,153.59828 c 0,-4.55326 2.95729,-5.7304 20.6583,-8.22295 9.18441,-1.2933 16.91854,-2.13182 17.18697,-1.86339 0.26844,0.26843 0.0756,0.50505 -0.4286,0.52581 -5.88502,0.24237 -33.73794,4.98399 -34.88921,5.93946 -2.00884,1.66719 -1.95455,5.6844 0.0923,6.82988 0.89087,0.49856 9.10337,0.7465 18.25,0.55099 9.14663,-0.19551 16.18023,-0.16703 15.63023,0.0633 -0.55,0.23031 -8.06715,0.62384 -16.70478,0.87452 -12.57142,0.36484 -16.11283,0.16996 -17.75,-0.97676 z m 4.51349,-2.30447 c 1.13229,-0.44477 8.55729,-1.04827 16.5,-1.34111 13.77163,-0.50775 13.93121,-0.49236 3.44129,0.33186 -6.05,0.47536 -13.475,1.07886 -16.5,1.34111 -3.34184,0.28972 -4.69218,0.1595 -3.44129,-0.33186 z M 233.46693,138.94649 c -0.35811,-0.57943 0.95956,-3.12086 2.92814,-5.64762 2.61757,-3.35976 6.33668,-6.12668 13.84209,-10.29812 5.64456,-3.13721 11.89898,-6.78327 13.8987,-8.10238 6.67213,-4.40122 10.32164,-6.2654 15.63815,-7.98798 2.90071,-0.93985 7.22151,-3.30465 9.60179,-5.2551 2.38028,-1.950463 6.08197,-4.300419 8.22599,-5.222127 6.60405,-2.839072 6.83673,-3.033459 7.49735,-6.263535 0.43044,-2.1046 0.19029,-3.514458 -0.72852,-4.277005 -1.99219,-1.653371 -1.6786,-5.303926 0.63551,-7.398171 2.64337,-2.392212 3.84753,-1.095216 1.44644,1.557953 -2.78512,3.077528 -0.88046,5.520465 3.97775,5.101905 C 315.7844,84.693029 318,87.024481 318,93.119804 318,98.228308 316.46321,100 312.03202,100 c -1.32645,0 -2.836,1.24832 -4.09982,3.39034 -1.23102,2.08642 -5.63003,5.78373 -11.43803,9.61351 -5.19073,3.42274 -9.9555,6.84709 -10.58838,7.60966 -1.56768,1.88895 -4.60482,1.74671 -5.73257,-0.26847 -0.81037,-1.44804 -3.34841,-0.48478 -20.29969,7.70437 -10.65544,5.14763 -20.08396,9.94236 -20.95227,10.65496 -1.90786,1.56573 -4.56344,1.68361 -5.45433,0.24212 z m 5.45433,-1.25293 c 0.86831,-0.71854 10.90548,-5.78104 22.30483,-11.25 18.31431,-8.78648 20.65501,-10.17629 20.11522,-11.94356 -1.33898,-4.38384 -6.74162,-4.67396 -13.53142,-0.72664 -15.92528,9.25833 -24.70383,14.25258 -25.91955,14.74604 -1.41543,0.57452 -7.89034,8.63988 -7.89034,9.82846 0,1.13903 3.28135,0.70276 4.92126,-0.6543 z m 46.60461,-17.73541 c 0.35414,-0.57302 4.92797,-3.9067 10.16406,-7.40818 5.23609,-3.50147 10.34127,-7.71651 11.34484,-9.36675 1.76926,-2.90932 1.76825,-3.05151 -0.0334,-4.681964 -2.39303,-2.165664 -5.80192,-1.144199 -6.58428,1.972964 -0.52624,2.09672 -13.90262,14.50226 -18.35819,17.02578 -0.97109,0.55 -1.56911,1.5625 -1.32894,2.25 0.52876,1.51355 3.89871,1.65981 4.79589,0.20815 z M 295.98732,105 c 1.5555,-1.375 3.1256,-3.51432 3.4891,-4.75404 0.36351,-1.239727 1.86752,-2.928661 3.34225,-3.75319 l 2.68133,-1.499145 -3,0.643527 c -4.23371,0.90817 -8.33017,3.110717 -13.22599,7.111238 -2.32429,1.89925 -6.82429,4.28363 -10,5.29862 -3.17571,1.01499 -4.79831,1.86964 -3.6058,1.89921 3.56532,0.0884 5.43197,1.18708 6.41647,3.77652 l 0.93148,2.44997 5.07149,-4.33636 c 2.78931,-2.38499 6.34417,-5.46135 7.89967,-6.83635 z M 314.25,98.564471 C 316.60792,98.047808 317,97.4656 317,94.480948 317,91.462318 316.67759,91 314.57248,91 c -3.08046,0 -7.97265,5.812897 -6.44319,7.65579 0.55932,0.673931 1.54654,1.064662 2.19382,0.868292 0.64729,-0.19637 2.41439,-0.628195 3.92689,-0.959611 z m 110.20159,32.735189 c 2.57483,-5.32181 1.52826,-5.78309 -3.62486,-1.59765 l -3.32673,2.70201 2.40817,-2.68482 c 1.32449,-1.47666 3.18859,-2.93252 4.14245,-3.23527 0.95386,-0.30274 2.2082,-1.77297 2.78743,-3.26718 1.3213,-3.40854 5.43674,-25.050758 7.64752,-40.21675 0.92201,-6.325 2.21791,-12.621816 2.87978,-13.992925 1.4056,-2.911793 4.08038,-3.711968 6.28686,-1.880748 3.15859,2.621394 3.46615,5.84603 1.83962,19.287794 -3.86282,31.922779 -4.55747,36.366629 -6.4224,41.085879 -1.08674,2.75 -1.99693,4.42305 -2.02266,3.71788 -0.0257,-0.70516 0.63141,-2.90523 1.46029,-4.88903 2.08462,-4.98919 0.57169,-6.93806 -3.67948,-4.73969 -2.28766,1.18299 -3.29409,1.26856 -4.37449,0.37191 -1.49489,-1.24065 -2.71197,0.67314 -3.84045,6.03893 -0.28918,1.375 -1.24211,3.4 -2.11762,4.5 -1.4617,1.83649 -1.46525,1.73836 -0.0434,-1.20034 z m 10.48132,-10.76497 c 3.08374,-1.59466 3.03175,-1.33033 6.09239,-30.97722 0.56453,-5.468391 1.29745,-10.193391 1.62869,-10.5 0.33125,-0.306608 0.33489,1.46753 0.008,3.94253 -0.32681,2.475 -1.09727,9.9 -1.71215,16.5 -0.61488,6.6 -1.47362,13.92088 -1.90832,16.26862 -0.43751,2.36295 -0.39685,4.51183 0.0911,4.81339 1.21161,0.74881 1.50124,-0.53646 2.83529,-12.58201 0.63958,-5.775 1.83683,-16.004474 2.66056,-22.732164 1.66429,-13.592815 0.94007,-17.470041 -3.37823,-18.086119 -2.92798,-0.417725 -3.62449,1.502185 -5.73862,15.818283 -0.93405,6.325 -2.78508,17.07432 -4.11341,23.88737 -1.82094,9.33964 -2.13691,12.72263 -1.28427,13.75 1.39745,1.68383 1.36274,1.68457 4.8189,-0.10268 z M 223,131.40437 c 0,-0.3276 0.90815,-1.871 2.0181,-3.42979 2.47898,-3.4814 1.14187,-4.62578 -2.93907,-2.51545 -1.63884,0.84748 -4.04862,1.54087 -5.35506,1.54087 -3.03815,0 -6.469,-3.6727 -6.89389,-7.37988 l -0.33008,-2.87988 -7.21974,6.6955 c -6.21761,5.76614 -7.66436,6.65168 -10.42299,6.37988 -4.5854,-0.4518 -4.61015,-2.39088 -0.0601,-4.71213 6.4857,-3.30875 18.10275,-17.24866 16.29275,-19.55052 -0.45538,-0.57913 -1.32884,-4.50466 -1.94102,-8.723393 -1.05508,-7.271035 -1.67371,-8.563765 -11.88095,-24.827415 -5.92235,-9.436345 -13.19298,-19.84958 -16.15697,-23.140521 -6.6764,-7.412893 -6.04078,-9.150436 2.37674,-6.497048 4.34197,1.368686 5.86425,2.418098 7.1613,4.936787 1.82868,3.551018 16.88783,23.228954 21.96251,28.69862 3.40979,3.675185 9.40631,16.298948 11.55053,24.31597 0.94931,3.54935 0.98693,5.45106 0.15163,7.66404 -0.89094,2.36036 -0.8209,3.18405 0.35362,4.15881 2.20011,1.82593 4.54961,6.85363 3.94232,8.43618 -0.29474,0.76808 0.34657,1.86635 1.42765,2.44493 2.62129,1.40287 2.47954,4.14595 -0.35169,6.80576 C 224.40446,131.96866 223,132.57025 223,131.40437 z m -23.94617,-5.99787 c 1.89539,-1.97643 7.15867,-6.54906 11.69617,-10.16142 4.5375,-3.61236 8.25,-7.13814 8.25,-7.83507 C 219,105.98134 216.30285,103 215.01036,103 c -2.32981,0 -4.27112,1.59001 -5.95007,4.87333 -2.6286,5.14045 -13.41613,16.61721 -17.0239,18.1116 -3.9834,1.64997 -3.86231,3.01507 0.26744,3.01507 2.48619,0 4.15671,-0.88934 6.75,-3.5935 z m 16.72366,-3.9632 c 2.44485,-1.71244 3.01245,-6.25336 1.02951,-8.2363 -1.71965,-1.71965 -5.807,2.36322 -5.807,5.80065 0,4.2601 1.25746,4.90118 4.77749,2.43565 z m 2.88392,-25.510766 C 214.58667,85.181866 213.59453,83 212.78076,83 212.35134,83 212,83.81 212,84.8 c 0,2.341477 -1.90649,4.2 -4.30841,4.2 -1.47073,0 -1.78587,0.516019 -1.37412,2.25 0.29386,1.2375 0.84449,4.8375 1.22363,8 0.37914,3.1625 0.87833,5.75 1.10931,5.75 0.23097,0 1.50709,-0.71232 2.83581,-1.58293 3.08914,-2.02408 6.27332,-1.04849 7.82474,2.3974 l 1.18904,2.64099 0.29974,-3.04519 c 0.16486,-1.67486 -0.79738,-5.939843 -2.13833,-9.477736 z M 210.60438,86.25 c 0.29789,-0.9625 0.96478,-2.541028 1.48199,-3.507839 0.73339,-1.37093 0.10268,-2.691559 -2.86547,-6 -6.11761,-6.818957 -21.05836,-26.29131 -22.35304,-29.13284 -0.86521,-1.898917 -2.63709,-3.064822 -6.51598,-4.287533 -2.93019,-0.923661 -5.61353,-1.393476 -5.96297,-1.044033 -0.34944,0.349444 1.7826,3.316035 4.73787,6.592426 2.95527,3.27639 10.04196,13.420941 15.7482,22.543446 C 203.61912,85.39278 205.62823,88 207.65637,88 c 1.41881,0 2.62868,-0.718199 2.94801,-1.75 z M 32.5,67.876863 c -2.75,-2.210444 -7.9905,-5.978934 -11.645555,-8.374422 -7.385157,-4.840162 -8.585917,-6.170969 -6.999409,-7.757477 1.886113,-1.886113 8.937422,1.048591 20.08327,8.358513 C 39.721839,63.896565 44.094743,67 43.655869,67 43.216996,67 38.502386,64.145016 33.178959,60.655591 24.113201,54.713126 18.524893,52 15.350777,52 12.53755,52 14.199051,54.151995 19.75,57.697926 c 8.141516,5.200778 20.133451,14.694392 18,14.25 -0.1375,-0.02864 -2.5,-1.86062 -5.25,-4.071063 z"
       id="path2989"
       style="fill:#000000" />
  </g>
  <path
     inkscape:connector-curvature="0"
     style="fill:#000000"
     d="m 441.05782,49.6013 c -1.63911,0 -3.27965,1.700837 -3.5664,5.101562 -0.16166,1.917358 0.20628,4.088719 0.8164,4.826172 0.61012,0.737454 1.84785,1.341797 2.75,1.341797 2.536,0 3.88731,-2.339023 3.56446,-6.167969 -0.28676,-3.400725 -1.92534,-5.101562 -3.56446,-5.101562 z m -8.20703,0.126953 c -3.43312,0.147724 -5.17166,5.213756 -2.94531,9.386719 1.18959,2.229725 4.41864,2.036386 5.91211,-0.353516 1.37015,-2.19255 -0.38569,-4.947671 -3.08594,-4.84375 -1.10332,0.04246 -1.84328,-0.379413 -1.64453,-0.9375 0.19875,-0.558086 1.49941,-0.931794 2.89063,-0.830078 3.14675,0.230068 2.77022,-1.918396 -0.41797,-2.384766 -0.24326,-0.03558 -0.48011,-0.04696 -0.70899,-0.03711 z m -8.27539,0.05078 c -1.21705,0.0055 -2.52025,0.491864 -3.10547,1.199219 -1.05457,1.274647 -0.84262,1.382626 1.7168,0.86914 1.88401,-0.377978 2.91797,-0.212279 2.91797,0.46875 0,0.580079 -0.63132,1.054688 -1.40235,1.054688 -1.86192,0 -1.77353,0.92545 0.23243,2.412109 1.28008,0.9487 1.39115,1.460559 0.50781,2.359375 -0.89035,0.905941 -1.43877,0.89123 -2.59375,-0.07031 -1.87975,-1.564933 -2.99007,-0.507446 -1.4375,1.36914 1.43381,1.733033 4.10929,1.857354 5.4375,0.251954 0.53588,-0.647714 0.90381,-3.073496 0.81641,-5.390625 -0.14279,-3.784189 -0.40566,-4.241045 -2.57618,-4.494141 -0.16804,-0.0196 -0.3398,-0.03008 -0.51367,-0.0293 z m 22.9668,0.03906 c -1.11679,0.03501 -2.08225,1.494323 -1.49805,3.021484 0.30913,0.808096 1.00841,1.46875 1.55469,1.46875 1.51386,0 2.25489,-2.799969 1.05859,-4 -0.35385,-0.354965 -0.74297,-0.501904 -1.11523,-0.490234 z m 0.0566,1.013672 c 0.51402,0 0.73828,0.359374 0.73828,1.132812 0,0.773437 -0.22426,1.056641 -0.73828,1.056641 -0.51402,0 -0.75195,-0.283204 -0.75195,-1.056641 0,-0.773438 0.23793,-1.132812 0.75195,-1.132812 z m -6.54102,1.132812 c 0.97257,0 1.40039,0.980902 1.40039,3.203125 0,3.324107 -1.92901,5.046376 -2.87695,2.568359 -0.89693,-2.344653 -0.0197,-5.771484 1.47656,-5.771484 z m -8.07031,3.509766 c 0.17396,0.0263 0.34676,0.08719 0.51172,0.189453 0.5588,0.346441 1.01563,1.237461 1.01562,1.980469 0,1.578394 -2.40422,1.818925 -3.32031,0.332031 -0.71364,-1.1583 0.57528,-2.686087 1.79297,-2.501953 z"
     id="path4155" />
</svg>
